<?xml version="1.0" encoding="utf-8"?>
<!-- Generator: Adobe Illustrator 17.0.0, SVG Export Plug-In . SVG Version: 6.00 Build 0)  -->
<!DOCTYPE svg PUBLIC "-//W3C//DTD SVG 1.1//EN" "http://www.w3.org/Graphics/SVG/1.1/DTD/svg11.dtd">
<svg version="1.1" id="Layer_1" xmlns="http://www.w3.org/2000/svg" xmlns:xlink="http://www.w3.org/1999/xlink" x="0px" y="0px"
	 width="105.913px" height="91.406px" viewBox="0 0 105.913 91.406" enable-background="new 0 0 105.913 91.406"
	 xml:space="preserve">
<g>
	
		<radialGradient id="SVGID_2_" cx="-374.7994" cy="97.0205" r="42.6249" gradientTransform="matrix(1.2424 0 0 1.0722 518.6075 -58.3225)" gradientUnits="userSpaceOnUse">
		<stop  offset="0" style="stop-color:#022538"/>
		<stop  offset="0.3137" style="stop-color:#02263A"/>
		<stop  offset="0.4267" style="stop-color:#022941"/>
		<stop  offset="0.5073" style="stop-color:#022E4C"/>
		<stop  offset="0.5725" style="stop-color:#02365D"/>
		<stop  offset="0.6283" style="stop-color:#014073"/>
		<stop  offset="0.6777" style="stop-color:#014D8F"/>
		<stop  offset="0.7224" style="stop-color:#015BAF"/>
		<stop  offset="0.7621" style="stop-color:#006CD3"/>
		<stop  offset="0.7988" style="stop-color:#007FFC"/>
		<stop  offset="0.801" style="stop-color:#0080FF"/>
		<stop  offset="0.8223" style="stop-color:#2694F9;stop-opacity:0.893"/>
		<stop  offset="0.8472" style="stop-color:#4BA8F2;stop-opacity:0.7679"/>
		<stop  offset="0.8733" style="stop-color:#6AB8ED;stop-opacity:0.6367"/>
		<stop  offset="0.9005" style="stop-color:#82C4E9;stop-opacity:0.5"/>
		<stop  offset="0.9293" style="stop-color:#93CDE6;stop-opacity:0.3552"/>
		<stop  offset="0.9608" style="stop-color:#9DD2E5;stop-opacity:0.197"/>
		<stop  offset="1" style="stop-color:#A0D4E4;stop-opacity:0"/>
	</radialGradient>
	<ellipse fill="url(#SVGID_2_)" cx="52.957" cy="45.703" rx="52.957" ry="45.703"/>
	<g>
		<g>
			<g>
				<g>
					<path fill="#FFFFFF" d="M39.056,32.436v-1.034h2.228v4.563l-0.536,0.195c-0.188,0.061-0.395,0.108-0.618,0.143
						c-0.34,0.061-0.667,0.089-0.981,0.084c-0.827,0-1.416-0.228-1.767-0.683c-0.307-0.398-0.462-1.118-0.466-2.158v-3.315
						c0.004-0.94,0.063-1.584,0.179-1.931c0.217-0.646,0.616-1.051,1.198-1.216c0.274-0.078,0.566-0.119,0.878-0.124
						c0.693,0.013,1.217,0.203,1.568,0.569c0.353,0.366,0.534,0.974,0.545,1.823v0.299h-1.052v-0.208
						c0-0.143-0.011-0.292-0.032-0.449c-0.087-0.667-0.419-1.001-0.997-1.001c-0.524,0.013-0.869,0.212-1.035,0.598
						c-0.102,0.212-0.159,0.451-0.174,0.715c-0.021,0.239-0.03,0.497-0.026,0.774v3.25c-0.004,0.702,0.049,1.181,0.157,1.437
						c0.166,0.403,0.517,0.598,1.051,0.585c0.199,0.004,0.399-0.023,0.602-0.084l0.455-0.162v-2.672H39.056z"/>
					<path fill="#FFFFFF" d="M43.532,29.875v0.786c0.151-0.316,0.329-0.542,0.531-0.676c0.134-0.091,0.264-0.154,0.391-0.188
						l0.313-0.052v1.17l-0.33,0.039c-0.354,0.052-0.599,0.229-0.731,0.533c-0.116,0.282-0.174,0.698-0.174,1.248v3.523h-0.986
						v-6.383H43.532z"/>
					<path fill="#FFFFFF" d="M45.348,32.313c0.004-0.663,0.061-1.159,0.169-1.489c0.169-0.494,0.475-0.817,0.915-0.968
						c0.206-0.074,0.423-0.111,0.65-0.111c0.225,0,0.441,0.037,0.65,0.111c0.274,0.095,0.491,0.253,0.65,0.474
						c0.278,0.386,0.421,1.047,0.429,1.983v1.599c0.003,0.845-0.105,1.443-0.325,1.794c-0.282,0.459-0.743,0.687-1.382,0.683
						c-1.016,0.013-1.585-0.507-1.708-1.56c-0.036-0.277-0.052-0.583-0.049-0.917V32.313z M46.335,33.912l0.016,0.618
						c0.032,0.646,0.28,0.966,0.742,0.962c0.322-0.009,0.535-0.195,0.64-0.559c0.062-0.212,0.093-0.552,0.093-1.021v-1.703
						c0-1.053-0.25-1.575-0.748-1.567c-0.448-0.008-0.688,0.313-0.721,0.962l-0.021,0.604V33.912z"/>
					<path fill="#FFFFFF" d="M50.838,29.875v4.303c0.004,0.455,0.025,0.748,0.065,0.877c0.098,0.299,0.292,0.444,0.585,0.436
						c0.191,0.004,0.353-0.052,0.482-0.169c0.162-0.134,0.268-0.349,0.314-0.644c0.028-0.173,0.043-0.364,0.043-0.572v-4.231h0.986
						v6.383h-0.986v-0.565l-0.185,0.26c-0.245,0.291-0.576,0.436-0.991,0.436c-0.368,0-0.68-0.128-0.933-0.383
						c-0.234-0.238-0.355-0.6-0.362-1.086l-0.006-0.689v-4.355H50.838z"/>
					<path fill="#FFFFFF" d="M54.355,29.875h0.986v0.637c0.123-0.186,0.231-0.325,0.325-0.416c0.228-0.229,0.519-0.347,0.873-0.351
						c0.683,0,1.091,0.438,1.225,1.313c0.036,0.251,0.054,0.502,0.054,0.754v1.982c0,0.377-0.016,0.737-0.049,1.079
						c-0.09,1.001-0.531,1.506-1.322,1.515c-0.351-0.004-0.627-0.108-0.829-0.312c-0.083-0.069-0.175-0.178-0.276-0.325v2.873
						h-0.986V29.875z M55.342,33.795c-0.004,0.26,0.007,0.516,0.032,0.767c0.019,0.221,0.057,0.395,0.114,0.52
						c0.111,0.282,0.319,0.418,0.623,0.41c0.423-0.009,0.654-0.329,0.693-0.962c0.019-0.247,0.027-0.5,0.027-0.761V32.04
						l-0.016-0.52c-0.055-0.594-0.282-0.886-0.684-0.878c-0.3-0.004-0.513,0.159-0.64,0.488c-0.068,0.169-0.111,0.351-0.13,0.546
						c-0.018,0.195-0.025,0.412-0.021,0.65V33.795z"/>
					<path fill="#FFFFFF" d="M62.225,33.652v0.625c-0.003,0.286,0.076,0.55,0.239,0.793c0.144,0.208,0.357,0.31,0.639,0.305
						c0.65,0.009,1.032-0.329,1.144-1.014c0.033-0.191,0.049-0.399,0.049-0.624c0-0.386-0.034-0.729-0.103-1.027
						c-0.062-0.256-0.179-0.455-0.353-0.598c-0.188-0.156-0.491-0.24-0.91-0.253v-1.014l0.487-0.065
						c0.221-0.039,0.394-0.115,0.521-0.228c0.13-0.117,0.219-0.283,0.266-0.497c0.047-0.215,0.07-0.445,0.07-0.692
						c-0.004-0.468-0.062-0.8-0.173-0.995c-0.142-0.243-0.396-0.366-0.765-0.371c-0.683,0.004-1.022,0.473-1.019,1.404v0.208h-0.986
						v-0.312c-0.004-1.521,0.643-2.292,1.939-2.314c0.333,0,0.65,0.061,0.954,0.182c0.499,0.204,0.81,0.568,0.933,1.092
						c0.068,0.294,0.103,0.617,0.103,0.968c-0.011,1.066-0.249,1.727-0.715,1.983l-0.363,0.169l0.33,0.136
						c0.431,0.212,0.672,0.616,0.727,1.209c0.029,0.29,0.043,0.589,0.043,0.897c0,0.975-0.149,1.658-0.449,2.048
						c-0.361,0.472-0.909,0.712-1.643,0.721c-0.636,0-1.118-0.204-1.447-0.611c-0.347-0.434-0.515-1.016-0.504-1.749v-0.377H62.225z
						"/>
					<path fill="#FFFFFF" d="M66.599,29.875h1.165v1.397h-1.165V29.875z M67.764,34.861v1.397h-1.165v-1.397H67.764z"/>
					<path fill="#FFFFFF" d="M39.427,42.048c0.391,0.004,0.697,0.019,0.921,0.045c0.325,0.035,0.609,0.165,0.852,0.39
						c0.43,0.408,0.643,1.073,0.64,1.996c-0.008,1.794-0.673,2.689-1.995,2.685h-1.013v4.05h-1.052v-9.166H39.427z M38.831,43.081
						v3.049h0.855c0.444-0.004,0.746-0.141,0.905-0.41c0.127-0.212,0.191-0.604,0.195-1.176c0-0.529-0.098-0.904-0.293-1.125
						c-0.195-0.221-0.517-0.334-0.965-0.338H38.831z"/>
					<path fill="#FFFFFF" d="M42.251,45.947c0.039-0.251,0.136-0.478,0.29-0.679c0.153-0.202,0.335-0.341,0.544-0.419
						c0.25-0.095,0.51-0.145,0.78-0.149c0.314,0,0.601,0.052,0.856,0.156c0.322,0.125,0.557,0.403,0.705,0.832
						c0.075,0.225,0.113,0.626,0.113,1.203v4.323h-0.986v-0.689c-0.181,0.325-0.347,0.535-0.498,0.63
						c-0.195,0.13-0.429,0.193-0.699,0.188c-0.199,0.004-0.376-0.03-0.531-0.104c-0.506-0.208-0.755-0.771-0.748-1.69
						c0-0.386,0.032-0.732,0.098-1.04c0.108-0.533,0.448-0.889,1.019-1.066c0.228-0.073,0.463-0.121,0.705-0.143l0.655-0.026v-0.748
						c-0.007-0.632-0.228-0.942-0.661-0.93c-0.264,0.004-0.451,0.106-0.563,0.306c-0.079,0.143-0.13,0.39-0.151,0.741h-0.986
						C42.194,46.375,42.215,46.143,42.251,45.947z M44.554,48.171h-0.287c-0.816,0.048-1.218,0.494-1.203,1.339
						c-0.011,0.62,0.191,0.932,0.607,0.936c0.35,0.009,0.604-0.21,0.764-0.657c0.062-0.169,0.098-0.344,0.108-0.526l0.011-0.507
						V48.171z"/>
					<path fill="#FFFFFF" d="M47.117,44.83v-1.145l0.986-0.533v1.677h0.802v0.897h-0.802v3.75l0.006,0.423
						c0.011,0.338,0.189,0.516,0.536,0.533l0.26,0.013v0.813l-0.325,0.059c-0.122,0.021-0.247,0.03-0.374,0.026
						c-0.675,0-1.033-0.325-1.072-0.975l-0.017-0.702v-3.939h-0.699V44.83H47.117z"/>
					<path fill="#FFFFFF" d="M50.884,42.034v1.196h-1.063v-1.196H50.884z M49.859,44.83h0.986v6.383h-0.986V44.83z"/>
					<path fill="#FFFFFF" d="M52.786,49.126c-0.004,0.434,0.025,0.737,0.087,0.91c0.094,0.265,0.307,0.401,0.64,0.41
						c0.44,0,0.688-0.243,0.742-0.728l0.021-0.273v-0.149h0.986v0.149l-0.016,0.442c-0.08,0.975-0.663,1.46-1.751,1.456
						c-0.253,0.004-0.486-0.03-0.699-0.104c-0.281-0.086-0.502-0.253-0.661-0.5c-0.217-0.312-0.329-0.869-0.336-1.67v-1.807
						c-0.004-0.893,0.1-1.515,0.309-1.866c0.278-0.464,0.761-0.696,1.447-0.696c1.055,0.013,1.617,0.546,1.686,1.599
						c0.015,0.204,0.021,0.44,0.021,0.708v1.43h-2.477V49.126z M52.786,47.54h1.49v-0.734c-0.003-0.793-0.251-1.196-0.742-1.209
						c-0.314,0.009-0.529,0.167-0.645,0.475c-0.069,0.178-0.104,0.494-0.104,0.949V47.54z"/>
					<path fill="#FFFFFF" d="M56.195,44.83h0.986v0.559c0.289-0.459,0.691-0.689,1.209-0.689c0.209,0,0.406,0.045,0.591,0.137
						c0.419,0.204,0.641,0.609,0.666,1.215l0.011,0.819v4.342h-0.986v-4.024l-0.011-0.644c-0.018-0.633-0.247-0.949-0.688-0.949
						c-0.332,0.009-0.553,0.169-0.661,0.481c-0.062,0.173-0.1,0.361-0.113,0.562c-0.015,0.202-0.021,0.415-0.017,0.641v3.933h-0.986
						V44.83z"/>
					<path fill="#FFFFFF" d="M61.24,44.83v-1.145l0.986-0.533v1.677h0.803v0.897h-0.803v3.75l0.006,0.423
						c0.011,0.338,0.189,0.516,0.536,0.533l0.261,0.013v0.813l-0.325,0.059c-0.123,0.021-0.248,0.03-0.374,0.026
						c-0.676,0-1.033-0.325-1.073-0.975l-0.017-0.702v-3.939h-0.698V44.83H61.24z"/>
					<path fill="#FFFFFF" d="M64.828,49.269v0.234l0.017,0.26c0.062,0.468,0.278,0.696,0.65,0.683
						c0.44-0.004,0.668-0.26,0.683-0.767c0-0.173-0.036-0.327-0.108-0.461c-0.098-0.165-0.221-0.321-0.368-0.468l-0.493-0.442
						l-0.521-0.468c-0.235-0.221-0.404-0.429-0.51-0.624c-0.13-0.238-0.193-0.542-0.189-0.91c0-1.066,0.519-1.602,1.556-1.606
						c0.271,0,0.521,0.043,0.753,0.13c0.455,0.169,0.708,0.552,0.759,1.15l0.017,0.487v0.208h-0.986v-0.201V46.24
						c-0.032-0.42-0.223-0.635-0.569-0.644c-0.354-0.004-0.534,0.217-0.542,0.663c0,0.165,0.031,0.301,0.093,0.41
						c0.079,0.143,0.207,0.295,0.385,0.455l0.612,0.54c0.538,0.455,0.867,0.843,0.986,1.164c0.072,0.212,0.11,0.455,0.113,0.728
						c-0.007,0.577-0.166,1.025-0.477,1.346c-0.285,0.291-0.678,0.438-1.176,0.442c-1.009-0.004-1.56-0.511-1.653-1.521
						l-0.017-0.325v-0.228H64.828z"/>
					<path fill="#FFFFFF" d="M29.322,59.784l0.823,5.532l0.792-5.532h1.376l0.878,5.558l0.824-5.558h0.91l-1.089,6.383H32.46
						l-0.867-5.402l-0.802,5.402h-1.377l-1.089-6.383H29.322z"/>
					<path fill="#FFFFFF" d="M36.763,56.988v1.196h-1.062v-1.196H36.763z M35.739,59.784h0.986v6.383h-0.986V59.784z"/>
					<path fill="#FFFFFF" d="M38.318,59.784v-1.145l0.986-0.533v1.677h0.803v0.897h-0.803v3.75l0.006,0.423
						c0.011,0.338,0.189,0.516,0.536,0.533l0.261,0.013v0.813l-0.325,0.059c-0.123,0.021-0.248,0.03-0.374,0.026
						c-0.676,0-1.033-0.325-1.073-0.975l-0.017-0.702v-3.939H37.62v-0.897H38.318z"/>
					<path fill="#FFFFFF" d="M41.05,56.988h0.987v3.354l0.189-0.221c0.292-0.316,0.627-0.472,1.002-0.468
						c0.81,0.013,1.232,0.492,1.269,1.437l0.017,0.767v4.31h-0.986v-4.043l-0.006-0.475c-0.011-0.347-0.053-0.6-0.125-0.76
						c-0.101-0.221-0.285-0.334-0.553-0.338c-0.354,0-0.585,0.165-0.693,0.494c-0.062,0.173-0.096,0.351-0.103,0.533l-0.011,0.52
						v4.069H41.05V56.988z"/>
					<path fill="#FFFFFF" d="M51.483,56.988v9.179h-0.986v-0.585c-0.365,0.485-0.746,0.724-1.144,0.715
						c-0.322,0.004-0.596-0.105-0.821-0.328s-0.369-0.521-0.431-0.894c-0.055-0.294-0.081-0.615-0.081-0.962v-2.125
						c-0.012-1.56,0.453-2.338,1.393-2.334c0.347,0.004,0.625,0.106,0.834,0.306c0.065,0.065,0.148,0.156,0.25,0.273v-3.244H51.483z
						 M49.007,63.911c-0.004,0.312,0.003,0.555,0.021,0.728c0.032,0.516,0.255,0.77,0.666,0.761c0.239,0,0.425-0.1,0.559-0.299
						c0.159-0.238,0.24-0.72,0.244-1.443v-1.866c0-0.225-0.017-0.431-0.049-0.617c-0.032-0.187-0.104-0.336-0.212-0.449
						c-0.115-0.113-0.264-0.171-0.444-0.176c-0.462,0.004-0.715,0.314-0.759,0.93c-0.021,0.212-0.03,0.458-0.026,0.735V63.911z"/>
					<path fill="#FFFFFF" d="M53.548,56.988v1.196h-1.063v-1.196H53.548z M52.523,59.784h0.986v6.383h-0.986V59.784z"/>
					<path fill="#FFFFFF" d="M54.74,60.902c0.04-0.251,0.137-0.478,0.29-0.679s0.335-0.341,0.545-0.419
						c0.249-0.095,0.509-0.145,0.78-0.149c0.314,0,0.6,0.052,0.856,0.156c0.321,0.125,0.556,0.403,0.704,0.832
						c0.076,0.225,0.114,0.626,0.114,1.203v4.323h-0.986v-0.689c-0.181,0.325-0.347,0.535-0.499,0.63
						c-0.195,0.13-0.428,0.193-0.699,0.188c-0.198,0.004-0.376-0.03-0.531-0.104c-0.506-0.208-0.755-0.771-0.747-1.69
						c0-0.386,0.032-0.732,0.097-1.04c0.108-0.533,0.448-0.889,1.02-1.066c0.228-0.073,0.462-0.121,0.704-0.143l0.656-0.026V61.48
						c-0.008-0.632-0.228-0.942-0.661-0.93c-0.264,0.004-0.452,0.106-0.563,0.306c-0.08,0.143-0.131,0.39-0.152,0.741h-0.986
						C54.685,61.329,54.704,61.097,54.74,60.902z M57.044,63.125h-0.287c-0.817,0.048-1.218,0.494-1.203,1.339
						c-0.012,0.62,0.191,0.932,0.606,0.936c0.351,0.009,0.605-0.21,0.765-0.657c0.062-0.169,0.098-0.344,0.108-0.526l0.011-0.507
						V63.125z"/>
					<path fill="#FFFFFF" d="M60.052,56.988v3.302c0.188-0.291,0.394-0.475,0.617-0.553c0.152-0.056,0.313-0.084,0.482-0.084
						c0.918,0,1.377,0.702,1.377,2.106v2.1c0,0.355-0.015,0.685-0.044,0.988c-0.094,0.979-0.542,1.463-1.344,1.45
						c-0.419,0-0.782-0.223-1.089-0.669v0.54h-0.987v-9.179H60.052z M60.052,63.866c-0.004,0.251,0.012,0.488,0.048,0.708
						c0.019,0.161,0.062,0.304,0.131,0.429c0.122,0.269,0.325,0.401,0.606,0.396c0.423-0.004,0.65-0.269,0.683-0.793
						c0.015-0.178,0.022-0.427,0.022-0.748v-2.015c-0.011-0.85-0.257-1.281-0.737-1.294c-0.289-0.004-0.489,0.124-0.602,0.384
						c-0.094,0.204-0.145,0.565-0.151,1.085V63.866z"/>
					<path fill="#FFFFFF" d="M64.458,64.08c-0.004,0.434,0.024,0.737,0.086,0.91c0.095,0.265,0.308,0.401,0.64,0.41
						c0.441,0,0.688-0.243,0.743-0.728l0.021-0.273V64.25h0.986v0.149l-0.017,0.442c-0.079,0.975-0.663,1.46-1.75,1.456
						c-0.253,0.004-0.486-0.03-0.699-0.104c-0.282-0.086-0.503-0.253-0.661-0.5c-0.217-0.312-0.329-0.869-0.336-1.67v-1.807
						c-0.004-0.893,0.099-1.515,0.309-1.866c0.278-0.464,0.761-0.696,1.447-0.696c1.055,0.013,1.616,0.546,1.686,1.599
						c0.014,0.204,0.021,0.44,0.021,0.708v1.43h-2.477V64.08z M64.458,62.494h1.49V61.76c-0.004-0.793-0.251-1.196-0.743-1.209
						c-0.313,0.009-0.529,0.167-0.645,0.475c-0.068,0.178-0.103,0.494-0.103,0.949V62.494z"/>
					<path fill="#FFFFFF" d="M68.408,59.784v-1.145l0.986-0.533v1.677h0.803v0.897h-0.803v3.75l0.006,0.423
						c0.011,0.338,0.189,0.516,0.536,0.533l0.261,0.013v0.813l-0.325,0.059c-0.123,0.021-0.248,0.03-0.374,0.026
						c-0.676,0-1.033-0.325-1.073-0.975l-0.017-0.702v-3.939H67.71v-0.897H68.408z"/>
					<path fill="#FFFFFF" d="M72.029,64.08c-0.004,0.434,0.024,0.737,0.086,0.91c0.095,0.265,0.308,0.401,0.64,0.41
						c0.441,0,0.688-0.243,0.743-0.728l0.021-0.273V64.25h0.986v0.149l-0.017,0.442c-0.079,0.975-0.663,1.46-1.75,1.456
						c-0.253,0.004-0.486-0.03-0.699-0.104c-0.282-0.086-0.503-0.253-0.661-0.5c-0.217-0.312-0.329-0.869-0.336-1.67v-1.807
						c-0.004-0.893,0.099-1.515,0.309-1.866c0.278-0.464,0.761-0.696,1.447-0.696c1.055,0.013,1.616,0.546,1.686,1.599
						c0.014,0.204,0.021,0.44,0.021,0.708v1.43h-2.477V64.08z M72.029,62.494h1.49V61.76c-0.004-0.793-0.251-1.196-0.743-1.209
						c-0.313,0.009-0.529,0.167-0.645,0.475c-0.068,0.178-0.103,0.494-0.103,0.949V62.494z"/>
					<path fill="#FFFFFF" d="M76.294,64.223v0.234l0.017,0.26c0.062,0.468,0.278,0.696,0.65,0.683
						c0.44-0.004,0.668-0.26,0.683-0.767c0-0.173-0.036-0.327-0.108-0.461c-0.098-0.165-0.221-0.321-0.368-0.468l-0.493-0.442
						l-0.521-0.468c-0.235-0.221-0.404-0.429-0.51-0.624c-0.13-0.238-0.193-0.542-0.189-0.91c0-1.066,0.519-1.602,1.556-1.606
						c0.271,0,0.521,0.043,0.753,0.13c0.455,0.169,0.708,0.552,0.759,1.15l0.017,0.487v0.208h-0.986v-0.201v-0.234
						c-0.032-0.42-0.223-0.635-0.569-0.644c-0.354-0.004-0.534,0.217-0.542,0.663c0,0.165,0.031,0.301,0.093,0.41
						c0.079,0.143,0.207,0.295,0.385,0.455l0.612,0.54c0.538,0.455,0.867,0.843,0.986,1.164c0.072,0.212,0.11,0.455,0.113,0.728
						c-0.007,0.577-0.166,1.025-0.477,1.346c-0.285,0.291-0.678,0.438-1.176,0.442c-1.009-0.004-1.56-0.511-1.653-1.521
						l-0.017-0.325v-0.228H76.294z"/>
				</g>
			</g>
		</g>
	</g>
</g>
</svg>
