<?xml version="1.0" encoding="utf-8"?>
<!-- Generator: Adobe Illustrator 17.0.0, SVG Export Plug-In . SVG Version: 6.00 Build 0)  -->
<!DOCTYPE svg PUBLIC "-//W3C//DTD SVG 1.1//EN" "http://www.w3.org/Graphics/SVG/1.1/DTD/svg11.dtd">
<svg version="1.1" id="Layer_1" xmlns="http://www.w3.org/2000/svg" xmlns:xlink="http://www.w3.org/1999/xlink" x="0px" y="0px"
	 width="105.913px" height="91.724px" viewBox="0 0 105.913 91.724" enable-background="new 0 0 105.913 91.724"
	 xml:space="preserve">
<g>
	
		<radialGradient id="SVGID_2_" cx="-398.3578" cy="95.8047" r="42.6236" gradientTransform="matrix(1.2424 0 0 1.076 547.8765 -57.224)" gradientUnits="userSpaceOnUse">
		<stop  offset="0" style="stop-color:#022538"/>
		<stop  offset="0.3137" style="stop-color:#02263A"/>
		<stop  offset="0.4267" style="stop-color:#022941"/>
		<stop  offset="0.5073" style="stop-color:#022E4C"/>
		<stop  offset="0.5725" style="stop-color:#02365D"/>
		<stop  offset="0.6283" style="stop-color:#014073"/>
		<stop  offset="0.6777" style="stop-color:#014D8F"/>
		<stop  offset="0.7224" style="stop-color:#015BAF"/>
		<stop  offset="0.7621" style="stop-color:#006CD3"/>
		<stop  offset="0.7988" style="stop-color:#007FFC"/>
		<stop  offset="0.801" style="stop-color:#0080FF"/>
		<stop  offset="0.8223" style="stop-color:#2694F9;stop-opacity:0.893"/>
		<stop  offset="0.8472" style="stop-color:#4BA8F2;stop-opacity:0.7679"/>
		<stop  offset="0.8733" style="stop-color:#6AB8ED;stop-opacity:0.6367"/>
		<stop  offset="0.9005" style="stop-color:#82C4E9;stop-opacity:0.5"/>
		<stop  offset="0.9293" style="stop-color:#93CDE6;stop-opacity:0.3552"/>
		<stop  offset="0.9608" style="stop-color:#9DD2E5;stop-opacity:0.197"/>
		<stop  offset="1" style="stop-color:#A0D4E4;stop-opacity:0"/>
	</radialGradient>
	<ellipse fill="url(#SVGID_2_)" cx="52.957" cy="45.862" rx="52.957" ry="45.862"/>
	<g>
		<g>
			<g>
				<g>
					<path fill="#FFFFFF" d="M40.288,26.58v-1.038h2.227v4.58l-0.536,0.196c-0.188,0.061-0.394,0.108-0.618,0.144
						c-0.339,0.061-0.666,0.089-0.98,0.084c-0.827,0-1.416-0.228-1.767-0.685c-0.308-0.4-0.463-1.122-0.467-2.166v-3.327
						c0.004-0.944,0.063-1.589,0.18-1.938c0.217-0.648,0.615-1.055,1.197-1.22c0.274-0.078,0.567-0.12,0.878-0.124
						c0.693,0.013,1.217,0.203,1.569,0.571c0.352,0.368,0.533,0.978,0.544,1.83v0.3h-1.051v-0.209c0-0.144-0.011-0.293-0.032-0.45
						c-0.087-0.669-0.42-1.004-0.998-1.004c-0.523,0.013-0.868,0.213-1.035,0.6c-0.101,0.213-0.158,0.453-0.173,0.718
						c-0.021,0.239-0.031,0.498-0.027,0.776v3.261c-0.004,0.705,0.049,1.185,0.157,1.442c0.166,0.404,0.517,0.6,1.052,0.587
						c0.198,0.004,0.398-0.024,0.602-0.085l0.455-0.163V26.58H40.288z"/>
					<path fill="#FFFFFF" d="M44.764,24.009v0.79c0.151-0.318,0.328-0.544,0.53-0.679c0.134-0.091,0.264-0.154,0.391-0.189
						L46,23.879v1.174l-0.331,0.039c-0.354,0.052-0.598,0.23-0.731,0.535c-0.115,0.283-0.173,0.7-0.173,1.252v3.536h-0.986v-6.406
						H44.764z"/>
					<path fill="#FFFFFF" d="M46.579,26.456c0.004-0.666,0.061-1.164,0.169-1.494c0.169-0.496,0.475-0.82,0.915-0.972
						c0.206-0.074,0.423-0.111,0.65-0.111c0.225,0,0.441,0.037,0.65,0.111c0.274,0.096,0.491,0.254,0.65,0.476
						c0.278,0.387,0.421,1.05,0.429,1.99v1.604c0.003,0.848-0.105,1.448-0.325,1.8c-0.282,0.461-0.743,0.689-1.382,0.685
						c-1.016,0.013-1.585-0.509-1.708-1.565c-0.036-0.278-0.052-0.585-0.049-0.92V26.456z M47.566,28.06l0.016,0.62
						c0.032,0.648,0.28,0.97,0.742,0.966c0.322-0.009,0.535-0.196,0.64-0.561c0.062-0.213,0.093-0.555,0.093-1.024v-1.709
						c0-1.057-0.25-1.581-0.748-1.572c-0.448-0.008-0.688,0.313-0.721,0.966l-0.021,0.606V28.06z"/>
					<path fill="#FFFFFF" d="M52.07,24.009v4.318c0.003,0.457,0.024,0.75,0.064,0.881c0.098,0.3,0.293,0.446,0.585,0.437
						c0.192,0.004,0.353-0.052,0.482-0.17c0.163-0.135,0.268-0.35,0.314-0.646c0.029-0.174,0.044-0.365,0.044-0.574v-4.247h0.986
						v6.406H53.56v-0.567l-0.185,0.261c-0.246,0.292-0.576,0.437-0.992,0.437c-0.368,0-0.679-0.128-0.932-0.385
						c-0.235-0.239-0.356-0.602-0.363-1.089l-0.006-0.691v-4.371H52.07z"/>
					<path fill="#FFFFFF" d="M55.586,24.009h0.987v0.639c0.122-0.187,0.23-0.326,0.324-0.417c0.229-0.23,0.519-0.348,0.873-0.352
						c0.683,0,1.091,0.439,1.225,1.317c0.036,0.252,0.055,0.505,0.055,0.757v1.99c0,0.378-0.017,0.739-0.049,1.083
						c-0.091,1.005-0.531,1.511-1.322,1.52c-0.351-0.004-0.627-0.109-0.829-0.313c-0.084-0.069-0.176-0.178-0.276-0.326v2.883
						h-0.987V24.009z M56.574,27.943c-0.004,0.261,0.007,0.518,0.032,0.77c0.018,0.222,0.056,0.396,0.113,0.522
						c0.112,0.283,0.32,0.42,0.624,0.411c0.422-0.009,0.653-0.331,0.693-0.966c0.018-0.248,0.027-0.502,0.027-0.763v-1.735
						l-0.017-0.522c-0.054-0.596-0.282-0.889-0.683-0.881c-0.3-0.004-0.514,0.159-0.64,0.489c-0.068,0.17-0.112,0.353-0.13,0.548
						c-0.019,0.195-0.025,0.413-0.021,0.652V27.943z"/>
					<path fill="#FFFFFF" d="M64.643,21.237h1.344v5.917h0.921v1.018h-0.921v2.244h-0.986v-2.244h-2.748V27.18L64.643,21.237z
						 M63.13,27.153h1.87V22.45L63.13,27.153z"/>
					<path fill="#FFFFFF" d="M67.83,24.009h1.165v1.402H67.83V24.009z M68.995,29.013v1.402H67.83v-1.402H68.995z"/>
					<path fill="#FFFFFF" d="M24.795,35.374c0.391,0.004,0.697,0.02,0.921,0.046c0.325,0.035,0.609,0.165,0.852,0.391
						c0.43,0.409,0.643,1.077,0.64,2.003c-0.008,1.8-0.673,2.698-1.995,2.694h-1.014v4.064h-1.051v-9.198H24.795z M24.199,36.411
						v3.06h0.856c0.444-0.004,0.746-0.141,0.905-0.411c0.127-0.213,0.191-0.606,0.195-1.181c0-0.53-0.098-0.907-0.293-1.128
						s-0.517-0.335-0.965-0.339H24.199z"/>
					<path fill="#FFFFFF" d="M27.619,39.288c0.04-0.252,0.137-0.479,0.29-0.682s0.335-0.343,0.545-0.421
						c0.249-0.096,0.509-0.146,0.78-0.15c0.314,0,0.6,0.052,0.856,0.156c0.321,0.126,0.556,0.405,0.704,0.835
						c0.076,0.227,0.114,0.629,0.114,1.207v4.338h-0.986V43.88c-0.181,0.326-0.347,0.537-0.499,0.633
						c-0.195,0.13-0.428,0.193-0.699,0.189c-0.198,0.004-0.376-0.03-0.531-0.104c-0.506-0.208-0.755-0.774-0.747-1.696
						c0-0.387,0.032-0.735,0.097-1.044c0.108-0.535,0.448-0.891,1.02-1.069c0.228-0.074,0.462-0.122,0.704-0.144l0.656-0.026v-0.75
						c-0.008-0.635-0.228-0.946-0.661-0.933c-0.264,0.004-0.452,0.107-0.564,0.307c-0.079,0.144-0.13,0.392-0.151,0.744h-0.986
						C27.563,39.716,27.583,39.483,27.619,39.288z M29.922,41.519h-0.287c-0.817,0.048-1.218,0.496-1.203,1.344
						c-0.012,0.622,0.191,0.935,0.606,0.939c0.351,0.009,0.605-0.211,0.765-0.659c0.061-0.169,0.098-0.346,0.108-0.528l0.011-0.509
						V41.519z"/>
					<path fill="#FFFFFF" d="M32.486,38.166v-1.148l0.986-0.535v1.683h0.802v0.9h-0.802v3.764l0.006,0.424
						c0.011,0.339,0.189,0.518,0.536,0.535l0.26,0.013v0.815l-0.325,0.059c-0.122,0.021-0.247,0.03-0.374,0.026
						c-0.675,0-1.033-0.326-1.072-0.979l-0.017-0.705v-3.953h-0.699v-0.9H32.486z"/>
					<path fill="#FFFFFF" d="M36.253,35.36v1.201H35.19V35.36H36.253z M35.228,38.166h0.986v6.406h-0.986V38.166z"/>
					<path fill="#FFFFFF" d="M38.155,42.478c-0.004,0.435,0.024,0.739,0.086,0.913c0.095,0.265,0.308,0.402,0.64,0.411
						c0.441,0,0.688-0.244,0.743-0.731l0.021-0.274v-0.15h0.986v0.15l-0.017,0.444c-0.079,0.979-0.663,1.465-1.75,1.461
						c-0.253,0.004-0.486-0.03-0.699-0.104c-0.282-0.087-0.503-0.254-0.661-0.502c-0.217-0.313-0.329-0.872-0.336-1.677v-1.813
						c-0.004-0.896,0.099-1.52,0.309-1.872c0.278-0.465,0.761-0.698,1.447-0.698c1.055,0.013,1.616,0.548,1.686,1.604
						c0.014,0.205,0.021,0.441,0.021,0.711v1.436h-2.477V42.478z M38.155,40.886h1.49v-0.737c-0.004-0.796-0.251-1.2-0.743-1.213
						c-0.313,0.009-0.529,0.167-0.645,0.477c-0.068,0.178-0.103,0.496-0.103,0.952V40.886z"/>
					<path fill="#FFFFFF" d="M41.563,38.166h0.987v0.561c0.288-0.461,0.691-0.691,1.208-0.691c0.21,0,0.406,0.045,0.591,0.137
						c0.419,0.205,0.642,0.611,0.667,1.22l0.011,0.822v4.357h-0.986v-4.038l-0.011-0.646c-0.019-0.635-0.248-0.953-0.688-0.953
						c-0.333,0.009-0.553,0.17-0.661,0.483c-0.062,0.174-0.1,0.362-0.114,0.564c-0.015,0.202-0.02,0.417-0.016,0.643v3.946h-0.987
						V38.166z"/>
					<path fill="#FFFFFF" d="M46.609,38.166v-1.148l0.986-0.535v1.683h0.803v0.9h-0.803v3.764l0.006,0.424
						c0.011,0.339,0.189,0.518,0.536,0.535l0.261,0.013v0.815l-0.325,0.059c-0.123,0.021-0.248,0.03-0.374,0.026
						c-0.676,0-1.033-0.326-1.073-0.979l-0.017-0.705v-3.953h-0.698v-0.9H46.609z"/>
					<path fill="#FFFFFF" d="M50.197,42.621v0.234l0.017,0.261c0.062,0.47,0.278,0.698,0.65,0.685
						c0.44-0.004,0.668-0.261,0.683-0.77c0-0.174-0.036-0.328-0.108-0.463c-0.098-0.166-0.221-0.322-0.368-0.47l-0.493-0.444
						l-0.521-0.47c-0.235-0.222-0.404-0.43-0.51-0.626c-0.13-0.239-0.193-0.543-0.189-0.913c0-1.07,0.519-1.607,1.556-1.611
						c0.271,0,0.521,0.043,0.753,0.13c0.455,0.169,0.708,0.555,0.759,1.155l0.017,0.489v0.208h-0.986v-0.202v-0.235
						c-0.032-0.422-0.223-0.637-0.569-0.646c-0.354-0.004-0.534,0.218-0.542,0.666c0,0.166,0.031,0.302,0.092,0.411
						c0.08,0.144,0.208,0.296,0.386,0.457l0.612,0.542c0.538,0.457,0.867,0.846,0.986,1.167c0.072,0.213,0.109,0.457,0.113,0.73
						c-0.007,0.579-0.166,1.029-0.477,1.351c-0.285,0.292-0.678,0.439-1.176,0.443c-1.009-0.004-1.56-0.513-1.653-1.526
						l-0.017-0.326v-0.228H50.197z"/>
					<path fill="#FFFFFF" d="M56.646,38.166l0.824,5.551l0.791-5.551h1.377l0.878,5.577l0.823-5.577h0.911l-1.09,6.406h-1.376
						l-0.867-5.421l-0.803,5.421h-1.376l-1.09-6.406H56.646z"/>
					<path fill="#FFFFFF" d="M64.087,35.36v1.201h-1.063V35.36H64.087z M63.063,38.166h0.986v6.406h-0.986V38.166z"/>
					<path fill="#FFFFFF" d="M65.642,38.166v-1.148l0.986-0.535v1.683h0.803v0.9h-0.803v3.764l0.006,0.424
						c0.011,0.339,0.189,0.518,0.536,0.535l0.261,0.013v0.815l-0.325,0.059c-0.123,0.021-0.248,0.03-0.374,0.026
						c-0.676,0-1.033-0.326-1.073-0.979l-0.017-0.705v-3.953h-0.698v-0.9H65.642z"/>
					<path fill="#FFFFFF" d="M68.374,35.36h0.987v3.366l0.189-0.222c0.292-0.317,0.627-0.474,1.002-0.47
						c0.81,0.013,1.232,0.494,1.269,1.441l0.017,0.77v4.325h-0.986v-4.058l-0.006-0.476c-0.011-0.348-0.053-0.602-0.125-0.763
						c-0.101-0.222-0.285-0.335-0.553-0.339c-0.354,0-0.585,0.166-0.693,0.496c-0.062,0.174-0.096,0.352-0.103,0.535l-0.011,0.522
						v4.083h-0.987V35.36z"/>
					<path fill="#FFFFFF" d="M72.878,40.612c0.004-0.666,0.061-1.164,0.169-1.494c0.169-0.496,0.475-0.82,0.915-0.972
						c0.206-0.074,0.423-0.111,0.65-0.111c0.225,0,0.441,0.037,0.65,0.111c0.274,0.096,0.491,0.254,0.65,0.476
						c0.278,0.387,0.421,1.05,0.429,1.99v1.604c0.003,0.848-0.105,1.448-0.325,1.8c-0.282,0.461-0.743,0.689-1.382,0.685
						c-1.016,0.013-1.585-0.509-1.708-1.565c-0.036-0.278-0.052-0.585-0.049-0.92V40.612z M73.865,42.216l0.016,0.62
						c0.032,0.648,0.28,0.97,0.742,0.966c0.322-0.009,0.535-0.196,0.64-0.561c0.062-0.213,0.093-0.555,0.093-1.024v-1.709
						c0-1.057-0.25-1.581-0.748-1.572c-0.448-0.008-0.688,0.313-0.721,0.966l-0.021,0.606V42.216z"/>
					<path fill="#FFFFFF" d="M78.368,38.166v4.318c0.004,0.457,0.025,0.75,0.065,0.881c0.097,0.3,0.292,0.446,0.585,0.437
						c0.191,0.004,0.353-0.052,0.482-0.17c0.162-0.135,0.268-0.35,0.314-0.646c0.028-0.174,0.043-0.365,0.043-0.574v-4.247h0.986
						v6.406h-0.986v-0.567l-0.185,0.261c-0.245,0.292-0.576,0.437-0.991,0.437c-0.368,0-0.68-0.128-0.933-0.385
						c-0.234-0.239-0.355-0.602-0.362-1.089l-0.006-0.691v-4.371H78.368z"/>
					<path fill="#FFFFFF" d="M82.427,38.166v-1.148l0.986-0.535v1.683h0.802v0.9h-0.802v3.764l0.006,0.424
						c0.011,0.339,0.189,0.518,0.536,0.535l0.26,0.013v0.815l-0.325,0.059c-0.122,0.021-0.247,0.03-0.374,0.026
						c-0.675,0-1.033-0.326-1.072-0.979l-0.017-0.705v-3.953h-0.699v-0.9H82.427z"/>
					<path fill="#FFFFFF" d="M26.337,54.533c-0.004-0.835,0.103-1.414,0.319-1.735c0.268-0.396,0.727-0.598,1.377-0.606
						c1.04,0.009,1.563,0.533,1.566,1.572v0.359v0.176h-0.986v-0.176l-0.012-0.319c-0.036-0.47-0.229-0.707-0.579-0.711
						c-0.452-0.004-0.684,0.285-0.694,0.868l-0.005,0.483v2.029l0.011,0.652c0.018,0.552,0.24,0.831,0.666,0.835
						c0.441-0.004,0.667-0.331,0.678-0.979v-0.261h0.986v0.293c-0.015,1.249-0.557,1.864-1.626,1.846
						c-0.325,0-0.614-0.054-0.867-0.163c-0.553-0.217-0.831-0.926-0.834-2.126V54.533z"/>
					<path fill="#FFFFFF" d="M31.605,49.516v9.211h-0.986v-9.211H31.605z"/>
					<path fill="#FFFFFF" d="M33.691,49.516v1.201h-1.062v-1.201H33.691z M32.668,52.321h0.986v6.406h-0.986V52.321z"/>
					<path fill="#FFFFFF" d="M34.705,52.321h0.987v0.561c0.288-0.461,0.691-0.691,1.208-0.691c0.21,0,0.406,0.045,0.591,0.137
						c0.419,0.205,0.642,0.611,0.667,1.22l0.011,0.822v4.357h-0.986v-4.038l-0.011-0.646c-0.019-0.635-0.248-0.953-0.688-0.953
						c-0.333,0.009-0.553,0.17-0.661,0.483c-0.062,0.174-0.1,0.362-0.114,0.564c-0.015,0.202-0.02,0.417-0.016,0.643v3.946h-0.987
						V52.321z"/>
					<path fill="#FFFFFF" d="M40.244,49.516v1.201h-1.063v-1.201H40.244z M39.219,52.321h0.986v6.406h-0.986V52.321z"/>
					<path fill="#FFFFFF" d="M41.285,54.533c-0.004-0.835,0.103-1.414,0.319-1.735c0.268-0.396,0.727-0.598,1.377-0.606
						c1.04,0.009,1.563,0.533,1.566,1.572v0.359v0.176h-0.986v-0.176l-0.012-0.319c-0.036-0.47-0.229-0.707-0.579-0.711
						c-0.452-0.004-0.684,0.285-0.694,0.868l-0.005,0.483v2.029l0.011,0.652c0.018,0.552,0.24,0.831,0.666,0.835
						c0.441-0.004,0.667-0.331,0.678-0.979v-0.261h0.986v0.293c-0.015,1.249-0.557,1.864-1.626,1.846
						c-0.325,0-0.614-0.054-0.867-0.163c-0.553-0.217-0.831-0.926-0.834-2.126V54.533z"/>
					<path fill="#FFFFFF" d="M45.734,53.443c0.04-0.252,0.137-0.479,0.29-0.682s0.335-0.343,0.545-0.421
						c0.249-0.096,0.509-0.146,0.78-0.15c0.314,0,0.6,0.052,0.856,0.156c0.321,0.126,0.556,0.405,0.704,0.835
						c0.076,0.227,0.114,0.629,0.114,1.207v4.338h-0.986v-0.691c-0.181,0.326-0.347,0.537-0.499,0.633
						c-0.195,0.13-0.428,0.193-0.699,0.189c-0.198,0.004-0.376-0.03-0.531-0.104c-0.506-0.208-0.755-0.774-0.747-1.696
						c0-0.387,0.032-0.735,0.097-1.044c0.108-0.535,0.448-0.891,1.02-1.069c0.228-0.074,0.462-0.122,0.704-0.144l0.656-0.026v-0.75
						c-0.008-0.635-0.228-0.946-0.661-0.933c-0.264,0.004-0.452,0.107-0.564,0.307c-0.079,0.144-0.13,0.392-0.151,0.744h-0.986
						C45.678,53.872,45.698,53.639,45.734,53.443z M48.038,55.674h-0.287c-0.817,0.048-1.218,0.496-1.203,1.344
						c-0.012,0.622,0.191,0.935,0.606,0.939c0.351,0.009,0.605-0.211,0.765-0.659c0.061-0.169,0.098-0.346,0.108-0.528l0.011-0.509
						V55.674z"/>
					<path fill="#FFFFFF" d="M51.056,49.516v9.211H50.07v-9.211H51.056z"/>
					<path fill="#FFFFFF" d="M56.221,49.529h1.382l1.761,9.198h-1.105l-0.362-2.101h-2.044l-0.374,2.101H54.46L56.221,49.529z
						 M56.031,55.589h1.67l-0.808-4.899L56.031,55.589z"/>
					<path fill="#FFFFFF" d="M61.294,55.642v0.515c-0.004,0.261,0.019,0.505,0.065,0.731c0.104,0.626,0.446,0.937,1.024,0.933
						c0.217,0.004,0.413-0.039,0.59-0.13c0.395-0.183,0.599-0.62,0.613-1.311c-0.004-0.474-0.136-0.842-0.396-1.103
						c-0.184-0.178-0.402-0.354-0.655-0.528l-0.765-0.516c-0.303-0.2-0.556-0.406-0.758-0.62c-0.423-0.435-0.635-1.061-0.635-1.878
						c0.008-0.892,0.244-1.524,0.71-1.898c0.347-0.283,0.824-0.428,1.431-0.437c0.741,0,1.275,0.208,1.604,0.626
						c0.26,0.335,0.391,0.992,0.391,1.97v0.183h-1.052v-0.222L63.44,51.48c-0.065-0.709-0.378-1.057-0.938-1.044
						c-0.709,0.004-1.066,0.426-1.073,1.266c0,0.535,0.222,0.97,0.666,1.305c0.275,0.213,0.586,0.427,0.933,0.643
						s0.629,0.418,0.846,0.61c0.509,0.461,0.764,1.152,0.764,2.074c-0.011,1.683-0.761,2.524-2.249,2.524
						c-0.64,0.009-1.131-0.147-1.474-0.47c-0.405-0.382-0.624-0.928-0.656-1.637l-0.017-0.744v-0.365H61.294z"/>
					<path fill="#FFFFFF" d="M68.929,51.962l-0.005-0.43c-0.025-0.735-0.322-1.101-0.889-1.096
						c-0.503,0.004-0.829,0.198-0.981,0.581c-0.083,0.187-0.128,0.374-0.136,0.561l-0.011,0.757v3.627
						c0.004,0.657,0.047,1.081,0.13,1.272c0.174,0.391,0.474,0.587,0.9,0.587c0.56-0.004,0.876-0.396,0.948-1.174l0.043-0.593
						v-0.313h1.052v0.32l-0.011,0.574c-0.032,0.687-0.191,1.213-0.478,1.579c-0.173,0.226-0.377,0.385-0.612,0.476
						c-0.278,0.113-0.581,0.169-0.91,0.169c-0.282,0.004-0.551-0.033-0.808-0.111c-0.867-0.239-1.303-1.098-1.306-2.577v-3.666
						c-0.004-0.396,0.013-0.765,0.049-1.109c0.036-0.422,0.13-0.77,0.281-1.044c0.336-0.622,0.938-0.939,1.805-0.952
						c1.218,0.013,1.872,0.585,1.962,1.716c0.019,0.213,0.027,0.454,0.027,0.724v0.359h-1.052V51.962z"/>
					<path fill="#FFFFFF" d="M71.813,49.529l1.225,7.782l1.192-7.782h1.019l-1.625,9.198h-1.285l-1.626-9.198H71.813z"/>
					<path fill="#FFFFFF" d="M76.279,49.529h1.875c0.311,0,0.604,0.026,0.883,0.078c0.318,0.057,0.599,0.185,0.84,0.385
						c0.42,0.339,0.663,0.813,0.732,1.422c0.032,0.3,0.05,0.637,0.054,1.011v3.385c-0.011,1.135-0.175,1.898-0.493,2.29
						c-0.242,0.3-0.533,0.492-0.872,0.574c-0.145,0.035-0.479,0.052-1.003,0.052h-2.016V49.529z M77.33,50.566v7.124H78.3
						c0.581,0,0.953-0.181,1.116-0.542c0.134-0.304,0.198-0.807,0.195-1.507v-3.118c0-0.7-0.071-1.181-0.212-1.441
						c-0.185-0.335-0.551-0.507-1.1-0.516H77.33z"/>
					<path fill="#FFFFFF" d="M34.504,68.924c0.004-0.666,0.06-1.164,0.168-1.494c0.17-0.496,0.475-0.82,0.916-0.972
						c0.206-0.074,0.423-0.111,0.65-0.111c0.224,0,0.44,0.037,0.65,0.111c0.274,0.096,0.491,0.254,0.65,0.476
						c0.278,0.387,0.421,1.05,0.428,1.99v1.604c0.004,0.848-0.104,1.448-0.325,1.8c-0.281,0.461-0.742,0.689-1.382,0.685
						c-1.016,0.013-1.584-0.509-1.707-1.565c-0.036-0.278-0.053-0.585-0.049-0.92V68.924z M35.491,70.528l0.017,0.62
						c0.032,0.648,0.279,0.97,0.742,0.966c0.321-0.009,0.534-0.196,0.64-0.561c0.062-0.213,0.092-0.555,0.092-1.024v-1.709
						c0-1.057-0.249-1.581-0.748-1.572c-0.447-0.008-0.688,0.313-0.721,0.966l-0.021,0.606V70.528z"/>
					<path fill="#FFFFFF" d="M40.054,66.478v0.79c0.151-0.318,0.329-0.544,0.531-0.679c0.134-0.091,0.264-0.154,0.39-0.189
						l0.314-0.052v1.174l-0.33,0.039c-0.354,0.052-0.599,0.23-0.731,0.535c-0.116,0.283-0.174,0.7-0.174,1.252v3.536h-0.986v-6.406
						H40.054z"/>
					<path fill="#FFFFFF" d="M48.004,63.672v9.211h-0.986v-0.587c-0.364,0.487-0.746,0.726-1.144,0.717
						c-0.321,0.004-0.595-0.105-0.82-0.329c-0.227-0.224-0.37-0.523-0.432-0.897c-0.054-0.296-0.081-0.618-0.081-0.966v-2.133
						c-0.011-1.565,0.453-2.346,1.393-2.342c0.348,0.004,0.625,0.106,0.835,0.307c0.065,0.065,0.148,0.156,0.249,0.274v-3.255
						H48.004z M45.528,70.62c-0.004,0.313,0.004,0.557,0.021,0.731c0.033,0.518,0.255,0.772,0.667,0.763
						c0.238,0,0.425-0.1,0.559-0.3c0.158-0.239,0.24-0.722,0.243-1.448v-1.872c0-0.226-0.016-0.433-0.049-0.62
						c-0.032-0.187-0.103-0.337-0.211-0.45c-0.116-0.113-0.264-0.172-0.444-0.176c-0.463,0.004-0.716,0.315-0.759,0.933
						c-0.021,0.213-0.031,0.459-0.027,0.737V70.62z"/>
					<path fill="#FFFFFF" d="M50.069,63.672v1.201h-1.062v-1.201H50.069z M49.045,66.478h0.986v6.406h-0.986V66.478z"/>
					<path fill="#FFFFFF" d="M51.262,67.6c0.039-0.252,0.136-0.479,0.29-0.682c0.153-0.202,0.335-0.343,0.544-0.421
						c0.25-0.096,0.51-0.146,0.78-0.15c0.314,0,0.601,0.052,0.856,0.156c0.321,0.126,0.557,0.405,0.705,0.835
						c0.075,0.227,0.113,0.629,0.113,1.207v4.338h-0.986v-0.691c-0.181,0.326-0.347,0.537-0.498,0.633
						c-0.195,0.13-0.429,0.193-0.699,0.189c-0.199,0.004-0.376-0.03-0.531-0.104c-0.506-0.208-0.755-0.774-0.748-1.696
						c0-0.387,0.032-0.735,0.098-1.044c0.108-0.535,0.448-0.891,1.019-1.069c0.228-0.074,0.463-0.122,0.705-0.144l0.655-0.026v-0.75
						c-0.007-0.635-0.228-0.946-0.661-0.933c-0.264,0.004-0.451,0.107-0.563,0.307c-0.079,0.144-0.13,0.392-0.151,0.744h-0.986
						C51.206,68.028,51.226,67.795,51.262,67.6z M53.565,69.831h-0.287c-0.816,0.048-1.218,0.496-1.203,1.344
						c-0.011,0.622,0.191,0.935,0.607,0.939c0.35,0.009,0.604-0.211,0.764-0.659c0.062-0.169,0.098-0.346,0.108-0.528l0.011-0.509
						V69.831z"/>
					<path fill="#FFFFFF" d="M56.573,63.672v3.314c0.188-0.292,0.394-0.476,0.618-0.554c0.151-0.057,0.313-0.085,0.482-0.085
						c0.917,0,1.376,0.705,1.376,2.113v2.107c0,0.357-0.015,0.688-0.043,0.992c-0.094,0.983-0.542,1.468-1.345,1.455
						c-0.419,0-0.782-0.224-1.089-0.672v0.542h-0.986v-9.211H56.573z M56.573,70.574c-0.004,0.252,0.013,0.489,0.049,0.711
						c0.018,0.161,0.062,0.304,0.13,0.431c0.123,0.27,0.325,0.402,0.607,0.398c0.423-0.004,0.65-0.27,0.683-0.796
						c0.015-0.178,0.021-0.428,0.021-0.75v-2.022c-0.011-0.853-0.257-1.285-0.737-1.298c-0.289-0.004-0.489,0.124-0.602,0.385
						c-0.094,0.204-0.145,0.567-0.151,1.089V70.574z"/>
					<path fill="#FFFFFF" d="M60.979,70.79c-0.004,0.435,0.025,0.739,0.087,0.913c0.094,0.265,0.307,0.402,0.64,0.411
						c0.44,0,0.688-0.244,0.742-0.731l0.021-0.274v-0.15h0.986v0.15l-0.016,0.444c-0.08,0.979-0.663,1.465-1.751,1.461
						c-0.253,0.004-0.486-0.03-0.699-0.104c-0.281-0.087-0.502-0.254-0.661-0.502c-0.217-0.313-0.329-0.872-0.336-1.677v-1.813
						c-0.004-0.896,0.1-1.52,0.309-1.872c0.278-0.465,0.761-0.698,1.447-0.698c1.055,0.013,1.617,0.548,1.686,1.604
						c0.015,0.205,0.021,0.441,0.021,0.711v1.436h-2.477V70.79z M60.979,69.198h1.49V68.46c-0.003-0.796-0.251-1.2-0.742-1.213
						c-0.314,0.009-0.529,0.167-0.645,0.477c-0.069,0.178-0.104,0.496-0.104,0.952V69.198z"/>
					<path fill="#FFFFFF" d="M64.93,66.478V65.33l0.986-0.535v1.683h0.802v0.9h-0.802v3.764l0.006,0.424
						c0.011,0.339,0.189,0.518,0.536,0.535l0.26,0.013v0.815l-0.325,0.059c-0.122,0.021-0.247,0.03-0.374,0.026
						c-0.675,0-1.033-0.326-1.072-0.979l-0.017-0.705v-3.953h-0.699v-0.9H64.93z"/>
					<path fill="#FFFFFF" d="M68.55,70.79c-0.004,0.435,0.025,0.739,0.087,0.913c0.094,0.265,0.307,0.402,0.64,0.411
						c0.44,0,0.688-0.244,0.742-0.731l0.021-0.274v-0.15h0.986v0.15l-0.016,0.444c-0.08,0.979-0.663,1.465-1.751,1.461
						c-0.253,0.004-0.486-0.03-0.699-0.104c-0.281-0.087-0.502-0.254-0.661-0.502c-0.217-0.313-0.329-0.872-0.336-1.677v-1.813
						c-0.004-0.896,0.1-1.52,0.309-1.872c0.278-0.465,0.761-0.698,1.447-0.698c1.055,0.013,1.617,0.548,1.686,1.604
						c0.015,0.205,0.021,0.441,0.021,0.711v1.436H68.55V70.79z M68.55,69.198h1.49V68.46c-0.003-0.796-0.251-1.2-0.742-1.213
						c-0.314,0.009-0.529,0.167-0.645,0.477c-0.069,0.178-0.104,0.496-0.104,0.952V69.198z"/>
					<path fill="#FFFFFF" d="M72.815,70.933v0.234l0.017,0.261c0.062,0.47,0.278,0.698,0.65,0.685
						c0.44-0.004,0.668-0.261,0.683-0.77c0-0.174-0.036-0.328-0.108-0.463c-0.098-0.166-0.221-0.322-0.368-0.47l-0.493-0.444
						l-0.521-0.47c-0.235-0.222-0.404-0.43-0.51-0.626c-0.13-0.239-0.193-0.543-0.189-0.913c0-1.07,0.519-1.607,1.556-1.611
						c0.271,0,0.521,0.043,0.753,0.13c0.455,0.169,0.708,0.555,0.759,1.155l0.017,0.489v0.208h-0.986v-0.202v-0.235
						c-0.032-0.422-0.223-0.637-0.569-0.646c-0.354-0.004-0.534,0.218-0.542,0.666c0,0.166,0.031,0.302,0.092,0.411
						c0.08,0.144,0.208,0.296,0.386,0.457l0.612,0.542c0.538,0.457,0.867,0.846,0.986,1.167c0.072,0.213,0.109,0.457,0.113,0.73
						c-0.007,0.579-0.166,1.029-0.477,1.351c-0.285,0.292-0.678,0.439-1.176,0.443c-1.009-0.004-1.56-0.513-1.653-1.526
						l-0.017-0.326v-0.228H72.815z"/>
				</g>
			</g>
		</g>
	</g>
</g>
</svg>
