<?xml version="1.0" encoding="utf-8"?>
<!-- Generator: Adobe Illustrator 17.0.0, SVG Export Plug-In . SVG Version: 6.00 Build 0)  -->
<!DOCTYPE svg PUBLIC "-//W3C//DTD SVG 1.1//EN" "http://www.w3.org/Graphics/SVG/1.1/DTD/svg11.dtd">
<svg version="1.1" id="Layer_1" xmlns="http://www.w3.org/2000/svg" xmlns:xlink="http://www.w3.org/1999/xlink" x="0px" y="0px"
	 width="1025px" height="103.883px" viewBox="0 0 1025 103.883" enable-background="new 0 0 1025 103.883" xml:space="preserve">
<g>
	
		<linearGradient id="SVGID_2_" gradientUnits="userSpaceOnUse" x1="277.1074" y1="41.9027" x2="764.1074" y2="41.9027" gradientTransform="matrix(-1 0 0 1 764.1074 0)">
		<stop  offset="0" style="stop-color:#001E2D"/>
		<stop  offset="1" style="stop-color:#093D5E"/>
	</linearGradient>
	<polygon fill="url(#SVGID_2_)" points="0,83.403 466.096,83.403 487,0.403 0,0.403 	"/>
	<polygon fill="#B7D6DF" points="489.156,0 448.692,17.676 451.572,31.5 483.972,19.26 	"/>
	<polygon fill="#002D3D" points="448.481,17.82 428.532,103.883 1025,103.883 1025,17.82 	"/>
	<g>
		<g>
			<path fill="#FFFFFF" d="M477.9,76.249V52.035h5.064v20.19h7.58v4.024H477.9z"/>
			<path fill="#FFFFFF" d="M492.755,76.249V52.035h5.064v24.215H492.755z"/>
			<path fill="#FFFFFF" d="M502.111,52.035h9.123c4.628,0,6.44,2.817,6.44,7.244c0,2.75-0.805,7.11-6.742,7.11h-3.756v9.86h-5.064
				V52.035z M507.176,62.666h2.817c1.509,0,2.549-1.644,2.549-3.253c0-1.979-0.537-3.656-2.817-3.656h-2.549V62.666z"/>
			<path fill="#FFFFFF" d="M520.723,76.249V52.035h5.064v24.215H520.723z"/>
			<path fill="#FFFFFF" d="M544.467,52.035v4.024h-5.635v20.19h-5.063v-20.19h-5.635v-4.024H544.467z"/>
			<path fill="#FFFFFF" d="M546.578,64.142c0-6.406,0-12.51,8.351-12.51c8.352,0,8.352,6.104,8.352,12.51
				c0,6.339,0,12.51-8.352,12.51C546.578,76.652,546.578,70.481,546.578,64.142z M558.148,64.142c0-6.205-0.368-8.888-3.22-8.888
				c-2.851,0-3.22,2.683-3.22,8.888s0.369,8.888,3.22,8.888C557.78,73.03,558.148,70.347,558.148,64.142z"/>
			<path fill="#FFFFFF" d="M572.267,76.249h-5.064V52.035h9.357c3.454,0,5.668,2.213,5.668,6.339c0,3.085-1.208,5.399-4.494,5.936
				v0.067c1.106,0.134,4.394,0.402,4.394,4.762c0,1.543,0.101,6.104,0.569,7.11h-4.963c-0.671-1.476-0.537-3.119-0.537-4.695
				c0-2.884,0.269-5.333-3.622-5.333h-1.308V76.249z M572.267,62.498h2.247c2.012,0,2.582-2.012,2.582-3.555
				c0-2.314-0.973-3.186-2.582-3.186h-2.247V62.498z"/>
		</g>
		<g>
			<path fill="#FFFFFF" d="M599.217,58.007c0,4.046-3.225,7.31-7.251,7.31c-4.047,0-7.291-3.264-7.291-7.31
				c0-4.046,3.244-7.271,7.291-7.271C595.992,50.735,599.217,53.96,599.217,58.007z M597.849,58.007
				c0-3.265-2.658-5.903-5.883-5.903c-3.284,0-5.923,2.639-5.923,5.903c0,3.264,2.639,5.942,5.923,5.942
				C595.19,63.949,597.849,61.271,597.849,58.007z M591.047,62.209h-1.916v-8.463h3.538c1.31,0,2.15,0.782,2.15,2.228
				c0,1.075-0.45,1.876-1.701,2.072v0.039c0.411,0.02,1.662,0.117,1.662,1.642c0,0.547,0.039,2.131,0.215,2.482h-1.877
				c-0.254-0.508-0.254-1.075-0.254-1.642c0-0.997,0.156-1.857-1.329-1.857h-0.488V62.209z M591.047,57.518h0.859
				c0.763,0,0.997-0.704,0.997-1.251c0-0.801-0.391-1.114-0.997-1.114h-0.859V57.518z"/>
		</g>
		<g>
			<path fill="#FFFFFF" d="M605.797,71.822v4.427h-4.024v-4.427H605.797z"/>
			<path fill="#FFFFFF" d="M631.484,52.035v4.024h-5.634v20.19h-5.064v-20.19h-5.635v-4.024H631.484z"/>
			<path fill="#FFFFFF" d="M644.864,61.727v-9.692h5.064v24.215h-5.064V65.45h-5.803v10.799h-5.064V52.035h5.064v9.692H644.864z"/>
			<path fill="#FFFFFF" d="M654.319,76.249V52.035h13.214v3.723h-8.149v5.97h7.513v3.723h-7.513v7.077h8.418v3.723H654.319z"/>
			<path fill="#FFFFFF" d="M678.53,76.249V52.035h13.214v3.723h-8.149v5.97h7.513v3.723h-7.513v7.077h8.418v3.723H678.53z"/>
			<path fill="#FFFFFF" d="M693.722,52.035h5.769l3.454,7.949l3.388-7.949h5.266l-6.037,11.973l6.138,12.242h-5.735l-3.723-8.351
				l-3.723,8.351h-5.232l6.271-12.678L693.722,52.035z"/>
			<path fill="#FFFFFF" d="M713.976,52.035h9.123c4.628,0,6.439,2.817,6.439,7.244c0,2.75-0.806,7.11-6.742,7.11h-3.756v9.86h-5.064
				V52.035z M719.04,62.666h2.817c1.509,0,2.549-1.644,2.549-3.253c0-1.979-0.537-3.656-2.817-3.656h-2.549V62.666z"/>
			<path fill="#FFFFFF" d="M732.588,76.249V52.035h13.214v3.723h-8.149v5.97h7.513v3.723h-7.513v7.077h8.418v3.723H732.588z"/>
			<path fill="#FFFFFF" d="M754.319,76.249h-5.064V52.035h9.357c3.454,0,5.668,2.213,5.668,6.339c0,3.085-1.208,5.399-4.494,5.936
				v0.067c1.106,0.134,4.394,0.402,4.394,4.762c0,1.543,0.101,6.104,0.569,7.11h-4.963c-0.671-1.476-0.537-3.119-0.537-4.695
				c0-2.884,0.269-5.333-3.622-5.333h-1.308V76.249z M754.319,62.498h2.247c2.012,0,2.582-2.012,2.582-3.555
				c0-2.314-0.973-3.186-2.582-3.186h-2.247V62.498z"/>
			<path fill="#FFFFFF" d="M768,76.249V52.035h5.064v24.215H768z"/>
			<path fill="#FFFFFF" d="M777.322,76.249V52.035h13.214v3.723h-8.149v5.97h7.513v3.723h-7.513v7.077h8.418v3.723H777.322z"/>
			<path fill="#FFFFFF" d="M794.123,76.249V52.035h6.842l6.439,16.769h0.067V52.035h4.729v24.215h-6.674l-6.607-17.708h-0.067
				v17.708H794.123z"/>
			<path fill="#FFFFFF" d="M816.222,64.142c0-6.406,0-12.51,8.352-12.51c5.165,0,7.244,2.851,7.043,8.049h-4.964
				c0-3.22-0.57-4.427-2.079-4.427c-2.851,0-3.22,2.683-3.22,8.888s0.369,8.888,3.22,8.888c2.348,0,2.247-3.019,2.314-4.93h4.997
				c0,6.473-2.583,8.552-7.312,8.552C816.222,76.652,816.222,70.481,816.222,64.142z"/>
			<path fill="#FFFFFF" d="M835.102,76.249V52.035h13.214v3.723h-8.149v5.97h7.513v3.723h-7.513v7.077h8.418v3.723H835.102z"/>
			<path fill="#FFFFFF" d="M859.313,76.249V52.035h5.064v24.215H859.313z"/>
			<path fill="#FFFFFF" d="M875.209,76.652c-6.271,0-7.445-3.689-7.178-7.881h5.064c0,2.314,0.101,4.259,2.885,4.259
				c1.71,0,2.549-1.107,2.549-2.75c0-4.36-10.195-4.628-10.195-11.839c0-3.79,1.811-6.809,7.981-6.809
				c4.931,0,7.379,2.214,7.044,7.278h-4.931c0-1.812-0.302-3.656-2.348-3.656c-1.644,0-2.616,0.905-2.616,2.583
				c0,4.595,10.196,4.192,10.196,11.806C883.661,75.914,879.066,76.652,875.209,76.652z"/>
			<path fill="#FFFFFF" d="M905.792,59.48c0.033-2.247-0.335-4.226-3.019-4.226c-3.152,0-3.152,4.259-3.152,8.955
				c0,7.58,0.737,8.921,3.622,8.921c0.839,0,1.744-0.201,2.516-0.47v-5.366h-2.75v-3.723h7.814v12.275
				c-1.375,0.268-4.83,0.805-6.842,0.805c-8.52,0-9.492-3.521-9.492-12.711c0-6.104,0.302-12.309,8.586-12.309
				c4.964,0,8.05,2.784,7.748,7.848H905.792z"/>
			<path fill="#FFFFFF" d="M915.247,76.249V52.035h5.064v20.19h7.58v4.024H915.247z"/>
			<path fill="#FFFFFF" d="M929.867,64.142c0-6.406,0-12.51,8.352-12.51c8.351,0,8.351,6.104,8.351,12.51
				c0,6.339,0,12.51-8.351,12.51C929.867,76.652,929.867,70.481,929.867,64.142z M941.438,64.142c0-6.205-0.369-8.888-3.22-8.888
				s-3.22,2.683-3.22,8.888s0.369,8.888,3.22,8.888S941.438,70.347,941.438,64.142z"/>
			<path fill="#FFFFFF" d="M950.658,76.249V52.035h8.988c3.857,0,7.044,1.106,7.044,6.271c0,2.784-1.375,4.796-4.126,5.333v0.067
				c3.589,0.503,4.528,2.817,4.528,6.138c0,6.137-5.333,6.406-7.479,6.406H950.658z M955.723,61.928h3.388
				c1.106,0,2.649-0.738,2.649-3.085c0-1.777-1.207-3.085-2.918-3.085h-3.119V61.928z M955.723,72.527h2.817
				c1.073,0,3.488-0.034,3.488-3.421c0-2.146-0.805-3.455-3.354-3.455h-2.952V72.527z"/>
			<path fill="#FFFFFF" d="M969.236,76.249l6.708-24.215h6.674l6.573,24.215h-5.332l-1.342-5.366h-6.909l-1.375,5.366H969.236z
				 M978.996,56.696h-0.067l-2.314,10.464h4.83L978.996,56.696z"/>
			<path fill="#FFFFFF" d="M991.604,76.249V52.035h5.064v20.19h7.58v4.024H991.604z"/>
			<path fill="#FFFFFF" d="M1010.081,71.822v4.427h-4.024v-4.427H1010.081z"/>
		</g>
	</g>
</g>
</svg>
