<?xml version="1.0" encoding="utf-8"?>
<!-- Generator: Adobe Illustrator 17.0.0, SVG Export Plug-In . SVG Version: 6.00 Build 0)  -->
<!DOCTYPE svg PUBLIC "-//W3C//DTD SVG 1.1//EN" "http://www.w3.org/Graphics/SVG/1.1/DTD/svg11.dtd">
<svg version="1.1" id="Layer_1" xmlns="http://www.w3.org/2000/svg" xmlns:xlink="http://www.w3.org/1999/xlink" x="0px" y="0px"
	 width="143.476px" height="47.469px" viewBox="0 0 143.476 47.469" enable-background="new 0 0 143.476 47.469"
	 xml:space="preserve">
<g>
	<path fill="#3B99AF" d="M6.091,8.259C5.858,8.468,5.646,8.665,5.446,8.875C5.425,8.904,5.423,8.94,5.417,8.963
		C5.622,8.722,5.853,8.502,6.091,8.259"/>
	<path fill="#3B99AF" d="M13.454,3.33c0.139,0.009,0.276,0.038,0.411,0.06c1.432-0.516,2.891-0.651,4.429-0.382
		c0.455,0.073,0.891,0.179,1.32,0.352c2.19,0.778,3.817,2.346,4.664,4.429c1.752,1.553,3.07,3.445,3.901,5.69
		c0.05-0.295,0.105-0.571,0.146-0.852c0.812-6.323-3.462-11.11-9.327-12.172C16.134,0,13.427,0.468,10.901,1.863
		C9.824,2.48,8.907,3.201,8.085,4.064C9.75,3.409,11.508,3.12,13.454,3.33"/>
	<path fill="#3B99AF" d="M23.368,14.683c-0.064,0.061-0.151,0.173-0.206,0.235c-0.02,0.726-0.095,1.408-0.234,2.14
		c-0.356,1.63-0.964,3.077-1.847,4.401c1.006-0.405,1.917-0.895,2.756-1.526C24.219,18.079,24.005,16.317,23.368,14.683"/>
	<path fill="#3B99AF" d="M18.499,17.879c-1.22,0.291-2.445,0.316-3.725,0.059c-3.399-0.788-5.601-3.326-6.101-6.248
		c-1.183,1.214-2.015,2.682-2.435,4.459c1.459,2.785,4.079,4.996,7.685,5.838c0.24,0.063,0.474,0.109,0.704,0.144
		C16.317,21.199,17.667,19.764,18.499,17.879"/>
	<path fill="#006C85" d="M23.162,14.243c-1.086-2.293-3.009-4.019-5.515-4.811c1.32,1.837,1.911,4.2,1.38,6.776
		c-0.129,0.59-0.304,1.14-0.529,1.671c1.901-0.443,3.511-1.479,4.664-2.961C23.177,14.694,23.177,14.475,23.162,14.243"/>
	<path fill="#006C85" d="M21.08,21.458c-2.012,0.774-4.181,1.038-6.454,0.675c-1.841,1.017-3.894,1.308-5.925,0.792
		c-0.598-0.161-1.129-0.375-1.642-0.646c0.11,0.222,0.229,0.429,0.352,0.646c1.232,1.922,2.993,3.239,5.192,3.872
		C15.963,26.345,19.049,24.477,21.08,21.458"/>
	<path fill="#006C85" d="M17.589,4.65c-1.168-0.646-2.39-1.068-3.725-1.261c-0.467,0.159-0.902,0.368-1.35,0.616
		c-0.632,0.374-1.166,0.808-1.672,1.291C12.958,4.543,15.19,4.276,17.589,4.65"/>
	<path fill="#006C85" d="M2.189,15.328c0.352-1.599,0.921-3.031,1.731-4.371c0.417-0.767,0.9-1.448,1.525-2.082
		C5.5,8.637,5.561,8.405,5.65,8.171c0.517-1.586,1.331-2.918,2.435-4.108C4.446,5.58,1.773,8.558,0.693,12.6
		C0,15.484,0.246,18.296,1.573,20.959c0.341,0.663,0.719,1.25,1.174,1.819C1.879,20.383,1.684,17.908,2.189,15.328"/>
	<path fill="#007F97" d="M18.499,17.879c-0.836,1.885-2.186,3.32-3.872,4.253c2.272,0.362,4.442,0.103,6.453-0.674
		c0.884-1.324,1.496-2.771,1.849-4.399c0.138-0.729,0.213-1.417,0.234-2.141C22.004,16.401,20.393,17.436,18.499,17.879"/>
	<path fill="#007F97" d="M5.445,8.875c0.2-0.21,0.414-0.407,0.645-0.616c1.379-1.299,2.943-2.288,4.752-2.962
		c0.506-0.489,1.04-0.917,1.672-1.291c0.449-0.249,0.883-0.457,1.35-0.616c-0.136-0.021-0.271-0.051-0.411-0.059
		c-1.94-0.212-3.706,0.079-5.368,0.732C6.987,5.248,6.167,6.589,5.65,8.171C5.562,8.406,5.501,8.637,5.445,8.875"/>
	<path fill="#98C5D2" d="M16.738,9.197c0.312,0.08,0.603,0.135,0.909,0.234c-1.269-1.697-3.026-2.771-5.162-3.08
		c-0.882-0.112-1.727-0.084-2.581,0.087C9.467,7.078,9.136,7.76,8.906,8.522C8.588,9.6,8.519,10.635,8.672,11.69
		C10.753,9.657,13.619,8.637,16.738,9.197"/>
	<path fill="#98C5D2" d="M17.854,4.71c-0.081-0.028-0.186-0.042-0.264-0.06c1.323,0.765,2.448,1.765,3.402,3.08
		c1.37,1.902,2.116,4.096,2.17,6.513c0.073,0.153,0.132,0.29,0.207,0.439c0.639-0.929,1.073-1.93,1.29-3.049
		c0.222-1.398,0.056-2.661-0.381-3.843c-1.212-1.04-2.518-1.848-4.019-2.435C19.472,5.063,18.69,4.854,17.854,4.71"/>
	<path fill="#98C5D2" d="M28.178,13.479c-0.64,2.601-2.141,4.826-4.341,6.454c-0.001,0.032-0.012,0.082-0.029,0.117
		c-0.537,2.44-1.946,4.418-4.048,5.75c-2.092,1.281-4.442,1.652-6.805,1.112c-0.102-0.031-0.264-0.081-0.352-0.117
		c-1.516,0.193-2.973,0.08-4.459-0.351c-2.255-0.671-4.03-1.925-5.397-3.667c0.315,0.884,0.705,1.69,1.202,2.493
		c1.905,3.04,4.682,5.125,8.213,6.043c7.314,1.726,14.663-2.58,16.486-10.238C29.23,18.412,29.016,15.861,28.178,13.479"/>
	<path fill="#98C5D2" d="M6.237,16.237c0-0.027,0.003-0.071,0-0.088c-1.116-2.271-1.405-4.718-0.821-7.187
		C4.849,9.59,4.372,10.238,3.92,10.957c-0.334,0.661-0.594,1.326-0.763,2.053c-0.512,2.12-0.296,4.188,0.704,6.102
		c0.767,1.376,1.822,2.429,3.198,3.169C6.089,20.38,5.8,18.346,6.237,16.237"/>
	<path fill="#6BAEC0" d="M24.277,7.789c0.44,1.185,0.604,2.449,0.382,3.844c-0.222,1.118-0.645,2.116-1.291,3.05
		c0.637,1.635,0.851,3.396,0.469,5.251c2.204-1.628,3.703-3.851,4.341-6.454C27.346,11.234,26.032,9.342,24.277,7.789"/>
	<path fill="#6BAEC0" d="M5.416,8.963c-0.584,2.474-0.29,4.911,0.821,7.187c0.42-1.779,1.254-3.247,2.435-4.458
		c-0.152-1.06-0.088-2.089,0.234-3.169C9.137,7.76,9.468,7.076,9.904,6.439C8.707,6.665,7.61,7.148,6.589,7.876
		C6.404,8.011,6.256,8.138,6.09,8.259C5.853,8.502,5.622,8.722,5.416,8.963"/>
	<path fill="#2593AA" d="M8.144,26.445c1.476,0.433,2.947,0.544,4.459,0.351c-2.202-0.634-3.962-1.95-5.193-3.872
		c-0.124-0.216-0.241-0.423-0.351-0.644c-1.378-0.742-2.431-1.797-3.198-3.169c-1-1.908-1.216-3.978-0.704-6.102
		c0.169-0.731,0.429-1.392,0.763-2.053c-0.81,1.34-1.376,2.764-1.731,4.371c-0.505,2.573-0.314,5.052,0.558,7.45
		C4.102,24.518,5.892,25.776,8.144,26.445"/>
	<path fill="#2593AA" d="M12.485,6.351c2.132,0.313,3.896,1.383,5.162,3.08c2.502,0.792,4.429,2.521,5.515,4.811
		c-0.052-2.418-0.802-4.614-2.171-6.514c-0.954-1.315-2.081-2.306-3.402-3.078c-2.401-0.375-4.633-0.106-6.747,0.646
		c-0.347,0.362-0.657,0.724-0.939,1.142C10.753,6.257,11.608,6.238,12.485,6.351"/>
	<path fill="#007C95" d="M9.904,6.439c0.282-0.418,0.587-0.775,0.939-1.143C9.031,5.975,7.468,6.96,6.091,8.259
		c0.167-0.121,0.313-0.248,0.498-0.382C7.61,7.144,8.7,6.671,9.904,6.439"/>
	<polygon fill="#3B99AF" points="23.162,14.946 23.162,14.301 23.368,14.682 	"/>
	<polygon fill="#006C85" points="41.845,5.374 47.703,5.374 43.364,14.67 50.556,14.67 49.501,16.957 36.451,16.957 	"/>
	<polygon fill="#006C85" points="59.853,9.205 56.283,16.957 50.424,16.957 53.994,9.205 	"/>
	<path fill="#006C85" d="M60.989,9.205h10.078c2.383,0,5.33,0.577,4.368,2.665c-0.931,2.021-3.872,2.854-6.932,2.854h-4.197
		l-1.029,2.232h-5.859L60.989,9.205z M64.981,12.925h1.29c1.399,0,2.881-0.134,3.28-1c0.379-0.82-0.996-0.921-2.417-0.921h-1.268
		L64.981,12.925z"/>
	<polygon fill="#006C85" points="83.444,9.205 79.874,16.957 74.016,16.957 77.585,9.205 	"/>
	<polygon fill="#006C85" points="99.511,11.492 94.352,11.492 91.835,16.957 85.977,16.957 88.493,11.492 83.334,11.492 
		84.388,9.205 100.564,9.205 	"/>
	<path fill="#006C85" d="M105.502,17.091c-5.334,0-7.831-1.366-6.614-4.01c1.197-2.599,4.973-4.011,10.306-4.011
		c5.335,0,7.877,1.412,6.679,4.011C114.656,15.725,110.836,17.091,105.502,17.091 M106.361,15.225c2.316,0,2.987-1.312,3.391-2.144
		c0.311-0.723,0.813-2.144-1.416-2.144c-2.165,0-2.995,1.421-3.327,2.144C104.625,13.913,104.262,15.225,106.361,15.225"/>
	<path fill="#006C85" d="M118.559,9.204h9.465c3.651,0,5.636,0.578,4.951,2.066c-0.547,1.188-2.288,1.788-4.598,2.055l-0.01,0.022
		c1.217,0.11,1.839,0.422,2.197,0.833c0.517,0.821-0.1,2.022,0.163,2.776h-6.098c-0.007-0.555,0.485-1.766,0.218-2.232
		c-0.185-0.357-0.755-0.401-1.476-0.401h-1.312l-1.212,2.633h-5.859L118.559,9.204z M122.595,12.593h1.53
		c1.202,0,2.413-0.067,2.777-0.856c0.322-0.699-0.747-0.799-1.928-0.799h-1.618L122.595,12.593z"/>
	<g>
		<path fill="#006C85" d="M42.436,22.515c0.052-0.154,0.105-0.313,0.105-0.514c0-0.722-0.773-1.119-2.178-1.119
			c-1.57,0.009-2.505,0.443-2.857,1.326l-0.071,0.178h0.538l0.034-0.08c0.272-0.651,1.095-1.009,2.318-1.009h0.04
			c1.472,0,1.651,0.403,1.657,0.704c0,0.708-0.711,0.75-1.967,0.765c-0.177,0.002-0.358,0.004-0.538,0.009
			c-1.31,0.006-3.051,0.16-3.051,1.411c0,0.696,0.794,1.112,2.125,1.112c1.087,0,1.88-0.208,2.507-0.668
			c-0.001,0.021-0.002,0.044-0.002,0.068c0,0.245,0.14,0.538,0.808,0.538c0.148,0,0.299-0.01,0.459-0.03l0.113-0.015V24.77
			l-0.15,0.023c-0.125,0.021-0.272,0.03-0.436,0.03c-0.274,0-0.274-0.075-0.274-0.125c0-0.077,0.013-0.121,0.033-0.188
			L42.436,22.515z M36.987,24.188c0.011-0.774,1.026-0.962,2.545-1.006l0.117-0.001c0.813-0.008,1.579-0.026,2.022-0.146
			l-0.174,0.436c-0.398,0.911-1.431,1.413-2.907,1.413C37.851,24.884,36.987,24.701,36.987,24.188z"/>
		<path fill="#006C85" d="M44.185,24.823h-0.127c-0.474,0-0.643-0.055-0.643-0.2c0.011-0.122,0.063-0.261,0.11-0.384l1.026-2.852
			h1.463l0.139-0.414h-1.457l0.443-1.252h-0.55l-0.442,1.253h-1.267l-0.139,0.414h1.26l-0.997,2.782
			c-0.011,0.043-0.024,0.085-0.037,0.127c-0.035,0.114-0.071,0.232-0.071,0.361c0,0.577,0.863,0.577,1.147,0.577
			c0.254,0,0.506-0.01,0.728-0.029l0.084-0.008l0.148-0.43l-0.206,0.024C44.624,24.815,44.435,24.823,44.185,24.823z"/>
		<path fill="#006C85" d="M48.685,20.883c-1.083,0-2.008,0.289-2.676,0.836c-0.604,0.495-0.949,1.18-0.949,1.882
			c0,1.063,1.009,1.698,2.699,1.698c2.277,0,3.638-1.35,3.638-2.656C51.397,21.574,50.332,20.883,48.685,20.883z M47.759,24.885
			c-1.364,0-2.178-0.48-2.179-1.284c0-1.145,1.066-2.304,3.104-2.304c1.352,0,2.191,0.516,2.191,1.346
			C50.875,23.574,49.908,24.885,47.759,24.885z"/>
		<path fill="#006C85" d="M54.955,20.914c-0.98,0-1.672,0.342-2.141,0.729l0.239-0.668h-0.563l-1.514,4.232h0.55l0.748-2.077
			c0.133-0.35,0.296-0.582,0.435-0.76c0.146-0.174,0.945-1.043,2.26-1.043c0.221,0,0.389,0.021,0.451,0.03l0.107,0.016l0.139-0.408
			l-0.158-0.021C55.342,20.923,55.183,20.914,54.955,20.914z"/>
		<polygon fill="#006C85" points="61.105,20.974 57.511,24.693 56.393,20.974 55.846,20.974 57.152,25.206 57.655,25.206 
			61.767,20.974 		"/>
		<path fill="#006C85" d="M65.672,24.823c-0.274,0-0.274-0.075-0.274-0.125c0-0.076,0.013-0.12,0.033-0.186l0.789-2.005
			c0.051-0.152,0.104-0.309,0.104-0.507c0-0.722-0.773-1.119-2.178-1.119c-1.57,0.009-2.505,0.443-2.858,1.326l-0.071,0.178h0.539
			l0.033-0.08c0.271-0.65,1.094-1.009,2.318-1.009h0.04c1.472,0,1.651,0.403,1.657,0.704c0,0.708-0.711,0.75-1.967,0.765
			c-0.177,0.002-0.358,0.004-0.538,0.009c-1.31,0.006-3.051,0.16-3.051,1.411c0,0.696,0.794,1.112,2.125,1.112
			c1.088,0,1.881-0.208,2.508-0.668c-0.001,0.021-0.002,0.044-0.002,0.068c0,0.245,0.14,0.538,0.808,0.538
			c0.149,0,0.299-0.01,0.46-0.03l0.113-0.015V24.77l-0.15,0.023C65.983,24.814,65.836,24.823,65.672,24.823z M63.43,23.181
			c0.813-0.008,1.579-0.026,2.022-0.146l-0.174,0.436c-0.398,0.911-1.431,1.413-2.907,1.413c-0.74,0-1.604-0.183-1.604-0.696
			c0.011-0.774,1.027-0.962,2.546-1.006L63.43,23.181z"/>
		<path fill="#006C85" d="M69.597,20.882c-1.113,0-2.412,0.311-2.412,1.188c0,0.753,0.995,0.959,1.872,1.14
			c0.111,0.023,0.222,0.046,0.327,0.069l0.19,0.043c0.652,0.146,1.327,0.298,1.327,0.711c0,0.628-1.117,0.851-2.074,0.851
			c-1.013,0-1.656-0.164-1.912-0.486c-0.129-0.164-0.162-0.372-0.1-0.636l0.038-0.16h-0.568v0.13c0,0.044-0.006,0.087-0.012,0.129
			c-0.007,0.053-0.014,0.107-0.014,0.163c0,0.583,0.445,1.276,2.568,1.276c1.625,0,2.595-0.474,2.595-1.27
			c-0.014-0.762-1.026-0.968-1.919-1.149c-0.119-0.024-0.236-0.048-0.347-0.072l-0.128-0.029c-0.681-0.155-1.324-0.302-1.324-0.709
			c0-0.531,0.981-0.773,1.892-0.773c0.892,0,1.49,0.156,1.729,0.451c0.112,0.139,0.145,0.308,0.1,0.519l-0.033,0.157h0.529
			l0.019-0.107c0.059-0.328-0.006-0.608-0.194-0.832C71.412,21.085,70.689,20.882,69.597,20.882z"/>
		<path fill="#006C85" d="M73.599,24.823h-0.128c-0.475,0-0.643-0.055-0.643-0.199c0.011-0.12,0.061-0.256,0.105-0.377l1.03-2.859
			h1.461l0.144-0.414h-1.461l0.444-1.252h-0.549l-0.444,1.253h-1.265l-0.144,0.414h1.264l-0.998,2.782
			c-0.011,0.043-0.023,0.084-0.036,0.126c-0.035,0.114-0.071,0.232-0.071,0.362c0,0.577,0.863,0.577,1.146,0.577
			c0.255,0,0.506-0.01,0.729-0.029l0.083-0.008l0.15-0.43l-0.206,0.024C74.037,24.815,73.847,24.823,73.599,24.823z"/>
		<path fill="#006C85" d="M80.432,22.511c0.052-0.153,0.104-0.311,0.104-0.51c0-0.722-0.773-1.119-2.178-1.119
			c-1.57,0.009-2.506,0.443-2.859,1.326l-0.071,0.178h0.54l0.033-0.08c0.271-0.65,1.095-1.009,2.318-1.009h0.04
			c1.471,0,1.649,0.403,1.656,0.704c0,0.708-0.711,0.75-1.967,0.765c-0.177,0.002-0.357,0.004-0.538,0.009
			c-1.31,0.006-3.051,0.16-3.051,1.411c0,0.696,0.794,1.112,2.125,1.112c1.088,0,1.88-0.208,2.507-0.669
			c-0.001,0.022-0.002,0.045-0.002,0.069c0,0.245,0.14,0.538,0.808,0.538c0.15,0,0.296-0.01,0.459-0.03l0.113-0.015V24.77
			l-0.15,0.023c-0.125,0.021-0.271,0.03-0.435,0.03c-0.274,0-0.274-0.075-0.274-0.125c0-0.078,0.014-0.123,0.034-0.191
			L80.432,22.511z M74.981,24.188c0.01-0.773,1.025-0.961,2.545-1.006l0.117-0.001c0.813-0.008,1.578-0.026,2.021-0.146
			l-0.174,0.436c-0.398,0.911-1.431,1.413-2.906,1.413C75.845,24.884,74.981,24.701,74.981,24.188z"/>
		<path fill="#006C85" d="M82.245,24.823h-0.128c-0.474,0-0.642-0.055-0.642-0.199c0.011-0.128,0.065-0.271,0.123-0.423l1.013-2.813
			h1.463l0.139-0.414h-1.458l0.445-1.252h-0.552l-0.443,1.253H80.94l-0.142,0.414h1.262l-0.997,2.781
			c-0.011,0.042-0.023,0.084-0.037,0.125c-0.035,0.115-0.072,0.233-0.072,0.364c0,0.577,0.864,0.577,1.148,0.577
			c0.253,0,0.504-0.01,0.728-0.029l0.084-0.008l0.146-0.43l-0.205,0.024C82.683,24.815,82.495,24.823,82.245,24.823z"/>
		<polygon fill="#006C85" points="85.913,19.429 85.349,19.429 84.953,20.492 85.516,20.492 		"/>
		<polygon fill="#006C85" points="84.828,20.974 83.299,25.206 83.862,25.206 85.39,20.974 		"/>
		<path fill="#006C85" d="M88.907,20.882c-1.021,0-1.812,0.241-2.444,0.752l0.226-0.66h-0.546l-1.543,4.23h0.552l0.695-1.917
			c0.484-1.323,1.515-1.994,3.061-1.994c0.755,0,1.566,0.21,1.579,0.798c0,0.129-0.054,0.276-0.106,0.418l-0.952,2.695h0.55
			l0.866-2.447c0.014-0.045,0.029-0.09,0.045-0.135c0.058-0.169,0.117-0.345,0.117-0.527c0.005-0.254-0.086-0.479-0.271-0.667
			C90.389,21.076,89.74,20.882,88.907,20.882z"/>
		<path fill="#006C85" d="M99.215,23.735c-0.444,0.74-1.299,1.125-2.536,1.149c-1.364,0-2.179-0.479-2.179-1.284
			c0-1.117,1.088-2.304,3.104-2.304c0.842,0,1.476,0.174,1.786,0.489c0.143,0.145,0.213,0.317,0.21,0.515l-0.002,0.132h0.521v-0.13
			c0-0.902-0.917-1.42-2.516-1.42c-2.379,0-3.624,1.367-3.624,2.718c0,1.063,1.009,1.698,2.698,1.698
			c1.419,0,2.635-0.58,3.024-1.442l0.083-0.184h-0.533L99.215,23.735z"/>
		<path fill="#006C85" d="M105.888,22.536l0.013-0.037c0.049-0.149,0.1-0.304,0.1-0.498c0-0.722-0.773-1.119-2.179-1.119
			c-1.569,0.009-2.505,0.443-2.858,1.326l-0.071,0.178h0.541l0.033-0.08c0.27-0.65,1.092-1.009,2.316-1.009h0.04
			c1.473,0,1.651,0.403,1.657,0.704c0,0.708-0.711,0.75-1.966,0.765c-0.177,0.002-0.357,0.004-0.538,0.009
			c-1.31,0.006-3.051,0.16-3.051,1.411c0,0.696,0.794,1.112,2.123,1.112c1.088,0,1.882-0.209,2.51-0.669
			c-0.002,0.022-0.003,0.045-0.003,0.069c0,0.245,0.14,0.538,0.807,0.538c0.148,0,0.299-0.01,0.46-0.03l0.113-0.015V24.77
			l-0.15,0.023c-0.126,0.021-0.272,0.03-0.436,0.03c-0.273,0-0.273-0.075-0.273-0.125c0-0.077,0.013-0.121,0.032-0.188
			L105.888,22.536z M103.108,23.181c0.813-0.008,1.579-0.026,2.022-0.146l-0.174,0.436c-0.398,0.911-1.431,1.413-2.907,1.413
			c-0.739,0-1.604-0.183-1.604-0.696c0.01-0.773,1.025-0.961,2.545-1.006L103.108,23.181z"/>
		<polygon fill="#006C85" points="108.218,19.429 106.171,25.206 106.733,25.206 108.781,19.429 		"/>
		<path fill="#006C85" d="M113.538,23.856l0.083-0.184h-0.535l-0.038,0.063c-0.443,0.74-1.298,1.125-2.535,1.149
			c-1.364,0-2.179-0.479-2.179-1.284c0-1.145,1.066-2.304,3.104-2.304c0.842,0,1.477,0.174,1.787,0.489
			c0.143,0.144,0.213,0.317,0.21,0.515l-0.002,0.132h0.522v-0.13c0-0.902-0.918-1.42-2.518-1.42c-2.379,0-3.623,1.367-3.623,2.718
			c0,1.063,1.009,1.698,2.698,1.698C111.931,25.298,113.147,24.718,113.538,23.856z"/>
		<polygon fill="#006C85" points="114.007,25.206 115.536,20.974 114.973,20.974 113.443,25.206 		"/>
		<polygon fill="#006C85" points="116.059,19.429 115.495,19.429 115.097,20.492 115.663,20.492 		"/>
		<path fill="#006C85" d="M115.207,23.559c-0.058,0.169-0.117,0.345-0.117,0.526c-0.005,0.254,0.087,0.479,0.272,0.667
			c0.346,0.353,0.994,0.547,1.826,0.547c1.02,0,1.809-0.241,2.443-0.752l-0.228,0.658h0.549l1.542-4.231h-0.564l-0.684,1.917
			c-0.467,1.322-1.496,1.992-3.059,1.992c-0.755,0-1.565-0.21-1.578-0.797c0-0.13,0.055-0.28,0.107-0.424l0.95-2.689h-0.55
			l-0.866,2.447C115.237,23.468,115.222,23.514,115.207,23.559z"/>
		<path fill="#006C85" d="M121.087,25.207l0.829-2.247c0.205-0.671,1.166-1.663,2.575-1.663c0.8,0,1.317,0.292,1.317,0.743
			c0,0.106-0.019,0.214-0.058,0.335l-1.015,2.832h0.55l0.865-2.341c0.138-0.368,0.722-1.569,2.435-1.569
			c0.887,0,1.46,0.301,1.46,0.767c0,0.162-0.037,0.258-0.094,0.404l-1.02,2.738h0.552l0.919-2.466
			c0.077-0.215,0.164-0.458,0.164-0.677c0-0.729-0.759-1.181-1.981-1.181c-0.979,0-1.81,0.331-2.29,0.898
			c-0.04-0.142-0.116-0.273-0.225-0.389c-0.309-0.329-0.869-0.509-1.58-0.509c-0.968,0-1.642,0.355-2.067,0.7l0.218-0.607h-0.563
			l-1.541,4.233H121.087z"/>
		<path fill="#006C85" d="M110.475,30.858l-0.089,0.001c-0.212,0-0.428-0.013-0.429-0.098c0.007-0.066,0.041-0.144,0.072-0.212
			l0.686-1.61h0.979l0.101-0.262h-0.973l0.297-0.709h-0.371l-0.296,0.709h-0.85l-0.101,0.262h0.842l-0.659,1.556
			c-0.007,0.024-0.016,0.048-0.024,0.071c-0.024,0.066-0.05,0.136-0.05,0.213c0,0.341,0.558,0.341,0.768,0.341
			c0.18,0,0.344-0.007,0.487-0.02l0.052-0.004l0.112-0.27l-0.145,0.015C110.771,30.853,110.645,30.858,110.475,30.858z"/>
		<path fill="#006C85" d="M115.368,29.569c0.036-0.088,0.074-0.18,0.074-0.297c0-0.296-0.254-0.648-1.459-0.648
			c-1.048,0.006-1.672,0.253-1.91,0.755l-0.059,0.124h0.364l0.023-0.049c0.184-0.367,0.736-0.569,1.559-0.569h0.022
			c0.74,0,1.104,0.127,1.11,0.388c0,0.387-0.499,0.412-1.315,0.421c-0.119,0.001-0.241,0.002-0.362,0.005
			c-0.951,0.005-2.042,0.102-2.042,0.813c0,0.404,0.532,0.646,1.423,0.646c0.727,0,1.256-0.12,1.678-0.384
			c0,0.009-0.001,0.018-0.001,0.027c0,0.146,0.095,0.319,0.542,0.319c0.1,0,0.199-0.007,0.306-0.02l0.076-0.01v-0.264l-0.1,0.014
			c-0.086,0.013-0.185,0.019-0.293,0.019c-0.184,0-0.184-0.043-0.184-0.06c0-0.037,0.007-0.059,0.02-0.093L115.368,29.569z
			 M113.513,29.953c0.536-0.005,1.041-0.016,1.336-0.081l-0.104,0.222c-0.261,0.508-0.972,0.799-1.948,0.799
			c-0.643,0-1.074-0.153-1.074-0.381c0.008-0.455,0.824-0.537,1.705-0.558L113.513,29.953z"/>
		<path fill="#006C85" d="M118.593,28.624c-0.661,0-1.264,0.161-1.68,0.438l0.534-1.263h-0.373l-1.348,3.179l-0.051,0.121h0.37
			l0.225-0.521c0.199,0.354,0.775,0.574,1.553,0.574c1.587,0,2.417-0.793,2.417-1.575C120.241,29.138,119.809,28.624,118.593,28.624
			z M119.895,29.579c0,0.508-0.562,1.313-2.069,1.313c-0.545,0-0.965-0.122-1.181-0.346c-0.108-0.112-0.161-0.246-0.155-0.398
			c0.015-0.529,0.754-1.264,2.104-1.264C119.384,28.885,119.894,29.157,119.895,29.579z"/>
		<polygon fill="#006C85" points="121.796,27.801 121.417,27.801 120.085,30.981 120.035,31.101 120.414,31.101 121.746,27.921 		
			"/>
		<path fill="#006C85" d="M123.594,28.624c-1.594,0-2.428,0.764-2.428,1.518c0,0.489,0.461,1.012,1.754,1.012
			c1.093,0,1.82-0.291,2.104-0.841l0.064-0.127h-0.377l-0.024,0.046c-0.238,0.438-0.835,0.659-1.774,0.659
			c-0.328,0-1.396-0.054-1.396-0.745c0-0.06,0.003-0.11,0.009-0.154h3.731l0.02-0.133c0.014-0.094,0.026-0.175,0.026-0.272
			C125.303,29.121,124.854,28.624,123.594,28.624z M121.626,29.733c0.284-0.533,1.007-0.848,1.969-0.848
			c0.827,0,1.361,0.275,1.361,0.702c0,0.059-0.005,0.101-0.018,0.146H121.626z"/>
		<path fill="#006C85" d="M126.353,30.858l-0.089,0.001c-0.211,0-0.427-0.013-0.428-0.097c0.008-0.066,0.041-0.144,0.07-0.211
			l0.687-1.612h0.98l0.101-0.262h-0.973l0.296-0.709h-0.37l-0.297,0.709h-0.849l-0.104,0.262h0.845l-0.66,1.557
			c-0.007,0.024-0.016,0.049-0.024,0.073c-0.024,0.065-0.049,0.134-0.049,0.21c0,0.341,0.559,0.341,0.769,0.341
			c0.179,0,0.343-0.007,0.487-0.02l0.052-0.004l0.112-0.27l-0.145,0.015C126.649,30.853,126.523,30.858,126.353,30.858z"/>
		<path fill="#006C85" d="M130.749,29.007c-0.206-0.255-0.701-0.384-1.472-0.384c-0.78,0-1.614,0.181-1.614,0.687
			c0,0.439,0.635,0.551,1.248,0.658c0.077,0.014,0.153,0.027,0.227,0.041l0.128,0.024c0.415,0.078,0.885,0.166,0.885,0.389
			c0,0.325-0.696,0.47-1.388,0.47c-0.714,0-1.154-0.102-1.308-0.303c-0.063-0.083-0.077-0.186-0.042-0.314l0.03-0.109h-0.382v0.087
			c0,0.022-0.004,0.043-0.008,0.064c-0.006,0.033-0.012,0.065-0.012,0.102c0,0.487,0.579,0.734,1.721,0.734
			c0.521,0,1.736-0.071,1.736-0.732c-0.01-0.443-0.689-0.561-1.29-0.664c-0.079-0.013-0.156-0.026-0.229-0.04l-0.083-0.016
			c-0.435-0.085-0.885-0.172-0.885-0.391c0-0.279,0.637-0.425,1.266-0.425c0.622,0,1.042,0.1,1.184,0.281
			c0.054,0.068,0.067,0.15,0.042,0.249l-0.027,0.108h0.356l0.015-0.069C130.883,29.281,130.85,29.131,130.749,29.007z"/>
	</g>
	<path fill="#006C85" d="M135.496,7.483c0.888,0,1.598,0.723,1.598,1.627c0,0.916-0.71,1.632-1.605,1.632
		c-0.889,0-1.612-0.716-1.612-1.632c0-0.904,0.723-1.627,1.612-1.627H135.496z M135.489,7.736c-0.716,0-1.301,0.614-1.301,1.374
		c0,0.773,0.585,1.379,1.308,1.379c0.722,0.008,1.301-0.606,1.301-1.372c0-0.767-0.579-1.381-1.301-1.381
		C135.496,7.736,135.489,7.736,135.489,7.736z M135.185,10.058h-0.288V8.241c0.151-0.021,0.295-0.042,0.512-0.042
		c0.275,0,0.456,0.058,0.563,0.137c0.109,0.078,0.167,0.202,0.167,0.375c0,0.239-0.159,0.385-0.355,0.442v0.014
		c0.16,0.029,0.268,0.174,0.304,0.44c0.044,0.282,0.085,0.392,0.115,0.45H135.9c-0.044-0.059-0.087-0.226-0.124-0.465
		c-0.044-0.229-0.159-0.317-0.39-0.317h-0.202L135.185,10.058L135.185,10.058z M135.185,9.052h0.211
		c0.237,0,0.439-0.087,0.439-0.312c0-0.158-0.115-0.318-0.439-0.318c-0.096,0-0.16,0.009-0.211,0.016V9.052z"/>
	<path fill="#006C85" d="M1.387,47.301l1.71-8.07h2.392c1.084,0,2.168,0.402,1.766,2.303c-0.391,1.833-1.899,2.213-2.727,2.213
		H3.175l-0.76,3.555H1.387V47.301z M3.365,42.851h1.129c0.424,0,1.453-0.112,1.721-1.375c0.257-1.229-0.637-1.352-0.86-1.352h-1.42
		L3.365,42.851z"/>
	<path fill="#006C85" d="M7.79,44.561c0.357-1.653,0.827-3.018,2.783-3.018s1.867,1.364,1.509,3.018
		c-0.525,2.493-1.554,2.851-2.75,2.851C8.135,47.412,7.264,47.055,7.79,44.561 M11.209,44.171c0.324-1.543-0.089-1.878-0.794-1.878
		c-0.704,0-1.252,0.335-1.576,1.878c-0.391,1.833-0.301,2.493,0.649,2.493S10.818,46.004,11.209,44.171"/>
	<polygon fill="#006C85" points="13.443,41.655 14.46,41.655 14.449,46.518 14.472,46.518 16.752,41.655 18.048,41.655 
		18.172,46.518 18.193,46.518 20.34,41.655 21.312,41.655 18.607,47.301 17.377,47.301 17.188,42.494 17.165,42.494 14.885,47.301 
		13.656,47.301 	"/>
	<path fill="#006C85" d="M22.45,44.774c-0.335,1.576,0.022,1.89,0.737,1.89c0.627,0,1.062-0.503,1.219-1.073h1.006
		c-0.28,1.252-1.174,1.82-2.359,1.82c-1.196,0-2.068-0.356-1.542-2.849c0.358-1.655,0.827-3.018,2.783-3.018
		c1.61,0,1.833,0.883,1.431,2.749l-0.101,0.48H22.45V44.774z M24.797,44.082c0.347-1.644-0.067-1.845-0.738-1.845
		c-0.581,0-1.117,0.279-1.464,1.845H24.797z"/>
	<path fill="#006C85" d="M28.573,42.506h0.022c0.57-0.861,1.051-0.962,1.945-0.962l-0.201,0.95
		c-0.067-0.011-0.157-0.021-0.235-0.034c-0.078-0.011-0.156-0.021-0.246-0.021c-1.017,0-1.43,0.771-1.598,1.531l-0.704,3.331h-0.917
		l1.196-5.646h0.917L28.573,42.506z"/>
	<polygon fill="#006C85" points="30.506,47.301 29.455,47.301 29.701,46.138 30.752,46.138 	"/>
	<polygon fill="#006C85" points="34.606,47.301 36.316,39.23 40.475,39.23 40.285,40.124 37.155,40.124 36.606,42.718 
		39.514,42.718 39.324,43.612 36.417,43.612 35.825,46.406 39.022,46.406 38.832,47.301 	"/>
	<polygon fill="#006C85" points="40.641,41.655 41.669,41.655 41.915,46.439 41.938,46.439 44.318,41.655 45.279,41.655 
		42.317,47.301 41.122,47.301 	"/>
	<path fill="#006C85" d="M45.949,47.3h-0.917l1.196-5.644h0.916L45.949,47.3z M46.686,39.23h1.029l-0.202,0.982h-1.028L46.686,39.23
		z"/>
	<path fill="#006C85" d="M52.229,39.23h0.917l-1.711,8.07h-0.916l0.145-0.671h-0.022c-0.425,0.525-0.872,0.782-1.464,0.782
		c-0.906,0-1.744-0.358-1.219-2.838c0.302-1.409,0.682-3.03,2.504-3.03c0.537,0,0.883,0.235,1.096,0.682h0.033L52.229,39.23z
		 M50.519,42.293c-0.983,0-1.285,0.782-1.599,2.291c-0.189,0.85-0.447,2.079,0.705,2.079c1.028,0,1.296-1.274,1.542-2.414
		C51.324,43.5,51.536,42.293,50.519,42.293"/>
	<path fill="#006C85" d="M54.553,44.774c-0.335,1.576,0.022,1.89,0.737,1.89c0.628,0,1.062-0.503,1.219-1.073h1.006
		c-0.28,1.252-1.174,1.82-2.359,1.82c-1.196,0-2.068-0.356-1.542-2.849c0.358-1.655,0.827-3.018,2.783-3.018
		c1.61,0,1.833,0.883,1.431,2.749l-0.101,0.48h-3.174V44.774z M56.9,44.082c0.347-1.644-0.067-1.845-0.738-1.845
		c-0.581,0-1.117,0.279-1.464,1.845H56.9z"/>
	<path fill="#006C85" d="M61.772,47.301l0.827-3.912c0.135-0.604,0.023-1.096-0.76-1.096c-1.006,0-1.341,0.895-1.498,1.665
		l-0.715,3.343h-0.917l0.951-4.472c0.078-0.391,0.145-0.781,0.19-1.174h0.972l-0.146,0.728h0.046
		c0.491-0.638,0.95-0.838,1.676-0.838c1.207,0,1.364,0.726,1.118,1.844l-0.827,3.912H61.772z"/>
	<path fill="#006C85" d="M68.063,43.467c0.223-0.928-0.19-1.174-0.536-1.174c-0.705,0-1.252,0.336-1.576,1.878
		c-0.392,1.833-0.302,2.493,0.648,2.493c0.212,0,0.894-0.225,1.084-1.241h0.961c-0.301,1.587-1.576,1.988-2.201,1.988
		c-1.196,0-2.068-0.356-1.543-2.849c0.357-1.655,0.827-3.018,2.783-3.018c1.129,0,1.654,0.659,1.33,1.922h-0.95V43.467z"/>
	<path fill="#006C85" d="M71.313,44.774c-0.334,1.576,0.023,1.89,0.739,1.89c0.626,0,1.061-0.503,1.218-1.073h1.006
		c-0.279,1.252-1.174,1.82-2.359,1.82c-1.196,0-2.068-0.356-1.542-2.849c0.358-1.655,0.827-3.018,2.783-3.018
		c1.61,0,1.833,0.883,1.431,2.749l-0.101,0.48h-3.175V44.774z M73.661,44.082c0.346-1.644-0.067-1.845-0.738-1.845
		c-0.581,0-1.117,0.279-1.464,1.845H73.661z"/>
	<polygon fill="#006C85" points="76.431,47.301 75.381,47.301 75.626,46.138 76.677,46.138 	"/>
	<path fill="#006C85" d="M84.88,41.454c0.112-0.458,0.179-0.916,0.011-1.173c-0.156-0.258-0.615-0.347-0.827-0.347
		c-0.85,0-1.297,0.514-1.352,0.626c-0.056,0.089-0.291,0.291-0.593,1.677l-0.458,2.157c-0.413,1.978,0.179,2.213,0.973,2.213
		c0.313,0,1.284-0.112,1.632-1.688h1.061c-0.492,2.55-2.291,2.55-2.817,2.55c-1.006,0-2.537-0.067-1.866-3.197l0.48-2.28
		c0.481-2.281,1.633-2.929,3.22-2.929c1.598,0,2.034,0.828,1.598,2.392H84.88V41.454z"/>
	<path fill="#006C85" d="M86.622,44.561c0.357-1.653,0.826-3.018,2.783-3.018c1.956,0,1.867,1.364,1.509,3.018
		c-0.526,2.493-1.554,2.851-2.75,2.851C86.968,47.412,86.096,47.055,86.622,44.561 M90.042,44.171
		c0.324-1.543-0.089-1.878-0.794-1.878c-0.704,0-1.252,0.335-1.576,1.878c-0.391,1.833-0.302,2.493,0.649,2.493
		C89.271,46.664,89.651,46.004,90.042,44.171"/>
	<path fill="#006C85" d="M94.847,47.301l0.827-3.912c0.134-0.604,0.022-1.096-0.76-1.096c-1.006,0-1.341,0.895-1.498,1.665
		l-0.715,3.343h-0.917l0.95-4.472c0.078-0.391,0.145-0.781,0.19-1.174h0.973l-0.146,0.728h0.045
		c0.492-0.638,0.951-0.838,1.677-0.838c1.207,0,1.364,0.726,1.118,1.844l-0.827,3.912H94.847z"/>
	<path fill="#006C85" d="M98.734,41.656l0.235-1.096c0.246-1.141,1.096-1.363,1.912-1.363c0.19,0,0.301,0.011,0.424,0.033
		l-0.134,0.66c-0.961-0.068-1.218,0.346-1.307,0.804l-0.213,0.962h1.141l-0.146,0.692h-1.14L98.455,47.3h-0.916l1.05-4.951h-0.872
		l0.145-0.692L98.734,41.656L98.734,41.656z M101.295,47.3h-0.917l1.196-5.644h0.916L101.295,47.3z M102.032,39.23h1.028
		l-0.201,0.982h-1.028L102.032,39.23z"/>
	<path fill="#006C85" d="M107.652,39.23h0.917l-1.71,8.07h-0.917l0.146-0.671h-0.023c-0.424,0.525-0.872,0.782-1.464,0.782
		c-0.906,0-1.744-0.358-1.219-2.838c0.302-1.409,0.682-3.03,2.504-3.03c0.537,0,0.883,0.235,1.095,0.682h0.034L107.652,39.23z
		 M105.942,42.293c-0.983,0-1.285,0.782-1.599,2.291c-0.19,0.85-0.447,2.079,0.705,2.079c1.028,0,1.297-1.274,1.543-2.414
		C106.748,43.5,106.959,42.293,105.942,42.293"/>
	<path fill="#006C85" d="M109.975,44.774c-0.334,1.576,0.023,1.89,0.738,1.89c0.627,0,1.062-0.503,1.219-1.073h1.006
		c-0.279,1.252-1.174,1.82-2.359,1.82c-1.196,0-2.068-0.356-1.542-2.849c0.358-1.655,0.827-3.018,2.783-3.018
		c1.61,0,1.833,0.883,1.431,2.749l-0.101,0.48h-3.175V44.774z M112.323,44.082c0.347-1.644-0.067-1.845-0.738-1.845
		c-0.581,0-1.117,0.279-1.464,1.845H112.323z"/>
	<path fill="#006C85" d="M117.195,47.301l0.827-3.912c0.134-0.604,0.023-1.096-0.759-1.096c-1.007,0-1.342,0.895-1.499,1.665
		l-0.715,3.343h-0.917l0.95-4.472c0.079-0.391,0.146-0.781,0.191-1.174h0.972l-0.145,0.728h0.045
		c0.491-0.638,0.95-0.838,1.676-0.838c1.207,0,1.364,0.726,1.118,1.844l-0.827,3.912H117.195z"/>
	<path fill="#006C85" d="M123.486,43.467c0.224-0.928-0.19-1.174-0.536-1.174c-0.704,0-1.252,0.336-1.577,1.878
		c-0.39,1.833-0.301,2.493,0.649,2.493c0.212,0,0.894-0.225,1.084-1.241h0.962c-0.303,1.587-1.577,1.988-2.203,1.988
		c-1.196,0-2.067-0.356-1.542-2.849c0.358-1.655,0.827-3.018,2.783-3.018c1.129,0,1.654,0.659,1.33,1.922h-0.95V43.467z"/>
	<path fill="#006C85" d="M126.736,44.774c-0.334,1.576,0.023,1.89,0.738,1.89c0.627,0,1.062-0.503,1.219-1.073h1.006
		c-0.279,1.252-1.174,1.82-2.359,1.82c-1.196,0-2.068-0.356-1.542-2.849c0.358-1.655,0.827-3.018,2.783-3.018
		c1.61,0,1.833,0.883,1.431,2.749l-0.101,0.48h-3.175V44.774z M129.084,44.082c0.347-1.644-0.067-1.845-0.738-1.845
		c-0.581,0-1.117,0.279-1.464,1.845H129.084z"/>
	<polygon fill="#006C85" points="131.855,47.301 130.805,47.301 131.05,46.138 132.101,46.138 	"/>
	<rect x="0" y="0" fill="none" width="133.681" height="47.468"/>
	<g>
		<path fill="#006C85" d="M132.011,38.483l0.34-0.207c0.104-0.067,0.234-0.169,0.391-0.305l0.238-0.203h0.59v5.496h-0.711V38.62
			l-0.262,0.207c-0.109,0.086-0.215,0.152-0.316,0.199l-0.27,0.109L132.011,38.483L132.011,38.483z"/>
		<path fill="#006C85" d="M136.207,40.972v0.609h-1.07v-0.609H136.207z"/>
		<path fill="#006C85" d="M137.468,38.483l0.34-0.207c0.104-0.067,0.234-0.169,0.391-0.305l0.238-0.203h0.59v5.496h-0.711V38.62
			l-0.262,0.207c-0.109,0.086-0.215,0.152-0.316,0.199l-0.27,0.109L137.468,38.483L137.468,38.483z"/>
		<path fill="#006C85" d="M141.273,41.698v0.375c-0.002,0.172,0.055,0.331,0.172,0.477c0.104,0.125,0.258,0.187,0.461,0.184
			c0.469,0.005,0.744-0.198,0.824-0.609c0.023-0.114,0.035-0.239,0.035-0.375c0-0.231-0.025-0.438-0.074-0.617
			c-0.044-0.153-0.129-0.273-0.254-0.359c-0.135-0.094-0.354-0.145-0.656-0.152v-0.609l0.352-0.039
			c0.159-0.023,0.284-0.069,0.375-0.137c0.094-0.07,0.158-0.17,0.191-0.299s0.051-0.268,0.051-0.416
			c-0.002-0.281-0.044-0.48-0.125-0.598c-0.102-0.146-0.285-0.22-0.551-0.223c-0.492,0.003-0.737,0.284-0.734,0.844v0.125h-0.711
			v-0.188c-0.002-0.914,0.463-1.378,1.398-1.391c0.24,0,0.469,0.036,0.688,0.109c0.359,0.122,0.583,0.341,0.672,0.656
			c0.049,0.177,0.074,0.371,0.074,0.582c-0.008,0.641-0.18,1.038-0.516,1.191l-0.262,0.102l0.238,0.082
			c0.31,0.128,0.484,0.37,0.523,0.727c0.021,0.175,0.031,0.354,0.031,0.539c0,0.586-0.108,0.996-0.324,1.23
			c-0.26,0.284-0.655,0.429-1.184,0.434c-0.458,0-0.806-0.122-1.043-0.367c-0.25-0.261-0.371-0.61-0.363-1.051v-0.227
			C140.561,41.698,141.273,41.698,141.273,41.698z"/>
	</g>
</g>
</svg>
