<?xml version="1.0" encoding="utf-8"?>
<!-- Generator: Adobe Illustrator 17.0.0, SVG Export Plug-In . SVG Version: 6.00 Build 0)  -->
<!DOCTYPE svg PUBLIC "-//W3C//DTD SVG 1.1//EN" "http://www.w3.org/Graphics/SVG/1.1/DTD/svg11.dtd">
<svg version="1.1" id="Layer_1" xmlns="http://www.w3.org/2000/svg" xmlns:xlink="http://www.w3.org/1999/xlink" x="0px" y="0px"
	 width="200.109px" height="54.037px" viewBox="0 0 200.109 54.037" enable-background="new 0 0 200.109 54.037"
	 xml:space="preserve">
<g>
	<path fill="#0093D0" d="M66.946,7.829l-1.712,5.82c-0.035,0.115-0.088,0.15-0.194,0.15h-0.318c-0.105,0-0.159-0.018-0.193-0.169
		l-1.227-4.953h-0.009l-1.244,4.972c-0.025,0.125-0.096,0.15-0.202,0.15h-0.309c-0.106,0-0.149-0.018-0.194-0.169l-1.658-5.766
		c-0.018-0.045-0.018-0.09-0.018-0.117c0-0.063,0.036-0.08,0.106-0.08h0.371c0.159,0,0.212,0.027,0.247,0.161l1.341,5.053h0.009
		l1.226-5.044c0.035-0.152,0.088-0.17,0.229-0.17h0.265c0.106,0,0.159,0.055,0.185,0.161l1.279,5.053h0.009l1.377-5.044
		c0.044-0.152,0.088-0.17,0.229-0.17h0.273c0.097,0,0.141,0.017,0.141,0.09C66.955,7.775,66.955,7.802,66.946,7.829"/>
	<path fill="#0093D0" d="M68.957,13.881c-1.324,0-1.906-0.981-1.906-2.24c0-1.24,0.688-2.232,1.958-2.232
		c1.324,0,1.923,0.947,1.923,2.232C70.933,12.891,70.235,13.881,68.957,13.881 M69.009,9.847c-1.05,0-1.376,0.945-1.376,1.775
		c0,0.876,0.3,1.83,1.332,1.83c1.023,0,1.385-0.901,1.385-1.794C70.35,10.773,70.015,9.847,69.009,9.847"/>
	<path fill="#0093D0" d="M73.72,9.828c-0.009,0.045-0.035,0.071-0.071,0.071h-0.018c-0.088-0.018-0.185-0.035-0.282-0.035
		c-0.317,0-0.67,0.24-0.899,0.599v3.177c0,0.108-0.044,0.16-0.142,0.16h-0.282c-0.098,0-0.141-0.053-0.141-0.16V9.658
		c0-0.106,0.043-0.16,0.141-0.16h0.273c0.097,0,0.141,0.054,0.141,0.16l0.009,0.313c0.176-0.268,0.547-0.561,0.988-0.561
		c0.062,0,0.168,0.009,0.256,0.026c0.053,0.01,0.071,0.046,0.071,0.081v0.017L73.72,9.828z"/>
	<path fill="#0093D0" d="M77.284,13.8h-0.327c-0.114,0-0.185-0.035-0.247-0.124l-1.42-2.08l-0.256,0.268v1.776
		c0,0.108-0.044,0.16-0.141,0.16H74.61c-0.097,0-0.141-0.053-0.141-0.16V7.677c0-0.106,0.017-0.143,0.115-0.16l0.309-0.045h0.008
		h0.026c0.071,0,0.106,0.054,0.106,0.143v3.607h0.018l1.491-1.635c0.053-0.062,0.097-0.088,0.159-0.088h0.441
		c0.035,0,0.061,0.017,0.061,0.044c0,0.018-0.018,0.036-0.035,0.063l-1.473,1.606l1.668,2.401c0.035,0.045,0.044,0.089,0.044,0.116
		C77.407,13.774,77.372,13.8,77.284,13.8"/>
	<path fill="#0093D0" d="M78.501,8.847c-0.203,0-0.362-0.144-0.362-0.348c0-0.206,0.159-0.349,0.362-0.349
		c0.203,0,0.371,0.143,0.371,0.349C78.872,8.703,78.704,8.847,78.501,8.847 M78.642,13.8h-0.282c-0.097,0-0.141-0.053-0.141-0.16
		V9.658c0-0.106,0.044-0.159,0.141-0.159h0.282c0.098,0,0.142,0.053,0.142,0.159v3.981C78.784,13.747,78.739,13.8,78.642,13.8"/>
	<path fill="#0093D0" d="M83.362,13.8H83.08c-0.097,0-0.141-0.053-0.141-0.16v-2.544c0-0.714-0.168-1.24-0.98-1.24
		c-0.44,0-0.988,0.259-1.323,0.571v3.213c0,0.108-0.044,0.16-0.142,0.16h-0.282c-0.097,0-0.141-0.053-0.141-0.16V9.658
		c0-0.106,0.044-0.159,0.141-0.159h0.274c0.097,0,0.141,0.053,0.141,0.159l0.009,0.304c0.406-0.365,0.971-0.554,1.473-0.554
		c1.032,0,1.394,0.635,1.394,1.607v2.624C83.503,13.747,83.458,13.8,83.362,13.8"/>
	<path fill="#0093D0" d="M87.569,15.336c-0.299,0.259-0.749,0.428-1.341,0.428c-0.388,0-0.882-0.143-1.226-0.312
		c-0.071-0.036-0.089-0.071-0.089-0.107c0-0.018,0-0.035,0.009-0.053l0.088-0.232c0.017-0.045,0.044-0.08,0.089-0.08
		c0.017,0,0.052,0,0.079,0.017c0.336,0.152,0.696,0.287,1.049,0.287c0.423,0,0.759-0.082,0.997-0.331
		c0.237-0.25,0.36-0.66,0.36-1.286v-0.436c-0.299,0.365-0.856,0.57-1.322,0.57c-1.271,0-1.8-1.008-1.8-2.168
		c0-1.197,0.661-2.224,1.914-2.224c0.451,0,0.927,0.179,1.209,0.545l0.009-0.313c0-0.115,0.063-0.142,0.159-0.142h0.265
		c0.097,0,0.132,0.053,0.132,0.159v3.027v0.919C88.152,14.39,87.984,14.971,87.569,15.336 M87.586,10.587
		c-0.203-0.41-0.696-0.731-1.181-0.731c-0.882,0-1.358,0.723-1.358,1.74c0,0.821,0.3,1.74,1.27,1.74c0.467,0,1.023-0.267,1.27-0.642
		V10.587z"/>
	<path fill="#0093D0" d="M93.339,13.747c-0.168,0.063-0.459,0.134-0.724,0.134c-0.345,0-0.715-0.099-0.909-0.304
		c-0.247-0.259-0.265-0.625-0.265-1.115V9.918h-0.521c-0.08,0-0.098-0.019-0.098-0.09V9.587c0-0.08,0.018-0.088,0.08-0.088h0.538
		V8.453c0-0.106,0.018-0.143,0.114-0.16l0.309-0.044h0.009H91.9c0.07,0,0.106,0.053,0.106,0.142v1.108h1.067
		c0.07,0,0.097,0.018,0.097,0.098v0.231c0,0.071-0.027,0.09-0.106,0.09h-1.059v2.633c0,0.313,0.027,0.563,0.176,0.714
		c0.107,0.108,0.274,0.17,0.521,0.17c0.203,0,0.424-0.063,0.547-0.098c0.026-0.01,0.053-0.01,0.07-0.01
		c0.053,0,0.053,0.026,0.063,0.063l0.044,0.224v0.036C93.427,13.693,93.4,13.72,93.339,13.747"/>
	<path fill="#0093D0" d="M95.733,13.881c-1.323,0-1.906-0.981-1.906-2.24c0-1.24,0.688-2.232,1.959-2.232
		c1.323,0,1.923,0.947,1.923,2.232C97.709,12.891,97.013,13.881,95.733,13.881 M95.787,9.847c-1.05,0-1.376,0.945-1.376,1.775
		c0,0.876,0.3,1.83,1.332,1.83c1.024,0,1.385-0.901,1.385-1.794C97.127,10.773,96.792,9.847,95.787,9.847"/>
	<path fill="#0093D0" d="M101.454,15.336c-0.3,0.259-0.749,0.428-1.34,0.428c-0.388,0-0.882-0.143-1.226-0.312
		c-0.071-0.036-0.088-0.071-0.088-0.107c0-0.018,0-0.035,0.008-0.053l0.088-0.232c0.018-0.045,0.044-0.08,0.089-0.08
		c0.018,0,0.053,0,0.079,0.017c0.335,0.152,0.697,0.287,1.05,0.287c0.423,0,0.759-0.082,0.997-0.331
		c0.238-0.25,0.362-0.66,0.362-1.286v-0.436c-0.301,0.365-0.857,0.57-1.324,0.57c-1.271,0-1.8-1.008-1.8-2.168
		c0-1.197,0.662-2.224,1.915-2.224c0.45,0,0.926,0.179,1.209,0.545l0.008-0.313c0-0.115,0.062-0.142,0.159-0.142h0.265
		c0.097,0,0.132,0.053,0.132,0.159v3.027v0.919C102.036,14.39,101.869,14.971,101.454,15.336 M101.473,10.587
		c-0.204-0.41-0.698-0.731-1.183-0.731c-0.882,0-1.358,0.723-1.358,1.74c0,0.821,0.299,1.74,1.27,1.74
		c0.468,0,1.023-0.267,1.271-0.642V10.587z"/>
	<path fill="#0093D0" d="M106.359,11.667h-0.776h-2.021c0,0.945,0.467,1.731,1.482,1.731c0.379,0,0.839-0.089,1.103-0.204
		c0.027-0.009,0.044-0.019,0.061-0.019c0.045,0,0.081,0.035,0.089,0.081l0.044,0.204c0.009,0.027,0.009,0.054,0.009,0.072
		c0,0.044-0.027,0.071-0.088,0.099c-0.353,0.168-0.9,0.249-1.271,0.249c-1.349,0-2.011-0.92-2.011-2.24
		c0-1.24,0.75-2.232,1.985-2.232c1.041,0,1.641,0.805,1.641,1.849v0.169C106.606,11.622,106.579,11.667,106.359,11.667
		 M104.947,9.847c-0.829,0-1.288,0.679-1.367,1.419h2.452c0.008-0.063,0.008-0.116,0.008-0.179
		C106.041,10.409,105.688,9.847,104.947,9.847"/>
	<path fill="#0093D0" d="M109.579,13.747c-0.168,0.063-0.459,0.134-0.724,0.134c-0.344,0-0.715-0.099-0.909-0.304
		c-0.247-0.259-0.265-0.625-0.265-1.115V9.918h-0.52c-0.079,0-0.097-0.019-0.097-0.09V9.587c0-0.08,0.018-0.088,0.079-0.088h0.539
		V8.453c0-0.106,0.018-0.143,0.115-0.16l0.308-0.044h0.01h0.026c0.071,0,0.106,0.053,0.106,0.142v1.108h1.067
		c0.071,0,0.097,0.018,0.097,0.098v0.231c0,0.071-0.026,0.09-0.105,0.09h-1.059v2.633c0,0.313,0.026,0.563,0.177,0.714
		c0.106,0.108,0.273,0.17,0.521,0.17c0.202,0,0.423-0.063,0.546-0.098c0.026-0.01,0.054-0.01,0.07-0.01
		c0.053,0,0.053,0.026,0.063,0.063l0.044,0.224v0.036C109.667,13.693,109.64,13.72,109.579,13.747"/>
	<path fill="#0093D0" d="M113.681,13.8h-0.283c-0.097,0-0.141-0.053-0.141-0.16v-2.544c0-0.705-0.176-1.24-0.97-1.24
		c-0.441,0-0.998,0.259-1.333,0.571v3.213c0,0.108-0.044,0.16-0.141,0.16h-0.283c-0.097,0-0.141-0.053-0.141-0.16V7.677
		c0-0.106,0.018-0.143,0.114-0.16l0.31-0.045h0.008h0.027c0.07,0,0.105,0.054,0.105,0.143v2.348
		c0.406-0.365,0.971-0.554,1.473-0.554c1.033,0,1.394,0.635,1.394,1.607v2.624C113.822,13.747,113.778,13.8,113.681,13.8"/>
	<path fill="#0093D0" d="M118.153,11.667h-0.776h-2.021c0,0.945,0.468,1.731,1.482,1.731c0.379,0,0.838-0.089,1.103-0.204
		c0.026-0.009,0.044-0.019,0.062-0.019c0.044,0,0.08,0.035,0.087,0.081l0.044,0.204c0.01,0.027,0.01,0.054,0.01,0.072
		c0,0.044-0.027,0.071-0.088,0.099c-0.353,0.168-0.9,0.249-1.27,0.249c-1.35,0-2.012-0.92-2.012-2.24
		c0-1.24,0.751-2.232,1.985-2.232c1.041,0,1.642,0.805,1.642,1.849v0.169C118.401,11.622,118.374,11.667,118.153,11.667
		 M116.741,9.847c-0.83,0-1.288,0.679-1.367,1.419h2.453c0.009-0.063,0.009-0.116,0.009-0.179
		C117.835,10.409,117.483,9.847,116.741,9.847"/>
	<path fill="#0093D0" d="M121.135,9.828c-0.008,0.045-0.035,0.071-0.071,0.071h-0.018c-0.089-0.018-0.185-0.035-0.282-0.035
		c-0.317,0-0.67,0.24-0.901,0.599v3.177c0,0.108-0.043,0.16-0.141,0.16h-0.282c-0.097,0-0.142-0.053-0.142-0.16V9.658
		c0-0.106,0.045-0.16,0.142-0.16h0.274c0.096,0,0.141,0.054,0.141,0.16l0.008,0.313c0.177-0.268,0.547-0.561,0.989-0.561
		c0.062,0,0.167,0.009,0.256,0.026c0.053,0.01,0.071,0.046,0.071,0.081v0.017L121.135,9.828z"/>
	<path fill="#0093D0" d="M126.189,7.677l-0.062,0.241c-0.009,0.027-0.026,0.055-0.063,0.055c-0.018,0-0.035-0.01-0.07-0.018
		c-0.124-0.054-0.371-0.107-0.573-0.107c-0.645,0-0.838,0.411-0.838,1.224v0.428h1.147c0.08,0,0.105,0.019,0.105,0.089v0.232
		c0,0.08-0.025,0.099-0.097,0.099h-1.156v3.722c0,0.108-0.043,0.16-0.141,0.16h-0.283c-0.097,0-0.141-0.053-0.141-0.16V9.918h-0.539
		c-0.061,0-0.079-0.009-0.079-0.09V9.587c0-0.07,0.018-0.089,0.097-0.089h0.521V9.373c0-0.349,0.008-0.562,0.026-0.706
		c0.079-0.794,0.556-1.267,1.332-1.267c0.247,0,0.529,0.063,0.724,0.134c0.061,0.027,0.096,0.063,0.096,0.107
		C126.198,7.65,126.189,7.659,126.189,7.677"/>
	<path fill="#0093D0" d="M127.947,13.881c-1.324,0-1.906-0.981-1.906-2.24c0-1.24,0.688-2.232,1.958-2.232
		c1.324,0,1.924,0.947,1.924,2.232C129.924,12.891,129.227,13.881,127.947,13.881 M128,9.847c-1.05,0-1.376,0.945-1.376,1.775
		c0,0.876,0.301,1.83,1.332,1.83c1.023,0,1.385-0.901,1.385-1.794C129.341,10.773,129.006,9.847,128,9.847"/>
	<path fill="#0093D0" d="M132.618,9.828c-0.008,0.045-0.035,0.071-0.069,0.071h-0.019c-0.088-0.018-0.186-0.035-0.282-0.035
		c-0.318,0-0.67,0.24-0.9,0.599v3.177c0,0.108-0.043,0.16-0.14,0.16h-0.283c-0.097,0-0.142-0.053-0.142-0.16V9.658
		c0-0.106,0.044-0.16,0.142-0.16h0.273c0.097,0,0.142,0.054,0.142,0.16l0.008,0.313c0.177-0.268,0.547-0.561,0.988-0.561
		c0.063,0,0.168,0.009,0.257,0.026c0.052,0.01,0.07,0.046,0.07,0.081v0.017L132.618,9.828z"/>
	<path fill="#0093D0" d="M138.952,13.8h-0.335c-0.344,0-0.494-0.294-0.494-0.642v-0.116c-0.177,0.438-0.776,0.839-1.359,0.839
		c-1.199,0-1.72-1.053-1.72-2.16c0-1.464,0.837-2.313,1.861-2.313c0.424,0,0.917,0.179,1.209,0.563l0.009-0.329
		c0-0.108,0.062-0.143,0.159-0.143h0.265c0.097,0,0.133,0.053,0.133,0.159v3.134c0,0.25,0,0.419,0.035,0.49
		c0.035,0.081,0.097,0.107,0.185,0.107h0.062c0.071,0,0.098,0.019,0.098,0.099v0.223C139.059,13.781,139.032,13.8,138.952,13.8
		 M138.114,10.604c-0.229-0.482-0.706-0.749-1.173-0.749c-0.759,0-1.314,0.688-1.314,1.83c0,1.133,0.556,1.713,1.182,1.713
		c0.644,0,1.13-0.535,1.306-1.08V10.604z"/>
	<path fill="#0093D0" d="M145.118,13.8h-0.282c-0.097,0-0.141-0.053-0.141-0.16v-2.544c0-0.705-0.177-1.24-0.97-1.24
		c-0.441,0-0.998,0.259-1.332,0.571v3.213c0,0.108-0.044,0.16-0.142,0.16h-0.282c-0.097,0-0.141-0.053-0.141-0.16V7.677
		c0-0.106,0.018-0.143,0.115-0.16l0.309-0.045h0.008h0.027c0.071,0,0.106,0.054,0.106,0.143v2.348
		c0.406-0.365,0.97-0.554,1.473-0.554c1.032,0,1.394,0.635,1.394,1.607v2.624C145.259,13.747,145.215,13.8,145.118,13.8"/>
	<path fill="#0093D0" d="M149.59,11.667h-0.776h-2.021c0,0.945,0.468,1.731,1.482,1.731c0.38,0,0.838-0.089,1.102-0.204
		c0.028-0.009,0.045-0.019,0.063-0.019c0.043,0,0.08,0.035,0.087,0.081l0.045,0.204c0.008,0.027,0.008,0.054,0.008,0.072
		c0,0.044-0.026,0.071-0.088,0.099c-0.353,0.168-0.899,0.249-1.269,0.249c-1.351,0-2.012-0.92-2.012-2.24
		c0-1.24,0.75-2.232,1.985-2.232c1.041,0,1.641,0.805,1.641,1.849v0.169C149.838,11.622,149.812,11.667,149.59,11.667
		 M148.179,9.847c-0.829,0-1.288,0.679-1.368,1.419h2.453c0.009-0.063,0.009-0.116,0.009-0.179
		C149.273,10.409,148.92,9.847,148.179,9.847"/>
	<path fill="#0093D0" d="M154.38,13.8h-0.335c-0.344,0-0.493-0.294-0.493-0.642v-0.116c-0.177,0.438-0.777,0.839-1.36,0.839
		c-1.2,0-1.72-1.053-1.72-2.16c0-1.464,0.838-2.313,1.861-2.313c0.424,0,0.917,0.179,1.21,0.563l0.009-0.329
		c0-0.108,0.061-0.143,0.158-0.143h0.265c0.097,0,0.132,0.053,0.132,0.159v3.134c0,0.25,0,0.419,0.035,0.49
		c0.036,0.081,0.097,0.107,0.186,0.107h0.061c0.071,0,0.098,0.019,0.098,0.099v0.223C154.487,13.781,154.46,13.8,154.38,13.8
		 M153.543,10.604c-0.23-0.482-0.706-0.749-1.175-0.749c-0.758,0-1.313,0.688-1.313,1.83c0,1.133,0.555,1.713,1.182,1.713
		c0.644,0,1.128-0.535,1.306-1.08V10.604z"/>
	<path fill="#0093D0" d="M155.877,13.8h-0.281c-0.099,0-0.143-0.053-0.143-0.16V7.677c0-0.106,0.018-0.143,0.115-0.16l0.309-0.045
		h0.009h0.026c0.071,0,0.106,0.054,0.106,0.143v6.025C156.019,13.747,155.975,13.8,155.877,13.8"/>
	<path fill="#0093D0" d="M159.33,13.747c-0.168,0.063-0.458,0.134-0.724,0.134c-0.345,0-0.715-0.099-0.909-0.304
		c-0.247-0.259-0.265-0.625-0.265-1.115V9.918h-0.52c-0.08,0-0.098-0.019-0.098-0.09V9.587c0-0.08,0.018-0.088,0.08-0.088h0.538
		V8.453c0-0.106,0.019-0.143,0.115-0.16l0.308-0.044h0.01h0.026c0.07,0,0.107,0.053,0.107,0.142v1.108h1.065
		c0.072,0,0.098,0.018,0.098,0.098v0.231c0,0.071-0.026,0.09-0.106,0.09h-1.058v2.633c0,0.313,0.025,0.563,0.175,0.714
		c0.105,0.108,0.273,0.17,0.52,0.17c0.203,0,0.425-0.063,0.547-0.098c0.027-0.01,0.053-0.01,0.071-0.01
		c0.053,0,0.053,0.026,0.062,0.063l0.045,0.224v0.036C159.418,13.693,159.39,13.72,159.33,13.747"/>
	<path fill="#0093D0" d="M163.432,13.8h-0.283c-0.097,0-0.142-0.053-0.142-0.16v-2.544c0-0.705-0.176-1.24-0.97-1.24
		c-0.44,0-0.997,0.259-1.332,0.571v3.213c0,0.108-0.044,0.16-0.141,0.16h-0.283c-0.097,0-0.14-0.053-0.14-0.16V7.677
		c0-0.106,0.017-0.143,0.114-0.16l0.309-0.045h0.008h0.026c0.071,0,0.107,0.054,0.107,0.143v2.348
		c0.405-0.365,0.97-0.554,1.473-0.554c1.032,0,1.394,0.635,1.394,1.607v2.624C163.572,13.747,163.529,13.8,163.432,13.8"/>
	<path fill="#0093D0" d="M165.125,8.847c-0.204,0-0.362-0.144-0.362-0.348c0-0.206,0.158-0.349,0.362-0.349
		c0.203,0,0.371,0.143,0.371,0.349C165.496,8.703,165.328,8.847,165.125,8.847 M165.266,13.8h-0.283
		c-0.097,0-0.141-0.053-0.141-0.16V9.658c0-0.106,0.044-0.159,0.141-0.159h0.283c0.096,0,0.141,0.053,0.141,0.159v3.981
		C165.407,13.747,165.362,13.8,165.266,13.8"/>
	<path fill="#0093D0" d="M169.845,11.667h-0.777h-2.02c0,0.945,0.467,1.731,1.481,1.731c0.38,0,0.837-0.089,1.103-0.204
		c0.026-0.009,0.044-0.019,0.062-0.019c0.044,0,0.08,0.035,0.089,0.081l0.043,0.204c0.01,0.027,0.01,0.054,0.01,0.072
		c0,0.044-0.027,0.071-0.089,0.099c-0.352,0.168-0.899,0.249-1.27,0.249c-1.349,0-2.012-0.92-2.012-2.24
		c0-1.24,0.751-2.232,1.985-2.232c1.041,0,1.642,0.805,1.642,1.849v0.169C170.092,11.622,170.064,11.667,169.845,11.667
		 M168.432,9.847c-0.83,0-1.288,0.679-1.367,1.419h2.453c0.009-0.063,0.009-0.116,0.009-0.179
		C169.526,10.409,169.173,9.847,168.432,9.847"/>
	<path fill="#0093D0" d="M172.826,9.828c-0.01,0.045-0.035,0.071-0.071,0.071h-0.018c-0.088-0.018-0.184-0.035-0.281-0.035
		c-0.317,0-0.67,0.24-0.9,0.599v3.177c0,0.108-0.045,0.16-0.142,0.16h-0.282c-0.096,0-0.141-0.053-0.141-0.16V9.658
		c0-0.106,0.044-0.16,0.141-0.16h0.274c0.097,0,0.141,0.054,0.141,0.16l0.009,0.313c0.176-0.268,0.547-0.561,0.988-0.561
		c0.062,0,0.167,0.009,0.255,0.026c0.054,0.01,0.071,0.046,0.071,0.081v0.017L172.826,9.828z"/>
	<path fill="#0093D0" d="M180.686,9.632l-1.191,4.044c-0.026,0.099-0.098,0.124-0.176,0.124h-0.362
		c-0.107,0-0.159-0.044-0.178-0.124l-0.907-3.267l-0.9,3.267c-0.026,0.099-0.097,0.124-0.176,0.124h-0.353
		c-0.105,0-0.159-0.044-0.185-0.124l-1.191-4.035c0-0.018-0.009-0.035-0.009-0.043c0-0.064,0.044-0.1,0.124-0.1h0.309
		c0.124,0,0.169,0.027,0.186,0.1l0.97,3.524h0.018l0.98-3.517c0.027-0.08,0.062-0.107,0.142-0.107h0.281
		c0.054,0,0.088,0.019,0.106,0.09l1.015,3.534h0.018l0.934-3.499c0.027-0.09,0.088-0.125,0.186-0.125h0.265
		c0.061,0,0.105,0.027,0.105,0.081C180.695,9.598,180.695,9.613,180.686,9.632"/>
	<path fill="#0093D0" d="M183.111,13.881c-1.323,0-1.906-0.981-1.906-2.24c0-1.24,0.688-2.232,1.96-2.232
		c1.322,0,1.923,0.947,1.923,2.232C185.088,12.891,184.39,13.881,183.111,13.881 M183.165,9.847c-1.05,0-1.377,0.945-1.377,1.775
		c0,0.876,0.299,1.83,1.332,1.83c1.023,0,1.386-0.901,1.386-1.794C184.506,10.773,184.169,9.847,183.165,9.847"/>
	<path fill="#0093D0" d="M187.875,9.828c-0.009,0.045-0.035,0.071-0.07,0.071h-0.018c-0.089-0.018-0.185-0.035-0.282-0.035
		c-0.318,0-0.67,0.24-0.9,0.599v3.177c0,0.108-0.044,0.16-0.141,0.16h-0.282c-0.097,0-0.141-0.053-0.141-0.16V9.658
		c0-0.106,0.044-0.16,0.141-0.16h0.273c0.097,0,0.141,0.054,0.141,0.16l0.009,0.313c0.177-0.268,0.547-0.561,0.988-0.561
		c0.061,0,0.168,0.009,0.256,0.026c0.053,0.01,0.071,0.046,0.071,0.081v0.017L187.875,9.828z"/>
	<path fill="#0093D0" d="M189.048,13.8h-0.282c-0.097,0-0.142-0.053-0.142-0.16V7.677c0-0.106,0.018-0.143,0.115-0.16l0.309-0.045
		h0.01h0.025c0.072,0,0.106,0.054,0.106,0.143v6.025C189.189,13.747,189.145,13.8,189.048,13.8"/>
	<path fill="#0093D0" d="M193.733,13.8h-0.257c-0.123,0-0.167-0.035-0.167-0.16l-0.008-0.375c-0.309,0.375-0.83,0.616-1.359,0.616
		c-1.271,0-1.79-1.062-1.79-2.223c0-1.356,0.803-2.25,1.923-2.25c0.414,0,0.935,0.197,1.2,0.545V9.605V7.677
		c0-0.106,0.018-0.151,0.114-0.16l0.318-0.045h0.009h0.026c0.072,0,0.099,0.054,0.099,0.143v1.973v4.053
		C193.839,13.738,193.794,13.8,193.733,13.8 M193.274,10.587c-0.195-0.401-0.671-0.731-1.156-0.731c-0.838,0-1.385,0.66-1.385,1.784
		c0,1.081,0.495,1.795,1.297,1.795c0.467,0,0.997-0.304,1.244-0.678V10.587z"/>
	<path fill="#0093D0" d="M195.955,7.83c-0.007,0.046-0.033,0.046-0.066,0.046h-0.473v1.563c0,0.039-0.014,0.06-0.053,0.06h-0.138
		c-0.04,0-0.059-0.021-0.059-0.06V7.876h-0.48c-0.032,0-0.046-0.007-0.046-0.04V7.718c0-0.033,0.007-0.047,0.039-0.047h1.242
		c0.033,0,0.047,0.014,0.047,0.039v0.008L195.955,7.83z M197.887,9.499h-0.151c-0.033,0-0.053-0.021-0.053-0.06l-0.026-1.303
		l-0.512,1.329c-0.007,0.026-0.021,0.033-0.047,0.033h-0.105c-0.025,0-0.032-0.014-0.044-0.04l-0.559-1.322l-0.013,1.315
		c0,0.033-0.013,0.047-0.052,0.047h-0.139c-0.032,0-0.046-0.021-0.046-0.053l0.026-1.723c0-0.039,0.014-0.053,0.047-0.053h0.151
		c0.04,0,0.052,0.006,0.066,0.033l0.624,1.469l0.585-1.463c0.013-0.025,0.02-0.039,0.053-0.039h0.157
		c0.033,0,0.046,0.014,0.046,0.047l0.039,1.722v0.007C197.932,9.485,197.926,9.499,197.887,9.499"/>
	<g>
		<defs>
			<path id="SVGID_34_" d="M37.686,13.893c-0.7,0.545-1.24,1.402-1.45,2.361c1.278-0.046,1.999-0.239,2.662-0.766
				c0.594-0.473,0.863-1.006,0.863-1.454c0-0.246-0.149-0.633-0.835-0.633C38.611,13.402,38.104,13.568,37.686,13.893 M10.461,9.207
				c-0.404,1.513-0.976,3.649-1.524,5.702c2.239-0.005,3.646-0.398,4.335-2.641c0.564-1.836,0.344-3.061-2.318-3.061H10.461z
				 M27.007,12.245h7.021c-0.807,2.7-4.611,4.894-5.661,6.936h4.426l-0.463,1.746h-7.187c0-2.742,4.539-5.913,5.401-7.259h-3.917
				L27.007,12.245z M48.957,12.095c1.559,0,1.792,0.938,1.792,1.667c0,0.853-0.595,1.439-1.278,1.439
				c-0.517,0-0.746-0.21-0.837-0.303c-0.238-0.241-0.277-0.487-0.304-0.692c-0.034-0.241-0.111-0.475-0.385-0.519
				c-0.394-0.063-0.717,0.096-1.053,0.399c-0.453,0.407-0.839,1.052-1.12,1.671c-0.195,0.428-0.339,0.833-0.42,1.12l-1.09,4.052
				h-2.825l2.316-8.683h2.741l-0.491,1.74C46.645,13.196,47.849,12.095,48.957,12.095 M33.306,17.86
				c0-3.142,2.796-5.823,5.785-5.823c1.486,0,2.769,0.7,2.769,1.889c0,1.235-0.971,2.503-2.438,2.985
				c-0.915,0.309-1.838,0.491-3.387,0.491c-0.037,0.329-0.021,0.457-0.021,0.637c0,0.837,0.704,1.554,1.684,1.554
				c1.316,0,2.557-1.222,2.703-1.37l0.488,1.324c-0.394,0.412-0.832,0.769-1.331,1.032c-0.785,0.412-1.684,0.637-2.67,0.637
				C34.752,21.216,33.306,19.865,33.306,17.86 M7.986,7.911h3.28c5.034,0,5.389,2.6,4.962,4.449
				c-0.527,2.291-1.883,3.925-7.663,3.935c-0.569,2.13-1.062,3.972-1.239,4.633H4.505C5.021,18.997,7.986,7.911,7.986,7.911
				 M32.647,0c-3.031,0.001-6.236,0.326-9.49,1.013C9.831,3.825,0.004,11.745,0,19.274c0,0.576,0.056,1.147,0.174,1.717
				c0.966,4.678,5.793,7.999,12.502,9.35c1.418-5.536,4.68-18.204,4.68-18.204c0.64-2.505,0.997-3.473,1.629-4.563
				c0.825-1.41,2.146-2.575,3.999-2.744c1.008-0.091,2.507,0.036,3.346,0.633c0.792,0.561,0.893,1.15,0.867,1.687
				c-0.054,1.108-0.724,1.85-1.794,1.85c-1.097,0-1.439-0.814-1.445-1.352c-0.008-0.73,0.421-0.844,0.417-1.386
				c-0.003-0.277-0.253-0.709-0.938-0.602c-0.847,0.134-1.552,0.815-2.012,1.999c-0.106,0.275-0.239,0.644-0.404,1.273l-0.841,3.313
				h5.553c-0.727,2.662-1.957,7.39-2.3,8.683h-2.804l1.924-7.259h-2.749l-4.393,17.1c1.422,0.163,2.907,0.245,4.44,0.24
				c2.953-0.005,6.085-0.328,9.285-1.003c13.359-2.82,23.58-10.816,23.588-18.366c0.001-0.559-0.054-1.113-0.168-1.665
				C51.281,3.785,42.98,0,32.651,0H32.647z"/>
		</defs>
		<clipPath id="SVGID_2_">
			<use xlink:href="#SVGID_34_"  overflow="visible"/>
		</clipPath>
		
			<radialGradient id="SVGID_4_" cx="-395.0456" cy="-15.8239" r="1.061" gradientTransform="matrix(47.6734 0 0 -48.2355 18838.2285 -765.2082)" gradientUnits="userSpaceOnUse">
			<stop  offset="0" style="stop-color:#00B9F2"/>
			<stop  offset="0.2527" style="stop-color:#00B9F2"/>
			<stop  offset="0.5275" style="stop-color:#00A5E8"/>
			<stop  offset="1" style="stop-color:#006CB7"/>
		</radialGradient>
		<rect x="0" y="0" clip-path="url(#SVGID_2_)" fill="url(#SVGID_4_)" width="52.725" height="31.014"/>
	</g>
	<g>
		<g>
			<path fill="#FFFFFF" d="M106.897,18.765h-1.128v-0.63h3.076v0.63h-1.128v3.165h-0.819V18.765z"/>
			<path fill="#FFFFFF" d="M109.167,18.135h1.328l0.803,2.761l0.866-2.761h1.292v3.795h-0.809v-3.255l-1.034,3.255h-0.672
				l-1.013-3.255v3.255h-0.761V18.135z"/>
			<path fill="#FFFFFF" d="M115.564,19.279h0.661v0.708h-0.661V19.279z M115.564,21.227h0.661v0.703h-0.661V21.227z"/>
			<path fill="#FFFFFF" d="M117.775,18.765h-1.129v-0.63h3.076v0.63h-1.128v3.165h-0.819V18.765z"/>
			<path fill="#FFFFFF" d="M120.044,18.135h1.454c0.42-0.005,0.845-0.005,1.149,0.257c0.236,0.205,0.331,0.483,0.331,0.729
				c0,0.709-0.609,0.877-0.792,0.93c0.572,0.052,0.614,0.378,0.683,0.871c0.058,0.446,0.089,0.63,0.115,0.735
				c0.042,0.168,0.073,0.209,0.115,0.272h-0.897c-0.037-0.21-0.152-1.171-0.205-1.317c-0.074-0.215-0.273-0.215-0.41-0.215h-0.714
				v1.532h-0.829V18.135z M120.848,19.793h0.656c0.095,0,0.284,0,0.415-0.104c0.058-0.042,0.21-0.174,0.21-0.441
				c0-0.257-0.126-0.378-0.2-0.425c-0.126-0.089-0.278-0.089-0.535-0.089h-0.546V19.793z"/>
			<path fill="#FFFFFF" d="M125.543,18.135l1.317,3.795h-0.819l-0.273-0.819h-1.501l-0.283,0.819h-0.777l1.37-3.795H125.543z
				 M125.563,20.497l-0.524-1.617l-0.562,1.617H125.563z"/>
			<path fill="#FFFFFF" d="M127.261,18.145l1.254,0.005c0.21,0,0.85,0.005,1.307,0.341c0.478,0.352,0.646,0.95,0.646,1.491
				c0,1.165-0.625,1.774-1.344,1.905c-0.142,0.026-0.299,0.042-0.683,0.042h-1.181V18.145z M128.085,21.305
				c0.089,0.006,0.226,0.011,0.32,0.011c0.347,0,0.646-0.026,0.882-0.263c0.32-0.319,0.341-0.887,0.341-1.07
				c0-0.535-0.184-1.029-0.693-1.171c-0.168-0.047-0.383-0.073-0.85-0.053V21.305z"/>
			<path fill="#FFFFFF" d="M131.048,18.135h2.54v0.619h-1.727v0.903h1.617v0.619h-1.617V21.3h1.785v0.63h-2.598V18.135z"/>
			<path fill="#FFFFFF" d="M134.131,18.135h1.328l0.803,2.761l0.866-2.761h1.292v3.795h-0.809v-3.255l-1.034,3.255h-0.672
				l-1.013-3.255v3.255h-0.761V18.135z"/>
			<path fill="#FFFFFF" d="M141.084,18.135l1.318,3.795h-0.819l-0.273-0.819h-1.501l-0.283,0.819h-0.777l1.37-3.795H141.084z
				 M141.105,20.497l-0.525-1.617l-0.562,1.617H141.105z"/>
			<path fill="#FFFFFF" d="M142.776,18.135h1.454c0.42-0.005,0.845-0.005,1.149,0.257c0.236,0.205,0.331,0.483,0.331,0.729
				c0,0.709-0.609,0.877-0.792,0.93c0.572,0.052,0.614,0.378,0.682,0.871c0.058,0.446,0.089,0.63,0.116,0.735
				c0.042,0.168,0.074,0.209,0.116,0.272h-0.898c-0.037-0.21-0.152-1.171-0.205-1.317c-0.073-0.215-0.273-0.215-0.409-0.215h-0.714
				v1.532h-0.83V18.135z M143.58,19.793h0.656c0.094,0,0.283,0,0.415-0.104c0.058-0.042,0.21-0.174,0.21-0.441
				c0-0.257-0.126-0.378-0.2-0.425c-0.126-0.089-0.278-0.089-0.535-0.089h-0.546V19.793z"/>
			<path fill="#FFFFFF" d="M146.264,18.145h0.814v1.632l1.27-1.643h0.95l-1.391,1.7l1.512,2.095h-1.013l-1.328-1.932v1.932h-0.814
				V18.145z"/>
			<path fill="#FFFFFF" d="M61.14,24.442h2.446v0.609h-1.632v0.934h1.522v0.631h-1.522v1.616H61.14V24.442z"/>
			<path fill="#FFFFFF" d="M64.836,24.448v2.31c0,0.414,0.032,0.934,0.824,0.934c0.131,0,0.525-0.005,0.735-0.33
				c0.079-0.116,0.121-0.263,0.121-0.646v-2.268h0.793v2.367c0,1.128-0.898,1.49-1.664,1.49c-0.378,0-1.071-0.084-1.428-0.656
				c-0.184-0.288-0.194-0.582-0.194-0.934v-2.268H64.836z"/>
			<path fill="#FFFFFF" d="M67.994,24.437h1.454c0.42-0.005,0.845-0.005,1.149,0.257c0.236,0.205,0.331,0.483,0.331,0.729
				c0,0.709-0.609,0.877-0.792,0.93c0.572,0.052,0.614,0.378,0.682,0.871c0.058,0.446,0.089,0.63,0.116,0.735
				c0.042,0.168,0.074,0.209,0.116,0.272h-0.898c-0.037-0.21-0.152-1.171-0.205-1.317C69.874,26.7,69.674,26.7,69.538,26.7h-0.714
				v1.532h-0.83V24.437z M68.797,26.096h0.656c0.094,0,0.283,0,0.415-0.104c0.058-0.042,0.21-0.174,0.21-0.441
				c0-0.257-0.126-0.378-0.2-0.425c-0.126-0.089-0.278-0.089-0.535-0.089h-0.546V26.096z"/>
			<path fill="#FFFFFF" d="M72.332,25.067h-1.128v-0.63h3.076v0.63h-1.128v3.165h-0.819V25.067z"/>
			<path fill="#FFFFFF" d="M74.638,24.437h0.813v1.517h1.433v-1.517h0.824v3.795h-0.813v-1.664h-1.444v1.664h-0.813V24.437z"/>
			<path fill="#FFFFFF" d="M78.415,24.437h2.54v0.619h-1.727v0.903h1.617v0.619h-1.617v1.023h1.785v0.63h-2.598V24.437z"/>
			<path fill="#FFFFFF" d="M81.498,24.437h1.454c0.42-0.005,0.845-0.005,1.149,0.257c0.236,0.205,0.331,0.483,0.331,0.729
				c0,0.709-0.609,0.877-0.792,0.93c0.572,0.052,0.614,0.378,0.683,0.871c0.058,0.446,0.089,0.63,0.115,0.735
				c0.042,0.168,0.073,0.209,0.115,0.272h-0.897c-0.037-0.21-0.152-1.171-0.205-1.317c-0.074-0.215-0.273-0.215-0.41-0.215h-0.714
				v1.532h-0.829V24.437z M82.301,26.096h0.656c0.095,0,0.284,0,0.415-0.104c0.058-0.042,0.21-0.174,0.21-0.441
				c0-0.257-0.126-0.378-0.2-0.425c-0.126-0.089-0.278-0.089-0.535-0.089h-0.546V26.096z"/>
			<path fill="#FFFFFF" d="M86.356,24.427h0.813v3.806h-0.813V24.427z"/>
			<path fill="#FFFFFF" d="M87.827,24.437h1.176l1.422,2.986v-2.986h0.756v3.795h-1.118l-1.47-3.149v3.149h-0.767V24.437z"/>
			<path fill="#FFFFFF" d="M91.845,24.442h2.446v0.609h-1.632v0.934h1.522v0.631h-1.522v1.616h-0.813V24.442z"/>
			<path fill="#FFFFFF" d="M96.393,24.358c0.404,0,0.96,0.095,1.333,0.515c0.404,0.462,0.483,1.055,0.483,1.428
				c0,0.551-0.168,1.139-0.478,1.485c-0.42,0.473-1.034,0.541-1.349,0.541c-0.499,0-0.997-0.158-1.344-0.52
				c-0.415-0.441-0.467-1.071-0.467-1.418C94.571,25.382,95.028,24.358,96.393,24.358z M95.705,27.424
				c0.116,0.157,0.31,0.305,0.688,0.305c0.331,0,0.556-0.115,0.708-0.352c0.126-0.189,0.257-0.483,0.257-1.087
				c0-0.184-0.016-0.446-0.095-0.677c-0.157-0.468-0.478-0.672-0.866-0.672c-0.305,0-0.546,0.126-0.698,0.32
				c-0.215,0.263-0.278,0.672-0.278,1.103C95.421,26.726,95.479,27.13,95.705,27.424z"/>
			<path fill="#FFFFFF" d="M98.699,24.437h1.454c0.42-0.005,0.845-0.005,1.149,0.257c0.236,0.205,0.331,0.483,0.331,0.729
				c0,0.709-0.609,0.877-0.792,0.93c0.572,0.052,0.614,0.378,0.682,0.871c0.058,0.446,0.089,0.63,0.116,0.735
				c0.042,0.168,0.074,0.209,0.116,0.272h-0.898c-0.037-0.21-0.152-1.171-0.205-1.317c-0.073-0.215-0.273-0.215-0.409-0.215h-0.714
				v1.532h-0.83V24.437z M99.502,26.096h0.656c0.094,0,0.283,0,0.415-0.104c0.058-0.042,0.21-0.174,0.21-0.441
				c0-0.257-0.126-0.378-0.2-0.425c-0.126-0.089-0.278-0.089-0.535-0.089h-0.546V26.096z"/>
			<path fill="#FFFFFF" d="M102.15,24.437h1.328l0.803,2.761l0.866-2.761h1.292v3.795h-0.809v-3.255l-1.034,3.255h-0.672
				l-1.013-3.255v3.255h-0.761V24.437z"/>
			<path fill="#FFFFFF" d="M109.103,24.437l1.317,3.795h-0.819l-0.273-0.819h-1.501l-0.283,0.819h-0.777l1.37-3.795H109.103z
				 M109.124,26.8l-0.524-1.617l-0.562,1.617H109.124z"/>
			<path fill="#FFFFFF" d="M111.683,25.067h-1.128v-0.63h3.076v0.63h-1.128v3.165h-0.819V25.067z"/>
			<path fill="#FFFFFF" d="M113.952,24.427h0.813v3.806h-0.813V24.427z"/>
			<path fill="#FFFFFF" d="M117.086,24.358c0.404,0,0.96,0.095,1.333,0.515c0.404,0.462,0.483,1.055,0.483,1.428
				c0,0.551-0.168,1.139-0.478,1.485c-0.42,0.473-1.034,0.541-1.349,0.541c-0.499,0-0.997-0.158-1.344-0.52
				c-0.415-0.441-0.467-1.071-0.467-1.418C115.265,25.382,115.722,24.358,117.086,24.358z M116.399,27.424
				c0.115,0.157,0.31,0.305,0.688,0.305c0.331,0,0.556-0.115,0.708-0.352c0.126-0.189,0.257-0.483,0.257-1.087
				c0-0.184-0.016-0.446-0.095-0.677c-0.157-0.468-0.478-0.672-0.866-0.672c-0.304,0-0.546,0.126-0.698,0.32
				c-0.215,0.263-0.278,0.672-0.278,1.103C116.115,26.726,116.173,27.13,116.399,27.424z"/>
			<path fill="#FFFFFF" d="M119.457,24.437h1.176l1.422,2.986v-2.986h0.756v3.795h-1.118l-1.47-3.149v3.149h-0.767V24.437z"/>
			<path fill="#FFFFFF" d="M126.882,24.437l1.317,3.795h-0.819l-0.273-0.819h-1.501l-0.283,0.819h-0.777l1.37-3.795H126.882z
				 M126.903,26.8l-0.524-1.617l-0.562,1.617H126.903z"/>
			<path fill="#FFFFFF" d="M129.21,24.453l0.992,2.977l0.997-2.977h0.803l-1.396,3.779h-0.887l-1.396-3.779H129.21z"/>
			<path fill="#FFFFFF" d="M134.361,24.437l1.318,3.795h-0.819l-0.273-0.819h-1.501l-0.283,0.819h-0.777l1.37-3.795H134.361z
				 M134.382,26.8l-0.525-1.617l-0.562,1.617H134.382z"/>
			<path fill="#FFFFFF" d="M136.054,24.427h0.813v3.806h-0.813V24.427z"/>
			<path fill="#FFFFFF" d="M137.509,24.442h0.829v3.145h1.627v0.646h-2.457V24.442z"/>
			<path fill="#FFFFFF" d="M142.376,24.437l1.317,3.795h-0.819l-0.273-0.819h-1.501l-0.283,0.819h-0.777l1.37-3.795H142.376z
				 M142.397,26.8l-0.524-1.617l-0.562,1.617H142.397z"/>
			<path fill="#FFFFFF" d="M144.111,24.442h1.417c0.221,0,0.646,0,0.935,0.179c0.347,0.221,0.425,0.588,0.425,0.809
				c0,0.142-0.026,0.388-0.221,0.566c-0.026,0.032-0.21,0.2-0.43,0.258v0.01c0.577,0.105,0.803,0.525,0.803,0.924
				c0,0.446-0.262,0.746-0.556,0.893c-0.294,0.152-0.808,0.152-0.956,0.152h-1.417V24.442z M144.888,25.985h0.567
				c0.231,0,0.651,0,0.651-0.487c0-0.473-0.399-0.473-0.667-0.473h-0.551V25.985z M144.888,27.624h0.551c0.373,0,0.792,0,0.792-0.51
				c0-0.541-0.488-0.541-0.876-0.541h-0.467V27.624z"/>
			<path fill="#FFFFFF" d="M147.567,24.442h0.829v3.145h1.627v0.646h-2.457V24.442z"/>
			<path fill="#FFFFFF" d="M150.46,24.437h2.541v0.619h-1.727v0.903h1.617v0.619h-1.617v1.023h1.785v0.63h-2.599V24.437z"/>
			<path fill="#FFFFFF" d="M155.828,24.448v2.31c0,0.414,0.032,0.934,0.824,0.934c0.131,0,0.525-0.005,0.735-0.33
				c0.079-0.116,0.121-0.263,0.121-0.646v-2.268h0.792v2.367c0,1.128-0.897,1.49-1.664,1.49c-0.378,0-1.071-0.084-1.428-0.656
				c-0.184-0.288-0.194-0.582-0.194-0.934v-2.268H155.828z"/>
			<path fill="#FFFFFF" d="M159.012,24.448h1.17c0.546,0,1.002,0.036,1.317,0.414c0.2,0.242,0.231,0.515,0.231,0.709
				c0,0.44-0.184,0.813-0.483,1.008c-0.278,0.179-0.661,0.179-0.861,0.179h-0.551v1.475h-0.824V24.448z M159.815,26.153h0.325
				c0.263,0,0.75,0,0.75-0.577c0-0.515-0.436-0.515-0.667-0.515h-0.409V26.153z"/>
			<path fill="#FFFFFF" d="M163.869,24.358c0.404,0,0.96,0.095,1.333,0.515c0.404,0.462,0.483,1.055,0.483,1.428
				c0,0.551-0.168,1.139-0.478,1.485c-0.42,0.473-1.034,0.541-1.349,0.541c-0.499,0-0.997-0.158-1.344-0.52
				c-0.415-0.441-0.467-1.071-0.467-1.418C162.047,25.382,162.504,24.358,163.869,24.358z M163.181,27.424
				c0.116,0.157,0.31,0.305,0.688,0.305c0.331,0,0.556-0.115,0.708-0.352c0.126-0.189,0.257-0.483,0.257-1.087
				c0-0.184-0.016-0.446-0.095-0.677c-0.157-0.468-0.478-0.672-0.866-0.672c-0.305,0-0.546,0.126-0.698,0.32
				c-0.215,0.263-0.278,0.672-0.278,1.103C162.898,26.726,162.956,27.13,163.181,27.424z"/>
			<path fill="#FFFFFF" d="M166.239,24.437h1.176l1.422,2.986v-2.986h0.756v3.795h-1.118l-1.47-3.149v3.149h-0.767V24.437z"/>
			<path fill="#FFFFFF" d="M171.617,24.437h1.454c0.42-0.005,0.845-0.005,1.149,0.257c0.236,0.205,0.331,0.483,0.331,0.729
				c0,0.709-0.609,0.877-0.792,0.93c0.572,0.052,0.614,0.378,0.682,0.871c0.058,0.446,0.089,0.63,0.116,0.735
				c0.042,0.168,0.074,0.209,0.116,0.272h-0.898c-0.037-0.21-0.152-1.171-0.205-1.317c-0.073-0.215-0.273-0.215-0.409-0.215h-0.714
				v1.532h-0.83V24.437z M172.42,26.096h0.656c0.094,0,0.283,0,0.415-0.104c0.058-0.042,0.21-0.174,0.21-0.441
				c0-0.257-0.126-0.378-0.2-0.425c-0.126-0.089-0.278-0.089-0.535-0.089h-0.546V26.096z"/>
			<path fill="#FFFFFF" d="M175.142,24.437h2.54v0.619h-1.727v0.903h1.617v0.619h-1.617v1.023h1.785v0.63h-2.598V24.437z"/>
			<path fill="#FFFFFF" d="M181.904,28.243c-0.236-0.006-0.688-0.011-0.935-0.011c-0.094,0-0.357,0.016-0.614,0.026
				c-0.257,0.016-0.509,0.031-0.599,0.031c-1.417,0-1.669-1.317-1.669-1.926c0-1.034,0.541-2,1.826-2
				c0.982,0,1.711,0.666,1.711,1.91c0,0.861-0.394,1.244-0.572,1.412c0.173-0.031,0.525-0.053,0.851-0.037V28.243z M179.857,27.702
				c0.798,0,0.945-0.829,0.945-1.438c0-0.54-0.121-0.798-0.236-0.971c-0.095-0.147-0.315-0.352-0.683-0.352
				c-0.714,0-0.955,0.683-0.955,1.375C178.928,26.852,179.085,27.702,179.857,27.702z"/>
			<path fill="#FFFFFF" d="M183.135,24.448v2.31c0,0.414,0.032,0.934,0.824,0.934c0.131,0,0.525-0.005,0.735-0.33
				c0.079-0.116,0.121-0.263,0.121-0.646v-2.268h0.793v2.367c0,1.128-0.898,1.49-1.664,1.49c-0.378,0-1.071-0.084-1.428-0.656
				c-0.184-0.288-0.194-0.582-0.194-0.934v-2.268H183.135z"/>
			<path fill="#FFFFFF" d="M186.366,24.437h2.541v0.619h-1.727v0.903h1.617v0.619h-1.617v1.023h1.785v0.63h-2.599V24.437z"/>
			<path fill="#FFFFFF" d="M190.147,27.02c0,0.179-0.011,0.72,0.688,0.72c0.441,0,0.719-0.21,0.719-0.53
				c0-0.336-0.236-0.394-0.719-0.509c-0.903-0.227-1.396-0.494-1.396-1.15c0-0.624,0.446-1.176,1.501-1.176
				c0.394,0,0.861,0.09,1.145,0.446c0.215,0.273,0.215,0.577,0.215,0.704h-0.782c-0.01-0.132-0.052-0.578-0.614-0.578
				c-0.378,0-0.625,0.205-0.625,0.515c0,0.352,0.278,0.415,0.824,0.551c0.656,0.158,1.302,0.336,1.302,1.076
				c0,0.683-0.567,1.233-1.617,1.233c-1.454,0-1.464-0.934-1.47-1.302H190.147z"/>
			<path fill="#FFFFFF" d="M193.787,25.067h-1.128v-0.63h3.076v0.63h-1.128v3.165h-0.819V25.067z"/>
			<path fill="#FFFFFF" d="M56.434,30.751h1.17c0.546,0,1.002,0.036,1.317,0.414c0.2,0.242,0.231,0.515,0.231,0.709
				c0,0.44-0.184,0.813-0.483,1.008c-0.278,0.179-0.661,0.179-0.861,0.179h-0.551v1.475h-0.824V30.751z M57.237,32.456h0.325
				c0.263,0,0.75,0,0.75-0.577c0-0.515-0.436-0.515-0.667-0.515h-0.409V32.456z"/>
			<path fill="#FFFFFF" d="M59.611,30.745h2.446v0.609h-1.632v0.934h1.522v0.631h-1.522v1.616h-0.813V30.745z"/>
			<path fill="#FFFFFF" d="M62.432,30.729h0.813v3.806h-0.813V30.729z"/>
			<path fill="#FFFFFF" d="M63.666,33.843l1.984-2.483l-1.864,0.016v-0.619h2.746v0.719l-1.979,2.468l2.021-0.032v0.625h-2.908
				V33.843z"/>
			<path fill="#FFFFFF" d="M67.07,30.74h2.54v0.619h-1.727v0.903H69.5v0.619h-1.617v1.023h1.785v0.63H67.07V30.74z"/>
			<path fill="#FFFFFF" d="M70.153,30.74h1.454c0.42-0.005,0.845-0.005,1.149,0.257c0.236,0.205,0.331,0.483,0.331,0.729
				c0,0.709-0.609,0.877-0.792,0.93c0.572,0.052,0.614,0.378,0.683,0.871c0.058,0.446,0.089,0.63,0.115,0.735
				c0.042,0.168,0.073,0.209,0.115,0.272H72.31c-0.037-0.21-0.152-1.171-0.205-1.317c-0.074-0.215-0.273-0.215-0.41-0.215h-0.714
				v1.532h-0.829V30.74z M70.956,32.398h0.656c0.095,0,0.284,0,0.415-0.104c0.058-0.042,0.21-0.174,0.21-0.441
				c0-0.257-0.126-0.378-0.2-0.425c-0.126-0.089-0.278-0.089-0.535-0.089h-0.546V32.398z"/>
			<path fill="#FFFFFF" d="M75.011,30.729h0.813v3.806h-0.813V30.729z"/>
			<path fill="#FFFFFF" d="M76.481,30.74h1.176l1.422,2.986V30.74h0.756v3.795h-1.118l-1.47-3.149v3.149h-0.766V30.74z"/>
			<path fill="#FFFFFF" d="M81.34,31.37h-1.128v-0.63h3.076v0.63h-1.128v3.165H81.34V31.37z"/>
			<path fill="#FFFFFF" d="M83.683,30.74h2.54v0.619h-1.727v0.903h1.617v0.619h-1.617v1.023h1.785v0.63h-2.598V30.74z"/>
			<path fill="#FFFFFF" d="M86.766,30.74h1.454c0.42-0.005,0.845-0.005,1.149,0.257c0.236,0.205,0.331,0.483,0.331,0.729
				c0,0.709-0.609,0.877-0.792,0.93c0.572,0.052,0.614,0.378,0.682,0.871c0.058,0.446,0.089,0.63,0.116,0.735
				c0.042,0.168,0.074,0.209,0.116,0.272h-0.898c-0.037-0.21-0.152-1.171-0.205-1.317c-0.073-0.215-0.273-0.215-0.409-0.215h-0.714
				v1.532h-0.83V30.74z M87.569,32.398h0.656c0.094,0,0.283,0,0.415-0.104c0.058-0.042,0.21-0.174,0.21-0.441
				c0-0.257-0.126-0.378-0.2-0.425c-0.126-0.089-0.278-0.089-0.535-0.089h-0.546V32.398z"/>
			<path fill="#FFFFFF" d="M90.28,30.74h1.176l1.422,2.986V30.74h0.756v3.795h-1.118l-1.47-3.149v3.149H90.28V30.74z"/>
			<path fill="#FFFFFF" d="M96.297,30.74l1.318,3.795h-0.819l-0.273-0.819h-1.501l-0.283,0.819h-0.777l1.37-3.795H96.297z
				 M96.319,33.103l-0.525-1.617l-0.562,1.617H96.319z"/>
			<path fill="#FFFFFF" d="M98.877,31.37h-1.129v-0.63h3.076v0.63h-1.128v3.165h-0.819V31.37z"/>
			<path fill="#FFFFFF" d="M101.147,30.729h0.813v3.806h-0.813V30.729z"/>
			<path fill="#FFFFFF" d="M104.281,30.661c0.404,0,0.96,0.095,1.333,0.515c0.404,0.462,0.483,1.055,0.483,1.428
				c0,0.551-0.168,1.139-0.478,1.485c-0.42,0.473-1.034,0.541-1.349,0.541c-0.499,0-0.997-0.158-1.344-0.52
				c-0.415-0.441-0.467-1.071-0.467-1.418C102.46,31.685,102.917,30.661,104.281,30.661z M103.593,33.727
				c0.116,0.157,0.31,0.305,0.688,0.305c0.331,0,0.556-0.115,0.708-0.352c0.126-0.189,0.257-0.483,0.257-1.087
				c0-0.184-0.016-0.446-0.095-0.677c-0.157-0.468-0.478-0.672-0.866-0.672c-0.305,0-0.546,0.126-0.698,0.32
				c-0.215,0.263-0.278,0.672-0.278,1.103C103.31,33.028,103.368,33.433,103.593,33.727z"/>
			<path fill="#FFFFFF" d="M106.651,30.74h1.176l1.422,2.986V30.74h0.756v3.795h-1.118l-1.47-3.149v3.149h-0.766V30.74z"/>
			<path fill="#FFFFFF" d="M112.669,30.74l1.317,3.795h-0.819l-0.273-0.819h-1.501l-0.283,0.819h-0.777l1.37-3.795H112.669z
				 M112.69,33.103l-0.524-1.617l-0.562,1.617H112.69z"/>
			<path fill="#FFFFFF" d="M114.409,30.745h0.829v3.145h1.627v0.646h-2.457V30.745z"/>
			<path fill="#FFFFFF" d="M120.821,31.979c-0.016-0.131-0.063-0.666-0.614-0.666c-0.604,0-0.855,0.63-0.855,1.412
				c0,0.226,0,1.302,0.792,1.302c0.341,0,0.667-0.216,0.683-0.72h0.855c-0.016,0.226-0.037,0.577-0.341,0.893
				c-0.336,0.347-0.761,0.425-1.107,0.425c-1.307,0-1.732-0.966-1.732-1.905c0-1.202,0.672-2,1.738-2
				c0.829,0,1.412,0.504,1.412,1.26H120.821z"/>
			<path fill="#FFFFFF" d="M123.815,30.661c0.404,0,0.96,0.095,1.333,0.515c0.404,0.462,0.483,1.055,0.483,1.428
				c0,0.551-0.168,1.139-0.478,1.485c-0.42,0.473-1.034,0.541-1.349,0.541c-0.499,0-0.997-0.158-1.344-0.52
				c-0.415-0.441-0.467-1.071-0.467-1.418C121.994,31.685,122.45,30.661,123.815,30.661z M123.127,33.727
				c0.115,0.157,0.31,0.305,0.688,0.305c0.331,0,0.556-0.115,0.708-0.352c0.126-0.189,0.257-0.483,0.257-1.087
				c0-0.184-0.016-0.446-0.095-0.677c-0.157-0.468-0.478-0.672-0.866-0.672c-0.304,0-0.546,0.126-0.698,0.32
				c-0.215,0.263-0.278,0.672-0.278,1.103C122.844,33.028,122.901,33.433,123.127,33.727z"/>
			<path fill="#FFFFFF" d="M126.122,30.74h1.454c0.42-0.005,0.845-0.005,1.149,0.257c0.236,0.205,0.331,0.483,0.331,0.729
				c0,0.709-0.609,0.877-0.792,0.93c0.572,0.052,0.614,0.378,0.683,0.871c0.058,0.446,0.089,0.63,0.115,0.735
				c0.042,0.168,0.073,0.209,0.115,0.272h-0.897c-0.037-0.21-0.152-1.171-0.205-1.317c-0.074-0.215-0.273-0.215-0.41-0.215h-0.714
				v1.532h-0.829V30.74z M126.925,32.398h0.656c0.095,0,0.284,0,0.415-0.104c0.058-0.042,0.21-0.174,0.21-0.441
				c0-0.257-0.126-0.378-0.2-0.425c-0.126-0.089-0.278-0.089-0.535-0.089h-0.546V32.398z"/>
			<path fill="#FFFFFF" d="M129.599,30.751h1.17c0.546,0,1.002,0.036,1.317,0.414c0.2,0.242,0.231,0.515,0.231,0.709
				c0,0.44-0.184,0.813-0.483,1.008c-0.278,0.179-0.661,0.179-0.861,0.179h-0.551v1.475h-0.824V30.751z M130.402,32.456h0.325
				c0.263,0,0.75,0,0.75-0.577c0-0.515-0.436-0.515-0.667-0.515h-0.409V32.456z"/>
			<path fill="#FFFFFF" d="M134.456,30.661c0.404,0,0.96,0.095,1.333,0.515c0.404,0.462,0.483,1.055,0.483,1.428
				c0,0.551-0.168,1.139-0.478,1.485c-0.42,0.473-1.034,0.541-1.349,0.541c-0.499,0-0.997-0.158-1.344-0.52
				c-0.415-0.441-0.467-1.071-0.467-1.418C132.634,31.685,133.091,30.661,134.456,30.661z M133.768,33.727
				c0.116,0.157,0.31,0.305,0.688,0.305c0.331,0,0.556-0.115,0.708-0.352c0.126-0.189,0.257-0.483,0.257-1.087
				c0-0.184-0.016-0.446-0.095-0.677c-0.157-0.468-0.478-0.672-0.866-0.672c-0.305,0-0.546,0.126-0.698,0.32
				c-0.215,0.263-0.278,0.672-0.278,1.103C133.485,33.028,133.543,33.433,133.768,33.727z"/>
			<path fill="#FFFFFF" d="M136.763,30.74h1.454c0.42-0.005,0.845-0.005,1.149,0.257c0.236,0.205,0.331,0.483,0.331,0.729
				c0,0.709-0.609,0.877-0.792,0.93c0.572,0.052,0.614,0.378,0.682,0.871c0.058,0.446,0.089,0.63,0.116,0.735
				c0.042,0.168,0.074,0.209,0.116,0.272h-0.898c-0.037-0.21-0.152-1.171-0.205-1.317c-0.073-0.215-0.273-0.215-0.409-0.215h-0.714
				v1.532h-0.83V30.74z M137.566,32.398h0.656c0.094,0,0.283,0,0.415-0.104c0.058-0.042,0.21-0.174,0.21-0.441
				c0-0.257-0.126-0.378-0.2-0.425c-0.126-0.089-0.278-0.089-0.535-0.089h-0.546V32.398z"/>
			<path fill="#FFFFFF" d="M142.261,30.74l1.317,3.795h-0.819l-0.273-0.819h-1.501l-0.283,0.819h-0.777l1.37-3.795H142.261z
				 M142.282,33.103l-0.524-1.617l-0.562,1.617H142.282z"/>
			<path fill="#FFFFFF" d="M144.84,31.37h-1.129v-0.63h3.076v0.63h-1.128v3.165h-0.819V31.37z"/>
			<path fill="#FFFFFF" d="M147.11,30.729h0.813v3.806h-0.813V30.729z"/>
			<path fill="#FFFFFF" d="M150.245,30.661c0.404,0,0.96,0.095,1.333,0.515c0.404,0.462,0.483,1.055,0.483,1.428
				c0,0.551-0.168,1.139-0.478,1.485c-0.42,0.473-1.034,0.541-1.349,0.541c-0.499,0-0.997-0.158-1.344-0.52
				c-0.415-0.441-0.467-1.071-0.467-1.418C148.423,31.685,148.88,30.661,150.245,30.661z M149.557,33.727
				c0.115,0.157,0.31,0.305,0.688,0.305c0.331,0,0.556-0.115,0.708-0.352c0.126-0.189,0.257-0.483,0.257-1.087
				c0-0.184-0.016-0.446-0.095-0.677c-0.157-0.468-0.478-0.672-0.866-0.672c-0.304,0-0.546,0.126-0.698,0.32
				c-0.215,0.263-0.278,0.672-0.278,1.103C149.273,33.028,149.331,33.433,149.557,33.727z"/>
			<path fill="#FFFFFF" d="M152.614,30.74h1.176l1.422,2.986V30.74h0.756v3.795h-1.118l-1.47-3.149v3.149h-0.766V30.74z"/>
			<path fill="#FFFFFF" d="M157.909,32.851h1.302v0.593h-1.302V32.851z"/>
			<path fill="#FFFFFF" d="M161.124,30.751l1.254,0.005c0.21,0,0.85,0.005,1.307,0.341c0.478,0.352,0.646,0.95,0.646,1.491
				c0,1.165-0.625,1.774-1.344,1.905c-0.142,0.026-0.299,0.042-0.683,0.042h-1.181V30.751z M161.948,33.91
				c0.089,0.006,0.226,0.011,0.32,0.011c0.347,0,0.646-0.026,0.882-0.263c0.32-0.319,0.341-0.887,0.341-1.07
				c0-0.535-0.184-1.029-0.693-1.171c-0.168-0.047-0.383-0.073-0.85-0.053V33.91z"/>
			<path fill="#FFFFFF" d="M165.713,30.751v2.31c0,0.414,0.032,0.934,0.824,0.934c0.131,0,0.525-0.005,0.735-0.33
				c0.079-0.116,0.121-0.263,0.121-0.646v-2.268h0.792v2.367c0,1.128-0.897,1.49-1.664,1.49c-0.378,0-1.071-0.084-1.428-0.656
				c-0.184-0.288-0.194-0.582-0.194-0.934v-2.268H165.713z"/>
			<path fill="#FFFFFF" d="M168.913,30.745h1.417c0.221,0,0.646,0,0.935,0.179c0.347,0.221,0.425,0.588,0.425,0.809
				c0,0.142-0.026,0.388-0.221,0.566c-0.026,0.032-0.21,0.2-0.43,0.258v0.01c0.577,0.105,0.803,0.525,0.803,0.924
				c0,0.446-0.262,0.746-0.556,0.893c-0.294,0.152-0.808,0.152-0.956,0.152h-1.417V30.745z M169.689,32.288h0.567
				c0.231,0,0.651,0,0.651-0.487c0-0.473-0.399-0.473-0.667-0.473h-0.551V32.288z M169.689,33.927h0.551c0.373,0,0.792,0,0.792-0.51
				c0-0.541-0.488-0.541-0.876-0.541h-0.467V33.927z"/>
			<path fill="#FFFFFF" d="M174.369,30.74l1.317,3.795h-0.819l-0.273-0.819h-1.501l-0.283,0.819h-0.777l1.37-3.795H174.369z
				 M174.389,33.103l-0.524-1.617l-0.562,1.617H174.389z"/>
			<path fill="#FFFFFF" d="M176.061,30.729h0.813v3.806h-0.813V30.729z"/>
			<path fill="#FFFFFF" d="M178.918,30.745h1.417c0.22,0,0.646,0,0.934,0.179c0.346,0.221,0.425,0.588,0.425,0.809
				c0,0.142-0.026,0.388-0.221,0.566c-0.026,0.032-0.21,0.2-0.43,0.258v0.01c0.577,0.105,0.803,0.525,0.803,0.924
				c0,0.446-0.263,0.746-0.557,0.893c-0.294,0.152-0.809,0.152-0.955,0.152h-1.417V30.745z M179.695,32.288h0.567
				c0.231,0,0.651,0,0.651-0.487c0-0.473-0.399-0.473-0.667-0.473h-0.551V32.288z M179.695,33.927h0.551c0.373,0,0.792,0,0.792-0.51
				c0-0.541-0.488-0.541-0.876-0.541h-0.467V33.927z"/>
			<path fill="#FFFFFF" d="M182.327,30.74h1.454c0.42-0.005,0.845-0.005,1.149,0.257c0.236,0.205,0.331,0.483,0.331,0.729
				c0,0.709-0.609,0.877-0.792,0.93c0.572,0.052,0.614,0.378,0.682,0.871c0.058,0.446,0.089,0.63,0.116,0.735
				c0.042,0.168,0.074,0.209,0.116,0.272h-0.898c-0.037-0.21-0.152-1.171-0.205-1.317c-0.073-0.215-0.273-0.215-0.409-0.215h-0.714
				v1.532h-0.83V30.74z M183.13,32.398h0.656c0.094,0,0.283,0,0.415-0.104c0.058-0.042,0.21-0.174,0.21-0.441
				c0-0.257-0.126-0.378-0.2-0.425c-0.126-0.089-0.278-0.089-0.535-0.089h-0.546V32.398z"/>
			<path fill="#FFFFFF" d="M187.825,30.74l1.318,3.795h-0.819l-0.273-0.819h-1.501l-0.283,0.819h-0.777l1.37-3.795H187.825z
				 M187.846,33.103l-0.525-1.617l-0.562,1.617H187.846z"/>
			<path fill="#FFFFFF" d="M189.581,30.74h1.176l1.422,2.986V30.74h0.756v3.795h-1.118l-1.47-3.149v3.149h-0.767V30.74z"/>
			<path fill="#FFFFFF" d="M195.735,31.979c-0.016-0.131-0.063-0.666-0.614-0.666c-0.604,0-0.855,0.63-0.855,1.412
				c0,0.226,0,1.302,0.792,1.302c0.341,0,0.667-0.216,0.683-0.72h0.855c-0.016,0.226-0.037,0.577-0.341,0.893
				c-0.336,0.347-0.761,0.425-1.107,0.425c-1.307,0-1.732-0.966-1.732-1.905c0-1.202,0.672-2,1.738-2
				c0.829,0,1.412,0.504,1.412,1.26H195.735z"/>
			<path fill="#FFFFFF" d="M197.039,30.74h0.813v1.517h1.433V30.74h0.824v3.795h-0.813v-1.664h-1.444v1.664h-0.813V30.74z"/>
			<path fill="#FFFFFF" d="M74.452,39.625c0,0.179-0.011,0.72,0.688,0.72c0.441,0,0.719-0.21,0.719-0.53
				c0-0.336-0.236-0.394-0.719-0.509c-0.903-0.227-1.396-0.494-1.396-1.15c0-0.624,0.446-1.176,1.501-1.176
				c0.394,0,0.861,0.09,1.144,0.446c0.215,0.273,0.215,0.577,0.215,0.704h-0.782c-0.011-0.132-0.053-0.578-0.614-0.578
				c-0.378,0-0.625,0.205-0.625,0.515c0,0.352,0.278,0.415,0.824,0.551c0.656,0.158,1.302,0.336,1.302,1.076
				c0,0.683-0.567,1.233-1.617,1.233c-1.454,0-1.464-0.934-1.47-1.302H74.452z"/>
			<path fill="#FFFFFF" d="M77.241,37.043h0.813v1.517h1.433v-1.517h0.824v3.795h-0.813v-1.664h-1.444v1.664h-0.813V37.043z"/>
			<path fill="#FFFFFF" d="M81.017,37.043h2.541v0.619h-1.727v0.903h1.617v0.619h-1.617v1.023h1.785v0.63h-2.599V37.043z"/>
			<path fill="#FFFFFF" d="M84.101,37.032h0.813v3.806h-0.813V37.032z"/>
			<path fill="#FFFFFF" d="M85.545,37.054h0.814v1.632l1.27-1.643h0.95l-1.391,1.7l1.512,2.095h-1.013l-1.328-1.932v1.932h-0.814
				V37.054z"/>
			<path fill="#FFFFFF" d="M88.996,37.043h0.813v1.517h1.433v-1.517h0.824v3.795h-0.813v-1.664h-1.444v1.664h-0.813V37.043z"/>
			<path fill="#FFFFFF" d="M93.933,40.145l1.984-2.483l-1.864,0.016v-0.619h2.746v0.719l-1.979,2.468l2.021-0.032v0.625h-2.908
				V40.145z"/>
			<path fill="#FFFFFF" d="M99.31,37.043l1.317,3.795h-0.819l-0.273-0.819h-1.501l-0.283,0.819h-0.777l1.37-3.795H99.31z
				 M99.331,39.405l-0.524-1.617l-0.562,1.617H99.331z"/>
			<path fill="#FFFFFF" d="M101.722,37.059l0.782,1.727l0.798-1.727h0.835l-1.281,2.398v1.381h-0.803v-1.391l-1.281-2.389H101.722z"
				/>
			<path fill="#FFFFFF" d="M104.527,37.043h2.54v0.619h-1.727v0.903h1.617v0.619h-1.617v1.023h1.785v0.63h-2.598V37.043z"/>
			<path fill="#FFFFFF" d="M107.636,37.054l1.254,0.005c0.21,0,0.85,0.005,1.307,0.341c0.478,0.352,0.646,0.95,0.646,1.491
				c0,1.165-0.625,1.774-1.344,1.905c-0.142,0.026-0.299,0.042-0.683,0.042h-1.181V37.054z M108.46,40.213
				c0.089,0.006,0.226,0.011,0.32,0.011c0.347,0,0.646-0.026,0.882-0.263c0.32-0.319,0.341-0.887,0.341-1.07
				c0-0.535-0.184-1.029-0.693-1.171c-0.168-0.047-0.383-0.073-0.85-0.053V40.213z"/>
			<path fill="#FFFFFF" d="M112.757,37.043h1.454c0.42-0.005,0.845-0.005,1.149,0.257c0.236,0.205,0.331,0.483,0.331,0.729
				c0,0.709-0.609,0.877-0.792,0.93c0.572,0.052,0.614,0.378,0.683,0.871c0.058,0.446,0.089,0.63,0.115,0.735
				c0.042,0.168,0.073,0.209,0.115,0.272h-0.897c-0.037-0.21-0.152-1.171-0.205-1.317c-0.074-0.215-0.273-0.215-0.41-0.215h-0.714
				v1.532h-0.829V37.043z M113.561,38.701h0.656c0.095,0,0.284,0,0.415-0.104c0.058-0.042,0.21-0.174,0.21-0.441
				c0-0.257-0.126-0.378-0.2-0.425c-0.126-0.089-0.278-0.089-0.535-0.089h-0.546V38.701z"/>
			<path fill="#FFFFFF" d="M117.935,36.964c0.404,0,0.96,0.095,1.333,0.515c0.404,0.462,0.483,1.055,0.483,1.428
				c0,0.551-0.168,1.139-0.478,1.485c-0.42,0.473-1.034,0.541-1.349,0.541c-0.499,0-0.997-0.158-1.344-0.52
				c-0.415-0.441-0.467-1.071-0.467-1.418C116.114,37.987,116.57,36.964,117.935,36.964z M117.248,40.029
				c0.115,0.157,0.31,0.305,0.688,0.305c0.331,0,0.556-0.115,0.708-0.352c0.126-0.189,0.257-0.483,0.257-1.087
				c0-0.184-0.016-0.446-0.095-0.677c-0.157-0.468-0.478-0.672-0.866-0.672c-0.304,0-0.546,0.126-0.698,0.32
				c-0.215,0.263-0.278,0.672-0.278,1.103C116.964,39.331,117.022,39.735,117.248,40.029z"/>
			<path fill="#FFFFFF" d="M122.289,37.043l1.318,3.795h-0.819l-0.273-0.819h-1.501l-0.283,0.819h-0.777l1.37-3.795H122.289z
				 M122.31,39.405l-0.525-1.617l-0.562,1.617H122.31z"/>
			<path fill="#FFFFFF" d="M124.008,37.054l1.254,0.005c0.21,0,0.851,0.005,1.307,0.341c0.478,0.352,0.646,0.95,0.646,1.491
				c0,1.165-0.625,1.774-1.344,1.905c-0.142,0.026-0.299,0.042-0.682,0.042h-1.181V37.054z M124.832,40.213
				c0.089,0.006,0.226,0.011,0.32,0.011c0.347,0,0.646-0.026,0.882-0.263c0.32-0.319,0.341-0.887,0.341-1.07
				c0-0.535-0.184-1.029-0.693-1.171c-0.168-0.047-0.383-0.073-0.851-0.053V40.213z"/>
			<path fill="#FFFFFF" d="M128.718,40.14l-0.625,1.291h-0.541l0.389-1.291H128.718z"/>
			<path fill="#FFFFFF" d="M132.584,37.043l1.317,3.795h-0.819l-0.273-0.819h-1.501l-0.283,0.819h-0.777l1.37-3.795H132.584z
				 M132.604,39.405l-0.524-1.617l-0.562,1.617H132.604z"/>
			<path fill="#FFFFFF" d="M134.323,37.048h0.829v3.145h1.627v0.646h-2.457V37.048z"/>
			<path fill="#FFFFFF" d="M138.551,37.043h1.328l0.803,2.761l0.866-2.761h1.292v3.795h-0.809v-3.255l-1.034,3.255h-0.672
				l-1.013-3.255v3.255h-0.761V37.043z"/>
			<path fill="#FFFFFF" d="M145.184,36.964c0.404,0,0.96,0.095,1.333,0.515c0.404,0.462,0.483,1.055,0.483,1.428
				c0,0.551-0.168,1.139-0.478,1.485c-0.42,0.473-1.034,0.541-1.349,0.541c-0.499,0-0.997-0.158-1.344-0.52
				c-0.415-0.441-0.467-1.071-0.467-1.418C143.363,37.987,143.819,36.964,145.184,36.964z M144.497,40.029
				c0.115,0.157,0.31,0.305,0.688,0.305c0.331,0,0.556-0.115,0.708-0.352c0.126-0.189,0.257-0.483,0.257-1.087
				c0-0.184-0.016-0.446-0.095-0.677c-0.157-0.468-0.478-0.672-0.866-0.672c-0.304,0-0.546,0.126-0.698,0.32
				c-0.215,0.263-0.278,0.672-0.278,1.103C144.213,39.331,144.271,39.735,144.497,40.029z"/>
			<path fill="#FFFFFF" d="M149.218,36.964c0.404,0,0.96,0.095,1.333,0.515c0.404,0.462,0.483,1.055,0.483,1.428
				c0,0.551-0.168,1.139-0.478,1.485c-0.42,0.473-1.034,0.541-1.349,0.541c-0.499,0-0.997-0.158-1.344-0.52
				c-0.415-0.441-0.467-1.071-0.467-1.418C147.396,37.987,147.853,36.964,149.218,36.964z M148.53,40.029
				c0.116,0.157,0.31,0.305,0.688,0.305c0.331,0,0.556-0.115,0.708-0.352c0.126-0.189,0.257-0.483,0.257-1.087
				c0-0.184-0.016-0.446-0.095-0.677c-0.157-0.468-0.478-0.672-0.866-0.672c-0.305,0-0.546,0.126-0.698,0.32
				c-0.215,0.263-0.278,0.672-0.278,1.103C148.247,39.331,148.304,39.735,148.53,40.029z"/>
			<path fill="#FFFFFF" d="M152.223,39.625c0,0.179-0.011,0.72,0.688,0.72c0.441,0,0.719-0.21,0.719-0.53
				c0-0.336-0.236-0.394-0.719-0.509c-0.903-0.227-1.396-0.494-1.396-1.15c0-0.624,0.446-1.176,1.501-1.176
				c0.394,0,0.861,0.09,1.145,0.446c0.215,0.273,0.215,0.577,0.215,0.704h-0.782c-0.01-0.132-0.052-0.578-0.614-0.578
				c-0.378,0-0.625,0.205-0.625,0.515c0,0.352,0.278,0.415,0.824,0.551c0.656,0.158,1.302,0.336,1.302,1.076
				c0,0.683-0.567,1.233-1.617,1.233c-1.454,0-1.464-0.934-1.47-1.302H152.223z"/>
			<path fill="#FFFFFF" d="M157.023,37.043l1.317,3.795h-0.819l-0.273-0.819h-1.501l-0.283,0.819h-0.777l1.37-3.795H157.023z
				 M157.043,39.405l-0.524-1.617l-0.562,1.617H157.043z"/>
			<path fill="#FFFFFF" d="M161.01,37.673h-1.128v-0.63h3.076v0.63h-1.128v3.165h-0.819V37.673z"/>
			<path fill="#FFFFFF" d="M165.006,36.964c0.404,0,0.96,0.095,1.333,0.515c0.404,0.462,0.483,1.055,0.483,1.428
				c0,0.551-0.168,1.139-0.478,1.485c-0.42,0.473-1.034,0.541-1.349,0.541c-0.499,0-0.997-0.158-1.344-0.52
				c-0.415-0.441-0.467-1.071-0.467-1.418C163.185,37.987,163.642,36.964,165.006,36.964z M164.319,40.029
				c0.115,0.157,0.31,0.305,0.688,0.305c0.331,0,0.556-0.115,0.708-0.352c0.126-0.189,0.257-0.483,0.257-1.087
				c0-0.184-0.016-0.446-0.095-0.677c-0.157-0.468-0.478-0.672-0.866-0.672c-0.304,0-0.546,0.126-0.698,0.32
				c-0.215,0.263-0.278,0.672-0.278,1.103C164.035,39.331,164.093,39.735,164.319,40.029z"/>
			<path fill="#FFFFFF" d="M167.917,37.059l0.588,2.84l0.74-2.84h0.918l0.667,2.84l0.614-2.84h0.777l-0.966,3.79h-0.903
				l-0.688-2.897l-0.74,2.897h-0.924l-0.924-3.79H167.917z"/>
			<path fill="#FFFFFF" d="M172.586,37.043h2.541v0.619H173.4v0.903h1.617v0.619H173.4v1.023h1.785v0.63h-2.599V37.043z"/>
			<path fill="#FFFFFF" d="M175.669,37.043h1.454c0.42-0.005,0.845-0.005,1.149,0.257c0.236,0.205,0.331,0.483,0.331,0.729
				c0,0.709-0.609,0.877-0.792,0.93c0.572,0.052,0.614,0.378,0.683,0.871c0.058,0.446,0.089,0.63,0.115,0.735
				c0.042,0.168,0.073,0.209,0.115,0.272h-0.897c-0.037-0.21-0.152-1.171-0.205-1.317c-0.074-0.215-0.273-0.215-0.41-0.215h-0.714
				v1.532h-0.829V37.043z M176.473,38.701h0.656c0.095,0,0.284,0,0.415-0.104c0.058-0.042,0.21-0.174,0.21-0.441
				c0-0.257-0.126-0.378-0.2-0.425c-0.126-0.089-0.278-0.089-0.535-0.089h-0.546V38.701z"/>
			<path fill="#FFFFFF" d="M180.344,40.098l0.95-0.866c0.168-0.152,0.356-0.32,0.551-0.557c0.205-0.246,0.252-0.361,0.252-0.529
				c0-0.278-0.163-0.468-0.436-0.468c-0.42,0-0.457,0.431-0.462,0.536h-0.803c0-0.147,0-0.42,0.215-0.688
				c0.21-0.262,0.599-0.398,1.044-0.398c0.798,0,1.239,0.431,1.239,0.997c0,0.378-0.147,0.866-1.732,2.142
				c0.53-0.011,0.593-0.016,1.008-0.021c0.562-0.011,0.625-0.011,0.745-0.016v0.608h-2.572V40.098z"/>
			<path fill="#FFFFFF" d="M91.535,43.357h1.17c0.546,0,1.002,0.036,1.317,0.414c0.2,0.241,0.231,0.515,0.231,0.709
				c0,0.44-0.184,0.813-0.483,1.008c-0.278,0.179-0.661,0.179-0.861,0.179h-0.551v1.475h-0.824V43.357z M92.338,45.063h0.325
				c0.263,0,0.75,0,0.75-0.578c0-0.514-0.436-0.514-0.667-0.514h-0.409V45.063z"/>
			<path fill="#FFFFFF" d="M94.739,46.443h0.667v0.698h-0.667V46.443z"/>
			<path fill="#FFFFFF" d="M99.208,43.268c0.404,0,0.96,0.095,1.333,0.515c0.404,0.462,0.483,1.055,0.483,1.428
				c0,0.551-0.168,1.139-0.478,1.485c-0.42,0.473-1.034,0.541-1.349,0.541c-0.499,0-0.997-0.157-1.344-0.52
				c-0.415-0.441-0.467-1.071-0.467-1.418C97.386,44.291,97.843,43.268,99.208,43.268z M98.52,46.333
				c0.116,0.158,0.31,0.305,0.688,0.305c0.331,0,0.556-0.115,0.708-0.352c0.126-0.189,0.257-0.483,0.257-1.087
				c0-0.184-0.016-0.446-0.095-0.677c-0.157-0.467-0.478-0.672-0.866-0.672c-0.305,0-0.546,0.126-0.698,0.32
				c-0.215,0.262-0.278,0.672-0.278,1.102C98.237,45.635,98.294,46.039,98.52,46.333z"/>
			<path fill="#FFFFFF" d="M101.588,46.443h0.667v0.698h-0.667V46.443z"/>
			<path fill="#FFFFFF" d="M104.372,43.352h1.417c0.221,0,0.646,0,0.935,0.179c0.347,0.221,0.425,0.588,0.425,0.809
				c0,0.142-0.026,0.389-0.221,0.566c-0.026,0.031-0.21,0.199-0.43,0.258v0.01c0.577,0.105,0.803,0.525,0.803,0.924
				c0,0.446-0.262,0.746-0.556,0.893c-0.294,0.152-0.808,0.152-0.956,0.152h-1.417V43.352z M105.148,44.895h0.567
				c0.231,0,0.651,0,0.651-0.488c0-0.473-0.399-0.473-0.667-0.473h-0.551V44.895z M105.148,46.532h0.551
				c0.373,0,0.792,0,0.792-0.509c0-0.54-0.488-0.54-0.876-0.54h-0.467V46.532z"/>
			<path fill="#FFFFFF" d="M109.508,43.268c0.404,0,0.96,0.095,1.333,0.515c0.404,0.462,0.483,1.055,0.483,1.428
				c0,0.551-0.168,1.139-0.478,1.485c-0.42,0.473-1.034,0.541-1.349,0.541c-0.499,0-0.997-0.157-1.344-0.52
				c-0.415-0.441-0.467-1.071-0.467-1.418C107.686,44.291,108.143,43.268,109.508,43.268z M108.82,46.333
				c0.116,0.158,0.31,0.305,0.688,0.305c0.331,0,0.556-0.115,0.708-0.352c0.126-0.189,0.257-0.483,0.257-1.087
				c0-0.184-0.016-0.446-0.095-0.677c-0.157-0.467-0.478-0.672-0.866-0.672c-0.305,0-0.546,0.126-0.698,0.32
				c-0.215,0.262-0.278,0.672-0.278,1.102C108.537,45.635,108.594,46.039,108.82,46.333z"/>
			<path fill="#FFFFFF" d="M112.66,43.347l0.766,1.291l0.819-1.291h0.872l-1.25,1.826l1.323,1.969h-0.997l-0.845-1.428l-0.908,1.428
				h-0.871l1.333-1.963l-1.244-1.832H112.66z"/>
			<path fill="#FFFFFF" d="M115.638,44.491h0.661v0.708h-0.661V44.491z M115.638,46.438h0.661v0.703h-0.661V46.438z"/>
			<path fill="#FFFFFF" d="M118.186,46.401l0.95-0.866c0.168-0.152,0.357-0.32,0.551-0.556c0.205-0.247,0.252-0.362,0.252-0.53
				c0-0.278-0.163-0.468-0.436-0.468c-0.42,0-0.457,0.431-0.462,0.535h-0.803c0-0.146,0-0.42,0.215-0.688
				c0.21-0.262,0.598-0.398,1.044-0.398c0.798,0,1.239,0.431,1.239,0.997c0,0.378-0.147,0.866-1.732,2.142
				c0.53-0.011,0.593-0.016,1.008-0.021c0.562-0.011,0.625-0.011,0.745-0.017v0.609h-2.572V46.401z"/>
			<path fill="#FFFFFF" d="M121.888,46.249c0.021,0.221,0.163,0.357,0.383,0.357c0.546,0,0.588-0.567,0.572-1.071
				c-0.262,0.236-0.499,0.252-0.661,0.252c-0.897,0-1.128-0.714-1.128-1.149c0-0.683,0.488-1.202,1.296-1.202
				c1.26,0,1.291,1.197,1.291,1.785c0,1.548-0.524,1.989-1.412,1.989c-0.205,0-1.134,0-1.134-0.961H121.888z M122.828,44.585
				c0-0.32-0.168-0.556-0.488-0.556c-0.373,0-0.509,0.299-0.509,0.577c0,0.126,0.037,0.577,0.493,0.577
				C122.712,45.184,122.828,44.843,122.828,44.585z"/>
			<path fill="#FFFFFF" d="M124.73,46.239c-0.005,0.084,0.063,0.409,0.431,0.409c0.283,0,0.541-0.205,0.541-0.688
				c0-0.353-0.137-0.656-0.488-0.656s-0.441,0.283-0.467,0.367l-0.761-0.021l0.084-2.168h2.22v0.598h-1.527l-0.047,0.908
				c0.116-0.1,0.289-0.262,0.693-0.262c0.588,0,1.081,0.43,1.081,1.165c0,0.624-0.367,1.328-1.307,1.328
				c-0.383,0-0.771-0.101-1.023-0.399c-0.184-0.221-0.2-0.446-0.205-0.582H124.73z"/>
			<path fill="#FFFFFF" d="M127.597,46.239c-0.005,0.084,0.063,0.409,0.431,0.409c0.283,0,0.541-0.205,0.541-0.688
				c0-0.353-0.136-0.656-0.488-0.656c-0.352,0-0.441,0.283-0.467,0.367l-0.761-0.021l0.084-2.168h2.22v0.598h-1.527l-0.047,0.908
				c0.115-0.1,0.289-0.262,0.693-0.262c0.588,0,1.082,0.43,1.082,1.165c0,0.624-0.368,1.328-1.307,1.328
				c-0.383,0-0.772-0.101-1.024-0.399c-0.184-0.221-0.199-0.446-0.205-0.582H127.597z"/>
			<path fill="#FFFFFF" d="M130.439,46.145c0.005,0.115,0.037,0.488,0.472,0.488c0.294,0,0.472-0.216,0.472-0.499
				c0-0.541-0.52-0.541-0.902-0.541v-0.613c0.367-0.011,0.908-0.021,0.908-0.547c0-0.288-0.215-0.436-0.451-0.436
				c-0.226,0-0.446,0.152-0.446,0.457h-0.803c0.016-0.163,0.032-0.394,0.215-0.619c0.242-0.294,0.63-0.404,1.018-0.404
				c0.935,0,1.234,0.599,1.234,0.997c0,0.614-0.541,0.782-0.704,0.829c0.116,0.037,0.268,0.084,0.436,0.227
				c0.257,0.215,0.299,0.482,0.299,0.655c0,0.62-0.567,1.082-1.328,1.082c-0.263,0-0.646-0.058-0.882-0.247
				c-0.326-0.268-0.336-0.683-0.336-0.829H130.439z"/>
			<path fill="#FFFFFF" d="M133.706,46.443l-0.625,1.291h-0.541l0.389-1.291H133.706z"/>
			<path fill="#FFFFFF" d="M135.55,43.357l1.254,0.005c0.21,0,0.851,0.005,1.307,0.341c0.478,0.353,0.646,0.95,0.646,1.491
				c0,1.165-0.625,1.774-1.344,1.905c-0.142,0.026-0.299,0.042-0.682,0.042h-1.181V43.357z M136.374,46.517
				c0.089,0.006,0.226,0.011,0.32,0.011c0.347,0,0.646-0.026,0.882-0.263c0.32-0.32,0.341-0.887,0.341-1.07
				c0-0.535-0.184-1.029-0.693-1.171c-0.168-0.047-0.383-0.073-0.851-0.052V46.517z"/>
			<path fill="#FFFFFF" d="M140.14,43.357v2.31c0,0.414,0.032,0.934,0.824,0.934c0.131,0,0.525-0.005,0.735-0.33
				c0.079-0.115,0.121-0.263,0.121-0.646v-2.268h0.792v2.367c0,1.128-0.897,1.49-1.664,1.49c-0.378,0-1.071-0.084-1.428-0.656
				c-0.184-0.288-0.194-0.582-0.194-0.934v-2.268H140.14z"/>
			<path fill="#FFFFFF" d="M143.339,43.352h1.417c0.22,0,0.646,0,0.934,0.179c0.346,0.221,0.425,0.588,0.425,0.809
				c0,0.142-0.026,0.389-0.221,0.566c-0.026,0.031-0.21,0.199-0.43,0.258v0.01c0.577,0.105,0.803,0.525,0.803,0.924
				c0,0.446-0.263,0.746-0.557,0.893c-0.294,0.152-0.809,0.152-0.955,0.152h-1.417V43.352z M144.116,44.895h0.567
				c0.231,0,0.651,0,0.651-0.488c0-0.473-0.399-0.473-0.667-0.473h-0.551V44.895z M144.116,46.532h0.551
				c0.373,0,0.792,0,0.792-0.509c0-0.54-0.488-0.54-0.876-0.54h-0.467V46.532z"/>
			<path fill="#FFFFFF" d="M148.795,43.347l1.317,3.795h-0.819l-0.273-0.818h-1.501l-0.283,0.818h-0.777l1.37-3.795H148.795z
				 M148.816,45.709l-0.524-1.617l-0.562,1.617H148.816z"/>
			<path fill="#FFFFFF" d="M150.487,43.336h0.813v3.806h-0.813V43.336z"/>
			<path fill="#FFFFFF" d="M152.892,46.443l-0.625,1.291h-0.541l0.389-1.291H152.892z"/>
			<path fill="#FFFFFF" d="M155.587,43.357v2.31c0,0.414,0.032,0.934,0.824,0.934c0.131,0,0.525-0.005,0.735-0.33
				c0.079-0.115,0.121-0.263,0.121-0.646v-2.268h0.792v2.367c0,1.128-0.897,1.49-1.664,1.49c-0.378,0-1.071-0.084-1.428-0.656
				c-0.184-0.288-0.194-0.582-0.194-0.934v-2.268H155.587z"/>
			<path fill="#FFFFFF" d="M160.792,43.347l1.317,3.795h-0.819l-0.273-0.818h-1.501l-0.283,0.818h-0.777l1.37-3.795H160.792z
				 M160.812,45.709l-0.524-1.617l-0.562,1.617H160.812z"/>
			<path fill="#FFFFFF" d="M162.557,43.347h2.541v0.619h-1.727v0.903h1.617v0.619h-1.617v1.023h1.785v0.63h-2.599V43.347z"/>
			<path fill="#FFFFFF" d="M85.757,50.279h-1.128v-0.63h3.076v0.63h-1.128v3.165h-0.819V50.279z"/>
			<path fill="#FFFFFF" d="M88.1,49.649h2.54v0.619h-1.727v0.903h1.617v0.619h-1.617v1.023h1.785v0.63H88.1V49.649z"/>
			<path fill="#FFFFFF" d="M91.231,49.654h0.829v3.145h1.627v0.646h-2.457V49.654z"/>
			<path fill="#FFFFFF" d="M94.135,50.794h0.662v0.708h-0.662V50.794z M94.135,52.741h0.662v0.703h-0.662V52.741z"/>
			<path fill="#FFFFFF" d="M97.732,52.384h-1.044v-0.677h1.044v-1.061h0.703v1.061h1.044v0.677h-1.044v1.061h-0.703V52.384z"/>
			<path fill="#FFFFFF" d="M100.532,52.552c0.021,0.221,0.163,0.357,0.383,0.357c0.546,0,0.588-0.567,0.572-1.071
				c-0.262,0.236-0.499,0.252-0.661,0.252c-0.897,0-1.128-0.714-1.128-1.149c0-0.683,0.488-1.202,1.296-1.202
				c1.26,0,1.291,1.197,1.291,1.785c0,1.548-0.524,1.989-1.412,1.989c-0.205,0-1.134,0-1.134-0.961H100.532z M101.471,50.888
				c0-0.32-0.168-0.556-0.488-0.556c-0.373,0-0.509,0.299-0.509,0.577c0,0.126,0.037,0.577,0.493,0.577
				C101.356,51.486,101.471,51.145,101.471,50.888z"/>
			<path fill="#FFFFFF" d="M102.628,49.786h2.483v0.65l-1.26,3.008h-0.877l1.339-3.05h-1.685V49.786z"/>
			<path fill="#FFFFFF" d="M105.8,50.332c0.341-0.147,0.667-0.331,0.971-0.552h0.677v3.664h-0.793v-2.851
				c-0.152,0.116-0.457,0.305-0.855,0.468V50.332z"/>
			<path fill="#FFFFFF" d="M108.4,51.76h1.302v0.593H108.4V51.76z"/>
			<path fill="#FFFFFF" d="M109.95,52.646v-0.709l1.47-2.157h0.782l-0.005,2.263h0.499v0.604h-0.499v0.798h-0.777v-0.798H109.95z
				 M110.538,52.059h0.924v-0.966c0-0.047,0.005-0.31,0.011-0.404L110.538,52.059z"/>
			<path fill="#FFFFFF" d="M112.964,51.76h1.302v0.593h-1.302V51.76z"/>
			<path fill="#FFFFFF" d="M116.752,52.447c0.005,0.115,0.037,0.488,0.472,0.488c0.294,0,0.472-0.216,0.472-0.499
				c0-0.541-0.52-0.541-0.902-0.541v-0.613c0.367-0.011,0.908-0.021,0.908-0.547c0-0.288-0.215-0.436-0.451-0.436
				c-0.226,0-0.446,0.152-0.446,0.457h-0.803c0.016-0.163,0.032-0.394,0.215-0.619c0.242-0.294,0.63-0.404,1.018-0.404
				c0.935,0,1.234,0.599,1.234,0.997c0,0.614-0.541,0.782-0.704,0.829c0.116,0.037,0.268,0.084,0.436,0.227
				c0.257,0.215,0.299,0.482,0.299,0.655c0,0.62-0.567,1.082-1.328,1.082c-0.263,0-0.646-0.058-0.882-0.247
				c-0.326-0.268-0.336-0.683-0.336-0.829H116.752z"/>
			<path fill="#FFFFFF" d="M119.619,52.447c0.005,0.115,0.037,0.488,0.473,0.488c0.294,0,0.473-0.216,0.473-0.499
				c0-0.541-0.52-0.541-0.903-0.541v-0.613c0.368-0.011,0.908-0.021,0.908-0.547c0-0.288-0.215-0.436-0.451-0.436
				c-0.226,0-0.446,0.152-0.446,0.457h-0.803c0.016-0.163,0.032-0.394,0.215-0.619c0.241-0.294,0.63-0.404,1.019-0.404
				c0.934,0,1.233,0.599,1.233,0.997c0,0.614-0.541,0.782-0.704,0.829c0.116,0.037,0.268,0.084,0.436,0.227
				c0.257,0.215,0.299,0.482,0.299,0.655c0,0.62-0.567,1.082-1.328,1.082c-0.262,0-0.646-0.058-0.882-0.247
				c-0.325-0.268-0.336-0.683-0.336-0.829H119.619z"/>
			<path fill="#FFFFFF" d="M121.705,52.704l0.95-0.866c0.168-0.152,0.356-0.32,0.551-0.556c0.205-0.247,0.252-0.362,0.252-0.53
				c0-0.278-0.163-0.468-0.436-0.468c-0.42,0-0.457,0.431-0.462,0.535h-0.803c0-0.146,0-0.42,0.215-0.688
				c0.21-0.262,0.599-0.398,1.044-0.398c0.798,0,1.239,0.431,1.239,0.997c0,0.378-0.147,0.866-1.732,2.142
				c0.53-0.011,0.593-0.016,1.008-0.021c0.562-0.011,0.625-0.011,0.745-0.017v0.609h-2.572V52.704z"/>
			<path fill="#FFFFFF" d="M124.573,52.704l0.95-0.866c0.168-0.152,0.356-0.32,0.551-0.556c0.205-0.247,0.252-0.362,0.252-0.53
				c0-0.278-0.163-0.468-0.436-0.468c-0.42,0-0.457,0.431-0.462,0.535h-0.803c0-0.146,0-0.42,0.215-0.688
				c0.21-0.262,0.599-0.398,1.044-0.398c0.798,0,1.239,0.431,1.239,0.997c0,0.378-0.147,0.866-1.732,2.142
				c0.53-0.011,0.593-0.016,1.008-0.021c0.562-0.011,0.625-0.011,0.745-0.017v0.609h-2.572V52.704z"/>
			<path fill="#FFFFFF" d="M127.44,52.704l0.95-0.866c0.168-0.152,0.357-0.32,0.551-0.556c0.205-0.247,0.252-0.362,0.252-0.53
				c0-0.278-0.163-0.468-0.436-0.468c-0.42,0-0.457,0.431-0.462,0.535h-0.803c0-0.146,0-0.42,0.215-0.688
				c0.21-0.262,0.598-0.398,1.044-0.398c0.798,0,1.239,0.431,1.239,0.997c0,0.378-0.147,0.866-1.732,2.142
				c0.53-0.011,0.593-0.016,1.008-0.021c0.562-0.011,0.625-0.011,0.745-0.017v0.609h-2.572V52.704z"/>
			<path fill="#FFFFFF" d="M130.397,50.741c0-0.446,0.373-1.023,1.265-1.023c0.735,0,1.244,0.42,1.244,0.992
				c0,0.44-0.346,0.745-0.719,0.803c0.147,0.042,0.394,0.105,0.588,0.378c0.126,0.179,0.168,0.367,0.168,0.546
				c0,0.672-0.625,1.065-1.344,1.065c-0.745,0-1.26-0.478-1.26-1.065c0-0.283,0.11-0.488,0.268-0.641
				c0.179-0.173,0.347-0.226,0.483-0.272C130.906,51.466,130.397,51.308,130.397,50.741z M132.171,52.384
				c0-0.33-0.247-0.53-0.525-0.53c-0.304,0-0.525,0.231-0.525,0.541c0,0.373,0.278,0.546,0.53,0.546
				C131.872,52.94,132.171,52.794,132.171,52.384z M132.145,50.752c0-0.3-0.241-0.457-0.488-0.457c-0.262,0-0.478,0.179-0.478,0.457
				c0,0.257,0.184,0.472,0.473,0.472C131.919,51.224,132.145,51.046,132.145,50.752z"/>
			<path fill="#FFFFFF" d="M134.992,50.688c-0.016-0.263-0.189-0.362-0.383-0.362c-0.525,0-0.541,0.651-0.551,1.029
				c0.131-0.121,0.336-0.294,0.719-0.294c0.509,0,1.05,0.362,1.05,1.16c0,0.404-0.11,0.697-0.389,0.955
				c-0.241,0.226-0.525,0.341-0.935,0.341c-1.265,0-1.265-1.228-1.265-1.664c0-0.734,0.094-1.495,0.593-1.863
				c0.32-0.241,0.704-0.257,0.845-0.257c0.551,0,1.076,0.283,1.092,0.955H134.992z M135.055,52.273c0-0.403-0.21-0.63-0.472-0.63
				c-0.131,0-0.53,0.079-0.53,0.646c0,0.451,0.241,0.64,0.499,0.64C134.777,52.93,135.055,52.772,135.055,52.273z"/>
			<path fill="#FFFFFF" d="M137.225,52.746l-0.625,1.291h-0.541l0.388-1.291H137.225z"/>
			<path fill="#FFFFFF" d="M139.09,49.654h2.446v0.609h-1.632v0.935h1.522v0.629h-1.522v1.617h-0.813V49.654z"/>
			<path fill="#FFFFFF" d="M143.958,49.649l1.317,3.795h-0.819l-0.273-0.818h-1.501l-0.283,0.818h-0.777l1.37-3.795H143.958z
				 M143.978,52.012l-0.524-1.617l-0.562,1.617H143.978z"/>
			<path fill="#FFFFFF" d="M146.495,49.649l0.766,1.291l0.819-1.291h0.872l-1.25,1.826l1.323,1.969h-0.997l-0.845-1.428
				l-0.908,1.428h-0.871l1.333-1.963l-1.244-1.832H146.495z"/>
			<path fill="#FFFFFF" d="M149.474,50.794h0.662v0.708h-0.662V50.794z M149.474,52.741h0.662v0.703h-0.662V52.741z"/>
			<path fill="#FFFFFF" d="M152.803,52.447c0.005,0.115,0.037,0.488,0.473,0.488c0.294,0,0.473-0.216,0.473-0.499
				c0-0.541-0.52-0.541-0.903-0.541v-0.613c0.368-0.011,0.908-0.021,0.908-0.547c0-0.288-0.215-0.436-0.451-0.436
				c-0.226,0-0.446,0.152-0.446,0.457h-0.803c0.016-0.163,0.032-0.394,0.215-0.619c0.241-0.294,0.63-0.404,1.019-0.404
				c0.934,0,1.233,0.599,1.233,0.997c0,0.614-0.541,0.782-0.704,0.829c0.116,0.037,0.268,0.084,0.436,0.227
				c0.257,0.215,0.299,0.482,0.299,0.655c0,0.62-0.567,1.082-1.328,1.082c-0.262,0-0.646-0.058-0.882-0.247
				c-0.325-0.268-0.336-0.683-0.336-0.829H152.803z"/>
			<path fill="#FFFFFF" d="M155.671,52.447c0.005,0.115,0.037,0.488,0.472,0.488c0.294,0,0.472-0.216,0.472-0.499
				c0-0.541-0.52-0.541-0.902-0.541v-0.613c0.367-0.011,0.908-0.021,0.908-0.547c0-0.288-0.215-0.436-0.451-0.436
				c-0.226,0-0.446,0.152-0.446,0.457h-0.803c0.016-0.163,0.032-0.394,0.215-0.619c0.242-0.294,0.63-0.404,1.018-0.404
				c0.935,0,1.234,0.599,1.234,0.997c0,0.614-0.541,0.782-0.704,0.829c0.116,0.037,0.268,0.084,0.436,0.227
				c0.257,0.215,0.299,0.482,0.299,0.655c0,0.62-0.567,1.082-1.328,1.082c-0.263,0-0.646-0.058-0.882-0.247
				c-0.326-0.268-0.336-0.683-0.336-0.829H155.671z"/>
			<path fill="#FFFFFF" d="M157.757,52.704l0.95-0.866c0.168-0.152,0.357-0.32,0.551-0.556c0.205-0.247,0.252-0.362,0.252-0.53
				c0-0.278-0.163-0.468-0.436-0.468c-0.42,0-0.457,0.431-0.462,0.535h-0.803c0-0.146,0-0.42,0.215-0.688
				c0.21-0.262,0.598-0.398,1.044-0.398c0.798,0,1.239,0.431,1.239,0.997c0,0.378-0.147,0.866-1.732,2.142
				c0.53-0.011,0.593-0.016,1.008-0.021c0.562-0.011,0.625-0.011,0.745-0.017v0.609h-2.572V52.704z"/>
			<path fill="#FFFFFF" d="M161.968,49.728c0.514,0,0.819,0.278,0.955,0.483c0.189,0.278,0.331,0.635,0.331,1.323
				c0,0.85-0.194,1.968-1.297,1.968c-0.939,0-1.265-0.902-1.265-1.879C160.693,51.135,160.793,49.728,161.968,49.728z
				 M162.373,50.762c-0.021-0.1-0.11-0.425-0.399-0.425c-0.226,0-0.325,0.205-0.362,0.314c-0.121,0.373-0.121,0.935-0.121,1.024
				c0,0.624,0.094,1.207,0.488,1.207c0.42,0,0.488-0.714,0.488-1.218C162.467,51.434,162.44,51.004,162.373,50.762z"/>
			<path fill="#FFFFFF" d="M163.493,52.704l0.95-0.866c0.168-0.152,0.356-0.32,0.551-0.556c0.205-0.247,0.252-0.362,0.252-0.53
				c0-0.278-0.163-0.468-0.436-0.468c-0.42,0-0.457,0.431-0.462,0.535h-0.803c0-0.146,0-0.42,0.215-0.688
				c0.21-0.262,0.599-0.398,1.044-0.398c0.798,0,1.239,0.431,1.239,0.997c0,0.378-0.147,0.866-1.732,2.142
				c0.53-0.011,0.593-0.016,1.008-0.021c0.562-0.011,0.625-0.011,0.745-0.017v0.609h-2.572V52.704z"/>
			<path fill="#FFFFFF" d="M166.728,50.332c0.341-0.147,0.667-0.331,0.971-0.552h0.677v3.664h-0.792v-2.851
				c-0.152,0.116-0.457,0.305-0.856,0.468V50.332z"/>
			<path fill="#FFFFFF" d="M169.228,52.704l0.95-0.866c0.168-0.152,0.356-0.32,0.551-0.556c0.205-0.247,0.252-0.362,0.252-0.53
				c0-0.278-0.163-0.468-0.436-0.468c-0.42,0-0.457,0.431-0.462,0.535h-0.803c0-0.146,0-0.42,0.215-0.688
				c0.21-0.262,0.599-0.398,1.044-0.398c0.798,0,1.239,0.431,1.239,0.997c0,0.378-0.147,0.866-1.732,2.142
				c0.53-0.011,0.593-0.016,1.008-0.021c0.562-0.011,0.625-0.011,0.745-0.017v0.609h-2.572V52.704z"/>
		</g>
	</g>
</g>
</svg>
