<?xml version="1.0" encoding="utf-8"?>
<!-- Generator: Adobe Illustrator 17.0.0, SVG Export Plug-In . SVG Version: 6.00 Build 0)  -->
<!DOCTYPE svg PUBLIC "-//W3C//DTD SVG 1.1//EN" "http://www.w3.org/Graphics/SVG/1.1/DTD/svg11.dtd">
<svg version="1.1" id="Layer_1" xmlns="http://www.w3.org/2000/svg" xmlns:xlink="http://www.w3.org/1999/xlink" x="0px" y="0px"
	 width="593.028px" height="76.928px" viewBox="0 0 593.028 76.928" enable-background="new 0 0 593.028 76.928"
	 xml:space="preserve">
<g>
	<g>
		<g>
			<path fill="#00435B" d="M14.46,0h2.795l7.139,12.007V0h1.852v14.521h-2.574L16.29,2.192v12.328h-1.83V0z"/>
			<path fill="#00435B" d="M34.348,4.163c4.043,0,4.948,3.178,4.948,5.289c0,2.957-1.669,5.41-5.108,5.41
				c-3.338,0-4.967-2.313-4.967-5.269C29.221,7.1,30.388,4.163,34.348,4.163z M34.228,13.455c1.429,0,3.058-1.026,3.058-4.063
				c0-2.515-1.167-3.842-2.938-3.842c-1.206,0-3.156,0.765-3.156,3.922C31.192,11.544,32.077,13.455,34.228,13.455z"/>
			<path fill="#00435B" d="M52.227,4.163c4.043,0,4.947,3.178,4.947,5.289c0,2.957-1.669,5.41-5.107,5.41
				c-3.339,0-4.968-2.313-4.968-5.269C47.099,7.1,48.265,4.163,52.227,4.163z M52.106,13.455c1.429,0,3.058-1.026,3.058-4.063
				c0-2.515-1.167-3.842-2.937-3.842c-1.207,0-3.157,0.765-3.157,3.922C49.07,11.544,49.955,13.455,52.106,13.455z"/>
			<path fill="#00435B" d="M61.86,4.425v6.496c0,0.985,0.222,2.232,2.152,2.232c0.945,0,1.83-0.322,2.373-1.127
				c0.422-0.603,0.422-1.388,0.422-1.89V4.425h1.951v8.205c0,0.201,0.04,1.327,0.061,1.891h-1.971l-0.041-1.729
				c-0.361,0.704-1.045,1.83-3.217,1.83c-2.494,0-3.66-1.428-3.66-3.419V4.425H61.86z"/>
			<path fill="#00435B" d="M70.87,4.385h1.79V2.272l1.87-0.603v2.715h2.252v1.388H74.53v6.053c0,0.503,0,1.348,1.348,1.348
				c0.382,0,0.744-0.061,0.904-0.101v1.469c-0.342,0.06-0.885,0.12-1.568,0.12c-1.729,0-2.554-0.503-2.554-2.151V5.772h-1.79V4.385z
				"/>
			<path fill="#00435B" d="M84.867,7.663c-0.04-0.463-0.181-2.112-2.011-2.112c-2.615,0-2.615,3.037-2.615,3.801
				c0,2.072,0.504,4.003,2.514,4.003c1.609,0,2.152-1.207,2.193-2.192h1.91c-0.121,1.971-1.589,3.62-4.082,3.62
				c-0.685,0-2.253-0.141-3.318-1.308c-0.604-0.704-1.207-1.77-1.207-3.861c0-4.203,2.574-5.45,4.585-5.45
				c0.663,0,2.172,0.141,3.097,1.247c0.744,0.865,0.805,1.689,0.846,2.253H84.867z"/>
			<path fill="#00435B" d="M93.555,4.163c4.042,0,4.947,3.178,4.947,5.289c0,2.957-1.67,5.41-5.108,5.41
				c-3.339,0-4.968-2.313-4.968-5.269C88.427,7.1,89.593,4.163,93.555,4.163z M93.434,13.455c1.428,0,3.057-1.026,3.057-4.063
				c0-2.515-1.166-3.842-2.936-3.842c-1.207,0-3.158,0.765-3.158,3.922C90.397,11.544,91.282,13.455,93.434,13.455z"/>
			<path fill="#00435B" d="M101.438,5.772l-0.04-1.348h1.911v1.468c0.965-1.589,2.332-1.729,3.197-1.729
				c2.232,0,2.936,1.146,3.298,1.891c0.342-0.563,1.167-1.891,3.399-1.891c1.447,0,3.7,0.604,3.7,3.58v6.777h-1.911V8.045
				c0-0.885-0.16-1.268-0.342-1.528c-0.321-0.463-0.965-0.885-1.931-0.885c-1.227,0-1.89,0.703-2.151,1.065
				c-0.443,0.623-0.443,1.729-0.443,2.172v5.651h-1.91V7.844c0-1.247-0.724-2.212-2.212-2.212c-1.287,0-1.991,0.804-2.212,1.105
				c-0.423,0.583-0.443,1.408-0.443,2.052v5.731h-1.91V5.772z"/>
			<path fill="#00435B" d="M121.589,9.814c-0.039,2.092,0.825,3.641,2.896,3.641c1.227,0,2.213-0.644,2.373-2.092h1.891
				c-0.061,0.503-0.141,1.327-0.865,2.111c-0.441,0.503-1.447,1.348-3.479,1.348c-3.178,0-4.686-1.971-4.686-5.169
				c0-1.99,0.401-3.64,1.99-4.746c0.965-0.684,2.172-0.744,2.756-0.744c4.524,0,4.424,4.002,4.384,5.651H121.589z M126.919,8.487
				c0.02-0.966-0.161-2.977-2.494-2.977c-1.227,0-2.715,0.744-2.755,2.977H126.919z"/>
			<path fill="#00435B" d="M132.711,11.524c-0.021,0.764,0.382,1.83,2.212,1.83c0.785,0,1.367-0.142,1.77-0.644
				c0.201-0.262,0.322-0.604,0.322-0.945c0-0.985-0.704-1.167-2.213-1.509c-2.111-0.482-3.881-0.905-3.881-3.017
				c0-1.851,1.609-3.057,3.941-3.057c1.268,0,3.037,0.361,3.641,1.568c0.262,0.563,0.262,1.046,0.262,1.468h-1.932
				c0.061-1.528-1.267-1.648-1.95-1.648c-0.282,0-2.052,0-2.052,1.448c0,0.925,0.905,1.146,1.428,1.287
				c2.796,0.663,3.399,0.824,4.002,1.387c0.564,0.523,0.765,1.228,0.765,1.871c0,1.126-0.623,2.091-1.367,2.554
				c-0.885,0.543-1.95,0.684-2.997,0.684c-2.051,0-3.961-0.845-3.941-3.277H132.711z"/>
			<path fill="#00435B" d="M148.357,11.524c-0.021,0.764,0.382,1.83,2.212,1.83c0.785,0,1.367-0.142,1.77-0.644
				c0.201-0.262,0.322-0.604,0.322-0.945c0-0.985-0.704-1.167-2.213-1.509c-2.111-0.482-3.881-0.905-3.881-3.017
				c0-1.851,1.609-3.057,3.941-3.057c1.268,0,3.037,0.361,3.641,1.568c0.262,0.563,0.262,1.046,0.262,1.468h-1.932
				c0.061-1.528-1.267-1.648-1.95-1.648c-0.282,0-2.052,0-2.052,1.448c0,0.925,0.905,1.146,1.428,1.287
				c2.796,0.663,3.399,0.824,4.002,1.387c0.564,0.523,0.765,1.228,0.765,1.871c0,1.126-0.623,2.091-1.367,2.554
				c-0.885,0.543-1.95,0.684-2.997,0.684c-2.051,0-3.961-0.845-3.941-3.277H148.357z"/>
			<path fill="#00435B" d="M155.778,4.385h1.79V2.272l1.87-0.603v2.715h2.252v1.388h-2.252v6.053c0,0.503,0,1.348,1.348,1.348
				c0.382,0,0.744-0.061,0.904-0.101v1.469c-0.342,0.06-0.885,0.12-1.568,0.12c-1.729,0-2.554-0.503-2.554-2.151V5.772h-1.79V4.385z
				"/>
			<path fill="#00435B" d="M165.753,4.425v6.496c0,0.985,0.222,2.232,2.152,2.232c0.945,0,1.83-0.322,2.373-1.127
				c0.422-0.603,0.422-1.388,0.422-1.89V4.425h1.951v8.205c0,0.201,0.04,1.327,0.061,1.891h-1.971l-0.041-1.729
				c-0.361,0.704-1.045,1.83-3.217,1.83c-2.494,0-3.66-1.428-3.66-3.419V4.425H165.753z"/>
			<path fill="#00435B" d="M183.309,0.021h1.891v12.892c0,0.221,0.041,1.086,0.08,1.608h-1.89l-0.04-1.608
				c-0.161,0.281-0.383,0.703-0.905,1.065c-0.825,0.563-1.81,0.744-2.494,0.744c-1.347,0-4.344-0.704-4.344-5.128
				c0-3.842,2.192-5.511,4.565-5.511c2.172,0,2.896,1.287,3.137,1.709V0.021z M182.606,6.517c-0.402-0.523-1.146-1.026-2.213-1.026
				c-2.775,0-2.775,3.359-2.775,4.043c0,1.79,0.463,3.861,2.775,3.861c2.977,0,2.977-3.278,2.977-4.063
				C183.37,7.863,183.028,7.06,182.606,6.517z"/>
			<path fill="#00435B" d="M188.418,0.041h2.272v2.071h-2.272V0.041z M188.619,4.425h1.89v10.096h-1.89V4.425z"/>
			<path fill="#00435B" d="M195.336,9.814c-0.04,2.092,0.825,3.641,2.896,3.641c1.228,0,2.213-0.644,2.373-2.092h1.891
				c-0.061,0.503-0.141,1.327-0.864,2.111c-0.442,0.503-1.448,1.348-3.479,1.348c-3.178,0-4.686-1.971-4.686-5.169
				c0-1.99,0.402-3.64,1.99-4.746c0.966-0.684,2.173-0.744,2.756-0.744c4.525,0,4.424,4.002,4.385,5.651H195.336z M200.665,8.487
				c0.021-0.966-0.16-2.977-2.493-2.977c-1.228,0-2.716,0.744-2.755,2.977H200.665z"/>
			<path fill="#00435B" d="M206.458,11.524c-0.021,0.764,0.381,1.83,2.211,1.83c0.785,0,1.368-0.142,1.771-0.644
				c0.201-0.262,0.321-0.604,0.321-0.945c0-0.985-0.703-1.167-2.212-1.509c-2.112-0.482-3.882-0.905-3.882-3.017
				c0-1.851,1.609-3.057,3.942-3.057c1.267,0,3.036,0.361,3.64,1.568c0.262,0.563,0.262,1.046,0.262,1.468h-1.931
				c0.061-1.528-1.267-1.648-1.95-1.648c-0.282,0-2.052,0-2.052,1.448c0,0.925,0.905,1.146,1.428,1.287
				c2.796,0.663,3.399,0.824,4.002,1.387c0.563,0.523,0.765,1.228,0.765,1.871c0,1.126-0.623,2.091-1.367,2.554
				c-0.886,0.543-1.951,0.684-2.997,0.684c-2.052,0-3.962-0.845-3.942-3.277H206.458z"/>
			<path fill="#00435B" d="M221.017,0.021h1.911v5.893c0.623-1.066,1.87-1.669,3.277-1.669c1.066,0,2.595,0.382,3.178,1.608
				c0.201,0.402,0.342,0.885,0.342,2.354v6.314h-1.93V8.548c0-0.905,0-2.856-2.173-2.856c-1.407,0-2.111,0.865-2.373,1.348
				c-0.321,0.563-0.321,1.509-0.321,2.132v5.35h-1.911V0.021z"/>
			<path fill="#00435B" d="M239.46,14.521c-0.141-0.503-0.182-0.985-0.182-1.509c-0.904,1.67-2.272,1.83-3.117,1.83
				c-2.313,0-3.56-1.307-3.56-2.976c0-0.805,0.282-2.092,1.77-2.957c1.087-0.603,2.695-0.663,3.499-0.663
				c0.483,0,0.785,0.02,1.368,0.061c0-1.247,0-1.79-0.362-2.232c-0.382-0.503-1.207-0.664-1.75-0.664
				c-1.91,0-2.011,1.308-2.031,1.709h-1.89c0.06-0.522,0.12-1.227,0.704-1.91c0.764-0.845,2.191-1.086,3.258-1.086
				c1.468,0,3.037,0.463,3.58,1.488c0.321,0.604,0.342,1.086,0.342,1.549l-0.081,4.826c0,0.161,0.021,1.509,0.161,2.534H239.46z
				 M238.152,9.553c-0.765,0-3.64,0-3.64,2.052c0,0.644,0.401,1.75,2.091,1.75c0.966,0,1.689-0.383,2.151-1.087
				c0.423-0.684,0.443-1.246,0.483-2.654C238.896,9.573,238.614,9.553,238.152,9.553z"/>
			<path fill="#00435B" d="M242.958,4.425h2.112l3.218,8.004l3.137-8.004h2.092l-4.424,10.096h-1.91L242.958,4.425z"/>
			<path fill="#00435B" d="M256.815,9.814c-0.041,2.092,0.824,3.641,2.896,3.641c1.228,0,2.212-0.644,2.373-2.092h1.891
				c-0.061,0.503-0.141,1.327-0.864,2.111c-0.443,0.503-1.449,1.348-3.48,1.348c-3.177,0-4.686-1.971-4.686-5.169
				c0-1.99,0.402-3.64,1.991-4.746c0.966-0.684,2.173-0.744,2.755-0.744c4.525,0,4.425,4.002,4.385,5.651H256.815z M262.144,8.487
				c0.021-0.966-0.161-2.977-2.493-2.977c-1.228,0-2.716,0.744-2.756,2.977H262.144z"/>
			<path fill="#00435B" d="M274.331,5.893c0.262-0.462,1.006-1.729,3.299-1.729c1.006,0,2.272,0.241,3.197,1.287
				c0.503,0.583,1.188,1.589,1.188,3.801c0,1.951-0.463,3.017-0.966,3.681c-0.805,1.146-2.151,1.729-3.54,1.729
				c-0.482,0-1.387-0.061-2.252-0.644c-0.563-0.382-0.785-0.724-0.985-1.025l-0.04,1.528h-1.83l0.04-1.81V0h1.89V5.893z
				 M277.187,5.45c-2.896,0-2.896,3.379-2.896,4.022c0,0.664,0,3.821,2.814,3.821c2.334,0,2.916-2.272,2.916-3.922
				C280.022,8.366,279.821,5.45,277.187,5.45z"/>
			<path fill="#00435B" d="M285.875,9.814c-0.04,2.092,0.825,3.641,2.896,3.641c1.228,0,2.213-0.644,2.373-2.092h1.891
				c-0.061,0.503-0.141,1.327-0.864,2.111c-0.442,0.503-1.448,1.348-3.479,1.348c-3.178,0-4.686-1.971-4.686-5.169
				c0-1.99,0.402-3.64,1.99-4.746c0.966-0.684,2.173-0.744,2.756-0.744c4.525,0,4.424,4.002,4.385,5.651H285.875z M291.204,8.487
				c0.021-0.966-0.16-2.977-2.493-2.977c-1.228,0-2.716,0.744-2.755,2.977H291.204z"/>
			<path fill="#00435B" d="M297.057,9.814c-0.041,2.092,0.824,3.641,2.896,3.641c1.228,0,2.212-0.644,2.373-2.092h1.891
				c-0.061,0.503-0.141,1.327-0.864,2.111c-0.443,0.503-1.449,1.348-3.48,1.348c-3.177,0-4.686-1.971-4.686-5.169
				c0-1.99,0.402-3.64,1.991-4.746c0.966-0.684,2.173-0.744,2.755-0.744c4.525,0,4.425,4.002,4.385,5.651H297.057z M302.387,8.487
				c0.021-0.966-0.161-2.977-2.493-2.977c-1.228,0-2.716,0.744-2.756,2.977H302.387z"/>
			<path fill="#00435B" d="M307.153,5.591l-0.021-1.166h1.891l0.021,1.629c0.221-0.422,0.944-1.83,3.237-1.83
				c0.905,0,3.66,0.342,3.66,3.439v6.857h-1.931V8.105c0-0.664-0.08-1.268-0.543-1.729c-0.482-0.463-1.146-0.685-1.79-0.685
				c-1.367,0-2.634,0.985-2.634,3.017v5.813h-1.891V5.591z"/>
			<path fill="#00435B" d="M330.722,7.663c-0.04-0.463-0.181-2.112-2.011-2.112c-2.615,0-2.615,3.037-2.615,3.801
				c0,2.072,0.504,4.003,2.514,4.003c1.609,0,2.152-1.207,2.193-2.192h1.91c-0.121,1.971-1.589,3.62-4.082,3.62
				c-0.685,0-2.253-0.141-3.318-1.308c-0.604-0.704-1.207-1.77-1.207-3.861c0-4.203,2.574-5.45,4.585-5.45
				c0.663,0,2.172,0.141,3.097,1.247c0.744,0.865,0.805,1.689,0.846,2.253H330.722z"/>
			<path fill="#00435B" d="M339.411,4.163c4.042,0,4.947,3.178,4.947,5.289c0,2.957-1.67,5.41-5.108,5.41
				c-3.339,0-4.968-2.313-4.968-5.269C334.282,7.1,335.448,4.163,339.411,4.163z M339.29,13.455c1.428,0,3.057-1.026,3.057-4.063
				c0-2.515-1.166-3.842-2.936-3.842c-1.207,0-3.158,0.765-3.158,3.922C336.253,11.544,337.138,13.455,339.29,13.455z"/>
			<path fill="#00435B" d="M347.374,5.591l-0.02-1.166h1.891l0.02,1.629c0.222-0.422,0.945-1.83,3.238-1.83
				c0.904,0,3.66,0.342,3.66,3.439v6.857h-1.931V8.105c0-0.664-0.081-1.268-0.543-1.729c-0.483-0.463-1.146-0.685-1.79-0.685
				c-1.367,0-2.635,0.985-2.635,3.017v5.813h-1.891V5.591z"/>
			<path fill="#00435B" d="M366.6,0.021h1.891v12.892c0,0.221,0.04,1.086,0.08,1.608h-1.891l-0.04-1.608
				c-0.161,0.281-0.382,0.703-0.905,1.065c-0.824,0.563-1.81,0.744-2.494,0.744c-1.347,0-4.344-0.704-4.344-5.128
				c0-3.842,2.192-5.511,4.565-5.511c2.173,0,2.896,1.287,3.138,1.709V0.021z M365.896,6.517c-0.402-0.523-1.146-1.026-2.212-1.026
				c-2.775,0-2.775,3.359-2.775,4.043c0,1.79,0.463,3.861,2.775,3.861c2.977,0,2.977-3.278,2.977-4.063
				C366.661,7.863,366.319,7.06,365.896,6.517z"/>
			<path fill="#00435B" d="M373.619,4.425v6.496c0,0.985,0.222,2.232,2.151,2.232c0.945,0,1.83-0.322,2.373-1.127
				c0.423-0.603,0.423-1.388,0.423-1.89V4.425h1.95v8.205c0,0.201,0.041,1.327,0.061,1.891h-1.971l-0.04-1.729
				c-0.362,0.704-1.046,1.83-3.218,1.83c-2.494,0-3.66-1.428-3.66-3.419V4.425H373.619z"/>
			<path fill="#00435B" d="M389.929,7.663c-0.04-0.463-0.182-2.112-2.012-2.112c-2.613,0-2.613,3.037-2.613,3.801
				c0,2.072,0.502,4.003,2.514,4.003c1.608,0,2.151-1.207,2.191-2.192h1.911c-0.12,1.971-1.589,3.62-4.083,3.62
				c-0.684,0-2.252-0.141-3.318-1.308c-0.604-0.704-1.207-1.77-1.207-3.861c0-4.203,2.574-5.45,4.586-5.45
				c0.664,0,2.172,0.141,3.098,1.247c0.744,0.865,0.805,1.689,0.844,2.253H389.929z"/>
			<path fill="#00435B" d="M392.684,4.385h1.789V2.272l1.871-0.603v2.715h2.252v1.388h-2.252v6.053c0,0.503,0,1.348,1.348,1.348
				c0.381,0,0.744-0.061,0.904-0.101v1.469c-0.342,0.06-0.885,0.12-1.568,0.12c-1.73,0-2.555-0.503-2.555-2.151V5.772h-1.789V4.385z
				"/>
			<path fill="#00435B" d="M402.075,9.814c-0.039,2.092,0.825,3.641,2.896,3.641c1.227,0,2.213-0.644,2.373-2.092h1.891
				c-0.061,0.503-0.141,1.327-0.865,2.111c-0.441,0.503-1.447,1.348-3.479,1.348c-3.178,0-4.686-1.971-4.686-5.169
				c0-1.99,0.401-3.64,1.99-4.746c0.965-0.684,2.172-0.744,2.756-0.744c4.524,0,4.424,4.002,4.384,5.651H402.075z M407.405,8.487
				c0.02-0.966-0.161-2.977-2.494-2.977c-1.227,0-2.715,0.744-2.755,2.977H407.405z"/>
			<path fill="#00435B" d="M419.11,0.021H421v12.892c0,0.221,0.04,1.086,0.081,1.608h-1.891l-0.041-1.608
				c-0.16,0.281-0.381,0.703-0.904,1.065c-0.824,0.563-1.811,0.744-2.494,0.744c-1.348,0-4.344-0.704-4.344-5.128
				c0-3.842,2.191-5.511,4.565-5.511c2.172,0,2.896,1.287,3.138,1.709V0.021z M418.405,6.517c-0.402-0.523-1.146-1.026-2.211-1.026
				c-2.775,0-2.775,3.359-2.775,4.043c0,1.79,0.462,3.861,2.775,3.861c2.976,0,2.976-3.278,2.976-4.063
				C419.17,7.863,418.828,7.06,418.405,6.517z"/>
			<path fill="#00435B" d="M429.808,0.041h2.272v2.071h-2.272V0.041z M430.01,4.425h1.89v10.096h-1.89V4.425z"/>
			<path fill="#00435B" d="M435.64,5.591l-0.021-1.166h1.891l0.021,1.629c0.222-0.422,0.945-1.83,3.237-1.83
				c0.905,0,3.66,0.342,3.66,3.439v6.857h-1.93V8.105c0-0.664-0.081-1.268-0.543-1.729c-0.483-0.463-1.146-0.685-1.791-0.685
				c-1.367,0-2.634,0.985-2.634,3.017v5.813h-1.891V5.591z"/>
			<path fill="#00435B" d="M451.91,4.385h1.79V2.272l1.87-0.603v2.715h2.253v1.388h-2.253v6.053c0,0.503,0,1.348,1.348,1.348
				c0.382,0,0.744-0.061,0.905-0.101v1.469c-0.342,0.06-0.885,0.12-1.568,0.12c-1.73,0-2.555-0.503-2.555-2.151V5.772h-1.79V4.385z"
				/>
			<path fill="#00435B" d="M460.155,0.021h1.91v5.893c0.624-1.066,1.871-1.669,3.279-1.669c1.065,0,2.594,0.382,3.177,1.608
				c0.201,0.402,0.343,0.885,0.343,2.354v6.314h-1.932V8.548c0-0.905,0-2.856-2.172-2.856c-1.408,0-2.111,0.865-2.373,1.348
				c-0.322,0.563-0.322,1.509-0.322,2.132v5.35h-1.91V0.021z"/>
			<path fill="#00435B" d="M472.263,0.041h2.272v2.071h-2.272V0.041z M472.464,4.425h1.891v10.096h-1.891V4.425z"/>
			<path fill="#00435B" d="M479.12,11.524c-0.02,0.764,0.383,1.83,2.213,1.83c0.784,0,1.367-0.142,1.77-0.644
				c0.201-0.262,0.322-0.604,0.322-0.945c0-0.985-0.705-1.167-2.213-1.509c-2.111-0.482-3.881-0.905-3.881-3.017
				c0-1.851,1.608-3.057,3.941-3.057c1.267,0,3.037,0.361,3.641,1.568c0.261,0.563,0.261,1.046,0.261,1.468h-1.931
				c0.061-1.528-1.268-1.648-1.951-1.648c-0.281,0-2.051,0-2.051,1.448c0,0.925,0.904,1.146,1.428,1.287
				c2.795,0.663,3.398,0.824,4.002,1.387c0.563,0.523,0.765,1.228,0.765,1.871c0,1.126-0.624,2.091-1.368,2.554
				c-0.885,0.543-1.95,0.684-2.996,0.684c-2.051,0-3.962-0.845-3.941-3.277H479.12z"/>
			<path fill="#00435B" d="M493.62,6.074c0-0.442-0.02-0.685-0.061-1.649h1.91l0.041,1.669c0.945-1.589,2.614-1.83,3.439-1.83
				c2.172,0,4.242,1.488,4.242,5.229c0,3.761-2.191,5.409-4.605,5.409c-1.467,0-2.554-0.623-3.097-1.508v5.008h-1.87V6.074z
				 M498.265,13.515c0.483,0,1.488-0.101,2.132-0.985c0.725-0.985,0.824-2.434,0.824-3.157c0-1.81-0.543-3.7-2.775-3.7
				c-3.016,0-3.016,3.197-3.016,4.103C495.43,11.001,495.611,13.515,498.265,13.515z"/>
			<path fill="#00435B" d="M510.352,4.163c4.042,0,4.947,3.178,4.947,5.289c0,2.957-1.67,5.41-5.108,5.41
				c-3.339,0-4.968-2.313-4.968-5.269C505.223,7.1,506.389,4.163,510.352,4.163z M510.231,13.455c1.428,0,3.057-1.026,3.057-4.063
				c0-2.515-1.166-3.842-2.936-3.842c-1.207,0-3.158,0.765-3.158,3.922C507.194,11.544,508.079,13.455,510.231,13.455z"/>
			<path fill="#00435B" d="M518.196,6.074c0-0.442-0.021-0.685-0.061-1.649h1.91l0.041,1.669c0.944-1.589,2.613-1.83,3.438-1.83
				c2.172,0,4.243,1.488,4.243,5.229c0,3.761-2.191,5.409-4.605,5.409c-1.468,0-2.555-0.623-3.098-1.508v5.008h-1.869V6.074z
				 M522.841,13.515c0.483,0,1.488-0.101,2.133-0.985c0.724-0.985,0.824-2.434,0.824-3.157c0-1.81-0.543-3.7-2.775-3.7
				c-3.017,0-3.017,3.197-3.017,4.103C520.006,11.001,520.186,13.515,522.841,13.515z"/>
			<path fill="#00435B" d="M532.273,4.425v6.496c0,0.985,0.222,2.232,2.151,2.232c0.945,0,1.83-0.322,2.373-1.127
				c0.423-0.603,0.423-1.388,0.423-1.89V4.425h1.95v8.205c0,0.201,0.041,1.327,0.061,1.891h-1.971l-0.04-1.729
				c-0.362,0.704-1.046,1.83-3.218,1.83c-2.494,0-3.66-1.428-3.66-3.419V4.425H532.273z"/>
			<path fill="#00435B" d="M542.872,0.021h1.89v14.5h-1.89V0.021z"/>
			<path fill="#00435B" d="M554.576,14.521c-0.141-0.503-0.181-0.985-0.181-1.509c-0.905,1.67-2.273,1.83-3.117,1.83
				c-2.313,0-3.561-1.307-3.561-2.976c0-0.805,0.282-2.092,1.77-2.957c1.087-0.603,2.695-0.663,3.5-0.663
				c0.482,0,0.784,0.02,1.367,0.061c0-1.247,0-1.79-0.361-2.232c-0.383-0.503-1.207-0.664-1.75-0.664
				c-1.91,0-2.012,1.308-2.031,1.709h-1.891c0.061-0.522,0.121-1.227,0.704-1.91c0.765-0.845,2.192-1.086,3.258-1.086
				c1.468,0,3.037,0.463,3.58,1.488c0.321,0.604,0.342,1.086,0.342,1.549l-0.081,4.826c0,0.161,0.021,1.509,0.162,2.534H554.576z
				 M553.268,9.553c-0.764,0-3.64,0-3.64,2.052c0,0.644,0.402,1.75,2.091,1.75c0.966,0,1.689-0.383,2.152-1.087
				c0.422-0.684,0.442-1.246,0.482-2.654C554.013,9.573,553.731,9.553,553.268,9.553z"/>
			<path fill="#00435B" d="M558.055,4.385h1.789V2.272l1.871-0.603v2.715h2.252v1.388h-2.252v6.053c0,0.503,0,1.348,1.348,1.348
				c0.381,0,0.744-0.061,0.904-0.101v1.469c-0.342,0.06-0.885,0.12-1.568,0.12c-1.73,0-2.555-0.503-2.555-2.151V5.772h-1.789V4.385z
				"/>
			<path fill="#00435B" d="M566.12,0.041h2.271v2.071h-2.271V0.041z M566.321,4.425h1.89v10.096h-1.89V4.425z"/>
			<path fill="#00435B" d="M576.275,4.163c4.042,0,4.947,3.178,4.947,5.289c0,2.957-1.669,5.41-5.108,5.41
				c-3.338,0-4.967-2.313-4.967-5.269C571.147,7.1,572.313,4.163,576.275,4.163z M576.155,13.455c1.428,0,3.057-1.026,3.057-4.063
				c0-2.515-1.166-3.842-2.937-3.842c-1.206,0-3.157,0.765-3.157,3.922C573.118,11.544,574.003,13.455,576.155,13.455z"/>
			<path fill="#00435B" d="M584.239,5.591l-0.02-1.166h1.89l0.021,1.629c0.221-0.422,0.945-1.83,3.238-1.83
				c0.904,0,3.66,0.342,3.66,3.439v6.857h-1.932V8.105c0-0.664-0.08-1.268-0.543-1.729c-0.482-0.463-1.146-0.685-1.789-0.685
				c-1.368,0-2.635,0.985-2.635,3.017v5.813h-1.891V5.591z"/>
		</g>
		<g>
			<path fill="#00435B" d="M18.844,34.391h2.151l5.873,14.521h-2.192l-1.569-3.781H16.37l-1.568,3.781h-2.072L18.844,34.391z
				 M17.013,43.501h5.49l-2.675-7.119L17.013,43.501z"/>
			<path fill="#00435B" d="M29.904,44.668c0.04,1.005,0.161,2.876,3.499,2.876c3.018,0,3.398-1.871,3.398-2.595
				c0-1.629-1.307-1.951-3.338-2.453c-2.212-0.543-3.197-0.785-3.941-1.287c-1.188-0.805-1.509-1.891-1.509-2.856
				c0-2.956,2.796-4.243,5.53-4.243c0.966,0,2.916,0.161,4.083,1.428c0.805,0.885,0.845,1.87,0.885,2.474h-2.091
				c-0.102-1.81-1.629-2.212-3.058-2.212c-2.011,0-3.218,0.905-3.218,2.353c0,1.287,0.845,1.729,2.615,2.152
				c3.459,0.885,3.84,0.965,4.686,1.528c1.348,0.885,1.447,2.293,1.447,2.896c0,2.574-2.011,4.524-5.731,4.524
				c-1.106,0-3.358-0.181-4.505-1.649c-0.824-1.065-0.845-2.232-0.845-2.936H29.904z"/>
			<path fill="#00435B" d="M46.013,34.391h2.152l5.872,14.521h-2.192l-1.568-3.781H43.54l-1.569,3.781h-2.071L46.013,34.391z
				 M44.182,43.501h5.49l-2.674-7.119L44.182,43.501z"/>
			<path fill="#00435B" d="M56.008,34.391h4.867c1.77,0,2.977,0.101,3.962,1.167c0.725,0.744,1.066,1.729,1.066,2.815
				c0,1.106-0.363,2.051-1.146,2.836c-0.765,0.764-1.77,1.246-4.385,1.246h-2.354v6.456h-2.011V34.391z M58.018,40.767h2.395
				c1.326,0,3.357-0.101,3.357-2.474c0-2.273-1.891-2.273-2.936-2.273h-2.816V40.767z"/>
			<path fill="#00435B" d="M68.195,38.715h2.231v2.373h-2.231V38.715z M68.195,46.538h2.231v2.373h-2.231V46.538z"/>
			<path fill="#00435B" d="M82.997,34.391h2.152l5.872,14.521h-2.192l-1.568-3.781h-6.737l-1.569,3.781h-2.07L82.997,34.391z
				 M81.167,43.501h5.49l-2.675-7.119L81.167,43.501z"/>
			<path fill="#00435B" d="M91.442,38.775h1.791v-2.112l1.869-0.603v2.715h2.253v1.388h-2.253v6.053c0,0.503,0,1.348,1.348,1.348
				c0.383,0,0.744-0.061,0.905-0.101v1.469c-0.342,0.06-0.885,0.12-1.568,0.12c-1.729,0-2.554-0.503-2.554-2.151v-6.737h-1.791
				V38.775z"/>
			<path fill="#00435B" d="M104.072,38.554c4.042,0,4.947,3.178,4.947,5.289c0,2.957-1.669,5.41-5.108,5.41
				c-3.338,0-4.967-2.313-4.967-5.269C98.944,41.49,100.11,38.554,104.072,38.554z M103.952,47.846c1.428,0,3.057-1.026,3.057-4.063
				c0-2.515-1.166-3.842-2.937-3.842c-1.206,0-3.157,0.765-3.157,3.922C100.915,45.935,101.8,47.846,103.952,47.846z"/>
			<path fill="#00435B" d="M112.076,40.867c0-0.685-0.04-1.388-0.101-2.052h1.91l0.041,1.951c0.361-1.408,1.568-1.871,2.413-1.991
				c0.563-0.081,0.985-0.061,1.308-0.04v1.85c-0.102-0.04-0.222-0.061-0.362-0.08c-0.141-0.021-0.321-0.021-0.543-0.021
				c-2.232,0-2.755,1.327-2.755,3.057v5.37h-1.911V40.867z"/>
			<path fill="#00435B" d="M118.27,38.815h2.111l3.219,8.004l3.137-8.004h2.092l-4.425,10.096h-1.91L118.27,38.815z"/>
			<path fill="#00435B" d="M137.135,48.911c-0.141-0.503-0.181-0.985-0.181-1.509c-0.905,1.67-2.273,1.83-3.117,1.83
				c-2.313,0-3.561-1.307-3.561-2.976c0-0.805,0.282-2.092,1.77-2.957c1.087-0.603,2.695-0.663,3.5-0.663
				c0.482,0,0.784,0.02,1.367,0.061c0-1.247,0-1.79-0.361-2.232c-0.383-0.503-1.207-0.664-1.75-0.664
				c-1.91,0-2.012,1.308-2.031,1.709h-1.891c0.061-0.522,0.121-1.227,0.704-1.91c0.765-0.845,2.192-1.086,3.258-1.086
				c1.468,0,3.037,0.463,3.58,1.488c0.321,0.604,0.342,1.086,0.342,1.549l-0.081,4.826c0,0.161,0.021,1.509,0.162,2.534H137.135z
				 M135.827,43.943c-0.764,0-3.64,0-3.64,2.052c0,0.644,0.402,1.75,2.091,1.75c0.966,0,1.689-0.383,2.152-1.087
				c0.422-0.684,0.442-1.246,0.482-2.654C136.571,43.964,136.29,43.943,135.827,43.943z"/>
			<path fill="#00435B" d="M143.249,45.915c-0.021,0.764,0.381,1.83,2.211,1.83c0.785,0,1.368-0.142,1.771-0.644
				c0.201-0.262,0.321-0.604,0.321-0.945c0-0.985-0.703-1.167-2.212-1.509c-2.112-0.482-3.882-0.905-3.882-3.017
				c0-1.851,1.609-3.057,3.942-3.057c1.267,0,3.036,0.361,3.64,1.568c0.262,0.563,0.262,1.046,0.262,1.468h-1.931
				c0.061-1.528-1.267-1.648-1.95-1.648c-0.282,0-2.052,0-2.052,1.448c0,0.925,0.905,1.146,1.428,1.287
				c2.796,0.663,3.399,0.824,4.002,1.387c0.563,0.523,0.765,1.228,0.765,1.871c0,1.126-0.623,2.091-1.367,2.554
				c-0.886,0.543-1.951,0.684-2.997,0.684c-2.052,0-3.962-0.845-3.942-3.277H143.249z"/>
			<path fill="#00435B" d="M150.669,38.775h1.791v-2.112l1.869-0.603v2.715h2.253v1.388h-2.253v6.053c0,0.503,0,1.348,1.348,1.348
				c0.383,0,0.744-0.061,0.905-0.101v1.469c-0.342,0.06-0.885,0.12-1.568,0.12c-1.729,0-2.554-0.503-2.554-2.151v-6.737h-1.791
				V38.775z"/>
			<path fill="#00435B" d="M165.069,48.911c-0.141-0.503-0.182-0.985-0.182-1.509c-0.904,1.67-2.272,1.83-3.117,1.83
				c-2.313,0-3.56-1.307-3.56-2.976c0-0.805,0.282-2.092,1.77-2.957c1.087-0.603,2.695-0.663,3.499-0.663
				c0.483,0,0.785,0.02,1.368,0.061c0-1.247,0-1.79-0.362-2.232c-0.382-0.503-1.207-0.664-1.75-0.664
				c-1.91,0-2.011,1.308-2.031,1.709h-1.89c0.06-0.522,0.12-1.227,0.704-1.91c0.764-0.845,2.191-1.086,3.258-1.086
				c1.468,0,3.037,0.463,3.58,1.488c0.321,0.604,0.342,1.086,0.342,1.549l-0.081,4.826c0,0.161,0.021,1.509,0.161,2.534H165.069z
				 M163.762,43.943c-0.765,0-3.64,0-3.64,2.052c0,0.644,0.401,1.75,2.091,1.75c0.966,0,1.689-0.383,2.151-1.087
				c0.423-0.684,0.443-1.246,0.483-2.654C164.506,43.964,164.223,43.943,163.762,43.943z"/>
			<path fill="#00435B" d="M168.548,38.775h1.79v-2.112l1.87-0.603v2.715h2.252v1.388h-2.252v6.053c0,0.503,0,1.348,1.348,1.348
				c0.382,0,0.744-0.061,0.904-0.101v1.469c-0.342,0.06-0.885,0.12-1.568,0.12c-1.729,0-2.554-0.503-2.554-2.151v-6.737h-1.79
				V38.775z"/>
			<path fill="#00435B" d="M176.612,34.432h2.272v2.071h-2.272V34.432z M176.813,38.815h1.891v10.096h-1.891V38.815z"/>
			<path fill="#00435B" d="M182.444,39.981l-0.02-1.166h1.89l0.021,1.629c0.221-0.422,0.945-1.83,3.238-1.83
				c0.904,0,3.66,0.342,3.66,3.439v6.857h-1.932v-6.415c0-0.664-0.08-1.268-0.543-1.729c-0.482-0.463-1.146-0.685-1.789-0.685
				c-1.368,0-2.635,0.985-2.635,3.017v5.813h-1.891V39.981z"/>
			<path fill="#00435B" d="M199.518,38.474c0-1.247,0.844-3.801,4.505-3.801c2.937,0,4.626,1.589,4.626,3.72
				c0,1.368-0.886,2.796-2.836,3.158c0.824,0.221,3.037,0.824,3.037,3.52c0,1.91-1.328,4.082-4.787,4.082
				c-1.187,0-2.594-0.241-3.6-1.166c-0.744-0.684-1.227-1.729-1.227-2.796c0-0.925,0.361-1.891,1.065-2.554
				c0.663-0.664,1.388-0.865,2.011-1.066C200.464,41.168,199.518,39.861,199.518,38.474z M204.063,47.563
				c2.232,0,2.775-1.568,2.775-2.614c0-1.549-1.146-2.554-2.735-2.554c-1.71,0-2.835,1.146-2.835,2.614
				C201.268,46.096,201.992,47.563,204.063,47.563z M204.103,36.161c-1.488,0-2.634,0.885-2.634,2.272
				c0,1.347,1.125,2.252,2.574,2.252c1.527,0,2.674-0.885,2.674-2.252C206.718,37.166,205.772,36.161,204.103,36.161z"/>
			<path fill="#00435B" d="M215.225,34.713c4.162,0,4.665,4.465,4.665,7.079c0,3.298-0.663,5.148-1.931,6.335
				c-0.985,0.925-2.152,1.065-2.775,1.065c-1.85,0-3.117-1.086-3.721-2.313c-0.463-0.925-0.904-2.272-0.904-4.767
				C210.559,40.042,210.801,34.713,215.225,34.713z M215.205,47.523c2.333,0,2.735-3.057,2.735-5.551
				c0-3.338-0.584-5.651-2.695-5.651c-2.434,0-2.756,3.198-2.756,5.691C212.489,45.11,213.093,47.523,215.205,47.523z"/>
			<path fill="#00435B" d="M228.196,40.163l-0.039-1.348h1.91v1.468c0.965-1.589,2.333-1.729,3.197-1.729
				c2.232,0,2.937,1.146,3.299,1.891c0.342-0.563,1.166-1.891,3.398-1.891c1.448,0,3.7,0.604,3.7,3.58v6.777h-1.91v-6.476
				c0-0.885-0.161-1.268-0.342-1.528c-0.322-0.463-0.966-0.885-1.931-0.885c-1.227,0-1.891,0.703-2.152,1.065
				c-0.442,0.623-0.442,1.729-0.442,2.172v5.651h-1.91v-6.677c0-1.247-0.724-2.212-2.212-2.212c-1.287,0-1.992,0.804-2.213,1.105
				c-0.422,0.583-0.442,1.408-0.442,2.052v5.731h-1.911V40.163z"/>
			<path fill="#00435B" d="M249.011,49.695c0.081,1.126,0.564,1.971,2.354,1.971c2.635,0,2.675-1.91,2.675-4.646
				c-0.804,1.669-2.715,1.71-3.318,1.71c-0.925,0-2.253-0.201-3.097-1.247c-0.865-1.025-1.146-2.373-1.146-3.721
				c0-3.419,2.011-5.088,4.484-5.088c2.031,0,2.775,1.005,3.178,1.528l0.02-1.388h1.83l-0.039,1.83l-0.021,6.314
				c0,2.434-0.081,3.419-0.483,4.184c-0.844,1.608-2.814,1.81-4.203,1.81c-4.042,0-4.162-1.89-4.242-3.258H249.011z M253.415,46.316
				c0.402-0.522,0.685-1.065,0.685-2.896c0-1.267-0.282-1.991-0.784-2.514c-0.503-0.543-1.308-0.885-2.172-0.885
				c-2.394,0-2.715,2.413-2.715,3.7c0,1.549,0.462,3.6,2.775,3.6C252.309,47.322,252.953,46.92,253.415,46.316z"/>
			<path fill="#00435B" d="M271.233,48.911c-0.141-0.503-0.181-0.985-0.181-1.509c-0.905,1.67-2.272,1.83-3.117,1.83
				c-2.313,0-3.56-1.307-3.56-2.976c0-0.805,0.281-2.092,1.77-2.957c1.086-0.603,2.695-0.663,3.5-0.663
				c0.482,0,0.783,0.02,1.367,0.061c0-1.247,0-1.79-0.362-2.232c-0.382-0.503-1.206-0.664-1.749-0.664
				c-1.911,0-2.012,1.308-2.031,1.709h-1.891c0.061-0.522,0.121-1.227,0.703-1.91c0.765-0.845,2.193-1.086,3.259-1.086
				c1.468,0,3.036,0.463,3.579,1.488c0.322,0.604,0.342,1.086,0.342,1.549l-0.08,4.826c0,0.161,0.021,1.509,0.161,2.534H271.233z
				 M269.927,43.943c-0.764,0-3.641,0-3.641,2.052c0,0.644,0.402,1.75,2.092,1.75c0.965,0,1.689-0.383,2.152-1.087
				c0.422-0.684,0.441-1.246,0.482-2.654C270.671,43.964,270.389,43.943,269.927,43.943z"/>
			<path fill="#00435B" d="M282.013,42.054c-0.039-0.463-0.181-2.112-2.011-2.112c-2.614,0-2.614,3.037-2.614,3.801
				c0,2.072,0.503,4.003,2.514,4.003c1.609,0,2.152-1.207,2.192-2.192h1.911c-0.121,1.971-1.59,3.62-4.083,3.62
				c-0.685,0-2.253-0.141-3.318-1.308c-0.604-0.704-1.207-1.77-1.207-3.861c0-4.203,2.574-5.45,4.585-5.45
				c0.664,0,2.172,0.141,3.098,1.247c0.744,0.865,0.805,1.689,0.845,2.253H282.013z"/>
			<path fill="#00435B" d="M285.311,34.411h1.91v5.893c0.623-1.066,1.871-1.669,3.278-1.669c1.065,0,2.595,0.382,3.178,1.608
				c0.2,0.402,0.342,0.885,0.342,2.354v6.314h-1.931v-5.973c0-0.905,0-2.856-2.172-2.856c-1.408,0-2.111,0.865-2.373,1.348
				c-0.322,0.563-0.322,1.509-0.322,2.132v5.35h-1.91V34.411z"/>
			<path fill="#00435B" d="M297.418,34.432h2.272v2.071h-2.272V34.432z M297.619,38.815h1.89v10.096h-1.89V38.815z"/>
			<path fill="#00435B" d="M304.336,44.205c-0.04,2.092,0.825,3.641,2.896,3.641c1.228,0,2.213-0.644,2.373-2.092h1.891
				c-0.061,0.503-0.141,1.327-0.864,2.111c-0.442,0.503-1.448,1.348-3.479,1.348c-3.178,0-4.686-1.971-4.686-5.169
				c0-1.99,0.402-3.64,1.99-4.746c0.966-0.684,2.173-0.744,2.756-0.744c4.525,0,4.424,4.002,4.385,5.651H304.336z M309.665,42.878
				c0.021-0.966-0.16-2.977-2.493-2.977c-1.228,0-2.716,0.744-2.755,2.977H309.665z"/>
			<path fill="#00435B" d="M312.843,38.815h2.112l3.218,8.004l3.137-8.004h2.092l-4.424,10.096h-1.91L312.843,38.815z"/>
			<path fill="#00435B" d="M326.7,44.205c-0.041,2.092,0.824,3.641,2.896,3.641c1.228,0,2.212-0.644,2.373-2.092h1.891
				c-0.061,0.503-0.141,1.327-0.864,2.111c-0.443,0.503-1.449,1.348-3.48,1.348c-3.177,0-4.686-1.971-4.686-5.169
				c0-1.99,0.402-3.64,1.991-4.746c0.966-0.684,2.173-0.744,2.755-0.744c4.525,0,4.425,4.002,4.385,5.651H326.7z M332.029,42.878
				c0.021-0.966-0.161-2.977-2.493-2.977c-1.228,0-2.716,0.744-2.756,2.977H332.029z"/>
			<path fill="#00435B" d="M343.733,34.411h1.891v12.892c0,0.221,0.041,1.086,0.08,1.608h-1.89l-0.04-1.608
				c-0.161,0.281-0.383,0.703-0.905,1.065c-0.825,0.563-1.81,0.744-2.494,0.744c-1.347,0-4.344-0.704-4.344-5.128
				c0-3.842,2.192-5.511,4.565-5.511c2.172,0,2.896,1.287,3.137,1.709V34.411z M343.03,40.907c-0.402-0.523-1.146-1.026-2.213-1.026
				c-2.775,0-2.775,3.359-2.775,4.043c0,1.79,0.463,3.861,2.775,3.861c2.977,0,2.977-3.278,2.977-4.063
				C343.794,42.254,343.452,41.45,343.03,40.907z"/>
			<path fill="#00435B" d="M360.767,48.911c-0.141-0.503-0.181-0.985-0.181-1.509c-0.905,1.67-2.273,1.83-3.117,1.83
				c-2.313,0-3.561-1.307-3.561-2.976c0-0.805,0.282-2.092,1.77-2.957c1.087-0.603,2.695-0.663,3.5-0.663
				c0.482,0,0.784,0.02,1.367,0.061c0-1.247,0-1.79-0.361-2.232c-0.383-0.503-1.207-0.664-1.75-0.664
				c-1.91,0-2.012,1.308-2.031,1.709h-1.891c0.061-0.522,0.121-1.227,0.704-1.91c0.765-0.845,2.192-1.086,3.258-1.086
				c1.468,0,3.037,0.463,3.58,1.488c0.321,0.604,0.342,1.086,0.342,1.549l-0.081,4.826c0,0.161,0.021,1.509,0.162,2.534H360.767z
				 M359.46,43.943c-0.764,0-3.64,0-3.64,2.052c0,0.644,0.402,1.75,2.091,1.75c0.966,0,1.689-0.383,2.152-1.087
				c0.422-0.684,0.442-1.246,0.482-2.654C360.204,43.964,359.923,43.943,359.46,43.943z"/>
			<path fill="#00435B" d="M372.834,45.613c0.04,1.407,1.267,1.971,2.313,1.971c2.433,0,2.754-2.293,2.754-3.198
				c0-1.89-1.025-2.996-2.634-2.996c-0.805,0-1.448,0.302-1.87,0.724c-0.423,0.423-0.543,0.845-0.645,1.167h-1.83l0.363-8.286h7.822
				v1.629h-6.094l-0.262,4.505c0.423-0.422,1.308-1.287,2.938-1.287c2.795,0,4.162,2.192,4.162,4.586
				c0,2.734-1.931,4.806-4.967,4.806c-2.253,0-4.043-1.246-4.144-3.619H372.834z"/>
			<path fill="#00435B" d="M386.248,37.187c-0.864,0.724-2.253,1.549-3.237,2.011v-2.011c1.307-0.684,2.594-1.528,3.378-2.192h1.79
				v13.917h-1.931V37.187z"/>
			<path fill="#00435B" d="M399.561,38.172c0,2.494-1.469,3.64-3.299,3.64c-1.749,0-3.237-1.045-3.237-3.519
				c0-2.112,1.146-3.681,3.419-3.681C398.757,34.612,399.561,36.342,399.561,38.172z M397.972,38.252
				c0-0.985-0.241-2.434-1.669-2.434c-1.73,0-1.73,1.972-1.73,2.454c0,0.463,0,2.373,1.73,2.373
				C397.972,40.646,397.972,38.654,397.972,38.252z M395.7,49.695l8.869-15.485h1.327l-8.869,15.485H395.7z M407.968,42.918
				c0.361,0.402,0.824,1.046,0.824,2.554c0,2.192-1.065,3.681-3.237,3.681c-2.574,0-3.298-1.91-3.298-3.58
				c0-2.433,1.508-3.619,3.298-3.619C406.097,41.953,407.183,42.054,407.968,42.918z M407.263,45.513
				c0-0.624-0.12-2.434-1.688-2.434c-1.73,0-1.73,2.092-1.73,2.694c0,0.704,0.161,2.192,1.689,2.192
				C407.143,47.966,407.263,46.236,407.263,45.513z"/>
			<path fill="#00435B" d="M417.319,34.391h1.991v12.73h6.757v1.79h-8.748V34.391z"/>
			<path fill="#00435B" d="M428.4,34.391h4.204c1.95,0,4.242,0,5.852,1.891c1.287,1.509,1.79,3.499,1.79,5.49
				c0,3.138-1.308,5.068-2.413,5.953c-1.428,1.187-3.219,1.187-5.35,1.187H428.4V34.391z M430.411,47.262h1.972
				c1.388,0,2.835-0.08,3.801-0.804c1.851-1.388,1.911-3.761,1.911-4.605c0-0.543-0.041-3.017-1.408-4.525
				c-0.926-1.025-2.092-1.267-3.861-1.267h-2.414V47.262z"/>
			<path fill="#00435B" d="M443.02,34.391h1.991v12.73h6.757v1.79h-8.748V34.391z"/>
			<path fill="#00435B" d="M449.678,42.857h5.048v1.528h-5.048V42.857z"/>
			<path fill="#00435B" d="M466.048,38.313c-0.08-0.503-0.342-2.514-3.137-2.514c-3.5,0-4.123,3.58-4.123,5.993
				c0,2.735,0.784,5.691,4.103,5.691c0.885,0,1.729-0.222,2.353-0.865c0.523-0.563,0.645-1.187,0.704-1.528h2.212
				c-0.301,2.855-2.936,4.043-5.43,4.043c-5.108,0-6.094-4.505-6.094-7.321c0-3.057,1.187-7.622,6.355-7.622
				c2.051,0,4.947,0.825,5.209,4.123H466.048z"/>
			<path fill="#00435B" d="M476.405,40.867c0-0.685-0.041-1.388-0.101-2.052h1.91l0.04,1.951c0.362-1.408,1.568-1.871,2.414-1.991
				c0.563-0.081,0.984-0.061,1.307-0.04v1.85c-0.101-0.04-0.221-0.061-0.361-0.08c-0.141-0.021-0.322-0.021-0.543-0.021
				c-2.232,0-2.756,1.327-2.756,3.057v5.37h-1.91V40.867z"/>
			<path fill="#00435B" d="M485.273,44.205c-0.04,2.092,0.825,3.641,2.896,3.641c1.228,0,2.213-0.644,2.373-2.092h1.891
				c-0.061,0.503-0.141,1.327-0.864,2.111c-0.442,0.503-1.448,1.348-3.479,1.348c-3.178,0-4.686-1.971-4.686-5.169
				c0-1.99,0.402-3.64,1.99-4.746c0.966-0.684,2.173-0.744,2.756-0.744c4.525,0,4.424,4.002,4.385,5.651H485.273z M490.602,42.878
				c0.021-0.966-0.16-2.977-2.493-2.977c-1.228,0-2.716,0.744-2.755,2.977H490.602z"/>
			<path fill="#00435B" d="M502.307,34.411h1.891v12.892c0,0.221,0.04,1.086,0.08,1.608h-1.891l-0.04-1.608
				c-0.161,0.281-0.382,0.703-0.905,1.065c-0.824,0.563-1.81,0.744-2.494,0.744c-1.347,0-4.344-0.704-4.344-5.128
				c0-3.842,2.192-5.511,4.565-5.511c2.173,0,2.896,1.287,3.138,1.709V34.411z M501.603,40.907
				c-0.402-0.523-1.146-1.026-2.212-1.026c-2.775,0-2.775,3.359-2.775,4.043c0,1.79,0.463,3.861,2.775,3.861
				c2.977,0,2.977-3.278,2.977-4.063C502.368,42.254,502.026,41.45,501.603,40.907z"/>
			<path fill="#00435B" d="M509.327,38.815v6.496c0,0.985,0.221,2.232,2.151,2.232c0.945,0,1.83-0.322,2.373-1.127
				c0.423-0.603,0.423-1.388,0.423-1.89v-5.712h1.95v8.205c0,0.201,0.04,1.327,0.061,1.891h-1.972l-0.039-1.729
				c-0.363,0.704-1.047,1.83-3.219,1.83c-2.493,0-3.66-1.428-3.66-3.419v-6.777H509.327z"/>
			<path fill="#00435B" d="M525.636,42.054c-0.039-0.463-0.181-2.112-2.011-2.112c-2.614,0-2.614,3.037-2.614,3.801
				c0,2.072,0.503,4.003,2.514,4.003c1.609,0,2.152-1.207,2.192-2.192h1.911c-0.121,1.971-1.59,3.62-4.083,3.62
				c-0.685,0-2.253-0.141-3.318-1.308c-0.604-0.704-1.207-1.77-1.207-3.861c0-4.203,2.574-5.45,4.585-5.45
				c0.664,0,2.172,0.141,3.098,1.247c0.744,0.865,0.805,1.689,0.845,2.253H525.636z"/>
			<path fill="#00435B" d="M528.391,38.775h1.789v-2.112l1.871-0.603v2.715h2.252v1.388h-2.252v6.053c0,0.503,0,1.348,1.348,1.348
				c0.381,0,0.744-0.061,0.904-0.101v1.469c-0.342,0.06-0.885,0.12-1.568,0.12c-1.73,0-2.555-0.503-2.555-2.151v-6.737h-1.789
				V38.775z"/>
			<path fill="#00435B" d="M536.456,34.432h2.271v2.071h-2.271V34.432z M536.657,38.815h1.89v10.096h-1.89V38.815z"/>
			<path fill="#00435B" d="M546.611,38.554c4.042,0,4.947,3.178,4.947,5.289c0,2.957-1.669,5.41-5.108,5.41
				c-3.338,0-4.967-2.313-4.967-5.269C541.483,41.49,542.649,38.554,546.611,38.554z M546.491,47.846
				c1.428,0,3.057-1.026,3.057-4.063c0-2.515-1.166-3.842-2.937-3.842c-1.206,0-3.157,0.765-3.157,3.922
				C543.454,45.935,544.339,47.846,546.491,47.846z"/>
			<path fill="#00435B" d="M554.575,39.981l-0.02-1.166h1.89l0.021,1.629c0.221-0.422,0.945-1.83,3.238-1.83
				c0.904,0,3.66,0.342,3.66,3.439v6.857h-1.932v-6.415c0-0.664-0.08-1.268-0.543-1.729c-0.482-0.463-1.146-0.685-1.789-0.685
				c-1.368,0-2.635,0.985-2.635,3.017v5.813h-1.891V39.981z"/>
			<path fill="#00435B" d="M572.213,34.432h2.272v2.071h-2.272V34.432z M572.414,38.815h1.89v10.096h-1.89V38.815z"/>
			<path fill="#00435B" d="M578.045,39.981l-0.021-1.166h1.891l0.021,1.629c0.222-0.422,0.945-1.83,3.237-1.83
				c0.905,0,3.66,0.342,3.66,3.439v6.857h-1.93v-6.415c0-0.664-0.081-1.268-0.543-1.729c-0.483-0.463-1.146-0.685-1.791-0.685
				c-1.367,0-2.634,0.985-2.634,3.017v5.813h-1.891V39.981z"/>
		</g>
		<g>
			<path fill="#00435B" d="M14.259,64.6c0-0.442-0.021-0.685-0.061-1.649h1.91l0.041,1.669c0.944-1.589,2.613-1.83,3.438-1.83
				c2.172,0,4.243,1.488,4.243,5.229c0,3.761-2.191,5.409-4.605,5.409c-1.468,0-2.555-0.623-3.098-1.508v5.008h-1.869V64.6z
				 M18.903,72.04c0.483,0,1.488-0.101,2.133-0.985c0.724-0.985,0.824-2.434,0.824-3.157c0-1.81-0.543-3.7-2.775-3.7
				c-3.017,0-3.017,3.197-3.017,4.103C16.068,69.526,16.249,72.04,18.903,72.04z"/>
			<path fill="#00435B" d="M32.761,73.046c-0.141-0.503-0.182-0.985-0.182-1.509c-0.904,1.67-2.272,1.83-3.117,1.83
				c-2.313,0-3.56-1.307-3.56-2.976c0-0.805,0.282-2.092,1.77-2.957c1.087-0.603,2.695-0.663,3.499-0.663
				c0.483,0,0.785,0.02,1.368,0.061c0-1.247,0-1.79-0.362-2.232c-0.382-0.503-1.207-0.664-1.75-0.664
				c-1.91,0-2.011,1.308-2.031,1.709h-1.89c0.06-0.522,0.12-1.227,0.704-1.91c0.764-0.845,2.191-1.086,3.258-1.086
				c1.468,0,3.037,0.463,3.58,1.488c0.321,0.604,0.342,1.086,0.342,1.549l-0.081,4.826c0,0.161,0.021,1.509,0.161,2.534H32.761z
				 M31.453,68.078c-0.765,0-3.64,0-3.64,2.052c0,0.644,0.401,1.75,2.091,1.75c0.966,0,1.689-0.383,2.151-1.087
				c0.423-0.684,0.443-1.246,0.483-2.654C32.197,68.099,31.915,68.078,31.453,68.078z"/>
			<path fill="#00435B" d="M36.239,62.91h1.79v-2.112l1.87-0.603v2.715h2.252v1.388h-2.252v6.053c0,0.503,0,1.348,1.348,1.348
				c0.382,0,0.744-0.061,0.904-0.101v1.469c-0.342,0.06-0.885,0.12-1.568,0.12c-1.729,0-2.554-0.503-2.554-2.151v-6.737h-1.79V62.91
				z"/>
			<path fill="#00435B" d="M44.304,58.566h2.272v2.071h-2.272V58.566z M44.505,62.95h1.891v10.096h-1.891V62.95z"/>
			<path fill="#00435B" d="M51.221,68.34c-0.04,2.092,0.824,3.641,2.896,3.641c1.227,0,2.212-0.644,2.373-2.092h1.891
				c-0.061,0.503-0.141,1.327-0.865,2.111c-0.442,0.503-1.448,1.348-3.479,1.348c-3.177,0-4.686-1.971-4.686-5.169
				c0-1.99,0.402-3.64,1.991-4.746c0.965-0.684,2.172-0.744,2.755-0.744c4.524,0,4.425,4.002,4.384,5.651H51.221z M56.552,67.013
				c0.02-0.966-0.162-2.977-2.494-2.977c-1.227,0-2.715,0.744-2.756,2.977H56.552z"/>
			<path fill="#00435B" d="M61.317,64.116l-0.02-1.166h1.89l0.021,1.629c0.221-0.422,0.945-1.83,3.238-1.83
				c0.904,0,3.66,0.342,3.66,3.439v6.857h-1.932v-6.415c0-0.664-0.08-1.268-0.543-1.729c-0.482-0.463-1.146-0.685-1.789-0.685
				c-1.368,0-2.635,0.985-2.635,3.017v5.813h-1.891V64.116z"/>
			<path fill="#00435B" d="M71.997,62.91h1.789v-2.112l1.871-0.603v2.715h2.252v1.388h-2.252v6.053c0,0.503,0,1.348,1.348,1.348
				c0.381,0,0.744-0.061,0.904-0.101v1.469c-0.342,0.06-0.885,0.12-1.568,0.12c-1.73,0-2.555-0.503-2.555-2.151v-6.737h-1.789V62.91
				z"/>
			<path fill="#00435B" d="M81.328,70.05c-0.021,0.764,0.382,1.83,2.212,1.83c0.785,0,1.367-0.142,1.77-0.644
				c0.201-0.262,0.322-0.604,0.322-0.945c0-0.985-0.704-1.167-2.213-1.509c-2.111-0.482-3.881-0.905-3.881-3.017
				c0-1.851,1.609-3.057,3.941-3.057c1.268,0,3.037,0.361,3.641,1.568c0.262,0.563,0.262,1.046,0.262,1.468H85.45
				c0.061-1.528-1.267-1.648-1.95-1.648c-0.282,0-2.052,0-2.052,1.448c0,0.925,0.905,1.146,1.428,1.287
				c2.796,0.663,3.399,0.824,4.002,1.387c0.564,0.523,0.765,1.228,0.765,1.871c0,1.126-0.623,2.091-1.367,2.554
				c-0.885,0.543-1.95,0.684-2.997,0.684c-2.051,0-3.961-0.845-3.941-3.277H81.328z"/>
			<path fill="#00435B" d="M96.43,62.95l2.434,8.044l2.555-8.044h2.473l2.293,7.964l2.534-7.964h1.95l-3.559,10.096h-2.172
				l-2.373-8.306l-2.635,8.306h-2.232L94.359,62.95H96.43z"/>
			<path fill="#00435B" d="M112.46,58.566h2.271v2.071h-2.271V58.566z M112.661,62.95h1.89v10.096h-1.89V62.95z"/>
			<path fill="#00435B" d="M116.682,62.91h1.79v-2.112l1.87-0.603v2.715h2.252v1.388h-2.252v6.053c0,0.503,0,1.348,1.348,1.348
				c0.382,0,0.744-0.061,0.904-0.101v1.469c-0.342,0.06-0.885,0.12-1.568,0.12c-1.729,0-2.554-0.503-2.554-2.151v-6.737h-1.79V62.91
				z"/>
			<path fill="#00435B" d="M124.928,58.546h1.911v5.893c0.623-1.066,1.87-1.669,3.277-1.669c1.066,0,2.595,0.382,3.178,1.608
				c0.201,0.402,0.342,0.885,0.342,2.354v6.314h-1.93v-5.973c0-0.905,0-2.856-2.173-2.856c-1.407,0-2.111,0.865-2.373,1.348
				c-0.321,0.563-0.321,1.509-0.321,2.132v5.35h-1.911V58.546z"/>
			<path fill="#00435B" d="M147.854,59.934c-0.322-0.021-0.725-0.04-1.106-0.04c-1.528,0-1.528,0.764-1.528,1.468v1.589h2.354v1.367
				h-2.354v8.729h-1.87v-8.729h-1.991V62.95h1.991v-1.146c0-1.388,0.08-1.891,0.422-2.413c0.423-0.644,1.228-1.106,2.534-1.106
				c0.543,0,1.146,0.081,1.549,0.141V59.934z"/>
			<path fill="#00435B" d="M155.657,73.046c-0.141-0.503-0.182-0.985-0.182-1.509c-0.904,1.67-2.271,1.83-3.117,1.83
				c-2.313,0-3.559-1.307-3.559-2.976c0-0.805,0.281-2.092,1.77-2.957c1.086-0.603,2.695-0.663,3.499-0.663
				c0.483,0,0.784,0.02,1.368,0.061c0-1.247,0-1.79-0.363-2.232c-0.381-0.503-1.206-0.664-1.749-0.664
				c-1.911,0-2.011,1.308-2.031,1.709h-1.89c0.06-0.522,0.12-1.227,0.703-1.91c0.764-0.845,2.192-1.086,3.258-1.086
				c1.469,0,3.037,0.463,3.58,1.488c0.322,0.604,0.342,1.086,0.342,1.549l-0.08,4.826c0,0.161,0.02,1.509,0.16,2.534H155.657z
				 M154.35,68.078c-0.765,0-3.641,0-3.641,2.052c0,0.644,0.402,1.75,2.092,1.75c0.965,0,1.689-0.383,2.151-1.087
				c0.423-0.684,0.442-1.246,0.483-2.654C155.095,68.099,154.812,68.078,154.35,68.078z"/>
			<path fill="#00435B" d="M160.665,64.298l-0.04-1.348h1.911v1.468c0.965-1.589,2.332-1.729,3.197-1.729
				c2.232,0,2.936,1.146,3.298,1.891c0.342-0.563,1.167-1.891,3.399-1.891c1.447,0,3.7,0.604,3.7,3.58v6.777h-1.911V66.57
				c0-0.885-0.16-1.268-0.342-1.528c-0.321-0.463-0.965-0.885-1.931-0.885c-1.227,0-1.89,0.703-2.151,1.065
				c-0.443,0.623-0.443,1.729-0.443,2.172v5.651h-1.91v-6.677c0-1.247-0.724-2.212-2.212-2.212c-1.287,0-1.991,0.804-2.212,1.105
				c-0.423,0.583-0.443,1.408-0.443,2.052v5.731h-1.91V64.298z"/>
			<path fill="#00435B" d="M179.489,58.566h2.271v2.071h-2.271V58.566z M179.69,62.95h1.89v10.096h-1.89V62.95z"/>
			<path fill="#00435B" d="M185.301,58.546h1.891v14.5h-1.891V58.546z"/>
			<path fill="#00435B" d="M190.671,58.566h2.271v2.071h-2.271V58.566z M190.872,62.95h1.89v10.096h-1.89V62.95z"/>
			<path fill="#00435B" d="M202.596,73.046c-0.141-0.503-0.182-0.985-0.182-1.509c-0.904,1.67-2.272,1.83-3.117,1.83
				c-2.313,0-3.56-1.307-3.56-2.976c0-0.805,0.282-2.092,1.77-2.957c1.087-0.603,2.695-0.663,3.499-0.663
				c0.483,0,0.785,0.02,1.368,0.061c0-1.247,0-1.79-0.362-2.232c-0.382-0.503-1.207-0.664-1.75-0.664
				c-1.91,0-2.011,1.308-2.031,1.709h-1.89c0.06-0.522,0.12-1.227,0.704-1.91c0.764-0.845,2.191-1.086,3.258-1.086
				c1.468,0,3.037,0.463,3.58,1.488c0.321,0.604,0.342,1.086,0.342,1.549l-0.081,4.826c0,0.161,0.021,1.509,0.161,2.534H202.596z
				 M201.289,68.078c-0.765,0-3.64,0-3.64,2.052c0,0.644,0.401,1.75,2.091,1.75c0.966,0,1.689-0.383,2.151-1.087
				c0.423-0.684,0.443-1.246,0.483-2.654C202.033,68.099,201.751,68.078,201.289,68.078z"/>
			<path fill="#00435B" d="M207.664,58.546h1.891v14.5h-1.891V58.546z"/>
			<path fill="#00435B" d="M218.805,58.546h1.91v5.893c0.623-1.066,1.871-1.669,3.278-1.669c1.065,0,2.595,0.382,3.178,1.608
				c0.2,0.402,0.342,0.885,0.342,2.354v6.314h-1.931v-5.973c0-0.905,0-2.856-2.172-2.856c-1.408,0-2.111,0.865-2.373,1.348
				c-0.322,0.563-0.322,1.509-0.322,2.132v5.35h-1.91V58.546z"/>
			<path fill="#00435B" d="M235.236,73.106l-1.448,3.761h-1.951l1.529-3.861l-4.203-10.056h2.131l3.158,7.964l3.218-7.964h2.052
				L235.236,73.106z"/>
			<path fill="#00435B" d="M241.812,64.6c0-0.442-0.021-0.685-0.061-1.649h1.911l0.04,1.669c0.944-1.589,2.614-1.83,3.438-1.83
				c2.172,0,4.244,1.488,4.244,5.229c0,3.761-2.192,5.409-4.605,5.409c-1.469,0-2.555-0.623-3.098-1.508v5.008h-1.87V64.6z
				 M246.458,72.04c0.482,0,1.488-0.101,2.132-0.985c0.724-0.985,0.825-2.434,0.825-3.157c0-1.81-0.543-3.7-2.775-3.7
				c-3.018,0-3.018,3.197-3.018,4.103C243.622,69.526,243.804,72.04,246.458,72.04z"/>
			<path fill="#00435B" d="M255.306,68.34c-0.04,2.092,0.825,3.641,2.896,3.641c1.228,0,2.213-0.644,2.373-2.092h1.891
				c-0.061,0.503-0.141,1.327-0.864,2.111c-0.442,0.503-1.448,1.348-3.479,1.348c-3.178,0-4.686-1.971-4.686-5.169
				c0-1.99,0.402-3.64,1.99-4.746c0.966-0.684,2.173-0.744,2.756-0.744c4.525,0,4.424,4.002,4.385,5.651H255.306z M260.636,67.013
				c0.021-0.966-0.16-2.977-2.493-2.977c-1.228,0-2.716,0.744-2.755,2.977H260.636z"/>
			<path fill="#00435B" d="M265.442,65.002c0-0.685-0.04-1.388-0.101-2.052h1.911l0.04,1.951c0.362-1.408,1.568-1.871,2.413-1.991
				c0.563-0.081,0.985-0.061,1.307-0.04v1.85c-0.1-0.04-0.221-0.061-0.361-0.08c-0.141-0.021-0.322-0.021-0.543-0.021
				c-2.232,0-2.756,1.327-2.756,3.057v5.37h-1.91V65.002z"/>
			<path fill="#00435B" d="M278.917,66.188c-0.04-0.463-0.182-2.112-2.012-2.112c-2.613,0-2.613,3.037-2.613,3.801
				c0,2.072,0.502,4.003,2.514,4.003c1.608,0,2.151-1.207,2.191-2.192h1.911c-0.12,1.971-1.589,3.62-4.083,3.62
				c-0.684,0-2.252-0.141-3.318-1.308c-0.604-0.704-1.207-1.77-1.207-3.861c0-4.203,2.574-5.45,4.586-5.45
				c0.664,0,2.172,0.141,3.098,1.247c0.744,0.865,0.805,1.689,0.844,2.253H278.917z"/>
			<path fill="#00435B" d="M282.235,58.546h1.91v5.893c0.623-1.066,1.871-1.669,3.278-1.669c1.065,0,2.595,0.382,3.178,1.608
				c0.2,0.402,0.342,0.885,0.342,2.354v6.314h-1.931v-5.973c0-0.905,0-2.856-2.172-2.856c-1.408,0-2.111,0.865-2.373,1.348
				c-0.322,0.563-0.322,1.509-0.322,2.132v5.35h-1.91V58.546z"/>
			<path fill="#00435B" d="M298.907,62.688c4.042,0,4.947,3.178,4.947,5.289c0,2.957-1.67,5.41-5.108,5.41
				c-3.339,0-4.968-2.313-4.968-5.269C293.778,65.625,294.944,62.688,298.907,62.688z M298.786,71.98
				c1.428,0,3.057-1.026,3.057-4.063c0-2.515-1.166-3.842-2.936-3.842c-1.207,0-3.158,0.765-3.158,3.922
				C295.749,70.069,296.634,71.98,298.786,71.98z"/>
			<path fill="#00435B" d="M306.85,58.546h1.891v14.5h-1.891V58.546z"/>
			<path fill="#00435B" d="M313.548,68.34c-0.041,2.092,0.824,3.641,2.896,3.641c1.228,0,2.212-0.644,2.373-2.092h1.891
				c-0.061,0.503-0.141,1.327-0.864,2.111c-0.443,0.503-1.449,1.348-3.48,1.348c-3.177,0-4.686-1.971-4.686-5.169
				c0-1.99,0.402-3.64,1.991-4.746c0.966-0.684,2.173-0.744,2.755-0.744c4.525,0,4.425,4.002,4.385,5.651H313.548z M318.877,67.013
				c0.021-0.966-0.161-2.977-2.493-2.977c-1.228,0-2.716,0.744-2.756,2.977H318.877z"/>
			<path fill="#00435B" d="M324.669,70.05c-0.021,0.764,0.382,1.83,2.212,1.83c0.784,0,1.368-0.142,1.771-0.644
				c0.201-0.262,0.321-0.604,0.321-0.945c0-0.985-0.704-1.167-2.212-1.509c-2.112-0.482-3.882-0.905-3.882-3.017
				c0-1.851,1.608-3.057,3.942-3.057c1.267,0,3.036,0.361,3.64,1.568c0.261,0.563,0.261,1.046,0.261,1.468h-1.93
				c0.061-1.528-1.268-1.648-1.951-1.648c-0.281,0-2.051,0-2.051,1.448c0,0.925,0.904,1.146,1.428,1.287
				c2.795,0.663,3.398,0.824,4.002,1.387c0.563,0.523,0.764,1.228,0.764,1.871c0,1.126-0.623,2.091-1.367,2.554
				c-0.885,0.543-1.951,0.684-2.996,0.684c-2.052,0-3.963-0.845-3.942-3.277H324.669z"/>
			<path fill="#00435B" d="M332.09,62.91h1.79v-2.112l1.87-0.603v2.715h2.253v1.388h-2.253v6.053c0,0.503,0,1.348,1.348,1.348
				c0.382,0,0.744-0.061,0.905-0.101v1.469c-0.342,0.06-0.885,0.12-1.568,0.12c-1.73,0-2.555-0.503-2.555-2.151v-6.737h-1.79V62.91z
				"/>
			<path fill="#00435B" d="M341.481,68.34c-0.04,2.092,0.824,3.641,2.896,3.641c1.227,0,2.212-0.644,2.373-2.092h1.891
				c-0.061,0.503-0.141,1.327-0.865,2.111c-0.442,0.503-1.448,1.348-3.479,1.348c-3.177,0-4.686-1.971-4.686-5.169
				c0-1.99,0.402-3.64,1.991-4.746c0.965-0.684,2.172-0.744,2.755-0.744c4.524,0,4.425,4.002,4.384,5.651H341.481z M346.811,67.013
				c0.02-0.966-0.162-2.977-2.494-2.977c-1.227,0-2.715,0.744-2.756,2.977H346.811z"/>
			<path fill="#00435B" d="M351.617,65.002c0-0.685-0.04-1.388-0.101-2.052h1.91l0.041,1.951c0.361-1.408,1.568-1.871,2.413-1.991
				c0.563-0.081,0.985-0.061,1.308-0.04v1.85c-0.102-0.04-0.222-0.061-0.362-0.08c-0.141-0.021-0.321-0.021-0.543-0.021
				c-2.232,0-2.755,1.327-2.755,3.057v5.37h-1.911V65.002z"/>
			<path fill="#00435B" d="M363.723,62.688c4.043,0,4.948,3.178,4.948,5.289c0,2.957-1.669,5.41-5.108,5.41
				c-3.338,0-4.967-2.313-4.967-5.269C358.596,65.625,359.763,62.688,363.723,62.688z M363.603,71.98
				c1.429,0,3.058-1.026,3.058-4.063c0-2.515-1.167-3.842-2.938-3.842c-1.206,0-3.156,0.765-3.156,3.922
				C360.567,70.069,361.452,71.98,363.603,71.98z"/>
			<path fill="#00435B" d="M371.668,58.546h1.891v14.5h-1.891V58.546z"/>
			<path fill="#00435B" d="M378.364,68.34c-0.039,2.092,0.825,3.641,2.896,3.641c1.227,0,2.213-0.644,2.373-2.092h1.891
				c-0.061,0.503-0.141,1.327-0.865,2.111c-0.441,0.503-1.447,1.348-3.479,1.348c-3.178,0-4.686-1.971-4.686-5.169
				c0-1.99,0.401-3.64,1.99-4.746c0.965-0.684,2.172-0.744,2.756-0.744c4.524,0,4.424,4.002,4.384,5.651H378.364z M383.694,67.013
				c0.02-0.966-0.161-2.977-2.494-2.977c-1.227,0-2.715,0.744-2.755,2.977H383.694z"/>
			<path fill="#00435B" d="M388.38,64.298l-0.04-1.348h1.911v1.468c0.965-1.589,2.332-1.729,3.197-1.729
				c2.232,0,2.936,1.146,3.298,1.891c0.342-0.563,1.167-1.891,3.399-1.891c1.447,0,3.7,0.604,3.7,3.58v6.777h-1.911V66.57
				c0-0.885-0.16-1.268-0.342-1.528c-0.321-0.463-0.965-0.885-1.931-0.885c-1.227,0-1.89,0.703-2.151,1.065
				c-0.443,0.623-0.443,1.729-0.443,2.172v5.651h-1.91v-6.677c0-1.247-0.724-2.212-2.212-2.212c-1.287,0-1.991,0.804-2.212,1.105
				c-0.423,0.583-0.443,1.408-0.443,2.052v5.731h-1.91V64.298z"/>
			<path fill="#00435B" d="M407.204,58.566h2.271v2.071h-2.271V58.566z M407.405,62.95h1.89v10.096h-1.89V62.95z"/>
			<path fill="#00435B" d="M419.13,73.046c-0.141-0.503-0.182-0.985-0.182-1.509c-0.904,1.67-2.272,1.83-3.117,1.83
				c-2.313,0-3.56-1.307-3.56-2.976c0-0.805,0.282-2.092,1.77-2.957c1.087-0.603,2.695-0.663,3.499-0.663
				c0.483,0,0.785,0.02,1.368,0.061c0-1.247,0-1.79-0.362-2.232c-0.382-0.503-1.207-0.664-1.75-0.664
				c-1.91,0-2.011,1.308-2.031,1.709h-1.89c0.06-0.522,0.12-1.227,0.704-1.91c0.764-0.845,2.191-1.086,3.258-1.086
				c1.468,0,3.037,0.463,3.58,1.488c0.321,0.604,0.342,1.086,0.342,1.549l-0.081,4.826c0,0.161,0.021,1.509,0.161,2.534H419.13z
				 M417.822,68.078c-0.765,0-3.64,0-3.64,2.052c0,0.644,0.401,1.75,2.091,1.75c0.966,0,1.689-0.383,2.151-1.087
				c0.423-0.684,0.443-1.246,0.483-2.654C418.566,68.099,418.284,68.078,417.822,68.078z"/>
		</g>
		<g>
			<path fill="#00435B" d="M425.028,58.664c-0.473,0.396-1.232,0.848-1.771,1.101v-1.101c0.716-0.374,1.42-0.836,1.849-1.199h0.979
				v7.613h-1.057V58.664z"/>
		</g>
	</g>
	<rect x="0" y="6.307" fill="#00435B" width="5.537" height="5.537"/>
	<rect x="0" y="40.526" fill="#00435B" width="5.537" height="5.537"/>
</g>
</svg>
