<?xml version="1.0" encoding="utf-8"?>
<!-- Generator: Adobe Illustrator 17.0.0, SVG Export Plug-In . SVG Version: 6.00 Build 0)  -->
<!DOCTYPE svg PUBLIC "-//W3C//DTD SVG 1.1//EN" "http://www.w3.org/Graphics/SVG/1.1/DTD/svg11.dtd">
<svg version="1.1" id="Layer_1" xmlns="http://www.w3.org/2000/svg" xmlns:xlink="http://www.w3.org/1999/xlink" x="0px" y="0px"
	 width="534.647px" height="364.961px" viewBox="0 0 534.647 364.961" enable-background="new 0 0 534.647 364.961"
	 xml:space="preserve">
<g>
	<g>
		<defs>
			<rect id="SVGID_27_" x="26.477" y="341.55" width="522.692" height="329.505"/>
		</defs>
		<clipPath id="SVGID_1_">
			<use xlink:href="#SVGID_27_"  overflow="visible"/>
		</clipPath>
	</g>
</g>
<g>
	<defs>
		<rect id="SVGID_40_" x="26.477" y="341.55" width="522.692" height="329.505"/>
	</defs>
	<clipPath id="SVGID_3_">
		<use xlink:href="#SVGID_40_"  overflow="visible"/>
	</clipPath>
</g>
<g>
	<g>
		
			<radialGradient id="SVGID_5_" cx="267.3233" cy="117.0074" r="238.9044" gradientTransform="matrix(1 0 0 0.8832 0 79.1395)" gradientUnits="userSpaceOnUse">
			<stop  offset="0" style="stop-color:#A0D4E4;stop-opacity:0"/>
			<stop  offset="0.0392" style="stop-color:#9DD2E5;stop-opacity:0.197"/>
			<stop  offset="0.0707" style="stop-color:#93CDE6;stop-opacity:0.3552"/>
			<stop  offset="0.0995" style="stop-color:#82C4E9;stop-opacity:0.5"/>
			<stop  offset="0.1267" style="stop-color:#6AB8ED;stop-opacity:0.6367"/>
			<stop  offset="0.1528" style="stop-color:#4BA8F2;stop-opacity:0.7679"/>
			<stop  offset="0.1777" style="stop-color:#2694F9;stop-opacity:0.893"/>
			<stop  offset="0.199" style="stop-color:#0080FF"/>
			<stop  offset="0.2012" style="stop-color:#007FFC"/>
			<stop  offset="0.2379" style="stop-color:#006CD3"/>
			<stop  offset="0.2776" style="stop-color:#015BAF"/>
			<stop  offset="0.3223" style="stop-color:#014D8F"/>
			<stop  offset="0.3717" style="stop-color:#014073"/>
			<stop  offset="0.4275" style="stop-color:#02365D"/>
			<stop  offset="0.4927" style="stop-color:#022E4C"/>
			<stop  offset="0.5733" style="stop-color:#022941"/>
			<stop  offset="0.6863" style="stop-color:#02263A"/>
			<stop  offset="1" style="stop-color:#022538"/>
		</radialGradient>
		<path fill="url(#SVGID_5_)" d="M534.647,321.111c0,15.099-13.859,27.339-30.956,27.339c0,0-185.795,16.721-247.96,16.509
			c-56.387-0.192-224.774-16.509-224.774-16.509C13.86,348.45,0,336.21,0,321.111V40.633c0-15.099,13.86-27.339,30.956-27.339
			C30.956,13.294,199.537,0,255.73,0c61.99,0,247.96,13.294,247.96,13.294c17.097,0,30.956,12.24,30.956,27.339V321.111z"/>
		<g>
			
				<radialGradient id="SVGID_7_" cx="267.3233" cy="117.0074" r="233.786" gradientTransform="matrix(1 0 0 0.8832 0 79.1395)" gradientUnits="userSpaceOnUse">
				<stop  offset="0" style="stop-color:#FFFFFF"/>
				<stop  offset="1" style="stop-color:#F7F7F7"/>
			</radialGradient>
			<path fill="url(#SVGID_7_)" d="M528.919,318.14c0,14.776-13.563,26.753-30.293,26.753c0,0-181.814,16.363-242.648,16.156
				C200.8,360.861,36.02,344.894,36.02,344.894c-16.73,0-30.293-11.978-30.293-26.753V43.672c0-14.775,13.563-26.753,30.293-26.753
				c0,0,164.969-13.009,219.959-13.009c60.662,0,242.648,13.009,242.648,13.009c16.73,0,30.293,11.978,30.293,26.753V318.14z"/>
		</g>
	</g>
	<g>
		<defs>
			<rect id="SVGID_49_" x="6.131" y="10.844" width="522.692" height="329.505"/>
		</defs>
		<clipPath id="SVGID_9_">
			<use xlink:href="#SVGID_49_"  overflow="visible"/>
		</clipPath>
		<g opacity="0.9" clip-path="url(#SVGID_9_)">
			<g>
				<defs>
					<rect id="SVGID_51_" x="6.131" y="10.842" width="522.693" height="329.506"/>
				</defs>
				<clipPath id="SVGID_10_">
					<use xlink:href="#SVGID_51_"  overflow="visible"/>
				</clipPath>
				<g clip-path="url(#SVGID_10_)">
					<defs>
						<rect id="SVGID_53_" x="6.131" y="10.842" width="522.692" height="329.505"/>
					</defs>
					<clipPath id="SVGID_11_">
						<use xlink:href="#SVGID_53_"  overflow="visible"/>
					</clipPath>
				</g>
			</g>
		</g>
	</g>
	<g>
		<defs>
			<rect id="SVGID_55_" x="6.131" y="10.844" width="522.692" height="329.505"/>
		</defs>
		<clipPath id="SVGID_12_">
			<use xlink:href="#SVGID_55_"  overflow="visible"/>
		</clipPath>
		<g clip-path="url(#SVGID_12_)">
			<path fill="#04607D" d="M20.172,253.431v-1.464h9.176v-4.968h1.29v6.432H20.172z"/>
			<path fill="#04607D" d="M20.172,245.282v-3.091c0-1.434,0-3.119,1.362-4.303c1.088-0.946,2.522-1.315,3.958-1.315
				c2.261,0,3.652,0.961,4.29,1.774c0.855,1.05,0.855,2.365,0.855,3.933v3.002H20.172z M29.449,243.803v-1.449
				c0-1.021-0.058-2.085-0.58-2.795c-1-1.36-2.71-1.404-3.319-1.404c-0.392,0-2.174,0.029-3.262,1.035
				c-0.739,0.68-0.913,1.537-0.913,2.839v1.774H29.449z"/>
			<path fill="#04607D" d="M20.172,234.529v-1.464h9.176v-4.968h1.29v6.432H20.172z"/>
			<path fill="#04607D" d="M26.274,229.632v-3.711h1.102v3.711H26.274z"/>
			<path fill="#04607D" d="M22.999,217.595c-0.363,0.06-1.813,0.252-1.813,2.307c0,2.573,2.58,3.031,4.32,3.031
				c1.971,0,4.102-0.576,4.102-3.016c0-0.651-0.159-1.272-0.623-1.73c-0.406-0.385-0.855-0.473-1.102-0.518v-1.626
				c2.059,0.222,2.914,2.158,2.914,3.992c0,3.755-3.247,4.479-5.277,4.479c-2.203,0-5.493-0.872-5.493-4.672
				c0-1.509,0.594-3.638,2.972-3.83V217.595z"/>
			<path fill="#04607D" d="M31.203,208.616l-11.162-6.521v-0.976l11.162,6.521V208.616z M22.898,205.777
				c1.797,0,2.623,1.079,2.623,2.425c0,1.286-0.753,2.381-2.536,2.381c-1.522,0-2.653-0.843-2.653-2.514
				C20.331,206.368,21.578,205.777,22.898,205.777z M22.955,206.945c-0.71,0-1.754,0.178-1.754,1.228
				c0,1.271,1.421,1.271,1.769,1.271c0.333,0,1.71,0,1.71-1.271C24.68,206.945,23.245,206.945,22.955,206.945z M26.318,199.596
				c0.29-0.266,0.754-0.606,1.841-0.606c1.58,0,2.652,0.784,2.652,2.381c0,1.893-1.377,2.425-2.58,2.425
				c-1.754,0-2.609-1.108-2.609-2.425C25.622,200.971,25.695,200.173,26.318,199.596z M28.189,200.114
				c-0.45,0-1.754,0.089-1.754,1.242c0,1.271,1.507,1.271,1.942,1.271c0.507,0,1.58-0.118,1.58-1.242
				C29.957,200.202,28.71,200.114,28.189,200.114z"/>
			<path fill="#04607D" d="M25.695,188.56c-0.334,0.03-1.522,0.134-1.522,1.479c0,1.923,2.188,1.923,2.739,1.923
				c1.493,0,2.885-0.37,2.885-1.849c0-1.183-0.869-1.582-1.58-1.611v-1.405c1.421,0.089,2.609,1.169,2.609,3.002
				c0,0.503-0.102,1.656-0.942,2.439c-0.507,0.443-1.275,0.888-2.783,0.888c-3.029,0-3.928-1.893-3.928-3.371
				c0-0.488,0.102-1.598,0.898-2.277c0.623-0.547,1.218-0.592,1.624-0.621V188.56z"/>
			<path fill="#04607D" d="M20.187,186.133v-1.405h4.247c-0.769-0.458-1.203-1.375-1.203-2.41c0-0.783,0.275-1.907,1.16-2.336
				c0.289-0.147,0.638-0.251,1.695-0.251h4.552v1.419h-4.305c-0.652,0-2.059,0-2.059,1.597c0,1.035,0.623,1.553,0.971,1.745
				c0.406,0.236,1.088,0.236,1.537,0.236h3.855v1.405H20.187z"/>
			<path fill="#04607D" d="M30.638,172.572c-0.362,0.104-0.71,0.133-1.087,0.133c1.203,0.665,1.319,1.671,1.319,2.292
				c0,1.7-0.942,2.617-2.146,2.617c-0.58,0-1.508-0.207-2.131-1.302c-0.435-0.798-0.479-1.981-0.479-2.572
				c0-0.355,0.015-0.577,0.044-1.006c-0.899,0-1.291,0-1.609,0.267c-0.362,0.28-0.479,0.887-0.479,1.286
				c0,1.404,0.942,1.479,1.232,1.493v1.39c-0.377-0.044-0.885-0.089-1.377-0.518c-0.609-0.562-0.783-1.611-0.783-2.395
				c0-1.08,0.333-2.233,1.072-2.632c0.436-0.237,0.783-0.252,1.116-0.252l3.479,0.06c0.116,0,1.087-0.015,1.826-0.118V172.572z
				 M27.058,173.533c0,0.562,0,2.676,1.479,2.676c0.464,0,1.261-0.296,1.261-1.537c0-0.71-0.275-1.242-0.782-1.582
				c-0.493-0.311-0.899-0.326-1.914-0.355C27.072,172.986,27.058,173.193,27.058,173.533z"/>
			<path fill="#04607D" d="M24.202,168.827l-0.841,0.015v-1.39l1.174-0.015c-0.305-0.163-1.319-0.695-1.319-2.381
				c0-0.665,0.247-2.69,2.479-2.69h4.942v1.419h-4.624c-0.479,0-0.913,0.06-1.246,0.399c-0.334,0.354-0.493,0.843-0.493,1.316
				c0,1.005,0.71,1.937,2.174,1.937h4.189v1.39H24.202z"/>
			<path fill="#04607D" d="M31.203,158.504c0.812-0.06,1.421-0.414,1.421-1.729c0-1.938-1.377-1.967-3.349-1.967
				c1.203,0.591,1.232,1.996,1.232,2.439c0,0.68-0.146,1.656-0.899,2.277c-0.739,0.636-1.71,0.843-2.682,0.843
				c-2.464,0-3.667-1.479-3.667-3.298c0-1.493,0.725-2.04,1.102-2.336l-1-0.015v-1.346l1.318,0.029l4.552,0.016
				c1.754,0,2.465,0.059,3.016,0.354c1.159,0.621,1.305,2.07,1.305,3.09c0,2.973-1.362,3.061-2.349,3.12V158.504z M28.768,155.266
				c-0.377-0.296-0.768-0.503-2.087-0.503c-0.913,0-1.436,0.207-1.813,0.577c-0.391,0.369-0.638,0.961-0.638,1.597
				c0,1.76,1.74,1.996,2.668,1.996c1.116,0,2.595-0.34,2.595-2.04C29.493,156.079,29.203,155.606,28.768,155.266z"/>
			<path fill="#04607D" d="M27.246,149.955c1.508,0.029,2.624-0.606,2.624-2.13c0-0.901-0.464-1.626-1.508-1.744v-1.39
				c0.362,0.044,0.956,0.104,1.521,0.636c0.362,0.325,0.972,1.064,0.972,2.558c0,2.336-1.421,3.445-3.726,3.445
				c-1.435,0-2.624-0.296-3.421-1.464c-0.493-0.71-0.536-1.597-0.536-2.025c0-3.327,2.885-3.253,4.073-3.224V149.955z
				 M26.289,146.036c-0.695-0.015-2.146,0.118-2.146,1.834c0,0.901,0.536,1.996,2.146,2.025V146.036z"/>
		</g>
		<g clip-path="url(#SVGID_12_)">
			<path fill="#04607D" d="M40.51,242.415c-0.015,0.237-0.029,0.532-0.029,0.813c0,1.124,0.551,1.124,1.059,1.124h1.146v-1.73h0.985
				v1.73h6.291v1.375H43.67v1.464h-0.985v-1.464h-0.826c-1.001,0-1.363-0.06-1.74-0.311c-0.464-0.311-0.797-0.902-0.797-1.863
				c0-0.399,0.058-0.843,0.102-1.139H40.51z"/>
			<path fill="#04607D" d="M44.163,241.128c-0.493,0-1,0.029-1.479,0.074v-1.405l1.406-0.029c-1.016-0.267-1.349-1.153-1.436-1.774
				c-0.058-0.414-0.044-0.725-0.029-0.961h1.334c-0.029,0.074-0.044,0.163-0.058,0.266c-0.015,0.104-0.015,0.237-0.015,0.399
				c0,1.642,0.956,2.026,2.203,2.026h3.87v1.404H44.163z"/>
			<path fill="#04607D" d="M42.496,232.225c0-2.972,2.29-3.638,3.813-3.638c2.131,0,3.899,1.228,3.899,3.756
				c0,2.454-1.667,3.652-3.798,3.652C44.612,235.995,42.496,235.138,42.496,232.225z M49.193,232.314c0-1.05-0.74-2.248-2.929-2.248
				c-1.812,0-2.769,0.858-2.769,2.159c0,0.887,0.551,2.321,2.826,2.321C47.815,234.546,49.193,233.896,49.193,232.314z"/>
			<path fill="#04607D" d="M43.655,226.426l-0.971,0.029v-1.404h1.058c-1.145-0.71-1.246-1.716-1.246-2.352
				c0-1.641,0.826-2.158,1.362-2.425c-0.406-0.251-1.362-0.857-1.362-2.498c0-1.065,0.435-2.721,2.58-2.721h4.885v1.404h-4.667
				c-0.639,0-0.914,0.118-1.103,0.251c-0.333,0.237-0.638,0.71-0.638,1.42c0,0.901,0.508,1.39,0.769,1.582
				c0.449,0.325,1.247,0.325,1.565,0.325h4.073v1.404h-4.813c-0.898,0-1.595,0.532-1.595,1.627c0,0.946,0.58,1.464,0.798,1.626
				c0.42,0.311,1.015,0.325,1.479,0.325h4.131v1.405H43.655z"/>
			<path fill="#04607D" d="M43.742,206.947c-0.333-0.191-1.246-0.739-1.246-2.425c0-0.739,0.174-1.671,0.928-2.351
				c0.42-0.37,1.145-0.872,2.739-0.872c1.406,0,2.175,0.34,2.653,0.709c0.826,0.592,1.246,1.582,1.246,2.603
				c0,0.355-0.043,1.021-0.464,1.656c-0.275,0.414-0.521,0.576-0.739,0.725l1.102,0.029v1.346l-1.305-0.029h-9.161v-1.391H43.742z
				 M43.424,204.847c0,2.13,2.435,2.13,2.898,2.13c0.479,0,2.755,0,2.755-2.07c0-1.715-1.639-2.144-2.827-2.144
				C45.525,202.763,43.424,202.91,43.424,204.847z"/>
			<path fill="#04607D" d="M49.961,194.776c-0.362,0.104-0.71,0.133-1.087,0.133c1.203,0.665,1.319,1.671,1.319,2.292
				c0,1.7-0.942,2.617-2.146,2.617c-0.58,0-1.508-0.207-2.131-1.302c-0.435-0.798-0.479-1.981-0.479-2.572
				c0-0.355,0.015-0.577,0.044-1.006c-0.899,0-1.291,0-1.609,0.267c-0.362,0.28-0.479,0.887-0.479,1.286
				c0,1.404,0.942,1.479,1.232,1.493v1.39c-0.377-0.044-0.885-0.089-1.377-0.518c-0.609-0.562-0.783-1.611-0.783-2.395
				c0-1.08,0.333-2.233,1.072-2.632c0.436-0.237,0.783-0.252,1.116-0.252l3.479,0.06c0.116,0,1.087-0.015,1.826-0.118V194.776z
				 M46.381,195.737c0,0.562,0,2.676,1.479,2.676c0.464,0,1.261-0.296,1.261-1.537c0-0.71-0.275-1.242-0.782-1.582
				c-0.493-0.311-0.899-0.326-1.914-0.355C46.396,195.19,46.381,195.396,46.381,195.737z"/>
			<path fill="#04607D" d="M47.802,190.278c0.551,0.015,1.318-0.281,1.318-1.626c0-0.577-0.102-1.006-0.464-1.302
				c-0.188-0.147-0.435-0.236-0.681-0.236c-0.711,0-0.841,0.518-1.088,1.626c-0.348,1.553-0.652,2.854-2.174,2.854
				c-1.334,0-2.203-1.184-2.203-2.898c0-0.932,0.261-2.232,1.13-2.676c0.406-0.192,0.754-0.192,1.059-0.192v1.419
				c-1.102-0.044-1.188,0.932-1.188,1.435c0,0.207,0,1.508,1.044,1.508c0.666,0,0.826-0.665,0.928-1.05
				c0.478-2.055,0.594-2.499,1-2.942c0.377-0.414,0.884-0.562,1.348-0.562c0.812,0,1.508,0.458,1.841,1.005
				c0.392,0.651,0.493,1.435,0.493,2.203c0,1.509-0.608,2.913-2.362,2.898V190.278z"/>
			<path fill="#04607D" d="M46.569,182.838c1.508,0.029,2.624-0.606,2.624-2.13c0-0.901-0.464-1.626-1.508-1.744v-1.39
				c0.362,0.044,0.956,0.104,1.521,0.636c0.362,0.325,0.972,1.064,0.972,2.558c0,2.336-1.421,3.445-3.726,3.445
				c-1.435,0-2.624-0.296-3.421-1.464c-0.493-0.71-0.536-1.597-0.536-2.025c0-3.327,2.885-3.253,4.073-3.224V182.838z
				 M45.612,178.919c-0.695-0.015-2.146,0.118-2.146,1.834c0,0.901,0.536,1.996,2.146,2.025V178.919z"/>
			<path fill="#04607D" d="M39.51,175.426v-1.39h10.451v1.39H39.51z"/>
			<path fill="#04607D" d="M39.524,171.478v-1.671h1.493v1.671H39.524z M42.685,171.329v-1.39h7.276v1.39H42.685z"/>
			<path fill="#04607D" d="M43.525,167.188l-0.841,0.015v-1.39l1.174-0.015c-0.305-0.163-1.319-0.695-1.319-2.381
				c0-0.665,0.247-2.69,2.479-2.69h4.942v1.419h-4.624c-0.479,0-0.913,0.06-1.246,0.399c-0.334,0.354-0.493,0.843-0.493,1.316
				c0,1.005,0.71,1.937,2.174,1.937h4.189v1.39H43.525z"/>
			<path fill="#04607D" d="M46.569,157.353c1.508,0.029,2.624-0.606,2.624-2.13c0-0.901-0.464-1.626-1.508-1.744v-1.39
				c0.362,0.044,0.956,0.104,1.521,0.636c0.362,0.325,0.972,1.064,0.972,2.558c0,2.336-1.421,3.445-3.726,3.445
				c-1.435,0-2.624-0.296-3.421-1.464c-0.493-0.71-0.536-1.597-0.536-2.026c0-3.326,2.885-3.252,4.073-3.223V157.353z
				 M45.612,153.434c-0.695-0.015-2.146,0.118-2.146,1.834c0,0.901,0.536,1.996,2.146,2.025V153.434z"/>
		</g>
		<g clip-path="url(#SVGID_12_)">
			<path fill="#085F7B" d="M53.088,319.875h3.94v1.218h-3.94V319.875z"/>
			<path fill="#085F7B" d="M61.912,315.357c-0.675,0.577-1.758,1.233-2.527,1.603v-1.603c1.021-0.545,2.025-1.218,2.638-1.746h1.397
				v11.087h-1.508V315.357z"/>
			<path fill="#085F7B" d="M69.875,313.386c3.25,0,3.643,3.557,3.643,5.64c0,2.628-0.519,4.102-1.508,5.047
				c-0.769,0.737-1.68,0.85-2.166,0.85c-1.445,0-2.434-0.865-2.905-1.843c-0.361-0.737-0.706-1.811-0.706-3.797
				C66.232,317.632,66.421,313.386,69.875,313.386z M69.859,323.592c1.821,0,2.135-2.436,2.135-4.422
				c0-2.66-0.455-4.502-2.104-4.502c-1.9,0-2.151,2.547-2.151,4.534C67.739,321.669,68.211,323.592,69.859,323.592z"/>
			<path fill="#085F7B" d="M79.22,313.386c3.25,0,3.643,3.557,3.643,5.64c0,2.628-0.519,4.102-1.508,5.047
				c-0.769,0.737-1.68,0.85-2.166,0.85c-1.445,0-2.434-0.865-2.905-1.843c-0.361-0.737-0.706-1.811-0.706-3.797
				C75.577,317.632,75.766,313.386,79.22,313.386z M79.204,323.592c1.821,0,2.135-2.436,2.135-4.422c0-2.66-0.455-4.502-2.104-4.502
				c-1.9,0-2.151,2.547-2.151,4.534C77.084,321.669,77.556,323.592,79.204,323.592z"/>
		</g>
		<g clip-path="url(#SVGID_12_)">
			<path fill="#085F7B" d="M61.144,267.014h3.941v1.218h-3.941V267.014z"/>
			<path fill="#085F7B" d="M66.515,263.521c0-0.993,0.659-3.028,3.517-3.028c2.293,0,3.611,1.266,3.611,2.965
				c0,1.089-0.69,2.227-2.214,2.515c0.644,0.177,2.371,0.657,2.371,2.804c0,1.522-1.036,3.253-3.737,3.253
				c-0.926,0-2.025-0.192-2.811-0.93c-0.58-0.545-0.957-1.378-0.957-2.227c0-0.737,0.282-1.506,0.832-2.035
				c0.518-0.528,1.083-0.688,1.57-0.849C67.252,265.668,66.515,264.626,66.515,263.521z M70.063,270.763
				c1.743,0,2.167-1.25,2.167-2.083c0-1.233-0.895-2.035-2.135-2.035c-1.335,0-2.214,0.914-2.214,2.083
				C67.881,269.593,68.445,270.763,70.063,270.763z M70.095,261.678c-1.162,0-2.058,0.705-2.058,1.811
				c0,1.074,0.88,1.795,2.01,1.795c1.193,0,2.089-0.705,2.089-1.795C72.136,262.48,71.398,261.678,70.095,261.678z"/>
			<path fill="#085F7B" d="M78.779,260.525c3.25,0,3.643,3.557,3.643,5.64c0,2.628-0.519,4.102-1.508,5.047
				c-0.769,0.737-1.68,0.85-2.166,0.85c-1.445,0-2.434-0.865-2.905-1.843c-0.361-0.737-0.706-1.811-0.706-3.797
				C75.137,264.771,75.325,260.525,78.779,260.525z M78.764,270.731c1.821,0,2.135-2.436,2.135-4.422
				c0-2.66-0.455-4.502-2.104-4.502c-1.9,0-2.151,2.547-2.151,4.534C76.644,268.808,77.115,270.731,78.764,270.731z"/>
		</g>
		<g clip-path="url(#SVGID_12_)">
			<path fill="#085F7B" d="M61.144,162.252h3.941v1.218h-3.941V162.252z"/>
			<path fill="#085F7B" d="M71.052,164.671h-4.898v-1.906l4.71-6.922h1.696v7.53h1.586v1.298H72.56v2.403h-1.508V164.671z
				 M71.1,163.373v-5.848l-3.753,5.848H71.1z"/>
			<path fill="#085F7B" d="M78.779,155.763c3.25,0,3.643,3.557,3.643,5.64c0,2.628-0.519,4.102-1.508,5.047
				c-0.769,0.737-1.68,0.85-2.166,0.85c-1.445,0-2.434-0.865-2.905-1.843c-0.361-0.737-0.706-1.811-0.706-3.797
				C75.137,160.009,75.325,155.763,78.779,155.763z M78.764,165.969c1.821,0,2.135-2.436,2.135-4.422
				c0-2.66-0.455-4.502-2.104-4.502c-1.9,0-2.151,2.547-2.151,4.534C76.644,164.046,77.115,165.969,78.764,165.969z"/>
		</g>
		<g clip-path="url(#SVGID_12_)">
			<path fill="#085F7B" d="M61.144,214.025h3.941v1.218h-3.941V214.025z"/>
			<path fill="#085F7B" d="M72.105,210.388c-0.017-1.298-0.958-1.65-1.649-1.65c-1.569,0-2.261,1.378-2.402,4.325
				c0.346-0.513,0.942-1.409,2.528-1.409c1.774,0,3.281,1.201,3.281,3.557c0,2.579-1.806,3.877-3.674,3.877
				c-1.052,0-2.104-0.433-2.685-1.201c-0.801-1.09-0.989-2.676-0.989-4.086c0-2.419,0.581-6.265,4.02-6.265
				c1.429,0,2.229,0.641,2.606,1.058c0.549,0.657,0.565,1.362,0.581,1.795H72.105z M72.356,215.354c0-0.784-0.22-2.467-2.025-2.467
				c-1.461,0-2.167,1.218-2.167,2.483c0,1.441,0.879,2.499,2.088,2.499C71.225,217.869,72.356,217.164,72.356,215.354z"/>
			<path fill="#085F7B" d="M78.779,207.535c3.25,0,3.643,3.557,3.643,5.64c0,2.628-0.519,4.102-1.508,5.047
				c-0.769,0.737-1.68,0.85-2.166,0.85c-1.445,0-2.434-0.865-2.905-1.843c-0.361-0.737-0.706-1.811-0.706-3.797
				C75.137,211.782,75.325,207.535,78.779,207.535z M78.764,217.742c1.821,0,2.135-2.436,2.135-4.422
				c0-2.66-0.455-4.502-2.104-4.502c-1.9,0-2.151,2.547-2.151,4.534C76.644,215.819,77.115,217.742,78.764,217.742z"/>
		</g>
		<g clip-path="url(#SVGID_12_)">
			<path fill="#085F7B" d="M61.144,112.949h3.941v1.218h-3.941V112.949z"/>
			<path fill="#085F7B" d="M66.546,116.313l2.842-2.852c0.597-0.593,1.193-1.234,1.68-1.907c0.629-0.881,0.801-1.378,0.801-1.971
				c0-0.544-0.188-1.811-1.742-1.811c-1.743,0-1.774,1.522-1.774,1.939h-1.648c0.016-0.545,0.063-1.603,1.005-2.436
				c0.753-0.657,1.664-0.801,2.354-0.801c1.665,0,3.36,0.865,3.36,3.236c0,0.705-0.047,1.249-1.225,2.771
				c-0.314,0.4-1.695,1.858-2.01,2.179l-1.899,1.843h5.165v1.266h-6.908V116.313z"/>
			<path fill="#085F7B" d="M78.779,106.459c3.25,0,3.643,3.557,3.643,5.64c0,2.628-0.519,4.102-1.508,5.047
				c-0.769,0.737-1.68,0.85-2.166,0.85c-1.445,0-2.434-0.865-2.905-1.843c-0.361-0.737-0.706-1.811-0.706-3.797
				C75.137,110.705,75.325,106.459,78.779,106.459z M78.764,116.665c1.821,0,2.135-2.436,2.135-4.422
				c0-2.66-0.455-4.502-2.104-4.502c-1.9,0-2.151,2.547-2.151,4.534C76.644,114.742,77.115,116.665,78.764,116.665z"/>
		</g>
	</g>
	<g opacity="0.5">
		<g>
			<defs>
				<rect id="SVGID_57_" x="120.789" y="28.864" width="13.904" height="13.577"/>
			</defs>
			<clipPath id="SVGID_14_">
				<use xlink:href="#SVGID_57_"  overflow="visible"/>
			</clipPath>
			<g clip-path="url(#SVGID_14_)">
				<defs>
					<rect id="SVGID_59_" x="121.394" y="29.479" width="12.694" height="12.346"/>
				</defs>
				<clipPath id="SVGID_16_">
					<use xlink:href="#SVGID_59_"  overflow="visible"/>
				</clipPath>
				
					<linearGradient id="SVGID_18_" gradientUnits="userSpaceOnUse" x1="-2278.6228" y1="418.8854" x2="-2276.9478" y2="418.8854" gradientTransform="matrix(0 -4.0008 -3.9213 0 1770.3159 -9080.6621)">
					<stop  offset="0" style="stop-color:#FFFFFF"/>
					<stop  offset="0.2149" style="stop-color:#D6EFEE"/>
					<stop  offset="0.4463" style="stop-color:#B1E0DE"/>
					<stop  offset="0.6618" style="stop-color:#96D6D2"/>
					<stop  offset="0.853" style="stop-color:#86CFCB"/>
					<stop  offset="1" style="stop-color:#80CDC9"/>
				</linearGradient>
				<rect x="121.393" y="29.479" clip-path="url(#SVGID_16_)" fill="url(#SVGID_18_)" width="12.694" height="12.346"/>
			</g>
			<g clip-path="url(#SVGID_14_)">
				<defs>
					<rect id="SVGID_62_" x="120.789" y="28.864" width="13.902" height="13.577"/>
				</defs>
				<clipPath id="SVGID_20_">
					<use xlink:href="#SVGID_62_"  overflow="visible"/>
				</clipPath>
				
					<rect x="121.394" y="29.479" clip-path="url(#SVGID_20_)" fill="none" stroke="#3AAEC9" stroke-width="0.7284" stroke-miterlimit="10" width="12.694" height="12.346"/>
			</g>
			<g clip-path="url(#SVGID_14_)">
				<defs>
					<polygon id="SVGID_64_" points="129.555,41.53 125.927,41.53 121.709,41.53 121.709,29.775 133.773,29.775 133.773,41.53 					
						"/>
				</defs>
				<clipPath id="SVGID_22_">
					<use xlink:href="#SVGID_64_"  overflow="visible"/>
				</clipPath>
				
					<linearGradient id="SVGID_23_" gradientUnits="userSpaceOnUse" x1="-2276.9753" y1="399.2813" x2="-2275.3" y2="399.2813" gradientTransform="matrix(0 -3.8089 -3.7332 0 1618.3379 -8637.1191)">
					<stop  offset="0" style="stop-color:#FFFFFF"/>
					<stop  offset="0.2149" style="stop-color:#D6EFEE"/>
					<stop  offset="0.4463" style="stop-color:#B1E0DE"/>
					<stop  offset="0.6618" style="stop-color:#96D6D2"/>
					<stop  offset="0.853" style="stop-color:#86CFCB"/>
					<stop  offset="1" style="stop-color:#80CDC9"/>
				</linearGradient>
				<rect x="121.708" y="29.775" clip-path="url(#SVGID_22_)" fill="url(#SVGID_23_)" width="12.065" height="11.755"/>
			</g>
			<g clip-path="url(#SVGID_14_)">
				<defs>
					<rect id="SVGID_67_" x="120.789" y="28.864" width="13.902" height="13.577"/>
				</defs>
				<clipPath id="SVGID_25_">
					<use xlink:href="#SVGID_67_"  overflow="visible"/>
				</clipPath>
				<polygon clip-path="url(#SVGID_25_)" fill="none" stroke="#3AAEC9" stroke-width="0.7284" stroke-miterlimit="10" points="
					129.554,29.776 125.927,29.776 121.709,29.776 121.709,41.529 125.927,41.529 129.554,41.529 133.773,41.529 133.773,29.776 
									"/>
				<g opacity="0.4" clip-path="url(#SVGID_25_)">
					<g>
						<defs>
							<rect id="SVGID_69_" x="121.105" y="29.16" width="13.271" height="12.984"/>
						</defs>
						<clipPath id="SVGID_26_">
							<use xlink:href="#SVGID_69_"  overflow="visible"/>
						</clipPath>
						<g clip-path="url(#SVGID_26_)">
							<defs>
								<polygon id="SVGID_71_" points="129.555,41.53 125.927,41.53 121.709,41.53 121.709,29.775 133.773,29.775 133.773,41.53 
																	"/>
							</defs>
							<clipPath id="SVGID_28_">
								<use xlink:href="#SVGID_71_"  overflow="visible"/>
							</clipPath>
							
								<linearGradient id="SVGID_30_" gradientUnits="userSpaceOnUse" x1="-2277.6438" y1="399.2813" x2="-2275.9688" y2="399.2813" gradientTransform="matrix(0 -3.8089 -3.7332 0 1618.3379 -8633.3467)">
								<stop  offset="0" style="stop-color:#FFFFFF"/>
								<stop  offset="0.2149" style="stop-color:#D6EFEE"/>
								<stop  offset="0.4463" style="stop-color:#B1E0DE"/>
								<stop  offset="0.6618" style="stop-color:#96D6D2"/>
								<stop  offset="0.853" style="stop-color:#86CFCB"/>
								<stop  offset="1" style="stop-color:#80CDC9"/>
							</linearGradient>
							<rect x="121.708" y="29.775" clip-path="url(#SVGID_28_)" fill="url(#SVGID_30_)" width="12.065" height="11.755"/>
						</g>
						<g clip-path="url(#SVGID_26_)">
							<defs>
								<rect id="SVGID_74_" x="121.105" y="29.159" width="13.272" height="12.986"/>
							</defs>
							<clipPath id="SVGID_32_">
								<use xlink:href="#SVGID_74_"  overflow="visible"/>
							</clipPath>
							<polygon clip-path="url(#SVGID_32_)" fill="none" stroke="#3AAEC9" stroke-width="0.7284" stroke-miterlimit="10" points="
								129.554,29.776 125.927,29.776 121.709,29.776 121.709,41.529 125.927,41.529 129.554,41.529 133.773,41.529 133.773,29.776 
															"/>
						</g>
					</g>
				</g>
			</g>
		</g>
	</g>
	<rect x="6.131" y="10.844" fill="none" width="522.692" height="329.505"/>
	<g>
		<defs>
			<rect id="SVGID_76_" x="6.131" y="10.844" width="522.692" height="329.505"/>
		</defs>
		<clipPath id="SVGID_33_">
			<use xlink:href="#SVGID_76_"  overflow="visible"/>
		</clipPath>
		<g clip-path="url(#SVGID_33_)">
			<path fill="#085F7B" d="M144.226,28.824h1.551l4.232,10.676h-1.579l-1.131-2.779h-4.856l-1.131,2.779h-1.493L144.226,28.824z
				 M142.906,35.522h3.957l-1.928-5.234L142.906,35.522z"/>
			<path fill="#085F7B" d="M150.315,32.048h1.29v-1.553l1.349-0.443v1.996h1.623v1.021h-1.623v4.45c0,0.37,0,0.991,0.971,0.991
				c0.275,0,0.536-0.045,0.652-0.074v1.079c-0.246,0.045-0.638,0.089-1.131,0.089c-1.246,0-1.841-0.37-1.841-1.582v-4.953h-1.29
				V32.048z"/>
			<path fill="#085F7B" d="M159.418,31.886c2.914,0,3.565,2.336,3.565,3.889c0,2.173-1.203,3.977-3.682,3.977
				c-2.406,0-3.58-1.7-3.58-3.873C155.722,34.044,156.563,31.886,159.418,31.886z M159.331,38.717c1.029,0,2.203-0.755,2.203-2.987
				c0-1.848-0.841-2.824-2.116-2.824c-0.87,0-2.276,0.563-2.276,2.884C157.142,37.311,157.78,38.717,159.331,38.717z"/>
			<path fill="#085F7B" d="M165.188,33.586c0-0.503-0.028-1.021-0.072-1.509h1.377l0.029,1.435c0.261-1.035,1.131-1.375,1.739-1.464
				c0.406-0.059,0.71-0.044,0.942-0.029v1.36c-0.072-0.03-0.159-0.045-0.261-0.06s-0.232-0.015-0.392-0.015
				c-1.609,0-1.986,0.976-1.986,2.247V39.5h-1.377V33.586z"/>
			<path fill="#085F7B" d="M169.652,32.077h1.522l2.319,5.885l2.262-5.885h1.507l-3.188,7.423h-1.377L169.652,32.077z"/>
			<path fill="#085F7B" d="M183.25,39.5c-0.102-0.37-0.13-0.725-0.13-1.109c-0.652,1.228-1.639,1.346-2.247,1.346
				c-1.667,0-2.566-0.961-2.566-2.188c0-0.591,0.203-1.537,1.276-2.173c0.782-0.443,1.942-0.488,2.522-0.488
				c0.348,0,0.564,0.015,0.985,0.045c0-0.917,0-1.316-0.261-1.642c-0.275-0.37-0.87-0.488-1.262-0.488
				c-1.377,0-1.449,0.961-1.464,1.257h-1.362c0.043-0.384,0.087-0.901,0.507-1.404c0.551-0.621,1.58-0.799,2.349-0.799
				c1.059,0,2.188,0.341,2.58,1.095c0.232,0.443,0.247,0.798,0.247,1.139l-0.059,3.548c0,0.118,0.015,1.109,0.116,1.863H183.25z
				 M182.308,35.847c-0.551,0-2.623,0-2.623,1.509c0,0.473,0.289,1.286,1.507,1.286c0.696,0,1.218-0.281,1.552-0.799
				c0.304-0.503,0.318-0.916,0.348-1.951C182.845,35.862,182.642,35.847,182.308,35.847z"/>
			<path fill="#085F7B" d="M187.658,37.297c-0.015,0.562,0.275,1.346,1.594,1.346c0.565,0,0.986-0.104,1.276-0.474
				c0.145-0.191,0.231-0.443,0.231-0.694c0-0.725-0.507-0.857-1.595-1.109c-1.521-0.354-2.798-0.665-2.798-2.218
				c0-1.36,1.16-2.247,2.842-2.247c0.913,0,2.188,0.266,2.624,1.153c0.188,0.414,0.188,0.769,0.188,1.079h-1.392
				c0.043-1.124-0.914-1.213-1.406-1.213c-0.203,0-1.479,0-1.479,1.065c0,0.68,0.652,0.843,1.029,0.946
				c2.015,0.487,2.449,0.605,2.884,1.02c0.406,0.385,0.551,0.902,0.551,1.375c0,0.828-0.449,1.538-0.985,1.878
				c-0.638,0.399-1.406,0.503-2.16,0.503c-1.479,0-2.855-0.621-2.841-2.41H187.658z"/>
			<path fill="#085F7B" d="M193.007,32.048h1.29v-1.553l1.349-0.443v1.996h1.623v1.021h-1.623v4.45c0,0.37,0,0.991,0.971,0.991
				c0.275,0,0.536-0.045,0.652-0.074v1.079c-0.246,0.045-0.638,0.089-1.131,0.089c-1.246,0-1.841-0.37-1.841-1.582v-4.953h-1.29
				V32.048z"/>
			<path fill="#085F7B" d="M203.387,39.5c-0.102-0.37-0.131-0.725-0.131-1.109c-0.652,1.228-1.638,1.346-2.247,1.346
				c-1.667,0-2.565-0.961-2.565-2.188c0-0.591,0.203-1.537,1.275-2.173c0.783-0.443,1.942-0.488,2.522-0.488
				c0.348,0,0.565,0.015,0.985,0.045c0-0.917,0-1.316-0.261-1.642c-0.275-0.37-0.869-0.488-1.261-0.488
				c-1.377,0-1.45,0.961-1.464,1.257h-1.363c0.044-0.384,0.087-0.901,0.508-1.404c0.551-0.621,1.58-0.799,2.348-0.799
				c1.059,0,2.189,0.341,2.581,1.095c0.231,0.443,0.246,0.798,0.246,1.139l-0.058,3.548c0,0.118,0.014,1.109,0.115,1.863H203.387z
				 M202.444,35.847c-0.551,0-2.624,0-2.624,1.509c0,0.473,0.29,1.286,1.508,1.286c0.695,0,1.218-0.281,1.551-0.799
				c0.305-0.503,0.319-0.916,0.348-1.951C202.981,35.862,202.777,35.847,202.444,35.847z"/>
			<path fill="#085F7B" d="M205.895,32.048h1.29v-1.553l1.349-0.443v1.996h1.623v1.021h-1.623v4.45c0,0.37,0,0.991,0.971,0.991
				c0.275,0,0.536-0.045,0.652-0.074v1.079c-0.246,0.045-0.638,0.089-1.131,0.089c-1.246,0-1.841-0.37-1.841-1.582v-4.953h-1.29
				V32.048z"/>
			<path fill="#085F7B" d="M211.707,28.854h1.639v1.522h-1.639V28.854z M211.853,32.077h1.362V39.5h-1.362V32.077z"/>
			<path fill="#085F7B" d="M215.912,32.935l-0.015-0.858h1.362l0.015,1.198c0.159-0.311,0.681-1.346,2.334-1.346
				c0.652,0,2.638,0.251,2.638,2.528V39.5h-1.392v-4.717c0-0.487-0.058-0.932-0.392-1.271c-0.348-0.34-0.826-0.503-1.29-0.503
				c-0.985,0-1.898,0.725-1.898,2.218V39.5h-1.362V32.935z"/>
			<path fill="#085F7B" d="M228.22,31.826c0-0.917,0.608-2.795,3.247-2.795c2.116,0,3.334,1.169,3.334,2.735
				c0,1.006-0.638,2.056-2.044,2.322c0.594,0.162,2.188,0.605,2.188,2.587c0,1.405-0.956,3.002-3.45,3.002
				c-0.854,0-1.869-0.178-2.595-0.857c-0.536-0.503-0.884-1.272-0.884-2.056c0-0.68,0.261-1.39,0.769-1.878
				c0.479-0.488,1-0.636,1.449-0.783C228.9,33.807,228.22,32.846,228.22,31.826z M231.495,38.51c1.609,0,2.001-1.153,2.001-1.923
				c0-1.139-0.826-1.878-1.972-1.878c-1.232,0-2.044,0.843-2.044,1.923C229.481,37.429,230.003,38.51,231.495,38.51z
				 M231.524,30.126c-1.072,0-1.898,0.65-1.898,1.671c0,0.99,0.812,1.655,1.855,1.655c1.102,0,1.928-0.65,1.928-1.655
				C233.409,30.865,232.728,30.126,231.524,30.126z"/>
			<path fill="#085F7B" d="M239.541,29.061c3.001,0,3.363,3.282,3.363,5.204c0,2.425-0.479,3.785-1.392,4.658
				c-0.71,0.68-1.551,0.783-2.001,0.783c-1.333,0-2.246-0.799-2.682-1.7c-0.333-0.681-0.652-1.671-0.652-3.505
				C236.178,32.979,236.352,29.061,239.541,29.061z M239.526,38.479c1.682,0,1.972-2.247,1.972-4.081
				c0-2.454-0.42-4.154-1.942-4.154c-1.754,0-1.986,2.351-1.986,4.185C237.569,36.705,238.005,38.479,239.526,38.479z"/>
			<path fill="#085F7B" d="M248.892,33.068l-0.029-0.991h1.378v1.08c0.695-1.168,1.681-1.271,2.305-1.271
				c1.608,0,2.116,0.843,2.377,1.39c0.246-0.414,0.841-1.39,2.45-1.39c1.043,0,2.667,0.443,2.667,2.632V39.5h-1.377v-4.761
				c0-0.65-0.116-0.932-0.247-1.124c-0.231-0.34-0.695-0.65-1.392-0.65c-0.884,0-1.362,0.518-1.551,0.783
				c-0.318,0.459-0.318,1.271-0.318,1.597V39.5h-1.378v-4.909c0-0.916-0.521-1.626-1.594-1.626c-0.928,0-1.436,0.591-1.595,0.813
				c-0.305,0.429-0.319,1.034-0.319,1.508V39.5h-1.377V33.068z"/>
			<path fill="#085F7B" d="M263.896,40.076c0.059,0.828,0.406,1.449,1.696,1.449c1.899,0,1.928-1.404,1.928-3.415
				c-0.579,1.227-1.957,1.257-2.392,1.257c-0.667,0-1.623-0.148-2.232-0.917c-0.623-0.754-0.826-1.745-0.826-2.735
				c0-2.514,1.449-3.741,3.232-3.741c1.464,0,2.001,0.739,2.291,1.124l0.014-1.021h1.319l-0.028,1.346l-0.015,4.643
				c0,1.789-0.059,2.514-0.349,3.076c-0.608,1.183-2.029,1.33-3.029,1.33c-2.914,0-3.001-1.39-3.059-2.396H263.896z M267.07,37.593
				c0.29-0.385,0.493-0.784,0.493-2.129c0-0.932-0.203-1.464-0.565-1.849c-0.362-0.399-0.942-0.65-1.565-0.65
				c-1.726,0-1.957,1.774-1.957,2.721c0,1.139,0.333,2.646,2,2.646C266.273,38.332,266.737,38.036,267.07,37.593z"/>
		</g>
		<g clip-path="url(#SVGID_33_)">
			<path fill="#085F7B" d="M78.521,54.484c3.25,0,3.643,3.557,3.643,5.64c0,2.628-0.519,4.102-1.508,5.047
				c-0.769,0.737-1.68,0.85-2.166,0.85c-1.445,0-2.434-0.865-2.905-1.843c-0.361-0.737-0.706-1.811-0.706-3.797
				C74.878,58.73,75.066,54.484,78.521,54.484z M78.505,64.69c1.821,0,2.135-2.436,2.135-4.422c0-2.66-0.455-4.502-2.104-4.502
				c-1.9,0-2.151,2.547-2.151,4.534C76.385,62.767,76.857,64.69,78.505,64.69z"/>
		</g>
	</g>
	<g opacity="0.4">
		<g>
			<defs>
				<rect id="SVGID_78_" x="305.491" y="29.189" width="13.602" height="12.927"/>
			</defs>
			<clipPath id="SVGID_35_">
				<use xlink:href="#SVGID_78_"  overflow="visible"/>
			</clipPath>
			<g clip-path="url(#SVGID_35_)">
				<defs>
					<rect id="SVGID_80_" x="306.09" y="29.805" width="12.401" height="11.694"/>
				</defs>
				<clipPath id="SVGID_36_">
					<use xlink:href="#SVGID_80_"  overflow="visible"/>
				</clipPath>
				
					<linearGradient id="SVGID_38_" gradientUnits="userSpaceOnUse" x1="-2276.8474" y1="377.3466" x2="-2275.1721" y2="377.3466" gradientTransform="matrix(0 -3.7902 -3.7148 0 1714.0579 -8594.0547)">
					<stop  offset="0" style="stop-color:#FFFFFF"/>
					<stop  offset="0.0635" style="stop-color:#FEF8EE"/>
					<stop  offset="0.3105" style="stop-color:#FDDDB0"/>
					<stop  offset="0.5365" style="stop-color:#FBC87F"/>
					<stop  offset="0.7338" style="stop-color:#FAB95C"/>
					<stop  offset="0.8951" style="stop-color:#F9AF47"/>
					<stop  offset="1" style="stop-color:#F9AC3F"/>
				</linearGradient>
				<rect x="306.09" y="29.805" clip-path="url(#SVGID_36_)" fill="url(#SVGID_38_)" width="12.401" height="11.694"/>
			</g>
			<g clip-path="url(#SVGID_35_)">
				<defs>
					<rect id="SVGID_83_" x="305.485" y="29.187" width="13.611" height="12.929"/>
				</defs>
				<clipPath id="SVGID_39_">
					<use xlink:href="#SVGID_83_"  overflow="visible"/>
				</clipPath>
				
					<rect x="306.09" y="29.806" clip-path="url(#SVGID_39_)" fill="none" stroke="#957334" stroke-width="0.7284" stroke-miterlimit="10" width="12.402" height="11.695"/>
			</g>
			<g clip-path="url(#SVGID_35_)">
				<defs>
					<polygon id="SVGID_85_" points="314.064,41.218 310.519,41.218 306.395,41.218 306.395,30.087 318.185,30.087 318.185,41.218 
											"/>
				</defs>
				<clipPath id="SVGID_41_">
					<use xlink:href="#SVGID_85_"  overflow="visible"/>
				</clipPath>
				
					<linearGradient id="SVGID_43_" gradientUnits="userSpaceOnUse" x1="-2274.9814" y1="355.4999" x2="-2273.3062" y2="355.4999" gradientTransform="matrix(0 -3.6076 -3.5359 0 1569.3019 -8171.5708)">
					<stop  offset="0" style="stop-color:#FFFFFF"/>
					<stop  offset="0.0635" style="stop-color:#FEF8EE"/>
					<stop  offset="0.3105" style="stop-color:#FDDDB0"/>
					<stop  offset="0.5365" style="stop-color:#FBC87F"/>
					<stop  offset="0.7338" style="stop-color:#FAB95C"/>
					<stop  offset="0.8951" style="stop-color:#F9AF47"/>
					<stop  offset="1" style="stop-color:#F9AC3F"/>
				</linearGradient>
				<rect x="306.395" y="30.087" clip-path="url(#SVGID_41_)" fill="url(#SVGID_43_)" width="11.79" height="11.131"/>
			</g>
			<g clip-path="url(#SVGID_35_)">
				<defs>
					<rect id="SVGID_88_" x="305.485" y="29.187" width="13.611" height="12.929"/>
				</defs>
				<clipPath id="SVGID_45_">
					<use xlink:href="#SVGID_88_"  overflow="visible"/>
				</clipPath>
				<polygon clip-path="url(#SVGID_45_)" fill="none" stroke="#957334" stroke-width="0.7284" stroke-miterlimit="10" points="
					314.062,30.086 310.518,30.086 306.395,30.086 306.395,41.218 310.518,41.218 314.062,41.218 318.183,41.218 318.183,30.086 
									"/>
				<g opacity="0.5" clip-path="url(#SVGID_45_)">
					<g>
						<defs>
							<rect id="SVGID_90_" x="305.792" y="29.47" width="12.999" height="12.365"/>
						</defs>
						<clipPath id="SVGID_46_">
							<use xlink:href="#SVGID_90_"  overflow="visible"/>
						</clipPath>
						<g clip-path="url(#SVGID_46_)">
							<defs>
								<polygon id="SVGID_92_" points="314.064,41.218 310.519,41.218 306.395,41.218 306.395,30.087 318.185,30.087 
									318.185,41.218 								"/>
							</defs>
							<clipPath id="SVGID_47_">
								<use xlink:href="#SVGID_92_"  overflow="visible"/>
							</clipPath>
							
								<linearGradient id="SVGID_48_" gradientUnits="userSpaceOnUse" x1="-2275.6501" y1="355.4999" x2="-2273.9749" y2="355.4999" gradientTransform="matrix(0 -3.6076 -3.5359 0 1569.3019 -8167.998)">
								<stop  offset="0" style="stop-color:#FFFFFF"/>
								<stop  offset="0.0635" style="stop-color:#FEF8EE"/>
								<stop  offset="0.3105" style="stop-color:#FDDDB0"/>
								<stop  offset="0.5365" style="stop-color:#FBC87F"/>
								<stop  offset="0.7338" style="stop-color:#FAB95C"/>
								<stop  offset="0.8951" style="stop-color:#F9AF47"/>
								<stop  offset="1" style="stop-color:#F9AC3F"/>
							</linearGradient>
							<rect x="306.395" y="30.087" clip-path="url(#SVGID_47_)" fill="url(#SVGID_48_)" width="11.79" height="11.132"/>
						</g>
						<g clip-path="url(#SVGID_46_)">
							<defs>
								<rect id="SVGID_95_" x="305.792" y="29.47" width="12.996" height="12.365"/>
							</defs>
							<clipPath id="SVGID_50_">
								<use xlink:href="#SVGID_95_"  overflow="visible"/>
							</clipPath>
							<polygon clip-path="url(#SVGID_50_)" fill="none" stroke="#957334" stroke-width="0.7284" stroke-miterlimit="10" points="
								314.062,30.086 310.518,30.086 306.395,30.086 306.395,41.218 310.518,41.218 314.062,41.218 318.183,41.218 318.183,30.086 
															"/>
						</g>
					</g>
				</g>
			</g>
		</g>
	</g>
	<g opacity="0.5">
		<g>
			<defs>
				<rect id="SVGID_97_" x="326.112" y="27.664" width="128.084" height="15.976"/>
			</defs>
			<clipPath id="SVGID_52_">
				<use xlink:href="#SVGID_97_"  overflow="visible"/>
			</clipPath>
			<g clip-path="url(#SVGID_52_)">
				<defs>
					<rect id="SVGID_99_" x="326.115" y="27.664" width="128.079" height="15.976"/>
				</defs>
				<clipPath id="SVGID_54_">
					<use xlink:href="#SVGID_99_"  overflow="visible"/>
				</clipPath>
				<g clip-path="url(#SVGID_54_)">
					<path fill="#81602A" d="M328.433,36.819c0.029,0.739,0.116,2.114,2.522,2.114c2.175,0,2.45-1.375,2.45-1.907
						c0-1.197-0.942-1.434-2.406-1.804c-1.595-0.399-2.306-0.576-2.842-0.946c-0.855-0.591-1.087-1.39-1.087-2.1
						c0-2.174,2.015-3.119,3.986-3.119c0.695,0,2.102,0.118,2.942,1.049c0.58,0.651,0.609,1.376,0.638,1.819h-1.507
						c-0.073-1.331-1.175-1.627-2.204-1.627c-1.449,0-2.319,0.666-2.319,1.73c0,0.946,0.609,1.271,1.885,1.582
						c2.493,0.65,2.769,0.71,3.378,1.124c0.971,0.65,1.043,1.686,1.043,2.129c0,1.893-1.449,3.326-4.131,3.326
						c-0.797,0-2.421-0.133-3.247-1.212c-0.595-0.784-0.609-1.642-0.609-2.159H328.433z"/>
					<path fill="#81602A" d="M336.928,29.294h1.639v1.522h-1.639V29.294z M337.073,32.516h1.362v7.423h-1.362V32.516z"/>
					<path fill="#81602A" d="M341.074,33.508l-0.029-0.991h1.377v1.08c0.696-1.168,1.682-1.271,2.305-1.271
						c1.609,0,2.116,0.843,2.378,1.39c0.246-0.414,0.841-1.39,2.449-1.39c1.044,0,2.667,0.443,2.667,2.632v4.982h-1.377v-4.761
						c0-0.65-0.115-0.932-0.246-1.124c-0.232-0.34-0.696-0.65-1.392-0.65c-0.884,0-1.362,0.518-1.551,0.783
						c-0.319,0.459-0.319,1.271-0.319,1.597v4.155h-1.377V35.03c0-0.916-0.521-1.626-1.595-1.626c-0.928,0-1.435,0.591-1.595,0.813
						c-0.304,0.429-0.318,1.034-0.318,1.508v4.214h-1.377V33.508z"/>
					<path fill="#81602A" d="M353.672,32.516h1.521l2.319,5.885l2.262-5.885h1.508l-3.189,7.423h-1.377L353.672,32.516z"/>
					<path fill="#81602A" d="M367.27,39.939c-0.102-0.37-0.131-0.725-0.131-1.109c-0.652,1.228-1.638,1.346-2.247,1.346
						c-1.667,0-2.565-0.961-2.565-2.188c0-0.591,0.203-1.537,1.275-2.173c0.783-0.443,1.942-0.488,2.522-0.488
						c0.348,0,0.565,0.015,0.985,0.045c0-0.917,0-1.316-0.261-1.642c-0.275-0.37-0.869-0.488-1.261-0.488
						c-1.377,0-1.45,0.961-1.464,1.257h-1.363c0.044-0.384,0.087-0.901,0.508-1.404c0.551-0.621,1.58-0.799,2.348-0.799
						c1.059,0,2.189,0.341,2.581,1.095c0.231,0.443,0.246,0.798,0.246,1.139l-0.058,3.548c0,0.118,0.014,1.109,0.115,1.863H367.27z
						 M366.327,36.287c-0.551,0-2.624,0-2.624,1.509c0,0.473,0.29,1.286,1.508,1.286c0.695,0,1.218-0.281,1.551-0.799
						c0.305-0.503,0.319-0.916,0.348-1.951C366.863,36.302,366.66,36.287,366.327,36.287z"/>
					<path fill="#81602A" d="M371.677,37.736c-0.015,0.562,0.275,1.346,1.594,1.346c0.565,0,0.986-0.104,1.276-0.474
						c0.145-0.191,0.231-0.443,0.231-0.694c0-0.725-0.507-0.857-1.595-1.109c-1.521-0.354-2.798-0.665-2.798-2.218
						c0-1.36,1.16-2.247,2.842-2.247c0.913,0,2.188,0.266,2.624,1.153c0.188,0.414,0.188,0.769,0.188,1.079h-1.392
						c0.043-1.124-0.914-1.213-1.406-1.213c-0.203,0-1.479,0-1.479,1.065c0,0.68,0.652,0.843,1.029,0.946
						c2.015,0.487,2.449,0.605,2.884,1.02c0.406,0.385,0.551,0.902,0.551,1.375c0,0.828-0.449,1.538-0.985,1.878
						c-0.638,0.399-1.406,0.503-2.16,0.503c-1.479,0-2.855-0.621-2.841-2.41H371.677z"/>
					<path fill="#81602A" d="M377.026,32.487h1.29v-1.553l1.348-0.443v1.996h1.624v1.021h-1.624v4.45c0,0.37,0,0.991,0.972,0.991
						c0.275,0,0.536-0.045,0.652-0.074v1.079c-0.247,0.045-0.639,0.089-1.131,0.089c-1.247,0-1.841-0.37-1.841-1.582v-4.953h-1.29
						V32.487z"/>
					<path fill="#81602A" d="M387.405,39.939c-0.102-0.37-0.131-0.725-0.131-1.109c-0.652,1.228-1.638,1.346-2.247,1.346
						c-1.667,0-2.565-0.961-2.565-2.188c0-0.591,0.203-1.537,1.275-2.173c0.783-0.443,1.942-0.488,2.522-0.488
						c0.348,0,0.565,0.015,0.985,0.045c0-0.917,0-1.316-0.261-1.642c-0.275-0.37-0.869-0.488-1.261-0.488
						c-1.377,0-1.45,0.961-1.464,1.257h-1.363c0.044-0.384,0.087-0.901,0.508-1.404c0.551-0.621,1.58-0.799,2.348-0.799
						c1.059,0,2.189,0.341,2.581,1.095c0.231,0.443,0.246,0.798,0.246,1.139l-0.058,3.548c0,0.118,0.014,1.109,0.115,1.863H387.405z
						 M386.463,36.287c-0.551,0-2.624,0-2.624,1.509c0,0.473,0.29,1.286,1.508,1.286c0.695,0,1.218-0.281,1.551-0.799
						c0.305-0.503,0.319-0.916,0.348-1.951C386.999,36.302,386.796,36.287,386.463,36.287z"/>
					<path fill="#81602A" d="M389.914,32.487h1.29v-1.553l1.348-0.443v1.996h1.624v1.021h-1.624v4.45c0,0.37,0,0.991,0.972,0.991
						c0.275,0,0.536-0.045,0.652-0.074v1.079c-0.247,0.045-0.639,0.089-1.131,0.089c-1.247,0-1.841-0.37-1.841-1.582v-4.953h-1.29
						V32.487z"/>
					<path fill="#81602A" d="M395.727,29.294h1.638v1.522h-1.638V29.294z M395.871,32.516h1.363v7.423h-1.363V32.516z"/>
					<path fill="#81602A" d="M399.931,33.375l-0.015-0.858h1.362l0.015,1.198c0.16-0.311,0.682-1.346,2.334-1.346
						c0.652,0,2.639,0.251,2.639,2.528v5.042h-1.392v-4.717c0-0.487-0.059-0.932-0.392-1.271c-0.348-0.34-0.826-0.503-1.29-0.503
						c-0.986,0-1.899,0.725-1.899,2.218v4.273h-1.362V33.375z"/>
				</g>
				<g clip-path="url(#SVGID_54_)">
					<path fill="#81602A" d="M416.428,37.721h-4.522v-1.76l4.349-6.388h1.565v6.95h1.464v1.197h-1.464v2.218h-1.392V37.721z
						 M416.472,36.524v-5.397l-3.465,5.397H416.472z"/>
					<path fill="#81602A" d="M423.561,29.501c3,0,3.362,3.282,3.362,5.204c0,2.425-0.478,3.785-1.392,4.658
						c-0.71,0.68-1.551,0.783-2,0.783c-1.334,0-2.247-0.799-2.682-1.7c-0.334-0.681-0.652-1.671-0.652-3.505
						C420.197,33.419,420.371,29.501,423.561,29.501z M423.546,38.919c1.682,0,1.972-2.247,1.972-4.081
						c0-2.454-0.421-4.154-1.943-4.154c-1.754,0-1.985,2.351-1.985,4.185C421.589,37.144,422.023,38.919,423.546,38.919z"/>
				</g>
				<g clip-path="url(#SVGID_54_)">
					<path fill="#81602A" d="M432.911,33.508l-0.029-0.991h1.378v1.08c0.695-1.168,1.681-1.271,2.305-1.271
						c1.608,0,2.116,0.843,2.377,1.39c0.246-0.414,0.841-1.39,2.45-1.39c1.043,0,2.667,0.443,2.667,2.632v4.982h-1.377v-4.761
						c0-0.65-0.116-0.932-0.247-1.124c-0.231-0.34-0.695-0.65-1.392-0.65c-0.884,0-1.362,0.518-1.551,0.783
						c-0.318,0.459-0.318,1.271-0.318,1.597v4.155h-1.378V35.03c0-0.916-0.521-1.626-1.594-1.626c-0.928,0-1.436,0.591-1.595,0.813
						c-0.305,0.429-0.319,1.034-0.319,1.508v4.214h-1.377V33.508z"/>
					<path fill="#81602A" d="M447.915,40.515c0.058,0.828,0.406,1.449,1.696,1.449c1.898,0,1.928-1.404,1.928-3.415
						c-0.58,1.227-1.957,1.257-2.392,1.257c-0.667,0-1.624-0.148-2.232-0.917c-0.624-0.754-0.826-1.745-0.826-2.735
						c0-2.514,1.449-3.741,3.232-3.741c1.464,0,2,0.739,2.29,1.124l0.015-1.021h1.319l-0.029,1.346l-0.015,4.643
						c0,1.789-0.058,2.514-0.348,3.076c-0.609,1.183-2.029,1.33-3.029,1.33c-2.914,0-3.001-1.39-3.059-2.396H447.915z
						 M451.09,38.032c0.29-0.385,0.492-0.784,0.492-2.129c0-0.932-0.202-1.464-0.565-1.849c-0.362-0.399-0.941-0.65-1.565-0.65
						c-1.725,0-1.957,1.774-1.957,2.721c0,1.139,0.334,2.646,2.001,2.646C450.292,38.771,450.756,38.475,451.09,38.032z"/>
				</g>
			</g>
		</g>
	</g>
	<rect x="6.131" y="10.844" fill="none" width="522.692" height="329.505"/>
	<g>
		<defs>
			<rect id="SVGID_101_" x="6.131" y="10.844" width="522.692" height="329.505"/>
		</defs>
		<clipPath id="SVGID_56_">
			<use xlink:href="#SVGID_101_"  overflow="visible"/>
		</clipPath>
		<g clip-path="url(#SVGID_56_)">
			<path fill="#085F7B" d="M250.741,268.936c0-0.406-0.019-0.629-0.055-1.517h1.722l0.036,1.535
				c0.853-1.461,2.357-1.683,3.101-1.683c1.957,0,3.824,1.368,3.824,4.809c0,3.458-1.976,4.975-4.151,4.975
				c-1.323,0-2.302-0.573-2.791-1.388v4.605h-1.686V268.936z M254.928,275.779c0.436,0,1.342-0.093,1.922-0.906
				c0.652-0.906,0.743-2.237,0.743-2.903c0-1.664-0.489-3.403-2.501-3.403c-2.72,0-2.72,2.941-2.72,3.773
				C252.372,273.467,252.535,275.779,254.928,275.779z"/>
			<path fill="#085F7B" d="M260.942,269.472h9.245v1.425h-9.245V269.472z M260.942,273.208h9.245v1.442h-9.245V273.208z"/>
		</g>
		<g clip-path="url(#SVGID_56_)">
			<path fill="#085F7B" d="M275.857,263.647c3.753,0,4.206,4.105,4.206,6.51c0,3.033-0.599,4.734-1.74,5.825
				c-0.889,0.852-1.939,0.98-2.502,0.98c-1.667,0-2.81-0.998-3.354-2.127c-0.417-0.851-0.815-2.09-0.815-4.383
				C271.652,268.548,271.87,263.647,275.857,263.647z M275.84,275.427c2.103,0,2.465-2.811,2.465-5.104
				c0-3.07-0.525-5.197-2.429-5.197c-2.193,0-2.483,2.94-2.483,5.233C273.393,273.208,273.937,275.427,275.84,275.427z"/>
			<path fill="#085F7B" d="M282.398,274.484h2.012v2.22h-2.012V274.484z"/>
			<path fill="#085F7B" d="M290.971,263.647c3.752,0,4.205,4.105,4.205,6.51c0,3.033-0.598,4.734-1.74,5.825
				c-0.888,0.852-1.939,0.98-2.501,0.98c-1.668,0-2.81-0.998-3.354-2.127c-0.417-0.851-0.816-2.09-0.816-4.383
				C286.765,268.548,286.982,263.647,290.971,263.647z M290.952,275.427c2.104,0,2.466-2.811,2.466-5.104
				c0-3.07-0.525-5.197-2.429-5.197c-2.194,0-2.484,2.94-2.484,5.233C288.505,273.208,289.049,275.427,290.952,275.427z"/>
			<path fill="#085F7B" d="M301.753,263.647c3.752,0,4.205,4.105,4.205,6.51c0,3.033-0.598,4.734-1.74,5.825
				c-0.888,0.852-1.939,0.98-2.501,0.98c-1.668,0-2.81-0.998-3.354-2.127c-0.417-0.851-0.816-2.09-0.816-4.383
				C297.547,268.548,297.765,263.647,301.753,263.647z M301.734,275.427c2.104,0,2.466-2.811,2.466-5.104
				c0-3.07-0.525-5.197-2.429-5.197c-2.194,0-2.484,2.94-2.484,5.233C299.287,273.208,299.831,275.427,301.734,275.427z"/>
			<path fill="#085F7B" d="M312.534,263.647c3.753,0,4.206,4.105,4.206,6.51c0,3.033-0.599,4.734-1.74,5.825
				c-0.889,0.852-1.939,0.98-2.502,0.98c-1.667,0-2.81-0.998-3.354-2.127c-0.417-0.851-0.815-2.09-0.815-4.383
				C308.329,268.548,308.547,263.647,312.534,263.647z M312.517,275.427c2.103,0,2.465-2.811,2.465-5.104
				c0-3.07-0.525-5.197-2.429-5.197c-2.193,0-2.483,2.94-2.483,5.233C310.069,273.208,310.613,275.427,312.517,275.427z"/>
			<path fill="#085F7B" d="M321.523,265.921c-0.78,0.666-2.03,1.425-2.919,1.85v-1.85c1.179-0.628,2.339-1.405,3.046-2.016h1.613
				v12.798h-1.74V265.921z"/>
		</g>
		<g clip-path="url(#SVGID_56_)">
			<path fill="#085F7B" d="M175.394,211.159h4.551v1.405h-4.551V211.159z"/>
			<path fill="#085F7B" d="M183.567,213.693c0.036,1.295,1.142,1.813,2.084,1.813c2.193,0,2.483-2.108,2.483-2.94
				c0-1.738-0.924-2.756-2.374-2.756c-0.726,0-1.306,0.277-1.687,0.666c-0.38,0.389-0.489,0.776-0.58,1.073h-1.649l0.326-7.62h7.052
				v1.498h-5.492l-0.236,4.143c0.381-0.388,1.179-1.184,2.647-1.184c2.52,0,3.752,2.016,3.752,4.217c0,2.515-1.74,4.42-4.478,4.42
				c-2.03,0-3.644-1.146-3.734-3.329H183.567z"/>
			<path fill="#085F7B" d="M195.654,205.944c-0.779,0.666-2.03,1.425-2.918,1.85v-1.85c1.178-0.628,2.338-1.405,3.045-2.016h1.613
				v12.798h-1.74V205.944z"/>
			<path fill="#085F7B" d="M207.651,206.85c0,2.294-1.323,3.348-2.973,3.348c-1.577,0-2.919-0.962-2.919-3.236
				c0-1.941,1.033-3.385,3.082-3.385C206.926,203.576,207.651,205.167,207.651,206.85z M206.219,206.924
				c0-0.906-0.217-2.237-1.504-2.237c-1.56,0-1.56,1.813-1.56,2.256c0,0.426,0,2.183,1.56,2.183
				C206.219,209.125,206.219,207.294,206.219,206.924z M204.171,217.448l7.994-14.24h1.196l-7.994,14.24H204.171z M215.229,211.215
				c0.326,0.369,0.743,0.961,0.743,2.349c0,2.016-0.961,3.384-2.919,3.384c-2.32,0-2.973-1.757-2.973-3.292
				c0-2.237,1.359-3.328,2.973-3.328C213.543,210.327,214.522,210.419,215.229,211.215z M214.594,213.601
				c0-0.574-0.108-2.238-1.522-2.238c-1.559,0-1.559,1.924-1.559,2.479c0,0.647,0.145,2.016,1.522,2.016
				C214.485,215.857,214.594,214.266,214.594,213.601z"/>
		</g>
		<g clip-path="url(#SVGID_56_)">
			<path fill="#085F7B" d="M359.758,187.753h4.551v1.405h-4.551V187.753z"/>
			<path fill="#085F7B" d="M371.194,190.545h-5.656v-2.2l5.438-7.989h1.958v8.691h1.831v1.498h-1.831v2.774h-1.74V190.545z
				 M371.249,189.047v-6.75l-4.333,6.75H371.249z"/>
			<path fill="#085F7B" d="M380.019,182.537c-0.779,0.666-2.03,1.425-2.918,1.85v-1.85c1.178-0.628,2.338-1.405,3.045-2.016h1.613
				v12.798h-1.74V182.537z"/>
			<path fill="#085F7B" d="M392.016,183.444c0,2.294-1.323,3.348-2.973,3.348c-1.577,0-2.919-0.962-2.919-3.236
				c0-1.941,1.033-3.385,3.082-3.385C391.29,180.17,392.016,181.761,392.016,183.444z M390.583,183.518
				c0-0.906-0.217-2.237-1.504-2.237c-1.56,0-1.56,1.813-1.56,2.256c0,0.426,0,2.183,1.56,2.183
				C390.583,185.719,390.583,183.888,390.583,183.518z M388.535,194.041l7.994-14.24h1.196l-7.994,14.24H388.535z M399.593,187.809
				c0.326,0.369,0.743,0.961,0.743,2.349c0,2.016-0.961,3.384-2.919,3.384c-2.32,0-2.973-1.757-2.973-3.292
				c0-2.237,1.359-3.328,2.973-3.328C397.907,186.921,398.886,187.013,399.593,187.809z M398.958,190.195
				c0-0.574-0.108-2.238-1.522-2.238c-1.559,0-1.559,1.924-1.559,2.479c0,0.647,0.145,2.016,1.522,2.016
				C398.85,192.451,398.958,190.86,398.958,190.195z"/>
		</g>
	</g>
	<polygon fill="#085F7B" points="195.784,250.143 195.784,228.779 198.696,228.779 198.696,247.269 377.231,247.269 
		377.231,230.423 380.141,230.423 380.141,250.143 	"/>
	
		<line fill="none" stroke="#04617D" stroke-width="1.4569" stroke-miterlimit="10" x1="94.037" y1="61.149" x2="94.037" y2="321.429"/>
	
		<line fill="none" stroke="#04617D" stroke-width="1.4569" stroke-miterlimit="10" x1="89.205" y1="61.149" x2="510.428" y2="61.149"/>
	
		<line fill="none" stroke="#04617D" stroke-width="1.4569" stroke-miterlimit="10" x1="94.037" y1="113.122" x2="89.205" y2="113.122"/>
	
		<line fill="none" stroke="#04617D" stroke-width="1.4569" stroke-miterlimit="10" x1="94.037" y1="162.425" x2="89.205" y2="162.425"/>
	
		<line fill="none" stroke="#04617D" stroke-width="1.4569" stroke-miterlimit="10" x1="94.037" y1="214.194" x2="89.205" y2="214.194"/>
	
		<line fill="none" stroke="#04617D" stroke-width="1.4569" stroke-miterlimit="10" x1="94.037" y1="267.195" x2="89.205" y2="267.195"/>
	<g>
		<path fill="#003B47" d="M384.422,328.062h1.075l2.937,7.26h-1.096l-0.784-1.891h-3.369l-0.784,1.891h-1.036L384.422,328.062z
			 M383.507,332.617h2.745l-1.338-3.56L383.507,332.617z"/>
		<path fill="#003B47" d="M392.915,328.072h0.945v6.445c0,0.111,0.021,0.543,0.04,0.805h-0.945l-0.02-0.805
			c-0.081,0.141-0.191,0.353-0.453,0.533c-0.412,0.281-0.904,0.372-1.246,0.372c-0.674,0-2.173-0.352-2.173-2.564
			c0-1.92,1.097-2.755,2.283-2.755c1.086,0,1.448,0.644,1.568,0.854V328.072z M392.564,331.32c-0.201-0.262-0.573-0.513-1.106-0.513
			c-1.388,0-1.388,1.679-1.388,2.021c0,0.896,0.231,1.931,1.388,1.931c1.488,0,1.488-1.639,1.488-2.031
			C392.945,331.993,392.774,331.591,392.564,331.32z"/>
		<path fill="#003B47" d="M398.634,335.322c-0.07-0.251-0.09-0.493-0.09-0.754c-0.453,0.834-1.137,0.915-1.559,0.915
			c-1.157,0-1.78-0.654-1.78-1.488c0-0.402,0.141-1.046,0.885-1.479c0.543-0.302,1.348-0.332,1.75-0.332
			c0.241,0,0.392,0.011,0.684,0.03c0-0.623,0-0.895-0.181-1.116c-0.191-0.251-0.604-0.331-0.875-0.331
			c-0.955,0-1.006,0.653-1.016,0.854h-0.945c0.03-0.262,0.061-0.613,0.352-0.955c0.383-0.423,1.097-0.543,1.629-0.543
			c0.734,0,1.519,0.23,1.79,0.743c0.161,0.302,0.171,0.544,0.171,0.774l-0.04,2.414c0,0.08,0.01,0.754,0.08,1.267H398.634z
			 M397.981,332.838c-0.382,0-1.82,0-1.82,1.025c0,0.321,0.201,0.875,1.046,0.875c0.482,0,0.845-0.191,1.076-0.543
			c0.211-0.342,0.221-0.624,0.241-1.327C398.353,332.848,398.212,332.838,397.981,332.838z"/>
		<path fill="#003B47" d="M401.115,331.098c0-0.221-0.01-0.342-0.03-0.824h0.955l0.021,0.835c0.473-0.795,1.307-0.915,1.72-0.915
			c1.086,0,2.121,0.744,2.121,2.614c0,1.88-1.096,2.705-2.303,2.705c-0.733,0-1.276-0.313-1.548-0.755v2.504h-0.936V331.098z
			 M403.439,334.819c0.241,0,0.744-0.05,1.065-0.492c0.362-0.493,0.412-1.217,0.412-1.579c0-0.905-0.271-1.851-1.388-1.851
			c-1.508,0-1.508,1.6-1.508,2.052C402.021,333.562,402.11,334.819,403.439,334.819z"/>
		<path fill="#003B47" d="M406.513,330.253h0.895v-1.056l0.936-0.302v1.357h1.126v0.694h-1.126v3.026c0,0.252,0,0.674,0.673,0.674
			c0.191,0,0.372-0.03,0.453-0.05v0.733c-0.171,0.03-0.442,0.061-0.784,0.061c-0.865,0-1.277-0.251-1.277-1.076v-3.368h-0.895
			V330.253z"/>
		<path fill="#003B47" d="M411.206,332.969c-0.02,1.045,0.412,1.819,1.448,1.819c0.613,0,1.106-0.321,1.187-1.046h0.945
			c-0.03,0.252-0.07,0.664-0.433,1.057c-0.221,0.251-0.724,0.673-1.739,0.673c-1.589,0-2.343-0.985-2.343-2.584
			c0-0.995,0.201-1.82,0.995-2.373c0.482-0.342,1.086-0.372,1.378-0.372c2.263,0,2.212,2.001,2.191,2.826H411.206z M413.871,332.305
			c0.01-0.482-0.08-1.488-1.247-1.488c-0.613,0-1.357,0.372-1.378,1.488H413.871z"/>
		<path fill="#003B47" d="M419.721,328.072h0.945v6.445c0,0.111,0.021,0.543,0.04,0.805h-0.945l-0.02-0.805
			c-0.081,0.141-0.191,0.353-0.453,0.533c-0.412,0.281-0.904,0.372-1.246,0.372c-0.674,0-2.173-0.352-2.173-2.564
			c0-1.92,1.097-2.755,2.283-2.755c1.086,0,1.448,0.644,1.568,0.854V328.072z M419.369,331.32c-0.201-0.262-0.573-0.513-1.106-0.513
			c-1.388,0-1.388,1.679-1.388,2.021c0,0.896,0.231,1.931,1.388,1.931c1.488,0,1.488-1.639,1.488-2.031
			C419.751,331.993,419.58,331.591,419.369,331.32z"/>
		<path fill="#003B47" d="M427.681,328.765c-0.16-0.01-0.361-0.02-0.553-0.02c-0.765,0-0.765,0.382-0.765,0.734v0.794h1.177v0.684
			h-1.177v4.364h-0.935v-4.364h-0.996v-0.684h0.996v-0.573c0-0.693,0.04-0.945,0.211-1.207c0.211-0.321,0.613-0.553,1.268-0.553
			c0.271,0,0.572,0.04,0.773,0.07V328.765z"/>
		<path fill="#003B47" d="M428.554,331.299c0-0.342-0.02-0.693-0.05-1.025h0.955l0.021,0.976c0.181-0.704,0.784-0.936,1.206-0.996
			c0.282-0.04,0.493-0.03,0.654-0.02v0.925c-0.051-0.021-0.111-0.03-0.182-0.04s-0.161-0.01-0.271-0.01
			c-1.116,0-1.377,0.663-1.377,1.528v2.685h-0.956V331.299z"/>
		<path fill="#003B47" d="M434.607,330.143c2.021,0,2.474,1.589,2.474,2.645c0,1.479-0.835,2.705-2.555,2.705
			c-1.669,0-2.483-1.156-2.483-2.635C432.042,331.611,432.625,330.143,434.607,330.143z M434.546,334.788
			c0.714,0,1.528-0.513,1.528-2.031c0-1.257-0.583-1.92-1.468-1.92c-0.604,0-1.579,0.382-1.579,1.96
			C433.027,333.833,433.47,334.788,434.546,334.788z"/>
		<path fill="#003B47" d="M438.545,330.948l-0.021-0.674h0.956v0.734c0.482-0.795,1.166-0.865,1.599-0.865
			c1.116,0,1.468,0.573,1.649,0.945c0.171-0.281,0.583-0.945,1.699-0.945c0.724,0,1.85,0.302,1.85,1.79v3.389h-0.955v-3.238
			c0-0.442-0.08-0.633-0.171-0.764c-0.161-0.231-0.482-0.442-0.965-0.442c-0.613,0-0.945,0.352-1.076,0.533
			c-0.222,0.312-0.222,0.864-0.222,1.086v2.825h-0.955v-3.339c0-0.623-0.362-1.105-1.106-1.105c-0.644,0-0.995,0.402-1.105,0.553
			c-0.211,0.292-0.222,0.704-0.222,1.025v2.866h-0.955V330.948z"/>
		<path fill="#003B47" d="M450.888,331.299c0-0.342-0.021-0.693-0.051-1.025h0.956l0.02,0.976c0.182-0.704,0.784-0.936,1.207-0.996
			c0.281-0.04,0.492-0.03,0.653-0.02v0.925c-0.05-0.021-0.11-0.03-0.181-0.04s-0.161-0.01-0.271-0.01
			c-1.116,0-1.378,0.663-1.378,1.528v2.685h-0.955V331.299z"/>
		<path fill="#003B47" d="M455.32,332.969c-0.021,1.045,0.412,1.819,1.448,1.819c0.613,0,1.105-0.321,1.187-1.046h0.944
			c-0.029,0.252-0.07,0.664-0.432,1.057c-0.222,0.251-0.725,0.673-1.74,0.673c-1.589,0-2.343-0.985-2.343-2.584
			c0-0.995,0.201-1.82,0.996-2.373c0.482-0.342,1.086-0.372,1.377-0.372c2.263,0,2.213,2.001,2.192,2.826H455.32z M457.984,332.305
			c0.011-0.482-0.08-1.488-1.246-1.488c-0.613,0-1.357,0.372-1.378,1.488H457.984z"/>
		<path fill="#003B47" d="M462.859,328.765c-0.161-0.01-0.362-0.02-0.553-0.02c-0.765,0-0.765,0.382-0.765,0.734v0.794h1.177v0.684
			h-1.177v4.364h-0.936v-4.364h-0.995v-0.684h0.995v-0.573c0-0.693,0.041-0.945,0.212-1.207c0.211-0.321,0.613-0.553,1.267-0.553
			c0.271,0,0.573,0.04,0.774,0.07V328.765z"/>
		<path fill="#003B47" d="M464.255,332.969c-0.02,1.045,0.412,1.819,1.448,1.819c0.613,0,1.106-0.321,1.187-1.046h0.945
			c-0.03,0.252-0.07,0.664-0.433,1.057c-0.221,0.251-0.724,0.673-1.739,0.673c-1.589,0-2.343-0.985-2.343-2.584
			c0-0.995,0.201-1.82,0.995-2.373c0.482-0.342,1.086-0.372,1.378-0.372c2.263,0,2.212,2.001,2.191,2.826H464.255z M466.92,332.305
			c0.01-0.482-0.08-1.488-1.247-1.488c-0.613,0-1.357,0.372-1.378,1.488H466.92z"/>
		<path fill="#003B47" d="M469.32,331.299c0-0.342-0.02-0.693-0.05-1.025h0.955l0.021,0.976c0.181-0.704,0.784-0.936,1.206-0.996
			c0.282-0.04,0.493-0.03,0.654-0.02v0.925c-0.051-0.021-0.111-0.03-0.182-0.04s-0.161-0.01-0.271-0.01
			c-1.116,0-1.377,0.663-1.377,1.528v2.685h-0.956V331.299z"/>
		<path fill="#003B47" d="M473.754,332.969c-0.021,1.045,0.412,1.819,1.448,1.819c0.613,0,1.105-0.321,1.187-1.046h0.944
			c-0.029,0.252-0.07,0.664-0.432,1.057c-0.222,0.251-0.725,0.673-1.74,0.673c-1.589,0-2.343-0.985-2.343-2.584
			c0-0.995,0.201-1.82,0.996-2.373c0.482-0.342,1.086-0.372,1.377-0.372c2.263,0,2.213,2.001,2.192,2.826H473.754z M476.418,332.305
			c0.011-0.482-0.08-1.488-1.246-1.488c-0.613,0-1.357,0.372-1.378,1.488H476.418z"/>
		<path fill="#003B47" d="M478.799,330.857l-0.01-0.583h0.945l0.01,0.814c0.11-0.211,0.473-0.915,1.619-0.915
			c0.452,0,1.83,0.171,1.83,1.72v3.429h-0.966v-3.208c0-0.331-0.04-0.633-0.271-0.864c-0.241-0.231-0.572-0.342-0.895-0.342
			c-0.684,0-1.317,0.492-1.317,1.508v2.906h-0.945V330.857z"/>
		<path fill="#003B47" d="M487.786,331.893c-0.021-0.231-0.091-1.056-1.006-1.056c-1.308,0-1.308,1.518-1.308,1.9
			c0,1.035,0.252,2.001,1.258,2.001c0.804,0,1.075-0.604,1.096-1.097h0.955c-0.061,0.986-0.794,1.811-2.041,1.811
			c-0.342,0-1.126-0.07-1.659-0.653c-0.302-0.353-0.604-0.886-0.604-1.931c0-2.102,1.287-2.726,2.293-2.726
			c0.332,0,1.086,0.07,1.549,0.624c0.371,0.432,0.401,0.844,0.422,1.126H487.786z"/>
		<path fill="#003B47" d="M490.509,332.969c-0.021,1.045,0.412,1.819,1.448,1.819c0.613,0,1.105-0.321,1.187-1.046h0.944
			c-0.029,0.252-0.07,0.664-0.432,1.057c-0.222,0.251-0.725,0.673-1.74,0.673c-1.589,0-2.343-0.985-2.343-2.584
			c0-0.995,0.201-1.82,0.996-2.373c0.482-0.342,1.086-0.372,1.377-0.372c2.263,0,2.213,2.001,2.192,2.826H490.509z M493.173,332.305
			c0.011-0.482-0.08-1.488-1.246-1.488c-0.613,0-1.357,0.372-1.378,1.488H493.173z"/>
		<path fill="#003B47" d="M500.158,329.459c-0.433,0.362-1.127,0.774-1.619,1.006v-1.006c0.653-0.342,1.297-0.765,1.689-1.096h0.895
			v6.958h-0.965V329.459z"/>
	</g>
</g>
</svg>
