<?xml version="1.0" encoding="utf-8"?>
<!-- Generator: Adobe Illustrator 17.0.0, SVG Export Plug-In . SVG Version: 6.00 Build 0)  -->
<!DOCTYPE svg PUBLIC "-//W3C//DTD SVG 1.1//EN" "http://www.w3.org/Graphics/SVG/1.1/DTD/svg11.dtd">
<svg version="1.1" id="Layer_1" xmlns="http://www.w3.org/2000/svg" xmlns:xlink="http://www.w3.org/1999/xlink" x="0px" y="0px"
	 width="815.402px" height="89.813px" viewBox="0 0 815.402 89.813" enable-background="new 0 0 815.402 89.813"
	 xml:space="preserve">
<g>
	<path fill="#00435B" d="M4.567,20.191V9.13H0.365V7.654h10.124V9.13H6.286v11.061H4.567z"/>
	<path fill="#00435B" d="M12.136,7.671h1.649v5.088c0.538-0.92,1.615-1.441,2.831-1.441c0.92,0,2.24,0.33,2.744,1.389
		c0.173,0.347,0.295,0.764,0.295,2.031v5.453h-1.667v-5.157c0-0.781,0-2.466-1.875-2.466c-1.215,0-1.823,0.747-2.049,1.164
		c-0.278,0.486-0.278,1.302-0.278,1.84v4.619h-1.649V7.671z"/>
	<path fill="#00435B" d="M23.733,16.127c-0.035,1.806,0.712,3.143,2.5,3.143c1.059,0,1.91-0.556,2.049-1.806h1.632
		c-0.052,0.434-0.122,1.146-0.747,1.823c-0.382,0.434-1.25,1.163-3.004,1.163c-2.744,0-4.046-1.702-4.046-4.462
		c0-1.719,0.347-3.143,1.719-4.098c0.833-0.59,1.875-0.643,2.379-0.643c3.907,0,3.82,3.456,3.786,4.879H23.733z M28.334,14.981
		c0.017-0.833-0.139-2.57-2.153-2.57c-1.059,0-2.344,0.643-2.379,2.57H28.334z"/>
	<path fill="#00435B" d="M41.128,7.654h1.858l5.07,12.537h-1.893l-1.354-3.265h-5.817l-1.354,3.265H35.85L41.128,7.654z
		 M39.548,15.52h4.74l-2.309-6.147L39.548,15.52z"/>
	<path fill="#00435B" d="M49.843,7.654h1.719v10.992h5.834v1.545h-7.554V7.654z"/>
	<path fill="#00435B" d="M59.495,7.654h1.719v10.992h5.834v1.545h-7.554V7.654z"/>
	<path fill="#00435B" d="M69.062,7.654h1.736v12.537h-1.736V7.654z"/>
	<path fill="#00435B" d="M77.794,7.654h1.858l5.07,12.537H82.83l-1.354-3.265h-5.817l-1.354,3.265h-1.789L77.794,7.654z
		 M76.214,15.52h4.74l-2.309-6.147L76.214,15.52z"/>
	<path fill="#00435B" d="M86.543,7.654h2.414l6.164,10.367V7.654h1.598v12.537h-2.223L88.124,9.546v10.645h-1.581V7.654z"/>
	<path fill="#00435B" d="M107.482,11.04c-0.069-0.434-0.295-2.171-2.709-2.171c-3.021,0-3.56,3.091-3.56,5.175
		c0,2.361,0.677,4.914,3.542,4.914c0.764,0,1.493-0.191,2.032-0.747c0.451-0.486,0.556-1.024,0.607-1.32h1.91
		c-0.26,2.466-2.535,3.49-4.688,3.49c-4.411,0-5.261-3.89-5.261-6.321c0-2.639,1.024-6.581,5.487-6.581
		c1.771,0,4.271,0.712,4.497,3.56H107.482z"/>
	<path fill="#00435B" d="M111.3,7.654h7.866V9.13h-6.13v3.907h5.834v1.459h-5.834v4.167h6.269v1.528H111.3V7.654z"/>
	<path fill="#00435B" d="M125.443,9.473l-1.74-0.192l1.032,1.396l-0.658,0.405L123.4,9.483l-0.729,1.578l-0.688-0.374l1.072-1.406
		l-1.679,0.142V8.684l1.71,0.223l-1.032-1.417l0.668-0.364l0.678,1.568l0.698-1.578l0.678,0.374l-1.063,1.417l1.73-0.192V9.473z"/>
	<path fill="#00435B" d="M133.819,16.527c0.035,0.868,0.139,2.483,3.021,2.483c2.604,0,2.935-1.615,2.935-2.24
		c0-1.406-1.129-1.684-2.882-2.118c-1.91-0.469-2.761-0.677-3.404-1.111c-1.024-0.695-1.302-1.632-1.302-2.466
		c0-2.553,2.414-3.664,4.775-3.664c0.833,0,2.518,0.139,3.525,1.233c0.694,0.764,0.729,1.615,0.764,2.136h-1.806
		c-0.087-1.563-1.406-1.91-2.639-1.91c-1.737,0-2.778,0.782-2.778,2.032c0,1.111,0.729,1.493,2.257,1.858
		c2.987,0.764,3.316,0.833,4.046,1.32c1.164,0.764,1.25,1.979,1.25,2.5c0,2.223-1.736,3.907-4.949,3.907
		c-0.955,0-2.9-0.157-3.89-1.424c-0.712-0.92-0.729-1.927-0.729-2.535H133.819z"/>
	<path fill="#00435B" d="M142.812,11.439h1.545V9.616l1.615-0.521v2.344h1.945v1.198h-1.945v5.227c0,0.434,0,1.163,1.163,1.163
		c0.33,0,0.643-0.052,0.782-0.086v1.268c-0.295,0.052-0.764,0.104-1.354,0.104c-1.494,0-2.206-0.434-2.206-1.858v-5.817h-1.545
		V11.439z"/>
	<path fill="#00435B" d="M151.423,11.474v5.608c0,0.851,0.191,1.928,1.858,1.928c0.816,0,1.58-0.278,2.049-0.973
		c0.365-0.521,0.365-1.198,0.365-1.632v-4.931h1.685v7.084c0,0.174,0.035,1.146,0.052,1.632h-1.702l-0.035-1.493
		c-0.313,0.607-0.903,1.58-2.778,1.58c-2.153,0-3.16-1.233-3.16-2.952v-5.852H151.423z"/>
	<path fill="#00435B" d="M166.58,7.671h1.632v11.131c0,0.191,0.035,0.938,0.069,1.389h-1.632l-0.035-1.389
		c-0.139,0.243-0.33,0.608-0.781,0.92c-0.712,0.486-1.563,0.643-2.153,0.643c-1.163,0-3.75-0.608-3.75-4.428
		c0-3.316,1.893-4.758,3.942-4.758c1.875,0,2.5,1.111,2.708,1.476V7.671z M165.972,13.28c-0.348-0.451-0.99-0.886-1.91-0.886
		c-2.396,0-2.396,2.9-2.396,3.49c0,1.546,0.399,3.334,2.396,3.334c2.57,0,2.57-2.83,2.57-3.507
		C166.632,14.443,166.336,13.749,165.972,13.28z"/>
	<path fill="#00435B" d="M175.069,20.243l-1.25,3.247h-1.684l1.319-3.334l-3.629-8.682h1.84l2.727,6.876l2.778-6.876h1.771
		L175.069,20.243z"/>
	<path fill="#00435B" d="M180.71,11.387h1.927v2.049h-1.927V11.387z M180.71,18.142h1.927v2.049h-1.927V18.142z"/>
	<path fill="#00435B" d="M198.003,11.04c-0.069-0.434-0.295-2.171-2.709-2.171c-3.021,0-3.56,3.091-3.56,5.175
		c0,2.361,0.677,4.914,3.542,4.914c0.764,0,1.493-0.191,2.032-0.747c0.451-0.486,0.556-1.024,0.607-1.32h1.91
		c-0.26,2.466-2.535,3.49-4.688,3.49c-4.41,0-5.261-3.89-5.261-6.321c0-2.639,1.024-6.581,5.487-6.581
		c1.771,0,4.271,0.712,4.497,3.56H198.003z"/>
	<path fill="#00435B" d="M202.064,7.671h1.632v12.52h-1.632V7.671z"/>
	<path fill="#00435B" d="M206.699,7.688h1.962v1.789h-1.962V7.688z M206.873,11.474h1.632v8.717h-1.632V11.474z"/>
	<path fill="#00435B" d="M211.734,12.481l-0.017-1.007h1.632l0.018,1.406c0.191-0.365,0.816-1.58,2.796-1.58
		c0.781,0,3.16,0.295,3.16,2.969v5.921h-1.667v-5.539c0-0.573-0.069-1.094-0.469-1.494c-0.417-0.399-0.99-0.59-1.545-0.59
		c-1.181,0-2.275,0.851-2.275,2.604v5.019h-1.632V12.481z"/>
	<path fill="#00435B" d="M222.132,7.688h1.962v1.789h-1.962V7.688z M222.306,11.474h1.632v8.717h-1.632V11.474z"/>
	<path fill="#00435B" d="M232.082,14.27c-0.035-0.399-0.156-1.823-1.736-1.823c-2.257,0-2.257,2.622-2.257,3.282
		c0,1.789,0.434,3.456,2.17,3.456c1.389,0,1.858-1.042,1.893-1.893h1.649c-0.104,1.702-1.372,3.125-3.525,3.125
		c-0.59,0-1.945-0.122-2.865-1.128c-0.521-0.608-1.042-1.528-1.042-3.334c0-3.629,2.223-4.706,3.959-4.706
		c0.573,0,1.875,0.122,2.674,1.077c0.643,0.747,0.695,1.458,0.729,1.945H232.082z"/>
	<path fill="#00435B" d="M241.109,20.191c-0.122-0.434-0.156-0.851-0.156-1.302c-0.782,1.441-1.962,1.58-2.692,1.58
		c-1.997,0-3.073-1.129-3.073-2.57c0-0.695,0.243-1.806,1.528-2.553c0.938-0.521,2.327-0.573,3.021-0.573
		c0.417,0,0.677,0.018,1.181,0.052c0-1.077,0-1.545-0.313-1.927c-0.33-0.434-1.042-0.573-1.511-0.573
		c-1.649,0-1.736,1.129-1.753,1.476h-1.632c0.052-0.452,0.104-1.059,0.607-1.649c0.66-0.729,1.893-0.938,2.813-0.938
		c1.268,0,2.622,0.399,3.091,1.285c0.278,0.521,0.295,0.938,0.295,1.337l-0.069,4.167c0,0.139,0.018,1.302,0.139,2.188H241.109z
		 M239.98,15.902c-0.66,0-3.143,0-3.143,1.771c0,0.556,0.347,1.511,1.806,1.511c0.833,0,1.458-0.33,1.858-0.938
		c0.365-0.59,0.382-1.077,0.417-2.292C240.623,15.919,240.38,15.902,239.98,15.902z"/>
	<path fill="#00435B" d="M245.483,7.671h1.632v12.52h-1.632V7.671z"/>
	<path fill="#00435B" d="M256.212,9.008c1.303-1.407,3.021-1.685,4.185-1.685c3.473,0,5.661,2.223,5.661,6.477
		c0,3.334-1.337,6.686-5.799,6.686c-4.272,0-5.661-3.039-5.661-6.477C254.597,12.585,254.84,10.484,256.212,9.008z M257.532,17.864
		c0.712,0.885,1.789,1.146,2.778,1.146c1.024,0,2.049-0.278,2.778-1.146c1.024-1.25,1.129-3.23,1.129-4.081
		c0-2.848-0.938-5.001-3.803-5.001c-3.178,0-3.994,2.553-3.994,5.123C256.42,15.277,256.664,16.788,257.532,17.864z"/>
	<path fill="#00435B" d="M270.101,11.474v5.608c0,0.851,0.191,1.928,1.858,1.928c0.816,0,1.58-0.278,2.049-0.973
		c0.365-0.521,0.365-1.198,0.365-1.632v-4.931h1.685v7.084c0,0.174,0.035,1.146,0.052,1.632h-1.702l-0.035-1.493
		c-0.313,0.607-0.903,1.58-2.778,1.58c-2.153,0-3.16-1.233-3.16-2.952v-5.852H270.101z"/>
	<path fill="#00435B" d="M277.878,11.439h1.545V9.616l1.615-0.521v2.344h1.945v1.198h-1.945v5.227c0,0.434,0,1.163,1.163,1.163
		c0.33,0,0.643-0.052,0.782-0.086v1.268c-0.295,0.052-0.764,0.104-1.354,0.104c-1.494,0-2.206-0.434-2.206-1.858v-5.817h-1.545
		V11.439z"/>
	<path fill="#00435B" d="M289.962,14.27c-0.035-0.399-0.156-1.823-1.736-1.823c-2.257,0-2.257,2.622-2.257,3.282
		c0,1.789,0.434,3.456,2.17,3.456c1.389,0,1.858-1.042,1.893-1.893h1.649c-0.104,1.702-1.372,3.125-3.525,3.125
		c-0.59,0-1.945-0.122-2.865-1.128c-0.521-0.608-1.042-1.528-1.042-3.334c0-3.629,2.223-4.706,3.959-4.706
		c0.573,0,1.875,0.122,2.674,1.077c0.643,0.747,0.695,1.458,0.729,1.945H289.962z"/>
	<path fill="#00435B" d="M297.462,11.248c3.49,0,4.271,2.744,4.271,4.567c0,2.553-1.441,4.671-4.41,4.671
		c-2.883,0-4.289-1.997-4.289-4.55C293.034,13.783,294.041,11.248,297.462,11.248z M297.358,19.271c1.233,0,2.639-0.885,2.639-3.507
		c0-2.171-1.007-3.317-2.535-3.317c-1.042,0-2.726,0.66-2.726,3.386C294.736,17.621,295.5,19.271,297.358,19.271z"/>
	<path fill="#00435B" d="M304.267,12.637l-0.035-1.163h1.649v1.268c0.833-1.372,2.014-1.494,2.761-1.494
		c1.927,0,2.535,0.99,2.848,1.632c0.295-0.486,1.007-1.632,2.935-1.632c1.25,0,3.195,0.521,3.195,3.091v5.852h-1.65V14.6
		c0-0.764-0.139-1.094-0.295-1.32c-0.277-0.399-0.833-0.764-1.667-0.764c-1.059,0-1.632,0.608-1.858,0.92
		c-0.382,0.539-0.382,1.494-0.382,1.875v4.879h-1.65v-5.765c0-1.077-0.625-1.91-1.91-1.91c-1.111,0-1.719,0.695-1.91,0.955
		c-0.365,0.504-0.382,1.216-0.382,1.771v4.949h-1.649V12.637z"/>
	<path fill="#00435B" d="M321.662,16.127c-0.035,1.806,0.712,3.143,2.5,3.143c1.059,0,1.91-0.556,2.049-1.806h1.632
		c-0.052,0.434-0.122,1.146-0.747,1.823c-0.382,0.434-1.25,1.163-3.004,1.163c-2.744,0-4.046-1.702-4.046-4.462
		c0-1.719,0.348-3.143,1.719-4.098c0.833-0.59,1.875-0.643,2.379-0.643c3.907,0,3.82,3.456,3.786,4.879H321.662z M326.264,14.981
		c0.017-0.833-0.139-2.57-2.153-2.57c-1.059,0-2.344,0.643-2.379,2.57H326.264z"/>
	<path fill="#00435B" d="M331.263,17.604c-0.018,0.66,0.33,1.58,1.91,1.58c0.677,0,1.181-0.122,1.528-0.556
		c0.174-0.226,0.278-0.521,0.278-0.816c0-0.851-0.607-1.007-1.91-1.302c-1.823-0.417-3.351-0.782-3.351-2.605
		c0-1.597,1.389-2.639,3.403-2.639c1.094,0,2.622,0.313,3.143,1.354c0.226,0.486,0.226,0.903,0.226,1.268h-1.667
		c0.052-1.32-1.094-1.424-1.684-1.424c-0.243,0-1.771,0-1.771,1.25c0,0.799,0.782,0.99,1.233,1.111
		c2.414,0.573,2.935,0.712,3.456,1.198c0.486,0.452,0.66,1.059,0.66,1.615c0,0.973-0.538,1.806-1.181,2.206
		c-0.764,0.469-1.684,0.59-2.587,0.59c-1.771,0-3.42-0.729-3.403-2.831H331.263z"/>
	<path fill="#00435B" d="M343.675,7.688h1.962v1.789h-1.962V7.688z M343.849,11.474h1.632v8.717h-1.632V11.474z"/>
	<path fill="#00435B" d="M348.71,12.481l-0.017-1.007h1.632l0.017,1.406c0.191-0.365,0.816-1.58,2.796-1.58
		c0.781,0,3.16,0.295,3.16,2.969v5.921h-1.667v-5.539c0-0.573-0.069-1.094-0.469-1.494c-0.417-0.399-0.99-0.59-1.545-0.59
		c-1.181,0-2.275,0.851-2.275,2.604v5.019h-1.632V12.481z"/>
	<path fill="#00435B" d="M364.126,7.654h3.073l3.542,10.332l3.629-10.332h2.865v12.537h-1.702V8.904l-4.115,11.287h-1.65
		l-3.959-11.217v11.217h-1.684V7.654z"/>
	<path fill="#00435B" d="M385.793,20.191c-0.122-0.434-0.156-0.851-0.156-1.302c-0.782,1.441-1.962,1.58-2.692,1.58
		c-1.997,0-3.073-1.129-3.073-2.57c0-0.695,0.243-1.806,1.528-2.553c0.938-0.521,2.327-0.573,3.021-0.573
		c0.417,0,0.677,0.018,1.181,0.052c0-1.077,0-1.545-0.313-1.927c-0.33-0.434-1.042-0.573-1.511-0.573
		c-1.649,0-1.736,1.129-1.753,1.476h-1.632c0.052-0.452,0.104-1.059,0.607-1.649c0.66-0.729,1.893-0.938,2.813-0.938
		c1.268,0,2.622,0.399,3.091,1.285c0.278,0.521,0.295,0.938,0.295,1.337l-0.069,4.167c0,0.139,0.017,1.302,0.139,2.188H385.793z
		 M384.665,15.902c-0.66,0-3.143,0-3.143,1.771c0,0.556,0.348,1.511,1.806,1.511c0.833,0,1.458-0.33,1.858-0.938
		c0.365-0.59,0.382-1.077,0.417-2.292C385.307,15.919,385.064,15.902,384.665,15.902z"/>
	<path fill="#00435B" d="M390.185,12.481l-0.017-1.007h1.632l0.017,1.406c0.191-0.365,0.816-1.58,2.796-1.58
		c0.781,0,3.16,0.295,3.16,2.969v5.921h-1.667v-5.539c0-0.573-0.069-1.094-0.469-1.494c-0.417-0.399-0.99-0.59-1.545-0.59
		c-1.181,0-2.275,0.851-2.275,2.604v5.019h-1.632V12.481z"/>
	<path fill="#00435B" d="M406.054,20.191c-0.122-0.434-0.156-0.851-0.156-1.302c-0.782,1.441-1.962,1.58-2.692,1.58
		c-1.997,0-3.073-1.129-3.073-2.57c0-0.695,0.243-1.806,1.528-2.553c0.938-0.521,2.327-0.573,3.021-0.573
		c0.417,0,0.677,0.018,1.181,0.052c0-1.077,0-1.545-0.313-1.927c-0.33-0.434-1.042-0.573-1.511-0.573
		c-1.649,0-1.736,1.129-1.753,1.476h-1.632c0.052-0.452,0.104-1.059,0.607-1.649c0.66-0.729,1.893-0.938,2.813-0.938
		c1.268,0,2.622,0.399,3.091,1.285c0.278,0.521,0.295,0.938,0.295,1.337l-0.069,4.167c0,0.139,0.018,1.302,0.139,2.188H406.054z
		 M404.925,15.902c-0.66,0-3.143,0-3.143,1.771c0,0.556,0.347,1.511,1.806,1.511c0.833,0,1.458-0.33,1.858-0.938
		c0.365-0.59,0.382-1.077,0.417-2.292C405.567,15.919,405.324,15.902,404.925,15.902z"/>
	<path fill="#00435B" d="M411.955,20.868c0.069,0.972,0.486,1.702,2.032,1.702c2.275,0,2.31-1.649,2.31-4.011
		c-0.695,1.441-2.344,1.476-2.865,1.476c-0.799,0-1.945-0.174-2.674-1.077c-0.747-0.886-0.99-2.049-0.99-3.212
		c0-2.952,1.737-4.393,3.873-4.393c1.754,0,2.396,0.868,2.744,1.319l0.017-1.198h1.58l-0.035,1.58l-0.017,5.452
		c0,2.102-0.07,2.952-0.417,3.612c-0.729,1.389-2.431,1.563-3.629,1.563c-3.49,0-3.595-1.632-3.664-2.813H411.955z M415.758,17.951
		c0.348-0.451,0.59-0.92,0.59-2.5c0-1.094-0.243-1.719-0.677-2.17c-0.434-0.469-1.128-0.764-1.875-0.764
		c-2.066,0-2.344,2.084-2.344,3.195c0,1.337,0.399,3.108,2.396,3.108C414.803,18.819,415.358,18.472,415.758,17.951z"/>
	<path fill="#00435B" d="M421.99,16.127c-0.035,1.806,0.712,3.143,2.5,3.143c1.059,0,1.91-0.556,2.049-1.806h1.632
		c-0.052,0.434-0.122,1.146-0.747,1.823c-0.382,0.434-1.25,1.163-3.004,1.163c-2.744,0-4.046-1.702-4.046-4.462
		c0-1.719,0.347-3.143,1.719-4.098c0.833-0.59,1.875-0.643,2.379-0.643c3.907,0,3.82,3.456,3.786,4.879H421.99z M426.591,14.981
		c0.017-0.833-0.139-2.57-2.153-2.57c-1.059,0-2.344,0.643-2.379,2.57H426.591z"/>
	<path fill="#00435B" d="M436.695,7.671h1.632v11.131c0,0.191,0.035,0.938,0.069,1.389h-1.632l-0.035-1.389
		c-0.139,0.243-0.33,0.608-0.781,0.92c-0.712,0.486-1.563,0.643-2.153,0.643c-1.163,0-3.75-0.608-3.75-4.428
		c0-3.316,1.893-4.758,3.941-4.758c1.875,0,2.501,1.111,2.709,1.476V7.671z M436.088,13.28c-0.348-0.451-0.99-0.886-1.91-0.886
		c-2.396,0-2.396,2.9-2.396,3.49c0,1.546,0.399,3.334,2.396,3.334c2.57,0,2.57-2.83,2.57-3.507
		C436.748,14.443,436.452,13.749,436.088,13.28z"/>
	<path fill="#00435B" d="M440.461,14.964h4.358v1.319h-4.358V14.964z"/>
	<path fill="#00435B" d="M454.594,11.04c-0.069-0.434-0.295-2.171-2.709-2.171c-3.021,0-3.56,3.091-3.56,5.175
		c0,2.361,0.677,4.914,3.542,4.914c0.764,0,1.493-0.191,2.032-0.747c0.451-0.486,0.556-1.024,0.607-1.32h1.91
		c-0.26,2.466-2.535,3.49-4.688,3.49c-4.411,0-5.261-3.89-5.261-6.321c0-2.639,1.024-6.581,5.487-6.581
		c1.771,0,4.271,0.712,4.497,3.56H454.594z"/>
	<path fill="#00435B" d="M463.934,20.191c-0.122-0.434-0.156-0.851-0.156-1.302c-0.782,1.441-1.962,1.58-2.692,1.58
		c-1.997,0-3.073-1.129-3.073-2.57c0-0.695,0.243-1.806,1.528-2.553c0.938-0.521,2.327-0.573,3.021-0.573
		c0.417,0,0.677,0.018,1.181,0.052c0-1.077,0-1.545-0.313-1.927c-0.33-0.434-1.042-0.573-1.511-0.573
		c-1.649,0-1.736,1.129-1.753,1.476h-1.632c0.052-0.452,0.104-1.059,0.607-1.649c0.66-0.729,1.893-0.938,2.813-0.938
		c1.268,0,2.622,0.399,3.091,1.285c0.278,0.521,0.295,0.938,0.295,1.337l-0.069,4.167c0,0.139,0.017,1.302,0.139,2.188H463.934z
		 M462.805,15.902c-0.66,0-3.143,0-3.143,1.771c0,0.556,0.348,1.511,1.806,1.511c0.833,0,1.458-0.33,1.858-0.938
		c0.365-0.59,0.382-1.077,0.417-2.292C463.448,15.919,463.205,15.902,462.805,15.902z"/>
	<path fill="#00435B" d="M468.359,13.245c0-0.59-0.035-1.198-0.087-1.771h1.65l0.035,1.684c0.313-1.215,1.354-1.615,2.084-1.719
		c0.486-0.069,0.851-0.052,1.128-0.035v1.598c-0.087-0.035-0.191-0.052-0.313-0.069c-0.122-0.018-0.278-0.018-0.469-0.018
		c-1.928,0-2.379,1.146-2.379,2.64v4.636h-1.65V13.245z"/>
	<path fill="#00435B" d="M476.016,16.127c-0.035,1.806,0.712,3.143,2.5,3.143c1.059,0,1.91-0.556,2.049-1.806h1.632
		c-0.052,0.434-0.122,1.146-0.747,1.823c-0.382,0.434-1.25,1.163-3.004,1.163c-2.744,0-4.046-1.702-4.046-4.462
		c0-1.719,0.347-3.143,1.719-4.098c0.833-0.59,1.875-0.643,2.379-0.643c3.907,0,3.82,3.456,3.786,4.879H476.016z M480.618,14.981
		c0.017-0.833-0.139-2.57-2.153-2.57c-1.059,0-2.344,0.643-2.379,2.57H480.618z"/>
	<path fill="#00435B" d="M489.505,7.654h4.203c1.528,0,2.57,0.087,3.42,1.007c0.625,0.643,0.92,1.494,0.92,2.431
		c0,0.955-0.313,1.771-0.99,2.449c-0.66,0.66-1.528,1.076-3.785,1.076h-2.032v5.574h-1.737V7.654z M491.242,13.158h2.066
		c1.146,0,2.9-0.087,2.9-2.136c0-1.962-1.632-1.962-2.535-1.962h-2.431V13.158z"/>
	<path fill="#00435B" d="M505.426,20.191c-0.122-0.434-0.156-0.851-0.156-1.302c-0.782,1.441-1.962,1.58-2.692,1.58
		c-1.997,0-3.073-1.129-3.073-2.57c0-0.695,0.243-1.806,1.528-2.553c0.938-0.521,2.327-0.573,3.021-0.573
		c0.417,0,0.677,0.018,1.181,0.052c0-1.077,0-1.545-0.313-1.927c-0.33-0.434-1.042-0.573-1.511-0.573
		c-1.649,0-1.736,1.129-1.753,1.476h-1.632c0.052-0.452,0.104-1.059,0.607-1.649c0.66-0.729,1.893-0.938,2.813-0.938
		c1.268,0,2.622,0.399,3.091,1.285c0.278,0.521,0.295,0.938,0.295,1.337l-0.069,4.167c0,0.139,0.017,1.302,0.139,2.188H505.426z
		 M504.297,15.902c-0.66,0-3.143,0-3.143,1.771c0,0.556,0.348,1.511,1.806,1.511c0.833,0,1.458-0.33,1.858-0.938
		c0.365-0.59,0.382-1.077,0.417-2.292C504.94,15.919,504.697,15.902,504.297,15.902z"/>
	<path fill="#00435B" d="M508.428,11.439h1.545V9.616l1.615-0.521v2.344h1.945v1.198h-1.945v5.227c0,0.434,0,1.163,1.163,1.163
		c0.33,0,0.643-0.052,0.782-0.086v1.268c-0.295,0.052-0.764,0.104-1.354,0.104c-1.494,0-2.206-0.434-2.206-1.858v-5.817h-1.545
		V11.439z"/>
	<path fill="#00435B" d="M515.39,7.688h1.962v1.789h-1.962V7.688z M515.563,11.474h1.632v8.717h-1.632V11.474z"/>
	<path fill="#00435B" d="M521.362,16.127c-0.035,1.806,0.712,3.143,2.5,3.143c1.059,0,1.91-0.556,2.049-1.806h1.632
		c-0.052,0.434-0.122,1.146-0.747,1.823c-0.382,0.434-1.25,1.163-3.004,1.163c-2.744,0-4.046-1.702-4.046-4.462
		c0-1.719,0.348-3.143,1.719-4.098c0.833-0.59,1.875-0.643,2.379-0.643c3.907,0,3.82,3.456,3.786,4.879H521.362z M525.964,14.981
		c0.017-0.833-0.139-2.57-2.153-2.57c-1.059,0-2.344,0.643-2.379,2.57H525.964z"/>
	<path fill="#00435B" d="M530.077,12.481l-0.017-1.007h1.632l0.017,1.406c0.191-0.365,0.816-1.58,2.796-1.58
		c0.781,0,3.16,0.295,3.16,2.969v5.921h-1.667v-5.539c0-0.573-0.069-1.094-0.469-1.494c-0.417-0.399-0.99-0.59-1.545-0.59
		c-1.181,0-2.275,0.851-2.275,2.604v5.019h-1.632V12.481z"/>
	<path fill="#00435B" d="M539.295,11.439h1.545V9.616l1.615-0.521v2.344h1.945v1.198h-1.945v5.227c0,0.434,0,1.163,1.163,1.163
		c0.33,0,0.643-0.052,0.782-0.086v1.268c-0.295,0.052-0.764,0.104-1.354,0.104c-1.494,0-2.206-0.434-2.206-1.858v-5.817h-1.545
		V11.439z"/>
	<path fill="#00435B" d="M547.351,17.604c-0.018,0.66,0.33,1.58,1.91,1.58c0.677,0,1.181-0.122,1.528-0.556
		c0.174-0.226,0.278-0.521,0.278-0.816c0-0.851-0.607-1.007-1.91-1.302c-1.823-0.417-3.351-0.782-3.351-2.605
		c0-1.597,1.389-2.639,3.403-2.639c1.094,0,2.622,0.313,3.143,1.354c0.226,0.486,0.226,0.903,0.226,1.268h-1.667
		c0.052-1.32-1.094-1.424-1.684-1.424c-0.243,0-1.771,0-1.771,1.25c0,0.799,0.782,0.99,1.233,1.111
		c2.414,0.573,2.935,0.712,3.456,1.198c0.486,0.452,0.66,1.059,0.66,1.615c0,0.973-0.539,1.806-1.181,2.206
		c-0.764,0.469-1.684,0.59-2.587,0.59c-1.771,0-3.42-0.729-3.403-2.831H547.351z"/>
	<path fill="#00435B" d="M560.389,7.654l2.708,10.314l2.987-10.314h2.153l2.831,10.401l2.848-10.401h1.702l-3.716,12.537h-1.928
		l-2.9-10.714l-3.108,10.714h-1.875l-3.56-12.537H560.389z"/>
	<path fill="#00435B" d="M577.125,7.688h1.962v1.789h-1.962V7.688z M577.298,11.474h1.632v8.717h-1.632V11.474z"/>
	<path fill="#00435B" d="M580.77,11.439h1.545V9.616l1.615-0.521v2.344h1.945v1.198h-1.945v5.227c0,0.434,0,1.163,1.163,1.163
		c0.33,0,0.643-0.052,0.782-0.086v1.268c-0.295,0.052-0.764,0.104-1.354,0.104c-1.494,0-2.206-0.434-2.206-1.858v-5.817h-1.545
		V11.439z"/>
	<path fill="#00435B" d="M587.889,7.671h1.649v5.088c0.538-0.92,1.615-1.441,2.831-1.441c0.92,0,2.24,0.33,2.744,1.389
		c0.173,0.347,0.295,0.764,0.295,2.031v5.453h-1.667v-5.157c0-0.781,0-2.466-1.875-2.466c-1.215,0-1.823,0.747-2.049,1.164
		c-0.278,0.486-0.278,1.302-0.278,1.84v4.619h-1.649V7.671z"/>
	<path fill="#00435B" d="M610.875,11.04c-0.069-0.434-0.295-2.171-2.709-2.171c-3.021,0-3.56,3.091-3.56,5.175
		c0,2.361,0.677,4.914,3.542,4.914c0.764,0,1.493-0.191,2.032-0.747c0.451-0.486,0.556-1.024,0.607-1.32h1.91
		c-0.26,2.466-2.535,3.49-4.688,3.49c-4.411,0-5.261-3.89-5.261-6.321c0-2.639,1.024-6.581,5.487-6.581
		c1.771,0,4.271,0.712,4.497,3.56H610.875z"/>
	<path fill="#00435B" d="M618.687,11.248c3.49,0,4.271,2.744,4.271,4.567c0,2.553-1.441,4.671-4.41,4.671
		c-2.883,0-4.289-1.997-4.289-4.55C614.259,13.783,615.266,11.248,618.687,11.248z M618.583,19.271c1.233,0,2.639-0.885,2.639-3.507
		c0-2.171-1.007-3.317-2.535-3.317c-1.042,0-2.726,0.66-2.726,3.386C615.96,17.621,616.725,19.271,618.583,19.271z"/>
	<path fill="#00435B" d="M625.595,13.245c0-0.59-0.035-1.198-0.086-1.771h1.649l0.035,1.684c0.313-1.215,1.354-1.615,2.084-1.719
		c0.486-0.069,0.851-0.052,1.128-0.035v1.598c-0.087-0.035-0.191-0.052-0.313-0.069c-0.122-0.018-0.278-0.018-0.469-0.018
		c-1.928,0-2.379,1.146-2.379,2.64v4.636h-1.65V13.245z"/>
	<path fill="#00435B" d="M636.047,11.248c3.49,0,4.272,2.744,4.272,4.567c0,2.553-1.441,4.671-4.411,4.671
		c-2.883,0-4.289-1.997-4.289-4.55C631.62,13.783,632.626,11.248,636.047,11.248z M635.943,19.271c1.233,0,2.639-0.885,2.639-3.507
		c0-2.171-1.007-3.317-2.535-3.317c-1.042,0-2.726,0.66-2.726,3.386C633.321,17.621,634.085,19.271,635.943,19.271z"/>
	<path fill="#00435B" d="M642.921,12.481l-0.017-1.007h1.632l0.018,1.406c0.191-0.365,0.816-1.58,2.796-1.58
		c0.781,0,3.16,0.295,3.16,2.969v5.921h-1.667v-5.539c0-0.573-0.069-1.094-0.469-1.494c-0.417-0.399-0.99-0.59-1.545-0.59
		c-1.181,0-2.275,0.851-2.275,2.604v5.019h-1.632V12.481z"/>
	<path fill="#00435B" d="M658.791,20.191c-0.122-0.434-0.156-0.851-0.156-1.302c-0.782,1.441-1.962,1.58-2.692,1.58
		c-1.997,0-3.073-1.129-3.073-2.57c0-0.695,0.243-1.806,1.528-2.553c0.938-0.521,2.327-0.573,3.021-0.573
		c0.417,0,0.677,0.018,1.181,0.052c0-1.077,0-1.545-0.313-1.927c-0.33-0.434-1.042-0.573-1.511-0.573
		c-1.649,0-1.736,1.129-1.753,1.476h-1.632c0.052-0.452,0.104-1.059,0.607-1.649c0.66-0.729,1.893-0.938,2.813-0.938
		c1.268,0,2.622,0.399,3.091,1.285c0.278,0.521,0.295,0.938,0.295,1.337l-0.069,4.167c0,0.139,0.017,1.302,0.139,2.188H658.791z
		 M657.662,15.902c-0.66,0-3.143,0-3.143,1.771c0,0.556,0.348,1.511,1.806,1.511c0.833,0,1.458-0.33,1.858-0.938
		c0.365-0.59,0.382-1.077,0.417-2.292C658.304,15.919,658.061,15.902,657.662,15.902z"/>
	<path fill="#00435B" d="M663.216,13.245c0-0.59-0.035-1.198-0.087-1.771h1.65l0.035,1.684c0.313-1.215,1.354-1.615,2.084-1.719
		c0.486-0.069,0.851-0.052,1.128-0.035v1.598c-0.087-0.035-0.191-0.052-0.313-0.069c-0.122-0.018-0.278-0.018-0.469-0.018
		c-1.928,0-2.379,1.146-2.379,2.64v4.636h-1.65V13.245z"/>
	<path fill="#00435B" d="M673.807,20.243l-1.25,3.247h-1.684l1.319-3.334l-3.629-8.682h1.84l2.727,6.876l2.778-6.876h1.771
		L673.807,20.243z"/>
	<path fill="#00435B" d="M686.098,7.654v5.383h5.956V7.654h1.736v12.537h-1.736V14.53h-5.956v5.661h-1.737V7.654H686.098z"/>
	<path fill="#00435B" d="M697.886,16.127c-0.035,1.806,0.712,3.143,2.5,3.143c1.059,0,1.91-0.556,2.049-1.806h1.632
		c-0.052,0.434-0.122,1.146-0.747,1.823c-0.382,0.434-1.25,1.163-3.004,1.163c-2.744,0-4.046-1.702-4.046-4.462
		c0-1.719,0.348-3.143,1.719-4.098c0.833-0.59,1.875-0.643,2.379-0.643c3.907,0,3.82,3.456,3.786,4.879H697.886z M702.487,14.981
		c0.017-0.833-0.139-2.57-2.153-2.57c-1.059,0-2.344,0.643-2.379,2.57H702.487z"/>
	<path fill="#00435B" d="M711.862,20.191c-0.122-0.434-0.156-0.851-0.156-1.302c-0.782,1.441-1.962,1.58-2.692,1.58
		c-1.997,0-3.073-1.129-3.073-2.57c0-0.695,0.243-1.806,1.528-2.553c0.938-0.521,2.327-0.573,3.021-0.573
		c0.417,0,0.677,0.018,1.181,0.052c0-1.077,0-1.545-0.313-1.927c-0.33-0.434-1.042-0.573-1.511-0.573
		c-1.649,0-1.736,1.129-1.753,1.476h-1.632c0.052-0.452,0.104-1.059,0.607-1.649c0.66-0.729,1.893-0.938,2.813-0.938
		c1.268,0,2.622,0.399,3.091,1.285c0.278,0.521,0.295,0.938,0.295,1.337l-0.069,4.167c0,0.139,0.017,1.302,0.139,2.188H711.862z
		 M710.733,15.902c-0.66,0-3.143,0-3.143,1.771c0,0.556,0.348,1.511,1.806,1.511c0.833,0,1.458-0.33,1.858-0.938
		c0.365-0.59,0.382-1.077,0.417-2.292C711.375,15.919,711.132,15.902,710.733,15.902z"/>
	<path fill="#00435B" d="M716.288,13.245c0-0.59-0.035-1.198-0.086-1.771h1.649l0.035,1.684c0.313-1.215,1.354-1.615,2.084-1.719
		c0.486-0.069,0.851-0.052,1.128-0.035v1.598c-0.087-0.035-0.191-0.052-0.313-0.069c-0.122-0.018-0.278-0.018-0.469-0.018
		c-1.928,0-2.379,1.146-2.379,2.64v4.636h-1.65V13.245z"/>
	<path fill="#00435B" d="M721.617,11.439h1.545V9.616l1.615-0.521v2.344h1.945v1.198h-1.945v5.227c0,0.434,0,1.163,1.163,1.163
		c0.33,0,0.643-0.052,0.782-0.086v1.268c-0.295,0.052-0.764,0.104-1.354,0.104c-1.494,0-2.206-0.434-2.206-1.858v-5.817h-1.545
		V11.439z"/>
	<path fill="#00435B" d="M733.562,7.654h3.629c1.685,0,3.664,0,5.053,1.632c1.111,1.302,1.545,3.021,1.545,4.74
		c0,2.709-1.129,4.376-2.084,5.14c-1.233,1.024-2.778,1.024-4.619,1.024h-3.525V7.654z M735.298,18.767H737
		c1.198,0,2.448-0.069,3.282-0.695c1.598-1.198,1.65-3.247,1.65-3.976c0-0.469-0.035-2.605-1.216-3.907
		c-0.799-0.886-1.806-1.094-3.334-1.094h-2.083V18.767z"/>
	<path fill="#00435B" d="M745.939,7.688h1.962v1.789h-1.962V7.688z M746.113,11.474h1.632v8.717h-1.632V11.474z"/>
	<path fill="#00435B" d="M751.86,17.604c-0.018,0.66,0.33,1.58,1.91,1.58c0.677,0,1.181-0.122,1.528-0.556
		c0.174-0.226,0.278-0.521,0.278-0.816c0-0.851-0.607-1.007-1.91-1.302c-1.823-0.417-3.351-0.782-3.351-2.605
		c0-1.597,1.389-2.639,3.403-2.639c1.094,0,2.622,0.313,3.143,1.354c0.226,0.486,0.226,0.903,0.226,1.268h-1.667
		c0.052-1.32-1.094-1.424-1.684-1.424c-0.243,0-1.771,0-1.771,1.25c0,0.799,0.782,0.99,1.233,1.111
		c2.414,0.573,2.935,0.712,3.456,1.198c0.486,0.452,0.66,1.059,0.66,1.615c0,0.973-0.539,1.806-1.181,2.206
		c-0.764,0.469-1.684,0.59-2.587,0.59c-1.771,0-3.42-0.729-3.403-2.831H751.86z"/>
	<path fill="#00435B" d="M760.592,16.127c-0.035,1.806,0.712,3.143,2.5,3.143c1.059,0,1.91-0.556,2.049-1.806h1.632
		c-0.052,0.434-0.122,1.146-0.747,1.823c-0.382,0.434-1.25,1.163-3.004,1.163c-2.744,0-4.046-1.702-4.046-4.462
		c0-1.719,0.347-3.143,1.719-4.098c0.833-0.59,1.875-0.643,2.379-0.643c3.907,0,3.82,3.456,3.786,4.879H760.592z M765.194,14.981
		c0.017-0.833-0.139-2.57-2.153-2.57c-1.059,0-2.344,0.643-2.379,2.57H765.194z"/>
	<path fill="#00435B" d="M774.569,20.191c-0.122-0.434-0.156-0.851-0.156-1.302c-0.782,1.441-1.962,1.58-2.692,1.58
		c-1.997,0-3.073-1.129-3.073-2.57c0-0.695,0.243-1.806,1.528-2.553c0.938-0.521,2.327-0.573,3.021-0.573
		c0.417,0,0.677,0.018,1.181,0.052c0-1.077,0-1.545-0.313-1.927c-0.33-0.434-1.042-0.573-1.511-0.573
		c-1.649,0-1.736,1.129-1.753,1.476h-1.632c0.052-0.452,0.104-1.059,0.607-1.649c0.66-0.729,1.893-0.938,2.813-0.938
		c1.268,0,2.622,0.399,3.091,1.285c0.278,0.521,0.295,0.938,0.295,1.337l-0.069,4.167c0,0.139,0.017,1.302,0.139,2.188H774.569z
		 M773.44,15.902c-0.66,0-3.143,0-3.143,1.771c0,0.556,0.348,1.511,1.806,1.511c0.833,0,1.458-0.33,1.858-0.938
		c0.365-0.59,0.382-1.077,0.417-2.292C774.083,15.919,773.839,15.902,773.44,15.902z"/>
	<path fill="#00435B" d="M779.845,17.604c-0.018,0.66,0.33,1.58,1.91,1.58c0.677,0,1.181-0.122,1.528-0.556
		c0.174-0.226,0.278-0.521,0.278-0.816c0-0.851-0.607-1.007-1.91-1.302c-1.823-0.417-3.351-0.782-3.351-2.605
		c0-1.597,1.389-2.639,3.403-2.639c1.094,0,2.622,0.313,3.143,1.354c0.226,0.486,0.226,0.903,0.226,1.268h-1.667
		c0.052-1.32-1.094-1.424-1.684-1.424c-0.243,0-1.771,0-1.771,1.25c0,0.799,0.782,0.99,1.233,1.111
		c2.414,0.573,2.935,0.712,3.456,1.198c0.486,0.452,0.66,1.059,0.66,1.615c0,0.973-0.539,1.806-1.181,2.206
		c-0.764,0.469-1.684,0.59-2.587,0.59c-1.771,0-3.42-0.729-3.403-2.831H779.845z"/>
	<path fill="#00435B" d="M788.578,16.127c-0.035,1.806,0.712,3.143,2.5,3.143c1.059,0,1.91-0.556,2.049-1.806h1.632
		c-0.052,0.434-0.122,1.146-0.747,1.823c-0.382,0.434-1.25,1.163-3.004,1.163c-2.744,0-4.046-1.702-4.046-4.462
		c0-1.719,0.348-3.143,1.719-4.098c0.833-0.59,1.875-0.643,2.379-0.643c3.907,0,3.82,3.456,3.786,4.879H788.578z M793.18,14.981
		c0.017-0.833-0.139-2.57-2.153-2.57c-1.059,0-2.344,0.643-2.379,2.57H793.18z"/>
	<path fill="#00435B" d="M4.567,41.024V29.963H0.365v-1.476h10.124v1.476H6.286v11.061H4.567z"/>
	<path fill="#00435B" d="M12.222,34.078c0-0.59-0.035-1.198-0.086-1.771h1.649l0.035,1.684c0.313-1.215,1.354-1.615,2.084-1.719
		c0.486-0.069,0.851-0.052,1.128-0.035v1.598c-0.087-0.035-0.191-0.052-0.313-0.069c-0.122-0.018-0.278-0.018-0.469-0.018
		c-1.928,0-2.379,1.146-2.379,2.64v4.636h-1.65V34.078z"/>
	<path fill="#00435B" d="M19.878,36.96c-0.035,1.806,0.712,3.143,2.5,3.143c1.059,0,1.91-0.556,2.049-1.806h1.632
		c-0.052,0.434-0.122,1.146-0.747,1.823c-0.382,0.434-1.25,1.163-3.004,1.163c-2.744,0-4.046-1.702-4.046-4.462
		c0-1.719,0.347-3.143,1.719-4.098c0.833-0.59,1.875-0.643,2.379-0.643c3.907,0,3.82,3.456,3.786,4.879H19.878z M24.48,35.814
		c0.017-0.833-0.139-2.57-2.153-2.57c-1.059,0-2.344,0.643-2.379,2.57H24.48z"/>
	<path fill="#00435B" d="M33.855,41.024c-0.122-0.434-0.156-0.851-0.156-1.302c-0.782,1.441-1.962,1.58-2.692,1.58
		c-1.997,0-3.073-1.129-3.073-2.57c0-0.695,0.243-1.806,1.528-2.553c0.938-0.521,2.327-0.573,3.021-0.573
		c0.417,0,0.677,0.018,1.181,0.052c0-1.077,0-1.545-0.313-1.927c-0.33-0.434-1.042-0.573-1.511-0.573
		c-1.649,0-1.736,1.129-1.753,1.476h-1.632c0.052-0.452,0.104-1.059,0.607-1.649c0.66-0.729,1.893-0.938,2.813-0.938
		c1.268,0,2.622,0.399,3.091,1.285c0.278,0.521,0.295,0.938,0.295,1.337l-0.069,4.167c0,0.139,0.017,1.302,0.139,2.188H33.855z
		 M32.726,36.735c-0.66,0-3.143,0-3.143,1.771c0,0.556,0.348,1.511,1.806,1.511c0.833,0,1.458-0.33,1.858-0.938
		c0.365-0.59,0.382-1.077,0.417-2.292C33.369,36.752,33.125,36.735,32.726,36.735z"/>
	<path fill="#00435B" d="M36.857,32.272h1.545v-1.823l1.615-0.521v2.344h1.945v1.198h-1.945v5.227c0,0.434,0,1.163,1.163,1.163
		c0.33,0,0.643-0.052,0.782-0.086v1.268c-0.295,0.052-0.764,0.104-1.354,0.104c-1.494,0-2.206-0.434-2.206-1.858V33.47h-1.545
		V32.272z"/>
	<path fill="#00435B" d="M44.965,36.96c-0.035,1.806,0.712,3.143,2.5,3.143c1.059,0,1.91-0.556,2.049-1.806h1.632
		c-0.052,0.434-0.122,1.146-0.747,1.823c-0.382,0.434-1.25,1.163-3.004,1.163c-2.744,0-4.046-1.702-4.046-4.462
		c0-1.719,0.348-3.143,1.719-4.098c0.833-0.59,1.875-0.643,2.379-0.643c3.907,0,3.82,3.456,3.786,4.879H44.965z M49.566,35.814
		c0.017-0.833-0.139-2.57-2.153-2.57c-1.059,0-2.344,0.643-2.379,2.57H49.566z"/>
	<path fill="#00435B" d="M59.67,28.504h1.632v11.131c0,0.191,0.035,0.938,0.069,1.389H59.74l-0.035-1.389
		c-0.139,0.243-0.33,0.608-0.781,0.92c-0.712,0.486-1.563,0.643-2.153,0.643c-1.163,0-3.75-0.608-3.75-4.428
		c0-3.316,1.893-4.758,3.942-4.758c1.875,0,2.5,1.111,2.708,1.476V28.504z M59.063,34.113c-0.348-0.451-0.99-0.886-1.91-0.886
		c-2.396,0-2.396,2.9-2.396,3.49c0,1.546,0.399,3.334,2.396,3.334c2.57,0,2.57-2.83,2.57-3.507
		C59.723,35.276,59.427,34.582,59.063,34.113z"/>
	<path fill="#00435B" d="M72.968,28.487h1.858l5.07,12.537h-1.893l-1.354-3.265h-5.817l-1.354,3.265h-1.789L72.968,28.487z
		 M71.388,36.353h4.74l-2.309-6.147L71.388,36.353z"/>
	<path fill="#00435B" d="M83.158,41.701c0.069,0.972,0.486,1.702,2.032,1.702c2.275,0,2.31-1.649,2.31-4.011
		c-0.695,1.441-2.344,1.476-2.865,1.476c-0.799,0-1.945-0.174-2.674-1.077c-0.747-0.886-0.99-2.049-0.99-3.212
		c0-2.952,1.737-4.393,3.873-4.393c1.754,0,2.396,0.868,2.744,1.319l0.017-1.198h1.58l-0.035,1.58l-0.017,5.452
		c0,2.102-0.07,2.952-0.417,3.612c-0.729,1.389-2.431,1.563-3.629,1.563c-3.49,0-3.595-1.632-3.664-2.813H83.158z M86.961,38.784
		c0.348-0.451,0.59-0.92,0.59-2.5c0-1.094-0.243-1.719-0.677-2.17c-0.434-0.469-1.128-0.764-1.875-0.764
		c-2.066,0-2.344,2.084-2.344,3.195c0,1.337,0.399,3.108,2.396,3.108C86.006,39.652,86.562,39.305,86.961,38.784z"/>
	<path fill="#00435B" d="M93.766,41.701c0.069,0.972,0.486,1.702,2.032,1.702c2.275,0,2.31-1.649,2.31-4.011
		c-0.695,1.441-2.344,1.476-2.865,1.476c-0.799,0-1.945-0.174-2.674-1.077c-0.747-0.886-0.99-2.049-0.99-3.212
		c0-2.952,1.737-4.393,3.873-4.393c1.754,0,2.396,0.868,2.744,1.319l0.017-1.198h1.58l-0.035,1.58l-0.017,5.452
		c0,2.102-0.07,2.952-0.417,3.612c-0.729,1.389-2.431,1.563-3.629,1.563c-3.49,0-3.595-1.632-3.664-2.813H93.766z M97.568,38.784
		c0.348-0.451,0.59-0.92,0.59-2.5c0-1.094-0.243-1.719-0.677-2.17c-0.434-0.469-1.128-0.764-1.875-0.764
		c-2.066,0-2.344,2.084-2.344,3.195c0,1.337,0.399,3.108,2.396,3.108C96.613,39.652,97.169,39.305,97.568,38.784z"/>
	<path fill="#00435B" d="M102.897,34.078c0-0.59-0.035-1.198-0.086-1.771h1.649l0.035,1.684c0.313-1.215,1.354-1.615,2.084-1.719
		c0.486-0.069,0.851-0.052,1.128-0.035v1.598c-0.087-0.035-0.191-0.052-0.313-0.069c-0.122-0.018-0.278-0.018-0.469-0.018
		c-1.928,0-2.379,1.146-2.379,2.64v4.636h-1.65V34.078z"/>
	<path fill="#00435B" d="M110.553,36.96c-0.035,1.806,0.712,3.143,2.5,3.143c1.059,0,1.91-0.556,2.049-1.806h1.632
		c-0.052,0.434-0.122,1.146-0.747,1.823c-0.382,0.434-1.25,1.163-3.004,1.163c-2.744,0-4.046-1.702-4.046-4.462
		c0-1.719,0.347-3.143,1.719-4.098c0.833-0.59,1.875-0.643,2.379-0.643c3.907,0,3.82,3.456,3.786,4.879H110.553z M115.155,35.814
		c0.017-0.833-0.139-2.57-2.153-2.57c-1.059,0-2.344,0.643-2.379,2.57H115.155z"/>
	<path fill="#00435B" d="M120.154,38.437c-0.018,0.66,0.33,1.58,1.91,1.58c0.677,0,1.181-0.122,1.528-0.556
		c0.174-0.226,0.278-0.521,0.278-0.816c0-0.851-0.607-1.007-1.91-1.302c-1.823-0.417-3.351-0.782-3.351-2.605
		c0-1.597,1.389-2.639,3.403-2.639c1.094,0,2.622,0.313,3.143,1.354c0.226,0.486,0.226,0.903,0.226,1.268h-1.667
		c0.052-1.32-1.094-1.424-1.684-1.424c-0.243,0-1.771,0-1.771,1.25c0,0.799,0.782,0.99,1.233,1.111
		c2.414,0.573,2.935,0.712,3.456,1.198c0.486,0.452,0.66,1.059,0.66,1.615c0,0.973-0.539,1.806-1.181,2.206
		c-0.764,0.469-1.684,0.59-2.587,0.59c-1.771,0-3.42-0.729-3.403-2.831H120.154z"/>
	<path fill="#00435B" d="M128.834,38.437c-0.018,0.66,0.33,1.58,1.91,1.58c0.677,0,1.181-0.122,1.528-0.556
		c0.174-0.226,0.278-0.521,0.278-0.816c0-0.851-0.607-1.007-1.91-1.302c-1.823-0.417-3.351-0.782-3.351-2.605
		c0-1.597,1.389-2.639,3.403-2.639c1.094,0,2.622,0.313,3.143,1.354c0.226,0.486,0.226,0.903,0.226,1.268h-1.667
		c0.052-1.32-1.094-1.424-1.684-1.424c-0.243,0-1.771,0-1.771,1.25c0,0.799,0.782,0.99,1.233,1.111
		c2.414,0.573,2.935,0.712,3.456,1.198c0.486,0.452,0.66,1.059,0.66,1.615c0,0.973-0.538,1.806-1.181,2.206
		c-0.764,0.469-1.684,0.59-2.587,0.59c-1.771,0-3.42-0.729-3.403-2.831H128.834z"/>
	<path fill="#00435B" d="M136.42,28.521h1.962v1.789h-1.962V28.521z M136.594,32.307h1.632v8.717h-1.632V32.307z"/>
	<path fill="#00435B" d="M140.083,32.307h1.823l2.778,6.911l2.709-6.911h1.806l-3.82,8.717h-1.649L140.083,32.307z"/>
	<path fill="#00435B" d="M152.046,36.96c-0.035,1.806,0.712,3.143,2.5,3.143c1.059,0,1.91-0.556,2.049-1.806h1.632
		c-0.052,0.434-0.122,1.146-0.747,1.823c-0.382,0.434-1.25,1.163-3.004,1.163c-2.744,0-4.046-1.702-4.046-4.462
		c0-1.719,0.348-3.143,1.719-4.098c0.833-0.59,1.875-0.643,2.379-0.643c3.907,0,3.82,3.456,3.786,4.879H152.046z M156.647,35.814
		c0.017-0.833-0.139-2.57-2.153-2.57c-1.059,0-2.344,0.643-2.379,2.57H156.647z"/>
	<path fill="#00435B" d="M160.743,28.504h1.632v12.52h-1.632V28.504z"/>
	<path fill="#00435B" d="M169.459,41.076l-1.25,3.247h-1.684l1.319-3.334l-3.629-8.682h1.84l2.727,6.876l2.778-6.876h1.771
		L169.459,41.076z"/>
	<path fill="#00435B" d="M179.857,28.521h1.962v1.789h-1.962V28.521z M180.031,32.307h1.632v8.717h-1.632V32.307z"/>
	<path fill="#00435B" d="M184.892,33.314l-0.017-1.007h1.632l0.018,1.406c0.191-0.365,0.816-1.58,2.796-1.58
		c0.781,0,3.16,0.295,3.16,2.969v5.921h-1.667v-5.539c0-0.573-0.069-1.094-0.469-1.494c-0.417-0.399-0.99-0.59-1.545-0.59
		c-1.181,0-2.275,0.851-2.275,2.604v5.019h-1.632V33.314z"/>
	<path fill="#00435B" d="M200.36,28.487h1.719v10.992h5.834v1.545h-7.554V28.487z"/>
	<path fill="#00435B" d="M209.77,28.521h1.962v1.789h-1.962V28.521z M209.943,32.307h1.632v8.717h-1.632V32.307z"/>
	<path fill="#00435B" d="M214.701,33.731c0-0.382-0.018-0.59-0.052-1.424h1.65l0.035,1.441c0.816-1.372,2.257-1.58,2.969-1.58
		c1.875,0,3.664,1.285,3.664,4.515c0,3.248-1.893,4.671-3.977,4.671c-1.268,0-2.206-0.539-2.674-1.303v4.324h-1.615V33.731z
		 M218.712,40.156c0.417,0,1.285-0.087,1.84-0.851c0.625-0.851,0.712-2.101,0.712-2.726c0-1.563-0.469-3.195-2.396-3.195
		c-2.605,0-2.605,2.761-2.605,3.542C216.263,37.985,216.42,40.156,218.712,40.156z"/>
	<path fill="#00435B" d="M225.203,28.521h1.962v1.789h-1.962V28.521z M225.377,32.307h1.632v8.717h-1.632V32.307z"/>
	<path fill="#00435B" d="M236.229,28.504h1.632v11.131c0,0.191,0.035,0.938,0.069,1.389h-1.632l-0.035-1.389
		c-0.139,0.243-0.33,0.608-0.781,0.92c-0.712,0.486-1.563,0.643-2.153,0.643c-1.163,0-3.75-0.608-3.75-4.428
		c0-3.316,1.893-4.758,3.942-4.758c1.875,0,2.5,1.111,2.708,1.476V28.504z M235.622,34.113c-0.348-0.451-0.99-0.886-1.91-0.886
		c-2.396,0-2.396,2.9-2.396,3.49c0,1.546,0.399,3.334,2.396,3.334c2.57,0,2.57-2.83,2.57-3.507
		C236.281,35.276,235.986,34.582,235.622,34.113z"/>
	<path fill="#00435B" d="M239.995,35.797h4.358v1.319h-4.358V35.797z"/>
	<path fill="#00435B" d="M246.661,28.487h1.719v10.992h5.834v1.545h-7.554V28.487z"/>
	<path fill="#00435B" d="M260.013,32.081c3.49,0,4.271,2.744,4.271,4.567c0,2.553-1.441,4.671-4.41,4.671
		c-2.883,0-4.289-1.997-4.289-4.55C255.585,34.616,256.592,32.081,260.013,32.081z M259.909,40.104c1.233,0,2.639-0.885,2.639-3.507
		c0-2.171-1.007-3.317-2.535-3.317c-1.042,0-2.726,0.66-2.726,3.386C257.287,38.454,258.051,40.104,259.909,40.104z"/>
	<path fill="#00435B" d="M267.303,32.307l2.101,6.946l2.205-6.946h2.136l1.979,6.876l2.188-6.876h1.685l-3.074,8.717h-1.875
		l-2.049-7.171l-2.274,7.171h-1.928l-2.882-8.717H267.303z"/>
	<path fill="#00435B" d="M282.286,36.96c-0.035,1.806,0.712,3.143,2.5,3.143c1.059,0,1.91-0.556,2.049-1.806h1.632
		c-0.052,0.434-0.122,1.146-0.747,1.823c-0.382,0.434-1.25,1.163-3.004,1.163c-2.744,0-4.046-1.702-4.046-4.462
		c0-1.719,0.347-3.143,1.719-4.098c0.833-0.59,1.875-0.643,2.379-0.643c3.907,0,3.82,3.456,3.786,4.879H282.286z M286.887,35.814
		c0.017-0.833-0.139-2.57-2.153-2.57c-1.059,0-2.344,0.643-2.379,2.57H286.887z"/>
	<path fill="#00435B" d="M291.035,34.078c0-0.59-0.035-1.198-0.087-1.771h1.65l0.035,1.684c0.313-1.215,1.354-1.615,2.084-1.719
		c0.486-0.069,0.851-0.052,1.128-0.035v1.598c-0.087-0.035-0.191-0.052-0.313-0.069c-0.122-0.018-0.278-0.018-0.469-0.018
		c-1.928,0-2.379,1.146-2.379,2.64v4.636h-1.65V34.078z"/>
	<path fill="#00435B" d="M297.545,28.521h1.962v1.789h-1.962V28.521z M297.719,32.307h1.632v8.717h-1.632V32.307z"/>
	<path fill="#00435B" d="M302.58,33.314l-0.017-1.007h1.632l0.017,1.406c0.191-0.365,0.816-1.58,2.796-1.58
		c0.781,0,3.16,0.295,3.16,2.969v5.921h-1.667v-5.539c0-0.573-0.069-1.094-0.469-1.494c-0.417-0.399-0.99-0.59-1.545-0.59
		c-1.181,0-2.275,0.851-2.275,2.604v5.019h-1.632V33.314z"/>
	<path fill="#00435B" d="M314.698,41.701c0.069,0.972,0.486,1.702,2.032,1.702c2.275,0,2.31-1.649,2.31-4.011
		c-0.695,1.441-2.344,1.476-2.865,1.476c-0.799,0-1.945-0.174-2.674-1.077c-0.747-0.886-0.99-2.049-0.99-3.212
		c0-2.952,1.737-4.393,3.873-4.393c1.754,0,2.396,0.868,2.744,1.319l0.017-1.198h1.58l-0.035,1.58l-0.017,5.452
		c0,2.102-0.07,2.952-0.417,3.612c-0.729,1.389-2.431,1.563-3.629,1.563c-3.49,0-3.595-1.632-3.664-2.813H314.698z M318.501,38.784
		c0.348-0.451,0.59-0.92,0.59-2.5c0-1.094-0.243-1.719-0.677-2.17c-0.434-0.469-1.128-0.764-1.875-0.764
		c-2.066,0-2.344,2.084-2.344,3.195c0,1.337,0.399,3.108,2.396,3.108C317.546,39.652,318.102,39.305,318.501,38.784z"/>
	<path fill="#00435B" d="M328.569,28.487h3.629c1.685,0,3.664,0,5.053,1.632c1.111,1.302,1.545,3.021,1.545,4.74
		c0,2.709-1.129,4.376-2.084,5.14c-1.233,1.024-2.778,1.024-4.619,1.024h-3.525V28.487z M330.306,39.6h1.702
		c1.198,0,2.448-0.069,3.282-0.695c1.598-1.198,1.65-3.247,1.65-3.976c0-0.469-0.035-2.605-1.216-3.907
		c-0.799-0.886-1.806-1.094-3.334-1.094h-2.083V39.6z"/>
	<path fill="#00435B" d="M340.947,28.521h1.962v1.789h-1.962V28.521z M341.121,32.307h1.632v8.717h-1.632V32.307z"/>
	<path fill="#00435B" d="M346.867,38.437c-0.018,0.66,0.33,1.58,1.91,1.58c0.677,0,1.181-0.122,1.528-0.556
		c0.174-0.226,0.278-0.521,0.278-0.816c0-0.851-0.607-1.007-1.91-1.302c-1.823-0.417-3.351-0.782-3.351-2.605
		c0-1.597,1.389-2.639,3.403-2.639c1.094,0,2.622,0.313,3.143,1.354c0.226,0.486,0.226,0.903,0.226,1.268h-1.667
		c0.052-1.32-1.094-1.424-1.684-1.424c-0.243,0-1.771,0-1.771,1.25c0,0.799,0.782,0.99,1.233,1.111
		c2.414,0.573,2.935,0.712,3.456,1.198c0.486,0.452,0.66,1.059,0.66,1.615c0,0.973-0.538,1.806-1.181,2.206
		c-0.764,0.469-1.684,0.59-2.587,0.59c-1.771,0-3.42-0.729-3.403-2.831H346.867z"/>
	<path fill="#00435B" d="M355.6,36.96c-0.035,1.806,0.712,3.143,2.5,3.143c1.059,0,1.91-0.556,2.049-1.806h1.632
		c-0.052,0.434-0.122,1.146-0.747,1.823c-0.382,0.434-1.25,1.163-3.004,1.163c-2.744,0-4.046-1.702-4.046-4.462
		c0-1.719,0.347-3.143,1.719-4.098c0.833-0.59,1.875-0.643,2.379-0.643c3.907,0,3.82,3.456,3.786,4.879H355.6z M360.202,35.814
		c0.017-0.833-0.139-2.57-2.153-2.57c-1.059,0-2.344,0.643-2.379,2.57H360.202z"/>
	<path fill="#00435B" d="M369.576,41.024c-0.122-0.434-0.156-0.851-0.156-1.302c-0.782,1.441-1.962,1.58-2.692,1.58
		c-1.997,0-3.073-1.129-3.073-2.57c0-0.695,0.243-1.806,1.528-2.553c0.938-0.521,2.327-0.573,3.021-0.573
		c0.417,0,0.677,0.018,1.181,0.052c0-1.077,0-1.545-0.313-1.927c-0.33-0.434-1.042-0.573-1.511-0.573
		c-1.649,0-1.736,1.129-1.753,1.476h-1.632c0.052-0.452,0.104-1.059,0.607-1.649c0.66-0.729,1.893-0.938,2.813-0.938
		c1.268,0,2.622,0.399,3.091,1.285c0.278,0.521,0.295,0.938,0.295,1.337l-0.069,4.167c0,0.139,0.018,1.302,0.139,2.188H369.576z
		 M368.447,36.735c-0.66,0-3.143,0-3.143,1.771c0,0.556,0.347,1.511,1.806,1.511c0.833,0,1.458-0.33,1.858-0.938
		c0.365-0.59,0.382-1.077,0.417-2.292C369.09,36.752,368.847,36.735,368.447,36.735z"/>
	<path fill="#00435B" d="M374.853,38.437c-0.018,0.66,0.33,1.58,1.91,1.58c0.677,0,1.181-0.122,1.528-0.556
		c0.174-0.226,0.278-0.521,0.278-0.816c0-0.851-0.607-1.007-1.91-1.302c-1.823-0.417-3.351-0.782-3.351-2.605
		c0-1.597,1.389-2.639,3.403-2.639c1.094,0,2.622,0.313,3.143,1.354c0.226,0.486,0.226,0.903,0.226,1.268h-1.667
		c0.052-1.32-1.094-1.424-1.684-1.424c-0.243,0-1.771,0-1.771,1.25c0,0.799,0.782,0.99,1.233,1.111
		c2.414,0.573,2.935,0.712,3.456,1.198c0.486,0.452,0.66,1.059,0.66,1.615c0,0.973-0.539,1.806-1.181,2.206
		c-0.764,0.469-1.684,0.59-2.587,0.59c-1.771,0-3.42-0.729-3.403-2.831H374.853z"/>
	<path fill="#00435B" d="M383.585,36.96c-0.035,1.806,0.712,3.143,2.5,3.143c1.059,0,1.91-0.556,2.049-1.806h1.632
		c-0.052,0.434-0.122,1.146-0.747,1.823c-0.382,0.434-1.25,1.163-3.004,1.163c-2.744,0-4.046-1.702-4.046-4.462
		c0-1.719,0.347-3.143,1.719-4.098c0.833-0.59,1.875-0.643,2.379-0.643c3.907,0,3.82,3.456,3.786,4.879H383.585z M388.187,35.814
		c0.017-0.833-0.139-2.57-2.153-2.57c-1.059,0-2.344,0.643-2.379,2.57H388.187z"/>
	<path fill="#00435B" d="M397.109,28.487h3.073l3.542,10.332l3.629-10.332h2.865v12.537h-1.702V29.737l-4.115,11.287h-1.65
		l-3.959-11.217v11.217h-1.684V28.487z"/>
	<path fill="#00435B" d="M418.776,41.024c-0.122-0.434-0.156-0.851-0.156-1.302c-0.782,1.441-1.962,1.58-2.692,1.58
		c-1.997,0-3.073-1.129-3.073-2.57c0-0.695,0.243-1.806,1.528-2.553c0.938-0.521,2.327-0.573,3.021-0.573
		c0.417,0,0.677,0.018,1.181,0.052c0-1.077,0-1.545-0.313-1.927c-0.33-0.434-1.042-0.573-1.511-0.573
		c-1.649,0-1.736,1.129-1.753,1.476h-1.632c0.052-0.452,0.104-1.059,0.607-1.649c0.66-0.729,1.893-0.938,2.813-0.938
		c1.268,0,2.622,0.399,3.091,1.285c0.278,0.521,0.295,0.938,0.295,1.337l-0.069,4.167c0,0.139,0.018,1.302,0.139,2.188H418.776z
		 M417.647,36.735c-0.66,0-3.143,0-3.143,1.771c0,0.556,0.347,1.511,1.806,1.511c0.833,0,1.458-0.33,1.858-0.938
		c0.365-0.59,0.382-1.077,0.417-2.292C418.29,36.752,418.047,36.735,417.647,36.735z"/>
	<path fill="#00435B" d="M423.167,33.314l-0.017-1.007h1.632l0.018,1.406c0.191-0.365,0.816-1.58,2.796-1.58
		c0.781,0,3.16,0.295,3.16,2.969v5.921h-1.667v-5.539c0-0.573-0.069-1.094-0.469-1.494c-0.417-0.399-0.99-0.59-1.545-0.59
		c-1.181,0-2.275,0.851-2.275,2.604v5.019h-1.632V33.314z"/>
	<path fill="#00435B" d="M439.037,41.024c-0.122-0.434-0.156-0.851-0.156-1.302c-0.782,1.441-1.962,1.58-2.692,1.58
		c-1.997,0-3.073-1.129-3.073-2.57c0-0.695,0.243-1.806,1.528-2.553c0.938-0.521,2.327-0.573,3.021-0.573
		c0.417,0,0.677,0.018,1.181,0.052c0-1.077,0-1.545-0.313-1.927c-0.33-0.434-1.042-0.573-1.511-0.573
		c-1.649,0-1.736,1.129-1.753,1.476h-1.632c0.052-0.452,0.104-1.059,0.607-1.649c0.66-0.729,1.893-0.938,2.813-0.938
		c1.268,0,2.622,0.399,3.091,1.285c0.278,0.521,0.295,0.938,0.295,1.337l-0.069,4.167c0,0.139,0.017,1.302,0.139,2.188H439.037z
		 M437.908,36.735c-0.66,0-3.143,0-3.143,1.771c0,0.556,0.348,1.511,1.806,1.511c0.833,0,1.458-0.33,1.858-0.938
		c0.365-0.59,0.382-1.077,0.417-2.292C438.55,36.752,438.307,36.735,437.908,36.735z"/>
	<path fill="#00435B" d="M444.938,41.701c0.069,0.972,0.486,1.702,2.032,1.702c2.275,0,2.31-1.649,2.31-4.011
		c-0.695,1.441-2.344,1.476-2.865,1.476c-0.799,0-1.945-0.174-2.674-1.077c-0.747-0.886-0.99-2.049-0.99-3.212
		c0-2.952,1.736-4.393,3.873-4.393c1.753,0,2.396,0.868,2.744,1.319l0.017-1.198h1.58l-0.035,1.58l-0.017,5.452
		c0,2.102-0.07,2.952-0.417,3.612c-0.729,1.389-2.431,1.563-3.629,1.563c-3.491,0-3.595-1.632-3.664-2.813H444.938z M448.741,38.784
		c0.348-0.451,0.59-0.92,0.59-2.5c0-1.094-0.243-1.719-0.677-2.17c-0.435-0.469-1.129-0.764-1.875-0.764
		c-2.066,0-2.344,2.084-2.344,3.195c0,1.337,0.399,3.108,2.396,3.108C447.786,39.652,448.341,39.305,448.741,38.784z"/>
	<path fill="#00435B" d="M454.973,36.96c-0.035,1.806,0.712,3.143,2.5,3.143c1.059,0,1.91-0.556,2.049-1.806h1.632
		c-0.052,0.434-0.122,1.146-0.747,1.823c-0.382,0.434-1.25,1.163-3.004,1.163c-2.744,0-4.046-1.702-4.046-4.462
		c0-1.719,0.348-3.143,1.719-4.098c0.833-0.59,1.875-0.643,2.379-0.643c3.907,0,3.82,3.456,3.786,4.879H454.973z M459.574,35.814
		c0.017-0.833-0.139-2.57-2.153-2.57c-1.059,0-2.344,0.643-2.379,2.57H459.574z"/>
	<path fill="#00435B" d="M463.618,33.47l-0.035-1.163h1.649v1.268c0.833-1.372,2.014-1.494,2.761-1.494
		c1.927,0,2.535,0.99,2.848,1.632c0.295-0.486,1.007-1.632,2.935-1.632c1.25,0,3.195,0.521,3.195,3.091v5.852h-1.65v-5.591
		c0-0.764-0.139-1.094-0.295-1.32c-0.277-0.399-0.833-0.764-1.667-0.764c-1.059,0-1.632,0.608-1.858,0.92
		c-0.382,0.539-0.382,1.494-0.382,1.875v4.879h-1.65v-5.765c0-1.077-0.625-1.91-1.91-1.91c-1.111,0-1.719,0.695-1.91,0.955
		c-0.365,0.504-0.382,1.216-0.382,1.771v4.949h-1.649V33.47z"/>
	<path fill="#00435B" d="M481.014,36.96c-0.035,1.806,0.712,3.143,2.5,3.143c1.059,0,1.91-0.556,2.049-1.806h1.632
		c-0.052,0.434-0.122,1.146-0.747,1.823c-0.382,0.434-1.25,1.163-3.004,1.163c-2.744,0-4.046-1.702-4.046-4.462
		c0-1.719,0.348-3.143,1.719-4.098c0.833-0.59,1.875-0.643,2.379-0.643c3.907,0,3.82,3.456,3.786,4.879H481.014z M485.615,35.814
		c0.017-0.833-0.139-2.57-2.153-2.57c-1.059,0-2.344,0.643-2.379,2.57H485.615z"/>
	<path fill="#00435B" d="M489.729,33.314l-0.017-1.007h1.632l0.017,1.406c0.191-0.365,0.816-1.58,2.796-1.58
		c0.781,0,3.16,0.295,3.16,2.969v5.921h-1.667v-5.539c0-0.573-0.069-1.094-0.469-1.494c-0.417-0.399-0.99-0.59-1.545-0.59
		c-1.181,0-2.275,0.851-2.275,2.604v5.019h-1.632V33.314z"/>
	<path fill="#00435B" d="M498.947,32.272h1.545v-1.823l1.615-0.521v2.344h1.945v1.198h-1.945v5.227c0,0.434,0,1.163,1.163,1.163
		c0.33,0,0.643-0.052,0.782-0.086v1.268c-0.295,0.052-0.764,0.104-1.354,0.104c-1.494,0-2.206-0.434-2.206-1.858V33.47h-1.545
		V32.272z"/>
	<path fill="#00435B" d="M518.444,31.873c-0.069-0.434-0.295-2.171-2.709-2.171c-3.021,0-3.56,3.091-3.56,5.175
		c0,2.361,0.677,4.914,3.542,4.914c0.764,0,1.493-0.191,2.032-0.747c0.451-0.486,0.556-1.024,0.607-1.32h1.91
		c-0.26,2.466-2.535,3.49-4.688,3.49c-4.41,0-5.261-3.89-5.261-6.321c0-2.639,1.024-6.581,5.487-6.581
		c1.771,0,4.271,0.712,4.497,3.56H518.444z"/>
	<path fill="#00435B" d="M522.505,28.504h1.632v12.52h-1.632V28.504z"/>
	<path fill="#00435B" d="M527.141,28.521h1.962v1.789h-1.962V28.521z M527.314,32.307h1.632v8.717h-1.632V32.307z"/>
	<path fill="#00435B" d="M532.175,33.314l-0.017-1.007h1.632l0.018,1.406c0.191-0.365,0.816-1.58,2.796-1.58
		c0.781,0,3.16,0.295,3.16,2.969v5.921h-1.667v-5.539c0-0.573-0.069-1.094-0.469-1.494c-0.417-0.399-0.99-0.59-1.545-0.59
		c-1.181,0-2.275,0.851-2.275,2.604v5.019h-1.632V33.314z"/>
	<path fill="#00435B" d="M542.574,28.521h1.962v1.789h-1.962V28.521z M542.748,32.307h1.632v8.717h-1.632V32.307z"/>
	<path fill="#00435B" d="M552.523,35.103c-0.035-0.399-0.156-1.823-1.736-1.823c-2.257,0-2.257,2.622-2.257,3.282
		c0,1.789,0.434,3.456,2.17,3.456c1.389,0,1.858-1.042,1.893-1.893h1.649c-0.104,1.702-1.372,3.125-3.525,3.125
		c-0.59,0-1.945-0.122-2.865-1.128c-0.521-0.608-1.042-1.528-1.042-3.334c0-3.629,2.223-4.706,3.959-4.706
		c0.573,0,1.875,0.122,2.674,1.077c0.643,0.747,0.695,1.458,0.729,1.945H552.523z"/>
	<path fill="#00435B" d="M557.175,38.437c-0.018,0.66,0.33,1.58,1.91,1.58c0.677,0,1.181-0.122,1.528-0.556
		c0.174-0.226,0.278-0.521,0.278-0.816c0-0.851-0.607-1.007-1.91-1.302c-1.823-0.417-3.351-0.782-3.351-2.605
		c0-1.597,1.389-2.639,3.403-2.639c1.094,0,2.622,0.313,3.143,1.354c0.226,0.486,0.226,0.903,0.226,1.268h-1.667
		c0.052-1.32-1.094-1.424-1.684-1.424c-0.243,0-1.771,0-1.771,1.25c0,0.799,0.782,0.99,1.233,1.111
		c2.414,0.573,2.935,0.712,3.456,1.198c0.486,0.452,0.66,1.059,0.66,1.615c0,0.973-0.538,1.806-1.181,2.206
		c-0.764,0.469-1.684,0.59-2.587,0.59c-1.771,0-3.42-0.729-3.403-2.831H557.175z"/>
	<path fill="#00435B" d="M566.131,29.345c-0.435,0.364-1.133,0.779-1.629,1.012v-1.012c0.658-0.344,1.305-0.769,1.7-1.103h0.9v7
		h-0.971V29.345z"/>
</g>
</svg>
