<?xml version="1.0" encoding="utf-8"?>
<!-- Generator: Adobe Illustrator 17.0.0, SVG Export Plug-In . SVG Version: 6.00 Build 0)  -->
<!DOCTYPE svg PUBLIC "-//W3C//DTD SVG 1.1//EN" "http://www.w3.org/Graphics/SVG/1.1/DTD/svg11.dtd">
<svg version="1.1" id="Layer_1" xmlns="http://www.w3.org/2000/svg" xmlns:xlink="http://www.w3.org/1999/xlink" x="0px" y="0px"
	 width="187.188px" height="132.412px" viewBox="0 0 187.188 132.412" enable-background="new 0 0 187.188 132.412"
	 xml:space="preserve">
<g>
	<g>
		<path fill="#00435B" d="M0.508,0h14.364v3.502H5.108v5.105h9.141v3.502H5.108v5.787h10.091v3.562H0.508V0z"/>
		<path fill="#00435B" d="M21.426,17.124c0.06,0.95,0.653,2.048,2.493,2.048c1.573,0,2.315-0.891,2.315-1.78
			c0-0.683-0.356-1.217-2.078-1.692l-2.73-0.742c-1.217-0.356-3.799-1.098-3.799-4.155c0-2.909,2.671-4.689,6.559-4.689
			c3.086,0,5.58,1.425,5.698,4.422h-4.007c-0.119-1.662-1.454-1.781-2.137-1.781c-1.187,0-2.077,0.563-2.077,1.484
			c0,1.009,0.742,1.217,2.047,1.573l2.701,0.742c2.73,0.742,4.007,2.137,4.007,4.184c0,2.582-2.226,5.164-6.885,5.164
			c-1.929,0-3.769-0.415-5.134-1.84c-0.979-1.039-1.069-2.226-1.098-2.938H21.426z"/>
		<path fill="#00435B" d="M42.02,21.25c-1.425,0.386-2.701,0.475-3.413,0.475c-4.422,0-4.422-2.79-4.422-4.036V9.467h-2.879V6.559
			h2.879V3.621l4.362-1.603v4.541h3.562v2.908h-3.562v6.767c0.03,1.364,0.03,2.226,1.989,2.226c0.653,0,0.95-0.03,1.484-0.089V21.25
			z"/>
		<path fill="#00435B" d="M53.739,21.457c-0.148-0.92-0.148-1.603-0.148-2.048c-1.662,2.404-3.65,2.404-4.481,2.404
			c-2.167,0-3.146-0.623-3.74-1.188c-0.89-0.89-1.306-2.106-1.306-3.294s0.416-3.383,3.175-4.659
			c1.84-0.831,4.481-0.831,5.936-0.831c0-0.979-0.03-1.454-0.208-1.988c-0.386-1.098-1.543-1.247-1.958-1.247
			c-0.624,0-1.276,0.267-1.662,0.831c-0.327,0.504-0.327,0.979-0.327,1.335h-4.303c0.03-0.801,0.119-2.404,1.692-3.532
			c1.365-0.979,3.116-1.217,4.541-1.217c1.247,0,3.858,0.208,5.342,1.929c1.009,1.217,1.039,2.997,1.039,3.68l0.03,6.024
			c0,1.276,0.089,2.553,0.356,3.799H53.739z M48.337,16.827c0,1.01,0.683,2.137,2.137,2.137c0.801,0,1.454-0.386,1.87-0.86
			c0.771-0.949,0.831-2.107,0.831-3.709C50.355,14.157,48.337,15.047,48.337,16.827z"/>
		<path fill="#00435B" d="M61.095,0.06h4.392V8.28c1.484-1.958,3.473-2.018,4.244-2.018c3.65,0,6.529,2.879,6.529,7.924
			c0,5.608-3.265,7.567-6.262,7.567c-0.771,0-3.146-0.06-4.511-2.403c-0.029,0.475-0.059,1.187-0.148,2.106h-4.244V0.06z
			 M68.544,9.2c-3.235,0-3.235,3.68-3.235,4.63c0,3.413,1.454,5.045,3.442,5.045c3.027,0,3.027-3.769,3.027-4.54
			C71.779,13.147,71.72,9.2,68.544,9.2z"/>
		<path fill="#00435B" d="M79.373,0h4.392v21.457h-4.392V0z"/>
		<path fill="#00435B" d="M87.473,0.03h4.689v3.829h-4.689V0.03z M87.621,6.44h4.392v15.017h-4.392V6.44z"/>
		<path fill="#00435B" d="M98.926,17.124c0.06,0.95,0.653,2.048,2.493,2.048c1.573,0,2.315-0.891,2.315-1.78
			c0-0.683-0.356-1.217-2.078-1.692l-2.73-0.742c-1.217-0.356-3.799-1.098-3.799-4.155c0-2.909,2.671-4.689,6.559-4.689
			c3.086,0,5.58,1.425,5.698,4.422h-4.007c-0.119-1.662-1.454-1.781-2.137-1.781c-1.187,0-2.077,0.563-2.077,1.484
			c0,1.009,0.742,1.217,2.047,1.573l2.701,0.742c2.73,0.742,4.007,2.137,4.007,4.184c0,2.582-2.226,5.164-6.885,5.164
			c-1.929,0-3.769-0.415-5.134-1.84c-0.979-1.039-1.069-2.226-1.098-2.938H98.926z"/>
		<path fill="#00435B" d="M110.824,0.03h4.363v8.488c0.504-0.712,1.603-2.255,4.333-2.255c2.226,0,3.65,1.098,4.363,2.018
			c0.534,0.742,0.979,2.107,0.979,4.066v9.111h-4.362v-8.962c0-0.861,0-3.265-2.463-3.265c-1.247,0-2.819,0.712-2.819,3.057
			l0.029,9.17h-4.422V0.03z"/>
		<path fill="#00435B" d="M132.366,15.077c0,0.979,0,4.006,3.057,4.006c1.098,0,2.196-0.415,2.612-2.077h4.006
			c-0.059,0.712-0.208,1.988-1.424,3.265c-1.098,1.157-3.057,1.751-5.253,1.751c-1.276,0-3.71-0.237-5.283-1.87
			c-1.365-1.425-1.929-3.442-1.929-5.846c0-2.434,0.593-5.342,3.116-7.093c1.157-0.771,2.582-1.247,4.214-1.247
			c2.137,0,4.689,0.831,6.054,3.621c1.009,2.048,0.95,4.244,0.891,5.491H132.366z M137.945,12.316c0-0.683-0.06-3.354-2.612-3.354
			c-1.929,0-2.73,1.603-2.819,3.354H137.945z"/>
		<path fill="#00435B" d="M155.244,0.03h4.422v18.994c0,0.891,0.06,1.87,0.119,2.434h-4.452l-0.119-2.166
			c-0.297,0.534-0.594,1.098-1.514,1.691c-1.098,0.712-2.255,0.771-2.908,0.771c-4.007,0-6.381-2.76-6.381-7.449
			c0-4.957,2.701-8.043,6.618-8.043c2.701,0,3.829,1.514,4.214,2.048V0.03z M151.89,18.905c1.276,0,2.315-0.771,2.79-1.692
			c0.653-1.246,0.712-2.789,0.712-3.531c0-2.938-1.276-4.541-3.265-4.541c-2.938,0-3.265,3.532-3.265,5.045
			C148.863,16.679,149.694,18.905,151.89,18.905z"/>
	</g>
	<g>
		<path fill="#00435B" d="M0.204,44.064c0-0.698-0.117-2.824-0.204-3.668h4.047l0.087,2.824c0.553-1.252,1.514-3.028,5.007-2.854
			v3.872c-4.367-0.407-4.629,1.834-4.629,3.668v7.25H0.204V44.064z"/>
		<path fill="#00435B" d="M11.383,34.137h4.6v3.756h-4.6V34.137z M11.528,40.426h4.309v14.731h-4.309V40.426z"/>
		<path fill="#00435B" d="M22.62,50.906c0.058,0.932,0.641,2.009,2.445,2.009c1.543,0,2.271-0.873,2.271-1.747
			c0-0.669-0.349-1.193-2.038-1.659l-2.679-0.728c-1.194-0.35-3.727-1.077-3.727-4.076c0-2.854,2.62-4.6,6.434-4.6
			c3.028,0,5.474,1.397,5.59,4.338h-3.93c-0.117-1.631-1.427-1.747-2.096-1.747c-1.165,0-2.038,0.553-2.038,1.456
			c0,0.989,0.728,1.193,2.009,1.543l2.649,0.728c2.678,0.728,3.93,2.096,3.93,4.105c0,2.532-2.184,5.065-6.754,5.065
			c-1.892,0-3.697-0.407-5.037-1.805c-0.96-1.02-1.048-2.184-1.077-2.883H22.62z"/>
		<path fill="#00435B" d="M34.235,34.107h4.28V46.51l4.454-6.143h4.862l-5.037,6.405l5.357,8.385h-5.095l-4.542-8.007v8.007h-4.28
			V34.107z"/>
		<path fill="#00435B" d="M58.457,44.064c0-0.698-0.117-2.824-0.204-3.668h4.047l0.087,2.824c0.553-1.252,1.514-3.028,5.008-2.854
			v3.872c-4.367-0.407-4.629,1.834-4.629,3.668v7.25h-4.309V44.064z"/>
		<path fill="#00435B" d="M73.245,48.897c0,0.961,0,3.931,2.999,3.931c1.078,0,2.155-0.408,2.562-2.038h3.931
			c-0.059,0.698-0.204,1.95-1.397,3.202c-1.077,1.136-2.999,1.718-5.153,1.718c-1.252,0-3.639-0.232-5.182-1.834
			c-1.339-1.397-1.893-3.377-1.893-5.735c0-2.388,0.583-5.24,3.057-6.958c1.135-0.757,2.533-1.223,4.134-1.223
			c2.096,0,4.6,0.814,5.939,3.552c0.99,2.009,0.932,4.163,0.874,5.386H73.245z M78.719,46.189c0-0.669-0.059-3.289-2.563-3.289
			c-1.892,0-2.678,1.572-2.766,3.289H78.719z"/>
		<path fill="#00435B" d="M95.69,34.137h4.338V52.77c0,0.873,0.059,1.834,0.117,2.388h-4.367l-0.116-2.126
			c-0.292,0.524-0.583,1.077-1.485,1.66c-1.077,0.698-2.213,0.757-2.853,0.757c-3.931,0-6.26-2.708-6.26-7.308
			c0-4.862,2.649-7.89,6.493-7.89c2.649,0,3.755,1.484,4.134,2.009V34.137z M92.401,52.653c1.252,0,2.271-0.757,2.737-1.659
			c0.64-1.224,0.698-2.737,0.698-3.465c0-2.883-1.251-4.454-3.202-4.454c-2.882,0-3.203,3.464-3.203,4.949
			C89.431,50.47,90.246,52.653,92.401,52.653z"/>
		<path fill="#00435B" d="M107.975,40.454v8.764c0,1.281,0,3.231,2.3,3.231c2.766,0,2.766-2.067,2.766-4.57v-7.425h4.425v9.695
			c0.058,3.174,0.087,3.552,0.087,3.931c0.029,0.407,0.058,0.669,0.116,1.077h-4.192l-0.146-1.951
			c-0.437,0.641-1.543,2.329-4.338,2.329c-1.979,0-3.61-0.902-4.425-1.979c-0.96-1.193-0.96-3.231-0.96-3.959v-9.143H107.975z"/>
		<path fill="#00435B" d="M129.314,45.666c-0.059-0.524-0.233-2.708-1.893-2.708c-2.038,0-2.271,3.086-2.271,4.688
			c0,0.815,0.087,3.436,1.077,4.513c0.408,0.437,0.844,0.495,1.165,0.495c0.466,0,1.805-0.204,1.98-2.824h4.25
			c-0.058,1.136-0.204,2.911-1.893,4.338c-1.048,0.902-2.358,1.368-4.192,1.368c-1.95,0-3.668-0.437-5.007-1.95
			c-1.281-1.485-1.863-3.436-1.863-5.794c0-6.696,4.92-7.628,6.871-7.628c2.737,0,5.969,1.515,5.998,5.503H129.314z"/>
		<path fill="#00435B" d="M144.744,54.953c-1.397,0.379-2.649,0.466-3.348,0.466c-4.338,0-4.338-2.736-4.338-3.959v-8.065h-2.824
			v-2.853h2.824v-2.883l4.28-1.571v4.454h3.494v2.853h-3.494v6.639c0.029,1.339,0.029,2.184,1.951,2.184
			c0.641,0,0.932-0.029,1.456-0.088V54.953z"/>
		<path fill="#00435B" d="M147.275,34.137h4.6v3.756h-4.6V34.137z M147.421,40.426h4.309v14.731h-4.309V40.426z"/>
		<path fill="#00435B" d="M162.443,40.105c5.328,0,7.628,3.609,7.628,7.715c0,4.134-2.387,7.86-7.715,7.86
			c-4.192,0-7.511-2.591-7.511-7.744C154.844,44.385,156.649,40.105,162.443,40.105z M162.501,52.683
			c1.892,0,3.173-1.136,3.173-5.037c0-1.95-0.378-4.658-3.232-4.658c-3.144,0-3.173,3.64-3.173,4.979
			C159.27,51.256,160.376,52.683,162.501,52.683z"/>
		<path fill="#00435B" d="M173.359,43.075c0-0.059,0-1.66-0.087-2.679h4.134l0.116,2.213c0.408-0.67,1.572-2.563,4.775-2.563
			c2.882,0,4.105,1.747,4.483,2.766c0.32,0.902,0.408,1.66,0.408,4.396v7.948h-4.396v-9.142c0-0.611,0-1.136-0.233-1.602
			c-0.32-0.641-0.99-1.252-2.096-1.252c-0.932,0-1.776,0.437-2.242,1.136c-0.262,0.378-0.524,1.106-0.524,2.241v8.618h-4.338V43.075
			z"/>
	</g>
	<g>
		<path fill="#00435B" d="M0.092,70.16h4.689v3.829H0.092V70.16z M0.241,76.571h4.392v15.017H0.241V76.571z"/>
		<path fill="#00435B" d="M8.548,79.271c0-0.06,0-1.691-0.089-2.73h4.214l0.119,2.256c0.416-0.683,1.603-2.611,4.867-2.611
			c2.938,0,4.185,1.78,4.571,2.819c0.326,0.92,0.415,1.691,0.415,4.481v8.102h-4.481V82.27c0-0.624,0-1.158-0.237-1.633
			c-0.326-0.652-1.009-1.276-2.137-1.276c-0.95,0-1.811,0.445-2.285,1.158c-0.267,0.386-0.534,1.127-0.534,2.285v8.784H8.548V79.271
			z"/>
		<path fill="#00435B" d="M47.064,77.135c-0.089-0.742-0.356-3.77-3.473-3.77c-3.413,0-4.837,3.562-4.837,7.983
			c0,1.276,0,7.36,4.481,7.36c1.929,0,3.769-1.217,3.858-4.065h4.837c-0.089,1.276-0.208,3.265-1.929,5.045
			c-1.899,1.959-4.303,2.404-6.262,2.404c-7.39,0-9.793-5.461-9.793-10.773c0-6.796,3.799-11.308,9.823-11.308
			c4.689,0,7.983,2.85,7.983,7.123H47.064z"/>
		<path fill="#00435B" d="M54.716,70.131h4.6v8.577h8.103v-8.577h4.659v21.457h-4.6V82.18h-8.162v9.408h-4.6V70.131z"/>
		<path fill="#00435B" d="M76.079,70.19l7.093,0.029c1.187,0,4.808,0.029,7.39,1.929c2.701,1.989,3.65,5.372,3.65,8.429
			c0,6.589-3.532,10.031-7.598,10.773c-0.801,0.148-1.691,0.237-3.858,0.237h-6.678V70.19z M80.738,88.057
			c0.505,0.029,1.276,0.06,1.811,0.06c1.959,0,3.65-0.148,4.986-1.484c1.811-1.811,1.929-5.016,1.929-6.055
			c0-3.027-1.039-5.816-3.917-6.618c-0.95-0.267-2.167-0.415-4.808-0.297V88.057z"/>
	</g>
	<g>
		<path fill="#00435B" d="M4.366,111.666l0.119,2.138c1.365-2.404,3.858-2.434,4.571-2.434c3.888,0,6.232,2.908,6.232,7.479
			c0,4.244-2.196,8.013-6.529,8.013c-2.701,0-3.799-1.424-4.185-1.929v7.479H0.092v-20.746H4.366z M10.836,119.026
			c0-1.78-0.445-4.837-3.027-4.837c-1.425,0-3.443,1.068-3.443,5.104c0,0.891,0.03,4.689,3.265,4.689
			C9.708,123.983,10.836,121.994,10.836,119.026z"/>
		<path fill="#00435B" d="M27.362,126.654c-0.148-0.92-0.148-1.603-0.148-2.048c-1.662,2.403-3.65,2.403-4.481,2.403
			c-2.167,0-3.146-0.623-3.74-1.187c-0.89-0.891-1.306-2.107-1.306-3.295c0-1.187,0.416-3.383,3.175-4.659
			c1.84-0.831,4.481-0.831,5.936-0.831c0-0.979-0.03-1.454-0.208-1.988c-0.386-1.098-1.543-1.246-1.958-1.246
			c-0.624,0-1.276,0.267-1.662,0.831c-0.327,0.504-0.327,0.979-0.327,1.335H18.34c0.03-0.801,0.119-2.404,1.692-3.531
			c1.365-0.979,3.116-1.217,4.541-1.217c1.247,0,3.858,0.207,5.342,1.929c1.009,1.217,1.039,2.997,1.039,3.68l0.03,6.025
			c0,1.276,0.089,2.552,0.356,3.799H27.362z M21.96,122.024c0,1.009,0.683,2.137,2.137,2.137c0.801,0,1.454-0.386,1.87-0.86
			c0.771-0.95,0.831-2.107,0.831-3.71C23.979,119.354,21.96,120.243,21.96,122.024z"/>
		<path fill="#00435B" d="M43.681,126.446c-1.425,0.386-2.701,0.475-3.413,0.475c-4.422,0-4.422-2.789-4.422-4.036v-8.221h-2.879
			v-2.908h2.879v-2.938l4.362-1.603v4.541h3.562v2.908h-3.562v6.767c0.03,1.365,0.03,2.226,1.989,2.226
			c0.653,0,0.95-0.029,1.484-0.089V126.446z"/>
		<path fill="#00435B" d="M46.26,105.227h4.689v3.828H46.26V105.227z M46.408,111.637H50.8v15.018h-4.392V111.637z"/>
		<path fill="#00435B" d="M58.188,120.273c0,0.979,0,4.007,3.057,4.007c1.098,0,2.196-0.416,2.612-2.078h4.006
			c-0.059,0.713-0.208,1.988-1.424,3.265c-1.098,1.157-3.057,1.751-5.253,1.751c-1.276,0-3.71-0.237-5.283-1.869
			c-1.365-1.425-1.929-3.443-1.929-5.847c0-2.434,0.593-5.343,3.116-7.094c1.157-0.771,2.582-1.246,4.214-1.246
			c2.137,0,4.689,0.831,6.054,3.621c1.009,2.047,0.95,4.243,0.891,5.49H58.188z M63.768,117.513c0-0.683-0.06-3.354-2.612-3.354
			c-1.929,0-2.73,1.603-2.819,3.354H63.768z"/>
		<path fill="#00435B" d="M71.213,114.338c0-0.06,0-1.692-0.089-2.73h4.214l0.119,2.255c0.416-0.683,1.603-2.611,4.867-2.611
			c2.938,0,4.185,1.78,4.57,2.819c0.327,0.92,0.416,1.691,0.416,4.481v8.103h-4.481v-9.319c0-0.623,0-1.157-0.237-1.632
			c-0.326-0.653-1.009-1.276-2.137-1.276c-0.95,0-1.811,0.445-2.285,1.157c-0.267,0.386-0.534,1.128-0.534,2.285v8.785h-4.422
			V114.338z"/>
		<path fill="#00435B" d="M98.097,126.446c-1.425,0.386-2.701,0.475-3.413,0.475c-4.422,0-4.422-2.789-4.422-4.036v-8.221h-2.879
			v-2.908h2.879v-2.938l4.362-1.603v4.541h3.562v2.908h-3.562v6.767c0.03,1.365,0.03,2.226,1.989,2.226
			c0.653,0,0.95-0.029,1.484-0.089V126.446z"/>
		<path fill="#00435B" d="M103.881,122.321c0.06,0.949,0.653,2.048,2.493,2.048c1.573,0,2.315-0.891,2.315-1.781
			c0-0.683-0.356-1.217-2.078-1.691l-2.73-0.742c-1.217-0.355-3.799-1.098-3.799-4.154c0-2.909,2.671-4.689,6.559-4.689
			c3.086,0,5.58,1.425,5.698,4.422h-4.007c-0.119-1.662-1.454-1.78-2.137-1.78c-1.187,0-2.078,0.563-2.078,1.483
			c0,1.009,0.742,1.217,2.048,1.573l2.701,0.742c2.73,0.741,4.006,2.137,4.006,4.185c0,2.582-2.226,5.164-6.885,5.164
			c-1.929,0-3.77-0.416-5.134-1.841c-0.979-1.038-1.069-2.226-1.098-2.938H103.881z"/>
	</g>
	<g>
		<path fill="#00435B" d="M115.375,106.512c1.125-0.484,2.197-1.09,3.201-1.816h2.232v12.077h-2.613v-9.396
			c-0.502,0.381-1.505,1.004-2.82,1.54V106.512z"/>
		<path fill="#00435B" d="M127.675,114.472l-2.059,4.256h-1.782l1.281-4.256H127.675z"/>
		<path fill="#00435B" d="M128.591,114.333l3.132-2.855c0.554-0.502,1.177-1.056,1.817-1.834c0.675-0.813,0.831-1.193,0.831-1.747
			c0-0.918-0.536-1.54-1.436-1.54c-1.384,0-1.505,1.419-1.523,1.765h-2.647c0-0.484,0-1.385,0.709-2.267
			c0.692-0.865,1.973-1.315,3.443-1.315c2.63,0,4.084,1.419,4.084,3.288c0,1.245-0.485,2.854-5.71,7.06
			c1.748-0.035,1.956-0.052,3.322-0.069c1.852-0.034,2.059-0.034,2.457-0.052v2.007h-8.479V114.333z"/>
		<path fill="#00435B" d="M142.102,114.472l-2.059,4.256h-1.782l1.281-4.256H142.102z"/>
		<path fill="#00435B" d="M145.596,113.485c0.018,0.381,0.121,1.609,1.558,1.609c0.969,0,1.557-0.71,1.557-1.645
			c0-1.782-1.713-1.782-2.976-1.782v-2.024c1.211-0.034,2.993-0.069,2.993-1.8c0-0.951-0.709-1.436-1.488-1.436
			c-0.744,0-1.471,0.502-1.471,1.505h-2.647c0.052-0.536,0.104-1.298,0.709-2.042c0.796-0.969,2.076-1.332,3.356-1.332
			c3.08,0,4.066,1.973,4.066,3.288c0,2.024-1.782,2.578-2.318,2.733c0.38,0.121,0.882,0.277,1.436,0.744
			c0.848,0.71,0.986,1.592,0.986,2.163c0,2.042-1.869,3.564-4.378,3.564c-0.865,0-2.128-0.19-2.907-0.813
			c-1.073-0.882-1.107-2.249-1.107-2.733H145.596z"/>
	</g>
</g>
</svg>
