<?xml version="1.0" encoding="utf-8"?>
<!-- Generator: Adobe Illustrator 17.0.0, SVG Export Plug-In . SVG Version: 6.00 Build 0)  -->
<!DOCTYPE svg PUBLIC "-//W3C//DTD SVG 1.1//EN" "http://www.w3.org/Graphics/SVG/1.1/DTD/svg11.dtd">
<svg version="1.1" id="Layer_1" xmlns="http://www.w3.org/2000/svg" xmlns:xlink="http://www.w3.org/1999/xlink" x="0px" y="0px"
	 width="496.647px" height="412.397px" viewBox="0 0 496.647 412.397" enable-background="new 0 0 496.647 412.397"
	 xml:space="preserve">
<g>
	<g>
		<radialGradient id="SVGID_2_" cx="248.3233" cy="191.9373" r="221.9284" gradientUnits="userSpaceOnUse">
			<stop  offset="0" style="stop-color:#A0D4E4;stop-opacity:0"/>
			<stop  offset="0.0392" style="stop-color:#9DD2E5;stop-opacity:0.197"/>
			<stop  offset="0.0707" style="stop-color:#93CDE6;stop-opacity:0.3552"/>
			<stop  offset="0.0995" style="stop-color:#82C4E9;stop-opacity:0.5"/>
			<stop  offset="0.1267" style="stop-color:#6AB8ED;stop-opacity:0.6367"/>
			<stop  offset="0.1528" style="stop-color:#4BA8F2;stop-opacity:0.7679"/>
			<stop  offset="0.1777" style="stop-color:#2694F9;stop-opacity:0.893"/>
			<stop  offset="0.199" style="stop-color:#0080FF"/>
			<stop  offset="0.2012" style="stop-color:#007FFC"/>
			<stop  offset="0.2379" style="stop-color:#006CD3"/>
			<stop  offset="0.2776" style="stop-color:#015BAF"/>
			<stop  offset="0.3223" style="stop-color:#014D8F"/>
			<stop  offset="0.3717" style="stop-color:#014073"/>
			<stop  offset="0.4275" style="stop-color:#02365D"/>
			<stop  offset="0.4927" style="stop-color:#022E4C"/>
			<stop  offset="0.5733" style="stop-color:#022941"/>
			<stop  offset="0.6863" style="stop-color:#02263A"/>
			<stop  offset="1" style="stop-color:#022538"/>
		</radialGradient>
		<path fill="url(#SVGID_2_)" d="M496.647,337.752c0,15.882-12.874,28.756-28.756,28.756c0,0-172.589,17.588-230.336,17.365
			c-52.379-0.202-208.798-17.365-208.798-17.365C12.875,366.508,0,353.633,0,337.752V42.739c0-15.882,12.875-28.756,28.756-28.756
			c0,0,156.599-13.983,208.798-13.983c57.584,0,230.336,13.983,230.336,13.983c15.882,0,28.756,12.874,28.756,28.756V337.752z"/>
		<g>
			<radialGradient id="SVGID_4_" cx="248.3233" cy="191.9373" r="217.1737" gradientUnits="userSpaceOnUse">
				<stop  offset="0" style="stop-color:#FFFFFF"/>
				<stop  offset="1" style="stop-color:#F7F7F7"/>
			</radialGradient>
			<path fill="url(#SVGID_4_)" d="M491.327,334.628c0,15.541-12.599,28.14-28.14,28.14c0,0-168.892,17.211-225.402,16.993
				c-51.257-0.198-204.325-16.993-204.325-16.993c-15.541,0-28.14-12.599-28.14-28.14V45.935c0-15.541,12.599-28.14,28.14-28.14
				c0,0,153.244-13.683,204.325-13.683c56.35,0,225.402,13.683,225.402,13.683c15.541,0,28.14,12.599,28.14,28.14V334.628z"/>
		</g>
	</g>
	<g>
		<path fill="#006C84" d="M33.959,237.524v0.941l-11.873-5.099v-0.972L33.959,237.524z M25.286,236.357
			c1.436,0,2.826,0.105,2.826,1.914c0,1.81-1.391,1.914-2.826,1.914c-1.406,0-2.886-0.104-2.886-1.914
			C22.399,236.463,23.88,236.357,25.286,236.357z M25.256,239.14c1.361,0,2.019,0,2.019-0.868c0-0.867-0.658-0.867-2.019-0.867
			s-2.019,0-2.019,0.867C23.237,239.14,23.895,239.14,25.256,239.14z M30.818,230.66c1.436,0,2.826,0.105,2.826,1.914
			c0,1.81-1.391,1.914-2.826,1.914c-1.406,0-2.886-0.104-2.886-1.914C27.933,230.766,29.413,230.66,30.818,230.66z M30.789,233.441
			c1.361,0,2.019,0,2.019-0.867s-0.658-0.867-2.019-0.867c-1.361,0-2.019,0-2.019,0.867S29.428,233.441,30.789,233.441z"/>
		<path fill="#006C84" d="M29.757,225.405c-2.213,0-4.038-0.255-4.038-2.871c0-2.617,1.824-2.871,4.038-2.871
			c3.334,0,3.813,1.271,3.813,2.871C33.57,224.134,33.091,225.405,29.757,225.405z M29.233,220.949
			c-2.063,0-2.512,0.643-2.512,1.585c0,0.941,0.449,1.585,2.512,1.585c2.453,0,3.334-0.314,3.334-1.585
			C32.568,221.263,31.686,220.949,29.233,220.949z"/>
		<path fill="#006C84" d="M25.869,217.491h-1.465c-1.525,0-1.824-1.077-1.824-2.169c0-0.254,0.015-0.403,0.045-0.583h0.882
			c-0.09,1.301,0.463,1.525,1.077,1.525h1.286v-1.525h0.927v1.525h6.625v1.227h-6.625v1.166h-0.927V217.491z"/>
		<path fill="#006C84" d="M26.766,208.903v-0.029c-0.703-0.419-1.047-0.942-1.047-1.734c0-1.212,0.479-2.438,3.798-2.438
			c1.884,0,4.052,0.06,4.052,2.497c0,0.718-0.314,1.241-0.912,1.66v0.044h3.619v1.227H25.869v-1.227H26.766z M29.518,205.988
			c-1.137,0-2.796,0-2.796,1.54c0,1.51,2.094,1.375,3.245,1.375c1.002,0,2.602-0.06,2.602-1.42
			C32.568,206.167,31.536,205.988,29.518,205.988z"/>
		<path fill="#006C84" d="M32.329,198.866v0.03c0.868,0.373,1.241,0.957,1.241,1.898c0,1.601-1.032,2.063-2.482,2.063
			c-2.288,0-2.393-2.242-2.348-3.962c-1.002-0.03-2.093-0.045-2.093,1.271c0,0.822,0.553,1.256,1.346,1.182v1.331
			c-1.69-0.061-2.273-0.957-2.273-2.558c0-1.943,1.002-2.452,2.273-2.452h3.634c0.598,0,1.211-0.06,1.794-0.149v1.346H32.329z
			 M31.177,201.633c0.733,0,1.391-0.359,1.391-1.182c0-0.747-0.463-1.675-2.901-1.555C29.682,200.063,29.577,201.633,31.177,201.633
			z"/>
		<path fill="#006C84" d="M25.869,195.139h-1.45l-0.553-1.226h2.003v-1.646h0.927v1.646h4.621c0.479,0,1.092,0,1.092-1.122
			c0-0.089-0.03-0.284-0.06-0.553h0.942c0.03,0.403,0.12,0.808,0.12,1.211c0,1.167-0.479,1.689-1.346,1.689h-5.369v1.241h-0.927
			V195.139z"/>
		<path fill="#006C84" d="M22.624,191.219v-1.375h1.316v1.375H22.624z M33.42,189.918v1.227h-7.552v-1.227H33.42z"/>
		<path fill="#006C84" d="M30.041,186.598c2.108,0,2.527-0.568,2.527-1.525c0-0.838-0.673-1.271-1.436-1.316v-1.346
			c1.675,0.016,2.438,1.047,2.438,2.632c0,1.601-0.479,2.871-3.813,2.871c-2.213,0-4.038-0.254-4.038-2.871
			c0-2.153,1.182-2.691,3.679-2.691h0.643V186.598z M29.114,183.651c-2.198,0-2.467,0.613-2.467,1.511
			c0,0.777,0.374,1.42,2.467,1.436V183.651z"/>
		<path fill="#006C84" d="M33.42,176.216h-5.234c-0.807,0-1.465,0.284-1.465,1.331c0,1.346,1.196,1.54,2.228,1.54h4.471v1.227
			h-5.981c-0.523,0-1.047,0.029-1.57,0.074v-1.301h0.972v-0.06c-0.853-0.479-1.122-1.047-1.122-2.019
			c0-1.615,0.972-2.019,2.467-2.019h5.234V176.216z"/>
		<path fill="#006C84" d="M25.869,172.698h-1.45l-0.553-1.227h2.003v-1.645h0.927v1.645h4.621c0.479,0,1.092,0,1.092-1.121
			c0-0.09-0.03-0.284-0.06-0.554h0.942c0.03,0.404,0.12,0.808,0.12,1.212c0,1.166-0.479,1.689-1.346,1.689h-5.369v1.241h-0.927
			V172.698z"/>
		<path fill="#006C84" d="M33.57,166.445c0,1.63-0.718,2.647-2.452,2.603v-1.391c0.434,0,1.45-0.016,1.45-1.257
			c0-0.732-0.374-1.301-1.151-1.301c-1.346,0-1.375,3.769-3.634,3.769c-0.792,0-2.063-0.479-2.063-2.603
			c0-1.346,0.643-2.497,2.139-2.393v1.361c-0.793-0.015-1.211,0.403-1.211,1.182c0,0.657,0.359,1.166,1.017,1.166
			c1.331,0,1.301-3.769,3.604-3.769C32.927,163.813,33.57,164.95,33.57,166.445z"/>
		<path fill="#006C84" d="M25.869,159.652v-1.36l6.505-1.361v-0.03l-6.505-1.675v-1.734l6.505-1.54v-0.03l-6.505-1.495v-1.301
			l7.552,2.019v1.646l-6.43,1.614v0.03l6.43,1.689v1.646L25.869,159.652z"/>
		<path fill="#006C84" d="M22.624,148.013v-1.375h1.316v1.375H22.624z M33.42,146.712v1.227h-7.552v-1.227H33.42z"/>
		<path fill="#006C84" d="M25.869,144.453h-1.45l-0.553-1.227h2.003v-1.645h0.927v1.645h4.621c0.479,0,1.092,0,1.092-1.121
			c0-0.09-0.03-0.284-0.06-0.554h0.942c0.03,0.404,0.12,0.808,0.12,1.212c0,1.166-0.479,1.689-1.346,1.689h-5.369v1.241h-0.927
			V144.453z"/>
		<path fill="#006C84" d="M33.42,136.331h-5.114c-0.927,0-1.585,0.299-1.585,1.346c0,1.227,0.987,1.54,2.258,1.54h4.441v1.227
			H22.624v-1.227h4.217v-0.06c-0.882-0.493-1.122-1.062-1.122-2.049c0-1.285,0.643-2.003,2.348-2.003h5.354V136.331z"/>
	</g>
	<g>
		<path fill="#006C84" d="M49.878,219.438h-5.234c-0.807,0-1.465,0.284-1.465,1.331c0,1.346,1.196,1.54,2.228,1.54h4.471v1.227
			h-5.981c-0.523,0-1.047,0.029-1.57,0.074v-1.301h0.972v-0.06c-0.853-0.479-1.122-1.047-1.122-2.019
			c0-1.615,0.972-2.019,2.467-2.019h5.234V219.438z"/>
		<path fill="#006C84" d="M46.215,216.265c-2.213,0-4.038-0.254-4.038-2.871s1.824-2.871,4.038-2.871
			c3.334,0,3.813,1.271,3.813,2.871C50.028,214.994,49.549,216.265,46.215,216.265z M45.691,211.809
			c-2.063,0-2.512,0.643-2.512,1.585s0.449,1.585,2.512,1.585c2.453,0,3.334-0.313,3.334-1.585
			C49.026,212.123,48.144,211.809,45.691,211.809z"/>
		<path fill="#006C84" d="M49.878,204.478h-5.234c-0.807,0-1.465,0.284-1.465,1.331c0,1.346,1.196,1.54,2.228,1.54h4.471v1.227
			h-5.981c-0.523,0-1.047,0.029-1.57,0.074v-1.301h0.972v-0.06c-0.853-0.479-1.122-1.047-1.122-2.019
			c0-1.615,0.972-2.019,2.467-2.019h5.234V204.478z"/>
		<path fill="#006C84" d="M45.228,201.334v-3.29h1.151v3.29H45.228z"/>
		<path fill="#006C84" d="M42.327,195.889h-1.465c-1.525,0-1.824-1.077-1.824-2.169c0-0.254,0.015-0.403,0.045-0.583h0.882
			c-0.09,1.301,0.463,1.525,1.077,1.525h1.286v-1.525h0.927v1.525h6.625v1.227h-6.625v1.166h-0.927V195.889z"/>
		<path fill="#006C84" d="M48.787,188.065v0.03c0.868,0.373,1.241,0.957,1.241,1.898c0,1.601-1.032,2.063-2.482,2.063
			c-2.288,0-2.393-2.242-2.348-3.962c-1.002-0.03-2.093-0.045-2.093,1.271c0,0.822,0.553,1.256,1.346,1.182v1.331
			c-1.69-0.061-2.273-0.957-2.273-2.558c0-1.943,1.002-2.452,2.273-2.452h3.634c0.598,0,1.211-0.06,1.794-0.149v1.346H48.787z
			 M47.635,190.832c0.733,0,1.391-0.359,1.391-1.182c0-0.747-0.463-1.675-2.901-1.555C46.14,189.262,46.035,190.832,47.635,190.832z
			"/>
		<path fill="#006C84" d="M42.327,184.339h-1.45l-0.553-1.227h2.003v-1.645h0.927v1.645h4.621c0.479,0,1.092,0,1.092-1.121
			c0-0.09-0.03-0.284-0.06-0.554h0.942c0.03,0.404,0.12,0.808,0.12,1.212c0,1.166-0.479,1.689-1.346,1.689h-5.369v1.241h-0.927
			V184.339z"/>
		<path fill="#006C84" d="M48.787,176.427v0.029c0.868,0.374,1.241,0.957,1.241,1.899c0,1.6-1.032,2.063-2.482,2.063
			c-2.288,0-2.393-2.243-2.348-3.963c-1.002-0.029-2.093-0.045-2.093,1.271c0,0.822,0.553,1.256,1.346,1.181v1.331
			c-1.69-0.06-2.273-0.957-2.273-2.557c0-1.944,1.002-2.452,2.273-2.452h3.634c0.598,0,1.211-0.061,1.794-0.15v1.347H48.787z
			 M47.635,179.192c0.733,0,1.391-0.358,1.391-1.181c0-0.748-0.463-1.675-2.901-1.556C46.14,177.623,46.035,179.192,47.635,179.192z
			"/>
		<path fill="#006C84" d="M49.878,171.638v1.226H39.082v-1.226H49.878z"/>
		<path fill="#006C84" d="M49.878,164.756v1.286H39.082v-2.228l9.062-2.722v-0.03l-9.062-2.751v-2.273h10.796v1.376h-9.6v0.029
			l9.6,3.021v1.301l-9.6,2.961v0.029H49.878z"/>
		<path fill="#006C84" d="M49.878,152.039v1.376H39.082v-1.376H49.878z"/>
	</g>
	<g>
		<path fill="#006C84" d="M238.545,282.181h1.391l-2.946,6.685v4.112h-1.376v-4.112l-2.901-6.685h1.54l2.108,5.219L238.545,282.181z
			"/>
		<path fill="#006C84" d="M241.314,289.598c0,2.108,0.568,2.527,1.525,2.527c0.837,0,1.271-0.673,1.316-1.436h1.346
			c-0.015,1.675-1.047,2.438-2.632,2.438c-1.6,0-2.871-0.479-2.871-3.813c0-2.213,0.254-4.037,2.871-4.037
			c2.153,0,2.692,1.181,2.692,3.679v0.643H241.314z M244.26,288.671c0-2.198-0.613-2.468-1.51-2.468
			c-0.777,0-1.42,0.374-1.436,2.468H244.26z"/>
		<path fill="#006C84" d="M251.486,291.886h-0.03c-0.374,0.867-0.957,1.241-1.899,1.241c-1.6,0-2.063-1.032-2.063-2.482
			c0-2.288,2.243-2.393,3.962-2.348c0.03-1.002,0.045-2.094-1.271-2.094c-0.822,0-1.256,0.554-1.181,1.346h-1.331
			c0.06-1.689,0.957-2.272,2.557-2.272c1.944,0,2.452,1.002,2.452,2.272v3.634c0,0.599,0.06,1.212,0.15,1.795h-1.346V291.886z
			 M248.72,290.734c0,0.732,0.359,1.391,1.181,1.391c0.748,0,1.675-0.464,1.555-2.901C250.29,289.239,248.72,289.134,248.72,290.734
			z"/>
		<path fill="#006C84" d="M256.35,286.563h0.03c0.509-1.151,1.137-1.286,2.333-1.286v1.271c-0.104-0.015-0.225-0.029-0.329-0.045
			c-0.104-0.015-0.209-0.029-0.329-0.029c-1.36,0-1.705,1.031-1.705,2.049v4.456h-1.226v-7.552h1.226V286.563z"/>
		<path fill="#006C84" d="M262.288,293.127c-1.63,0-2.647-0.718-2.602-2.452h1.391c0,0.434,0.015,1.45,1.256,1.45
			c0.733,0,1.301-0.374,1.301-1.151c0-1.346-3.768-1.376-3.768-3.634c0-0.793,0.479-2.063,2.602-2.063
			c1.346,0,2.497,0.643,2.393,2.138H263.5c0.015-0.792-0.404-1.211-1.182-1.211c-0.658,0-1.166,0.359-1.166,1.017
			c0,1.331,3.768,1.302,3.768,3.604C264.92,292.483,263.784,293.127,262.288,293.127z"/>
	</g>
	<g>
		<path fill="#006C84" d="M68.17,47.13c-0.643,0.538-1.675,1.151-2.407,1.495V47.13c0.972-0.509,1.929-1.137,2.512-1.63h1.331
			v10.348H68.17V47.13z"/>
		<path fill="#006C84" d="M75.755,45.291c3.096,0,3.47,3.319,3.47,5.264c0,2.452-0.494,3.828-1.436,4.71
			c-0.733,0.688-1.6,0.793-2.064,0.793c-1.375,0-2.318-0.808-2.766-1.72c-0.344-0.688-0.673-1.69-0.673-3.544
			C72.287,49.253,72.466,45.291,75.755,45.291z M75.741,54.816c1.734,0,2.034-2.273,2.034-4.128c0-2.481-0.434-4.201-2.004-4.201
			c-1.809,0-2.048,2.377-2.048,4.231C73.722,53.022,74.17,54.816,75.741,54.816z"/>
	</g>
	<g>
		<path fill="#006C84" d="M72.376,99.703c0-0.927,0.628-2.826,3.35-2.826c2.183,0,3.439,1.182,3.439,2.767
			c0,1.017-0.658,2.078-2.108,2.348c0.613,0.164,2.258,0.613,2.258,2.617c0,1.42-0.987,3.035-3.559,3.035
			c-0.882,0-1.929-0.18-2.677-0.867c-0.553-0.509-0.912-1.286-0.912-2.079c0-0.688,0.269-1.405,0.792-1.898
			c0.494-0.494,1.032-0.644,1.496-0.793C73.078,101.707,72.376,100.735,72.376,99.703z M75.755,106.462
			c1.66,0,2.063-1.166,2.063-1.943c0-1.151-0.852-1.899-2.034-1.899c-1.271,0-2.108,0.853-2.108,1.944
			C73.676,105.371,74.215,106.462,75.755,106.462z M75.785,97.983c-1.106,0-1.959,0.658-1.959,1.689
			c0,1.002,0.838,1.675,1.914,1.675c1.137,0,1.989-0.657,1.989-1.675C77.729,98.731,77.026,97.983,75.785,97.983z"/>
	</g>
	<g>
		<path fill="#006C84" d="M77.699,151.182c-0.015-1.211-0.912-1.54-1.57-1.54c-1.496,0-2.153,1.286-2.288,4.037
			c0.329-0.479,0.897-1.315,2.408-1.315c1.689,0,3.125,1.121,3.125,3.319c0,2.408-1.72,3.619-3.499,3.619
			c-1.002,0-2.004-0.403-2.557-1.121c-0.763-1.018-0.942-2.498-0.942-3.813c0-2.258,0.553-5.847,3.828-5.847
			c1.361,0,2.124,0.598,2.482,0.986c0.523,0.613,0.538,1.271,0.553,1.675H77.699z M77.938,155.817c0-0.732-0.209-2.303-1.929-2.303
			c-1.391,0-2.063,1.137-2.063,2.317c0,1.347,0.837,2.333,1.989,2.333C76.861,158.165,77.938,157.507,77.938,155.817z"/>
	</g>
	<g>
		<path fill="#006C84" d="M76.697,208.449h-4.665v-1.779l4.486-6.46h1.615v7.028h1.511v1.211h-1.511v2.243h-1.436V208.449z
			 M76.742,207.238v-5.458l-3.574,5.458H76.742z"/>
	</g>
	<g>
		<path fill="#006C84" d="M72.405,260.947l2.707-2.662c0.568-0.553,1.137-1.151,1.6-1.779c0.598-0.822,0.763-1.286,0.763-1.839
			c0-0.509-0.179-1.69-1.66-1.69c-1.66,0-1.69,1.421-1.69,1.81h-1.57c0.015-0.509,0.06-1.495,0.957-2.272
			c0.718-0.613,1.585-0.748,2.243-0.748c1.585,0,3.2,0.808,3.2,3.021c0,0.658-0.045,1.166-1.167,2.587
			c-0.299,0.374-1.615,1.734-1.914,2.034l-1.81,1.72h4.92v1.181h-6.58V260.947z"/>
	</g>
	<g>
		<path fill="#006C84" d="M75.74,303.366c3.096,0,3.47,3.319,3.47,5.264c0,2.452-0.494,3.828-1.436,4.71
			c-0.733,0.688-1.6,0.793-2.064,0.793c-1.375,0-2.318-0.808-2.766-1.72c-0.344-0.688-0.673-1.69-0.673-3.544
			C72.271,307.328,72.45,303.366,75.74,303.366z M75.725,312.892c1.734,0,2.034-2.273,2.034-4.128c0-2.481-0.434-4.201-2.004-4.201
			c-1.809,0-2.048,2.377-2.048,4.231C73.707,311.097,74.155,312.892,75.725,312.892z"/>
	</g>
	<polyline fill="none" stroke="#006C84" stroke-width="0.75" points="86.283,49.081 86.283,324.502 410.765,324.502 	"/>
	<g>
		<path fill="#006C84" d="M289.099,240.929l-0.837,2.536h-1.077l2.74-8.063h1.256l2.751,8.063h-1.112l-0.861-2.536H289.099z
			 M291.743,240.115l-0.79-2.32c-0.18-0.526-0.299-1.005-0.419-1.472h-0.023c-0.12,0.479-0.251,0.969-0.407,1.46l-0.789,2.332
			H291.743z"/>
		<path fill="#006C84" d="M296.352,236.013v1.662h1.508v0.802h-1.508v3.122c0,0.718,0.204,1.125,0.79,1.125
			c0.275,0,0.479-0.036,0.61-0.072l0.048,0.79c-0.204,0.084-0.526,0.144-0.933,0.144c-0.49,0-0.885-0.155-1.137-0.442
			c-0.299-0.312-0.406-0.826-0.406-1.508v-3.158h-0.897v-0.802h0.897v-1.388L296.352,236.013z"/>
		<path fill="#006C84" d="M304.286,240.522c0,2.142-1.483,3.074-2.883,3.074c-1.567,0-2.775-1.148-2.775-2.979
			c0-1.938,1.268-3.074,2.871-3.074C303.162,237.544,304.286,238.752,304.286,240.522z M299.692,240.582
			c0,1.269,0.73,2.226,1.759,2.226c1.005,0,1.759-0.945,1.759-2.249c0-0.981-0.491-2.226-1.735-2.226
			S299.692,239.481,299.692,240.582z"/>
		<path fill="#006C84" d="M305.617,239.481c0-0.682-0.012-1.268-0.048-1.807h0.921l0.036,1.137h0.048
			c0.263-0.777,0.897-1.268,1.603-1.268c0.12,0,0.204,0.012,0.299,0.035v0.993c-0.108-0.023-0.215-0.036-0.359-0.036
			c-0.742,0-1.268,0.563-1.412,1.353c-0.024,0.144-0.048,0.311-0.048,0.49v3.086h-1.041V239.481z"/>
		<path fill="#006C84" d="M309.937,237.675l1.137,3.254c0.191,0.526,0.347,1.005,0.467,1.483h0.036
			c0.131-0.479,0.299-0.957,0.491-1.483l1.124-3.254h1.101l-2.272,5.79h-1.005l-2.201-5.79H309.937z"/>
		<path fill="#006C84" d="M318.494,243.465l-0.084-0.729h-0.036c-0.323,0.455-0.945,0.861-1.771,0.861
			c-1.172,0-1.771-0.825-1.771-1.663c0-1.399,1.244-2.165,3.481-2.153v-0.119c0-0.479-0.132-1.34-1.316-1.34
			c-0.539,0-1.101,0.167-1.507,0.431l-0.239-0.694c0.479-0.311,1.172-0.514,1.902-0.514c1.771,0,2.201,1.208,2.201,2.368v2.165
			c0,0.503,0.023,0.993,0.096,1.388H318.494z M318.338,240.511c-1.148-0.024-2.453,0.179-2.453,1.304
			c0,0.682,0.455,1.005,0.993,1.005c0.754,0,1.232-0.479,1.399-0.969c0.036-0.108,0.06-0.228,0.06-0.335V240.511z"/>
		<path fill="#006C84" d="M320.913,242.389c0.311,0.203,0.861,0.419,1.388,0.419c0.766,0,1.124-0.383,1.124-0.861
			c0-0.503-0.299-0.778-1.076-1.065c-1.041-0.37-1.531-0.944-1.531-1.639c0-0.933,0.753-1.698,1.998-1.698
			c0.586,0,1.101,0.167,1.423,0.358l-0.263,0.766c-0.228-0.144-0.646-0.335-1.185-0.335c-0.622,0-0.969,0.359-0.969,0.79
			c0,0.479,0.347,0.693,1.101,0.98c1.005,0.383,1.519,0.886,1.519,1.747c0,1.017-0.79,1.734-2.166,1.734
			c-0.634,0-1.22-0.155-1.627-0.395L320.913,242.389z"/>
		<path fill="#006C84" d="M327.064,236.013v1.662h1.507v0.802h-1.507v3.122c0,0.718,0.203,1.125,0.789,1.125
			c0.275,0,0.479-0.036,0.61-0.072l0.048,0.79c-0.203,0.084-0.526,0.144-0.933,0.144c-0.491,0-0.885-0.155-1.136-0.442
			c-0.299-0.312-0.407-0.826-0.407-1.508v-3.158h-0.897v-0.802h0.897v-1.388L327.064,236.013z"/>
		<path fill="#006C84" d="M332.963,243.465l-0.084-0.729h-0.036c-0.323,0.455-0.945,0.861-1.771,0.861
			c-1.172,0-1.771-0.825-1.771-1.663c0-1.399,1.244-2.165,3.481-2.153v-0.119c0-0.479-0.132-1.34-1.316-1.34
			c-0.539,0-1.101,0.167-1.507,0.431l-0.239-0.694c0.479-0.311,1.172-0.514,1.902-0.514c1.771,0,2.201,1.208,2.201,2.368v2.165
			c0,0.503,0.023,0.993,0.096,1.388H332.963z M332.808,240.511c-1.148-0.024-2.453,0.179-2.453,1.304
			c0,0.682,0.455,1.005,0.993,1.005c0.754,0,1.232-0.479,1.399-0.969c0.036-0.108,0.06-0.228,0.06-0.335V240.511z"/>
		<path fill="#006C84" d="M336.794,236.013v1.662h1.507v0.802h-1.507v3.122c0,0.718,0.203,1.125,0.789,1.125
			c0.275,0,0.479-0.036,0.61-0.072l0.048,0.79c-0.203,0.084-0.526,0.144-0.933,0.144c-0.491,0-0.885-0.155-1.136-0.442
			c-0.299-0.312-0.407-0.826-0.407-1.508v-3.158h-0.897v-0.802h0.897v-1.388L336.794,236.013z"/>
		<path fill="#006C84" d="M340.66,236.048c0.012,0.359-0.251,0.646-0.67,0.646c-0.371,0-0.634-0.287-0.634-0.646
			c0-0.37,0.275-0.657,0.658-0.657C340.409,235.391,340.66,235.678,340.66,236.048z M339.488,243.465v-5.79h1.053v5.79H339.488z"/>
		<path fill="#006C84" d="M342.289,239.242c0-0.598-0.012-1.089-0.048-1.567h0.933l0.06,0.957h0.024
			c0.287-0.55,0.957-1.088,1.914-1.088c0.802,0,2.046,0.479,2.046,2.464v3.457h-1.053v-3.337c0-0.934-0.347-1.711-1.34-1.711
			c-0.694,0-1.232,0.49-1.412,1.076c-0.048,0.132-0.071,0.312-0.071,0.491v3.48h-1.053V239.242z"/>
	</g>
	<g>
		<path fill="#006C84" d="M354.579,236.491c-0.515,0.431-1.34,0.921-1.926,1.196v-1.196c0.778-0.407,1.543-0.909,2.01-1.305h1.065
			v8.278h-1.148V236.491z"/>
		<path fill="#006C84" d="M360.647,235.02c2.476,0,2.775,2.655,2.775,4.211c0,1.962-0.395,3.063-1.148,3.769
			c-0.586,0.55-1.28,0.634-1.651,0.634c-1.101,0-1.854-0.646-2.213-1.376c-0.275-0.55-0.539-1.352-0.539-2.835
			C357.871,238.189,358.015,235.02,360.647,235.02z M360.634,242.64c1.388,0,1.627-1.818,1.627-3.302
			c0-1.985-0.347-3.361-1.603-3.361c-1.448,0-1.639,1.902-1.639,3.386C359.02,241.204,359.378,242.64,360.634,242.64z"/>
		<path fill="#006C84" d="M364.502,239.864h3.002v0.909h-3.002V239.864z"/>
		<path fill="#006C84" d="M368.595,237.257c0-0.742,0.502-2.262,2.68-2.262c1.746,0,2.751,0.945,2.751,2.214
			c0,0.813-0.526,1.662-1.687,1.878c0.49,0.132,1.807,0.49,1.807,2.094c0,1.136-0.79,2.428-2.848,2.428
			c-0.706,0-1.543-0.144-2.141-0.693c-0.443-0.407-0.73-1.029-0.73-1.663c0-0.55,0.216-1.124,0.634-1.52
			c0.395-0.395,0.826-0.514,1.196-0.634C369.157,238.859,368.595,238.082,368.595,237.257z M371.298,242.664
			c1.328,0,1.651-0.934,1.651-1.556c0-0.921-0.682-1.52-1.627-1.52c-1.017,0-1.687,0.683-1.687,1.556
			C369.636,241.79,370.066,242.664,371.298,242.664z M371.323,235.881c-0.886,0-1.567,0.526-1.567,1.352
			c0,0.802,0.67,1.34,1.531,1.34c0.909,0,1.591-0.526,1.591-1.34C372.878,236.479,372.315,235.881,371.323,235.881z"/>
		<path fill="#006C84" d="M377.941,235.02c2.476,0,2.775,2.655,2.775,4.211c0,1.962-0.395,3.063-1.148,3.769
			c-0.586,0.55-1.28,0.634-1.651,0.634c-1.101,0-1.854-0.646-2.213-1.376c-0.275-0.55-0.539-1.352-0.539-2.835
			C375.166,238.189,375.31,235.02,377.941,235.02z M377.929,242.64c1.388,0,1.627-1.818,1.627-3.302
			c0-1.985-0.347-3.361-1.603-3.361c-1.448,0-1.639,1.902-1.639,3.386C376.315,241.204,376.673,242.64,377.929,242.64z"/>
		<path fill="#006C84" d="M385.663,238.262l-0.024-0.802h1.137v0.873c0.574-0.945,1.388-1.028,1.902-1.028
			c1.328,0,1.746,0.682,1.962,1.124c0.203-0.335,0.693-1.124,2.021-1.124c0.861,0,2.201,0.358,2.201,2.129v4.031h-1.137v-3.852
			c0-0.526-0.096-0.754-0.203-0.909c-0.191-0.275-0.574-0.526-1.148-0.526c-0.729,0-1.125,0.419-1.28,0.634
			c-0.263,0.371-0.263,1.029-0.263,1.292v3.361h-1.137v-3.972c0-0.741-0.431-1.315-1.316-1.315c-0.766,0-1.184,0.479-1.316,0.658
			c-0.251,0.347-0.263,0.837-0.263,1.22v3.409h-1.136V238.262z"/>
		<path fill="#006C84" d="M398.049,243.932c0.048,0.67,0.335,1.173,1.399,1.173c1.567,0,1.591-1.137,1.591-2.764
			c-0.479,0.993-1.615,1.017-1.974,1.017c-0.55,0-1.34-0.119-1.842-0.741c-0.515-0.61-0.682-1.412-0.682-2.214
			c0-2.033,1.196-3.026,2.667-3.026c1.208,0,1.651,0.599,1.891,0.909l0.012-0.825h1.089l-0.024,1.089l-0.012,3.756
			c0,1.447-0.048,2.034-0.287,2.488c-0.502,0.957-1.675,1.077-2.5,1.077c-2.405,0-2.477-1.125-2.524-1.938H398.049z
			 M400.669,241.922c0.239-0.311,0.406-0.634,0.406-1.723c0-0.754-0.167-1.185-0.466-1.495c-0.299-0.323-0.778-0.526-1.292-0.526
			c-1.423,0-1.615,1.436-1.615,2.201c0,0.921,0.275,2.142,1.65,2.142C400.011,242.521,400.394,242.281,400.669,241.922z"/>
	</g>
	<g>
		<path fill="#006C84" d="M294.253,255.881c-0.525-1.292-1.157-2.905-1.157-4.325c0-0.768,0.175-1.525,0.398-2.265
			c0.272-0.875,0.525-1.497,0.69-1.914h0.641c-0.155,0.476-0.369,1.137-0.573,2.061c-0.204,0.894-0.272,1.496-0.272,2.099
			c0,1.381,0.34,2.498,0.904,4.345H294.253z"/>
		<path fill="#006C84" d="M296.509,250.37l-0.009-0.563h0.914l0.01,0.787c0.107-0.204,0.457-0.885,1.565-0.885
			c0.437,0,1.769,0.165,1.769,1.662v3.314h-0.933v-3.101c0-0.32-0.039-0.612-0.263-0.836c-0.233-0.224-0.554-0.33-0.865-0.33
			c-0.661,0-1.273,0.477-1.273,1.458v2.809h-0.914V250.37z"/>
		<path fill="#006C84" d="M301.926,250.886h4.957v0.748h-4.957V250.886z M301.926,252.849h4.957v0.758h-4.957V252.849z"/>
		<path fill="#006C84" d="M309.879,249.02c-0.418,0.35-1.089,0.748-1.565,0.972v-0.972c0.632-0.331,1.254-0.739,1.633-1.06h0.865
			v6.726h-0.933V249.02z"/>
		<path fill="#006C84" d="M314.878,253.52l-1.089,2.391h-0.661l0.622-2.391H314.878z"/>
		<path fill="#006C84" d="M315.871,253.802l1.759-1.73c0.37-0.359,0.739-0.749,1.04-1.157c0.389-0.534,0.496-0.836,0.496-1.195
			c0-0.33-0.117-1.098-1.079-1.098c-1.079,0-1.099,0.923-1.099,1.176h-1.021c0.01-0.331,0.039-0.972,0.622-1.478
			c0.467-0.398,1.03-0.486,1.458-0.486c1.03,0,2.08,0.525,2.08,1.964c0,0.428-0.029,0.758-0.758,1.682
			c-0.194,0.243-1.05,1.127-1.244,1.321l-1.176,1.118h3.198v0.768h-4.277V253.802z"/>
		<path fill="#006C84" d="M323.397,249.02c-0.418,0.35-1.089,0.748-1.565,0.972v-0.972c0.632-0.331,1.254-0.739,1.633-1.06h0.865
			v6.726h-0.933V249.02z"/>
		<path fill="#006C84" d="M326.364,247.96h4.442v0.816l-2.469,5.909h-1.099l2.585-5.919h-3.46V247.96z"/>
		<path fill="#006C84" d="M332.801,247.377c0.525,1.292,1.157,2.896,1.157,4.315c0,0.768-0.175,1.525-0.399,2.265
			c-0.272,0.875-0.524,1.507-0.69,1.924h-0.642c0.156-0.485,0.37-1.146,0.574-2.07c0.204-0.884,0.272-1.496,0.272-2.099
			c0-1.371-0.34-2.488-0.904-4.335H332.801z"/>
	</g>
	<g>
		<path fill="#6A7370" d="M189.436,137.919v5.348c0,0.921,0.204,1.304,0.383,1.555c0.539,0.718,1.376,0.85,1.974,0.85
			c2.333,0,2.333-1.83,2.333-2.452v-5.3h1.161v5.323c0,0.467-0.012,1.436-0.706,2.297c-0.85,1.064-2.166,1.196-2.788,1.196
			c-0.813,0-2.249-0.228-3.05-1.376c-0.264-0.383-0.503-0.885-0.503-2.177v-5.264H189.436z"/>
		<path fill="#6A7370" d="M198.138,144.773c-0.012,0.455,0.227,1.089,1.316,1.089c0.467,0,0.813-0.084,1.053-0.383
			c0.12-0.155,0.191-0.359,0.191-0.563c0-0.586-0.419-0.693-1.316-0.897c-1.256-0.287-2.309-0.538-2.309-1.794
			c0-1.101,0.957-1.818,2.345-1.818c0.754,0,1.807,0.215,2.166,0.933c0.156,0.335,0.156,0.622,0.156,0.874h-1.148
			c0.036-0.909-0.754-0.981-1.161-0.981c-0.167,0-1.22,0-1.22,0.861c0,0.551,0.538,0.682,0.85,0.766
			c1.663,0.395,2.021,0.49,2.38,0.825c0.335,0.312,0.455,0.73,0.455,1.113c0,0.67-0.371,1.244-0.813,1.519
			c-0.526,0.323-1.16,0.407-1.782,0.407c-1.221,0-2.357-0.503-2.345-1.95H198.138z"/>
		<path fill="#6A7370" d="M204.505,140.551v3.864c0,0.586,0.131,1.327,1.28,1.327c0.563,0,1.089-0.191,1.412-0.67
			c0.251-0.358,0.251-0.825,0.251-1.124v-3.397h1.16v4.881c0,0.119,0.024,0.789,0.036,1.124h-1.172l-0.024-1.028
			c-0.215,0.419-0.622,1.089-1.914,1.089c-1.483,0-2.177-0.85-2.177-2.034v-4.031H204.505z"/>
		<path fill="#6A7370" d="M214.45,146.556c-0.084-0.299-0.107-0.586-0.107-0.896c-0.539,0.992-1.352,1.088-1.854,1.088
			c-1.376,0-2.117-0.777-2.117-1.771c0-0.479,0.167-1.244,1.053-1.758c0.646-0.359,1.603-0.396,2.081-0.396
			c0.287,0,0.467,0.013,0.813,0.036c0-0.741,0-1.064-0.215-1.328c-0.228-0.299-0.718-0.395-1.041-0.395
			c-1.137,0-1.196,0.777-1.208,1.017h-1.125c0.036-0.311,0.072-0.729,0.419-1.136c0.455-0.503,1.304-0.646,1.938-0.646
			c0.874,0,1.806,0.275,2.129,0.886c0.191,0.358,0.203,0.646,0.203,0.921l-0.048,2.871c0,0.096,0.012,0.897,0.096,1.507H214.45z
			 M213.672,143.602c-0.455,0-2.166,0-2.166,1.22c0,0.383,0.239,1.041,1.244,1.041c0.574,0,1.005-0.228,1.28-0.646
			c0.251-0.406,0.264-0.741,0.287-1.579C214.115,143.613,213.947,143.602,213.672,143.602z"/>
		<path fill="#6A7370" d="M217.467,137.931h1.125v8.625h-1.125V137.931z"/>
		<path fill="#6A7370" d="M227.52,142.477c-0.024-0.275-0.108-1.256-1.196-1.256c-1.555,0-1.555,1.807-1.555,2.261
			c0,1.232,0.299,2.381,1.495,2.381c0.957,0,1.28-0.718,1.304-1.304h1.136c-0.071,1.172-0.945,2.153-2.428,2.153
			c-0.407,0-1.34-0.084-1.974-0.778c-0.358-0.418-0.718-1.053-0.718-2.297c0-2.5,1.531-3.241,2.728-3.241
			c0.395,0,1.292,0.083,1.843,0.741c0.442,0.515,0.479,1.005,0.502,1.34H227.52z"/>
		<path fill="#6A7370" d="M233.743,146.556c-0.083-0.299-0.108-0.586-0.108-0.896c-0.538,0.992-1.352,1.088-1.854,1.088
			c-1.375,0-2.118-0.777-2.118-1.771c0-0.479,0.168-1.244,1.053-1.758c0.646-0.359,1.604-0.396,2.082-0.396
			c0.287,0,0.466,0.013,0.813,0.036c0-0.741,0-1.064-0.216-1.328c-0.227-0.299-0.718-0.395-1.041-0.395
			c-1.136,0-1.196,0.777-1.208,1.017h-1.124c0.036-0.311,0.071-0.729,0.418-1.136c0.455-0.503,1.304-0.646,1.938-0.646
			c0.873,0,1.807,0.275,2.129,0.886c0.191,0.358,0.204,0.646,0.204,0.921l-0.048,2.871c0,0.096,0.012,0.897,0.096,1.507H233.743z
			 M232.965,143.602c-0.454,0-2.165,0-2.165,1.22c0,0.383,0.239,1.041,1.244,1.041c0.574,0,1.005-0.228,1.28-0.646
			c0.251-0.406,0.263-0.741,0.287-1.579C233.408,143.613,233.241,143.602,232.965,143.602z"/>
		<path fill="#6A7370" d="M236.797,141.771c0-0.406-0.024-0.825-0.06-1.22h1.136l0.024,1.16c0.215-0.837,0.933-1.112,1.436-1.185
			c0.335-0.048,0.586-0.035,0.777-0.023v1.101c-0.06-0.024-0.132-0.036-0.215-0.048s-0.191-0.012-0.323-0.012
			c-1.328,0-1.639,0.789-1.639,1.818v3.193h-1.136V141.771z"/>
		<path fill="#6A7370" d="M242.075,143.757c-0.023,1.244,0.491,2.165,1.723,2.165c0.73,0,1.316-0.383,1.412-1.244h1.124
			c-0.036,0.299-0.083,0.79-0.514,1.256c-0.263,0.3-0.861,0.802-2.07,0.802c-1.89,0-2.787-1.172-2.787-3.074
			c0-1.185,0.239-2.165,1.185-2.823c0.574-0.407,1.292-0.442,1.639-0.442c2.691,0,2.632,2.38,2.608,3.361H242.075z M245.245,142.967
			c0.012-0.574-0.096-1.771-1.483-1.771c-0.73,0-1.615,0.443-1.639,1.771H245.245z"/>
	</g>
	<g>
		<path fill="#6A7370" d="M188.994,158.971c-0.525-1.292-1.157-2.905-1.157-4.325c0-0.768,0.175-1.525,0.398-2.265
			c0.272-0.875,0.525-1.497,0.69-1.914h0.641c-0.155,0.476-0.369,1.137-0.573,2.061c-0.204,0.894-0.272,1.496-0.272,2.099
			c0,1.381,0.34,2.498,0.904,4.345H188.994z"/>
		<path fill="#6A7370" d="M191.25,153.46l-0.009-0.563h0.914l0.01,0.787c0.107-0.204,0.457-0.885,1.565-0.885
			c0.437,0,1.769,0.165,1.769,1.662v3.314h-0.933v-3.101c0-0.32-0.039-0.612-0.263-0.836c-0.233-0.224-0.554-0.33-0.865-0.33
			c-0.661,0-1.273,0.477-1.273,1.458v2.809h-0.914V153.46z"/>
		<path fill="#6A7370" d="M196.667,153.976h4.957v0.748h-4.957V153.976z M196.667,155.938h4.957v0.758h-4.957V155.938z"/>
		<path fill="#6A7370" d="M204.621,152.109c-0.418,0.35-1.089,0.748-1.565,0.972v-0.972c0.632-0.331,1.254-0.739,1.633-1.06h0.865
			v6.726h-0.933V152.109z"/>
		<path fill="#6A7370" d="M209.619,156.609L208.53,159h-0.661l0.622-2.391H209.619z"/>
		<path fill="#6A7370" d="M210.612,156.892l1.759-1.73c0.37-0.359,0.739-0.749,1.04-1.157c0.389-0.534,0.496-0.836,0.496-1.195
			c0-0.33-0.117-1.098-1.079-1.098c-1.079,0-1.099,0.923-1.099,1.176h-1.021c0.01-0.331,0.039-0.972,0.622-1.478
			c0.467-0.398,1.03-0.486,1.458-0.486c1.03,0,2.08,0.525,2.08,1.964c0,0.428-0.029,0.758-0.758,1.682
			c-0.194,0.243-1.05,1.127-1.244,1.321l-1.176,1.118h3.198v0.768h-4.277V156.892z"/>
		<path fill="#6A7370" d="M216.019,156.892l1.759-1.73c0.369-0.359,0.739-0.749,1.04-1.157c0.389-0.534,0.496-0.836,0.496-1.195
			c0-0.33-0.117-1.098-1.079-1.098c-1.079,0-1.099,0.923-1.099,1.176h-1.021c0.01-0.331,0.039-0.972,0.622-1.478
			c0.467-0.398,1.03-0.486,1.458-0.486c1.03,0,2.08,0.525,2.08,1.964c0,0.428-0.029,0.758-0.758,1.682
			c-0.194,0.243-1.05,1.127-1.244,1.321l-1.176,1.118h3.198v0.768h-4.277V156.892z"/>
		<path fill="#6A7370" d="M222.466,156.182c0.02,0.681,0.612,0.952,1.118,0.952c1.176,0,1.332-1.107,1.332-1.545
			c0-0.914-0.496-1.448-1.273-1.448c-0.389,0-0.7,0.146-0.904,0.35s-0.262,0.408-0.311,0.563h-0.884l0.175-4.004h3.781v0.787h-2.945
			l-0.126,2.177c0.204-0.204,0.632-0.622,1.419-0.622c1.351,0,2.012,1.06,2.012,2.217c0,1.321-0.933,2.323-2.401,2.323
			c-1.088,0-1.954-0.604-2.002-1.75H222.466z"/>
		<path fill="#6A7370" d="M227.688,150.467c0.525,1.292,1.157,2.896,1.157,4.315c0,0.768-0.175,1.525-0.399,2.265
			c-0.272,0.875-0.524,1.507-0.69,1.924h-0.642c0.156-0.485,0.37-1.146,0.574-2.07c0.204-0.884,0.272-1.496,0.272-2.099
			c0-1.371-0.34-2.488-0.904-4.335H227.688z"/>
	</g>
	<g>
		<path fill="#006C84" d="M133.962,360.737c-0.643,0.538-1.675,1.151-2.407,1.495v-1.495c0.972-0.509,1.929-1.137,2.512-1.63h1.331
			v10.348h-1.436V360.737z"/>
	</g>
	<g>
		<path fill="#006C84" d="M88.119,356.318c3.096,0,3.47,3.319,3.47,5.264c0,2.452-0.494,3.828-1.436,4.71
			c-0.733,0.688-1.6,0.793-2.064,0.793c-1.375,0-2.318-0.808-2.766-1.72c-0.344-0.688-0.673-1.69-0.673-3.544
			C84.65,360.28,84.829,356.318,88.119,356.318z M88.104,365.844c1.734,0,2.034-2.273,2.034-4.128c0-2.481-0.434-4.201-2.004-4.201
			c-1.809,0-2.048,2.377-2.048,4.231C86.086,364.049,86.534,365.844,88.104,365.844z"/>
	</g>
	<g>
		<path fill="#006C84" d="M176.624,368.095l2.707-2.662c0.568-0.553,1.137-1.151,1.6-1.779c0.598-0.822,0.763-1.286,0.763-1.839
			c0-0.509-0.18-1.69-1.66-1.69c-1.66,0-1.69,1.421-1.69,1.81h-1.57c0.015-0.509,0.06-1.495,0.957-2.272
			c0.718-0.613,1.585-0.748,2.243-0.748c1.585,0,3.2,0.808,3.2,3.021c0,0.658-0.045,1.166-1.167,2.587
			c-0.299,0.374-1.615,1.734-1.914,2.034l-1.809,1.72h4.919v1.181h-6.58V368.095z"/>
	</g>
	<g>
		<path fill="#006C84" d="M223.905,366.794c-0.015,0.986,0.628,1.689,1.899,1.689c1.451,0,2.064-0.927,2.064-1.839
			c0-1.092-0.733-1.66-1.496-1.825c-0.538-0.104-0.912-0.089-1.436-0.074v-1.211c1.032,0.089,2.767-0.12,2.767-1.795
			c0-1.166-0.792-1.63-1.825-1.63c-0.777,0-1.75,0.344-1.884,1.63h-1.51c0.089-2.572,2.512-2.826,3.35-2.826
			c2.258,0,3.379,1.36,3.379,2.796c0,0.853-0.464,2.079-2.063,2.438c2.213,0.314,2.213,2.303,2.213,2.513
			c0,1.45-1.181,3.051-3.589,3.051c-1.092,0-2.183-0.314-2.841-1.077c-0.583-0.658-0.598-1.405-0.613-1.839H223.905z"/>
	</g>
	<g>
		<path fill="#006C84" d="M272.756,367.212h-4.666v-1.779l4.486-6.46h1.615v7.028h1.51v1.211h-1.51v2.243h-1.436V367.212z
			 M272.801,366.001v-5.458l-3.574,5.458H272.801z"/>
	</g>
	<g>
		<path fill="#006C84" d="M315.984,367.003c0.03,1.047,0.942,1.466,1.72,1.466c1.81,0,2.049-1.705,2.049-2.378
			c0-1.405-0.763-2.229-1.959-2.229c-0.598,0-1.077,0.225-1.391,0.539c-0.314,0.313-0.404,0.628-0.479,0.867h-1.361l0.269-6.161
			h5.817v1.211h-4.531l-0.194,3.35c0.314-0.313,0.972-0.957,2.183-0.957c2.079,0,3.095,1.63,3.095,3.41
			c0,2.033-1.436,3.573-3.693,3.573c-1.675,0-3.006-0.927-3.081-2.691H315.984z"/>
	</g>
	<g>
		<path fill="#006C84" d="M365.597,361.56c-0.015-1.211-0.912-1.54-1.57-1.54c-1.496,0-2.153,1.286-2.288,4.037
			c0.329-0.479,0.897-1.315,2.408-1.315c1.689,0,3.125,1.121,3.125,3.319c0,2.408-1.72,3.619-3.499,3.619
			c-1.002,0-2.004-0.403-2.557-1.121c-0.763-1.018-0.942-2.498-0.942-3.813c0-2.258,0.553-5.847,3.828-5.847
			c1.361,0,2.124,0.598,2.482,0.986c0.523,0.613,0.538,1.271,0.553,1.675H365.597z M365.836,366.195
			c0-0.732-0.209-2.303-1.929-2.303c-1.391,0-2.063,1.137-2.063,2.317c0,1.347,0.837,2.333,1.989,2.333
			C364.76,368.543,365.836,367.885,365.836,366.195z"/>
	</g>
	<g>
		<path fill="#006C84" d="M405.957,359.107h6.834v1.256l-3.798,9.092h-1.69l3.978-9.106h-5.323V359.107z"/>
	</g>
	<g>
		<path fill="#00435B" d="M193.999,404.647h0.906l2.473,6.114h-0.923l-0.661-1.592h-2.837l-0.66,1.592h-0.873L193.999,404.647z
			 M193.228,408.484h2.312l-1.126-2.998L193.228,408.484z"/>
		<path fill="#00435B" d="M201.15,404.656h0.796v5.429c0,0.093,0.017,0.457,0.034,0.677h-0.796l-0.017-0.677
			c-0.068,0.118-0.161,0.296-0.381,0.448c-0.347,0.237-0.762,0.313-1.05,0.313c-0.567,0-1.829-0.297-1.829-2.159
			c0-1.618,0.923-2.32,1.922-2.32c0.915,0,1.22,0.542,1.321,0.72V404.656z M200.854,407.392c-0.169-0.221-0.483-0.432-0.932-0.432
			c-1.168,0-1.168,1.414-1.168,1.702c0,0.753,0.194,1.626,1.168,1.626c1.253,0,1.253-1.381,1.253-1.711
			C201.175,407.959,201.031,407.62,200.854,407.392z"/>
		<path fill="#00435B" d="M205.964,410.762c-0.059-0.212-0.076-0.415-0.076-0.635c-0.381,0.703-0.957,0.771-1.313,0.771
			c-0.974,0-1.499-0.551-1.499-1.253c0-0.339,0.119-0.881,0.745-1.245c0.458-0.254,1.135-0.279,1.474-0.279
			c0.204,0,0.331,0.008,0.576,0.025c0-0.525,0-0.754-0.153-0.94c-0.161-0.212-0.508-0.279-0.736-0.279
			c-0.805,0-0.847,0.551-0.855,0.72h-0.796c0.025-0.22,0.051-0.517,0.296-0.805c0.322-0.355,0.923-0.457,1.372-0.457
			c0.618,0,1.279,0.194,1.507,0.627c0.136,0.254,0.144,0.457,0.144,0.651l-0.034,2.033c0,0.067,0.008,0.635,0.068,1.066H205.964z
			 M205.414,408.67c-0.322,0-1.533,0-1.533,0.864c0,0.271,0.169,0.736,0.881,0.736c0.406,0,0.711-0.16,0.906-0.457
			c0.178-0.288,0.187-0.525,0.204-1.118C205.728,408.679,205.609,408.67,205.414,408.67z"/>
		<path fill="#00435B" d="M208.053,407.205c0-0.187-0.008-0.288-0.025-0.694h0.805l0.017,0.703c0.398-0.669,1.101-0.771,1.448-0.771
			c0.915,0,1.787,0.626,1.787,2.201c0,1.584-0.923,2.278-1.939,2.278c-0.618,0-1.076-0.263-1.304-0.635v2.108h-0.788V407.205z
			 M210.009,410.339c0.203,0,0.626-0.043,0.897-0.415c0.305-0.415,0.347-1.025,0.347-1.33c0-0.762-0.229-1.558-1.168-1.558
			c-1.271,0-1.271,1.346-1.271,1.728C208.815,409.28,208.891,410.339,210.009,410.339z"/>
		<path fill="#00435B" d="M212.597,406.494h0.753v-0.89l0.788-0.254v1.144h0.949v0.584h-0.949v2.549c0,0.212,0,0.567,0.567,0.567
			c0.161,0,0.313-0.025,0.381-0.042v0.618c-0.144,0.025-0.373,0.051-0.661,0.051c-0.729,0-1.076-0.212-1.076-0.906v-2.837h-0.753
			V406.494z"/>
		<path fill="#00435B" d="M216.549,408.78c-0.017,0.881,0.347,1.533,1.219,1.533c0.517,0,0.932-0.271,1-0.881h0.796
			c-0.025,0.212-0.059,0.559-0.364,0.889c-0.186,0.212-0.609,0.567-1.465,0.567c-1.338,0-1.973-0.83-1.973-2.176
			c0-0.839,0.169-1.533,0.838-1.999c0.406-0.288,0.915-0.313,1.16-0.313c1.905,0,1.863,1.686,1.846,2.38H216.549z M218.794,408.222
			c0.008-0.407-0.068-1.254-1.05-1.254c-0.517,0-1.143,0.313-1.16,1.254H218.794z"/>
		<path fill="#00435B" d="M223.719,404.656h0.796v5.429c0,0.093,0.017,0.457,0.034,0.677h-0.796l-0.017-0.677
			c-0.068,0.118-0.161,0.296-0.381,0.448c-0.347,0.237-0.762,0.313-1.05,0.313c-0.567,0-1.829-0.297-1.829-2.159
			c0-1.618,0.923-2.32,1.922-2.32c0.915,0,1.22,0.542,1.321,0.72V404.656z M223.422,407.392c-0.169-0.221-0.483-0.432-0.932-0.432
			c-1.168,0-1.168,1.414-1.168,1.702c0,0.753,0.195,1.626,1.168,1.626c1.253,0,1.253-1.381,1.253-1.711
			C223.744,407.959,223.6,407.62,223.422,407.392z"/>
		<path fill="#00435B" d="M230.42,405.24c-0.136-0.008-0.305-0.017-0.466-0.017c-0.644,0-0.644,0.321-0.644,0.618v0.669h0.991v0.576
			h-0.991v3.675h-0.788v-3.675h-0.838v-0.576h0.838v-0.482c0-0.585,0.034-0.796,0.178-1.017c0.178-0.271,0.517-0.466,1.067-0.466
			c0.229,0,0.483,0.034,0.652,0.06V405.24z"/>
		<path fill="#00435B" d="M231.155,407.375c0-0.288-0.017-0.585-0.042-0.864h0.805l0.017,0.821c0.152-0.593,0.66-0.787,1.016-0.838
			c0.237-0.034,0.415-0.025,0.55-0.018v0.779c-0.042-0.017-0.093-0.025-0.152-0.034c-0.059-0.008-0.136-0.008-0.229-0.008
			c-0.94,0-1.16,0.559-1.16,1.287v2.261h-0.805V407.375z"/>
		<path fill="#00435B" d="M236.25,406.4c1.702,0,2.083,1.338,2.083,2.228c0,1.245-0.703,2.278-2.151,2.278
			c-1.406,0-2.091-0.975-2.091-2.219C234.091,407.637,234.582,406.4,236.25,406.4z M236.199,410.314
			c0.602,0,1.287-0.433,1.287-1.711c0-1.059-0.491-1.617-1.236-1.617c-0.508,0-1.33,0.321-1.33,1.651
			C234.92,409.509,235.293,410.314,236.199,410.314z"/>
		<path fill="#00435B" d="M239.566,407.078l-0.017-0.567h0.805v0.618c0.406-0.669,0.982-0.729,1.347-0.729
			c0.94,0,1.236,0.483,1.389,0.796c0.144-0.236,0.491-0.796,1.431-0.796c0.61,0,1.558,0.254,1.558,1.508v2.854h-0.804v-2.727
			c0-0.373-0.068-0.533-0.144-0.644c-0.136-0.195-0.407-0.373-0.813-0.373c-0.517,0-0.796,0.297-0.906,0.449
			c-0.187,0.263-0.187,0.729-0.187,0.914v2.38h-0.804v-2.812c0-0.524-0.305-0.932-0.932-0.932c-0.542,0-0.838,0.339-0.932,0.466
			c-0.178,0.246-0.186,0.593-0.186,0.864v2.413h-0.805V407.078z"/>
		<path fill="#00435B" d="M249.958,407.375c0-0.288-0.017-0.585-0.042-0.864h0.805l0.017,0.821c0.152-0.593,0.66-0.787,1.016-0.838
			c0.237-0.034,0.415-0.025,0.55-0.018v0.779c-0.042-0.017-0.093-0.025-0.152-0.034c-0.059-0.008-0.136-0.008-0.229-0.008
			c-0.94,0-1.16,0.559-1.16,1.287v2.261h-0.805V407.375z"/>
		<path fill="#00435B" d="M253.69,408.78c-0.017,0.881,0.347,1.533,1.219,1.533c0.517,0,0.932-0.271,1-0.881h0.796
			c-0.025,0.212-0.059,0.559-0.364,0.889c-0.186,0.212-0.609,0.567-1.465,0.567c-1.338,0-1.973-0.83-1.973-2.176
			c0-0.839,0.169-1.533,0.838-1.999c0.406-0.288,0.915-0.313,1.16-0.313c1.905,0,1.863,1.686,1.846,2.38H253.69z M255.934,408.222
			c0.008-0.407-0.068-1.254-1.05-1.254c-0.517,0-1.143,0.313-1.16,1.254H255.934z"/>
		<path fill="#00435B" d="M260.038,405.24c-0.136-0.008-0.305-0.017-0.466-0.017c-0.644,0-0.644,0.321-0.644,0.618v0.669h0.991
			v0.576h-0.991v3.675h-0.787v-3.675h-0.839v-0.576h0.839v-0.482c0-0.585,0.034-0.796,0.178-1.017
			c0.178-0.271,0.517-0.466,1.067-0.466c0.229,0,0.483,0.034,0.652,0.06V405.24z"/>
		<path fill="#00435B" d="M260.671,409.746h0.94v1.016h-0.94V409.746z"/>
		<path fill="#00435B" d="M266.985,405.825c-0.364,0.305-0.948,0.651-1.363,0.847v-0.847c0.55-0.288,1.092-0.645,1.423-0.924h0.753
			v5.86h-0.813V405.825z"/>
	</g>
</g>
</svg>
