<?xml version="1.0" encoding="utf-8"?>
<!-- Generator: Adobe Illustrator 17.0.0, SVG Export Plug-In . SVG Version: 6.00 Build 0)  -->
<!DOCTYPE svg PUBLIC "-//W3C//DTD SVG 1.1//EN" "http://www.w3.org/Graphics/SVG/1.1/DTD/svg11.dtd">
<svg version="1.1" id="Layer_1" xmlns="http://www.w3.org/2000/svg" xmlns:xlink="http://www.w3.org/1999/xlink" x="0px" y="0px"
	 width="175.873px" height="242.109px" viewBox="0 0 175.873 242.109" enable-background="new 0 0 175.873 242.109"
	 xml:space="preserve">
<g>
	<g>
		<defs>
			<path id="SVGID_29_" d="M11.874,0C11.874,0,0,0,0,11.874l0.001,144.822c0,0,0,11.874,8.918,19.713l70.806,62.237
				c0,0,8.918,7.839,17.774-0.071l69.517-62.094c0,0,8.854-7.911,8.855-19.784l0.001-144.822c0,0,0-11.874-11.874-11.874H11.874z"/>
		</defs>
		<clipPath id="SVGID_2_">
			<use xlink:href="#SVGID_29_"  overflow="visible"/>
		</clipPath>
		
			<radialGradient id="SVGID_4_" cx="-774.5436" cy="442.8118" r="1.3193" gradientTransform="matrix(95.9882 0 0 -131.9359 74434.9844 58543.1523)" gradientUnits="userSpaceOnUse">
			<stop  offset="0" style="stop-color:#C8DFAA"/>
			<stop  offset="1" style="stop-color:#C8DFAA"/>
		</radialGradient>
		<rect x="0" y="0" clip-path="url(#SVGID_2_)" fill="url(#SVGID_4_)" width="175.873" height="246.485"/>
	</g>
	
		<line fill="none" stroke="#006C84" stroke-width="0.75" stroke-miterlimit="10" x1="21.933" y1="157.865" x2="152.974" y2="157.865"/>
	<g>
		<path fill="#006C84" d="M33.392,21.551c-0.342,0.19-1.025,0.38-1.901,0.38c-2.029,0-3.557-1.424-3.557-4.048
			c0-2.505,1.527-4.203,3.76-4.203c0.897,0,1.463,0.214,1.709,0.356l-0.225,0.843c-0.353-0.19-0.854-0.333-1.453-0.333
			c-1.688,0-2.809,1.199-2.809,3.3c0,1.958,1.015,3.217,2.767,3.217c0.566,0,1.143-0.13,1.517-0.332L33.392,21.551z"/>
		<path fill="#006C84" d="M39.312,18.892c0,2.125-1.324,3.051-2.574,3.051c-1.399,0-2.478-1.14-2.478-2.956
			c0-1.923,1.132-3.051,2.563-3.051C38.308,15.936,39.312,17.135,39.312,18.892z M35.21,18.951c0,1.258,0.651,2.208,1.57,2.208
			c0.897,0,1.57-0.938,1.57-2.232c0-0.974-0.438-2.208-1.548-2.208C35.691,16.719,35.21,17.859,35.21,18.951z"/>
		<path fill="#006C84" d="M40.596,17.622c0-0.594-0.011-1.081-0.043-1.555h0.823l0.042,0.926h0.032
			c0.289-0.546,0.769-1.057,1.624-1.057c0.705,0,1.239,0.475,1.463,1.152h0.021c0.161-0.321,0.363-0.57,0.577-0.748
			c0.31-0.261,0.651-0.404,1.143-0.404c0.684,0,1.698,0.499,1.698,2.493v3.383h-0.918v-3.253c0-1.104-0.363-1.769-1.122-1.769
			c-0.534,0-0.95,0.439-1.111,0.95c-0.042,0.143-0.075,0.333-0.075,0.522v3.549h-0.918v-3.443c0-0.914-0.363-1.579-1.079-1.579
			c-0.588,0-1.015,0.522-1.165,1.044c-0.053,0.154-0.075,0.333-0.075,0.511v3.466h-0.918V17.622z"/>
		<path fill="#006C84" d="M49.616,17.942c0-0.736-0.021-1.33-0.043-1.875h0.844l0.042,0.985h0.021
			c0.384-0.701,0.993-1.116,1.837-1.116c1.25,0,2.19,1.175,2.19,2.92c0,2.066-1.132,3.086-2.35,3.086
			c-0.684,0-1.282-0.332-1.591-0.902h-0.021v3.122h-0.929V17.942z M50.545,19.473c0,0.154,0.021,0.297,0.043,0.428
			c0.171,0.724,0.737,1.223,1.41,1.223c0.993,0,1.57-0.902,1.57-2.22c0-1.151-0.545-2.137-1.538-2.137
			c-0.641,0-1.239,0.511-1.421,1.294c-0.032,0.131-0.064,0.285-0.064,0.427V19.473z"/>
		<path fill="#006C84" d="M58.655,21.812l-0.075-0.724h-0.032c-0.289,0.451-0.844,0.854-1.581,0.854
			c-1.047,0-1.581-0.819-1.581-1.65c0-1.389,1.111-2.149,3.108-2.137v-0.119c0-0.475-0.117-1.33-1.175-1.33
			c-0.48,0-0.983,0.166-1.346,0.427l-0.214-0.688c0.427-0.309,1.047-0.511,1.698-0.511c1.581,0,1.965,1.199,1.965,2.351v2.149
			c0,0.499,0.021,0.985,0.085,1.377H58.655z M58.516,18.88c-1.025-0.024-2.189,0.178-2.189,1.294c0,0.677,0.406,0.997,0.886,0.997
			c0.673,0,1.1-0.475,1.25-0.961c0.032-0.107,0.053-0.226,0.053-0.333V18.88z"/>
		<path fill="#006C84" d="M61.039,17.859c0-0.677-0.011-1.258-0.043-1.792h0.823l0.032,1.127h0.043
			c0.235-0.771,0.801-1.258,1.431-1.258c0.107,0,0.182,0.012,0.267,0.036v0.985c-0.096-0.023-0.192-0.036-0.32-0.036
			c-0.662,0-1.132,0.558-1.261,1.342c-0.021,0.142-0.042,0.309-0.042,0.486v3.063h-0.929V17.859z"/>
		<path fill="#006C84" d="M65.153,19.129c0.021,1.413,0.833,1.995,1.773,1.995c0.673,0,1.079-0.131,1.431-0.297l0.16,0.748
			c-0.331,0.166-0.897,0.356-1.72,0.356c-1.591,0-2.542-1.164-2.542-2.896c0-1.733,0.919-3.099,2.425-3.099
			c1.688,0,2.136,1.65,2.136,2.707c0,0.213-0.021,0.38-0.032,0.486H65.153z M67.909,18.382c0.01-0.665-0.246-1.698-1.303-1.698
			c-0.951,0-1.367,0.974-1.442,1.698H67.909z"/>
		<path fill="#006C84" d="M74.545,13.383v6.945c0,0.51,0.01,1.092,0.042,1.484h-0.844L73.7,20.815h-0.021
			c-0.289,0.641-0.918,1.127-1.763,1.127c-1.25,0-2.211-1.175-2.211-2.92c-0.011-1.912,1.058-3.087,2.318-3.087
			c0.791,0,1.325,0.416,1.56,0.878h0.021v-3.431H74.545z M73.605,18.405c0-0.13-0.011-0.309-0.043-0.439
			c-0.139-0.665-0.651-1.211-1.356-1.211c-0.972,0-1.549,0.95-1.549,2.22c0,1.164,0.513,2.125,1.527,2.125
			c0.63,0,1.207-0.463,1.378-1.247c0.032-0.142,0.043-0.285,0.043-0.451V18.405z"/>
		<path fill="#006C84" d="M78.949,16.067l0.684,2.92c0.149,0.641,0.288,1.234,0.384,1.828h0.032
			c0.117-0.582,0.288-1.199,0.459-1.816l0.844-2.932h0.791l0.801,2.873c0.192,0.688,0.342,1.294,0.459,1.876h0.032
			c0.085-0.582,0.224-1.188,0.395-1.864l0.737-2.885h0.929l-1.667,5.746h-0.854l-0.79-2.742c-0.182-0.641-0.331-1.211-0.459-1.888
			h-0.021c-0.128,0.688-0.288,1.282-0.47,1.899l-0.833,2.73h-0.854l-1.559-5.746H78.949z"/>
		<path fill="#006C84" d="M87.594,14.452c0.01,0.356-0.225,0.641-0.598,0.641c-0.331,0-0.566-0.285-0.566-0.641
			c0-0.368,0.246-0.653,0.587-0.653C87.37,13.799,87.594,14.084,87.594,14.452z M86.547,21.812v-5.746h0.94v5.746H86.547z"/>
		<path fill="#006C84" d="M90.287,14.416v1.65h1.346v0.795h-1.346v3.098c0,0.712,0.182,1.116,0.705,1.116
			c0.246,0,0.427-0.036,0.545-0.071l0.042,0.783c-0.181,0.083-0.47,0.143-0.833,0.143c-0.438,0-0.79-0.154-1.015-0.439
			c-0.267-0.309-0.363-0.819-0.363-1.496v-3.134h-0.801v-0.795h0.801v-1.377L90.287,14.416z"/>
		<path fill="#006C84" d="M92.788,13.383h0.94v3.585h0.021c0.149-0.296,0.384-0.558,0.673-0.736
			c0.278-0.178,0.609-0.297,0.961-0.297c0.694,0,1.805,0.475,1.805,2.458v3.419h-0.94v-3.3c0-0.926-0.31-1.709-1.196-1.709
			c-0.609,0-1.089,0.475-1.26,1.045c-0.053,0.142-0.064,0.296-0.064,0.499v3.466h-0.94V13.383z"/>
		<path fill="#006C84" d="M105.513,20.245c0,0.593,0.011,1.116,0.043,1.567h-0.833l-0.053-0.938h-0.021
			c-0.246,0.463-0.79,1.068-1.709,1.068c-0.812,0-1.784-0.499-1.784-2.517v-3.359h0.94v3.181c0,1.092,0.299,1.829,1.154,1.829
			c0.63,0,1.068-0.487,1.239-0.95c0.054-0.154,0.085-0.344,0.085-0.534v-3.526h0.94V20.245z"/>
		<path fill="#006C84" d="M107.043,20.744c0.278,0.202,0.769,0.416,1.239,0.416c0.684,0,1.004-0.38,1.004-0.855
			c0-0.499-0.267-0.771-0.961-1.057c-0.929-0.368-1.367-0.938-1.367-1.626c0-0.926,0.673-1.686,1.784-1.686
			c0.523,0,0.983,0.167,1.271,0.356l-0.235,0.76c-0.203-0.143-0.577-0.333-1.057-0.333c-0.556,0-0.865,0.356-0.865,0.784
			c0,0.475,0.31,0.688,0.982,0.973c0.897,0.38,1.357,0.878,1.357,1.733c0,1.009-0.705,1.721-1.934,1.721
			c-0.566,0-1.089-0.154-1.453-0.392L107.043,20.744z"/>
		<path fill="#006C84" d="M115.825,20.245c0,0.593,0.011,1.116,0.043,1.567h-0.833l-0.054-0.938h-0.021
			c-0.246,0.463-0.79,1.068-1.709,1.068c-0.812,0-1.784-0.499-1.784-2.517v-3.359h0.94v3.181c0,1.092,0.299,1.829,1.154,1.829
			c0.63,0,1.068-0.487,1.239-0.95c0.054-0.154,0.085-0.344,0.085-0.534v-3.526h0.94V20.245z"/>
		<path fill="#006C84" d="M120.346,21.812l-0.075-0.724h-0.032c-0.289,0.451-0.844,0.854-1.581,0.854
			c-1.047,0-1.581-0.819-1.581-1.65c0-1.389,1.111-2.149,3.108-2.137v-0.119c0-0.475-0.117-1.33-1.175-1.33
			c-0.48,0-0.983,0.166-1.346,0.427l-0.214-0.688c0.427-0.309,1.047-0.511,1.698-0.511c1.581,0,1.965,1.199,1.965,2.351v2.149
			c0,0.499,0.021,0.985,0.085,1.377H120.346z M120.208,18.88c-1.025-0.024-2.189,0.178-2.189,1.294c0,0.677,0.406,0.997,0.886,0.997
			c0.673,0,1.1-0.475,1.25-0.961c0.032-0.107,0.053-0.226,0.053-0.333V18.88z"/>
		<path fill="#006C84" d="M122.731,13.383h0.94v8.429h-0.94V13.383z"/>
		<path fill="#006C84" d="M131.406,21.598c-0.246,0.143-0.791,0.333-1.485,0.333c-1.56,0-2.574-1.175-2.574-2.932
			c0-1.769,1.089-3.051,2.777-3.051c0.555,0,1.046,0.154,1.303,0.296l-0.214,0.808c-0.224-0.143-0.577-0.273-1.089-0.273
			c-1.186,0-1.827,0.973-1.827,2.172c0,1.33,0.769,2.148,1.794,2.148c0.534,0,0.887-0.154,1.154-0.285L131.406,21.598z"/>
		<path fill="#006C84" d="M135.467,21.812l-0.075-0.724h-0.032c-0.289,0.451-0.844,0.854-1.581,0.854
			c-1.047,0-1.581-0.819-1.581-1.65c0-1.389,1.111-2.149,3.108-2.137v-0.119c0-0.475-0.117-1.33-1.175-1.33
			c-0.48,0-0.983,0.166-1.346,0.427l-0.214-0.688c0.427-0.309,1.047-0.511,1.698-0.511c1.581,0,1.965,1.199,1.965,2.351v2.149
			c0,0.499,0.021,0.985,0.085,1.377H135.467z M135.329,18.88c-1.025-0.024-2.189,0.178-2.189,1.294c0,0.677,0.406,0.997,0.886,0.997
			c0.673,0,1.1-0.475,1.25-0.961c0.032-0.107,0.053-0.226,0.053-0.333V18.88z"/>
		<path fill="#006C84" d="M137.852,17.859c0-0.677-0.011-1.258-0.043-1.792h0.823l0.032,1.127h0.043
			c0.235-0.771,0.801-1.258,1.431-1.258c0.107,0,0.182,0.012,0.267,0.036v0.985c-0.096-0.023-0.192-0.036-0.32-0.036
			c-0.662,0-1.132,0.558-1.261,1.342c-0.021,0.142-0.042,0.309-0.042,0.486v3.063h-0.929V17.859z"/>
		<path fill="#006C84" d="M141.977,19.129c0.021,1.413,0.833,1.995,1.773,1.995c0.673,0,1.079-0.131,1.431-0.297l0.16,0.748
			c-0.331,0.166-0.897,0.356-1.72,0.356c-1.591,0-2.542-1.164-2.542-2.896c0-1.733,0.919-3.099,2.425-3.099
			c1.688,0,2.136,1.65,2.136,2.707c0,0.213-0.021,0.38-0.032,0.486H141.977z M144.733,18.382c0.01-0.665-0.246-1.698-1.303-1.698
			c-0.951,0-1.367,0.974-1.442,1.698H144.733z"/>
		<path fill="#006C84" d="M146.294,23.272c0.235-0.7,0.523-1.97,0.641-2.837l1.047-0.119c-0.246,1.009-0.715,2.327-1.015,2.885
			L146.294,23.272z"/>
		<path fill="#006C84" d="M17.504,26.634h0.929v7.135h3.076v0.867h-4.005V26.634z"/>
		<path fill="#006C84" d="M23.573,26.634v8.001h-0.93v-8.001H23.573z"/>
		<path fill="#006C84" d="M25.294,26.73c0.448-0.083,1.036-0.154,1.784-0.154c0.918,0,1.591,0.237,2.019,0.665
			c0.395,0.38,0.63,0.962,0.63,1.674c0,0.724-0.192,1.294-0.556,1.709c-0.491,0.582-1.292,0.878-2.2,0.878
			c-0.278,0-0.534-0.012-0.748-0.071v3.205h-0.929V26.73z M26.223,30.588c0.203,0.06,0.459,0.083,0.769,0.083
			c1.121,0,1.805-0.605,1.805-1.709c0-1.057-0.673-1.567-1.698-1.567c-0.406,0-0.715,0.036-0.875,0.083V30.588z"/>
		<path fill="#006C84" d="M32.004,26.634v8.001h-0.929v-8.001H32.004z"/>
		<path fill="#006C84" d="M34.9,27.513h-2.19v-0.879h5.33v0.879H35.84v7.123H34.9V27.513z"/>
		<path fill="#006C84" d="M44.516,30.552c0,2.754-1.506,4.214-3.343,4.214c-1.901,0-3.237-1.638-3.237-4.06
			c0-2.541,1.421-4.203,3.343-4.203C43.244,26.504,44.516,28.178,44.516,30.552z M38.929,30.683c0,1.709,0.833,3.241,2.296,3.241
			c1.474,0,2.307-1.507,2.307-3.324c0-1.591-0.748-3.253-2.296-3.253C39.698,27.347,38.929,28.926,38.929,30.683z"/>
		<path fill="#006C84" d="M45.833,26.741c0.47-0.107,1.143-0.166,1.784-0.166c0.993,0,1.634,0.202,2.083,0.653
			c0.363,0.356,0.566,0.902,0.566,1.52c0,1.057-0.598,1.757-1.356,2.042v0.036c0.555,0.213,0.886,0.783,1.057,1.614
			c0.235,1.116,0.406,1.888,0.556,2.196h-0.961c-0.118-0.226-0.278-0.914-0.48-1.911c-0.214-1.104-0.599-1.52-1.442-1.555h-0.875
			v3.466h-0.929V26.741z M46.762,30.386h0.951c0.993,0,1.623-0.605,1.623-1.52c0-1.033-0.673-1.484-1.655-1.496
			c-0.449,0-0.769,0.047-0.918,0.095V30.386z"/>
		<path fill="#006C84" d="M54.808,28.451c0,1.104-0.78,1.971-1.794,1.971c-1.004,0-1.805-0.867-1.805-1.971
			c0-1.08,0.801-1.947,1.805-1.947C54.028,26.504,54.808,27.371,54.808,28.451z M51.657,28.451c0,0.867,0.577,1.555,1.367,1.555
			c0.769,0,1.335-0.688,1.335-1.543c0-0.866-0.566-1.567-1.346-1.567S51.657,27.596,51.657,28.451z M52.736,29.472H52.33v-1.947
			c0.16-0.036,0.384-0.06,0.673-0.06c0.331,0,0.48,0.06,0.609,0.143c0.096,0.083,0.171,0.237,0.171,0.427
			c0,0.214-0.15,0.38-0.363,0.451v0.024c0.171,0.071,0.267,0.213,0.32,0.475c0.054,0.297,0.085,0.416,0.128,0.487H53.43
			c-0.053-0.071-0.085-0.25-0.139-0.475c-0.032-0.214-0.139-0.309-0.363-0.309h-0.192V29.472z M52.747,28.368h0.192
			c0.224,0,0.406-0.083,0.406-0.285c0-0.178-0.118-0.296-0.374-0.296c-0.106,0-0.182,0.012-0.224,0.023V28.368z"/>
		<path fill="#006C84" d="M60.237,26.397c-0.78,1.164-1.346,2.707-1.346,4.855c0,2.113,0.587,3.633,1.346,4.82H59.5
			c-0.673-0.985-1.399-2.505-1.399-4.82c0.011-2.339,0.727-3.858,1.399-4.855H60.237z"/>
		<path fill="#006C84" d="M61.232,30.445c0-0.594-0.011-1.081-0.043-1.555h0.823l0.042,0.926h0.032
			c0.289-0.546,0.769-1.057,1.624-1.057c0.705,0,1.239,0.475,1.463,1.152h0.021c0.161-0.321,0.363-0.57,0.577-0.748
			c0.31-0.261,0.651-0.404,1.143-0.404c0.684,0,1.698,0.499,1.698,2.493v3.383h-0.918v-3.253c0-1.104-0.363-1.769-1.122-1.769
			c-0.534,0-0.95,0.439-1.111,0.95c-0.042,0.143-0.075,0.333-0.075,0.522v3.549h-0.918v-3.443c0-0.914-0.363-1.579-1.079-1.579
			c-0.588,0-1.015,0.522-1.165,1.044c-0.053,0.154-0.075,0.333-0.075,0.511v3.466h-0.918V30.445z"/>
		<path fill="#006C84" d="M70.668,31.953c0.021,1.413,0.833,1.995,1.773,1.995c0.673,0,1.079-0.131,1.431-0.297l0.16,0.748
			c-0.331,0.166-0.897,0.356-1.719,0.356c-1.592,0-2.542-1.163-2.542-2.896s0.918-3.099,2.425-3.099c1.688,0,2.136,1.65,2.136,2.707
			c0,0.213-0.021,0.38-0.032,0.486H70.668z M73.423,31.205c0.011-0.665-0.246-1.698-1.303-1.698c-0.951,0-1.367,0.974-1.442,1.698
			H73.423z"/>
		<path fill="#006C84" d="M79.963,26.207v6.945c0,0.51,0.011,1.092,0.042,1.484h-0.844l-0.042-0.997h-0.021
			c-0.289,0.641-0.919,1.127-1.763,1.127c-1.25,0-2.211-1.175-2.211-2.92c-0.011-1.912,1.058-3.087,2.318-3.087
			c0.791,0,1.325,0.416,1.56,0.878h0.021v-3.431H79.963z M79.023,31.229c0-0.13-0.011-0.309-0.043-0.439
			c-0.139-0.665-0.651-1.211-1.356-1.211c-0.972,0-1.549,0.95-1.549,2.22c0,1.164,0.513,2.125,1.527,2.125
			c0.63,0,1.207-0.463,1.378-1.247c0.032-0.142,0.043-0.285,0.043-0.451V31.229z"/>
		<path fill="#006C84" d="M82.572,27.276c0.01,0.356-0.225,0.641-0.598,0.641c-0.331,0-0.566-0.285-0.566-0.641
			c0-0.368,0.246-0.653,0.587-0.653C82.347,26.623,82.572,26.908,82.572,27.276z M81.525,34.636V28.89h0.94v5.746H81.525z"/>
		<path fill="#006C84" d="M86.888,34.636l-0.075-0.724h-0.032c-0.289,0.451-0.844,0.854-1.581,0.854
			c-1.047,0-1.581-0.819-1.581-1.65c0-1.389,1.111-2.149,3.108-2.137v-0.119c0-0.475-0.117-1.33-1.175-1.33
			c-0.48,0-0.982,0.166-1.346,0.427l-0.214-0.688c0.427-0.309,1.047-0.511,1.698-0.511c1.581,0,1.965,1.199,1.965,2.351v2.149
			c0,0.499,0.021,0.985,0.085,1.377H86.888z M86.749,31.704c-1.025-0.024-2.189,0.178-2.189,1.294c0,0.677,0.406,0.997,0.886,0.997
			c0.673,0,1.1-0.475,1.25-0.961c0.032-0.107,0.053-0.226,0.053-0.333V31.704z"/>
		<path fill="#006C84" d="M89.176,30.445c0-0.594-0.011-1.081-0.043-1.555h0.833l0.053,0.95h0.021
			c0.256-0.546,0.854-1.081,1.709-1.081c0.715,0,1.826,0.475,1.826,2.446v3.431h-0.94v-3.312c0-0.926-0.31-1.698-1.196-1.698
			c-0.619,0-1.1,0.487-1.26,1.068c-0.042,0.131-0.064,0.309-0.064,0.487v3.455h-0.94V30.445z"/>
		<path fill="#006C84" d="M101.838,26.207v6.945c0,0.51,0.01,1.092,0.042,1.484h-0.844l-0.043-0.997h-0.021
			c-0.289,0.641-0.918,1.127-1.763,1.127c-1.25,0-2.211-1.175-2.211-2.92c-0.011-1.912,1.058-3.087,2.318-3.087
			c0.791,0,1.325,0.416,1.56,0.878h0.021v-3.431H101.838z M100.898,31.229c0-0.13-0.011-0.309-0.043-0.439
			c-0.139-0.665-0.651-1.211-1.356-1.211c-0.972,0-1.549,0.95-1.549,2.22c0,1.164,0.513,2.125,1.527,2.125
			c0.63,0,1.207-0.463,1.378-1.247c0.032-0.142,0.043-0.285,0.043-0.451V31.229z"/>
		<path fill="#006C84" d="M108.078,31.715c0,2.125-1.324,3.051-2.574,3.051c-1.399,0-2.478-1.14-2.478-2.956
			c0-1.923,1.132-3.051,2.563-3.051C107.074,28.759,108.078,29.959,108.078,31.715z M103.977,31.775c0,1.258,0.651,2.208,1.57,2.208
			c0.897,0,1.57-0.938,1.57-2.232c0-0.974-0.438-2.208-1.548-2.208C104.457,29.543,103.977,30.683,103.977,31.775z"/>
		<path fill="#006C84" d="M109.138,33.568c0.278,0.202,0.769,0.416,1.239,0.416c0.684,0,1.004-0.38,1.004-0.855
			c0-0.499-0.267-0.771-0.961-1.056c-0.929-0.368-1.367-0.938-1.367-1.626c0-0.926,0.673-1.686,1.784-1.686
			c0.523,0,0.982,0.167,1.271,0.356l-0.235,0.76c-0.203-0.143-0.577-0.333-1.057-0.333c-0.556,0-0.865,0.356-0.865,0.784
			c0,0.475,0.31,0.688,0.982,0.973c0.897,0.38,1.356,0.878,1.356,1.733c0,1.009-0.705,1.721-1.933,1.721
			c-0.566,0-1.089-0.154-1.453-0.392L109.138,33.568z"/>
		<path fill="#006C84" d="M114.022,31.953c0.021,1.413,0.833,1.995,1.773,1.995c0.673,0,1.079-0.131,1.431-0.297l0.16,0.748
			c-0.331,0.166-0.897,0.356-1.719,0.356c-1.592,0-2.542-1.163-2.542-2.896s0.918-3.099,2.425-3.099c1.688,0,2.136,1.65,2.136,2.707
			c0,0.213-0.021,0.38-0.032,0.486H114.022z M116.777,31.205c0.011-0.665-0.246-1.698-1.303-1.698c-0.951,0-1.367,0.974-1.442,1.698
			H116.777z"/>
		<path fill="#006C84" d="M123.724,34.636v-2.101h-3.226v-0.688l3.098-4.927h1.015v4.796h0.972v0.819h-0.972v2.101H123.724z
			 M123.724,31.715v-2.576c0-0.403,0.011-0.807,0.032-1.211h-0.032c-0.213,0.451-0.384,0.784-0.577,1.14l-1.698,2.624v0.023H123.724
			z"/>
		<path fill="#006C84" d="M130.915,30.694c0,2.624-0.875,4.072-2.414,4.072c-1.356,0-2.275-1.413-2.297-3.965
			c0-2.588,1.004-4.013,2.414-4.013C130.082,26.789,130.915,28.237,130.915,30.694z M127.145,30.813c0,2.006,0.555,3.146,1.41,3.146
			c0.961,0,1.42-1.247,1.42-3.217c0-1.899-0.438-3.146-1.41-3.146C127.742,27.596,127.145,28.712,127.145,30.813z"/>
		<path fill="#006C84" d="M131.858,34.019c0-0.439,0.267-0.748,0.641-0.748s0.63,0.309,0.63,0.748c0,0.427-0.246,0.748-0.641,0.748
			C132.113,34.766,131.858,34.446,131.858,34.019z"/>
		<path fill="#006C84" d="M138.139,27.798h-2.649l-0.267,1.982c0.16-0.023,0.31-0.047,0.566-0.047c0.534,0,1.068,0.13,1.496,0.416
			c0.545,0.344,0.993,1.009,0.993,1.982c0,1.508-1.079,2.635-2.585,2.635c-0.758,0-1.399-0.237-1.73-0.475l0.235-0.795
			c0.289,0.19,0.854,0.427,1.485,0.427c0.886,0,1.645-0.641,1.645-1.674c-0.01-0.997-0.609-1.709-1.997-1.709
			c-0.396,0-0.705,0.047-0.961,0.083l0.449-3.704h3.322V27.798z"/>
		<path fill="#006C84" d="M142.041,30.445c0-0.594-0.011-1.081-0.043-1.555h0.823l0.042,0.926h0.032
			c0.289-0.546,0.769-1.057,1.624-1.057c0.705,0,1.239,0.475,1.463,1.152h0.021c0.161-0.321,0.363-0.57,0.577-0.748
			c0.31-0.261,0.651-0.404,1.143-0.404c0.684,0,1.698,0.499,1.698,2.493v3.383h-0.918v-3.253c0-1.104-0.363-1.769-1.122-1.769
			c-0.534,0-0.95,0.439-1.111,0.95c-0.042,0.143-0.075,0.333-0.075,0.522v3.549h-0.918v-3.443c0-0.914-0.363-1.579-1.079-1.579
			c-0.588,0-1.015,0.522-1.165,1.044c-0.053,0.154-0.075,0.333-0.075,0.511v3.466h-0.918V30.445z"/>
		<path fill="#006C84" d="M155.407,28.89c-0.021,0.416-0.043,0.878-0.043,1.579v3.336c0,1.318-0.235,2.125-0.737,2.624
			c-0.502,0.522-1.229,0.688-1.88,0.688c-0.62,0-1.303-0.166-1.72-0.475l0.235-0.795c0.342,0.237,0.876,0.451,1.517,0.451
			c0.961,0,1.667-0.558,1.667-2.006v-0.641h-0.021c-0.288,0.534-0.844,0.961-1.645,0.961c-1.281,0-2.2-1.211-2.2-2.801
			c0-1.947,1.143-3.051,2.329-3.051c0.897,0,1.389,0.522,1.613,0.998h0.021l0.042-0.867H155.407z M154.435,31.157
			c0-0.178-0.011-0.332-0.053-0.475c-0.171-0.605-0.63-1.104-1.314-1.104c-0.897,0-1.538,0.843-1.538,2.172
			c0,1.128,0.513,2.065,1.527,2.065c0.577,0,1.1-0.403,1.303-1.068c0.053-0.178,0.075-0.38,0.075-0.558V31.157z"/>
		<path fill="#006C84" d="M156.36,36.072c0.759-1.175,1.346-2.719,1.346-4.855c0-2.125-0.577-3.645-1.346-4.82h0.727
			c0.684,0.974,1.399,2.493,1.399,4.832c0,2.327-0.716,3.834-1.399,4.844H156.36z"/>
		<path fill="#006C84" d="M67.317,43.59c0-0.736-0.021-1.33-0.043-1.875h0.844l0.043,0.985h0.021
			c0.384-0.701,0.993-1.116,1.837-1.116c1.25,0,2.19,1.175,2.19,2.92c0,2.066-1.132,3.086-2.35,3.086
			c-0.684,0-1.282-0.332-1.591-0.901h-0.021v3.122h-0.929V43.59z M68.247,45.121c0,0.154,0.021,0.297,0.042,0.428
			c0.171,0.724,0.737,1.223,1.41,1.223c0.993,0,1.57-0.903,1.57-2.221c0-1.151-0.545-2.137-1.538-2.137
			c-0.641,0-1.239,0.511-1.421,1.294c-0.032,0.131-0.064,0.285-0.064,0.427V45.121z"/>
		<path fill="#006C84" d="M73.398,43.507c0-0.677-0.011-1.258-0.043-1.792h0.823l0.032,1.127h0.043
			c0.235-0.771,0.801-1.258,1.431-1.258c0.107,0,0.182,0.012,0.267,0.036v0.985c-0.096-0.023-0.192-0.036-0.32-0.036
			c-0.663,0-1.132,0.558-1.26,1.342c-0.021,0.142-0.043,0.309-0.043,0.486v3.063h-0.929V43.507z"/>
		<path fill="#006C84" d="M81.57,44.539c0,2.125-1.324,3.051-2.574,3.051c-1.399,0-2.478-1.14-2.478-2.956
			c0-1.923,1.132-3.051,2.563-3.051C80.567,41.583,81.57,42.782,81.57,44.539z M77.469,44.599c0,1.258,0.651,2.208,1.57,2.208
			c0.897,0,1.57-0.938,1.57-2.232c0-0.974-0.438-2.208-1.548-2.208C77.949,42.367,77.469,43.507,77.469,44.599z"/>
		<path fill="#006C84" d="M83.122,41.714l1.015,3.229c0.171,0.522,0.31,0.997,0.417,1.472h0.032c0.118-0.475,0.267-0.95,0.438-1.472
			l1.004-3.229h0.982l-2.029,5.746h-0.897l-1.965-5.746H83.122z"/>
		<path fill="#006C84" d="M88.946,40.099c0.01,0.356-0.225,0.641-0.598,0.641c-0.331,0-0.566-0.285-0.566-0.641
			c0-0.368,0.246-0.653,0.587-0.653C88.721,39.446,88.946,39.732,88.946,40.099z M87.899,47.46v-5.746h0.94v5.746H87.899z"/>
		<path fill="#006C84" d="M94.864,39.031v6.945c0,0.511,0.011,1.093,0.042,1.484h-0.844l-0.042-0.997h-0.021
			c-0.289,0.641-0.919,1.127-1.763,1.127c-1.25,0-2.211-1.175-2.211-2.92c-0.011-1.912,1.058-3.087,2.318-3.087
			c0.791,0,1.325,0.416,1.56,0.878h0.021v-3.431H94.864z M93.924,44.052c0-0.13-0.011-0.309-0.043-0.439
			c-0.139-0.665-0.651-1.211-1.356-1.211c-0.972,0-1.549,0.95-1.549,2.22c0,1.164,0.513,2.125,1.527,2.125
			c0.63,0,1.207-0.463,1.378-1.247c0.032-0.142,0.043-0.285,0.043-0.451V44.052z"/>
		<path fill="#006C84" d="M96.95,44.777c0.021,1.413,0.833,1.995,1.773,1.995c0.673,0,1.079-0.131,1.431-0.297l0.16,0.748
			c-0.331,0.166-0.897,0.355-1.72,0.355c-1.591,0-2.542-1.163-2.542-2.896s0.919-3.099,2.425-3.099c1.688,0,2.136,1.65,2.136,2.707
			c0,0.213-0.021,0.38-0.032,0.486H96.95z M99.706,44.029c0.01-0.665-0.246-1.698-1.303-1.698c-0.951,0-1.367,0.974-1.442,1.698
			H99.706z"/>
		<path fill="#006C84" d="M106.245,39.031v6.945c0,0.511,0.011,1.093,0.042,1.484h-0.844l-0.042-0.997h-0.021
			c-0.289,0.641-0.919,1.127-1.763,1.127c-1.25,0-2.211-1.175-2.211-2.92c-0.011-1.912,1.058-3.087,2.318-3.087
			c0.791,0,1.325,0.416,1.56,0.878h0.021v-3.431H106.245z M105.305,44.052c0-0.13-0.011-0.309-0.043-0.439
			c-0.139-0.665-0.651-1.211-1.356-1.211c-0.972,0-1.549,0.95-1.549,2.22c0,1.164,0.513,2.125,1.527,2.125
			c0.63,0,1.207-0.463,1.378-1.247c0.032-0.142,0.043-0.285,0.043-0.451V44.052z"/>
		<path fill="#006C84" d="M107.583,42.664c0-0.439,0.267-0.748,0.641-0.748s0.62,0.309,0.63,0.748c0,0.416-0.246,0.736-0.641,0.736
			C107.84,43.4,107.583,43.079,107.583,42.664z M107.583,46.855c0-0.439,0.267-0.749,0.641-0.749s0.62,0.309,0.63,0.749
			c0,0.415-0.246,0.735-0.641,0.735C107.84,47.59,107.583,47.27,107.583,46.855z"/>
	</g>
	<g>
		<path fill="#004F63" d="M45.986,96.221v-8.905l18.47-27.111h9.829l-0.066,28.431h6.267v7.586h-6.267v10.026h-9.763V96.221H45.986z
			 M53.374,88.832h11.609V76.695c0-0.594,0.066-3.893,0.132-5.079L53.374,88.832z"/>
		<path fill="#004F63" d="M80.815,60.271h31.201v8.179l-15.832,37.798H85.169l16.821-38.325H80.815V60.271z"/>
	</g>
	<g>
		<path fill="#004F63" d="M118.494,94.269c0,2.782-1.637,4.061-3.678,4.061c-1.952,0-3.611-1.167-3.611-3.926
			c0-2.354,1.278-4.104,3.813-4.104C117.597,90.299,118.494,92.228,118.494,94.269z M116.722,94.359
			c0-1.099-0.269-2.714-1.861-2.714c-1.929,0-1.929,2.198-1.929,2.736c0,0.517,0,2.647,1.929,2.647
			C116.722,97.028,116.722,94.808,116.722,94.359z M114.187,107.122l9.892-17.271h1.48l-9.892,17.271H114.187z M127.87,99.563
			c0.404,0.448,0.92,1.166,0.92,2.849c0,2.445-1.189,4.104-3.611,4.104c-2.871,0-3.679-2.131-3.679-3.992
			c0-2.714,1.682-4.037,3.679-4.037C125.784,98.486,126.995,98.598,127.87,99.563z M127.085,102.456
			c0-0.695-0.134-2.714-1.884-2.714c-1.929,0-1.929,2.333-1.929,3.006c0,0.785,0.18,2.444,1.884,2.444
			C126.95,105.193,127.085,103.264,127.085,102.456z"/>
	</g>
	<g>
		<path fill="#004F63" d="M30.703,129.996h-2.294v-11.436h4.24c1.565,0,2.569,1.045,2.569,2.993c0,1.457-0.547,2.55-2.037,2.804
			v0.031c0.501,0.063,1.991,0.19,1.991,2.249c0,0.729,0.046,2.883,0.258,3.358h-2.249c-0.304-0.697-0.243-1.474-0.243-2.218
			c0-1.362,0.122-2.519-1.642-2.519h-0.593V129.996z M30.703,123.502h1.019c0.912,0,1.17-0.95,1.17-1.679
			c0-1.093-0.44-1.505-1.17-1.505h-1.019V123.502z"/>
		<path fill="#004F63" d="M39.153,129.996h-2.294v-11.436h4.24c1.565,0,2.569,1.045,2.569,2.993c0,1.457-0.547,2.55-2.037,2.804
			v0.031c0.501,0.063,1.991,0.19,1.991,2.249c0,0.729,0.046,2.883,0.258,3.358h-2.249c-0.304-0.697-0.243-1.474-0.243-2.218
			c0-1.362,0.122-2.519-1.642-2.519h-0.593V129.996z M39.153,123.502h1.019c0.912,0,1.17-0.95,1.17-1.679
			c0-1.093-0.44-1.505-1.17-1.505h-1.019V123.502z"/>
		<path fill="#004F63" d="M47.604,129.996h-2.294v-11.436h4.24c1.565,0,2.569,1.045,2.569,2.993c0,1.457-0.547,2.55-2.037,2.804
			v0.031c0.501,0.063,1.991,0.19,1.991,2.249c0,0.729,0.046,2.883,0.258,3.358h-2.249c-0.304-0.697-0.243-1.474-0.243-2.218
			c0-1.362,0.122-2.519-1.642-2.519h-0.593V129.996z M47.604,123.502h1.019c0.912,0,1.17-0.95,1.17-1.679
			c0-1.093-0.44-1.505-1.17-1.505h-1.019V123.502z"/>
		<path fill="#004F63" d="M59.398,118.561v1.758h-2.143v-1.758H59.398z M59.398,129.996h-2.143v-7.999h2.143V129.996z"/>
		<path fill="#004F63" d="M63.441,122.805h0.03c0.213-0.364,0.471-0.602,0.76-0.744c0.304-0.158,0.654-0.222,1.049-0.222
			c1.018,0,1.915,0.634,1.915,1.742v6.415h-2.143v-5.512c0-0.713-0.122-1.268-0.806-1.268c-0.684,0-0.805,0.555-0.805,1.268v5.512
			h-2.143v-7.999h2.143V122.805z"/>
		<path fill="#004F63" d="M74.414,122.805h0.03c0.213-0.364,0.471-0.602,0.76-0.744c0.304-0.158,0.653-0.222,1.049-0.222
			c1.018,0,1.915,0.634,1.915,1.742v6.415h-2.143v-5.512c0-0.713-0.122-1.268-0.806-1.268c-0.684,0-0.805,0.555-0.805,1.268v5.512
			h-2.143v-7.999h2.143V122.805z"/>
		<path fill="#004F63" d="M79.687,125.894c0-2.186,0.304-4.055,3.131-4.055c2.827,0,3.131,1.869,3.131,4.055
			c0,2.503-0.365,4.261-3.131,4.261C80.052,130.154,79.687,128.397,79.687,125.894z M83.806,125.767
			c0-1.663-0.076-2.502-0.988-2.502c-0.912,0-0.988,0.839-0.988,2.502c0,2.439,0.198,2.962,0.988,2.962
			C83.608,128.729,83.806,128.206,83.806,125.767z"/>
		<path fill="#004F63" d="M89.612,122.805h0.03c0.213-0.364,0.471-0.602,0.76-0.744c0.304-0.158,0.654-0.222,1.049-0.222
			c1.018,0,1.915,0.634,1.915,1.742v6.415h-2.143v-5.512c0-0.713-0.122-1.268-0.806-1.268c-0.684,0-0.805,0.555-0.805,1.268v5.512
			h-2.143v-7.999h2.143V122.805z"/>
		<path fill="#004F63" d="M98.609,124.912v1.615h-3.723v-1.615H98.609z"/>
		<path fill="#004F63" d="M103.427,119.939c-0.866-0.063-1.049,0.285-1.049,1.093v0.966h1.003v1.378h-1.003v6.621h-2.143v-6.621
			h-0.958v-1.378h0.973c-0.015-2.296-0.198-3.516,2.417-3.516c0.258,0,0.501,0.016,0.76,0.031V119.939z"/>
		<path fill="#004F63" d="M110.175,128.507c0,0.491,0.061,0.998,0.106,1.489h-1.991l-0.091-1.062h-0.031
			c-0.456,0.823-1.079,1.22-2.006,1.22c-1.489,0-2.037-1.156-2.037-2.55c0-2.646,1.96-2.756,3.952-2.725v-0.617
			c0-0.682-0.091-1.173-0.867-1.173c-0.745,0-0.805,0.586-0.805,1.22h-2.097c0-0.966,0.289-1.584,0.79-1.948
			c0.486-0.38,1.186-0.522,2.006-0.522c2.72,0,3.07,1.22,3.07,2.677V128.507z M106.224,127.509c0,0.57,0.091,1.268,0.791,1.268
			c1.261,0,1.064-1.774,1.064-2.646C107.014,126.179,106.224,126.084,106.224,127.509z"/>
		<path fill="#004F63" d="M111.088,121.997h0.866v-1.267l2.143-0.998v2.265h1.109v1.378h-1.109v4.276
			c0,0.603-0.015,0.998,0.684,0.998c0.137,0,0.274,0,0.38-0.031v1.378c-0.289,0.031-0.592,0.079-1.109,0.079
			c-1.854,0-2.097-1.283-2.097-1.774v-4.926h-0.866V121.997z"/>
		<path fill="#004F63" d="M122,128.507c0,0.491,0.061,0.998,0.106,1.489h-1.991l-0.091-1.062h-0.031
			c-0.456,0.823-1.079,1.22-2.006,1.22c-1.489,0-2.037-1.156-2.037-2.55c0-2.646,1.96-2.756,3.952-2.725v-0.617
			c0-0.682-0.091-1.173-0.867-1.173c-0.745,0-0.805,0.586-0.805,1.22h-2.097c0-0.966,0.289-1.584,0.79-1.948
			c0.486-0.38,1.186-0.522,2.006-0.522c2.72,0,3.07,1.22,3.07,2.677V128.507z M118.048,127.509c0,0.57,0.091,1.268,0.791,1.268
			c1.261,0,1.064-1.774,1.064-2.646C118.838,126.179,118.048,126.084,118.048,127.509z"/>
		<path fill="#004F63" d="M126.103,118.561v11.436h-2.143v-11.436H126.103z"/>
		<path fill="#004F63" d="M131.438,129.996v-11.436h3.693l1.717,7.776h0.03l1.824-7.776h3.572v11.436h-2.234v-8.822h-0.03
			l-2.112,8.822h-2.188l-2.006-8.822h-0.03v8.822H131.438z"/>
		<path fill="#004F63" d="M144.144,129.996v-11.436h2.295v11.436H144.144z"/>
	</g>
	<g>
		<path fill="#004F63" d="M61.985,138.907c-0.78,1.164-1.346,2.707-1.346,4.855c0,2.113,0.587,3.633,1.346,4.82h-0.737
			c-0.673-0.985-1.399-2.505-1.399-4.82c0.011-2.339,0.727-3.858,1.399-4.855H61.985z"/>
	</g>
	<g>
		<path fill="#004F63" d="M63.024,143.277c0-0.736-0.021-1.33-0.043-1.876h0.844l0.042,0.985h0.021
			c0.384-0.7,0.993-1.116,1.837-1.116c1.25,0,2.19,1.176,2.19,2.921c0,2.065-1.132,3.086-2.35,3.086
			c-0.684,0-1.282-0.332-1.591-0.901h-0.021v3.122h-0.929V143.277z M63.953,144.808c0,0.154,0.021,0.297,0.043,0.428
			c0.171,0.724,0.737,1.223,1.41,1.223c0.993,0,1.57-0.902,1.57-2.221c0-1.151-0.545-2.137-1.538-2.137
			c-0.641,0-1.239,0.511-1.421,1.294c-0.032,0.131-0.064,0.285-0.064,0.428V144.808z"/>
	</g>
	<g>
		<path fill="#004F63" d="M68.72,143.146v-0.712h5.511v0.712H68.72z M68.72,145.473v-0.713h5.511v0.713H68.72z"/>
		<path fill="#004F63" d="M79.863,143.205c0,2.623-0.875,4.071-2.414,4.071c-1.356,0-2.275-1.412-2.297-3.965
			c0-2.588,1.004-4.013,2.414-4.013C79.03,139.299,79.863,140.748,79.863,143.205z M76.093,143.323c0,2.007,0.555,3.146,1.41,3.146
			c0.961,0,1.42-1.247,1.42-3.217c0-1.899-0.438-3.146-1.41-3.146C76.691,140.107,76.093,141.223,76.093,143.323z"/>
		<path fill="#004F63" d="M80.902,146.529c0-0.439,0.267-0.748,0.641-0.748s0.63,0.309,0.63,0.748c0,0.427-0.246,0.747-0.641,0.747
			C81.159,147.277,80.902,146.956,80.902,146.529z"/>
		<path fill="#004F63" d="M87.76,143.205c0,2.623-0.875,4.071-2.414,4.071c-1.356,0-2.275-1.412-2.297-3.965
			c0-2.588,1.004-4.013,2.414-4.013C86.927,139.299,87.76,140.748,87.76,143.205z M83.99,143.323c0,2.007,0.555,3.146,1.41,3.146
			c0.961,0,1.42-1.247,1.42-3.217c0-1.899-0.438-3.146-1.41-3.146C84.588,140.107,83.99,141.223,83.99,143.323z"/>
		<path fill="#004F63" d="M93.552,143.205c0,2.623-0.875,4.071-2.414,4.071c-1.356,0-2.275-1.412-2.297-3.965
			c0-2.588,1.004-4.013,2.414-4.013C92.719,139.299,93.552,140.748,93.552,143.205z M89.782,143.323c0,2.007,0.555,3.146,1.41,3.146
			c0.961,0,1.42-1.247,1.42-3.217c0-1.899-0.438-3.146-1.41-3.146C90.379,140.107,89.782,141.223,89.782,143.323z"/>
		<path fill="#004F63" d="M99.344,143.205c0,2.623-0.875,4.071-2.414,4.071c-1.356,0-2.275-1.412-2.297-3.965
			c0-2.588,1.004-4.013,2.414-4.013C98.511,139.299,99.344,140.748,99.344,143.205z M95.574,143.323c0,2.007,0.555,3.146,1.41,3.146
			c0.961,0,1.42-1.247,1.42-3.217c0-1.899-0.438-3.146-1.41-3.146C96.171,140.107,95.574,141.223,95.574,143.323z"/>
		<path fill="#004F63" d="M100.308,147.147v-0.642l0.737-0.795c1.773-1.876,2.574-2.873,2.584-4.036
			c0-0.784-0.342-1.508-1.377-1.508c-0.63,0-1.154,0.356-1.474,0.652l-0.299-0.735c0.481-0.451,1.165-0.784,1.965-0.784
			c1.496,0,2.126,1.14,2.126,2.244c0,1.425-0.93,2.576-2.393,4.144l-0.556,0.569v0.023h3.119v0.867H100.308z"/>
		<path fill="#004F63" d="M105.619,148.583c0.759-1.176,1.346-2.719,1.346-4.855c0-2.125-0.577-3.645-1.346-4.82h0.727
			c0.684,0.974,1.399,2.493,1.399,4.832c0,2.327-0.716,3.834-1.399,4.844H105.619z"/>
	</g>
	<g>
		<path fill="#004F63" d="M113.746,139.257h-0.012l-0.704,0.422l-0.106-0.464l0.884-0.526h0.467v4.503h-0.529V139.257z"/>
	</g>
	<g>
		<path fill="#006C84" d="M20.439,168.265c0.449-0.083,1.036-0.154,1.784-0.154c0.918,0,1.591,0.237,2.019,0.664
			c0.395,0.38,0.63,0.962,0.63,1.674c0,0.725-0.192,1.294-0.556,1.71c-0.491,0.582-1.292,0.879-2.2,0.879
			c-0.278,0-0.534-0.013-0.748-0.071v3.205h-0.93V168.265z M21.369,172.122c0.203,0.06,0.459,0.084,0.769,0.084
			c1.122,0,1.805-0.605,1.805-1.71c0-1.057-0.673-1.567-1.699-1.567c-0.406,0-0.715,0.036-0.875,0.084V172.122z"/>
		<path fill="#006C84" d="M25.996,172.218c0-0.677-0.011-1.259-0.043-1.793h0.823l0.032,1.128h0.043
			c0.235-0.771,0.801-1.259,1.431-1.259c0.107,0,0.182,0.013,0.267,0.036v0.985c-0.096-0.023-0.192-0.036-0.32-0.036
			c-0.663,0-1.132,0.559-1.26,1.342c-0.021,0.143-0.043,0.309-0.043,0.486v3.063h-0.929V172.218z"/>
		<path fill="#006C84" d="M30.634,168.811c0.01,0.356-0.225,0.641-0.598,0.641c-0.331,0-0.566-0.284-0.566-0.641
			c0-0.368,0.246-0.653,0.587-0.653C30.409,168.157,30.634,168.443,30.634,168.811z M29.587,176.171v-5.746h0.94v5.746H29.587z"/>
		<path fill="#006C84" d="M32.194,171.981c0-0.594-0.011-1.081-0.043-1.556h0.823l0.042,0.926h0.032
			c0.289-0.546,0.769-1.057,1.624-1.057c0.705,0,1.239,0.476,1.463,1.152h0.021c0.161-0.321,0.363-0.57,0.577-0.748
			c0.31-0.262,0.651-0.404,1.143-0.404c0.684,0,1.698,0.499,1.698,2.493v3.384h-0.918v-3.253c0-1.104-0.363-1.769-1.122-1.769
			c-0.534,0-0.95,0.438-1.111,0.949c-0.042,0.143-0.075,0.333-0.075,0.522v3.55h-0.918v-3.443c0-0.914-0.363-1.578-1.079-1.578
			c-0.588,0-1.015,0.522-1.165,1.044c-0.053,0.154-0.075,0.333-0.075,0.511v3.467h-0.918V171.981z"/>
		<path fill="#006C84" d="M44.076,176.171l-0.075-0.725h-0.032c-0.289,0.451-0.844,0.854-1.581,0.854
			c-1.047,0-1.581-0.818-1.581-1.649c0-1.39,1.111-2.149,3.108-2.137v-0.119c0-0.475-0.117-1.329-1.175-1.329
			c-0.48,0-0.982,0.166-1.346,0.427l-0.214-0.688c0.427-0.309,1.047-0.511,1.698-0.511c1.581,0,1.965,1.199,1.965,2.351v2.149
			c0,0.498,0.021,0.985,0.085,1.377H44.076z M43.937,173.238c-1.025-0.023-2.189,0.179-2.189,1.294c0,0.677,0.406,0.997,0.886,0.997
			c0.673,0,1.1-0.475,1.25-0.961c0.032-0.107,0.053-0.226,0.053-0.333V173.238z"/>
		<path fill="#006C84" d="M46.461,172.218c0-0.677-0.011-1.259-0.043-1.793h0.823l0.032,1.128h0.043
			c0.235-0.771,0.801-1.259,1.431-1.259c0.107,0,0.182,0.013,0.267,0.036v0.985c-0.096-0.023-0.192-0.036-0.32-0.036
			c-0.662,0-1.132,0.559-1.261,1.342c-0.021,0.143-0.042,0.309-0.042,0.486v3.063h-0.929V172.218z"/>
		<path fill="#006C84" d="M50.82,170.425l1.132,3.396c0.117,0.38,0.246,0.831,0.331,1.175h0.021
			c0.096-0.344,0.203-0.783,0.331-1.198l1.025-3.372h0.993l-1.41,4.096c-0.673,1.971-1.132,2.979-1.773,3.597
			c-0.459,0.451-0.918,0.63-1.153,0.677l-0.235-0.878c0.235-0.083,0.544-0.25,0.822-0.511c0.256-0.226,0.577-0.629,0.791-1.163
			c0.042-0.107,0.075-0.19,0.075-0.25c0-0.059-0.021-0.142-0.064-0.272l-1.912-5.295H50.82z"/>
		<path fill="#006C84" d="M58.504,173.487c0.021,1.413,0.833,1.995,1.773,1.995c0.673,0,1.079-0.131,1.431-0.297l0.16,0.748
			c-0.331,0.166-0.897,0.355-1.72,0.355c-1.591,0-2.542-1.163-2.542-2.896s0.919-3.099,2.425-3.099c1.688,0,2.136,1.65,2.136,2.707
			c0,0.214-0.021,0.38-0.032,0.486H58.504z M61.259,172.74c0.01-0.665-0.246-1.698-1.303-1.698c-0.951,0-1.367,0.974-1.442,1.698
			H61.259z"/>
		<path fill="#006C84" d="M63.43,171.981c0-0.594-0.011-1.081-0.043-1.556h0.833l0.053,0.95h0.021
			c0.256-0.547,0.854-1.081,1.709-1.081c0.715,0,1.826,0.476,1.826,2.446v3.431h-0.94v-3.313c0-0.926-0.31-1.697-1.196-1.697
			c-0.619,0-1.1,0.486-1.26,1.068c-0.042,0.131-0.064,0.309-0.064,0.486v3.455h-0.94V171.981z"/>
		<path fill="#006C84" d="M73.922,167.742v6.944c0,0.511,0.01,1.093,0.042,1.484h-0.844l-0.043-0.997h-0.021
			c-0.289,0.641-0.918,1.127-1.763,1.127c-1.25,0-2.211-1.175-2.211-2.92c-0.011-1.911,1.058-3.087,2.318-3.087
			c0.791,0,1.325,0.416,1.56,0.879h0.021v-3.431H73.922z M72.982,172.764c0-0.131-0.011-0.309-0.043-0.439
			c-0.139-0.665-0.651-1.211-1.356-1.211c-0.972,0-1.549,0.95-1.549,2.22c0,1.164,0.513,2.125,1.527,2.125
			c0.63,0,1.207-0.463,1.378-1.246c0.032-0.143,0.043-0.285,0.043-0.451V172.764z"/>
		<path fill="#006C84" d="M75.581,172.301c0-0.736-0.021-1.33-0.043-1.876h0.844l0.043,0.985h0.021
			c0.384-0.7,0.993-1.116,1.837-1.116c1.25,0,2.19,1.176,2.19,2.921c0,2.065-1.132,3.086-2.35,3.086
			c-0.684,0-1.282-0.332-1.591-0.901H76.51v3.122h-0.929V172.301z M76.51,173.832c0,0.154,0.021,0.297,0.042,0.428
			c0.171,0.724,0.737,1.223,1.41,1.223c0.993,0,1.57-0.902,1.57-2.221c0-1.151-0.545-2.137-1.538-2.137
			c-0.641,0-1.239,0.511-1.421,1.294c-0.032,0.131-0.064,0.285-0.064,0.428V173.832z"/>
		<path fill="#006C84" d="M86.435,173.25c0,2.125-1.324,3.051-2.574,3.051c-1.399,0-2.478-1.14-2.478-2.955
			c0-1.924,1.132-3.052,2.563-3.052C85.431,170.294,86.435,171.493,86.435,173.25z M82.334,173.31c0,1.259,0.651,2.208,1.57,2.208
			c0.897,0,1.57-0.938,1.57-2.231c0-0.974-0.438-2.208-1.548-2.208C82.814,171.078,82.334,172.218,82.334,173.31z"/>
		<path fill="#006C84" d="M88.767,168.811c0.01,0.356-0.225,0.641-0.598,0.641c-0.331,0-0.566-0.284-0.566-0.641
			c0-0.368,0.246-0.653,0.587-0.653C88.542,168.157,88.767,168.443,88.767,168.811z M87.72,176.171v-5.746h0.94v5.746H87.72z"/>
		<path fill="#006C84" d="M90.327,171.981c0-0.594-0.011-1.081-0.043-1.556h0.833l0.053,0.95h0.021
			c0.256-0.547,0.854-1.081,1.709-1.081c0.715,0,1.826,0.476,1.826,2.446v3.431h-0.94v-3.313c0-0.926-0.31-1.697-1.196-1.697
			c-0.619,0-1.1,0.486-1.26,1.068c-0.042,0.131-0.064,0.309-0.064,0.486v3.455h-0.94V171.981z"/>
		<path fill="#006C84" d="M97.487,168.775v1.65h1.346v0.796h-1.346v3.098c0,0.713,0.182,1.116,0.705,1.116
			c0.246,0,0.427-0.035,0.545-0.071l0.042,0.783c-0.181,0.084-0.47,0.143-0.833,0.143c-0.438,0-0.79-0.154-1.015-0.438
			c-0.267-0.31-0.363-0.819-0.363-1.496v-3.134h-0.801v-0.796h0.801v-1.377L97.487,168.775z"/>
		<path fill="#006C84" d="M99.774,171.375c0-0.439,0.267-0.748,0.641-0.748s0.62,0.309,0.63,0.748c0,0.415-0.246,0.735-0.641,0.735
			C100.031,172.111,99.774,171.79,99.774,171.375z M99.774,175.566c0-0.439,0.267-0.748,0.641-0.748s0.62,0.309,0.63,0.748
			c0,0.415-0.246,0.735-0.641,0.735C100.031,176.301,99.774,175.981,99.774,175.566z"/>
		<path fill="#006C84" d="M106.409,169.428h-0.021l-1.207,0.725l-0.182-0.796l1.517-0.902h0.801v7.717h-0.908V169.428z"/>
		<path fill="#006C84" d="M113.717,168.454v0.688l-3.023,7.028h-0.972l3.012-6.826v-0.023h-3.396v-0.867H113.717z"/>
		<path fill="#006C84" d="M117.918,170.627c0,1.626-0.769,2.434-1.667,2.434c-0.865,0-1.613-0.771-1.624-2.327
			c0-1.543,0.758-2.41,1.677-2.41C117.276,168.323,117.918,169.154,117.918,170.627z M115.376,170.698
			c-0.021,0.985,0.31,1.733,0.897,1.733c0.62,0,0.897-0.736,0.897-1.758c0-0.938-0.246-1.721-0.897-1.721
			C115.685,168.953,115.376,169.725,115.376,170.698z M116.187,176.301l4.08-7.978h0.598l-4.08,7.978H116.187z M122.436,173.82
			c0,1.626-0.769,2.434-1.656,2.434c-0.865,0-1.613-0.771-1.624-2.315c0-1.555,0.758-2.421,1.677-2.421
			C121.805,171.518,122.436,172.348,122.436,173.82z M119.894,173.892c-0.011,0.985,0.331,1.733,0.908,1.733
			c0.62,0,0.897-0.736,0.897-1.758c0-0.938-0.246-1.721-0.897-1.721C120.214,172.147,119.894,172.918,119.894,173.892z"/>
		<path fill="#006C84" d="M126.062,168.277c0.47-0.107,1.143-0.166,1.784-0.166c0.993,0,1.634,0.201,2.083,0.652
			c0.363,0.356,0.566,0.902,0.566,1.52c0,1.057-0.598,1.757-1.356,2.042v0.036c0.555,0.213,0.886,0.783,1.057,1.614
			c0.235,1.116,0.406,1.888,0.556,2.196h-0.961c-0.118-0.226-0.278-0.914-0.48-1.911c-0.214-1.104-0.599-1.52-1.442-1.556h-0.875
			v3.467h-0.929V168.277z M126.991,171.921h0.951c0.993,0,1.623-0.605,1.623-1.52c0-1.033-0.673-1.484-1.655-1.496
			c-0.449,0-0.769,0.048-0.918,0.095V171.921z"/>
		<path fill="#006C84" d="M131.918,168.277c0.47-0.107,1.143-0.166,1.784-0.166c0.993,0,1.634,0.201,2.083,0.652
			c0.363,0.356,0.566,0.902,0.566,1.52c0,1.057-0.598,1.757-1.357,2.042v0.036c0.556,0.213,0.887,0.783,1.058,1.614
			c0.235,1.116,0.406,1.888,0.556,2.196h-0.961c-0.118-0.226-0.278-0.914-0.481-1.911c-0.213-1.104-0.598-1.52-1.442-1.556h-0.875
			v3.467h-0.93V168.277z M132.847,171.921h0.95c0.994,0,1.624-0.605,1.624-1.52c0-1.033-0.673-1.484-1.656-1.496
			c-0.449,0-0.769,0.048-0.918,0.095V171.921z"/>
		<path fill="#006C84" d="M137.774,168.277c0.47-0.107,1.143-0.166,1.784-0.166c0.993,0,1.634,0.201,2.083,0.652
			c0.363,0.356,0.566,0.902,0.566,1.52c0,1.057-0.598,1.757-1.356,2.042v0.036c0.555,0.213,0.886,0.783,1.057,1.614
			c0.235,1.116,0.406,1.888,0.556,2.196h-0.961c-0.118-0.226-0.278-0.914-0.48-1.911c-0.214-1.104-0.599-1.52-1.442-1.556h-0.875
			v3.467h-0.929V168.277z M138.703,171.921h0.951c0.993,0,1.623-0.605,1.623-1.52c0-1.033-0.673-1.484-1.655-1.496
			c-0.449,0-0.769,0.048-0.918,0.095V171.921z"/>
	</g>
	<g>
		<path fill="#006C84" d="M37.194,182.004c0.01,0.356-0.225,0.641-0.598,0.641c-0.331,0-0.566-0.284-0.566-0.641
			c0-0.368,0.246-0.653,0.587-0.653C36.97,181.351,37.194,181.636,37.194,182.004z M36.148,189.364v-5.746h0.94v5.746H36.148z"/>
		<path fill="#006C84" d="M38.755,185.174c0-0.594-0.011-1.081-0.043-1.556h0.833l0.053,0.95h0.021
			c0.256-0.547,0.854-1.081,1.709-1.081c0.715,0,1.826,0.476,1.826,2.446v3.431h-0.94v-3.313c0-0.926-0.31-1.697-1.196-1.697
			c-0.619,0-1.1,0.486-1.26,1.068c-0.042,0.131-0.064,0.309-0.064,0.486v3.455h-0.94V185.174z"/>
		<path fill="#006C84" d="M47.154,185.494c0-0.736-0.021-1.33-0.043-1.876h0.844l0.042,0.985h0.021
			c0.384-0.7,0.993-1.116,1.837-1.116c1.25,0,2.19,1.176,2.19,2.921c0,2.065-1.132,3.086-2.35,3.086
			c-0.684,0-1.282-0.332-1.591-0.901h-0.021v3.122h-0.929V185.494z M48.084,187.026c0,0.154,0.021,0.297,0.043,0.428
			c0.171,0.724,0.737,1.223,1.41,1.223c0.993,0,1.57-0.902,1.57-2.221c0-1.151-0.545-2.137-1.538-2.137
			c-0.641,0-1.239,0.511-1.421,1.294c-0.032,0.131-0.064,0.285-0.064,0.428V187.026z"/>
		<path fill="#006C84" d="M53.331,185.411c0-0.677-0.011-1.259-0.043-1.793h0.823l0.032,1.128h0.043
			c0.235-0.771,0.801-1.259,1.431-1.259c0.107,0,0.182,0.013,0.267,0.036v0.985c-0.096-0.023-0.192-0.036-0.32-0.036
			c-0.662,0-1.132,0.559-1.261,1.342c-0.021,0.143-0.042,0.309-0.042,0.486v3.063h-0.929V185.411z"/>
		<path fill="#006C84" d="M57.968,182.004c0.011,0.356-0.225,0.641-0.598,0.641c-0.332,0-0.566-0.284-0.566-0.641
			c0-0.368,0.246-0.653,0.587-0.653C57.744,181.351,57.968,181.636,57.968,182.004z M56.921,189.364v-5.746h0.94v5.746H56.921z"/>
		<path fill="#006C84" d="M59.529,185.174c0-0.594-0.011-1.081-0.043-1.556h0.823l0.042,0.926h0.032
			c0.288-0.546,0.769-1.057,1.624-1.057c0.705,0,1.239,0.476,1.463,1.152h0.021c0.16-0.321,0.363-0.57,0.577-0.748
			c0.31-0.262,0.651-0.404,1.143-0.404c0.684,0,1.699,0.499,1.699,2.493v3.384h-0.919v-3.253c0-1.104-0.363-1.769-1.122-1.769
			c-0.534,0-0.951,0.438-1.111,0.949c-0.042,0.143-0.075,0.333-0.075,0.522v3.55h-0.918v-3.443c0-0.914-0.363-1.578-1.079-1.578
			c-0.587,0-1.015,0.522-1.165,1.044c-0.053,0.154-0.075,0.333-0.075,0.511v3.467h-0.918V185.174z"/>
		<path fill="#006C84" d="M71.41,189.364l-0.075-0.725h-0.032c-0.289,0.451-0.844,0.854-1.581,0.854
			c-1.047,0-1.581-0.818-1.581-1.649c0-1.39,1.111-2.149,3.108-2.137v-0.119c0-0.475-0.117-1.329-1.175-1.329
			c-0.48,0-0.983,0.166-1.346,0.427l-0.214-0.688c0.427-0.309,1.047-0.511,1.698-0.511c1.581,0,1.965,1.199,1.965,2.351v2.149
			c0,0.498,0.021,0.985,0.085,1.377H71.41z M71.272,186.432c-1.025-0.023-2.189,0.179-2.189,1.294c0,0.677,0.406,0.997,0.886,0.997
			c0.673,0,1.1-0.475,1.25-0.961c0.032-0.107,0.053-0.226,0.053-0.333V186.432z"/>
		<path fill="#006C84" d="M73.795,185.411c0-0.677-0.011-1.259-0.043-1.793h0.823l0.032,1.128h0.043
			c0.235-0.771,0.801-1.259,1.431-1.259c0.107,0,0.182,0.013,0.267,0.036v0.985c-0.096-0.023-0.192-0.036-0.32-0.036
			c-0.663,0-1.132,0.559-1.26,1.342c-0.021,0.143-0.043,0.309-0.043,0.486v3.063h-0.929V185.411z"/>
		<path fill="#006C84" d="M78.166,183.618l1.132,3.396c0.117,0.38,0.246,0.831,0.331,1.175h0.021
			c0.096-0.344,0.203-0.783,0.332-1.198l1.025-3.372H82l-1.41,4.096c-0.673,1.971-1.132,2.979-1.773,3.597
			c-0.459,0.451-0.918,0.63-1.153,0.677l-0.235-0.878c0.235-0.083,0.545-0.25,0.823-0.511c0.256-0.226,0.577-0.629,0.791-1.163
			c0.042-0.107,0.075-0.19,0.075-0.25c0-0.059-0.021-0.142-0.064-0.272l-1.912-5.295H78.166z"/>
		<path fill="#006C84" d="M90.388,189.103c-0.342,0.19-1.025,0.38-1.901,0.38c-2.029,0-3.557-1.424-3.557-4.048
			c0-2.505,1.527-4.202,3.76-4.202c0.897,0,1.463,0.214,1.709,0.355l-0.225,0.844c-0.353-0.19-0.854-0.333-1.453-0.333
			c-1.688,0-2.809,1.199-2.809,3.301c0,1.958,1.015,3.217,2.767,3.217c0.566,0,1.143-0.131,1.517-0.332L90.388,189.103z"/>
		<path fill="#006C84" d="M93.243,189.364l-2.35-8.002h1.004l1.122,3.941c0.31,1.081,0.577,2.054,0.769,2.992h0.021
			c0.203-0.926,0.502-1.936,0.823-2.98l1.217-3.953h0.994l-2.574,8.002H93.243z"/>
		<path fill="#006C84" d="M100.585,186.681c0.021,1.413,0.833,1.995,1.773,1.995c0.673,0,1.079-0.131,1.431-0.297l0.16,0.748
			c-0.331,0.166-0.897,0.355-1.719,0.355c-1.592,0-2.542-1.163-2.542-2.896s0.918-3.099,2.425-3.099c1.688,0,2.136,1.65,2.136,2.707
			c0,0.214-0.021,0.38-0.032,0.486H100.585z M103.34,185.934c0.011-0.665-0.246-1.698-1.303-1.698c-0.951,0-1.367,0.974-1.442,1.698
			H103.34z"/>
		<path fill="#006C84" d="M105.683,183.618l1.015,3.229c0.171,0.522,0.31,0.997,0.417,1.472h0.032
			c0.117-0.475,0.267-0.949,0.438-1.472l1.004-3.229h0.982l-2.029,5.746h-0.897l-1.965-5.746H105.683z"/>
		<path fill="#006C84" d="M110.876,186.681c0.021,1.413,0.833,1.995,1.773,1.995c0.673,0,1.079-0.131,1.431-0.297l0.16,0.748
			c-0.331,0.166-0.897,0.355-1.719,0.355c-1.592,0-2.542-1.163-2.542-2.896s0.918-3.099,2.425-3.099c1.688,0,2.136,1.65,2.136,2.707
			c0,0.214-0.021,0.38-0.032,0.486H110.876z M113.631,185.934c0.011-0.665-0.246-1.698-1.303-1.698
			c-0.951,0-1.367,0.974-1.442,1.698H113.631z"/>
		<path fill="#006C84" d="M115.802,185.174c0-0.594-0.011-1.081-0.043-1.556h0.833l0.053,0.95h0.021
			c0.256-0.547,0.854-1.081,1.709-1.081c0.715,0,1.826,0.476,1.826,2.446v3.431h-0.94v-3.313c0-0.926-0.31-1.697-1.196-1.697
			c-0.619,0-1.1,0.486-1.26,1.068c-0.042,0.131-0.064,0.309-0.064,0.486v3.455h-0.94V185.174z"/>
		<path fill="#006C84" d="M122.962,181.968v1.65h1.346v0.796h-1.346v3.098c0,0.713,0.181,1.116,0.705,1.116
			c0.246,0,0.427-0.035,0.545-0.071l0.043,0.783c-0.182,0.084-0.47,0.143-0.833,0.143c-0.438,0-0.791-0.154-1.015-0.438
			c-0.267-0.31-0.363-0.819-0.363-1.496v-3.134h-0.801v-0.796h0.801v-1.377L122.962,181.968z"/>
		<path fill="#006C84" d="M125.335,188.296c0.278,0.201,0.769,0.415,1.239,0.415c0.684,0,1.004-0.38,1.004-0.854
			c0-0.499-0.267-0.771-0.961-1.057c-0.929-0.368-1.367-0.938-1.367-1.626c0-0.927,0.673-1.687,1.784-1.687
			c0.523,0,0.983,0.167,1.271,0.356l-0.235,0.76c-0.203-0.143-0.577-0.332-1.057-0.332c-0.556,0-0.865,0.355-0.865,0.783
			c0,0.475,0.31,0.688,0.982,0.974c0.897,0.38,1.357,0.878,1.357,1.733c0,1.009-0.705,1.721-1.934,1.721
			c-0.566,0-1.089-0.154-1.453-0.392L125.335,188.296z"/>
	</g>
	<g>
		<path fill="#006C84" d="M137.886,180.741l-0.05,1.461l1.083-0.048v0.498l-1.083-0.055l0.05,3.158h-0.51l0.05-3.158l-1.083,0.055
			v-0.498l1.083,0.048l-0.05-1.461H137.886z"/>
	</g>
	<g>
		<path fill="#006C84" d="M67.008,194.318c-0.78,1.164-1.346,2.707-1.346,4.855c0,2.113,0.587,3.633,1.346,4.82h-0.737
			c-0.673-0.985-1.399-2.505-1.399-4.82c0.011-2.339,0.727-3.858,1.399-4.855H67.008z"/>
	</g>
	<g>
		<path fill="#006C84" d="M68.047,198.687c0-0.736-0.021-1.33-0.043-1.876h0.844l0.042,0.985h0.021
			c0.384-0.7,0.993-1.116,1.837-1.116c1.25,0,2.19,1.176,2.19,2.921c0,2.065-1.132,3.086-2.35,3.086
			c-0.684,0-1.282-0.332-1.591-0.901h-0.021v3.122h-0.929V198.687z M68.976,200.218c0,0.154,0.021,0.297,0.043,0.428
			c0.171,0.724,0.737,1.223,1.41,1.223c0.993,0,1.57-0.902,1.57-2.221c0-1.151-0.545-2.137-1.538-2.137
			c-0.641,0-1.239,0.511-1.421,1.294c-0.032,0.131-0.064,0.285-0.064,0.428V200.218z"/>
	</g>
	<g>
		<path fill="#006C84" d="M73.742,198.556v-0.712h5.511v0.712H73.742z M73.742,200.883v-0.713h5.511v0.713H73.742z"/>
		<path fill="#006C84" d="M84.886,198.615c0,2.623-0.875,4.071-2.414,4.071c-1.356,0-2.275-1.412-2.297-3.965
			c0-2.588,1.004-4.013,2.414-4.013C84.053,194.709,84.886,196.158,84.886,198.615z M81.116,198.734c0,2.007,0.555,3.146,1.41,3.146
			c0.961,0,1.42-1.247,1.42-3.217c0-1.899-0.438-3.146-1.41-3.146C81.713,195.517,81.116,196.633,81.116,198.734z"/>
		<path fill="#006C84" d="M85.924,201.94c0-0.439,0.267-0.748,0.641-0.748s0.63,0.309,0.63,0.748c0,0.427-0.246,0.747-0.641,0.747
			C86.181,202.687,85.924,202.366,85.924,201.94z"/>
		<path fill="#006C84" d="M92.782,198.615c0,2.623-0.875,4.071-2.414,4.071c-1.356,0-2.275-1.412-2.297-3.965
			c0-2.588,1.004-4.013,2.414-4.013C91.949,194.709,92.782,196.158,92.782,198.615z M89.012,198.734c0,2.007,0.555,3.146,1.41,3.146
			c0.961,0,1.42-1.247,1.42-3.217c0-1.899-0.438-3.146-1.41-3.146C89.61,195.517,89.012,196.633,89.012,198.734z"/>
		<path fill="#006C84" d="M93.747,202.557v-0.642l0.737-0.795c1.773-1.876,2.574-2.873,2.585-4.036c0-0.784-0.342-1.508-1.378-1.508
			c-0.63,0-1.154,0.356-1.474,0.652l-0.299-0.735c0.481-0.451,1.165-0.784,1.965-0.784c1.496,0,2.125,1.14,2.125,2.244
			c0,1.425-0.929,2.576-2.393,4.144l-0.555,0.569v0.023h3.119v0.867H93.747z"/>
		<path fill="#006C84" d="M103.288,195.576c-0.192-0.012-0.438,0-0.705,0.048c-1.474,0.272-2.253,1.472-2.414,2.742h0.032
			c0.331-0.487,0.908-0.891,1.677-0.891c1.229,0,2.094,0.985,2.094,2.493c0,1.412-0.865,2.718-2.307,2.718
			c-1.485,0-2.457-1.281-2.457-3.288c0-1.52,0.491-2.719,1.175-3.479c0.577-0.629,1.346-1.021,2.222-1.14
			c0.278-0.047,0.513-0.059,0.684-0.059V195.576z M103.021,200.027c0-1.104-0.566-1.769-1.431-1.769
			c-0.566,0-1.089,0.392-1.346,0.95c-0.064,0.118-0.107,0.272-0.107,0.463c0.021,1.271,0.544,2.208,1.527,2.208
			C102.476,201.88,103.021,201.132,103.021,200.027z"/>
		<path fill="#006C84" d="M104.636,203.993c0.758-1.176,1.346-2.719,1.346-4.855c0-2.125-0.577-3.645-1.346-4.82h0.726
			c0.684,0.974,1.399,2.493,1.399,4.832c0,2.327-0.716,3.834-1.399,4.844H104.636z"/>
	</g>
</g>
</svg>
