<?xml version="1.0" encoding="utf-8"?>
<!-- Generator: Adobe Illustrator 17.0.0, SVG Export Plug-In . SVG Version: 6.00 Build 0)  -->
<!DOCTYPE svg PUBLIC "-//W3C//DTD SVG 1.1//EN" "http://www.w3.org/Graphics/SVG/1.1/DTD/svg11.dtd">
<svg version="1.1" id="Layer_1" xmlns="http://www.w3.org/2000/svg" xmlns:xlink="http://www.w3.org/1999/xlink" x="0px" y="0px"
	 width="779.939px" height="37.54px" viewBox="0 0 779.939 37.54" enable-background="new 0 0 779.939 37.54" xml:space="preserve">
<g>
	<g>
		<path fill="#00435B" d="M0.747,0.68h4.203c1.528,0,2.57,0.087,3.42,1.007C8.995,2.329,9.29,3.18,9.29,4.118
			c0,0.955-0.313,1.771-0.99,2.449c-0.66,0.66-1.528,1.076-3.785,1.076H2.483v5.574H0.747V0.68z M2.483,6.184H4.55
			c1.146,0,2.9-0.087,2.9-2.136c0-1.962-1.632-1.962-2.535-1.962H2.483V6.184z"/>
		<path fill="#00435B" d="M11.319,0.68h4.48c0.643,0,1.962,0,2.883,0.59c0.938,0.59,1.389,1.545,1.389,2.553
			c0,0.885-0.33,1.667-0.886,2.223c-0.538,0.538-1.094,0.712-1.476,0.816c1.198,0.313,1.737,0.851,1.91,2.414
			c0.174,1.476,0.295,2.553,0.782,3.942h-1.858c-0.278-0.833-0.451-2.361-0.573-3.316c-0.208-1.823-0.643-2.344-2.744-2.344h-2.188
			v5.661h-1.719V0.68z M13.004,6.08h2.744c0.191,0,1.181,0,1.649-0.278c0.243-0.139,0.851-0.59,0.851-1.632
			c0-2.032-1.806-2.032-2.5-2.032h-2.744V6.08z"/>
		<path fill="#00435B" d="M24.045,2.034c1.302-1.407,3.021-1.685,4.185-1.685c3.473,0,5.661,2.223,5.661,6.477
			c0,3.334-1.337,6.686-5.799,6.686c-4.272,0-5.661-3.039-5.661-6.477C22.43,5.611,22.673,3.51,24.045,2.034z M25.365,10.89
			c0.712,0.885,1.789,1.146,2.778,1.146c1.024,0,2.049-0.278,2.778-1.146c1.024-1.25,1.129-3.23,1.129-4.081
			c0-2.848-0.938-5.001-3.803-5.001c-3.178,0-3.994,2.553-3.994,5.123C24.253,8.303,24.497,9.813,25.365,10.89z"/>
		<path fill="#00435B" d="M40.851,13.217h-1.91L34.479,0.68h1.927l3.56,10.714l3.75-10.714h1.754L40.851,13.217z"/>
		<path fill="#00435B" d="M47.135,0.68h7.866v1.476h-6.13v3.907h5.834v1.459h-5.834v4.167h6.269v1.528h-8.005V0.68z"/>
		<path fill="#00435B" d="M57.152,7.99h4.358V9.31h-4.358V7.99z"/>
		<path fill="#00435B" d="M63.731,0.68h1.737v12.537h-1.737V0.68z"/>
		<path fill="#00435B" d="M71.596,13.217V2.156h-4.202V0.68h10.124v1.476h-4.202v11.061H71.596z"/>
		<path fill="#00435B" d="M78.687,2.094C78.687,1.265,78.838,0,81.003,0c0.961,0,2.145,0.324,2.145,1.507
			c0,0.496-0.192,0.759-0.546,1.021c-0.557,0.425-0.698,0.537-0.698,0.82c0,0.182,0.111,0.333,0.263,0.435l0.88,0.577
			c0.678,0.435,0.911,0.799,0.911,1.396c0,1.133-0.931,1.77-1.983,1.77c-0.566,0-1.265-0.151-1.538-0.809
			c-0.122-0.304-0.122-0.536-0.122-0.739h0.931c-0.01,0.557,0.333,0.84,0.819,0.84c0.749,0,0.931-0.577,0.931-0.911
			c0-0.536-0.354-0.769-0.688-0.981l-0.607-0.375c-0.516-0.313-0.769-0.627-0.769-1.072c0-0.577,0.385-0.86,0.84-1.204
			c0.273-0.202,0.445-0.333,0.445-0.698c0-0.506-0.375-0.931-1.255-0.931c-0.951,0-1.325,0.415-1.325,1.477v5.311h-0.951V2.094z"/>
		<path fill="#00435B" d="M86.049,4.413h1.927v2.049h-1.927V4.413z M86.049,11.168h1.927v2.049h-1.927V11.168z"/>
		<path fill="#00435B" d="M98.845,0.68h1.858l5.07,12.537h-1.893l-1.354-3.265h-5.817l-1.354,3.265h-1.789L98.845,0.68z
			 M97.265,8.546h4.74l-2.309-6.147L97.265,8.546z"/>
		<path fill="#00435B" d="M106.135,4.465h1.545V2.642l1.615-0.521v2.344h1.945v1.198h-1.945v5.227c0,0.434,0,1.163,1.163,1.163
			c0.33,0,0.643-0.052,0.782-0.086v1.268c-0.295,0.052-0.764,0.104-1.354,0.104c-1.494,0-2.206-0.434-2.206-1.858V5.663h-1.545
			V4.465z"/>
		<path fill="#00435B" d="M117.038,4.274c3.49,0,4.272,2.744,4.272,4.567c0,2.553-1.441,4.671-4.411,4.671
			c-2.883,0-4.289-1.997-4.289-4.55C112.61,6.809,113.617,4.274,117.038,4.274z M116.934,12.296c1.233,0,2.639-0.885,2.639-3.507
			c0-2.171-1.007-3.317-2.535-3.317c-1.042,0-2.726,0.66-2.726,3.386C114.312,10.647,115.076,12.296,116.934,12.296z"/>
		<path fill="#00435B" d="M123.947,6.271c0-0.59-0.035-1.198-0.087-1.771h1.65l0.035,1.684c0.313-1.215,1.354-1.615,2.084-1.719
			c0.486-0.069,0.851-0.052,1.128-0.035v1.598c-0.087-0.035-0.191-0.052-0.313-0.069c-0.122-0.018-0.278-0.018-0.469-0.018
			c-1.928,0-2.379,1.146-2.379,2.64v4.636h-1.65V6.271z"/>
		<path fill="#00435B" d="M129.294,4.5h1.823l2.778,6.911l2.709-6.911h1.806l-3.82,8.717h-1.649L129.294,4.5z"/>
		<path fill="#00435B" d="M145.58,13.217c-0.122-0.434-0.156-0.851-0.156-1.302c-0.782,1.441-1.962,1.58-2.692,1.58
			c-1.997,0-3.073-1.129-3.073-2.57c0-0.695,0.243-1.806,1.528-2.553c0.938-0.521,2.327-0.573,3.021-0.573
			c0.417,0,0.677,0.018,1.181,0.052c0-1.077,0-1.545-0.313-1.927c-0.33-0.434-1.042-0.573-1.511-0.573
			c-1.649,0-1.736,1.129-1.753,1.476h-1.632c0.052-0.452,0.104-1.059,0.607-1.649c0.66-0.729,1.893-0.938,2.813-0.938
			c1.268,0,2.622,0.399,3.091,1.285c0.278,0.521,0.295,0.938,0.295,1.337l-0.069,4.167c0,0.139,0.018,1.302,0.139,2.188H145.58z
			 M144.451,8.928c-0.66,0-3.143,0-3.143,1.771c0,0.556,0.347,1.511,1.806,1.511c0.833,0,1.458-0.33,1.858-0.938
			c0.365-0.59,0.382-1.077,0.417-2.292C145.093,8.945,144.85,8.928,144.451,8.928z"/>
		<path fill="#00435B" d="M150.856,10.629c-0.018,0.66,0.33,1.58,1.91,1.58c0.677,0,1.181-0.122,1.528-0.556
			c0.174-0.226,0.278-0.521,0.278-0.816c0-0.851-0.607-1.007-1.91-1.302c-1.823-0.417-3.351-0.782-3.351-2.605
			c0-1.597,1.389-2.639,3.403-2.639c1.094,0,2.622,0.313,3.143,1.354c0.226,0.486,0.226,0.903,0.226,1.268h-1.667
			c0.052-1.32-1.094-1.424-1.684-1.424c-0.243,0-1.771,0-1.771,1.25c0,0.799,0.782,0.99,1.233,1.111
			c2.414,0.573,2.935,0.712,3.456,1.198c0.486,0.452,0.66,1.059,0.66,1.615c0,0.973-0.539,1.806-1.181,2.206
			c-0.764,0.469-1.684,0.59-2.587,0.59c-1.771,0-3.42-0.729-3.403-2.831H150.856z"/>
		<path fill="#00435B" d="M157.262,4.465h1.545V2.642l1.615-0.521v2.344h1.945v1.198h-1.945v5.227c0,0.434,0,1.163,1.163,1.163
			c0.33,0,0.643-0.052,0.782-0.086v1.268c-0.295,0.052-0.764,0.104-1.354,0.104c-1.494,0-2.206-0.434-2.206-1.858V5.663h-1.545
			V4.465z"/>
		<path fill="#00435B" d="M169.694,13.217c-0.122-0.434-0.156-0.851-0.156-1.302c-0.782,1.441-1.962,1.58-2.692,1.58
			c-1.997,0-3.073-1.129-3.073-2.57c0-0.695,0.243-1.806,1.528-2.553c0.938-0.521,2.327-0.573,3.021-0.573
			c0.417,0,0.677,0.018,1.181,0.052c0-1.077,0-1.545-0.313-1.927c-0.33-0.434-1.042-0.573-1.511-0.573
			c-1.649,0-1.736,1.129-1.753,1.476h-1.632c0.052-0.452,0.104-1.059,0.607-1.649c0.66-0.729,1.893-0.938,2.813-0.938
			c1.268,0,2.622,0.399,3.091,1.285c0.278,0.521,0.295,0.938,0.295,1.337l-0.069,4.167c0,0.139,0.018,1.302,0.139,2.188H169.694z
			 M168.565,8.928c-0.66,0-3.143,0-3.143,1.771c0,0.556,0.347,1.511,1.806,1.511c0.833,0,1.458-0.33,1.858-0.938
			c0.365-0.59,0.382-1.077,0.417-2.292C169.208,8.945,168.964,8.928,168.565,8.928z"/>
		<path fill="#00435B" d="M172.695,4.465h1.545V2.642l1.615-0.521v2.344h1.945v1.198h-1.945v5.227c0,0.434,0,1.163,1.163,1.163
			c0.33,0,0.643-0.052,0.782-0.086v1.268c-0.295,0.052-0.764,0.104-1.354,0.104c-1.494,0-2.206-0.434-2.206-1.858V5.663h-1.545
			V4.465z"/>
		<path fill="#00435B" d="M179.657,0.714h1.962v1.789h-1.962V0.714z M179.831,4.5h1.632v8.717h-1.632V4.5z"/>
		<path fill="#00435B" d="M184.692,5.507L184.675,4.5h1.632l0.017,1.406c0.191-0.365,0.816-1.58,2.796-1.58
			c0.781,0,3.16,0.295,3.16,2.969v5.921h-1.667V7.678c0-0.573-0.069-1.094-0.469-1.494c-0.417-0.399-0.99-0.59-1.545-0.59
			c-1.181,0-2.275,0.851-2.275,2.604v5.019h-1.632V5.507z"/>
		<path fill="#00435B" d="M199.431,4.205c0-1.077,0.729-3.282,3.89-3.282c2.535,0,3.994,1.372,3.994,3.212
			c0,1.181-0.764,2.414-2.448,2.726c0.712,0.191,2.622,0.712,2.622,3.039c0,1.649-1.146,3.525-4.133,3.525
			c-1.024,0-2.24-0.208-3.108-1.007c-0.643-0.59-1.059-1.493-1.059-2.414c0-0.799,0.313-1.632,0.92-2.206
			c0.573-0.573,1.198-0.747,1.736-0.92C200.247,6.531,199.431,5.403,199.431,4.205z M203.355,12.053
			c1.927,0,2.396-1.354,2.396-2.257c0-1.337-0.99-2.205-2.361-2.205c-1.476,0-2.448,0.99-2.448,2.257
			C200.942,10.786,201.567,12.053,203.355,12.053z M203.39,2.208c-1.285,0-2.275,0.764-2.275,1.962c0,1.164,0.973,1.945,2.223,1.945
			c1.32,0,2.31-0.764,2.31-1.945C205.647,3.076,204.832,2.208,203.39,2.208z"/>
		<path fill="#00435B" d="M212.991,0.958c3.595,0,4.029,3.855,4.029,6.112c0,2.848-0.573,4.445-1.667,5.47
			c-0.851,0.799-1.858,0.92-2.396,0.92c-1.598,0-2.691-0.938-3.212-1.997c-0.399-0.799-0.781-1.962-0.781-4.115
			C208.962,5.559,209.17,0.958,212.991,0.958z M212.974,12.019c2.014,0,2.361-2.639,2.361-4.792c0-2.882-0.503-4.879-2.327-4.879
			c-2.101,0-2.379,2.761-2.379,4.914C210.629,9.935,211.15,12.019,212.974,12.019z"/>
		<path fill="#00435B" d="M224.188,5.663L224.153,4.5h1.649v1.268c0.833-1.372,2.014-1.494,2.761-1.494
			c1.927,0,2.535,0.99,2.848,1.632c0.295-0.486,1.007-1.632,2.935-1.632c1.25,0,3.195,0.521,3.195,3.091v5.852h-1.65V7.625
			c0-0.764-0.139-1.094-0.295-1.32c-0.277-0.399-0.833-0.764-1.667-0.764c-1.059,0-1.632,0.608-1.858,0.92
			c-0.382,0.539-0.382,1.494-0.382,1.875v4.879h-1.65V7.452c0-1.077-0.625-1.91-1.91-1.91c-1.111,0-1.719,0.695-1.91,0.955
			c-0.365,0.504-0.382,1.216-0.382,1.771v4.949h-1.649V5.663z"/>
		<path fill="#00435B" d="M242.156,13.894c0.069,0.972,0.486,1.702,2.032,1.702c2.275,0,2.31-1.649,2.31-4.011
			c-0.695,1.441-2.344,1.476-2.865,1.476c-0.799,0-1.945-0.174-2.674-1.077c-0.747-0.886-0.99-2.049-0.99-3.212
			c0-2.952,1.736-4.393,3.873-4.393c1.753,0,2.396,0.868,2.744,1.319l0.017-1.198h1.58l-0.035,1.58l-0.017,5.452
			c0,2.102-0.07,2.952-0.417,3.612c-0.729,1.389-2.431,1.563-3.629,1.563c-3.491,0-3.595-1.632-3.664-2.813H242.156z
			 M245.959,10.977c0.348-0.451,0.59-0.92,0.59-2.5c0-1.094-0.243-1.719-0.677-2.17c-0.435-0.469-1.129-0.764-1.875-0.764
			c-2.066,0-2.344,2.084-2.344,3.195c0,1.337,0.399,3.108,2.396,3.108C245.004,11.845,245.56,11.498,245.959,10.977z"/>
		<path fill="#00435B" d="M256.114,6.271c0-0.59-0.035-1.198-0.087-1.771h1.65l0.035,1.684c0.313-1.215,1.354-1.615,2.084-1.719
			c0.486-0.069,0.851-0.052,1.128-0.035v1.598c-0.087-0.035-0.191-0.052-0.313-0.069c-0.122-0.018-0.278-0.018-0.469-0.018
			c-1.928,0-2.379,1.146-2.379,2.64v4.636h-1.65V6.271z"/>
		<path fill="#00435B" d="M263.771,9.153c-0.035,1.806,0.712,3.143,2.5,3.143c1.059,0,1.91-0.556,2.049-1.806h1.632
			c-0.052,0.434-0.122,1.146-0.747,1.823c-0.382,0.434-1.25,1.163-3.004,1.163c-2.744,0-4.046-1.702-4.046-4.462
			c0-1.719,0.347-3.143,1.719-4.098c0.833-0.59,1.875-0.643,2.379-0.643c3.907,0,3.82,3.456,3.786,4.879H263.771z M268.372,8.007
			c0.017-0.833-0.139-2.57-2.153-2.57c-1.059,0-2.344,0.643-2.379,2.57H268.372z"/>
		<path fill="#00435B" d="M278.476,0.697h1.632v11.131c0,0.191,0.035,0.938,0.069,1.389h-1.632l-0.035-1.389
			c-0.139,0.243-0.33,0.608-0.781,0.92c-0.712,0.486-1.563,0.643-2.153,0.643c-1.163,0-3.75-0.608-3.75-4.428
			c0-3.316,1.893-4.758,3.942-4.758c1.875,0,2.5,1.111,2.708,1.476V0.697z M277.868,6.306c-0.348-0.451-0.99-0.886-1.91-0.886
			c-2.396,0-2.396,2.9-2.396,3.49c0,1.546,0.399,3.334,2.396,3.334c2.57,0,2.57-2.83,2.57-3.507
			C278.528,7.469,278.232,6.774,277.868,6.306z"/>
		<path fill="#00435B" d="M284.534,4.5v5.608c0,0.851,0.191,1.928,1.858,1.928c0.816,0,1.58-0.278,2.049-0.973
			c0.365-0.521,0.365-1.198,0.365-1.632V4.5h1.685v7.084c0,0.174,0.035,1.146,0.052,1.632h-1.702l-0.035-1.493
			c-0.313,0.607-0.903,1.58-2.778,1.58c-2.153,0-3.16-1.233-3.16-2.952V4.5H284.534z"/>
		<path fill="#00435B" d="M298.614,7.295c-0.035-0.399-0.156-1.823-1.736-1.823c-2.257,0-2.257,2.622-2.257,3.282
			c0,1.789,0.434,3.456,2.17,3.456c1.389,0,1.858-1.042,1.893-1.893h1.649c-0.104,1.702-1.372,3.125-3.525,3.125
			c-0.59,0-1.945-0.122-2.865-1.128c-0.521-0.608-1.042-1.528-1.042-3.334c0-3.629,2.223-4.706,3.959-4.706
			c0.573,0,1.875,0.122,2.674,1.077c0.643,0.747,0.695,1.458,0.729,1.945H298.614z"/>
		<path fill="#00435B" d="M303.318,9.153c-0.035,1.806,0.712,3.143,2.5,3.143c1.059,0,1.91-0.556,2.049-1.806h1.632
			c-0.052,0.434-0.122,1.146-0.747,1.823c-0.382,0.434-1.25,1.163-3.004,1.163c-2.744,0-4.046-1.702-4.046-4.462
			c0-1.719,0.347-3.143,1.719-4.098c0.833-0.59,1.875-0.643,2.379-0.643c3.907,0,3.82,3.456,3.786,4.879H303.318z M307.92,8.007
			c0.017-0.833-0.139-2.57-2.153-2.57c-1.059,0-2.344,0.643-2.379,2.57H307.92z"/>
		<path fill="#00435B" d="M318.023,0.697h1.632v11.131c0,0.191,0.035,0.938,0.069,1.389h-1.632l-0.035-1.389
			c-0.139,0.243-0.33,0.608-0.781,0.92c-0.712,0.486-1.563,0.643-2.153,0.643c-1.163,0-3.75-0.608-3.75-4.428
			c0-3.316,1.893-4.758,3.942-4.758c1.875,0,2.5,1.111,2.708,1.476V0.697z M317.416,6.306c-0.348-0.451-0.99-0.886-1.91-0.886
			c-2.396,0-2.396,2.9-2.396,3.49c0,1.546,0.399,3.334,2.396,3.334c2.57,0,2.57-2.83,2.57-3.507
			C318.076,7.469,317.78,6.774,317.416,6.306z"/>
		<path fill="#00435B" d="M326.077,4.465h1.545V2.642l1.615-0.521v2.344h1.945v1.198h-1.945v5.227c0,0.434,0,1.163,1.163,1.163
			c0.33,0,0.643-0.052,0.782-0.086v1.268c-0.295,0.052-0.764,0.104-1.354,0.104c-1.494,0-2.206-0.434-2.206-1.858V5.663h-1.545
			V4.465z"/>
		<path fill="#00435B" d="M333.196,0.697h1.649v5.088c0.538-0.92,1.615-1.441,2.831-1.441c0.92,0,2.24,0.33,2.744,1.389
			c0.173,0.347,0.295,0.764,0.295,2.031v5.453h-1.667V8.06c0-0.781,0-2.466-1.875-2.466c-1.215,0-1.823,0.747-2.049,1.164
			c-0.278,0.486-0.278,1.302-0.278,1.84v4.619h-1.649V0.697z"/>
		<path fill="#00435B" d="M344.793,9.153c-0.035,1.806,0.712,3.143,2.5,3.143c1.059,0,1.91-0.556,2.049-1.806h1.632
			c-0.052,0.434-0.122,1.146-0.747,1.823c-0.382,0.434-1.25,1.163-3.004,1.163c-2.744,0-4.046-1.702-4.046-4.462
			c0-1.719,0.347-3.143,1.719-4.098c0.833-0.59,1.875-0.643,2.379-0.643c3.907,0,3.82,3.456,3.786,4.879H344.793z M349.395,8.007
			c0.017-0.833-0.139-2.57-2.153-2.57c-1.059,0-2.344,0.643-2.379,2.57H349.395z"/>
		<path fill="#00435B" d="M358.368,6.271c0-0.59-0.035-1.198-0.086-1.771h1.649l0.035,1.684c0.313-1.215,1.354-1.615,2.084-1.719
			c0.486-0.069,0.851-0.052,1.128-0.035v1.598c-0.087-0.035-0.191-0.052-0.313-0.069c-0.122-0.018-0.278-0.018-0.469-0.018
			c-1.928,0-2.379,1.146-2.379,2.64v4.636h-1.65V6.271z"/>
		<path fill="#00435B" d="M364.878,0.714h1.962v1.789h-1.962V0.714z M365.052,4.5h1.632v8.717h-1.632V4.5z"/>
		<path fill="#00435B" d="M370.799,10.629c-0.018,0.66,0.33,1.58,1.91,1.58c0.677,0,1.181-0.122,1.528-0.556
			c0.174-0.226,0.278-0.521,0.278-0.816c0-0.851-0.607-1.007-1.91-1.302c-1.823-0.417-3.351-0.782-3.351-2.605
			c0-1.597,1.389-2.639,3.403-2.639c1.094,0,2.622,0.313,3.143,1.354c0.226,0.486,0.226,0.903,0.226,1.268h-1.667
			c0.052-1.32-1.094-1.424-1.684-1.424c-0.243,0-1.771,0-1.771,1.25c0,0.799,0.782,0.99,1.233,1.111
			c2.414,0.573,2.935,0.712,3.456,1.198c0.486,0.452,0.66,1.059,0.66,1.615c0,0.973-0.539,1.806-1.181,2.206
			c-0.764,0.469-1.684,0.59-2.587,0.59c-1.771,0-3.42-0.729-3.403-2.831H370.799z"/>
		<path fill="#00435B" d="M378.42,0.593h1.615V8.06L383.3,4.5h2.136l-3.681,3.698l3.907,5.019h-2.136l-3.49-4.706v4.706h-1.615
			V0.593z"/>
		<path fill="#00435B" d="M395.834,4.274c3.49,0,4.272,2.744,4.272,4.567c0,2.553-1.441,4.671-4.411,4.671
			c-2.883,0-4.289-1.997-4.289-4.55C391.406,6.809,392.413,4.274,395.834,4.274z M395.73,12.296c1.233,0,2.639-0.885,2.639-3.507
			c0-2.171-1.007-3.317-2.535-3.317c-1.042,0-2.726,0.66-2.726,3.386C393.108,10.647,393.872,12.296,395.73,12.296z"/>
		<path fill="#00435B" d="M407.014,1.895c-0.278-0.017-0.625-0.035-0.955-0.035c-1.32,0-1.32,0.66-1.32,1.268V4.5h2.032v1.181
			h-2.032v7.536h-1.615V5.681h-1.719V4.5h1.719V3.51c0-1.198,0.069-1.632,0.364-2.084c0.365-0.556,1.06-0.955,2.188-0.955
			c0.469,0,0.99,0.069,1.337,0.122V1.895z"/>
		<path fill="#00435B" d="M419.306,0.697h1.632v11.131c0,0.191,0.035,0.938,0.069,1.389h-1.632l-0.035-1.389
			c-0.139,0.243-0.33,0.608-0.781,0.92c-0.712,0.486-1.563,0.643-2.153,0.643c-1.163,0-3.75-0.608-3.75-4.428
			c0-3.316,1.893-4.758,3.942-4.758c1.875,0,2.5,1.111,2.708,1.476V0.697z M418.698,6.306c-0.348-0.451-0.99-0.886-1.91-0.886
			c-2.396,0-2.396,2.9-2.396,3.49c0,1.546,0.399,3.334,2.396,3.334c2.57,0,2.57-2.83,2.57-3.507
			C419.358,7.469,419.063,6.774,418.698,6.306z"/>
		<path fill="#00435B" d="M424.86,9.153c-0.035,1.806,0.712,3.143,2.5,3.143c1.059,0,1.91-0.556,2.049-1.806h1.632
			c-0.052,0.434-0.122,1.146-0.747,1.823c-0.382,0.434-1.25,1.163-3.004,1.163c-2.744,0-4.046-1.702-4.046-4.462
			c0-1.719,0.347-3.143,1.719-4.098c0.833-0.59,1.875-0.643,2.379-0.643c3.907,0,3.82,3.456,3.786,4.879H424.86z M429.462,8.007
			c0.017-0.833-0.139-2.57-2.153-2.57c-1.059,0-2.344,0.643-2.379,2.57H429.462z"/>
		<path fill="#00435B" d="M438.837,13.217c-0.122-0.434-0.156-0.851-0.156-1.302c-0.782,1.441-1.962,1.58-2.692,1.58
			c-1.997,0-3.073-1.129-3.073-2.57c0-0.695,0.243-1.806,1.528-2.553c0.938-0.521,2.327-0.573,3.021-0.573
			c0.417,0,0.677,0.018,1.181,0.052c0-1.077,0-1.545-0.313-1.927c-0.33-0.434-1.042-0.573-1.511-0.573
			c-1.649,0-1.736,1.129-1.753,1.476h-1.632c0.052-0.452,0.104-1.059,0.607-1.649c0.66-0.729,1.893-0.938,2.813-0.938
			c1.268,0,2.622,0.399,3.091,1.285c0.278,0.521,0.295,0.938,0.295,1.337l-0.069,4.167c0,0.139,0.017,1.302,0.139,2.188H438.837z
			 M437.708,8.928c-0.66,0-3.143,0-3.143,1.771c0,0.556,0.348,1.511,1.806,1.511c0.833,0,1.458-0.33,1.858-0.938
			c0.365-0.59,0.382-1.077,0.417-2.292C438.351,8.945,438.107,8.928,437.708,8.928z"/>
		<path fill="#00435B" d="M441.838,4.465h1.545V2.642l1.615-0.521v2.344h1.945v1.198h-1.945v5.227c0,0.434,0,1.163,1.163,1.163
			c0.33,0,0.643-0.052,0.782-0.086v1.268c-0.295,0.052-0.764,0.104-1.354,0.104c-1.494,0-2.206-0.434-2.206-1.858V5.663h-1.545
			V4.465z"/>
		<path fill="#00435B" d="M448.957,0.697h1.65v5.088c0.538-0.92,1.615-1.441,2.831-1.441c0.92,0,2.24,0.33,2.743,1.389
			c0.174,0.347,0.295,0.764,0.295,2.031v5.453h-1.667V8.06c0-0.781,0-2.466-1.875-2.466c-1.215,0-1.823,0.747-2.049,1.164
			c-0.278,0.486-0.278,1.302-0.278,1.84v4.619h-1.65V0.697z"/>
		<path fill="#00435B" d="M468.176,4.274c3.49,0,4.272,2.744,4.272,4.567c0,2.553-1.441,4.671-4.411,4.671
			c-2.883,0-4.289-1.997-4.289-4.55C463.748,6.809,464.755,4.274,468.176,4.274z M468.072,12.296c1.233,0,2.639-0.885,2.639-3.507
			c0-2.171-1.007-3.317-2.535-3.317c-1.042,0-2.726,0.66-2.726,3.386C465.45,10.647,466.214,12.296,468.072,12.296z"/>
		<path fill="#00435B" d="M475.084,6.271c0-0.59-0.035-1.198-0.087-1.771h1.65l0.035,1.684c0.313-1.215,1.354-1.615,2.084-1.719
			c0.486-0.069,0.851-0.052,1.128-0.035v1.598c-0.087-0.035-0.191-0.052-0.313-0.069c-0.122-0.018-0.278-0.018-0.469-0.018
			c-1.928,0-2.379,1.146-2.379,2.64v4.636h-1.65V6.271z"/>
		<path fill="#00435B" d="M491.891,13.217c-0.122-0.434-0.156-0.851-0.156-1.302c-0.782,1.441-1.962,1.58-2.692,1.58
			c-1.997,0-3.073-1.129-3.073-2.57c0-0.695,0.243-1.806,1.528-2.553c0.938-0.521,2.327-0.573,3.021-0.573
			c0.417,0,0.677,0.018,1.181,0.052c0-1.077,0-1.545-0.313-1.927c-0.33-0.434-1.042-0.573-1.511-0.573
			c-1.649,0-1.736,1.129-1.753,1.476h-1.632c0.052-0.452,0.104-1.059,0.607-1.649c0.66-0.729,1.893-0.938,2.813-0.938
			c1.268,0,2.622,0.399,3.091,1.285c0.278,0.521,0.295,0.938,0.295,1.337l-0.069,4.167c0,0.139,0.018,1.302,0.139,2.188H491.891z
			 M490.762,8.928c-0.66,0-3.143,0-3.143,1.771c0,0.556,0.347,1.511,1.806,1.511c0.833,0,1.458-0.33,1.858-0.938
			c0.365-0.59,0.382-1.077,0.417-2.292C491.405,8.945,491.162,8.928,490.762,8.928z"/>
		<path fill="#00435B" d="M501.039,5.663L501.004,4.5h1.649v1.268c0.833-1.372,2.014-1.494,2.761-1.494
			c1.927,0,2.535,0.99,2.848,1.632c0.295-0.486,1.007-1.632,2.935-1.632c1.25,0,3.195,0.521,3.195,3.091v5.852h-1.65V7.625
			c0-0.764-0.139-1.094-0.295-1.32c-0.277-0.399-0.833-0.764-1.667-0.764c-1.059,0-1.632,0.608-1.858,0.92
			C508.54,7,508.54,7.956,508.54,8.337v4.879h-1.65V7.452c0-1.077-0.625-1.91-1.91-1.91c-1.111,0-1.719,0.695-1.91,0.955
			c-0.365,0.504-0.382,1.216-0.382,1.771v4.949h-1.649V5.663z"/>
		<path fill="#00435B" d="M522.758,13.217c-0.122-0.434-0.156-0.851-0.156-1.302c-0.782,1.441-1.962,1.58-2.692,1.58
			c-1.997,0-3.073-1.129-3.073-2.57c0-0.695,0.243-1.806,1.528-2.553c0.938-0.521,2.327-0.573,3.021-0.573
			c0.417,0,0.677,0.018,1.181,0.052c0-1.077,0-1.545-0.313-1.927c-0.33-0.434-1.042-0.573-1.511-0.573
			c-1.649,0-1.736,1.129-1.753,1.476h-1.632c0.052-0.452,0.104-1.059,0.607-1.649c0.66-0.729,1.893-0.938,2.813-0.938
			c1.268,0,2.622,0.399,3.091,1.285c0.278,0.521,0.295,0.938,0.295,1.337l-0.069,4.167c0,0.139,0.018,1.302,0.139,2.188H522.758z
			 M521.629,8.928c-0.66,0-3.143,0-3.143,1.771c0,0.556,0.347,1.511,1.806,1.511c0.833,0,1.458-0.33,1.858-0.938
			c0.365-0.59,0.382-1.077,0.417-2.292C522.272,8.945,522.029,8.928,521.629,8.928z"/>
		<path fill="#00435B" d="M525.551,15.405c1.285,0.052,1.598-0.174,1.598-1.563V4.5h1.632v9.533c0,0.833-0.035,2.605-2.223,2.605
			c-0.208,0-0.556-0.018-1.007-0.069V15.405z M526.993,0.714h1.979v1.806h-1.979V0.714z"/>
		<path fill="#00435B" d="M535.708,4.274c3.49,0,4.271,2.744,4.271,4.567c0,2.553-1.441,4.671-4.41,4.671
			c-2.883,0-4.289-1.997-4.289-4.55C531.281,6.809,532.288,4.274,535.708,4.274z M535.604,12.296c1.233,0,2.639-0.885,2.639-3.507
			c0-2.171-1.007-3.317-2.535-3.317c-1.042,0-2.726,0.66-2.726,3.386C532.982,10.647,533.747,12.296,535.604,12.296z"/>
		<path fill="#00435B" d="M542.617,6.271c0-0.59-0.035-1.198-0.086-1.771h1.649l0.035,1.684c0.313-1.215,1.354-1.615,2.084-1.719
			c0.486-0.069,0.851-0.052,1.128-0.035v1.598c-0.087-0.035-0.191-0.052-0.313-0.069c-0.122-0.018-0.278-0.018-0.469-0.018
			c-1.928,0-2.379,1.146-2.379,2.64v4.636h-1.65V6.271z"/>
		<path fill="#00435B" d="M561.664,4.066c-0.069-0.434-0.295-2.171-2.709-2.171c-3.021,0-3.56,3.091-3.56,5.175
			c0,2.361,0.677,4.914,3.542,4.914c0.764,0,1.493-0.191,2.032-0.747c0.451-0.486,0.556-1.024,0.607-1.32h1.91
			c-0.26,2.466-2.535,3.49-4.688,3.49c-4.41,0-5.261-3.89-5.261-6.321c0-2.639,1.024-6.581,5.487-6.581
			c1.771,0,4.271,0.712,4.497,3.56H561.664z"/>
		<path fill="#00435B" d="M570.777,13.217h-1.91L564.405,0.68h1.927l3.56,10.714l3.75-10.714h1.754L570.777,13.217z"/>
		<path fill="#00435B" d="M583.085,9.153c-0.035,1.806,0.712,3.143,2.5,3.143c1.059,0,1.91-0.556,2.049-1.806h1.632
			c-0.052,0.434-0.122,1.146-0.747,1.823c-0.382,0.434-1.25,1.163-3.004,1.163c-2.744,0-4.046-1.702-4.046-4.462
			c0-1.719,0.348-3.143,1.719-4.098c0.833-0.59,1.875-0.643,2.379-0.643c3.907,0,3.82,3.456,3.786,4.879H583.085z M587.687,8.007
			c0.017-0.833-0.139-2.57-2.153-2.57c-1.059,0-2.344,0.643-2.379,2.57H587.687z"/>
		<path fill="#00435B" d="M590.429,4.5h1.823l2.778,6.911l2.709-6.911h1.806l-3.82,8.717h-1.649L590.429,4.5z"/>
		<path fill="#00435B" d="M602.391,9.153c-0.035,1.806,0.712,3.143,2.5,3.143c1.059,0,1.91-0.556,2.049-1.806h1.632
			c-0.052,0.434-0.122,1.146-0.747,1.823c-0.382,0.434-1.25,1.163-3.004,1.163c-2.744,0-4.046-1.702-4.046-4.462
			c0-1.719,0.347-3.143,1.719-4.098c0.833-0.59,1.875-0.643,2.379-0.643c3.907,0,3.82,3.456,3.786,4.879H602.391z M606.992,8.007
			c0.017-0.833-0.139-2.57-2.153-2.57c-1.059,0-2.344,0.643-2.379,2.57H606.992z"/>
		<path fill="#00435B" d="M611.105,5.507L611.088,4.5h1.632l0.018,1.406c0.191-0.365,0.816-1.58,2.796-1.58
			c0.781,0,3.16,0.295,3.16,2.969v5.921h-1.667V7.678c0-0.573-0.069-1.094-0.469-1.494c-0.417-0.399-0.99-0.59-1.545-0.59
			c-1.181,0-2.275,0.851-2.275,2.604v5.019h-1.632V5.507z"/>
		<path fill="#00435B" d="M620.324,4.465h1.545V2.642l1.615-0.521v2.344h1.945v1.198h-1.945v5.227c0,0.434,0,1.163,1.163,1.163
			c0.33,0,0.643-0.052,0.782-0.086v1.268c-0.295,0.052-0.764,0.104-1.354,0.104c-1.494,0-2.206-0.434-2.206-1.858V5.663h-1.545
			V4.465z"/>
		<path fill="#00435B" d="M634.249,4.743l-2.987-0.33l1.771,2.396l-1.129,0.695l-1.164-2.744l-1.25,2.709l-1.181-0.643l1.84-2.414
			l-2.882,0.243V3.389l2.935,0.382l-1.771-2.431l1.146-0.625l1.163,2.691l1.198-2.709l1.164,0.643l-1.823,2.431l2.969-0.33V4.743z"
			/>
		<path fill="#00435B" d="M643.553,5.768c0.226-0.399,0.869-1.494,2.848-1.494c0.868,0,1.962,0.208,2.761,1.111
			c0.434,0.504,1.024,1.372,1.024,3.282c0,1.684-0.399,2.604-0.833,3.178c-0.694,0.99-1.858,1.493-3.056,1.493
			c-0.417,0-1.198-0.052-1.945-0.556c-0.486-0.33-0.677-0.625-0.851-0.886l-0.035,1.32h-1.581l0.035-1.563V0.68h1.632V5.768z
			 M646.019,5.385c-2.5,0-2.5,2.917-2.5,3.473c0,0.573,0,3.299,2.431,3.299c2.014,0,2.518-1.962,2.518-3.386
			C648.467,7.903,648.293,5.385,646.019,5.385z"/>
		<path fill="#00435B" d="M656.453,13.269l-1.25,3.247h-1.684l1.319-3.334L651.208,4.5h1.84l2.727,6.876l2.778-6.876h1.771
			L656.453,13.269z"/>
		<path fill="#00435B" d="M670.185,3.093c-0.747,0.625-1.945,1.337-2.795,1.736V3.093c1.128-0.59,2.24-1.32,2.917-1.893h1.545
			v12.016h-1.667V3.093z"/>
		<path fill="#00435B" d="M681.938,4.048c-0.018-1.407-1.059-1.789-1.823-1.789c-1.736,0-2.5,1.493-2.657,4.688
			c0.382-0.556,1.042-1.528,2.795-1.528c1.962,0,3.629,1.303,3.629,3.855c0,2.796-1.997,4.202-4.063,4.202
			c-1.163,0-2.327-0.469-2.969-1.302c-0.886-1.181-1.094-2.9-1.094-4.428c0-2.622,0.642-6.79,4.445-6.79
			c1.58,0,2.466,0.694,2.882,1.146c0.608,0.712,0.625,1.476,0.643,1.945H681.938z M682.216,9.431c0-0.851-0.243-2.674-2.24-2.674
			c-1.615,0-2.396,1.32-2.396,2.691c0,1.563,0.972,2.709,2.31,2.709C680.966,12.158,682.216,11.394,682.216,9.431z"/>
		<path fill="#00435B" d="M691.07,3.944c0,2.153-1.268,3.143-2.848,3.143c-1.511,0-2.796-0.903-2.796-3.039
			c0-1.823,0.99-3.178,2.952-3.178C690.375,0.871,691.07,2.364,691.07,3.944z M689.698,4.014c0-0.851-0.208-2.101-1.441-2.101
			c-1.493,0-1.493,1.702-1.493,2.118c0,0.399,0,2.049,1.493,2.049C689.698,6.08,689.698,4.361,689.698,4.014z M687.736,13.894
			l7.658-13.371h1.146l-7.658,13.371H687.736z M698.328,8.042c0.313,0.348,0.712,0.903,0.712,2.206c0,1.893-0.92,3.178-2.795,3.178
			c-2.223,0-2.848-1.65-2.848-3.091c0-2.101,1.303-3.126,2.848-3.126C696.713,7.208,697.651,7.295,698.328,8.042z M697.72,10.282
			c0-0.538-0.104-2.101-1.458-2.101c-1.493,0-1.493,1.806-1.493,2.327c0,0.608,0.139,1.893,1.458,1.893
			C697.616,12.401,697.72,10.907,697.72,10.282z"/>
		<path fill="#00435B" d="M708.118,15.353c-0.938-2.31-2.066-5.192-2.066-7.727c0-1.372,0.313-2.726,0.712-4.046
			c0.486-1.563,0.938-2.674,1.233-3.421h1.146c-0.278,0.851-0.66,2.032-1.024,3.681c-0.365,1.598-0.486,2.674-0.486,3.751
			c0,2.466,0.608,4.462,1.615,7.762H708.118z"/>
		<path fill="#00435B" d="M712.041,5.924c0-0.382-0.018-0.59-0.052-1.424h1.65l0.035,1.441c0.816-1.372,2.257-1.58,2.969-1.58
			c1.875,0,3.664,1.285,3.664,4.515c0,3.248-1.893,4.671-3.977,4.671c-1.268,0-2.206-0.539-2.674-1.303v4.324h-1.615V5.924z
			 M716.052,12.349c0.417,0,1.285-0.087,1.84-0.851c0.625-0.851,0.712-2.101,0.712-2.726c0-1.563-0.469-3.195-2.396-3.195
			c-2.605,0-2.605,2.761-2.605,3.542C713.603,10.178,713.759,12.349,716.052,12.349z"/>
		<path fill="#00435B" d="M721.814,6.427h8.856v1.337h-8.856V6.427z M721.814,9.935h8.856v1.354h-8.856V9.935z"/>
		<path fill="#00435B" d="M736.103,0.958c3.595,0,4.029,3.855,4.029,6.112c0,2.848-0.573,4.445-1.667,5.47
			c-0.851,0.799-1.858,0.92-2.396,0.92c-1.598,0-2.691-0.938-3.212-1.997c-0.399-0.799-0.781-1.962-0.781-4.115
			C732.075,5.559,732.283,0.958,736.103,0.958z M736.086,12.019c2.014,0,2.361-2.639,2.361-4.792c0-2.882-0.503-4.879-2.327-4.879
			c-2.101,0-2.379,2.761-2.379,4.914C733.742,9.935,734.263,12.019,736.086,12.019z"/>
		<path fill="#00435B" d="M742.37,11.133h1.927v2.084h-1.927V11.133z"/>
		<path fill="#00435B" d="M750.582,0.958c3.595,0,4.029,3.855,4.029,6.112c0,2.848-0.573,4.445-1.667,5.47
			c-0.851,0.799-1.858,0.92-2.396,0.92c-1.598,0-2.691-0.938-3.212-1.997c-0.399-0.799-0.781-1.962-0.781-4.115
			C746.554,5.559,746.762,0.958,750.582,0.958z M750.565,12.019c2.014,0,2.361-2.639,2.361-4.792c0-2.882-0.503-4.879-2.327-4.879
			c-2.101,0-2.379,2.761-2.379,4.914C748.221,9.935,748.742,12.019,750.565,12.019z"/>
		<path fill="#00435B" d="M760.912,0.958c3.595,0,4.029,3.855,4.029,6.112c0,2.848-0.573,4.445-1.667,5.47
			c-0.851,0.799-1.858,0.92-2.396,0.92c-1.598,0-2.691-0.938-3.212-1.997c-0.399-0.799-0.781-1.962-0.781-4.115
			C756.883,5.559,757.091,0.958,760.912,0.958z M760.895,12.019c2.014,0,2.361-2.639,2.361-4.792c0-2.882-0.503-4.879-2.327-4.879
			c-2.101,0-2.379,2.761-2.379,4.914C758.55,9.935,759.071,12.019,760.895,12.019z"/>
		<path fill="#00435B" d="M768.55,10.369c0.035,1.215,1.094,1.702,1.997,1.702c2.101,0,2.379-1.979,2.379-2.761
			c0-1.632-0.886-2.587-2.275-2.587c-0.694,0-1.25,0.26-1.615,0.625s-0.469,0.729-0.556,1.007h-1.58l0.313-7.154h6.755v1.406h-5.262
			l-0.226,3.89c0.365-0.365,1.128-1.111,2.535-1.111c2.414,0,3.594,1.893,3.594,3.959c0,2.361-1.667,4.15-4.289,4.15
			c-1.945,0-3.49-1.077-3.577-3.125H768.55z"/>
		<path fill="#00435B" d="M777.873,0.159c0.938,2.31,2.066,5.175,2.066,7.71c0,1.372-0.313,2.726-0.712,4.046
			c-0.486,1.563-0.938,2.691-1.233,3.438h-1.146c0.278-0.868,0.66-2.049,1.024-3.699c0.365-1.58,0.486-2.674,0.486-3.75
			c0-2.448-0.608-4.445-1.615-7.745H777.873z"/>
	</g>
	<g>
		<path fill="#00435B" d="M5.713,28.128c-0.035-0.399-0.156-1.823-1.736-1.823c-2.257,0-2.257,2.622-2.257,3.282
			c0,1.789,0.434,3.456,2.17,3.456c1.389,0,1.858-1.042,1.893-1.893h1.649c-0.104,1.702-1.372,3.125-3.525,3.125
			c-0.59,0-1.945-0.122-2.865-1.128C0.521,32.539,0,31.619,0,29.813c0-3.629,2.223-4.706,3.959-4.706
			c0.573,0,1.875,0.122,2.674,1.077c0.643,0.747,0.695,1.458,0.729,1.945H5.713z"/>
		<path fill="#00435B" d="M13.212,25.107c3.49,0,4.271,2.744,4.271,4.567c0,2.553-1.441,4.671-4.41,4.671
			c-2.883,0-4.289-1.997-4.289-4.55C8.785,27.642,9.792,25.107,13.212,25.107z M13.108,33.129c1.233,0,2.639-0.885,2.639-3.507
			c0-2.171-1.007-3.317-2.535-3.317c-1.042,0-2.726,0.66-2.726,3.386C10.486,31.48,11.25,33.129,13.108,33.129z"/>
		<path fill="#00435B" d="M20.017,26.496l-0.035-1.163h1.649v1.268c0.833-1.372,2.014-1.494,2.761-1.494
			c1.927,0,2.535,0.99,2.848,1.632c0.295-0.486,1.007-1.632,2.935-1.632c1.25,0,3.195,0.521,3.195,3.091v5.852h-1.65v-5.591
			c0-0.764-0.139-1.094-0.295-1.32c-0.277-0.399-0.833-0.764-1.667-0.764c-1.059,0-1.632,0.608-1.858,0.92
			c-0.382,0.539-0.382,1.494-0.382,1.875v4.879h-1.65v-5.765c0-1.077-0.625-1.91-1.91-1.91c-1.111,0-1.719,0.695-1.91,0.955
			c-0.365,0.504-0.382,1.216-0.382,1.771v4.949h-1.649V26.496z"/>
		<path fill="#00435B" d="M36.371,26.757c0-0.382-0.018-0.59-0.052-1.424h1.65l0.035,1.441c0.816-1.372,2.257-1.58,2.969-1.58
			c1.875,0,3.664,1.285,3.664,4.515c0,3.248-1.893,4.671-3.977,4.671c-1.268,0-2.206-0.539-2.674-1.303v4.324h-1.615V26.757z
			 M40.382,33.182c0.417,0,1.285-0.087,1.84-0.851c0.625-0.851,0.712-2.101,0.712-2.726c0-1.563-0.469-3.195-2.396-3.195
			c-2.605,0-2.605,2.761-2.605,3.542C37.934,31.011,38.09,33.182,40.382,33.182z"/>
		<path fill="#00435B" d="M52.344,34.05c-0.122-0.434-0.156-0.851-0.156-1.302c-0.782,1.441-1.962,1.58-2.692,1.58
			c-1.997,0-3.073-1.129-3.073-2.57c0-0.695,0.243-1.806,1.528-2.553c0.938-0.521,2.327-0.573,3.021-0.573
			c0.417,0,0.677,0.018,1.181,0.052c0-1.077,0-1.545-0.313-1.927c-0.33-0.434-1.042-0.573-1.511-0.573
			c-1.649,0-1.736,1.129-1.753,1.476h-1.632c0.052-0.452,0.104-1.059,0.607-1.649c0.66-0.729,1.893-0.938,2.813-0.938
			c1.268,0,2.622,0.399,3.091,1.285c0.278,0.521,0.295,0.938,0.295,1.337l-0.069,4.167c0,0.139,0.018,1.302,0.139,2.188H52.344z
			 M51.215,29.761c-0.66,0-3.143,0-3.143,1.771c0,0.556,0.347,1.511,1.806,1.511c0.833,0,1.458-0.33,1.858-0.938
			c0.365-0.59,0.382-1.077,0.417-2.292C51.858,29.778,51.615,29.761,51.215,29.761z"/>
		<path fill="#00435B" d="M56.77,27.104c0-0.59-0.035-1.198-0.086-1.771h1.649l0.035,1.684c0.313-1.215,1.354-1.615,2.084-1.719
			c0.486-0.069,0.851-0.052,1.128-0.035v1.598c-0.087-0.035-0.191-0.052-0.313-0.069c-0.122-0.018-0.278-0.018-0.469-0.018
			c-1.928,0-2.379,1.146-2.379,2.64v4.636h-1.65V27.104z"/>
		<path fill="#00435B" d="M64.426,29.986c-0.035,1.806,0.712,3.143,2.5,3.143c1.059,0,1.91-0.556,2.049-1.806h1.632
			c-0.052,0.434-0.122,1.146-0.747,1.823c-0.382,0.434-1.25,1.163-3.004,1.163c-2.744,0-4.046-1.702-4.046-4.462
			c0-1.719,0.348-3.143,1.719-4.098c0.833-0.59,1.875-0.643,2.379-0.643c3.907,0,3.82,3.456,3.786,4.879H64.426z M69.028,28.84
			c0.017-0.833-0.139-2.57-2.153-2.57c-1.059,0-2.344,0.643-2.379,2.57H69.028z"/>
		<path fill="#00435B" d="M79.131,21.53h1.632v11.131c0,0.191,0.035,0.938,0.069,1.389h-1.632l-0.035-1.389
			c-0.139,0.243-0.33,0.608-0.781,0.92c-0.712,0.486-1.563,0.643-2.153,0.643c-1.163,0-3.75-0.608-3.75-4.428
			c0-3.316,1.893-4.758,3.941-4.758c1.875,0,2.501,1.111,2.709,1.476V21.53z M78.524,27.139c-0.348-0.451-0.99-0.886-1.91-0.886
			c-2.396,0-2.396,2.9-2.396,3.49c0,1.546,0.399,3.334,2.396,3.334c2.57,0,2.57-2.83,2.57-3.507
			C79.184,28.302,78.888,27.607,78.524,27.139z"/>
		<path fill="#00435B" d="M88.991,25.333l2.101,6.946l2.205-6.946h2.136l1.979,6.876l2.188-6.876h1.685l-3.074,8.717h-1.875
			l-2.049-7.171l-2.274,7.171h-1.928l-2.882-8.717H88.991z"/>
		<path fill="#00435B" d="M102.827,21.547h1.962v1.789h-1.962V21.547z M103.001,25.333h1.632v8.717h-1.632V25.333z"/>
		<path fill="#00435B" d="M106.473,25.298h1.545v-1.823l1.615-0.521v2.344h1.945v1.198h-1.945v5.227c0,0.434,0,1.163,1.163,1.163
			c0.33,0,0.643-0.052,0.782-0.086v1.268c-0.295,0.052-0.764,0.104-1.354,0.104c-1.494,0-2.206-0.434-2.206-1.858v-5.817h-1.545
			V25.298z"/>
		<path fill="#00435B" d="M113.591,21.53h1.649v5.088c0.538-0.92,1.615-1.441,2.831-1.441c0.92,0,2.24,0.33,2.744,1.389
			c0.173,0.347,0.295,0.764,0.295,2.031v5.453h-1.667v-5.157c0-0.781,0-2.466-1.875-2.466c-1.215,0-1.823,0.747-2.049,1.164
			c-0.278,0.486-0.278,1.302-0.278,1.84v4.619h-1.649V21.53z"/>
		<path fill="#00435B" d="M128.973,26.757c0-0.382-0.018-0.59-0.052-1.424h1.65l0.035,1.441c0.816-1.372,2.257-1.58,2.969-1.58
			c1.875,0,3.664,1.285,3.664,4.515c0,3.248-1.893,4.671-3.977,4.671c-1.268,0-2.206-0.539-2.674-1.303v4.324h-1.615V26.757z
			 M132.984,33.182c0.417,0,1.285-0.087,1.84-0.851c0.625-0.851,0.712-2.101,0.712-2.726c0-1.563-0.469-3.195-2.396-3.195
			c-2.605,0-2.605,2.761-2.605,3.542C130.535,31.011,130.692,33.182,132.984,33.182z"/>
		<path fill="#00435B" d="M139.719,27.104c0-0.59-0.035-1.198-0.086-1.771h1.649l0.035,1.684c0.313-1.215,1.354-1.615,2.084-1.719
			c0.486-0.069,0.851-0.052,1.128-0.035v1.598c-0.087-0.035-0.191-0.052-0.313-0.069c-0.122-0.018-0.278-0.018-0.469-0.018
			c-1.928,0-2.379,1.146-2.379,2.64v4.636h-1.65V27.104z"/>
		<path fill="#00435B" d="M151.699,34.05c-0.122-0.434-0.156-0.851-0.156-1.302c-0.782,1.441-1.962,1.58-2.692,1.58
			c-1.997,0-3.073-1.129-3.073-2.57c0-0.695,0.243-1.806,1.528-2.553c0.938-0.521,2.327-0.573,3.021-0.573
			c0.417,0,0.677,0.018,1.181,0.052c0-1.077,0-1.545-0.313-1.927c-0.33-0.434-1.042-0.573-1.511-0.573
			c-1.649,0-1.736,1.129-1.753,1.476h-1.632c0.052-0.452,0.104-1.059,0.607-1.649c0.66-0.729,1.893-0.938,2.813-0.938
			c1.268,0,2.622,0.399,3.091,1.285c0.278,0.521,0.295,0.938,0.295,1.337l-0.069,4.167c0,0.139,0.017,1.302,0.139,2.188H151.699z
			 M150.57,29.761c-0.66,0-3.143,0-3.143,1.771c0,0.556,0.348,1.511,1.806,1.511c0.833,0,1.458-0.33,1.858-0.938
			c0.365-0.59,0.382-1.077,0.417-2.292C151.213,29.778,150.97,29.761,150.57,29.761z"/>
		<path fill="#00435B" d="M154.718,25.333h1.823l2.778,6.911l2.709-6.911h1.806l-3.82,8.717h-1.649L154.718,25.333z"/>
		<path fill="#00435B" d="M171.004,34.05c-0.122-0.434-0.156-0.851-0.156-1.302c-0.782,1.441-1.962,1.58-2.692,1.58
			c-1.997,0-3.073-1.129-3.073-2.57c0-0.695,0.243-1.806,1.528-2.553c0.938-0.521,2.327-0.573,3.021-0.573
			c0.417,0,0.677,0.018,1.181,0.052c0-1.077,0-1.545-0.313-1.927c-0.33-0.434-1.042-0.573-1.511-0.573
			c-1.649,0-1.736,1.129-1.753,1.476h-1.632c0.052-0.452,0.104-1.059,0.607-1.649c0.66-0.729,1.893-0.938,2.813-0.938
			c1.268,0,2.622,0.399,3.091,1.285c0.278,0.521,0.295,0.938,0.295,1.337l-0.069,4.167c0,0.139,0.018,1.302,0.139,2.188H171.004z
			 M169.875,29.761c-0.66,0-3.143,0-3.143,1.771c0,0.556,0.347,1.511,1.806,1.511c0.833,0,1.458-0.33,1.858-0.938
			c0.365-0.59,0.382-1.077,0.417-2.292C170.518,29.778,170.275,29.761,169.875,29.761z"/>
		<path fill="#00435B" d="M176.281,31.462c-0.018,0.66,0.33,1.58,1.91,1.58c0.677,0,1.181-0.122,1.528-0.556
			c0.174-0.226,0.278-0.521,0.278-0.816c0-0.851-0.607-1.007-1.91-1.302c-1.823-0.417-3.351-0.782-3.351-2.605
			c0-1.597,1.389-2.639,3.403-2.639c1.094,0,2.622,0.313,3.143,1.354c0.226,0.486,0.226,0.903,0.226,1.268h-1.667
			c0.052-1.32-1.094-1.424-1.684-1.424c-0.243,0-1.771,0-1.771,1.25c0,0.799,0.782,0.99,1.233,1.111
			c2.414,0.573,2.935,0.712,3.456,1.198c0.486,0.452,0.66,1.059,0.66,1.615c0,0.973-0.538,1.806-1.181,2.206
			c-0.764,0.469-1.684,0.59-2.587,0.59c-1.771,0-3.42-0.729-3.403-2.831H176.281z"/>
		<path fill="#00435B" d="M182.687,25.298h1.545v-1.823l1.615-0.521v2.344h1.945v1.198h-1.945v5.227c0,0.434,0,1.163,1.163,1.163
			c0.33,0,0.643-0.052,0.782-0.086v1.268c-0.295,0.052-0.764,0.104-1.354,0.104c-1.494,0-2.206-0.434-2.206-1.858v-5.817h-1.545
			V25.298z"/>
		<path fill="#00435B" d="M195.118,34.05c-0.122-0.434-0.156-0.851-0.156-1.302c-0.782,1.441-1.962,1.58-2.692,1.58
			c-1.997,0-3.073-1.129-3.073-2.57c0-0.695,0.243-1.806,1.528-2.553c0.938-0.521,2.327-0.573,3.021-0.573
			c0.417,0,0.677,0.018,1.181,0.052c0-1.077,0-1.545-0.313-1.927c-0.33-0.434-1.042-0.573-1.511-0.573
			c-1.649,0-1.736,1.129-1.753,1.476h-1.632c0.052-0.452,0.104-1.059,0.607-1.649c0.66-0.729,1.893-0.938,2.813-0.938
			c1.268,0,2.622,0.399,3.091,1.285c0.278,0.521,0.295,0.938,0.295,1.337l-0.069,4.167c0,0.139,0.017,1.302,0.139,2.188H195.118z
			 M193.989,29.761c-0.66,0-3.143,0-3.143,1.771c0,0.556,0.348,1.511,1.806,1.511c0.833,0,1.458-0.33,1.858-0.938
			c0.365-0.59,0.382-1.077,0.417-2.292C194.632,29.778,194.389,29.761,193.989,29.761z"/>
		<path fill="#00435B" d="M198.12,25.298h1.545v-1.823l1.615-0.521v2.344h1.945v1.198h-1.945v5.227c0,0.434,0,1.163,1.163,1.163
			c0.33,0,0.643-0.052,0.782-0.086v1.268c-0.295,0.052-0.764,0.104-1.354,0.104c-1.494,0-2.206-0.434-2.206-1.858v-5.817h-1.545
			V25.298z"/>
		<path fill="#00435B" d="M205.082,21.547h1.962v1.789h-1.962V21.547z M205.256,25.333h1.632v8.717h-1.632V25.333z"/>
		<path fill="#00435B" d="M210.117,26.34l-0.017-1.007h1.632l0.017,1.406c0.191-0.365,0.816-1.58,2.796-1.58
			c0.781,0,3.16,0.295,3.16,2.969v5.921h-1.667v-5.539c0-0.573-0.069-1.094-0.469-1.494c-0.417-0.399-0.99-0.59-1.545-0.59
			c-1.181,0-2.275,0.851-2.275,2.604v5.019h-1.632V26.34z"/>
		<path fill="#00435B" d="M229.874,31.445h-5.417v-2.066l5.209-7.501h1.875v8.161h1.754v1.407h-1.754v2.604h-1.667V31.445z
			 M229.926,30.039v-6.338l-4.15,6.338H229.926z"/>
		<path fill="#00435B" d="M238.415,21.791c3.595,0,4.029,3.855,4.029,6.112c0,2.848-0.573,4.445-1.667,5.47
			c-0.851,0.799-1.858,0.92-2.396,0.92c-1.598,0-2.691-0.938-3.212-1.997c-0.399-0.799-0.781-1.962-0.781-4.115
			C234.387,26.392,234.595,21.791,238.415,21.791z M238.398,32.852c2.014,0,2.361-2.639,2.361-4.792
			c0-2.882-0.503-4.879-2.327-4.879c-2.101,0-2.379,2.761-2.379,4.914C236.054,30.768,236.575,32.852,238.398,32.852z"/>
		<path fill="#00435B" d="M249.612,26.496l-0.035-1.163h1.649v1.268c0.833-1.372,2.015-1.494,2.761-1.494
			c1.927,0,2.535,0.99,2.848,1.632c0.295-0.486,1.007-1.632,2.935-1.632c1.25,0,3.195,0.521,3.195,3.091v5.852h-1.649v-5.591
			c0-0.764-0.139-1.094-0.295-1.32c-0.278-0.399-0.834-0.764-1.667-0.764c-1.06,0-1.632,0.608-1.858,0.92
			c-0.382,0.539-0.382,1.494-0.382,1.875v4.879h-1.649v-5.765c0-1.077-0.625-1.91-1.91-1.91c-1.111,0-1.719,0.695-1.91,0.955
			c-0.365,0.504-0.382,1.216-0.382,1.771v4.949h-1.649V26.496z"/>
		<path fill="#00435B" d="M267.581,34.727c0.069,0.972,0.486,1.702,2.032,1.702c2.275,0,2.31-1.649,2.31-4.011
			c-0.695,1.441-2.344,1.476-2.865,1.476c-0.799,0-1.945-0.174-2.674-1.077c-0.747-0.886-0.99-2.049-0.99-3.212
			c0-2.952,1.736-4.393,3.873-4.393c1.753,0,2.396,0.868,2.744,1.319l0.017-1.198h1.58l-0.035,1.58l-0.017,5.452
			c0,2.102-0.07,2.952-0.417,3.612c-0.729,1.389-2.431,1.563-3.629,1.563c-3.491,0-3.595-1.632-3.664-2.813H267.581z M271.384,31.81
			c0.348-0.451,0.59-0.92,0.59-2.5c0-1.094-0.243-1.719-0.677-2.17c-0.435-0.469-1.129-0.764-1.875-0.764
			c-2.066,0-2.344,2.084-2.344,3.195c0,1.337,0.399,3.108,2.396,3.108C270.429,32.678,270.984,32.331,271.384,31.81z"/>
		<path fill="#00435B" d="M281.295,21.547h1.962v1.789h-1.962V21.547z M281.469,25.333h1.632v8.717h-1.632V25.333z"/>
		<path fill="#00435B" d="M286.33,26.34l-0.017-1.007h1.632l0.018,1.406c0.191-0.365,0.816-1.58,2.796-1.58
			c0.781,0,3.16,0.295,3.16,2.969v5.921h-1.667v-5.539c0-0.573-0.069-1.094-0.469-1.494c-0.417-0.399-0.99-0.59-1.545-0.59
			c-1.181,0-2.275,0.851-2.275,2.604v5.019h-1.632V26.34z"/>
		<path fill="#00435B" d="M301.66,26.757c0-0.382-0.018-0.59-0.052-1.424h1.65l0.035,1.441c0.816-1.372,2.257-1.58,2.969-1.58
			c1.875,0,3.664,1.285,3.664,4.515c0,3.248-1.893,4.671-3.977,4.671c-1.268,0-2.206-0.539-2.674-1.303v4.324h-1.615V26.757z
			 M305.671,33.182c0.417,0,1.285-0.087,1.84-0.851c0.625-0.851,0.712-2.101,0.712-2.726c0-1.563-0.469-3.195-2.396-3.195
			c-2.605,0-2.605,2.761-2.605,3.542C303.222,31.011,303.378,33.182,305.671,33.182z"/>
		<path fill="#00435B" d="M317.633,34.05c-0.122-0.434-0.156-0.851-0.156-1.302c-0.782,1.441-1.962,1.58-2.692,1.58
			c-1.997,0-3.073-1.129-3.073-2.57c0-0.695,0.243-1.806,1.528-2.553c0.938-0.521,2.327-0.573,3.021-0.573
			c0.417,0,0.677,0.018,1.181,0.052c0-1.077,0-1.545-0.313-1.927c-0.33-0.434-1.042-0.573-1.511-0.573
			c-1.649,0-1.736,1.129-1.753,1.476h-1.632c0.052-0.452,0.104-1.059,0.607-1.649c0.66-0.729,1.893-0.938,2.813-0.938
			c1.268,0,2.622,0.399,3.091,1.285c0.278,0.521,0.295,0.938,0.295,1.337l-0.069,4.167c0,0.139,0.017,1.302,0.139,2.188H317.633z
			 M316.504,29.761c-0.66,0-3.143,0-3.143,1.771c0,0.556,0.348,1.511,1.806,1.511c0.833,0,1.458-0.33,1.858-0.938
			c0.365-0.59,0.382-1.077,0.417-2.292C317.146,29.778,316.903,29.761,316.504,29.761z"/>
		<path fill="#00435B" d="M320.635,25.298h1.545v-1.823l1.615-0.521v2.344h1.945v1.198h-1.945v5.227c0,0.434,0,1.163,1.163,1.163
			c0.33,0,0.643-0.052,0.782-0.086v1.268c-0.295,0.052-0.764,0.104-1.354,0.104c-1.494,0-2.206-0.434-2.206-1.858v-5.817h-1.545
			V25.298z"/>
		<path fill="#00435B" d="M327.596,21.547h1.962v1.789h-1.962V21.547z M327.77,25.333h1.632v8.717h-1.632V25.333z"/>
		<path fill="#00435B" d="M333.569,29.986c-0.035,1.806,0.712,3.143,2.5,3.143c1.059,0,1.91-0.556,2.049-1.806h1.632
			c-0.052,0.434-0.122,1.146-0.747,1.823c-0.382,0.434-1.25,1.163-3.004,1.163c-2.744,0-4.046-1.702-4.046-4.462
			c0-1.719,0.348-3.143,1.719-4.098c0.833-0.59,1.875-0.643,2.379-0.643c3.907,0,3.82,3.456,3.786,4.879H333.569z M338.17,28.84
			c0.017-0.833-0.139-2.57-2.153-2.57c-1.059,0-2.344,0.643-2.379,2.57H338.17z"/>
		<path fill="#00435B" d="M342.284,26.34l-0.017-1.007h1.632l0.017,1.406c0.191-0.365,0.816-1.58,2.796-1.58
			c0.781,0,3.16,0.295,3.16,2.969v5.921h-1.667v-5.539c0-0.573-0.069-1.094-0.469-1.494c-0.417-0.399-0.99-0.59-1.545-0.59
			c-1.181,0-2.275,0.851-2.275,2.604v5.019h-1.632V26.34z"/>
		<path fill="#00435B" d="M351.502,25.298h1.545v-1.823l1.615-0.521v2.344h1.945v1.198h-1.945v5.227c0,0.434,0,1.163,1.163,1.163
			c0.33,0,0.643-0.052,0.782-0.086v1.268c-0.295,0.052-0.764,0.104-1.354,0.104c-1.494,0-2.206-0.434-2.206-1.858v-5.817h-1.545
			V25.298z"/>
		<path fill="#00435B" d="M359.558,31.462c-0.018,0.66,0.33,1.58,1.91,1.58c0.677,0,1.181-0.122,1.528-0.556
			c0.174-0.226,0.278-0.521,0.278-0.816c0-0.851-0.607-1.007-1.91-1.302c-1.823-0.417-3.351-0.782-3.351-2.605
			c0-1.597,1.389-2.639,3.403-2.639c1.094,0,2.622,0.313,3.143,1.354c0.226,0.486,0.226,0.903,0.226,1.268h-1.667
			c0.052-1.32-1.094-1.424-1.684-1.424c-0.243,0-1.771,0-1.771,1.25c0,0.799,0.782,0.99,1.233,1.111
			c2.414,0.573,2.935,0.712,3.456,1.198c0.486,0.452,0.66,1.059,0.66,1.615c0,0.973-0.539,1.806-1.181,2.206
			c-0.764,0.469-1.684,0.59-2.587,0.59c-1.771,0-3.42-0.729-3.403-2.831H359.558z"/>
		<path fill="#00435B" d="M372.596,25.333l2.101,6.946l2.205-6.946h2.136l1.979,6.876l2.188-6.876h1.685l-3.074,8.717h-1.875
			l-2.049-7.171l-2.274,7.171h-1.928l-2.882-8.717H372.596z"/>
		<path fill="#00435B" d="M386.432,21.547h1.962v1.789h-1.962V21.547z M386.605,25.333h1.632v8.717h-1.632V25.333z"/>
		<path fill="#00435B" d="M390.077,25.298h1.545v-1.823l1.615-0.521v2.344h1.945v1.198h-1.945v5.227c0,0.434,0,1.163,1.163,1.163
			c0.33,0,0.643-0.052,0.782-0.086v1.268c-0.295,0.052-0.764,0.104-1.354,0.104c-1.494,0-2.206-0.434-2.206-1.858v-5.817h-1.545
			V25.298z"/>
		<path fill="#00435B" d="M397.196,21.53h1.649v5.088c0.538-0.92,1.615-1.441,2.831-1.441c0.92,0,2.24,0.33,2.744,1.389
			c0.173,0.347,0.295,0.764,0.295,2.031v5.453h-1.667v-5.157c0-0.781,0-2.466-1.875-2.466c-1.215,0-1.823,0.747-2.049,1.164
			c-0.278,0.486-0.278,1.302-0.278,1.84v4.619h-1.649V21.53z"/>
		<path fill="#00435B" d="M417.943,34.05c-0.122-0.434-0.156-0.851-0.156-1.302c-0.782,1.441-1.962,1.58-2.692,1.58
			c-1.997,0-3.073-1.129-3.073-2.57c0-0.695,0.243-1.806,1.528-2.553c0.938-0.521,2.327-0.573,3.021-0.573
			c0.417,0,0.677,0.018,1.181,0.052c0-1.077,0-1.545-0.313-1.927c-0.33-0.434-1.042-0.573-1.511-0.573
			c-1.649,0-1.736,1.129-1.753,1.476h-1.632c0.052-0.452,0.104-1.059,0.607-1.649c0.66-0.729,1.893-0.938,2.813-0.938
			c1.268,0,2.622,0.399,3.091,1.285c0.278,0.521,0.295,0.938,0.295,1.337l-0.069,4.167c0,0.139,0.018,1.302,0.139,2.188H417.943z
			 M416.814,29.761c-0.66,0-3.143,0-3.143,1.771c0,0.556,0.347,1.511,1.806,1.511c0.833,0,1.458-0.33,1.858-0.938
			c0.365-0.59,0.382-1.077,0.417-2.292C417.457,29.778,417.213,29.761,416.814,29.761z"/>
		<path fill="#00435B" d="M427.248,28.128c-0.035-0.399-0.156-1.823-1.736-1.823c-2.257,0-2.257,2.622-2.257,3.282
			c0,1.789,0.434,3.456,2.17,3.456c1.389,0,1.858-1.042,1.893-1.893h1.649c-0.104,1.702-1.372,3.125-3.525,3.125
			c-0.59,0-1.945-0.122-2.865-1.128c-0.521-0.608-1.042-1.528-1.042-3.334c0-3.629,2.223-4.706,3.959-4.706
			c0.573,0,1.875,0.122,2.674,1.077c0.643,0.747,0.695,1.458,0.729,1.945H427.248z"/>
		<path fill="#00435B" d="M432.456,25.333v5.608c0,0.851,0.191,1.928,1.858,1.928c0.816,0,1.58-0.278,2.049-0.973
			c0.365-0.521,0.365-1.198,0.365-1.632v-4.931h1.685v7.084c0,0.174,0.035,1.146,0.052,1.632h-1.702l-0.035-1.493
			c-0.313,0.607-0.903,1.58-2.778,1.58c-2.153,0-3.16-1.233-3.16-2.952v-5.852H432.456z"/>
		<path fill="#00435B" d="M440.232,25.298h1.545v-1.823l1.615-0.521v2.344h1.945v1.198h-1.945v5.227c0,0.434,0,1.163,1.163,1.163
			c0.33,0,0.643-0.052,0.782-0.086v1.268c-0.295,0.052-0.764,0.104-1.354,0.104c-1.494,0-2.206-0.434-2.206-1.858v-5.817h-1.545
			V25.298z"/>
		<path fill="#00435B" d="M448.34,29.986c-0.035,1.806,0.712,3.143,2.5,3.143c1.059,0,1.91-0.556,2.049-1.806h1.632
			c-0.052,0.434-0.122,1.146-0.747,1.823c-0.382,0.434-1.25,1.163-3.004,1.163c-2.744,0-4.046-1.702-4.046-4.462
			c0-1.719,0.348-3.143,1.719-4.098c0.833-0.59,1.875-0.643,2.379-0.643c3.907,0,3.82,3.456,3.786,4.879H448.34z M452.942,28.84
			c0.017-0.833-0.139-2.57-2.153-2.57c-1.059,0-2.344,0.643-2.379,2.57H452.942z"/>
		<path fill="#00435B" d="M466.795,28.128c-0.035-0.399-0.156-1.823-1.736-1.823c-2.257,0-2.257,2.622-2.257,3.282
			c0,1.789,0.434,3.456,2.17,3.456c1.389,0,1.858-1.042,1.893-1.893h1.649c-0.104,1.702-1.372,3.125-3.525,3.125
			c-0.59,0-1.945-0.122-2.865-1.128c-0.521-0.608-1.042-1.528-1.042-3.334c0-3.629,2.223-4.706,3.959-4.706
			c0.573,0,1.875,0.122,2.674,1.077c0.643,0.747,0.695,1.458,0.729,1.945H466.795z"/>
		<path fill="#00435B" d="M474.295,25.107c3.49,0,4.271,2.744,4.271,4.567c0,2.553-1.441,4.671-4.41,4.671
			c-2.883,0-4.289-1.997-4.289-4.55C469.868,27.642,470.875,25.107,474.295,25.107z M474.191,33.129
			c1.233,0,2.639-0.885,2.639-3.507c0-2.171-1.007-3.317-2.535-3.317c-1.042,0-2.726,0.66-2.726,3.386
			C471.569,31.48,472.333,33.129,474.191,33.129z"/>
		<path fill="#00435B" d="M481.204,27.104c0-0.59-0.035-1.198-0.086-1.771h1.649l0.035,1.684c0.313-1.215,1.354-1.615,2.084-1.719
			c0.486-0.069,0.851-0.052,1.128-0.035v1.598c-0.087-0.035-0.191-0.052-0.313-0.069c-0.122-0.018-0.278-0.018-0.469-0.018
			c-1.928,0-2.379,1.146-2.379,2.64v4.636h-1.65V27.104z"/>
		<path fill="#00435B" d="M491.656,25.107c3.49,0,4.271,2.744,4.271,4.567c0,2.553-1.441,4.671-4.41,4.671
			c-2.883,0-4.289-1.997-4.289-4.55C487.228,27.642,488.235,25.107,491.656,25.107z M491.552,33.129
			c1.233,0,2.639-0.885,2.639-3.507c0-2.171-1.007-3.317-2.535-3.317c-1.042,0-2.726,0.66-2.726,3.386
			C488.93,31.48,489.694,33.129,491.552,33.129z"/>
		<path fill="#00435B" d="M498.53,26.34l-0.017-1.007h1.632l0.017,1.406c0.191-0.365,0.816-1.58,2.796-1.58
			c0.781,0,3.16,0.295,3.16,2.969v5.921h-1.667v-5.539c0-0.573-0.069-1.094-0.469-1.494c-0.417-0.399-0.99-0.59-1.545-0.59
			c-1.181,0-2.275,0.851-2.275,2.604v5.019h-1.632V26.34z"/>
		<path fill="#00435B" d="M514.399,34.05c-0.122-0.434-0.156-0.851-0.156-1.302c-0.782,1.441-1.962,1.58-2.692,1.58
			c-1.997,0-3.073-1.129-3.073-2.57c0-0.695,0.243-1.806,1.528-2.553c0.938-0.521,2.327-0.573,3.021-0.573
			c0.417,0,0.677,0.018,1.181,0.052c0-1.077,0-1.545-0.313-1.927c-0.33-0.434-1.042-0.573-1.511-0.573
			c-1.649,0-1.736,1.129-1.753,1.476h-1.632c0.052-0.452,0.104-1.059,0.607-1.649c0.66-0.729,1.893-0.938,2.813-0.938
			c1.268,0,2.622,0.399,3.091,1.285c0.278,0.521,0.295,0.938,0.295,1.337l-0.069,4.167c0,0.139,0.018,1.302,0.139,2.188H514.399z
			 M513.27,29.761c-0.66,0-3.143,0-3.143,1.771c0,0.556,0.347,1.511,1.806,1.511c0.833,0,1.458-0.33,1.858-0.938
			c0.365-0.59,0.382-1.077,0.417-2.292C513.913,29.778,513.669,29.761,513.27,29.761z"/>
		<path fill="#00435B" d="M518.824,27.104c0-0.59-0.035-1.198-0.086-1.771h1.649l0.035,1.684c0.313-1.215,1.354-1.615,2.084-1.719
			c0.486-0.069,0.851-0.052,1.128-0.035v1.598c-0.087-0.035-0.191-0.052-0.313-0.069c-0.122-0.018-0.278-0.018-0.469-0.018
			c-1.928,0-2.379,1.146-2.379,2.64v4.636h-1.65V27.104z"/>
		<path fill="#00435B" d="M529.416,34.102l-1.25,3.247h-1.684l1.319-3.334l-3.629-8.682h1.84l2.727,6.876l2.778-6.876h1.771
			L529.416,34.102z"/>
		<path fill="#00435B" d="M540.908,31.462c-0.018,0.66,0.33,1.58,1.91,1.58c0.677,0,1.181-0.122,1.528-0.556
			c0.174-0.226,0.278-0.521,0.278-0.816c0-0.851-0.607-1.007-1.91-1.302c-1.823-0.417-3.351-0.782-3.351-2.605
			c0-1.597,1.389-2.639,3.403-2.639c1.094,0,2.622,0.313,3.143,1.354c0.226,0.486,0.226,0.903,0.226,1.268h-1.667
			c0.052-1.32-1.094-1.424-1.684-1.424c-0.243,0-1.771,0-1.771,1.25c0,0.799,0.782,0.99,1.233,1.111
			c2.414,0.573,2.935,0.712,3.456,1.198c0.486,0.452,0.66,1.059,0.66,1.615c0,0.973-0.538,1.806-1.181,2.206
			c-0.764,0.469-1.684,0.59-2.587,0.59c-1.771,0-3.42-0.729-3.403-2.831H540.908z"/>
		<path fill="#00435B" d="M552.575,34.102l-1.25,3.247h-1.684l1.319-3.334l-3.629-8.682h1.84l2.727,6.876l2.778-6.876h1.771
			L552.575,34.102z"/>
		<path fill="#00435B" d="M558.355,26.34l-0.017-1.007h1.632l0.017,1.406c0.191-0.365,0.816-1.58,2.796-1.58
			c0.781,0,3.16,0.295,3.16,2.969v5.921h-1.667v-5.539c0-0.573-0.069-1.094-0.469-1.494c-0.417-0.399-0.99-0.59-1.545-0.59
			c-1.181,0-2.275,0.851-2.275,2.604v5.019h-1.632V26.34z"/>
		<path fill="#00435B" d="M574.953,21.53h1.632v11.131c0,0.191,0.035,0.938,0.069,1.389h-1.632l-0.035-1.389
			c-0.139,0.243-0.33,0.608-0.781,0.92c-0.712,0.486-1.563,0.643-2.153,0.643c-1.163,0-3.75-0.608-3.75-4.428
			c0-3.316,1.893-4.758,3.942-4.758c1.875,0,2.5,1.111,2.708,1.476V21.53z M574.346,27.139c-0.348-0.451-0.99-0.886-1.91-0.886
			c-2.396,0-2.396,2.9-2.396,3.49c0,1.546,0.399,3.334,2.396,3.334c2.57,0,2.57-2.83,2.57-3.507
			C575.005,28.302,574.71,27.607,574.346,27.139z"/>
		<path fill="#00435B" d="M579.604,27.104c0-0.59-0.035-1.198-0.086-1.771h1.649l0.035,1.684c0.313-1.215,1.354-1.615,2.084-1.719
			c0.486-0.069,0.851-0.052,1.128-0.035v1.598c-0.087-0.035-0.191-0.052-0.313-0.069c-0.122-0.018-0.278-0.018-0.469-0.018
			c-1.928,0-2.379,1.146-2.379,2.64v4.636h-1.65V27.104z"/>
		<path fill="#00435B" d="M590.056,25.107c3.49,0,4.271,2.744,4.271,4.567c0,2.553-1.441,4.671-4.41,4.671
			c-2.883,0-4.289-1.997-4.289-4.55C585.628,27.642,586.635,25.107,590.056,25.107z M589.952,33.129
			c1.233,0,2.639-0.885,2.639-3.507c0-2.171-1.007-3.317-2.535-3.317c-1.042,0-2.726,0.66-2.726,3.386
			C587.33,31.48,588.094,33.129,589.952,33.129z"/>
		<path fill="#00435B" d="M596.861,26.496l-0.035-1.163h1.649v1.268c0.833-1.372,2.014-1.494,2.761-1.494
			c1.927,0,2.535,0.99,2.848,1.632c0.295-0.486,1.007-1.632,2.935-1.632c1.25,0,3.195,0.521,3.195,3.091v5.852h-1.65v-5.591
			c0-0.764-0.139-1.094-0.295-1.32c-0.277-0.399-0.833-0.764-1.667-0.764c-1.059,0-1.632,0.608-1.858,0.92
			c-0.382,0.539-0.382,1.494-0.382,1.875v4.879h-1.65v-5.765c0-1.077-0.625-1.91-1.91-1.91c-1.111,0-1.719,0.695-1.91,0.955
			c-0.365,0.504-0.382,1.216-0.382,1.771v4.949h-1.649V26.496z"/>
		<path fill="#00435B" d="M614.256,29.986c-0.035,1.806,0.712,3.143,2.5,3.143c1.059,0,1.91-0.556,2.049-1.806h1.632
			c-0.052,0.434-0.122,1.146-0.747,1.823c-0.382,0.434-1.25,1.163-3.004,1.163c-2.744,0-4.046-1.702-4.046-4.462
			c0-1.719,0.348-3.143,1.719-4.098c0.833-0.59,1.875-0.643,2.379-0.643c3.907,0,3.82,3.456,3.786,4.879H614.256z M618.858,28.84
			c0.017-0.833-0.139-2.57-2.153-2.57c-1.059,0-2.344,0.643-2.379,2.57H618.858z"/>
	</g>
	<g>
		<g>
			<path fill="#00435B" d="M625.334,27.11c-0.01,0.668,0.425,1.143,1.285,1.143c0.981,0,1.396-0.627,1.396-1.244
				c0-0.739-0.496-1.123-1.012-1.234c-0.364-0.071-0.617-0.061-0.971-0.05v-0.82c0.698,0.061,1.872-0.081,1.872-1.214
				c0-0.789-0.536-1.103-1.234-1.103c-0.526,0-1.184,0.232-1.274,1.103h-1.022c0.061-1.74,1.7-1.912,2.266-1.912
				c1.528,0,2.287,0.921,2.287,1.892c0,0.577-0.314,1.406-1.396,1.649c1.498,0.212,1.498,1.558,1.498,1.7
				c0,0.981-0.799,2.063-2.428,2.063c-0.738,0-1.477-0.212-1.922-0.729c-0.395-0.445-0.405-0.951-0.415-1.244H625.334z"/>
		</g>
	</g>
</g>
</svg>
