<?xml version="1.0" encoding="utf-8"?>
<!-- Generator: Adobe Illustrator 17.0.0, SVG Export Plug-In . SVG Version: 6.00 Build 0)  -->
<!DOCTYPE svg PUBLIC "-//W3C//DTD SVG 1.1//EN" "http://www.w3.org/Graphics/SVG/1.1/DTD/svg11.dtd">
<svg version="1.1" id="Layer_1" xmlns="http://www.w3.org/2000/svg" xmlns:xlink="http://www.w3.org/1999/xlink" x="0px" y="0px"
	 width="183.134px" height="172.561px" viewBox="0 0 183.134 172.561" enable-background="new 0 0 183.134 172.561"
	 xml:space="preserve">
<g>
	<path fill="#00435B" d="M5.922,15.874c0,1.071-0.063,4.315,4.126,4.315c2.646,0,4.315-1.26,4.315-3.181
		c0-2.016-1.417-2.362-4.315-3.055C4.63,12.599,1.67,10.992,1.67,7.055C1.67,3.307,4.347,0,10.678,0
		c2.362,0,5.165,0.535,6.866,2.677c1.291,1.638,1.291,3.465,1.291,4.221h-4.693c-0.063-0.787-0.315-3.465-3.685-3.465
		c-2.268,0-3.748,1.228-3.748,3.087c0,2.11,1.669,2.488,4.945,3.307c3.937,0.945,7.811,2.016,7.811,6.457
		c0,4.095-3.402,7.402-9.701,7.402c-8.725,0-8.788-5.606-8.819-7.811H5.922z M22.739,0.409h4.977v4.063h-4.977V0.409z M22.896,7.213
		h4.662V23.15h-4.662V7.213z M46.738,7.307c-0.126,1.26-0.221,2.331-0.221,3.937v11.748c0,5.858-4.882,6.425-7.937,6.425
		c-2.268,0-6.709-0.284-6.992-5.103h4.472c0.063,0.472,0.284,2.205,2.772,2.205c1.386,0,2.583-0.661,2.898-2.079
		c0.189-0.787,0.189-1.354,0.221-3.78c-1.48,1.953-3.15,2.173-4.284,2.173c-4.567,0-6.709-3.969-6.709-7.811
		c0-4.032,2.236-7.874,6.803-7.874c2.898,0,3.968,1.575,4.441,2.268l0.157-2.11H46.738z M38.738,19.654
		c3.276,0,3.276-3.843,3.276-4.536c0-1.795-0.346-4.851-3.181-4.851c-1.764,0-3.213,1.354-3.213,4.756
		C35.62,15.811,35.62,19.654,38.738,19.654z M50.955,10.079c0-0.063,0-1.795-0.094-2.898h4.473l0.126,2.394
		c0.441-0.724,1.701-2.772,5.166-2.772c3.118,0,4.441,1.89,4.85,2.992c0.346,0.976,0.441,1.795,0.441,4.756v8.599h-4.756v-9.89
		c0-0.661,0-1.228-0.252-1.732c-0.346-0.693-1.071-1.354-2.268-1.354c-1.008,0-1.921,0.472-2.425,1.228
		c-0.284,0.41-0.567,1.197-0.567,2.425v9.323h-4.693V10.079z M69.977,0.409h4.976v4.063h-4.976V0.409z M70.134,7.213h4.661V23.15
		h-4.661V7.213z M79.299,10.551h-2.394V7.244h2.394V5.071C79.299,2.268,80.212,0,84.748,0c0.346,0,1.228,0,2.52,0.157v3.244
		c-0.473-0.063-0.598-0.094-0.976-0.094c-2.362,0-2.362,1.26-2.362,2.079v1.858h2.929v3.307h-2.929V23.15h-4.63V10.551z
		 M89.22,0.409h4.977v4.063H89.22V0.409z M89.378,7.213h4.662V23.15h-4.662V7.213z M106.54,12.882
		c-0.063-0.567-0.252-2.929-2.047-2.929c-2.205,0-2.457,3.339-2.457,5.071c0,0.882,0.095,3.717,1.166,4.882
		c0.441,0.472,0.913,0.535,1.26,0.535c0.504,0,1.953-0.221,2.142-3.055h4.599c-0.063,1.228-0.22,3.15-2.047,4.693
		c-1.134,0.976-2.551,1.48-4.535,1.48c-2.11,0-3.969-0.472-5.417-2.11c-1.386-1.606-2.016-3.717-2.016-6.268
		c0-7.244,5.323-8.252,7.433-8.252c2.961,0,6.457,1.638,6.488,5.953H106.54z M123.421,23.15c-0.158-0.976-0.158-1.701-0.158-2.173
		c-1.764,2.551-3.874,2.551-4.756,2.551c-2.299,0-3.339-0.662-3.969-1.26c-0.945-0.945-1.386-2.236-1.386-3.496
		c0-1.26,0.441-3.591,3.37-4.945c1.953-0.882,4.756-0.882,6.299-0.882c0-1.04-0.032-1.543-0.22-2.11
		c-0.41-1.165-1.638-1.323-2.079-1.323c-0.661,0-1.354,0.283-1.764,0.882c-0.346,0.536-0.346,1.039-0.346,1.417h-4.567
		c0.031-0.85,0.126-2.551,1.795-3.748c1.449-1.039,3.307-1.291,4.819-1.291c1.323,0,4.095,0.22,5.669,2.047
		c1.071,1.291,1.102,3.181,1.102,3.906l0.032,6.394c0,1.354,0.094,2.709,0.378,4.032H123.421z M117.688,18.237
		c0,1.071,0.724,2.268,2.268,2.268c0.85,0,1.543-0.41,1.984-0.913c0.819-1.008,0.882-2.236,0.882-3.937
		C119.83,15.402,117.688,16.347,117.688,18.237z M131.45,10.079c0-0.063,0-1.795-0.094-2.898h4.473l0.126,2.394
		c0.441-0.724,1.701-2.772,5.165-2.772c3.118,0,4.441,1.89,4.85,2.992c0.346,0.976,0.441,1.795,0.441,4.756v8.599h-4.756v-9.89
		c0-0.661,0-1.228-0.252-1.732c-0.346-0.693-1.071-1.354-2.268-1.354c-1.008,0-1.921,0.472-2.425,1.228
		c-0.283,0.41-0.567,1.197-0.567,2.425v9.323h-4.693V10.079z M159.983,22.93c-1.512,0.409-2.866,0.504-3.622,0.504
		c-4.693,0-4.693-2.961-4.693-4.284v-8.725h-3.055V7.339h3.055V4.22l4.63-1.701v4.819h3.78v3.087h-3.78v7.181
		c0.032,1.449,0.032,2.362,2.11,2.362c0.693,0,1.008-0.031,1.575-0.094V22.93z"/>
	<g>
		<path fill="#00435B" d="M14.834,45.031c-0.095-0.787-0.378-4-3.685-4c-3.622,0-5.134,3.779-5.134,8.473
			c0,1.354,0,7.811,4.756,7.811c2.047,0,4-1.291,4.094-4.314h5.134c-0.095,1.354-0.221,3.465-2.047,5.354
			c-2.016,2.078-4.567,2.551-6.646,2.551c-7.842,0-10.393-5.795-10.393-11.432c0-7.213,4.031-12,10.424-12
			c4.977,0,8.472,3.023,8.472,7.559H14.834z"/>
		<path fill="#00435B" d="M26.549,37.693l5.952,17.857l5.984-17.857h4.819l-8.378,22.676h-5.322l-8.377-22.676H26.549z"/>
		<path fill="#00435B" d="M54.387,48.371c0-0.756-0.126-3.057-0.22-3.969h4.377l0.095,3.055c0.599-1.354,1.638-3.275,5.417-3.086
			v4.188c-4.724-0.439-5.008,1.984-5.008,3.969v7.842h-4.661V48.371z"/>
		<path fill="#00435B" d="M65.252,37.631h4.976v4.063h-4.976V37.631z M65.409,44.434h4.661v15.936h-4.661V44.434z"/>
		<path fill="#00435B" d="M77.408,55.772c0.063,1.008,0.693,2.174,2.646,2.174c1.669,0,2.457-0.945,2.457-1.891
			c0-0.725-0.378-1.291-2.205-1.795l-2.897-0.787c-1.291-0.379-4.031-1.166-4.031-4.41c0-3.086,2.834-4.975,6.96-4.975
			c3.275,0,5.921,1.512,6.047,4.691h-4.251c-0.126-1.764-1.543-1.889-2.268-1.889c-1.26,0-2.205,0.598-2.205,1.574
			c0,1.07,0.787,1.291,2.173,1.67l2.866,0.787c2.897,0.787,4.252,2.268,4.252,4.439c0,2.74-2.362,5.48-7.307,5.48
			c-2.047,0-4-0.441-5.449-1.953c-1.04-1.102-1.134-2.361-1.166-3.117H77.408z"/>
		<path fill="#00435B" d="M89.974,37.6h4.629v13.416l4.819-6.645h5.259l-5.449,6.928l5.795,9.07h-5.511l-4.913-8.66v8.66h-4.629
			V37.6z"/>
	</g>
	<g>
		<path fill="#00435B" d="M1.89,85.59c0-0.756-0.126-3.057-0.22-3.969h4.377l0.095,3.055c0.599-1.354,1.638-3.275,5.417-3.086v4.188
			c-4.724-0.439-5.008,1.984-5.008,3.969v7.842H1.89V85.59z"/>
		<path fill="#00435B" d="M16.975,90.816c0,1.039,0,4.252,3.244,4.252c1.165,0,2.33-0.441,2.771-2.205h4.251
			c-0.063,0.756-0.22,2.111-1.512,3.465c-1.166,1.229-3.244,1.859-5.575,1.859c-1.354,0-3.937-0.252-5.605-1.984
			c-1.449-1.512-2.047-3.654-2.047-6.205c0-2.582,0.63-5.668,3.307-7.527c1.228-0.818,2.74-1.322,4.472-1.322
			c2.268,0,4.977,0.881,6.425,3.842c1.071,2.174,1.008,4.504,0.945,5.826H16.975z M22.896,87.889c0-0.725-0.063-3.559-2.771-3.559
			c-2.047,0-2.897,1.699-2.992,3.559H22.896z"/>
		<path fill="#00435B" d="M41.256,74.85h4.692v20.156c0,0.945,0.063,1.984,0.126,2.582H41.35l-0.126-2.299
			c-0.315,0.566-0.63,1.166-1.606,1.795c-1.166,0.756-2.394,0.818-3.087,0.818c-4.251,0-6.771-2.928-6.771-7.904
			c0-5.26,2.866-8.535,7.023-8.535c2.866,0,4.063,1.607,4.473,2.174V74.85z M37.697,94.879c1.354,0,2.457-0.818,2.96-1.795
			c0.693-1.322,0.756-2.959,0.756-3.748c0-3.117-1.354-4.818-3.464-4.818c-3.118,0-3.464,3.748-3.464,5.355
			C34.484,92.518,35.366,94.879,37.697,94.879z"/>
		<path fill="#00435B" d="M54.545,81.684v9.48c0,1.385,0,3.496,2.488,3.496c2.992,0,2.992-2.236,2.992-4.945v-8.031h4.787v10.488
			c0.063,3.432,0.094,3.842,0.094,4.252c0.032,0.439,0.063,0.723,0.126,1.164h-4.535l-0.157-2.109
			c-0.473,0.693-1.669,2.52-4.692,2.52c-2.142,0-3.905-0.977-4.787-2.143c-1.04-1.291-1.04-3.496-1.04-4.283v-9.889H54.545z"/>
		<path fill="#00435B" d="M77.629,87.32c-0.063-0.566-0.252-2.928-2.047-2.928c-2.205,0-2.457,3.338-2.457,5.07
			c0,0.881,0.095,3.717,1.166,4.881c0.441,0.473,0.914,0.535,1.26,0.535c0.504,0,1.953-0.219,2.142-3.055h4.598
			c-0.063,1.229-0.221,3.15-2.047,4.693c-1.134,0.977-2.551,1.48-4.535,1.48c-2.11,0-3.969-0.473-5.417-2.111
			c-1.386-1.605-2.016-3.715-2.016-6.266c0-7.244,5.322-8.252,7.433-8.252c2.96,0,6.456,1.637,6.487,5.951H77.629z"/>
		<path fill="#00435B" d="M94.32,97.367c-1.512,0.41-2.866,0.504-3.622,0.504c-4.693,0-4.693-2.959-4.693-4.283v-8.723H82.95v-3.088
			h3.055V78.66l4.629-1.701v4.818h3.779v3.088h-3.779v7.18c0.032,1.449,0.032,2.363,2.11,2.363c0.693,0,1.008-0.033,1.575-0.096
			V97.367z"/>
		<path fill="#00435B" d="M97.059,74.85h4.976v4.063h-4.976V74.85z M97.217,81.652h4.661v15.936h-4.661V81.652z"/>
		<path fill="#00435B" d="M113.467,81.307c5.764,0,8.252,3.904,8.252,8.346c0,4.471-2.583,8.502-8.346,8.502
			c-4.535,0-8.125-2.803-8.125-8.377C105.247,85.936,107.2,81.307,113.467,81.307z M113.53,94.912c2.047,0,3.433-1.229,3.433-5.449
			c0-2.109-0.409-5.039-3.496-5.039c-3.401,0-3.433,3.938-3.433,5.385C110.034,93.367,111.231,94.912,113.53,94.912z"/>
		<path fill="#00435B" d="M125.276,84.518c0-0.063,0-1.795-0.095-2.896h4.472l0.126,2.393c0.441-0.725,1.701-2.771,5.165-2.771
			c3.118,0,4.441,1.891,4.85,2.992c0.347,0.977,0.441,1.795,0.441,4.756v8.598h-4.755v-9.889c0-0.662,0-1.229-0.252-1.732
			c-0.347-0.693-1.071-1.354-2.268-1.354c-1.008,0-1.921,0.473-2.425,1.229c-0.284,0.408-0.567,1.195-0.567,2.424v9.322h-4.692
			V84.518z"/>
		<path fill="#00435B" d="M147.699,92.99c0.063,1.008,0.693,2.174,2.646,2.174c1.669,0,2.457-0.945,2.457-1.891
			c0-0.725-0.378-1.291-2.205-1.795l-2.897-0.787c-1.292-0.379-4.031-1.166-4.031-4.41c0-3.086,2.834-4.975,6.96-4.975
			c3.275,0,5.921,1.512,6.047,4.691h-4.252c-0.126-1.764-1.543-1.889-2.268-1.889c-1.26,0-2.205,0.598-2.205,1.574
			c0,1.07,0.788,1.291,2.173,1.67l2.866,0.787c2.897,0.787,4.251,2.268,4.251,4.439c0,2.74-2.362,5.48-7.307,5.48
			c-2.047,0-4-0.441-5.448-1.953c-1.039-1.102-1.134-2.361-1.165-3.117H147.699z"/>
	</g>
	<g>
		<path fill="#00435B" d="M1.732,112.066h4.976v4.064H1.732V112.066z M1.89,118.869h4.661v15.938H1.89V118.869z"/>
		<path fill="#00435B" d="M10.708,121.736c0-0.063,0-1.795-0.095-2.898h4.472l0.126,2.395c0.441-0.725,1.701-2.771,5.165-2.771
			c3.118,0,4.441,1.889,4.85,2.992c0.347,0.977,0.441,1.795,0.441,4.756v8.598h-4.755v-9.891c0-0.66,0-1.227-0.252-1.73
			c-0.347-0.693-1.071-1.355-2.268-1.355c-1.008,0-1.921,0.473-2.425,1.229c-0.284,0.41-0.567,1.197-0.567,2.426v9.322h-4.692
			V121.736z"/>
		<path fill="#00435B" d="M43.019,118.902l0.126,2.268c1.449-2.553,4.094-2.584,4.85-2.584c4.126,0,6.614,3.088,6.614,7.938
			c0,4.504-2.331,8.504-6.929,8.504c-2.866,0-4.031-1.512-4.441-2.049v7.938h-4.755v-22.014H43.019z M49.885,126.713
			c0-1.891-0.473-5.135-3.212-5.135c-1.512,0-3.653,1.135-3.653,5.418c0,0.943,0.032,4.975,3.464,4.975
			C48.688,131.971,49.885,129.861,49.885,126.713z"/>
		<path fill="#00435B" d="M67.426,134.807c-0.157-0.977-0.157-1.701-0.157-2.174c-1.764,2.551-3.874,2.551-4.756,2.551
			c-2.299,0-3.338-0.66-3.968-1.26c-0.945-0.945-1.386-2.236-1.386-3.496s0.441-3.59,3.37-4.943
			c1.953-0.883,4.756-0.883,6.299-0.883c0-1.039-0.031-1.543-0.22-2.109c-0.41-1.166-1.638-1.322-2.079-1.322
			c-0.661,0-1.354,0.283-1.764,0.881c-0.347,0.535-0.347,1.039-0.347,1.418h-4.566c0.031-0.852,0.126-2.551,1.795-3.748
			c1.449-1.039,3.307-1.291,4.819-1.291c1.323,0,4.094,0.221,5.669,2.047c1.071,1.291,1.102,3.18,1.102,3.904l0.032,6.395
			c0,1.354,0.094,2.707,0.378,4.031H67.426z M61.694,129.893c0,1.07,0.724,2.268,2.268,2.268c0.85,0,1.543-0.408,1.984-0.912
			c0.819-1.008,0.882-2.236,0.882-3.938C63.835,127.059,61.694,128.004,61.694,129.893z"/>
		<path fill="#00435B" d="M84.747,134.586c-1.512,0.408-2.866,0.504-3.622,0.504c-4.693,0-4.693-2.961-4.693-4.283v-8.725h-3.055
			v-3.086h3.055v-3.117l4.629-1.701v4.818h3.779v3.086h-3.779v7.182c0.032,1.447,0.032,2.361,2.11,2.361
			c0.693,0,1.008-0.031,1.575-0.094V134.586z"/>
		<path fill="#00435B" d="M87.486,112.066h4.976v4.064h-4.976V112.066z M87.644,118.869h4.661v15.938h-4.661V118.869z"/>
		<path fill="#00435B" d="M100.146,128.035c0,1.039,0,4.252,3.244,4.252c1.166,0,2.331-0.441,2.771-2.205h4.252
			c-0.063,0.756-0.221,2.109-1.512,3.465c-1.165,1.229-3.244,1.857-5.574,1.857c-1.354,0-3.937-0.252-5.606-1.984
			c-1.448-1.512-2.047-3.652-2.047-6.203c0-2.584,0.63-5.67,3.307-7.527c1.229-0.82,2.74-1.324,4.473-1.324
			c2.268,0,4.976,0.883,6.425,3.844c1.07,2.172,1.008,4.504,0.944,5.826H100.146z M106.067,125.105c0-0.725-0.063-3.559-2.771-3.559
			c-2.047,0-2.897,1.701-2.992,3.559H106.067z"/>
		<path fill="#00435B" d="M113.971,121.736c0-0.063,0-1.795-0.094-2.898h4.472l0.126,2.395c0.441-0.725,1.701-2.771,5.165-2.771
			c3.118,0,4.44,1.889,4.85,2.992c0.346,0.977,0.441,1.795,0.441,4.756v8.598h-4.756v-9.891c0-0.66,0-1.227-0.252-1.73
			c-0.346-0.693-1.07-1.355-2.268-1.355c-1.008,0-1.921,0.473-2.425,1.229c-0.283,0.41-0.567,1.197-0.567,2.426v9.322h-4.693
			V121.736z"/>
		<path fill="#00435B" d="M142.503,134.586c-1.512,0.408-2.866,0.504-3.622,0.504c-4.693,0-4.693-2.961-4.693-4.283v-8.725h-3.055
			v-3.086h3.055v-3.117l4.629-1.701v4.818h3.779v3.086h-3.779v7.182c0.032,1.447,0.032,2.361,2.11,2.361
			c0.693,0,1.008-0.031,1.575-0.094V134.586z"/>
		<path fill="#00435B" d="M148.644,130.207c0.063,1.008,0.693,2.174,2.646,2.174c1.669,0,2.457-0.945,2.457-1.889
			c0-0.725-0.378-1.293-2.205-1.797l-2.897-0.787c-1.291-0.377-4.031-1.164-4.031-4.408c0-3.086,2.834-4.977,6.96-4.977
			c3.275,0,5.921,1.512,6.047,4.693h-4.251c-0.126-1.764-1.543-1.891-2.268-1.891c-1.26,0-2.205,0.6-2.205,1.574
			c0,1.072,0.787,1.293,2.173,1.67l2.866,0.787c2.897,0.787,4.252,2.268,4.252,4.441c0,2.74-2.362,5.48-7.307,5.48
			c-2.047,0-4-0.441-5.449-1.953c-1.04-1.104-1.134-2.363-1.166-3.119H148.644z"/>
	</g>
	<g>
		<g>
			<path fill="#00435B" d="M4.945,156.121l2.929,11.998l3.37-11.998h5.133l3.339,11.998l3.118-11.998h4.629l-5.448,15.904h-5.07
				l-3.275-11.779l-3.339,11.779H5.197L0,156.121H4.945z"/>
			<path fill="#00435B" d="M29.729,149.285h4.976v4.064h-4.976V149.285z M29.887,156.088h4.661v15.938h-4.661V156.088z"/>
			<path fill="#00435B" d="M47.995,171.805c-1.512,0.408-2.866,0.504-3.622,0.504c-4.692,0-4.692-2.961-4.692-4.283v-8.725h-3.055
				v-3.086h3.055v-3.117l4.63-1.701v4.818h3.779v3.086h-3.779v7.182c0.031,1.447,0.031,2.361,2.11,2.361
				c0.693,0,1.008-0.031,1.575-0.094V171.805z"/>
			<path fill="#00435B" d="M51.018,149.285h4.63v9.008c0.535-0.756,1.701-2.393,4.598-2.393c2.362,0,3.874,1.164,4.629,2.141
				c0.567,0.787,1.04,2.236,1.04,4.314v9.67h-4.629v-9.512c0-0.914,0-3.465-2.614-3.465c-1.323,0-2.992,0.756-2.992,3.244
				l0.032,9.732h-4.693V149.285z"/>
			<path fill="#00435B" d="M91.833,156.688c-0.094-0.787-0.378-4-3.685-4c-3.622,0-5.133,3.779-5.133,8.473
				c0,1.354,0,7.811,4.755,7.811c2.047,0,4-1.293,4.095-4.316h5.133c-0.094,1.355-0.22,3.465-2.047,5.355
				c-2.016,2.078-4.566,2.551-6.645,2.551c-7.842,0-10.393-5.795-10.393-11.434c0-7.211,4.031-11.998,10.425-11.998
				c4.976,0,8.472,3.023,8.472,7.559H91.833z"/>
			<path fill="#00435B" d="M99.956,149.254h4.882v9.102h8.598v-9.102h4.945v22.771h-4.881v-9.984h-8.661v9.984h-4.882V149.254z"/>
			<path fill="#00435B" d="M122.631,149.318l7.527,0.031c1.26,0,5.102,0.031,7.842,2.047c2.866,2.109,3.874,5.699,3.874,8.943
				c0,6.992-3.748,10.646-8.063,11.434c-0.85,0.156-1.795,0.252-4.094,0.252h-7.086V149.318z M127.575,168.277
				c0.535,0.031,1.354,0.063,1.921,0.063c2.079,0,3.874-0.158,5.291-1.574c1.921-1.922,2.047-5.322,2.047-6.426
				c0-3.211-1.102-6.172-4.157-7.023c-1.008-0.283-2.299-0.439-5.102-0.314V168.277z"/>
		</g>
		<g>
			<path fill="#00435B" d="M144.946,144.652c1.193-0.514,2.332-1.156,3.396-1.928h2.368v12.813h-2.772v-9.967
				c-0.532,0.404-1.597,1.064-2.992,1.633V144.652z"/>
			<path fill="#00435B" d="M158,153.096l-2.184,4.516h-1.891l1.358-4.516H158z"/>
			<path fill="#00435B" d="M158.974,152.949l3.322-3.029c0.587-0.531,1.249-1.119,1.928-1.945c0.716-0.863,0.881-1.266,0.881-1.854
				c0-0.973-0.569-1.635-1.523-1.635c-1.469,0-1.597,1.506-1.615,1.873h-2.809c0-0.514,0-1.469,0.752-2.404
				c0.734-0.918,2.093-1.395,3.653-1.395c2.791,0,4.332,1.504,4.332,3.486c0,1.322-0.514,3.029-6.058,7.49
				c1.854-0.037,2.075-0.055,3.524-0.074c1.964-0.037,2.185-0.037,2.607-0.055v2.129h-8.995V152.949z"/>
			<path fill="#00435B" d="M173.312,153.096l-2.184,4.516h-1.891l1.358-4.516H173.312z"/>
			<path fill="#00435B" d="M177.021,152.051c0.019,0.402,0.128,1.707,1.652,1.707c1.028,0,1.652-0.754,1.652-1.744
				c0-1.891-1.817-1.891-3.157-1.891v-2.148c1.285-0.037,3.176-0.074,3.176-1.908c0-1.01-0.753-1.523-1.579-1.523
				c-0.79,0-1.561,0.531-1.561,1.596h-2.809c0.055-0.568,0.11-1.377,0.753-2.166c0.844-1.027,2.203-1.412,3.561-1.412
				c3.268,0,4.313,2.092,4.313,3.486c0,2.148-1.891,2.736-2.459,2.9c0.404,0.129,0.936,0.295,1.523,0.789
				c0.899,0.754,1.046,1.689,1.046,2.295c0,2.166-1.982,3.781-4.644,3.781c-0.918,0-2.258-0.201-3.084-0.863
				c-1.138-0.936-1.175-2.385-1.175-2.898H177.021z"/>
		</g>
	</g>
</g>
</svg>
