<?xml version="1.0" encoding="utf-8"?>
<!-- Generator: Adobe Illustrator 17.0.0, SVG Export Plug-In . SVG Version: 6.00 Build 0)  -->
<!DOCTYPE svg PUBLIC "-//W3C//DTD SVG 1.1//EN" "http://www.w3.org/Graphics/SVG/1.1/DTD/svg11.dtd">
<svg version="1.1" id="Layer_1" xmlns="http://www.w3.org/2000/svg" xmlns:xlink="http://www.w3.org/1999/xlink" x="0px" y="0px"
	 width="449.98px" height="347.804px" viewBox="0 0 449.98 347.804" enable-background="new 0 0 449.98 347.804"
	 xml:space="preserve">
<g>
	<g>
		<radialGradient id="SVGID_2_" cx="224.9899" cy="173.9022" r="201.0752" gradientUnits="userSpaceOnUse">
			<stop  offset="0" style="stop-color:#A0D4E4;stop-opacity:0"/>
			<stop  offset="0.0392" style="stop-color:#9DD2E5;stop-opacity:0.197"/>
			<stop  offset="0.0707" style="stop-color:#93CDE6;stop-opacity:0.3552"/>
			<stop  offset="0.0995" style="stop-color:#82C4E9;stop-opacity:0.5"/>
			<stop  offset="0.1267" style="stop-color:#6AB8ED;stop-opacity:0.6367"/>
			<stop  offset="0.1528" style="stop-color:#4BA8F2;stop-opacity:0.7679"/>
			<stop  offset="0.1777" style="stop-color:#2694F9;stop-opacity:0.893"/>
			<stop  offset="0.199" style="stop-color:#0080FF"/>
			<stop  offset="0.2012" style="stop-color:#007FFC"/>
			<stop  offset="0.2379" style="stop-color:#006CD3"/>
			<stop  offset="0.2776" style="stop-color:#015BAF"/>
			<stop  offset="0.3223" style="stop-color:#014D8F"/>
			<stop  offset="0.3717" style="stop-color:#014073"/>
			<stop  offset="0.4275" style="stop-color:#02365D"/>
			<stop  offset="0.4927" style="stop-color:#022E4C"/>
			<stop  offset="0.5733" style="stop-color:#022941"/>
			<stop  offset="0.6863" style="stop-color:#02263A"/>
			<stop  offset="1" style="stop-color:#022538"/>
		</radialGradient>
		<path fill="url(#SVGID_2_)" d="M449.98,306.016c0,14.389-11.665,26.054-26.054,26.054c0,0-156.372,15.935-208.693,15.733
			c-47.458-0.183-189.179-15.733-189.179-15.733C11.665,332.069,0,320.405,0,306.016V38.723c0-14.389,11.665-26.054,26.054-26.054
			c0,0,141.884-12.669,189.179-12.669c52.173,0,208.693,12.669,208.693,12.669c14.389,0,26.054,11.665,26.054,26.054V306.016z"/>
		<g>
			<radialGradient id="SVGID_4_" cx="224.9899" cy="173.9022" r="196.7672" gradientUnits="userSpaceOnUse">
				<stop  offset="0" style="stop-color:#FFFFFF"/>
				<stop  offset="1" style="stop-color:#F7F7F7"/>
			</radialGradient>
			<path fill="url(#SVGID_4_)" d="M445.16,303.185c0,14.081-11.415,25.496-25.496,25.496c0,0-153.022,15.594-204.222,15.396
				c-46.441-0.179-185.126-15.396-185.126-15.396c-14.081,0-25.496-11.415-25.496-25.496V41.619
				c0-14.081,11.415-25.496,25.496-25.496c0,0,138.844-12.398,185.126-12.398c51.056,0,204.222,12.398,204.222,12.398
				c14.081,0,25.496,11.415,25.496,25.496V303.185z"/>
		</g>
	</g>
	<g>
		<defs>
			<rect id="SVGID_19_" x="10.697" y="19.704" width="435.182" height="288.131"/>
		</defs>
		<clipPath id="SVGID_6_">
			<use xlink:href="#SVGID_19_"  overflow="visible"/>
		</clipPath>
		<g opacity="0.9" clip-path="url(#SVGID_6_)">
			<g>
				<defs>
					<rect id="SVGID_21_" x="10.697" y="19.704" width="435.189" height="288.131"/>
				</defs>
				<clipPath id="SVGID_8_">
					<use xlink:href="#SVGID_21_"  overflow="visible"/>
				</clipPath>
				<g clip-path="url(#SVGID_8_)">
					<defs>
						<rect id="SVGID_23_" x="10.697" y="19.704" width="435.182" height="288.131"/>
					</defs>
					<clipPath id="SVGID_10_">
						<use xlink:href="#SVGID_23_"  overflow="visible"/>
					</clipPath>
				</g>
			</g>
		</g>
	</g>
	
		<line fill="none" stroke="#04617D" stroke-width="2.2501" stroke-miterlimit="10" x1="78.256" y1="46.273" x2="78.256" y2="269.176"/>
	
		<line fill="none" stroke="#04617D" stroke-width="2.2501" stroke-miterlimit="10" x1="71.059" y1="261.044" x2="425.526" y2="261.044"/>
	<line fill="none" stroke="#04617D" stroke-width="2.2501" stroke-miterlimit="10" x1="70.159" y1="45.67" x2="79.156" y2="45.67"/>
	
		<line fill="none" stroke="#04617D" stroke-width="2.2501" stroke-miterlimit="10" x1="70.159" y1="116.132" x2="79.156" y2="116.132"/>
	
		<line fill="none" stroke="#04617D" stroke-width="2.2501" stroke-miterlimit="10" x1="70.159" y1="81.214" x2="79.156" y2="81.214"/>
	
		<line fill="none" stroke="#04617D" stroke-width="2.2501" stroke-miterlimit="10" x1="70.159" y1="152.153" x2="79.156" y2="152.153"/>
	
		<line fill="none" stroke="#04617D" stroke-width="2.2501" stroke-miterlimit="10" x1="70.159" y1="187.846" x2="79.156" y2="187.846"/>
	
		<line fill="none" stroke="#04617D" stroke-width="2.2501" stroke-miterlimit="10" x1="70.159" y1="223.089" x2="79.156" y2="223.089"/>
	
		<line fill="none" stroke="#04617D" stroke-width="2.2501" stroke-miterlimit="10" x1="150.68" y1="270.081" x2="150.68" y2="261.044"/>
	
		<line fill="none" stroke="#04617D" stroke-width="2.2501" stroke-miterlimit="10" x1="216.354" y1="270.081" x2="216.354" y2="261.044"/>
	
		<line fill="none" stroke="#04617D" stroke-width="2.2501" stroke-miterlimit="10" x1="352.205" y1="270.081" x2="352.205" y2="261.044"/>
	
		<line fill="none" stroke="#04617D" stroke-width="2.2501" stroke-miterlimit="10" x1="284.728" y1="270.081" x2="284.728" y2="261.044"/>
	
		<line fill="none" stroke="#04617D" stroke-width="2.2501" stroke-miterlimit="10" x1="424.739" y1="269.743" x2="424.739" y2="260.707"/>
	<g>
		<defs>
			<rect id="SVGID_25_" x="10.697" y="19.704" width="435.182" height="288.131"/>
		</defs>
		<clipPath id="SVGID_12_">
			<use xlink:href="#SVGID_25_"  overflow="visible"/>
		</clipPath>
		<g clip-path="url(#SVGID_12_)">
			<path fill="#04607D" d="M216.538,298.997v-8.106h-3.065v-1.081h7.383v1.081h-3.065v8.106H216.538z"/>
			<path fill="#04607D" d="M222.187,289.834h1.431v1.311h-1.431V289.834z M222.314,292.609h1.191v6.388h-1.191V292.609z"/>
			<path fill="#04607D" d="M225.81,293.461l-0.025-0.853h1.203v0.929c0.608-1.006,1.469-1.095,2.014-1.095
				c1.406,0,1.849,0.726,2.077,1.196c0.215-0.356,0.734-1.196,2.14-1.196c0.912,0,2.33,0.382,2.33,2.266v4.288h-1.203v-4.098
				c0-0.56-0.101-0.802-0.215-0.967c-0.203-0.293-0.608-0.561-1.216-0.561c-0.773,0-1.191,0.446-1.355,0.675
				c-0.278,0.395-0.278,1.095-0.278,1.374v3.576h-1.203v-4.225c0-0.789-0.456-1.4-1.394-1.4c-0.811,0-1.253,0.51-1.393,0.7
				c-0.266,0.369-0.278,0.891-0.278,1.298v3.627h-1.203V293.461z"/>
			<path fill="#04607D" d="M238.501,296.019c-0.025,1.323,0.519,2.304,1.824,2.304c0.772,0,1.393-0.407,1.495-1.324h1.19
				c-0.038,0.318-0.089,0.84-0.545,1.337c-0.278,0.317-0.912,0.853-2.191,0.853c-2.001,0-2.951-1.247-2.951-3.271
				c0-1.26,0.253-2.304,1.254-3.004c0.608-0.433,1.368-0.471,1.735-0.471c2.85,0,2.786,2.532,2.761,3.576H238.501z M241.857,295.179
				c0.013-0.611-0.101-1.884-1.57-1.884c-0.772,0-1.709,0.471-1.735,1.884H241.857z"/>
			<path fill="#04607D" d="M249.659,300.562c-0.684-1.692-1.507-3.805-1.507-5.663c0-1.005,0.228-1.998,0.52-2.965
				c0.354-1.146,0.684-1.96,0.899-2.507h0.836c-0.203,0.623-0.481,1.488-0.747,2.697c-0.266,1.171-0.354,1.96-0.354,2.749
				c0,1.808,0.443,3.271,1.178,5.688H249.659z"/>
			<path fill="#04607D" d="M255.422,299.035l-0.912,2.38h-1.229l0.962-2.443l-2.647-6.362h1.343l1.988,5.039l2.026-5.039h1.292
				L255.422,299.035z"/>
			<path fill="#04607D" d="M260.323,296.019c-0.025,1.323,0.519,2.304,1.824,2.304c0.772,0,1.393-0.407,1.495-1.324h1.19
				c-0.038,0.318-0.089,0.84-0.545,1.337c-0.278,0.317-0.912,0.853-2.191,0.853c-2.001,0-2.951-1.247-2.951-3.271
				c0-1.26,0.253-2.304,1.254-3.004c0.608-0.433,1.368-0.471,1.735-0.471c2.85,0,2.786,2.532,2.761,3.576H260.323z M263.679,295.179
				c0.013-0.611-0.101-1.884-1.57-1.884c-0.772,0-1.709,0.471-1.735,1.884H263.679z"/>
			<path fill="#04607D" d="M270.519,298.997c-0.088-0.318-0.114-0.623-0.114-0.954c-0.57,1.057-1.431,1.158-1.963,1.158
				c-1.457,0-2.242-0.827-2.242-1.884c0-0.509,0.177-1.323,1.114-1.87c0.684-0.382,1.697-0.42,2.204-0.42
				c0.304,0,0.494,0.013,0.861,0.038c0-0.789,0-1.133-0.228-1.413c-0.241-0.318-0.76-0.42-1.102-0.42
				c-1.203,0-1.267,0.827-1.279,1.082h-1.19c0.038-0.331,0.076-0.776,0.443-1.209c0.481-0.535,1.38-0.688,2.052-0.688
				c0.924,0,1.912,0.293,2.254,0.941c0.203,0.382,0.215,0.688,0.215,0.98l-0.05,3.054c0,0.103,0.013,0.955,0.101,1.604H270.519z
				 M269.696,295.854c-0.481,0-2.292,0-2.292,1.298c0,0.407,0.253,1.106,1.317,1.106c0.608,0,1.064-0.241,1.355-0.687
				c0.266-0.433,0.278-0.789,0.304-1.68C270.165,295.867,269.987,295.854,269.696,295.854z"/>
			<path fill="#04607D" d="M273.749,293.907c0-0.433-0.025-0.878-0.063-1.298h1.203l0.025,1.234c0.228-0.892,0.988-1.184,1.52-1.26
				c0.354-0.052,0.621-0.039,0.823-0.026v1.171c-0.063-0.025-0.139-0.038-0.228-0.051s-0.203-0.013-0.342-0.013
				c-1.406,0-1.735,0.84-1.735,1.935v3.397h-1.203V293.907z"/>
			<path fill="#04607D" d="M279.537,297.101c-0.013,0.483,0.241,1.157,1.393,1.157c0.494,0,0.861-0.089,1.115-0.407
				c0.126-0.165,0.203-0.381,0.203-0.598c0-0.624-0.443-0.738-1.393-0.954c-1.33-0.306-2.444-0.573-2.444-1.909
				c0-1.171,1.013-1.935,2.482-1.935c0.798,0,1.913,0.229,2.292,0.993c0.165,0.356,0.165,0.661,0.165,0.929h-1.216
				c0.038-0.967-0.798-1.044-1.229-1.044c-0.177,0-1.292,0-1.292,0.917c0,0.585,0.57,0.725,0.899,0.814
				c1.761,0.42,2.141,0.521,2.521,0.878c0.354,0.331,0.481,0.776,0.481,1.184c0,0.712-0.393,1.323-0.861,1.616
				c-0.558,0.343-1.229,0.433-1.887,0.433c-1.292,0-2.495-0.535-2.482-2.074H279.537z"/>
			<path fill="#04607D" d="M285.858,289.427c0.684,1.692,1.507,3.792,1.507,5.65c0,1.005-0.228,1.998-0.52,2.965
				c-0.354,1.146-0.684,1.973-0.899,2.52h-0.836c0.203-0.636,0.481-1.502,0.747-2.711c0.266-1.157,0.354-1.959,0.354-2.748
				c0-1.795-0.443-3.258-1.178-5.676H285.858z"/>
		</g>
		<g clip-path="url(#SVGID_12_)">
			<path fill="#04607D" d="M24.102,239.741v-2.659c0-1.234,0-2.686,1.19-3.703c0.95-0.814,2.204-1.133,3.458-1.133
				c1.976,0,3.191,0.827,3.749,1.527c0.747,0.903,0.747,2.036,0.747,3.385v2.583H24.102z M32.207,238.468v-1.247
				c0-0.878-0.051-1.794-0.506-2.405c-0.874-1.17-2.369-1.209-2.9-1.209c-0.342,0-1.9,0.025-2.85,0.892
				c-0.646,0.585-0.798,1.323-0.798,2.443v1.526H32.207z"/>
			<path fill="#04607D" d="M30.282,229.831c1.317,0.025,2.292-0.521,2.292-1.832c0-0.776-0.405-1.4-1.317-1.502V225.3
				c0.316,0.038,0.836,0.089,1.33,0.547c0.317,0.28,0.849,0.917,0.849,2.202c0,2.011-1.241,2.965-3.255,2.965
				c-1.254,0-2.292-0.255-2.989-1.26c-0.431-0.61-0.469-1.374-0.469-1.743c0-2.863,2.521-2.8,3.559-2.774V229.831z M29.446,226.458
				c-0.608-0.013-1.875,0.102-1.875,1.578c0,0.776,0.469,1.718,1.875,1.743V226.458z"/>
			<path fill="#04607D" d="M33.246,219.588c-0.316,0.089-0.621,0.114-0.95,0.114c1.051,0.573,1.152,1.438,1.152,1.973
				c0,1.464-0.823,2.253-1.875,2.253c-0.506,0-1.317-0.179-1.862-1.12c-0.38-0.688-0.417-1.705-0.417-2.215
				c0-0.305,0.012-0.496,0.038-0.865c-0.785,0-1.127,0-1.406,0.229c-0.316,0.241-0.418,0.764-0.418,1.107
				c0,1.209,0.823,1.272,1.077,1.285v1.196c-0.329-0.038-0.772-0.077-1.203-0.445c-0.532-0.484-0.684-1.388-0.684-2.063
				c0-0.929,0.292-1.921,0.938-2.265c0.38-0.204,0.684-0.217,0.975-0.217l3.04,0.052c0.101,0,0.95-0.014,1.596-0.103V219.588z
				 M30.117,220.416c0,0.483,0,2.304,1.292,2.304c0.405,0,1.102-0.255,1.102-1.324c0-0.61-0.241-1.068-0.684-1.361
				c-0.431-0.268-0.785-0.28-1.672-0.306C30.13,219.945,30.117,220.123,30.117,220.416z"/>
			<path fill="#04607D" d="M26.863,217.389v-1.133h-1.33l-0.38-1.184h1.71v-1.425h0.874v1.425h3.812c0.317,0,0.849,0,0.849-0.853
				c0-0.241-0.038-0.471-0.063-0.572h0.925c0.038,0.216,0.076,0.56,0.076,0.992c0,1.095-0.317,1.616-1.355,1.616h-4.243v1.133
				H26.863z"/>
			<path fill="#04607D" d="M24.114,212.172v-1.208h3.711c-0.671-0.395-1.051-1.184-1.051-2.075c0-0.674,0.241-1.642,1.013-2.011
				c0.253-0.127,0.557-0.216,1.482-0.216h3.977v1.222h-3.761c-0.57,0-1.799,0-1.799,1.374c0,0.892,0.545,1.337,0.849,1.502
				c0.355,0.204,0.95,0.204,1.343,0.204h3.369v1.208H24.114z"/>
			<path fill="#04607D" d="M26.723,198.088c0-2.558,2.001-3.131,3.331-3.131c1.862,0,3.407,1.057,3.407,3.232
				c0,2.113-1.457,3.144-3.318,3.144C28.572,201.333,26.723,200.595,26.723,198.088z M32.574,198.165
				c0-0.903-0.646-1.934-2.558-1.934c-1.583,0-2.419,0.737-2.419,1.857c0,0.764,0.481,1.998,2.47,1.998
				C31.371,200.086,32.574,199.527,32.574,198.165z"/>
			<path fill="#04607D" d="M28.18,193.026c-0.431,0-0.874,0.025-1.292,0.063v-1.208l1.229-0.026
				c-0.886-0.229-1.178-0.992-1.253-1.526c-0.051-0.356-0.038-0.624-0.025-0.827h1.165c-0.025,0.063-0.038,0.14-0.051,0.229
				s-0.013,0.204-0.013,0.344c0,1.413,0.836,1.743,1.925,1.743h3.381v1.209H28.18z"/>
			<path fill="#04607D" d="M27.737,184.618l-0.849,0.025v-1.209h0.925c-1-0.611-1.089-1.477-1.089-2.023
				c0-1.413,0.722-1.858,1.19-2.087c-0.354-0.217-1.19-0.738-1.19-2.151c0-0.916,0.38-2.342,2.254-2.342h4.268v1.209h-4.078
				c-0.557,0-0.798,0.103-0.962,0.217c-0.292,0.203-0.557,0.61-0.557,1.222c0,0.776,0.443,1.196,0.671,1.361
				c0.393,0.28,1.089,0.28,1.368,0.28h3.559v1.209h-4.205c-0.785,0-1.393,0.458-1.393,1.399c0,0.814,0.506,1.261,0.696,1.4
				c0.367,0.268,0.887,0.28,1.292,0.28h3.609v1.209H27.737z"/>
			<path fill="#04607D" d="M33.246,168.701c-0.316,0.089-0.621,0.114-0.95,0.114c1.051,0.573,1.152,1.438,1.152,1.973
				c0,1.464-0.823,2.253-1.875,2.253c-0.506,0-1.317-0.179-1.862-1.12c-0.38-0.688-0.417-1.705-0.417-2.215
				c0-0.305,0.012-0.496,0.038-0.865c-0.785,0-1.127,0-1.406,0.229c-0.316,0.241-0.418,0.764-0.418,1.107
				c0,1.209,0.823,1.272,1.077,1.285v1.196c-0.329-0.038-0.772-0.077-1.203-0.445c-0.532-0.484-0.684-1.388-0.684-2.063
				c0-0.929,0.292-1.921,0.938-2.265c0.38-0.204,0.684-0.217,0.975-0.217l3.04,0.052c0.101,0,0.95-0.014,1.596-0.103V168.701z
				 M30.117,169.528c0,0.483,0,2.304,1.292,2.304c0.405,0,1.102-0.255,1.102-1.324c0-0.61-0.241-1.068-0.684-1.361
				c-0.431-0.268-0.785-0.28-1.672-0.306C30.13,169.057,30.117,169.235,30.117,169.528z"/>
			<path fill="#04607D" d="M24.127,165.598v-1.451h1.317v1.451H24.127z M34.842,166.654c0.038-0.941-0.126-1.171-1.14-1.171h-6.814
				v-1.196h6.953c0.608,0,1.9,0.026,1.9,1.629c0,0.153-0.013,0.407-0.051,0.738H34.842z"/>
			<path fill="#04607D" d="M26.723,159.21c0-2.558,2.001-3.131,3.331-3.131c1.862,0,3.407,1.057,3.407,3.232
				c0,2.113-1.457,3.144-3.318,3.144C28.572,162.456,26.723,161.717,26.723,159.21z M32.574,159.287
				c0-0.903-0.646-1.934-2.558-1.934c-1.583,0-2.419,0.737-2.419,1.857c0,0.764,0.481,1.998,2.47,1.998
				C31.371,161.208,32.574,160.649,32.574,159.287z"/>
			<path fill="#04607D" d="M28.18,154.148c-0.431,0-0.874,0.025-1.292,0.063v-1.209l1.229-0.025
				c-0.886-0.229-1.178-0.992-1.253-1.527c-0.051-0.356-0.038-0.623-0.025-0.827h1.165c-0.025,0.063-0.038,0.141-0.051,0.229
				s-0.013,0.203-0.013,0.344c0,1.412,0.836,1.743,1.925,1.743h3.381v1.209H28.18z"/>
			<path fill="#04607D" d="M26.571,140.19c-0.317,0.052-1.583,0.217-1.583,1.985c0,2.215,2.254,2.609,3.774,2.609
				c1.723,0,3.584-0.497,3.584-2.597c0-0.56-0.139-1.094-0.544-1.488c-0.354-0.331-0.747-0.407-0.962-0.445v-1.4
				c1.798,0.191,2.545,1.858,2.545,3.437c0,3.231-2.837,3.855-4.61,3.855c-1.925,0-4.8-0.751-4.8-4.021
				c0-1.298,0.519-3.131,2.596-3.296V140.19z"/>
			<path fill="#04607D" d="M33.246,133.512v1.399l-9.144,3.271v-1.412l7.814-2.609l-7.814-2.748v-1.285L33.246,133.512z"/>
			<path fill="#04607D" d="M30.282,124.493c1.317,0.025,2.292-0.521,2.292-1.832c0-0.776-0.405-1.4-1.317-1.502v-1.196
				c0.316,0.038,0.836,0.089,1.33,0.547c0.317,0.28,0.849,0.917,0.849,2.202c0,2.011-1.241,2.965-3.255,2.965
				c-1.254,0-2.292-0.255-2.989-1.26c-0.431-0.61-0.469-1.374-0.469-1.743c0-2.863,2.521-2.8,3.559-2.774V124.493z M29.446,121.121
				c-0.608-0.013-1.875,0.102-1.875,1.578c0,0.776,0.469,1.718,1.875,1.743V121.121z"/>
			<path fill="#04607D" d="M26.888,119.112v-1.336l5.041-2.036l-5.041-1.985v-1.323l6.358,2.8v1.209L26.888,119.112z"/>
			<path fill="#04607D" d="M30.282,110.346c1.317,0.025,2.292-0.522,2.292-1.833c0-0.776-0.405-1.399-1.317-1.501v-1.196
				c0.316,0.038,0.836,0.089,1.33,0.547c0.317,0.28,0.849,0.916,0.849,2.201c0,2.011-1.241,2.966-3.255,2.966
				c-1.254,0-2.292-0.255-2.989-1.26c-0.431-0.611-0.469-1.375-0.469-1.744c0-2.863,2.521-2.8,3.559-2.774V110.346z M29.446,106.973
				c-0.608-0.013-1.875,0.103-1.875,1.578c0,0.776,0.469,1.719,1.875,1.744V106.973z"/>
			<path fill="#04607D" d="M27.623,103.959l-0.735,0.013v-1.196l1.026-0.013c-0.266-0.14-1.152-0.598-1.152-2.049
				c0-0.572,0.215-2.315,2.166-2.315h4.319v1.222h-4.04c-0.418,0-0.798,0.051-1.089,0.344c-0.291,0.305-0.431,0.725-0.431,1.132
				c0,0.865,0.621,1.667,1.9,1.667h3.66v1.196H27.623z"/>
			<path fill="#04607D" d="M26.863,97.205v-1.132h-1.33l-0.38-1.184h1.71v-1.426h0.874v1.426h3.812c0.317,0,0.849,0,0.849-0.853
				c0-0.242-0.038-0.472-0.063-0.573h0.925c0.038,0.217,0.076,0.561,0.076,0.993c0,1.094-0.317,1.616-1.355,1.616h-4.243v1.132
				H26.863z"/>
			<path fill="#04607D" d="M34.803,87.128c-1.684,0.687-3.787,1.514-5.636,1.514c-1,0-1.988-0.229-2.951-0.521
				c-1.14-0.356-1.951-0.688-2.495-0.903v-0.84c0.621,0.203,1.482,0.483,2.685,0.751c1.165,0.267,1.95,0.356,2.735,0.356
				c1.798,0,3.255-0.445,5.661-1.184V87.128z"/>
			<path fill="#04607D" d="M33.74,82.981l-9.752-5.612v-0.84l9.752,5.612V82.981z M26.483,80.538c1.571,0,2.292,0.929,2.292,2.087
				c0,1.107-0.659,2.049-2.216,2.049c-1.33,0-2.318-0.726-2.318-2.163C24.241,81.046,25.33,80.538,26.483,80.538z M26.533,81.542
				c-0.621,0-1.532,0.153-1.532,1.057c0,1.095,1.241,1.095,1.545,1.095c0.292,0,1.495,0,1.495-1.095
				C28.041,81.542,26.787,81.542,26.533,81.542z M29.472,75.218c0.253-0.229,0.658-0.521,1.608-0.521
				c1.38,0,2.317,0.674,2.317,2.049c0,1.629-1.203,2.087-2.254,2.087c-1.532,0-2.279-0.955-2.279-2.087
				C28.864,76.401,28.927,75.714,29.472,75.218z M31.106,75.664c-0.393,0-1.533,0.076-1.533,1.069c0,1.094,1.317,1.094,1.697,1.094
				c0.443,0,1.38-0.102,1.38-1.069C32.651,75.74,31.561,75.664,31.106,75.664z"/>
			<path fill="#04607D" d="M23.722,72.231c1.685-0.687,3.774-1.514,5.623-1.514c1,0,1.988,0.229,2.951,0.521
				c1.14,0.356,1.963,0.688,2.507,0.904v0.84c-0.633-0.204-1.494-0.483-2.697-0.751c-1.153-0.267-1.951-0.356-2.736-0.356
				c-1.786,0-3.242,0.446-5.648,1.184V72.231z"/>
		</g>
		<g clip-path="url(#SVGID_12_)">
			<path fill="#04607D" d="M80.852,273.443c2.622,0,2.938,2.825,2.938,4.479c0,2.087-0.418,3.258-1.216,4.009
				c-0.621,0.585-1.355,0.675-1.748,0.675c-1.165,0-1.963-0.688-2.343-1.464c-0.291-0.585-0.57-1.438-0.57-3.016
				C77.914,276.815,78.066,273.443,80.852,273.443z M80.84,281.549c1.469,0,1.722-1.935,1.722-3.513
				c0-2.112-0.367-3.575-1.697-3.575c-1.533,0-1.735,2.023-1.735,3.602C79.13,280.022,79.509,281.549,80.84,281.549z"/>
		</g>
		<g clip-path="url(#SVGID_12_)">
			<path fill="#04607D" d="M64.654,256.574c2.622,0,2.938,2.825,2.938,4.479c0,2.087-0.418,3.258-1.216,4.009
				c-0.621,0.585-1.355,0.675-1.748,0.675c-1.165,0-1.963-0.688-2.343-1.464c-0.291-0.585-0.57-1.438-0.57-3.016
				C61.716,259.946,61.868,256.574,64.654,256.574z M64.641,264.68c1.469,0,1.722-1.935,1.722-3.513
				c0-2.112-0.367-3.575-1.697-3.575c-1.533,0-1.735,2.023-1.735,3.602C62.931,263.153,63.311,264.68,64.641,264.68z"/>
		</g>
		<g clip-path="url(#SVGID_12_)">
			<path fill="#04607D" d="M63.185,226.12c0.025,0.891,0.798,1.247,1.457,1.247c1.532,0,1.735-1.45,1.735-2.023
				c0-1.196-0.646-1.896-1.659-1.896c-0.506,0-0.912,0.19-1.178,0.458c-0.266,0.267-0.342,0.534-0.405,0.738h-1.152l0.228-5.243
				h4.927v1.03h-3.838l-0.165,2.851c0.266-0.267,0.823-0.814,1.849-0.814c1.76,0,2.622,1.388,2.622,2.901
				c0,1.731-1.216,3.042-3.128,3.042c-1.418,0-2.546-0.789-2.609-2.291H63.185z"/>
		</g>
		<g clip-path="url(#SVGID_12_)">
			<path fill="#04607D" d="M57.395,184.949c-0.544,0.458-1.418,0.979-2.039,1.272v-1.272c0.823-0.433,1.634-0.967,2.128-1.387h1.127
				v8.806h-1.216V184.949z"/>
			<path fill="#04607D" d="M63.804,183.383c2.622,0,2.938,2.825,2.938,4.479c0,2.087-0.418,3.258-1.216,4.009
				c-0.621,0.585-1.355,0.675-1.748,0.675c-1.165,0-1.963-0.688-2.343-1.464c-0.291-0.585-0.57-1.438-0.57-3.016
				C60.866,186.755,61.018,183.383,63.804,183.383z M63.792,191.49c1.469,0,1.722-1.935,1.722-3.513
				c0-2.112-0.367-3.575-1.697-3.575c-1.533,0-1.735,2.023-1.735,3.602C62.082,189.962,62.462,191.49,63.792,191.49z"/>
		</g>
		<g clip-path="url(#SVGID_12_)">
			<path fill="#04607D" d="M57.395,150.001c-0.544,0.458-1.418,0.979-2.039,1.272v-1.272c0.823-0.433,1.634-0.967,2.128-1.387h1.127
				v8.806h-1.216V150.001z"/>
			<path fill="#04607D" d="M62.854,155.333c0.025,0.891,0.798,1.247,1.457,1.247c1.532,0,1.735-1.45,1.735-2.023
				c0-1.196-0.646-1.896-1.659-1.896c-0.506,0-0.912,0.19-1.178,0.458c-0.266,0.267-0.342,0.534-0.405,0.738h-1.152l0.228-5.243
				h4.926v1.03h-3.837l-0.165,2.851c0.266-0.267,0.823-0.814,1.849-0.814c1.76,0,2.622,1.388,2.622,2.901
				c0,1.731-1.216,3.042-3.128,3.042c-1.418,0-2.546-0.789-2.609-2.291H62.854z"/>
		</g>
		<g clip-path="url(#SVGID_12_)">
			<path fill="#04607D" d="M54.634,119.508l2.292-2.265c0.481-0.471,0.963-0.98,1.355-1.515c0.506-0.7,0.646-1.095,0.646-1.565
				c0-0.433-0.152-1.438-1.406-1.438c-1.406,0-1.431,1.209-1.431,1.54h-1.33c0.013-0.434,0.051-1.273,0.811-1.935
				c0.608-0.521,1.342-0.637,1.9-0.637c1.342,0,2.71,0.688,2.71,2.571c0,0.56-0.038,0.992-0.988,2.201
				c-0.253,0.318-1.368,1.477-1.621,1.73l-1.532,1.464h4.167v1.005h-5.572V119.508z"/>
			<path fill="#04607D" d="M64.501,111.682c2.622,0,2.938,2.825,2.938,4.479c0,2.087-0.418,3.258-1.216,4.009
				c-0.621,0.585-1.355,0.675-1.748,0.675c-1.165,0-1.963-0.688-2.343-1.464c-0.291-0.585-0.57-1.438-0.57-3.016
				C61.562,115.054,61.715,111.682,64.501,111.682z M64.488,119.789c1.469,0,1.722-1.935,1.722-3.513
				c0-2.112-0.367-3.575-1.697-3.575c-1.533,0-1.735,2.023-1.735,3.602C62.778,118.261,63.158,119.789,64.488,119.789z"/>
		</g>
		<g clip-path="url(#SVGID_12_)">
			<path fill="#04607D" d="M54.634,86.074l2.292-2.265c0.481-0.471,0.963-0.98,1.355-1.515c0.506-0.7,0.646-1.095,0.646-1.565
				c0-0.433-0.152-1.438-1.406-1.438c-1.406,0-1.431,1.209-1.431,1.54h-1.33c0.013-0.434,0.051-1.273,0.811-1.935
				c0.608-0.521,1.342-0.636,1.9-0.636c1.342,0,2.71,0.687,2.71,2.571c0,0.56-0.038,0.992-0.988,2.201
				c-0.253,0.318-1.368,1.477-1.621,1.73l-1.532,1.464h4.167v1.005h-5.572V86.074z"/>
			<path fill="#04607D" d="M63.031,85.145c0.025,0.891,0.798,1.247,1.457,1.247c1.532,0,1.735-1.45,1.735-2.023
				c0-1.196-0.646-1.896-1.659-1.896c-0.506,0-0.912,0.19-1.178,0.458c-0.266,0.267-0.342,0.534-0.405,0.738h-1.152l0.228-5.243
				h4.927v1.03h-3.838l-0.165,2.851c0.266-0.267,0.823-0.814,1.849-0.814c1.76,0,2.622,1.388,2.622,2.901
				c0,1.731-1.216,3.042-3.128,3.042c-1.418,0-2.546-0.789-2.609-2.291H63.031z"/>
		</g>
		<g clip-path="url(#SVGID_12_)">
			<path fill="#04607D" d="M55.787,47.018c-0.013,0.84,0.532,1.438,1.608,1.438c1.229,0,1.748-0.789,1.748-1.565
				c0-0.929-0.621-1.413-1.266-1.552c-0.456-0.089-0.772-0.077-1.216-0.064v-1.031c0.874,0.077,2.343-0.102,2.343-1.527
				c0-0.993-0.671-1.387-1.545-1.387c-0.659,0-1.482,0.292-1.596,1.387h-1.279c0.076-2.189,2.127-2.405,2.837-2.405
				c1.912,0,2.862,1.158,2.862,2.38c0,0.725-0.393,1.769-1.748,2.074c1.875,0.267,1.875,1.959,1.875,2.138
				c0,1.234-1,2.596-3.04,2.596c-0.924,0-1.849-0.267-2.406-0.916c-0.494-0.56-0.506-1.196-0.519-1.565H55.787z"/>
			<path fill="#04607D" d="M64.501,40.299c2.622,0,2.938,2.825,2.938,4.479c0,2.087-0.418,3.258-1.216,4.009
				c-0.621,0.585-1.355,0.674-1.748,0.674c-1.165,0-1.963-0.688-2.343-1.463c-0.291-0.585-0.57-1.438-0.57-3.016
				C61.562,43.671,61.715,40.299,64.501,40.299z M64.488,48.405c1.469,0,1.722-1.935,1.722-3.513c0-2.112-0.367-3.576-1.697-3.576
				c-1.533,0-1.735,2.023-1.735,3.602C62.778,46.878,63.158,48.405,64.488,48.405z"/>
		</g>
		<g clip-path="url(#SVGID_12_)">
			<path fill="#04607D" d="M145.323,273.443c2.622,0,2.938,2.825,2.938,4.479c0,2.087-0.418,3.258-1.216,4.009
				c-0.621,0.585-1.355,0.675-1.748,0.675c-1.165,0-1.963-0.688-2.343-1.464c-0.291-0.585-0.57-1.438-0.57-3.016
				C142.384,276.815,142.537,273.443,145.323,273.443z M145.31,281.549c1.469,0,1.722-1.935,1.722-3.513
				c0-2.112-0.367-3.575-1.697-3.575c-1.533,0-1.735,2.023-1.735,3.602C143.6,280.022,143.98,281.549,145.31,281.549z"/>
			<path fill="#04607D" d="M149.895,280.901h1.406v1.526h-1.406V280.901z"/>
			<path fill="#04607D" d="M154.417,280.34c0.025,0.891,0.798,1.247,1.457,1.247c1.532,0,1.735-1.45,1.735-2.023
				c0-1.196-0.646-1.896-1.659-1.896c-0.506,0-0.912,0.19-1.178,0.458c-0.266,0.267-0.342,0.534-0.405,0.738h-1.152l0.228-5.243
				h4.927v1.03h-3.838l-0.165,2.851c0.266-0.267,0.823-0.814,1.849-0.814c1.76,0,2.622,1.388,2.622,2.901
				c0,1.731-1.216,3.042-3.128,3.042c-1.418,0-2.546-0.789-2.609-2.291H154.417z"/>
		</g>
		<g clip-path="url(#SVGID_12_)">
			<path fill="#04607D" d="M211.235,275.008c-0.544,0.458-1.418,0.979-2.039,1.272v-1.272c0.823-0.433,1.634-0.967,2.128-1.387
				h1.127v8.806h-1.216V275.008z"/>
			<path fill="#04607D" d="M214.617,280.901h1.406v1.526h-1.406V280.901z"/>
			<path fill="#04607D" d="M220.608,273.443c2.622,0,2.938,2.825,2.938,4.479c0,2.087-0.418,3.258-1.216,4.009
				c-0.621,0.585-1.355,0.675-1.748,0.675c-1.165,0-1.963-0.688-2.343-1.464c-0.291-0.585-0.57-1.438-0.57-3.016
				C217.67,276.815,217.822,273.443,220.608,273.443z M220.595,281.549c1.469,0,1.722-1.935,1.722-3.513
				c0-2.112-0.367-3.575-1.697-3.575c-1.533,0-1.735,2.023-1.735,3.602C218.885,280.022,219.265,281.549,220.595,281.549z"/>
		</g>
		<g clip-path="url(#SVGID_12_)">
			<path fill="#04607D" d="M280.505,275.008c-0.544,0.458-1.418,0.979-2.039,1.272v-1.272c0.823-0.433,1.634-0.967,2.128-1.387
				h1.127v8.806h-1.216V275.008z"/>
			<path fill="#04607D" d="M283.886,280.901h1.406v1.526h-1.406V280.901z"/>
			<path fill="#04607D" d="M288.408,280.34c0.025,0.891,0.798,1.247,1.457,1.247c1.532,0,1.735-1.45,1.735-2.023
				c0-1.196-0.646-1.896-1.659-1.896c-0.506,0-0.912,0.19-1.178,0.458c-0.266,0.267-0.342,0.534-0.405,0.738h-1.152l0.228-5.243
				h4.927v1.03h-3.838l-0.165,2.851c0.266-0.267,0.823-0.814,1.849-0.814c1.76,0,2.622,1.388,2.622,2.901
				c0,1.731-1.216,3.042-3.128,3.042c-1.418,0-2.546-0.789-2.609-2.291H288.408z"/>
		</g>
		<g clip-path="url(#SVGID_12_)">
			<path fill="#04607D" d="M345.518,281.269l2.292-2.265c0.481-0.471,0.963-0.98,1.355-1.515c0.506-0.7,0.646-1.095,0.646-1.565
				c0-0.433-0.152-1.438-1.406-1.438c-1.406,0-1.431,1.209-1.431,1.54h-1.33c0.013-0.434,0.051-1.273,0.811-1.935
				c0.608-0.521,1.342-0.637,1.9-0.637c1.342,0,2.71,0.688,2.71,2.571c0,0.56-0.038,0.992-0.988,2.201
				c-0.253,0.318-1.368,1.477-1.621,1.73l-1.532,1.464h4.167v1.005h-5.572V281.269z"/>
			<path fill="#04607D" d="M352.915,280.901h1.406v1.526h-1.406V280.901z"/>
			<path fill="#04607D" d="M358.906,273.443c2.622,0,2.938,2.825,2.938,4.479c0,2.087-0.418,3.258-1.216,4.009
				c-0.621,0.585-1.355,0.675-1.748,0.675c-1.165,0-1.963-0.688-2.343-1.464c-0.291-0.585-0.57-1.438-0.57-3.016
				C355.967,276.815,356.12,273.443,358.906,273.443z M358.893,281.549c1.469,0,1.722-1.935,1.722-3.513
				c0-2.112-0.367-3.575-1.697-3.575c-1.533,0-1.735,2.023-1.735,3.602C357.183,280.022,357.563,281.549,358.893,281.549z"/>
		</g>
		<g clip-path="url(#SVGID_12_)">
			<path fill="#04607D" d="M415.637,281.269l2.292-2.265c0.481-0.471,0.963-0.98,1.355-1.515c0.506-0.7,0.646-1.095,0.646-1.565
				c0-0.433-0.152-1.438-1.406-1.438c-1.406,0-1.431,1.209-1.431,1.54h-1.33c0.013-0.434,0.051-1.273,0.811-1.935
				c0.608-0.521,1.342-0.637,1.9-0.637c1.342,0,2.71,0.688,2.71,2.571c0,0.56-0.038,0.992-0.988,2.201
				c-0.253,0.318-1.368,1.477-1.621,1.73l-1.532,1.464h4.167v1.005h-5.572V281.269z"/>
			<path fill="#04607D" d="M423.034,280.901h1.406v1.526h-1.406V280.901z"/>
			<path fill="#04607D" d="M427.556,280.34c0.025,0.891,0.798,1.247,1.457,1.247c1.532,0,1.735-1.45,1.735-2.023
				c0-1.196-0.646-1.896-1.659-1.896c-0.506,0-0.912,0.19-1.178,0.458c-0.266,0.267-0.342,0.534-0.405,0.738h-1.152l0.228-5.243
				h4.927v1.03h-3.838l-0.165,2.851c0.266-0.267,0.823-0.814,1.849-0.814c1.76,0,2.622,1.388,2.622,2.901
				c0,1.731-1.216,3.042-3.128,3.042c-1.418,0-2.546-0.789-2.609-2.291H427.556z"/>
		</g>
		<g clip-path="url(#SVGID_12_)">
			<path fill="#04607D" d="M298.205,210.69h2.828c1.029,0,1.73,0.059,2.303,0.682c0.421,0.435,0.62,1.01,0.62,1.645
				c0,0.646-0.21,1.198-0.667,1.656c-0.444,0.446-1.028,0.729-2.548,0.729h-1.368v3.771h-1.168V210.69z M299.373,214.415h1.391
				c0.771,0,1.952-0.06,1.952-1.445c0-1.328-1.099-1.328-1.707-1.328h-1.636V214.415z"/>
			<path fill="#04607D" d="M305.175,214.473c0-0.399-0.023-0.811-0.058-1.198h1.11l0.023,1.14c0.21-0.823,0.912-1.093,1.403-1.163
				c0.327-0.048,0.573-0.036,0.76-0.024v1.081c-0.059-0.023-0.128-0.035-0.21-0.047s-0.187-0.012-0.315-0.012
				c-1.297,0-1.602,0.775-1.602,1.786v3.137h-1.11V214.473z"/>
			<path fill="#04607D" d="M313.242,219.172c-0.082-0.294-0.105-0.575-0.105-0.881c-0.526,0.976-1.321,1.069-1.812,1.069
				c-1.344,0-2.069-0.764-2.069-1.739c0-0.47,0.164-1.222,1.028-1.727c0.631-0.353,1.566-0.388,2.034-0.388
				c0.281,0,0.456,0.012,0.795,0.035c0-0.729,0-1.046-0.21-1.305c-0.222-0.294-0.701-0.388-1.017-0.388
				c-1.11,0-1.169,0.764-1.181,0.999h-1.099c0.035-0.306,0.07-0.717,0.409-1.116c0.444-0.494,1.274-0.635,1.893-0.635
				c0.854,0,1.765,0.271,2.081,0.869c0.187,0.353,0.199,0.635,0.199,0.905l-0.046,2.819c0,0.095,0.011,0.882,0.093,1.48H313.242z
				 M312.483,216.271c-0.444,0-2.115,0-2.115,1.198c0,0.376,0.234,1.021,1.215,1.021c0.561,0,0.982-0.223,1.251-0.634
				c0.245-0.399,0.257-0.729,0.28-1.551C312.915,216.283,312.752,216.271,312.483,216.271z"/>
			<path fill="#04607D" d="M315.28,213.275h1.228l1.87,4.676l1.823-4.676h1.215l-2.571,5.897h-1.11L315.28,213.275z"/>
			<path fill="#04607D" d="M326.248,219.172c-0.082-0.294-0.105-0.575-0.105-0.881c-0.526,0.976-1.321,1.069-1.812,1.069
				c-1.344,0-2.069-0.764-2.069-1.739c0-0.47,0.164-1.222,1.028-1.727c0.631-0.353,1.566-0.388,2.034-0.388
				c0.281,0,0.456,0.012,0.795,0.035c0-0.729,0-1.046-0.21-1.305c-0.222-0.294-0.701-0.388-1.017-0.388
				c-1.11,0-1.169,0.764-1.181,0.999h-1.099c0.035-0.306,0.07-0.717,0.409-1.116c0.444-0.494,1.274-0.635,1.893-0.635
				c0.854,0,1.765,0.271,2.081,0.869c0.187,0.353,0.199,0.635,0.199,0.905l-0.046,2.819c0,0.095,0.011,0.882,0.093,1.48H326.248z
				 M325.488,216.271c-0.444,0-2.115,0-2.115,1.198c0,0.376,0.234,1.021,1.215,1.021c0.561,0,0.982-0.223,1.251-0.634
				c0.245-0.399,0.257-0.729,0.28-1.551C325.921,216.283,325.758,216.271,325.488,216.271z"/>
			<path fill="#04607D" d="M329.805,217.422c-0.012,0.446,0.222,1.068,1.286,1.068c0.456,0,0.795-0.082,1.029-0.376
				c0.117-0.152,0.187-0.352,0.187-0.552c0-0.576-0.409-0.682-1.286-0.881c-1.228-0.282-2.256-0.529-2.256-1.763
				c0-1.081,0.935-1.786,2.291-1.786c0.737,0,1.765,0.212,2.116,0.917c0.152,0.329,0.152,0.61,0.152,0.857h-1.122
				c0.035-0.893-0.736-0.964-1.134-0.964c-0.164,0-1.192,0-1.192,0.847c0,0.54,0.526,0.669,0.83,0.752
				c1.625,0.388,1.976,0.481,2.326,0.811c0.327,0.306,0.444,0.717,0.444,1.093c0,0.657-0.362,1.222-0.794,1.492
				c-0.514,0.316-1.134,0.399-1.742,0.399c-1.192,0-2.303-0.494-2.291-1.915H329.805z"/>
			<path fill="#04607D" d="M334.122,213.251h1.041v-1.234l1.087-0.353v1.587h1.309v0.811h-1.309v3.536c0,0.294,0,0.787,0.783,0.787
				c0.222,0,0.432-0.035,0.526-0.059v0.857c-0.199,0.035-0.514,0.07-0.912,0.07c-1.005,0-1.484-0.293-1.484-1.257v-3.936h-1.041
				V213.251z"/>
			<path fill="#04607D" d="M342.493,219.172c-0.082-0.294-0.105-0.575-0.105-0.881c-0.526,0.976-1.321,1.069-1.812,1.069
				c-1.344,0-2.069-0.764-2.069-1.739c0-0.47,0.164-1.222,1.028-1.727c0.631-0.353,1.566-0.388,2.034-0.388
				c0.281,0,0.456,0.012,0.795,0.035c0-0.729,0-1.046-0.21-1.305c-0.222-0.294-0.701-0.388-1.017-0.388
				c-1.11,0-1.169,0.764-1.181,0.999h-1.099c0.035-0.306,0.07-0.717,0.409-1.116c0.444-0.494,1.274-0.635,1.893-0.635
				c0.854,0,1.765,0.271,2.081,0.869c0.187,0.353,0.199,0.635,0.199,0.905l-0.046,2.819c0,0.095,0.011,0.882,0.093,1.48H342.493z
				 M341.734,216.271c-0.444,0-2.115,0-2.115,1.198c0,0.376,0.234,1.021,1.215,1.021c0.561,0,0.982-0.223,1.251-0.634
				c0.245-0.399,0.257-0.729,0.28-1.551C342.166,216.283,342.003,216.271,341.734,216.271z"/>
			<path fill="#04607D" d="M344.519,213.251h1.041v-1.234l1.087-0.353v1.587h1.309v0.811h-1.309v3.536c0,0.294,0,0.787,0.783,0.787
				c0.222,0,0.432-0.035,0.526-0.059v0.857c-0.199,0.035-0.514,0.07-0.912,0.07c-1.005,0-1.484-0.293-1.484-1.257v-3.936h-1.041
				V213.251z"/>
			<path fill="#04607D" d="M349.209,210.713h1.321v1.21h-1.321V210.713z M349.325,213.275h1.099v5.897h-1.099V213.275z"/>
			<path fill="#04607D" d="M352.6,213.956l-0.012-0.681h1.099l0.012,0.951c0.129-0.247,0.55-1.069,1.882-1.069
				c0.526,0,2.127,0.2,2.127,2.01v4.006h-1.122v-3.748c0-0.388-0.047-0.74-0.315-1.01c-0.281-0.271-0.667-0.399-1.041-0.399
				c-0.795,0-1.531,0.575-1.531,1.762v3.396H352.6V213.956z"/>
		</g>
		<g clip-path="url(#SVGID_12_)">
			<path fill="#04607D" d="M365.908,217.411h-3.647v-1.398l3.506-5.076h1.263v5.522h1.18v0.952h-1.18v1.762h-1.122V217.411z
				 M365.943,216.458v-4.288l-2.794,4.288H365.943z"/>
			<path fill="#04607D" d="M371.663,210.877c2.419,0,2.711,2.608,2.711,4.136c0,1.927-0.386,3.008-1.122,3.701
				c-0.573,0.54-1.25,0.623-1.613,0.623c-1.075,0-1.812-0.635-2.163-1.352c-0.269-0.54-0.526-1.327-0.526-2.784
				C368.951,213.991,369.091,210.877,371.663,210.877z M371.651,218.362c1.356,0,1.589-1.786,1.589-3.243
				c0-1.95-0.339-3.301-1.566-3.301c-1.415,0-1.602,1.868-1.602,3.325C370.073,216.952,370.424,218.362,371.651,218.362z"/>
		</g>
		<g clip-path="url(#SVGID_12_)">
			<path fill="#04607D" d="M379.209,214.062l-0.023-0.787h1.11v0.857c0.561-0.929,1.356-1.011,1.858-1.011
				c1.297,0,1.707,0.67,1.917,1.104c0.199-0.329,0.678-1.104,1.975-1.104c0.842,0,2.15,0.353,2.15,2.092v3.959h-1.11v-3.783
				c0-0.517-0.093-0.74-0.198-0.893c-0.188-0.271-0.562-0.518-1.122-0.518c-0.713,0-1.099,0.412-1.251,0.623
				c-0.257,0.364-0.257,1.011-0.257,1.269v3.302h-1.11v-3.9c0-0.729-0.421-1.293-1.286-1.293c-0.748,0-1.157,0.471-1.286,0.646
				c-0.245,0.341-0.257,0.822-0.257,1.198v3.349h-1.11V214.062z"/>
			<path fill="#04607D" d="M391.313,219.63c0.047,0.658,0.327,1.152,1.368,1.152c1.531,0,1.554-1.116,1.554-2.715
				c-0.467,0.976-1.578,0.999-1.928,0.999c-0.538,0-1.309-0.117-1.8-0.729c-0.502-0.6-0.666-1.387-0.666-2.174
				c0-1.997,1.169-2.973,2.606-2.973c1.181,0,1.613,0.588,1.847,0.894l0.012-0.811h1.063l-0.023,1.068l-0.012,3.689
				c0,1.422-0.046,1.998-0.28,2.444c-0.491,0.939-1.636,1.058-2.443,1.058c-2.349,0-2.419-1.104-2.466-1.904H391.313z
				 M393.873,217.657c0.234-0.306,0.397-0.622,0.397-1.691c0-0.74-0.164-1.163-0.456-1.469c-0.292-0.317-0.759-0.518-1.262-0.518
				c-1.391,0-1.578,1.41-1.578,2.162c0,0.905,0.269,2.104,1.613,2.104C393.23,218.245,393.604,218.009,393.873,217.657z"/>
		</g>
		<g clip-path="url(#SVGID_12_)">
			<path fill="#97C3D1" d="M300.834,232.376h1.251l3.413,8.482h-1.274l-0.912-2.209h-3.916l-0.912,2.209h-1.204L300.834,232.376z
				 M299.771,237.699h3.191l-1.555-4.159L299.771,237.699z"/>
			<path fill="#97C3D1" d="M305.748,234.938h1.041v-1.234l1.087-0.353v1.587h1.309v0.811h-1.309v3.536c0,0.294,0,0.787,0.783,0.787
				c0.222,0,0.432-0.035,0.526-0.059v0.857c-0.199,0.035-0.514,0.07-0.912,0.07c-1.005,0-1.484-0.293-1.484-1.257v-3.936h-1.041
				V234.938z"/>
			<path fill="#97C3D1" d="M313.091,234.808c2.349,0,2.875,1.856,2.875,3.09c0,1.728-0.97,3.161-2.969,3.161
				c-1.94,0-2.887-1.352-2.887-3.078C310.111,236.524,310.789,234.808,313.091,234.808z M313.021,240.237
				c0.83,0,1.777-0.6,1.777-2.374c0-1.469-0.678-2.244-1.707-2.244c-0.701,0-1.835,0.447-1.835,2.291
				C311.257,239.121,311.771,240.237,313.021,240.237z"/>
			<path fill="#97C3D1" d="M317.747,236.16c0-0.399-0.023-0.811-0.058-1.198h1.11l0.023,1.14c0.21-0.823,0.912-1.093,1.403-1.163
				c0.327-0.048,0.573-0.036,0.76-0.024v1.081c-0.059-0.023-0.128-0.035-0.21-0.047s-0.187-0.012-0.315-0.012
				c-1.297,0-1.602,0.775-1.602,1.786v3.137h-1.11V236.16z"/>
			<path fill="#97C3D1" d="M321.35,234.961h1.228l1.87,4.676l1.823-4.676h1.215l-2.571,5.897h-1.11L321.35,234.961z"/>
			<path fill="#97C3D1" d="M332.318,240.859c-0.082-0.294-0.105-0.575-0.105-0.881c-0.526,0.976-1.321,1.069-1.812,1.069
				c-1.344,0-2.069-0.764-2.069-1.739c0-0.47,0.164-1.222,1.028-1.727c0.631-0.353,1.566-0.388,2.034-0.388
				c0.281,0,0.456,0.012,0.795,0.035c0-0.729,0-1.046-0.21-1.305c-0.222-0.294-0.701-0.388-1.017-0.388
				c-1.11,0-1.169,0.764-1.181,0.999h-1.099c0.035-0.306,0.07-0.717,0.409-1.116c0.444-0.494,1.274-0.635,1.893-0.635
				c0.854,0,1.765,0.271,2.081,0.869c0.187,0.353,0.199,0.635,0.199,0.905l-0.046,2.819c0,0.095,0.011,0.882,0.093,1.48H332.318z
				 M331.558,237.958c-0.444,0-2.115,0-2.115,1.198c0,0.376,0.234,1.021,1.215,1.021c0.561,0,0.982-0.223,1.251-0.634
				c0.245-0.399,0.257-0.729,0.28-1.551C331.99,237.969,331.827,237.958,331.558,237.958z"/>
			<path fill="#97C3D1" d="M335.875,239.109c-0.012,0.446,0.222,1.068,1.286,1.068c0.456,0,0.795-0.082,1.029-0.376
				c0.117-0.152,0.187-0.352,0.187-0.552c0-0.576-0.409-0.682-1.286-0.881c-1.228-0.282-2.256-0.529-2.256-1.763
				c0-1.081,0.935-1.786,2.291-1.786c0.736,0,1.765,0.212,2.116,0.917c0.152,0.329,0.152,0.61,0.152,0.857h-1.122
				c0.035-0.893-0.736-0.964-1.134-0.964c-0.164,0-1.192,0-1.192,0.847c0,0.54,0.526,0.669,0.83,0.752
				c1.625,0.388,1.976,0.481,2.326,0.811c0.327,0.306,0.444,0.717,0.444,1.093c0,0.657-0.363,1.222-0.795,1.492
				c-0.515,0.316-1.134,0.399-1.742,0.399c-1.192,0-2.303-0.494-2.291-1.915H335.875z"/>
			<path fill="#97C3D1" d="M340.192,234.938h1.041v-1.234l1.087-0.353v1.587h1.309v0.811h-1.309v3.536c0,0.294,0,0.787,0.783,0.787
				c0.222,0,0.432-0.035,0.526-0.059v0.857c-0.199,0.035-0.514,0.07-0.912,0.07c-1.005,0-1.484-0.293-1.484-1.257v-3.936h-1.041
				V234.938z"/>
			<path fill="#97C3D1" d="M348.563,240.859c-0.082-0.294-0.105-0.575-0.105-0.881c-0.526,0.976-1.321,1.069-1.812,1.069
				c-1.344,0-2.069-0.764-2.069-1.739c0-0.47,0.164-1.222,1.028-1.727c0.631-0.353,1.566-0.388,2.034-0.388
				c0.281,0,0.456,0.012,0.795,0.035c0-0.729,0-1.046-0.21-1.305c-0.222-0.294-0.701-0.388-1.017-0.388
				c-1.11,0-1.169,0.764-1.181,0.999h-1.099c0.035-0.306,0.07-0.717,0.409-1.116c0.444-0.494,1.274-0.635,1.894-0.635
				c0.853,0,1.765,0.271,2.08,0.869c0.187,0.353,0.199,0.635,0.199,0.905l-0.046,2.819c0,0.095,0.012,0.882,0.093,1.48H348.563z
				 M347.803,237.958c-0.444,0-2.115,0-2.115,1.198c0,0.376,0.233,1.021,1.215,1.021c0.561,0,0.982-0.223,1.251-0.634
				c0.245-0.399,0.257-0.729,0.28-1.551C348.236,237.969,348.072,237.958,347.803,237.958z"/>
			<path fill="#97C3D1" d="M350.589,234.938h1.041v-1.234l1.087-0.353v1.587h1.309v0.811h-1.309v3.536c0,0.294,0,0.787,0.783,0.787
				c0.222,0,0.432-0.035,0.526-0.059v0.857c-0.199,0.035-0.514,0.07-0.912,0.07c-1.005,0-1.484-0.293-1.484-1.257v-3.936h-1.041
				V234.938z"/>
			<path fill="#97C3D1" d="M355.279,232.4h1.321v1.21h-1.321V232.4z M355.395,234.961h1.099v5.897h-1.099V234.961z"/>
			<path fill="#97C3D1" d="M358.67,235.642l-0.012-0.681h1.099l0.011,0.951c0.129-0.247,0.549-1.069,1.882-1.069
				c0.526,0,2.127,0.2,2.127,2.01v4.006h-1.122v-3.748c0-0.388-0.047-0.74-0.315-1.01c-0.281-0.271-0.667-0.399-1.041-0.399
				c-0.794,0-1.531,0.575-1.531,1.762v3.396h-1.099V235.642z"/>
		</g>
		<g clip-path="url(#SVGID_12_)">
			<path fill="#97C3D1" d="M368.6,234.761c0-0.729,0.491-2.221,2.618-2.221c1.707,0,2.688,0.929,2.688,2.174
				c0,0.799-0.514,1.633-1.648,1.845c0.479,0.129,1.765,0.481,1.765,2.056c0,1.116-0.771,2.386-2.782,2.386
				c-0.69,0-1.508-0.142-2.092-0.682c-0.433-0.399-0.713-1.011-0.713-1.634c0-0.54,0.21-1.104,0.619-1.491
				c0.386-0.389,0.807-0.506,1.169-0.623C369.15,236.335,368.6,235.572,368.6,234.761z M371.242,240.072
				c1.297,0,1.613-0.916,1.613-1.527c0-0.904-0.666-1.492-1.589-1.492c-0.994,0-1.648,0.67-1.648,1.527
				C369.617,239.214,370.038,240.072,371.242,240.072z M371.265,233.41c-0.865,0-1.531,0.518-1.531,1.328
				c0,0.787,0.654,1.315,1.496,1.315c0.888,0,1.554-0.517,1.554-1.315C372.784,233.998,372.235,233.41,371.265,233.41z"/>
			<path fill="#97C3D1" d="M377.733,232.564c2.419,0,2.711,2.608,2.711,4.136c0,1.927-0.386,3.008-1.122,3.701
				c-0.573,0.54-1.25,0.623-1.613,0.623c-1.075,0-1.812-0.635-2.163-1.352c-0.269-0.54-0.526-1.327-0.526-2.784
				C375.021,235.677,375.162,232.564,377.733,232.564z M377.721,240.048c1.356,0,1.589-1.786,1.589-3.243
				c0-1.95-0.339-3.301-1.566-3.301c-1.415,0-1.602,1.868-1.602,3.325C376.143,238.638,376.494,240.048,377.721,240.048z"/>
		</g>
		<g clip-path="url(#SVGID_12_)">
			<path fill="#97C3D1" d="M385.279,235.749l-0.023-0.787h1.11v0.857c0.561-0.929,1.356-1.011,1.858-1.011
				c1.297,0,1.707,0.67,1.917,1.104c0.199-0.329,0.678-1.104,1.975-1.104c0.842,0,2.15,0.353,2.15,2.092v3.959h-1.11v-3.783
				c0-0.517-0.093-0.74-0.198-0.893c-0.188-0.271-0.562-0.518-1.122-0.518c-0.713,0-1.099,0.412-1.251,0.623
				c-0.257,0.364-0.257,1.011-0.257,1.269v3.302h-1.11v-3.9c0-0.729-0.421-1.293-1.286-1.293c-0.748,0-1.157,0.471-1.286,0.646
				c-0.245,0.341-0.257,0.822-0.257,1.198v3.349h-1.11V235.749z"/>
			<path fill="#97C3D1" d="M397.383,241.317c0.047,0.658,0.327,1.152,1.368,1.152c1.531,0,1.554-1.116,1.554-2.715
				c-0.467,0.976-1.578,0.999-1.928,0.999c-0.538,0-1.309-0.117-1.8-0.729c-0.502-0.6-0.666-1.387-0.666-2.174
				c0-1.997,1.169-2.973,2.606-2.973c1.181,0,1.613,0.588,1.847,0.894l0.012-0.811h1.063l-0.023,1.068l-0.012,3.689
				c0,1.422-0.046,1.998-0.28,2.444c-0.491,0.939-1.636,1.058-2.443,1.058c-2.349,0-2.419-1.104-2.466-1.904H397.383z
				 M399.942,239.343c0.234-0.306,0.397-0.622,0.397-1.691c0-0.74-0.164-1.163-0.456-1.469c-0.292-0.317-0.759-0.518-1.262-0.518
				c-1.391,0-1.578,1.41-1.578,2.162c0,0.905,0.269,2.104,1.613,2.104C399.299,239.931,399.674,239.696,399.942,239.343z"/>
		</g>
	</g>
	<rect x="255.189" y="213.149" fill="#04607D" width="31.788" height="3.615"/>
	<rect x="255.189" y="235.441" fill="#97C3D1" width="31.788" height="3.615"/>
</g>
</svg>
