<?xml version="1.0" encoding="utf-8"?>
<!-- Generator: Adobe Illustrator 17.0.0, SVG Export Plug-In . SVG Version: 6.00 Build 0)  -->
<!DOCTYPE svg PUBLIC "-//W3C//DTD SVG 1.1//EN" "http://www.w3.org/Graphics/SVG/1.1/DTD/svg11.dtd">
<svg version="1.1" id="Layer_1" xmlns="http://www.w3.org/2000/svg" xmlns:xlink="http://www.w3.org/1999/xlink" x="0px" y="0px"
	 width="339.419px" height="207.121px" viewBox="0 0 339.419 207.121" enable-background="new 0 0 339.419 207.121"
	 xml:space="preserve">
<g>
	<polygon fill="#04607D" points="0,206.647 3.374,194.221 3.599,193.826 7.998,189.335 16.255,172.595 16.863,172.114 24.329,170.4 
		48.877,123.327 49.436,122.875 61.328,119.618 65.007,107.372 65.436,106.84 94.615,90.807 98.543,80.719 99.118,80.184 
		128.457,71.187 139.142,64.031 139.468,63.897 150.459,61.731 152.527,56.54 153.298,55.976 170.07,54.77 183.027,51.035 
		183.276,51.003 193.847,51.003 193.847,44.074 204.051,43.998 217.86,39.525 218.137,39.48 229.772,39.48 231.199,32.521 
		232.291,31.804 253.896,29.558 259.621,27.127 259.972,27.055 267.477,27.055 275.987,18.727 276.615,18.469 287.329,18.469 
		289.547,14.419 290.337,13.951 305.62,13.951 307.151,11.838 307.438,11.584 314.184,7.743 314.625,7.625 319.798,7.625 
		319.798,3.559 320.697,2.656 331.561,2.656 338.804,0 339.419,1.699 332.027,4.408 331.719,4.462 321.599,4.462 321.599,8.53 
		320.697,9.435 314.864,9.435 308.492,13.061 306.807,15.387 306.081,15.76 290.867,15.76 288.649,19.81 287.861,20.278 
		276.981,20.278 268.473,28.606 267.844,28.862 260.153,28.862 254.474,31.276 254.214,31.341 232.823,33.566 231.389,40.566 
		230.507,41.288 218.28,41.288 204.467,45.762 204.194,45.806 195.646,45.806 195.646,51.906 194.746,52.81 183.401,52.81 
		170.479,56.534 170.295,56.566 153.988,57.736 151.945,62.86 151.285,63.412 139.99,65.635 129.345,72.764 129.109,72.876 
		100.062,81.786 96.172,91.771 95.764,92.234 66.622,108.248 62.906,120.62 62.282,121.229 50.291,124.516 25.731,171.607 
		25.135,172.07 17.677,173.783 9.547,190.266 5.047,194.922 1.737,207.121 	"/>
</g>
</svg>
