<?xml version="1.0" encoding="utf-8"?>
<!-- Generator: Adobe Illustrator 17.0.0, SVG Export Plug-In . SVG Version: 6.00 Build 0)  -->
<!DOCTYPE svg PUBLIC "-//W3C//DTD SVG 1.1//EN" "http://www.w3.org/Graphics/SVG/1.1/DTD/svg11.dtd">
<svg version="1.1" id="Layer_1" xmlns="http://www.w3.org/2000/svg" xmlns:xlink="http://www.w3.org/1999/xlink" x="0px" y="0px"
	 width="337.59px" height="174.253px" viewBox="0 0 337.59 174.253" enable-background="new 0 0 337.59 174.253"
	 xml:space="preserve">
<polygon fill="#97C3D1" points="0,173.175 6.583,164.281 6.988,163.972 9.021,163.209 17.118,143.391 17.404,143.016 
	31.155,132.472 35.111,122.757 38.371,121.658 58.394,94.543 60.152,90.227 60.573,89.764 97.658,70.539 114.668,55.402 
	115.265,55.174 122.836,55.174 124.974,53.029 125.219,52.856 137.966,46.681 138.252,46.596 144.737,45.857 167.125,37.311 
	167.445,37.254 170.165,37.254 190.432,31.266 190.801,31.236 200.706,32.514 203.554,27.61 204.331,27.162 211.301,27.162 
	214.697,25.314 215.126,25.202 222.862,25.202 233.167,20.028 233.57,19.932 249.088,19.932 255.036,16.726 255.432,16.618 
	287.687,15.569 303.069,10.37 308.387,7.253 308.69,7.142 329.843,3.553 336.77,0 337.59,1.609 330.542,5.224 330.285,5.31 
	309.154,8.897 303.897,11.978 303.731,12.053 288.136,17.324 287.88,17.372 255.702,18.418 249.738,21.632 249.314,21.74 
	233.783,21.74 223.474,26.915 223.074,27.011 215.354,27.011 211.956,28.86 211.529,28.97 204.849,28.97 201.958,33.943 
	201.068,34.385 190.757,33.052 170.548,39.022 170.295,39.058 167.61,39.058 145.272,47.587 145.055,47.64 138.608,48.373 
	126.139,54.417 123.847,56.718 123.212,56.982 115.607,56.982 98.767,71.967 98.581,72.093 61.691,91.218 60.019,95.33 
	59.908,95.526 39.815,122.735 36.547,124.004 32.729,133.383 32.44,133.759 18.688,144.302 10.536,164.258 10.02,164.759 
	7.869,165.572 1.445,174.253 "/>
</svg>
