<?xml version="1.0" encoding="utf-8"?>
<!-- Generator: Adobe Illustrator 17.0.0, SVG Export Plug-In . SVG Version: 6.00 Build 0)  -->
<!DOCTYPE svg PUBLIC "-//W3C//DTD SVG 1.1//EN" "http://www.w3.org/Graphics/SVG/1.1/DTD/svg11.dtd">
<svg version="1.1" id="Layer_1" xmlns="http://www.w3.org/2000/svg" xmlns:xlink="http://www.w3.org/1999/xlink" x="0px" y="0px"
	 width="142.707px" height="187.789px" viewBox="0 0 142.707 187.789" enable-background="new 0 0 142.707 187.789"
	 xml:space="preserve">
<g>
	<g>
		<defs>
			<path id="SVGID_40_" d="M12.693,0C12.693,0,0,0,0,12.693v108.408c0,0,0,12.693,10.122,20.353l51.108,38.674
				c0,0,10.122,7.66,20.245,0l51.108-38.674c0,0,10.124-7.66,10.124-20.353V12.693c0,0,0-12.693-12.693-12.693H12.693z"/>
		</defs>
		<clipPath id="SVGID_2_">
			<use xlink:href="#SVGID_40_"  overflow="visible"/>
		</clipPath>
		
			<radialGradient id="SVGID_4_" cx="-770.2776" cy="452.2794" r="1.4104" gradientTransform="matrix(-73.8485 0 0 94.82 -56812.4883 -42770.9961)" gradientUnits="userSpaceOnUse">
			<stop  offset="0" style="stop-color:#C7DEA9"/>
			<stop  offset="1" style="stop-color:#C7DEA9"/>
		</radialGradient>
		<rect x="0" y="0" clip-path="url(#SVGID_2_)" fill="url(#SVGID_4_)" width="142.707" height="187.789"/>
	</g>
	<g>
		<path fill="#004F63" d="M20.742,19.463c3.667-1.579,7.165-3.554,10.437-5.923h7.277v39.375h-8.518V22.284
			c-1.636,1.24-4.908,3.271-9.195,5.021V19.463z"/>
		<path fill="#004F63" d="M67.679,23.299c-0.169-2.82-2.031-3.893-4.118-3.893c-5.641,0-5.81,6.995-5.923,11.058
			c1.41-1.298,3.61-3.159,7.728-3.159c5.472,0,11.283,3.892,11.283,12.467c0,4.344-1.185,7.503-4.175,10.267
			c-2.595,2.426-5.641,3.667-10.041,3.667c-13.595,0-13.595-13.2-13.595-17.883c0-7.897,1.015-16.077,6.375-20.026
			c3.441-2.595,7.559-2.764,9.082-2.764c5.923,0,11.564,3.046,11.734,10.267H67.679z M68.356,40.336c0-4.344-2.256-6.77-5.077-6.77
			c-1.411,0-5.698,0.846-5.698,6.938c0,4.852,2.595,6.882,5.359,6.882C65.366,47.387,68.356,45.694,68.356,40.336z"/>
	</g>
	<g>
		<path fill="#004F63" d="M99.386,22.791c0,6.995-4.118,10.211-9.251,10.211c-4.908,0-9.082-2.934-9.082-9.872
			c0-5.923,3.215-10.323,9.59-10.323C97.129,12.807,99.386,17.658,99.386,22.791z M94.929,23.017c0-2.764-0.677-6.825-4.682-6.825
			c-4.851,0-4.851,5.528-4.851,6.882c0,1.298,0,6.657,4.851,6.657C94.929,29.73,94.929,24.146,94.929,23.017z M88.555,55.115
			l24.878-43.437h3.723L92.278,55.115H88.555z M122.966,36.105c1.016,1.128,2.313,2.934,2.313,7.164
			c0,6.149-2.99,10.323-9.082,10.323c-7.221,0-9.252-5.358-9.252-10.041c0-6.825,4.231-10.154,9.252-10.154
			C117.72,33.397,120.766,33.679,122.966,36.105z M120.992,43.382c0-1.749-0.338-6.826-4.739-6.826c-4.852,0-4.852,5.867-4.852,7.56
			c0,1.975,0.452,6.148,4.739,6.148C120.653,50.264,120.992,45.412,120.992,43.382z"/>
	</g>
	<g>
		<path fill="#006C83" d="M55.222,63.057c0.782-0.178,1.902-0.276,2.969-0.276c1.653,0,2.72,0.335,3.466,1.086
			c0.604,0.592,0.942,1.5,0.942,2.527c0,1.757-0.995,2.922-2.257,3.396v0.06c0.924,0.355,1.476,1.303,1.76,2.686
			c0.391,1.855,0.676,3.14,0.924,3.652h-1.6c-0.196-0.375-0.462-1.521-0.8-3.179c-0.355-1.836-0.995-2.527-2.399-2.587h-1.458v5.766
			h-1.546V63.057z M56.768,69.118h1.582c1.653,0,2.702-1.007,2.702-2.527c0-1.718-1.12-2.468-2.755-2.488
			c-0.747,0-1.28,0.079-1.529,0.158V69.118z"/>
		<path fill="#006C83" d="M64.96,63.057c0.782-0.178,1.902-0.276,2.969-0.276c1.653,0,2.72,0.335,3.466,1.086
			c0.604,0.592,0.942,1.5,0.942,2.527c0,1.757-0.995,2.922-2.257,3.396v0.06c0.924,0.355,1.476,1.303,1.76,2.686
			c0.391,1.855,0.676,3.14,0.924,3.652h-1.6c-0.196-0.375-0.462-1.521-0.8-3.179c-0.355-1.836-0.995-2.527-2.399-2.587h-1.458v5.766
			H64.96V63.057z M66.506,69.118h1.582c1.653,0,2.702-1.007,2.702-2.527c0-1.718-1.12-2.468-2.755-2.488
			c-0.747,0-1.28,0.079-1.529,0.158V69.118z"/>
		<path fill="#006C83" d="M74.698,63.057c0.782-0.178,1.902-0.276,2.969-0.276c1.653,0,2.72,0.335,3.466,1.086
			c0.604,0.592,0.942,1.5,0.942,2.527c0,1.757-0.995,2.922-2.257,3.396v0.06c0.924,0.355,1.476,1.303,1.76,2.686
			c0.391,1.855,0.676,3.14,0.924,3.652h-1.6c-0.196-0.375-0.462-1.521-0.8-3.179c-0.355-1.836-0.995-2.527-2.399-2.587h-1.458v5.766
			h-1.546V63.057z M76.245,69.118h1.582c1.653,0,2.702-1.007,2.702-2.527c0-1.718-1.12-2.468-2.755-2.488
			c-0.747,0-1.28,0.079-1.529,0.158V69.118z"/>
	</g>
	<g>
		<path fill="#006C83" d="M43.456,98.234c0.338,0.039,0.729,0,1.262-0.06c0.907-0.138,1.76-0.553,2.417-1.244
			c0.765-0.77,1.315-1.896,1.529-3.416h-0.053c-0.64,0.869-1.564,1.383-2.72,1.383c-2.08,0-3.413-1.738-3.413-3.93
			c0-2.429,1.582-4.561,3.946-4.561s3.822,2.132,3.822,5.41c0,2.823-0.853,4.798-1.991,6.021c-0.889,0.968-2.116,1.561-3.36,1.718
			c-0.569,0.099-1.066,0.119-1.44,0.099V98.234z M44.025,90.85c0,1.6,0.871,2.725,2.222,2.725c1.049,0,1.866-0.572,2.275-1.343
			c0.089-0.158,0.142-0.355,0.142-0.632c0-2.191-0.729-3.87-2.364-3.87C44.967,87.73,44.025,89.033,44.025,90.85z"/>
		<path fill="#006C83" d="M58.723,88.085h-4.409l-0.444,3.298c0.267-0.04,0.516-0.079,0.942-0.079c0.889,0,1.777,0.217,2.488,0.691
			c0.907,0.572,1.653,1.678,1.653,3.297c0,2.508-1.795,4.384-4.302,4.384c-1.262,0-2.329-0.396-2.88-0.79l0.391-1.323
			c0.48,0.316,1.422,0.711,2.471,0.711c1.476,0,2.738-1.066,2.738-2.784c-0.018-1.658-1.013-2.843-3.324-2.843
			c-0.658,0-1.173,0.079-1.6,0.138l0.747-6.16h5.528V88.085z"/>
		<path fill="#006C83" d="M66.31,90.237c0,2.705-1.28,4.048-2.773,4.048c-1.44,0-2.684-1.283-2.702-3.87
			c0-2.566,1.262-4.008,2.791-4.008C65.244,86.407,66.31,87.789,66.31,90.237z M62.08,90.355c-0.036,1.64,0.515,2.883,1.493,2.883
			c1.031,0,1.493-1.224,1.493-2.922c0-1.56-0.409-2.863-1.493-2.863C62.595,87.453,62.08,88.736,62.08,90.355z M63.431,99.676
			l6.791-13.269h0.995l-6.791,13.269H63.431z M73.83,95.549c0,2.705-1.28,4.048-2.755,4.048c-1.44,0-2.684-1.283-2.702-3.851
			c0-2.587,1.262-4.027,2.791-4.027C72.781,91.719,73.83,93.101,73.83,95.549z M69.599,95.667c-0.018,1.639,0.551,2.883,1.511,2.883
			c1.031,0,1.493-1.224,1.493-2.922c0-1.56-0.409-2.863-1.493-2.863C70.132,92.765,69.599,94.048,69.599,95.667z"/>
		<path fill="#006C83" d="M88.205,99.023c-0.569,0.316-1.707,0.632-3.164,0.632c-3.377,0-5.919-2.369-5.919-6.732
			c0-4.166,2.542-6.99,6.257-6.99c1.493,0,2.435,0.355,2.844,0.593l-0.374,1.402c-0.586-0.316-1.422-0.554-2.417-0.554
			c-2.809,0-4.675,1.994-4.675,5.489c0,3.258,1.689,5.351,4.604,5.351c0.942,0,1.902-0.217,2.524-0.553L88.205,99.023z"/>
		<path fill="#006C83" d="M91.863,86.15v13.308h-1.546V86.15H91.863z"/>
	</g>
	<g>
		<path fill="#006C83" d="M52.993,111.356h-4.409l-0.444,3.298c0.267-0.04,0.516-0.079,0.942-0.079c0.889,0,1.777,0.217,2.488,0.691
			c0.907,0.572,1.653,1.678,1.653,3.297c0,2.508-1.795,4.384-4.302,4.384c-1.262,0-2.329-0.396-2.88-0.79l0.391-1.323
			c0.48,0.316,1.422,0.711,2.471,0.711c1.476,0,2.738-1.066,2.738-2.784c-0.018-1.658-1.013-2.843-3.324-2.843
			c-0.658,0-1.173,0.079-1.6,0.138l0.747-6.16h5.528V111.356z"/>
		<path fill="#006C83" d="M59.496,116.747v1.283h-4.391v-1.283H59.496z"/>
		<path fill="#006C83" d="M60.987,122.73v-1.066l1.227-1.322c2.951-3.12,4.284-4.778,4.302-6.714c0-1.303-0.569-2.507-2.293-2.507
			c-1.049,0-1.92,0.592-2.453,1.086l-0.498-1.225c0.8-0.75,1.938-1.303,3.271-1.303c2.488,0,3.537,1.896,3.537,3.731
			c0,2.369-1.546,4.284-3.982,6.891l-0.924,0.948v0.039h5.191v1.441H60.987z"/>
		<path fill="#006C83" d="M76.858,111.12c-0.32-0.021-0.729,0-1.173,0.079c-2.453,0.454-3.751,2.448-4.018,4.561h0.054
			c0.551-0.81,1.511-1.48,2.791-1.48c2.044,0,3.484,1.639,3.484,4.146c0,2.35-1.44,4.521-3.84,4.521
			c-2.471,0-4.088-2.133-4.088-5.47c0-2.527,0.817-4.521,1.955-5.785c0.96-1.047,2.24-1.698,3.698-1.896
			c0.462-0.079,0.853-0.099,1.138-0.099V111.12z M76.414,118.524c0-1.837-0.942-2.942-2.382-2.942c-0.942,0-1.813,0.651-2.24,1.58
			c-0.106,0.197-0.178,0.454-0.178,0.77c0.036,2.113,0.907,3.673,2.542,3.673C75.507,121.605,76.414,120.36,76.414,118.524z"/>
		<path fill="#006C83" d="M84.748,113.509c0,2.705-1.28,4.048-2.773,4.048c-1.44,0-2.684-1.283-2.702-3.87
			c0-2.566,1.262-4.008,2.791-4.008C83.681,109.679,84.748,111.061,84.748,113.509z M80.517,113.627
			c-0.036,1.64,0.515,2.883,1.493,2.883c1.031,0,1.493-1.224,1.493-2.922c0-1.56-0.409-2.863-1.493-2.863
			C81.032,110.725,80.517,112.008,80.517,113.627z M81.868,122.947l6.791-13.269h0.995l-6.791,13.269H81.868z M92.267,118.82
			c0,2.705-1.28,4.048-2.755,4.048c-1.44,0-2.684-1.283-2.702-3.851c0-2.587,1.262-4.027,2.791-4.027
			C91.218,114.99,92.267,116.372,92.267,118.82z M88.036,118.939c-0.018,1.639,0.551,2.883,1.511,2.883
			c1.031,0,1.493-1.224,1.493-2.922c0-1.56-0.409-2.863-1.493-2.863C88.57,116.036,88.036,117.319,88.036,118.939z"/>
	</g>
	<g>
		<path fill="#006C83" d="M37.166,132.298c-1.297,1.936-2.24,4.502-2.24,8.076c0,3.515,0.978,6.042,2.24,8.017H35.94
			c-1.12-1.639-2.329-4.166-2.329-8.017c0.018-3.89,1.209-6.417,2.329-8.076H37.166z"/>
		<path fill="#006C83" d="M39.031,132.852c0.747-0.139,1.724-0.257,2.969-0.257c1.529,0,2.648,0.395,3.359,1.105
			c0.658,0.632,1.049,1.6,1.049,2.784c0,1.204-0.32,2.152-0.924,2.843c-0.817,0.968-2.151,1.462-3.662,1.462
			c-0.462,0-0.889-0.021-1.245-0.119v5.331h-1.546V132.852z M40.578,139.269c0.338,0.099,0.765,0.138,1.28,0.138
			c1.867,0,3.004-1.007,3.004-2.843c0-1.758-1.12-2.606-2.826-2.606c-0.676,0-1.191,0.059-1.458,0.138V139.269z"/>
		<path fill="#006C83" d="M48.005,139.348v-1.186h9.173v1.186H48.005z M48.005,143.217v-1.185h9.173v1.185H48.005z"/>
		<path fill="#006C83" d="M66.543,139.446c0,4.363-1.458,6.772-4.018,6.772c-2.258,0-3.787-2.35-3.822-6.595
			c0-4.305,1.671-6.674,4.017-6.674C65.156,132.95,66.543,135.358,66.543,139.446z M60.267,139.644c0,3.337,0.924,5.232,2.347,5.232
			c1.6,0,2.364-2.073,2.364-5.351c0-3.159-0.729-5.232-2.347-5.232C61.263,134.293,60.267,136.148,60.267,139.644z"/>
		<path fill="#006C83" d="M68.263,144.975c0-0.73,0.444-1.244,1.067-1.244c0.622,0,1.048,0.514,1.048,1.244
			c0,0.711-0.409,1.244-1.066,1.244C68.69,146.219,68.263,145.686,68.263,144.975z"/>
		<path fill="#006C83" d="M79.657,139.446c0,4.363-1.458,6.772-4.018,6.772c-2.258,0-3.787-2.35-3.822-6.595
			c0-4.305,1.671-6.674,4.017-6.674C78.27,132.95,79.657,135.358,79.657,139.446z M73.381,139.644c0,3.337,0.924,5.232,2.347,5.232
			c1.6,0,2.364-2.073,2.364-5.351c0-3.159-0.729-5.232-2.347-5.232C74.377,134.293,73.381,136.148,73.381,139.644z"/>
		<path fill="#006C83" d="M89.289,139.446c0,4.363-1.458,6.772-4.018,6.772c-2.258,0-3.787-2.35-3.822-6.595
			c0-4.305,1.671-6.674,4.017-6.674C87.902,132.95,89.289,135.358,89.289,139.446z M83.013,139.644c0,3.337,0.924,5.232,2.347,5.232
			c1.6,0,2.364-2.073,2.364-5.351c0-3.159-0.729-5.232-2.347-5.232C84.009,134.293,83.013,136.148,83.013,139.644z"/>
		<path fill="#006C83" d="M97.782,134.628h-4.409l-0.444,3.298c0.267-0.04,0.516-0.079,0.942-0.079c0.889,0,1.777,0.217,2.488,0.691
			c0.907,0.572,1.653,1.678,1.653,3.297c0,2.508-1.795,4.384-4.302,4.384c-1.262,0-2.329-0.396-2.88-0.79l0.391-1.323
			c0.48,0.316,1.422,0.711,2.471,0.711c1.476,0,2.738-1.066,2.738-2.784c-0.018-1.658-1.013-2.843-3.324-2.843
			c-0.658,0-1.173,0.079-1.6,0.138l0.747-6.16h5.528V134.628z"/>
		<path fill="#006C83" d="M99.717,148.391c1.262-1.955,2.24-4.521,2.24-8.076c0-3.534-0.96-6.062-2.24-8.017h1.209
			c1.138,1.619,2.329,4.146,2.329,8.036c0,3.87-1.191,6.378-2.329,8.057H99.717z"/>
	</g>
</g>
</svg>
