<?xml version="1.0" encoding="utf-8"?>
<!-- Generator: Adobe Illustrator 17.0.0, SVG Export Plug-In . SVG Version: 6.00 Build 0)  -->
<!DOCTYPE svg PUBLIC "-//W3C//DTD SVG 1.1//EN" "http://www.w3.org/Graphics/SVG/1.1/DTD/svg11.dtd">
<svg version="1.1" id="Layer_1" xmlns="http://www.w3.org/2000/svg" xmlns:xlink="http://www.w3.org/1999/xlink" x="0px" y="0px"
	 width="75.224px" height="7.851px" viewBox="0 0 75.224 7.851" enable-background="new 0 0 75.224 7.851" xml:space="preserve">
<g>
	<path fill="#00435B" d="M2.575,0.102H3.48l2.473,6.114H5.03L4.37,4.624H1.533l-0.66,1.592H0L2.575,0.102z M1.804,3.938h2.312
		L2.989,0.94L1.804,3.938z"/>
	<path fill="#00435B" d="M9.726,0.11h0.796v5.429c0,0.093,0.017,0.457,0.034,0.677H9.76L9.743,5.539
		C9.675,5.657,9.582,5.835,9.362,5.987C9.015,6.225,8.6,6.301,8.312,6.301c-0.567,0-1.829-0.297-1.829-2.159
		c0-1.618,0.923-2.32,1.922-2.32c0.915,0,1.22,0.542,1.321,0.72V0.11z M9.43,2.846C9.26,2.625,8.947,2.414,8.498,2.414
		c-1.168,0-1.168,1.414-1.168,1.702c0,0.753,0.194,1.626,1.168,1.626c1.253,0,1.253-1.381,1.253-1.711
		C9.751,3.413,9.607,3.074,9.43,2.846z"/>
	<path fill="#00435B" d="M14.541,6.216c-0.059-0.212-0.076-0.415-0.076-0.635c-0.381,0.703-0.957,0.771-1.313,0.771
		c-0.974,0-1.499-0.551-1.499-1.253c0-0.339,0.119-0.881,0.745-1.245c0.458-0.254,1.135-0.279,1.474-0.279
		c0.204,0,0.331,0.008,0.576,0.025c0-0.525,0-0.754-0.153-0.94c-0.161-0.212-0.508-0.279-0.736-0.279
		c-0.805,0-0.847,0.551-0.855,0.72h-0.796c0.025-0.22,0.051-0.517,0.296-0.805c0.322-0.355,0.923-0.457,1.372-0.457
		c0.618,0,1.279,0.194,1.507,0.627c0.136,0.254,0.144,0.457,0.144,0.651l-0.034,2.033c0,0.067,0.008,0.635,0.068,1.066H14.541z
		 M13.99,4.124c-0.322,0-1.533,0-1.533,0.864c0,0.271,0.169,0.736,0.881,0.736c0.406,0,0.711-0.16,0.906-0.457
		c0.178-0.288,0.187-0.525,0.204-1.118C14.304,4.133,14.185,4.124,13.99,4.124z"/>
	<path fill="#00435B" d="M16.629,2.659c0-0.187-0.008-0.288-0.025-0.694h0.805l0.017,0.703c0.398-0.669,1.101-0.771,1.448-0.771
		c0.915,0,1.787,0.626,1.787,2.201c0,1.584-0.923,2.278-1.939,2.278c-0.618,0-1.076-0.263-1.304-0.635v2.108h-0.788V2.659z
		 M18.585,5.793c0.203,0,0.626-0.043,0.897-0.415c0.305-0.415,0.347-1.025,0.347-1.33c0-0.762-0.229-1.558-1.168-1.558
		c-1.271,0-1.271,1.346-1.271,1.728C17.391,4.734,17.467,5.793,18.585,5.793z"/>
	<path fill="#00435B" d="M21.173,1.948h0.753v-0.89l0.788-0.254v1.144h0.949v0.584h-0.949v2.549c0,0.212,0,0.567,0.567,0.567
		c0.161,0,0.313-0.025,0.381-0.042v0.618c-0.144,0.025-0.373,0.051-0.661,0.051c-0.729,0-1.076-0.212-1.076-0.906V2.532h-0.753
		V1.948z"/>
	<path fill="#00435B" d="M25.125,4.234c-0.017,0.881,0.347,1.533,1.219,1.533c0.517,0,0.932-0.271,1-0.881h0.796
		c-0.025,0.212-0.059,0.559-0.364,0.889c-0.186,0.212-0.609,0.567-1.465,0.567c-1.338,0-1.973-0.83-1.973-2.176
		c0-0.839,0.169-1.533,0.838-1.999c0.406-0.288,0.915-0.313,1.16-0.313c1.905,0,1.863,1.686,1.846,2.38H25.125z M27.37,3.676
		c0.008-0.407-0.068-1.254-1.05-1.254c-0.517,0-1.143,0.313-1.16,1.254H27.37z"/>
	<path fill="#00435B" d="M32.295,0.11h0.796v5.429c0,0.093,0.017,0.457,0.034,0.677h-0.796l-0.017-0.677
		c-0.068,0.118-0.161,0.296-0.381,0.448c-0.347,0.237-0.762,0.313-1.05,0.313c-0.567,0-1.829-0.297-1.829-2.159
		c0-1.618,0.923-2.32,1.922-2.32c0.915,0,1.22,0.542,1.321,0.72V0.11z M31.999,2.846c-0.169-0.221-0.483-0.432-0.932-0.432
		c-1.168,0-1.168,1.414-1.168,1.702c0,0.753,0.195,1.626,1.168,1.626c1.253,0,1.253-1.381,1.253-1.711
		C32.32,3.413,32.176,3.074,31.999,2.846z"/>
	<path fill="#00435B" d="M38.997,0.694c-0.136-0.008-0.305-0.017-0.466-0.017c-0.644,0-0.644,0.321-0.644,0.618v0.669h0.991v0.576
		h-0.991v3.675H37.1V2.541h-0.838V1.965H37.1V1.482c0-0.585,0.034-0.796,0.178-1.017C37.455,0.195,37.794,0,38.344,0
		c0.229,0,0.483,0.034,0.652,0.06V0.694z"/>
	<path fill="#00435B" d="M39.731,2.829c0-0.288-0.017-0.585-0.042-0.864h0.805l0.017,0.821c0.152-0.593,0.66-0.787,1.016-0.838
		c0.237-0.034,0.415-0.025,0.55-0.018V2.71c-0.042-0.017-0.093-0.025-0.152-0.034c-0.059-0.008-0.136-0.008-0.229-0.008
		c-0.94,0-1.16,0.559-1.16,1.287v2.261h-0.805V2.829z"/>
	<path fill="#00435B" d="M44.826,1.854c1.702,0,2.083,1.338,2.083,2.228c0,1.245-0.703,2.278-2.151,2.278
		c-1.406,0-2.091-0.975-2.091-2.219C42.667,3.091,43.158,1.854,44.826,1.854z M44.775,5.768c0.602,0,1.287-0.433,1.287-1.711
		c0-1.059-0.491-1.617-1.236-1.617c-0.508,0-1.33,0.321-1.33,1.651C43.497,4.963,43.869,5.768,44.775,5.768z"/>
	<path fill="#00435B" d="M48.142,2.532l-0.017-0.567h0.805v0.618c0.406-0.669,0.982-0.729,1.347-0.729
		c0.94,0,1.236,0.483,1.389,0.796c0.144-0.236,0.491-0.796,1.431-0.796c0.61,0,1.558,0.254,1.558,1.508v2.854H53.85V3.489
		c0-0.373-0.068-0.533-0.144-0.644c-0.136-0.195-0.407-0.373-0.813-0.373c-0.517,0-0.796,0.297-0.906,0.449
		C51.8,3.185,51.8,3.65,51.8,3.836v2.38h-0.804V3.404c0-0.524-0.305-0.932-0.932-0.932c-0.542,0-0.838,0.339-0.932,0.466
		c-0.178,0.246-0.186,0.593-0.186,0.864v2.413h-0.805V2.532z"/>
	<path fill="#00435B" d="M58.534,2.829c0-0.288-0.017-0.585-0.042-0.864h0.805l0.017,0.821c0.152-0.593,0.66-0.787,1.016-0.838
		c0.237-0.034,0.415-0.025,0.55-0.018V2.71c-0.042-0.017-0.093-0.025-0.152-0.034c-0.059-0.008-0.136-0.008-0.229-0.008
		c-0.94,0-1.16,0.559-1.16,1.287v2.261h-0.805V2.829z"/>
	<path fill="#00435B" d="M62.266,4.234c-0.017,0.881,0.347,1.533,1.219,1.533c0.517,0,0.932-0.271,1-0.881h0.796
		c-0.025,0.212-0.059,0.559-0.364,0.889c-0.186,0.212-0.609,0.567-1.465,0.567c-1.338,0-1.973-0.83-1.973-2.176
		c0-0.839,0.169-1.533,0.838-1.999c0.406-0.288,0.915-0.313,1.16-0.313c1.905,0,1.863,1.686,1.846,2.38H62.266z M64.51,3.676
		c0.008-0.407-0.068-1.254-1.05-1.254c-0.517,0-1.143,0.313-1.16,1.254H64.51z"/>
	<path fill="#00435B" d="M68.614,0.694c-0.136-0.008-0.305-0.017-0.466-0.017c-0.644,0-0.644,0.321-0.644,0.618v0.669h0.991v0.576
		h-0.991v3.675h-0.787V2.541h-0.839V1.965h0.839V1.482c0-0.585,0.034-0.796,0.178-1.017C67.073,0.195,67.412,0,67.962,0
		c0.229,0,0.483,0.034,0.652,0.06V0.694z"/>
	<path fill="#00435B" d="M69.247,5.2h0.94v1.016h-0.94V5.2z"/>
	<path fill="#00435B" d="M72.133,4.709c-0.009,0.559,0.355,0.957,1.075,0.957c0.821,0,1.169-0.525,1.169-1.042
		c0-0.618-0.415-0.94-0.847-1.033c-0.305-0.06-0.517-0.051-0.813-0.042V2.862c0.584,0.051,1.567-0.067,1.567-1.016
		c0-0.661-0.449-0.924-1.033-0.924c-0.44,0-0.991,0.195-1.067,0.924h-0.855c0.051-1.457,1.423-1.601,1.897-1.601
		c1.279,0,1.914,0.771,1.914,1.583c0,0.483-0.263,1.178-1.169,1.381c1.253,0.178,1.253,1.304,1.253,1.423
		c0,0.821-0.669,1.728-2.033,1.728c-0.618,0-1.236-0.178-1.609-0.61c-0.33-0.372-0.339-0.796-0.347-1.041H72.133z"/>
</g>
</svg>
