<?xml version="1.0" encoding="utf-8"?>
<!-- Generator: Adobe Illustrator 17.0.0, SVG Export Plug-In . SVG Version: 6.00 Build 0)  -->
<!DOCTYPE svg PUBLIC "-//W3C//DTD SVG 1.1//EN" "http://www.w3.org/Graphics/SVG/1.1/DTD/svg11.dtd">
<svg version="1.1" id="Layer_1" xmlns="http://www.w3.org/2000/svg" xmlns:xlink="http://www.w3.org/1999/xlink" x="0px" y="0px"
	 width="305.739px" height="24.318px" viewBox="0 0 305.739 24.318" enable-background="new 0 0 305.739 24.318"
	 xml:space="preserve">
<g>
	<g>
		<defs>
			<path id="SVGID_27_" d="M9.543,0C4.271,0,0,3.513,0,7.846v8.626c0,4.331,4.271,7.846,9.543,7.846h286.655
				c5.266,0,9.541-3.515,9.541-7.846V7.846c0-4.333-4.275-7.846-9.541-7.846H9.543z"/>
		</defs>
		<clipPath id="SVGID_2_">
			<use xlink:href="#SVGID_27_"  overflow="visible"/>
		</clipPath>
		
			<linearGradient id="SVGID_4_" gradientUnits="userSpaceOnUse" x1="-358.6164" y1="565.3322" x2="-357.2059" y2="565.3322" gradientTransform="matrix(0 -17.2412 -20.9672 0 12006.3027 -6158.6587)">
			<stop  offset="0" style="stop-color:#404041"/>
			<stop  offset="0.0106" style="stop-color:#434344"/>
			<stop  offset="0.1494" style="stop-color:#676869"/>
			<stop  offset="0.2946" style="stop-color:#858788"/>
			<stop  offset="0.4461" style="stop-color:#9D9EA0"/>
			<stop  offset="0.6065" style="stop-color:#ADAFB1"/>
			<stop  offset="0.7818" style="stop-color:#B7B9BB"/>
			<stop  offset="1" style="stop-color:#BABCBE"/>
		</linearGradient>
		<rect x="0" y="0" clip-path="url(#SVGID_2_)" fill="url(#SVGID_4_)" width="305.739" height="24.318"/>
	</g>
	<g>
		<defs>
			<path id="SVGID_30_" d="M9.543,2.226c-3.771,0-6.838,2.522-6.838,5.62v8.626c0,3.099,3.066,5.623,6.838,5.623h286.655
				c3.768,0,6.838-2.525,6.838-5.623V7.846c0-3.099-3.069-5.62-6.838-5.62H9.543z"/>
		</defs>
		<clipPath id="SVGID_6_">
			<use xlink:href="#SVGID_30_"  overflow="visible"/>
		</clipPath>
		
			<linearGradient id="SVGID_8_" gradientUnits="userSpaceOnUse" x1="-360.6504" y1="576.0857" x2="-359.2398" y2="576.0857" gradientTransform="matrix(0 -14.0864 -17.1307 0 10021.6221 -5058.1699)">
			<stop  offset="0" style="stop-color:#FFFFFF"/>
			<stop  offset="0.2926" style="stop-color:#F8F8F8"/>
			<stop  offset="0.7323" style="stop-color:#E5E5E3"/>
			<stop  offset="1" style="stop-color:#D7D6D3"/>
		</linearGradient>
		<rect x="2.705" y="2.226" clip-path="url(#SVGID_6_)" fill="url(#SVGID_8_)" width="300.331" height="19.869"/>
	</g>
	<g>
		<defs>
			<rect id="SVGID_33_" x="0" y="0" width="305.739" height="24.318"/>
		</defs>
		<clipPath id="SVGID_10_">
			<use xlink:href="#SVGID_33_"  overflow="visible"/>
		</clipPath>
		<g opacity="0.5" clip-path="url(#SVGID_10_)">
			<g>
				<defs>
					<rect id="SVGID_35_" x="2.702" y="2.226" width="300.327" height="19.868"/>
				</defs>
				<clipPath id="SVGID_12_">
					<use xlink:href="#SVGID_35_"  overflow="visible"/>
				</clipPath>
				<g clip-path="url(#SVGID_12_)">
					<defs>
						<path id="SVGID_37_" d="M9.402,2.227C5.697,2.288,2.705,4.785,2.705,7.846v8.626c0,3.06,2.99,5.56,6.697,5.622h286.936
							c3.705-0.062,6.698-2.561,6.698-5.622V7.846c0-3.061-2.993-5.558-6.698-5.619H9.402z"/>
					</defs>
					<clipPath id="SVGID_14_">
						<use xlink:href="#SVGID_37_"  overflow="visible"/>
					</clipPath>
					
						<linearGradient id="SVGID_16_" gradientUnits="userSpaceOnUse" x1="-360.6502" y1="576.0857" x2="-359.2399" y2="576.0857" gradientTransform="matrix(0 -14.0864 -17.1307 0 10021.6221 -5058.1699)">
						<stop  offset="0" style="stop-color:#59595C"/>
						<stop  offset="0.005" style="stop-color:#5C5C5F"/>
						<stop  offset="0.066" style="stop-color:#838385"/>
						<stop  offset="0.1322" style="stop-color:#A4A4A5"/>
						<stop  offset="0.2061" style="stop-color:#C0C0C1"/>
						<stop  offset="0.2882" style="stop-color:#D7D7D8"/>
						<stop  offset="0.3822" style="stop-color:#E9E9EA"/>
						<stop  offset="0.4954" style="stop-color:#F6F6F6"/>
						<stop  offset="0.6471" style="stop-color:#FDFDFD"/>
						<stop  offset="1" style="stop-color:#FFFFFF"/>
					</linearGradient>
					<rect x="2.705" y="2.227" clip-path="url(#SVGID_14_)" fill="url(#SVGID_16_)" width="300.331" height="19.867"/>
				</g>
			</g>
		</g>
	</g>
	<g>
		<path fill="#231F20" d="M30.056,15.408h-1.428V4.204h1.428V15.408z"/>
		<path fill="#231F20" d="M36.867,15.408V9.977c0-0.838-0.295-1.521-1.381-1.521c-1.397,0-1.599,1.242-1.599,2.312v4.64h-1.272V9.2
			c0-0.543-0.031-1.086-0.078-1.629h1.35V8.58h0.062c0.497-0.884,1.086-1.164,2.095-1.164c1.676,0,2.095,1.008,2.095,2.561v5.431
			H36.867z"/>
		<path fill="#231F20" d="M44.469,10.085c0.031-1.288-0.605-1.629-1.086-1.629c-0.978,0-1.645,0.465-1.645,2.607
			c0,2.545,0.326,3.46,1.645,3.46c0.295,0,1.179-0.31,1.133-1.722h1.334c0.046,2.204-1.598,2.762-2.467,2.762
			c-1.661,0-2.979-0.497-2.979-3.957c0-2.297,0.264-4.19,2.979-4.19c1.567,0,2.483,0.916,2.405,2.669H44.469z"/>
		<path fill="#231F20" d="M48.021,4.204h1.428v1.366h-1.428V4.204z M49.371,15.408h-1.272V7.571h1.272V15.408z"/>
		<path fill="#231F20" d="M55.717,4.204h1.272v11.204h-1.272v-0.931h-0.031c-0.435,0.729-0.978,1.086-1.8,1.086
			c-1.257,0-2.53-0.497-2.53-3.942c0-1.955,0.062-4.205,2.592-4.205c0.745,0,1.288,0.326,1.722,0.946h0.047V4.204z M54.242,8.456
			c-1.366,0-1.552,1.086-1.552,3.181c0,1.18,0,2.886,1.599,2.886c1.428,0,1.428-1.769,1.428-3.352
			C55.717,10.131,55.655,8.456,54.242,8.456z"/>
		<path fill="#231F20" d="M60.572,11.9c0,2.188,0.589,2.623,1.583,2.623c0.869,0,1.319-0.698,1.366-1.49h1.396
			c-0.015,1.738-1.086,2.53-2.731,2.53c-1.661,0-2.979-0.497-2.979-3.957c0-2.297,0.264-4.19,2.979-4.19
			c2.235,0,2.793,1.226,2.793,3.817V11.9H60.572z M63.629,10.938c0-2.281-0.636-2.561-1.567-2.561c-0.807,0-1.474,0.388-1.49,2.561
			H63.629z"/>
		<path fill="#231F20" d="M71.339,15.408V9.977c0-0.838-0.295-1.521-1.381-1.521c-1.397,0-1.599,1.242-1.599,2.312v4.64h-1.272V9.2
			c0-0.543-0.031-1.086-0.078-1.629h1.35V8.58h0.062c0.497-0.884,1.086-1.164,2.095-1.164c1.676,0,2.095,1.008,2.095,2.561v5.431
			H71.339z"/>
		<path fill="#231F20" d="M78.941,10.085c0.031-1.288-0.605-1.629-1.086-1.629c-0.978,0-1.645,0.465-1.645,2.607
			c0,2.545,0.326,3.46,1.645,3.46c0.295,0,1.179-0.31,1.133-1.722h1.334c0.046,2.204-1.598,2.762-2.467,2.762
			c-1.661,0-2.979-0.497-2.979-3.957c0-2.297,0.264-4.19,2.979-4.19c1.567,0,2.483,0.916,2.405,2.669H78.941z"/>
		<path fill="#231F20" d="M83.843,11.9c0,2.188,0.589,2.623,1.583,2.623c0.869,0,1.319-0.698,1.366-1.49h1.396
			c-0.015,1.738-1.086,2.53-2.731,2.53c-1.661,0-2.979-0.497-2.979-3.957c0-2.297,0.264-4.19,2.979-4.19
			c2.235,0,2.793,1.226,2.793,3.817V11.9H83.843z M86.901,10.938c0-2.281-0.636-2.561-1.567-2.561c-0.807,0-1.474,0.388-1.49,2.561
			H86.901z"/>
		<path fill="#231F20" d="M93.585,11.606c0-2.297,0.264-4.19,2.979-4.19c2.716,0,2.979,1.893,2.979,4.19
			c0,3.46-1.319,3.957-2.979,3.957C94.905,15.563,93.585,15.066,93.585,11.606z M98.21,11.062c0-2.142-0.667-2.607-1.645-2.607
			c-0.978,0-1.645,0.465-1.645,2.607c0,2.545,0.326,3.46,1.645,3.46C97.884,14.523,98.21,13.607,98.21,11.062z"/>
		<path fill="#231F20" d="M101.793,7.571V6.05c0-1.583,1.117-1.893,2.25-1.893c0.264,0,0.419,0.015,0.605,0.046v0.916
			c-1.35-0.093-1.583,0.481-1.583,1.117v1.334h1.583v0.962h-1.583v6.875h-1.272V8.533h-1.21V7.571H101.793z"/>
		<path fill="#231F20" d="M113.46,4.204h1.272v11.204h-1.272v-0.931h-0.031c-0.435,0.729-0.978,1.086-1.8,1.086
			c-1.257,0-2.53-0.497-2.53-3.942c0-1.955,0.062-4.205,2.592-4.205c0.745,0,1.288,0.326,1.723,0.946h0.046V4.204z M111.986,8.456
			c-1.366,0-1.552,1.086-1.552,3.181c0,1.18,0,2.886,1.598,2.886c1.428,0,1.428-1.769,1.428-3.352
			C113.46,10.131,113.398,8.456,111.986,8.456z"/>
		<path fill="#231F20" d="M118.316,11.9c0,2.188,0.589,2.623,1.583,2.623c0.869,0,1.319-0.698,1.366-1.49h1.397
			c-0.016,1.738-1.086,2.53-2.731,2.53c-1.661,0-2.979-0.497-2.979-3.957c0-2.297,0.264-4.19,2.979-4.19
			c2.234,0,2.793,1.226,2.793,3.817V11.9H118.316z M121.373,10.938c0-2.281-0.636-2.561-1.567-2.561
			c-0.807,0-1.474,0.388-1.49,2.561H121.373z"/>
		<path fill="#231F20" d="M128.865,14.275h-0.031c-0.388,0.9-0.993,1.288-1.971,1.288c-1.661,0-2.142-1.071-2.142-2.576
			c0-2.374,2.328-2.483,4.112-2.437c0.031-1.04,0.046-2.172-1.319-2.172c-0.854,0-1.303,0.574-1.226,1.396h-1.381
			c0.062-1.753,0.993-2.358,2.654-2.358c2.017,0,2.545,1.04,2.545,2.358v3.771c0,0.621,0.062,1.257,0.155,1.862h-1.397V14.275z
			 M125.995,13.08c0,0.76,0.373,1.443,1.226,1.443c0.776,0,1.738-0.481,1.614-3.01C127.624,11.528,125.995,11.419,125.995,13.08z"/>
		<path fill="#231F20" d="M132.728,7.571V6.066L134,5.492v2.079h1.707v0.962H134v4.795c0,0.497,0,1.133,1.164,1.133
			c0.093,0,0.295-0.031,0.574-0.062v0.978c-0.419,0.031-0.838,0.125-1.257,0.125c-1.21,0-1.754-0.497-1.754-1.397V8.533h-1.288
			V7.571H132.728z"/>
		<path fill="#231F20" d="M141.153,15.408v-5.307c0-0.962-0.31-1.645-1.396-1.645c-1.272,0-1.598,1.024-1.598,2.343v4.609h-1.273
			V4.204h1.273V8.58h0.062c0.512-0.916,1.102-1.164,2.126-1.164c1.334,0,2.079,0.667,2.079,2.436v5.556H141.153z"/>
		<path fill="#231F20" d="M147.885,11.606c0-2.297,0.264-4.19,2.979-4.19c2.716,0,2.979,1.893,2.979,4.19
			c0,3.46-1.319,3.957-2.979,3.957C149.204,15.563,147.885,15.066,147.885,11.606z M152.509,11.062c0-2.142-0.667-2.607-1.645-2.607
			c-0.978,0-1.645,0.465-1.645,2.607c0,2.545,0.326,3.46,1.645,3.46C152.184,14.523,152.509,13.607,152.509,11.062z"/>
		<path fill="#231F20" d="M157.178,8.75h0.031c0.528-1.195,1.18-1.334,2.421-1.334v1.319c-0.108-0.016-0.233-0.031-0.341-0.046
			c-0.109-0.016-0.217-0.031-0.341-0.031c-1.412,0-1.769,1.071-1.769,2.126v4.625h-1.272V7.571h1.272V8.75z"/>
		<path fill="#231F20" d="M168.318,15.408V9.977c0-0.792-0.217-1.521-1.241-1.521c-0.388,0-0.916,0.233-1.102,0.528
			c-0.233,0.388-0.295,0.854-0.295,1.148v5.276h-1.272V9.2c0-0.543-0.031-1.086-0.078-1.629h1.35v0.978h0.031
			c0.373-0.838,1.04-1.133,1.955-1.133c0.714,0,1.537,0.295,1.831,1.008c0.435-0.838,1.148-1.008,1.862-1.008
			c0.823,0,2.142,0.186,2.142,2.033v5.959h-1.272V9.977c0-0.792-0.217-1.521-1.242-1.521c-0.481,0-0.621,0.016-0.962,0.295
			c-0.373,0.31-0.435,1.086-0.435,1.381v5.276H168.318z"/>
		<path fill="#231F20" d="M179.705,14.275h-0.031c-0.388,0.9-0.993,1.288-1.971,1.288c-1.661,0-2.142-1.071-2.142-2.576
			c0-2.374,2.328-2.483,4.112-2.437c0.031-1.04,0.046-2.172-1.319-2.172c-0.854,0-1.303,0.574-1.226,1.396h-1.381
			c0.062-1.753,0.993-2.358,2.654-2.358c2.017,0,2.545,1.04,2.545,2.358v3.771c0,0.621,0.062,1.257,0.155,1.862h-1.397V14.275z
			 M176.834,13.08c0,0.76,0.373,1.443,1.226,1.443c0.776,0,1.738-0.481,1.614-3.01C178.464,11.528,176.834,11.419,176.834,13.08z"/>
		<path fill="#231F20" d="M183.397,7.571h1.272v8.923c0,1.241-0.357,1.877-2.219,1.877v-1.086c0.543,0,0.947-0.078,0.947-0.729
			V7.571z M183.319,4.204h1.428v1.366h-1.428V4.204z"/>
		<path fill="#231F20" d="M186.654,11.606c0-2.297,0.264-4.19,2.979-4.19c2.716,0,2.979,1.893,2.979,4.19
			c0,3.46-1.319,3.957-2.979,3.957C187.973,15.563,186.654,15.066,186.654,11.606z M191.279,11.062c0-2.142-0.667-2.607-1.645-2.607
			c-0.978,0-1.645,0.465-1.645,2.607c0,2.545,0.326,3.46,1.645,3.46C190.953,14.523,191.279,13.607,191.279,11.062z"/>
		<path fill="#231F20" d="M195.948,8.75h0.031c0.528-1.195,1.18-1.334,2.421-1.334v1.319c-0.108-0.016-0.233-0.031-0.341-0.046
			c-0.109-0.016-0.217-0.031-0.341-0.031c-1.412,0-1.769,1.071-1.769,2.126v4.625h-1.272V7.571h1.272V8.75z"/>
		<path fill="#231F20" d="M208.313,7.291c0.016-0.636-0.031-1.272-0.326-1.629s-0.962-0.481-1.257-0.481
			c-1.179,0-1.645,0.714-1.691,0.869c-0.046,0.124-0.326,0.403-0.326,2.328v2.995c0,2.747,0.9,3.073,2.002,3.073
			c0.435,0,1.754-0.155,1.769-2.343h1.475c0.062,3.538-2.437,3.538-3.166,3.538c-1.396,0-3.538-0.093-3.538-4.438V8.037
			c0-3.166,1.396-4.066,3.6-4.066c2.219,0,3.073,1.148,2.933,3.321H208.313z"/>
		<path fill="#231F20" d="M215.899,15.408h-1.707l-3.243-11.204h1.552l2.561,9.854h0.031l2.623-9.854h1.458L215.899,15.408z"/>
		<path fill="#231F20" d="M225.176,11.9c0,2.188,0.589,2.623,1.583,2.623c0.869,0,1.319-0.698,1.366-1.49h1.397
			c-0.016,1.738-1.086,2.53-2.731,2.53c-1.661,0-2.979-0.497-2.979-3.957c0-2.297,0.264-4.19,2.979-4.19
			c2.234,0,2.793,1.226,2.793,3.817V11.9H225.176z M228.233,10.938c0-2.281-0.636-2.561-1.567-2.561
			c-0.807,0-1.474,0.388-1.49,2.561H228.233z"/>
		<path fill="#231F20" d="M230.792,7.571h1.428l1.753,6.642h0.031l1.893-6.642h1.334l-2.452,7.837h-1.661L230.792,7.571z"/>
		<path fill="#231F20" d="M239.821,11.9c0,2.188,0.589,2.623,1.583,2.623c0.869,0,1.319-0.698,1.366-1.49h1.396
			c-0.015,1.738-1.086,2.53-2.731,2.53c-1.661,0-2.979-0.497-2.979-3.957c0-2.297,0.264-4.19,2.979-4.19
			c2.235,0,2.793,1.226,2.793,3.817V11.9H239.821z M242.878,10.938c0-2.281-0.636-2.561-1.567-2.561
			c-0.807,0-1.474,0.388-1.49,2.561H242.878z"/>
		<path fill="#231F20" d="M250.589,15.408V9.977c0-0.838-0.295-1.521-1.381-1.521c-1.397,0-1.599,1.242-1.599,2.312v4.64h-1.272V9.2
			c0-0.543-0.031-1.086-0.078-1.629h1.35V8.58h0.062c0.497-0.884,1.086-1.164,2.095-1.164c1.676,0,2.095,1.008,2.095,2.561v5.431
			H250.589z"/>
		<path fill="#231F20" d="M254.234,7.571V6.066l1.272-0.574v2.079h1.707v0.962h-1.707v4.795c0,0.497,0,1.133,1.164,1.133
			c0.093,0,0.295-0.031,0.574-0.062v0.978c-0.419,0.031-0.838,0.125-1.257,0.125c-1.21,0-1.754-0.497-1.754-1.397V8.533h-1.288
			V7.571H254.234z"/>
		<path fill="#231F20" d="M260.719,15.563c-1.691,0-2.747-0.745-2.7-2.545h1.443c0,0.45,0.016,1.505,1.304,1.505
			c0.76,0,1.35-0.388,1.35-1.195c0-1.396-3.911-1.428-3.911-3.771c0-0.822,0.497-2.141,2.7-2.141c1.396,0,2.591,0.667,2.483,2.219
			h-1.412c0.016-0.822-0.419-1.257-1.226-1.257c-0.683,0-1.21,0.373-1.21,1.055c0,1.381,3.911,1.35,3.911,3.74
			C263.45,14.895,262.271,15.563,260.719,15.563z"/>
		<path fill="#231F20" d="M268.15,7.074l1.412,2.018l-0.9,0.497l-1.04-2.234l-1.04,2.234l-0.9-0.497l1.412-2.018l-2.421,0.233V6.283
			l2.421,0.186l-1.396-1.971l0.916-0.528l1.008,2.204l1.009-2.204l0.916,0.528l-1.396,1.971l2.421-0.186v1.024L268.15,7.074z"/>
	</g>
</g>
</svg>
