<?xml version="1.0" encoding="utf-8"?>
<!-- Generator: Adobe Illustrator 17.0.0, SVG Export Plug-In . SVG Version: 6.00 Build 0)  -->
<!DOCTYPE svg PUBLIC "-//W3C//DTD SVG 1.1//EN" "http://www.w3.org/Graphics/SVG/1.1/DTD/svg11.dtd">
<svg version="1.1" id="Layer_1" xmlns="http://www.w3.org/2000/svg" xmlns:xlink="http://www.w3.org/1999/xlink" x="0px" y="0px"
	 width="264.622px" height="8.638px" viewBox="0 0 264.622 8.638" enable-background="new 0 0 264.622 8.638" xml:space="preserve">
<g>
	<g>
		<path fill="#020202" d="M0,1.065c0-0.609,0.367-0.84,0.451-0.887C0.703,0.031,0.997,0,1.291,0c0.578,0,1.218,0.22,1.218,0.787
			c0,0.247-0.089,0.415-0.482,0.672C1.947,1.512,1.863,1.563,1.863,1.706c0,0.073,0.026,0.146,0.247,0.272L2.52,2.226
			C2.74,2.352,2.997,2.53,2.997,3.023c0,0.908-0.734,0.955-1.055,0.955c-0.325,0-0.877-0.042-0.929-0.84h0.688
			c0,0.104,0.031,0.188,0.084,0.241c0.047,0.053,0.12,0.079,0.188,0.079c0.132,0,0.294-0.105,0.294-0.373
			c0-0.168-0.053-0.32-0.299-0.467l-0.41-0.247c-0.283-0.168-0.43-0.278-0.43-0.566c0-0.205,0.063-0.389,0.394-0.662
			c0.115-0.1,0.21-0.188,0.21-0.336c0-0.173-0.137-0.325-0.404-0.325c-0.289,0-0.425,0.168-0.467,0.226
			c-0.1,0.143-0.1,0.336-0.1,0.431v2.756H0V1.065z"/>
		<path fill="#020202" d="M5.233,0.4h2.008c0.937,0,1.72,0.063,2.26,0.712c0.342,0.414,0.396,0.882,0.396,1.215
			c0,0.756-0.315,1.396-0.829,1.729C8.592,4.362,7.935,4.362,7.593,4.362H6.647v2.529H5.233V0.4z M6.611,3.326h0.558
			c0.45,0,1.288,0,1.288-0.99c0-0.882-0.748-0.882-1.144-0.882H6.611V3.326z"/>
		<path fill="#020202" d="M10.732,3.462c0-0.217-0.036-0.874-0.063-1.135h1.251L11.948,3.2c0.171-0.387,0.468-0.936,1.548-0.882
			v1.197c-1.35-0.126-1.431,0.567-1.431,1.135v2.241h-1.333V3.462z"/>
		<path fill="#020202" d="M16.961,6.892c-0.045-0.279-0.045-0.486-0.045-0.621C16.412,7,15.809,7,15.557,7
			c-0.657,0-0.954-0.189-1.134-0.36C14.152,6.369,14.026,6,14.026,5.641c0-0.36,0.126-1.026,0.964-1.414
			c0.558-0.252,1.359-0.252,1.8-0.252c0-0.297-0.009-0.441-0.063-0.604c-0.117-0.333-0.469-0.378-0.595-0.378
			c-0.188,0-0.387,0.081-0.504,0.252C15.53,3.398,15.53,3.543,15.53,3.65h-1.306c0.009-0.243,0.036-0.729,0.513-1.071
			c0.415-0.297,0.945-0.369,1.378-0.369c0.378,0,1.17,0.063,1.62,0.585c0.307,0.369,0.315,0.91,0.315,1.117l0.009,1.827
			c0,0.387,0.027,0.774,0.108,1.152H16.961z M15.323,5.487c0,0.306,0.207,0.648,0.647,0.648c0.243,0,0.441-0.117,0.567-0.262
			c0.234-0.288,0.252-0.639,0.252-1.125C15.936,4.677,15.323,4.947,15.323,5.487z"/>
		<path fill="#020202" d="M20.138,2.346l1.026,3.088l1.044-3.088h1.288l-1.639,4.546h-1.477l-1.665-4.546H20.138z"/>
		<path fill="#020202" d="M26.969,6.892c-0.045-0.279-0.045-0.486-0.045-0.621C26.42,7,25.816,7,25.564,7
			c-0.657,0-0.954-0.189-1.134-0.36C24.16,6.369,24.034,6,24.034,5.641c0-0.36,0.126-1.026,0.964-1.414
			c0.558-0.252,1.359-0.252,1.8-0.252c0-0.297-0.009-0.441-0.063-0.604c-0.117-0.333-0.469-0.378-0.595-0.378
			c-0.188,0-0.387,0.081-0.504,0.252c-0.099,0.153-0.099,0.298-0.099,0.405h-1.306c0.009-0.243,0.036-0.729,0.513-1.071
			C25.16,2.282,25.69,2.21,26.123,2.21c0.378,0,1.17,0.063,1.62,0.585c0.307,0.369,0.315,0.91,0.315,1.117l0.009,1.827
			c0,0.387,0.027,0.774,0.108,1.152H26.969z M25.331,5.487c0,0.306,0.207,0.648,0.647,0.648c0.243,0,0.441-0.117,0.567-0.262
			c0.234-0.288,0.252-0.639,0.252-1.125C25.943,4.677,25.331,4.947,25.331,5.487z"/>
		<path fill="#020202" d="M30.174,5.577c0.018,0.288,0.198,0.621,0.756,0.621c0.478,0,0.702-0.27,0.702-0.54
			c0-0.207-0.107-0.369-0.63-0.513L30.174,4.92c-0.369-0.108-1.152-0.333-1.152-1.261c0-0.882,0.81-1.422,1.989-1.422
			c0.937,0,1.692,0.432,1.729,1.342h-1.215c-0.036-0.505-0.441-0.541-0.648-0.541c-0.36,0-0.63,0.172-0.63,0.45
			c0,0.307,0.225,0.369,0.621,0.478l0.818,0.225c0.829,0.226,1.216,0.648,1.216,1.27c0,0.783-0.675,1.566-2.089,1.566
			c-0.585,0-1.143-0.126-1.558-0.558c-0.297-0.315-0.323-0.676-0.333-0.892H30.174z"/>
		<path fill="#020202" d="M36.42,6.828c-0.432,0.117-0.819,0.145-1.035,0.145c-1.342,0-1.342-0.847-1.342-1.225V3.255H33.17V2.372
			h0.873V1.481l1.324-0.486v1.377h1.08v0.883h-1.08v2.053c0.009,0.414,0.009,0.675,0.603,0.675c0.198,0,0.288-0.009,0.45-0.027
			V6.828z"/>
		<path fill="#020202" d="M39.975,6.892c-0.046-0.279-0.046-0.486-0.046-0.621C39.425,7,38.822,7,38.569,7
			c-0.657,0-0.954-0.189-1.134-0.36C37.165,6.369,37.039,6,37.039,5.641c0-0.36,0.126-1.026,0.964-1.414
			c0.558-0.252,1.359-0.252,1.8-0.252c0-0.297-0.009-0.441-0.063-0.604c-0.117-0.333-0.469-0.378-0.595-0.378
			c-0.188,0-0.387,0.081-0.504,0.252c-0.099,0.153-0.099,0.298-0.099,0.405h-1.306c0.009-0.243,0.036-0.729,0.513-1.071
			c0.415-0.297,0.945-0.369,1.378-0.369c0.378,0,1.17,0.063,1.62,0.585c0.307,0.369,0.315,0.91,0.315,1.117l0.009,1.827
			c0,0.387,0.027,0.774,0.108,1.152H39.975z M38.336,5.487c0,0.306,0.207,0.648,0.647,0.648c0.243,0,0.441-0.117,0.567-0.262
			c0.234-0.288,0.252-0.639,0.252-1.125C38.948,4.677,38.336,4.947,38.336,5.487z"/>
		<path fill="#020202" d="M44.925,6.828c-0.432,0.117-0.819,0.145-1.035,0.145c-1.342,0-1.342-0.847-1.342-1.225V3.255h-0.873V2.372
			h0.873V1.481l1.324-0.486v1.377h1.08v0.883h-1.08v2.053c0.009,0.414,0.009,0.675,0.603,0.675c0.198,0,0.288-0.009,0.45-0.027
			V6.828z"/>
		<path fill="#020202" d="M45.707,0.392h1.423v1.161h-1.423V0.392z M45.752,2.336h1.333v4.556h-1.333V2.336z"/>
		<path fill="#020202" d="M48.272,3.155c0-0.018,0-0.513-0.027-0.828h1.278l0.036,0.685c0.126-0.207,0.486-0.793,1.477-0.793
			c0.891,0,1.27,0.541,1.386,0.855c0.1,0.279,0.127,0.514,0.127,1.359v2.458h-1.359V4.064c0-0.188,0-0.351-0.072-0.495
			c-0.1-0.198-0.307-0.387-0.648-0.387c-0.288,0-0.549,0.135-0.693,0.351c-0.081,0.117-0.162,0.343-0.162,0.693v2.665h-1.341V3.155z
			"/>
		<path fill="#020202" d="M58.397,2.237c1.647,0,2.359,1.116,2.359,2.386c0,1.278-0.738,2.431-2.386,2.431
			c-1.297,0-2.323-0.802-2.323-2.395C56.048,3.561,56.606,2.237,58.397,2.237z M58.416,6.126c0.585,0,0.981-0.351,0.981-1.557
			c0-0.604-0.117-1.44-1-1.44c-0.972,0-0.981,1.125-0.981,1.539C57.416,5.686,57.759,6.126,58.416,6.126z"/>
		<path fill="#020202" d="M61.753,3.462c0-0.217-0.036-0.874-0.063-1.135h1.251L62.969,3.2c0.171-0.387,0.468-0.936,1.548-0.882
			v1.197c-1.35-0.126-1.431,0.567-1.431,1.135v2.241h-1.333V3.462z"/>
		<path fill="#020202" d="M71.222,0.383l2.26,6.509h-1.404l-0.468-1.404h-2.575l-0.486,1.404h-1.332l2.35-6.509H71.222z
			 M71.258,4.434l-0.9-2.772l-0.963,2.772H71.258z"/>
		<path fill="#020202" d="M76.928,6.828c-0.432,0.117-0.819,0.145-1.035,0.145c-1.342,0-1.342-0.847-1.342-1.225V3.255h-0.873V2.372
			h0.873V1.481l1.324-0.486v1.377h1.08v0.883h-1.08v2.053c0.009,0.414,0.009,0.675,0.603,0.675c0.198,0,0.288-0.009,0.45-0.027
			V6.828z"/>
		<path fill="#020202" d="M79.897,2.237c1.647,0,2.359,1.116,2.359,2.386c0,1.278-0.738,2.431-2.386,2.431
			c-1.297,0-2.323-0.802-2.323-2.395C77.548,3.561,78.106,2.237,79.897,2.237z M79.916,6.126c0.585,0,0.981-0.351,0.981-1.557
			c0-0.604-0.117-1.44-1-1.44c-0.972,0-0.981,1.125-0.981,1.539C78.916,5.686,79.259,6.126,79.916,6.126z"/>
		<path fill="#020202" d="M83.254,3.462c0-0.217-0.036-0.874-0.063-1.135h1.251L84.47,3.2c0.171-0.387,0.468-0.936,1.548-0.882
			v1.197c-1.35-0.126-1.431,0.567-1.431,1.135v2.241h-1.333V3.462z"/>
		<path fill="#020202" d="M87.655,2.346l1.026,3.088l1.044-3.088h1.288l-1.639,4.546h-1.477l-1.665-4.546H87.655z"/>
		<path fill="#020202" d="M94.486,6.892c-0.045-0.279-0.045-0.486-0.045-0.621C93.938,7,93.334,7,93.082,7
			c-0.657,0-0.954-0.189-1.134-0.36C91.678,6.369,91.552,6,91.552,5.641c0-0.36,0.126-1.026,0.964-1.414
			c0.558-0.252,1.359-0.252,1.8-0.252c0-0.297-0.009-0.441-0.063-0.604c-0.117-0.333-0.469-0.378-0.595-0.378
			c-0.188,0-0.387,0.081-0.504,0.252c-0.099,0.153-0.099,0.298-0.099,0.405H91.75c0.009-0.243,0.036-0.729,0.513-1.071
			c0.415-0.297,0.945-0.369,1.378-0.369c0.378,0,1.17,0.063,1.62,0.585c0.307,0.369,0.315,0.91,0.315,1.117l0.009,1.827
			c0,0.387,0.027,0.774,0.108,1.152H94.486z M92.849,5.487c0,0.306,0.207,0.648,0.647,0.648c0.243,0,0.441-0.117,0.567-0.262
			c0.234-0.288,0.252-0.639,0.252-1.125C93.461,4.677,92.849,4.947,92.849,5.487z"/>
		<path fill="#020202" d="M97.69,5.577c0.018,0.288,0.198,0.621,0.756,0.621c0.478,0,0.702-0.27,0.702-0.54
			c0-0.207-0.107-0.369-0.63-0.513L97.69,4.92c-0.369-0.108-1.152-0.333-1.152-1.261c0-0.882,0.81-1.422,1.989-1.422
			c0.937,0,1.692,0.432,1.729,1.342h-1.215c-0.036-0.505-0.441-0.541-0.648-0.541c-0.36,0-0.631,0.172-0.631,0.45
			c0,0.307,0.226,0.369,0.622,0.478l0.819,0.225c0.828,0.226,1.215,0.648,1.215,1.27c0,0.783-0.675,1.566-2.089,1.566
			c-0.585,0-1.144-0.126-1.558-0.558c-0.297-0.315-0.323-0.676-0.333-0.892H97.69z"/>
		<path fill="#020202" d="M103.937,6.828c-0.432,0.117-0.819,0.145-1.035,0.145c-1.342,0-1.342-0.847-1.342-1.225V3.255h-0.873
			V2.372h0.873V1.481l1.324-0.486v1.377h1.08v0.883h-1.08v2.053c0.009,0.414,0.009,0.675,0.603,0.675
			c0.198,0,0.288-0.009,0.45-0.027V6.828z"/>
		<path fill="#020202" d="M107.492,6.892c-0.046-0.279-0.046-0.486-0.046-0.621C106.942,7,106.34,7,106.087,7
			c-0.657,0-0.954-0.189-1.134-0.36c-0.271-0.271-0.396-0.64-0.396-0.999c0-0.36,0.126-1.026,0.964-1.414
			c0.558-0.252,1.359-0.252,1.8-0.252c0-0.297-0.009-0.441-0.063-0.604c-0.117-0.333-0.469-0.378-0.595-0.378
			c-0.188,0-0.387,0.081-0.504,0.252c-0.099,0.153-0.099,0.298-0.099,0.405h-1.306c0.009-0.243,0.036-0.729,0.513-1.071
			c0.415-0.297,0.945-0.369,1.378-0.369c0.378,0,1.17,0.063,1.62,0.585c0.307,0.369,0.315,0.91,0.315,1.117l0.009,1.827
			c0,0.387,0.027,0.774,0.108,1.152H107.492z M105.854,5.487c0,0.306,0.207,0.648,0.647,0.648c0.243,0,0.441-0.117,0.567-0.262
			c0.234-0.288,0.252-0.639,0.252-1.125C106.466,4.677,105.854,4.947,105.854,5.487z"/>
		<path fill="#020202" d="M112.441,6.828c-0.432,0.117-0.819,0.145-1.035,0.145c-1.342,0-1.342-0.847-1.342-1.225V3.255h-0.873
			V2.372h0.873V1.481l1.324-0.486v1.377h1.08v0.883h-1.08v2.053c0.009,0.414,0.009,0.675,0.603,0.675
			c0.198,0,0.288-0.009,0.45-0.027V6.828z"/>
		<path fill="#020202" d="M113.224,0.392h1.423v1.161h-1.423V0.392z M113.269,2.336h1.333v4.556h-1.333V2.336z"/>
		<path fill="#020202" d="M115.789,3.155c0-0.018,0-0.513-0.027-0.828h1.278l0.036,0.685c0.126-0.207,0.486-0.793,1.477-0.793
			c0.891,0,1.27,0.541,1.387,0.855c0.099,0.279,0.126,0.514,0.126,1.359v2.458h-1.359V4.064c0-0.188,0-0.351-0.072-0.495
			c-0.1-0.198-0.307-0.387-0.648-0.387c-0.288,0-0.549,0.135-0.693,0.351c-0.081,0.117-0.162,0.343-0.162,0.693v2.665h-1.341V3.155z
			"/>
		<path fill="#020202" d="M123.853,0.383h4.357v1.063h-2.962v1.548h2.772v1.063h-2.772v1.756h3.061v1.08h-4.456V0.383z"/>
		<path fill="#020202" d="M130.171,2.346l1.026,3.088l1.044-3.088h1.288l-1.639,4.546h-1.477l-1.665-4.546H130.171z"/>
		<path fill="#020202" d="M137.002,6.892c-0.045-0.279-0.045-0.486-0.045-0.621C136.453,7,135.85,7,135.598,7
			c-0.657,0-0.954-0.189-1.134-0.36c-0.271-0.271-0.396-0.64-0.396-0.999c0-0.36,0.126-1.026,0.964-1.414
			c0.558-0.252,1.359-0.252,1.8-0.252c0-0.297-0.009-0.441-0.063-0.604c-0.117-0.333-0.469-0.378-0.595-0.378
			c-0.188,0-0.387,0.081-0.504,0.252c-0.099,0.153-0.099,0.298-0.099,0.405h-1.306c0.009-0.243,0.036-0.729,0.513-1.071
			c0.415-0.297,0.945-0.369,1.378-0.369c0.378,0,1.17,0.063,1.62,0.585c0.307,0.369,0.315,0.91,0.315,1.117l0.009,1.827
			c0,0.387,0.027,0.774,0.108,1.152H137.002z M135.364,5.487c0,0.306,0.207,0.648,0.647,0.648c0.243,0,0.441-0.117,0.567-0.262
			c0.234-0.288,0.252-0.639,0.252-1.125C135.977,4.677,135.364,4.947,135.364,5.487z"/>
		<path fill="#020202" d="M139.278,0.383h1.333v6.509h-1.333V0.383z"/>
		<path fill="#020202" d="M143.086,2.346v2.709c0,0.396,0,1,0.711,1c0.855,0,0.855-0.64,0.855-1.414V2.346h1.368v2.997
			c0.019,0.981,0.027,1.099,0.027,1.216c0.009,0.126,0.018,0.207,0.036,0.333h-1.297l-0.045-0.604
			c-0.135,0.198-0.477,0.721-1.341,0.721c-0.612,0-1.117-0.279-1.369-0.612c-0.297-0.369-0.297-0.999-0.297-1.225V2.346H143.086z"/>
		<path fill="#020202" d="M150.008,6.892c-0.046-0.279-0.046-0.486-0.046-0.621C149.458,7,148.855,7,148.603,7
			c-0.657,0-0.954-0.189-1.134-0.36c-0.271-0.271-0.396-0.64-0.396-0.999c0-0.36,0.126-1.026,0.964-1.414
			c0.558-0.252,1.359-0.252,1.8-0.252c0-0.297-0.009-0.441-0.063-0.604c-0.117-0.333-0.469-0.378-0.595-0.378
			c-0.188,0-0.387,0.081-0.504,0.252c-0.099,0.153-0.099,0.298-0.099,0.405h-1.306c0.009-0.243,0.036-0.729,0.513-1.071
			c0.415-0.297,0.945-0.369,1.378-0.369c0.378,0,1.17,0.063,1.62,0.585c0.307,0.369,0.315,0.91,0.315,1.117l0.009,1.827
			c0,0.387,0.027,0.774,0.108,1.152H150.008z M148.369,5.487c0,0.306,0.207,0.648,0.647,0.648c0.243,0,0.441-0.117,0.567-0.262
			c0.234-0.288,0.252-0.639,0.252-1.125C148.981,4.677,148.369,4.947,148.369,5.487z"/>
		<path fill="#020202" d="M154.957,6.828c-0.432,0.117-0.819,0.145-1.035,0.145c-1.342,0-1.342-0.847-1.342-1.225V3.255h-0.873
			V2.372h0.873V1.481l1.324-0.486v1.377h1.08v0.883h-1.08v2.053c0.009,0.414,0.009,0.675,0.603,0.675
			c0.198,0,0.288-0.009,0.45-0.027V6.828z"/>
		<path fill="#020202" d="M155.739,0.392h1.423v1.161h-1.423V0.392z M155.784,2.336h1.333v4.556h-1.333V2.336z"/>
		<path fill="#020202" d="M160.429,2.237c1.647,0,2.359,1.116,2.359,2.386c0,1.278-0.738,2.431-2.386,2.431
			c-1.297,0-2.323-0.802-2.323-2.395C158.079,3.561,158.638,2.237,160.429,2.237z M160.447,6.126c0.585,0,0.981-0.351,0.981-1.557
			c0-0.604-0.117-1.44-1-1.44c-0.972,0-0.981,1.125-0.981,1.539C159.447,5.686,159.79,6.126,160.447,6.126z"/>
		<path fill="#020202" d="M163.804,3.155c0-0.018,0-0.513-0.027-0.828h1.278l0.036,0.685c0.126-0.207,0.486-0.793,1.477-0.793
			c0.891,0,1.27,0.541,1.386,0.855c0.1,0.279,0.127,0.514,0.127,1.359v2.458h-1.359V4.064c0-0.188,0-0.351-0.072-0.495
			c-0.1-0.198-0.307-0.387-0.648-0.387c-0.288,0-0.549,0.135-0.693,0.351c-0.081,0.117-0.162,0.343-0.162,0.693v2.665h-1.341V3.155z
			"/>
		<path fill="#020202" d="M174.514,6.892c-0.045-0.279-0.045-0.486-0.045-0.621C173.965,7,173.361,7,173.109,7
			c-0.657,0-0.954-0.189-1.134-0.36c-0.271-0.271-0.396-0.64-0.396-0.999c0-0.36,0.126-1.026,0.964-1.414
			c0.558-0.252,1.359-0.252,1.8-0.252c0-0.297-0.009-0.441-0.063-0.604c-0.117-0.333-0.469-0.378-0.595-0.378
			c-0.188,0-0.387,0.081-0.504,0.252c-0.099,0.153-0.099,0.298-0.099,0.405h-1.306c0.009-0.243,0.036-0.729,0.513-1.071
			c0.415-0.297,0.945-0.369,1.378-0.369c0.378,0,1.17,0.063,1.62,0.585c0.307,0.369,0.315,0.91,0.315,1.117l0.009,1.827
			c0,0.387,0.027,0.774,0.108,1.152H174.514z M172.876,5.487c0,0.306,0.207,0.648,0.647,0.648c0.243,0,0.441-0.117,0.567-0.262
			c0.234-0.288,0.252-0.639,0.252-1.125C173.488,4.677,172.876,4.947,172.876,5.487z"/>
		<path fill="#020202" d="M176.809,3.155c0-0.018,0-0.513-0.027-0.828h1.278l0.036,0.685c0.126-0.207,0.486-0.793,1.477-0.793
			c0.891,0,1.27,0.541,1.387,0.855c0.099,0.279,0.126,0.514,0.126,1.359v2.458h-1.359V4.064c0-0.188,0-0.351-0.072-0.495
			c-0.1-0.198-0.307-0.387-0.648-0.387c-0.288,0-0.549,0.135-0.693,0.351c-0.081,0.117-0.162,0.343-0.162,0.693v2.665h-1.341V3.155z
			"/>
		<path fill="#020202" d="M185.296,0.392h1.342v5.762c0,0.271,0.018,0.567,0.036,0.738h-1.351l-0.036-0.657
			c-0.09,0.162-0.18,0.333-0.459,0.513c-0.333,0.217-0.685,0.234-0.883,0.234c-1.215,0-1.936-0.837-1.936-2.26
			c0-1.503,0.819-2.439,2.008-2.439c0.819,0,1.161,0.459,1.278,0.621V0.392z M184.279,6.117c0.387,0,0.702-0.233,0.846-0.513
			c0.198-0.378,0.216-0.847,0.216-1.071c0-0.892-0.387-1.378-0.99-1.378c-0.891,0-0.99,1.071-0.99,1.53
			C183.36,5.442,183.612,6.117,184.279,6.117z"/>
		<path fill="#020202" d="M190.245,0.364h1.396v6.527h-1.396V0.364z"/>
		<path fill="#020202" d="M192.811,3.155c0-0.018,0-0.513-0.027-0.828h1.278l0.036,0.685c0.126-0.207,0.486-0.793,1.477-0.793
			c0.891,0,1.27,0.541,1.387,0.855c0.099,0.279,0.126,0.514,0.126,1.359v2.458h-1.359V4.064c0-0.188,0-0.351-0.072-0.495
			c-0.1-0.198-0.307-0.387-0.648-0.387c-0.288,0-0.549,0.135-0.693,0.351c-0.081,0.117-0.162,0.343-0.162,0.693v2.665h-1.341V3.155z
			"/>
		<path fill="#020202" d="M198.381,3.29h-0.675V2.346h0.675V1.724c0-0.801,0.271-1.449,1.566-1.449c0.091,0,0.343,0,0.721,0.045
			v0.928c-0.135-0.019-0.171-0.027-0.279-0.027c-0.684,0-0.684,0.36-0.684,0.595v0.531h0.846V3.29h-0.846v3.602h-1.324V3.29z"/>
		<path fill="#020202" d="M202.359,4.956c0,0.297,0,1.215,0.928,1.215c0.333,0,0.666-0.126,0.792-0.63h1.216
			c-0.019,0.216-0.063,0.604-0.433,0.99c-0.333,0.352-0.927,0.531-1.594,0.531c-0.387,0-1.125-0.072-1.603-0.567
			c-0.414-0.432-0.585-1.044-0.585-1.773c0-0.738,0.181-1.62,0.945-2.151c0.352-0.234,0.783-0.378,1.278-0.378
			c0.648,0,1.423,0.252,1.837,1.098c0.306,0.622,0.288,1.288,0.27,1.666H202.359z M204.052,4.119c0-0.207-0.018-1.018-0.792-1.018
			c-0.585,0-0.828,0.486-0.855,1.018H204.052z"/>
		<path fill="#020202" d="M208.696,3.957c-0.019-0.162-0.072-0.838-0.586-0.838c-0.63,0-0.702,0.955-0.702,1.45
			c0,0.252,0.027,1.062,0.333,1.395c0.126,0.136,0.262,0.153,0.36,0.153c0.145,0,0.559-0.063,0.612-0.873h1.314
			c-0.018,0.351-0.063,0.9-0.585,1.342c-0.324,0.278-0.729,0.423-1.297,0.423c-0.603,0-1.134-0.135-1.548-0.604
			c-0.396-0.459-0.576-1.063-0.576-1.791c0-2.071,1.521-2.359,2.124-2.359c0.847,0,1.846,0.469,1.854,1.702H208.696z"/>
		<path fill="#020202" d="M213.466,6.828c-0.432,0.117-0.819,0.145-1.035,0.145c-1.342,0-1.342-0.847-1.342-1.225V3.255h-0.873
			V2.372h0.873V1.481l1.324-0.486v1.377h1.08v0.883h-1.08v2.053c0.009,0.414,0.009,0.675,0.603,0.675
			c0.198,0,0.288-0.009,0.45-0.027V6.828z"/>
		<path fill="#020202" d="M214.248,0.392h1.423v1.161h-1.423V0.392z M214.293,2.336h1.333v4.556h-1.333V2.336z"/>
		<path fill="#020202" d="M218.938,2.237c1.647,0,2.359,1.116,2.359,2.386c0,1.278-0.738,2.431-2.386,2.431
			c-1.297,0-2.323-0.802-2.323-2.395C216.588,3.561,217.146,2.237,218.938,2.237z M218.956,6.126c0.585,0,0.981-0.351,0.981-1.557
			c0-0.604-0.117-1.44-1-1.44c-0.972,0-0.981,1.125-0.981,1.539C217.956,5.686,218.299,6.126,218.956,6.126z"/>
		<path fill="#020202" d="M222.313,3.155c0-0.018,0-0.513-0.027-0.828h1.278l0.036,0.685c0.126-0.207,0.486-0.793,1.477-0.793
			c0.891,0,1.27,0.541,1.387,0.855c0.099,0.279,0.126,0.514,0.126,1.359v2.458h-1.359V4.064c0-0.188,0-0.351-0.072-0.495
			c-0.1-0.198-0.307-0.387-0.648-0.387c-0.288,0-0.549,0.135-0.693,0.351c-0.081,0.117-0.162,0.343-0.162,0.693v2.665h-1.341V3.155z
			"/>
		<path fill="#020202" d="M231.771,1.463h-1.936v-1.08h5.275v1.08h-1.936v5.429h-1.404V1.463z"/>
		<path fill="#020202" d="M235.83,0.392h1.323v2.575c0.153-0.217,0.486-0.685,1.314-0.685c0.676,0,1.107,0.333,1.323,0.612
			c0.162,0.225,0.298,0.639,0.298,1.233v2.764h-1.324V4.173c0-0.261,0-0.99-0.747-0.99c-0.378,0-0.855,0.216-0.855,0.927l0.01,2.782
			h-1.342V0.392z"/>
		<path fill="#020202" d="M242.364,4.956c0,0.297,0,1.215,0.928,1.215c0.333,0,0.666-0.126,0.792-0.63h1.216
			c-0.019,0.216-0.063,0.604-0.433,0.99c-0.333,0.352-0.927,0.531-1.594,0.531c-0.387,0-1.125-0.072-1.603-0.567
			c-0.414-0.432-0.585-1.044-0.585-1.773c0-0.738,0.181-1.62,0.945-2.151c0.352-0.234,0.783-0.378,1.278-0.378
			c0.648,0,1.423,0.252,1.837,1.098c0.306,0.622,0.288,1.288,0.27,1.666H242.364z M244.057,4.119c0-0.207-0.018-1.018-0.792-1.018
			c-0.585,0-0.828,0.486-0.855,1.018H244.057z"/>
		<path fill="#020202" d="M246.297,3.462c0-0.217-0.036-0.874-0.063-1.135h1.251l0.027,0.873c0.171-0.387,0.468-0.936,1.548-0.882
			v1.197c-1.35-0.126-1.431,0.567-1.431,1.135v2.241h-1.333V3.462z"/>
		<path fill="#020202" d="M252.525,6.892c-0.045-0.279-0.045-0.486-0.045-0.621C251.977,7,251.373,7,251.121,7
			c-0.657,0-0.954-0.189-1.134-0.36c-0.271-0.271-0.396-0.64-0.396-0.999c0-0.36,0.126-1.026,0.964-1.414
			c0.558-0.252,1.359-0.252,1.8-0.252c0-0.297-0.009-0.441-0.063-0.604c-0.117-0.333-0.469-0.378-0.595-0.378
			c-0.188,0-0.387,0.081-0.504,0.252c-0.099,0.153-0.099,0.298-0.099,0.405h-1.306c0.009-0.243,0.036-0.729,0.513-1.071
			c0.415-0.297,0.945-0.369,1.378-0.369c0.378,0,1.17,0.063,1.62,0.585c0.307,0.369,0.315,0.91,0.315,1.117l0.009,1.827
			c0,0.387,0.027,0.774,0.108,1.152H252.525z M250.888,5.487c0,0.306,0.207,0.648,0.647,0.648c0.243,0,0.441-0.117,0.567-0.262
			c0.234-0.288,0.252-0.639,0.252-1.125C251.5,4.677,250.888,4.947,250.888,5.487z"/>
		<path fill="#020202" d="M256.054,2.346l0.036,0.647c0.414-0.729,1.17-0.738,1.386-0.738c1.18,0,1.891,0.883,1.891,2.269
			c0,1.288-0.666,2.432-1.98,2.432c-0.819,0-1.152-0.433-1.27-0.586v2.269h-1.359V2.346H256.054z M258.016,4.578
			c0-0.54-0.135-1.468-0.918-1.468c-0.432,0-1.044,0.324-1.044,1.549c0,0.27,0.009,1.422,0.99,1.422
			C257.674,6.081,258.016,5.479,258.016,4.578z"/>
		<path fill="#020202" d="M261.282,2.346l0.999,3.15l1.018-3.15h1.323l-1.72,4.465l-0.549,1.81h-1.342l0.576-1.711l-1.746-4.563
			H261.282z"/>
	</g>
</g>
</svg>
