<?xml version="1.0" encoding="utf-8"?>
<!-- Generator: Adobe Illustrator 17.0.0, SVG Export Plug-In . SVG Version: 6.00 Build 0)  -->
<!DOCTYPE svg PUBLIC "-//W3C//DTD SVG 1.1//EN" "http://www.w3.org/Graphics/SVG/1.1/DTD/svg11.dtd">
<svg version="1.1" id="Layer_1" xmlns="http://www.w3.org/2000/svg" xmlns:xlink="http://www.w3.org/1999/xlink" x="0px" y="0px"
	 width="1022.624px" height="89.236px" viewBox="0 0 1022.624 89.236" enable-background="new 0 0 1022.624 89.236"
	 xml:space="preserve">
<g>
	<g opacity="0.5">
		<g>
			<defs>
				<rect id="SVGID_36_" x="1101.659" y="-60.086" width="1013.98" height="498.291"/>
			</defs>
			<clipPath id="SVGID_2_">
				<use xlink:href="#SVGID_36_"  overflow="visible"/>
			</clipPath>
			<g clip-path="url(#SVGID_2_)">
				<defs>
					<rect id="SVGID_38_" x="1103.311" y="-58.248" width="1010.677" height="494.616"/>
				</defs>
				<clipPath id="SVGID_4_">
					<use xlink:href="#SVGID_38_"  overflow="visible"/>
				</clipPath>
				<g opacity="0.5" clip-path="url(#SVGID_4_)">
					<g>
						<defs>
							<rect id="SVGID_40_" x="1018.518" y="-70.046" width="1166.597" height="515.427"/>
						</defs>
						<clipPath id="SVGID_6_">
							<use xlink:href="#SVGID_40_"  overflow="visible"/>
						</clipPath>
						<g clip-path="url(#SVGID_6_)">
							<defs>
								<rect id="SVGID_42_" x="1020.078" y="-68.606" width="1163.469" height="512.55"/>
							</defs>
							<clipPath id="SVGID_8_">
								<use xlink:href="#SVGID_42_"  overflow="visible"/>
							</clipPath>
							<path clip-path="url(#SVGID_8_)" fill="#D1D3D4" d="M1197.872,153.83c-0.126,0.201,0,0.613-0.062,1.137
								c-0.19,1.611,0.746,4.226,1.44,4.388l0.529,0.488c1.136-0.4,1.212-2.042,1.685-2.935c0.517-0.973,2.245-1.973,2.133-3.148
								c-0.037-0.001-0.084-0.004-0.126-0.006h0.023c1.331-3.909,7.581-7.008,6.261-12.044c-1.329-5.044-17.818,2.788-18.477,6.152
								c-0.672,3.354-7.931,9.517-18.492,5.037c-10.561-4.482-1.975-24.63,1.322-30.774c0.278-0.515,0.638-1.006,1.033-1.476
								c4.329-5.217,14.839-8.214,19.069-8.214h11.883c0-2.801,1.975-2.801,8.586-3.926c6.601-1.118,3.969,2.807,9.896,3.362
								c5.944,0.564,5.272,17.349,5.272,17.349s7.264,0.564,7.264-2.798c0-3.362-4.614-16.223,3.961-24.058
								c8.586-7.844,21.779-11.206,21.779-11.206s-2.63-4.472,3.961-8.389c6.601-3.918,9.249-8.952,9.249-8.952
								c9.232-11.198,25.739-1.675,17.147-6.71c-8.569-5.043,12.553-10.077,17.825-12.868c1.142-0.606,1.76-0.744,2.021-0.59
								c0,0,3.205-6.248,1.258-8.645c2.977,1.89-0.727,9.117-0.727,9.117c0.986,0.571-2.677,5.051-2.677,5.051
								s5.935,3.362,7.921-0.555c1.977-3.908,19.804-7.27,19.804-7.27l-1.329-3.926c0,0-9.232,2.244-12.536-0.555
								c-3.306-2.798,1.32-6.716,1.32-6.716s-17.164-1.116-7.258-3.361c9.243-2.237,16.507,4.48,16.507,4.48s0.657-3.91,6.594-6.146
								c5.944-2.252,9.232-8.405,9.896-2.252l-10.561,11.759c0.665,2.791,19.802,3.364,25.739,0.557
								c5.944-2.793-7.913-6.153-7.913-11.191c0-5.043,3.297-13.44,3.297-13.44c-5.926-5.036-9.241-2.783-9.241-11.189
								c0-8.396-5.272-10.07-5.272-10.07s-10.57,6.152-14.521,4.48c-3.961-1.682,5.28-6.717,1.983-6.171
								c-3.305,0.573-3.305-3.352-7.264-5.59c-3.952-2.243-17.164,0-17.164,0s-6.6,8.953-9.896,10.635
								c-3.295,1.68-3.961,3.918-3.961,3.918c5.946,1.118,3.298,4.479-1.329,8.396c-4.615,3.918-12.536,4.48-12.536,4.48v9.509
								c-5.281,0-7.256-0.554-7.256-4.482c0-3.916,1.975-7.825,1.975-7.825c-8.578,1.126-24.419-8.407-24.419-8.407
								s4.615-10.635,9.241-13.416c4.617-2.809,13.869-8.398,19.813-8.398c5.926,0,4.617,3.345,18.473,3.345
								c13.858,0,5.937-5.027,5.937-5.027c-11.882-7.834,1.975-6.723,6.611-6.723c4.615,0,9.887-11.744,18.473-11.744
								c7.921,0-9.241,10.07-5.944,10.07c3.305,0,6.601-2.236,7.266,0.563c0.663,2.8-0.665,4.473-7.266,5.044
								c-6.584,0.547-6.612,3.909-6.612,3.909l10.572-0.564c0,0,5.289,4.471,12.538,8.952c7.275,4.482,5.289-2.79,7.93-3.345
								c2.631-0.571,3.295,1.682,3.295,1.682c3.295-1.128,3.96-3.925,3.295-7.844c-0.644-3.916-5.944-0.555-5.944-2.791
								c0-2.243,3.314-2.807,3.314-2.807s5.281,3.354,7.256,5.043c1.985,1.675,7.921-2.806,11.216-5.043
								c3.306-2.236-7.245-5.035-11.881-7.271c-4.606-2.237,4.635-1.68,4.635-1.68s-5.948-6.719-14.541-9.526
								c-8.577-2.788-3.287-6.145-3.287-6.145s-33.66,0.557-36.966,1.119c-3.295,0.563,1.986-4.48-5.28-3.916
								c-7.247,0.554-0.663,1.672-7.247,2.798c-6.609,1.118-23.108,3.355-23.108,3.355s1.322,3.916,3.954,6.152
								c2.638,2.243,1.328-2.236,3.958-0.555c2.651,1.675-1.974,5.036-1.974,5.036s-7.924-1.127-11.884-0.554
								c-3.96,0.554,3.96,5.598-0.655,6.152c-4.625,0.555-17.172-1.127-9.241-2.236c7.912-1.128,9.241-5.034,7.266-8.398
								c-1.986-3.362,9.232-7.271,5.263-7.834c-3.961-0.563-18.474,3.925-18.474,3.925s-19.13-7.841-23.107-8.405
								c-3.952-0.555-24.411,8.952-24.411,8.952s3.297,5.037,7.921,5.598c4.617,0.563,9.907-6.143,12.538-4.472
								c2.649,1.673-3.96,7.834-5.946,8.953c-1.966,1.118-16.496-5.043-25.074-5.043c-8.576,0-25.074,2.234-25.074,2.234
								l-3.961,3.926c-5.893,0.455-14.477-0.984-22.596-2.932c-11.9-2.863-23.673-6.756-27.984-7.086
								c-7.264-0.571-44.878,10.634-44.878,10.634s2.632,3.909,5.281,5.59c2.632,1.68-2.649,2.244-2.649,2.244l-1.983-2.8
								c-3.954-0.563-30.357,7.835-19.131,7.281c11.216-0.573,5.944,3.909,5.944,3.909s-15.185,2.234-20.467,3.915
								c-5.272,1.682-3.305,12.317-3.305,12.317s5.946-1.119,7.255,2.806c1.331,3.909-21.777,5.582-21.777,5.582
								c3.754,3.096,20.514,0.132,20.755-1.283c0.234-1.398,8.559-1.001,8.559-1.001c1.429,4.43,11.413-0.397,11.413-0.397
								c0.236-14.717,8.552-2.014,8.552-4.846c0-2.833,14.989-5.647,18.078-6.451c3.091-0.803,8.074-2.815,15.689,2.617
								c7.606,5.448,16.633,2.427,17.119,6.46c0.459,3.951-13.39,8.645-9.547,9.616c0.09,0.016,0.583-0.02,0.682,0.004
								c4.77,0.803,4.77,7.67,4.77,7.67s0,6.434-0.729,7.444c-0.71,1.01-4.041,0.207-4.041,0.207s-1.671,0.803,1.669,3.826
								c1.654,1.511,2.364,3.794,2.663,5.735h-0.46c0.215,1.732,0.115,3.072,0.115,3.072c-3.952,8.962-21.473,25.012-21.473,25.012
								s-1.329,14.005-0.665,17.914c0.665,3.916,5.937,7.27,5.937,7.27h3.96c1.526,0,1.393,1.319,0.88,3.031
								c-0.825,2.768-2.301,6.74,0.142,7.775c3.969,1.685,1.32,6.172,3.305,8.408c1.967,2.236-0.663,3.362-0.663,3.362
								s-0.655,2.227,3.304,3.344c3.952,1.118,1.311,7.281,4.617,10.072c3.305,2.807,4.615,8.396,6.592,5.034
								c1.984-3.357-5.272-19.577-8.569-24.621c-3.312-5.034,0.657-6.719,4.617-6.153c3.952,0.554,0.665,10.632,0.665,10.632
								s2.63,2.791,6.592,6.153c3.968,3.356,7.921,15.114,10.552,17.351c2.659,2.236,0.674,4.479-0.646,6.717
								c-1.32,2.236,13.858,15.668,27.716,17.911c13.867,2.229,1.329-3.362,9.898-2.243c3.448,0.439,6.258,2.253,8.378,4.256
								l3.573-4.637l1.493-1.936l4.804,0.604c0.986-0.309,0.172-1.839-0.162-2.601c-0.342-0.752,0.827-3.977,0.827-3.977l6.96-0.296
								 M1310.566-30.427c-0.089,0.315-0.278,0.571-0.467,0.719c-0.034,0.033-0.081,0.059-0.119,0.083
								c-0.771,0.481-5.153,2.004-5.153,2.004s-5.731,3.421-6.171,2.286c-0.457-1.142,0.683-0.954,1.231-1.906
								c0.198-0.338,0.431-0.885,0.647-1.456c0.025-0.083,0.053-0.167,0.089-0.249c0.251-0.721,0.431-1.424,0.385-1.698
								c0-0.05-0.017-0.082-0.045-0.099c-0.017-0.017-0.036-0.024-0.062-0.017c-0.459,0.099-3.259,0.472-4.149-0.481h-0.009
								c-0.106-0.115-0.233-0.281-0.368-0.488c-0.961-1.449-2.272-4.82-0.296-6.742c0,0,1.204,0.705,2.435,0.465
								c0.349-0.066,0.701-0.209,1.022-0.465c0.083-0.066,0.162-0.139,0.243-0.214c0.081-0.084,0.153-0.166,0.225-0.256
								c0.242-0.315,0.52-0.622,0.808-0.886c0.072-0.066,0.153-0.132,0.225-0.199c0.153-0.132,0.315-0.249,0.476-0.355
								c1.375-0.944,3-1.211,4.106,0.007c1.56,1.714-2.256,4-2.256,4s-1.122,3.329,3.591,3.611c0.899,0.059,1.592,0.181,2.12,0.364
								c0.217,0.066,0.404,0.15,0.566,0.233C1310.584-31.669,1310.72-30.974,1310.566-30.427"/>
						</g>
					</g>
				</g>
			</g>
		</g>
	</g>
</g>
<g>
	<linearGradient id="SVGID_9_" gradientUnits="userSpaceOnUse" x1="0" y1="33.974" x2="555.1991" y2="33.974">
		<stop  offset="0" style="stop-color:#001E2D"/>
		<stop  offset="1" style="stop-color:#093D5E"/>
	</linearGradient>
	<polygon fill="url(#SVGID_9_)" points="513.451,67.948 555.199,0 0,0.512 0,67.948 	"/>
	<polygon fill="#5CA7BB" points="556.294,0 508.887,11.143 512.113,16.714 547.53,15.108 	"/>
	<polygon fill="#0C5072" points="508.614,11.236 474.587,89.236 1022.624,89.236 1022.624,11.236 	"/>
	<g>
		<path fill="#FFFFFF" d="M322.053,30.983c1.115-0.187,2.576-0.346,4.437-0.346c2.284,0,3.958,0.531,5.021,1.487
			c0.983,0.851,1.567,2.152,1.567,3.746c0,1.62-0.479,2.896-1.382,3.825c-1.222,1.302-3.214,1.966-5.472,1.966
			c-0.691,0-1.329-0.026-1.86-0.159v7.173h-2.311V30.983z M324.364,39.617c0.505,0.133,1.143,0.186,1.913,0.186
			c2.789,0,4.489-1.354,4.489-3.825c0-2.364-1.673-3.507-4.224-3.507c-1.01,0-1.78,0.08-2.179,0.187V39.617z"/>
		<path fill="#FFFFFF" d="M351.218,39.537c0,6.163-3.746,9.431-8.315,9.431c-4.729,0-8.049-3.666-8.049-9.085
			c0-5.686,3.533-9.404,8.314-9.404C348.057,30.478,351.218,34.224,351.218,39.537z M337.324,39.829
			c0,3.826,2.072,7.253,5.712,7.253c3.666,0,5.738-3.374,5.738-7.438c0-3.56-1.859-7.279-5.712-7.279
			C339.237,32.364,337.324,35.897,337.324,39.829z"/>
		<path fill="#FFFFFF" d="M357.085,48.675l-4.543-17.905h2.443l2.126,9.059c0.531,2.231,1.009,4.463,1.328,6.19h0.053
			c0.293-1.78,0.851-3.905,1.461-6.217l2.392-9.032h2.417l2.179,9.086c0.505,2.125,0.982,4.25,1.248,6.136h0.054
			c0.372-1.966,0.877-3.958,1.435-6.189l2.364-9.032h2.364l-5.074,17.905h-2.417l-2.259-9.324c-0.558-2.285-0.93-4.038-1.169-5.845
			h-0.053c-0.318,1.78-0.717,3.533-1.381,5.845l-2.551,9.324H357.085z"/>
		<path fill="#FFFFFF" d="M386.007,40.281h-6.96v6.455h7.757v1.939h-10.068V30.77h9.67v1.939h-7.358v5.658h6.96V40.281z"/>
		<path fill="#FFFFFF" d="M389.909,31.009c1.169-0.239,2.842-0.372,4.437-0.372c2.47,0,4.064,0.452,5.18,1.461
			c0.903,0.797,1.408,2.02,1.408,3.4c0,2.364-1.487,3.932-3.374,4.569v0.08c1.382,0.478,2.205,1.753,2.63,3.612
			c0.585,2.498,1.01,4.225,1.382,4.915h-2.391c-0.293-0.505-0.691-2.046-1.196-4.277c-0.531-2.471-1.487-3.4-3.586-3.479h-2.179
			v7.757h-2.311V31.009z M392.219,39.164h2.364c2.471,0,4.038-1.354,4.038-3.4c0-2.311-1.673-3.32-4.117-3.347
			c-1.116,0-1.913,0.105-2.285,0.212V39.164z"/>
	</g>
	<g>
		<path fill="#FFFFFF" d="M526.353,33.491h4.195c1.957,0,3.594,0.132,4.723,1.486c0.715,0.866,0.828,1.845,0.828,2.54
			c0,1.581-0.659,2.916-1.731,3.612c-0.997,0.64-2.37,0.64-3.085,0.64h-1.976v5.287h-2.954V33.491z M529.232,39.606h1.166
			c0.94,0,2.69,0,2.69-2.069c0-1.844-1.562-1.844-2.39-1.844h-1.467V39.606z"/>
		<path fill="#FFFFFF" d="M543.943,33.171c1.449,0,3.443,0.339,4.779,1.844c1.448,1.655,1.73,3.781,1.73,5.117
			c0,1.976-0.603,4.083-1.712,5.324c-1.505,1.693-3.707,1.938-4.835,1.938c-1.788,0-3.575-0.564-4.816-1.863
			c-1.486-1.58-1.675-3.838-1.675-5.079C537.415,36.84,539.051,33.171,543.943,33.171z M541.478,44.159
			c0.414,0.564,1.11,1.091,2.465,1.091c1.186,0,1.994-0.413,2.54-1.26c0.451-0.678,0.922-1.731,0.922-3.895
			c0-0.659-0.057-1.6-0.339-2.428c-0.564-1.674-1.712-2.408-3.104-2.408c-1.091,0-1.956,0.452-2.502,1.148
			c-0.771,0.94-0.997,2.408-0.997,3.95C540.463,41.657,540.67,43.105,541.478,44.159z"/>
		<path fill="#FFFFFF" d="M554.176,33.51l2.106,10.178l2.653-10.178h3.292l2.39,10.178l2.201-10.178h2.785l-3.462,13.584h-3.236
			l-2.465-10.386l-2.652,10.386h-3.312l-3.312-13.584H554.176z"/>
		<path fill="#FFFFFF" d="M571.089,33.454h9.105v2.22h-6.189v3.236h5.795v2.22h-5.795v3.669h6.396v2.258h-9.313V33.454z"/>
		<path fill="#FFFFFF" d="M582.319,33.454h5.211c1.506-0.019,3.029-0.019,4.12,0.922c0.847,0.733,1.186,1.73,1.186,2.615
			c0,2.54-2.183,3.142-2.841,3.33c2.051,0.188,2.201,1.354,2.446,3.123c0.207,1.6,0.319,2.258,0.413,2.634
			c0.151,0.603,0.264,0.753,0.414,0.979h-3.217c-0.132-0.753-0.546-4.195-0.734-4.723c-0.263-0.771-0.978-0.771-1.467-0.771h-2.559
			v5.494h-2.973V33.454z M585.197,39.399h2.353c0.338,0,1.016,0,1.486-0.376c0.206-0.151,0.752-0.621,0.752-1.581
			c0-0.922-0.451-1.354-0.715-1.523c-0.451-0.32-0.997-0.32-1.919-0.32h-1.957V39.399z"/>
		<path fill="#FFFFFF" d="M595.036,33.472h8.768v2.183h-5.852v3.349h5.456v2.258h-5.456v5.795h-2.916V33.472z"/>
		<path fill="#FFFFFF" d="M608.468,33.491v8.278c0,1.486,0.112,3.35,2.953,3.35c0.471,0,1.882-0.02,2.634-1.186
			c0.282-0.414,0.434-0.94,0.434-2.314v-8.128h2.841v8.485c0,4.045-3.218,5.344-5.965,5.344c-1.354,0-3.838-0.302-5.117-2.352
			c-0.658-1.035-0.696-2.089-0.696-3.35v-8.128H608.468z"/>
		<path fill="#FFFFFF" d="M620.132,33.472h2.973v11.27h5.832v2.314h-8.805V33.472z"/>
		<path fill="#FFFFFF" d="M635.821,33.472h2.973v11.27h5.832v2.314h-8.805V33.472z"/>
		<path fill="#FFFFFF" d="M646.205,33.491l4.496,0.02c0.753,0,3.049,0.019,4.686,1.223c1.712,1.261,2.313,3.405,2.313,5.343
			c0,4.177-2.238,6.359-4.816,6.83c-0.508,0.094-1.072,0.15-2.445,0.15h-4.233V33.491z M649.159,44.817
			c0.319,0.02,0.809,0.038,1.147,0.038c1.241,0,2.314-0.094,3.161-0.94c1.147-1.148,1.223-3.18,1.223-3.839
			c0-1.919-0.658-3.688-2.483-4.195c-0.603-0.169-1.374-0.264-3.048-0.188V44.817z"/>
		<path fill="#FFFFFF" d="M659.862,33.472h2.973v11.27h5.832v2.314h-8.805V33.472z"/>
		<path fill="#FFFFFF" d="M667.518,41.017h4.666v2.126h-4.666V41.017z"/>
		<path fill="#FFFFFF" d="M681.911,37.894c-0.057-0.471-0.227-2.39-2.201-2.39c-2.164,0-3.067,2.258-3.067,5.061
			c0,0.81,0,4.666,2.841,4.666c1.224,0,2.39-0.771,2.446-2.577h3.066c-0.057,0.809-0.132,2.069-1.223,3.198
			c-1.204,1.242-2.729,1.524-3.97,1.524c-4.685,0-6.209-3.462-6.209-6.83c0-4.309,2.408-7.168,6.228-7.168
			c2.973,0,5.062,1.806,5.062,4.516H681.911z"/>
		<path fill="#FFFFFF" d="M691.861,33.454h5.212c1.505-0.019,3.029-0.019,4.12,0.922c0.847,0.733,1.186,1.73,1.186,2.615
			c0,2.54-2.183,3.142-2.841,3.33c2.051,0.188,2.201,1.354,2.445,3.123c0.207,1.6,0.32,2.258,0.414,2.634
			c0.15,0.603,0.264,0.753,0.414,0.979h-3.218c-0.132-0.753-0.545-4.195-0.733-4.723c-0.264-0.771-0.979-0.771-1.468-0.771h-2.559
			v5.494h-2.973V33.454z M694.74,39.399h2.352c0.339,0,1.016,0,1.486-0.376c0.207-0.151,0.753-0.621,0.753-1.581
			c0-0.922-0.452-1.354-0.715-1.523c-0.452-0.32-0.998-0.32-1.92-0.32h-1.956V39.399z"/>
		<path fill="#FFFFFF" d="M704.672,33.454h9.106v2.22h-6.189v3.236h5.794v2.22h-5.794v3.669h6.396v2.258h-9.313V33.454z"/>
		<path fill="#FFFFFF" d="M715.997,33.491l4.496,0.02c0.753,0,3.049,0.019,4.686,1.223c1.712,1.261,2.313,3.405,2.313,5.343
			c0,4.177-2.238,6.359-4.816,6.83c-0.508,0.094-1.072,0.15-2.445,0.15h-4.233V33.491z M718.951,44.817
			c0.319,0.02,0.809,0.038,1.147,0.038c1.241,0,2.314-0.094,3.161-0.94c1.147-1.148,1.223-3.18,1.223-3.839
			c0-1.919-0.658-3.688-2.483-4.195c-0.603-0.169-1.374-0.264-3.048-0.188V44.817z"/>
		<path fill="#FFFFFF" d="M732.627,33.491v8.278c0,1.486,0.113,3.35,2.954,3.35c0.47,0,1.881-0.02,2.634-1.186
			c0.282-0.414,0.433-0.94,0.433-2.314v-8.128h2.841v8.485c0,4.045-3.217,5.344-5.964,5.344c-1.354,0-3.838-0.302-5.117-2.352
			c-0.659-1.035-0.696-2.089-0.696-3.35v-8.128H732.627z"/>
		<path fill="#FFFFFF" d="M751.947,37.894c-0.057-0.471-0.226-2.39-2.201-2.39c-2.163,0-3.066,2.258-3.066,5.061
			c0,0.81,0,4.666,2.841,4.666c1.223,0,2.39-0.771,2.445-2.577h3.067c-0.057,0.809-0.132,2.069-1.224,3.198
			c-1.204,1.242-2.728,1.524-3.97,1.524c-4.685,0-6.208-3.462-6.208-6.83c0-4.309,2.408-7.168,6.228-7.168
			c2.973,0,5.061,1.806,5.061,4.516H751.947z"/>
		<path fill="#FFFFFF" d="M759.847,35.711h-4.045v-2.258h11.025v2.258h-4.045v11.345h-2.936V35.711z"/>
		<path fill="#FFFFFF" d="M768.162,33.415h2.916v13.641h-2.916V33.415z"/>
		<path fill="#FFFFFF" d="M779.582,33.171c1.449,0,3.443,0.339,4.779,1.844c1.448,1.655,1.73,3.781,1.73,5.117
			c0,1.976-0.603,4.083-1.712,5.324c-1.505,1.693-3.707,1.938-4.835,1.938c-1.788,0-3.575-0.564-4.816-1.863
			c-1.486-1.58-1.675-3.838-1.675-5.079C773.053,36.84,774.69,33.171,779.582,33.171z M777.117,44.159
			c0.414,0.564,1.11,1.091,2.465,1.091c1.186,0,1.994-0.413,2.54-1.26c0.451-0.678,0.922-1.731,0.922-3.895
			c0-0.659-0.057-1.6-0.339-2.428c-0.564-1.674-1.712-2.408-3.104-2.408c-1.091,0-1.956,0.452-2.502,1.148
			c-0.771,0.94-0.997,2.408-0.997,3.95C776.101,41.657,776.308,43.105,777.117,44.159z"/>
		<path fill="#FFFFFF" d="M788.254,33.454h4.214l5.099,10.705V33.454h2.71v13.603h-4.008l-5.268-11.288v11.288h-2.747V33.454z"/>
		<path fill="#FFFFFF" d="M805.166,42.71c0,0.64-0.038,2.577,2.465,2.577c1.58,0,2.577-0.753,2.577-1.9
			c0-1.204-0.847-1.411-2.577-1.825c-3.236-0.809-5.005-1.769-5.005-4.12c0-2.238,1.6-4.214,5.381-4.214
			c1.411,0,3.086,0.319,4.102,1.599c0.771,0.979,0.771,2.07,0.771,2.521h-2.804c-0.037-0.471-0.188-2.069-2.201-2.069
			c-1.354,0-2.238,0.733-2.238,1.844c0,1.261,0.997,1.486,2.953,1.976c2.353,0.564,4.666,1.204,4.666,3.856
			c0,2.446-2.031,4.422-5.795,4.422c-5.211,0-5.249-3.35-5.268-4.666H805.166z"/>
	</g>
	<g>
		<path fill="#FFFFFF" d="M533.045,63.165c0,2.771-1.921,3.979-3.732,3.979c-2.029,0-3.594-1.486-3.594-3.856
			c0-2.509,1.642-3.979,3.718-3.979C531.589,59.309,533.045,60.873,533.045,63.165z M527.097,63.243
			c0,1.642,0.944,2.881,2.276,2.881c1.301,0,2.277-1.224,2.277-2.912c0-1.27-0.636-2.881-2.246-2.881S527.097,61.818,527.097,63.243
			z"/>
		<path fill="#FFFFFF" d="M534.906,66.975v-6.458h-1.054v-1.038h1.054v-0.356c0-1.053,0.232-2.013,0.867-2.617
			c0.511-0.495,1.192-0.697,1.827-0.697c0.48,0,0.898,0.108,1.162,0.217l-0.187,1.054c-0.201-0.093-0.479-0.171-0.867-0.171
			c-1.161,0-1.456,1.022-1.456,2.169v0.402h1.813v1.038h-1.813v6.458H534.906z"/>
		<path fill="#FFFFFF" d="M549.652,63.289l-7.187,3.687v-1.068l6.103-3.036v-0.03l-6.103-3.036v-1.068l7.187,3.686V63.289z"/>
		<path fill="#FFFFFF" d="M557.383,58.054h-3.841l-0.387,2.587c0.232-0.031,0.449-0.063,0.82-0.063c0.774,0,1.549,0.171,2.169,0.542
			c0.789,0.449,1.44,1.316,1.44,2.587c0,1.967-1.564,3.438-3.748,3.438c-1.1,0-2.029-0.31-2.51-0.619l0.341-1.038
			c0.418,0.248,1.239,0.558,2.153,0.558c1.285,0,2.385-0.836,2.385-2.184c-0.016-1.301-0.883-2.229-2.896-2.229
			c-0.572,0-1.021,0.062-1.394,0.108l0.65-4.833h4.816V58.054z"/>
		<path fill="#FFFFFF" d="M566.011,61.833c0,3.423-1.27,5.312-3.5,5.312c-1.967,0-3.299-1.843-3.33-5.173
			c0-3.376,1.456-5.234,3.5-5.234C564.803,56.738,566.011,58.627,566.011,61.833z M560.545,61.988c0,2.618,0.805,4.104,2.044,4.104
			c1.395,0,2.061-1.626,2.061-4.197c0-2.478-0.636-4.104-2.045-4.104C561.412,57.79,560.545,59.247,560.545,61.988z"/>
		<path fill="#FFFFFF" d="M571.806,59.743c0,2.121-1.115,3.175-2.416,3.175c-1.255,0-2.339-1.007-2.354-3.036
			c0-2.013,1.1-3.144,2.432-3.144C570.877,56.738,571.806,57.822,571.806,59.743z M568.12,59.835
			c-0.031,1.285,0.449,2.261,1.301,2.261c0.898,0,1.302-0.96,1.302-2.292c0-1.224-0.356-2.246-1.302-2.246
			C568.569,57.558,568.12,58.565,568.12,59.835z M569.297,67.145l5.917-10.407h0.867l-5.916,10.407H569.297z M578.357,63.909
			c0,2.122-1.115,3.175-2.4,3.175c-1.255,0-2.339-1.007-2.354-3.021c0-2.028,1.1-3.159,2.432-3.159
			C577.444,60.904,578.357,61.988,578.357,63.909z M574.672,64.001c-0.016,1.285,0.479,2.261,1.316,2.261
			c0.898,0,1.301-0.96,1.301-2.292c0-1.224-0.356-2.245-1.301-2.245C575.135,61.725,574.672,62.732,574.672,64.001z"/>
		<path fill="#FFFFFF" d="M580.973,56.685h-0.019l-1.021,0.551l-0.153-0.605l1.282-0.686h0.678v5.871h-0.768V56.685z"/>
		<path fill="#FFFFFF" d="M583.619,62.927c0.199-0.533,0.442-1.5,0.542-2.159l0.886-0.091c-0.208,0.769-0.605,1.771-0.858,2.195
			L583.619,62.927z"/>
		<path fill="#FFFFFF" d="M585.751,61.816v-0.488l0.623-0.604c1.5-1.428,2.177-2.187,2.187-3.071c0-0.597-0.289-1.147-1.166-1.147
			c-0.532,0-0.976,0.271-1.246,0.497l-0.253-0.561c0.406-0.343,0.984-0.596,1.662-0.596c1.265,0,1.798,0.867,1.798,1.707
			c0,1.084-0.786,1.96-2.023,3.152l-0.47,0.434v0.019h2.638v0.659H585.751z"/>
	</g>
</g>
</svg>
