<?xml version="1.0" encoding="utf-8"?>
<!-- Generator: Adobe Illustrator 17.0.0, SVG Export Plug-In . SVG Version: 6.00 Build 0)  -->
<!DOCTYPE svg PUBLIC "-//W3C//DTD SVG 1.1//EN" "http://www.w3.org/Graphics/SVG/1.1/DTD/svg11.dtd">
<svg version="1.1" id="Layer_1" xmlns="http://www.w3.org/2000/svg" xmlns:xlink="http://www.w3.org/1999/xlink" x="0px" y="0px"
	 width="1022.624px" height="88.625px" viewBox="0 0 1022.624 88.625" enable-background="new 0 0 1022.624 88.625"
	 xml:space="preserve">
<g>
	<g opacity="0.5">
		<g>
			<defs>
				<rect id="SVGID_36_" x="1101.659" y="-176.235" width="1013.98" height="498.291"/>
			</defs>
			<clipPath id="SVGID_2_">
				<use xlink:href="#SVGID_36_"  overflow="visible"/>
			</clipPath>
			<g clip-path="url(#SVGID_2_)">
				<defs>
					<rect id="SVGID_38_" x="1103.311" y="-174.398" width="1010.677" height="494.616"/>
				</defs>
				<clipPath id="SVGID_4_">
					<use xlink:href="#SVGID_38_"  overflow="visible"/>
				</clipPath>
				<g opacity="0.5" clip-path="url(#SVGID_4_)">
					<g>
						<defs>
							<rect id="SVGID_40_" x="1018.518" y="-186.196" width="1166.597" height="515.427"/>
						</defs>
						<clipPath id="SVGID_6_">
							<use xlink:href="#SVGID_40_"  overflow="visible"/>
						</clipPath>
						<g clip-path="url(#SVGID_6_)">
							<defs>
								<rect id="SVGID_42_" x="1020.078" y="-184.756" width="1163.469" height="512.55"/>
							</defs>
							<clipPath id="SVGID_8_">
								<use xlink:href="#SVGID_42_"  overflow="visible"/>
							</clipPath>
							<path clip-path="url(#SVGID_8_)" fill="#D1D3D4" d="M1197.872,37.68c-0.126,0.201,0,0.613-0.062,1.137
								c-0.19,1.611,0.746,4.226,1.44,4.388l0.529,0.488c1.136-0.4,1.212-2.042,1.685-2.935c0.517-0.973,2.245-1.973,2.133-3.148
								c-0.037-0.001-0.084-0.004-0.126-0.006h0.023c1.331-3.909,7.581-7.008,6.261-12.043c-1.329-5.044-17.818,2.788-18.477,6.152
								c-0.672,3.354-7.931,9.517-18.492,5.037c-10.561-4.482-1.975-24.63,1.322-30.774c0.278-0.515,0.638-1.006,1.033-1.476
								c4.329-5.217,14.839-8.214,19.069-8.214h11.883c0-2.801,1.975-2.801,8.586-3.926c6.601-1.118,3.969,2.807,9.896,3.362
								c5.944,0.564,5.272,17.35,5.272,17.35s7.264,0.564,7.264-2.798s-4.614-16.223,3.961-24.058
								c8.586-7.844,21.779-11.206,21.779-11.206s-2.63-4.472,3.961-8.389c6.601-3.918,9.249-8.952,9.249-8.952
								c9.232-11.198,25.739-1.675,17.147-6.71c-8.569-5.043,12.553-10.077,17.825-12.868c1.142-0.606,1.76-0.744,2.021-0.59
								c0,0,3.205-6.248,1.258-8.645c2.977,1.891-0.727,9.117-0.727,9.117c0.986,0.571-2.677,5.051-2.677,5.051
								s5.935,3.362,7.921-0.555c1.977-3.908,19.804-7.27,19.804-7.27l-1.329-3.926c0,0-9.232,2.244-12.536-0.555
								c-3.306-2.798,1.32-6.716,1.32-6.716s-17.164-1.116-7.258-3.361c9.243-2.237,16.507,4.48,16.507,4.48s0.657-3.91,6.594-6.146
								c5.944-2.252,9.232-8.405,9.896-2.252l-10.561,11.759c0.665,2.791,19.802,3.364,25.739,0.557
								c5.944-2.793-7.913-6.153-7.913-11.19c0-5.043,3.297-13.44,3.297-13.44c-5.926-5.035-9.241-2.783-9.241-11.189
								c0-8.396-5.272-10.07-5.272-10.07s-10.57,6.152-14.521,4.48c-3.961-1.682,5.28-6.717,1.983-6.171
								c-3.305,0.573-3.305-3.352-7.264-5.59c-3.952-2.243-17.164,0-17.164,0s-6.6,8.953-9.896,10.635
								c-3.295,1.68-3.961,3.918-3.961,3.918c5.946,1.118,3.298,4.479-1.329,8.396c-4.615,3.918-12.536,4.48-12.536,4.48v9.509
								c-5.281,0-7.256-0.554-7.256-4.482c0-3.916,1.975-7.825,1.975-7.825c-8.578,1.126-24.419-8.407-24.419-8.407
								s4.615-10.635,9.241-13.416c4.617-2.809,13.869-8.398,19.813-8.398c5.926,0,4.617,3.345,18.473,3.345
								c13.858,0,5.937-5.027,5.937-5.027c-11.882-7.834,1.975-6.723,6.611-6.723c4.615,0,9.887-11.744,18.473-11.744
								c7.921,0-9.241,10.07-5.944,10.07c3.305,0,6.601-2.236,7.266,0.563c0.663,2.8-0.665,4.473-7.266,5.044
								c-6.584,0.547-6.612,3.909-6.612,3.909l10.572-0.564c0,0,5.289,4.472,12.538,8.952c7.275,4.482,5.289-2.79,7.93-3.345
								c2.631-0.571,3.295,1.682,3.295,1.682c3.295-1.128,3.96-3.925,3.295-7.844c-0.644-3.916-5.944-0.555-5.944-2.791
								c0-2.243,3.314-2.807,3.314-2.807s5.281,3.354,7.256,5.043c1.985,1.675,7.921-2.805,11.216-5.043
								c3.306-2.236-7.245-5.035-11.881-7.271c-4.606-2.237,4.635-1.68,4.635-1.68s-5.948-6.719-14.541-9.526
								c-8.577-2.788-3.287-6.145-3.287-6.145s-33.66,0.557-36.966,1.119c-3.295,0.563,1.986-4.48-5.28-3.916
								c-7.247,0.554-0.663,1.672-7.247,2.798c-6.609,1.118-23.108,3.355-23.108,3.355s1.322,3.916,3.954,6.152
								c2.638,2.243,1.328-2.236,3.958-0.555c2.651,1.675-1.974,5.036-1.974,5.036s-7.924-1.127-11.884-0.554
								c-3.96,0.554,3.96,5.598-0.655,6.152c-4.625,0.555-17.172-1.126-9.241-2.236c7.912-1.128,9.241-5.034,7.266-8.398
								c-1.986-3.362,9.232-7.271,5.263-7.834c-3.961-0.563-18.474,3.925-18.474,3.925s-19.13-7.841-23.107-8.405
								c-3.952-0.555-24.411,8.952-24.411,8.952s3.297,5.037,7.921,5.598c4.617,0.563,9.907-6.143,12.538-4.472
								c2.649,1.673-3.96,7.834-5.946,8.953c-1.966,1.118-16.496-5.043-25.074-5.043c-8.576,0-25.074,2.234-25.074,2.234
								l-3.961,3.926c-5.893,0.455-14.477-0.984-22.596-2.932c-11.9-2.863-23.673-6.756-27.984-7.086
								c-7.264-0.571-44.878,10.634-44.878,10.634s2.632,3.909,5.281,5.589c2.632,1.68-2.649,2.244-2.649,2.244l-1.983-2.8
								c-3.954-0.563-30.357,7.835-19.131,7.281c11.216-0.573,5.944,3.909,5.944,3.909s-15.185,2.234-20.467,3.915
								c-5.272,1.682-3.305,12.317-3.305,12.317s5.946-1.119,7.255,2.806c1.331,3.909-21.777,5.582-21.777,5.582
								c3.754,3.096,20.514,0.132,20.755-1.283c0.234-1.398,8.559-1.001,8.559-1.001c1.429,4.43,11.413-0.397,11.413-0.397
								c0.236-14.717,8.552-2.014,8.552-4.846c0-2.833,14.989-5.647,18.078-6.451c3.091-0.803,8.074-2.816,15.689,2.617
								c7.606,5.448,16.633,2.427,17.119,6.46c0.459,3.951-13.39,8.645-9.547,9.616c0.09,0.016,0.583-0.02,0.682,0.004
								c4.77,0.803,4.77,7.67,4.77,7.67s0,6.434-0.729,7.444c-0.71,1.01-4.041,0.207-4.041,0.207s-1.671,0.803,1.669,3.826
								c1.654,1.511,2.364,3.794,2.663,5.735h-0.46c0.215,1.732,0.115,3.072,0.115,3.072c-3.952,8.962-21.473,25.012-21.473,25.012
								s-1.329,14.005-0.665,17.914c0.665,3.916,5.937,7.27,5.937,7.27h3.96c1.526,0,1.393,1.319,0.88,3.031
								c-0.825,2.768-2.301,6.74,0.142,7.775c3.969,1.685,1.32,6.172,3.305,8.408c1.967,2.236-0.663,3.362-0.663,3.362
								s-0.655,2.227,3.304,3.344c3.952,1.118,1.311,7.281,4.617,10.072c3.305,2.807,4.615,8.396,6.592,5.034
								c1.984-3.357-5.272-19.577-8.569-24.621c-3.312-5.034,0.657-6.719,4.617-6.153c3.952,0.554,0.665,10.632,0.665,10.632
								s2.63,2.791,6.592,6.153c3.968,3.357,7.921,15.114,10.552,17.351c2.659,2.236,0.674,4.479-0.646,6.718
								c-1.32,2.236,13.858,15.668,27.716,17.911c13.867,2.228,1.329-3.362,9.898-2.243c3.448,0.439,6.258,2.253,8.378,4.256
								l3.573-4.637l1.493-1.936l4.804,0.604c0.986-0.309,0.172-1.839-0.162-2.601c-0.342-0.752,0.827-3.977,0.827-3.977l6.96-0.296
								 M1310.566-146.577c-0.089,0.315-0.278,0.571-0.467,0.719c-0.034,0.033-0.081,0.059-0.119,0.083
								c-0.771,0.481-5.153,2.004-5.153,2.004s-5.731,3.421-6.171,2.286c-0.457-1.142,0.683-0.954,1.231-1.906
								c0.198-0.338,0.431-0.885,0.647-1.456c0.025-0.083,0.053-0.167,0.089-0.249c0.251-0.721,0.431-1.424,0.385-1.698
								c0-0.05-0.017-0.082-0.045-0.099c-0.017-0.017-0.036-0.024-0.062-0.017c-0.459,0.099-3.259,0.472-4.149-0.481h-0.009
								c-0.106-0.115-0.233-0.281-0.368-0.488c-0.961-1.449-2.272-4.82-0.296-6.742c0,0,1.204,0.705,2.435,0.465
								c0.349-0.066,0.701-0.209,1.022-0.465c0.083-0.066,0.162-0.139,0.243-0.214c0.081-0.084,0.153-0.166,0.225-0.256
								c0.242-0.315,0.52-0.622,0.808-0.886c0.072-0.066,0.153-0.132,0.225-0.199c0.153-0.132,0.315-0.249,0.476-0.355
								c1.375-0.944,3-1.211,4.106,0.007c1.56,1.714-2.256,4-2.256,4s-1.122,3.329,3.591,3.611c0.899,0.059,1.592,0.181,2.12,0.364
								c0.217,0.066,0.404,0.15,0.566,0.233C1310.584-147.819,1310.72-147.124,1310.566-146.577"/>
						</g>
					</g>
				</g>
			</g>
		</g>
	</g>
</g>
<polygon fill="#5CA7BB" points="556.294,-0.611 508.887,10.533 512.113,16.103 547.53,14.498 "/>
<g>
	<linearGradient id="SVGID_9_" gradientUnits="userSpaceOnUse" x1="0" y1="33.974" x2="555.1991" y2="33.974">
		<stop  offset="0" style="stop-color:#001E2D"/>
		<stop  offset="1" style="stop-color:#093D5E"/>
	</linearGradient>
	<polygon fill="url(#SVGID_9_)" points="513.451,67.948 555.199,0 0,0.512 0,67.948 	"/>
	<polygon fill="#0C5072" points="508.614,10.625 474.587,88.625 1022.624,88.625 1022.624,10.625 	"/>
	<g>
		<path fill="#FFFFFF" d="M331.325,39.776h-6.961v6.455h7.758v1.939h-10.068V30.266h9.67v1.939h-7.359v5.658h6.961V39.776z"/>
		<path fill="#FFFFFF" d="M338.786,48.171l-5.845-17.905h2.497l2.789,8.82c0.771,2.417,1.435,4.596,1.913,6.694h0.054
			c0.504-2.072,1.248-4.33,2.045-6.668l3.028-8.847h2.471l-6.402,17.905H338.786z"/>
		<path fill="#FFFFFF" d="M351.851,30.266v17.905h-2.311V30.266H351.851z"/>
		<path fill="#FFFFFF" d="M356.154,30.505c1.407-0.213,3.081-0.372,4.914-0.372c3.321,0,5.686,0.771,7.253,2.231
			c1.594,1.461,2.523,3.533,2.523,6.429c0,2.923-0.903,5.313-2.577,6.961c-1.673,1.673-4.437,2.576-7.916,2.576
			c-1.647,0-3.028-0.079-4.197-0.212V30.505z M358.465,46.338c0.585,0.106,1.435,0.133,2.338,0.133c4.941,0,7.625-2.763,7.625-7.598
			c0.026-4.224-2.365-6.907-7.253-6.907c-1.195,0-2.099,0.106-2.71,0.239V46.338z"/>
		<path fill="#FFFFFF" d="M383.166,39.776h-6.961v6.455h7.758v1.939h-10.068V30.266h9.67v1.939h-7.359v5.658h6.961V39.776z"/>
		<path fill="#FFFFFF" d="M387.013,48.171V30.266h2.523l5.738,9.059c1.329,2.099,2.364,3.985,3.215,5.818l0.053-0.026
			c-0.212-2.392-0.266-4.569-0.266-7.359v-7.491h2.179v17.905h-2.338l-5.685-9.085c-1.249-1.993-2.444-4.038-3.348-5.978
			l-0.08,0.026c0.133,2.258,0.187,4.41,0.187,7.385v7.651H387.013z"/>
		<path fill="#FFFFFF" d="M417.054,47.587c-0.851,0.425-2.551,0.85-4.729,0.85c-5.048,0-8.847-3.188-8.847-9.059
			c0-5.605,3.799-9.404,9.352-9.404c2.231,0,3.639,0.479,4.25,0.797l-0.558,1.886c-0.877-0.425-2.125-0.743-3.613-0.743
			c-4.197,0-6.986,2.683-6.986,7.385c0,4.384,2.523,7.199,6.88,7.199c1.408,0,2.843-0.292,3.772-0.743L417.054,47.587z"/>
		<path fill="#FFFFFF" d="M429.536,39.776h-6.961v6.455h7.758v1.939h-10.068V30.266h9.67v1.939h-7.359v5.658h6.961V39.776z"/>
	</g>
	<g>
		<path fill="#FFFFFF" d="M526.353,34.048h4.195c1.957,0,3.594,0.132,4.723,1.486c0.715,0.866,0.828,1.845,0.828,2.54
			c0,1.581-0.659,2.916-1.731,3.612c-0.997,0.64-2.37,0.64-3.085,0.64h-1.976v5.287h-2.954V34.048z M529.232,40.163h1.166
			c0.94,0,2.69,0,2.69-2.069c0-1.844-1.562-1.844-2.39-1.844h-1.467V40.163z"/>
		<path fill="#FFFFFF" d="M537.584,34.011h5.212c1.505-0.019,3.029-0.019,4.12,0.922c0.847,0.733,1.186,1.73,1.186,2.615
			c0,2.54-2.183,3.142-2.841,3.33c2.051,0.188,2.201,1.354,2.445,3.123c0.207,1.6,0.32,2.258,0.414,2.634
			c0.15,0.603,0.264,0.753,0.414,0.979h-3.218c-0.132-0.753-0.545-4.195-0.733-4.723c-0.264-0.771-0.979-0.771-1.468-0.771h-2.559
			v5.494h-2.973V34.011z M540.463,39.956h2.352c0.339,0,1.016,0,1.486-0.376c0.207-0.151,0.753-0.621,0.753-1.581
			c0-0.922-0.452-1.354-0.715-1.523c-0.452-0.32-0.998-0.32-1.92-0.32h-1.956V39.956z"/>
		<path fill="#FFFFFF" d="M555.964,33.728c1.449,0,3.443,0.339,4.779,1.844c1.448,1.655,1.73,3.781,1.73,5.117
			c0,1.976-0.603,4.083-1.712,5.324c-1.505,1.693-3.707,1.938-4.835,1.938c-1.788,0-3.575-0.564-4.816-1.863
			c-1.486-1.58-1.675-3.838-1.675-5.079C549.435,37.397,551.072,33.728,555.964,33.728z M553.499,44.716
			c0.414,0.564,1.11,1.091,2.465,1.091c1.186,0,1.994-0.413,2.54-1.26c0.451-0.678,0.922-1.731,0.922-3.895
			c0-0.659-0.057-1.6-0.339-2.428c-0.564-1.674-1.712-2.408-3.104-2.408c-1.091,0-1.956,0.452-2.502,1.148
			c-0.771,0.94-0.997,2.408-0.997,3.95C552.483,42.214,552.69,43.662,553.499,44.716z"/>
		<path fill="#FFFFFF" d="M565.482,34.067l3.557,10.667l3.574-10.667h2.879l-5.005,13.546h-3.18l-5.005-13.546H565.482z"/>
		<path fill="#FFFFFF" d="M576.882,34.011h9.106v2.22h-6.189v3.236h5.794v2.22h-5.794v3.669h6.396v2.258h-9.313V34.011z"/>
		<path fill="#FFFFFF" d="M588.15,34.011h4.215l5.099,10.705V34.011h2.709v13.603h-4.007l-5.269-11.288v11.288h-2.747V34.011z"/>
		<path fill="#FFFFFF" d="M615.278,38.451c-0.057-0.471-0.226-2.39-2.201-2.39c-2.163,0-3.066,2.258-3.066,5.061
			c0,0.81,0,4.666,2.841,4.666c1.223,0,2.39-0.771,2.445-2.577h3.067c-0.057,0.809-0.132,2.069-1.224,3.198
			c-1.204,1.242-2.728,1.524-3.97,1.524c-4.685,0-6.208-3.462-6.208-6.83c0-4.309,2.408-7.168,6.228-7.168
			c2.973,0,5.061,1.806,5.061,4.516H615.278z"/>
		<path fill="#FFFFFF" d="M622.106,34.067l3.556,10.667l3.574-10.667h2.879l-5.005,13.546h-3.179l-5.005-13.546H622.106z"/>
		<path fill="#FFFFFF" d="M644.493,33.728c1.449,0,3.443,0.339,4.779,1.844c1.448,1.655,1.73,3.781,1.73,5.117
			c0,1.976-0.603,4.083-1.712,5.324c-1.505,1.693-3.707,1.938-4.835,1.938c-1.788,0-3.575-0.564-4.816-1.863
			c-1.486-1.58-1.675-3.838-1.675-5.079C637.965,37.397,639.601,33.728,644.493,33.728z M642.028,44.716
			c0.414,0.564,1.11,1.091,2.465,1.091c1.186,0,1.994-0.413,2.54-1.26c0.451-0.678,0.922-1.731,0.922-3.895
			c0-0.659-0.057-1.6-0.339-2.428c-0.564-1.674-1.712-2.408-3.104-2.408c-1.091,0-1.956,0.452-2.502,1.148
			c-0.771,0.94-0.997,2.408-0.997,3.95C641.012,42.214,641.219,43.662,642.028,44.716z"/>
		<path fill="#FFFFFF" d="M655.892,34.048v8.278c0,1.486,0.113,3.35,2.954,3.35c0.47,0,1.881-0.02,2.634-1.186
			c0.282-0.414,0.433-0.94,0.433-2.314v-8.128h2.841v8.485c0,4.045-3.217,5.344-5.964,5.344c-1.354,0-3.838-0.302-5.117-2.352
			c-0.659-1.035-0.696-2.089-0.696-3.35v-8.128H655.892z"/>
		<path fill="#FFFFFF" d="M670.397,36.269h-4.046v-2.258h11.025v2.258h-4.045v11.345h-2.935V36.269z"/>
		<path fill="#FFFFFF" d="M686.369,38.451c-0.057-0.471-0.227-2.39-2.201-2.39c-2.164,0-3.067,2.258-3.067,5.061
			c0,0.81,0,4.666,2.841,4.666c1.224,0,2.39-0.771,2.446-2.577h3.066c-0.057,0.809-0.132,2.069-1.223,3.198
			c-1.204,1.242-2.729,1.524-3.97,1.524c-4.685,0-6.209-3.462-6.209-6.83c0-4.309,2.408-7.168,6.228-7.168
			c2.973,0,5.062,1.806,5.062,4.516H686.369z"/>
		<path fill="#FFFFFF" d="M697.11,33.728c1.448,0,3.442,0.339,4.778,1.844c1.448,1.655,1.73,3.781,1.73,5.117
			c0,1.976-0.602,4.083-1.712,5.324c-1.505,1.693-3.706,1.938-4.835,1.938c-1.787,0-3.574-0.564-4.816-1.863
			c-1.486-1.58-1.675-3.838-1.675-5.079C690.581,37.397,692.218,33.728,697.11,33.728z M694.645,44.716
			c0.414,0.564,1.109,1.091,2.465,1.091c1.185,0,1.994-0.413,2.539-1.26c0.452-0.678,0.922-1.731,0.922-3.895
			c0-0.659-0.056-1.6-0.338-2.428c-0.564-1.674-1.713-2.408-3.104-2.408c-1.092,0-1.957,0.452-2.502,1.148
			c-0.771,0.94-0.998,2.408-0.998,3.95C693.629,42.214,693.836,43.662,694.645,44.716z"/>
		<path fill="#FFFFFF" d="M705.386,34.011h4.76l2.879,9.896l3.104-9.896h4.628v13.603h-2.897V35.948l-3.706,11.665h-2.408
			l-3.631-11.665v11.665h-2.729V34.011z"/>
		<path fill="#FFFFFF" d="M723.239,34.011h9.105v2.22h-6.189v3.236h5.795v2.22h-5.795v3.669h6.396v2.258h-9.313V34.011z"/>
		<path fill="#FFFFFF" d="M736.802,43.268c0,0.64-0.038,2.577,2.465,2.577c1.58,0,2.577-0.753,2.577-1.9
			c0-1.204-0.847-1.411-2.577-1.825c-3.236-0.809-5.005-1.769-5.005-4.12c0-2.238,1.6-4.214,5.381-4.214
			c1.411,0,3.086,0.319,4.102,1.599c0.771,0.979,0.771,2.07,0.771,2.521h-2.804c-0.037-0.471-0.188-2.069-2.201-2.069
			c-1.354,0-2.238,0.733-2.238,1.844c0,1.261,0.997,1.486,2.953,1.976c2.353,0.564,4.666,1.204,4.666,3.856
			c0,2.446-2.031,4.422-5.795,4.422c-5.211,0-5.249-3.35-5.268-4.666H736.802z"/>
	</g>
	<g>
		<path fill="#FFFFFF" d="M530.412,65.319l-0.108-0.944h-0.047c-0.418,0.588-1.224,1.114-2.292,1.114
			c-1.518,0-2.292-1.068-2.292-2.152c0-1.813,1.61-2.804,4.507-2.788v-0.154c0-0.62-0.171-1.735-1.704-1.735
			c-0.696,0-1.425,0.218-1.951,0.558l-0.31-0.897c0.619-0.403,1.518-0.666,2.463-0.666c2.292,0,2.85,1.563,2.85,3.066v2.803
			c0,0.65,0.03,1.286,0.124,1.797H530.412z M530.211,61.494c-1.487-0.031-3.176,0.232-3.176,1.688c0,0.883,0.589,1.302,1.286,1.302
			c0.976,0,1.595-0.62,1.812-1.255c0.047-0.14,0.078-0.294,0.078-0.434V61.494z"/>
		<path fill="#FFFFFF" d="M538.917,65.041c-0.356,0.186-1.146,0.434-2.152,0.434c-2.262,0-3.733-1.533-3.733-3.826
			c0-2.308,1.58-3.98,4.027-3.98c0.806,0,1.518,0.202,1.89,0.388l-0.311,1.053c-0.325-0.186-0.836-0.355-1.579-0.355
			c-1.72,0-2.648,1.27-2.648,2.834c0,1.734,1.115,2.803,2.602,2.803c0.774,0,1.286-0.201,1.673-0.371L538.917,65.041z"/>
		<path fill="#FFFFFF" d="M540.358,60.162c0-0.883-0.015-1.642-0.062-2.339h1.192l0.047,1.472h0.062
			c0.341-1.007,1.162-1.642,2.075-1.642c0.155,0,0.264,0.015,0.388,0.046v1.286c-0.14-0.031-0.279-0.047-0.465-0.047
			c-0.96,0-1.642,0.728-1.827,1.75c-0.031,0.186-0.063,0.402-0.063,0.635v3.996h-1.348V60.162z"/>
		<path fill="#FFFFFF" d="M552.069,61.51c0,2.771-1.921,3.979-3.732,3.979c-2.029,0-3.594-1.486-3.594-3.856
			c0-2.509,1.642-3.979,3.718-3.979C550.613,57.653,552.069,59.217,552.069,61.51z M546.122,61.587c0,1.642,0.944,2.881,2.276,2.881
			c1.301,0,2.277-1.224,2.277-2.912c0-1.27-0.636-2.881-2.246-2.881S546.122,60.162,546.122,61.587z"/>
		<path fill="#FFFFFF" d="M553.45,63.926c0.402,0.263,1.115,0.542,1.796,0.542c0.991,0,1.456-0.496,1.456-1.115
			c0-0.65-0.387-1.007-1.394-1.379c-1.348-0.479-1.982-1.224-1.982-2.121c0-1.208,0.976-2.199,2.586-2.199
			c0.759,0,1.425,0.217,1.844,0.464l-0.341,0.991c-0.295-0.186-0.837-0.434-1.533-0.434c-0.806,0-1.255,0.465-1.255,1.022
			c0,0.619,0.449,0.898,1.425,1.271c1.301,0.495,1.967,1.146,1.967,2.261c0,1.316-1.022,2.246-2.803,2.246
			c-0.821,0-1.58-0.202-2.106-0.512L553.45,63.926z"/>
		<path fill="#FFFFFF" d="M559.429,63.926c0.403,0.263,1.115,0.542,1.797,0.542c0.991,0,1.456-0.496,1.456-1.115
			c0-0.65-0.388-1.007-1.395-1.379c-1.347-0.479-1.982-1.224-1.982-2.121c0-1.208,0.976-2.199,2.587-2.199
			c0.759,0,1.425,0.217,1.843,0.464l-0.341,0.991c-0.294-0.186-0.836-0.434-1.533-0.434c-0.806,0-1.255,0.465-1.255,1.022
			c0,0.619,0.449,0.898,1.426,1.271c1.301,0.495,1.967,1.146,1.967,2.261c0,1.316-1.022,2.246-2.804,2.246
			c-0.82,0-1.58-0.202-2.106-0.512L559.429,63.926z"/>
		<path fill="#FFFFFF" d="M572.891,65.319l-0.108-0.944h-0.047c-0.418,0.588-1.224,1.114-2.292,1.114
			c-1.518,0-2.292-1.068-2.292-2.152c0-1.813,1.61-2.804,4.507-2.788v-0.154c0-0.62-0.171-1.735-1.704-1.735
			c-0.696,0-1.425,0.218-1.951,0.558l-0.31-0.897c0.619-0.403,1.518-0.666,2.463-0.666c2.292,0,2.85,1.563,2.85,3.066v2.803
			c0,0.65,0.03,1.286,0.124,1.797H572.891z M572.69,61.494c-1.487-0.031-3.176,0.232-3.176,1.688c0,0.883,0.589,1.302,1.286,1.302
			c0.976,0,1.595-0.62,1.812-1.255c0.047-0.14,0.078-0.294,0.078-0.434V61.494z"/>
		<path fill="#FFFFFF" d="M579.12,65.319c0.031-0.511,0.062-1.27,0.062-1.936v-9.061h1.348v4.708h0.031
			c0.48-0.836,1.348-1.378,2.556-1.378c1.858,0,3.175,1.549,3.159,3.825c0,2.68-1.688,4.011-3.36,4.011
			c-1.085,0-1.952-0.418-2.51-1.409h-0.046l-0.063,1.239H579.12z M580.529,62.314c0,0.171,0.031,0.341,0.063,0.496
			c0.263,0.944,1.053,1.595,2.044,1.595c1.425,0,2.276-1.161,2.276-2.881c0-1.502-0.774-2.787-2.229-2.787
			c-0.93,0-1.797,0.635-2.075,1.673c-0.031,0.154-0.078,0.34-0.078,0.558V62.314z"/>
		<path fill="#FFFFFF" d="M587.857,60.162c0-0.883-0.015-1.642-0.062-2.339h1.192l0.047,1.472h0.062
			c0.341-1.007,1.162-1.642,2.075-1.642c0.155,0,0.264,0.015,0.388,0.046v1.286c-0.14-0.031-0.279-0.047-0.465-0.047
			c-0.96,0-1.642,0.728-1.827,1.75c-0.031,0.186-0.063,0.402-0.063,0.635v3.996h-1.348V60.162z"/>
		<path fill="#FFFFFF" d="M599.551,61.51c0,2.771-1.92,3.979-3.732,3.979c-2.028,0-3.593-1.486-3.593-3.856
			c0-2.509,1.642-3.979,3.717-3.979C598.096,57.653,599.551,59.217,599.551,61.51z M593.604,61.587c0,1.642,0.945,2.881,2.277,2.881
			c1.301,0,2.276-1.224,2.276-2.912c0-1.27-0.635-2.881-2.246-2.881C594.301,58.675,593.604,60.162,593.604,61.587z"/>
		<path fill="#FFFFFF" d="M605.285,65.319l-0.108-0.944h-0.047c-0.418,0.588-1.224,1.114-2.292,1.114
			c-1.518,0-2.292-1.068-2.292-2.152c0-1.813,1.61-2.804,4.507-2.788v-0.154c0-0.62-0.171-1.735-1.704-1.735
			c-0.696,0-1.425,0.218-1.951,0.558l-0.31-0.897c0.619-0.403,1.518-0.666,2.463-0.666c2.292,0,2.85,1.563,2.85,3.066v2.803
			c0,0.65,0.03,1.286,0.124,1.797H605.285z M605.084,61.494c-1.487-0.031-3.176,0.232-3.176,1.688c0,0.883,0.589,1.302,1.286,1.302
			c0.976,0,1.595-0.62,1.812-1.255c0.047-0.14,0.078-0.294,0.078-0.434V61.494z"/>
		<path fill="#FFFFFF" d="M614.921,54.323v9.061c0,0.666,0.016,1.425,0.062,1.936h-1.224l-0.062-1.301h-0.031
			c-0.418,0.836-1.332,1.471-2.556,1.471c-1.812,0-3.206-1.533-3.206-3.81c-0.015-2.493,1.533-4.026,3.361-4.026
			c1.146,0,1.92,0.542,2.261,1.146h0.031v-4.476H614.921z M613.557,60.874c0-0.17-0.016-0.402-0.062-0.572
			c-0.202-0.868-0.945-1.58-1.968-1.58c-1.409,0-2.245,1.239-2.245,2.896c0,1.518,0.743,2.771,2.215,2.771
			c0.913,0,1.75-0.604,1.998-1.626c0.046-0.186,0.062-0.371,0.062-0.588V60.874z"/>
		<path fill="#FFFFFF" d="M620.174,60.162c0-0.883-0.015-1.642-0.062-2.339h1.192l0.047,1.472h0.062
			c0.341-1.007,1.162-1.642,2.075-1.642c0.155,0,0.264,0.015,0.388,0.046v1.286c-0.14-0.031-0.279-0.047-0.465-0.047
			c-0.96,0-1.642,0.728-1.827,1.75c-0.031,0.186-0.063,0.402-0.063,0.635v3.996h-1.348V60.162z"/>
		<path fill="#FFFFFF" d="M629.236,65.319l-0.108-0.944h-0.047c-0.418,0.588-1.224,1.114-2.292,1.114
			c-1.518,0-2.292-1.068-2.292-2.152c0-1.813,1.61-2.804,4.507-2.788v-0.154c0-0.62-0.171-1.735-1.704-1.735
			c-0.696,0-1.425,0.218-1.951,0.558l-0.31-0.897c0.619-0.403,1.518-0.666,2.463-0.666c2.292,0,2.85,1.563,2.85,3.066v2.803
			c0,0.65,0.03,1.286,0.124,1.797H629.236z M629.035,61.494c-1.487-0.031-3.176,0.232-3.176,1.688c0,0.883,0.589,1.302,1.286,1.302
			c0.976,0,1.595-0.62,1.812-1.255c0.047-0.14,0.078-0.294,0.078-0.434V61.494z"/>
		<path fill="#FFFFFF" d="M632.397,59.852c0-0.774-0.016-1.41-0.062-2.029h1.208l0.077,1.239h0.031
			c0.371-0.713,1.238-1.409,2.478-1.409c1.038,0,2.648,0.619,2.648,3.19v4.476h-1.363v-4.321c0-1.208-0.449-2.215-1.734-2.215
			c-0.898,0-1.595,0.636-1.827,1.395c-0.063,0.17-0.093,0.402-0.093,0.635v4.507h-1.363V59.852z"/>
		<path fill="#FFFFFF" d="M647.314,57.823c-0.03,0.542-0.062,1.146-0.062,2.06v4.353c0,1.719-0.341,2.772-1.068,3.423
			c-0.729,0.682-1.781,0.898-2.727,0.898c-0.897,0-1.889-0.217-2.493-0.62l0.341-1.037c0.495,0.31,1.27,0.588,2.199,0.588
			c1.394,0,2.416-0.728,2.416-2.617v-0.836h-0.031c-0.418,0.696-1.224,1.254-2.385,1.254c-1.858,0-3.19-1.579-3.19-3.655
			c0-2.539,1.657-3.979,3.376-3.979c1.301,0,2.014,0.681,2.339,1.301h0.031l0.062-1.131H647.314z M645.905,60.781
			c0-0.232-0.016-0.434-0.077-0.619c-0.248-0.79-0.914-1.44-1.905-1.44c-1.301,0-2.23,1.1-2.23,2.834
			c0,1.472,0.744,2.695,2.215,2.695c0.837,0,1.596-0.527,1.89-1.395c0.077-0.232,0.108-0.495,0.108-0.728V60.781z"/>
		<path fill="#FFFFFF" d="M650.135,61.819c0.031,1.843,1.208,2.602,2.571,2.602c0.976,0,1.564-0.17,2.075-0.387l0.232,0.976
			c-0.48,0.217-1.301,0.465-2.494,0.465c-2.308,0-3.686-1.519-3.686-3.779c0-2.262,1.332-4.042,3.516-4.042
			c2.447,0,3.098,2.152,3.098,3.531c0,0.278-0.031,0.495-0.047,0.635H650.135z M654.132,60.844c0.016-0.867-0.356-2.215-1.89-2.215
			c-1.379,0-1.982,1.27-2.091,2.215H654.132z"/>
		<path fill="#FFFFFF" d="M666.896,61.51c0,2.771-1.921,3.979-3.732,3.979c-2.029,0-3.594-1.486-3.594-3.856
			c0-2.509,1.642-3.979,3.718-3.979C665.44,57.653,666.896,59.217,666.896,61.51z M660.949,61.587c0,1.642,0.944,2.881,2.276,2.881
			c1.301,0,2.277-1.224,2.277-2.912c0-1.27-0.636-2.881-2.246-2.881S660.949,60.162,660.949,61.587z"/>
		<path fill="#FFFFFF" d="M668.618,65.319v-6.458h-1.054v-1.038h1.054v-0.356c0-1.053,0.232-2.013,0.867-2.617
			c0.511-0.495,1.192-0.697,1.827-0.697c0.48,0,0.898,0.108,1.162,0.217l-0.187,1.054c-0.201-0.093-0.479-0.171-0.867-0.171
			c-1.161,0-1.456,1.022-1.456,2.169v0.402h1.813v1.038h-1.813v6.458H668.618z"/>
		<path fill="#FFFFFF" d="M675.992,60.27c0-0.96-0.031-1.734-0.062-2.447h1.223l0.063,1.285h0.031
			c0.558-0.913,1.44-1.455,2.663-1.455c1.813,0,3.176,1.533,3.176,3.81c0,2.695-1.643,4.026-3.407,4.026
			c-0.991,0-1.859-0.434-2.309-1.177h-0.03v4.073h-1.348V60.27z M677.34,62.269c0,0.201,0.03,0.387,0.062,0.558
			c0.248,0.944,1.068,1.595,2.045,1.595c1.44,0,2.276-1.177,2.276-2.896c0-1.502-0.79-2.787-2.23-2.787
			c-0.929,0-1.796,0.666-2.06,1.688c-0.047,0.171-0.093,0.372-0.093,0.558V62.269z"/>
		<path fill="#FFFFFF" d="M688.802,65.319l-0.108-0.944h-0.047c-0.418,0.588-1.224,1.114-2.292,1.114
			c-1.518,0-2.292-1.068-2.292-2.152c0-1.813,1.61-2.804,4.507-2.788v-0.154c0-0.62-0.171-1.735-1.704-1.735
			c-0.696,0-1.425,0.218-1.951,0.558l-0.31-0.897c0.619-0.403,1.518-0.666,2.463-0.666c2.292,0,2.85,1.563,2.85,3.066v2.803
			c0,0.65,0.03,1.286,0.124,1.797H688.802z M688.601,61.494c-1.487-0.031-3.176,0.232-3.176,1.688c0,0.883,0.589,1.302,1.286,1.302
			c0.976,0,1.595-0.62,1.812-1.255c0.047-0.14,0.078-0.294,0.078-0.434V61.494z"/>
		<path fill="#FFFFFF" d="M693.606,55.671v2.152h1.951v1.038h-1.951v4.042c0,0.929,0.263,1.456,1.021,1.456
			c0.356,0,0.62-0.047,0.79-0.093l0.063,1.021c-0.264,0.108-0.682,0.187-1.208,0.187c-0.636,0-1.146-0.202-1.472-0.573
			c-0.388-0.403-0.526-1.069-0.526-1.951v-4.089h-1.162v-1.038h1.162v-1.797L693.606,55.671z"/>
		<path fill="#FFFFFF" d="M698.47,55.717c0.016,0.465-0.325,0.837-0.867,0.837c-0.48,0-0.821-0.372-0.821-0.837
			c0-0.479,0.356-0.852,0.852-0.852C698.145,54.865,698.47,55.237,698.47,55.717z M696.952,65.319v-7.496h1.363v7.496H696.952z"/>
		<path fill="#FFFFFF" d="M701.197,61.819c0.031,1.843,1.208,2.602,2.571,2.602c0.976,0,1.564-0.17,2.075-0.387l0.232,0.976
			c-0.48,0.217-1.301,0.465-2.494,0.465c-2.308,0-3.686-1.519-3.686-3.779c0-2.262,1.332-4.042,3.516-4.042
			c2.447,0,3.098,2.152,3.098,3.531c0,0.278-0.031,0.495-0.047,0.635H701.197z M705.193,60.844c0.016-0.867-0.356-2.215-1.89-2.215
			c-1.379,0-1.982,1.27-2.091,2.215H705.193z"/>
		<path fill="#FFFFFF" d="M708.045,59.852c0-0.774-0.016-1.41-0.062-2.029h1.208l0.077,1.239h0.031
			c0.371-0.713,1.238-1.409,2.478-1.409c1.038,0,2.648,0.619,2.648,3.19v4.476h-1.363v-4.321c0-1.208-0.449-2.215-1.734-2.215
			c-0.898,0-1.595,0.636-1.827,1.395c-0.063,0.17-0.093,0.402-0.093,0.635v4.507h-1.363V59.852z"/>
		<path fill="#FFFFFF" d="M718.145,55.671v2.152h1.951v1.038h-1.951v4.042c0,0.929,0.264,1.456,1.022,1.456
			c0.356,0,0.619-0.047,0.79-0.093l0.062,1.021c-0.264,0.108-0.682,0.187-1.208,0.187c-0.635,0-1.146-0.202-1.472-0.573
			c-0.387-0.403-0.526-1.069-0.526-1.951v-4.089h-1.161v-1.038h1.161v-1.797L718.145,55.671z"/>
		<path fill="#FFFFFF" d="M721.291,63.926c0.402,0.263,1.115,0.542,1.796,0.542c0.991,0,1.456-0.496,1.456-1.115
			c0-0.65-0.387-1.007-1.394-1.379c-1.348-0.479-1.982-1.224-1.982-2.121c0-1.208,0.976-2.199,2.586-2.199
			c0.759,0,1.425,0.217,1.844,0.464l-0.341,0.991c-0.295-0.186-0.837-0.434-1.533-0.434c-0.806,0-1.255,0.465-1.255,1.022
			c0,0.619,0.449,0.898,1.425,1.271c1.301,0.495,1.967,1.146,1.967,2.261c0,1.316-1.022,2.246-2.803,2.246
			c-0.821,0-1.58-0.202-2.106-0.512L721.291,63.926z"/>
		<path fill="#FFFFFF" d="M727.077,59.248c0.226,0.145,0.749,0.37,1.301,0.37c1.021,0,1.337-0.65,1.327-1.138
			c-0.009-0.822-0.749-1.175-1.518-1.175h-0.442v-0.597h0.442c0.578,0,1.311-0.298,1.311-0.993c0-0.47-0.299-0.886-1.03-0.886
			c-0.47,0-0.921,0.208-1.174,0.389l-0.208-0.578c0.307-0.226,0.903-0.451,1.535-0.451c1.156,0,1.681,0.687,1.681,1.4
			c0,0.604-0.361,1.119-1.084,1.382v0.018c0.723,0.145,1.31,0.687,1.31,1.509c0,0.939-0.731,1.762-2.141,1.762
			c-0.659,0-1.237-0.208-1.526-0.397L727.077,59.248z"/>
		<path fill="#FFFFFF" d="M733.616,57.423v0.587h-2.231v-0.587H733.616z"/>
		<path fill="#FFFFFF" d="M736.018,55.029h-0.018l-1.021,0.551l-0.153-0.605l1.283-0.686h0.677v5.871h-0.768V55.029z"/>
		<path fill="#FFFFFF" d="M740.652,55.029h-0.019l-1.021,0.551l-0.153-0.605l1.282-0.686h0.678v5.871h-0.768V55.029z"/>
	</g>
</g>
</svg>
