<?xml version="1.0" encoding="utf-8"?>
<!-- Generator: Adobe Illustrator 17.0.0, SVG Export Plug-In . SVG Version: 6.00 Build 0)  -->
<!DOCTYPE svg PUBLIC "-//W3C//DTD SVG 1.1//EN" "http://www.w3.org/Graphics/SVG/1.1/DTD/svg11.dtd">
<svg version="1.1" id="Layer_1" xmlns="http://www.w3.org/2000/svg" xmlns:xlink="http://www.w3.org/1999/xlink" x="0px" y="0px"
	 width="1022.624px" height="89.236px" viewBox="0 0 1022.624 89.236" enable-background="new 0 0 1022.624 89.236"
	 xml:space="preserve">
<g>
	<g opacity="0.5">
		<g>
			<defs>
				<rect id="SVGID_36_" x="1101.659" y="-291.164" width="1013.98" height="498.291"/>
			</defs>
			<clipPath id="SVGID_2_">
				<use xlink:href="#SVGID_36_"  overflow="visible"/>
			</clipPath>
			<g clip-path="url(#SVGID_2_)">
				<defs>
					<rect id="SVGID_38_" x="1103.311" y="-289.326" width="1010.677" height="494.616"/>
				</defs>
				<clipPath id="SVGID_4_">
					<use xlink:href="#SVGID_38_"  overflow="visible"/>
				</clipPath>
				<g opacity="0.5" clip-path="url(#SVGID_4_)">
					<g>
						<defs>
							<rect id="SVGID_40_" x="1018.518" y="-301.124" width="1166.597" height="515.427"/>
						</defs>
						<clipPath id="SVGID_6_">
							<use xlink:href="#SVGID_40_"  overflow="visible"/>
						</clipPath>
						<g clip-path="url(#SVGID_6_)">
							<defs>
								<rect id="SVGID_42_" x="1020.078" y="-299.684" width="1163.469" height="512.55"/>
							</defs>
							<clipPath id="SVGID_8_">
								<use xlink:href="#SVGID_42_"  overflow="visible"/>
							</clipPath>
						</g>
					</g>
				</g>
			</g>
		</g>
	</g>
</g>
<g>
	<linearGradient id="SVGID_9_" gradientUnits="userSpaceOnUse" x1="0" y1="34.3046" x2="555.1991" y2="34.3046">
		<stop  offset="0" style="stop-color:#001E2D"/>
		<stop  offset="1" style="stop-color:#093D5E"/>
	</linearGradient>
	<polygon fill="url(#SVGID_9_)" points="513.451,68.279 555.199,0.331 0,0.843 0,68.279 	"/>
	<polygon fill="#5CA7BB" points="556.294,0 508.887,11.144 512.113,16.714 547.53,15.108 	"/>
	<polygon fill="#0C5072" points="508.614,11.236 474.587,89.236 1022.624,89.236 1022.624,11.236 	"/>
	<g>
		<path fill="#FFFFFF" d="M334.565,48.02c-0.85,0.425-2.55,0.85-4.729,0.85c-5.047,0-8.846-3.188-8.846-9.059
			c0-5.605,3.799-9.404,9.351-9.404c2.231,0,3.64,0.479,4.251,0.797l-0.559,1.886c-0.876-0.425-2.125-0.743-3.612-0.743
			c-4.197,0-6.987,2.683-6.987,7.385c0,4.384,2.524,7.199,6.881,7.199c1.408,0,2.843-0.292,3.772-0.743L334.565,48.02z"/>
		<path fill="#FFFFFF" d="M352.865,39.465c0,6.163-3.746,9.431-8.315,9.431c-4.729,0-8.049-3.666-8.049-9.085
			c0-5.686,3.533-9.404,8.314-9.404C349.704,30.407,352.865,34.152,352.865,39.465z M338.97,39.757c0,3.826,2.072,7.253,5.712,7.253
			c3.666,0,5.738-3.374,5.738-7.438c0-3.56-1.859-7.279-5.712-7.279C340.883,32.292,338.97,35.826,338.97,39.757z"/>
		<path fill="#FFFFFF" d="M356.021,48.604V30.699h2.523l5.738,9.059c1.328,2.099,2.364,3.985,3.214,5.818l0.054-0.026
			c-0.213-2.392-0.266-4.569-0.266-7.359v-7.491h2.178v17.905h-2.337l-5.686-9.085c-1.248-1.993-2.444-4.038-3.347-5.978
			l-0.08,0.026c0.133,2.258,0.186,4.41,0.186,7.385v7.651H356.021z"/>
		<path fill="#FFFFFF" d="M373.788,30.699h9.644v1.939h-7.332v5.95h6.774v1.913h-6.774v8.103h-2.312V30.699z"/>
		<path fill="#FFFFFF" d="M389.218,30.699v17.905h-2.311V30.699H389.218z"/>
		<path fill="#FFFFFF" d="M393.52,30.938c1.408-0.213,3.082-0.372,4.915-0.372c3.32,0,5.685,0.771,7.252,2.231
			c1.594,1.461,2.524,3.533,2.524,6.429c0,2.923-0.903,5.313-2.577,6.961c-1.674,1.673-4.437,2.576-7.917,2.576
			c-1.646,0-3.028-0.079-4.197-0.212V30.938z M395.832,46.771c0.584,0.106,1.435,0.133,2.338,0.133c4.941,0,7.624-2.763,7.624-7.598
			c0.026-4.224-2.364-6.907-7.252-6.907c-1.196,0-2.099,0.106-2.71,0.239V46.771z"/>
		<path fill="#FFFFFF" d="M420.507,40.209h-6.961v6.455h7.758v1.939h-10.068V30.699h9.67v1.939h-7.359v5.658h6.961V40.209z"/>
		<path fill="#FFFFFF" d="M424.381,48.604V30.699h2.523l5.738,9.059c1.329,2.099,2.364,3.985,3.215,5.818l0.053-0.026
			c-0.212-2.392-0.266-4.569-0.266-7.359v-7.491h2.179v17.905h-2.338l-5.685-9.085c-1.249-1.993-2.444-4.038-3.348-5.978
			l-0.08,0.026c0.133,2.258,0.187,4.41,0.187,7.385v7.651H424.381z"/>
		<path fill="#FFFFFF" d="M454.421,48.02c-0.85,0.425-2.55,0.85-4.729,0.85c-5.047,0-8.846-3.188-8.846-9.059
			c0-5.605,3.799-9.404,9.351-9.404c2.231,0,3.64,0.479,4.251,0.797l-0.559,1.886c-0.876-0.425-2.125-0.743-3.612-0.743
			c-4.197,0-6.987,2.683-6.987,7.385c0,4.384,2.524,7.199,6.881,7.199c1.408,0,2.843-0.292,3.772-0.743L454.421,48.02z"/>
		<path fill="#FFFFFF" d="M466.902,40.209h-6.96v6.455h7.757v1.939h-10.068V30.699h9.67v1.939h-7.358v5.658h6.96V40.209z"/>
	</g>
	<path fill="#FFFFFF" d="M533.595,29.113l4.721,13.6h-2.934l-0.978-2.934h-5.38l-1.016,2.934h-2.784l4.909-13.6H533.595z
		 M533.67,37.577l-1.881-5.794l-2.013,5.794H533.67z M539.973,34.906c0-0.038,0-1.072-0.056-1.731h2.671l0.075,1.43
		c0.263-0.433,1.016-1.655,3.085-1.655c1.862,0,2.652,1.129,2.897,1.787c0.207,0.583,0.263,1.072,0.263,2.84v5.135h-2.84v-5.906
		c0-0.395,0-0.734-0.151-1.035c-0.207-0.414-0.64-0.809-1.354-0.809c-0.602,0-1.148,0.282-1.449,0.734
		c-0.169,0.244-0.338,0.715-0.338,1.448v5.568h-2.803V34.906z M556.828,29.113h9.104v2.22h-6.189v3.235h5.794v2.22h-5.794v3.668
		h6.395v2.257h-9.311V29.113z M570.56,38.367c0,0.64-0.037,2.577,2.464,2.577c1.58,0,2.577-0.752,2.577-1.9
		c0-1.204-0.846-1.411-2.577-1.825c-3.235-0.809-5.004-1.768-5.004-4.119c0-2.238,1.599-4.214,5.38-4.214
		c1.411,0,3.085,0.32,4.101,1.599c0.771,0.978,0.771,2.069,0.771,2.521h-2.803c-0.038-0.47-0.188-2.069-2.201-2.069
		c-1.354,0-2.238,0.734-2.238,1.843c0,1.26,0.997,1.486,2.953,1.975c2.351,0.564,4.665,1.204,4.665,3.856
		c0,2.445-2.031,4.42-5.793,4.42c-5.21,0-5.248-3.348-5.267-4.665H570.56z M583.409,31.37h-4.044v-2.257h11.023v2.257h-4.044v11.343
		h-2.934V31.37z M597.273,29.113l4.721,13.6h-2.934l-0.978-2.934h-5.38l-1.016,2.934h-2.784l4.909-13.6H597.273z M597.349,37.577
		l-1.881-5.794l-2.013,5.794H597.349z M603.67,29.132h5.079c0.79,0,2.314,0,3.348,0.64c1.242,0.79,1.524,2.107,1.524,2.897
		c0,0.508-0.094,1.392-0.79,2.032c-0.094,0.113-0.752,0.715-1.543,0.922v0.038c2.069,0.376,2.878,1.881,2.878,3.311
		c0,1.599-0.94,2.671-1.994,3.198c-1.053,0.546-2.897,0.546-3.423,0.546h-5.079V29.132z M606.454,34.662h2.031
		c0.828,0,2.332,0,2.332-1.749c0-1.693-1.43-1.693-2.389-1.693h-1.975V34.662z M606.454,40.531h1.975c1.336,0,2.84,0,2.84-1.825
		c0-1.937-1.749-1.937-3.141-1.937h-1.674V40.531z M616.237,29.132h2.972v11.267h5.831v2.314h-8.803V29.132z M626.527,29.075h2.916
		v13.637h-2.916V29.075z M634.258,38.367c0,0.64-0.037,2.577,2.464,2.577c1.58,0,2.577-0.752,2.577-1.9
		c0-1.204-0.846-1.411-2.577-1.825c-3.235-0.809-5.004-1.768-5.004-4.119c0-2.238,1.599-4.214,5.38-4.214
		c1.411,0,3.085,0.32,4.101,1.599c0.771,0.978,0.771,2.069,0.771,2.521h-2.803c-0.038-0.47-0.188-2.069-2.201-2.069
		c-1.354,0-2.238,0.734-2.238,1.843c0,1.26,0.997,1.486,2.953,1.975c2.351,0.564,4.665,1.204,4.665,3.856
		c0,2.445-2.031,4.42-5.794,4.42c-5.21,0-5.248-3.348-5.267-4.665H634.258z M644.436,29.113h2.915v5.436h5.135v-5.436h2.953v13.6
		h-2.916V36.75h-5.173v5.963h-2.915V29.113z M658.15,29.113h9.104v2.22h-6.189v3.235h5.794v2.22h-5.794v3.668h6.396v2.257h-9.311
		V29.113z M669.475,29.15l4.496,0.019c0.752,0,3.047,0.019,4.684,1.223c1.712,1.26,2.314,3.405,2.314,5.342
		c0,4.176-2.238,6.358-4.815,6.828c-0.508,0.094-1.072,0.151-2.445,0.151h-4.232V29.15z M672.428,40.474
		c0.32,0.019,0.809,0.038,1.147,0.038c1.241,0,2.314-0.094,3.16-0.94c1.147-1.147,1.223-3.179,1.223-3.837
		c0-1.919-0.658-3.687-2.483-4.195c-0.602-0.169-1.373-0.263-3.047-0.188V40.474z M690.695,38.367c0,0.64-0.037,2.577,2.464,2.577
		c1.58,0,2.577-0.752,2.577-1.9c0-1.204-0.846-1.411-2.577-1.825c-3.235-0.809-5.004-1.768-5.004-4.119
		c0-2.238,1.599-4.214,5.38-4.214c1.411,0,3.085,0.32,4.101,1.599c0.771,0.978,0.771,2.069,0.771,2.521h-2.803
		c-0.038-0.47-0.188-2.069-2.201-2.069c-1.354,0-2.238,0.734-2.238,1.843c0,1.26,0.997,1.486,2.953,1.975
		c2.351,0.564,4.665,1.204,4.665,3.856c0,2.445-2.031,4.42-5.793,4.42c-5.21,0-5.248-3.348-5.267-4.665H690.695z M706.534,42.713
		c-0.094-0.583-0.094-1.016-0.094-1.298c-1.053,1.524-2.314,1.524-2.84,1.524c-1.373,0-1.994-0.395-2.37-0.752
		c-0.564-0.564-0.828-1.336-0.828-2.088s0.263-2.144,2.013-2.953c1.166-0.527,2.84-0.527,3.762-0.527
		c0-0.621-0.019-0.922-0.132-1.26c-0.245-0.696-0.978-0.79-1.242-0.79c-0.395,0-0.809,0.169-1.053,0.527
		c-0.207,0.32-0.207,0.621-0.207,0.846h-2.727c0.019-0.508,0.075-1.524,1.072-2.238c0.865-0.621,1.975-0.771,2.878-0.771
		c0.79,0,2.445,0.132,3.386,1.223c0.64,0.771,0.658,1.9,0.658,2.333l0.019,3.819c0,0.809,0.057,1.618,0.226,2.408H706.534z
		 M703.111,39.778c0,0.64,0.433,1.354,1.354,1.354c0.508,0,0.922-0.244,1.185-0.545c0.489-0.602,0.527-1.336,0.527-2.351
		C704.39,38.085,703.111,38.65,703.111,39.778z M711.482,35.188h-1.411v-1.975h1.411v-1.298c0-1.674,0.564-3.028,3.273-3.028
		c0.188,0,0.715,0,1.505,0.094v1.938c-0.282-0.038-0.357-0.056-0.583-0.056c-1.43,0-1.43,0.752-1.43,1.241v1.11h1.768v1.975h-1.768
		v7.524h-2.765V35.188z M719.043,38.668c0,0.621,0,2.539,1.938,2.539c0.696,0,1.392-0.263,1.655-1.317h2.539
		c-0.037,0.451-0.132,1.26-0.903,2.069c-0.696,0.734-1.937,1.11-3.329,1.11c-0.809,0-2.351-0.151-3.348-1.185
		c-0.865-0.903-1.223-2.182-1.223-3.706c0-1.542,0.376-3.386,1.975-4.496c0.734-0.489,1.636-0.79,2.671-0.79
		c1.354,0,2.972,0.527,3.837,2.295c0.64,1.298,0.602,2.69,0.564,3.48H719.043z M722.579,36.919c0-0.433-0.038-2.125-1.655-2.125
		c-1.223,0-1.731,1.016-1.787,2.125H722.579z M732.85,42.581c-0.903,0.245-1.712,0.301-2.163,0.301
		c-2.803,0-2.803-1.768-2.803-2.558v-5.21h-1.825V33.27h1.825v-1.862l2.765-1.016v2.878h2.257v1.843h-2.257v4.289
		c0.019,0.865,0.019,1.411,1.26,1.411c0.414,0,0.602-0.019,0.94-0.056V42.581z M736.632,33.213l2.088,6.584l2.126-6.584h2.765
		l-3.593,9.33l-1.147,3.781h-2.803l1.204-3.574l-3.649-9.537H736.632z M752.886,33.213l0.075,1.354
		c0.865-1.524,2.445-1.542,2.897-1.542c2.464,0,3.95,1.843,3.95,4.74c0,2.69-1.392,5.079-4.138,5.079
		c-1.712,0-2.408-0.903-2.652-1.223v4.74h-2.84V33.213H752.886z M756.986,37.878c0-1.129-0.282-3.066-1.919-3.066
		c-0.903,0-2.182,0.677-2.182,3.235c0,0.564,0.019,2.972,2.069,2.972C756.272,41.02,756.986,39.759,756.986,37.878z M761.765,35.546
		c0-0.451-0.075-1.825-0.132-2.37h2.615L764.305,35c0.357-0.809,0.978-1.956,3.235-1.843v2.502c-2.821-0.263-2.991,1.185-2.991,2.37
		v4.684h-2.784V35.546z M773.09,32.988c3.442,0,4.928,2.333,4.928,4.985c0,2.671-1.542,5.079-4.985,5.079
		c-2.709,0-4.853-1.674-4.853-5.004C768.18,35.753,769.347,32.988,773.09,32.988z M773.127,41.114c1.223,0,2.05-0.734,2.05-3.254
		c0-1.26-0.244-3.01-2.088-3.01c-2.031,0-2.05,2.351-2.05,3.217C771.04,40.192,771.754,41.114,773.127,41.114z M780.352,35.188
		h-1.43v-1.975h1.43v-1.298c0-1.674,0.545-3.028,3.254-3.028c0.207,0,0.733,0,1.505,0.094v1.938
		c-0.282-0.038-0.357-0.056-0.583-0.056c-1.411,0-1.411,0.752-1.411,1.241v1.11h1.75v1.975h-1.75v7.524h-2.765V35.188z
		 M786.277,29.132h2.972v2.427h-2.972V29.132z M786.371,33.195h2.784v9.518h-2.784V33.195z M791.601,29.113h2.784v13.6h-2.784
		V29.113z M799.069,38.668c0,0.621,0,2.539,1.938,2.539c0.696,0,1.392-0.263,1.655-1.317h2.539c-0.037,0.451-0.131,1.26-0.903,2.069
		c-0.696,0.734-1.937,1.11-3.329,1.11c-0.809,0-2.351-0.151-3.348-1.185c-0.865-0.903-1.223-2.182-1.223-3.706
		c0-1.542,0.376-3.386,1.975-4.496c0.734-0.489,1.637-0.79,2.671-0.79c1.354,0,2.972,0.527,3.837,2.295
		c0.64,1.298,0.602,2.69,0.564,3.48H799.069z M802.606,36.919c0-0.433-0.038-2.125-1.655-2.125c-1.223,0-1.731,1.016-1.787,2.125
		H802.606z"/>
	<g>
		<path fill="#FFFFFF" d="M532.053,71.485c-0.094-0.583-0.094-1.016-0.094-1.298c-1.054,1.523-2.314,1.523-2.841,1.523
			c-1.373,0-1.994-0.395-2.37-0.752c-0.564-0.564-0.828-1.336-0.828-2.089s0.264-2.145,2.013-2.954
			c1.167-0.526,2.841-0.526,3.763-0.526c0-0.621-0.019-0.922-0.131-1.261c-0.245-0.696-0.979-0.79-1.242-0.79
			c-0.396,0-0.809,0.169-1.054,0.526c-0.207,0.32-0.207,0.621-0.207,0.847h-2.728c0.019-0.508,0.075-1.523,1.072-2.238
			c0.865-0.621,1.976-0.771,2.879-0.771c0.79,0,2.445,0.132,3.386,1.223c0.64,0.771,0.659,1.9,0.659,2.333l0.019,3.819
			c0,0.809,0.057,1.618,0.226,2.408H532.053z M528.63,68.55c0,0.64,0.433,1.354,1.354,1.354c0.508,0,0.922-0.245,1.186-0.546
			c0.489-0.603,0.526-1.336,0.526-2.352C529.909,66.857,528.63,67.421,528.63,68.55z"/>
		<path fill="#FFFFFF" d="M536.85,63.677c0-0.038,0-1.072-0.057-1.731h2.672l0.075,1.431c0.264-0.434,1.016-1.656,3.086-1.656
			c1.862,0,2.652,1.129,2.896,1.787c0.207,0.584,0.264,1.073,0.264,2.841v5.137h-2.841v-5.907c0-0.396,0-0.734-0.15-1.035
			c-0.207-0.414-0.64-0.809-1.354-0.809c-0.603,0-1.147,0.282-1.449,0.733c-0.169,0.244-0.338,0.715-0.338,1.448v5.569h-2.804
			V63.677z"/>
		<path fill="#FFFFFF" d="M554.591,57.901h2.804v12.041c0,0.564,0.037,1.186,0.075,1.543h-2.822l-0.075-1.373
			c-0.188,0.338-0.376,0.695-0.96,1.072c-0.695,0.451-1.43,0.489-1.844,0.489c-2.539,0-4.045-1.75-4.045-4.723
			c0-3.142,1.712-5.099,4.196-5.099c1.712,0,2.427,0.96,2.671,1.298V57.901z M552.465,69.867c0.81,0,1.468-0.489,1.769-1.072
			c0.414-0.79,0.452-1.769,0.452-2.239c0-1.862-0.81-2.878-2.07-2.878c-1.862,0-2.069,2.238-2.069,3.198
			C550.546,68.456,551.073,69.867,552.465,69.867z"/>
		<path fill="#FFFFFF" d="M565.2,57.882h9.105v2.22h-6.189v3.236h5.795v2.22h-5.795v3.669h6.396v2.258H565.2V57.882z"/>
		<path fill="#FFFFFF" d="M579.46,57.882l2.747,4.628l2.935-4.628h3.123l-4.478,6.547l4.741,7.056h-3.574l-3.029-5.117l-3.255,5.117
			h-3.123l4.778-7.036l-4.459-6.566H579.46z"/>
		<path fill="#FFFFFF" d="M590.107,57.919h4.195c1.956,0,3.593,0.132,4.722,1.486c0.716,0.866,0.828,1.844,0.828,2.54
			c0,1.581-0.658,2.917-1.73,3.612c-0.997,0.64-2.371,0.64-3.086,0.64h-1.976v5.287h-2.953V57.919z M592.985,64.035h1.167
			c0.94,0,2.69,0,2.69-2.069c0-1.844-1.562-1.844-2.39-1.844h-1.468V64.035z"/>
		<path fill="#FFFFFF" d="M601.77,57.882h9.105v2.22h-6.189v3.236h5.795v2.22h-5.795v3.669h6.396v2.258h-9.313V57.882z"/>
		<path fill="#FFFFFF" d="M613.001,57.882h5.212c1.505-0.019,3.029-0.019,4.12,0.922c0.847,0.733,1.186,1.73,1.186,2.615
			c0,2.54-2.183,3.142-2.841,3.33c2.051,0.188,2.201,1.354,2.445,3.123c0.207,1.6,0.32,2.258,0.414,2.634
			c0.15,0.603,0.264,0.753,0.414,0.979h-3.218c-0.132-0.753-0.545-4.195-0.733-4.723c-0.264-0.771-0.979-0.771-1.468-0.771h-2.559
			v5.494h-2.973V57.882z M615.88,63.828h2.352c0.339,0,1.016,0,1.486-0.376c0.207-0.151,0.753-0.621,0.753-1.581
			c0-0.922-0.452-1.354-0.715-1.523c-0.452-0.32-0.998-0.32-1.92-0.32h-1.956V63.828z"/>
		<path fill="#FFFFFF" d="M624.815,57.844h2.916v13.641h-2.916V57.844z"/>
		<path fill="#FFFFFF" d="M630.307,57.882h9.106v2.22h-6.189v3.236h5.794v2.22h-5.794v3.669h6.396v2.258h-9.313V57.882z"/>
		<path fill="#FFFFFF" d="M641.764,57.882h4.214l5.099,10.705V57.882h2.71v13.603h-4.008l-5.268-11.288v11.288h-2.747V57.882z"/>
		<path fill="#FFFFFF" d="M664.001,62.323c-0.057-0.471-0.226-2.39-2.201-2.39c-2.163,0-3.066,2.258-3.066,5.061
			c0,0.81,0,4.666,2.841,4.666c1.223,0,2.39-0.771,2.445-2.577h3.067c-0.057,0.809-0.132,2.069-1.224,3.198
			c-1.204,1.242-2.728,1.524-3.97,1.524c-4.685,0-6.208-3.462-6.208-6.83c0-4.309,2.408-7.168,6.228-7.168
			c2.973,0,5.061,1.806,5.061,4.516H664.001z"/>
		<path fill="#FFFFFF" d="M668.985,57.882h9.105v2.22h-6.189v3.236h5.795v2.22h-5.795v3.669h6.396v2.258h-9.313V57.882z"/>
		<path fill="#FFFFFF" d="M687.591,61.984l2.088,6.585l2.126-6.585h2.767l-3.594,9.332l-1.147,3.781h-2.804l1.204-3.574l-3.65-9.539
			H687.591z"/>
		<path fill="#FFFFFF" d="M700.1,61.758c3.443,0,4.93,2.333,4.93,4.985c0,2.672-1.543,5.08-4.986,5.08
			c-2.709,0-4.854-1.675-4.854-5.005C695.19,64.524,696.356,61.758,700.1,61.758z M700.138,69.885c1.223,0,2.051-0.733,2.051-3.255
			c0-1.26-0.245-3.01-2.089-3.01c-2.031,0-2.051,2.352-2.051,3.217C698.049,68.963,698.764,69.885,700.138,69.885z"/>
		<path fill="#FFFFFF" d="M709.845,61.984v5.663c0,0.827,0,2.088,1.486,2.088c1.787,0,1.787-1.336,1.787-2.953v-4.798h2.859v6.265
			c0.038,2.051,0.057,2.296,0.057,2.54c0.019,0.264,0.037,0.433,0.075,0.696h-2.709l-0.095-1.261
			c-0.282,0.414-0.997,1.505-2.803,1.505c-1.279,0-2.333-0.583-2.86-1.279c-0.62-0.771-0.62-2.088-0.62-2.559v-5.907H709.845z"/>
		<path fill="#FFFFFF" d="M728.864,65.351c-0.038-0.338-0.15-1.749-1.223-1.749c-1.317,0-1.468,1.994-1.468,3.028
			c0,0.527,0.057,2.221,0.696,2.917c0.263,0.282,0.545,0.319,0.752,0.319c0.302,0,1.167-0.132,1.279-1.825h2.747
			c-0.037,0.734-0.132,1.882-1.223,2.804c-0.678,0.583-1.524,0.884-2.709,0.884c-1.261,0-2.371-0.282-3.236-1.26
			c-0.828-0.96-1.204-2.221-1.204-3.744c0-4.327,3.18-4.93,4.44-4.93c1.769,0,3.856,0.979,3.875,3.556H728.864z"/>
		<path fill="#FFFFFF" d="M738.947,71.485c-0.094-0.583-0.094-1.016-0.094-1.298c-1.054,1.523-2.314,1.523-2.841,1.523
			c-1.373,0-1.994-0.395-2.37-0.752c-0.564-0.564-0.828-1.336-0.828-2.089s0.264-2.145,2.013-2.954
			c1.167-0.526,2.841-0.526,3.763-0.526c0-0.621-0.019-0.922-0.131-1.261c-0.245-0.696-0.979-0.79-1.242-0.79
			c-0.396,0-0.809,0.169-1.054,0.526c-0.207,0.32-0.207,0.621-0.207,0.847h-2.728c0.019-0.508,0.075-1.523,1.072-2.238
			c0.865-0.621,1.976-0.771,2.879-0.771c0.79,0,2.445,0.132,3.386,1.223c0.64,0.771,0.659,1.9,0.659,2.333l0.019,3.819
			c0,0.809,0.057,1.618,0.226,2.408H738.947z M735.523,68.55c0,0.64,0.433,1.354,1.354,1.354c0.508,0,0.922-0.245,1.186-0.546
			c0.489-0.603,0.526-1.336,0.526-2.352C736.802,66.857,735.523,67.421,735.523,68.55z"/>
		<path fill="#FFFFFF" d="M743.744,63.677c0-0.038,0-1.072-0.057-1.731h2.672l0.075,1.431c0.264-0.434,1.016-1.656,3.086-1.656
			c1.862,0,2.652,1.129,2.896,1.787c0.207,0.584,0.264,1.073,0.264,2.841v5.137h-2.841v-5.907c0-0.396,0-0.734-0.15-1.035
			c-0.207-0.414-0.64-0.809-1.354-0.809c-0.603,0-1.147,0.282-1.449,0.733c-0.169,0.244-0.338,0.715-0.338,1.448v5.569h-2.804
			V63.677z"/>
		<path fill="#FFFFFF" d="M766.017,71.353c-0.902,0.245-1.712,0.301-2.163,0.301c-2.804,0-2.804-1.769-2.804-2.559v-5.211h-1.824
			V62.04h1.824v-1.863l2.766-1.016v2.879h2.258v1.844h-2.258v4.289c0.02,0.865,0.02,1.411,1.261,1.411
			c0.414,0,0.603-0.019,0.94-0.057V71.353z"/>
		<path fill="#FFFFFF" d="M767.748,64.317c0-0.452-0.075-1.825-0.132-2.371h2.615l0.057,1.825c0.357-0.809,0.979-1.957,3.236-1.844
			v2.502c-2.822-0.263-2.992,1.186-2.992,2.371v4.685h-2.784V64.317z"/>
		<path fill="#FFFFFF" d="M777.06,61.984v5.663c0,0.827,0,2.088,1.486,2.088c1.787,0,1.787-1.336,1.787-2.953v-4.798h2.86v6.265
			c0.037,2.051,0.056,2.296,0.056,2.54c0.02,0.264,0.038,0.433,0.075,0.696h-2.709l-0.094-1.261
			c-0.282,0.414-0.997,1.505-2.804,1.505c-1.279,0-2.333-0.583-2.859-1.279c-0.621-0.771-0.621-2.088-0.621-2.559v-5.907H777.06z"/>
		<path fill="#FFFFFF" d="M787.763,68.738c0.038,0.603,0.414,1.299,1.581,1.299c0.997,0,1.467-0.564,1.467-1.129
			c0-0.434-0.226-0.771-1.316-1.073l-1.731-0.47c-0.771-0.226-2.408-0.696-2.408-2.634c0-1.844,1.693-2.973,4.158-2.973
			c1.957,0,3.537,0.902,3.612,2.803h-2.54c-0.075-1.054-0.922-1.129-1.354-1.129c-0.753,0-1.317,0.357-1.317,0.941
			c0,0.64,0.471,0.771,1.299,0.997l1.712,0.47c1.73,0.471,2.54,1.354,2.54,2.653c0,1.637-1.411,3.273-4.365,3.273
			c-1.223,0-2.39-0.264-3.255-1.166c-0.62-0.659-0.677-1.411-0.696-1.863H787.763z"/>
		<path fill="#FFFFFF" d="M800.82,71.353c-0.903,0.245-1.712,0.301-2.164,0.301c-2.803,0-2.803-1.769-2.803-2.559v-5.211h-1.825
			V62.04h1.825v-1.863l2.766-1.016v2.879h2.258v1.844h-2.258v4.289c0.019,0.865,0.019,1.411,1.261,1.411
			c0.413,0,0.602-0.019,0.94-0.057V71.353z"/>
	</g>
	<g>
		<g>
			<path fill="#FFFFFF" d="M804.315,60.089h-0.018l-1.021,0.551l-0.153-0.605l1.282-0.686h0.678v5.871h-0.768V60.089z"/>
			<path fill="#FFFFFF" d="M807.223,65.22v-0.488l0.623-0.604c1.5-1.428,2.177-2.187,2.186-3.071c0-0.597-0.289-1.147-1.165-1.147
				c-0.532,0-0.976,0.271-1.246,0.497l-0.253-0.561c0.406-0.343,0.984-0.596,1.662-0.596c1.265,0,1.797,0.867,1.797,1.707
				c0,1.084-0.785,1.96-2.023,3.152l-0.469,0.434v0.019h2.637v0.659H807.223z"/>
			<path fill="#FFFFFF" d="M813.952,62.483v0.587h-2.23v-0.587H813.952z"/>
			<path fill="#FFFFFF" d="M816.354,60.089h-0.018l-1.021,0.551l-0.153-0.605l1.282-0.686h0.678v5.871h-0.769V60.089z"/>
			<path fill="#FFFFFF" d="M819.452,64.308c0.227,0.145,0.75,0.37,1.301,0.37c1.021,0,1.338-0.65,1.328-1.138
				c-0.009-0.822-0.75-1.175-1.518-1.175h-0.442v-0.597h0.442c0.578,0,1.311-0.298,1.311-0.993c0-0.47-0.299-0.886-1.03-0.886
				c-0.47,0-0.921,0.208-1.175,0.389l-0.207-0.578c0.307-0.226,0.903-0.451,1.535-0.451c1.156,0,1.681,0.687,1.681,1.4
				c0,0.604-0.361,1.119-1.084,1.382v0.018c0.723,0.145,1.31,0.687,1.31,1.509c0,0.939-0.731,1.762-2.141,1.762
				c-0.66,0-1.238-0.208-1.527-0.397L819.452,64.308z"/>
			<path fill="#FFFFFF" d="M826.462,59.339l-0.858,1.129v0.019l1.364-0.181v0.614l-1.364-0.163v0.019l0.867,1.084l-0.569,0.325
				l-0.542-1.265h-0.018l-0.587,1.273l-0.516-0.325l0.858-1.102v-0.019l-1.337,0.172v-0.614l1.328,0.172v-0.019l-0.85-1.102
				l0.551-0.316l0.561,1.256h0.018l0.552-1.265L826.462,59.339z"/>
		</g>
	</g>
</g>
</svg>
