<?xml version="1.0" encoding="utf-8"?>
<!-- Generator: Adobe Illustrator 17.0.0, SVG Export Plug-In . SVG Version: 6.00 Build 0)  -->
<!DOCTYPE svg PUBLIC "-//W3C//DTD SVG 1.1//EN" "http://www.w3.org/Graphics/SVG/1.1/DTD/svg11.dtd">
<svg version="1.1" id="Layer_1" xmlns="http://www.w3.org/2000/svg" xmlns:xlink="http://www.w3.org/1999/xlink" x="0px" y="0px"
	 width="448.35px" height="29.031px" viewBox="0 0 448.35 29.031" enable-background="new 0 0 448.35 29.031" xml:space="preserve">
<g>
	<g>
		<path fill="#231F20" d="M3.459,2.385l-1.48-0.164l0.878,1.188l-0.56,0.345l-0.576-1.36L1.102,3.735L0.516,3.417l0.912-1.196
			L0,2.341V1.713l1.453,0.189L0.576,0.697l0.568-0.31l0.576,1.334l0.594-1.343l0.576,0.318L1.987,1.902l1.472-0.163V2.385z"/>
		<path fill="#231F20" d="M7.878,4.769c0.017,0.43,0.069,1.23,1.497,1.23c1.291,0,1.455-0.801,1.455-1.11
			c0-0.697-0.56-0.835-1.429-1.05C8.455,3.606,8.033,3.503,7.715,3.288c-0.508-0.345-0.646-0.81-0.646-1.223
			c0-1.265,1.197-1.815,2.367-1.815c0.413,0,1.248,0.068,1.747,0.611c0.345,0.378,0.361,0.8,0.379,1.059h-0.896
			c-0.043-0.775-0.697-0.947-1.308-0.947c-0.86,0-1.377,0.388-1.377,1.007C7.981,2.53,8.343,2.72,9.1,2.9
			c1.48,0.379,1.645,0.413,2.006,0.654c0.576,0.379,0.619,0.981,0.619,1.239c0,1.102-0.86,1.937-2.453,1.937
			c-0.473,0-1.437-0.078-1.928-0.706C6.992,5.568,6.982,5.069,6.982,4.769H7.878z"/>
		<path fill="#231F20" d="M13.322,4.57c-0.018,0.895,0.354,1.558,1.24,1.558c0.524,0,0.945-0.275,1.015-0.896h0.81
			c-0.026,0.216-0.061,0.568-0.371,0.904c-0.188,0.215-0.619,0.576-1.488,0.576c-1.359,0-2.005-0.843-2.005-2.212
			c0-0.852,0.172-1.558,0.852-2.03c0.413-0.293,0.93-0.318,1.179-0.318c1.938,0,1.894,1.712,1.877,2.418H13.322z M15.604,4.002
			c0.008-0.413-0.069-1.273-1.067-1.273c-0.524,0-1.162,0.318-1.179,1.273H15.604z"/>
		<path fill="#231F20" d="M18.104,4.57c-0.018,0.895,0.353,1.558,1.239,1.558c0.525,0,0.946-0.275,1.016-0.896h0.809
			c-0.025,0.216-0.061,0.568-0.37,0.904c-0.189,0.215-0.62,0.576-1.489,0.576c-1.359,0-2.005-0.843-2.005-2.212
			c0-0.852,0.173-1.558,0.853-2.03c0.412-0.293,0.93-0.318,1.179-0.318c1.937,0,1.894,1.712,1.876,2.418H18.104z M20.385,4.002
			c0.009-0.413-0.068-1.273-1.066-1.273c-0.525,0-1.162,0.318-1.18,1.273H20.385z"/>
		<path fill="#231F20" d="M24.83,0.37h0.852v5.448h2.893v0.766H24.83V0.37z"/>
		<path fill="#231F20" d="M29.568,0.37h0.861v6.214h-0.861V0.37z"/>
		<path fill="#231F20" d="M31.96,0.37h2.083c0.757,0,1.273,0.043,1.695,0.499c0.31,0.319,0.456,0.74,0.456,1.205
			c0,0.474-0.155,0.878-0.491,1.214c-0.326,0.327-0.757,0.533-1.875,0.533H32.82v2.763h-0.86V0.37z M32.82,3.099h1.024
			c0.567,0,1.437-0.043,1.437-1.059c0-0.973-0.809-0.973-1.256-0.973H32.82V3.099z"/>
		<path fill="#231F20" d="M37.215,0.37h0.86v6.214h-0.86V0.37z"/>
		<path fill="#231F20" d="M41.111,6.584V1.102h-2.082V0.37h5.018v0.731h-2.083v5.482H41.111z"/>
		<path fill="#231F20" d="M45.068,1.042c0.645-0.697,1.497-0.835,2.074-0.835c1.721,0,2.805,1.102,2.805,3.21
			c0,1.652-0.662,3.313-2.874,3.313c-2.117,0-2.806-1.506-2.806-3.21C44.268,2.814,44.389,1.773,45.068,1.042z M45.722,5.431
			c0.353,0.439,0.887,0.568,1.377,0.568c0.508,0,1.016-0.138,1.377-0.568c0.508-0.619,0.56-1.601,0.56-2.022
			c0-1.411-0.465-2.479-1.885-2.479c-1.574,0-1.979,1.266-1.979,2.539C45.171,4.148,45.291,4.897,45.722,5.431z"/>
		<path fill="#231F20" d="M51.191,0.37h2.221c0.318,0,0.973,0,1.428,0.293c0.465,0.293,0.689,0.766,0.689,1.265
			c0,0.439-0.164,0.826-0.439,1.102c-0.267,0.268-0.542,0.354-0.731,0.405c0.594,0.154,0.86,0.421,0.946,1.196
			c0.086,0.731,0.146,1.265,0.388,1.953h-0.921c-0.138-0.413-0.224-1.17-0.284-1.644c-0.103-0.903-0.318-1.162-1.36-1.162h-1.084
			v2.806h-0.852V0.37z M52.025,3.047h1.36c0.095,0,0.585,0,0.817-0.138c0.121-0.068,0.422-0.293,0.422-0.809
			c0-1.007-0.895-1.007-1.239-1.007h-1.36V3.047z"/>
	</g>
	<g>
		<path fill="#231F20" d="M60.141,1.897c0,1.064-0.863,1.907-1.896,1.907c-1.025,0-1.898-0.843-1.898-1.907S57.229,0,58.244,0
			C59.287,0,60.141,0.843,60.141,1.897z M56.572,1.897c0,0.943,0.758,1.687,1.672,1.687c0.923,0,1.671-0.753,1.671-1.687
			c0-0.898-0.728-1.672-1.671-1.672C57.33,0.226,56.572,0.979,56.572,1.897z M57.551,0.863h0.723c0.15,0,0.693,0,0.693,0.512
			c0,0.061,0,0.382-0.382,0.492c0.211,0.051,0.28,0.141,0.312,0.392c0.029,0.251,0.05,0.441,0.12,0.643h-0.291
			c-0.04-0.131-0.061-0.211-0.101-0.532c-0.03-0.312-0.11-0.392-0.441-0.392h-0.352v0.924h-0.281V0.863z M57.832,1.736h0.441
			c0.141,0,0.402,0,0.402-0.311c0-0.321-0.252-0.321-0.402-0.321h-0.441V1.736z"/>
	</g>
	<g>
		<path fill="#231F20" d="M63.339,0.37h2.083c0.757,0,1.273,0.043,1.695,0.499c0.31,0.319,0.456,0.74,0.456,1.205
			c0,0.474-0.155,0.878-0.491,1.214c-0.326,0.327-0.757,0.533-1.875,0.533h-1.008v2.763h-0.86V0.37z M64.199,3.099h1.024
			c0.567,0,1.437-0.043,1.437-1.059c0-0.973-0.809-0.973-1.256-0.973h-1.205V3.099z"/>
		<path fill="#231F20" d="M68.465,3.142c0-0.293-0.018-0.594-0.043-0.878h0.817l0.018,0.835c0.155-0.603,0.671-0.801,1.032-0.853
			c0.241-0.034,0.422-0.025,0.56-0.017v0.792c-0.043-0.018-0.095-0.026-0.155-0.035c-0.06-0.008-0.137-0.008-0.232-0.008
			c-0.955,0-1.179,0.567-1.179,1.308v2.298h-0.817V3.142z"/>
		<path fill="#231F20" d="M73.644,2.152c1.729,0,2.117,1.359,2.117,2.263c0,1.266-0.714,2.315-2.187,2.315
			c-1.428,0-2.125-0.99-2.125-2.255C71.449,3.408,71.948,2.152,73.644,2.152z M73.592,6.128c0.611,0,1.309-0.438,1.309-1.738
			c0-1.076-0.5-1.644-1.257-1.644c-0.517,0-1.351,0.326-1.351,1.678C72.293,5.311,72.672,6.128,73.592,6.128z"/>
		<path fill="#231F20" d="M80.018,0.379h0.809v5.517c0,0.095,0.018,0.465,0.035,0.688h-0.81l-0.017-0.688
			c-0.069,0.12-0.164,0.301-0.388,0.456C79.295,6.593,78.873,6.67,78.58,6.67c-0.576,0-1.859-0.301-1.859-2.194
			c0-1.644,0.938-2.358,1.954-2.358c0.93,0,1.239,0.551,1.343,0.731V0.379z M79.717,3.159C79.544,2.936,79.226,2.72,78.77,2.72
			c-1.188,0-1.188,1.438-1.188,1.729c0,0.767,0.197,1.652,1.188,1.652c1.273,0,1.273-1.402,1.273-1.738
			C80.043,3.735,79.896,3.392,79.717,3.159z"/>
		<path fill="#231F20" d="M83.018,2.264v2.78c0,0.421,0.095,0.955,0.921,0.955c0.404,0,0.783-0.138,1.015-0.482
			c0.182-0.258,0.182-0.594,0.182-0.809V2.264h0.834v3.512c0,0.086,0.018,0.567,0.026,0.809h-0.843l-0.018-0.74
			c-0.155,0.302-0.447,0.783-1.377,0.783c-1.067,0-1.566-0.611-1.566-1.463v-2.9H83.018z"/>
		<path fill="#231F20" d="M89.994,3.649c-0.018-0.198-0.078-0.903-0.861-0.903c-1.118,0-1.118,1.299-1.118,1.626
			c0,0.887,0.216,1.713,1.075,1.713c0.689,0,0.922-0.517,0.938-0.938h0.817c-0.051,0.844-0.68,1.55-1.746,1.55
			c-0.293,0-0.965-0.061-1.42-0.56c-0.259-0.302-0.518-0.758-0.518-1.652c0-1.799,1.102-2.332,1.963-2.332
			c0.283,0,0.93,0.06,1.325,0.533c0.318,0.37,0.345,0.723,0.361,0.964H89.994z"/>
		<path fill="#231F20" d="M91.17,2.246h0.767V1.343l0.8-0.258v1.161h0.965v0.595h-0.965v2.59c0,0.215,0,0.577,0.577,0.577
			c0.163,0,0.318-0.026,0.388-0.043v0.628c-0.146,0.025-0.379,0.052-0.672,0.052c-0.74,0-1.093-0.216-1.093-0.921V2.841H91.17V2.246
			z"/>
		<path fill="#231F20" d="M97.088,0.37h1.799c0.834,0,1.815,0,2.504,0.81c0.551,0.646,0.766,1.497,0.766,2.35
			c0,1.342-0.559,2.168-1.032,2.547c-0.61,0.508-1.377,0.508-2.289,0.508h-1.747V0.37z M97.948,5.878h0.844
			c0.594,0,1.214-0.034,1.626-0.344c0.792-0.594,0.818-1.609,0.818-1.971c0-0.232-0.018-1.291-0.603-1.937
			c-0.396-0.438-0.896-0.542-1.652-0.542h-1.033V5.878z"/>
		<path fill="#231F20" d="M105.174,2.152c1.73,0,2.117,1.359,2.117,2.263c0,1.266-0.715,2.315-2.186,2.315
			c-1.429,0-2.126-0.99-2.126-2.255C102.979,3.408,103.479,2.152,105.174,2.152z M105.122,6.128c0.611,0,1.309-0.438,1.309-1.738
			c0-1.076-0.499-1.644-1.257-1.644c-0.516,0-1.352,0.326-1.352,1.678C103.822,5.311,104.201,6.128,105.122,6.128z"/>
		<path fill="#231F20" d="M111.014,3.649c-0.017-0.198-0.077-0.903-0.86-0.903c-1.118,0-1.118,1.299-1.118,1.626
			c0,0.887,0.215,1.713,1.075,1.713c0.688,0,0.921-0.517,0.938-0.938h0.817c-0.052,0.844-0.681,1.55-1.747,1.55
			c-0.293,0-0.964-0.061-1.42-0.56c-0.258-0.302-0.517-0.758-0.517-1.652c0-1.799,1.102-2.332,1.962-2.332
			c0.284,0,0.93,0.06,1.326,0.533c0.318,0.37,0.344,0.723,0.361,0.964H111.014z"/>
		<path fill="#231F20" d="M113.594,2.264v2.78c0,0.421,0.094,0.955,0.92,0.955c0.404,0,0.783-0.138,1.016-0.482
			c0.181-0.258,0.181-0.594,0.181-0.809V2.264h0.835v3.512c0,0.086,0.018,0.567,0.025,0.809h-0.843l-0.018-0.74
			c-0.155,0.302-0.447,0.783-1.377,0.783c-1.067,0-1.565-0.611-1.565-1.463v-2.9H113.594z"/>
		<path fill="#231F20" d="M118.1,2.841l-0.018-0.577h0.817v0.628c0.413-0.68,0.999-0.739,1.368-0.739
			c0.955,0,1.257,0.49,1.412,0.809c0.146-0.241,0.499-0.809,1.454-0.809c0.62,0,1.583,0.258,1.583,1.531v2.9H123.9V3.813
			c0-0.378-0.069-0.542-0.146-0.653c-0.139-0.198-0.414-0.379-0.826-0.379c-0.525,0-0.81,0.301-0.922,0.456
			c-0.189,0.267-0.189,0.74-0.189,0.93v2.418H121V3.727c0-0.533-0.311-0.946-0.947-0.946c-0.551,0-0.852,0.344-0.946,0.474
			c-0.181,0.249-0.189,0.602-0.189,0.877v2.453H118.1V2.841z"/>
		<path fill="#231F20" d="M126.718,4.57c-0.018,0.895,0.353,1.558,1.239,1.558c0.525,0,0.946-0.275,1.016-0.896h0.809
			c-0.025,0.216-0.061,0.568-0.37,0.904c-0.189,0.215-0.62,0.576-1.489,0.576c-1.359,0-2.005-0.843-2.005-2.212
			c0-0.852,0.173-1.558,0.853-2.03c0.412-0.293,0.93-0.318,1.179-0.318c1.937,0,1.894,1.712,1.876,2.418H126.718z M128.998,4.002
			c0.009-0.413-0.068-1.273-1.066-1.273c-0.525,0-1.162,0.318-1.18,1.273H128.998z"/>
		<path fill="#231F20" d="M131.035,2.763l-0.009-0.499h0.81l0.008,0.697c0.095-0.181,0.404-0.783,1.386-0.783
			c0.388,0,1.566,0.146,1.566,1.472v2.935h-0.826V3.839c0-0.284-0.034-0.542-0.232-0.74c-0.206-0.198-0.49-0.293-0.766-0.293
			c-0.585,0-1.128,0.422-1.128,1.291v2.487h-0.809V2.763z"/>
		<path fill="#231F20" d="M135.602,2.246h0.766V1.343l0.801-0.258v1.161h0.964v0.595h-0.964v2.59c0,0.215,0,0.577,0.576,0.577
			c0.164,0,0.318-0.026,0.388-0.043v0.628c-0.146,0.025-0.379,0.052-0.671,0.052c-0.74,0-1.094-0.216-1.094-0.921V2.841h-0.766
			V2.246z"/>
		<path fill="#231F20" d="M143.68,0.973c-0.138-0.009-0.311-0.017-0.474-0.017c-0.653,0-0.653,0.327-0.653,0.628v0.68h1.006v0.585
			h-1.006v3.735h-0.801V2.849H140.9V2.264h0.852v-0.49c0-0.594,0.034-0.81,0.181-1.033c0.181-0.275,0.524-0.473,1.085-0.473
			c0.232,0,0.49,0.034,0.662,0.06V0.973z"/>
		<path fill="#231F20" d="M146.26,2.152c1.729,0,2.117,1.359,2.117,2.263c0,1.266-0.715,2.315-2.187,2.315
			c-1.429,0-2.126-0.99-2.126-2.255C144.064,3.408,144.564,2.152,146.26,2.152z M146.208,6.128c0.61,0,1.308-0.438,1.308-1.738
			c0-1.076-0.499-1.644-1.256-1.644c-0.517,0-1.352,0.326-1.352,1.678C144.908,5.311,145.287,6.128,146.208,6.128z"/>
		<path fill="#231F20" d="M149.682,3.142c0-0.293-0.018-0.594-0.043-0.878h0.816l0.018,0.835c0.155-0.603,0.672-0.801,1.033-0.853
			c0.24-0.034,0.422-0.025,0.559-0.017v0.792c-0.043-0.018-0.094-0.026-0.154-0.035c-0.061-0.008-0.138-0.008-0.232-0.008
			c-0.955,0-1.179,0.567-1.179,1.308v2.298h-0.817V3.142z"/>
		<path fill="#231F20" d="M157.836,3.649c-0.017-0.198-0.077-0.903-0.86-0.903c-1.118,0-1.118,1.299-1.118,1.626
			c0,0.887,0.215,1.713,1.075,1.713c0.688,0,0.921-0.517,0.938-0.938h0.817c-0.052,0.844-0.681,1.55-1.747,1.55
			c-0.293,0-0.964-0.061-1.42-0.56c-0.258-0.302-0.517-0.758-0.517-1.652c0-1.799,1.102-2.332,1.962-2.332
			c0.284,0,0.93,0.06,1.326,0.533c0.318,0.37,0.344,0.723,0.361,0.964H157.836z"/>
		<path fill="#231F20" d="M161.551,2.152c1.73,0,2.117,1.359,2.117,2.263c0,1.266-0.714,2.315-2.186,2.315
			c-1.429,0-2.125-0.99-2.125-2.255C159.357,3.408,159.855,2.152,161.551,2.152z M161.5,6.128c0.611,0,1.308-0.438,1.308-1.738
			c0-1.076-0.499-1.644-1.257-1.644c-0.516,0-1.351,0.326-1.351,1.678C160.2,5.311,160.579,6.128,161.5,6.128z"/>
		<path fill="#231F20" d="M164.922,2.841l-0.018-0.577h0.818v0.628c0.413-0.68,0.998-0.739,1.368-0.739
			c0.955,0,1.257,0.49,1.411,0.809c0.146-0.241,0.5-0.809,1.455-0.809c0.619,0,1.583,0.258,1.583,1.531v2.9h-0.817V3.813
			c0-0.378-0.068-0.542-0.146-0.653c-0.138-0.198-0.413-0.379-0.826-0.379c-0.525,0-0.809,0.301-0.921,0.456
			c-0.189,0.267-0.189,0.74-0.189,0.93v2.418h-0.817V3.727c0-0.533-0.31-0.946-0.947-0.946c-0.551,0-0.852,0.344-0.946,0.474
			c-0.181,0.249-0.188,0.602-0.188,0.877v2.453h-0.818V2.841z"/>
		<path fill="#231F20" d="M173.023,2.97c0-0.189-0.009-0.293-0.025-0.706h0.817l0.017,0.715c0.404-0.681,1.119-0.783,1.473-0.783
			c0.929,0,1.815,0.637,1.815,2.237c0,1.609-0.938,2.314-1.971,2.314c-0.628,0-1.093-0.267-1.325-0.646v2.144h-0.801V2.97z
			 M175.012,6.153c0.206,0,0.637-0.043,0.912-0.421c0.31-0.422,0.353-1.042,0.353-1.352c0-0.774-0.232-1.584-1.188-1.584
			c-1.291,0-1.291,1.369-1.291,1.756C173.798,5.078,173.875,6.153,175.012,6.153z"/>
		<path fill="#231F20" d="M178.322,0.379h0.809v6.205h-0.809V0.379z"/>
		<path fill="#231F20" d="M181.187,4.57c-0.018,0.895,0.353,1.558,1.239,1.558c0.525,0,0.946-0.275,1.016-0.896h0.809
			c-0.025,0.216-0.061,0.568-0.37,0.904c-0.189,0.215-0.62,0.576-1.489,0.576c-1.359,0-2.005-0.843-2.005-2.212
			c0-0.852,0.173-1.558,0.853-2.03c0.412-0.293,0.93-0.318,1.179-0.318c1.937,0,1.894,1.712,1.876,2.418H181.187z M183.467,4.002
			c0.009-0.413-0.068-1.273-1.066-1.273c-0.525,0-1.162,0.318-1.18,1.273H183.467z"/>
		<path fill="#231F20" d="M184.814,2.246h0.767V1.343l0.8-0.258v1.161h0.965v0.595h-0.965v2.59c0,0.215,0,0.577,0.577,0.577
			c0.163,0,0.318-0.026,0.388-0.043v0.628c-0.146,0.025-0.379,0.052-0.672,0.052c-0.74,0-1.093-0.216-1.093-0.921V2.841h-0.767
			V2.246z"/>
		<path fill="#231F20" d="M188.832,4.57c-0.018,0.895,0.354,1.558,1.24,1.558c0.524,0,0.945-0.275,1.015-0.896h0.81
			c-0.026,0.216-0.061,0.568-0.371,0.904c-0.188,0.215-0.619,0.576-1.488,0.576c-1.359,0-2.005-0.843-2.005-2.212
			c0-0.852,0.172-1.558,0.852-2.03c0.413-0.293,0.93-0.318,1.179-0.318c1.938,0,1.894,1.712,1.877,2.418H188.832z M191.113,4.002
			c0.008-0.413-0.069-1.273-1.067-1.273c-0.524,0-1.162,0.318-1.179,1.273H191.113z"/>
		<path fill="#231F20" d="M195.979,5.302c-0.009,0.327,0.163,0.783,0.946,0.783c0.336,0,0.586-0.061,0.758-0.275
			c0.086-0.112,0.138-0.259,0.138-0.404c0-0.422-0.302-0.499-0.946-0.646c-0.904-0.207-1.662-0.388-1.662-1.291
			c0-0.792,0.689-1.309,1.688-1.309c0.542,0,1.299,0.155,1.558,0.672c0.112,0.24,0.112,0.447,0.112,0.628h-0.826
			c0.025-0.654-0.543-0.706-0.836-0.706c-0.12,0-0.877,0-0.877,0.62c0,0.396,0.387,0.49,0.611,0.551
			c1.195,0.284,1.454,0.353,1.712,0.594c0.241,0.224,0.327,0.525,0.327,0.801c0,0.481-0.267,0.895-0.585,1.093
			c-0.379,0.232-0.835,0.292-1.282,0.292c-0.878,0-1.695-0.361-1.688-1.402H195.979z"/>
		<path fill="#231F20" d="M202.448,6.584c-0.06-0.215-0.077-0.422-0.077-0.646c-0.388,0.714-0.973,0.783-1.334,0.783
			c-0.99,0-1.523-0.56-1.523-1.273c0-0.345,0.121-0.896,0.758-1.266c0.465-0.258,1.152-0.284,1.497-0.284
			c0.206,0,0.335,0.009,0.585,0.026c0-0.533,0-0.766-0.154-0.955c-0.164-0.216-0.517-0.284-0.749-0.284
			c-0.817,0-0.86,0.56-0.869,0.731h-0.81c0.026-0.224,0.053-0.525,0.302-0.817c0.327-0.361,0.938-0.465,1.394-0.465
			c0.629,0,1.3,0.198,1.532,0.637c0.138,0.258,0.146,0.465,0.146,0.663L203.111,5.5c0,0.068,0.008,0.646,0.068,1.084H202.448z
			 M201.889,4.458c-0.326,0-1.558,0-1.558,0.878c0,0.275,0.173,0.749,0.896,0.749c0.413,0,0.723-0.164,0.92-0.465
			c0.182-0.293,0.189-0.533,0.207-1.136C202.207,4.467,202.087,4.458,201.889,4.458z"/>
		<path fill="#231F20" d="M206.758,0.973c-0.139-0.009-0.311-0.017-0.474-0.017c-0.654,0-0.654,0.327-0.654,0.628v0.68h1.007v0.585
			h-1.007v3.735h-0.8V2.849h-0.853V2.264h0.853v-0.49c0-0.594,0.033-0.81,0.18-1.033c0.182-0.275,0.525-0.473,1.085-0.473
			c0.232,0,0.49,0.034,0.663,0.06V0.973z"/>
		<path fill="#231F20" d="M207.952,4.57c-0.018,0.895,0.353,1.558,1.239,1.558c0.525,0,0.946-0.275,1.016-0.896h0.809
			c-0.025,0.216-0.061,0.568-0.37,0.904c-0.189,0.215-0.62,0.576-1.489,0.576c-1.359,0-2.005-0.843-2.005-2.212
			c0-0.852,0.173-1.558,0.853-2.03c0.412-0.293,0.93-0.318,1.179-0.318c1.937,0,1.894,1.712,1.876,2.418H207.952z M210.232,4.002
			c0.009-0.413-0.068-1.273-1.066-1.273c-0.525,0-1.162,0.318-1.18,1.273H210.232z"/>
		<path fill="#231F20" d="M211.58,2.246h0.767V1.343l0.8-0.258v1.161h0.965v0.595h-0.965v2.59c0,0.215,0,0.577,0.577,0.577
			c0.163,0,0.318-0.026,0.388-0.043v0.628c-0.146,0.025-0.379,0.052-0.672,0.052c-0.74,0-1.093-0.216-1.093-0.921V2.841h-0.767
			V2.246z"/>
		<path fill="#231F20" d="M217.053,6.609l-0.62,1.609h-0.835l0.654-1.652l-1.799-4.303h0.912l1.352,3.408l1.377-3.408h0.878
			L217.053,6.609z"/>
		<path fill="#231F20" d="M222.203,0.388h0.973v0.887h-0.973V0.388z M222.289,2.264h0.809v4.32h-0.809V2.264z"/>
		<path fill="#231F20" d="M224.697,2.763l-0.009-0.499h0.81l0.008,0.697c0.095-0.181,0.404-0.783,1.386-0.783
			c0.388,0,1.566,0.146,1.566,1.472v2.935h-0.826V3.839c0-0.284-0.034-0.542-0.232-0.74c-0.206-0.198-0.49-0.293-0.766-0.293
			c-0.585,0-1.128,0.422-1.128,1.291v2.487h-0.809V2.763z"/>
		<path fill="#231F20" d="M232.086,0.973c-0.137-0.009-0.31-0.017-0.473-0.017c-0.654,0-0.654,0.327-0.654,0.628v0.68h1.007v0.585
			h-1.007v3.735h-0.801V2.849h-0.852V2.264h0.852v-0.49c0-0.594,0.035-0.81,0.182-1.033c0.18-0.275,0.524-0.473,1.084-0.473
			c0.232,0,0.49,0.034,0.662,0.06V0.973z"/>
		<path fill="#231F20" d="M234.666,2.152c1.73,0,2.117,1.359,2.117,2.263c0,1.266-0.714,2.315-2.186,2.315
			c-1.429,0-2.125-0.99-2.125-2.255C232.473,3.408,232.971,2.152,234.666,2.152z M234.615,6.128c0.611,0,1.308-0.438,1.308-1.738
			c0-1.076-0.499-1.644-1.257-1.644c-0.516,0-1.351,0.326-1.351,1.678C233.315,5.311,233.694,6.128,234.615,6.128z"/>
		<path fill="#231F20" d="M238.088,3.142c0-0.293-0.017-0.594-0.043-0.878h0.818l0.018,0.835c0.154-0.603,0.67-0.801,1.032-0.853
			c0.241-0.034,0.421-0.025,0.56-0.017v0.792c-0.043-0.018-0.096-0.026-0.155-0.035c-0.06-0.008-0.138-0.008-0.232-0.008
			c-0.955,0-1.179,0.567-1.179,1.308v2.298h-0.818V3.142z"/>
		<path fill="#231F20" d="M241.383,2.841l-0.018-0.577h0.817v0.628c0.413-0.68,0.999-0.739,1.368-0.739
			c0.955,0,1.257,0.49,1.412,0.809c0.146-0.241,0.499-0.809,1.454-0.809c0.62,0,1.583,0.258,1.583,1.531v2.9h-0.816V3.813
			c0-0.378-0.069-0.542-0.146-0.653c-0.139-0.198-0.414-0.379-0.826-0.379c-0.525,0-0.81,0.301-0.922,0.456
			c-0.189,0.267-0.189,0.74-0.189,0.93v2.418h-0.816V3.727c0-0.533-0.311-0.946-0.947-0.946c-0.551,0-0.852,0.344-0.946,0.474
			c-0.181,0.249-0.189,0.602-0.189,0.877v2.453h-0.817V2.841z"/>
		<path fill="#231F20" d="M252.144,6.584c-0.06-0.215-0.077-0.422-0.077-0.646c-0.388,0.714-0.973,0.783-1.334,0.783
			c-0.99,0-1.523-0.56-1.523-1.273c0-0.345,0.121-0.896,0.758-1.266c0.465-0.258,1.152-0.284,1.497-0.284
			c0.206,0,0.335,0.009,0.585,0.026c0-0.533,0-0.766-0.154-0.955c-0.164-0.216-0.517-0.284-0.749-0.284
			c-0.817,0-0.86,0.56-0.869,0.731h-0.81c0.026-0.224,0.053-0.525,0.302-0.817c0.327-0.361,0.938-0.465,1.394-0.465
			c0.629,0,1.3,0.198,1.532,0.637c0.138,0.258,0.146,0.465,0.146,0.663L252.807,5.5c0,0.068,0.008,0.646,0.068,1.084H252.144z
			 M251.584,4.458c-0.326,0-1.558,0-1.558,0.878c0,0.275,0.173,0.749,0.896,0.749c0.413,0,0.723-0.164,0.92-0.465
			c0.182-0.293,0.189-0.533,0.207-1.136C251.902,4.467,251.782,4.458,251.584,4.458z"/>
		<path fill="#231F20" d="M253.63,2.246h0.766V1.343l0.801-0.258v1.161h0.964v0.595h-0.964v2.59c0,0.215,0,0.577,0.576,0.577
			c0.163,0,0.319-0.026,0.388-0.043v0.628c-0.146,0.025-0.379,0.052-0.672,0.052c-0.74,0-1.093-0.216-1.093-0.921V2.841h-0.766
			V2.246z"/>
		<path fill="#231F20" d="M257.078,0.388h0.973v0.887h-0.973V0.388z M257.165,2.264h0.809v4.32h-0.809V2.264z"/>
		<path fill="#231F20" d="M261.424,2.152c1.729,0,2.117,1.359,2.117,2.263c0,1.266-0.715,2.315-2.187,2.315
			c-1.429,0-2.126-0.99-2.126-2.255C259.229,3.408,259.729,2.152,261.424,2.152z M261.372,6.128c0.61,0,1.308-0.438,1.308-1.738
			c0-1.076-0.499-1.644-1.256-1.644c-0.517,0-1.352,0.326-1.352,1.678C260.072,5.311,260.451,6.128,261.372,6.128z"/>
		<path fill="#231F20" d="M264.828,2.763l-0.009-0.499h0.81l0.008,0.697c0.095-0.181,0.404-0.783,1.386-0.783
			c0.388,0,1.566,0.146,1.566,1.472v2.935h-0.826V3.839c0-0.284-0.034-0.542-0.232-0.74c-0.206-0.198-0.49-0.293-0.766-0.293
			c-0.585,0-1.128,0.422-1.128,1.291v2.487h-0.809V2.763z"/>
		<path fill="#231F20" d="M269.997,5.551h0.955v1.033h-0.955V5.551z"/>
	</g>
	<g>
		<path fill="#231F20" d="M0.252,10.992h0.852v5.448h2.892v0.766H0.252V10.992z"/>
		<path fill="#231F20" d="M4.99,10.992h0.861v6.214H4.99V10.992z"/>
		<path fill="#231F20" d="M7.381,10.992h2.083c0.757,0,1.274,0.043,1.695,0.5c0.31,0.318,0.456,0.739,0.456,1.204
			c0,0.474-0.154,0.878-0.49,1.214c-0.327,0.327-0.758,0.533-1.876,0.533H8.242v2.763H7.381V10.992z M8.242,13.721h1.023
			c0.568,0,1.438-0.043,1.438-1.059c0-0.973-0.809-0.973-1.256-0.973H8.242V13.721z"/>
		<path fill="#231F20" d="M12.637,10.992h0.86v6.214h-0.86V10.992z"/>
		<path fill="#231F20" d="M16.533,17.206v-5.482h-2.082v-0.731h5.018v0.731h-2.083v5.482H16.533z"/>
		<path fill="#231F20" d="M20.489,11.664c0.646-0.697,1.497-0.835,2.074-0.835c1.722,0,2.806,1.102,2.806,3.21
			c0,1.652-0.663,3.313-2.875,3.313c-2.117,0-2.805-1.506-2.805-3.21C19.689,13.437,19.81,12.396,20.489,11.664z M21.144,16.053
			c0.353,0.439,0.886,0.568,1.377,0.568c0.507,0,1.015-0.138,1.377-0.568c0.507-0.619,0.56-1.601,0.56-2.022
			c0-1.411-0.465-2.479-1.885-2.479c-1.575,0-1.979,1.266-1.979,2.539C20.593,14.771,20.713,15.52,21.144,16.053z"/>
		<path fill="#231F20" d="M26.613,10.992h2.22c0.318,0,0.973,0,1.429,0.293c0.465,0.293,0.688,0.766,0.688,1.265
			c0,0.439-0.163,0.826-0.438,1.102c-0.268,0.268-0.543,0.354-0.732,0.405c0.594,0.154,0.861,0.421,0.947,1.196
			c0.086,0.731,0.146,1.265,0.387,1.953h-0.92c-0.139-0.413-0.225-1.171-0.285-1.644c-0.103-0.904-0.318-1.162-1.359-1.162h-1.084
			v2.806h-0.852V10.992z M27.447,13.669h1.359c0.096,0,0.586,0,0.818-0.138c0.12-0.068,0.422-0.293,0.422-0.809
			c0-1.007-0.896-1.007-1.24-1.007h-1.359V13.669z"/>
	</g>
	<g>
		<path fill="#231F20" d="M35.569,12.518c0,1.064-0.863,1.907-1.897,1.907c-1.024,0-1.898-0.843-1.898-1.907
			s0.885-1.897,1.898-1.897C34.716,10.62,35.569,11.463,35.569,12.518z M32,12.518c0,0.943,0.758,1.687,1.672,1.687
			c0.924,0,1.672-0.753,1.672-1.687c0-0.898-0.729-1.672-1.672-1.672C32.758,10.846,32,11.599,32,12.518z M32.979,11.483h0.723
			c0.151,0,0.693,0,0.693,0.512c0,0.061,0,0.382-0.381,0.492c0.211,0.051,0.28,0.141,0.311,0.392s0.051,0.441,0.121,0.643h-0.291
			c-0.041-0.131-0.061-0.211-0.102-0.532c-0.029-0.312-0.109-0.392-0.441-0.392H33.26v0.924h-0.281V11.483z M33.26,12.356h0.441
			c0.141,0,0.402,0,0.402-0.311c0-0.321-0.251-0.321-0.402-0.321H33.26V12.356z"/>
	</g>
	<g>
		<path fill="#231F20" d="M37.694,11.01h0.973v0.887h-0.973V11.01z M37.781,12.886h0.809v4.32h-0.809V12.886z"/>
		<path fill="#231F20" d="M40.628,15.924c-0.009,0.327,0.163,0.783,0.946,0.783c0.336,0,0.586-0.061,0.758-0.275
			c0.086-0.112,0.138-0.258,0.138-0.404c0-0.422-0.302-0.499-0.946-0.646c-0.904-0.207-1.662-0.388-1.662-1.291
			c0-0.792,0.689-1.309,1.688-1.309c0.542,0,1.299,0.155,1.558,0.672c0.112,0.241,0.112,0.447,0.112,0.628h-0.826
			c0.025-0.654-0.543-0.706-0.836-0.706c-0.12,0-0.877,0-0.877,0.62c0,0.396,0.387,0.49,0.611,0.551
			c1.195,0.284,1.454,0.353,1.712,0.594c0.241,0.224,0.327,0.525,0.327,0.801c0,0.481-0.267,0.895-0.585,1.093
			c-0.379,0.232-0.835,0.292-1.282,0.292c-0.878,0-1.695-0.361-1.688-1.402H40.628z"/>
		<path fill="#231F20" d="M49.488,17.206c-0.061-0.215-0.078-0.422-0.078-0.646c-0.387,0.715-0.973,0.783-1.334,0.783
			c-0.989,0-1.523-0.56-1.523-1.273c0-0.345,0.121-0.896,0.758-1.266c0.465-0.258,1.153-0.283,1.498-0.283
			c0.206,0,0.335,0.008,0.584,0.025c0-0.533,0-0.766-0.154-0.955c-0.164-0.216-0.516-0.284-0.748-0.284
			c-0.818,0-0.861,0.56-0.869,0.731h-0.81c0.026-0.224,0.052-0.525,0.302-0.817c0.326-0.361,0.938-0.465,1.394-0.465
			c0.628,0,1.3,0.198,1.532,0.637c0.137,0.258,0.146,0.465,0.146,0.663l-0.035,2.065c0,0.068,0.009,0.646,0.068,1.084H49.488z
			 M48.929,15.08c-0.327,0-1.558,0-1.558,0.878c0,0.275,0.172,0.749,0.895,0.749c0.413,0,0.723-0.164,0.921-0.465
			c0.181-0.293,0.189-0.533,0.206-1.136C49.247,15.089,49.127,15.08,48.929,15.08z"/>
		<path fill="#231F20" d="M50.982,12.886h0.904l1.377,3.425l1.342-3.425h0.896l-1.894,4.32H52.79L50.982,12.886z"/>
		<path fill="#231F20" d="M59.052,17.206c-0.06-0.215-0.077-0.422-0.077-0.646c-0.388,0.715-0.973,0.783-1.334,0.783
			c-0.99,0-1.523-0.56-1.523-1.273c0-0.345,0.121-0.896,0.758-1.266c0.465-0.258,1.152-0.283,1.497-0.283
			c0.206,0,0.335,0.008,0.585,0.025c0-0.533,0-0.766-0.154-0.955c-0.164-0.216-0.517-0.284-0.749-0.284
			c-0.817,0-0.86,0.56-0.869,0.731h-0.81c0.026-0.224,0.053-0.525,0.302-0.817c0.327-0.361,0.938-0.465,1.394-0.465
			c0.629,0,1.3,0.198,1.532,0.637c0.138,0.258,0.146,0.465,0.146,0.663l-0.034,2.065c0,0.068,0.008,0.646,0.068,1.084H59.052z
			 M58.492,15.08c-0.326,0-1.558,0-1.558,0.878c0,0.275,0.173,0.749,0.896,0.749c0.413,0,0.723-0.164,0.92-0.465
			c0.182-0.293,0.189-0.533,0.207-1.136C58.811,15.089,58.69,15.08,58.492,15.08z"/>
		<path fill="#231F20" d="M61.123,11.01h0.973v0.887h-0.973V11.01z M61.209,12.886h0.809v4.32h-0.809V12.886z"/>
		<path fill="#231F20" d="M63.609,11.001h0.809v6.205h-0.809V11.001z"/>
		<path fill="#231F20" d="M68.615,17.206c-0.06-0.215-0.076-0.422-0.076-0.646c-0.388,0.715-0.973,0.783-1.334,0.783
			c-0.99,0-1.523-0.56-1.523-1.273c0-0.345,0.12-0.896,0.757-1.266c0.465-0.258,1.153-0.283,1.497-0.283
			c0.207,0,0.336,0.008,0.586,0.025c0-0.533,0-0.766-0.155-0.955c-0.163-0.216-0.517-0.284-0.749-0.284
			c-0.817,0-0.86,0.56-0.869,0.731h-0.809c0.025-0.224,0.052-0.525,0.301-0.817c0.327-0.361,0.938-0.465,1.395-0.465
			c0.629,0,1.299,0.198,1.531,0.637c0.139,0.258,0.146,0.465,0.146,0.663l-0.034,2.065c0,0.068,0.009,0.646,0.069,1.084H68.615z
			 M68.057,15.08c-0.327,0-1.558,0-1.558,0.878c0,0.275,0.172,0.749,0.895,0.749c0.413,0,0.724-0.164,0.921-0.465
			c0.181-0.293,0.189-0.533,0.207-1.136C68.375,15.089,68.254,15.08,68.057,15.08z"/>
		<path fill="#231F20" d="M71.574,13.514c0.111-0.197,0.43-0.739,1.41-0.739c0.431,0,0.973,0.103,1.369,0.551
			c0.215,0.249,0.508,0.68,0.508,1.626c0,0.835-0.198,1.291-0.413,1.575c-0.345,0.49-0.921,0.74-1.515,0.74
			c-0.207,0-0.594-0.026-0.964-0.275c-0.241-0.164-0.336-0.311-0.422-0.439l-0.017,0.654h-0.783l0.017-0.774v-5.439h0.81V13.514z
			 M72.796,13.325c-1.239,0-1.239,1.445-1.239,1.721c0,0.284,0,1.635,1.205,1.635c0.998,0,1.248-0.972,1.248-1.678
			C74.01,14.572,73.923,13.325,72.796,13.325z"/>
		<path fill="#231F20" d="M76.037,11.001h0.809v6.205h-0.809V11.001z"/>
		<path fill="#231F20" d="M78.901,15.192c-0.018,0.895,0.353,1.558,1.239,1.558c0.525,0,0.946-0.275,1.016-0.896h0.809
			c-0.025,0.216-0.061,0.568-0.37,0.904c-0.189,0.215-0.62,0.576-1.489,0.576c-1.359,0-2.005-0.843-2.005-2.212
			c0-0.852,0.173-1.558,0.853-2.03c0.412-0.293,0.93-0.318,1.179-0.318c1.937,0,1.894,1.712,1.876,2.418H78.901z M81.182,14.624
			c0.009-0.413-0.068-1.273-1.066-1.273c-0.525,0-1.162,0.318-1.18,1.273H81.182z"/>
		<path fill="#231F20" d="M85.506,11.01h0.973v0.887h-0.973V11.01z M85.593,12.886h0.809v4.32h-0.809V12.886z"/>
		<path fill="#231F20" d="M88.001,13.385l-0.009-0.499h0.809l0.01,0.697c0.094-0.181,0.404-0.783,1.385-0.783
			c0.387,0,1.566,0.146,1.566,1.472v2.935h-0.826v-2.745c0-0.284-0.034-0.542-0.232-0.74c-0.207-0.198-0.49-0.293-0.766-0.293
			c-0.586,0-1.127,0.422-1.127,1.291v2.487h-0.81V13.385z"/>
		<path fill="#231F20" d="M98.616,11.001h0.809v5.517c0,0.095,0.018,0.465,0.034,0.688H98.65l-0.018-0.688
			c-0.068,0.12-0.163,0.301-0.387,0.456c-0.354,0.241-0.775,0.318-1.067,0.318c-0.577,0-1.858-0.301-1.858-2.194
			c0-1.644,0.938-2.358,1.953-2.358c0.93,0,1.239,0.551,1.343,0.731V11.001z M98.314,13.781c-0.172-0.225-0.49-0.439-0.946-0.439
			c-1.188,0-1.188,1.438-1.188,1.73c0,0.766,0.198,1.652,1.188,1.652c1.273,0,1.273-1.403,1.273-1.739
			C98.642,14.357,98.496,14.014,98.314,13.781z"/>
		<path fill="#231F20" d="M102.752,12.774c1.73,0,2.117,1.359,2.117,2.263c0,1.266-0.715,2.315-2.186,2.315
			c-1.429,0-2.126-0.99-2.126-2.255C100.558,14.03,101.057,12.774,102.752,12.774z M102.7,16.75c0.611,0,1.309-0.439,1.309-1.738
			c0-1.076-0.499-1.644-1.257-1.644c-0.516,0-1.352,0.327-1.352,1.678C101.4,15.933,101.779,16.75,102.7,16.75z"/>
		<path fill="#231F20" d="M106.596,15.924c-0.009,0.327,0.164,0.783,0.946,0.783c0.336,0,0.585-0.061,0.758-0.275
			c0.086-0.112,0.138-0.258,0.138-0.404c0-0.422-0.301-0.499-0.947-0.646c-0.903-0.207-1.66-0.388-1.66-1.291
			c0-0.792,0.688-1.309,1.687-1.309c0.542,0,1.3,0.155,1.558,0.672c0.111,0.241,0.111,0.447,0.111,0.628h-0.826
			c0.026-0.654-0.542-0.706-0.834-0.706c-0.121,0-0.878,0-0.878,0.62c0,0.396,0.388,0.49,0.61,0.551
			c1.197,0.284,1.455,0.353,1.713,0.594c0.241,0.224,0.327,0.525,0.327,0.801c0,0.481-0.267,0.895-0.585,1.093
			c-0.379,0.232-0.835,0.292-1.283,0.292c-0.877,0-1.695-0.361-1.686-1.402H106.596z"/>
		<path fill="#231F20" d="M110.922,15.192c-0.018,0.895,0.354,1.558,1.24,1.558c0.524,0,0.945-0.275,1.015-0.896h0.81
			c-0.026,0.216-0.061,0.568-0.371,0.904c-0.188,0.215-0.619,0.576-1.488,0.576c-1.359,0-2.005-0.843-2.005-2.212
			c0-0.852,0.172-1.558,0.852-2.03c0.413-0.293,0.93-0.318,1.179-0.318c1.938,0,1.894,1.712,1.877,2.418H110.922z M113.203,14.624
			c0.008-0.413-0.069-1.273-1.067-1.273c-0.524,0-1.162,0.318-1.179,1.273H113.203z"/>
		<path fill="#231F20" d="M117.647,13.764c0-0.293-0.017-0.594-0.043-0.878h0.817l0.018,0.835c0.154-0.603,0.671-0.801,1.033-0.852
			c0.24-0.035,0.421-0.026,0.559-0.018v0.792c-0.043-0.018-0.095-0.026-0.154-0.035c-0.061-0.008-0.139-0.008-0.232-0.008
			c-0.955,0-1.18,0.567-1.18,1.308v2.298h-0.817V13.764z"/>
		<path fill="#231F20" d="M123.584,17.206c-0.061-0.215-0.078-0.422-0.078-0.646c-0.387,0.715-0.973,0.783-1.334,0.783
			c-0.989,0-1.523-0.56-1.523-1.273c0-0.345,0.121-0.896,0.758-1.266c0.465-0.258,1.153-0.283,1.498-0.283
			c0.206,0,0.335,0.008,0.584,0.025c0-0.533,0-0.766-0.154-0.955c-0.164-0.216-0.516-0.284-0.748-0.284
			c-0.818,0-0.861,0.56-0.869,0.731h-0.81c0.026-0.224,0.052-0.525,0.302-0.817c0.326-0.361,0.938-0.465,1.394-0.465
			c0.628,0,1.3,0.198,1.532,0.637c0.137,0.258,0.146,0.465,0.146,0.663l-0.035,2.065c0,0.068,0.009,0.646,0.068,1.084H123.584z
			 M123.024,15.08c-0.327,0-1.558,0-1.558,0.878c0,0.275,0.172,0.749,0.895,0.749c0.413,0,0.723-0.164,0.921-0.465
			c0.181-0.293,0.189-0.533,0.206-1.136C123.343,15.089,123.223,15.08,123.024,15.08z"/>
		<path fill="#231F20" d="M125.758,13.385l-0.008-0.499h0.809l0.009,0.697c0.095-0.181,0.404-0.783,1.386-0.783
			c0.387,0,1.566,0.146,1.566,1.472v2.935h-0.826v-2.745c0-0.284-0.035-0.542-0.232-0.74c-0.207-0.198-0.491-0.293-0.767-0.293
			c-0.585,0-1.127,0.422-1.127,1.291v2.487h-0.81V13.385z"/>
		<path fill="#231F20" d="M131.762,17.542c0.035,0.481,0.241,0.843,1.007,0.843c1.128,0,1.145-0.817,1.145-1.987
			c-0.344,0.714-1.161,0.731-1.42,0.731c-0.396,0-0.964-0.086-1.325-0.534c-0.37-0.438-0.49-1.016-0.49-1.592
			c0-1.463,0.86-2.178,1.919-2.178c0.869,0,1.188,0.431,1.36,0.654l0.008-0.594h0.783l-0.018,0.783l-0.008,2.702
			c0,1.041-0.035,1.463-0.207,1.79c-0.361,0.688-1.205,0.774-1.799,0.774c-1.729,0-1.781-0.809-1.815-1.394H131.762z
			 M133.646,16.096c0.172-0.224,0.293-0.456,0.293-1.239c0-0.542-0.121-0.852-0.336-1.075c-0.215-0.232-0.56-0.379-0.93-0.379
			c-1.023,0-1.162,1.032-1.162,1.583c0,0.663,0.198,1.541,1.188,1.541C133.174,16.526,133.449,16.354,133.646,16.096z"/>
		<path fill="#231F20" d="M136.732,15.192c-0.018,0.895,0.354,1.558,1.24,1.558c0.524,0,0.945-0.275,1.015-0.896h0.81
			c-0.026,0.216-0.061,0.568-0.371,0.904c-0.188,0.215-0.619,0.576-1.488,0.576c-1.359,0-2.005-0.843-2.005-2.212
			c0-0.852,0.172-1.558,0.852-2.03c0.413-0.293,0.93-0.318,1.179-0.318c1.938,0,1.894,1.712,1.877,2.418H136.732z M139.014,14.624
			c0.008-0.413-0.069-1.273-1.067-1.273c-0.524,0-1.162,0.318-1.179,1.273H139.014z"/>
		<path fill="#231F20" d="M142.238,16.174l-0.965,2.116h-0.584l0.551-2.116H142.238z"/>
		<path fill="#231F20" d="M145.85,10.992h0.852v5.448h2.892v0.766h-3.743V10.992z"/>
		<path fill="#231F20" d="M150.588,10.992h0.861v6.214h-0.861V10.992z"/>
		<path fill="#231F20" d="M152.979,10.992h2.083c0.757,0,1.273,0.043,1.695,0.5c0.31,0.318,0.456,0.739,0.456,1.204
			c0,0.474-0.155,0.878-0.491,1.214c-0.326,0.327-0.757,0.533-1.875,0.533h-1.008v2.763h-0.86V10.992z M153.84,13.721h1.024
			c0.567,0,1.437-0.043,1.437-1.059c0-0.973-0.809-0.973-1.256-0.973h-1.205V13.721z"/>
		<path fill="#231F20" d="M158.234,10.992h0.86v6.214h-0.86V10.992z"/>
		<path fill="#231F20" d="M162.131,17.206v-5.482h-2.082v-0.731h5.018v0.731h-2.083v5.482H162.131z"/>
		<path fill="#231F20" d="M166.088,11.664c0.645-0.697,1.497-0.835,2.074-0.835c1.721,0,2.805,1.102,2.805,3.21
			c0,1.652-0.662,3.313-2.874,3.313c-2.117,0-2.806-1.506-2.806-3.21C165.287,13.437,165.408,12.396,166.088,11.664z
			 M166.741,16.053c0.353,0.439,0.887,0.568,1.377,0.568c0.508,0,1.016-0.138,1.377-0.568c0.508-0.619,0.56-1.601,0.56-2.022
			c0-1.411-0.465-2.479-1.885-2.479c-1.574,0-1.979,1.266-1.979,2.539C166.19,14.771,166.311,15.52,166.741,16.053z"/>
		<path fill="#231F20" d="M172.211,10.992h2.221c0.318,0,0.973,0,1.428,0.293c0.465,0.293,0.689,0.766,0.689,1.265
			c0,0.439-0.164,0.826-0.439,1.102c-0.267,0.268-0.542,0.354-0.731,0.405c0.594,0.154,0.86,0.421,0.946,1.196
			c0.086,0.731,0.146,1.265,0.388,1.953h-0.921c-0.138-0.413-0.224-1.171-0.284-1.644c-0.103-0.904-0.318-1.162-1.36-1.162h-1.084
			v2.806h-0.852V10.992z M173.045,13.669h1.36c0.095,0,0.585,0,0.817-0.138c0.121-0.068,0.422-0.293,0.422-0.809
			c0-1.007-0.895-1.007-1.239-1.007h-1.36V13.669z"/>
	</g>
	<g>
		<path fill="#231F20" d="M181.168,12.518c0,1.064-0.863,1.907-1.896,1.907c-1.025,0-1.898-0.843-1.898-1.907
			s0.884-1.897,1.898-1.897C180.314,10.62,181.168,11.463,181.168,12.518z M177.6,12.518c0,0.943,0.758,1.687,1.672,1.687
			c0.923,0,1.671-0.753,1.671-1.687c0-0.898-0.728-1.672-1.671-1.672C178.357,10.846,177.6,11.599,177.6,12.518z M178.578,11.483
			h0.723c0.15,0,0.693,0,0.693,0.512c0,0.061,0,0.382-0.382,0.492c0.211,0.051,0.28,0.141,0.312,0.392
			c0.029,0.251,0.05,0.441,0.12,0.643h-0.291c-0.04-0.131-0.061-0.211-0.101-0.532c-0.03-0.312-0.11-0.392-0.441-0.392h-0.352v0.924
			h-0.281V11.483z M178.859,12.356h0.441c0.141,0,0.402,0,0.402-0.311c0-0.321-0.252-0.321-0.402-0.321h-0.441V12.356z"/>
	</g>
	<g>
		<path fill="#231F20" d="M184.944,12.188c-0.37,0.311-0.964,0.663-1.386,0.861v-0.861c0.56-0.292,1.11-0.653,1.446-0.938h0.766
			v5.955h-0.826V12.188z"/>
		<path fill="#231F20" d="M189.297,11.13c1.781,0,1.996,1.911,1.996,3.029c0,1.412-0.283,2.203-0.826,2.711
			c-0.422,0.396-0.92,0.456-1.188,0.456c-0.791,0-1.334-0.465-1.592-0.989c-0.198-0.396-0.388-0.973-0.388-2.04
			C187.3,13.411,187.403,11.13,189.297,11.13z M189.288,16.612c0.998,0,1.171-1.309,1.171-2.375c0-1.429-0.25-2.419-1.154-2.419
			c-1.041,0-1.179,1.369-1.179,2.436C188.126,15.579,188.385,16.612,189.288,16.612z"/>
		<path fill="#231F20" d="M194.843,13.463l-0.017-0.577h0.817v0.628c0.413-0.68,0.998-0.739,1.368-0.739
			c0.955,0,1.256,0.49,1.411,0.809c0.146-0.241,0.499-0.809,1.454-0.809c0.62,0,1.584,0.258,1.584,1.531v2.9h-0.817v-2.771
			c0-0.378-0.069-0.542-0.146-0.653c-0.138-0.198-0.413-0.379-0.826-0.379c-0.524,0-0.81,0.301-0.921,0.456
			c-0.189,0.267-0.189,0.74-0.189,0.93v2.418h-0.817v-2.857c0-0.533-0.31-0.946-0.946-0.946c-0.551,0-0.853,0.344-0.947,0.474
			c-0.181,0.249-0.189,0.602-0.189,0.877v2.453h-0.817V13.463z"/>
		<path fill="#231F20" d="M203.745,17.542c0.034,0.481,0.241,0.843,1.007,0.843c1.127,0,1.145-0.817,1.145-1.987
			c-0.344,0.714-1.162,0.731-1.42,0.731c-0.396,0-0.964-0.086-1.325-0.534c-0.37-0.438-0.49-1.016-0.49-1.592
			c0-1.463,0.86-2.178,1.919-2.178c0.869,0,1.188,0.431,1.359,0.654l0.009-0.594h0.783l-0.017,0.783l-0.01,2.702
			c0,1.041-0.033,1.463-0.206,1.79c-0.361,0.688-1.204,0.774-1.798,0.774c-1.73,0-1.782-0.809-1.816-1.394H203.745z M205.63,16.096
			c0.173-0.224,0.292-0.456,0.292-1.239c0-0.542-0.119-0.852-0.335-1.075c-0.216-0.232-0.56-0.379-0.93-0.379
			c-1.024,0-1.161,1.032-1.161,1.583c0,0.663,0.197,1.541,1.188,1.541C205.156,16.526,205.432,16.354,205.63,16.096z"/>
		<path fill="#231F20" d="M209.439,16.174l-0.965,2.116h-0.584l0.551-2.116H209.439z"/>
		<path fill="#231F20" d="M212.707,16.423l1.557-1.532c0.328-0.318,0.654-0.662,0.922-1.023c0.344-0.474,0.438-0.74,0.438-1.059
			c0-0.293-0.104-0.973-0.955-0.973c-0.956,0-0.973,0.817-0.973,1.041h-0.903c0.008-0.292,0.034-0.86,0.551-1.308
			c0.412-0.353,0.912-0.431,1.291-0.431c0.912,0,1.842,0.465,1.842,1.738c0,0.379-0.026,0.672-0.672,1.489
			c-0.172,0.215-0.93,0.998-1.102,1.17l-1.041,0.99h2.831v0.68h-3.786V16.423z"/>
		<path fill="#231F20" d="M219.408,11.13c1.781,0,1.996,1.911,1.996,3.029c0,1.412-0.283,2.203-0.826,2.711
			c-0.422,0.396-0.92,0.456-1.188,0.456c-0.791,0-1.334-0.465-1.592-0.989c-0.198-0.396-0.388-0.973-0.388-2.04
			C217.411,13.411,217.515,11.13,219.408,11.13z M219.399,16.612c0.998,0,1.171-1.309,1.171-2.375c0-1.429-0.25-2.419-1.154-2.419
			c-1.041,0-1.179,1.369-1.179,2.436C218.237,15.579,218.496,16.612,219.399,16.612z"/>
		<path fill="#231F20" d="M224.954,13.463l-0.017-0.577h0.817v0.628c0.413-0.68,0.998-0.739,1.368-0.739
			c0.955,0,1.256,0.49,1.411,0.809c0.146-0.241,0.499-0.809,1.454-0.809c0.62,0,1.584,0.258,1.584,1.531v2.9h-0.817v-2.771
			c0-0.378-0.069-0.542-0.146-0.653c-0.138-0.198-0.413-0.379-0.826-0.379c-0.524,0-0.81,0.301-0.921,0.456
			c-0.189,0.267-0.189,0.74-0.189,0.93v2.418h-0.817v-2.857c0-0.533-0.31-0.946-0.946-0.946c-0.551,0-0.853,0.344-0.947,0.474
			c-0.181,0.249-0.189,0.602-0.189,0.877v2.453h-0.817V13.463z"/>
		<path fill="#231F20" d="M233.856,17.542c0.034,0.481,0.241,0.843,1.007,0.843c1.127,0,1.145-0.817,1.145-1.987
			c-0.344,0.714-1.162,0.731-1.42,0.731c-0.396,0-0.964-0.086-1.325-0.534c-0.37-0.438-0.49-1.016-0.49-1.592
			c0-1.463,0.86-2.178,1.919-2.178c0.869,0,1.188,0.431,1.359,0.654l0.009-0.594h0.783l-0.017,0.783l-0.01,2.702
			c0,1.041-0.033,1.463-0.206,1.79c-0.361,0.688-1.204,0.774-1.798,0.774c-1.73,0-1.782-0.809-1.816-1.394H233.856z M235.741,16.096
			c0.173-0.224,0.292-0.456,0.292-1.239c0-0.542-0.119-0.852-0.335-1.075c-0.216-0.232-0.56-0.379-0.93-0.379
			c-1.024,0-1.161,1.032-1.161,1.583c0,0.663,0.197,1.541,1.188,1.541C235.268,16.526,235.543,16.354,235.741,16.096z"/>
		<path fill="#231F20" d="M239.551,16.174l-0.965,2.116h-0.584l0.551-2.116H239.551z"/>
		<path fill="#231F20" d="M245.288,15.915h-2.686v-1.024l2.582-3.718h0.93v4.045h0.869v0.697h-0.869v1.291h-0.826V15.915z
			 M245.313,15.218v-3.141l-2.057,3.141H245.313z"/>
		<path fill="#231F20" d="M249.52,11.13c1.781,0,1.996,1.911,1.996,3.029c0,1.412-0.283,2.203-0.826,2.711
			c-0.422,0.396-0.92,0.456-1.188,0.456c-0.791,0-1.334-0.465-1.592-0.989c-0.198-0.396-0.388-0.973-0.388-2.04
			C247.522,13.411,247.626,11.13,249.52,11.13z M249.511,16.612c0.998,0,1.171-1.309,1.171-2.375c0-1.429-0.25-2.419-1.154-2.419
			c-1.041,0-1.179,1.369-1.179,2.436C248.349,15.579,248.607,16.612,249.511,16.612z"/>
		<path fill="#231F20" d="M255.065,13.463l-0.017-0.577h0.817v0.628c0.413-0.68,0.998-0.739,1.368-0.739
			c0.955,0,1.256,0.49,1.411,0.809c0.146-0.241,0.499-0.809,1.454-0.809c0.62,0,1.584,0.258,1.584,1.531v2.9h-0.817v-2.771
			c0-0.378-0.069-0.542-0.146-0.653c-0.138-0.198-0.413-0.379-0.826-0.379c-0.524,0-0.81,0.301-0.921,0.456
			c-0.189,0.267-0.189,0.74-0.189,0.93v2.418h-0.817v-2.857c0-0.533-0.31-0.946-0.946-0.946c-0.551,0-0.853,0.344-0.947,0.474
			c-0.181,0.249-0.189,0.602-0.189,0.877v2.453h-0.817V13.463z"/>
		<path fill="#231F20" d="M263.968,17.542c0.034,0.481,0.241,0.843,1.007,0.843c1.127,0,1.145-0.817,1.145-1.987
			c-0.344,0.714-1.162,0.731-1.42,0.731c-0.396,0-0.964-0.086-1.325-0.534c-0.37-0.438-0.49-1.016-0.49-1.592
			c0-1.463,0.86-2.178,1.919-2.178c0.869,0,1.188,0.431,1.359,0.654l0.009-0.594h0.783l-0.017,0.783l-0.01,2.702
			c0,1.041-0.033,1.463-0.206,1.79c-0.361,0.688-1.204,0.774-1.798,0.774c-1.73,0-1.782-0.809-1.816-1.394H263.968z M265.853,16.096
			c0.173-0.224,0.292-0.456,0.292-1.239c0-0.542-0.119-0.852-0.335-1.075c-0.216-0.232-0.56-0.379-0.93-0.379
			c-1.024,0-1.161,1.032-1.161,1.583c0,0.663,0.197,1.541,1.188,1.541C265.379,16.526,265.654,16.354,265.853,16.096z"/>
		<path fill="#231F20" d="M269.662,16.174l-0.965,2.116h-0.584l0.551-2.116H269.662z"/>
		<path fill="#231F20" d="M272.912,12.739c0-0.533,0.361-1.626,1.928-1.626c1.256,0,1.979,0.68,1.979,1.592
			c0,0.585-0.379,1.196-1.214,1.352c0.354,0.095,1.3,0.353,1.3,1.506c0,0.817-0.567,1.747-2.048,1.747
			c-0.508,0-1.11-0.104-1.541-0.499c-0.318-0.293-0.525-0.74-0.525-1.196c0-0.396,0.155-0.81,0.457-1.093
			c0.283-0.284,0.594-0.37,0.86-0.457C273.316,13.893,272.912,13.333,272.912,12.739z M274.857,16.63
			c0.955,0,1.188-0.672,1.188-1.119c0-0.663-0.49-1.093-1.171-1.093c-0.731,0-1.214,0.49-1.214,1.118
			C273.66,16.001,273.971,16.63,274.857,16.63z M274.874,11.75c-0.637,0-1.127,0.379-1.127,0.973c0,0.576,0.481,0.964,1.102,0.964
			c0.653,0,1.145-0.379,1.145-0.964C275.993,12.18,275.588,11.75,274.874,11.75z"/>
		<path fill="#231F20" d="M279.63,11.13c1.782,0,1.997,1.911,1.997,3.029c0,1.412-0.284,2.203-0.826,2.711
			c-0.422,0.396-0.921,0.456-1.188,0.456c-0.792,0-1.334-0.465-1.592-0.989c-0.199-0.396-0.388-0.973-0.388-2.04
			C277.634,13.411,277.736,11.13,279.63,11.13z M279.621,16.612c0.998,0,1.171-1.309,1.171-2.375c0-1.429-0.249-2.419-1.153-2.419
			c-1.041,0-1.179,1.369-1.179,2.436C278.46,15.579,278.718,16.612,279.621,16.612z"/>
		<path fill="#231F20" d="M285.177,13.463l-0.017-0.577h0.817v0.628c0.413-0.68,0.998-0.739,1.368-0.739
			c0.955,0,1.256,0.49,1.411,0.809c0.146-0.241,0.499-0.809,1.454-0.809c0.62,0,1.584,0.258,1.584,1.531v2.9h-0.817v-2.771
			c0-0.378-0.069-0.542-0.146-0.653c-0.138-0.198-0.413-0.379-0.826-0.379c-0.524,0-0.81,0.301-0.921,0.456
			c-0.189,0.267-0.189,0.74-0.189,0.93v2.418h-0.817v-2.857c0-0.533-0.31-0.946-0.946-0.946c-0.551,0-0.853,0.344-0.947,0.474
			c-0.181,0.249-0.189,0.602-0.189,0.877v2.453h-0.817V13.463z"/>
		<path fill="#231F20" d="M294.079,17.542c0.034,0.481,0.241,0.843,1.007,0.843c1.127,0,1.145-0.817,1.145-1.987
			c-0.344,0.714-1.162,0.731-1.42,0.731c-0.396,0-0.964-0.086-1.325-0.534c-0.37-0.438-0.49-1.016-0.49-1.592
			c0-1.463,0.86-2.178,1.919-2.178c0.869,0,1.188,0.431,1.359,0.654l0.009-0.594h0.783l-0.017,0.783l-0.01,2.702
			c0,1.041-0.033,1.463-0.206,1.79c-0.361,0.688-1.204,0.774-1.798,0.774c-1.73,0-1.782-0.809-1.816-1.394H294.079z M295.964,16.096
			c0.173-0.224,0.292-0.456,0.292-1.239c0-0.542-0.119-0.852-0.335-1.075c-0.216-0.232-0.56-0.379-0.93-0.379
			c-1.024,0-1.161,1.032-1.161,1.583c0,0.663,0.197,1.541,1.188,1.541C295.49,16.526,295.766,16.354,295.964,16.096z"/>
		<path fill="#231F20" d="M301.846,18.265c-0.465-1.145-1.023-2.573-1.023-3.83c0-0.68,0.154-1.351,0.352-2.005
			c0.242-0.774,0.465-1.325,0.611-1.695h0.568c-0.138,0.422-0.327,1.007-0.508,1.824c-0.181,0.792-0.241,1.325-0.241,1.859
			c0,1.222,0.302,2.212,0.801,3.847H301.846z"/>
		<path fill="#231F20" d="M304.434,15.391c0.018,0.43,0.069,1.23,1.498,1.23c1.291,0,1.454-0.801,1.454-1.11
			c0-0.697-0.56-0.835-1.429-1.05c-0.946-0.232-1.368-0.336-1.687-0.551c-0.508-0.345-0.646-0.81-0.646-1.223
			c0-1.265,1.196-1.815,2.367-1.815c0.412,0,1.248,0.069,1.746,0.611c0.345,0.378,0.361,0.8,0.379,1.059h-0.895
			c-0.043-0.774-0.697-0.947-1.309-0.947c-0.86,0-1.377,0.388-1.377,1.007c0,0.551,0.361,0.74,1.119,0.921
			c1.48,0.379,1.644,0.413,2.005,0.654c0.577,0.379,0.62,0.981,0.62,1.239c0,1.102-0.861,1.937-2.453,1.937
			c-0.473,0-1.438-0.077-1.928-0.706c-0.353-0.456-0.361-0.955-0.361-1.256H304.434z"/>
		<path fill="#231F20" d="M308.889,12.869h0.766v-0.904l0.801-0.258v1.162h0.964v0.594h-0.964v2.59c0,0.215,0,0.577,0.576,0.577
			c0.164,0,0.318-0.026,0.388-0.044v0.629c-0.146,0.025-0.379,0.052-0.671,0.052c-0.74,0-1.094-0.216-1.094-0.921v-2.883h-0.766
			V12.869z"/>
		<path fill="#231F20" d="M315.049,17.206c-0.061-0.215-0.077-0.422-0.077-0.646c-0.388,0.715-0.973,0.783-1.334,0.783
			c-0.989,0-1.523-0.56-1.523-1.273c0-0.345,0.12-0.896,0.757-1.266c0.465-0.258,1.154-0.283,1.498-0.283
			c0.207,0,0.336,0.008,0.585,0.025c0-0.533,0-0.766-0.155-0.955c-0.163-0.216-0.516-0.284-0.748-0.284
			c-0.818,0-0.861,0.56-0.869,0.731h-0.809c0.025-0.224,0.051-0.525,0.301-0.817c0.327-0.361,0.938-0.465,1.395-0.465
			c0.628,0,1.299,0.198,1.531,0.637c0.138,0.258,0.146,0.465,0.146,0.663l-0.035,2.065c0,0.068,0.01,0.646,0.069,1.084H315.049z
			 M314.49,15.08c-0.328,0-1.559,0-1.559,0.878c0,0.275,0.172,0.749,0.896,0.749c0.413,0,0.723-0.164,0.921-0.465
			c0.181-0.293,0.189-0.533,0.206-1.136C314.809,15.089,314.688,15.08,314.49,15.08z"/>
		<path fill="#231F20" d="M317.24,13.764c0-0.293-0.018-0.594-0.043-0.878h0.817l0.018,0.835c0.155-0.603,0.671-0.801,1.032-0.852
			c0.241-0.035,0.422-0.026,0.56-0.018v0.792c-0.043-0.018-0.095-0.026-0.155-0.035c-0.06-0.008-0.137-0.008-0.232-0.008
			c-0.955,0-1.179,0.567-1.179,1.308v2.298h-0.817V13.764z"/>
		<path fill="#231F20" d="M319.674,12.869h0.766v-0.904l0.801-0.258v1.162h0.964v0.594h-0.964v2.59c0,0.215,0,0.577,0.576,0.577
			c0.164,0,0.318-0.026,0.388-0.044v0.629c-0.146,0.025-0.379,0.052-0.671,0.052c-0.74,0-1.094-0.216-1.094-0.921v-2.883h-0.766
			V12.869z"/>
		<path fill="#231F20" d="M323.123,11.01h0.973v0.887h-0.973V11.01z M323.209,12.886h0.809v4.32h-0.809V12.886z"/>
		<path fill="#231F20" d="M325.617,13.385l-0.008-0.499h0.809l0.009,0.697c0.095-0.181,0.404-0.783,1.386-0.783
			c0.387,0,1.566,0.146,1.566,1.472v2.935h-0.826v-2.745c0-0.284-0.035-0.542-0.232-0.74c-0.207-0.198-0.491-0.293-0.767-0.293
			c-0.585,0-1.127,0.422-1.127,1.291v2.487h-0.81V13.385z"/>
		<path fill="#231F20" d="M331.621,17.542c0.035,0.481,0.241,0.843,1.007,0.843c1.128,0,1.145-0.817,1.145-1.987
			c-0.344,0.714-1.161,0.731-1.42,0.731c-0.396,0-0.964-0.086-1.325-0.534c-0.37-0.438-0.49-1.016-0.49-1.592
			c0-1.463,0.86-2.178,1.919-2.178c0.869,0,1.188,0.431,1.36,0.654l0.008-0.594h0.783l-0.018,0.783l-0.008,2.702
			c0,1.041-0.035,1.463-0.207,1.79c-0.361,0.688-1.205,0.774-1.799,0.774c-1.729,0-1.781-0.809-1.815-1.394H331.621z
			 M333.506,16.096c0.172-0.224,0.293-0.456,0.293-1.239c0-0.542-0.121-0.852-0.336-1.075c-0.215-0.232-0.56-0.379-0.93-0.379
			c-1.023,0-1.162,1.032-1.162,1.583c0,0.663,0.198,1.541,1.188,1.541C333.033,16.526,333.309,16.354,333.506,16.096z"/>
		<path fill="#231F20" d="M338.492,10.992h1.799c0.835,0,1.816,0,2.505,0.81c0.551,0.646,0.766,1.497,0.766,2.35
			c0,1.342-0.56,2.168-1.032,2.547c-0.611,0.508-1.377,0.508-2.289,0.508h-1.748V10.992z M339.354,16.5h0.844
			c0.594,0,1.213-0.034,1.626-0.344c0.792-0.594,0.817-1.609,0.817-1.971c0-0.232-0.018-1.291-0.603-1.937
			c-0.396-0.438-0.895-0.542-1.652-0.542h-1.032V16.5z"/>
		<path fill="#231F20" d="M346.578,12.774c1.73,0,2.117,1.359,2.117,2.263c0,1.266-0.714,2.315-2.186,2.315
			c-1.429,0-2.125-0.99-2.125-2.255C344.385,14.03,344.883,12.774,346.578,12.774z M346.527,16.75c0.611,0,1.308-0.439,1.308-1.738
			c0-1.076-0.499-1.644-1.257-1.644c-0.516,0-1.351,0.327-1.351,1.678C345.228,15.933,345.606,16.75,346.527,16.75z"/>
		<path fill="#231F20" d="M350.422,15.924c-0.008,0.327,0.164,0.783,0.947,0.783c0.336,0,0.585-0.061,0.757-0.275
			c0.087-0.112,0.138-0.258,0.138-0.404c0-0.422-0.301-0.499-0.946-0.646c-0.903-0.207-1.661-0.388-1.661-1.291
			c0-0.792,0.688-1.309,1.688-1.309c0.541,0,1.299,0.155,1.557,0.672c0.112,0.241,0.112,0.447,0.112,0.628h-0.826
			c0.026-0.654-0.542-0.706-0.835-0.706c-0.12,0-0.878,0-0.878,0.62c0,0.396,0.388,0.49,0.611,0.551
			c1.196,0.284,1.454,0.353,1.712,0.594c0.242,0.224,0.328,0.525,0.328,0.801c0,0.481-0.268,0.895-0.586,1.093
			c-0.379,0.232-0.834,0.292-1.282,0.292c-0.878,0-1.695-0.361-1.687-1.402H350.422z"/>
		<path fill="#231F20" d="M354.748,15.192c-0.018,0.895,0.354,1.558,1.24,1.558c0.524,0,0.945-0.275,1.015-0.896h0.81
			c-0.026,0.216-0.061,0.568-0.371,0.904c-0.188,0.215-0.619,0.576-1.488,0.576c-1.359,0-2.005-0.843-2.005-2.212
			c0-0.852,0.172-1.558,0.852-2.03c0.413-0.293,0.93-0.318,1.179-0.318c1.938,0,1.894,1.712,1.877,2.418H354.748z M357.029,14.624
			c0.008-0.413-0.069-1.273-1.067-1.273c-0.524,0-1.162,0.318-1.179,1.273H357.029z"/>
		<path fill="#231F20" d="M363.307,12.774c1.73,0,2.117,1.359,2.117,2.263c0,1.266-0.714,2.315-2.186,2.315
			c-1.429,0-2.125-0.99-2.125-2.255C361.113,14.03,361.611,12.774,363.307,12.774z M363.256,16.75c0.611,0,1.308-0.439,1.308-1.738
			c0-1.076-0.499-1.644-1.257-1.644c-0.516,0-1.351,0.327-1.351,1.678C361.956,15.933,362.335,16.75,363.256,16.75z"/>
		<path fill="#231F20" d="M368.846,11.595c-0.137-0.009-0.31-0.017-0.473-0.017c-0.654,0-0.654,0.326-0.654,0.628v0.68h1.007v0.585
			h-1.007v3.735h-0.801v-3.735h-0.852v-0.585h0.852v-0.49c0-0.594,0.035-0.81,0.182-1.033c0.18-0.275,0.524-0.473,1.084-0.473
			c0.232,0,0.49,0.034,0.662,0.06V11.595z"/>
		<path fill="#231F20" d="M371.984,10.992h0.852v5.448h2.892v0.766h-3.743V10.992z"/>
		<path fill="#231F20" d="M376.723,10.992h0.861v6.214h-0.861V10.992z"/>
		<path fill="#231F20" d="M379.114,10.992h2.083c0.757,0,1.273,0.043,1.695,0.5c0.31,0.318,0.456,0.739,0.456,1.204
			c0,0.474-0.155,0.878-0.491,1.214c-0.326,0.327-0.757,0.533-1.875,0.533h-1.008v2.763h-0.86V10.992z M379.975,13.721h1.024
			c0.567,0,1.437-0.043,1.437-1.059c0-0.973-0.809-0.973-1.256-0.973h-1.205V13.721z"/>
		<path fill="#231F20" d="M384.369,10.992h0.86v6.214h-0.86V10.992z"/>
		<path fill="#231F20" d="M388.266,17.206v-5.482h-2.082v-0.731h5.018v0.731h-2.083v5.482H388.266z"/>
		<path fill="#231F20" d="M392.223,11.664c0.645-0.697,1.497-0.835,2.074-0.835c1.721,0,2.805,1.102,2.805,3.21
			c0,1.652-0.662,3.313-2.874,3.313c-2.117,0-2.806-1.506-2.806-3.21C391.422,13.437,391.543,12.396,392.223,11.664z
			 M392.876,16.053c0.353,0.439,0.887,0.568,1.377,0.568c0.508,0,1.016-0.138,1.377-0.568c0.508-0.619,0.56-1.601,0.56-2.022
			c0-1.411-0.465-2.479-1.885-2.479c-1.574,0-1.979,1.266-1.979,2.539C392.325,14.771,392.445,15.52,392.876,16.053z"/>
		<path fill="#231F20" d="M398.346,10.992h2.221c0.318,0,0.973,0,1.428,0.293c0.465,0.293,0.689,0.766,0.689,1.265
			c0,0.439-0.164,0.826-0.439,1.102c-0.267,0.268-0.542,0.354-0.731,0.405c0.594,0.154,0.86,0.421,0.946,1.196
			c0.086,0.731,0.146,1.265,0.388,1.953h-0.921c-0.138-0.413-0.224-1.171-0.284-1.644c-0.103-0.904-0.318-1.162-1.36-1.162h-1.084
			v2.806h-0.852V10.992z M399.18,13.669h1.36c0.095,0,0.585,0,0.817-0.138c0.121-0.068,0.422-0.293,0.422-0.809
			c0-1.007-0.895-1.007-1.239-1.007h-1.36V13.669z"/>
	</g>
	<g>
		<path fill="#231F20" d="M410.73,12.518c0,1.064-0.863,1.907-1.897,1.907c-1.024,0-1.897-0.843-1.897-1.907
			s0.883-1.897,1.897-1.897C409.877,10.62,410.73,11.463,410.73,12.518z M407.161,12.518c0,0.943,0.758,1.687,1.672,1.687
			c0.923,0,1.671-0.753,1.671-1.687c0-0.898-0.728-1.672-1.671-1.672C407.919,10.846,407.161,11.599,407.161,12.518z
			 M408.141,11.483h0.723c0.15,0,0.692,0,0.692,0.512c0,0.061,0,0.382-0.382,0.492c0.211,0.051,0.281,0.141,0.312,0.392
			s0.05,0.441,0.12,0.643h-0.291c-0.04-0.131-0.061-0.211-0.1-0.532c-0.031-0.312-0.111-0.392-0.442-0.392h-0.351v0.924h-0.281
			V11.483z M408.422,12.356h0.441c0.141,0,0.401,0,0.401-0.311c0-0.321-0.251-0.321-0.401-0.321h-0.441V12.356z"/>
	</g>
	<g>
		<path fill="#231F20" d="M412.854,11.01h0.973v0.887h-0.973V11.01z M412.939,12.886h0.809v4.32h-0.809V12.886z"/>
		<path fill="#231F20" d="M415.787,15.924c-0.009,0.327,0.164,0.783,0.946,0.783c0.336,0,0.585-0.061,0.758-0.275
			c0.086-0.112,0.138-0.258,0.138-0.404c0-0.422-0.301-0.499-0.947-0.646c-0.903-0.207-1.66-0.388-1.66-1.291
			c0-0.792,0.688-1.309,1.687-1.309c0.542,0,1.3,0.155,1.558,0.672c0.111,0.241,0.111,0.447,0.111,0.628h-0.826
			c0.026-0.654-0.542-0.706-0.834-0.706c-0.121,0-0.878,0-0.878,0.62c0,0.396,0.388,0.49,0.61,0.551
			c1.197,0.284,1.455,0.353,1.713,0.594c0.241,0.224,0.327,0.525,0.327,0.801c0,0.481-0.267,0.895-0.585,1.093
			c-0.379,0.232-0.835,0.292-1.283,0.292c-0.877,0-1.695-0.361-1.686-1.402H415.787z"/>
		<path fill="#231F20" d="M423.588,12.188c-0.369,0.311-0.963,0.663-1.385,0.861v-0.861c0.559-0.292,1.109-0.653,1.445-0.938h0.766
			v5.955h-0.826V12.188z"/>
		<path fill="#231F20" d="M427.94,11.13c1.782,0,1.997,1.911,1.997,3.029c0,1.412-0.284,2.203-0.826,2.711
			c-0.422,0.396-0.921,0.456-1.188,0.456c-0.792,0-1.334-0.465-1.592-0.989c-0.199-0.396-0.388-0.973-0.388-2.04
			C425.944,13.411,426.047,11.13,427.94,11.13z M427.932,16.612c0.998,0,1.171-1.309,1.171-2.375c0-1.429-0.249-2.419-1.153-2.419
			c-1.041,0-1.179,1.369-1.179,2.436C426.771,15.579,427.028,16.612,427.932,16.612z"/>
		<path fill="#231F20" d="M433.486,13.463l-0.017-0.577h0.817v0.628c0.413-0.68,0.998-0.739,1.369-0.739
			c0.955,0,1.256,0.49,1.41,0.809c0.146-0.241,0.5-0.809,1.455-0.809c0.619,0,1.584,0.258,1.584,1.531v2.9h-0.818v-2.771
			c0-0.378-0.068-0.542-0.146-0.653c-0.137-0.198-0.412-0.379-0.826-0.379c-0.524,0-0.809,0.301-0.92,0.456
			c-0.189,0.267-0.189,0.74-0.189,0.93v2.418h-0.818v-2.857c0-0.533-0.31-0.946-0.946-0.946c-0.551,0-0.853,0.344-0.946,0.474
			c-0.182,0.249-0.189,0.602-0.189,0.877v2.453h-0.818V13.463z"/>
		<path fill="#231F20" d="M442.389,17.542c0.035,0.481,0.242,0.843,1.008,0.843c1.127,0,1.145-0.817,1.145-1.987
			c-0.345,0.714-1.162,0.731-1.42,0.731c-0.396,0-0.965-0.086-1.326-0.534c-0.369-0.438-0.49-1.016-0.49-1.592
			c0-1.463,0.861-2.178,1.92-2.178c0.869,0,1.188,0.431,1.359,0.654l0.008-0.594h0.783l-0.017,0.783l-0.009,2.702
			c0,1.041-0.034,1.463-0.207,1.79c-0.361,0.688-1.204,0.774-1.798,0.774c-1.729,0-1.782-0.809-1.815-1.394H442.389z
			 M444.273,16.096c0.173-0.224,0.293-0.456,0.293-1.239c0-0.542-0.12-0.852-0.336-1.075c-0.215-0.232-0.559-0.379-0.929-0.379
			c-1.024,0-1.162,1.032-1.162,1.583c0,0.663,0.198,1.541,1.188,1.541C443.801,16.526,444.076,16.354,444.273,16.096z"/>
		<path fill="#231F20" d="M447.326,10.734c0.465,1.145,1.023,2.564,1.023,3.821c0,0.68-0.154,1.351-0.353,2.005
			c-0.241,0.774-0.465,1.334-0.611,1.704h-0.567c0.137-0.431,0.326-1.016,0.508-1.833c0.18-0.783,0.24-1.325,0.24-1.859
			c0-1.213-0.301-2.203-0.8-3.838H447.326z"/>
	</g>
	<g>
		<path fill="#231F20" d="M0.269,21.088h1.196l3.055,5.138v-5.138h0.793v6.214H4.211l-3.159-5.275v5.275H0.269V21.088z"/>
		<path fill="#231F20" d="M8.775,22.87c1.73,0,2.117,1.359,2.117,2.263c0,1.266-0.714,2.315-2.186,2.315
			c-1.429,0-2.125-0.99-2.125-2.255C6.582,24.126,7.08,22.87,8.775,22.87z M8.725,26.846c0.611,0,1.308-0.439,1.308-1.738
			c0-1.076-0.499-1.644-1.257-1.644c-0.516,0-1.351,0.327-1.351,1.678C7.425,26.028,7.804,26.846,8.725,26.846z"/>
		<path fill="#231F20" d="M11.492,22.965h0.766v-0.904l0.801-0.258v1.162h0.964v0.594h-0.964v2.59c0,0.215,0,0.577,0.576,0.577
			c0.164,0,0.318-0.026,0.388-0.044v0.629c-0.146,0.025-0.379,0.052-0.671,0.052c-0.74,0-1.094-0.216-1.094-0.921v-2.883h-0.766
			V22.965z"/>
		<path fill="#231F20" d="M20.043,27.302c-0.06-0.215-0.076-0.422-0.076-0.646c-0.388,0.715-0.973,0.783-1.334,0.783
			c-0.99,0-1.523-0.56-1.523-1.273c0-0.345,0.12-0.896,0.757-1.266c0.465-0.258,1.153-0.283,1.497-0.283
			c0.207,0,0.336,0.008,0.586,0.025c0-0.533,0-0.766-0.155-0.955c-0.163-0.216-0.517-0.284-0.749-0.284
			c-0.817,0-0.86,0.56-0.869,0.731h-0.809c0.025-0.224,0.052-0.525,0.301-0.817c0.327-0.361,0.938-0.465,1.395-0.465
			c0.629,0,1.299,0.198,1.531,0.637c0.139,0.258,0.146,0.465,0.146,0.663l-0.034,2.065c0,0.068,0.009,0.646,0.069,1.084H20.043z
			 M19.484,25.176c-0.327,0-1.558,0-1.558,0.878c0,0.275,0.172,0.749,0.895,0.749c0.413,0,0.724-0.164,0.921-0.465
			c0.181-0.293,0.189-0.533,0.207-1.136C19.803,25.185,19.682,25.176,19.484,25.176z"/>
		<path fill="#231F20" d="M22.209,21.097h0.809v6.205h-0.809V21.097z"/>
		<path fill="#231F20" d="M24.6,21.097h0.81v6.205H24.6V21.097z"/>
		<path fill="#231F20" d="M29.83,26.02c-0.009,0.327,0.164,0.783,0.946,0.783c0.336,0,0.585-0.061,0.758-0.275
			c0.086-0.112,0.138-0.258,0.138-0.404c0-0.422-0.301-0.499-0.947-0.646c-0.903-0.207-1.66-0.388-1.66-1.291
			c0-0.792,0.688-1.309,1.687-1.309c0.542,0,1.3,0.155,1.558,0.672c0.111,0.241,0.111,0.447,0.111,0.628h-0.826
			c0.026-0.654-0.542-0.706-0.834-0.706c-0.121,0-0.878,0-0.878,0.62c0,0.396,0.388,0.49,0.61,0.551
			c1.197,0.284,1.455,0.353,1.713,0.594c0.241,0.224,0.327,0.525,0.327,0.801c0,0.481-0.267,0.895-0.585,1.093
			c-0.379,0.232-0.835,0.292-1.283,0.292c-0.877,0-1.695-0.361-1.686-1.402H29.83z"/>
		<path fill="#231F20" d="M33.003,22.965h0.766v-0.904l0.801-0.258v1.162h0.964v0.594h-0.964v2.59c0,0.215,0,0.577,0.576,0.577
			c0.163,0,0.319-0.026,0.388-0.044v0.629c-0.146,0.025-0.379,0.052-0.672,0.052c-0.74,0-1.093-0.216-1.093-0.921v-2.883h-0.766
			V22.965z"/>
		<path fill="#231F20" d="M36.572,23.859c0-0.293-0.017-0.594-0.043-0.878h0.818l0.018,0.835c0.154-0.603,0.67-0.801,1.032-0.852
			c0.241-0.035,0.421-0.026,0.56-0.018v0.792c-0.043-0.018-0.096-0.026-0.155-0.035c-0.06-0.008-0.138-0.008-0.232-0.008
			c-0.955,0-1.179,0.567-1.179,1.308v2.298h-0.818V23.859z"/>
		<path fill="#231F20" d="M40.365,25.288c-0.018,0.895,0.354,1.558,1.24,1.558c0.524,0,0.945-0.275,1.015-0.896h0.81
			c-0.026,0.216-0.061,0.568-0.371,0.904c-0.188,0.215-0.619,0.576-1.488,0.576c-1.359,0-2.005-0.843-2.005-2.212
			c0-0.852,0.172-1.558,0.852-2.03c0.413-0.293,0.93-0.318,1.179-0.318c1.938,0,1.894,1.712,1.877,2.418H40.365z M42.646,24.72
			c0.008-0.413-0.069-1.273-1.067-1.273c-0.524,0-1.162,0.318-1.179,1.273H42.646z"/>
		<path fill="#231F20" d="M44.684,23.48l-0.01-0.499h0.81l0.009,0.697c0.095-0.181,0.404-0.783,1.385-0.783
			c0.388,0,1.566,0.146,1.566,1.472v2.935h-0.826v-2.745c0-0.284-0.034-0.542-0.232-0.74c-0.206-0.198-0.49-0.293-0.766-0.293
			c-0.585,0-1.127,0.422-1.127,1.291v2.487h-0.809V23.48z"/>
		<path fill="#231F20" d="M50.687,27.638c0.034,0.481,0.241,0.843,1.007,0.843c1.127,0,1.145-0.817,1.145-1.987
			c-0.344,0.714-1.162,0.731-1.42,0.731c-0.396,0-0.964-0.086-1.325-0.534c-0.37-0.438-0.49-1.016-0.49-1.592
			c0-1.463,0.86-2.178,1.919-2.178c0.869,0,1.188,0.431,1.359,0.654l0.009-0.594h0.783l-0.017,0.783l-0.01,2.702
			c0,1.041-0.033,1.463-0.206,1.79c-0.361,0.688-1.204,0.774-1.798,0.774c-1.73,0-1.782-0.809-1.816-1.394H50.687z M52.571,26.191
			c0.173-0.224,0.292-0.456,0.292-1.239c0-0.542-0.119-0.852-0.335-1.075c-0.216-0.232-0.56-0.379-0.93-0.379
			c-1.024,0-1.161,1.032-1.161,1.583c0,0.663,0.197,1.541,1.188,1.541C52.098,26.622,52.373,26.45,52.571,26.191z"/>
		<path fill="#231F20" d="M54.505,22.965h0.766v-0.904l0.801-0.258v1.162h0.964v0.594h-0.964v2.59c0,0.215,0,0.577,0.576,0.577
			c0.163,0,0.319-0.026,0.388-0.044v0.629c-0.146,0.025-0.379,0.052-0.672,0.052c-0.74,0-1.093-0.216-1.093-0.921v-2.883h-0.766
			V22.965z"/>
		<path fill="#231F20" d="M58.031,21.097h0.817v2.521c0.267-0.456,0.801-0.714,1.403-0.714c0.455,0,1.109,0.163,1.359,0.688
			c0.086,0.172,0.146,0.379,0.146,1.007v2.702h-0.826v-2.556c0-0.388,0-1.223-0.93-1.223c-0.603,0-0.903,0.37-1.016,0.577
			c-0.138,0.241-0.138,0.646-0.138,0.912v2.289h-0.817V21.097z"/>
		<path fill="#231F20" d="M63.752,26.02c-0.01,0.327,0.163,0.783,0.946,0.783c0.335,0,0.585-0.061,0.757-0.275
			c0.086-0.112,0.138-0.258,0.138-0.404c0-0.422-0.301-0.499-0.946-0.646c-0.904-0.207-1.661-0.388-1.661-1.291
			c0-0.792,0.688-1.309,1.687-1.309c0.543,0,1.3,0.155,1.559,0.672c0.111,0.241,0.111,0.447,0.111,0.628h-0.826
			c0.025-0.654-0.542-0.706-0.835-0.706c-0.12,0-0.878,0-0.878,0.62c0,0.396,0.388,0.49,0.611,0.551
			c1.196,0.284,1.454,0.353,1.713,0.594c0.24,0.224,0.326,0.525,0.326,0.801c0,0.481-0.266,0.895-0.585,1.093
			c-0.378,0.232-0.835,0.292-1.282,0.292c-0.877,0-1.695-0.361-1.687-1.402H63.752z"/>
		<path fill="#231F20" d="M72.611,27.302c-0.061-0.215-0.077-0.422-0.077-0.646c-0.388,0.715-0.973,0.783-1.334,0.783
			c-0.989,0-1.523-0.56-1.523-1.273c0-0.345,0.12-0.896,0.757-1.266c0.465-0.258,1.154-0.283,1.498-0.283
			c0.207,0,0.336,0.008,0.585,0.025c0-0.533,0-0.766-0.155-0.955c-0.163-0.216-0.516-0.284-0.748-0.284
			c-0.818,0-0.861,0.56-0.869,0.731h-0.809c0.025-0.224,0.051-0.525,0.301-0.817c0.327-0.361,0.938-0.465,1.395-0.465
			c0.628,0,1.299,0.198,1.531,0.637c0.138,0.258,0.146,0.465,0.146,0.663l-0.035,2.065c0,0.068,0.01,0.646,0.069,1.084H72.611z
			 M72.053,25.176c-0.328,0-1.559,0-1.559,0.878c0,0.275,0.172,0.749,0.896,0.749c0.413,0,0.723-0.164,0.921-0.465
			c0.181-0.293,0.189-0.533,0.206-1.136C72.371,25.185,72.25,25.176,72.053,25.176z"/>
		<path fill="#231F20" d="M74.803,23.859c0-0.293-0.018-0.594-0.043-0.878h0.817l0.018,0.835c0.155-0.603,0.671-0.801,1.032-0.852
			c0.241-0.035,0.422-0.026,0.56-0.018v0.792c-0.043-0.018-0.095-0.026-0.155-0.035c-0.06-0.008-0.137-0.008-0.232-0.008
			c-0.955,0-1.179,0.567-1.179,1.308v2.298h-0.817V23.859z"/>
		<path fill="#231F20" d="M78.596,25.288c-0.018,0.895,0.354,1.558,1.24,1.558c0.524,0,0.945-0.275,1.015-0.896h0.81
			c-0.026,0.216-0.061,0.568-0.371,0.904c-0.188,0.215-0.619,0.576-1.488,0.576c-1.359,0-2.005-0.843-2.005-2.212
			c0-0.852,0.172-1.558,0.852-2.03c0.413-0.293,0.93-0.318,1.179-0.318c1.938,0,1.894,1.712,1.877,2.418H78.596z M80.877,24.72
			c0.008-0.413-0.069-1.273-1.067-1.273c-0.524,0-1.162,0.318-1.179,1.273H80.877z"/>
		<path fill="#231F20" d="M87.912,27.302c-0.061-0.215-0.077-0.422-0.077-0.646c-0.388,0.715-0.973,0.783-1.334,0.783
			c-0.989,0-1.523-0.56-1.523-1.273c0-0.345,0.12-0.896,0.757-1.266c0.465-0.258,1.154-0.283,1.498-0.283
			c0.207,0,0.336,0.008,0.585,0.025c0-0.533,0-0.766-0.155-0.955c-0.163-0.216-0.516-0.284-0.748-0.284
			c-0.818,0-0.861,0.56-0.869,0.731h-0.809c0.025-0.224,0.051-0.525,0.301-0.817c0.327-0.361,0.938-0.465,1.395-0.465
			c0.628,0,1.299,0.198,1.531,0.637c0.138,0.258,0.146,0.465,0.146,0.663l-0.035,2.065c0,0.068,0.01,0.646,0.069,1.084H87.912z
			 M87.354,25.176c-0.328,0-1.559,0-1.559,0.878c0,0.275,0.172,0.749,0.896,0.749c0.413,0,0.723-0.164,0.921-0.465
			c0.181-0.293,0.189-0.533,0.206-1.136C87.672,25.185,87.551,25.176,87.354,25.176z"/>
		<path fill="#231F20" d="M89.406,22.981h0.904l1.377,3.425l1.342-3.425h0.896l-1.894,4.32h-0.817L89.406,22.981z"/>
		<path fill="#231F20" d="M97.477,27.302c-0.061-0.215-0.078-0.422-0.078-0.646c-0.387,0.715-0.973,0.783-1.334,0.783
			c-0.989,0-1.523-0.56-1.523-1.273c0-0.345,0.121-0.896,0.758-1.266c0.465-0.258,1.153-0.283,1.498-0.283
			c0.206,0,0.335,0.008,0.584,0.025c0-0.533,0-0.766-0.154-0.955c-0.164-0.216-0.516-0.284-0.748-0.284
			c-0.818,0-0.861,0.56-0.869,0.731H94.8c0.026-0.224,0.052-0.525,0.302-0.817c0.326-0.361,0.938-0.465,1.394-0.465
			c0.628,0,1.3,0.198,1.532,0.637c0.137,0.258,0.146,0.465,0.146,0.663l-0.035,2.065c0,0.068,0.009,0.646,0.068,1.084H97.477z
			 M96.917,25.176c-0.327,0-1.558,0-1.558,0.878c0,0.275,0.172,0.749,0.895,0.749c0.413,0,0.723-0.164,0.921-0.465
			c0.181-0.293,0.189-0.533,0.206-1.136C97.235,25.185,97.115,25.176,96.917,25.176z"/>
		<path fill="#231F20" d="M99.547,21.105h0.973v0.887h-0.973V21.105z M99.633,22.981h0.809v4.32h-0.809V22.981z"/>
		<path fill="#231F20" d="M102.033,21.097h0.809v6.205h-0.809V21.097z"/>
		<path fill="#231F20" d="M107.04,27.302c-0.06-0.215-0.077-0.422-0.077-0.646c-0.388,0.715-0.973,0.783-1.334,0.783
			c-0.99,0-1.523-0.56-1.523-1.273c0-0.345,0.121-0.896,0.758-1.266c0.465-0.258,1.152-0.283,1.497-0.283
			c0.206,0,0.335,0.008,0.585,0.025c0-0.533,0-0.766-0.154-0.955c-0.164-0.216-0.517-0.284-0.749-0.284
			c-0.817,0-0.86,0.56-0.869,0.731h-0.81c0.026-0.224,0.053-0.525,0.302-0.817c0.327-0.361,0.938-0.465,1.394-0.465
			c0.629,0,1.3,0.198,1.532,0.637c0.138,0.258,0.146,0.465,0.146,0.663l-0.034,2.065c0,0.068,0.008,0.646,0.068,1.084H107.04z
			 M106.48,25.176c-0.326,0-1.558,0-1.558,0.878c0,0.275,0.173,0.749,0.896,0.749c0.413,0,0.723-0.164,0.92-0.465
			c0.182-0.293,0.189-0.533,0.207-1.136C106.799,25.185,106.679,25.176,106.48,25.176z"/>
		<path fill="#231F20" d="M109.998,23.609c0.111-0.197,0.43-0.739,1.411-0.739c0.431,0,0.973,0.103,1.368,0.551
			c0.215,0.249,0.508,0.68,0.508,1.626c0,0.835-0.197,1.291-0.413,1.575c-0.344,0.49-0.921,0.74-1.515,0.74
			c-0.206,0-0.594-0.026-0.964-0.275c-0.241-0.164-0.335-0.311-0.421-0.439l-0.018,0.654h-0.783l0.018-0.774v-5.439h0.809V23.609z
			 M111.22,23.421c-1.239,0-1.239,1.445-1.239,1.721c0,0.284,0,1.635,1.205,1.635c0.998,0,1.248-0.972,1.248-1.678
			C112.434,24.668,112.348,23.421,111.22,23.421z"/>
		<path fill="#231F20" d="M114.461,21.097h0.809v6.205h-0.809V21.097z"/>
		<path fill="#231F20" d="M117.326,25.288c-0.018,0.895,0.352,1.558,1.238,1.558c0.525,0,0.947-0.275,1.016-0.896h0.809
			c-0.025,0.216-0.06,0.568-0.369,0.904c-0.189,0.215-0.62,0.576-1.489,0.576c-1.36,0-2.005-0.843-2.005-2.212
			c0-0.852,0.172-1.558,0.852-2.03c0.413-0.293,0.93-0.318,1.18-0.318c1.936,0,1.893,1.712,1.875,2.418H117.326z M119.605,24.72
			c0.01-0.413-0.068-1.273-1.066-1.273c-0.525,0-1.162,0.318-1.18,1.273H119.605z"/>
		<path fill="#231F20" d="M123.93,21.105h0.973v0.887h-0.973V21.105z M124.017,22.981h0.809v4.32h-0.809V22.981z"/>
		<path fill="#231F20" d="M126.425,23.48l-0.009-0.499h0.809l0.01,0.697c0.094-0.181,0.404-0.783,1.385-0.783
			c0.387,0,1.566,0.146,1.566,1.472v2.935h-0.826v-2.745c0-0.284-0.034-0.542-0.232-0.74c-0.207-0.198-0.49-0.293-0.766-0.293
			c-0.586,0-1.127,0.422-1.127,1.291v2.487h-0.81V23.48z"/>
		<path fill="#231F20" d="M136.678,27.302c-0.06-0.215-0.076-0.422-0.076-0.646c-0.388,0.715-0.973,0.783-1.334,0.783
			c-0.99,0-1.523-0.56-1.523-1.273c0-0.345,0.12-0.896,0.757-1.266c0.465-0.258,1.153-0.283,1.497-0.283
			c0.207,0,0.336,0.008,0.586,0.025c0-0.533,0-0.766-0.155-0.955c-0.163-0.216-0.517-0.284-0.749-0.284
			c-0.817,0-0.86,0.56-0.869,0.731h-0.809c0.025-0.224,0.052-0.525,0.301-0.817c0.327-0.361,0.938-0.465,1.395-0.465
			c0.629,0,1.299,0.198,1.531,0.637c0.139,0.258,0.146,0.465,0.146,0.663l-0.034,2.065c0,0.068,0.009,0.646,0.069,1.084H136.678z
			 M136.119,25.176c-0.327,0-1.558,0-1.558,0.878c0,0.275,0.172,0.749,0.895,0.749c0.413,0,0.724-0.164,0.921-0.465
			c0.181-0.293,0.189-0.533,0.207-1.136C136.438,25.185,136.316,25.176,136.119,25.176z"/>
		<path fill="#231F20" d="M138.844,21.097h0.81v6.205h-0.81V21.097z"/>
		<path fill="#231F20" d="M141.235,21.097h0.81v6.205h-0.81V21.097z"/>
		<path fill="#231F20" d="M145.991,23.559l-0.017-0.577h0.817v0.628c0.413-0.68,0.998-0.739,1.368-0.739
			c0.955,0,1.256,0.49,1.411,0.809c0.146-0.241,0.499-0.809,1.454-0.809c0.62,0,1.584,0.258,1.584,1.531v2.9h-0.817V24.53
			c0-0.378-0.069-0.542-0.146-0.653c-0.138-0.198-0.413-0.379-0.826-0.379c-0.524,0-0.81,0.301-0.921,0.456
			c-0.189,0.267-0.189,0.74-0.189,0.93v2.418h-0.817v-2.857c0-0.533-0.31-0.946-0.946-0.946c-0.551,0-0.853,0.344-0.947,0.474
			c-0.181,0.249-0.189,0.602-0.189,0.877v2.453h-0.817V23.559z"/>
		<path fill="#231F20" d="M156.752,27.302c-0.06-0.215-0.076-0.422-0.076-0.646c-0.388,0.715-0.973,0.783-1.334,0.783
			c-0.99,0-1.523-0.56-1.523-1.273c0-0.345,0.12-0.896,0.757-1.266c0.465-0.258,1.153-0.283,1.497-0.283
			c0.207,0,0.336,0.008,0.586,0.025c0-0.533,0-0.766-0.155-0.955c-0.163-0.216-0.517-0.284-0.749-0.284
			c-0.817,0-0.86,0.56-0.869,0.731h-0.809c0.025-0.224,0.052-0.525,0.301-0.817c0.327-0.361,0.938-0.465,1.395-0.465
			c0.629,0,1.299,0.198,1.531,0.637c0.139,0.258,0.146,0.465,0.146,0.663l-0.034,2.065c0,0.068,0.009,0.646,0.069,1.084H156.752z
			 M156.193,25.176c-0.327,0-1.558,0-1.558,0.878c0,0.275,0.172,0.749,0.895,0.749c0.413,0,0.724-0.164,0.921-0.465
			c0.181-0.293,0.189-0.533,0.207-1.136C156.512,25.185,156.391,25.176,156.193,25.176z"/>
		<path fill="#231F20" d="M158.944,23.859c0-0.293-0.017-0.594-0.043-0.878h0.817l0.018,0.835c0.154-0.603,0.671-0.801,1.033-0.852
			c0.24-0.035,0.421-0.026,0.559-0.018v0.792c-0.043-0.018-0.095-0.026-0.154-0.035c-0.061-0.008-0.139-0.008-0.232-0.008
			c-0.955,0-1.18,0.567-1.18,1.308v2.298h-0.817V23.859z"/>
		<path fill="#231F20" d="M162.188,21.045h0.8v3.701l1.618-1.765h1.059l-1.824,1.833l1.936,2.487h-1.059l-1.729-2.332v2.332h-0.8
			V21.045z"/>
		<path fill="#231F20" d="M167.201,25.288c-0.018,0.895,0.354,1.558,1.24,1.558c0.524,0,0.945-0.275,1.015-0.896h0.81
			c-0.026,0.216-0.061,0.568-0.371,0.904c-0.188,0.215-0.619,0.576-1.488,0.576c-1.359,0-2.005-0.843-2.005-2.212
			c0-0.852,0.172-1.558,0.852-2.03c0.413-0.293,0.93-0.318,1.179-0.318c1.938,0,1.894,1.712,1.877,2.418H167.201z M169.482,24.72
			c0.008-0.413-0.069-1.273-1.067-1.273c-0.524,0-1.162,0.318-1.179,1.273H169.482z"/>
		<path fill="#231F20" d="M170.83,22.965h0.766v-0.904l0.801-0.258v1.162h0.964v0.594h-0.964v2.59c0,0.215,0,0.577,0.576,0.577
			c0.164,0,0.318-0.026,0.388-0.044v0.629c-0.146,0.025-0.379,0.052-0.671,0.052c-0.74,0-1.094-0.216-1.094-0.921v-2.883h-0.766
			V22.965z"/>
		<path fill="#231F20" d="M174.822,26.02c-0.01,0.327,0.163,0.783,0.946,0.783c0.335,0,0.585-0.061,0.757-0.275
			c0.086-0.112,0.138-0.258,0.138-0.404c0-0.422-0.301-0.499-0.946-0.646c-0.904-0.207-1.661-0.388-1.661-1.291
			c0-0.792,0.688-1.309,1.687-1.309c0.543,0,1.3,0.155,1.559,0.672c0.111,0.241,0.111,0.447,0.111,0.628h-0.826
			c0.025-0.654-0.542-0.706-0.835-0.706c-0.12,0-0.878,0-0.878,0.62c0,0.396,0.388,0.49,0.611,0.551
			c1.196,0.284,1.454,0.353,1.713,0.594c0.24,0.224,0.326,0.525,0.326,0.801c0,0.481-0.266,0.895-0.585,1.093
			c-0.378,0.232-0.835,0.292-1.282,0.292c-0.877,0-1.695-0.361-1.687-1.402H174.822z"/>
		<path fill="#231F20" d="M178.598,26.27h0.955v1.032h-0.955V26.27z"/>
	</g>
</g>
</svg>
