<?xml version="1.0" encoding="utf-8"?>
<!-- Generator: Adobe Illustrator 17.0.0, SVG Export Plug-In . SVG Version: 6.00 Build 0)  -->
<!DOCTYPE svg PUBLIC "-//W3C//DTD SVG 1.1//EN" "http://www.w3.org/Graphics/SVG/1.1/DTD/svg11.dtd">
<svg version="1.1" id="Layer_1" xmlns="http://www.w3.org/2000/svg" xmlns:xlink="http://www.w3.org/1999/xlink" x="0px" y="0px"
	 width="213.231px" height="72.323px" viewBox="0 0 213.231 72.323" enable-background="new 0 0 213.231 72.323"
	 xml:space="preserve">
<g>
	<path fill="#3B99AF" d="M8.978,12.219c-0.362,0.32-0.692,0.622-1.003,0.944c-0.033,0.045-0.036,0.1-0.045,0.135
		C8.249,12.929,8.608,12.592,8.978,12.219"/>
	<path fill="#3B99AF" d="M20.426,4.664c0.216,0.012,0.429,0.058,0.639,0.09c2.227-0.789,4.495-0.998,6.886-0.586
		c0.707,0.114,1.385,0.274,2.052,0.541c3.405,1.193,5.935,3.596,7.252,6.789c2.724,2.379,4.773,5.281,6.065,8.722
		c0.078-0.452,0.163-0.875,0.227-1.305C44.81,9.223,38.164,1.885,29.046,0.259c-4.451-0.699-8.66,0.017-12.587,2.157
		c-1.675,0.946-3.1,2.051-4.378,3.374C14.667,4.785,17.402,4.342,20.426,4.664"/>
	<path fill="#3B99AF" d="M35.84,22.065c-0.1,0.094-0.235,0.265-0.32,0.362c-0.031,1.111-0.148,2.158-0.364,3.279
		c-0.553,2.499-1.499,4.718-2.872,6.748c1.564-0.621,2.981-1.372,4.285-2.339C37.163,27.272,36.831,24.571,35.84,22.065"/>
	<path fill="#3B99AF" d="M28.27,26.966c-1.897,0.446-3.802,0.484-5.792,0.09c-5.285-1.208-8.708-5.098-9.486-9.577
		c-1.839,1.861-3.133,4.111-3.786,6.835c2.269,4.269,6.342,7.658,11.949,8.949c0.373,0.097,0.737,0.167,1.095,0.222
		C24.879,32.055,26.978,29.854,28.27,26.966"/>
	<path fill="#006C85" d="M35.521,21.392c-1.687-3.515-4.678-6.161-8.575-7.375c2.052,2.816,2.971,6.438,2.146,10.387
		c-0.201,0.904-0.473,1.747-0.823,2.561c2.956-0.679,5.459-2.266,7.252-4.539C35.544,22.084,35.544,21.749,35.521,21.392"/>
	<path fill="#006C85" d="M32.283,32.452c-3.128,1.187-6.501,1.591-10.035,1.033c-2.862,1.56-6.054,2.005-9.212,1.214
		c-0.93-0.247-1.755-0.575-2.553-0.989c0.171,0.34,0.356,0.658,0.547,0.989c1.915,2.946,4.654,4.966,8.072,5.935
		C24.327,39.942,29.126,37.08,32.283,32.452"/>
	<path fill="#006C85" d="M26.856,6.688c-1.816-0.992-3.716-1.639-5.792-1.933c-0.726,0.244-1.402,0.564-2.099,0.944
		c-0.983,0.573-1.813,1.239-2.6,1.979C19.655,6.522,23.126,6.115,26.856,6.688"/>
	<path fill="#006C85" d="M2.913,23.055c0.547-2.451,1.432-4.646,2.691-6.7c0.648-1.176,1.399-2.22,2.371-3.192
		c0.085-0.365,0.18-0.72,0.319-1.079c0.804-2.431,2.07-4.473,3.786-6.297c-5.658,2.325-9.814,6.89-11.493,13.086
		c-1.079,4.421-0.697,8.731,1.368,12.813c0.53,1.016,1.118,1.916,1.825,2.788C2.431,30.804,2.126,27.01,2.913,23.055"/>
	<path fill="#007F97" d="M28.27,26.966c-1.3,2.888-3.399,5.089-6.02,6.519c3.532,0.555,6.906,0.156,10.033-1.033
		c1.375-2.029,2.326-4.248,2.875-6.745c0.215-1.117,0.331-2.172,0.364-3.28C33.721,24.7,31.216,26.287,28.27,26.966"/>
	<path fill="#007F97" d="M7.975,13.163c0.311-0.322,0.644-0.624,1.003-0.944c2.144-1.991,4.576-3.507,7.388-4.54
		c0.787-0.749,1.617-1.406,2.6-1.979c0.698-0.382,1.373-0.701,2.099-0.944c-0.212-0.034-0.423-0.078-0.639-0.09
		C17.41,4.34,14.664,4.786,12.08,5.789c-1.707,1.815-2.982,3.87-3.786,6.295C8.156,12.444,8.061,12.798,7.975,13.163"/>
	<path fill="#98C5D2" d="M25.533,13.657c0.485,0.123,0.937,0.207,1.413,0.36c-1.973-2.603-4.705-4.248-8.026-4.721
		c-1.371-0.173-2.685-0.129-4.013,0.133c-0.68,0.979-1.194,2.025-1.552,3.194c-0.494,1.651-0.602,3.238-0.364,4.856
		C16.228,14.362,20.684,12.799,25.533,13.657"/>
	<path fill="#98C5D2" d="M27.267,6.779c-0.126-0.043-0.289-0.064-0.411-0.09c2.057,1.171,3.806,2.704,5.289,4.721
		c2.13,2.915,3.29,6.277,3.374,9.982c0.113,0.236,0.205,0.445,0.322,0.673c0.993-1.424,1.668-2.958,2.006-4.674
		c0.345-2.141,0.087-4.079-0.592-5.891c-1.884-1.594-3.915-2.831-6.249-3.732C29.784,7.321,28.568,7.001,27.267,6.779"/>
	<path fill="#98C5D2" d="M43.32,20.221c-0.995,3.989-3.329,7.398-6.75,9.893c-0.001,0.051-0.019,0.126-0.045,0.179
		c-0.835,3.74-3.026,6.772-6.294,8.814c-3.253,1.965-6.906,2.534-10.58,1.706c-0.159-0.048-0.41-0.124-0.547-0.179
		c-2.357,0.296-4.622,0.123-6.933-0.538c-3.506-1.028-6.266-2.951-8.391-5.621c0.49,1.355,1.096,2.59,1.869,3.821
		c2.962,4.66,7.279,7.856,12.769,9.263c11.372,2.646,22.798-3.955,25.632-15.694C44.955,27.783,44.623,23.873,43.32,20.221"/>
	<path fill="#98C5D2" d="M9.206,24.449c0-0.041,0.005-0.109,0-0.135c-1.735-3.48-2.184-7.231-1.277-11.015
		c-0.882,0.961-1.623,1.954-2.326,3.057c-0.519,1.013-0.924,2.033-1.186,3.147c-0.796,3.25-0.46,6.418,1.095,9.352
		c1.193,2.109,2.833,3.723,4.972,4.858C8.976,30.799,8.527,27.681,9.206,24.449"/>
	<path fill="#6BAEC0" d="M37.254,11.499c0.684,1.815,0.939,3.754,0.594,5.891c-0.345,1.715-1.003,3.245-2.007,4.675
		c0.99,2.506,1.323,5.207,0.729,8.049c3.427-2.496,5.757-5.902,6.749-9.893C42.026,16.78,39.983,13.878,37.254,11.499"/>
	<path fill="#6BAEC0" d="M7.929,13.299c-0.908,3.791-0.451,7.528,1.276,11.015c0.653-2.727,1.95-4.977,3.786-6.834
		c-0.236-1.623-0.137-3.202,0.364-4.858c0.359-1.168,0.874-2.216,1.552-3.193c-1.861,0.347-3.567,1.087-5.154,2.203
		c-0.288,0.207-0.518,0.402-0.776,0.587C8.609,12.592,8.25,12.929,7.929,13.299"/>
	<path fill="#2593AA" d="M12.171,40.096c2.295,0.664,4.582,0.834,6.933,0.538c-3.424-0.972-6.16-2.989-8.074-5.935
		c-0.193-0.331-0.375-0.648-0.546-0.987c-2.142-1.137-3.78-2.755-4.972-4.858c-1.555-2.925-1.891-6.096-1.095-9.352
		c0.263-1.122,0.667-2.134,1.186-3.147c-1.259,2.054-2.139,4.237-2.691,6.7c-0.785,3.944-0.488,7.744,0.868,11.42
		C5.887,37.143,8.67,39.071,12.171,40.096"/>
	<path fill="#2593AA" d="M18.921,9.296c3.315,0.48,6.057,2.118,8.026,4.721c3.89,1.214,6.886,3.864,8.575,7.375
		c-0.081-3.706-1.247-7.073-3.375-9.984c-1.483-2.016-3.236-3.535-5.29-4.72c-3.733-0.575-7.203-0.162-10.49,0.99
		c-0.54,0.555-1.021,1.11-1.46,1.751C16.228,9.15,17.557,9.121,18.921,9.296"/>
	<path fill="#007C95" d="M14.907,9.43c0.438-0.641,0.913-1.188,1.46-1.752c-2.817,1.039-5.247,2.551-7.388,4.542
		c0.26-0.187,0.487-0.38,0.774-0.585C11.34,10.51,13.035,9.785,14.907,9.43"/>
	<polygon fill="#3B99AF" points="35.521,22.47 35.521,21.481 35.841,22.065 	"/>
	<polygon fill="#006C85" points="64.569,7.796 73.677,7.796 66.931,22.046 78.113,22.046 76.473,25.552 56.183,25.552 	"/>
	<polygon fill="#006C85" points="92.567,13.669 87.017,25.552 77.907,25.552 83.458,13.669 	"/>
	<path fill="#006C85" d="M94.334,13.669h15.669c3.705,0,8.287,0.884,6.791,4.085c-1.448,3.098-6.02,4.376-10.778,4.376h-6.525
		l-1.6,3.421h-9.11L94.334,13.669z M100.541,19.372h2.006c2.175,0,4.479-0.205,5.1-1.533c0.589-1.259-1.549-1.412-3.758-1.412
		h-1.972L100.541,19.372z"/>
	<polygon fill="#006C85" points="129.247,13.669 123.696,25.552 114.588,25.552 120.137,13.669 	"/>
	<polygon fill="#006C85" points="154.227,17.176 146.206,17.176 142.293,25.553 133.185,25.553 137.097,17.176 129.076,17.176 
		130.714,13.67 155.865,13.67 	"/>
	<path fill="#006C85" d="M163.542,25.757c-8.293,0-12.176-2.094-10.283-6.145c1.861-3.984,7.732-6.148,16.023-6.148
		c8.293,0,12.246,2.165,10.385,6.148C177.775,23.663,171.835,25.757,163.542,25.757 M164.878,22.896c3.601,0,4.644-2.01,5.272-3.285
		c0.483-1.108,1.264-3.287-2.202-3.287c-3.366,0-4.656,2.178-5.173,3.287C162.179,20.887,161.614,22.896,164.878,22.896"/>
	<path fill="#006C85" d="M183.843,13.668h14.716c5.676,0,8.763,0.886,7.698,3.167c-0.85,1.821-3.557,2.741-7.149,3.15l-0.016,0.034
		c1.892,0.17,2.859,0.647,3.416,1.277c0.804,1.26-0.156,3.099,0.253,4.257h-9.481c-0.011-0.851,0.754-2.707,0.339-3.421
		c-0.288-0.547-1.174-0.615-2.295-0.615h-2.04l-1.885,4.036h-9.109L183.843,13.668z M190.118,18.862h2.379
		c1.869,0,3.752-0.103,4.318-1.312c0.501-1.071-1.161-1.225-2.998-1.225h-2.516L190.118,18.862z"/>
	<path fill="#006C85" d="M58.011,33.675c0.547-1.35,2.088-1.895,4.257-1.907c1.906,0,3.183,0.461,3.183,1.516
		c0,0.284-0.081,0.509-0.162,0.747l-1.196,2.972c-0.04,0.143-0.081,0.238-0.081,0.415c0,0.331,0.303,0.391,0.628,0.391
		c0.242,0,0.487-0.012,0.709-0.048v0.238c-0.263,0.035-0.485,0.047-0.689,0.047c-0.669,0-1.054-0.19-1.054-0.628
		c0-0.32,0.121-0.461,0.202-0.662h-0.04c-0.973,0.923-2.25,1.384-4.259,1.384c-1.601,0-3.102-0.426-3.102-1.505
		c0-1.643,2.271-1.953,4.543-1.965c2.128-0.06,4.095,0.155,4.095-1.386c-0.02-0.982-1.177-1.278-2.778-1.278
		c-2.088-0.012-3.405,0.615-3.853,1.669H58.011z M64.64,34.564L64.6,34.539c-0.547,0.343-2.453,0.343-3.629,0.357
		c-1.987,0.057-4.136,0.247-4.157,1.738c0,0.878,1.238,1.269,2.696,1.269c2.576,0,4.117-0.959,4.705-2.285L64.64,34.564z"/>
	<path fill="none" stroke="#006C85" stroke-width="0.26" d="M58.011,33.675c0.547-1.35,2.088-1.895,4.257-1.907
		c1.906,0,3.183,0.461,3.183,1.516c0,0.284-0.081,0.509-0.162,0.747l-1.196,2.972c-0.04,0.143-0.081,0.238-0.081,0.415
		c0,0.331,0.303,0.391,0.628,0.391c0.242,0,0.487-0.012,0.709-0.048v0.238c-0.263,0.035-0.485,0.047-0.689,0.047
		c-0.669,0-1.054-0.19-1.054-0.628c0-0.32,0.121-0.461,0.202-0.662h-0.04c-0.973,0.923-2.25,1.384-4.259,1.384
		c-1.601,0-3.102-0.426-3.102-1.505c0-1.643,2.271-1.953,4.543-1.965c2.128-0.06,4.095,0.155,4.095-1.386
		c-0.02-0.982-1.177-1.278-2.778-1.278c-2.088-0.012-3.405,0.615-3.853,1.669H58.011z M64.64,34.564L64.6,34.539
		c-0.547,0.343-2.453,0.343-3.629,0.357c-1.987,0.057-4.136,0.247-4.157,1.738c0,0.878,1.238,1.269,2.696,1.269
		c2.576,0,4.117-0.959,4.705-2.285L64.64,34.564z"/>
	<path fill="#006C85" d="M68.979,29.991h0.426l-0.689,1.919h2.27l-0.081,0.236h-2.271l-1.622,4.442
		c-0.081,0.213-0.184,0.463-0.204,0.699c0,0.556,0.791,0.521,1.399,0.521c0.386,0,0.691-0.012,0.975-0.046L69.1,37.999
		c-0.364,0.034-0.749,0.048-1.115,0.048c-0.791,0-1.581-0.119-1.581-0.688c0-0.238,0.101-0.461,0.162-0.699l1.642-4.513h-1.965
		l0.081-0.236h1.967L68.979,29.991z"/>
	<path fill="none" stroke="#006C85" stroke-width="0.26" d="M68.979,29.991h0.426l-0.689,1.919h2.27l-0.081,0.236h-2.271
		l-1.622,4.442c-0.081,0.213-0.184,0.463-0.204,0.699c0,0.556,0.791,0.521,1.399,0.521c0.386,0,0.691-0.012,0.975-0.046L69.1,37.999
		c-0.364,0.034-0.749,0.048-1.115,0.048c-0.791,0-1.581-0.119-1.581-0.688c0-0.238,0.101-0.461,0.162-0.699l1.642-4.513h-1.965
		l0.081-0.236h1.967L68.979,29.991z"/>
	<path fill="#006C85" d="M75.203,31.769c2.514,0,4.015,1.018,4.015,2.499c0,1.789-1.906,3.874-5.454,3.874
		c-2.555,0-3.994-0.947-3.994-2.405C69.769,33.746,71.695,31.769,75.203,31.769 M73.763,37.903c3.326,0,5.048-2.002,5.048-3.636
		c0-1.41-1.42-2.263-3.609-2.263c-3.346,0-5.028,1.953-5.028,3.731C70.175,37.039,71.411,37.903,73.763,37.903"/>
	<path fill="none" stroke="#006C85" stroke-width="0.26" d="M75.203,31.769c2.514,0,4.015,1.018,4.015,2.499
		c0,1.789-1.906,3.874-5.454,3.874c-2.555,0-3.994-0.947-3.994-2.405C69.769,33.746,71.695,31.769,75.203,31.769z M73.763,37.903
		c3.326,0,5.048-2.002,5.048-3.636c0-1.41-1.42-2.263-3.609-2.263c-3.346,0-5.028,1.953-5.028,3.731
		C70.175,37.039,71.411,37.903,73.763,37.903z"/>
	<path fill="#006C85" d="M79.052,37.998l2.209-6.089h0.446l-0.283,0.782l-0.305,0.746l0.04,0.025c0.832-0.96,2.09-1.646,3.792-1.646
		c0.323,0,0.567,0.011,0.832,0.046L85.702,32.1c-0.162-0.023-0.426-0.048-0.729-0.048c-1.947,0-3.225,1.15-3.669,1.669
		c-0.264,0.331-0.508,0.699-0.711,1.22l-1.115,3.057H79.052z"/>
	<path fill="none" stroke="#006C85" stroke-width="0.26" d="M79.052,37.998l2.209-6.089h0.446l-0.283,0.782l-0.305,0.746l0.04,0.025
		c0.832-0.96,2.09-1.646,3.792-1.646c0.323,0,0.567,0.011,0.832,0.046L85.702,32.1c-0.162-0.023-0.426-0.048-0.729-0.048
		c-1.947,0-3.225,1.15-3.669,1.669c-0.264,0.331-0.508,0.699-0.711,1.22l-1.115,3.057H79.052z"/>
	<polygon fill="#006C85" points="88.517,37.998 86.611,31.91 87.037,31.91 88.821,37.762 88.862,37.762 94.599,31.91 95.065,31.91 
		89.064,37.998 	"/>
	<polygon fill="none" stroke="#006C85" stroke-width="0.26" points="88.517,37.998 86.611,31.91 87.037,31.91 88.821,37.762 
		88.862,37.762 94.599,31.91 95.065,31.91 89.064,37.998 	"/>
	<path fill="#006C85" d="M94.985,33.675c0.547-1.35,2.088-1.895,4.257-1.907c1.906,0,3.183,0.461,3.183,1.516
		c0,0.284-0.081,0.509-0.162,0.747l-1.196,2.972c-0.04,0.143-0.081,0.238-0.081,0.415c0,0.331,0.305,0.391,0.628,0.391
		c0.242,0,0.487-0.012,0.709-0.048v0.238c-0.263,0.035-0.485,0.047-0.689,0.047c-0.669,0-1.054-0.19-1.054-0.628
		c0-0.32,0.121-0.461,0.202-0.662h-0.04c-0.972,0.923-2.25,1.384-4.259,1.384c-1.601,0-3.102-0.426-3.102-1.505
		c0-1.643,2.271-1.953,4.543-1.965c2.129-0.06,4.095,0.155,4.095-1.386c-0.02-0.982-1.177-1.278-2.778-1.278
		c-2.088-0.012-3.407,0.615-3.853,1.669H94.985z M101.615,34.564l-0.04-0.025c-0.547,0.343-2.453,0.343-3.629,0.357
		c-1.987,0.057-4.136,0.247-4.158,1.738c0,0.878,1.238,1.269,2.696,1.269c2.576,0,4.117-0.959,4.705-2.285L101.615,34.564z"/>
	<path fill="none" stroke="#006C85" stroke-width="0.26" d="M94.985,33.675c0.547-1.35,2.088-1.895,4.257-1.907
		c1.906,0,3.183,0.461,3.183,1.516c0,0.284-0.081,0.509-0.162,0.747l-1.196,2.972c-0.04,0.143-0.081,0.238-0.081,0.415
		c0,0.331,0.305,0.391,0.628,0.391c0.242,0,0.487-0.012,0.709-0.048v0.238c-0.263,0.035-0.485,0.047-0.689,0.047
		c-0.669,0-1.054-0.19-1.054-0.628c0-0.32,0.121-0.461,0.202-0.662h-0.04c-0.972,0.923-2.25,1.384-4.259,1.384
		c-1.601,0-3.102-0.426-3.102-1.505c0-1.643,2.271-1.953,4.543-1.965c2.129-0.06,4.095,0.155,4.095-1.386
		c-0.02-0.982-1.177-1.278-2.778-1.278c-2.088-0.012-3.407,0.615-3.853,1.669H94.985z M101.615,34.564l-0.04-0.025
		c-0.547,0.343-2.453,0.343-3.629,0.357c-1.987,0.057-4.136,0.247-4.158,1.738c0,0.878,1.238,1.269,2.696,1.269
		c2.576,0,4.117-0.959,4.705-2.285L101.615,34.564z"/>
	<path fill="#006C85" d="M110.759,33.734c0.264-1.222-1.014-1.729-3.041-1.729c-1.399,0-3.144,0.356-3.144,1.386
		c0,0.829,1.217,1.055,2.413,1.326c1.42,0.308,3.344,0.534,3.366,1.683c0,1.28-1.886,1.741-3.833,1.741
		c-2.068,0-3.791-0.415-3.791-1.755c0-0.153,0.04-0.294,0.04-0.448h0.426c-0.345,1.444,1.032,1.965,3.324,1.965
		c1.664,0,3.427-0.391,3.427-1.504c0-0.865-1.319-1.079-2.514-1.35c-1.419-0.308-3.264-0.533-3.264-1.659
		c0-1.125,1.763-1.622,3.548-1.622c2.149,0,3.71,0.507,3.445,1.965H110.759z"/>
	<path fill="none" stroke="#006C85" stroke-width="0.26" d="M110.759,33.734c0.264-1.222-1.014-1.729-3.041-1.729
		c-1.399,0-3.144,0.356-3.144,1.386c0,0.829,1.217,1.055,2.413,1.326c1.42,0.308,3.344,0.534,3.366,1.683
		c0,1.28-1.886,1.741-3.833,1.741c-2.068,0-3.791-0.415-3.791-1.755c0-0.153,0.04-0.294,0.04-0.448h0.426
		c-0.345,1.444,1.032,1.965,3.324,1.965c1.664,0,3.427-0.391,3.427-1.504c0-0.865-1.319-1.079-2.514-1.35
		c-1.419-0.308-3.264-0.533-3.264-1.659c0-1.125,1.763-1.622,3.548-1.622c2.149,0,3.71,0.507,3.445,1.965H110.759z"/>
	<path fill="#006C85" d="M114.711,29.991h0.426l-0.69,1.919h2.271l-0.082,0.236h-2.27l-1.623,4.442
		c-0.079,0.213-0.18,0.463-0.202,0.699c0,0.556,0.791,0.521,1.399,0.521c0.386,0,0.689-0.012,0.975-0.046l-0.083,0.236
		c-0.364,0.034-0.749,0.048-1.115,0.048c-0.791,0-1.581-0.119-1.581-0.688c0-0.238,0.101-0.461,0.162-0.699l1.642-4.513h-1.967
		l0.083-0.236h1.965L114.711,29.991z"/>
	<path fill="none" stroke="#006C85" stroke-width="0.26" d="M114.711,29.991h0.426l-0.69,1.919h2.271l-0.082,0.236h-2.27
		l-1.623,4.442c-0.079,0.213-0.18,0.463-0.202,0.699c0,0.556,0.791,0.521,1.399,0.521c0.386,0,0.689-0.012,0.975-0.046l-0.083,0.236
		c-0.364,0.034-0.749,0.048-1.115,0.048c-0.791,0-1.581-0.119-1.581-0.688c0-0.238,0.101-0.461,0.162-0.699l1.642-4.513h-1.967
		l0.083-0.236h1.965L114.711,29.991z"/>
	<path fill="#006C85" d="M117.082,33.675c0.547-1.35,2.088-1.895,4.259-1.907c1.905,0,3.183,0.461,3.183,1.516
		c0,0.284-0.081,0.509-0.162,0.747l-1.197,2.972c-0.04,0.143-0.081,0.238-0.081,0.415c0,0.331,0.305,0.391,0.628,0.391
		c0.242,0,0.487-0.012,0.709-0.048v0.238c-0.263,0.035-0.484,0.047-0.689,0.047c-0.669,0-1.054-0.19-1.054-0.628
		c0-0.32,0.121-0.461,0.204-0.662h-0.042c-0.972,0.923-2.25,1.384-4.257,1.384c-1.601,0-3.102-0.426-3.102-1.505
		c0-1.643,2.272-1.953,4.542-1.965c2.129-0.06,4.095,0.155,4.095-1.386c-0.02-0.982-1.176-1.278-2.777-1.278
		c-2.09-0.012-3.407,0.615-3.853,1.669H117.082z M123.712,34.564l-0.04-0.025c-0.547,0.343-2.453,0.343-3.627,0.357
		c-1.989,0.057-4.137,0.247-4.158,1.738c0,0.878,1.238,1.269,2.696,1.269c2.576,0,4.116-0.959,4.703-2.285L123.712,34.564z"/>
	<path fill="none" stroke="#006C85" stroke-width="0.26" d="M117.082,33.675c0.547-1.35,2.088-1.895,4.259-1.907
		c1.905,0,3.183,0.461,3.183,1.516c0,0.284-0.081,0.509-0.162,0.747l-1.197,2.972c-0.04,0.143-0.081,0.238-0.081,0.415
		c0,0.331,0.305,0.391,0.628,0.391c0.242,0,0.487-0.012,0.709-0.048v0.238c-0.263,0.035-0.484,0.047-0.689,0.047
		c-0.669,0-1.054-0.19-1.054-0.628c0-0.32,0.121-0.461,0.204-0.662h-0.042c-0.972,0.923-2.25,1.384-4.257,1.384
		c-1.601,0-3.102-0.426-3.102-1.505c0-1.643,2.272-1.953,4.542-1.965c2.129-0.06,4.095,0.155,4.095-1.386
		c-0.02-0.982-1.176-1.278-2.777-1.278c-2.09-0.012-3.407,0.615-3.853,1.669H117.082z M123.712,34.564l-0.04-0.025
		c-0.547,0.343-2.453,0.343-3.627,0.357c-1.989,0.057-4.137,0.247-4.158,1.738c0,0.878,1.238,1.269,2.696,1.269
		c2.576,0,4.116-0.959,4.703-2.285L123.712,34.564z"/>
	<path fill="#006C85" d="M128.152,29.991h0.428l-0.69,1.919h2.272l-0.081,0.236h-2.272l-1.622,4.442
		c-0.081,0.213-0.182,0.463-0.204,0.699c0,0.556,0.791,0.521,1.399,0.521c0.386,0,0.689-0.012,0.974-0.046l-0.083,0.236
		c-0.364,0.034-0.749,0.048-1.113,0.048c-0.793,0-1.583-0.119-1.583-0.688c0-0.238,0.101-0.461,0.163-0.699l1.642-4.513h-1.967
		l0.082-0.236h1.965L128.152,29.991z"/>
	<path fill="none" stroke="#006C85" stroke-width="0.26" d="M128.152,29.991h0.428l-0.69,1.919h2.272l-0.081,0.236h-2.272
		l-1.622,4.442c-0.081,0.213-0.182,0.463-0.204,0.699c0,0.556,0.791,0.521,1.399,0.521c0.386,0,0.689-0.012,0.974-0.046
		l-0.083,0.236c-0.364,0.034-0.749,0.048-1.113,0.048c-0.793,0-1.583-0.119-1.583-0.688c0-0.238,0.101-0.461,0.163-0.699
		l1.642-4.513h-1.967l0.082-0.236h1.965L128.152,29.991z"/>
	<path fill="#006C85" d="M129.754,37.998h-0.446l2.231-6.089h0.445L129.754,37.998z M132.349,29.541h0.445l-0.465,1.231h-0.446
		L132.349,29.541z"/>
	<path fill="none" stroke="#006C85" stroke-width="0.26" d="M129.754,37.998h-0.446l2.231-6.089h0.445L129.754,37.998z
		 M132.349,29.541h0.445l-0.465,1.231h-0.446L132.349,29.541z"/>
	<path fill="#006C85" d="M133.584,31.91h0.426l-0.264,0.759l-0.263,0.687l0.04,0.024c0.934-0.996,2.191-1.611,4.218-1.611
		c1.783,0,3.081,0.592,3.061,1.657c0,0.32-0.142,0.639-0.244,0.96l-1.297,3.613h-0.426l1.317-3.673
		c0.101-0.296,0.246-0.604,0.246-0.9c-0.022-0.947-1.136-1.421-2.657-1.421c-3.103,0-4.38,1.659-4.949,3.187l-1.033,2.807h-0.428
		L133.584,31.91z"/>
	<path fill="none" stroke="#006C85" stroke-width="0.26" d="M133.584,31.91h0.426l-0.264,0.759l-0.263,0.687l0.04,0.024
		c0.934-0.996,2.191-1.611,4.218-1.611c1.783,0,3.081,0.592,3.061,1.657c0,0.32-0.142,0.639-0.244,0.96l-1.297,3.613h-0.426
		l1.317-3.673c0.101-0.296,0.246-0.604,0.246-0.9c-0.022-0.947-1.136-1.421-2.657-1.421c-3.103,0-4.38,1.659-4.949,3.187
		l-1.033,2.807h-0.428L133.584,31.91z"/>
	<path fill="#006C85" d="M154.567,33.746c0.019-1.137-1.32-1.741-3.306-1.741c-3.343,0-5.028,1.954-5.028,3.731
		c0,1.303,1.236,2.167,3.589,2.167c1.886-0.035,3.346-0.592,4.117-1.858h0.403c-0.586,1.278-2.43,2.096-4.52,2.096
		c-2.553,0-3.993-0.947-3.993-2.405c0-1.99,1.926-3.967,5.432-3.967c2.29,0,3.71,0.698,3.71,1.977H154.567z"/>
	<path fill="none" stroke="#006C85" stroke-width="0.26" d="M154.567,33.746c0.019-1.137-1.32-1.741-3.306-1.741
		c-3.343,0-5.028,1.954-5.028,3.731c0,1.303,1.236,2.167,3.589,2.167c1.886-0.035,3.346-0.592,4.117-1.858h0.403
		c-0.586,1.278-2.43,2.096-4.52,2.096c-2.553,0-3.993-0.947-3.993-2.405c0-1.99,1.926-3.967,5.432-3.967
		c2.29,0,3.71,0.698,3.71,1.977H154.567z"/>
	<path fill="#006C85" d="M156.675,33.675c0.547-1.35,2.088-1.895,4.257-1.907c1.906,0,3.184,0.461,3.184,1.516
		c0,0.284-0.082,0.509-0.162,0.747l-1.197,2.972c-0.04,0.143-0.079,0.238-0.079,0.415c0,0.331,0.303,0.391,0.627,0.391
		c0.242,0,0.487-0.012,0.709-0.048v0.238c-0.263,0.035-0.485,0.047-0.689,0.047c-0.669,0-1.053-0.19-1.053-0.628
		c0-0.32,0.121-0.461,0.202-0.662h-0.04c-0.973,0.923-2.251,1.384-4.26,1.384c-1.6,0-3.1-0.426-3.1-1.505
		c0-1.643,2.27-1.953,4.543-1.965c2.127-0.06,4.094,0.155,4.094-1.386c-0.02-0.982-1.177-1.278-2.778-1.278
		c-2.088-0.012-3.407,0.615-3.851,1.669H156.675z M163.305,34.564l-0.041-0.025c-0.547,0.343-2.453,0.343-3.629,0.357
		c-1.987,0.057-4.137,0.247-4.157,1.738c0,0.878,1.238,1.269,2.696,1.269c2.576,0,4.117-0.959,4.705-2.285L163.305,34.564z"/>
	<path fill="none" stroke="#006C85" stroke-width="0.26" d="M156.675,33.675c0.547-1.35,2.088-1.895,4.257-1.907
		c1.906,0,3.184,0.461,3.184,1.516c0,0.284-0.082,0.509-0.162,0.747l-1.197,2.972c-0.04,0.143-0.079,0.238-0.079,0.415
		c0,0.331,0.303,0.391,0.627,0.391c0.242,0,0.487-0.012,0.709-0.048v0.238c-0.263,0.035-0.485,0.047-0.689,0.047
		c-0.669,0-1.053-0.19-1.053-0.628c0-0.32,0.121-0.461,0.202-0.662h-0.04c-0.973,0.923-2.251,1.384-4.26,1.384
		c-1.6,0-3.1-0.426-3.1-1.505c0-1.643,2.27-1.953,4.543-1.965c2.127-0.06,4.094,0.155,4.094-1.386
		c-0.02-0.982-1.177-1.278-2.778-1.278c-2.088-0.012-3.407,0.615-3.851,1.669H156.675z M163.305,34.564l-0.041-0.025
		c-0.547,0.343-2.453,0.343-3.629,0.357c-1.987,0.057-4.137,0.247-4.157,1.738c0,0.878,1.238,1.269,2.696,1.269
		c2.576,0,4.117-0.959,4.705-2.285L163.305,34.564z"/>
	<polygon fill="#006C85" points="164.867,37.998 167.908,29.542 168.354,29.542 165.313,37.998 	"/>
	<polygon fill="none" stroke="#006C85" stroke-width="0.26" points="164.867,37.998 167.908,29.542 168.354,29.542 165.313,37.998 	
		"/>
	<path fill="#006C85" d="M176.077,33.746c0.019-1.137-1.318-1.741-3.307-1.741c-3.343,0-5.027,1.954-5.027,3.731
		c0,1.303,1.236,2.167,3.589,2.167c1.886-0.035,3.346-0.592,4.115-1.858h0.406c-0.588,1.278-2.433,2.096-4.521,2.096
		c-2.555,0-3.993-0.947-3.993-2.405c0-1.99,1.925-3.967,5.431-3.967c2.292,0,3.713,0.698,3.713,1.977H176.077z"/>
	<path fill="none" stroke="#006C85" stroke-width="0.26" d="M176.077,33.746c0.019-1.137-1.318-1.741-3.307-1.741
		c-3.343,0-5.027,1.954-5.027,3.731c0,1.303,1.236,2.167,3.589,2.167c1.886-0.035,3.346-0.592,4.115-1.858h0.406
		c-0.588,1.278-2.433,2.096-4.521,2.096c-2.555,0-3.993-0.947-3.993-2.405c0-1.99,1.925-3.967,5.431-3.967
		c2.292,0,3.713,0.698,3.713,1.977H176.077z"/>
	<path fill="#006C85" d="M176.624,37.998h-0.446l2.231-6.089h0.445L176.624,37.998z M179.219,29.541h0.446l-0.465,1.231h-0.448
		L179.219,29.541z"/>
	<path fill="none" stroke="#006C85" stroke-width="0.26" d="M176.624,37.998h-0.446l2.231-6.089h0.445L176.624,37.998z
		 M179.219,29.541h0.446l-0.465,1.231h-0.448L179.219,29.541z"/>
	<path fill="#006C85" d="M185.869,37.998h-0.428l0.266-0.759l0.263-0.687l-0.04-0.023c-0.934,0.995-2.189,1.611-4.218,1.611
		c-1.783,0-3.08-0.593-3.061-1.659c0-0.32,0.142-0.639,0.244-0.961l1.297-3.612h0.426l-1.317,3.673
		c-0.101,0.296-0.244,0.604-0.244,0.9c0.02,0.947,1.135,1.421,2.656,1.421c3.103,0,4.398-1.659,4.947-3.187l1.014-2.807h0.446
		L185.869,37.998z"/>
	<path fill="none" stroke="#006C85" stroke-width="0.26" d="M185.869,37.998h-0.428l0.266-0.759l0.263-0.687l-0.04-0.023
		c-0.934,0.995-2.189,1.611-4.218,1.611c-1.783,0-3.08-0.593-3.061-1.659c0-0.32,0.142-0.639,0.244-0.961l1.297-3.612h0.426
		l-1.317,3.673c-0.101,0.296-0.244,0.604-0.244,0.9c0.02,0.947,1.135,1.421,2.656,1.421c3.103,0,4.398-1.659,4.947-3.187
		l1.014-2.807h0.446L185.869,37.998z"/>
	<path fill="#006C85" d="M189.456,31.91h0.448l-0.508,1.398h0.042c0.729-0.819,1.947-1.539,3.629-1.539
		c1.765,0,2.715,0.71,2.656,1.646l0.04,0.023c0.568-0.935,1.846-1.669,3.671-1.669c1.662,0,2.878,0.569,2.878,1.611
		c0,0.294-0.123,0.639-0.242,0.97l-1.379,3.648h-0.426l1.46-3.874c0.103-0.261,0.182-0.438,0.182-0.745
		c0-0.854-0.973-1.375-2.472-1.375c-2.433,0-3.57,1.47-3.976,2.534l-1.297,3.46h-0.426l1.48-4.074
		c0.062-0.19,0.101-0.38,0.101-0.581c0-0.805-0.872-1.338-2.25-1.338c-2.231,0-3.832,1.516-4.196,2.689l-1.238,3.305h-0.426
		L189.456,31.91z"/>
	<path fill="none" stroke="#006C85" stroke-width="0.26" d="M189.456,31.91h0.448l-0.508,1.398h0.042
		c0.729-0.819,1.947-1.539,3.629-1.539c1.765,0,2.715,0.71,2.656,1.646l0.04,0.023c0.568-0.935,1.846-1.669,3.671-1.669
		c1.662,0,2.878,0.569,2.878,1.611c0,0.294-0.123,0.639-0.242,0.97l-1.379,3.648h-0.426l1.46-3.874
		c0.103-0.261,0.182-0.438,0.182-0.745c0-0.854-0.973-1.375-2.472-1.375c-2.433,0-3.57,1.47-3.976,2.534l-1.297,3.46h-0.426
		l1.48-4.074c0.062-0.19,0.101-0.38,0.101-0.581c0-0.805-0.872-1.338-2.25-1.338c-2.231,0-3.832,1.516-4.196,2.689l-1.238,3.305
		h-0.426L189.456,31.91z"/>
	<path fill="#006C85" d="M171.789,42.563h0.286l-0.462,1.087h1.519l-0.054,0.135h-1.519l-1.085,2.516
		c-0.054,0.121-0.123,0.262-0.137,0.397c0,0.314,0.529,0.294,0.938,0.294c0.258,0,0.462-0.006,0.651-0.026l-0.056,0.133
		c-0.242,0.02-0.501,0.028-0.745,0.028c-0.529,0-1.059-0.067-1.059-0.389c0-0.133,0.068-0.262,0.109-0.396l1.099-2.557h-1.315
		l0.053-0.135h1.317L171.789,42.563z"/>
	<path fill="none" stroke="#006C85" stroke-width="0.173" d="M171.789,42.563h0.286l-0.462,1.087h1.519l-0.054,0.135h-1.519
		l-1.085,2.516c-0.054,0.121-0.123,0.262-0.137,0.397c0,0.314,0.529,0.294,0.938,0.294c0.258,0,0.462-0.006,0.651-0.026
		l-0.056,0.133c-0.242,0.02-0.501,0.028-0.745,0.028c-0.529,0-1.059-0.067-1.059-0.389c0-0.133,0.068-0.262,0.109-0.396l1.099-2.557
		h-1.315l0.053-0.135h1.317L171.789,42.563z"/>
	<path fill="#006C85" d="M173.88,44.65c0.367-0.765,1.396-1.073,2.848-1.081c1.277,0,2.133,0.262,2.133,0.86
		c0,0.159-0.056,0.288-0.111,0.422l-0.801,1.685c-0.026,0.081-0.055,0.133-0.055,0.234c0,0.19,0.205,0.222,0.421,0.222
		c0.163,0,0.327-0.008,0.474-0.028V47.1c-0.174,0.018-0.325,0.026-0.459,0.026c-0.449,0-0.707-0.109-0.707-0.356
		c0-0.181,0.082-0.261,0.135-0.375h-0.026c-0.653,0.523-1.505,0.786-2.85,0.786c-1.073,0-2.077-0.242-2.077-0.854
		c0-0.934,1.521-1.105,3.039-1.113c1.426-0.035,2.743,0.086,2.743-0.785c-0.014-0.558-0.787-0.727-1.861-0.727
		c-1.398-0.006-2.278,0.35-2.578,0.947H173.88z M178.317,45.153l-0.026-0.014c-0.367,0.195-1.644,0.195-2.429,0.202
		c-1.331,0.034-2.769,0.141-2.785,0.986c0,0.497,0.829,0.719,1.807,0.719c1.722,0,2.755-0.544,3.148-1.295L178.317,45.153z"/>
	<path fill="none" stroke="#006C85" stroke-width="0.173" d="M173.88,44.65c0.367-0.765,1.396-1.073,2.848-1.081
		c1.277,0,2.133,0.262,2.133,0.86c0,0.159-0.056,0.288-0.111,0.422l-0.801,1.685c-0.026,0.081-0.055,0.133-0.055,0.234
		c0,0.19,0.205,0.222,0.421,0.222c0.163,0,0.327-0.008,0.474-0.028V47.1c-0.174,0.018-0.325,0.026-0.459,0.026
		c-0.449,0-0.707-0.109-0.707-0.356c0-0.181,0.082-0.261,0.135-0.375h-0.026c-0.653,0.523-1.505,0.786-2.85,0.786
		c-1.073,0-2.077-0.242-2.077-0.854c0-0.934,1.521-1.105,3.039-1.113c1.426-0.035,2.743,0.086,2.743-0.785
		c-0.014-0.558-0.787-0.727-1.861-0.727c-1.398-0.006-2.278,0.35-2.578,0.947H173.88z M178.317,45.153l-0.026-0.014
		c-0.367,0.195-1.644,0.195-2.429,0.202c-1.331,0.034-2.769,0.141-2.785,0.986c0,0.497,0.829,0.719,1.807,0.719
		c1.722,0,2.755-0.544,3.148-1.295L178.317,45.153z"/>
	<path fill="#006C85" d="M180.978,44.488l0.026,0.015c0.543-0.53,1.561-0.934,2.892-0.934c1.628,0,2.428,0.61,2.428,1.329
		c0,1.073-1.18,2.282-3.623,2.282c-1.357,0-2.295-0.444-2.39-1.076h-0.028l-0.434,0.993h-0.285l2.062-4.792h0.286L180.978,44.488z
		 M183.897,43.704c-2.158,0-3.38,1.156-3.407,2.066c-0.026,0.759,0.787,1.277,2.212,1.277c2.265,0,3.352-1.189,3.352-2.148
		C186.055,44.214,185.293,43.704,183.897,43.704"/>
	<path fill="none" stroke="#006C85" stroke-width="0.173" d="M180.978,44.488l0.026,0.015c0.543-0.53,1.561-0.934,2.892-0.934
		c1.628,0,2.428,0.61,2.428,1.329c0,1.073-1.18,2.282-3.623,2.282c-1.357,0-2.295-0.444-2.39-1.076h-0.028l-0.434,0.993h-0.285
		l2.062-4.792h0.286L180.978,44.488z M183.897,43.704c-2.158,0-3.38,1.156-3.407,2.066c-0.026,0.759,0.787,1.277,2.212,1.277
		c2.265,0,3.352-1.189,3.352-2.148C186.055,44.214,185.293,43.704,183.897,43.704z"/>
	<polygon fill="#006C85" points="186.339,47.1 188.374,42.308 188.673,42.308 186.637,47.1 	"/>
	<polygon fill="none" stroke="#006C85" stroke-width="0.173" points="186.339,47.1 188.374,42.308 188.673,42.308 186.637,47.1 	"/>
	<path fill="#006C85" d="M188.345,45.401c-0.026,0.101-0.039,0.216-0.039,0.369c0,1.068,1.436,1.275,2.307,1.275
		c1.465,0,2.469-0.342,2.876-1.081h0.286c-0.409,0.779-1.468,1.217-3.152,1.217c-1.751,0-2.592-0.625-2.592-1.418
		c0-1.073,1.208-2.194,3.638-2.194c1.67,0,2.523,0.581,2.523,1.341c0,0.167-0.026,0.302-0.054,0.489H188.345z M193.857,45.268
		c0.051-0.127,0.067-0.222,0.067-0.356c0-0.652-0.732-1.209-2.253-1.209c-1.858,0-2.932,0.713-3.27,1.565H193.857z"/>
	<path fill="none" stroke="#006C85" stroke-width="0.173" d="M188.345,45.401c-0.026,0.101-0.039,0.216-0.039,0.369
		c0,1.068,1.436,1.275,2.307,1.275c1.465,0,2.469-0.342,2.876-1.081h0.286c-0.409,0.779-1.468,1.217-3.152,1.217
		c-1.751,0-2.592-0.625-2.592-1.418c0-1.073,1.208-2.194,3.638-2.194c1.67,0,2.523,0.581,2.523,1.341
		c0,0.167-0.026,0.302-0.054,0.489H188.345z M193.857,45.268c0.051-0.127,0.067-0.222,0.067-0.356c0-0.652-0.732-1.209-2.253-1.209
		c-1.858,0-2.932,0.713-3.27,1.565H193.857z"/>
	<path fill="#006C85" d="M196.477,42.563h0.285l-0.46,1.087h1.519l-0.054,0.135h-1.521L195.16,46.3
		c-0.054,0.121-0.121,0.262-0.135,0.397c0,0.314,0.529,0.294,0.936,0.294c0.258,0,0.462-0.006,0.653-0.026l-0.056,0.133
		c-0.244,0.02-0.502,0.028-0.745,0.028c-0.532,0-1.06-0.067-1.06-0.389c0-0.133,0.068-0.262,0.107-0.396l1.101-2.557h-1.317
		l0.054-0.135h1.317L196.477,42.563z"/>
	<path fill="none" stroke="#006C85" stroke-width="0.173" d="M196.477,42.563h0.285l-0.46,1.087h1.519l-0.054,0.135h-1.521
		L195.16,46.3c-0.054,0.121-0.121,0.262-0.135,0.397c0,0.314,0.529,0.294,0.936,0.294c0.258,0,0.462-0.006,0.653-0.026l-0.056,0.133
		c-0.244,0.02-0.502,0.028-0.745,0.028c-0.532,0-1.06-0.067-1.06-0.389c0-0.133,0.068-0.262,0.107-0.396l1.101-2.557h-1.317
		l0.054-0.135h1.317L196.477,42.563z"/>
	<path fill="#006C85" d="M202.544,44.683c0.176-0.69-0.679-0.979-2.037-0.979c-0.936,0-2.102,0.202-2.102,0.785
		c0,0.469,0.813,0.598,1.614,0.753c0.95,0.173,2.239,0.302,2.253,0.952c0,0.725-1.262,0.987-2.565,0.987
		c-1.385,0-2.539-0.236-2.539-0.993c0-0.089,0.029-0.169,0.029-0.255h0.283c-0.229,0.819,0.694,1.114,2.226,1.114
		c1.113,0,2.293-0.222,2.293-0.854c0-0.49-0.882-0.61-1.684-0.763c-0.948-0.176-2.183-0.302-2.183-0.941
		c0-0.638,1.182-0.92,2.374-0.92c1.44,0,2.485,0.29,2.307,1.114H202.544z"/>
	<path fill="none" stroke="#006C85" stroke-width="0.173" d="M202.544,44.683c0.176-0.69-0.679-0.979-2.037-0.979
		c-0.936,0-2.102,0.202-2.102,0.785c0,0.469,0.813,0.598,1.614,0.753c0.95,0.173,2.239,0.302,2.253,0.952
		c0,0.725-1.262,0.987-2.565,0.987c-1.385,0-2.539-0.236-2.539-0.993c0-0.089,0.029-0.169,0.029-0.255h0.283
		c-0.229,0.819,0.694,1.114,2.226,1.114c1.113,0,2.293-0.222,2.293-0.854c0-0.49-0.882-0.61-1.684-0.763
		c-0.948-0.176-2.183-0.302-2.183-0.941c0-0.638,1.182-0.92,2.374-0.92c1.44,0,2.485,0.29,2.307,1.114H202.544z"/>
	<path fill="#006C85" d="M210.731,11.498c1.389,0,2.499,1.115,2.499,2.509c0,1.414-1.111,2.518-2.511,2.518
		c-1.391,0-2.522-1.104-2.522-2.518c0-1.394,1.131-2.509,2.522-2.509H210.731z M210.72,11.888c-1.12,0-2.035,0.947-2.035,2.119
		c0,1.192,0.915,2.128,2.047,2.128c1.129,0.011,2.035-0.936,2.035-2.116c0-1.183-0.906-2.13-2.035-2.13H210.72z M210.244,15.468
		h-0.451v-2.801c0.237-0.031,0.462-0.065,0.801-0.065c0.43,0,0.712,0.09,0.881,0.211c0.171,0.121,0.262,0.312,0.262,0.579
		c0,0.368-0.248,0.592-0.555,0.682v0.02c0.25,0.045,0.419,0.269,0.476,0.68c0.068,0.435,0.134,0.604,0.18,0.693h-0.473
		c-0.068-0.09-0.137-0.348-0.193-0.716c-0.068-0.355-0.248-0.489-0.61-0.489h-0.316V15.468z M210.244,13.917h0.33
		c0.371,0,0.688-0.135,0.688-0.48c0-0.245-0.18-0.491-0.688-0.491c-0.15,0-0.25,0.013-0.33,0.025V13.917z"/>
	<path fill="#006C85" d="M1.665,72.066l2.659-12.37h3.719c1.685,0,3.371,0.616,2.746,3.529c-0.608,2.81-2.954,3.392-4.24,3.392
		H4.445l-1.182,5.449H1.665z M4.74,65.246h1.755c0.659,0,2.259-0.172,2.676-2.108c0.4-1.884-0.991-2.073-1.337-2.073H5.626
		L4.74,65.246z"/>
	<path fill="#006C85" d="M11.619,67.867c0.555-2.535,1.286-4.626,4.327-4.626c3.041,0,2.903,2.091,2.346,4.626
		c-0.816,3.822-2.416,4.369-4.276,4.369S10.802,71.689,11.619,67.867 M16.937,67.268c0.504-2.365-0.139-2.879-1.235-2.879
		c-1.095,0-1.947,0.513-2.45,2.879c-0.608,2.81-0.468,3.821,1.009,3.821C15.738,71.089,16.329,70.078,16.937,67.268"/>
	<polygon fill="#006C85" points="20.41,63.412 21.991,63.412 21.974,70.867 22.01,70.867 25.555,63.412 27.57,63.412 27.762,70.867 
		27.795,70.867 31.133,63.412 32.644,63.412 28.439,72.066 26.526,72.066 26.233,64.697 26.197,64.697 22.652,72.066 20.741,72.066 
			"/>
	<path fill="#006C85" d="M34.413,68.193c-0.521,2.416,0.034,2.896,1.146,2.896c0.975,0,1.651-0.771,1.895-1.645h1.564
		c-0.435,1.919-1.826,2.791-3.668,2.791c-1.86,0-3.215-0.547-2.397-4.367c0.556-2.537,1.286-4.626,4.327-4.626
		c2.503,0,2.85,1.354,2.225,4.214l-0.157,0.737H34.413z M38.063,67.131c0.539-2.519-0.104-2.827-1.148-2.827
		c-0.903,0-1.737,0.428-2.276,2.827H38.063z"/>
	<path fill="#006C85" d="M43.934,64.715h0.034c0.886-1.32,1.634-1.473,3.024-1.473l-0.312,1.456
		c-0.104-0.017-0.244-0.034-0.366-0.052c-0.121-0.017-0.242-0.034-0.382-0.034c-1.581,0-2.223,1.182-2.485,2.347l-1.094,5.106
		h-1.426l1.86-8.653h1.426L43.934,64.715z"/>
	<polygon fill="#006C85" points="46.939,72.065 45.305,72.065 45.688,70.282 47.322,70.282 	"/>
	<polygon fill="#006C85" points="53.315,72.065 55.973,59.695 62.438,59.695 62.143,61.065 57.276,61.065 56.424,65.04 
		60.944,65.04 60.648,66.412 56.13,66.412 55.208,70.695 60.179,70.695 59.884,72.065 	"/>
	<polygon fill="#006C85" points="62.696,63.412 64.296,63.412 64.677,70.746 64.713,70.746 68.415,63.412 69.909,63.412 
		65.303,72.066 63.444,72.066 	"/>
	<path fill="#006C85" d="M70.95,72.065h-1.426l1.86-8.652h1.424L70.95,72.065z M72.095,59.694h1.6l-0.314,1.507h-1.598
		L72.095,59.694z"/>
	<path fill="#006C85" d="M80.714,59.694h1.426l-2.66,12.372h-1.424l0.225-1.029h-0.034c-0.661,0.805-1.356,1.199-2.276,1.199
		c-1.409,0-2.712-0.547-1.895-4.35c0.47-2.16,1.06-4.645,3.893-4.645c0.835,0,1.373,0.36,1.704,1.045h0.051L80.714,59.694z
		 M78.055,64.389c-1.528,0-1.998,1.199-2.486,3.512c-0.294,1.303-0.695,3.187,1.096,3.187c1.598,0,2.015-1.953,2.397-3.7
		C79.307,66.239,79.636,64.389,78.055,64.389"/>
	<path fill="#006C85" d="M84.327,68.193c-0.521,2.416,0.034,2.896,1.146,2.896c0.975,0,1.651-0.771,1.895-1.645h1.564
		c-0.435,1.919-1.826,2.791-3.668,2.791c-1.86,0-3.215-0.547-2.397-4.367c0.557-2.537,1.286-4.626,4.327-4.626
		c2.503,0,2.85,1.354,2.225,4.214l-0.157,0.737H84.327z M87.976,67.131c0.539-2.519-0.104-2.827-1.147-2.827
		c-0.903,0-1.737,0.428-2.276,2.827H87.976z"/>
	<path fill="#006C85" d="M95.55,72.065l1.286-5.997c0.21-0.926,0.036-1.68-1.182-1.68c-1.564,0-2.085,1.372-2.329,2.554
		l-1.112,5.123h-1.426l1.479-6.854c0.121-0.599,0.225-1.199,0.295-1.8h1.511l-0.227,1.114h0.072
		c0.763-0.976,1.477-1.285,2.606-1.285c1.877,0,2.121,1.113,1.738,2.827l-1.286,5.997H95.55z"/>
	<path fill="#006C85" d="M105.332,66.188c0.347-1.423-0.296-1.8-0.833-1.8c-1.096,0-1.947,0.515-2.45,2.879
		c-0.609,2.81-0.469,3.822,1.007,3.822c0.33,0,1.39-0.343,1.686-1.902h1.494c-0.468,2.433-2.45,3.049-3.422,3.049
		c-1.859,0-3.215-0.547-2.399-4.367c0.555-2.537,1.286-4.626,4.327-4.626c1.755,0,2.571,1.01,2.068,2.946H105.332z"/>
	<path fill="#006C85" d="M110.385,68.193c-0.519,2.416,0.036,2.896,1.149,2.896c0.973,0,1.649-0.771,1.894-1.645h1.564
		c-0.434,1.919-1.825,2.791-3.668,2.791c-1.86,0-3.215-0.547-2.397-4.367c0.557-2.537,1.286-4.626,4.327-4.626
		c2.503,0,2.85,1.354,2.225,4.214l-0.157,0.737H110.385z M114.036,67.131c0.538-2.519-0.104-2.827-1.147-2.827
		c-0.904,0-1.737,0.428-2.276,2.827H114.036z"/>
	<polygon fill="#006C85" points="118.343,72.065 116.711,72.065 117.092,70.282 118.726,70.282 	"/>
	<path fill="#006C85" d="M131.479,63.104c0.174-0.702,0.278-1.404,0.017-1.798c-0.243-0.396-0.956-0.532-1.286-0.532
		c-1.322,0-2.017,0.788-2.102,0.96c-0.087,0.136-0.453,0.446-0.922,2.571l-0.712,3.306c-0.642,3.032,0.278,3.392,1.513,3.392
		c0.487,0,1.997-0.172,2.538-2.587h1.65c-0.765,3.907-3.562,3.907-4.38,3.907c-1.564,0-3.944-0.103-2.901-4.901l0.746-3.495
		c0.748-3.496,2.539-4.49,5.007-4.49c2.484,0,3.162,1.269,2.484,3.667H131.479z"/>
	<path fill="#006C85" d="M134.188,67.867c0.555-2.535,1.284-4.626,4.327-4.626c3.041,0,2.903,2.091,2.346,4.626
		c-0.818,3.822-2.416,4.369-4.276,4.369S133.37,71.689,134.188,67.867 M139.505,67.268c0.504-2.365-0.139-2.879-1.235-2.879
		c-1.094,0-1.947,0.513-2.45,2.879c-0.608,2.81-0.47,3.821,1.009,3.821C138.306,71.089,138.897,70.078,139.505,67.268"/>
	<path fill="#006C85" d="M146.976,72.065l1.286-5.997c0.208-0.926,0.034-1.68-1.182-1.68c-1.564,0-2.085,1.372-2.329,2.554
		l-1.112,5.123h-1.426l1.477-6.854c0.121-0.599,0.225-1.199,0.295-1.8h1.513l-0.227,1.114h0.07c0.765-0.976,1.478-1.285,2.607-1.285
		c1.877,0,2.121,1.113,1.738,2.827l-1.286,5.997H146.976z"/>
	<path fill="#006C85" d="M153.019,63.413l0.365-1.68c0.383-1.748,1.704-2.089,2.973-2.089c0.295,0,0.468,0.017,0.659,0.051
		l-0.208,1.012c-1.494-0.104-1.894,0.53-2.032,1.232l-0.331,1.475h1.774l-0.227,1.061h-1.772l-1.634,7.591h-1.424l1.632-7.591
		h-1.356l0.226-1.061H153.019z M157.001,72.065h-1.426l1.86-8.652h1.424L157.001,72.065z M158.147,59.694h1.598l-0.313,1.507h-1.598
		L158.147,59.694z"/>
	<path fill="#006C85" d="M166.886,59.694h1.426l-2.659,12.372h-1.426l0.227-1.029h-0.036c-0.659,0.805-1.356,1.199-2.276,1.199
		c-1.409,0-2.712-0.547-1.895-4.35c0.47-2.16,1.06-4.645,3.893-4.645c0.835,0,1.373,0.36,1.702,1.045h0.053L166.886,59.694z
		 M164.227,64.389c-1.528,0-1.998,1.199-2.486,3.512c-0.295,1.303-0.695,3.187,1.096,3.187c1.598,0,2.017-1.953,2.399-3.7
		C165.479,66.239,165.808,64.389,164.227,64.389"/>
	<path fill="#006C85" d="M170.497,68.193c-0.519,2.416,0.036,2.896,1.147,2.896c0.975,0,1.651-0.771,1.895-1.645h1.564
		c-0.434,1.919-1.826,2.791-3.668,2.791c-1.86,0-3.215-0.547-2.397-4.367c0.556-2.537,1.286-4.626,4.327-4.626
		c2.503,0,2.85,1.354,2.225,4.214l-0.157,0.737H170.497z M174.148,67.131c0.539-2.519-0.104-2.827-1.148-2.827
		c-0.903,0-1.737,0.428-2.276,2.827H174.148z"/>
	<path fill="#006C85" d="M181.722,72.065l1.286-5.997c0.208-0.926,0.036-1.68-1.18-1.68c-1.566,0-2.087,1.372-2.331,2.554
		l-1.112,5.123h-1.426l1.477-6.854c0.123-0.599,0.227-1.199,0.297-1.8h1.511l-0.225,1.114h0.07c0.763-0.976,1.477-1.285,2.606-1.285
		c1.876,0,2.121,1.113,1.738,2.827l-1.286,5.997H181.722z"/>
	<path fill="#006C85" d="M191.504,66.188c0.348-1.423-0.296-1.8-0.833-1.8c-1.095,0-1.947,0.515-2.452,2.879
		c-0.606,2.81-0.468,3.822,1.009,3.822c0.33,0,1.39-0.343,1.686-1.902h1.496c-0.471,2.433-2.452,3.049-3.425,3.049
		c-1.859,0-3.214-0.547-2.398-4.367c0.557-2.537,1.286-4.626,4.327-4.626c1.755,0,2.572,1.01,2.068,2.946H191.504z"/>
	<path fill="#006C85" d="M196.557,68.193c-0.519,2.416,0.036,2.896,1.147,2.896c0.975,0,1.651-0.771,1.895-1.645h1.564
		c-0.434,1.919-1.825,2.791-3.668,2.791c-1.86,0-3.215-0.547-2.398-4.367c0.557-2.537,1.286-4.626,4.327-4.626
		c2.503,0,2.85,1.354,2.225,4.214l-0.157,0.737H196.557z M200.208,67.131c0.539-2.519-0.104-2.827-1.147-2.827
		c-0.903,0-1.737,0.428-2.276,2.827H200.208z"/>
	<polygon fill="#006C85" points="204.515,72.065 202.882,72.065 203.263,70.282 204.898,70.282 	"/>
</g>
</svg>
