<?xml version="1.0" encoding="utf-8"?>
<!-- Generator: Adobe Illustrator 17.0.0, SVG Export Plug-In . SVG Version: 6.00 Build 0)  -->
<!DOCTYPE svg PUBLIC "-//W3C//DTD SVG 1.1//EN" "http://www.w3.org/Graphics/SVG/1.1/DTD/svg11.dtd">
<svg version="1.1" id="Layer_1" xmlns="http://www.w3.org/2000/svg" xmlns:xlink="http://www.w3.org/1999/xlink" x="0px" y="0px"
	 width="105.913px" height="90.31px" viewBox="0 0 105.913 90.31" enable-background="new 0 0 105.913 90.31" xml:space="preserve">
<g>
	
		<radialGradient id="SVGID_2_" cx="-422.5206" cy="96.5693" r="42.6239" gradientTransform="matrix(1.2424 0 0 1.0594 577.8963 -57.1504)" gradientUnits="userSpaceOnUse">
		<stop  offset="0" style="stop-color:#022538"/>
		<stop  offset="0.3137" style="stop-color:#02263A"/>
		<stop  offset="0.4267" style="stop-color:#022941"/>
		<stop  offset="0.5073" style="stop-color:#022E4C"/>
		<stop  offset="0.5725" style="stop-color:#02365D"/>
		<stop  offset="0.6283" style="stop-color:#014073"/>
		<stop  offset="0.6777" style="stop-color:#014D8F"/>
		<stop  offset="0.7224" style="stop-color:#015BAF"/>
		<stop  offset="0.7621" style="stop-color:#006CD3"/>
		<stop  offset="0.7988" style="stop-color:#007FFC"/>
		<stop  offset="0.801" style="stop-color:#0080FF"/>
		<stop  offset="0.8223" style="stop-color:#2694F9;stop-opacity:0.893"/>
		<stop  offset="0.8472" style="stop-color:#4BA8F2;stop-opacity:0.7679"/>
		<stop  offset="0.8733" style="stop-color:#6AB8ED;stop-opacity:0.6367"/>
		<stop  offset="0.9005" style="stop-color:#82C4E9;stop-opacity:0.5"/>
		<stop  offset="0.9293" style="stop-color:#93CDE6;stop-opacity:0.3552"/>
		<stop  offset="0.9608" style="stop-color:#9DD2E5;stop-opacity:0.197"/>
		<stop  offset="1" style="stop-color:#A0D4E4;stop-opacity:0"/>
	</radialGradient>
	<ellipse fill="url(#SVGID_2_)" cx="52.957" cy="45.155" rx="52.957" ry="45.155"/>
	<g>
		<g>
			<g>
				<path fill="#FFFFFF" d="M37.782,29.27h1.499v11.455h3.175v1.456h-4.674V29.27z"/>
				<path fill="#FFFFFF" d="M45.1,29.252v1.685h-1.515v-1.685H45.1z M43.639,33.189h1.406v8.992h-1.406V33.189z"/>
				<path fill="#FFFFFF" d="M46.544,33.189h1.406v0.897c0.175-0.263,0.329-0.458,0.464-0.586c0.324-0.323,0.738-0.488,1.243-0.494
					c0.974,0,1.556,0.617,1.747,1.85c0.051,0.354,0.077,0.708,0.077,1.062v2.793c0,0.531-0.023,1.038-0.069,1.52
					c-0.129,1.41-0.758,2.121-1.886,2.133c-0.5-0.006-0.894-0.153-1.183-0.439c-0.118-0.098-0.249-0.25-0.394-0.458v4.047h-1.406
					V33.189z M47.95,38.711c-0.005,0.366,0.01,0.727,0.046,1.081c0.026,0.311,0.08,0.555,0.163,0.732
					c0.159,0.397,0.455,0.589,0.888,0.577c0.604-0.012,0.933-0.464,0.989-1.355c0.025-0.348,0.039-0.705,0.039-1.071v-2.436
					l-0.023-0.732c-0.077-0.836-0.401-1.248-0.974-1.236c-0.428-0.006-0.731,0.223-0.912,0.687
					c-0.098,0.238-0.159,0.495-0.185,0.769c-0.026,0.275-0.036,0.58-0.031,0.916V38.711z"/>
				<path fill="#FFFFFF" d="M54.441,29.252v1.685h-1.515v-1.685H54.441z M52.981,33.189h1.406v8.992h-1.406V33.189z"/>
				<path fill="#FFFFFF" d="M56.658,33.189v-1.612l1.406-0.75v2.362h1.144v1.264h-1.144v5.283l0.008,0.595
					c0.016,0.476,0.271,0.727,0.765,0.751l0.371,0.018v1.145l-0.464,0.083c-0.175,0.03-0.353,0.042-0.533,0.037
					c-0.963,0-1.473-0.458-1.529-1.374l-0.023-0.989v-5.549h-0.997v-1.264H56.658z"/>
				<path fill="#FFFFFF" d="M60.552,36.623c0.006-0.934,0.085-1.633,0.24-2.097c0.242-0.696,0.677-1.151,1.306-1.365
					c0.293-0.104,0.603-0.155,0.927-0.155c0.319,0,0.629,0.052,0.928,0.155c0.392,0.135,0.7,0.357,0.927,0.668
					c0.396,0.543,0.601,1.475,0.61,2.793v2.252c0.005,1.19-0.149,2.033-0.464,2.527c-0.401,0.647-1.058,0.967-1.97,0.961
					c-1.447,0.019-2.259-0.714-2.434-2.198c-0.052-0.391-0.075-0.821-0.07-1.291V36.623z M61.958,38.875l0.023,0.87
					c0.047,0.91,0.399,1.361,1.059,1.355c0.459-0.012,0.763-0.274,0.912-0.788c0.087-0.299,0.131-0.778,0.131-1.438v-2.399
					c0-1.483-0.355-2.219-1.066-2.207c-0.639-0.012-0.98,0.439-1.027,1.355l-0.031,0.852V38.875z"/>
				<path fill="#FFFFFF" d="M68.464,33.189v1.108c0.217-0.446,0.469-0.763,0.758-0.952c0.19-0.128,0.376-0.217,0.556-0.266
					l0.448-0.073v1.648l-0.471,0.055c-0.505,0.073-0.853,0.324-1.043,0.75c-0.165,0.397-0.248,0.983-0.248,1.758v4.963h-1.406
					v-8.992H68.464z"/>
				<path fill="#FFFFFF" d="M31.28,57.842v0.33l0.022,0.366c0.088,0.659,0.396,0.98,0.928,0.961
					c0.628-0.006,0.952-0.366,0.974-1.081c0-0.244-0.052-0.46-0.155-0.65c-0.139-0.232-0.313-0.452-0.525-0.659l-0.703-0.623
					l-0.741-0.659c-0.335-0.311-0.577-0.604-0.727-0.879c-0.186-0.335-0.275-0.763-0.271-1.282c0-1.502,0.739-2.256,2.218-2.262
					c0.387,0,0.744,0.061,1.074,0.183c0.648,0.238,1.009,0.778,1.081,1.621l0.023,0.687v0.293h-1.406v-0.284v-0.33
					c-0.046-0.592-0.316-0.894-0.812-0.906c-0.505-0.006-0.762,0.305-0.772,0.934c0,0.232,0.044,0.424,0.132,0.577
					c0.113,0.201,0.296,0.415,0.548,0.641l0.873,0.76c0.768,0.641,1.236,1.188,1.406,1.639c0.104,0.299,0.157,0.641,0.163,1.025
					c-0.011,0.812-0.237,1.444-0.681,1.896c-0.406,0.409-0.966,0.616-1.677,0.623c-1.437-0.006-2.223-0.72-2.356-2.143l-0.022-0.458
					v-0.32H31.28z"/>
				<path fill="#FFFFFF" d="M37.299,51.588v6.062c0.005,0.641,0.036,1.053,0.093,1.236c0.139,0.421,0.417,0.625,0.834,0.613
					c0.273,0.006,0.503-0.073,0.688-0.238c0.231-0.189,0.381-0.492,0.447-0.907c0.042-0.244,0.063-0.513,0.063-0.806v-5.961h1.406
					v8.992h-1.406v-0.796l-0.263,0.366c-0.351,0.409-0.822,0.613-1.414,0.613c-0.525,0-0.969-0.18-1.329-0.54
					c-0.335-0.336-0.508-0.846-0.518-1.529l-0.008-0.971v-6.135H37.299z"/>
				<path fill="#FFFFFF" d="M42.159,51.588h1.406v0.778l0.34-0.403c0.149-0.171,0.321-0.299,0.518-0.385
					c0.247-0.11,0.515-0.168,0.804-0.174c0.818,0,1.386,0.381,1.699,1.145c0.495-0.745,1.087-1.126,1.777-1.145
					c0.644,0.006,1.139,0.223,1.483,0.65c0.269,0.33,0.412,0.934,0.433,1.813l0.008,1.09v5.622h-1.406v-5.54l-0.008-1.126
					c-0.01-0.836-0.337-1.251-0.98-1.245c-0.505,0-0.835,0.241-0.989,0.723c-0.104,0.287-0.152,0.846-0.147,1.676v5.512H45.69
					v-5.531l-0.007-1.108c-0.026-0.842-0.361-1.267-1.005-1.272c-0.433-0.006-0.729,0.186-0.889,0.577
					c-0.103,0.238-0.165,0.482-0.186,0.732c-0.03,0.312-0.044,0.675-0.038,1.09v5.512h-1.406V51.588z"/>
				<path fill="#FFFFFF" d="M51.786,51.588h1.406v0.778l0.34-0.403c0.149-0.171,0.322-0.299,0.518-0.385
					c0.248-0.11,0.516-0.168,0.804-0.174c0.819,0,1.386,0.381,1.7,1.145c0.494-0.745,1.087-1.126,1.777-1.145
					c0.644,0.006,1.138,0.223,1.483,0.65c0.268,0.33,0.412,0.934,0.433,1.813l0.008,1.09v5.622h-1.406v-5.54l-0.008-1.126
					c-0.011-0.836-0.338-1.251-0.981-1.245c-0.505,0-0.834,0.241-0.989,0.723c-0.103,0.287-0.151,0.846-0.146,1.676v5.512h-1.406
					v-5.531l-0.008-1.108c-0.025-0.842-0.36-1.267-1.005-1.272c-0.433-0.006-0.729,0.186-0.888,0.577
					c-0.104,0.238-0.165,0.482-0.186,0.732c-0.031,0.312-0.044,0.675-0.039,1.09v5.512h-1.406V51.588z"/>
				<path fill="#FFFFFF" d="M61.823,53.162c0.057-0.354,0.194-0.673,0.413-0.957c0.219-0.284,0.478-0.481,0.776-0.591
					c0.355-0.134,0.727-0.205,1.113-0.21c0.448,0,0.854,0.073,1.221,0.22c0.458,0.177,0.793,0.567,1.004,1.172
					c0.108,0.317,0.163,0.882,0.163,1.694v6.089h-1.406v-0.971c-0.258,0.458-0.495,0.754-0.711,0.888
					c-0.278,0.183-0.61,0.271-0.997,0.266c-0.283,0.006-0.536-0.043-0.757-0.146c-0.722-0.293-1.077-1.086-1.066-2.381
					c0-0.543,0.046-1.031,0.139-1.465c0.154-0.751,0.639-1.251,1.453-1.502c0.324-0.104,0.659-0.17,1.004-0.201l0.936-0.037v-1.053
					c-0.011-0.891-0.325-1.328-0.943-1.309c-0.376,0.006-0.644,0.149-0.803,0.43c-0.114,0.202-0.186,0.549-0.217,1.044h-1.406
					C61.743,53.764,61.772,53.437,61.823,53.162z M65.108,56.294h-0.41c-1.164,0.067-1.735,0.696-1.715,1.886
					c-0.016,0.873,0.272,1.313,0.865,1.318c0.5,0.012,0.862-0.296,1.09-0.925c0.087-0.238,0.139-0.485,0.154-0.742l0.016-0.714
					V56.294z"/>
				<path fill="#FFFFFF" d="M69.481,51.588v1.108c0.216-0.446,0.469-0.763,0.757-0.952c0.19-0.128,0.376-0.217,0.557-0.266
					l0.448-0.073v1.648l-0.472,0.055c-0.505,0.073-0.853,0.324-1.043,0.75c-0.165,0.397-0.247,0.983-0.247,1.758v4.963h-1.406
					v-8.992H69.481z"/>
				<path fill="#FFFFFF" d="M73.537,51.588l1.29,6.712l1.391-6.712h1.36l-2.875,12.325h-1.329l0.788-3.15l-2.07-9.175H73.537z"/>
			</g>
		</g>
	</g>
</g>
</svg>
