<?xml version="1.0" encoding="utf-8"?>
<!-- Generator: Adobe Illustrator 17.0.0, SVG Export Plug-In . SVG Version: 6.00 Build 0)  -->
<!DOCTYPE svg PUBLIC "-//W3C//DTD SVG 1.1//EN" "http://www.w3.org/Graphics/SVG/1.1/DTD/svg11.dtd">
<svg version="1.1" id="Layer_1" xmlns="http://www.w3.org/2000/svg" xmlns:xlink="http://www.w3.org/1999/xlink" x="0px" y="0px"
	 width="890.246px" height="54.052px" viewBox="0 0 890.246 54.052" enable-background="new 0 0 890.246 54.052"
	 xml:space="preserve">
<g>
	<g>
		<path d="M0.81,0.855h3.268v11.482h6.351v2.96H0.81V0.855z"/>
		<path d="M12.026,0.855h3.27v14.443h-3.27V0.855z"/>
		<path d="M18.001,0.855h6.273c2.521,0,4.42,1.44,4.42,4.741c0,2.901-1.416,4.581-4.794,4.581h-2.63v5.121h-3.27V0.855z
			 M21.271,7.376h2.008c1.229,0,2.054-0.4,2.054-1.84c0-1.24-0.638-1.88-1.806-1.88h-2.256V7.376z"/>
		<path d="M30.464,0.855h3.269v14.443h-3.269V0.855z"/>
		<path d="M39.691,3.816h-4.327v-2.96h11.922v2.96H42.96v11.482h-3.269V3.816z"/>
		<path d="M55.173,0.475c4.701,0,6.678,3.241,6.678,7.602s-1.977,7.602-6.678,7.602c-4.7,0-6.677-3.241-6.677-7.602
			S50.473,0.475,55.173,0.475z M55.173,12.718c2.49,0,3.315-2.101,3.315-4.641s-0.825-4.641-3.315-4.641s-3.314,2.1-3.314,4.641
			S52.683,12.718,55.173,12.718z"/>
		<path d="M64.227,0.855h6.863c2.708,0,4.249,1.26,4.249,3.781c0,1.84-1.167,3.121-2.848,3.5v0.04c0.949,0.08,1.836,0.36,2.209,1.26
			c0.545,1.32,0.607,4.361,1.074,5.861h-3.471c-0.357-1.4-0.311-3.481-0.622-4.481c-0.202-0.66-0.7-1-2.008-1h-2.179v5.481h-3.269
			V0.855z M67.495,7.017h2.599c1.494,0,1.977-0.6,1.977-1.7c0-1.4-0.856-1.661-2.428-1.661h-2.147V7.017z"/>
	</g>
	<g>
		<path d="M80.128,0c1.902,0,3.443,1.981,3.443,4.43s-1.541,4.43-3.443,4.43c-1.904,0-3.445-1.982-3.445-4.43S78.224,0,80.128,0z
			 M80.128,7.438c1.295,0,2.283-1.341,2.283-3.008s-0.988-3.008-2.283-3.008c-1.297,0-2.285,1.341-2.285,3.008
			S78.831,7.438,80.128,7.438z M78.769,2.063h1.35c0.988,0,1.551,0.327,1.551,1.422c0,0.863-0.418,1.189-0.78,1.236l0.726,1.842
			h-0.897l-0.698-1.784h-0.417v1.784h-0.833V2.063z M79.602,3.917h0.644c0.354,0,0.535-0.14,0.535-0.501
			c0-0.35-0.209-0.49-0.599-0.49h-0.58V3.917z"/>
	</g>
	<path d="M85.19,5.256h2.895v3.081H85.19V5.256z M85.19,12.218h2.895v3.081H85.19V12.218z M96.734,0.855h6.272
		c2.521,0,4.42,1.44,4.42,4.741c0,2.901-1.416,4.581-4.794,4.581h-2.63v5.121h-3.268V0.855z M100.003,7.377h2.008
		c1.229,0,2.054-0.4,2.054-1.84c0-1.24-0.638-1.88-1.805-1.88h-2.257V7.377z M109.212,7.317c0-0.64-0.016-1.38-0.062-2.06h2.895
		c0.047,0.72,0.062,1.44,0.062,2.16h0.031c0.731-1.92,1.541-2.3,3.502-2.3v3.281c-0.218-0.04-0.451-0.08-0.794-0.08
		c-1.603,0-2.646,1.16-2.646,3.181v3.801h-2.988V7.317z M122.377,4.876c4.405,0,5.665,3.021,5.665,5.401s-1.261,5.401-5.665,5.401
		c-4.405,0-5.665-3.021-5.665-5.401S117.972,4.876,122.377,4.876z M122.377,13.478c1.401,0,2.49-1.14,2.49-3.201
		s-1.089-3.201-2.49-3.201c-1.401,0-2.49,1.14-2.49,3.201S120.976,13.478,122.377,13.478z M136.333,15.298h-3.689l-3.689-10.042
		h3.362l2.381,7.842l2.428-7.842h2.895L136.333,15.298z M144.018,11.217c0.062,1.56,0.778,2.38,2.039,2.38
		c1.307,0,1.541-0.68,1.696-1.36h3.175c-0.623,3.181-2.755,3.441-4.918,3.441c-2.708,0-5.074-1.28-5.074-5.241
		c0-3.881,2.35-5.561,5.027-5.561c3.813,0,5.12,2.421,5.136,6.341H144.018z M147.925,9.137c-0.031-1.64-0.872-2.181-1.93-2.181
		c-1.385,0-1.79,1.14-1.93,2.181H147.925z M153.041,7.317c0-0.64-0.016-1.38-0.062-2.06h2.895c0.031,0.6,0.062,1.2,0.062,1.8h0.031
		c0.778-1.34,1.945-2.181,3.315-2.181c2.848,0,3.922,2.08,3.922,4.701v5.721h-2.988v-5.141c0-1.6-0.545-2.721-1.899-2.721
		c-1.23,0-2.288,1.22-2.288,3.441v4.421h-2.988V7.317z M173.953,12.158c0,0.54,0.14,0.9,0.374,1.14c0.233,0.24,0.591,0.3,0.98,0.3
		c0.623,0,1.556-0.12,1.556-1.1c0-0.7-0.7-0.94-1.307-1.06l-2.07-0.42c-1.494-0.3-2.366-1.22-2.366-2.781
		c0-2.861,2.553-3.361,4.264-3.361c3.393,0,4.311,1.26,4.374,3.361h-2.988c-0.047-0.54-0.202-0.86-0.389-1.02
		c-0.218-0.18-0.685-0.26-1.058-0.26c-0.482,0-1.121,0.26-1.121,0.88c0,0.72,0.732,0.9,1.37,1.04l2.023,0.42
		c1.712,0.36,2.35,1.34,2.35,3.001c0,3.061-3.019,3.381-4.747,3.381c-3.907,0-4.218-2.04-4.327-3.521H173.953z M181.638,8.217
		c0.156-2.621,2.443-3.341,4.498-3.341c3.051,0,4.794,0.94,4.794,4.341v3.841c0,0.74,0.016,1.5,0.062,2.24h-2.895
		c-0.031-0.34-0.062-1.08-0.062-1.62h-0.031c-0.716,1.52-2.055,2-3.377,2c-2.226,0-3.533-1.16-3.533-3.261
		c0-2.38,1.743-3.461,4.669-3.461h2.179c0-1.6-0.576-2-1.759-2c-1.105,0-1.448,0.56-1.463,1.26H181.638z M186.697,10.917
		c-2.008,0-2.428,0.68-2.428,1.52c0,0.62,0.451,1.04,1.292,1.04c1.945,0,2.381-1.52,2.381-2.561H186.697z M194.288,7.697h-1.805
		v-2.44h1.805c0-3.881,1.385-4.521,4.249-4.521c0.327,0,0.98,0.06,1.307,0.12v2.28c-0.234-0.04-0.514-0.08-0.809-0.08
		c-1.152,0-1.712,0.34-1.712,2.201h2.35v2.44h-2.397v7.602h-2.988V7.697z M203.966,11.217c0.062,1.56,0.778,2.38,2.039,2.38
		c1.307,0,1.541-0.68,1.696-1.36h3.175c-0.623,3.181-2.755,3.441-4.918,3.441c-2.708,0-5.074-1.28-5.074-5.241
		c0-3.881,2.35-5.561,5.027-5.561c3.813,0,5.12,2.421,5.136,6.341H203.966z M207.873,9.137c-0.031-1.64-0.872-2.181-1.93-2.181
		c-1.385,0-1.79,1.14-1.93,2.181H207.873z M211.978,5.256h1.914V3.216l2.988-1.4v3.441h2.521v2.44h-2.521v3.141
		c0,1.4,0.14,2.14,1.339,2.14c0.28,0,0.716-0.04,1.183-0.12v2.441c-0.28,0.06-1.074,0.24-2.008,0.24
		c-2.288,0-3.502-1.14-3.502-3.581V7.697h-1.914V5.256z M224.052,15.298l-4.016-10.042h3.486l2.241,6.901l2.397-6.901h2.942
		l-5.572,13.883h-3.175L224.052,15.298z M238.35,6.917c0-0.62-0.016-1.12-0.062-1.66h2.895c0.047,0.56,0.062,1.1,0.062,1.66
		c0.685-1.04,1.556-2.04,3.502-2.04c2.475,0,4.342,2.02,4.342,5.461c0,3.321-1.805,5.341-4.42,5.341c-1.728,0-2.724-0.9-3.331-1.7
		v5.161h-2.988V6.917z M243.657,7.197c-1.354,0-2.319,1.22-2.319,3.001c0,1.94,0.965,3.161,2.319,3.161
		c1.323,0,2.257-1.26,2.257-3.021C245.914,8.717,245.198,7.197,243.657,7.197z M251.03,7.317c0-0.64-0.016-1.38-0.062-2.06h2.895
		c0.047,0.72,0.062,1.44,0.062,2.16h0.031c0.732-1.92,1.541-2.3,3.502-2.3v3.281c-0.218-0.04-0.451-0.08-0.794-0.08
		c-1.603,0-2.646,1.16-2.646,3.181v3.801h-2.988V7.317z M264.195,4.876c4.405,0,5.665,3.021,5.665,5.401s-1.261,5.401-5.665,5.401
		c-4.405,0-5.665-3.021-5.665-5.401S259.79,4.876,264.195,4.876z M264.195,13.478c1.401,0,2.49-1.14,2.49-3.201
		s-1.089-3.201-2.49-3.201c-1.401,0-2.49,1.14-2.49,3.201S262.794,13.478,264.195,13.478z M272.704,7.697h-1.805v-2.44h1.805
		c0-3.881,1.385-4.521,4.249-4.521c0.327,0,0.98,0.06,1.307,0.12v2.28c-0.234-0.04-0.514-0.08-0.809-0.08
		c-1.152,0-1.712,0.34-1.712,2.201h2.35v2.44h-2.397v7.602h-2.988V7.697z M279.863,0.855h3.268v2.801h-3.268V0.855z M280.003,5.256
		h2.988v10.042h-2.988V5.256z M285.758,0.855h2.988v14.443h-2.988V0.855z M293.896,11.217c0.062,1.56,0.778,2.38,2.039,2.38
		c1.307,0,1.541-0.68,1.696-1.36h3.175c-0.623,3.181-2.755,3.441-4.918,3.441c-2.708,0-5.074-1.28-5.074-5.241
		c0-3.881,2.35-5.561,5.027-5.561c3.813,0,5.121,2.421,5.136,6.341H293.896z M297.802,9.137c-0.031-1.64-0.871-2.181-1.93-2.181
		c-1.385,0-1.79,1.14-1.93,2.181H297.802z M308.458,8.217c0.156-2.621,2.443-3.341,4.498-3.341c3.051,0,4.794,0.94,4.794,4.341
		v3.841c0,0.74,0.016,1.5,0.062,2.24h-2.895c-0.031-0.34-0.062-1.08-0.062-1.62h-0.031c-0.716,1.52-2.055,2-3.377,2
		c-2.226,0-3.533-1.16-3.533-3.261c0-2.38,1.743-3.461,4.669-3.461h2.179c0-1.6-0.576-2-1.759-2c-1.105,0-1.448,0.56-1.463,1.26
		H308.458z M313.516,10.917c-2.008,0-2.428,0.68-2.428,1.52c0,0.62,0.451,1.04,1.292,1.04c1.945,0,2.381-1.52,2.381-2.561H313.516z
		 M329.792,11.538c-0.28,3.261-2.802,4.141-5.105,4.141c-2.319,0-5.058-1.36-5.058-5.361c0-4.021,2.553-5.441,5.261-5.441
		c2.132,0,4.529,0.84,4.809,3.941h-3.082c-0.171-1.24-0.763-1.74-1.728-1.74c-1.339,0-2.086,1.34-2.086,3.181
		c0,1.76,0.623,3.221,2.086,3.221c0.98,0,1.697-0.64,1.728-1.94H329.792z M331.734,7.317c0-0.64-0.016-1.38-0.062-2.06h2.895
		c0.047,0.72,0.062,1.44,0.062,2.16h0.031c0.732-1.92,1.541-2.3,3.502-2.3v3.281c-0.218-0.04-0.451-0.08-0.794-0.08
		c-1.603,0-2.646,1.16-2.646,3.181v3.801h-2.988V7.317z M344.898,4.876c4.405,0,5.665,3.021,5.665,5.401s-1.261,5.401-5.665,5.401
		s-5.665-3.021-5.665-5.401S340.493,4.876,344.898,4.876z M344.898,13.478c1.401,0,2.49-1.14,2.49-3.201s-1.09-3.201-2.49-3.201
		c-1.401,0-2.49,1.14-2.49,3.201S343.497,13.478,344.898,13.478z M354.979,12.158c0,0.54,0.14,0.9,0.374,1.14
		c0.233,0.24,0.591,0.3,0.98,0.3c0.622,0,1.556-0.12,1.556-1.1c0-0.7-0.7-0.94-1.307-1.06l-2.07-0.42
		c-1.494-0.3-2.366-1.22-2.366-2.781c0-2.861,2.552-3.361,4.264-3.361c3.393,0,4.311,1.26,4.374,3.361h-2.988
		c-0.047-0.54-0.202-0.86-0.389-1.02c-0.218-0.18-0.685-0.26-1.058-0.26c-0.482,0-1.121,0.26-1.121,0.88c0,0.72,0.731,0.9,1.37,1.04
		l2.023,0.42c1.712,0.36,2.35,1.34,2.35,3.001c0,3.061-3.019,3.381-4.747,3.381c-3.906,0-4.218-2.04-4.327-3.521H354.979z
		 M365.357,12.158c0,0.54,0.14,0.9,0.374,1.14c0.234,0.24,0.591,0.3,0.98,0.3c0.623,0,1.556-0.12,1.556-1.1
		c0-0.7-0.7-0.94-1.307-1.06l-2.07-0.42c-1.494-0.3-2.366-1.22-2.366-2.781c0-2.861,2.553-3.361,4.265-3.361
		c3.393,0,4.311,1.26,4.373,3.361h-2.988c-0.047-0.54-0.202-0.86-0.389-1.02c-0.218-0.18-0.685-0.26-1.058-0.26
		c-0.482,0-1.121,0.26-1.121,0.88c0,0.72,0.731,0.9,1.37,1.04l2.023,0.42c1.712,0.36,2.35,1.34,2.35,3.001
		c0,3.061-3.019,3.381-4.747,3.381c-3.907,0-4.218-2.04-4.327-3.521H365.357z M378.005,5.256h1.914V3.216l2.988-1.4v3.441h2.521
		v2.44h-2.521v3.141c0,1.4,0.14,2.14,1.339,2.14c0.28,0,0.716-0.04,1.183-0.12v2.441c-0.28,0.06-1.074,0.24-2.008,0.24
		c-2.288,0-3.502-1.14-3.502-3.581V7.697h-1.914V5.256z M387.092,0.855h2.988v6.121c0.965-1.46,1.852-2.1,3.3-2.1
		c2.802,0,3.875,2.08,3.875,4.701v5.721h-2.988v-5.141c0-1.6-0.545-2.721-1.899-2.721c-1.23,0-2.288,1.22-2.288,3.441v4.421h-2.988
		V0.855z M402.278,11.217c0.062,1.56,0.778,2.38,2.039,2.38c1.307,0,1.541-0.68,1.697-1.36h3.175
		c-0.622,3.181-2.755,3.441-4.918,3.441c-2.708,0-5.074-1.28-5.074-5.241c0-3.881,2.35-5.561,5.027-5.561
		c3.813,0,5.121,2.421,5.136,6.341H402.278z M406.185,9.137c-0.031-1.64-0.872-2.181-1.93-2.181c-1.385,0-1.79,1.14-1.93,2.181
		H406.185z M427.221,13.638c0,0.62,0.016,1.12,0.062,1.66h-2.895c-0.047-0.56-0.062-1.1-0.062-1.66
		c-0.685,1.04-1.556,2.04-3.502,2.04c-2.475,0-4.342-2.021-4.342-5.461c0-3.321,1.805-5.341,4.42-5.341c1.728,0,2.724,0.9,3.331,1.7
		V0.855h2.988V13.638z M421.914,13.358c1.354,0,2.319-1.22,2.319-3.001c0-1.94-0.965-3.161-2.319-3.161
		c-1.323,0-2.257,1.26-2.257,3.021C419.657,11.838,420.373,13.358,421.914,13.358z M434.828,4.876c4.405,0,5.665,3.021,5.665,5.401
		s-1.261,5.401-5.665,5.401s-5.665-3.021-5.665-5.401S430.423,4.876,434.828,4.876z M434.828,13.478c1.401,0,2.49-1.14,2.49-3.201
		s-1.089-3.201-2.49-3.201c-1.401,0-2.49,1.14-2.49,3.201S433.427,13.478,434.828,13.478z M444.909,12.158
		c0,0.54,0.14,0.9,0.374,1.14c0.234,0.24,0.591,0.3,0.98,0.3c0.623,0,1.556-0.12,1.556-1.1c0-0.7-0.7-0.94-1.307-1.06l-2.07-0.42
		c-1.494-0.3-2.366-1.22-2.366-2.781c0-2.861,2.553-3.361,4.265-3.361c3.393,0,4.311,1.26,4.373,3.361h-2.988
		c-0.047-0.54-0.202-0.86-0.389-1.02c-0.218-0.18-0.685-0.26-1.058-0.26c-0.482,0-1.121,0.26-1.121,0.88c0,0.72,0.731,0.9,1.37,1.04
		l2.023,0.42c1.712,0.36,2.35,1.34,2.35,3.001c0,3.061-3.019,3.381-4.747,3.381c-3.907,0-4.218-2.04-4.327-3.521H444.909z
		 M455.318,11.217c0.062,1.56,0.778,2.38,2.039,2.38c1.307,0,1.541-0.68,1.696-1.36h3.175c-0.623,3.181-2.755,3.441-4.918,3.441
		c-2.708,0-5.074-1.28-5.074-5.241c0-3.881,2.35-5.561,5.027-5.561c3.813,0,5.121,2.421,5.136,6.341H455.318z M459.224,9.137
		c-0.031-1.64-0.871-2.181-1.93-2.181c-1.385,0-1.79,1.14-1.93,2.181H459.224z M470.098,7.317c0-0.64-0.016-1.38-0.062-2.06h2.895
		c0.047,0.72,0.062,1.44,0.062,2.16h0.031c0.732-1.92,1.541-2.3,3.502-2.3v3.281c-0.218-0.04-0.451-0.08-0.794-0.08
		c-1.603,0-2.646,1.16-2.646,3.181v3.801h-2.988V7.317z M477.955,8.217c0.156-2.621,2.444-3.341,4.498-3.341
		c3.051,0,4.794,0.94,4.794,4.341v3.841c0,0.74,0.016,1.5,0.062,2.24h-2.895c-0.031-0.34-0.062-1.08-0.062-1.62h-0.031
		c-0.716,1.52-2.055,2-3.377,2c-2.226,0-3.533-1.16-3.533-3.261c0-2.38,1.743-3.461,4.669-3.461h2.179c0-1.6-0.576-2-1.759-2
		c-1.105,0-1.448,0.56-1.463,1.26H477.955z M483.013,10.917c-2.008,0-2.428,0.68-2.428,1.52c0,0.62,0.451,1.04,1.292,1.04
		c1.945,0,2.381-1.52,2.381-2.561H483.013z M489.702,7.317c0-0.64-0.016-1.38-0.062-2.06h2.895c0.031,0.6,0.062,1.2,0.062,1.8h0.031
		c0.778-1.34,1.945-2.181,3.315-2.181c2.848,0,3.922,2.08,3.922,4.701v5.721h-2.988v-5.141c0-1.6-0.545-2.721-1.899-2.721
		c-1.23,0-2.288,1.22-2.288,3.441v4.421h-2.988V7.317z M509.557,13.118h-0.031c-0.7,1.44-2.163,2.04-3.486,2.04
		c-2.506,0-4.249-2.26-4.249-5.141c0-3.181,1.759-5.141,4.311-5.141c1.556,0,2.739,0.7,3.517,1.98h0.031
		c0-0.62,0.016-1.16,0.062-1.6h2.895c-0.031,0.4-0.062,1.02-0.062,1.6v6.921c0,4.721-2.319,5.741-5.619,5.741
		c-4.265,0-4.669-1.86-4.794-3.561h3.175c0.093,0.6,0.311,0.94,0.623,1.12c0.327,0.2,0.716,0.24,1.136,0.24
		c1.665,0,2.49-0.74,2.49-3.421V13.118z M507.223,12.718c1.494,0,2.335-1.12,2.335-2.7c0-1.7-1.043-2.701-2.366-2.701
		c-1.448,0-2.226,1.14-2.226,2.701C504.966,11.558,505.806,12.718,507.223,12.718z M517.569,11.217
		c0.062,1.56,0.778,2.38,2.039,2.38c1.307,0,1.541-0.68,1.697-1.36h3.175c-0.623,3.181-2.755,3.441-4.918,3.441
		c-2.708,0-5.074-1.28-5.074-5.241c0-3.881,2.35-5.561,5.027-5.561c3.813,0,5.12,2.421,5.136,6.341H517.569z M521.475,9.137
		c-0.031-1.64-0.872-2.181-1.93-2.181c-1.385,0-1.79,1.14-1.93,2.181H521.475z M531.088,8.797h7.782v2.321h-7.782V8.797z
		 M549.137,3.656h-3.268V0.855h3.268V3.656z M546.009,5.256h2.988v10.042h-2.988V5.256z M551.641,7.317
		c0-0.64-0.016-1.38-0.062-2.06h2.895c0.031,0.6,0.062,1.2,0.062,1.8h0.031c0.778-1.34,1.945-2.181,3.315-2.181
		c2.848,0,3.922,2.08,3.922,4.701v5.721h-2.988v-5.141c0-1.6-0.545-2.721-1.899-2.721c-1.23,0-2.288,1.22-2.288,3.441v4.421h-2.988
		V7.317z M573.909,11.538c-0.28,3.261-2.801,4.141-5.105,4.141c-2.319,0-5.058-1.36-5.058-5.361c0-4.021,2.552-5.441,5.261-5.441
		c2.132,0,4.529,0.84,4.809,3.941h-3.082c-0.171-1.24-0.763-1.74-1.728-1.74c-1.339,0-2.085,1.34-2.085,3.181
		c0,1.76,0.622,3.221,2.085,3.221c0.981,0,1.697-0.64,1.728-1.94H573.909z M575.975,0.855h2.988v14.443h-2.988V0.855z
		 M591.771,13.238c0,0.64,0.016,1.38,0.062,2.06h-2.895c-0.031-0.6-0.062-1.2-0.062-1.8h-0.031c-0.778,1.34-1.946,2.181-3.315,2.181
		c-2.848,0-3.922-2.08-3.922-4.701V5.256h2.988v5.141c0,1.6,0.545,2.721,1.899,2.721c1.229,0,2.288-1.22,2.288-3.441V5.256h2.988
		V13.238z M604.451,13.638c0,0.62,0.016,1.12,0.062,1.66h-2.895c-0.047-0.56-0.062-1.1-0.062-1.66
		c-0.685,1.04-1.556,2.04-3.502,2.04c-2.475,0-4.342-2.021-4.342-5.461c0-3.321,1.806-5.341,4.42-5.341c1.728,0,2.724,0.9,3.331,1.7
		V0.855h2.988V13.638z M599.144,13.358c1.354,0,2.319-1.22,2.319-3.001c0-1.94-0.965-3.161-2.319-3.161
		c-1.323,0-2.257,1.26-2.257,3.021C596.887,11.838,597.603,13.358,599.144,13.358z M610.221,3.656h-3.268V0.855h3.268V3.656z
		 M607.093,5.256h2.988v10.042h-2.988V5.256z M612.725,7.317c0-0.64-0.016-1.38-0.062-2.06h2.895c0.031,0.6,0.062,1.2,0.062,1.8
		h0.031c0.778-1.34,1.945-2.181,3.315-2.181c2.848,0,3.922,2.08,3.922,4.701v5.721H619.9v-5.141c0-1.6-0.545-2.721-1.899-2.721
		c-1.229,0-2.288,1.22-2.288,3.441v4.421h-2.988V7.317z M632.581,13.118h-0.031c-0.7,1.44-2.163,2.04-3.486,2.04
		c-2.506,0-4.249-2.26-4.249-5.141c0-3.181,1.759-5.141,4.311-5.141c1.556,0,2.739,0.7,3.517,1.98h0.031
		c0-0.62,0.016-1.16,0.062-1.6h2.895c-0.031,0.4-0.062,1.02-0.062,1.6v6.921c0,4.721-2.319,5.741-5.618,5.741
		c-4.265,0-4.669-1.86-4.794-3.561h3.175c0.093,0.6,0.311,0.94,0.623,1.12c0.327,0.2,0.716,0.24,1.136,0.24
		c1.665,0,2.49-0.74,2.49-3.421V13.118z M630.246,12.718c1.494,0,2.335-1.12,2.335-2.7c0-1.7-1.043-2.701-2.366-2.701
		c-1.447,0-2.226,1.14-2.226,2.701C627.989,11.558,628.83,12.718,630.246,12.718z M643.843,6.917c0-0.62-0.016-1.12-0.062-1.66
		h2.895c0.047,0.56,0.062,1.1,0.062,1.66c0.685-1.04,1.556-2.04,3.502-2.04c2.475,0,4.342,2.02,4.342,5.461
		c0,3.321-1.805,5.341-4.42,5.341c-1.728,0-2.724-0.9-3.331-1.7v5.161h-2.988V6.917z M649.15,7.197c-1.354,0-2.319,1.22-2.319,3.001
		c0,1.94,0.965,3.161,2.319,3.161c1.323,0,2.257-1.26,2.257-3.021C651.407,8.717,650.691,7.197,649.15,7.197z M656.305,8.217
		c0.156-2.621,2.444-3.341,4.498-3.341c3.051,0,4.794,0.94,4.794,4.341v3.841c0,0.74,0.016,1.5,0.062,2.24h-2.895
		c-0.031-0.34-0.062-1.08-0.062-1.62h-0.031c-0.716,1.52-2.054,2-3.377,2c-2.226,0-3.533-1.16-3.533-3.261
		c0-2.38,1.743-3.461,4.669-3.461h2.179c0-1.6-0.576-2-1.759-2c-1.105,0-1.447,0.56-1.463,1.26H656.305z M661.363,10.917
		c-2.008,0-2.428,0.68-2.428,1.52c0,0.62,0.451,1.04,1.292,1.04c1.945,0,2.381-1.52,2.381-2.561H661.363z M667.04,5.256h1.914V3.216
		l2.988-1.4v3.441h2.521v2.44h-2.521v3.141c0,1.4,0.14,2.14,1.339,2.14c0.28,0,0.716-0.04,1.183-0.12v2.441
		c-0.28,0.06-1.074,0.24-2.008,0.24c-2.288,0-3.502-1.14-3.502-3.581V7.697h-1.914V5.256z M679.38,3.656h-3.268V0.855h3.268V3.656z
		 M676.251,5.256h2.988v10.042h-2.988V5.256z M684.389,11.217c0.062,1.56,0.778,2.38,2.039,2.38c1.307,0,1.541-0.68,1.696-1.36
		h3.175c-0.623,3.181-2.755,3.441-4.918,3.441c-2.708,0-5.074-1.28-5.074-5.241c0-3.881,2.35-5.561,5.027-5.561
		c3.813,0,5.121,2.421,5.136,6.341H684.389z M688.296,9.137c-0.031-1.64-0.872-2.181-1.93-2.181c-1.385,0-1.79,1.14-1.93,2.181
		H688.296z M693.413,7.317c0-0.64-0.016-1.38-0.062-2.06h2.895c0.031,0.6,0.062,1.2,0.062,1.8h0.031
		c0.778-1.34,1.945-2.181,3.315-2.181c2.848,0,3.922,2.08,3.922,4.701v5.721h-2.988v-5.141c0-1.6-0.545-2.721-1.899-2.721
		c-1.23,0-2.288,1.22-2.288,3.441v4.421h-2.988V7.317z M705.082,5.256h1.914V3.216l2.988-1.4v3.441h2.521v2.44h-2.521v3.141
		c0,1.4,0.14,2.14,1.339,2.14c0.28,0,0.716-0.04,1.183-0.12v2.441c-0.28,0.06-1.074,0.24-2.008,0.24
		c-2.288,0-3.502-1.14-3.502-3.581V7.697h-1.914V5.256z M716.643,12.158c0,0.54,0.14,0.9,0.374,1.14c0.233,0.24,0.591,0.3,0.981,0.3
		c0.623,0,1.556-0.12,1.556-1.1c0-0.7-0.7-0.94-1.307-1.06l-2.07-0.42c-1.494-0.3-2.366-1.22-2.366-2.781
		c0-2.861,2.552-3.361,4.265-3.361c3.393,0,4.311,1.26,4.373,3.361h-2.988c-0.047-0.54-0.202-0.86-0.389-1.02
		c-0.218-0.18-0.685-0.26-1.058-0.26c-0.482,0-1.121,0.26-1.121,0.88c0,0.72,0.731,0.9,1.37,1.04l2.023,0.42
		c1.712,0.36,2.35,1.34,2.35,3.001c0,3.061-3.019,3.381-4.747,3.381c-3.907,0-4.218-2.04-4.327-3.521H716.643z M743.952,15.298
		h-3.502l-2.179-7.722h-0.031l-2.163,7.722h-3.502l-3.299-10.042h3.362l1.852,7.482h0.031l2.055-7.482h3.689l2.086,7.482h0.031
		l2.008-7.482h2.864L743.952,15.298z M751.993,3.656h-3.268V0.855h3.268V3.656z M748.864,5.256h2.988v10.042h-2.988V5.256z
		 M753.485,5.256h1.914V3.216l2.988-1.4v3.441h2.521v2.44h-2.521v3.141c0,1.4,0.14,2.14,1.339,2.14c0.28,0,0.716-0.04,1.183-0.12
		v2.441c-0.28,0.06-1.074,0.24-2.008,0.24c-2.288,0-3.502-1.14-3.502-3.581V7.697h-1.914V5.256z M762.571,0.855h2.988v6.121
		c0.965-1.46,1.852-2.1,3.299-2.1c2.802,0,3.876,2.08,3.876,4.701v5.721h-2.988v-5.141c0-1.6-0.545-2.721-1.899-2.721
		c-1.23,0-2.288,1.22-2.288,3.441v4.421h-2.988V0.855z M791.172,13.638c0,0.62,0.016,1.12,0.062,1.66h-2.895
		c-0.047-0.56-0.062-1.1-0.062-1.66c-0.685,1.04-1.556,2.04-3.502,2.04c-2.475,0-4.342-2.021-4.342-5.461
		c0-3.321,1.805-5.341,4.42-5.341c1.728,0,2.724,0.9,3.331,1.7V0.855h2.988V13.638z M785.865,13.358c1.354,0,2.319-1.22,2.319-3.001
		c0-1.94-0.965-3.161-2.319-3.161c-1.323,0-2.257,1.26-2.257,3.021C783.608,11.838,784.324,13.358,785.865,13.358z M796.942,3.656
		h-3.268V0.855h3.268V3.656z M793.814,5.256h2.988v10.042h-2.988V5.256z M799.228,8.217c0.156-2.621,2.443-3.341,4.498-3.341
		c3.05,0,4.794,0.94,4.794,4.341v3.841c0,0.74,0.016,1.5,0.062,2.24h-2.895c-0.031-0.34-0.062-1.08-0.062-1.62h-0.031
		c-0.716,1.52-2.054,2-3.377,2c-2.226,0-3.533-1.16-3.533-3.261c0-2.38,1.743-3.461,4.669-3.461h2.179c0-1.6-0.576-2-1.759-2
		c-1.105,0-1.447,0.56-1.463,1.26H799.228z M804.286,10.917c-2.008,0-2.428,0.68-2.428,1.52c0,0.62,0.451,1.04,1.292,1.04
		c1.945,0,2.381-1.52,2.381-2.561H804.286z M810.975,0.855h2.988v5.721c0.607-0.8,1.603-1.7,3.331-1.7c2.615,0,4.42,2.02,4.42,5.341
		c0,3.441-1.868,5.461-4.342,5.461c-1.945,0-2.817-1-3.502-2.04c0,0.56-0.016,1.1-0.062,1.66h-2.895
		c0.047-0.54,0.062-1.04,0.062-1.66V0.855z M816.282,7.197c-1.354,0-2.319,1.22-2.319,3.161c0,1.78,0.965,3.001,2.319,3.001
		c1.541,0,2.257-1.52,2.257-3.141C818.539,8.457,817.605,7.197,816.282,7.197z M826.161,11.217c0.062,1.56,0.778,2.38,2.039,2.38
		c1.307,0,1.541-0.68,1.696-1.36h3.175c-0.622,3.181-2.755,3.441-4.918,3.441c-2.708,0-5.074-1.28-5.074-5.241
		c0-3.881,2.35-5.561,5.027-5.561c3.813,0,5.121,2.421,5.136,6.341H826.161z M830.068,9.137c-0.031-1.64-0.872-2.181-1.93-2.181
		c-1.385,0-1.79,1.14-1.93,2.181H830.068z M834.173,5.256h1.914V3.216l2.988-1.4v3.441h2.521v2.44h-2.521v3.141
		c0,1.4,0.14,2.14,1.339,2.14c0.28,0,0.716-0.04,1.183-0.12v2.441c-0.28,0.06-1.074,0.24-2.008,0.24
		c-2.288,0-3.502-1.14-3.502-3.581V7.697h-1.914V5.256z M845.765,11.217c0.062,1.56,0.778,2.38,2.039,2.38
		c1.307,0,1.541-0.68,1.696-1.36h3.175c-0.622,3.181-2.755,3.441-4.918,3.441c-2.708,0-5.074-1.28-5.074-5.241
		c0-3.881,2.35-5.561,5.027-5.561c3.813,0,5.121,2.421,5.136,6.341H845.765z M849.672,9.137c-0.031-1.64-0.872-2.181-1.93-2.181
		c-1.385,0-1.79,1.14-1.93,2.181H849.672z M857.263,12.158c0,0.54,0.14,0.9,0.373,1.14c0.234,0.24,0.591,0.3,0.981,0.3
		c0.623,0,1.556-0.12,1.556-1.1c0-0.7-0.7-0.94-1.307-1.06l-2.07-0.42c-1.494-0.3-2.366-1.22-2.366-2.781
		c0-2.861,2.552-3.361,4.264-3.361c3.393,0,4.311,1.26,4.374,3.361h-2.988c-0.047-0.54-0.202-0.86-0.389-1.02
		c-0.218-0.18-0.685-0.26-1.058-0.26c-0.482,0-1.121,0.26-1.121,0.88c0,0.72,0.732,0.9,1.37,1.04l2.023,0.42
		c1.712,0.36,2.35,1.34,2.35,3.001c0,3.061-3.019,3.381-4.747,3.381c-3.907,0-4.218-2.04-4.327-3.521H857.263z"/>
	<g>
		<path d="M866.883,2.693c-0.662,0.548-1.052,0.734-1.804,1.038V1.784c0.779-0.292,1.586-0.875,2.111-1.283h1.486v8.137h-1.794
			V2.693z"/>
		<path d="M871.618,6.843h1.85l-1.224,3.206h-1.396L871.618,6.843z"/>
		<path d="M874.485,6.913c1.677-1.352,3.798-2.588,3.798-4.045c0-0.676-0.417-1.026-0.879-1.026c-0.698,0-0.952,0.501-0.979,1.177
			h-1.794c0-1.923,1.051-2.739,2.683-2.739c1.73,0,2.818,0.933,2.818,2.6c0,2.005-2.193,3.474-3.371,4.104v0.023h3.398v1.632h-5.674
			V6.913z"/>
		<path d="M881.687,6.843h1.85l-1.224,3.206h-1.396L881.687,6.843z"/>
		<path d="M886.838,3.719h0.398c0.853,0,1.024-0.618,1.024-0.979c0-0.723-0.48-0.967-0.961-0.967c-0.362,0-0.815,0.256-0.87,0.874
			h-1.794c0.063-1.877,1.368-2.366,2.683-2.366c1.994,0,2.791,1.096,2.791,2.261c0,1.119-0.534,1.632-1.531,1.9v0.023
			c0.915,0.082,1.668,0.734,1.668,1.97c0,1.83-1.405,2.425-2.892,2.425c-1.723,0-2.909-0.583-2.928-2.611h1.849
			c0,0.816,0.463,1.119,1.043,1.119c0.517,0,1.078-0.269,1.078-1.084c0-0.886-0.589-1.072-1.169-1.072h-0.39V3.719z"/>
	</g>
	<g>
		<path d="M0,39.342h1.93v11.604H0V39.342z"/>
		<path d="M3.548,44.304c0-0.032,0-0.913-0.037-1.473h1.768l0.05,1.216C5.503,43.68,6.001,42.64,7.37,42.64
			c1.232,0,1.756,0.96,1.918,1.521c0.137,0.496,0.174,0.912,0.174,2.417v4.37h-1.88v-5.026c0-0.336,0-0.625-0.1-0.88
			c-0.138-0.352-0.424-0.688-0.896-0.688c-0.398,0-0.76,0.24-0.959,0.625c-0.112,0.208-0.224,0.608-0.224,1.232v4.738H3.548V44.304z
			"/>
		<path d="M19.705,43.152c-0.037-0.4-0.149-2.033-1.457-2.033c-1.432,0-2.029,1.921-2.029,4.306c0,0.688,0,3.97,1.88,3.97
			c0.81,0,1.582-0.656,1.619-2.193h2.029c-0.037,0.688-0.087,1.761-0.81,2.721c-0.797,1.057-1.806,1.296-2.627,1.296
			c-3.101,0-4.108-2.945-4.108-5.81c0-3.666,1.594-6.099,4.121-6.099c1.967,0,3.35,1.537,3.35,3.842H19.705z"/>
		<path d="M27.684,39.374l3.125,11.573h-1.942l-0.647-2.497h-3.561l-0.673,2.497h-1.843l3.25-11.573H27.684z M27.733,46.577
			l-1.245-4.93l-1.332,4.93H27.733z"/>
		<path d="M31.813,39.374h3.449c0.996-0.016,2.005-0.016,2.727,0.784c0.561,0.625,0.785,1.473,0.785,2.225
			c0,2.161-1.444,2.673-1.881,2.833c1.357,0.16,1.457,1.153,1.619,2.657c0.137,1.36,0.212,1.921,0.273,2.241
			c0.1,0.512,0.175,0.641,0.274,0.833h-2.129c-0.087-0.64-0.361-3.569-0.485-4.018c-0.175-0.656-0.648-0.656-0.972-0.656h-1.693
			v4.674h-1.968V39.374z M33.719,44.432h1.557c0.224,0,0.673,0,0.983-0.32c0.137-0.128,0.498-0.528,0.498-1.344
			c0-0.785-0.299-1.152-0.473-1.296c-0.299-0.272-0.66-0.272-1.271-0.272h-1.295V44.432z"/>
		<path d="M40.179,39.406l2.976,0.016c0.498,0,2.017,0.016,3.101,1.04c1.133,1.073,1.531,2.897,1.531,4.546
			c0,3.554-1.481,5.41-3.188,5.811c-0.336,0.08-0.71,0.128-1.619,0.128h-2.801V39.406z M42.134,49.042
			c0.211,0.016,0.535,0.032,0.759,0.032c0.822,0,1.532-0.08,2.092-0.8c0.76-0.977,0.81-2.705,0.81-3.266
			c0-1.633-0.436-3.137-1.644-3.569c-0.398-0.144-0.909-0.224-2.017-0.16V49.042z"/>
		<path d="M50.759,47.25c0,0.544-0.025,2.193,1.631,2.193c1.046,0,1.706-0.641,1.706-1.617c0-1.024-0.561-1.201-1.706-1.553
			c-2.142-0.688-3.313-1.505-3.313-3.505c0-1.905,1.059-3.585,3.562-3.585c0.934,0,2.042,0.272,2.714,1.36
			c0.511,0.833,0.511,1.761,0.511,2.145h-1.854c-0.025-0.4-0.125-1.761-1.457-1.761c-0.896,0-1.482,0.624-1.482,1.569
			c0,1.072,0.66,1.264,1.955,1.681c1.557,0.48,3.088,1.024,3.088,3.281c0,2.081-1.345,3.761-3.835,3.761
			c-3.448,0-3.474-2.849-3.486-3.969H50.759z"/>
		<path d="M59.771,48.818l-1.481,3.938h-1.282l0.921-3.938H59.771z"/>
		<path d="M68.085,50.835c-0.598,0.208-1.133,0.256-1.432,0.256c-1.855,0-1.855-1.504-1.855-2.177V44.48h-1.207v-1.568h1.207v-1.585
			l1.831-0.864v2.449h1.494v1.568h-1.494v3.649c0.013,0.736,0.013,1.201,0.834,1.201c0.274,0,0.398-0.016,0.622-0.048V50.835z"/>
		<path d="M69.279,39.39h1.83v4.578c0.212-0.384,0.673-1.216,1.817-1.216c0.935,0,1.532,0.592,1.831,1.088
			c0.224,0.4,0.411,1.137,0.411,2.193v4.914h-1.831v-4.834c0-0.464,0-1.761-1.033-1.761c-0.522,0-1.183,0.384-1.183,1.649
			l0.012,4.946h-1.854V39.39z"/>
		<path d="M78.315,47.505c0,0.528,0,2.161,1.283,2.161c0.461,0,0.921-0.224,1.096-1.121h1.681c-0.024,0.384-0.087,1.072-0.598,1.761
			c-0.461,0.624-1.282,0.944-2.204,0.944c-0.535,0-1.557-0.128-2.216-1.008c-0.573-0.769-0.81-1.857-0.81-3.153
			c0-1.313,0.249-2.881,1.308-3.826c0.485-0.416,1.083-0.672,1.768-0.672c0.896,0,1.968,0.448,2.54,1.953
			c0.424,1.104,0.398,2.289,0.374,2.961H78.315z M80.657,46.017c0-0.368-0.025-1.809-1.096-1.809c-0.81,0-1.146,0.864-1.184,1.809
			H80.657z"/>
		<path d="M87.34,44.544h-0.935v-1.681h0.935v-1.104c0-1.425,0.373-2.577,2.166-2.577c0.125,0,0.474,0,0.996,0.08v1.648
			c-0.187-0.032-0.236-0.048-0.386-0.048c-0.946,0-0.946,0.64-0.946,1.056v0.944h1.171v1.681H89.17v6.402h-1.83V44.544z"/>
		<path d="M91.36,44.848c0-0.384-0.05-1.552-0.088-2.017h1.731l0.037,1.553c0.236-0.688,0.647-1.665,2.142-1.569v2.129
			c-1.867-0.224-1.979,1.008-1.979,2.017v3.986H91.36V44.848z"/>
		<path d="M97.684,47.505c0,0.528,0,2.161,1.282,2.161c0.461,0,0.922-0.224,1.096-1.121h1.682c-0.025,0.384-0.088,1.072-0.598,1.761
			c-0.461,0.624-1.283,0.944-2.204,0.944c-0.536,0-1.557-0.128-2.217-1.008c-0.572-0.769-0.81-1.857-0.81-3.153
			c0-1.313,0.25-2.881,1.308-3.826c0.485-0.416,1.083-0.672,1.769-0.672c0.896,0,1.967,0.448,2.54,1.953
			c0.423,1.104,0.398,2.289,0.373,2.961H97.684z M100.024,46.017c0-0.368-0.025-1.809-1.096-1.809c-0.81,0-1.146,0.864-1.183,1.809
			H100.024z"/>
		<path d="M109.198,42.848c0,0.144-0.037,1.232-0.037,1.552v9.62h-1.893v-4.018c-0.187,0.288-0.685,1.056-1.743,1.056
			c-1.271,0-2.765-1.168-2.765-4.257c0-3.105,1.407-4.114,2.652-4.114c1.295,0,1.756,1.008,1.905,1.329l0.063-1.168H109.198z
			 M105.052,48.914c0.287,0.512,0.71,0.576,0.972,0.576c1.195,0,1.345-1.697,1.345-2.577s-0.174-2.673-1.444-2.673
			c-1.059,0-1.282,1.408-1.282,2.625C104.642,47.394,104.691,48.29,105.052,48.914z"/>
		<path d="M112.532,42.863v4.818c0,0.704,0,1.776,0.984,1.776c1.183,0,1.183-1.136,1.183-2.513v-4.082h1.893v5.331
			c0.024,1.745,0.037,1.953,0.037,2.161c0.013,0.224,0.025,0.368,0.05,0.592h-1.793l-0.063-1.072
			c-0.187,0.352-0.659,1.28-1.854,1.28c-0.847,0-1.544-0.496-1.893-1.088c-0.411-0.656-0.411-1.777-0.411-2.177v-5.026H112.532z"/>
		<path d="M119.813,47.505c0,0.528,0,2.161,1.283,2.161c0.461,0,0.921-0.224,1.096-1.121h1.681
			c-0.024,0.384-0.087,1.072-0.598,1.761c-0.461,0.624-1.282,0.944-2.204,0.944c-0.535,0-1.557-0.128-2.216-1.008
			c-0.573-0.769-0.81-1.857-0.81-3.153c0-1.313,0.249-2.881,1.308-3.826c0.485-0.416,1.083-0.672,1.768-0.672
			c0.896,0,1.968,0.448,2.54,1.953c0.424,1.104,0.398,2.289,0.374,2.961H119.813z M122.155,46.017c0-0.368-0.025-1.809-1.096-1.809
			c-0.81,0-1.146,0.864-1.184,1.809H122.155z"/>
		<path d="M125.277,44.304c0-0.032,0-0.913-0.037-1.473h1.769l0.049,1.216c0.175-0.368,0.673-1.408,2.043-1.408
			c1.232,0,1.755,0.96,1.917,1.521c0.137,0.496,0.175,0.912,0.175,2.417v4.37h-1.881v-5.026c0-0.336,0-0.625-0.1-0.88
			c-0.137-0.352-0.423-0.688-0.896-0.688c-0.398,0-0.76,0.24-0.959,0.625c-0.111,0.208-0.224,0.608-0.224,1.232v4.738h-1.855V44.304
			z"/>
		<path d="M136.183,45.729c-0.025-0.288-0.1-1.488-0.81-1.488c-0.872,0-0.972,1.696-0.972,2.577c0,0.448,0.037,1.889,0.461,2.481
			c0.174,0.24,0.361,0.272,0.498,0.272c0.199,0,0.771-0.112,0.847-1.553h1.817c-0.024,0.625-0.087,1.601-0.809,2.385
			c-0.448,0.497-1.009,0.752-1.793,0.752c-0.834,0-1.569-0.24-2.142-1.072c-0.548-0.816-0.797-1.889-0.797-3.186
			c0-3.681,2.104-4.193,2.938-4.193c1.17,0,2.553,0.832,2.564,3.025H136.183z"/>
		<path d="M140.438,42.863l1.382,5.603l1.407-5.603h1.83l-2.378,7.939l-0.76,3.217h-1.854l0.797-3.041l-2.416-8.116H140.438z"/>
		<path d="M152.426,42.671c2.278,0,3.262,1.985,3.262,4.242c0,2.273-1.021,4.322-3.3,4.322c-1.793,0-3.212-1.424-3.212-4.258
			C149.176,45.024,149.948,42.671,152.426,42.671z M152.45,49.586c0.81,0,1.357-0.625,1.357-2.77c0-1.072-0.162-2.561-1.382-2.561
			c-1.345,0-1.357,2.001-1.357,2.737C151.068,48.802,151.542,49.586,152.45,49.586z"/>
		<path d="M157.191,44.544h-0.934v-1.681h0.934v-1.104c0-1.425,0.374-2.577,2.167-2.577c0.124,0,0.473,0,0.996,0.08v1.648
			c-0.188-0.032-0.236-0.048-0.387-0.048c-0.945,0-0.945,0.64-0.945,1.056v0.944h1.17v1.681h-1.17v6.402h-1.831V44.544z"/>
		<path d="M168.444,50.947c-0.062-0.496-0.062-0.864-0.062-1.104c-0.697,1.296-1.532,1.296-1.88,1.296
			c-0.909,0-1.32-0.336-1.569-0.64c-0.374-0.48-0.548-1.136-0.548-1.777c0-0.64,0.174-1.825,1.332-2.513
			c0.772-0.448,1.881-0.448,2.49-0.448c0-0.528-0.012-0.784-0.087-1.072c-0.162-0.592-0.647-0.672-0.821-0.672
			c-0.262,0-0.536,0.144-0.697,0.448c-0.138,0.272-0.138,0.528-0.138,0.72h-1.806c0.013-0.432,0.051-1.297,0.71-1.905
			c0.573-0.528,1.308-0.656,1.905-0.656c0.523,0,1.619,0.112,2.241,1.041c0.423,0.656,0.436,1.616,0.436,1.984l0.013,3.25
			c0,0.688,0.037,1.376,0.149,2.049H168.444z M166.179,48.45c0,0.544,0.286,1.152,0.896,1.152c0.336,0,0.61-0.208,0.784-0.464
			c0.324-0.512,0.349-1.137,0.349-2.001C167.025,47.009,166.179,47.489,166.179,48.45z"/>
		<path d="M175.751,39.39h1.855v10.244c0,0.48,0.025,1.008,0.05,1.313h-1.868l-0.049-1.168c-0.125,0.288-0.25,0.592-0.636,0.913
			c-0.46,0.384-0.946,0.416-1.22,0.416c-1.682,0-2.678-1.489-2.678-4.018c0-2.673,1.134-4.338,2.777-4.338
			c1.133,0,1.605,0.816,1.768,1.104V39.39z M174.345,49.57c0.535,0,0.971-0.417,1.17-0.913c0.273-0.672,0.299-1.504,0.299-1.905
			c0-1.584-0.535-2.449-1.369-2.449c-1.233,0-1.37,1.905-1.37,2.721C173.074,48.37,173.423,49.57,174.345,49.57z"/>
		<path d="M180.443,42.863l1.419,5.49l1.444-5.49h1.78l-2.266,8.083h-2.042l-2.304-8.083H180.443z"/>
		<path d="M187.601,47.505c0,0.528,0,2.161,1.282,2.161c0.46,0,0.921-0.224,1.096-1.121h1.681c-0.025,0.384-0.087,1.072-0.598,1.761
			c-0.461,0.624-1.282,0.944-2.204,0.944c-0.535,0-1.556-0.128-2.216-1.008c-0.573-0.769-0.81-1.857-0.81-3.153
			c0-1.313,0.249-2.881,1.308-3.826c0.485-0.416,1.083-0.672,1.768-0.672c0.896,0,1.968,0.448,2.54,1.953
			c0.424,1.104,0.398,2.289,0.374,2.961H187.601z M189.94,46.017c0-0.368-0.024-1.809-1.096-1.809c-0.809,0-1.145,0.864-1.183,1.809
			H189.94z"/>
		<path d="M193.039,44.848c0-0.384-0.05-1.552-0.087-2.017h1.73l0.037,1.553c0.236-0.688,0.647-1.665,2.142-1.569v2.129
			c-1.868-0.224-1.979,1.008-1.979,2.017v3.986h-1.843V44.848z"/>
		<path d="M199.163,48.61c0.025,0.512,0.273,1.104,1.046,1.104c0.66,0,0.972-0.48,0.972-0.96c0-0.368-0.15-0.656-0.872-0.913
			l-1.146-0.4c-0.511-0.192-1.594-0.592-1.594-2.241c0-1.569,1.121-2.529,2.752-2.529c1.295,0,2.341,0.769,2.391,2.385h-1.682
			c-0.049-0.896-0.609-0.96-0.896-0.96c-0.498,0-0.871,0.304-0.871,0.8c0,0.544,0.312,0.656,0.859,0.848l1.133,0.4
			c1.146,0.4,1.681,1.152,1.681,2.257c0,1.393-0.934,2.785-2.889,2.785c-0.81,0-1.581-0.224-2.153-0.993
			c-0.411-0.56-0.449-1.2-0.461-1.584H199.163z"/>
		<path d="M205.586,47.505c0,0.528,0,2.161,1.282,2.161c0.461,0,0.922-0.224,1.096-1.121h1.682
			c-0.025,0.384-0.088,1.072-0.598,1.761c-0.461,0.624-1.283,0.944-2.204,0.944c-0.536,0-1.557-0.128-2.217-1.008
			c-0.572-0.769-0.81-1.857-0.81-3.153c0-1.313,0.25-2.881,1.308-3.826c0.485-0.416,1.083-0.672,1.769-0.672
			c0.896,0,1.967,0.448,2.54,1.953c0.423,1.104,0.398,2.289,0.373,2.961H205.586z M207.927,46.017c0-0.368-0.025-1.809-1.096-1.809
			c-0.81,0-1.146,0.864-1.183,1.809H207.927z"/>
		<path d="M215.967,47.505c0,0.528,0,2.161,1.282,2.161c0.461,0,0.922-0.224,1.096-1.121h1.682
			c-0.025,0.384-0.088,1.072-0.598,1.761c-0.461,0.624-1.283,0.944-2.204,0.944c-0.536,0-1.557-0.128-2.217-1.008
			c-0.572-0.769-0.81-1.857-0.81-3.153c0-1.313,0.25-2.881,1.308-3.826c0.485-0.416,1.083-0.672,1.769-0.672
			c0.896,0,1.967,0.448,2.54,1.953c0.423,1.104,0.398,2.289,0.373,2.961H215.967z M218.308,46.017c0-0.368-0.025-1.809-1.096-1.809
			c-0.81,0-1.146,0.864-1.183,1.809H218.308z"/>
		<path d="M222.65,42.863l1.42,5.49l1.444-5.49h1.78l-2.267,8.083h-2.041l-2.304-8.083H222.65z"/>
		<path d="M229.808,47.505c0,0.528,0,2.161,1.282,2.161c0.461,0,0.922-0.224,1.096-1.121h1.681
			c-0.024,0.384-0.087,1.072-0.598,1.761c-0.46,0.624-1.282,0.944-2.203,0.944c-0.535,0-1.557-0.128-2.217-1.008
			c-0.572-0.769-0.809-1.857-0.809-3.153c0-1.313,0.248-2.881,1.307-3.826c0.486-0.416,1.084-0.672,1.769-0.672
			c0.896,0,1.967,0.448,2.54,1.953c0.423,1.104,0.398,2.289,0.373,2.961H229.808z M232.148,46.017c0-0.368-0.024-1.809-1.096-1.809
			c-0.81,0-1.146,0.864-1.183,1.809H232.148z"/>
		<path d="M235.271,44.304c0-0.032,0-0.913-0.038-1.473h1.769l0.05,1.216c0.174-0.368,0.672-1.408,2.042-1.408
			c1.232,0,1.756,0.96,1.917,1.521c0.138,0.496,0.175,0.912,0.175,2.417v4.37h-1.88v-5.026c0-0.336,0-0.625-0.1-0.88
			c-0.137-0.352-0.424-0.688-0.896-0.688c-0.398,0-0.76,0.24-0.959,0.625c-0.112,0.208-0.225,0.608-0.225,1.232v4.738h-1.854V44.304
			z"/>
		<path d="M246.55,50.835c-0.598,0.208-1.134,0.256-1.433,0.256c-1.854,0-1.854-1.504-1.854-2.177V44.48h-1.208v-1.568h1.208v-1.585
			l1.83-0.864v2.449h1.494v1.568h-1.494v3.649c0.012,0.736,0.012,1.201,0.834,1.201c0.273,0,0.398-0.016,0.623-0.048V50.835z"/>
		<path d="M248.976,48.61c0.025,0.512,0.273,1.104,1.046,1.104c0.66,0,0.972-0.48,0.972-0.96c0-0.368-0.15-0.656-0.872-0.913
			l-1.146-0.4c-0.511-0.192-1.594-0.592-1.594-2.241c0-1.569,1.121-2.529,2.752-2.529c1.295,0,2.341,0.769,2.391,2.385h-1.682
			c-0.049-0.896-0.609-0.96-0.896-0.96c-0.498,0-0.871,0.304-0.871,0.8c0,0.544,0.312,0.656,0.859,0.848l1.133,0.4
			c1.146,0.4,1.681,1.152,1.681,2.257c0,1.393-0.934,2.785-2.889,2.785c-0.81,0-1.581-0.224-2.153-0.993
			c-0.411-0.56-0.449-1.2-0.461-1.584H248.976z"/>
		<path d="M260.341,42.671c2.278,0,3.262,1.985,3.262,4.242c0,2.273-1.021,4.322-3.299,4.322c-1.793,0-3.213-1.424-3.213-4.258
			C257.091,45.024,257.862,42.671,260.341,42.671z M260.365,49.586c0.81,0,1.357-0.625,1.357-2.77c0-1.072-0.162-2.561-1.382-2.561
			c-1.345,0-1.357,2.001-1.357,2.737C258.983,48.802,259.456,49.586,260.365,49.586z"/>
		<path d="M264.982,44.848c0-0.384-0.05-1.552-0.087-2.017h1.73l0.037,1.553c0.236-0.688,0.647-1.665,2.142-1.569v2.129
			c-1.868-0.224-1.979,1.008-1.979,2.017v3.986h-1.843V44.848z"/>
		<path d="M274.566,48.61c0.024,0.512,0.274,1.104,1.046,1.104c0.66,0,0.971-0.48,0.971-0.96c0-0.368-0.148-0.656-0.871-0.913
			l-1.146-0.4c-0.511-0.192-1.594-0.592-1.594-2.241c0-1.569,1.12-2.529,2.752-2.529c1.295,0,2.341,0.769,2.391,2.385h-1.681
			c-0.051-0.896-0.61-0.96-0.896-0.96c-0.498,0-0.872,0.304-0.872,0.8c0,0.544,0.312,0.656,0.859,0.848l1.133,0.4
			c1.146,0.4,1.681,1.152,1.681,2.257c0,1.393-0.934,2.785-2.889,2.785c-0.809,0-1.581-0.224-2.154-0.993
			c-0.41-0.56-0.447-1.2-0.46-1.584H274.566z"/>
		<path d="M280.989,47.505c0,0.528,0,2.161,1.282,2.161c0.461,0,0.922-0.224,1.096-1.121h1.681
			c-0.024,0.384-0.087,1.072-0.598,1.761c-0.46,0.624-1.282,0.944-2.203,0.944c-0.535,0-1.557-0.128-2.217-1.008
			c-0.572-0.769-0.809-1.857-0.809-3.153c0-1.313,0.248-2.881,1.307-3.826c0.486-0.416,1.084-0.672,1.769-0.672
			c0.896,0,1.967,0.448,2.54,1.953c0.423,1.104,0.398,2.289,0.373,2.961H280.989z M283.33,46.017c0-0.368-0.024-1.809-1.096-1.809
			c-0.81,0-1.146,0.864-1.183,1.809H283.33z"/>
		<path d="M286.428,44.848c0-0.384-0.05-1.552-0.087-2.017h1.73l0.037,1.553c0.237-0.688,0.648-1.665,2.143-1.569v2.129
			c-1.868-0.224-1.98,1.008-1.98,2.017v3.986h-1.843V44.848z"/>
		<path d="M291.208,39.39h1.967v2.065h-1.967V39.39z M291.27,42.848h1.843v8.099h-1.843V42.848z"/>
		<path d="M297.693,42.671c2.278,0,3.263,1.985,3.263,4.242c0,2.273-1.021,4.322-3.3,4.322c-1.793,0-3.212-1.424-3.212-4.258
			C294.444,45.024,295.216,42.671,297.693,42.671z M297.719,49.586c0.81,0,1.356-0.625,1.356-2.77c0-1.072-0.161-2.561-1.382-2.561
			c-1.345,0-1.356,2.001-1.356,2.737C296.337,48.802,296.81,49.586,297.719,49.586z"/>
		<path d="M304.141,42.863v4.818c0,0.704,0,1.776,0.983,1.776c1.184,0,1.184-1.136,1.184-2.513v-4.082h1.893v5.331
			c0.024,1.745,0.037,1.953,0.037,2.161c0.012,0.224,0.024,0.368,0.05,0.592h-1.793l-0.063-1.072c-0.187,0.352-0.66,1.28-1.855,1.28
			c-0.847,0-1.544-0.496-1.893-1.088c-0.411-0.656-0.411-1.777-0.411-2.177v-5.026H304.141z"/>
		<path d="M311.223,48.61c0.024,0.512,0.274,1.104,1.046,1.104c0.66,0,0.971-0.48,0.971-0.96c0-0.368-0.148-0.656-0.871-0.913
			l-1.146-0.4c-0.511-0.192-1.594-0.592-1.594-2.241c0-1.569,1.12-2.529,2.752-2.529c1.295,0,2.341,0.769,2.391,2.385h-1.681
			c-0.051-0.896-0.61-0.96-0.896-0.96c-0.498,0-0.872,0.304-0.872,0.8c0,0.544,0.312,0.656,0.859,0.848l1.133,0.4
			c1.146,0.4,1.681,1.152,1.681,2.257c0,1.393-0.934,2.785-2.889,2.785c-0.809,0-1.581-0.224-2.154-0.993
			c-0.41-0.56-0.447-1.2-0.46-1.584H311.223z"/>
		<path d="M323.397,50.947c-0.063-0.496-0.063-0.864-0.063-1.104c-0.697,1.296-1.531,1.296-1.881,1.296
			c-0.908,0-1.319-0.336-1.568-0.64c-0.373-0.48-0.548-1.136-0.548-1.777c0-0.64,0.175-1.825,1.332-2.513
			c0.772-0.448,1.88-0.448,2.49-0.448c0-0.528-0.013-0.784-0.087-1.072c-0.162-0.592-0.647-0.672-0.822-0.672
			c-0.261,0-0.535,0.144-0.697,0.448c-0.137,0.272-0.137,0.528-0.137,0.72h-1.805c0.012-0.432,0.049-1.297,0.709-1.905
			c0.573-0.528,1.308-0.656,1.905-0.656c0.522,0,1.618,0.112,2.241,1.041c0.424,0.656,0.436,1.616,0.436,1.984l0.013,3.25
			c0,0.688,0.037,1.376,0.149,2.049H323.397z M321.131,48.45c0,0.544,0.286,1.152,0.896,1.152c0.336,0,0.61-0.208,0.784-0.464
			c0.324-0.512,0.349-1.137,0.349-2.001C321.978,47.009,321.131,47.489,321.131,48.45z"/>
		<path d="M330.703,39.39h1.855v10.244c0,0.48,0.024,1.008,0.05,1.313h-1.867l-0.051-1.168c-0.124,0.288-0.248,0.592-0.635,0.913
			c-0.461,0.384-0.946,0.416-1.22,0.416c-1.681,0-2.677-1.489-2.677-4.018c0-2.673,1.133-4.338,2.776-4.338
			c1.133,0,1.606,0.816,1.768,1.104V39.39z M329.296,49.57c0.536,0,0.972-0.417,1.171-0.913c0.274-0.672,0.299-1.504,0.299-1.905
			c0-1.584-0.535-2.449-1.37-2.449c-1.232,0-1.369,1.905-1.369,2.721C328.026,48.37,328.375,49.57,329.296,49.57z"/>
		<path d="M335.395,42.863l1.42,5.49l1.444-5.49h1.78l-2.267,8.083h-2.041l-2.304-8.083H335.395z"/>
		<path d="M342.552,47.505c0,0.528,0,2.161,1.282,2.161c0.461,0,0.922-0.224,1.096-1.121h1.681
			c-0.024,0.384-0.087,1.072-0.598,1.761c-0.46,0.624-1.282,0.944-2.203,0.944c-0.535,0-1.557-0.128-2.217-1.008
			c-0.572-0.769-0.809-1.857-0.809-3.153c0-1.313,0.248-2.881,1.307-3.826c0.486-0.416,1.084-0.672,1.769-0.672
			c0.896,0,1.967,0.448,2.54,1.953c0.423,1.104,0.398,2.289,0.373,2.961H342.552z M344.893,46.017c0-0.368-0.024-1.809-1.096-1.809
			c-0.81,0-1.146,0.864-1.183,1.809H344.893z"/>
		<path d="M347.99,44.848c0-0.384-0.05-1.552-0.087-2.017h1.73l0.037,1.553c0.237-0.688,0.648-1.665,2.143-1.569v2.129
			c-1.868-0.224-1.98,1.008-1.98,2.017v3.986h-1.843V44.848z"/>
		<path d="M354.114,48.61c0.025,0.512,0.274,1.104,1.047,1.104c0.659,0,0.971-0.48,0.971-0.96c0-0.368-0.149-0.656-0.871-0.913
			l-1.146-0.4c-0.51-0.192-1.594-0.592-1.594-2.241c0-1.569,1.121-2.529,2.752-2.529c1.295,0,2.341,0.769,2.391,2.385h-1.681
			c-0.05-0.896-0.61-0.96-0.896-0.96c-0.498,0-0.872,0.304-0.872,0.8c0,0.544,0.312,0.656,0.859,0.848l1.133,0.4
			c1.146,0.4,1.682,1.152,1.682,2.257c0,1.393-0.934,2.785-2.889,2.785c-0.81,0-1.582-0.224-2.154-0.993
			c-0.411-0.56-0.448-1.2-0.461-1.584H354.114z"/>
		<path d="M360.538,47.505c0,0.528,0,2.161,1.282,2.161c0.46,0,0.921-0.224,1.096-1.121h1.681c-0.025,0.384-0.087,1.072-0.598,1.761
			c-0.461,0.624-1.282,0.944-2.204,0.944c-0.535,0-1.556-0.128-2.216-1.008c-0.573-0.769-0.81-1.857-0.81-3.153
			c0-1.313,0.249-2.881,1.308-3.826c0.485-0.416,1.083-0.672,1.768-0.672c0.896,0,1.968,0.448,2.54,1.953
			c0.424,1.104,0.398,2.289,0.374,2.961H360.538z M362.878,46.017c0-0.368-0.024-1.809-1.096-1.809
			c-0.809,0-1.145,0.864-1.183,1.809H362.878z"/>
		<path d="M370.919,47.505c0,0.528,0,2.161,1.282,2.161c0.46,0,0.921-0.224,1.096-1.121h1.681c-0.025,0.384-0.087,1.072-0.598,1.761
			c-0.461,0.624-1.282,0.944-2.204,0.944c-0.535,0-1.556-0.128-2.216-1.008c-0.573-0.769-0.81-1.857-0.81-3.153
			c0-1.313,0.249-2.881,1.308-3.826c0.485-0.416,1.083-0.672,1.768-0.672c0.896,0,1.968,0.448,2.54,1.953
			c0.424,1.104,0.398,2.289,0.374,2.961H370.919z M373.259,46.017c0-0.368-0.024-1.809-1.096-1.809
			c-0.809,0-1.145,0.864-1.183,1.809H373.259z"/>
		<path d="M377.603,42.863l1.419,5.49l1.444-5.49h1.781l-2.267,8.083h-2.042l-2.304-8.083H377.603z"/>
		<path d="M384.76,47.505c0,0.528,0,2.161,1.282,2.161c0.461,0,0.922-0.224,1.096-1.121h1.682c-0.025,0.384-0.088,1.072-0.598,1.761
			c-0.461,0.624-1.283,0.944-2.204,0.944c-0.536,0-1.557-0.128-2.217-1.008c-0.572-0.769-0.81-1.857-0.81-3.153
			c0-1.313,0.25-2.881,1.308-3.826c0.485-0.416,1.083-0.672,1.769-0.672c0.896,0,1.967,0.448,2.54,1.953
			c0.423,1.104,0.398,2.289,0.373,2.961H384.76z M387.101,46.017c0-0.368-0.025-1.809-1.096-1.809c-0.81,0-1.146,0.864-1.183,1.809
			H387.101z"/>
		<path d="M390.224,44.304c0-0.032,0-0.913-0.037-1.473h1.768l0.05,1.216c0.175-0.368,0.673-1.408,2.042-1.408
			c1.232,0,1.756,0.96,1.918,1.521c0.137,0.496,0.174,0.912,0.174,2.417v4.37h-1.88v-5.026c0-0.336,0-0.625-0.1-0.88
			c-0.138-0.352-0.424-0.688-0.896-0.688c-0.398,0-0.76,0.24-0.959,0.625c-0.112,0.208-0.224,0.608-0.224,1.232v4.738h-1.855V44.304
			z"/>
		<path d="M401.501,50.835c-0.598,0.208-1.133,0.256-1.432,0.256c-1.855,0-1.855-1.504-1.855-2.177V44.48h-1.207v-1.568h1.207
			v-1.585l1.831-0.864v2.449h1.494v1.568h-1.494v3.649c0.013,0.736,0.013,1.201,0.834,1.201c0.274,0,0.398-0.016,0.622-0.048V50.835
			z"/>
		<path d="M403.928,48.61c0.024,0.512,0.274,1.104,1.046,1.104c0.66,0,0.971-0.48,0.971-0.96c0-0.368-0.148-0.656-0.871-0.913
			l-1.146-0.4c-0.511-0.192-1.594-0.592-1.594-2.241c0-1.569,1.12-2.529,2.752-2.529c1.295,0,2.341,0.769,2.391,2.385h-1.681
			c-0.051-0.896-0.61-0.96-0.896-0.96c-0.498,0-0.872,0.304-0.872,0.8c0,0.544,0.312,0.656,0.859,0.848l1.133,0.4
			c1.146,0.4,1.681,1.152,1.681,2.257c0,1.393-0.934,2.785-2.889,2.785c-0.809,0-1.581-0.224-2.154-0.993
			c-0.41-0.56-0.447-1.2-0.46-1.584H403.928z"/>
		<path d="M416.487,39.39h1.855v10.244c0,0.48,0.025,1.008,0.05,1.313h-1.868l-0.049-1.168c-0.125,0.288-0.25,0.592-0.636,0.913
			c-0.46,0.384-0.946,0.416-1.22,0.416c-1.682,0-2.678-1.489-2.678-4.018c0-2.673,1.134-4.338,2.777-4.338
			c1.133,0,1.605,0.816,1.768,1.104V39.39z M415.081,49.57c0.535,0,0.971-0.417,1.17-0.913c0.273-0.672,0.299-1.504,0.299-1.905
			c0-1.584-0.535-2.449-1.369-2.449c-1.233,0-1.37,1.905-1.37,2.721C413.811,48.37,414.159,49.57,415.081,49.57z"/>
		<path d="M419.872,39.39h1.967v2.065h-1.967V39.39z M419.934,42.848h1.843v8.099h-1.843V42.848z"/>
		<path d="M427.553,39.39h1.855v10.244c0,0.48,0.024,1.008,0.05,1.313h-1.867l-0.051-1.168c-0.124,0.288-0.248,0.592-0.635,0.913
			c-0.461,0.384-0.946,0.416-1.22,0.416c-1.681,0-2.677-1.489-2.677-4.018c0-2.673,1.133-4.338,2.776-4.338
			c1.133,0,1.606,0.816,1.768,1.104V39.39z M426.146,49.57c0.536,0,0.972-0.417,1.171-0.913c0.274-0.672,0.299-1.504,0.299-1.905
			c0-1.584-0.535-2.449-1.37-2.449c-1.232,0-1.369,1.905-1.369,2.721C424.876,48.37,425.225,49.57,426.146,49.57z"/>
		<path d="M434.484,44.304c0-0.032,0-0.913-0.037-1.473h1.769l0.049,1.216c0.175-0.368,0.673-1.408,2.043-1.408
			c1.232,0,1.755,0.96,1.917,1.521c0.137,0.496,0.175,0.912,0.175,2.417v4.37h-1.881v-5.026c0-0.336,0-0.625-0.1-0.88
			c-0.137-0.352-0.423-0.688-0.896-0.688c-0.398,0-0.76,0.24-0.959,0.625c-0.111,0.208-0.224,0.608-0.224,1.232v4.738h-1.855V44.304
			z"/>
		<path d="M445.028,42.671c2.278,0,3.262,1.985,3.262,4.242c0,2.273-1.021,4.322-3.299,4.322c-1.793,0-3.213-1.424-3.213-4.258
			C441.778,45.024,442.55,42.671,445.028,42.671z M445.053,49.586c0.81,0,1.357-0.625,1.357-2.77c0-1.072-0.162-2.561-1.382-2.561
			c-1.345,0-1.357,2.001-1.357,2.737C443.671,48.802,444.144,49.586,445.053,49.586z"/>
		<path d="M453.368,50.835c-0.598,0.208-1.134,0.256-1.433,0.256c-1.854,0-1.854-1.504-1.854-2.177V44.48h-1.208v-1.568h1.208
			v-1.585l1.83-0.864v2.449h1.494v1.568h-1.494v3.649c0.012,0.736,0.012,1.201,0.834,1.201c0.273,0,0.398-0.016,0.623-0.048V50.835z
			"/>
		<path d="M462.13,39.39h1.855v10.244c0,0.48,0.025,1.008,0.05,1.313h-1.868l-0.049-1.168c-0.125,0.288-0.25,0.592-0.636,0.913
			c-0.46,0.384-0.946,0.416-1.22,0.416c-1.682,0-2.678-1.489-2.678-4.018c0-2.673,1.134-4.338,2.777-4.338
			c1.133,0,1.605,0.816,1.768,1.104V39.39z M460.724,49.57c0.535,0,0.971-0.417,1.17-0.913c0.273-0.672,0.299-1.504,0.299-1.905
			c0-1.584-0.535-2.449-1.369-2.449c-1.233,0-1.37,1.905-1.37,2.721C459.453,48.37,459.802,49.57,460.724,49.57z"/>
		<path d="M465.515,39.39h1.967v2.065h-1.967V39.39z M465.577,42.848h1.843v8.099h-1.843V42.848z"/>
		<path d="M469.161,44.544h-0.934v-1.681h0.934v-1.104c0-1.425,0.374-2.577,2.167-2.577c0.124,0,0.473,0,0.996,0.08v1.648
			c-0.187-0.032-0.237-0.048-0.386-0.048c-0.947,0-0.947,0.64-0.947,1.056v0.944h1.171v1.681h-1.171v6.402h-1.83V44.544z"/>
		<path d="M473.306,44.544h-0.934v-1.681h0.934v-1.104c0-1.425,0.374-2.577,2.167-2.577c0.124,0,0.473,0,0.996,0.08v1.648
			c-0.187-0.032-0.237-0.048-0.386-0.048c-0.947,0-0.947,0.64-0.947,1.056v0.944h1.171v1.681h-1.171v6.402h-1.83V44.544z"/>
		<path d="M478.808,47.505c0,0.528,0,2.161,1.282,2.161c0.461,0,0.922-0.224,1.096-1.121h1.681
			c-0.024,0.384-0.087,1.072-0.598,1.761c-0.46,0.624-1.282,0.944-2.203,0.944c-0.535,0-1.557-0.128-2.217-1.008
			c-0.572-0.769-0.809-1.857-0.809-3.153c0-1.313,0.248-2.881,1.307-3.826c0.486-0.416,1.084-0.672,1.769-0.672
			c0.896,0,1.967,0.448,2.54,1.953c0.423,1.104,0.398,2.289,0.373,2.961H478.808z M481.148,46.017c0-0.368-0.024-1.809-1.096-1.809
			c-0.81,0-1.146,0.864-1.183,1.809H481.148z"/>
		<path d="M484.247,44.848c0-0.384-0.05-1.552-0.088-2.017h1.731l0.037,1.553c0.236-0.688,0.647-1.665,2.142-1.569v2.129
			c-1.867-0.224-1.979,1.008-1.979,2.017v3.986h-1.843V44.848z"/>
		<path d="M492.486,39.406h1.843v4.434c0.623-1.056,1.457-1.088,1.78-1.088c1.532,0,2.739,1.553,2.739,4.274
			c0,3.025-1.369,4.082-2.627,4.082c-0.324,0-1.32-0.032-1.893-1.296c-0.013,0.256-0.025,0.64-0.063,1.136h-1.78V39.406z
			 M495.611,44.336c-1.356,0-1.356,1.985-1.356,2.497c0,1.841,0.609,2.721,1.443,2.721c1.271,0,1.271-2.033,1.271-2.449
			C496.969,46.465,496.944,44.336,495.611,44.336z"/>
		<path d="M501.636,47.505c0,0.528,0,2.161,1.282,2.161c0.461,0,0.922-0.224,1.096-1.121h1.681
			c-0.024,0.384-0.087,1.072-0.598,1.761c-0.46,0.624-1.282,0.944-2.203,0.944c-0.535,0-1.557-0.128-2.217-1.008
			c-0.572-0.769-0.809-1.857-0.809-3.153c0-1.313,0.248-2.881,1.307-3.826c0.486-0.416,1.084-0.672,1.769-0.672
			c0.896,0,1.967,0.448,2.54,1.953c0.423,1.104,0.398,2.289,0.373,2.961H501.636z M503.977,46.017c0-0.368-0.024-1.809-1.096-1.809
			c-0.81,0-1.146,0.864-1.183,1.809H503.977z"/>
		<path d="M510.772,50.835c-0.598,0.208-1.133,0.256-1.432,0.256c-1.855,0-1.855-1.504-1.855-2.177V44.48h-1.207v-1.568h1.207
			v-1.585l1.831-0.864v2.449h1.494v1.568h-1.494v3.649c0.013,0.736,0.013,1.201,0.834,1.201c0.274,0,0.398-0.016,0.622-0.048V50.835
			z"/>
		<path d="M513.124,42.863l1.158,6.099l1.332-6.099h2.03l1.319,6.099l1.232-6.099h1.831l-2.154,8.083h-2.005l-1.295-5.986
			l-1.319,5.986h-2.03l-2.054-8.083H513.124z"/>
		<path d="M524.463,47.505c0,0.528,0,2.161,1.282,2.161c0.461,0,0.922-0.224,1.096-1.121h1.682
			c-0.025,0.384-0.088,1.072-0.598,1.761c-0.461,0.624-1.283,0.944-2.204,0.944c-0.536,0-1.557-0.128-2.217-1.008
			c-0.572-0.769-0.81-1.857-0.81-3.153c0-1.313,0.25-2.881,1.308-3.826c0.485-0.416,1.083-0.672,1.769-0.672
			c0.896,0,1.967,0.448,2.54,1.953c0.423,1.104,0.398,2.289,0.373,2.961H524.463z M526.804,46.017c0-0.368-0.025-1.809-1.096-1.809
			c-0.81,0-1.146,0.864-1.183,1.809H526.804z"/>
		<path d="M531.384,47.505c0,0.528,0,2.161,1.282,2.161c0.461,0,0.922-0.224,1.096-1.121h1.681
			c-0.024,0.384-0.087,1.072-0.598,1.761c-0.46,0.624-1.282,0.944-2.203,0.944c-0.535,0-1.557-0.128-2.217-1.008
			c-0.572-0.769-0.809-1.857-0.809-3.153c0-1.313,0.248-2.881,1.307-3.826c0.486-0.416,1.084-0.672,1.769-0.672
			c0.896,0,1.967,0.448,2.54,1.953c0.423,1.104,0.398,2.289,0.373,2.961H531.384z M533.725,46.017c0-0.368-0.024-1.809-1.096-1.809
			c-0.81,0-1.146,0.864-1.183,1.809H533.725z"/>
		<path d="M536.848,44.304c0-0.032,0-0.913-0.037-1.473h1.769l0.049,1.216c0.175-0.368,0.673-1.408,2.043-1.408
			c1.232,0,1.755,0.96,1.917,1.521c0.137,0.496,0.175,0.912,0.175,2.417v4.37h-1.881v-5.026c0-0.336,0-0.625-0.1-0.88
			c-0.137-0.352-0.423-0.688-0.896-0.688c-0.398,0-0.76,0.24-0.959,0.625c-0.111,0.208-0.224,0.608-0.224,1.232v4.738h-1.855V44.304
			z"/>
		<path d="M547.938,39.39h1.967v9.588h3.86v1.969h-5.827V39.39z"/>
		<path d="M554.746,39.342h1.93v11.604h-1.93V39.342z"/>
		<path d="M558.269,39.406h2.776c1.295,0,2.378,0.112,3.125,1.264c0.474,0.736,0.548,1.569,0.548,2.161
			c0,1.345-0.436,2.481-1.146,3.073c-0.659,0.544-1.568,0.544-2.042,0.544h-1.307v4.498h-1.955V39.406z M560.173,44.608h0.772
			c0.622,0,1.78,0,1.78-1.761c0-1.569-1.033-1.569-1.581-1.569h-0.972V44.608z"/>
		<path d="M565.812,39.342h1.93v11.604h-1.93V39.342z"/>
		<path d="M571.376,41.295h-2.678v-1.921h7.297v1.921h-2.677v9.652h-1.942V41.295z"/>
		<path d="M580.974,39.134c0.959,0,2.278,0.289,3.162,1.569c0.959,1.409,1.146,3.217,1.146,4.354c0,1.681-0.398,3.474-1.133,4.53
			c-0.996,1.44-2.453,1.648-3.2,1.648c-1.183,0-2.365-0.48-3.188-1.584c-0.983-1.345-1.107-3.266-1.107-4.322
			C576.653,42.255,577.736,39.134,580.974,39.134z M579.343,48.482c0.273,0.48,0.734,0.928,1.631,0.928
			c0.784,0,1.319-0.352,1.681-1.072c0.299-0.576,0.61-1.473,0.61-3.313c0-0.56-0.037-1.36-0.225-2.065
			c-0.373-1.424-1.133-2.049-2.055-2.049c-0.722,0-1.295,0.384-1.655,0.977c-0.511,0.8-0.66,2.049-0.66,3.361
			C578.67,46.353,578.807,47.585,579.343,48.482z"/>
		<path d="M586.561,39.374h3.449c0.996-0.016,2.005-0.016,2.727,0.784c0.561,0.625,0.784,1.473,0.784,2.225
			c0,2.161-1.444,2.673-1.88,2.833c1.357,0.16,1.457,1.153,1.618,2.657c0.138,1.36,0.212,1.921,0.274,2.241
			c0.1,0.512,0.175,0.641,0.274,0.833h-2.13c-0.087-0.64-0.36-3.569-0.485-4.018c-0.174-0.656-0.647-0.656-0.971-0.656h-1.693v4.674
			h-1.968V39.374z M588.466,44.432h1.557c0.224,0,0.672,0,0.983-0.32c0.137-0.128,0.498-0.528,0.498-1.344
			c0-0.785-0.299-1.152-0.474-1.296c-0.299-0.272-0.66-0.272-1.27-0.272h-1.295V44.432z"/>
	</g>
	<g>
		<path d="M599.768,42.262c0,1.939-1.234,3.524-2.745,3.524c-1.496,0-2.745-1.566-2.745-3.524c0-1.995,1.278-3.524,2.745-3.524
			C598.504,38.738,599.768,40.267,599.768,42.262z M594.72,42.253c0,1.641,1.031,2.965,2.296,2.965c1.278,0,2.31-1.352,2.31-2.965
			c0-1.641-1.046-2.946-2.31-2.946C595.766,39.307,594.72,40.593,594.72,42.253z M595.991,40.286h1.061c0.363,0,1.074,0,1.074,1.044
			c0,0.727-0.362,0.876-0.58,0.97c0.421,0.037,0.45,0.392,0.508,0.895c0.029,0.317,0.072,0.857,0.16,1.044h-0.654
			c-0.014-0.187-0.116-1.193-0.116-1.249c-0.043-0.224-0.102-0.336-0.319-0.336h-0.537v1.585h-0.596V40.286z M596.572,42.02h0.479
			c0.392,0,0.465-0.354,0.465-0.56c0-0.541-0.291-0.541-0.45-0.541h-0.494V42.02z"/>
	</g>
	<g>
		<path d="M607.965,50.947c-0.063-0.496-0.063-0.864-0.063-1.104c-0.697,1.296-1.531,1.296-1.88,1.296
			c-0.909,0-1.32-0.336-1.568-0.64c-0.374-0.48-0.549-1.136-0.549-1.777c0-0.64,0.175-1.825,1.333-2.513
			c0.771-0.448,1.88-0.448,2.49-0.448c0-0.528-0.013-0.784-0.087-1.072c-0.162-0.592-0.648-0.672-0.822-0.672
			c-0.262,0-0.535,0.144-0.697,0.448c-0.137,0.272-0.137,0.528-0.137,0.72h-1.806c0.013-0.432,0.05-1.297,0.71-1.905
			c0.572-0.528,1.307-0.656,1.904-0.656c0.523,0,1.619,0.112,2.242,1.041c0.423,0.656,0.436,1.616,0.436,1.984l0.012,3.25
			c0,0.688,0.038,1.376,0.15,2.049H607.965z M605.698,48.45c0,0.544,0.287,1.152,0.896,1.152c0.337,0,0.61-0.208,0.785-0.464
			c0.323-0.512,0.349-1.137,0.349-2.001C606.546,47.009,605.698,47.489,605.698,48.45z"/>
		<path d="M611.138,44.304c0-0.032,0-0.913-0.037-1.473h1.768l0.051,1.216c0.174-0.368,0.672-1.408,2.041-1.408
			c1.233,0,1.756,0.96,1.918,1.521c0.137,0.496,0.174,0.912,0.174,2.417v4.37h-1.88v-5.026c0-0.336,0-0.625-0.1-0.88
			c-0.137-0.352-0.423-0.688-0.896-0.688c-0.398,0-0.759,0.24-0.958,0.625c-0.112,0.208-0.225,0.608-0.225,1.232v4.738h-1.855
			V44.304z"/>
		<path d="M622.876,39.39h1.855v10.244c0,0.48,0.025,1.008,0.05,1.313h-1.868l-0.049-1.168c-0.125,0.288-0.25,0.592-0.636,0.913
			c-0.46,0.384-0.946,0.416-1.22,0.416c-1.682,0-2.678-1.489-2.678-4.018c0-2.673,1.134-4.338,2.777-4.338
			c1.133,0,1.605,0.816,1.768,1.104V39.39z M621.47,49.57c0.535,0,0.971-0.417,1.17-0.913c0.273-0.672,0.299-1.504,0.299-1.905
			c0-1.584-0.535-2.449-1.369-2.449c-1.233,0-1.37,1.905-1.37,2.721C620.199,48.37,620.548,49.57,621.47,49.57z"/>
		<path d="M631.514,42.863l0.05,1.153c0.572-1.297,1.619-1.313,1.918-1.313c1.631,0,2.614,1.568,2.614,4.034
			c0,2.289-0.921,4.321-2.739,4.321c-1.133,0-1.594-0.768-1.756-1.04v4.034h-1.88V42.863H631.514z M634.228,46.833
			c0-0.96-0.187-2.609-1.27-2.609c-0.598,0-1.444,0.576-1.444,2.753c0,0.48,0.013,2.529,1.37,2.529
			C633.755,49.506,634.228,48.434,634.228,46.833z"/>
		<path d="M637.389,39.374h1.843v11.573h-1.843V39.374z"/>
		<path d="M644.621,50.947c-0.063-0.496-0.063-0.864-0.063-1.104c-0.697,1.296-1.531,1.296-1.88,1.296
			c-0.909,0-1.32-0.336-1.568-0.64c-0.374-0.48-0.549-1.136-0.549-1.777c0-0.64,0.175-1.825,1.333-2.513
			c0.771-0.448,1.88-0.448,2.49-0.448c0-0.528-0.013-0.784-0.087-1.072c-0.162-0.592-0.648-0.672-0.822-0.672
			c-0.262,0-0.535,0.144-0.697,0.448c-0.137,0.272-0.137,0.528-0.137,0.72h-1.806c0.013-0.432,0.05-1.297,0.71-1.905
			c0.572-0.528,1.307-0.656,1.904-0.656c0.523,0,1.619,0.112,2.242,1.041c0.423,0.656,0.436,1.616,0.436,1.984l0.012,3.25
			c0,0.688,0.038,1.376,0.15,2.049H644.621z M642.354,48.45c0,0.544,0.287,1.152,0.896,1.152c0.337,0,0.61-0.208,0.785-0.464
			c0.323-0.512,0.349-1.137,0.349-2.001C643.202,47.009,642.354,47.489,642.354,48.45z"/>
		<path d="M651.094,45.729c-0.024-0.288-0.1-1.488-0.81-1.488c-0.871,0-0.971,1.696-0.971,2.577c0,0.448,0.037,1.889,0.461,2.481
			c0.174,0.24,0.36,0.272,0.498,0.272c0.199,0,0.771-0.112,0.846-1.553h1.818c-0.025,0.625-0.087,1.601-0.81,2.385
			c-0.448,0.497-1.009,0.752-1.793,0.752c-0.834,0-1.568-0.24-2.142-1.072c-0.548-0.816-0.797-1.889-0.797-3.186
			c0-3.681,2.104-4.193,2.938-4.193c1.171,0,2.553,0.832,2.565,3.025H651.094z"/>
		<path d="M655.475,47.505c0,0.528,0,2.161,1.282,2.161c0.461,0,0.922-0.224,1.096-1.121h1.682
			c-0.025,0.384-0.088,1.072-0.598,1.761c-0.461,0.624-1.283,0.944-2.204,0.944c-0.536,0-1.557-0.128-2.217-1.008
			c-0.572-0.769-0.81-1.857-0.81-3.153c0-1.313,0.25-2.881,1.308-3.826c0.485-0.416,1.083-0.672,1.769-0.672
			c0.896,0,1.967,0.448,2.54,1.953c0.423,1.104,0.398,2.289,0.373,2.961H655.475z M657.815,46.017c0-0.368-0.025-1.809-1.096-1.809
			c-0.81,0-1.146,0.864-1.183,1.809H657.815z"/>
		<path d="M660.851,39.406h1.843v4.434c0.622-1.056,1.457-1.088,1.78-1.088c1.531,0,2.739,1.553,2.739,4.274
			c0,3.025-1.369,4.082-2.627,4.082c-0.323,0-1.319-0.032-1.893-1.296c-0.013,0.256-0.024,0.64-0.063,1.136h-1.78V39.406z
			 M663.976,44.336c-1.357,0-1.357,1.985-1.357,2.497c0,1.841,0.61,2.721,1.445,2.721c1.27,0,1.27-2.033,1.27-2.449
			C665.333,46.465,665.308,44.336,663.976,44.336z"/>
		<path d="M671.481,42.671c2.279,0,3.263,1.985,3.263,4.242c0,2.273-1.021,4.322-3.3,4.322c-1.793,0-3.213-1.424-3.213-4.258
			C668.231,45.024,669.004,42.671,671.481,42.671z M671.507,49.586c0.809,0,1.357-0.625,1.357-2.77c0-1.072-0.162-2.561-1.383-2.561
			c-1.345,0-1.357,2.001-1.357,2.737C670.124,48.802,670.598,49.586,671.507,49.586z"/>
	</g>
	<g>
		<path d="M676.004,40.09c0.472-0.261,0.922-0.587,1.343-0.979h0.938v6.507h-1.097v-5.063c-0.211,0.205-0.632,0.541-1.184,0.83
			V40.09z"/>
	</g>
</g>
</svg>
