<?xml version="1.0" encoding="utf-8"?>
<!-- Generator: Adobe Illustrator 17.0.0, SVG Export Plug-In . SVG Version: 6.00 Build 0)  -->
<!DOCTYPE svg PUBLIC "-//W3C//DTD SVG 1.1//EN" "http://www.w3.org/Graphics/SVG/1.1/DTD/svg11.dtd">
<svg version="1.1" id="Layer_1" xmlns="http://www.w3.org/2000/svg" xmlns:xlink="http://www.w3.org/1999/xlink" x="0px" y="0px"
	 width="209.575px" height="19.054px" viewBox="247.683 -47.651 209.575 19.054"
	 enable-background="new 247.683 -47.651 209.575 19.054" xml:space="preserve">
<g>
	<g>
		<path fill="#005E7D" d="M256.72-42.481c-0.061-0.511-0.245-2.597-2.393-2.597c-2.351,0-3.332,2.454-3.332,5.5
			c0,0.879,0,5.071,3.088,5.071c1.328,0,2.596-0.838,2.657-2.801h3.333c-0.062,0.879-0.143,2.249-1.329,3.476
			c-1.309,1.35-2.965,1.656-4.314,1.656c-5.091,0-6.747-3.762-6.747-7.422c0-4.682,2.617-7.79,6.768-7.79
			c3.23,0,5.5,1.963,5.5,4.907C259.951-42.481,256.72-42.481,256.72-42.481z"/>
		<path fill="#005E7D" d="M269.829-47.306l5.131,14.783h-3.189l-1.063-3.19h-5.848l-1.104,3.19h-3.026l5.337-14.783
			C266.067-47.306,269.829-47.306,269.829-47.306z M269.91-38.105l-2.044-6.297l-2.188,6.297H269.91z"/>
		<path fill="#005E7D" d="M276.618-47.306h5.664c1.636-0.02,3.292-0.02,4.478,1.002c0.921,0.797,1.288,1.881,1.288,2.842
			c0,2.76-2.371,3.415-3.087,3.619c2.229,0.204,2.392,1.472,2.657,3.394c0.226,1.738,0.348,2.454,0.45,2.863
			c0.164,0.654,0.286,0.817,0.45,1.063h-3.496c-0.144-0.818-0.594-4.56-0.798-5.132c-0.286-0.838-1.063-0.838-1.595-0.838h-2.781
			v5.97h-3.23V-47.306z M279.747-40.845h2.556c0.368,0,1.104,0,1.615-0.409c0.225-0.164,0.817-0.675,0.817-1.717
			c0-1.002-0.49-1.472-0.776-1.656c-0.491-0.348-1.084-0.348-2.086-0.348h-2.126L279.747-40.845L279.747-40.845z"/>
		<path fill="#005E7D" d="M290.359-47.265l4.887,0.021c0.818,0,3.313,0.021,5.092,1.329c1.86,1.37,2.515,3.701,2.515,5.807
			c0,4.54-2.433,6.911-5.234,7.422c-0.552,0.102-1.165,0.164-2.657,0.164h-4.602v-14.743H290.359z M293.57-34.956
			c0.348,0.021,0.879,0.041,1.247,0.041c1.349,0,2.515-0.103,3.435-1.022c1.248-1.247,1.329-3.456,1.329-4.171
			c0-2.085-0.716-4.007-2.698-4.56c-0.654-0.184-1.493-0.286-3.313-0.205L293.57-34.956L293.57-34.956z"/>
		<path fill="#005E7D" d="M307.743-37.246c0,0.695-0.041,2.801,2.678,2.801c1.718,0,2.801-0.818,2.801-2.065
			c0-1.309-0.92-1.533-2.801-1.983c-3.517-0.879-5.438-1.922-5.438-4.478c0-2.433,1.737-4.58,5.848-4.58
			c1.534,0,3.354,0.348,4.458,1.738c0.838,1.063,0.838,2.249,0.838,2.74h-3.047c-0.041-0.511-0.204-2.25-2.393-2.25
			c-1.472,0-2.433,0.797-2.433,2.004c0,1.37,1.083,1.615,3.21,2.147c2.556,0.613,5.07,1.309,5.07,4.191
			c0,2.658-2.207,4.805-6.297,4.805c-5.664,0-5.705-3.64-5.725-5.071h3.231V-37.246z"/>
		<path fill="#005E7D" d="M326.556-35.508c0.041,0.654,0.45,1.411,1.718,1.411c1.084,0,1.595-0.614,1.595-1.227
			c0-0.47-0.245-0.838-1.431-1.166l-1.882-0.511c-0.838-0.245-2.617-0.756-2.617-2.862c0-2.004,1.841-3.23,4.52-3.23
			c2.126,0,3.844,0.981,3.926,3.046h-2.761c-0.081-1.145-1.002-1.227-1.472-1.227c-0.818,0-1.432,0.389-1.432,1.022
			c0,0.695,0.512,0.838,1.41,1.084l1.861,0.511c1.881,0.511,2.76,1.473,2.76,2.883c0,1.779-1.533,3.558-4.743,3.558
			c-1.329,0-2.597-0.286-3.537-1.268c-0.675-0.716-0.736-1.534-0.757-2.024H326.556z"/>
		<path fill="#005E7D" d="M340.87-32.523c-0.102-0.634-0.102-1.104-0.102-1.411c-1.145,1.656-2.516,1.656-3.088,1.656
			c-1.492,0-2.167-0.43-2.576-0.818c-0.613-0.613-0.899-1.452-0.899-2.27s0.286-2.331,2.188-3.21
			c1.269-0.572,3.088-0.572,4.089-0.572c0-0.675-0.02-1.002-0.143-1.37c-0.266-0.757-1.063-0.859-1.35-0.859
			c-0.43,0-0.879,0.184-1.145,0.573c-0.225,0.348-0.225,0.675-0.225,0.92h-2.965c0.02-0.552,0.081-1.656,1.165-2.433
			c0.94-0.675,2.147-0.838,3.128-0.838c0.859,0,2.658,0.143,3.681,1.329c0.695,0.838,0.716,2.065,0.716,2.535l0.021,4.151
			c0,0.879,0.062,1.758,0.245,2.617H340.87z M337.15-35.713c0,0.695,0.471,1.473,1.473,1.473c0.551,0,1.002-0.266,1.287-0.593
			c0.532-0.654,0.572-1.452,0.572-2.556C338.54-37.553,337.15-36.94,337.15-35.713z"/>
		<path fill="#005E7D" d="M346.25-40.702h-1.534v-2.147h1.534v-1.41c0-1.82,0.613-3.292,3.558-3.292c0.205,0,0.777,0,1.636,0.102
			v2.106c-0.307-0.041-0.389-0.061-0.634-0.061c-1.555,0-1.555,0.818-1.555,1.35v1.206h1.923v2.147h-1.923v8.179h-3.005V-40.702z"/>
		<path fill="#005E7D" d="M354.491-36.919c0,0.675,0,2.76,2.105,2.76c0.757,0,1.514-0.286,1.799-1.431h2.761
			c-0.041,0.491-0.144,1.37-0.981,2.249c-0.756,0.797-2.105,1.207-3.619,1.207c-0.879,0-2.556-0.164-3.639-1.289
			c-0.941-0.981-1.33-2.372-1.33-4.028c0-1.677,0.409-3.68,2.147-4.887c0.798-0.532,1.778-0.859,2.903-0.859
			c1.473,0,3.23,0.573,4.171,2.495c0.695,1.411,0.654,2.924,0.614,3.783H354.491z M358.335-38.82c0-0.471-0.041-2.311-1.8-2.311
			c-1.329,0-1.881,1.104-1.942,2.311H358.335z"/>
		<path fill="#005E7D" d="M369.501-32.666c-0.982,0.266-1.861,0.327-2.352,0.327c-3.047,0-3.047-1.922-3.047-2.781v-5.663h-1.983
			v-2.004h1.983v-2.025l3.006-1.104v3.128h2.453v2.004h-2.453v4.662c0.02,0.94,0.02,1.534,1.369,1.534
			c0.45,0,0.654-0.021,1.023-0.062L369.501-32.666L369.501-32.666z"/>
		<path fill="#005E7D" d="M373.609-42.849l2.27,7.156l2.311-7.156h3.006l-3.904,10.142l-1.248,4.11h-3.047l1.309-3.885
			l-3.967-10.367C370.34-42.849,373.609-42.849,373.609-42.849z"/>
		<path fill="#005E7D" d="M388.438-40.313c0-0.491-0.082-1.983-0.144-2.577h2.843l0.062,1.983c0.388-0.879,1.063-2.126,3.517-2.004
			v2.72c-3.067-0.286-3.251,1.288-3.251,2.576v5.091h-3.026L388.438-40.313L388.438-40.313z"/>
		<path fill="#005E7D" d="M398.234-36.919c0,0.675,0,2.76,2.105,2.76c0.757,0,1.513-0.286,1.8-1.431h2.76
			c-0.041,0.491-0.143,1.37-0.981,2.249c-0.757,0.797-2.105,1.207-3.619,1.207c-0.879,0-2.556-0.164-3.64-1.289
			c-0.94-0.981-1.329-2.372-1.329-4.028c0-1.677,0.409-3.68,2.147-4.887c0.797-0.532,1.778-0.859,2.903-0.859
			c1.472,0,3.23,0.573,4.171,2.495c0.695,1.411,0.654,2.924,0.613,3.783H398.234z M402.077-38.82c0-0.471-0.041-2.311-1.8-2.311
			c-1.329,0-1.881,1.104-1.942,2.311H402.077z"/>
		<path fill="#005E7D" d="M409.276-35.508c0.04,0.654,0.449,1.411,1.717,1.411c1.084,0,1.595-0.614,1.595-1.227
			c0-0.47-0.245-0.838-1.431-1.166l-1.881-0.511c-0.839-0.245-2.617-0.756-2.617-2.862c0-2.004,1.84-3.23,4.519-3.23
			c2.126,0,3.844,0.981,3.926,3.046h-2.761c-0.082-1.145-1.002-1.227-1.472-1.227c-0.818,0-1.432,0.389-1.432,1.022
			c0,0.695,0.511,0.838,1.411,1.084l1.86,0.511c1.881,0.511,2.761,1.473,2.761,2.883c0,1.779-1.534,3.558-4.744,3.558
			c-1.329,0-2.597-0.286-3.537-1.268c-0.675-0.716-0.736-1.534-0.757-2.024H409.276z"/>
		<path fill="#005E7D" d="M420.359-42.849v6.154c0,0.9,0,2.27,1.615,2.27c1.942,0,1.942-1.452,1.942-3.21v-5.214h3.107v6.809
			c0.041,2.229,0.062,2.495,0.062,2.761c0.021,0.286,0.041,0.47,0.082,0.756h-2.944l-0.103-1.37
			c-0.307,0.45-1.083,1.636-3.046,1.636c-1.391,0-2.536-0.634-3.108-1.39c-0.675-0.838-0.675-2.27-0.675-2.781v-6.42L420.359-42.849
			L420.359-42.849z"/>
		<path fill="#005E7D" d="M429.889-47.306h3.026v14.783h-3.026V-47.306z"/>
		<path fill="#005E7D" d="M441.647-32.666c-0.981,0.266-1.86,0.327-2.351,0.327c-3.047,0-3.047-1.922-3.047-2.781v-5.663h-1.983
			v-2.004h1.983v-2.025l3.006-1.104v3.128h2.453v2.004h-2.453v4.662c0.021,0.94,0.021,1.534,1.369,1.534
			c0.45,0,0.654-0.021,1.022-0.062v1.984H441.647z"/>
		<path fill="#005E7D" d="M445.635-35.508c0.04,0.654,0.449,1.411,1.717,1.411c1.084,0,1.595-0.614,1.595-1.227
			c0-0.47-0.245-0.838-1.431-1.166l-1.881-0.511c-0.839-0.245-2.617-0.756-2.617-2.862c0-2.004,1.84-3.23,4.519-3.23
			c2.126,0,3.844,0.981,3.926,3.046h-2.761c-0.082-1.145-1.002-1.227-1.472-1.227c-0.818,0-1.432,0.389-1.432,1.022
			c0,0.695,0.511,0.838,1.411,1.084l1.86,0.511c1.881,0.511,2.761,1.473,2.761,2.883c0,1.779-1.534,3.558-4.744,3.558
			c-1.329,0-2.597-0.286-3.537-1.268c-0.675-0.716-0.736-1.534-0.757-2.024H445.635z"/>
	</g>
	<g>
		<path fill="#005E7D" d="M453.516-46.4c0.774-0.333,1.513-0.751,2.205-1.251h1.537v8.318h-1.8v-6.471
			c-0.345,0.262-1.036,0.691-1.942,1.061L453.516-46.4L453.516-46.4z"/>
	</g>
</g>
</svg>
