<?xml version="1.0" encoding="utf-8"?>
<!-- Generator: Adobe Illustrator 17.0.0, SVG Export Plug-In . SVG Version: 6.00 Build 0)  -->
<!DOCTYPE svg PUBLIC "-//W3C//DTD SVG 1.1//EN" "http://www.w3.org/Graphics/SVG/1.1/DTD/svg11.dtd">
<svg version="1.1" id="Layer_1" xmlns="http://www.w3.org/2000/svg" xmlns:xlink="http://www.w3.org/1999/xlink" x="0px" y="0px"
	 width="704.94px" height="344.203px" viewBox="0 29.1 704.94 344.203" enable-background="new 0 29.1 704.94 344.203"
	 xml:space="preserve">
<g>
	<g>
		<path fill="#005E7D" stroke="#FFFFFF" stroke-miterlimit="10" d="M540.651,29.1h163.432v60.545H540.651V29.1z M377.219,29.1
			h163.432v60.545H377.219V29.1z M0.857,29.1h376.361v60.545H0.857V29.1z"/>
		<line fill="none" stroke="#FFFFFF" stroke-miterlimit="10" x1="0" y1="29.101" x2="377.219" y2="29.101"/>
		<line fill="none" x1="0.857" y1="88.789" x2="0.857" y2="29.958"/>
		<line fill="none" x1="377.219" y1="29.101" x2="540.651" y2="29.101"/>
		<line fill="none" x1="377.219" y1="88.789" x2="377.219" y2="29.958"/>
		<line fill="none" x1="540.651" y1="29.101" x2="704.94" y2="29.101"/>
		<line fill="none" x1="540.651" y1="88.789" x2="540.651" y2="29.958"/>
		<line fill="none" x1="704.082" y1="88.789" x2="704.082" y2="29.958"/>
		<line fill="none" stroke="#FFFFFF" stroke-miterlimit="10" x1="0" y1="89.646" x2="377.219" y2="89.646"/>
		<line fill="none" stroke="#000000" stroke-miterlimit="10" x1="0.857" y1="150.063" x2="0.857" y2="90.502"/>
		<line fill="none" x1="377.219" y1="89.646" x2="540.651" y2="89.646"/>
		<line fill="none" stroke="#000000" stroke-miterlimit="10" x1="377.219" y1="150.063" x2="377.219" y2="90.502"/>
		<line fill="none" x1="540.651" y1="89.646" x2="704.94" y2="89.646"/>
		<line fill="none" stroke="#000000" stroke-miterlimit="10" x1="540.651" y1="150.063" x2="540.651" y2="90.502"/>
		<line fill="none" stroke="#000000" stroke-miterlimit="10" x1="704.082" y1="150.063" x2="704.082" y2="90.502"/>
		<line fill="none" stroke="#000000" stroke-miterlimit="10" x1="0" y1="150.921" x2="377.219" y2="150.921"/>
		<line fill="none" stroke="#000000" stroke-miterlimit="10" x1="0.857" y1="187.094" x2="0.857" y2="151.778"/>
		<line fill="none" stroke="#000000" stroke-miterlimit="10" x1="377.219" y1="150.921" x2="540.651" y2="150.921"/>
		<line fill="none" stroke="#000000" stroke-miterlimit="10" x1="377.219" y1="187.094" x2="377.219" y2="151.778"/>
		<line fill="none" stroke="#000000" stroke-miterlimit="10" x1="540.651" y1="150.921" x2="704.94" y2="150.921"/>
		<line fill="none" stroke="#000000" stroke-miterlimit="10" x1="540.651" y1="187.094" x2="540.651" y2="151.778"/>
		<line fill="none" stroke="#000000" stroke-miterlimit="10" x1="704.082" y1="187.094" x2="704.082" y2="151.778"/>
		<line fill="none" stroke="#000000" stroke-miterlimit="10" x1="0" y1="187.951" x2="377.219" y2="187.951"/>
		<line fill="none" stroke="#000000" stroke-miterlimit="10" x1="0.857" y1="224.124" x2="0.857" y2="188.808"/>
		<line fill="none" stroke="#000000" stroke-miterlimit="10" x1="377.219" y1="187.951" x2="540.651" y2="187.951"/>
		<line fill="none" stroke="#000000" stroke-miterlimit="10" x1="377.219" y1="224.124" x2="377.219" y2="188.808"/>
		<line fill="none" stroke="#000000" stroke-miterlimit="10" x1="540.651" y1="187.951" x2="704.94" y2="187.951"/>
		<line fill="none" stroke="#000000" stroke-miterlimit="10" x1="540.651" y1="224.124" x2="540.651" y2="188.808"/>
		<line fill="none" stroke="#000000" stroke-miterlimit="10" x1="704.082" y1="224.124" x2="704.082" y2="188.808"/>
		<line fill="none" stroke="#000000" stroke-miterlimit="10" x1="0" y1="224.982" x2="377.219" y2="224.982"/>
		<line fill="none" stroke="#000000" stroke-miterlimit="10" x1="0.857" y1="309.295" x2="0.857" y2="225.839"/>
		<line fill="none" stroke="#000000" stroke-miterlimit="10" x1="377.219" y1="224.982" x2="540.651" y2="224.982"/>
		<line fill="none" stroke="#000000" stroke-miterlimit="10" x1="377.219" y1="309.295" x2="377.219" y2="225.839"/>
		<line fill="none" stroke="#000000" stroke-miterlimit="10" x1="540.651" y1="224.982" x2="704.94" y2="224.982"/>
		<line fill="none" stroke="#000000" stroke-miterlimit="10" x1="540.651" y1="309.295" x2="540.651" y2="225.839"/>
		<line fill="none" stroke="#000000" stroke-miterlimit="10" x1="704.082" y1="309.295" x2="704.082" y2="225.839"/>
		<line fill="none" stroke="#000000" stroke-miterlimit="10" x1="0" y1="310.152" x2="377.219" y2="310.152"/>
		<line fill="none" stroke="#000000" stroke-miterlimit="10" x1="0.857" y1="346.326" x2="0.857" y2="311.01"/>
		<line fill="none" stroke="#000000" stroke-miterlimit="10" x1="377.219" y1="310.152" x2="540.651" y2="310.152"/>
		<line fill="none" stroke="#000000" stroke-miterlimit="10" x1="377.219" y1="346.326" x2="377.219" y2="311.01"/>
		<line fill="none" stroke="#000000" stroke-miterlimit="10" x1="540.651" y1="310.152" x2="704.94" y2="310.152"/>
		<line fill="none" stroke="#000000" stroke-miterlimit="10" x1="540.651" y1="346.326" x2="540.651" y2="311.01"/>
		<line fill="none" stroke="#000000" stroke-miterlimit="10" x1="704.082" y1="346.326" x2="704.082" y2="311.01"/>
		<line fill="none" stroke="#000000" stroke-miterlimit="10" x1="0" y1="347.183" x2="377.219" y2="347.183"/>
		<line fill="none" stroke="#000000" stroke-miterlimit="10" x1="377.219" y1="347.183" x2="540.651" y2="347.183"/>
		<line fill="none" stroke="#000000" stroke-miterlimit="10" x1="540.651" y1="347.183" x2="704.94" y2="347.183"/>
	</g>
	<g>
		<path fill="#D1D3D4" d="M143.705,53.805l3.871,11.153h-2.406l-0.802-2.407h-4.412l-0.833,2.407h-2.283l4.026-11.153H143.705z
			 M143.767,60.747l-1.543-4.751l-1.65,4.751H143.767z"/>
		<path fill="#D1D3D4" d="M153.781,53.82h2.298v9.873c0,0.463,0.031,0.972,0.063,1.265h-2.314l-0.062-1.126
			c-0.154,0.277-0.309,0.571-0.786,0.879c-0.571,0.371-1.173,0.401-1.512,0.401c-2.083,0-3.317-1.435-3.317-3.872
			c0-2.576,1.403-4.181,3.44-4.181c1.404,0,1.99,0.787,2.19,1.064L153.781,53.82L153.781,53.82z M152.038,63.632
			c0.663,0,1.203-0.401,1.45-0.879c0.339-0.648,0.37-1.45,0.37-1.836c0-1.527-0.664-2.36-1.697-2.36
			c-1.527,0-1.697,1.835-1.697,2.623C150.463,62.475,150.896,63.632,152.038,63.632z"/>
		<path fill="#D1D3D4" d="M159.598,57.168l1.759,5.292l1.79-5.292h2.205l-2.808,7.791h-2.53l-2.854-7.791H159.598z"/>
		<path fill="#D1D3D4" d="M168.176,61.642c0,0.509,0,2.083,1.589,2.083c0.571,0,1.142-0.216,1.358-1.08h2.082
			c-0.031,0.37-0.107,1.034-0.74,1.697c-0.571,0.602-1.59,0.91-2.73,0.91c-0.664,0-1.929-0.123-2.746-0.972
			c-0.71-0.741-1.003-1.79-1.003-3.039c0-1.265,0.309-2.777,1.62-3.687c0.602-0.401,1.342-0.648,2.19-0.648
			c1.11,0,2.437,0.432,3.147,1.882c0.523,1.064,0.493,2.206,0.463,2.854H168.176z M171.077,60.207c0-0.355-0.031-1.743-1.357-1.743
			c-1.003,0-1.42,0.833-1.466,1.743H171.077z"/>
		<path fill="#D1D3D4" d="M174.92,59.081c0-0.37-0.063-1.497-0.109-1.944h2.145l0.047,1.497c0.293-0.664,0.803-1.604,2.653-1.512
			v2.052c-2.313-0.216-2.453,0.972-2.453,1.944v3.841h-2.282v-5.878H174.92z"/>
		<path fill="#D1D3D4" d="M182.51,62.706c0.031,0.494,0.34,1.064,1.297,1.064c0.816,0,1.203-0.463,1.203-0.925
			c0-0.355-0.186-0.633-1.08-0.879l-1.42-0.386c-0.633-0.185-1.975-0.571-1.975-2.16c0-1.512,1.389-2.438,3.41-2.438
			c1.604,0,2.9,0.741,2.961,2.299h-2.082c-0.063-0.864-0.756-0.926-1.111-0.926c-0.617,0-1.079,0.293-1.079,0.771
			c0,0.524,0.386,0.632,1.063,0.817l1.404,0.386c1.42,0.386,2.083,1.111,2.083,2.175c0,1.342-1.157,2.684-3.579,2.684
			c-1.003,0-1.959-0.216-2.669-0.957c-0.509-0.54-0.556-1.157-0.571-1.527h2.145V62.706z"/>
		<path fill="#D1D3D4" d="M190.471,61.642c0,0.509,0,2.083,1.59,2.083c0.57,0,1.141-0.216,1.357-1.08h2.082
			c-0.03,0.37-0.107,1.034-0.74,1.697c-0.57,0.602-1.589,0.91-2.73,0.91c-0.663,0-1.928-0.123-2.746-0.972
			c-0.709-0.741-1.002-1.79-1.002-3.039c0-1.265,0.309-2.777,1.619-3.687c0.602-0.401,1.342-0.648,2.191-0.648
			c1.109,0,2.437,0.432,3.146,1.882c0.524,1.064,0.494,2.206,0.463,2.854H190.471z M193.372,60.207c0-0.355-0.03-1.743-1.357-1.743
			c-1.002,0-1.419,0.833-1.465,1.743H193.372z"/>
		<path fill="#D1D3D4" d="M203.34,61.642c0,0.509,0,2.083,1.588,2.083c0.571,0,1.143-0.216,1.358-1.08h2.083
			c-0.031,0.37-0.108,1.034-0.741,1.697c-0.571,0.602-1.589,0.91-2.73,0.91c-0.663,0-1.929-0.123-2.745-0.972
			c-0.711-0.741-1.004-1.79-1.004-3.039c0-1.265,0.309-2.777,1.62-3.687c0.602-0.401,1.343-0.648,2.19-0.648
			c1.111,0,2.438,0.432,3.147,1.882c0.524,1.064,0.493,2.206,0.463,2.854H203.34z M206.241,60.207c0-0.355-0.031-1.743-1.357-1.743
			c-1.004,0-1.42,0.833-1.467,1.743H206.241z"/>
		<path fill="#D1D3D4" d="M211.625,57.168l1.759,5.292l1.79-5.292h2.205l-2.808,7.791h-2.53l-2.854-7.791H211.625z"/>
		<path fill="#D1D3D4" d="M220.189,61.642c0,0.509,0,2.083,1.589,2.083c0.57,0,1.142-0.216,1.357-1.08h2.083
			c-0.03,0.37-0.108,1.034-0.741,1.697c-0.57,0.602-1.588,0.91-2.73,0.91c-0.662,0-1.928-0.123-2.745-0.972
			c-0.71-0.741-1.003-1.79-1.003-3.039c0-1.265,0.309-2.777,1.619-3.687c0.602-0.401,1.343-0.648,2.191-0.648
			c1.11,0,2.438,0.432,3.146,1.882c0.525,1.064,0.494,2.206,0.463,2.854H220.189z M223.089,60.207c0-0.355-0.03-1.743-1.357-1.743
			c-1.003,0-1.419,0.833-1.466,1.743H223.089z"/>
		<path fill="#D1D3D4" d="M226.963,58.557c0-0.031,0-0.879-0.047-1.419h2.19l0.062,1.172c0.217-0.355,0.834-1.357,2.53-1.357
			c1.527,0,2.175,0.925,2.376,1.465c0.17,0.479,0.216,0.879,0.216,2.33v4.211h-2.329v-4.844c0-0.324,0-0.602-0.124-0.849
			c-0.169-0.339-0.524-0.664-1.11-0.664c-0.494,0-0.941,0.231-1.188,0.602c-0.139,0.2-0.278,0.586-0.278,1.188v4.566h-2.298
			L226.963,58.557L226.963,58.557z"/>
		<path fill="#D1D3D4" d="M240.941,64.851c-0.741,0.201-1.403,0.247-1.774,0.247c-2.299,0-2.299-1.45-2.299-2.098v-4.273h-1.496
			v-1.512h1.496v-1.527l2.268-0.833v2.36h1.852v1.512h-1.852v3.518c0.016,0.709,0.016,1.157,1.034,1.157
			c0.339,0,0.493-0.016,0.771-0.046V64.851z"/>
	</g>
	<g>
		<path fill="#D1D3D4" d="M403.152,44.563h2.438v9.241h4.782v1.897h-7.22V44.563z"/>
		<path fill="#D1D3D4" d="M411.592,44.517h2.391v11.184h-2.391V44.517z"/>
		<path fill="#D1D3D4" d="M415.958,44.578h3.44c1.604,0,2.946,0.108,3.872,1.219c0.586,0.709,0.679,1.512,0.679,2.083
			c0,1.296-0.54,2.391-1.42,2.962c-0.817,0.524-1.943,0.524-2.529,0.524h-1.62v4.335h-2.422V44.578z M418.319,49.592h0.956
			c0.771,0,2.206,0,2.206-1.697c0-1.512-1.28-1.512-1.959-1.512h-1.203L418.319,49.592L418.319,49.592z"/>
		<path fill="#D1D3D4" d="M425.308,44.517h2.391v11.184h-2.391V44.517z"/>
		<path fill="#D1D3D4" d="M432.204,46.398h-3.316v-1.851h9.04v1.851h-3.316V55.7h-2.407L432.204,46.398L432.204,46.398z"/>
		<path fill="#D1D3D4" d="M443.483,44.316c1.188,0,2.823,0.277,3.918,1.512c1.188,1.357,1.42,3.101,1.42,4.196
			c0,1.62-0.494,3.347-1.404,4.366c-1.234,1.388-3.039,1.589-3.965,1.589c-1.465,0-2.931-0.463-3.949-1.527
			c-1.219-1.296-1.373-3.147-1.373-4.165C438.129,47.324,439.472,44.316,443.483,44.316z M441.462,53.325
			c0.339,0.462,0.91,0.895,2.021,0.895c0.972,0,1.635-0.339,2.083-1.034c0.37-0.555,0.756-1.419,0.756-3.193
			c0-0.54-0.047-1.311-0.278-1.99c-0.463-1.373-1.403-1.975-2.545-1.975c-0.895,0-1.604,0.37-2.052,0.941
			c-0.633,0.771-0.817,1.975-0.817,3.24C440.629,51.273,440.798,52.461,441.462,53.325z"/>
		<path fill="#D1D3D4" d="M450.412,44.547h4.273c1.233-0.016,2.483-0.016,3.378,0.756c0.694,0.602,0.972,1.419,0.972,2.144
			c0,2.083-1.789,2.577-2.329,2.73c1.682,0.154,1.805,1.111,2.006,2.561c0.169,1.311,0.262,1.851,0.339,2.16
			c0.123,0.494,0.216,0.617,0.34,0.802h-2.639c-0.107-0.617-0.447-3.44-0.602-3.872c-0.216-0.632-0.802-0.632-1.203-0.632h-2.098
			V55.7h-2.438V44.547H450.412z M452.772,49.422h1.928c0.278,0,0.833,0,1.219-0.309c0.17-0.123,0.617-0.509,0.617-1.295
			c0-0.756-0.37-1.111-0.586-1.25c-0.37-0.262-0.817-0.262-1.573-0.262h-1.604v3.116H452.772z"/>
	</g>
	<g>
		<path fill="#D1D3D4" d="M466.785,47.323c0,1.873-1.53,3.403-3.403,3.403c-1.854,0-3.402-1.513-3.402-3.403
			c0-1.926,1.584-3.403,3.402-3.403C465.218,43.92,466.785,45.396,466.785,47.323z M460.528,47.314c0,1.584,1.278,2.863,2.845,2.863
			c1.585,0,2.863-1.305,2.863-2.863c0-1.584-1.297-2.845-2.863-2.845C461.825,44.469,460.528,45.711,460.528,47.314z
			 M462.103,45.415h1.314c0.45,0,1.333,0,1.333,1.008c0,0.702-0.45,0.846-0.721,0.936c0.522,0.036,0.559,0.378,0.631,0.864
			c0.035,0.306,0.09,0.828,0.197,1.008h-0.81c-0.019-0.18-0.145-1.152-0.145-1.206c-0.054-0.216-0.126-0.324-0.396-0.324h-0.667
			v1.53h-0.738v-3.816H462.103z M462.824,47.089h0.594c0.486,0,0.576-0.342,0.576-0.54c0-0.522-0.359-0.522-0.558-0.522h-0.612
			L462.824,47.089L462.824,47.089z"/>
	</g>
	<g>
		<path fill="#D1D3D4" d="M472.732,46.549c1.003-0.432,1.96-0.973,2.855-1.621h1.991v10.773h-2.331V47.32
			c-0.447,0.34-1.342,0.896-2.515,1.374V46.549z M483.255,44.774c1.513,0,2.408,0.818,2.809,1.42
			c0.556,0.818,0.973,1.867,0.973,3.889c0,2.5-0.571,5.788-3.813,5.788c-2.762,0-3.719-2.655-3.719-5.525
			C479.505,48.91,479.798,44.774,483.255,44.774 M484.444,47.814c-0.062-0.293-0.324-1.25-1.173-1.25
			c-0.664,0-0.957,0.602-1.065,0.926c-0.355,1.096-0.355,2.748-0.355,3.01c0,1.837,0.278,3.55,1.435,3.55
			c1.235,0,1.436-2.099,1.436-3.581C484.722,49.79,484.644,48.524,484.444,47.814 M492.836,49.373c0-0.494-0.031-0.972-0.077-1.466
			h2.207l0.077,1.003c0.247-0.339,0.849-1.173,2.408-1.173c1.79,0,2.3,1.096,2.454,1.466c0.648-1.25,1.698-1.45,2.5-1.45
			c1.575,0,2.207,0.941,2.377,1.25c0.417,0.679,0.386,1.62,0.386,2.299v4.399h-2.3v-4.584c0-0.833-0.123-1.759-1.311-1.759
			c-1.374,0-1.405,1.281-1.405,2.438v3.905h-2.3v-4.63c0-0.602-0.015-1.713-1.281-1.713c-1.435,0-1.435,1.235-1.435,1.759v4.584
			h-2.3L492.836,49.373L492.836,49.373z M514.748,47.938c-0.062,0.617-0.108,1.142-0.108,1.929v5.757
			c0,2.871-2.392,3.149-3.889,3.149c-1.111,0-3.288-0.139-3.427-2.501h2.192c0.031,0.232,0.139,1.081,1.358,1.081
			c0.679,0,1.266-0.325,1.42-1.019c0.093-0.386,0.093-0.664,0.108-1.852c-0.725,0.957-1.543,1.065-2.099,1.065
			c-2.238,0-3.287-1.945-3.287-3.828c0-1.975,1.096-3.858,3.333-3.858c1.42,0,1.945,0.771,2.177,1.111l0.077-1.034
			C512.603,47.938,514.748,47.938,514.748,47.938z M510.828,53.988c1.605,0,1.605-1.883,1.605-2.223c0-0.879-0.17-2.376-1.559-2.376
			c-0.864,0-1.574,0.663-1.574,2.33C509.3,52.105,509.3,53.988,510.828,53.988"/>
	</g>
	<g>
		<path fill="#D1D3D4" d="M429.487,62.54c-0.51,1.542-1.358,4.042-1.358,6.803c0,2.067,0.433,3.61,1.343,6.772h-1.682
			c-0.88-2.145-1.559-4.381-1.559-6.695c0-2.375,0.71-4.674,1.574-6.88C427.805,62.54,429.487,62.54,429.487,62.54z"/>
		<path fill="#D1D3D4" d="M431.446,67.815c0-0.031,0-0.879-0.046-1.419h2.19l0.062,1.172c0.216-0.355,0.833-1.357,2.53-1.357
			c1.527,0,2.175,0.925,2.376,1.465c0.17,0.479,0.216,0.879,0.216,2.33v4.211h-2.329v-4.844c0-0.324,0-0.602-0.124-0.849
			c-0.17-0.339-0.524-0.664-1.11-0.664c-0.494,0-0.941,0.231-1.188,0.602c-0.139,0.2-0.277,0.586-0.277,1.188v4.566h-2.299v-6.401
			H431.446z"/>
		<path fill="#D1D3D4" d="M440.242,67.322h8.207v1.99h-8.207V67.322z M440.242,70.9h8.207v1.99h-8.207V70.9z"/>
		<path fill="#D1D3D4" d="M450.317,65.069c1.002-0.432,1.959-0.972,2.854-1.62h1.99v10.768h-2.329v-8.376
			c-0.448,0.339-1.343,0.895-2.515,1.373L450.317,65.069L450.317,65.069z"/>
		<path fill="#D1D3D4" d="M461.286,72.166l-1.836,3.795h-1.589l1.142-3.795H461.286z"/>
		<path fill="#D1D3D4" d="M461.966,71.873V69.79l4.319-6.34h2.299l-0.016,6.648h1.466v1.774h-1.466v2.345h-2.283v-2.345
			L461.966,71.873L461.966,71.873z M463.694,70.145h2.715v-2.838c0-0.139,0.016-0.91,0.031-1.188L463.694,70.145z"/>
		<path fill="#D1D3D4" d="M470.683,72.042l2.792-2.545c0.494-0.447,1.049-0.941,1.62-1.635c0.602-0.725,0.74-1.064,0.74-1.558
			c0-0.817-0.479-1.373-1.28-1.373c-1.234,0-1.342,1.265-1.357,1.573h-2.36c0-0.432,0-1.234,0.633-2.021
			c0.616-0.771,1.758-1.172,3.069-1.172c2.345,0,3.641,1.265,3.641,2.931c0,1.111-0.432,2.545-5.091,6.294
			c1.559-0.031,1.743-0.046,2.962-0.062c1.65-0.031,1.836-0.031,2.19-0.046v1.79h-7.559V72.042z"/>
		<path fill="#D1D3D4" d="M479.524,66.272c0-1.311,1.096-3.008,3.719-3.008c2.159,0,3.655,1.234,3.655,2.916
			c0,1.296-1.018,2.19-2.113,2.36c0.433,0.123,1.157,0.308,1.728,1.11c0.371,0.524,0.494,1.08,0.494,1.604
			c0,1.975-1.836,3.132-3.949,3.132c-2.19,0-3.702-1.404-3.702-3.132c0-0.833,0.323-1.435,0.786-1.882
			c0.524-0.509,1.019-0.664,1.42-0.802C481.021,68.401,479.524,67.938,479.524,66.272z M484.739,71.101
			c0-0.972-0.726-1.558-1.543-1.558c-0.895,0-1.543,0.679-1.543,1.589c0,1.095,0.818,1.604,1.559,1.604
			C483.859,72.736,484.739,72.304,484.739,71.101z M484.662,66.303c0-0.879-0.71-1.342-1.435-1.342
			c-0.771,0-1.404,0.524-1.404,1.342c0,0.756,0.54,1.389,1.389,1.389C483.998,67.692,484.662,67.167,484.662,66.303z"/>
		<path fill="#D1D3D4" d="M488.381,76.115c0.509-1.542,1.357-4.042,1.357-6.803c0-2.083-0.432-3.61-1.342-6.772h1.681
			c0.88,2.128,1.559,4.381,1.559,6.68c0,2.375-0.71,4.674-1.573,6.896L488.381,76.115L488.381,76.115z"/>
	</g>
	<g>
		<path fill="#D1D3D4" d="M596.788,47.912l0.062,1.111c0.709-1.25,2.005-1.265,2.375-1.265c2.021,0,3.24,1.512,3.24,3.888
			c0,2.206-1.142,4.165-3.394,4.165c-1.404,0-1.975-0.74-2.176-1.002v3.887h-2.329V47.912H596.788z M600.15,51.737
			c0-0.925-0.231-2.514-1.573-2.514c-0.74,0-1.789,0.555-1.789,2.653c0,0.463,0.015,2.438,1.696,2.438
			C599.564,54.314,600.15,53.28,600.15,51.737z"/>
		<path fill="#D1D3D4" d="M604.071,44.549h2.283v11.153h-2.283V44.549z"/>
		<path fill="#D1D3D4" d="M613.034,55.702c-0.077-0.478-0.077-0.833-0.077-1.064c-0.863,1.25-1.897,1.25-2.329,1.25
			c-1.126,0-1.636-0.324-1.943-0.617c-0.463-0.462-0.68-1.095-0.68-1.712s0.217-1.758,1.651-2.422
			c0.956-0.432,2.329-0.432,3.085-0.432c0-0.509-0.016-0.756-0.107-1.034c-0.201-0.571-0.803-0.648-1.019-0.648
			c-0.324,0-0.663,0.139-0.864,0.432c-0.169,0.262-0.169,0.509-0.169,0.694h-2.237c0.016-0.417,0.062-1.25,0.879-1.835
			c0.71-0.509,1.62-0.633,2.36-0.633c0.648,0,2.006,0.108,2.777,1.003c0.524,0.632,0.54,1.558,0.54,1.913l0.015,3.132
			c0,0.664,0.047,1.327,0.186,1.975h-2.068V55.702z M610.226,53.295c0,0.525,0.355,1.111,1.111,1.111
			c0.416,0,0.756-0.201,0.972-0.447c0.401-0.494,0.432-1.095,0.432-1.928C611.275,51.907,610.226,52.37,610.226,53.295z"/>
		<path fill="#D1D3D4" d="M621.057,50.673c-0.031-0.277-0.124-1.435-1.003-1.435c-1.08,0-1.203,1.635-1.203,2.484
			c0,0.432,0.046,1.82,0.57,2.391c0.216,0.231,0.447,0.262,0.617,0.262c0.247,0,0.956-0.108,1.049-1.497h2.253
			c-0.031,0.602-0.108,1.543-1.003,2.299c-0.556,0.478-1.25,0.725-2.222,0.725c-1.033,0-1.943-0.231-2.653-1.034
			c-0.679-0.787-0.987-1.82-0.987-3.07c0-3.548,2.607-4.042,3.641-4.042c1.45,0,3.162,0.802,3.178,2.916h-2.237V50.673z"/>
		<path fill="#D1D3D4" d="M626.489,52.385c0,0.509,0,2.083,1.589,2.083c0.57,0,1.142-0.216,1.357-1.08h2.082
			c-0.03,0.37-0.107,1.034-0.74,1.697c-0.57,0.602-1.589,0.91-2.73,0.91c-0.663,0-1.929-0.123-2.746-0.972
			c-0.709-0.741-1.003-1.79-1.003-3.039c0-1.265,0.309-2.777,1.62-3.687c0.602-0.401,1.342-0.648,2.19-0.648
			c1.111,0,2.438,0.432,3.147,1.882c0.524,1.064,0.493,2.206,0.463,2.854C631.718,52.385,626.489,52.385,626.489,52.385z
			 M629.388,50.951c0-0.355-0.03-1.743-1.357-1.743c-1.002,0-1.419,0.833-1.465,1.743H629.388z"/>
		<path fill="#D1D3D4" d="M633.155,44.58h2.283v4.273c0.771-1.018,1.805-1.049,2.206-1.049c1.897,0,3.394,1.497,3.394,4.119
			c0,2.916-1.697,3.934-3.255,3.934c-0.401,0-1.636-0.031-2.345-1.25c-0.016,0.247-0.031,0.617-0.077,1.095h-2.206V44.58z
			 M637.027,49.331c-1.682,0-1.682,1.913-1.682,2.406c0,1.774,0.756,2.623,1.789,2.623c1.574,0,1.574-1.959,1.574-2.36
			C638.708,51.383,638.677,49.331,637.027,49.331z"/>
		<path fill="#D1D3D4" d="M646.33,47.727c2.823,0,4.042,1.913,4.042,4.088c0,2.191-1.265,4.166-4.088,4.166
			c-2.222,0-3.98-1.373-3.98-4.104C642.303,49.994,643.26,47.727,646.33,47.727z M646.361,54.391c1.003,0,1.682-0.602,1.682-2.669
			c0-1.034-0.2-2.468-1.713-2.468c-1.666,0-1.681,1.928-1.681,2.638C644.649,53.635,645.235,54.391,646.361,54.391z"/>
	</g>
	<g>
		<path fill="#D1D3D4" d="M593.377,62.54c-0.51,1.542-1.358,4.042-1.358,6.803c0,2.067,0.433,3.61,1.343,6.772h-1.682
			c-0.88-2.145-1.559-4.381-1.559-6.695c0-2.375,0.71-4.674,1.574-6.88C591.695,62.54,593.377,62.54,593.377,62.54z"/>
		<path fill="#D1D3D4" d="M595.336,67.815c0-0.031,0-0.879-0.046-1.419h2.19l0.062,1.172c0.216-0.355,0.833-1.357,2.53-1.357
			c1.527,0,2.175,0.925,2.376,1.465c0.17,0.479,0.216,0.879,0.216,2.33v4.211h-2.329v-4.844c0-0.324,0-0.602-0.124-0.849
			c-0.17-0.339-0.524-0.664-1.11-0.664c-0.494,0-0.941,0.231-1.188,0.602c-0.139,0.2-0.277,0.586-0.277,1.188v4.566h-2.299v-6.401
			H595.336z"/>
		<path fill="#D1D3D4" d="M604.132,67.322h8.207v1.99h-8.207V67.322z M604.132,70.9h8.207v1.99h-8.207V70.9z"/>
		<path fill="#D1D3D4" d="M614.207,65.069c1.002-0.432,1.959-0.972,2.854-1.62h1.99v10.768h-2.329v-8.376
			c-0.448,0.339-1.343,0.895-2.515,1.373V65.069z"/>
		<path fill="#D1D3D4" d="M625.176,72.166l-1.836,3.795h-1.589l1.142-3.795H625.176z"/>
		<path fill="#D1D3D4" d="M625.857,71.873V69.79l4.319-6.34h2.299l-0.016,6.648h1.466v1.774h-1.466v2.345h-2.283v-2.345
			L625.857,71.873L625.857,71.873z M627.584,70.145h2.715v-2.838c0-0.139,0.016-0.91,0.031-1.188L627.584,70.145z"/>
		<path fill="#D1D3D4" d="M635.654,65.069c1.003-0.432,1.959-0.972,2.854-1.62h1.99v10.768h-2.329v-8.376
			c-0.448,0.339-1.343,0.895-2.515,1.373V65.069z"/>
		<path fill="#D1D3D4" d="M646.176,63.295c1.512,0,2.406,0.817,2.808,1.419c0.556,0.818,0.972,1.867,0.972,3.888
			c0,2.499-0.57,5.785-3.811,5.785c-2.761,0-3.718-2.654-3.718-5.523C642.427,67.43,642.72,63.295,646.176,63.295z M647.364,66.334
			c-0.062-0.293-0.323-1.25-1.172-1.25c-0.664,0-0.957,0.602-1.064,0.926c-0.355,1.095-0.355,2.746-0.355,3.008
			c0,1.836,0.278,3.548,1.436,3.548c1.233,0,1.435-2.098,1.435-3.579C647.642,68.309,647.565,67.044,647.364,66.334z"/>
		<path fill="#D1D3D4" d="M651.346,76.115c0.509-1.542,1.357-4.042,1.357-6.803c0-2.083-0.432-3.61-1.342-6.772h1.681
			c0.88,2.128,1.559,4.381,1.559,6.68c0,2.375-0.71,4.674-1.573,6.896L651.346,76.115L651.346,76.115z"/>
	</g>
	<g>
		<path fill="#005E7D" d="M25.36,105.479h3.225c1.496,0,3.255,0,4.488,1.45c0.988,1.157,1.373,2.684,1.373,4.211
			c0,2.406-1.002,3.888-1.851,4.566c-1.095,0.91-2.468,0.91-4.104,0.91H25.36V105.479z M26.903,115.353h1.512
			c1.064,0,2.176-0.063,2.916-0.617c1.419-1.064,1.465-2.885,1.465-3.533c0-0.416-0.031-2.313-1.08-3.471
			c-0.709-0.787-1.604-0.972-2.961-0.972h-1.852C26.903,106.76,26.903,115.353,26.903,115.353z"/>
		<path fill="#005E7D" d="M36.361,105.51h1.743v1.589h-1.743V105.51z M36.515,108.874h1.45v7.744h-1.45V108.874z"/>
		<path fill="#005E7D" d="M41.622,114.319c-0.015,0.587,0.294,1.404,1.697,1.404c0.602,0,1.049-0.108,1.357-0.494
			c0.154-0.2,0.247-0.463,0.247-0.725c0-0.756-0.54-0.895-1.696-1.157c-1.62-0.37-2.979-0.694-2.979-2.313
			c0-1.42,1.234-2.346,3.024-2.346c0.972,0,2.329,0.278,2.792,1.204c0.201,0.432,0.201,0.802,0.201,1.126h-1.481
			c0.046-1.173-0.972-1.266-1.497-1.266c-0.215,0-1.572,0-1.572,1.111c0,0.709,0.693,0.879,1.095,0.987
			c2.145,0.509,2.606,0.632,3.069,1.064c0.433,0.4,0.587,0.94,0.587,1.435c0,0.863-0.479,1.604-1.05,1.959
			c-0.678,0.417-1.496,0.524-2.298,0.524c-1.573,0-3.039-0.647-3.023-2.515h1.527V114.319z"/>
		<path fill="#005E7D" d="M52.916,111.357c-0.031-0.354-0.139-1.619-1.543-1.619c-2.006,0-2.006,2.329-2.006,2.915
			c0,1.589,0.386,3.07,1.929,3.07c1.233,0,1.65-0.926,1.681-1.682h1.467c-0.094,1.512-1.219,2.776-3.133,2.776
			c-0.523,0-1.727-0.107-2.545-1.002c-0.463-0.54-0.926-1.358-0.926-2.962c0-3.225,1.975-4.181,3.518-4.181
			c0.51,0,1.666,0.107,2.376,0.956c0.57,0.663,0.616,1.296,0.647,1.728L52.916,111.357L52.916,111.357z"/>
		<path fill="#005E7D" d="M59.581,108.673c3.101,0,3.795,2.438,3.795,4.057c0,2.268-1.28,4.15-3.919,4.15
			c-2.561,0-3.811-1.774-3.811-4.042C55.647,110.925,56.542,108.673,59.581,108.673z M59.489,115.8c1.096,0,2.345-0.787,2.345-3.116
			c0-1.929-0.895-2.946-2.252-2.946c-0.926,0-2.423,0.586-2.423,3.008C57.159,114.334,57.838,115.8,59.489,115.8z"/>
		<path fill="#005E7D" d="M65.692,109.768l-0.016-0.895h1.45l0.016,1.25c0.169-0.324,0.726-1.404,2.483-1.404
			c0.694,0,2.808,0.263,2.808,2.638v5.261h-1.48v-4.921c0-0.509-0.062-0.972-0.417-1.327c-0.37-0.354-0.879-0.524-1.373-0.524
			c-1.049,0-2.021,0.756-2.021,2.314v4.458h-1.45V109.768z"/>
		<path fill="#005E7D" d="M73.885,108.842h1.373v-1.62l1.435-0.462v2.082h1.728v1.064h-1.728v4.644c0,0.386,0,1.034,1.033,1.034
			c0.294,0,0.571-0.047,0.694-0.077v1.126c-0.262,0.046-0.679,0.093-1.203,0.093c-1.326,0-1.959-0.386-1.959-1.651v-5.168h-1.373
			C73.885,109.907,73.885,108.842,73.885,108.842z"/>
		<path fill="#005E7D" d="M80.073,105.51h1.742v1.589h-1.742V105.51z M80.227,108.874h1.449v7.744h-1.449V108.874z"/>
		<path fill="#005E7D" d="M84.546,109.768l-0.016-0.895h1.45l0.016,1.25c0.17-0.324,0.725-1.404,2.483-1.404
			c0.694,0,2.808,0.263,2.808,2.638v5.261h-1.48v-4.921c0-0.509-0.063-0.972-0.417-1.327c-0.37-0.354-0.879-0.524-1.372-0.524
			c-1.05,0-2.021,0.756-2.021,2.314v4.458h-1.45v-6.85H84.546z"/>
		<path fill="#005E7D" d="M95.254,108.874v4.982c0,0.756,0.17,1.713,1.65,1.713c0.725,0,1.404-0.247,1.82-0.864
			c0.324-0.463,0.324-1.064,0.324-1.45v-4.381h1.496v6.294c0,0.154,0.031,1.019,0.047,1.45H99.08l-0.031-1.327
			c-0.277,0.54-0.803,1.404-2.469,1.404c-1.912,0-2.808-1.096-2.808-2.622v-5.199H95.254z"/>
		<path fill="#005E7D" d="M108.075,116.618c-0.107-0.386-0.139-0.756-0.139-1.157c-0.693,1.28-1.743,1.404-2.391,1.404
			c-1.774,0-2.73-1.003-2.73-2.283c0-0.617,0.216-1.604,1.357-2.268c0.833-0.463,2.066-0.51,2.684-0.51
			c0.371,0,0.602,0.016,1.049,0.047c0-0.957,0-1.373-0.277-1.713c-0.293-0.386-0.926-0.509-1.342-0.509
			c-1.465,0-1.543,1.003-1.559,1.312h-1.449c0.046-0.401,0.092-0.941,0.539-1.466c0.587-0.647,1.682-0.833,2.5-0.833
			c1.126,0,2.329,0.354,2.746,1.142c0.246,0.463,0.262,0.833,0.262,1.188l-0.062,3.703c0,0.123,0.015,1.156,0.123,1.943H108.075z
			 M107.073,112.807c-0.586,0-2.793,0-2.793,1.573c0,0.494,0.309,1.343,1.605,1.343c0.74,0,1.295-0.293,1.65-0.833
			c0.324-0.524,0.339-0.957,0.369-2.036C107.643,112.823,107.427,112.807,107.073,112.807z"/>
		<path fill="#005E7D" d="M110.747,108.842h1.372v-1.62l1.435-0.462v2.082h1.729v1.064h-1.729v4.644c0,0.386,0,1.034,1.033,1.034
			c0.294,0,0.571-0.047,0.695-0.077v1.126c-0.263,0.046-0.68,0.093-1.203,0.093c-1.327,0-1.96-0.386-1.96-1.651v-5.168h-1.372
			C110.747,109.907,110.747,108.842,110.747,108.842z"/>
		<path fill="#005E7D" d="M116.932,105.51h1.744v1.589h-1.744V105.51z M117.086,108.874h1.451v7.744h-1.451V108.874z"/>
		<path fill="#005E7D" d="M124.724,108.673c3.101,0,3.795,2.438,3.795,4.057c0,2.268-1.28,4.15-3.919,4.15
			c-2.561,0-3.811-1.774-3.811-4.042C120.789,110.925,121.685,108.673,124.724,108.673z M124.631,115.8
			c1.096,0,2.345-0.787,2.345-3.116c0-1.929-0.895-2.946-2.252-2.946c-0.926,0-2.423,0.586-2.423,3.008
			C122.301,114.334,122.981,115.8,124.631,115.8z"/>
		<path fill="#005E7D" d="M130.834,109.768l-0.016-0.895h1.45l0.016,1.25c0.169-0.324,0.726-1.404,2.483-1.404
			c0.694,0,2.808,0.263,2.808,2.638v5.261h-1.48v-4.921c0-0.509-0.062-0.972-0.417-1.327c-0.37-0.354-0.879-0.524-1.373-0.524
			c-1.049,0-2.021,0.756-2.021,2.314v4.458h-1.45V109.768z"/>
		<path fill="#005E7D" d="M149.873,105.495h1.449v9.888c0,0.17,0.031,0.833,0.063,1.234h-1.451l-0.03-1.234
			c-0.124,0.216-0.293,0.54-0.694,0.817c-0.633,0.433-1.389,0.571-1.912,0.571c-1.034,0-3.333-0.54-3.333-3.934
			c0-2.946,1.682-4.228,3.502-4.228c1.666,0,2.222,0.987,2.407,1.312v-4.426H149.873z M149.332,110.478
			c-0.309-0.401-0.879-0.787-1.696-0.787c-2.129,0-2.129,2.576-2.129,3.101c0,1.373,0.354,2.962,2.129,2.962
			c2.283,0,2.283-2.515,2.283-3.116C149.919,111.511,149.657,110.894,149.332,110.478z"/>
		<path fill="#005E7D" d="M155.258,108.874v4.982c0,0.756,0.17,1.713,1.65,1.713c0.726,0,1.404-0.247,1.82-0.864
			c0.324-0.463,0.324-1.064,0.324-1.45v-4.381h1.496v6.294c0,0.154,0.031,1.019,0.047,1.45h-1.512l-0.031-1.327
			c-0.277,0.54-0.802,1.404-2.469,1.404c-1.912,0-2.807-1.096-2.807-2.622v-5.199H155.258z"/>
		<path fill="#005E7D" d="M164.239,113.008c-0.031,1.604,0.632,2.792,2.221,2.792c0.941,0,1.697-0.494,1.82-1.604h1.45
			c-0.046,0.386-0.108,1.018-0.663,1.62c-0.34,0.385-1.111,1.033-2.669,1.033c-2.438,0-3.595-1.512-3.595-3.965
			c0-1.527,0.309-2.792,1.527-3.641c0.74-0.524,1.666-0.57,2.113-0.57c3.472,0,3.395,3.069,3.363,4.335
			C169.806,113.008,164.239,113.008,164.239,113.008z M168.327,111.99c0.016-0.74-0.123-2.283-1.913-2.283
			c-0.94,0-2.083,0.57-2.114,2.283H168.327z"/>
		<path fill="#005E7D" d="M175.039,108.842h1.373v-1.62l1.435-0.462v2.082h1.728v1.064h-1.728v4.644c0,0.386,0,1.034,1.033,1.034
			c0.294,0,0.571-0.047,0.694-0.077v1.126c-0.262,0.046-0.679,0.093-1.203,0.093c-1.326,0-1.959-0.386-1.959-1.651v-5.168h-1.373
			V108.842z"/>
		<path fill="#005E7D" d="M184.728,108.673c3.101,0,3.795,2.438,3.795,4.057c0,2.268-1.28,4.15-3.919,4.15
			c-2.561,0-3.811-1.774-3.811-4.042C180.793,110.925,181.689,108.673,184.728,108.673z M184.635,115.8
			c1.096,0,2.345-0.787,2.345-3.116c0-1.929-0.895-2.946-2.252-2.946c-0.926,0-2.423,0.586-2.423,3.008
			C182.305,114.334,182.985,115.8,184.635,115.8z"/>
		<path fill="#005E7D" d="M195.067,109.907l-0.031-1.033h1.465V110c0.74-1.219,1.79-1.326,2.453-1.326
			c1.713,0,2.252,0.879,2.53,1.45c0.263-0.433,0.895-1.45,2.606-1.45c1.111,0,2.839,0.463,2.839,2.745v5.199h-1.466v-4.968
			c0-0.679-0.123-0.972-0.262-1.172c-0.247-0.354-0.74-0.679-1.48-0.679c-0.941,0-1.451,0.54-1.651,0.817
			c-0.339,0.479-0.339,1.327-0.339,1.666v4.335h-1.466v-5.122c0-0.956-0.556-1.696-1.697-1.696c-0.987,0-1.526,0.617-1.696,0.849
			c-0.324,0.447-0.34,1.079-0.34,1.573v4.396h-1.465V109.907z"/>
		<path fill="#005E7D" d="M210.973,108.874v4.982c0,0.756,0.17,1.713,1.651,1.713c0.726,0,1.403-0.247,1.82-0.864
			c0.323-0.463,0.323-1.064,0.323-1.45v-4.381h1.497v6.294c0,0.154,0.03,1.019,0.046,1.45h-1.512l-0.031-1.327
			c-0.277,0.54-0.802,1.404-2.468,1.404c-1.913,0-2.808-1.096-2.808-2.622v-5.199H210.973z"/>
		<path fill="#005E7D" d="M219.907,114.319c-0.015,0.587,0.294,1.404,1.697,1.404c0.602,0,1.049-0.108,1.357-0.494
			c0.154-0.2,0.247-0.463,0.247-0.725c0-0.756-0.54-0.895-1.696-1.157c-1.62-0.37-2.979-0.694-2.979-2.313
			c0-1.42,1.234-2.346,3.024-2.346c0.972,0,2.329,0.278,2.792,1.204c0.201,0.432,0.201,0.802,0.201,1.126h-1.481
			c0.046-1.173-0.972-1.266-1.497-1.266c-0.215,0-1.572,0-1.572,1.111c0,0.709,0.693,0.879,1.095,0.987
			c2.145,0.509,2.606,0.632,3.069,1.064c0.433,0.4,0.587,0.94,0.587,1.435c0,0.863-0.479,1.604-1.05,1.959
			c-0.678,0.417-1.496,0.524-2.298,0.524c-1.573,0-3.039-0.647-3.023-2.515h1.527V114.319z"/>
		<path fill="#005E7D" d="M231.201,111.357c-0.03-0.354-0.139-1.619-1.542-1.619c-2.006,0-2.006,2.329-2.006,2.915
			c0,1.589,0.385,3.07,1.928,3.07c1.234,0,1.65-0.926,1.682-1.682h1.466c-0.093,1.512-1.219,2.776-3.132,2.776
			c-0.524,0-1.728-0.107-2.545-1.002c-0.463-0.54-0.926-1.358-0.926-2.962c0-3.225,1.975-4.181,3.518-4.181
			c0.509,0,1.666,0.107,2.375,0.956c0.571,0.663,0.617,1.296,0.648,1.728L231.201,111.357L231.201,111.357z"/>
		<path fill="#005E7D" d="M234.534,105.495h1.451v11.123h-1.451V105.495z"/>
		<path fill="#005E7D" d="M239.672,113.008c-0.031,1.604,0.633,2.792,2.222,2.792c0.94,0,1.696-0.494,1.82-1.604h1.45
			c-0.047,0.386-0.108,1.018-0.664,1.62c-0.339,0.385-1.11,1.033-2.668,1.033c-2.438,0-3.595-1.512-3.595-3.965
			c0-1.527,0.309-2.792,1.527-3.641c0.74-0.524,1.666-0.57,2.113-0.57c3.472,0,3.394,3.069,3.362,4.335
			C245.239,113.008,239.672,113.008,239.672,113.008z M243.76,111.99c0.016-0.74-0.123-2.283-1.912-2.283
			c-0.941,0-2.083,0.57-2.114,2.283H243.76z"/>
		<path fill="#005E7D" d="M246.663,111.974h3.871v1.173h-3.871V111.974z"/>
		<path fill="#005E7D" d="M252.586,110.447c0-0.524-0.031-1.064-0.077-1.573h1.466l0.031,1.496c0.277-1.08,1.203-1.435,1.851-1.527
			c0.433-0.062,0.756-0.046,1.003-0.03v1.419c-0.077-0.031-0.17-0.046-0.277-0.062c-0.108-0.016-0.247-0.016-0.417-0.016
			c-1.712,0-2.113,1.019-2.113,2.345v4.119h-1.466v-6.171H252.586z"/>
		<path fill="#005E7D" d="M259.391,113.008c-0.031,1.604,0.632,2.792,2.221,2.792c0.941,0,1.697-0.494,1.82-1.604h1.45
			c-0.046,0.386-0.108,1.018-0.663,1.62c-0.34,0.385-1.111,1.033-2.669,1.033c-2.438,0-3.595-1.512-3.595-3.965
			c0-1.527,0.309-2.792,1.527-3.641c0.74-0.524,1.666-0.57,2.113-0.57c3.472,0,3.395,3.069,3.363,4.335
			C264.958,113.008,259.391,113.008,259.391,113.008z M263.479,111.99c0.016-0.74-0.123-2.283-1.913-2.283
			c-0.94,0-2.083,0.57-2.114,2.283H263.479z"/>
		<path fill="#005E7D" d="M267.121,105.495h1.45v11.123h-1.45V105.495z"/>
		<path fill="#005E7D" d="M276.1,116.618c-0.107-0.386-0.139-0.756-0.139-1.157c-0.694,1.28-1.743,1.404-2.391,1.404
			c-1.775,0-2.731-1.003-2.731-2.283c0-0.617,0.216-1.604,1.358-2.268c0.832-0.463,2.066-0.51,2.684-0.51
			c0.37,0,0.602,0.016,1.049,0.047c0-0.957,0-1.373-0.277-1.713c-0.293-0.386-0.926-0.509-1.342-0.509
			c-1.466,0-1.543,1.003-1.559,1.312h-1.45c0.046-0.401,0.093-0.941,0.54-1.466c0.586-0.647,1.682-0.833,2.499-0.833
			c1.126,0,2.329,0.354,2.746,1.142c0.247,0.463,0.263,0.833,0.263,1.188l-0.063,3.703c0,0.123,0.016,1.156,0.123,1.943H276.1z
			 M275.097,112.807c-0.586,0-2.792,0-2.792,1.573c0,0.494,0.309,1.343,1.604,1.343c0.74,0,1.296-0.293,1.65-0.833
			c0.324-0.524,0.339-0.957,0.37-2.036C275.668,112.823,275.452,112.807,275.097,112.807z"/>
		<path fill="#005E7D" d="M278.77,108.842h1.373v-1.62l1.436-0.462v2.082h1.727v1.064h-1.727v4.644c0,0.386,0,1.034,1.033,1.034
			c0.293,0,0.57-0.047,0.693-0.077v1.126c-0.262,0.046-0.678,0.093-1.203,0.093c-1.326,0-1.959-0.386-1.959-1.651v-5.168h-1.373
			L278.77,108.842L278.77,108.842z"/>
		<path fill="#005E7D" d="M285.975,113.008c-0.03,1.604,0.633,2.792,2.223,2.792c0.94,0,1.696-0.494,1.82-1.604h1.449
			c-0.046,0.386-0.107,1.018-0.663,1.62c-0.339,0.385-1.11,1.033-2.669,1.033c-2.438,0-3.594-1.512-3.594-3.965
			c0-1.527,0.309-2.792,1.527-3.641c0.74-0.524,1.666-0.57,2.113-0.57c3.471,0,3.394,3.069,3.362,4.335
			C291.543,113.008,285.975,113.008,285.975,113.008z M290.063,111.99c0.016-0.74-0.123-2.283-1.912-2.283
			c-0.941,0-2.082,0.57-2.113,2.283H290.063z"/>
		<path fill="#005E7D" d="M299.043,105.495h1.45v9.888c0,0.17,0.03,0.833,0.062,1.234h-1.45l-0.03-1.234
			c-0.124,0.216-0.293,0.54-0.695,0.817c-0.632,0.433-1.388,0.571-1.912,0.571c-1.033,0-3.332-0.54-3.332-3.934
			c0-2.946,1.682-4.228,3.502-4.228c1.666,0,2.221,0.987,2.406,1.312v-4.426H299.043z M298.503,110.478
			c-0.309-0.401-0.88-0.787-1.696-0.787c-2.129,0-2.129,2.576-2.129,3.101c0,1.373,0.354,2.962,2.129,2.962
			c2.283,0,2.283-2.515,2.283-3.116C299.09,111.511,298.828,110.894,298.503,110.478z"/>
	</g>
	<g>
		<path fill="#005E7D" d="M30.08,135.132c-0.107-0.386-0.139-0.756-0.139-1.157c-0.694,1.28-1.743,1.404-2.391,1.404
			c-1.775,0-2.731-1.003-2.731-2.283c0-0.617,0.216-1.604,1.358-2.268c0.832-0.463,2.066-0.51,2.684-0.51
			c0.37,0,0.602,0.016,1.049,0.047c0-0.957,0-1.373-0.277-1.713c-0.293-0.386-0.926-0.509-1.342-0.509
			c-1.466,0-1.543,1.003-1.559,1.312h-1.45c0.046-0.401,0.093-0.941,0.54-1.466c0.586-0.647,1.682-0.833,2.499-0.833
			c1.126,0,2.329,0.354,2.746,1.142c0.247,0.463,0.263,0.833,0.263,1.188l-0.063,3.703c0,0.123,0.016,1.156,0.123,1.943H30.08z
			 M29.078,131.322c-0.586,0-2.792,0-2.792,1.573c0,0.494,0.309,1.343,1.604,1.343c0.74,0,1.296-0.293,1.65-0.833
			c0.324-0.524,0.339-0.957,0.37-2.036C29.649,131.337,29.432,131.322,29.078,131.322z"/>
		<path fill="#005E7D" d="M39.307,124.009h1.45v9.889c0,0.17,0.03,0.833,0.062,1.234h-1.45l-0.03-1.234
			c-0.124,0.216-0.293,0.54-0.695,0.817c-0.632,0.433-1.388,0.571-1.912,0.571c-1.033,0-3.332-0.54-3.332-3.934
			c0-2.946,1.682-4.228,3.502-4.228c1.666,0,2.221,0.987,2.406,1.312L39.307,124.009L39.307,124.009z M38.767,128.993
			c-0.309-0.401-0.88-0.787-1.696-0.787c-2.129,0-2.129,2.576-2.129,3.101c0,1.373,0.354,2.962,2.129,2.962
			c2.283,0,2.283-2.515,2.283-3.116C39.354,130.026,39.091,129.409,38.767,128.993z"/>
		<path fill="#005E7D" d="M42.194,127.388h1.619l2.469,6.14l2.406-6.14h1.604l-3.394,7.744h-1.466L42.194,127.388z"/>
		<path fill="#005E7D" d="M52.825,131.523c-0.031,1.604,0.632,2.792,2.221,2.792c0.941,0,1.697-0.494,1.82-1.604h1.45
			c-0.046,0.386-0.108,1.018-0.663,1.62c-0.34,0.385-1.111,1.033-2.669,1.033c-2.438,0-3.595-1.512-3.595-3.965
			c0-1.527,0.309-2.792,1.527-3.641c0.74-0.524,1.666-0.57,2.113-0.57c3.472,0,3.395,3.069,3.363,4.335L52.825,131.523
			L52.825,131.523z M56.913,130.504c0.016-0.74-0.123-2.283-1.913-2.283c-0.94,0-2.083,0.57-2.114,2.283H56.913z"/>
		<path fill="#005E7D" d="M60.6,128.961c0-0.524-0.03-1.064-0.076-1.573h1.465l0.031,1.496c0.277-1.08,1.203-1.435,1.852-1.527
			c0.432-0.062,0.756-0.046,1.002-0.03v1.419c-0.076-0.03-0.17-0.046-0.277-0.062c-0.107-0.016-0.247-0.016-0.416-0.016
			c-1.713,0-2.113,1.019-2.113,2.345v4.119H60.6V128.961z"/>
		<path fill="#005E7D" d="M67.666,132.833c-0.015,0.587,0.294,1.404,1.697,1.404c0.602,0,1.049-0.108,1.357-0.494
			c0.154-0.2,0.247-0.463,0.247-0.725c0-0.756-0.54-0.895-1.696-1.157c-1.62-0.37-2.979-0.694-2.979-2.313
			c0-1.42,1.234-2.346,3.024-2.346c0.972,0,2.329,0.278,2.792,1.204c0.201,0.432,0.201,0.802,0.201,1.126H70.83
			c0.046-1.173-0.972-1.266-1.497-1.266c-0.215,0-1.572,0-1.572,1.111c0,0.709,0.693,0.879,1.095,0.987
			c2.145,0.509,2.606,0.632,3.069,1.064c0.433,0.4,0.587,0.94,0.587,1.435c0,0.863-0.479,1.604-1.05,1.959
			c-0.678,0.417-1.496,0.524-2.298,0.524c-1.573,0-3.039-0.647-3.023-2.515h1.525V132.833z"/>
		<path fill="#005E7D" d="M75.428,131.523c-0.031,1.604,0.632,2.792,2.221,2.792c0.941,0,1.697-0.494,1.82-1.604h1.45
			c-0.046,0.386-0.108,1.018-0.663,1.62c-0.34,0.385-1.111,1.033-2.669,1.033c-2.438,0-3.595-1.512-3.595-3.965
			c0-1.527,0.309-2.792,1.527-3.641c0.74-0.524,1.666-0.57,2.113-0.57c3.472,0,3.395,3.069,3.363,4.335L75.428,131.523
			L75.428,131.523z M79.516,130.504c0.016-0.74-0.123-2.283-1.913-2.283c-0.94,0-2.083,0.57-2.114,2.283H79.516z"/>
		<path fill="#005E7D" d="M88.295,131.523c-0.03,1.604,0.633,2.792,2.223,2.792c0.94,0,1.696-0.494,1.82-1.604h1.449
			c-0.046,0.386-0.107,1.018-0.663,1.62c-0.339,0.385-1.11,1.033-2.669,1.033c-2.438,0-3.594-1.512-3.594-3.965
			c0-1.527,0.309-2.792,1.527-3.641c0.74-0.524,1.666-0.57,2.113-0.57c3.471,0,3.394,3.069,3.362,4.335L88.295,131.523
			L88.295,131.523z M92.383,130.504c0.016-0.74-0.123-2.283-1.912-2.283c-0.941,0-2.082,0.57-2.113,2.283H92.383z"/>
		<path fill="#005E7D" d="M94.823,127.388h1.62l2.468,6.14l2.407-6.14h1.604l-3.395,7.744h-1.465L94.823,127.388z"/>
		<path fill="#005E7D" d="M105.454,131.523c-0.031,1.604,0.633,2.792,2.222,2.792c0.94,0,1.696-0.494,1.82-1.604h1.45
			c-0.047,0.386-0.108,1.018-0.664,1.62c-0.339,0.385-1.11,1.033-2.668,1.033c-2.438,0-3.595-1.512-3.595-3.965
			c0-1.527,0.309-2.792,1.527-3.641c0.74-0.524,1.666-0.57,2.113-0.57c3.472,0,3.394,3.069,3.362,4.335L105.454,131.523
			L105.454,131.523z M109.541,130.504c0.016-0.74-0.123-2.283-1.912-2.283c-0.941,0-2.083,0.57-2.114,2.283H109.541z"/>
		<path fill="#005E7D" d="M113.2,128.283l-0.016-0.895h1.449l0.016,1.25c0.17-0.324,0.726-1.404,2.484-1.404
			c0.693,0,2.808,0.263,2.808,2.638v5.261h-1.481v-4.921c0-0.51-0.062-0.972-0.416-1.327c-0.371-0.354-0.879-0.524-1.373-0.524
			c-1.049,0-2.021,0.756-2.021,2.314v4.458h-1.45V128.283z"/>
		<path fill="#005E7D" d="M121.393,127.357h1.372v-1.619l1.435-0.463v2.082h1.729v1.064H124.2v4.644c0,0.386,0,1.034,1.033,1.034
			c0.294,0,0.571-0.047,0.695-0.077v1.126c-0.263,0.046-0.68,0.093-1.203,0.093c-1.327,0-1.96-0.386-1.96-1.651v-5.168h-1.372
			C121.393,128.422,121.393,127.357,121.393,127.357z"/>
		<path fill="#005E7D" d="M128.551,132.833c-0.016,0.587,0.293,1.404,1.697,1.404c0.602,0,1.049-0.108,1.357-0.494
			c0.154-0.2,0.246-0.463,0.246-0.725c0-0.756-0.539-0.895-1.697-1.157c-1.619-0.37-2.977-0.694-2.977-2.313
			c0-1.42,1.234-2.346,3.023-2.346c0.972,0,2.329,0.278,2.792,1.204c0.2,0.432,0.2,0.802,0.2,1.126h-1.48
			c0.047-1.173-0.972-1.266-1.496-1.266c-0.217,0-1.574,0-1.574,1.111c0,0.709,0.695,0.879,1.096,0.987
			c2.145,0.509,2.607,0.632,3.07,1.064c0.432,0.4,0.586,0.94,0.586,1.435c0,0.863-0.479,1.604-1.049,1.959
			c-0.68,0.417-1.496,0.524-2.299,0.524c-1.574,0-3.039-0.647-3.023-2.515h1.528V132.833z"/>
	</g>
	<g>
		<path fill="#005E7D" d="M430.32,115.2h7.05v1.295l-3.918,9.38h-1.743l4.104-9.395h-5.492L430.32,115.2L430.32,115.2z"/>
		<path fill="#005E7D" d="M445.61,127.772c-0.833-2.052-1.836-4.612-1.836-6.865c0-1.219,0.278-2.422,0.633-3.594
			c0.432-1.389,0.833-2.376,1.095-3.039h1.019c-0.247,0.756-0.586,1.805-0.91,3.271c-0.324,1.419-0.432,2.375-0.432,3.332
			c0,2.19,0.54,3.965,1.435,6.896L445.61,127.772L445.61,127.772z"/>
		<path fill="#005E7D" d="M452.043,114.983c3.193,0,3.579,3.425,3.579,5.431c0,2.53-0.509,3.949-1.481,4.859
			c-0.756,0.71-1.65,0.817-2.129,0.817c-1.419,0-2.391-0.833-2.854-1.773c-0.354-0.71-0.694-1.744-0.694-3.656
			C448.464,119.072,448.65,114.983,452.043,114.983z M452.028,124.81c1.79,0,2.099-2.345,2.099-4.258
			c0-2.561-0.448-4.335-2.067-4.335c-1.867,0-2.113,2.453-2.113,4.366C449.946,122.958,450.408,124.81,452.028,124.81z"/>
		<path fill="#005E7D" d="M457.615,124.023h1.712v1.852h-1.712V124.023z"/>
		<path fill="#005E7D" d="M463.121,123.344c0.031,1.08,0.973,1.512,1.774,1.512c1.867,0,2.113-1.758,2.113-2.452
			c0-1.45-0.786-2.299-2.021-2.299c-0.617,0-1.11,0.231-1.435,0.556c-0.324,0.323-0.417,0.647-0.494,0.895h-1.403l0.277-6.355h6.001
			v1.249h-4.674l-0.201,3.456c0.324-0.324,1.003-0.987,2.253-0.987c2.144,0,3.193,1.681,3.193,3.517
			c0,2.099-1.481,3.688-3.811,3.688c-1.728,0-3.101-0.957-3.178-2.777h1.606V123.344z"/>
		<path fill="#005E7D" d="M475.048,117.636c0,1.913-1.126,2.793-2.529,2.793c-1.343,0-2.484-0.803-2.484-2.7
			c0-1.619,0.88-2.823,2.623-2.823C474.432,114.906,475.048,116.233,475.048,117.636z M473.829,117.699
			c0-0.756-0.185-1.867-1.28-1.867c-1.326,0-1.326,1.512-1.326,1.882c0,0.355,0,1.82,1.326,1.82
			C473.829,119.534,473.829,118.007,473.829,117.699z M472.086,126.476l6.804-11.879h1.018l-6.803,11.879H472.086z M481.497,121.278
			c0.277,0.308,0.632,0.802,0.632,1.959c0,1.682-0.817,2.823-2.483,2.823c-1.975,0-2.53-1.466-2.53-2.746
			c0-1.867,1.157-2.777,2.53-2.777C480.062,120.537,480.895,120.614,481.497,121.278z M480.957,123.267
			c0-0.478-0.093-1.866-1.296-1.866c-1.327,0-1.327,1.604-1.327,2.067c0,0.54,0.124,1.682,1.296,1.682
			C480.865,125.15,480.957,123.823,480.957,123.267z"/>
		<path fill="#005E7D" d="M485.124,114.274c0.833,2.052,1.836,4.597,1.836,6.85c0,1.219-0.277,2.422-0.632,3.594
			c-0.433,1.389-0.834,2.392-1.096,3.055h-1.019c0.247-0.771,0.587-1.82,0.91-3.286c0.324-1.403,0.433-2.375,0.433-3.332
			c0-2.175-0.54-3.949-1.435-6.88L485.124,114.274L485.124,114.274z"/>
	</g>
	<g>
		<path fill="#005E7D" d="M595.538,123.33c0,0.925,0.51,1.573,1.713,1.573c2.345,0,2.36-2.762,2.283-4.428
			c-0.556,1.049-1.559,1.342-2.392,1.342c-1.696,0-3.255-1.142-3.255-3.378c0-2.453,1.743-3.44,3.425-3.44
			c1.142,0,2.823,0.463,3.44,2.623c0.185,0.647,0.309,1.419,0.309,2.869c0,1.573-0.016,5.631-3.935,5.631
			c-1.45,0-3.146-0.571-3.208-2.792H595.538z M597.312,116.156c-1.25,0-1.913,1.033-1.913,2.299c0,1.388,0.849,2.19,2.021,2.19
			c1.203,0,1.943-0.895,1.943-2.176C599.364,116.927,598.361,116.156,597.312,116.156z"/>
		<path fill="#005E7D" d="M609.039,127.772c-0.833-2.052-1.836-4.612-1.836-6.865c0-1.219,0.278-2.422,0.633-3.594
			c0.432-1.389,0.833-2.376,1.095-3.039h1.019c-0.247,0.756-0.586,1.805-0.91,3.271c-0.324,1.419-0.432,2.375-0.432,3.332
			c0,2.19,0.54,3.965,1.435,6.896L609.039,127.772L609.039,127.772z"/>
		<path fill="#005E7D" d="M615.472,114.983c3.193,0,3.579,3.425,3.579,5.431c0,2.53-0.509,3.949-1.481,4.859
			c-0.756,0.71-1.65,0.817-2.129,0.817c-1.419,0-2.391-0.833-2.854-1.773c-0.354-0.71-0.694-1.744-0.694-3.656
			C611.893,119.072,612.079,114.983,615.472,114.983z M615.456,124.81c1.79,0,2.099-2.345,2.099-4.258
			c0-2.561-0.448-4.335-2.067-4.335c-1.867,0-2.113,2.453-2.113,4.366C613.374,122.958,613.836,124.81,615.456,124.81z"/>
		<path fill="#005E7D" d="M621.043,124.023h1.712v1.852h-1.712V124.023z"/>
		<path fill="#005E7D" d="M630.361,117.729c-0.015-1.249-0.94-1.589-1.619-1.589c-1.543,0-2.222,1.327-2.36,4.165
			c0.339-0.493,0.926-1.357,2.483-1.357c1.743,0,3.225,1.157,3.225,3.425c0,2.483-1.774,3.733-3.61,3.733
			c-1.033,0-2.067-0.417-2.638-1.157c-0.787-1.049-0.972-2.576-0.972-3.934c0-2.329,0.57-6.032,3.949-6.032
			c1.403,0,2.19,0.617,2.561,1.019c0.54,0.633,0.556,1.312,0.57,1.728h-1.589V117.729z M630.608,122.511
			c0-0.756-0.216-2.375-1.99-2.375c-1.435,0-2.129,1.172-2.129,2.391c0,1.389,0.864,2.406,2.052,2.406
			C629.497,124.933,630.608,124.254,630.608,122.511z"/>
		<path fill="#005E7D" d="M638.477,117.636c0,1.913-1.126,2.793-2.529,2.793c-1.343,0-2.484-0.803-2.484-2.7
			c0-1.619,0.88-2.823,2.623-2.823C637.861,114.906,638.477,116.233,638.477,117.636z M637.258,117.699
			c0-0.756-0.185-1.867-1.28-1.867c-1.326,0-1.326,1.512-1.326,1.882c0,0.355,0,1.82,1.326,1.82
			C637.258,119.534,637.258,118.007,637.258,117.699z M635.515,126.476l6.804-11.879h1.018l-6.803,11.879H635.515z M644.926,121.278
			c0.277,0.308,0.632,0.802,0.632,1.959c0,1.682-0.817,2.823-2.483,2.823c-1.975,0-2.53-1.466-2.53-2.746
			c0-1.867,1.157-2.777,2.53-2.777C643.491,120.537,644.324,120.614,644.926,121.278z M644.386,123.267
			c0-0.478-0.093-1.866-1.296-1.866c-1.327,0-1.327,1.604-1.327,2.067c0,0.54,0.124,1.682,1.296,1.682
			C644.293,125.15,644.386,123.823,644.386,123.267z"/>
		<path fill="#005E7D" d="M648.553,114.274c0.833,2.052,1.836,4.597,1.836,6.85c0,1.219-0.277,2.422-0.632,3.594
			c-0.433,1.389-0.834,2.392-1.096,3.055h-1.019c0.247-0.771,0.587-1.82,0.91-3.286c0.324-1.403,0.433-2.375,0.433-3.332
			c0-2.175-0.54-3.949-1.435-6.88L648.553,114.274L648.553,114.274z"/>
	</g>
	<g>
		<path fill="#005E7D" d="M25.391,163.895h2.73l3.146,9.179l3.225-9.179h2.545v11.138h-1.512v-10.027l-3.656,10.027h-1.465
			l-3.518-9.966v9.966H25.39L25.391,163.895L25.391,163.895z"/>
		<path fill="#005E7D" d="M43.411,175.079l-1.109,2.885h-1.497l1.173-2.962l-3.225-7.713h1.635l2.422,6.109l2.469-6.109h1.574
			L43.411,175.079z"/>
		<path fill="#005E7D" d="M51.868,167.088c3.1,0,3.795,2.438,3.795,4.057c0,2.268-1.281,4.15-3.919,4.15
			c-2.562,0-3.811-1.774-3.811-4.042C47.933,169.34,48.829,167.088,51.868,167.088z M51.774,174.215
			c1.096,0,2.346-0.787,2.346-3.116c0-1.929-0.895-2.946-2.252-2.946c-0.926,0-2.423,0.586-2.423,3.008
			C49.445,172.75,50.123,174.215,51.774,174.215z"/>
		<path fill="#005E7D" d="M57.885,168.553c0-0.339-0.016-0.524-0.047-1.265h1.466l0.03,1.28c0.726-1.219,2.006-1.403,2.639-1.403
			c1.666,0,3.255,1.142,3.255,4.011c0,2.885-1.682,4.149-3.532,4.149c-1.127,0-1.959-0.479-2.376-1.157v3.842h-1.435
			C57.885,178.01,57.885,168.553,57.885,168.553z M61.449,174.261c0.37,0,1.142-0.077,1.636-0.756
			c0.555-0.756,0.632-1.866,0.632-2.422c0-1.389-0.417-2.839-2.129-2.839c-2.313,0-2.313,2.453-2.313,3.147
			C59.274,172.333,59.413,174.261,61.449,174.261z"/>
		<path fill="#005E7D" d="M72.079,175.033c-0.107-0.386-0.139-0.756-0.139-1.157c-0.693,1.28-1.743,1.404-2.391,1.404
			c-1.774,0-2.73-1.003-2.73-2.283c0-0.617,0.216-1.604,1.357-2.268c0.833-0.463,2.066-0.51,2.684-0.51
			c0.371,0,0.602,0.016,1.049,0.047c0-0.957,0-1.373-0.277-1.713c-0.293-0.386-0.926-0.509-1.342-0.509
			c-1.465,0-1.543,1.003-1.559,1.312h-1.449c0.046-0.401,0.092-0.941,0.539-1.466c0.587-0.647,1.682-0.833,2.5-0.833
			c1.126,0,2.329,0.354,2.746,1.142c0.246,0.463,0.262,0.833,0.262,1.188l-0.062,3.703c0,0.123,0.015,1.156,0.123,1.943H72.079z
			 M71.077,171.222c-0.586,0-2.793,0-2.793,1.573c0,0.494,0.309,1.343,1.605,1.343c0.74,0,1.295-0.293,1.65-0.833
			c0.324-0.524,0.339-0.957,0.369-2.036C71.647,171.238,71.431,171.222,71.077,171.222z"/>
		<path fill="#005E7D" d="M74.749,167.257h1.372v-1.619l1.436-0.463v2.082h1.728v1.064h-1.728v4.644c0,0.386,0,1.034,1.033,1.034
			c0.293,0,0.57-0.047,0.694-0.077v1.126c-0.263,0.046-0.679,0.093-1.203,0.093c-1.327,0-1.96-0.386-1.96-1.651v-5.168h-1.372
			C74.749,168.322,74.749,167.257,74.749,167.257z"/>
		<path fill="#005E7D" d="M81.075,163.91h1.466v4.521c0.478-0.817,1.435-1.28,2.515-1.28c0.817,0,1.99,0.293,2.438,1.234
			c0.154,0.308,0.262,0.679,0.262,1.805v4.844h-1.48v-4.582c0-0.694,0-2.19-1.666-2.19c-1.08,0-1.62,0.663-1.82,1.034
			c-0.247,0.432-0.247,1.156-0.247,1.635v4.104h-1.466V163.91H81.075z"/>
		<path fill="#005E7D" d="M93.71,175.079l-1.11,2.885h-1.496l1.172-2.962l-3.225-7.713h1.636l2.422,6.109l2.468-6.109h1.574
			L93.71,175.079z"/>
	</g>
	<g>
		<path fill="#005E7D" d="M433.96,166.039c-0.663,0.556-1.728,1.188-2.483,1.543v-1.543c1.002-0.524,1.989-1.172,2.592-1.681h1.372
			v10.675h-1.48v-8.994H433.96z"/>
		<path fill="#005E7D" d="M445.61,176.93c-0.833-2.052-1.836-4.612-1.836-6.865c0-1.219,0.278-2.422,0.633-3.594
			c0.432-1.389,0.833-2.376,1.095-3.039h1.019c-0.247,0.756-0.586,1.805-0.91,3.271c-0.324,1.419-0.432,2.375-0.432,3.332
			c0,2.19,0.54,3.965,1.435,6.896L445.61,176.93L445.61,176.93z"/>
		<path fill="#005E7D" d="M452.043,164.141c3.193,0,3.579,3.425,3.579,5.431c0,2.53-0.509,3.949-1.481,4.859
			c-0.756,0.71-1.65,0.817-2.129,0.817c-1.419,0-2.391-0.833-2.854-1.773c-0.354-0.71-0.694-1.744-0.694-3.656
			C448.464,168.23,448.65,164.141,452.043,164.141z M452.028,173.968c1.79,0,2.099-2.345,2.099-4.258
			c0-2.561-0.448-4.335-2.067-4.335c-1.867,0-2.113,2.453-2.113,4.366C449.946,172.117,450.408,173.968,452.028,173.968z"/>
		<path fill="#005E7D" d="M457.615,173.181h1.712v1.852h-1.712V173.181z"/>
		<path fill="#005E7D" d="M464.834,166.039c-0.663,0.556-1.728,1.188-2.483,1.543v-1.543c1.002-0.524,1.989-1.172,2.592-1.681h1.372
			v10.675h-1.48v-8.994H464.834z"/>
		<path fill="#005E7D" d="M475.048,166.794c0,1.913-1.126,2.793-2.529,2.793c-1.343,0-2.484-0.803-2.484-2.7
			c0-1.619,0.88-2.823,2.623-2.823C474.432,164.064,475.048,165.391,475.048,166.794z M473.829,166.857
			c0-0.756-0.185-1.867-1.28-1.867c-1.326,0-1.326,1.512-1.326,1.882c0,0.355,0,1.82,1.326,1.82
			C473.829,168.692,473.829,167.166,473.829,166.857z M472.086,175.634l6.804-11.879h1.018l-6.803,11.879H472.086z M481.497,170.436
			c0.277,0.308,0.632,0.802,0.632,1.959c0,1.682-0.817,2.823-2.483,2.823c-1.975,0-2.53-1.466-2.53-2.746
			c0-1.867,1.157-2.777,2.53-2.777C480.062,169.695,480.895,169.772,481.497,170.436z M480.957,172.425
			c0-0.478-0.093-1.866-1.296-1.866c-1.327,0-1.327,1.604-1.327,2.067c0,0.54,0.124,1.682,1.296,1.682
			C480.865,174.308,480.957,172.981,480.957,172.425z"/>
		<path fill="#005E7D" d="M485.124,163.432c0.833,2.052,1.836,4.597,1.836,6.85c0,1.219-0.277,2.422-0.632,3.594
			c-0.433,1.389-0.834,2.392-1.096,3.055h-1.019c0.247-0.771,0.587-1.82,0.91-3.286c0.324-1.403,0.433-2.375,0.433-3.332
			c0-2.175-0.54-3.949-1.435-6.88L485.124,163.432L485.124,163.432z"/>
	</g>
	<g>
		<path fill="#005E7D" d="M597.389,166.039c-0.663,0.556-1.728,1.188-2.483,1.543v-1.543c1.002-0.524,1.989-1.172,2.592-1.681h1.372
			v10.675h-1.48v-8.994H597.389z"/>
		<path fill="#005E7D" d="M609.039,176.93c-0.833-2.052-1.836-4.612-1.836-6.865c0-1.219,0.278-2.422,0.633-3.594
			c0.432-1.389,0.833-2.376,1.095-3.039h1.019c-0.247,0.756-0.586,1.805-0.91,3.271c-0.324,1.419-0.432,2.375-0.432,3.332
			c0,2.19,0.54,3.965,1.435,6.896L609.039,176.93L609.039,176.93z"/>
		<path fill="#005E7D" d="M615.472,164.141c3.193,0,3.579,3.425,3.579,5.431c0,2.53-0.509,3.949-1.481,4.859
			c-0.756,0.71-1.65,0.817-2.129,0.817c-1.419,0-2.391-0.833-2.854-1.773c-0.354-0.71-0.694-1.744-0.694-3.656
			C611.893,168.23,612.079,164.141,615.472,164.141z M615.456,173.968c1.79,0,2.099-2.345,2.099-4.258
			c0-2.561-0.448-4.335-2.067-4.335c-1.867,0-2.113,2.453-2.113,4.366C613.374,172.117,613.836,173.968,615.456,173.968z"/>
		<path fill="#005E7D" d="M621.043,173.181h1.712v1.852h-1.712V173.181z"/>
		<path fill="#005E7D" d="M628.263,166.039c-0.663,0.556-1.728,1.188-2.483,1.543v-1.543c1.002-0.524,1.989-1.172,2.592-1.681h1.372
			v10.675h-1.48v-8.994H628.263z"/>
		<path fill="#005E7D" d="M638.477,166.794c0,1.913-1.126,2.793-2.529,2.793c-1.343,0-2.484-0.803-2.484-2.7
			c0-1.619,0.88-2.823,2.623-2.823C637.861,164.064,638.477,165.391,638.477,166.794z M637.258,166.857
			c0-0.756-0.185-1.867-1.28-1.867c-1.326,0-1.326,1.512-1.326,1.882c0,0.355,0,1.82,1.326,1.82
			C637.258,168.692,637.258,167.166,637.258,166.857z M635.515,175.634l6.804-11.879h1.018l-6.803,11.879H635.515z M644.926,170.436
			c0.277,0.308,0.632,0.802,0.632,1.959c0,1.682-0.817,2.823-2.483,2.823c-1.975,0-2.53-1.466-2.53-2.746
			c0-1.867,1.157-2.777,2.53-2.777C643.491,169.695,644.324,169.772,644.926,170.436z M644.386,172.425
			c0-0.478-0.093-1.866-1.296-1.866c-1.327,0-1.327,1.604-1.327,2.067c0,0.54,0.124,1.682,1.296,1.682
			C644.293,174.308,644.386,172.981,644.386,172.425z"/>
		<path fill="#005E7D" d="M648.553,163.432c0.833,2.052,1.836,4.597,1.836,6.85c0,1.219-0.277,2.422-0.632,3.594
			c-0.433,1.389-0.834,2.392-1.096,3.055h-1.019c0.247-0.771,0.587-1.82,0.91-3.286c0.324-1.403,0.433-2.375,0.433-3.332
			c0-2.175-0.54-3.949-1.435-6.88L648.553,163.432L648.553,163.432z"/>
	</g>
	<g>
		<path fill="#005E7D" d="M25.391,200.926h2.73l3.146,9.179l3.225-9.179h2.545v11.138h-1.512v-10.027l-3.656,10.027h-1.465
			l-3.518-9.966v9.966H25.39L25.391,200.926L25.391,200.926z"/>
		<path fill="#005E7D" d="M43.411,212.11l-1.109,2.885h-1.497l1.173-2.962l-3.225-7.713h1.635l2.422,6.109l2.469-6.109h1.574
			L43.411,212.11z"/>
		<path fill="#005E7D" d="M53.225,212.064c-0.108-0.386-0.139-0.756-0.139-1.157c-0.695,1.28-1.744,1.404-2.392,1.404
			c-1.774,0-2.731-1.003-2.731-2.283c0-0.617,0.217-1.604,1.358-2.268c0.833-0.463,2.067-0.51,2.685-0.51
			c0.369,0,0.602,0.016,1.049,0.047c0-0.957,0-1.373-0.277-1.713c-0.294-0.386-0.926-0.509-1.343-0.509
			c-1.466,0-1.542,1.003-1.558,1.312h-1.451c0.047-0.401,0.094-0.941,0.541-1.466c0.586-0.647,1.682-0.833,2.498-0.833
			c1.127,0,2.33,0.354,2.746,1.142c0.247,0.463,0.263,0.833,0.263,1.188l-0.062,3.703c0,0.123,0.016,1.156,0.123,1.943H53.225z
			 M52.221,208.253c-0.586,0-2.791,0-2.791,1.573c0,0.494,0.309,1.343,1.604,1.343c0.74,0,1.296-0.293,1.65-0.833
			c0.324-0.524,0.34-0.957,0.371-2.036C52.792,208.269,52.577,208.253,52.221,208.253z"/>
		<path fill="#005E7D" d="M57.114,200.941h1.449v11.123h-1.449V200.941z"/>
		<path fill="#005E7D" d="M62.76,212.666c0.063,0.864,0.432,1.512,1.805,1.512c2.021,0,2.053-1.466,2.053-3.563
			c-0.617,1.28-2.083,1.312-2.546,1.312c-0.71,0-1.728-0.154-2.376-0.957c-0.663-0.786-0.879-1.82-0.879-2.854
			c0-2.622,1.543-3.903,3.439-3.903c1.559,0,2.129,0.771,2.438,1.173l0.016-1.064h1.404l-0.031,1.403l-0.016,4.845
			c0,1.866-0.061,2.622-0.369,3.208c-0.648,1.234-2.16,1.389-3.225,1.389c-3.102,0-3.193-1.45-3.256-2.499h1.543V212.666z
			 M66.139,210.074c0.309-0.401,0.524-0.817,0.524-2.222c0-0.972-0.216-1.526-0.602-1.928c-0.386-0.417-1.003-0.679-1.666-0.679
			c-1.836,0-2.083,1.851-2.083,2.838c0,1.188,0.355,2.762,2.129,2.762C65.29,210.845,65.784,210.537,66.139,210.074z"/>
		<path fill="#005E7D" d="M70.661,200.957h1.743v1.589h-1.743C70.661,202.546,70.661,200.957,70.661,200.957z M70.815,204.32h1.45
			v7.744h-1.45V204.32z"/>
		<path fill="#005E7D" d="M79.809,212.064c-0.107-0.386-0.139-0.756-0.139-1.157c-0.694,1.28-1.743,1.404-2.391,1.404
			c-1.775,0-2.731-1.003-2.731-2.283c0-0.617,0.216-1.604,1.358-2.268c0.832-0.463,2.066-0.51,2.684-0.51
			c0.37,0,0.602,0.016,1.049,0.047c0-0.957,0-1.373-0.277-1.713c-0.293-0.386-0.926-0.509-1.342-0.509
			c-1.466,0-1.543,1.003-1.559,1.312h-1.45c0.046-0.401,0.093-0.941,0.54-1.466c0.586-0.647,1.682-0.833,2.499-0.833
			c1.126,0,2.329,0.354,2.746,1.142c0.247,0.463,0.263,0.833,0.263,1.188l-0.063,3.703c0,0.123,0.016,1.156,0.123,1.943H79.809z
			 M78.806,208.253c-0.586,0-2.792,0-2.792,1.573c0,0.494,0.309,1.343,1.604,1.343c0.74,0,1.296-0.293,1.65-0.833
			c0.324-0.524,0.339-0.957,0.37-2.036C79.377,208.269,79.161,208.253,78.806,208.253z"/>
	</g>
	<g>
		<path fill="#005E7D" d="M431.769,203.918c-0.015-1.249-0.94-1.589-1.619-1.589c-1.543,0-2.222,1.327-2.36,4.165
			c0.339-0.493,0.926-1.357,2.483-1.357c1.743,0,3.225,1.157,3.225,3.425c0,2.483-1.774,3.733-3.61,3.733
			c-1.033,0-2.067-0.417-2.638-1.157c-0.787-1.049-0.972-2.576-0.972-3.934c0-2.329,0.57-6.032,3.949-6.032
			c1.403,0,2.19,0.617,2.561,1.019c0.54,0.633,0.556,1.312,0.57,1.728L431.769,203.918L431.769,203.918z M432.016,208.701
			c0-0.756-0.216-2.375-1.99-2.375c-1.435,0-2.129,1.172-2.129,2.391c0,1.389,0.864,2.406,2.052,2.406
			C430.906,211.123,432.016,210.444,432.016,208.701z"/>
		<path fill="#005E7D" d="M438.25,203.07c-0.663,0.556-1.728,1.188-2.483,1.543v-1.543c1.002-0.524,1.989-1.172,2.592-1.681h1.372
			v10.675h-1.48v-8.994H438.25z"/>
		<path fill="#005E7D" d="M449.9,213.961c-0.833-2.052-1.836-4.612-1.836-6.865c0-1.219,0.278-2.422,0.633-3.594
			c0.432-1.389,0.833-2.376,1.095-3.039h1.019c-0.247,0.756-0.586,1.805-0.91,3.271c-0.324,1.419-0.432,2.375-0.432,3.332
			c0,2.19,0.54,3.965,1.435,6.896L449.9,213.961L449.9,213.961z"/>
		<path fill="#005E7D" d="M457.321,209.75h-4.813v-1.835l4.628-6.665h1.666v7.251h1.559v1.249h-1.559v2.314h-1.48L457.321,209.75
			L457.321,209.75z M457.367,208.5v-5.631l-3.687,5.631H457.367z"/>
		<path fill="#005E7D" d="M461.904,210.212h1.712v1.852h-1.712V210.212z"/>
		<path fill="#005E7D" d="M467.165,209.318c-0.016,1.019,0.647,1.743,1.959,1.743c1.496,0,2.129-0.956,2.129-1.897
			c0-1.126-0.756-1.712-1.543-1.882c-0.555-0.108-0.94-0.093-1.48-0.077v-1.25c1.064,0.093,2.854-0.123,2.854-1.851
			c0-1.203-0.817-1.682-1.882-1.682c-0.803,0-1.805,0.354-1.943,1.682H465.7c0.093-2.653,2.592-2.916,3.456-2.916
			c2.329,0,3.486,1.404,3.486,2.885c0,0.88-0.479,2.145-2.129,2.515c2.283,0.324,2.283,2.376,2.283,2.592
			c0,1.496-1.219,3.147-3.703,3.147c-1.126,0-2.252-0.324-2.931-1.111c-0.602-0.679-0.617-1.45-0.633-1.897L467.165,209.318
			L467.165,209.318z"/>
		<path fill="#005E7D" d="M479.337,203.826c0,1.913-1.126,2.793-2.529,2.793c-1.343,0-2.484-0.803-2.484-2.7
			c0-1.619,0.88-2.823,2.623-2.823C478.721,201.095,479.337,202.422,479.337,203.826z M478.119,203.888
			c0-0.756-0.185-1.867-1.28-1.867c-1.326,0-1.326,1.512-1.326,1.882c0,0.355,0,1.82,1.326,1.82
			C478.119,205.723,478.119,204.197,478.119,203.888z M476.375,212.666l6.804-11.879h1.018l-6.803,11.879H476.375z M485.787,207.467
			c0.277,0.308,0.632,0.802,0.632,1.959c0,1.682-0.817,2.823-2.483,2.823c-1.975,0-2.53-1.466-2.53-2.746
			c0-1.867,1.157-2.777,2.53-2.777C484.351,206.726,485.184,206.803,485.787,207.467z M485.246,209.457
			c0-0.478-0.093-1.866-1.296-1.866c-1.327,0-1.327,1.604-1.327,2.067c0,0.54,0.124,1.682,1.296,1.682
			C485.154,211.339,485.246,210.012,485.246,209.457z"/>
		<path fill="#005E7D" d="M489.413,200.463c0.833,2.052,1.836,4.597,1.836,6.85c0,1.219-0.277,2.422-0.632,3.594
			c-0.433,1.389-0.834,2.392-1.096,3.055h-1.019c0.247-0.771,0.587-1.82,0.91-3.286c0.324-1.403,0.433-2.375,0.433-3.332
			c0-2.175-0.54-3.949-1.435-6.88L489.413,200.463L489.413,200.463z"/>
	</g>
	<g>
		<path fill="#005E7D" d="M589.459,201.389h7.05v1.295l-3.918,9.38h-1.743l4.104-9.395h-5.492L589.459,201.389L589.459,201.389z"/>
		<path fill="#005E7D" d="M598.316,210.66l2.792-2.745c0.587-0.571,1.173-1.188,1.651-1.836c0.617-0.849,0.786-1.327,0.786-1.897
			c0-0.524-0.185-1.743-1.712-1.743c-1.713,0-1.743,1.465-1.743,1.866h-1.62c0.016-0.524,0.062-1.543,0.987-2.345
			c0.74-0.633,1.636-0.771,2.314-0.771c1.635,0,3.301,0.833,3.301,3.116c0,0.679-0.046,1.203-1.203,2.669
			c-0.309,0.386-1.666,1.789-1.975,2.098l-1.866,1.774h5.075v1.219h-6.788L598.316,210.66L598.316,210.66z"/>
		<path fill="#005E7D" d="M613.329,213.961c-0.833-2.052-1.836-4.612-1.836-6.865c0-1.219,0.278-2.422,0.633-3.594
			c0.432-1.389,0.833-2.376,1.095-3.039h1.019c-0.247,0.756-0.586,1.805-0.91,3.271c-0.324,1.419-0.432,2.375-0.432,3.332
			c0,2.19,0.54,3.965,1.435,6.896L613.329,213.961L613.329,213.961z"/>
		<path fill="#005E7D" d="M617.973,209.534c0.03,1.08,0.972,1.512,1.773,1.512c1.867,0,2.113-1.758,2.113-2.452
			c0-1.45-0.786-2.299-2.021-2.299c-0.617,0-1.11,0.231-1.435,0.556c-0.324,0.323-0.417,0.647-0.494,0.895h-1.403l0.277-6.355h6.001
			v1.249h-4.674l-0.201,3.456c0.324-0.324,1.003-0.987,2.253-0.987c2.144,0,3.193,1.681,3.193,3.517
			c0,2.099-1.481,3.688-3.811,3.688c-1.728,0-3.101-0.957-3.178-2.777h1.607V209.534z"/>
		<path fill="#005E7D" d="M625.332,210.212h1.712v1.852h-1.712V210.212z"/>
		<path fill="#005E7D" d="M632.553,203.07c-0.663,0.556-1.728,1.188-2.483,1.543v-1.543c1.002-0.524,1.989-1.172,2.592-1.681h1.372
			v10.675h-1.48v-8.994H632.553z"/>
		<path fill="#005E7D" d="M642.766,203.826c0,1.913-1.126,2.793-2.529,2.793c-1.343,0-2.484-0.803-2.484-2.7
			c0-1.619,0.88-2.823,2.623-2.823C642.15,201.095,642.766,202.422,642.766,203.826z M641.547,203.888
			c0-0.756-0.185-1.867-1.28-1.867c-1.326,0-1.326,1.512-1.326,1.882c0,0.355,0,1.82,1.326,1.82
			C641.547,205.723,641.547,204.197,641.547,203.888z M639.804,212.666l6.804-11.879h1.018l-6.803,11.879H639.804z M649.215,207.467
			c0.277,0.308,0.632,0.802,0.632,1.959c0,1.682-0.817,2.823-2.483,2.823c-1.975,0-2.53-1.466-2.53-2.746
			c0-1.867,1.157-2.777,2.53-2.777C647.78,206.726,648.613,206.803,649.215,207.467z M648.675,209.457
			c0-0.478-0.093-1.866-1.296-1.866c-1.327,0-1.327,1.604-1.327,2.067c0,0.54,0.124,1.682,1.296,1.682
			C648.582,211.339,648.675,210.012,648.675,209.457z"/>
		<path fill="#005E7D" d="M652.842,200.463c0.833,2.052,1.836,4.597,1.836,6.85c0,1.219-0.277,2.422-0.632,3.594
			c-0.433,1.389-0.834,2.392-1.096,3.055h-1.019c0.247-0.771,0.587-1.82,0.91-3.286c0.324-1.403,0.433-2.375,0.433-3.332
			c0-2.175-0.54-3.949-1.435-6.88L652.842,200.463L652.842,200.463z"/>
	</g>
	<g>
		<path fill="#005E7D" d="M25.36,243.511h3.733c1.357,0,2.283,0.077,3.039,0.895c0.556,0.57,0.817,1.326,0.817,2.159
			c0,0.849-0.277,1.574-0.879,2.176c-0.586,0.586-1.357,0.956-3.363,0.956h-1.805v4.952H25.36V243.511z M26.903,248.401h1.836
			c1.018,0,2.576-0.077,2.576-1.897c0-1.743-1.45-1.743-2.252-1.743h-2.16V248.401z"/>
		<path fill="#005E7D" d="M35.235,251.04c-0.031,1.604,0.632,2.792,2.221,2.792c0.941,0,1.697-0.494,1.82-1.604h1.45
			c-0.046,0.386-0.108,1.018-0.663,1.62c-0.34,0.385-1.111,1.033-2.669,1.033c-2.438,0-3.595-1.512-3.595-3.965
			c0-1.527,0.309-2.792,1.527-3.641c0.74-0.524,1.666-0.57,2.113-0.57c3.472,0,3.395,3.069,3.363,4.335H35.235z M39.323,250.021
			c0.016-0.74-0.123-2.283-1.913-2.283c-0.94,0-2.083,0.57-2.114,2.283H39.323z"/>
		<path fill="#005E7D" d="M43.01,248.478c0-0.524-0.03-1.064-0.076-1.573h1.465l0.031,1.496c0.277-1.08,1.203-1.435,1.852-1.527
			c0.432-0.062,0.756-0.046,1.002-0.03v1.419c-0.076-0.031-0.17-0.046-0.277-0.062s-0.247-0.016-0.416-0.016
			c-1.713,0-2.113,1.019-2.113,2.345v4.119H43.01V248.478z"/>
		<path fill="#005E7D" d="M50.077,252.35c-0.015,0.587,0.294,1.404,1.697,1.404c0.602,0,1.049-0.108,1.357-0.494
			c0.154-0.2,0.247-0.463,0.247-0.725c0-0.756-0.54-0.895-1.696-1.157c-1.62-0.37-2.979-0.694-2.979-2.313
			c0-1.42,1.234-2.346,3.024-2.346c0.972,0,2.329,0.278,2.792,1.204c0.201,0.432,0.201,0.802,0.201,1.126h-1.48
			c0.046-1.173-0.972-1.266-1.497-1.266c-0.215,0-1.572,0-1.572,1.111c0,0.709,0.693,0.879,1.095,0.987
			c2.145,0.509,2.606,0.632,3.069,1.064c0.433,0.4,0.587,0.94,0.587,1.435c0,0.863-0.479,1.604-1.05,1.959
			c-0.678,0.417-1.496,0.524-2.298,0.524c-1.573,0-3.039-0.647-3.023-2.515h1.526V252.35z"/>
		<path fill="#005E7D" d="M56.821,243.542h1.742v1.589h-1.742V243.542z M56.975,246.905h1.449v7.744h-1.449V246.905z"/>
		<path fill="#005E7D" d="M62.081,252.35c-0.015,0.587,0.294,1.404,1.697,1.404c0.602,0,1.049-0.108,1.357-0.494
			c0.154-0.2,0.247-0.463,0.247-0.725c0-0.756-0.54-0.895-1.697-1.157c-1.619-0.37-2.978-0.694-2.978-2.313
			c0-1.42,1.234-2.346,3.024-2.346c0.971,0,2.329,0.278,2.791,1.204c0.201,0.432,0.201,0.802,0.201,1.126h-1.48
			c0.046-1.173-0.973-1.266-1.497-1.266c-0.216,0-1.573,0-1.573,1.111c0,0.709,0.694,0.879,1.096,0.987
			c2.145,0.509,2.606,0.632,3.069,1.064c0.433,0.4,0.587,0.94,0.587,1.435c0,0.863-0.479,1.604-1.05,1.959
			c-0.679,0.417-1.496,0.524-2.298,0.524c-1.574,0-3.039-0.647-3.023-2.515h1.527V252.35z"/>
		<path fill="#005E7D" d="M67.776,246.874h1.372v-1.619l1.435-0.463v2.082h1.729v1.064h-1.729v4.644c0,0.386,0,1.034,1.033,1.034
			c0.294,0,0.571-0.047,0.695-0.077v1.126c-0.263,0.046-0.68,0.093-1.203,0.093c-1.327,0-1.96-0.386-1.96-1.651v-5.168h-1.372
			C67.776,247.939,67.776,246.874,67.776,246.874z"/>
		<path fill="#005E7D" d="M74.981,251.04c-0.031,1.604,0.632,2.792,2.221,2.792c0.941,0,1.697-0.494,1.82-1.604h1.45
			c-0.046,0.386-0.108,1.018-0.663,1.62c-0.34,0.385-1.111,1.033-2.669,1.033c-2.438,0-3.595-1.512-3.595-3.965
			c0-1.527,0.309-2.792,1.527-3.641c0.74-0.524,1.666-0.57,2.113-0.57c3.472,0,3.395,3.069,3.363,4.335H74.981z M79.069,250.021
			c0.016-0.74-0.123-2.283-1.913-2.283c-0.94,0-2.083,0.57-2.114,2.283H79.069z"/>
		<path fill="#005E7D" d="M82.726,247.799l-0.016-0.895h1.45l0.016,1.25c0.17-0.324,0.725-1.404,2.483-1.404
			c0.694,0,2.808,0.263,2.808,2.638v5.261h-1.48v-4.921c0-0.509-0.063-0.972-0.417-1.327c-0.37-0.354-0.879-0.524-1.372-0.524
			c-1.05,0-2.021,0.756-2.021,2.314v4.458h-1.45L82.726,247.799L82.726,247.799z"/>
		<path fill="#005E7D" d="M90.919,246.874h1.372v-1.619l1.436-0.463v2.082h1.728v1.064h-1.728v4.644c0,0.386,0,1.034,1.033,1.034
			c0.293,0,0.57-0.047,0.694-0.077v1.126c-0.263,0.046-0.679,0.093-1.203,0.093c-1.327,0-1.96-0.386-1.96-1.651v-5.168h-1.372
			C90.919,247.939,90.919,246.874,90.919,246.874z"/>
		<path fill="#005E7D" d="M101.565,243.526h1.45v11.123h-1.45V243.526z"/>
		<path fill="#005E7D" d="M105.685,243.542h1.743v1.589h-1.743V243.542z M105.839,246.905h1.45v7.744h-1.45V246.905z"/>
		<path fill="#005E7D" d="M109.234,246.905h1.62l2.468,6.14l2.407-6.14h1.604l-3.394,7.744h-1.466L109.234,246.905z"/>
		<path fill="#005E7D" d="M119.864,251.04c-0.03,1.604,0.633,2.792,2.223,2.792c0.94,0,1.696-0.494,1.82-1.604h1.449
			c-0.046,0.386-0.107,1.018-0.663,1.62c-0.339,0.385-1.11,1.033-2.669,1.033c-2.438,0-3.594-1.512-3.594-3.965
			c0-1.527,0.309-2.792,1.527-3.641c0.74-0.524,1.666-0.57,2.113-0.57c3.471,0,3.394,3.069,3.362,4.335H119.864z M123.952,250.021
			c0.016-0.74-0.123-2.283-1.912-2.283c-0.941,0-2.082,0.57-2.113,2.283H123.952z"/>
		<path fill="#005E7D" d="M127.641,248.478c0-0.524-0.031-1.064-0.078-1.573h1.467l0.03,1.496c0.278-1.08,1.203-1.435,1.851-1.527
			c0.433-0.062,0.756-0.046,1.004-0.03v1.419c-0.078-0.031-0.17-0.046-0.278-0.062s-0.247-0.016-0.417-0.016
			c-1.712,0-2.113,1.019-2.113,2.345v4.119h-1.465L127.641,248.478L127.641,248.478z"/>
		<path fill="#005E7D" d="M138.735,251.04c-0.031,1.604,0.632,2.792,2.221,2.792c0.941,0,1.697-0.494,1.82-1.604h1.45
			c-0.046,0.386-0.108,1.018-0.663,1.62c-0.34,0.385-1.111,1.033-2.669,1.033c-2.438,0-3.595-1.512-3.595-3.965
			c0-1.527,0.309-2.792,1.527-3.641c0.74-0.524,1.666-0.57,2.113-0.57c3.472,0,3.395,3.069,3.363,4.335H138.735z M142.823,250.021
			c0.016-0.74-0.123-2.283-1.913-2.283c-0.94,0-2.083,0.57-2.114,2.283H142.823z"/>
		<path fill="#005E7D" d="M146.48,247.799l-0.016-0.895h1.45l0.016,1.25c0.17-0.324,0.725-1.404,2.483-1.404
			c0.694,0,2.808,0.263,2.808,2.638v5.261h-1.48v-4.921c0-0.509-0.063-0.972-0.417-1.327c-0.37-0.354-0.879-0.524-1.372-0.524
			c-1.05,0-2.021,0.756-2.021,2.314v4.458h-1.45v-6.85H146.48z"/>
		<path fill="#005E7D" d="M154.966,253.153L159.1,248h-3.918v-1.096h5.568v1.234l-4.272,5.384h4.272v1.126h-5.784V253.153z"/>
		<path fill="#005E7D" d="M166.198,254.695l-1.11,2.885h-1.497l1.173-2.962l-3.224-7.713h1.635l2.422,6.109l2.469-6.109h1.573
			L166.198,254.695z"/>
		<path fill="#005E7D" d="M171.275,247.938l-0.031-1.033h1.466v1.126c0.74-1.219,1.789-1.326,2.453-1.326
			c1.712,0,2.252,0.879,2.529,1.45c0.263-0.433,0.895-1.45,2.607-1.45c1.111,0,2.838,0.463,2.838,2.745v5.199h-1.465v-4.968
			c0-0.679-0.123-0.972-0.262-1.172c-0.248-0.354-0.741-0.679-1.481-0.679c-0.94,0-1.45,0.54-1.651,0.817
			c-0.339,0.479-0.339,1.327-0.339,1.666v4.335h-1.466v-5.122c0-0.956-0.555-1.696-1.697-1.696c-0.986,0-1.526,0.617-1.696,0.849
			c-0.323,0.447-0.339,1.079-0.339,1.573v4.396h-1.466L171.275,247.938L171.275,247.938z"/>
		<path fill="#005E7D" d="M186.735,251.04c-0.031,1.604,0.632,2.792,2.221,2.792c0.941,0,1.697-0.494,1.82-1.604h1.45
			c-0.046,0.386-0.108,1.018-0.663,1.62c-0.34,0.385-1.111,1.033-2.669,1.033c-2.438,0-3.595-1.512-3.595-3.965
			c0-1.527,0.309-2.792,1.527-3.641c0.74-0.524,1.666-0.57,2.113-0.57c3.472,0,3.395,3.069,3.363,4.335H186.735z M190.823,250.021
			c0.016-0.74-0.123-2.283-1.913-2.283c-0.94,0-2.083,0.57-2.114,2.283H190.823z"/>
		<path fill="#005E7D" d="M199.602,251.04c-0.03,1.604,0.633,2.792,2.223,2.792c0.94,0,1.696-0.494,1.82-1.604h1.449
			c-0.046,0.386-0.107,1.018-0.663,1.62c-0.339,0.385-1.11,1.033-2.669,1.033c-2.438,0-3.594-1.512-3.594-3.965
			c0-1.527,0.309-2.792,1.527-3.641c0.74-0.524,1.666-0.57,2.113-0.57c3.471,0,3.394,3.069,3.362,4.335H199.602z M203.69,250.021
			c0.016-0.74-0.123-2.283-1.912-2.283c-0.941,0-2.082,0.57-2.113,2.283H203.69z"/>
		<path fill="#005E7D" d="M207.332,243.526h1.451v11.123h-1.451V243.526z"/>
		<path fill="#005E7D" d="M212.471,251.04c-0.031,1.604,0.632,2.792,2.221,2.792c0.941,0,1.697-0.494,1.82-1.604h1.45
			c-0.046,0.386-0.108,1.018-0.663,1.62c-0.34,0.385-1.111,1.033-2.669,1.033c-2.438,0-3.595-1.512-3.595-3.965
			c0-1.527,0.309-2.792,1.527-3.641c0.74-0.524,1.666-0.57,2.113-0.57c3.472,0,3.395,3.069,3.363,4.335H212.471z M216.559,250.021
			c0.016-0.74-0.123-2.283-1.913-2.283c-0.94,0-2.083,0.57-2.114,2.283H216.559z"/>
		<path fill="#005E7D" d="M218.997,246.905h1.62l2.468,6.14l2.407-6.14h1.604l-3.394,7.744h-1.466L218.997,246.905z"/>
		<path fill="#005E7D" d="M233.469,254.649c-0.107-0.386-0.139-0.756-0.139-1.157c-0.693,1.28-1.743,1.404-2.391,1.404
			c-1.774,0-2.73-1.003-2.73-2.283c0-0.617,0.216-1.604,1.357-2.268c0.833-0.463,2.066-0.51,2.684-0.51
			c0.371,0,0.602,0.016,1.049,0.047c0-0.957,0-1.373-0.277-1.713c-0.293-0.386-0.926-0.509-1.342-0.509
			c-1.465,0-1.543,1.003-1.559,1.312h-1.449c0.046-0.401,0.092-0.941,0.539-1.466c0.587-0.647,1.682-0.833,2.5-0.833
			c1.126,0,2.329,0.354,2.746,1.142c0.246,0.463,0.262,0.833,0.262,1.188l-0.062,3.703c0,0.123,0.015,1.156,0.123,1.943H233.469z
			 M232.467,250.838c-0.586,0-2.793,0-2.793,1.573c0,0.494,0.309,1.343,1.605,1.343c0.74,0,1.295-0.293,1.65-0.833
			c0.324-0.524,0.339-0.957,0.369-2.036C233.038,250.854,232.822,250.838,232.467,250.838z"/>
		<path fill="#005E7D" d="M236.14,246.874h1.372v-1.619l1.436-0.463v2.082h1.728v1.064h-1.728v4.644c0,0.386,0,1.034,1.033,1.034
			c0.293,0,0.57-0.047,0.694-0.077v1.126c-0.263,0.046-0.679,0.093-1.203,0.093c-1.327,0-1.96-0.386-1.96-1.651v-5.168h-1.372
			V246.874z"/>
		<path fill="#005E7D" d="M242.327,243.542h1.743v1.589h-1.743V243.542z M242.481,246.905h1.45v7.744h-1.45V246.905z"/>
		<path fill="#005E7D" d="M250.118,246.705c3.102,0,3.795,2.438,3.795,4.057c0,2.268-1.28,4.15-3.918,4.15
			c-2.561,0-3.811-1.774-3.811-4.042C246.184,248.957,247.079,246.705,250.118,246.705z M250.026,253.832
			c1.095,0,2.344-0.787,2.344-3.116c0-1.929-0.895-2.946-2.252-2.946c-0.926,0-2.422,0.586-2.422,3.008
			C247.696,252.366,248.375,253.832,250.026,253.832z"/>
		<path fill="#005E7D" d="M256.229,247.799l-0.016-0.895h1.449l0.016,1.25c0.17-0.324,0.726-1.404,2.484-1.404
			c0.693,0,2.808,0.263,2.808,2.638v5.261h-1.481v-4.921c0-0.509-0.062-0.972-0.416-1.327c-0.371-0.354-0.879-0.524-1.373-0.524
			c-1.049,0-2.021,0.756-2.021,2.314v4.458h-1.449v-6.85H256.229z"/>
		<path fill="#005E7D" d="M266.442,252.35c-0.015,0.587,0.294,1.404,1.697,1.404c0.602,0,1.049-0.108,1.357-0.494
			c0.154-0.2,0.247-0.463,0.247-0.725c0-0.756-0.54-0.895-1.696-1.157c-1.62-0.37-2.979-0.694-2.979-2.313
			c0-1.42,1.234-2.346,3.024-2.346c0.972,0,2.329,0.278,2.792,1.204c0.201,0.432,0.201,0.802,0.201,1.126h-1.481
			c0.046-1.173-0.972-1.266-1.497-1.266c-0.215,0-1.572,0-1.572,1.111c0,0.709,0.693,0.879,1.095,0.987
			c2.145,0.509,2.606,0.632,3.069,1.064c0.433,0.4,0.587,0.94,0.587,1.435c0,0.863-0.479,1.604-1.05,1.959
			c-0.678,0.417-1.496,0.524-2.298,0.524c-1.573,0-3.039-0.647-3.023-2.515h1.527V252.35z"/>
	</g>
	<g>
		<path fill="#005E7D" d="M28.83,262.026h1.65l4.506,11.138h-1.682l-1.203-2.9h-5.168l-1.204,2.9H24.14L28.83,262.026z
			 M27.427,269.014h4.212l-2.053-5.461L27.427,269.014z"/>
		<path fill="#005E7D" d="M36.577,262.026h1.527v9.765h5.184v1.373h-6.711C36.577,273.164,36.577,262.026,36.577,262.026z"/>
		<path fill="#005E7D" d="M46.313,273.164v-9.827h-3.734v-1.311h8.994v1.311H47.84v9.827H46.313z"/>
		<path fill="#005E7D" d="M60.832,273.009v-1.342l6.263-2.376l-6.263-2.392v-1.326l7.867,3.085v1.266L60.832,273.009z"/>
		<path fill="#005E7D" d="M71.494,270.417c-0.016,1.019,0.647,1.743,1.959,1.743c1.496,0,2.129-0.956,2.129-1.897
			c0-1.126-0.756-1.712-1.543-1.882c-0.556-0.108-0.94-0.093-1.481-0.077v-1.25c1.064,0.093,2.854-0.123,2.854-1.851
			c0-1.203-0.817-1.682-1.882-1.682c-0.803,0-1.805,0.354-1.943,1.682h-1.559c0.093-2.653,2.592-2.916,3.455-2.916
			c2.33,0,3.486,1.404,3.486,2.885c0,0.88-0.478,2.145-2.129,2.515c2.283,0.324,2.283,2.376,2.283,2.592
			c0,1.496-1.219,3.147-3.701,3.147c-1.127,0-2.253-0.324-2.932-1.111c-0.602-0.679-0.617-1.45-0.633-1.897h1.637V270.417z"/>
		<path fill="#005E7D" d="M86.041,273.164h-1.912l-2.206-3.101l-2.19,3.101h-1.697l3.07-4.058l-2.9-3.687h1.897l2.067,2.916
			l2.159-2.916h1.712l-3.023,3.779L86.041,273.164z"/>
		<path fill="#005E7D" d="M89.407,262.026v6.896c0,1.188,0.262,1.682,0.494,2.005c0.693,0.926,1.773,1.096,2.545,1.096
			c3.008,0,3.008-2.36,3.008-3.162v-6.834h1.496v6.864c0,0.602-0.016,1.852-0.91,2.962c-1.095,1.373-2.792,1.543-3.594,1.543
			c-1.049,0-2.9-0.293-3.934-1.774c-0.34-0.493-0.648-1.142-0.648-2.808v-6.787h1.543V262.026z"/>
		<path fill="#005E7D" d="M99.868,262.026h1.527v9.765h5.184v1.373h-6.711V262.026z"/>
		<path fill="#005E7D" d="M108.477,262.026h2.145l5.477,9.209v-9.209h1.42v11.138h-1.975l-5.662-9.456v9.456h-1.404L108.477,262.026
			L108.477,262.026z"/>
		<path fill="#005E7D" d="M126.42,265.635l-2.652-0.293l1.572,2.129l-1.002,0.617l-1.033-2.438l-1.111,2.406l-1.049-0.57
			l1.635-2.145l-2.561,0.216v-1.126l2.607,0.34l-1.574-2.16l1.019-0.556l1.034,2.392l1.064-2.407l1.033,0.571l-1.62,2.16
			l2.638-0.294V265.635z"/>
	</g>
	<g>
		<path fill="#005E7D" d="M28.83,280.542h1.65l4.506,11.138h-1.682l-1.203-2.9h-5.168l-1.204,2.9H24.14L28.83,280.542z
			 M27.427,287.53h4.212l-2.053-5.461L27.427,287.53z"/>
		<path fill="#005E7D" d="M37.332,288.424c0.031,0.771,0.124,2.206,2.685,2.206c2.313,0,2.607-1.435,2.607-1.99
			c0-1.25-1.003-1.496-2.562-1.882c-1.696-0.417-2.452-0.602-3.023-0.987c-0.91-0.617-1.156-1.45-1.156-2.19
			c0-2.268,2.145-3.256,4.242-3.256c0.74,0,2.236,0.124,3.131,1.096c0.617,0.679,0.648,1.435,0.68,1.897H42.33
			c-0.076-1.389-1.249-1.697-2.344-1.697c-1.543,0-2.469,0.694-2.469,1.806c0,0.987,0.648,1.326,2.006,1.65
			c2.652,0.679,2.946,0.74,3.594,1.172c1.033,0.68,1.111,1.759,1.111,2.222c0,1.975-1.543,3.472-4.396,3.472
			c-0.849,0-2.576-0.14-3.456-1.266c-0.632-0.817-0.647-1.712-0.647-2.252L37.332,288.424L37.332,288.424z"/>
		<path fill="#005E7D" d="M48.935,291.679v-9.827h-3.733v-1.311h8.994v1.311h-3.733v9.827H48.935z"/>
		<path fill="#005E7D" d="M59.165,291.525v-1.342l6.263-2.376l-6.263-2.392v-1.326l7.868,3.085v1.266L59.165,291.525z"/>
		<path fill="#005E7D" d="M69.827,288.933c-0.016,1.019,0.648,1.743,1.959,1.743c1.497,0,2.129-0.956,2.129-1.897
			c0-1.126-0.756-1.712-1.543-1.882c-0.555-0.108-0.94-0.093-1.48-0.077v-1.25c1.064,0.093,2.854-0.123,2.854-1.851
			c0-1.203-0.816-1.682-1.881-1.682c-0.803,0-1.806,0.354-1.944,1.682h-1.558c0.092-2.653,2.592-2.916,3.455-2.916
			c2.33,0,3.486,1.404,3.486,2.885c0,0.88-0.479,2.145-2.129,2.515c2.283,0.324,2.283,2.376,2.283,2.592
			c0,1.496-1.219,3.147-3.702,3.147c-1.126,0-2.253-0.324-2.931-1.111c-0.602-0.679-0.617-1.45-0.633-1.897h1.635V288.933z"/>
		<path fill="#005E7D" d="M84.375,291.679h-1.912l-2.207-3.101l-2.19,3.101H76.37l3.069-4.058l-2.899-3.687h1.896l2.067,2.916
			l2.159-2.916h1.713l-3.023,3.779L84.375,291.679z"/>
		<path fill="#005E7D" d="M87.741,280.542v6.896c0,1.188,0.262,1.682,0.493,2.005c0.694,0.926,1.774,1.096,2.546,1.096
			c3.008,0,3.008-2.36,3.008-3.162v-6.834h1.496v6.864c0,0.602-0.016,1.852-0.91,2.962c-1.096,1.373-2.793,1.543-3.594,1.543
			c-1.05,0-2.9-0.293-3.935-1.774c-0.339-0.493-0.647-1.142-0.647-2.808v-6.787h1.543V280.542z"/>
		<path fill="#005E7D" d="M98.202,280.542h1.527v9.765h5.184v1.373h-6.711V280.542z"/>
		<path fill="#005E7D" d="M106.811,280.542h2.145l5.477,9.209v-9.209h1.419v11.138h-1.975l-5.661-9.456v9.456h-1.404
			L106.811,280.542L106.811,280.542z"/>
		<path fill="#005E7D" d="M124.754,284.151l-2.653-0.293l1.573,2.129l-1.002,0.617l-1.034-2.438l-1.11,2.406l-1.049-0.57
			l1.635-2.145l-2.561,0.216v-1.126l2.607,0.34l-1.574-2.16l1.018-0.556l1.034,2.392l1.064-2.407l1.034,0.571l-1.621,2.16
			l2.639-0.294V284.151z"/>
	</g>
	<g>
		<path fill="#005E7D" d="M430.567,264.169c-0.663,0.556-1.728,1.188-2.483,1.543v-1.543c1.002-0.524,1.989-1.172,2.592-1.681h1.372
			v10.675h-1.48v-8.994H430.567z"/>
		<path fill="#005E7D" d="M435.304,262.489h7.05v1.295l-3.918,9.38h-1.743l4.104-9.395h-5.492L435.304,262.489L435.304,262.489z"/>
		<path fill="#005E7D" d="M450.594,275.061c-0.833-2.052-1.836-4.612-1.836-6.865c0-1.219,0.278-2.422,0.633-3.594
			c0.432-1.389,0.833-2.376,1.095-3.039h1.019c-0.247,0.756-0.586,1.805-0.91,3.271c-0.324,1.419-0.432,2.375-0.432,3.332
			c0,2.19,0.54,3.965,1.435,6.896L450.594,275.061L450.594,275.061z"/>
		<path fill="#005E7D" d="M456.951,264.169c-0.663,0.556-1.728,1.188-2.483,1.543v-1.543c1.002-0.524,1.989-1.172,2.592-1.681h1.372
			v10.675h-1.48v-8.994H456.951z"/>
		<path fill="#005E7D" d="M461.087,271.312h1.712v1.852h-1.712V271.312z"/>
		<path fill="#005E7D" d="M464.944,271.759l2.792-2.745c0.587-0.571,1.173-1.188,1.651-1.836c0.617-0.849,0.786-1.327,0.786-1.897
			c0-0.524-0.185-1.743-1.712-1.743c-1.713,0-1.743,1.465-1.743,1.866h-1.62c0.016-0.524,0.062-1.543,0.987-2.345
			c0.74-0.633,1.636-0.771,2.314-0.771c1.635,0,3.301,0.833,3.301,3.116c0,0.679-0.046,1.203-1.203,2.669
			c-0.309,0.386-1.666,1.789-1.975,2.098l-1.866,1.774h5.075v1.219h-6.788v-1.405H464.944z"/>
		<path fill="#005E7D" d="M478.521,264.925c0,1.913-1.126,2.793-2.529,2.793c-1.343,0-2.484-0.803-2.484-2.7
			c0-1.619,0.88-2.823,2.623-2.823C477.905,262.195,478.521,263.522,478.521,264.925z M477.302,264.988
			c0-0.756-0.185-1.867-1.28-1.867c-1.326,0-1.326,1.512-1.326,1.882c0,0.355,0,1.82,1.326,1.82
			C477.302,266.823,477.302,265.296,477.302,264.988z M475.559,273.765l6.804-11.879h1.018l-6.803,11.879H475.559z M484.97,268.567
			c0.277,0.308,0.632,0.802,0.632,1.959c0,1.682-0.817,2.823-2.483,2.823c-1.975,0-2.53-1.466-2.53-2.746
			c0-1.867,1.157-2.777,2.53-2.777C483.535,267.826,484.368,267.903,484.97,268.567z M484.43,270.556
			c0-0.478-0.093-1.866-1.296-1.866c-1.327,0-1.327,1.604-1.327,2.067c0,0.54,0.124,1.682,1.296,1.682
			C484.337,272.439,484.43,271.112,484.43,270.556z"/>
		<path fill="#005E7D" d="M488.596,261.563c0.833,2.052,1.836,4.597,1.836,6.85c0,1.219-0.277,2.422-0.632,3.594
			c-0.433,1.389-0.834,2.392-1.096,3.055h-1.019c0.247-0.771,0.587-1.82,0.91-3.286c0.324-1.403,0.433-2.375,0.433-3.332
			c0-2.175-0.54-3.949-1.435-6.88L488.596,261.563L488.596,261.563z"/>
	</g>
	<g>
		<path fill="#005E7D" d="M436.074,283.534c-0.015-1.249-0.94-1.589-1.619-1.589c-1.543,0-2.222,1.327-2.36,4.165
			c0.339-0.493,0.926-1.357,2.483-1.357c1.743,0,3.225,1.157,3.225,3.425c0,2.483-1.774,3.733-3.61,3.733
			c-1.033,0-2.067-0.417-2.638-1.157c-0.787-1.049-0.972-2.576-0.972-3.934c0-2.329,0.57-6.032,3.949-6.032
			c1.403,0,2.19,0.617,2.561,1.019c0.54,0.633,0.556,1.312,0.57,1.728h-1.589V283.534z M436.321,288.316
			c0-0.756-0.216-2.375-1.99-2.375c-1.435,0-2.129,1.172-2.129,2.391c0,1.389,0.864,2.406,2.052,2.406
			C435.21,290.738,436.321,290.059,436.321,288.316z"/>
		<path fill="#005E7D" d="M445.625,293.577c-0.833-2.052-1.836-4.612-1.836-6.865c0-1.219,0.278-2.422,0.633-3.594
			c0.432-1.389,0.833-2.376,1.095-3.039h1.019c-0.247,0.756-0.586,1.805-0.91,3.271c-0.324,1.419-0.432,2.375-0.432,3.332
			c0,2.19,0.54,3.965,1.435,6.896L445.625,293.577L445.625,293.577z"/>
		<path fill="#005E7D" d="M452.059,280.788c3.193,0,3.579,3.425,3.579,5.431c0,2.53-0.509,3.949-1.481,4.859
			c-0.756,0.71-1.65,0.817-2.129,0.817c-1.419,0-2.391-0.833-2.854-1.773c-0.354-0.71-0.694-1.744-0.694-3.656
			C448.48,284.876,448.665,280.788,452.059,280.788z M452.043,290.615c1.79,0,2.099-2.345,2.099-4.258
			c0-2.561-0.448-4.335-2.067-4.335c-1.867,0-2.113,2.453-2.113,4.366C449.961,288.763,450.423,290.615,452.043,290.615z"/>
		<path fill="#005E7D" d="M457.63,289.828h1.712v1.852h-1.712V289.828z"/>
		<path fill="#005E7D" d="M465.914,289.365h-4.813v-1.835l4.628-6.665h1.666v7.251h1.559v1.249h-1.559v2.314h-1.48L465.914,289.365
			L465.914,289.365z M465.96,288.116v-5.631l-3.687,5.631H465.96z"/>
		<path fill="#005E7D" d="M475.064,283.441c0,1.913-1.126,2.793-2.529,2.793c-1.343,0-2.484-0.803-2.484-2.7
			c0-1.619,0.88-2.823,2.623-2.823C474.448,280.71,475.064,282.038,475.064,283.441z M473.845,283.503
			c0-0.756-0.185-1.867-1.28-1.867c-1.326,0-1.326,1.512-1.326,1.882c0,0.355,0,1.82,1.326,1.82
			C473.845,285.338,473.845,283.812,473.845,283.503z M472.102,292.281l6.804-11.879h1.018l-6.803,11.879H472.102z M481.513,287.083
			c0.277,0.308,0.632,0.802,0.632,1.959c0,1.682-0.817,2.823-2.483,2.823c-1.975,0-2.53-1.466-2.53-2.746
			c0-1.867,1.157-2.777,2.53-2.777C480.078,286.341,480.911,286.418,481.513,287.083z M480.973,289.072
			c0-0.478-0.093-1.866-1.296-1.866c-1.327,0-1.327,1.604-1.327,2.067c0,0.54,0.124,1.682,1.296,1.682
			C480.88,290.955,480.973,289.627,480.973,289.072z"/>
		<path fill="#005E7D" d="M485.14,280.079c0.833,2.052,1.836,4.597,1.836,6.85c0,1.219-0.277,2.422-0.632,3.594
			c-0.433,1.389-0.834,2.392-1.096,3.055h-1.019c0.247-0.771,0.587-1.82,0.91-3.286c0.324-1.403,0.433-2.375,0.433-3.332
			c0-2.175-0.54-3.949-1.435-6.88L485.14,280.079L485.14,280.079z"/>
	</g>
	<g>
		<path fill="#005E7D" d="M594.164,264.169c-0.663,0.556-1.728,1.188-2.483,1.543v-1.543c1.002-0.524,1.989-1.172,2.592-1.681h1.372
			v10.675h-1.48v-8.994H594.164z"/>
		<path fill="#005E7D" d="M603.268,270.849h-4.813v-1.835l4.628-6.665h1.666v7.251h1.559v1.249h-1.559v2.314h-1.48v-2.314H603.268z
			 M603.314,269.6v-5.631l-3.687,5.631H603.314z"/>
		<path fill="#005E7D" d="M613.853,275.061c-0.833-2.052-1.836-4.612-1.836-6.865c0-1.219,0.278-2.422,0.633-3.594
			c0.432-1.389,0.833-2.376,1.095-3.039h1.019c-0.247,0.756-0.586,1.805-0.91,3.271c-0.324,1.419-0.432,2.375-0.432,3.332
			c0,2.19,0.54,3.965,1.435,6.896L613.853,275.061L613.853,275.061z"/>
		<path fill="#005E7D" d="M620.209,264.169c-0.663,0.556-1.728,1.188-2.483,1.543v-1.543c1.002-0.524,1.989-1.172,2.592-1.681h1.372
			v10.675h-1.48v-8.994H620.209z"/>
		<path fill="#005E7D" d="M624.345,271.312h1.712v1.852h-1.712V271.312z"/>
		<path fill="#005E7D" d="M631.642,262.272c3.193,0,3.579,3.425,3.579,5.431c0,2.53-0.509,3.949-1.481,4.859
			c-0.756,0.71-1.65,0.817-2.129,0.817c-1.419,0-2.391-0.833-2.854-1.773c-0.354-0.71-0.694-1.744-0.694-3.656
			C628.063,266.361,628.248,262.272,631.642,262.272z M631.626,272.099c1.79,0,2.099-2.345,2.099-4.258
			c0-2.561-0.448-4.335-2.067-4.335c-1.867,0-2.113,2.453-2.113,4.366C629.544,270.248,630.006,272.099,631.626,272.099z"/>
		<path fill="#005E7D" d="M641.779,264.925c0,1.913-1.126,2.793-2.529,2.793c-1.343,0-2.484-0.803-2.484-2.7
			c0-1.619,0.88-2.823,2.623-2.823C641.163,262.195,641.779,263.522,641.779,264.925z M640.56,264.988
			c0-0.756-0.185-1.867-1.28-1.867c-1.326,0-1.326,1.512-1.326,1.882c0,0.355,0,1.82,1.326,1.82
			C640.56,266.823,640.56,265.296,640.56,264.988z M638.817,273.765l6.804-11.879h1.018l-6.803,11.879H638.817z M648.228,268.567
			c0.277,0.308,0.632,0.802,0.632,1.959c0,1.682-0.817,2.823-2.483,2.823c-1.975,0-2.53-1.466-2.53-2.746
			c0-1.867,1.157-2.777,2.53-2.777C646.792,267.826,647.625,267.903,648.228,268.567z M647.688,270.556
			c0-0.478-0.093-1.866-1.296-1.866c-1.327,0-1.327,1.604-1.327,2.067c0,0.54,0.124,1.682,1.296,1.682
			C647.595,272.439,647.688,271.112,647.688,270.556z"/>
		<path fill="#005E7D" d="M651.855,261.563c0.833,2.052,1.836,4.597,1.836,6.85c0,1.219-0.277,2.422-0.632,3.594
			c-0.433,1.389-0.834,2.392-1.096,3.055h-1.019c0.247-0.771,0.587-1.82,0.91-3.286c0.324-1.403,0.433-2.375,0.433-3.332
			c0-2.175-0.54-3.949-1.435-6.88L651.855,261.563L651.855,261.563z"/>
	</g>
	<g>
		<path fill="#005E7D" d="M598.485,289.365h-4.813v-1.835l4.628-6.665h1.666v7.251h1.559v1.249h-1.559v2.314h-1.48v-2.314H598.485z
			 M598.531,288.116v-5.631l-3.687,5.631H598.531z"/>
		<path fill="#005E7D" d="M609.07,293.577c-0.833-2.052-1.836-4.612-1.836-6.865c0-1.219,0.278-2.422,0.633-3.594
			c0.432-1.389,0.833-2.376,1.095-3.039h1.019c-0.247,0.756-0.586,1.805-0.91,3.271c-0.324,1.419-0.432,2.375-0.432,3.332
			c0,2.19,0.54,3.965,1.435,6.896L609.07,293.577L609.07,293.577z"/>
		<path fill="#005E7D" d="M615.503,280.788c3.193,0,3.579,3.425,3.579,5.431c0,2.53-0.509,3.949-1.481,4.859
			c-0.756,0.71-1.65,0.817-2.129,0.817c-1.419,0-2.391-0.833-2.854-1.773c-0.354-0.71-0.694-1.744-0.694-3.656
			C611.924,284.876,612.11,280.788,615.503,280.788z M615.488,290.615c1.79,0,2.099-2.345,2.099-4.258
			c0-2.561-0.448-4.335-2.067-4.335c-1.867,0-2.113,2.453-2.113,4.366C613.406,288.763,613.868,290.615,615.488,290.615z"/>
		<path fill="#005E7D" d="M621.075,289.828h1.712v1.852h-1.712V289.828z"/>
		<path fill="#005E7D" d="M626.335,288.933c-0.016,1.019,0.647,1.743,1.959,1.743c1.496,0,2.129-0.956,2.129-1.897
			c0-1.126-0.756-1.712-1.543-1.882c-0.555-0.108-0.94-0.093-1.48-0.077v-1.25c1.064,0.093,2.854-0.123,2.854-1.851
			c0-1.203-0.817-1.682-1.882-1.682c-0.803,0-1.805,0.354-1.943,1.682h-1.559c0.093-2.653,2.592-2.916,3.456-2.916
			c2.329,0,3.486,1.404,3.486,2.885c0,0.88-0.479,2.145-2.129,2.515c2.283,0.324,2.283,2.376,2.283,2.592
			c0,1.496-1.219,3.147-3.703,3.147c-1.126,0-2.252-0.324-2.931-1.111c-0.602-0.679-0.617-1.45-0.633-1.897h1.636V288.933z"/>
		<path fill="#005E7D" d="M638.508,283.441c0,1.913-1.126,2.793-2.529,2.793c-1.343,0-2.484-0.803-2.484-2.7
			c0-1.619,0.88-2.823,2.623-2.823C637.892,280.71,638.508,282.038,638.508,283.441z M637.289,283.503
			c0-0.756-0.185-1.867-1.28-1.867c-1.326,0-1.326,1.512-1.326,1.882c0,0.355,0,1.82,1.326,1.82
			C637.289,285.338,637.289,283.812,637.289,283.503z M635.546,292.281l6.804-11.879h1.018l-6.803,11.879H635.546z M644.957,287.083
			c0.277,0.308,0.632,0.802,0.632,1.959c0,1.682-0.817,2.823-2.483,2.823c-1.975,0-2.53-1.466-2.53-2.746
			c0-1.867,1.157-2.777,2.53-2.777C643.522,286.341,644.355,286.418,644.957,287.083z M644.417,289.072
			c0-0.478-0.093-1.866-1.296-1.866c-1.327,0-1.327,1.604-1.327,2.067c0,0.54,0.124,1.682,1.296,1.682
			C644.325,290.955,644.417,289.627,644.417,289.072z"/>
		<path fill="#005E7D" d="M648.584,280.079c0.833,2.052,1.836,4.597,1.836,6.85c0,1.219-0.277,2.422-0.632,3.594
			c-0.433,1.389-0.834,2.392-1.096,3.055h-1.019c0.247-0.771,0.587-1.82,0.91-3.286c0.324-1.403,0.433-2.375,0.433-3.332
			c0-2.175-0.54-3.949-1.435-6.88L648.584,280.079L648.584,280.079z"/>
	</g>
	<g>
		<path fill="#005E7D" d="M25.36,323.126h3.98c0.57,0,1.743,0,2.561,0.524c0.834,0.524,1.234,1.373,1.234,2.268
			c0,0.787-0.293,1.48-0.787,1.975c-0.478,0.479-0.971,0.633-1.311,0.725c1.064,0.278,1.543,0.756,1.697,2.145
			c0.154,1.312,0.262,2.268,0.693,3.502h-1.65c-0.246-0.74-0.4-2.098-0.51-2.946c-0.185-1.62-0.57-2.083-2.437-2.083h-1.944v5.029
			H25.36V323.126z M26.857,327.923h2.437c0.17,0,1.05,0,1.467-0.246c0.215-0.124,0.756-0.524,0.756-1.45
			c0-1.805-1.605-1.805-2.223-1.805h-2.437C26.857,324.422,26.857,327.923,26.857,327.923z"/>
		<path fill="#005E7D" d="M35.682,323.141h1.467v4.521c0.478-0.817,1.434-1.28,2.514-1.28c0.818,0,1.99,0.293,2.438,1.234
			c0.154,0.308,0.262,0.679,0.262,1.805v4.844h-1.48v-4.582c0-0.694,0-2.19-1.666-2.19c-1.08,0-1.619,0.663-1.82,1.034
			c-0.246,0.432-0.246,1.156-0.246,1.635v4.104h-1.467v-11.125H35.682z"/>
		<path fill="#005E7D" d="M49.83,334.264c-0.107-0.386-0.139-0.756-0.139-1.157c-0.694,1.28-1.743,1.404-2.391,1.404
			c-1.775,0-2.731-1.003-2.731-2.283c0-0.617,0.216-1.604,1.358-2.268c0.832-0.463,2.066-0.51,2.684-0.51
			c0.37,0,0.602,0.016,1.049,0.047c0-0.957,0-1.373-0.277-1.713c-0.293-0.386-0.926-0.509-1.342-0.509
			c-1.466,0-1.543,1.003-1.559,1.312h-1.45c0.046-0.401,0.093-0.941,0.54-1.466c0.586-0.647,1.682-0.833,2.499-0.833
			c1.126,0,2.329,0.354,2.746,1.142c0.247,0.463,0.263,0.833,0.263,1.188l-0.063,3.703c0,0.123,0.016,1.156,0.123,1.943
			L49.83,334.264L49.83,334.264z M48.828,330.454c-0.586,0-2.792,0-2.792,1.573c0,0.494,0.309,1.343,1.604,1.343
			c0.74,0,1.296-0.293,1.65-0.833c0.324-0.524,0.339-0.957,0.37-2.036C49.399,330.469,49.182,330.454,48.828,330.454z"/>
		<path fill="#005E7D" d="M55.139,327.646c0.2-0.354,0.771-1.326,2.529-1.326c0.771,0,1.744,0.185,2.453,0.987
			c0.386,0.447,0.91,1.219,0.91,2.915c0,1.497-0.355,2.314-0.74,2.823c-0.617,0.879-1.65,1.327-2.715,1.327
			c-0.371,0-1.064-0.047-1.729-0.494c-0.432-0.293-0.602-0.556-0.756-0.787l-0.031,1.173h-1.403l0.03-1.389v-9.749h1.451v4.52
			H55.139z M57.329,327.307c-2.221,0-2.221,2.591-2.221,3.085c0,0.509,0,2.931,2.16,2.931c1.789,0,2.236-1.743,2.236-3.008
			C59.504,329.543,59.35,327.307,57.329,327.307z"/>
		<path fill="#005E7D" d="M68.485,323.141h1.449v9.889c0,0.17,0.031,0.833,0.063,1.234h-1.451l-0.03-1.234
			c-0.124,0.216-0.293,0.54-0.694,0.817c-0.633,0.433-1.389,0.571-1.912,0.571c-1.034,0-3.333-0.54-3.333-3.934
			c0-2.946,1.682-4.228,3.502-4.228c1.666,0,2.222,0.987,2.407,1.312L68.485,323.141L68.485,323.141z M67.944,328.125
			c-0.309-0.401-0.879-0.787-1.696-0.787c-2.129,0-2.129,2.576-2.129,3.101c0,1.373,0.354,2.962,2.129,2.962
			c2.283,0,2.283-2.515,2.283-3.116C68.531,329.158,68.268,328.541,67.944,328.125z"/>
		<path fill="#005E7D" d="M75.907,326.32c3.1,0,3.795,2.438,3.795,4.057c0,2.268-1.281,4.15-3.919,4.15
			c-2.562,0-3.811-1.774-3.811-4.042C71.972,328.572,72.868,326.32,75.907,326.32z M75.813,333.447c1.096,0,2.346-0.787,2.346-3.116
			c0-1.929-0.895-2.946-2.252-2.946c-0.926,0-2.423,0.586-2.423,3.008C73.484,331.981,74.163,333.447,75.813,333.447z"/>
		<path fill="#005E7D" d="M81.955,327.553l-0.031-1.033h1.465v1.126c0.74-1.219,1.79-1.326,2.453-1.326
			c1.713,0,2.252,0.879,2.53,1.45c0.263-0.433,0.895-1.45,2.606-1.45c1.111,0,2.839,0.463,2.839,2.745v5.199h-1.466v-4.968
			c0-0.679-0.123-0.972-0.262-1.172c-0.247-0.354-0.74-0.679-1.48-0.679c-0.941,0-1.451,0.54-1.651,0.817
			c-0.339,0.479-0.339,1.327-0.339,1.666v4.335h-1.466v-5.122c0-0.956-0.556-1.696-1.697-1.696c-0.987,0-1.526,0.617-1.696,0.849
			c-0.324,0.447-0.34,1.079-0.34,1.573v4.396h-1.465V327.553z"/>
		<path fill="#005E7D" d="M99.729,334.31l-1.111,2.885h-1.496l1.172-2.962l-3.224-7.713h1.636l2.422,6.109l2.468-6.109h1.573
			L99.729,334.31z"/>
		<path fill="#005E7D" d="M108.184,326.32c3.101,0,3.795,2.438,3.795,4.057c0,2.268-1.281,4.15-3.918,4.15
			c-2.562,0-3.811-1.774-3.811-4.042C104.25,328.572,105.145,326.32,108.184,326.32z M108.091,333.447
			c1.095,0,2.345-0.787,2.345-3.116c0-1.929-0.895-2.946-2.252-2.946c-0.926,0-2.422,0.586-2.422,3.008
			C105.762,331.981,106.441,333.447,108.091,333.447z"/>
		<path fill="#005E7D" d="M114.279,323.141h1.45v11.123h-1.45V323.141z"/>
		<path fill="#005E7D" d="M122.024,334.31l-1.11,2.885h-1.497l1.173-2.962l-3.224-7.713H119l2.422,6.109l2.469-6.109h1.573
			L122.024,334.31z"/>
		<path fill="#005E7D" d="M127.95,331.965c-0.016,0.587,0.293,1.404,1.697,1.404c0.602,0,1.049-0.108,1.357-0.494
			c0.154-0.2,0.246-0.463,0.246-0.725c0-0.756-0.539-0.895-1.697-1.157c-1.619-0.37-2.977-0.694-2.977-2.313
			c0-1.42,1.234-2.346,3.023-2.346c0.972,0,2.329,0.278,2.792,1.204c0.2,0.432,0.2,0.802,0.2,1.126h-1.48
			c0.047-1.173-0.972-1.266-1.496-1.266c-0.217,0-1.574,0-1.574,1.111c0,0.709,0.695,0.879,1.096,0.987
			c2.145,0.509,2.607,0.632,3.07,1.064c0.432,0.4,0.586,0.94,0.586,1.435c0,0.863-0.479,1.604-1.049,1.959
			c-0.68,0.417-1.496,0.524-2.299,0.524c-1.574,0-3.039-0.647-3.023-2.515h1.528V331.965z"/>
		<path fill="#005E7D" d="M134.692,323.157h1.744v1.589h-1.744V323.157z M134.846,326.52h1.451v7.744h-1.451V326.52z"/>
		<path fill="#005E7D" d="M139.954,331.965c-0.016,0.587,0.293,1.404,1.697,1.404c0.602,0,1.049-0.108,1.357-0.494
			c0.154-0.2,0.246-0.463,0.246-0.725c0-0.756-0.539-0.895-1.697-1.157c-1.619-0.37-2.977-0.694-2.977-2.313
			c0-1.42,1.234-2.346,3.023-2.346c0.972,0,2.329,0.278,2.792,1.204c0.2,0.432,0.2,0.802,0.2,1.126h-1.48
			c0.047-1.173-0.972-1.266-1.496-1.266c-0.217,0-1.574,0-1.574,1.111c0,0.709,0.695,0.879,1.096,0.987
			c2.145,0.509,2.607,0.632,3.07,1.064c0.432,0.4,0.586,0.94,0.586,1.435c0,0.863-0.479,1.604-1.049,1.959
			c-0.68,0.417-1.496,0.524-2.299,0.524c-1.574,0-3.039-0.647-3.023-2.515h1.528V331.965z"/>
	</g>
	<g>
		<path fill="#005E7D" d="M458.941,323.373c3.193,0,3.579,3.425,3.579,5.431c0,2.53-0.509,3.949-1.481,4.859
			c-0.756,0.71-1.65,0.817-2.129,0.817c-1.419,0-2.391-0.833-2.854-1.773c-0.354-0.71-0.694-1.744-0.694-3.656
			C455.362,327.461,455.547,323.373,458.941,323.373z M458.925,333.2c1.79,0,2.099-2.345,2.099-4.258
			c0-2.561-0.448-4.335-2.067-4.335c-1.867,0-2.113,2.453-2.113,4.366C456.843,331.348,457.305,333.2,458.925,333.2z"/>
	</g>
	<g>
		<path fill="#005E7D" d="M622.37,323.373c3.193,0,3.579,3.425,3.579,5.431c0,2.53-0.509,3.949-1.481,4.859
			c-0.756,0.71-1.65,0.817-2.129,0.817c-1.419,0-2.391-0.833-2.854-1.773c-0.354-0.71-0.694-1.744-0.694-3.656
			C618.79,327.461,618.976,323.373,622.37,323.373z M622.354,333.2c1.79,0,2.099-2.345,2.099-4.258c0-2.561-0.448-4.335-2.067-4.335
			c-1.867,0-2.113,2.453-2.113,4.366C620.272,331.348,620.734,333.2,622.354,333.2z"/>
	</g>
	<g>
		<path fill="#003B47" d="M618.474,364.716h1.005l2.74,6.775h-1.023l-0.731-1.764h-3.144l-0.732,1.764h-0.967L618.474,364.716z
			 M617.621,368.967h2.562l-1.248-3.321L617.621,368.967z"/>
		<path fill="#003B47" d="M626.407,364.726h0.883v6.016c0,0.103,0.019,0.506,0.037,0.75h-0.882l-0.019-0.75
			c-0.075,0.131-0.179,0.328-0.423,0.497c-0.385,0.263-0.845,0.347-1.163,0.347c-0.629,0-2.027-0.328-2.027-2.393
			c0-1.792,1.022-2.571,2.13-2.571c1.014,0,1.352,0.601,1.464,0.798V364.726z M626.079,367.757
			c-0.188-0.244-0.535-0.479-1.032-0.479c-1.295,0-1.295,1.566-1.295,1.886c0,0.835,0.216,1.802,1.295,1.802
			c1.389,0,1.389-1.529,1.389-1.896C626.435,368.386,626.276,368.01,626.079,367.757z"/>
		<path fill="#003B47" d="M631.748,371.492c-0.065-0.234-0.084-0.46-0.084-0.703c-0.423,0.778-1.061,0.854-1.455,0.854
			c-1.079,0-1.66-0.61-1.66-1.389c0-0.376,0.131-0.977,0.825-1.38c0.507-0.281,1.258-0.31,1.633-0.31
			c0.226,0,0.366,0.01,0.639,0.028c0-0.582,0-0.835-0.169-1.042c-0.179-0.234-0.563-0.31-0.816-0.31
			c-0.892,0-0.938,0.61-0.948,0.798h-0.882c0.028-0.244,0.056-0.572,0.328-0.892c0.356-0.394,1.023-0.507,1.521-0.507
			c0.685,0,1.417,0.216,1.67,0.694c0.15,0.282,0.16,0.507,0.16,0.723l-0.038,2.252c0,0.075,0.01,0.704,0.075,1.183L631.748,371.492
			L631.748,371.492z M631.139,369.174c-0.356,0-1.699,0-1.699,0.957c0,0.3,0.188,0.816,0.977,0.816c0.45,0,0.788-0.179,1.004-0.507
			c0.197-0.319,0.206-0.582,0.226-1.238C631.486,369.183,631.355,369.174,631.139,369.174z"/>
		<path fill="#003B47" d="M634.07,367.55c0-0.206-0.01-0.318-0.028-0.77h0.892l0.019,0.779c0.44-0.741,1.22-0.854,1.604-0.854
			c1.014,0,1.98,0.695,1.98,2.44c0,1.755-1.023,2.524-2.149,2.524c-0.685,0-1.191-0.291-1.445-0.704v2.337h-0.872L634.07,367.55
			L634.07,367.55z M636.237,371.023c0.226,0,0.694-0.047,0.995-0.46c0.338-0.46,0.385-1.136,0.385-1.474
			c0-0.845-0.254-1.727-1.295-1.727c-1.408,0-1.408,1.492-1.408,1.914C634.914,369.85,634.998,371.023,636.237,371.023z"/>
		<path fill="#003B47" d="M639.111,366.762h0.835v-0.985l0.873-0.281v1.267h1.051v0.647h-1.051v2.825c0,0.234,0,0.628,0.629,0.628
			c0.178,0,0.347-0.027,0.422-0.047v0.686c-0.159,0.028-0.413,0.057-0.731,0.057c-0.808,0-1.192-0.235-1.192-1.005v-3.144h-0.835
			L639.111,366.762L639.111,366.762z"/>
		<path fill="#003B47" d="M643.495,369.296c-0.019,0.976,0.385,1.698,1.352,1.698c0.572,0,1.032-0.301,1.107-0.976h0.882
			c-0.028,0.234-0.065,0.619-0.403,0.985c-0.207,0.234-0.676,0.628-1.624,0.628c-1.482,0-2.187-0.919-2.187-2.411
			c0-0.93,0.188-1.699,0.93-2.215c0.45-0.319,1.014-0.348,1.285-0.348c2.111,0,2.064,1.868,2.046,2.638h-3.388V369.296z
			 M645.982,368.676c0.009-0.45-0.075-1.389-1.164-1.389c-0.572,0-1.267,0.348-1.285,1.389H645.982z"/>
		<path fill="#003B47" d="M651.445,364.726h0.883v6.016c0,0.103,0.019,0.506,0.037,0.75h-0.882l-0.019-0.75
			c-0.075,0.131-0.179,0.328-0.423,0.497c-0.385,0.263-0.845,0.347-1.163,0.347c-0.629,0-2.027-0.328-2.027-2.393
			c0-1.792,1.022-2.571,2.13-2.571c1.014,0,1.352,0.601,1.464,0.798V364.726z M651.117,367.757
			c-0.188-0.244-0.535-0.479-1.032-0.479c-1.295,0-1.295,1.566-1.295,1.886c0,0.835,0.216,1.802,1.295,1.802
			c1.389,0,1.389-1.529,1.389-1.896C651.473,368.386,651.314,368.01,651.117,367.757z"/>
		<path fill="#003B47" d="M658.881,365.374c-0.15-0.01-0.338-0.019-0.517-0.019c-0.713,0-0.713,0.356-0.713,0.685v0.741h1.098v0.639
			h-1.098v4.072h-0.873v-4.072h-0.929v-0.639h0.929v-0.534c0-0.647,0.038-0.883,0.197-1.127c0.197-0.3,0.572-0.516,1.183-0.516
			c0.253,0,0.535,0.037,0.723,0.065V365.374z"/>
		<path fill="#003B47" d="M659.699,367.739c0-0.319-0.019-0.648-0.047-0.958h0.892l0.019,0.91c0.169-0.656,0.732-0.872,1.126-0.929
			c0.263-0.037,0.46-0.028,0.61-0.019v0.863c-0.047-0.019-0.104-0.028-0.169-0.037c-0.066-0.01-0.15-0.01-0.254-0.01
			c-1.041,0-1.285,0.619-1.285,1.427v2.505h-0.892L659.699,367.739L659.699,367.739z"/>
		<path fill="#003B47" d="M665.349,366.659c1.887,0,2.309,1.483,2.309,2.469c0,1.379-0.778,2.524-2.384,2.524
			c-1.558,0-2.317-1.079-2.317-2.459C662.956,368.029,663.5,366.659,665.349,366.659z M665.293,370.995
			c0.666,0,1.426-0.479,1.426-1.896c0-1.173-0.544-1.793-1.37-1.793c-0.563,0-1.473,0.357-1.473,1.83
			C663.876,370.103,664.289,370.995,665.293,370.995z"/>
		<path fill="#003B47" d="M669.031,367.41l-0.019-0.629h0.891v0.686c0.451-0.741,1.089-0.808,1.492-0.808
			c1.042,0,1.37,0.535,1.539,0.883c0.16-0.263,0.545-0.883,1.586-0.883c0.676,0,1.727,0.282,1.727,1.671v3.162h-0.892v-3.021
			c0-0.413-0.074-0.591-0.159-0.713c-0.15-0.216-0.45-0.413-0.9-0.413c-0.573,0-0.883,0.328-1.005,0.497
			c-0.206,0.291-0.206,0.808-0.206,1.014v2.637h-0.892v-3.115c0-0.582-0.338-1.032-1.032-1.032c-0.601,0-0.929,0.375-1.032,0.516
			c-0.197,0.272-0.206,0.657-0.206,0.958v2.674h-0.892L669.031,367.41L669.031,367.41z"/>
		<path fill="#003B47" d="M680.559,367.739c0-0.319-0.019-0.648-0.047-0.958h0.892l0.019,0.91c0.169-0.656,0.732-0.872,1.126-0.929
			c0.263-0.037,0.46-0.028,0.61-0.019v0.863c-0.047-0.019-0.104-0.028-0.169-0.037c-0.066-0.01-0.15-0.01-0.254-0.01
			c-1.041,0-1.285,0.619-1.285,1.427v2.505h-0.892L680.559,367.739L680.559,367.739z"/>
		<path fill="#003B47" d="M684.699,369.296c-0.019,0.976,0.385,1.698,1.352,1.698c0.572,0,1.032-0.301,1.107-0.976h0.882
			c-0.028,0.234-0.065,0.619-0.403,0.985c-0.207,0.234-0.676,0.628-1.624,0.628c-1.482,0-2.187-0.919-2.187-2.411
			c0-0.93,0.188-1.699,0.93-2.215c0.45-0.319,1.014-0.348,1.285-0.348c2.111,0,2.064,1.868,2.046,2.638h-3.388V369.296z
			 M687.186,368.676c0.009-0.45-0.075-1.389-1.164-1.389c-0.572,0-1.267,0.348-1.285,1.389H687.186z"/>
		<path fill="#003B47" d="M691.74,365.374c-0.15-0.01-0.338-0.019-0.517-0.019c-0.713,0-0.713,0.356-0.713,0.685v0.741h1.098v0.639
			h-1.098v4.072h-0.873v-4.072h-0.929v-0.639h0.929v-0.534c0-0.647,0.038-0.883,0.197-1.127c0.197-0.3,0.572-0.516,1.183-0.516
			c0.253,0,0.535,0.037,0.723,0.065V365.374z"/>
		<path fill="#003B47" d="M692.445,370.366h1.041v1.126h-1.041V370.366z"/>
		<path fill="#003B47" d="M699.447,366.021c-0.403,0.338-1.051,0.723-1.511,0.938v-0.938c0.61-0.319,1.211-0.713,1.577-1.022h0.835
			v6.493h-0.901L699.447,366.021L699.447,366.021z"/>
	</g>
</g>
</svg>
