<?xml version="1.0" encoding="utf-8"?>
<!-- Generator: Adobe Illustrator 17.0.0, SVG Export Plug-In . SVG Version: 6.00 Build 0)  -->
<!DOCTYPE svg PUBLIC "-//W3C//DTD SVG 1.1//EN" "http://www.w3.org/Graphics/SVG/1.1/DTD/svg11.dtd">
<svg version="1.1" id="Layer_1" xmlns="http://www.w3.org/2000/svg" xmlns:xlink="http://www.w3.org/1999/xlink" x="0px" y="0px"
	 width="520.845px" height="108.75px" viewBox="0 0 520.845 108.75" enable-background="new 0 0 520.845 108.75"
	 xml:space="preserve">
<g>
	<g>
		<defs>
			<path id="SVGID_368_" d="M28.624,0C12.813,0,0,9.903,0,22.121V86.64c0,12.206,12.813,22.109,28.624,22.109h463.599
				c15.807,0,28.622-9.903,28.622-22.109V22.121C520.845,9.903,508.03,0,492.223,0H28.624z"/>
		</defs>
		<clipPath id="SVGID_1_">
			<use xlink:href="#SVGID_368_"  overflow="visible"/>
		</clipPath>
		
			<linearGradient id="SVGID_2_" gradientUnits="userSpaceOnUse" x1="-3431.6675" y1="599.5186" x2="-3429.3062" y2="599.5186" gradientTransform="matrix(0 -46.0542 -46.7324 0 28277.3672 -157933.9531)">
			<stop  offset="0" style="stop-color:#414042"/>
			<stop  offset="0.0139" style="stop-color:#454446"/>
			<stop  offset="0.1522" style="stop-color:#69696B"/>
			<stop  offset="0.2969" style="stop-color:#87888A"/>
			<stop  offset="0.4479" style="stop-color:#9FA0A2"/>
			<stop  offset="0.6078" style="stop-color:#AFB1B3"/>
			<stop  offset="0.7825" style="stop-color:#B9BBBD"/>
			<stop  offset="1" style="stop-color:#BCBEC0"/>
		</linearGradient>
		<rect x="0" y="0" clip-path="url(#SVGID_1_)" fill="url(#SVGID_2_)" width="520.845" height="108.75"/>
	</g>
	<g>
		<defs>
			<path id="SVGID_371_" d="M28.624,8.208c-9.93,0-17.989,6.234-17.989,13.913V86.64c0,7.663,8.059,13.897,17.989,13.897h463.599
				c9.92,0,17.986-6.234,17.986-13.897V22.121c0-7.679-8.066-13.913-17.986-13.913H28.624z"/>
		</defs>
		<clipPath id="SVGID_3_">
			<use xlink:href="#SVGID_371_"  overflow="visible"/>
		</clipPath>
		
			<linearGradient id="SVGID_4_" gradientUnits="userSpaceOnUse" x1="-3431.5122" y1="587.6466" x2="-3429.1509" y2="587.6466" gradientTransform="matrix(0 -39.0996 -39.6754 0 23575.5371 -134070.2188)">
			<stop  offset="0" style="stop-color:#FFFFFF"/>
			<stop  offset="0.3022" style="stop-color:#F8F8F8"/>
			<stop  offset="0.7564" style="stop-color:#E6E5E3"/>
			<stop  offset="1" style="stop-color:#DAD8D5"/>
		</linearGradient>
		<rect x="10.636" y="8.208" clip-path="url(#SVGID_3_)" fill="url(#SVGID_4_)" width="499.574" height="92.329"/>
	</g>
	<g opacity="0.5">
		<g>
			<defs>
				<rect id="SVGID_374_" x="9.566" y="7.391" width="501.721" height="93.97"/>
			</defs>
			<clipPath id="SVGID_5_">
				<use xlink:href="#SVGID_374_"  overflow="visible"/>
			</clipPath>
			<g clip-path="url(#SVGID_5_)">
				<defs>
					<path id="SVGID_376_" d="M28.624,7.391c-10.506,0-19.059,6.6-19.059,14.728V86.64c0,8.116,8.553,14.721,19.059,14.721h463.599
						c10.508,0,19.063-6.605,19.063-14.721V22.119c0-8.128-8.555-14.728-19.063-14.728H28.624z"/>
				</defs>
				<clipPath id="SVGID_6_">
					<use xlink:href="#SVGID_376_"  overflow="visible"/>
				</clipPath>
				
					<linearGradient id="SVGID_7_" gradientUnits="userSpaceOnUse" x1="-3431.5278" y1="589.0106" x2="-3429.1665" y2="589.0106" gradientTransform="matrix(0 -39.7949 -40.381 0 24045.2617 -136455.9531)">
					<stop  offset="0" style="stop-color:#595A5C"/>
					<stop  offset="0.005" style="stop-color:#5C5D5F"/>
					<stop  offset="0.066" style="stop-color:#838385"/>
					<stop  offset="0.1322" style="stop-color:#A4A4A5"/>
					<stop  offset="0.2061" style="stop-color:#C0C1C1"/>
					<stop  offset="0.2882" style="stop-color:#D7D8D8"/>
					<stop  offset="0.3822" style="stop-color:#E9E9EA"/>
					<stop  offset="0.4954" style="stop-color:#F6F6F6"/>
					<stop  offset="0.6471" style="stop-color:#FDFDFD"/>
					<stop  offset="1" style="stop-color:#FFFFFF"/>
				</linearGradient>
				<rect x="9.566" y="7.391" clip-path="url(#SVGID_6_)" fill="url(#SVGID_7_)" width="501.721" height="93.97"/>
			</g>
		</g>
	</g>
	<g>
		<g>
			<path fill="#00728F" d="M134.673,14.297l4.741,13.459h-2.947l-0.982-2.904h-5.402l-1.02,2.904h-2.796l4.93-13.459H134.673z
				 M134.748,22.674l-1.889-5.734l-2.021,5.734H134.748z"/>
			<path fill="#00728F" d="M143.646,23.455c0,0.633-0.037,2.55,2.475,2.55c1.587,0,2.588-0.745,2.588-1.88
				c0-1.191-0.85-1.396-2.588-1.806c-3.249-0.801-5.024-1.75-5.024-4.077c0-2.215,1.605-4.17,5.402-4.17
				c1.417,0,3.099,0.316,4.118,1.583c0.774,0.968,0.774,2.047,0.774,2.495h-2.814c-0.038-0.466-0.188-2.048-2.21-2.048
				c-1.36,0-2.248,0.726-2.248,1.824c0,1.247,1.001,1.471,2.966,1.955c2.361,0.559,4.685,1.191,4.685,3.816
				c0,2.42-2.04,4.375-5.818,4.375c-5.232,0-5.271-3.313-5.289-4.617H143.646z"/>
			<path fill="#00728F" d="M161.784,18.69c-0.057-0.465-0.228-2.364-2.211-2.364c-2.172,0-3.079,2.234-3.079,5.008
				c0,0.8,0,4.617,2.853,4.617c1.229,0,2.399-0.763,2.456-2.55h3.079c-0.057,0.8-0.132,2.047-1.228,3.165
				c-1.209,1.229-2.739,1.508-3.986,1.508c-4.703,0-6.233-3.425-6.233-6.757c0-4.263,2.418-7.093,6.252-7.093
				c2.985,0,5.082,1.787,5.082,4.468H161.784z"/>
			<path fill="#00728F" d="M169.001,14.352l3.57,10.555l3.589-10.555h2.891l-5.024,13.403h-3.192l-5.025-13.403H169.001z"/>
			<path fill="#00728F" d="M180.639,14.334l4.515,0.019c0.756,0,3.061,0.019,4.704,1.21c1.719,1.247,2.323,3.37,2.323,5.287
				c0,4.132-2.248,6.292-4.836,6.757c-0.51,0.093-1.076,0.149-2.455,0.149h-4.251V14.334z M183.605,25.54
				c0.321,0.019,0.813,0.037,1.152,0.037c1.247,0,2.324-0.093,3.174-0.931c1.152-1.135,1.228-3.146,1.228-3.797
				c0-1.899-0.661-3.649-2.493-4.151c-0.604-0.167-1.379-0.261-3.061-0.187V25.54z"/>
			<path fill="#00728F" d="M199.585,13.672h-2.273v6.425h-1.075v-6.425h-2.313v-0.992h2.313v-2.267h1.075v2.267h2.273V13.672z"/>
			<path fill="#00728F" d="M204.263,23.455c0,0.633-0.037,2.55,2.475,2.55c1.587,0,2.588-0.745,2.588-1.88
				c0-1.191-0.85-1.396-2.588-1.806c-3.249-0.801-5.024-1.75-5.024-4.077c0-2.215,1.605-4.17,5.402-4.17
				c1.417,0,3.099,0.316,4.118,1.583c0.774,0.968,0.774,2.047,0.774,2.495h-2.814c-0.038-0.466-0.188-2.048-2.21-2.048
				c-1.36,0-2.248,0.726-2.248,1.824c0,1.247,1.001,1.471,2.966,1.955c2.361,0.559,4.685,1.191,4.685,3.816
				c0,2.42-2.04,4.375-5.818,4.375c-5.232,0-5.271-3.313-5.289-4.617H204.263z"/>
			<path fill="#00728F" d="M220.056,27.625c-0.906,0.242-1.719,0.298-2.172,0.298c-2.814,0-2.814-1.75-2.814-2.532v-5.156h-1.833
				V18.41h1.833v-1.843l2.776-1.005v2.848h2.267v1.825h-2.267v4.244c0.02,0.856,0.02,1.396,1.266,1.396
				c0.416,0,0.604-0.019,0.944-0.056V27.625z"/>
			<path fill="#00728F" d="M227.519,27.756c-0.094-0.577-0.094-1.005-0.094-1.285c-1.058,1.508-2.324,1.508-2.853,1.508
				c-1.379,0-2.003-0.391-2.38-0.745c-0.567-0.558-0.832-1.321-0.832-2.066s0.265-2.123,2.021-2.923
				c1.172-0.521,2.853-0.521,3.778-0.521c0-0.615-0.019-0.913-0.132-1.248c-0.246-0.689-0.982-0.782-1.247-0.782
				c-0.396,0-0.813,0.167-1.058,0.521c-0.208,0.317-0.208,0.615-0.208,0.838h-2.739c0.019-0.502,0.075-1.508,1.077-2.215
				c0.868-0.614,1.983-0.763,2.89-0.763c0.794,0,2.456,0.13,3.4,1.21c0.643,0.763,0.661,1.88,0.661,2.309l0.019,3.779
				c0,0.8,0.057,1.601,0.228,2.383H227.519z M224.082,24.851c0,0.633,0.435,1.341,1.36,1.341c0.51,0,0.926-0.242,1.189-0.54
				c0.491-0.596,0.529-1.322,0.529-2.327C225.366,23.176,224.082,23.735,224.082,24.851z"/>
			<path fill="#00728F" d="M237.91,27.625c-0.906,0.242-1.719,0.298-2.172,0.298c-2.814,0-2.814-1.75-2.814-2.532v-5.156h-1.833
				V18.41h1.833v-1.843l2.776-1.005v2.848h2.267v1.825H235.7v4.244c0.02,0.856,0.02,1.396,1.266,1.396
				c0.416,0,0.604-0.019,0.944-0.056V27.625z"/>
			<path fill="#00728F" d="M239.555,14.315h2.984v2.401h-2.984V14.315z M239.649,18.336h2.796v9.419h-2.796V18.336z"/>
			<path fill="#00728F" d="M244.939,20.03c0-0.037,0-1.061-0.057-1.712h2.683l0.075,1.415c0.265-0.428,1.021-1.638,3.099-1.638
				c1.87,0,2.663,1.117,2.909,1.769c0.207,0.577,0.264,1.061,0.264,2.811v5.082h-2.853V21.91c0-0.391,0-0.726-0.15-1.024
				c-0.208-0.41-0.643-0.801-1.36-0.801c-0.604,0-1.152,0.279-1.455,0.726c-0.17,0.242-0.34,0.708-0.34,1.434v5.51h-2.814V20.03z"/>
			<path fill="#00728F" d="M261.754,14.315h5.101c0.794,0,2.323,0,3.362,0.633c1.247,0.782,1.53,2.085,1.53,2.867
				c0,0.503-0.095,1.377-0.793,2.011c-0.095,0.112-0.756,0.708-1.549,0.912v0.037c2.077,0.373,2.89,1.862,2.89,3.276
				c0,1.583-0.944,2.644-2.002,3.165c-1.059,0.54-2.909,0.54-3.438,0.54h-5.101V14.315z M264.55,19.788h2.04
				c0.832,0,2.343,0,2.343-1.731c0-1.675-1.436-1.675-2.399-1.675h-1.983V19.788z M264.55,25.596h1.983c1.342,0,2.853,0,2.853-1.806
				c0-1.917-1.757-1.917-3.154-1.917h-1.682V25.596z"/>
			<path fill="#00728F" d="M276.547,23.753c0,0.614,0,2.513,1.946,2.513c0.698,0,1.397-0.261,1.662-1.303h2.55
				c-0.037,0.447-0.132,1.248-0.906,2.048c-0.699,0.726-1.946,1.098-3.344,1.098c-0.813,0-2.361-0.149-3.362-1.173
				c-0.869-0.894-1.229-2.159-1.229-3.667c0-1.526,0.378-3.351,1.984-4.449c0.736-0.484,1.643-0.782,2.682-0.782
				c1.36,0,2.985,0.521,3.854,2.271c0.643,1.285,0.604,2.662,0.567,3.444H276.547z M280.098,22.022c0-0.428-0.038-2.104-1.662-2.104
				c-1.229,0-1.738,1.005-1.795,2.104H280.098z"/>
			<path fill="#00728F" d="M284.842,20.03c0-0.037,0-1.061-0.057-1.712h2.683l0.075,1.415c0.265-0.428,1.021-1.638,3.099-1.638
				c1.87,0,2.663,1.117,2.909,1.769c0.207,0.577,0.264,1.061,0.264,2.811v5.082h-2.853V21.91c0-0.391,0-0.726-0.15-1.024
				c-0.208-0.41-0.643-0.801-1.36-0.801c-0.604,0-1.152,0.279-1.455,0.726c-0.17,0.242-0.34,0.708-0.34,1.434v5.51h-2.814V20.03z"/>
			<path fill="#00728F" d="M298.596,23.753c0,0.614,0,2.513,1.946,2.513c0.698,0,1.397-0.261,1.662-1.303h2.55
				c-0.037,0.447-0.132,1.248-0.906,2.048c-0.699,0.726-1.946,1.098-3.344,1.098c-0.813,0-2.361-0.149-3.362-1.173
				c-0.869-0.894-1.229-2.159-1.229-3.667c0-1.526,0.378-3.351,1.984-4.449c0.736-0.484,1.643-0.782,2.682-0.782
				c1.36,0,2.985,0.521,3.854,2.271c0.643,1.285,0.604,2.662,0.567,3.444H298.596z M302.147,22.022c0-0.428-0.038-2.104-1.662-2.104
				c-1.229,0-1.738,1.005-1.795,2.104H302.147z"/>
			<path fill="#00728F" d="M307.098,20.309h-1.436v-1.955h1.436V17.07c0-1.657,0.548-2.997,3.268-2.997c0.208,0,0.737,0,1.512,0.093
				v1.917c-0.283-0.038-0.359-0.056-0.586-0.056c-1.417,0-1.417,0.745-1.417,1.229v1.098h1.757v1.955h-1.757v7.446h-2.776V20.309z
				 M313.048,14.315h2.984v2.401h-2.984V14.315z M313.142,18.336h2.796v9.419h-2.796V18.336z"/>
			<path fill="#00728F" d="M324.006,27.625c-0.906,0.242-1.719,0.298-2.172,0.298c-2.814,0-2.814-1.75-2.814-2.532v-5.156h-1.833
				V18.41h1.833v-1.843l2.776-1.005v2.848h2.267v1.825h-2.267v4.244c0.02,0.856,0.02,1.396,1.266,1.396
				c0.416,0,0.604-0.019,0.944-0.056V27.625z"/>
			<path fill="#00728F" d="M340.234,18.429c-0.019-0.354-0.037-0.837-0.377-1.359c-0.567-0.894-1.644-1.042-2.286-1.042
				c-3.325,0-3.986,3.053-3.986,5.12c0,0.912,0.133,2.55,1.134,3.611c0.68,0.745,1.587,1.154,3.211,1.154
				c1.417,0,1.908-0.168,2.229-0.261v-2.83h-2.645v-2.234h5.572v6.72c-0.85,0.279-2.248,0.745-4.986,0.745
				c-3.117,0-4.723-0.745-5.8-1.787c-1.53-1.471-1.813-3.611-1.813-5.026c0-4.766,3.022-7.316,7.159-7.316
				c1.757,0,3.57,0.484,4.647,1.694c0.906,1.024,0.963,2.085,0.982,2.811H340.234z"/>
			<path fill="#00728F" d="M345.695,20.663c0-0.447-0.075-1.806-0.132-2.345h2.626l0.057,1.806c0.358-0.801,0.982-1.936,3.249-1.825
				v2.476c-2.834-0.261-3.004,1.173-3.004,2.346v4.635h-2.796V20.663z"/>
			<path fill="#00728F" d="M357.541,18.131c3.457,0,4.949,2.309,4.949,4.933c0,2.644-1.549,5.026-5.006,5.026
				c-2.72,0-4.874-1.657-4.874-4.952C352.61,20.868,353.782,18.131,357.541,18.131z M357.579,26.173c1.228,0,2.059-0.726,2.059-3.22
				c0-1.248-0.245-2.979-2.097-2.979c-2.04,0-2.059,2.327-2.059,3.183C355.482,25.261,356.2,26.173,357.579,26.173z"/>
			<path fill="#00728F" d="M367.328,18.355v5.603c0,0.819,0,2.066,1.492,2.066c1.795,0,1.795-1.321,1.795-2.922v-4.747h2.871v6.199
				c0.038,2.029,0.057,2.271,0.057,2.513c0.02,0.261,0.038,0.428,0.076,0.689h-2.721l-0.095-1.247
				c-0.283,0.409-1.001,1.489-2.814,1.489c-1.284,0-2.342-0.577-2.871-1.266c-0.623-0.763-0.623-2.066-0.623-2.532v-5.845H367.328z"
				/>
			<path fill="#00728F" d="M378.758,18.355l0.076,1.34c0.868-1.508,2.455-1.526,2.908-1.526c2.475,0,3.968,1.824,3.968,4.691
				c0,2.662-1.398,5.026-4.156,5.026c-1.719,0-2.418-0.894-2.663-1.21v4.691h-2.853V18.355H378.758z M382.876,22.971
				c0-1.117-0.283-3.034-1.927-3.034c-0.906,0-2.191,0.67-2.191,3.202c0,0.559,0.019,2.941,2.078,2.941
				C382.158,26.08,382.876,24.833,382.876,22.971z"/>
			<path fill="#00728F" d="M389.622,25.038c0.037,0.596,0.415,1.284,1.587,1.284c1.001,0,1.473-0.558,1.473-1.117
				c0-0.428-0.227-0.763-1.322-1.061l-1.737-0.465c-0.774-0.224-2.418-0.689-2.418-2.606c0-1.824,1.7-2.941,4.175-2.941
				c1.964,0,3.551,0.894,3.627,2.774h-2.551c-0.075-1.042-0.926-1.117-1.359-1.117c-0.756,0-1.322,0.354-1.322,0.931
				c0,0.633,0.472,0.763,1.303,0.986l1.719,0.465c1.738,0.466,2.551,1.341,2.551,2.625c0,1.62-1.417,3.239-4.383,3.239
				c-1.228,0-2.398-0.261-3.268-1.154c-0.624-0.651-0.681-1.396-0.699-1.843H389.622z"/>
			<path fill="#00728F" d="M396.941,15.122c0.716-0.304,1.398-0.684,2.038-1.139h1.421v7.573h-1.663v-5.891
				c-0.32,0.239-0.959,0.629-1.796,0.966V15.122z"/>
		</g>
	</g>
	<g>
		<g>
			<path fill="#231F20" d="M43.43,35.947h2.001v3.673h3.523v-3.673h2.027v9.19H48.98v-4.029h-3.55v4.029H43.43V35.947z"/>
			<path fill="#231F20" d="M54.254,42.404c0,0.419,0,1.716,1.33,1.716c0.478,0,0.955-0.178,1.136-0.89h1.743
				c-0.026,0.305-0.091,0.852-0.62,1.398c-0.478,0.496-1.329,0.75-2.285,0.75c-0.555,0-1.613-0.102-2.298-0.801
				c-0.594-0.61-0.839-1.475-0.839-2.504c0-1.042,0.259-2.288,1.355-3.038c0.504-0.331,1.123-0.534,1.833-0.534
				c0.93,0,2.04,0.356,2.634,1.551c0.438,0.877,0.413,1.817,0.387,2.351H54.254z M56.68,41.221c0-0.292-0.025-1.436-1.136-1.436
				c-0.839,0-1.188,0.687-1.227,1.436H56.68z"/>
			<path fill="#231F20" d="M63.803,45.136c-0.064-0.394-0.064-0.687-0.064-0.877c-0.723,1.029-1.588,1.029-1.949,1.029
				c-0.942,0-1.368-0.267-1.626-0.508c-0.388-0.381-0.568-0.902-0.568-1.411c0-0.509,0.181-1.449,1.382-1.996
				c0.8-0.356,1.949-0.356,2.581-0.356c0-0.419-0.013-0.623-0.09-0.852c-0.168-0.47-0.672-0.534-0.853-0.534
				c-0.271,0-0.555,0.115-0.723,0.356c-0.142,0.216-0.142,0.419-0.142,0.572h-1.872c0.013-0.343,0.052-1.03,0.735-1.513
				c0.595-0.419,1.355-0.521,1.976-0.521c0.542,0,1.678,0.089,2.323,0.826c0.439,0.521,0.452,1.284,0.452,1.576l0.013,2.58
				c0,0.546,0.039,1.093,0.155,1.627H63.803z M61.454,43.154c0,0.432,0.297,0.915,0.929,0.915c0.349,0,0.633-0.165,0.813-0.369
				c0.336-0.407,0.361-0.902,0.361-1.588C62.332,42.01,61.454,42.391,61.454,43.154z"/>
			<path fill="#231F20" d="M67.064,40.294c0-0.305-0.052-1.233-0.09-1.602h1.794l0.039,1.233c0.245-0.546,0.671-1.322,2.22-1.246
				v1.69c-1.936-0.178-2.052,0.801-2.052,1.602v3.165h-1.911V40.294z"/>
			<path fill="#231F20" d="M75.917,45.048c-0.619,0.165-1.175,0.203-1.484,0.203c-1.924,0-1.924-1.195-1.924-1.729v-3.521h-1.252
				v-1.246h1.252v-1.258l1.898-0.686v1.944h1.549v1.246h-1.549v2.898c0.013,0.585,0.013,0.954,0.864,0.954
				c0.284,0,0.413-0.013,0.646-0.038V45.048z"/>
			<path fill="#231F20" d="M80.74,35.959h1.897v3.635c0.22-0.305,0.697-0.966,1.885-0.966c0.969,0,1.588,0.47,1.897,0.864
				c0.232,0.318,0.427,0.902,0.427,1.741v3.902h-1.898v-3.838c0-0.369,0-1.398-1.071-1.398c-0.542,0-1.227,0.305-1.227,1.309
				l0.014,3.928H80.74V35.959z"/>
			<path fill="#231F20" d="M90.107,42.404c0,0.419,0,1.716,1.33,1.716c0.478,0,0.955-0.178,1.136-0.89h1.743
				c-0.026,0.305-0.091,0.852-0.62,1.398c-0.478,0.496-1.329,0.75-2.285,0.75c-0.555,0-1.613-0.102-2.298-0.801
				c-0.594-0.61-0.839-1.475-0.839-2.504c0-1.042,0.259-2.288,1.355-3.038c0.504-0.331,1.123-0.534,1.833-0.534
				c0.93,0,2.04,0.356,2.634,1.551c0.438,0.877,0.413,1.817,0.387,2.351H90.107z M92.534,41.221c0-0.292-0.025-1.436-1.136-1.436
				c-0.839,0-1.188,0.687-1.227,1.436H92.534z"/>
			<path fill="#231F20" d="M99.656,45.136c-0.065-0.394-0.065-0.687-0.065-0.877c-0.723,1.029-1.587,1.029-1.949,1.029
				c-0.942,0-1.368-0.267-1.626-0.508c-0.388-0.381-0.568-0.902-0.568-1.411c0-0.509,0.181-1.449,1.382-1.996
				c0.8-0.356,1.949-0.356,2.581-0.356c0-0.419-0.013-0.623-0.09-0.852c-0.168-0.47-0.672-0.534-0.853-0.534
				c-0.271,0-0.555,0.115-0.723,0.356c-0.142,0.216-0.142,0.419-0.142,0.572h-1.872c0.013-0.343,0.052-1.03,0.735-1.513
				c0.595-0.419,1.355-0.521,1.976-0.521c0.542,0,1.678,0.089,2.323,0.826c0.439,0.521,0.452,1.284,0.452,1.576l0.013,2.58
				c0,0.546,0.039,1.093,0.155,1.627H99.656z M97.306,43.154c0,0.432,0.297,0.915,0.929,0.915c0.349,0,0.633-0.165,0.813-0.369
				c0.336-0.407,0.361-0.902,0.361-1.588C98.184,42.01,97.306,42.391,97.306,43.154z"/>
			<path fill="#231F20" d="M102.918,35.947h1.911v9.19h-1.911V35.947z"/>
			<path fill="#231F20" d="M110.338,45.048c-0.619,0.165-1.175,0.203-1.484,0.203c-1.924,0-1.924-1.195-1.924-1.729v-3.521h-1.252
				v-1.246h1.252v-1.258l1.898-0.686v1.944h1.549v1.246h-1.549v2.898c0.013,0.585,0.013,0.954,0.864,0.954
				c0.284,0,0.413-0.013,0.646-0.038V45.048z"/>
			<path fill="#231F20" d="M111.575,35.959h1.897v3.635c0.22-0.305,0.697-0.966,1.885-0.966c0.969,0,1.588,0.47,1.897,0.864
				c0.232,0.318,0.427,0.902,0.427,1.741v3.902h-1.898v-3.838c0-0.369,0-1.398-1.071-1.398c-0.542,0-1.227,0.305-1.227,1.309
				l0.014,3.928h-1.924V35.959z"/>
			<path fill="#231F20" d="M120.812,38.718l1.433,4.449l1.459-4.449h1.897l-2.466,6.305l-0.787,2.555h-1.923l0.826-2.415
				l-2.505-6.444H120.812z"/>
			<path fill="#231F20" d="M130.166,35.947h1.911v9.19h-1.911V35.947z"/>
			<path fill="#231F20" d="M133.687,35.959h2.04v1.64h-2.04V35.959z M133.752,38.705h1.911v6.432h-1.911V38.705z"/>
			<path fill="#231F20" d="M137.468,40.052H136.5v-1.335h0.968v-0.877c0-1.131,0.388-2.046,2.246-2.046c0.13,0,0.491,0,1.033,0.063
				v1.309c-0.193-0.025-0.245-0.038-0.4-0.038c-0.98,0-0.98,0.509-0.98,0.839v0.75h1.213v1.335h-1.213v5.084h-1.898V40.052z"/>
			<path fill="#231F20" d="M143.171,42.404c0,0.419,0,1.716,1.33,1.716c0.478,0,0.955-0.178,1.136-0.89h1.743
				c-0.026,0.305-0.091,0.852-0.62,1.398c-0.478,0.496-1.329,0.75-2.285,0.75c-0.555,0-1.613-0.102-2.298-0.801
				c-0.594-0.61-0.839-1.475-0.839-2.504c0-1.042,0.259-2.288,1.355-3.038c0.504-0.331,1.123-0.534,1.833-0.534
				c0.93,0,2.04,0.356,2.634,1.551c0.438,0.877,0.413,1.817,0.387,2.351H143.171z M145.597,41.221c0-0.292-0.025-1.436-1.136-1.436
				c-0.839,0-1.188,0.687-1.227,1.436H145.597z"/>
			<path fill="#231F20" d="M150.139,43.281c0.025,0.407,0.284,0.877,1.084,0.877c0.685,0,1.007-0.381,1.007-0.763
				c0-0.292-0.154-0.521-0.903-0.725l-1.188-0.318c-0.529-0.152-1.652-0.47-1.652-1.779c0-1.246,1.161-2.008,2.853-2.008
				c1.343,0,2.427,0.61,2.479,1.894h-1.742c-0.052-0.711-0.633-0.762-0.93-0.762c-0.517,0-0.903,0.241-0.903,0.635
				c0,0.432,0.322,0.521,0.891,0.674l1.174,0.318c1.188,0.317,1.743,0.915,1.743,1.792c0,1.106-0.968,2.211-2.995,2.211
				c-0.839,0-1.639-0.178-2.233-0.788c-0.426-0.445-0.464-0.954-0.478-1.259H150.139z"/>
			<path fill="#231F20" d="M159.093,45.048c-0.619,0.165-1.175,0.203-1.484,0.203c-1.924,0-1.924-1.195-1.924-1.729v-3.521h-1.252
				v-1.246h1.252v-1.258l1.898-0.686v1.944h1.549v1.246h-1.549v2.898c0.013,0.585,0.013,0.954,0.864,0.954
				c0.284,0,0.413-0.013,0.646-0.038V45.048z"/>
			<path fill="#231F20" d="M161.684,38.718l1.433,4.449l1.459-4.449h1.897l-2.466,6.305l-0.787,2.555h-1.924l0.826-2.415
				l-2.504-6.444H161.684z"/>
			<path fill="#231F20" d="M167.451,35.947h1.911v9.19h-1.911V35.947z"/>
			<path fill="#231F20" d="M172.573,42.404c0,0.419,0,1.716,1.33,1.716c0.478,0,0.955-0.178,1.136-0.89h1.743
				c-0.026,0.305-0.091,0.852-0.62,1.398c-0.478,0.496-1.329,0.75-2.285,0.75c-0.555,0-1.613-0.102-2.298-0.801
				c-0.594-0.61-0.839-1.475-0.839-2.504c0-1.042,0.259-2.288,1.355-3.038c0.504-0.331,1.123-0.534,1.833-0.534
				c0.93,0,2.04,0.356,2.634,1.551c0.438,0.877,0.413,1.817,0.387,2.351H172.573z M175,41.221c0-0.292-0.025-1.436-1.136-1.436
				c-0.839,0-1.188,0.687-1.227,1.436H175z"/>
			<path fill="#231F20" d="M181.849,35.959h1.897v3.635c0.22-0.305,0.697-0.966,1.885-0.966c0.969,0,1.588,0.47,1.897,0.864
				c0.232,0.318,0.427,0.902,0.427,1.741v3.902h-1.898v-3.838c0-0.369,0-1.398-1.071-1.398c-0.542,0-1.227,0.305-1.227,1.309
				l0.014,3.928h-1.924V35.959z"/>
			<path fill="#231F20" d="M193.592,45.136c-0.064-0.394-0.064-0.687-0.064-0.877c-0.723,1.029-1.588,1.029-1.949,1.029
				c-0.942,0-1.368-0.267-1.626-0.508c-0.388-0.381-0.568-0.902-0.568-1.411c0-0.509,0.181-1.449,1.382-1.996
				c0.8-0.356,1.949-0.356,2.581-0.356c0-0.419-0.013-0.623-0.09-0.852c-0.168-0.47-0.672-0.534-0.853-0.534
				c-0.271,0-0.555,0.115-0.723,0.356c-0.142,0.216-0.142,0.419-0.142,0.572h-1.872c0.013-0.343,0.052-1.03,0.735-1.513
				c0.595-0.419,1.355-0.521,1.976-0.521c0.542,0,1.678,0.089,2.323,0.826c0.439,0.521,0.452,1.284,0.452,1.576l0.013,2.58
				c0,0.546,0.039,1.093,0.155,1.627H193.592z M191.243,43.154c0,0.432,0.297,0.915,0.929,0.915c0.349,0,0.633-0.165,0.813-0.369
				c0.336-0.407,0.361-0.902,0.361-1.588C192.121,42.01,191.243,42.391,191.243,43.154z"/>
			<path fill="#231F20" d="M196.789,35.972h1.91v3.521c0.646-0.839,1.511-0.864,1.847-0.864c1.588,0,2.84,1.233,2.84,3.394
				c0,2.402-1.42,3.241-2.724,3.241c-0.336,0-1.368-0.025-1.963-1.029c-0.013,0.203-0.025,0.508-0.064,0.902h-1.846V35.972z
				 M200.029,39.887c-1.407,0-1.407,1.576-1.407,1.983c0,1.462,0.633,2.161,1.498,2.161c1.316,0,1.316-1.614,1.316-1.945
				C201.436,41.577,201.41,39.887,200.029,39.887z"/>
			<path fill="#231F20" d="M204.672,35.959h2.04v1.64h-2.04V35.959z M204.736,38.705h1.911v6.432h-1.911V38.705z"/>
			<path fill="#231F20" d="M212.157,45.048c-0.619,0.165-1.175,0.203-1.484,0.203c-1.924,0-1.924-1.195-1.924-1.729v-3.521h-1.252
				v-1.246h1.252v-1.258l1.898-0.686v1.944h1.549v1.246h-1.549v2.898c0.013,0.585,0.013,0.954,0.864,0.954
				c0.284,0,0.413-0.013,0.646-0.038V45.048z"/>
			<path fill="#231F20" d="M214.672,43.281c0.025,0.407,0.284,0.877,1.084,0.877c0.685,0,1.007-0.381,1.007-0.763
				c0-0.292-0.154-0.521-0.903-0.725l-1.188-0.318c-0.529-0.152-1.652-0.47-1.652-1.779c0-1.246,1.161-2.008,2.853-2.008
				c1.343,0,2.427,0.61,2.479,1.894h-1.742c-0.052-0.711-0.633-0.762-0.93-0.762c-0.517,0-0.903,0.241-0.903,0.635
				c0,0.432,0.322,0.521,0.891,0.674l1.174,0.318c1.188,0.317,1.743,0.915,1.743,1.792c0,1.106-0.968,2.211-2.995,2.211
				c-0.839,0-1.639-0.178-2.233-0.788c-0.426-0.445-0.464-0.954-0.478-1.259H214.672z"/>
			<path fill="#231F20" d="M227.291,45.136c-0.065-0.394-0.065-0.687-0.065-0.877c-0.723,1.029-1.587,1.029-1.949,1.029
				c-0.942,0-1.368-0.267-1.626-0.508c-0.388-0.381-0.568-0.902-0.568-1.411c0-0.509,0.181-1.449,1.382-1.996
				c0.8-0.356,1.949-0.356,2.581-0.356c0-0.419-0.013-0.623-0.09-0.852c-0.168-0.47-0.672-0.534-0.853-0.534
				c-0.271,0-0.555,0.115-0.723,0.356c-0.142,0.216-0.142,0.419-0.142,0.572h-1.872c0.013-0.343,0.052-1.03,0.735-1.513
				c0.595-0.419,1.355-0.521,1.976-0.521c0.542,0,1.678,0.089,2.323,0.826c0.439,0.521,0.452,1.284,0.452,1.576l0.013,2.58
				c0,0.546,0.039,1.093,0.155,1.627H227.291z M224.941,43.154c0,0.432,0.297,0.915,0.929,0.915c0.349,0,0.633-0.165,0.813-0.369
				c0.336-0.407,0.361-0.902,0.361-1.588C225.819,42.01,224.941,42.391,224.941,43.154z"/>
			<path fill="#231F20" d="M230.552,40.294c0-0.305-0.052-1.233-0.09-1.602h1.794l0.039,1.233c0.245-0.546,0.671-1.322,2.22-1.246
				v1.69c-1.936-0.178-2.052,0.801-2.052,1.602v3.165h-1.911V40.294z"/>
			<path fill="#231F20" d="M237.107,42.404c0,0.419,0,1.716,1.33,1.716c0.478,0,0.955-0.178,1.136-0.89h1.743
				c-0.026,0.305-0.091,0.852-0.62,1.398c-0.478,0.496-1.329,0.75-2.285,0.75c-0.555,0-1.613-0.102-2.298-0.801
				c-0.594-0.61-0.839-1.475-0.839-2.504c0-1.042,0.259-2.288,1.355-3.038c0.504-0.331,1.123-0.534,1.833-0.534
				c0.93,0,2.04,0.356,2.634,1.551c0.438,0.877,0.413,1.817,0.387,2.351H237.107z M239.534,41.221c0-0.292-0.025-1.436-1.136-1.436
				c-0.839,0-1.188,0.687-1.227,1.436H239.534z"/>
			<path fill="#231F20" d="M250.165,45.048c-0.619,0.165-1.175,0.203-1.484,0.203c-1.924,0-1.924-1.195-1.924-1.729v-3.521h-1.252
				v-1.246h1.252v-1.258l1.898-0.686v1.944h1.549v1.246h-1.549v2.898c0.013,0.585,0.013,0.954,0.864,0.954
				c0.284,0,0.413-0.013,0.646-0.038V45.048z"/>
			<path fill="#231F20" d="M251.401,35.959h1.897v3.635c0.22-0.305,0.697-0.966,1.885-0.966c0.969,0,1.588,0.47,1.897,0.864
				c0.232,0.318,0.427,0.902,0.427,1.741v3.902h-1.898v-3.838c0-0.369,0-1.398-1.071-1.398c-0.542,0-1.227,0.305-1.227,1.309
				l0.014,3.928h-1.924V35.959z"/>
			<path fill="#231F20" d="M260.768,42.404c0,0.419,0,1.716,1.33,1.716c0.478,0,0.955-0.178,1.136-0.89h1.743
				c-0.026,0.305-0.091,0.852-0.62,1.398c-0.478,0.496-1.329,0.75-2.285,0.75c-0.555,0-1.613-0.102-2.298-0.801
				c-0.594-0.61-0.839-1.475-0.839-2.504c0-1.042,0.259-2.288,1.355-3.038c0.504-0.331,1.123-0.534,1.833-0.534
				c0.93,0,2.04,0.356,2.634,1.551c0.438,0.877,0.413,1.817,0.387,2.351H260.768z M263.195,41.221c0-0.292-0.025-1.436-1.136-1.436
				c-0.839,0-1.188,0.687-1.227,1.436H263.195z"/>
			<path fill="#231F20" d="M270.121,40.052h-0.968v-1.335h0.968v-0.877c0-1.131,0.388-2.046,2.246-2.046c0.13,0,0.491,0,1.033,0.063
				v1.309c-0.193-0.025-0.245-0.038-0.4-0.038c-0.98,0-0.98,0.509-0.98,0.839v0.75h1.213v1.335h-1.213v5.084h-1.898V40.052z"/>
			<path fill="#231F20" d="M277.36,38.565c2.362,0,3.383,1.576,3.383,3.368c0,1.805-1.059,3.432-3.421,3.432
				c-1.859,0-3.331-1.131-3.331-3.381C273.991,40.433,274.792,38.565,277.36,38.565z M277.387,44.056
				c0.839,0,1.407-0.496,1.407-2.199c0-0.852-0.168-2.034-1.434-2.034c-1.394,0-1.407,1.589-1.407,2.173
				C275.953,43.433,276.444,44.056,277.387,44.056z"/>
			<path fill="#231F20" d="M284.043,38.718v3.826c0,0.559,0,1.411,1.02,1.411c1.227,0,1.227-0.902,1.227-1.996v-3.241h1.962v4.233
				c0.026,1.385,0.039,1.55,0.039,1.716c0.013,0.178,0.025,0.292,0.052,0.47h-1.859l-0.064-0.852
				c-0.193,0.28-0.684,1.017-1.923,1.017c-0.878,0-1.602-0.394-1.963-0.864c-0.426-0.521-0.426-1.411-0.426-1.729v-3.991H284.043z"
				/>
			<path fill="#231F20" d="M290.08,39.862c0-0.025,0-0.725-0.039-1.169h1.833l0.052,0.966c0.181-0.292,0.697-1.119,2.117-1.119
				c1.277,0,1.82,0.763,1.988,1.208c0.142,0.394,0.181,0.725,0.181,1.919v3.47h-1.949v-3.991c0-0.267,0-0.496-0.104-0.699
				c-0.143-0.279-0.439-0.546-0.93-0.546c-0.413,0-0.787,0.191-0.994,0.496c-0.116,0.166-0.232,0.483-0.232,0.979v3.762h-1.923
				V39.862z"/>
			<path fill="#231F20" d="M302.248,35.959h1.924v8.135c0,0.381,0.025,0.801,0.052,1.042h-1.937l-0.052-0.928
				c-0.129,0.229-0.258,0.47-0.658,0.725c-0.478,0.305-0.981,0.33-1.266,0.33c-1.742,0-2.775-1.182-2.775-3.19
				c0-2.123,1.175-3.444,2.879-3.444c1.175,0,1.665,0.648,1.833,0.877V35.959z M300.79,44.043c0.555,0,1.007-0.331,1.213-0.724
				c0.284-0.534,0.31-1.195,0.31-1.513c0-1.258-0.555-1.945-1.42-1.945c-1.277,0-1.42,1.513-1.42,2.161
				C299.473,43.09,299.834,44.043,300.79,44.043z"/>
			<path fill="#231F20" d="M309.73,45.136c-0.064-0.394-0.064-0.687-0.064-0.877c-0.723,1.029-1.588,1.029-1.949,1.029
				c-0.942,0-1.368-0.267-1.626-0.508c-0.388-0.381-0.568-0.902-0.568-1.411c0-0.509,0.181-1.449,1.382-1.996
				c0.8-0.356,1.949-0.356,2.581-0.356c0-0.419-0.013-0.623-0.09-0.852c-0.168-0.47-0.672-0.534-0.853-0.534
				c-0.271,0-0.555,0.115-0.723,0.356c-0.142,0.216-0.142,0.419-0.142,0.572h-1.872c0.013-0.343,0.052-1.03,0.735-1.513
				c0.595-0.419,1.355-0.521,1.976-0.521c0.542,0,1.678,0.089,2.323,0.826c0.439,0.521,0.452,1.284,0.452,1.576l0.013,2.58
				c0,0.546,0.039,1.093,0.155,1.627H309.73z M307.382,43.154c0,0.432,0.297,0.915,0.929,0.915c0.349,0,0.633-0.165,0.813-0.369
				c0.336-0.407,0.361-0.902,0.361-1.588C308.26,42.01,307.382,42.391,307.382,43.154z"/>
			<path fill="#231F20" d="M316.826,45.048c-0.619,0.165-1.175,0.203-1.484,0.203c-1.924,0-1.924-1.195-1.924-1.729v-3.521h-1.252
				v-1.246h1.252v-1.258l1.898-0.686v1.944h1.549v1.246h-1.549v2.898c0.013,0.585,0.013,0.954,0.864,0.954
				c0.284,0,0.413-0.013,0.646-0.038V45.048z"/>
			<path fill="#231F20" d="M317.946,35.959h2.04v1.64h-2.04V35.959z M318.011,38.705h1.911v6.432h-1.911V38.705z"/>
			<path fill="#231F20" d="M324.67,38.565c2.362,0,3.383,1.576,3.383,3.368c0,1.805-1.059,3.432-3.421,3.432
				c-1.859,0-3.331-1.131-3.331-3.381C321.301,40.433,322.101,38.565,324.67,38.565z M324.696,44.056
				c0.839,0,1.407-0.496,1.407-2.199c0-0.852-0.168-2.034-1.434-2.034c-1.394,0-1.407,1.589-1.407,2.173
				C323.263,43.433,323.754,44.056,324.696,44.056z"/>
			<path fill="#231F20" d="M329.507,39.862c0-0.025,0-0.725-0.039-1.169h1.833l0.052,0.966c0.181-0.292,0.697-1.119,2.117-1.119
				c1.277,0,1.82,0.763,1.987,1.208c0.143,0.394,0.182,0.725,0.182,1.919v3.47h-1.949v-3.991c0-0.267,0-0.496-0.104-0.699
				c-0.143-0.279-0.439-0.546-0.93-0.546c-0.413,0-0.787,0.191-0.994,0.496c-0.116,0.166-0.232,0.483-0.232,0.979v3.762h-1.923
				V39.862z"/>
			<path fill="#231F20" d="M344.022,38.565c2.362,0,3.383,1.576,3.383,3.368c0,1.805-1.059,3.432-3.421,3.432
				c-1.859,0-3.331-1.131-3.331-3.381C340.653,40.433,341.454,38.565,344.022,38.565z M344.049,44.056
				c0.839,0,1.407-0.496,1.407-2.199c0-0.852-0.168-2.034-1.434-2.034c-1.394,0-1.407,1.589-1.407,2.173
				C342.615,43.433,343.106,44.056,344.049,44.056z"/>
			<path fill="#231F20" d="M348.962,40.052h-0.968v-1.335h0.968v-0.877c0-1.131,0.388-2.046,2.246-2.046c0.13,0,0.491,0,1.033,0.063
				v1.309c-0.193-0.025-0.245-0.038-0.4-0.038c-0.98,0-0.98,0.509-0.98,0.839v0.75h1.213v1.335h-1.213v5.084h-1.898V40.052z"/>
			<path fill="#231F20" d="M361.684,35.947l3.24,9.19h-2.014l-0.671-1.983h-3.692l-0.697,1.983h-1.91l3.369-9.19H361.684z
				 M361.736,41.666l-1.291-3.915l-1.381,3.915H361.736z"/>
			<path fill="#231F20" d="M367.682,42.2c0,0.432-0.025,1.741,1.691,1.741c1.084,0,1.769-0.508,1.769-1.284
				c0-0.813-0.581-0.953-1.769-1.233c-2.221-0.546-3.434-1.195-3.434-2.784c0-1.513,1.097-2.847,3.691-2.847
				c0.969,0,2.117,0.216,2.814,1.081c0.529,0.661,0.529,1.398,0.529,1.703h-1.924c-0.025-0.318-0.129-1.398-1.51-1.398
				c-0.93,0-1.536,0.496-1.536,1.246c0,0.852,0.684,1.004,2.026,1.334c1.613,0.381,3.201,0.813,3.201,2.605
				c0,1.652-1.394,2.987-3.976,2.987c-3.576,0-3.602-2.263-3.614-3.152H367.682z"/>
			<path fill="#231F20" d="M379.941,38.947c-0.039-0.318-0.154-1.614-1.51-1.614c-1.485,0-2.104,1.525-2.104,3.419
				c0,0.547,0,3.152,1.949,3.152c0.839,0,1.64-0.521,1.678-1.741h2.104c-0.039,0.546-0.091,1.398-0.839,2.161
				c-0.826,0.839-1.872,1.03-2.724,1.03c-3.215,0-4.261-2.339-4.261-4.614c0-2.911,1.652-4.843,4.273-4.843
				c2.039,0,3.473,1.22,3.473,3.051H379.941z"/>
			<path fill="#231F20" d="M384.738,35.985l2.439,7.207l2.453-7.207h1.975l-3.434,9.151h-2.182l-3.434-9.151H384.738z"/>
			<path fill="#231F20" d="M392.556,35.972l3.085,0.013c0.517,0,2.092,0.013,3.215,0.826c1.175,0.852,1.588,2.3,1.588,3.609
				c0,2.822-1.536,4.296-3.305,4.614c-0.349,0.063-0.736,0.102-1.679,0.102h-2.904V35.972z M394.583,43.624
				c0.219,0.013,0.555,0.025,0.787,0.025c0.852,0,1.588-0.063,2.169-0.635c0.787-0.775,0.839-2.148,0.839-2.593
				c0-1.296-0.452-2.491-1.704-2.834c-0.413-0.114-0.942-0.178-2.091-0.127V43.624z"/>
			<path fill="#231F20" d="M407.252,38.718l0.051,0.915c0.595-1.029,1.679-1.042,1.988-1.042c1.691,0,2.711,1.246,2.711,3.203
				c0,1.817-0.955,3.432-2.84,3.432c-1.175,0-1.652-0.61-1.82-0.826v3.203h-1.949v-8.885H407.252z M410.065,41.87
				c0-0.763-0.193-2.072-1.316-2.072c-0.62,0-1.497,0.458-1.497,2.186c0,0.381,0.013,2.008,1.42,2.008
				C409.575,43.992,410.065,43.141,410.065,41.87z"/>
			<path fill="#231F20" d="M413.34,40.294c0-0.305-0.052-1.233-0.09-1.602h1.794l0.039,1.233c0.245-0.546,0.671-1.322,2.22-1.246
				v1.69c-1.936-0.178-2.052,0.801-2.052,1.602v3.165h-1.911V40.294z"/>
			<path fill="#231F20" d="M419.894,42.404c0,0.419,0,1.716,1.33,1.716c0.478,0,0.955-0.178,1.136-0.89h1.743
				c-0.026,0.305-0.091,0.852-0.62,1.398c-0.478,0.496-1.329,0.75-2.285,0.75c-0.555,0-1.613-0.102-2.298-0.801
				c-0.594-0.61-0.839-1.475-0.839-2.504c0-1.042,0.259-2.288,1.355-3.038c0.504-0.331,1.123-0.534,1.833-0.534
				c0.93,0,2.04,0.356,2.634,1.551c0.438,0.877,0.413,1.817,0.387,2.351H419.894z M422.321,41.221c0-0.292-0.025-1.436-1.136-1.436
				c-0.839,0-1.188,0.687-1.227,1.436H422.321z"/>
			<path fill="#231F20" d="M426.822,38.718l1.472,4.36l1.497-4.36h1.847l-2.35,6.419h-2.117l-2.388-6.419H426.822z"/>
			<path fill="#231F20" d="M434.24,42.404c0,0.419,0,1.716,1.33,1.716c0.478,0,0.955-0.178,1.136-0.89h1.743
				c-0.026,0.305-0.091,0.852-0.62,1.398c-0.478,0.496-1.329,0.75-2.285,0.75c-0.555,0-1.613-0.102-2.298-0.801
				c-0.594-0.61-0.839-1.475-0.839-2.504c0-1.042,0.259-2.288,1.355-3.038c0.504-0.331,1.123-0.534,1.833-0.534
				c0.93,0,2.04,0.356,2.634,1.551c0.438,0.877,0.413,1.817,0.387,2.351H434.24z M436.667,41.221c0-0.292-0.025-1.436-1.136-1.436
				c-0.839,0-1.188,0.687-1.227,1.436H436.667z"/>
			<path fill="#231F20" d="M439.904,39.862c0-0.025,0-0.725-0.039-1.169h1.833l0.052,0.966c0.181-0.292,0.697-1.119,2.117-1.119
				c1.277,0,1.82,0.763,1.988,1.208c0.142,0.394,0.181,0.725,0.181,1.919v3.47h-1.949v-3.991c0-0.267,0-0.496-0.104-0.699
				c-0.143-0.279-0.439-0.546-0.93-0.546c-0.413,0-0.787,0.191-0.994,0.496c-0.116,0.166-0.232,0.483-0.232,0.979v3.762h-1.923
				V39.862z"/>
			<path fill="#231F20" d="M451.595,45.048c-0.619,0.165-1.175,0.203-1.484,0.203c-1.924,0-1.924-1.195-1.924-1.729v-3.521h-1.252
				v-1.246h1.252v-1.258l1.898-0.686v1.944h1.549v1.246h-1.549v2.898c0.013,0.585,0.013,0.954,0.864,0.954
				c0.284,0,0.413-0.013,0.646-0.038V45.048z"/>
			<path fill="#231F20" d="M452.715,35.959h2.04v1.64h-2.04V35.959z M452.779,38.705h1.911v6.432h-1.911V38.705z"/>
			<path fill="#231F20" d="M459.438,38.565c2.362,0,3.383,1.576,3.383,3.368c0,1.805-1.059,3.432-3.421,3.432
				c-1.859,0-3.331-1.131-3.331-3.381C456.069,40.433,456.87,38.565,459.438,38.565z M459.465,44.056
				c0.839,0,1.407-0.496,1.407-2.199c0-0.852-0.168-2.034-1.434-2.034c-1.394,0-1.407,1.589-1.407,2.173
				C458.031,43.433,458.522,44.056,459.465,44.056z"/>
			<path fill="#231F20" d="M464.275,39.862c0-0.025,0-0.725-0.039-1.169h1.833l0.052,0.966c0.181-0.292,0.697-1.119,2.117-1.119
				c1.277,0,1.82,0.763,1.988,1.208c0.142,0.394,0.181,0.725,0.181,1.919v3.47h-1.949v-3.991c0-0.267,0-0.496-0.104-0.699
				c-0.143-0.279-0.439-0.546-0.93-0.546c-0.413,0-0.787,0.191-0.994,0.496c-0.116,0.166-0.232,0.483-0.232,0.979v3.762h-1.923
				V39.862z"/>
			<path fill="#231F20" d="M472.248,43.446h1.64v1.69h-1.64V43.446z"/>
			<path fill="#231F20" d="M32.94,49.69h2.001v9.215H32.94V49.69z"/>
			<path fill="#231F20" d="M36.618,53.63c0-0.025,0-0.725-0.039-1.169h1.833l0.052,0.966c0.181-0.292,0.697-1.119,2.117-1.119
				c1.277,0,1.82,0.763,1.987,1.208c0.143,0.394,0.182,0.725,0.182,1.919v3.47h-1.949v-3.991c0-0.267,0-0.496-0.104-0.699
				c-0.143-0.279-0.439-0.546-0.93-0.546c-0.413,0-0.787,0.191-0.994,0.496c-0.116,0.166-0.232,0.483-0.232,0.979v3.762h-1.923
				V53.63z"/>
			<path fill="#231F20" d="M47.996,49.728h2.04v1.64h-2.04V49.728z M48.06,52.473h1.911v6.432H48.06V52.473z"/>
			<path fill="#231F20" d="M51.674,53.63c0-0.025,0-0.725-0.039-1.169h1.833l0.052,0.966c0.181-0.292,0.697-1.119,2.117-1.119
				c1.277,0,1.82,0.763,1.988,1.208c0.142,0.394,0.181,0.725,0.181,1.919v3.47h-1.949v-3.991c0-0.267,0-0.496-0.104-0.699
				c-0.143-0.279-0.439-0.546-0.93-0.546c-0.413,0-0.787,0.191-0.994,0.496c-0.116,0.166-0.232,0.483-0.232,0.979v3.762h-1.923
				V53.63z"/>
			<path fill="#231F20" d="M63.842,49.728h1.924v8.135c0,0.381,0.025,0.801,0.052,1.042h-1.937l-0.052-0.928
				c-0.129,0.229-0.258,0.47-0.658,0.725c-0.478,0.305-0.981,0.33-1.266,0.33c-1.742,0-2.775-1.182-2.775-3.19
				c0-2.123,1.175-3.444,2.879-3.444c1.175,0,1.665,0.648,1.833,0.877V49.728z M62.384,57.812c0.555,0,1.007-0.331,1.213-0.724
				c0.284-0.534,0.31-1.195,0.31-1.513c0-1.258-0.555-1.945-1.42-1.945c-1.277,0-1.42,1.513-1.42,2.161
				C61.066,56.859,61.428,57.812,62.384,57.812z"/>
			<path fill="#231F20" d="M67.348,49.728h2.04v1.64h-2.04V49.728z M67.413,52.473h1.911v6.432h-1.911V52.473z"/>
			<path fill="#231F20" d="M72.291,52.486l1.472,4.36l1.497-4.36h1.847l-2.35,6.419h-2.117l-2.388-6.419H72.291z"/>
			<path fill="#231F20" d="M78.108,49.728h2.04v1.64h-2.04V49.728z M78.173,52.473h1.911v6.432h-1.911V52.473z"/>
			<path fill="#231F20" d="M86.071,49.728h1.924v8.135c0,0.381,0.025,0.801,0.052,1.042H86.11l-0.052-0.928
				c-0.129,0.229-0.258,0.47-0.658,0.725c-0.478,0.305-0.981,0.33-1.266,0.33c-1.742,0-2.775-1.182-2.775-3.19
				c0-2.123,1.175-3.444,2.879-3.444c1.175,0,1.665,0.648,1.833,0.877V49.728z M84.613,57.812c0.555,0,1.007-0.331,1.213-0.724
				c0.284-0.534,0.31-1.195,0.31-1.513c0-1.258-0.555-1.945-1.42-1.945c-1.277,0-1.42,1.513-1.42,2.161
				C83.296,56.859,83.657,57.812,84.613,57.812z"/>
			<path fill="#231F20" d="M91.514,52.486v3.826c0,0.559,0,1.411,1.02,1.411c1.227,0,1.227-0.902,1.227-1.996v-3.241h1.962v4.233
				c0.026,1.385,0.039,1.55,0.039,1.716c0.013,0.178,0.025,0.292,0.052,0.47h-1.859l-0.064-0.852
				c-0.193,0.28-0.684,1.017-1.923,1.017c-0.878,0-1.602-0.394-1.963-0.864c-0.426-0.521-0.426-1.411-0.426-1.729v-3.991H91.514z"/>
			<path fill="#231F20" d="M101.437,58.905c-0.065-0.394-0.065-0.687-0.065-0.877c-0.723,1.029-1.587,1.029-1.949,1.029
				c-0.942,0-1.368-0.267-1.626-0.508c-0.388-0.381-0.568-0.902-0.568-1.411c0-0.509,0.181-1.449,1.382-1.996
				c0.8-0.356,1.949-0.356,2.581-0.356c0-0.419-0.013-0.623-0.09-0.852c-0.168-0.47-0.672-0.534-0.853-0.534
				c-0.271,0-0.555,0.115-0.723,0.356c-0.142,0.216-0.142,0.419-0.142,0.572h-1.872c0.013-0.343,0.052-1.03,0.735-1.513
				c0.595-0.419,1.355-0.521,1.976-0.521c0.542,0,1.678,0.089,2.323,0.826c0.439,0.521,0.452,1.284,0.452,1.576l0.013,2.58
				c0,0.546,0.039,1.093,0.155,1.627H101.437z M99.088,56.922c0,0.432,0.297,0.915,0.929,0.915c0.349,0,0.633-0.165,0.813-0.369
				c0.336-0.407,0.361-0.902,0.361-1.588C99.966,55.778,99.088,56.159,99.088,56.922z"/>
			<path fill="#231F20" d="M104.698,49.715h1.911v9.19h-1.911V49.715z"/>
			<path fill="#231F20" d="M109.615,57.049c0.025,0.407,0.284,0.877,1.084,0.877c0.685,0,1.007-0.381,1.007-0.763
				c0-0.292-0.154-0.521-0.903-0.725l-1.188-0.318c-0.529-0.152-1.652-0.47-1.652-1.779c0-1.246,1.161-2.008,2.853-2.008
				c1.343,0,2.427,0.61,2.479,1.894h-1.742c-0.052-0.711-0.633-0.762-0.93-0.762c-0.517,0-0.903,0.241-0.903,0.635
				c0,0.432,0.322,0.521,0.891,0.674l1.174,0.318c1.188,0.317,1.743,0.915,1.743,1.792c0,1.106-0.968,2.211-2.995,2.211
				c-0.839,0-1.639-0.178-2.233-0.788c-0.426-0.445-0.464-0.954-0.478-1.259H109.615z"/>
			<path fill="#231F20" d="M118.348,53.63c0-0.025,0-0.725-0.039-1.169h1.833l0.052,0.966c0.181-0.292,0.697-1.119,2.117-1.119
				c1.277,0,1.82,0.763,1.987,1.208c0.143,0.394,0.182,0.725,0.182,1.919v3.47h-1.949v-3.991c0-0.267,0-0.496-0.104-0.699
				c-0.143-0.279-0.439-0.546-0.93-0.546c-0.413,0-0.787,0.191-0.994,0.496c-0.116,0.166-0.232,0.483-0.232,0.979v3.762h-1.923
				V53.63z"/>
			<path fill="#231F20" d="M129.277,52.334c2.362,0,3.383,1.576,3.383,3.368c0,1.805-1.059,3.432-3.421,3.432
				c-1.859,0-3.331-1.131-3.331-3.381C125.908,54.202,126.709,52.334,129.277,52.334z M129.304,57.824
				c0.839,0,1.407-0.496,1.407-2.199c0-0.852-0.168-2.034-1.434-2.034c-1.394,0-1.407,1.589-1.407,2.173
				C127.87,57.202,128.361,57.824,129.304,57.824z"/>
			<path fill="#231F20" d="M137.922,58.816c-0.619,0.165-1.175,0.203-1.484,0.203c-1.924,0-1.924-1.195-1.924-1.729V53.77h-1.252
				v-1.246h1.252v-1.258l1.898-0.686v1.944h1.549v1.246h-1.549v2.898c0.013,0.585,0.013,0.954,0.864,0.954
				c0.284,0,0.413-0.013,0.646-0.038V58.816z"/>
			<path fill="#231F20" d="M142.693,54.062c0-0.305-0.052-1.233-0.09-1.602h1.794l0.039,1.233c0.245-0.546,0.671-1.322,2.22-1.246
				v1.69c-1.936-0.178-2.052,0.801-2.052,1.602v3.165h-1.911V54.062z"/>
			<path fill="#231F20" d="M149.248,56.172c0,0.419,0,1.716,1.33,1.716c0.478,0,0.955-0.178,1.136-0.89h1.743
				c-0.026,0.305-0.091,0.852-0.62,1.398c-0.478,0.496-1.329,0.75-2.285,0.75c-0.555,0-1.613-0.102-2.298-0.801
				c-0.594-0.61-0.839-1.475-0.839-2.504c0-1.042,0.259-2.288,1.355-3.038c0.504-0.331,1.123-0.534,1.833-0.534
				c0.93,0,2.04,0.356,2.634,1.551c0.438,0.877,0.413,1.817,0.387,2.351H149.248z M151.675,54.99c0-0.292-0.025-1.436-1.136-1.436
				c-0.839,0-1.188,0.687-1.227,1.436H151.675z"/>
			<path fill="#231F20" d="M158.332,54.761c-0.026-0.229-0.104-1.182-0.84-1.182c-0.903,0-1.007,1.347-1.007,2.046
				c0,0.356,0.039,1.5,0.478,1.97c0.182,0.19,0.375,0.216,0.517,0.216c0.207,0,0.801-0.089,0.878-1.233h1.885
				c-0.025,0.496-0.091,1.271-0.839,1.894c-0.465,0.394-1.046,0.597-1.859,0.597c-0.864,0-1.626-0.19-2.22-0.852
				c-0.568-0.648-0.826-1.5-0.826-2.529c0-2.923,2.182-3.33,3.046-3.33c1.214,0,2.646,0.661,2.659,2.402H158.332z"/>
			<path fill="#231F20" d="M162.872,56.172c0,0.419,0,1.716,1.33,1.716c0.478,0,0.955-0.178,1.136-0.89h1.743
				c-0.026,0.305-0.091,0.852-0.62,1.398c-0.478,0.496-1.329,0.75-2.285,0.75c-0.555,0-1.613-0.102-2.298-0.801
				c-0.594-0.61-0.839-1.475-0.839-2.504c0-1.042,0.259-2.288,1.355-3.038c0.504-0.331,1.123-0.534,1.833-0.534
				c0.93,0,2.04,0.356,2.634,1.551c0.438,0.877,0.413,1.817,0.387,2.351H162.872z M165.299,54.99c0-0.292-0.025-1.436-1.136-1.436
				c-0.839,0-1.188,0.687-1.227,1.436H165.299z"/>
			<path fill="#231F20" d="M168.444,49.728h2.04v1.64h-2.04V49.728z M168.509,52.473h1.911v6.432h-1.911V52.473z"/>
			<path fill="#231F20" d="M173.387,52.486l1.472,4.36l1.497-4.36h1.847l-2.35,6.419h-2.117l-2.388-6.419H173.387z"/>
			<path fill="#231F20" d="M179.204,49.728h2.04v1.64h-2.04V49.728z M179.268,52.473h1.911v6.432h-1.911V52.473z"/>
			<path fill="#231F20" d="M182.882,53.63c0-0.025,0-0.725-0.039-1.169h1.833l0.052,0.966c0.181-0.292,0.697-1.119,2.117-1.119
				c1.277,0,1.82,0.763,1.987,1.208c0.143,0.394,0.182,0.725,0.182,1.919v3.47h-1.949v-3.991c0-0.267,0-0.496-0.104-0.699
				c-0.143-0.279-0.439-0.546-0.93-0.546c-0.413,0-0.787,0.191-0.994,0.496c-0.116,0.166-0.232,0.483-0.232,0.979v3.762h-1.923
				V53.63z"/>
			<path fill="#231F20" d="M196.922,52.511c-0.052,0.509-0.091,0.941-0.091,1.589v4.741c0,2.364-2,2.593-3.253,2.593
				c-0.929,0-2.749-0.114-2.865-2.059h1.833c0.025,0.191,0.116,0.89,1.136,0.89c0.568,0,1.059-0.267,1.188-0.839
				c0.078-0.318,0.078-0.546,0.091-1.525c-0.607,0.788-1.291,0.877-1.756,0.877c-1.872,0-2.75-1.602-2.75-3.152
				c0-1.627,0.917-3.178,2.789-3.178c1.188,0,1.626,0.636,1.819,0.915l0.065-0.852H196.922z M193.642,57.494
				c1.343,0,1.343-1.551,1.343-1.831c0-0.725-0.142-1.958-1.304-1.958c-0.723,0-1.316,0.547-1.316,1.919
				C192.365,55.944,192.365,57.494,193.642,57.494z"/>
			<path fill="#231F20" d="M205.655,54.761c-0.026-0.229-0.104-1.182-0.84-1.182c-0.903,0-1.007,1.347-1.007,2.046
				c0,0.356,0.039,1.5,0.478,1.97c0.181,0.19,0.375,0.216,0.517,0.216c0.207,0,0.801-0.089,0.878-1.233h1.885
				c-0.025,0.496-0.091,1.271-0.839,1.894c-0.465,0.394-1.046,0.597-1.859,0.597c-0.864,0-1.626-0.19-2.22-0.852
				c-0.568-0.648-0.826-1.5-0.826-2.529c0-2.923,2.182-3.33,3.046-3.33c1.214,0,2.646,0.661,2.659,2.402H205.655z"/>
			<path fill="#231F20" d="M208.71,49.728h1.897v3.635c0.22-0.305,0.697-0.966,1.885-0.966c0.969,0,1.588,0.47,1.897,0.864
				c0.232,0.318,0.427,0.902,0.427,1.741v3.902h-1.898v-3.838c0-0.369,0-1.398-1.071-1.398c-0.542,0-1.227,0.305-1.227,1.309
				l0.014,3.928h-1.924V49.728z"/>
			<path fill="#231F20" d="M219.613,52.334c2.362,0,3.383,1.576,3.383,3.368c0,1.805-1.059,3.432-3.421,3.432
				c-1.859,0-3.331-1.131-3.331-3.381C216.244,54.202,217.045,52.334,219.613,52.334z M219.639,57.824
				c0.839,0,1.407-0.496,1.407-2.199c0-0.852-0.168-2.034-1.434-2.034c-1.394,0-1.407,1.589-1.407,2.173
				C218.206,57.202,218.697,57.824,219.639,57.824z"/>
			<path fill="#231F20" d="M224.424,49.715h1.911v9.19h-1.911V49.715z"/>
			<path fill="#231F20" d="M229.547,56.172c0,0.419,0,1.716,1.33,1.716c0.478,0,0.955-0.178,1.136-0.89h1.743
				c-0.026,0.305-0.091,0.852-0.62,1.398c-0.478,0.496-1.329,0.75-2.285,0.75c-0.555,0-1.613-0.102-2.298-0.801
				c-0.594-0.61-0.839-1.475-0.839-2.504c0-1.042,0.259-2.288,1.355-3.038c0.504-0.331,1.123-0.534,1.833-0.534
				c0.93,0,2.04,0.356,2.634,1.551c0.438,0.877,0.413,1.817,0.387,2.351H229.547z M231.973,54.99c0-0.292-0.025-1.436-1.136-1.436
				c-0.839,0-1.188,0.687-1.227,1.436H231.973z"/>
			<path fill="#231F20" d="M236.514,57.049c0.025,0.407,0.284,0.877,1.084,0.877c0.685,0,1.007-0.381,1.007-0.763
				c0-0.292-0.154-0.521-0.903-0.725l-1.188-0.318c-0.529-0.152-1.652-0.47-1.652-1.779c0-1.246,1.161-2.008,2.853-2.008
				c1.343,0,2.427,0.61,2.479,1.894h-1.742c-0.052-0.711-0.633-0.762-0.93-0.762c-0.517,0-0.903,0.241-0.903,0.635
				c0,0.432,0.322,0.521,0.891,0.674l1.174,0.318c1.188,0.317,1.743,0.915,1.743,1.792c0,1.106-0.968,2.211-2.995,2.211
				c-0.839,0-1.639-0.178-2.233-0.788c-0.426-0.445-0.464-0.954-0.478-1.259H236.514z"/>
			<path fill="#231F20" d="M245.469,58.816c-0.619,0.165-1.175,0.203-1.484,0.203c-1.924,0-1.924-1.195-1.924-1.729V53.77h-1.252
				v-1.246h1.252v-1.258l1.898-0.686v1.944h1.549v1.246h-1.549v2.898c0.013,0.585,0.013,0.954,0.864,0.954
				c0.284,0,0.413-0.013,0.646-0.038V58.816z"/>
			<path fill="#231F20" d="M248.189,56.172c0,0.419,0,1.716,1.33,1.716c0.478,0,0.955-0.178,1.136-0.89h1.743
				c-0.026,0.305-0.091,0.852-0.62,1.398c-0.478,0.496-1.329,0.75-2.285,0.75c-0.555,0-1.613-0.102-2.298-0.801
				c-0.594-0.61-0.839-1.475-0.839-2.504c0-1.042,0.259-2.288,1.355-3.038c0.504-0.331,1.123-0.534,1.833-0.534
				c0.93,0,2.04,0.356,2.634,1.551c0.438,0.877,0.413,1.817,0.387,2.351H248.189z M250.616,54.99c0-0.292-0.025-1.436-1.136-1.436
				c-0.839,0-1.188,0.687-1.227,1.436H250.616z"/>
			<path fill="#231F20" d="M253.826,54.062c0-0.305-0.052-1.233-0.09-1.602h1.794l0.039,1.233c0.245-0.546,0.671-1.322,2.22-1.246
				v1.69c-1.936-0.178-2.052,0.801-2.052,1.602v3.165h-1.911V54.062z"/>
			<path fill="#231F20" d="M261.918,52.334c2.362,0,3.383,1.576,3.383,3.368c0,1.805-1.059,3.432-3.421,3.432
				c-1.859,0-3.331-1.131-3.331-3.381C258.549,54.202,259.349,52.334,261.918,52.334z M261.944,57.824
				c0.839,0,1.407-0.496,1.407-2.199c0-0.852-0.168-2.034-1.434-2.034c-1.394,0-1.407,1.589-1.407,2.173
				C260.511,57.202,261.002,57.824,261.944,57.824z"/>
			<path fill="#231F20" d="M266.727,49.715h1.911v9.19h-1.911V49.715z"/>
			<path fill="#231F20" d="M270.044,54.825h3.201v1.437h-3.201V54.825z"/>
			<path fill="#231F20" d="M274.61,49.715h1.911v9.19h-1.911V49.715z"/>
			<path fill="#231F20" d="M281.269,52.334c2.362,0,3.383,1.576,3.383,3.368c0,1.805-1.059,3.432-3.421,3.432
				c-1.859,0-3.331-1.131-3.331-3.381C277.9,54.202,278.701,52.334,281.269,52.334z M281.296,57.824
				c0.839,0,1.407-0.496,1.407-2.199c0-0.852-0.168-2.034-1.434-2.034c-1.394,0-1.407,1.589-1.407,2.173
				C279.862,57.202,280.353,57.824,281.296,57.824z"/>
			<path fill="#231F20" d="M287.332,52.486l1.201,4.843l1.381-4.843h2.104l1.368,4.843l1.278-4.843h1.897l-2.233,6.419h-2.078
				l-1.343-4.754l-1.368,4.754h-2.104l-2.13-6.419H287.332z"/>
			<path fill="#231F20" d="M299.086,56.172c0,0.419,0,1.716,1.33,1.716c0.478,0,0.955-0.178,1.136-0.89h1.743
				c-0.026,0.305-0.091,0.852-0.62,1.398c-0.478,0.496-1.329,0.75-2.285,0.75c-0.555,0-1.613-0.102-2.298-0.801
				c-0.594-0.61-0.839-1.475-0.839-2.504c0-1.042,0.259-2.288,1.355-3.038c0.504-0.331,1.123-0.534,1.833-0.534
				c0.93,0,2.04,0.356,2.634,1.551c0.438,0.877,0.413,1.817,0.387,2.351H299.086z M301.513,54.99c0-0.292-0.025-1.436-1.136-1.436
				c-0.839,0-1.188,0.687-1.227,1.436H301.513z"/>
			<path fill="#231F20" d="M304.723,54.062c0-0.305-0.052-1.233-0.09-1.602h1.794l0.039,1.233c0.245-0.546,0.671-1.322,2.22-1.246
				v1.69c-1.936-0.178-2.052,0.801-2.052,1.602v3.165h-1.911V54.062z"/>
			<path fill="#231F20" d="M309.677,49.728h2.04v1.64h-2.04V49.728z M309.741,52.473h1.911v6.432h-1.911V52.473z"/>
			<path fill="#231F20" d="M313.354,53.63c0-0.025,0-0.725-0.039-1.169h1.833l0.052,0.966c0.181-0.292,0.697-1.119,2.117-1.119
				c1.277,0,1.82,0.763,1.987,1.208c0.143,0.394,0.182,0.725,0.182,1.919v3.47h-1.949v-3.991c0-0.267,0-0.496-0.104-0.699
				c-0.143-0.279-0.439-0.546-0.93-0.546c-0.413,0-0.787,0.191-0.994,0.496c-0.116,0.166-0.232,0.483-0.232,0.979v3.762h-1.923
				V53.63z"/>
			<path fill="#231F20" d="M327.394,52.511c-0.052,0.509-0.091,0.941-0.091,1.589v4.741c0,2.364-2,2.593-3.253,2.593
				c-0.929,0-2.749-0.114-2.865-2.059h1.833c0.025,0.191,0.116,0.89,1.136,0.89c0.568,0,1.059-0.267,1.188-0.839
				c0.078-0.318,0.078-0.546,0.091-1.525c-0.607,0.788-1.291,0.877-1.756,0.877c-1.872,0-2.75-1.602-2.75-3.152
				c0-1.627,0.917-3.178,2.789-3.178c1.188,0,1.626,0.636,1.819,0.915l0.065-0.852H327.394z M324.115,57.494
				c1.343,0,1.343-1.551,1.343-1.831c0-0.725-0.142-1.958-1.304-1.958c-0.723,0-1.316,0.547-1.316,1.919
				C322.838,55.944,322.838,57.494,324.115,57.494z"/>
			<path fill="#231F20" d="M336.992,49.728h1.924v8.135c0,0.381,0.025,0.801,0.052,1.042h-1.937l-0.052-0.928
				c-0.129,0.229-0.258,0.47-0.658,0.725c-0.478,0.305-0.981,0.33-1.266,0.33c-1.742,0-2.775-1.182-2.775-3.19
				c0-2.123,1.175-3.444,2.879-3.444c1.175,0,1.665,0.648,1.833,0.877V49.728z M335.534,57.812c0.555,0,1.007-0.331,1.213-0.724
				c0.284-0.534,0.31-1.195,0.31-1.513c0-1.258-0.555-1.945-1.42-1.945c-1.277,0-1.42,1.513-1.42,2.161
				C334.217,56.859,334.578,57.812,335.534,57.812z"/>
			<path fill="#231F20" d="M340.563,54.062c0-0.305-0.052-1.233-0.09-1.602h1.794l0.039,1.233c0.245-0.546,0.671-1.322,2.22-1.246
				v1.69c-1.936-0.178-2.052,0.801-2.052,1.602v3.165h-1.911V54.062z"/>
			<path fill="#231F20" d="M347.454,52.486v3.826c0,0.559,0,1.411,1.02,1.411c1.227,0,1.227-0.902,1.227-1.996v-3.241h1.962v4.233
				c0.026,1.385,0.039,1.55,0.039,1.716c0.013,0.178,0.025,0.292,0.052,0.47h-1.859l-0.064-0.852
				c-0.193,0.28-0.684,1.017-1.923,1.017c-0.878,0-1.602-0.394-1.963-0.864c-0.426-0.521-0.426-1.411-0.426-1.729v-3.991H347.454z"
				/>
			<path fill="#231F20" d="M359.648,52.511c-0.052,0.509-0.091,0.941-0.091,1.589v4.741c0,2.364-2,2.593-3.253,2.593
				c-0.929,0-2.749-0.114-2.865-2.059h1.833c0.025,0.191,0.116,0.89,1.136,0.89c0.568,0,1.059-0.267,1.188-0.839
				c0.078-0.318,0.078-0.546,0.091-1.525c-0.607,0.788-1.291,0.877-1.756,0.877c-1.872,0-2.75-1.602-2.75-3.152
				c0-1.627,0.917-3.178,2.789-3.178c1.188,0,1.626,0.636,1.819,0.915l0.065-0.852H359.648z M356.369,57.494
				c1.343,0,1.343-1.551,1.343-1.831c0-0.725-0.142-1.958-1.304-1.958c-0.723,0-1.316,0.547-1.316,1.919
				C355.092,55.944,355.092,57.494,356.369,57.494z"/>
			<path fill="#231F20" d="M368.767,58.816c-0.619,0.165-1.175,0.203-1.484,0.203c-1.924,0-1.924-1.195-1.924-1.729V53.77h-1.252
				v-1.246h1.252v-1.258l1.898-0.686v1.944h1.549v1.246h-1.549v2.898c0.013,0.585,0.013,0.954,0.864,0.954
				c0.284,0,0.413-0.013,0.646-0.038V58.816z"/>
			<path fill="#231F20" d="M370.004,49.728h1.897v3.635c0.22-0.305,0.697-0.966,1.885-0.966c0.969,0,1.588,0.47,1.897,0.864
				c0.232,0.318,0.427,0.902,0.427,1.741v3.902h-1.898v-3.838c0-0.369,0-1.398-1.071-1.398c-0.542,0-1.227,0.305-1.227,1.309
				l0.014,3.928h-1.924V49.728z"/>
			<path fill="#231F20" d="M379.371,56.172c0,0.419,0,1.716,1.33,1.716c0.478,0,0.955-0.178,1.136-0.89h1.743
				c-0.026,0.305-0.091,0.852-0.62,1.398c-0.478,0.496-1.329,0.75-2.285,0.75c-0.555,0-1.613-0.102-2.298-0.801
				c-0.594-0.61-0.839-1.475-0.839-2.504c0-1.042,0.259-2.288,1.355-3.038c0.504-0.331,1.123-0.534,1.833-0.534
				c0.93,0,2.04,0.356,2.634,1.551c0.438,0.877,0.413,1.817,0.387,2.351H379.371z M381.798,54.99c0-0.292-0.025-1.436-1.136-1.436
				c-0.839,0-1.188,0.687-1.227,1.436H381.798z"/>
			<path fill="#231F20" d="M385.009,54.062c0-0.305-0.052-1.233-0.09-1.602h1.794l0.039,1.233c0.245-0.546,0.671-1.322,2.22-1.246
				v1.69c-1.936-0.178-2.052,0.801-2.052,1.602v3.165h-1.911V54.062z"/>
			<path fill="#231F20" d="M393.939,58.905c-0.065-0.394-0.065-0.687-0.065-0.877c-0.723,1.029-1.587,1.029-1.949,1.029
				c-0.942,0-1.368-0.267-1.626-0.508c-0.388-0.381-0.568-0.902-0.568-1.411c0-0.509,0.181-1.449,1.382-1.996
				c0.8-0.356,1.949-0.356,2.581-0.356c0-0.419-0.013-0.623-0.09-0.852c-0.168-0.47-0.672-0.534-0.853-0.534
				c-0.271,0-0.555,0.115-0.723,0.356c-0.142,0.216-0.142,0.419-0.142,0.572h-1.872c0.013-0.343,0.052-1.03,0.735-1.513
				c0.595-0.419,1.355-0.521,1.976-0.521c0.542,0,1.678,0.089,2.323,0.826c0.439,0.521,0.452,1.284,0.452,1.576l0.013,2.58
				c0,0.546,0.039,1.093,0.155,1.627H393.939z M391.59,56.922c0,0.432,0.297,0.915,0.929,0.915c0.349,0,0.633-0.165,0.813-0.369
				c0.336-0.407,0.361-0.902,0.361-1.588C392.468,55.778,391.59,56.159,391.59,56.922z"/>
			<path fill="#231F20" d="M398.995,52.486l0.052,0.915c0.594-1.029,1.678-1.042,1.987-1.042c1.691,0,2.711,1.246,2.711,3.203
				c0,1.817-0.955,3.432-2.84,3.432c-1.175,0-1.652-0.61-1.82-0.826v3.203h-1.949v-8.885H398.995z M401.808,55.638
				c0-0.763-0.193-2.072-1.316-2.072c-0.619,0-1.497,0.458-1.497,2.186c0,0.381,0.013,2.008,1.42,2.008
				C401.318,57.761,401.808,56.909,401.808,55.638z"/>
			<path fill="#231F20" d="M406.49,52.486l1.433,4.449l1.459-4.449h1.897l-2.466,6.305l-0.787,2.555h-1.923l0.826-2.415
				l-2.505-6.444H406.49z"/>
			<path fill="#231F20" d="M414.645,57.215l-1.536,3.127h-1.33l0.955-3.127H414.645z"/>
			<path fill="#231F20" d="M419.43,54.062c0-0.305-0.052-1.233-0.09-1.602h1.794l0.039,1.233c0.245-0.546,0.671-1.322,2.22-1.246
				v1.69c-1.936-0.178-2.052,0.801-2.052,1.602v3.165h-1.911V54.062z"/>
			<path fill="#231F20" d="M425.984,56.172c0,0.419,0,1.716,1.33,1.716c0.478,0,0.955-0.178,1.136-0.89h1.743
				c-0.026,0.305-0.091,0.852-0.62,1.398c-0.478,0.496-1.329,0.75-2.285,0.75c-0.555,0-1.613-0.102-2.298-0.801
				c-0.594-0.61-0.839-1.475-0.839-2.504c0-1.042,0.259-2.288,1.355-3.038c0.504-0.331,1.123-0.534,1.833-0.534
				c0.93,0,2.04,0.356,2.634,1.551c0.438,0.877,0.413,1.817,0.387,2.351H425.984z M428.411,54.99c0-0.292-0.025-1.436-1.136-1.436
				c-0.839,0-1.188,0.687-1.227,1.436H428.411z"/>
			<path fill="#231F20" d="M435.068,54.761c-0.026-0.229-0.104-1.182-0.84-1.182c-0.903,0-1.007,1.347-1.007,2.046
				c0,0.356,0.039,1.5,0.478,1.97c0.182,0.19,0.375,0.216,0.517,0.216c0.207,0,0.801-0.089,0.878-1.233h1.885
				c-0.025,0.496-0.091,1.271-0.839,1.894c-0.465,0.394-1.046,0.597-1.859,0.597c-0.864,0-1.626-0.19-2.22-0.852
				c-0.568-0.648-0.826-1.5-0.826-2.529c0-2.923,2.182-3.33,3.046-3.33c1.214,0,2.646,0.661,2.659,2.402H435.068z"/>
			<path fill="#231F20" d="M441.984,58.905c-0.065-0.394-0.065-0.687-0.065-0.877c-0.723,1.029-1.587,1.029-1.949,1.029
				c-0.942,0-1.368-0.267-1.626-0.508c-0.388-0.381-0.568-0.902-0.568-1.411c0-0.509,0.181-1.449,1.382-1.996
				c0.8-0.356,1.949-0.356,2.581-0.356c0-0.419-0.013-0.623-0.09-0.852c-0.168-0.47-0.672-0.534-0.853-0.534
				c-0.271,0-0.555,0.115-0.723,0.356c-0.142,0.216-0.142,0.419-0.142,0.572h-1.872c0.013-0.343,0.052-1.03,0.735-1.513
				c0.595-0.419,1.355-0.521,1.976-0.521c0.542,0,1.678,0.089,2.323,0.826c0.439,0.521,0.452,1.284,0.452,1.576l0.013,2.58
				c0,0.546,0.039,1.093,0.155,1.627H441.984z M439.635,56.922c0,0.432,0.297,0.915,0.929,0.915c0.349,0,0.633-0.165,0.813-0.369
				c0.336-0.407,0.361-0.902,0.361-1.588C440.513,55.778,439.635,56.159,439.635,56.922z"/>
			<path fill="#231F20" d="M445.245,49.715h1.911v9.19h-1.911V49.715z"/>
			<path fill="#231F20" d="M452.279,54.761c-0.026-0.229-0.104-1.182-0.84-1.182c-0.903,0-1.007,1.347-1.007,2.046
				c0,0.356,0.039,1.5,0.478,1.97c0.182,0.19,0.375,0.216,0.517,0.216c0.207,0,0.801-0.089,0.878-1.233h1.885
				c-0.025,0.496-0.091,1.271-0.839,1.894c-0.465,0.394-1.046,0.597-1.859,0.597c-0.864,0-1.626-0.19-2.22-0.852
				c-0.568-0.648-0.826-1.5-0.826-2.529c0-2.923,2.182-3.33,3.046-3.33c1.214,0,2.646,0.661,2.659,2.402H452.279z"/>
			<path fill="#231F20" d="M457.155,52.486v3.826c0,0.559,0,1.411,1.02,1.411c1.227,0,1.227-0.902,1.227-1.996v-3.241h1.962v4.233
				c0.026,1.385,0.039,1.55,0.039,1.716c0.013,0.178,0.025,0.292,0.052,0.47h-1.859l-0.064-0.852
				c-0.193,0.28-0.684,1.017-1.923,1.017c-0.878,0-1.602-0.394-1.963-0.864c-0.426-0.521-0.426-1.411-0.426-1.729v-3.991H457.155z"
				/>
			<path fill="#231F20" d="M463.166,49.715h1.911v9.19h-1.911V49.715z"/>
			<path fill="#231F20" d="M470.664,58.905c-0.065-0.394-0.065-0.687-0.065-0.877c-0.723,1.029-1.587,1.029-1.949,1.029
				c-0.942,0-1.368-0.267-1.626-0.508c-0.388-0.381-0.568-0.902-0.568-1.411c0-0.509,0.181-1.449,1.382-1.996
				c0.8-0.356,1.949-0.356,2.581-0.356c0-0.419-0.013-0.623-0.09-0.852c-0.168-0.47-0.672-0.534-0.853-0.534
				c-0.271,0-0.555,0.115-0.723,0.356c-0.142,0.216-0.142,0.419-0.142,0.572h-1.872c0.013-0.343,0.052-1.03,0.735-1.513
				c0.595-0.419,1.355-0.521,1.976-0.521c0.542,0,1.678,0.089,2.323,0.826c0.439,0.521,0.452,1.284,0.452,1.576l0.013,2.58
				c0,0.546,0.039,1.093,0.155,1.627H470.664z M468.314,56.922c0,0.432,0.297,0.915,0.929,0.915c0.349,0,0.633-0.165,0.813-0.369
				c0.336-0.407,0.361-0.902,0.361-1.588C469.192,55.778,468.314,56.159,468.314,56.922z"/>
			<path fill="#231F20" d="M477.76,58.816c-0.619,0.165-1.175,0.203-1.484,0.203c-1.924,0-1.924-1.195-1.924-1.729V53.77h-1.252
				v-1.246h1.252v-1.258l1.898-0.686v1.944h1.549v1.246h-1.549v2.898c0.013,0.585,0.013,0.954,0.864,0.954
				c0.284,0,0.413-0.013,0.646-0.038V58.816z"/>
			<path fill="#231F20" d="M480.48,56.172c0,0.419,0,1.716,1.33,1.716c0.478,0,0.955-0.178,1.136-0.89h1.743
				c-0.026,0.305-0.091,0.852-0.62,1.398c-0.478,0.496-1.329,0.75-2.285,0.75c-0.555,0-1.613-0.102-2.298-0.801
				c-0.594-0.61-0.839-1.475-0.839-2.504c0-1.042,0.259-2.288,1.355-3.038c0.504-0.331,1.123-0.534,1.833-0.534
				c0.93,0,2.04,0.356,2.634,1.551c0.438,0.877,0.413,1.817,0.387,2.351H480.48z M482.907,54.99c0-0.292-0.025-1.436-1.136-1.436
				c-0.839,0-1.188,0.687-1.227,1.436H482.907z"/>
			<path fill="#231F20" d="M39.533,70.972c0,0.419,0,1.716,1.33,1.716c0.478,0,0.955-0.178,1.136-0.89h1.743
				c-0.026,0.305-0.091,0.852-0.62,1.398c-0.478,0.496-1.329,0.75-2.285,0.75c-0.555,0-1.613-0.102-2.298-0.801
				c-0.594-0.61-0.839-1.475-0.839-2.504c0-1.042,0.259-2.288,1.355-3.038c0.504-0.331,1.123-0.534,1.833-0.534
				c0.93,0,2.04,0.356,2.634,1.55c0.438,0.877,0.413,1.818,0.387,2.352H39.533z M41.96,69.79c0-0.292-0.025-1.436-1.136-1.436
				c-0.839,0-1.188,0.687-1.227,1.436H41.96z"/>
			<path fill="#231F20" d="M46.5,71.849c0.025,0.407,0.284,0.877,1.084,0.877c0.685,0,1.007-0.381,1.007-0.763
				c0-0.292-0.154-0.521-0.903-0.725L46.5,70.922c-0.529-0.152-1.652-0.47-1.652-1.779c0-1.246,1.161-2.008,2.853-2.008
				c1.343,0,2.427,0.61,2.479,1.894h-1.742c-0.052-0.712-0.633-0.763-0.93-0.763c-0.517,0-0.903,0.241-0.903,0.635
				c0,0.432,0.322,0.521,0.891,0.674l1.174,0.318c1.188,0.317,1.743,0.915,1.743,1.792c0,1.106-0.968,2.211-2.995,2.211
				c-0.839,0-1.639-0.178-2.233-0.788c-0.426-0.445-0.464-0.954-0.478-1.259H46.5z"/>
			<path fill="#231F20" d="M55.455,73.616c-0.619,0.165-1.175,0.203-1.484,0.203c-1.924,0-1.924-1.195-1.924-1.729V68.57h-1.252
				v-1.246h1.252v-1.258l1.898-0.686v1.944h1.549v1.246h-1.549v2.898c0.013,0.584,0.013,0.953,0.864,0.953
				c0.284,0,0.413-0.013,0.646-0.038V73.616z"/>
			<path fill="#231F20" d="M56.575,64.528h2.04v1.64h-2.04V64.528z M56.639,67.274h1.911v6.432h-1.911V67.274z"/>
			<path fill="#231F20" d="M60.265,68.494c0-0.407-0.026-0.801-0.064-1.208h1.846l0.064,0.826c0.207-0.279,0.71-0.966,2.014-0.966
				c1.498,0,1.924,0.902,2.053,1.208c0.542-1.03,1.42-1.195,2.092-1.195c1.316,0,1.846,0.775,1.987,1.029
				c0.349,0.56,0.323,1.335,0.323,1.894v3.623h-1.924V69.93c0-0.687-0.104-1.449-1.098-1.449c-1.148,0-1.174,1.055-1.174,2.008
				v3.216h-1.924v-3.813c0-0.496-0.013-1.411-1.071-1.411c-1.201,0-1.201,1.017-1.201,1.449v3.775h-1.923V68.494z"/>
			<path fill="#231F20" d="M76.316,73.705c-0.064-0.394-0.064-0.687-0.064-0.877c-0.723,1.029-1.588,1.029-1.949,1.029
				c-0.942,0-1.368-0.267-1.626-0.508c-0.388-0.381-0.568-0.902-0.568-1.411c0-0.509,0.181-1.449,1.382-1.996
				c0.8-0.356,1.949-0.356,2.581-0.356c0-0.419-0.013-0.623-0.09-0.852c-0.168-0.47-0.672-0.534-0.853-0.534
				c-0.271,0-0.555,0.115-0.723,0.356c-0.142,0.216-0.142,0.419-0.142,0.572h-1.872c0.013-0.343,0.052-1.03,0.735-1.513
				c0.595-0.419,1.355-0.521,1.976-0.521c0.542,0,1.678,0.089,2.323,0.826c0.439,0.521,0.452,1.284,0.452,1.576l0.013,2.58
				c0,0.546,0.039,1.093,0.155,1.627H76.316z M73.968,71.722c0,0.432,0.297,0.915,0.929,0.915c0.349,0,0.633-0.165,0.813-0.369
				c0.336-0.407,0.361-0.902,0.361-1.588C74.846,70.578,73.968,70.96,73.968,71.722z"/>
			<path fill="#231F20" d="M83.412,73.616c-0.619,0.165-1.175,0.203-1.484,0.203c-1.924,0-1.924-1.195-1.924-1.729V68.57h-1.252
				v-1.246h1.252v-1.258l1.898-0.686v1.944h1.549v1.246h-1.549v2.898c0.013,0.584,0.013,0.953,0.864,0.953
				c0.284,0,0.413-0.013,0.646-0.038V73.616z"/>
			<path fill="#231F20" d="M86.133,70.972c0,0.419,0,1.716,1.33,1.716c0.478,0,0.955-0.178,1.136-0.89h1.743
				c-0.026,0.305-0.091,0.852-0.62,1.398c-0.478,0.496-1.329,0.75-2.285,0.75c-0.555,0-1.613-0.102-2.298-0.801
				c-0.594-0.61-0.839-1.475-0.839-2.504c0-1.042,0.259-2.288,1.355-3.038c0.504-0.331,1.123-0.534,1.833-0.534
				c0.93,0,2.04,0.356,2.634,1.55c0.438,0.877,0.413,1.818,0.387,2.352H86.133z M88.559,69.79c0-0.292-0.025-1.436-1.136-1.436
				c-0.839,0-1.188,0.687-1.227,1.436H88.559z"/>
			<path fill="#231F20" d="M96.082,64.528h1.924v8.135c0,0.381,0.025,0.801,0.052,1.042h-1.937l-0.052-0.928
				c-0.129,0.229-0.258,0.47-0.658,0.724c-0.478,0.305-0.981,0.331-1.266,0.331c-1.742,0-2.775-1.182-2.775-3.19
				c0-2.123,1.175-3.444,2.879-3.444c1.175,0,1.665,0.648,1.833,0.877V64.528z M94.624,72.612c0.555,0,1.007-0.33,1.213-0.724
				c0.284-0.534,0.31-1.195,0.31-1.513c0-1.258-0.555-1.945-1.42-1.945c-1.277,0-1.42,1.513-1.42,2.161
				C93.306,71.659,93.668,72.612,94.624,72.612z"/>
			<path fill="#231F20" d="M103.628,66.168c0.839-0.355,1.64-0.801,2.388-1.334h1.665v8.872h-1.949v-6.902
				c-0.374,0.28-1.123,0.737-2.104,1.131V66.168z"/>
			<path fill="#231F20" d="M113.201,64.706c1.266,0,2.015,0.674,2.35,1.169c0.465,0.673,0.813,1.538,0.813,3.203
				c0,2.059-0.478,4.766-3.188,4.766c-2.311,0-3.111-2.186-3.111-4.55C110.064,68.113,110.309,64.706,113.201,64.706z
				 M114.195,67.21c-0.052-0.242-0.271-1.03-0.98-1.03c-0.556,0-0.801,0.496-0.891,0.763c-0.297,0.903-0.297,2.263-0.297,2.479
				c0,1.513,0.232,2.924,1.2,2.924c1.032,0,1.2-1.729,1.2-2.949C114.428,68.837,114.363,67.795,114.195,67.21z"/>
			<path fill="#231F20" d="M117.315,69.625h3.201v1.436h-3.201V69.625z"/>
			<path fill="#231F20" d="M123.29,67.286l1.433,4.449l1.459-4.449h1.897l-2.466,6.305l-0.787,2.555h-1.924l0.826-2.415
				l-2.504-6.444H123.29z"/>
			<path fill="#231F20" d="M130.592,70.972c0,0.419,0,1.716,1.33,1.716c0.478,0,0.955-0.178,1.136-0.89h1.743
				c-0.026,0.305-0.091,0.852-0.62,1.398c-0.478,0.496-1.329,0.75-2.285,0.75c-0.555,0-1.613-0.102-2.298-0.801
				c-0.594-0.61-0.839-1.475-0.839-2.504c0-1.042,0.259-2.288,1.355-3.038c0.504-0.331,1.123-0.534,1.833-0.534
				c0.93,0,2.04,0.356,2.634,1.55c0.438,0.877,0.413,1.818,0.387,2.352H130.592z M133.018,69.79c0-0.292-0.025-1.436-1.136-1.436
				c-0.839,0-1.188,0.687-1.227,1.436H133.018z"/>
			<path fill="#231F20" d="M140.14,73.705c-0.065-0.394-0.065-0.687-0.065-0.877c-0.723,1.029-1.587,1.029-1.949,1.029
				c-0.942,0-1.368-0.267-1.626-0.508c-0.388-0.381-0.568-0.902-0.568-1.411c0-0.509,0.181-1.449,1.382-1.996
				c0.8-0.356,1.949-0.356,2.581-0.356c0-0.419-0.013-0.623-0.09-0.852c-0.168-0.47-0.672-0.534-0.853-0.534
				c-0.271,0-0.555,0.115-0.723,0.356c-0.142,0.216-0.142,0.419-0.142,0.572h-1.872c0.013-0.343,0.052-1.03,0.735-1.513
				c0.595-0.419,1.355-0.521,1.976-0.521c0.542,0,1.678,0.089,2.323,0.826c0.439,0.521,0.452,1.284,0.452,1.576l0.013,2.58
				c0,0.546,0.039,1.093,0.155,1.627H140.14z M137.791,71.722c0,0.432,0.297,0.915,0.929,0.915c0.349,0,0.633-0.165,0.813-0.369
				c0.336-0.407,0.361-0.902,0.361-1.588C138.669,70.578,137.791,70.96,137.791,71.722z"/>
			<path fill="#231F20" d="M143.402,68.863c0-0.305-0.052-1.233-0.09-1.602h1.794l0.039,1.233c0.245-0.546,0.671-1.322,2.22-1.246
				v1.69c-1.936-0.178-2.052,0.801-2.052,1.602v3.165h-1.911V68.863z"/>
			<path fill="#231F20" d="M149.751,71.849c0.025,0.407,0.284,0.877,1.084,0.877c0.685,0,1.007-0.381,1.007-0.763
				c0-0.292-0.154-0.521-0.903-0.725l-1.188-0.318c-0.529-0.152-1.652-0.47-1.652-1.779c0-1.246,1.161-2.008,2.853-2.008
				c1.343,0,2.427,0.61,2.479,1.894h-1.742c-0.052-0.712-0.633-0.763-0.93-0.763c-0.517,0-0.904,0.241-0.904,0.635
				c0,0.432,0.323,0.521,0.892,0.674l1.175,0.318c1.188,0.317,1.742,0.915,1.742,1.792c0,1.106-0.968,2.211-2.995,2.211
				c-0.839,0-1.64-0.178-2.233-0.788c-0.426-0.445-0.464-0.954-0.478-1.259H149.751z"/>
			<path fill="#231F20" d="M163.428,64.515l3.24,9.19h-2.014l-0.671-1.983h-3.692l-0.697,1.983h-1.91l3.369-9.19H163.428z
				 M163.479,70.235l-1.291-3.915l-1.381,3.915H163.479z"/>
			<path fill="#231F20" d="M169.426,70.769c0,0.432-0.025,1.741,1.691,1.741c1.084,0,1.769-0.508,1.769-1.284
				c0-0.813-0.581-0.953-1.769-1.233c-2.221-0.546-3.434-1.195-3.434-2.784c0-1.513,1.097-2.847,3.691-2.847
				c0.969,0,2.117,0.216,2.814,1.081c0.529,0.661,0.529,1.398,0.529,1.703h-1.924c-0.025-0.318-0.129-1.398-1.51-1.398
				c-0.93,0-1.536,0.496-1.536,1.246c0,0.852,0.684,1.004,2.026,1.335c1.613,0.381,3.201,0.813,3.201,2.605
				c0,1.652-1.394,2.987-3.976,2.987c-3.576,0-3.602-2.263-3.614-3.152H169.426z"/>
			<path fill="#231F20" d="M181.683,67.515c-0.039-0.318-0.154-1.614-1.51-1.614c-1.485,0-2.104,1.525-2.104,3.419
				c0,0.547,0,3.152,1.949,3.152c0.839,0,1.64-0.521,1.678-1.741h2.104c-0.039,0.546-0.091,1.398-0.839,2.161
				c-0.826,0.839-1.872,1.03-2.724,1.03c-3.215,0-4.261-2.339-4.261-4.614c0-2.911,1.652-4.843,4.273-4.843
				c2.039,0,3.473,1.22,3.473,3.051H181.683z"/>
			<path fill="#231F20" d="M186.481,64.553l2.439,7.207l2.452-7.207h1.976l-3.434,9.152h-2.182l-3.434-9.152H186.481z"/>
			<path fill="#231F20" d="M194.298,64.541l3.085,0.013c0.517,0,2.092,0.013,3.215,0.827c1.175,0.852,1.588,2.3,1.588,3.609
				c0,2.822-1.536,4.296-3.305,4.614c-0.349,0.063-0.736,0.102-1.679,0.102h-2.904V64.541z M196.325,72.193
				c0.219,0.013,0.555,0.025,0.787,0.025c0.852,0,1.588-0.063,2.169-0.635c0.787-0.775,0.839-2.148,0.839-2.593
				c0-1.296-0.452-2.491-1.704-2.834c-0.413-0.114-0.942-0.178-2.091-0.127V72.193z"/>
			<path fill="#231F20" d="M207.199,68.863c0-0.305-0.052-1.233-0.09-1.602h1.794l0.039,1.233c0.245-0.546,0.671-1.322,2.22-1.246
				v1.69c-1.936-0.178-2.052,0.801-2.052,1.602v3.165h-1.911V68.863z"/>
			<path fill="#231F20" d="M212.153,64.528h2.04v1.64h-2.04V64.528z M212.218,67.274h1.911v6.432h-1.911V67.274z"/>
			<path fill="#231F20" d="M217.135,71.849c0.025,0.407,0.284,0.877,1.084,0.877c0.685,0,1.007-0.381,1.007-0.763
				c0-0.292-0.154-0.521-0.903-0.725l-1.188-0.318c-0.529-0.152-1.652-0.47-1.652-1.779c0-1.246,1.161-2.008,2.853-2.008
				c1.343,0,2.427,0.61,2.479,1.894h-1.742c-0.052-0.712-0.633-0.763-0.93-0.763c-0.517,0-0.903,0.241-0.903,0.635
				c0,0.432,0.322,0.521,0.891,0.674l1.174,0.318c1.188,0.317,1.743,0.915,1.743,1.792c0,1.106-0.968,2.211-2.995,2.211
				c-0.839,0-1.639-0.178-2.233-0.788c-0.426-0.445-0.464-0.954-0.478-1.259H217.135z"/>
			<path fill="#231F20" d="M222.282,64.515h1.897v5.415l1.975-2.682h2.156l-2.233,2.796l2.375,3.661h-2.259l-2.014-3.496v3.496
				h-1.897V64.515z"/>
			<path fill="#231F20" d="M234.552,70.972c0,0.419,0,1.716,1.33,1.716c0.478,0,0.955-0.178,1.136-0.89h1.743
				c-0.026,0.305-0.091,0.852-0.62,1.398c-0.478,0.496-1.329,0.75-2.285,0.75c-0.555,0-1.613-0.102-2.298-0.801
				c-0.594-0.61-0.839-1.475-0.839-2.504c0-1.042,0.259-2.288,1.355-3.038c0.504-0.331,1.123-0.534,1.833-0.534
				c0.93,0,2.04,0.356,2.634,1.55c0.438,0.877,0.413,1.818,0.387,2.352H234.552z M236.978,69.79c0-0.292-0.025-1.436-1.136-1.436
				c-0.839,0-1.188,0.687-1.227,1.436H236.978z"/>
			<path fill="#231F20" d="M241.479,67.286l1.472,4.36l1.497-4.36h1.847l-2.35,6.419h-2.117l-2.388-6.419H241.479z"/>
			<path fill="#231F20" d="M248.898,70.972c0,0.419,0,1.716,1.33,1.716c0.478,0,0.955-0.178,1.136-0.89h1.743
				c-0.026,0.305-0.091,0.852-0.62,1.398c-0.478,0.496-1.329,0.75-2.285,0.75c-0.555,0-1.613-0.102-2.298-0.801
				c-0.594-0.61-0.839-1.475-0.839-2.504c0-1.042,0.259-2.288,1.355-3.038c0.504-0.331,1.123-0.534,1.833-0.534
				c0.93,0,2.04,0.356,2.634,1.55c0.438,0.877,0.413,1.818,0.387,2.352H248.898z M251.325,69.79c0-0.292-0.025-1.436-1.136-1.436
				c-0.839,0-1.188,0.687-1.227,1.436H251.325z"/>
			<path fill="#231F20" d="M254.535,68.863c0-0.305-0.052-1.233-0.09-1.602h1.794l0.039,1.233c0.245-0.546,0.671-1.322,2.22-1.246
				v1.69c-1.936-0.178-2.052,0.801-2.052,1.602v3.165h-1.911V68.863z"/>
			<path fill="#231F20" d="M260.961,67.286l1.433,4.449l1.459-4.449h1.897l-2.466,6.305l-0.787,2.555h-1.923l0.826-2.415
				l-2.505-6.444H260.961z"/>
			<path fill="#231F20" d="M269.681,71.773v-1.716l3.614-5.224h1.923l-0.013,5.479h1.227v1.461h-1.227v1.932h-1.91v-1.932H269.681z
				 M271.127,70.35h2.271v-2.339c0-0.114,0.014-0.75,0.026-0.979L271.127,70.35z"/>
			<path fill="#231F20" d="M277.217,69.625h3.201v1.436h-3.201V69.625z"/>
			<path fill="#231F20" d="M285.733,67.032c-0.038-0.636-0.465-0.877-0.942-0.877c-1.291,0-1.329,1.576-1.355,2.492
				c0.323-0.292,0.826-0.712,1.769-0.712c1.252,0,2.582,0.877,2.582,2.809c0,0.979-0.271,1.69-0.955,2.313
				c-0.594,0.547-1.291,0.826-2.298,0.826c-3.111,0-3.111-2.974-3.111-4.029c0-1.78,0.232-3.623,1.459-4.513
				c0.787-0.584,1.729-0.623,2.078-0.623c1.355,0,2.646,0.687,2.686,2.313H285.733z M285.889,70.871
				c0-0.979-0.517-1.525-1.162-1.525c-0.322,0-1.304,0.191-1.304,1.563c0,1.093,0.594,1.551,1.227,1.551
				C285.204,72.46,285.889,72.078,285.889,70.871z"/>
			<path fill="#231F20" d="M293.95,67.286l1.433,4.449l1.459-4.449h1.897l-2.466,6.305l-0.787,2.555h-1.924l0.826-2.415
				l-2.504-6.444H293.95z"/>
			<path fill="#231F20" d="M301.253,70.972c0,0.419,0,1.716,1.33,1.716c0.478,0,0.955-0.178,1.136-0.89h1.743
				c-0.026,0.305-0.091,0.852-0.62,1.398c-0.478,0.496-1.329,0.75-2.285,0.75c-0.555,0-1.613-0.102-2.298-0.801
				c-0.594-0.61-0.839-1.475-0.839-2.504c0-1.042,0.259-2.288,1.355-3.038c0.504-0.331,1.123-0.534,1.833-0.534
				c0.93,0,2.04,0.356,2.634,1.55c0.438,0.877,0.413,1.818,0.387,2.352H301.253z M303.68,69.79c0-0.292-0.025-1.436-1.136-1.436
				c-0.839,0-1.188,0.687-1.227,1.436H303.68z"/>
			<path fill="#231F20" d="M310.801,73.705c-0.064-0.394-0.064-0.687-0.064-0.877c-0.723,1.029-1.588,1.029-1.949,1.029
				c-0.942,0-1.368-0.267-1.626-0.508c-0.388-0.381-0.568-0.902-0.568-1.411c0-0.509,0.181-1.449,1.382-1.996
				c0.8-0.356,1.949-0.356,2.581-0.356c0-0.419-0.013-0.623-0.09-0.852c-0.168-0.47-0.672-0.534-0.853-0.534
				c-0.271,0-0.555,0.115-0.723,0.356c-0.142,0.216-0.142,0.419-0.142,0.572h-1.872c0.013-0.343,0.052-1.03,0.735-1.513
				c0.595-0.419,1.355-0.521,1.976-0.521c0.542,0,1.678,0.089,2.323,0.826c0.439,0.521,0.452,1.284,0.452,1.576l0.013,2.58
				c0,0.546,0.039,1.093,0.155,1.627H310.801z M308.452,71.722c0,0.432,0.297,0.915,0.929,0.915c0.349,0,0.633-0.165,0.813-0.369
				c0.336-0.407,0.361-0.902,0.361-1.588C309.33,70.578,308.452,70.96,308.452,71.722z"/>
			<path fill="#231F20" d="M314.062,68.863c0-0.305-0.052-1.233-0.09-1.602h1.794l0.039,1.233c0.245-0.546,0.671-1.322,2.22-1.246
				v1.69c-1.936-0.178-2.052,0.801-2.052,1.602v3.165h-1.911V68.863z"/>
			<path fill="#231F20" d="M320.411,71.849c0.025,0.407,0.284,0.877,1.084,0.877c0.685,0,1.007-0.381,1.007-0.763
				c0-0.292-0.154-0.521-0.903-0.725l-1.188-0.318c-0.529-0.152-1.652-0.47-1.652-1.779c0-1.246,1.161-2.008,2.853-2.008
				c1.343,0,2.427,0.61,2.479,1.894h-1.742c-0.052-0.712-0.633-0.763-0.93-0.763c-0.517,0-0.904,0.241-0.904,0.635
				c0,0.432,0.323,0.521,0.892,0.674l1.175,0.318c1.188,0.317,1.742,0.915,1.742,1.792c0,1.106-0.968,2.211-2.995,2.211
				c-0.839,0-1.64-0.178-2.233-0.788c-0.426-0.445-0.464-0.954-0.478-1.259H320.411z"/>
			<path fill="#231F20" d="M329.055,64.528h2.04v1.64h-2.04V64.528z M329.119,67.274h1.911v6.432h-1.911V67.274z"/>
			<path fill="#231F20" d="M332.732,68.43c0-0.025,0-0.725-0.039-1.169h1.833l0.052,0.966c0.181-0.292,0.697-1.119,2.117-1.119
				c1.277,0,1.82,0.763,1.988,1.208c0.142,0.394,0.181,0.725,0.181,1.919v3.47h-1.949v-3.991c0-0.267,0-0.496-0.104-0.699
				c-0.143-0.279-0.439-0.546-0.93-0.546c-0.413,0-0.787,0.191-0.994,0.496c-0.116,0.166-0.232,0.483-0.232,0.979v3.762h-1.923
				V68.43z"/>
			<path fill="#231F20" d="M344.11,64.528h2.04v1.64h-2.04V64.528z M344.175,67.274h1.911v6.432h-1.911V67.274z"/>
			<path fill="#231F20" d="M347.788,68.43c0-0.025,0-0.725-0.039-1.169h1.833l0.052,0.966c0.181-0.292,0.697-1.119,2.117-1.119
				c1.277,0,1.82,0.763,1.987,1.208c0.143,0.394,0.182,0.725,0.182,1.919v3.47h-1.949v-3.991c0-0.267,0-0.496-0.104-0.699
				c-0.143-0.279-0.439-0.546-0.93-0.546c-0.413,0-0.787,0.191-0.994,0.496c-0.116,0.166-0.232,0.483-0.232,0.979v3.762h-1.923
				V68.43z"/>
			<path fill="#231F20" d="M359.956,64.528h1.924v8.135c0,0.381,0.025,0.801,0.052,1.042h-1.937l-0.052-0.928
				c-0.129,0.229-0.258,0.47-0.658,0.724c-0.478,0.305-0.981,0.331-1.266,0.331c-1.742,0-2.775-1.182-2.775-3.19
				c0-2.123,1.175-3.444,2.879-3.444c1.175,0,1.665,0.648,1.833,0.877V64.528z M358.498,72.612c0.555,0,1.007-0.33,1.213-0.724
				c0.284-0.534,0.31-1.195,0.31-1.513c0-1.258-0.555-1.945-1.42-1.945c-1.277,0-1.42,1.513-1.42,2.161
				C357.181,71.659,357.542,72.612,358.498,72.612z"/>
			<path fill="#231F20" d="M363.463,64.528h2.04v1.64h-2.04V64.528z M363.527,67.274h1.911v6.432h-1.911V67.274z"/>
			<path fill="#231F20" d="M368.405,67.286l1.472,4.36l1.497-4.36h1.847l-2.35,6.419h-2.117l-2.388-6.419H368.405z"/>
			<path fill="#231F20" d="M374.223,64.528h2.04v1.64h-2.04V64.528z M374.287,67.274h1.911v6.432h-1.911V67.274z"/>
			<path fill="#231F20" d="M382.185,64.528h1.924v8.135c0,0.381,0.025,0.801,0.052,1.042h-1.937l-0.052-0.928
				c-0.129,0.229-0.258,0.47-0.658,0.724c-0.478,0.305-0.981,0.331-1.266,0.331c-1.742,0-2.775-1.182-2.775-3.19
				c0-2.123,1.175-3.444,2.879-3.444c1.175,0,1.665,0.648,1.833,0.877V64.528z M380.727,72.612c0.555,0,1.007-0.33,1.213-0.724
				c0.284-0.534,0.31-1.195,0.31-1.513c0-1.258-0.555-1.945-1.42-1.945c-1.277,0-1.42,1.513-1.42,2.161
				C379.41,71.659,379.771,72.612,380.727,72.612z"/>
			<path fill="#231F20" d="M387.629,67.286v3.826c0,0.559,0,1.411,1.02,1.411c1.227,0,1.227-0.902,1.227-1.996v-3.241h1.962v4.233
				c0.026,1.385,0.039,1.55,0.039,1.716c0.013,0.178,0.025,0.292,0.052,0.47h-1.859l-0.064-0.852
				c-0.193,0.28-0.684,1.017-1.923,1.017c-0.878,0-1.602-0.394-1.963-0.864c-0.426-0.521-0.426-1.411-0.426-1.729v-3.991H387.629z"
				/>
			<path fill="#231F20" d="M397.551,73.705c-0.064-0.394-0.064-0.687-0.064-0.877c-0.723,1.029-1.588,1.029-1.949,1.029
				c-0.942,0-1.368-0.267-1.626-0.508c-0.388-0.381-0.568-0.902-0.568-1.411c0-0.509,0.181-1.449,1.382-1.996
				c0.8-0.356,1.949-0.356,2.581-0.356c0-0.419-0.013-0.623-0.09-0.852c-0.168-0.47-0.672-0.534-0.853-0.534
				c-0.271,0-0.555,0.115-0.723,0.356c-0.142,0.216-0.142,0.419-0.142,0.572h-1.872c0.013-0.343,0.052-1.03,0.735-1.513
				c0.595-0.419,1.355-0.521,1.976-0.521c0.542,0,1.678,0.089,2.323,0.826c0.439,0.521,0.452,1.284,0.452,1.576l0.013,2.58
				c0,0.546,0.039,1.093,0.155,1.627H397.551z M395.202,71.722c0,0.432,0.297,0.915,0.929,0.915c0.349,0,0.633-0.165,0.813-0.369
				c0.336-0.407,0.361-0.902,0.361-1.588C396.08,70.578,395.202,70.96,395.202,71.722z"/>
			<path fill="#231F20" d="M400.812,64.515h1.911v9.19h-1.911V64.515z"/>
			<path fill="#231F20" d="M405.729,71.849c0.025,0.407,0.284,0.877,1.084,0.877c0.685,0,1.007-0.381,1.007-0.763
				c0-0.292-0.154-0.521-0.903-0.725l-1.188-0.318c-0.529-0.152-1.652-0.47-1.652-1.779c0-1.246,1.161-2.008,2.853-2.008
				c1.343,0,2.427,0.61,2.479,1.894h-1.742c-0.052-0.712-0.633-0.763-0.93-0.763c-0.517,0-0.904,0.241-0.904,0.635
				c0,0.432,0.323,0.521,0.892,0.674l1.175,0.318c1.188,0.317,1.742,0.915,1.742,1.792c0,1.106-0.968,2.211-2.995,2.211
				c-0.839,0-1.64-0.178-2.233-0.788c-0.426-0.445-0.464-0.954-0.478-1.259H405.729z"/>
			<path fill="#231F20" d="M418.348,73.705c-0.064-0.394-0.064-0.687-0.064-0.877c-0.723,1.029-1.588,1.029-1.949,1.029
				c-0.942,0-1.368-0.267-1.626-0.508c-0.388-0.381-0.568-0.902-0.568-1.411c0-0.509,0.181-1.449,1.382-1.996
				c0.8-0.356,1.949-0.356,2.581-0.356c0-0.419-0.013-0.623-0.09-0.852c-0.168-0.47-0.672-0.534-0.853-0.534
				c-0.271,0-0.555,0.115-0.723,0.356c-0.142,0.216-0.142,0.419-0.142,0.572h-1.872c0.013-0.343,0.052-1.03,0.735-1.513
				c0.595-0.419,1.355-0.521,1.976-0.521c0.542,0,1.678,0.089,2.323,0.826c0.439,0.521,0.452,1.284,0.452,1.576l0.013,2.58
				c0,0.546,0.039,1.093,0.155,1.627H418.348z M415.999,71.722c0,0.432,0.297,0.915,0.929,0.915c0.349,0,0.633-0.165,0.813-0.369
				c0.336-0.407,0.361-0.902,0.361-1.588C416.877,70.578,415.999,70.96,415.999,71.722z"/>
			<path fill="#231F20" d="M427.793,67.312c-0.052,0.509-0.091,0.941-0.091,1.589v4.741c0,2.364-2,2.593-3.253,2.593
				c-0.929,0-2.749-0.114-2.865-2.059h1.833c0.025,0.191,0.116,0.89,1.136,0.89c0.568,0,1.059-0.267,1.188-0.839
				c0.078-0.317,0.078-0.546,0.091-1.525c-0.607,0.788-1.291,0.877-1.756,0.877c-1.872,0-2.75-1.602-2.75-3.152
				c0-1.627,0.917-3.178,2.789-3.178c1.188,0,1.626,0.636,1.819,0.915l0.065-0.852H427.793z M424.514,72.295
				c1.343,0,1.343-1.551,1.343-1.831c0-0.725-0.142-1.958-1.304-1.958c-0.723,0-1.316,0.547-1.316,1.919
				C423.236,70.744,423.236,72.295,424.514,72.295z"/>
			<path fill="#231F20" d="M431.028,70.972c0,0.419,0,1.716,1.33,1.716c0.478,0,0.955-0.178,1.136-0.89h1.743
				c-0.026,0.305-0.091,0.852-0.62,1.398c-0.478,0.496-1.329,0.75-2.285,0.75c-0.555,0-1.613-0.102-2.298-0.801
				c-0.594-0.61-0.839-1.475-0.839-2.504c0-1.042,0.259-2.288,1.355-3.038c0.504-0.331,1.123-0.534,1.833-0.534
				c0.93,0,2.04,0.356,2.634,1.55c0.438,0.877,0.413,1.818,0.387,2.352H431.028z M433.455,69.79c0-0.292-0.025-1.436-1.136-1.436
				c-0.839,0-1.188,0.687-1.227,1.436H433.455z"/>
			<path fill="#231F20" d="M440.977,64.528h1.924v8.135c0,0.381,0.025,0.801,0.052,1.042h-1.937l-0.052-0.928
				c-0.129,0.229-0.258,0.47-0.658,0.724c-0.478,0.305-0.981,0.331-1.266,0.331c-1.742,0-2.775-1.182-2.775-3.19
				c0-2.123,1.175-3.444,2.879-3.444c1.175,0,1.665,0.648,1.833,0.877V64.528z M439.519,72.612c0.555,0,1.007-0.33,1.213-0.724
				c0.284-0.534,0.31-1.195,0.31-1.513c0-1.258-0.555-1.945-1.42-1.945c-1.277,0-1.42,1.513-1.42,2.161
				C438.202,71.659,438.563,72.612,439.519,72.612z"/>
			<path fill="#231F20" d="M447.502,71.773v-1.716l3.615-5.224h1.923l-0.013,5.479h1.227v1.461h-1.227v1.932h-1.91v-1.932H447.502z
				 M448.948,70.35h2.272v-2.339c0-0.114,0.013-0.75,0.025-0.979L448.948,70.35z"/>
			<path fill="#231F20" d="M458.097,64.706c1.266,0,2.015,0.674,2.35,1.169c0.465,0.673,0.813,1.538,0.813,3.203
				c0,2.059-0.478,4.766-3.188,4.766c-2.311,0-3.111-2.186-3.111-4.55C454.96,68.113,455.205,64.706,458.097,64.706z M459.091,67.21
				c-0.052-0.242-0.271-1.03-0.98-1.03c-0.556,0-0.801,0.496-0.891,0.763c-0.297,0.903-0.297,2.263-0.297,2.479
				c0,1.513,0.231,2.924,1.2,2.924c1.032,0,1.2-1.729,1.2-2.949C459.323,68.837,459.259,67.795,459.091,67.21z"/>
			<path fill="#231F20" d="M462.211,69.625h3.201v1.436h-3.201V69.625z"/>
			<path fill="#231F20" d="M466.417,64.846h6.106v1.576l-3.099,7.283h-2.155l3.291-7.385h-4.144V64.846z"/>
			<path fill="#231F20" d="M475.423,71.519c-0.013,0.203,0.155,0.991,1.059,0.991c0.697,0,1.33-0.496,1.33-1.665
				c0-0.852-0.336-1.589-1.201-1.589c-0.864,0-1.084,0.687-1.148,0.89l-1.872-0.051l0.207-5.25h5.46v1.449H475.5l-0.115,2.199
				c0.283-0.241,0.71-0.635,1.703-0.635c1.446,0,2.659,1.042,2.659,2.822c0,1.512-0.903,3.215-3.214,3.215
				c-0.942,0-1.897-0.241-2.518-0.966c-0.451-0.534-0.49-1.081-0.503-1.411H475.423z"/>
			<path fill="#231F20" d="M36.052,82.086l1.433,4.449l1.459-4.449h1.897l-2.466,6.305l-0.787,2.555h-1.924l0.826-2.415
				l-2.504-6.444H36.052z"/>
			<path fill="#231F20" d="M43.353,85.772c0,0.419,0,1.716,1.33,1.716c0.478,0,0.955-0.178,1.136-0.89h1.743
				c-0.026,0.305-0.091,0.852-0.62,1.398c-0.478,0.496-1.329,0.75-2.285,0.75c-0.555,0-1.613-0.102-2.298-0.801
				c-0.594-0.61-0.839-1.475-0.839-2.504c0-1.042,0.259-2.288,1.355-3.038c0.504-0.331,1.123-0.534,1.833-0.534
				c0.93,0,2.04,0.356,2.634,1.55c0.438,0.877,0.413,1.818,0.387,2.352H43.353z M45.78,84.59c0-0.292-0.025-1.436-1.136-1.436
				c-0.839,0-1.188,0.687-1.227,1.436H45.78z"/>
			<path fill="#231F20" d="M52.902,88.505c-0.064-0.394-0.064-0.687-0.064-0.877c-0.723,1.029-1.588,1.029-1.949,1.029
				c-0.942,0-1.368-0.267-1.626-0.508c-0.388-0.381-0.568-0.902-0.568-1.411c0-0.509,0.181-1.449,1.382-1.996
				c0.8-0.356,1.949-0.356,2.581-0.356c0-0.419-0.013-0.623-0.09-0.852c-0.168-0.47-0.672-0.534-0.853-0.534
				c-0.271,0-0.555,0.115-0.723,0.356c-0.142,0.216-0.142,0.419-0.142,0.572h-1.872c0.013-0.343,0.052-1.03,0.735-1.513
				c0.595-0.419,1.355-0.521,1.976-0.521c0.542,0,1.678,0.089,2.323,0.826c0.439,0.521,0.452,1.284,0.452,1.576l0.013,2.58
				c0,0.546,0.039,1.093,0.155,1.627H52.902z M50.554,86.522c0,0.432,0.297,0.915,0.929,0.915c0.349,0,0.633-0.165,0.813-0.369
				c0.336-0.407,0.361-0.902,0.361-1.588C51.431,85.378,50.554,85.76,50.554,86.522z"/>
			<path fill="#231F20" d="M56.164,83.662c0-0.305-0.052-1.233-0.09-1.602h1.794l0.039,1.233c0.245-0.546,0.671-1.322,2.22-1.246
				v1.69c-1.936-0.178-2.052,0.801-2.052,1.602v3.165h-1.911V83.662z"/>
			<path fill="#231F20" d="M62.513,86.649c0.025,0.407,0.284,0.877,1.084,0.877c0.685,0,1.007-0.381,1.007-0.763
				c0-0.292-0.154-0.521-0.903-0.725l-1.188-0.318c-0.529-0.152-1.652-0.47-1.652-1.779c0-1.246,1.161-2.008,2.853-2.008
				c1.343,0,2.427,0.61,2.479,1.894h-1.742c-0.052-0.712-0.633-0.763-0.93-0.763c-0.517,0-0.904,0.241-0.904,0.635
				c0,0.432,0.323,0.521,0.892,0.674l1.175,0.318c1.188,0.317,1.742,0.915,1.742,1.792c0,1.106-0.968,2.211-2.995,2.211
				c-0.839,0-1.64-0.178-2.233-0.788c-0.426-0.445-0.464-0.954-0.478-1.259H62.513z"/>
			<path fill="#231F20" d="M72.472,82.086l1.201,4.843l1.381-4.843h2.104l1.368,4.843l1.278-4.843h1.897l-2.233,6.419h-2.078
				l-1.343-4.754l-1.368,4.754h-2.104l-2.13-6.419H72.472z"/>
			<path fill="#231F20" d="M82.625,79.328h2.04v1.64h-2.04V79.328z M82.689,82.073H84.6v6.432h-1.911V82.073z"/>
			<path fill="#231F20" d="M90.11,88.416c-0.619,0.165-1.175,0.203-1.484,0.203c-1.924,0-1.924-1.195-1.924-1.729V83.37H85.45
				v-1.246h1.252v-1.258L88.6,80.18v1.944h1.549v1.246H88.6v2.898c0.013,0.584,0.013,0.953,0.864,0.953
				c0.284,0,0.413-0.013,0.646-0.038V88.416z"/>
			<path fill="#231F20" d="M91.347,79.328h1.897v3.635c0.22-0.305,0.697-0.966,1.885-0.966c0.969,0,1.588,0.47,1.897,0.864
				c0.232,0.318,0.427,0.902,0.427,1.741v3.902h-1.898v-3.838c0-0.369,0-1.398-1.071-1.398c-0.542,0-1.227,0.305-1.227,1.309
				l0.014,3.928h-1.924V79.328z"/>
			<path fill="#231F20" d="M102.25,81.934c2.362,0,3.383,1.576,3.383,3.368c0,1.805-1.059,3.432-3.421,3.432
				c-1.859,0-3.331-1.131-3.331-3.381C98.881,83.802,99.681,81.934,102.25,81.934z M102.276,87.425c0.839,0,1.407-0.496,1.407-2.199
				c0-0.852-0.168-2.034-1.434-2.034c-1.394,0-1.407,1.589-1.407,2.173C100.843,86.802,101.334,87.425,102.276,87.425z"/>
			<path fill="#231F20" d="M108.932,82.086v3.826c0,0.559,0,1.411,1.02,1.411c1.227,0,1.227-0.902,1.227-1.996v-3.241h1.962v4.233
				c0.026,1.385,0.039,1.55,0.039,1.716c0.013,0.178,0.025,0.292,0.052,0.47h-1.859l-0.064-0.852
				c-0.193,0.28-0.684,1.017-1.923,1.017c-0.878,0-1.602-0.394-1.963-0.864c-0.426-0.521-0.426-1.411-0.426-1.729v-3.991H108.932z"
				/>
			<path fill="#231F20" d="M118.777,88.416c-0.619,0.165-1.175,0.203-1.484,0.203c-1.924,0-1.924-1.195-1.924-1.729V83.37h-1.252
				v-1.246h1.252v-1.258l1.898-0.686v1.944h1.549v1.246h-1.549v2.898c0.013,0.584,0.013,0.953,0.864,0.953
				c0.284,0,0.413-0.013,0.646-0.038V88.416z"/>
			<path fill="#231F20" d="M126.996,84.362c-0.026-0.229-0.104-1.182-0.84-1.182c-0.903,0-1.007,1.347-1.007,2.046
				c0,0.356,0.039,1.5,0.478,1.97c0.182,0.19,0.375,0.216,0.517,0.216c0.207,0,0.801-0.089,0.878-1.233h1.885
				c-0.025,0.496-0.091,1.271-0.839,1.894c-0.465,0.394-1.046,0.597-1.859,0.597c-0.864,0-1.626-0.19-2.22-0.852
				c-0.568-0.648-0.826-1.5-0.826-2.529c0-2.923,2.182-3.33,3.046-3.33c1.214,0,2.646,0.661,2.659,2.402H126.996z"/>
			<path fill="#231F20" d="M129.999,79.315h1.911v9.19h-1.911V79.315z"/>
			<path fill="#231F20" d="M133.521,79.328h2.04v1.64h-2.04V79.328z M133.586,82.073h1.911v6.432h-1.911V82.073z"/>
			<path fill="#231F20" d="M137.199,83.23c0-0.025,0-0.725-0.039-1.169h1.833l0.052,0.966c0.181-0.292,0.697-1.119,2.117-1.119
				c1.277,0,1.82,0.763,1.988,1.208c0.142,0.394,0.181,0.725,0.181,1.919v3.47h-1.949v-3.991c0-0.267,0-0.496-0.104-0.699
				c-0.143-0.279-0.439-0.546-0.93-0.546c-0.413,0-0.787,0.191-0.994,0.496c-0.116,0.166-0.232,0.483-0.232,0.979v3.762h-1.923
				V83.23z"/>
			<path fill="#231F20" d="M144.991,79.328h2.04v1.64h-2.04V79.328z M145.055,82.073h1.911v6.432h-1.911V82.073z"/>
			<path fill="#231F20" d="M152.089,84.362c-0.026-0.229-0.104-1.182-0.84-1.182c-0.903,0-1.007,1.347-1.007,2.046
				c0,0.356,0.039,1.5,0.478,1.97c0.181,0.19,0.375,0.216,0.517,0.216c0.207,0,0.801-0.089,0.878-1.233h1.885
				c-0.025,0.496-0.091,1.271-0.839,1.894c-0.465,0.394-1.046,0.597-1.859,0.597c-0.864,0-1.626-0.19-2.22-0.852
				c-0.568-0.648-0.826-1.5-0.826-2.529c0-2.923,2.182-3.33,3.046-3.33c1.214,0,2.646,0.661,2.659,2.402H152.089z"/>
			<path fill="#231F20" d="M159.004,88.505c-0.064-0.394-0.064-0.687-0.064-0.877c-0.723,1.029-1.588,1.029-1.949,1.029
				c-0.942,0-1.368-0.267-1.626-0.508c-0.388-0.381-0.568-0.902-0.568-1.411c0-0.509,0.181-1.449,1.382-1.996
				c0.8-0.356,1.949-0.356,2.581-0.356c0-0.419-0.013-0.623-0.09-0.852c-0.168-0.47-0.672-0.534-0.853-0.534
				c-0.271,0-0.555,0.115-0.723,0.356c-0.142,0.216-0.142,0.419-0.142,0.572h-1.872c0.013-0.343,0.052-1.03,0.735-1.513
				c0.595-0.419,1.355-0.521,1.976-0.521c0.542,0,1.678,0.089,2.323,0.826c0.439,0.521,0.452,1.284,0.452,1.576l0.013,2.58
				c0,0.546,0.039,1.093,0.155,1.627H159.004z M156.655,86.522c0,0.432,0.297,0.915,0.929,0.915c0.349,0,0.633-0.165,0.813-0.369
				c0.336-0.407,0.361-0.902,0.361-1.588C157.533,85.378,156.655,85.76,156.655,86.522z"/>
			<path fill="#231F20" d="M162.265,79.315h1.911v9.19h-1.911V79.315z"/>
			<path fill="#231F20" d="M174.409,79.315l3.24,9.19h-2.014l-0.671-1.983h-3.692l-0.697,1.983h-1.91l3.369-9.19H174.409z
				 M174.461,85.035l-1.291-3.915l-1.381,3.915H174.461z"/>
			<path fill="#231F20" d="M180.406,85.569c0,0.432-0.025,1.741,1.691,1.741c1.084,0,1.769-0.508,1.769-1.284
				c0-0.813-0.581-0.953-1.769-1.233c-2.221-0.546-3.434-1.195-3.434-2.784c0-1.513,1.097-2.847,3.691-2.847
				c0.969,0,2.117,0.216,2.814,1.081c0.529,0.661,0.529,1.398,0.529,1.703h-1.924c-0.025-0.318-0.129-1.398-1.51-1.398
				c-0.93,0-1.536,0.496-1.536,1.246c0,0.852,0.684,1.004,2.026,1.335c1.613,0.381,3.201,0.813,3.201,2.605
				c0,1.652-1.394,2.987-3.976,2.987c-3.576,0-3.602-2.263-3.614-3.152H180.406z"/>
			<path fill="#231F20" d="M192.665,82.315c-0.039-0.318-0.155-1.614-1.51-1.614c-1.485,0-2.104,1.525-2.104,3.419
				c0,0.547,0,3.152,1.949,3.152c0.839,0,1.64-0.521,1.678-1.741h2.104c-0.039,0.546-0.091,1.398-0.839,2.161
				c-0.826,0.839-1.872,1.03-2.724,1.03c-3.215,0-4.261-2.339-4.261-4.614c0-2.911,1.652-4.843,4.273-4.843
				c2.039,0,3.473,1.22,3.473,3.051H192.665z"/>
			<path fill="#231F20" d="M197.463,79.353l2.439,7.207l2.453-7.207h1.975l-3.434,9.152h-2.182l-3.434-9.152H197.463z"/>
			<path fill="#231F20" d="M205.279,79.341l3.086,0.013c0.516,0,2.091,0.013,3.214,0.827c1.175,0.852,1.588,2.3,1.588,3.609
				c0,2.822-1.536,4.296-3.305,4.614c-0.349,0.063-0.736,0.102-1.679,0.102h-2.904V79.341z M207.306,86.992
				c0.219,0.013,0.555,0.025,0.787,0.025c0.852,0,1.588-0.063,2.169-0.635c0.787-0.775,0.839-2.148,0.839-2.593
				c0-1.296-0.452-2.491-1.704-2.834c-0.413-0.114-0.942-0.178-2.091-0.127V86.992z"/>
			<path fill="#231F20" d="M221.253,81.934c2.362,0,3.383,1.576,3.383,3.368c0,1.805-1.059,3.432-3.421,3.432
				c-1.859,0-3.331-1.131-3.331-3.381C217.884,83.802,218.684,81.934,221.253,81.934z M221.279,87.425
				c0.839,0,1.407-0.496,1.407-2.199c0-0.852-0.168-2.034-1.434-2.034c-1.394,0-1.407,1.589-1.407,2.173
				C219.846,86.802,220.337,87.425,221.279,87.425z"/>
			<path fill="#231F20" d="M226.063,83.662c0-0.305-0.052-1.233-0.09-1.602h1.794l0.039,1.233c0.245-0.546,0.671-1.322,2.22-1.246
				v1.69c-1.936-0.178-2.052,0.801-2.052,1.602v3.165h-1.911V83.662z"/>
			<path fill="#231F20" d="M238.98,79.328h1.924v8.135c0,0.381,0.025,0.801,0.052,1.042h-1.937l-0.052-0.928
				c-0.129,0.229-0.258,0.47-0.658,0.724c-0.478,0.305-0.981,0.331-1.266,0.331c-1.742,0-2.775-1.182-2.775-3.19
				c0-2.123,1.175-3.444,2.879-3.444c1.175,0,1.665,0.648,1.833,0.877V79.328z M237.522,87.412c0.555,0,1.007-0.33,1.213-0.724
				c0.284-0.534,0.31-1.195,0.31-1.513c0-1.258-0.555-1.945-1.42-1.945c-1.277,0-1.42,1.513-1.42,2.161
				C236.205,86.459,236.566,87.412,237.522,87.412z"/>
			<path fill="#231F20" d="M242.487,79.328h2.04v1.64h-2.04V79.328z M242.552,82.073h1.911v6.432h-1.911V82.073z"/>
			<path fill="#231F20" d="M250.049,88.505c-0.064-0.394-0.064-0.687-0.064-0.877c-0.723,1.029-1.588,1.029-1.949,1.029
				c-0.942,0-1.368-0.267-1.626-0.508c-0.388-0.381-0.568-0.902-0.568-1.411c0-0.509,0.181-1.449,1.382-1.996
				c0.8-0.356,1.949-0.356,2.581-0.356c0-0.419-0.013-0.623-0.09-0.852c-0.168-0.47-0.672-0.534-0.853-0.534
				c-0.271,0-0.555,0.115-0.723,0.356c-0.142,0.216-0.142,0.419-0.142,0.572h-1.872c0.013-0.343,0.052-1.03,0.735-1.513
				c0.595-0.419,1.355-0.521,1.976-0.521c0.542,0,1.678,0.089,2.323,0.826c0.439,0.521,0.452,1.284,0.452,1.576l0.013,2.58
				c0,0.546,0.039,1.093,0.155,1.627H250.049z M247.7,86.522c0,0.432,0.297,0.915,0.929,0.915c0.349,0,0.633-0.165,0.813-0.369
				c0.336-0.407,0.361-0.902,0.361-1.588C248.578,85.378,247.7,85.76,247.7,86.522z"/>
			<path fill="#231F20" d="M253.247,79.341h1.911v3.521c0.645-0.839,1.51-0.864,1.846-0.864c1.588,0,2.84,1.233,2.84,3.394
				c0,2.402-1.42,3.241-2.724,3.241c-0.336,0-1.368-0.025-1.962-1.029c-0.014,0.203-0.026,0.508-0.065,0.902h-1.846V79.341z
				 M256.487,83.256c-1.407,0-1.407,1.576-1.407,1.983c0,1.462,0.633,2.161,1.498,2.161c1.316,0,1.316-1.614,1.316-1.944
				C257.894,84.946,257.868,83.256,256.487,83.256z"/>
			<path fill="#231F20" d="M262.73,85.772c0,0.419,0,1.716,1.33,1.716c0.478,0,0.955-0.178,1.136-0.89h1.743
				c-0.026,0.305-0.091,0.852-0.62,1.398c-0.478,0.496-1.329,0.75-2.285,0.75c-0.555,0-1.613-0.102-2.298-0.801
				c-0.594-0.61-0.839-1.475-0.839-2.504c0-1.042,0.259-2.288,1.355-3.038c0.504-0.331,1.123-0.534,1.833-0.534
				c0.93,0,2.04,0.356,2.634,1.55c0.438,0.877,0.413,1.818,0.387,2.352H262.73z M265.157,84.59c0-0.292-0.025-1.436-1.136-1.436
				c-0.839,0-1.188,0.687-1.227,1.436H265.157z"/>
			<path fill="#231F20" d="M272.201,88.416c-0.619,0.165-1.175,0.203-1.484,0.203c-1.924,0-1.924-1.195-1.924-1.729V83.37h-1.252
				v-1.246h1.252v-1.258l1.898-0.686v1.944h1.549v1.246h-1.549v2.898c0.013,0.584,0.013,0.953,0.864,0.953
				c0.284,0,0.413-0.013,0.646-0.038V88.416z"/>
			<path fill="#231F20" d="M274.922,85.772c0,0.419,0,1.716,1.33,1.716c0.478,0,0.955-0.178,1.136-0.89h1.743
				c-0.026,0.305-0.091,0.852-0.62,1.398c-0.478,0.496-1.329,0.75-2.285,0.75c-0.555,0-1.613-0.102-2.298-0.801
				c-0.594-0.61-0.839-1.475-0.839-2.504c0-1.042,0.259-2.288,1.355-3.038c0.504-0.331,1.123-0.534,1.833-0.534
				c0.93,0,2.04,0.356,2.634,1.55c0.438,0.877,0.413,1.818,0.387,2.352H274.922z M277.348,84.59c0-0.292-0.025-1.436-1.136-1.436
				c-0.839,0-1.188,0.687-1.227,1.436H277.348z"/>
			<path fill="#231F20" d="M281.889,86.649c0.025,0.407,0.284,0.877,1.084,0.877c0.685,0,1.007-0.381,1.007-0.763
				c0-0.292-0.154-0.521-0.903-0.725l-1.188-0.318c-0.529-0.152-1.652-0.47-1.652-1.779c0-1.246,1.161-2.008,2.853-2.008
				c1.343,0,2.427,0.61,2.479,1.894h-1.742c-0.052-0.712-0.633-0.763-0.93-0.763c-0.517,0-0.904,0.241-0.904,0.635
				c0,0.432,0.323,0.521,0.892,0.674l1.175,0.318c1.188,0.317,1.742,0.915,1.742,1.792c0,1.106-0.968,2.211-2.995,2.211
				c-0.839,0-1.64-0.178-2.233-0.788c-0.426-0.445-0.464-0.954-0.478-1.259H281.889z"/>
			<path fill="#231F20" d="M294.508,88.505c-0.064-0.394-0.064-0.687-0.064-0.877c-0.723,1.029-1.588,1.029-1.949,1.029
				c-0.942,0-1.368-0.267-1.626-0.508c-0.388-0.381-0.568-0.902-0.568-1.411c0-0.509,0.181-1.449,1.382-1.996
				c0.8-0.356,1.949-0.356,2.581-0.356c0-0.419-0.013-0.623-0.09-0.852c-0.168-0.47-0.672-0.534-0.853-0.534
				c-0.271,0-0.555,0.115-0.723,0.356c-0.142,0.216-0.142,0.419-0.142,0.572h-1.872c0.013-0.343,0.052-1.03,0.735-1.513
				c0.595-0.419,1.355-0.521,1.976-0.521c0.542,0,1.678,0.089,2.323,0.826c0.439,0.521,0.452,1.284,0.452,1.576l0.013,2.58
				c0,0.546,0.039,1.093,0.155,1.627H294.508z M292.159,86.522c0,0.432,0.297,0.915,0.929,0.915c0.349,0,0.633-0.165,0.813-0.369
				c0.336-0.407,0.361-0.902,0.361-1.588C293.037,85.378,292.159,85.76,292.159,86.522z"/>
			<path fill="#231F20" d="M297.796,83.23c0-0.025,0-0.725-0.039-1.169h1.833l0.052,0.966c0.181-0.292,0.697-1.119,2.117-1.119
				c1.277,0,1.82,0.763,1.987,1.208c0.143,0.394,0.182,0.725,0.182,1.919v3.47h-1.949v-3.991c0-0.267,0-0.496-0.104-0.699
				c-0.143-0.279-0.439-0.546-0.93-0.546c-0.413,0-0.787,0.191-0.994,0.496c-0.116,0.166-0.232,0.483-0.232,0.979v3.762h-1.923
				V83.23z"/>
			<path fill="#231F20" d="M309.964,79.328h1.924v8.135c0,0.381,0.025,0.801,0.052,1.042h-1.937l-0.052-0.928
				c-0.129,0.229-0.258,0.47-0.658,0.724c-0.478,0.305-0.981,0.331-1.266,0.331c-1.742,0-2.775-1.182-2.775-3.19
				c0-2.123,1.175-3.444,2.879-3.444c1.175,0,1.665,0.648,1.833,0.877V79.328z M308.506,87.412c0.555,0,1.007-0.33,1.213-0.724
				c0.284-0.534,0.31-1.195,0.31-1.513c0-1.258-0.555-1.945-1.42-1.945c-1.277,0-1.42,1.513-1.42,2.161
				C307.188,86.459,307.55,87.412,308.506,87.412z"/>
			<path fill="#231F20" d="M318.374,82.086l1.201,4.843l1.381-4.843h2.104l1.368,4.843l1.278-4.843h1.897l-2.233,6.419h-2.078
				l-1.343-4.754l-1.368,4.754h-2.104l-2.13-6.419H318.374z"/>
			<path fill="#231F20" d="M328.527,79.328h2.04v1.64h-2.04V79.328z M328.592,82.073h1.911v6.432h-1.911V82.073z"/>
			<path fill="#231F20" d="M336.012,88.416c-0.619,0.165-1.175,0.203-1.484,0.203c-1.924,0-1.924-1.195-1.924-1.729V83.37h-1.252
				v-1.246h1.252v-1.258l1.898-0.686v1.944h1.549v1.246h-1.549v2.898c0.013,0.584,0.013,0.953,0.864,0.953
				c0.284,0,0.413-0.013,0.646-0.038V88.416z"/>
			<path fill="#231F20" d="M337.248,79.328h1.897v3.635c0.22-0.305,0.697-0.966,1.885-0.966c0.969,0,1.588,0.47,1.897,0.864
				c0.232,0.318,0.427,0.902,0.427,1.741v3.902h-1.898v-3.838c0-0.369,0-1.398-1.071-1.398c-0.542,0-1.227,0.305-1.227,1.309
				l0.014,3.928h-1.924V79.328z"/>
			<path fill="#231F20" d="M348.718,79.328h2.04v7.614h4.001v1.563h-6.041V79.328z"/>
			<path fill="#231F20" d="M355.901,78.648l3.315,0.014c0.555,0,2.247,0.014,3.453,0.889c1.263,0.916,1.706,2.475,1.706,3.883
				c0,3.035-1.65,4.621-3.551,4.963c-0.374,0.068-0.79,0.109-1.803,0.109h-3.121V78.648z M358.079,86.878
				c0.236,0.014,0.597,0.027,0.846,0.027c0.916,0,1.706-0.068,2.331-0.684c0.846-0.834,0.901-2.311,0.901-2.789
				c0-1.395-0.485-2.68-1.831-3.049c-0.443-0.123-1.013-0.191-2.247-0.137V86.878z"/>
			<path fill="#231F20" d="M365.97,78.634h2.191v8.189h4.3v1.682h-6.491V78.634z"/>
			<path fill="#231F20" d="M373.334,84.116h3.439v1.545h-3.439V84.116z"/>
			<path fill="#231F20" d="M383.943,81.847c-0.042-0.342-0.167-1.736-1.623-1.736c-1.595,0-2.261,1.641-2.261,3.678
				c0,0.588,0,3.391,2.094,3.391c0.902,0,1.762-0.561,1.804-1.873h2.261c-0.042,0.588-0.097,1.504-0.901,2.324
				c-0.888,0.902-2.012,1.107-2.927,1.107c-3.454,0-4.577-2.516-4.577-4.963c0-3.131,1.775-5.209,4.591-5.209
				c2.191,0,3.731,1.313,3.731,3.281H383.943z"/>
			<path fill="#231F20" d="M386.801,83.349l1.828-5.034h1.262l1.763,5.026v0.613h-4.853V83.349z M390.521,83.118l-0.85-2.262
				c-0.121-0.422-0.355-1.075-0.444-1.417h-0.024c-0.064,0.279-0.291,0.86-0.412,1.298l-0.898,2.381H390.521z"/>
			<path fill="#231F20" d="M395.934,79.646h6.106v1.576l-3.099,7.283h-2.155l3.291-7.385h-4.144V79.646z"/>
			<path fill="#231F20" d="M406.258,79.506c1.266,0,2.015,0.674,2.35,1.169c0.465,0.673,0.813,1.538,0.813,3.203
				c0,2.059-0.478,4.766-3.188,4.766c-2.311,0-3.111-2.186-3.111-4.55C403.121,82.912,403.366,79.506,406.258,79.506z
				 M407.252,82.01c-0.052-0.242-0.271-1.03-0.98-1.03c-0.556,0-0.801,0.496-0.891,0.763c-0.297,0.903-0.297,2.263-0.297,2.479
				c0,1.513,0.232,2.924,1.2,2.924c1.032,0,1.2-1.729,1.2-2.949C407.484,83.637,407.42,82.594,407.252,82.01z"/>
			<path fill="#231F20" d="M410.372,84.425h3.201v1.436h-3.201V84.425z"/>
			<path fill="#231F20" d="M415.326,80.968c0.839-0.355,1.64-0.801,2.388-1.334h1.665v8.872h-1.949v-6.902
				c-0.374,0.28-1.123,0.737-2.104,1.131V80.968z"/>
			<path fill="#231F20" d="M421.815,81.959c0-1.081,0.917-2.479,3.111-2.479c1.808,0,3.06,1.017,3.06,2.402
				c0,1.067-0.853,1.805-1.769,1.945c0.361,0.102,0.968,0.254,1.445,0.915c0.311,0.432,0.413,0.89,0.413,1.322
				c0,1.627-1.536,2.58-3.305,2.58c-1.833,0-3.098-1.157-3.098-2.58c0-0.687,0.271-1.182,0.658-1.551
				c0.438-0.419,0.852-0.546,1.188-0.661C423.067,83.713,421.815,83.332,421.815,81.959z M426.179,85.938
				c0-0.801-0.606-1.284-1.291-1.284c-0.748,0-1.291,0.559-1.291,1.309c0,0.902,0.685,1.322,1.304,1.322
				C425.443,87.285,426.179,86.929,426.179,85.938z M426.114,81.985c0-0.725-0.594-1.106-1.2-1.106
				c-0.646,0-1.175,0.432-1.175,1.106c0,0.623,0.451,1.144,1.161,1.144C425.559,83.129,426.114,82.697,426.114,81.985z"/>
			<path fill="#231F20" d="M430.821,86.344c0.052,0.534,0.4,0.864,0.942,0.864c1.343,0,1.446-1.373,1.407-2.593
				c-0.646,0.572-1.227,0.61-1.626,0.61c-2.208,0-2.776-1.729-2.776-2.784c0-1.652,1.201-2.911,3.188-2.911
				c3.099,0,3.176,2.898,3.176,4.322c0,3.75-1.291,4.817-3.473,4.817c-0.503,0-2.788,0-2.788-2.326H430.821z M433.132,82.315
				c0-0.775-0.413-1.348-1.2-1.348c-0.916,0-1.252,0.725-1.252,1.398c0,0.305,0.09,1.398,1.213,1.398
				C432.848,83.764,433.132,82.938,433.132,82.315z"/>
			<path fill="#231F20" d="M440.084,83.294c0-0.407-0.026-0.801-0.064-1.208h1.846l0.064,0.826c0.207-0.279,0.71-0.966,2.014-0.966
				c1.498,0,1.924,0.902,2.053,1.208c0.542-1.03,1.42-1.195,2.092-1.195c1.316,0,1.846,0.775,1.987,1.029
				c0.349,0.56,0.323,1.335,0.323,1.894v3.623h-1.924V84.73c0-0.687-0.104-1.449-1.098-1.449c-1.148,0-1.174,1.055-1.174,2.008
				v3.216h-1.924v-3.813c0-0.496-0.013-1.411-1.071-1.411c-1.201,0-1.201,1.017-1.201,1.449v3.775h-1.923V83.294z"/>
			<path fill="#231F20" d="M458.407,82.112c-0.052,0.509-0.091,0.941-0.091,1.589v4.741c0,2.364-2,2.593-3.253,2.593
				c-0.929,0-2.749-0.114-2.865-2.059h1.833c0.025,0.191,0.116,0.89,1.136,0.89c0.568,0,1.059-0.267,1.188-0.839
				c0.078-0.317,0.078-0.546,0.091-1.525c-0.607,0.788-1.291,0.877-1.756,0.877c-1.872,0-2.75-1.602-2.75-3.152
				c0-1.627,0.917-3.178,2.789-3.178c1.188,0,1.626,0.636,1.82,0.915l0.064-0.852H458.407z M455.128,87.094
				c1.343,0,1.343-1.551,1.343-1.831c0-0.725-0.142-1.958-1.304-1.958c-0.723,0-1.316,0.547-1.316,1.919
				C453.85,85.544,453.85,87.094,455.128,87.094z"/>
			<path fill="#231F20" d="M464.625,79.379l-3.473,9.126h-1.511l3.499-9.126H464.625z"/>
			<path fill="#231F20" d="M470.146,79.328h1.924v8.135c0,0.381,0.025,0.801,0.052,1.042h-1.937l-0.052-0.928
				c-0.129,0.229-0.258,0.47-0.658,0.724c-0.478,0.305-0.981,0.331-1.266,0.331c-1.742,0-2.775-1.182-2.775-3.19
				c0-2.123,1.175-3.444,2.879-3.444c1.175,0,1.665,0.648,1.833,0.877V79.328z M468.688,87.412c0.555,0,1.007-0.33,1.213-0.724
				c0.284-0.534,0.31-1.195,0.31-1.513c0-1.258-0.555-1.945-1.42-1.945c-1.277,0-1.42,1.513-1.42,2.161
				C467.371,86.459,467.732,87.412,468.688,87.412z"/>
			<path fill="#231F20" d="M473.769,79.328h2.04v7.614h4.001v1.563h-6.041V79.328z"/>
			<path fill="#231F20" d="M481.007,86.815h1.64v1.69h-1.64V86.815z"/>
		</g>
	</g>
</g>
</svg>
