<?xml version="1.0" encoding="utf-8"?>
<!-- Generator: Adobe Illustrator 17.0.0, SVG Export Plug-In . SVG Version: 6.00 Build 0)  -->
<!DOCTYPE svg PUBLIC "-//W3C//DTD SVG 1.1//EN" "http://www.w3.org/Graphics/SVG/1.1/DTD/svg11.dtd">
<svg version="1.1" id="Layer_1" xmlns="http://www.w3.org/2000/svg" xmlns:xlink="http://www.w3.org/1999/xlink" x="0px" y="0px"
	 width="147.024px" height="26.206px" viewBox="0 0 147.024 26.206" enable-background="new 0 0 147.024 26.206"
	 xml:space="preserve">
<g>
	<g>
		<path fill="#484849" d="M12.232,0h1.469l2.951,8.957h-1.293l-0.653-2.134h-3.504l-0.678,2.134H9.356L12.232,0z M12.936,1.055
			H12.91l-1.419,4.776h2.901L12.936,1.055z"/>
		<path fill="#484849" d="M21.101,0h1.03v8.957h-1.03V8.213h-0.024c-0.352,0.583-0.792,0.868-1.457,0.868
			c-1.018,0-2.047-0.396-2.047-3.151c0-1.563,0.05-3.361,2.097-3.361c0.604,0,1.043,0.261,1.395,0.757h0.037V0z M19.908,3.399
			c-1.105,0-1.256,0.868-1.256,2.543c0,0.943,0,2.308,1.293,2.308c1.155,0,1.155-1.414,1.155-2.68
			C21.101,4.739,21.051,3.399,19.908,3.399z"/>
		<path fill="#484849" d="M27.421,2.692h1.029v4.962c0,0.435,0.025,0.868,0.063,1.303h-1.093V8.2h-0.038
			c-0.339,0.57-0.941,0.881-1.607,0.881c-1.104,0-1.708-0.546-1.708-1.612V2.692h1.03v4.342c0,0.757,0.352,1.266,1.08,1.266
			c0.553,0,1.243-0.409,1.243-1.452V2.692z"/>
		<path fill="#484849" d="M31.316,8.957h-1.03V0h1.03V8.957z"/>
		<path fill="#484849" d="M33.214,2.692V1.489l1.029-0.459v1.662h1.382v0.77h-1.382v3.833c0,0.396,0,0.905,0.942,0.905
			c0.075,0,0.238-0.024,0.464-0.05v0.782c-0.339,0.024-0.678,0.099-1.017,0.099c-0.979,0-1.419-0.396-1.419-1.116V3.462h-1.043
			v-0.77H33.214z"/>
		<path fill="#484849" d="M38.464,9.081c-1.369,0-2.223-0.596-2.186-2.034h1.168c0,0.359,0.013,1.203,1.056,1.203
			c0.615,0,1.092-0.311,1.092-0.955c0-1.117-3.164-1.142-3.164-3.015c0-0.657,0.401-1.712,2.185-1.712
			c1.131,0,2.098,0.533,2.01,1.773h-1.143c0.012-0.657-0.34-1.005-0.992-1.005c-0.553,0-0.979,0.298-0.979,0.844
			c0,1.104,3.164,1.079,3.164,2.99C40.674,8.548,39.72,9.081,38.464,9.081z"/>
		<path fill="#484849" d="M48.225,8.052H48.2c-0.314,0.719-0.804,1.029-1.596,1.029c-1.343,0-1.732-0.855-1.732-2.06
			c0-1.897,1.884-1.984,3.328-1.947c0.024-0.831,0.037-1.737-1.067-1.737c-0.691,0-1.056,0.46-0.992,1.117h-1.118
			c0.051-1.402,0.804-1.886,2.147-1.886c1.633,0,2.06,0.831,2.06,1.886v3.015c0,0.496,0.05,1.005,0.126,1.488h-1.131V8.052z
			 M45.901,7.097c0,0.607,0.302,1.153,0.992,1.153c0.628,0,1.406-0.385,1.307-2.406C47.221,5.855,45.901,5.769,45.901,7.097z"/>
		<path fill="#484849" d="M54.594,2.692h1.03V9.59c0,1.401-0.942,1.736-2.336,1.736c-1.055,0-2.01-0.521-1.922-1.675h1.156
			c0.012,0.583,0.401,0.906,0.967,0.906c0.716,0,1.104-0.435,1.104-1.079V8.176h-0.037c-0.264,0.496-0.842,0.781-1.395,0.781
			c-1.72,0-2.06-1.464-2.06-3.324c0-2.879,1.47-3.064,1.984-3.064c0.666,0,1.193,0.285,1.482,0.894h0.024V2.692z M53.389,3.412
			c-1.168,0-1.206,1.389-1.206,2.221c0,2.009,0.465,2.48,1.231,2.48c1.243,0,1.205-1.451,1.205-2.319
			C54.619,4.863,54.682,3.412,53.389,3.412z"/>
		<path fill="#484849" d="M58.528,6.153c0,1.749,0.477,2.097,1.28,2.097c0.703,0,1.067-0.559,1.105-1.191h1.13
			c-0.013,1.39-0.879,2.022-2.21,2.022c-1.344,0-2.411-0.396-2.411-3.163c0-1.836,0.214-3.35,2.411-3.35
			c1.809,0,2.261,0.979,2.261,3.052v0.533H58.528z M61.002,5.385c0-1.824-0.515-2.048-1.269-2.048c-0.653,0-1.193,0.311-1.205,2.048
			H61.002z"/>
		<path fill="#484849" d="M70.462,5.818l-4.258-2.345V2.568l5.237,2.854v0.794l-5.237,2.902V8.213L70.462,5.818z"/>
		<path fill="#484849" d="M72.511,8.957V7.965c2.549-3.523,3.303-4.168,3.303-5.657c0-0.683-0.339-1.142-1.08-1.142
			c-0.866,0-1.029,0.708-1.018,1.402h-1.18c-0.101-1.427,0.628-2.357,2.109-2.357c1.569,0,2.323,0.707,2.323,2.258
			c0,1.923-0.979,2.568-3.228,5.496h3.454v0.992H72.511z"/>
		<path fill="#484849" d="M81.178,8.957h-1.155V1.601l-1.306,0.868V1.377c0.289-0.124,1.117-0.744,1.469-1.029h0.992V8.957z"/>
		<path fill="#484849" d="M88.729,7.791h0.024l1.52-5.099h1.118l-2.876,8.634h-1.067l0.716-2.369l-2.147-6.265h1.193L88.729,7.791z"
			/>
		<path fill="#484849" d="M93.402,6.153c0,1.749,0.477,2.097,1.28,2.097c0.703,0,1.067-0.559,1.105-1.191h1.13
			c-0.013,1.39-0.879,2.022-2.21,2.022c-1.344,0-2.411-0.396-2.411-3.163c0-1.836,0.214-3.35,2.411-3.35
			c1.809,0,2.261,0.979,2.261,3.052v0.533H93.402z M95.876,5.385c0-1.824-0.515-2.048-1.269-2.048c-0.653,0-1.193,0.311-1.205,2.048
			H95.876z"/>
		<path fill="#484849" d="M101.944,8.052h-0.024c-0.314,0.719-0.804,1.029-1.596,1.029c-1.344,0-1.732-0.855-1.732-2.06
			c0-1.897,1.884-1.984,3.328-1.947c0.024-0.831,0.037-1.737-1.067-1.737c-0.691,0-1.056,0.46-0.992,1.117h-1.118
			c0.051-1.402,0.804-1.886,2.147-1.886c1.633,0,2.06,0.831,2.06,1.886v3.015c0,0.496,0.051,1.005,0.126,1.488h-1.131V8.052z
			 M99.621,7.097c0,0.607,0.302,1.153,0.992,1.153c0.628,0,1.406-0.385,1.307-2.406C100.94,5.855,99.621,5.769,99.621,7.097z"/>
		<path fill="#484849" d="M106.028,3.635h0.025c0.427-0.955,0.954-1.066,1.959-1.066v1.055c-0.088-0.013-0.188-0.025-0.276-0.037
			c-0.088-0.013-0.176-0.025-0.276-0.025c-1.143,0-1.432,0.856-1.432,1.699v3.697h-1.03V2.692h1.03V3.635z"/>
		<path fill="#484849" d="M111.016,9.081c-1.369,0-2.223-0.596-2.186-2.034h1.168c0,0.359,0.013,1.203,1.055,1.203
			c0.616,0,1.093-0.311,1.093-0.955c0-1.117-3.164-1.142-3.164-3.015c0-0.657,0.401-1.712,2.185-1.712
			c1.131,0,2.098,0.533,2.01,1.773h-1.143c0.012-0.657-0.34-1.005-0.992-1.005c-0.553,0-0.979,0.298-0.979,0.844
			c0,1.104,3.164,1.079,3.164,2.99C113.226,8.548,112.271,9.081,111.016,9.081z"/>
		<path fill="#484849" d="M120.775,8.052h-0.024c-0.314,0.719-0.804,1.029-1.596,1.029c-1.343,0-1.732-0.855-1.732-2.06
			c0-1.897,1.884-1.984,3.328-1.947c0.024-0.831,0.037-1.737-1.067-1.737c-0.691,0-1.056,0.46-0.992,1.117h-1.118
			c0.051-1.402,0.804-1.886,2.147-1.886c1.633,0,2.06,0.831,2.06,1.886v3.015c0,0.496,0.05,1.005,0.126,1.488h-1.131V8.052z
			 M118.452,7.097c0,0.607,0.302,1.153,0.992,1.153c0.628,0,1.406-0.385,1.307-2.406C119.771,5.855,118.452,5.769,118.452,7.097z"/>
		<path fill="#484849" d="M127.233,8.957V4.615c0-0.67-0.238-1.216-1.117-1.216c-1.13,0-1.294,0.992-1.294,1.849v3.709h-1.029V3.995
			c0-0.435-0.025-0.868-0.063-1.303h1.092v0.807h0.051c0.401-0.707,0.879-0.931,1.695-0.931c1.356,0,1.695,0.807,1.695,2.047v4.342
			H127.233z"/>
		<path fill="#484849" d="M133.427,0h1.03v8.957h-1.03V8.213h-0.024c-0.352,0.583-0.792,0.868-1.457,0.868
			c-1.018,0-2.047-0.396-2.047-3.151c0-1.563,0.05-3.361,2.097-3.361c0.604,0,1.043,0.261,1.395,0.757h0.037V0z M132.234,3.399
			c-1.105,0-1.256,0.868-1.256,2.543c0,0.943,0,2.308,1.293,2.308c1.155,0,1.155-1.414,1.155-2.68
			C133.427,4.739,133.377,3.399,132.234,3.399z"/>
	</g>
	<g>
		<path fill="#484849" d="M3.353,22.932H3.328c-0.314,0.719-0.804,1.029-1.596,1.029C0.389,23.961,0,23.105,0,21.901
			c0-1.897,1.884-1.984,3.328-1.947c0.024-0.831,0.037-1.737-1.067-1.737c-0.691,0-1.056,0.459-0.992,1.117H0.15
			c0.051-1.402,0.804-1.886,2.147-1.886c1.633,0,2.06,0.831,2.06,1.886v3.015c0,0.496,0.051,1.005,0.126,1.488H3.353V22.932z
			 M1.029,21.977c0,0.607,0.302,1.153,0.992,1.153c0.628,0,1.406-0.385,1.307-2.406C2.349,20.735,1.029,20.648,1.029,21.977z"/>
		<path fill="#484849" d="M12.474,19.582c0.024-1.03-0.49-1.303-0.879-1.303c-0.792,0-1.331,0.372-1.331,2.084
			c0,2.034,0.264,2.767,1.331,2.767c0.238,0,0.954-0.248,0.916-1.377h1.08c0.038,1.762-1.293,2.208-1.996,2.208
			c-1.344,0-2.411-0.396-2.411-3.163c0-1.836,0.213-3.35,2.411-3.35c1.268,0,2.009,0.731,1.946,2.134H12.474z"/>
		<path fill="#484849" d="M18.705,22.932h-0.024c-0.314,0.719-0.804,1.029-1.596,1.029c-1.343,0-1.732-0.855-1.732-2.06
			c0-1.897,1.884-1.984,3.328-1.947c0.024-0.831,0.037-1.737-1.067-1.737c-0.691,0-1.056,0.459-0.992,1.117h-1.118
			c0.051-1.402,0.804-1.886,2.147-1.886c1.633,0,2.06,0.831,2.06,1.886v3.015c0,0.496,0.05,1.005,0.126,1.488h-1.131V22.932z
			 M16.382,21.977c0,0.607,0.302,1.153,0.992,1.153c0.628,0,1.406-0.385,1.307-2.406C17.701,20.735,16.382,20.648,16.382,21.977z"/>
		<path fill="#484849" d="M25.162,23.837v-4.342c0-0.67-0.238-1.216-1.117-1.216c-1.13,0-1.294,0.992-1.294,1.849v3.709h-1.029
			v-4.962c0-0.435-0.025-0.868-0.063-1.303h1.092v0.807h0.051c0.401-0.707,0.879-0.931,1.695-0.931c1.356,0,1.695,0.807,1.695,2.047
			v4.342H25.162z"/>
		<path fill="#484849" d="M31.355,14.88h1.03v8.957h-1.03v-0.744h-0.024c-0.352,0.583-0.792,0.868-1.457,0.868
			c-1.018,0-2.047-0.396-2.047-3.151c0-1.563,0.05-3.361,2.097-3.361c0.604,0,1.043,0.261,1.395,0.757h0.037V14.88z M30.163,18.279
			c-1.105,0-1.256,0.868-1.256,2.543c0,0.943,0,2.308,1.293,2.308c1.155,0,1.155-1.414,1.155-2.68
			C31.355,19.619,31.306,18.279,30.163,18.279z"/>
		<path fill="#484849" d="M34.197,14.88h1.155v1.092h-1.155V14.88z M35.29,23.837h-1.03v-6.265h1.03V23.837z"/>
		<path fill="#484849" d="M40.427,14.88h1.03v8.957h-1.03v-0.744h-0.024c-0.352,0.583-0.792,0.868-1.457,0.868
			c-1.018,0-2.047-0.396-2.047-3.151c0-1.563,0.05-3.361,2.097-3.361c0.604,0,1.043,0.261,1.395,0.757h0.037V14.88z M39.234,18.279
			c-1.105,0-1.256,0.868-1.256,2.543c0,0.943,0,2.308,1.293,2.308c1.155,0,1.155-1.414,1.155-2.68
			C40.427,19.619,40.377,18.279,39.234,18.279z"/>
		<path fill="#484849" d="M46.62,22.932h-0.024c-0.314,0.719-0.804,1.029-1.596,1.029c-1.344,0-1.732-0.855-1.732-2.06
			c0-1.897,1.884-1.984,3.328-1.947c0.024-0.831,0.037-1.737-1.067-1.737c-0.691,0-1.056,0.459-0.992,1.117h-1.118
			c0.051-1.402,0.804-1.886,2.147-1.886c1.633,0,2.06,0.831,2.06,1.886v3.015c0,0.496,0.051,1.005,0.126,1.488H46.62V22.932z
			 M44.297,21.977c0,0.607,0.302,1.153,0.992,1.153c0.628,0,1.406-0.385,1.307-2.406C45.616,20.735,44.297,20.648,44.297,21.977z"/>
		<path fill="#484849" d="M49.75,17.572v-1.203l1.029-0.459v1.662h1.382v0.77h-1.382v3.833c0,0.396,0,0.905,0.942,0.905
			c0.075,0,0.238-0.024,0.464-0.05v0.782c-0.339,0.024-0.678,0.099-1.017,0.099c-0.979,0-1.419-0.396-1.419-1.116v-4.453h-1.043
			v-0.77H49.75z"/>
		<path fill="#484849" d="M54.135,21.033c0,1.749,0.477,2.097,1.28,2.097c0.703,0,1.067-0.559,1.105-1.191h1.13
			c-0.013,1.39-0.879,2.022-2.21,2.022c-1.344,0-2.411-0.396-2.411-3.163c0-1.836,0.214-3.35,2.411-3.35
			c1.809,0,2.261,0.979,2.261,3.052v0.533H54.135z M56.608,20.264c0-1.823-0.515-2.047-1.269-2.047
			c-0.653,0-1.193,0.311-1.205,2.047H56.608z"/>
		<path fill="#484849" d="M62.389,17.572v-1.216c0-1.266,0.904-1.514,1.82-1.514c0.214,0,0.34,0.013,0.49,0.037v0.732
			c-1.093-0.074-1.281,0.385-1.281,0.893v1.067h1.281v0.77h-1.281v5.495h-1.029v-5.495h-0.979v-0.77H62.389z"/>
		<path fill="#484849" d="M65.517,20.798c0-1.836,0.213-3.35,2.411-3.35c2.197,0,2.411,1.514,2.411,3.35
			c0,2.767-1.067,3.163-2.411,3.163S65.517,23.564,65.517,20.798z M69.259,20.363c0-1.712-0.54-2.084-1.331-2.084
			s-1.331,0.372-1.331,2.084c0,2.034,0.264,2.767,1.331,2.767S69.259,22.397,69.259,20.363z"/>
		<path fill="#484849" d="M73.042,18.515h0.025c0.427-0.955,0.954-1.066,1.959-1.066v1.055c-0.088-0.013-0.188-0.025-0.276-0.037
			c-0.088-0.013-0.176-0.025-0.276-0.025c-1.143,0-1.432,0.856-1.432,1.699v3.697h-1.03v-6.265h1.03V18.515z"/>
		<path fill="#484849" d="M80.817,23.961c-1.369,0-2.223-0.596-2.186-2.034H79.8c0,0.359,0.013,1.203,1.056,1.203
			c0.615,0,1.092-0.311,1.092-0.955c0-1.116-3.164-1.142-3.164-3.015c0-0.657,0.401-1.712,2.185-1.712
			c1.131,0,2.098,0.533,2.01,1.773h-1.143c0.012-0.657-0.34-1.005-0.992-1.005c-0.553,0-0.979,0.298-0.979,0.844
			c0,1.104,3.164,1.079,3.164,2.99C83.027,23.428,82.073,23.961,80.817,23.961z"/>
		<path fill="#484849" d="M84.638,17.572v-1.203l1.029-0.459v1.662h1.382v0.77h-1.382v3.833c0,0.396,0,0.905,0.942,0.905
			c0.075,0,0.238-0.024,0.464-0.05v0.782c-0.339,0.024-0.678,0.099-1.017,0.099c-0.979,0-1.419-0.396-1.419-1.116v-4.453h-1.043
			v-0.77H84.638z"/>
		<path fill="#484849" d="M91.281,22.932h-0.024c-0.314,0.719-0.804,1.029-1.596,1.029c-1.343,0-1.732-0.855-1.732-2.06
			c0-1.897,1.884-1.984,3.328-1.947c0.024-0.831,0.037-1.737-1.067-1.737c-0.691,0-1.056,0.459-0.992,1.117h-1.118
			c0.051-1.402,0.804-1.886,2.147-1.886c1.633,0,2.06,0.831,2.06,1.886v3.015c0,0.496,0.05,1.005,0.126,1.488h-1.131V22.932z
			 M88.958,21.977c0,0.607,0.302,1.153,0.992,1.153c0.628,0,1.406-0.385,1.307-2.406C90.277,20.735,88.958,20.648,88.958,21.977z"/>
		<path fill="#484849" d="M94.412,17.572v-1.203l1.029-0.459v1.662h1.382v0.77h-1.382v3.833c0,0.396,0,0.905,0.942,0.905
			c0.075,0,0.238-0.024,0.464-0.05v0.782c-0.339,0.024-0.678,0.099-1.017,0.099c-0.979,0-1.419-0.396-1.419-1.116v-4.453h-1.043
			v-0.77H94.412z"/>
		<path fill="#484849" d="M97.703,14.88h1.155v1.092h-1.155V14.88z M98.796,23.837h-1.03v-6.265h1.03V23.837z"/>
		<path fill="#484849" d="M104.021,23.837v-4.342c0-0.67-0.238-1.216-1.117-1.216c-1.13,0-1.294,0.992-1.294,1.849v3.709h-1.029
			v-4.962c0-0.435-0.025-0.868-0.063-1.303h1.092v0.807h0.051c0.401-0.707,0.879-0.931,1.695-0.931c1.356,0,1.695,0.807,1.695,2.047
			v4.342H104.021z"/>
		<path fill="#484849" d="M109.764,17.572v-1.203l1.029-0.459v1.662h1.382v0.77h-1.382v3.833c0,0.396,0,0.905,0.942,0.905
			c0.075,0,0.238-0.024,0.464-0.05v0.782c-0.339,0.024-0.678,0.099-1.017,0.099c-0.979,0-1.419-0.396-1.419-1.116v-4.453h-1.043
			v-0.77H109.764z"/>
		<path fill="#484849" d="M116.584,23.837v-4.242c0-0.77-0.251-1.315-1.13-1.315c-1.029,0-1.294,0.818-1.294,1.873v3.685h-1.029
			V14.88h1.029v3.499h0.051c0.414-0.732,0.892-0.931,1.721-0.931c1.08,0,1.683,0.533,1.683,1.947v4.441H116.584z"/>
		<path fill="#484849" d="M120.43,21.033c0,1.749,0.477,2.097,1.28,2.097c0.703,0,1.067-0.559,1.105-1.191h1.13
			c-0.013,1.39-0.879,2.022-2.21,2.022c-1.344,0-2.411-0.396-2.411-3.163c0-1.836,0.214-3.35,2.411-3.35
			c1.809,0,2.261,0.979,2.261,3.052v0.533H120.43z M122.903,20.264c0-1.823-0.515-2.047-1.269-2.047
			c-0.653,0-1.193,0.311-1.205,2.047H122.903z"/>
		<path fill="#484849" d="M126.773,18.515h0.025c0.427-0.955,0.954-1.066,1.959-1.066v1.055c-0.088-0.013-0.188-0.025-0.276-0.037
			c-0.088-0.013-0.176-0.025-0.276-0.025c-1.143,0-1.432,0.856-1.432,1.699v3.697h-1.03v-6.265h1.03V18.515z"/>
		<path fill="#484849" d="M133.154,22.932h-0.024c-0.314,0.719-0.804,1.029-1.596,1.029c-1.343,0-1.732-0.855-1.732-2.06
			c0-1.897,1.884-1.984,3.328-1.947c0.024-0.831,0.037-1.737-1.067-1.737c-0.691,0-1.056,0.459-0.992,1.117h-1.118
			c0.051-1.402,0.804-1.886,2.147-1.886c1.633,0,2.06,0.831,2.06,1.886v3.015c0,0.496,0.05,1.005,0.126,1.488h-1.131V22.932z
			 M130.831,21.977c0,0.607,0.302,1.153,0.992,1.153c0.628,0,1.406-0.385,1.307-2.406C132.15,20.735,130.831,20.648,130.831,21.977z
			"/>
		<path fill="#484849" d="M137.289,18.316h0.025c0.352-0.583,0.791-0.868,1.457-0.868c1.017,0,2.047,0.396,2.047,3.15
			c0,1.563-0.051,3.362-2.098,3.362c-0.603,0-1.042-0.261-1.394-0.757h-0.038v3.002h-1.029v-8.634h1.029V18.316z M139.738,20.599
			c0-0.942,0-2.319-1.294-2.319c-1.268,0-1.155,1.736-1.155,2.692c0,0.831,0.051,2.158,1.193,2.158
			C139.588,23.13,139.738,22.273,139.738,20.599z"/>
		<path fill="#484849" d="M144.361,22.671h0.025l1.52-5.099h1.118l-2.876,8.634h-1.067l0.716-2.369l-2.147-6.265h1.193
			L144.361,22.671z"/>
	</g>
</g>
</svg>
