<?xml version="1.0" encoding="utf-8"?>
<!-- Generator: Adobe Illustrator 17.0.0, SVG Export Plug-In . SVG Version: 6.00 Build 0)  -->
<!DOCTYPE svg PUBLIC "-//W3C//DTD SVG 1.1//EN" "http://www.w3.org/Graphics/SVG/1.1/DTD/svg11.dtd">
<svg version="1.1" id="Layer_1" xmlns="http://www.w3.org/2000/svg" xmlns:xlink="http://www.w3.org/1999/xlink" x="0px" y="0px"
	 width="198.609px" height="51.638px" viewBox="0 0 198.609 51.638" enable-background="new 0 0 198.609 51.638"
	 xml:space="preserve">
<g>
	<path fill="#808084" d="M198.609,40.863c0,5.948-4.886,10.774-10.916,10.774H10.915c-6.028,0-10.915-4.826-10.915-10.774V11.168
		c0-5.946,4.887-10.77,10.915-10.77h176.778c6.03,0,10.916,4.825,10.916,10.77V40.863z"/>
	<g>
		<defs>
			<path id="SVGID_256_" d="M10.915,0C4.886,0,0,4.823,0,10.772v29.691c0,5.95,4.886,10.774,10.915,10.774h176.778
				c6.032,0,10.915-4.825,10.915-10.774V10.772C198.609,4.823,193.725,0,187.693,0H10.915z"/>
		</defs>
		<clipPath id="SVGID_1_">
			<use xlink:href="#SVGID_256_"  overflow="visible"/>
		</clipPath>
		
			<linearGradient id="SVGID_2_" gradientUnits="userSpaceOnUse" x1="-3440.7454" y1="470.4065" x2="-3439.4014" y2="470.4065" gradientTransform="matrix(147.7833 0 0 -145.8633 508484.6875 68640.6641)">
			<stop  offset="0" style="stop-color:#004E6B"/>
			<stop  offset="0.2792" style="stop-color:#00506E"/>
			<stop  offset="0.5035" style="stop-color:#005778"/>
			<stop  offset="0.7086" style="stop-color:#006289"/>
			<stop  offset="0.9013" style="stop-color:#0072A1"/>
			<stop  offset="1" style="stop-color:#007CB0"/>
		</linearGradient>
		<rect x="0" y="0" clip-path="url(#SVGID_1_)" fill="url(#SVGID_2_)" width="198.609" height="51.237"/>
	</g>
	<g>
		<defs>
			<path id="SVGID_259_" d="M10.915,4c-3.78,0-6.858,3.037-6.858,6.772v29.691c0,3.736,3.078,6.772,6.858,6.772h176.778
				c3.786,0,6.862-3.036,6.862-6.772V10.772c0-3.735-3.076-6.772-6.862-6.772H10.915z"/>
		</defs>
		<clipPath id="SVGID_3_">
			<use xlink:href="#SVGID_259_"  overflow="visible"/>
		</clipPath>
		
			<linearGradient id="SVGID_4_" gradientUnits="userSpaceOnUse" x1="-3464.5725" y1="375.5922" x2="-3463.2285" y2="375.5922" gradientTransform="matrix(0 -32.1714 -32.5949 0 12341.6963 -111412.9141)">
			<stop  offset="0" style="stop-color:#FFFFFF"/>
			<stop  offset="0.2973" style="stop-color:#F8F8F8"/>
			<stop  offset="0.7441" style="stop-color:#E6E5E3"/>
			<stop  offset="1" style="stop-color:#D8D7D4"/>
		</linearGradient>
		<rect x="4.057" y="4" clip-path="url(#SVGID_3_)" fill="url(#SVGID_4_)" width="190.498" height="43.235"/>
	</g>
	<g opacity="0.4">
		<g>
			<defs>
				<rect id="SVGID_262_" x="3.649" y="3.596" width="191.316" height="44.039"/>
			</defs>
			<clipPath id="SVGID_5_">
				<use xlink:href="#SVGID_262_"  overflow="visible"/>
			</clipPath>
			<g clip-path="url(#SVGID_5_)">
				<defs>
					<path id="SVGID_264_" d="M3.649,10.772v29.691c0,3.958,3.26,7.174,7.268,7.174h176.777c4.013,0,7.272-3.216,7.272-7.174V10.772
						c0-3.912-3.192-7.109-7.147-7.174L10.91,3.596C6.905,3.6,3.649,6.82,3.649,10.772"/>
				</defs>
				<clipPath id="SVGID_6_">
					<use xlink:href="#SVGID_264_"  overflow="visible"/>
				</clipPath>
				
					<linearGradient id="SVGID_7_" gradientUnits="userSpaceOnUse" x1="-3459.072" y1="564.697" x2="-3457.728" y2="564.697" gradientTransform="matrix(0 32.7686 33.1999 0 -18648.5742 113352.5391)">
					<stop  offset="0" style="stop-color:#00728E"/>
					<stop  offset="0.1558" style="stop-color:#0A7994"/>
					<stop  offset="0.4238" style="stop-color:#268BA6"/>
					<stop  offset="0.6452" style="stop-color:#429EB7"/>
					<stop  offset="0.6995" style="stop-color:#59AAC0"/>
					<stop  offset="0.8133" style="stop-color:#93C8D6"/>
					<stop  offset="0.9761" style="stop-color:#F1F8FA"/>
					<stop  offset="1" style="stop-color:#FFFFFF"/>
				</linearGradient>
				<rect x="3.649" y="3.596" clip-path="url(#SVGID_6_)" fill="url(#SVGID_7_)" width="191.316" height="44.04"/>
			</g>
		</g>
	</g>
	<g>
		<path fill="#58595B" d="M44.282,22.557c-0.053-0.439-0.214-2.234-2.087-2.234c-2.051,0-2.907,2.111-2.907,4.733
			c0,0.756,0,4.362,2.693,4.362c1.159,0,2.266-0.721,2.319-2.41h2.907c-0.054,0.757-0.125,1.936-1.159,2.991
			c-1.142,1.161-2.587,1.425-3.764,1.425c-4.441,0-5.887-3.237-5.887-6.386c0-4.029,2.283-6.703,5.904-6.703
			c2.818,0,4.798,1.688,4.798,4.222H44.282z"/>
		<path fill="#58595B" d="M48.843,18.406h2.641v12.72h-2.641V18.406z"/>
		<path fill="#58595B" d="M53.712,18.423h2.818v2.27h-2.818V18.423z M53.8,22.223h2.641v8.902H53.8V22.223z"/>
		<path fill="#58595B" d="M58.794,23.825c0-0.036,0-1.003-0.054-1.619h2.533l0.071,1.337c0.25-0.404,0.963-1.548,2.925-1.548
			c1.767,0,2.516,1.056,2.747,1.671c0.196,0.546,0.25,1.003,0.25,2.657v4.803h-2.693v-5.524c0-0.369,0-0.687-0.143-0.968
			c-0.196-0.387-0.606-0.756-1.284-0.756c-0.571,0-1.089,0.264-1.374,0.686c-0.16,0.229-0.321,0.669-0.321,1.354v5.208h-2.657
			V23.825z"/>
		<path fill="#58595B" d="M69.563,18.423h2.818v2.27h-2.818V18.423z M69.652,22.223h2.641v8.902h-2.641V22.223z"/>
		<path fill="#58595B" d="M79.372,25.39c-0.035-0.316-0.143-1.637-1.159-1.637c-1.249,0-1.392,1.865-1.392,2.833
			c0,0.492,0.054,2.076,0.66,2.727c0.25,0.265,0.518,0.3,0.714,0.3c0.285,0,1.105-0.123,1.213-1.707h2.604
			c-0.036,0.687-0.125,1.76-1.16,2.621c-0.642,0.546-1.444,0.827-2.568,0.827c-1.195,0-2.247-0.264-3.068-1.179
			c-0.784-0.897-1.142-2.076-1.142-3.501c0-4.047,3.015-4.609,4.21-4.609c1.677,0,3.656,0.915,3.675,3.325H79.372z"/>
		<path fill="#58595B" d="M88.929,31.125c-0.09-0.545-0.09-0.95-0.09-1.214c-0.998,1.425-2.193,1.425-2.693,1.425
			c-1.302,0-1.891-0.369-2.247-0.703c-0.535-0.528-0.785-1.25-0.785-1.953c0-0.704,0.25-2.006,1.909-2.763
			c1.105-0.492,2.693-0.492,3.567-0.492c0-0.581-0.019-0.862-0.125-1.179c-0.232-0.651-0.928-0.739-1.178-0.739
			c-0.374,0-0.767,0.158-0.999,0.493c-0.195,0.299-0.195,0.58-0.195,0.791h-2.587c0.018-0.475,0.071-1.425,1.017-2.093
			c0.82-0.581,1.873-0.722,2.729-0.722c0.749,0,2.318,0.123,3.211,1.144c0.606,0.722,0.624,1.776,0.624,2.182l0.018,3.571
			c0,0.757,0.054,1.513,0.214,2.252H88.929z M85.682,28.381c0,0.598,0.411,1.267,1.285,1.267c0.481,0,0.874-0.229,1.123-0.511
			c0.464-0.563,0.5-1.249,0.5-2.199C86.895,26.797,85.682,27.326,85.682,28.381z"/>
		<path fill="#58595B" d="M93.438,18.406h2.641v12.72h-2.641V18.406z"/>
		<path fill="#58595B" d="M108.811,18.406l4.477,12.72h-2.782l-0.928-2.744h-5.102l-0.963,2.744h-2.641l4.656-12.72H108.811z
			 M108.882,26.323l-1.784-5.419l-1.908,5.419H108.882z"/>
		<path fill="#58595B" d="M116.76,27.061c0,0.599-0.035,2.411,2.337,2.411c1.498,0,2.443-0.704,2.443-1.777
			c0-1.126-0.802-1.319-2.443-1.707c-3.068-0.756-4.745-1.653-4.745-3.853c0-2.094,1.517-3.94,5.102-3.94
			c1.338,0,2.926,0.299,3.889,1.495c0.731,0.915,0.731,1.936,0.731,2.357h-2.657c-0.036-0.439-0.179-1.936-2.087-1.936
			c-1.285,0-2.123,0.687-2.123,1.725c0,1.179,0.945,1.39,2.801,1.847c2.229,0.528,4.423,1.126,4.423,3.607
			c0,2.287-1.926,4.134-5.493,4.134c-4.941,0-4.977-3.132-4.995-4.363H116.76z"/>
		<path fill="#58595B" d="M133.702,22.557c-0.053-0.439-0.214-2.234-2.087-2.234c-2.051,0-2.907,2.111-2.907,4.733
			c0,0.756,0,4.362,2.693,4.362c1.159,0,2.266-0.721,2.319-2.41h2.907c-0.054,0.757-0.125,1.936-1.159,2.991
			c-1.142,1.161-2.587,1.425-3.764,1.425c-4.441,0-5.887-3.237-5.887-6.386c0-4.029,2.283-6.703,5.904-6.703
			c2.818,0,4.798,1.688,4.798,4.222H133.702z"/>
		<path fill="#58595B" d="M140.333,18.458l3.371,9.976l3.39-9.976h2.729l-4.744,12.667h-3.015l-4.745-12.667H140.333z"/>
		<path fill="#58595B" d="M151.136,18.441l4.264,0.018c0.713,0,2.89,0.018,4.441,1.144c1.623,1.179,2.194,3.185,2.194,4.996
			c0,3.906-2.123,5.946-4.566,6.387c-0.482,0.088-1.018,0.141-2.319,0.141h-4.014V18.441z M153.937,29.032
			c0.303,0.018,0.767,0.035,1.088,0.035c1.178,0,2.194-0.088,2.997-0.88c1.088-1.073,1.159-2.973,1.159-3.589
			c0-1.794-0.624-3.448-2.354-3.923c-0.57-0.158-1.302-0.246-2.89-0.176V29.032z"/>
		<path fill="#58595B" d="M163.402,20.498v-1.025h1.673v-1.61h1.268v1.61h1.632v1.025h-1.632v4.768h-1.268v-4.768H163.402z"/>
	</g>
</g>
</svg>
