<?xml version="1.0" encoding="utf-8"?>
<!-- Generator: Adobe Illustrator 17.0.0, SVG Export Plug-In . SVG Version: 6.00 Build 0)  -->
<!DOCTYPE svg PUBLIC "-//W3C//DTD SVG 1.1//EN" "http://www.w3.org/Graphics/SVG/1.1/DTD/svg11.dtd">
<svg version="1.1" id="Layer_1" xmlns="http://www.w3.org/2000/svg" xmlns:xlink="http://www.w3.org/1999/xlink" x="0px" y="0px"
	 width="198.61px" height="79.146px" viewBox="0 0 198.61 79.146" enable-background="new 0 0 198.61 79.146" xml:space="preserve">
<g>
	<line fill="none" stroke="#77787B" stroke-width="0.5936" x1="100.407" y1="44.984" x2="100.407" y2="71.799"/>
	<polygon fill="#77787B" points="96.32,69.274 100.407,71.617 104.493,69.274 100.407,79.146 	"/>
	<path fill="#808084" d="M198.61,40.863c0,5.948-4.888,10.774-10.916,10.774H10.915C4.885,51.637,0,46.811,0,40.863V11.168
		c0-5.946,4.885-10.77,10.915-10.77h176.779c6.028,0,10.916,4.825,10.916,10.77V40.863z"/>
	<g>
		<g>
			<defs>
				<path id="SVGID_335_" d="M10.916,0C4.886,0,0.001,4.823,0.001,10.771v29.691c0,5.948,4.885,10.774,10.915,10.774h176.778
					c6.028,0,10.915-4.826,10.915-10.774V10.771C198.609,4.823,193.722,0,187.694,0H10.916z"/>
			</defs>
			<clipPath id="SVGID_1_">
				<use xlink:href="#SVGID_335_"  overflow="visible"/>
			</clipPath>
			
				<linearGradient id="SVGID_2_" gradientUnits="userSpaceOnUse" x1="-3802.6545" y1="392.0602" x2="-3801.3105" y2="392.0602" gradientTransform="matrix(0 -38.1255 -38.6273 0 15243.5303 -144926.875)">
				<stop  offset="0" style="stop-color:#404041"/>
				<stop  offset="0.0139" style="stop-color:#444445"/>
				<stop  offset="0.1522" style="stop-color:#68696A"/>
				<stop  offset="0.2969" style="stop-color:#868889"/>
				<stop  offset="0.4479" style="stop-color:#9E9FA1"/>
				<stop  offset="0.6078" style="stop-color:#AEB0B2"/>
				<stop  offset="0.7825" style="stop-color:#B8BABC"/>
				<stop  offset="1" style="stop-color:#BBBDBF"/>
			</linearGradient>
			<rect x="0.001" y="0" clip-path="url(#SVGID_1_)" fill="url(#SVGID_2_)" width="198.609" height="51.237"/>
		</g>
		<g>
			<defs>
				<path id="SVGID_338_" d="M10.916,4.001c-3.783,0-6.861,3.035-6.861,6.771v29.691c0,3.736,3.078,6.772,6.861,6.772h176.778
					c3.785,0,6.862-3.036,6.862-6.772V10.771c0-3.736-3.078-6.771-6.862-6.771H10.916z"/>
			</defs>
			<clipPath id="SVGID_3_">
				<use xlink:href="#SVGID_338_"  overflow="visible"/>
			</clipPath>
			
				<linearGradient id="SVGID_4_" gradientUnits="userSpaceOnUse" x1="-3803.0654" y1="376.5501" x2="-3801.7217" y2="376.5501" gradientTransform="matrix(0 -32.1714 -32.5949 0 12372.9199 -122302.7109)">
				<stop  offset="0" style="stop-color:#FFFFFF"/>
				<stop  offset="0.2973" style="stop-color:#F8F8F8"/>
				<stop  offset="0.7441" style="stop-color:#E6E5E3"/>
				<stop  offset="1" style="stop-color:#D8D7D4"/>
			</linearGradient>
			<rect x="4.055" y="4.001" clip-path="url(#SVGID_3_)" fill="url(#SVGID_4_)" width="190.501" height="43.234"/>
		</g>
		<g>
			<g opacity="0.5">
				<g>
					<defs>
						<rect id="SVGID_341_" x="3.649" y="3.596" width="191.316" height="44.039"/>
					</defs>
					<clipPath id="SVGID_5_">
						<use xlink:href="#SVGID_341_"  overflow="visible"/>
					</clipPath>
					<g clip-path="url(#SVGID_5_)">
						<defs>
							<path id="SVGID_343_" d="M10.915,3.596c-4.005,0-7.265,3.223-7.265,7.175v29.691c0,3.958,3.26,7.173,7.265,7.173h176.779
								c4.013,0,7.272-3.215,7.272-7.173V10.771c0-3.952-3.259-7.175-7.272-7.175H10.915z"/>
						</defs>
						<clipPath id="SVGID_6_">
							<use xlink:href="#SVGID_343_"  overflow="visible"/>
						</clipPath>
						
							<linearGradient id="SVGID_7_" gradientUnits="userSpaceOnUse" x1="-3803.0247" y1="378.3657" x2="-3801.6807" y2="378.3657" gradientTransform="matrix(0 -32.7686 -33.1999 0 12661.0117 -124572.1563)">
							<stop  offset="0" style="stop-color:#59595C"/>
							<stop  offset="0.005" style="stop-color:#5C5C5F"/>
							<stop  offset="0.066" style="stop-color:#838385"/>
							<stop  offset="0.1322" style="stop-color:#A4A4A5"/>
							<stop  offset="0.2061" style="stop-color:#C0C0C1"/>
							<stop  offset="0.2882" style="stop-color:#D7D7D8"/>
							<stop  offset="0.3822" style="stop-color:#E9E9EA"/>
							<stop  offset="0.4954" style="stop-color:#F6F6F6"/>
							<stop  offset="0.6471" style="stop-color:#FDFDFD"/>
							<stop  offset="1" style="stop-color:#FFFFFF"/>
						</linearGradient>
						<rect x="3.649" y="3.596" clip-path="url(#SVGID_6_)" fill="url(#SVGID_7_)" width="191.316" height="44.039"/>
					</g>
				</g>
			</g>
		</g>
		<g>
			<g>
				<path fill="#58595B" d="M20.728,18.203h3.996l4.834,10.011V18.203h2.568v12.72h-3.801l-4.994-10.556v10.556h-2.604V18.203z"/>
				<path fill="#58595B" d="M40.253,17.938c1.375,0,3.266,0.317,4.531,1.725c1.373,1.548,1.641,3.536,1.641,4.785
					c0,1.848-0.57,3.818-1.623,4.979c-1.426,1.583-3.514,1.812-4.584,1.812c-1.693,0-3.389-0.527-4.566-1.741
					c-1.408-1.479-1.588-3.589-1.588-4.75C34.064,21.37,35.616,17.938,40.253,17.938z M37.917,28.213
					c0.393,0.527,1.053,1.021,2.336,1.021c1.125,0,1.891-0.388,2.408-1.18c0.43-0.633,0.875-1.618,0.875-3.642
					c0-0.615-0.055-1.495-0.322-2.27c-0.535-1.565-1.623-2.252-2.941-2.252c-1.035,0-1.855,0.423-2.373,1.073
					c-0.732,0.88-0.945,2.252-0.945,3.694C36.954,25.874,37.149,27.228,37.917,28.213z"/>
				<path fill="#58595B" d="M60.634,22.354c-0.053-0.439-0.213-2.234-2.086-2.234c-2.051,0-2.908,2.111-2.908,4.733
					c0,0.756,0,4.362,2.693,4.362c1.16,0,2.266-0.721,2.32-2.41h2.906c-0.053,0.757-0.125,1.936-1.158,2.991
					c-1.143,1.161-2.588,1.425-3.764,1.425c-4.441,0-5.887-3.237-5.887-6.386c0-4.029,2.283-6.703,5.904-6.703
					c2.818,0,4.797,1.688,4.797,4.222H60.634z"/>
				<path fill="#58595B" d="M65.196,18.203h2.641v12.72h-2.641V18.203z"/>
				<path fill="#58595B" d="M70.064,18.22h2.818v2.27h-2.818V18.22z M70.153,22.02h2.641v8.902h-2.641V22.02z"/>
				<path fill="#58595B" d="M75.146,23.622c0-0.036,0-1.003-0.053-1.619h2.533l0.07,1.337c0.25-0.404,0.963-1.548,2.926-1.548
					c1.766,0,2.516,1.056,2.746,1.671c0.197,0.546,0.25,1.003,0.25,2.657v4.803h-2.693v-5.524c0-0.369,0-0.687-0.143-0.968
					c-0.195-0.387-0.605-0.756-1.283-0.756c-0.572,0-1.09,0.264-1.375,0.686c-0.16,0.229-0.32,0.669-0.32,1.354v5.208h-2.658V23.622
					z"/>
				<path fill="#58595B" d="M85.915,18.22h2.818v2.27h-2.818V18.22z M86.005,22.02h2.641v8.902h-2.641V22.02z"/>
				<path fill="#58595B" d="M95.724,25.187c-0.035-0.316-0.143-1.637-1.158-1.637c-1.25,0-1.393,1.865-1.393,2.833
					c0,0.492,0.055,2.076,0.66,2.727c0.25,0.265,0.518,0.3,0.715,0.3c0.285,0,1.105-0.123,1.213-1.707h2.604
					c-0.035,0.687-0.125,1.76-1.16,2.621c-0.641,0.546-1.443,0.827-2.568,0.827c-1.195,0-2.246-0.264-3.068-1.179
					c-0.783-0.897-1.141-2.076-1.141-3.501c0-4.047,3.014-4.609,4.209-4.609c1.678,0,3.656,0.915,3.676,3.325H95.724z"/>
				<path fill="#58595B" d="M105.282,30.922c-0.09-0.545-0.09-0.95-0.09-1.214c-0.998,1.425-2.193,1.425-2.693,1.425
					c-1.303,0-1.891-0.369-2.248-0.703c-0.535-0.528-0.785-1.25-0.785-1.953c0-0.704,0.25-2.006,1.91-2.763
					c1.105-0.492,2.693-0.492,3.566-0.492c0-0.581-0.018-0.862-0.125-1.179c-0.232-0.651-0.928-0.739-1.178-0.739
					c-0.373,0-0.766,0.158-0.998,0.493c-0.195,0.299-0.195,0.58-0.195,0.791h-2.588c0.018-0.475,0.072-1.425,1.018-2.093
					c0.82-0.581,1.873-0.722,2.729-0.722c0.75,0,2.318,0.123,3.211,1.144c0.607,0.722,0.625,1.776,0.625,2.182l0.018,3.571
					c0,0.757,0.053,1.513,0.213,2.252H105.282z M102.034,28.178c0,0.598,0.412,1.267,1.285,1.267c0.482,0,0.875-0.229,1.123-0.511
					c0.465-0.563,0.5-1.249,0.5-2.199C103.247,26.594,102.034,27.123,102.034,28.178z"/>
				<path fill="#58595B" d="M109.79,18.203h2.641v12.72h-2.641V18.203z"/>
				<path fill="#58595B" d="M126.571,18.203l4.477,12.72h-2.781l-0.928-2.744h-5.102l-0.963,2.744h-2.641l4.656-12.72H126.571z
					 M126.644,26.12l-1.785-5.419l-1.908,5.419H126.644z"/>
				<path fill="#58595B" d="M134.86,26.858c0,0.599-0.035,2.411,2.338,2.411c1.498,0,2.443-0.704,2.443-1.777
					c0-1.126-0.803-1.319-2.443-1.707c-3.068-0.756-4.746-1.653-4.746-3.853c0-2.094,1.518-3.94,5.102-3.94
					c1.338,0,2.926,0.299,3.889,1.495c0.732,0.915,0.732,1.936,0.732,2.357h-2.658c-0.035-0.439-0.178-1.936-2.086-1.936
					c-1.285,0-2.123,0.687-2.123,1.725c0,1.179,0.945,1.39,2.801,1.847c2.229,0.528,4.422,1.126,4.422,3.607
					c0,2.287-1.926,4.134-5.492,4.134c-4.941,0-4.977-3.132-4.996-4.363H134.86z"/>
				<path fill="#58595B" d="M151.802,22.354c-0.053-0.439-0.215-2.234-2.088-2.234c-2.051,0-2.906,2.111-2.906,4.733
					c0,0.756,0,4.362,2.693,4.362c1.158,0,2.266-0.721,2.318-2.41h2.908c-0.055,0.757-0.125,1.936-1.16,2.991
					c-1.141,1.161-2.586,1.425-3.764,1.425c-4.441,0-5.887-3.237-5.887-6.386c0-4.029,2.283-6.703,5.904-6.703
					c2.818,0,4.799,1.688,4.799,4.222H151.802z"/>
				<path fill="#58595B" d="M158.433,18.255l3.371,9.976l3.389-9.976h2.729l-4.744,12.667h-3.014l-4.746-12.667H158.433z"/>
				<path fill="#58595B" d="M169.237,18.238l4.264,0.018c0.713,0,2.889,0.018,4.441,1.144c1.623,1.179,2.193,3.185,2.193,4.996
					c0,3.906-2.123,5.946-4.566,6.387c-0.482,0.088-1.018,0.141-2.318,0.141h-4.014V18.238z M172.038,28.829
					c0.303,0.018,0.766,0.035,1.088,0.035c1.178,0,2.193-0.088,2.996-0.88c1.088-1.073,1.16-2.973,1.16-3.589
					c0-1.794-0.625-3.448-2.355-3.923c-0.57-0.158-1.301-0.246-2.889-0.176V28.829z"/>
				<path fill="#58595B" d="M181.501,20.295v-1.025h1.674v-1.61h1.268v1.61h1.631v1.025h-1.631v4.768h-1.268v-4.768H181.501z"/>
			</g>
		</g>
	</g>
</g>
</svg>
