<?xml version="1.0" encoding="utf-8"?>
<!-- Generator: Adobe Illustrator 17.0.0, SVG Export Plug-In . SVG Version: 6.00 Build 0)  -->
<!DOCTYPE svg PUBLIC "-//W3C//DTD SVG 1.1//EN" "http://www.w3.org/Graphics/SVG/1.1/DTD/svg11.dtd">
<svg version="1.1" id="Layer_1" xmlns="http://www.w3.org/2000/svg" xmlns:xlink="http://www.w3.org/1999/xlink" x="0px" y="0px"
	 width="242.537px" height="69.908px" viewBox="0 0 242.537 69.908" enable-background="new 0 0 242.537 69.908"
	 xml:space="preserve">
<g>
	<path fill="#808084" d="M242.536,60.181c0,5.376-4.409,9.728-9.851,9.728H53.681c-5.441,0-9.854-4.352-9.854-9.728V10.087
		c0-5.367,4.413-9.728,9.854-9.728h179.005c5.441,0,9.851,4.36,9.851,9.728V60.181z"/>
	<g>
		<defs>
			<path id="SVGID_289_" d="M53.681,0c-5.443,0-9.855,4.349-9.855,9.728v50.091c0,5.374,4.411,9.733,9.855,9.733h179.003
				c5.442,0,9.853-4.359,9.853-9.733V9.728c0-5.379-4.411-9.728-9.853-9.728H53.681z"/>
		</defs>
		<clipPath id="SVGID_1_">
			<use xlink:href="#SVGID_289_"  overflow="visible"/>
		</clipPath>
		
			<linearGradient id="SVGID_2_" gradientUnits="userSpaceOnUse" x1="-3751.3188" y1="390.1173" x2="-3749.624" y2="390.1173" gradientTransform="matrix(117.2529 0 0 -115.7295 439896.8125 45182.8555)">
			<stop  offset="0" style="stop-color:#00A69C"/>
			<stop  offset="0.2036" style="stop-color:#03A79D"/>
			<stop  offset="0.3808" style="stop-color:#0EAAA1"/>
			<stop  offset="0.5481" style="stop-color:#20B0A8"/>
			<stop  offset="0.7094" style="stop-color:#39B7B1"/>
			<stop  offset="0.8649" style="stop-color:#59C1BD"/>
			<stop  offset="0.9901" style="stop-color:#79CBC9"/>
			<stop  offset="1" style="stop-color:#79CBC9"/>
		</linearGradient>
		<rect x="43.827" y="0" clip-path="url(#SVGID_1_)" fill="url(#SVGID_2_)" width="198.711" height="69.551"/>
	</g>
	<g>
		<defs>
			<path id="SVGID_292_" d="M53.681,3.612c-3.422,0-6.197,2.745-6.197,6.116v50.091c0,3.378,2.776,6.116,6.197,6.116h179.003
				c3.415,0,6.194-2.739,6.194-6.116V9.728c0-3.371-2.779-6.116-6.194-6.116H53.681z"/>
		</defs>
		<clipPath id="SVGID_3_">
			<use xlink:href="#SVGID_292_"  overflow="visible"/>
		</clipPath>
		
			<linearGradient id="SVGID_4_" gradientUnits="userSpaceOnUse" x1="-3779.6274" y1="303.0302" x2="-3777.9329" y2="303.0302" gradientTransform="matrix(0 -36.7734 -37.2575 0 11433.3281 -138923.8281)">
			<stop  offset="0" style="stop-color:#FFFFFF"/>
			<stop  offset="0.2973" style="stop-color:#F8F8F8"/>
			<stop  offset="0.7441" style="stop-color:#E6E5E3"/>
			<stop  offset="1" style="stop-color:#D8D7D4"/>
		</linearGradient>
		<rect x="47.484" y="3.611" clip-path="url(#SVGID_3_)" fill="url(#SVGID_4_)" width="191.394" height="62.323"/>
	</g>
	<g opacity="0.5">
		<g>
			<defs>
				<rect id="SVGID_295_" x="47.118" y="3.249" width="192.13" height="63.049"/>
			</defs>
			<clipPath id="SVGID_5_">
				<use xlink:href="#SVGID_295_"  overflow="visible"/>
			</clipPath>
			<g clip-path="url(#SVGID_5_)">
				<defs>
					<path id="SVGID_297_" d="M53.68,3.249c-3.62,0-6.564,2.906-6.564,6.477V59.82c0,3.571,2.944,6.477,6.564,6.477h179.004
						c3.622,0,6.565-2.906,6.565-6.477V9.726c0-3.571-2.944-6.477-6.565-6.477H53.68z"/>
				</defs>
				<clipPath id="SVGID_6_">
					<use xlink:href="#SVGID_297_"  overflow="visible"/>
				</clipPath>
				
					<linearGradient id="SVGID_7_" gradientUnits="userSpaceOnUse" x1="-3778.4614" y1="476.5758" x2="-3776.7668" y2="476.5758" gradientTransform="matrix(0 37.2031 37.6928 0 -17820.293 140573.7344)">
					<stop  offset="0" style="stop-color:#80CECA"/>
					<stop  offset="0.147" style="stop-color:#86D0CC"/>
					<stop  offset="0.3382" style="stop-color:#96D6D3"/>
					<stop  offset="0.5537" style="stop-color:#B1E1DE"/>
					<stop  offset="0.7851" style="stop-color:#D6EFEE"/>
					<stop  offset="1" style="stop-color:#FFFFFF"/>
				</linearGradient>
				<rect x="47.116" y="3.249" clip-path="url(#SVGID_6_)" fill="url(#SVGID_7_)" width="192.133" height="63.049"/>
			</g>
		</g>
	</g>
	<g>
		<path fill="#231F20" d="M118.786,10.516h2.189v8.198h4.295v1.684h-6.484V10.516z"/>
		<path fill="#231F20" d="M126.437,10.53l3.312,0.014c0.554,0,2.244,0.014,3.45,0.89c1.261,0.917,1.704,2.478,1.704,3.887
			c0,3.039-1.649,4.626-3.547,4.969c-0.374,0.068-0.79,0.109-1.802,0.109h-3.117V10.53z M128.613,18.769
			c0.235,0.014,0.596,0.027,0.845,0.027c0.914,0,1.704-0.068,2.328-0.685c0.845-0.835,0.9-2.313,0.9-2.792
			c0-1.396-0.485-2.683-1.829-3.052c-0.443-0.123-1.012-0.192-2.244-0.137V18.769z"/>
		<path fill="#231F20" d="M136.501,10.516h2.189v8.198h4.295v1.684h-6.484V10.516z"/>
		<path fill="#231F20" d="M143.862,16.005h3.437v1.547h-3.437V16.005z"/>
		<path fill="#231F20" d="M154.463,13.732c-0.041-0.342-0.166-1.738-1.621-1.738c-1.593,0-2.258,1.643-2.258,3.683
			c0,0.588,0,3.394,2.092,3.394c0.9,0,1.76-0.561,1.801-1.875h2.259c-0.042,0.589-0.097,1.506-0.9,2.327
			c-0.887,0.903-2.009,1.108-2.924,1.108c-3.449,0-4.572-2.519-4.572-4.968c0-3.135,1.773-5.215,4.586-5.215
			c2.189,0,3.728,1.313,3.728,3.284H154.463z"/>
	</g>
	<g>
		<path fill="#231F20" d="M95.496,26.457c-0.457,1.369-1.219,3.586-1.219,6.036c0,1.834,0.388,3.203,1.205,6.009h-1.51
			c-0.79-1.902-1.399-3.888-1.399-5.94c0-2.107,0.637-4.147,1.413-6.104H95.496z"/>
		<path fill="#231F20" d="M97.008,37.01v-1.04h6.207v1.04H97.008z M103.215,31.33v1.108l-6.124,3.024v-1.19l5.085-2.382v-0.027
			l-5.099-2.367v-1.191L103.215,31.33z"/>
		<path fill="#231F20" d="M109.068,28.702c0.9-0.384,1.76-0.862,2.563-1.438h1.788v9.554h-2.093v-7.432
			c-0.401,0.301-1.205,0.793-2.258,1.218V28.702z"/>
		<path fill="#231F20" d="M118.007,34.491c0.056,0.575,0.43,0.931,1.012,0.931c1.441,0,1.552-1.478,1.511-2.792
			c-0.693,0.616-1.316,0.657-1.746,0.657c-2.369,0-2.979-1.861-2.979-2.997c0-1.779,1.288-3.135,3.422-3.135
			c3.325,0,3.408,3.121,3.408,4.653c0,4.038-1.386,5.188-3.727,5.188c-0.541,0-2.993,0-2.993-2.505H118.007z M120.488,30.152
			c0-0.835-0.443-1.45-1.288-1.45c-0.984,0-1.345,0.78-1.345,1.505c0,0.329,0.098,1.506,1.303,1.506
			C120.183,31.713,120.488,30.823,120.488,30.152z"/>
		<path fill="#231F20" d="M127.06,27.128c1.357,0,2.161,0.726,2.521,1.259c0.499,0.726,0.873,1.656,0.873,3.449
			c0,2.218-0.513,5.133-3.423,5.133c-2.479,0-3.339-2.354-3.339-4.899C123.693,30.796,123.956,27.128,127.06,27.128z
			 M128.126,29.824c-0.056-0.26-0.291-1.108-1.053-1.108c-0.596,0-0.859,0.533-0.956,0.821c-0.318,0.972-0.318,2.436-0.318,2.669
			c0,1.629,0.249,3.147,1.288,3.147c1.108,0,1.289-1.861,1.289-3.175C128.376,31.576,128.307,30.454,128.126,29.824z"/>
		<path fill="#231F20" d="M135.669,31.207c0-0.438-0.028-0.862-0.069-1.301h1.981l0.069,0.89c0.222-0.301,0.762-1.04,2.161-1.04
			c1.607,0,2.064,0.972,2.203,1.3c0.582-1.108,1.523-1.286,2.244-1.286c1.413,0,1.981,0.835,2.134,1.108
			c0.374,0.603,0.347,1.438,0.347,2.04v3.9h-2.064v-4.065c0-0.738-0.111-1.56-1.178-1.56c-1.233,0-1.261,1.136-1.261,2.162v3.463
			h-2.064v-4.106c0-0.533-0.015-1.519-1.15-1.519c-1.288,0-1.288,1.095-1.288,1.56v4.065h-2.064V31.207z"/>
		<path fill="#231F20" d="M155.35,29.933c-0.056,0.548-0.097,1.013-0.097,1.711v5.105c0,2.546-2.147,2.792-3.492,2.792
			c-0.997,0-2.951-0.123-3.075-2.217h1.967c0.028,0.205,0.125,0.958,1.22,0.958c0.609,0,1.136-0.288,1.274-0.903
			c0.083-0.343,0.083-0.589,0.097-1.643c-0.65,0.849-1.385,0.944-1.884,0.944c-2.009,0-2.951-1.725-2.951-3.395
			c0-1.752,0.983-3.422,2.993-3.422c1.274,0,1.745,0.685,1.953,0.985l0.069-0.917H155.35z M151.831,35.299
			c1.441,0,1.441-1.67,1.441-1.971c0-0.78-0.152-2.107-1.399-2.107c-0.776,0-1.413,0.588-1.413,2.066
			C150.459,33.629,150.459,35.299,151.831,35.299z"/>
		<path fill="#231F20" d="M162.033,26.991l-3.728,9.827h-1.621l3.755-9.827H162.033z"/>
		<path fill="#231F20" d="M167.965,26.936h2.064v8.76c0,0.41,0.027,0.862,0.056,1.122h-2.079l-0.055-0.999
			c-0.139,0.246-0.277,0.506-0.707,0.78c-0.513,0.328-1.053,0.355-1.357,0.355c-1.871,0-2.979-1.272-2.979-3.436
			c0-2.285,1.261-3.709,3.09-3.709c1.261,0,1.787,0.698,1.968,0.944V26.936z M166.4,35.641c0.596,0,1.08-0.356,1.302-0.78
			c0.305-0.575,0.333-1.287,0.333-1.629c0-1.355-0.596-2.094-1.524-2.094c-1.371,0-1.524,1.628-1.524,2.326
			C164.986,34.614,165.374,35.641,166.4,35.641z"/>
		<path fill="#231F20" d="M171.863,26.936h2.189v8.198h4.295v1.684h-6.484V26.936z"/>
		<path fill="#231F20" d="M179.445,38.502c0.457-1.369,1.22-3.586,1.22-6.036c0-1.848-0.388-3.203-1.206-6.009h1.511
			c0.79,1.889,1.399,3.888,1.399,5.927c0,2.107-0.638,4.147-1.413,6.118H179.445z"/>
		<path fill="#231F20" d="M93.188,42.875c-0.457,1.369-1.219,3.586-1.219,6.036c0,1.834,0.388,3.203,1.205,6.009h-1.51
			c-0.79-1.902-1.399-3.888-1.399-5.94c0-2.107,0.637-4.147,1.413-6.104H93.188z"/>
		<path fill="#231F20" d="M94.701,53.428v-1.04h6.207v1.04H94.701z M100.908,47.748v1.108l-6.124,3.024v-1.19l5.085-2.382v-0.027
			l-5.099-2.367v-1.191L100.908,47.748z"/>
		<path fill="#231F20" d="M105.665,51.156v-1.848l3.879-5.626h2.064l-0.014,5.899h1.316v1.574h-1.316v2.08h-2.051v-2.08H105.665z
			 M107.217,49.623h2.438v-2.519c0-0.123,0.014-0.808,0.027-1.054L107.217,49.623z"/>
		<path fill="#231F20" d="M114.176,51.416h1.76v1.82h-1.76V51.416z"/>
		<path fill="#231F20" d="M119.554,50.909c0.056,0.575,0.43,0.931,1.012,0.931c1.441,0,1.552-1.478,1.511-2.792
			c-0.693,0.616-1.316,0.657-1.746,0.657c-2.369,0-2.979-1.861-2.979-2.997c0-1.779,1.288-3.135,3.422-3.135
			c3.325,0,3.408,3.121,3.408,4.653c0,4.038-1.386,5.188-3.727,5.188c-0.541,0-2.993,0-2.993-2.505H119.554z M122.035,46.57
			c0-0.835-0.443-1.45-1.288-1.45c-0.984,0-1.345,0.78-1.345,1.505c0,0.329,0.098,1.506,1.303,1.506
			C121.73,48.131,122.035,47.241,122.035,46.57z"/>
		<path fill="#231F20" d="M129.508,47.625c0-0.438-0.028-0.862-0.069-1.301h1.981l0.069,0.89c0.222-0.301,0.762-1.04,2.161-1.04
			c1.607,0,2.064,0.972,2.203,1.3c0.581-1.108,1.523-1.286,2.244-1.286c1.413,0,1.981,0.835,2.134,1.108
			c0.374,0.603,0.347,1.438,0.347,2.04v3.9h-2.064v-4.065c0-0.738-0.111-1.56-1.178-1.56c-1.233,0-1.261,1.136-1.261,2.162v3.463
			h-2.064V49.13c0-0.533-0.014-1.519-1.15-1.519c-1.288,0-1.288,1.095-1.288,1.56v4.065h-2.064V47.625z"/>
		<path fill="#231F20" d="M142.594,47.625c0-0.438-0.028-0.862-0.069-1.301h1.981l0.069,0.89c0.222-0.301,0.762-1.04,2.161-1.04
			c1.607,0,2.064,0.972,2.203,1.3c0.581-1.108,1.523-1.286,2.244-1.286c1.413,0,1.981,0.835,2.134,1.108
			c0.374,0.603,0.347,1.438,0.347,2.04v3.9H151.6v-4.065c0-0.738-0.111-1.56-1.178-1.56c-1.233,0-1.261,1.136-1.261,2.162v3.463
			h-2.064V49.13c0-0.533-0.014-1.519-1.15-1.519c-1.288,0-1.288,1.095-1.288,1.56v4.065h-2.064V47.625z"/>
		<path fill="#231F20" d="M158.936,46.16c2.535,0,3.63,1.697,3.63,3.627c0,1.943-1.136,3.695-3.672,3.695
			c-1.995,0-3.574-1.218-3.574-3.641C155.32,48.172,156.179,46.16,158.936,46.16z M158.963,52.073c0.9,0,1.511-0.534,1.511-2.368
			c0-0.917-0.181-2.19-1.538-2.19c-1.496,0-1.511,1.711-1.511,2.341C157.425,51.402,157.953,52.073,158.963,52.073z"/>
		<path fill="#231F20" d="M164.107,43.341h2.051v9.896h-2.051V43.341z"/>
		<path fill="#231F20" d="M172.811,43.409l-3.728,9.827h-1.621l3.755-9.827H172.811z"/>
		<path fill="#231F20" d="M174.171,43.354h2.189v8.198h4.295v1.684h-6.484V43.354z"/>
		<path fill="#231F20" d="M181.753,54.92c0.457-1.369,1.22-3.586,1.22-6.036c0-1.848-0.388-3.203-1.206-6.009h1.511
			c0.79,1.889,1.399,3.888,1.399,5.927c0,2.107-0.638,4.147-1.413,6.118H181.753z"/>
	</g>
	<g>
		<path fill="#231F20" d="M24.756,30.561v9.022h-1.596l-3.609-7.823h-0.025v7.823h-1.039v-9.022h1.646l3.559,7.723h0.025v-7.723
			H24.756z"/>
		<path fill="#231F20" d="M26.581,36.522c0-1.85,0.216-3.374,2.432-3.374c2.217,0,2.432,1.524,2.432,3.374
			c0,2.786-1.076,3.187-2.432,3.187C27.658,39.709,26.581,39.308,26.581,36.522z M30.355,36.085c0-1.725-0.545-2.1-1.343-2.1
			s-1.343,0.375-1.343,2.1c0,2.05,0.267,2.787,1.343,2.787C30.089,38.872,30.355,38.135,30.355,36.085z"/>
	</g>
	<g>
		<defs>
			<polygon id="SVGID_300_" points="0.715,33.813 9.57,25.073 11.854,27.343 5.299,33.813 11.854,40.295 9.57,42.554 			"/>
		</defs>
		<clipPath id="SVGID_8_">
			<use xlink:href="#SVGID_300_"  overflow="visible"/>
		</clipPath>
		
			<radialGradient id="SVGID_9_" cx="-3046.5176" cy="385.3999" r="1.6947" gradientTransform="matrix(4.3652 0 0 -4.3085 13306.4219 1694.1484)" gradientUnits="userSpaceOnUse">
			<stop  offset="0" style="stop-color:#005E7D"/>
			<stop  offset="1" style="stop-color:#043E5B"/>
		</radialGradient>
		<rect x="0.715" y="25.073" clip-path="url(#SVGID_8_)" fill="url(#SVGID_9_)" width="11.139" height="17.481"/>
	</g>
	<polygon fill="none" stroke="#77787B" stroke-width="1.0066" stroke-miterlimit="10" points="11.855,27.342 9.569,25.075 
		0.716,33.813 9.569,42.556 11.855,40.295 5.299,33.813 	"/>
</g>
</svg>
