<?xml version="1.0" encoding="utf-8"?>
<!-- Generator: Adobe Illustrator 17.0.0, SVG Export Plug-In . SVG Version: 6.00 Build 0)  -->
<!DOCTYPE svg PUBLIC "-//W3C//DTD SVG 1.1//EN" "http://www.w3.org/Graphics/SVG/1.1/DTD/svg11.dtd">
<svg version="1.1" id="Layer_1" xmlns="http://www.w3.org/2000/svg" xmlns:xlink="http://www.w3.org/1999/xlink" x="0px" y="0px"
	 width="238.047px" height="69.908px" viewBox="0 0 238.047 69.908" enable-background="new 0 0 238.047 69.908"
	 xml:space="preserve">
<g>
	<g>
		<path fill="#808084" d="M238.046,60.181c0,5.376-4.416,9.728-9.851,9.728H49.184c-5.441,0-9.854-4.352-9.854-9.728V10.087
			c0-5.367,4.413-9.728,9.854-9.728h179.012c5.434,0,9.851,4.36,9.851,9.728V60.181z"/>
		<g>
			<defs>
				<path id="SVGID_303_" d="M49.183,0c-5.44,0-9.853,4.349-9.853,9.728v50.091c0,5.374,4.413,9.733,9.853,9.733h179.011
					c5.415,0,9.819-4.325,9.853-9.67V9.572C237.961,4.264,233.577,0,228.194,0H49.183z"/>
			</defs>
			<clipPath id="SVGID_1_">
				<use xlink:href="#SVGID_303_"  overflow="visible"/>
			</clipPath>
			
				<linearGradient id="SVGID_2_" gradientUnits="userSpaceOnUse" x1="-3537.7043" y1="314.5251" x2="-3536.0098" y2="314.5251" gradientTransform="matrix(0 -41.0391 -41.5793 0 13216.4209 -145114.6563)">
				<stop  offset="0" style="stop-color:#B69170"/>
				<stop  offset="0.2776" style="stop-color:#B99372"/>
				<stop  offset="0.5005" style="stop-color:#C39B77"/>
				<stop  offset="0.7044" style="stop-color:#D4A880"/>
				<stop  offset="0.8959" style="stop-color:#ECBA8D"/>
				<stop  offset="1" style="stop-color:#FCC696"/>
			</linearGradient>
			<rect x="39.33" y="0" clip-path="url(#SVGID_1_)" fill="url(#SVGID_2_)" width="198.717" height="69.551"/>
		</g>
		<g>
			<defs>
				<path id="SVGID_306_" d="M49.183,3.612c-3.415,0-6.191,2.745-6.191,6.116v50.091c0,3.378,2.776,6.116,6.191,6.116h179.011
					c3.413,0,6.189-2.739,6.189-6.116V9.728c0-3.371-2.776-6.116-6.189-6.116H49.183z"/>
			</defs>
			<clipPath id="SVGID_3_">
				<use xlink:href="#SVGID_306_"  overflow="visible"/>
			</clipPath>
			
				<linearGradient id="SVGID_4_" gradientUnits="userSpaceOnUse" x1="-3537.7517" y1="305.7409" x2="-3536.0569" y2="305.7409" gradientTransform="matrix(0 -36.7734 -37.2575 0 11529.8281 -130029.2188)">
				<stop  offset="0" style="stop-color:#FFFFFF"/>
				<stop  offset="0.2973" style="stop-color:#F8F8F8"/>
				<stop  offset="0.7441" style="stop-color:#E6E5E3"/>
				<stop  offset="1" style="stop-color:#D8D7D4"/>
			</linearGradient>
			<rect x="42.992" y="3.611" clip-path="url(#SVGID_3_)" fill="url(#SVGID_4_)" width="191.391" height="62.323"/>
		</g>
		<g opacity="0.4">
			<g>
				<defs>
					<rect id="SVGID_309_" x="42.628" y="3.249" width="192.123" height="63.049"/>
				</defs>
				<clipPath id="SVGID_5_">
					<use xlink:href="#SVGID_309_"  overflow="visible"/>
				</clipPath>
				<g clip-path="url(#SVGID_5_)">
					<defs>
						<path id="SVGID_311_" d="M49.183,3.249c-3.617,0-6.555,2.906-6.555,6.477V59.82c0,3.571,2.939,6.477,6.555,6.477h179.011
							c3.617,0,6.557-2.906,6.557-6.477V9.726c0-3.571-2.94-6.477-6.557-6.477H49.183z"/>
					</defs>
					<clipPath id="SVGID_6_">
						<use xlink:href="#SVGID_311_"  overflow="visible"/>
					</clipPath>
					
						<linearGradient id="SVGID_7_" gradientUnits="userSpaceOnUse" x1="-3536.5854" y1="473.8964" x2="-3534.8909" y2="473.8964" gradientTransform="matrix(0 37.2031 37.6928 0 -17723.791 131575.1875)">
						<stop  offset="0" style="stop-color:#FAAD3F"/>
						<stop  offset="0.1049" style="stop-color:#FAB047"/>
						<stop  offset="0.2662" style="stop-color:#FBBA5C"/>
						<stop  offset="0.4635" style="stop-color:#FCC97F"/>
						<stop  offset="0.6895" style="stop-color:#FDDDB0"/>
						<stop  offset="0.9365" style="stop-color:#FFF8EE"/>
						<stop  offset="1" style="stop-color:#FFFFFF"/>
					</linearGradient>
					<rect x="42.628" y="3.249" clip-path="url(#SVGID_6_)" fill="url(#SVGID_7_)" width="192.123" height="63.049"/>
				</g>
			</g>
		</g>
		<g>
			<path fill="#231F20" d="M104.978,21.352l3.312,0.014c0.555,0,2.244,0.014,3.45,0.89c1.261,0.917,1.704,2.478,1.704,3.887
				c0,3.039-1.649,4.626-3.547,4.969c-0.374,0.068-0.79,0.109-1.802,0.109h-3.117V21.352z M107.154,29.592
				c0.235,0.014,0.596,0.027,0.845,0.027c0.914,0,1.704-0.068,2.328-0.685c0.845-0.835,0.9-2.313,0.9-2.792
				c0-1.396-0.485-2.683-1.829-3.052c-0.443-0.123-1.012-0.192-2.244-0.137V29.592z"/>
			<path fill="#231F20" d="M114.916,21.298h2.147v9.923h-2.147V21.298z"/>
			<path fill="#231F20" d="M124.174,21.325l3.478,9.896h-2.161l-0.721-2.135h-3.962l-0.748,2.135h-2.051l3.616-9.896H124.174z
				 M124.23,27.484l-1.386-4.216l-1.482,4.216H124.23z"/>
			<path fill="#231F20" d="M128.89,21.339h3.74c0.582,0,1.704,0,2.467,0.465c0.914,0.575,1.122,1.533,1.122,2.108
				c0,0.369-0.069,1.013-0.582,1.478c-0.069,0.082-0.554,0.521-1.136,0.671v0.027c1.523,0.273,2.119,1.369,2.119,2.409
				c0,1.163-0.692,1.943-1.468,2.327c-0.776,0.396-2.134,0.396-2.522,0.396h-3.74V21.339z M130.94,25.362h1.497
				c0.609,0,1.718,0,1.718-1.272c0-1.232-1.053-1.232-1.76-1.232h-1.455V25.362z M130.94,29.633h1.455c0.984,0,2.092,0,2.092-1.327
				c0-1.41-1.288-1.41-2.313-1.41h-1.233V29.633z"/>
			<path fill="#231F20" d="M138.219,21.325h6.706v1.615h-4.559v2.354h4.268v1.615h-4.268v2.669h4.711v1.643h-6.858V21.325z"/>
			<path fill="#231F20" d="M148.836,22.968h-2.979v-1.643h8.119v1.643h-2.979v8.253h-2.161V22.968z"/>
			<path fill="#231F20" d="M155.159,21.325h6.706v1.615h-4.559v2.354h4.268v1.615h-4.268v2.669h4.711v1.643h-6.858V21.325z"/>
			<path fill="#231F20" d="M165.277,28.058c0,0.466-0.027,1.876,1.815,1.876c1.164,0,1.897-0.548,1.897-1.383
				c0-0.876-0.623-1.026-1.897-1.328c-2.383-0.588-3.686-1.286-3.686-2.997c0-1.629,1.178-3.065,3.963-3.065
				c1.039,0,2.271,0.232,3.02,1.163c0.568,0.712,0.568,1.506,0.568,1.834h-2.064c-0.027-0.342-0.139-1.506-1.621-1.506
				c-0.997,0-1.648,0.534-1.648,1.342c0,0.917,0.734,1.081,2.175,1.437c1.732,0.411,3.437,0.876,3.437,2.807
				c0,1.779-1.496,3.216-4.268,3.216c-3.838,0-3.865-2.437-3.879-3.395H165.277z"/>
		</g>
		<g>
			<path fill="#5E5F5E" d="M60.658,38.456c-0.457,1.369-1.219,3.586-1.219,6.036c0,1.834,0.388,3.203,1.205,6.009h-1.51
				c-0.79-1.902-1.399-3.888-1.399-5.94c0-2.107,0.637-4.147,1.413-6.104H60.658z"/>
			<path fill="#5E5F5E" d="M64.664,40.564h-2.979v-1.643h8.119v1.643h-2.979v8.253h-2.161V40.564z"/>
			<path fill="#5E5F5E" d="M70.292,41.905l1.537,4.791l1.566-4.791h2.036l-2.646,6.789l-0.845,2.751h-2.064l0.887-2.601
				l-2.688-6.939H70.292z"/>
			<path fill="#5E5F5E" d="M78.415,41.905l0.056,0.985c0.638-1.108,1.801-1.122,2.134-1.122c1.814,0,2.909,1.341,2.909,3.449
				c0,1.957-1.025,3.695-3.048,3.695c-1.261,0-1.773-0.657-1.953-0.89v3.449H76.42v-9.567H78.415z M81.436,45.3
				c0-0.821-0.208-2.231-1.413-2.231c-0.665,0-1.607,0.493-1.607,2.354c0,0.411,0.014,2.163,1.524,2.163
				C80.91,47.586,81.436,46.669,81.436,45.3z"/>
			<path fill="#5E5F5E" d="M86.608,45.875c0,0.451,0,1.848,1.428,1.848c0.513,0,1.025-0.191,1.219-0.958h1.871
				c-0.028,0.328-0.098,0.917-0.665,1.505c-0.513,0.534-1.428,0.808-2.453,0.808c-0.596,0-1.731-0.109-2.466-0.862
				c-0.638-0.656-0.9-1.588-0.9-2.696c0-1.122,0.277-2.464,1.455-3.271c0.54-0.356,1.205-0.575,1.967-0.575
				c0.998,0,2.189,0.383,2.826,1.67c0.472,0.944,0.443,1.957,0.416,2.532H86.608z M89.213,44.601c0-0.314-0.028-1.547-1.22-1.547
				c-0.9,0-1.274,0.739-1.316,1.547H89.213z"/>
			<path fill="#5E5F5E" d="M96.936,40.701c0.9-0.384,1.76-0.862,2.563-1.438h1.788v9.554h-2.093v-7.432
				c-0.401,0.301-1.205,0.793-2.258,1.218V40.701z"/>
			<path fill="#5E5F5E" d="M111.379,41.741c2.535,0,3.63,1.697,3.63,3.627c0,1.943-1.136,3.695-3.672,3.695
				c-1.995,0-3.574-1.218-3.574-3.641C107.763,43.753,108.621,41.741,111.379,41.741z M111.407,47.654
				c0.9,0,1.511-0.534,1.511-2.368c0-0.917-0.181-2.19-1.538-2.19c-1.496,0-1.511,1.711-1.511,2.341
				C109.868,46.983,110.395,47.654,111.407,47.654z"/>
			<path fill="#5E5F5E" d="M116.551,43.602c0-0.328-0.056-1.327-0.097-1.725h1.926l0.042,1.328c0.263-0.589,0.72-1.424,2.383-1.342
				v1.82c-2.078-0.191-2.203,0.862-2.203,1.725v3.408h-2.051V43.602z"/>
			<path fill="#5E5F5E" d="M125.243,46.888l2.508-2.259c0.443-0.396,0.941-0.835,1.454-1.45c0.541-0.644,0.665-0.945,0.665-1.383
				c0-0.726-0.43-1.218-1.149-1.218c-1.108,0-1.206,1.122-1.22,1.396h-2.119c0-0.383,0-1.095,0.567-1.793
				c0.555-0.685,1.58-1.04,2.758-1.04c2.105,0,3.27,1.122,3.27,2.601c0,0.985-0.388,2.259-4.572,5.584
				c1.399-0.027,1.565-0.041,2.66-0.055c1.482-0.027,1.648-0.027,1.968-0.041v1.588h-6.789V46.888z"/>
			<path fill="#5E5F5E" d="M136.068,46.997l-1.648,3.367h-1.428l1.025-3.367H136.068z"/>
			<path fill="#5E5F5E" d="M140.186,46.737v-1.848l3.879-5.626h2.064l-0.014,5.899h1.316v1.574h-1.316v2.08h-2.051v-2.08H140.186z
				 M141.738,45.204h2.438v-2.519c0-0.123,0.014-0.808,0.027-1.054L141.738,45.204z"/>
			<path fill="#5E5F5E" d="M151.566,39.127c1.357,0,2.161,0.726,2.521,1.259c0.499,0.726,0.873,1.656,0.873,3.449
				c0,2.218-0.513,5.133-3.423,5.133c-2.479,0-3.339-2.354-3.339-4.899C148.199,42.795,148.462,39.127,151.566,39.127z
				 M152.632,41.823c-0.056-0.26-0.291-1.108-1.053-1.108c-0.596,0-0.859,0.533-0.956,0.821c-0.318,0.972-0.318,2.436-0.318,2.669
				c0,1.629,0.249,3.147,1.288,3.147c1.108,0,1.288-1.861,1.288-3.175C152.881,43.575,152.813,42.453,152.632,41.823z"/>
			<path fill="#5E5F5E" d="M155.989,44.424h3.437v1.547h-3.437V44.424z"/>
			<path fill="#5E5F5E" d="M160.508,39.277h6.554v1.697l-3.325,7.843h-2.314l3.533-7.952h-4.447V39.277z"/>
			<path fill="#5E5F5E" d="M170.183,46.463c-0.015,0.22,0.166,1.068,1.136,1.068c0.748,0,1.427-0.534,1.427-1.794
				c0-0.917-0.36-1.71-1.288-1.71c-0.929,0-1.164,0.738-1.233,0.958l-2.009-0.055l0.222-5.653h5.86v1.561h-4.031l-0.125,2.368
				c0.305-0.261,0.762-0.685,1.829-0.685c1.552,0,2.854,1.122,2.854,3.038c0,1.629-0.97,3.463-3.449,3.463
				c-1.012,0-2.037-0.26-2.702-1.04c-0.484-0.575-0.526-1.163-0.54-1.52H170.183z"/>
			<path fill="#5E5F5E" d="M181.674,41.905l1.537,4.791l1.566-4.791h2.036l-2.646,6.789l-0.845,2.751h-2.064l0.887-2.601
				l-2.688-6.939H181.674z"/>
			<path fill="#5E5F5E" d="M189.256,45.875c0,0.451,0,1.848,1.428,1.848c0.513,0,1.025-0.191,1.219-0.958h1.871
				c-0.028,0.328-0.098,0.917-0.665,1.505c-0.513,0.534-1.428,0.808-2.453,0.808c-0.596,0-1.731-0.109-2.466-0.862
				c-0.638-0.656-0.9-1.588-0.9-2.696c0-1.122,0.277-2.464,1.455-3.271c0.54-0.356,1.205-0.575,1.967-0.575
				c0.998,0,2.189,0.383,2.826,1.67c0.472,0.944,0.443,1.957,0.416,2.532H189.256z M191.862,44.601c0-0.314-0.028-1.547-1.22-1.547
				c-0.9,0-1.274,0.739-1.316,1.547H191.862z"/>
			<path fill="#5E5F5E" d="M199.513,48.817c-0.069-0.424-0.069-0.739-0.069-0.944c-0.775,1.108-1.704,1.108-2.092,1.108
				c-1.012,0-1.469-0.287-1.746-0.547c-0.416-0.411-0.609-0.973-0.609-1.52c0-0.548,0.193-1.561,1.482-2.149
				c0.859-0.383,2.092-0.383,2.771-0.383c0-0.452-0.014-0.671-0.097-0.917c-0.18-0.507-0.721-0.575-0.914-0.575
				c-0.291,0-0.596,0.123-0.776,0.384c-0.152,0.232-0.152,0.451-0.152,0.615h-2.009c0.014-0.369,0.056-1.108,0.79-1.628
				c0.637-0.452,1.454-0.562,2.119-0.562c0.582,0,1.802,0.096,2.494,0.89c0.472,0.562,0.485,1.382,0.485,1.697l0.014,2.778
				c0,0.589,0.041,1.177,0.166,1.752H199.513z M196.992,46.682c0,0.465,0.318,0.985,0.997,0.985c0.374,0,0.68-0.179,0.873-0.397
				c0.36-0.438,0.388-0.972,0.388-1.711C197.934,45.45,196.992,45.861,196.992,46.682z"/>
			<path fill="#5E5F5E" d="M203.023,43.602c0-0.328-0.056-1.327-0.097-1.725h1.926l0.041,1.328c0.264-0.589,0.721-1.424,2.384-1.342
				v1.82c-2.078-0.191-2.203,0.862-2.203,1.725v3.408h-2.051V43.602z"/>
			<path fill="#5E5F5E" d="M209.842,46.819c0.027,0.438,0.305,0.944,1.163,0.944c0.734,0,1.081-0.411,1.081-0.821
				c0-0.315-0.166-0.562-0.97-0.78l-1.274-0.342c-0.568-0.165-1.773-0.507-1.773-1.917c0-1.341,1.246-2.162,3.062-2.162
				c1.44,0,2.604,0.657,2.66,2.039h-1.87c-0.056-0.767-0.68-0.821-0.998-0.821c-0.554,0-0.97,0.261-0.97,0.685
				c0,0.466,0.347,0.562,0.956,0.726l1.261,0.342c1.274,0.343,1.87,0.985,1.87,1.931c0,1.19-1.039,2.381-3.214,2.381
				c-0.9,0-1.76-0.191-2.397-0.849c-0.457-0.479-0.498-1.026-0.513-1.354H209.842z"/>
			<path fill="#5E5F5E" d="M215.277,50.501c0.457-1.369,1.22-3.586,1.22-6.036c0-1.848-0.389-3.203-1.206-6.009h1.511
				c0.79,1.889,1.399,3.888,1.399,5.927c0,2.107-0.638,4.147-1.413,6.118H215.277z"/>
		</g>
	</g>
	<g>
		<path fill="#231F20" d="M24.755,30.561v9.022H23.16l-3.609-7.823h-0.025v7.823h-1.039v-9.022h1.646l3.559,7.723h0.025v-7.723
			H24.755z"/>
		<path fill="#231F20" d="M26.579,36.522c0-1.85,0.216-3.374,2.432-3.374c2.217,0,2.432,1.524,2.432,3.374
			c0,2.786-1.076,3.187-2.432,3.187C27.657,39.709,26.579,39.308,26.579,36.522z M30.354,36.085c0-1.725-0.545-2.1-1.343-2.1
			s-1.343,0.375-1.343,2.1c0,2.05,0.267,2.787,1.343,2.787C30.088,38.872,30.354,38.135,30.354,36.085z"/>
	</g>
	<g>
		<defs>
			<polygon id="SVGID_314_" points="0.716,33.813 9.571,25.073 11.864,27.343 5.302,33.813 11.864,40.295 9.571,42.554 			"/>
		</defs>
		<clipPath id="SVGID_8_">
			<use xlink:href="#SVGID_314_"  overflow="visible"/>
		</clipPath>
		
			<radialGradient id="SVGID_9_" cx="-2827.4353" cy="385.4061" r="1.6947" gradientTransform="matrix(4.3658 0 0 -4.3091 12351.7861 1694.406)" gradientUnits="userSpaceOnUse">
			<stop  offset="0" style="stop-color:#005E7D"/>
			<stop  offset="1" style="stop-color:#043E5B"/>
		</radialGradient>
		<rect x="0.715" y="25.073" clip-path="url(#SVGID_8_)" fill="url(#SVGID_9_)" width="11.148" height="17.481"/>
	</g>
	<polygon fill="none" stroke="#77787B" stroke-width="1.0066" stroke-miterlimit="10" points="11.863,27.342 9.571,25.075 
		0.716,33.813 9.571,42.556 11.863,40.295 5.301,33.813 	"/>
</g>
</svg>
