<?xml version="1.0" encoding="utf-8"?>
<!-- Generator: Adobe Illustrator 17.0.0, SVG Export Plug-In . SVG Version: 6.00 Build 0)  -->
<!DOCTYPE svg PUBLIC "-//W3C//DTD SVG 1.1//EN" "http://www.w3.org/Graphics/SVG/1.1/DTD/svg11.dtd">
<svg version="1.1" id="Layer_1" xmlns="http://www.w3.org/2000/svg" xmlns:xlink="http://www.w3.org/1999/xlink" x="0px" y="0px"
	 width="198.714px" height="119.76px" viewBox="0 0 198.714 119.76" enable-background="new 0 0 198.714 119.76"
	 xml:space="preserve">
<g>
	<g>
		<polygon fill="#8F1A1D" points="87.302,109.887 91.39,112.23 95.477,109.887 91.39,119.76 		"/>
		<line fill="none" stroke="#8F1A1D" stroke-width="1.0066" x1="91.39" y1="68.489" x2="91.39" y2="112.755"/>
	</g>
	<g>
		<path fill="#808084" d="M198.714,60.181c0,5.376-4.411,9.728-9.856,9.728H9.851c-5.441,0-9.85-4.352-9.85-9.728V10.087
			c0-5.367,4.409-9.728,9.85-9.728h179.007c5.445,0,9.856,4.36,9.856,9.728V60.181z"/>
		<g>
			<defs>
				<path id="SVGID_278_" d="M9.853,0C4.411,0,0,4.349,0,9.728v50.091c0,5.374,4.411,9.733,9.853,9.733h179.006
					c5.443,0,9.855-4.359,9.855-9.733V9.728c0-5.379-4.411-9.728-9.855-9.728H9.853z"/>
			</defs>
			<clipPath id="SVGID_1_">
				<use xlink:href="#SVGID_278_"  overflow="visible"/>
			</clipPath>
			
				<linearGradient id="SVGID_2_" gradientUnits="userSpaceOnUse" x1="-3333.5645" y1="316.9255" x2="-3331.8696" y2="316.9255" gradientTransform="matrix(0 -41.0391 -41.5793 0 13276.8965 -136736.9375)">
				<stop  offset="0" style="stop-color:#8F191C"/>
				<stop  offset="0.9951" style="stop-color:#99343B"/>
				<stop  offset="1" style="stop-color:#99343B"/>
			</linearGradient>
			<rect x="0" y="0" clip-path="url(#SVGID_1_)" fill="url(#SVGID_2_)" width="198.714" height="69.551"/>
		</g>
		<g>
			<defs>
				<path id="SVGID_281_" d="M9.853,3.612c-3.415,0-6.193,2.745-6.193,6.116v50.091c0,3.378,2.778,6.116,6.193,6.116h179.006
					c3.417,0,6.194-2.739,6.194-6.116V9.728c0-3.371-2.778-6.116-6.194-6.116H9.853z"/>
			</defs>
			<clipPath id="SVGID_3_">
				<use xlink:href="#SVGID_281_"  overflow="visible"/>
			</clipPath>
			
				<linearGradient id="SVGID_4_" gradientUnits="userSpaceOnUse" x1="-3333.6116" y1="308.4197" x2="-3331.917" y2="308.4197" gradientTransform="matrix(0 -36.7734 -37.2575 0 11590.3037 -122522.2969)">
				<stop  offset="0" style="stop-color:#FFFFFF"/>
				<stop  offset="0.2973" style="stop-color:#F8F8F8"/>
				<stop  offset="0.7441" style="stop-color:#E6E5E3"/>
				<stop  offset="1" style="stop-color:#D8D7D4"/>
			</linearGradient>
			<rect x="3.661" y="3.611" clip-path="url(#SVGID_3_)" fill="url(#SVGID_4_)" width="191.393" height="62.323"/>
		</g>
		<g opacity="0.2">
			<g>
				<defs>
					<rect id="SVGID_284_" x="3.295" y="3.249" width="192.13" height="63.049"/>
				</defs>
				<clipPath id="SVGID_5_">
					<use xlink:href="#SVGID_284_"  overflow="visible"/>
				</clipPath>
				<g clip-path="url(#SVGID_5_)">
					<defs>
						<path id="SVGID_286_" d="M9.851,3.249c-3.615,0-6.555,2.906-6.555,6.477V59.82c0,3.571,2.94,6.477,6.555,6.477h179.006
							c3.623,0,6.567-2.906,6.567-6.477V9.726c0-3.571-2.944-6.477-6.567-6.477H9.851z"/>
					</defs>
					<clipPath id="SVGID_6_">
						<use xlink:href="#SVGID_286_"  overflow="visible"/>
					</clipPath>
					
						<linearGradient id="SVGID_7_" gradientUnits="userSpaceOnUse" x1="-3332.4456" y1="471.2485" x2="-3330.751" y2="471.2485" gradientTransform="matrix(0 37.2031 37.6928 0 -17663.3164 123980.5547)">
						<stop  offset="0" style="stop-color:#8F1A1D"/>
						<stop  offset="0.1022" style="stop-color:#922023"/>
						<stop  offset="0.235" style="stop-color:#9A3033"/>
						<stop  offset="0.3849" style="stop-color:#A74B4D"/>
						<stop  offset="0.5472" style="stop-color:#B97072"/>
						<stop  offset="0.7197" style="stop-color:#D1A0A2"/>
						<stop  offset="0.8978" style="stop-color:#EDDADB"/>
						<stop  offset="1" style="stop-color:#FFFFFF"/>
					</linearGradient>
					<rect x="3.296" y="3.249" clip-path="url(#SVGID_6_)" fill="url(#SVGID_7_)" width="192.128" height="63.049"/>
				</g>
			</g>
		</g>
		<g>
			<path d="M12.397,13.534h6.706v1.615h-4.559v2.354h4.268v1.615h-4.268v2.669h4.711v1.643h-6.858V13.534z"/>
			<path d="M22.17,21.431c0.027,0.438,0.305,0.944,1.163,0.944c0.734,0,1.081-0.411,1.081-0.821c0-0.314-0.166-0.562-0.97-0.78
				l-1.274-0.342c-0.568-0.165-1.773-0.507-1.773-1.917c0-1.341,1.246-2.162,3.062-2.162c1.44,0,2.604,0.657,2.66,2.039h-1.87
				c-0.056-0.767-0.68-0.821-0.998-0.821c-0.554,0-0.97,0.261-0.97,0.685c0,0.466,0.347,0.562,0.956,0.726l1.261,0.342
				c1.274,0.343,1.87,0.985,1.87,1.931c0,1.19-1.039,2.381-3.214,2.381c-0.9,0-1.76-0.191-2.397-0.849
				c-0.457-0.479-0.498-1.026-0.513-1.354H22.17z"/>
			<path d="M31.788,23.334c-0.665,0.178-1.261,0.219-1.594,0.219c-2.064,0-2.064-1.286-2.064-1.861V17.9h-1.344v-1.342h1.344v-1.354
				l2.037-0.739v2.094h1.662V17.9h-1.662v3.12c0.014,0.63,0.014,1.026,0.929,1.026c0.305,0,0.443-0.014,0.692-0.041V23.334z"/>
			<path d="M32.996,13.548h2.189v1.766h-2.189V13.548z M33.065,16.504h2.051v6.926h-2.051V16.504z"/>
			<path d="M36.961,17.818c0-0.438-0.028-0.862-0.069-1.301h1.981l0.069,0.89c0.222-0.301,0.762-1.04,2.161-1.04
				c1.607,0,2.064,0.972,2.203,1.3c0.582-1.108,1.523-1.286,2.244-1.286c1.413,0,1.981,0.835,2.134,1.108
				c0.374,0.603,0.347,1.438,0.347,2.04v3.9h-2.064v-4.065c0-0.738-0.111-1.56-1.178-1.56c-1.233,0-1.261,1.136-1.261,2.162v3.463
				h-2.064v-4.106c0-0.533-0.015-1.519-1.15-1.519c-1.288,0-1.288,1.095-1.288,1.56v4.065h-2.064V17.818z"/>
			<path d="M54.203,23.43c-0.069-0.424-0.069-0.739-0.069-0.944c-0.775,1.108-1.704,1.108-2.092,1.108
				c-1.012,0-1.469-0.287-1.746-0.547c-0.415-0.411-0.609-0.973-0.609-1.52c0-0.548,0.194-1.561,1.482-2.149
				c0.859-0.383,2.092-0.383,2.771-0.383c0-0.452-0.014-0.671-0.097-0.917c-0.18-0.507-0.721-0.575-0.914-0.575
				c-0.291,0-0.596,0.123-0.776,0.384C52,18.119,52,18.338,52,18.502h-2.009c0.014-0.369,0.056-1.108,0.79-1.628
				c0.637-0.452,1.454-0.562,2.119-0.562c0.582,0,1.802,0.096,2.494,0.89c0.471,0.562,0.485,1.382,0.485,1.697l0.014,2.778
				c0,0.589,0.041,1.177,0.166,1.752H54.203z M51.681,21.295c0,0.465,0.318,0.985,0.997,0.985c0.374,0,0.68-0.179,0.873-0.397
				c0.36-0.438,0.388-0.972,0.388-1.711C52.624,20.062,51.681,20.473,51.681,21.295z"/>
			<path d="M61.827,23.334c-0.665,0.178-1.261,0.219-1.594,0.219c-2.064,0-2.064-1.286-2.064-1.861V17.9h-1.344v-1.342h1.344v-1.354
				l2.037-0.739v2.094h1.662V17.9h-1.662v3.12c0.014,0.63,0.014,1.026,0.929,1.026c0.305,0,0.443-0.014,0.692-0.041V23.334z"/>
			<path d="M64.754,20.487c0,0.451,0,1.848,1.427,1.848c0.513,0,1.025-0.191,1.219-0.958h1.871
				c-0.028,0.328-0.098,0.917-0.665,1.505c-0.513,0.534-1.428,0.808-2.453,0.808c-0.596,0-1.731-0.109-2.466-0.862
				c-0.638-0.656-0.9-1.587-0.9-2.696c0-1.122,0.277-2.464,1.455-3.271c0.54-0.355,1.205-0.574,1.967-0.574
				c0.998,0,2.189,0.383,2.826,1.67c0.472,0.944,0.443,1.957,0.416,2.532H64.754z M67.358,19.214c0-0.314-0.028-1.547-1.22-1.547
				c-0.9,0-1.274,0.739-1.316,1.547H67.358z"/>
			<path d="M75.081,15.313c0.9-0.384,1.76-0.862,2.563-1.438h1.787v9.554h-2.093v-7.432c-0.401,0.301-1.205,0.793-2.258,1.218
				V15.313z"/>
			<path d="M85.366,13.739c1.357,0,2.161,0.726,2.521,1.259c0.499,0.726,0.873,1.656,0.873,3.449c0,2.218-0.513,5.133-3.423,5.133
				c-2.479,0-3.339-2.354-3.339-4.899C81.999,17.407,82.262,13.739,85.366,13.739z M86.432,16.435
				c-0.056-0.26-0.291-1.108-1.053-1.108c-0.596,0-0.859,0.533-0.956,0.821c-0.318,0.972-0.318,2.436-0.318,2.669
				c0,1.629,0.249,3.147,1.288,3.147c1.108,0,1.288-1.861,1.288-3.175C86.681,18.187,86.613,17.065,86.432,16.435z"/>
			<path d="M95.444,16.517l1.537,4.791l1.566-4.791h2.036l-2.646,6.789l-0.845,2.751h-2.064l0.887-2.601l-2.688-6.939H95.444z"/>
			<path d="M103.291,20.487c0,0.451,0,1.848,1.427,1.848c0.513,0,1.025-0.191,1.219-0.958h1.871
				c-0.028,0.328-0.098,0.917-0.665,1.505c-0.513,0.534-1.428,0.808-2.453,0.808c-0.596,0-1.731-0.109-2.466-0.862
				c-0.638-0.656-0.9-1.587-0.9-2.696c0-1.122,0.277-2.464,1.455-3.271c0.54-0.355,1.205-0.574,1.967-0.574
				c0.998,0,2.189,0.383,2.826,1.67c0.472,0.944,0.443,1.957,0.416,2.532H103.291z M105.895,19.214c0-0.314-0.028-1.547-1.22-1.547
				c-0.9,0-1.274,0.739-1.316,1.547H105.895z"/>
			<path d="M113.547,23.43c-0.069-0.424-0.069-0.739-0.069-0.944c-0.775,1.108-1.704,1.108-2.092,1.108
				c-1.012,0-1.469-0.287-1.746-0.547c-0.415-0.411-0.609-0.973-0.609-1.52c0-0.548,0.194-1.561,1.482-2.149
				c0.859-0.383,2.092-0.383,2.771-0.383c0-0.452-0.014-0.671-0.097-0.917c-0.18-0.507-0.721-0.575-0.914-0.575
				c-0.291,0-0.596,0.123-0.776,0.384c-0.152,0.232-0.152,0.451-0.152,0.615h-2.009c0.014-0.369,0.056-1.108,0.79-1.628
				c0.637-0.452,1.454-0.562,2.119-0.562c0.582,0,1.802,0.096,2.494,0.89c0.471,0.562,0.485,1.382,0.485,1.697l0.014,2.778
				c0,0.589,0.041,1.177,0.166,1.752H113.547z M111.025,21.295c0,0.465,0.318,0.985,0.997,0.985c0.374,0,0.68-0.179,0.873-0.397
				c0.36-0.438,0.388-0.972,0.388-1.711C111.967,20.062,111.025,20.473,111.025,21.295z"/>
			<path d="M117.055,18.215c0-0.328-0.056-1.327-0.097-1.725h1.926l0.041,1.328c0.264-0.589,0.721-1.424,2.384-1.342v1.82
				c-2.078-0.191-2.203,0.862-2.203,1.725v3.408h-2.051V18.215z"/>
			<path d="M123.875,21.431c0.028,0.438,0.306,0.944,1.164,0.944c0.734,0,1.081-0.411,1.081-0.821c0-0.314-0.166-0.562-0.97-0.78
				l-1.275-0.342c-0.567-0.165-1.773-0.507-1.773-1.917c0-1.341,1.247-2.162,3.063-2.162c1.44,0,2.604,0.657,2.66,2.039h-1.87
				c-0.056-0.767-0.68-0.821-0.998-0.821c-0.554,0-0.97,0.261-0.97,0.685c0,0.466,0.347,0.562,0.956,0.726l1.261,0.342
				c1.274,0.343,1.87,0.985,1.87,1.931c0,1.19-1.039,2.381-3.214,2.381c-0.9,0-1.76-0.191-2.397-0.849
				c-0.457-0.479-0.498-1.026-0.513-1.354H123.875z"/>
			<path d="M138.566,13.534l3.478,9.896h-2.161l-0.721-2.135H135.2l-0.748,2.135h-2.051l3.616-9.896H138.566z M138.622,19.693
				l-1.386-4.216l-1.482,4.216H138.622z"/>
			<path d="M145.014,20.267c0,0.466-0.027,1.876,1.815,1.876c1.164,0,1.897-0.548,1.897-1.383c0-0.876-0.623-1.026-1.897-1.328
				c-2.383-0.588-3.686-1.286-3.686-2.997c0-1.629,1.178-3.065,3.963-3.065c1.039,0,2.271,0.232,3.02,1.163
				c0.568,0.712,0.568,1.506,0.568,1.834h-2.064c-0.027-0.342-0.139-1.506-1.621-1.506c-0.997,0-1.648,0.534-1.648,1.342
				c0,0.917,0.734,1.081,2.175,1.437c1.732,0.411,3.437,0.876,3.437,2.807c0,1.779-1.496,3.216-4.268,3.216
				c-3.838,0-3.865-2.437-3.879-3.395H145.014z"/>
			<path d="M158.181,16.763c-0.041-0.342-0.166-1.738-1.621-1.738c-1.593,0-2.258,1.643-2.258,3.683c0,0.588,0,3.394,2.092,3.394
				c0.9,0,1.76-0.561,1.801-1.875h2.259c-0.042,0.589-0.097,1.506-0.9,2.327c-0.887,0.903-2.009,1.108-2.924,1.108
				c-3.449,0-4.572-2.519-4.572-4.968c0-3.135,1.773-5.215,4.586-5.215c2.189,0,3.728,1.313,3.728,3.284H158.181z"/>
			<path d="M163.341,13.575l2.618,7.761l2.633-7.761h2.12l-3.686,9.854h-2.342l-3.686-9.854H163.341z"/>
			<path d="M171.741,13.561l3.312,0.014c0.555,0,2.244,0.014,3.45,0.89c1.261,0.917,1.704,2.478,1.704,3.887
				c0,3.039-1.649,4.626-3.547,4.969c-0.374,0.068-0.79,0.109-1.802,0.109h-3.117V13.561z M173.917,21.801
				c0.235,0.014,0.596,0.027,0.845,0.027c0.914,0,1.704-0.068,2.328-0.685c0.845-0.835,0.9-2.313,0.9-2.792
				c0-1.396-0.485-2.683-1.829-3.052c-0.443-0.123-1.012-0.192-2.244-0.137V21.801z"/>
			<path d="M181.488,12.89v-1.21h1.943V9.781h1.473v1.899h1.895v1.21h-1.895v5.627h-1.473V12.89H181.488z"/>
		</g>
		<g>
			<path fill="#231F20" d="M18.828,34.634c0-0.328-0.056-1.327-0.097-1.725h1.926l0.042,1.328c0.263-0.589,0.72-1.424,2.383-1.342
				v1.82c-2.078-0.191-2.203,0.862-2.203,1.725v3.408h-2.051V34.634z"/>
			<path fill="#231F20" d="M24.151,29.967h2.189v1.766h-2.189V29.967z M24.22,32.923h2.051v6.926H24.22V32.923z"/>
			<path fill="#231F20" d="M29.502,37.85c0.027,0.438,0.305,0.944,1.163,0.944c0.734,0,1.081-0.411,1.081-0.821
				c0-0.315-0.166-0.562-0.97-0.78l-1.274-0.342c-0.568-0.165-1.773-0.507-1.773-1.917c0-1.341,1.246-2.162,3.062-2.162
				c1.44,0,2.604,0.657,2.66,2.039h-1.87c-0.056-0.767-0.68-0.821-0.998-0.821c-0.554,0-0.97,0.261-0.97,0.685
				c0,0.466,0.347,0.562,0.956,0.726l1.261,0.342c1.274,0.343,1.87,0.985,1.87,1.931c0,1.19-1.039,2.381-3.214,2.381
				c-0.9,0-1.76-0.191-2.397-0.849c-0.457-0.479-0.498-1.026-0.513-1.354H29.502z"/>
			<path fill="#231F20" d="M35.033,29.953h2.036v5.83l2.12-2.888h2.313l-2.396,3.011l2.549,3.942H39.23l-2.161-3.764v3.764h-2.036
				V29.953z"/>
			<path fill="#231F20" d="M47.91,32.936l1.289,5.215l1.482-5.215h2.258l1.469,5.215l1.372-5.215h2.036l-2.396,6.912h-2.23
				l-1.441-5.119l-1.469,5.119h-2.258l-2.286-6.912H47.91z"/>
			<path fill="#231F20" d="M58.82,29.967h2.189v1.766H58.82V29.967z M58.889,32.923h2.051v6.926h-2.051V32.923z"/>
			<path fill="#231F20" d="M66.858,39.753c-0.665,0.178-1.261,0.219-1.594,0.219c-2.064,0-2.064-1.286-2.064-1.861v-3.791h-1.344
				v-1.342H63.2v-1.354l2.037-0.739v2.094h1.662v1.342h-1.662v3.12c0.014,0.63,0.014,1.026,0.929,1.026
				c0.305,0,0.443-0.014,0.692-0.041V39.753z"/>
			<path fill="#231F20" d="M68.191,29.967h2.037v3.914c0.235-0.328,0.748-1.04,2.022-1.04c1.039,0,1.704,0.507,2.036,0.931
				c0.25,0.342,0.458,0.972,0.458,1.875v4.202h-2.037v-4.134c0-0.396,0-1.505-1.149-1.505c-0.582,0-1.316,0.328-1.316,1.409
				l0.014,4.229h-2.064V29.967z"/>
			<path fill="#231F20" d="M80.459,29.98h3.09c1.441,0,2.646,0.096,3.478,1.081c0.526,0.63,0.609,1.341,0.609,1.848
				c0,1.149-0.484,2.122-1.274,2.628c-0.734,0.466-1.746,0.466-2.272,0.466h-1.454v3.846h-2.176V29.98z M82.579,34.429h0.858
				c0.693,0,1.981,0,1.981-1.506c0-1.341-1.149-1.341-1.759-1.341h-1.081V34.429z"/>
			<path fill="#231F20" d="M92.226,32.772c2.535,0,3.63,1.697,3.63,3.627c0,1.943-1.136,3.695-3.672,3.695
				c-1.995,0-3.574-1.218-3.574-3.641C88.61,34.784,89.468,32.772,92.226,32.772z M92.254,38.685c0.9,0,1.511-0.534,1.511-2.368
				c0-0.917-0.181-2.19-1.538-2.19c-1.496,0-1.511,1.711-1.511,2.341C90.716,38.014,91.242,38.685,92.254,38.685z"/>
			<path fill="#231F20" d="M100.696,32.772c2.535,0,3.63,1.697,3.63,3.627c0,1.943-1.136,3.695-3.672,3.695
				c-1.995,0-3.574-1.218-3.574-3.641C97.08,34.784,97.939,32.772,100.696,32.772z M100.723,38.685c0.9,0,1.511-0.534,1.511-2.368
				c0-0.917-0.181-2.19-1.538-2.19c-1.496,0-1.511,1.711-1.511,2.341C99.185,38.014,99.713,38.685,100.723,38.685z"/>
			<path fill="#231F20" d="M105.868,29.953h2.051v9.896h-2.051V29.953z"/>
			<path fill="#231F20" d="M111.371,36.906c0,0.451,0,1.848,1.427,1.848c0.513,0,1.025-0.191,1.219-0.958h1.871
				c-0.028,0.328-0.098,0.917-0.665,1.505c-0.513,0.534-1.428,0.808-2.453,0.808c-0.596,0-1.731-0.109-2.466-0.862
				c-0.638-0.656-0.9-1.588-0.9-2.696c0-1.122,0.277-2.464,1.455-3.271c0.54-0.356,1.205-0.575,1.967-0.575
				c0.998,0,2.189,0.383,2.826,1.67c0.472,0.944,0.443,1.957,0.416,2.532H111.371z M113.975,35.633c0-0.314-0.028-1.547-1.22-1.547
				c-0.9,0-1.274,0.739-1.316,1.547H113.975z"/>
			<path fill="#231F20" d="M122.056,29.967h2.064v8.76c0,0.41,0.027,0.862,0.055,1.122h-2.078l-0.055-0.999
				c-0.139,0.246-0.277,0.506-0.707,0.78c-0.513,0.328-1.053,0.355-1.357,0.355c-1.871,0-2.979-1.272-2.979-3.436
				c0-2.285,1.261-3.709,3.09-3.709c1.261,0,1.787,0.698,1.968,0.944V29.967z M120.491,38.672c0.596,0,1.08-0.356,1.302-0.78
				c0.305-0.575,0.333-1.287,0.333-1.629c0-1.355-0.596-2.094-1.524-2.094c-1.371,0-1.523,1.628-1.523,2.326
				C119.078,37.644,119.466,38.672,120.491,38.672z"/>
			<path fill="#231F20" d="M135.446,33.182c-0.041-0.342-0.166-1.738-1.621-1.738c-1.593,0-2.258,1.643-2.258,3.683
				c0,0.588,0,3.394,2.092,3.394c0.9,0,1.76-0.561,1.801-1.875h2.259c-0.042,0.589-0.097,1.506-0.9,2.327
				c-0.887,0.903-2.009,1.108-2.924,1.108c-3.449,0-4.572-2.519-4.572-4.968c0-3.135,1.773-5.215,4.586-5.215
				c2.189,0,3.728,1.313,3.728,3.284H135.446z"/>
			<path fill="#231F20" d="M142.296,32.772c2.535,0,3.63,1.697,3.63,3.627c0,1.943-1.136,3.695-3.672,3.695
				c-1.995,0-3.574-1.218-3.574-3.641C138.679,34.784,139.539,32.772,142.296,32.772z M142.323,38.685
				c0.9,0,1.511-0.534,1.511-2.368c0-0.917-0.181-2.19-1.538-2.19c-1.496,0-1.511,1.711-1.511,2.341
				C140.785,38.014,141.312,38.685,142.323,38.685z"/>
			<path fill="#231F20" d="M147.523,29.967h2.037v3.914c0.235-0.328,0.748-1.04,2.022-1.04c1.039,0,1.704,0.507,2.036,0.931
				c0.25,0.342,0.458,0.972,0.458,1.875v4.202h-2.037v-4.134c0-0.396,0-1.505-1.149-1.505c-0.582,0-1.316,0.328-1.316,1.409
				l0.014,4.229h-2.064V29.967z"/>
			<path fill="#231F20" d="M159.235,32.772c2.535,0,3.63,1.697,3.63,3.627c0,1.943-1.136,3.695-3.672,3.695
				c-1.995,0-3.574-1.218-3.574-3.641C155.619,34.784,156.478,32.772,159.235,32.772z M159.262,38.685
				c0.9,0,1.511-0.534,1.511-2.368c0-0.917-0.181-2.19-1.538-2.19c-1.496,0-1.511,1.711-1.511,2.341
				C157.724,38.014,158.252,38.685,159.262,38.685z"/>
			<path fill="#231F20" d="M164.407,34.634c0-0.328-0.056-1.327-0.097-1.725h1.926l0.041,1.328c0.264-0.589,0.721-1.424,2.384-1.342
				v1.82c-2.078-0.191-2.203,0.862-2.203,1.725v3.408h-2.051V34.634z"/>
			<path fill="#231F20" d="M173.915,39.753c-0.665,0.178-1.261,0.219-1.594,0.219c-2.064,0-2.064-1.286-2.064-1.861v-3.791h-1.344
				v-1.342h1.344v-1.354l2.037-0.739v2.094h1.662v1.342h-1.662v3.12c0.014,0.63,0.014,1.026,0.929,1.026
				c0.305,0,0.443-0.014,0.692-0.041V39.753z"/>
		</g>
		<g>
			<path fill="#231F20" d="M63.699,46.371h6.706v1.615h-4.559v2.354h4.268v1.615h-4.268v2.669h4.711v1.643h-6.858V46.371z"/>
			<path fill="#231F20" d="M78.805,49.341c0,0.123-0.042,1.054-0.042,1.328v8.226h-2.105v-3.436
				c-0.208,0.246-0.763,0.903-1.94,0.903c-1.413,0-3.075-0.999-3.075-3.641c0-2.655,1.565-3.518,2.951-3.518
				c1.44,0,1.953,0.862,2.119,1.136l0.069-0.999H78.805z M74.191,54.528c0.319,0.438,0.79,0.493,1.081,0.493
				c1.33,0,1.496-1.451,1.496-2.204s-0.194-2.286-1.607-2.286c-1.178,0-1.427,1.205-1.427,2.245
				C73.734,53.228,73.79,53.994,74.191,54.528z"/>
			<path fill="#231F20" d="M82.522,49.354v4.12c0,0.602,0,1.52,1.095,1.52c1.316,0,1.316-0.973,1.316-2.149v-3.49h2.105v4.558
				c0.028,1.492,0.042,1.67,0.042,1.848c0.014,0.192,0.027,0.315,0.056,0.507h-1.995l-0.069-0.917
				c-0.208,0.301-0.734,1.095-2.064,1.095c-0.942,0-1.718-0.424-2.106-0.931c-0.457-0.561-0.457-1.52-0.457-1.861v-4.298H82.522z"/>
			<path fill="#231F20" d="M93.181,56.266c-0.069-0.424-0.069-0.739-0.069-0.944c-0.775,1.108-1.704,1.108-2.092,1.108
				c-1.012,0-1.469-0.287-1.746-0.547c-0.415-0.411-0.609-0.973-0.609-1.52c0-0.548,0.194-1.561,1.482-2.149
				c0.859-0.383,2.092-0.383,2.771-0.383c0-0.452-0.014-0.671-0.097-0.917c-0.18-0.507-0.721-0.575-0.914-0.575
				c-0.291,0-0.596,0.123-0.776,0.384c-0.152,0.232-0.152,0.451-0.152,0.615h-2.009c0.014-0.369,0.056-1.108,0.79-1.628
				c0.637-0.452,1.454-0.562,2.119-0.562c0.582,0,1.802,0.096,2.494,0.89c0.471,0.562,0.485,1.382,0.485,1.697l0.014,2.778
				c0,0.589,0.041,1.177,0.166,1.752H93.181z M90.66,54.132c0,0.465,0.318,0.985,0.997,0.985c0.374,0,0.68-0.179,0.873-0.397
				c0.36-0.438,0.388-0.972,0.388-1.711C91.602,52.899,90.66,53.31,90.66,54.132z"/>
			<path fill="#231F20" d="M100.805,56.171c-0.665,0.178-1.261,0.219-1.594,0.219c-2.064,0-2.064-1.286-2.064-1.861v-3.791h-1.344
				v-1.342h1.344v-1.354l2.037-0.739v2.094h1.662v1.342h-1.662v3.12c0.014,0.63,0.014,1.026,0.929,1.026
				c0.305,0,0.443-0.014,0.692-0.041V56.171z"/>
			<path fill="#231F20" d="M102.013,46.385h2.189v1.766h-2.189V46.385z M102.083,49.341h2.051v6.926h-2.051V49.341z"/>
			<path fill="#231F20" d="M109.234,49.19c2.535,0,3.63,1.697,3.63,3.627c0,1.943-1.136,3.695-3.672,3.695
				c-1.995,0-3.574-1.218-3.574-3.641C105.618,51.202,106.476,49.19,109.234,49.19z M109.261,55.103c0.9,0,1.511-0.534,1.511-2.368
				c0-0.917-0.181-2.19-1.538-2.19c-1.496,0-1.511,1.711-1.511,2.341C107.723,54.432,108.25,55.103,109.261,55.103z"/>
			<path fill="#231F20" d="M114.434,50.587c0-0.028,0-0.78-0.042-1.26h1.968l0.055,1.04c0.194-0.314,0.749-1.204,2.272-1.204
				c1.372,0,1.954,0.821,2.134,1.3c0.152,0.425,0.194,0.78,0.194,2.067v3.736h-2.093v-4.298c0-0.287,0-0.534-0.11-0.753
				c-0.152-0.301-0.472-0.588-0.998-0.588c-0.443,0-0.845,0.205-1.066,0.533c-0.125,0.178-0.25,0.521-0.25,1.054v4.052h-2.063
				V50.587z"/>
			<path fill="#231F20" d="M124.302,54.268c0.028,0.438,0.306,0.944,1.164,0.944c0.734,0,1.081-0.411,1.081-0.821
				c0-0.315-0.166-0.562-0.97-0.78l-1.275-0.342c-0.567-0.165-1.773-0.507-1.773-1.917c0-1.341,1.247-2.162,3.063-2.162
				c1.44,0,2.604,0.657,2.66,2.039h-1.87c-0.056-0.767-0.68-0.821-0.998-0.821c-0.554,0-0.97,0.261-0.97,0.685
				c0,0.466,0.347,0.562,0.956,0.726l1.261,0.342c1.274,0.343,1.87,0.985,1.87,1.931c0,1.19-1.039,2.381-3.214,2.381
				c-0.9,0-1.76-0.191-2.397-0.849c-0.457-0.479-0.498-1.026-0.513-1.354H124.302z"/>
		</g>
		<g>
			<path fill="#231F20" d="M128.832,49.434h0.833l0.179-0.966h-0.663v-0.878h0.833l0.267-1.444h1.035l-0.267,1.444h0.768
				l0.268-1.444h1.043l-0.275,1.444h0.672v0.878h-0.833l-0.179,0.966h0.664v0.878h-0.833l-0.259,1.396h-1.035l0.267-1.396h-0.776
				l-0.259,1.396h-1.043l0.259-1.396h-0.664V49.434z M131.468,49.434l0.187-0.966h-0.769l-0.187,0.966H131.468z"/>
		</g>
	</g>
</g>
</svg>
