<?xml version="1.0" encoding="utf-8"?>
<!-- Generator: Adobe Illustrator 17.0.0, SVG Export Plug-In . SVG Version: 6.00 Build 0)  -->
<!DOCTYPE svg PUBLIC "-//W3C//DTD SVG 1.1//EN" "http://www.w3.org/Graphics/SVG/1.1/DTD/svg11.dtd">
<svg version="1.1" id="Layer_1" xmlns="http://www.w3.org/2000/svg" xmlns:xlink="http://www.w3.org/1999/xlink" x="0px" y="0px"
	 width="243.1px" height="90.465px" viewBox="0 0 243.1 90.465" enable-background="new 0 0 243.1 90.465" xml:space="preserve">
<g>
	<line fill="none" stroke="#8F1A1D" stroke-width="1.0066" x1="95.896" y1="73.033" x2="95.896" y2="83.459"/>
	<polygon fill="#8F1A1D" points="91.808,80.592 95.896,82.935 99.983,80.592 95.896,90.465 	"/>
	<g>
		<g>
			<path fill="#808084" d="M202.916,61.459c0,5.482-4.504,9.93-10.064,9.93H10.06c-5.556,0-10.059-4.448-10.059-9.93V10.306
				c0-5.486,4.503-9.937,10.059-9.937h182.792c5.56,0,10.064,4.451,10.064,9.937V61.459z"/>
			<g>
				<defs>
					<path id="SVGID_317_" d="M10.061,0C4.505,0,0,4.448,0,9.935V61.09c0,5.482,4.505,9.933,10.061,9.933h182.792
						c5.559,0,10.063-4.451,10.063-9.933V9.935c0-5.488-4.505-9.935-10.063-9.935H10.061z"/>
				</defs>
				<clipPath id="SVGID_1_">
					<use xlink:href="#SVGID_317_"  overflow="visible"/>
				</clipPath>
				
					<linearGradient id="SVGID_2_" gradientUnits="userSpaceOnUse" x1="-3327.7065" y1="187.8696" x2="-3325.9758" y2="187.8696" gradientTransform="matrix(0 -41.041 -41.5812 0 7913.3022 -136501.375)">
					<stop  offset="0" style="stop-color:#8F191C"/>
					<stop  offset="0.9951" style="stop-color:#99343B"/>
					<stop  offset="1" style="stop-color:#99343B"/>
				</linearGradient>
				<rect x="0" y="0" clip-path="url(#SVGID_1_)" fill="url(#SVGID_2_)" width="202.916" height="71.024"/>
			</g>
			<g>
				<defs>
					<path id="SVGID_320_" d="M10.061,3.695c-3.487,0-6.323,2.802-6.323,6.24V61.09c0,3.445,2.836,6.244,6.323,6.244h182.792
						c3.489,0,6.325-2.798,6.325-6.244V9.935c0-3.439-2.836-6.24-6.325-6.24H10.061z"/>
				</defs>
				<clipPath id="SVGID_3_">
					<use xlink:href="#SVGID_320_"  overflow="visible"/>
				</clipPath>
				
					<linearGradient id="SVGID_4_" gradientUnits="userSpaceOnUse" x1="-3327.7893" y1="179.3552" x2="-3326.0588" y2="179.3552" gradientTransform="matrix(0 -36.7734 -37.2575 0 6783.7827 -122306.7969)">
					<stop  offset="0" style="stop-color:#FFFFFF"/>
					<stop  offset="0.2973" style="stop-color:#F8F8F8"/>
					<stop  offset="0.7441" style="stop-color:#E6E5E3"/>
					<stop  offset="1" style="stop-color:#D8D7D4"/>
				</linearGradient>
				<rect x="3.738" y="3.695" clip-path="url(#SVGID_3_)" fill="url(#SVGID_4_)" width="195.44" height="63.639"/>
			</g>
			<g opacity="0.2">
				<g>
					<defs>
						<rect id="SVGID_323_" x="3.364" y="3.323" width="196.193" height="64.38"/>
					</defs>
					<clipPath id="SVGID_5_">
						<use xlink:href="#SVGID_323_"  overflow="visible"/>
					</clipPath>
					<g clip-path="url(#SVGID_5_)">
						<defs>
							<path id="SVGID_325_" d="M10.06,3.323c-3.691,0-6.694,2.968-6.694,6.612V61.09c0,3.648,3.003,6.612,6.694,6.612h182.792
								c3.7,0,6.706-2.965,6.706-6.612V9.935c0-3.644-3.006-6.612-6.706-6.612H10.06z"/>
						</defs>
						<clipPath id="SVGID_6_">
							<use xlink:href="#SVGID_325_"  overflow="visible"/>
						</clipPath>
						
							<linearGradient id="SVGID_7_" gradientUnits="userSpaceOnUse" x1="-3326.1301" y1="341.9568" x2="-3324.3994" y2="341.9568" gradientTransform="matrix(0 37.2012 37.6909 0 -12787.1973 123739.3516)">
							<stop  offset="0" style="stop-color:#8F1A1D"/>
							<stop  offset="0.1022" style="stop-color:#922023"/>
							<stop  offset="0.235" style="stop-color:#9A3033"/>
							<stop  offset="0.3849" style="stop-color:#A74B4D"/>
							<stop  offset="0.5472" style="stop-color:#B97072"/>
							<stop  offset="0.7197" style="stop-color:#D1A0A2"/>
							<stop  offset="0.8978" style="stop-color:#EDDADB"/>
							<stop  offset="1" style="stop-color:#FFFFFF"/>
						</linearGradient>
						<rect x="3.366" y="3.323" clip-path="url(#SVGID_6_)" fill="url(#SVGID_7_)" width="196.191" height="64.38"/>
					</g>
				</g>
			</g>
			<g>
				<path fill="#231F20" d="M38.26,11.595h6.854v1.649h-4.659v2.404h4.361v1.649h-4.361v2.726h4.814V21.7H38.26V11.595z"/>
				<path fill="#231F20" d="M48.24,19.659c0.028,0.447,0.312,0.965,1.189,0.965c0.75,0,1.104-0.419,1.104-0.839
					c0-0.321-0.17-0.573-0.991-0.797L48.24,18.64c-0.58-0.168-1.813-0.518-1.813-1.957c0-1.37,1.274-2.209,3.129-2.209
					c1.473,0,2.662,0.671,2.719,2.083h-1.911c-0.057-0.783-0.694-0.839-1.02-0.839c-0.566,0-0.991,0.266-0.991,0.699
					c0,0.476,0.354,0.573,0.977,0.74l1.289,0.35c1.303,0.35,1.912,1.007,1.912,1.971c0,1.216-1.063,2.433-3.285,2.433
					c-0.921,0-1.799-0.196-2.45-0.867c-0.468-0.489-0.51-1.048-0.524-1.384H48.24z"/>
				<path fill="#231F20" d="M58.065,21.603c-0.68,0.182-1.288,0.224-1.628,0.224c-2.11,0-2.11-1.314-2.11-1.901v-3.871h-1.374v-1.37
					h1.374V13.3l2.081-0.755v2.139h1.699v1.37h-1.699v3.187c0.015,0.643,0.015,1.048,0.949,1.048c0.312,0,0.453-0.014,0.708-0.042
					V21.603z"/>
				<path fill="#231F20" d="M59.294,11.608h2.237v1.804h-2.237V11.608z M59.365,14.628h2.096V21.7h-2.096V14.628z"/>
				<path fill="#231F20" d="M63.343,15.97c0-0.447-0.028-0.881-0.07-1.328h2.024l0.071,0.909c0.227-0.308,0.778-1.063,2.209-1.063
					c1.643,0,2.109,0.992,2.251,1.327c0.595-1.132,1.558-1.313,2.294-1.313c1.444,0,2.025,0.853,2.181,1.132
					c0.382,0.615,0.354,1.468,0.354,2.083V21.7h-2.11v-4.151c0-0.755-0.113-1.593-1.204-1.593c-1.26,0-1.288,1.159-1.288,2.208V21.7
					h-2.11v-4.193c0-0.545-0.014-1.551-1.175-1.551c-1.317,0-1.317,1.118-1.317,1.593V21.7h-2.109V15.97z"/>
				<path fill="#231F20" d="M80.953,21.7c-0.071-0.434-0.071-0.755-0.071-0.965c-0.793,1.133-1.741,1.133-2.138,1.133
					c-1.034,0-1.501-0.294-1.784-0.56c-0.425-0.419-0.623-0.992-0.623-1.551c0-0.56,0.198-1.594,1.516-2.195
					c0.877-0.391,2.138-0.391,2.832-0.391c0-0.462-0.015-0.686-0.1-0.937c-0.184-0.518-0.736-0.587-0.935-0.587
					c-0.298,0-0.608,0.125-0.793,0.391c-0.155,0.238-0.155,0.462-0.155,0.629h-2.054c0.015-0.377,0.057-1.132,0.808-1.663
					c0.65-0.461,1.486-0.573,2.166-0.573c0.595,0,1.841,0.099,2.549,0.909c0.481,0.573,0.496,1.411,0.496,1.733l0.014,2.837
					c0,0.601,0.043,1.202,0.17,1.789H80.953z M78.376,19.52c0,0.476,0.326,1.007,1.02,1.007c0.383,0,0.693-0.182,0.893-0.405
					c0.367-0.447,0.396-0.992,0.396-1.747C79.339,18.262,78.376,18.682,78.376,19.52z"/>
				<path fill="#231F20" d="M88.739,21.603c-0.68,0.182-1.288,0.224-1.628,0.224c-2.11,0-2.11-1.314-2.11-1.901v-3.871h-1.374v-1.37
					H85V13.3l2.081-0.755v2.139h1.699v1.37h-1.699v3.187c0.015,0.643,0.015,1.048,0.949,1.048c0.312,0,0.453-0.014,0.708-0.042
					V21.603z"/>
				<path fill="#231F20" d="M91.725,18.695c0,0.461,0,1.887,1.458,1.887c0.524,0,1.049-0.195,1.246-0.979h1.912
					c-0.028,0.336-0.1,0.937-0.68,1.537c-0.523,0.546-1.459,0.825-2.506,0.825c-0.609,0-1.771-0.112-2.521-0.881
					c-0.65-0.671-0.92-1.621-0.92-2.753c0-1.146,0.283-2.517,1.486-3.341c0.553-0.363,1.232-0.587,2.012-0.587
					c1.02,0,2.236,0.392,2.889,1.705c0.48,0.965,0.453,1.999,0.424,2.586H91.725z M94.387,17.395c0-0.321-0.028-1.58-1.246-1.58
					c-0.921,0-1.303,0.755-1.345,1.58H94.387z"/>
				<path fill="#231F20" d="M102.64,11.608h2.109v8.945c0,0.42,0.028,0.881,0.057,1.146h-2.124l-0.057-1.021
					c-0.142,0.252-0.283,0.518-0.722,0.797c-0.524,0.336-1.076,0.363-1.389,0.363c-1.911,0-3.044-1.3-3.044-3.508
					c0-2.334,1.288-3.788,3.157-3.788c1.289,0,1.827,0.713,2.012,0.965V11.608z M101.039,20.498c0.608,0,1.104-0.363,1.331-0.797
					c0.312-0.587,0.34-1.313,0.34-1.663c0-1.384-0.609-2.139-1.558-2.139c-1.401,0-1.558,1.663-1.558,2.376
					C99.595,19.45,99.992,20.498,101.039,20.498z"/>
				<path fill="#231F20" d="M110.919,13.412c0.92-0.392,1.798-0.881,2.619-1.468h1.826V21.7h-2.138v-7.59
					c-0.411,0.308-1.231,0.811-2.308,1.244V13.412z"/>
				<path fill="#231F20" d="M121.423,11.805c1.387,0,2.209,0.74,2.576,1.285c0.51,0.741,0.893,1.691,0.893,3.522
					c0,2.265-0.523,5.241-3.498,5.241c-2.534,0-3.412-2.403-3.412-5.003C117.982,15.551,118.251,11.805,121.423,11.805z
					 M122.513,14.558c-0.057-0.266-0.297-1.132-1.076-1.132c-0.609,0-0.878,0.545-0.977,0.839c-0.326,0.992-0.326,2.487-0.326,2.726
					c0,1.663,0.255,3.215,1.316,3.215c1.133,0,1.317-1.901,1.317-3.243C122.768,16.347,122.697,15.201,122.513,14.558z"/>
				<path fill="#231F20" d="M131.713,14.642l1.571,4.893l1.601-4.893h2.081l-2.704,6.933l-0.864,2.81h-2.109l0.906-2.655
					l-2.747-7.087H131.713z"/>
				<path fill="#231F20" d="M139.725,18.695c0,0.461,0,1.887,1.458,1.887c0.524,0,1.049-0.195,1.246-0.979h1.912
					c-0.028,0.336-0.1,0.937-0.68,1.537c-0.523,0.546-1.459,0.825-2.506,0.825c-0.609,0-1.771-0.112-2.521-0.881
					c-0.65-0.671-0.92-1.621-0.92-2.753c0-1.146,0.283-2.517,1.486-3.341c0.553-0.363,1.232-0.587,2.012-0.587
					c1.02,0,2.236,0.392,2.889,1.705c0.48,0.965,0.453,1.999,0.424,2.586H139.725z M142.387,17.395c0-0.321-0.028-1.58-1.246-1.58
					c-0.921,0-1.303,0.755-1.345,1.58H142.387z"/>
				<path fill="#231F20" d="M150.201,21.7c-0.07-0.434-0.07-0.755-0.07-0.965c-0.793,1.133-1.742,1.133-2.139,1.133
					c-1.033,0-1.501-0.294-1.784-0.56c-0.425-0.419-0.623-0.992-0.623-1.551c0-0.56,0.198-1.594,1.515-2.195
					c0.879-0.391,2.139-0.391,2.832-0.391c0-0.462-0.014-0.686-0.099-0.937c-0.185-0.518-0.736-0.587-0.935-0.587
					c-0.297,0-0.609,0.125-0.793,0.391c-0.156,0.238-0.156,0.462-0.156,0.629h-2.053c0.014-0.377,0.057-1.132,0.807-1.663
					c0.652-0.461,1.487-0.573,2.167-0.573c0.595,0,1.841,0.099,2.549,0.909c0.481,0.573,0.495,1.411,0.495,1.733l0.015,2.837
					c0,0.601,0.042,1.202,0.17,1.789H150.201z M147.623,19.52c0,0.476,0.325,1.007,1.02,1.007c0.382,0,0.694-0.182,0.892-0.405
					c0.369-0.447,0.396-0.992,0.396-1.747C148.586,18.262,147.623,18.682,147.623,19.52z"/>
				<path fill="#231F20" d="M153.781,16.375c0-0.336-0.057-1.355-0.099-1.761h1.968l0.043,1.355c0.27-0.602,0.736-1.454,2.436-1.37
					v1.859c-2.124-0.196-2.252,0.881-2.252,1.761v3.48h-2.096V16.375z"/>
				<path fill="#231F20" d="M160.745,19.659c0.028,0.447,0.312,0.965,1.189,0.965c0.75,0,1.104-0.419,1.104-0.839
					c0-0.321-0.17-0.573-0.991-0.797l-1.303-0.349c-0.58-0.168-1.813-0.518-1.813-1.957c0-1.37,1.274-2.209,3.129-2.209
					c1.473,0,2.662,0.671,2.719,2.083h-1.911c-0.057-0.783-0.694-0.839-1.02-0.839c-0.566,0-0.991,0.266-0.991,0.699
					c0,0.476,0.354,0.573,0.977,0.74l1.289,0.35c1.303,0.35,1.912,1.007,1.912,1.971c0,1.216-1.063,2.433-3.285,2.433
					c-0.921,0-1.799-0.196-2.45-0.867c-0.468-0.489-0.51-1.048-0.524-1.384H160.745z"/>
			</g>
			<g>
				<path fill="#231F20" d="M42.859,31.36l3.555,10.105h-2.209l-0.736-2.181h-4.051l-0.764,2.181h-2.096l3.695-10.105H42.859z
					 M42.915,37.65l-1.416-4.306l-1.516,4.306H42.915z"/>
				<path fill="#231F20" d="M49.439,38.237c0,0.475-0.027,1.915,1.855,1.915c1.189,0,1.939-0.56,1.939-1.412
					c0-0.895-0.637-1.048-1.939-1.355c-2.436-0.602-3.767-1.314-3.767-3.062c0-1.663,1.204-3.131,4.05-3.131
					c1.063,0,2.322,0.238,3.087,1.188c0.581,0.727,0.581,1.537,0.581,1.873h-2.11c-0.028-0.35-0.142-1.538-1.657-1.538
					c-1.02,0-1.685,0.546-1.685,1.37c0,0.937,0.751,1.104,2.224,1.468c1.77,0.419,3.512,0.895,3.512,2.865
					c0,1.817-1.529,3.284-4.361,3.284c-3.923,0-3.951-2.487-3.965-3.466H49.439z"/>
				<path fill="#231F20" d="M62.888,34.659c-0.043-0.35-0.17-1.775-1.656-1.775c-1.629,0-2.309,1.678-2.309,3.76
					c0,0.602,0,3.467,2.139,3.467c0.92,0,1.798-0.573,1.84-1.915h2.309c-0.043,0.601-0.1,1.537-0.92,2.376
					c-0.906,0.923-2.054,1.132-2.988,1.132c-3.525,0-4.673-2.571-4.673-5.073c0-3.201,1.813-5.325,4.687-5.325
					c2.238,0,3.81,1.342,3.81,3.354H62.888z"/>
				<path fill="#231F20" d="M68.152,31.402l2.677,7.925l2.69-7.925h2.166l-3.766,10.063h-2.394l-3.767-10.063H68.152z"/>
				<path fill="#231F20" d="M76.73,31.389l3.384,0.014c0.566,0,2.294,0.014,3.526,0.908c1.288,0.937,1.741,2.53,1.741,3.97
					c0,3.103-1.685,4.725-3.625,5.073c-0.382,0.07-0.808,0.112-1.841,0.112H76.73V31.389z M78.952,39.803
					c0.24,0.014,0.609,0.027,0.863,0.027c0.936,0,1.742-0.069,2.379-0.698c0.864-0.853,0.921-2.362,0.921-2.852
					c0-1.426-0.495-2.739-1.869-3.117c-0.453-0.125-1.034-0.195-2.294-0.14V39.803z"/>
				<path fill="#231F20" d="M86.669,28.927v-1.21h1.943v-1.899h1.473v1.899h1.895v1.21h-1.895v5.627h-1.473v-5.627H86.669z"/>
				<path fill="#231F20" d="M97.599,36.141c0-0.336-0.057-1.355-0.099-1.761h1.968l0.043,1.355c0.27-0.602,0.736-1.454,2.436-1.37
					v1.859c-2.124-0.196-2.252,0.881-2.252,1.761v3.48h-2.096V36.141z"/>
				<path fill="#231F20" d="M103.035,31.374h2.237v1.804h-2.237V31.374z M103.107,34.394h2.096v7.072h-2.096V34.394z"/>
				<path fill="#231F20" d="M108.499,39.425c0.028,0.447,0.312,0.965,1.189,0.965c0.75,0,1.104-0.419,1.104-0.839
					c0-0.321-0.17-0.573-0.991-0.797l-1.303-0.349c-0.58-0.168-1.813-0.518-1.813-1.957c0-1.37,1.274-2.209,3.129-2.209
					c1.473,0,2.662,0.671,2.719,2.083h-1.911c-0.057-0.783-0.694-0.839-1.02-0.839c-0.566,0-0.991,0.266-0.991,0.699
					c0,0.476,0.354,0.573,0.977,0.74l1.289,0.35c1.303,0.35,1.912,1.007,1.912,1.971c0,1.216-1.063,2.433-3.285,2.433
					c-0.921,0-1.799-0.196-2.45-0.867c-0.468-0.489-0.51-1.048-0.524-1.384H108.499z"/>
				<path fill="#231F20" d="M114.148,31.36h2.081v5.954l2.167-2.949h2.364l-2.45,3.075l2.605,4.025h-2.478l-2.209-3.844v3.844
					h-2.081V31.36z"/>
				<path fill="#231F20" d="M125.699,41.661V40.6h6.344v1.062H125.699z M132.042,35.861v1.132l-6.26,3.089v-1.216l5.197-2.433
					v-0.027l-5.211-2.418v-1.216L132.042,35.861z"/>
				<path fill="#231F20" d="M137.193,31.724h6.697v1.733l-3.398,8.009h-2.365l3.611-8.121h-4.545V31.724z"/>
				<path fill="#231F20" d="M145.586,39.606h1.798v1.859h-1.798V39.606z"/>
				<path fill="#231F20" d="M151.007,39.062c-0.014,0.224,0.17,1.091,1.162,1.091c0.764,0,1.458-0.546,1.458-1.831
					c0-0.937-0.368-1.747-1.317-1.747c-0.948,0-1.189,0.754-1.26,0.979l-2.053-0.057l0.227-5.772h5.989v1.594h-4.12l-0.128,2.418
					c0.312-0.266,0.778-0.699,1.869-0.699c1.586,0,2.917,1.146,2.917,3.104c0,1.663-0.991,3.536-3.525,3.536
					c-1.034,0-2.082-0.266-2.762-1.063c-0.496-0.587-0.538-1.188-0.553-1.552H151.007z"/>
				<path fill="#231F20" d="M163.351,30.815c1.969,0,2.309,1.244,2.309,2.558c0,0.699,0,2.796-2.407,2.796
					c-1.671,0-2.266-1.146-2.266-2.656C160.987,32.786,161.001,30.815,163.351,30.815z M163.294,35.022
					c0.482,0,0.822-0.308,0.822-1.636c0-0.572-0.043-1.481-0.766-1.481c-0.835,0-0.835,1.133-0.835,1.552
					C162.516,34.533,162.701,35.022,163.294,35.022z M169.738,30.718l-5.381,10.916h-1.063l5.381-10.916H169.738z M169.865,36.238
					c1.955,0,2.309,1.244,2.309,2.544c0,0.713,0,2.81-2.422,2.81c-1.67,0-2.251-1.16-2.251-2.67
					C167.5,38.209,167.5,36.238,169.865,36.238z M169.808,40.445c0.482,0,0.822-0.308,0.822-1.635c0-0.573-0.057-1.482-0.779-1.482
					c-0.836,0-0.836,1.119-0.836,1.552C169.015,39.942,169.2,40.445,169.808,40.445z"/>
			</g>
			<g>
				<path fill="#5E5F5E" d="M62.452,45.852c-0.467,1.398-1.246,3.662-1.246,6.164c0,1.873,0.396,3.271,1.232,6.136h-1.543
					c-0.808-1.942-1.431-3.969-1.431-6.065c0-2.152,0.651-4.235,1.444-6.234H62.452z"/>
				<path fill="#5E5F5E" d="M63.528,54.309v-1.888l3.965-5.744h2.11l-0.015,6.024h1.345v1.607h-1.345v2.124h-2.096v-2.124H63.528z
					 M65.114,52.742h2.492v-2.571c0-0.126,0.015-0.824,0.028-1.076L65.114,52.742z"/>
				<path fill="#5E5F5E" d="M75.15,46.537c1.389,0,2.209,0.74,2.578,1.285c0.51,0.741,0.892,1.691,0.892,3.522
					c0,2.265-0.524,5.241-3.497,5.241c-2.535,0-3.413-2.403-3.413-5.003C71.709,50.283,71.978,46.537,75.15,46.537z M76.241,49.29
					c-0.057-0.266-0.298-1.132-1.076-1.132c-0.608,0-0.878,0.545-0.978,0.839c-0.325,0.992-0.325,2.487-0.325,2.726
					c0,1.663,0.255,3.215,1.317,3.215c1.133,0,1.316-1.901,1.316-3.243C76.495,51.079,76.425,49.934,76.241,49.29z"/>
				<path fill="#5E5F5E" d="M79.664,51.946h3.512v1.579h-3.512V51.946z"/>
				<path fill="#5E5F5E" d="M84.279,46.69h6.698v1.733l-3.398,8.009h-2.364l3.61-8.121h-4.546V46.69z"/>
				<path fill="#5E5F5E" d="M94.16,54.028c-0.014,0.224,0.17,1.091,1.162,1.091c0.764,0,1.458-0.546,1.458-1.831
					c0-0.937-0.368-1.747-1.317-1.747c-0.948,0-1.189,0.754-1.26,0.979l-2.053-0.057l0.227-5.772h5.989v1.594h-4.12l-0.128,2.418
					c0.312-0.266,0.778-0.699,1.869-0.699c1.586,0,2.917,1.146,2.917,3.104c0,1.663-0.991,3.536-3.525,3.536
					c-1.034,0-2.082-0.266-2.762-1.063c-0.496-0.587-0.538-1.188-0.553-1.552H94.16z"/>
				<path fill="#5E5F5E" d="M105.895,49.374l1.571,4.893l1.601-4.893h2.081l-2.704,6.933l-0.864,2.81h-2.109l0.906-2.655
					l-2.747-7.087H105.895z"/>
				<path fill="#5E5F5E" d="M113.638,53.428c0,0.461,0,1.887,1.459,1.887c0.523,0,1.047-0.195,1.246-0.979h1.911
					c-0.028,0.336-0.099,0.937-0.68,1.537c-0.524,0.546-1.458,0.825-2.507,0.825c-0.608,0-1.77-0.112-2.52-0.881
					c-0.652-0.671-0.921-1.621-0.921-2.753c0-1.146,0.283-2.517,1.487-3.341c0.552-0.363,1.231-0.587,2.01-0.587
					c1.02,0,2.238,0.392,2.889,1.705c0.482,0.965,0.453,1.999,0.426,2.586H113.638z M116.3,52.128c0-0.321-0.028-1.58-1.246-1.58
					c-0.92,0-1.303,0.755-1.346,1.58H116.3z"/>
				<path fill="#5E5F5E" d="M124.114,56.433c-0.071-0.434-0.071-0.755-0.071-0.965c-0.793,1.133-1.741,1.133-2.138,1.133
					c-1.034,0-1.501-0.294-1.784-0.56c-0.425-0.419-0.623-0.992-0.623-1.551c0-0.56,0.198-1.594,1.516-2.195
					c0.877-0.391,2.138-0.391,2.832-0.391c0-0.462-0.015-0.686-0.1-0.937c-0.184-0.518-0.736-0.587-0.935-0.587
					c-0.298,0-0.608,0.125-0.793,0.391c-0.155,0.238-0.155,0.462-0.155,0.629h-2.054c0.015-0.377,0.057-1.132,0.808-1.663
					c0.65-0.461,1.486-0.573,2.166-0.573c0.595,0,1.841,0.099,2.549,0.909c0.481,0.573,0.496,1.411,0.496,1.733l0.014,2.837
					c0,0.601,0.043,1.202,0.17,1.789H124.114z M121.536,54.252c0,0.476,0.326,1.007,1.02,1.007c0.383,0,0.693-0.182,0.893-0.405
					c0.367-0.447,0.396-0.992,0.396-1.747C122.499,52.994,121.536,53.414,121.536,54.252z"/>
				<path fill="#5E5F5E" d="M127.693,51.107c0-0.336-0.057-1.355-0.099-1.761h1.968l0.043,1.355c0.27-0.602,0.736-1.454,2.436-1.37
					v1.859c-2.124-0.196-2.252,0.881-2.252,1.761v3.48h-2.096V51.107z"/>
				<path fill="#5E5F5E" d="M134.659,54.392c0.028,0.447,0.312,0.965,1.189,0.965c0.751,0,1.104-0.419,1.104-0.839
					c0-0.321-0.17-0.573-0.991-0.797l-1.303-0.349c-0.581-0.168-1.813-0.518-1.813-1.957c0-1.37,1.274-2.209,3.13-2.209
					c1.473,0,2.662,0.671,2.719,2.083h-1.912c-0.057-0.783-0.693-0.839-1.02-0.839c-0.566,0-0.991,0.266-0.991,0.699
					c0,0.476,0.354,0.573,0.978,0.74l1.288,0.35c1.303,0.35,1.911,1.007,1.911,1.971c0,1.216-1.062,2.433-3.285,2.433
					c-0.92,0-1.798-0.196-2.449-0.867c-0.467-0.489-0.51-1.048-0.523-1.384H134.659z"/>
				<path fill="#5E5F5E" d="M140.206,58.151c0.467-1.397,1.246-3.661,1.246-6.163c0-1.888-0.396-3.271-1.232-6.137h1.544
					c0.808,1.93,1.431,3.97,1.431,6.053c0,2.152-0.652,4.234-1.445,6.247H140.206z"/>
			</g>
		</g>
		<g>
			<path fill="#231F20" d="M224.036,39.087v8.119h-1.434l-3.244-7.04h-0.023v7.04h-0.934v-8.119h1.48l3.198,6.949h0.022v-6.949
				H224.036z"/>
			<path fill="#231F20" d="M225.679,44.451c0-1.665,0.193-3.037,2.186-3.037s2.186,1.372,2.186,3.037
				c0,2.508-0.968,2.867-2.186,2.867S225.679,46.959,225.679,44.451z M229.072,44.058c0-1.553-0.49-1.89-1.207-1.89
				s-1.207,0.337-1.207,1.89c0,1.844,0.239,2.508,1.207,2.508S229.072,45.901,229.072,44.058z"/>
		</g>
		<g>
			<defs>
				<polygon id="SVGID_328_" points="233.075,49.102 238.977,43.273 233.075,37.452 235.138,35.421 243.1,43.273 235.138,51.136 
									"/>
			</defs>
			<clipPath id="SVGID_8_">
				<use xlink:href="#SVGID_328_"  overflow="visible"/>
			</clipPath>
			
				<radialGradient id="SVGID_9_" cx="-4037.918" cy="252.2309" r="1.5236" gradientTransform="matrix(-4.3661 0 0 -4.3094 -17393.1953 1130.0956)" gradientUnits="userSpaceOnUse">
				<stop  offset="0" style="stop-color:#005E7D"/>
				<stop  offset="1" style="stop-color:#043E5B"/>
			</radialGradient>
			<rect x="233.075" y="35.421" clip-path="url(#SVGID_8_)" fill="url(#SVGID_9_)" width="10.025" height="15.716"/>
		</g>
	</g>
</g>
</svg>
