<?xml version="1.0" encoding="utf-8"?>
<!-- Generator: Adobe Illustrator 17.0.0, SVG Export Plug-In . SVG Version: 6.00 Build 0)  -->
<!DOCTYPE svg PUBLIC "-//W3C//DTD SVG 1.1//EN" "http://www.w3.org/Graphics/SVG/1.1/DTD/svg11.dtd">
<svg version="1.1" id="Layer_1" xmlns="http://www.w3.org/2000/svg" xmlns:xlink="http://www.w3.org/1999/xlink" x="0px" y="0px"
	 width="216.407px" height="47.498px" viewBox="0 0 216.407 47.498" enable-background="new 0 0 216.407 47.498"
	 xml:space="preserve">
<g>
	<path fill="#808084" d="M216.407,37.916c0,5.296-4.352,9.582-9.71,9.582H9.707C4.346,47.498,0,43.211,0,37.916V9.944
		c0-5.292,4.346-9.586,9.707-9.586h196.99c5.359,0,9.71,4.293,9.71,9.586V37.916z"/>
	<g>
		<defs>
			<path id="SVGID_267_" d="M9.706,0c-5.36,0-9.705,4.285-9.705,9.586v27.969c0,5.297,4.345,9.587,9.705,9.587h196.99
				c5.302,0,9.62-4.201,9.71-9.42V9.42c-0.089-5.224-4.408-9.42-9.71-9.42H9.706z"/>
		</defs>
		<clipPath id="SVGID_1_">
			<use xlink:href="#SVGID_267_"  overflow="visible"/>
		</clipPath>
		
			<linearGradient id="SVGID_2_" gradientUnits="userSpaceOnUse" x1="-3355.8298" y1="60.5436" x2="-3354.1733" y2="60.5436" gradientTransform="matrix(0 -28.4609 -28.8356 0 1854.0137 -95462.7969)">
			<stop  offset="0" style="stop-color:#8F191C"/>
			<stop  offset="0.9951" style="stop-color:#99343B"/>
			<stop  offset="1" style="stop-color:#99343B"/>
		</linearGradient>
		<rect x="0.001" y="0" clip-path="url(#SVGID_1_)" fill="url(#SVGID_2_)" width="216.405" height="47.141"/>
	</g>
	<g>
		<defs>
			<path id="SVGID_270_" d="M9.579,3.56c-3.31,0.068-5.971,2.751-5.971,6.026v27.969c0,3.331,2.73,6.029,6.099,6.029h196.99
				c3.364,0,6.099-2.698,6.099-6.029V9.586c0-3.314-2.731-6.024-6.091-6.028L9.579,3.56z"/>
		</defs>
		<clipPath id="SVGID_3_">
			<use xlink:href="#SVGID_270_"  overflow="visible"/>
		</clipPath>
		
			<linearGradient id="SVGID_4_" gradientUnits="userSpaceOnUse" x1="-3356.2463" y1="41.7189" x2="-3354.5898" y2="41.7189" gradientTransform="matrix(0 -24.1641 -24.4821 0 1129.5686 -81057.0859)">
			<stop  offset="0" style="stop-color:#FFFFFF"/>
			<stop  offset="0.2973" style="stop-color:#F8F8F8"/>
			<stop  offset="0.7441" style="stop-color:#E6E5E3"/>
			<stop  offset="1" style="stop-color:#D8D7D4"/>
		</linearGradient>
		<rect x="3.607" y="3.558" clip-path="url(#SVGID_3_)" fill="url(#SVGID_4_)" width="209.188" height="40.025"/>
	</g>
	<g opacity="0.2">
		<g>
			<defs>
				<rect id="SVGID_273_" x="3.243" y="3.208" width="209.922" height="40.731"/>
			</defs>
			<clipPath id="SVGID_5_">
				<use xlink:href="#SVGID_273_"  overflow="visible"/>
			</clipPath>
			<g clip-path="url(#SVGID_5_)">
				<defs>
					<path id="SVGID_275_" d="M9.706,3.208c-3.563,0-6.463,2.857-6.463,6.377v27.967c0,3.523,2.9,6.387,6.463,6.387h196.99
						c3.523,0,6.404-2.799,6.468-6.266V9.551c-0.018-3.503-2.917-6.342-6.468-6.342H9.706z"/>
				</defs>
				<clipPath id="SVGID_6_">
					<use xlink:href="#SVGID_275_"  overflow="visible"/>
				</clipPath>
				
					<linearGradient id="SVGID_7_" gradientUnits="userSpaceOnUse" x1="-3351.0232" y1="289.2036" x2="-3349.3667" y2="289.2036" gradientTransform="matrix(0 24.5898 24.9135 0 -7096.8701 82404.1953)">
					<stop  offset="0" style="stop-color:#8F1A1D"/>
					<stop  offset="0.1022" style="stop-color:#922023"/>
					<stop  offset="0.235" style="stop-color:#9A3033"/>
					<stop  offset="0.3849" style="stop-color:#A74B4D"/>
					<stop  offset="0.5472" style="stop-color:#B97072"/>
					<stop  offset="0.7197" style="stop-color:#D1A0A2"/>
					<stop  offset="0.8978" style="stop-color:#EDDADB"/>
					<stop  offset="1" style="stop-color:#FFFFFF"/>
				</linearGradient>
				<rect x="3.243" y="3.208" clip-path="url(#SVGID_6_)" fill="url(#SVGID_7_)" width="209.921" height="40.731"/>
			</g>
		</g>
	</g>
	<g>
		<path fill="#231F20" d="M21.813,11.705h3.429l2.073,7.031l2.235-7.031h3.333v9.664h-2.086v-8.287l-2.67,8.287h-1.734l-2.615-8.287
			v8.287h-1.965V11.705z"/>
		<path fill="#231F20" d="M37.896,14.459c2.479,0,3.55,1.657,3.55,3.542c0,1.897-1.11,3.608-3.59,3.608
			c-1.951,0-3.496-1.189-3.496-3.556C34.36,16.423,35.2,14.459,37.896,14.459z M37.923,20.233c0.881,0,1.477-0.521,1.477-2.313
			c0-0.896-0.176-2.139-1.504-2.139c-1.463,0-1.477,1.671-1.477,2.285C36.42,19.578,36.934,20.233,37.923,20.233z"/>
		<path fill="#231F20" d="M47.475,11.718h2.02v8.555c0,0.4,0.026,0.842,0.054,1.096h-2.032l-0.055-0.976
			c-0.135,0.24-0.271,0.494-0.69,0.762c-0.502,0.32-1.03,0.348-1.328,0.348c-1.829,0-2.913-1.243-2.913-3.355
			c0-2.232,1.232-3.622,3.021-3.622c1.232,0,1.748,0.682,1.924,0.922V11.718z M45.944,20.219c0.583,0,1.057-0.348,1.273-0.762
			c0.299-0.562,0.326-1.257,0.326-1.591c0-1.323-0.583-2.045-1.491-2.045c-1.341,0-1.49,1.591-1.49,2.272
			C44.562,19.216,44.942,20.219,45.944,20.219z"/>
		<path fill="#231F20" d="M52.84,18.495c0,0.441,0,1.805,1.396,1.805c0.501,0,1.003-0.188,1.192-0.936h1.829
			c-0.026,0.32-0.095,0.896-0.65,1.471c-0.501,0.521-1.396,0.788-2.398,0.788c-0.582,0-1.693-0.106-2.411-0.842
			c-0.624-0.642-0.881-1.551-0.881-2.634c0-1.096,0.271-2.405,1.423-3.194c0.528-0.348,1.179-0.562,1.924-0.562
			c0.976,0,2.141,0.374,2.764,1.631c0.461,0.922,0.434,1.911,0.407,2.473H52.84z M55.387,17.252c0-0.308-0.026-1.51-1.191-1.51
			c-0.881,0-1.247,0.722-1.288,1.51H55.387z"/>
		<path fill="#231F20" d="M58.761,16.276c0-0.32-0.055-1.297-0.095-1.685h1.883l0.041,1.297c0.258-0.574,0.705-1.39,2.33-1.31v1.777
			c-2.032-0.187-2.154,0.842-2.154,1.685v3.328h-2.005V16.276z"/>
		<path fill="#231F20" d="M68.136,21.369c-0.067-0.414-0.067-0.722-0.067-0.922c-0.759,1.082-1.667,1.082-2.047,1.082
			c-0.988,0-1.436-0.28-1.707-0.534c-0.406-0.401-0.596-0.949-0.596-1.484c0-0.534,0.189-1.523,1.449-2.098
			c0.841-0.375,2.047-0.375,2.71-0.375c0-0.44-0.013-0.654-0.095-0.896c-0.176-0.494-0.704-0.562-0.895-0.562
			c-0.284,0-0.582,0.121-0.758,0.375c-0.149,0.227-0.149,0.44-0.149,0.602h-1.965c0.014-0.361,0.054-1.083,0.772-1.591
			c0.623-0.441,1.423-0.548,2.073-0.548c0.569,0,1.761,0.093,2.438,0.868c0.461,0.548,0.475,1.351,0.475,1.657l0.014,2.714
			c0,0.575,0.04,1.149,0.162,1.711H68.136z M65.67,19.284c0,0.454,0.312,0.962,0.976,0.962c0.365,0,0.664-0.174,0.854-0.388
			c0.353-0.428,0.379-0.949,0.379-1.671C66.591,18.081,65.67,18.481,65.67,19.284z"/>
		<path fill="#231F20" d="M75.588,21.275c-0.65,0.174-1.233,0.214-1.559,0.214c-2.019,0-2.019-1.256-2.019-1.817v-3.703h-1.314
			v-1.31h1.314v-1.323l1.991-0.722v2.045h1.626v1.31h-1.626v3.048c0.014,0.615,0.014,1.003,0.908,1.003
			c0.298,0,0.434-0.014,0.678-0.04V21.275z"/>
		<path fill="#231F20" d="M78.447,18.495c0,0.441,0,1.805,1.396,1.805c0.502,0,1.003-0.188,1.192-0.936h1.829
			c-0.027,0.32-0.095,0.896-0.65,1.471c-0.501,0.521-1.396,0.788-2.398,0.788c-0.582,0-1.693-0.106-2.411-0.842
			c-0.624-0.642-0.881-1.551-0.881-2.634c0-1.096,0.271-2.405,1.423-3.194c0.528-0.348,1.179-0.562,1.924-0.562
			c0.976,0,2.141,0.374,2.764,1.631c0.461,0.922,0.434,1.911,0.407,2.473H78.447z M80.995,17.252c0-0.308-0.027-1.51-1.193-1.51
			c-0.88,0-1.246,0.722-1.287,1.51H80.995z"/>
		<path fill="#231F20" d="M92.159,21.275c-0.65,0.174-1.233,0.214-1.559,0.214c-2.019,0-2.019-1.256-2.019-1.817v-3.703h-1.314
			v-1.31h1.314v-1.323l1.991-0.722v2.045h1.626v1.31h-1.626v3.048c0.014,0.615,0.014,1.003,0.908,1.003
			c0.298,0,0.434-0.014,0.678-0.04V21.275z"/>
		<path fill="#231F20" d="M96.629,14.459c2.479,0,3.55,1.657,3.55,3.542c0,1.897-1.11,3.608-3.591,3.608
			c-1.951,0-3.495-1.189-3.495-3.556C93.093,16.423,93.933,14.459,96.629,14.459z M96.657,20.233c0.881,0,1.477-0.521,1.477-2.313
			c0-0.896-0.176-2.139-1.504-2.139c-1.463,0-1.477,1.671-1.477,2.285C95.153,19.578,95.668,20.233,96.657,20.233z"/>
		<path fill="#231F20" d="M105.477,11.705h2.1v3.863h3.699v-3.863h2.127v9.664h-2.1v-4.237h-3.727v4.237h-2.1V11.705z"/>
		<path fill="#231F20" d="M115.165,11.718h2.141v1.724h-2.141V11.718z M115.232,14.605h2.005v6.764h-2.005V14.605z"/>
		<path fill="#231F20" d="M125.489,14.645c-0.055,0.535-0.095,0.989-0.095,1.671v4.986c0,2.485-2.101,2.727-3.415,2.727
			c-0.976,0-2.886-0.12-3.008-2.166h1.924c0.027,0.201,0.122,0.937,1.192,0.937c0.597,0,1.111-0.281,1.247-0.883
			c0.081-0.334,0.081-0.574,0.095-1.604c-0.637,0.828-1.354,0.922-1.843,0.922c-1.965,0-2.886-1.684-2.886-3.314
			c0-1.711,0.962-3.342,2.927-3.342c1.246,0,1.707,0.668,1.91,0.962l0.067-0.896H125.489z M122.047,19.885
			c1.409,0,1.409-1.631,1.409-1.925c0-0.763-0.149-2.059-1.369-2.059c-0.759,0-1.382,0.574-1.382,2.019
			C120.706,18.254,120.706,19.885,122.047,19.885z"/>
		<path fill="#231F20" d="M127.33,11.718h1.992v3.822c0.23-0.32,0.731-1.016,1.979-1.016c1.016,0,1.666,0.494,1.991,0.909
			c0.244,0.334,0.447,0.949,0.447,1.831v4.104h-1.991v-4.037c0-0.388,0-1.47-1.125-1.47c-0.569,0-1.287,0.32-1.287,1.377l0.014,4.13
			h-2.02V11.718z"/>
		<path fill="#231F20" d="M139.253,11.678h2.101v9.69h-2.101V11.678z"/>
		<path fill="#231F20" d="M143.115,15.822c0-0.027,0-0.763-0.041-1.23h1.924l0.055,1.017c0.189-0.308,0.731-1.177,2.222-1.177
			c1.342,0,1.911,0.802,2.087,1.271c0.149,0.414,0.189,0.762,0.189,2.018v3.649h-2.046v-4.197c0-0.28,0-0.521-0.108-0.735
			c-0.149-0.294-0.461-0.574-0.976-0.574c-0.434,0-0.826,0.2-1.043,0.521c-0.122,0.174-0.244,0.508-0.244,1.029v3.956h-2.019V15.822
			z"/>
		<path fill="#231F20" d="M155.39,21.275c-0.65,0.174-1.233,0.214-1.559,0.214c-2.019,0-2.019-1.256-2.019-1.817v-3.703h-1.314
			v-1.31h1.314v-1.323l1.991-0.722v2.045h1.626v1.31h-1.626v3.048c0.014,0.615,0.014,1.003,0.908,1.003
			c0.298,0,0.434-0.014,0.678-0.04V21.275z"/>
		<path fill="#231F20" d="M158.249,18.495c0,0.441,0,1.805,1.396,1.805c0.501,0,1.003-0.188,1.192-0.936h1.829
			c-0.026,0.32-0.095,0.896-0.65,1.471c-0.501,0.521-1.396,0.788-2.398,0.788c-0.582,0-1.693-0.106-2.411-0.842
			c-0.624-0.642-0.881-1.551-0.881-2.634c0-1.096,0.271-2.405,1.423-3.194c0.528-0.348,1.179-0.562,1.924-0.562
			c0.976,0,2.141,0.374,2.764,1.631c0.461,0.922,0.434,1.911,0.407,2.473H158.249z M160.795,17.252c0-0.308-0.026-1.51-1.191-1.51
			c-0.881,0-1.247,0.722-1.288,1.51H160.795z"/>
		<path fill="#231F20" d="M164.197,15.822c0-0.027,0-0.763-0.041-1.23h1.924l0.055,1.017c0.189-0.308,0.731-1.177,2.222-1.177
			c1.342,0,1.911,0.802,2.087,1.271c0.149,0.414,0.189,0.762,0.189,2.018v3.649h-2.046v-4.197c0-0.28,0-0.521-0.108-0.735
			c-0.149-0.294-0.461-0.574-0.976-0.574c-0.434,0-0.826,0.2-1.043,0.521c-0.122,0.174-0.244,0.508-0.244,1.029v3.956h-2.019V15.822
			z"/>
		<path fill="#231F20" d="M173.843,19.418c0.027,0.428,0.298,0.922,1.138,0.922c0.719,0,1.058-0.401,1.058-0.802
			c0-0.308-0.163-0.548-0.948-0.762l-1.247-0.335c-0.556-0.16-1.734-0.494-1.734-1.871c0-1.31,1.22-2.111,2.994-2.111
			c1.409,0,2.548,0.642,2.602,1.991h-1.829c-0.054-0.748-0.664-0.802-0.976-0.802c-0.542,0-0.948,0.254-0.948,0.668
			c0,0.454,0.339,0.548,0.935,0.709l1.233,0.334c1.246,0.334,1.829,0.962,1.829,1.885c0,1.163-1.017,2.325-3.144,2.325
			c-0.881,0-1.721-0.187-2.344-0.828c-0.447-0.468-0.488-1.003-0.502-1.323H173.843z"/>
		<path fill="#231F20" d="M179.155,11.718h2.141v1.724h-2.141V11.718z M179.222,14.605h2.005v6.764h-2.005V14.605z"/>
		<path fill="#231F20" d="M187.013,21.275c-0.65,0.174-1.233,0.214-1.559,0.214c-2.019,0-2.019-1.256-2.019-1.817v-3.703h-1.314
			v-1.31h1.314v-1.323l1.991-0.722v2.045h1.626v1.31h-1.626v3.048c0.014,0.615,0.014,1.003,0.908,1.003
			c0.298,0,0.434-0.014,0.678-0.04V21.275z"/>
		<path fill="#231F20" d="M189.736,14.619l1.504,4.678l1.531-4.678h1.992l-2.588,6.63l-0.827,2.687h-2.019l0.867-2.54l-2.629-6.776
			H189.736z"/>
	</g>
	<g>
		<path fill="#231F20" d="M90.995,34.329c0,0.455-0.027,1.831,1.775,1.831c1.138,0,1.855-0.534,1.855-1.35
			c0-0.855-0.609-1.003-1.855-1.297c-2.331-0.574-3.604-1.256-3.604-2.927c0-1.591,1.151-2.994,3.875-2.994
			c1.017,0,2.222,0.227,2.954,1.136c0.556,0.695,0.556,1.471,0.556,1.791h-2.02c-0.026-0.334-0.136-1.47-1.585-1.47
			c-0.976,0-1.612,0.521-1.612,1.31c0,0.896,0.718,1.056,2.127,1.403c1.694,0.401,3.36,0.855,3.36,2.74
			c0,1.738-1.463,3.142-4.173,3.142c-3.754,0-3.78-2.38-3.794-3.315H90.995z"/>
		<path fill="#231F20" d="M102.322,37.323c-0.65,0.174-1.233,0.214-1.559,0.214c-2.019,0-2.019-1.256-2.019-1.817v-3.703H97.43
			v-1.31h1.314v-1.323l1.991-0.722v2.045h1.626v1.31h-1.626v3.048c0.014,0.615,0.014,1.003,0.908,1.003
			c0.298,0,0.434-0.014,0.678-0.041V37.323z"/>
		<path fill="#231F20" d="M107.673,37.417c-0.067-0.414-0.067-0.722-0.067-0.922c-0.759,1.082-1.667,1.082-2.047,1.082
			c-0.988,0-1.436-0.28-1.707-0.534c-0.406-0.401-0.596-0.949-0.596-1.484c0-0.534,0.189-1.523,1.449-2.099
			c0.841-0.374,2.047-0.374,2.71-0.374c0-0.44-0.013-0.654-0.095-0.896c-0.176-0.494-0.704-0.562-0.895-0.562
			c-0.284,0-0.582,0.12-0.758,0.375c-0.149,0.227-0.149,0.44-0.149,0.601h-1.965c0.014-0.36,0.054-1.082,0.772-1.59
			c0.623-0.441,1.423-0.549,2.073-0.549c0.569,0,1.761,0.094,2.438,0.869c0.461,0.548,0.475,1.351,0.475,1.657l0.014,2.714
			c0,0.575,0.04,1.149,0.162,1.711H107.673z M105.208,35.332c0,0.454,0.312,0.962,0.976,0.962c0.365,0,0.664-0.174,0.854-0.388
			c0.353-0.428,0.379-0.948,0.379-1.671C106.128,34.128,105.208,34.53,105.208,35.332z"/>
		<path fill="#231F20" d="M115.126,37.323c-0.65,0.174-1.233,0.214-1.559,0.214c-2.019,0-2.019-1.256-2.019-1.817v-3.703h-1.314
			v-1.31h1.314v-1.323l1.991-0.722v2.045h1.626v1.31h-1.626v3.048c0.014,0.615,0.014,1.003,0.908,1.003
			c0.298,0,0.434-0.014,0.678-0.041V37.323z"/>
		<path fill="#231F20" d="M116.303,27.766h2.141v1.724h-2.141V27.766z M116.371,30.653h2.005v6.764h-2.005V30.653z"/>
		<path fill="#231F20" d="M120.165,31.87c0-0.027,0-0.762-0.041-1.23h1.924l0.055,1.017c0.189-0.308,0.731-1.177,2.222-1.177
			c1.342,0,1.911,0.802,2.087,1.27c0.149,0.415,0.189,0.763,0.189,2.019v3.649h-2.046v-4.197c0-0.28,0-0.521-0.108-0.735
			c-0.148-0.294-0.461-0.574-0.976-0.574c-0.434,0-0.826,0.2-1.043,0.521c-0.122,0.173-0.244,0.508-0.244,1.028v3.957h-2.019V31.87z
			"/>
	</g>
</g>
</svg>
