<?xml version="1.0" encoding="utf-8"?>
<!-- Generator: Adobe Illustrator 17.0.0, SVG Export Plug-In . SVG Version: 6.00 Build 0)  -->
<!DOCTYPE svg PUBLIC "-//W3C//DTD SVG 1.1//EN" "http://www.w3.org/Graphics/SVG/1.1/DTD/svg11.dtd">
<svg version="1.1" id="Layer_1" xmlns="http://www.w3.org/2000/svg" xmlns:xlink="http://www.w3.org/1999/xlink" x="0px" y="0px"
	 width="165.124px" height="28.508px" viewBox="0 0 165.124 28.508" enable-background="new 0 0 165.124 28.508"
	 xml:space="preserve">
<g>
	<g>
		<path fill="#49484A" d="M22.982,0h1.651l3.317,10.036h-1.454l-0.734-2.391h-3.938l-0.762,2.391H19.75L22.982,0z M23.773,1.181
			h-0.028L22.15,6.533h3.26L23.773,1.181z"/>
		<path fill="#49484A" d="M32.944,0h1.158v10.036h-1.158V9.202h-0.028c-0.395,0.653-0.889,0.973-1.637,0.973
			c-1.143,0-2.3-0.445-2.3-3.531c0-1.751,0.056-3.767,2.357-3.767c0.677,0,1.171,0.292,1.566,0.848h0.042V0z M31.603,3.809
			c-1.242,0-1.412,0.973-1.412,2.85c0,1.057,0,2.585,1.454,2.585c1.298,0,1.298-1.584,1.298-3.002
			C32.944,5.31,32.888,3.809,31.603,3.809z"/>
		<path fill="#49484A" d="M40.042,3.016h1.157v5.561c0,0.486,0.028,0.973,0.071,1.459h-1.228V9.188h-0.042
			c-0.381,0.64-1.059,0.987-1.807,0.987c-1.242,0-1.919-0.612-1.919-1.807V3.016h1.157v4.865c0,0.848,0.396,1.418,1.214,1.418
			c0.621,0,1.397-0.458,1.397-1.626V3.016z"/>
		<path fill="#49484A" d="M44.415,10.036h-1.158V0h1.158V10.036z"/>
		<path fill="#49484A" d="M46.544,3.016V1.668l1.158-0.515v1.863h1.552v0.862h-1.552v4.295c0,0.445,0,1.015,1.059,1.015
			c0.084,0,0.268-0.028,0.522-0.055v0.875c-0.381,0.028-0.762,0.111-1.143,0.111c-1.101,0-1.595-0.445-1.595-1.251V3.878h-1.171
			V3.016H46.544z"/>
		<path fill="#49484A" d="M52.443,10.175c-1.539,0-2.498-0.667-2.456-2.28H51.3c0,0.403,0.014,1.348,1.186,1.348
			c0.691,0,1.228-0.347,1.228-1.07c0-1.251-3.557-1.279-3.557-3.378c0-0.737,0.452-1.918,2.456-1.918
			c1.271,0,2.357,0.598,2.258,1.988h-1.284c0.014-0.737-0.381-1.126-1.115-1.126c-0.621,0-1.101,0.333-1.101,0.945
			c0,1.237,3.557,1.209,3.557,3.35C54.927,9.578,53.854,10.175,52.443,10.175z"/>
		<path fill="#49484A" d="M63.406,9.021h-0.028c-0.353,0.806-0.903,1.154-1.792,1.154c-1.51,0-1.948-0.959-1.948-2.308
			c0-2.127,2.117-2.224,3.74-2.183c0.028-0.931,0.042-1.946-1.2-1.946c-0.776,0-1.186,0.514-1.115,1.251h-1.256
			c0.056-1.571,0.903-2.113,2.414-2.113c1.835,0,2.314,0.931,2.314,2.113v3.378c0,0.556,0.057,1.126,0.141,1.668h-1.27V9.021z
			 M60.795,7.951c0,0.681,0.339,1.292,1.115,1.292c0.706,0,1.581-0.431,1.468-2.697C62.277,6.561,60.795,6.464,60.795,7.951z"/>
		<path fill="#49484A" d="M70.56,3.016h1.158v7.729c0,1.571-1.059,1.946-2.625,1.946c-1.186,0-2.258-0.584-2.16-1.877h1.299
			c0.014,0.653,0.452,1.015,1.086,1.015c0.805,0,1.242-0.486,1.242-1.209V9.16h-0.042c-0.297,0.556-0.946,0.876-1.567,0.876
			c-1.934,0-2.315-1.64-2.315-3.726c0-3.225,1.651-3.433,2.23-3.433c0.749,0,1.341,0.319,1.666,1h0.028V3.016z M69.205,3.822
			c-1.313,0-1.355,1.557-1.355,2.488c0,2.252,0.522,2.78,1.383,2.78c1.397,0,1.355-1.626,1.355-2.6
			C70.588,5.449,70.659,3.822,69.205,3.822z"/>
		<path fill="#49484A" d="M74.975,6.895c0,1.96,0.536,2.349,1.439,2.349c0.791,0,1.2-0.625,1.242-1.334h1.27
			c-0.014,1.557-0.988,2.266-2.484,2.266c-1.51,0-2.71-0.445-2.71-3.545c0-2.057,0.24-3.753,2.71-3.753
			c2.033,0,2.541,1.098,2.541,3.419v0.598H74.975z M77.755,6.033c0-2.043-0.579-2.293-1.425-2.293c-0.734,0-1.341,0.347-1.355,2.293
			H77.755z"/>
		<path fill="#49484A" d="M88.38,6.519l-4.785-2.627V2.877l5.886,3.197v0.89l-5.886,3.253V9.202L88.38,6.519z"/>
		<path fill="#49484A" d="M90.678,10.036V8.924c2.865-3.948,3.712-4.67,3.712-6.338c0-0.765-0.381-1.279-1.214-1.279
			c-0.974,0-1.157,0.792-1.143,1.571h-1.327c-0.113-1.599,0.706-2.641,2.371-2.641c1.764,0,2.611,0.792,2.611,2.53
			c0,2.155-1.101,2.877-3.627,6.158h3.881v1.112H90.678z"/>
		<path fill="#49484A" d="M100.415,10.036h-1.298V1.793l-1.468,0.973V1.543c0.325-0.139,1.256-0.834,1.651-1.154h1.115V10.036z"/>
		<path fill="#49484A" d="M108.894,8.729h0.028l1.708-5.713h1.256l-3.232,9.675h-1.2l0.804-2.655l-2.414-7.02h1.341L108.894,8.729z"
			/>
		<path fill="#49484A" d="M114.142,6.895c0,1.96,0.536,2.349,1.439,2.349c0.791,0,1.2-0.625,1.242-1.334h1.27
			c-0.014,1.557-0.988,2.266-2.484,2.266c-1.51,0-2.71-0.445-2.71-3.545c0-2.057,0.24-3.753,2.71-3.753
			c2.033,0,2.541,1.098,2.541,3.419v0.598H114.142z M116.922,6.033c0-2.043-0.579-2.293-1.425-2.293
			c-0.734,0-1.341,0.347-1.355,2.293H116.922z"/>
		<path fill="#49484A" d="M123.738,9.021h-0.028c-0.353,0.806-0.903,1.154-1.792,1.154c-1.51,0-1.948-0.959-1.948-2.308
			c0-2.127,2.117-2.224,3.74-2.183c0.028-0.931,0.042-1.946-1.2-1.946c-0.776,0-1.186,0.514-1.115,1.251h-1.256
			c0.056-1.571,0.903-2.113,2.414-2.113c1.835,0,2.314,0.931,2.314,2.113v3.378c0,0.556,0.057,1.126,0.141,1.668h-1.27V9.021z
			 M121.126,7.951c0,0.681,0.339,1.292,1.115,1.292c0.706,0,1.581-0.431,1.468-2.697C122.608,6.561,121.126,6.464,121.126,7.951z"/>
		<path fill="#49484A" d="M128.322,4.073h0.028c0.48-1.07,1.073-1.195,2.202-1.195v1.181c-0.099-0.014-0.211-0.027-0.31-0.042
			c-0.099-0.014-0.198-0.028-0.311-0.028c-1.285,0-1.609,0.959-1.609,1.904v4.143h-1.157v-7.02h1.157V4.073z"/>
		<path fill="#49484A" d="M133.924,10.175c-1.538,0-2.498-0.667-2.456-2.28h1.313c0,0.403,0.014,1.348,1.186,1.348
			c0.691,0,1.228-0.347,1.228-1.07c0-1.251-3.557-1.279-3.557-3.378c0-0.737,0.452-1.918,2.456-1.918
			c1.271,0,2.357,0.598,2.258,1.988h-1.284c0.014-0.737-0.381-1.126-1.115-1.126c-0.621,0-1.101,0.333-1.101,0.945
			c0,1.237,3.557,1.209,3.557,3.35C136.408,9.578,135.335,10.175,133.924,10.175z"/>
		<path fill="#49484A" d="M144.887,9.021h-0.028c-0.353,0.806-0.903,1.154-1.792,1.154c-1.51,0-1.948-0.959-1.948-2.308
			c0-2.127,2.117-2.224,3.74-2.183c0.028-0.931,0.042-1.946-1.2-1.946c-0.776,0-1.186,0.514-1.115,1.251h-1.256
			c0.056-1.571,0.903-2.113,2.414-2.113c1.835,0,2.314,0.931,2.314,2.113v3.378c0,0.556,0.057,1.126,0.141,1.668h-1.27V9.021z
			 M142.276,7.951c0,0.681,0.339,1.292,1.115,1.292c0.706,0,1.581-0.431,1.468-2.697C143.758,6.561,142.276,6.464,142.276,7.951z"/>
		<path fill="#49484A" d="M152.14,10.036V5.171c0-0.75-0.269-1.362-1.256-1.362c-1.271,0-1.454,1.112-1.454,2.071v4.156h-1.158
			V4.476c0-0.486-0.028-0.973-0.07-1.459h1.228V3.92h0.056c0.452-0.792,0.988-1.042,1.906-1.042c1.524,0,1.905,0.903,1.905,2.293
			v4.865H152.14z"/>
		<path fill="#49484A" d="M159.096,0h1.158v10.036h-1.158V9.202h-0.028c-0.395,0.653-0.889,0.973-1.637,0.973
			c-1.143,0-2.3-0.445-2.3-3.531c0-1.751,0.056-3.767,2.357-3.767c0.677,0,1.171,0.292,1.567,0.848h0.042V0z M157.755,3.809
			c-1.242,0-1.411,0.973-1.411,2.85c0,1.057,0,2.585,1.454,2.585c1.298,0,1.298-1.584,1.298-3.002
			C159.096,5.31,159.04,3.809,157.755,3.809z"/>
	</g>
	<g>
		<path fill="#49484A" d="M3.769,24.838H3.74c-0.353,0.806-0.903,1.154-1.792,1.154C0.438,25.992,0,25.033,0,23.685
			c0-2.127,2.117-2.224,3.74-2.183c0.028-0.931,0.042-1.946-1.2-1.946c-0.776,0-1.186,0.514-1.115,1.251H0.169
			c0.056-1.571,0.903-2.113,2.414-2.113c1.835,0,2.314,0.931,2.314,2.113v3.378c0,0.556,0.057,1.126,0.141,1.668h-1.27V24.838z
			 M1.157,23.768c0,0.681,0.339,1.292,1.115,1.292c0.706,0,1.581-0.431,1.468-2.697C2.639,22.378,1.157,22.281,1.157,23.768z"/>
		<path fill="#49484A" d="M14.012,21.085c0.028-1.154-0.55-1.459-0.988-1.459c-0.889,0-1.496,0.417-1.496,2.335
			c0,2.28,0.296,3.1,1.496,3.1c0.268,0,1.073-0.278,1.03-1.543h1.214c0.042,1.974-1.454,2.475-2.244,2.475
			c-1.51,0-2.71-0.445-2.71-3.545c0-2.057,0.24-3.753,2.71-3.753c1.426,0,2.258,0.82,2.188,2.391H14.012z"/>
		<path fill="#49484A" d="M21.01,24.838h-0.028c-0.353,0.806-0.903,1.154-1.792,1.154c-1.51,0-1.948-0.959-1.948-2.308
			c0-2.127,2.117-2.224,3.74-2.183c0.028-0.931,0.042-1.946-1.2-1.946c-0.776,0-1.186,0.514-1.115,1.251h-1.256
			c0.056-1.571,0.903-2.113,2.414-2.113c1.835,0,2.314,0.931,2.314,2.113v3.378c0,0.556,0.057,1.126,0.141,1.668h-1.27V24.838z
			 M18.399,23.768c0,0.681,0.339,1.292,1.115,1.292c0.706,0,1.581-0.431,1.468-2.697C19.881,22.378,18.399,22.281,18.399,23.768z"/>
		<path fill="#49484A" d="M28.263,25.853v-4.865c0-0.75-0.269-1.362-1.256-1.362c-1.271,0-1.454,1.112-1.454,2.071v4.156h-1.158
			v-5.561c0-0.486-0.028-0.973-0.07-1.459h1.228v0.904h0.056c0.452-0.792,0.988-1.042,1.906-1.042c1.524,0,1.905,0.903,1.905,2.293
			v4.865H28.263z"/>
		<path fill="#49484A" d="M35.218,15.817h1.158v10.036h-1.158v-0.834H35.19c-0.395,0.653-0.889,0.973-1.637,0.973
			c-1.143,0-2.3-0.445-2.3-3.531c0-1.751,0.056-3.767,2.357-3.767c0.677,0,1.171,0.292,1.566,0.848h0.042V15.817z M33.877,19.625
			c-1.242,0-1.412,0.973-1.412,2.85c0,1.057,0,2.585,1.454,2.585c1.298,0,1.298-1.584,1.298-3.002
			C35.218,21.127,35.162,19.625,33.877,19.625z"/>
		<path fill="#49484A" d="M38.406,15.817h1.298v1.223h-1.298V15.817z M39.634,25.853h-1.158v-7.02h1.158V25.853z"/>
		<path fill="#49484A" d="M45.405,15.817h1.158v10.036h-1.158v-0.834h-0.028c-0.395,0.653-0.889,0.973-1.637,0.973
			c-1.143,0-2.3-0.445-2.3-3.531c0-1.751,0.056-3.767,2.357-3.767c0.677,0,1.171,0.292,1.567,0.848h0.042V15.817z M44.064,19.625
			c-1.242,0-1.411,0.973-1.411,2.85c0,1.057,0,2.585,1.454,2.585c1.298,0,1.298-1.584,1.298-3.002
			C45.405,21.127,45.349,19.625,44.064,19.625z"/>
		<path fill="#49484A" d="M52.361,24.838h-0.028c-0.353,0.806-0.903,1.154-1.792,1.154c-1.51,0-1.948-0.959-1.948-2.308
			c0-2.127,2.117-2.224,3.74-2.183c0.028-0.931,0.042-1.946-1.2-1.946c-0.776,0-1.186,0.514-1.115,1.251h-1.256
			c0.056-1.571,0.903-2.113,2.414-2.113c1.835,0,2.314,0.931,2.314,2.113v3.378c0,0.556,0.057,1.126,0.141,1.668h-1.27V24.838z
			 M49.75,23.768c0,0.681,0.339,1.292,1.115,1.292c0.706,0,1.581-0.431,1.468-2.697C51.232,22.378,49.75,22.281,49.75,23.768z"/>
		<path fill="#49484A" d="M55.873,18.833v-1.348l1.158-0.515v1.863h1.552v0.862h-1.552v4.295c0,0.445,0,1.015,1.059,1.015
			c0.084,0,0.268-0.028,0.522-0.055v0.875c-0.381,0.028-0.762,0.111-1.143,0.111c-1.101,0-1.595-0.445-1.595-1.251v-4.991h-1.171
			v-0.862H55.873z"/>
		<path fill="#49484A" d="M60.798,22.711c0,1.96,0.536,2.349,1.439,2.349c0.791,0,1.2-0.625,1.242-1.334h1.27
			c-0.014,1.557-0.988,2.266-2.484,2.266c-1.51,0-2.71-0.445-2.71-3.545c0-2.057,0.24-3.753,2.71-3.753
			c2.033,0,2.541,1.098,2.541,3.419v0.598H60.798z M63.579,21.85c0-2.043-0.579-2.293-1.425-2.293c-0.734,0-1.341,0.347-1.355,2.293
			H63.579z"/>
		<path fill="#49484A" d="M70.067,18.833v-1.362c0-1.417,1.016-1.696,2.046-1.696c0.24,0,0.381,0.014,0.551,0.042v0.82
			c-1.228-0.083-1.44,0.431-1.44,1.001v1.195h1.44v0.862h-1.44v6.158h-1.157v-6.158h-1.101v-0.862H70.067z"/>
		<path fill="#49484A" d="M73.581,22.447c0-2.057,0.24-3.753,2.71-3.753c2.47,0,2.71,1.696,2.71,3.753c0,3.1-1.2,3.545-2.71,3.545
			S73.581,25.547,73.581,22.447z M77.787,21.961c0-1.918-0.607-2.335-1.496-2.335c-0.89,0-1.496,0.417-1.496,2.335
			c0,2.28,0.296,3.1,1.496,3.1S77.787,24.241,77.787,21.961z"/>
		<path fill="#49484A" d="M82.033,19.89h0.028c0.48-1.07,1.073-1.195,2.202-1.195v1.181c-0.099-0.014-0.211-0.027-0.31-0.042
			c-0.099-0.014-0.198-0.028-0.311-0.028c-1.285,0-1.609,0.959-1.609,1.904v4.143h-1.157v-7.02h1.157V19.89z"/>
		<path fill="#49484A" d="M90.767,25.992c-1.538,0-2.498-0.667-2.456-2.28h1.313c0,0.403,0.014,1.348,1.186,1.348
			c0.691,0,1.228-0.347,1.228-1.07c0-1.251-3.557-1.279-3.557-3.378c0-0.737,0.452-1.918,2.456-1.918
			c1.271,0,2.357,0.598,2.258,1.988H91.91c0.014-0.737-0.381-1.126-1.115-1.126c-0.621,0-1.101,0.333-1.101,0.945
			c0,1.237,3.557,1.209,3.557,3.35C93.251,25.395,92.178,25.992,90.767,25.992z"/>
		<path fill="#49484A" d="M95.055,18.833v-1.348l1.158-0.515v1.863h1.552v0.862h-1.552v4.295c0,0.445,0,1.015,1.059,1.015
			c0.084,0,0.268-0.028,0.522-0.055v0.875c-0.381,0.028-0.762,0.111-1.143,0.111c-1.101,0-1.595-0.445-1.595-1.251v-4.991h-1.171
			v-0.862H95.055z"/>
		<path fill="#49484A" d="M102.52,24.838h-0.028c-0.353,0.806-0.903,1.154-1.792,1.154c-1.51,0-1.948-0.959-1.948-2.308
			c0-2.127,2.117-2.224,3.74-2.183c0.028-0.931,0.042-1.946-1.2-1.946c-0.776,0-1.186,0.514-1.115,1.251h-1.256
			c0.056-1.571,0.903-2.113,2.414-2.113c1.835,0,2.314,0.931,2.314,2.113v3.378c0,0.556,0.057,1.126,0.141,1.668h-1.27V24.838z
			 M99.909,23.768c0,0.681,0.339,1.292,1.115,1.292c0.706,0,1.581-0.431,1.468-2.697C101.391,22.378,99.909,22.281,99.909,23.768z"
			/>
		<path fill="#49484A" d="M106.032,18.833v-1.348l1.158-0.515v1.863h1.552v0.862h-1.552v4.295c0,0.445,0,1.015,1.059,1.015
			c0.084,0,0.268-0.028,0.522-0.055v0.875c-0.381,0.028-0.762,0.111-1.143,0.111c-1.101,0-1.595-0.445-1.595-1.251v-4.991h-1.171
			v-0.862H106.032z"/>
		<path fill="#49484A" d="M109.729,15.817h1.298v1.223h-1.298V15.817z M110.957,25.853h-1.158v-7.02h1.158V25.853z"/>
		<path fill="#49484A" d="M116.827,25.853v-4.865c0-0.75-0.269-1.362-1.256-1.362c-1.271,0-1.454,1.112-1.454,2.071v4.156h-1.158
			v-5.561c0-0.486-0.028-0.973-0.07-1.459h1.228v0.904h0.056c0.452-0.792,0.988-1.042,1.906-1.042c1.524,0,1.905,0.903,1.905,2.293
			v4.865H116.827z"/>
		<path fill="#49484A" d="M123.273,18.833v-1.348l1.158-0.515v1.863h1.552v0.862h-1.552v4.295c0,0.445,0,1.015,1.059,1.015
			c0.084,0,0.268-0.028,0.522-0.055v0.875c-0.381,0.028-0.762,0.111-1.143,0.111c-1.101,0-1.595-0.445-1.595-1.251v-4.991h-1.171
			v-0.862H123.273z"/>
		<path fill="#49484A" d="M130.937,25.853v-4.754c0-0.862-0.283-1.474-1.271-1.474c-1.157,0-1.454,0.917-1.454,2.099v4.128h-1.158
			V15.817h1.158v3.92h0.056c0.466-0.82,1.002-1.042,1.934-1.042c1.214,0,1.892,0.598,1.892,2.182v4.977H130.937z"/>
		<path fill="#49484A" d="M135.253,22.711c0,1.96,0.536,2.349,1.439,2.349c0.791,0,1.2-0.625,1.242-1.334h1.27
			c-0.014,1.557-0.988,2.266-2.484,2.266c-1.51,0-2.71-0.445-2.71-3.545c0-2.057,0.24-3.753,2.71-3.753
			c2.033,0,2.541,1.098,2.541,3.419v0.598H135.253z M138.034,21.85c0-2.043-0.579-2.293-1.425-2.293
			c-0.734,0-1.341,0.347-1.355,2.293H138.034z"/>
		<path fill="#49484A" d="M142.378,19.89h0.028c0.48-1.07,1.073-1.195,2.202-1.195v1.181c-0.099-0.014-0.211-0.027-0.31-0.042
			c-0.099-0.014-0.198-0.028-0.311-0.028c-1.285,0-1.609,0.959-1.609,1.904v4.143h-1.157v-7.02h1.157V19.89z"/>
		<path fill="#49484A" d="M149.547,24.838h-0.028c-0.353,0.806-0.903,1.154-1.792,1.154c-1.51,0-1.948-0.959-1.948-2.308
			c0-2.127,2.117-2.224,3.74-2.183c0.028-0.931,0.042-1.946-1.2-1.946c-0.776,0-1.186,0.514-1.115,1.251h-1.256
			c0.056-1.571,0.903-2.113,2.414-2.113c1.835,0,2.314,0.931,2.314,2.113v3.378c0,0.556,0.057,1.126,0.141,1.668h-1.27V24.838z
			 M146.936,23.768c0,0.681,0.339,1.292,1.115,1.292c0.706,0,1.581-0.431,1.468-2.697C148.417,22.378,146.936,22.281,146.936,23.768
			z"/>
		<path fill="#49484A" d="M154.188,19.667h0.028c0.395-0.653,0.889-0.973,1.637-0.973c1.143,0,2.301,0.445,2.301,3.531
			c0,1.751-0.057,3.767-2.357,3.767c-0.677,0-1.171-0.292-1.566-0.848h-0.042v3.364h-1.157v-9.675h1.157V19.667z M156.94,22.225
			c0-1.057,0-2.6-1.454-2.6c-1.425,0-1.298,1.946-1.298,3.017c0,0.931,0.057,2.418,1.341,2.418
			C156.771,25.061,156.94,24.102,156.94,22.225z"/>
		<path fill="#49484A" d="M162.132,24.546h0.028l1.708-5.713h1.256l-3.232,9.675h-1.2l0.804-2.655l-2.414-7.02h1.341L162.132,24.546
			z"/>
	</g>
</g>
</svg>
