<?xml version="1.0" encoding="utf-8"?>
<!-- Generator: Adobe Illustrator 17.0.0, SVG Export Plug-In . SVG Version: 6.00 Build 0)  -->
<!DOCTYPE svg PUBLIC "-//W3C//DTD SVG 1.1//EN" "http://www.w3.org/Graphics/SVG/1.1/DTD/svg11.dtd">
<svg version="1.1" id="Layer_1" xmlns="http://www.w3.org/2000/svg" xmlns:xlink="http://www.w3.org/1999/xlink" x="0px" y="0px"
	 width="287.224px" height="74.562px" viewBox="0 0 287.224 74.562" enable-background="new 0 0 287.224 74.562"
	 xml:space="preserve">
<g>
	<path fill="#808184" d="M287.223,59.005c0,8.589-7.064,15.558-15.787,15.558H15.785C7.067,74.562,0,67.593,0,59.005V16.128
		C0,7.541,7.067,0.574,15.785,0.574h255.651c8.723,0,15.787,6.967,15.787,15.554V59.005z"/>
	<g>
		<defs>
			<path id="SVGID_74_" d="M15.785,0C7.067,0,0,6.966,0,15.554v42.874c0,8.589,7.067,15.558,15.784,15.558h255.653
				c8.722,0,15.786-6.969,15.786-15.558V15.554C287.224,6.966,280.16,0,271.438,0H15.785z"/>
		</defs>
		<clipPath id="SVGID_2_">
			<use xlink:href="#SVGID_74_"  overflow="visible"/>
		</clipPath>
		
			<linearGradient id="SVGID_4_" gradientUnits="userSpaceOnUse" x1="-272.5329" y1="468.432" x2="-270.9797" y2="468.432" gradientTransform="matrix(184.9339 0 0 -182.25 50400.5625 85408.7266)">
			<stop  offset="0" style="stop-color:#004E6B"/>
			<stop  offset="0.2792" style="stop-color:#00506E"/>
			<stop  offset="0.5035" style="stop-color:#005778"/>
			<stop  offset="0.7086" style="stop-color:#006289"/>
			<stop  offset="0.9013" style="stop-color:#0072A1"/>
			<stop  offset="1" style="stop-color:#007CB0"/>
		</linearGradient>
		<rect x="0" y="0" clip-path="url(#SVGID_2_)" fill="url(#SVGID_4_)" width="287.223" height="73.985"/>
	</g>
	<g>
		<defs>
			<path id="SVGID_77_" d="M15.785,5.778c-5.465,0-9.92,4.383-9.92,9.777v42.874c0,5.392,4.454,9.777,9.92,9.777h255.653
				c5.472,0,9.921-4.384,9.921-9.777V15.554c0-5.394-4.45-9.777-9.921-9.777H15.785z"/>
		</defs>
		<clipPath id="SVGID_6_">
			<use xlink:href="#SVGID_77_"  overflow="visible"/>
		</clipPath>
		
			<linearGradient id="SVGID_8_" gradientUnits="userSpaceOnUse" x1="-274.0684" y1="469.7985" x2="-272.5153" y2="469.7985" gradientTransform="matrix(0 -40.1963 -40.7882 0 19305.8457 -10948.3301)">
			<stop  offset="0" style="stop-color:#FFFFFF"/>
			<stop  offset="0.3022" style="stop-color:#F8F8F8"/>
			<stop  offset="0.7564" style="stop-color:#E6E5E3"/>
			<stop  offset="1" style="stop-color:#DAD8D5"/>
		</linearGradient>
		<rect x="5.865" y="5.777" clip-path="url(#SVGID_6_)" fill="url(#SVGID_8_)" width="275.494" height="62.427"/>
	</g>
	<g opacity="0.4">
		<g>
			<defs>
				<rect id="SVGID_80_" x="5.276" y="5.194" width="276.676" height="63.591"/>
			</defs>
			<clipPath id="SVGID_9_">
				<use xlink:href="#SVGID_80_"  overflow="visible"/>
			</clipPath>
			<g clip-path="url(#SVGID_9_)">
				<defs>
					<path id="SVGID_82_" d="M15.785,5.194c-5.795,0-10.508,4.652-10.508,10.361v42.874c0,5.714,4.714,10.356,10.508,10.356h255.652
						c5.804,0,10.518-4.642,10.518-10.356V15.554c0-5.709-4.714-10.361-10.518-10.361H15.785z"/>
				</defs>
				<clipPath id="SVGID_10_">
					<use xlink:href="#SVGID_82_"  overflow="visible"/>
				</clipPath>
				
					<linearGradient id="SVGID_11_" gradientUnits="userSpaceOnUse" x1="-270.6067" y1="467.8619" x2="-269.0535" y2="467.8619" gradientTransform="matrix(0 40.9434 41.5463 0 -19294.3164 11084.75)">
					<stop  offset="0" style="stop-color:#00728F"/>
					<stop  offset="0.1558" style="stop-color:#0A7995"/>
					<stop  offset="0.4238" style="stop-color:#268CA6"/>
					<stop  offset="0.6452" style="stop-color:#429FB7"/>
					<stop  offset="0.6995" style="stop-color:#59ABC0"/>
					<stop  offset="0.8133" style="stop-color:#93C8D6"/>
					<stop  offset="0.9761" style="stop-color:#F1F8FA"/>
					<stop  offset="1" style="stop-color:#FFFFFF"/>
				</linearGradient>
				<rect x="5.276" y="5.194" clip-path="url(#SVGID_10_)" fill="url(#SVGID_11_)" width="276.678" height="63.591"/>
			</g>
		</g>
	</g>
	<g>
		<path fill="#231F20" d="M64.036,32.573c-0.078-0.635-0.31-3.227-3.017-3.227c-2.966,0-4.204,3.049-4.204,6.834
			c0,1.093,0,6.301,3.894,6.301c1.676,0,3.275-1.042,3.353-3.48h4.203c-0.077,1.092-0.181,2.794-1.676,4.319
			c-1.65,1.677-3.739,2.058-5.441,2.058c-6.421,0-8.51-4.675-8.51-9.223c0-5.818,3.301-9.68,8.536-9.68
			c4.074,0,6.937,2.439,6.937,6.098H64.036z"/>
		<path fill="#231F20" d="M70.636,26.577h3.816v18.369h-3.816V26.577z"/>
		<path fill="#231F20" d="M77.675,26.602h4.074v3.277h-4.074V26.602z M77.804,32.09h3.816v12.855h-3.816V32.09z"/>
		<path fill="#231F20" d="M85.024,34.402c0-0.051,0-1.448-0.077-2.337h3.662l0.104,1.931c0.361-0.584,1.392-2.236,4.229-2.236
			c2.553,0,3.636,1.524,3.971,2.414c0.284,0.788,0.361,1.448,0.361,3.836v6.936h-3.894v-7.978c0-0.533,0-0.991-0.207-1.397
			c-0.284-0.559-0.876-1.092-1.856-1.092c-0.825,0-1.573,0.381-1.986,0.991c-0.232,0.331-0.464,0.966-0.464,1.957v7.52h-3.843
			V34.402z"/>
		<path fill="#231F20" d="M100.599,26.602h4.074v3.277h-4.074V26.602z M100.728,32.09h3.816v12.855h-3.816V32.09z"/>
		<path fill="#231F20" d="M114.781,36.663c-0.052-0.458-0.207-2.363-1.676-2.363c-1.805,0-2.011,2.693-2.011,4.09
			c0,0.711,0.077,2.998,0.954,3.938c0.361,0.381,0.748,0.432,1.031,0.432c0.413,0,1.599-0.178,1.753-2.464h3.765
			c-0.052,0.991-0.181,2.541-1.676,3.786c-0.928,0.788-2.089,1.194-3.713,1.194c-1.728,0-3.249-0.381-4.436-1.702
			c-1.134-1.295-1.65-2.998-1.65-5.056c0-5.843,4.358-6.656,6.086-6.656c2.424,0,5.287,1.321,5.313,4.802H114.781z"/>
		<path fill="#231F20" d="M128.603,44.946c-0.129-0.788-0.129-1.372-0.129-1.753c-1.444,2.058-3.172,2.058-3.894,2.058
			c-1.882,0-2.733-0.533-3.249-1.016c-0.773-0.762-1.135-1.804-1.135-2.82c0-1.017,0.361-2.896,2.759-3.989
			c1.599-0.711,3.894-0.711,5.158-0.711c0-0.838-0.026-1.245-0.181-1.702c-0.335-0.94-1.341-1.067-1.702-1.067
			c-0.542,0-1.109,0.229-1.444,0.711c-0.284,0.432-0.284,0.838-0.284,1.144h-3.739c0.026-0.686,0.103-2.058,1.47-3.023
			c1.187-0.838,2.708-1.042,3.946-1.042c1.083,0,3.352,0.178,4.642,1.651c0.876,1.042,0.902,2.566,0.902,3.15l0.026,5.157
			c0,1.092,0.078,2.185,0.31,3.252H128.603z M123.909,40.982c0,0.864,0.593,1.829,1.857,1.829c0.696,0,1.263-0.33,1.625-0.737
			c0.67-0.813,0.722-1.804,0.722-3.175C125.663,38.696,123.909,39.458,123.909,40.982z"/>
		<path fill="#231F20" d="M135.126,26.577h3.816v18.369h-3.816V26.577z"/>
		<path fill="#231F20" d="M157.328,26.577l6.473,18.369h-4.023l-1.341-3.963h-7.375l-1.393,3.963h-3.816l6.73-18.369H157.328z
			 M157.431,38.01l-2.579-7.825l-2.759,7.825H157.431z"/>
		<path fill="#231F20" d="M168.828,39.077c0,0.864-0.052,3.48,3.378,3.48c2.166,0,3.533-1.016,3.533-2.566
			c0-1.626-1.161-1.905-3.533-2.464c-4.436-1.092-6.859-2.388-6.859-5.564c0-3.023,2.192-5.691,7.375-5.691
			c1.934,0,4.229,0.432,5.622,2.16c1.057,1.321,1.057,2.794,1.057,3.404h-3.842c-0.052-0.635-0.258-2.795-3.017-2.795
			c-1.857,0-3.069,0.991-3.069,2.49c0,1.702,1.367,2.007,4.049,2.667c3.223,0.762,6.395,1.626,6.395,5.208
			c0,3.303-2.785,5.971-7.942,5.971c-7.143,0-7.195-4.522-7.221-6.301H168.828z"/>
		<path fill="#231F20" d="M193.325,32.573c-0.078-0.635-0.31-3.227-3.017-3.227c-2.966,0-4.204,3.049-4.204,6.834
			c0,1.093,0,6.301,3.894,6.301c1.676,0,3.275-1.042,3.353-3.48h4.203c-0.077,1.092-0.181,2.794-1.676,4.319
			c-1.65,1.677-3.739,2.058-5.441,2.058c-6.421,0-8.51-4.675-8.51-9.223c0-5.818,3.301-9.68,8.536-9.68
			c4.074,0,6.937,2.439,6.937,6.098H193.325z"/>
		<path fill="#231F20" d="M202.916,26.654l4.874,14.405l4.899-14.405h3.945l-6.859,18.292h-4.358l-6.859-18.292H202.916z"/>
		<path fill="#231F20" d="M218.542,26.628l6.163,0.026c1.031,0,4.178,0.025,6.421,1.651c2.347,1.702,3.172,4.598,3.172,7.215
			c0,5.64-3.068,8.587-6.602,9.223c-0.696,0.127-1.47,0.203-3.352,0.203h-5.802V26.628z M222.59,41.922
			c0.438,0.025,1.109,0.051,1.573,0.051c1.702,0,3.172-0.127,4.332-1.27c1.573-1.55,1.676-4.293,1.676-5.183
			c0-2.591-0.902-4.979-3.404-5.666c-0.825-0.229-1.882-0.355-4.178-0.254V41.922z"/>
		<path fill="#231F20" d="M236.279,29.594v-1.481h2.42v-2.326h1.834v2.326h2.359v1.481h-2.359v6.89h-1.834v-6.89H236.279z"/>
	</g>
</g>
</svg>
