<?xml version="1.0" encoding="utf-8"?>
<!-- Generator: Adobe Illustrator 17.0.0, SVG Export Plug-In . SVG Version: 6.00 Build 0)  -->
<!DOCTYPE svg PUBLIC "-//W3C//DTD SVG 1.1//EN" "http://www.w3.org/Graphics/SVG/1.1/DTD/svg11.dtd">
<svg version="1.1" id="Layer_1" xmlns="http://www.w3.org/2000/svg" xmlns:xlink="http://www.w3.org/1999/xlink" x="0px" y="0px"
	 width="287.225px" height="74.564px" viewBox="0 0 287.225 74.564" enable-background="new 0 0 287.225 74.564"
	 xml:space="preserve">
<g>
	<path fill="#808184" d="M287.225,59.005c0,8.59-7.068,15.559-15.787,15.559H15.788C7.062,74.564,0,67.595,0,59.005V16.128
		C0,7.542,7.062,0.575,15.788,0.575h255.65c8.718,0,15.787,6.967,15.787,15.553V59.005z"/>
	<g>
		<defs>
			<path id="SVGID_85_" d="M15.789,0C7.064,0,0,6.964,0,15.554v42.874c0,8.59,7.064,15.559,15.789,15.559h255.65
				c8.716,0,15.786-6.969,15.786-15.559V15.554c0-8.59-7.07-15.554-15.786-15.554H15.789z"/>
		</defs>
		<clipPath id="SVGID_2_">
			<use xlink:href="#SVGID_85_"  overflow="visible"/>
		</clipPath>
		
			<linearGradient id="SVGID_4_" gradientUnits="userSpaceOnUse" x1="-645.6118" y1="454.8748" x2="-644.0587" y2="454.8748" gradientTransform="matrix(0 -47.6372 -48.3387 0 22131.6699 -30681.1523)">
			<stop  offset="0" style="stop-color:#414042"/>
			<stop  offset="0.0139" style="stop-color:#454446"/>
			<stop  offset="0.1522" style="stop-color:#69696B"/>
			<stop  offset="0.2969" style="stop-color:#87888A"/>
			<stop  offset="0.4479" style="stop-color:#9FA0A2"/>
			<stop  offset="0.6078" style="stop-color:#AFB1B3"/>
			<stop  offset="0.7825" style="stop-color:#B9BBBD"/>
			<stop  offset="1" style="stop-color:#BCBEC0"/>
		</linearGradient>
		<rect x="0" y="0" clip-path="url(#SVGID_2_)" fill="url(#SVGID_4_)" width="287.225" height="73.987"/>
	</g>
	<g>
		<defs>
			<path id="SVGID_88_" d="M15.789,5.779c-5.472,0-9.928,4.381-9.928,9.775v42.874c0,5.394,4.456,9.778,9.928,9.778h255.65
				c5.472,0,9.921-4.384,9.921-9.778V15.554c0-5.394-4.45-9.775-9.921-9.775H15.789z"/>
		</defs>
		<clipPath id="SVGID_6_">
			<use xlink:href="#SVGID_88_"  overflow="visible"/>
		</clipPath>
		
			<linearGradient id="SVGID_8_" gradientUnits="userSpaceOnUse" x1="-645.9365" y1="454.6391" x2="-644.3834" y2="454.6391" gradientTransform="matrix(0 -40.1963 -40.7882 0 18687.5234 -25896.0508)">
			<stop  offset="0" style="stop-color:#FFFFFF"/>
			<stop  offset="0.3022" style="stop-color:#F8F8F8"/>
			<stop  offset="0.7564" style="stop-color:#E6E5E3"/>
			<stop  offset="1" style="stop-color:#DAD8D5"/>
		</linearGradient>
		<rect x="5.862" y="5.779" clip-path="url(#SVGID_6_)" fill="url(#SVGID_8_)" width="275.499" height="62.427"/>
	</g>
	<g opacity="0.5">
		<g>
			<defs>
				<rect id="SVGID_91_" x="5.279" y="5.195" width="276.676" height="63.589"/>
			</defs>
			<clipPath id="SVGID_9_">
				<use xlink:href="#SVGID_91_"  overflow="visible"/>
			</clipPath>
			<g clip-path="url(#SVGID_9_)">
				<defs>
					<path id="SVGID_93_" d="M15.787,5.195c-5.795,0-10.51,4.652-10.51,10.361V58.43c0,5.712,4.715,10.355,10.51,10.355h255.652
						c5.802,0,10.516-4.642,10.516-10.355V15.556c0-5.709-4.714-10.361-10.516-10.361H15.787z"/>
				</defs>
				<clipPath id="SVGID_10_">
					<use xlink:href="#SVGID_93_"  overflow="visible"/>
				</clipPath>
				
					<linearGradient id="SVGID_11_" gradientUnits="userSpaceOnUse" x1="-645.9041" y1="454.6609" x2="-644.351" y2="454.6609" gradientTransform="matrix(0 -40.9434 -41.5463 0 19033.0957 -26376.7246)">
					<stop  offset="0" style="stop-color:#595A5C"/>
					<stop  offset="0.005" style="stop-color:#5C5D5F"/>
					<stop  offset="0.066" style="stop-color:#838385"/>
					<stop  offset="0.1322" style="stop-color:#A4A4A5"/>
					<stop  offset="0.2061" style="stop-color:#C0C1C1"/>
					<stop  offset="0.2882" style="stop-color:#D7D8D8"/>
					<stop  offset="0.3822" style="stop-color:#E9E9EA"/>
					<stop  offset="0.4954" style="stop-color:#F6F6F6"/>
					<stop  offset="0.6471" style="stop-color:#FDFDFD"/>
					<stop  offset="1" style="stop-color:#FFFFFF"/>
				</linearGradient>
				<rect x="5.278" y="5.195" clip-path="url(#SVGID_10_)" fill="url(#SVGID_11_)" width="276.678" height="63.589"/>
			</g>
		</g>
	</g>
	<g>
		<path fill="#231F20" d="M29.962,26.285h5.776l6.988,14.456V26.285h3.713v18.369h-5.493L33.727,29.41v15.244h-3.765V26.285z"/>
		<path fill="#231F20" d="M58.198,25.904c1.986,0,4.719,0.458,6.55,2.49c1.986,2.236,2.373,5.106,2.373,6.91
			c0,2.668-0.825,5.513-2.347,7.19c-2.063,2.287-5.08,2.617-6.627,2.617c-2.45,0-4.899-0.762-6.602-2.516
			c-2.037-2.134-2.295-5.183-2.295-6.859C49.249,30.858,51.493,25.904,58.198,25.904z M54.82,40.741
			c0.567,0.762,1.521,1.474,3.378,1.474c1.625,0,2.733-0.559,3.481-1.702c0.619-0.915,1.264-2.337,1.264-5.259
			c0-0.889-0.078-2.159-0.464-3.277c-0.773-2.261-2.347-3.252-4.255-3.252c-1.496,0-2.682,0.61-3.43,1.55
			c-1.058,1.271-1.367,3.252-1.367,5.335C53.427,37.362,53.711,39.318,54.82,40.741z"/>
		<path fill="#231F20" d="M87.671,32.281c-0.078-0.635-0.31-3.227-3.017-3.227c-2.966,0-4.204,3.049-4.204,6.834
			c0,1.093,0,6.301,3.894,6.301c1.676,0,3.275-1.042,3.353-3.48H91.9c-0.077,1.092-0.181,2.794-1.676,4.319
			c-1.65,1.677-3.739,2.058-5.441,2.058c-6.421,0-8.51-4.675-8.51-9.223c0-5.818,3.301-9.68,8.536-9.68
			c4.074,0,6.937,2.439,6.937,6.098H87.671z"/>
		<path fill="#231F20" d="M94.271,26.285h3.816v18.369h-3.816V26.285z"/>
		<path fill="#231F20" d="M101.311,26.31h4.074v3.277h-4.074V26.31z M101.44,31.798h3.816v12.855h-3.816V31.798z"/>
		<path fill="#231F20" d="M108.659,34.11c0-0.051,0-1.448-0.077-2.337h3.662l0.104,1.931c0.361-0.584,1.392-2.236,4.229-2.236
			c2.553,0,3.636,1.524,3.971,2.414c0.284,0.788,0.361,1.448,0.361,3.836v6.936h-3.894v-7.978c0-0.533,0-0.991-0.207-1.397
			c-0.284-0.559-0.876-1.092-1.856-1.092c-0.825,0-1.573,0.381-1.986,0.991c-0.232,0.331-0.464,0.966-0.464,1.957v7.52h-3.843V34.11
			z"/>
		<path fill="#231F20" d="M124.234,26.31h4.074v3.277h-4.074V26.31z M124.363,31.798h3.816v12.855h-3.816V31.798z"/>
		<path fill="#231F20" d="M138.417,36.371c-0.052-0.458-0.207-2.363-1.676-2.363c-1.805,0-2.011,2.693-2.011,4.09
			c0,0.711,0.077,2.998,0.954,3.938c0.361,0.381,0.748,0.432,1.031,0.432c0.413,0,1.599-0.178,1.753-2.464h3.765
			c-0.052,0.991-0.181,2.541-1.676,3.786c-0.928,0.788-2.089,1.194-3.713,1.194c-1.728,0-3.249-0.381-4.436-1.702
			c-1.134-1.295-1.65-2.998-1.65-5.056c0-5.843,4.358-6.656,6.086-6.656c2.424,0,5.287,1.321,5.313,4.802H138.417z"/>
		<path fill="#231F20" d="M152.238,44.654c-0.129-0.788-0.129-1.372-0.129-1.753c-1.444,2.058-3.172,2.058-3.894,2.058
			c-1.882,0-2.733-0.533-3.249-1.016c-0.773-0.762-1.135-1.804-1.135-2.82c0-1.017,0.361-2.896,2.759-3.989
			c1.599-0.711,3.894-0.711,5.158-0.711c0-0.838-0.026-1.245-0.181-1.702c-0.335-0.94-1.341-1.067-1.702-1.067
			c-0.542,0-1.109,0.229-1.444,0.711c-0.284,0.432-0.284,0.838-0.284,1.144h-3.739c0.026-0.686,0.103-2.058,1.47-3.023
			c1.187-0.838,2.708-1.042,3.946-1.042c1.083,0,3.352,0.178,4.642,1.651c0.876,1.042,0.902,2.566,0.902,3.15l0.026,5.157
			c0,1.092,0.078,2.185,0.31,3.252H152.238z M147.544,40.69c0,0.864,0.593,1.829,1.857,1.829c0.696,0,1.263-0.33,1.625-0.737
			c0.67-0.813,0.722-1.804,0.722-3.175C149.298,38.404,147.544,39.166,147.544,40.69z"/>
		<path fill="#231F20" d="M158.761,26.285h3.816v18.369h-3.816V26.285z"/>
		<path fill="#231F20" d="M180.989,26.285l6.473,18.369h-4.023l-1.341-3.963h-7.375l-1.393,3.963h-3.816l6.73-18.369H180.989z
			 M181.092,37.718l-2.579-7.825l-2.759,7.825H181.092z"/>
		<path fill="#231F20" d="M192.489,38.785c0,0.864-0.052,3.48,3.378,3.48c2.167,0,3.533-1.016,3.533-2.566
			c0-1.626-1.161-1.905-3.533-2.464c-4.435-1.092-6.859-2.388-6.859-5.564c0-3.023,2.192-5.691,7.375-5.691
			c1.934,0,4.229,0.432,5.622,2.16c1.057,1.321,1.057,2.794,1.057,3.404h-3.842c-0.052-0.635-0.258-2.795-3.017-2.795
			c-1.857,0-3.069,0.991-3.069,2.49c0,1.702,1.367,2.007,4.049,2.667c3.223,0.762,6.395,1.626,6.395,5.208
			c0,3.303-2.785,5.971-7.942,5.971c-7.143,0-7.195-4.522-7.221-6.301H192.489z"/>
		<path fill="#231F20" d="M216.986,32.281c-0.078-0.635-0.31-3.227-3.017-3.227c-2.966,0-4.204,3.049-4.204,6.834
			c0,1.093,0,6.301,3.894,6.301c1.676,0,3.275-1.042,3.353-3.48h4.203c-0.077,1.092-0.181,2.794-1.676,4.319
			c-1.65,1.677-3.739,2.058-5.441,2.058c-6.421,0-8.51-4.675-8.51-9.223c0-5.818,3.301-9.68,8.536-9.68
			c4.074,0,6.937,2.439,6.937,6.098H216.986z"/>
		<path fill="#231F20" d="M226.577,26.362l4.874,14.405l4.899-14.405h3.945l-6.859,18.292h-4.358l-6.859-18.292H226.577z"/>
		<path fill="#231F20" d="M242.203,26.336l6.163,0.026c1.032,0,4.178,0.025,6.421,1.651c2.347,1.702,3.172,4.598,3.172,7.215
			c0,5.64-3.068,8.587-6.602,9.223c-0.696,0.127-1.47,0.203-3.352,0.203h-5.802V26.336z M246.251,41.63
			c0.438,0.025,1.109,0.051,1.573,0.051c1.702,0,3.172-0.127,4.332-1.27c1.573-1.55,1.676-4.293,1.676-5.183
			c0-2.591-0.902-4.979-3.404-5.666c-0.825-0.229-1.882-0.355-4.178-0.254V41.63z"/>
		<path fill="#231F20" d="M259.94,29.302v-1.481h2.42v-2.326h1.833v2.326h2.36v1.481h-2.36v6.89h-1.833v-6.89H259.94z"/>
	</g>
</g>
</svg>
