<?xml version="1.0" encoding="utf-8"?>
<!-- Generator: Adobe Illustrator 17.0.0, SVG Export Plug-In . SVG Version: 6.00 Build 0)  -->
<!DOCTYPE svg PUBLIC "-//W3C//DTD SVG 1.1//EN" "http://www.w3.org/Graphics/SVG/1.1/DTD/svg11.dtd">
<svg version="1.1" id="Layer_1" xmlns="http://www.w3.org/2000/svg" xmlns:xlink="http://www.w3.org/1999/xlink" x="0px" y="0px"
	 width="263.526px" height="81.351px" viewBox="0 0 263.526 81.351" enable-background="new 0 0 263.526 81.351"
	 xml:space="preserve">
<g>
	<line fill="none" stroke="#006C85" stroke-width="1.0043" x1="154.439" y1="60.988" x2="154.439" y2="74.243"/>
	<polygon fill="#006C85" points="150.285,71.333 154.439,73.711 158.592,71.333 154.439,81.351 	"/>
	<path fill="#808184" d="M263.526,45.671c0,6.649-4.637,12.043-10.353,12.043H10.358c-5.716,0-10.357-5.394-10.357-12.043V12.484
		c0-6.652,4.641-12.044,10.357-12.044h242.815c5.716,0,10.353,5.392,10.353,12.044V45.671z"/>
	<g>
		<defs>
			<path id="SVGID_63_" d="M10.359,0C4.642,0,0,5.386,0,12.043V45.22c0,6.655,4.642,12.052,10.359,12.052h242.812
				c5.717,0,10.355-5.397,10.355-12.052V12.043C263.526,5.386,258.888,0,253.171,0H10.359z"/>
		</defs>
		<clipPath id="SVGID_2_">
			<use xlink:href="#SVGID_63_"  overflow="visible"/>
		</clipPath>
		
			<linearGradient id="SVGID_4_" gradientUnits="userSpaceOnUse" x1="-95.5523" y1="348.3447" x2="-93.9992" y2="348.3447" gradientTransform="matrix(169.6753 0 0 -167.2129 16212.8604 58276.3711)">
			<stop  offset="0" style="stop-color:#004E6B"/>
			<stop  offset="0.2792" style="stop-color:#00506E"/>
			<stop  offset="0.5035" style="stop-color:#005778"/>
			<stop  offset="0.7086" style="stop-color:#006289"/>
			<stop  offset="0.9013" style="stop-color:#0072A1"/>
			<stop  offset="1" style="stop-color:#007CB0"/>
		</linearGradient>
		<rect x="0" y="0" clip-path="url(#SVGID_2_)" fill="url(#SVGID_4_)" width="263.526" height="57.273"/>
	</g>
	<g>
		<defs>
			<path id="SVGID_66_" d="M10.359,4.467c-3.589,0-6.511,3.398-6.511,7.576V45.22c0,4.181,2.921,7.578,6.511,7.578h242.812
				c3.592,0,6.511-3.397,6.511-7.578V12.043c0-4.178-2.918-7.576-6.511-7.576H10.359z"/>
		</defs>
		<clipPath id="SVGID_6_">
			<use xlink:href="#SVGID_66_"  overflow="visible"/>
		</clipPath>
		
			<linearGradient id="SVGID_8_" gradientUnits="userSpaceOnUse" x1="-98.5373" y1="353.4199" x2="-96.9841" y2="353.4199" gradientTransform="matrix(0 -31.1177 -31.5759 0 11291.3164 -3013.4565)">
			<stop  offset="0" style="stop-color:#FFFFFF"/>
			<stop  offset="0.3022" style="stop-color:#F8F8F8"/>
			<stop  offset="0.7564" style="stop-color:#E6E5E3"/>
			<stop  offset="1" style="stop-color:#DAD8D5"/>
		</linearGradient>
		<rect x="3.849" y="4.467" clip-path="url(#SVGID_6_)" fill="url(#SVGID_8_)" width="255.833" height="48.331"/>
	</g>
	<g opacity="0.4">
		<g>
			<defs>
				<rect id="SVGID_69_" x="3.464" y="4.021" width="256.605" height="49.221"/>
			</defs>
			<clipPath id="SVGID_9_">
				<use xlink:href="#SVGID_69_"  overflow="visible"/>
			</clipPath>
			<g clip-path="url(#SVGID_9_)">
				<defs>
					<path id="SVGID_71_" d="M10.359,4.021c-3.804,0-6.894,3.597-6.894,8.022V45.22c0,4.423,3.091,8.022,6.894,8.022h242.812
						c3.805,0,6.897-3.599,6.897-8.022V12.043c0-4.425-3.092-8.022-6.897-8.022H10.359z"/>
				</defs>
				<clipPath id="SVGID_10_">
					<use xlink:href="#SVGID_71_"  overflow="visible"/>
				</clipPath>
				
					<linearGradient id="SVGID_11_" gradientUnits="userSpaceOnUse" x1="-91.0201" y1="344.7668" x2="-89.467" y2="344.7668" gradientTransform="matrix(0 31.6919 32.1586 0 -10955.4521 2888.6223)">
					<stop  offset="0" style="stop-color:#00728F"/>
					<stop  offset="0.1558" style="stop-color:#0A7995"/>
					<stop  offset="0.4238" style="stop-color:#268CA6"/>
					<stop  offset="0.6452" style="stop-color:#429FB7"/>
					<stop  offset="0.6995" style="stop-color:#59ABC0"/>
					<stop  offset="0.8133" style="stop-color:#93C8D6"/>
					<stop  offset="0.9761" style="stop-color:#F1F8FA"/>
					<stop  offset="1" style="stop-color:#FFFFFF"/>
				</linearGradient>
				<rect x="3.465" y="4.021" clip-path="url(#SVGID_10_)" fill="url(#SVGID_11_)" width="256.604" height="49.221"/>
			</g>
		</g>
	</g>
	<g>
		<path fill="#231F20" d="M88.448,37.137v-1.191h7.155v1.191H88.448z M88.511,31.902v-1.27l7.027-3.463v1.363l-5.851,2.711v0.031
			l5.851,2.727v1.363L88.511,31.902z"/>
		<path fill="#231F20" d="M101.356,25.994h7.521v1.943l-3.816,8.979h-2.655l4.054-9.104h-5.104V25.994z"/>
		<path fill="#231F20" d="M112.453,34.221c-0.016,0.251,0.19,1.222,1.304,1.222c0.858,0,1.638-0.61,1.638-2.053
			c0-1.049-0.414-1.959-1.479-1.959c-1.065,0-1.335,0.847-1.415,1.098l-2.305-0.063l0.254-6.473h6.726v1.787h-4.627l-0.143,2.711
			c0.35-0.298,0.875-0.783,2.099-0.783c1.781,0,3.275,1.285,3.275,3.479c0,1.865-1.113,3.965-3.959,3.965
			c-1.161,0-2.337-0.298-3.101-1.191c-0.556-0.658-0.604-1.332-0.62-1.739H112.453z"/>
		<path fill="#231F20" d="M125.997,25.635l2.369,5.154l2.417-5.154h2.528l-3.88,7.16v4.122h-2.433v-4.153l-3.879-7.129H125.997z"/>
		<path fill="#231F20" d="M134.645,25.587h7.695v1.849h-5.231v2.695h4.897v1.85h-4.897v3.057h5.406v1.88h-7.87V25.587z"/>
		<path fill="#231F20" d="M150.336,25.587l3.991,11.33h-2.48l-0.827-2.444h-4.547l-0.858,2.444h-2.353l4.15-11.33H150.336z
			 M150.4,32.638l-1.59-4.826l-1.701,4.826H150.4z"/>
		<path fill="#231F20" d="M155.613,25.587h4.404c1.272-0.016,2.56-0.016,3.482,0.769c0.715,0.61,1.001,1.441,1.001,2.178
			c0,2.115-1.844,2.617-2.401,2.773c1.733,0.156,1.86,1.129,2.067,2.602c0.175,1.332,0.271,1.881,0.35,2.193
			c0.127,0.502,0.223,0.627,0.35,0.815h-2.719c-0.111-0.627-0.461-3.495-0.62-3.934c-0.223-0.642-0.827-0.642-1.24-0.642h-2.162
			v4.575h-2.512V25.587z M158.046,30.539h1.987c0.286,0,0.858,0,1.256-0.313c0.175-0.126,0.636-0.517,0.636-1.316
			c0-0.769-0.381-1.128-0.604-1.269c-0.382-0.268-0.843-0.268-1.622-0.268h-1.653V30.539z"/>
		<path fill="#231F20" d="M168.331,33.297c0,0.533-0.032,2.146,2.083,2.146c1.336,0,2.178-0.627,2.178-1.582
			c0-1.003-0.715-1.176-2.178-1.52c-2.734-0.674-4.229-1.474-4.229-3.433c0-1.864,1.351-3.511,4.547-3.511
			c1.192,0,2.607,0.268,3.466,1.332c0.652,0.815,0.652,1.725,0.652,2.101h-2.369c-0.032-0.392-0.159-1.724-1.86-1.724
			c-1.145,0-1.892,0.611-1.892,1.535c0,1.051,0.842,1.238,2.496,1.646c1.987,0.47,3.943,1.003,3.943,3.213
			c0,2.037-1.717,3.683-4.897,3.683c-4.404,0-4.436-2.789-4.452-3.887H168.331z"/>
	</g>
</g>
</svg>
