<?xml version="1.0" encoding="utf-8"?>
<!-- Generator: Adobe Illustrator 17.0.0, SVG Export Plug-In . SVG Version: 6.00 Build 0)  -->
<!DOCTYPE svg PUBLIC "-//W3C//DTD SVG 1.1//EN" "http://www.w3.org/Graphics/SVG/1.1/DTD/svg11.dtd">
<svg version="1.1" id="Layer_1" xmlns="http://www.w3.org/2000/svg" xmlns:xlink="http://www.w3.org/1999/xlink" x="0px" y="0px"
	 width="263.528px" height="79.849px" viewBox="0 0 263.528 79.849" enable-background="new 0 0 263.528 79.849"
	 xml:space="preserve">
<g>
	<line fill="none" stroke="#006C85" stroke-width="1.0043" x1="121.256" y1="59.487" x2="121.256" y2="72.741"/>
	<polygon fill="#006C85" points="117.102,69.831 121.256,72.209 125.407,69.831 121.256,79.849 	"/>
	<path fill="#808184" d="M263.528,45.673c0,6.644-4.637,12.043-10.356,12.043H10.356c-5.715,0-10.354-5.399-10.354-12.043V12.486
		c0-6.647,4.64-12.043,10.354-12.043h242.816c5.719,0,10.356,5.396,10.356,12.043V45.673z"/>
	<g>
		<defs>
			<path id="SVGID_118_" d="M10.356,0C4.641,0,0,5.386,0,12.041v33.179C0,51.88,4.641,57.27,10.356,57.27h242.815
				c5.72,0,10.356-5.389,10.356-12.049V12.041C263.527,5.386,258.891,0,253.171,0H10.356z"/>
		</defs>
		<clipPath id="SVGID_2_">
			<use xlink:href="#SVGID_118_"  overflow="visible"/>
		</clipPath>
		
			<linearGradient id="SVGID_4_" gradientUnits="userSpaceOnUse" x1="-381.5174" y1="346.8385" x2="-379.9643" y2="346.8385" gradientTransform="matrix(169.6763 0 0 -167.2139 64734.4648 58024.8594)">
			<stop  offset="0" style="stop-color:#004E6B"/>
			<stop  offset="0.2792" style="stop-color:#00506E"/>
			<stop  offset="0.5035" style="stop-color:#005778"/>
			<stop  offset="0.7086" style="stop-color:#006289"/>
			<stop  offset="0.9013" style="stop-color:#0072A1"/>
			<stop  offset="1" style="stop-color:#007CB0"/>
		</linearGradient>
		<rect x="0" y="0" clip-path="url(#SVGID_2_)" fill="url(#SVGID_4_)" width="263.527" height="57.27"/>
	</g>
	<g>
		<defs>
			<path id="SVGID_121_" d="M10.356,4.47c-3.589,0-6.509,3.392-6.509,7.571v33.179c0,4.176,2.92,7.574,6.509,7.574h242.815
				c3.592,0,6.512-3.398,6.512-7.574V12.041c0-4.179-2.92-7.571-6.512-7.571H10.356z"/>
		</defs>
		<clipPath id="SVGID_6_">
			<use xlink:href="#SVGID_121_"  overflow="visible"/>
		</clipPath>
		
			<linearGradient id="SVGID_8_" gradientUnits="userSpaceOnUse" x1="-385.1076" y1="348.6922" x2="-383.5545" y2="348.6922" gradientTransform="matrix(0 -31.1152 -31.5734 0 11141.1641 -11929.9043)">
			<stop  offset="0" style="stop-color:#FFFFFF"/>
			<stop  offset="0.3022" style="stop-color:#F8F8F8"/>
			<stop  offset="0.7564" style="stop-color:#E6E5E3"/>
			<stop  offset="1" style="stop-color:#DAD8D5"/>
		</linearGradient>
		<rect x="3.847" y="4.47" clip-path="url(#SVGID_6_)" fill="url(#SVGID_8_)" width="255.836" height="48.325"/>
	</g>
	<g opacity="0.4">
		<g>
			<defs>
				<rect id="SVGID_124_" x="3.467" y="4.019" width="256.604" height="49.22"/>
			</defs>
			<clipPath id="SVGID_9_">
				<use xlink:href="#SVGID_124_"  overflow="visible"/>
			</clipPath>
			<g clip-path="url(#SVGID_9_)">
				<defs>
					<path id="SVGID_126_" d="M10.356,4.019c-3.8,0-6.89,3.602-6.89,8.022v33.179c0,4.431,3.089,8.019,6.89,8.019h242.815
						c3.811,0,6.899-3.588,6.899-8.019V12.041c0-4.42-3.088-8.022-6.899-8.022H10.356z"/>
				</defs>
				<clipPath id="SVGID_10_">
					<use xlink:href="#SVGID_126_"  overflow="visible"/>
				</clipPath>
				
					<linearGradient id="SVGID_11_" gradientUnits="userSpaceOnUse" x1="-377.5615" y1="346.4418" x2="-376.0083" y2="346.4418" gradientTransform="matrix(0 31.6904 32.1571 0 -11008.7949 11969.0938)">
					<stop  offset="0" style="stop-color:#00728F"/>
					<stop  offset="0.1558" style="stop-color:#0A7995"/>
					<stop  offset="0.4238" style="stop-color:#268CA6"/>
					<stop  offset="0.6452" style="stop-color:#429FB7"/>
					<stop  offset="0.6995" style="stop-color:#59ABC0"/>
					<stop  offset="0.8133" style="stop-color:#93C8D6"/>
					<stop  offset="0.9761" style="stop-color:#F1F8FA"/>
					<stop  offset="1" style="stop-color:#FFFFFF"/>
				</linearGradient>
				<rect x="3.467" y="4.019" clip-path="url(#SVGID_10_)" fill="url(#SVGID_11_)" width="256.604" height="49.22"/>
			</g>
		</g>
	</g>
	<g>
		<path fill="#5E5F5F" d="M24.389,25.697c-0.449,1.344-1.199,3.518-1.199,5.922c0,1.799,0.381,3.143,1.185,5.895H22.89
			c-0.777-1.866-1.376-3.813-1.376-5.828c0-2.066,0.627-4.068,1.39-5.988H24.389z"/>
		<path fill="#5E5F5F" d="M29.336,28.92c2.493,0,3.57,1.666,3.57,3.559c0,1.906-1.117,3.625-3.611,3.625
			c-1.962,0-3.516-1.195-3.516-3.571C25.779,30.895,26.624,28.92,29.336,28.92z M29.362,34.721c0.886,0,1.485-0.523,1.485-2.322
			c0-0.9-0.177-2.148-1.512-2.148c-1.472,0-1.485,1.678-1.485,2.295C27.85,34.062,28.368,34.721,29.362,34.721z"/>
		<path fill="#5E5F5F" d="M34.418,30.746c0-0.322-0.055-1.303-0.095-1.691h1.894l0.041,1.303c0.259-0.578,0.708-1.396,2.344-1.316
			v1.785c-2.044-0.188-2.167,0.847-2.167,1.693v3.343h-2.017V30.746z"/>
		<path fill="#5E5F5F" d="M43.534,30.289c0-0.025,0-0.765-0.041-1.234h1.935l0.054,1.02c0.191-0.309,0.736-1.182,2.235-1.182
			c1.349,0,1.921,0.807,2.099,1.276c0.149,0.417,0.19,0.765,0.19,2.028v3.665h-2.058v-4.216c0-0.283,0-0.523-0.109-0.738
			c-0.15-0.297-0.463-0.578-0.981-0.578c-0.436,0-0.831,0.201-1.049,0.523c-0.123,0.175-0.245,0.51-0.245,1.034v3.975h-2.03V30.289z
			"/>
		<path fill="#5E5F5F" d="M55.075,28.92c2.493,0,3.57,1.666,3.57,3.559c0,1.906-1.117,3.625-3.611,3.625
			c-1.962,0-3.516-1.195-3.516-3.571C51.518,30.895,52.363,28.92,55.075,28.92z M55.102,34.721c0.886,0,1.485-0.523,1.485-2.322
			c0-0.9-0.177-2.148-1.512-2.148c-1.472,0-1.485,1.678-1.485,2.295C53.589,34.062,54.107,34.721,55.102,34.721z"/>
		<path fill="#5E5F5F" d="M64.204,35.768c-0.654,0.176-1.24,0.215-1.567,0.215c-2.03,0-2.03-1.262-2.03-1.826v-3.719h-1.322v-1.316
			h1.322v-1.328l2.003-0.727v2.055h1.635v1.316H62.61v3.062c0.014,0.618,0.014,1.007,0.913,1.007c0.3,0,0.436-0.014,0.681-0.04
			V35.768z"/>
		<path fill="#5E5F5F" d="M72.884,31.484c-0.027-0.241-0.109-1.248-0.886-1.248c-0.954,0-1.063,1.424-1.063,2.162
			c0,0.375,0.041,1.584,0.504,2.08c0.19,0.202,0.395,0.229,0.545,0.229c0.218,0,0.845-0.094,0.927-1.303H74.9
			c-0.027,0.524-0.095,1.344-0.886,2.002c-0.491,0.416-1.104,0.631-1.962,0.631c-0.913,0-1.717-0.201-2.344-0.9
			c-0.6-0.684-0.872-1.584-0.872-2.672c0-3.088,2.303-3.518,3.216-3.518c1.281,0,2.793,0.697,2.807,2.537H72.884z"/>
		<path fill="#5E5F5F" d="M80.188,35.862c-0.068-0.417-0.068-0.726-0.068-0.927c-0.763,1.088-1.676,1.088-2.058,1.088
			c-0.995,0-1.444-0.281-1.717-0.537c-0.409-0.402-0.6-0.953-0.6-1.49s0.191-1.531,1.458-2.108c0.845-0.376,2.058-0.376,2.725-0.376
			c0-0.443-0.014-0.658-0.095-0.9c-0.177-0.496-0.708-0.563-0.899-0.563c-0.286,0-0.586,0.12-0.763,0.375
			c-0.15,0.229-0.15,0.443-0.15,0.604h-1.976c0.014-0.362,0.055-1.087,0.777-1.599c0.626-0.442,1.431-0.55,2.084-0.55
			c0.572,0,1.771,0.095,2.453,0.872c0.463,0.551,0.477,1.357,0.477,1.666l0.014,2.726c0,0.577,0.041,1.155,0.164,1.719H80.188z
			 M77.708,33.768c0,0.457,0.313,0.967,0.981,0.967c0.368,0,0.667-0.174,0.858-0.389c0.354-0.43,0.381-0.954,0.381-1.68
			C78.634,32.559,77.708,32.962,77.708,33.768z"/>
		<path fill="#5E5F5F" d="M83.662,30.289c0-0.025,0-0.765-0.041-1.234h1.935l0.054,1.02c0.191-0.309,0.736-1.182,2.235-1.182
			c1.349,0,1.921,0.807,2.098,1.276c0.15,0.417,0.191,0.765,0.191,2.028v3.665h-2.058v-4.216c0-0.283,0-0.523-0.109-0.738
			c-0.15-0.297-0.463-0.578-0.981-0.578c-0.436,0-0.831,0.201-1.049,0.523c-0.123,0.175-0.245,0.51-0.245,1.034v3.975h-2.03V30.289z
			"/>
		<path fill="#5E5F5F" d="M96.512,26.168h2.03v8.594c0,0.402,0.027,0.846,0.054,1.101h-2.044l-0.054-0.979
			c-0.136,0.24-0.272,0.496-0.695,0.765c-0.504,0.322-1.035,0.349-1.335,0.349c-1.84,0-2.93-1.248-2.93-3.369
			c0-2.243,1.24-3.64,3.039-3.64c1.24,0,1.758,0.685,1.935,0.927V26.168z M94.972,34.707c0.586,0,1.063-0.349,1.281-0.766
			c0.3-0.563,0.327-1.262,0.327-1.598c0-1.328-0.586-2.055-1.499-2.055c-1.349,0-1.499,1.599-1.499,2.283
			C93.582,33.701,93.963,34.707,94.972,34.707z"/>
		<path fill="#5E5F5F" d="M100.218,26.168h2.153V27.9h-2.153V26.168z M100.286,29.068h2.017v6.794h-2.017V29.068z"/>
		<path fill="#5E5F5F" d="M108.626,26.168h2.03v8.594c0,0.402,0.027,0.846,0.054,1.101h-2.044l-0.054-0.979
			c-0.136,0.24-0.272,0.496-0.695,0.765c-0.504,0.322-1.035,0.349-1.335,0.349c-1.84,0-2.93-1.248-2.93-3.369
			c0-2.243,1.24-3.64,3.039-3.64c1.24,0,1.758,0.685,1.935,0.927V26.168z M107.086,34.707c0.586,0,1.063-0.349,1.281-0.766
			c0.3-0.563,0.327-1.262,0.327-1.598c0-1.328-0.586-2.055-1.499-2.055c-1.349,0-1.499,1.599-1.499,2.283
			C105.696,33.701,106.077,34.707,107.086,34.707z"/>
		<path fill="#5E5F5F" d="M116.528,35.862c-0.068-0.417-0.068-0.726-0.068-0.927c-0.763,1.088-1.676,1.088-2.058,1.088
			c-0.995,0-1.444-0.281-1.717-0.537c-0.409-0.402-0.6-0.953-0.6-1.49s0.191-1.531,1.458-2.108c0.845-0.376,2.058-0.376,2.725-0.376
			c0-0.443-0.014-0.658-0.095-0.9c-0.177-0.496-0.708-0.563-0.899-0.563c-0.286,0-0.586,0.12-0.763,0.375
			c-0.15,0.229-0.15,0.443-0.15,0.604h-1.976c0.014-0.362,0.055-1.087,0.777-1.599c0.626-0.442,1.431-0.55,2.084-0.55
			c0.572,0,1.771,0.095,2.453,0.872c0.463,0.551,0.477,1.357,0.477,1.666l0.014,2.726c0,0.577,0.041,1.155,0.164,1.719H116.528z
			 M114.048,33.768c0,0.457,0.313,0.967,0.981,0.967c0.368,0,0.667-0.174,0.858-0.389c0.354-0.43,0.381-0.954,0.381-1.68
			C114.975,32.559,114.048,32.962,114.048,33.768z"/>
		<path fill="#5E5F5F" d="M124.023,35.768c-0.654,0.176-1.24,0.215-1.567,0.215c-2.03,0-2.03-1.262-2.03-1.826v-3.719h-1.322v-1.316
			h1.322v-1.328l2.003-0.727v2.055h1.635v1.316h-1.635v3.062c0.014,0.618,0.014,1.007,0.913,1.007c0.3,0,0.436-0.014,0.681-0.04
			V35.768z"/>
		<path fill="#5E5F5F" d="M126.639,32.975c0,0.443,0,1.813,1.403,1.813c0.504,0,1.008-0.188,1.199-0.94h1.839
			c-0.027,0.322-0.095,0.9-0.654,1.478c-0.504,0.524-1.404,0.792-2.412,0.792c-0.586,0-1.703-0.107-2.425-0.846
			c-0.627-0.645-0.886-1.558-0.886-2.645c0-1.102,0.272-2.418,1.431-3.21c0.532-0.349,1.186-0.563,1.935-0.563
			c0.981,0,2.153,0.375,2.78,1.638c0.463,0.927,0.436,1.921,0.409,2.483H126.639z M129.2,31.727c0-0.309-0.027-1.518-1.199-1.518
			c-0.886,0-1.253,0.725-1.294,1.518H129.2z"/>
		<path fill="#5E5F5F" d="M136.518,30.491h-1.022v-1.409h1.022v-0.928c0-1.195,0.409-2.162,2.371-2.162c0.136,0,0.518,0,1.09,0.068
			v1.383c-0.204-0.027-0.259-0.041-0.422-0.041c-1.036,0-1.036,0.537-1.036,0.887v0.793h1.281v1.409h-1.281v5.371h-2.003V30.491z"/>
		<path fill="#5E5F5F" d="M143.903,28.92c2.493,0,3.57,1.666,3.57,3.559c0,1.906-1.117,3.625-3.611,3.625
			c-1.962,0-3.516-1.195-3.516-3.571C140.347,30.895,141.191,28.92,143.903,28.92z M143.93,34.721c0.886,0,1.485-0.523,1.485-2.322
			c0-0.9-0.177-2.148-1.512-2.148c-1.472,0-1.485,1.678-1.485,2.295C142.418,34.062,142.936,34.721,143.93,34.721z"/>
		<path fill="#5E5F5F" d="M148.985,30.746c0-0.322-0.055-1.303-0.095-1.691h1.894l0.041,1.303c0.259-0.578,0.708-1.396,2.344-1.316
			v1.785c-2.044-0.188-2.167,0.847-2.167,1.693v3.343h-2.017V30.746z"/>
		<path fill="#5E5F5F" d="M158.102,26.154h2.112v3.881h3.72v-3.881h2.139v9.708h-2.112v-4.257h-3.747v4.257h-2.112V26.154z"/>
		<path fill="#5E5F5F" d="M167.844,26.168h2.153V27.9h-2.153V26.168z M167.912,29.068h2.017v6.794h-2.017V29.068z"/>
		<path fill="#5E5F5F" d="M178.227,29.107c-0.055,0.537-0.095,0.994-0.095,1.68v5.008c0,2.498-2.112,2.74-3.434,2.74
			c-0.981,0-2.902-0.121-3.025-2.176h1.935c0.027,0.201,0.123,0.939,1.199,0.939c0.599,0,1.117-0.281,1.253-0.887
			c0.082-0.335,0.082-0.576,0.095-1.611c-0.64,0.834-1.362,0.928-1.853,0.928c-1.976,0-2.902-1.692-2.902-3.33
			c0-1.719,0.967-3.357,2.943-3.357c1.253,0,1.717,0.672,1.921,0.967l0.068-0.9H178.227z M174.766,34.371
			c1.417,0,1.417-1.637,1.417-1.934c0-0.765-0.15-2.066-1.376-2.066c-0.763,0-1.39,0.576-1.39,2.027
			C173.417,32.734,173.417,34.371,174.766,34.371z"/>
		<path fill="#5E5F5F" d="M180.08,26.168h2.003v3.84c0.231-0.322,0.736-1.021,1.989-1.021c1.022,0,1.676,0.497,2.003,0.913
			c0.246,0.336,0.45,0.953,0.45,1.84v4.122h-2.003v-4.056c0-0.389,0-1.477-1.131-1.477c-0.572,0-1.294,0.322-1.294,1.383
			l0.014,4.149h-2.03V26.168z"/>
		<path fill="#5E5F5F" d="M192.071,26.127h2.112v9.735h-2.112V26.127z"/>
		<path fill="#5E5F5F" d="M195.955,30.289c0-0.025,0-0.765-0.041-1.234h1.935l0.054,1.02c0.191-0.309,0.736-1.182,2.235-1.182
			c1.349,0,1.921,0.807,2.099,1.276c0.149,0.417,0.19,0.765,0.19,2.028v3.665h-2.058v-4.216c0-0.283,0-0.523-0.109-0.738
			c-0.15-0.297-0.463-0.578-0.981-0.578c-0.436,0-0.831,0.201-1.049,0.523c-0.123,0.175-0.245,0.51-0.245,1.034v3.975h-2.03V30.289z
			"/>
		<path fill="#5E5F5F" d="M208.3,35.768c-0.654,0.176-1.24,0.215-1.567,0.215c-2.03,0-2.03-1.262-2.03-1.826v-3.719h-1.322v-1.316
			h1.322v-1.328l2.003-0.727v2.055h1.635v1.316h-1.635v3.062c0.014,0.618,0.014,1.007,0.913,1.007c0.3,0,0.436-0.014,0.681-0.04
			V35.768z"/>
		<path fill="#5E5F5F" d="M210.916,32.975c0,0.443,0,1.813,1.403,1.813c0.504,0,1.008-0.188,1.199-0.94h1.839
			c-0.027,0.322-0.095,0.9-0.654,1.478c-0.504,0.524-1.404,0.792-2.412,0.792c-0.586,0-1.703-0.107-2.425-0.846
			c-0.627-0.645-0.886-1.558-0.886-2.645c0-1.102,0.272-2.418,1.431-3.21c0.532-0.349,1.186-0.563,1.935-0.563
			c0.981,0,2.153,0.375,2.78,1.638c0.463,0.927,0.436,1.921,0.409,2.483H210.916z M213.478,31.727c0-0.309-0.027-1.518-1.199-1.518
			c-0.886,0-1.253,0.725-1.294,1.518H213.478z"/>
		<path fill="#5E5F5F" d="M216.898,30.289c0-0.025,0-0.765-0.041-1.234h1.935l0.054,1.02c0.191-0.309,0.736-1.182,2.235-1.182
			c1.349,0,1.921,0.807,2.099,1.276c0.149,0.417,0.19,0.765,0.19,2.028v3.665h-2.058v-4.216c0-0.283,0-0.523-0.109-0.738
			c-0.15-0.297-0.463-0.578-0.981-0.578c-0.436,0-0.831,0.201-1.049,0.523c-0.123,0.175-0.245,0.51-0.245,1.034v3.975h-2.03V30.289z
			"/>
		<path fill="#5E5F5F" d="M225.128,26.168h2.153V27.9h-2.153V26.168z M225.196,29.068h2.017v6.794h-2.017V29.068z"/>
		<path fill="#5E5F5F" d="M230.387,33.902c0.027,0.43,0.3,0.926,1.145,0.926c0.722,0,1.063-0.402,1.063-0.805
			c0-0.31-0.164-0.551-0.954-0.766l-1.254-0.336c-0.559-0.162-1.744-0.497-1.744-1.881c0-1.314,1.227-2.121,3.012-2.121
			c1.417,0,2.562,0.645,2.616,2.001h-1.84c-0.054-0.752-0.667-0.806-0.981-0.806c-0.545,0-0.954,0.256-0.954,0.672
			c0,0.456,0.341,0.551,0.94,0.711l1.24,0.336c1.253,0.336,1.839,0.967,1.839,1.893c0,1.169-1.022,2.338-3.161,2.338
			c-0.886,0-1.731-0.189-2.357-0.834c-0.45-0.469-0.491-1.006-0.504-1.328H230.387z"/>
		<path fill="#5E5F5F" d="M239.844,35.768c-0.654,0.176-1.24,0.215-1.567,0.215c-2.03,0-2.03-1.262-2.03-1.826v-3.719h-1.322v-1.316
			h1.322v-1.328l2.003-0.727v2.055h1.635v1.316h-1.635v3.062c0.014,0.618,0.014,1.007,0.913,1.007c0.3,0,0.436-0.014,0.681-0.04
			V35.768z"/>
		<path fill="#5E5F5F" d="M242.583,29.082l1.512,4.699l1.54-4.699h2.003l-2.603,6.66l-0.831,2.698h-2.031l0.872-2.552l-2.643-6.807
			H242.583z"/>
	</g>
	<g>
		<path fill="#5E5F5F" d="M116.775,46.189c0,0.457-0.027,1.84,1.785,1.84c1.145,0,1.867-0.537,1.867-1.357
			c0-0.859-0.613-1.006-1.867-1.302c-2.344-0.577-3.625-1.263-3.625-2.94c0-1.598,1.158-3.008,3.897-3.008
			c1.022,0,2.234,0.229,2.97,1.141c0.559,0.699,0.559,1.478,0.559,1.8h-2.03c-0.027-0.335-0.136-1.478-1.594-1.478
			c-0.981,0-1.621,0.523-1.621,1.316c0,0.9,0.722,1.061,2.139,1.41c1.703,0.402,3.379,0.859,3.379,2.752
			c0,1.746-1.472,3.156-4.197,3.156c-3.774,0-3.801-2.391-3.815-3.33H116.775z"/>
		<path fill="#5E5F5F" d="M128.167,49.197c-0.654,0.174-1.24,0.215-1.567,0.215c-2.03,0-2.03-1.262-2.03-1.826v-3.72h-1.322v-1.315
			h1.322v-1.33l2.003-0.725v2.055h1.635v1.315h-1.635v3.062c0.014,0.617,0.014,1.008,0.913,1.008c0.3,0,0.436-0.014,0.681-0.041
			V49.197z"/>
		<path fill="#5E5F5F" d="M133.549,49.291c-0.068-0.416-0.068-0.725-0.068-0.926c-0.763,1.087-1.676,1.087-2.058,1.087
			c-0.995,0-1.444-0.282-1.717-0.537c-0.409-0.403-0.6-0.954-0.6-1.491s0.191-1.529,1.458-2.107
			c0.845-0.376,2.058-0.376,2.725-0.376c0-0.442-0.014-0.657-0.095-0.899c-0.177-0.497-0.708-0.564-0.899-0.564
			c-0.286,0-0.586,0.121-0.763,0.377c-0.15,0.228-0.15,0.442-0.15,0.604h-1.976c0.014-0.363,0.055-1.088,0.777-1.598
			c0.626-0.443,1.431-0.551,2.084-0.551c0.572,0,1.771,0.094,2.453,0.873c0.463,0.551,0.477,1.355,0.477,1.664l0.014,2.727
			c0,0.578,0.041,1.154,0.164,1.719H133.549z M131.069,47.196c0,0.456,0.313,0.967,0.981,0.967c0.368,0,0.667-0.175,0.858-0.39
			c0.354-0.43,0.381-0.953,0.381-1.678C131.996,45.988,131.069,46.391,131.069,47.196z"/>
		<path fill="#5E5F5F" d="M141.044,49.197c-0.654,0.174-1.24,0.215-1.567,0.215c-2.03,0-2.03-1.262-2.03-1.826v-3.72h-1.322v-1.315
			h1.322v-1.33l2.003-0.725v2.055h1.635v1.315h-1.635v3.062c0.014,0.617,0.014,1.008,0.913,1.008c0.3,0,0.436-0.014,0.681-0.041
			V49.197z"/>
		<path fill="#5E5F5F" d="M142.229,39.596h2.153v1.732h-2.153V39.596z M142.297,42.496h2.017v6.795h-2.017V42.496z"/>
		<path fill="#5E5F5F" d="M146.112,43.719c0-0.027,0-0.766-0.041-1.236h1.935l0.054,1.021c0.191-0.309,0.736-1.182,2.235-1.182
			c1.349,0,1.921,0.805,2.098,1.275c0.15,0.416,0.191,0.766,0.191,2.027v3.666h-2.058v-4.217c0-0.281,0-0.523-0.109-0.738
			c-0.15-0.295-0.463-0.577-0.981-0.577c-0.436,0-0.831,0.202-1.049,0.524c-0.123,0.174-0.245,0.51-0.245,1.033v3.975h-2.03V43.719z
			"/>
		<path fill="#5E5F5F" d="M154.342,50.943c0.45-1.344,1.199-3.52,1.199-5.922c0-1.813-0.381-3.143-1.186-5.895h1.485
			c0.777,1.852,1.376,3.813,1.376,5.813c0,2.067-0.627,4.069-1.39,6.003H154.342z"/>
	</g>
	<g>
		<path fill="#231F20" d="M89.117,20.233v-2.21l5.915-2.084l-5.915-2.084v-2.194l8.474,3.229v2.1L89.117,20.233z"/>
		<path fill="#231F20" d="M102.996,9.201h7.521v1.943l-3.816,8.979h-2.655l4.054-9.104h-5.104V9.201z"/>
		<path fill="#231F20" d="M114.092,17.428c-0.016,0.251,0.19,1.223,1.304,1.223c0.858,0,1.638-0.611,1.638-2.053
			c0-1.05-0.414-1.959-1.479-1.959c-1.065,0-1.335,0.846-1.415,1.098l-2.305-0.063l0.254-6.472h6.726v1.786h-4.627l-0.143,2.712
			c0.35-0.299,0.875-0.784,2.099-0.784c1.781,0,3.275,1.285,3.275,3.479c0,1.864-1.113,3.964-3.959,3.964
			c-1.161,0-2.337-0.298-3.101-1.19c-0.556-0.658-0.604-1.332-0.62-1.74H114.092z"/>
		<path fill="#231F20" d="M127.637,8.84l2.369,5.156l2.417-5.156h2.528l-3.88,7.162v4.121h-2.433v-4.152l-3.879-7.131H127.637z"/>
		<path fill="#231F20" d="M136.285,8.793h7.695v1.85h-5.231v2.695h4.897v1.85h-4.897v3.056h5.406v1.88h-7.87V8.793z"/>
		<path fill="#231F20" d="M151.976,8.793l3.991,11.33h-2.48l-0.827-2.444h-4.547l-0.858,2.444H144.9l4.15-11.33H151.976z
			 M152.039,15.846l-1.59-4.826l-1.701,4.826H152.039z"/>
		<path fill="#231F20" d="M157.253,8.793h4.404c1.272-0.016,2.56-0.016,3.482,0.769c0.715,0.61,1.001,1.441,1.001,2.179
			c0,2.115-1.844,2.617-2.401,2.773c1.733,0.156,1.86,1.128,2.067,2.602c0.175,1.332,0.271,1.88,0.35,2.193
			c0.127,0.502,0.223,0.627,0.35,0.814h-2.719c-0.111-0.627-0.461-3.494-0.62-3.934c-0.223-0.642-0.827-0.642-1.24-0.642h-2.162
			v4.575h-2.512V8.793z M159.685,13.746h1.987c0.286,0,0.859,0,1.256-0.314c0.175-0.125,0.636-0.517,0.636-1.316
			c0-0.768-0.381-1.128-0.604-1.27c-0.382-0.266-0.843-0.266-1.622-0.266h-1.653V13.746z"/>
		<path fill="#231F20" d="M169.971,16.504c0,0.533-0.032,2.146,2.083,2.146c1.335,0,2.178-0.627,2.178-1.582
			c0-1.004-0.715-1.176-2.178-1.521c-2.735-0.674-4.229-1.474-4.229-3.433c0-1.864,1.351-3.51,4.547-3.51
			c1.193,0,2.608,0.267,3.466,1.332c0.652,0.814,0.652,1.724,0.652,2.1h-2.369c-0.032-0.392-0.159-1.724-1.86-1.724
			c-1.145,0-1.892,0.611-1.892,1.536c0,1.05,0.842,1.238,2.496,1.645c1.987,0.471,3.943,1.004,3.943,3.213
			c0,2.037-1.717,3.684-4.897,3.684c-4.404,0-4.436-2.79-4.452-3.887H169.971z"/>
	</g>
</g>
</svg>
