<?xml version="1.0" encoding="utf-8"?>
<!-- Generator: Adobe Illustrator 17.0.0, SVG Export Plug-In . SVG Version: 6.00 Build 0)  -->
<!DOCTYPE svg PUBLIC "-//W3C//DTD SVG 1.1//EN" "http://www.w3.org/Graphics/SVG/1.1/DTD/svg11.dtd">
<svg version="1.1" id="Layer_1" xmlns="http://www.w3.org/2000/svg" xmlns:xlink="http://www.w3.org/1999/xlink" x="0px" y="0px"
	 width="236.027px" height="63.349px" viewBox="0 0 236.027 63.349" enable-background="new 0 0 236.027 63.349"
	 xml:space="preserve">
<g>
	<path fill="#808184" d="M236.027,50.567c0,7.062-5.25,12.782-11.708,12.782H11.7c-6.463,0-11.7-5.72-11.7-12.782V13.254
		C0,6.198,5.237,0.473,11.7,0.473h212.619c6.458,0,11.708,5.725,11.708,12.781V50.567z"/>
	<g>
		<defs>
			<path id="SVGID_96_" d="M11.701,0c-6.464,0-11.7,5.715-11.7,12.781v37.31c0,7.065,5.236,12.788,11.7,12.788h212.618
				c6.458,0,11.709-5.723,11.709-12.788v-37.31C236.027,5.715,230.776,0,224.319,0H11.701z"/>
		</defs>
		<clipPath id="SVGID_2_">
			<use xlink:href="#SVGID_96_"  overflow="visible"/>
		</clipPath>
		
			<linearGradient id="SVGID_4_" gradientUnits="userSpaceOnUse" x1="107.0456" y1="264.3994" x2="108.5987" y2="264.3994" gradientTransform="matrix(151.9701 0 0 -149.7646 -16267.7275 39629.1055)">
			<stop  offset="0" style="stop-color:#004E6B"/>
			<stop  offset="0.2792" style="stop-color:#00506E"/>
			<stop  offset="0.5035" style="stop-color:#005778"/>
			<stop  offset="0.7086" style="stop-color:#006289"/>
			<stop  offset="0.9013" style="stop-color:#0072A1"/>
			<stop  offset="1" style="stop-color:#007CB0"/>
		</linearGradient>
		<rect x="0.001" y="0" clip-path="url(#SVGID_2_)" fill="url(#SVGID_4_)" width="236.026" height="62.879"/>
	</g>
	<g>
		<defs>
			<path id="SVGID_99_" d="M11.701,4.743c-4.058,0-7.355,3.606-7.355,8.037v37.31c0,4.437,3.297,8.044,7.355,8.044h212.618
				c4.057,0,7.359-3.606,7.359-8.044v-37.31c0-4.431-3.302-8.037-7.359-8.037H11.701z"/>
		</defs>
		<clipPath id="SVGID_6_">
			<use xlink:href="#SVGID_99_"  overflow="visible"/>
		</clipPath>
		
			<linearGradient id="SVGID_8_" gradientUnits="userSpaceOnUse" x1="105.1869" y1="275.8246" x2="106.74" y2="275.8246" gradientTransform="matrix(0 -34.376 -34.8822 0 9739.3809 3674.0383)">
			<stop  offset="0" style="stop-color:#FFFFFF"/>
			<stop  offset="0.3022" style="stop-color:#F8F8F8"/>
			<stop  offset="0.7564" style="stop-color:#E6E5E3"/>
			<stop  offset="1" style="stop-color:#DAD8D5"/>
		</linearGradient>
		<rect x="4.345" y="4.743" clip-path="url(#SVGID_6_)" fill="url(#SVGID_8_)" width="227.332" height="53.391"/>
	</g>
	<g opacity="0.4">
		<g>
			<defs>
				<rect id="SVGID_102_" x="3.913" y="4.271" width="228.203" height="54.333"/>
			</defs>
			<clipPath id="SVGID_9_">
				<use xlink:href="#SVGID_102_"  overflow="visible"/>
			</clipPath>
			<g clip-path="url(#SVGID_9_)">
				<defs>
					<path id="SVGID_104_" d="M11.699,4.271c-4.293,0-7.787,3.816-7.787,8.511v37.309c0,4.698,3.495,8.513,7.787,8.513H224.32
						c4.252,0,7.72-3.732,7.797-8.36V12.628c-0.076-4.625-3.544-8.357-7.797-8.357H11.699z"/>
				</defs>
				<clipPath id="SVGID_10_">
					<use xlink:href="#SVGID_104_"  overflow="visible"/>
				</clipPath>
				
					<linearGradient id="SVGID_11_" gradientUnits="userSpaceOnUse" x1="113.6153" y1="255.0949" x2="115.1683" y2="255.0949" gradientTransform="matrix(0 34.9844 35.4996 0 -8937.752 -3970.4912)">
					<stop  offset="0" style="stop-color:#00728F"/>
					<stop  offset="0.1558" style="stop-color:#0A7995"/>
					<stop  offset="0.4238" style="stop-color:#268CA6"/>
					<stop  offset="0.6452" style="stop-color:#429FB7"/>
					<stop  offset="0.6995" style="stop-color:#59ABC0"/>
					<stop  offset="0.8133" style="stop-color:#93C8D6"/>
					<stop  offset="0.9761" style="stop-color:#F1F8FA"/>
					<stop  offset="1" style="stop-color:#FFFFFF"/>
				</linearGradient>
				<rect x="3.912" y="4.271" clip-path="url(#SVGID_10_)" fill="url(#SVGID_11_)" width="228.205" height="54.333"/>
			</g>
		</g>
	</g>
	<g>
		<path fill="#231F20" d="M37.354,10.457h2.464v4.528h4.34v-4.528h2.497v11.33h-2.464V16.82h-4.373v4.968h-2.464V10.457z"/>
		<path fill="#231F20" d="M48.72,10.473h2.512v2.021H48.72V10.473z M48.8,13.859h2.353v7.929H48.8V13.859z"/>
		<path fill="#231F20" d="M60.835,13.906c-0.063,0.627-0.111,1.159-0.111,1.959v5.845c0,2.915-2.464,3.196-4.007,3.196
			c-1.145,0-3.386-0.141-3.53-2.539h2.258c0.032,0.236,0.143,1.098,1.399,1.098c0.7,0,1.304-0.329,1.463-1.034
			c0.095-0.392,0.095-0.674,0.111-1.88c-0.748,0.971-1.59,1.08-2.163,1.08c-2.306,0-3.387-1.975-3.387-3.886
			c0-2.006,1.129-3.918,3.435-3.918c1.462,0,2.003,0.784,2.242,1.128l0.08-1.049H60.835z M56.796,20.048
			c1.654,0,1.654-1.912,1.654-2.257c0-0.894-0.175-2.413-1.606-2.413c-0.891,0-1.622,0.674-1.622,2.366
			C55.222,18.136,55.222,20.048,56.796,20.048z"/>
		<path fill="#231F20" d="M62.996,10.473h2.337v4.481c0.27-0.375,0.858-1.19,2.321-1.19c1.192,0,1.956,0.579,2.337,1.065
			c0.286,0.393,0.525,1.113,0.525,2.146v4.812h-2.337v-4.732c0-0.454,0-1.724-1.319-1.724c-0.668,0-1.511,0.376-1.511,1.613
			l0.016,4.843h-2.369V10.473z"/>
		<path fill="#231F20" d="M76.985,10.426h2.464v11.361h-2.464V10.426z"/>
		<path fill="#231F20" d="M81.516,15.285c0-0.031,0-0.894-0.048-1.442h2.258l0.063,1.191c0.223-0.36,0.858-1.38,2.607-1.38
			c1.574,0,2.242,0.941,2.449,1.489c0.175,0.485,0.223,0.894,0.223,2.366v4.278h-2.401v-4.921c0-0.328,0-0.611-0.127-0.861
			c-0.175-0.346-0.541-0.674-1.145-0.674c-0.509,0-0.97,0.234-1.224,0.611c-0.143,0.203-0.286,0.596-0.286,1.206v4.639h-2.369
			V15.285z"/>
		<path fill="#231F20" d="M95.92,21.677c-0.763,0.205-1.447,0.252-1.829,0.252c-2.369,0-2.369-1.474-2.369-2.132v-4.341H90.18
			v-1.535h1.542v-1.552l2.337-0.847v2.398h1.908v1.535H94.06v3.572c0.016,0.722,0.016,1.176,1.065,1.176
			c0.35,0,0.509-0.016,0.795-0.047V21.677z"/>
		<path fill="#231F20" d="M99.274,18.418c0,0.517,0,2.116,1.637,2.116c0.588,0,1.177-0.221,1.399-1.098h2.146
			c-0.032,0.376-0.111,1.05-0.763,1.724c-0.588,0.611-1.638,0.925-2.814,0.925c-0.684,0-1.987-0.125-2.83-0.987
			c-0.731-0.753-1.033-1.817-1.033-3.087c0-1.285,0.318-2.82,1.669-3.746c0.62-0.406,1.383-0.658,2.258-0.658
			c1.145,0,2.512,0.439,3.243,1.912c0.541,1.082,0.509,2.241,0.477,2.899H99.274z M102.263,16.96c0-0.359-0.032-1.77-1.399-1.77
			c-1.034,0-1.463,0.846-1.511,1.77H102.263z"/>
		<path fill="#231F20" d="M106.253,15.285c0-0.031,0-0.894-0.048-1.442h2.258l0.063,1.191c0.223-0.36,0.858-1.38,2.607-1.38
			c1.574,0,2.242,0.941,2.449,1.489c0.175,0.485,0.223,0.894,0.223,2.366v4.278h-2.401v-4.921c0-0.328,0-0.611-0.127-0.861
			c-0.175-0.346-0.541-0.674-1.145-0.674c-0.509,0-0.97,0.234-1.224,0.611c-0.143,0.203-0.286,0.596-0.286,1.206v4.639h-2.369
			V15.285z"/>
		<path fill="#231F20" d="M117.571,19.499c0.032,0.502,0.35,1.082,1.336,1.082c0.843,0,1.24-0.471,1.24-0.941
			c0-0.359-0.191-0.643-1.113-0.893l-1.463-0.393c-0.652-0.188-2.035-0.579-2.035-2.193c0-1.535,1.431-2.476,3.514-2.476
			c1.653,0,2.989,0.752,3.053,2.335h-2.146c-0.063-0.878-0.779-0.94-1.145-0.94c-0.636,0-1.113,0.298-1.113,0.784
			c0,0.532,0.397,0.642,1.097,0.83l1.447,0.392c1.463,0.392,2.146,1.128,2.146,2.21c0,1.363-1.192,2.727-3.689,2.727
			c-1.033,0-2.019-0.22-2.75-0.972c-0.524-0.549-0.572-1.175-0.588-1.552H117.571z"/>
		<path fill="#231F20" d="M123.803,10.473h2.512v2.021h-2.512V10.473z M123.882,13.859h2.353v7.929h-2.353V13.859z"/>
		<path fill="#231F20" d="M133.024,21.677c-0.763,0.205-1.447,0.252-1.829,0.252c-2.369,0-2.369-1.474-2.369-2.132v-4.341h-1.542
			v-1.535h1.542v-1.552l2.337-0.847v2.398h1.908v1.535h-1.908v3.572c0.016,0.722,0.016,1.176,1.065,1.176
			c0.35,0,0.509-0.016,0.795-0.047V21.677z"/>
		<path fill="#231F20" d="M136.219,13.874l1.765,5.484l1.797-5.484h2.337l-3.037,7.771l-0.97,3.15h-2.369l1.018-2.978l-3.084-7.944
			H136.219z"/>
		<path fill="#231F20" d="M149.779,18.167c0,0.533-0.032,2.146,2.083,2.146c1.336,0,2.178-0.627,2.178-1.582
			c0-1.003-0.715-1.176-2.178-1.52c-2.734-0.674-4.229-1.474-4.229-3.433c0-1.864,1.351-3.511,4.547-3.511
			c1.192,0,2.607,0.268,3.466,1.332c0.652,0.815,0.652,1.725,0.652,2.101h-2.369c-0.032-0.392-0.159-1.724-1.86-1.724
			c-1.145,0-1.892,0.611-1.892,1.535c0,1.051,0.842,1.238,2.496,1.646c1.987,0.47,3.943,1.003,3.943,3.213
			c0,2.037-1.717,3.683-4.897,3.683c-4.404,0-4.436-2.789-4.452-3.887H149.779z"/>
		<path fill="#231F20" d="M163.07,21.677c-0.763,0.205-1.447,0.252-1.829,0.252c-2.369,0-2.369-1.474-2.369-2.132v-4.341h-1.542
			v-1.535h1.542v-1.552l2.337-0.847v2.398h1.908v1.535h-1.908v3.572c0.016,0.722,0.016,1.176,1.065,1.176
			c0.35,0,0.509-0.016,0.795-0.047V21.677z"/>
		<path fill="#231F20" d="M169.349,21.787c-0.08-0.485-0.08-0.847-0.08-1.081c-0.89,1.27-1.956,1.27-2.401,1.27
			c-1.161,0-1.685-0.33-2.003-0.627c-0.477-0.471-0.699-1.113-0.699-1.74s0.223-1.786,1.701-2.46
			c0.986-0.438,2.401-0.438,3.18-0.438c0-0.518-0.016-0.768-0.111-1.051c-0.207-0.579-0.827-0.658-1.049-0.658
			c-0.334,0-0.684,0.142-0.89,0.439c-0.175,0.267-0.175,0.518-0.175,0.705h-2.306c0.016-0.423,0.063-1.27,0.906-1.865
			c0.731-0.517,1.669-0.643,2.433-0.643c0.668,0,2.067,0.11,2.862,1.02c0.541,0.643,0.557,1.582,0.557,1.943l0.016,3.181
			c0,0.674,0.047,1.348,0.19,2.006H169.349z M166.455,19.343c0,0.533,0.366,1.128,1.145,1.128c0.429,0,0.779-0.204,1.002-0.454
			c0.413-0.502,0.445-1.113,0.445-1.959C167.536,17.933,166.455,18.403,166.455,19.343z"/>
		<path fill="#231F20" d="M178.092,21.677c-0.763,0.205-1.447,0.252-1.829,0.252c-2.369,0-2.369-1.474-2.369-2.132v-4.341h-1.542
			v-1.535h1.542v-1.552l2.337-0.847v2.398h1.908v1.535h-1.908v3.572c0.016,0.722,0.016,1.176,1.065,1.176
			c0.35,0,0.509-0.016,0.795-0.047V21.677z"/>
		<path fill="#231F20" d="M179.475,10.473h2.512v2.021h-2.512V10.473z M179.554,13.859h2.353v7.929h-2.353V13.859z"/>
		<path fill="#231F20" d="M184.005,15.285c0-0.031,0-0.894-0.048-1.442h2.258l0.063,1.191c0.223-0.36,0.858-1.38,2.607-1.38
			c1.574,0,2.242,0.941,2.449,1.489c0.175,0.485,0.223,0.894,0.223,2.366v4.278h-2.401v-4.921c0-0.328,0-0.611-0.127-0.861
			c-0.175-0.346-0.541-0.674-1.145-0.674c-0.509,0-0.97,0.234-1.224,0.611c-0.143,0.203-0.286,0.596-0.286,1.206v4.639h-2.369
			V15.285z"/>
		<path fill="#231F20" d="M193.719,12.839l2.417,0.346l-1.495-1.865l1.479-0.799l0.89,2.162l0.938-2.21l1.479,0.862l-1.558,1.85
			l2.433-0.283l-0.032,1.662l-2.369-0.361l1.495,1.928l-1.479,0.799l-0.922-2.209l-0.922,2.225l-1.431-0.846l1.479-1.912
			l-2.401,0.313V12.839z"/>
	</g>
	<g>
		<path fill="#5E5F5F" d="M25.624,28.841c-0.45,1.342-1.199,3.518-1.199,5.921c0,1.8,0.381,3.142,1.186,5.896h-1.485
			c-0.777-1.867-1.376-3.814-1.376-5.828c0-2.068,0.627-4.068,1.39-5.988H25.624z"/>
		<path fill="#5E5F5F" d="M26.987,29.296h3.448l2.084,7.064l2.249-7.064h3.352v9.709h-2.099V30.68l-2.684,8.325h-1.744l-2.63-8.325
			v8.325h-1.976V29.296z"/>
		<path fill="#5E5F5F" d="M42.889,32.064c2.493,0,3.57,1.664,3.57,3.558c0,1.907-1.117,3.626-3.611,3.626
			c-1.962,0-3.516-1.195-3.516-3.572C39.332,34.036,40.177,32.064,42.889,32.064z M42.916,37.865c0.886,0,1.485-0.524,1.485-2.324
			c0-0.898-0.177-2.148-1.512-2.148c-1.472,0-1.485,1.68-1.485,2.297C41.403,37.206,41.921,37.865,42.916,37.865z"/>
		<path fill="#5E5F5F" d="M52.25,29.31h2.03v8.594c0,0.403,0.027,0.846,0.054,1.102H52.29l-0.054-0.98
			c-0.136,0.242-0.272,0.497-0.695,0.766c-0.504,0.322-1.035,0.35-1.335,0.35c-1.84,0-2.93-1.25-2.93-3.371
			c0-2.242,1.24-3.639,3.039-3.639c1.24,0,1.758,0.686,1.935,0.926V29.31z M50.71,37.851c0.586,0,1.063-0.35,1.281-0.766
			c0.3-0.564,0.327-1.262,0.327-1.598c0-1.33-0.586-2.055-1.499-2.055c-1.349,0-1.499,1.598-1.499,2.283
			C49.32,36.843,49.701,37.851,50.71,37.851z"/>
		<path fill="#5E5F5F" d="M57.373,36.118c0,0.443,0,1.813,1.403,1.813c0.504,0,1.008-0.188,1.199-0.939h1.839
			c-0.027,0.322-0.095,0.898-0.654,1.477c-0.504,0.523-1.404,0.793-2.412,0.793c-0.586,0-1.703-0.107-2.425-0.847
			c-0.627-0.645-0.886-1.558-0.886-2.646c0-1.102,0.272-2.416,1.431-3.209c0.532-0.35,1.186-0.564,1.935-0.564
			c0.981,0,2.153,0.377,2.78,1.639c0.463,0.926,0.436,1.92,0.409,2.484H57.373z M59.935,34.869c0-0.31-0.027-1.517-1.199-1.517
			c-0.886,0-1.253,0.725-1.294,1.517H59.935z"/>
		<path fill="#5E5F5F" d="M63.055,33.89c0-0.322-0.055-1.303-0.095-1.693h1.894l0.041,1.303c0.259-0.576,0.708-1.396,2.344-1.315
			v1.786c-2.044-0.188-2.167,0.846-2.167,1.691v3.344h-2.017V33.89z"/>
		<path fill="#5E5F5F" d="M71.953,39.005c-0.068-0.416-0.068-0.725-0.068-0.926c-0.763,1.087-1.676,1.087-2.058,1.087
			c-0.995,0-1.444-0.282-1.717-0.537c-0.409-0.403-0.6-0.954-0.6-1.491s0.191-1.529,1.458-2.107
			c0.845-0.376,2.058-0.376,2.725-0.376c0-0.442-0.014-0.657-0.095-0.899c-0.177-0.497-0.708-0.564-0.899-0.564
			c-0.286,0-0.586,0.121-0.763,0.377c-0.15,0.228-0.15,0.442-0.15,0.604H67.81c0.014-0.363,0.055-1.088,0.777-1.598
			c0.626-0.443,1.431-0.551,2.084-0.551c0.572,0,1.771,0.094,2.453,0.873c0.463,0.551,0.477,1.355,0.477,1.664l0.014,2.727
			c0,0.578,0.041,1.154,0.164,1.719H71.953z M69.473,36.91c0,0.456,0.313,0.967,0.981,0.967c0.368,0,0.667-0.175,0.858-0.39
			c0.354-0.43,0.381-0.953,0.381-1.678C70.399,35.702,69.473,36.105,69.473,36.91z"/>
		<path fill="#5E5F5F" d="M79.174,38.911c-0.654,0.174-1.24,0.215-1.567,0.215c-2.03,0-2.03-1.262-2.03-1.826v-3.72h-1.322v-1.315
			h1.322v-1.33l2.003-0.725v2.055h1.635v1.315H77.58v3.062c0.014,0.617,0.014,1.008,0.913,1.008c0.3,0,0.436-0.014,0.681-0.041
			V38.911z"/>
		<path fill="#5E5F5F" d="M81.518,36.118c0,0.443,0,1.813,1.403,1.813c0.504,0,1.008-0.188,1.199-0.939h1.839
			c-0.027,0.322-0.095,0.898-0.654,1.477c-0.504,0.523-1.404,0.793-2.412,0.793c-0.586,0-1.703-0.107-2.425-0.847
			c-0.627-0.645-0.886-1.558-0.886-2.646c0-1.102,0.272-2.416,1.431-3.209c0.532-0.35,1.186-0.564,1.935-0.564
			c0.981,0,2.153,0.377,2.78,1.639c0.463,0.926,0.436,1.92,0.409,2.484H81.518z M84.08,34.869c0-0.31-0.027-1.517-1.199-1.517
			c-0.886,0-1.253,0.725-1.294,1.517H84.08z"/>
		<path fill="#5E5F5F" d="M86.914,34.695h3.379v1.518h-3.379V34.695z"/>
		<path fill="#5E5F5F" d="M91.397,29.31h2.153v1.732h-2.153V29.31z M91.465,32.21h2.017v6.795h-2.017V32.21z"/>
		<path fill="#5E5F5F" d="M95.008,33.433c0-0.027,0-0.766-0.041-1.236h1.935l0.054,1.021c0.191-0.309,0.736-1.182,2.235-1.182
			c1.349,0,1.921,0.805,2.098,1.275c0.15,0.416,0.191,0.766,0.191,2.027v3.666h-2.058v-4.217c0-0.281,0-0.523-0.109-0.738
			c-0.15-0.295-0.463-0.577-0.981-0.577c-0.436,0-0.831,0.202-1.049,0.524c-0.123,0.174-0.245,0.51-0.245,1.033v3.975h-2.03V33.433z
			"/>
		<path fill="#5E5F5F" d="M107.081,38.911c-0.654,0.174-1.24,0.215-1.567,0.215c-2.03,0-2.03-1.262-2.03-1.826v-3.72h-1.322v-1.315
			h1.322v-1.33l2.003-0.725v2.055h1.635v1.315h-1.635v3.062c0.014,0.617,0.014,1.008,0.913,1.008c0.3,0,0.436-0.014,0.681-0.041
			V38.911z"/>
		<path fill="#5E5F5F" d="M109.411,36.118c0,0.443,0,1.813,1.403,1.813c0.504,0,1.008-0.188,1.199-0.939h1.839
			c-0.027,0.322-0.095,0.898-0.654,1.477c-0.504,0.523-1.404,0.793-2.412,0.793c-0.586,0-1.703-0.107-2.425-0.847
			c-0.627-0.645-0.886-1.558-0.886-2.646c0-1.102,0.272-2.416,1.431-3.209c0.532-0.35,1.186-0.564,1.935-0.564
			c0.981,0,2.153,0.377,2.78,1.639c0.463,0.926,0.436,1.92,0.409,2.484H109.411z M111.972,34.869c0-0.31-0.027-1.517-1.199-1.517
			c-0.886,0-1.253,0.725-1.294,1.517H111.972z"/>
		<path fill="#5E5F5F" d="M115.12,33.433c0-0.027,0-0.766-0.041-1.236h1.935l0.054,1.021c0.191-0.309,0.736-1.182,2.235-1.182
			c1.349,0,1.921,0.805,2.099,1.275c0.149,0.416,0.19,0.766,0.19,2.027v3.666h-2.058v-4.217c0-0.281,0-0.523-0.109-0.738
			c-0.15-0.295-0.463-0.577-0.981-0.577c-0.436,0-0.831,0.202-1.049,0.524c-0.123,0.174-0.245,0.51-0.245,1.033v3.975h-2.03V33.433z
			"/>
		<path fill="#5E5F5F" d="M124.549,37.044c0.027,0.43,0.3,0.928,1.145,0.928c0.722,0,1.063-0.404,1.063-0.807
			c0-0.309-0.164-0.551-0.954-0.766l-1.254-0.336c-0.559-0.16-1.744-0.496-1.744-1.879c0-1.316,1.227-2.121,3.012-2.121
			c1.417,0,2.562,0.645,2.616,2h-1.84c-0.054-0.752-0.667-0.806-0.981-0.806c-0.545,0-0.954,0.255-0.954,0.671
			c0,0.457,0.34,0.551,0.94,0.713l1.24,0.335c1.254,0.335,1.84,0.967,1.84,1.894c0,1.168-1.022,2.336-3.161,2.336
			c-0.886,0-1.73-0.188-2.357-0.832c-0.45-0.471-0.491-1.008-0.504-1.33H124.549z"/>
		<path fill="#5E5F5F" d="M129.618,29.31h2.153v1.732h-2.153V29.31z M129.687,32.21h2.017v6.795h-2.017V32.21z"/>
		<path fill="#5E5F5F" d="M137.249,38.911c-0.654,0.174-1.24,0.215-1.567,0.215c-2.03,0-2.03-1.262-2.03-1.826v-3.72h-1.322v-1.315
			h1.322v-1.33l2.003-0.725v2.055h1.635v1.315h-1.635v3.062c0.014,0.617,0.014,1.008,0.913,1.008c0.3,0,0.436-0.014,0.681-0.041
			V38.911z"/>
		<path fill="#5E5F5F" d="M139.715,32.224l1.512,4.699l1.54-4.699h2.003l-2.603,6.66l-0.831,2.699h-2.031l0.872-2.551l-2.643-6.809
			H139.715z"/>
		<path fill="#5E5F5F" d="M150.452,37.044c0.027,0.43,0.3,0.928,1.145,0.928c0.722,0,1.063-0.404,1.063-0.807
			c0-0.309-0.164-0.551-0.954-0.766l-1.254-0.336c-0.559-0.16-1.744-0.496-1.744-1.879c0-1.316,1.227-2.121,3.012-2.121
			c1.417,0,2.562,0.645,2.616,2h-1.84c-0.054-0.752-0.667-0.806-0.981-0.806c-0.545,0-0.954,0.255-0.954,0.671
			c0,0.457,0.341,0.551,0.94,0.713l1.24,0.335c1.253,0.335,1.839,0.967,1.839,1.894c0,1.168-1.022,2.336-3.161,2.336
			c-0.886,0-1.731-0.188-2.357-0.832c-0.45-0.471-0.491-1.008-0.504-1.33H150.452z"/>
		<path fill="#5E5F5F" d="M159.637,38.911c-0.654,0.174-1.24,0.215-1.567,0.215c-2.03,0-2.03-1.262-2.03-1.826v-3.72h-1.322v-1.315
			h1.322v-1.33l2.003-0.725v2.055h1.635v1.315h-1.635v3.062c0.014,0.617,0.014,1.008,0.913,1.008c0.3,0,0.436-0.014,0.681-0.041
			V38.911z"/>
		<path fill="#5E5F5F" d="M164.747,39.005c-0.068-0.416-0.068-0.725-0.068-0.926c-0.763,1.087-1.676,1.087-2.058,1.087
			c-0.995,0-1.444-0.282-1.717-0.537c-0.409-0.403-0.6-0.954-0.6-1.491s0.191-1.529,1.458-2.107
			c0.845-0.376,2.058-0.376,2.725-0.376c0-0.442-0.014-0.657-0.095-0.899c-0.177-0.497-0.708-0.564-0.899-0.564
			c-0.286,0-0.586,0.121-0.763,0.377c-0.15,0.228-0.15,0.442-0.15,0.604h-1.976c0.014-0.363,0.055-1.088,0.777-1.598
			c0.626-0.443,1.431-0.551,2.084-0.551c0.572,0,1.771,0.094,2.453,0.873c0.463,0.551,0.477,1.355,0.477,1.664l0.014,2.727
			c0,0.578,0.041,1.154,0.164,1.719H164.747z M162.267,36.91c0,0.456,0.313,0.967,0.981,0.967c0.368,0,0.667-0.175,0.858-0.39
			c0.354-0.43,0.381-0.953,0.381-1.678C163.193,35.702,162.267,36.105,162.267,36.91z"/>
		<path fill="#5E5F5F" d="M171.968,38.911c-0.654,0.174-1.24,0.215-1.567,0.215c-2.03,0-2.03-1.262-2.03-1.826v-3.72h-1.322v-1.315
			h1.322v-1.33l2.003-0.725v2.055h1.635v1.315h-1.635v3.062c0.014,0.617,0.014,1.008,0.913,1.008c0.3,0,0.436-0.014,0.681-0.041
			V38.911z"/>
		<path fill="#5E5F5F" d="M172.881,29.31h2.153v1.732h-2.153V29.31z M172.949,32.21h2.017v6.795h-2.017V32.21z"/>
		<path fill="#5E5F5F" d="M176.492,33.433c0-0.027,0-0.766-0.041-1.236h1.935l0.054,1.021c0.191-0.309,0.736-1.182,2.235-1.182
			c1.349,0,1.921,0.805,2.099,1.275c0.149,0.416,0.19,0.766,0.19,2.027v3.666h-2.058v-4.217c0-0.281,0-0.523-0.109-0.738
			c-0.15-0.295-0.463-0.577-0.981-0.577c-0.436,0-0.831,0.202-1.049,0.524c-0.123,0.174-0.245,0.51-0.245,1.033v3.975h-2.03V33.433z
			"/>
		<path fill="#5E5F5F" d="M187.965,29.31h2.153v1.732h-2.153V29.31z M188.033,32.21h2.017v6.795h-2.017V32.21z"/>
		<path fill="#5E5F5F" d="M191.685,33.634h-1.022v-1.41h1.022v-0.926c0-1.195,0.409-2.162,2.371-2.162c0.136,0,0.518,0,1.09,0.066
			v1.383c-0.204-0.025-0.259-0.039-0.422-0.039c-1.036,0-1.036,0.537-1.036,0.886v0.792h1.281v1.41h-1.281v5.371h-2.003V33.634z"/>
		<path fill="#5E5F5F" d="M199.357,33.433c0-0.027,0-0.766-0.041-1.236h1.935l0.054,1.021c0.191-0.309,0.736-1.182,2.235-1.182
			c1.349,0,1.921,0.805,2.099,1.275c0.149,0.416,0.19,0.766,0.19,2.027v3.666h-2.058v-4.217c0-0.281,0-0.523-0.109-0.738
			c-0.15-0.295-0.463-0.577-0.981-0.577c-0.436,0-0.831,0.202-1.049,0.524c-0.123,0.174-0.245,0.51-0.245,1.033v3.975h-2.03V33.433z
			"/>
		<path fill="#5E5F5F" d="M210.626,32.064c2.493,0,3.57,1.664,3.57,3.558c0,1.907-1.117,3.626-3.611,3.626
			c-1.962,0-3.516-1.195-3.516-3.572C207.069,34.036,207.914,32.064,210.626,32.064z M210.652,37.865
			c0.886,0,1.485-0.524,1.485-2.324c0-0.898-0.177-2.148-1.512-2.148c-1.472,0-1.485,1.68-1.485,2.297
			C209.14,37.206,209.658,37.865,210.652,37.865z"/>
		<path fill="#5E5F5F" d="M219.482,38.911c-0.654,0.174-1.24,0.215-1.567,0.215c-2.03,0-2.03-1.262-2.03-1.826v-3.72h-1.322v-1.315
			h1.322v-1.33l2.003-0.725v2.055h1.635v1.315h-1.635v3.062c0.014,0.617,0.014,1.008,0.913,1.008c0.3,0,0.436-0.014,0.681-0.041
			V38.911z"/>
	</g>
	<g>
		<path fill="#5E5F5F" d="M19.615,48.056c-0.027-0.242-0.109-1.248-0.886-1.248c-0.954,0-1.063,1.422-1.063,2.161
			c0,0.376,0.041,1.585,0.504,2.081c0.191,0.201,0.395,0.229,0.545,0.229c0.218,0,0.845-0.094,0.927-1.303h1.989
			c-0.027,0.523-0.095,1.344-0.886,2.001c-0.491,0.417-1.104,0.632-1.962,0.632c-0.913,0-1.717-0.202-2.344-0.9
			c-0.6-0.686-0.872-1.584-0.872-2.672c0-3.088,2.303-3.518,3.216-3.518c1.281,0,2.793,0.697,2.807,2.537H19.615z"/>
		<path fill="#5E5F5F" d="M26.646,52.433c-0.068-0.416-0.068-0.725-0.068-0.926c-0.763,1.088-1.676,1.088-2.058,1.088
			c-0.995,0-1.444-0.283-1.717-0.537c-0.409-0.403-0.6-0.953-0.6-1.49s0.191-1.531,1.458-2.109c0.845-0.375,2.058-0.375,2.725-0.375
			c0-0.443-0.014-0.658-0.095-0.9c-0.177-0.496-0.708-0.564-0.899-0.564c-0.286,0-0.586,0.121-0.763,0.377
			c-0.15,0.229-0.15,0.443-0.15,0.604h-1.976c0.014-0.361,0.055-1.088,0.777-1.598c0.626-0.443,1.431-0.551,2.084-0.551
			c0.572,0,1.771,0.094,2.453,0.873c0.463,0.551,0.477,1.356,0.477,1.666l0.014,2.725c0,0.578,0.041,1.155,0.164,1.719H26.646z
			 M24.167,50.339c0,0.456,0.313,0.967,0.981,0.967c0.368,0,0.667-0.176,0.858-0.391c0.354-0.43,0.381-0.953,0.381-1.678
			C25.093,49.13,24.167,49.533,24.167,50.339z"/>
		<path fill="#5E5F5F" d="M29.849,46.861c0-0.027,0-0.766-0.041-1.234h1.935l0.054,1.02c0.191-0.309,0.736-1.182,2.235-1.182
			c1.349,0,1.921,0.807,2.099,1.275c0.149,0.416,0.19,0.766,0.19,2.027v3.666h-2.058v-4.216c0-0.282,0-0.524-0.109-0.739
			c-0.15-0.295-0.463-0.576-0.981-0.576c-0.436,0-0.831,0.201-1.049,0.523c-0.123,0.174-0.245,0.51-0.245,1.033v3.975h-2.03V46.861z
			"/>
		<path fill="#5E5F5F" d="M42.425,42.739h2.03v8.594c0,0.403,0.027,0.847,0.054,1.101h-2.044l-0.054-0.98
			c-0.136,0.242-0.272,0.498-0.695,0.766c-0.504,0.322-1.035,0.35-1.335,0.35c-1.84,0-2.93-1.248-2.93-3.371
			c0-2.242,1.24-3.639,3.039-3.639c1.24,0,1.758,0.686,1.935,0.928V42.739z M40.885,51.279c0.586,0,1.063-0.35,1.281-0.766
			c0.3-0.564,0.327-1.262,0.327-1.598c0-1.33-0.586-2.055-1.499-2.055c-1.349,0-1.499,1.598-1.499,2.283
			C39.496,50.271,39.877,51.279,40.885,51.279z"/>
		<path fill="#5E5F5F" d="M45.859,42.739h2.153v1.731h-2.153V42.739z M45.927,45.639h2.017v6.794h-2.017V45.639z"/>
		<path fill="#5E5F5F" d="M53.994,42.739h2.03v8.594c0,0.403,0.027,0.847,0.054,1.101h-2.044l-0.054-0.98
			c-0.136,0.242-0.272,0.498-0.695,0.766c-0.504,0.322-1.035,0.35-1.335,0.35c-1.84,0-2.93-1.248-2.93-3.371
			c0-2.242,1.24-3.639,3.039-3.639c1.24,0,1.758,0.686,1.935,0.928V42.739z M52.454,51.279c0.586,0,1.063-0.35,1.281-0.766
			c0.3-0.564,0.327-1.262,0.327-1.598c0-1.33-0.586-2.055-1.499-2.055c-1.349,0-1.499,1.598-1.499,2.283
			C51.065,50.271,51.446,51.279,52.454,51.279z"/>
		<path fill="#5E5F5F" d="M61.625,52.433c-0.068-0.416-0.068-0.725-0.068-0.926c-0.763,1.088-1.676,1.088-2.058,1.088
			c-0.995,0-1.444-0.283-1.717-0.537c-0.409-0.403-0.6-0.953-0.6-1.49s0.191-1.531,1.458-2.109c0.845-0.375,2.058-0.375,2.725-0.375
			c0-0.443-0.014-0.658-0.095-0.9c-0.177-0.496-0.708-0.564-0.899-0.564c-0.286,0-0.586,0.121-0.763,0.377
			c-0.15,0.229-0.15,0.443-0.15,0.604h-1.976c0.014-0.361,0.055-1.088,0.777-1.598c0.626-0.443,1.431-0.551,2.084-0.551
			c0.572,0,1.771,0.094,2.453,0.873c0.463,0.551,0.477,1.356,0.477,1.666l0.014,2.725c0,0.578,0.041,1.155,0.164,1.719H61.625z
			 M59.145,50.339c0,0.456,0.313,0.967,0.981,0.967c0.368,0,0.667-0.176,0.858-0.391c0.354-0.43,0.381-0.953,0.381-1.678
			C60.071,49.13,59.145,49.533,59.145,50.339z"/>
		<path fill="#5E5F5F" d="M68.846,52.339c-0.654,0.175-1.24,0.215-1.567,0.215c-2.03,0-2.03-1.262-2.03-1.826v-3.719h-1.322v-1.316
			h1.322v-1.33l2.003-0.725v2.055h1.635v1.316h-1.635v3.061c0.014,0.618,0.014,1.008,0.913,1.008c0.3,0,0.436-0.014,0.681-0.041
			V52.339z"/>
		<path fill="#5E5F5F" d="M71.19,49.546c0,0.443,0,1.813,1.403,1.813c0.504,0,1.008-0.188,1.199-0.939h1.839
			c-0.027,0.322-0.095,0.9-0.654,1.477c-0.504,0.523-1.404,0.793-2.412,0.793c-0.586,0-1.703-0.107-2.425-0.846
			c-0.627-0.645-0.886-1.559-0.886-2.646c0-1.1,0.272-2.416,1.431-3.209c0.532-0.349,1.186-0.563,1.935-0.563
			c0.981,0,2.153,0.376,2.78,1.638c0.463,0.928,0.436,1.92,0.409,2.484H71.19z M73.752,48.298c0-0.309-0.027-1.518-1.199-1.518
			c-0.886,0-1.253,0.725-1.294,1.518H73.752z"/>
		<path fill="#5E5F5F" d="M80.524,47.062h-1.022v-1.41h1.022v-0.926c0-1.195,0.409-2.162,2.371-2.162c0.136,0,0.518,0,1.09,0.067
			v1.384c-0.204-0.027-0.259-0.041-0.422-0.041c-1.036,0-1.036,0.537-1.036,0.887v0.791h1.281v1.41h-1.281v5.371h-2.003V47.062z"/>
		<path fill="#5E5F5F" d="M87.623,45.492c2.493,0,3.57,1.664,3.57,3.559c0,1.906-1.117,3.625-3.611,3.625
			c-1.962,0-3.516-1.195-3.516-3.572C84.067,47.465,84.911,45.492,87.623,45.492z M87.65,51.292c0.886,0,1.485-0.523,1.485-2.323
			c0-0.899-0.177-2.148-1.512-2.148c-1.472,0-1.485,1.679-1.485,2.296C86.138,50.634,86.655,51.292,87.65,51.292z"/>
		<path fill="#5E5F5F" d="M92.433,47.318c0-0.322-0.055-1.303-0.095-1.691h1.894l0.041,1.302c0.259-0.577,0.708-1.396,2.344-1.315
			v1.785c-2.044-0.188-2.167,0.846-2.167,1.691v3.344h-2.017V47.318z"/>
		<path fill="#5E5F5F" d="M101.031,42.739h2.003v3.841c0.231-0.322,0.736-1.021,1.989-1.021c1.022,0,1.676,0.498,2.003,0.914
			c0.246,0.336,0.45,0.953,0.45,1.84v4.121h-2.003v-4.055c0-0.389,0-1.477-1.131-1.477c-0.572,0-1.294,0.322-1.294,1.383
			l0.014,4.148h-2.03V42.739z"/>
		<path fill="#5E5F5F" d="M108.961,42.739h2.153v1.731h-2.153V42.739z M109.029,45.639h2.017v6.794h-2.017V45.639z"/>
		<path fill="#5E5F5F" d="M119.072,45.679c-0.055,0.537-0.095,0.994-0.095,1.679v5.009c0,2.498-2.112,2.738-3.434,2.738
			c-0.981,0-2.902-0.12-3.025-2.174h1.935c0.027,0.201,0.123,0.939,1.199,0.939c0.599,0,1.117-0.282,1.253-0.887
			c0.082-0.336,0.082-0.577,0.095-1.611c-0.64,0.832-1.362,0.927-1.853,0.927c-1.976,0-2.902-1.692-2.902-3.33
			c0-1.719,0.967-3.356,2.943-3.356c1.253,0,1.717,0.671,1.921,0.967l0.068-0.9H119.072z M115.611,50.943
			c1.417,0,1.417-1.639,1.417-1.934c0-0.766-0.15-2.068-1.376-2.068c-0.763,0-1.39,0.578-1.39,2.028
			C114.262,49.304,114.262,50.943,115.611,50.943z"/>
		<path fill="#5E5F5F" d="M120.653,42.739h2.003v3.841c0.231-0.322,0.736-1.021,1.989-1.021c1.022,0,1.676,0.498,2.003,0.914
			c0.246,0.336,0.45,0.953,0.45,1.84v4.121h-2.003v-4.055c0-0.389,0-1.477-1.131-1.477c-0.572,0-1.294,0.322-1.294,1.383
			l0.014,4.148h-2.03V42.739z"/>
		<path fill="#5E5F5F" d="M128.365,48.122h3.379v1.518h-3.379V48.122z"/>
		<path fill="#5E5F5F" d="M132.848,42.739h2.153v1.731h-2.153V42.739z M132.916,45.639h2.017v6.794h-2.017V45.639z"/>
		<path fill="#5E5F5F" d="M136.459,46.861c0-0.027,0-0.766-0.041-1.234h1.935l0.054,1.02c0.191-0.309,0.736-1.182,2.235-1.182
			c1.349,0,1.921,0.807,2.099,1.275c0.149,0.416,0.19,0.766,0.19,2.027v3.666h-2.058v-4.216c0-0.282,0-0.524-0.109-0.739
			c-0.15-0.295-0.463-0.576-0.981-0.576c-0.436,0-0.831,0.201-1.049,0.523c-0.123,0.174-0.245,0.51-0.245,1.033v3.975h-2.03V46.861z
			"/>
		<path fill="#5E5F5F" d="M148.531,52.339c-0.654,0.175-1.24,0.215-1.567,0.215c-2.03,0-2.03-1.262-2.03-1.826v-3.719h-1.322v-1.316
			h1.322v-1.33l2.003-0.725v2.055h1.635v1.316h-1.635v3.061c0.014,0.618,0.014,1.008,0.913,1.008c0.3,0,0.436-0.014,0.681-0.041
			V52.339z"/>
		<path fill="#5E5F5F" d="M150.875,49.546c0,0.443,0,1.813,1.403,1.813c0.504,0,1.008-0.188,1.199-0.939h1.839
			c-0.027,0.322-0.095,0.9-0.654,1.477c-0.504,0.523-1.404,0.793-2.412,0.793c-0.586,0-1.703-0.107-2.425-0.846
			c-0.627-0.645-0.886-1.559-0.886-2.646c0-1.1,0.272-2.416,1.431-3.209c0.532-0.349,1.186-0.563,1.935-0.563
			c0.981,0,2.153,0.376,2.78,1.638c0.463,0.928,0.436,1.92,0.409,2.484H150.875z M153.437,48.298c0-0.309-0.027-1.518-1.199-1.518
			c-0.886,0-1.253,0.725-1.294,1.518H153.437z"/>
		<path fill="#5E5F5F" d="M156.585,46.861c0-0.027,0-0.766-0.041-1.234h1.935l0.054,1.02c0.191-0.309,0.736-1.182,2.235-1.182
			c1.349,0,1.921,0.807,2.098,1.275c0.15,0.416,0.191,0.766,0.191,2.027v3.666h-2.058v-4.216c0-0.282,0-0.524-0.109-0.739
			c-0.15-0.295-0.463-0.576-0.981-0.576c-0.436,0-0.831,0.201-1.049,0.523c-0.123,0.174-0.245,0.51-0.245,1.033v3.975h-2.03V46.861z
			"/>
		<path fill="#5E5F5F" d="M166.013,50.473c0.027,0.43,0.3,0.927,1.145,0.927c0.722,0,1.063-0.402,1.063-0.807
			c0-0.309-0.164-0.55-0.954-0.765l-1.254-0.335c-0.559-0.162-1.744-0.498-1.744-1.881c0-1.316,1.227-2.121,3.012-2.121
			c1.417,0,2.562,0.645,2.616,2h-1.84c-0.054-0.752-0.667-0.805-0.981-0.805c-0.545,0-0.954,0.254-0.954,0.671
			c0,0.456,0.34,0.55,0.94,0.712l1.24,0.336c1.254,0.336,1.84,0.967,1.84,1.893c0,1.168-1.022,2.336-3.161,2.336
			c-0.886,0-1.73-0.188-2.357-0.832c-0.45-0.47-0.491-1.007-0.504-1.329H166.013z"/>
		<path fill="#5E5F5F" d="M171.082,42.739h2.153v1.731h-2.153V42.739z M171.15,45.639h2.017v6.794h-2.017V45.639z"/>
		<path fill="#5E5F5F" d="M178.713,52.339c-0.654,0.175-1.24,0.215-1.567,0.215c-2.03,0-2.03-1.262-2.03-1.826v-3.719h-1.322v-1.316
			h1.322v-1.33l2.003-0.725v2.055h1.635v1.316h-1.635v3.061c0.014,0.618,0.014,1.008,0.913,1.008c0.3,0,0.436-0.014,0.681-0.041
			V52.339z"/>
		<path fill="#5E5F5F" d="M181.18,45.652l1.512,4.701l1.54-4.701h2.003l-2.603,6.66l-0.831,2.699h-2.03l0.872-2.551L179,45.652
			H181.18z"/>
		<path fill="#5E5F5F" d="M191.917,50.473c0.027,0.43,0.3,0.927,1.145,0.927c0.722,0,1.063-0.402,1.063-0.807
			c0-0.309-0.164-0.55-0.954-0.765l-1.254-0.335c-0.559-0.162-1.744-0.498-1.744-1.881c0-1.316,1.227-2.121,3.012-2.121
			c1.417,0,2.562,0.645,2.616,2h-1.84c-0.054-0.752-0.667-0.805-0.981-0.805c-0.545,0-0.954,0.254-0.954,0.671
			c0,0.456,0.34,0.55,0.94,0.712l1.24,0.336c1.254,0.336,1.84,0.967,1.84,1.893c0,1.168-1.022,2.336-3.161,2.336
			c-0.886,0-1.73-0.188-2.357-0.832c-0.45-0.47-0.491-1.007-0.504-1.329H191.917z"/>
		<path fill="#5E5F5F" d="M201.101,52.339c-0.654,0.175-1.24,0.215-1.567,0.215c-2.03,0-2.03-1.262-2.03-1.826v-3.719h-1.322v-1.316
			h1.322v-1.33l2.003-0.725v2.055h1.635v1.316h-1.635v3.061c0.014,0.618,0.014,1.008,0.913,1.008c0.3,0,0.436-0.014,0.681-0.041
			V52.339z"/>
		<path fill="#5E5F5F" d="M206.211,52.433c-0.068-0.416-0.068-0.725-0.068-0.926c-0.763,1.088-1.676,1.088-2.058,1.088
			c-0.995,0-1.444-0.283-1.717-0.537c-0.409-0.403-0.6-0.953-0.6-1.49s0.191-1.531,1.458-2.109c0.845-0.375,2.058-0.375,2.725-0.375
			c0-0.443-0.014-0.658-0.095-0.9c-0.177-0.496-0.708-0.564-0.899-0.564c-0.286,0-0.586,0.121-0.763,0.377
			c-0.15,0.229-0.15,0.443-0.15,0.604h-1.976c0.014-0.361,0.055-1.088,0.777-1.598c0.626-0.443,1.431-0.551,2.084-0.551
			c0.572,0,1.771,0.094,2.453,0.873c0.463,0.551,0.477,1.356,0.477,1.666l0.014,2.725c0,0.578,0.041,1.155,0.164,1.719H206.211z
			 M203.731,50.339c0,0.456,0.313,0.967,0.981,0.967c0.368,0,0.667-0.176,0.858-0.391c0.354-0.43,0.381-0.953,0.381-1.678
			C204.657,49.13,203.731,49.533,203.731,50.339z"/>
		<path fill="#5E5F5F" d="M213.432,52.339c-0.654,0.175-1.24,0.215-1.567,0.215c-2.03,0-2.03-1.262-2.03-1.826v-3.719h-1.322v-1.316
			h1.322v-1.33l2.003-0.725v2.055h1.635v1.316h-1.635v3.061c0.014,0.618,0.014,1.008,0.913,1.008c0.3,0,0.436-0.014,0.681-0.041
			V52.339z"/>
		<path fill="#5E5F5F" d="M214.345,42.739h2.153v1.731h-2.153V42.739z M214.414,45.639h2.017v6.794h-2.017V45.639z"/>
		<path fill="#5E5F5F" d="M217.957,46.861c0-0.027,0-0.766-0.041-1.234h1.935l0.054,1.02c0.191-0.309,0.736-1.182,2.235-1.182
			c1.349,0,1.921,0.807,2.098,1.275c0.15,0.416,0.191,0.766,0.191,2.027v3.666h-2.058v-4.216c0-0.282,0-0.524-0.109-0.739
			c-0.15-0.295-0.463-0.576-0.981-0.576c-0.436,0-0.831,0.201-1.049,0.523c-0.123,0.174-0.245,0.51-0.245,1.033v3.975h-2.03V46.861z
			"/>
		<path fill="#5E5F5F" d="M225.914,54.085c0.45-1.344,1.199-3.518,1.199-5.922c0-1.813-0.381-3.143-1.186-5.895h1.485
			c0.777,1.854,1.376,3.813,1.376,5.814c0,2.067-0.627,4.068-1.39,6.002H225.914z"/>
	</g>
</g>
</svg>
