<?xml version="1.0" encoding="utf-8"?>
<!-- Generator: Adobe Illustrator 17.0.0, SVG Export Plug-In . SVG Version: 6.00 Build 0)  -->
<!DOCTYPE svg PUBLIC "-//W3C//DTD SVG 1.1//EN" "http://www.w3.org/Graphics/SVG/1.1/DTD/svg11.dtd">
<svg version="1.1" id="Layer_1" xmlns="http://www.w3.org/2000/svg" xmlns:xlink="http://www.w3.org/1999/xlink" x="0px" y="0px"
	 width="236.033px" height="63.349px" viewBox="0 0 236.033 63.349" enable-background="new 0 0 236.033 63.349"
	 xml:space="preserve">
<g>
	<path fill="#808184" d="M236.033,50.567c0,7.062-5.251,12.782-11.71,12.782H11.703c-6.461,0-11.702-5.72-11.702-12.782V13.254
		c0-7.056,5.24-12.781,11.702-12.781h212.621c6.458,0,11.71,5.725,11.71,12.781V50.567z"/>
	<g>
		<defs>
			<path id="SVGID_107_" d="M11.703,0C5.239,0,0,5.715,0,12.781v37.31c0,7.065,5.239,12.788,11.703,12.788h212.621
				c6.458,0,11.709-5.723,11.709-12.788v-37.31C236.033,5.715,230.782,0,224.324,0H11.703z"/>
		</defs>
		<clipPath id="SVGID_2_">
			<use xlink:href="#SVGID_107_"  overflow="visible"/>
		</clipPath>
		
			<linearGradient id="SVGID_4_" gradientUnits="userSpaceOnUse" x1="-249.6516" y1="259.7173" x2="-248.0985" y2="259.7173" gradientTransform="matrix(151.9731 0 0 -149.7676 37940.3359 38928.6719)">
			<stop  offset="0" style="stop-color:#004E6B"/>
			<stop  offset="0.2792" style="stop-color:#00506E"/>
			<stop  offset="0.5035" style="stop-color:#005778"/>
			<stop  offset="0.7086" style="stop-color:#006289"/>
			<stop  offset="0.9013" style="stop-color:#0072A1"/>
			<stop  offset="1" style="stop-color:#007CB0"/>
		</linearGradient>
		<rect x="0" y="0" clip-path="url(#SVGID_2_)" fill="url(#SVGID_4_)" width="236.033" height="62.879"/>
	</g>
	<g>
		<defs>
			<path id="SVGID_110_" d="M11.703,4.743c-4.058,0-7.354,3.606-7.354,8.037v37.31c0,4.437,3.296,8.044,7.354,8.044h212.621
				c4.055,0,7.357-3.606,7.357-8.044v-37.31c0-4.431-3.302-8.037-7.357-8.037H11.703z"/>
		</defs>
		<clipPath id="SVGID_6_">
			<use xlink:href="#SVGID_110_"  overflow="visible"/>
		</clipPath>
		
			<linearGradient id="SVGID_8_" gradientUnits="userSpaceOnUse" x1="-252.9022" y1="265.6977" x2="-251.3491" y2="265.6977" gradientTransform="matrix(0 -34.376 -34.8822 0 9386.1348 -8635.6318)">
			<stop  offset="0" style="stop-color:#FFFFFF"/>
			<stop  offset="0.3022" style="stop-color:#F8F8F8"/>
			<stop  offset="0.7564" style="stop-color:#E6E5E3"/>
			<stop  offset="1" style="stop-color:#DAD8D5"/>
		</linearGradient>
		<rect x="4.349" y="4.743" clip-path="url(#SVGID_6_)" fill="url(#SVGID_8_)" width="227.332" height="53.391"/>
	</g>
	<g opacity="0.4">
		<g>
			<defs>
				<rect id="SVGID_113_" x="3.917" y="4.271" width="228.205" height="54.333"/>
			</defs>
			<clipPath id="SVGID_9_">
				<use xlink:href="#SVGID_113_"  overflow="visible"/>
			</clipPath>
			<g clip-path="url(#SVGID_9_)">
				<defs>
					<path id="SVGID_115_" d="M11.703,4.271c-4.293,0-7.786,3.816-7.786,8.511v37.309c0,4.698,3.493,8.513,7.786,8.513h212.621
						c4.297,0,7.798-3.814,7.798-8.513V12.782c0-4.695-3.501-8.511-7.798-8.511H11.703z"/>
				</defs>
				<clipPath id="SVGID_10_">
					<use xlink:href="#SVGID_115_"  overflow="visible"/>
				</clipPath>
				
					<linearGradient id="SVGID_11_" gradientUnits="userSpaceOnUse" x1="-244.2058" y1="255.8324" x2="-242.6527" y2="255.8324" gradientTransform="matrix(0 34.9844 35.4996 0 -8963.9277 8547.6641)">
					<stop  offset="0" style="stop-color:#00728F"/>
					<stop  offset="0.1558" style="stop-color:#0A7995"/>
					<stop  offset="0.4238" style="stop-color:#268CA6"/>
					<stop  offset="0.6452" style="stop-color:#429FB7"/>
					<stop  offset="0.6995" style="stop-color:#59ABC0"/>
					<stop  offset="0.8133" style="stop-color:#93C8D6"/>
					<stop  offset="0.9761" style="stop-color:#F1F8FA"/>
					<stop  offset="1" style="stop-color:#FFFFFF"/>
				</linearGradient>
				<rect x="3.917" y="4.271" clip-path="url(#SVGID_10_)" fill="url(#SVGID_11_)" width="228.205" height="54.333"/>
			</g>
		</g>
	</g>
	<g>
		<path fill="#231F20" d="M12.953,23.835h4.022l2.433,8.244l2.624-8.244h3.911v11.33h-2.448v-9.715l-3.132,9.715h-2.035
			l-3.069-9.715v9.715h-2.305V23.835z"/>
		<path fill="#231F20" d="M31.823,27.064c2.91,0,4.166,1.943,4.166,4.152c0,2.227-1.304,4.232-4.213,4.232
			c-2.29,0-4.102-1.396-4.102-4.169C27.673,29.368,28.659,27.064,31.823,27.064z M31.855,33.833c1.033,0,1.733-0.611,1.733-2.711
			c0-1.049-0.207-2.507-1.765-2.507c-1.717,0-1.733,1.959-1.733,2.68C30.09,33.066,30.694,33.833,31.855,33.833z"/>
		<path fill="#231F20" d="M43.063,23.851h2.369V33.88c0,0.471,0.032,0.988,0.063,1.285H43.11l-0.063-1.144
			c-0.159,0.282-0.318,0.58-0.811,0.894c-0.588,0.376-1.208,0.407-1.558,0.407c-2.146,0-3.418-1.458-3.418-3.934
			c0-2.616,1.447-4.247,3.546-4.247c1.447,0,2.051,0.8,2.257,1.082V23.851z M41.266,33.818c0.684,0,1.24-0.406,1.495-0.893
			c0.35-0.658,0.381-1.473,0.381-1.865c0-1.551-0.684-2.397-1.749-2.397c-1.574,0-1.749,1.864-1.749,2.664
			C39.645,32.643,40.089,33.818,41.266,33.818z"/>
		<path fill="#231F20" d="M49.357,31.796c0,0.518,0,2.115,1.637,2.115c0.588,0,1.177-0.219,1.399-1.096h2.146
			c-0.032,0.375-0.111,1.049-0.763,1.723c-0.588,0.611-1.638,0.926-2.814,0.926c-0.684,0-1.987-0.126-2.83-0.988
			c-0.731-0.752-1.033-1.817-1.033-3.087c0-1.284,0.318-2.82,1.669-3.745c0.62-0.407,1.383-0.658,2.258-0.658
			c1.145,0,2.512,0.439,3.243,1.912c0.541,1.081,0.509,2.24,0.477,2.898H49.357z M52.346,30.339c0-0.36-0.032-1.771-1.399-1.771
			c-1.034,0-1.463,0.847-1.511,1.771H52.346z"/>
		<path fill="#231F20" d="M56.304,29.195c0-0.375-0.064-1.52-0.111-1.975h2.21l0.047,1.521c0.302-0.674,0.827-1.631,2.735-1.537
			v2.085c-2.385-0.22-2.528,0.987-2.528,1.975v3.901h-2.353V29.195z"/>
		<path fill="#231F20" d="M67.306,35.165c-0.08-0.485-0.08-0.846-0.08-1.08c-0.89,1.269-1.956,1.269-2.401,1.269
			c-1.161,0-1.685-0.329-2.003-0.627c-0.477-0.47-0.699-1.112-0.699-1.739s0.222-1.787,1.701-2.461
			c0.986-0.438,2.401-0.438,3.18-0.438c0-0.518-0.016-0.769-0.111-1.051c-0.207-0.58-0.827-0.658-1.049-0.658
			c-0.334,0-0.684,0.141-0.89,0.439c-0.175,0.266-0.175,0.517-0.175,0.705h-2.306c0.016-0.424,0.063-1.27,0.906-1.865
			c0.731-0.518,1.669-0.643,2.433-0.643c0.668,0,2.067,0.109,2.862,1.019c0.541,0.643,0.557,1.583,0.557,1.943l0.016,3.181
			c0,0.674,0.047,1.348,0.19,2.006H67.306z M64.412,32.721c0,0.533,0.366,1.128,1.145,1.128c0.429,0,0.779-0.203,1.002-0.454
			c0.413-0.501,0.445-1.112,0.445-1.958C65.493,31.311,64.412,31.781,64.412,32.721z"/>
		<path fill="#231F20" d="M76.049,35.056c-0.763,0.204-1.447,0.251-1.829,0.251c-2.369,0-2.369-1.474-2.369-2.132v-4.34H70.31
			v-1.536h1.542v-1.552l2.337-0.846v2.397h1.908v1.536h-1.908v3.572c0.016,0.721,0.016,1.176,1.065,1.176
			c0.35,0,0.509-0.016,0.795-0.047V35.056z"/>
		<path fill="#231F20" d="M79.403,31.796c0,0.518,0,2.115,1.637,2.115c0.588,0,1.177-0.219,1.399-1.096h2.146
			c-0.032,0.375-0.111,1.049-0.763,1.723c-0.588,0.611-1.638,0.926-2.814,0.926c-0.684,0-1.987-0.126-2.83-0.988
			c-0.731-0.752-1.033-1.817-1.033-3.087c0-1.284,0.318-2.82,1.669-3.745c0.62-0.407,1.383-0.658,2.258-0.658
			c1.145,0,2.512,0.439,3.243,1.912c0.541,1.081,0.509,2.24,0.477,2.898H79.403z M82.392,30.339c0-0.36-0.032-1.771-1.399-1.771
			c-1.034,0-1.463,0.847-1.511,1.771H82.392z"/>
		<path fill="#231F20" d="M90.69,23.804h2.464v11.361H90.69V23.804z"/>
		<path fill="#231F20" d="M95.221,28.662c0-0.031,0-0.894-0.048-1.442h2.258l0.063,1.191c0.223-0.36,0.858-1.379,2.607-1.379
			c1.574,0,2.242,0.94,2.449,1.488c0.175,0.486,0.223,0.895,0.223,2.367v4.277h-2.401v-4.92c0-0.329,0-0.611-0.127-0.862
			c-0.175-0.345-0.541-0.674-1.145-0.674c-0.509,0-0.97,0.235-1.224,0.611c-0.143,0.204-0.286,0.596-0.286,1.206v4.639h-2.369
			V28.662z"/>
		<path fill="#231F20" d="M109.624,35.056c-0.763,0.204-1.447,0.251-1.829,0.251c-2.369,0-2.369-1.474-2.369-2.132v-4.34h-1.542
			v-1.536h1.542v-1.552l2.337-0.846v2.397h1.908v1.536h-1.908v3.572c0.016,0.721,0.016,1.176,1.065,1.176
			c0.35,0,0.509-0.016,0.795-0.047V35.056z"/>
		<path fill="#231F20" d="M112.978,31.796c0,0.518,0,2.115,1.638,2.115c0.588,0,1.177-0.219,1.399-1.096h2.146
			c-0.032,0.375-0.111,1.049-0.763,1.723c-0.588,0.611-1.638,0.926-2.814,0.926c-0.684,0-1.987-0.126-2.83-0.988
			c-0.731-0.752-1.033-1.817-1.033-3.087c0-1.284,0.318-2.82,1.669-3.745c0.62-0.407,1.383-0.658,2.258-0.658
			c1.145,0,2.512,0.439,3.243,1.912c0.541,1.081,0.509,2.24,0.477,2.898H112.978z M115.967,30.339c0-0.36-0.032-1.771-1.399-1.771
			c-1.034,0-1.463,0.847-1.511,1.771H115.967z"/>
		<path fill="#231F20" d="M119.957,28.662c0-0.031,0-0.894-0.048-1.442h2.258l0.063,1.191c0.223-0.36,0.859-1.379,2.607-1.379
			c1.574,0,2.242,0.94,2.449,1.488c0.175,0.486,0.223,0.895,0.223,2.367v4.277h-2.401v-4.92c0-0.329,0-0.611-0.127-0.862
			c-0.175-0.345-0.541-0.674-1.145-0.674c-0.509,0-0.97,0.235-1.224,0.611c-0.143,0.204-0.287,0.596-0.287,1.206v4.639h-2.369
			V28.662z"/>
		<path fill="#231F20" d="M131.275,32.878c0.032,0.501,0.35,1.081,1.336,1.081c0.843,0,1.24-0.47,1.24-0.94
			c0-0.36-0.191-0.643-1.113-0.893l-1.463-0.393c-0.652-0.188-2.035-0.58-2.035-2.193c0-1.536,1.431-2.477,3.514-2.477
			c1.653,0,2.989,0.752,3.053,2.336h-2.146c-0.063-0.879-0.779-0.941-1.145-0.941c-0.636,0-1.113,0.299-1.113,0.784
			c0,0.532,0.397,0.642,1.097,0.831l1.447,0.391c1.463,0.393,2.146,1.129,2.146,2.21c0,1.363-1.192,2.727-3.689,2.727
			c-1.033,0-2.019-0.22-2.75-0.972c-0.524-0.549-0.572-1.175-0.588-1.551H131.275z"/>
		<path fill="#231F20" d="M137.507,23.851h2.512v2.021h-2.512V23.851z M137.587,27.237h2.353v7.929h-2.353V27.237z"/>
		<path fill="#231F20" d="M146.729,35.056c-0.763,0.204-1.447,0.251-1.829,0.251c-2.369,0-2.369-1.474-2.369-2.132v-4.34h-1.542
			v-1.536h1.542v-1.552l2.337-0.846v2.397h1.908v1.536h-1.908v3.572c0.016,0.721,0.016,1.176,1.065,1.176
			c0.35,0,0.509-0.016,0.795-0.047V35.056z"/>
		<path fill="#231F20" d="M149.923,27.252l1.765,5.484l1.797-5.484h2.337l-3.037,7.772l-0.97,3.15h-2.369l1.018-2.979l-3.084-7.944
			H149.923z"/>
		<path fill="#231F20" d="M163.483,31.546c0,0.533-0.032,2.146,2.083,2.146c1.335,0,2.178-0.627,2.178-1.582
			c0-1.004-0.715-1.176-2.178-1.521c-2.735-0.674-4.229-1.474-4.229-3.433c0-1.864,1.351-3.51,4.547-3.51
			c1.193,0,2.608,0.267,3.466,1.332c0.652,0.814,0.652,1.724,0.652,2.1h-2.369c-0.032-0.392-0.159-1.724-1.86-1.724
			c-1.145,0-1.892,0.611-1.892,1.536c0,1.05,0.842,1.238,2.496,1.645c1.987,0.471,3.943,1.004,3.943,3.213
			c0,2.037-1.717,3.684-4.897,3.684c-4.404,0-4.436-2.79-4.452-3.887H163.483z"/>
		<path fill="#231F20" d="M176.774,35.056c-0.763,0.204-1.447,0.251-1.829,0.251c-2.369,0-2.369-1.474-2.369-2.132v-4.34h-1.542
			v-1.536h1.542v-1.552l2.337-0.846v2.397h1.908v1.536h-1.908v3.572c0.016,0.721,0.016,1.176,1.065,1.176
			c0.35,0,0.509-0.016,0.795-0.047V35.056z"/>
		<path fill="#231F20" d="M183.053,35.165c-0.08-0.485-0.08-0.846-0.08-1.08c-0.89,1.269-1.956,1.269-2.401,1.269
			c-1.161,0-1.685-0.329-2.003-0.627c-0.477-0.47-0.699-1.112-0.699-1.739s0.223-1.787,1.701-2.461
			c0.986-0.438,2.401-0.438,3.18-0.438c0-0.518-0.016-0.769-0.111-1.051c-0.207-0.58-0.827-0.658-1.049-0.658
			c-0.334,0-0.684,0.141-0.89,0.439c-0.175,0.266-0.175,0.517-0.175,0.705h-2.306c0.016-0.424,0.063-1.27,0.906-1.865
			c0.731-0.518,1.669-0.643,2.433-0.643c0.668,0,2.067,0.109,2.862,1.019c0.541,0.643,0.557,1.583,0.557,1.943l0.016,3.181
			c0,0.674,0.047,1.348,0.19,2.006H183.053z M180.16,32.721c0,0.533,0.366,1.128,1.145,1.128c0.429,0,0.779-0.203,1.002-0.454
			c0.413-0.501,0.445-1.112,0.445-1.958C181.241,31.311,180.16,31.781,180.16,32.721z"/>
		<path fill="#231F20" d="M191.797,35.056c-0.763,0.204-1.447,0.251-1.829,0.251c-2.369,0-2.369-1.474-2.369-2.132v-4.34h-1.542
			v-1.536h1.542v-1.552l2.337-0.846v2.397h1.908v1.536h-1.908v3.572c0.016,0.721,0.016,1.176,1.065,1.176
			c0.35,0,0.509-0.016,0.795-0.047V35.056z"/>
		<path fill="#231F20" d="M193.179,23.851h2.512v2.021h-2.512V23.851z M193.259,27.237h2.353v7.929h-2.353V27.237z"/>
		<path fill="#231F20" d="M197.71,28.662c0-0.031,0-0.894-0.048-1.442h2.258l0.063,1.191c0.223-0.36,0.858-1.379,2.607-1.379
			c1.574,0,2.242,0.94,2.449,1.488c0.175,0.486,0.223,0.895,0.223,2.367v4.277h-2.401v-4.92c0-0.329,0-0.611-0.127-0.862
			c-0.175-0.345-0.541-0.674-1.145-0.674c-0.509,0-0.97,0.235-1.224,0.611c-0.143,0.204-0.286,0.596-0.286,1.206v4.639h-2.369
			V28.662z"/>
		<path fill="#231F20" d="M207.423,26.218l2.417,0.345l-1.495-1.865l1.479-0.799l0.89,2.163l0.938-2.211l1.479,0.862l-1.559,1.85
			l2.433-0.282l-0.032,1.661l-2.369-0.36l1.494,1.928l-1.479,0.799l-0.922-2.209l-0.922,2.225l-1.431-0.846l1.479-1.912
			l-2.401,0.313V26.218z"/>
		<path fill="#231F20" d="M216.262,26.218l2.417,0.345l-1.495-1.865l1.479-0.799l0.89,2.163l0.938-2.211l1.479,0.862l-1.559,1.85
			l2.433-0.282l-0.032,1.661l-2.369-0.36l1.494,1.928l-1.479,0.799l-0.922-2.209l-0.922,2.225l-1.431-0.846l1.479-1.912
			l-2.401,0.313V26.218z"/>
	</g>
</g>
</svg>
