<?xml version="1.0" encoding="utf-8"?>
<!-- Generator: Adobe Illustrator 17.0.0, SVG Export Plug-In . SVG Version: 6.00 Build 0)  -->
<!DOCTYPE svg PUBLIC "-//W3C//DTD SVG 1.1//EN" "http://www.w3.org/Graphics/SVG/1.1/DTD/svg11.dtd">
<svg version="1.1" id="Layer_1" xmlns="http://www.w3.org/2000/svg" xmlns:xlink="http://www.w3.org/1999/xlink" x="0px" y="0px"
	 width="604.663px" height="75.144px" viewBox="0 0 604.663 75.144" enable-background="new 0 0 604.663 75.144"
	 xml:space="preserve">
<g>
	<g opacity="0.7">
		<g>
			<defs>
				<rect id="SVGID_140_" x="0" y="0" width="604.663" height="75.144"/>
			</defs>
			<clipPath id="SVGID_2_">
				<use xlink:href="#SVGID_140_"  overflow="visible"/>
			</clipPath>
			<rect x="1.5" y="1.251" clip-path="url(#SVGID_2_)" fill="#FFFFFF" width="601.663" height="72.642"/>
			
				<rect x="1.5" y="1.251" clip-path="url(#SVGID_2_)" fill="none" stroke="#231F20" stroke-width="0.9133" width="601.663" height="72.642"/>
		</g>
	</g>
	<g>
		<g>
			<path fill="#006C85" d="M29.451,11.949l4.519,13.018h-2.809l-0.937-2.809h-5.149l-0.972,2.809h-2.665l4.7-13.018H29.451z
				 M29.523,20.052l-1.8-5.546l-1.927,5.546H29.523z"/>
			<path fill="#006C85" d="M36.649,22.338c0.036,0.576,0.396,1.242,1.513,1.242c0.954,0,1.404-0.54,1.404-1.08
				c0-0.414-0.216-0.738-1.261-1.026l-1.656-0.45c-0.738-0.216-2.305-0.666-2.305-2.521c0-1.765,1.621-2.845,3.979-2.845
				c1.873,0,3.385,0.864,3.457,2.683H39.35c-0.072-1.009-0.882-1.08-1.296-1.08c-0.72,0-1.26,0.342-1.26,0.9
				c0,0.612,0.45,0.738,1.242,0.954l1.639,0.45c1.657,0.45,2.431,1.296,2.431,2.538c0,1.566-1.35,3.134-4.177,3.134
				c-1.17,0-2.287-0.253-3.115-1.117c-0.594-0.63-0.648-1.35-0.667-1.782H36.649z"/>
			<path fill="#006C85" d="M49.861,15.874l0.072,1.297c0.828-1.459,2.341-1.477,2.773-1.477c2.358,0,3.781,1.765,3.781,4.537
				c0,2.575-1.332,4.861-3.961,4.861c-1.639,0-2.305-0.864-2.539-1.17v4.537h-2.719V15.874H49.861z M53.786,20.34
				c0-1.081-0.27-2.936-1.836-2.936c-0.864,0-2.089,0.648-2.089,3.098c0,0.54,0.018,2.845,1.981,2.845
				C53.102,23.347,53.786,22.14,53.786,20.34z"/>
			<path fill="#006C85" d="M59.779,21.096c0,0.594,0,2.431,1.854,2.431c0.666,0,1.333-0.252,1.584-1.261h2.431
				c-0.036,0.433-0.126,1.207-0.864,1.98c-0.666,0.703-1.854,1.063-3.187,1.063c-0.774,0-2.25-0.144-3.205-1.134
				c-0.829-0.864-1.17-2.089-1.17-3.547c0-1.477,0.36-3.241,1.891-4.304c0.702-0.468,1.566-0.756,2.557-0.756
				c1.296,0,2.845,0.504,3.673,2.196c0.612,1.242,0.576,2.575,0.541,3.331H59.779z M63.164,19.421c0-0.414-0.036-2.034-1.584-2.034
				c-1.17,0-1.657,0.972-1.711,2.034H63.164z"/>
			<path fill="#006C85" d="M66.925,18.107c0-0.432-0.072-1.746-0.126-2.269h2.502l0.054,1.747c0.342-0.774,0.937-1.873,3.097-1.765
				v2.395c-2.701-0.252-2.863,1.135-2.863,2.269v4.483h-2.665V18.107z"/>
			<path fill="#006C85" d="M82.838,24.841c-0.864,0.234-1.639,0.288-2.071,0.288c-2.683,0-2.683-1.692-2.683-2.449v-4.987h-1.747
				v-1.765h1.747v-1.782l2.646-0.973v2.755h2.161v1.765h-2.161v4.105c0.018,0.828,0.018,1.351,1.207,1.351
				c0.396,0,0.576-0.019,0.9-0.055V24.841z"/>
			<path fill="#006C85" d="M83.844,11.967h2.647v5.149c0.306-0.432,0.972-1.368,2.629-1.368c1.35,0,2.214,0.666,2.646,1.225
				c0.324,0.45,0.594,1.278,0.594,2.467v5.527h-2.646V19.53c0-0.522,0-1.98-1.495-1.98c-0.756,0-1.71,0.432-1.71,1.854l0.018,5.563
				h-2.683V11.967z"/>
			<path fill="#006C85" d="M96.193,21.096c0,0.594,0,2.431,1.854,2.431c0.667,0,1.333-0.252,1.584-1.261h2.431
				c-0.036,0.433-0.126,1.207-0.864,1.98c-0.666,0.703-1.854,1.063-3.187,1.063c-0.774,0-2.25-0.144-3.205-1.134
				c-0.829-0.864-1.17-2.089-1.17-3.547c0-1.477,0.36-3.241,1.891-4.304c0.702-0.468,1.566-0.756,2.557-0.756
				c1.296,0,2.845,0.504,3.673,2.196c0.612,1.242,0.576,2.575,0.541,3.331H96.193z M99.578,19.421c0-0.414-0.036-2.034-1.585-2.034
				c-1.17,0-1.656,0.972-1.71,2.034H99.578z"/>
			<path fill="#006C85" d="M107.622,11.949h2.665v13.018h-2.665V11.949z"/>
			<path fill="#006C85" d="M117.362,24.967c-0.09-0.559-0.09-0.973-0.09-1.242c-1.008,1.458-2.215,1.458-2.719,1.458
				c-1.314,0-1.908-0.378-2.269-0.72c-0.54-0.54-0.792-1.278-0.792-1.999c0-0.72,0.252-2.053,1.926-2.827
				c1.117-0.504,2.719-0.504,3.601-0.504c0-0.594-0.018-0.882-0.126-1.206c-0.234-0.666-0.936-0.756-1.188-0.756
				c-0.378,0-0.774,0.161-1.008,0.504c-0.198,0.306-0.198,0.594-0.198,0.81h-2.611c0.018-0.485,0.072-1.458,1.026-2.143
				c0.828-0.594,1.891-0.738,2.755-0.738c0.756,0,2.34,0.127,3.241,1.171c0.612,0.738,0.63,1.818,0.63,2.232l0.018,3.655
				c0,0.774,0.054,1.549,0.216,2.305H117.362z M114.085,22.158c0,0.612,0.414,1.296,1.296,1.296c0.486,0,0.882-0.233,1.134-0.521
				c0.468-0.576,0.504-1.278,0.504-2.251C115.309,20.537,114.085,21.078,114.085,22.158z"/>
			<path fill="#006C85" d="M126.542,24.841c-0.864,0.234-1.639,0.288-2.071,0.288c-2.683,0-2.683-1.692-2.683-2.449v-4.987h-1.747
				v-1.765h1.747v-1.782l2.646-0.973v2.755h2.161v1.765h-2.161v4.105c0.018,0.828,0.018,1.351,1.207,1.351
				c0.396,0,0.576-0.019,0.9-0.055V24.841z"/>
			<path fill="#006C85" d="M129.618,21.096c0,0.594,0,2.431,1.854,2.431c0.667,0,1.333-0.252,1.584-1.261h2.431
				c-0.036,0.433-0.126,1.207-0.864,1.98c-0.666,0.703-1.854,1.063-3.187,1.063c-0.774,0-2.25-0.144-3.205-1.134
				c-0.829-0.864-1.17-2.089-1.17-3.547c0-1.477,0.36-3.241,1.891-4.304c0.702-0.468,1.566-0.756,2.557-0.756
				c1.296,0,2.845,0.504,3.673,2.196c0.612,1.242,0.576,2.575,0.541,3.331H129.618z M133.004,19.421
				c0-0.414-0.036-2.034-1.585-2.034c-1.17,0-1.656,0.972-1.71,2.034H133.004z"/>
			<path fill="#006C85" d="M138.618,22.338c0.036,0.576,0.396,1.242,1.512,1.242c0.955,0,1.405-0.54,1.405-1.08
				c0-0.414-0.216-0.738-1.26-1.026l-1.657-0.45c-0.738-0.216-2.305-0.666-2.305-2.521c0-1.765,1.621-2.845,3.979-2.845
				c1.873,0,3.385,0.864,3.457,2.683h-2.431c-0.072-1.009-0.882-1.08-1.296-1.08c-0.72,0-1.26,0.342-1.26,0.9
				c0,0.612,0.45,0.738,1.242,0.954l1.639,0.45c1.656,0.45,2.431,1.296,2.431,2.538c0,1.566-1.351,3.134-4.177,3.134
				c-1.17,0-2.287-0.253-3.115-1.117c-0.594-0.63-0.648-1.35-0.667-1.782H138.618z"/>
			<path fill="#006C85" d="M150.391,24.841c-0.864,0.234-1.639,0.288-2.071,0.288c-2.683,0-2.683-1.692-2.683-2.449v-4.987h-1.747
				v-1.765h1.747v-1.782l2.646-0.973v2.755h2.161v1.765h-2.161v4.105c0.018,0.828,0.018,1.351,1.207,1.351
				c0.396,0,0.576-0.019,0.9-0.055V24.841z"/>
			<path fill="#006C85" d="M162.542,11.949l4.519,13.018h-2.809l-0.937-2.809h-5.149l-0.972,2.809h-2.665l4.7-13.018H162.542z
				 M162.614,20.052l-1.8-5.546l-1.927,5.546H162.614z"/>
			<path fill="#006C85" d="M175.286,16.199c-0.054-0.45-0.216-2.287-2.107-2.287c-2.071,0-2.935,2.161-2.935,4.844
				c0,0.774,0,4.466,2.719,4.466c1.17,0,2.287-0.738,2.34-2.467h2.935c-0.054,0.773-0.126,1.98-1.17,3.061
				c-1.152,1.188-2.611,1.458-3.799,1.458c-4.483,0-5.942-3.313-5.942-6.535c0-4.124,2.305-6.86,5.959-6.86
				c2.845,0,4.844,1.729,4.844,4.321H175.286z"/>
			<path fill="#006C85" d="M186.571,16.199c-0.054-0.45-0.216-2.287-2.106-2.287c-2.07,0-2.935,2.161-2.935,4.844
				c0,0.774,0,4.466,2.719,4.466c1.17,0,2.287-0.738,2.34-2.467h2.935c-0.054,0.773-0.126,1.98-1.17,3.061
				c-1.152,1.188-2.611,1.458-3.799,1.458c-4.483,0-5.941-3.313-5.941-6.535c0-4.124,2.305-6.86,5.959-6.86
				c2.845,0,4.844,1.729,4.844,4.321H186.571z"/>
			<path fill="#006C85" d="M197.046,20.808c0,0.612-0.036,2.467,2.358,2.467c1.513,0,2.467-0.721,2.467-1.818
				c0-1.152-0.81-1.351-2.467-1.747c-3.097-0.774-4.789-1.692-4.789-3.943c0-2.143,1.53-4.033,5.149-4.033
				c1.351,0,2.953,0.307,3.925,1.531c0.738,0.936,0.738,1.98,0.738,2.412h-2.683c-0.036-0.45-0.18-1.98-2.106-1.98
				c-1.296,0-2.143,0.702-2.143,1.765c0,1.206,0.954,1.423,2.827,1.891c2.25,0.54,4.465,1.152,4.465,3.691
				c0,2.341-1.944,4.23-5.545,4.23c-4.988,0-5.024-3.204-5.042-4.465H197.046z"/>
			<path fill="#006C85" d="M208.98,14.11h-3.871v-2.16h10.551v2.16h-3.871v10.857h-2.809V14.11z"/>
			<path fill="#006C85" d="M216.467,11.949h8.714v2.124h-5.924v3.098h5.546v2.124h-5.546v3.512h6.122v2.16h-8.913V11.949z"/>
			<path fill="#006C85" d="M226.493,11.949h4.555l2.755,9.471l2.971-9.471h4.429v13.018h-2.772V13.804l-3.547,11.163h-2.305
				l-3.475-11.163v11.163h-2.61V11.949z"/>
			<path fill="#006C85" d="M242.764,11.913h2.791v13.054h-2.791V11.913z"/>
			<path fill="#006C85" d="M250.702,22.428l3.259-2.971c0.576-0.522,1.225-1.099,1.891-1.908c0.702-0.847,0.864-1.242,0.864-1.818
				c0-0.955-0.558-1.603-1.495-1.603c-1.44,0-1.566,1.476-1.584,1.836h-2.755c0-0.504,0-1.44,0.738-2.358
				c0.72-0.9,2.052-1.368,3.583-1.368c2.737,0,4.249,1.477,4.249,3.421c0,1.296-0.504,2.971-5.942,7.346
				c1.819-0.036,2.035-0.054,3.457-0.071c1.927-0.036,2.143-0.036,2.557-0.055v2.089h-8.823V22.428z"/>
			<path fill="#006C85" d="M264.599,12.219c1.765,0,2.809,0.954,3.277,1.656c0.648,0.955,1.134,2.179,1.134,4.538
				c0,2.917-0.666,6.752-4.447,6.752c-3.223,0-4.339-3.097-4.339-6.446C260.224,17.045,260.566,12.219,264.599,12.219z
				 M265.986,15.766c-0.072-0.342-0.378-1.458-1.368-1.458c-0.774,0-1.117,0.702-1.243,1.08c-0.414,1.278-0.414,3.205-0.414,3.512
				c0,2.143,0.324,4.141,1.675,4.141c1.44,0,1.674-2.448,1.674-4.177C266.31,18.071,266.22,16.595,265.986,15.766z"/>
			<path fill="#006C85" d="M270.538,14.29c1.17-0.505,2.287-1.135,3.331-1.891h2.323v12.567h-2.719V15.19
				c-0.522,0.396-1.566,1.045-2.935,1.603V14.29z"/>
			<path fill="#006C85" d="M281.249,21.546c0.018,0.396,0.126,1.675,1.621,1.675c1.008,0,1.621-0.738,1.621-1.711
				c0-1.854-1.783-1.854-3.097-1.854v-2.106c1.26-0.036,3.115-0.072,3.115-1.873c0-0.99-0.738-1.494-1.549-1.494
				c-0.774,0-1.53,0.522-1.53,1.566h-2.755c0.054-0.559,0.108-1.351,0.738-2.125c0.828-1.008,2.161-1.386,3.493-1.386
				c3.205,0,4.231,2.053,4.231,3.421c0,2.106-1.854,2.683-2.413,2.845c0.396,0.126,0.918,0.288,1.495,0.774
				c0.882,0.738,1.026,1.656,1.026,2.25c0,2.125-1.945,3.71-4.556,3.71c-0.9,0-2.214-0.198-3.025-0.847
				c-1.116-0.918-1.152-2.341-1.152-2.845H281.249z"/>
			<path fill="#006C85" d="M301.483,15.91c-0.072,0.72-0.126,1.332-0.126,2.251v6.716c0,3.349-2.791,3.673-4.538,3.673
				c-1.296,0-3.835-0.162-3.997-2.917h2.557c0.036,0.271,0.162,1.261,1.584,1.261c0.792,0,1.477-0.378,1.657-1.188
				c0.108-0.45,0.108-0.774,0.126-2.161c-0.846,1.117-1.8,1.243-2.449,1.243c-2.611,0-3.835-2.27-3.835-4.466
				c0-2.305,1.278-4.501,3.889-4.501c1.656,0,2.269,0.9,2.539,1.296l0.09-1.206H301.483z M296.91,22.968
				c1.873,0,1.873-2.196,1.873-2.593c0-1.025-0.198-2.772-1.819-2.772c-1.008,0-1.836,0.774-1.836,2.719
				C295.127,20.772,295.127,22.968,296.91,22.968z"/>
			<path fill="#006C85" d="M305.747,15.874v5.42c0,0.792,0,1.998,1.422,1.998c1.71,0,1.71-1.278,1.71-2.826v-4.592h2.737v5.996
				c0.036,1.962,0.054,2.196,0.054,2.431c0.018,0.252,0.036,0.414,0.072,0.666h-2.593l-0.09-1.206
				c-0.27,0.396-0.955,1.44-2.683,1.44c-1.224,0-2.232-0.559-2.737-1.225c-0.594-0.738-0.594-1.999-0.594-2.449v-5.653H305.747z"/>
			<path fill="#006C85" d="M313.324,11.967h2.845v2.323h-2.845V11.967z M313.414,15.857h2.665v9.11h-2.665V15.857z"/>
			<path fill="#006C85" d="M323.712,11.967h2.683v11.523c0,0.54,0.036,1.135,0.072,1.477h-2.701l-0.072-1.314
				c-0.18,0.324-0.36,0.666-0.918,1.026c-0.667,0.433-1.369,0.468-1.765,0.468c-2.431,0-3.871-1.674-3.871-4.519
				c0-3.007,1.638-4.88,4.015-4.88c1.639,0,2.323,0.918,2.557,1.242V11.967z M321.677,23.418c0.774,0,1.405-0.468,1.693-1.026
				c0.396-0.756,0.432-1.692,0.432-2.143c0-1.782-0.774-2.755-1.98-2.755c-1.782,0-1.98,2.143-1.98,3.062
				C319.841,22.069,320.344,23.418,321.677,23.418z"/>
			<path fill="#006C85" d="M330.118,21.096c0,0.594,0,2.431,1.854,2.431c0.667,0,1.333-0.252,1.584-1.261h2.431
				c-0.036,0.433-0.126,1.207-0.864,1.98c-0.666,0.703-1.854,1.063-3.187,1.063c-0.774,0-2.25-0.144-3.205-1.134
				c-0.829-0.864-1.17-2.089-1.17-3.547c0-1.477,0.36-3.241,1.891-4.304c0.702-0.468,1.566-0.756,2.557-0.756
				c1.296,0,2.845,0.504,3.673,2.196c0.612,1.242,0.576,2.575,0.541,3.331H330.118z M333.504,19.421
				c0-0.414-0.036-2.034-1.585-2.034c-1.17,0-1.656,0.972-1.71,2.034H333.504z"/>
			<path fill="#006C85" d="M337.264,11.949h2.665v13.018h-2.665V11.949z"/>
			<path fill="#006C85" d="M341.458,11.967h2.845v2.323h-2.845V11.967z M341.548,15.857h2.665v9.11h-2.665V15.857z"/>
			<path fill="#006C85" d="M345.868,17.494c0-0.035,0-1.025-0.054-1.656h2.557l0.072,1.368c0.252-0.414,0.972-1.584,2.953-1.584
				c1.783,0,2.539,1.08,2.773,1.71c0.198,0.559,0.252,1.026,0.252,2.72v4.915h-2.719v-5.653c0-0.379,0-0.702-0.144-0.99
				c-0.198-0.396-0.612-0.774-1.296-0.774c-0.576,0-1.098,0.27-1.386,0.702c-0.162,0.233-0.324,0.684-0.324,1.386v5.33h-2.683
				V17.494z"/>
			<path fill="#006C85" d="M358.252,21.096c0,0.594,0,2.431,1.854,2.431c0.667,0,1.333-0.252,1.584-1.261h2.431
				c-0.036,0.433-0.126,1.207-0.864,1.98c-0.666,0.703-1.854,1.063-3.187,1.063c-0.774,0-2.25-0.144-3.205-1.134
				c-0.829-0.864-1.17-2.089-1.17-3.547c0-1.477,0.36-3.241,1.891-4.304c0.702-0.468,1.566-0.756,2.557-0.756
				c1.296,0,2.845,0.504,3.673,2.196c0.612,1.242,0.576,2.575,0.541,3.331H358.252z M361.637,19.421
				c0-0.414-0.036-2.034-1.585-2.034c-1.17,0-1.656,0.972-1.71,2.034H361.637z"/>
			<path fill="#006C85" d="M367.252,22.338c0.036,0.576,0.396,1.242,1.512,1.242c0.955,0,1.405-0.54,1.405-1.08
				c0-0.414-0.216-0.738-1.26-1.026l-1.657-0.45c-0.738-0.216-2.305-0.666-2.305-2.521c0-1.765,1.621-2.845,3.979-2.845
				c1.873,0,3.385,0.864,3.457,2.683h-2.431c-0.072-1.009-0.882-1.08-1.296-1.08c-0.72,0-1.26,0.342-1.26,0.9
				c0,0.612,0.45,0.738,1.242,0.954l1.639,0.45c1.656,0.45,2.431,1.296,2.431,2.538c0,1.566-1.351,3.134-4.177,3.134
				c-1.17,0-2.287-0.253-3.115-1.117c-0.594-0.63-0.648-1.35-0.667-1.782H367.252z"/>
			<path fill="#006C85" d="M377.009,22.573l-2.143,4.429h-1.855l1.333-4.429H377.009z"/>
			<path fill="#006C85" d="M387.701,24.967c-0.09-0.559-0.09-0.973-0.09-1.242c-1.008,1.458-2.215,1.458-2.719,1.458
				c-1.314,0-1.908-0.378-2.269-0.72c-0.54-0.54-0.792-1.278-0.792-1.999c0-0.72,0.252-2.053,1.926-2.827
				c1.117-0.504,2.719-0.504,3.601-0.504c0-0.594-0.018-0.882-0.126-1.206c-0.234-0.666-0.936-0.756-1.188-0.756
				c-0.378,0-0.774,0.161-1.008,0.504c-0.198,0.306-0.198,0.594-0.198,0.81h-2.611c0.018-0.485,0.072-1.458,1.026-2.143
				c0.828-0.594,1.891-0.738,2.755-0.738c0.756,0,2.34,0.127,3.241,1.171c0.612,0.738,0.63,1.818,0.63,2.232l0.018,3.655
				c0,0.774,0.054,1.549,0.216,2.305H387.701z M384.425,22.158c0,0.612,0.414,1.296,1.296,1.296c0.486,0,0.882-0.233,1.134-0.521
				c0.468-0.576,0.504-1.278,0.504-2.251C385.649,20.537,384.425,21.078,384.425,22.158z"/>
			<path fill="#006C85" d="M391.588,17.585c0-0.576-0.036-1.135-0.09-1.711h2.575l0.09,1.171c0.288-0.396,0.99-1.369,2.809-1.369
				c2.089,0,2.683,1.278,2.863,1.711c0.756-1.459,1.981-1.692,2.917-1.692c1.836,0,2.575,1.098,2.773,1.458
				c0.486,0.792,0.45,1.891,0.45,2.683v5.132h-2.683v-5.348c0-0.973-0.144-2.053-1.53-2.053c-1.603,0-1.639,1.494-1.639,2.845v4.556
				h-2.683v-5.401c0-0.702-0.018-1.999-1.495-1.999c-1.674,0-1.674,1.44-1.674,2.053v5.348h-2.683V17.585z"/>
			<path fill="#006C85" d="M412.091,15.658c3.295,0,4.717,2.232,4.717,4.771c0,2.557-1.476,4.861-4.771,4.861
				c-2.593,0-4.646-1.603-4.646-4.789C407.391,18.305,408.508,15.658,412.091,15.658z M412.127,23.437
				c1.17,0,1.962-0.702,1.962-3.115c0-1.206-0.234-2.881-1.999-2.881c-1.944,0-1.962,2.251-1.962,3.079
				C410.128,22.554,410.812,23.437,412.127,23.437z"/>
			<path fill="#006C85" d="M418.119,17.494c0-0.035,0-1.025-0.054-1.656h2.557l0.072,1.368c0.252-0.414,0.972-1.584,2.953-1.584
				c1.783,0,2.539,1.08,2.773,1.71c0.198,0.559,0.252,1.026,0.252,2.72v4.915h-2.719v-5.653c0-0.379,0-0.702-0.144-0.99
				c-0.198-0.396-0.612-0.774-1.296-0.774c-0.576,0-1.098,0.27-1.386,0.702c-0.162,0.233-0.324,0.684-0.324,1.386v5.33h-2.683
				V17.494z"/>
			<path fill="#006C85" d="M436.986,15.91c-0.072,0.72-0.126,1.332-0.126,2.251v6.716c0,3.349-2.791,3.673-4.538,3.673
				c-1.296,0-3.835-0.162-3.997-2.917h2.557c0.036,0.271,0.162,1.261,1.584,1.261c0.792,0,1.477-0.378,1.657-1.188
				c0.108-0.45,0.108-0.774,0.126-2.161c-0.846,1.117-1.801,1.243-2.449,1.243c-2.611,0-3.835-2.27-3.835-4.466
				c0-2.305,1.278-4.501,3.889-4.501c1.656,0,2.269,0.9,2.539,1.296l0.09-1.206H436.986z M432.412,22.968
				c1.873,0,1.873-2.196,1.873-2.593c0-1.025-0.198-2.772-1.819-2.772c-1.008,0-1.836,0.774-1.836,2.719
				C430.63,20.772,430.63,22.968,432.412,22.968z"/>
			<path fill="#006C85" d="M447.73,19.097c-0.036-0.323-0.144-1.674-1.17-1.674c-1.261,0-1.405,1.908-1.405,2.898
				c0,0.504,0.054,2.125,0.667,2.791c0.252,0.271,0.522,0.306,0.72,0.306c0.288,0,1.116-0.126,1.224-1.746h2.629
				c-0.036,0.702-0.126,1.801-1.17,2.683c-0.648,0.559-1.458,0.847-2.593,0.847c-1.207,0-2.269-0.271-3.097-1.207
				c-0.792-0.918-1.152-2.124-1.152-3.583c0-4.141,3.042-4.717,4.249-4.717c1.692,0,3.691,0.936,3.709,3.402H447.73z"/>
			<path fill="#006C85" d="M453.814,15.874v5.42c0,0.792,0,1.998,1.422,1.998c1.71,0,1.71-1.278,1.71-2.826v-4.592h2.737v5.996
				c0.036,1.962,0.054,2.196,0.054,2.431c0.018,0.252,0.036,0.414,0.072,0.666h-2.593l-0.09-1.206
				c-0.27,0.396-0.955,1.44-2.683,1.44c-1.224,0-2.232-0.559-2.737-1.225c-0.594-0.738-0.594-1.999-0.594-2.449v-5.653H453.814z"/>
			<path fill="#006C85" d="M461.481,18.107c0-0.432-0.072-1.746-0.126-2.269h2.502l0.054,1.747c0.342-0.774,0.937-1.873,3.097-1.765
				v2.395c-2.701-0.252-2.863,1.135-2.863,2.269v4.483h-2.665V18.107z"/>
			<path fill="#006C85" d="M467.043,18.107c0-0.432-0.072-1.746-0.126-2.269h2.502l0.054,1.747c0.342-0.774,0.937-1.873,3.097-1.765
				v2.395c-2.701-0.252-2.863,1.135-2.863,2.269v4.483h-2.665V18.107z"/>
			<path fill="#006C85" d="M474.946,21.096c0,0.594,0,2.431,1.854,2.431c0.667,0,1.333-0.252,1.584-1.261h2.431
				c-0.036,0.433-0.126,1.207-0.864,1.98c-0.666,0.703-1.854,1.063-3.187,1.063c-0.774,0-2.25-0.144-3.205-1.134
				c-0.829-0.864-1.17-2.089-1.17-3.547c0-1.477,0.36-3.241,1.891-4.304c0.702-0.468,1.566-0.756,2.557-0.756
				c1.296,0,2.845,0.504,3.673,2.196c0.612,1.242,0.576,2.575,0.541,3.331H474.946z M478.331,19.421
				c0-0.414-0.036-2.034-1.585-2.034c-1.17,0-1.656,0.972-1.71,2.034H478.331z"/>
			<path fill="#006C85" d="M482.127,17.494c0-0.035,0-1.025-0.054-1.656h2.557l0.072,1.368c0.252-0.414,0.972-1.584,2.953-1.584
				c1.783,0,2.539,1.08,2.773,1.71c0.198,0.559,0.252,1.026,0.252,2.72v4.915h-2.719v-5.653c0-0.379,0-0.702-0.144-0.99
				c-0.198-0.396-0.612-0.774-1.296-0.774c-0.576,0-1.098,0.27-1.386,0.702c-0.162,0.233-0.324,0.684-0.324,1.386v5.33h-2.683
				V17.494z"/>
			<path fill="#006C85" d="M497.716,24.841c-0.864,0.234-1.639,0.288-2.071,0.288c-2.683,0-2.683-1.692-2.683-2.449v-4.987h-1.747
				v-1.765h1.747v-1.782l2.646-0.973v2.755h2.161v1.765h-2.161v4.105c0.018,0.828,0.018,1.351,1.207,1.351
				c0.396,0,0.576-0.019,0.9-0.055V24.841z"/>
			<path fill="#006C85" d="M498.651,11.949h2.665v13.018h-2.665V11.949z"/>
			<path fill="#006C85" d="M504.897,15.874l1.999,6.302l2.035-6.302h2.647l-3.439,8.931l-1.099,3.619h-2.683l1.152-3.421
				l-3.493-9.129H504.897z"/>
			<path fill="#006C85" d="M521.962,24.967c-0.09-0.559-0.09-0.973-0.09-1.242c-1.008,1.458-2.215,1.458-2.719,1.458
				c-1.314,0-1.908-0.378-2.269-0.72c-0.54-0.54-0.792-1.278-0.792-1.999c0-0.72,0.252-2.053,1.926-2.827
				c1.117-0.504,2.719-0.504,3.601-0.504c0-0.594-0.018-0.882-0.126-1.206c-0.234-0.666-0.936-0.756-1.188-0.756
				c-0.378,0-0.774,0.161-1.008,0.504c-0.198,0.306-0.198,0.594-0.198,0.81h-2.611c0.018-0.485,0.072-1.458,1.026-2.143
				c0.828-0.594,1.891-0.738,2.755-0.738c0.756,0,2.34,0.127,3.241,1.171c0.612,0.738,0.63,1.818,0.63,2.232l0.018,3.655
				c0,0.774,0.054,1.549,0.216,2.305H521.962z M518.685,22.158c0,0.612,0.414,1.296,1.296,1.296c0.486,0,0.882-0.233,1.134-0.521
				c0.468-0.576,0.504-1.278,0.504-2.251C519.909,20.537,518.685,21.078,518.685,22.158z"/>
			<path fill="#006C85" d="M527.235,15.874l2.053,6.176l2.089-6.176h2.575l-3.277,9.093h-2.953l-3.331-9.093H527.235z"/>
			<path fill="#006C85" d="M539.458,24.967c-0.09-0.559-0.09-0.973-0.09-1.242c-1.008,1.458-2.215,1.458-2.719,1.458
				c-1.314,0-1.908-0.378-2.269-0.72c-0.54-0.54-0.792-1.278-0.792-1.999c0-0.72,0.252-2.053,1.926-2.827
				c1.117-0.504,2.719-0.504,3.601-0.504c0-0.594-0.018-0.882-0.126-1.206c-0.234-0.666-0.936-0.756-1.188-0.756
				c-0.378,0-0.774,0.161-1.008,0.504c-0.198,0.306-0.198,0.594-0.198,0.81h-2.611c0.018-0.485,0.072-1.458,1.026-2.143
				c0.828-0.594,1.891-0.738,2.755-0.738c0.756,0,2.34,0.127,3.241,1.171c0.612,0.738,0.63,1.818,0.63,2.232l0.018,3.655
				c0,0.774,0.054,1.549,0.216,2.305H539.458z M536.181,22.158c0,0.612,0.414,1.296,1.296,1.296c0.486,0,0.882-0.233,1.134-0.521
				c0.468-0.576,0.504-1.278,0.504-2.251C537.406,20.537,536.181,21.078,536.181,22.158z"/>
			<path fill="#006C85" d="M543.2,11.967h2.845v2.323H543.2V11.967z M543.29,15.857h2.665v9.11h-2.665V15.857z"/>
			<path fill="#006C85" d="M547.574,11.949h2.665v13.018h-2.665V11.949z"/>
			<path fill="#006C85" d="M557.314,24.967c-0.09-0.559-0.09-0.973-0.09-1.242c-1.008,1.458-2.215,1.458-2.719,1.458
				c-1.314,0-1.909-0.378-2.269-0.72c-0.54-0.54-0.792-1.278-0.792-1.999c0-0.72,0.252-2.053,1.926-2.827
				c1.117-0.504,2.719-0.504,3.601-0.504c0-0.594-0.018-0.882-0.126-1.206c-0.234-0.666-0.936-0.756-1.188-0.756
				c-0.378,0-0.774,0.161-1.009,0.504c-0.198,0.306-0.198,0.594-0.198,0.81h-2.611c0.018-0.485,0.072-1.458,1.026-2.143
				c0.828-0.594,1.891-0.738,2.755-0.738c0.756,0,2.341,0.127,3.241,1.171c0.612,0.738,0.63,1.818,0.63,2.232l0.018,3.655
				c0,0.774,0.054,1.549,0.216,2.305H557.314z M554.037,22.158c0,0.612,0.414,1.296,1.296,1.296c0.486,0,0.882-0.233,1.134-0.521
				c0.468-0.576,0.504-1.278,0.504-2.251C555.261,20.537,554.037,21.078,554.037,22.158z"/>
			<path fill="#006C85" d="M561.056,11.986h2.665v4.987c0.9-1.188,2.106-1.225,2.575-1.225c2.215,0,3.961,1.746,3.961,4.808
				c0,3.403-1.981,4.591-3.799,4.591c-0.468,0-1.909-0.035-2.737-1.458c-0.018,0.288-0.036,0.72-0.09,1.278h-2.575V11.986z
				 M565.575,17.531c-1.962,0-1.962,2.233-1.962,2.81c0,2.07,0.882,3.061,2.088,3.061c1.836,0,1.836-2.287,1.836-2.755
				C567.538,19.926,567.502,17.531,565.575,17.531z"/>
			<path fill="#006C85" d="M571.424,11.949h2.665v13.018h-2.665V11.949z"/>
			<path fill="#006C85" d="M577.851,21.096c0,0.594,0,2.431,1.854,2.431c0.667,0,1.333-0.252,1.584-1.261h2.431
				c-0.036,0.433-0.126,1.207-0.864,1.98c-0.666,0.703-1.854,1.063-3.187,1.063c-0.774,0-2.25-0.144-3.205-1.134
				c-0.829-0.864-1.17-2.089-1.17-3.547c0-1.477,0.36-3.241,1.891-4.304c0.702-0.468,1.566-0.756,2.557-0.756
				c1.296,0,2.845,0.504,3.673,2.196c0.612,1.242,0.576,2.575,0.541,3.331H577.851z M581.236,19.421
				c0-0.414-0.036-2.034-1.585-2.034c-1.17,0-1.656,0.972-1.71,2.034H581.236z"/>
			<path fill="#006C85" d="M8.407,41.938c0.036,0.576,0.396,1.242,1.512,1.242c0.955,0,1.405-0.54,1.405-1.08
				c0-0.414-0.216-0.738-1.26-1.026l-1.657-0.45c-0.738-0.216-2.305-0.666-2.305-2.521c0-1.765,1.621-2.845,3.979-2.845
				c1.873,0,3.385,0.864,3.457,2.683h-2.431c-0.072-1.009-0.882-1.08-1.296-1.08c-0.72,0-1.26,0.342-1.26,0.9
				c0,0.612,0.45,0.738,1.242,0.954l1.639,0.45c1.656,0.45,2.431,1.296,2.431,2.538c0,1.566-1.351,3.134-4.177,3.134
				c-1.17,0-2.287-0.253-3.115-1.117c-0.594-0.63-0.648-1.35-0.667-1.782H8.407z"/>
			<path fill="#006C85" d="M20.18,44.441c-0.864,0.234-1.639,0.288-2.071,0.288c-2.683,0-2.683-1.692-2.683-2.449v-4.987H13.68
				v-1.765h1.747v-1.782l2.646-0.973v2.755h2.161v1.765h-2.161v4.105c0.018,0.828,0.018,1.351,1.207,1.351
				c0.396,0,0.576-0.019,0.9-0.055V44.441z"/>
			<path fill="#006C85" d="M26.571,44.567c-0.09-0.559-0.09-0.973-0.09-1.242c-1.008,1.458-2.215,1.458-2.719,1.458
				c-1.314,0-1.908-0.378-2.269-0.72c-0.54-0.54-0.792-1.278-0.792-1.999c0-0.72,0.252-2.053,1.926-2.827
				c1.117-0.504,2.719-0.504,3.601-0.504c0-0.594-0.018-0.882-0.126-1.206c-0.234-0.666-0.936-0.756-1.188-0.756
				c-0.378,0-0.774,0.161-1.008,0.504c-0.198,0.306-0.198,0.594-0.198,0.81h-2.611c0.018-0.485,0.072-1.458,1.026-2.143
				c0.828-0.594,1.891-0.738,2.755-0.738c0.756,0,2.34,0.127,3.241,1.171c0.612,0.738,0.63,1.818,0.63,2.232l0.018,3.655
				c0,0.774,0.054,1.549,0.216,2.305H26.571z M23.294,41.758c0,0.612,0.414,1.296,1.296,1.296c0.486,0,0.882-0.233,1.134-0.521
				c0.468-0.576,0.504-1.278,0.504-2.251C24.518,40.137,23.294,40.678,23.294,41.758z"/>
			<path fill="#006C85" d="M35.751,44.441c-0.864,0.234-1.639,0.288-2.071,0.288c-2.683,0-2.683-1.692-2.683-2.449v-4.987h-1.747
				v-1.765h1.747v-1.782l2.646-0.973v2.755h2.161v1.765h-2.161v4.105c0.018,0.828,0.018,1.351,1.207,1.351
				c0.396,0,0.576-0.019,0.9-0.055V44.441z"/>
			<path fill="#006C85" d="M36.594,31.567h2.845v2.323h-2.845V31.567z M36.685,35.456h2.665v9.11h-2.665V35.456z"/>
			<path fill="#006C85" d="M41.005,37.094c0-0.035,0-1.025-0.054-1.656h2.557l0.072,1.368c0.252-0.414,0.972-1.584,2.953-1.584
				c1.783,0,2.539,1.08,2.773,1.71c0.198,0.559,0.252,1.026,0.252,2.72v4.915h-2.719v-5.653c0-0.379,0-0.702-0.144-0.99
				c-0.198-0.396-0.612-0.774-1.296-0.774c-0.576,0-1.098,0.27-1.386,0.702c-0.162,0.233-0.324,0.684-0.324,1.386v5.33h-2.683
				V37.094z"/>
			<path fill="#006C85" d="M53.101,41.938c0.036,0.576,0.396,1.242,1.512,1.242c0.955,0,1.405-0.54,1.405-1.08
				c0-0.414-0.216-0.738-1.26-1.026l-1.657-0.45c-0.738-0.216-2.305-0.666-2.305-2.521c0-1.765,1.621-2.845,3.979-2.845
				c1.873,0,3.385,0.864,3.457,2.683h-2.431c-0.072-1.009-0.882-1.08-1.296-1.08c-0.72,0-1.26,0.342-1.26,0.9
				c0,0.612,0.45,0.738,1.242,0.954l1.639,0.45c1.656,0.45,2.431,1.296,2.431,2.538c0,1.566-1.351,3.134-4.177,3.134
				c-1.17,0-2.287-0.253-3.115-1.117c-0.594-0.63-0.648-1.35-0.667-1.782H53.101z"/>
			<path fill="#006C85" d="M62.858,42.172l-2.143,4.429H58.86l1.333-4.429H62.858z"/>
			<path fill="#006C85" d="M71.93,35.258c3.295,0,4.717,2.232,4.717,4.771c0,2.557-1.476,4.861-4.771,4.861
				c-2.593,0-4.645-1.603-4.645-4.789C67.231,37.905,68.347,35.258,71.93,35.258z M71.966,43.036c1.17,0,1.962-0.702,1.962-3.115
				c0-1.206-0.234-2.881-1.999-2.881c-1.944,0-1.962,2.251-1.962,3.079C69.968,42.154,70.652,43.036,71.966,43.036z"/>
			<path fill="#006C85" d="M77.959,37.094c0-0.035,0-1.025-0.054-1.656h2.557l0.072,1.368c0.252-0.414,0.972-1.584,2.953-1.584
				c1.783,0,2.539,1.08,2.773,1.71c0.198,0.559,0.252,1.026,0.252,2.72v4.915h-2.719v-5.653c0-0.379,0-0.702-0.144-0.99
				c-0.198-0.396-0.612-0.774-1.296-0.774c-0.576,0-1.098,0.27-1.386,0.702c-0.162,0.233-0.324,0.684-0.324,1.386v5.33h-2.683
				V37.094z"/>
			<path fill="#006C85" d="M88.2,31.549h2.665v13.018H88.2V31.549z"/>
			<path fill="#006C85" d="M94.447,35.474l1.999,6.302l2.035-6.302h2.647l-3.439,8.931l-1.099,3.619h-2.683l1.152-3.421
				l-3.493-9.129H94.447z"/>
			<path fill="#006C85" d="M106.128,31.567h2.647v5.149c0.306-0.432,0.972-1.368,2.629-1.368c1.35,0,2.214,0.666,2.646,1.225
				c0.324,0.45,0.594,1.278,0.594,2.467v5.527h-2.646v-5.438c0-0.522,0-1.98-1.495-1.98c-0.756,0-1.71,0.432-1.71,1.854l0.018,5.563
				h-2.683V31.567z"/>
			<path fill="#006C85" d="M116.244,31.567h2.845v2.323h-2.845V31.567z M116.334,35.456h2.665v9.11h-2.665V35.456z"/>
			<path fill="#006C85" d="M129.242,35.51c-0.072,0.72-0.126,1.332-0.126,2.251v6.716c0,3.349-2.791,3.673-4.538,3.673
				c-1.296,0-3.835-0.162-3.997-2.917h2.557c0.036,0.271,0.162,1.261,1.584,1.261c0.792,0,1.477-0.378,1.657-1.188
				c0.108-0.45,0.108-0.774,0.126-2.161c-0.846,1.117-1.801,1.243-2.449,1.243c-2.611,0-3.835-2.27-3.835-4.466
				c0-2.305,1.278-4.501,3.889-4.501c1.656,0,2.269,0.9,2.539,1.296l0.09-1.206H129.242z M124.669,42.568
				c1.873,0,1.873-2.196,1.873-2.593c0-1.025-0.198-2.772-1.819-2.772c-1.008,0-1.836,0.774-1.836,2.719
				C122.886,40.371,122.886,42.568,124.669,42.568z"/>
			<path fill="#006C85" d="M130.968,31.567h2.647v5.149c0.306-0.432,0.972-1.368,2.629-1.368c1.35,0,2.214,0.666,2.646,1.225
				c0.324,0.45,0.594,1.278,0.594,2.467v5.527h-2.646v-5.438c0-0.522,0-1.98-1.495-1.98c-0.756,0-1.71,0.432-1.71,1.854l0.018,5.563
				h-2.683V31.567z"/>
			<path fill="#006C85" d="M140.796,38.787h4.466v2.034h-4.466V38.787z"/>
			<path fill="#006C85" d="M152.461,31.567h2.683V43.09c0,0.54,0.036,1.135,0.072,1.477h-2.701l-0.072-1.314
				c-0.18,0.324-0.36,0.666-0.918,1.026c-0.667,0.433-1.369,0.468-1.765,0.468c-2.431,0-3.871-1.674-3.871-4.519
				c0-3.007,1.638-4.88,4.015-4.88c1.638,0,2.323,0.918,2.557,1.242V31.567z M150.427,43.018c0.774,0,1.404-0.468,1.692-1.026
				c0.396-0.756,0.433-1.692,0.433-2.143c0-1.782-0.774-2.755-1.981-2.755c-1.782,0-1.98,2.143-1.98,3.062
				C148.59,41.668,149.094,43.018,150.427,43.018z"/>
			<path fill="#006C85" d="M161.011,35.258c3.295,0,4.717,2.232,4.717,4.771c0,2.557-1.476,4.861-4.771,4.861
				c-2.593,0-4.645-1.603-4.645-4.789C156.312,37.905,157.428,35.258,161.011,35.258z M161.047,43.036
				c1.17,0,1.962-0.702,1.962-3.115c0-1.206-0.234-2.881-1.999-2.881c-1.944,0-1.962,2.251-1.962,3.079
				C159.049,42.154,159.733,43.036,161.047,43.036z"/>
			<path fill="#006C85" d="M168.858,41.938c0.036,0.576,0.396,1.242,1.513,1.242c0.954,0,1.404-0.54,1.404-1.08
				c0-0.414-0.216-0.738-1.261-1.026l-1.656-0.45c-0.738-0.216-2.305-0.666-2.305-2.521c0-1.765,1.621-2.845,3.979-2.845
				c1.873,0,3.385,0.864,3.457,2.683h-2.431c-0.072-1.009-0.882-1.08-1.296-1.08c-0.72,0-1.26,0.342-1.26,0.9
				c0,0.612,0.45,0.738,1.242,0.954l1.639,0.45c1.657,0.45,2.431,1.296,2.431,2.538c0,1.566-1.35,3.134-4.177,3.134
				c-1.17,0-2.287-0.253-3.115-1.117c-0.594-0.63-0.648-1.35-0.667-1.782H168.858z"/>
			<path fill="#006C85" d="M177.426,40.696c0,0.594,0,2.431,1.854,2.431c0.667,0,1.333-0.252,1.584-1.261h2.431
				c-0.036,0.433-0.126,1.207-0.864,1.98c-0.666,0.703-1.854,1.063-3.187,1.063c-0.774,0-2.25-0.144-3.205-1.134
				c-0.829-0.864-1.17-2.089-1.17-3.547c0-1.477,0.36-3.241,1.891-4.304c0.702-0.468,1.566-0.756,2.557-0.756
				c1.296,0,2.845,0.504,3.673,2.196c0.612,1.242,0.576,2.575,0.541,3.331H177.426z M180.811,39.021
				c0-0.414-0.036-2.034-1.585-2.034c-1.17,0-1.656,0.972-1.71,2.034H180.811z"/>
			<path fill="#006C85" d="M194.311,44.567c-0.09-0.559-0.09-0.973-0.09-1.242c-1.008,1.458-2.215,1.458-2.719,1.458
				c-1.314,0-1.908-0.378-2.269-0.72c-0.54-0.54-0.792-1.278-0.792-1.999c0-0.72,0.252-2.053,1.926-2.827
				c1.117-0.504,2.719-0.504,3.601-0.504c0-0.594-0.018-0.882-0.126-1.206c-0.234-0.666-0.936-0.756-1.188-0.756
				c-0.378,0-0.774,0.161-1.008,0.504c-0.198,0.306-0.198,0.594-0.198,0.81h-2.611c0.018-0.485,0.072-1.458,1.026-2.143
				c0.828-0.594,1.891-0.738,2.755-0.738c0.756,0,2.34,0.127,3.241,1.171c0.612,0.738,0.63,1.818,0.63,2.232l0.018,3.655
				c0,0.774,0.054,1.549,0.216,2.305H194.311z M191.034,41.758c0,0.612,0.414,1.296,1.296,1.296c0.486,0,0.882-0.233,1.134-0.521
				c0.468-0.576,0.504-1.278,0.504-2.251C192.258,40.137,191.034,40.678,191.034,41.758z"/>
			<path fill="#006C85" d="M203.491,44.441c-0.864,0.234-1.639,0.288-2.071,0.288c-2.683,0-2.683-1.692-2.683-2.449v-4.987h-1.747
				v-1.765h1.747v-1.782l2.646-0.973v2.755h2.161v1.765h-2.161v4.105c0.018,0.828,0.018,1.351,1.207,1.351
				c0.396,0,0.576-0.019,0.9-0.055V44.441z"/>
			<path fill="#006C85" d="M208.368,35.258c3.295,0,4.717,2.232,4.717,4.771c0,2.557-1.476,4.861-4.771,4.861
				c-2.593,0-4.645-1.603-4.645-4.789C203.669,37.905,204.785,35.258,208.368,35.258z M208.405,43.036
				c1.17,0,1.962-0.702,1.962-3.115c0-1.206-0.234-2.881-1.999-2.881c-1.944,0-1.962,2.251-1.962,3.079
				C206.406,42.154,207.09,43.036,208.405,43.036z"/>
			<path fill="#006C85" d="M214.361,37.706c0-0.432-0.072-1.746-0.126-2.269h2.502l0.054,1.747c0.342-0.774,0.937-1.873,3.097-1.765
				v2.395c-2.701-0.252-2.863,1.135-2.863,2.269v4.483h-2.665V37.706z"/>
			<path fill="#006C85" d="M222.443,35.474l2.053,6.176l2.089-6.176h2.575l-3.277,9.093h-2.953l-3.331-9.093H222.443z"/>
			<path fill="#006C85" d="M234.667,44.567c-0.09-0.559-0.09-0.973-0.09-1.242c-1.008,1.458-2.215,1.458-2.719,1.458
				c-1.314,0-1.909-0.378-2.269-0.72c-0.54-0.54-0.792-1.278-0.792-1.999c0-0.72,0.252-2.053,1.926-2.827
				c1.117-0.504,2.719-0.504,3.601-0.504c0-0.594-0.018-0.882-0.126-1.206c-0.234-0.666-0.936-0.756-1.188-0.756
				c-0.378,0-0.774,0.161-1.009,0.504c-0.198,0.306-0.198,0.594-0.198,0.81h-2.611c0.018-0.485,0.072-1.458,1.026-2.143
				c0.828-0.594,1.891-0.738,2.755-0.738c0.756,0,2.341,0.127,3.241,1.171c0.612,0.738,0.63,1.818,0.63,2.232l0.018,3.655
				c0,0.774,0.054,1.549,0.216,2.305H234.667z M231.39,41.758c0,0.612,0.414,1.296,1.296,1.296c0.486,0,0.882-0.233,1.134-0.521
				c0.468-0.576,0.504-1.278,0.504-2.251C232.614,40.137,231.39,40.678,231.39,41.758z"/>
			<path fill="#006C85" d="M240.354,41.938c0.036,0.576,0.396,1.242,1.512,1.242c0.955,0,1.405-0.54,1.405-1.08
				c0-0.414-0.216-0.738-1.26-1.026l-1.657-0.45c-0.738-0.216-2.305-0.666-2.305-2.521c0-1.765,1.621-2.845,3.979-2.845
				c1.873,0,3.385,0.864,3.457,2.683h-2.431c-0.072-1.009-0.882-1.08-1.296-1.08c-0.72,0-1.26,0.342-1.26,0.9
				c0,0.612,0.45,0.738,1.242,0.954l1.639,0.45c1.656,0.45,2.431,1.296,2.431,2.538c0,1.566-1.351,3.134-4.177,3.134
				c-1.17,0-2.287-0.253-3.115-1.117c-0.594-0.63-0.648-1.35-0.667-1.782H240.354z"/>
			<path fill="#006C85" d="M252.127,44.441c-0.864,0.234-1.639,0.288-2.071,0.288c-2.683,0-2.683-1.692-2.683-2.449v-4.987h-1.747
				v-1.765h1.747v-1.782l2.646-0.973v2.755h2.161v1.765h-2.161v4.105c0.018,0.828,0.018,1.351,1.207,1.351
				c0.396,0,0.576-0.019,0.9-0.055V44.441z"/>
			<path fill="#006C85" d="M258.516,44.567c-0.09-0.559-0.09-0.973-0.09-1.242c-1.008,1.458-2.215,1.458-2.719,1.458
				c-1.314,0-1.909-0.378-2.269-0.72c-0.54-0.54-0.792-1.278-0.792-1.999c0-0.72,0.252-2.053,1.926-2.827
				c1.117-0.504,2.719-0.504,3.601-0.504c0-0.594-0.018-0.882-0.126-1.206c-0.234-0.666-0.936-0.756-1.188-0.756
				c-0.378,0-0.774,0.161-1.009,0.504c-0.198,0.306-0.198,0.594-0.198,0.81h-2.611c0.018-0.485,0.072-1.458,1.026-2.143
				c0.828-0.594,1.891-0.738,2.755-0.738c0.756,0,2.341,0.127,3.241,1.171c0.612,0.738,0.63,1.818,0.63,2.232l0.018,3.655
				c0,0.774,0.054,1.549,0.216,2.305H258.516z M255.24,41.758c0,0.612,0.414,1.296,1.296,1.296c0.486,0,0.882-0.233,1.134-0.521
				c0.468-0.576,0.504-1.278,0.504-2.251C256.464,40.137,255.24,40.678,255.24,41.758z"/>
			<path fill="#006C85" d="M267.697,44.441c-0.864,0.234-1.639,0.288-2.071,0.288c-2.683,0-2.683-1.692-2.683-2.449v-4.987h-1.747
				v-1.765h1.747v-1.782l2.646-0.973v2.755h2.161v1.765h-2.161v4.105c0.018,0.828,0.018,1.351,1.207,1.351
				c0.396,0,0.576-0.019,0.9-0.055V44.441z"/>
			<path fill="#006C85" d="M268.541,31.567h2.845v2.323h-2.845V31.567z M268.631,35.456h2.665v9.11h-2.665V35.456z"/>
			<path fill="#006C85" d="M272.951,37.094c0-0.035,0-1.025-0.054-1.656h2.557l0.072,1.368c0.252-0.414,0.972-1.584,2.953-1.584
				c1.783,0,2.539,1.08,2.773,1.71c0.198,0.559,0.252,1.026,0.252,2.72v4.915h-2.719v-5.653c0-0.379,0-0.702-0.144-0.99
				c-0.198-0.396-0.612-0.774-1.296-0.774c-0.576,0-1.098,0.27-1.386,0.702c-0.162,0.233-0.324,0.684-0.324,1.386v5.33h-2.683
				V37.094z"/>
			<path fill="#006C85" d="M291.222,30.937c-0.594,1.801-1.584,4.717-1.584,7.94c0,2.412,0.504,4.213,1.566,7.904h-1.962
				c-1.026-2.503-1.819-5.113-1.819-7.814c0-2.772,0.828-5.456,1.837-8.03H291.222z"/>
			<path fill="#006C85" d="M292.336,35.294c0-1.53,1.278-3.512,4.339-3.512c2.521,0,4.267,1.44,4.267,3.403
				c0,1.513-1.188,2.557-2.467,2.755c0.504,0.144,1.351,0.36,2.017,1.296c0.432,0.612,0.576,1.261,0.576,1.873
				c0,2.305-2.143,3.655-4.609,3.655c-2.557,0-4.321-1.639-4.321-3.655c0-0.973,0.378-1.675,0.918-2.196
				c0.612-0.595,1.188-0.774,1.656-0.937C294.083,37.779,292.336,37.239,292.336,35.294z M298.422,40.93
				c0-1.135-0.846-1.819-1.8-1.819c-1.044,0-1.8,0.793-1.8,1.854c0,1.279,0.954,1.873,1.818,1.873
				C297.396,42.838,298.422,42.334,298.422,40.93z M298.332,35.33c0-1.026-0.828-1.566-1.674-1.566c-0.9,0-1.639,0.611-1.639,1.566
				c0,0.882,0.63,1.62,1.621,1.62C297.557,36.95,298.332,36.338,298.332,35.33z"/>
			<path fill="#006C85" d="M305.927,31.819c1.765,0,2.809,0.954,3.277,1.656c0.648,0.955,1.134,2.179,1.134,4.538
				c0,2.917-0.666,6.752-4.447,6.752c-3.223,0-4.339-3.097-4.339-6.446C301.552,36.645,301.894,31.819,305.927,31.819z
				 M307.314,35.366c-0.072-0.342-0.378-1.458-1.368-1.458c-0.774,0-1.117,0.702-1.243,1.08c-0.414,1.278-0.414,3.205-0.414,3.512
				c0,2.143,0.324,4.141,1.675,4.141c1.44,0,1.674-2.448,1.674-4.177C307.638,37.67,307.548,36.195,307.314,35.366z"/>
			<path fill="#006C85" d="M315.665,37.185c0-0.576-0.036-1.135-0.09-1.711h2.575l0.09,1.171c0.288-0.396,0.99-1.369,2.809-1.369
				c2.089,0,2.683,1.278,2.863,1.711c0.756-1.459,1.98-1.692,2.917-1.692c1.836,0,2.575,1.098,2.773,1.458
				c0.486,0.792,0.45,1.891,0.45,2.683v5.132h-2.683v-5.348c0-0.973-0.144-2.053-1.53-2.053c-1.603,0-1.639,1.494-1.639,2.845v4.556
				h-2.683v-5.401c0-0.702-0.018-1.999-1.495-1.999c-1.674,0-1.674,1.44-1.674,2.053v5.348h-2.683V37.185z"/>
			<path fill="#006C85" d="M340.507,35.51c-0.072,0.72-0.126,1.332-0.126,2.251v6.716c0,3.349-2.791,3.673-4.538,3.673
				c-1.296,0-3.835-0.162-3.997-2.917h2.557c0.036,0.271,0.162,1.261,1.584,1.261c0.792,0,1.477-0.378,1.657-1.188
				c0.108-0.45,0.108-0.774,0.126-2.161c-0.846,1.117-1.8,1.243-2.449,1.243c-2.611,0-3.835-2.27-3.835-4.466
				c0-2.305,1.278-4.501,3.889-4.501c1.656,0,2.269,0.9,2.539,1.296l0.09-1.206H340.507z M335.933,42.568
				c1.873,0,1.873-2.196,1.873-2.593c0-1.025-0.198-2.772-1.819-2.772c-1.008,0-1.836,0.774-1.836,2.719
				C334.151,40.371,334.151,42.568,335.933,42.568z"/>
			<path fill="#006C85" d="M352.458,31.567h2.683V43.09c0,0.54,0.036,1.135,0.072,1.477h-2.701l-0.072-1.314
				c-0.18,0.324-0.36,0.666-0.918,1.026c-0.667,0.433-1.369,0.468-1.765,0.468c-2.431,0-3.871-1.674-3.871-4.519
				c0-3.007,1.638-4.88,4.015-4.88c1.639,0,2.323,0.918,2.557,1.242V31.567z M350.423,43.018c0.774,0,1.405-0.468,1.693-1.026
				c0.396-0.756,0.432-1.692,0.432-2.143c0-1.782-0.774-2.755-1.98-2.755c-1.782,0-1.98,2.143-1.98,3.062
				C348.587,41.668,349.091,43.018,350.423,43.018z"/>
			<path fill="#006C85" d="M362.177,44.567c-0.09-0.559-0.09-0.973-0.09-1.242c-1.008,1.458-2.215,1.458-2.719,1.458
				c-1.314,0-1.909-0.378-2.269-0.72c-0.54-0.54-0.792-1.278-0.792-1.999c0-0.72,0.252-2.053,1.926-2.827
				c1.117-0.504,2.719-0.504,3.601-0.504c0-0.594-0.018-0.882-0.126-1.206c-0.234-0.666-0.936-0.756-1.188-0.756
				c-0.378,0-0.774,0.161-1.009,0.504c-0.198,0.306-0.198,0.594-0.198,0.81h-2.611c0.018-0.485,0.072-1.458,1.026-2.143
				c0.828-0.594,1.891-0.738,2.755-0.738c0.756,0,2.341,0.127,3.241,1.171c0.612,0.738,0.63,1.818,0.63,2.232l0.018,3.655
				c0,0.774,0.054,1.549,0.216,2.305H362.177z M358.901,41.758c0,0.612,0.414,1.296,1.296,1.296c0.486,0,0.882-0.233,1.134-0.521
				c0.468-0.576,0.504-1.278,0.504-2.251C360.125,40.137,358.901,40.678,358.901,41.758z"/>
			<path fill="#006C85" d="M365.92,31.567h2.845v2.323h-2.845V31.567z M366.01,35.456h2.665v9.11h-2.665V35.456z"/>
			<path fill="#006C85" d="M370.294,31.549h2.665v13.018h-2.665V31.549z"/>
			<path fill="#006C85" d="M376.54,35.474l1.999,6.302l2.035-6.302h2.647l-3.439,8.931l-1.099,3.619H376l1.152-3.421l-3.493-9.129
				H376.54z"/>
			<path fill="#006C85" d="M383.776,46.782c0.594-1.801,1.584-4.718,1.584-7.94c0-2.431-0.504-4.214-1.566-7.904h1.963
				c1.026,2.484,1.818,5.113,1.818,7.796c0,2.773-0.828,5.456-1.836,8.049H383.776z"/>
			<path fill="#006C85" d="M393.495,31.567h2.647v5.149c0.306-0.432,0.972-1.368,2.629-1.368c1.35,0,2.214,0.666,2.646,1.225
				c0.324,0.45,0.594,1.278,0.594,2.467v5.527h-2.646v-5.438c0-0.522,0-1.98-1.495-1.98c-0.756,0-1.71,0.432-1.71,1.854l0.018,5.563
				h-2.683V31.567z"/>
			<path fill="#006C85" d="M409.157,44.567c-0.09-0.559-0.09-0.973-0.09-1.242c-1.008,1.458-2.215,1.458-2.719,1.458
				c-1.314,0-1.909-0.378-2.269-0.72c-0.54-0.54-0.792-1.278-0.792-1.999c0-0.72,0.252-2.053,1.926-2.827
				c1.117-0.504,2.719-0.504,3.601-0.504c0-0.594-0.018-0.882-0.126-1.206c-0.234-0.666-0.936-0.756-1.188-0.756
				c-0.378,0-0.774,0.161-1.009,0.504c-0.198,0.306-0.198,0.594-0.198,0.81h-2.611c0.018-0.485,0.072-1.458,1.026-2.143
				c0.828-0.594,1.891-0.738,2.755-0.738c0.756,0,2.341,0.127,3.241,1.171c0.612,0.738,0.63,1.818,0.63,2.232l0.018,3.655
				c0,0.774,0.054,1.549,0.216,2.305H409.157z M405.88,41.758c0,0.612,0.414,1.296,1.296,1.296c0.486,0,0.882-0.233,1.134-0.521
				c0.468-0.576,0.504-1.278,0.504-2.251C407.104,40.137,405.88,40.678,405.88,41.758z"/>
			<path fill="#006C85" d="M414.844,41.938c0.036,0.576,0.396,1.242,1.512,1.242c0.955,0,1.405-0.54,1.405-1.08
				c0-0.414-0.216-0.738-1.26-1.026l-1.657-0.45c-0.738-0.216-2.305-0.666-2.305-2.521c0-1.765,1.621-2.845,3.979-2.845
				c1.873,0,3.385,0.864,3.457,2.683h-2.431c-0.072-1.009-0.882-1.08-1.296-1.08c-0.72,0-1.26,0.342-1.26,0.9
				c0,0.612,0.45,0.738,1.242,0.954l1.639,0.45c1.656,0.45,2.431,1.296,2.431,2.538c0,1.566-1.351,3.134-4.177,3.134
				c-1.17,0-2.287-0.253-3.115-1.117c-0.594-0.63-0.648-1.35-0.667-1.782H414.844z"/>
			<path fill="#006C85" d="M425.464,31.585h2.665v4.987c0.9-1.188,2.106-1.225,2.575-1.225c2.215,0,3.961,1.746,3.961,4.808
				c0,3.403-1.981,4.591-3.799,4.591c-0.468,0-1.909-0.035-2.737-1.458c-0.018,0.288-0.036,0.72-0.09,1.278h-2.575V31.585z
				 M429.983,37.13c-1.962,0-1.962,2.233-1.962,2.81c0,2.07,0.882,3.061,2.088,3.061c1.836,0,1.836-2.287,1.836-2.755
				C431.945,39.526,431.909,37.13,429.983,37.13z"/>
			<path fill="#006C85" d="M437.974,40.696c0,0.594,0,2.431,1.854,2.431c0.667,0,1.333-0.252,1.584-1.261h2.431
				c-0.036,0.433-0.126,1.207-0.864,1.98c-0.666,0.703-1.854,1.063-3.187,1.063c-0.774,0-2.25-0.144-3.205-1.134
				c-0.829-0.864-1.17-2.089-1.17-3.547c0-1.477,0.36-3.241,1.891-4.304c0.702-0.468,1.566-0.756,2.557-0.756
				c1.296,0,2.845,0.504,3.673,2.196c0.612,1.242,0.576,2.575,0.541,3.331H437.974z M441.359,39.021
				c0-0.414-0.036-2.034-1.585-2.034c-1.17,0-1.656,0.972-1.71,2.034H441.359z"/>
			<path fill="#006C85" d="M447.262,40.696c0,0.594,0,2.431,1.854,2.431c0.667,0,1.333-0.252,1.584-1.261h2.431
				c-0.036,0.433-0.126,1.207-0.864,1.98c-0.666,0.703-1.854,1.063-3.187,1.063c-0.774,0-2.25-0.144-3.205-1.134
				c-0.829-0.864-1.17-2.089-1.17-3.547c0-1.477,0.36-3.241,1.891-4.304c0.702-0.468,1.566-0.756,2.557-0.756
				c1.296,0,2.845,0.504,3.673,2.196c0.612,1.242,0.576,2.575,0.541,3.331H447.262z M450.647,39.021
				c0-0.414-0.036-2.034-1.585-2.034c-1.17,0-1.656,0.972-1.71,2.034H450.647z"/>
			<path fill="#006C85" d="M454.444,37.094c0-0.035,0-1.025-0.054-1.656h2.557l0.072,1.368c0.252-0.414,0.972-1.584,2.953-1.584
				c1.783,0,2.539,1.08,2.773,1.71c0.198,0.559,0.252,1.026,0.252,2.72v4.915h-2.719v-5.653c0-0.379,0-0.702-0.144-0.99
				c-0.198-0.396-0.612-0.774-1.296-0.774c-0.576,0-1.098,0.27-1.386,0.702c-0.162,0.233-0.324,0.684-0.324,1.386v5.33h-2.683
				V37.094z"/>
			<path fill="#006C85" d="M470.824,41.938c0.036,0.576,0.396,1.242,1.513,1.242c0.954,0,1.404-0.54,1.404-1.08
				c0-0.414-0.216-0.738-1.261-1.026l-1.656-0.45c-0.738-0.216-2.305-0.666-2.305-2.521c0-1.765,1.621-2.845,3.979-2.845
				c1.873,0,3.385,0.864,3.457,2.683h-2.431c-0.072-1.009-0.882-1.08-1.296-1.08c-0.72,0-1.26,0.342-1.26,0.9
				c0,0.612,0.45,0.738,1.242,0.954l1.639,0.45c1.657,0.45,2.431,1.296,2.431,2.538c0,1.566-1.35,3.134-4.177,3.134
				c-1.17,0-2.287-0.253-3.115-1.117c-0.594-0.63-0.648-1.35-0.667-1.782H470.824z"/>
			<path fill="#006C85" d="M477.321,31.567h2.647v5.149c0.306-0.432,0.972-1.368,2.629-1.368c1.35,0,2.214,0.666,2.646,1.225
				c0.324,0.45,0.594,1.278,0.594,2.467v5.527h-2.646v-5.438c0-0.522,0-1.98-1.495-1.98c-0.756,0-1.71,0.432-1.71,1.854l0.018,5.563
				h-2.683V31.567z"/>
			<path fill="#006C85" d="M491.812,35.258c3.295,0,4.717,2.232,4.717,4.771c0,2.557-1.476,4.861-4.771,4.861
				c-2.593,0-4.646-1.603-4.646-4.789C487.113,37.905,488.229,35.258,491.812,35.258z M491.848,43.036
				c1.17,0,1.962-0.702,1.962-3.115c0-1.206-0.234-2.881-1.999-2.881c-1.944,0-1.962,2.251-1.962,3.079
				C489.85,42.154,490.534,43.036,491.848,43.036z"/>
			<path fill="#006C85" d="M499.192,35.474l1.674,6.86l1.927-6.86h2.935l1.909,6.86l1.783-6.86h2.646l-3.115,9.093h-2.899
				l-1.873-6.734l-1.909,6.734h-2.935l-2.971-9.093H499.192z"/>
			<path fill="#006C85" d="M512.763,37.094c0-0.035,0-1.025-0.054-1.656h2.557l0.072,1.368c0.252-0.414,0.972-1.584,2.953-1.584
				c1.783,0,2.539,1.08,2.773,1.71c0.198,0.559,0.252,1.026,0.252,2.72v4.915h-2.719v-5.653c0-0.379,0-0.702-0.144-0.99
				c-0.198-0.396-0.612-0.774-1.296-0.774c-0.576,0-1.098,0.27-1.386,0.702c-0.162,0.233-0.324,0.684-0.324,1.386v5.33h-2.683
				V37.094z"/>
			<path fill="#006C85" d="M532.636,44.441c-0.864,0.234-1.639,0.288-2.071,0.288c-2.683,0-2.683-1.692-2.683-2.449v-4.987h-1.747
				v-1.765h1.747v-1.782l2.646-0.973v2.755h2.161v1.765h-2.161v4.105c0.018,0.828,0.018,1.351,1.207,1.351
				c0.396,0,0.576-0.019,0.9-0.055V44.441z"/>
			<path fill="#006C85" d="M537.514,35.258c3.295,0,4.717,2.232,4.717,4.771c0,2.557-1.476,4.861-4.771,4.861
				c-2.593,0-4.645-1.603-4.645-4.789C532.815,37.905,533.931,35.258,537.514,35.258z M537.55,43.036
				c1.17,0,1.962-0.702,1.962-3.115c0-1.206-0.234-2.881-1.999-2.881c-1.944,0-1.962,2.251-1.962,3.079
				C535.552,42.154,536.236,43.036,537.55,43.036z"/>
			<path fill="#006C85" d="M547.79,37.706c0-0.432-0.072-1.746-0.126-2.269h2.502l0.054,1.747c0.342-0.774,0.936-1.873,3.097-1.765
				v2.395c-2.701-0.252-2.863,1.135-2.863,2.269v4.483h-2.665V37.706z"/>
			<path fill="#006C85" d="M555.693,40.696c0,0.594,0,2.431,1.854,2.431c0.667,0,1.333-0.252,1.584-1.261h2.431
				c-0.036,0.433-0.126,1.207-0.864,1.98c-0.666,0.703-1.854,1.063-3.187,1.063c-0.774,0-2.25-0.144-3.205-1.134
				c-0.829-0.864-1.17-2.089-1.17-3.547c0-1.477,0.36-3.241,1.891-4.304c0.702-0.468,1.566-0.756,2.557-0.756
				c1.296,0,2.845,0.504,3.673,2.196c0.612,1.242,0.576,2.575,0.541,3.331H555.693z M559.078,39.021
				c0-0.414-0.036-2.034-1.585-2.034c-1.17,0-1.656,0.972-1.71,2.034H559.078z"/>
			<path fill="#006C85" d="M568.852,31.567h2.683V43.09c0,0.54,0.036,1.135,0.072,1.477h-2.701l-0.072-1.314
				c-0.18,0.324-0.36,0.666-0.918,1.026c-0.667,0.433-1.369,0.468-1.765,0.468c-2.431,0-3.871-1.674-3.871-4.519
				c0-3.007,1.638-4.88,4.015-4.88c1.638,0,2.323,0.918,2.557,1.242V31.567z M566.817,43.018c0.774,0,1.404-0.468,1.692-1.026
				c0.396-0.756,0.433-1.692,0.433-2.143c0-1.782-0.774-2.755-1.981-2.755c-1.782,0-1.98,2.143-1.98,3.062
				C564.981,41.668,565.485,43.018,566.817,43.018z"/>
			<path fill="#006C85" d="M575.727,35.474v5.42c0,0.792,0,1.998,1.422,1.998c1.71,0,1.71-1.278,1.71-2.826v-4.592h2.737v5.996
				c0.036,1.962,0.054,2.196,0.054,2.431c0.018,0.252,0.036,0.414,0.072,0.666h-2.593l-0.09-1.206
				c-0.27,0.396-0.955,1.44-2.683,1.44c-1.224,0-2.232-0.559-2.737-1.225c-0.594-0.738-0.594-1.999-0.594-2.449v-5.653H575.727z"/>
			<path fill="#006C85" d="M588.201,38.697c-0.036-0.323-0.144-1.674-1.17-1.674c-1.261,0-1.405,1.908-1.405,2.898
				c0,0.504,0.054,2.125,0.667,2.791c0.252,0.271,0.522,0.306,0.72,0.306c0.288,0,1.116-0.126,1.224-1.746h2.629
				c-0.036,0.702-0.126,1.801-1.17,2.683c-0.648,0.559-1.458,0.847-2.593,0.847c-1.207,0-2.269-0.271-3.097-1.207
				c-0.792-0.918-1.152-2.124-1.152-3.583c0-4.141,3.042-4.717,4.249-4.717c1.692,0,3.691,0.936,3.709,3.402H588.201z"/>
			<path fill="#006C85" d="M593.817,40.696c0,0.594,0,2.431,1.854,2.431c0.667,0,1.333-0.252,1.584-1.261h2.431
				c-0.036,0.433-0.126,1.207-0.864,1.98c-0.666,0.703-1.854,1.063-3.187,1.063c-0.774,0-2.25-0.144-3.205-1.134
				c-0.829-0.864-1.17-2.089-1.17-3.547c0-1.477,0.36-3.241,1.891-4.304c0.702-0.468,1.566-0.756,2.557-0.756
				c1.296,0,2.845,0.504,3.673,2.196c0.612,1.242,0.576,2.575,0.541,3.331H593.817z M597.202,39.021
				c0-0.414-0.036-2.034-1.585-2.034c-1.17,0-1.656,0.972-1.71,2.034H597.202z"/>
			<path fill="#006C85" d="M99.736,51.167h2.683v11.523c0,0.54,0.036,1.135,0.072,1.477H99.79l-0.072-1.314
				c-0.18,0.324-0.36,0.666-0.918,1.026c-0.667,0.432-1.369,0.468-1.765,0.468c-2.431,0-3.871-1.674-3.871-4.519
				c0-3.008,1.638-4.88,4.015-4.88c1.639,0,2.323,0.918,2.557,1.242V51.167z M97.701,62.618c0.774,0,1.405-0.468,1.693-1.026
				c0.396-0.756,0.432-1.692,0.432-2.143c0-1.782-0.774-2.755-1.98-2.755c-1.782,0-1.98,2.144-1.98,3.062
				C95.865,61.269,96.369,62.618,97.701,62.618z"/>
			<path fill="#006C85" d="M106.143,60.296c0,0.594,0,2.431,1.854,2.431c0.667,0,1.333-0.252,1.584-1.261h2.431
				c-0.036,0.433-0.126,1.207-0.864,1.981c-0.666,0.702-1.854,1.062-3.187,1.062c-0.774,0-2.25-0.144-3.205-1.134
				c-0.829-0.864-1.17-2.089-1.17-3.547c0-1.477,0.36-3.241,1.891-4.304c0.702-0.468,1.566-0.756,2.557-0.756
				c1.296,0,2.845,0.504,3.673,2.196c0.612,1.242,0.576,2.575,0.541,3.331H106.143z M109.528,58.621
				c0-0.414-0.036-2.034-1.585-2.034c-1.17,0-1.656,0.972-1.71,2.034H109.528z"/>
			<path fill="#006C85" d="M118.744,64.167c-0.09-0.559-0.09-0.973-0.09-1.242c-1.008,1.458-2.215,1.458-2.719,1.458
				c-1.314,0-1.909-0.378-2.269-0.72c-0.54-0.54-0.792-1.278-0.792-1.999c0-0.72,0.252-2.053,1.926-2.826
				c1.117-0.505,2.719-0.505,3.601-0.505c0-0.594-0.018-0.882-0.126-1.206c-0.234-0.666-0.936-0.756-1.188-0.756
				c-0.378,0-0.774,0.162-1.009,0.504c-0.198,0.306-0.198,0.594-0.198,0.811h-2.611c0.018-0.486,0.072-1.459,1.026-2.144
				c0.828-0.594,1.891-0.737,2.755-0.737c0.756,0,2.341,0.126,3.241,1.17c0.612,0.738,0.63,1.818,0.63,2.232l0.018,3.655
				c0,0.774,0.054,1.549,0.216,2.305H118.744z M115.467,61.359c0,0.612,0.414,1.296,1.296,1.296c0.486,0,0.882-0.233,1.134-0.521
				c0.468-0.576,0.504-1.279,0.504-2.251C116.691,59.738,115.467,60.278,115.467,61.359z"/>
			<path fill="#006C85" d="M127.924,64.041c-0.864,0.234-1.639,0.288-2.071,0.288c-2.683,0-2.683-1.692-2.683-2.449v-4.987h-1.747
				v-1.765h1.747v-1.782l2.646-0.973v2.755h2.161v1.765h-2.161v4.105c0.018,0.828,0.018,1.351,1.207,1.351
				c0.396,0,0.576-0.019,0.9-0.054V64.041z"/>
			<path fill="#006C85" d="M128.93,51.167h2.647v5.149c0.306-0.432,0.972-1.368,2.629-1.368c1.35,0,2.214,0.666,2.646,1.225
				c0.324,0.45,0.594,1.278,0.594,2.467v5.527H134.8V58.73c0-0.522,0-1.98-1.495-1.98c-0.756,0-1.71,0.432-1.71,1.854l0.018,5.563
				h-2.683V51.167z"/>
			<path fill="#006C85" d="M148.876,64.167c-0.09-0.559-0.09-0.973-0.09-1.242c-1.008,1.458-2.215,1.458-2.719,1.458
				c-1.314,0-1.909-0.378-2.269-0.72c-0.54-0.54-0.792-1.278-0.792-1.999c0-0.72,0.252-2.053,1.926-2.826
				c1.117-0.505,2.719-0.505,3.601-0.505c0-0.594-0.018-0.882-0.126-1.206c-0.234-0.666-0.936-0.756-1.188-0.756
				c-0.378,0-0.774,0.162-1.009,0.504c-0.198,0.306-0.198,0.594-0.198,0.811h-2.611c0.018-0.486,0.072-1.459,1.026-2.144
				c0.828-0.594,1.891-0.737,2.755-0.737c0.756,0,2.341,0.126,3.241,1.17c0.612,0.738,0.63,1.818,0.63,2.232l0.018,3.655
				c0,0.774,0.054,1.549,0.216,2.305H148.876z M145.599,61.359c0,0.612,0.414,1.296,1.296,1.296c0.486,0,0.882-0.233,1.134-0.521
				c0.468-0.576,0.504-1.279,0.504-2.251C146.823,59.738,145.599,60.278,145.599,61.359z"/>
			<path fill="#006C85" d="M152.744,56.695c0-0.035,0-1.026-0.054-1.656h2.557l0.072,1.368c0.252-0.414,0.972-1.584,2.953-1.584
				c1.783,0,2.539,1.08,2.773,1.711c0.198,0.558,0.252,1.025,0.252,2.719v4.915h-2.719v-5.653c0-0.379,0-0.702-0.144-0.99
				c-0.198-0.396-0.612-0.774-1.296-0.774c-0.576,0-1.098,0.27-1.386,0.702c-0.162,0.234-0.324,0.684-0.324,1.387v5.329h-2.683
				V56.695z"/>
			<path fill="#006C85" d="M169,51.167h2.683v11.523c0,0.54,0.036,1.135,0.072,1.477h-2.701l-0.072-1.314
				c-0.18,0.324-0.36,0.666-0.918,1.026c-0.667,0.432-1.369,0.468-1.765,0.468c-2.431,0-3.871-1.674-3.871-4.519
				c0-3.008,1.638-4.88,4.015-4.88c1.639,0,2.323,0.918,2.557,1.242V51.167z M166.965,62.618c0.774,0,1.405-0.468,1.693-1.026
				c0.396-0.756,0.432-1.692,0.432-2.143c0-1.782-0.774-2.755-1.98-2.755c-1.782,0-1.98,2.144-1.98,3.062
				C165.129,61.269,165.633,62.618,166.965,62.618z"/>
			<path fill="#006C85" d="M177.458,51.167h2.845v2.323h-2.845V51.167z M177.548,55.057h2.665v9.11h-2.665V55.057z"/>
			<path fill="#006C85" d="M183.686,61.538c0.036,0.576,0.396,1.242,1.513,1.242c0.954,0,1.404-0.54,1.404-1.08
				c0-0.414-0.216-0.738-1.261-1.026l-1.656-0.45c-0.738-0.216-2.305-0.666-2.305-2.521c0-1.765,1.621-2.845,3.979-2.845
				c1.873,0,3.385,0.864,3.457,2.683h-2.431c-0.072-1.008-0.882-1.08-1.296-1.08c-0.72,0-1.26,0.342-1.26,0.9
				c0,0.611,0.45,0.738,1.242,0.954l1.639,0.45c1.657,0.45,2.431,1.296,2.431,2.538c0,1.567-1.35,3.134-4.177,3.134
				c-1.17,0-2.287-0.253-3.115-1.117c-0.594-0.63-0.648-1.35-0.667-1.782H183.686z"/>
			<path fill="#006C85" d="M194.919,58.297c-0.036-0.324-0.144-1.674-1.17-1.674c-1.261,0-1.405,1.908-1.405,2.898
				c0,0.504,0.054,2.125,0.667,2.791c0.252,0.27,0.522,0.306,0.72,0.306c0.288,0,1.116-0.126,1.224-1.746h2.629
				c-0.036,0.702-0.126,1.801-1.17,2.683c-0.648,0.559-1.458,0.847-2.593,0.847c-1.207,0-2.269-0.271-3.097-1.207
				c-0.792-0.918-1.152-2.124-1.152-3.583c0-4.141,3.042-4.717,4.249-4.717c1.692,0,3.691,0.936,3.709,3.402H194.919z"/>
			<path fill="#006C85" d="M198.103,51.167h2.647v5.149c0.306-0.432,0.972-1.368,2.629-1.368c1.35,0,2.214,0.666,2.646,1.225
				c0.324,0.45,0.594,1.278,0.594,2.467v5.527h-2.646V58.73c0-0.522,0-1.98-1.495-1.98c-0.756,0-1.71,0.432-1.71,1.854l0.018,5.563
				h-2.683V51.167z"/>
			<path fill="#006C85" d="M210.452,60.296c0,0.594,0,2.431,1.854,2.431c0.667,0,1.333-0.252,1.584-1.261h2.431
				c-0.036,0.433-0.126,1.207-0.864,1.981c-0.666,0.702-1.854,1.062-3.187,1.062c-0.774,0-2.25-0.144-3.205-1.134
				c-0.829-0.864-1.17-2.089-1.17-3.547c0-1.477,0.36-3.241,1.891-4.304c0.702-0.468,1.566-0.756,2.557-0.756
				c1.296,0,2.845,0.504,3.673,2.196c0.612,1.242,0.576,2.575,0.541,3.331H210.452z M213.838,58.621
				c0-0.414-0.036-2.034-1.585-2.034c-1.17,0-1.656,0.972-1.71,2.034H213.838z"/>
			<path fill="#006C85" d="M217.651,56.785c0-0.576-0.036-1.135-0.09-1.711h2.575l0.09,1.17c0.288-0.396,0.99-1.368,2.809-1.368
				c2.089,0,2.683,1.278,2.863,1.711c0.756-1.459,1.981-1.692,2.917-1.692c1.836,0,2.575,1.098,2.773,1.458
				c0.486,0.792,0.45,1.891,0.45,2.683v5.132h-2.683V58.82c0-0.973-0.144-2.053-1.53-2.053c-1.603,0-1.639,1.495-1.639,2.845v4.556
				h-2.683v-5.401c0-0.702-0.018-1.999-1.495-1.999c-1.674,0-1.674,1.44-1.674,2.053v5.348h-2.683V56.785z"/>
			<path fill="#006C85" d="M233.779,51.167h2.845v2.323h-2.845V51.167z M233.869,55.057h2.665v9.11h-2.665V55.057z"/>
			<path fill="#006C85" d="M242.961,58.297c-0.036-0.324-0.145-1.674-1.17-1.674c-1.261,0-1.405,1.908-1.405,2.898
				c0,0.504,0.054,2.125,0.667,2.791c0.252,0.27,0.522,0.306,0.72,0.306c0.288,0,1.116-0.126,1.224-1.746h2.629
				c-0.036,0.702-0.126,1.801-1.17,2.683c-0.648,0.559-1.458,0.847-2.593,0.847c-1.206,0-2.269-0.271-3.097-1.207
				c-0.792-0.918-1.152-2.124-1.152-3.583c0-4.141,3.043-4.717,4.249-4.717c1.692,0,3.691,0.936,3.709,3.402H242.961z"/>
			<path fill="#006C85" d="M252.86,60.296c0,0.594,0,2.431,1.854,2.431c0.667,0,1.333-0.252,1.584-1.261h2.431
				c-0.036,0.433-0.126,1.207-0.864,1.981c-0.666,0.702-1.854,1.062-3.187,1.062c-0.774,0-2.25-0.144-3.205-1.134
				c-0.829-0.864-1.17-2.089-1.17-3.547c0-1.477,0.36-3.241,1.891-4.304c0.702-0.468,1.566-0.756,2.557-0.756
				c1.296,0,2.845,0.504,3.673,2.196c0.612,1.242,0.576,2.575,0.541,3.331H252.86z M256.245,58.621c0-0.414-0.036-2.034-1.585-2.034
				c-1.17,0-1.656,0.972-1.71,2.034H256.245z"/>
			<path fill="#006C85" d="M261.805,55.074l2.053,6.176l2.089-6.176h2.575l-3.277,9.093h-2.953l-3.331-9.093H261.805z"/>
			<path fill="#006C85" d="M271.076,60.296c0,0.594,0,2.431,1.854,2.431c0.666,0,1.333-0.252,1.584-1.261h2.431
				c-0.036,0.433-0.126,1.207-0.864,1.981c-0.666,0.702-1.854,1.062-3.187,1.062c-0.774,0-2.25-0.144-3.205-1.134
				c-0.829-0.864-1.17-2.089-1.17-3.547c0-1.477,0.36-3.241,1.891-4.304c0.702-0.468,1.566-0.756,2.557-0.756
				c1.296,0,2.845,0.504,3.673,2.196c0.612,1.242,0.576,2.575,0.541,3.331H271.076z M274.461,58.621
				c0-0.414-0.036-2.034-1.584-2.034c-1.17,0-1.657,0.972-1.711,2.034H274.461z"/>
			<path fill="#006C85" d="M278.258,56.695c0-0.035,0-1.026-0.054-1.656h2.557l0.072,1.368c0.252-0.414,0.972-1.584,2.953-1.584
				c1.783,0,2.539,1.08,2.773,1.711c0.198,0.558,0.252,1.025,0.252,2.719v4.915h-2.719v-5.653c0-0.379,0-0.702-0.144-0.99
				c-0.198-0.396-0.612-0.774-1.296-0.774c-0.576,0-1.098,0.27-1.386,0.702c-0.162,0.234-0.324,0.684-0.324,1.387v5.329h-2.683
				V56.695z"/>
			<path fill="#006C85" d="M293.847,64.041c-0.864,0.234-1.639,0.288-2.071,0.288c-2.683,0-2.683-1.692-2.683-2.449v-4.987h-1.747
				v-1.765h1.747v-1.782l2.646-0.973v2.755h2.161v1.765h-2.161v4.105c0.018,0.828,0.018,1.351,1.207,1.351
				c0.396,0,0.576-0.019,0.9-0.054V64.041z"/>
			<path fill="#006C85" d="M296.635,61.538c0.036,0.576,0.396,1.242,1.513,1.242c0.954,0,1.404-0.54,1.404-1.08
				c0-0.414-0.216-0.738-1.261-1.026l-1.656-0.45c-0.738-0.216-2.305-0.666-2.305-2.521c0-1.765,1.621-2.845,3.979-2.845
				c1.873,0,3.385,0.864,3.457,2.683h-2.431c-0.072-1.008-0.882-1.08-1.296-1.08c-0.72,0-1.26,0.342-1.26,0.9
				c0,0.611,0.45,0.738,1.242,0.954l1.639,0.45c1.657,0.45,2.431,1.296,2.431,2.538c0,1.567-1.35,3.134-4.177,3.134
				c-1.17,0-2.287-0.253-3.115-1.117c-0.594-0.63-0.648-1.35-0.667-1.782H296.635z"/>
			<path fill="#006C85" d="M312.801,64.167c-0.09-0.559-0.09-0.973-0.09-1.242c-1.008,1.458-2.215,1.458-2.719,1.458
				c-1.314,0-1.909-0.378-2.269-0.72c-0.54-0.54-0.792-1.278-0.792-1.999c0-0.72,0.252-2.053,1.926-2.826
				c1.117-0.505,2.719-0.505,3.601-0.505c0-0.594-0.018-0.882-0.126-1.206c-0.234-0.666-0.936-0.756-1.188-0.756
				c-0.378,0-0.774,0.162-1.009,0.504c-0.198,0.306-0.198,0.594-0.198,0.811h-2.611c0.018-0.486,0.072-1.459,1.026-2.144
				c0.828-0.594,1.891-0.737,2.755-0.737c0.756,0,2.341,0.126,3.241,1.17c0.612,0.738,0.63,1.818,0.63,2.232l0.018,3.655
				c0,0.774,0.054,1.549,0.216,2.305H312.801z M309.524,61.359c0,0.612,0.414,1.296,1.296,1.296c0.486,0,0.882-0.233,1.134-0.521
				c0.468-0.576,0.504-1.279,0.504-2.251C310.748,59.738,309.524,60.278,309.524,61.359z"/>
			<path fill="#006C85" d="M316.687,56.785c0-0.576-0.036-1.135-0.09-1.711h2.575l0.09,1.17c0.288-0.396,0.99-1.368,2.809-1.368
				c2.089,0,2.683,1.278,2.863,1.711c0.756-1.459,1.98-1.692,2.917-1.692c1.836,0,2.575,1.098,2.773,1.458
				c0.486,0.792,0.45,1.891,0.45,2.683v5.132h-2.683V58.82c0-0.973-0.144-2.053-1.53-2.053c-1.603,0-1.639,1.495-1.639,2.845v4.556
				h-2.683v-5.401c0-0.702-0.018-1.999-1.495-1.999c-1.674,0-1.674,1.44-1.674,2.053v5.348h-2.683V56.785z"/>
			<path fill="#006C85" d="M337.19,54.859c3.295,0,4.717,2.232,4.717,4.771c0,2.557-1.476,4.861-4.771,4.861
				c-2.593,0-4.645-1.603-4.645-4.79C332.49,57.505,333.607,54.859,337.19,54.859z M337.226,62.637c1.17,0,1.962-0.702,1.962-3.115
				c0-1.206-0.234-2.881-1.999-2.881c-1.944,0-1.962,2.251-1.962,3.079C335.227,61.754,335.911,62.637,337.226,62.637z"/>
			<path fill="#006C85" d="M343.219,56.695c0-0.035,0-1.026-0.054-1.656h2.557l0.072,1.368c0.252-0.414,0.972-1.584,2.953-1.584
				c1.783,0,2.539,1.08,2.773,1.711c0.198,0.558,0.252,1.025,0.252,2.719v4.915h-2.719v-5.653c0-0.379,0-0.702-0.144-0.99
				c-0.198-0.396-0.612-0.774-1.296-0.774c-0.576,0-1.098,0.27-1.386,0.702c-0.162,0.234-0.324,0.684-0.324,1.387v5.329h-2.683
				V56.695z"/>
			<path fill="#006C85" d="M362.085,55.111c-0.072,0.72-0.126,1.332-0.126,2.251v6.716c0,3.349-2.791,3.673-4.538,3.673
				c-1.296,0-3.835-0.162-3.997-2.917h2.557c0.036,0.271,0.162,1.261,1.584,1.261c0.792,0,1.477-0.378,1.657-1.188
				c0.108-0.45,0.108-0.774,0.126-2.161c-0.846,1.117-1.8,1.243-2.449,1.243c-2.611,0-3.835-2.269-3.835-4.466
				c0-2.305,1.278-4.501,3.889-4.501c1.656,0,2.269,0.9,2.539,1.296l0.09-1.206H362.085z M357.511,62.168
				c1.873,0,1.873-2.196,1.873-2.593c0-1.026-0.198-2.772-1.819-2.772c-1.008,0-1.836,0.774-1.836,2.719
				C355.729,59.972,355.729,62.168,357.511,62.168z"/>
			<path fill="#006C85" d="M370.525,55.074l0.072,1.297c0.828-1.459,2.341-1.477,2.773-1.477c2.358,0,3.781,1.765,3.781,4.537
				c0,2.574-1.333,4.861-3.961,4.861c-1.639,0-2.305-0.864-2.539-1.17v4.537h-2.719V55.074H370.525z M374.45,59.54
				c0-1.081-0.27-2.936-1.836-2.936c-0.864,0-2.088,0.648-2.088,3.097c0,0.541,0.018,2.846,1.98,2.846
				C373.766,62.547,374.45,61.34,374.45,59.54z"/>
			<path fill="#006C85" d="M383.756,64.167c-0.09-0.559-0.09-0.973-0.09-1.242c-1.008,1.458-2.215,1.458-2.719,1.458
				c-1.314,0-1.909-0.378-2.269-0.72c-0.54-0.54-0.792-1.278-0.792-1.999c0-0.72,0.252-2.053,1.926-2.826
				c1.117-0.505,2.719-0.505,3.601-0.505c0-0.594-0.018-0.882-0.126-1.206c-0.234-0.666-0.936-0.756-1.188-0.756
				c-0.378,0-0.774,0.162-1.009,0.504c-0.198,0.306-0.198,0.594-0.198,0.811h-2.611c0.018-0.486,0.072-1.459,1.026-2.144
				c0.828-0.594,1.891-0.737,2.755-0.737c0.756,0,2.341,0.126,3.241,1.17c0.612,0.738,0.63,1.818,0.63,2.232l0.018,3.655
				c0,0.774,0.054,1.549,0.216,2.305H383.756z M380.479,61.359c0,0.612,0.414,1.296,1.296,1.296c0.486,0,0.882-0.233,1.134-0.521
				c0.468-0.576,0.504-1.279,0.504-2.251C381.703,59.738,380.479,60.278,380.479,61.359z"/>
			<path fill="#006C85" d="M392.936,64.041c-0.864,0.234-1.639,0.288-2.071,0.288c-2.683,0-2.683-1.692-2.683-2.449v-4.987h-1.747
				v-1.765h1.747v-1.782l2.646-0.973v2.755h2.161v1.765h-2.161v4.105c0.018,0.828,0.018,1.351,1.207,1.351
				c0.396,0,0.576-0.019,0.9-0.054V64.041z"/>
			<path fill="#006C85" d="M393.78,51.167h2.845v2.323h-2.845V51.167z M393.87,55.057h2.665v9.11h-2.665V55.057z"/>
			<path fill="#006C85" d="M400.297,60.296c0,0.594,0,2.431,1.854,2.431c0.666,0,1.333-0.252,1.584-1.261h2.431
				c-0.036,0.433-0.126,1.207-0.864,1.981c-0.666,0.702-1.854,1.062-3.187,1.062c-0.774,0-2.25-0.144-3.205-1.134
				c-0.829-0.864-1.17-2.089-1.17-3.547c0-1.477,0.36-3.241,1.891-4.304c0.702-0.468,1.566-0.756,2.557-0.756
				c1.296,0,2.845,0.504,3.673,2.196c0.612,1.242,0.576,2.575,0.541,3.331H400.297z M403.681,58.621
				c0-0.414-0.036-2.034-1.584-2.034c-1.17,0-1.657,0.972-1.711,2.034H403.681z"/>
			<path fill="#006C85" d="M407.478,56.695c0-0.035,0-1.026-0.054-1.656h2.557l0.072,1.368c0.252-0.414,0.972-1.584,2.953-1.584
				c1.783,0,2.539,1.08,2.773,1.711c0.198,0.558,0.252,1.025,0.252,2.719v4.915h-2.719v-5.653c0-0.379,0-0.702-0.144-0.99
				c-0.198-0.396-0.612-0.774-1.296-0.774c-0.576,0-1.098,0.27-1.386,0.702c-0.162,0.234-0.324,0.684-0.324,1.387v5.329h-2.683
				V56.695z"/>
			<path fill="#006C85" d="M423.068,64.041c-0.864,0.234-1.639,0.288-2.071,0.288c-2.683,0-2.683-1.692-2.683-2.449v-4.987h-1.747
				v-1.765h1.747v-1.782l2.646-0.973v2.755h2.161v1.765h-2.161v4.105c0.018,0.828,0.018,1.351,1.207,1.351
				c0.396,0,0.576-0.019,0.9-0.054V64.041z"/>
			<path fill="#006C85" d="M425.856,61.538c0.036,0.576,0.396,1.242,1.513,1.242c0.954,0,1.404-0.54,1.404-1.08
				c0-0.414-0.216-0.738-1.261-1.026l-1.656-0.45c-0.738-0.216-2.305-0.666-2.305-2.521c0-1.765,1.621-2.845,3.979-2.845
				c1.873,0,3.385,0.864,3.457,2.683h-2.431c-0.072-1.008-0.882-1.08-1.296-1.08c-0.72,0-1.26,0.342-1.26,0.9
				c0,0.611,0.45,0.738,1.242,0.954l1.639,0.45c1.657,0.45,2.431,1.296,2.431,2.538c0,1.567-1.35,3.134-4.177,3.134
				c-1.17,0-2.287-0.253-3.115-1.117c-0.594-0.63-0.648-1.35-0.667-1.782H425.856z"/>
			<path fill="#006C85" d="M438.312,55.074l1.674,6.86l1.927-6.86h2.935l1.909,6.86l1.783-6.86h2.646l-3.115,9.093h-2.899
				l-1.873-6.734l-1.909,6.734h-2.935l-2.971-9.093H438.312z"/>
			<path fill="#006C85" d="M451.758,51.167h2.845v2.323h-2.845V51.167z M451.847,55.057h2.665v9.11h-2.665V55.057z"/>
			<path fill="#006C85" d="M461.479,64.041c-0.864,0.234-1.639,0.288-2.071,0.288c-2.683,0-2.683-1.692-2.683-2.449v-4.987h-1.747
				v-1.765h1.747v-1.782l2.646-0.973v2.755h2.161v1.765h-2.161v4.105c0.018,0.828,0.018,1.351,1.207,1.351
				c0.396,0,0.576-0.019,0.9-0.054V64.041z"/>
			<path fill="#006C85" d="M462.485,51.167h2.647v5.149c0.306-0.432,0.972-1.368,2.629-1.368c1.35,0,2.214,0.666,2.646,1.225
				c0.324,0.45,0.594,1.278,0.594,2.467v5.527h-2.646V58.73c0-0.522,0-1.98-1.495-1.98c-0.756,0-1.71,0.432-1.71,1.854l0.018,5.563
				h-2.683V51.167z"/>
			<path fill="#006C85" d="M482.468,51.15l4.519,13.018h-2.809l-0.937-2.809h-5.149l-0.972,2.809h-2.665l4.7-13.018H482.468z
				 M482.539,59.252l-1.8-5.546l-1.927,5.546H482.539z"/>
			<path fill="#006C85" d="M494.869,55.399c-0.054-0.45-0.216-2.287-2.106-2.287c-2.07,0-2.935,2.161-2.935,4.844
				c0,0.774,0,4.466,2.719,4.466c1.17,0,2.287-0.738,2.34-2.467h2.935c-0.054,0.773-0.126,1.98-1.17,3.061
				c-1.152,1.188-2.611,1.458-3.799,1.458c-4.483,0-5.941-3.313-5.941-6.535c0-4.124,2.305-6.86,5.959-6.86
				c2.845,0,4.844,1.729,4.844,4.321H494.869z"/>
			<path fill="#006C85" d="M501.06,60.008c0,0.612-0.036,2.467,2.359,2.467c1.512,0,2.466-0.721,2.466-1.818
				c0-1.152-0.81-1.351-2.466-1.747c-3.097-0.774-4.79-1.692-4.79-3.943c0-2.143,1.53-4.033,5.149-4.033
				c1.351,0,2.953,0.307,3.925,1.531c0.738,0.936,0.738,1.98,0.738,2.412h-2.683c-0.036-0.45-0.18-1.98-2.106-1.98
				c-1.296,0-2.143,0.702-2.143,1.765c0,1.206,0.954,1.423,2.827,1.891c2.251,0.54,4.465,1.152,4.465,3.691
				c0,2.34-1.944,4.23-5.545,4.23c-4.988,0-5.023-3.204-5.042-4.465H501.06z"/>
			<path fill="#006C85" d="M509.861,61.773h2.287v2.395h-2.287V61.773z"/>
			<path fill="#006C85" d="M513.075,56.693l1.9-1.731c0.336-0.305,0.714-0.641,1.102-1.113c0.41-0.493,0.504-0.725,0.504-1.061
				c0-0.557-0.325-0.934-0.871-0.934c-0.84,0-0.913,0.86-0.924,1.07h-1.606c0-0.294,0-0.84,0.431-1.375
				c0.42-0.525,1.197-0.798,2.089-0.798c1.596,0,2.478,0.86,2.478,1.994c0,0.756-0.294,1.732-3.464,4.283
				c1.06-0.021,1.186-0.031,2.016-0.042c1.123-0.021,1.249-0.021,1.49-0.031v1.218h-5.144V56.693z"/>
		</g>
	</g>
</g>
</svg>
