<?xml version="1.0" encoding="utf-8"?>
<!-- Generator: Adobe Illustrator 17.0.0, SVG Export Plug-In . SVG Version: 6.00 Build 0)  -->
<!DOCTYPE svg PUBLIC "-//W3C//DTD SVG 1.1//EN" "http://www.w3.org/Graphics/SVG/1.1/DTD/svg11.dtd">
<svg version="1.1" id="Layer_1" xmlns="http://www.w3.org/2000/svg" xmlns:xlink="http://www.w3.org/1999/xlink" x="0px" y="0px"
	 width="74.021px" height="7.85px" viewBox="0 0 74.021 7.85" enable-background="new 0 0 74.021 7.85" xml:space="preserve">
<g>
	<path fill="#00435B" d="M2.575,0.102H3.48l2.473,6.114H5.03L4.37,4.623H1.533l-0.66,1.593H0L2.575,0.102z M1.804,3.938h2.312
		L2.989,0.939L1.804,3.938z"/>
	<path fill="#00435B" d="M9.726,0.109h0.796v5.429c0,0.093,0.017,0.457,0.034,0.678H9.76L9.743,5.538
		C9.675,5.656,9.582,5.835,9.362,5.987C9.015,6.224,8.6,6.3,8.312,6.3c-0.567,0-1.829-0.296-1.829-2.159
		c0-1.617,0.923-2.32,1.922-2.32c0.915,0,1.22,0.542,1.321,0.72V0.109z M9.43,2.845C9.26,2.625,8.947,2.413,8.498,2.413
		c-1.168,0-1.168,1.414-1.168,1.702c0,0.754,0.194,1.626,1.168,1.626c1.253,0,1.253-1.38,1.253-1.711
		C9.751,3.412,9.607,3.073,9.43,2.845z"/>
	<path fill="#00435B" d="M14.541,6.216c-0.059-0.212-0.076-0.415-0.076-0.636c-0.381,0.703-0.957,0.771-1.313,0.771
		c-0.974,0-1.499-0.55-1.499-1.253c0-0.339,0.119-0.881,0.745-1.245c0.458-0.254,1.135-0.279,1.474-0.279
		c0.204,0,0.331,0.009,0.576,0.025c0-0.525,0-0.754-0.153-0.939c-0.161-0.212-0.508-0.28-0.736-0.28
		c-0.805,0-0.847,0.551-0.855,0.72h-0.796c0.025-0.22,0.051-0.516,0.296-0.804c0.322-0.356,0.923-0.458,1.372-0.458
		c0.618,0,1.279,0.195,1.507,0.627c0.136,0.254,0.144,0.457,0.144,0.652l-0.034,2.032c0,0.067,0.008,0.635,0.068,1.067H14.541z
		 M13.99,4.124c-0.322,0-1.533,0-1.533,0.863c0,0.271,0.169,0.737,0.881,0.737c0.406,0,0.711-0.161,0.906-0.458
		c0.178-0.287,0.187-0.524,0.204-1.117C14.304,4.132,14.185,4.124,13.99,4.124z"/>
	<path fill="#00435B" d="M16.629,2.659c0-0.187-0.008-0.288-0.025-0.695h0.805l0.017,0.703c0.398-0.669,1.101-0.771,1.448-0.771
		c0.915,0,1.787,0.627,1.787,2.202c0,1.583-0.923,2.278-1.939,2.278c-0.618,0-1.076-0.263-1.304-0.636V7.85h-0.788V2.659z
		 M18.585,5.792c0.203,0,0.626-0.042,0.897-0.415c0.305-0.415,0.347-1.024,0.347-1.329c0-0.763-0.229-1.559-1.168-1.559
		c-1.271,0-1.271,1.347-1.271,1.728C17.391,4.733,17.467,5.792,18.585,5.792z"/>
	<path fill="#00435B" d="M21.173,1.947h0.753V1.059l0.788-0.255v1.144h0.949v0.584h-0.949v2.55c0,0.212,0,0.567,0.567,0.567
		c0.161,0,0.313-0.025,0.381-0.043v0.618c-0.144,0.025-0.373,0.051-0.661,0.051c-0.729,0-1.076-0.211-1.076-0.905V2.531h-0.753
		V1.947z"/>
	<path fill="#00435B" d="M25.125,4.234c-0.017,0.88,0.347,1.532,1.219,1.532c0.517,0,0.932-0.271,1-0.881h0.796
		c-0.025,0.212-0.059,0.56-0.364,0.89c-0.186,0.212-0.609,0.567-1.465,0.567c-1.338,0-1.973-0.83-1.973-2.177
		c0-0.838,0.169-1.532,0.838-1.998c0.406-0.288,0.915-0.313,1.16-0.313c1.905,0,1.863,1.685,1.846,2.38H25.125z M27.37,3.675
		c0.008-0.406-0.068-1.253-1.05-1.253c-0.517,0-1.143,0.313-1.16,1.253H27.37z"/>
	<path fill="#00435B" d="M32.295,0.109h0.796v5.429c0,0.093,0.017,0.457,0.034,0.678h-0.796l-0.017-0.678
		c-0.068,0.118-0.161,0.297-0.381,0.449C31.583,6.224,31.168,6.3,30.88,6.3c-0.567,0-1.829-0.296-1.829-2.159
		c0-1.617,0.923-2.32,1.922-2.32c0.915,0,1.22,0.542,1.321,0.72V0.109z M31.999,2.845c-0.169-0.22-0.483-0.432-0.932-0.432
		c-1.168,0-1.168,1.414-1.168,1.702c0,0.754,0.195,1.626,1.168,1.626c1.253,0,1.253-1.38,1.253-1.711
		C32.32,3.412,32.176,3.073,31.999,2.845z"/>
	<path fill="#00435B" d="M38.997,0.694c-0.136-0.009-0.305-0.018-0.466-0.018c-0.644,0-0.644,0.322-0.644,0.618v0.669h0.991V2.54
		h-0.991v3.676H37.1V2.54h-0.838V1.964H37.1V1.481c0-0.584,0.034-0.796,0.178-1.016C37.455,0.194,37.794,0,38.344,0
		c0.229,0,0.483,0.033,0.652,0.059V0.694z"/>
	<path fill="#00435B" d="M39.731,2.828c0-0.288-0.017-0.584-0.042-0.864h0.805l0.017,0.822c0.152-0.593,0.66-0.788,1.016-0.839
		c0.237-0.034,0.415-0.025,0.55-0.017V2.71c-0.042-0.018-0.093-0.025-0.152-0.034s-0.136-0.009-0.229-0.009
		c-0.94,0-1.16,0.56-1.16,1.287v2.262h-0.805V2.828z"/>
	<path fill="#00435B" d="M44.826,1.854c1.702,0,2.083,1.338,2.083,2.227c0,1.245-0.703,2.278-2.151,2.278
		c-1.406,0-2.091-0.974-2.091-2.219C42.667,3.091,43.158,1.854,44.826,1.854z M44.775,5.767c0.602,0,1.287-0.432,1.287-1.711
		c0-1.059-0.491-1.617-1.236-1.617c-0.508,0-1.33,0.322-1.33,1.651C43.497,4.962,43.869,5.767,44.775,5.767z"/>
	<path fill="#00435B" d="M48.142,2.531l-0.017-0.567h0.805v0.619c0.406-0.67,0.982-0.729,1.347-0.729
		c0.94,0,1.236,0.482,1.389,0.796c0.144-0.237,0.491-0.796,1.431-0.796c0.61,0,1.558,0.254,1.558,1.507v2.854H53.85V3.488
		c0-0.372-0.068-0.533-0.144-0.644c-0.136-0.194-0.407-0.372-0.813-0.372c-0.517,0-0.796,0.296-0.906,0.448
		C51.8,3.184,51.8,3.649,51.8,3.836v2.38h-0.804V3.404c0-0.525-0.305-0.932-0.932-0.932c-0.542,0-0.838,0.339-0.932,0.466
		c-0.178,0.245-0.186,0.593-0.186,0.863v2.414h-0.805V2.531z"/>
	<path fill="#00435B" d="M58.534,2.828c0-0.288-0.017-0.584-0.042-0.864h0.805l0.017,0.822c0.152-0.593,0.66-0.788,1.016-0.839
		c0.237-0.034,0.415-0.025,0.55-0.017V2.71c-0.042-0.018-0.093-0.025-0.152-0.034s-0.136-0.009-0.229-0.009
		c-0.94,0-1.16,0.56-1.16,1.287v2.262h-0.805V2.828z"/>
	<path fill="#00435B" d="M62.266,4.234c-0.017,0.88,0.347,1.532,1.219,1.532c0.517,0,0.932-0.271,1-0.881h0.796
		c-0.025,0.212-0.059,0.56-0.364,0.89c-0.186,0.212-0.609,0.567-1.465,0.567c-1.338,0-1.973-0.83-1.973-2.177
		c0-0.838,0.169-1.532,0.838-1.998c0.406-0.288,0.915-0.313,1.16-0.313c1.905,0,1.863,1.685,1.846,2.38H62.266z M64.51,3.675
		c0.008-0.406-0.068-1.253-1.05-1.253c-0.517,0-1.143,0.313-1.16,1.253H64.51z"/>
	<path fill="#00435B" d="M68.614,0.694c-0.136-0.009-0.305-0.018-0.466-0.018c-0.644,0-0.644,0.322-0.644,0.618v0.669h0.991V2.54
		h-0.991v3.676h-0.787V2.54h-0.839V1.964h0.839V1.481c0-0.584,0.034-0.796,0.178-1.016C67.073,0.194,67.412,0,67.962,0
		c0.229,0,0.483,0.033,0.652,0.059V0.694z"/>
	<path fill="#00435B" d="M69.247,5.199h0.94v1.017h-0.94V5.199z"/>
	<path fill="#00435B" d="M73.208,1.278c-0.364,0.305-0.948,0.652-1.363,0.847V1.278c0.55-0.288,1.092-0.644,1.423-0.923h0.753v5.86
		h-0.813V1.278z"/>
</g>
</svg>
