<?xml version="1.0" encoding="utf-8"?>
<!-- Generator: Adobe Illustrator 17.0.0, SVG Export Plug-In . SVG Version: 6.00 Build 0)  -->
<!DOCTYPE svg PUBLIC "-//W3C//DTD SVG 1.1//EN" "http://www.w3.org/Graphics/SVG/1.1/DTD/svg11.dtd">
<svg version="1.1" id="Layer_1" xmlns="http://www.w3.org/2000/svg" xmlns:xlink="http://www.w3.org/1999/xlink" x="0px" y="0px"
	 width="432.96px" height="29.031px" viewBox="0 0 432.96 29.031" enable-background="new 0 0 432.96 29.031" xml:space="preserve">
<g>
	<g>
		<path fill="#231F20" d="M3.46,2.385l-1.48-0.164l0.878,1.188L2.299,3.753l-0.577-1.36l-0.62,1.343L0.517,3.417l0.912-1.196
			L0,2.341V1.713l1.455,0.189L0.577,0.697l0.567-0.31l0.577,1.334l0.594-1.343l0.577,0.318L1.988,1.902L3.46,1.739V2.385z"/>
		<path fill="#231F20" d="M7.879,4.769c0.018,0.43,0.068,1.23,1.498,1.23c1.29,0,1.453-0.801,1.453-1.11
			c0-0.697-0.559-0.835-1.428-1.05C8.455,3.606,8.033,3.503,7.715,3.288C7.207,2.943,7.07,2.479,7.07,2.065
			c0-1.265,1.195-1.815,2.366-1.815c0.413,0,1.248,0.068,1.747,0.611c0.344,0.378,0.361,0.8,0.379,1.059h-0.896
			c-0.043-0.775-0.696-0.947-1.308-0.947c-0.861,0-1.377,0.388-1.377,1.007c0,0.551,0.361,0.74,1.119,0.921
			c1.479,0.379,1.643,0.413,2.004,0.654c0.577,0.379,0.62,0.981,0.62,1.239c0,1.102-0.86,1.937-2.452,1.937
			c-0.474,0-1.438-0.078-1.928-0.706C6.992,5.568,6.984,5.069,6.984,4.769H7.879z"/>
		<path fill="#231F20" d="M13.324,4.57c-0.018,0.895,0.352,1.558,1.238,1.558c0.525,0,0.947-0.275,1.016-0.896h0.809
			c-0.025,0.216-0.06,0.568-0.369,0.904c-0.189,0.215-0.62,0.576-1.489,0.576c-1.36,0-2.005-0.843-2.005-2.212
			c0-0.852,0.172-1.558,0.852-2.03c0.413-0.293,0.93-0.318,1.18-0.318c1.936,0,1.893,1.712,1.875,2.418H13.324z M15.604,4.002
			c0.01-0.413-0.068-1.273-1.066-1.273c-0.525,0-1.162,0.318-1.18,1.273H15.604z"/>
		<path fill="#231F20" d="M18.105,4.57c-0.018,0.895,0.353,1.558,1.239,1.558c0.524,0,0.946-0.275,1.015-0.896h0.81
			c-0.026,0.216-0.06,0.568-0.37,0.904c-0.189,0.215-0.619,0.576-1.488,0.576c-1.36,0-2.006-0.843-2.006-2.212
			c0-0.852,0.172-1.558,0.852-2.03c0.414-0.293,0.93-0.318,1.18-0.318c1.937,0,1.894,1.712,1.876,2.418H18.105z M20.386,4.002
			c0.009-0.413-0.069-1.273-1.067-1.273c-0.524,0-1.162,0.318-1.179,1.273H20.386z"/>
		<path fill="#231F20" d="M24.831,0.37h0.853v5.448h2.891v0.766h-3.743V0.37z"/>
		<path fill="#231F20" d="M29.57,0.37h0.86v6.214h-0.86V0.37z"/>
		<path fill="#231F20" d="M31.961,0.37h2.082c0.758,0,1.274,0.043,1.695,0.499c0.311,0.319,0.457,0.74,0.457,1.205
			c0,0.474-0.155,0.878-0.49,1.214c-0.328,0.327-0.758,0.533-1.877,0.533h-1.007v2.763h-0.86V0.37z M32.821,3.099h1.024
			c0.568,0,1.438-0.043,1.438-1.059c0-0.973-0.81-0.973-1.257-0.973h-1.205V3.099z"/>
		<path fill="#231F20" d="M37.216,0.37h0.86v6.214h-0.86V0.37z"/>
		<path fill="#231F20" d="M41.113,6.584V1.102H39.03V0.37h5.018v0.731h-2.083v5.482H41.113z"/>
		<path fill="#231F20" d="M45.068,1.042c0.646-0.697,1.498-0.835,2.074-0.835c1.722,0,2.806,1.102,2.806,3.21
			c0,1.652-0.663,3.313-2.874,3.313c-2.117,0-2.806-1.506-2.806-3.21C44.269,2.814,44.389,1.773,45.068,1.042z M45.723,5.431
			c0.354,0.439,0.887,0.568,1.377,0.568c0.508,0,1.016-0.138,1.377-0.568c0.508-0.619,0.56-1.601,0.56-2.022
			c0-1.411-0.465-2.479-1.885-2.479c-1.575,0-1.979,1.266-1.979,2.539C45.172,4.148,45.293,4.897,45.723,5.431z"/>
		<path fill="#231F20" d="M51.192,0.37h2.22c0.318,0,0.973,0,1.43,0.293c0.464,0.293,0.688,0.766,0.688,1.265
			c0,0.439-0.163,0.826-0.438,1.102c-0.267,0.268-0.542,0.354-0.731,0.405c0.594,0.154,0.86,0.421,0.946,1.196
			c0.087,0.731,0.146,1.265,0.388,1.953h-0.921c-0.138-0.413-0.224-1.17-0.284-1.644c-0.104-0.903-0.318-1.162-1.359-1.162h-1.084
			v2.806h-0.853V0.37z M52.027,3.047h1.359c0.095,0,0.586,0,0.817-0.138c0.12-0.068,0.422-0.293,0.422-0.809
			c0-1.007-0.896-1.007-1.239-1.007h-1.359V3.047z"/>
	</g>
	<g>
		<path fill="#231F20" d="M60.143,1.897c0,1.064-0.863,1.907-1.898,1.907c-1.023,0-1.897-0.843-1.897-1.907S57.23,0,58.244,0
			C59.289,0,60.143,0.843,60.143,1.897z M56.572,1.897c0,0.943,0.758,1.687,1.672,1.687c0.924,0,1.672-0.753,1.672-1.687
			c0-0.898-0.729-1.672-1.672-1.672C57.33,0.226,56.572,0.979,56.572,1.897z M57.552,0.863h0.723c0.151,0,0.692,0,0.692,0.512
			c0,0.061,0,0.382-0.381,0.492c0.211,0.051,0.281,0.141,0.311,0.392c0.031,0.251,0.051,0.441,0.121,0.643h-0.291
			c-0.041-0.131-0.061-0.211-0.101-0.532c-0.03-0.312-0.11-0.392-0.442-0.392h-0.351v0.924h-0.281V0.863z M57.833,1.736h0.441
			c0.141,0,0.401,0,0.401-0.311c0-0.321-0.25-0.321-0.401-0.321h-0.441V1.736z"/>
	</g>
	<g>
		<path fill="#231F20" d="M63.34,0.37h2.082c0.758,0,1.274,0.043,1.695,0.499c0.311,0.319,0.457,0.74,0.457,1.205
			c0,0.474-0.155,0.878-0.49,1.214c-0.328,0.327-0.758,0.533-1.877,0.533H64.2v2.763h-0.86V0.37z M64.2,3.099h1.024
			c0.568,0,1.438-0.043,1.438-1.059c0-0.973-0.81-0.973-1.257-0.973H64.2V3.099z"/>
		<path fill="#231F20" d="M68.466,3.142c0-0.293-0.017-0.594-0.043-0.878h0.817l0.018,0.835c0.154-0.603,0.671-0.801,1.033-0.853
			c0.24-0.034,0.421-0.025,0.559-0.017v0.792c-0.043-0.018-0.095-0.026-0.154-0.035c-0.061-0.008-0.139-0.008-0.232-0.008
			c-0.955,0-1.18,0.567-1.18,1.308v2.298h-0.817V3.142z"/>
		<path fill="#231F20" d="M73.645,2.152c1.73,0,2.117,1.359,2.117,2.263c0,1.266-0.715,2.315-2.186,2.315
			c-1.429,0-2.126-0.99-2.126-2.255C71.45,3.408,71.949,2.152,73.645,2.152z M73.593,6.128c0.611,0,1.309-0.438,1.309-1.738
			c0-1.076-0.499-1.644-1.257-1.644c-0.516,0-1.352,0.326-1.352,1.678C72.293,5.311,72.672,6.128,73.593,6.128z"/>
		<path fill="#231F20" d="M80.019,0.379h0.809v5.517c0,0.095,0.018,0.465,0.034,0.688h-0.809l-0.018-0.688
			c-0.068,0.12-0.163,0.301-0.387,0.456c-0.354,0.241-0.775,0.318-1.067,0.318c-0.577,0-1.858-0.301-1.858-2.194
			c0-1.644,0.938-2.358,1.953-2.358c0.93,0,1.239,0.551,1.343,0.731V0.379z M79.717,3.159c-0.172-0.224-0.49-0.439-0.946-0.439
			c-1.188,0-1.188,1.438-1.188,1.729c0,0.767,0.198,1.652,1.188,1.652c1.273,0,1.273-1.402,1.273-1.738
			C80.044,3.735,79.898,3.392,79.717,3.159z"/>
		<path fill="#231F20" d="M83.019,2.264v2.78c0,0.421,0.095,0.955,0.921,0.955c0.404,0,0.783-0.138,1.016-0.482
			c0.181-0.258,0.181-0.594,0.181-0.809V2.264h0.835v3.512c0,0.086,0.017,0.567,0.025,0.809h-0.844l-0.017-0.74
			c-0.155,0.302-0.448,0.783-1.377,0.783c-1.067,0-1.566-0.611-1.566-1.463v-2.9H83.019z"/>
		<path fill="#231F20" d="M89.995,3.649c-0.018-0.198-0.077-0.903-0.86-0.903c-1.119,0-1.119,1.299-1.119,1.626
			c0,0.887,0.215,1.713,1.076,1.713c0.688,0,0.92-0.517,0.938-0.938h0.818c-0.053,0.844-0.681,1.55-1.748,1.55
			c-0.292,0-0.963-0.061-1.42-0.56c-0.258-0.302-0.516-0.758-0.516-1.652c0-1.799,1.102-2.332,1.962-2.332
			c0.284,0,0.929,0.06,1.325,0.533c0.318,0.37,0.344,0.723,0.361,0.964H89.995z"/>
		<path fill="#231F20" d="M91.172,2.246h0.766V1.343l0.801-0.258v1.161h0.963v0.595h-0.963v2.59c0,0.215,0,0.577,0.576,0.577
			c0.163,0,0.318-0.026,0.387-0.043v0.628c-0.146,0.025-0.379,0.052-0.671,0.052c-0.74,0-1.093-0.216-1.093-0.921V2.841h-0.766
			V2.246z"/>
		<path fill="#231F20" d="M97.089,0.37h1.799c0.835,0,1.815,0,2.504,0.81c0.551,0.646,0.767,1.497,0.767,2.35
			c0,1.342-0.56,2.168-1.033,2.547c-0.611,0.508-1.377,0.508-2.289,0.508h-1.747V0.37z M97.949,5.878h0.844
			c0.594,0,1.213-0.034,1.627-0.344c0.791-0.594,0.816-1.609,0.816-1.971c0-0.232-0.017-1.291-0.602-1.937
			c-0.396-0.438-0.896-0.542-1.652-0.542h-1.033V5.878z"/>
		<path fill="#231F20" d="M105.175,2.152c1.729,0,2.117,1.359,2.117,2.263c0,1.266-0.714,2.315-2.187,2.315
			c-1.428,0-2.125-0.99-2.125-2.255C102.98,3.408,103.479,2.152,105.175,2.152z M105.123,6.128c0.611,0,1.309-0.438,1.309-1.738
			c0-1.076-0.5-1.644-1.257-1.644c-0.517,0-1.351,0.326-1.351,1.678C103.824,5.311,104.203,6.128,105.123,6.128z"/>
		<path fill="#231F20" d="M111.016,3.649c-0.018-0.198-0.078-0.903-0.861-0.903c-1.119,0-1.119,1.299-1.119,1.626
			c0,0.887,0.216,1.713,1.076,1.713c0.688,0,0.921-0.517,0.938-0.938h0.818c-0.052,0.844-0.68,1.55-1.747,1.55
			c-0.293,0-0.964-0.061-1.42-0.56c-0.259-0.302-0.517-0.758-0.517-1.652c0-1.799,1.102-2.332,1.963-2.332
			c0.283,0,0.929,0.06,1.324,0.533c0.318,0.37,0.345,0.723,0.361,0.964H111.016z"/>
		<path fill="#231F20" d="M113.594,2.264v2.78c0,0.421,0.096,0.955,0.922,0.955c0.404,0,0.782-0.138,1.015-0.482
			c0.181-0.258,0.181-0.594,0.181-0.809V2.264h0.835v3.512c0,0.086,0.017,0.567,0.026,0.809h-0.844l-0.018-0.74
			c-0.154,0.302-0.447,0.783-1.377,0.783c-1.066,0-1.566-0.611-1.566-1.463v-2.9H113.594z"/>
		<path fill="#231F20" d="M118.1,2.841l-0.017-0.577h0.817v0.628c0.413-0.68,0.998-0.739,1.369-0.739c0.955,0,1.256,0.49,1.41,0.809
			c0.146-0.241,0.5-0.809,1.455-0.809c0.619,0,1.584,0.258,1.584,1.531v2.9H123.9V3.813c0-0.378-0.068-0.542-0.146-0.653
			c-0.137-0.198-0.412-0.379-0.826-0.379c-0.524,0-0.809,0.301-0.92,0.456c-0.189,0.267-0.189,0.74-0.189,0.93v2.418H121V3.727
			c0-0.533-0.31-0.946-0.946-0.946c-0.551,0-0.853,0.344-0.946,0.474c-0.182,0.249-0.189,0.602-0.189,0.877v2.453H118.1V2.841z"/>
		<path fill="#231F20" d="M126.719,4.57c-0.018,0.895,0.353,1.558,1.239,1.558c0.524,0,0.946-0.275,1.015-0.896h0.81
			c-0.026,0.216-0.06,0.568-0.37,0.904c-0.189,0.215-0.619,0.576-1.488,0.576c-1.36,0-2.006-0.843-2.006-2.212
			c0-0.852,0.172-1.558,0.852-2.03c0.414-0.293,0.93-0.318,1.18-0.318c1.937,0,1.894,1.712,1.876,2.418H126.719z M128.999,4.002
			c0.009-0.413-0.069-1.273-1.067-1.273c-0.524,0-1.162,0.318-1.179,1.273H128.999z"/>
		<path fill="#231F20" d="M131.036,2.763l-0.009-0.499h0.809l0.01,0.697c0.094-0.181,0.404-0.783,1.385-0.783
			c0.387,0,1.566,0.146,1.566,1.472v2.935h-0.826V3.839c0-0.284-0.034-0.542-0.232-0.74c-0.207-0.198-0.49-0.293-0.766-0.293
			c-0.586,0-1.127,0.422-1.127,1.291v2.487h-0.81V2.763z"/>
		<path fill="#231F20" d="M135.603,2.246h0.766V1.343l0.801-0.258v1.161h0.964v0.595h-0.964v2.59c0,0.215,0,0.577,0.576,0.577
			c0.163,0,0.319-0.026,0.388-0.043v0.628c-0.146,0.025-0.379,0.052-0.672,0.052c-0.74,0-1.093-0.216-1.093-0.921V2.841h-0.766
			V2.246z"/>
		<path fill="#231F20" d="M143.681,0.973c-0.138-0.009-0.31-0.017-0.474-0.017c-0.654,0-0.654,0.327-0.654,0.628v0.68h1.008v0.585
			h-1.008v3.735h-0.8V2.849H140.9V2.264h0.853v-0.49c0-0.594,0.034-0.81,0.181-1.033c0.181-0.275,0.525-0.473,1.084-0.473
			c0.232,0,0.49,0.034,0.663,0.06V0.973z"/>
		<path fill="#231F20" d="M146.26,2.152c1.73,0,2.117,1.359,2.117,2.263c0,1.266-0.714,2.315-2.186,2.315
			c-1.429,0-2.125-0.99-2.125-2.255C144.066,3.408,144.564,2.152,146.26,2.152z M146.209,6.128c0.611,0,1.308-0.438,1.308-1.738
			c0-1.076-0.499-1.644-1.257-1.644c-0.516,0-1.351,0.326-1.351,1.678C144.909,5.311,145.288,6.128,146.209,6.128z"/>
		<path fill="#231F20" d="M149.682,3.142c0-0.293-0.017-0.594-0.043-0.878h0.818l0.018,0.835c0.154-0.603,0.67-0.801,1.032-0.853
			c0.241-0.034,0.421-0.025,0.56-0.017v0.792c-0.043-0.018-0.096-0.026-0.155-0.035c-0.06-0.008-0.138-0.008-0.232-0.008
			c-0.955,0-1.179,0.567-1.179,1.308v2.298h-0.818V3.142z"/>
		<path fill="#231F20" d="M157.838,3.649c-0.018-0.198-0.078-0.903-0.861-0.903c-1.119,0-1.119,1.299-1.119,1.626
			c0,0.887,0.216,1.713,1.076,1.713c0.688,0,0.921-0.517,0.938-0.938h0.818c-0.052,0.844-0.68,1.55-1.747,1.55
			c-0.293,0-0.964-0.061-1.42-0.56c-0.259-0.302-0.517-0.758-0.517-1.652c0-1.799,1.102-2.332,1.963-2.332
			c0.283,0,0.929,0.06,1.324,0.533c0.318,0.37,0.345,0.723,0.361,0.964H157.838z"/>
		<path fill="#231F20" d="M161.553,2.152c1.729,0,2.117,1.359,2.117,2.263c0,1.266-0.715,2.315-2.187,2.315
			c-1.429,0-2.126-0.99-2.126-2.255C159.357,3.408,159.857,2.152,161.553,2.152z M161.501,6.128c0.61,0,1.308-0.438,1.308-1.738
			c0-1.076-0.499-1.644-1.256-1.644c-0.517,0-1.352,0.326-1.352,1.678C160.201,5.311,160.58,6.128,161.501,6.128z"/>
		<path fill="#231F20" d="M164.923,2.841l-0.017-0.577h0.817v0.628c0.413-0.68,0.998-0.739,1.368-0.739
			c0.955,0,1.256,0.49,1.411,0.809c0.146-0.241,0.499-0.809,1.454-0.809c0.62,0,1.584,0.258,1.584,1.531v2.9h-0.817V3.813
			c0-0.378-0.069-0.542-0.146-0.653c-0.138-0.198-0.413-0.379-0.826-0.379c-0.524,0-0.81,0.301-0.921,0.456
			c-0.189,0.267-0.189,0.74-0.189,0.93v2.418h-0.817V3.727c0-0.533-0.31-0.946-0.946-0.946c-0.551,0-0.853,0.344-0.947,0.474
			c-0.181,0.249-0.189,0.602-0.189,0.877v2.453h-0.817V2.841z"/>
		<path fill="#231F20" d="M173.024,2.97c0-0.189-0.009-0.293-0.026-0.706h0.818l0.018,0.715c0.404-0.681,1.118-0.783,1.471-0.783
			c0.93,0,1.816,0.637,1.816,2.237c0,1.609-0.938,2.314-1.971,2.314c-0.629,0-1.094-0.267-1.326-0.646v2.144h-0.8V2.97z
			 M175.013,6.153c0.206,0,0.637-0.043,0.912-0.421c0.31-0.422,0.353-1.042,0.353-1.352c0-0.774-0.232-1.584-1.188-1.584
			c-1.291,0-1.291,1.369-1.291,1.756C173.799,5.078,173.877,6.153,175.013,6.153z"/>
		<path fill="#231F20" d="M178.322,0.379h0.81v6.205h-0.81V0.379z"/>
		<path fill="#231F20" d="M181.188,4.57c-0.018,0.895,0.353,1.558,1.239,1.558c0.524,0,0.946-0.275,1.015-0.896h0.81
			c-0.026,0.216-0.06,0.568-0.37,0.904c-0.189,0.215-0.619,0.576-1.488,0.576c-1.36,0-2.006-0.843-2.006-2.212
			c0-0.852,0.172-1.558,0.852-2.03c0.414-0.293,0.93-0.318,1.18-0.318c1.937,0,1.894,1.712,1.876,2.418H181.188z M183.468,4.002
			c0.009-0.413-0.069-1.273-1.067-1.273c-0.524,0-1.162,0.318-1.179,1.273H183.468z"/>
		<path fill="#231F20" d="M184.816,2.246h0.766V1.343l0.801-0.258v1.161h0.963v0.595h-0.963v2.59c0,0.215,0,0.577,0.576,0.577
			c0.163,0,0.318-0.026,0.387-0.043v0.628c-0.146,0.025-0.379,0.052-0.671,0.052c-0.74,0-1.093-0.216-1.093-0.921V2.841h-0.766
			V2.246z"/>
		<path fill="#231F20" d="M188.834,4.57c-0.018,0.895,0.352,1.558,1.238,1.558c0.525,0,0.947-0.275,1.016-0.896h0.809
			c-0.025,0.216-0.06,0.568-0.369,0.904c-0.189,0.215-0.62,0.576-1.489,0.576c-1.36,0-2.005-0.843-2.005-2.212
			c0-0.852,0.172-1.558,0.852-2.03c0.413-0.293,0.93-0.318,1.18-0.318c1.936,0,1.893,1.712,1.875,2.418H188.834z M191.113,4.002
			c0.01-0.413-0.068-1.273-1.066-1.273c-0.525,0-1.162,0.318-1.18,1.273H191.113z"/>
		<path fill="#231F20" d="M195.98,5.302c-0.009,0.327,0.164,0.783,0.946,0.783c0.336,0,0.585-0.061,0.758-0.275
			c0.086-0.112,0.138-0.259,0.138-0.404c0-0.422-0.301-0.499-0.947-0.646c-0.903-0.207-1.66-0.388-1.66-1.291
			c0-0.792,0.688-1.309,1.687-1.309c0.542,0,1.3,0.155,1.558,0.672c0.111,0.24,0.111,0.447,0.111,0.628h-0.826
			c0.026-0.654-0.542-0.706-0.834-0.706c-0.121,0-0.878,0-0.878,0.62c0,0.396,0.388,0.49,0.61,0.551
			c1.197,0.284,1.455,0.353,1.713,0.594c0.241,0.224,0.327,0.525,0.327,0.801c0,0.481-0.267,0.895-0.585,1.093
			c-0.379,0.232-0.835,0.292-1.283,0.292c-0.877,0-1.695-0.361-1.686-1.402H195.98z"/>
		<path fill="#231F20" d="M202.449,6.584c-0.061-0.215-0.077-0.422-0.077-0.646c-0.388,0.714-0.973,0.783-1.334,0.783
			c-0.989,0-1.523-0.56-1.523-1.273c0-0.345,0.12-0.896,0.757-1.266c0.465-0.258,1.154-0.284,1.498-0.284
			c0.207,0,0.336,0.009,0.585,0.026c0-0.533,0-0.766-0.155-0.955c-0.163-0.216-0.516-0.284-0.748-0.284
			c-0.818,0-0.861,0.56-0.869,0.731h-0.809c0.025-0.224,0.051-0.525,0.301-0.817c0.327-0.361,0.938-0.465,1.395-0.465
			c0.628,0,1.299,0.198,1.531,0.637c0.138,0.258,0.146,0.465,0.146,0.663L203.111,5.5c0,0.068,0.01,0.646,0.069,1.084H202.449z
			 M201.891,4.458c-0.328,0-1.559,0-1.559,0.878c0,0.275,0.172,0.749,0.896,0.749c0.413,0,0.723-0.164,0.921-0.465
			c0.181-0.293,0.189-0.533,0.206-1.136C202.209,4.467,202.088,4.458,201.891,4.458z"/>
		<path fill="#231F20" d="M206.758,0.973c-0.137-0.009-0.31-0.017-0.473-0.017c-0.654,0-0.654,0.327-0.654,0.628v0.68h1.007v0.585
			h-1.007v3.735h-0.801V2.849h-0.852V2.264h0.852v-0.49c0-0.594,0.035-0.81,0.182-1.033c0.18-0.275,0.524-0.473,1.084-0.473
			c0.232,0,0.49,0.034,0.662,0.06V0.973z"/>
		<path fill="#231F20" d="M207.953,4.57c-0.018,0.895,0.353,1.558,1.239,1.558c0.524,0,0.946-0.275,1.015-0.896h0.81
			c-0.026,0.216-0.06,0.568-0.37,0.904c-0.189,0.215-0.619,0.576-1.488,0.576c-1.36,0-2.006-0.843-2.006-2.212
			c0-0.852,0.172-1.558,0.852-2.03c0.414-0.293,0.93-0.318,1.18-0.318c1.937,0,1.894,1.712,1.876,2.418H207.953z M210.233,4.002
			c0.009-0.413-0.069-1.273-1.067-1.273c-0.524,0-1.162,0.318-1.179,1.273H210.233z"/>
		<path fill="#231F20" d="M211.582,2.246h0.766V1.343l0.801-0.258v1.161h0.963v0.595h-0.963v2.59c0,0.215,0,0.577,0.576,0.577
			c0.163,0,0.318-0.026,0.387-0.043v0.628c-0.146,0.025-0.379,0.052-0.671,0.052c-0.74,0-1.093-0.216-1.093-0.921V2.841h-0.766
			V2.246z"/>
		<path fill="#231F20" d="M217.053,6.609l-0.619,1.609H215.6l0.653-1.652l-1.799-4.303h0.913l1.351,3.408l1.377-3.408h0.878
			L217.053,6.609z"/>
		<path fill="#231F20" d="M222.203,0.388h0.973v0.887h-0.973V0.388z M222.29,2.264h0.809v4.32h-0.809V2.264z"/>
		<path fill="#231F20" d="M224.698,2.763l-0.009-0.499h0.809l0.01,0.697c0.094-0.181,0.404-0.783,1.385-0.783
			c0.387,0,1.566,0.146,1.566,1.472v2.935h-0.826V3.839c0-0.284-0.034-0.542-0.232-0.74c-0.207-0.198-0.49-0.293-0.766-0.293
			c-0.586,0-1.127,0.422-1.127,1.291v2.487h-0.81V2.763z"/>
		<path fill="#231F20" d="M232.088,0.973c-0.139-0.009-0.311-0.017-0.474-0.017c-0.654,0-0.654,0.327-0.654,0.628v0.68h1.007v0.585
			h-1.007v3.735h-0.8V2.849h-0.853V2.264h0.853v-0.49c0-0.594,0.033-0.81,0.18-1.033c0.182-0.275,0.525-0.473,1.085-0.473
			c0.232,0,0.49,0.034,0.663,0.06V0.973z"/>
		<path fill="#231F20" d="M234.668,2.152c1.729,0,2.117,1.359,2.117,2.263c0,1.266-0.715,2.315-2.187,2.315
			c-1.429,0-2.126-0.99-2.126-2.255C232.473,3.408,232.973,2.152,234.668,2.152z M234.616,6.128c0.61,0,1.308-0.438,1.308-1.738
			c0-1.076-0.499-1.644-1.256-1.644c-0.517,0-1.352,0.326-1.352,1.678C233.316,5.311,233.695,6.128,234.616,6.128z"/>
		<path fill="#231F20" d="M238.09,3.142c0-0.293-0.018-0.594-0.043-0.878h0.816l0.018,0.835c0.155-0.603,0.672-0.801,1.033-0.853
			c0.24-0.034,0.422-0.025,0.559-0.017v0.792c-0.043-0.018-0.094-0.026-0.154-0.035c-0.061-0.008-0.138-0.008-0.232-0.008
			c-0.955,0-1.179,0.567-1.179,1.308v2.298h-0.817V3.142z"/>
		<path fill="#231F20" d="M241.383,2.841l-0.017-0.577h0.817v0.628c0.413-0.68,0.998-0.739,1.369-0.739
			c0.955,0,1.256,0.49,1.41,0.809c0.146-0.241,0.5-0.809,1.455-0.809c0.619,0,1.584,0.258,1.584,1.531v2.9h-0.818V3.813
			c0-0.378-0.068-0.542-0.146-0.653c-0.137-0.198-0.412-0.379-0.826-0.379c-0.524,0-0.809,0.301-0.92,0.456
			c-0.189,0.267-0.189,0.74-0.189,0.93v2.418h-0.818V3.727c0-0.533-0.31-0.946-0.946-0.946c-0.551,0-0.853,0.344-0.946,0.474
			c-0.182,0.249-0.189,0.602-0.189,0.877v2.453h-0.818V2.841z"/>
		<path fill="#231F20" d="M252.145,6.584c-0.061-0.215-0.077-0.422-0.077-0.646c-0.388,0.714-0.973,0.783-1.334,0.783
			c-0.989,0-1.523-0.56-1.523-1.273c0-0.345,0.12-0.896,0.757-1.266c0.465-0.258,1.154-0.284,1.498-0.284
			c0.207,0,0.336,0.009,0.585,0.026c0-0.533,0-0.766-0.155-0.955c-0.163-0.216-0.516-0.284-0.748-0.284
			c-0.818,0-0.861,0.56-0.869,0.731h-0.809c0.025-0.224,0.051-0.525,0.301-0.817c0.327-0.361,0.938-0.465,1.395-0.465
			c0.628,0,1.299,0.198,1.531,0.637c0.138,0.258,0.146,0.465,0.146,0.663L252.807,5.5c0,0.068,0.01,0.646,0.069,1.084H252.145z
			 M251.586,4.458c-0.328,0-1.559,0-1.559,0.878c0,0.275,0.172,0.749,0.896,0.749c0.413,0,0.723-0.164,0.921-0.465
			c0.181-0.293,0.189-0.533,0.206-1.136C251.904,4.467,251.783,4.458,251.586,4.458z"/>
		<path fill="#231F20" d="M253.631,2.246h0.766V1.343l0.801-0.258v1.161h0.964v0.595h-0.964v2.59c0,0.215,0,0.577,0.576,0.577
			c0.164,0,0.318-0.026,0.388-0.043v0.628c-0.146,0.025-0.379,0.052-0.671,0.052c-0.74,0-1.094-0.216-1.094-0.921V2.841h-0.766
			V2.246z"/>
		<path fill="#231F20" d="M257.08,0.388h0.973v0.887h-0.973V0.388z M257.166,2.264h0.809v4.32h-0.809V2.264z"/>
		<path fill="#231F20" d="M261.424,2.152c1.73,0,2.117,1.359,2.117,2.263c0,1.266-0.714,2.315-2.186,2.315
			c-1.429,0-2.125-0.99-2.125-2.255C259.23,3.408,259.729,2.152,261.424,2.152z M261.373,6.128c0.611,0,1.308-0.438,1.308-1.738
			c0-1.076-0.499-1.644-1.257-1.644c-0.516,0-1.351,0.326-1.351,1.678C260.073,5.311,260.452,6.128,261.373,6.128z"/>
		<path fill="#231F20" d="M264.829,2.763l-0.009-0.499h0.809l0.01,0.697c0.094-0.181,0.404-0.783,1.385-0.783
			c0.387,0,1.566,0.146,1.566,1.472v2.935h-0.826V3.839c0-0.284-0.034-0.542-0.232-0.74c-0.207-0.198-0.49-0.293-0.766-0.293
			c-0.586,0-1.127,0.422-1.127,1.291v2.487h-0.81V2.763z"/>
		<path fill="#231F20" d="M269.998,5.551h0.955v1.033h-0.955V5.551z"/>
	</g>
	<g>
		<path fill="#231F20" d="M0.252,10.992h0.853v5.448h2.892v0.766H0.252V10.992z"/>
		<path fill="#231F20" d="M4.992,10.992h0.86v6.214h-0.86V10.992z"/>
		<path fill="#231F20" d="M7.383,10.992h2.082c0.758,0,1.273,0.043,1.695,0.5c0.311,0.318,0.456,0.739,0.456,1.204
			c0,0.474-0.155,0.878-0.49,1.214c-0.327,0.327-0.757,0.533-1.876,0.533H8.243v2.763h-0.86V10.992z M8.243,13.721h1.024
			c0.567,0,1.437-0.043,1.437-1.059c0-0.973-0.809-0.973-1.257-0.973H8.243V13.721z"/>
		<path fill="#231F20" d="M12.638,10.992h0.86v6.214h-0.86V10.992z"/>
		<path fill="#231F20" d="M16.535,17.206v-5.482h-2.083v-0.731h5.018v0.731h-2.083v5.482H16.535z"/>
		<path fill="#231F20" d="M20.49,11.664c0.646-0.697,1.498-0.835,2.074-0.835c1.721,0,2.805,1.102,2.805,3.21
			c0,1.652-0.662,3.313-2.873,3.313c-2.117,0-2.807-1.506-2.807-3.21C19.689,13.437,19.811,12.396,20.49,11.664z M21.145,16.053
			c0.353,0.439,0.887,0.568,1.377,0.568c0.508,0,1.016-0.138,1.377-0.568c0.508-0.619,0.559-1.601,0.559-2.022
			c0-1.411-0.465-2.479-1.885-2.479c-1.574,0-1.979,1.266-1.979,2.539C20.594,14.771,20.714,15.52,21.145,16.053z"/>
		<path fill="#231F20" d="M26.613,10.992h2.221c0.318,0,0.973,0,1.429,0.293c0.465,0.293,0.688,0.766,0.688,1.265
			c0,0.439-0.164,0.826-0.439,1.102c-0.267,0.268-0.542,0.354-0.73,0.405c0.594,0.154,0.859,0.421,0.946,1.196
			c0.086,0.731,0.146,1.265,0.388,1.953h-0.922c-0.137-0.413-0.224-1.171-0.283-1.644c-0.104-0.904-0.318-1.162-1.36-1.162h-1.084
			v2.806h-0.853V10.992z M27.448,13.669h1.36c0.094,0,0.585,0,0.817-0.138c0.12-0.068,0.421-0.293,0.421-0.809
			c0-1.007-0.895-1.007-1.238-1.007h-1.36V13.669z"/>
	</g>
	<g>
		<path fill="#231F20" d="M35.57,12.518c0,1.064-0.863,1.907-1.897,1.907c-1.024,0-1.897-0.843-1.897-1.907s0.883-1.897,1.897-1.897
			C34.717,10.62,35.57,11.463,35.57,12.518z M32.001,12.518c0,0.943,0.758,1.687,1.672,1.687c0.923,0,1.671-0.753,1.671-1.687
			c0-0.898-0.728-1.672-1.671-1.672C32.759,10.846,32.001,11.599,32.001,12.518z M32.98,11.483h0.723c0.15,0,0.692,0,0.692,0.512
			c0,0.061,0,0.382-0.382,0.492c0.211,0.051,0.281,0.141,0.312,0.392s0.05,0.441,0.12,0.643h-0.291
			c-0.04-0.131-0.061-0.211-0.1-0.532c-0.031-0.312-0.111-0.392-0.442-0.392h-0.351v0.924H32.98V11.483z M33.262,12.356h0.441
			c0.141,0,0.401,0,0.401-0.311c0-0.321-0.251-0.321-0.401-0.321h-0.441V12.356z"/>
	</g>
	<g>
		<path fill="#231F20" d="M37.695,11.01h0.973v0.887h-0.973V11.01z M37.781,12.886h0.809v4.32h-0.809V12.886z"/>
		<path fill="#231F20" d="M40.629,15.924c-0.009,0.327,0.164,0.783,0.946,0.783c0.336,0,0.585-0.061,0.758-0.275
			c0.086-0.112,0.138-0.258,0.138-0.404c0-0.422-0.301-0.499-0.947-0.646c-0.903-0.207-1.66-0.388-1.66-1.291
			c0-0.792,0.688-1.309,1.687-1.309c0.542,0,1.3,0.155,1.558,0.672c0.111,0.241,0.111,0.447,0.111,0.628h-0.826
			c0.026-0.654-0.542-0.706-0.834-0.706c-0.121,0-0.878,0-0.878,0.62c0,0.396,0.388,0.49,0.61,0.551
			c1.197,0.284,1.455,0.353,1.713,0.594c0.241,0.224,0.327,0.525,0.327,0.801c0,0.481-0.267,0.895-0.585,1.093
			c-0.379,0.232-0.835,0.292-1.283,0.292c-0.877,0-1.695-0.361-1.686-1.402H40.629z"/>
		<path fill="#231F20" d="M49.488,17.206c-0.06-0.215-0.076-0.422-0.076-0.646c-0.388,0.715-0.973,0.783-1.334,0.783
			c-0.99,0-1.523-0.56-1.523-1.273c0-0.345,0.12-0.896,0.757-1.266c0.465-0.258,1.153-0.283,1.497-0.283
			c0.207,0,0.336,0.008,0.586,0.025c0-0.533,0-0.766-0.155-0.955c-0.163-0.216-0.517-0.284-0.749-0.284
			c-0.817,0-0.86,0.56-0.869,0.731h-0.809c0.025-0.224,0.052-0.525,0.301-0.817c0.327-0.361,0.938-0.465,1.395-0.465
			c0.629,0,1.299,0.198,1.531,0.637c0.139,0.258,0.146,0.465,0.146,0.663l-0.034,2.065c0,0.068,0.009,0.646,0.069,1.084H49.488z
			 M48.93,15.08c-0.327,0-1.558,0-1.558,0.878c0,0.275,0.172,0.749,0.895,0.749c0.413,0,0.724-0.164,0.921-0.465
			c0.181-0.293,0.189-0.533,0.207-1.136C49.248,15.089,49.127,15.08,48.93,15.08z"/>
		<path fill="#231F20" d="M50.983,12.886h0.903l1.377,3.425l1.344-3.425h0.895l-1.894,4.32h-0.817L50.983,12.886z"/>
		<path fill="#231F20" d="M59.053,17.206c-0.061-0.215-0.077-0.422-0.077-0.646c-0.388,0.715-0.973,0.783-1.334,0.783
			c-0.989,0-1.523-0.56-1.523-1.273c0-0.345,0.12-0.896,0.757-1.266c0.465-0.258,1.154-0.283,1.498-0.283
			c0.207,0,0.336,0.008,0.585,0.025c0-0.533,0-0.766-0.155-0.955c-0.163-0.216-0.516-0.284-0.748-0.284
			c-0.818,0-0.861,0.56-0.869,0.731h-0.809c0.025-0.224,0.051-0.525,0.301-0.817c0.327-0.361,0.938-0.465,1.395-0.465
			c0.628,0,1.299,0.198,1.531,0.637c0.138,0.258,0.146,0.465,0.146,0.663l-0.035,2.065c0,0.068,0.01,0.646,0.069,1.084H59.053z
			 M58.494,15.08c-0.328,0-1.559,0-1.559,0.878c0,0.275,0.172,0.749,0.896,0.749c0.413,0,0.723-0.164,0.921-0.465
			c0.181-0.293,0.189-0.533,0.206-1.136C58.813,15.089,58.691,15.08,58.494,15.08z"/>
		<path fill="#231F20" d="M61.124,11.01h0.973v0.887h-0.973V11.01z M61.211,12.886h0.809v4.32h-0.809V12.886z"/>
		<path fill="#231F20" d="M63.609,11.001h0.81v6.205h-0.81V11.001z"/>
		<path fill="#231F20" d="M68.617,17.206c-0.061-0.215-0.078-0.422-0.078-0.646c-0.387,0.715-0.973,0.783-1.334,0.783
			c-0.989,0-1.523-0.56-1.523-1.273c0-0.345,0.121-0.896,0.758-1.266c0.465-0.258,1.153-0.283,1.498-0.283
			c0.206,0,0.335,0.008,0.584,0.025c0-0.533,0-0.766-0.154-0.955c-0.164-0.216-0.516-0.284-0.748-0.284
			c-0.818,0-0.861,0.56-0.869,0.731h-0.81c0.026-0.224,0.052-0.525,0.302-0.817c0.326-0.361,0.938-0.465,1.394-0.465
			c0.628,0,1.3,0.198,1.532,0.637c0.137,0.258,0.146,0.465,0.146,0.663l-0.035,2.065c0,0.068,0.009,0.646,0.068,1.084H68.617z
			 M68.058,15.08c-0.327,0-1.558,0-1.558,0.878c0,0.275,0.172,0.749,0.895,0.749c0.413,0,0.723-0.164,0.921-0.465
			c0.181-0.293,0.189-0.533,0.206-1.136C68.376,15.089,68.256,15.08,68.058,15.08z"/>
		<path fill="#231F20" d="M71.574,13.514c0.112-0.197,0.431-0.739,1.412-0.739c0.43,0,0.973,0.103,1.368,0.551
			c0.215,0.249,0.508,0.68,0.508,1.626c0,0.835-0.198,1.291-0.413,1.575c-0.345,0.49-0.921,0.74-1.515,0.74
			c-0.207,0-0.595-0.026-0.964-0.275c-0.241-0.164-0.336-0.311-0.422-0.439l-0.018,0.654h-0.783l0.018-0.774v-5.439h0.809V13.514z
			 M72.797,13.325c-1.239,0-1.239,1.445-1.239,1.721c0,0.284,0,1.635,1.204,1.635c0.999,0,1.248-0.972,1.248-1.678
			C74.01,14.572,73.924,13.325,72.797,13.325z"/>
		<path fill="#231F20" d="M76.037,11.001h0.81v6.205h-0.81V11.001z"/>
		<path fill="#231F20" d="M78.902,15.192c-0.018,0.895,0.353,1.558,1.239,1.558c0.524,0,0.946-0.275,1.015-0.896h0.81
			c-0.026,0.216-0.06,0.568-0.37,0.904c-0.189,0.215-0.619,0.576-1.488,0.576c-1.36,0-2.006-0.843-2.006-2.212
			c0-0.852,0.172-1.558,0.852-2.03c0.414-0.293,0.93-0.318,1.18-0.318c1.937,0,1.894,1.712,1.876,2.418H78.902z M81.183,14.624
			c0.009-0.413-0.069-1.273-1.067-1.273c-0.524,0-1.162,0.318-1.179,1.273H81.183z"/>
		<path fill="#231F20" d="M85.508,11.01h0.973v0.887h-0.973V11.01z M85.594,12.886h0.809v4.32h-0.809V12.886z"/>
		<path fill="#231F20" d="M88.002,13.385l-0.009-0.499h0.81l0.008,0.697c0.095-0.181,0.404-0.783,1.386-0.783
			c0.388,0,1.566,0.146,1.566,1.472v2.935h-0.826v-2.745c0-0.284-0.034-0.542-0.232-0.74c-0.206-0.198-0.49-0.293-0.766-0.293
			c-0.585,0-1.128,0.422-1.128,1.291v2.487h-0.809V13.385z"/>
		<path fill="#231F20" d="M98.617,11.001h0.809v5.517c0,0.095,0.018,0.465,0.035,0.688h-0.81l-0.017-0.688
			c-0.069,0.12-0.164,0.301-0.388,0.456c-0.353,0.241-0.774,0.318-1.067,0.318c-0.576,0-1.859-0.301-1.859-2.194
			c0-1.644,0.938-2.358,1.954-2.358c0.93,0,1.239,0.551,1.343,0.731V11.001z M98.316,13.781c-0.173-0.225-0.491-0.439-0.947-0.439
			c-1.188,0-1.188,1.438-1.188,1.73c0,0.766,0.197,1.652,1.188,1.652c1.273,0,1.273-1.403,1.273-1.739
			C98.643,14.357,98.496,14.014,98.316,13.781z"/>
		<path fill="#231F20" d="M102.753,12.774c1.729,0,2.117,1.359,2.117,2.263c0,1.266-0.714,2.315-2.187,2.315
			c-1.428,0-2.125-0.99-2.125-2.255C100.559,14.03,101.058,12.774,102.753,12.774z M102.701,16.75c0.611,0,1.309-0.439,1.309-1.738
			c0-1.076-0.5-1.644-1.257-1.644c-0.517,0-1.351,0.327-1.351,1.678C101.402,15.933,101.781,16.75,102.701,16.75z"/>
		<path fill="#231F20" d="M106.597,15.924c-0.009,0.327,0.163,0.783,0.946,0.783c0.336,0,0.586-0.061,0.758-0.275
			c0.086-0.112,0.138-0.258,0.138-0.404c0-0.422-0.302-0.499-0.946-0.646c-0.904-0.207-1.662-0.388-1.662-1.291
			c0-0.792,0.689-1.309,1.688-1.309c0.542,0,1.299,0.155,1.558,0.672c0.112,0.241,0.112,0.447,0.112,0.628h-0.826
			c0.025-0.654-0.543-0.706-0.836-0.706c-0.12,0-0.877,0-0.877,0.62c0,0.396,0.387,0.49,0.611,0.551
			c1.195,0.284,1.454,0.353,1.712,0.594c0.241,0.224,0.327,0.525,0.327,0.801c0,0.481-0.267,0.895-0.585,1.093
			c-0.379,0.232-0.835,0.292-1.282,0.292c-0.878,0-1.695-0.361-1.688-1.402H106.597z"/>
		<path fill="#231F20" d="M110.924,15.192c-0.018,0.895,0.352,1.558,1.238,1.558c0.525,0,0.947-0.275,1.016-0.896h0.809
			c-0.025,0.216-0.06,0.568-0.369,0.904c-0.189,0.215-0.62,0.576-1.489,0.576c-1.36,0-2.005-0.843-2.005-2.212
			c0-0.852,0.172-1.558,0.852-2.03c0.413-0.293,0.93-0.318,1.18-0.318c1.936,0,1.893,1.712,1.875,2.418H110.924z M113.203,14.624
			c0.01-0.413-0.068-1.273-1.066-1.273c-0.525,0-1.162,0.318-1.18,1.273H113.203z"/>
		<path fill="#231F20" d="M117.648,13.764c0-0.293-0.018-0.594-0.043-0.878h0.817l0.018,0.835c0.155-0.603,0.671-0.801,1.032-0.852
			c0.241-0.035,0.422-0.026,0.56-0.018v0.792c-0.043-0.018-0.095-0.026-0.155-0.035c-0.06-0.008-0.137-0.008-0.232-0.008
			c-0.955,0-1.179,0.567-1.179,1.308v2.298h-0.817V13.764z"/>
		<path fill="#231F20" d="M123.584,17.206c-0.06-0.215-0.076-0.422-0.076-0.646c-0.388,0.715-0.973,0.783-1.334,0.783
			c-0.99,0-1.523-0.56-1.523-1.273c0-0.345,0.12-0.896,0.757-1.266c0.465-0.258,1.153-0.283,1.497-0.283
			c0.207,0,0.336,0.008,0.586,0.025c0-0.533,0-0.766-0.155-0.955c-0.163-0.216-0.517-0.284-0.749-0.284
			c-0.817,0-0.86,0.56-0.869,0.731h-0.809c0.025-0.224,0.052-0.525,0.301-0.817c0.327-0.361,0.938-0.465,1.395-0.465
			c0.629,0,1.299,0.198,1.531,0.637c0.139,0.258,0.146,0.465,0.146,0.663l-0.034,2.065c0,0.068,0.009,0.646,0.069,1.084H123.584z
			 M123.025,15.08c-0.327,0-1.558,0-1.558,0.878c0,0.275,0.172,0.749,0.895,0.749c0.413,0,0.724-0.164,0.921-0.465
			c0.181-0.293,0.189-0.533,0.207-1.136C123.344,15.089,123.223,15.08,123.025,15.08z"/>
		<path fill="#231F20" d="M125.76,13.385l-0.01-0.499h0.81l0.009,0.697c0.095-0.181,0.404-0.783,1.385-0.783
			c0.388,0,1.566,0.146,1.566,1.472v2.935h-0.826v-2.745c0-0.284-0.034-0.542-0.232-0.74c-0.206-0.198-0.49-0.293-0.766-0.293
			c-0.585,0-1.127,0.422-1.127,1.291v2.487h-0.809V13.385z"/>
		<path fill="#231F20" d="M131.763,17.542c0.034,0.481,0.241,0.843,1.007,0.843c1.127,0,1.145-0.817,1.145-1.987
			c-0.344,0.714-1.162,0.731-1.42,0.731c-0.396,0-0.964-0.086-1.325-0.534c-0.37-0.438-0.49-1.016-0.49-1.592
			c0-1.463,0.86-2.178,1.919-2.178c0.869,0,1.188,0.431,1.359,0.654l0.009-0.594h0.783l-0.017,0.783l-0.01,2.702
			c0,1.041-0.033,1.463-0.206,1.79c-0.361,0.688-1.204,0.774-1.798,0.774c-1.73,0-1.782-0.809-1.816-1.394H131.763z M133.647,16.096
			c0.173-0.224,0.292-0.456,0.292-1.239c0-0.542-0.119-0.852-0.335-1.075c-0.216-0.232-0.56-0.379-0.93-0.379
			c-1.024,0-1.161,1.032-1.161,1.583c0,0.663,0.197,1.541,1.188,1.541C133.174,16.526,133.449,16.355,133.647,16.096z"/>
		<path fill="#231F20" d="M136.734,15.192c-0.018,0.895,0.352,1.558,1.238,1.558c0.525,0,0.947-0.275,1.016-0.896h0.809
			c-0.025,0.216-0.06,0.568-0.369,0.904c-0.189,0.215-0.62,0.576-1.489,0.576c-1.36,0-2.005-0.843-2.005-2.212
			c0-0.852,0.172-1.558,0.852-2.03c0.413-0.293,0.93-0.318,1.18-0.318c1.936,0,1.893,1.712,1.875,2.418H136.734z M139.014,14.624
			c0.01-0.413-0.068-1.273-1.066-1.273c-0.525,0-1.162,0.318-1.18,1.273H139.014z"/>
		<path fill="#231F20" d="M142.238,16.174l-0.963,2.116h-0.586l0.551-2.116H142.238z"/>
		<path fill="#231F20" d="M145.85,10.992h0.853v5.448h2.892v0.766h-3.744V10.992z"/>
		<path fill="#231F20" d="M150.59,10.992h0.86v6.214h-0.86V10.992z"/>
		<path fill="#231F20" d="M152.98,10.992h2.082c0.758,0,1.274,0.043,1.695,0.5c0.311,0.318,0.457,0.739,0.457,1.204
			c0,0.474-0.155,0.878-0.49,1.214c-0.328,0.327-0.758,0.533-1.877,0.533h-1.007v2.763h-0.86V10.992z M153.841,13.721h1.024
			c0.568,0,1.438-0.043,1.438-1.059c0-0.973-0.81-0.973-1.257-0.973h-1.205V13.721z"/>
		<path fill="#231F20" d="M158.235,10.992h0.86v6.214h-0.86V10.992z"/>
		<path fill="#231F20" d="M162.133,17.206v-5.482h-2.083v-0.731h5.018v0.731h-2.083v5.482H162.133z"/>
		<path fill="#231F20" d="M166.088,11.664c0.646-0.697,1.498-0.835,2.074-0.835c1.722,0,2.806,1.102,2.806,3.21
			c0,1.652-0.663,3.313-2.874,3.313c-2.117,0-2.806-1.506-2.806-3.21C165.288,13.437,165.408,12.396,166.088,11.664z
			 M166.742,16.053c0.354,0.439,0.887,0.568,1.377,0.568c0.508,0,1.016-0.138,1.377-0.568c0.508-0.619,0.56-1.601,0.56-2.022
			c0-1.411-0.465-2.479-1.885-2.479c-1.575,0-1.979,1.266-1.979,2.539C166.191,14.771,166.313,15.52,166.742,16.053z"/>
		<path fill="#231F20" d="M172.212,10.992h2.22c0.318,0,0.973,0,1.43,0.293c0.464,0.293,0.688,0.766,0.688,1.265
			c0,0.439-0.163,0.826-0.438,1.102c-0.267,0.268-0.542,0.354-0.731,0.405c0.594,0.154,0.86,0.421,0.946,1.196
			c0.087,0.731,0.146,1.265,0.388,1.953h-0.921c-0.138-0.413-0.224-1.171-0.284-1.644c-0.104-0.904-0.318-1.162-1.359-1.162h-1.084
			v2.806h-0.853V10.992z M173.047,13.669h1.359c0.095,0,0.586,0,0.817-0.138c0.12-0.068,0.422-0.293,0.422-0.809
			c0-1.007-0.896-1.007-1.239-1.007h-1.359V13.669z"/>
	</g>
	<g>
		<path fill="#231F20" d="M181.17,12.518c0,1.064-0.863,1.907-1.898,1.907c-1.023,0-1.897-0.843-1.897-1.907
			s0.884-1.897,1.897-1.897C180.316,10.62,181.17,11.463,181.17,12.518z M177.6,12.518c0,0.943,0.758,1.687,1.672,1.687
			c0.924,0,1.672-0.753,1.672-1.687c0-0.898-0.729-1.672-1.672-1.672C178.357,10.846,177.6,11.599,177.6,12.518z M178.579,11.483
			h0.723c0.151,0,0.692,0,0.692,0.512c0,0.061,0,0.382-0.381,0.492c0.211,0.051,0.281,0.141,0.311,0.392
			c0.031,0.251,0.051,0.441,0.121,0.643h-0.291c-0.041-0.131-0.061-0.211-0.101-0.532c-0.03-0.312-0.11-0.392-0.442-0.392h-0.351
			v0.924h-0.281V11.483z M178.86,12.356h0.441c0.141,0,0.401,0,0.401-0.311c0-0.321-0.25-0.321-0.401-0.321h-0.441V12.356z"/>
	</g>
	<g>
		<path fill="#231F20" d="M184.945,12.188c-0.37,0.311-0.964,0.663-1.385,0.861v-0.861c0.559-0.292,1.109-0.653,1.445-0.938h0.766
			v5.955h-0.826V12.188z"/>
		<path fill="#231F20" d="M189.298,11.13c1.781,0,1.996,1.911,1.996,3.029c0,1.412-0.284,2.203-0.826,2.711
			c-0.421,0.396-0.921,0.456-1.188,0.456c-0.792,0-1.334-0.465-1.592-0.989c-0.198-0.396-0.388-0.973-0.388-2.04
			C187.301,13.411,187.404,11.13,189.298,11.13z M189.289,16.612c0.998,0,1.17-1.309,1.17-2.375c0-1.429-0.249-2.419-1.152-2.419
			c-1.042,0-1.18,1.369-1.18,2.436C188.127,15.579,188.385,16.612,189.289,16.612z"/>
		<path fill="#231F20" d="M192.453,13.463l-0.018-0.577h0.817v0.628c0.413-0.68,0.999-0.739,1.368-0.739
			c0.955,0,1.257,0.49,1.412,0.809c0.146-0.241,0.499-0.809,1.454-0.809c0.62,0,1.583,0.258,1.583,1.531v2.9h-0.816v-2.771
			c0-0.378-0.069-0.542-0.146-0.653c-0.139-0.198-0.414-0.379-0.826-0.379c-0.525,0-0.81,0.301-0.922,0.456
			c-0.189,0.267-0.189,0.74-0.189,0.93v2.418h-0.816v-2.857c0-0.533-0.311-0.946-0.947-0.946c-0.551,0-0.852,0.344-0.946,0.474
			c-0.181,0.249-0.189,0.602-0.189,0.877v2.453h-0.817V13.463z"/>
		<path fill="#231F20" d="M201.355,17.542c0.034,0.481,0.24,0.843,1.006,0.843c1.128,0,1.146-0.817,1.146-1.987
			c-0.345,0.714-1.162,0.731-1.421,0.731c-0.395,0-0.963-0.086-1.324-0.534c-0.371-0.438-0.491-1.016-0.491-1.592
			c0-1.463,0.86-2.178,1.919-2.178c0.869,0,1.188,0.431,1.36,0.654l0.009-0.594h0.783l-0.018,0.783l-0.009,2.702
			c0,1.041-0.034,1.463-0.206,1.79c-0.361,0.688-1.205,0.774-1.799,0.774c-1.73,0-1.781-0.809-1.816-1.394H201.355z M203.24,16.096
			c0.172-0.224,0.292-0.456,0.292-1.239c0-0.542-0.12-0.852-0.335-1.075c-0.216-0.232-0.561-0.379-0.93-0.379
			c-1.024,0-1.162,1.032-1.162,1.583c0,0.663,0.198,1.541,1.188,1.541C202.767,16.526,203.042,16.355,203.24,16.096z"/>
		<path fill="#231F20" d="M207.049,16.174l-0.963,2.116H205.5l0.551-2.116H207.049z"/>
		<path fill="#231F20" d="M210.316,16.423l1.558-1.532c0.327-0.318,0.654-0.662,0.921-1.023c0.344-0.474,0.439-0.74,0.439-1.059
			c0-0.293-0.104-0.973-0.955-0.973c-0.956,0-0.973,0.817-0.973,1.041h-0.904c0.009-0.292,0.035-0.86,0.551-1.308
			c0.413-0.353,0.912-0.431,1.291-0.431c0.912,0,1.842,0.465,1.842,1.738c0,0.379-0.025,0.672-0.672,1.489
			c-0.172,0.215-0.929,0.998-1.102,1.17l-1.041,0.99h2.832v0.68h-3.787V16.423z"/>
		<path fill="#231F20" d="M217.018,11.13c1.781,0,1.997,1.911,1.997,3.029c0,1.412-0.284,2.203-0.826,2.711
			c-0.422,0.396-0.921,0.456-1.188,0.456c-0.791,0-1.334-0.465-1.592-0.989c-0.197-0.396-0.387-0.973-0.387-2.04
			C215.021,13.411,215.125,11.13,217.018,11.13z M217.01,16.612c0.998,0,1.17-1.309,1.17-2.375c0-1.429-0.25-2.419-1.153-2.419
			c-1.041,0-1.179,1.369-1.179,2.436C215.848,15.579,216.105,16.612,217.01,16.612z"/>
		<path fill="#231F20" d="M220.174,13.463l-0.018-0.577h0.817v0.628c0.413-0.68,0.999-0.739,1.368-0.739
			c0.955,0,1.257,0.49,1.412,0.809c0.146-0.241,0.499-0.809,1.454-0.809c0.62,0,1.583,0.258,1.583,1.531v2.9h-0.816v-2.771
			c0-0.378-0.069-0.542-0.146-0.653c-0.139-0.198-0.414-0.379-0.826-0.379c-0.525,0-0.81,0.301-0.922,0.456
			c-0.189,0.267-0.189,0.74-0.189,0.93v2.418h-0.816v-2.857c0-0.533-0.311-0.946-0.947-0.946c-0.551,0-0.852,0.344-0.946,0.474
			c-0.181,0.249-0.189,0.602-0.189,0.877v2.453h-0.817V13.463z"/>
		<path fill="#231F20" d="M229.075,17.542c0.034,0.481,0.241,0.843,1.007,0.843c1.127,0,1.145-0.817,1.145-1.987
			c-0.344,0.714-1.162,0.731-1.42,0.731c-0.396,0-0.964-0.086-1.325-0.534c-0.37-0.438-0.49-1.016-0.49-1.592
			c0-1.463,0.86-2.178,1.919-2.178c0.869,0,1.188,0.431,1.359,0.654l0.009-0.594h0.783l-0.017,0.783l-0.01,2.702
			c0,1.041-0.033,1.463-0.206,1.79c-0.361,0.688-1.204,0.774-1.798,0.774c-1.73,0-1.782-0.809-1.816-1.394H229.075z M230.96,16.096
			c0.173-0.224,0.292-0.456,0.292-1.239c0-0.542-0.119-0.852-0.335-1.075c-0.216-0.232-0.56-0.379-0.93-0.379
			c-1.024,0-1.161,1.032-1.161,1.583c0,0.663,0.197,1.541,1.188,1.541C230.486,16.526,230.762,16.355,230.96,16.096z"/>
		<path fill="#231F20" d="M234.77,16.174l-0.964,2.116h-0.585l0.551-2.116H234.77z"/>
		<path fill="#231F20" d="M240.507,15.915h-2.686v-1.024l2.582-3.718h0.93v4.045h0.869v0.697h-0.869v1.291h-0.826V15.915z
			 M240.532,15.218v-3.141l-2.057,3.141H240.532z"/>
		<path fill="#231F20" d="M244.738,11.13c1.781,0,1.996,1.911,1.996,3.029c0,1.412-0.283,2.203-0.826,2.711
			c-0.422,0.396-0.92,0.456-1.188,0.456c-0.791,0-1.334-0.465-1.592-0.989c-0.198-0.396-0.388-0.973-0.388-2.04
			C242.741,13.411,242.845,11.13,244.738,11.13z M244.729,16.612c0.998,0,1.171-1.309,1.171-2.375c0-1.429-0.25-2.419-1.154-2.419
			c-1.041,0-1.179,1.369-1.179,2.436C243.567,15.579,243.826,16.612,244.729,16.612z"/>
		<path fill="#231F20" d="M247.894,13.463l-0.017-0.577h0.817v0.628c0.413-0.68,0.998-0.739,1.368-0.739
			c0.955,0,1.256,0.49,1.411,0.809c0.146-0.241,0.499-0.809,1.454-0.809c0.62,0,1.584,0.258,1.584,1.531v2.9h-0.817v-2.771
			c0-0.378-0.069-0.542-0.146-0.653c-0.138-0.198-0.413-0.379-0.826-0.379c-0.524,0-0.81,0.301-0.921,0.456
			c-0.189,0.267-0.189,0.74-0.189,0.93v2.418h-0.817v-2.857c0-0.533-0.31-0.946-0.946-0.946c-0.551,0-0.853,0.344-0.947,0.474
			c-0.181,0.249-0.189,0.602-0.189,0.877v2.453h-0.817V13.463z"/>
		<path fill="#231F20" d="M256.795,17.542c0.035,0.481,0.242,0.843,1.008,0.843c1.127,0,1.145-0.817,1.145-1.987
			c-0.345,0.714-1.162,0.731-1.42,0.731c-0.396,0-0.965-0.086-1.326-0.534c-0.369-0.438-0.49-1.016-0.49-1.592
			c0-1.463,0.861-2.178,1.92-2.178c0.869,0,1.188,0.431,1.359,0.654l0.008-0.594h0.783l-0.017,0.783l-0.009,2.702
			c0,1.041-0.034,1.463-0.207,1.79c-0.361,0.688-1.204,0.774-1.798,0.774c-1.729,0-1.782-0.809-1.815-1.394H256.795z M258.68,16.096
			c0.173-0.224,0.293-0.456,0.293-1.239c0-0.542-0.12-0.852-0.336-1.075c-0.215-0.232-0.559-0.379-0.929-0.379
			c-1.024,0-1.162,1.032-1.162,1.583c0,0.663,0.198,1.541,1.188,1.541C258.207,16.526,258.482,16.355,258.68,16.096z"/>
		<path fill="#231F20" d="M262.49,16.174l-0.965,2.116h-0.584l0.551-2.116H262.49z"/>
		<path fill="#231F20" d="M265.74,12.739c0-0.533,0.361-1.626,1.928-1.626c1.256,0,1.979,0.68,1.979,1.592
			c0,0.585-0.379,1.196-1.213,1.352c0.353,0.095,1.299,0.353,1.299,1.506c0,0.817-0.567,1.747-2.048,1.747
			c-0.508,0-1.11-0.104-1.54-0.499c-0.318-0.293-0.525-0.74-0.525-1.196c0-0.396,0.154-0.81,0.456-1.093
			c0.284-0.284,0.594-0.37,0.86-0.457C266.145,13.893,265.74,13.333,265.74,12.739z M267.685,16.63c0.955,0,1.188-0.672,1.188-1.119
			c0-0.663-0.49-1.093-1.171-1.093c-0.73,0-1.213,0.49-1.213,1.118C266.488,16.001,266.799,16.63,267.685,16.63z M267.701,11.75
			c-0.637,0-1.127,0.379-1.127,0.973c0,0.576,0.482,0.964,1.102,0.964c0.654,0,1.145-0.379,1.145-0.964
			C268.82,12.18,268.416,11.75,267.701,11.75z"/>
		<path fill="#231F20" d="M272.458,11.13c1.782,0,1.997,1.911,1.997,3.029c0,1.412-0.284,2.203-0.826,2.711
			c-0.422,0.396-0.921,0.456-1.188,0.456c-0.792,0-1.334-0.465-1.592-0.989c-0.199-0.396-0.388-0.973-0.388-2.04
			C270.462,13.411,270.564,11.13,272.458,11.13z M272.449,16.612c0.998,0,1.171-1.309,1.171-2.375c0-1.429-0.249-2.419-1.153-2.419
			c-1.041,0-1.179,1.369-1.179,2.436C271.288,15.579,271.546,16.612,272.449,16.612z"/>
		<path fill="#231F20" d="M275.613,13.463l-0.017-0.577h0.817v0.628c0.413-0.68,0.998-0.739,1.369-0.739
			c0.955,0,1.256,0.49,1.41,0.809c0.146-0.241,0.5-0.809,1.455-0.809c0.619,0,1.584,0.258,1.584,1.531v2.9h-0.818v-2.771
			c0-0.378-0.068-0.542-0.146-0.653c-0.137-0.198-0.412-0.379-0.826-0.379c-0.524,0-0.809,0.301-0.92,0.456
			c-0.189,0.267-0.189,0.74-0.189,0.93v2.418h-0.818v-2.857c0-0.533-0.31-0.946-0.946-0.946c-0.551,0-0.853,0.344-0.946,0.474
			c-0.182,0.249-0.189,0.602-0.189,0.877v2.453h-0.818V13.463z"/>
		<path fill="#231F20" d="M284.516,17.542c0.035,0.481,0.241,0.843,1.007,0.843c1.128,0,1.145-0.817,1.145-1.987
			c-0.344,0.714-1.161,0.731-1.42,0.731c-0.396,0-0.964-0.086-1.325-0.534c-0.37-0.438-0.49-1.016-0.49-1.592
			c0-1.463,0.86-2.178,1.919-2.178c0.869,0,1.188,0.431,1.36,0.654l0.008-0.594h0.783l-0.018,0.783l-0.008,2.702
			c0,1.041-0.035,1.463-0.207,1.79c-0.361,0.688-1.205,0.774-1.799,0.774c-1.729,0-1.781-0.809-1.815-1.394H284.516z M286.4,16.096
			c0.172-0.224,0.293-0.456,0.293-1.239c0-0.542-0.121-0.852-0.336-1.075c-0.215-0.232-0.56-0.379-0.93-0.379
			c-1.023,0-1.162,1.032-1.162,1.583c0,0.663,0.198,1.541,1.188,1.541C285.928,16.526,286.203,16.355,286.4,16.096z"/>
		<path fill="#231F20" d="M292.283,18.265c-0.465-1.145-1.024-2.573-1.024-3.83c0-0.68,0.155-1.351,0.353-2.005
			c0.241-0.774,0.465-1.325,0.611-1.695h0.568c-0.139,0.422-0.328,1.007-0.508,1.824c-0.182,0.792-0.241,1.325-0.241,1.859
			c0,1.222,0.301,2.212,0.8,3.847H292.283z"/>
		<path fill="#231F20" d="M294.871,15.391c0.018,0.43,0.068,1.23,1.498,1.23c1.29,0,1.453-0.801,1.453-1.11
			c0-0.697-0.559-0.835-1.428-1.05c-0.947-0.232-1.369-0.336-1.688-0.551c-0.508-0.345-0.645-0.81-0.645-1.223
			c0-1.265,1.195-1.815,2.366-1.815c0.413,0,1.248,0.069,1.747,0.611c0.344,0.378,0.361,0.8,0.379,1.059h-0.896
			c-0.043-0.774-0.696-0.947-1.308-0.947c-0.861,0-1.377,0.388-1.377,1.007c0,0.551,0.361,0.74,1.119,0.921
			c1.479,0.379,1.643,0.413,2.004,0.654c0.577,0.379,0.62,0.981,0.62,1.239c0,1.102-0.86,1.937-2.452,1.937
			c-0.474,0-1.438-0.077-1.928-0.706c-0.354-0.456-0.361-0.955-0.361-1.256H294.871z"/>
		<path fill="#231F20" d="M299.326,12.869h0.766v-0.904l0.801-0.258v1.162h0.963v0.594h-0.963v2.59c0,0.215,0,0.577,0.576,0.577
			c0.163,0,0.318-0.026,0.387-0.044v0.629c-0.146,0.025-0.379,0.052-0.671,0.052c-0.74,0-1.093-0.216-1.093-0.921v-2.883h-0.766
			V12.869z"/>
		<path fill="#231F20" d="M305.485,17.206c-0.06-0.215-0.077-0.422-0.077-0.646c-0.388,0.715-0.973,0.783-1.334,0.783
			c-0.99,0-1.523-0.56-1.523-1.273c0-0.345,0.121-0.896,0.758-1.266c0.465-0.258,1.152-0.283,1.497-0.283
			c0.206,0,0.335,0.008,0.585,0.025c0-0.533,0-0.766-0.154-0.955c-0.164-0.216-0.517-0.284-0.749-0.284
			c-0.817,0-0.86,0.56-0.869,0.731h-0.81c0.026-0.224,0.053-0.525,0.302-0.817c0.327-0.361,0.938-0.465,1.394-0.465
			c0.629,0,1.3,0.198,1.532,0.637c0.138,0.258,0.146,0.465,0.146,0.663l-0.034,2.065c0,0.068,0.008,0.646,0.068,1.084H305.485z
			 M304.926,15.08c-0.326,0-1.558,0-1.558,0.878c0,0.275,0.173,0.749,0.896,0.749c0.413,0,0.723-0.164,0.92-0.465
			c0.182-0.293,0.189-0.533,0.207-1.136C305.244,15.089,305.124,15.08,304.926,15.08z"/>
		<path fill="#231F20" d="M307.678,13.764c0-0.293-0.018-0.594-0.043-0.878h0.816l0.018,0.835c0.155-0.603,0.672-0.801,1.033-0.852
			c0.24-0.035,0.422-0.026,0.559-0.018v0.792c-0.043-0.018-0.094-0.026-0.154-0.035c-0.061-0.008-0.138-0.008-0.232-0.008
			c-0.955,0-1.179,0.567-1.179,1.308v2.298h-0.817V13.764z"/>
		<path fill="#231F20" d="M310.111,12.869h0.766v-0.904l0.801-0.258v1.162h0.963v0.594h-0.963v2.59c0,0.215,0,0.577,0.576,0.577
			c0.163,0,0.318-0.026,0.387-0.044v0.629c-0.146,0.025-0.379,0.052-0.671,0.052c-0.74,0-1.093-0.216-1.093-0.921v-2.883h-0.766
			V12.869z"/>
		<path fill="#231F20" d="M313.561,11.01h0.973v0.887h-0.973V11.01z M313.646,12.886h0.809v4.32h-0.809V12.886z"/>
		<path fill="#231F20" d="M316.055,13.385l-0.01-0.499h0.81l0.009,0.697c0.095-0.181,0.404-0.783,1.385-0.783
			c0.388,0,1.566,0.146,1.566,1.472v2.935h-0.826v-2.745c0-0.284-0.034-0.542-0.232-0.74c-0.206-0.198-0.49-0.293-0.766-0.293
			c-0.585,0-1.127,0.422-1.127,1.291v2.487h-0.809V13.385z"/>
		<path fill="#231F20" d="M322.059,17.542c0.034,0.481,0.24,0.843,1.006,0.843c1.128,0,1.146-0.817,1.146-1.987
			c-0.345,0.714-1.162,0.731-1.421,0.731c-0.395,0-0.963-0.086-1.324-0.534c-0.371-0.438-0.491-1.016-0.491-1.592
			c0-1.463,0.86-2.178,1.919-2.178c0.869,0,1.188,0.431,1.36,0.654l0.009-0.594h0.783l-0.018,0.783l-0.009,2.702
			c0,1.041-0.034,1.463-0.206,1.79c-0.361,0.688-1.205,0.774-1.799,0.774c-1.73,0-1.781-0.809-1.816-1.394H322.059z M323.943,16.096
			c0.172-0.224,0.292-0.456,0.292-1.239c0-0.542-0.12-0.852-0.335-1.075c-0.216-0.232-0.561-0.379-0.93-0.379
			c-1.024,0-1.162,1.032-1.162,1.583c0,0.663,0.198,1.541,1.188,1.541C323.47,16.526,323.745,16.355,323.943,16.096z"/>
		<path fill="#231F20" d="M328.93,10.992h1.799c0.834,0,1.815,0,2.504,0.81c0.551,0.646,0.766,1.497,0.766,2.35
			c0,1.342-0.559,2.168-1.032,2.547c-0.61,0.508-1.377,0.508-2.289,0.508h-1.747V10.992z M329.79,16.5h0.844
			c0.594,0,1.214-0.034,1.626-0.344c0.792-0.594,0.818-1.609,0.818-1.971c0-0.232-0.018-1.291-0.603-1.937
			c-0.396-0.438-0.896-0.542-1.652-0.542h-1.033V16.5z"/>
		<path fill="#231F20" d="M337.016,12.774c1.729,0,2.117,1.359,2.117,2.263c0,1.266-0.715,2.315-2.187,2.315
			c-1.429,0-2.126-0.99-2.126-2.255C334.82,14.03,335.32,12.774,337.016,12.774z M336.964,16.75c0.61,0,1.308-0.439,1.308-1.738
			c0-1.076-0.499-1.644-1.256-1.644c-0.517,0-1.352,0.327-1.352,1.678C335.664,15.933,336.043,16.75,336.964,16.75z"/>
		<path fill="#231F20" d="M340.859,15.924c-0.009,0.327,0.164,0.783,0.946,0.783c0.336,0,0.585-0.061,0.758-0.275
			c0.086-0.112,0.138-0.258,0.138-0.404c0-0.422-0.301-0.499-0.947-0.646c-0.903-0.207-1.66-0.388-1.66-1.291
			c0-0.792,0.688-1.309,1.687-1.309c0.542,0,1.3,0.155,1.558,0.672c0.111,0.241,0.111,0.447,0.111,0.628h-0.826
			c0.026-0.654-0.542-0.706-0.834-0.706c-0.121,0-0.878,0-0.878,0.62c0,0.396,0.388,0.49,0.61,0.551
			c1.197,0.284,1.455,0.353,1.713,0.594c0.241,0.224,0.327,0.525,0.327,0.801c0,0.481-0.267,0.895-0.585,1.093
			c-0.379,0.232-0.835,0.292-1.283,0.292c-0.877,0-1.695-0.361-1.686-1.402H340.859z"/>
		<path fill="#231F20" d="M345.186,15.192c-0.018,0.895,0.353,1.558,1.239,1.558c0.524,0,0.946-0.275,1.015-0.896h0.81
			c-0.026,0.216-0.06,0.568-0.37,0.904c-0.189,0.215-0.619,0.576-1.488,0.576c-1.36,0-2.006-0.843-2.006-2.212
			c0-0.852,0.172-1.558,0.852-2.03c0.414-0.293,0.93-0.318,1.18-0.318c1.937,0,1.894,1.712,1.876,2.418H345.186z M347.466,14.624
			c0.009-0.413-0.069-1.273-1.067-1.273c-0.524,0-1.162,0.318-1.179,1.273H347.466z"/>
		<path fill="#231F20" d="M353.744,12.774c1.729,0,2.117,1.359,2.117,2.263c0,1.266-0.715,2.315-2.187,2.315
			c-1.429,0-2.126-0.99-2.126-2.255C351.549,14.03,352.049,12.774,353.744,12.774z M353.692,16.75c0.61,0,1.308-0.439,1.308-1.738
			c0-1.076-0.499-1.644-1.256-1.644c-0.517,0-1.352,0.327-1.352,1.678C352.393,15.933,352.771,16.75,353.692,16.75z"/>
		<path fill="#231F20" d="M359.283,11.595c-0.138-0.009-0.311-0.017-0.474-0.017c-0.653,0-0.653,0.326-0.653,0.628v0.68h1.006v0.585
			h-1.006v3.735h-0.801v-3.735h-0.852v-0.585h0.852v-0.49c0-0.594,0.034-0.81,0.181-1.033c0.181-0.275,0.524-0.473,1.085-0.473
			c0.232,0,0.49,0.034,0.662,0.06V11.595z"/>
		<path fill="#231F20" d="M362.421,10.992h0.853v5.448h2.891v0.766h-3.743V10.992z"/>
		<path fill="#231F20" d="M367.16,10.992h0.86v6.214h-0.86V10.992z"/>
		<path fill="#231F20" d="M369.551,10.992h2.082c0.758,0,1.274,0.043,1.695,0.5c0.311,0.318,0.457,0.739,0.457,1.204
			c0,0.474-0.155,0.878-0.49,1.214c-0.328,0.327-0.758,0.533-1.877,0.533h-1.007v2.763h-0.86V10.992z M370.411,13.721h1.024
			c0.568,0,1.438-0.043,1.438-1.059c0-0.973-0.81-0.973-1.257-0.973h-1.205V13.721z"/>
		<path fill="#231F20" d="M374.807,10.992h0.86v6.214h-0.86V10.992z"/>
		<path fill="#231F20" d="M378.703,17.206v-5.482h-2.083v-0.731h5.018v0.731h-2.083v5.482H378.703z"/>
		<path fill="#231F20" d="M382.658,11.664c0.646-0.697,1.498-0.835,2.074-0.835c1.722,0,2.806,1.102,2.806,3.21
			c0,1.652-0.663,3.313-2.874,3.313c-2.117,0-2.806-1.506-2.806-3.21C381.858,13.437,381.979,12.396,382.658,11.664z
			 M383.313,16.053c0.354,0.439,0.887,0.568,1.377,0.568c0.508,0,1.016-0.138,1.377-0.568c0.508-0.619,0.56-1.601,0.56-2.022
			c0-1.411-0.465-2.479-1.885-2.479c-1.575,0-1.979,1.266-1.979,2.539C382.762,14.771,382.883,15.52,383.313,16.053z"/>
		<path fill="#231F20" d="M388.782,10.992h2.22c0.318,0,0.973,0,1.43,0.293c0.464,0.293,0.688,0.766,0.688,1.265
			c0,0.439-0.163,0.826-0.438,1.102c-0.267,0.268-0.542,0.354-0.731,0.405c0.594,0.154,0.86,0.421,0.946,1.196
			c0.087,0.731,0.146,1.265,0.388,1.953h-0.921c-0.138-0.413-0.224-1.171-0.284-1.644c-0.104-0.904-0.318-1.162-1.359-1.162h-1.084
			v2.806h-0.853V10.992z M389.617,13.669h1.359c0.095,0,0.586,0,0.817-0.138c0.12-0.068,0.422-0.293,0.422-0.809
			c0-1.007-0.896-1.007-1.239-1.007h-1.359V13.669z"/>
	</g>
	<g>
		<path fill="#231F20" d="M397.731,12.518c0,1.064-0.863,1.907-1.897,1.907c-1.024,0-1.898-0.843-1.898-1.907
			s0.885-1.897,1.898-1.897C396.878,10.62,397.731,11.463,397.731,12.518z M394.162,12.518c0,0.943,0.758,1.687,1.672,1.687
			c0.924,0,1.672-0.753,1.672-1.687c0-0.898-0.729-1.672-1.672-1.672C394.92,10.846,394.162,11.599,394.162,12.518z M395.141,11.483
			h0.723c0.151,0,0.693,0,0.693,0.512c0,0.061,0,0.382-0.381,0.492c0.211,0.051,0.28,0.141,0.311,0.392s0.051,0.441,0.121,0.643
			h-0.291c-0.041-0.131-0.061-0.211-0.102-0.532c-0.029-0.312-0.109-0.392-0.441-0.392h-0.352v0.924h-0.281V11.483z M395.422,12.356
			h0.441c0.141,0,0.402,0,0.402-0.311c0-0.321-0.251-0.321-0.402-0.321h-0.441V12.356z"/>
	</g>
	<g>
		<path fill="#231F20" d="M399.854,11.01h0.973v0.887h-0.973V11.01z M399.941,12.886h0.809v4.32h-0.809V12.886z"/>
		<path fill="#231F20" d="M402.788,15.924c-0.009,0.327,0.163,0.783,0.946,0.783c0.336,0,0.586-0.061,0.758-0.275
			c0.086-0.112,0.138-0.258,0.138-0.404c0-0.422-0.302-0.499-0.946-0.646c-0.904-0.207-1.662-0.388-1.662-1.291
			c0-0.792,0.689-1.309,1.688-1.309c0.542,0,1.299,0.155,1.558,0.672c0.112,0.241,0.112,0.447,0.112,0.628h-0.826
			c0.025-0.654-0.543-0.706-0.836-0.706c-0.12,0-0.877,0-0.877,0.62c0,0.396,0.387,0.49,0.611,0.551
			c1.195,0.284,1.454,0.353,1.712,0.594c0.241,0.224,0.327,0.525,0.327,0.801c0,0.481-0.267,0.895-0.585,1.093
			c-0.379,0.232-0.835,0.292-1.282,0.292c-0.878,0-1.695-0.361-1.688-1.402H402.788z"/>
		<path fill="#231F20" d="M410.59,12.188c-0.37,0.311-0.965,0.663-1.386,0.861v-0.861c0.56-0.292,1.11-0.653,1.446-0.938h0.766
			v5.955h-0.826V12.188z"/>
		<path fill="#231F20" d="M414.941,11.13c1.781,0,1.997,1.911,1.997,3.029c0,1.412-0.284,2.203-0.826,2.711
			c-0.422,0.396-0.921,0.456-1.188,0.456c-0.791,0-1.334-0.465-1.592-0.989c-0.197-0.396-0.387-0.973-0.387-2.04
			C412.945,13.411,413.049,11.13,414.941,11.13z M414.934,16.612c0.998,0,1.17-1.309,1.17-2.375c0-1.429-0.25-2.419-1.153-2.419
			c-1.041,0-1.179,1.369-1.179,2.436C413.771,15.579,414.029,16.612,414.934,16.612z"/>
		<path fill="#231F20" d="M418.097,13.463l-0.017-0.577h0.817v0.628c0.413-0.68,0.998-0.739,1.368-0.739
			c0.955,0,1.256,0.49,1.411,0.809c0.146-0.241,0.499-0.809,1.454-0.809c0.62,0,1.584,0.258,1.584,1.531v2.9h-0.817v-2.771
			c0-0.378-0.069-0.542-0.146-0.653c-0.138-0.198-0.413-0.379-0.826-0.379c-0.524,0-0.81,0.301-0.921,0.456
			c-0.189,0.267-0.189,0.74-0.189,0.93v2.418h-0.817v-2.857c0-0.533-0.31-0.946-0.946-0.946c-0.551,0-0.853,0.344-0.947,0.474
			c-0.181,0.249-0.189,0.602-0.189,0.877v2.453h-0.817V13.463z"/>
		<path fill="#231F20" d="M426.999,17.542c0.034,0.481,0.241,0.843,1.007,0.843c1.127,0,1.145-0.817,1.145-1.987
			c-0.344,0.714-1.162,0.731-1.42,0.731c-0.396,0-0.964-0.086-1.325-0.534c-0.37-0.438-0.49-1.016-0.49-1.592
			c0-1.463,0.86-2.178,1.919-2.178c0.869,0,1.188,0.431,1.359,0.654l0.009-0.594h0.783l-0.017,0.783l-0.01,2.702
			c0,1.041-0.033,1.463-0.206,1.79c-0.361,0.688-1.204,0.774-1.798,0.774c-1.73,0-1.782-0.809-1.816-1.394H426.999z M428.884,16.096
			c0.173-0.224,0.292-0.456,0.292-1.239c0-0.542-0.119-0.852-0.335-1.075c-0.216-0.232-0.56-0.379-0.93-0.379
			c-1.024,0-1.161,1.032-1.161,1.583c0,0.663,0.197,1.541,1.188,1.541C428.41,16.526,428.686,16.355,428.884,16.096z"/>
		<path fill="#231F20" d="M431.936,10.734c0.465,1.145,1.024,2.564,1.024,3.821c0,0.68-0.155,1.351-0.353,2.005
			c-0.241,0.774-0.465,1.334-0.611,1.704h-0.568c0.139-0.431,0.328-1.016,0.508-1.833c0.182-0.783,0.242-1.325,0.242-1.859
			c0-1.213-0.302-2.203-0.801-3.838H431.936z"/>
	</g>
	<g>
		<path fill="#231F20" d="M0.27,21.088h1.196l3.056,5.138v-5.138h0.791v6.214H4.211l-3.158-5.275v5.275H0.27V21.088z"/>
		<path fill="#231F20" d="M8.777,22.87c1.729,0,2.117,1.359,2.117,2.263c0,1.266-0.715,2.315-2.187,2.315
			c-1.429,0-2.126-0.99-2.126-2.255C6.582,24.126,7.082,22.87,8.777,22.87z M8.726,26.846c0.61,0,1.308-0.439,1.308-1.738
			c0-1.076-0.499-1.644-1.256-1.644c-0.517,0-1.352,0.327-1.352,1.678C7.426,26.028,7.805,26.846,8.726,26.846z"/>
		<path fill="#231F20" d="M11.493,22.965h0.766v-0.904l0.801-0.258v1.162h0.964v0.594H13.06v2.59c0,0.215,0,0.577,0.576,0.577
			c0.163,0,0.319-0.026,0.388-0.044v0.629c-0.146,0.025-0.379,0.052-0.672,0.052c-0.74,0-1.093-0.216-1.093-0.921v-2.883h-0.766
			V22.965z"/>
		<path fill="#231F20" d="M20.045,27.302c-0.061-0.215-0.078-0.422-0.078-0.646c-0.387,0.715-0.973,0.783-1.334,0.783
			c-0.989,0-1.523-0.56-1.523-1.273c0-0.345,0.121-0.896,0.758-1.266c0.465-0.258,1.153-0.283,1.498-0.283
			c0.206,0,0.335,0.008,0.584,0.025c0-0.533,0-0.766-0.154-0.955c-0.164-0.216-0.516-0.284-0.748-0.284
			c-0.818,0-0.861,0.56-0.869,0.731h-0.81c0.026-0.224,0.052-0.525,0.302-0.817c0.326-0.361,0.938-0.465,1.394-0.465
			c0.628,0,1.3,0.198,1.532,0.637c0.137,0.258,0.146,0.465,0.146,0.663l-0.035,2.065c0,0.068,0.009,0.646,0.068,1.084H20.045z
			 M19.485,25.176c-0.327,0-1.558,0-1.558,0.878c0,0.275,0.172,0.749,0.895,0.749c0.413,0,0.723-0.164,0.921-0.465
			c0.181-0.293,0.189-0.533,0.206-1.136C19.804,25.185,19.684,25.176,19.485,25.176z"/>
		<path fill="#231F20" d="M22.21,21.097h0.81v6.205h-0.81V21.097z"/>
		<path fill="#231F20" d="M24.602,21.097h0.809v6.205h-0.809V21.097z"/>
		<path fill="#231F20" d="M29.831,26.02c-0.009,0.327,0.163,0.783,0.946,0.783c0.336,0,0.586-0.061,0.758-0.275
			c0.086-0.112,0.138-0.258,0.138-0.404c0-0.422-0.302-0.499-0.946-0.646c-0.904-0.207-1.662-0.388-1.662-1.291
			c0-0.792,0.689-1.309,1.688-1.309c0.542,0,1.299,0.155,1.558,0.672c0.112,0.241,0.112,0.447,0.112,0.628h-0.826
			c0.025-0.654-0.543-0.706-0.836-0.706c-0.12,0-0.877,0-0.877,0.62c0,0.396,0.387,0.49,0.611,0.551
			c1.195,0.284,1.454,0.353,1.712,0.594c0.241,0.224,0.327,0.525,0.327,0.801c0,0.481-0.267,0.895-0.585,1.093
			c-0.379,0.232-0.835,0.292-1.282,0.292c-0.878,0-1.695-0.361-1.688-1.402H29.831z"/>
		<path fill="#231F20" d="M33.004,22.965h0.766v-0.904l0.801-0.258v1.162h0.964v0.594H34.57v2.59c0,0.215,0,0.577,0.576,0.577
			c0.164,0,0.318-0.026,0.388-0.044v0.629c-0.146,0.025-0.379,0.052-0.671,0.052c-0.74,0-1.094-0.216-1.094-0.921v-2.883h-0.766
			V22.965z"/>
		<path fill="#231F20" d="M36.574,23.859c0-0.293-0.018-0.594-0.043-0.878h0.816l0.018,0.835c0.155-0.603,0.672-0.801,1.033-0.852
			c0.24-0.035,0.422-0.026,0.559-0.018v0.792c-0.043-0.018-0.094-0.026-0.154-0.035c-0.061-0.008-0.138-0.008-0.232-0.008
			c-0.955,0-1.179,0.567-1.179,1.308v2.298h-0.817V23.859z"/>
		<path fill="#231F20" d="M40.367,25.288c-0.018,0.895,0.352,1.558,1.238,1.558c0.525,0,0.947-0.275,1.016-0.896h0.809
			c-0.025,0.216-0.06,0.568-0.369,0.904c-0.189,0.215-0.62,0.576-1.489,0.576c-1.36,0-2.005-0.843-2.005-2.212
			c0-0.852,0.172-1.558,0.852-2.03c0.413-0.293,0.93-0.318,1.18-0.318c1.936,0,1.893,1.712,1.875,2.418H40.367z M42.646,24.72
			c0.01-0.413-0.068-1.273-1.066-1.273c-0.525,0-1.162,0.318-1.18,1.273H42.646z"/>
		<path fill="#231F20" d="M44.684,23.48l-0.008-0.499h0.809l0.009,0.697c0.095-0.181,0.404-0.783,1.386-0.783
			c0.387,0,1.566,0.146,1.566,1.472v2.935h-0.826v-2.745c0-0.284-0.035-0.542-0.232-0.74c-0.207-0.198-0.491-0.293-0.767-0.293
			c-0.585,0-1.127,0.422-1.127,1.291v2.487h-0.81V23.48z"/>
		<path fill="#231F20" d="M50.688,27.638c0.035,0.481,0.241,0.843,1.007,0.843c1.128,0,1.145-0.817,1.145-1.987
			c-0.344,0.714-1.161,0.731-1.42,0.731c-0.396,0-0.964-0.086-1.325-0.534c-0.37-0.438-0.49-1.016-0.49-1.592
			c0-1.463,0.86-2.178,1.919-2.178c0.869,0,1.188,0.431,1.36,0.654l0.008-0.594h0.783l-0.018,0.783l-0.008,2.702
			c0,1.041-0.035,1.463-0.207,1.79c-0.361,0.688-1.205,0.774-1.799,0.774c-1.729,0-1.781-0.809-1.815-1.394H50.688z M52.572,26.191
			c0.172-0.224,0.293-0.456,0.293-1.239c0-0.542-0.121-0.852-0.336-1.075c-0.215-0.232-0.56-0.379-0.93-0.379
			c-1.023,0-1.162,1.032-1.162,1.583c0,0.663,0.198,1.541,1.188,1.541C52.1,26.622,52.375,26.45,52.572,26.191z"/>
		<path fill="#231F20" d="M54.506,22.965h0.766v-0.904l0.801-0.258v1.162h0.964v0.594h-0.964v2.59c0,0.215,0,0.577,0.576,0.577
			c0.164,0,0.318-0.026,0.388-0.044v0.629c-0.146,0.025-0.379,0.052-0.671,0.052c-0.74,0-1.094-0.216-1.094-0.921v-2.883h-0.766
			V22.965z"/>
		<path fill="#231F20" d="M58.032,21.097h0.817v2.521c0.268-0.456,0.801-0.714,1.402-0.714c0.457,0,1.111,0.163,1.36,0.688
			c0.086,0.172,0.146,0.379,0.146,1.007v2.702h-0.826v-2.556c0-0.388,0-1.223-0.93-1.223c-0.603,0-0.903,0.37-1.016,0.577
			c-0.138,0.241-0.138,0.646-0.138,0.912v2.289h-0.817V21.097z"/>
		<path fill="#231F20" d="M63.752,26.02c-0.008,0.327,0.164,0.783,0.947,0.783c0.336,0,0.585-0.061,0.757-0.275
			c0.087-0.112,0.138-0.258,0.138-0.404c0-0.422-0.301-0.499-0.946-0.646c-0.903-0.207-1.661-0.388-1.661-1.291
			c0-0.792,0.688-1.309,1.688-1.309c0.541,0,1.299,0.155,1.557,0.672c0.112,0.241,0.112,0.447,0.112,0.628h-0.826
			c0.026-0.654-0.542-0.706-0.835-0.706c-0.12,0-0.878,0-0.878,0.62c0,0.396,0.388,0.49,0.611,0.551
			c1.196,0.284,1.454,0.353,1.712,0.594c0.242,0.224,0.328,0.525,0.328,0.801c0,0.481-0.268,0.895-0.586,1.093
			c-0.379,0.232-0.834,0.292-1.282,0.292c-0.878,0-1.695-0.361-1.687-1.402H63.752z"/>
		<path fill="#231F20" d="M72.612,27.302c-0.06-0.215-0.077-0.422-0.077-0.646c-0.388,0.715-0.973,0.783-1.334,0.783
			c-0.99,0-1.523-0.56-1.523-1.273c0-0.345,0.121-0.896,0.758-1.266c0.465-0.258,1.152-0.283,1.497-0.283
			c0.206,0,0.335,0.008,0.585,0.025c0-0.533,0-0.766-0.154-0.955c-0.164-0.216-0.517-0.284-0.749-0.284
			c-0.817,0-0.86,0.56-0.869,0.731h-0.81c0.026-0.224,0.053-0.525,0.302-0.817c0.327-0.361,0.938-0.465,1.394-0.465
			c0.629,0,1.3,0.198,1.532,0.637c0.138,0.258,0.146,0.465,0.146,0.663l-0.034,2.065c0,0.068,0.008,0.646,0.068,1.084H72.612z
			 M72.053,25.176c-0.326,0-1.558,0-1.558,0.878c0,0.275,0.173,0.749,0.896,0.749c0.413,0,0.723-0.164,0.92-0.465
			c0.182-0.293,0.189-0.533,0.207-1.136C72.371,25.185,72.251,25.176,72.053,25.176z"/>
		<path fill="#231F20" d="M74.804,23.859c0-0.293-0.017-0.594-0.043-0.878h0.817l0.018,0.835c0.154-0.603,0.671-0.801,1.033-0.852
			c0.24-0.035,0.421-0.026,0.559-0.018v0.792c-0.043-0.018-0.095-0.026-0.154-0.035c-0.061-0.008-0.139-0.008-0.232-0.008
			c-0.955,0-1.18,0.567-1.18,1.308v2.298h-0.817V23.859z"/>
		<path fill="#231F20" d="M78.598,25.288c-0.018,0.895,0.352,1.558,1.238,1.558c0.525,0,0.947-0.275,1.016-0.896h0.809
			c-0.025,0.216-0.06,0.568-0.369,0.904c-0.189,0.215-0.62,0.576-1.489,0.576c-1.36,0-2.005-0.843-2.005-2.212
			c0-0.852,0.172-1.558,0.852-2.03c0.413-0.293,0.93-0.318,1.18-0.318c1.936,0,1.893,1.712,1.875,2.418H78.598z M80.877,24.72
			c0.01-0.413-0.068-1.273-1.066-1.273c-0.525,0-1.162,0.318-1.18,1.273H80.877z"/>
		<path fill="#231F20" d="M87.913,27.302c-0.06-0.215-0.077-0.422-0.077-0.646c-0.388,0.715-0.973,0.783-1.334,0.783
			c-0.99,0-1.523-0.56-1.523-1.273c0-0.345,0.121-0.896,0.758-1.266c0.465-0.258,1.152-0.283,1.497-0.283
			c0.206,0,0.335,0.008,0.585,0.025c0-0.533,0-0.766-0.154-0.955c-0.164-0.216-0.517-0.284-0.749-0.284
			c-0.817,0-0.86,0.56-0.869,0.731h-0.81c0.026-0.224,0.053-0.525,0.302-0.817c0.327-0.361,0.938-0.465,1.394-0.465
			c0.629,0,1.3,0.198,1.532,0.637c0.138,0.258,0.146,0.465,0.146,0.663l-0.034,2.065c0,0.068,0.008,0.646,0.068,1.084H87.913z
			 M87.354,25.176c-0.326,0-1.558,0-1.558,0.878c0,0.275,0.173,0.749,0.896,0.749c0.413,0,0.723-0.164,0.92-0.465
			c0.182-0.293,0.189-0.533,0.207-1.136C87.672,25.185,87.552,25.176,87.354,25.176z"/>
		<path fill="#231F20" d="M89.407,22.981h0.903l1.377,3.425l1.344-3.425h0.895l-1.894,4.32h-0.817L89.407,22.981z"/>
		<path fill="#231F20" d="M97.477,27.302c-0.06-0.215-0.076-0.422-0.076-0.646c-0.388,0.715-0.973,0.783-1.334,0.783
			c-0.99,0-1.523-0.56-1.523-1.273c0-0.345,0.12-0.896,0.757-1.266c0.465-0.258,1.153-0.283,1.497-0.283
			c0.207,0,0.336,0.008,0.586,0.025c0-0.533,0-0.766-0.155-0.955c-0.163-0.216-0.517-0.284-0.749-0.284
			c-0.817,0-0.86,0.56-0.869,0.731h-0.809c0.025-0.224,0.052-0.525,0.301-0.817c0.327-0.361,0.938-0.465,1.395-0.465
			c0.629,0,1.299,0.198,1.531,0.637c0.139,0.258,0.146,0.465,0.146,0.663l-0.034,2.065c0,0.068,0.009,0.646,0.069,1.084H97.477z
			 M96.918,25.176c-0.327,0-1.558,0-1.558,0.878c0,0.275,0.172,0.749,0.895,0.749c0.413,0,0.724-0.164,0.921-0.465
			c0.181-0.293,0.189-0.533,0.207-1.136C97.236,25.185,97.115,25.176,96.918,25.176z"/>
		<path fill="#231F20" d="M99.548,21.105h0.973v0.887h-0.973V21.105z M99.635,22.981h0.809v4.32h-0.809V22.981z"/>
		<path fill="#231F20" d="M102.033,21.097h0.81v6.205h-0.81V21.097z"/>
		<path fill="#231F20" d="M107.041,27.302c-0.061-0.215-0.077-0.422-0.077-0.646c-0.388,0.715-0.973,0.783-1.334,0.783
			c-0.989,0-1.523-0.56-1.523-1.273c0-0.345,0.12-0.896,0.757-1.266c0.465-0.258,1.154-0.283,1.498-0.283
			c0.207,0,0.336,0.008,0.585,0.025c0-0.533,0-0.766-0.155-0.955c-0.163-0.216-0.516-0.284-0.748-0.284
			c-0.818,0-0.861,0.56-0.869,0.731h-0.809c0.025-0.224,0.051-0.525,0.301-0.817c0.327-0.361,0.938-0.465,1.395-0.465
			c0.628,0,1.299,0.198,1.531,0.637c0.138,0.258,0.146,0.465,0.146,0.663l-0.035,2.065c0,0.068,0.01,0.646,0.069,1.084H107.041z
			 M106.482,25.176c-0.328,0-1.559,0-1.559,0.878c0,0.275,0.172,0.749,0.896,0.749c0.413,0,0.723-0.164,0.921-0.465
			c0.181-0.293,0.189-0.533,0.206-1.136C106.801,25.185,106.68,25.176,106.482,25.176z"/>
		<path fill="#231F20" d="M109.999,23.609c0.112-0.197,0.431-0.739,1.411-0.739c0.431,0,0.973,0.103,1.369,0.551
			c0.215,0.249,0.507,0.68,0.507,1.626c0,0.835-0.198,1.291-0.413,1.575c-0.344,0.49-0.92,0.74-1.515,0.74
			c-0.206,0-0.594-0.026-0.964-0.275c-0.24-0.164-0.336-0.311-0.422-0.439l-0.017,0.654h-0.783l0.017-0.774v-5.439h0.81V23.609z
			 M111.221,23.421c-1.239,0-1.239,1.445-1.239,1.721c0,0.284,0,1.635,1.205,1.635c0.998,0,1.248-0.972,1.248-1.678
			C112.435,24.668,112.348,23.421,111.221,23.421z"/>
		<path fill="#231F20" d="M114.462,21.097h0.81v6.205h-0.81V21.097z"/>
		<path fill="#231F20" d="M117.326,25.288c-0.018,0.895,0.354,1.558,1.24,1.558c0.524,0,0.945-0.275,1.015-0.896h0.81
			c-0.026,0.216-0.061,0.568-0.371,0.904c-0.188,0.215-0.619,0.576-1.488,0.576c-1.359,0-2.005-0.843-2.005-2.212
			c0-0.852,0.172-1.558,0.852-2.03c0.413-0.293,0.93-0.318,1.179-0.318c1.938,0,1.894,1.712,1.877,2.418H117.326z M119.607,24.72
			c0.008-0.413-0.069-1.273-1.067-1.273c-0.524,0-1.162,0.318-1.179,1.273H119.607z"/>
		<path fill="#231F20" d="M123.932,21.105h0.973v0.887h-0.973V21.105z M124.018,22.981h0.809v4.32h-0.809V22.981z"/>
		<path fill="#231F20" d="M126.426,23.48l-0.009-0.499h0.81l0.008,0.697c0.095-0.181,0.404-0.783,1.386-0.783
			c0.388,0,1.566,0.146,1.566,1.472v2.935h-0.826v-2.745c0-0.284-0.034-0.542-0.232-0.74c-0.206-0.198-0.49-0.293-0.766-0.293
			c-0.585,0-1.128,0.422-1.128,1.291v2.487h-0.809V23.48z"/>
		<path fill="#231F20" d="M136.68,27.302c-0.061-0.215-0.078-0.422-0.078-0.646c-0.387,0.715-0.973,0.783-1.334,0.783
			c-0.989,0-1.523-0.56-1.523-1.273c0-0.345,0.121-0.896,0.758-1.266c0.465-0.258,1.153-0.283,1.498-0.283
			c0.206,0,0.335,0.008,0.584,0.025c0-0.533,0-0.766-0.154-0.955c-0.164-0.216-0.516-0.284-0.748-0.284
			c-0.818,0-0.861,0.56-0.869,0.731h-0.81c0.026-0.224,0.052-0.525,0.302-0.817c0.326-0.361,0.938-0.465,1.394-0.465
			c0.628,0,1.3,0.198,1.532,0.637c0.137,0.258,0.146,0.465,0.146,0.663l-0.035,2.065c0,0.068,0.009,0.646,0.068,1.084H136.68z
			 M136.12,25.176c-0.327,0-1.558,0-1.558,0.878c0,0.275,0.172,0.749,0.895,0.749c0.413,0,0.723-0.164,0.921-0.465
			c0.181-0.293,0.189-0.533,0.206-1.136C136.438,25.185,136.318,25.176,136.12,25.176z"/>
		<path fill="#231F20" d="M138.846,21.097h0.809v6.205h-0.809V21.097z"/>
		<path fill="#231F20" d="M141.236,21.097h0.809v6.205h-0.809V21.097z"/>
		<path fill="#231F20" d="M145.992,23.559l-0.018-0.577h0.818v0.628c0.413-0.68,0.998-0.739,1.368-0.739
			c0.955,0,1.257,0.49,1.411,0.809c0.146-0.241,0.5-0.809,1.455-0.809c0.619,0,1.583,0.258,1.583,1.531v2.9h-0.817V24.53
			c0-0.378-0.068-0.542-0.146-0.653c-0.138-0.198-0.413-0.379-0.826-0.379c-0.525,0-0.809,0.301-0.921,0.456
			c-0.189,0.267-0.189,0.74-0.189,0.93v2.418h-0.817v-2.857c0-0.533-0.31-0.946-0.947-0.946c-0.551,0-0.852,0.344-0.946,0.474
			c-0.181,0.249-0.188,0.602-0.188,0.877v2.453h-0.818V23.559z"/>
		<path fill="#231F20" d="M156.754,27.302c-0.061-0.215-0.078-0.422-0.078-0.646c-0.387,0.715-0.973,0.783-1.334,0.783
			c-0.989,0-1.523-0.56-1.523-1.273c0-0.345,0.121-0.896,0.758-1.266c0.465-0.258,1.153-0.283,1.498-0.283
			c0.206,0,0.335,0.008,0.584,0.025c0-0.533,0-0.766-0.154-0.955c-0.164-0.216-0.516-0.284-0.748-0.284
			c-0.818,0-0.861,0.56-0.869,0.731h-0.81c0.026-0.224,0.052-0.525,0.302-0.817c0.326-0.361,0.938-0.465,1.394-0.465
			c0.628,0,1.3,0.198,1.532,0.637c0.137,0.258,0.146,0.465,0.146,0.663l-0.035,2.065c0,0.068,0.009,0.646,0.068,1.084H156.754z
			 M156.194,25.176c-0.327,0-1.558,0-1.558,0.878c0,0.275,0.172,0.749,0.895,0.749c0.413,0,0.723-0.164,0.921-0.465
			c0.181-0.293,0.189-0.533,0.206-1.136C156.513,25.185,156.393,25.176,156.194,25.176z"/>
		<path fill="#231F20" d="M158.945,23.859c0-0.293-0.018-0.594-0.043-0.878h0.817l0.018,0.835c0.155-0.603,0.671-0.801,1.032-0.852
			c0.241-0.035,0.422-0.026,0.56-0.018v0.792c-0.043-0.018-0.095-0.026-0.155-0.035c-0.06-0.008-0.137-0.008-0.232-0.008
			c-0.955,0-1.179,0.567-1.179,1.308v2.298h-0.817V23.859z"/>
		<path fill="#231F20" d="M162.188,21.045h0.801v3.701l1.617-1.765h1.059l-1.824,1.833l1.937,2.487h-1.059l-1.729-2.332v2.332
			h-0.801V21.045z"/>
		<path fill="#231F20" d="M167.203,25.288c-0.018,0.895,0.352,1.558,1.238,1.558c0.525,0,0.947-0.275,1.016-0.896h0.809
			c-0.025,0.216-0.06,0.568-0.369,0.904c-0.189,0.215-0.62,0.576-1.489,0.576c-1.36,0-2.005-0.843-2.005-2.212
			c0-0.852,0.172-1.558,0.852-2.03c0.413-0.293,0.93-0.318,1.18-0.318c1.936,0,1.893,1.712,1.875,2.418H167.203z M169.482,24.72
			c0.01-0.413-0.068-1.273-1.066-1.273c-0.525,0-1.162,0.318-1.18,1.273H169.482z"/>
		<path fill="#231F20" d="M170.831,22.965h0.766v-0.904l0.801-0.258v1.162h0.964v0.594h-0.964v2.59c0,0.215,0,0.577,0.576,0.577
			c0.163,0,0.319-0.026,0.388-0.044v0.629c-0.146,0.025-0.379,0.052-0.672,0.052c-0.74,0-1.093-0.216-1.093-0.921v-2.883h-0.766
			V22.965z"/>
		<path fill="#231F20" d="M174.822,26.02c-0.008,0.327,0.164,0.783,0.947,0.783c0.336,0,0.585-0.061,0.757-0.275
			c0.087-0.112,0.138-0.258,0.138-0.404c0-0.422-0.301-0.499-0.946-0.646c-0.903-0.207-1.661-0.388-1.661-1.291
			c0-0.792,0.688-1.309,1.688-1.309c0.541,0,1.299,0.155,1.557,0.672c0.112,0.241,0.112,0.447,0.112,0.628h-0.826
			c0.026-0.654-0.542-0.706-0.835-0.706c-0.12,0-0.878,0-0.878,0.62c0,0.396,0.388,0.49,0.611,0.551
			c1.196,0.284,1.454,0.353,1.712,0.594c0.242,0.224,0.328,0.525,0.328,0.801c0,0.481-0.268,0.895-0.586,1.093
			c-0.379,0.232-0.834,0.292-1.282,0.292c-0.878,0-1.695-0.361-1.687-1.402H174.822z"/>
		<path fill="#231F20" d="M178.598,26.27h0.955v1.032h-0.955V26.27z"/>
	</g>
</g>
</svg>
