<?xml version="1.0" encoding="utf-8"?>
<!-- Generator: Adobe Illustrator 17.0.0, SVG Export Plug-In . SVG Version: 6.00 Build 0)  -->
<!DOCTYPE svg PUBLIC "-//W3C//DTD SVG 1.1//EN" "http://www.w3.org/Graphics/SVG/1.1/DTD/svg11.dtd">
<svg version="1.1" id="Layer_1" xmlns="http://www.w3.org/2000/svg" xmlns:xlink="http://www.w3.org/1999/xlink" x="0px" y="0px"
	 width="766.157px" height="28.708px" viewBox="0 0 766.157 28.708" enable-background="new 0 0 766.157 28.708"
	 xml:space="preserve">
<g>
	<g>
		<path d="M0,1.289h4.899v17.219h9.519v4.44H0V1.289z"/>
		<path d="M16.827,1.289h4.899v21.659h-4.899V1.289z"/>
		<path d="M25.789,1.289h9.402c3.779,0,6.626,2.16,6.626,7.11c0,4.35-2.123,6.87-7.187,6.87h-3.942v7.68h-4.899V1.289z
			 M30.688,11.068h3.01c1.843,0,3.079-0.6,3.079-2.76c0-1.86-0.956-2.82-2.706-2.82h-3.383V11.068z"/>
		<path d="M44.482,1.289h4.899v21.659h-4.899V1.289z"/>
		<path d="M58.32,5.729h-6.486v-4.44h17.871v4.44H63.22v17.219H58.32V5.729z"/>
		<path d="M81.54,0.719c7.046,0,10.009,4.86,10.009,11.399S88.586,23.518,81.54,23.518s-10.009-4.86-10.009-11.399
			S74.494,0.719,81.54,0.719z M81.54,19.078c3.733,0,4.97-3.15,4.97-6.96s-1.236-6.959-4.97-6.959c-3.732,0-4.969,3.149-4.969,6.959
			S77.808,19.078,81.54,19.078z"/>
		<path d="M95.126,1.289h10.289c4.06,0,6.369,1.89,6.369,5.67c0,2.76-1.75,4.68-4.27,5.25v0.06c1.423,0.12,2.753,0.54,3.313,1.89
			c0.817,1.98,0.91,6.54,1.61,8.79h-5.203c-0.536-2.1-0.467-5.22-0.933-6.72c-0.304-0.99-1.05-1.5-3.01-1.5h-3.267v8.22h-4.899
			V1.289z M100.025,10.528h3.896c2.239,0,2.963-0.9,2.963-2.55c0-2.1-1.283-2.49-3.64-2.49h-3.22V10.528z"/>
		<path d="M118.984,0c2.858,0,5.172,2.973,5.172,6.645c0,3.672-2.313,6.645-5.172,6.645s-5.172-2.973-5.172-6.645
			C113.813,2.973,116.126,0,118.984,0z M118.984,11.156c1.946,0,3.43-2.011,3.43-4.511c0-2.501-1.483-4.512-3.43-4.512
			s-3.43,2.011-3.43,4.512C115.555,9.146,117.038,11.156,118.984,11.156z M116.942,3.095h2.028c1.483,0,2.327,0.489,2.327,2.133
			c0,1.294-0.626,1.784-1.17,1.854l1.089,2.763h-1.348l-1.048-2.675h-0.626v2.675h-1.253V3.095z M118.195,5.875h0.966
			c0.531,0,0.803-0.21,0.803-0.752c0-0.524-0.313-0.734-0.897-0.734h-0.871V5.875z"/>
		<path d="M126.571,7.888h4.34v4.62h-4.34V7.888z M126.571,18.328h4.34v4.62h-4.34V18.328z"/>
		<path d="M144.027,1.289h14.465v4.44h-9.565v4.02h9.053v4.439h-9.053v4.32h9.775v4.44h-14.675V1.289z"/>
		<path d="M166.314,18.238c0,0.81,0.21,1.35,0.56,1.71c0.35,0.36,0.887,0.45,1.47,0.45c0.934,0,2.333-0.18,2.333-1.65
			c0-1.05-1.05-1.41-1.96-1.59l-3.103-0.63c-2.239-0.45-3.546-1.83-3.546-4.169c0-4.29,3.826-5.04,6.393-5.04
			c5.086,0,6.462,1.89,6.556,5.04h-4.479c-0.07-0.81-0.304-1.29-0.583-1.53c-0.327-0.27-1.027-0.39-1.587-0.39
			c-0.723,0-1.68,0.39-1.68,1.32c0,1.08,1.097,1.35,2.053,1.56l3.033,0.63c2.566,0.54,3.523,2.01,3.523,4.5
			c0,4.59-4.526,5.07-7.116,5.07c-5.856,0-6.322-3.06-6.486-5.28H166.314z"/>
		<path d="M176.654,7.888h2.87v-3.06l4.479-2.1v5.16h3.779v3.66h-3.779v4.709c0,2.1,0.21,3.21,2.006,3.21
			c0.42,0,1.073-0.06,1.773-0.18v3.66c-0.42,0.09-1.609,0.36-3.01,0.36c-3.43,0-5.249-1.71-5.249-5.37v-6.39h-2.87V7.888z"/>
		<path d="M189.957,12.328c0.233-3.93,3.663-5.01,6.742-5.01c4.573,0,7.186,1.41,7.186,6.51v5.76c0,1.11,0.023,2.25,0.094,3.36
			h-4.34c-0.046-0.51-0.093-1.62-0.093-2.43h-0.047c-1.073,2.28-3.08,3-5.063,3c-3.337,0-5.297-1.74-5.297-4.89
			c0-3.57,2.613-5.19,7-5.19h3.266c0-2.4-0.863-3-2.636-3c-1.657,0-2.17,0.84-2.193,1.89H189.957z M197.539,16.378
			c-3.01,0-3.64,1.02-3.64,2.28c0,0.93,0.677,1.56,1.937,1.56c2.916,0,3.569-2.28,3.569-3.84H197.539z"/>
		<path d="M207.577,1.289h4.479v8.58c0.91-1.2,2.403-2.55,4.993-2.55c3.919,0,6.626,3.03,6.626,8.01c0,5.16-2.8,8.189-6.51,8.189
			c-2.916,0-4.223-1.5-5.249-3.06c0,0.84-0.023,1.65-0.094,2.49h-4.339c0.069-0.81,0.093-1.56,0.093-2.49V1.289z M215.533,10.798
			c-2.03,0-3.477,1.83-3.477,4.74c0,2.67,1.446,4.5,3.477,4.5c2.31,0,3.383-2.28,3.383-4.71
			C218.916,12.688,217.517,10.798,215.533,10.798z"/>
		<path d="M226.784,1.289h4.479v21.659h-4.479V1.289z"/>
		<path d="M240.108,5.488h-4.899v-4.2h4.899V5.488z M235.419,7.888h4.479v15.06h-4.479V7.888z"/>
		<path d="M247.577,18.238c0,0.81,0.21,1.35,0.56,1.71c0.35,0.36,0.887,0.45,1.47,0.45c0.934,0,2.333-0.18,2.333-1.65
			c0-1.05-1.05-1.41-1.96-1.59l-3.103-0.63c-2.239-0.45-3.546-1.83-3.546-4.169c0-4.29,3.826-5.04,6.393-5.04
			c5.086,0,6.462,1.89,6.556,5.04H251.8c-0.07-0.81-0.304-1.29-0.583-1.53c-0.327-0.27-1.026-0.39-1.587-0.39
			c-0.723,0-1.68,0.39-1.68,1.32c0,1.08,1.097,1.35,2.053,1.56l3.033,0.63c2.566,0.54,3.523,2.01,3.523,4.5
			c0,4.59-4.526,5.07-7.116,5.07c-5.856,0-6.322-3.06-6.486-5.28H247.577z"/>
		<path d="M259.434,1.289h4.479v9.18c1.446-2.19,2.776-3.15,4.946-3.15c4.199,0,5.81,3.12,5.81,7.05v8.58h-4.479v-7.709
			c0-2.4-0.816-4.08-2.847-4.08c-1.843,0-3.43,1.83-3.43,5.16v6.63h-4.479V1.289z"/>
		<path d="M282.211,16.828c0.093,2.34,1.166,3.57,3.056,3.57c1.96,0,2.31-1.02,2.543-2.04h4.76c-0.934,4.77-4.13,5.16-7.372,5.16
			c-4.06,0-7.606-1.92-7.606-7.859c0-5.82,3.523-8.34,7.536-8.34c5.716,0,7.676,3.63,7.699,9.51H282.211z M288.066,13.708
			c-0.047-2.46-1.307-3.27-2.893-3.27c-2.077,0-2.684,1.709-2.894,3.27H288.066z"/>
		<path d="M310.983,20.458c0,0.93,0.023,1.68,0.093,2.49h-4.339c-0.07-0.84-0.094-1.65-0.094-2.49
			c-1.026,1.56-2.333,3.06-5.249,3.06c-3.71,0-6.51-3.03-6.51-8.189c0-4.98,2.706-8.01,6.626-8.01c2.59,0,4.083,1.35,4.993,2.55
			v-8.58h4.479V20.458z M303.027,20.038c2.03,0,3.477-1.83,3.477-4.5c0-2.91-1.446-4.74-3.477-4.74c-1.983,0-3.383,1.89-3.383,4.53
			C299.645,17.758,300.718,20.038,303.027,20.038z"/>
		<path d="M327.113,18.238c0,0.81,0.21,1.35,0.56,1.71c0.35,0.36,0.887,0.45,1.47,0.45c0.934,0,2.333-0.18,2.333-1.65
			c0-1.05-1.05-1.41-1.96-1.59l-3.103-0.63c-2.239-0.45-3.546-1.83-3.546-4.169c0-4.29,3.826-5.04,6.393-5.04
			c5.086,0,6.462,1.89,6.556,5.04h-4.479c-0.07-0.81-0.304-1.29-0.583-1.53c-0.327-0.27-1.027-0.39-1.587-0.39
			c-0.723,0-1.68,0.39-1.68,1.32c0,1.08,1.097,1.35,2.053,1.56l3.033,0.63c2.566,0.54,3.523,2.01,3.523,4.5
			c0,4.59-4.526,5.07-7.116,5.07c-5.856,0-6.322-3.06-6.486-5.28H327.113z"/>
		<path d="M338.644,12.328c0.233-3.93,3.662-5.01,6.742-5.01c4.573,0,7.186,1.41,7.186,6.51v5.76c0,1.11,0.023,2.25,0.094,3.36
			h-4.34c-0.047-0.51-0.093-1.62-0.093-2.43h-0.047c-1.073,2.28-3.08,3-5.063,3c-3.337,0-5.296-1.74-5.296-4.89
			c0-3.57,2.612-5.19,6.999-5.19h3.266c0-2.4-0.863-3-2.636-3c-1.656,0-2.17,0.84-2.193,1.89H338.644z M346.226,16.378
			c-3.01,0-3.64,1.02-3.64,2.28c0,0.93,0.677,1.56,1.937,1.56c2.916,0,3.569-2.28,3.569-3.84H346.226z"/>
		<path d="M357.616,11.548h-2.707v-3.66h2.707c0-5.819,2.076-6.779,6.369-6.779c0.49,0,1.47,0.09,1.96,0.18v3.42
			c-0.351-0.06-0.771-0.12-1.214-0.12c-1.726,0-2.566,0.51-2.566,3.3h3.523v3.66h-3.593v11.399h-4.479V11.548z"/>
		<path d="M372.133,16.828c0.093,2.34,1.166,3.57,3.056,3.57c1.96,0,2.31-1.02,2.543-2.04h4.76c-0.934,4.77-4.13,5.16-7.372,5.16
			c-4.06,0-7.606-1.92-7.606-7.859c0-5.82,3.523-8.34,7.536-8.34c5.716,0,7.676,3.63,7.699,9.51H372.133z M377.988,13.708
			c-0.047-2.46-1.307-3.27-2.893-3.27c-2.077,0-2.684,1.709-2.894,3.27H377.988z"/>
		<path d="M384.152,7.888h2.87v-3.06l4.479-2.1v5.16h3.779v3.66h-3.779v4.709c0,2.1,0.21,3.21,2.006,3.21
			c0.42,0,1.073-0.06,1.773-0.18v3.66c-0.42,0.09-1.609,0.36-3.01,0.36c-3.43,0-5.249-1.71-5.249-5.37v-6.39h-2.87V7.888z"/>
		<path d="M402.261,22.948l-6.02-15.06h5.227l3.359,10.35l3.593-10.35h4.41l-8.353,20.819h-4.76L402.261,22.948z"/>
		<path d="M423.71,10.378c0-0.93-0.023-1.68-0.093-2.49h4.339c0.07,0.84,0.094,1.65,0.094,2.49c1.026-1.56,2.333-3.06,5.249-3.06
			c3.71,0,6.51,3.03,6.51,8.19c0,4.979-2.707,8.009-6.626,8.009c-2.59,0-4.083-1.35-4.993-2.55v7.74h-4.479V10.378z M431.666,10.798
			c-2.03,0-3.477,1.83-3.477,4.5c0,2.91,1.446,4.74,3.477,4.74c1.983,0,3.383-1.89,3.383-4.53
			C435.049,13.078,433.976,10.798,431.666,10.798z"/>
		<path d="M442.73,10.978c0-0.96-0.023-2.07-0.093-3.09h4.339c0.07,1.08,0.094,2.16,0.094,3.24h0.047
			c1.096-2.88,2.31-3.45,5.249-3.45v4.92c-0.326-0.06-0.677-0.12-1.189-0.12c-2.403,0-3.967,1.74-3.967,4.77v5.7h-4.479V10.978z"/>
		<path d="M462.472,7.318c6.603,0,8.493,4.53,8.493,8.1s-1.891,8.1-8.493,8.1s-8.492-4.53-8.492-8.1S455.869,7.318,462.472,7.318z
			 M462.472,20.218c2.101,0,3.733-1.71,3.733-4.8s-1.633-4.8-3.733-4.8c-2.1,0-3.732,1.71-3.732,4.8S460.372,20.218,462.472,20.218z
			"/>
		<path d="M475.24,11.548h-2.707v-3.66h2.707c0-5.819,2.076-6.779,6.369-6.779c0.49,0,1.47,0.09,1.96,0.18v3.42
			c-0.351-0.06-0.771-0.12-1.214-0.12c-1.726,0-2.566,0.51-2.566,3.3h3.523v3.66h-3.593v11.399h-4.479V11.548z M485.972,1.289h4.9
			v4.2h-4.9V1.289z M486.183,7.888h4.479v15.06h-4.479V7.888z"/>
		<path d="M494.821,1.289h4.479v21.659h-4.479V1.289z"/>
		<path d="M507.026,16.828c0.093,2.34,1.166,3.57,3.056,3.57c1.96,0,2.31-1.02,2.543-2.04h4.76c-0.934,4.77-4.13,5.16-7.372,5.16
			c-4.06,0-7.606-1.92-7.606-7.859c0-5.82,3.523-8.34,7.536-8.34c5.716,0,7.676,3.63,7.699,9.51H507.026z M512.882,13.708
			c-0.047-2.46-1.307-3.27-2.893-3.27c-2.077,0-2.684,1.709-2.894,3.27H512.882z"/>
		<path d="M534.074,5.488h-4.899v-4.2h4.899V5.488z M529.385,7.888h4.479v15.06h-4.479V7.888z"/>
		<path d="M537.833,10.978c0-0.96-0.023-2.07-0.093-3.09h4.339c0.047,0.9,0.094,1.8,0.094,2.7h0.047
			c1.166-2.01,2.916-3.27,4.969-3.27c4.27,0,5.88,3.12,5.88,7.05v8.58h-4.479v-7.709c0-2.4-0.816-4.08-2.847-4.08
			c-1.843,0-3.43,1.83-3.43,5.16v6.63h-4.479V10.978z"/>
		<path d="M578.25,8.398c-0.256-2.4-1.772-3.24-3.64-3.24c-3.196,0-4.735,2.88-4.735,6.839c0,3.84,1.283,7.08,4.596,7.08
			c1.866,0,3.569-0.84,3.733-3.48h5.179c-0.21,6.39-4.316,7.919-9.402,7.919c-5.039,0-9.146-3.3-9.146-11.37
			c0-8.129,3.92-11.429,9.939-11.429c4.292,0,8.445,1.95,8.516,7.68H578.25z"/>
		<path d="M586.539,1.289h4.899v8.61h8.282v-8.61h4.899v21.659h-4.899v-8.61h-8.282v8.61h-4.899V1.289z"/>
		<path d="M609.153,1.289h9.355c2.217,0,4.363,0.36,6.066,1.8c2.1,1.77,3.476,4.89,3.476,8.82c0,3.81-1.096,6.69-2.683,8.43
			c-1.446,1.59-3.779,2.61-7.209,2.61h-9.006V1.289z M614.053,18.748h2.217c3.966,0,6.742-0.78,6.742-6.72
			c0-5.1-2.31-6.54-5.926-6.54h-3.033V18.748z"/>
		<path d="M639.82,10.378c0-0.93-0.023-1.68-0.093-2.49h4.339c0.07,0.84,0.094,1.65,0.094,2.49c1.026-1.56,2.333-3.06,5.249-3.06
			c3.71,0,6.51,3.03,6.51,8.19c0,4.979-2.707,8.009-6.626,8.009c-2.59,0-4.083-1.35-4.993-2.55v7.74h-4.479V10.378z M647.776,10.798
			c-2.03,0-3.477,1.83-3.477,4.5c0,2.91,1.446,4.74,3.477,4.74c1.983,0,3.383-1.89,3.383-4.53
			C651.159,13.078,650.086,10.798,647.776,10.798z"/>
		<path d="M658.514,12.328c0.233-3.93,3.663-5.01,6.742-5.01c4.573,0,7.186,1.41,7.186,6.51v5.76c0,1.11,0.023,2.25,0.094,3.36
			h-4.34c-0.046-0.51-0.093-1.62-0.093-2.43h-0.047c-1.073,2.28-3.08,3-5.063,3c-3.337,0-5.297-1.74-5.297-4.89
			c0-3.57,2.613-5.19,7-5.19h3.266c0-2.4-0.863-3-2.636-3c-1.657,0-2.17,0.84-2.193,1.89H658.514z M666.096,16.378
			c-3.01,0-3.64,1.02-3.64,2.28c0,0.93,0.677,1.56,1.937,1.56c2.916,0,3.569-2.28,3.569-3.84H666.096z"/>
		<path d="M674.617,7.888h2.87v-3.06l4.479-2.1v5.16h3.779v3.66h-3.779v4.709c0,2.1,0.21,3.21,2.006,3.21
			c0.42,0,1.073-0.06,1.773-0.18v3.66c-0.42,0.09-1.609,0.36-3.01,0.36c-3.43,0-5.249-1.71-5.249-5.37v-6.39h-2.87V7.888z"/>
		<path d="M693.122,5.488h-4.899v-4.2h4.899V5.488z M688.433,7.888h4.479v15.06h-4.479V7.888z"/>
		<path d="M700.638,16.828c0.093,2.34,1.166,3.57,3.056,3.57c1.96,0,2.31-1.02,2.543-2.04h4.76c-0.934,4.77-4.13,5.16-7.372,5.16
			c-4.06,0-7.606-1.92-7.606-7.859c0-5.82,3.523-8.34,7.536-8.34c5.716,0,7.676,3.63,7.699,9.51H700.638z M706.493,13.708
			c-0.047-2.46-1.307-3.27-2.893-3.27c-2.077,0-2.684,1.709-2.894,3.27H706.493z"/>
		<path d="M714.175,10.978c0-0.96-0.023-2.07-0.093-3.09h4.339c0.047,0.9,0.094,1.8,0.094,2.7h0.047
			c1.166-2.01,2.916-3.27,4.969-3.27c4.27,0,5.88,3.12,5.88,7.05v8.58h-4.479v-7.709c0-2.4-0.816-4.08-2.847-4.08
			c-1.843,0-3.43,1.83-3.43,5.16v6.63h-4.479V10.978z"/>
		<path d="M731.679,7.888h2.87v-3.06l4.479-2.1v5.16h3.779v3.66h-3.779v4.709c0,2.1,0.21,3.21,2.006,3.21
			c0.42,0,1.073-0.06,1.773-0.18v3.66c-0.42,0.09-1.609,0.36-3.01,0.36c-3.43,0-5.249-1.71-5.249-5.37v-6.39h-2.87V7.888z"/>
		<path d="M749.018,18.238c0,0.81,0.21,1.35,0.56,1.71c0.35,0.36,0.887,0.45,1.47,0.45c0.934,0,2.333-0.18,2.333-1.65
			c0-1.05-1.05-1.41-1.96-1.59l-3.103-0.63c-2.239-0.45-3.546-1.83-3.546-4.169c0-4.29,3.826-5.04,6.393-5.04
			c5.086,0,6.462,1.89,6.556,5.04h-4.479c-0.07-0.81-0.304-1.29-0.583-1.53c-0.327-0.27-1.027-0.39-1.587-0.39
			c-0.723,0-1.68,0.39-1.68,1.32c0,1.08,1.097,1.35,2.053,1.56l3.033,0.63c2.566,0.54,3.523,2.01,3.523,4.5
			c0,4.59-4.526,5.07-7.116,5.07c-5.856,0-6.322-3.06-6.486-5.28H749.018z"/>
		<path d="M763.462,4.04c-0.993,0.822-1.578,1.102-2.708,1.556v-2.92c1.171-0.437,2.382-1.312,3.171-1.923h2.232v12.206h-2.695V4.04
			z"/>
	</g>
</g>
</svg>
