<?xml version="1.0" encoding="utf-8"?>
<!-- Generator: Adobe Illustrator 17.0.0, SVG Export Plug-In . SVG Version: 6.00 Build 0)  -->
<!DOCTYPE svg PUBLIC "-//W3C//DTD SVG 1.1//EN" "http://www.w3.org/Graphics/SVG/1.1/DTD/svg11.dtd">
<svg version="1.1" id="Layer_1" xmlns="http://www.w3.org/2000/svg" xmlns:xlink="http://www.w3.org/1999/xlink" x="0px" y="0px"
	 width="303.919px" height="30.161px" viewBox="0 0 303.919 30.161" enable-background="new 0 0 303.919 30.161"
	 xml:space="preserve">
<g>
	<g>
		<path fill="#020202" d="M0,1.675l1.368,0.198L0.521,0.802l0.838-0.459l0.504,1.242l0.531-1.27l0.837,0.495L2.35,1.873l1.377-0.162
			L3.709,2.665L2.367,2.458l0.847,1.107L2.376,4.024l-0.521-1.27L1.332,4.033L0.521,3.548l0.838-1.099L0,2.629V1.675z"/>
		<path fill="#020202" d="M12.718,6.815c-0.046-0.279-0.046-0.486-0.046-0.621c-0.504,0.729-1.106,0.729-1.359,0.729
			c-0.657,0-0.954-0.189-1.134-0.36c-0.271-0.271-0.396-0.64-0.396-0.999c0-0.36,0.126-1.026,0.964-1.414
			c0.558-0.252,1.359-0.252,1.8-0.252c0-0.297-0.009-0.441-0.063-0.604c-0.117-0.333-0.469-0.378-0.595-0.378
			c-0.188,0-0.387,0.081-0.504,0.252c-0.099,0.153-0.099,0.298-0.099,0.405H9.98c0.009-0.243,0.036-0.729,0.513-1.071
			c0.415-0.297,0.945-0.369,1.378-0.369c0.378,0,1.17,0.063,1.62,0.585c0.307,0.369,0.315,0.91,0.315,1.117l0.009,1.827
			c0,0.387,0.027,0.774,0.108,1.152H12.718z M11.079,5.411c0,0.306,0.207,0.648,0.647,0.648c0.243,0,0.441-0.117,0.567-0.262
			c0.234-0.288,0.252-0.639,0.252-1.125C11.691,4.601,11.079,4.871,11.079,5.411z"/>
		<path fill="#020202" d="M15.921,5.501c0.018,0.288,0.198,0.621,0.756,0.621c0.478,0,0.702-0.27,0.702-0.54
			c0-0.207-0.107-0.369-0.63-0.513l-0.828-0.226c-0.369-0.108-1.152-0.333-1.152-1.261c0-0.882,0.81-1.422,1.989-1.422
			c0.937,0,1.692,0.432,1.729,1.342h-1.215c-0.036-0.505-0.441-0.541-0.648-0.541c-0.36,0-0.63,0.172-0.63,0.45
			c0,0.307,0.225,0.369,0.621,0.478l0.818,0.225c0.829,0.226,1.216,0.648,1.216,1.27c0,0.783-0.675,1.566-2.089,1.566
			c-0.585,0-1.143-0.126-1.558-0.558c-0.297-0.315-0.323-0.676-0.333-0.892H15.921z"/>
		<path fill="#020202" d="M20.745,2.27l0.035,0.647c0.415-0.729,1.171-0.738,1.387-0.738c1.18,0,1.891,0.883,1.891,2.269
			c0,1.288-0.666,2.432-1.98,2.432c-0.819,0-1.152-0.433-1.27-0.586v2.269h-1.359V2.27H20.745z M22.707,4.502
			c0-0.54-0.135-1.468-0.918-1.468c-0.433,0-1.044,0.324-1.044,1.549c0,0.27,0.009,1.422,0.99,1.422
			C22.365,6.005,22.707,5.402,22.707,4.502z"/>
		<path fill="#020202" d="M27.72,6.815c-0.045-0.279-0.045-0.486-0.045-0.621c-0.504,0.729-1.107,0.729-1.359,0.729
			c-0.657,0-0.954-0.189-1.134-0.36c-0.271-0.271-0.396-0.64-0.396-0.999c0-0.36,0.126-1.026,0.964-1.414
			c0.558-0.252,1.359-0.252,1.8-0.252c0-0.297-0.009-0.441-0.063-0.604c-0.117-0.333-0.469-0.378-0.595-0.378
			c-0.188,0-0.387,0.081-0.504,0.252c-0.099,0.153-0.099,0.298-0.099,0.405h-1.306c0.009-0.243,0.036-0.729,0.513-1.071
			c0.415-0.297,0.945-0.369,1.378-0.369c0.378,0,1.17,0.063,1.62,0.585c0.307,0.369,0.315,0.91,0.315,1.117l0.009,1.827
			c0,0.387,0.027,0.774,0.108,1.152H27.72z M26.082,5.411c0,0.306,0.207,0.648,0.647,0.648c0.243,0,0.441-0.117,0.567-0.262
			c0.234-0.288,0.252-0.639,0.252-1.125C26.694,4.601,26.082,4.871,26.082,5.411z"/>
		<path fill="#020202" d="M29.996,3.386c0-0.217-0.036-0.874-0.063-1.135h1.251l0.027,0.873c0.171-0.387,0.468-0.936,1.548-0.882
			v1.197c-1.35-0.126-1.431,0.567-1.431,1.135v2.241h-1.333V3.386z"/>
		<path fill="#020202" d="M36.171,6.752c-0.432,0.117-0.819,0.145-1.035,0.145c-1.342,0-1.342-0.847-1.342-1.225V3.179h-0.873V2.296
			h0.873V1.405l1.324-0.486v1.377h1.08v0.883h-1.08v2.053c0.009,0.414,0.009,0.675,0.603,0.675c0.198,0,0.288-0.009,0.45-0.027
			V6.752z"/>
		<path fill="#020202" d="M39.726,6.815c-0.045-0.279-0.045-0.486-0.045-0.621c-0.504,0.729-1.107,0.729-1.359,0.729
			c-0.657,0-0.954-0.189-1.134-0.36c-0.271-0.271-0.396-0.64-0.396-0.999c0-0.36,0.126-1.026,0.964-1.414
			c0.558-0.252,1.359-0.252,1.8-0.252c0-0.297-0.009-0.441-0.063-0.604c-0.117-0.333-0.469-0.378-0.595-0.378
			c-0.188,0-0.387,0.081-0.504,0.252c-0.099,0.153-0.099,0.298-0.099,0.405h-1.306c0.009-0.243,0.036-0.729,0.513-1.071
			c0.415-0.297,0.945-0.369,1.378-0.369c0.378,0,1.17,0.063,1.62,0.585c0.307,0.369,0.315,0.91,0.315,1.117l0.009,1.827
			c0,0.387,0.027,0.774,0.108,1.152H39.726z M38.088,5.411c0,0.306,0.207,0.648,0.647,0.648c0.243,0,0.441-0.117,0.567-0.262
			c0.234-0.288,0.252-0.639,0.252-1.125C38.7,4.601,38.088,4.871,38.088,5.411z"/>
		<path fill="#020202" d="M44.676,6.752c-0.432,0.117-0.819,0.145-1.035,0.145c-1.342,0-1.342-0.847-1.342-1.225V3.179h-0.873V2.296
			h0.873V1.405l1.324-0.486v1.377h1.08v0.883h-1.08v2.053c0.009,0.414,0.009,0.675,0.603,0.675c0.198,0,0.288-0.009,0.45-0.027
			V6.752z"/>
		<path fill="#020202" d="M46.574,4.88c0,0.297,0,1.215,0.928,1.215c0.333,0,0.666-0.126,0.792-0.63h1.216
			c-0.019,0.216-0.063,0.604-0.433,0.99c-0.333,0.352-0.927,0.531-1.594,0.531c-0.387,0-1.125-0.072-1.603-0.567
			c-0.414-0.432-0.585-1.044-0.585-1.773c0-0.738,0.181-1.62,0.945-2.151c0.352-0.234,0.783-0.378,1.278-0.378
			c0.648,0,1.423,0.252,1.837,1.098c0.306,0.622,0.288,1.288,0.27,1.666H46.574z M48.267,4.043c0-0.207-0.018-1.018-0.792-1.018
			c-0.585,0-0.828,0.486-0.855,1.018H48.267z"/>
		<path fill="#020202" d="M55.737,6.815c-0.046-0.279-0.046-0.486-0.046-0.621c-0.504,0.729-1.106,0.729-1.359,0.729
			c-0.657,0-0.954-0.189-1.134-0.36c-0.271-0.271-0.396-0.64-0.396-0.999c0-0.36,0.126-1.026,0.964-1.414
			c0.558-0.252,1.359-0.252,1.8-0.252c0-0.297-0.009-0.441-0.063-0.604c-0.117-0.333-0.469-0.378-0.595-0.378
			c-0.188,0-0.387,0.081-0.504,0.252c-0.099,0.153-0.099,0.298-0.099,0.405H53c0.009-0.243,0.036-0.729,0.513-1.071
			c0.415-0.297,0.945-0.369,1.378-0.369c0.378,0,1.17,0.063,1.62,0.585c0.307,0.369,0.315,0.91,0.315,1.117l0.009,1.827
			c0,0.387,0.027,0.774,0.108,1.152H55.737z M54.099,5.411c0,0.306,0.207,0.648,0.647,0.648c0.243,0,0.441-0.117,0.567-0.262
			c0.234-0.288,0.252-0.639,0.252-1.125C54.711,4.601,54.099,4.871,54.099,5.411z"/>
		<path fill="#020202" d="M58.04,3.124c0-0.288-0.019-0.566-0.045-0.854h1.287l0.045,0.585c0.145-0.198,0.495-0.685,1.404-0.685
			c1.045,0,1.342,0.64,1.432,0.855c0.378-0.729,0.99-0.847,1.459-0.847c0.918,0,1.287,0.55,1.386,0.729
			c0.243,0.396,0.226,0.945,0.226,1.342v2.565h-1.342V4.142c0-0.486-0.072-1.026-0.766-1.026c-0.801,0-0.818,0.747-0.818,1.423
			v2.277h-1.342V4.114c0-0.351-0.009-0.999-0.747-0.999c-0.838,0-0.838,0.721-0.838,1.026v2.674H58.04V3.124z"/>
		<path fill="#020202" d="M66.464,0.315h1.423v1.161h-1.423V0.315z M66.509,2.26h1.333v4.556h-1.333V2.26z"/>
		<path fill="#020202" d="M69.029,3.079c0-0.018,0-0.513-0.027-0.828h1.278l0.036,0.685c0.126-0.207,0.486-0.793,1.477-0.793
			c0.891,0,1.27,0.541,1.386,0.855c0.1,0.279,0.127,0.514,0.127,1.359v2.458h-1.359V3.988c0-0.188,0-0.351-0.072-0.495
			c-0.1-0.198-0.307-0.387-0.648-0.387c-0.288,0-0.549,0.135-0.693,0.351C70.451,3.574,70.37,3.8,70.37,4.15v2.665h-1.341V3.079z"/>
		<path fill="#020202" d="M76.652,2.161c1.647,0,2.359,1.116,2.359,2.386c0,1.278-0.738,2.431-2.386,2.431
			c-1.297,0-2.323-0.802-2.323-2.395C74.303,3.484,74.861,2.161,76.652,2.161z M76.671,6.05c0.585,0,0.981-0.351,0.981-1.557
			c0-0.604-0.117-1.44-1-1.44c-0.972,0-0.981,1.125-0.981,1.539C75.671,5.609,76.014,6.05,76.671,6.05z"/>
		<path fill="#020202" d="M82.683,6.752c-0.432,0.117-0.819,0.145-1.035,0.145c-1.342,0-1.342-0.847-1.342-1.225V3.179h-0.873V2.296
			h0.873V1.405l1.324-0.486v1.377h1.08v0.883h-1.08v2.053c0.009,0.414,0.009,0.675,0.603,0.675c0.198,0,0.288-0.009,0.45-0.027
			V6.752z"/>
		<path fill="#020202" d="M83.51,3.386c0-0.217-0.036-0.874-0.063-1.135h1.251l0.027,0.873c0.171-0.387,0.468-0.936,1.548-0.882
			v1.197c-1.35-0.126-1.431,0.567-1.431,1.135v2.241H83.51V3.386z"/>
		<path fill="#020202" d="M89.739,6.815c-0.046-0.279-0.046-0.486-0.046-0.621c-0.504,0.729-1.106,0.729-1.359,0.729
			c-0.657,0-0.954-0.189-1.134-0.36c-0.271-0.271-0.396-0.64-0.396-0.999c0-0.36,0.126-1.026,0.964-1.414
			c0.558-0.252,1.359-0.252,1.8-0.252c0-0.297-0.009-0.441-0.063-0.604c-0.117-0.333-0.469-0.378-0.595-0.378
			c-0.188,0-0.387,0.081-0.504,0.252c-0.099,0.153-0.099,0.298-0.099,0.405h-1.306c0.009-0.243,0.036-0.729,0.513-1.071
			c0.415-0.297,0.945-0.369,1.378-0.369c0.378,0,1.17,0.063,1.62,0.585c0.307,0.369,0.315,0.91,0.315,1.117l0.009,1.827
			c0,0.387,0.027,0.774,0.108,1.152H89.739z M88.101,5.411c0,0.306,0.207,0.648,0.647,0.648c0.243,0,0.441-0.117,0.567-0.262
			c0.234-0.288,0.252-0.639,0.252-1.125C88.713,4.601,88.101,4.871,88.101,5.411z"/>
		<path fill="#020202" d="M92.033,3.079c0-0.018,0-0.513-0.027-0.828h1.278l0.036,0.685c0.126-0.207,0.486-0.793,1.477-0.793
			c0.891,0,1.27,0.541,1.386,0.855c0.1,0.279,0.127,0.514,0.127,1.359v2.458H94.95V3.988c0-0.188,0-0.351-0.072-0.495
			c-0.1-0.198-0.307-0.387-0.648-0.387c-0.288,0-0.549,0.135-0.693,0.351C93.455,3.574,93.374,3.8,93.374,4.15v2.665h-1.341V3.079z"
			/>
		<path fill="#020202" d="M98.441,5.501c0.018,0.288,0.198,0.621,0.756,0.621c0.478,0,0.702-0.27,0.702-0.54
			c0-0.207-0.107-0.369-0.63-0.513l-0.828-0.226c-0.369-0.108-1.152-0.333-1.152-1.261c0-0.882,0.81-1.422,1.989-1.422
			c0.937,0,1.692,0.432,1.729,1.342h-1.215c-0.036-0.505-0.441-0.541-0.648-0.541c-0.36,0-0.631,0.172-0.631,0.45
			c0,0.307,0.226,0.369,0.622,0.478l0.819,0.225c0.828,0.226,1.215,0.648,1.215,1.27c0,0.783-0.675,1.566-2.089,1.566
			c-0.585,0-1.144-0.126-1.558-0.558c-0.297-0.315-0.323-0.676-0.333-0.892H98.441z"/>
		<path fill="#020202" d="M102.104,3.214h-0.675V2.27h0.675V1.647c0-0.801,0.271-1.449,1.566-1.449c0.091,0,0.343,0,0.721,0.045
			v0.928c-0.135-0.019-0.171-0.027-0.279-0.027c-0.684,0-0.684,0.36-0.684,0.595V2.27h0.846v0.944h-0.846v3.602h-1.324V3.214z"/>
		<path fill="#020202" d="M106.082,4.88c0,0.297,0,1.215,0.928,1.215c0.333,0,0.666-0.126,0.792-0.63h1.216
			c-0.019,0.216-0.063,0.604-0.433,0.99c-0.333,0.352-0.927,0.531-1.594,0.531c-0.387,0-1.125-0.072-1.603-0.567
			c-0.414-0.432-0.585-1.044-0.585-1.773c0-0.738,0.181-1.62,0.945-2.151c0.352-0.234,0.783-0.378,1.278-0.378
			c0.648,0,1.423,0.252,1.837,1.098c0.306,0.622,0.288,1.288,0.27,1.666H106.082z M107.774,4.043c0-0.207-0.018-1.018-0.792-1.018
			c-0.585,0-0.828,0.486-0.855,1.018H107.774z"/>
		<path fill="#020202" d="M110.015,3.386c0-0.217-0.036-0.874-0.063-1.135h1.251l0.027,0.873c0.171-0.387,0.468-0.936,1.548-0.882
			v1.197c-1.35-0.126-1.431,0.567-1.431,1.135v2.241h-1.333V3.386z"/>
		<path fill="#020202" d="M116.243,6.815c-0.045-0.279-0.045-0.486-0.045-0.621c-0.504,0.729-1.107,0.729-1.359,0.729
			c-0.657,0-0.954-0.189-1.134-0.36c-0.271-0.271-0.396-0.64-0.396-0.999c0-0.36,0.126-1.026,0.964-1.414
			c0.558-0.252,1.359-0.252,1.8-0.252c0-0.297-0.009-0.441-0.063-0.604c-0.117-0.333-0.469-0.378-0.595-0.378
			c-0.188,0-0.387,0.081-0.504,0.252c-0.099,0.153-0.099,0.298-0.099,0.405h-1.306c0.009-0.243,0.036-0.729,0.513-1.071
			c0.415-0.297,0.945-0.369,1.378-0.369c0.378,0,1.17,0.063,1.62,0.585c0.307,0.369,0.315,0.91,0.315,1.117l0.009,1.827
			c0,0.387,0.027,0.774,0.108,1.152H116.243z M114.605,5.411c0,0.306,0.207,0.648,0.647,0.648c0.243,0,0.441-0.117,0.567-0.262
			c0.234-0.288,0.252-0.639,0.252-1.125C115.218,4.601,114.605,4.871,114.605,5.411z"/>
		<path fill="#020202" d="M119.447,5.501c0.018,0.288,0.198,0.621,0.756,0.621c0.478,0,0.702-0.27,0.702-0.54
			c0-0.207-0.107-0.369-0.63-0.513l-0.828-0.226c-0.369-0.108-1.152-0.333-1.152-1.261c0-0.882,0.81-1.422,1.989-1.422
			c0.937,0,1.692,0.432,1.729,1.342h-1.215c-0.036-0.505-0.441-0.541-0.648-0.541c-0.36,0-0.631,0.172-0.631,0.45
			c0,0.307,0.226,0.369,0.622,0.478l0.819,0.225c0.828,0.226,1.215,0.648,1.215,1.27c0,0.783-0.675,1.566-2.089,1.566
			c-0.585,0-1.144-0.126-1.558-0.558c-0.297-0.315-0.323-0.676-0.333-0.892H119.447z"/>
		<path fill="#020202" d="M124.091,4.88c0,0.297,0,1.215,0.928,1.215c0.333,0,0.666-0.126,0.792-0.63h1.216
			c-0.019,0.216-0.063,0.604-0.433,0.99c-0.333,0.352-0.927,0.531-1.594,0.531c-0.387,0-1.125-0.072-1.603-0.567
			c-0.414-0.432-0.585-1.044-0.585-1.773c0-0.738,0.181-1.62,0.945-2.151c0.352-0.234,0.783-0.378,1.278-0.378
			c0.648,0,1.423,0.252,1.837,1.098c0.306,0.622,0.288,1.288,0.27,1.666H124.091z M125.783,4.043c0-0.207-0.018-1.018-0.792-1.018
			c-0.585,0-0.828,0.486-0.855,1.018H125.783z"/>
		<path fill="#020202" d="M130.525,0.307h1.333v6.509h-1.333V0.307z"/>
		<path fill="#020202" d="M134.099,4.88c0,0.297,0,1.215,0.928,1.215c0.333,0,0.666-0.126,0.792-0.63h1.216
			c-0.019,0.216-0.063,0.604-0.433,0.99c-0.333,0.352-0.927,0.531-1.594,0.531c-0.387,0-1.125-0.072-1.603-0.567
			c-0.414-0.432-0.585-1.044-0.585-1.773c0-0.738,0.181-1.62,0.945-2.151c0.352-0.234,0.783-0.378,1.278-0.378
			c0.648,0,1.423,0.252,1.837,1.098c0.306,0.622,0.288,1.288,0.27,1.666H134.099z M135.791,4.043c0-0.207-0.018-1.018-0.792-1.018
			c-0.585,0-0.828,0.486-0.855,1.018H135.791z"/>
		<path fill="#020202" d="M138.932,2.27l1.026,3.088l1.044-3.088h1.288l-1.639,4.546h-1.477L137.51,2.27H138.932z"/>
		<path fill="#020202" d="M144.106,4.88c0,0.297,0,1.215,0.928,1.215c0.333,0,0.666-0.126,0.792-0.63h1.216
			c-0.019,0.216-0.063,0.604-0.433,0.99c-0.333,0.352-0.927,0.531-1.594,0.531c-0.387,0-1.125-0.072-1.603-0.567
			c-0.414-0.432-0.585-1.044-0.585-1.773c0-0.738,0.181-1.62,0.945-2.151c0.352-0.234,0.783-0.378,1.278-0.378
			c0.648,0,1.423,0.252,1.837,1.098c0.306,0.622,0.288,1.288,0.27,1.666H144.106z M145.799,4.043c0-0.207-0.018-1.018-0.792-1.018
			c-0.585,0-0.828,0.486-0.855,1.018H145.799z"/>
		<path fill="#020202" d="M148.039,0.307h1.333v6.509h-1.333V0.307z"/>
		<path fill="#020202" d="M151.47,5.501c0.018,0.288,0.198,0.621,0.756,0.621c0.478,0,0.702-0.27,0.702-0.54
			c0-0.207-0.107-0.369-0.63-0.513l-0.828-0.226c-0.369-0.108-1.152-0.333-1.152-1.261c0-0.882,0.81-1.422,1.989-1.422
			c0.937,0,1.692,0.432,1.729,1.342h-1.215c-0.036-0.505-0.441-0.541-0.648-0.541c-0.36,0-0.63,0.172-0.63,0.45
			c0,0.307,0.225,0.369,0.621,0.478l0.818,0.225c0.829,0.226,1.216,0.648,1.216,1.27c0,0.783-0.675,1.566-2.089,1.566
			c-0.585,0-1.143-0.126-1.558-0.558c-0.297-0.315-0.323-0.676-0.333-0.892H151.47z"/>
		<path fill="#020202" d="M159.417,0c-0.297,0.9-0.793,2.359-0.793,3.971c0,1.206,0.253,2.106,0.783,3.952h-0.98
			c-0.514-1.252-0.909-2.557-0.909-3.907c0-1.387,0.414-2.728,0.918-4.016H159.417z"/>
		<path fill="#020202" d="M161.521,5.104c0.009,0.198,0.063,0.838,0.811,0.838c0.504,0,0.81-0.369,0.81-0.855
			c0-0.928-0.891-0.928-1.548-0.928V3.106c0.63-0.019,1.558-0.036,1.558-0.937c0-0.495-0.369-0.747-0.774-0.747
			c-0.388,0-0.766,0.261-0.766,0.783h-1.377c0.026-0.279,0.054-0.675,0.369-1.063c0.414-0.504,1.08-0.693,1.746-0.693
			c1.603,0,2.116,1.026,2.116,1.711c0,1.053-0.928,1.342-1.207,1.422c0.198,0.063,0.459,0.145,0.747,0.388
			c0.441,0.369,0.514,0.828,0.514,1.125c0,1.063-0.973,1.854-2.277,1.854c-0.45,0-1.107-0.099-1.513-0.423
			c-0.559-0.459-0.576-1.17-0.576-1.423H161.521z"/>
		<path fill="#020202" d="M170.721,6.752c-0.432,0.117-0.819,0.145-1.035,0.145c-1.342,0-1.342-0.847-1.342-1.225V3.179h-0.873
			V2.296h0.873V1.405l1.324-0.486v1.377h1.08v0.883h-1.08v2.053c0.009,0.414,0.009,0.675,0.603,0.675
			c0.198,0,0.288-0.009,0.45-0.027V6.752z"/>
		<path fill="#020202" d="M171.503,0.315h1.423v1.161h-1.423V0.315z M171.548,2.26h1.333v4.556h-1.333V2.26z"/>
		<path fill="#020202" d="M174.077,3.124c0-0.288-0.019-0.566-0.045-0.854h1.287l0.045,0.585c0.145-0.198,0.495-0.685,1.404-0.685
			c1.045,0,1.342,0.64,1.432,0.855c0.378-0.729,0.99-0.847,1.459-0.847c0.918,0,1.287,0.55,1.386,0.729
			c0.243,0.396,0.226,0.945,0.226,1.342v2.565h-1.342V4.142c0-0.486-0.072-1.026-0.766-1.026c-0.801,0-0.818,0.747-0.818,1.423
			v2.277h-1.342V4.114c0-0.351-0.009-0.999-0.747-0.999c-0.838,0-0.838,0.721-0.838,1.026v2.674h-1.341V3.124z"/>
		<path fill="#020202" d="M183.616,4.88c0,0.297,0,1.215,0.928,1.215c0.333,0,0.666-0.126,0.792-0.63h1.216
			c-0.019,0.216-0.063,0.604-0.433,0.99c-0.333,0.352-0.927,0.531-1.594,0.531c-0.387,0-1.125-0.072-1.603-0.567
			c-0.414-0.432-0.585-1.044-0.585-1.773c0-0.738,0.181-1.62,0.945-2.151c0.352-0.234,0.783-0.378,1.278-0.378
			c0.648,0,1.423,0.252,1.837,1.098c0.306,0.622,0.288,1.288,0.27,1.666H183.616z M185.309,4.043c0-0.207-0.018-1.018-0.792-1.018
			c-0.585,0-0.828,0.486-0.855,1.018H185.309z"/>
		<path fill="#020202" d="M188.477,5.501c0.018,0.288,0.198,0.621,0.756,0.621c0.478,0,0.702-0.27,0.702-0.54
			c0-0.207-0.107-0.369-0.63-0.513l-0.828-0.226c-0.369-0.108-1.152-0.333-1.152-1.261c0-0.882,0.81-1.422,1.989-1.422
			c0.937,0,1.692,0.432,1.729,1.342h-1.215c-0.036-0.505-0.441-0.541-0.648-0.541c-0.36,0-0.631,0.172-0.631,0.45
			c0,0.307,0.226,0.369,0.622,0.478l0.819,0.225c0.828,0.226,1.215,0.648,1.215,1.27c0,0.783-0.675,1.566-2.089,1.566
			c-0.585,0-1.144-0.126-1.558-0.558c-0.297-0.315-0.323-0.676-0.333-0.892H188.477z"/>
		<path fill="#020202" d="M197.225,6.752c-0.432,0.117-0.819,0.145-1.035,0.145c-1.342,0-1.342-0.847-1.342-1.225V3.179h-0.873
			V2.296h0.873V1.405l1.324-0.486v1.377h1.08v0.883h-1.08v2.053c0.009,0.414,0.009,0.675,0.603,0.675
			c0.198,0,0.288-0.009,0.45-0.027V6.752z"/>
		<path fill="#020202" d="M198.088,0.315h1.323v2.575c0.153-0.217,0.486-0.685,1.314-0.685c0.676,0,1.107,0.333,1.323,0.612
			c0.162,0.225,0.298,0.639,0.298,1.233v2.764h-1.324V4.097c0-0.261,0-0.99-0.747-0.99c-0.378,0-0.855,0.216-0.855,0.927l0.01,2.782
			h-1.342V0.315z"/>
		<path fill="#020202" d="M204.622,4.88c0,0.297,0,1.215,0.928,1.215c0.333,0,0.666-0.126,0.792-0.63h1.216
			c-0.019,0.216-0.063,0.604-0.433,0.99c-0.333,0.352-0.927,0.531-1.594,0.531c-0.387,0-1.125-0.072-1.603-0.567
			c-0.414-0.432-0.585-1.044-0.585-1.773c0-0.738,0.181-1.62,0.945-2.151c0.352-0.234,0.783-0.378,1.278-0.378
			c0.648,0,1.423,0.252,1.837,1.098c0.306,0.622,0.288,1.288,0.27,1.666H204.622z M206.314,4.043c0-0.207-0.018-1.018-0.792-1.018
			c-0.585,0-0.828,0.486-0.855,1.018H206.314z"/>
		<path fill="#020202" d="M212.362,2.27v2.709c0,0.396,0,1,0.711,1c0.855,0,0.855-0.64,0.855-1.414V2.27h1.368v2.997
			c0.019,0.981,0.027,1.099,0.027,1.216c0.009,0.126,0.018,0.207,0.036,0.333h-1.297l-0.045-0.604
			c-0.135,0.198-0.477,0.721-1.341,0.721c-0.612,0-1.117-0.279-1.369-0.612c-0.297-0.369-0.297-0.999-0.297-1.225V2.27H212.362z"/>
		<path fill="#020202" d="M217.808,2.27l0.035,0.647c0.415-0.729,1.171-0.738,1.387-0.738c1.18,0,1.891,0.883,1.891,2.269
			c0,1.288-0.666,2.432-1.98,2.432c-0.819,0-1.152-0.433-1.27-0.586v2.269h-1.359V2.27H217.808z M219.77,4.502
			c0-0.54-0.135-1.468-0.918-1.468c-0.433,0-1.044,0.324-1.044,1.549c0,0.27,0.009,1.422,0.99,1.422
			C219.428,6.005,219.77,5.402,219.77,4.502z"/>
		<path fill="#020202" d="M223.307,2.27l0.036,0.647c0.414-0.729,1.17-0.738,1.386-0.738c1.18,0,1.891,0.883,1.891,2.269
			c0,1.288-0.666,2.432-1.98,2.432c-0.819,0-1.152-0.433-1.27-0.586v2.269h-1.359V2.27H223.307z M225.269,4.502
			c0-0.54-0.135-1.468-0.918-1.468c-0.432,0-1.044,0.324-1.044,1.549c0,0.27,0.009,1.422,0.99,1.422
			C224.927,6.005,225.269,5.402,225.269,4.502z"/>
		<path fill="#020202" d="M228.625,4.88c0,0.297,0,1.215,0.928,1.215c0.333,0,0.666-0.126,0.792-0.63h1.216
			c-0.019,0.216-0.063,0.604-0.433,0.99c-0.333,0.352-0.927,0.531-1.594,0.531c-0.387,0-1.125-0.072-1.603-0.567
			c-0.414-0.432-0.585-1.044-0.585-1.773c0-0.738,0.181-1.62,0.945-2.151c0.352-0.234,0.783-0.378,1.278-0.378
			c0.648,0,1.423,0.252,1.837,1.098c0.306,0.622,0.288,1.288,0.27,1.666H228.625z M230.317,4.043c0-0.207-0.018-1.018-0.792-1.018
			c-0.585,0-0.828,0.486-0.855,1.018H230.317z"/>
		<path fill="#020202" d="M232.558,3.386c0-0.217-0.036-0.874-0.063-1.135h1.251l0.027,0.873c0.171-0.387,0.468-0.936,1.548-0.882
			v1.197c-1.35-0.126-1.431,0.567-1.431,1.135v2.241h-1.333V3.386z"/>
		<path fill="#020202" d="M238.561,0.307h1.333v6.509h-1.333V0.307z"/>
		<path fill="#020202" d="M241.018,0.315h1.423v1.161h-1.423V0.315z M241.063,2.26h1.333v4.556h-1.333V2.26z"/>
		<path fill="#020202" d="M243.592,3.124c0-0.288-0.019-0.566-0.045-0.854h1.287l0.045,0.585c0.145-0.198,0.495-0.685,1.404-0.685
			c1.045,0,1.342,0.64,1.432,0.855c0.378-0.729,0.99-0.847,1.458-0.847c0.919,0,1.288,0.55,1.387,0.729
			c0.243,0.396,0.226,0.945,0.226,1.342v2.565h-1.342V4.142c0-0.486-0.072-1.026-0.766-1.026c-0.801,0-0.818,0.747-0.818,1.423
			v2.277h-1.342V4.114c0-0.351-0.009-0.999-0.747-0.999c-0.838,0-0.838,0.721-0.838,1.026v2.674h-1.341V3.124z"/>
		<path fill="#020202" d="M252.016,0.315h1.423v1.161h-1.423V0.315z M252.061,2.26h1.333v4.556h-1.333V2.26z"/>
		<path fill="#020202" d="M257.236,6.752c-0.432,0.117-0.819,0.145-1.035,0.145c-1.342,0-1.342-0.847-1.342-1.225V3.179h-0.873
			V2.296h0.873V1.405l1.324-0.486v1.377h1.08v0.883h-1.08v2.053c0.009,0.414,0.009,0.675,0.603,0.675
			c0.198,0,0.288-0.009,0.45-0.027V6.752z"/>
		<path fill="#020202" d="M262.708,2.161c1.647,0,2.359,1.116,2.359,2.386c0,1.278-0.738,2.431-2.386,2.431
			c-1.297,0-2.323-0.802-2.323-2.395C260.358,3.484,260.917,2.161,262.708,2.161z M262.727,6.05c0.585,0,0.981-0.351,0.981-1.557
			c0-0.604-0.117-1.44-1-1.44c-0.972,0-0.981,1.125-0.981,1.539C261.727,5.609,262.069,6.05,262.727,6.05z"/>
		<path fill="#020202" d="M266.154,3.214h-0.675V2.27h0.675V1.647c0-0.801,0.271-1.449,1.566-1.449c0.091,0,0.343,0,0.721,0.045
			v0.928c-0.135-0.019-0.171-0.027-0.279-0.027c-0.684,0-0.684,0.36-0.684,0.595V2.27h0.846v0.944h-0.846v3.602h-1.324V3.214z"/>
		<path fill="#020202" d="M271.582,3.079c0-0.018,0-0.513-0.027-0.828h1.278l0.036,0.685c0.126-0.207,0.486-0.793,1.477-0.793
			c0.891,0,1.27,0.541,1.386,0.855c0.1,0.279,0.127,0.514,0.127,1.359v2.458h-1.359V3.988c0-0.188,0-0.351-0.072-0.495
			c-0.1-0.198-0.307-0.387-0.648-0.387c-0.288,0-0.549,0.135-0.693,0.351c-0.081,0.117-0.162,0.343-0.162,0.693v2.665h-1.341V3.079z
			"/>
		<path fill="#020202" d="M279.205,2.161c1.647,0,2.359,1.116,2.359,2.386c0,1.278-0.738,2.431-2.386,2.431
			c-1.297,0-2.323-0.802-2.323-2.395C276.855,3.484,277.414,2.161,279.205,2.161z M279.224,6.05c0.585,0,0.981-0.351,0.981-1.557
			c0-0.604-0.117-1.44-1-1.44c-0.972,0-0.981,1.125-0.981,1.539C278.224,5.609,278.566,6.05,279.224,6.05z"/>
		<path fill="#020202" d="M282.562,3.386c0-0.217-0.036-0.874-0.063-1.135h1.251l0.027,0.873c0.171-0.387,0.468-0.936,1.548-0.882
			v1.197c-1.35-0.126-1.431,0.567-1.431,1.135v2.241h-1.333V3.386z"/>
		<path fill="#020202" d="M286.09,3.124c0-0.288-0.019-0.566-0.045-0.854h1.287l0.045,0.585c0.145-0.198,0.495-0.685,1.404-0.685
			c1.045,0,1.342,0.64,1.432,0.855c0.378-0.729,0.99-0.847,1.458-0.847c0.919,0,1.288,0.55,1.387,0.729
			c0.243,0.396,0.226,0.945,0.226,1.342v2.565h-1.342V4.142c0-0.486-0.072-1.026-0.766-1.026c-0.801,0-0.818,0.747-0.818,1.423
			v2.277h-1.342V4.114c0-0.351-0.009-0.999-0.747-0.999c-0.838,0-0.838,0.721-0.838,1.026v2.674h-1.341V3.124z"/>
		<path fill="#020202" d="M297.286,6.815c-0.046-0.279-0.046-0.486-0.046-0.621c-0.504,0.729-1.106,0.729-1.359,0.729
			c-0.657,0-0.954-0.189-1.134-0.36c-0.271-0.271-0.396-0.64-0.396-0.999c0-0.36,0.126-1.026,0.964-1.414
			c0.558-0.252,1.359-0.252,1.8-0.252c0-0.297-0.009-0.441-0.063-0.604c-0.117-0.333-0.469-0.378-0.595-0.378
			c-0.188,0-0.387,0.081-0.504,0.252c-0.099,0.153-0.099,0.298-0.099,0.405h-1.306c0.009-0.243,0.036-0.729,0.513-1.071
			c0.415-0.297,0.945-0.369,1.378-0.369c0.378,0,1.17,0.063,1.62,0.585c0.307,0.369,0.315,0.91,0.315,1.117l0.009,1.827
			c0,0.387,0.027,0.774,0.108,1.152H297.286z M295.647,5.411c0,0.306,0.207,0.648,0.647,0.648c0.243,0,0.441-0.117,0.567-0.262
			c0.234-0.288,0.252-0.639,0.252-1.125C296.26,4.601,295.647,4.871,295.647,5.411z"/>
		<path fill="#020202" d="M299.563,0.307h1.333v6.509h-1.333V0.307z"/>
		<path fill="#020202" d="M302.02,7.923c0.297-0.9,0.792-2.358,0.792-3.971c0-1.215-0.252-2.106-0.783-3.952h0.981
			c0.514,1.243,0.909,2.558,0.909,3.898c0,1.387-0.414,2.728-0.918,4.024H302.02z"/>
		<path fill="#020202" d="M0,23.274l1.368,0.198l-0.847-1.071l0.838-0.459l0.504,1.242l0.531-1.27l0.837,0.495L2.35,23.473
			l1.377-0.162l-0.018,0.954l-1.342-0.207l0.847,1.107l-0.838,0.459l-0.521-1.27l-0.522,1.278l-0.811-0.485l0.838-1.099L0,24.229
			V23.274z"/>
		<path fill="#020202" d="M5.004,23.274l1.368,0.198l-0.847-1.071l0.838-0.459l0.504,1.242l0.531-1.27l0.837,0.495l-0.882,1.063
			l1.377-0.162l-0.018,0.954l-1.342-0.207l0.847,1.107L7.38,25.624l-0.521-1.27l-0.522,1.278l-0.811-0.485l0.838-1.099l-1.359,0.18
			V23.274z"/>
		<path fill="#020202" d="M12.718,28.415c-0.046-0.279-0.046-0.486-0.046-0.621c-0.504,0.729-1.106,0.729-1.359,0.729
			c-0.657,0-0.954-0.189-1.134-0.36c-0.271-0.271-0.396-0.64-0.396-0.999c0-0.36,0.126-1.026,0.964-1.414
			c0.558-0.252,1.359-0.252,1.8-0.252c0-0.297-0.009-0.441-0.063-0.604c-0.117-0.333-0.469-0.378-0.595-0.378
			c-0.188,0-0.387,0.081-0.504,0.252c-0.099,0.153-0.099,0.298-0.099,0.405H9.98c0.009-0.243,0.036-0.729,0.513-1.071
			c0.415-0.297,0.945-0.369,1.378-0.369c0.378,0,1.17,0.063,1.62,0.585c0.307,0.369,0.315,0.91,0.315,1.117l0.009,1.827
			c0,0.387,0.027,0.774,0.108,1.152H12.718z M11.079,27.011c0,0.306,0.207,0.648,0.647,0.648c0.243,0,0.441-0.117,0.567-0.262
			c0.234-0.288,0.252-0.639,0.252-1.125C11.691,26.2,11.079,26.471,11.079,27.011z"/>
		<path fill="#020202" d="M14.993,21.906h1.333v6.509h-1.333V21.906z"/>
		<path fill="#020202" d="M20.224,28.415c-0.046-0.279-0.046-0.486-0.046-0.621c-0.504,0.729-1.106,0.729-1.359,0.729
			c-0.657,0-0.954-0.189-1.134-0.36c-0.271-0.271-0.396-0.64-0.396-0.999c0-0.36,0.126-1.026,0.964-1.414
			c0.558-0.252,1.359-0.252,1.8-0.252c0-0.297-0.009-0.441-0.063-0.604c-0.117-0.333-0.469-0.378-0.595-0.378
			c-0.188,0-0.387,0.081-0.504,0.252c-0.099,0.153-0.099,0.298-0.099,0.405h-1.306c0.009-0.243,0.036-0.729,0.513-1.071
			c0.415-0.297,0.945-0.369,1.378-0.369c0.378,0,1.17,0.063,1.62,0.585c0.307,0.369,0.315,0.91,0.315,1.117l0.009,1.827
			c0,0.387,0.027,0.774,0.108,1.152H20.224z M18.585,27.011c0,0.306,0.207,0.648,0.647,0.648c0.243,0,0.441-0.117,0.567-0.262
			c0.234-0.288,0.252-0.639,0.252-1.125C19.197,26.2,18.585,26.471,18.585,27.011z"/>
		<path fill="#020202" d="M22.518,24.679c0-0.018,0-0.513-0.027-0.828h1.278l0.036,0.685c0.126-0.207,0.486-0.793,1.477-0.793
			c0.891,0,1.27,0.541,1.386,0.855c0.1,0.279,0.127,0.514,0.127,1.359v2.458h-1.359v-2.827c0-0.188,0-0.351-0.072-0.495
			c-0.1-0.198-0.307-0.387-0.648-0.387c-0.288,0-0.549,0.135-0.693,0.351c-0.081,0.117-0.162,0.343-0.162,0.693v2.665h-1.341V24.679
			z"/>
		<path fill="#020202" d="M27.953,21.915h1.423v1.161h-1.423V21.915z M27.998,23.859h1.333v4.556h-1.333V23.859z"/>
		<path fill="#020202" d="M30.519,24.679c0-0.018,0-0.513-0.027-0.828h1.278l0.036,0.685c0.126-0.207,0.486-0.793,1.477-0.793
			c0.891,0,1.27,0.541,1.387,0.855c0.099,0.279,0.126,0.514,0.126,1.359v2.458h-1.359v-2.827c0-0.188,0-0.351-0.072-0.495
			c-0.1-0.198-0.307-0.387-0.648-0.387c-0.288,0-0.549,0.135-0.693,0.351c-0.081,0.117-0.162,0.343-0.162,0.693v2.665h-1.341V24.679
			z"/>
		<path fill="#020202" d="M37.07,26.479c0,0.297,0,1.215,0.928,1.215c0.333,0,0.666-0.126,0.792-0.63h1.216
			c-0.019,0.216-0.063,0.604-0.433,0.99c-0.333,0.352-0.927,0.531-1.594,0.531c-0.387,0-1.125-0.072-1.603-0.567
			c-0.414-0.432-0.585-1.044-0.585-1.773c0-0.738,0.181-1.62,0.945-2.151c0.352-0.234,0.783-0.378,1.278-0.378
			c0.648,0,1.423,0.252,1.837,1.098c0.306,0.622,0.288,1.288,0.27,1.666H37.07z M38.763,25.643c0-0.207-0.018-1.018-0.792-1.018
			c-0.585,0-0.828,0.486-0.855,1.018H38.763z"/>
		<path fill="#020202" d="M46.233,28.415c-0.046-0.279-0.046-0.486-0.046-0.621c-0.504,0.729-1.106,0.729-1.359,0.729
			c-0.657,0-0.954-0.189-1.134-0.36c-0.271-0.271-0.396-0.64-0.396-0.999c0-0.36,0.126-1.026,0.964-1.414
			c0.558-0.252,1.359-0.252,1.8-0.252c0-0.297-0.009-0.441-0.063-0.604c-0.117-0.333-0.469-0.378-0.595-0.378
			c-0.188,0-0.387,0.081-0.504,0.252c-0.099,0.153-0.099,0.298-0.099,0.405h-1.306c0.009-0.243,0.036-0.729,0.513-1.071
			c0.415-0.297,0.945-0.369,1.378-0.369c0.378,0,1.17,0.063,1.62,0.585c0.307,0.369,0.315,0.91,0.315,1.117l0.009,1.827
			c0,0.387,0.027,0.774,0.108,1.152H46.233z M44.595,27.011c0,0.306,0.207,0.648,0.647,0.648c0.243,0,0.441-0.117,0.567-0.262
			c0.234-0.288,0.252-0.639,0.252-1.125C45.207,26.2,44.595,26.471,44.595,27.011z"/>
		<path fill="#020202" d="M48.537,24.724c0-0.288-0.019-0.566-0.045-0.854h1.287l0.045,0.585c0.145-0.198,0.495-0.685,1.404-0.685
			c1.045,0,1.342,0.64,1.432,0.855c0.378-0.729,0.99-0.847,1.458-0.847c0.919,0,1.288,0.55,1.387,0.729
			c0.243,0.396,0.226,0.945,0.226,1.342v2.565h-1.342v-2.674c0-0.486-0.072-1.026-0.766-1.026c-0.801,0-0.818,0.747-0.818,1.423
			v2.277h-1.342v-2.701c0-0.351-0.009-0.999-0.747-0.999c-0.838,0-0.838,0.721-0.838,1.026v2.674h-1.341V24.724z"/>
		<path fill="#020202" d="M56.96,21.915h1.423v1.161H56.96V21.915z M57.005,23.859h1.333v4.556h-1.333V23.859z"/>
		<path fill="#020202" d="M59.525,24.679c0-0.018,0-0.513-0.027-0.828h1.278l0.036,0.685c0.126-0.207,0.486-0.793,1.477-0.793
			c0.891,0,1.27,0.541,1.386,0.855c0.1,0.279,0.127,0.514,0.127,1.359v2.458h-1.359v-2.827c0-0.188,0-0.351-0.072-0.495
			c-0.1-0.198-0.307-0.387-0.648-0.387c-0.288,0-0.549,0.135-0.693,0.351c-0.081,0.117-0.162,0.343-0.162,0.693v2.665h-1.341V24.679
			z"/>
		<path fill="#020202" d="M67.148,23.761c1.647,0,2.359,1.116,2.359,2.386c0,1.278-0.738,2.431-2.386,2.431
			c-1.297,0-2.323-0.802-2.323-2.395C64.799,25.084,65.357,23.761,67.148,23.761z M67.167,27.649c0.585,0,0.981-0.351,0.981-1.557
			c0-0.604-0.117-1.44-1-1.44c-0.972,0-0.981,1.125-0.981,1.539C66.167,27.209,66.51,27.649,67.167,27.649z"/>
		<path fill="#020202" d="M73.179,28.352c-0.432,0.117-0.819,0.145-1.035,0.145c-1.342,0-1.342-0.847-1.342-1.225v-2.493h-0.873
			v-0.883h0.873v-0.891l1.324-0.486v1.377h1.08v0.883h-1.08v2.053c0.009,0.414,0.009,0.675,0.603,0.675
			c0.198,0,0.288-0.009,0.45-0.027V28.352z"/>
		<path fill="#020202" d="M74.006,24.985c0-0.217-0.036-0.874-0.063-1.135h1.251l0.027,0.873c0.171-0.387,0.468-0.936,1.548-0.882
			v1.197c-1.35-0.126-1.431,0.567-1.431,1.135v2.241h-1.333V24.985z"/>
		<path fill="#020202" d="M80.235,28.415c-0.046-0.279-0.046-0.486-0.046-0.621c-0.504,0.729-1.106,0.729-1.359,0.729
			c-0.657,0-0.954-0.189-1.134-0.36c-0.271-0.271-0.396-0.64-0.396-0.999c0-0.36,0.126-1.026,0.964-1.414
			c0.558-0.252,1.359-0.252,1.8-0.252c0-0.297-0.009-0.441-0.063-0.604c-0.117-0.333-0.469-0.378-0.595-0.378
			c-0.188,0-0.387,0.081-0.504,0.252c-0.099,0.153-0.099,0.298-0.099,0.405h-1.306c0.009-0.243,0.036-0.729,0.513-1.071
			c0.415-0.297,0.945-0.369,1.378-0.369c0.378,0,1.17,0.063,1.62,0.585c0.307,0.369,0.315,0.91,0.315,1.117l0.009,1.827
			c0,0.387,0.027,0.774,0.108,1.152H80.235z M78.597,27.011c0,0.306,0.207,0.648,0.647,0.648c0.243,0,0.441-0.117,0.567-0.262
			c0.234-0.288,0.252-0.639,0.252-1.125C79.209,26.2,78.597,26.471,78.597,27.011z"/>
		<path fill="#020202" d="M82.529,24.679c0-0.018,0-0.513-0.027-0.828h1.278l0.036,0.685c0.126-0.207,0.486-0.793,1.477-0.793
			c0.891,0,1.27,0.541,1.386,0.855c0.1,0.279,0.127,0.514,0.127,1.359v2.458h-1.359v-2.827c0-0.188,0-0.351-0.072-0.495
			c-0.1-0.198-0.307-0.387-0.648-0.387c-0.288,0-0.549,0.135-0.693,0.351c-0.081,0.117-0.162,0.343-0.162,0.693v2.665h-1.341V24.679
			z"/>
		<path fill="#020202" d="M88.938,27.101c0.018,0.288,0.198,0.621,0.756,0.621c0.478,0,0.702-0.27,0.702-0.54
			c0-0.207-0.107-0.369-0.63-0.513l-0.828-0.226c-0.369-0.108-1.152-0.333-1.152-1.261c0-0.882,0.81-1.422,1.989-1.422
			c0.937,0,1.692,0.432,1.729,1.342h-1.215c-0.036-0.505-0.441-0.541-0.648-0.541c-0.36,0-0.631,0.172-0.631,0.45
			c0,0.307,0.226,0.369,0.622,0.478l0.819,0.225c0.828,0.226,1.215,0.648,1.215,1.27c0,0.783-0.675,1.566-2.089,1.566
			c-0.585,0-1.144-0.126-1.558-0.558c-0.297-0.315-0.323-0.676-0.333-0.892H88.938z"/>
		<path fill="#020202" d="M92.6,24.813h-0.675v-0.944H92.6v-0.622c0-0.801,0.271-1.449,1.566-1.449c0.091,0,0.343,0,0.721,0.045
			v0.928c-0.135-0.019-0.171-0.027-0.279-0.027c-0.684,0-0.684,0.36-0.684,0.595v0.531h0.846v0.944h-0.846v3.602H92.6V24.813z"/>
		<path fill="#020202" d="M96.578,26.479c0,0.297,0,1.215,0.928,1.215c0.333,0,0.666-0.126,0.792-0.63h1.216
			c-0.019,0.216-0.063,0.604-0.433,0.99c-0.333,0.352-0.927,0.531-1.594,0.531c-0.387,0-1.125-0.072-1.603-0.567
			c-0.414-0.432-0.585-1.044-0.585-1.773c0-0.738,0.181-1.62,0.945-2.151c0.352-0.234,0.783-0.378,1.278-0.378
			c0.648,0,1.423,0.252,1.837,1.098c0.306,0.622,0.288,1.288,0.27,1.666H96.578z M98.271,25.643c0-0.207-0.018-1.018-0.792-1.018
			c-0.585,0-0.828,0.486-0.855,1.018H98.271z"/>
		<path fill="#020202" d="M100.511,24.985c0-0.217-0.036-0.874-0.063-1.135h1.251l0.027,0.873c0.171-0.387,0.468-0.936,1.548-0.882
			v1.197c-1.35-0.126-1.431,0.567-1.431,1.135v2.241h-1.333V24.985z"/>
		<path fill="#020202" d="M106.739,28.415c-0.045-0.279-0.045-0.486-0.045-0.621c-0.504,0.729-1.107,0.729-1.359,0.729
			c-0.657,0-0.954-0.189-1.134-0.36c-0.271-0.271-0.396-0.64-0.396-0.999c0-0.36,0.126-1.026,0.964-1.414
			c0.558-0.252,1.359-0.252,1.8-0.252c0-0.297-0.009-0.441-0.063-0.604c-0.117-0.333-0.469-0.378-0.595-0.378
			c-0.188,0-0.387,0.081-0.504,0.252c-0.099,0.153-0.099,0.298-0.099,0.405h-1.306c0.009-0.243,0.036-0.729,0.513-1.071
			c0.415-0.297,0.945-0.369,1.378-0.369c0.378,0,1.17,0.063,1.62,0.585c0.307,0.369,0.315,0.91,0.315,1.117l0.009,1.827
			c0,0.387,0.027,0.774,0.108,1.152H106.739z M105.102,27.011c0,0.306,0.207,0.648,0.647,0.648c0.243,0,0.441-0.117,0.567-0.262
			c0.234-0.288,0.252-0.639,0.252-1.125C105.714,26.2,105.102,26.471,105.102,27.011z"/>
		<path fill="#020202" d="M109.943,27.101c0.018,0.288,0.198,0.621,0.756,0.621c0.478,0,0.702-0.27,0.702-0.54
			c0-0.207-0.107-0.369-0.63-0.513l-0.828-0.226c-0.369-0.108-1.152-0.333-1.152-1.261c0-0.882,0.81-1.422,1.989-1.422
			c0.937,0,1.692,0.432,1.729,1.342h-1.215c-0.036-0.505-0.441-0.541-0.648-0.541c-0.36,0-0.631,0.172-0.631,0.45
			c0,0.307,0.226,0.369,0.622,0.478l0.819,0.225c0.828,0.226,1.215,0.648,1.215,1.27c0,0.783-0.675,1.566-2.089,1.566
			c-0.585,0-1.144-0.126-1.558-0.558c-0.297-0.315-0.323-0.676-0.333-0.892H109.943z"/>
		<path fill="#020202" d="M114.587,26.479c0,0.297,0,1.215,0.928,1.215c0.333,0,0.666-0.126,0.792-0.63h1.216
			c-0.019,0.216-0.063,0.604-0.433,0.99c-0.333,0.352-0.927,0.531-1.594,0.531c-0.387,0-1.125-0.072-1.603-0.567
			c-0.414-0.432-0.585-1.044-0.585-1.773c0-0.738,0.181-1.62,0.945-2.151c0.352-0.234,0.783-0.378,1.278-0.378
			c0.648,0,1.423,0.252,1.837,1.098c0.306,0.622,0.288,1.288,0.27,1.666H114.587z M116.279,25.643c0-0.207-0.018-1.018-0.792-1.018
			c-0.585,0-0.828,0.486-0.855,1.018H116.279z"/>
		<path fill="#020202" d="M121.021,21.906h1.333v6.509h-1.333V21.906z"/>
		<path fill="#020202" d="M124.595,26.479c0,0.297,0,1.215,0.928,1.215c0.333,0,0.666-0.126,0.792-0.63h1.216
			c-0.019,0.216-0.063,0.604-0.433,0.99c-0.333,0.352-0.927,0.531-1.594,0.531c-0.387,0-1.125-0.072-1.603-0.567
			c-0.414-0.432-0.585-1.044-0.585-1.773c0-0.738,0.181-1.62,0.945-2.151c0.352-0.234,0.783-0.378,1.278-0.378
			c0.648,0,1.423,0.252,1.837,1.098c0.306,0.622,0.288,1.288,0.27,1.666H124.595z M126.287,25.643c0-0.207-0.018-1.018-0.792-1.018
			c-0.585,0-0.828,0.486-0.855,1.018H126.287z"/>
		<path fill="#020202" d="M129.428,23.869l1.026,3.088l1.044-3.088h1.288l-1.639,4.546h-1.477l-1.665-4.546H129.428z"/>
		<path fill="#020202" d="M134.603,26.479c0,0.297,0,1.215,0.928,1.215c0.333,0,0.666-0.126,0.792-0.63h1.216
			c-0.019,0.216-0.063,0.604-0.433,0.99c-0.333,0.352-0.927,0.531-1.594,0.531c-0.387,0-1.125-0.072-1.603-0.567
			c-0.414-0.432-0.585-1.044-0.585-1.773c0-0.738,0.181-1.62,0.945-2.151c0.352-0.234,0.783-0.378,1.278-0.378
			c0.648,0,1.423,0.252,1.837,1.098c0.306,0.622,0.288,1.288,0.27,1.666H134.603z M136.295,25.643c0-0.207-0.018-1.018-0.792-1.018
			c-0.585,0-0.828,0.486-0.855,1.018H136.295z"/>
		<path fill="#020202" d="M138.536,21.906h1.333v6.509h-1.333V21.906z"/>
		<path fill="#020202" d="M141.966,27.101c0.018,0.288,0.198,0.621,0.756,0.621c0.478,0,0.702-0.27,0.702-0.54
			c0-0.207-0.107-0.369-0.63-0.513l-0.828-0.226c-0.369-0.108-1.152-0.333-1.152-1.261c0-0.882,0.81-1.422,1.989-1.422
			c0.937,0,1.692,0.432,1.729,1.342h-1.215c-0.036-0.505-0.441-0.541-0.648-0.541c-0.36,0-0.63,0.172-0.63,0.45
			c0,0.307,0.225,0.369,0.621,0.478l0.818,0.225c0.829,0.226,1.216,0.648,1.216,1.27c0,0.783-0.675,1.566-2.089,1.566
			c-0.585,0-1.143-0.126-1.558-0.558c-0.297-0.315-0.323-0.676-0.333-0.892H141.966z"/>
		<path fill="#020202" d="M149.913,21.6c-0.297,0.9-0.793,2.359-0.793,3.971c0,1.206,0.253,2.106,0.783,3.952h-0.98
			c-0.514-1.252-0.909-2.557-0.909-3.907c0-1.387,0.414-2.728,0.918-4.016H149.913z"/>
		<path fill="#020202" d="M152.018,26.704c0.009,0.198,0.063,0.838,0.811,0.838c0.504,0,0.81-0.369,0.81-0.855
			c0-0.928-0.891-0.928-1.548-0.928v-1.053c0.63-0.019,1.558-0.036,1.558-0.937c0-0.495-0.369-0.747-0.774-0.747
			c-0.388,0-0.766,0.261-0.766,0.783h-1.377c0.026-0.279,0.054-0.675,0.369-1.063c0.414-0.504,1.08-0.693,1.746-0.693
			c1.603,0,2.116,1.026,2.116,1.711c0,1.053-0.928,1.342-1.207,1.422c0.198,0.063,0.459,0.145,0.747,0.388
			c0.441,0.369,0.514,0.828,0.514,1.125c0,1.063-0.973,1.854-2.277,1.854c-0.45,0-1.107-0.099-1.513-0.423
			c-0.559-0.459-0.576-1.17-0.576-1.423H152.018z"/>
		<path fill="#020202" d="M161.217,28.352c-0.432,0.117-0.819,0.145-1.035,0.145c-1.342,0-1.342-0.847-1.342-1.225v-2.493h-0.873
			v-0.883h0.873v-0.891l1.324-0.486v1.377h1.08v0.883h-1.08v2.053c0.009,0.414,0.009,0.675,0.603,0.675
			c0.198,0,0.288-0.009,0.45-0.027V28.352z"/>
		<path fill="#020202" d="M161.999,21.915h1.423v1.161h-1.423V21.915z M162.044,23.859h1.333v4.556h-1.333V23.859z"/>
		<path fill="#020202" d="M164.573,24.724c0-0.288-0.019-0.566-0.045-0.854h1.287l0.045,0.585c0.145-0.198,0.495-0.685,1.404-0.685
			c1.045,0,1.342,0.64,1.432,0.855c0.378-0.729,0.99-0.847,1.459-0.847c0.918,0,1.287,0.55,1.386,0.729
			c0.243,0.396,0.226,0.945,0.226,1.342v2.565h-1.342v-2.674c0-0.486-0.072-1.026-0.766-1.026c-0.801,0-0.818,0.747-0.818,1.423
			v2.277h-1.342v-2.701c0-0.351-0.009-0.999-0.747-0.999c-0.838,0-0.838,0.721-0.838,1.026v2.674h-1.341V24.724z"/>
		<path fill="#020202" d="M174.112,26.479c0,0.297,0,1.215,0.928,1.215c0.333,0,0.666-0.126,0.792-0.63h1.216
			c-0.019,0.216-0.063,0.604-0.433,0.99c-0.333,0.352-0.927,0.531-1.594,0.531c-0.387,0-1.125-0.072-1.603-0.567
			c-0.414-0.432-0.585-1.044-0.585-1.773c0-0.738,0.181-1.62,0.945-2.151c0.352-0.234,0.783-0.378,1.278-0.378
			c0.648,0,1.423,0.252,1.837,1.098c0.306,0.622,0.288,1.288,0.27,1.666H174.112z M175.805,25.643c0-0.207-0.018-1.018-0.792-1.018
			c-0.585,0-0.828,0.486-0.855,1.018H175.805z"/>
		<path fill="#020202" d="M178.973,27.101c0.018,0.288,0.198,0.621,0.756,0.621c0.478,0,0.702-0.27,0.702-0.54
			c0-0.207-0.107-0.369-0.63-0.513l-0.828-0.226c-0.369-0.108-1.152-0.333-1.152-1.261c0-0.882,0.81-1.422,1.989-1.422
			c0.937,0,1.692,0.432,1.729,1.342h-1.215c-0.036-0.505-0.441-0.541-0.648-0.541c-0.36,0-0.631,0.172-0.631,0.45
			c0,0.307,0.226,0.369,0.622,0.478l0.819,0.225c0.828,0.226,1.215,0.648,1.215,1.27c0,0.783-0.675,1.566-2.089,1.566
			c-0.585,0-1.144-0.126-1.558-0.558c-0.297-0.315-0.323-0.676-0.333-0.892H178.973z"/>
		<path fill="#020202" d="M187.722,28.352c-0.432,0.117-0.819,0.145-1.035,0.145c-1.342,0-1.342-0.847-1.342-1.225v-2.493h-0.873
			v-0.883h0.873v-0.891l1.324-0.486v1.377h1.08v0.883h-1.08v2.053c0.009,0.414,0.009,0.675,0.603,0.675
			c0.198,0,0.288-0.009,0.45-0.027V28.352z"/>
		<path fill="#020202" d="M188.584,21.915h1.323v2.575c0.153-0.217,0.486-0.685,1.314-0.685c0.676,0,1.107,0.333,1.323,0.612
			c0.162,0.225,0.298,0.639,0.298,1.233v2.764h-1.324v-2.719c0-0.261,0-0.99-0.747-0.99c-0.378,0-0.855,0.216-0.855,0.927
			l0.01,2.782h-1.342V21.915z"/>
		<path fill="#020202" d="M195.118,26.479c0,0.297,0,1.215,0.928,1.215c0.333,0,0.666-0.126,0.792-0.63h1.216
			c-0.019,0.216-0.063,0.604-0.433,0.99c-0.333,0.352-0.927,0.531-1.594,0.531c-0.387,0-1.125-0.072-1.603-0.567
			c-0.414-0.432-0.585-1.044-0.585-1.773c0-0.738,0.181-1.62,0.945-2.151c0.352-0.234,0.783-0.378,1.278-0.378
			c0.648,0,1.423,0.252,1.837,1.098c0.306,0.622,0.288,1.288,0.27,1.666H195.118z M196.811,25.643c0-0.207-0.018-1.018-0.792-1.018
			c-0.585,0-0.828,0.486-0.855,1.018H196.811z"/>
		<path fill="#020202" d="M202.859,23.869v2.709c0,0.396,0,1,0.711,1c0.855,0,0.855-0.64,0.855-1.414v-2.295h1.368v2.997
			c0.019,0.981,0.027,1.099,0.027,1.216c0.009,0.126,0.018,0.207,0.036,0.333h-1.297l-0.045-0.604
			c-0.135,0.198-0.477,0.721-1.341,0.721c-0.612,0-1.117-0.279-1.369-0.612c-0.297-0.369-0.297-0.999-0.297-1.225v-2.826H202.859z"
			/>
		<path fill="#020202" d="M208.304,23.869l0.035,0.647c0.415-0.729,1.171-0.738,1.387-0.738c1.18,0,1.891,0.883,1.891,2.269
			c0,1.288-0.666,2.432-1.98,2.432c-0.819,0-1.152-0.433-1.27-0.586v2.269h-1.359v-6.292H208.304z M210.266,26.102
			c0-0.54-0.135-1.468-0.918-1.468c-0.433,0-1.044,0.324-1.044,1.549c0,0.27,0.009,1.422,0.99,1.422
			C209.924,27.604,210.266,27.002,210.266,26.102z"/>
		<path fill="#020202" d="M213.803,23.869l0.036,0.647c0.414-0.729,1.17-0.738,1.386-0.738c1.18,0,1.891,0.883,1.891,2.269
			c0,1.288-0.666,2.432-1.98,2.432c-0.819,0-1.152-0.433-1.27-0.586v2.269h-1.359v-6.292H213.803z M215.765,26.102
			c0-0.54-0.135-1.468-0.918-1.468c-0.432,0-1.044,0.324-1.044,1.549c0,0.27,0.009,1.422,0.99,1.422
			C215.423,27.604,215.765,27.002,215.765,26.102z"/>
		<path fill="#020202" d="M219.121,26.479c0,0.297,0,1.215,0.928,1.215c0.333,0,0.666-0.126,0.792-0.63h1.216
			c-0.019,0.216-0.063,0.604-0.433,0.99c-0.333,0.352-0.927,0.531-1.594,0.531c-0.387,0-1.125-0.072-1.603-0.567
			c-0.414-0.432-0.585-1.044-0.585-1.773c0-0.738,0.181-1.62,0.945-2.151c0.352-0.234,0.783-0.378,1.278-0.378
			c0.648,0,1.423,0.252,1.837,1.098c0.306,0.622,0.288,1.288,0.27,1.666H219.121z M220.813,25.643c0-0.207-0.018-1.018-0.792-1.018
			c-0.585,0-0.828,0.486-0.855,1.018H220.813z"/>
		<path fill="#020202" d="M223.054,24.985c0-0.217-0.036-0.874-0.063-1.135h1.251l0.027,0.873c0.171-0.387,0.468-0.936,1.548-0.882
			v1.197c-1.35-0.126-1.431,0.567-1.431,1.135v2.241h-1.333V24.985z"/>
		<path fill="#020202" d="M229.057,21.906h1.333v6.509h-1.333V21.906z"/>
		<path fill="#020202" d="M231.514,21.915h1.423v1.161h-1.423V21.915z M231.559,23.859h1.333v4.556h-1.333V23.859z"/>
		<path fill="#020202" d="M234.088,24.724c0-0.288-0.019-0.566-0.045-0.854h1.287l0.045,0.585c0.145-0.198,0.495-0.685,1.404-0.685
			c1.045,0,1.342,0.64,1.432,0.855c0.378-0.729,0.99-0.847,1.458-0.847c0.919,0,1.288,0.55,1.387,0.729
			c0.243,0.396,0.226,0.945,0.226,1.342v2.565h-1.342v-2.674c0-0.486-0.072-1.026-0.766-1.026c-0.801,0-0.818,0.747-0.818,1.423
			v2.277h-1.342v-2.701c0-0.351-0.009-0.999-0.747-0.999c-0.838,0-0.838,0.721-0.838,1.026v2.674h-1.341V24.724z"/>
		<path fill="#020202" d="M242.512,21.915h1.423v1.161h-1.423V21.915z M242.557,23.859h1.333v4.556h-1.333V23.859z"/>
		<path fill="#020202" d="M247.732,28.352c-0.432,0.117-0.819,0.145-1.035,0.145c-1.342,0-1.342-0.847-1.342-1.225v-2.493h-0.873
			v-0.883h0.873v-0.891l1.324-0.486v1.377h1.08v0.883h-1.08v2.053c0.009,0.414,0.009,0.675,0.603,0.675
			c0.198,0,0.288-0.009,0.45-0.027V28.352z"/>
		<path fill="#020202" d="M253.204,23.761c1.647,0,2.359,1.116,2.359,2.386c0,1.278-0.738,2.431-2.386,2.431
			c-1.297,0-2.323-0.802-2.323-2.395C250.854,25.084,251.413,23.761,253.204,23.761z M253.223,27.649
			c0.585,0,0.981-0.351,0.981-1.557c0-0.604-0.117-1.44-1-1.44c-0.972,0-0.981,1.125-0.981,1.539
			C252.223,27.209,252.565,27.649,253.223,27.649z"/>
		<path fill="#020202" d="M256.65,24.813h-0.675v-0.944h0.675v-0.622c0-0.801,0.271-1.449,1.566-1.449c0.091,0,0.343,0,0.721,0.045
			v0.928c-0.135-0.019-0.171-0.027-0.279-0.027c-0.684,0-0.684,0.36-0.684,0.595v0.531h0.846v0.944h-0.846v3.602h-1.324V24.813z"/>
		<path fill="#020202" d="M262.078,24.679c0-0.018,0-0.513-0.027-0.828h1.278l0.036,0.685c0.126-0.207,0.486-0.793,1.477-0.793
			c0.891,0,1.27,0.541,1.386,0.855c0.1,0.279,0.127,0.514,0.127,1.359v2.458h-1.359v-2.827c0-0.188,0-0.351-0.072-0.495
			c-0.1-0.198-0.307-0.387-0.648-0.387c-0.288,0-0.549,0.135-0.693,0.351c-0.081,0.117-0.162,0.343-0.162,0.693v2.665h-1.341V24.679
			z"/>
		<path fill="#020202" d="M269.701,23.761c1.647,0,2.359,1.116,2.359,2.386c0,1.278-0.738,2.431-2.386,2.431
			c-1.297,0-2.323-0.802-2.323-2.395C267.352,25.084,267.91,23.761,269.701,23.761z M269.72,27.649c0.585,0,0.981-0.351,0.981-1.557
			c0-0.604-0.117-1.44-1-1.44c-0.972,0-0.981,1.125-0.981,1.539C268.72,27.209,269.063,27.649,269.72,27.649z"/>
		<path fill="#020202" d="M273.058,24.985c0-0.217-0.036-0.874-0.063-1.135h1.251l0.027,0.873c0.171-0.387,0.468-0.936,1.548-0.882
			v1.197c-1.35-0.126-1.431,0.567-1.431,1.135v2.241h-1.333V24.985z"/>
		<path fill="#020202" d="M276.586,24.724c0-0.288-0.019-0.566-0.045-0.854h1.287l0.045,0.585c0.145-0.198,0.495-0.685,1.404-0.685
			c1.045,0,1.342,0.64,1.432,0.855c0.378-0.729,0.99-0.847,1.458-0.847c0.919,0,1.288,0.55,1.387,0.729
			c0.243,0.396,0.226,0.945,0.226,1.342v2.565h-1.342v-2.674c0-0.486-0.072-1.026-0.766-1.026c-0.801,0-0.818,0.747-0.818,1.423
			v2.277h-1.342v-2.701c0-0.351-0.009-0.999-0.747-0.999c-0.838,0-0.838,0.721-0.838,1.026v2.674h-1.341V24.724z"/>
		<path fill="#020202" d="M287.782,28.415c-0.045-0.279-0.045-0.486-0.045-0.621c-0.504,0.729-1.107,0.729-1.359,0.729
			c-0.657,0-0.954-0.189-1.134-0.36c-0.271-0.271-0.396-0.64-0.396-0.999c0-0.36,0.126-1.026,0.964-1.414
			c0.558-0.252,1.359-0.252,1.8-0.252c0-0.297-0.009-0.441-0.063-0.604c-0.117-0.333-0.469-0.378-0.595-0.378
			c-0.188,0-0.387,0.081-0.504,0.252c-0.099,0.153-0.099,0.298-0.099,0.405h-1.306c0.009-0.243,0.036-0.729,0.513-1.071
			c0.415-0.297,0.945-0.369,1.378-0.369c0.378,0,1.17,0.063,1.62,0.585c0.307,0.369,0.315,0.91,0.315,1.117l0.009,1.827
			c0,0.387,0.027,0.774,0.108,1.152H287.782z M286.145,27.011c0,0.306,0.207,0.648,0.647,0.648c0.243,0,0.441-0.117,0.567-0.262
			c0.234-0.288,0.252-0.639,0.252-1.125C286.757,26.2,286.145,26.471,286.145,27.011z"/>
		<path fill="#020202" d="M290.059,21.906h1.333v6.509h-1.333V21.906z"/>
		<path fill="#020202" d="M292.516,29.522c0.297-0.9,0.792-2.358,0.792-3.971c0-1.215-0.252-2.106-0.783-3.952h0.981
			c0.514,1.243,0.909,2.558,0.909,3.898c0,1.387-0.414,2.728-0.918,4.024H292.516z"/>
	</g>
</g>
</svg>
