<?xml version="1.0" encoding="utf-8"?>
<!-- Generator: Adobe Illustrator 17.0.0, SVG Export Plug-In . SVG Version: 6.00 Build 0)  -->
<!DOCTYPE svg PUBLIC "-//W3C//DTD SVG 1.1//EN" "http://www.w3.org/Graphics/SVG/1.1/DTD/svg11.dtd">
<svg version="1.1" id="Layer_1" xmlns="http://www.w3.org/2000/svg" xmlns:xlink="http://www.w3.org/1999/xlink" x="0px" y="0px"
	 width="749.415px" height="38.174px" viewBox="0 0 749.415 38.174" enable-background="new 0 0 749.415 38.174"
	 xml:space="preserve">
<g>
	<path fill="#00435B" d="M9.179,3.746C9.107,3.298,8.874,1.506,6.382,1.506c-3.119,0-3.675,3.191-3.675,5.342
		c0,2.438,0.699,5.073,3.657,5.073c0.789,0,1.542-0.197,2.097-0.771c0.466-0.502,0.574-1.058,0.627-1.362h1.972
		c-0.269,2.545-2.617,3.603-4.84,3.603c-4.553,0-5.431-4.015-5.431-6.525c0-2.725,1.058-6.794,5.664-6.794
		c1.828,0,4.41,0.735,4.642,3.675H9.179z M17.377,0.251h1.918l5.234,12.942h-1.954l-1.398-3.37h-6.005l-1.398,3.37h-1.846
		L17.377,0.251z M15.746,8.371h4.894l-2.384-6.345L15.746,8.371z M26.257,0.251h4.625c0.663,0,2.026,0,2.976,0.609
		c0.968,0.609,1.434,1.595,1.434,2.635c0,0.914-0.34,1.721-0.914,2.294c-0.556,0.556-1.13,0.735-1.524,0.842
		c1.237,0.323,1.793,0.878,1.972,2.492c0.179,1.523,0.305,2.635,0.807,4.069h-1.918c-0.287-0.86-0.466-2.438-0.591-3.424
		c-0.215-1.882-0.663-2.42-2.832-2.42h-2.258v5.844h-1.775V0.251z M27.996,5.826h2.832c0.197,0,1.219,0,1.703-0.287
		c0.251-0.143,0.878-0.609,0.878-1.685c0-2.097-1.864-2.097-2.581-2.097h-2.832V5.826z M38.255,0.251h3.746
		c1.739,0,3.782,0,5.216,1.685c1.147,1.344,1.595,3.119,1.595,4.894c0,2.796-1.165,4.517-2.151,5.306
		c-1.273,1.057-2.868,1.057-4.768,1.057h-3.639V0.251z M40.048,11.723h1.757c1.237,0,2.528-0.072,3.388-0.717
		c1.649-1.237,1.703-3.352,1.703-4.105c0-0.484-0.036-2.689-1.255-4.033c-0.825-0.914-1.864-1.129-3.442-1.129h-2.151V11.723z
		 M52.495,9.411c0.036,0.896,0.143,2.563,3.119,2.563c2.689,0,3.029-1.667,3.029-2.312c0-1.452-1.165-1.739-2.975-2.187
		c-1.972-0.484-2.85-0.699-3.513-1.147c-1.057-0.717-1.344-1.685-1.344-2.545C50.81,1.147,53.301,0,55.739,0
		c0.86,0,2.599,0.143,3.639,1.273c0.717,0.789,0.753,1.667,0.789,2.205h-1.864c-0.09-1.613-1.452-1.972-2.724-1.972
		c-1.793,0-2.868,0.807-2.868,2.097c0,1.147,0.753,1.541,2.33,1.918c3.083,0.789,3.424,0.86,4.177,1.362
		c1.201,0.789,1.291,2.043,1.291,2.581c0,2.294-1.792,4.033-5.109,4.033c-0.986,0-2.993-0.161-4.015-1.47
		c-0.735-0.95-0.753-1.99-0.753-2.617H52.495z M63.077,4.105h1.99V6.22h-1.99V4.105z M63.077,11.078h1.99v2.115h-1.99V11.078z
		 M76.273,0.251h1.918l5.234,12.942h-1.954l-1.398-3.37h-6.005l-1.398,3.37h-1.846L76.273,0.251z M74.642,8.371h4.894l-2.384-6.345
		L74.642,8.371z M83.809,4.159h1.595V2.276l1.667-0.538v2.42h2.008v1.237h-2.008v5.395c0,0.448,0,1.201,1.201,1.201
		c0.34,0,0.663-0.054,0.806-0.09v1.309c-0.305,0.054-0.789,0.108-1.398,0.108c-1.542,0-2.276-0.448-2.276-1.918V5.396h-1.595V4.159z
		 M95.069,3.961c3.603,0,4.41,2.832,4.41,4.714c0,2.635-1.488,4.822-4.553,4.822c-2.976,0-4.427-2.061-4.427-4.696
		C90.498,6.578,91.538,3.961,95.069,3.961z M94.962,12.243c1.273,0,2.724-0.914,2.724-3.621c0-2.241-1.039-3.424-2.617-3.424
		c-1.076,0-2.814,0.681-2.814,3.495C92.255,10.54,93.043,12.243,94.962,12.243z M102.209,6.023c0-0.609-0.036-1.237-0.09-1.828
		h1.703l0.036,1.739c0.323-1.255,1.398-1.667,2.151-1.775c0.502-0.072,0.878-0.054,1.165-0.036v1.649
		c-0.09-0.036-0.197-0.054-0.323-0.072c-0.125-0.018-0.287-0.018-0.484-0.018c-1.99,0-2.456,1.183-2.456,2.725v4.786h-1.703V6.023z
		 M107.734,4.194h1.882l2.868,7.134l2.796-7.134h1.864l-3.944,8.998h-1.703L107.734,4.194z M124.553,13.193
		c-0.125-0.448-0.161-0.878-0.161-1.344c-0.806,1.488-2.025,1.631-2.778,1.631c-2.061,0-3.173-1.165-3.173-2.653
		c0-0.717,0.251-1.864,1.577-2.635c0.968-0.538,2.402-0.592,3.119-0.592c0.43,0,0.699,0.018,1.219,0.054c0-1.111,0-1.595-0.323-1.99
		c-0.34-0.448-1.075-0.591-1.56-0.591c-1.703,0-1.792,1.165-1.81,1.524h-1.685c0.054-0.466,0.108-1.093,0.627-1.703
		c0.681-0.753,1.954-0.968,2.904-0.968c1.308,0,2.707,0.412,3.191,1.326c0.287,0.538,0.305,0.968,0.305,1.38l-0.072,4.302
		c0,0.143,0.018,1.344,0.143,2.259H124.553z M123.388,8.765c-0.681,0-3.244,0-3.244,1.828c0,0.574,0.358,1.559,1.864,1.559
		c0.86,0,1.506-0.341,1.918-0.968c0.376-0.609,0.394-1.111,0.43-2.366C124.051,8.783,123.8,8.765,123.388,8.765z M130.008,10.522
		c-0.018,0.681,0.341,1.631,1.972,1.631c0.699,0,1.219-0.125,1.578-0.574c0.179-0.233,0.287-0.538,0.287-0.843
		c0-0.878-0.627-1.04-1.972-1.344c-1.882-0.43-3.46-0.807-3.46-2.689c0-1.649,1.434-2.725,3.513-2.725
		c1.129,0,2.707,0.323,3.244,1.398c0.233,0.502,0.233,0.932,0.233,1.309h-1.721c0.054-1.362-1.13-1.47-1.739-1.47
		c-0.251,0-1.828,0-1.828,1.291c0,0.825,0.807,1.022,1.273,1.147c2.491,0.591,3.029,0.735,3.567,1.237
		c0.502,0.466,0.681,1.093,0.681,1.667c0,1.004-0.556,1.864-1.219,2.276c-0.789,0.484-1.739,0.609-2.671,0.609
		c-1.828,0-3.531-0.753-3.513-2.922H130.008z M136.627,4.159h1.595V2.276l1.667-0.538v2.42h2.008v1.237h-2.008v5.395
		c0,0.448,0,1.201,1.201,1.201c0.34,0,0.663-0.054,0.807-0.09v1.309c-0.305,0.054-0.789,0.108-1.398,0.108
		c-1.542,0-2.277-0.448-2.277-1.918V5.396h-1.595V4.159z M149.464,13.193c-0.125-0.448-0.161-0.878-0.161-1.344
		c-0.807,1.488-2.026,1.631-2.779,1.631c-2.061,0-3.173-1.165-3.173-2.653c0-0.717,0.251-1.864,1.577-2.635
		c0.968-0.538,2.402-0.592,3.119-0.592c0.43,0,0.699,0.018,1.219,0.054c0-1.111,0-1.595-0.323-1.99
		c-0.34-0.448-1.075-0.591-1.559-0.591c-1.703,0-1.792,1.165-1.81,1.524h-1.685c0.054-0.466,0.107-1.093,0.627-1.703
		c0.681-0.753,1.954-0.968,2.904-0.968c1.309,0,2.707,0.412,3.191,1.326c0.287,0.538,0.305,0.968,0.305,1.38l-0.072,4.302
		c0,0.143,0.018,1.344,0.143,2.259H149.464z M148.299,8.765c-0.681,0-3.244,0-3.244,1.828c0,0.574,0.358,1.559,1.864,1.559
		c0.86,0,1.506-0.341,1.918-0.968c0.376-0.609,0.394-1.111,0.43-2.366C148.962,8.783,148.711,8.765,148.299,8.765z M152.571,4.159
		h1.595V2.276l1.667-0.538v2.42h2.008v1.237h-2.008v5.395c0,0.448,0,1.201,1.201,1.201c0.34,0,0.663-0.054,0.807-0.09v1.309
		c-0.305,0.054-0.789,0.108-1.398,0.108c-1.542,0-2.276-0.448-2.276-1.918V5.396h-1.595V4.159z M159.762,0.287h2.026v1.846h-2.026
		V0.287z M159.941,4.194h1.685v8.998h-1.685V4.194z M164.963,5.234l-0.018-1.04h1.685l0.018,1.452
		c0.197-0.376,0.842-1.631,2.886-1.631c0.807,0,3.262,0.305,3.262,3.065v6.112h-1.721V7.475c0-0.592-0.072-1.129-0.484-1.542
		c-0.43-0.412-1.022-0.609-1.595-0.609c-1.219,0-2.348,0.878-2.348,2.689v5.18h-1.685V5.234z M184.133,2.743
		c-0.771,0.645-2.008,1.38-2.886,1.793V2.743c1.165-0.609,2.312-1.362,3.011-1.954h1.595v12.404h-1.721V2.743z M193.208,0.538
		c3.71,0,4.158,3.979,4.158,6.31c0,2.94-0.591,4.589-1.721,5.646c-0.878,0.825-1.918,0.95-2.473,0.95
		c-1.649,0-2.778-0.968-3.316-2.061c-0.412-0.824-0.807-2.026-0.807-4.248C189.049,5.288,189.264,0.538,193.208,0.538z
		 M193.19,11.956c2.079,0,2.438-2.725,2.438-4.947c0-2.976-0.52-5.037-2.402-5.037c-2.169,0-2.456,2.85-2.456,5.073
		C190.77,9.805,191.308,11.956,193.19,11.956z M204.778,5.396l-0.036-1.201h1.703v1.309c0.86-1.416,2.079-1.541,2.85-1.541
		c1.99,0,2.617,1.022,2.94,1.685c0.305-0.502,1.04-1.685,3.029-1.685c1.291,0,3.298,0.538,3.298,3.191v6.041h-1.703V7.421
		c0-0.789-0.143-1.129-0.305-1.362c-0.287-0.412-0.86-0.789-1.721-0.789c-1.093,0-1.685,0.627-1.918,0.95
		c-0.394,0.556-0.394,1.542-0.394,1.936v5.037h-1.703V7.242c0-1.111-0.645-1.972-1.972-1.972c-1.147,0-1.775,0.717-1.972,0.986
		c-0.376,0.52-0.394,1.255-0.394,1.828v5.109h-1.703V5.396z M223.34,13.892c0.072,1.004,0.502,1.757,2.097,1.757
		c2.348,0,2.384-1.703,2.384-4.141c-0.717,1.488-2.42,1.524-2.958,1.524c-0.825,0-2.008-0.179-2.76-1.111
		c-0.771-0.914-1.021-2.115-1.021-3.316c0-3.047,1.792-4.535,3.997-4.535c1.81,0,2.474,0.896,2.832,1.362l0.018-1.237h1.631
		l-0.036,1.631l-0.018,5.628c0,2.169-0.072,3.047-0.43,3.728c-0.753,1.434-2.51,1.613-3.746,1.613c-3.603,0-3.71-1.685-3.782-2.904
		H223.34z M227.265,10.88c0.359-0.466,0.609-0.95,0.609-2.581c0-1.129-0.251-1.775-0.699-2.241
		c-0.448-0.484-1.165-0.789-1.936-0.789c-2.133,0-2.42,2.151-2.42,3.298c0,1.38,0.412,3.209,2.474,3.209
		C226.279,11.777,226.853,11.418,227.265,10.88z M237.616,5.664c0-0.394-0.018-0.609-0.054-1.47h1.703l0.036,1.488
		c0.842-1.416,2.33-1.631,3.065-1.631c1.936,0,3.782,1.326,3.782,4.661c0,3.352-1.954,4.822-4.105,4.822
		c-1.308,0-2.276-0.556-2.76-1.344v4.463h-1.667V5.664z M241.757,12.297c0.43,0,1.326-0.09,1.9-0.878
		c0.645-0.878,0.735-2.169,0.735-2.814c0-1.613-0.484-3.298-2.474-3.298c-2.689,0-2.689,2.85-2.689,3.657
		C239.23,10.056,239.391,12.297,241.757,12.297z M248.718,6.023c0-0.609-0.036-1.237-0.09-1.828h1.703l0.036,1.739
		c0.323-1.255,1.398-1.667,2.151-1.775c0.502-0.072,0.878-0.054,1.165-0.036v1.649c-0.09-0.036-0.197-0.054-0.323-0.072
		c-0.126-0.018-0.287-0.018-0.484-0.018c-1.99,0-2.456,1.183-2.456,2.725v4.786h-1.703V6.023z M259.513,3.961
		c3.603,0,4.409,2.832,4.409,4.714c0,2.635-1.488,4.822-4.553,4.822c-2.976,0-4.428-2.061-4.428-4.696
		C254.942,6.578,255.981,3.961,259.513,3.961z M259.405,12.243c1.273,0,2.725-0.914,2.725-3.621c0-2.241-1.04-3.424-2.617-3.424
		c-1.076,0-2.814,0.681-2.814,3.495C256.698,10.54,257.487,12.243,259.405,12.243z M264.932,4.194h1.882l2.868,7.134l2.796-7.134
		h1.864l-3.944,8.998h-1.703L264.932,4.194z M276.105,0.287h2.026v1.846h-2.026V0.287z M276.284,4.194h1.685v8.998h-1.685V4.194z
		 M287.489,0.269h1.685v11.49c0,0.197,0.036,0.968,0.072,1.434h-1.685l-0.036-1.434c-0.143,0.251-0.34,0.627-0.806,0.95
		c-0.735,0.502-1.613,0.663-2.223,0.663c-1.201,0-3.872-0.627-3.872-4.571c0-3.424,1.954-4.911,4.069-4.911
		c1.936,0,2.581,1.147,2.796,1.524V0.269z M286.862,6.059c-0.359-0.466-1.022-0.914-1.972-0.914c-2.474,0-2.474,2.993-2.474,3.603
		c0,1.595,0.412,3.442,2.474,3.442c2.653,0,2.653-2.922,2.653-3.621C287.543,7.26,287.238,6.543,286.862,6.059z M293.231,8.998
		c-0.036,1.864,0.735,3.244,2.581,3.244c1.093,0,1.972-0.574,2.115-1.864h1.685c-0.054,0.448-0.125,1.183-0.771,1.882
		c-0.394,0.448-1.291,1.201-3.101,1.201c-2.832,0-4.176-1.757-4.176-4.607c0-1.775,0.358-3.244,1.774-4.23
		c0.86-0.609,1.936-0.663,2.456-0.663c4.033,0,3.943,3.567,3.908,5.037H293.231z M297.982,7.815c0.018-0.86-0.143-2.653-2.223-2.653
		c-1.093,0-2.42,0.663-2.456,2.653H297.982z M308.419,0.269h1.685v11.49c0,0.197,0.036,0.968,0.072,1.434h-1.685l-0.036-1.434
		c-0.143,0.251-0.34,0.627-0.806,0.95c-0.735,0.502-1.613,0.663-2.223,0.663c-1.201,0-3.872-0.627-3.872-4.571
		c0-3.424,1.954-4.911,4.069-4.911c1.936,0,2.581,1.147,2.796,1.524V0.269z M307.792,6.059c-0.359-0.466-1.022-0.914-1.972-0.914
		c-2.474,0-2.474,2.993-2.474,3.603c0,1.595,0.412,3.442,2.474,3.442c2.653,0,2.653-2.922,2.653-3.621
		C308.473,7.26,308.168,6.543,307.792,6.059z M323.611,13.193c-0.126-0.448-0.161-0.878-0.161-1.344
		c-0.807,1.488-2.026,1.631-2.778,1.631c-2.061,0-3.173-1.165-3.173-2.653c0-0.717,0.251-1.864,1.577-2.635
		c0.968-0.538,2.402-0.592,3.119-0.592c0.43,0,0.699,0.018,1.219,0.054c0-1.111,0-1.595-0.323-1.99
		c-0.34-0.448-1.075-0.591-1.559-0.591c-1.703,0-1.792,1.165-1.81,1.524h-1.685c0.054-0.466,0.107-1.093,0.627-1.703
		c0.681-0.753,1.954-0.968,2.904-0.968c1.309,0,2.707,0.412,3.191,1.326c0.287,0.538,0.305,0.968,0.305,1.38l-0.072,4.302
		c0,0.143,0.018,1.344,0.143,2.259H323.611z M322.445,8.765c-0.681,0-3.244,0-3.244,1.828c0,0.574,0.358,1.559,1.864,1.559
		c0.86,0,1.506-0.341,1.918-0.968c0.376-0.609,0.394-1.111,0.43-2.366C323.109,8.783,322.858,8.765,322.445,8.765z M334.051,10.522
		c-0.018,0.681,0.341,1.631,1.972,1.631c0.699,0,1.219-0.125,1.577-0.574c0.179-0.233,0.287-0.538,0.287-0.843
		c0-0.878-0.627-1.04-1.972-1.344c-1.882-0.43-3.46-0.807-3.46-2.689c0-1.649,1.434-2.725,3.513-2.725
		c1.129,0,2.707,0.323,3.244,1.398c0.233,0.502,0.233,0.932,0.233,1.309h-1.721c0.054-1.362-1.129-1.47-1.739-1.47
		c-0.251,0-1.828,0-1.828,1.291c0,0.825,0.807,1.022,1.273,1.147c2.492,0.591,3.029,0.735,3.567,1.237
		c0.502,0.466,0.681,1.093,0.681,1.667c0,1.004-0.556,1.864-1.219,2.276c-0.789,0.484-1.738,0.609-2.671,0.609
		c-1.828,0-3.531-0.753-3.513-2.922H334.051z M341.889,0.287h2.026v1.846h-2.026V0.287z M342.068,4.194h1.685v8.998h-1.685V4.194z
		 M348.649,13.892c0.072,1.004,0.502,1.757,2.097,1.757c2.348,0,2.384-1.703,2.384-4.141c-0.717,1.488-2.42,1.524-2.958,1.524
		c-0.824,0-2.008-0.179-2.76-1.111c-0.771-0.914-1.021-2.115-1.021-3.316c0-3.047,1.792-4.535,3.997-4.535
		c1.81,0,2.474,0.896,2.832,1.362l0.018-1.237h1.631l-0.036,1.631l-0.018,5.628c0,2.169-0.072,3.047-0.43,3.728
		c-0.753,1.434-2.51,1.613-3.746,1.613c-3.603,0-3.71-1.685-3.782-2.904H348.649z M352.575,10.88
		c0.359-0.466,0.609-0.95,0.609-2.581c0-1.129-0.251-1.775-0.699-2.241c-0.448-0.484-1.165-0.789-1.936-0.789
		c-2.133,0-2.42,2.151-2.42,3.298c0,1.38,0.412,3.209,2.474,3.209C351.589,11.777,352.163,11.418,352.575,10.88z M358.048,5.234
		l-0.018-1.04h1.685l0.018,1.452c0.197-0.376,0.842-1.631,2.886-1.631c0.807,0,3.262,0.305,3.262,3.065v6.112h-1.721V7.475
		c0-0.592-0.072-1.129-0.484-1.542c-0.43-0.412-1.022-0.609-1.595-0.609c-1.219,0-2.348,0.878-2.348,2.689v5.18h-1.685V5.234z
		 M368.791,0.287h2.026v1.846h-2.026V0.287z M368.97,4.194h1.685v8.998h-1.685V4.194z M378.437,1.506
		c-0.287-0.018-0.645-0.036-0.986-0.036c-1.362,0-1.362,0.681-1.362,1.309v1.416h2.097v1.219h-2.097v7.779h-1.667V5.413h-1.775
		V4.194h1.775V3.173c0-1.237,0.072-1.685,0.376-2.151c0.394-0.592,1.129-0.986,2.258-0.986c0.484,0,1.022,0.072,1.38,0.126V1.506z
		 M379.728,0.287h2.008v1.828h-2.008V0.287z M379.907,13.193V4.194h1.667v8.998H379.907z M390.023,7.08
		c-0.036-0.412-0.161-1.882-1.792-1.882c-2.33,0-2.33,2.707-2.33,3.388c0,1.846,0.448,3.567,2.241,3.567
		c1.434,0,1.918-1.076,1.954-1.954h1.703c-0.108,1.757-1.416,3.227-3.639,3.227c-0.609,0-2.008-0.126-2.957-1.165
		c-0.538-0.627-1.076-1.577-1.076-3.442c0-3.746,2.294-4.858,4.087-4.858c0.591,0,1.936,0.125,2.76,1.111
		c0.663,0.771,0.717,1.506,0.753,2.008H390.023z M399.349,13.193c-0.125-0.448-0.161-0.878-0.161-1.344
		c-0.806,1.488-2.026,1.631-2.778,1.631c-2.061,0-3.173-1.165-3.173-2.653c0-0.717,0.251-1.864,1.577-2.635
		c0.968-0.538,2.402-0.592,3.119-0.592c0.43,0,0.699,0.018,1.219,0.054c0-1.111,0-1.595-0.323-1.99
		c-0.341-0.448-1.075-0.591-1.56-0.591c-1.703,0-1.792,1.165-1.81,1.524h-1.685c0.054-0.466,0.108-1.093,0.627-1.703
		c0.681-0.753,1.954-0.968,2.904-0.968c1.309,0,2.707,0.412,3.191,1.326c0.287,0.538,0.305,0.968,0.305,1.38l-0.072,4.302
		c0,0.143,0.018,1.344,0.143,2.259H399.349z M398.184,8.765c-0.681,0-3.244,0-3.244,1.828c0,0.574,0.358,1.559,1.864,1.559
		c0.86,0,1.506-0.341,1.918-0.968c0.376-0.609,0.394-1.111,0.43-2.366C398.847,8.783,398.596,8.765,398.184,8.765z M403.889,5.234
		l-0.018-1.04h1.685l0.018,1.452c0.197-0.376,0.843-1.631,2.886-1.631c0.806,0,3.262,0.305,3.262,3.065v6.112h-1.721V7.475
		c0-0.592-0.072-1.129-0.484-1.542c-0.43-0.412-1.022-0.609-1.595-0.609c-1.219,0-2.348,0.878-2.348,2.689v5.18h-1.685V5.234z
		 M413.413,4.159h1.595V2.276l1.667-0.538v2.42h2.008v1.237h-2.008v5.395c0,0.448,0,1.201,1.201,1.201
		c0.341,0,0.663-0.054,0.807-0.09v1.309c-0.305,0.054-0.789,0.108-1.398,0.108c-1.542,0-2.277-0.448-2.277-1.918V5.396h-1.595V4.159
		z M425.841,6.023c0-0.609-0.036-1.237-0.089-1.828h1.703l0.036,1.739c0.323-1.255,1.398-1.667,2.151-1.775
		c0.502-0.072,0.878-0.054,1.165-0.036v1.649c-0.09-0.036-0.197-0.054-0.323-0.072c-0.125-0.018-0.287-0.018-0.484-0.018
		c-1.99,0-2.456,1.183-2.456,2.725v4.786h-1.703V6.023z M433.75,8.998c-0.036,1.864,0.735,3.244,2.581,3.244
		c1.093,0,1.972-0.574,2.115-1.864h1.685c-0.054,0.448-0.126,1.183-0.771,1.882c-0.394,0.448-1.291,1.201-3.101,1.201
		c-2.832,0-4.176-1.757-4.176-4.607c0-1.775,0.358-3.244,1.774-4.23c0.86-0.609,1.936-0.663,2.456-0.663
		c4.033,0,3.943,3.567,3.908,5.037H433.75z M438.5,7.815c0.018-0.86-0.143-2.653-2.223-2.653c-1.093,0-2.42,0.663-2.456,2.653H438.5
		z M448.938,0.269h1.685v11.49c0,0.197,0.036,0.968,0.072,1.434h-1.685l-0.036-1.434c-0.143,0.251-0.341,0.627-0.807,0.95
		c-0.735,0.502-1.613,0.663-2.223,0.663c-1.201,0-3.872-0.627-3.872-4.571c0-3.424,1.954-4.911,4.069-4.911
		c1.936,0,2.581,1.147,2.796,1.524V0.269z M448.31,6.059c-0.359-0.466-1.022-0.914-1.972-0.914c-2.474,0-2.474,2.993-2.474,3.603
		c0,1.595,0.412,3.442,2.474,3.442c2.653,0,2.653-2.922,2.653-3.621C448.992,7.26,448.687,6.543,448.31,6.059z M455.2,4.194v5.79
		c0,0.878,0.197,1.99,1.918,1.99c0.842,0,1.631-0.287,2.115-1.004c0.376-0.538,0.376-1.237,0.376-1.685V4.194h1.739v7.313
		c0,0.179,0.036,1.183,0.054,1.685h-1.757l-0.036-1.542c-0.323,0.627-0.932,1.631-2.868,1.631c-2.223,0-3.263-1.273-3.263-3.047
		V4.194H455.2z M469.743,7.08c-0.036-0.412-0.161-1.882-1.792-1.882c-2.33,0-2.33,2.707-2.33,3.388c0,1.846,0.448,3.567,2.241,3.567
		c1.434,0,1.918-1.076,1.954-1.954h1.703c-0.108,1.757-1.416,3.227-3.639,3.227c-0.609,0-2.008-0.126-2.958-1.165
		c-0.538-0.627-1.076-1.577-1.076-3.442c0-3.746,2.294-4.858,4.087-4.858c0.592,0,1.936,0.125,2.76,1.111
		c0.663,0.771,0.717,1.506,0.753,2.008H469.743z M472.203,4.159h1.595V2.276l1.667-0.538v2.42h2.008v1.237h-2.008v5.395
		c0,0.448,0,1.201,1.201,1.201c0.34,0,0.663-0.054,0.806-0.09v1.309c-0.305,0.054-0.789,0.108-1.398,0.108
		c-1.542,0-2.276-0.448-2.276-1.918V5.396h-1.595V4.159z M479.394,0.287h2.026v1.846h-2.026V0.287z M479.574,4.194h1.685v8.998
		h-1.685V4.194z M488.449,3.961c3.603,0,4.41,2.832,4.41,4.714c0,2.635-1.488,4.822-4.553,4.822c-2.976,0-4.427-2.061-4.427-4.696
		C483.878,6.578,484.918,3.961,488.449,3.961z M488.342,12.243c1.273,0,2.724-0.914,2.724-3.621c0-2.241-1.04-3.424-2.617-3.424
		c-1.076,0-2.814,0.681-2.814,3.495C485.635,10.54,486.424,12.243,488.342,12.243z M495.553,5.234l-0.018-1.04h1.685l0.018,1.452
		c0.197-0.376,0.842-1.631,2.886-1.631c0.807,0,3.262,0.305,3.262,3.065v6.112h-1.721V7.475c0-0.592-0.072-1.129-0.484-1.542
		c-0.43-0.412-1.021-0.609-1.595-0.609c-1.219,0-2.348,0.878-2.348,2.689v5.18h-1.685V5.234z M511.282,0.287h2.026v1.846h-2.026
		V0.287z M511.462,4.194h1.685v8.998h-1.685V4.194z M516.483,5.234l-0.018-1.04h1.685l0.018,1.452
		c0.197-0.376,0.842-1.631,2.886-1.631c0.807,0,3.262,0.305,3.262,3.065v6.112h-1.721V7.475c0-0.592-0.072-1.129-0.484-1.542
		c-0.43-0.412-1.022-0.609-1.595-0.609c-1.219,0-2.348,0.878-2.348,2.689v5.18h-1.685V5.234z M540.171,3.746
		c-0.072-0.448-0.305-2.241-2.796-2.241c-3.119,0-3.675,3.191-3.675,5.342c0,2.438,0.699,5.073,3.657,5.073
		c0.789,0,1.542-0.197,2.097-0.771c0.466-0.502,0.574-1.058,0.627-1.362h1.972c-0.269,2.545-2.617,3.603-4.84,3.603
		c-4.553,0-5.431-4.015-5.431-6.525c0-2.725,1.058-6.794,5.664-6.794c1.828,0,4.409,0.735,4.642,3.675H540.171z M549.588,13.193
		h-1.972l-4.607-12.942h1.99l3.675,11.06l3.872-11.06h1.81L549.588,13.193z M562.306,8.998c-0.036,1.864,0.735,3.244,2.581,3.244
		c1.093,0,1.972-0.574,2.115-1.864h1.685c-0.054,0.448-0.125,1.183-0.771,1.882c-0.394,0.448-1.291,1.201-3.101,1.201
		c-2.832,0-4.176-1.757-4.176-4.607c0-1.775,0.358-3.244,1.774-4.23c0.86-0.609,1.936-0.663,2.456-0.663
		c4.033,0,3.943,3.567,3.908,5.037H562.306z M567.056,7.815c0.018-0.86-0.143-2.653-2.223-2.653c-1.093,0-2.42,0.663-2.456,2.653
		H567.056z M569.894,4.194h1.882l2.868,7.134l2.796-7.134h1.864l-3.944,8.998h-1.703L569.894,4.194z M582.25,8.998
		c-0.036,1.864,0.735,3.244,2.581,3.244c1.093,0,1.972-0.574,2.115-1.864h1.685c-0.054,0.448-0.125,1.183-0.771,1.882
		c-0.395,0.448-1.291,1.201-3.101,1.201c-2.832,0-4.176-1.757-4.176-4.607c0-1.775,0.359-3.244,1.775-4.23
		c0.86-0.609,1.936-0.663,2.456-0.663c4.033,0,3.944,3.567,3.908,5.037H582.25z M587,7.815c0.018-0.86-0.143-2.653-2.223-2.653
		c-1.093,0-2.42,0.663-2.456,2.653H587z M591.254,5.234l-0.018-1.04h1.685l0.018,1.452c0.197-0.376,0.842-1.631,2.886-1.631
		c0.806,0,3.262,0.305,3.262,3.065v6.112h-1.721V7.475c0-0.592-0.072-1.129-0.484-1.542c-0.43-0.412-1.022-0.609-1.595-0.609
		c-1.219,0-2.348,0.878-2.348,2.689v5.18h-1.685V5.234z M600.778,4.159h1.595V2.276l1.667-0.538v2.42h2.008v1.237h-2.008v5.395
		c0,0.448,0,1.201,1.201,1.201c0.341,0,0.663-0.054,0.807-0.09v1.309c-0.305,0.054-0.789,0.108-1.398,0.108
		c-1.542,0-2.277-0.448-2.277-1.918V5.396h-1.595V4.159z M609.098,10.522c-0.018,0.681,0.341,1.631,1.972,1.631
		c0.699,0,1.219-0.125,1.578-0.574c0.179-0.233,0.287-0.538,0.287-0.843c0-0.878-0.628-1.04-1.972-1.344
		c-1.882-0.43-3.46-0.807-3.46-2.689c0-1.649,1.434-2.725,3.513-2.725c1.129,0,2.707,0.323,3.244,1.398
		c0.233,0.502,0.233,0.932,0.233,1.309h-1.721c0.054-1.362-1.129-1.47-1.739-1.47c-0.251,0-1.828,0-1.828,1.291
		c0,0.825,0.807,1.022,1.273,1.147c2.492,0.591,3.029,0.735,3.567,1.237c0.502,0.466,0.681,1.093,0.681,1.667
		c0,1.004-0.556,1.864-1.219,2.276c-0.789,0.484-1.739,0.609-2.671,0.609c-1.828,0-3.531-0.753-3.513-2.922H609.098z M621.922,0.287
		h2.026v1.846h-2.026V0.287z M622.101,4.194h1.685v8.998h-1.685V4.194z M627.123,5.234l-0.018-1.04h1.685l0.018,1.452
		c0.197-0.376,0.842-1.631,2.886-1.631c0.807,0,3.262,0.305,3.262,3.065v6.112h-1.721V7.475c0-0.592-0.072-1.129-0.484-1.542
		c-0.43-0.412-1.022-0.609-1.595-0.609c-1.219,0-2.348,0.878-2.348,2.689v5.18h-1.685V5.234z M642.959,5.664
		c0-0.394-0.018-0.609-0.054-1.47h1.703l0.036,1.488c0.843-1.416,2.33-1.631,3.065-1.631c1.936,0,3.782,1.326,3.782,4.661
		c0,3.352-1.954,4.822-4.105,4.822c-1.309,0-2.277-0.556-2.76-1.344v4.463h-1.667V5.664z M647.1,12.297c0.43,0,1.326-0.09,1.9-0.878
		c0.645-0.878,0.735-2.169,0.735-2.814c0-1.613-0.484-3.298-2.474-3.298c-2.689,0-2.689,2.85-2.689,3.657
		C644.572,10.056,644.734,12.297,647.1,12.297z M659.456,13.193c-0.125-0.448-0.161-0.878-0.161-1.344
		c-0.807,1.488-2.026,1.631-2.779,1.631c-2.061,0-3.173-1.165-3.173-2.653c0-0.717,0.251-1.864,1.577-2.635
		c0.968-0.538,2.402-0.592,3.119-0.592c0.43,0,0.699,0.018,1.219,0.054c0-1.111,0-1.595-0.323-1.99
		c-0.341-0.448-1.075-0.591-1.56-0.591c-1.703,0-1.792,1.165-1.81,1.524h-1.685c0.054-0.466,0.107-1.093,0.627-1.703
		c0.681-0.753,1.954-0.968,2.904-0.968c1.309,0,2.707,0.412,3.191,1.326c0.287,0.538,0.305,0.968,0.305,1.38l-0.072,4.302
		c0,0.143,0.018,1.344,0.143,2.259H659.456z M658.291,8.765c-0.681,0-3.244,0-3.244,1.828c0,0.574,0.358,1.559,1.864,1.559
		c0.86,0,1.506-0.341,1.918-0.968c0.376-0.609,0.394-1.111,0.43-2.366C658.954,8.783,658.703,8.765,658.291,8.765z M662.563,4.159
		h1.595V2.276l1.667-0.538v2.42h2.008v1.237h-2.008v5.395c0,0.448,0,1.201,1.201,1.201c0.341,0,0.663-0.054,0.807-0.09v1.309
		c-0.305,0.054-0.789,0.108-1.398,0.108c-1.542,0-2.277-0.448-2.277-1.918V5.396h-1.595V4.159z M669.754,0.287h2.026v1.846h-2.026
		V0.287z M669.933,4.194h1.685v8.998h-1.685V4.194z M675.923,8.998c-0.036,1.864,0.735,3.244,2.581,3.244
		c1.093,0,1.972-0.574,2.115-1.864h1.685c-0.054,0.448-0.125,1.183-0.771,1.882c-0.394,0.448-1.291,1.201-3.101,1.201
		c-2.832,0-4.176-1.757-4.176-4.607c0-1.775,0.358-3.244,1.774-4.23c0.86-0.609,1.936-0.663,2.456-0.663
		c4.033,0,3.943,3.567,3.908,5.037H675.923z M680.673,7.815c0.018-0.86-0.143-2.653-2.223-2.653c-1.093,0-2.42,0.663-2.456,2.653
		H680.673z M684.926,5.234l-0.018-1.04h1.685l0.018,1.452c0.197-0.376,0.843-1.631,2.886-1.631c0.807,0,3.262,0.305,3.262,3.065
		v6.112h-1.721V7.475c0-0.592-0.072-1.129-0.484-1.542c-0.43-0.412-1.021-0.609-1.595-0.609c-1.219,0-2.348,0.878-2.348,2.689v5.18
		h-1.685V5.234z M694.451,4.159h1.595V2.276l1.667-0.538v2.42h2.008v1.237h-2.008v5.395c0,0.448,0,1.201,1.201,1.201
		c0.341,0,0.663-0.054,0.807-0.09v1.309c-0.305,0.054-0.789,0.108-1.398,0.108c-1.542,0-2.276-0.448-2.276-1.918V5.396h-1.595V4.159
		z M702.771,10.522c-0.018,0.681,0.341,1.631,1.972,1.631c0.699,0,1.219-0.125,1.578-0.574c0.179-0.233,0.287-0.538,0.287-0.843
		c0-0.878-0.627-1.04-1.972-1.344c-1.882-0.43-3.459-0.807-3.459-2.689c0-1.649,1.434-2.725,3.513-2.725
		c1.129,0,2.707,0.323,3.244,1.398c0.233,0.502,0.233,0.932,0.233,1.309h-1.721c0.054-1.362-1.13-1.47-1.739-1.47
		c-0.251,0-1.828,0-1.828,1.291c0,0.825,0.807,1.022,1.273,1.147c2.491,0.591,3.029,0.735,3.567,1.237
		c0.502,0.466,0.681,1.093,0.681,1.667c0,1.004-0.556,1.864-1.219,2.276c-0.789,0.484-1.739,0.609-2.671,0.609
		c-1.828,0-3.531-0.753-3.513-2.922H702.771z M716.24,4.194l2.169,7.17l2.277-7.17h2.205l2.044,7.098l2.258-7.098h1.739
		l-3.173,8.998h-1.936l-2.115-7.403l-2.348,7.403h-1.99l-2.976-8.998H716.24z M730.534,0.287h2.026v1.846h-2.026V0.287z
		 M730.714,4.194h1.685v8.998h-1.685V4.194z M734.301,4.159h1.595V2.276l1.667-0.538v2.42h2.008v1.237h-2.008v5.395
		c0,0.448,0,1.201,1.201,1.201c0.341,0,0.663-0.054,0.807-0.09v1.309c-0.305,0.054-0.789,0.108-1.398,0.108
		c-1.542,0-2.277-0.448-2.277-1.918V5.396h-1.595V4.159z M741.654,0.269h1.703v5.252c0.556-0.95,1.667-1.488,2.922-1.488
		c0.95,0,2.312,0.341,2.832,1.434c0.179,0.359,0.305,0.789,0.305,2.097v5.628h-1.721V7.869c0-0.807,0-2.545-1.936-2.545
		c-1.255,0-1.882,0.771-2.115,1.201c-0.287,0.502-0.287,1.344-0.287,1.9v4.768h-1.703V0.269z"/>
	<g>
		<path fill="#00435B" d="M0,25.678h1.596v-1.883l1.667-0.538v2.42h2.009v1.237H3.263v5.397c0,0.448,0,1.201,1.201,1.201
			c0.341,0,0.664-0.054,0.808-0.09v1.309c-0.306,0.054-0.789,0.107-1.398,0.107c-1.542,0-2.277-0.448-2.277-1.918v-6.006H0V25.678z"
			/>
		<path fill="#00435B" d="M11.404,34.767l-1.291,3.353H8.374l1.362-3.442l-3.747-8.965h1.9l2.815,7.1l2.868-7.1h1.829L11.404,34.767
			z"/>
		<path fill="#00435B" d="M17.271,27.184c0-0.395-0.019-0.609-0.055-1.47h1.704l0.035,1.488c0.843-1.417,2.331-1.632,3.066-1.632
			c1.937,0,3.783,1.327,3.783,4.662c0,3.353-1.955,4.823-4.106,4.823c-1.309,0-2.276-0.556-2.761-1.345v4.464h-1.667V27.184z
			 M21.413,33.817c0.43,0,1.326-0.09,1.9-0.878c0.646-0.878,0.734-2.169,0.734-2.815c0-1.614-0.483-3.299-2.474-3.299
			c-2.689,0-2.689,2.851-2.689,3.657C18.885,31.576,19.046,33.817,21.413,33.817z"/>
		<path fill="#00435B" d="M29.305,30.518c-0.036,1.865,0.735,3.245,2.582,3.245c1.094,0,1.972-0.574,2.115-1.865h1.686
			c-0.054,0.448-0.125,1.184-0.771,1.883c-0.395,0.448-1.291,1.201-3.103,1.201c-2.832,0-4.177-1.757-4.177-4.608
			c0-1.775,0.358-3.245,1.774-4.231c0.861-0.609,1.937-0.663,2.456-0.663c4.034,0,3.945,3.568,3.909,5.038H29.305z M34.056,29.335
			c0.019-0.86-0.144-2.653-2.223-2.653c-1.094,0-2.421,0.664-2.456,2.653H34.056z"/>
		<path fill="#00435B" d="M42.612,33.082l3.245-3.191c0.682-0.664,1.362-1.381,1.919-2.134c0.717-0.986,0.914-1.542,0.914-2.205
			c0-0.61-0.215-2.026-1.99-2.026c-1.99,0-2.026,1.704-2.026,2.169h-1.882c0.018-0.609,0.071-1.792,1.147-2.725
			c0.86-0.735,1.9-0.896,2.689-0.896c1.9,0,3.836,0.968,3.836,3.622c0,0.789-0.054,1.399-1.398,3.102
			c-0.358,0.448-1.936,2.08-2.295,2.438l-2.169,2.062h5.898v1.417h-7.889V33.082z"/>
		<path fill="#00435B" d="M64.438,21.787h1.685V33.28c0,0.197,0.036,0.968,0.072,1.434h-1.686l-0.036-1.434
			c-0.143,0.251-0.34,0.627-0.807,0.95c-0.735,0.502-1.613,0.663-2.223,0.663c-1.201,0-3.873-0.627-3.873-4.572
			c0-3.424,1.954-4.913,4.07-4.913c1.936,0,2.581,1.147,2.797,1.524V21.787z M63.81,27.578c-0.358-0.466-1.021-0.915-1.972-0.915
			c-2.475,0-2.475,2.994-2.475,3.604c0,1.596,0.412,3.442,2.475,3.442c2.653,0,2.653-2.922,2.653-3.622
			C64.491,28.779,64.187,28.062,63.81,27.578z"/>
		<path fill="#00435B" d="M68.994,21.805h2.026v1.847h-2.026V21.805z M69.174,25.713h1.686v9h-1.686V25.713z"/>
		<path fill="#00435B" d="M79.628,34.714c-0.126-0.448-0.162-0.878-0.162-1.345C78.659,34.857,77.44,35,76.688,35
			c-2.063,0-3.174-1.165-3.174-2.653c0-0.717,0.251-1.865,1.578-2.636c0.968-0.538,2.402-0.591,3.119-0.591
			c0.431,0,0.699,0.018,1.22,0.054c0-1.112,0-1.596-0.323-1.99c-0.341-0.448-1.075-0.592-1.56-0.592
			c-1.703,0-1.793,1.166-1.811,1.524h-1.686c0.054-0.466,0.107-1.093,0.627-1.703c0.682-0.753,1.955-0.968,2.905-0.968
			c1.309,0,2.707,0.413,3.191,1.327c0.286,0.538,0.305,0.968,0.305,1.38l-0.072,4.303c0,0.144,0.019,1.345,0.144,2.259H79.628z
			 M78.462,30.285c-0.681,0-3.245,0-3.245,1.829c0,0.574,0.358,1.56,1.865,1.56c0.86,0,1.506-0.34,1.918-0.968
			c0.377-0.609,0.395-1.111,0.431-2.366C79.126,30.303,78.874,30.285,78.462,30.285z"/>
		<path fill="#00435B" d="M85.798,27.022c0.233-0.413,0.896-1.542,2.94-1.542c0.896,0,2.026,0.215,2.851,1.147
			c0.448,0.52,1.059,1.417,1.059,3.389c0,1.739-0.413,2.689-0.861,3.281c-0.717,1.022-1.918,1.542-3.155,1.542
			c-0.43,0-1.237-0.054-2.008-0.574c-0.502-0.341-0.699-0.646-0.879-0.915l-0.035,1.363h-1.632l0.036-1.614V21.769h1.685V27.022z
			 M88.344,26.628c-2.581,0-2.581,3.012-2.581,3.586c0,0.591,0,3.406,2.51,3.406c2.08,0,2.6-2.026,2.6-3.496
			C90.872,29.227,90.693,26.628,88.344,26.628z"/>
		<path fill="#00435B" d="M96.094,30.518c-0.036,1.865,0.735,3.245,2.582,3.245c1.094,0,1.972-0.574,2.115-1.865h1.686
			c-0.054,0.448-0.125,1.184-0.771,1.883c-0.395,0.448-1.291,1.201-3.103,1.201c-2.832,0-4.177-1.757-4.177-4.608
			c0-1.775,0.358-3.245,1.774-4.231c0.861-0.609,1.937-0.663,2.456-0.663c4.034,0,3.945,3.568,3.909,5.038H96.094z M100.845,29.335
			c0.019-0.86-0.144-2.653-2.223-2.653c-1.094,0-2.421,0.664-2.456,2.653H100.845z"/>
		<path fill="#00435B" d="M103.663,25.678h1.596v-1.883l1.667-0.538v2.42h2.009v1.237h-2.009v5.397c0,0.448,0,1.201,1.201,1.201
			c0.341,0,0.664-0.054,0.808-0.09v1.309c-0.305,0.054-0.789,0.107-1.398,0.107c-1.542,0-2.277-0.448-2.277-1.918v-6.006h-1.596
			V25.678z"/>
		<path fill="#00435B" d="M112.037,30.518c-0.036,1.865,0.735,3.245,2.582,3.245c1.094,0,1.972-0.574,2.115-1.865h1.686
			c-0.054,0.448-0.125,1.184-0.771,1.883c-0.395,0.448-1.291,1.201-3.103,1.201c-2.832,0-4.177-1.757-4.177-4.608
			c0-1.775,0.358-3.245,1.774-4.231c0.861-0.609,1.937-0.663,2.456-0.663c4.034,0,3.945,3.568,3.909,5.038H112.037z M116.788,29.335
			c0.019-0.86-0.144-2.653-2.223-2.653c-1.094,0-2.421,0.664-2.456,2.653H116.788z"/>
		<path fill="#00435B" d="M121.955,32.042c-0.018,0.681,0.341,1.631,1.973,1.631c0.699,0,1.219-0.125,1.577-0.574
			c0.18-0.233,0.287-0.538,0.287-0.842c0-0.879-0.628-1.04-1.973-1.345c-1.882-0.431-3.46-0.807-3.46-2.689
			c0-1.649,1.435-2.725,3.514-2.725c1.13,0,2.708,0.322,3.246,1.398c0.232,0.502,0.232,0.932,0.232,1.309h-1.721
			c0.054-1.363-1.13-1.47-1.739-1.47c-0.251,0-1.829,0-1.829,1.291c0,0.825,0.807,1.022,1.273,1.147
			c2.492,0.592,3.029,0.735,3.567,1.237c0.502,0.466,0.682,1.094,0.682,1.667c0,1.004-0.556,1.865-1.22,2.277
			c-0.788,0.484-1.738,0.609-2.671,0.609c-1.829,0-3.532-0.753-3.515-2.922H121.955z"/>
		<path fill="#00435B" d="M140.427,34.714c-0.126-0.448-0.162-0.878-0.162-1.345c-0.807,1.488-2.025,1.631-2.778,1.631
			c-2.063,0-3.174-1.165-3.174-2.653c0-0.717,0.251-1.865,1.578-2.636c0.968-0.538,2.402-0.591,3.119-0.591
			c0.431,0,0.699,0.018,1.22,0.054c0-1.112,0-1.596-0.323-1.99c-0.341-0.448-1.075-0.592-1.56-0.592
			c-1.703,0-1.793,1.166-1.811,1.524h-1.686c0.054-0.466,0.107-1.093,0.627-1.703c0.682-0.753,1.955-0.968,2.905-0.968
			c1.309,0,2.707,0.413,3.191,1.327c0.286,0.538,0.305,0.968,0.305,1.38l-0.072,4.303c0,0.144,0.019,1.345,0.144,2.259H140.427z
			 M139.261,30.285c-0.681,0-3.245,0-3.245,1.829c0,0.574,0.358,1.56,1.865,1.56c0.86,0,1.506-0.34,1.918-0.968
			c0.377-0.609,0.395-1.111,0.431-2.366C139.925,30.303,139.673,30.285,139.261,30.285z"/>
		<path fill="#00435B" d="M144.966,26.753l-0.019-1.04h1.686l0.018,1.452c0.197-0.376,0.843-1.631,2.887-1.631
			c0.808,0,3.264,0.305,3.264,3.066v6.114h-1.722v-5.719c0-0.592-0.071-1.13-0.483-1.542c-0.431-0.413-1.022-0.61-1.596-0.61
			c-1.22,0-2.35,0.879-2.35,2.689v5.182h-1.685V26.753z"/>
		<path fill="#00435B" d="M162.109,21.787h1.685V33.28c0,0.197,0.036,0.968,0.072,1.434h-1.686l-0.036-1.434
			c-0.143,0.251-0.34,0.627-0.807,0.95c-0.735,0.502-1.613,0.663-2.223,0.663c-1.201,0-3.873-0.627-3.873-4.572
			c0-3.424,1.954-4.913,4.07-4.913c1.936,0,2.581,1.147,2.797,1.524V21.787z M161.481,27.578c-0.358-0.466-1.021-0.915-1.972-0.915
			c-2.475,0-2.475,2.994-2.475,3.604c0,1.596,0.412,3.442,2.475,3.442c2.653,0,2.653-2.922,2.653-3.622
			C162.163,28.779,161.858,28.062,161.481,27.578z"/>
		<path fill="#00435B" d="M171.15,34.696V33.71h8.194v0.986H171.15z M179.326,27.954v1.022l-8.068,4.016v-1.147l7.028-3.353v-0.036
			l-7.028-3.371v-1.147L179.326,27.954z"/>
		<path fill="#00435B" d="M185.12,24.261c-0.771,0.646-2.008,1.38-2.886,1.793v-1.793c1.165-0.609,2.313-1.363,3.012-1.954h1.596
			v12.407h-1.722V24.261z"/>
		<path fill="#00435B" d="M196.887,27.542c0-0.61-0.035-1.237-0.089-1.829h1.703l0.035,1.739c0.323-1.255,1.399-1.667,2.152-1.775
			c0.502-0.072,0.878-0.054,1.165-0.036v1.649c-0.09-0.036-0.197-0.054-0.323-0.071c-0.125-0.018-0.286-0.018-0.483-0.018
			c-1.99,0-2.456,1.183-2.456,2.725v4.787h-1.704V27.542z"/>
		<path fill="#00435B" d="M203.612,21.805h2.026v1.847h-2.026V21.805z M203.792,25.713h1.686v9h-1.686V25.713z"/>
		<path fill="#00435B" d="M209.728,32.042c-0.018,0.681,0.341,1.631,1.973,1.631c0.699,0,1.219-0.125,1.577-0.574
			c0.18-0.233,0.287-0.538,0.287-0.842c0-0.879-0.628-1.04-1.973-1.345c-1.882-0.431-3.46-0.807-3.46-2.689
			c0-1.649,1.435-2.725,3.514-2.725c1.13,0,2.708,0.322,3.246,1.398c0.232,0.502,0.232,0.932,0.232,1.309h-1.721
			c0.054-1.363-1.13-1.47-1.739-1.47c-0.251,0-1.829,0-1.829,1.291c0,0.825,0.807,1.022,1.273,1.147
			c2.492,0.592,3.029,0.735,3.567,1.237c0.502,0.466,0.682,1.094,0.682,1.667c0,1.004-0.556,1.865-1.22,2.277
			c-0.788,0.484-1.738,0.609-2.671,0.609c-1.829,0-3.532-0.753-3.515-2.922H209.728z"/>
		<path fill="#00435B" d="M217.602,21.679h1.668v7.71l3.37-3.676h2.205l-3.801,3.819l4.034,5.182h-2.205l-3.604-4.859v4.859h-1.668
			V21.679z"/>
		<path fill="#00435B" d="M236.181,23.024c-0.287-0.018-0.646-0.036-0.986-0.036c-1.362,0-1.362,0.681-1.362,1.309v1.417h2.098
			v1.219h-2.098v7.781h-1.668v-7.781h-1.774v-1.219h1.774v-1.022c0-1.237,0.072-1.685,0.377-2.151
			c0.376-0.574,1.094-0.986,2.259-0.986c0.484,0,1.022,0.072,1.381,0.125V23.024z"/>
		<path fill="#00435B" d="M243.139,34.714c-0.126-0.448-0.162-0.878-0.162-1.345C242.17,34.857,240.951,35,240.198,35
			c-2.063,0-3.174-1.165-3.174-2.653c0-0.717,0.251-1.865,1.578-2.636c0.968-0.538,2.402-0.591,3.119-0.591
			c0.431,0,0.699,0.018,1.22,0.054c0-1.112,0-1.596-0.323-1.99c-0.341-0.448-1.075-0.592-1.56-0.592
			c-1.703,0-1.793,1.166-1.811,1.524h-1.686c0.054-0.466,0.107-1.093,0.627-1.703c0.682-0.753,1.955-0.968,2.905-0.968
			c1.309,0,2.707,0.413,3.191,1.327c0.286,0.538,0.305,0.968,0.305,1.38l-0.072,4.303c0,0.144,0.019,1.345,0.144,2.259H243.139z
			 M241.973,30.285c-0.681,0-3.245,0-3.245,1.829c0,0.574,0.358,1.56,1.865,1.56c0.86,0,1.506-0.34,1.918-0.968
			c0.377-0.609,0.395-1.111,0.431-2.366C242.637,30.303,242.386,30.285,241.973,30.285z"/>
		<path fill="#00435B" d="M252.751,28.6c-0.035-0.413-0.161-1.883-1.793-1.883c-2.33,0-2.33,2.708-2.33,3.389
			c0,1.847,0.448,3.568,2.241,3.568c1.434,0,1.918-1.076,1.954-1.954h1.703c-0.107,1.757-1.416,3.227-3.64,3.227
			c-0.609,0-2.008-0.125-2.958-1.165c-0.538-0.628-1.076-1.578-1.076-3.442c0-3.748,2.295-4.859,4.088-4.859
			c0.592,0,1.937,0.125,2.761,1.111c0.664,0.771,0.718,1.506,0.754,2.008H252.751z"/>
		<path fill="#00435B" d="M255.211,25.678h1.596v-1.883l1.667-0.538v2.42h2.009v1.237h-2.009v5.397c0,0.448,0,1.201,1.201,1.201
			c0.341,0,0.664-0.054,0.808-0.09v1.309c-0.306,0.054-0.789,0.107-1.398,0.107c-1.542,0-2.277-0.448-2.277-1.918v-6.006h-1.596
			V25.678z"/>
		<path fill="#00435B" d="M266.473,25.48c3.604,0,4.41,2.833,4.41,4.715c0,2.636-1.487,4.823-4.554,4.823
			c-2.977,0-4.429-2.062-4.429-4.697C261.9,28.098,262.94,25.48,266.473,25.48z M266.365,33.764c1.272,0,2.725-0.915,2.725-3.622
			c0-2.241-1.039-3.425-2.617-3.425c-1.076,0-2.814,0.682-2.814,3.497C263.658,32.06,264.446,33.764,266.365,33.764z"/>
		<path fill="#00435B" d="M273.611,27.542c0-0.61-0.035-1.237-0.089-1.829h1.703l0.035,1.739c0.323-1.255,1.399-1.667,2.152-1.775
			c0.502-0.072,0.878-0.054,1.165-0.036v1.649c-0.09-0.036-0.197-0.054-0.323-0.071c-0.125-0.018-0.286-0.018-0.483-0.018
			c-1.99,0-2.456,1.183-2.456,2.725v4.787h-1.704V27.542z"/>
		<path fill="#00435B" d="M290.611,28.6c-0.035-0.413-0.161-1.883-1.793-1.883c-2.33,0-2.33,2.708-2.33,3.389
			c0,1.847,0.448,3.568,2.241,3.568c1.434,0,1.918-1.076,1.954-1.954h1.703c-0.107,1.757-1.416,3.227-3.64,3.227
			c-0.609,0-2.008-0.125-2.958-1.165c-0.538-0.628-1.076-1.578-1.076-3.442c0-3.748,2.295-4.859,4.088-4.859
			c0.592,0,1.937,0.125,2.761,1.111c0.664,0.771,0.718,1.506,0.754,2.008H290.611z"/>
		<path fill="#00435B" d="M298.36,25.48c3.604,0,4.41,2.833,4.41,4.715c0,2.636-1.487,4.823-4.554,4.823
			c-2.977,0-4.429-2.062-4.429-4.697C293.788,28.098,294.828,25.48,298.36,25.48z M298.253,33.764c1.272,0,2.725-0.915,2.725-3.622
			c0-2.241-1.039-3.425-2.617-3.425c-1.076,0-2.814,0.682-2.814,3.497C295.546,32.06,296.334,33.764,298.253,33.764z"/>
		<path fill="#00435B" d="M305.392,26.914l-0.035-1.201h1.703v1.309c0.86-1.417,2.079-1.542,2.851-1.542
			c1.99,0,2.617,1.022,2.94,1.685c0.305-0.502,1.04-1.685,3.029-1.685c1.291,0,3.3,0.538,3.3,3.191v6.042h-1.704v-5.773
			c0-0.789-0.143-1.13-0.305-1.363c-0.286-0.413-0.86-0.789-1.721-0.789c-1.094,0-1.686,0.627-1.919,0.95
			c-0.394,0.556-0.394,1.542-0.394,1.937v5.038h-1.704v-5.953c0-1.111-0.646-1.972-1.972-1.972c-1.147,0-1.775,0.717-1.973,0.986
			c-0.376,0.52-0.395,1.255-0.395,1.829v5.11h-1.703V26.914z"/>
		<path fill="#00435B" d="M322.286,27.184c0-0.395-0.019-0.609-0.055-1.47h1.704l0.035,1.488c0.843-1.417,2.331-1.632,3.066-1.632
			c1.937,0,3.783,1.327,3.783,4.662c0,3.353-1.955,4.823-4.106,4.823c-1.309,0-2.276-0.556-2.761-1.345v4.464h-1.667V27.184z
			 M326.428,33.817c0.43,0,1.326-0.09,1.9-0.878c0.646-0.878,0.734-2.169,0.734-2.815c0-1.614-0.483-3.299-2.474-3.299
			c-2.689,0-2.689,2.851-2.689,3.657C323.899,31.576,324.061,33.817,326.428,33.817z"/>
		<path fill="#00435B" d="M338.784,34.714c-0.126-0.448-0.162-0.878-0.162-1.345c-0.807,1.488-2.025,1.631-2.778,1.631
			c-2.063,0-3.174-1.165-3.174-2.653c0-0.717,0.251-1.865,1.578-2.636c0.968-0.538,2.402-0.591,3.119-0.591
			c0.431,0,0.699,0.018,1.22,0.054c0-1.112,0-1.596-0.323-1.99c-0.341-0.448-1.075-0.592-1.56-0.592
			c-1.703,0-1.793,1.166-1.811,1.524h-1.686c0.054-0.466,0.107-1.093,0.627-1.703c0.682-0.753,1.955-0.968,2.905-0.968
			c1.309,0,2.707,0.413,3.191,1.327c0.286,0.538,0.305,0.968,0.305,1.38l-0.072,4.303c0,0.144,0.019,1.345,0.144,2.259H338.784z
			 M337.618,30.285c-0.681,0-3.245,0-3.245,1.829c0,0.574,0.358,1.56,1.865,1.56c0.86,0,1.506-0.34,1.918-0.968
			c0.377-0.609,0.395-1.111,0.431-2.366C338.282,30.303,338.03,30.285,337.618,30.285z"/>
		<path fill="#00435B" d="M343.358,27.542c0-0.61-0.035-1.237-0.089-1.829h1.703l0.035,1.739c0.323-1.255,1.399-1.667,2.152-1.775
			c0.502-0.072,0.878-0.054,1.165-0.036v1.649c-0.09-0.036-0.197-0.054-0.322-0.071c-0.126-0.018-0.287-0.018-0.484-0.018
			c-1.99,0-2.456,1.183-2.456,2.725v4.787h-1.704V27.542z"/>
		<path fill="#00435B" d="M351.268,30.518c-0.036,1.865,0.735,3.245,2.582,3.245c1.094,0,1.972-0.574,2.115-1.865h1.686
			c-0.054,0.448-0.125,1.184-0.771,1.883c-0.395,0.448-1.291,1.201-3.103,1.201c-2.832,0-4.177-1.757-4.177-4.608
			c0-1.775,0.358-3.245,1.774-4.231c0.861-0.609,1.937-0.663,2.456-0.663c4.034,0,3.945,3.568,3.909,5.038H351.268z M356.019,29.335
			c0.019-0.86-0.144-2.653-2.223-2.653c-1.094,0-2.421,0.664-2.456,2.653H356.019z"/>
		<path fill="#00435B" d="M366.457,21.787h1.685V33.28c0,0.197,0.036,0.968,0.072,1.434h-1.686l-0.036-1.434
			c-0.143,0.251-0.34,0.627-0.807,0.95c-0.735,0.502-1.613,0.663-2.223,0.663c-1.201,0-3.873-0.627-3.873-4.572
			c0-3.424,1.954-4.913,4.07-4.913c1.936,0,2.581,1.147,2.797,1.524V21.787z M365.829,27.578c-0.358-0.466-1.021-0.915-1.972-0.915
			c-2.475,0-2.475,2.994-2.475,3.604c0,1.596,0.412,3.442,2.475,3.442c2.653,0,2.653-2.922,2.653-3.622
			C366.511,28.779,366.206,28.062,365.829,27.578z"/>
		<path fill="#00435B" d="M376.646,25.713l2.17,7.172l2.276-7.172h2.206l2.044,7.1l2.259-7.1h1.739l-3.174,9h-1.937l-2.115-7.405
			l-2.349,7.405h-1.99l-2.977-9H376.646z"/>
		<path fill="#00435B" d="M390.939,21.805h2.026v1.847h-2.026V21.805z M391.119,25.713h1.686v9h-1.686V25.713z"/>
		<path fill="#00435B" d="M394.707,25.678h1.596v-1.883l1.667-0.538v2.42h2.009v1.237h-2.009v5.397c0,0.448,0,1.201,1.201,1.201
			c0.341,0,0.664-0.054,0.808-0.09v1.309c-0.306,0.054-0.789,0.107-1.398,0.107c-1.542,0-2.277-0.448-2.277-1.918v-6.006h-1.596
			V25.678z"/>
		<path fill="#00435B" d="M402.06,21.787h1.703v5.253c0.556-0.95,1.667-1.488,2.922-1.488c0.95,0,2.313,0.34,2.833,1.434
			c0.18,0.359,0.305,0.789,0.305,2.098v5.63h-1.721v-5.325c0-0.807,0-2.546-1.937-2.546c-1.255,0-1.883,0.771-2.115,1.202
			c-0.287,0.502-0.287,1.345-0.287,1.9v4.769h-1.703V21.787z"/>
		<path fill="#00435B" d="M417.95,27.184c0-0.395-0.019-0.609-0.055-1.47h1.704l0.035,1.488c0.843-1.417,2.331-1.632,3.066-1.632
			c1.937,0,3.783,1.327,3.783,4.662c0,3.353-1.955,4.823-4.106,4.823c-1.309,0-2.276-0.556-2.761-1.345v4.464h-1.667V27.184z
			 M422.092,33.817c0.43,0,1.326-0.09,1.9-0.878c0.646-0.878,0.734-2.169,0.734-2.815c0-1.614-0.483-3.299-2.474-3.299
			c-2.689,0-2.689,2.851-2.689,3.657C419.563,31.576,419.725,33.817,422.092,33.817z"/>
		<path fill="#00435B" d="M428.997,21.787h1.686v12.927h-1.686V21.787z"/>
		<path fill="#00435B" d="M439.434,34.714c-0.126-0.448-0.162-0.878-0.162-1.345c-0.807,1.488-2.025,1.631-2.778,1.631
			c-2.063,0-3.174-1.165-3.174-2.653c0-0.717,0.251-1.865,1.578-2.636c0.968-0.538,2.402-0.591,3.119-0.591
			c0.431,0,0.699,0.018,1.22,0.054c0-1.112,0-1.596-0.323-1.99c-0.341-0.448-1.075-0.592-1.56-0.592
			c-1.703,0-1.793,1.166-1.811,1.524h-1.686c0.054-0.466,0.107-1.093,0.627-1.703c0.682-0.753,1.955-0.968,2.905-0.968
			c1.309,0,2.707,0.413,3.191,1.327c0.286,0.538,0.305,0.968,0.305,1.38l-0.072,4.303c0,0.144,0.019,1.345,0.144,2.259H439.434z
			 M438.268,30.285c-0.681,0-3.245,0-3.245,1.829c0,0.574,0.358,1.56,1.865,1.56c0.86,0,1.506-0.34,1.918-0.968
			c0.377-0.609,0.395-1.111,0.431-2.366C438.932,30.303,438.681,30.285,438.268,30.285z"/>
		<path fill="#00435B" d="M449.046,28.6c-0.035-0.413-0.161-1.883-1.793-1.883c-2.33,0-2.33,2.708-2.33,3.389
			c0,1.847,0.448,3.568,2.241,3.568c1.434,0,1.918-1.076,1.954-1.954h1.703c-0.107,1.757-1.416,3.227-3.64,3.227
			c-0.609,0-2.008-0.125-2.958-1.165c-0.538-0.628-1.076-1.578-1.076-3.442c0-3.748,2.295-4.859,4.088-4.859
			c0.592,0,1.937,0.125,2.761,1.111c0.664,0.771,0.718,1.506,0.754,2.008H449.046z"/>
		<path fill="#00435B" d="M453.908,30.518c-0.036,1.865,0.735,3.245,2.582,3.245c1.094,0,1.972-0.574,2.115-1.865h1.686
			c-0.054,0.448-0.125,1.184-0.771,1.883c-0.395,0.448-1.291,1.201-3.103,1.201c-2.832,0-4.177-1.757-4.177-4.608
			c0-1.775,0.358-3.245,1.774-4.231c0.861-0.609,1.937-0.663,2.456-0.663c4.034,0,3.945,3.568,3.909,5.038H453.908z M458.659,29.335
			c0.019-0.86-0.144-2.653-2.223-2.653c-1.094,0-2.421,0.664-2.456,2.653H458.659z"/>
		<path fill="#00435B" d="M464.543,27.022c0.233-0.413,0.896-1.542,2.94-1.542c0.896,0,2.026,0.215,2.851,1.147
			c0.448,0.52,1.059,1.417,1.059,3.389c0,1.739-0.413,2.689-0.861,3.281c-0.717,1.022-1.918,1.542-3.155,1.542
			c-0.43,0-1.237-0.054-2.008-0.574c-0.502-0.341-0.699-0.646-0.879-0.915l-0.035,1.363h-1.632l0.036-1.614V21.769h1.685V27.022z
			 M467.089,26.628c-2.581,0-2.581,3.012-2.581,3.586c0,0.591,0,3.406,2.51,3.406c2.08,0,2.6-2.026,2.6-3.496
			C469.617,29.227,469.438,26.628,467.089,26.628z"/>
		<path fill="#00435B" d="M477.725,25.48c3.604,0,4.41,2.833,4.41,4.715c0,2.636-1.487,4.823-4.554,4.823
			c-2.977,0-4.429-2.062-4.429-4.697C473.152,28.098,474.192,25.48,477.725,25.48z M477.617,33.764c1.272,0,2.725-0.915,2.725-3.622
			c0-2.241-1.039-3.425-2.617-3.425c-1.076,0-2.814,0.682-2.814,3.497C474.91,32.06,475.698,33.764,477.617,33.764z"/>
		<path fill="#00435B" d="M486.029,22.648c-0.45,0.376-1.171,0.805-1.684,1.045v-1.045c0.68-0.355,1.349-0.794,1.756-1.139h0.931
			v7.233h-1.003V22.648z"/>
	</g>
</g>
</svg>
