<?xml version="1.0" encoding="utf-8"?>
<!-- Generator: Adobe Illustrator 17.0.0, SVG Export Plug-In . SVG Version: 6.00 Build 0)  -->
<!DOCTYPE svg PUBLIC "-//W3C//DTD SVG 1.1//EN" "http://www.w3.org/Graphics/SVG/1.1/DTD/svg11.dtd">
<svg version="1.1" id="Layer_1" xmlns="http://www.w3.org/2000/svg" xmlns:xlink="http://www.w3.org/1999/xlink" x="0px" y="0px"
	 width="286.777px" height="27.739px" viewBox="0 0 286.777 27.739" enable-background="new 0 0 286.777 27.739"
	 xml:space="preserve">
<g>
	<g>
		<defs>
			<path id="SVGID_17_" d="M8.95,0C4.006,0,0,4.008,0,8.95v9.84c0,4.941,4.006,8.95,8.95,8.95h268.879
				c4.937,0,8.948-4.009,8.948-8.95V8.95c0-4.942-4.011-8.95-8.948-8.95H8.95z"/>
		</defs>
		<clipPath id="SVGID_2_">
			<use xlink:href="#SVGID_17_"  overflow="visible"/>
		</clipPath>
		
			<linearGradient id="SVGID_4_" gradientUnits="userSpaceOnUse" x1="-2492.353" y1="458.3847" x2="-2490.7441" y2="458.3847" gradientTransform="matrix(0 -17.2412 -17.2412 0 8046.4902 -42943.418)">
			<stop  offset="0" style="stop-color:#404041"/>
			<stop  offset="0.0139" style="stop-color:#444445"/>
			<stop  offset="0.1522" style="stop-color:#68696A"/>
			<stop  offset="0.2969" style="stop-color:#868889"/>
			<stop  offset="0.4479" style="stop-color:#9E9FA1"/>
			<stop  offset="0.6078" style="stop-color:#AEB0B2"/>
			<stop  offset="0.7825" style="stop-color:#B8BABC"/>
			<stop  offset="1" style="stop-color:#BBBDBF"/>
		</linearGradient>
		<rect x="0" y="0" clip-path="url(#SVGID_2_)" fill="url(#SVGID_4_)" width="286.777" height="27.739"/>
	</g>
	<g>
		<defs>
			<path id="SVGID_20_" d="M8.764,2.535c-3.533,0-6.408,2.876-6.408,6.407v9.831c0,3.531,2.875,6.405,6.408,6.405h268.642
				c3.53,0,6.407-2.874,6.407-6.405V8.942c0-3.532-2.877-6.407-6.407-6.407H8.764z"/>
		</defs>
		<clipPath id="SVGID_6_">
			<use xlink:href="#SVGID_20_"  overflow="visible"/>
		</clipPath>
		
			<linearGradient id="SVGID_8_" gradientUnits="userSpaceOnUse" x1="-2494.3154" y1="444.3307" x2="-2492.708" y2="444.3307" gradientTransform="matrix(0 -14.0864 -14.0864 0 6402.104 -35110.7461)">
			<stop  offset="0" style="stop-color:#FFFFFF"/>
			<stop  offset="0.2973" style="stop-color:#F8F8F8"/>
			<stop  offset="0.7441" style="stop-color:#E6E5E3"/>
			<stop  offset="1" style="stop-color:#D8D7D4"/>
		</linearGradient>
		<rect x="2.356" y="2.535" clip-path="url(#SVGID_6_)" fill="url(#SVGID_8_)" width="281.457" height="22.643"/>
	</g>
	<g>
		<defs>
			<rect id="SVGID_23_" x="0" y="0" width="286.776" height="27.739"/>
		</defs>
		<clipPath id="SVGID_10_">
			<use xlink:href="#SVGID_23_"  overflow="visible"/>
		</clipPath>
		<g opacity="0.5" clip-path="url(#SVGID_10_)">
			<g>
				<defs>
					<rect id="SVGID_25_" x="2.534" y="2.539" width="281.702" height="22.662"/>
				</defs>
				<clipPath id="SVGID_12_">
					<use xlink:href="#SVGID_25_"  overflow="visible"/>
				</clipPath>
				<g clip-path="url(#SVGID_12_)">
					<defs>
						<path id="SVGID_27_" d="M8.818,2.539C5.343,2.609,2.536,5.459,2.536,8.95v9.836c0,3.538,2.878,6.414,6.414,6.414h268.879
							c3.533,0,6.413-2.877,6.413-6.414V8.95c0-3.491-2.807-6.34-6.282-6.411H8.818z"/>
					</defs>
					<clipPath id="SVGID_14_">
						<use xlink:href="#SVGID_27_"  overflow="visible"/>
					</clipPath>
					
						<linearGradient id="SVGID_16_" gradientUnits="userSpaceOnUse" x1="-2494.3169" y1="444.3091" x2="-2492.7083" y2="444.3091" gradientTransform="matrix(0 -14.0864 -14.0864 0 6402.104 -35110.7461)">
						<stop  offset="0" style="stop-color:#59595C"/>
						<stop  offset="0.005" style="stop-color:#5C5C5F"/>
						<stop  offset="0.066" style="stop-color:#838385"/>
						<stop  offset="0.1322" style="stop-color:#A4A4A5"/>
						<stop  offset="0.2061" style="stop-color:#C0C0C1"/>
						<stop  offset="0.2882" style="stop-color:#D7D7D8"/>
						<stop  offset="0.3822" style="stop-color:#E9E9EA"/>
						<stop  offset="0.4954" style="stop-color:#F6F6F6"/>
						<stop  offset="0.6471" style="stop-color:#FDFDFD"/>
						<stop  offset="1" style="stop-color:#FFFFFF"/>
					</linearGradient>
					<rect x="2.535" y="2.539" clip-path="url(#SVGID_14_)" fill="url(#SVGID_16_)" width="281.705" height="22.662"/>
				</g>
			</g>
		</g>
	</g>
	<g>
		<path fill="#231F20" d="M36.378,17.341h-1.627V4.573h1.627V17.341z"/>
		<path fill="#231F20" d="M44.142,17.341v-6.19c0-0.955-0.336-1.733-1.574-1.733c-1.592,0-1.821,1.415-1.821,2.635v5.288h-1.45
			v-7.074c0-0.619-0.036-1.238-0.089-1.857h1.539V9.56h0.07c0.566-1.008,1.238-1.327,2.388-1.327c1.91,0,2.388,1.15,2.388,2.918
			v6.19H44.142z"/>
		<path fill="#231F20" d="M52.805,11.276c0.035-1.468-0.689-1.857-1.238-1.857c-1.114,0-1.874,0.531-1.874,2.971
			c0,2.9,0.371,3.944,1.874,3.944c0.336,0,1.345-0.354,1.291-1.963h1.521c0.053,2.511-1.822,3.148-2.813,3.148
			c-1.892,0-3.396-0.566-3.396-4.51c0-2.617,0.301-4.775,3.396-4.775c1.786,0,2.83,1.043,2.741,3.042H52.805z"/>
		<path fill="#231F20" d="M56.852,4.573h1.627v1.556h-1.627V4.573z M58.392,17.341h-1.45V8.411h1.45V17.341z"/>
		<path fill="#231F20" d="M65.623,4.573h1.45v12.769h-1.45V16.28h-0.035c-0.495,0.831-1.114,1.238-2.052,1.238
			c-1.432,0-2.882-0.566-2.882-4.492c0-2.229,0.07-4.793,2.953-4.793c0.849,0,1.468,0.372,1.963,1.079h0.053V4.573z M63.943,9.419
			c-1.557,0-1.769,1.238-1.769,3.625c0,1.344,0,3.29,1.821,3.29c1.627,0,1.627-2.016,1.627-3.82
			C65.623,11.329,65.553,9.419,63.943,9.419z"/>
		<path fill="#231F20" d="M71.157,13.345c0,2.493,0.672,2.989,1.804,2.989c0.99,0,1.503-0.796,1.557-1.698h1.592
			c-0.019,1.98-1.238,2.882-3.113,2.882c-1.892,0-3.396-0.566-3.396-4.51c0-2.617,0.301-4.775,3.396-4.775
			c2.547,0,3.184,1.397,3.184,4.351v0.761H71.157z M74.641,12.248c0-2.6-0.725-2.918-1.786-2.918c-0.919,0-1.68,0.442-1.697,2.918
			H74.641z"/>
		<path fill="#231F20" d="M83.429,17.341v-6.19c0-0.955-0.336-1.733-1.574-1.733c-1.591,0-1.821,1.415-1.821,2.635v5.288h-1.45
			v-7.074c0-0.619-0.035-1.238-0.088-1.857h1.538V9.56h0.071c0.565-1.008,1.237-1.327,2.387-1.327c1.91,0,2.388,1.15,2.388,2.918
			v6.19H83.429z"/>
		<path fill="#231F20" d="M92.093,11.276c0.035-1.468-0.69-1.857-1.238-1.857c-1.114,0-1.875,0.531-1.875,2.971
			c0,2.9,0.372,3.944,1.875,3.944c0.336,0,1.344-0.354,1.291-1.963h1.521c0.054,2.511-1.821,3.148-2.812,3.148
			c-1.893,0-3.396-0.566-3.396-4.51c0-2.617,0.301-4.775,3.396-4.775c1.786,0,2.829,1.043,2.741,3.042H92.093z"/>
		<path fill="#231F20" d="M97.679,13.345c0,2.493,0.673,2.989,1.805,2.989c0.99,0,1.503-0.796,1.556-1.698h1.592
			c-0.018,1.98-1.238,2.882-3.112,2.882c-1.893,0-3.396-0.566-3.396-4.51c0-2.617,0.301-4.775,3.396-4.775
			c2.547,0,3.183,1.397,3.183,4.351v0.761H97.679z M101.163,12.248c0-2.6-0.726-2.918-1.786-2.918c-0.92,0-1.681,0.442-1.698,2.918
			H101.163z"/>
		<path fill="#231F20" d="M108.782,13.008c0-2.617,0.301-4.775,3.396-4.775s3.396,2.158,3.396,4.775c0,3.944-1.503,4.51-3.396,4.51
			S108.782,16.952,108.782,13.008z M114.053,12.39c0-2.44-0.761-2.971-1.875-2.971s-1.874,0.531-1.874,2.971
			c0,2.9,0.371,3.944,1.874,3.944S114.053,15.29,114.053,12.39z"/>
		<path fill="#231F20" d="M118.136,8.411V6.677c0-1.804,1.273-2.158,2.564-2.158c0.301,0,0.478,0.018,0.689,0.053v1.043
			c-1.538-0.106-1.804,0.548-1.804,1.273v1.521h1.804v1.096h-1.804v7.834h-1.45V9.507h-1.379V8.411H118.136z"/>
		<path fill="#231F20" d="M131.097,17.341v-6.19c0-0.902-0.247-1.733-1.414-1.733c-0.442,0-1.044,0.265-1.256,0.601
			c-0.266,0.442-0.336,0.973-0.336,1.309v6.013h-1.45v-7.074c0-0.619-0.036-1.238-0.089-1.857h1.539v1.114h0.035
			c0.425-0.955,1.185-1.291,2.229-1.291c0.813,0,1.75,0.336,2.087,1.15c0.495-0.955,1.309-1.15,2.122-1.15
			c0.937,0,2.44,0.212,2.44,2.317v6.791h-1.45v-6.19c0-0.902-0.248-1.733-1.415-1.733c-0.548,0-0.707,0.018-1.097,0.336
			c-0.424,0.354-0.495,1.238-0.495,1.574v6.013H131.097z"/>
		<path fill="#231F20" d="M144.075,16.05h-0.036c-0.441,1.026-1.132,1.468-2.246,1.468c-1.892,0-2.44-1.22-2.44-2.936
			c0-2.706,2.653-2.83,4.687-2.776c0.036-1.185,0.054-2.476-1.503-2.476c-0.973,0-1.485,0.654-1.397,1.592h-1.573
			c0.07-1.999,1.132-2.688,3.023-2.688c2.3,0,2.9,1.185,2.9,2.688v4.297c0,0.708,0.071,1.432,0.177,2.122h-1.591V16.05z
			 M140.803,14.689c0,0.867,0.425,1.645,1.397,1.645c0.884,0,1.98-0.548,1.839-3.431C142.66,12.92,140.803,12.797,140.803,14.689z"
			/>
		<path fill="#231F20" d="M148.281,8.411h1.45v10.168c0,1.415-0.406,2.14-2.528,2.14v-1.238c0.619,0,1.078-0.088,1.078-0.831V8.411z
			 M148.193,4.573h1.627v1.556h-1.627V4.573z"/>
		<path fill="#231F20" d="M151.995,13.008c0-2.617,0.3-4.775,3.396-4.775c3.095,0,3.396,2.158,3.396,4.775
			c0,3.944-1.504,4.51-3.396,4.51C153.498,17.518,151.995,16.952,151.995,13.008z M157.265,12.39c0-2.44-0.761-2.971-1.874-2.971
			c-1.114,0-1.875,0.531-1.875,2.971c0,2.9,0.371,3.944,1.875,3.944C156.893,16.334,157.265,15.29,157.265,12.39z"/>
		<path fill="#231F20" d="M162.586,9.755h0.035c0.602-1.362,1.344-1.521,2.759-1.521v1.503c-0.124-0.018-0.265-0.036-0.389-0.053
			s-0.248-0.035-0.39-0.035c-1.609,0-2.016,1.22-2.016,2.423v5.27h-1.45V8.411h1.45V9.755z"/>
		<path fill="#231F20" d="M176.679,8.092c0.018-0.725-0.035-1.45-0.371-1.857s-1.097-0.548-1.433-0.548
			c-1.345,0-1.875,0.813-1.928,0.99c-0.054,0.142-0.371,0.46-0.371,2.653v3.413c0,3.13,1.025,3.501,2.281,3.501
			c0.495,0,1.998-0.177,2.016-2.67h1.68c0.071,4.032-2.776,4.032-3.607,4.032c-1.592,0-4.032-0.106-4.032-5.058V8.941
			c0-3.608,1.592-4.633,4.104-4.633c2.528,0,3.501,1.309,3.342,3.785H176.679z"/>
		<path fill="#231F20" d="M185.324,17.341h-1.945l-3.696-12.769h1.769l2.918,11.23h0.035l2.989-11.23h1.662L185.324,17.341z"/>
		<path fill="#231F20" d="M195.896,13.345c0,2.493,0.673,2.989,1.805,2.989c0.99,0,1.503-0.796,1.556-1.698h1.592
			c-0.018,1.98-1.238,2.882-3.112,2.882c-1.893,0-3.396-0.566-3.396-4.51c0-2.617,0.301-4.775,3.396-4.775
			c2.547,0,3.183,1.397,3.183,4.351v0.761H195.896z M199.381,12.248c0-2.6-0.726-2.918-1.786-2.918c-0.92,0-1.681,0.442-1.698,2.918
			H199.381z"/>
		<path fill="#231F20" d="M202.297,8.411h1.627l1.999,7.569h0.035l2.157-7.569h1.521l-2.795,8.931h-1.892L202.297,8.411z"/>
		<path fill="#231F20" d="M212.588,13.345c0,2.493,0.672,2.989,1.804,2.989c0.99,0,1.503-0.796,1.557-1.698h1.592
			c-0.019,1.98-1.238,2.882-3.113,2.882c-1.892,0-3.396-0.566-3.396-4.51c0-2.617,0.301-4.775,3.396-4.775
			c2.547,0,3.184,1.397,3.184,4.351v0.761H212.588z M216.071,12.248c0-2.6-0.725-2.918-1.786-2.918c-0.919,0-1.68,0.442-1.697,2.918
			H216.071z"/>
		<path fill="#231F20" d="M224.859,17.341v-6.19c0-0.955-0.336-1.733-1.574-1.733c-1.591,0-1.821,1.415-1.821,2.635v5.288h-1.45
			v-7.074c0-0.619-0.035-1.238-0.088-1.857h1.538V9.56h0.071c0.565-1.008,1.237-1.327,2.387-1.327c1.91,0,2.388,1.15,2.388,2.918
			v6.19H224.859z"/>
		<path fill="#231F20" d="M229.014,8.411V6.695l1.45-0.654v2.37h1.945v1.096h-1.945v5.465c0,0.566,0,1.291,1.326,1.291
			c0.105,0,0.336-0.036,0.654-0.071v1.114c-0.478,0.035-0.955,0.141-1.433,0.141c-1.38,0-1.998-0.566-1.998-1.591V9.507h-1.468
			V8.411H229.014z"/>
		<path fill="#231F20" d="M236.404,17.518c-1.927,0-3.13-0.849-3.077-2.9h1.646c0,0.513,0.018,1.716,1.485,1.716
			c0.866,0,1.538-0.442,1.538-1.362c0-1.592-4.456-1.627-4.456-4.297c0-0.938,0.565-2.441,3.077-2.441
			c1.592,0,2.953,0.761,2.829,2.529h-1.609c0.018-0.938-0.478-1.433-1.396-1.433c-0.778,0-1.38,0.424-1.38,1.203
			c0,1.574,4.457,1.539,4.457,4.262C239.518,16.758,238.173,17.518,236.404,17.518z"/>
	</g>
	<g>
		<path fill="#231F20" d="M244.872,6.237l1.609,2.299l-1.025,0.566l-1.185-2.547l-1.186,2.547l-1.025-0.566l1.609-2.299
			l-2.759,0.265V5.335l2.759,0.212l-1.592-2.246l1.043-0.601l1.15,2.511l1.149-2.511l1.043,0.601l-1.592,2.246l2.759-0.212v1.167
			L244.872,6.237z"/>
	</g>
</g>
</svg>
