<?xml version="1.0" encoding="utf-8"?>
<!-- Generator: Adobe Illustrator 17.0.0, SVG Export Plug-In . SVG Version: 6.00 Build 0)  -->
<!DOCTYPE svg PUBLIC "-//W3C//DTD SVG 1.1//EN" "http://www.w3.org/Graphics/SVG/1.1/DTD/svg11.dtd">
<svg version="1.1" id="Layer_1" xmlns="http://www.w3.org/2000/svg" xmlns:xlink="http://www.w3.org/1999/xlink" x="0px" y="0px"
	 width="540.817px" height="385.661px" viewBox="0 0 540.817 385.661" enable-background="new 0 0 540.817 385.661"
	 xml:space="preserve">
<g>
	<g>
		
			<radialGradient id="SVGID_2_" cx="323.6728" cy="127.3266" r="196.5396" gradientTransform="matrix(1.2296 0 0 1.0794 -127.5795 46.0382)" gradientUnits="userSpaceOnUse">
			<stop  offset="0" style="stop-color:#A0D4E4;stop-opacity:0"/>
			<stop  offset="0.0392" style="stop-color:#9DD2E5;stop-opacity:0.197"/>
			<stop  offset="0.0707" style="stop-color:#93CDE6;stop-opacity:0.3552"/>
			<stop  offset="0.0995" style="stop-color:#82C4E9;stop-opacity:0.5"/>
			<stop  offset="0.1267" style="stop-color:#6AB8ED;stop-opacity:0.6367"/>
			<stop  offset="0.1528" style="stop-color:#4BA8F2;stop-opacity:0.7679"/>
			<stop  offset="0.1777" style="stop-color:#2694F9;stop-opacity:0.893"/>
			<stop  offset="0.199" style="stop-color:#0080FF"/>
			<stop  offset="0.2012" style="stop-color:#007FFC"/>
			<stop  offset="0.2379" style="stop-color:#006CD3"/>
			<stop  offset="0.2776" style="stop-color:#015BAF"/>
			<stop  offset="0.3223" style="stop-color:#014D8F"/>
			<stop  offset="0.3717" style="stop-color:#014073"/>
			<stop  offset="0.4275" style="stop-color:#02365D"/>
			<stop  offset="0.4927" style="stop-color:#022E4C"/>
			<stop  offset="0.5733" style="stop-color:#022941"/>
			<stop  offset="0.6863" style="stop-color:#02263A"/>
			<stop  offset="1" style="stop-color:#022538"/>
		</radialGradient>
		<path fill="url(#SVGID_2_)" d="M540.817,322.86c0,15.181-14.019,27.488-31.313,27.488c0,0-187.939,16.812-250.822,16.599
			c-57.038-0.194-227.368-16.599-227.368-16.599C14.019,350.348,0,338.041,0,322.86V40.854c0-15.181,14.019-27.488,31.313-27.488
			C31.313,13.366,201.84,0,258.682,0c62.706,0,250.822,13.366,250.822,13.366c17.294,0,31.313,12.307,31.313,27.488V322.86z"/>
		<g>
			
				<radialGradient id="SVGID_4_" cx="323.6728" cy="127.3266" r="192.3288" gradientTransform="matrix(1.2296 0 0 1.0794 -127.5795 46.0382)" gradientUnits="userSpaceOnUse">
				<stop  offset="0" style="stop-color:#FFFFFF"/>
				<stop  offset="1" style="stop-color:#F7F7F7"/>
			</radialGradient>
			<path fill="url(#SVGID_4_)" d="M535.024,319.874c0,14.856-13.719,26.899-30.642,26.899c0,0-183.912,16.452-245.448,16.243
				c-55.816-0.189-222.497-16.243-222.497-16.243c-16.923,0-30.643-12.043-30.643-26.899V43.91
				c0-14.856,13.719-26.899,30.643-26.899c0,0,166.873-13.08,222.497-13.08c61.362,0,245.448,13.08,245.448,13.08
				c16.923,0,30.642,12.043,30.642,26.899V319.874z"/>
		</g>
	</g>
	<g>
		<defs>
			<rect id="SVGID_64_" x="14.04" y="40.134" width="515.408" height="277.379"/>
		</defs>
		<clipPath id="SVGID_6_">
			<use xlink:href="#SVGID_64_"  overflow="visible"/>
		</clipPath>
		<g opacity="0.9" clip-path="url(#SVGID_6_)">
			<g>
				<defs>
					<rect id="SVGID_66_" x="14.044" y="40.134" width="515.409" height="277.38"/>
				</defs>
				<clipPath id="SVGID_8_">
					<use xlink:href="#SVGID_66_"  overflow="visible"/>
				</clipPath>
				<g clip-path="url(#SVGID_8_)">
					<defs>
						<rect id="SVGID_68_" x="14.04" y="40.134" width="515.408" height="277.38"/>
					</defs>
					<clipPath id="SVGID_10_">
						<use xlink:href="#SVGID_68_"  overflow="visible"/>
					</clipPath>
				</g>
			</g>
		</g>
	</g>
	
		<line fill="none" stroke="#004051" stroke-width="2.3777" stroke-miterlimit="10" x1="79.638" y1="58.488" x2="79.638" y2="278.792"/>
	
		<line fill="none" stroke="#004051" stroke-width="2.3777" stroke-miterlimit="10" x1="72.381" y1="270.754" x2="400.342" y2="270.754"/>
	
		<line fill="none" stroke="#004051" stroke-width="2.3777" stroke-miterlimit="10" x1="71.473" y1="57.892" x2="80.546" y2="57.892"/>
	
		<line fill="none" stroke="#004051" stroke-width="2.3777" stroke-miterlimit="10" x1="71.473" y1="129.17" x2="80.546" y2="129.17"/>
	<path fill="#FFFFFF" d="M71.471,201.389h9.073H71.471z"/>
	
		<line fill="none" stroke="#004051" stroke-width="2.3777" stroke-miterlimit="10" x1="71.473" y1="201.389" x2="80.546" y2="201.389"/>
	
		<line fill="none" stroke="#004051" stroke-width="2.3777" stroke-miterlimit="10" x1="157.205" y1="279.686" x2="157.205" y2="270.754"/>
	
		<line fill="none" stroke="#004051" stroke-width="2.3777" stroke-miterlimit="10" x1="239.309" y1="279.686" x2="239.309" y2="270.754"/>
	
		<line fill="none" stroke="#004051" stroke-width="2.3777" stroke-miterlimit="10" x1="320.909" y1="279.686" x2="320.909" y2="270.754"/>
	
		<line fill="none" stroke="#004051" stroke-width="2.3777" stroke-miterlimit="10" x1="399.184" y1="277.995" x2="399.184" y2="269.063"/>
	<g>
		<defs>
			<rect id="SVGID_70_" x="14.04" y="40.134" width="515.408" height="277.379"/>
		</defs>
		<clipPath id="SVGID_12_">
			<use xlink:href="#SVGID_70_"  overflow="visible"/>
		</clipPath>
		<g clip-path="url(#SVGID_12_)">
			<path fill="#04607D" d="M223.209,307.387v-8.622h-3.328v-1.15h8.016v1.15h-3.326v8.622H223.209z"/>
			<path fill="#04607D" d="M229.337,297.641h1.553v1.395h-1.553V297.641z M229.474,300.593h1.293v6.794h-1.293V300.593z"/>
			<path fill="#04607D" d="M233.268,301.499l-0.028-0.906h1.307v0.988c0.66-1.07,1.595-1.164,2.186-1.164
				c1.526,0,2.008,0.771,2.256,1.271c0.232-0.379,0.797-1.271,2.322-1.271c0.99,0,2.53,0.405,2.53,2.408v4.562h-1.306v-4.358
				c0-0.596-0.11-0.853-0.234-1.028c-0.22-0.312-0.66-0.596-1.32-0.596c-0.838,0-1.291,0.474-1.471,0.718
				c-0.303,0.42-0.303,1.164-0.303,1.461v3.804h-1.306v-4.493c0-0.84-0.495-1.489-1.513-1.489c-0.879,0-1.36,0.542-1.512,0.745
				c-0.289,0.393-0.303,0.947-0.303,1.38v3.857h-1.306V301.499z"/>
			<path fill="#04607D" d="M247.041,304.22c-0.028,1.408,0.563,2.449,1.979,2.449c0.84,0,1.513-0.433,1.623-1.407h1.292
				c-0.041,0.339-0.097,0.894-0.591,1.421c-0.303,0.339-0.99,0.907-2.379,0.907c-2.172,0-3.203-1.327-3.203-3.479
				c0-1.34,0.275-2.45,1.361-3.194c0.66-0.46,1.484-0.5,1.883-0.5c3.094,0,3.025,2.693,2.998,3.803H247.041z M250.683,303.326
				c0.014-0.649-0.109-2.003-1.705-2.003c-0.838,0-1.855,0.501-1.883,2.003H250.683z"/>
			<path fill="#04607D" d="M259.148,309.052c-0.742-1.801-1.636-4.047-1.636-6.023c0-1.068,0.247-2.125,0.563-3.153
				c0.385-1.218,0.742-2.085,0.977-2.666h0.907c-0.22,0.663-0.522,1.583-0.812,2.869c-0.288,1.245-0.385,2.085-0.385,2.923
				c0,1.922,0.481,3.479,1.279,6.051H259.148z"/>
			<path fill="#04607D" d="M265.402,307.427l-0.989,2.531h-1.333l1.045-2.598l-2.874-6.768h1.457l2.159,5.359l2.199-5.359h1.402
				L265.402,307.427z"/>
			<path fill="#04607D" d="M270.721,304.22c-0.028,1.408,0.563,2.449,1.979,2.449c0.839,0,1.512-0.433,1.623-1.407h1.291
				c-0.041,0.339-0.096,0.894-0.59,1.421c-0.303,0.339-0.99,0.907-2.379,0.907c-2.172,0-3.203-1.327-3.203-3.479
				c0-1.34,0.274-2.45,1.361-3.194c0.659-0.46,1.484-0.5,1.883-0.5c3.094,0,3.024,2.693,2.997,3.803H270.721z M274.365,303.326
				c0.014-0.649-0.11-2.003-1.705-2.003c-0.839,0-1.855,0.501-1.884,2.003H274.365z"/>
			<path fill="#04607D" d="M281.787,307.387c-0.098-0.339-0.125-0.663-0.125-1.015c-0.618,1.123-1.553,1.231-2.131,1.231
				c-1.58,0-2.434-0.88-2.434-2.003c0-0.542,0.193-1.408,1.211-1.99c0.742-0.406,1.842-0.446,2.392-0.446
				c0.33,0,0.536,0.013,0.935,0.04c0-0.839,0-1.204-0.247-1.502c-0.261-0.338-0.825-0.447-1.196-0.447
				c-1.306,0-1.375,0.881-1.389,1.151h-1.292c0.041-0.353,0.083-0.825,0.481-1.286c0.521-0.568,1.498-0.73,2.227-0.73
				c1.004,0,2.076,0.311,2.447,1.002c0.221,0.405,0.234,0.73,0.234,1.041l-0.055,3.248c0,0.109,0.014,1.016,0.109,1.706H281.787z
				 M280.892,304.044c-0.522,0-2.488,0-2.488,1.381c0,0.433,0.275,1.177,1.43,1.177c0.66,0,1.155-0.257,1.471-0.73
				c0.289-0.46,0.303-0.839,0.33-1.786C281.401,304.057,281.209,304.044,280.892,304.044z"/>
			<path fill="#04607D" d="M285.291,301.972c0-0.46-0.028-0.934-0.069-1.38h1.306l0.027,1.313c0.248-0.947,1.072-1.259,1.65-1.34
				c0.385-0.055,0.674-0.041,0.894-0.027v1.245c-0.069-0.026-0.151-0.04-0.247-0.054c-0.097-0.014-0.221-0.014-0.371-0.014
				c-1.527,0-1.885,0.893-1.885,2.057v3.614h-1.305V301.972z"/>
			<path fill="#04607D" d="M291.585,305.37c-0.014,0.514,0.261,1.231,1.513,1.231c0.535,0,0.935-0.095,1.209-0.433
				c0.139-0.176,0.221-0.406,0.221-0.637c0-0.663-0.481-0.785-1.513-1.015c-1.443-0.325-2.653-0.609-2.653-2.03
				c0-1.245,1.1-2.057,2.695-2.057c0.865,0,2.075,0.243,2.488,1.055c0.178,0.379,0.178,0.704,0.178,0.988h-1.319
				c0.042-1.029-0.866-1.109-1.333-1.109c-0.193,0-1.402,0-1.402,0.975c0,0.622,0.618,0.771,0.976,0.865
				c1.911,0.447,2.323,0.555,2.735,0.935c0.386,0.352,0.523,0.825,0.523,1.259c0,0.758-0.427,1.407-0.936,1.719
				c-0.604,0.365-1.334,0.46-2.049,0.46c-1.402,0-2.707-0.568-2.693-2.206H291.585z"/>
			<path fill="#04607D" d="M298.443,297.209c0.742,1.8,1.637,4.033,1.637,6.009c0,1.069-0.248,2.125-0.564,3.154
				c-0.385,1.218-0.742,2.098-0.977,2.68h-0.906c0.219-0.678,0.521-1.598,0.811-2.883c0.289-1.232,0.385-2.084,0.385-2.924
				c0-1.908-0.48-3.465-1.278-6.036H298.443z"/>
		</g>
		<g clip-path="url(#SVGID_12_)">
			<path fill="#04607D" d="M34.712,246.554c-0.344,0.054-1.719,0.229-1.719,2.111c0,2.354,2.447,2.774,4.098,2.774
				c1.869,0,3.891-0.528,3.891-2.761c0-0.596-0.152-1.164-0.592-1.584c-0.385-0.352-0.811-0.434-1.045-0.474v-1.489
				c1.952,0.203,2.764,1.977,2.764,3.654c0,3.438-3.08,4.102-5.004,4.102c-2.09,0-5.211-0.799-5.211-4.277
				c0-1.381,0.563-3.329,2.818-3.506V246.554z"/>
			<path fill="#04607D" d="M35.056,242.252h4.44c0.674,0,1.526-0.149,1.526-1.448c0-0.637-0.221-1.231-0.77-1.598
				c-0.413-0.283-0.949-0.283-1.293-0.283h-3.904v-1.313h5.609c0.137,0,0.907-0.026,1.292-0.04v1.326l-1.183,0.027
				c0.481,0.243,1.252,0.703,1.252,2.165c0,1.679-0.977,2.464-2.338,2.464h-4.633V242.252z"/>
			<path fill="#04607D" d="M35.977,235.162l-0.921,0.027v-1.286h1.004c-1.086-0.649-1.183-1.57-1.183-2.152
				c0-1.502,0.783-1.976,1.292-2.219c-0.385-0.23-1.292-0.785-1.292-2.287c0-0.975,0.412-2.49,2.446-2.49h4.634v1.285h-4.427
				c-0.605,0-0.866,0.108-1.045,0.23c-0.316,0.217-0.605,0.649-0.605,1.299c0,0.826,0.481,1.272,0.729,1.448
				c0.427,0.298,1.184,0.298,1.485,0.298h3.863v1.285h-4.564c-0.853,0-1.513,0.488-1.513,1.489c0,0.866,0.551,1.34,0.757,1.489
				c0.398,0.283,0.962,0.297,1.401,0.297h3.919v1.286H35.977z"/>
			<path fill="#04607D" d="M35.056,221.212h4.44c0.674,0,1.526-0.148,1.526-1.448c0-0.636-0.221-1.231-0.77-1.597
				c-0.413-0.285-0.949-0.285-1.293-0.285h-3.904v-1.313h5.609c0.137,0,0.907-0.027,1.292-0.041v1.327l-1.183,0.026
				c0.481,0.244,1.252,0.704,1.252,2.166c0,1.678-0.977,2.463-2.338,2.463h-4.633V221.212z"/>
			<path fill="#04607D" d="M32.044,214.081v-1.271h9.913v1.271H32.044z"/>
			<path fill="#04607D" d="M41.958,206.206c-0.344,0.095-0.674,0.121-1.031,0.121c1.142,0.609,1.251,1.53,1.251,2.099
				c0,1.556-0.894,2.396-2.035,2.396c-0.549,0-1.43-0.189-2.021-1.191c-0.412-0.73-0.454-1.813-0.454-2.354
				c0-0.325,0.014-0.528,0.042-0.921c-0.853,0-1.224,0-1.526,0.244c-0.344,0.257-0.453,0.813-0.453,1.178
				c0,1.285,0.893,1.354,1.168,1.367v1.271c-0.357-0.041-0.838-0.081-1.306-0.474c-0.577-0.515-0.743-1.476-0.743-2.192
				c0-0.988,0.316-2.044,1.018-2.409c0.412-0.217,0.742-0.229,1.059-0.229l3.3,0.053c0.11,0,1.031-0.013,1.732-0.107V206.206z
				 M38.562,207.086c0,0.515,0,2.45,1.402,2.45c0.439,0,1.195-0.271,1.195-1.408c0-0.65-0.261-1.137-0.742-1.448
				c-0.467-0.284-0.852-0.298-1.814-0.325C38.576,206.585,38.562,206.774,38.562,207.086z"/>
			<path fill="#04607D" d="M35.029,203.866v-1.205h-1.443l-0.413-1.258h1.856v-1.516h0.948v1.516h4.138c0.344,0,0.922,0,0.922-0.907
				c0-0.257-0.041-0.501-0.068-0.608h1.003c0.042,0.229,0.083,0.595,0.083,1.055c0,1.164-0.344,1.719-1.472,1.719h-4.605v1.205
				H35.029z"/>
			<path fill="#04607D" d="M32.059,198.44v-1.529h1.416v1.529H32.059z M35.056,198.305v-1.273h6.901v1.273H35.056z"/>
			<path fill="#04607D" d="M35.056,195.329v-1.422l5.472-2.165l-5.472-2.111v-1.407l6.901,2.977v1.286L35.056,195.329z"/>
			<path fill="#04607D" d="M38.74,186.005c1.431,0.027,2.489-0.555,2.489-1.949c0-0.825-0.44-1.488-1.431-1.597v-1.272
				c0.344,0.041,0.908,0.096,1.444,0.582c0.344,0.299,0.921,0.975,0.921,2.342c0,2.139-1.348,3.154-3.533,3.154
				c-1.361,0-2.488-0.271-3.244-1.341c-0.468-0.649-0.509-1.462-0.509-1.854c0-3.045,2.735-2.977,3.862-2.95V186.005z
				 M37.834,182.419c-0.66-0.014-2.035,0.107-2.035,1.678c0,0.826,0.509,1.827,2.035,1.854V182.419z"/>
			<path fill="#04607D" d="M32.031,175.493v-1.354h9.927v1.354H32.031z"/>
			<path fill="#04607D" d="M35.853,171.69l-0.797,0.014v-1.272l1.113-0.014c-0.289-0.149-1.251-0.636-1.251-2.179
				c0-0.609,0.233-2.464,2.351-2.464h4.688v1.3h-4.386c-0.453,0-0.866,0.054-1.182,0.365c-0.316,0.324-0.469,0.771-0.469,1.205
				c0,0.92,0.674,1.772,2.063,1.772h3.974v1.272H35.853z"/>
			<path fill="#04607D" d="M37.269,159.593c-0.316,0.027-1.443,0.122-1.443,1.354c0,1.76,2.076,1.76,2.599,1.76
				c1.416,0,2.735-0.338,2.735-1.691c0-1.084-0.824-1.449-1.498-1.477v-1.285c1.348,0.081,2.475,1.069,2.475,2.748
				c0,0.459-0.096,1.516-0.894,2.232c-0.481,0.406-1.21,0.813-2.64,0.813c-2.873,0-3.726-1.732-3.726-3.086
				c0-0.447,0.097-1.462,0.853-2.084c0.591-0.501,1.154-0.542,1.539-0.568V159.593z"/>
			<path fill="#04607D" d="M32.059,156.819v-1.529h1.416v1.529H32.059z M35.056,156.684v-1.272h6.901v1.272H35.056z"/>
			<path fill="#04607D" d="M32.044,148.227v-1.273h8.813c0.151,0,0.742-0.026,1.1-0.054v1.272l-1.1,0.027
				c0.192,0.107,0.481,0.257,0.729,0.609c0.385,0.555,0.509,1.217,0.509,1.678c0,0.906-0.481,2.924-3.506,2.924
				c-2.626,0-3.768-1.476-3.768-3.072c0-1.463,0.881-1.949,1.169-2.111H32.044z M36.486,148.7c-0.357,0.271-0.701,0.771-0.701,1.489
				c0,1.868,2.296,1.868,2.764,1.868c1.223,0,2.639-0.312,2.639-1.868c0-2.003-2.24-2.003-2.776-2.003
				C37.407,148.186,36.857,148.417,36.486,148.7z"/>
			<path fill="#04607D" d="M38.74,143.898c1.431,0.026,2.489-0.556,2.489-1.949c0-0.825-0.44-1.489-1.431-1.597v-1.272
				c0.344,0.04,0.908,0.095,1.444,0.582c0.344,0.298,0.921,0.975,0.921,2.341c0,2.139-1.348,3.154-3.533,3.154
				c-1.361,0-2.488-0.271-3.244-1.34c-0.468-0.65-0.509-1.462-0.509-1.854c0-3.046,2.735-2.978,3.862-2.95V143.898z M37.834,140.311
				c-0.66-0.014-2.035,0.108-2.035,1.678c0,0.826,0.509,1.828,2.035,1.855V140.311z"/>
			<path fill="#04607D" d="M35.853,137.106l-0.797,0.013v-1.272l1.113-0.014c-0.289-0.148-1.251-0.636-1.251-2.179
				c0-0.608,0.233-2.463,2.351-2.463h4.688v1.299h-4.386c-0.453,0-0.866,0.054-1.182,0.366c-0.316,0.324-0.469,0.771-0.469,1.204
				c0,0.921,0.674,1.772,2.063,1.772h3.974v1.273H35.853z"/>
			<path fill="#04607D" d="M37.269,125.009c-0.316,0.027-1.443,0.121-1.443,1.354c0,1.759,2.076,1.759,2.599,1.759
				c1.416,0,2.735-0.338,2.735-1.691c0-1.083-0.824-1.448-1.498-1.476v-1.285c1.348,0.08,2.475,1.068,2.475,2.747
				c0,0.46-0.096,1.516-0.894,2.233c-0.481,0.406-1.21,0.813-2.64,0.813c-2.873,0-3.726-1.732-3.726-3.086
				c0-0.447,0.097-1.463,0.853-2.085c0.591-0.501,1.154-0.542,1.539-0.568V125.009z"/>
			<path fill="#04607D" d="M38.74,121.343c1.431,0.027,2.489-0.555,2.489-1.949c0-0.826-0.44-1.488-1.431-1.598v-1.271
				c0.344,0.041,0.908,0.095,1.444,0.582c0.344,0.298,0.921,0.975,0.921,2.342c0,2.139-1.348,3.153-3.533,3.153
				c-1.361,0-2.488-0.271-3.244-1.341c-0.468-0.648-0.509-1.461-0.509-1.854c0-3.045,2.735-2.978,3.862-2.951V121.343z
				 M37.834,117.756c-0.66-0.013-2.035,0.108-2.035,1.679c0,0.825,0.509,1.826,2.035,1.854V117.756z"/>
			<path fill="#04607D" d="M43.648,109.422c-1.828,0.731-4.11,1.61-6.117,1.61c-1.086,0-2.158-0.243-3.203-0.555
				c-1.238-0.379-2.117-0.73-2.709-0.961v-0.893c0.674,0.216,1.609,0.514,2.915,0.798c1.265,0.284,2.117,0.379,2.97,0.379
				c1.952,0,3.533-0.474,6.145-1.259V109.422z"/>
			<path fill="#04607D" d="M42.494,105.011l-10.586-5.969v-0.893l10.586,5.969V105.011z M34.617,102.412
				c1.704,0,2.488,0.988,2.488,2.22c0,1.178-0.715,2.18-2.406,2.18c-1.443,0-2.516-0.771-2.516-2.302
				C32.183,102.954,33.365,102.412,34.617,102.412z M34.671,103.481c-0.674,0-1.664,0.162-1.664,1.123
				c0,1.164,1.348,1.164,1.678,1.164c0.316,0,1.622,0,1.622-1.164C36.307,103.481,34.946,103.481,34.671,103.481z M37.861,96.755
				c0.275-0.244,0.715-0.555,1.746-0.555c1.498,0,2.516,0.717,2.516,2.179c0,1.732-1.307,2.22-2.447,2.22
				c-1.664,0-2.475-1.016-2.475-2.22C37.201,98.013,37.269,97.282,37.861,96.755z M39.634,97.228c-0.426,0-1.664,0.081-1.664,1.137
				c0,1.164,1.43,1.164,1.843,1.164c0.481,0,1.499-0.108,1.499-1.137C41.312,97.309,40.128,97.228,39.634,97.228z"/>
			<path fill="#04607D" d="M31.619,93.578c1.828-0.731,4.098-1.61,6.104-1.61c1.086,0,2.158,0.243,3.203,0.555
				c1.237,0.379,2.131,0.73,2.722,0.961v0.893c-0.688-0.216-1.621-0.514-2.928-0.798c-1.251-0.284-2.117-0.379-2.97-0.379
				c-1.938,0-3.52,0.474-6.132,1.259V93.578z"/>
		</g>
		<g clip-path="url(#SVGID_12_)">
			<path fill="#004051" d="M85.33,287.516c0,1.987-0.52,4.549-3.072,4.549c-2.551,0-3.072-2.562-3.072-4.549
				c0-1.986,0.521-4.549,3.072-4.549C84.81,282.968,85.33,285.53,85.33,287.516z M83.882,287.516c0-1.824-0.355-3.361-1.625-3.361
				s-1.625,1.537-1.625,3.361s0.355,3.361,1.625,3.361S83.882,289.341,83.882,287.516z"/>
		</g>
		<g clip-path="url(#SVGID_12_)">
			<path fill="#004051" d="M68.998,270.849c0,1.987-0.521,4.549-3.072,4.549c-2.553,0-3.072-2.562-3.072-4.549
				s0.52-4.549,3.072-4.549C68.476,266.301,68.998,268.862,68.998,270.849z M67.55,270.849c0-1.824-0.355-3.362-1.625-3.362
				s-1.625,1.538-1.625,3.362c0,1.825,0.355,3.362,1.625,3.362S67.55,272.675,67.55,270.849z"/>
		</g>
		<g clip-path="url(#SVGID_12_)">
			<path fill="#004051" d="M63.957,197.704h4.596v1.275h-3.516l-0.457,2.225l0.025,0.025c0.393-0.426,1.041-0.663,1.637-0.663
				c1.766,0,2.781,1.25,2.781,2.925c0,1.399-0.889,3.137-3.072,3.137c-1.715,0-3.047-0.912-3.111-2.662h1.447
				c0.09,0.938,0.699,1.475,1.639,1.475c1.23,0,1.65-0.862,1.65-1.925c0-0.962-0.521-1.824-1.689-1.824
				c-0.609,0-1.205,0.188-1.434,0.8h-1.447L63.957,197.704z"/>
		</g>
		<g clip-path="url(#SVGID_12_)">
			<path fill="#004051" d="M55.816,126.345c1.219,0.013,2.374-0.4,2.59-1.449h1.181v8.748H58v-6.174h-2.184V126.345z"/>
			<path fill="#004051" d="M68.806,129.268c0,1.988-0.52,4.549-3.072,4.549c-2.551,0-3.072-2.561-3.072-4.549
				c0-1.986,0.521-4.549,3.072-4.549C68.287,124.72,68.806,127.282,68.806,129.268z M67.359,129.268
				c0-1.824-0.355-3.361-1.625-3.361s-1.625,1.537-1.625,3.361c0,1.825,0.355,3.362,1.625,3.362S67.359,131.094,67.359,129.268z"/>
		</g>
		<g clip-path="url(#SVGID_12_)">
			<path fill="#004051" d="M55.816,57c1.219,0.013,2.374-0.4,2.59-1.45h1.181v8.748H58v-6.173h-2.184V57z"/>
			<path fill="#004051" d="M63.767,55.55h4.596v1.275h-3.518l-0.457,2.225l0.025,0.025c0.395-0.425,1.041-0.663,1.639-0.663
				c1.764,0,2.779,1.25,2.779,2.924c0,1.4-0.889,3.137-3.072,3.137c-1.713,0-3.047-0.912-3.109-2.662h1.447
				c0.088,0.937,0.697,1.475,1.637,1.475c1.232,0,1.65-0.862,1.65-1.925c0-0.962-0.52-1.824-1.688-1.824
				c-0.609,0-1.207,0.188-1.436,0.8h-1.447L63.767,55.55z"/>
		</g>
		<g clip-path="url(#SVGID_12_)">
			<path fill="#004051" d="M153.487,284.593c1.219,0.012,2.374-0.4,2.59-1.45h1.181v8.748h-1.587v-6.173h-2.184V284.593z"/>
		</g>
		<g clip-path="url(#SVGID_12_)">
			<path fill="#004051" d="M242.391,291.89h-6.068c0.013-1.437,0.762-2.524,1.955-3.312c1.155-0.825,2.653-1.512,2.679-2.875
				c0.013-0.625-0.254-1.549-1.498-1.549c-1.143,0-1.485,0.962-1.523,2.187h-1.447c0-1.937,1.079-3.374,3.06-3.374
				c2.171,0,2.856,1.563,2.856,2.688c0,1.387-0.965,2.249-1.98,2.949c-1.028,0.699-2.107,1.236-2.361,2.012h4.329V291.89z"/>
		</g>
		<g clip-path="url(#SVGID_12_)">
			<path fill="#004051" d="M320.085,286.766c0.965,0.037,1.968-0.3,1.968-1.375c0-0.736-0.584-1.236-1.384-1.236
				c-1.003,0-1.498,0.887-1.473,1.787h-1.447c0.076-1.699,1.155-2.975,2.945-2.975c1.384,0,2.806,0.787,2.806,2.337
				c0,0.875-0.406,1.575-1.257,1.874v0.025c1.003,0.2,1.612,1.063,1.612,2.188c0,1.649-1.447,2.674-3.148,2.674
				c-2.057,0-3.085-1.225-3.123-3.049h1.447c-0.038,1.063,0.546,1.861,1.676,1.861c0.965,0,1.701-0.563,1.701-1.562
				c0-1.362-1.181-1.537-2.323-1.487V286.766z"/>
		</g>
		<g clip-path="url(#SVGID_12_)">
			<path fill="#004051" d="M393.244,286.766c0.965,0.037,1.968-0.3,1.968-1.375c0-0.736-0.584-1.236-1.384-1.236
				c-1.003,0-1.498,0.887-1.473,1.787h-1.447c0.076-1.699,1.155-2.975,2.945-2.975c1.384,0,2.806,0.787,2.806,2.337
				c0,0.875-0.406,1.575-1.257,1.874v0.025c1.003,0.2,1.612,1.063,1.612,2.188c0,1.649-1.447,2.674-3.148,2.674
				c-2.057,0-3.085-1.225-3.123-3.049h1.447c-0.038,1.063,0.546,1.861,1.676,1.861c0.965,0,1.701-0.563,1.701-1.562
				c0-1.362-1.181-1.537-2.323-1.487V286.766z"/>
			<path fill="#004051" d="M398.287,290.204h1.766v1.687h-1.766V290.204z"/>
			<path fill="#004051" d="M402.986,289.679c0.063,0.713,0.546,1.199,1.295,1.199c1.574,0,1.752-1.85,1.841-2.999l-0.025-0.024
				c-0.381,0.674-1.104,1.049-1.917,1.049c-1.676,0-2.806-1.162-2.806-2.949c0-1.699,1.117-2.986,3.06-2.986
				c2.514,0,3.136,2.024,3.136,4.574c0,2.087-0.838,4.523-3.352,4.523c-1.409,0-2.603-0.962-2.679-2.387H402.986z M402.821,285.942
				c0,0.949,0.495,1.837,1.549,1.837c1.079,0,1.612-0.875,1.612-1.837c0-0.938-0.533-1.787-1.612-1.787
				C403.316,284.155,402.821,284.992,402.821,285.942z"/>
		</g>
	</g>
	<g>
		<defs>
			<rect id="SVGID_72_" x="14.04" y="40.134" width="515.408" height="277.379"/>
		</defs>
		<clipPath id="SVGID_14_">
			<use xlink:href="#SVGID_72_"  overflow="visible"/>
		</clipPath>
		<g clip-path="url(#SVGID_14_)">
			<path fill="#98C4D2" d="M131.328,66.007h2.854c1.038,0,1.745,0.058,2.323,0.673c0.425,0.43,0.625,0.999,0.625,1.626
				c0,0.639-0.212,1.184-0.672,1.637c-0.448,0.441-1.038,0.72-2.571,0.72h-1.38v3.728h-1.18V66.007z M132.507,69.688h1.403
				c0.778,0,1.97-0.058,1.97-1.428c0-1.313-1.109-1.313-1.723-1.313h-1.65V69.688z"/>
			<path fill="#98C4D2" d="M138.557,66.018h1.108v8.372h-1.108V66.018z"/>
			<path fill="#98C4D2" d="M145.421,74.39c-0.082-0.291-0.105-0.569-0.105-0.871c-0.531,0.964-1.333,1.057-1.828,1.057
				c-1.357,0-2.088-0.754-2.088-1.718c0-0.464,0.164-1.208,1.037-1.707c0.637-0.348,1.581-0.383,2.053-0.383
				c0.283,0,0.46,0.012,0.803,0.035c0-0.72,0-1.034-0.213-1.289c-0.225-0.291-0.707-0.383-1.026-0.383
				c-1.12,0-1.179,0.755-1.19,0.987h-1.109c0.035-0.302,0.07-0.708,0.412-1.103c0.449-0.488,1.286-0.627,1.912-0.627
				c0.86,0,1.78,0.267,2.1,0.859c0.188,0.348,0.199,0.627,0.199,0.894l-0.047,2.787c0,0.093,0.012,0.871,0.095,1.463H145.421z
				 M144.655,71.522c-0.448,0-2.135,0-2.135,1.185c0,0.372,0.235,1.01,1.227,1.01c0.566,0,0.991-0.221,1.263-0.627
				c0.247-0.395,0.26-0.72,0.283-1.533C145.091,71.534,144.926,71.522,144.655,71.522z"/>
			<path fill="#98C4D2" d="M151.743,70.431c-0.023-0.267-0.106-1.219-1.179-1.219c-1.534,0-1.534,1.753-1.534,2.194
				c0,1.196,0.295,2.311,1.475,2.311c0.944,0,1.263-0.697,1.286-1.266h1.12c-0.071,1.138-0.932,2.09-2.395,2.09
				c-0.401,0-1.321-0.081-1.946-0.755c-0.354-0.406-0.707-1.021-0.707-2.229c0-2.427,1.51-3.146,2.689-3.146
				c0.389,0,1.273,0.081,1.816,0.72c0.436,0.5,0.471,0.976,0.494,1.301H151.743z"/>
			<path fill="#98C4D2" d="M154.939,71.673c-0.023,1.208,0.483,2.102,1.698,2.102c0.72,0,1.298-0.372,1.392-1.208h1.109
				c-0.035,0.291-0.083,0.767-0.508,1.219c-0.26,0.291-0.85,0.778-2.04,0.778c-1.864,0-2.749-1.138-2.749-2.984
				c0-1.149,0.236-2.102,1.168-2.74c0.566-0.395,1.273-0.43,1.616-0.43c2.653,0,2.595,2.311,2.571,3.263H154.939z M158.064,70.907
				c0.012-0.558-0.094-1.719-1.462-1.719c-0.72,0-1.593,0.43-1.616,1.719H158.064z"/>
			<path fill="#98C4D2" d="M161.933,69.409c0.152-0.267,0.59-0.999,1.934-0.999c0.59,0,1.334,0.139,1.876,0.743
				c0.295,0.336,0.696,0.917,0.696,2.194c0,1.126-0.271,1.742-0.566,2.125c-0.473,0.662-1.262,0.999-2.076,0.999
				c-0.283,0-0.814-0.035-1.32-0.372c-0.331-0.22-0.461-0.418-0.578-0.592l-0.023,0.882H160.8l0.023-1.045v-7.339h1.109V69.409z
				 M163.608,69.154c-1.698,0-1.698,1.951-1.698,2.322c0,0.383,0,2.206,1.65,2.206c1.369,0,1.711-1.312,1.711-2.264
				C165.271,70.837,165.153,69.154,163.608,69.154z"/>
			<path fill="#98C4D2" d="M170.601,68.41c2.371,0,2.902,1.834,2.902,3.054c0,1.707-0.979,3.124-2.996,3.124
				c-1.958,0-2.914-1.335-2.914-3.042C167.593,70.106,168.278,68.41,170.601,68.41z M170.531,73.775
				c0.838,0,1.793-0.592,1.793-2.346c0-1.452-0.684-2.218-1.723-2.218c-0.707,0-1.852,0.441-1.852,2.264
				C168.75,72.672,169.269,73.775,170.531,73.775z"/>
			<path fill="#98C4D2" d="M179.742,75.819c-0.637-1.544-1.404-3.472-1.404-5.167c0-0.917,0.213-1.823,0.484-2.706
				c0.33-1.045,0.637-1.788,0.838-2.288h0.777c-0.188,0.569-0.447,1.359-0.695,2.462c-0.248,1.068-0.33,1.788-0.33,2.508
				c0,1.649,0.412,2.984,1.097,5.19H179.742z"/>
			<path fill="#98C4D2" d="M182.478,69.235l-0.012-0.673h1.108l0.012,0.94c0.13-0.244,0.554-1.057,1.899-1.057
				c0.53,0,2.146,0.197,2.146,1.986v3.959H186.5v-3.704c0-0.383-0.047-0.731-0.318-0.999c-0.283-0.267-0.672-0.395-1.05-0.395
				c-0.802,0-1.545,0.569-1.545,1.742v3.356h-1.108V69.235z"/>
			<path fill="#98C4D2" d="M189.046,69.85h6.016v0.894h-6.016V69.85z M189.046,72.196h6.016v0.906h-6.016V72.196z"/>
		</g>
		<g clip-path="url(#SVGID_14_)">
			<path fill="#98C4D2" d="M198.695,67.621c-0.506,0.418-1.32,0.894-1.898,1.161v-1.161c0.767-0.395,1.521-0.883,1.981-1.266h1.05
				v8.036h-1.133V67.621z"/>
			<path fill="#98C4D2" d="M205.654,72.649h-3.68v-1.382l3.538-5.017h1.274v5.458h1.191v0.94h-1.191v1.742h-1.133V72.649z
				 M205.689,71.708V67.47l-2.818,4.239H205.689z"/>
			<path fill="#98C4D2" d="M211.398,67.621c-0.508,0.418-1.321,0.894-1.899,1.161v-1.161c0.767-0.395,1.521-0.883,1.981-1.266h1.05
				v8.036h-1.132V67.621z"/>
			<path fill="#98C4D2" d="M217.376,66.192c2.441,0,2.736,2.578,2.736,4.087c0,1.905-0.389,2.973-1.132,3.658
				c-0.577,0.534-1.262,0.615-1.628,0.615c-1.085,0-1.828-0.627-2.182-1.335c-0.271-0.534-0.531-1.312-0.531-2.752
				C214.64,69.269,214.783,66.192,217.376,66.192z M217.365,73.589c1.369,0,1.604-1.765,1.604-3.205
				c0-1.927-0.342-3.263-1.581-3.263c-1.427,0-1.615,1.846-1.615,3.286C215.773,72.196,216.126,73.589,217.365,73.589z"/>
		</g>
		<path clip-path="url(#SVGID_14_)" fill="#98C4D2" d="M222.33,65.654c0.637,1.545,1.403,3.462,1.403,5.158
			c0,0.918-0.212,1.824-0.484,2.707c-0.33,1.046-0.637,1.801-0.837,2.3h-0.778c0.189-0.581,0.448-1.371,0.696-2.475
			c0.248-1.057,0.33-1.789,0.33-2.509c0-1.638-0.413-2.974-1.097-5.182H222.33z M227.295,72.996l-1.321,2.858h-0.802l0.755-2.858
			H227.295z M225.715,68.5h1.368v1.394h-1.368V68.5z M235.15,66.816c-0.189-0.012-0.424-0.023-0.649-0.023
			c-0.896,0-0.896,0.442-0.896,0.848v0.918h1.38v0.79h-1.38v5.042h-1.097v-5.042h-1.167v-0.79h1.167v-0.662
			c0-0.802,0.047-1.092,0.248-1.394c0.259-0.383,0.743-0.639,1.486-0.639c0.318,0,0.672,0.047,0.908,0.081V66.816z M235.999,66.026
			h1.321v1.185h-1.321V66.026z M236.117,74.391v-5.832h1.097v5.832H236.117z M239.431,69.232l-0.012-0.674h1.108l0.012,0.941
			c0.13-0.244,0.554-1.057,1.899-1.057c0.531,0,2.146,0.198,2.146,1.987v3.962h-1.132v-3.706c0-0.383-0.047-0.732-0.318-0.999
			c-0.283-0.267-0.672-0.395-1.049-0.395c-0.802,0-1.545,0.569-1.545,1.743v3.358h-1.109V69.232z M250.21,74.391
			c-0.083-0.291-0.106-0.569-0.106-0.871c-0.531,0.964-1.333,1.057-1.828,1.057c-1.356,0-2.087-0.755-2.087-1.719
			c0-0.465,0.165-1.208,1.038-1.708c0.637-0.349,1.58-0.383,2.052-0.383c0.283,0,0.46,0.012,0.802,0.035c0-0.72,0-1.034-0.212-1.29
			c-0.224-0.291-0.708-0.383-1.026-0.383c-1.12,0-1.179,0.755-1.191,0.987h-1.109c0.035-0.302,0.071-0.709,0.413-1.104
			c0.448-0.488,1.285-0.627,1.911-0.627c0.861,0,1.781,0.267,2.099,0.86c0.189,0.349,0.201,0.627,0.201,0.895l-0.047,2.788
			c0,0.093,0.012,0.871,0.094,1.464H250.21z M249.444,71.521c-0.448,0-2.134,0-2.134,1.185c0,0.372,0.236,1.011,1.226,1.011
			c0.566,0,0.991-0.221,1.262-0.627c0.247-0.395,0.259-0.72,0.283-1.534C249.88,71.533,249.715,71.521,249.444,71.521z
			 M253.183,66.014h1.108v8.377h-1.108V66.014z M259.776,66.002h1.168v7.354h3.962v1.034h-5.13V66.002z M266.274,66.002h2.465
			c1.144,0,2.488,0,3.432,1.092c0.755,0.871,1.05,2.021,1.05,3.172c0,1.812-0.767,2.928-1.415,3.439
			c-0.837,0.685-1.887,0.685-3.137,0.685h-2.394V66.002z M267.453,73.438h1.156c0.814,0,1.663-0.047,2.229-0.465
			c1.085-0.802,1.12-2.173,1.12-2.661c0-0.314-0.024-1.743-0.825-2.614c-0.543-0.592-1.227-0.732-2.264-0.732h-1.415V73.438z
			 M274.849,66.002h1.167v7.354h3.962v1.034h-5.13V66.002z M278.742,70.894h2.96v0.883h-2.96V70.894z M288.341,68.268
			c-0.047-0.29-0.2-1.452-1.84-1.452c-2.052,0-2.418,2.068-2.418,3.462c0,1.58,0.46,3.288,2.406,3.288c0.519,0,1.014-0.128,1.38-0.5
			c0.307-0.325,0.377-0.686,0.413-0.883h1.297c-0.177,1.65-1.722,2.335-3.184,2.335c-2.995,0-3.573-2.602-3.573-4.229
			c0-1.766,0.696-4.403,3.727-4.403c1.203,0,2.901,0.476,3.054,2.382H288.341z M290.477,69.848h6.014v0.895h-6.014V69.848z
			 M290.477,72.195h6.014v0.906h-6.014V72.195z"/>
		<g clip-path="url(#SVGID_14_)">
			<path fill="#98C4D2" d="M300.124,67.621c-0.507,0.418-1.321,0.894-1.899,1.161v-1.161c0.768-0.395,1.521-0.883,1.982-1.266h1.049
				v8.036h-1.132V67.621z"/>
			<path fill="#98C4D2" d="M303.933,73.334l2.135-2.067c0.448-0.43,0.896-0.894,1.262-1.382c0.473-0.639,0.602-0.999,0.602-1.428
				c0-0.395-0.142-1.313-1.309-1.313c-1.31,0-1.334,1.104-1.334,1.405h-1.238c0.012-0.395,0.047-1.161,0.756-1.765
				c0.565-0.476,1.25-0.581,1.769-0.581c1.251,0,2.524,0.627,2.524,2.346c0,0.511-0.035,0.906-0.92,2.009
				c-0.236,0.291-1.273,1.347-1.51,1.579l-1.428,1.335h3.881v0.917h-5.189V73.334z"/>
			<path fill="#98C4D2" d="M313.062,67.621c-0.508,0.418-1.321,0.894-1.899,1.161v-1.161c0.767-0.395,1.521-0.883,1.981-1.266h1.05
				v8.036h-1.132V67.621z"/>
		</g>
		<g clip-path="url(#SVGID_14_)">
			<path fill="#98C4D2" d="M320.728,69.339l-0.023-0.778h1.12v0.848c0.566-0.917,1.368-0.999,1.876-0.999
				c1.309,0,1.722,0.662,1.934,1.091c0.201-0.325,0.685-1.091,1.994-1.091c0.849,0,2.17,0.348,2.17,2.067v3.913h-1.121v-3.739
				c0-0.511-0.094-0.731-0.2-0.882c-0.188-0.267-0.565-0.511-1.132-0.511c-0.72,0-1.109,0.406-1.262,0.615
				c-0.26,0.36-0.26,0.999-0.26,1.254v3.263h-1.121v-3.855c0-0.72-0.424-1.277-1.297-1.277c-0.756,0-1.168,0.464-1.298,0.639
				c-0.247,0.336-0.26,0.813-0.26,1.184v3.31h-1.12V69.339z"/>
			<path fill="#98C4D2" d="M332.935,74.843c0.047,0.65,0.33,1.138,1.379,1.138c1.546,0,1.569-1.103,1.569-2.682
				c-0.472,0.963-1.593,0.987-1.946,0.987c-0.543,0-1.32-0.116-1.816-0.72c-0.508-0.592-0.672-1.371-0.672-2.148
				c0-1.974,1.18-2.938,2.63-2.938c1.191,0,1.628,0.581,1.864,0.883l0.012-0.801h1.072l-0.023,1.057l-0.012,3.646
				c0,1.405-0.047,1.974-0.283,2.416c-0.495,0.929-1.65,1.045-2.465,1.045c-2.371,0-2.441-1.091-2.488-1.881H332.935z
				 M335.517,72.892c0.236-0.302,0.401-0.615,0.401-1.672c0-0.731-0.165-1.15-0.46-1.452c-0.295-0.313-0.767-0.511-1.273-0.511
				c-1.404,0-1.593,1.393-1.593,2.136c0,0.895,0.271,2.079,1.628,2.079C334.869,73.473,335.246,73.241,335.517,72.892z"/>
			<path fill="#98C4D2" d="M340.695,66.111h0.767l-2.748,8.465h-0.778L340.695,66.111z"/>
			<path fill="#98C4D2" d="M346.462,66.018h1.109v7.443c0,0.127,0.023,0.627,0.047,0.929h-1.109l-0.023-0.929
				c-0.094,0.162-0.225,0.406-0.531,0.615c-0.482,0.325-1.061,0.43-1.462,0.43c-0.79,0-2.548-0.407-2.548-2.961
				c0-2.218,1.285-3.182,2.678-3.182c1.273,0,1.698,0.743,1.84,0.987V66.018z M346.05,69.769c-0.236-0.302-0.673-0.592-1.299-0.592
				c-1.627,0-1.627,1.939-1.627,2.334c0,1.034,0.271,2.229,1.627,2.229c1.746,0,1.746-1.893,1.746-2.346
				C346.498,70.547,346.297,70.082,346.05,69.769z"/>
			<path fill="#98C4D2" d="M349.623,66.007h1.168v7.35h3.963v1.034h-5.131V66.007z"/>
		</g>
		<g clip-path="url(#SVGID_14_)">
			<path fill="#04607D" d="M133.982,86.848h1.262l3.443,8.383h-1.285l-0.92-2.183h-3.951l-0.92,2.183h-1.215L133.982,86.848z
				 M132.908,92.108h3.221l-1.568-4.111L132.908,92.108z"/>
			<path fill="#04607D" d="M138.935,89.38h1.049v-1.22l1.098-0.349v1.568h1.32v0.801h-1.32v3.495c0,0.29,0,0.778,0.79,0.778
				c0.224,0,0.437-0.035,0.53-0.059v0.848c-0.2,0.035-0.519,0.07-0.92,0.07c-1.014,0-1.498-0.291-1.498-1.242V90.18h-1.049V89.38z"
				/>
			<path fill="#04607D" d="M146.341,89.252c2.371,0,2.901,1.835,2.901,3.054c0,1.707-0.979,3.123-2.995,3.123
				c-1.959,0-2.914-1.335-2.914-3.041C143.334,90.947,144.017,89.252,146.341,89.252z M146.271,94.616
				c0.837,0,1.793-0.592,1.793-2.346c0-1.451-0.685-2.217-1.723-2.217c-0.708,0-1.852,0.44-1.852,2.264
				C144.49,93.513,145.008,94.616,146.271,94.616z"/>
			<path fill="#04607D" d="M151.035,90.587c0-0.395-0.023-0.801-0.059-1.184h1.121l0.023,1.126c0.212-0.813,0.92-1.08,1.415-1.149
				c0.33-0.047,0.577-0.035,0.767-0.023v1.068c-0.059-0.023-0.13-0.035-0.213-0.047c-0.082-0.012-0.188-0.012-0.318-0.012
				c-1.309,0-1.615,0.767-1.615,1.766v3.1h-1.121V90.587z"/>
			<path fill="#04607D" d="M154.668,89.403h1.238l1.887,4.621l1.841-4.621h1.227l-2.595,5.828h-1.121L154.668,89.403z"/>
			<path fill="#04607D" d="M165.73,95.231c-0.082-0.29-0.105-0.568-0.105-0.871c-0.531,0.965-1.333,1.058-1.828,1.058
				c-1.357,0-2.088-0.755-2.088-1.719c0-0.464,0.164-1.208,1.037-1.707c0.637-0.349,1.581-0.384,2.053-0.384
				c0.283,0,0.46,0.012,0.803,0.035c0-0.72,0-1.033-0.213-1.289c-0.225-0.29-0.707-0.383-1.026-0.383
				c-1.12,0-1.179,0.755-1.19,0.987h-1.109c0.035-0.302,0.07-0.708,0.412-1.104c0.449-0.487,1.286-0.627,1.912-0.627
				c0.86,0,1.78,0.267,2.1,0.859c0.188,0.349,0.199,0.627,0.199,0.894l-0.047,2.787c0,0.094,0.012,0.871,0.095,1.463H165.73z
				 M164.963,92.364c-0.448,0-2.135,0-2.135,1.184c0,0.372,0.235,1.011,1.227,1.011c0.566,0,0.991-0.221,1.263-0.627
				c0.247-0.396,0.26-0.72,0.283-1.533C165.4,92.376,165.235,92.364,164.963,92.364z"/>
			<path fill="#04607D" d="M169.316,93.502c-0.012,0.44,0.224,1.057,1.297,1.057c0.46,0,0.803-0.081,1.038-0.372
				c0.118-0.15,0.188-0.348,0.188-0.545c0-0.569-0.412-0.674-1.297-0.871c-1.238-0.279-2.277-0.523-2.277-1.742
				c0-1.068,0.944-1.766,2.313-1.766c0.743,0,1.781,0.21,2.135,0.906c0.153,0.325,0.153,0.604,0.153,0.848h-1.132
				c0.035-0.883-0.744-0.952-1.145-0.952c-0.165,0-1.203,0-1.203,0.837c0,0.533,0.531,0.661,0.838,0.742
				c1.639,0.383,1.993,0.477,2.347,0.802c0.331,0.302,0.448,0.708,0.448,1.079c0,0.65-0.365,1.208-0.802,1.475
				c-0.519,0.314-1.145,0.396-1.758,0.396c-1.203,0-2.323-0.487-2.312-1.893H169.316z"/>
			<path fill="#04607D" d="M173.668,89.38h1.05v-1.22l1.097-0.349v1.568h1.321v0.801h-1.321v3.495c0,0.29,0,0.778,0.791,0.778
				c0.224,0,0.436-0.035,0.53-0.059v0.848c-0.2,0.035-0.519,0.07-0.921,0.07c-1.014,0-1.497-0.291-1.497-1.242V90.18h-1.05V89.38z"
				/>
			<path fill="#04607D" d="M182.113,95.231c-0.084-0.29-0.107-0.568-0.107-0.871c-0.53,0.965-1.332,1.058-1.828,1.058
				c-1.355,0-2.088-0.755-2.088-1.719c0-0.464,0.166-1.208,1.039-1.707c0.637-0.349,1.58-0.384,2.052-0.384
				c0.283,0,0.46,0.012,0.802,0.035c0-0.72,0-1.033-0.212-1.289c-0.224-0.29-0.708-0.383-1.026-0.383
				c-1.12,0-1.18,0.755-1.191,0.987h-1.108c0.035-0.302,0.071-0.708,0.413-1.104c0.447-0.487,1.285-0.627,1.91-0.627
				c0.861,0,1.781,0.267,2.1,0.859c0.189,0.349,0.201,0.627,0.201,0.894l-0.047,2.787c0,0.094,0.012,0.871,0.094,1.463H182.113z
				 M181.345,92.364c-0.448,0-2.135,0-2.135,1.184c0,0.372,0.236,1.011,1.227,1.011c0.566,0,0.991-0.221,1.262-0.627
				c0.248-0.396,0.26-0.72,0.283-1.533C181.782,92.376,181.617,92.364,181.345,92.364z"/>
			<path fill="#04607D" d="M184.152,89.38h1.051v-1.22l1.096-0.349v1.568h1.322v0.801h-1.322v3.495c0,0.29,0,0.778,0.791,0.778
				c0.225,0,0.436-0.035,0.531-0.059v0.848c-0.201,0.035-0.52,0.07-0.921,0.07c-1.015,0-1.497-0.291-1.497-1.242V90.18h-1.051V89.38
				z"/>
			<path fill="#04607D" d="M188.881,86.871h1.333v1.196h-1.333V86.871z M189,89.403h1.109v5.828H189V89.403z"/>
			<path fill="#04607D" d="M192.301,90.076l-0.012-0.673h1.108l0.012,0.939c0.131-0.243,0.555-1.057,1.899-1.057
				c0.53,0,2.146,0.197,2.146,1.986v3.959h-1.132v-3.703c0-0.384-0.047-0.732-0.318-0.999c-0.283-0.267-0.673-0.396-1.051-0.396
				c-0.801,0-1.545,0.569-1.545,1.742v3.355h-1.108V90.076z"/>
		</g>
		<g clip-path="url(#SVGID_14_)">
			<path fill="#04607D" d="M204.91,88.462c-0.508,0.418-1.321,0.895-1.899,1.162v-1.162c0.767-0.395,1.521-0.883,1.981-1.266h1.05
				v8.035h-1.132V88.462z"/>
			<path fill="#04607D" d="M210.888,87.034c2.441,0,2.736,2.579,2.736,4.087c0,1.905-0.389,2.973-1.132,3.658
				c-0.577,0.534-1.262,0.615-1.628,0.615c-1.085,0-1.828-0.627-2.182-1.335c-0.271-0.535-0.531-1.313-0.531-2.752
				C208.152,90.11,208.294,87.034,210.888,87.034z M210.876,94.43c1.369,0,1.604-1.766,1.604-3.205c0-1.928-0.342-3.263-1.581-3.263
				c-1.427,0-1.615,1.847-1.615,3.286C209.285,93.037,209.638,94.43,210.876,94.43z"/>
		</g>
		<g clip-path="url(#SVGID_14_)">
			<path fill="#04607D" d="M218.485,90.18l-0.024-0.777h1.121v0.848c0.566-0.918,1.368-0.999,1.875-0.999
				c1.31,0,1.723,0.661,1.936,1.091c0.199-0.324,0.684-1.091,1.992-1.091c0.85,0,2.171,0.349,2.171,2.067v3.912h-1.12v-3.738
				c0-0.512-0.095-0.732-0.201-0.883c-0.188-0.268-0.566-0.511-1.133-0.511c-0.719,0-1.107,0.406-1.262,0.615
				c-0.26,0.36-0.26,0.999-0.26,1.254v3.263h-1.12v-3.854c0-0.72-0.425-1.277-1.298-1.277c-0.754,0-1.167,0.464-1.297,0.639
				c-0.248,0.337-0.26,0.813-0.26,1.185v3.309h-1.12V90.18z"/>
			<path fill="#04607D" d="M230.691,95.684c0.047,0.65,0.33,1.139,1.381,1.139c1.545,0,1.568-1.104,1.568-2.683
				c-0.472,0.964-1.592,0.987-1.946,0.987c-0.542,0-1.321-0.117-1.816-0.721c-0.507-0.592-0.673-1.37-0.673-2.148
				c0-1.974,1.18-2.938,2.631-2.938c1.191,0,1.628,0.58,1.863,0.883l0.012-0.801h1.074l-0.023,1.057l-0.012,3.646
				c0,1.405-0.048,1.974-0.283,2.415c-0.496,0.93-1.652,1.045-2.466,1.045c-2.37,0-2.441-1.091-2.489-1.881H230.691z
				 M233.275,93.733c0.235-0.301,0.4-0.615,0.4-1.672c0-0.731-0.165-1.149-0.46-1.451c-0.295-0.313-0.767-0.511-1.274-0.511
				c-1.402,0-1.592,1.394-1.592,2.136c0,0.895,0.271,2.079,1.628,2.079C232.626,94.314,233.003,94.083,233.275,93.733z"/>
			<path fill="#04607D" d="M241.341,96.66c-0.637-1.544-1.404-3.472-1.404-5.167c0-0.918,0.213-1.823,0.484-2.706
				c0.33-1.045,0.637-1.788,0.838-2.287h0.777c-0.188,0.569-0.447,1.358-0.695,2.462c-0.248,1.068-0.33,1.787-0.33,2.508
				c0,1.648,0.412,2.984,1.097,5.19H241.341z"/>
			<path fill="#04607D" d="M244.078,90.076l-0.012-0.673h1.108l0.012,0.939c0.13-0.243,0.554-1.057,1.899-1.057
				c0.53,0,2.146,0.197,2.146,1.986v3.959h-1.133v-3.703c0-0.384-0.047-0.732-0.318-0.999c-0.283-0.267-0.672-0.396-1.05-0.396
				c-0.802,0-1.545,0.569-1.545,1.742v3.355h-1.108V90.076z"/>
			<path fill="#04607D" d="M250.646,90.692h6.016v0.894h-6.016V90.692z M250.646,93.037h6.016v0.905h-6.016V93.037z"/>
		</g>
		<g clip-path="url(#SVGID_14_)">
			<path fill="#04607D" d="M260.294,88.462c-0.506,0.418-1.32,0.895-1.898,1.162v-1.162c0.767-0.395,1.521-0.883,1.981-1.266h1.05
				v8.035h-1.133V88.462z"/>
			<path fill="#04607D" d="M267.253,93.49h-3.68v-1.382l3.538-5.017h1.274v5.458h1.191v0.94h-1.191v1.741h-1.133V93.49z
				 M267.289,92.55v-4.238l-2.818,4.238H267.289z"/>
			<path fill="#04607D" d="M270.425,94.175l2.136-2.066c0.448-0.43,0.896-0.895,1.262-1.382c0.472-0.639,0.602-0.999,0.602-1.429
				c0-0.395-0.142-1.312-1.31-1.312c-1.309,0-1.332,1.103-1.332,1.405h-1.238c0.012-0.396,0.047-1.162,0.754-1.766
				c0.566-0.476,1.25-0.581,1.77-0.581c1.25,0,2.524,0.627,2.524,2.346c0,0.51-0.036,0.905-0.92,2.008
				c-0.236,0.291-1.274,1.348-1.51,1.58l-1.427,1.335h3.88v0.917h-5.19V94.175z"/>
			<path fill="#04607D" d="M276.96,89.206c0-0.721,0.495-2.195,2.642-2.195c1.723,0,2.713,0.918,2.713,2.148
				c0,0.789-0.519,1.613-1.662,1.822c0.482,0.129,1.78,0.477,1.78,2.033c0,1.103-0.778,2.356-2.808,2.356
				c-0.695,0-1.521-0.14-2.111-0.673c-0.436-0.396-0.719-0.999-0.719-1.615c0-0.533,0.213-1.091,0.625-1.475
				c0.389-0.383,0.814-0.498,1.18-0.615C277.513,90.761,276.96,90.007,276.96,89.206z M279.625,94.454
				c1.311,0,1.629-0.906,1.629-1.51c0-0.895-0.673-1.475-1.604-1.475c-1.003,0-1.663,0.662-1.663,1.51
				C277.986,93.606,278.41,94.454,279.625,94.454z M279.649,87.87c-0.873,0-1.546,0.511-1.546,1.313c0,0.777,0.661,1.3,1.51,1.3
				c0.896,0,1.569-0.511,1.569-1.3C281.182,88.45,280.628,87.87,279.649,87.87z"/>
		</g>
		<path clip-path="url(#SVGID_14_)" fill="#04607D" d="M284.577,86.495c0.637,1.545,1.403,3.462,1.403,5.158
			c0,0.918-0.212,1.824-0.483,2.707c-0.33,1.046-0.637,1.801-0.837,2.3h-0.778c0.189-0.581,0.448-1.371,0.696-2.475
			c0.248-1.057,0.33-1.789,0.33-2.509c0-1.638-0.413-2.974-1.097-5.182H284.577z M289.542,93.838l-1.321,2.858h-0.802l0.755-2.858
			H289.542z M287.962,89.341h1.368v1.394h-1.368V89.341z M297.397,87.657c-0.189-0.012-0.424-0.023-0.649-0.023
			c-0.896,0-0.896,0.442-0.896,0.848V89.4h1.38v0.79h-1.38v5.042h-1.097V90.19h-1.168V89.4h1.168v-0.662
			c0-0.802,0.047-1.092,0.248-1.394c0.259-0.383,0.743-0.639,1.486-0.639c0.318,0,0.672,0.046,0.908,0.081V87.657z M298.246,86.867
			h1.321v1.185h-1.321V86.867z M298.364,95.232V89.4h1.097v5.832H298.364z M301.678,90.073l-0.012-0.674h1.108l0.012,0.941
			c0.13-0.244,0.554-1.057,1.899-1.057c0.531,0,2.146,0.198,2.146,1.987v3.962H305.7v-3.706c0-0.383-0.047-0.732-0.318-0.999
			c-0.283-0.267-0.672-0.395-1.049-0.395c-0.802,0-1.545,0.569-1.545,1.743v3.358h-1.108V90.073z M312.458,95.232
			c-0.083-0.29-0.106-0.569-0.106-0.871c-0.531,0.964-1.333,1.057-1.828,1.057c-1.356,0-2.087-0.755-2.087-1.72
			c0-0.465,0.165-1.208,1.038-1.708c0.637-0.349,1.58-0.383,2.052-0.383c0.283,0,0.46,0.012,0.802,0.035c0-0.72,0-1.034-0.212-1.289
			c-0.224-0.291-0.708-0.383-1.026-0.383c-1.12,0-1.179,0.755-1.191,0.987h-1.108c0.035-0.302,0.071-0.709,0.413-1.104
			c0.448-0.488,1.285-0.627,1.91-0.627c0.861,0,1.781,0.267,2.099,0.86c0.189,0.349,0.201,0.627,0.201,0.895l-0.047,2.788
			c0,0.093,0.012,0.871,0.094,1.464H312.458z M311.691,92.362c-0.448,0-2.134,0-2.134,1.185c0,0.372,0.236,1.011,1.226,1.011
			c0.566,0,0.991-0.221,1.262-0.627c0.247-0.395,0.259-0.72,0.283-1.534C312.127,92.374,311.962,92.362,311.691,92.362z
			 M315.43,86.855h1.108v8.376h-1.108V86.855z M322.023,86.844h1.167v7.354h3.962v1.034h-5.13V86.844z M328.522,86.844h2.465
			c1.144,0,2.488,0,3.432,1.092c0.755,0.871,1.05,2.022,1.05,3.172c0,1.812-0.766,2.928-1.415,3.439
			c-0.837,0.685-1.887,0.685-3.137,0.685h-2.394V86.844z M329.701,94.279h1.156c0.814,0,1.663-0.046,2.229-0.465
			c1.085-0.802,1.12-2.173,1.12-2.66c0-0.314-0.024-1.743-0.825-2.614c-0.543-0.592-1.227-0.732-2.264-0.732h-1.415V94.279z
			 M337.096,86.844h1.168v7.354h3.962v1.034h-5.13V86.844z M340.989,91.735h2.96v0.883h-2.96V91.735z M350.589,89.109
			c-0.047-0.29-0.2-1.452-1.84-1.452c-2.052,0-2.418,2.068-2.418,3.462c0,1.58,0.46,3.288,2.406,3.288c0.519,0,1.014-0.128,1.38-0.5
			c0.307-0.325,0.377-0.685,0.413-0.883h1.297c-0.177,1.65-1.722,2.335-3.184,2.335c-2.995,0-3.573-2.602-3.573-4.229
			c0-1.766,0.696-4.403,3.727-4.403c1.203,0,2.901,0.476,3.054,2.382H350.589z M352.724,90.689h6.014v0.895h-6.014V90.689z
			 M352.724,93.036h6.014v0.906h-6.014V93.036z"/>
		<g clip-path="url(#SVGID_14_)">
			<path fill="#04607D" d="M359.775,89.206c0-0.721,0.496-2.195,2.643-2.195c1.723,0,2.713,0.918,2.713,2.148
				c0,0.789-0.52,1.613-1.663,1.822c0.483,0.129,1.78,0.477,1.78,2.033c0,1.103-0.777,2.356-2.807,2.356
				c-0.695,0-1.521-0.14-2.111-0.673c-0.436-0.396-0.719-0.999-0.719-1.615c0-0.533,0.212-1.091,0.625-1.475
				c0.389-0.383,0.813-0.498,1.18-0.615C360.33,90.761,359.775,90.007,359.775,89.206z M362.441,94.454
				c1.31,0,1.628-0.906,1.628-1.51c0-0.895-0.673-1.475-1.604-1.475c-1.002,0-1.662,0.662-1.662,1.51
				C360.802,93.606,361.226,94.454,362.441,94.454z M362.464,87.87c-0.873,0-1.545,0.511-1.545,1.313c0,0.777,0.66,1.3,1.51,1.3
				c0.896,0,1.568-0.511,1.568-1.3C363.998,88.45,363.444,87.87,362.464,87.87z"/>
			<path fill="#04607D" d="M366.357,94.175l2.135-2.066c0.448-0.43,0.896-0.895,1.262-1.382c0.473-0.639,0.602-0.999,0.602-1.429
				c0-0.395-0.142-1.312-1.309-1.312c-1.31,0-1.334,1.103-1.334,1.405h-1.238c0.012-0.396,0.047-1.162,0.756-1.766
				c0.565-0.476,1.25-0.581,1.769-0.581c1.251,0,2.524,0.627,2.524,2.346c0,0.51-0.035,0.905-0.92,2.008
				c-0.236,0.291-1.273,1.348-1.51,1.58l-1.428,1.335h3.881v0.917h-5.189V94.175z"/>
		</g>
		<g clip-path="url(#SVGID_14_)">
			<path fill="#04607D" d="M376.595,90.18l-0.024-0.777h1.12v0.848c0.566-0.918,1.369-0.999,1.876-0.999
				c1.31,0,1.722,0.661,1.935,1.091c0.2-0.324,0.684-1.091,1.993-1.091c0.849,0,2.171,0.349,2.171,2.067v3.912h-1.121v-3.738
				c0-0.512-0.094-0.732-0.201-0.883c-0.188-0.268-0.565-0.511-1.132-0.511c-0.72,0-1.108,0.406-1.262,0.615
				c-0.26,0.36-0.26,0.999-0.26,1.254v3.263h-1.12v-3.854c0-0.72-0.425-1.277-1.298-1.277c-0.755,0-1.167,0.464-1.298,0.639
				c-0.247,0.337-0.26,0.813-0.26,1.185v3.309h-1.119V90.18z"/>
			<path fill="#04607D" d="M388.801,95.684c0.047,0.65,0.33,1.139,1.38,1.139c1.545,0,1.568-1.104,1.568-2.683
				c-0.471,0.964-1.592,0.987-1.945,0.987c-0.543,0-1.321-0.117-1.816-0.721c-0.508-0.592-0.673-1.37-0.673-2.148
				c0-1.974,1.18-2.938,2.63-2.938c1.191,0,1.629,0.58,1.864,0.883l0.012-0.801h1.073l-0.023,1.057l-0.012,3.646
				c0,1.405-0.047,1.974-0.283,2.415c-0.496,0.93-1.651,1.045-2.465,1.045c-2.371,0-2.441-1.091-2.489-1.881H388.801z
				 M391.384,93.733c0.236-0.301,0.4-0.615,0.4-1.672c0-0.731-0.164-1.149-0.459-1.451c-0.295-0.313-0.768-0.511-1.274-0.511
				c-1.403,0-1.593,1.394-1.593,2.136c0,0.895,0.271,2.079,1.629,2.079C390.736,94.314,391.113,94.083,391.384,93.733z"/>
			<path fill="#04607D" d="M396.562,86.952h0.766l-2.748,8.465h-0.777L396.562,86.952z"/>
			<path fill="#04607D" d="M402.33,86.86h1.108v7.443c0,0.128,0.023,0.628,0.047,0.929h-1.108l-0.023-0.929
				c-0.095,0.163-0.225,0.407-0.531,0.616c-0.483,0.324-1.062,0.43-1.463,0.43c-0.789,0-2.547-0.407-2.547-2.961
				c0-2.219,1.285-3.182,2.678-3.182c1.273,0,1.697,0.742,1.84,0.986V86.86z M401.917,90.61c-0.235-0.302-0.673-0.592-1.298-0.592
				c-1.627,0-1.627,1.939-1.627,2.334c0,1.033,0.271,2.229,1.627,2.229c1.746,0,1.746-1.893,1.746-2.346
				C402.365,91.388,402.164,90.924,401.917,90.61z"/>
			<path fill="#04607D" d="M405.49,86.848h1.167v7.35h3.963v1.033h-5.13V86.848z"/>
		</g>
	</g>
	<rect x="87.954" y="67.841" fill="#98C4D2" width="32.055" height="3.572"/>
	<rect x="87.954" y="89.871" fill="#04607D" width="32.055" height="3.574"/>
	<g>
		<defs>
			<path id="SVGID_74_" d="M430.74,202.401c0,0.492-0.542,0.892-1.226,0.892h-11.298c-0.105,0-0.197-0.007-0.297-0.023
				c-0.979,0.105-2.479,0.407-2.479,1.24c0,0.313,0.192,0.987,1.497,1.999l41.349,31.97c1.427,1.101,2.177,1.461,3.027,1.461
				c0.852,0,1.593-0.36,3.026-1.461l41.36-31.97c1.27-0.988,1.49-1.653,1.5-1.975v-0.044c-0.026-0.813-1.514-1.108-2.468-1.215
				c-0.083,0.013-0.185,0.017-0.271,0.017h-11.592c-0.671,0-1.223-0.4-1.223-0.892v-89.406l-60.887-0.175L430.74,202.401z"/>
		</defs>
		<clipPath id="SVGID_16_">
			<use xlink:href="#SVGID_74_"  overflow="visible"/>
		</clipPath>
		
			<linearGradient id="SVGID_18_" gradientUnits="userSpaceOnUse" x1="-2331.0879" y1="-102.1198" x2="-2329.6538" y2="-102.1198" gradientTransform="matrix(0 -88.6533 -88.6533 0 -8591.9414 -206418.6875)">
			<stop  offset="0" style="stop-color:#FFFFFF"/>
			<stop  offset="0.0379" style="stop-color:#EFF6F8"/>
			<stop  offset="0.1672" style="stop-color:#BED9E2"/>
			<stop  offset="0.2999" style="stop-color:#94C1CF"/>
			<stop  offset="0.4338" style="stop-color:#72ACBF"/>
			<stop  offset="0.5694" style="stop-color:#579DB3"/>
			<stop  offset="0.7073" style="stop-color:#4492AB"/>
			<stop  offset="0.8489" style="stop-color:#398BA6"/>
			<stop  offset="1" style="stop-color:#3589A4"/>
		</linearGradient>
		<rect x="415.44" y="112.82" clip-path="url(#SVGID_16_)" fill="url(#SVGID_18_)" width="91.759" height="127.119"/>
	</g>
	<g>
		<defs>
			<rect id="SVGID_77_" x="406.835" y="104.218" width="108.965" height="144.325"/>
		</defs>
		<clipPath id="SVGID_19_">
			<use xlink:href="#SVGID_77_"  overflow="visible"/>
		</clipPath>
		<path clip-path="url(#SVGID_19_)" fill="none" stroke="#676A6C" stroke-miterlimit="10" d="M415.439,204.51
			c0,0.313,0.192,0.987,1.498,1.999l41.35,31.968c1.424,1.104,2.174,1.463,3.024,1.463c0.852,0,1.594-0.358,3.028-1.463
			l41.359-31.968c1.299-1.012,1.498-1.685,1.498-1.997c0-0.829-1.505-1.13-2.466-1.235c-0.085,0.011-0.185,0.017-0.27,0.017h-11.595
			c-0.671,0-1.223-0.4-1.223-0.893v-89.406l-60.886-0.175l-0.02,89.58c0,0.493-0.542,0.893-1.226,0.893h-11.296
			c-0.106,0-0.198-0.008-0.298-0.024C416.942,203.374,415.439,203.677,415.439,204.51z"/>
	</g>
	<g>
		<defs>
			<path id="SVGID_79_" d="M433.432,202.401c0,1.612-1.755,2.925-3.919,2.925h-10.343l41.049,31.738
				c0.555,0.43,0.898,0.654,1.093,0.767c0.194-0.113,0.533-0.337,1.088-0.769l41.065-31.736h-10.598c-2.159,0-3.92-1.313-3.92-2.925
				v-87.385l-55.494-0.158L433.432,202.401z"/>
		</defs>
		<clipPath id="SVGID_21_">
			<use xlink:href="#SVGID_79_"  overflow="visible"/>
		</clipPath>
		
			<linearGradient id="SVGID_22_" gradientUnits="userSpaceOnUse" x1="-2331.3962" y1="-102.5713" x2="-2329.9624" y2="-102.5713" gradientTransform="matrix(0 -85.7612 -85.7612 0 -8335.3164 -199705.5156)">
			<stop  offset="0" style="stop-color:#FFFFFF"/>
			<stop  offset="0.0379" style="stop-color:#EFF6F8"/>
			<stop  offset="0.1672" style="stop-color:#BED9E2"/>
			<stop  offset="0.2999" style="stop-color:#94C1CF"/>
			<stop  offset="0.4338" style="stop-color:#72ACBF"/>
			<stop  offset="0.5694" style="stop-color:#579DB3"/>
			<stop  offset="0.7073" style="stop-color:#4492AB"/>
			<stop  offset="0.8489" style="stop-color:#398BA6"/>
			<stop  offset="1" style="stop-color:#3589A4"/>
		</linearGradient>
		<rect x="419.171" y="114.858" clip-path="url(#SVGID_21_)" fill="url(#SVGID_22_)" width="84.295" height="122.973"/>
	</g>
	<g>
		<defs>
			<rect id="SVGID_82_" x="406.835" y="104.218" width="108.965" height="144.325"/>
		</defs>
		<clipPath id="SVGID_24_">
			<use xlink:href="#SVGID_82_"  overflow="visible"/>
		</clipPath>
		<path clip-path="url(#SVGID_24_)" fill="none" stroke="#676A6C" stroke-miterlimit="10" d="M461.312,237.829
			c-0.195-0.112-0.538-0.336-1.093-0.766l-41.049-31.739h10.343c2.165,0,3.922-1.312,3.922-2.924l0.018-87.544l55.493,0.159v87.385
			c0,1.612,1.762,2.924,3.922,2.924h10.598l-41.062,31.738C461.846,237.494,461.506,237.716,461.312,237.829z"/>
		<g opacity="0.4" clip-path="url(#SVGID_24_)">
			<g>
				<defs>
					<rect id="SVGID_84_" x="417.066" y="114.138" width="88.499" height="124.52"/>
				</defs>
				<clipPath id="SVGID_26_">
					<use xlink:href="#SVGID_84_"  overflow="visible"/>
				</clipPath>
				<g clip-path="url(#SVGID_26_)">
					<defs>
						<path id="SVGID_86_" d="M433.435,202.401c0,1.612-1.758,2.925-3.922,2.925h-10.344l41.051,31.738
							c0.555,0.43,0.898,0.654,1.093,0.767c0.194-0.113,0.533-0.337,1.09-0.769l41.064-31.736h-10.598
							c-2.159,0-3.922-1.313-3.922-2.925v-87.385l-55.493-0.158L433.435,202.401z"/>
					</defs>
					<clipPath id="SVGID_28_">
						<use xlink:href="#SVGID_86_"  overflow="visible"/>
					</clipPath>
					
						<linearGradient id="SVGID_29_" gradientUnits="userSpaceOnUse" x1="-2331.3962" y1="-102.5713" x2="-2329.9624" y2="-102.5713" gradientTransform="matrix(0 -85.7612 -85.7612 0 -8335.3164 -199705.5156)">
						<stop  offset="0" style="stop-color:#FFFFFF"/>
						<stop  offset="0.0379" style="stop-color:#EFF6F8"/>
						<stop  offset="0.1672" style="stop-color:#BED9E2"/>
						<stop  offset="0.2999" style="stop-color:#94C1CF"/>
						<stop  offset="0.4338" style="stop-color:#72ACBF"/>
						<stop  offset="0.5694" style="stop-color:#579DB3"/>
						<stop  offset="0.7073" style="stop-color:#4492AB"/>
						<stop  offset="0.8489" style="stop-color:#398BA6"/>
						<stop  offset="1" style="stop-color:#3589A4"/>
					</linearGradient>
					<rect x="419.169" y="114.858" clip-path="url(#SVGID_28_)" fill="url(#SVGID_29_)" width="84.297" height="122.973"/>
				</g>
				<g clip-path="url(#SVGID_26_)">
					<defs>
						<rect id="SVGID_89_" x="417.072" y="114.138" width="88.495" height="124.52"/>
					</defs>
					<clipPath id="SVGID_31_">
						<use xlink:href="#SVGID_89_"  overflow="visible"/>
					</clipPath>
					<path clip-path="url(#SVGID_31_)" fill="none" stroke="#676A6C" stroke-miterlimit="10" d="M461.312,237.829
						c-0.195-0.112-0.538-0.336-1.093-0.766l-41.049-31.739h10.343c2.165,0,3.922-1.312,3.922-2.924l0.018-87.544l55.493,0.159
						v87.385c0,1.612,1.762,2.924,3.922,2.924h10.598l-41.062,31.738C461.846,237.494,461.506,237.716,461.312,237.829z"/>
				</g>
			</g>
		</g>
	</g>
	<g>
		<path fill="#FFFFFF" d="M440.006,134.163c0.484,0.311,1.607,0.795,2.788,0.795c2.188,0,2.866-1.395,2.847-2.44
			c-0.019-1.763-1.606-2.517-3.253-2.517h-0.949v-1.279h0.949c1.239,0,2.808-0.639,2.808-2.129c0-1.008-0.639-1.898-2.208-1.898
			c-1.006,0-1.975,0.445-2.517,0.833l-0.445-1.239c0.658-0.484,1.937-0.969,3.292-0.969c2.479,0,3.602,1.473,3.602,3.002
			c0,1.297-0.775,2.4-2.324,2.963v0.039c1.549,0.309,2.809,1.471,2.809,3.232c0,2.015-1.568,3.776-4.59,3.776
			c-1.413,0-2.652-0.445-3.271-0.853L440.006,134.163z"/>
		<path fill="#FFFFFF" d="M457.701,123.532v1.124l-5.479,11.463h-1.763l5.46-11.134v-0.039h-6.157v-1.414H457.701z"/>
		<path fill="#FFFFFF" d="M465.134,127.077c0,2.652-1.395,3.969-3.021,3.969c-1.568,0-2.924-1.259-2.943-3.795
			c0-2.518,1.375-3.932,3.041-3.932C463.972,123.319,465.134,124.675,465.134,127.077z M460.525,127.192
			c-0.039,1.607,0.563,2.827,1.627,2.827c1.123,0,1.627-1.2,1.627-2.866c0-1.529-0.445-2.807-1.627-2.807
			C461.087,124.346,460.525,125.604,460.525,127.192z M461.997,136.332l7.397-13.013h1.084l-7.396,13.013H461.997z M473.324,132.285
			c0,2.653-1.394,3.97-3,3.97c-1.568,0-2.924-1.259-2.943-3.775c0-2.537,1.375-3.951,3.039-3.951
			C472.182,128.528,473.324,129.884,473.324,132.285z M468.716,132.401c-0.02,1.607,0.6,2.827,1.646,2.827
			c1.123,0,1.626-1.2,1.626-2.866c0-1.529-0.445-2.807-1.626-2.807C469.296,129.555,468.716,130.813,468.716,132.401z"/>
	</g>
	<g>
		<path fill="#FFFFFF" d="M450.513,146.242h2.591c0.371,0,1.134,0,1.667,0.341c0.541,0.342,0.803,0.895,0.803,1.477
			c0,0.512-0.191,0.964-0.512,1.285c-0.312,0.311-0.633,0.412-0.854,0.472c0.692,0.181,1.004,0.492,1.104,1.396
			c0.102,0.854,0.172,1.477,0.453,2.279h-1.075c-0.161-0.482-0.261-1.365-0.331-1.918c-0.121-1.054-0.371-1.355-1.586-1.355h-1.266
			v3.273h-0.994V146.242z M451.488,149.364h1.586c0.11,0,0.683,0,0.953-0.16c0.141-0.08,0.492-0.342,0.492-0.943
			c0-1.176-1.044-1.176-1.445-1.176h-1.586V149.364z"/>
		<path fill="#FFFFFF" d="M457.209,146.242h2.59c0.371,0,1.135,0,1.667,0.341c0.542,0.342,0.804,0.895,0.804,1.477
			c0,0.512-0.191,0.964-0.513,1.285c-0.312,0.311-0.632,0.412-0.854,0.472c0.692,0.181,1.005,0.492,1.104,1.396
			c0.101,0.854,0.171,1.477,0.452,2.279h-1.075c-0.16-0.482-0.26-1.365-0.33-1.918c-0.121-1.054-0.372-1.355-1.587-1.355h-1.265
			v3.273h-0.994V146.242z M458.182,149.364h1.587c0.109,0,0.682,0,0.953-0.16c0.141-0.08,0.492-0.342,0.492-0.943
			c0-1.176-1.045-1.176-1.445-1.176h-1.587V149.364z"/>
		<path fill="#FFFFFF" d="M463.903,146.242h2.591c0.371,0,1.135,0,1.666,0.341c0.543,0.342,0.804,0.895,0.804,1.477
			c0,0.512-0.19,0.964-0.513,1.285c-0.311,0.311-0.632,0.412-0.854,0.472c0.693,0.181,1.005,0.492,1.105,1.396
			c0.1,0.854,0.17,1.477,0.451,2.279h-1.074c-0.16-0.482-0.261-1.365-0.331-1.918c-0.12-1.054-0.372-1.355-1.587-1.355h-1.265v3.273
			h-0.994V146.242z M464.876,149.364h1.587c0.11,0,0.683,0,0.954-0.16c0.141-0.08,0.492-0.342,0.492-0.943
			c0-1.176-1.045-1.176-1.446-1.176h-1.587V149.364z"/>
	</g>
	<g>
		<path fill="#FFFFFF" d="M469.77,148.595h0.654l0.163-0.871h-0.584v-0.403h0.66l0.223-1.216h0.473l-0.227,1.216h0.713l0.222-1.216
			h0.474l-0.229,1.216h0.584v0.403h-0.66l-0.158,0.871h0.579v0.402h-0.654l-0.216,1.152h-0.468l0.21-1.152h-0.707l-0.217,1.152
			h-0.467l0.211-1.152h-0.585L469.77,148.595z M471.605,148.595l0.164-0.871h-0.713l-0.158,0.871H471.605z"/>
	</g>
	<g>
		<path fill="#FFFFFF" d="M446.654,163.457c0,0.603,0.331,1.024,1.113,1.024c1.527,0,1.537-1.797,1.486-2.882
			c-0.361,0.683-1.014,0.874-1.557,0.874c-1.104,0-2.117-0.744-2.117-2.199c0-1.597,1.134-2.239,2.229-2.239
			c0.742,0,1.838,0.302,2.238,1.707c0.121,0.422,0.201,0.924,0.201,1.868c0,1.023-0.01,3.664-2.561,3.664
			c-0.943,0-2.048-0.371-2.088-1.817H446.654z M447.808,158.788c-0.813,0-1.245,0.673-1.245,1.496c0,0.904,0.552,1.426,1.315,1.426
			c0.783,0,1.265-0.582,1.265-1.416C449.143,159.29,448.491,158.788,447.808,158.788z"/>
		<path fill="#FFFFFF" d="M452.324,163.468c0.021,0.702,0.633,0.983,1.155,0.983c1.215,0,1.376-1.145,1.376-1.597
			c0-0.943-0.513-1.496-1.316-1.496c-0.4,0-0.723,0.15-0.934,0.361s-0.271,0.422-0.32,0.583h-0.914l0.181-4.137h3.905v0.813h-3.042
			l-0.13,2.248c0.211-0.21,0.652-0.643,1.465-0.643c1.396,0,2.078,1.096,2.078,2.29c0,1.365-0.963,2.399-2.479,2.399
			c-1.124,0-2.019-0.623-2.068-1.807H452.324z"/>
		<path fill="#FFFFFF" d="M460.084,159.753c0,1.244-0.732,1.816-1.646,1.816c-0.873,0-1.617-0.521-1.617-1.757
			c0-1.054,0.572-1.837,1.707-1.837C459.682,157.975,460.084,158.839,460.084,159.753z M459.291,159.792
			c0-0.492-0.121-1.215-0.834-1.215c-0.863,0-0.863,0.984-0.863,1.225c0,0.231,0,1.186,0.863,1.186
			C459.291,160.987,459.291,159.993,459.291,159.792z M458.156,165.505l4.428-7.73h0.662l-4.428,7.73H458.156z M464.281,162.122
			c0.18,0.201,0.411,0.521,0.411,1.275c0,1.094-0.532,1.837-1.616,1.837c-1.285,0-1.646-0.954-1.646-1.787
			c0-1.215,0.753-1.808,1.646-1.808C463.347,161.639,463.888,161.69,464.281,162.122z M463.929,163.417
			c0-0.312-0.061-1.215-0.844-1.215c-0.863,0-0.863,1.044-0.863,1.346c0,0.352,0.08,1.094,0.844,1.094
			C463.869,164.641,463.929,163.778,463.929,163.417z"/>
		<path fill="#FFFFFF" d="M473.263,159.823c-0.041-0.252-0.171-1.256-1.566-1.256c-1.747,0-2.059,1.787-2.059,2.992
			c0,1.365,0.392,2.842,2.049,2.842c0.441,0,0.863-0.111,1.174-0.432c0.262-0.281,0.322-0.593,0.352-0.764h1.104
			c-0.15,1.426-1.466,2.018-2.711,2.018c-2.55,0-3.042-2.248-3.042-3.654c0-1.525,0.592-3.805,3.173-3.805
			c1.024,0,2.47,0.411,2.601,2.059H473.263z"/>
		<path fill="#FFFFFF" d="M475.611,157.874h0.943v7.24h-0.943V157.874z"/>
	</g>
	<g>
		<path fill="#FFFFFF" d="M442.96,169.287c2.079,0,2.329,2.229,2.329,3.534c0,1.646-0.331,2.57-0.963,3.162
			c-0.492,0.463-1.074,0.533-1.387,0.533c-0.924,0-1.556-0.543-1.857-1.155c-0.23-0.462-0.451-1.134-0.451-2.38
			C440.63,171.948,440.751,169.287,442.96,169.287z M442.95,175.682c1.165,0,1.365-1.525,1.365-2.771c0-1.666-0.291-2.82-1.345-2.82
			c-1.215,0-1.376,1.596-1.376,2.841C441.594,174.477,441.896,175.682,442.95,175.682z"/>
		<path fill="#FFFFFF" d="M446.583,175.171h1.114v1.205h-1.114V175.171z"/>
		<path fill="#FFFFFF" d="M450.166,174.729c0.021,0.702,0.633,0.983,1.155,0.983c1.215,0,1.376-1.145,1.376-1.597
			c0-0.943-0.513-1.496-1.316-1.496c-0.4,0-0.723,0.15-0.934,0.361s-0.271,0.422-0.32,0.583h-0.914l0.181-4.137h3.905v0.813h-3.042
			l-0.13,2.248c0.211-0.21,0.652-0.643,1.465-0.643c1.396,0,2.078,1.096,2.078,2.29c0,1.365-0.963,2.399-2.479,2.399
			c-1.124,0-2.019-0.623-2.068-1.807H450.166z"/>
		<path fill="#FFFFFF" d="M454.672,175.462l1.817-1.787c0.381-0.371,0.763-0.773,1.074-1.195c0.401-0.552,0.512-0.863,0.512-1.234
			c0-0.342-0.12-1.135-1.114-1.135c-1.114,0-1.135,0.953-1.135,1.215h-1.054c0.01-0.342,0.04-1.004,0.643-1.525
			c0.481-0.412,1.064-0.503,1.506-0.503c1.064,0,2.148,0.542,2.148,2.028c0,0.441-0.03,0.783-0.783,1.736
			c-0.201,0.252-1.084,1.166-1.285,1.366l-1.215,1.155h3.303v0.793h-4.417V175.462z"/>
		<path fill="#FFFFFF" d="M460.142,173.353h2.521v0.763h-2.521V173.353z"/>
		<path fill="#FFFFFF" d="M465.834,169.287c2.079,0,2.33,2.229,2.33,3.534c0,1.646-0.332,2.57-0.964,3.162
			c-0.492,0.463-1.074,0.533-1.386,0.533c-0.924,0-1.557-0.543-1.857-1.155c-0.23-0.462-0.451-1.134-0.451-2.38
			C463.505,171.948,463.626,169.287,465.834,169.287z M465.824,175.682c1.165,0,1.365-1.525,1.365-2.771
			c0-1.666-0.291-2.82-1.345-2.82c-1.215,0-1.376,1.596-1.376,2.841C464.468,174.477,464.77,175.682,465.824,175.682z"/>
		<path fill="#FFFFFF" d="M469.457,175.171h1.115v1.205h-1.115V175.171z"/>
		<path fill="#FFFFFF" d="M474.155,170.522c-0.432,0.361-1.124,0.772-1.616,1.004v-1.004c0.652-0.342,1.295-0.764,1.687-1.095h0.894
			v6.948h-0.964V170.522z"/>
		<path fill="#FFFFFF" d="M477.216,169.428h4.588v0.843l-2.551,6.105h-1.135l2.672-6.115h-3.574V169.428z"/>
	</g>
	<g>
		<path fill="#FFFFFF" d="M436.131,206.852h0.997l2.723,6.731h-1.016l-0.728-1.753h-3.123l-0.728,1.753h-0.96L436.131,206.852z
			 M435.283,211.076h2.545l-1.239-3.3L435.283,211.076z"/>
		<path fill="#FFFFFF" d="M440.744,206.852h2.406c0.345,0,1.053,0,1.547,0.317c0.504,0.317,0.746,0.829,0.746,1.37
			c0,0.476-0.177,0.895-0.475,1.193c-0.289,0.289-0.588,0.383-0.793,0.438c0.643,0.167,0.932,0.456,1.025,1.296
			c0.094,0.793,0.158,1.37,0.42,2.116h-0.998c-0.148-0.447-0.242-1.269-0.308-1.78c-0.112-0.979-0.345-1.26-1.474-1.26h-1.174v3.04
			h-0.924V206.852z M441.648,209.752h1.474c0.103,0,0.634,0,0.886-0.149c0.131-0.074,0.457-0.316,0.457-0.876
			c0-1.091-0.97-1.091-1.343-1.091h-1.474V209.752z"/>
		<path fill="#FFFFFF" d="M446.96,206.852h2.406c0.345,0,1.053,0,1.547,0.317c0.504,0.317,0.746,0.829,0.746,1.37
			c0,0.476-0.177,0.895-0.475,1.193c-0.289,0.289-0.588,0.383-0.793,0.438c0.643,0.167,0.932,0.456,1.025,1.296
			c0.094,0.793,0.158,1.37,0.42,2.116h-0.998c-0.148-0.447-0.242-1.269-0.308-1.78c-0.112-0.979-0.345-1.26-1.474-1.26h-1.174v3.04
			h-0.924V206.852z M447.865,209.752h1.474c0.103,0,0.634,0,0.886-0.149c0.131-0.074,0.457-0.316,0.457-0.876
			c0-1.091-0.97-1.091-1.343-1.091h-1.474V209.752z"/>
		<path fill="#FFFFFF" d="M456.851,209.034l-1.604-0.178l0.95,1.287l-0.606,0.373l-0.624-1.473l-0.671,1.454l-0.635-0.345
			l0.988-1.297l-1.547,0.131v-0.68l1.575,0.205l-0.95-1.306l0.615-0.336l0.624,1.445l0.644-1.454l0.625,0.345l-0.979,1.306
			l1.595-0.178V209.034z"/>
		<path fill="#FFFFFF" d="M462.033,209.034l-1.604-0.178l0.951,1.287l-0.606,0.373l-0.624-1.473l-0.672,1.454l-0.634-0.345
			l0.988-1.297l-1.548,0.131v-0.68l1.576,0.205l-0.951-1.306l0.615-0.336l0.625,1.445l0.643-1.454l0.625,0.345l-0.979,1.306
			l1.594-0.178V209.034z"/>
		<path fill="#FFFFFF" d="M463.085,209.938h4.755v0.719h-4.755V209.938z M463.085,211.821h4.755v0.729h-4.755V211.821z"/>
		<path fill="#FFFFFF" d="M469.525,211.925c-0.01,0.615,0.392,1.053,1.184,1.053c0.905,0,1.287-0.578,1.287-1.146
			c0-0.68-0.457-1.035-0.932-1.137c-0.336-0.066-0.569-0.057-0.896-0.047v-0.756c0.644,0.057,1.725-0.074,1.725-1.118
			c0-0.728-0.494-1.017-1.138-1.017c-0.484,0-1.09,0.215-1.174,1.017h-0.941c0.055-1.604,1.565-1.763,2.088-1.763
			c1.408,0,2.107,0.849,2.107,1.744c0,0.531-0.289,1.295-1.287,1.52c1.38,0.195,1.38,1.436,1.38,1.566
			c0,0.904-0.737,1.902-2.237,1.902c-0.682,0-1.361-0.196-1.771-0.672c-0.363-0.41-0.373-0.877-0.383-1.146H469.525z"/>
		<path fill="#FFFFFF" d="M474.121,212.466h1.034v1.118h-1.034V212.466z"/>
		<path fill="#FFFFFF" d="M476.45,212.735l1.688-1.659c0.354-0.345,0.708-0.718,0.997-1.109c0.373-0.513,0.477-0.802,0.477-1.147
			c0-0.316-0.112-1.053-1.035-1.053c-1.035,0-1.054,0.885-1.054,1.128h-0.979c0.01-0.317,0.037-0.933,0.598-1.417
			c0.447-0.383,0.988-0.467,1.398-0.467c0.988,0,1.994,0.504,1.994,1.884c0,0.41-0.027,0.728-0.727,1.612
			c-0.187,0.233-1.007,1.082-1.193,1.269l-1.129,1.072h3.068v0.736h-4.103V212.735z"/>
		<path fill="#FFFFFF" d="M484.652,208.605c0,1.156-0.68,1.688-1.528,1.688c-0.812,0-1.501-0.485-1.501-1.632
			c0-0.979,0.531-1.706,1.585-1.706C484.28,206.955,484.652,207.757,484.652,208.605z M483.916,208.642
			c0-0.456-0.111-1.128-0.773-1.128c-0.802,0-0.802,0.914-0.802,1.137c0,0.215,0,1.101,0.802,1.101
			C483.916,209.752,483.916,208.829,483.916,208.642z M482.863,213.948l4.111-7.18h0.615l-4.111,7.18H482.863z M488.55,210.805
			c0.167,0.187,0.381,0.484,0.381,1.184c0,1.017-0.494,1.707-1.5,1.707c-1.193,0-1.529-0.887-1.529-1.66
			c0-1.128,0.699-1.678,1.529-1.678C487.683,210.358,488.186,210.405,488.55,210.805z M488.223,212.009
			c0-0.289-0.056-1.129-0.783-1.129c-0.802,0-0.802,0.971-0.802,1.25c0,0.326,0.074,1.016,0.783,1.016
			C488.168,213.145,488.223,212.345,488.223,212.009z"/>
	</g>
	<g>
		<path fill="#FFFFFF" d="M439.798,187.323c-0.542-1.335-1.195-3.002-1.195-4.467c0-0.794,0.182-1.576,0.412-2.34
			c0.281-0.904,0.542-1.547,0.713-1.979h0.662c-0.16,0.492-0.381,1.176-0.592,2.129c-0.211,0.924-0.281,1.547-0.281,2.169
			c0,1.426,0.352,2.58,0.934,4.487H439.798z"/>
		<path fill="#FFFFFF" d="M442.066,181.872c0-0.221-0.01-0.342-0.029-0.823h0.953l0.021,0.833c0.472-0.793,1.306-0.914,1.717-0.914
			c1.085,0,2.118,0.744,2.118,2.611c0,1.877-1.094,2.701-2.299,2.701c-0.732,0-1.275-0.313-1.547-0.754v2.5h-0.934V181.872z
			 M444.386,185.587c0.24,0,0.742-0.051,1.063-0.492c0.362-0.492,0.411-1.215,0.411-1.576c0-0.904-0.271-1.848-1.385-1.848
			c-1.506,0-1.506,1.597-1.506,2.049C442.97,184.332,443.06,185.587,444.386,185.587z"/>
		<path fill="#FFFFFF" d="M447.717,182.163h5.12v0.773h-5.12V182.163z M447.717,184.191h5.12v0.783h-5.12V184.191z"/>
		<path fill="#FFFFFF" d="M455.978,179.001c2.078,0,2.33,2.229,2.33,3.533c0,1.646-0.332,2.57-0.965,3.163
			c-0.492,0.462-1.074,0.532-1.385,0.532c-0.924,0-1.557-0.542-1.857-1.154c-0.231-0.463-0.452-1.135-0.452-2.38
			C453.649,181.661,453.769,179.001,455.978,179.001z M455.968,185.395c1.164,0,1.365-1.525,1.365-2.771
			c0-1.667-0.291-2.821-1.346-2.821c-1.215,0-1.375,1.596-1.375,2.842C454.613,184.191,454.914,185.395,455.968,185.395z"/>
		<path fill="#FFFFFF" d="M459.601,184.884h1.115v1.205h-1.115V184.884z"/>
		<path fill="#FFFFFF" d="M464.349,179.001c2.078,0,2.33,2.229,2.33,3.533c0,1.646-0.332,2.57-0.965,3.163
			c-0.492,0.462-1.074,0.532-1.385,0.532c-0.924,0-1.557-0.542-1.857-1.154c-0.231-0.463-0.452-1.135-0.452-2.38
			C462.02,181.661,462.14,179.001,464.349,179.001z M464.339,185.395c1.164,0,1.365-1.525,1.365-2.771
			c0-1.667-0.291-2.821-1.346-2.821c-1.215,0-1.375,1.596-1.375,2.842C462.984,184.191,463.285,185.395,464.339,185.395z"/>
		<path fill="#FFFFFF" d="M470.322,179.001c2.078,0,2.329,2.229,2.329,3.533c0,1.646-0.331,2.57-0.964,3.163
			c-0.492,0.462-1.074,0.532-1.386,0.532c-0.924,0-1.556-0.542-1.857-1.154c-0.231-0.463-0.452-1.135-0.452-2.38
			C467.992,181.661,468.113,179.001,470.322,179.001z M470.312,185.395c1.164,0,1.365-1.525,1.365-2.771
			c0-1.667-0.291-2.821-1.346-2.821c-1.215,0-1.375,1.596-1.375,2.842C468.957,184.191,469.257,185.395,470.312,185.395z"/>
		<path fill="#FFFFFF" d="M475.3,180.235c-0.432,0.361-1.125,0.773-1.617,1.004v-1.004c0.652-0.342,1.295-0.764,1.688-1.094h0.893
			v6.947H475.3V180.235z"/>
		<path fill="#FFFFFF" d="M479.576,178.538c0.542,1.336,1.194,2.992,1.194,4.459c0,0.793-0.181,1.576-0.411,2.339
			c-0.281,0.903-0.543,1.556-0.713,1.987h-0.663c0.161-0.502,0.382-1.184,0.593-2.139c0.211-0.913,0.281-1.545,0.281-2.168
			c0-1.416-0.352-2.57-0.934-4.479H479.576z"/>
	</g>
	<g>
		<path fill="#FFFFFF" d="M483.095,179.338c-0.251,0.21-0.654,0.45-0.94,0.585v-0.585c0.38-0.198,0.754-0.444,0.981-0.637h0.521
			v4.044h-0.562V179.338z"/>
	</g>
	<g>
		<path fill="#003B47" d="M221.509,377.075h1.004l2.74,6.775h-1.022l-0.732-1.765h-3.144l-0.731,1.765h-0.967L221.509,377.075z
			 M220.656,381.326h2.562l-1.248-3.322L220.656,381.326z"/>
		<path fill="#003B47" d="M229.442,377.084h0.882v6.016c0,0.104,0.019,0.507,0.038,0.751h-0.883l-0.019-0.751
			c-0.075,0.132-0.178,0.328-0.422,0.497c-0.385,0.263-0.845,0.348-1.164,0.348c-0.629,0-2.026-0.328-2.026-2.394
			c0-1.792,1.022-2.571,2.13-2.571c1.014,0,1.352,0.601,1.464,0.798V377.084z M229.114,380.115
			c-0.188-0.244-0.535-0.479-1.032-0.479c-1.296,0-1.296,1.567-1.296,1.887c0,0.835,0.217,1.802,1.296,1.802
			c1.389,0,1.389-1.53,1.389-1.896C229.47,380.744,229.31,380.369,229.114,380.115z"/>
		<path fill="#003B47" d="M234.784,383.85c-0.065-0.234-0.085-0.46-0.085-0.704c-0.422,0.779-1.06,0.854-1.454,0.854
			c-1.079,0-1.661-0.609-1.661-1.389c0-0.375,0.132-0.976,0.826-1.379c0.507-0.282,1.257-0.31,1.633-0.31
			c0.225,0,0.365,0.009,0.638,0.027c0-0.581,0-0.835-0.169-1.041c-0.178-0.234-0.563-0.31-0.816-0.31
			c-0.892,0-0.938,0.609-0.947,0.797h-0.883c0.028-0.243,0.057-0.572,0.329-0.891c0.356-0.395,1.022-0.507,1.52-0.507
			c0.686,0,1.417,0.216,1.671,0.694c0.15,0.281,0.159,0.507,0.159,0.723l-0.037,2.252c0,0.075,0.009,0.704,0.075,1.183H234.784z
			 M234.173,381.532c-0.356,0-1.698,0-1.698,0.957c0,0.301,0.188,0.816,0.976,0.816c0.451,0,0.789-0.178,1.005-0.507
			c0.196-0.318,0.206-0.581,0.225-1.238C234.521,381.542,234.389,381.532,234.173,381.532z"/>
		<path fill="#003B47" d="M237.104,379.909c0-0.207-0.01-0.319-0.028-0.77h0.892l0.019,0.778c0.441-0.741,1.221-0.854,1.605-0.854
			c1.013,0,1.979,0.694,1.979,2.439c0,1.755-1.022,2.524-2.148,2.524c-0.686,0-1.192-0.291-1.445-0.703v2.336h-0.873V379.909z
			 M239.272,383.381c0.225,0,0.694-0.047,0.994-0.46c0.338-0.459,0.385-1.135,0.385-1.473c0-0.845-0.253-1.727-1.295-1.727
			c-1.407,0-1.407,1.492-1.407,1.914C237.949,382.208,238.033,383.381,239.272,383.381z"/>
		<path fill="#003B47" d="M242.145,379.121h0.836v-0.985l0.872-0.282v1.268h1.052v0.647h-1.052v2.824c0,0.234,0,0.629,0.629,0.629
			c0.179,0,0.348-0.028,0.423-0.047v0.685c-0.16,0.028-0.413,0.057-0.732,0.057c-0.807,0-1.191-0.234-1.191-1.004v-3.144h-0.836
			V379.121z"/>
		<path fill="#003B47" d="M246.53,381.654c-0.02,0.977,0.385,1.698,1.351,1.698c0.573,0,1.032-0.3,1.107-0.976h0.883
			c-0.028,0.234-0.066,0.619-0.404,0.985c-0.206,0.234-0.676,0.629-1.623,0.629c-1.482,0-2.187-0.92-2.187-2.412
			c0-0.929,0.188-1.698,0.929-2.215c0.451-0.318,1.014-0.347,1.286-0.347c2.111,0,2.064,1.867,2.046,2.637H246.53z M249.016,381.035
			c0.01-0.45-0.075-1.389-1.163-1.389c-0.573,0-1.268,0.347-1.286,1.389H249.016z"/>
		<path fill="#003B47" d="M254.48,377.084h0.882v6.016c0,0.104,0.019,0.507,0.038,0.751h-0.883l-0.019-0.751
			c-0.075,0.132-0.178,0.328-0.422,0.497c-0.385,0.263-0.845,0.348-1.164,0.348c-0.629,0-2.026-0.328-2.026-2.394
			c0-1.792,1.022-2.571,2.13-2.571c1.014,0,1.352,0.601,1.464,0.798V377.084z M254.152,380.115
			c-0.188-0.244-0.535-0.479-1.032-0.479c-1.296,0-1.296,1.567-1.296,1.887c0,0.835,0.217,1.802,1.296,1.802
			c1.389,0,1.389-1.53,1.389-1.896C254.508,380.744,254.348,380.369,254.152,380.115z"/>
		<path fill="#003B47" d="M261.916,377.731c-0.149-0.009-0.338-0.019-0.516-0.019c-0.713,0-0.713,0.356-0.713,0.686v0.741h1.098
			v0.638h-1.098v4.073h-0.873v-4.073h-0.929v-0.638h0.929v-0.535c0-0.647,0.037-0.882,0.197-1.126
			c0.196-0.301,0.572-0.517,1.182-0.517c0.254,0,0.535,0.038,0.723,0.066V377.731z"/>
		<path fill="#003B47" d="M262.733,380.096c0-0.319-0.019-0.647-0.047-0.957h0.892l0.019,0.91c0.169-0.657,0.732-0.873,1.127-0.929
			c0.263-0.038,0.459-0.028,0.609-0.02v0.863c-0.047-0.019-0.103-0.027-0.169-0.037c-0.065-0.01-0.149-0.01-0.253-0.01
			c-1.042,0-1.286,0.62-1.286,1.427v2.506h-0.892V380.096z"/>
		<path fill="#003B47" d="M268.384,379.017c1.886,0,2.309,1.482,2.309,2.468c0,1.38-0.779,2.524-2.384,2.524
			c-1.558,0-2.318-1.079-2.318-2.459C265.991,380.388,266.536,379.017,268.384,379.017z M268.328,383.352
			c0.666,0,1.427-0.479,1.427-1.896c0-1.173-0.545-1.792-1.37-1.792c-0.563,0-1.474,0.356-1.474,1.83
			C266.911,382.462,267.324,383.352,268.328,383.352z"/>
		<path fill="#003B47" d="M272.065,379.768l-0.019-0.629h0.892v0.685c0.45-0.741,1.089-0.807,1.492-0.807
			c1.041,0,1.37,0.535,1.539,0.882c0.159-0.263,0.544-0.882,1.586-0.882c0.676,0,1.727,0.281,1.727,1.67v3.163h-0.892v-3.021
			c0-0.413-0.075-0.592-0.159-0.714c-0.15-0.216-0.451-0.413-0.901-0.413c-0.572,0-0.882,0.329-1.004,0.498
			c-0.206,0.291-0.206,0.807-0.206,1.014v2.637h-0.892v-3.116c0-0.581-0.338-1.032-1.032-1.032c-0.601,0-0.93,0.376-1.032,0.517
			c-0.197,0.272-0.207,0.657-0.207,0.957v2.675h-0.892V379.768z"/>
		<path fill="#003B47" d="M283.593,380.096c0-0.319-0.019-0.647-0.047-0.957h0.892l0.019,0.91c0.169-0.657,0.732-0.873,1.127-0.929
			c0.263-0.038,0.459-0.028,0.609-0.02v0.863c-0.047-0.019-0.103-0.027-0.169-0.037c-0.065-0.01-0.149-0.01-0.253-0.01
			c-1.042,0-1.286,0.62-1.286,1.427v2.506h-0.892V380.096z"/>
		<path fill="#003B47" d="M287.734,381.654c-0.02,0.977,0.385,1.698,1.351,1.698c0.573,0,1.032-0.3,1.107-0.976h0.883
			c-0.028,0.234-0.066,0.619-0.404,0.985c-0.206,0.234-0.676,0.629-1.623,0.629c-1.482,0-2.187-0.92-2.187-2.412
			c0-0.929,0.188-1.698,0.929-2.215c0.451-0.318,1.014-0.347,1.286-0.347c2.111,0,2.064,1.867,2.046,2.637H287.734z M290.22,381.035
			c0.01-0.45-0.075-1.389-1.163-1.389c-0.573,0-1.268,0.347-1.286,1.389H290.22z"/>
		<path fill="#003B47" d="M294.774,377.731c-0.149-0.009-0.338-0.019-0.516-0.019c-0.713,0-0.713,0.356-0.713,0.686v0.741h1.098
			v0.638h-1.098v4.073h-0.873v-4.073h-0.929v-0.638h0.929v-0.535c0-0.647,0.037-0.882,0.197-1.126
			c0.196-0.301,0.572-0.517,1.182-0.517c0.254,0,0.535,0.038,0.723,0.066V377.731z"/>
		<path fill="#003B47" d="M295.479,382.724h1.042v1.126h-1.042V382.724z"/>
		<path fill="#003B47" d="M302.482,378.379c-0.403,0.338-1.051,0.723-1.511,0.938v-0.938c0.609-0.318,1.21-0.713,1.576-1.022h0.835
			v6.494h-0.9V378.379z"/>
	</g>
</g>
</svg>
