<?xml version="1.0" encoding="utf-8"?>
<!-- Generator: Adobe Illustrator 17.0.0, SVG Export Plug-In . SVG Version: 6.00 Build 0)  -->
<!DOCTYPE svg PUBLIC "-//W3C//DTD SVG 1.1//EN" "http://www.w3.org/Graphics/SVG/1.1/DTD/svg11.dtd">
<svg version="1.1" id="Layer_1" xmlns="http://www.w3.org/2000/svg" xmlns:xlink="http://www.w3.org/1999/xlink" x="0px" y="0px"
	 width="311.74px" height="79.836px" viewBox="0 0 311.74 79.836" enable-background="new 0 0 311.74 79.836" xml:space="preserve">
<polygon fill="#04607D" points="0,78.164 22.434,69.978 38.2,59.939 38.749,59.799 58.38,60.956 62.321,55.977 62.828,55.654 
	119.817,42.385 142.194,40.599 142.268,40.596 171.697,40.596 182.247,35.625 182.496,35.545 220.526,29.604 260.18,16.886 
	270.31,7.207 270.987,6.955 286.401,7.692 311.194,0 311.74,1.703 286.791,9.444 286.471,9.485 271.291,8.759 261.292,18.312 
	260.941,18.522 221.023,31.324 220.884,31.354 182.913,37.289 172.296,42.294 171.903,42.383 142.308,42.383 120.027,44.164 
	63.558,57.32 59.519,62.422 58.75,62.766 38.936,61.599 23.836,71.214 0.632,79.836 "/>
</svg>
