<?xml version="1.0" encoding="utf-8"?>
<!-- Generator: Adobe Illustrator 17.0.0, SVG Export Plug-In . SVG Version: 6.00 Build 0)  -->
<!DOCTYPE svg PUBLIC "-//W3C//DTD SVG 1.1//EN" "http://www.w3.org/Graphics/SVG/1.1/DTD/svg11.dtd">
<svg version="1.1" id="Layer_1" xmlns="http://www.w3.org/2000/svg" xmlns:xlink="http://www.w3.org/1999/xlink" x="0px" y="0px"
	 width="182.501px" height="225.228px" viewBox="0 0 182.501 225.228" enable-background="new 0 0 182.501 225.228"
	 xml:space="preserve">
<g>
	<g>
		<defs>
			<rect id="SVGID_30_" x="0" y="0" width="182.501" height="225.228"/>
		</defs>
		<clipPath id="SVGID_2_">
			<use xlink:href="#SVGID_30_"  overflow="visible"/>
		</clipPath>
		<path clip-path="url(#SVGID_2_)" fill="#00435B" d="M178.017,210.795c0,5.411-3.803,9.798-8.499,9.798H12.982
			c-4.692,0-8.498-4.387-8.498-9.798V14.432c0-5.411,3.806-9.798,8.498-9.798h156.536c4.695,0,8.499,4.387,8.499,9.798V210.795z"/>
		<path clip-path="url(#SVGID_2_)" fill="none" stroke="#FFFFFF" stroke-width="2.1795" stroke-miterlimit="10" d="M162.661,42.308
			c0,5.697-3.666,10.317-8.192,10.317h-46.207c-4.525,0-8.194-4.62-8.194-10.317v-9.574c0-5.698,3.669-10.317,8.194-10.317h46.207
			c4.527,0,8.192,4.618,8.192,10.317V42.308z"/>
		<path clip-path="url(#SVGID_2_)" fill="none" stroke="#FFFFFF" stroke-width="2.1795" stroke-miterlimit="10" d="M82.471,42.308
			c0,5.697-3.669,10.317-8.192,10.317H28.072c-4.528,0-8.194-4.62-8.194-10.317v-9.574c0-5.698,3.666-10.317,8.194-10.317h46.207
			c4.523,0,8.192,4.618,8.192,10.317V42.308z"/>
	</g>
	<g>
		<defs>
			<path id="SVGID_32_" d="M25.66,149.102c0,0.482-0.449,0.874-1.019,0.874h-9.43c-0.085,0-0.165-0.01-0.245-0.024
				c-0.813,0.1-2.069,0.399-2.069,1.21c0,0.308,0.16,0.966,1.252,1.953l34.498,31.244c1.191,1.078,1.813,1.429,2.524,1.429
				c0.711,0,1.33-0.351,2.525-1.429l34.508-31.244c1.086-0.987,1.249-1.645,1.249-1.949c0-0.813-1.255-1.107-2.058-1.21
				c-0.073,0.013-0.155,0.02-0.222,0.02h-9.676c-0.559,0-1.021-0.392-1.021-0.874V61.729l-50.798-0.17L25.66,149.102z"/>
		</defs>
		<clipPath id="SVGID_4_">
			<use xlink:href="#SVGID_32_"  overflow="visible"/>
		</clipPath>
		
			<linearGradient id="SVGID_6_" gradientUnits="userSpaceOnUse" x1="-2895.3481" y1="409.3792" x2="-2893.9539" y2="409.3792" gradientTransform="matrix(0 -76.2709 -73.7889 0 30258.8164 -220707.1406)">
			<stop  offset="0" style="stop-color:#404041"/>
			<stop  offset="0.0139" style="stop-color:#444445"/>
			<stop  offset="0.1522" style="stop-color:#68696A"/>
			<stop  offset="0.2969" style="stop-color:#868889"/>
			<stop  offset="0.4479" style="stop-color:#9E9FA1"/>
			<stop  offset="0.6078" style="stop-color:#AEB0B2"/>
			<stop  offset="0.7825" style="stop-color:#B8BABC"/>
			<stop  offset="1" style="stop-color:#BBBDBF"/>
		</linearGradient>
		<rect x="12.896" y="61.558" clip-path="url(#SVGID_4_)" fill="url(#SVGID_6_)" width="76.556" height="124.231"/>
	</g>
	<g>
		<defs>
			<path id="SVGID_35_" d="M27.911,149.102c0,1.577-1.464,2.857-3.27,2.857H16.01l34.247,31.02c0.467,0.418,0.749,0.638,0.913,0.747
				c0.164-0.11,0.443-0.329,0.91-0.749l34.26-31.018h-8.843c-1.801,0-3.272-1.28-3.272-2.857V63.704l-46.298-0.155L27.911,149.102z"
				/>
		</defs>
		<clipPath id="SVGID_8_">
			<use xlink:href="#SVGID_35_"  overflow="visible"/>
		</clipPath>
		
			<linearGradient id="SVGID_10_" gradientUnits="userSpaceOnUse" x1="-2897.3757" y1="398.6589" x2="-2895.9814" y2="398.6589" gradientTransform="matrix(0 -46.7964 -45.2735 0 18099.8594 -135463.1094)">
			<stop  offset="0" style="stop-color:#FFFFFF"/>
			<stop  offset="0.2973" style="stop-color:#F8F8F8"/>
			<stop  offset="0.7441" style="stop-color:#E6E5E3"/>
			<stop  offset="1" style="stop-color:#D8D7D4"/>
		</linearGradient>
		<rect x="16.01" y="63.55" clip-path="url(#SVGID_8_)" fill="url(#SVGID_10_)" width="70.331" height="120.177"/>
	</g>
	<g>
		<defs>
			<rect id="SVGID_38_" x="0" y="0" width="182.501" height="225.228"/>
		</defs>
		<clipPath id="SVGID_12_">
			<use xlink:href="#SVGID_38_"  overflow="visible"/>
		</clipPath>
		<g opacity="0.5" clip-path="url(#SVGID_12_)">
			<g>
				<defs>
					<rect id="SVGID_40_" x="16.006" y="63.548" width="70.338" height="120.178"/>
				</defs>
				<clipPath id="SVGID_14_">
					<use xlink:href="#SVGID_40_"  overflow="visible"/>
				</clipPath>
				<g clip-path="url(#SVGID_14_)">
					<defs>
						<path id="SVGID_42_" d="M27.911,149.102c0,1.577-1.465,2.858-3.27,2.858h-8.63l34.246,31.019
							c0.466,0.418,0.75,0.638,0.913,0.747c0.164-0.11,0.443-0.329,0.909-0.749l34.261-31.017h-8.843
							c-1.801,0-3.272-1.281-3.272-2.858v-85.4l-46.298-0.153L27.911,149.102z"/>
					</defs>
					<clipPath id="SVGID_16_">
						<use xlink:href="#SVGID_42_"  overflow="visible"/>
					</clipPath>
					
						<linearGradient id="SVGID_18_" gradientUnits="userSpaceOnUse" x1="-2889.0476" y1="443.1166" x2="-2887.6536" y2="443.1166" gradientTransform="matrix(0 77.832 75.2992 0 -33315.1523 224962.2344)">
						<stop  offset="0" style="stop-color:#59595C"/>
						<stop  offset="0.6455" style="stop-color:#C7C7C8"/>
						<stop  offset="1" style="stop-color:#FFFFFF"/>
					</linearGradient>
					<rect x="16.011" y="63.55" clip-path="url(#SVGID_16_)" fill="url(#SVGID_18_)" width="70.33" height="120.177"/>
				</g>
			</g>
		</g>
	</g>
	<g>
		<defs>
			<rect id="SVGID_45_" x="0" y="0" width="182.501" height="225.228"/>
		</defs>
		<clipPath id="SVGID_19_">
			<use xlink:href="#SVGID_45_"  overflow="visible"/>
		</clipPath>
		<g clip-path="url(#SVGID_19_)">
			<path fill="#FFFFFF" d="M38.242,82.766v-2.784h-4.594V79.07l4.412-6.529h1.445v6.355h1.384v1.086h-1.384v2.784H38.242z
				 M38.242,78.896v-3.413c0-0.535,0.016-1.07,0.046-1.605h-0.046c-0.305,0.599-0.547,1.039-0.821,1.511l-2.419,3.477v0.031H38.242z
				"/>
			<path fill="#FFFFFF" d="M41.788,80.17c0-1.29,0.745-2.202,1.962-2.737l-0.015-0.047c-1.095-0.535-1.567-1.416-1.567-2.297
				c0-1.62,1.324-2.722,3.059-2.722c1.916,0,2.875,1.243,2.875,2.517c0,0.865-0.411,1.794-1.628,2.392v0.047
				c1.232,0.504,1.993,1.4,1.993,2.644c0,1.777-1.477,2.973-3.362,2.973C43.035,82.939,41.788,81.665,41.788,80.17z M47.112,80.108
				c0-1.243-0.837-1.841-2.175-2.234c-1.156,0.347-1.78,1.133-1.78,2.108c-0.046,1.038,0.715,1.95,1.978,1.95
				C46.336,81.932,47.112,81.161,47.112,80.108z M43.431,74.994c0,1.022,0.744,1.573,1.886,1.888
				c0.853-0.299,1.507-0.928,1.507-1.856c0-0.817-0.473-1.667-1.674-1.667C44.039,73.359,43.431,74.114,43.431,74.994z"/>
			<path fill="#FFFFFF" d="M54.172,75.419c0,2.155-1.095,3.226-2.373,3.226c-1.232,0-2.297-1.023-2.313-3.084
				c0-2.045,1.08-3.193,2.389-3.193C53.26,72.367,54.172,73.469,54.172,75.419z M50.552,75.514c-0.03,1.306,0.44,2.297,1.278,2.297
				c0.882,0,1.277-0.976,1.277-2.328c0-1.243-0.35-2.281-1.277-2.281C50.992,73.201,50.552,74.224,50.552,75.514z M51.707,82.939
				l5.813-10.571h0.852l-5.812,10.571H51.707z M60.607,79.652c0,2.155-1.096,3.225-2.357,3.225c-1.232,0-2.298-1.022-2.313-3.067
				c0-2.062,1.08-3.21,2.388-3.21C59.71,76.599,60.607,77.701,60.607,79.652z M56.986,79.745c-0.015,1.306,0.473,2.297,1.293,2.297
				c0.883,0,1.278-0.976,1.278-2.328c0-1.243-0.35-2.281-1.278-2.281C57.443,77.433,56.986,78.455,56.986,79.745z"/>
		</g>
		<g clip-path="url(#SVGID_19_)">
			<path fill="#FFFFFF" d="M28.049,40.118c0.533,0.339,1.311,0.621,2.131,0.621c1.215,0,1.926-0.663,1.926-1.623
				c0-0.889-0.492-1.397-1.734-1.892c-1.503-0.55-2.432-1.354-2.432-2.695c0-1.482,1.188-2.583,2.977-2.583
				c0.943,0,1.626,0.226,2.035,0.466l-0.327,1.002c-0.301-0.169-0.915-0.452-1.748-0.452c-1.257,0-1.735,0.776-1.735,1.426
				c0,0.89,0.561,1.327,1.83,1.835c1.558,0.621,2.35,1.397,2.35,2.795c0,1.468-1.052,2.738-3.223,2.738
				c-0.889,0-1.857-0.269-2.35-0.607L28.049,40.118z"/>
			<path fill="#FFFFFF" d="M36.351,32.822v1.962h1.721v0.945h-1.721v3.685c0,0.847,0.232,1.326,0.9,1.326
				c0.314,0,0.547-0.042,0.697-0.085l0.055,0.932c-0.232,0.1-0.602,0.17-1.065,0.17c-0.56,0-1.011-0.184-1.298-0.522
				c-0.341-0.367-0.464-0.974-0.464-1.778v-3.727h-1.024v-0.945h1.024v-1.638L36.351,32.822z"/>
			<path fill="#FFFFFF" d="M39.424,36.914c0-0.804-0.014-1.496-0.055-2.131h1.051l0.041,1.341h0.055
				c0.301-0.917,1.025-1.496,1.83-1.496c0.137,0,0.232,0.014,0.342,0.042v1.172c-0.123-0.028-0.246-0.042-0.41-0.042
				c-0.846,0-1.447,0.663-1.611,1.595c-0.027,0.169-0.055,0.367-0.055,0.578v3.642h-1.188V36.914z"/>
			<path fill="#FFFFFF" d="M49.611,38.143c0,2.526-1.693,3.627-3.291,3.627c-1.789,0-3.168-1.354-3.168-3.515
				c0-2.286,1.447-3.627,3.277-3.627C48.328,34.628,49.611,36.054,49.611,38.143z M44.367,38.213c0,1.496,0.833,2.625,2.008,2.625
				c1.146,0,2.008-1.114,2.008-2.653c0-1.157-0.561-2.625-1.98-2.625S44.367,36.914,44.367,38.213z"/>
			<path fill="#FFFFFF" d="M52.314,37.917h0.027c0.164-0.24,0.396-0.537,0.588-0.776l1.938-2.357h1.448l-2.555,2.809l2.909,4.022
				h-1.462l-2.279-3.274l-0.615,0.706v2.568h-1.188V31.594h1.188V37.917z"/>
			<path fill="#FFFFFF" d="M57.94,38.425c0.027,1.68,1.065,2.371,2.267,2.371c0.861,0,1.38-0.155,1.83-0.353l0.205,0.889
				c-0.424,0.198-1.146,0.424-2.199,0.424c-2.034,0-3.25-1.384-3.25-3.444s1.175-3.684,3.101-3.684c2.157,0,2.731,1.962,2.731,3.218
				c0,0.254-0.027,0.452-0.041,0.579H57.94z M61.464,37.535c0.014-0.79-0.313-2.018-1.666-2.018c-1.216,0-1.748,1.157-1.844,2.018
				H61.464z"/>
		</g>
		<g clip-path="url(#SVGID_19_)">
			<path fill="#FFFFFF" d="M106.433,29.338h3.468v0.722h-2.636v2.214h2.436v0.712h-2.436v3.016h-0.832V29.338z"/>
			<path fill="#FFFFFF" d="M113.439,36.002l-0.067-0.603h-0.028c-0.258,0.375-0.755,0.712-1.414,0.712
				c-0.936,0-1.414-0.683-1.414-1.375c0-1.156,0.994-1.789,2.779-1.779v-0.099c0-0.396-0.104-1.107-1.051-1.107
				c-0.43,0-0.878,0.138-1.203,0.355l-0.191-0.573c0.383-0.257,0.938-0.426,1.52-0.426c1.414,0,1.758,0.999,1.758,1.958v1.79
				c0,0.415,0.019,0.82,0.076,1.146H113.439z M113.314,33.56c-0.916-0.02-1.958,0.148-1.958,1.078c0,0.563,0.363,0.831,0.793,0.831
				c0.602,0,0.983-0.396,1.118-0.802c0.027-0.089,0.047-0.188,0.047-0.276V33.56z"/>
			<path fill="#FFFFFF" d="M116.499,29.843v1.375h1.204v0.662h-1.204v2.581c0,0.593,0.162,0.93,0.63,0.93
				c0.221,0,0.383-0.03,0.488-0.06l0.037,0.652c-0.162,0.069-0.42,0.119-0.744,0.119c-0.393,0-0.707-0.129-0.908-0.366
				c-0.238-0.257-0.324-0.683-0.324-1.246v-2.61h-0.717v-0.662h0.717V30.07L116.499,29.843z"/>
			<path fill="#FFFFFF" d="M121.211,36.002l-0.067-0.603h-0.028c-0.258,0.375-0.755,0.712-1.414,0.712
				c-0.936,0-1.414-0.683-1.414-1.375c0-1.156,0.994-1.789,2.779-1.779v-0.099c0-0.396-0.104-1.107-1.051-1.107
				c-0.43,0-0.878,0.138-1.203,0.355l-0.191-0.573c0.383-0.257,0.938-0.426,1.52-0.426c1.414,0,1.758,0.999,1.758,1.958v1.79
				c0,0.415,0.019,0.82,0.076,1.146H121.211z M121.086,33.56c-0.916-0.02-1.958,0.148-1.958,1.078c0,0.563,0.363,0.831,0.793,0.831
				c0.602,0,0.983-0.396,1.118-0.802c0.027-0.089,0.047-0.188,0.047-0.276V33.56z"/>
			<path fill="#FFFFFF" d="M123.258,28.983h0.841v7.02h-0.841V28.983z"/>
			<path fill="#FFFFFF" d="M124.806,36.398l2.665-7.168h0.649l-2.674,7.168H124.806z"/>
			<path fill="#FFFFFF" d="M128.82,36.002v-6.664h0.908l2.063,3.372c0.479,0.781,0.851,1.482,1.156,2.165l0.02-0.01
				c-0.077-0.89-0.096-1.701-0.096-2.739v-2.788h0.783v6.664h-0.841l-2.044-3.381c-0.449-0.742-0.879-1.503-1.203-2.225l-0.029,0.01
				c0.048,0.84,0.066,1.641,0.066,2.748v2.848H128.82z"/>
			<path fill="#FFFFFF" d="M139.265,33.571c0,1.77-1.185,2.541-2.303,2.541c-1.251,0-2.216-0.949-2.216-2.462
				c0-1.603,1.013-2.542,2.292-2.542C138.367,31.108,139.265,32.107,139.265,33.571z M135.597,33.619
				c0,1.048,0.582,1.839,1.404,1.839c0.802,0,1.404-0.78,1.404-1.858c0-0.811-0.393-1.839-1.386-1.839S135.597,32.71,135.597,33.619
				z"/>
			<path fill="#FFFFFF" d="M140.33,32.512c0-0.494-0.01-0.899-0.039-1.295h0.746l0.047,0.791h0.02c0.229-0.455,0.764-0.9,1.528-0.9
				c0.64,0,1.634,0.396,1.634,2.037v2.857h-0.842v-2.759c0-0.771-0.276-1.413-1.069-1.413c-0.554,0-0.983,0.405-1.127,0.89
				c-0.038,0.108-0.058,0.257-0.058,0.405v2.877h-0.84V32.512z"/>
			<path fill="#FFFFFF" d="M147.584,33.006v0.644h-2.359v-0.644H147.584z"/>
		</g>
		<g clip-path="url(#SVGID_19_)">
			<path fill="#FFFFFF" d="M112.504,47.859v-4.123h-0.649v-0.662h0.649v-0.228c0-0.673,0.144-1.285,0.535-1.671
				c0.314-0.316,0.735-0.445,1.127-0.445c0.296,0,0.555,0.069,0.717,0.139l-0.115,0.672c-0.124-0.059-0.296-0.108-0.535-0.108
				c-0.716,0-0.897,0.652-0.897,1.385v0.257h1.118v0.662h-1.118v4.123H112.504z"/>
			<path fill="#FFFFFF" d="M117.769,47.859l-0.067-0.603h-0.028c-0.258,0.375-0.755,0.712-1.414,0.712
				c-0.936,0-1.414-0.683-1.414-1.375c0-1.156,0.994-1.789,2.779-1.779v-0.099c0-0.396-0.104-1.107-1.051-1.107
				c-0.43,0-0.878,0.138-1.203,0.355l-0.191-0.573c0.383-0.257,0.938-0.426,1.52-0.426c1.414,0,1.758,0.999,1.758,1.958v1.79
				c0,0.415,0.019,0.82,0.076,1.146H117.769z M117.644,45.416c-0.916-0.02-1.958,0.148-1.958,1.078c0,0.563,0.363,0.831,0.793,0.831
				c0.602,0,0.983-0.396,1.118-0.802c0.027-0.089,0.047-0.188,0.047-0.276V45.416z"/>
			<path fill="#FFFFFF" d="M120.829,41.699v1.375h1.204v0.662h-1.204v2.581c0,0.593,0.162,0.93,0.63,0.93
				c0.221,0,0.383-0.03,0.488-0.06l0.037,0.652c-0.162,0.069-0.42,0.119-0.744,0.119c-0.393,0-0.707-0.129-0.908-0.366
				c-0.238-0.257-0.324-0.683-0.324-1.246v-2.61h-0.717v-0.662h0.717v-1.147L120.829,41.699z"/>
			<path fill="#FFFFFF" d="M125.541,47.859l-0.067-0.603h-0.028c-0.258,0.375-0.755,0.712-1.414,0.712
				c-0.936,0-1.414-0.683-1.414-1.375c0-1.156,0.994-1.789,2.779-1.779v-0.099c0-0.396-0.104-1.107-1.051-1.107
				c-0.43,0-0.878,0.138-1.203,0.355l-0.191-0.573c0.383-0.257,0.938-0.426,1.52-0.426c1.414,0,1.758,0.999,1.758,1.958v1.79
				c0,0.415,0.019,0.82,0.076,1.146H125.541z M125.416,45.416c-0.916-0.02-1.958,0.148-1.958,1.078c0,0.563,0.363,0.831,0.793,0.831
				c0.602,0,0.983-0.396,1.118-0.802c0.027-0.089,0.047-0.188,0.047-0.276V45.416z"/>
			<path fill="#FFFFFF" d="M127.588,40.839h0.841v7.02h-0.841V40.839z"/>
			<path fill="#FFFFFF" d="M137.324,44.932c-0.048-0.929-0.105-2.047-0.096-2.877H137.2c-0.22,0.781-0.487,1.611-0.812,2.531
				l-1.137,3.233h-0.631l-1.041-3.174c-0.306-0.939-0.563-1.8-0.745-2.591h-0.019c-0.02,0.83-0.067,1.948-0.125,2.946l-0.172,2.857
				h-0.793l0.449-6.664h1.061l1.098,3.224c0.268,0.82,0.488,1.552,0.65,2.244h0.028c0.163-0.672,0.392-1.404,0.679-2.244
				l1.146-3.224h1.06l0.401,6.664h-0.813L137.324,44.932z"/>
			<path fill="#FFFFFF" d="M140.415,41.195v6.664h-0.831v-6.664H140.415z"/>
		</g>
		<g clip-path="url(#SVGID_19_)">
			<path fill="#FFFFFF" d="M42.974,92.509h2.314c0.332,0,1.014,0,1.49,0.314c0.484,0.314,0.717,0.824,0.717,1.361
				c0,0.473-0.17,0.89-0.457,1.186c-0.277,0.287-0.564,0.38-0.763,0.436c0.619,0.167,0.897,0.454,0.987,1.287
				c0.09,0.787,0.152,1.362,0.403,2.103h-0.96c-0.144-0.444-0.232-1.26-0.296-1.769c-0.108-0.973-0.332-1.251-1.417-1.251h-1.131
				v3.02h-0.889V92.509z M43.846,95.389h1.417c0.099,0,0.61,0,0.853-0.148c0.125-0.073,0.439-0.314,0.439-0.87
				c0-1.084-0.934-1.084-1.292-1.084h-1.417V95.389z"/>
			<path fill="#FFFFFF" d="M48.955,92.509h2.314c0.332,0,1.014,0,1.49,0.314c0.484,0.314,0.717,0.824,0.717,1.361
				c0,0.473-0.17,0.89-0.457,1.186c-0.277,0.287-0.564,0.38-0.763,0.436c0.619,0.167,0.897,0.454,0.987,1.287
				c0.09,0.787,0.152,1.362,0.403,2.103h-0.96c-0.144-0.444-0.232-1.26-0.296-1.769c-0.108-0.973-0.332-1.251-1.417-1.251h-1.131
				v3.02h-0.889V92.509z M49.826,95.389h1.417c0.099,0,0.61,0,0.853-0.148c0.125-0.073,0.439-0.314,0.439-0.87
				c0-1.084-0.934-1.084-1.292-1.084h-1.417V95.389z"/>
			<path fill="#FFFFFF" d="M54.935,92.509h2.314c0.332,0,1.014,0,1.49,0.314c0.484,0.314,0.717,0.824,0.717,1.361
				c0,0.473-0.17,0.89-0.457,1.186c-0.277,0.287-0.564,0.38-0.763,0.436c0.619,0.167,0.897,0.454,0.987,1.287
				c0.09,0.787,0.152,1.362,0.403,2.103h-0.96c-0.144-0.444-0.232-1.26-0.296-1.769c-0.108-0.973-0.332-1.251-1.417-1.251h-1.131
				v3.02h-0.889V92.509z M55.806,95.389h1.417c0.099,0,0.61,0,0.853-0.148c0.125-0.073,0.439-0.314,0.439-0.87
				c0-1.084-0.934-1.084-1.292-1.084h-1.417V95.389z"/>
		</g>
		<g clip-path="url(#SVGID_19_)">
			<path fill="#FFFFFF" d="M38.08,110.188c0,0.556,0.295,0.945,0.995,0.945c1.364,0,1.373-1.658,1.328-2.658
				c-0.323,0.63-0.906,0.806-1.391,0.806c-0.987,0-1.894-0.686-1.894-2.028c0-1.473,1.014-2.065,1.992-2.065
				c0.664,0,1.642,0.277,2,1.574c0.108,0.389,0.18,0.853,0.18,1.723c0,0.945-0.008,3.381-2.287,3.381
				c-0.844,0-1.83-0.343-1.867-1.677H38.08z M39.111,105.881c-0.727,0-1.113,0.621-1.113,1.38c0,0.834,0.494,1.315,1.176,1.315
				c0.7,0,1.131-0.537,1.131-1.306C40.304,106.344,39.721,105.881,39.111,105.881z"/>
			<path fill="#FFFFFF" d="M43.145,110.198c0.019,0.648,0.565,0.907,1.032,0.907c1.086,0,1.229-1.056,1.229-1.473
				c0-0.87-0.457-1.38-1.176-1.38c-0.358,0-0.646,0.139-0.834,0.334c-0.188,0.194-0.242,0.389-0.287,0.537h-0.816l0.162-3.816h3.49
				v0.75h-2.719l-0.117,2.075c0.188-0.194,0.584-0.593,1.311-0.593c1.246,0,1.857,1.01,1.857,2.111c0,1.26-0.861,2.214-2.217,2.214
				c-1.005,0-1.803-0.574-1.848-1.667H43.145z"/>
			<path fill="#FFFFFF" d="M50.078,106.771c0,1.148-0.655,1.676-1.472,1.676c-0.78,0-1.444-0.481-1.444-1.62
				c0-0.973,0.512-1.695,1.525-1.695C49.719,105.131,50.078,105.928,50.078,106.771z M49.369,106.808
				c0-0.454-0.107-1.121-0.744-1.121c-0.772,0-0.772,0.907-0.772,1.13c0,0.213,0,1.093,0.772,1.093
				C49.369,107.909,49.369,106.992,49.369,106.808z M48.355,112.077l3.957-7.132h0.592l-3.957,7.132H48.355z M53.828,108.956
				c0.162,0.186,0.367,0.481,0.367,1.176c0,1.01-0.475,1.695-1.443,1.695c-1.148,0-1.472-0.88-1.472-1.648
				c0-1.121,0.673-1.667,1.472-1.667C52.994,108.512,53.478,108.558,53.828,108.956z M53.513,110.151c0-0.287-0.053-1.12-0.754-1.12
				c-0.771,0-0.771,0.963-0.771,1.241c0,0.324,0.072,1.009,0.754,1.009C53.461,111.281,53.513,110.485,53.513,110.151z"/>
			<path fill="#FFFFFF" d="M61.851,106.835c-0.035-0.231-0.152-1.158-1.399-1.158c-1.562,0-1.839,1.649-1.839,2.761
				c0,1.26,0.35,2.621,1.83,2.621c0.395,0,0.771-0.102,1.049-0.398c0.234-0.26,0.287-0.547,0.314-0.704h0.986
				c-0.134,1.315-1.309,1.862-2.422,1.862c-2.279,0-2.719-2.075-2.719-3.372c0-1.407,0.529-3.51,2.836-3.51
				c0.914,0,2.207,0.38,2.323,1.898H61.851z"/>
			<path fill="#FFFFFF" d="M63.929,105.03h0.896v6.687h-0.896V105.03z"/>
		</g>
		<g clip-path="url(#SVGID_19_)">
			<path fill="#FFFFFF" d="M35.498,115.77c1.857,0,2.082,2.057,2.082,3.261c0,1.519-0.297,2.371-0.861,2.917
				c-0.44,0.427-0.961,0.491-1.238,0.491c-0.826,0-1.391-0.5-1.66-1.065c-0.207-0.426-0.404-1.046-0.404-2.194
				C33.416,118.225,33.523,115.77,35.498,115.77z M35.488,121.67c1.041,0,1.221-1.408,1.221-2.557c0-1.537-0.26-2.603-1.202-2.603
				c-1.085,0-1.229,1.473-1.229,2.621C34.277,120.559,34.547,121.67,35.488,121.67z"/>
			<path fill="#FFFFFF" d="M38.733,121.198h0.996v1.111h-0.996V121.198z"/>
			<path fill="#FFFFFF" d="M42.931,116.909c-0.387,0.333-1.006,0.713-1.445,0.926v-0.926c0.584-0.315,1.158-0.704,1.508-1.01h0.799
				v6.409h-0.861V116.909z"/>
			<path fill="#FFFFFF" d="M46.715,116.909c-0.387,0.333-1.005,0.713-1.445,0.926v-0.926c0.584-0.315,1.158-0.704,1.508-1.01h0.799
				v6.409h-0.861V116.909z"/>
			<path fill="#FFFFFF" d="M49.287,119.521h2.252v0.704h-2.252V119.521z"/>
			<path fill="#FFFFFF" d="M54.373,115.77c1.856,0,2.08,2.057,2.08,3.261c0,1.519-0.295,2.371-0.861,2.917
				c-0.439,0.427-0.959,0.491-1.237,0.491c-0.825,0-1.391-0.5-1.66-1.065c-0.206-0.426-0.403-1.046-0.403-2.194
				C52.291,118.225,52.398,115.77,54.373,115.77z M54.363,121.67c1.041,0,1.221-1.408,1.221-2.557c0-1.537-0.261-2.603-1.203-2.603
				c-1.086,0-1.229,1.473-1.229,2.621C53.152,120.559,53.422,121.67,54.363,121.67z"/>
			<path fill="#FFFFFF" d="M57.607,121.198h0.996v1.111h-0.996V121.198z"/>
			<path fill="#FFFFFF" d="M63.025,117.419c-0.009-0.751-0.547-0.954-0.941-0.954c-0.897,0-1.293,0.796-1.373,2.5
				c0.197-0.296,0.538-0.814,1.444-0.814c1.015,0,1.876,0.694,1.876,2.056c0,1.491-1.033,2.242-2.1,2.242
				c-0.602,0-1.203-0.251-1.535-0.695c-0.457-0.63-0.564-1.547-0.564-2.361c0-1.398,0.332-3.622,2.297-3.622
				c0.816,0,1.273,0.371,1.488,0.611c0.314,0.38,0.324,0.787,0.332,1.038H63.025z M63.17,120.29c0-0.454-0.127-1.427-1.158-1.427
				c-0.834,0-1.238,0.704-1.238,1.436c0,0.834,0.502,1.445,1.193,1.445C62.523,121.744,63.17,121.336,63.17,120.29z"/>
			<path fill="#FFFFFF" d="M65.715,120.781c0,0.556,0.295,0.945,0.995,0.945c1.364,0,1.373-1.658,1.328-2.658
				c-0.323,0.63-0.906,0.806-1.391,0.806c-0.987,0-1.894-0.686-1.894-2.028c0-1.473,1.014-2.065,1.992-2.065
				c0.664,0,1.642,0.277,2,1.574c0.108,0.389,0.18,0.853,0.18,1.723c0,0.945-0.008,3.381-2.287,3.381
				c-0.844,0-1.83-0.343-1.867-1.677H65.715z M66.746,116.474c-0.727,0-1.113,0.621-1.113,1.38c0,0.834,0.494,1.315,1.176,1.315
				c0.7,0,1.131-0.537,1.131-1.306C67.939,116.937,67.355,116.474,66.746,116.474z"/>
		</g>
		<g clip-path="url(#SVGID_19_)">
			<path fill="#FFFFFF" d="M30.79,133.912c-0.484-1.232-1.067-2.77-1.067-4.122c0-0.731,0.161-1.454,0.367-2.158
				c0.252-0.833,0.484-1.426,0.637-1.824h0.593c-0.144,0.454-0.341,1.084-0.529,1.964c-0.188,0.852-0.251,1.426-0.251,2
				c0,1.315,0.314,2.381,0.834,4.141H30.79z"/>
			<path fill="#FFFFFF" d="M32.816,128.883c0-0.204-0.01-0.315-0.027-0.76h0.852l0.019,0.769c0.422-0.731,1.167-0.843,1.534-0.843
				c0.969,0,1.893,0.686,1.893,2.408c0,1.732-0.977,2.491-2.055,2.491c-0.654,0-1.139-0.287-1.381-0.694v2.307h-0.834V128.883z
				 M34.888,132.31c0.215,0,0.664-0.046,0.951-0.454c0.322-0.453,0.367-1.12,0.367-1.454c0-0.833-0.242-1.704-1.238-1.704
				c-1.346,0-1.346,1.473-1.346,1.89C33.623,131.152,33.704,132.31,34.888,132.31z"/>
			<path fill="#FFFFFF" d="M37.863,129.152h4.576v0.713h-4.576V129.152z M37.863,131.023h4.576v0.722h-4.576V131.023z"/>
			<path fill="#FFFFFF" d="M45.244,126.234c1.857,0,2.082,2.057,2.082,3.261c0,1.519-0.297,2.371-0.861,2.917
				c-0.439,0.427-0.961,0.491-1.238,0.491c-0.826,0-1.391-0.5-1.66-1.065c-0.206-0.426-0.404-1.046-0.404-2.194
				C43.162,128.689,43.27,126.234,45.244,126.234z M45.235,132.134c1.041,0,1.22-1.408,1.22-2.557c0-1.537-0.26-2.603-1.201-2.603
				c-1.086,0-1.23,1.473-1.23,2.621C44.023,131.023,44.293,132.134,45.235,132.134z"/>
			<path fill="#FFFFFF" d="M48.48,131.661h0.996v1.111H48.48V131.661z"/>
			<path fill="#FFFFFF" d="M52.722,126.234c1.857,0,2.082,2.057,2.082,3.261c0,1.519-0.297,2.371-0.861,2.917
				c-0.44,0.427-0.961,0.491-1.238,0.491c-0.826,0-1.391-0.5-1.66-1.065c-0.207-0.426-0.404-1.046-0.404-2.194
				C50.64,128.689,50.748,126.234,52.722,126.234z M52.713,132.134c1.041,0,1.221-1.408,1.221-2.557c0-1.537-0.26-2.603-1.202-2.603
				c-1.085,0-1.229,1.473-1.229,2.621C51.502,131.023,51.771,132.134,52.713,132.134z"/>
			<path fill="#FFFFFF" d="M57.179,127.373c-0.386,0.333-1.005,0.713-1.444,0.926v-0.926c0.583-0.315,1.157-0.704,1.507-1.01h0.799
				v6.409h-0.861V127.373z"/>
			<path fill="#FFFFFF" d="M63.25,127.883c-0.01-0.751-0.547-0.954-0.942-0.954c-0.897,0-1.292,0.796-1.372,2.5
				c0.197-0.296,0.537-0.814,1.443-0.814c1.015,0,1.876,0.694,1.876,2.056c0,1.491-1.032,2.242-2.1,2.242
				c-0.601,0-1.202-0.251-1.534-0.695c-0.457-0.63-0.565-1.547-0.565-2.361c0-1.398,0.332-3.622,2.297-3.622
				c0.816,0,1.274,0.371,1.489,0.611c0.314,0.38,0.323,0.787,0.332,1.038H63.25z M63.393,130.754c0-0.454-0.126-1.427-1.157-1.427
				c-0.835,0-1.238,0.704-1.238,1.436c0,0.834,0.502,1.445,1.193,1.445C62.748,132.208,63.393,131.8,63.393,130.754z"/>
			<path fill="#FFFFFF" d="M65.848,125.808c0.484,1.231,1.067,2.76,1.067,4.112c0,0.731-0.161,1.454-0.367,2.158
				c-0.252,0.834-0.484,1.436-0.637,1.834h-0.593c0.144-0.463,0.341-1.093,0.529-1.973c0.188-0.843,0.251-1.427,0.251-2.001
				c0-1.306-0.314-2.371-0.834-4.131H65.848z"/>
		</g>
		<g clip-path="url(#SVGID_19_)">
			<path fill="#FFFFFF" d="M68.308,128.715c-0.005,0.356,0.221,0.61,0.665,0.61c0.508,0,0.723-0.335,0.723-0.665
				c0-0.394-0.257-0.6-0.523-0.658c-0.188-0.038-0.319-0.033-0.503-0.027v-0.438c0.361,0.032,0.969-0.043,0.969-0.648
				c0-0.421-0.277-0.589-0.639-0.589c-0.272,0-0.612,0.124-0.659,0.589h-0.529c0.032-0.929,0.88-1.021,1.173-1.021
				c0.79,0,1.183,0.491,1.183,1.01c0,0.308-0.162,0.751-0.723,0.881c0.775,0.113,0.775,0.831,0.775,0.907
				c0,0.523-0.414,1.102-1.257,1.102c-0.382,0-0.764-0.113-0.994-0.389c-0.204-0.237-0.209-0.508-0.215-0.664H68.308z"/>
		</g>
		<g clip-path="url(#SVGID_19_)">
			<path fill="#FFFFFF" d="M32.377,154.153h0.961l2.619,6.687h-0.978l-0.7-1.741h-3.006l-0.699,1.741H29.65L32.377,154.153z
				 M31.56,158.348h2.45l-1.193-3.279L31.56,158.348z"/>
			<path fill="#FFFFFF" d="M36.814,154.153h2.314c0.332,0,1.014,0,1.49,0.314c0.484,0.314,0.717,0.824,0.717,1.361
				c0,0.473-0.17,0.89-0.457,1.186c-0.277,0.287-0.564,0.38-0.763,0.436c0.619,0.167,0.897,0.454,0.987,1.287
				c0.09,0.787,0.152,1.362,0.403,2.103h-0.96c-0.144-0.444-0.232-1.26-0.296-1.769c-0.108-0.973-0.332-1.251-1.417-1.251h-1.131
				v3.02h-0.889V154.153z M37.685,157.033h1.417c0.099,0,0.61,0,0.853-0.148c0.125-0.073,0.439-0.314,0.439-0.87
				c0-1.084-0.934-1.084-1.292-1.084h-1.417V157.033z"/>
			<path fill="#FFFFFF" d="M42.795,154.153h2.314c0.332,0,1.014,0,1.49,0.314c0.484,0.314,0.717,0.824,0.717,1.361
				c0,0.473-0.17,0.89-0.457,1.186c-0.277,0.287-0.564,0.38-0.763,0.436c0.619,0.167,0.897,0.454,0.987,1.287
				c0.09,0.787,0.152,1.362,0.403,2.103h-0.96c-0.144-0.444-0.232-1.26-0.296-1.769c-0.108-0.973-0.332-1.251-1.417-1.251h-1.131
				v3.02h-0.889V154.153z M43.666,157.033h1.417c0.099,0,0.61,0,0.853-0.148c0.125-0.073,0.439-0.314,0.439-0.87
				c0-1.084-0.934-1.084-1.292-1.084h-1.417V157.033z"/>
			<path fill="#FFFFFF" d="M48.758,156.791c-0.006,0.356,0.22,0.61,0.664,0.61c0.508,0,0.723-0.335,0.723-0.664
				c0-0.395-0.256-0.6-0.523-0.659c-0.188-0.038-0.319-0.032-0.502-0.027v-0.438c0.361,0.033,0.968-0.043,0.968-0.647
				c0-0.422-0.277-0.589-0.639-0.589c-0.272,0-0.612,0.124-0.659,0.589H48.26c0.032-0.93,0.88-1.021,1.173-1.021
				c0.79,0,1.183,0.492,1.183,1.011c0,0.308-0.162,0.75-0.723,0.88c0.775,0.113,0.775,0.832,0.775,0.907
				c0,0.524-0.414,1.103-1.256,1.103c-0.383,0-0.765-0.113-0.994-0.389c-0.205-0.238-0.21-0.508-0.215-0.665H48.758z"/>
			<path fill="#FFFFFF" d="M51.242,157.218h4.576v0.713h-4.576V157.218z M51.242,159.089h4.576v0.722h-4.576V159.089z"/>
			<path fill="#FFFFFF" d="M58.578,155.44c-0.385,0.333-1.004,0.713-1.444,0.926v-0.926c0.583-0.315,1.157-0.704,1.507-1.01h0.799
				v6.409h-0.861V155.44z"/>
			<path fill="#FFFFFF" d="M60.963,159.728h0.996v1.111h-0.996V159.728z"/>
			<path fill="#FFFFFF" d="M64.02,159.191c-0.009,0.611,0.377,1.047,1.14,1.047c0.87,0,1.238-0.574,1.238-1.14
				c0-0.676-0.439-1.028-0.897-1.13c-0.323-0.064-0.548-0.056-0.861-0.046v-0.751c0.619,0.056,1.659-0.073,1.659-1.111
				c0-0.722-0.475-1.009-1.094-1.009c-0.467,0-1.05,0.213-1.131,1.009h-0.906c0.055-1.593,1.508-1.75,2.01-1.75
				c1.355,0,2.027,0.843,2.027,1.731c0,0.528-0.277,1.288-1.238,1.51c1.328,0.194,1.328,1.427,1.328,1.557
				c0,0.898-0.709,1.889-2.152,1.889c-0.656,0-1.311-0.194-1.705-0.666c-0.35-0.408-0.359-0.871-0.368-1.14H64.02z"/>
			<path fill="#FFFFFF" d="M71.096,155.894c0,1.148-0.654,1.676-1.471,1.676c-0.781,0-1.445-0.481-1.445-1.62
				c0-0.973,0.512-1.695,1.525-1.695C70.737,154.254,71.096,155.051,71.096,155.894z M70.387,155.931
				c0-0.454-0.108-1.121-0.745-1.121c-0.771,0-0.771,0.907-0.771,1.13c0,0.213,0,1.093,0.771,1.093
				C70.387,157.033,70.387,156.116,70.387,155.931z M69.373,161.201l3.957-7.132h0.592l-3.956,7.132H69.373z M74.846,158.079
				c0.161,0.186,0.368,0.481,0.368,1.176c0,1.01-0.476,1.695-1.445,1.695c-1.148,0-1.471-0.88-1.471-1.648
				c0-1.121,0.673-1.667,1.471-1.667C74.012,157.635,74.496,157.681,74.846,158.079z M74.533,159.274c0-0.287-0.055-1.12-0.754-1.12
				c-0.771,0-0.771,0.963-0.771,1.241c0,0.324,0.071,1.009,0.754,1.009C74.478,160.404,74.533,159.608,74.533,159.274z"/>
		</g>
	</g>
	<g>
		<defs>
			<path id="SVGID_47_" d="M106.183,149.102c0,0.482-0.443,0.874-1.007,0.874h-9.309c-0.085,0-0.156-0.01-0.241-0.024
				c-0.803,0.1-2.042,0.399-2.042,1.21c0,0.308,0.159,0.966,1.237,1.953l34.047,31.244c1.177,1.078,1.791,1.429,2.493,1.429
				c0.701,0,1.313-0.351,2.49-1.429l34.059-31.244c1.071-0.987,1.235-1.645,1.235-1.949c0-0.813-1.242-1.107-2.036-1.21
				c-0.068,0.013-0.149,0.02-0.217,0.02h-9.549c-0.551,0-1.007-0.392-1.007-0.874V61.729l-50.138-0.17L106.183,149.102z"/>
		</defs>
		<clipPath id="SVGID_21_">
			<use xlink:href="#SVGID_47_"  overflow="visible"/>
		</clipPath>
		
			<linearGradient id="SVGID_22_" gradientUnits="userSpaceOnUse" x1="-2897.2031" y1="399.0722" x2="-2895.8088" y2="399.0722" gradientTransform="matrix(0 -48.3744 -46.8002 0 18808.0234 -140026.7813)">
			<stop  offset="0" style="stop-color:#00A69C"/>
			<stop  offset="0.2036" style="stop-color:#03A79D"/>
			<stop  offset="0.3808" style="stop-color:#0EAAA1"/>
			<stop  offset="0.5481" style="stop-color:#20B0A8"/>
			<stop  offset="0.7094" style="stop-color:#39B7B1"/>
			<stop  offset="0.8649" style="stop-color:#59C1BD"/>
			<stop  offset="0.9901" style="stop-color:#79CBC9"/>
			<stop  offset="1" style="stop-color:#79CBC9"/>
		</linearGradient>
		<rect x="93.583" y="61.558" clip-path="url(#SVGID_21_)" fill="url(#SVGID_22_)" width="75.561" height="124.231"/>
	</g>
	<g>
		<defs>
			<path id="SVGID_50_" d="M108.401,149.102c0,1.577-1.449,2.857-3.225,2.857h-8.521l33.804,31.02
				c0.456,0.418,0.74,0.638,0.901,0.747c0.165-0.11,0.441-0.329,0.899-0.749l33.81-31.018h-8.726c-1.778,0-3.225-1.28-3.225-2.857
				V63.704l-45.695-0.155L108.401,149.102z"/>
		</defs>
		<clipPath id="SVGID_24_">
			<use xlink:href="#SVGID_50_"  overflow="visible"/>
		</clipPath>
		
			<linearGradient id="SVGID_26_" gradientUnits="userSpaceOnUse" x1="-2897.3757" y1="398.1581" x2="-2895.9814" y2="398.1581" gradientTransform="matrix(0 -46.7964 -45.2735 0 18157.373 -135463.1094)">
			<stop  offset="0" style="stop-color:#FFFFFF"/>
			<stop  offset="0.2973" style="stop-color:#F8F8F8"/>
			<stop  offset="0.7441" style="stop-color:#E6E5E3"/>
			<stop  offset="1" style="stop-color:#D8D7D4"/>
		</linearGradient>
		<rect x="96.655" y="63.55" clip-path="url(#SVGID_24_)" fill="url(#SVGID_26_)" width="69.413" height="120.177"/>
	</g>
	<g>
		<defs>
			<rect id="SVGID_53_" x="0" y="0" width="182.501" height="225.228"/>
		</defs>
		<clipPath id="SVGID_28_">
			<use xlink:href="#SVGID_53_"  overflow="visible"/>
		</clipPath>
		<g opacity="0.5" clip-path="url(#SVGID_28_)">
			<g>
				<defs>
					<rect id="SVGID_55_" x="96.661" y="63.548" width="69.404" height="120.178"/>
				</defs>
				<clipPath id="SVGID_29_">
					<use xlink:href="#SVGID_55_"  overflow="visible"/>
				</clipPath>
				<g clip-path="url(#SVGID_29_)">
					<defs>
						<path id="SVGID_57_" d="M108.401,149.102c0,1.577-1.449,2.858-3.225,2.858h-8.52l33.803,31.019
							c0.456,0.418,0.74,0.638,0.901,0.747c0.165-0.11,0.441-0.329,0.899-0.749l33.811-31.017h-8.728
							c-1.776,0-3.225-1.281-3.225-2.858v-85.4l-45.695-0.153L108.401,149.102z"/>
					</defs>
					<clipPath id="SVGID_31_">
						<use xlink:href="#SVGID_57_"  overflow="visible"/>
					</clipPath>
					
						<linearGradient id="SVGID_33_" gradientUnits="userSpaceOnUse" x1="-2888.324" y1="447.4187" x2="-2886.9297" y2="447.4187" gradientTransform="matrix(0 63.0164 60.9657 0 -27145.8301 182113.6563)">
						<stop  offset="0" style="stop-color:#1B75BB"/>
						<stop  offset="0.1146" style="stop-color:#2078BC"/>
						<stop  offset="0.2464" style="stop-color:#2E80C1"/>
						<stop  offset="0.3866" style="stop-color:#458EC7"/>
						<stop  offset="0.5327" style="stop-color:#65A2D1"/>
						<stop  offset="0.6835" style="stop-color:#8FBBDD"/>
						<stop  offset="0.8382" style="stop-color:#C1DAED"/>
						<stop  offset="0.9933" style="stop-color:#FCFDFE"/>
						<stop  offset="1" style="stop-color:#FFFFFF"/>
					</linearGradient>
					<rect x="96.657" y="63.55" clip-path="url(#SVGID_31_)" fill="url(#SVGID_33_)" width="69.414" height="120.177"/>
				</g>
			</g>
		</g>
	</g>
	<g>
		<defs>
			<rect id="SVGID_60_" x="0" y="0" width="182.501" height="225.228"/>
		</defs>
		<clipPath id="SVGID_34_">
			<use xlink:href="#SVGID_60_"  overflow="visible"/>
		</clipPath>
		<g clip-path="url(#SVGID_34_)">
			<path fill="#FFFFFF" d="M118.429,82.766v-2.784h-4.596V79.07l4.412-6.529h1.445v6.355h1.385v1.086h-1.385v2.784H118.429z
				 M118.429,78.896v-3.413c0-0.535,0.015-1.07,0.045-1.605h-0.045c-0.305,0.599-0.549,1.039-0.822,1.511l-2.419,3.477v0.031
				H118.429z"/>
			<path fill="#FFFFFF" d="M122.096,82.766v-0.85l1.051-1.054c2.525-2.485,3.666-3.807,3.682-5.349c0-1.038-0.487-1.998-1.963-1.998
				c-0.898,0-1.643,0.472-2.1,0.865l-0.426-0.976c0.685-0.598,1.658-1.038,2.799-1.038c2.13,0,3.027,1.51,3.027,2.974
				c0,1.888-1.323,3.413-3.408,5.49l-0.791,0.755v0.031h4.443v1.148H122.096z"/>
			<path fill="#FFFFFF" d="M134.359,75.419c0,2.155-1.096,3.226-2.374,3.226c-1.231,0-2.297-1.023-2.312-3.084
				c0-2.045,1.08-3.193,2.388-3.193C133.445,72.367,134.359,73.469,134.359,75.419z M130.738,75.514
				c-0.031,1.306,0.441,2.297,1.277,2.297c0.883,0,1.278-0.976,1.278-2.328c0-1.243-0.351-2.281-1.278-2.281
				C131.179,73.201,130.738,74.224,130.738,75.514z M131.894,82.939l5.811-10.571h0.853l-5.812,10.571H131.894z M140.794,79.652
				c0,2.155-1.095,3.225-2.358,3.225c-1.232,0-2.297-1.022-2.313-3.067c0-2.062,1.08-3.21,2.389-3.21
				C139.896,76.599,140.794,77.701,140.794,79.652z M137.174,79.745c-0.016,1.306,0.471,2.297,1.293,2.297
				c0.882,0,1.277-0.976,1.277-2.328c0-1.243-0.35-2.281-1.277-2.281C137.629,77.433,137.174,78.455,137.174,79.745z"/>
		</g>
		<g clip-path="url(#SVGID_34_)">
			<path fill="#FFFFFF" d="M123.164,92.509h2.314c0.332,0,1.014,0,1.49,0.314c0.484,0.314,0.717,0.824,0.717,1.361
				c0,0.473-0.17,0.89-0.457,1.186c-0.277,0.287-0.564,0.38-0.763,0.436c0.619,0.167,0.897,0.454,0.987,1.287
				c0.09,0.787,0.152,1.362,0.403,2.103h-0.96c-0.144-0.444-0.232-1.26-0.296-1.769c-0.108-0.973-0.332-1.251-1.417-1.251h-1.131
				v3.02h-0.889V92.509z M124.035,95.389h1.417c0.099,0,0.61,0,0.853-0.148c0.125-0.073,0.439-0.314,0.439-0.87
				c0-1.084-0.934-1.084-1.292-1.084h-1.417V95.389z"/>
			<path fill="#FFFFFF" d="M129.144,92.509h2.314c0.332,0,1.014,0,1.49,0.314c0.484,0.314,0.717,0.824,0.717,1.361
				c0,0.473-0.17,0.89-0.457,1.186c-0.277,0.287-0.564,0.38-0.763,0.436c0.619,0.167,0.897,0.454,0.987,1.287
				c0.09,0.787,0.152,1.362,0.403,2.103h-0.96c-0.144-0.444-0.232-1.26-0.296-1.769c-0.108-0.973-0.332-1.251-1.417-1.251h-1.131
				v3.02h-0.889V92.509z M130.015,95.389h1.417c0.099,0,0.61,0,0.853-0.148c0.125-0.073,0.439-0.314,0.439-0.87
				c0-1.084-0.934-1.084-1.292-1.084h-1.417V95.389z"/>
			<path fill="#FFFFFF" d="M135.125,92.509h2.314c0.332,0,1.014,0,1.49,0.314c0.484,0.314,0.717,0.824,0.717,1.361
				c0,0.473-0.17,0.89-0.457,1.186c-0.277,0.287-0.564,0.38-0.763,0.436c0.619,0.167,0.897,0.454,0.987,1.287
				c0.09,0.787,0.152,1.362,0.403,2.103h-0.96c-0.144-0.444-0.232-1.26-0.296-1.769c-0.108-0.973-0.332-1.251-1.417-1.251h-1.131
				v3.02h-0.889V92.509z M135.996,95.389h1.417c0.099,0,0.61,0,0.853-0.148c0.125-0.073,0.439-0.314,0.439-0.87
				c0-1.084-0.934-1.084-1.292-1.084h-1.417V95.389z"/>
		</g>
		<g clip-path="url(#SVGID_34_)">
			<path fill="#FFFFFF" d="M118.269,110.188c0,0.556,0.295,0.945,0.995,0.945c1.364,0,1.373-1.658,1.328-2.658
				c-0.323,0.63-0.906,0.806-1.391,0.806c-0.987,0-1.894-0.686-1.894-2.028c0-1.473,1.014-2.065,1.992-2.065
				c0.664,0,1.642,0.277,2,1.574c0.108,0.389,0.18,0.853,0.18,1.723c0,0.945-0.008,3.381-2.287,3.381
				c-0.844,0-1.83-0.343-1.867-1.677H118.269z M119.301,105.881c-0.727,0-1.113,0.621-1.113,1.38c0,0.834,0.494,1.315,1.176,1.315
				c0.7,0,1.131-0.537,1.131-1.306C120.494,106.344,119.91,105.881,119.301,105.881z"/>
			<path fill="#FFFFFF" d="M123.335,110.198c0.019,0.648,0.565,0.907,1.032,0.907c1.086,0,1.229-1.056,1.229-1.473
				c0-0.87-0.457-1.38-1.176-1.38c-0.358,0-0.646,0.139-0.834,0.334c-0.188,0.194-0.242,0.389-0.287,0.537h-0.816l0.162-3.816h3.49
				v0.75h-2.719l-0.117,2.075c0.188-0.194,0.584-0.593,1.311-0.593c1.246,0,1.857,1.01,1.857,2.111c0,1.26-0.861,2.214-2.217,2.214
				c-1.005,0-1.803-0.574-1.848-1.667H123.335z"/>
			<path fill="#FFFFFF" d="M130.267,106.771c0,1.148-0.655,1.676-1.472,1.676c-0.78,0-1.444-0.481-1.444-1.62
				c0-0.973,0.512-1.695,1.525-1.695C129.908,105.131,130.267,105.928,130.267,106.771z M129.558,106.808
				c0-0.454-0.107-1.121-0.744-1.121c-0.772,0-0.772,0.907-0.772,1.13c0,0.213,0,1.093,0.772,1.093
				C129.558,107.909,129.558,106.992,129.558,106.808z M128.545,112.077l3.957-7.132h0.592l-3.957,7.132H128.545z M134.017,108.956
				c0.162,0.186,0.367,0.481,0.367,1.176c0,1.01-0.475,1.695-1.443,1.695c-1.148,0-1.472-0.88-1.472-1.648
				c0-1.121,0.673-1.667,1.472-1.667C133.183,108.512,133.668,108.558,134.017,108.956z M133.703,110.151
				c0-0.287-0.053-1.12-0.754-1.12c-0.771,0-0.771,0.963-0.771,1.241c0,0.324,0.072,1.009,0.754,1.009
				C133.65,111.281,133.703,110.485,133.703,110.151z"/>
			<path fill="#FFFFFF" d="M142.041,106.835c-0.035-0.231-0.152-1.158-1.399-1.158c-1.562,0-1.839,1.649-1.839,2.761
				c0,1.26,0.35,2.621,1.83,2.621c0.395,0,0.771-0.102,1.049-0.398c0.234-0.26,0.287-0.547,0.314-0.704h0.986
				c-0.134,1.315-1.309,1.862-2.422,1.862c-2.279,0-2.719-2.075-2.719-3.372c0-1.407,0.529-3.51,2.836-3.51
				c0.914,0,2.207,0.38,2.323,1.898H142.041z"/>
			<path fill="#FFFFFF" d="M144.137,105.038h0.844v6.678h-0.844V105.038z"/>
		</g>
		<g clip-path="url(#SVGID_34_)">
			<path fill="#FFFFFF" d="M115.238,115.77c1.857,0,2.082,2.057,2.082,3.261c0,1.519-0.296,2.371-0.861,2.917
				c-0.439,0.427-0.96,0.491-1.238,0.491c-0.825,0-1.391-0.5-1.66-1.065c-0.205-0.426-0.402-1.046-0.402-2.194
				C113.158,118.225,113.265,115.77,115.238,115.77z M115.23,121.67c1.041,0,1.22-1.408,1.22-2.557c0-1.537-0.261-2.603-1.202-2.603
				c-1.086,0-1.229,1.473-1.229,2.621C114.019,120.559,114.288,121.67,115.23,121.67z"/>
			<path fill="#FFFFFF" d="M118.474,121.198h0.996v1.111h-0.996V121.198z"/>
			<path fill="#FFFFFF" d="M123.892,117.419c-0.01-0.751-0.547-0.954-0.942-0.954c-0.897,0-1.292,0.796-1.372,2.5
				c0.197-0.296,0.537-0.814,1.443-0.814c1.015,0,1.876,0.694,1.876,2.056c0,1.491-1.032,2.242-2.1,2.242
				c-0.601,0-1.202-0.251-1.534-0.695c-0.457-0.63-0.565-1.547-0.565-2.361c0-1.398,0.332-3.622,2.297-3.622
				c0.816,0,1.274,0.371,1.489,0.611c0.314,0.38,0.323,0.787,0.332,1.038H123.892z M124.036,120.29c0-0.454-0.126-1.427-1.157-1.427
				c-0.835,0-1.238,0.704-1.238,1.436c0,0.834,0.502,1.445,1.193,1.445C123.39,121.744,124.036,121.336,124.036,120.29z"/>
			<path fill="#FFFFFF" d="M127.658,116.909c-0.387,0.333-1.006,0.713-1.445,0.926v-0.926c0.584-0.315,1.158-0.704,1.508-1.01h0.799
				v6.409h-0.861V116.909z"/>
			<path fill="#FFFFFF" d="M130.238,119.521h2.252v0.704h-2.252V119.521z"/>
			<path fill="#FFFFFF" d="M135.324,115.77c1.857,0,2.082,2.057,2.082,3.261c0,1.519-0.297,2.371-0.861,2.917
				c-0.44,0.427-0.961,0.491-1.238,0.491c-0.826,0-1.391-0.5-1.66-1.065c-0.207-0.426-0.404-1.046-0.404-2.194
				C133.242,118.225,133.349,115.77,135.324,115.77z M135.314,121.67c1.041,0,1.221-1.408,1.221-2.557
				c0-1.537-0.26-2.603-1.202-2.603c-1.085,0-1.229,1.473-1.229,2.621C134.103,120.559,134.373,121.67,135.314,121.67z"/>
			<path fill="#FFFFFF" d="M138.559,121.198h0.996v1.111h-0.996V121.198z"/>
			<path fill="#FFFFFF" d="M142.758,116.909c-0.387,0.333-1.006,0.713-1.445,0.926v-0.926c0.584-0.315,1.158-0.704,1.508-1.01h0.799
				v6.409h-0.861V116.909z"/>
			<path fill="#FFFFFF" d="M148.047,120.92h-2.799v-1.103l2.691-4.001h0.969v4.353h0.906v0.751h-0.906v1.389h-0.861V120.92z
				 M148.074,120.169v-3.38l-2.145,3.38H148.074z"/>
		</g>
		<g clip-path="url(#SVGID_34_)">
			<path fill="#FFFFFF" d="M110.486,133.912c-0.484-1.232-1.068-2.77-1.068-4.122c0-0.731,0.162-1.454,0.369-2.158
				c0.25-0.833,0.484-1.426,0.637-1.824h0.592c-0.144,0.454-0.341,1.084-0.529,1.964c-0.188,0.852-0.252,1.426-0.252,2
				c0,1.315,0.314,2.381,0.835,4.141H110.486z"/>
			<path fill="#FFFFFF" d="M112.512,128.883c0-0.204-0.008-0.315-0.026-0.76h0.853l0.018,0.769c0.422-0.731,1.166-0.843,1.534-0.843
				c0.97,0,1.894,0.686,1.894,2.408c0,1.732-0.979,2.491-2.055,2.491c-0.655,0-1.14-0.287-1.382-0.694v2.307h-0.835V128.883z
				 M114.584,132.31c0.217,0,0.664-0.046,0.951-0.454c0.324-0.453,0.369-1.12,0.369-1.454c0-0.833-0.242-1.704-1.238-1.704
				c-1.346,0-1.346,1.473-1.346,1.89C113.32,131.152,113.4,132.31,114.584,132.31z"/>
			<path fill="#FFFFFF" d="M117.56,129.152h4.575v0.713h-4.575V129.152z M117.56,131.023h4.575v0.722h-4.575V131.023z"/>
			<path fill="#FFFFFF" d="M124.941,126.234c1.856,0,2.08,2.057,2.08,3.261c0,1.519-0.295,2.371-0.861,2.917
				c-0.439,0.427-0.959,0.491-1.237,0.491c-0.825,0-1.391-0.5-1.66-1.065c-0.206-0.426-0.403-1.046-0.403-2.194
				C122.859,128.689,122.967,126.234,124.941,126.234z M124.931,132.134c1.041,0,1.221-1.408,1.221-2.557
				c0-1.537-0.261-2.603-1.203-2.603c-1.086,0-1.229,1.473-1.229,2.621C123.721,131.023,123.99,132.134,124.931,132.134z"/>
			<path fill="#FFFFFF" d="M128.176,131.661h0.996v1.111h-0.996V131.661z"/>
			<path fill="#FFFFFF" d="M132.418,126.234c1.857,0,2.082,2.057,2.082,3.261c0,1.519-0.296,2.371-0.861,2.917
				c-0.439,0.427-0.96,0.491-1.238,0.491c-0.825,0-1.391-0.5-1.66-1.065c-0.205-0.426-0.402-1.046-0.402-2.194
				C130.338,128.689,130.445,126.234,132.418,126.234z M132.41,132.134c1.041,0,1.22-1.408,1.22-2.557
				c0-1.537-0.261-2.603-1.202-2.603c-1.086,0-1.229,1.473-1.229,2.621C131.199,131.023,131.468,132.134,132.41,132.134z"/>
			<path fill="#FFFFFF" d="M137.762,126.234c1.857,0,2.082,2.057,2.082,3.261c0,1.519-0.296,2.371-0.861,2.917
				c-0.439,0.427-0.96,0.491-1.238,0.491c-0.825,0-1.391-0.5-1.66-1.065c-0.205-0.426-0.402-1.046-0.402-2.194
				C135.681,128.689,135.789,126.234,137.762,126.234z M137.754,132.134c1.041,0,1.22-1.408,1.22-2.557
				c0-1.537-0.261-2.603-1.202-2.603c-1.086,0-1.229,1.473-1.229,2.621C136.543,131.023,136.811,132.134,137.754,132.134z"/>
			<path fill="#FFFFFF" d="M140.586,126.364h4.1v0.778l-2.279,5.631h-1.014l2.387-5.641h-3.193V126.364z"/>
			<path fill="#FFFFFF" d="M146.521,125.808c0.484,1.231,1.068,2.76,1.068,4.112c0,0.731-0.162,1.454-0.368,2.158
				c-0.251,0.834-0.484,1.436-0.638,1.834h-0.592c0.145-0.463,0.342-1.093,0.529-1.973c0.189-0.843,0.252-1.427,0.252-2.001
				c0-1.306-0.314-2.371-0.834-4.131H146.521z"/>
		</g>
		<g clip-path="url(#SVGID_34_)">
			<path fill="#FFFFFF" d="M150.014,128.867h-1.633v-0.644l1.57-2.333h0.564v2.539h0.529v0.438h-0.529v0.81h-0.502V128.867z
				 M150.03,128.429v-1.972l-1.251,1.972H150.03z"/>
		</g>
		<g clip-path="url(#SVGID_34_)">
			<path fill="#FFFFFF" d="M112.566,154.153h0.961l2.619,6.687h-0.978l-0.7-1.741h-3.006l-0.699,1.741h-0.924L112.566,154.153z
				 M111.75,158.348h2.45l-1.193-3.279L111.75,158.348z"/>
			<path fill="#FFFFFF" d="M117.004,154.153h2.314c0.332,0,1.014,0,1.49,0.314c0.484,0.314,0.717,0.824,0.717,1.361
				c0,0.473-0.17,0.89-0.457,1.186c-0.277,0.287-0.564,0.38-0.763,0.436c0.619,0.167,0.897,0.454,0.987,1.287
				c0.09,0.787,0.152,1.362,0.403,2.103h-0.96c-0.144-0.444-0.232-1.26-0.296-1.769c-0.108-0.973-0.332-1.251-1.417-1.251h-1.131
				v3.02h-0.889V154.153z M117.875,157.033h1.417c0.099,0,0.61,0,0.853-0.148c0.125-0.073,0.439-0.314,0.439-0.87
				c0-1.084-0.934-1.084-1.292-1.084h-1.417V157.033z"/>
			<path fill="#FFFFFF" d="M122.984,154.153h2.314c0.332,0,1.014,0,1.49,0.314c0.484,0.314,0.717,0.824,0.717,1.361
				c0,0.473-0.17,0.89-0.457,1.186c-0.277,0.287-0.564,0.38-0.763,0.436c0.619,0.167,0.897,0.454,0.987,1.287
				c0.09,0.787,0.152,1.362,0.403,2.103h-0.96c-0.144-0.444-0.232-1.26-0.296-1.769c-0.108-0.973-0.332-1.251-1.417-1.251h-1.131
				v3.02h-0.889V154.153z M123.855,157.033h1.417c0.099,0,0.61,0,0.853-0.148c0.125-0.073,0.439-0.314,0.439-0.87
				c0-1.084-0.934-1.084-1.292-1.084h-1.417V157.033z"/>
			<path fill="#FFFFFF" d="M128.525,157.218h4.576v0.713h-4.576V157.218z M128.525,159.089h4.576v0.722h-4.576V159.089z"/>
			<path fill="#FFFFFF" d="M135.861,155.44c-0.385,0.333-1.004,0.713-1.444,0.926v-0.926c0.583-0.315,1.157-0.704,1.507-1.01h0.799
				v6.409h-0.861V155.44z"/>
			<path fill="#FFFFFF" d="M138.245,159.728h0.996v1.111h-0.996V159.728z"/>
			<path fill="#FFFFFF" d="M141.366,159.311c0,0.556,0.296,0.945,0.995,0.945c1.364,0,1.373-1.658,1.328-2.658
				c-0.322,0.63-0.906,0.806-1.391,0.806c-0.986,0-1.893-0.686-1.893-2.028c0-1.473,1.014-2.065,1.992-2.065
				c0.664,0,1.641,0.277,2,1.574c0.107,0.389,0.18,0.853,0.18,1.723c0,0.945-0.01,3.381-2.288,3.381
				c-0.843,0-1.83-0.343-1.866-1.677H141.366z M142.398,155.004c-0.728,0-1.113,0.621-1.113,1.38c0,0.834,0.494,1.315,1.176,1.315
				c0.699,0,1.131-0.537,1.131-1.306C143.592,155.467,143.008,155.004,142.398,155.004z"/>
			<path fill="#FFFFFF" d="M148.379,155.894c0,1.148-0.654,1.676-1.471,1.676c-0.781,0-1.445-0.481-1.445-1.62
				c0-0.973,0.512-1.695,1.525-1.695C148.019,154.254,148.379,155.051,148.379,155.894z M147.67,155.931
				c0-0.454-0.107-1.121-0.744-1.121c-0.771,0-0.771,0.907-0.771,1.13c0,0.213,0,1.093,0.771,1.093
				C147.67,157.033,147.67,156.116,147.67,155.931z M146.656,161.201l3.957-7.132h0.592l-3.957,7.132H146.656z M152.129,158.079
				c0.162,0.186,0.369,0.481,0.369,1.176c0,1.01-0.477,1.695-1.445,1.695c-1.148,0-1.471-0.88-1.471-1.648
				c0-1.121,0.672-1.667,1.471-1.667C151.295,157.635,151.779,157.681,152.129,158.079z M151.815,159.274
				c0-0.287-0.054-1.12-0.753-1.12c-0.772,0-0.772,0.963-0.772,1.241c0,0.324,0.071,1.009,0.754,1.009
				C151.762,160.404,151.815,159.608,151.815,159.274z"/>
		</g>
	</g>
</g>
</svg>
