<?xml version="1.0" encoding="utf-8"?>
<!-- Generator: Adobe Illustrator 17.0.0, SVG Export Plug-In . SVG Version: 6.00 Build 0)  -->
<!DOCTYPE svg PUBLIC "-//W3C//DTD SVG 1.1//EN" "http://www.w3.org/Graphics/SVG/1.1/DTD/svg11.dtd">
<svg version="1.1" id="Layer_1" xmlns="http://www.w3.org/2000/svg" xmlns:xlink="http://www.w3.org/1999/xlink" x="0px" y="0px"
	 width="105.913px" height="94.31px" viewBox="0 0 105.913 94.31" enable-background="new 0 0 105.913 94.31" xml:space="preserve">
<g>
	
		<radialGradient id="SVGID_2_" cx="-49.4112" cy="9.8946" r="42.6243" gradientTransform="matrix(1.2424 0 0 1.1063 114.3452 36.2087)" gradientUnits="userSpaceOnUse">
		<stop  offset="0" style="stop-color:#022538"/>
		<stop  offset="0.3137" style="stop-color:#02263A"/>
		<stop  offset="0.4267" style="stop-color:#022941"/>
		<stop  offset="0.5073" style="stop-color:#022E4C"/>
		<stop  offset="0.5725" style="stop-color:#02365D"/>
		<stop  offset="0.6283" style="stop-color:#014073"/>
		<stop  offset="0.6777" style="stop-color:#014D8F"/>
		<stop  offset="0.7224" style="stop-color:#015BAF"/>
		<stop  offset="0.7621" style="stop-color:#006CD3"/>
		<stop  offset="0.7988" style="stop-color:#007FFC"/>
		<stop  offset="0.801" style="stop-color:#0080FF"/>
		<stop  offset="0.8223" style="stop-color:#2694F9;stop-opacity:0.893"/>
		<stop  offset="0.8472" style="stop-color:#4BA8F2;stop-opacity:0.7679"/>
		<stop  offset="0.8733" style="stop-color:#6AB8ED;stop-opacity:0.6367"/>
		<stop  offset="0.9005" style="stop-color:#82C4E9;stop-opacity:0.5"/>
		<stop  offset="0.9293" style="stop-color:#93CDE6;stop-opacity:0.3552"/>
		<stop  offset="0.9608" style="stop-color:#9DD2E5;stop-opacity:0.197"/>
		<stop  offset="1" style="stop-color:#A0D4E4;stop-opacity:0"/>
	</radialGradient>
	<ellipse fill="url(#SVGID_2_)" cx="52.957" cy="47.155" rx="52.957" ry="47.155"/>
	<g>
		<g>
			<path fill="#DEF3FD" d="M25.76,42.28l2.593,7.469h-1.612l-0.537-1.611H23.25l-0.558,1.611h-1.529l2.696-7.469H25.76z
				 M25.802,46.928l-1.033-3.182l-1.105,3.182H25.802z"/>
			<path fill="#DEF3FD" d="M29.186,42.3h1.529v2.861c0.517-0.682,1.209-0.702,1.478-0.702c1.271,0,2.272,1.002,2.272,2.758
				c0,1.953-1.136,2.635-2.18,2.635c-0.269,0-1.095-0.021-1.57-0.837c-0.01,0.165-0.021,0.413-0.051,0.733h-1.478V42.3z
				 M31.78,45.482c-1.126,0-1.126,1.281-1.126,1.611c0,1.188,0.506,1.757,1.198,1.757c1.054,0,1.054-1.313,1.054-1.581
				C32.906,46.856,32.885,45.482,31.78,45.482z"/>
			<path fill="#DEF3FD" d="M35.495,42.3h1.529v2.861c0.516-0.682,1.208-0.702,1.477-0.702c1.271,0,2.272,1.002,2.272,2.758
				c0,1.953-1.136,2.635-2.18,2.635c-0.269,0-1.095-0.021-1.57-0.837c-0.011,0.165-0.021,0.413-0.052,0.733h-1.478V42.3z
				 M38.089,45.482c-1.126,0-1.126,1.281-1.126,1.611c0,1.188,0.506,1.757,1.198,1.757c1.054,0,1.054-1.313,1.054-1.581
				C39.215,46.856,39.194,45.482,38.089,45.482z"/>
			<path fill="#DEF3FD" d="M41.856,45.813c0-0.248-0.041-1.002-0.072-1.302h1.436l0.031,1.002c0.196-0.444,0.537-1.074,1.777-1.013
				v1.374c-1.549-0.145-1.643,0.651-1.643,1.302v2.572h-1.529V45.813z"/>
			<path fill="#DEF3FD" d="M47.102,47.528c0,0.341,0,1.395,1.064,1.395c0.382,0,0.764-0.145,0.909-0.724h1.395
				c-0.021,0.248-0.072,0.692-0.496,1.137c-0.382,0.402-1.064,0.609-1.828,0.609c-0.444,0-1.292-0.083-1.839-0.65
				c-0.475-0.496-0.671-1.198-0.671-2.035c0-0.848,0.207-1.859,1.084-2.47c0.403-0.269,0.899-0.434,1.467-0.434
				c0.744,0,1.632,0.289,2.107,1.261c0.351,0.713,0.331,1.477,0.31,1.911H47.102z M49.044,46.567c0-0.237-0.021-1.167-0.909-1.167
				c-0.671,0-0.95,0.558-0.981,1.167H49.044z"/>
			<path fill="#DEF3FD" d="M52.647,44.532l1.178,3.543l1.198-3.543H56.5l-1.88,5.217h-1.694l-1.911-5.217H52.647z"/>
			<path fill="#DEF3FD" d="M57.304,42.291h1.632v1.332h-1.632V42.291z M57.355,44.521h1.529v5.228h-1.529V44.521z"/>
			<path fill="#DEF3FD" d="M63.356,49.749c-0.051-0.32-0.051-0.558-0.051-0.713c-0.579,0.837-1.271,0.837-1.56,0.837
				c-0.754,0-1.095-0.217-1.302-0.413c-0.31-0.311-0.454-0.733-0.454-1.146s0.145-1.178,1.105-1.622
				c0.641-0.289,1.56-0.289,2.066-0.289c0-0.341-0.011-0.507-0.073-0.692c-0.134-0.382-0.537-0.434-0.682-0.434
				c-0.217,0-0.444,0.093-0.579,0.289c-0.113,0.176-0.113,0.341-0.113,0.465h-1.498c0.01-0.279,0.042-0.837,0.589-1.229
				c0.475-0.341,1.084-0.424,1.581-0.424c0.434,0,1.343,0.072,1.859,0.672c0.351,0.424,0.361,1.043,0.361,1.281l0.011,2.097
				c0,0.444,0.031,0.889,0.124,1.322H63.356z M61.476,48.137c0,0.351,0.238,0.743,0.744,0.743c0.279,0,0.506-0.134,0.651-0.299
				c0.269-0.331,0.29-0.733,0.29-1.292C62.179,47.208,61.476,47.517,61.476,48.137z"/>
			<path fill="#DEF3FD" d="M69.035,49.676c-0.496,0.134-0.94,0.165-1.188,0.165c-1.54,0-1.54-0.971-1.54-1.404v-2.862h-1.002v-1.012
				h1.002v-1.022l1.519-0.559v1.581h1.24v1.012h-1.24v2.355c0.01,0.476,0.01,0.775,0.692,0.775c0.227,0,0.331-0.011,0.517-0.031
				V49.676z"/>
			<path fill="#DEF3FD" d="M69.932,42.291h1.632v1.332h-1.632V42.291z M69.984,44.521h1.529v5.228h-1.529V44.521z"/>
			<path fill="#DEF3FD" d="M75.313,44.408c1.891,0,2.707,1.281,2.707,2.737c0,1.467-0.847,2.789-2.737,2.789
				c-1.488,0-2.665-0.919-2.665-2.747C72.617,45.926,73.257,44.408,75.313,44.408z M75.334,48.871c0.671,0,1.126-0.403,1.126-1.787
				c0-0.692-0.134-1.653-1.147-1.653c-1.116,0-1.126,1.292-1.126,1.767C74.187,48.365,74.579,48.871,75.334,48.871z"/>
			<path fill="#DEF3FD" d="M79.184,45.462c0-0.021,0-0.589-0.031-0.95h1.467l0.042,0.785c0.145-0.237,0.558-0.909,1.694-0.909
				c1.023,0,1.457,0.62,1.591,0.981c0.113,0.32,0.145,0.589,0.145,1.56v2.82h-1.56v-3.244c0-0.217,0-0.402-0.083-0.567
				c-0.114-0.228-0.351-0.444-0.744-0.444c-0.331,0-0.63,0.154-0.795,0.402c-0.093,0.135-0.186,0.393-0.186,0.796v3.058h-1.54
				V45.462z"/>
		</g>
	</g>
</g>
</svg>
