<?xml version="1.0" encoding="utf-8"?>
<!-- Generator: Adobe Illustrator 17.0.0, SVG Export Plug-In . SVG Version: 6.00 Build 0)  -->
<!DOCTYPE svg PUBLIC "-//W3C//DTD SVG 1.1//EN" "http://www.w3.org/Graphics/SVG/1.1/DTD/svg11.dtd">
<svg version="1.1" id="Layer_1" xmlns="http://www.w3.org/2000/svg" xmlns:xlink="http://www.w3.org/1999/xlink" x="0px" y="0px"
	 width="267.279px" height="333.161px" viewBox="0 0 267.279 333.161" enable-background="new 0 0 267.279 333.161"
	 xml:space="preserve">
<g>
	<g>
		<path fill="#020202" d="M6.374,0c1.309,0,3.11,0.306,4.317,1.666C12,3.162,12.256,5.083,12.256,6.29
			c0,1.785-0.544,3.688-1.547,4.811c-1.36,1.53-3.349,1.751-4.369,1.751c-1.614,0-3.229-0.51-4.352-1.683
			C0.646,9.74,0.476,7.7,0.476,6.579C0.476,3.315,1.954,0,6.374,0z M4.147,9.927c0.374,0.51,1.003,0.986,2.227,0.986
			c1.071,0,1.802-0.374,2.295-1.139C9.077,9.162,9.502,8.21,9.502,6.255c0-0.595-0.051-1.445-0.307-2.192
			C8.686,2.55,7.648,1.887,6.391,1.887c-0.985,0-1.768,0.408-2.261,1.037c-0.696,0.85-0.9,2.176-0.9,3.57
			C3.229,7.667,3.416,8.975,4.147,9.927z"/>
		<path fill="#020202" d="M15.792,3.961l1.938,5.83l1.972-5.83h2.432l-3.094,8.584h-2.788l-3.145-8.584H15.792z"/>
		<path fill="#020202" d="M25.567,8.89c0,0.561,0,2.295,1.751,2.295c0.629,0,1.258-0.238,1.495-1.19h2.295
			c-0.034,0.408-0.119,1.139-0.815,1.87c-0.629,0.663-1.751,1.003-3.009,1.003c-0.731,0-2.125-0.136-3.026-1.071
			c-0.781-0.816-1.104-1.972-1.104-3.349c0-1.394,0.34-3.06,1.785-4.063c0.663-0.442,1.479-0.714,2.413-0.714
			c1.225,0,2.687,0.476,3.468,2.074c0.578,1.173,0.544,2.431,0.51,3.145H25.567z M28.763,7.31c0-0.391-0.034-1.921-1.496-1.921
			c-1.104,0-1.563,0.918-1.614,1.921H28.763z"/>
		<path fill="#020202" d="M32.996,6.068c0-0.408-0.067-1.648-0.118-2.142h2.362l0.051,1.649c0.323-0.731,0.884-1.768,2.924-1.666
			V6.17c-2.55-0.238-2.702,1.071-2.702,2.142v4.232h-2.517V6.068z"/>
		<path fill="#020202" d="M41.259,3.961l1.581,6.476l1.818-6.476h2.771l1.802,6.476l1.684-6.476h2.498l-2.94,8.584h-2.736
			l-1.769-6.357l-1.802,6.357h-2.771L38.59,3.961H41.259z"/>
		<path fill="#020202" d="M56.745,8.89c0,0.561,0,2.295,1.751,2.295c0.629,0,1.258-0.238,1.495-1.19h2.295
			c-0.034,0.408-0.119,1.139-0.815,1.87c-0.629,0.663-1.751,1.003-3.009,1.003c-0.731,0-2.125-0.136-3.026-1.071
			c-0.781-0.816-1.104-1.972-1.104-3.349c0-1.394,0.34-3.06,1.785-4.063c0.663-0.442,1.479-0.714,2.413-0.714
			c1.225,0,2.687,0.476,3.468,2.074c0.578,1.173,0.544,2.431,0.51,3.145H56.745z M59.94,7.31c0-0.391-0.034-1.921-1.496-1.921
			c-1.104,0-1.563,0.918-1.614,1.921H59.94z"/>
		<path fill="#020202" d="M64.089,0.272h2.687v2.193h-2.687V0.272z M64.174,3.944h2.517v8.601h-2.517V3.944z"/>
		<path fill="#020202" d="M77.043,3.995c-0.068,0.68-0.119,1.258-0.119,2.125v6.34c0,3.162-2.635,3.468-4.283,3.468
			c-1.224,0-3.621-0.153-3.773-2.754h2.413c0.034,0.255,0.153,1.19,1.496,1.19c0.748,0,1.394-0.357,1.563-1.122
			c0.103-0.425,0.103-0.731,0.119-2.04c-0.799,1.054-1.699,1.173-2.312,1.173c-2.465,0-3.621-2.142-3.621-4.216
			c0-2.176,1.207-4.25,3.672-4.25c1.564,0,2.142,0.85,2.397,1.224l0.085-1.139H77.043z M72.726,10.658
			c1.768,0,1.768-2.074,1.768-2.448c0-0.969-0.187-2.618-1.717-2.618c-0.952,0-1.733,0.731-1.733,2.566
			C71.043,8.584,71.043,10.658,72.726,10.658z"/>
		<path fill="#020202" d="M79.355,0.272h2.499v4.862c0.289-0.408,0.918-1.292,2.481-1.292c1.275,0,2.091,0.629,2.499,1.156
			c0.306,0.425,0.561,1.207,0.561,2.329v5.218h-2.499V7.412c0-0.493,0-1.87-1.41-1.87c-0.714,0-1.615,0.408-1.615,1.751l0.018,5.252
			h-2.533V0.272z"/>
		<path fill="#020202" d="M94.723,12.426c-0.815,0.221-1.547,0.272-1.955,0.272c-2.532,0-2.532-1.598-2.532-2.312V5.678h-1.649
			V4.012h1.649V2.329l2.499-0.918v2.601h2.039v1.666h-2.039v3.875c0.017,0.782,0.017,1.275,1.139,1.275
			c0.374,0,0.544-0.017,0.85-0.051V12.426z"/>
		<path fill="#020202" d="M96.474,3.961h2.142v2.294h-2.142V3.961z M96.474,10.267h2.142v2.278h-2.142V10.267z"/>
		<path fill="#020202" d="M106.249,0.272h4.385c1.496,0,2.329,0.153,3.094,0.901c0.527,0.51,0.867,1.224,0.867,2.193
			c0,2.023-1.479,2.55-2.073,2.771c0.714,0.204,2.447,0.714,2.447,3.06c0,1.666-1.071,2.516-1.479,2.788
			c-0.851,0.561-1.802,0.561-2.771,0.561h-4.47V0.272z M107.897,5.457h2.38c0.578,0,2.55,0,2.55-1.938
			c0-1.853-1.547-1.853-2.481-1.853h-2.448V5.457z M107.897,11.168h2.906c1.344,0,2.414-0.714,2.414-2.125
			c0-1.224-0.85-2.125-2.346-2.125h-2.975V11.168z"/>
		<path fill="#020202" d="M117.503,0.272h3.008l3.468,10.114l3.553-10.114h2.805v12.273h-1.666V1.496l-4.028,11.049h-1.614
			l-3.876-10.981v10.981h-1.648V0.272z"/>
		<path fill="#020202" d="M133.517,0.272h1.699v12.273h-1.699V0.272z"/>
		<path fill="#020202" d="M143.92,9.519c-0.017,1.122,0.715,1.921,2.159,1.921c1.649,0,2.346-1.054,2.346-2.091
			c0-1.241-0.833-1.887-1.699-2.074c-0.612-0.119-1.037-0.102-1.632-0.085V5.813c1.173,0.102,3.145-0.136,3.145-2.04
			c0-1.326-0.901-1.853-2.074-1.853c-0.884,0-1.988,0.391-2.142,1.853h-1.717c0.102-2.924,2.855-3.213,3.808-3.213
			c2.566,0,3.842,1.547,3.842,3.179c0,0.969-0.527,2.363-2.346,2.771c2.516,0.357,2.516,2.618,2.516,2.855
			c0,1.649-1.343,3.468-4.08,3.468c-1.24,0-2.481-0.357-3.229-1.224c-0.663-0.748-0.68-1.598-0.697-2.091H143.92z"/>
		<path fill="#020202" d="M155.616,0.544c3.519,0,3.943,3.774,3.943,5.983c0,2.788-0.561,4.352-1.632,5.354
			c-0.833,0.782-1.818,0.901-2.346,0.901c-1.563,0-2.635-0.918-3.145-1.955c-0.391-0.782-0.765-1.921-0.765-4.029
			C151.673,5.049,151.877,0.544,155.616,0.544z M155.6,11.372c1.972,0,2.312-2.584,2.312-4.691c0-2.822-0.493-4.777-2.277-4.777
			c-2.058,0-2.329,2.703-2.329,4.811C153.305,9.332,153.814,11.372,155.6,11.372z"/>
		<path fill="#020202" d="M161.754,10.505h1.887v2.04h-1.887V10.505z"/>
		<path fill="#020202" d="M166.004,10.998l3.076-3.026c0.646-0.629,1.292-1.309,1.819-2.022c0.68-0.935,0.866-1.462,0.866-2.091
			c0-0.578-0.204-1.921-1.887-1.921c-1.887,0-1.921,1.615-1.921,2.057h-1.784c0.017-0.578,0.067-1.7,1.088-2.583
			c0.815-0.697,1.802-0.85,2.55-0.85c1.802,0,3.637,0.918,3.637,3.434c0,0.748-0.051,1.326-1.325,2.941
			c-0.34,0.425-1.836,1.972-2.176,2.312l-2.057,1.955h5.592v1.343h-7.479V10.998z"/>
		<path fill="#020202" d="M2.957,24.672v5.27h5.831v-5.27h1.699v12.273H8.788v-5.542H2.957v5.542H1.258V24.672H2.957z"/>
		<path fill="#020202" d="M17.373,36.996l-1.225,3.179H14.5l1.292-3.264l-3.553-8.499h1.802l2.669,6.731l2.72-6.731h1.733
			L17.373,36.996z"/>
		<path fill="#020202" d="M22.933,29.806c0-0.374-0.018-0.578-0.052-1.394h1.615l0.034,1.411c0.799-1.343,2.21-1.547,2.906-1.547
			c1.836,0,3.587,1.258,3.587,4.419c0,3.179-1.853,4.572-3.893,4.572c-1.241,0-2.159-0.527-2.618-1.275v4.233h-1.58V29.806z
			 M26.858,36.095c0.408,0,1.258-0.085,1.802-0.833c0.612-0.833,0.697-2.057,0.697-2.669c0-1.53-0.459-3.128-2.346-3.128
			c-2.55,0-2.55,2.703-2.55,3.468C24.462,33.97,24.615,36.095,26.858,36.095z"/>
		<path fill="#020202" d="M34.339,32.967c-0.034,1.768,0.697,3.077,2.447,3.077c1.037,0,1.87-0.544,2.006-1.768h1.599
			c-0.052,0.425-0.119,1.122-0.731,1.785c-0.374,0.425-1.224,1.139-2.94,1.139c-2.686,0-3.961-1.666-3.961-4.369
			c0-1.683,0.34-3.077,1.683-4.011c0.816-0.578,1.836-0.629,2.329-0.629c3.824,0,3.739,3.382,3.706,4.776H34.339z M38.844,31.845
			c0.017-0.816-0.137-2.516-2.108-2.516c-1.037,0-2.295,0.629-2.328,2.516H38.844z"/>
		<path fill="#020202" d="M42.907,30.146c0-0.578-0.034-1.173-0.085-1.734h1.614l0.034,1.649c0.306-1.19,1.326-1.581,2.04-1.683
			c0.476-0.068,0.833-0.051,1.104-0.034v1.564c-0.085-0.034-0.187-0.051-0.306-0.068c-0.119-0.017-0.272-0.017-0.459-0.017
			c-1.887,0-2.329,1.122-2.329,2.583v4.539h-1.614V30.146z"/>
		<path fill="#020202" d="M48.126,28.377h1.514v-1.785l1.58-0.51v2.294h1.904v1.173H51.22v5.116c0,0.425,0,1.139,1.14,1.139
			c0.322,0,0.629-0.051,0.765-0.085v1.241c-0.289,0.051-0.748,0.102-1.326,0.102c-1.462,0-2.158-0.425-2.158-1.819v-5.694h-1.514
			V28.377z"/>
		<path fill="#020202" d="M56.064,32.967c-0.034,1.768,0.697,3.077,2.447,3.077c1.037,0,1.87-0.544,2.006-1.768h1.599
			c-0.052,0.425-0.119,1.122-0.731,1.785c-0.374,0.425-1.224,1.139-2.94,1.139c-2.686,0-3.961-1.666-3.961-4.369
			c0-1.683,0.34-3.077,1.683-4.011c0.816-0.578,1.836-0.629,2.329-0.629c3.824,0,3.739,3.382,3.706,4.776H56.064z M60.569,31.845
			c0.017-0.816-0.137-2.516-2.108-2.516c-1.037,0-2.295,0.629-2.328,2.516H60.569z"/>
		<path fill="#020202" d="M64.599,29.397l-0.017-0.986h1.598l0.017,1.377c0.188-0.357,0.799-1.547,2.737-1.547
			c0.765,0,3.094,0.289,3.094,2.907v5.796h-1.633v-5.422c0-0.561-0.067-1.071-0.458-1.462c-0.408-0.391-0.97-0.578-1.514-0.578
			c-1.155,0-2.227,0.833-2.227,2.55v4.913h-1.598V29.397z"/>
		<path fill="#020202" d="M75.853,34.412c-0.018,0.646,0.322,1.547,1.869,1.547c0.663,0,1.156-0.119,1.496-0.544
			c0.17-0.221,0.272-0.51,0.272-0.799c0-0.833-0.596-0.986-1.87-1.275c-1.785-0.408-3.28-0.765-3.28-2.55
			c0-1.564,1.359-2.584,3.331-2.584c1.071,0,2.567,0.306,3.077,1.326c0.221,0.476,0.221,0.884,0.221,1.241h-1.632
			c0.051-1.292-1.071-1.394-1.648-1.394c-0.238,0-1.734,0-1.734,1.224c0,0.782,0.765,0.969,1.207,1.088
			c2.362,0.561,2.873,0.697,3.383,1.173c0.476,0.442,0.646,1.037,0.646,1.581c0,0.952-0.526,1.768-1.155,2.159
			c-0.748,0.459-1.649,0.578-2.533,0.578c-1.733,0-3.349-0.714-3.332-2.771H75.853z"/>
		<path fill="#020202" d="M83.281,24.706h1.921v1.751h-1.921V24.706z M83.451,28.412h1.598v8.533h-1.598V28.412z"/>
		<path fill="#020202" d="M91.866,28.191c3.417,0,4.182,2.686,4.182,4.47c0,2.499-1.41,4.573-4.317,4.573
			c-2.821,0-4.198-1.955-4.198-4.454C87.532,30.672,88.518,28.191,91.866,28.191z M91.765,36.044c1.207,0,2.584-0.867,2.584-3.434
			c0-2.125-0.986-3.247-2.482-3.247c-1.02,0-2.668,0.646-2.668,3.314C89.198,34.429,89.945,36.044,91.765,36.044z"/>
		<path fill="#020202" d="M98.599,29.397l-0.017-0.986h1.598l0.017,1.377c0.188-0.357,0.799-1.547,2.737-1.547
			c0.765,0,3.094,0.289,3.094,2.907v5.796h-1.633v-5.422c0-0.561-0.067-1.071-0.458-1.462c-0.408-0.391-0.97-0.578-1.514-0.578
			c-1.155,0-2.227,0.833-2.227,2.55v4.913h-1.598V29.397z"/>
		<path fill="#020202" d="M121.191,36.945h-2.108l-2.431-3.417l-2.413,3.417h-1.87l3.383-4.471l-3.196-4.063h2.091l2.278,3.213
			l2.38-3.213h1.887l-3.332,4.165L121.191,36.945z"/>
		<path fill="#020202" d="M124.064,33.919c-0.018,1.122,0.714,1.921,2.158,1.921c1.648,0,2.346-1.054,2.346-2.091
			c0-1.241-0.833-1.887-1.699-2.074c-0.612-0.119-1.037-0.102-1.632-0.085v-1.377c1.173,0.102,3.145-0.136,3.145-2.04
			c0-1.326-0.901-1.853-2.074-1.853c-0.884,0-1.988,0.391-2.142,1.853h-1.717c0.102-2.924,2.855-3.213,3.808-3.213
			c2.566,0,3.842,1.547,3.842,3.179c0,0.969-0.527,2.363-2.346,2.771c2.516,0.357,2.516,2.618,2.516,2.855
			c0,1.649-1.343,3.468-4.08,3.468c-1.24,0-2.481-0.357-3.229-1.224c-0.663-0.748-0.68-1.598-0.697-2.091H124.064z"/>
		<path fill="#020202" d="M141.133,36.996l-1.225,3.179h-1.648l1.292-3.264l-3.553-8.499h1.802l2.669,6.731l2.72-6.731h1.733
			L141.133,36.996z"/>
		<path fill="#020202" d="M147.712,32.967c-0.034,1.768,0.697,3.077,2.447,3.077c1.037,0,1.87-0.544,2.006-1.768h1.599
			c-0.052,0.425-0.119,1.122-0.731,1.785c-0.374,0.425-1.224,1.139-2.94,1.139c-2.686,0-3.961-1.666-3.961-4.369
			c0-1.683,0.34-3.077,1.683-4.011c0.816-0.578,1.836-0.629,2.329-0.629c3.824,0,3.739,3.382,3.706,4.776H147.712z M152.217,31.845
			c0.017-0.816-0.137-2.516-2.108-2.516c-1.037,0-2.295,0.629-2.328,2.516H152.217z"/>
		<path fill="#020202" d="M161.396,36.945c-0.119-0.425-0.153-0.833-0.153-1.275c-0.765,1.411-1.92,1.547-2.635,1.547
			c-1.954,0-3.008-1.105-3.008-2.516c0-0.68,0.237-1.768,1.495-2.499c0.918-0.51,2.278-0.561,2.958-0.561
			c0.408,0,0.663,0.017,1.156,0.051c0-1.054,0-1.513-0.307-1.887c-0.322-0.425-1.02-0.561-1.479-0.561
			c-1.615,0-1.7,1.105-1.717,1.445h-1.598c0.051-0.442,0.102-1.037,0.595-1.615c0.646-0.714,1.853-0.918,2.754-0.918
			c1.24,0,2.566,0.391,3.025,1.258c0.272,0.51,0.289,0.918,0.289,1.309l-0.068,4.08c0,0.136,0.018,1.275,0.137,2.142H161.396z
			 M160.291,32.746c-0.646,0-3.077,0-3.077,1.734c0,0.544,0.34,1.479,1.768,1.479c0.816,0,1.429-0.323,1.819-0.918
			c0.356-0.578,0.374-1.054,0.408-2.244C160.92,32.763,160.682,32.746,160.291,32.746z"/>
		<path fill="#020202" d="M165.731,30.146c0-0.578-0.034-1.173-0.085-1.734h1.614l0.034,1.649c0.306-1.19,1.326-1.581,2.04-1.683
			c0.476-0.068,0.833-0.051,1.104-0.034v1.564c-0.085-0.034-0.187-0.051-0.306-0.068c-0.119-0.017-0.272-0.017-0.459-0.017
			c-1.887,0-2.329,1.122-2.329,2.583v4.539h-1.614V30.146z"/>
		<path fill="#020202" d="M173.178,34.412c-0.018,0.646,0.322,1.547,1.869,1.547c0.663,0,1.156-0.119,1.496-0.544
			c0.17-0.221,0.272-0.51,0.272-0.799c0-0.833-0.596-0.986-1.87-1.275c-1.785-0.408-3.28-0.765-3.28-2.55
			c0-1.564,1.359-2.584,3.331-2.584c1.071,0,2.566,0.306,3.077,1.326c0.221,0.476,0.221,0.884,0.221,1.241h-1.632
			c0.051-1.292-1.071-1.394-1.648-1.394c-0.238,0-1.734,0-1.734,1.224c0,0.782,0.765,0.969,1.207,1.088
			c2.362,0.561,2.873,0.697,3.383,1.173c0.476,0.442,0.646,1.037,0.646,1.581c0,0.952-0.526,1.768-1.155,2.159
			c-0.748,0.459-1.649,0.578-2.533,0.578c-1.733,0-3.349-0.714-3.332-2.771H173.178z"/>
		<path fill="#020202" d="M3.654,75.495H0v-2.04h9.961v2.04H6.306v10.25H3.654V75.495z"/>
		<path fill="#020202" d="M11.253,79.268c0-0.408-0.067-1.648-0.118-2.142h2.362l0.051,1.649c0.323-0.731,0.884-1.768,2.924-1.666
			v2.261c-2.55-0.238-2.702,1.071-2.702,2.142v4.232h-2.517V79.268z"/>
		<path fill="#020202" d="M19.89,82.09c0,0.561,0,2.295,1.751,2.295c0.629,0,1.258-0.238,1.495-1.19h2.295
			c-0.034,0.408-0.119,1.139-0.815,1.87c-0.629,0.663-1.751,1.002-3.009,1.002c-0.731,0-2.125-0.136-3.026-1.071
			c-0.781-0.816-1.104-1.972-1.104-3.349c0-1.394,0.34-3.06,1.785-4.063c0.663-0.442,1.479-0.714,2.413-0.714
			c1.225,0,2.687,0.476,3.468,2.074c0.578,1.173,0.544,2.431,0.51,3.145H19.89z M23.085,80.509c0-0.391-0.034-1.921-1.496-1.921
			c-1.104,0-1.563,0.918-1.614,1.921H23.085z"/>
		<path fill="#020202" d="M32.469,85.745c-0.085-0.527-0.085-0.918-0.085-1.173c-0.951,1.377-2.091,1.377-2.566,1.377
			c-1.241,0-1.802-0.357-2.142-0.68c-0.51-0.51-0.748-1.207-0.748-1.887c0-0.68,0.238-1.938,1.819-2.668
			c1.054-0.476,2.566-0.476,3.399-0.476c0-0.561-0.018-0.833-0.119-1.139c-0.221-0.629-0.884-0.714-1.122-0.714
			c-0.356,0-0.73,0.153-0.952,0.476c-0.187,0.289-0.187,0.561-0.187,0.765h-2.465c0.017-0.459,0.068-1.377,0.969-2.023
			c0.782-0.561,1.785-0.697,2.601-0.697c0.714,0,2.21,0.119,3.06,1.104c0.578,0.697,0.596,1.717,0.596,2.108l0.017,3.451
			c0,0.731,0.051,1.462,0.204,2.176H32.469z M29.376,83.093c0,0.578,0.391,1.224,1.224,1.224c0.459,0,0.833-0.221,1.07-0.493
			c0.442-0.544,0.477-1.207,0.477-2.125C30.531,81.563,29.376,82.073,29.376,83.093z"/>
		<path fill="#020202" d="M41.818,85.625c-0.815,0.221-1.547,0.272-1.955,0.272c-2.532,0-2.532-1.598-2.532-2.312v-4.708h-1.649
			v-1.666h1.649v-1.683l2.499-0.918v2.601h2.039v1.666H39.83v3.875c0.017,0.782,0.017,1.275,1.139,1.275
			c0.374,0,0.544-0.017,0.85-0.051V85.625z"/>
		<path fill="#020202" d="M45.406,82.09c0,0.561,0,2.295,1.751,2.295c0.629,0,1.258-0.238,1.495-1.19h2.295
			c-0.034,0.408-0.119,1.139-0.815,1.87c-0.629,0.663-1.751,1.002-3.009,1.002c-0.731,0-2.125-0.136-3.026-1.071
			c-0.781-0.816-1.104-1.972-1.104-3.349c0-1.394,0.34-3.06,1.785-4.063c0.663-0.442,1.479-0.714,2.413-0.714
			c1.225,0,2.687,0.476,3.468,2.074c0.578,1.173,0.544,2.431,0.51,3.145H45.406z M48.602,80.509c0-0.391-0.034-1.921-1.496-1.921
			c-1.104,0-1.563,0.918-1.614,1.921H48.602z"/>
		<path fill="#020202" d="M58.513,73.472h2.533v10.879c0,0.51,0.033,1.071,0.067,1.394h-2.55l-0.067-1.241
			c-0.17,0.306-0.34,0.629-0.867,0.969c-0.629,0.408-1.292,0.442-1.666,0.442c-2.295,0-3.654-1.581-3.654-4.267
			c0-2.839,1.547-4.606,3.79-4.606c1.547,0,2.193,0.867,2.414,1.173V73.472z M56.592,84.283c0.731,0,1.326-0.442,1.598-0.969
			c0.374-0.714,0.408-1.598,0.408-2.023c0-1.683-0.73-2.601-1.87-2.601c-1.683,0-1.869,2.023-1.869,2.89
			C54.858,83.008,55.334,84.283,56.592,84.283z"/>
		<path fill="#020202" d="M69.597,77.161l1.581,6.476l1.818-6.476h2.771l1.802,6.476l1.684-6.476h2.498l-2.94,8.584h-2.736
			l-1.769-6.357l-1.802,6.357h-2.771l-2.805-8.584H69.597z"/>
		<path fill="#020202" d="M82.976,73.472h2.687v2.193h-2.687V73.472z M83.061,77.144h2.517v8.601h-2.517V77.144z"/>
		<path fill="#020202" d="M92.835,85.625c-0.815,0.221-1.547,0.272-1.955,0.272c-2.532,0-2.532-1.598-2.532-2.312v-4.708h-1.649
			v-1.666h1.649v-1.683l2.499-0.918v2.601h2.039v1.666h-2.039v3.875c0.017,0.782,0.017,1.275,1.139,1.275
			c0.374,0,0.544-0.017,0.85-0.051V85.625z"/>
		<path fill="#020202" d="M94.468,73.472h2.499v4.862c0.289-0.408,0.918-1.292,2.481-1.292c1.275,0,2.091,0.629,2.499,1.156
			c0.306,0.425,0.561,1.207,0.561,2.329v5.218h-2.499v-5.133c0-0.493,0-1.87-1.41-1.87c-0.714,0-1.615,0.408-1.615,1.751
			l0.018,5.252h-2.533V73.472z"/>
		<path fill="#020202" d="M114.664,85.745c-0.086-0.527-0.086-0.918-0.086-1.173c-0.951,1.377-2.09,1.377-2.566,1.377
			c-1.241,0-1.802-0.357-2.142-0.68c-0.51-0.51-0.748-1.207-0.748-1.887c0-0.68,0.238-1.938,1.819-2.668
			c1.054-0.476,2.566-0.476,3.399-0.476c0-0.561-0.018-0.833-0.119-1.139c-0.221-0.629-0.884-0.714-1.122-0.714
			c-0.356,0-0.73,0.153-0.952,0.476c-0.187,0.289-0.187,0.561-0.187,0.765h-2.465c0.017-0.459,0.068-1.377,0.969-2.023
			c0.782-0.561,1.785-0.697,2.601-0.697c0.714,0,2.21,0.119,3.06,1.104c0.578,0.697,0.596,1.717,0.596,2.108l0.017,3.451
			c0,0.731,0.051,1.462,0.204,2.176H114.664z M111.57,83.093c0,0.578,0.391,1.224,1.224,1.224c0.459,0,0.833-0.221,1.07-0.493
			c0.442-0.544,0.477-1.207,0.477-2.125C112.726,81.563,111.57,82.073,111.57,83.093z"/>
		<path fill="#020202" d="M118.998,78.69c0-0.034,0-0.969-0.051-1.564h2.414l0.067,1.292c0.238-0.391,0.918-1.496,2.788-1.496
			c1.683,0,2.396,1.02,2.617,1.615c0.188,0.527,0.238,0.969,0.238,2.566v4.641h-2.566v-5.337c0-0.357,0-0.663-0.136-0.935
			c-0.188-0.374-0.578-0.731-1.225-0.731c-0.544,0-1.036,0.255-1.309,0.663c-0.153,0.221-0.306,0.646-0.306,1.309v5.031h-2.533
			V78.69z"/>
		<path fill="#020202" d="M140.622,73.455l4.267,12.29h-2.652l-0.884-2.652h-4.861l-0.918,2.652h-2.516l4.437-12.29H140.622z
			 M140.689,81.104l-1.699-5.235l-1.819,5.235H140.689z"/>
		<path fill="#020202" d="M146.266,73.455h4.709c1.359-0.017,2.736-0.017,3.723,0.833c0.765,0.663,1.07,1.564,1.07,2.363
			c0,2.295-1.972,2.839-2.566,3.009c1.853,0.17,1.989,1.224,2.21,2.822c0.187,1.445,0.289,2.04,0.374,2.38
			c0.136,0.544,0.238,0.68,0.374,0.884h-2.907c-0.119-0.68-0.492-3.791-0.662-4.267c-0.238-0.697-0.885-0.697-1.326-0.697h-2.312
			v4.963h-2.687V73.455z M148.867,78.826h2.124c0.307,0,0.918,0,1.343-0.34c0.188-0.136,0.681-0.561,0.681-1.428
			c0-0.833-0.408-1.224-0.646-1.377c-0.408-0.289-0.9-0.289-1.733-0.289h-1.768V78.826z"/>
		<path fill="#020202" d="M157.741,73.472h4.589c0.714,0,2.091,0,3.026,0.578c1.121,0.714,1.377,1.904,1.377,2.618
			c0,0.459-0.085,1.258-0.715,1.836c-0.085,0.102-0.68,0.646-1.394,0.833v0.034c1.87,0.34,2.601,1.7,2.601,2.992
			c0,1.445-0.85,2.414-1.802,2.89c-0.951,0.493-2.617,0.493-3.094,0.493h-4.589V73.472z M160.257,78.469h1.836
			c0.747,0,2.107,0,2.107-1.581c0-1.53-1.292-1.53-2.159-1.53h-1.784V78.469z M160.257,83.773h1.784c1.207,0,2.567,0,2.567-1.649
			c0-1.751-1.581-1.751-2.839-1.751h-1.513V83.773z"/>
		<path fill="#020202" d="M168.588,74.42l1.508,0.218l-0.932-1.18l0.922-0.506l0.556,1.369l0.585-1.398l0.923,0.546l-0.973,1.17
			l1.518-0.178l-0.02,1.051l-1.478-0.228l0.932,1.22l-0.922,0.506l-0.575-1.398l-0.575,1.408l-0.893-0.535l0.922-1.21l-1.498,0.199
			V74.42z"/>
		<path fill="#020202" d="M7.853,101.866c-0.051-0.425-0.204-2.159-1.988-2.159c-1.955,0-2.771,2.04-2.771,4.573
			c0,0.731,0,4.215,2.566,4.215c1.104,0,2.159-0.697,2.21-2.329h2.771c-0.051,0.731-0.119,1.87-1.104,2.89
			c-1.088,1.122-2.465,1.377-3.587,1.377c-4.232,0-5.609-3.128-5.609-6.17c0-3.893,2.176-6.477,5.626-6.477
			c2.686,0,4.573,1.632,4.573,4.08H7.853z"/>
		<path fill="#020202" d="M14.67,101.561v5.116c0,0.748,0,1.887,1.343,1.887c1.615,0,1.615-1.207,1.615-2.668v-4.334h2.584v5.66
			c0.034,1.853,0.051,2.074,0.051,2.295c0.017,0.238,0.034,0.391,0.068,0.629h-2.448l-0.085-1.139c-0.255,0.374-0.9,1.36-2.532,1.36
			c-1.156,0-2.108-0.527-2.584-1.156c-0.562-0.697-0.562-1.887-0.562-2.312v-5.337H14.67z"/>
		<path fill="#020202" d="M22.592,103.668c0-0.408-0.067-1.648-0.118-2.142h2.362l0.051,1.649c0.323-0.731,0.884-1.768,2.924-1.666
			v2.261c-2.55-0.238-2.702,1.071-2.702,2.142v4.232h-2.517V103.668z"/>
		<path fill="#020202" d="M29.205,103.668c0-0.408-0.067-1.648-0.118-2.142h2.362l0.051,1.649c0.323-0.731,0.884-1.768,2.924-1.666
			v2.261c-2.55-0.238-2.702,1.071-2.702,2.142v4.232h-2.517V103.668z"/>
		<path fill="#020202" d="M37.841,106.49c0,0.561,0,2.295,1.751,2.295c0.629,0,1.258-0.238,1.495-1.19h2.295
			c-0.034,0.408-0.119,1.139-0.815,1.87c-0.629,0.663-1.751,1.003-3.009,1.003c-0.731,0-2.125-0.136-3.026-1.071
			c-0.781-0.816-1.104-1.972-1.104-3.349c0-1.394,0.34-3.06,1.785-4.063c0.663-0.442,1.479-0.714,2.413-0.714
			c1.225,0,2.687,0.476,3.468,2.074c0.578,1.173,0.544,2.431,0.51,3.145H37.841z M41.036,104.909c0-0.391-0.034-1.921-1.496-1.921
			c-1.104,0-1.563,0.918-1.614,1.921H41.036z"/>
		<path fill="#020202" d="M45.304,103.09c0-0.034,0-0.969-0.051-1.564h2.414l0.067,1.292c0.238-0.391,0.918-1.496,2.788-1.496
			c1.683,0,2.396,1.02,2.618,1.615c0.187,0.527,0.237,0.969,0.237,2.567v4.641h-2.566v-5.337c0-0.357,0-0.663-0.136-0.935
			c-0.188-0.374-0.578-0.731-1.225-0.731c-0.544,0-1.036,0.255-1.309,0.663c-0.153,0.221-0.306,0.646-0.306,1.309v5.032h-2.533
			V103.09z"/>
		<path fill="#020202" d="M60.705,110.025c-0.815,0.221-1.547,0.272-1.955,0.272c-2.532,0-2.532-1.598-2.532-2.312v-4.708h-1.649
			v-1.666h1.649v-1.683l2.499-0.918v2.601h2.039v1.666h-2.039v3.875c0.017,0.782,0.017,1.275,1.139,1.275
			c0.374,0,0.544-0.017,0.85-0.051V110.025z"/>
		<path fill="#020202" d="M67.047,97.872h4.589c0.714,0,2.091,0,3.026,0.578c1.121,0.714,1.377,1.904,1.377,2.618
			c0,0.459-0.086,1.258-0.715,1.836c-0.085,0.102-0.68,0.646-1.394,0.833v0.034c1.87,0.34,2.601,1.7,2.601,2.992
			c0,1.445-0.85,2.414-1.802,2.89c-0.952,0.493-2.617,0.493-3.094,0.493h-4.589V97.872z M69.563,102.869h1.836
			c0.748,0,2.107,0,2.107-1.581c0-1.53-1.292-1.53-2.159-1.53h-1.784V102.869z M69.563,108.173h1.784c1.207,0,2.567,0,2.567-1.649
			c0-1.751-1.581-1.751-2.839-1.751h-1.513V108.173z"/>
		<path fill="#020202" d="M78.334,97.889h3.791c1.768,0,3.247,0.119,4.267,1.343c0.646,0.782,0.748,1.666,0.748,2.295
			c0,1.428-0.595,2.635-1.564,3.264c-0.9,0.578-2.142,0.578-2.787,0.578h-1.785v4.776h-2.669V97.889z M80.936,103.413h1.054
			c0.85,0,2.431,0,2.431-1.87c0-1.666-1.411-1.666-2.159-1.666h-1.325V103.413z"/>
		<path fill="#020202" d="M88.908,101.561h2.142v2.294h-2.142V101.561z M88.908,107.867h2.142v2.278h-2.142V107.867z"/>
		<path fill="#020202" d="M101.675,100.234c-0.73,0.612-1.903,1.309-2.736,1.7v-1.7c1.104-0.578,2.192-1.292,2.855-1.853h1.513
			v11.763h-1.632V100.234z"/>
		<path fill="#020202" d="M112.3,107.595h-5.304v-2.023l5.1-7.343h1.836v7.989h1.717v1.377h-1.717v2.55H112.3V107.595z
			 M112.351,106.218v-6.204l-4.063,6.204H112.351z"/>
		<path fill="#020202" d="M120.664,98.144c3.519,0,3.943,3.774,3.943,5.983c0,2.788-0.561,4.352-1.632,5.354
			c-0.833,0.782-1.818,0.901-2.346,0.901c-1.563,0-2.635-0.918-3.145-1.955c-0.391-0.782-0.765-1.921-0.765-4.029
			C116.721,102.648,116.925,98.144,120.664,98.144z M120.647,108.972c1.972,0,2.312-2.584,2.312-4.691
			c0-2.822-0.493-4.777-2.277-4.777c-2.058,0-2.329,2.703-2.329,4.811C118.353,106.932,118.862,108.972,120.647,108.972z"/>
		<path fill="#020202" d="M129.249,98.025h1.105l-3.961,12.392h-1.122L129.249,98.025z"/>
		<path fill="#020202" d="M132.717,107.34c0,1.02,0.562,1.734,1.887,1.734c2.584,0,2.602-3.043,2.517-4.878
			c-0.612,1.156-1.717,1.479-2.635,1.479c-1.87,0-3.587-1.258-3.587-3.723c0-2.703,1.921-3.791,3.773-3.791
			c1.258,0,3.11,0.51,3.791,2.89c0.204,0.714,0.34,1.564,0.34,3.162c0,1.734-0.018,6.205-4.335,6.205
			c-1.598,0-3.468-0.629-3.535-3.077H132.717z M134.672,99.436c-1.377,0-2.107,1.139-2.107,2.533c0,1.53,0.935,2.414,2.227,2.414
			c1.326,0,2.142-0.986,2.142-2.397C136.933,100.286,135.828,99.436,134.672,99.436z"/>
		<path fill="#020202" d="M144.294,98.144c3.519,0,3.943,3.774,3.943,5.983c0,2.788-0.561,4.352-1.632,5.354
			c-0.833,0.782-1.818,0.901-2.346,0.901c-1.563,0-2.635-0.918-3.145-1.955c-0.391-0.782-0.765-1.921-0.765-4.029
			C140.351,102.648,140.555,98.144,144.294,98.144z M144.277,108.972c1.972,0,2.312-2.584,2.312-4.691
			c0-2.822-0.493-4.777-2.277-4.777c-2.058,0-2.329,2.703-2.329,4.811C141.982,106.932,142.492,108.972,144.277,108.972z"/>
		<path fill="#020202" d="M155.259,102.75l-0.033-1.139h1.614v1.241c0.816-1.343,1.972-1.461,2.703-1.461
			c1.887,0,2.481,0.969,2.787,1.598c0.289-0.476,0.986-1.598,2.873-1.598c1.224,0,3.128,0.51,3.128,3.025v5.729h-1.615v-5.474
			c0-0.748-0.136-1.071-0.289-1.292c-0.271-0.391-0.815-0.748-1.632-0.748c-1.037,0-1.598,0.595-1.818,0.901
			c-0.374,0.527-0.374,1.462-0.374,1.836v4.776h-1.615v-5.644c0-1.054-0.611-1.87-1.869-1.87c-1.088,0-1.684,0.68-1.87,0.935
			c-0.357,0.493-0.374,1.189-0.374,1.733v4.845h-1.615V102.75z"/>
		<path fill="#020202" d="M171.307,102.75l-0.033-1.139h1.614v1.241c0.816-1.343,1.972-1.461,2.703-1.461
			c1.887,0,2.481,0.969,2.787,1.598c0.289-0.476,0.986-1.598,2.873-1.598c1.224,0,3.128,0.51,3.128,3.025v5.729h-1.615v-5.474
			c0-0.748-0.136-1.071-0.289-1.292c-0.271-0.391-0.815-0.748-1.632-0.748c-1.037,0-1.598,0.595-1.818,0.901
			c-0.374,0.527-0.374,1.462-0.374,1.836v4.776h-1.615v-5.644c0-1.054-0.611-1.87-1.869-1.87c-1.088,0-1.684,0.68-1.87,0.935
			c-0.357,0.493-0.374,1.189-0.374,1.733v4.845h-1.615V102.75z"/>
		<path fill="#020202" d="M189.071,97.872v5.27h5.831v-5.27h1.699v12.273h-1.699v-5.542h-5.831v5.542h-1.699V97.872H189.071z"/>
		<path fill="#020202" d="M201.175,110.808c0.068,0.952,0.477,1.666,1.989,1.666c2.227,0,2.261-1.615,2.261-3.926
			c-0.68,1.411-2.295,1.445-2.805,1.445c-0.782,0-1.904-0.17-2.618-1.054c-0.73-0.867-0.969-2.006-0.969-3.145
			c0-2.89,1.7-4.301,3.791-4.301c1.717,0,2.346,0.85,2.686,1.292l0.017-1.173h1.547l-0.034,1.547l-0.017,5.337
			c0,2.057-0.068,2.89-0.408,3.536c-0.714,1.36-2.38,1.53-3.553,1.53c-3.416,0-3.519-1.598-3.586-2.753H201.175z M204.897,107.952
			c0.34-0.442,0.578-0.901,0.578-2.448c0-1.071-0.238-1.683-0.663-2.125c-0.425-0.459-1.104-0.748-1.836-0.748
			c-2.022,0-2.294,2.04-2.294,3.127c0,1.309,0.391,3.043,2.346,3.043C203.963,108.802,204.507,108.462,204.897,107.952z"/>
		<path fill="#020202" d="M2.481,155.358c0.034,0.85,0.136,2.431,2.958,2.431c2.55,0,2.872-1.581,2.872-2.193
			c0-1.377-1.104-1.649-2.821-2.074c-1.87-0.459-2.703-0.663-3.332-1.088c-1.003-0.68-1.274-1.598-1.274-2.414
			c0-2.499,2.362-3.586,4.675-3.586c0.815,0,2.464,0.136,3.45,1.207c0.68,0.748,0.714,1.581,0.748,2.091H7.989
			c-0.085-1.53-1.377-1.87-2.584-1.87c-1.7,0-2.72,0.765-2.72,1.989c0,1.088,0.714,1.462,2.21,1.819
			c2.924,0.748,3.246,0.816,3.96,1.292c1.14,0.748,1.225,1.938,1.225,2.448c0,2.176-1.7,3.825-4.845,3.825
			c-0.936,0-2.839-0.153-3.808-1.395c-0.697-0.9-0.714-1.886-0.714-2.481H2.481z"/>
		<path fill="#020202" d="M12.579,151.551l-0.033-1.139h1.614v1.241c0.816-1.343,1.972-1.461,2.703-1.461
			c1.887,0,2.481,0.969,2.787,1.598c0.289-0.476,0.986-1.598,2.873-1.598c1.224,0,3.128,0.51,3.128,3.025v5.729h-1.615v-5.474
			c0-0.748-0.136-1.071-0.289-1.292c-0.271-0.391-0.815-0.748-1.632-0.748c-1.037,0-1.598,0.595-1.818,0.901
			c-0.374,0.527-0.374,1.462-0.374,1.836v4.776h-1.615v-5.644c0-1.054-0.611-1.87-1.869-1.87c-1.088,0-1.684,0.68-1.87,0.935
			c-0.357,0.493-0.374,1.189-0.374,1.733v4.845h-1.615V151.551z"/>
		<path fill="#020202" d="M32.35,150.191c3.417,0,4.182,2.686,4.182,4.47c0,2.499-1.41,4.573-4.317,4.573
			c-2.821,0-4.198-1.955-4.198-4.454C28.016,152.672,29.001,150.191,32.35,150.191z M32.248,158.043
			c1.207,0,2.584-0.866,2.584-3.433c0-2.125-0.986-3.247-2.482-3.247c-1.02,0-2.668,0.646-2.668,3.314
			C29.682,156.429,30.429,158.043,32.248,158.043z"/>
		<path fill="#020202" d="M38.912,146.587h1.581v7.31l3.195-3.485h2.091l-3.604,3.621L46,158.945h-2.091l-3.416-4.606v4.606h-1.581
			V146.587z"/>
		<path fill="#020202" d="M48.5,154.967c-0.034,1.768,0.697,3.076,2.447,3.076c1.037,0,1.87-0.543,2.006-1.768h1.599
			c-0.052,0.425-0.119,1.122-0.731,1.785c-0.374,0.425-1.224,1.139-2.94,1.139c-2.686,0-3.961-1.666-3.961-4.369
			c0-1.683,0.34-3.077,1.683-4.011c0.816-0.578,1.836-0.629,2.329-0.629c3.824,0,3.739,3.382,3.706,4.776H48.5z M53.005,153.845
			c0.017-0.816-0.137-2.516-2.108-2.516c-1.037,0-2.295,0.629-2.328,2.516H53.005z"/>
		<path fill="#020202" d="M57.068,152.146c0-0.578-0.034-1.173-0.085-1.734h1.614l0.034,1.649c0.306-1.19,1.326-1.581,2.04-1.683
			c0.476-0.068,0.833-0.051,1.104-0.034v1.564c-0.085-0.034-0.187-0.051-0.306-0.068c-0.119-0.017-0.271-0.017-0.459-0.017
			c-1.887,0-2.329,1.122-2.329,2.583v4.539h-1.614V152.146z"/>
		<path fill="#020202" d="M70.09,161.036c-0.918-2.261-2.022-5.083-2.022-7.564c0-1.343,0.306-2.668,0.696-3.96
			c0.477-1.53,0.918-2.618,1.207-3.349h1.122c-0.272,0.833-0.646,1.989-1.003,3.604c-0.357,1.564-0.476,2.618-0.476,3.672
			c0,2.414,0.595,4.369,1.58,7.598H70.09z"/>
		<path fill="#020202" d="M73.389,157.398l3.076-3.026c0.646-0.629,1.292-1.309,1.819-2.022c0.68-0.935,0.866-1.462,0.866-2.091
			c0-0.578-0.204-1.921-1.887-1.921c-1.887,0-1.921,1.615-1.921,2.057h-1.784c0.017-0.578,0.067-1.7,1.088-2.583
			c0.815-0.697,1.802-0.85,2.55-0.85c1.802,0,3.637,0.918,3.637,3.434c0,0.748-0.051,1.326-1.325,2.941
			c-0.34,0.425-1.836,1.972-2.176,2.312l-2.057,1.955h5.592v1.343h-7.479V157.398z"/>
		<path fill="#020202" d="M86.63,146.944c3.519,0,3.943,3.774,3.943,5.983c0,2.788-0.561,4.352-1.632,5.354
			c-0.833,0.782-1.818,0.9-2.346,0.9c-1.563,0-2.635-0.917-3.145-1.954c-0.391-0.782-0.765-1.921-0.765-4.029
			C82.687,151.449,82.891,146.944,86.63,146.944z M86.613,157.772c1.972,0,2.312-2.584,2.312-4.691c0-2.822-0.493-4.777-2.277-4.777
			c-2.058,0-2.329,2.703-2.329,4.811C84.318,155.732,84.828,157.772,86.613,157.772z"/>
		<path fill="#020202" d="M97.563,151.806c0-0.374-0.018-0.578-0.052-1.394h1.615l0.034,1.411c0.799-1.343,2.21-1.547,2.906-1.547
			c1.836,0,3.587,1.258,3.587,4.419c0,3.178-1.853,4.572-3.893,4.572c-1.241,0-2.159-0.526-2.618-1.274v4.232h-1.58V151.806z
			 M101.488,158.094c0.408,0,1.258-0.085,1.802-0.832c0.612-0.833,0.697-2.057,0.697-2.669c0-1.53-0.459-3.128-2.346-3.128
			c-2.55,0-2.55,2.703-2.55,3.468C99.092,155.97,99.245,158.094,101.488,158.094z"/>
		<path fill="#020202" d="M113.201,158.945c-0.119-0.425-0.153-0.833-0.153-1.275c-0.765,1.411-1.921,1.546-2.635,1.546
			c-1.954,0-3.008-1.104-3.008-2.515c0-0.68,0.237-1.768,1.495-2.499c0.918-0.51,2.278-0.561,2.958-0.561
			c0.408,0,0.663,0.017,1.156,0.051c0-1.054,0-1.513-0.307-1.887c-0.322-0.425-1.02-0.561-1.479-0.561
			c-1.615,0-1.7,1.105-1.717,1.445h-1.598c0.051-0.442,0.102-1.037,0.595-1.615c0.646-0.714,1.853-0.918,2.754-0.918
			c1.24,0,2.566,0.391,3.025,1.258c0.272,0.51,0.289,0.918,0.289,1.309l-0.068,4.08c0,0.136,0.018,1.274,0.137,2.142H113.201z
			 M112.097,154.746c-0.646,0-3.077,0-3.077,1.734c0,0.544,0.34,1.479,1.768,1.479c0.816,0,1.428-0.323,1.819-0.917
			c0.356-0.578,0.374-1.054,0.408-2.244C112.726,154.763,112.487,154.746,112.097,154.746z"/>
		<path fill="#020202" d="M122.313,153.148c-0.034-0.391-0.153-1.785-1.7-1.785c-2.209,0-2.209,2.566-2.209,3.212
			c0,1.751,0.425,3.382,2.124,3.382c1.36,0,1.819-1.02,1.854-1.853h1.614c-0.102,1.666-1.343,3.06-3.45,3.06
			c-0.578,0-1.904-0.119-2.805-1.104c-0.511-0.595-1.021-1.496-1.021-3.264c0-3.553,2.176-4.606,3.876-4.606
			c0.561,0,1.836,0.119,2.617,1.054c0.63,0.731,0.681,1.428,0.715,1.904H122.313z"/>
		<path fill="#020202" d="M125.833,146.587h1.581v7.31l3.195-3.485h2.091l-3.604,3.621l3.824,4.913h-2.091l-3.416-4.606v4.606
			h-1.581V146.587z"/>
		<path fill="#020202" d="M133.67,153.828h4.267v1.292h-4.267V153.828z"/>
		<path fill="#020202" d="M143.954,158.996l-1.225,3.179h-1.648l1.292-3.264l-3.553-8.499h1.802l2.669,6.731l2.72-6.731h1.733
			L143.954,158.996z"/>
		<path fill="#020202" d="M150.533,154.967c-0.034,1.768,0.697,3.076,2.447,3.076c1.037,0,1.87-0.543,2.006-1.768h1.599
			c-0.052,0.425-0.119,1.122-0.731,1.785c-0.374,0.425-1.224,1.139-2.94,1.139c-2.686,0-3.961-1.666-3.961-4.369
			c0-1.683,0.34-3.077,1.683-4.011c0.816-0.578,1.836-0.629,2.329-0.629c3.824,0,3.739,3.382,3.706,4.776H150.533z M155.038,153.845
			c0.017-0.816-0.137-2.516-2.108-2.516c-1.037,0-2.295,0.629-2.328,2.516H155.038z"/>
		<path fill="#020202" d="M164.218,158.945c-0.119-0.425-0.153-0.833-0.153-1.275c-0.765,1.411-1.92,1.546-2.635,1.546
			c-1.954,0-3.008-1.104-3.008-2.515c0-0.68,0.237-1.768,1.495-2.499c0.918-0.51,2.278-0.561,2.958-0.561
			c0.408,0,0.663,0.017,1.156,0.051c0-1.054,0-1.513-0.307-1.887c-0.322-0.425-1.02-0.561-1.479-0.561
			c-1.615,0-1.7,1.105-1.717,1.445h-1.598c0.051-0.442,0.102-1.037,0.595-1.615c0.646-0.714,1.853-0.918,2.754-0.918
			c1.24,0,2.566,0.391,3.025,1.258c0.272,0.51,0.289,0.918,0.289,1.309l-0.068,4.08c0,0.136,0.018,1.274,0.137,2.142H164.218z
			 M163.113,154.746c-0.646,0-3.077,0-3.077,1.734c0,0.544,0.34,1.479,1.768,1.479c0.816,0,1.429-0.323,1.819-0.917
			c0.356-0.578,0.374-1.054,0.408-2.244C163.742,154.763,163.504,154.746,163.113,154.746z"/>
		<path fill="#020202" d="M168.554,152.146c0-0.578-0.034-1.173-0.085-1.734h1.614l0.034,1.649c0.306-1.19,1.326-1.581,2.04-1.683
			c0.476-0.068,0.833-0.051,1.104-0.034v1.564c-0.085-0.034-0.187-0.051-0.306-0.068c-0.119-0.017-0.272-0.017-0.459-0.017
			c-1.887,0-2.329,1.122-2.329,2.583v4.539h-1.614V152.146z"/>
		<path fill="#020202" d="M176,156.412c-0.018,0.646,0.322,1.546,1.869,1.546c0.663,0,1.156-0.119,1.496-0.543
			c0.17-0.221,0.272-0.51,0.272-0.799c0-0.833-0.596-0.986-1.87-1.275c-1.785-0.408-3.28-0.765-3.28-2.55
			c0-1.564,1.359-2.584,3.331-2.584c1.071,0,2.566,0.306,3.077,1.326c0.221,0.476,0.221,0.884,0.221,1.241h-1.632
			c0.051-1.292-1.071-1.394-1.648-1.394c-0.238,0-1.734,0-1.734,1.224c0,0.782,0.765,0.969,1.207,1.088
			c2.362,0.561,2.873,0.697,3.383,1.173c0.476,0.442,0.646,1.037,0.646,1.581c0,0.952-0.526,1.767-1.155,2.159
			c-0.748,0.459-1.649,0.577-2.533,0.577c-1.733,0-3.349-0.714-3.332-2.77H176z"/>
		<path fill="#020202" d="M184.482,146.162c0.918,2.261,2.023,5.065,2.023,7.547c0,1.343-0.307,2.668-0.697,3.96
			c-0.476,1.53-0.918,2.634-1.207,3.366h-1.122c0.272-0.851,0.646-2.006,1.003-3.621c0.357-1.547,0.477-2.618,0.477-3.672
			c0-2.396-0.596-4.352-1.581-7.581H184.482z"/>
		<path fill="#020202" d="M1.258,171.072h4.113c1.496,0,2.516,0.085,3.349,0.986c0.612,0.629,0.901,1.461,0.901,2.379
			c0,0.936-0.307,1.734-0.97,2.397c-0.646,0.646-1.495,1.054-3.705,1.054H2.957v5.456H1.258V171.072z M2.957,176.46H4.98
			c1.122,0,2.839-0.085,2.839-2.091c0-1.921-1.599-1.921-2.482-1.921h-2.38V176.46z"/>
		<path fill="#020202" d="M11.679,171.088h1.598v12.256h-1.598V171.088z"/>
		<path fill="#020202" d="M21.572,183.344c-0.119-0.425-0.153-0.833-0.153-1.274c-0.765,1.411-1.921,1.547-2.635,1.547
			c-1.954,0-3.008-1.105-3.008-2.516c0-0.681,0.237-1.769,1.495-2.499c0.918-0.51,2.278-0.561,2.958-0.561
			c0.408,0,0.663,0.017,1.156,0.051c0-1.054,0-1.513-0.307-1.887c-0.322-0.426-1.02-0.562-1.479-0.562
			c-1.615,0-1.7,1.105-1.717,1.445h-1.598c0.051-0.442,0.102-1.037,0.595-1.615c0.646-0.714,1.853-0.918,2.754-0.918
			c1.24,0,2.566,0.392,3.025,1.258c0.272,0.51,0.289,0.918,0.289,1.31l-0.068,4.079c0,0.136,0.018,1.275,0.137,2.142H21.572z
			 M20.468,179.146c-0.646,0-3.077,0-3.077,1.733c0,0.544,0.34,1.479,1.768,1.479c0.816,0,1.428-0.323,1.819-0.918
			c0.356-0.578,0.374-1.054,0.408-2.244C21.097,179.163,20.858,179.146,20.468,179.146z"/>
		<path fill="#020202" d="M25.873,175.797l-0.017-0.986h1.598l0.017,1.377c0.188-0.356,0.799-1.547,2.737-1.547
			c0.765,0,3.093,0.289,3.093,2.907v5.796H31.67v-5.422c0-0.562-0.068-1.071-0.459-1.462c-0.408-0.392-0.97-0.578-1.514-0.578
			c-1.155,0-2.227,0.833-2.227,2.55v4.912h-1.598V175.797z"/>
		<path fill="#020202" d="M36.261,175.797l-0.017-0.986h1.598l0.017,1.377c0.188-0.356,0.799-1.547,2.737-1.547
			c0.765,0,3.094,0.289,3.094,2.907v5.796h-1.633v-5.422c0-0.562-0.067-1.071-0.458-1.462c-0.408-0.392-0.97-0.578-1.514-0.578
			c-1.155,0-2.227,0.833-2.227,2.55v4.912h-1.598V175.797z"/>
		<path fill="#020202" d="M46.443,171.106h1.921v1.751h-1.921V171.106z M46.613,174.811h1.598v8.533h-1.598V174.811z"/>
		<path fill="#020202" d="M51.373,175.797l-0.017-0.986h1.598l0.017,1.377c0.188-0.356,0.799-1.547,2.737-1.547
			c0.765,0,3.093,0.289,3.093,2.907v5.796H57.17v-5.422c0-0.562-0.068-1.071-0.459-1.462c-0.408-0.392-0.97-0.578-1.514-0.578
			c-1.155,0-2.227,0.833-2.227,2.55v4.912h-1.598V175.797z"/>
		<path fill="#020202" d="M63.238,184.007c0.068,0.952,0.477,1.666,1.989,1.666c2.227,0,2.261-1.615,2.261-3.927
			c-0.68,1.411-2.295,1.445-2.805,1.445c-0.782,0-1.904-0.17-2.618-1.055c-0.73-0.866-0.969-2.006-0.969-3.145
			c0-2.89,1.7-4.301,3.791-4.301c1.717,0,2.346,0.851,2.686,1.292l0.017-1.173h1.547l-0.034,1.547l-0.017,5.338
			c0,2.057-0.068,2.89-0.408,3.535c-0.714,1.36-2.38,1.53-3.553,1.53c-3.416,0-3.519-1.598-3.586-2.754H63.238z M66.961,181.152
			c0.34-0.442,0.578-0.901,0.578-2.448c0-1.07-0.238-1.683-0.663-2.124c-0.425-0.459-1.104-0.748-1.836-0.748
			c-2.022,0-2.294,2.039-2.294,3.127c0,1.31,0.391,3.043,2.346,3.043C66.026,182.001,66.57,181.662,66.961,181.152z"/>
		<path fill="#020202" d="M75.513,174.778h1.514v-1.785l1.58-0.51v2.295h1.904v1.173h-1.904v5.116c0,0.425,0,1.139,1.14,1.139
			c0.322,0,0.629-0.051,0.765-0.085v1.241c-0.289,0.051-0.748,0.102-1.326,0.102c-1.462,0-2.158-0.425-2.158-1.818v-5.694h-1.514
			V174.778z"/>
		<path fill="#020202" d="M86.188,174.59c3.417,0,4.182,2.686,4.182,4.471c0,2.499-1.41,4.572-4.317,4.572
			c-2.821,0-4.198-1.955-4.198-4.453C81.854,177.072,82.84,174.59,86.188,174.59z M86.087,182.444c1.207,0,2.584-0.867,2.584-3.434
			c0-2.125-0.986-3.247-2.482-3.247c-1.02,0-2.668,0.646-2.668,3.314C83.521,180.829,84.268,182.444,86.087,182.444z"/>
		<path fill="#020202" d="M105.092,174.811c-0.018,0.34-0.034,1.088-0.034,1.395v10.42h-1.614v-4.232
			c-0.137,0.203-0.307,0.476-0.697,0.73c-0.714,0.493-1.53,0.544-1.921,0.544c-2.074,0-3.893-1.462-3.893-4.624
			c0-3.145,1.785-4.368,3.587-4.368c1.733,0,2.532,0.952,2.906,1.547l0.051-1.411H105.092z M100.927,175.866
			c-2.294,0-2.328,2.413-2.328,3.076c0,0.612,0.085,1.853,0.696,2.72c0.374,0.544,1.037,0.833,1.836,0.833
			c1.972,0,2.363-1.547,2.363-3.247C103.494,178.551,103.494,175.866,100.927,175.866z"/>
		<path fill="#020202" d="M109.444,174.811v5.491c0,0.832,0.187,1.887,1.818,1.887c0.799,0,1.547-0.272,2.006-0.952
			c0.357-0.51,0.357-1.173,0.357-1.598v-4.828h1.648v6.936c0,0.17,0.034,1.122,0.051,1.598h-1.666l-0.033-1.462
			c-0.307,0.596-0.884,1.547-2.72,1.547c-2.108,0-3.094-1.207-3.094-2.89v-5.729H109.444z"/>
		<path fill="#020202" d="M118.217,171.106h1.921v1.751h-1.921V171.106z M118.387,174.811h1.598v8.533h-1.598V174.811z"/>
		<path fill="#020202" d="M121.786,174.778h1.514v-1.785l1.58-0.51v2.295h1.904v1.173h-1.904v5.116c0,0.425,0,1.139,1.14,1.139
			c0.322,0,0.629-0.051,0.765-0.085v1.241c-0.289,0.051-0.748,0.102-1.326,0.102c-1.462,0-2.158-0.425-2.158-1.818v-5.694h-1.514
			V174.778z"/>
		<path fill="#020202" d="M0.935,219.872H3.62v10.182h5.27v2.091H0.935V219.872z"/>
		<path fill="#020202" d="M10.233,219.872h2.687v2.192h-2.687V219.872z M10.318,223.543h2.517v8.601h-2.517V223.543z"/>
		<path fill="#020202" d="M17.407,223.56l0.067,1.224c0.782-1.377,2.21-1.394,2.618-1.394c2.227,0,3.569,1.666,3.569,4.283
			c0,2.432-1.258,4.59-3.739,4.59c-1.547,0-2.176-0.815-2.396-1.104v4.283h-2.567V223.56H17.407z M21.112,227.776
			c0-1.021-0.255-2.771-1.733-2.771c-0.816,0-1.972,0.611-1.972,2.924c0,0.51,0.017,2.686,1.87,2.686
			C20.467,230.615,21.112,229.475,21.112,227.776z"/>
		<path fill="#020202" d="M25.346,219.872h2.687v2.192h-2.687V219.872z M25.431,223.543h2.517v8.601h-2.517V223.543z"/>
		<path fill="#020202" d="M35.835,219.872h2.533v10.879c0,0.51,0.033,1.071,0.067,1.394h-2.55l-0.067-1.24
			c-0.17,0.306-0.34,0.629-0.867,0.969c-0.629,0.408-1.292,0.441-1.666,0.441c-2.295,0-3.654-1.58-3.654-4.267
			c0-2.838,1.547-4.606,3.79-4.606c1.547,0,2.193,0.867,2.414,1.173V219.872z M33.914,230.682c0.731,0,1.326-0.441,1.598-0.969
			c0.374-0.714,0.408-1.598,0.408-2.022c0-1.683-0.73-2.601-1.87-2.601c-1.683,0-1.869,2.022-1.869,2.89
			C32.181,229.408,32.656,230.682,33.914,230.682z"/>
		<path fill="#020202" d="M47.633,223.56l0.068,1.224c0.781-1.377,2.209-1.394,2.617-1.394c2.227,0,3.569,1.666,3.569,4.283
			c0,2.432-1.258,4.59-3.739,4.59c-1.547,0-2.176-0.815-2.396-1.104v4.283h-2.567V223.56H47.633z M51.338,227.776
			c0-1.021-0.255-2.771-1.733-2.771c-0.815,0-1.972,0.611-1.972,2.924c0,0.51,0.017,2.686,1.87,2.686
			C50.692,230.615,51.338,229.475,51.338,227.776z"/>
		<path fill="#020202" d="M55.657,225.667c0-0.407-0.067-1.648-0.118-2.142h2.362l0.051,1.649c0.323-0.731,0.884-1.769,2.924-1.666
			v2.261c-2.55-0.238-2.702,1.071-2.702,2.142v4.232h-2.517V225.667z"/>
		<path fill="#020202" d="M66.315,223.356c3.11,0,4.454,2.108,4.454,4.505c0,2.414-1.395,4.59-4.505,4.59
			c-2.448,0-4.386-1.514-4.386-4.521C61.879,225.855,62.933,223.356,66.315,223.356z M66.35,230.7c1.104,0,1.853-0.663,1.853-2.941
			c0-1.139-0.221-2.72-1.887-2.72c-1.836,0-1.853,2.125-1.853,2.907C64.463,229.867,65.108,230.7,66.35,230.7z"/>
		<path fill="#020202" d="M72.878,225.345h-1.292v-1.785h1.292v-1.173c0-1.513,0.492-2.736,2.94-2.736c0.187,0,0.663,0,1.359,0.085
			v1.751c-0.255-0.034-0.322-0.052-0.526-0.052c-1.275,0-1.275,0.681-1.275,1.122v1.003h1.581v1.785h-1.581v6.799h-2.498V225.345z
			 M78.232,219.872h2.686v2.192h-2.686V219.872z M78.317,223.543h2.516v8.601h-2.516V223.543z"/>
		<path fill="#020202" d="M83.043,219.855h2.517v12.289h-2.517V219.855z"/>
		<path fill="#020202" d="M89.793,228.49c0,0.561,0,2.295,1.751,2.295c0.629,0,1.258-0.238,1.495-1.19h2.295
			c-0.034,0.408-0.119,1.14-0.815,1.87c-0.629,0.663-1.751,1.003-3.009,1.003c-0.731,0-2.125-0.136-3.026-1.071
			c-0.781-0.815-1.104-1.972-1.104-3.349c0-1.394,0.34-3.06,1.785-4.063c0.663-0.441,1.479-0.714,2.413-0.714
			c1.225,0,2.687,0.477,3.468,2.074c0.578,1.173,0.544,2.431,0.51,3.145H89.793z M92.988,226.909c0-0.391-0.034-1.921-1.496-1.921
			c-1.104,0-1.563,0.918-1.614,1.921H92.988z"/>
		<path fill="#020202" d="M97.409,223.56h2.142v2.295h-2.142V223.56z M97.409,229.867h2.142v2.277h-2.142V229.867z"/>
		<path fill="#020202" d="M4.232,256.544v-10.828H0.119v-1.444h9.909v1.444H5.915v10.828H4.232z"/>
		<path fill="#020202" d="M19.038,247.586c-0.067-0.425-0.288-2.125-2.651-2.125c-2.958,0-3.484,3.026-3.484,5.065
			c0,2.313,0.663,4.811,3.468,4.811c0.748,0,1.462-0.187,1.988-0.73c0.442-0.476,0.544-1.003,0.595-1.292h1.87
			c-0.255,2.414-2.481,3.417-4.59,3.417c-4.317,0-5.15-3.808-5.15-6.188c0-2.584,1.003-6.442,5.372-6.442
			c1.733,0,4.182,0.697,4.402,3.484H19.038z"/>
		<path fill="#020202" d="M26.248,246.043l-1.706-0.188l1.012,1.369l-0.645,0.396l-0.665-1.567l-0.714,1.548l-0.674-0.367
			l1.051-1.379l-1.646,0.139v-0.724l1.677,0.218l-1.012-1.389l0.654-0.356l0.664,1.537l0.685-1.547l0.665,0.366l-1.042,1.389
			l1.696-0.188V246.043z"/>
		<path fill="#020202" d="M31.759,246.043l-1.706-0.188l1.012,1.369l-0.645,0.396l-0.665-1.567l-0.714,1.548l-0.674-0.367
			l1.051-1.379l-1.646,0.139v-0.724l1.677,0.218l-1.012-1.389l0.654-0.356l0.664,1.537l0.685-1.547l0.665,0.366l-1.042,1.389
			l1.696-0.188V246.043z"/>
		<path fill="#020202" d="M33.92,247.926h1.887v2.006H33.92V247.926z M33.92,254.539h1.887v2.006H33.92V254.539z"/>
		<path fill="#020202" d="M42.862,254.998l3.076-3.025c0.646-0.629,1.292-1.309,1.819-2.022c0.68-0.936,0.866-1.462,0.866-2.091
			c0-0.578-0.204-1.921-1.887-1.921c-1.887,0-1.921,1.614-1.921,2.057h-1.784c0.017-0.578,0.067-1.7,1.088-2.584
			c0.815-0.696,1.802-0.85,2.55-0.85c1.802,0,3.637,0.918,3.637,3.434c0,0.748-0.051,1.326-1.325,2.94
			c-0.34,0.425-1.836,1.972-2.176,2.312l-2.057,1.955h5.592v1.343h-7.479V254.998z"/>
		<path fill="#020202" d="M57.191,253.995h-5.304v-2.022l5.1-7.344h1.836v7.989h1.717v1.377h-1.717v2.55h-1.632V253.995z
			 M57.242,252.618v-6.204l-4.063,6.204H57.242z"/>
		<path fill="#020202" d="M65.471,246.634c-0.73,0.612-1.903,1.31-2.736,1.7v-1.7c1.104-0.577,2.192-1.291,2.855-1.853h1.513v11.763
			h-1.632V246.634z"/>
		<path fill="#020202" d="M76.521,249.151l-0.033-1.14h1.614v1.241c0.816-1.343,1.972-1.462,2.703-1.462
			c1.887,0,2.481,0.969,2.787,1.598c0.289-0.476,0.986-1.598,2.873-1.598c1.224,0,3.128,0.51,3.128,3.025v5.729h-1.615v-5.474
			c0-0.747-0.136-1.07-0.289-1.291c-0.271-0.392-0.815-0.748-1.632-0.748c-1.037,0-1.598,0.595-1.818,0.9
			c-0.374,0.527-0.374,1.462-0.374,1.836v4.776h-1.615v-5.644c0-1.054-0.611-1.869-1.869-1.869c-1.088,0-1.684,0.68-1.87,0.935
			c-0.357,0.493-0.374,1.189-0.374,1.733v4.845h-1.615V249.151z"/>
		<path fill="#020202" d="M94.115,257.208c0.068,0.952,0.477,1.666,1.989,1.666c2.227,0,2.261-1.615,2.261-3.927
			c-0.68,1.411-2.295,1.445-2.805,1.445c-0.782,0-1.904-0.17-2.618-1.055c-0.73-0.866-0.969-2.006-0.969-3.145
			c0-2.89,1.7-4.301,3.791-4.301c1.717,0,2.346,0.851,2.686,1.292l0.017-1.173h1.547l-0.034,1.547l-0.017,5.338
			c0,2.057-0.068,2.89-0.408,3.535c-0.714,1.36-2.38,1.53-3.553,1.53c-3.416,0-3.519-1.598-3.586-2.754H94.115z M97.838,254.352
			c0.34-0.442,0.578-0.901,0.578-2.448c0-1.07-0.238-1.683-0.663-2.124c-0.425-0.459-1.104-0.748-1.836-0.748
			c-2.022,0-2.294,2.039-2.294,3.127c0,1.31,0.391,3.043,2.346,3.043C96.903,255.202,97.447,254.862,97.838,254.352z"/>
		<path fill="#020202" d="M105.302,244.425h1.105l-3.961,12.392h-1.122L105.302,244.425z"/>
		<path fill="#020202" d="M113.614,244.289h1.598v10.896c0,0.187,0.034,0.918,0.068,1.359h-1.598l-0.034-1.359
			c-0.136,0.237-0.323,0.595-0.765,0.9c-0.697,0.477-1.53,0.629-2.108,0.629c-1.139,0-3.671-0.595-3.671-4.334
			c0-3.247,1.853-4.658,3.858-4.658c1.836,0,2.447,1.088,2.651,1.445V244.289z M113.02,249.78c-0.34-0.442-0.969-0.867-1.87-0.867
			c-2.346,0-2.346,2.839-2.346,3.417c0,1.513,0.392,3.264,2.346,3.264c2.516,0,2.516-2.771,2.516-3.435
			C113.665,250.918,113.376,250.239,113.02,249.78z"/>
		<path fill="#020202" d="M118.171,244.272h1.683v10.76h5.711v1.513h-7.394V244.272z"/>
		<path fill="#020202" d="M134.031,258.635c-0.918-2.261-2.022-5.082-2.022-7.564c0-1.343,0.306-2.668,0.696-3.96
			c0.477-1.53,0.918-2.618,1.207-3.349h1.122c-0.272,0.833-0.646,1.988-1.003,3.604c-0.357,1.563-0.476,2.617-0.476,3.672
			c0,2.413,0.595,4.368,1.58,7.598H134.031z"/>
		<path fill="#020202" d="M143.347,247.57c-0.017-1.377-1.036-1.751-1.784-1.751c-1.7,0-2.448,1.462-2.601,4.59
			c0.373-0.544,1.02-1.496,2.736-1.496c1.921,0,3.553,1.274,3.553,3.773c0,2.736-1.955,4.113-3.978,4.113
			c-1.139,0-2.278-0.459-2.907-1.274c-0.866-1.156-1.07-2.839-1.07-4.335c0-2.566,0.629-6.646,4.352-6.646
			c1.547,0,2.413,0.681,2.821,1.122c0.595,0.697,0.612,1.445,0.629,1.904H143.347z M143.619,252.839
			c0-0.833-0.238-2.618-2.193-2.618c-1.58,0-2.346,1.292-2.346,2.635c0,1.53,0.952,2.651,2.261,2.651
			C142.396,255.507,143.619,254.76,143.619,252.839z"/>
		<path fill="#020202" d="M147.258,254.505h1.887v2.039h-1.887V254.505z"/>
		<path fill="#020202" d="M151.508,254.998l3.076-3.025c0.646-0.629,1.292-1.309,1.819-2.022c0.68-0.936,0.866-1.462,0.866-2.091
			c0-0.578-0.204-1.921-1.887-1.921c-1.887,0-1.921,1.614-1.921,2.057h-1.784c0.017-0.578,0.067-1.7,1.088-2.584
			c0.815-0.696,1.802-0.85,2.55-0.85c1.802,0,3.637,0.918,3.637,3.434c0,0.748-0.051,1.326-1.325,2.94
			c-0.34,0.425-1.836,1.972-2.176,2.312l-2.057,1.955h5.592v1.343h-7.479V254.998z"/>
		<path fill="#020202" d="M166.264,249.151l-0.033-1.14h1.614v1.241c0.816-1.343,1.972-1.462,2.703-1.462
			c1.887,0,2.481,0.969,2.787,1.598c0.289-0.476,0.986-1.598,2.873-1.598c1.224,0,3.128,0.51,3.128,3.025v5.729h-1.615v-5.474
			c0-0.747-0.136-1.07-0.289-1.291c-0.271-0.392-0.815-0.748-1.632-0.748c-1.037,0-1.598,0.595-1.818,0.9
			c-0.374,0.527-0.374,1.462-0.374,1.836v4.776h-1.615v-5.644c0-1.054-0.611-1.869-1.869-1.869c-1.088,0-1.684,0.68-1.87,0.935
			c-0.357,0.493-0.374,1.189-0.374,1.733v4.845h-1.615V249.151z"/>
		<path fill="#020202" d="M182.312,249.151l-0.033-1.14h1.614v1.241c0.816-1.343,1.972-1.462,2.703-1.462
			c1.887,0,2.481,0.969,2.787,1.598c0.289-0.476,0.986-1.598,2.873-1.598c1.224,0,3.128,0.51,3.128,3.025v5.729h-1.615v-5.474
			c0-0.747-0.136-1.07-0.289-1.291c-0.271-0.392-0.815-0.748-1.632-0.748c-1.037,0-1.598,0.595-1.818,0.9
			c-0.374,0.527-0.374,1.462-0.374,1.836v4.776h-1.615v-5.644c0-1.054-0.611-1.869-1.869-1.869c-1.088,0-1.684,0.68-1.87,0.935
			c-0.357,0.493-0.374,1.189-0.374,1.733v4.845h-1.615V249.151z"/>
		<path fill="#020202" d="M202.081,247.791c3.417,0,4.182,2.686,4.182,4.471c0,2.499-1.41,4.572-4.317,4.572
			c-2.821,0-4.198-1.955-4.198-4.453C197.747,250.272,198.732,247.791,202.081,247.791z M201.979,255.644
			c1.207,0,2.584-0.867,2.584-3.434c0-2.125-0.986-3.247-2.482-3.247c-1.02,0-2.668,0.646-2.668,3.314
			C199.413,254.029,200.16,255.644,201.979,255.644z"/>
		<path fill="#020202" d="M208.798,244.289h1.598v12.256h-1.598V244.289z"/>
		<path fill="#020202" d="M215.817,244.425h1.105l-3.961,12.392h-1.122L215.817,244.425z"/>
		<path fill="#020202" d="M218.3,244.272h1.683v10.76h5.711v1.513H218.3V244.272z"/>
		<path fill="#020202" d="M228.567,243.762c0.918,2.261,2.023,5.065,2.023,7.547c0,1.343-0.307,2.669-0.697,3.961
			c-0.476,1.529-0.918,2.635-1.207,3.365h-1.122c0.272-0.85,0.646-2.006,1.003-3.62c0.357-1.547,0.477-2.618,0.477-3.672
			c0-2.396-0.596-4.352-1.581-7.581H228.567z"/>
		<path fill="#020202" d="M1.343,268.671h1.683v10.761h5.711v1.513H1.343V268.671z"/>
		<path fill="#020202" d="M10.71,268.671h3.553c1.648,0,3.586,0,4.946,1.599c1.088,1.274,1.513,2.957,1.513,4.641
			c0,2.651-1.104,4.283-2.04,5.031c-1.207,1.003-2.72,1.003-4.521,1.003h-3.45V268.671z M12.409,279.55h1.666
			c1.173,0,2.396-0.067,3.213-0.68c1.563-1.173,1.615-3.179,1.615-3.893c0-0.459-0.034-2.55-1.19-3.824
			c-0.782-0.867-1.768-1.071-3.264-1.071h-2.04V279.55z"/>
		<path fill="#020202" d="M23.068,268.671h1.683v10.761h5.712v1.513h-7.395V268.671z"/>
		<path fill="#020202" d="M31.653,275.828h4.267v1.292h-4.267V275.828z"/>
		<path fill="#020202" d="M45.49,271.987c-0.067-0.425-0.288-2.125-2.651-2.125c-2.958,0-3.484,3.025-3.484,5.065
			c0,2.312,0.663,4.811,3.468,4.811c0.748,0,1.462-0.188,1.988-0.731c0.442-0.476,0.544-1.003,0.595-1.291h1.87
			c-0.255,2.413-2.481,3.416-4.59,3.416c-4.317,0-5.15-3.808-5.15-6.188c0-2.583,1.003-6.442,5.372-6.442
			c1.733,0,4.182,0.697,4.402,3.485H45.49z"/>
		<path fill="#020202" d="M52.7,270.444l-1.706-0.188l1.012,1.368l-0.645,0.396l-0.665-1.566L49.982,272l-0.674-0.367l1.051-1.378
			l-1.646,0.139v-0.725l1.677,0.219l-1.012-1.389l0.654-0.357l0.664,1.537l0.685-1.547l0.665,0.367l-1.042,1.389L52.7,269.7V270.444
			z"/>
		<path fill="#020202" d="M58.21,270.444l-1.706-0.188l1.012,1.368l-0.645,0.396l-0.665-1.566L55.492,272l-0.674-0.367l1.051-1.378
			l-1.646,0.139v-0.725l1.677,0.219l-1.012-1.389l0.654-0.357l0.664,1.537l0.685-1.547l0.665,0.367l-1.042,1.389l1.696-0.188
			V270.444z"/>
		<path fill="#020202" d="M63.721,270.444l-1.706-0.188l1.012,1.368l-0.645,0.396l-0.665-1.566L61.003,272l-0.674-0.367l1.051-1.378
			l-1.646,0.139v-0.725l1.677,0.219l-1.012-1.389l0.654-0.357l0.664,1.537l0.685-1.547l0.665,0.367l-1.042,1.389l1.696-0.188
			V270.444z"/>
		<path fill="#020202" d="M65.882,272.327h1.887v2.006h-1.887V272.327z M65.882,278.939h1.887v2.006h-1.887V278.939z"/>
		<path fill="#020202" d="M78.529,271.035c-0.73,0.612-1.903,1.309-2.736,1.7v-1.7c1.104-0.578,2.192-1.292,2.855-1.853h1.513
			v11.763h-1.632V271.035z"/>
		<path fill="#020202" d="M86.095,278.157c0.034,1.19,1.071,1.666,1.955,1.666c2.057,0,2.328-1.938,2.328-2.703
			c0-1.598-0.866-2.532-2.227-2.532c-0.68,0-1.224,0.255-1.581,0.611c-0.356,0.357-0.459,0.715-0.544,0.986h-1.547l0.307-7.003
			h6.612v1.377h-5.15l-0.222,3.808c0.357-0.357,1.105-1.088,2.482-1.088c2.362,0,3.519,1.853,3.519,3.875
			c0,2.312-1.632,4.063-4.199,4.063c-1.903,0-3.416-1.054-3.501-3.06H86.095z"/>
		<path fill="#020202" d="M95.547,278.157c0.034,1.19,1.071,1.666,1.955,1.666c2.057,0,2.328-1.938,2.328-2.703
			c0-1.598-0.866-2.532-2.227-2.532c-0.68,0-1.224,0.255-1.581,0.611c-0.356,0.357-0.459,0.715-0.544,0.986h-1.547l0.307-7.003
			h6.612v1.377H95.7l-0.222,3.808c0.357-0.357,1.105-1.088,2.482-1.088c2.362,0,3.519,1.853,3.519,3.875
			c0,2.312-1.632,4.063-4.199,4.063c-1.903,0-3.416-1.054-3.501-3.06H95.547z"/>
		<path fill="#020202" d="M108.483,273.55l-0.033-1.139h1.614v1.24c0.816-1.343,1.972-1.461,2.703-1.461
			c1.887,0,2.481,0.969,2.787,1.598c0.289-0.477,0.986-1.598,2.873-1.598c1.224,0,3.128,0.51,3.128,3.025v5.729h-1.615v-5.474
			c0-0.748-0.136-1.071-0.289-1.292c-0.271-0.391-0.815-0.748-1.632-0.748c-1.037,0-1.598,0.595-1.818,0.901
			c-0.374,0.526-0.374,1.462-0.374,1.836v4.776h-1.615v-5.644c0-1.054-0.611-1.87-1.869-1.87c-1.088,0-1.684,0.68-1.87,0.936
			c-0.357,0.492-0.374,1.189-0.374,1.733v4.845h-1.615V273.55z"/>
		<path fill="#020202" d="M126.078,281.608c0.068,0.951,0.477,1.665,1.989,1.665c2.227,0,2.261-1.614,2.261-3.926
			c-0.68,1.41-2.295,1.444-2.805,1.444c-0.782,0-1.904-0.17-2.618-1.054c-0.73-0.867-0.969-2.006-0.969-3.145
			c0-2.89,1.7-4.301,3.791-4.301c1.717,0,2.346,0.85,2.686,1.292l0.017-1.173h1.547l-0.034,1.547l-0.017,5.337
			c0,2.058-0.068,2.89-0.408,3.536c-0.714,1.359-2.38,1.529-3.553,1.529c-3.416,0-3.519-1.598-3.586-2.753H126.078z
			 M129.801,278.751c0.34-0.441,0.578-0.9,0.578-2.447c0-1.071-0.238-1.683-0.663-2.125c-0.425-0.459-1.104-0.748-1.836-0.748
			c-2.022,0-2.294,2.04-2.294,3.128c0,1.309,0.391,3.043,2.346,3.043C128.866,279.602,129.41,279.262,129.801,278.751z"/>
		<path fill="#020202" d="M137.264,268.825h1.105l-3.961,12.392h-1.122L137.264,268.825z"/>
		<path fill="#020202" d="M145.576,268.689h1.598v10.896c0,0.188,0.034,0.918,0.068,1.36h-1.598l-0.034-1.36
			c-0.136,0.238-0.323,0.595-0.765,0.901c-0.697,0.476-1.53,0.629-2.108,0.629c-1.139,0-3.671-0.595-3.671-4.335
			c0-3.246,1.853-4.657,3.858-4.657c1.836,0,2.447,1.088,2.651,1.444V268.689z M144.981,274.179c-0.34-0.441-0.969-0.867-1.87-0.867
			c-2.346,0-2.346,2.839-2.346,3.417c0,1.513,0.391,3.264,2.346,3.264c2.516,0,2.516-2.771,2.516-3.434
			C145.627,275.318,145.338,274.638,144.981,274.179z"/>
		<path fill="#020202" d="M150.133,268.671h1.683v10.761h5.712v1.513h-7.395V268.671z"/>
		<path fill="#020202" d="M165.994,283.036c-0.918-2.261-2.022-5.083-2.022-7.564c0-1.343,0.306-2.669,0.696-3.961
			c0.477-1.529,0.918-2.617,1.207-3.349h1.122c-0.272,0.833-0.646,1.989-1.003,3.604c-0.357,1.564-0.476,2.618-0.476,3.672
			c0,2.414,0.595,4.369,1.58,7.599H165.994z"/>
		<path fill="#020202" d="M174.17,278.395h-5.304v-2.023l5.1-7.343h1.836v7.989h1.717v1.377h-1.717v2.55h-1.632V278.395z
			 M174.221,277.018v-6.204l-4.063,6.204H174.221z"/>
		<path fill="#020202" d="M179.22,278.905h1.887v2.04h-1.887V278.905z"/>
		<path fill="#020202" d="M187.261,268.944c3.519,0,3.943,3.773,3.943,5.983c0,2.788-0.561,4.352-1.632,5.354
			c-0.833,0.782-1.818,0.9-2.346,0.9c-1.563,0-2.635-0.917-3.145-1.954c-0.391-0.782-0.765-1.921-0.765-4.029
			C183.317,273.449,183.521,268.944,187.261,268.944z M187.244,279.772c1.972,0,2.312-2.584,2.312-4.691
			c0-2.822-0.493-4.777-2.277-4.777c-2.058,0-2.329,2.703-2.329,4.811C184.949,277.732,185.459,279.772,187.244,279.772z"/>
		<path fill="#020202" d="M198.226,273.55l-0.033-1.139h1.614v1.24c0.816-1.343,1.972-1.461,2.703-1.461
			c1.887,0,2.481,0.969,2.787,1.598c0.289-0.477,0.986-1.598,2.873-1.598c1.224,0,3.128,0.51,3.128,3.025v5.729h-1.615v-5.474
			c0-0.748-0.136-1.071-0.289-1.292c-0.271-0.391-0.815-0.748-1.632-0.748c-1.037,0-1.598,0.595-1.818,0.901
			c-0.374,0.526-0.374,1.462-0.374,1.836v4.776h-1.615v-5.644c0-1.054-0.611-1.87-1.869-1.87c-1.088,0-1.684,0.68-1.87,0.936
			c-0.357,0.492-0.374,1.189-0.374,1.733v4.845h-1.615V273.55z"/>
		<path fill="#020202" d="M214.273,273.55l-0.033-1.139h1.614v1.24c0.816-1.343,1.972-1.461,2.703-1.461
			c1.887,0,2.481,0.969,2.787,1.598c0.289-0.477,0.986-1.598,2.873-1.598c1.224,0,3.128,0.51,3.128,3.025v5.729h-1.615v-5.474
			c0-0.748-0.136-1.071-0.289-1.292c-0.271-0.391-0.815-0.748-1.632-0.748c-1.037,0-1.598,0.595-1.818,0.901
			c-0.374,0.526-0.374,1.462-0.374,1.836v4.776h-1.615v-5.644c0-1.054-0.611-1.87-1.869-1.87c-1.088,0-1.684,0.68-1.87,0.936
			c-0.357,0.492-0.374,1.189-0.374,1.733v4.845h-1.615V273.55z"/>
		<path fill="#020202" d="M234.044,272.191c3.417,0,4.182,2.686,4.182,4.47c0,2.499-1.41,4.573-4.317,4.573
			c-2.821,0-4.198-1.955-4.198-4.454C229.71,274.672,230.695,272.191,234.044,272.191z M233.942,280.043
			c1.207,0,2.584-0.866,2.584-3.434c0-2.125-0.986-3.246-2.482-3.246c-1.02,0-2.668,0.646-2.668,3.314
			C231.376,278.429,232.123,280.043,233.942,280.043z"/>
		<path fill="#020202" d="M240.76,268.689h1.598v12.256h-1.598V268.689z"/>
		<path fill="#020202" d="M247.779,268.825h1.105l-3.961,12.392h-1.122L247.779,268.825z"/>
		<path fill="#020202" d="M254.988,268.671h1.683v10.761h5.712v1.513h-7.395V268.671z"/>
		<path fill="#020202" d="M265.256,268.162c0.918,2.261,2.023,5.065,2.023,7.548c0,1.343-0.307,2.668-0.697,3.96
			c-0.476,1.53-0.918,2.635-1.207,3.366h-1.122c0.272-0.851,0.646-2.006,1.003-3.621c0.357-1.547,0.477-2.617,0.477-3.672
			c0-2.396-0.596-4.352-1.581-7.581H265.256z"/>
		<path fill="#020202" d="M4.232,305.344v-10.828H0.119v-1.444h9.909v1.444H5.915v10.828H4.232z"/>
		<path fill="#020202" d="M19.956,296.131c-0.187-1.139-1.104-1.921-2.771-1.921c-1.155,0-2.125,0.306-2.771,1.037
			c-1.071,1.189-1.309,2.788-1.309,3.943c0,1.037,0.221,2.788,1.122,3.858c0.799,0.918,2.039,1.207,3.264,1.207
			c1.394,0,2.277-0.271,2.668-0.391v-3.638h-2.805v-1.411h4.505v6.052c-0.714,0.238-2.278,0.748-4.368,0.748
			c-2.262,0-3.587-0.646-4.454-1.53c-1.207-1.224-1.717-2.94-1.717-4.675c0-1.224,0.306-4.113,2.635-5.677
			c1.207-0.816,2.805-0.867,3.417-0.867c0.969,0,2.447,0.119,3.62,1.309c0.731,0.766,0.782,1.479,0.816,1.955H19.956z"/>
		<path fill="#020202" d="M23.435,297.045h1.11l0.278-1.479h-0.992v-0.684h1.121l0.377-2.063h0.803l-0.387,2.063h1.21l0.377-2.063
			h0.804l-0.387,2.063h0.992v0.684H27.62l-0.268,1.479h0.981v0.684h-1.11l-0.367,1.954h-0.794l0.357-1.954h-1.2l-0.367,1.954H24.06
			l0.356-1.954h-0.991L23.435,297.045z M26.549,297.045l0.277-1.479h-1.21l-0.268,1.479H26.549z"/>
		<path fill="#020202" d="M30.296,296.726h1.887v2.006h-1.887V296.726z M30.296,303.338h1.887v2.006h-1.887V303.338z"/>
		<path fill="#020202" d="M39.238,303.797l3.076-3.025c0.646-0.629,1.292-1.309,1.819-2.022c0.68-0.936,0.866-1.462,0.866-2.091
			c0-0.578-0.204-1.921-1.887-1.921c-1.887,0-1.921,1.614-1.921,2.057h-1.784c0.017-0.578,0.067-1.7,1.088-2.584
			c0.815-0.696,1.802-0.85,2.55-0.85c1.802,0,3.637,0.918,3.637,3.434c0,0.748-0.051,1.326-1.325,2.94
			c-0.34,0.425-1.836,1.972-2.176,2.312l-2.057,1.955h5.592v1.343h-7.479V303.797z"/>
		<path fill="#020202" d="M52.48,293.343c3.519,0,3.943,3.774,3.943,5.983c0,2.788-0.561,4.352-1.632,5.354
			c-0.833,0.782-1.818,0.901-2.346,0.901c-1.563,0-2.635-0.918-3.145-1.955c-0.391-0.781-0.765-1.921-0.765-4.028
			C48.537,297.848,48.741,293.343,52.48,293.343z M52.464,304.171c1.972,0,2.312-2.584,2.312-4.691c0-2.821-0.493-4.776-2.277-4.776
			c-2.058,0-2.329,2.703-2.329,4.811C50.169,302.131,50.679,304.171,52.464,304.171z"/>
		<path fill="#020202" d="M61.933,293.343c3.519,0,3.943,3.774,3.943,5.983c0,2.788-0.561,4.352-1.632,5.354
			c-0.833,0.782-1.818,0.901-2.346,0.901c-1.563,0-2.635-0.918-3.145-1.955c-0.391-0.781-0.765-1.921-0.765-4.028
			C57.989,297.848,58.193,293.343,61.933,293.343z M61.916,304.171c1.972,0,2.312-2.584,2.312-4.691
			c0-2.821-0.493-4.776-2.277-4.776c-2.058,0-2.329,2.703-2.329,4.811C59.621,302.131,60.131,304.171,61.916,304.171z"/>
		<path fill="#020202" d="M72.897,297.951l-0.033-1.14h1.614v1.241c0.816-1.343,1.972-1.462,2.703-1.462
			c1.887,0,2.481,0.969,2.787,1.598c0.289-0.476,0.986-1.598,2.873-1.598c1.224,0,3.128,0.51,3.128,3.025v5.729h-1.615v-5.474
			c0-0.747-0.136-1.07-0.289-1.291c-0.271-0.392-0.815-0.748-1.632-0.748c-1.037,0-1.598,0.595-1.818,0.9
			c-0.374,0.527-0.374,1.462-0.374,1.836v4.776h-1.615v-5.644c0-1.054-0.611-1.869-1.869-1.869c-1.088,0-1.684,0.68-1.87,0.935
			c-0.357,0.493-0.374,1.189-0.374,1.733v4.845h-1.615V297.951z"/>
		<path fill="#020202" d="M90.492,306.007c0.068,0.952,0.477,1.666,1.989,1.666c2.227,0,2.261-1.615,2.261-3.927
			c-0.68,1.411-2.295,1.445-2.805,1.445c-0.782,0-1.904-0.17-2.618-1.055c-0.73-0.866-0.969-2.006-0.969-3.145
			c0-2.89,1.7-4.301,3.791-4.301c1.717,0,2.346,0.851,2.686,1.292l0.017-1.173h1.547l-0.034,1.547l-0.017,5.338
			c0,2.057-0.068,2.89-0.408,3.535c-0.714,1.36-2.38,1.53-3.553,1.53c-3.416,0-3.519-1.598-3.586-2.754H90.492z M94.215,303.152
			c0.34-0.442,0.578-0.901,0.578-2.448c0-1.07-0.238-1.683-0.663-2.124c-0.425-0.459-1.104-0.748-1.836-0.748
			c-2.022,0-2.294,2.039-2.294,3.127c0,1.31,0.391,3.043,2.346,3.043C93.28,304.001,93.824,303.662,94.215,303.152z"/>
		<path fill="#020202" d="M101.678,293.225h1.105l-3.961,12.392H97.7L101.678,293.225z"/>
		<path fill="#020202" d="M109.991,293.088h1.598v10.896c0,0.187,0.034,0.918,0.068,1.359h-1.598l-0.034-1.359
			c-0.136,0.237-0.323,0.595-0.765,0.9c-0.697,0.477-1.53,0.629-2.108,0.629c-1.139,0-3.671-0.595-3.671-4.334
			c0-3.247,1.853-4.658,3.858-4.658c1.836,0,2.447,1.088,2.651,1.445V293.088z M109.396,298.58c-0.34-0.442-0.969-0.867-1.87-0.867
			c-2.346,0-2.346,2.839-2.346,3.417c0,1.513,0.392,3.264,2.346,3.264c2.516,0,2.516-2.771,2.516-3.435
			C110.042,299.718,109.753,299.039,109.396,298.58z"/>
		<path fill="#020202" d="M114.548,293.072h1.683v10.76h5.711v1.513h-7.394V293.072z"/>
		<path fill="#020202" d="M130.408,307.435c-0.918-2.261-2.022-5.082-2.022-7.564c0-1.343,0.306-2.668,0.696-3.96
			c0.477-1.53,0.918-2.618,1.207-3.349h1.122c-0.272,0.833-0.646,1.988-1.003,3.604c-0.357,1.563-0.476,2.617-0.476,3.672
			c0,2.413,0.595,4.368,1.58,7.598H130.408z"/>
		<path fill="#020202" d="M133.707,303.797l3.076-3.025c0.646-0.629,1.292-1.309,1.819-2.022c0.68-0.936,0.866-1.462,0.866-2.091
			c0-0.578-0.204-1.921-1.887-1.921c-1.887,0-1.921,1.614-1.921,2.057h-1.784c0.017-0.578,0.067-1.7,1.088-2.584
			c0.815-0.696,1.802-0.85,2.55-0.85c1.802,0,3.637,0.918,3.637,3.434c0,0.748-0.051,1.326-1.325,2.94
			c-0.34,0.425-1.836,1.972-2.176,2.312l-2.057,1.955h5.592v1.343h-7.479V303.797z"/>
		<path fill="#020202" d="M143.635,303.305h1.887v2.039h-1.887V303.305z"/>
		<path fill="#020202" d="M149.432,302.319c-0.018,1.122,0.714,1.921,2.158,1.921c1.648,0,2.346-1.054,2.346-2.091
			c0-1.241-0.833-1.887-1.699-2.074c-0.612-0.119-1.037-0.102-1.632-0.085v-1.377c1.173,0.103,3.145-0.136,3.145-2.039
			c0-1.326-0.901-1.854-2.074-1.854c-0.884,0-1.988,0.392-2.142,1.854h-1.717c0.102-2.924,2.855-3.213,3.808-3.213
			c2.566,0,3.842,1.547,3.842,3.179c0,0.969-0.527,2.362-2.346,2.771c2.516,0.357,2.516,2.618,2.516,2.855
			c0,1.649-1.343,3.468-4.08,3.468c-1.24,0-2.481-0.356-3.229-1.224c-0.663-0.748-0.68-1.598-0.697-2.091H149.432z"/>
		<path fill="#020202" d="M162.64,297.951l-0.033-1.14h1.614v1.241c0.816-1.343,1.972-1.462,2.703-1.462
			c1.887,0,2.481,0.969,2.787,1.598c0.289-0.476,0.986-1.598,2.873-1.598c1.224,0,3.128,0.51,3.128,3.025v5.729h-1.615v-5.474
			c0-0.747-0.136-1.07-0.289-1.291c-0.271-0.392-0.815-0.748-1.632-0.748c-1.037,0-1.598,0.595-1.818,0.9
			c-0.374,0.527-0.374,1.462-0.374,1.836v4.776h-1.615v-5.644c0-1.054-0.611-1.869-1.869-1.869c-1.088,0-1.684,0.68-1.87,0.935
			c-0.357,0.493-0.374,1.189-0.374,1.733v4.845h-1.615V297.951z"/>
		<path fill="#020202" d="M178.688,297.951l-0.033-1.14h1.614v1.241c0.816-1.343,1.972-1.462,2.703-1.462
			c1.887,0,2.481,0.969,2.787,1.598c0.289-0.476,0.986-1.598,2.873-1.598c1.224,0,3.128,0.51,3.128,3.025v5.729h-1.615v-5.474
			c0-0.747-0.136-1.07-0.289-1.291c-0.271-0.392-0.815-0.748-1.632-0.748c-1.037,0-1.598,0.595-1.818,0.9
			c-0.374,0.527-0.374,1.462-0.374,1.836v4.776h-1.615v-5.644c0-1.054-0.611-1.869-1.869-1.869c-1.088,0-1.684,0.68-1.87,0.935
			c-0.357,0.493-0.374,1.189-0.374,1.733v4.845h-1.615V297.951z"/>
		<path fill="#020202" d="M198.458,296.59c3.417,0,4.182,2.686,4.182,4.471c0,2.499-1.41,4.572-4.317,4.572
			c-2.821,0-4.198-1.955-4.198-4.453C194.124,299.072,195.109,296.59,198.458,296.59z M198.356,304.444
			c1.207,0,2.584-0.867,2.584-3.434c0-2.125-0.986-3.247-2.482-3.247c-1.02,0-2.668,0.646-2.668,3.314
			C195.79,302.829,196.537,304.444,198.356,304.444z"/>
		<path fill="#020202" d="M205.174,293.088h1.598v12.256h-1.598V293.088z"/>
		<path fill="#020202" d="M212.194,293.225h1.105l-3.961,12.392h-1.122L212.194,293.225z"/>
		<path fill="#020202" d="M214.677,293.072h1.683v10.76h5.711v1.513h-7.394V293.072z"/>
		<path fill="#020202" d="M224.944,292.562c0.918,2.261,2.023,5.065,2.023,7.547c0,1.343-0.307,2.669-0.697,3.961
			c-0.476,1.529-0.918,2.635-1.207,3.365h-1.122c0.272-0.85,0.646-2.006,1.003-3.62c0.357-1.547,0.477-2.618,0.477-3.672
			c0-2.396-0.596-4.352-1.581-7.581H224.944z"/>
		<path fill="#020202" d="M2.957,317.471v5.27h5.831v-5.27h1.699v12.273H8.788v-5.542H2.957v5.542H1.258v-12.273H2.957z"/>
		<path fill="#020202" d="M13.531,317.471h3.553c1.648,0,3.586,0,4.946,1.599c1.088,1.274,1.513,2.957,1.513,4.641
			c0,2.651-1.104,4.283-2.04,5.031c-1.207,1.003-2.72,1.003-4.521,1.003h-3.45V317.471z M15.23,328.35h1.666
			c1.173,0,2.396-0.067,3.213-0.68c1.563-1.173,1.615-3.179,1.615-3.893c0-0.459-0.034-2.55-1.19-3.824
			c-0.782-0.867-1.768-1.071-3.264-1.071h-2.04V328.35z"/>
		<path fill="#020202" d="M25.891,317.471h1.683v10.761h5.712v1.513h-7.395V317.471z"/>
		<path fill="#020202" d="M34.475,324.627h4.267v1.292h-4.267V324.627z"/>
		<path fill="#020202" d="M48.312,320.787c-0.067-0.425-0.288-2.125-2.651-2.125c-2.958,0-3.484,3.025-3.484,5.065
			c0,2.312,0.663,4.811,3.468,4.811c0.748,0,1.462-0.188,1.988-0.731c0.442-0.476,0.544-1.003,0.595-1.291h1.87
			c-0.255,2.413-2.481,3.416-4.59,3.416c-4.317,0-5.15-3.808-5.15-6.188c0-2.583,1.003-6.442,5.372-6.442
			c1.733,0,4.182,0.697,4.402,3.485H48.312z"/>
		<path fill="#020202" d="M50.82,321.445h1.11l0.278-1.478h-0.992v-0.685h1.121l0.377-2.063h0.803l-0.387,2.063h1.21l0.377-2.063
			h0.804l-0.387,2.063h0.992v0.685h-1.121l-0.268,1.478h0.981v0.685h-1.11l-0.367,1.954h-0.794l0.357-1.954h-1.2l-0.367,1.954
			h-0.793l0.356-1.954h-0.991L50.82,321.445z M53.935,321.445l0.277-1.478h-1.21l-0.268,1.478H53.935z"/>
		<path fill="#020202" d="M56.331,321.445h1.11l0.278-1.478h-0.992v-0.685h1.121l0.377-2.063h0.803l-0.387,2.063h1.21l0.377-2.063
			h0.804l-0.387,2.063h0.992v0.685h-1.121l-0.268,1.478h0.981v0.685h-1.11l-0.367,1.954h-0.794l0.357-1.954h-1.2l-0.367,1.954
			h-0.793l0.356-1.954h-0.991L56.331,321.445z M59.445,321.445l0.277-1.478h-1.21l-0.268,1.478H59.445z"/>
		<path fill="#020202" d="M63.193,321.126h1.887v2.006h-1.887V321.126z M63.193,327.739h1.887v2.006h-1.887V327.739z"/>
		<path fill="#020202" d="M77.014,327.195H71.71v-2.023l5.1-7.343h1.836v7.989h1.717v1.377h-1.717v2.55h-1.632V327.195z
			 M77.064,325.818v-6.204l-4.063,6.204H77.064z"/>
		<path fill="#020202" d="M87.604,320.769c-0.017-1.377-1.036-1.751-1.784-1.751c-1.7,0-2.448,1.462-2.601,4.59
			c0.373-0.544,1.02-1.496,2.736-1.496c1.921,0,3.553,1.275,3.553,3.774c0,2.736-1.955,4.113-3.978,4.113
			c-1.139,0-2.278-0.459-2.907-1.275c-0.866-1.155-1.07-2.838-1.07-4.334c0-2.567,0.629-6.646,4.352-6.646
			c1.547,0,2.413,0.68,2.821,1.122c0.595,0.696,0.612,1.444,0.629,1.903H87.604z M87.876,326.039c0-0.833-0.238-2.617-2.193-2.617
			c-1.58,0-2.346,1.292-2.346,2.635c0,1.529,0.952,2.651,2.261,2.651C86.652,328.708,87.876,327.959,87.876,326.039z"/>
		<path fill="#020202" d="M96.343,322.35l-0.033-1.139h1.614v1.24c0.816-1.343,1.972-1.461,2.703-1.461
			c1.887,0,2.481,0.969,2.787,1.598c0.289-0.477,0.986-1.598,2.873-1.598c1.224,0,3.128,0.51,3.128,3.025v5.729H107.8v-5.474
			c0-0.748-0.136-1.071-0.289-1.292c-0.271-0.391-0.815-0.748-1.632-0.748c-1.037,0-1.598,0.595-1.818,0.901
			c-0.374,0.526-0.374,1.462-0.374,1.836v4.776h-1.615v-5.644c0-1.054-0.611-1.87-1.869-1.87c-1.088,0-1.684,0.68-1.87,0.936
			c-0.357,0.492-0.374,1.189-0.374,1.733v4.845h-1.615V322.35z"/>
		<path fill="#020202" d="M113.938,330.408c0.068,0.951,0.477,1.665,1.989,1.665c2.227,0,2.261-1.614,2.261-3.926
			c-0.68,1.41-2.295,1.444-2.805,1.444c-0.782,0-1.904-0.17-2.618-1.054c-0.73-0.867-0.969-2.006-0.969-3.145
			c0-2.89,1.7-4.301,3.791-4.301c1.717,0,2.346,0.85,2.686,1.292l0.017-1.173h1.547l-0.034,1.547l-0.017,5.337
			c0,2.058-0.068,2.89-0.408,3.536c-0.714,1.359-2.38,1.529-3.553,1.529c-3.416,0-3.519-1.598-3.586-2.753H113.938z M117.66,327.551
			c0.34-0.441,0.578-0.9,0.578-2.447c0-1.071-0.238-1.683-0.663-2.125c-0.425-0.459-1.104-0.748-1.836-0.748
			c-2.022,0-2.294,2.04-2.294,3.128c0,1.309,0.391,3.043,2.346,3.043C116.726,328.402,117.27,328.062,117.66,327.551z"/>
		<path fill="#020202" d="M125.123,317.625h1.105l-3.961,12.392h-1.122L125.123,317.625z"/>
		<path fill="#020202" d="M133.436,317.489h1.598v10.896c0,0.188,0.034,0.918,0.068,1.36h-1.598l-0.034-1.36
			c-0.136,0.238-0.323,0.595-0.765,0.901c-0.697,0.476-1.53,0.629-2.108,0.629c-1.139,0-3.671-0.595-3.671-4.335
			c0-3.246,1.853-4.657,3.858-4.657c1.836,0,2.447,1.088,2.651,1.444V317.489z M132.841,322.979c-0.34-0.441-0.969-0.867-1.87-0.867
			c-2.346,0-2.346,2.839-2.346,3.417c0,1.513,0.391,3.264,2.346,3.264c2.516,0,2.516-2.771,2.516-3.434
			C133.486,324.118,133.197,323.438,132.841,322.979z"/>
		<path fill="#020202" d="M137.992,317.471h1.683v10.761h5.712v1.513h-7.395V317.471z"/>
		<path fill="#020202" d="M153.854,331.835c-0.918-2.261-2.022-5.083-2.022-7.564c0-1.343,0.306-2.669,0.696-3.961
			c0.477-1.529,0.918-2.617,1.207-3.349h1.122c-0.272,0.833-0.646,1.989-1.003,3.604c-0.357,1.564-0.476,2.618-0.476,3.672
			c0,2.414,0.595,4.369,1.58,7.599H153.854z"/>
		<path fill="#020202" d="M160.856,319.834c-0.73,0.612-1.903,1.309-2.736,1.7v-1.7c1.104-0.578,2.192-1.292,2.855-1.853h1.513
			v11.763h-1.632V319.834z"/>
		<path fill="#020202" d="M167.079,327.705h1.887v2.04h-1.887V327.705z"/>
		<path fill="#020202" d="M171.33,328.198l3.076-3.026c0.646-0.629,1.292-1.309,1.819-2.022c0.68-0.935,0.866-1.462,0.866-2.091
			c0-0.578-0.204-1.921-1.887-1.921c-1.887,0-1.921,1.615-1.921,2.057H171.5c0.017-0.577,0.067-1.699,1.088-2.583
			c0.815-0.697,1.802-0.851,2.55-0.851c1.802,0,3.637,0.918,3.637,3.434c0,0.748-0.051,1.326-1.325,2.941
			c-0.34,0.425-1.836,1.972-2.176,2.312l-2.057,1.955h5.592v1.343h-7.479V328.198z"/>
		<path fill="#020202" d="M186.085,322.35l-0.033-1.139h1.614v1.24c0.816-1.343,1.972-1.461,2.703-1.461
			c1.887,0,2.481,0.969,2.787,1.598c0.289-0.477,0.986-1.598,2.873-1.598c1.224,0,3.128,0.51,3.128,3.025v5.729h-1.615v-5.474
			c0-0.748-0.136-1.071-0.289-1.292c-0.271-0.391-0.815-0.748-1.632-0.748c-1.037,0-1.598,0.595-1.818,0.901
			c-0.374,0.526-0.374,1.462-0.374,1.836v4.776h-1.615v-5.644c0-1.054-0.611-1.87-1.869-1.87c-1.088,0-1.684,0.68-1.87,0.936
			c-0.357,0.492-0.374,1.189-0.374,1.733v4.845h-1.615V322.35z"/>
		<path fill="#020202" d="M202.133,322.35l-0.033-1.139h1.614v1.24c0.816-1.343,1.972-1.461,2.703-1.461
			c1.887,0,2.481,0.969,2.787,1.598c0.289-0.477,0.986-1.598,2.873-1.598c1.224,0,3.128,0.51,3.128,3.025v5.729h-1.615v-5.474
			c0-0.748-0.136-1.071-0.289-1.292c-0.271-0.391-0.815-0.748-1.632-0.748c-1.037,0-1.598,0.595-1.818,0.901
			c-0.374,0.526-0.374,1.462-0.374,1.836v4.776h-1.615v-5.644c0-1.054-0.611-1.87-1.869-1.87c-1.088,0-1.684,0.68-1.87,0.936
			c-0.357,0.492-0.374,1.189-0.374,1.733v4.845h-1.615V322.35z"/>
		<path fill="#020202" d="M221.903,320.991c3.417,0,4.182,2.686,4.182,4.47c0,2.499-1.41,4.573-4.317,4.573
			c-2.821,0-4.198-1.955-4.198-4.454C217.569,323.472,218.555,320.991,221.903,320.991z M221.802,328.843
			c1.207,0,2.584-0.866,2.584-3.434c0-2.125-0.986-3.246-2.482-3.246c-1.02,0-2.668,0.646-2.668,3.314
			C219.235,327.229,219.982,328.843,221.802,328.843z"/>
		<path fill="#020202" d="M228.619,317.489h1.598v12.256h-1.598V317.489z"/>
		<path fill="#020202" d="M235.639,317.625h1.105l-3.961,12.392h-1.122L235.639,317.625z"/>
		<path fill="#020202" d="M238.122,317.471h1.683v10.761h5.711v1.513h-7.394V317.471z"/>
		<path fill="#020202" d="M248.389,316.961c0.918,2.261,2.023,5.065,2.023,7.548c0,1.343-0.307,2.668-0.697,3.96
			c-0.476,1.53-0.918,2.635-1.207,3.366h-1.122c0.272-0.851,0.646-2.006,1.003-3.621c0.357-1.547,0.477-2.617,0.477-3.672
			c0-2.396-0.596-4.352-1.581-7.581H248.389z"/>
	</g>
</g>
</svg>
