<?xml version="1.0" encoding="utf-8"?>
<!-- Generator: Adobe Illustrator 17.0.0, SVG Export Plug-In . SVG Version: 6.00 Build 0)  -->
<!DOCTYPE svg PUBLIC "-//W3C//DTD SVG 1.1//EN" "http://www.w3.org/Graphics/SVG/1.1/DTD/svg11.dtd">
<svg version="1.1" id="Layer_1" xmlns="http://www.w3.org/2000/svg" xmlns:xlink="http://www.w3.org/1999/xlink" x="0px" y="0px"
	 width="599.713px" height="52.688px" viewBox="0 0 599.713 52.688" enable-background="new 0 0 599.713 52.688"
	 xml:space="preserve">
<g>
	<g>
		<path fill="#00435B" d="M4.806,0.3h1.691l4.615,11.414H9.39L8.156,8.742H2.861l-1.233,2.972H0L4.806,0.3z M3.367,7.461h4.315
			L5.58,1.865L3.367,7.461z"/>
		<path fill="#00435B" d="M13.795,8.378c0.031,0.791,0.126,2.261,2.751,2.261c2.371,0,2.671-1.47,2.671-2.04
			c0-1.28-1.027-1.533-2.624-1.929c-1.738-0.427-2.514-0.616-3.099-1.012c-0.933-0.632-1.186-1.486-1.186-2.245
			c0-2.324,2.197-3.335,4.348-3.335c0.759,0,2.292,0.126,3.209,1.123c0.632,0.695,0.664,1.47,0.695,1.944h-1.644
			c-0.079-1.423-1.28-1.739-2.403-1.739c-1.581,0-2.529,0.711-2.529,1.85c0,1.012,0.664,1.36,2.056,1.691
			c2.719,0.696,3.019,0.759,3.683,1.202c1.06,0.696,1.139,1.802,1.139,2.276c0,2.023-1.581,3.557-4.506,3.557
			c-0.869,0-2.64-0.142-3.541-1.296c-0.647-0.838-0.663-1.755-0.663-2.308H13.795z"/>
		<path fill="#00435B" d="M30.073,3.383c-0.063-0.395-0.269-1.976-2.466-1.976c-2.751,0-3.241,2.814-3.241,4.711
			c0,2.15,0.617,4.474,3.226,4.474c0.695,0,1.359-0.174,1.85-0.68c0.41-0.442,0.506-0.933,0.553-1.201h1.739
			c-0.237,2.245-2.309,3.177-4.269,3.177c-4.015,0-4.79-3.541-4.79-5.754c0-2.403,0.933-5.992,4.996-5.992
			c1.612,0,3.889,0.648,4.094,3.241H30.073z"/>
		<path fill="#00435B" d="M34.749,1.534C35.935,0.253,37.499,0,38.559,0c3.161,0,5.153,2.023,5.153,5.896
			c0,3.035-1.218,6.086-5.28,6.086c-3.889,0-5.153-2.766-5.153-5.896C33.278,4.79,33.5,2.877,34.749,1.534z M35.95,9.596
			c0.647,0.806,1.628,1.043,2.529,1.043c0.933,0,1.865-0.253,2.529-1.043c0.933-1.138,1.027-2.94,1.027-3.715
			c0-2.593-0.854-4.553-3.462-4.553c-2.893,0-3.636,2.324-3.636,4.663C34.938,7.24,35.159,8.616,35.95,9.596z"/>
		<path fill="#00435B" d="M48.796,11.714V1.644h-3.825V0.3h9.216v1.344h-3.825v10.07H48.796z"/>
		<path fill="#00435B" d="M54.958,6.956h3.968v1.202h-3.968V6.956z"/>
		<path fill="#00435B" d="M61.025,0.3h1.565v10.007h5.312v1.407h-6.877V0.3z"/>
		<path fill="#00435B" d="M69.812,0.3h1.565v10.007h5.312v1.407h-6.877V0.3z"/>
		<path fill="#00435B" d="M82.075,0.3h1.691l4.615,11.414h-1.723l-1.233-2.972h-5.295l-1.233,2.972H77.27L82.075,0.3z M80.637,7.461
			h4.315L82.85,1.865L80.637,7.461z"/>
		<path fill="#00435B" d="M93.103,3.747h1.407v-1.66l1.47-0.475v2.134h1.771v1.091h-1.771v4.758c0,0.395,0,1.059,1.06,1.059
			c0.3,0,0.585-0.047,0.711-0.079v1.154c-0.269,0.047-0.695,0.095-1.232,0.095c-1.36,0-2.008-0.396-2.008-1.691V4.837h-1.407V3.747z
			"/>
		<path fill="#00435B" d="M99.66,5.391c0-0.538-0.031-1.091-0.079-1.612h1.502l0.032,1.533c0.284-1.106,1.232-1.47,1.896-1.565
			c0.442-0.063,0.774-0.047,1.027-0.032v1.455c-0.079-0.032-0.174-0.047-0.284-0.063c-0.11-0.016-0.253-0.016-0.427-0.016
			c-1.755,0-2.166,1.043-2.166,2.403v4.221H99.66V5.391z"/>
		<path fill="#00435B" d="M105.586,0.332h1.786V1.96h-1.786V0.332z M105.744,3.778h1.485v7.936h-1.485V3.778z"/>
		<path fill="#00435B" d="M114.959,11.714c-0.11-0.395-0.143-0.774-0.143-1.186c-0.711,1.312-1.786,1.438-2.45,1.438
			c-1.817,0-2.798-1.027-2.798-2.339c0-0.633,0.222-1.645,1.391-2.324c0.854-0.474,2.119-0.521,2.751-0.521
			c0.38,0,0.616,0.016,1.075,0.047c0-0.98,0-1.407-0.285-1.754c-0.3-0.396-0.948-0.522-1.375-0.522
			c-1.502,0-1.581,1.028-1.597,1.344h-1.485c0.047-0.411,0.095-0.964,0.553-1.502c0.601-0.664,1.724-0.854,2.562-0.854
			c1.153,0,2.387,0.364,2.813,1.17c0.253,0.474,0.269,0.854,0.269,1.217l-0.063,3.794c0,0.126,0.017,1.186,0.127,1.992H114.959z
			 M113.932,7.809c-0.601,0-2.861,0-2.861,1.613c0,0.506,0.315,1.375,1.644,1.375c0.759,0,1.328-0.3,1.691-0.854
			c0.332-0.538,0.348-0.98,0.38-2.086C114.517,7.825,114.295,7.809,113.932,7.809z"/>
		<path fill="#00435B" d="M118.938,0.316h1.486v11.397h-1.486V0.316z"/>
		<path fill="#00435B" d="M123.222,3.699h1.754v1.865h-1.754V3.699z M123.222,9.849h1.754v1.865h-1.754V9.849z"/>
		<path fill="#00435B" d="M127.692,0.3h1.581v11.414h-1.581V0.3z"/>
		<path fill="#00435B" d="M132.133,4.695l-0.016-0.917h1.485l0.017,1.28c0.174-0.332,0.743-1.438,2.545-1.438
			c0.711,0,2.877,0.269,2.877,2.703v5.391h-1.518V6.671c0-0.521-0.063-0.996-0.427-1.359c-0.38-0.364-0.901-0.538-1.407-0.538
			c-1.075,0-2.07,0.775-2.07,2.372v4.568h-1.486V4.695z"/>
		<path fill="#00435B" d="M146.086,5.075c0-0.348-0.016-0.538-0.048-1.296h1.502l0.032,1.312c0.742-1.249,2.055-1.438,2.703-1.438
			c1.707,0,3.335,1.17,3.335,4.11c0,2.956-1.723,4.252-3.62,4.252c-1.153,0-2.008-0.49-2.435-1.186v3.936h-1.47V5.075z
			 M149.737,10.923c0.38,0,1.17-0.079,1.676-0.774c0.569-0.774,0.648-1.913,0.648-2.482c0-1.423-0.427-2.909-2.182-2.909
			c-2.371,0-2.371,2.514-2.371,3.225C147.509,8.947,147.651,10.923,149.737,10.923z"/>
		<path fill="#00435B" d="M160.626,11.714c-0.11-0.395-0.143-0.774-0.143-1.186c-0.711,1.312-1.786,1.438-2.45,1.438
			c-1.817,0-2.798-1.027-2.798-2.339c0-0.633,0.222-1.645,1.391-2.324c0.854-0.474,2.119-0.521,2.751-0.521
			c0.38,0,0.616,0.016,1.075,0.047c0-0.98,0-1.407-0.285-1.754c-0.3-0.396-0.948-0.522-1.375-0.522
			c-1.502,0-1.581,1.028-1.597,1.344h-1.485c0.047-0.411,0.095-0.964,0.553-1.502c0.601-0.664,1.724-0.854,2.561-0.854
			c1.154,0,2.388,0.364,2.814,1.17c0.253,0.474,0.269,0.854,0.269,1.217l-0.063,3.794c0,0.126,0.016,1.186,0.127,1.992H160.626z
			 M159.599,7.809c-0.601,0-2.861,0-2.861,1.613c0,0.506,0.316,1.375,1.644,1.375c0.759,0,1.328-0.3,1.691-0.854
			c0.332-0.538,0.348-0.98,0.38-2.086C160.184,7.825,159.962,7.809,159.599,7.809z"/>
		<path fill="#00435B" d="M163.356,3.747h1.407v-1.66l1.47-0.475v2.134h1.771v1.091h-1.771v4.758c0,0.395,0,1.059,1.06,1.059
			c0.3,0,0.585-0.047,0.711-0.079v1.154c-0.269,0.047-0.695,0.095-1.232,0.095c-1.36,0-2.008-0.396-2.008-1.691V4.837h-1.407V3.747z
			"/>
		<path fill="#00435B" d="M169.693,0.332h1.786V1.96h-1.786V0.332z M169.852,3.778h1.485v7.936h-1.485V3.778z"/>
		<path fill="#00435B" d="M175.13,8.015c-0.031,1.644,0.648,2.861,2.276,2.861c0.965,0,1.739-0.506,1.865-1.644h1.486
			c-0.048,0.396-0.11,1.043-0.68,1.66c-0.348,0.395-1.139,1.059-2.735,1.059c-2.497,0-3.683-1.549-3.683-4.063
			c0-1.565,0.315-2.861,1.564-3.73c0.759-0.538,1.708-0.585,2.166-0.585c3.557,0,3.478,3.146,3.446,4.442H175.13z M179.319,6.971
			c0.016-0.759-0.127-2.339-1.96-2.339c-0.965,0-2.135,0.585-2.166,2.339H179.319z"/>
		<path fill="#00435B" d="M183.062,4.695l-0.016-0.917h1.486l0.016,1.28c0.174-0.332,0.742-1.438,2.545-1.438
			c0.711,0,2.877,0.269,2.877,2.703v5.391h-1.518V6.671c0-0.521-0.063-0.996-0.427-1.359c-0.38-0.364-0.901-0.538-1.407-0.538
			c-1.074,0-2.07,0.775-2.07,2.372v4.568h-1.486V4.695z"/>
		<path fill="#00435B" d="M191.452,3.747h1.407v-1.66l1.47-0.475v2.134h1.771v1.091h-1.771v4.758c0,0.395,0,1.059,1.06,1.059
			c0.3,0,0.585-0.047,0.711-0.079v1.154c-0.269,0.047-0.695,0.095-1.232,0.095c-1.36,0-2.008-0.396-2.008-1.691V4.837h-1.407V3.747z
			"/>
		<path fill="#00435B" d="M198.785,9.358c-0.017,0.601,0.3,1.438,1.738,1.438c0.617,0,1.075-0.11,1.392-0.506
			c0.158-0.206,0.253-0.474,0.253-0.743c0-0.775-0.554-0.917-1.739-1.186c-1.66-0.38-3.051-0.711-3.051-2.372
			c0-1.454,1.265-2.403,3.099-2.403c0.995,0,2.387,0.285,2.861,1.233c0.205,0.442,0.205,0.822,0.205,1.154h-1.518
			c0.048-1.202-0.996-1.296-1.533-1.296c-0.222,0-1.612,0-1.612,1.138c0,0.727,0.711,0.901,1.122,1.012
			c2.197,0.522,2.672,0.648,3.146,1.091c0.443,0.411,0.602,0.964,0.602,1.47c0,0.885-0.49,1.644-1.075,2.008
			c-0.696,0.427-1.533,0.537-2.355,0.537c-1.612,0-3.114-0.664-3.099-2.577H198.785z"/>
		<path fill="#00435B" d="M210.652,3.778l1.912,6.323l2.008-6.323h1.944l1.803,6.26l1.991-6.26h1.533l-2.798,7.936h-1.707
			l-1.865-6.529l-2.071,6.529h-1.755l-2.624-7.936H210.652z"/>
		<path fill="#00435B" d="M223.245,0.332h1.786V1.96h-1.786V0.332z M223.403,3.778h1.485v7.936h-1.485V3.778z"/>
		<path fill="#00435B" d="M226.563,3.747h1.407v-1.66l1.47-0.475v2.134h1.771v1.091h-1.771v4.758c0,0.395,0,1.059,1.06,1.059
			c0.3,0,0.585-0.047,0.711-0.079v1.154c-0.269,0.047-0.695,0.095-1.232,0.095c-1.36,0-2.008-0.396-2.008-1.691V4.837h-1.407V3.747z
			"/>
		<path fill="#00435B" d="M233.042,0.316h1.502v4.631c0.49-0.837,1.471-1.312,2.577-1.312c0.838,0,2.039,0.3,2.497,1.265
			c0.158,0.316,0.27,0.696,0.27,1.85v4.964h-1.518V7.019c0-0.711,0-2.245-1.708-2.245c-1.106,0-1.659,0.68-1.865,1.06
			c-0.253,0.442-0.253,1.186-0.253,1.675v4.205h-1.502V0.316z"/>
		<path fill="#00435B" d="M247.091,0.316h1.501v4.631c0.49-0.837,1.471-1.312,2.577-1.312c0.838,0,2.039,0.3,2.498,1.265
			c0.157,0.316,0.269,0.696,0.269,1.85v4.964h-1.518V7.019c0-0.711,0-2.245-1.708-2.245c-1.106,0-1.659,0.68-1.865,1.06
			c-0.253,0.442-0.253,1.186-0.253,1.675v4.205h-1.501V0.316z"/>
		<path fill="#00435B" d="M260.317,11.761l-1.139,2.956h-1.533l1.201-3.035l-3.304-7.904h1.676l2.482,6.26l2.529-6.26h1.612
			L260.317,11.761z"/>
		<path fill="#00435B" d="M265.483,5.075c0-0.348-0.016-0.538-0.048-1.296h1.502l0.032,1.312c0.742-1.249,2.055-1.438,2.703-1.438
			c1.707,0,3.335,1.17,3.335,4.11c0,2.956-1.723,4.252-3.62,4.252c-1.153,0-2.008-0.49-2.435-1.186v3.936h-1.47V5.075z
			 M269.135,10.923c0.38,0,1.17-0.079,1.676-0.774c0.569-0.774,0.648-1.913,0.648-2.482c0-1.423-0.427-2.909-2.182-2.909
			c-2.371,0-2.371,2.514-2.371,3.225C266.906,8.947,267.048,10.923,269.135,10.923z"/>
		<path fill="#00435B" d="M276.086,8.015c-0.031,1.644,0.648,2.861,2.276,2.861c0.965,0,1.739-0.506,1.865-1.644h1.486
			c-0.048,0.396-0.11,1.043-0.68,1.66c-0.348,0.395-1.139,1.059-2.735,1.059c-2.497,0-3.683-1.549-3.683-4.063
			c0-1.565,0.316-2.861,1.564-3.73c0.759-0.538,1.708-0.585,2.166-0.585c3.557,0,3.478,3.146,3.446,4.442H276.086z M280.275,6.971
			c0.016-0.759-0.127-2.339-1.96-2.339c-0.965,0-2.135,0.585-2.166,2.339H280.275z"/>
		<path fill="#00435B" d="M284.05,5.391c0-0.538-0.031-1.091-0.078-1.612h1.501l0.032,1.533c0.284-1.106,1.232-1.47,1.896-1.565
			c0.442-0.063,0.774-0.047,1.027-0.032v1.455c-0.079-0.032-0.174-0.047-0.284-0.063c-0.11-0.016-0.253-0.016-0.427-0.016
			c-1.755,0-2.166,1.043-2.166,2.403v4.221h-1.502V5.391z"/>
		<path fill="#00435B" d="M288.9,3.747h1.407v-1.66l1.47-0.475v2.134h1.771v1.091h-1.771v4.758c0,0.395,0,1.059,1.06,1.059
			c0.3,0,0.585-0.047,0.711-0.079v1.154c-0.269,0.047-0.695,0.095-1.232,0.095c-1.36,0-2.008-0.396-2.008-1.691V4.837H288.9V3.747z"
			/>
		<path fill="#00435B" d="M296.28,8.015c-0.031,1.644,0.648,2.861,2.276,2.861c0.965,0,1.739-0.506,1.865-1.644h1.486
			c-0.048,0.396-0.11,1.043-0.68,1.66c-0.348,0.395-1.139,1.059-2.735,1.059c-2.497,0-3.683-1.549-3.683-4.063
			c0-1.565,0.315-2.861,1.564-3.73c0.759-0.538,1.708-0.585,2.166-0.585c3.557,0,3.478,3.146,3.446,4.442H296.28z M300.47,6.971
			c0.016-0.759-0.127-2.339-1.96-2.339c-0.965,0-2.135,0.585-2.166,2.339H300.47z"/>
		<path fill="#00435B" d="M304.213,4.695l-0.016-0.917h1.485l0.017,1.28c0.174-0.332,0.743-1.438,2.545-1.438
			c0.711,0,2.877,0.269,2.877,2.703v5.391h-1.518V6.671c0-0.521-0.063-0.996-0.427-1.359c-0.38-0.364-0.901-0.538-1.407-0.538
			c-1.075,0-2.07,0.775-2.07,2.372v4.568h-1.486V4.695z"/>
		<path fill="#00435B" d="M314.674,9.358c-0.017,0.601,0.3,1.438,1.738,1.438c0.617,0,1.075-0.11,1.392-0.506
			c0.158-0.206,0.253-0.474,0.253-0.743c0-0.775-0.554-0.917-1.739-1.186c-1.66-0.38-3.051-0.711-3.051-2.372
			c0-1.454,1.265-2.403,3.099-2.403c0.995,0,2.387,0.285,2.861,1.233c0.205,0.442,0.205,0.822,0.205,1.154h-1.518
			c0.048-1.202-0.996-1.296-1.533-1.296c-0.222,0-1.612,0-1.612,1.138c0,0.727,0.711,0.901,1.122,1.012
			c2.197,0.522,2.672,0.648,3.146,1.091c0.443,0.411,0.602,0.964,0.602,1.47c0,0.885-0.49,1.644-1.075,2.008
			c-0.696,0.427-1.533,0.537-2.355,0.537c-1.612,0-3.114-0.664-3.099-2.577H314.674z"/>
		<path fill="#00435B" d="M321.579,0.332h1.786V1.96h-1.786V0.332z M321.737,3.778h1.485v7.936h-1.485V3.778z"/>
		<path fill="#00435B" d="M329.56,3.573c3.178,0,3.889,2.498,3.889,4.157c0,2.324-1.312,4.252-4.015,4.252
			c-2.624,0-3.904-1.818-3.904-4.142C325.529,5.881,326.445,3.573,329.56,3.573z M329.465,10.876c1.123,0,2.403-0.806,2.403-3.193
			c0-1.976-0.917-3.019-2.309-3.019c-0.948,0-2.481,0.601-2.481,3.083C327.078,9.375,327.773,10.876,329.465,10.876z"/>
		<path fill="#00435B" d="M335.816,4.695l-0.016-0.917h1.485l0.017,1.28c0.174-0.332,0.743-1.438,2.545-1.438
			c0.711,0,2.877,0.269,2.877,2.703v5.391h-1.518V6.671c0-0.521-0.063-0.996-0.427-1.359c-0.38-0.364-0.901-0.538-1.407-0.538
			c-1.075,0-2.07,0.775-2.07,2.372v4.568h-1.486V4.695z"/>
		<path fill="#00435B" d="M354.653,11.714c-0.11-0.395-0.143-0.774-0.143-1.186c-0.711,1.312-1.786,1.438-2.45,1.438
			c-1.817,0-2.798-1.027-2.798-2.339c0-0.633,0.222-1.645,1.391-2.324c0.854-0.474,2.119-0.521,2.751-0.521
			c0.38,0,0.616,0.016,1.075,0.047c0-0.98,0-1.407-0.285-1.754c-0.3-0.396-0.948-0.522-1.375-0.522
			c-1.502,0-1.581,1.028-1.597,1.344h-1.485c0.047-0.411,0.095-0.964,0.553-1.502c0.601-0.664,1.724-0.854,2.561-0.854
			c1.154,0,2.388,0.364,2.814,1.17c0.253,0.474,0.269,0.854,0.269,1.217l-0.063,3.794c0,0.126,0.016,1.186,0.127,1.992H354.653z
			 M353.626,7.809c-0.601,0-2.861,0-2.861,1.613c0,0.506,0.316,1.375,1.644,1.375c0.759,0,1.328-0.3,1.691-0.854
			c0.332-0.538,0.348-0.98,0.38-2.086C354.211,7.825,353.989,7.809,353.626,7.809z"/>
		<path fill="#00435B" d="M358.649,4.695l-0.016-0.917h1.486l0.016,1.28c0.174-0.332,0.742-1.438,2.545-1.438
			c0.711,0,2.877,0.269,2.877,2.703v5.391h-1.518V6.671c0-0.521-0.063-0.996-0.427-1.359c-0.38-0.364-0.901-0.538-1.407-0.538
			c-1.074,0-2.07,0.775-2.07,2.372v4.568h-1.486V4.695z"/>
		<path fill="#00435B" d="M373.759,0.316h1.485v10.133c0,0.174,0.032,0.854,0.063,1.265h-1.486l-0.031-1.265
			c-0.126,0.221-0.3,0.553-0.711,0.838c-0.648,0.442-1.423,0.585-1.961,0.585c-1.059,0-3.414-0.553-3.414-4.031
			c0-3.019,1.723-4.332,3.588-4.332c1.708,0,2.277,1.012,2.467,1.344V0.316z M373.205,5.422c-0.316-0.411-0.901-0.806-1.738-0.806
			c-2.182,0-2.182,2.64-2.182,3.177c0,1.407,0.363,3.035,2.182,3.035c2.339,0,2.339-2.577,2.339-3.193
			C373.806,6.481,373.537,5.849,373.205,5.422z"/>
		<path fill="#00435B" d="M381.72,11.698v-0.87h7.224v0.87H381.72z M388.928,5.754v0.901l-7.113,3.541V9.185l6.196-2.956V6.197
			l-6.196-2.972V2.213L388.928,5.754z"/>
		<path fill="#00435B" d="M392.022,8.9c-0.016,1.043,0.664,1.787,2.008,1.787c1.533,0,2.182-0.98,2.182-1.945
			c0-1.154-0.775-1.754-1.581-1.928c-0.569-0.111-0.964-0.095-1.518-0.079V5.454c1.091,0.095,2.925-0.126,2.925-1.896
			c0-1.233-0.838-1.723-1.929-1.723c-0.822,0-1.85,0.363-1.992,1.723h-1.597c0.095-2.719,2.656-2.988,3.541-2.988
			c2.387,0,3.573,1.438,3.573,2.956c0,0.901-0.49,2.197-2.182,2.577c2.339,0.332,2.339,2.435,2.339,2.656
			c0,1.533-1.248,3.225-3.794,3.225c-1.153,0-2.308-0.332-3.003-1.138c-0.617-0.695-0.633-1.486-0.648-1.944H392.022z"/>
		<path fill="#00435B" d="M409.153,11.714c-0.11-0.395-0.143-0.774-0.143-1.186c-0.711,1.312-1.786,1.438-2.45,1.438
			c-1.817,0-2.798-1.027-2.798-2.339c0-0.633,0.222-1.645,1.391-2.324c0.854-0.474,2.119-0.521,2.751-0.521
			c0.38,0,0.616,0.016,1.075,0.047c0-0.98,0-1.407-0.285-1.754c-0.3-0.396-0.948-0.522-1.375-0.522
			c-1.502,0-1.581,1.028-1.597,1.344h-1.485c0.047-0.411,0.095-0.964,0.553-1.502c0.601-0.664,1.724-0.854,2.561-0.854
			c1.154,0,2.388,0.364,2.814,1.17c0.253,0.474,0.269,0.854,0.269,1.217l-0.063,3.794c0,0.126,0.016,1.186,0.127,1.992H409.153z
			 M408.126,7.809c-0.601,0-2.861,0-2.861,1.613c0,0.506,0.316,1.375,1.644,1.375c0.759,0,1.328-0.3,1.691-0.854
			c0.332-0.538,0.348-0.98,0.38-2.086C408.711,7.825,408.489,7.809,408.126,7.809z"/>
		<path fill="#00435B" d="M418.604,0.316h1.485v10.133c0,0.174,0.032,0.854,0.063,1.265h-1.485l-0.032-1.265
			c-0.126,0.221-0.3,0.553-0.711,0.838c-0.648,0.442-1.423,0.585-1.961,0.585c-1.059,0-3.414-0.553-3.414-4.031
			c0-3.019,1.723-4.332,3.589-4.332c1.707,0,2.275,1.012,2.466,1.344V0.316z M418.05,5.422c-0.316-0.411-0.9-0.806-1.738-0.806
			c-2.182,0-2.182,2.64-2.182,3.177c0,1.407,0.363,3.035,2.182,3.035c2.339,0,2.339-2.577,2.339-3.193
			C418.65,6.481,418.382,5.849,418.05,5.422z"/>
		<path fill="#00435B" d="M428.258,0.316h1.485v10.133c0,0.174,0.032,0.854,0.063,1.265h-1.485l-0.032-1.265
			c-0.126,0.221-0.3,0.553-0.711,0.838c-0.648,0.442-1.423,0.585-1.961,0.585c-1.059,0-3.414-0.553-3.414-4.031
			c0-3.019,1.723-4.332,3.589-4.332c1.707,0,2.275,1.012,2.466,1.344V0.316z M427.704,5.422c-0.316-0.411-0.9-0.806-1.738-0.806
			c-2.182,0-2.182,2.64-2.182,3.177c0,1.407,0.363,3.035,2.182,3.035c2.339,0,2.339-2.577,2.339-3.193
			C428.305,6.481,428.036,5.849,427.704,5.422z"/>
		<path fill="#00435B" d="M432.27,0.332h1.786V1.96h-1.786V0.332z M432.428,3.778h1.485v7.936h-1.485V3.778z"/>
		<path fill="#00435B" d="M435.587,3.747h1.407v-1.66l1.47-0.475v2.134h1.771v1.091h-1.771v4.758c0,0.395,0,1.059,1.06,1.059
			c0.3,0,0.585-0.047,0.711-0.079v1.154c-0.269,0.047-0.695,0.095-1.232,0.095c-1.36,0-2.008-0.396-2.008-1.691V4.837h-1.407V3.747z
			"/>
		<path fill="#00435B" d="M441.924,0.332h1.786V1.96h-1.786V0.332z M442.082,3.778h1.485v7.936h-1.485V3.778z"/>
		<path fill="#00435B" d="M449.905,3.573c3.178,0,3.889,2.498,3.889,4.157c0,2.324-1.312,4.252-4.015,4.252
			c-2.624,0-3.904-1.818-3.904-4.142C445.875,5.881,446.791,3.573,449.905,3.573z M449.811,10.876c1.123,0,2.403-0.806,2.403-3.193
			c0-1.976-0.917-3.019-2.309-3.019c-0.948,0-2.481,0.601-2.481,3.083C447.424,9.375,448.119,10.876,449.811,10.876z"/>
		<path fill="#00435B" d="M456.161,4.695l-0.016-0.917h1.486l0.016,1.28c0.174-0.332,0.742-1.438,2.545-1.438
			c0.711,0,2.877,0.269,2.877,2.703v5.391h-1.518V6.671c0-0.521-0.063-0.996-0.427-1.359c-0.38-0.364-0.901-0.538-1.407-0.538
			c-1.074,0-2.07,0.775-2.07,2.372v4.568h-1.486V4.695z"/>
		<path fill="#00435B" d="M470.606,11.714c-0.11-0.395-0.143-0.774-0.143-1.186c-0.711,1.312-1.786,1.438-2.45,1.438
			c-1.817,0-2.798-1.027-2.798-2.339c0-0.633,0.222-1.645,1.391-2.324c0.854-0.474,2.119-0.521,2.751-0.521
			c0.38,0,0.616,0.016,1.075,0.047c0-0.98,0-1.407-0.285-1.754c-0.3-0.396-0.948-0.522-1.375-0.522
			c-1.502,0-1.581,1.028-1.597,1.344h-1.485c0.047-0.411,0.095-0.964,0.553-1.502c0.601-0.664,1.724-0.854,2.561-0.854
			c1.154,0,2.388,0.364,2.814,1.17c0.253,0.474,0.269,0.854,0.269,1.217l-0.063,3.794c0,0.126,0.016,1.186,0.127,1.992H470.606z
			 M469.579,7.809c-0.601,0-2.861,0-2.861,1.613c0,0.506,0.316,1.375,1.644,1.375c0.759,0,1.328-0.3,1.691-0.854
			c0.332-0.538,0.348-0.98,0.38-2.086C470.164,7.825,469.942,7.809,469.579,7.809z"/>
		<path fill="#00435B" d="M474.586,0.316h1.485v11.397h-1.485V0.316z"/>
		<path fill="#00435B" d="M483.419,5.391c0-0.538-0.031-1.091-0.078-1.612h1.501l0.032,1.533c0.284-1.106,1.232-1.47,1.896-1.565
			c0.442-0.063,0.774-0.047,1.027-0.032v1.455c-0.079-0.032-0.174-0.047-0.284-0.063c-0.11-0.016-0.253-0.016-0.427-0.016
			c-1.755,0-2.166,1.043-2.166,2.403v4.221h-1.502V5.391z"/>
		<path fill="#00435B" d="M489.345,0.332h1.786V1.96h-1.786V0.332z M489.503,3.778h1.485v7.936h-1.485V3.778z"/>
		<path fill="#00435B" d="M494.733,9.358c-0.017,0.601,0.3,1.438,1.738,1.438c0.617,0,1.075-0.11,1.392-0.506
			c0.158-0.206,0.253-0.474,0.253-0.743c0-0.775-0.554-0.917-1.739-1.186c-1.66-0.38-3.051-0.711-3.051-2.372
			c0-1.454,1.265-2.403,3.099-2.403c0.996,0,2.387,0.285,2.861,1.233c0.205,0.442,0.205,0.822,0.205,1.154h-1.518
			c0.048-1.202-0.996-1.296-1.533-1.296c-0.222,0-1.612,0-1.612,1.138c0,0.727,0.711,0.901,1.122,1.012
			c2.197,0.522,2.672,0.648,3.146,1.091c0.443,0.411,0.601,0.964,0.601,1.47c0,0.885-0.489,1.644-1.074,2.008
			c-0.695,0.427-1.533,0.537-2.355,0.537c-1.612,0-3.114-0.664-3.099-2.577H494.733z"/>
		<path fill="#00435B" d="M501.67,0.221h1.471v6.798l2.972-3.241h1.944l-3.352,3.367l3.557,4.568h-1.944l-3.177-4.284v4.284h-1.471
			V0.221z"/>
		<path fill="#00435B" d="M518.043,1.407c-0.253-0.016-0.569-0.031-0.87-0.031c-1.201,0-1.201,0.601-1.201,1.154v1.249h1.85v1.075
			h-1.85v6.861h-1.47V4.853h-1.565V3.778h1.565V2.877c0-1.09,0.063-1.486,0.331-1.897c0.332-0.506,0.965-0.869,1.992-0.869
			c0.427,0,0.901,0.063,1.218,0.11V1.407z"/>
		<path fill="#00435B" d="M524.174,11.714c-0.11-0.395-0.143-0.774-0.143-1.186c-0.711,1.312-1.786,1.438-2.45,1.438
			c-1.817,0-2.798-1.027-2.798-2.339c0-0.633,0.222-1.645,1.391-2.324c0.854-0.474,2.119-0.521,2.751-0.521
			c0.38,0,0.616,0.016,1.075,0.047c0-0.98,0-1.407-0.285-1.754c-0.3-0.396-0.948-0.522-1.375-0.522
			c-1.502,0-1.581,1.028-1.597,1.344h-1.485c0.047-0.411,0.095-0.964,0.553-1.502c0.601-0.664,1.724-0.854,2.562-0.854
			c1.153,0,2.387,0.364,2.813,1.17c0.253,0.474,0.269,0.854,0.269,1.217l-0.063,3.794c0,0.126,0.017,1.186,0.127,1.992H524.174z
			 M523.146,7.809c-0.601,0-2.861,0-2.861,1.613c0,0.506,0.315,1.375,1.644,1.375c0.759,0,1.328-0.3,1.691-0.854
			c0.332-0.538,0.348-0.98,0.38-2.086C523.731,7.825,523.51,7.809,523.146,7.809z"/>
		<path fill="#00435B" d="M532.644,6.323c-0.031-0.364-0.143-1.66-1.581-1.66c-2.055,0-2.055,2.387-2.055,2.988
			c0,1.628,0.396,3.146,1.976,3.146c1.265,0,1.691-0.948,1.724-1.723h1.502c-0.095,1.549-1.249,2.846-3.209,2.846
			c-0.538,0-1.771-0.111-2.608-1.027c-0.475-0.554-0.949-1.392-0.949-3.035c0-3.304,2.023-4.284,3.604-4.284
			c0.521,0,1.707,0.11,2.435,0.98c0.585,0.68,0.633,1.328,0.664,1.771H532.644z"/>
		<path fill="#00435B" d="M534.806,3.747h1.407v-1.66l1.47-0.475v2.134h1.771v1.091h-1.771v4.758c0,0.395,0,1.059,1.06,1.059
			c0.3,0,0.585-0.047,0.711-0.079v1.154c-0.269,0.047-0.695,0.095-1.232,0.095c-1.36,0-2.008-0.396-2.008-1.691V4.837h-1.407V3.747z
			"/>
		<path fill="#00435B" d="M544.73,3.573c3.178,0,3.89,2.498,3.89,4.157c0,2.324-1.313,4.252-4.016,4.252
			c-2.624,0-3.904-1.818-3.904-4.142C540.7,5.881,541.616,3.573,544.73,3.573z M544.636,10.876c1.123,0,2.403-0.806,2.403-3.193
			c0-1.976-0.917-3.019-2.309-3.019c-0.948,0-2.481,0.601-2.481,3.083C542.249,9.375,542.944,10.876,544.636,10.876z"/>
		<path fill="#00435B" d="M551.019,5.391c0-0.538-0.031-1.091-0.078-1.612h1.501l0.032,1.533c0.284-1.106,1.232-1.47,1.896-1.565
			c0.442-0.063,0.774-0.047,1.027-0.032v1.455c-0.079-0.032-0.174-0.047-0.284-0.063c-0.11-0.016-0.253-0.016-0.427-0.016
			c-1.755,0-2.166,1.043-2.166,2.403v4.221h-1.502V5.391z"/>
		<path fill="#00435B" d="M558.256,9.358c-0.017,0.601,0.3,1.438,1.738,1.438c0.617,0,1.075-0.11,1.392-0.506
			c0.158-0.206,0.253-0.474,0.253-0.743c0-0.775-0.554-0.917-1.739-1.186c-1.66-0.38-3.051-0.711-3.051-2.372
			c0-1.454,1.265-2.403,3.099-2.403c0.995,0,2.387,0.285,2.861,1.233c0.205,0.442,0.205,0.822,0.205,1.154h-1.518
			c0.048-1.202-0.996-1.296-1.533-1.296c-0.222,0-1.612,0-1.612,1.138c0,0.727,0.711,0.901,1.122,1.012
			c2.197,0.522,2.672,0.648,3.146,1.091c0.443,0.411,0.602,0.964,0.602,1.47c0,0.885-0.49,1.644-1.075,2.008
			c-0.696,0.427-1.533,0.537-2.355,0.537c-1.612,0-3.114-0.664-3.099-2.577H558.256z"/>
	</g>
	<g>
		<path fill="#00435B" d="M0.948,19.262h2.498v9.469h4.9v1.944H0.948V19.262z"/>
		<path fill="#00435B" d="M9.592,19.215h2.45v11.461h-2.45V19.215z"/>
		<path fill="#00435B" d="M14.063,19.278h3.525c1.645,0,3.02,0.11,3.968,1.249c0.601,0.728,0.695,1.549,0.695,2.134
			c0,1.328-0.553,2.45-1.454,3.035c-0.838,0.538-1.992,0.538-2.593,0.538h-1.659v4.442h-2.482V19.278z M16.482,24.416h0.979
			c0.791,0,2.261,0,2.261-1.739c0-1.549-1.312-1.549-2.007-1.549h-1.233V24.416z"/>
		<path fill="#00435B" d="M23.639,19.215h2.45v11.461h-2.45V19.215z"/>
		<path fill="#00435B" d="M30.704,21.144h-3.398v-1.897h9.264v1.897H33.17v9.532h-2.466V21.144z"/>
		<path fill="#00435B" d="M42.256,19.009c1.217,0,2.893,0.285,4.016,1.549c1.217,1.391,1.454,3.177,1.454,4.3
			c0,1.66-0.506,3.43-1.438,4.474c-1.265,1.423-3.114,1.628-4.063,1.628c-1.502,0-3.004-0.475-4.047-1.565
			c-1.249-1.328-1.407-3.225-1.407-4.269C36.771,22.092,38.146,19.009,42.256,19.009z M40.185,28.241
			c0.348,0.474,0.933,0.917,2.071,0.917c0.996,0,1.676-0.348,2.134-1.059c0.38-0.569,0.774-1.455,0.774-3.272
			c0-0.553-0.047-1.344-0.284-2.039c-0.475-1.407-1.438-2.023-2.608-2.023c-0.917,0-1.644,0.379-2.103,0.964
			c-0.648,0.791-0.838,2.023-0.838,3.32C39.331,26.139,39.505,27.356,40.185,28.241z"/>
		<path fill="#00435B" d="M49.349,19.247h4.379c1.265-0.016,2.545-0.016,3.462,0.774c0.712,0.617,0.996,1.455,0.996,2.197
			c0,2.134-1.834,2.64-2.387,2.798c1.723,0.158,1.85,1.138,2.055,2.624c0.174,1.344,0.269,1.897,0.348,2.213
			c0.127,0.506,0.222,0.632,0.348,0.822h-2.703c-0.11-0.632-0.458-3.525-0.616-3.968c-0.222-0.648-0.822-0.648-1.233-0.648h-2.149
			v4.616h-2.498V19.247z M51.768,24.242h1.976c0.285,0,0.854,0,1.249-0.316c0.174-0.126,0.633-0.522,0.633-1.328
			c0-0.774-0.38-1.138-0.601-1.28c-0.38-0.269-0.838-0.269-1.613-0.269h-1.644V24.242z"/>
	</g>
	<g>
		<path fill="#00435B" d="M66.11,22.095c0,1.917-1.566,3.484-3.483,3.484c-1.898,0-3.483-1.548-3.483-3.484
			c0-1.972,1.622-3.484,3.483-3.484C64.507,18.611,66.11,20.123,66.11,22.095z M59.705,22.086c0,1.622,1.309,2.931,2.913,2.931
			c1.622,0,2.931-1.336,2.931-2.931c0-1.622-1.327-2.912-2.931-2.912C61.032,19.174,59.705,20.445,59.705,22.086z M61.318,20.141
			h1.346c0.461,0,1.364,0,1.364,1.032c0,0.719-0.461,0.867-0.738,0.959c0.535,0.037,0.572,0.387,0.646,0.885
			c0.037,0.313,0.093,0.848,0.203,1.032h-0.83c-0.019-0.185-0.147-1.18-0.147-1.235c-0.055-0.221-0.129-0.332-0.405-0.332h-0.682
			v1.567h-0.756V20.141z M62.056,21.855h0.608c0.497,0,0.59-0.35,0.59-0.553c0-0.535-0.369-0.535-0.571-0.535h-0.627V21.855z"/>
	</g>
	<g>
		<path fill="#00435B" d="M72.204,21.302c1.027-0.443,2.008-0.996,2.924-1.66h2.04v11.034H74.78v-8.584
			c-0.458,0.348-1.375,0.917-2.576,1.407V21.302z"/>
		<path fill="#00435B" d="M82.982,19.484c1.549,0,2.466,0.837,2.877,1.454c0.569,0.838,0.996,1.913,0.996,3.983
			c0,2.561-0.585,5.928-3.905,5.928c-2.829,0-3.81-2.719-3.81-5.659C79.141,23.72,79.441,19.484,82.982,19.484z M84.199,22.598
			c-0.063-0.3-0.332-1.28-1.201-1.28c-0.68,0-0.98,0.617-1.091,0.949c-0.363,1.122-0.363,2.813-0.363,3.083
			c0,1.881,0.284,3.636,1.47,3.636c1.265,0,1.47-2.15,1.47-3.667C84.483,24.621,84.405,23.325,84.199,22.598z"/>
		<path fill="#00435B" d="M92.794,24.194c0-0.506-0.032-0.996-0.079-1.501h2.261l0.079,1.027c0.253-0.348,0.869-1.201,2.466-1.201
			c1.834,0,2.355,1.122,2.514,1.501c0.664-1.28,1.738-1.486,2.561-1.486c1.612,0,2.261,0.964,2.435,1.28
			c0.427,0.696,0.396,1.66,0.396,2.355v4.505h-2.355v-4.695c0-0.854-0.127-1.802-1.344-1.802c-1.407,0-1.438,1.312-1.438,2.498v4
			h-2.355v-4.743c0-0.616-0.017-1.754-1.313-1.754c-1.47,0-1.47,1.265-1.47,1.802v4.695h-2.355V24.194z"/>
		<path fill="#00435B" d="M115.235,22.724c-0.063,0.632-0.11,1.17-0.11,1.976v5.896c0,2.94-2.45,3.225-3.984,3.225
			c-1.138,0-3.366-0.143-3.509-2.561h2.244c0.032,0.237,0.143,1.106,1.392,1.106c0.695,0,1.296-0.332,1.454-1.043
			c0.095-0.395,0.095-0.68,0.111-1.897c-0.743,0.98-1.581,1.091-2.15,1.091c-2.292,0-3.367-1.992-3.367-3.92
			c0-2.023,1.122-3.952,3.415-3.952c1.454,0,1.991,0.791,2.229,1.139l0.079-1.06H115.235z M111.22,28.921
			c1.645,0,1.645-1.928,1.645-2.276c0-0.901-0.174-2.434-1.597-2.434c-0.886,0-1.612,0.68-1.612,2.387
			C109.655,26.993,109.655,28.921,111.22,28.921z"/>
		<path fill="#00435B" d="M121.71,24.653c0-0.379-0.063-1.533-0.11-1.992h2.197l0.048,1.533c0.3-0.68,0.821-1.644,2.719-1.549v2.103
			c-2.371-0.221-2.514,0.996-2.514,1.992v3.936h-2.34V24.653z"/>
		<path fill="#00435B" d="M129.28,27.277c0,0.522,0,2.134,1.628,2.134c0.585,0,1.17-0.221,1.391-1.106h2.135
			c-0.032,0.379-0.111,1.059-0.759,1.739c-0.585,0.617-1.629,0.933-2.799,0.933c-0.68,0-1.976-0.126-2.813-0.996
			c-0.728-0.759-1.027-1.833-1.027-3.114c0-1.296,0.316-2.846,1.66-3.778c0.616-0.411,1.375-0.664,2.244-0.664
			c1.139,0,2.498,0.443,3.225,1.929c0.538,1.091,0.506,2.261,0.475,2.924H129.28z M132.252,25.807c0-0.364-0.032-1.787-1.392-1.787
			c-1.027,0-1.454,0.854-1.502,1.787H132.252z"/>
		<path fill="#00435B" d="M141.465,19.262h2.355v10.117c0,0.475,0.031,0.996,0.063,1.296h-2.372l-0.063-1.154
			c-0.158,0.284-0.316,0.585-0.807,0.901c-0.585,0.379-1.201,0.411-1.549,0.411c-2.135,0-3.399-1.47-3.399-3.968
			c0-2.64,1.438-4.284,3.525-4.284c1.438,0,2.039,0.806,2.245,1.091V19.262z M139.679,29.316c0.68,0,1.232-0.411,1.485-0.901
			c0.348-0.664,0.38-1.486,0.38-1.881c0-1.565-0.68-2.419-1.739-2.419c-1.564,0-1.739,1.881-1.739,2.688
			C138.065,28.131,138.509,29.316,139.679,29.316z"/>
		<path fill="#00435B" d="M148.132,22.693v4.758c0,0.696,0,1.755,1.249,1.755c1.502,0,1.502-1.122,1.502-2.482v-4.031h2.403v5.264
			c0.031,1.723,0.047,1.929,0.047,2.134c0.016,0.221,0.031,0.364,0.063,0.585h-2.276l-0.079-1.059
			c-0.237,0.348-0.838,1.265-2.355,1.265c-1.075,0-1.96-0.49-2.403-1.075c-0.521-0.648-0.521-1.754-0.521-2.15v-4.963H148.132z"/>
		<path fill="#00435B" d="M159.715,25.522c-0.031-0.285-0.126-1.47-1.027-1.47c-1.106,0-1.233,1.676-1.233,2.545
			c0,0.443,0.048,1.865,0.585,2.45c0.222,0.237,0.459,0.269,0.633,0.269c0.253,0,0.979-0.111,1.075-1.534h2.308
			c-0.031,0.617-0.11,1.581-1.027,2.355c-0.569,0.49-1.28,0.743-2.276,0.743c-1.06,0-1.992-0.237-2.719-1.059
			c-0.696-0.806-1.012-1.866-1.012-3.146c0-3.636,2.671-4.142,3.73-4.142c1.485,0,3.24,0.822,3.256,2.988H159.715z"/>
		<path fill="#00435B" d="M165.276,27.277c0,0.522,0,2.134,1.629,2.134c0.585,0,1.17-0.221,1.391-1.106h2.135
			c-0.032,0.379-0.111,1.059-0.759,1.739c-0.585,0.617-1.629,0.933-2.799,0.933c-0.68,0-1.976-0.126-2.813-0.996
			c-0.728-0.759-1.027-1.833-1.027-3.114c0-1.296,0.316-2.846,1.66-3.778c0.616-0.411,1.375-0.664,2.244-0.664
			c1.139,0,2.498,0.443,3.225,1.929c0.538,1.091,0.506,2.261,0.475,2.924H165.276z M168.249,25.807c0-0.364-0.032-1.787-1.392-1.787
			c-1.027,0-1.454,0.854-1.502,1.787H168.249z"/>
		<path fill="#00435B" d="M177.461,19.262h2.355v10.117c0,0.475,0.031,0.996,0.063,1.296h-2.372l-0.063-1.154
			c-0.158,0.284-0.316,0.585-0.807,0.901c-0.585,0.379-1.201,0.411-1.549,0.411c-2.135,0-3.399-1.47-3.399-3.968
			c0-2.64,1.438-4.284,3.525-4.284c1.438,0,2.039,0.806,2.245,1.091V19.262z M175.675,29.316c0.68,0,1.232-0.411,1.485-0.901
			c0.348-0.664,0.38-1.486,0.38-1.881c0-1.565-0.68-2.419-1.739-2.419c-1.564,0-1.739,1.881-1.739,2.688
			C174.062,28.131,174.505,29.316,175.675,29.316z"/>
		<path fill="#00435B" d="M190.924,30.565c-0.759,0.206-1.438,0.253-1.818,0.253c-2.355,0-2.355-1.486-2.355-2.15V24.29h-1.533
			V22.74h1.533v-1.565l2.324-0.854v2.419h1.896v1.549h-1.896v3.604c0.016,0.727,0.016,1.186,1.06,1.186
			c0.348,0,0.506-0.016,0.79-0.047V30.565z"/>
		<path fill="#00435B" d="M192.438,19.262h2.324v4.521c0.269-0.38,0.854-1.202,2.308-1.202c1.186,0,1.944,0.585,2.323,1.075
			c0.285,0.396,0.522,1.123,0.522,2.166v4.853h-2.324v-4.774c0-0.458,0-1.739-1.312-1.739c-0.664,0-1.502,0.38-1.502,1.628
			l0.016,4.885h-2.355V19.262z"/>
		<path fill="#00435B" d="M203.911,27.277c0,0.522,0,2.134,1.629,2.134c0.585,0,1.17-0.221,1.391-1.106h2.135
			c-0.032,0.379-0.111,1.059-0.759,1.739c-0.585,0.617-1.629,0.933-2.799,0.933c-0.68,0-1.976-0.126-2.813-0.996
			c-0.728-0.759-1.027-1.833-1.027-3.114c0-1.296,0.316-2.846,1.66-3.778c0.616-0.411,1.375-0.664,2.244-0.664
			c1.139,0,2.498,0.443,3.225,1.929c0.538,1.091,0.506,2.261,0.475,2.924H203.911z M206.884,25.807c0-0.364-0.032-1.787-1.392-1.787
			c-1.027,0-1.454,0.854-1.502,1.787H206.884z"/>
		<path fill="#00435B" d="M215.209,24.653c0-0.379-0.063-1.533-0.11-1.992h2.197l0.047,1.533c0.301-0.68,0.822-1.644,2.72-1.549
			v2.103c-2.371-0.221-2.514,0.996-2.514,1.992v3.936h-2.34V24.653z"/>
		<path fill="#00435B" d="M220.645,19.262h2.498v2.04h-2.498V19.262z M220.724,22.677h2.34v7.999h-2.34V22.677z"/>
		<path fill="#00435B" d="M226.745,28.368c0.031,0.506,0.348,1.091,1.327,1.091c0.838,0,1.233-0.474,1.233-0.948
			c0-0.364-0.189-0.648-1.106-0.901l-1.454-0.395c-0.648-0.19-2.023-0.585-2.023-2.213c0-1.549,1.422-2.498,3.493-2.498
			c1.644,0,2.972,0.759,3.035,2.355h-2.134c-0.063-0.885-0.775-0.949-1.139-0.949c-0.632,0-1.106,0.301-1.106,0.791
			c0,0.538,0.396,0.648,1.091,0.838l1.438,0.395c1.454,0.396,2.134,1.139,2.134,2.229c0,1.375-1.186,2.751-3.667,2.751
			c-1.027,0-2.008-0.222-2.735-0.98c-0.521-0.553-0.568-1.186-0.585-1.565H226.745z"/>
		<path fill="#00435B" d="M233.049,19.247h2.323v6.734l2.419-3.336h2.64l-2.734,3.478l2.908,4.553h-2.767l-2.466-4.347v4.347h-2.323
			V19.247z"/>
		<path fill="#00435B" d="M249.958,22.503c2.893,0,4.142,1.96,4.142,4.189c0,2.245-1.296,4.269-4.189,4.269
			c-2.276,0-4.078-1.407-4.078-4.205C245.832,24.827,246.812,22.503,249.958,22.503z M249.989,29.332
			c1.027,0,1.724-0.617,1.724-2.735c0-1.059-0.206-2.529-1.755-2.529c-1.707,0-1.724,1.976-1.724,2.703
			C248.234,28.558,248.835,29.332,249.989,29.332z"/>
		<path fill="#00435B" d="M256.009,24.353h-1.186v-1.66h1.186v-1.091c0-1.407,0.475-2.545,2.751-2.545c0.158,0,0.601,0,1.265,0.079
			v1.628c-0.237-0.032-0.301-0.047-0.49-0.047c-1.201,0-1.201,0.632-1.201,1.043v0.933h1.485v1.66h-1.485v6.323h-2.324V24.353z"/>
		<path fill="#00435B" d="M265.537,24.115c0-0.031,0-0.901-0.048-1.454h2.245l0.063,1.201c0.222-0.363,0.854-1.391,2.593-1.391
			c1.565,0,2.229,0.949,2.435,1.502c0.174,0.49,0.222,0.901,0.222,2.387v4.315h-2.388v-4.964c0-0.332,0-0.616-0.126-0.869
			c-0.174-0.348-0.538-0.68-1.139-0.68c-0.506,0-0.964,0.237-1.217,0.617c-0.143,0.206-0.285,0.601-0.285,1.217v4.679h-2.354V24.115
			z"/>
		<path fill="#00435B" d="M278.923,22.503c2.893,0,4.142,1.96,4.142,4.189c0,2.245-1.296,4.269-4.189,4.269
			c-2.276,0-4.078-1.407-4.078-4.205C274.797,24.827,275.776,22.503,278.923,22.503z M278.954,29.332
			c1.027,0,1.724-0.617,1.724-2.735c0-1.059-0.206-2.529-1.755-2.529c-1.707,0-1.724,1.976-1.724,2.703
			C277.199,28.558,277.8,29.332,278.954,29.332z"/>
		<path fill="#00435B" d="M284.847,24.115c0-0.031,0-0.901-0.048-1.454h2.245l0.063,1.201c0.222-0.363,0.854-1.391,2.593-1.391
			c1.565,0,2.229,0.949,2.435,1.502c0.174,0.49,0.222,0.901,0.222,2.387v4.315h-2.388v-4.964c0-0.332,0-0.616-0.126-0.869
			c-0.174-0.348-0.538-0.68-1.139-0.68c-0.506,0-0.964,0.237-1.217,0.617c-0.143,0.206-0.284,0.601-0.284,1.217v4.679h-2.355V24.115
			z"/>
		<path fill="#00435B" d="M294.138,25.602h3.921v1.786h-3.921V25.602z"/>
		<path fill="#00435B" d="M299.89,24.353h-1.186v-1.66h1.186v-1.091c0-1.407,0.475-2.545,2.751-2.545c0.158,0,0.601,0,1.265,0.079
			v1.628c-0.237-0.032-0.301-0.047-0.49-0.047c-1.201,0-1.201,0.632-1.201,1.043v0.933h1.485v1.66h-1.485v6.323h-2.324V24.353z"/>
		<path fill="#00435B" d="M309.151,30.676c-0.079-0.49-0.079-0.854-0.079-1.091c-0.885,1.281-1.944,1.281-2.387,1.281
			c-1.154,0-1.676-0.332-1.992-0.633c-0.474-0.474-0.695-1.122-0.695-1.754s0.222-1.802,1.691-2.482
			c0.98-0.442,2.387-0.442,3.161-0.442c0-0.522-0.016-0.775-0.11-1.06c-0.205-0.585-0.822-0.664-1.043-0.664
			c-0.332,0-0.68,0.142-0.886,0.442c-0.174,0.269-0.174,0.522-0.174,0.711h-2.292c0.016-0.427,0.063-1.28,0.901-1.881
			c0.727-0.521,1.659-0.648,2.418-0.648c0.664,0,2.056,0.111,2.846,1.027c0.537,0.648,0.554,1.597,0.554,1.96l0.016,3.209
			c0,0.68,0.047,1.359,0.189,2.023H309.151z M306.274,28.209c0,0.538,0.363,1.139,1.138,1.139c0.427,0,0.775-0.206,0.996-0.458
			c0.411-0.506,0.442-1.123,0.442-1.976C307.35,26.787,306.274,27.261,306.274,28.209z"/>
		<path fill="#00435B" d="M317.842,30.565c-0.759,0.206-1.438,0.253-1.818,0.253c-2.355,0-2.355-1.486-2.355-2.15V24.29h-1.533
			V22.74h1.533v-1.565l2.324-0.854v2.419h1.896v1.549h-1.896v3.604c0.016,0.727,0.016,1.186,1.06,1.186
			c0.348,0,0.506-0.016,0.79-0.047V30.565z"/>
		<path fill="#00435B" d="M324.084,30.676c-0.079-0.49-0.079-0.854-0.079-1.091c-0.885,1.281-1.944,1.281-2.387,1.281
			c-1.154,0-1.676-0.332-1.992-0.633c-0.475-0.474-0.695-1.122-0.695-1.754s0.221-1.802,1.691-2.482
			c0.98-0.442,2.387-0.442,3.161-0.442c0-0.522-0.016-0.775-0.11-1.06c-0.205-0.585-0.822-0.664-1.043-0.664
			c-0.332,0-0.68,0.142-0.886,0.442c-0.174,0.269-0.174,0.522-0.174,0.711h-2.292c0.016-0.427,0.063-1.28,0.901-1.881
			c0.727-0.521,1.659-0.648,2.418-0.648c0.664,0,2.056,0.111,2.846,1.027c0.538,0.648,0.554,1.597,0.554,1.96l0.016,3.209
			c0,0.68,0.047,1.359,0.189,2.023H324.084z M321.207,28.209c0,0.538,0.363,1.139,1.138,1.139c0.427,0,0.775-0.206,0.996-0.458
			c0.411-0.506,0.442-1.123,0.442-1.976C322.282,26.787,321.207,27.261,321.207,28.209z"/>
		<path fill="#00435B" d="M328.079,19.247h2.34v11.429h-2.34V19.247z"/>
		<path fill="#00435B" d="M336.786,19.247h4l2.418,8.315l2.608-8.315h3.889v11.429h-2.434v-9.801l-3.114,9.801h-2.023l-3.052-9.801
			v9.801h-2.292V19.247z"/>
		<path fill="#00435B" d="M351.703,19.215h2.45v11.461h-2.45V19.215z"/>
		<path fill="#00435B" d="M365.357,30.676c-0.079-0.49-0.079-0.854-0.079-1.091c-0.885,1.281-1.944,1.281-2.387,1.281
			c-1.154,0-1.676-0.332-1.992-0.633c-0.475-0.474-0.695-1.122-0.695-1.754s0.221-1.802,1.691-2.482
			c0.98-0.442,2.387-0.442,3.161-0.442c0-0.522-0.016-0.775-0.11-1.06c-0.205-0.585-0.822-0.664-1.043-0.664
			c-0.332,0-0.68,0.142-0.886,0.442c-0.174,0.269-0.174,0.522-0.174,0.711h-2.292c0.016-0.427,0.063-1.28,0.901-1.881
			c0.727-0.521,1.659-0.648,2.418-0.648c0.664,0,2.056,0.111,2.846,1.027c0.538,0.648,0.554,1.597,0.554,1.96l0.016,3.209
			c0,0.68,0.047,1.359,0.189,2.023H365.357z M362.48,28.209c0,0.538,0.363,1.139,1.138,1.139c0.427,0,0.775-0.206,0.996-0.458
			c0.411-0.506,0.442-1.123,0.442-1.976C363.556,26.787,362.48,27.261,362.48,28.209z"/>
		<path fill="#00435B" d="M369.386,24.115c0-0.031,0-0.901-0.048-1.454h2.245l0.063,1.201c0.222-0.363,0.854-1.391,2.593-1.391
			c1.565,0,2.229,0.949,2.435,1.502c0.174,0.49,0.222,0.901,0.222,2.387v4.315h-2.388v-4.964c0-0.332,0-0.616-0.126-0.869
			c-0.174-0.348-0.538-0.68-1.139-0.68c-0.506,0-0.964,0.237-1.217,0.617c-0.143,0.206-0.284,0.601-0.284,1.217v4.679h-2.355V24.115
			z"/>
		<path fill="#00435B" d="M384.288,19.262h2.355v10.117c0,0.475,0.031,0.996,0.063,1.296h-2.371l-0.063-1.154
			c-0.158,0.284-0.316,0.585-0.807,0.901c-0.585,0.379-1.201,0.411-1.549,0.411c-2.135,0-3.399-1.47-3.399-3.968
			c0-2.64,1.438-4.284,3.525-4.284c1.438,0,2.039,0.806,2.245,1.091V19.262z M382.502,29.316c0.68,0,1.232-0.411,1.485-0.901
			c0.348-0.664,0.38-1.486,0.38-1.881c0-1.565-0.68-2.419-1.739-2.419c-1.564,0-1.738,1.881-1.738,2.688
			C380.89,28.131,381.332,29.316,382.502,29.316z"/>
		<path fill="#00435B" d="M393.214,24.353h-1.186v-1.66h1.186v-1.091c0-1.407,0.475-2.545,2.751-2.545c0.158,0,0.601,0,1.265,0.079
			v1.628c-0.237-0.032-0.301-0.047-0.49-0.047c-1.201,0-1.201,0.632-1.201,1.043v0.933h1.485v1.66h-1.485v6.323h-2.324V24.353z"/>
		<path fill="#00435B" d="M402.476,30.676c-0.079-0.49-0.079-0.854-0.079-1.091c-0.885,1.281-1.944,1.281-2.387,1.281
			c-1.154,0-1.676-0.332-1.992-0.633c-0.474-0.474-0.695-1.122-0.695-1.754s0.222-1.802,1.691-2.482
			c0.98-0.442,2.387-0.442,3.161-0.442c0-0.522-0.016-0.775-0.11-1.06c-0.205-0.585-0.822-0.664-1.043-0.664
			c-0.332,0-0.68,0.142-0.886,0.442c-0.174,0.269-0.174,0.522-0.174,0.711h-2.292c0.016-0.427,0.063-1.28,0.901-1.881
			c0.727-0.521,1.659-0.648,2.418-0.648c0.664,0,2.056,0.111,2.846,1.027c0.537,0.648,0.554,1.597,0.554,1.96l0.016,3.209
			c0,0.68,0.047,1.359,0.189,2.023H402.476z M399.599,28.209c0,0.538,0.363,1.139,1.138,1.139c0.427,0,0.775-0.206,0.996-0.458
			c0.411-0.506,0.442-1.123,0.442-1.976C400.674,26.787,399.599,27.261,399.599,28.209z"/>
		<path fill="#00435B" d="M411.167,30.565c-0.759,0.206-1.438,0.253-1.818,0.253c-2.355,0-2.355-1.486-2.355-2.15V24.29h-1.533
			V22.74h1.533v-1.565l2.324-0.854v2.419h1.896v1.549h-1.896v3.604c0.016,0.727,0.016,1.186,1.059,1.186
			c0.349,0,0.506-0.016,0.791-0.047V30.565z"/>
		<path fill="#00435B" d="M417.408,30.676c-0.079-0.49-0.079-0.854-0.079-1.091c-0.885,1.281-1.944,1.281-2.387,1.281
			c-1.154,0-1.676-0.332-1.992-0.633c-0.475-0.474-0.695-1.122-0.695-1.754s0.221-1.802,1.691-2.482
			c0.98-0.442,2.387-0.442,3.161-0.442c0-0.522-0.016-0.775-0.11-1.06c-0.205-0.585-0.822-0.664-1.043-0.664
			c-0.332,0-0.68,0.142-0.886,0.442c-0.174,0.269-0.174,0.522-0.174,0.711h-2.292c0.016-0.427,0.063-1.28,0.901-1.881
			c0.727-0.521,1.659-0.648,2.418-0.648c0.664,0,2.056,0.111,2.846,1.027c0.538,0.648,0.554,1.597,0.554,1.96l0.016,3.209
			c0,0.68,0.047,1.359,0.189,2.023H417.408z M414.531,28.209c0,0.538,0.363,1.139,1.138,1.139c0.427,0,0.775-0.206,0.996-0.458
			c0.411-0.506,0.442-1.123,0.442-1.976C415.606,26.787,414.531,27.261,414.531,28.209z"/>
		<path fill="#00435B" d="M421.404,19.247h2.34v11.429h-2.34V19.247z"/>
		<path fill="#00435B" d="M436.687,22.977c-0.047-0.395-0.189-2.007-1.85-2.007c-1.817,0-2.576,1.897-2.576,4.252
			c0,0.68,0,3.92,2.387,3.92c1.027,0,2.008-0.648,2.055-2.166h2.577c-0.048,0.68-0.11,1.739-1.027,2.688
			c-1.012,1.043-2.292,1.28-3.336,1.28c-3.936,0-5.217-2.909-5.217-5.738c0-3.62,2.023-6.023,5.232-6.023
			c2.498,0,4.253,1.518,4.253,3.794H436.687z"/>
		<path fill="#00435B" d="M440.762,19.247h2.45v4.568h4.315v-4.568h2.481v11.429h-2.45v-5.011h-4.347v5.011h-2.45V19.247z"/>
		<path fill="#00435B" d="M452.138,19.278l3.778,0.016c0.632,0,2.561,0.016,3.937,1.027c1.438,1.059,1.944,2.861,1.944,4.49
			c0,3.509-1.882,5.343-4.047,5.738c-0.427,0.079-0.901,0.126-2.056,0.126h-3.557V19.278z M454.62,28.794
			c0.269,0.016,0.68,0.032,0.964,0.032c1.043,0,1.944-0.079,2.656-0.791c0.964-0.964,1.027-2.671,1.027-3.225
			c0-1.612-0.554-3.099-2.087-3.525c-0.506-0.142-1.154-0.221-2.561-0.158V28.794z"/>
		<path fill="#00435B" d="M467.86,19.278h2.34v4.378c0.79-1.043,1.85-1.075,2.261-1.075c1.944,0,3.478,1.533,3.478,4.221
			c0,2.988-1.739,4.031-3.336,4.031c-0.41,0-1.675-0.032-2.402-1.281c-0.016,0.253-0.031,0.632-0.079,1.123h-2.261V19.278z
			 M471.828,24.147c-1.723,0-1.723,1.96-1.723,2.466c0,1.818,0.774,2.687,1.834,2.687c1.612,0,1.612-2.007,1.612-2.418
			C473.552,26.25,473.52,24.147,471.828,24.147z"/>
		<path fill="#00435B" d="M479.002,22.693l1.754,5.533l1.787-5.533h2.323l-3.02,7.841l-0.964,3.177h-2.355l1.012-3.003l-3.066-8.015
			H479.002z"/>
		<path fill="#00435B" d="M492.181,27.672c0.016,0.348,0.11,1.47,1.422,1.47c0.886,0,1.423-0.648,1.423-1.502
			c0-1.628-1.564-1.628-2.719-1.628v-1.85c1.106-0.031,2.735-0.063,2.735-1.644c0-0.87-0.648-1.313-1.36-1.313
			c-0.68,0-1.343,0.458-1.343,1.375h-2.419c0.047-0.49,0.095-1.186,0.647-1.865c0.728-0.885,1.897-1.217,3.067-1.217
			c2.813,0,3.715,1.802,3.715,3.003c0,1.85-1.628,2.355-2.118,2.498c0.348,0.111,0.806,0.253,1.312,0.68
			c0.775,0.648,0.901,1.455,0.901,1.976c0,1.866-1.707,3.257-3.999,3.257c-0.791,0-1.944-0.174-2.656-0.743
			c-0.979-0.806-1.012-2.055-1.012-2.498H492.181z"/>
		<path fill="#00435B" d="M504.08,22.376c-0.048-0.791-0.569-1.091-1.154-1.091c-1.581,0-1.628,1.96-1.66,3.099
			c0.396-0.364,1.012-0.885,2.166-0.885c1.533,0,3.161,1.091,3.161,3.494c0,1.217-0.332,2.103-1.17,2.877
			c-0.727,0.68-1.58,1.027-2.813,1.027c-3.81,0-3.81-3.699-3.81-5.011c0-2.213,0.284-4.505,1.786-5.612
			c0.965-0.727,2.118-0.774,2.545-0.774c1.66,0,3.241,0.854,3.288,2.877H504.08z M504.27,27.15c0-1.217-0.633-1.897-1.423-1.897
			c-0.396,0-1.597,0.237-1.597,1.944c0,1.36,0.728,1.929,1.502,1.929C503.432,29.126,504.27,28.652,504.27,27.15z"/>
		<path fill="#00435B" d="M510.432,18.63c2.197,0,2.576,1.407,2.576,2.893c0,0.791,0,3.162-2.688,3.162
			c-1.865,0-2.529-1.296-2.529-3.003C507.791,20.859,507.808,18.63,510.432,18.63z M510.368,23.388c0.537,0,0.917-0.348,0.917-1.85
			c0-0.648-0.048-1.676-0.854-1.676c-0.933,0-0.933,1.281-0.933,1.755C509.499,22.835,509.704,23.388,510.368,23.388z
			 M517.561,18.52l-6.007,12.346h-1.186l6.007-12.346H517.561z M517.703,24.764c2.182,0,2.577,1.407,2.577,2.877
			c0,0.806,0,3.177-2.704,3.177c-1.865,0-2.513-1.312-2.513-3.019C515.063,26.993,515.063,24.764,517.703,24.764z M517.64,29.522
			c0.538,0,0.917-0.348,0.917-1.85c0-0.648-0.063-1.676-0.869-1.676c-0.933,0-0.933,1.265-0.933,1.755
			C516.755,28.953,516.96,29.522,517.64,29.522z"/>
	</g>
	<g>
		<path fill="#00435B" d="M531.338,25.285c-0.031-0.364-0.143-1.66-1.581-1.66c-2.055,0-2.055,2.387-2.055,2.988
			c0,1.628,0.396,3.146,1.976,3.146c1.265,0,1.692-0.948,1.724-1.723h1.502c-0.095,1.549-1.249,2.846-3.209,2.846
			c-0.538,0-1.771-0.111-2.608-1.027c-0.475-0.554-0.949-1.392-0.949-3.035c0-3.304,2.023-4.284,3.604-4.284
			c0.521,0,1.707,0.11,2.435,0.98c0.585,0.68,0.633,1.328,0.664,1.771H531.338z"/>
		<path fill="#00435B" d="M538.163,22.535c3.178,0,3.889,2.498,3.889,4.157c0,2.324-1.312,4.252-4.015,4.252
			c-2.624,0-3.904-1.818-3.904-4.142C534.133,24.843,535.049,22.535,538.163,22.535z M538.068,29.838
			c1.123,0,2.403-0.806,2.403-3.193c0-1.976-0.917-3.019-2.309-3.019c-0.948,0-2.481,0.601-2.481,3.083
			C535.682,28.336,536.377,29.838,538.068,29.838z"/>
		<path fill="#00435B" d="M544.356,23.799l-0.031-1.059h1.502v1.154c0.759-1.249,1.834-1.359,2.514-1.359
			c1.754,0,2.308,0.901,2.592,1.486c0.27-0.442,0.917-1.486,2.672-1.486c1.139,0,2.908,0.474,2.908,2.814v5.327h-1.501v-5.09
			c0-0.695-0.127-0.996-0.269-1.201c-0.254-0.364-0.76-0.696-1.518-0.696c-0.965,0-1.486,0.553-1.692,0.838
			c-0.348,0.49-0.348,1.359-0.348,1.708v4.442h-1.501v-5.249c0-0.98-0.569-1.739-1.739-1.739c-1.012,0-1.565,0.632-1.739,0.87
			c-0.332,0.458-0.348,1.106-0.348,1.612v4.505h-1.502V23.799z"/>
		<path fill="#00435B" d="M559.242,24.037c0-0.348-0.016-0.538-0.048-1.296h1.502l0.032,1.312c0.742-1.249,2.055-1.438,2.703-1.438
			c1.707,0,3.335,1.17,3.335,4.11c0,2.956-1.723,4.252-3.62,4.252c-1.153,0-2.008-0.49-2.435-1.186v3.936h-1.47V24.037z
			 M562.894,29.885c0.38,0,1.17-0.079,1.676-0.774c0.569-0.774,0.648-1.913,0.648-2.482c0-1.423-0.427-2.909-2.182-2.909
			c-2.371,0-2.371,2.514-2.371,3.225C560.665,27.909,560.808,29.885,562.894,29.885z"/>
		<path fill="#00435B" d="M573.781,30.676c-0.11-0.395-0.143-0.774-0.143-1.186c-0.711,1.312-1.786,1.438-2.45,1.438
			c-1.817,0-2.798-1.027-2.798-2.339c0-0.633,0.222-1.645,1.391-2.324c0.854-0.474,2.119-0.521,2.751-0.521
			c0.38,0,0.616,0.016,1.075,0.047c0-0.98,0-1.407-0.285-1.754c-0.3-0.396-0.948-0.522-1.375-0.522
			c-1.502,0-1.581,1.028-1.597,1.344h-1.485c0.047-0.411,0.095-0.964,0.553-1.502c0.601-0.664,1.724-0.854,2.562-0.854
			c1.153,0,2.387,0.364,2.813,1.17c0.253,0.474,0.269,0.854,0.269,1.217l-0.063,3.794c0,0.126,0.017,1.186,0.127,1.992H573.781z
			 M572.754,26.771c-0.601,0-2.861,0-2.861,1.613c0,0.506,0.315,1.375,1.644,1.375c0.759,0,1.328-0.3,1.691-0.854
			c0.332-0.538,0.348-0.98,0.38-2.086C573.339,26.787,573.117,26.771,572.754,26.771z"/>
		<path fill="#00435B" d="M577.809,24.353c0-0.538-0.031-1.091-0.079-1.612h1.502l0.032,1.533c0.284-1.106,1.232-1.47,1.896-1.565
			c0.442-0.063,0.774-0.047,1.027-0.032v1.455c-0.079-0.032-0.174-0.047-0.284-0.063c-0.11-0.016-0.253-0.016-0.427-0.016
			c-1.755,0-2.166,1.043-2.166,2.403v4.221h-1.502V24.353z"/>
		<path fill="#00435B" d="M584.777,26.977c-0.031,1.644,0.648,2.861,2.276,2.861c0.965,0,1.739-0.506,1.865-1.644h1.486
			c-0.048,0.396-0.11,1.043-0.68,1.66c-0.348,0.395-1.139,1.059-2.735,1.059c-2.497,0-3.683-1.549-3.683-4.063
			c0-1.565,0.316-2.861,1.564-3.73c0.759-0.538,1.708-0.585,2.166-0.585c3.557,0,3.478,3.146,3.446,4.442H584.777z M588.967,25.933
			c0.016-0.759-0.127-2.339-1.96-2.339c-0.965,0-2.135,0.585-2.166,2.339H588.967z"/>
		<path fill="#00435B" d="M598.164,19.278h1.485v10.133c0,0.174,0.032,0.854,0.063,1.265h-1.485l-0.032-1.265
			c-0.126,0.221-0.3,0.553-0.711,0.838c-0.648,0.442-1.423,0.585-1.961,0.585c-1.059,0-3.414-0.553-3.414-4.031
			c0-3.019,1.723-4.332,3.589-4.332c1.707,0,2.275,1.012,2.466,1.344V19.278z M597.61,24.384c-0.316-0.411-0.9-0.806-1.738-0.806
			c-2.182,0-2.182,2.64-2.182,3.177c0,1.407,0.363,3.035,2.182,3.035c2.339,0,2.339-2.577,2.339-3.193
			C598.211,25.443,597.942,24.811,597.61,24.384z"/>
	</g>
	<g>
		<path fill="#00435B" d="M0.031,41.67h1.407v-1.66l1.47-0.475v2.134h1.771v1.091H2.908v4.758c0,0.395,0,1.059,1.06,1.059
			c0.3,0,0.585-0.047,0.711-0.079v1.154c-0.269,0.047-0.695,0.095-1.232,0.095c-1.36,0-2.008-0.396-2.008-1.691v-5.296H0.031V41.67z
			"/>
		<path fill="#00435B" d="M9.956,41.497c3.178,0,3.889,2.498,3.889,4.157c0,2.324-1.312,4.252-4.015,4.252
			c-2.624,0-3.904-1.818-3.904-4.142C5.926,43.805,6.842,41.497,9.956,41.497z M9.861,48.8c1.123,0,2.403-0.806,2.403-3.193
			c0-1.976-0.917-3.019-2.309-3.019c-0.948,0-2.481,0.601-2.481,3.083C7.475,47.298,8.17,48.8,9.861,48.8z"/>
		<path fill="#00435B" d="M20.511,42.999c0-0.348-0.016-0.538-0.048-1.296h1.502l0.032,1.312c0.742-1.249,2.055-1.438,2.703-1.438
			c1.707,0,3.335,1.17,3.335,4.11c0,2.956-1.723,4.252-3.62,4.252c-1.153,0-2.008-0.49-2.435-1.186v3.936h-1.47V42.999z
			 M24.162,48.847c0.38,0,1.17-0.079,1.676-0.774c0.569-0.774,0.648-1.913,0.648-2.482c0-1.423-0.427-2.909-2.182-2.909
			c-2.371,0-2.371,2.514-2.371,3.225C21.934,46.871,22.075,48.847,24.162,48.847z"/>
		<path fill="#00435B" d="M30.244,38.24h1.485v11.397h-1.485V38.24z"/>
		<path fill="#00435B" d="M39.443,49.638c-0.11-0.395-0.143-0.774-0.143-1.186c-0.711,1.312-1.786,1.438-2.45,1.438
			c-1.817,0-2.798-1.027-2.798-2.339c0-0.633,0.222-1.645,1.391-2.324c0.854-0.474,2.119-0.521,2.751-0.521
			c0.38,0,0.616,0.016,1.075,0.047c0-0.98,0-1.407-0.285-1.754c-0.3-0.396-0.948-0.522-1.375-0.522
			c-1.502,0-1.581,1.028-1.597,1.344h-1.485c0.047-0.411,0.095-0.964,0.553-1.502c0.601-0.664,1.724-0.854,2.562-0.854
			c1.153,0,2.387,0.364,2.813,1.17c0.253,0.474,0.269,0.854,0.269,1.217l-0.063,3.794c0,0.126,0.017,1.186,0.127,1.992H39.443z
			 M38.416,45.733c-0.601,0-2.861,0-2.861,1.613c0,0.506,0.315,1.375,1.644,1.375c0.759,0,1.328-0.3,1.691-0.854
			c0.332-0.538,0.348-0.98,0.38-2.086C39.001,45.749,38.779,45.733,38.416,45.733z"/>
		<path fill="#00435B" d="M47.912,44.247c-0.031-0.364-0.143-1.66-1.581-1.66c-2.055,0-2.055,2.387-2.055,2.988
			c0,1.628,0.396,3.146,1.976,3.146c1.265,0,1.692-0.948,1.724-1.723h1.502c-0.095,1.549-1.249,2.846-3.209,2.846
			c-0.538,0-1.771-0.111-2.608-1.027c-0.475-0.554-0.949-1.392-0.949-3.035c0-3.304,2.023-4.284,3.604-4.284
			c0.521,0,1.707,0.11,2.435,0.98c0.585,0.68,0.633,1.328,0.664,1.771H47.912z"/>
		<path fill="#00435B" d="M52.193,45.938c-0.031,1.644,0.648,2.861,2.276,2.861c0.965,0,1.739-0.506,1.865-1.644h1.486
			c-0.048,0.396-0.11,1.043-0.68,1.66c-0.348,0.395-1.139,1.059-2.735,1.059c-2.497,0-3.683-1.549-3.683-4.063
			c0-1.565,0.316-2.861,1.564-3.73c0.759-0.538,1.708-0.585,2.166-0.585c3.557,0,3.478,3.146,3.446,4.442H52.193z M56.383,44.895
			c0.016-0.759-0.127-2.339-1.96-2.339c-0.965,0-2.135,0.585-2.166,2.339H56.383z"/>
		<path fill="#00435B" d="M61.563,42.856c0.206-0.363,0.791-1.359,2.593-1.359c0.79,0,1.786,0.189,2.514,1.012
			c0.395,0.458,0.933,1.249,0.933,2.988c0,1.533-0.364,2.371-0.759,2.893c-0.633,0.901-1.691,1.36-2.782,1.36
			c-0.38,0-1.091-0.048-1.771-0.506c-0.442-0.301-0.617-0.569-0.774-0.807l-0.032,1.202h-1.438l0.031-1.423v-9.991h1.486V42.856z
			 M63.809,42.508c-2.276,0-2.276,2.656-2.276,3.162c0,0.521,0,3.003,2.213,3.003c1.834,0,2.292-1.786,2.292-3.083
			C66.037,44.8,65.879,42.508,63.809,42.508z"/>
		<path fill="#00435B" d="M73.179,41.497c3.178,0,3.889,2.498,3.889,4.157c0,2.324-1.312,4.252-4.015,4.252
			c-2.624,0-3.904-1.818-3.904-4.142C69.148,43.805,70.064,41.497,73.179,41.497z M73.084,48.8c1.123,0,2.403-0.806,2.403-3.193
			c0-1.976-0.917-3.019-2.309-3.019c-0.948,0-2.481,0.601-2.481,3.083C70.697,47.298,71.393,48.8,73.084,48.8z"/>
	</g>
	<g>
		<path fill="#00435B" d="M80.494,39.002c-0.396,0.332-1.032,0.709-1.484,0.921v-0.921c0.6-0.313,1.189-0.701,1.549-1.004h0.82
			v6.377h-0.885V39.002z"/>
	</g>
	<g>
		<path fill="#00435B" d="M90.706,41.923l-2.719-0.3l1.612,2.182l-1.027,0.632l-1.06-2.498l-1.138,2.466L85.3,43.82l1.676-2.197
			l-2.624,0.221V40.69l2.671,0.348l-1.612-2.213l1.044-0.569l1.059,2.45l1.091-2.466l1.06,0.584l-1.66,2.213l2.703-0.3V41.923z"/>
	</g>
</g>
</svg>
