<?xml version="1.0" encoding="utf-8"?>
<!-- Generator: Adobe Illustrator 17.0.0, SVG Export Plug-In . SVG Version: 6.00 Build 0)  -->
<!DOCTYPE svg PUBLIC "-//W3C//DTD SVG 1.1//EN" "http://www.w3.org/Graphics/SVG/1.1/DTD/svg11.dtd">
<svg version="1.1" id="Layer_1" xmlns="http://www.w3.org/2000/svg" xmlns:xlink="http://www.w3.org/1999/xlink" x="0px" y="0px"
	 width="466.484px" height="360.561px" viewBox="0 0 466.484 360.561" enable-background="new 0 0 466.484 360.561"
	 xml:space="preserve">
<g>
	<g>
		<radialGradient id="SVGID_2_" cx="233.2418" cy="180.2803" r="208.4499" gradientUnits="userSpaceOnUse">
			<stop  offset="0" style="stop-color:#A0D4E4;stop-opacity:0"/>
			<stop  offset="0.0392" style="stop-color:#9DD2E5;stop-opacity:0.197"/>
			<stop  offset="0.0707" style="stop-color:#93CDE6;stop-opacity:0.3552"/>
			<stop  offset="0.0995" style="stop-color:#82C4E9;stop-opacity:0.5"/>
			<stop  offset="0.1267" style="stop-color:#6AB8ED;stop-opacity:0.6367"/>
			<stop  offset="0.1528" style="stop-color:#4BA8F2;stop-opacity:0.7679"/>
			<stop  offset="0.1777" style="stop-color:#2694F9;stop-opacity:0.893"/>
			<stop  offset="0.199" style="stop-color:#0080FF"/>
			<stop  offset="0.2012" style="stop-color:#007FFC"/>
			<stop  offset="0.2379" style="stop-color:#006CD3"/>
			<stop  offset="0.2776" style="stop-color:#015BAF"/>
			<stop  offset="0.3223" style="stop-color:#014D8F"/>
			<stop  offset="0.3717" style="stop-color:#014073"/>
			<stop  offset="0.4275" style="stop-color:#02365D"/>
			<stop  offset="0.4927" style="stop-color:#022E4C"/>
			<stop  offset="0.5733" style="stop-color:#022941"/>
			<stop  offset="0.6863" style="stop-color:#02263A"/>
			<stop  offset="1" style="stop-color:#022538"/>
		</radialGradient>
		<path fill="url(#SVGID_2_)" d="M466.484,317.239c0,14.917-12.092,27.009-27.009,27.009c0,0-162.107,16.52-216.347,16.31
			c-49.198-0.19-196.118-16.31-196.118-16.31C12.092,344.249,0,332.156,0,317.239V40.143c0-14.917,12.092-27.01,27.009-27.01
			c0,0,147.088-13.134,196.118-13.134c54.087,0,216.347,13.134,216.347,13.134c14.917,0,27.009,12.093,27.009,27.01V317.239z"/>
		<g>
			<radialGradient id="SVGID_4_" cx="233.2418" cy="180.2803" r="203.984" gradientUnits="userSpaceOnUse">
				<stop  offset="0" style="stop-color:#FFFFFF"/>
				<stop  offset="1" style="stop-color:#F7F7F7"/>
			</radialGradient>
			<path fill="url(#SVGID_4_)" d="M461.487,314.305c0,14.597-11.833,26.431-26.431,26.431c0,0-158.634,16.166-211.712,15.961
				c-48.144-0.186-191.916-15.961-191.916-15.961c-14.597,0-26.431-11.833-26.431-26.431V43.146
				c0-14.597,11.833-26.431,26.431-26.431c0,0,143.937-12.852,191.916-12.852c52.928,0,211.712,12.852,211.712,12.852
				c14.597,0,26.431,11.833,26.431,26.431V314.305z"/>
		</g>
	</g>
	<g>
		<g>
			<path fill="#006C83" d="M49.906,229.736H39.793v-2.998c0-1.358,0.504-2.815,2.885-2.815c2.297,0,2.773,1.793,2.773,2.83v1.694
				h4.455V229.736z M44.33,228.447v-1.414c0-0.532-0.14-1.793-1.723-1.793c-1.541,0-1.694,1.148-1.694,1.429v1.778H44.33z"/>
			<path fill="#006C83" d="M43.896,221.047v-0.028c-1.078-0.476-1.205-1.064-1.205-2.185h1.191c-0.014,0.098-0.028,0.21-0.043,0.308
				c-0.014,0.099-0.027,0.196-0.027,0.309c0,1.274,0.967,1.597,1.919,1.597h4.175v1.148h-7.074v-1.148H43.896z"/>
			<path fill="#006C83" d="M46.474,217.768c-2.074,0-3.783-0.238-3.783-2.689s1.709-2.689,3.783-2.689
				c3.123,0,3.571,1.19,3.571,2.689S49.597,217.768,46.474,217.768z M45.983,213.594c-1.933,0-2.353,0.602-2.353,1.484
				s0.42,1.485,2.353,1.485c2.298,0,3.124-0.295,3.124-1.485S48.281,213.594,45.983,213.594z"/>
			<path fill="#006C83" d="M43.671,209.319v-0.028c-0.658-0.393-0.98-0.883-0.98-1.625c0-1.135,0.449-2.283,3.559-2.283
				c1.765,0,3.796,0.056,3.796,2.339c0,0.673-0.294,1.163-0.854,1.556v0.042h3.39v1.148h-9.749v-1.148H43.671z M46.25,206.588
				c-1.064,0-2.619,0-2.619,1.442c0,1.415,1.961,1.289,3.039,1.289c0.938,0,2.438-0.057,2.438-1.331
				C49.107,206.755,48.14,206.588,46.25,206.588z"/>
			<path fill="#006C83" d="M46.474,203.755c-2.074,0-3.783-0.238-3.783-2.689s1.709-2.689,3.783-2.689
				c3.123,0,3.571,1.19,3.571,2.689S49.597,203.755,46.474,203.755z M45.983,199.581c-1.933,0-2.353,0.602-2.353,1.484
				s0.42,1.485,2.353,1.485c2.298,0,3.124-0.295,3.124-1.485S48.281,199.581,45.983,199.581z"/>
			<path fill="#006C83" d="M43.896,195.361v-0.028c-1.078-0.476-1.205-1.064-1.205-2.185h1.191c-0.014,0.098-0.028,0.21-0.043,0.308
				c-0.014,0.099-0.027,0.196-0.027,0.309c0,1.274,0.967,1.597,1.919,1.597h4.175v1.148h-7.074v-1.148H43.896z"/>
			<path fill="#006C83" d="M42.832,191.759h-1.359l-0.518-1.148h1.877v-1.541H43.7v1.541h4.329c0.447,0,1.021,0,1.021-1.051
				c0-0.084-0.027-0.266-0.056-0.519h0.883c0.028,0.379,0.112,0.757,0.112,1.135c0,1.093-0.449,1.583-1.262,1.583H43.7v1.163h-0.868
				V191.759z"/>
			<path fill="#006C83" d="M39.793,188.089v-1.289h1.232v1.289H39.793z M49.906,186.87v1.148h-7.074v-1.148H49.906z"/>
			<path fill="#006C83" d="M46.474,185.075c-2.074,0-3.783-0.238-3.783-2.689s1.709-2.689,3.783-2.689
				c3.123,0,3.571,1.19,3.571,2.689S49.597,185.075,46.474,185.075z M45.983,180.901c-1.933,0-2.353,0.602-2.353,1.484
				s0.42,1.485,2.353,1.485c2.298,0,3.124-0.295,3.124-1.485S48.281,180.901,45.983,180.901z"/>
			<path fill="#006C83" d="M49.906,174.034h-4.903c-0.757,0-1.372,0.267-1.372,1.247c0,1.261,1.12,1.442,2.086,1.442h4.189v1.148
				h-5.604c-0.49,0-0.98,0.028-1.471,0.07v-1.219h0.91v-0.056c-0.799-0.448-1.051-0.98-1.051-1.892c0-1.513,0.911-1.891,2.312-1.891
				h4.903V174.034z"/>
			<path fill="#006C83" d="M46.474,167.951c-2.074,0-3.783-0.238-3.783-2.689s1.709-2.689,3.783-2.689
				c3.123,0,3.571,1.19,3.571,2.689S49.597,167.951,46.474,167.951z M45.983,163.777c-1.933,0-2.353,0.602-2.353,1.484
				s0.42,1.484,2.353,1.484c2.298,0,3.124-0.294,3.124-1.484S48.281,163.777,45.983,163.777z"/>
			<path fill="#006C83" d="M42.832,160.538h-1.373c-1.429,0-1.709-1.009-1.709-2.031c0-0.238,0.014-0.378,0.043-0.546h0.826
				c-0.084,1.219,0.434,1.429,1.008,1.429h1.205v-1.429H43.7v1.429h6.206v1.148H43.7v1.093h-0.868V160.538z"/>
			<path fill="#006C83" d="M43.671,152.495v-0.028c-0.658-0.393-0.98-0.883-0.98-1.625c0-1.135,0.449-2.283,3.559-2.283
				c1.765,0,3.796,0.056,3.796,2.339c0,0.673-0.294,1.163-0.854,1.556v0.042h3.39v1.148h-9.749v-1.148H43.671z M46.25,149.763
				c-1.064,0-2.619,0-2.619,1.442c0,1.415,1.961,1.289,3.039,1.289c0.938,0,2.438-0.057,2.438-1.331
				C49.107,149.931,48.14,149.763,46.25,149.763z"/>
			<path fill="#006C83" d="M48.882,143.092v0.028c0.813,0.35,1.163,0.896,1.163,1.778c0,1.499-0.967,1.934-2.325,1.934
				c-2.143,0-2.241-2.102-2.199-3.712c-0.938-0.028-1.961-0.042-1.961,1.19c0,0.771,0.518,1.177,1.26,1.106v1.247
				c-1.582-0.057-2.129-0.896-2.129-2.396c0-1.821,0.939-2.298,2.129-2.298h3.404c0.561,0,1.135-0.056,1.682-0.14v1.261H48.882z
				 M47.804,145.683c0.687,0,1.303-0.336,1.303-1.106c0-0.7-0.435-1.568-2.718-1.456C46.404,144.213,46.305,145.683,47.804,145.683z
				"/>
			<path fill="#006C83" d="M42.832,139.601h-1.359l-0.518-1.148h1.877v-1.541H43.7v1.541h4.329c0.447,0,1.021,0,1.021-1.051
				c0-0.084-0.027-0.266-0.056-0.519h0.883c0.028,0.379,0.112,0.757,0.112,1.135c0,1.093-0.449,1.583-1.262,1.583H43.7v1.163h-0.868
				V139.601z"/>
			<path fill="#006C83" d="M39.793,135.93v-1.289h1.232v1.289H39.793z M49.906,134.712v1.148h-7.074v-1.148H49.906z"/>
			<path fill="#006C83" d="M46.74,131.601c1.975,0,2.367-0.532,2.367-1.429c0-0.785-0.631-1.191-1.345-1.233v-1.26
				c1.569,0.014,2.283,0.98,2.283,2.465c0,1.499-0.448,2.689-3.571,2.689c-2.074,0-3.783-0.238-3.783-2.689
				c0-2.018,1.107-2.521,3.446-2.521h0.603V131.601z M45.871,128.841c-2.059,0-2.311,0.574-2.311,1.415
				c0,0.729,0.35,1.33,2.311,1.345V128.841z"/>
			<path fill="#006C83" d="M49.906,121.877h-4.903c-0.757,0-1.372,0.267-1.372,1.247c0,1.261,1.12,1.442,2.086,1.442h4.189v1.148
				h-5.604c-0.49,0-0.98,0.028-1.471,0.07v-1.219h0.91v-0.056c-0.799-0.448-1.051-0.98-1.051-1.892c0-1.513,0.911-1.891,2.312-1.891
				h4.903V121.877z"/>
			<path fill="#006C83" d="M42.832,118.582h-1.359l-0.518-1.148h1.877v-1.541H43.7v1.541h4.329c0.447,0,1.021,0,1.021-1.051
				c0-0.084-0.027-0.266-0.056-0.519h0.883c0.028,0.379,0.112,0.757,0.112,1.135c0,1.093-0.449,1.583-1.262,1.583H43.7v1.163h-0.868
				V118.582z"/>
			<path fill="#006C83" d="M50.046,112.724c0,1.527-0.673,2.479-2.298,2.438v-1.303c0.406,0,1.359-0.014,1.359-1.177
				c0-0.687-0.35-1.219-1.078-1.219c-1.262,0-1.289,3.53-3.404,3.53c-0.742,0-1.934-0.448-1.934-2.438
				c0-1.261,0.603-2.34,2.004-2.241v1.274c-0.742-0.014-1.135,0.378-1.135,1.106c0,0.616,0.336,1.093,0.952,1.093
				c1.247,0,1.219-3.529,3.376-3.529C49.443,110.259,50.046,111.324,50.046,112.724z"/>
			<path fill="#006C83" d="M42.832,106.362v-1.274l6.094-1.275v-0.027l-6.094-1.569v-1.625l6.094-1.442V99.12l-6.094-1.4v-1.219
				l7.074,1.891v1.541l-6.023,1.513v0.028l6.023,1.583v1.541L42.832,106.362z"/>
			<path fill="#006C83" d="M39.793,95.46v-1.289h1.232v1.289H39.793z M49.906,94.241v1.148h-7.074v-1.148H49.906z"/>
			<path fill="#006C83" d="M42.832,92.125h-1.359l-0.518-1.148h1.877v-1.541H43.7v1.541h4.329c0.447,0,1.021,0,1.021-1.051
				c0-0.084-0.027-0.266-0.056-0.519h0.883c0.028,0.379,0.112,0.757,0.112,1.135c0,1.093-0.449,1.583-1.262,1.583H43.7v1.163h-0.868
				V92.125z"/>
			<path fill="#006C83" d="M49.906,84.517h-4.791c-0.869,0-1.484,0.28-1.484,1.261c0,1.148,0.924,1.442,2.115,1.442h4.16v1.149
				H39.793V87.22h3.949v-0.056c-0.826-0.462-1.051-0.994-1.051-1.919c0-1.205,0.603-1.877,2.199-1.877h5.016V84.517z"/>
		</g>
		<g>
			<path fill="#006C83" d="M65.319,237.491h-4.903c-0.756,0-1.372,0.267-1.372,1.247c0,1.261,1.12,1.442,2.087,1.442h4.188v1.148
				h-5.603c-0.49,0-0.98,0.028-1.471,0.07v-1.219h0.91v-0.056c-0.799-0.448-1.051-0.98-1.051-1.892c0-1.513,0.91-1.891,2.311-1.891
				h4.903V237.491z"/>
			<path fill="#006C83" d="M61.887,234.518c-2.073,0-3.782-0.238-3.782-2.689s1.709-2.689,3.782-2.689
				c3.124,0,3.571,1.19,3.571,2.689S65.011,234.518,61.887,234.518z M61.397,230.344c-1.933,0-2.354,0.602-2.354,1.484
				s0.421,1.485,2.354,1.485c2.297,0,3.124-0.295,3.124-1.485S63.694,230.344,61.397,230.344z"/>
			<path fill="#006C83" d="M65.319,223.477h-4.903c-0.756,0-1.372,0.267-1.372,1.247c0,1.261,1.12,1.442,2.087,1.442h4.188v1.148
				h-5.603c-0.49,0-0.98,0.028-1.471,0.07v-1.219h0.91v-0.056c-0.799-0.448-1.051-0.98-1.051-1.892c0-1.513,0.91-1.891,2.311-1.891
				h4.903V223.477z"/>
			<path fill="#006C83" d="M60.963,220.533v-3.082h1.078v3.082H60.963z"/>
			<path fill="#006C83" d="M58.246,215.432h-1.373c-1.43,0-1.709-1.009-1.709-2.031c0-0.238,0.014-0.378,0.042-0.546h0.826
				c-0.084,1.219,0.435,1.429,1.009,1.429h1.205v-1.429h0.867v1.429h6.206v1.148h-6.206v1.093h-0.867V215.432z"/>
			<path fill="#006C83" d="M64.296,208.105v0.028c0.813,0.35,1.162,0.896,1.162,1.778c0,1.499-0.967,1.934-2.324,1.934
				c-2.144,0-2.242-2.102-2.199-3.712c-0.939-0.028-1.961-0.042-1.961,1.19c0,0.771,0.518,1.177,1.26,1.106v1.247
				c-1.582-0.057-2.129-0.896-2.129-2.396c0-1.821,0.938-2.298,2.129-2.298h3.404c0.561,0,1.135-0.056,1.681-0.14v1.261H64.296z
				 M63.218,210.696c0.686,0,1.303-0.336,1.303-1.106c0-0.7-0.435-1.568-2.719-1.456C61.817,209.225,61.718,210.696,63.218,210.696z
				"/>
			<path fill="#006C83" d="M58.246,204.614h-1.359l-0.518-1.148h1.877v-1.541h0.867v1.541h4.329c0.448,0,1.022,0,1.022-1.051
				c0-0.084-0.027-0.266-0.057-0.519h0.883c0.028,0.379,0.112,0.757,0.112,1.135c0,1.093-0.448,1.583-1.261,1.583h-5.029v1.163
				h-0.867V204.614z"/>
			<path fill="#006C83" d="M64.296,197.202v0.028c0.813,0.35,1.162,0.896,1.162,1.778c0,1.499-0.967,1.934-2.324,1.934
				c-2.144,0-2.242-2.102-2.199-3.712c-0.939-0.028-1.961-0.042-1.961,1.19c0,0.771,0.518,1.177,1.26,1.106v1.247
				c-1.582-0.057-2.129-0.896-2.129-2.396c0-1.821,0.938-2.298,2.129-2.298h3.404c0.561,0,1.135-0.056,1.681-0.14v1.261H64.296z
				 M63.218,199.793c0.686,0,1.303-0.336,1.303-1.106c0-0.7-0.435-1.568-2.719-1.456C61.817,198.322,61.718,199.793,63.218,199.793z
				"/>
			<path fill="#006C83" d="M65.319,192.716v1.148H55.206v-1.148H65.319z"/>
			<path fill="#006C83" d="M65.319,186.27v1.205H55.206v-2.087l8.488-2.55v-0.028l-8.488-2.577v-2.129h10.113v1.288h-8.993v0.028
				l8.993,2.83v1.218l-8.993,2.774v0.027H65.319z"/>
			<path fill="#006C83" d="M65.319,174.359v1.289H55.206v-1.289H65.319z"/>
			<path fill="#006C83" d="M64.296,165.294v0.028c0.813,0.35,1.162,0.896,1.162,1.778c0,1.499-0.967,1.934-2.324,1.934
				c-2.144,0-2.242-2.102-2.199-3.712c-0.939-0.028-1.961-0.042-1.961,1.19c0,0.771,0.518,1.177,1.26,1.106v1.247
				c-1.582-0.057-2.129-0.896-2.129-2.396c0-1.821,0.938-2.298,2.129-2.298h3.404c0.561,0,1.135-0.056,1.681-0.14v1.261H64.296z
				 M63.218,167.884c0.686,0,1.303-0.336,1.303-1.106c0-0.7-0.435-1.568-2.719-1.456C61.817,166.414,61.718,167.884,63.218,167.884z
				"/>
			<path fill="#006C83" d="M65.319,158.09h-4.903c-0.756,0-1.372,0.267-1.372,1.247c0,1.261,1.12,1.442,2.087,1.442h4.188v1.148
				h-5.603c-0.49,0-0.98,0.028-1.471,0.07v-1.219h0.91v-0.056c-0.799-0.448-1.051-0.98-1.051-1.892c0-1.513,0.91-1.891,2.311-1.891
				h4.903V158.09z"/>
			<path fill="#006C83" d="M55.206,151.182v-1.148h10.113v1.148h-0.841v0.028c0.658,0.393,0.98,0.883,0.98,1.625
				c0,1.135-0.447,2.283-3.558,2.283c-1.765,0-3.796-0.056-3.796-2.339c0-0.673,0.294-1.163,0.854-1.556v-0.042H55.206z
				 M59.044,152.513c0,1.232,0.98,1.4,2.872,1.4c1.064,0,2.605,0,2.605-1.442c0-1.289-1.598-1.289-3.026-1.289
				C60.556,151.182,59.044,151.239,59.044,152.513z"/>
			<path fill="#006C83" d="M58.246,144.594h-1.373c-1.43,0-1.709-1.009-1.709-2.031c0-0.238,0.014-0.378,0.042-0.546h0.826
				c-0.084,1.219,0.435,1.429,1.009,1.429h1.205v-1.429h0.867v1.429h6.206v1.148h-6.206v1.093h-0.867V144.594z"/>
			<path fill="#006C83" d="M64.296,137.267v0.028c0.813,0.35,1.162,0.896,1.162,1.778c0,1.499-0.967,1.934-2.324,1.934
				c-2.144,0-2.242-2.102-2.199-3.712c-0.939-0.028-1.961-0.042-1.961,1.19c0,0.771,0.518,1.177,1.26,1.106v1.247
				c-1.582-0.057-2.129-0.896-2.129-2.396c0-1.821,0.938-2.298,2.129-2.298h3.404c0.561,0,1.135-0.056,1.681-0.14v1.261H64.296z
				 M63.218,139.858c0.686,0,1.303-0.336,1.303-1.106c0-0.7-0.435-1.568-2.719-1.456C61.817,138.387,61.718,139.858,63.218,139.858z
				"/>
			<path fill="#006C83" d="M58.246,133.776h-1.359l-0.518-1.148h1.877v-1.541h0.867v1.541h4.329c0.448,0,1.022,0,1.022-1.051
				c0-0.084-0.027-0.266-0.057-0.519h0.883c0.028,0.379,0.112,0.757,0.112,1.135c0,1.093-0.448,1.583-1.261,1.583h-5.029v1.163
				h-0.867V133.776z"/>
			<path fill="#006C83" d="M64.296,126.365v0.028c0.813,0.35,1.162,0.896,1.162,1.778c0,1.499-0.967,1.934-2.324,1.934
				c-2.144,0-2.242-2.102-2.199-3.712c-0.939-0.028-1.961-0.042-1.961,1.19c0,0.771,0.518,1.177,1.26,1.106v1.247
				c-1.582-0.057-2.129-0.896-2.129-2.396c0-1.821,0.938-2.298,2.129-2.298h3.404c0.561,0,1.135-0.056,1.681-0.14v1.261H64.296z
				 M63.218,128.956c0.686,0,1.303-0.336,1.303-1.106c0-0.7-0.435-1.568-2.719-1.456C61.817,127.485,61.718,128.956,63.218,128.956z
				"/>
			<path fill="#006C83" d="M65.319,121.88v1.148H55.206v-1.148H65.319z"/>
			<path fill="#006C83" d="M57.993,112.198c-0.574-0.015-1.148,0.028-1.471,0.294c-0.322,0.267-0.435,0.868-0.435,1.135
				c0,1.064,0.645,1.484,0.785,1.526c0.111,0.042,0.363,0.295,2.102,0.295h2.703c2.479,0,2.773-0.813,2.773-1.808
				c0-0.392-0.141-1.583-2.115-1.597v-1.331c3.193-0.056,3.193,2.199,3.193,2.858c0,1.26-0.084,3.193-4.006,3.193h-2.857
				c-2.857,0-3.67-1.261-3.67-3.25c0-2.003,1.036-2.773,2.997-2.647V112.198z"/>
			<path fill="#006C83" d="M65.319,108.776H55.206v-1.289h4.37v-3.544h-4.37v-1.288h10.113v1.288h-4.622v3.544h4.622V108.776z"/>
			<path fill="#006C83" d="M55.206,100.27v-3.109c0-1.288,0.462-2.213,1.54-2.718c0.855-0.406,2.872-0.448,3.194-0.448
				c2.157,0,3.403,0.196,4.076,0.617c0.868,0.546,1.303,1.568,1.303,3.333v2.325H55.206z M64.199,98.982v-1.219
				c0-1.793-0.673-2.451-3.026-2.451h-2.045c-2.045,0-2.802,0.63-2.802,1.975v1.695H64.199z"/>
			<path fill="#006C83" d="M66.972,87.672c-1.976,0.616-3.965,1.387-6.052,1.387c-2.157,0-4.16-0.771-6.191-1.401v-0.854
				c2.046,0.519,4.132,0.938,6.247,0.938c2.031,0,4.035-0.42,5.996-0.882V87.672z"/>
			<path fill="#006C83" d="M65.824,82.39v0.882l-11.123-4.776v-0.91L65.824,82.39z M57.699,81.297c1.345,0,2.647,0.098,2.647,1.793
				s-1.303,1.793-2.647,1.793c-1.316,0-2.703-0.098-2.703-1.793S56.382,81.297,57.699,81.297z M57.671,83.903
				c1.273,0,1.891,0,1.891-0.813s-0.617-0.813-1.891-0.813c-1.275,0-1.892,0-1.892,0.813S56.396,83.903,57.671,83.903z
				 M62.881,75.961c1.345,0,2.647,0.098,2.647,1.793s-1.303,1.793-2.647,1.793c-1.316,0-2.703-0.098-2.703-1.793
				S61.565,75.961,62.881,75.961z M62.853,78.566c1.275,0,1.892,0,1.892-0.813s-0.616-0.813-1.892-0.813
				c-1.274,0-1.891,0-1.891,0.813S61.579,78.566,62.853,78.566z"/>
			<path fill="#006C83" d="M66.972,73.967c-1.961-0.463-3.965-0.883-5.996-0.883c-2.115,0-4.201,0.42-6.247,0.938v-0.854
				c2.031-0.63,4.034-1.4,6.191-1.4c2.087,0,4.076,0.771,6.052,1.387V73.967z"/>
		</g>
		<g>
			<path fill="#006C83" d="M96.953,282.01c2.899,0,3.25,3.11,3.25,4.931c0,2.298-0.463,3.586-1.346,4.413
				c-0.686,0.644-1.498,0.742-1.933,0.742c-1.288,0-2.171-0.757-2.591-1.611c-0.322-0.645-0.631-1.583-0.631-3.319
				C93.703,285.722,93.871,282.01,96.953,282.01z M96.939,290.933c1.625,0,1.904-2.129,1.904-3.866c0-2.325-0.406-3.936-1.877-3.936
				c-1.695,0-1.919,2.227-1.919,3.964C95.047,289.253,95.468,290.933,96.939,290.933z"/>
		</g>
		<g>
			<path fill="#006C83" d="M127.852,282.01c2.899,0,3.249,3.11,3.249,4.931c0,2.298-0.461,3.586-1.344,4.413
				c-0.687,0.644-1.499,0.742-1.934,0.742c-1.289,0-2.171-0.757-2.592-1.611c-0.322-0.645-0.63-1.583-0.63-3.319
				C124.602,285.722,124.77,282.01,127.852,282.01z M127.838,290.933c1.625,0,1.906-2.129,1.906-3.866
				c0-2.325-0.406-3.936-1.878-3.936c-1.694,0-1.919,2.227-1.919,3.964C125.947,289.253,126.367,290.933,127.838,290.933z"/>
			<path fill="#006C83" d="M132.912,290.219h1.555v1.681h-1.555V290.219z"/>
			<path fill="#006C83" d="M137.915,289.603c0.028,0.98,0.882,1.372,1.61,1.372c1.695,0,1.92-1.597,1.92-2.227
				c0-1.317-0.715-2.088-1.836-2.088c-0.56,0-1.008,0.211-1.303,0.505c-0.293,0.294-0.377,0.588-0.447,0.813h-1.275l0.252-5.771
				h5.449v1.135h-4.244l-0.182,3.138c0.294-0.294,0.91-0.896,2.045-0.896c1.947,0,2.899,1.526,2.899,3.193
				c0,1.905-1.345,3.349-3.46,3.349c-1.568,0-2.815-0.869-2.886-2.521H137.915z"/>
		</g>
		<g>
			<path fill="#006C83" d="M170.369,283.734c-0.603,0.504-1.569,1.078-2.256,1.4v-1.4c0.91-0.477,1.807-1.065,2.354-1.527h1.246
				v9.693h-1.344V283.734z"/>
		</g>
		<g>
			<path fill="#006C83" d="M204.87,283.734c-0.603,0.504-1.569,1.078-2.255,1.4v-1.4c0.91-0.477,1.807-1.065,2.354-1.527h1.246
				v9.693h-1.345V283.734z"/>
			<path fill="#006C83" d="M208.599,290.219h1.555v1.681h-1.555V290.219z"/>
			<path fill="#006C83" d="M213.601,289.603c0.027,0.98,0.883,1.372,1.611,1.372c1.694,0,1.918-1.597,1.918-2.227
				c0-1.317-0.714-2.088-1.834-2.088c-0.561,0-1.009,0.211-1.303,0.505c-0.295,0.294-0.379,0.588-0.449,0.813h-1.273l0.252-5.771
				h5.448v1.135h-4.244l-0.183,3.138c0.295-0.294,0.911-0.896,2.046-0.896c1.946,0,2.899,1.526,2.899,3.193
				c0,1.905-1.345,3.349-3.46,3.349c-1.569,0-2.815-0.869-2.886-2.521H213.601z"/>
		</g>
		<g>
			<path fill="#006C83" d="M245.636,290.626l2.536-2.493c0.532-0.519,1.064-1.079,1.499-1.667c0.561-0.771,0.714-1.205,0.714-1.724
				c0-0.476-0.168-1.582-1.555-1.582c-1.555,0-1.583,1.33-1.583,1.694h-1.471c0.014-0.477,0.057-1.4,0.896-2.129
				c0.672-0.574,1.484-0.7,2.102-0.7c1.484,0,2.998,0.756,2.998,2.829c0,0.616-0.043,1.093-1.094,2.424
				c-0.279,0.35-1.512,1.624-1.793,1.904l-1.694,1.611h4.608v1.106h-6.164V290.626z"/>
		</g>
		<g>
			<path fill="#006C83" d="M281.372,290.626l2.536-2.493c0.531-0.519,1.064-1.079,1.498-1.667c0.561-0.771,0.715-1.205,0.715-1.724
				c0-0.476-0.168-1.582-1.555-1.582c-1.555,0-1.583,1.33-1.583,1.694h-1.472c0.015-0.477,0.057-1.4,0.896-2.129
				c0.673-0.574,1.485-0.7,2.102-0.7c1.484,0,2.998,0.756,2.998,2.829c0,0.616-0.042,1.093-1.093,2.424
				c-0.28,0.35-1.513,1.624-1.793,1.904l-1.694,1.611h4.607v1.106h-6.163V290.626z"/>
			<path fill="#006C83" d="M289.556,290.219h1.555v1.681h-1.555V290.219z"/>
			<path fill="#006C83" d="M294.558,289.603c0.027,0.98,0.883,1.372,1.611,1.372c1.694,0,1.918-1.597,1.918-2.227
				c0-1.317-0.714-2.088-1.834-2.088c-0.561,0-1.009,0.211-1.303,0.505c-0.295,0.294-0.379,0.588-0.449,0.813h-1.273l0.252-5.771
				h5.448v1.135h-4.244l-0.183,3.138c0.295-0.294,0.911-0.896,2.046-0.896c1.946,0,2.899,1.526,2.899,3.193
				c0,1.905-1.345,3.349-3.46,3.349c-1.569,0-2.815-0.869-2.886-2.521H294.558z"/>
		</g>
		<g>
			<path fill="#006C83" d="M326.201,289.407c-0.015,0.925,0.588,1.583,1.778,1.583c1.358,0,1.933-0.869,1.933-1.724
				c0-1.022-0.686-1.555-1.4-1.709c-0.504-0.098-0.854-0.084-1.345-0.069v-1.135c0.967,0.084,2.592-0.112,2.592-1.681
				c0-1.093-0.743-1.527-1.709-1.527c-0.729,0-1.64,0.322-1.765,1.527h-1.415c0.084-2.409,2.353-2.647,3.138-2.647
				c2.115,0,3.166,1.274,3.166,2.619c0,0.799-0.435,1.947-1.934,2.283c2.073,0.294,2.073,2.157,2.073,2.354
				c0,1.358-1.106,2.857-3.362,2.857c-1.021,0-2.045-0.294-2.661-1.009c-0.546-0.616-0.56-1.316-0.574-1.723H326.201z"/>
		</g>
		<g>
			<path fill="#006C83" d="M349.365,289.407c-0.014,0.925,0.589,1.583,1.779,1.583c1.359,0,1.934-0.869,1.934-1.724
				c0-1.022-0.687-1.555-1.401-1.709c-0.504-0.098-0.854-0.084-1.345-0.069v-1.135c0.967,0.084,2.592-0.112,2.592-1.681
				c0-1.093-0.742-1.527-1.709-1.527c-0.729,0-1.639,0.322-1.766,1.527h-1.414c0.084-2.409,2.354-2.647,3.138-2.647
				c2.115,0,3.165,1.274,3.165,2.619c0,0.799-0.434,1.947-1.933,2.283c2.073,0.294,2.073,2.157,2.073,2.354
				c0,1.358-1.106,2.857-3.361,2.857c-1.023,0-2.045-0.294-2.662-1.009c-0.546-0.616-0.561-1.316-0.574-1.723H349.365z"/>
			<path fill="#006C83" d="M356.275,290.219h1.555v1.681h-1.555V290.219z"/>
			<path fill="#006C83" d="M361.052,289.407c-0.014,0.925,0.589,1.583,1.779,1.583c1.359,0,1.934-0.869,1.934-1.724
				c0-1.022-0.687-1.555-1.401-1.709c-0.504-0.098-0.854-0.084-1.345-0.069v-1.135c0.967,0.084,2.592-0.112,2.592-1.681
				c0-1.093-0.742-1.527-1.709-1.527c-0.729,0-1.639,0.322-1.766,1.527h-1.414c0.084-2.409,2.354-2.647,3.138-2.647
				c2.115,0,3.165,1.274,3.165,2.619c0,0.799-0.434,1.947-1.933,2.283c2.073,0.294,2.073,2.157,2.073,2.354
				c0,1.358-1.106,2.857-3.361,2.857c-1.023,0-2.045-0.294-2.662-1.009c-0.546-0.616-0.561-1.316-0.574-1.723H361.052z"/>
		</g>
		<g>
			<path fill="#00435B" d="M77.584,38.651c-0.014,0.925,0.589,1.583,1.779,1.583c1.359,0,1.934-0.869,1.934-1.724
				c0-1.022-0.688-1.555-1.401-1.709c-0.504-0.098-0.854-0.084-1.345-0.069v-1.135c0.967,0.084,2.592-0.112,2.592-1.681
				c0-1.093-0.742-1.527-1.709-1.527c-0.729,0-1.639,0.322-1.766,1.527h-1.414c0.084-2.409,2.354-2.647,3.138-2.647
				c2.114,0,3.165,1.274,3.165,2.619c0,0.799-0.434,1.947-1.933,2.283c2.073,0.294,2.073,2.157,2.073,2.354
				c0,1.358-1.106,2.857-3.361,2.857c-1.023,0-2.045-0.294-2.662-1.009c-0.547-0.616-0.561-1.316-0.574-1.723H77.584z"/>
		</g>
		<g>
			<path fill="#006C83" d="M83.158,118.66l2.536-2.493c0.532-0.519,1.064-1.079,1.499-1.667c0.561-0.771,0.714-1.205,0.714-1.724
				c0-0.476-0.168-1.583-1.555-1.583c-1.555,0-1.583,1.331-1.583,1.695h-1.471c0.014-0.477,0.057-1.4,0.896-2.129
				c0.672-0.574,1.484-0.7,2.102-0.7c1.484,0,2.998,0.756,2.998,2.829c0,0.616-0.043,1.093-1.094,2.424
				c-0.279,0.35-1.512,1.624-1.793,1.904l-1.694,1.611h4.608v1.106h-6.164V118.66z"/>
		</g>
		<g>
			<path fill="#006C83" d="M86.213,192.505c-0.603,0.504-1.569,1.078-2.256,1.4v-1.4c0.91-0.477,1.807-1.065,2.354-1.527h1.246
				v9.693h-1.344V192.505z"/>
		</g>
		<g>
			<path fill="#006C83" d="M86.283,271.521c2.898,0,3.249,3.11,3.249,4.931c0,2.298-0.462,3.586-1.345,4.413
				c-0.686,0.644-1.498,0.742-1.934,0.742c-1.288,0-2.17-0.757-2.591-1.611c-0.322-0.645-0.63-1.583-0.63-3.319
				C83.033,275.233,83.201,271.521,86.283,271.521z M86.268,280.444c1.625,0,1.905-2.129,1.905-3.866
				c0-2.325-0.406-3.936-1.877-3.936c-1.695,0-1.92,2.227-1.92,3.964C84.377,278.763,84.797,280.444,86.268,280.444z"/>
		</g>
		<g>
			<path fill="#006C83" d="M217.793,302.021h1.303l-2.76,6.261v3.853h-1.289v-3.853l-2.718-6.261h1.442l1.976,4.889L217.793,302.021
				z"/>
			<path fill="#006C83" d="M220.372,308.968c0,1.976,0.532,2.367,1.429,2.367c0.785,0,1.191-0.63,1.232-1.345h1.262
				c-0.015,1.569-0.98,2.283-2.466,2.283c-1.499,0-2.689-0.448-2.689-3.571c0-2.073,0.238-3.782,2.689-3.782
				c2.017,0,2.521,1.106,2.521,3.446v0.602H220.372z M223.131,308.1c0-2.06-0.574-2.312-1.415-2.312
				c-0.729,0-1.33,0.351-1.345,2.312H223.131z"/>
			<path fill="#006C83" d="M229.9,311.112h-0.027c-0.351,0.813-0.896,1.162-1.779,1.162c-1.499,0-1.934-0.966-1.934-2.325
				c0-2.143,2.102-2.241,3.713-2.199c0.027-0.938,0.041-1.961-1.191-1.961c-0.77,0-1.176,0.519-1.106,1.261h-1.247
				c0.057-1.583,0.896-2.129,2.396-2.129c1.821,0,2.298,0.938,2.298,2.129v3.404c0,0.56,0.056,1.135,0.14,1.681H229.9V311.112z
				 M227.308,310.033c0,0.687,0.337,1.303,1.107,1.303c0.7,0,1.568-0.434,1.457-2.717
				C228.779,308.632,227.308,308.535,227.308,310.033z"/>
			<path fill="#006C83" d="M234.456,306.126h0.028c0.477-1.079,1.064-1.205,2.186-1.205v1.19c-0.099-0.014-0.211-0.027-0.309-0.042
				c-0.098-0.014-0.196-0.028-0.309-0.028c-1.274,0-1.597,0.967-1.597,1.92v4.174h-1.148v-7.074h1.148V306.126z"/>
			<path fill="#006C83" d="M240.018,312.274c-1.526,0-2.479-0.672-2.438-2.297h1.303c0,0.406,0.015,1.358,1.177,1.358
				c0.687,0,1.219-0.35,1.219-1.078c0-1.261-3.529-1.289-3.529-3.404c0-0.742,0.447-1.933,2.437-1.933
				c1.261,0,2.339,0.603,2.241,2.003h-1.274c0.014-0.742-0.378-1.135-1.106-1.135c-0.617,0-1.093,0.337-1.093,0.953
				c0,1.246,3.53,1.219,3.53,3.375C242.484,311.672,241.42,312.274,240.018,312.274z"/>
		</g>
		<g>
			<path fill="#006C83" d="M210.373,226.184h0.976v6.74h3.229v0.818h-4.205V226.184z"/>
			<path fill="#006C83" d="M216.64,226.184v7.559h-0.977v-7.559H216.64z"/>
			<path fill="#006C83" d="M218.343,226.273c0.471-0.078,1.088-0.146,1.873-0.146c0.965,0,1.671,0.225,2.119,0.628
				c0.415,0.359,0.662,0.908,0.662,1.582c0,0.684-0.202,1.222-0.584,1.614c-0.516,0.55-1.356,0.83-2.31,0.83
				c-0.292,0-0.562-0.011-0.785-0.067v3.028h-0.976V226.273z M219.319,229.919c0.213,0.056,0.482,0.078,0.808,0.078
				c1.178,0,1.895-0.571,1.895-1.615c0-0.998-0.706-1.479-1.783-1.479c-0.426,0-0.751,0.033-0.919,0.078V229.919z"/>
			<path fill="#006C83" d="M225.283,226.184v7.559h-0.975v-7.559H225.283z"/>
			<path fill="#006C83" d="M228.422,227.013h-2.3v-0.829h5.597v0.829h-2.31v6.729h-0.987V227.013z"/>
			<path fill="#006C83" d="M238.582,229.884c0,2.603-1.582,3.981-3.512,3.981c-1.996,0-3.397-1.548-3.397-3.835
				c0-2.4,1.491-3.971,3.511-3.971C237.246,226.06,238.582,227.642,238.582,229.884z M232.715,230.008
				c0,1.614,0.875,3.062,2.411,3.062c1.548,0,2.423-1.425,2.423-3.141c0-1.503-0.785-3.072-2.411-3.072
				C233.523,226.857,232.715,228.348,232.715,230.008z"/>
			<path fill="#006C83" d="M239.845,226.285c0.494-0.101,1.2-0.157,1.873-0.157c1.043,0,1.717,0.19,2.188,0.617
				c0.381,0.336,0.594,0.853,0.594,1.436c0,0.998-0.628,1.659-1.424,1.929v0.034c0.583,0.201,0.931,0.739,1.11,1.524
				c0.247,1.055,0.426,1.783,0.583,2.075h-1.01c-0.123-0.213-0.291-0.863-0.504-1.806c-0.225-1.043-0.629-1.436-1.515-1.469h-0.919
				v3.274h-0.977V226.285z M240.822,229.728h0.998c1.043,0,1.704-0.572,1.704-1.436c0-0.977-0.706-1.402-1.738-1.413
				c-0.471,0-0.808,0.044-0.964,0.089V229.728z"/>
		</g>
		<g>
			<path fill="#006C83" d="M258.861,226.609c0,0.607-0.478,1.084-1.098,1.084c-0.614,0-1.104-0.477-1.104-1.084
				c0-0.595,0.489-1.071,1.104-1.071C258.383,225.538,258.861,226.014,258.861,226.609z M256.933,226.609
				c0,0.477,0.354,0.855,0.836,0.855c0.471,0,0.816-0.379,0.816-0.85c0-0.477-0.346-0.861-0.822-0.861
				S256.933,226.138,256.933,226.609z M257.593,227.171h-0.248v-1.071c0.098-0.02,0.234-0.032,0.411-0.032
				c0.202,0,0.294,0.032,0.372,0.078c0.059,0.046,0.105,0.131,0.105,0.235c0,0.117-0.092,0.209-0.223,0.248v0.013
				c0.104,0.039,0.163,0.118,0.195,0.262c0.033,0.163,0.053,0.229,0.079,0.268h-0.269c-0.032-0.039-0.052-0.138-0.084-0.262
				c-0.02-0.117-0.085-0.169-0.223-0.169h-0.117V227.171z M257.599,226.563h0.118c0.138,0,0.248-0.046,0.248-0.157
				c0-0.098-0.071-0.163-0.229-0.163c-0.065,0-0.11,0.007-0.138,0.014V226.563z"/>
		</g>
		<g>
			<path fill="#006C83" d="M267.775,227.205c-0.482,0.403-1.256,0.863-1.805,1.121v-1.121c0.729-0.382,1.446-0.853,1.883-1.223
				h0.999v7.761h-1.077V227.205z"/>
			<path fill="#006C83" d="M273.448,225.825c2.321,0,2.603,2.49,2.603,3.948c0,1.839-0.371,2.871-1.077,3.532
				c-0.55,0.516-1.2,0.595-1.548,0.595c-1.031,0-1.738-0.605-2.074-1.29c-0.258-0.516-0.505-1.268-0.505-2.658
				C270.846,228.797,270.98,225.825,273.448,225.825z M273.437,232.969c1.301,0,1.525-1.705,1.525-3.096
				c0-1.862-0.326-3.151-1.504-3.151c-1.356,0-1.535,1.783-1.535,3.174C271.923,231.623,272.259,232.969,273.437,232.969z"/>
			<path fill="#006C83" d="M280.677,228.864l-0.021-0.751h1.064v0.818c0.539-0.886,1.302-0.964,1.783-0.964
				c1.246,0,1.639,0.639,1.84,1.054c0.191-0.313,0.65-1.054,1.896-1.054c0.808,0,2.063,0.336,2.063,1.996v3.779h-1.065v-3.611
				c0-0.493-0.09-0.706-0.19-0.853c-0.18-0.258-0.539-0.493-1.076-0.493c-0.685,0-1.055,0.393-1.201,0.595
				c-0.246,0.348-0.246,0.964-0.246,1.211v3.151h-1.065v-3.724c0-0.695-0.403-1.233-1.233-1.233c-0.719,0-1.111,0.448-1.234,0.617
				c-0.235,0.325-0.246,0.784-0.246,1.144v3.196h-1.066V228.864z"/>
			<path fill="#006C83" d="M292.281,234.18c0.045,0.628,0.314,1.099,1.313,1.099c1.47,0,1.492-1.065,1.492-2.591
				c-0.449,0.932-1.514,0.954-1.851,0.954c-0.517,0-1.257-0.112-1.728-0.695c-0.482-0.572-0.639-1.324-0.639-2.075
				c0-1.906,1.121-2.838,2.5-2.838c1.133,0,1.549,0.562,1.772,0.853l0.011-0.773h1.021l-0.022,1.021l-0.011,3.521
				c0,1.357-0.045,1.906-0.27,2.333c-0.471,0.897-1.57,1.009-2.344,1.009c-2.255,0-2.322-1.054-2.367-1.816H292.281z
				 M294.738,232.297c0.225-0.292,0.381-0.595,0.381-1.615c0-0.707-0.156-1.11-0.438-1.402c-0.279-0.303-0.729-0.493-1.211-0.493
				c-1.334,0-1.514,1.346-1.514,2.063c0,0.863,0.258,2.008,1.547,2.008C294.121,232.857,294.48,232.632,294.738,232.297z"/>
		</g>
		<g>
			<path fill="#006C83" d="M211.269,245.375c-0.492-1.211-1.084-2.724-1.084-4.054c0-0.72,0.164-1.43,0.373-2.122
				c0.256-0.82,0.492-1.403,0.646-1.795h0.602c-0.146,0.446-0.346,1.066-0.537,1.932c-0.191,0.838-0.255,1.402-0.255,1.968
				c0,1.293,0.319,2.341,0.847,4.071H211.269z"/>
			<path fill="#006C83" d="M213.382,240.21l-0.01-0.528h0.857l0.008,0.738c0.102-0.191,0.429-0.829,1.467-0.829
				c0.41,0,1.658,0.155,1.658,1.558v3.106h-0.874v-2.906c0-0.3-0.036-0.573-0.246-0.783c-0.219-0.209-0.52-0.31-0.812-0.31
				c-0.619,0-1.193,0.446-1.193,1.366v2.633h-0.855V240.21z"/>
			<path fill="#006C83" d="M218.456,240.693h4.646v0.701h-4.646V240.693z M218.456,242.533h4.646v0.711h-4.646V242.533z"/>
			<path fill="#006C83" d="M224.896,242.76c0.018,0.638,0.573,0.893,1.047,0.893c1.103,0,1.248-1.038,1.248-1.448
				c0-0.856-0.465-1.357-1.193-1.357c-0.364,0-0.656,0.137-0.848,0.328c-0.19,0.191-0.245,0.383-0.291,0.528h-0.828l0.163-3.753
				h3.544v0.738h-2.76l-0.119,2.04c0.191-0.191,0.592-0.583,1.33-0.583c1.266,0,1.886,0.993,1.886,2.077
				c0,1.238-0.874,2.177-2.25,2.177c-1.021,0-1.831-0.564-1.876-1.64H224.896z"/>
			<path fill="#006C83" d="M230.588,243.162l-1.021,2.24h-0.619l0.583-2.24H230.588z"/>
			<path fill="#006C83" d="M233.504,238.944c-0.392,0.328-1.021,0.701-1.467,0.911v-0.911c0.592-0.31,1.176-0.692,1.53-0.993h0.812
				v6.304h-0.875V238.944z"/>
			<path fill="#006C83" d="M239.671,239.445c-0.009-0.738-0.556-0.938-0.956-0.938c-0.911,0-1.313,0.783-1.395,2.46
				c0.201-0.292,0.547-0.802,1.467-0.802c1.029,0,1.904,0.683,1.904,2.022c0,1.466-1.048,2.204-2.132,2.204
				c-0.61,0-1.221-0.246-1.558-0.684c-0.465-0.619-0.574-1.521-0.574-2.322c0-1.376,0.338-3.563,2.332-3.563
				c0.829,0,1.294,0.364,1.512,0.602c0.319,0.373,0.328,0.774,0.338,1.021H239.671z M239.816,242.268
				c0-0.446-0.127-1.402-1.175-1.402c-0.847,0-1.257,0.692-1.257,1.412c0,0.819,0.51,1.421,1.211,1.421
				C239.16,243.699,239.816,243.298,239.816,242.268z"/>
			<path fill="#006C83" d="M241.492,239.527c0-0.565,0.383-1.722,2.041-1.722c1.33,0,2.095,0.72,2.095,1.685
				c0,0.62-0.4,1.267-1.284,1.431c0.373,0.101,1.375,0.373,1.375,1.594c0,0.866-0.601,1.85-2.168,1.85
				c-0.537,0-1.175-0.109-1.631-0.528c-0.336-0.31-0.555-0.783-0.555-1.267c0-0.419,0.164-0.856,0.482-1.156
				c0.301-0.301,0.629-0.392,0.911-0.483C241.92,240.748,241.492,240.155,241.492,239.527z M243.55,243.644
				c1.012,0,1.258-0.711,1.258-1.185c0-0.701-0.52-1.156-1.239-1.156c-0.774,0-1.284,0.519-1.284,1.184
				C242.285,242.979,242.613,243.644,243.55,243.644z M243.569,238.479c-0.674,0-1.193,0.4-1.193,1.029
				c0,0.61,0.511,1.021,1.166,1.021c0.692,0,1.212-0.401,1.212-1.021C244.754,238.934,244.326,238.479,243.569,238.479z"/>
			<path fill="#006C83" d="M247.377,237.404c0.492,1.212,1.084,2.715,1.084,4.045c0,0.72-0.164,1.43-0.373,2.122
				c-0.256,0.82-0.492,1.412-0.647,1.804h-0.601c0.145-0.455,0.346-1.074,0.537-1.94c0.191-0.828,0.255-1.402,0.255-1.967
				c0-1.285-0.319-2.332-0.847-4.063H247.377z"/>
		</g>
		<g>
			<path fill="#6A7370" d="M250.619,79.862c0-0.247-0.012-0.382-0.034-0.92h1.065l0.022,0.931c0.527-0.886,1.458-1.021,1.918-1.021
				c1.212,0,2.366,0.83,2.366,2.916c0,2.097-1.223,3.017-2.568,3.017c-0.818,0-1.424-0.348-1.727-0.841v2.792h-1.043V79.862z
				 M253.209,84.011c0.27,0,0.83-0.057,1.189-0.55c0.404-0.55,0.46-1.357,0.46-1.761c0-1.01-0.304-2.063-1.548-2.063
				c-1.682,0-1.682,1.783-1.682,2.288C251.629,82.609,251.728,84.011,253.209,84.011z"/>
			<path fill="#6A7370" d="M257.524,76.486h1.054v8.086h-1.054V76.486z"/>
			<path fill="#6A7370" d="M264.05,84.572c-0.078-0.28-0.102-0.55-0.102-0.841c-0.504,0.931-1.267,1.021-1.738,1.021
				c-1.289,0-1.984-0.729-1.984-1.66c0-0.448,0.156-1.166,0.986-1.648c0.605-0.337,1.503-0.37,1.951-0.37
				c0.27,0,0.438,0.011,0.764,0.033c0-0.695,0-0.998-0.202-1.244c-0.214-0.281-0.673-0.37-0.976-0.37
				c-1.066,0-1.122,0.729-1.133,0.953h-1.055c0.033-0.292,0.067-0.685,0.393-1.065c0.426-0.472,1.223-0.605,1.816-0.605
				c0.819,0,1.694,0.258,1.997,0.829c0.179,0.337,0.19,0.606,0.19,0.864l-0.045,2.691c0,0.09,0.012,0.841,0.09,1.413H264.05z
				 M263.322,81.801c-0.427,0-2.031,0-2.031,1.145c0,0.358,0.225,0.976,1.167,0.976c0.538,0,0.942-0.213,1.2-0.605
				c0.235-0.382,0.246-0.695,0.27-1.48C263.736,81.813,263.58,81.801,263.322,81.801z"/>
			<path fill="#6A7370" d="M270.059,80.748c-0.022-0.258-0.101-1.178-1.122-1.178c-1.457,0-1.457,1.693-1.457,2.12
				c0,1.154,0.28,2.231,1.402,2.231c0.896,0,1.199-0.673,1.222-1.223h1.065c-0.067,1.1-0.886,2.019-2.276,2.019
				c-0.382,0-1.257-0.078-1.851-0.729c-0.336-0.393-0.673-0.987-0.673-2.153c0-2.344,1.436-3.039,2.557-3.039
				c0.37,0,1.212,0.078,1.728,0.695c0.415,0.481,0.448,0.941,0.471,1.256H270.059z"/>
			<path fill="#6A7370" d="M273.096,81.948c-0.022,1.166,0.46,2.029,1.615,2.029c0.685,0,1.233-0.358,1.323-1.166h1.055
				c-0.034,0.28-0.078,0.74-0.482,1.178c-0.247,0.28-0.808,0.751-1.94,0.751c-1.772,0-2.613-1.099-2.613-2.882
				c0-1.11,0.225-2.03,1.11-2.647c0.539-0.381,1.211-0.414,1.537-0.414c2.523,0,2.467,2.231,2.444,3.151H273.096z M276.068,81.208
				c0.012-0.539-0.09-1.66-1.391-1.66c-0.684,0-1.514,0.415-1.536,1.66H276.068z"/>
			<path fill="#6A7370" d="M279.744,79.76c0.146-0.258,0.562-0.964,1.84-0.964c0.561,0,1.268,0.134,1.783,0.718
				c0.28,0.325,0.662,0.886,0.662,2.119c0,1.088-0.258,1.683-0.539,2.053c-0.448,0.639-1.199,0.964-1.974,0.964
				c-0.269,0-0.773-0.033-1.256-0.358c-0.313-0.213-0.438-0.404-0.55-0.572l-0.022,0.853h-1.021l0.022-1.01v-7.088h1.054V79.76z
				 M281.337,79.514c-1.615,0-1.615,1.884-1.615,2.242c0,0.37,0,2.131,1.57,2.131c1.301,0,1.625-1.267,1.625-2.187
				C282.918,81.14,282.806,79.514,281.337,79.514z"/>
			<path fill="#6A7370" d="M287.985,78.797c2.255,0,2.759,1.771,2.759,2.949c0,1.648-0.931,3.017-2.848,3.017
				c-1.862,0-2.771-1.289-2.771-2.938C285.125,80.433,285.776,78.797,287.985,78.797z M287.918,83.977
				c0.797,0,1.705-0.571,1.705-2.266c0-1.401-0.65-2.142-1.638-2.142c-0.673,0-1.761,0.426-1.761,2.187
				C286.224,82.912,286.718,83.977,287.918,83.977z"/>
		</g>
		<g>
			<path fill="#6A7370" d="M251.414,96.202c-0.491-1.211-1.084-2.724-1.084-4.054c0-0.72,0.164-1.43,0.374-2.122
				c0.255-0.82,0.491-1.403,0.646-1.795h0.602c-0.146,0.446-0.347,1.066-0.538,1.932c-0.191,0.838-0.254,1.402-0.254,1.968
				c0,1.293,0.318,2.341,0.847,4.071H251.414z"/>
			<path fill="#6A7370" d="M253.527,91.037l-0.009-0.528h0.856l0.009,0.738c0.101-0.191,0.429-0.829,1.467-0.829
				c0.41,0,1.658,0.155,1.658,1.558v3.106h-0.875v-2.906c0-0.301-0.036-0.573-0.245-0.783c-0.219-0.209-0.52-0.31-0.812-0.31
				c-0.619,0-1.193,0.446-1.193,1.366v2.633h-0.856V91.037z"/>
			<path fill="#6A7370" d="M258.601,91.52h4.646v0.701h-4.646V91.52z M258.601,93.36h4.646v0.711h-4.646V93.36z"/>
			<path fill="#6A7370" d="M265.041,93.588c0.018,0.638,0.574,0.893,1.047,0.893c1.104,0,1.248-1.038,1.248-1.448
				c0-0.856-0.464-1.357-1.193-1.357c-0.363,0-0.655,0.137-0.847,0.328c-0.19,0.191-0.245,0.383-0.292,0.528h-0.828l0.164-3.753
				h3.543v0.738h-2.76l-0.119,2.04c0.191-0.191,0.593-0.583,1.33-0.583c1.267,0,1.887,0.993,1.887,2.077
				c0,1.238-0.875,2.177-2.25,2.177c-1.021,0-1.832-0.564-1.877-1.64H265.041z"/>
			<path fill="#6A7370" d="M270.734,93.989l-1.021,2.24h-0.62l0.584-2.24H270.734z"/>
			<path fill="#6A7370" d="M273.648,89.771c-0.391,0.328-1.02,0.701-1.467,0.911v-0.911c0.593-0.31,1.176-0.692,1.531-0.993h0.811
				v6.304h-0.875V89.771z"/>
			<path fill="#6A7370" d="M277.42,93.461c-0.009,0.601,0.383,1.029,1.157,1.029c0.884,0,1.257-0.565,1.257-1.121
				c0-0.665-0.446-1.011-0.91-1.111c-0.328-0.063-0.557-0.055-0.875-0.045v-0.738c0.629,0.055,1.686-0.073,1.686-1.093
				c0-0.711-0.483-0.993-1.111-0.993c-0.475,0-1.066,0.209-1.148,0.993h-0.92c0.055-1.567,1.53-1.722,2.041-1.722
				c1.375,0,2.059,0.829,2.059,1.703c0,0.52-0.283,1.267-1.258,1.485c1.349,0.19,1.349,1.402,1.349,1.53
				c0,0.883-0.72,1.858-2.187,1.858c-0.664,0-1.33-0.191-1.73-0.656c-0.355-0.4-0.364-0.856-0.373-1.12H277.42z"/>
			<path fill="#6A7370" d="M281.492,88.778h4.162v0.765l-2.313,5.539h-1.029l2.423-5.548h-3.242V88.778z"/>
			<path fill="#6A7370" d="M287.521,88.231c0.492,1.212,1.084,2.715,1.084,4.045c0,0.72-0.164,1.43-0.373,2.122
				c-0.256,0.82-0.492,1.412-0.646,1.804h-0.602c0.146-0.455,0.346-1.074,0.537-1.94c0.191-0.828,0.256-1.402,0.256-1.967
				c0-1.285-0.319-2.332-0.848-4.063H287.521z"/>
		</g>
		<path fill="#5CA5B9" d="M109.027,134.225c-2.359,0-2.801-1.388-2.7-2.965h1.905c0,0.87,0.038,1.602,1.085,1.602
			c0.643,0,0.959-0.416,0.959-1.035c0-1.64-3.835-1.741-3.835-4.453c0-1.426,0.681-2.561,3.003-2.561
			c1.854,0,2.775,0.833,2.649,2.738h-1.854c0-0.681-0.114-1.375-0.883-1.375c-0.618,0-0.984,0.341-0.984,0.971
			c0,1.729,3.835,1.577,3.835,4.441C112.206,133.948,110.478,134.225,109.027,134.225z M114.841,124.965v1.4h-1.779v-1.4H114.841z
			 M114.841,134.074h-1.779v-6.371h1.779V134.074z M120.719,127.703v6.636c0,0.441,0.025,2.183-2.422,2.183
			c-1.325,0-2.46-0.341-2.498-1.892h1.741c0,0.265,0.038,0.492,0.151,0.643c0.114,0.164,0.315,0.252,0.593,0.252
			c0.441,0,0.656-0.416,0.656-1.06v-1.224h-0.025c-0.265,0.492-0.77,0.744-1.35,0.744c-1.955,0-1.867-1.792-1.867-3.23
			c0-1.4,0.025-3.179,1.88-3.179c0.631,0,1.173,0.277,1.425,0.87h0.025v-0.744H120.719z M118.208,132.888
			c0.643,0,0.732-0.669,0.732-2.018c0-1.4-0.063-2.195-0.719-2.195c-0.669,0-0.782,0.467-0.782,2.41
			C117.439,131.677,117.351,132.888,118.208,132.888z M123.367,128.346h0.025c0.176-0.29,0.391-0.479,0.631-0.593
			c0.252-0.126,0.543-0.176,0.871-0.176c0.845,0,1.59,0.505,1.59,1.388v5.109h-1.779v-4.39c0-0.568-0.101-1.009-0.669-1.009
			c-0.568,0-0.669,0.441-0.669,1.009v4.39h-1.779v-6.371h1.779V128.346z M129.257,124.965v1.4h-1.779v-1.4H129.257z
			 M129.257,134.074h-1.779v-6.371h1.779V134.074z M133.003,126.063c-0.719-0.05-0.871,0.227-0.871,0.87v0.77h0.833v1.098h-0.833
			v5.273h-1.779v-5.273h-0.795v-1.098h0.807c-0.013-1.829-0.164-2.801,2.006-2.801c0.215,0,0.416,0.013,0.631,0.025V126.063z
			 M135.16,124.965v1.4h-1.779v-1.4H135.16z M135.16,134.074h-1.779v-6.371h1.779V134.074z M139.246,129.974
			c0-0.946-0.24-1.262-0.795-1.262c-0.757,0-0.82,0.669-0.82,1.993c0,1.943,0.164,2.359,0.82,2.359c0.555,0,0.82-0.505,0.82-1.337
			h1.779c0,1.728-0.934,2.473-2.599,2.473c-2.296,0-2.599-1.4-2.599-3.394c0-1.741,0.252-3.23,2.599-3.23
			c1.64,0,2.574,0.732,2.574,2.397H139.246z M146.574,132.888c0,0.391,0.05,0.795,0.088,1.186h-1.653l-0.076-0.845h-0.025
			c-0.379,0.656-0.896,0.971-1.665,0.971c-1.236,0-1.691-0.921-1.691-2.031c0-2.107,1.628-2.195,3.28-2.17v-0.492
			c0-0.543-0.076-0.934-0.719-0.934c-0.618,0-0.669,0.467-0.669,0.972h-1.741c0-0.77,0.24-1.262,0.656-1.552
			c0.404-0.303,0.984-0.416,1.665-0.416c2.258,0,2.549,0.971,2.549,2.132V132.888z M143.294,132.093
			c0,0.454,0.076,1.009,0.656,1.009c1.047,0,0.883-1.413,0.883-2.107C143.95,131.034,143.294,130.958,143.294,132.093z
			 M149.26,128.346h0.025c0.177-0.29,0.391-0.479,0.631-0.593c0.252-0.126,0.542-0.176,0.87-0.176c0.845,0,1.59,0.505,1.59,1.388
			v5.109h-1.779v-4.39c0-0.568-0.101-1.009-0.669-1.009c-0.568,0-0.669,0.441-0.669,1.009v4.39h-1.779v-6.371h1.779V128.346z
			 M152.5,127.703h0.719v-1.009l1.779-0.795v1.804h0.921v1.098h-0.921v3.406c0,0.479-0.013,0.795,0.568,0.795
			c0.113,0,0.227,0,0.315-0.025v1.098c-0.24,0.025-0.492,0.063-0.921,0.063c-1.539,0-1.741-1.022-1.741-1.413v-3.924H152.5V127.703z
			 M161.569,134.074v-0.706h-0.025c-0.328,0.618-0.82,0.833-1.501,0.833c-1.842,0-1.779-2.044-1.779-3.356
			c0-1.287-0.051-3.267,1.741-3.267c0.643,0,1.085,0.189,1.451,0.732h0.025v-3.343h1.779v9.109H161.569z M161.481,130.832
			c0-1.274,0.013-2.157-0.719-2.157c-0.77,0-0.757,0.883-0.757,2.157c0,1.602,0.113,2.271,0.757,2.271
			C161.367,133.103,161.481,132.434,161.481,130.832z M166.059,124.965v1.4h-1.779v-1.4H166.059z M166.059,134.074h-1.779v-6.371
			h1.779V134.074z M166.462,127.703h1.804l0.896,4.781h0.025l0.934-4.781h1.741l-1.754,6.371h-1.955L166.462,127.703z
			 M173.74,131.173c0,0.757,0.025,1.892,0.807,1.892c0.631,0,0.757-0.606,0.757-1.135h1.804c-0.025,0.694-0.252,1.262-0.681,1.653
			c-0.416,0.391-1.047,0.618-1.88,0.618c-2.296,0-2.599-1.4-2.599-3.394c0-1.741,0.252-3.23,2.599-3.23
			c2.397,0,2.662,1.552,2.599,3.595H173.74z M175.367,130.176c0-0.618,0.025-1.501-0.82-1.501c-0.82,0-0.807,0.959-0.807,1.501
			H175.367z M179.529,127.703v0.82h0.025c0.328-0.732,0.934-0.946,1.653-0.946v1.59c-1.564-0.101-1.59,0.807-1.59,1.438v3.469
			h-1.779v-6.371H179.529z M186.34,127.703v6.636c0,0.441,0.025,2.183-2.422,2.183c-1.325,0-2.46-0.341-2.498-1.892h1.741
			c0,0.265,0.038,0.492,0.151,0.643c0.114,0.164,0.315,0.252,0.593,0.252c0.442,0,0.656-0.416,0.656-1.06v-1.224h-0.025
			c-0.265,0.492-0.77,0.744-1.35,0.744c-1.956,0-1.867-1.792-1.867-3.23c0-1.4,0.025-3.179,1.88-3.179
			c0.631,0,1.173,0.277,1.426,0.87h0.025v-0.744H186.34z M183.83,132.888c0.643,0,0.732-0.669,0.732-2.018
			c0-1.4-0.063-2.195-0.719-2.195c-0.669,0-0.782,0.467-0.782,2.41C183.06,131.677,182.972,132.888,183.83,132.888z
			 M188.849,131.173c0,0.757,0.025,1.892,0.807,1.892c0.631,0,0.757-0.606,0.757-1.135h1.804c-0.025,0.694-0.252,1.262-0.681,1.653
			c-0.416,0.391-1.047,0.618-1.88,0.618c-2.296,0-2.599-1.4-2.599-3.394c0-1.741,0.252-3.23,2.599-3.23
			c2.397,0,2.662,1.552,2.599,3.595H188.849z M190.477,130.176c0-0.618,0.025-1.501-0.82-1.501c-0.82,0-0.807,0.959-0.807,1.501
			H190.477z M194.726,128.346h0.025c0.177-0.29,0.391-0.479,0.631-0.593c0.252-0.126,0.542-0.176,0.87-0.176
			c0.845,0,1.59,0.505,1.59,1.388v5.109h-1.779v-4.39c0-0.568-0.101-1.009-0.669-1.009c-0.568,0-0.669,0.441-0.669,1.009v4.39
			h-1.779v-6.371h1.779V128.346z M201.928,129.974c0-0.946-0.24-1.262-0.795-1.262c-0.757,0-0.82,0.669-0.82,1.993
			c0,1.943,0.164,2.359,0.82,2.359c0.555,0,0.82-0.505,0.82-1.337h1.779c0,1.728-0.934,2.473-2.599,2.473
			c-2.296,0-2.599-1.4-2.599-3.394c0-1.741,0.252-3.23,2.599-3.23c1.64,0,2.574,0.732,2.574,2.397H201.928z M206.065,131.173
			c0,0.757,0.025,1.892,0.807,1.892c0.631,0,0.757-0.606,0.757-1.135h1.804c-0.025,0.694-0.252,1.262-0.681,1.653
			c-0.416,0.391-1.047,0.618-1.88,0.618c-2.296,0-2.599-1.4-2.599-3.394c0-1.741,0.252-3.23,2.599-3.23
			c2.397,0,2.662,1.552,2.599,3.595H206.065z M207.692,130.176c0-0.618,0.025-1.501-0.82-1.501c-0.82,0-0.807,0.959-0.807,1.501
			H207.692z"/>
		<path fill="#5CA5B9" d="M111.298,146.902c0,0.391,0.05,0.795,0.088,1.186h-1.653l-0.076-0.845h-0.025
			c-0.379,0.656-0.896,0.971-1.665,0.971c-1.236,0-1.691-0.921-1.691-2.031c0-2.107,1.628-2.195,3.28-2.17v-0.492
			c0-0.543-0.076-0.934-0.719-0.934c-0.618,0-0.669,0.467-0.669,0.971h-1.741c0-0.77,0.24-1.262,0.656-1.552
			c0.404-0.303,0.984-0.416,1.665-0.416c2.258,0,2.549,0.971,2.549,2.132V146.902z M108.018,146.107
			c0,0.454,0.076,1.009,0.656,1.009c1.047,0,0.883-1.413,0.883-2.107C108.674,145.047,108.018,144.972,108.018,146.107z
			 M111.485,141.717h0.719v-1.009l1.779-0.795v1.804h0.921v1.098h-0.921v3.406c0,0.479-0.013,0.795,0.568,0.795
			c0.114,0,0.227,0,0.315-0.025v1.098c-0.24,0.025-0.492,0.063-0.921,0.063c-1.539,0-1.741-1.022-1.741-1.413v-3.924h-0.719V141.717
			z M116.921,141.477c0-0.908,0.202-1.489,0.606-1.842c0.404-0.341,1.035-0.467,1.918-0.467c1.64,0,2.41,0.669,2.41,2.346
			c0,0.833-0.24,1.817-1.198,1.956v0.025c1.148,0.215,1.337,1.123,1.337,2.145c0,1.817-0.971,2.561-2.75,2.561
			c-1.741,0-2.422-0.618-2.422-2.498h1.779c0,0.58-0.025,1.211,0.744,1.211c0.807,0,0.87-0.744,0.87-1.363
			c0-1.274-0.416-1.35-1.653-1.35v-1.4c1.161,0.05,1.514-0.076,1.514-1.299c0-0.479-0.076-1.047-0.681-1.047
			c-0.643,0-0.694,0.517-0.694,1.022H116.921z M126.28,142.36h0.025c0.353-0.568,0.833-0.77,1.501-0.77
			c0.631,0,1.135,0.303,1.426,0.807c0.416-0.555,0.921-0.807,1.653-0.807c0.845,0,1.589,0.505,1.589,1.388v5.11h-1.779v-4.39
			c0-0.568-0.101-1.009-0.669-1.009c-0.568,0-0.669,0.441-0.669,1.009v4.39h-1.741v-4.39c0-0.568-0.101-1.009-0.669-1.009
			s-0.669,0.441-0.669,1.009v4.39h-1.779v-6.371h1.779V142.36z M133.027,144.82c0-1.741,0.252-3.23,2.599-3.23
			c2.347,0,2.599,1.489,2.599,3.23c0,1.993-0.303,3.394-2.599,3.394S133.027,146.813,133.027,144.82z M136.446,144.719
			c0-1.325-0.063-1.993-0.82-1.993c-0.757,0-0.82,0.669-0.82,1.993c0,1.943,0.164,2.359,0.82,2.359
			C136.282,147.078,136.446,146.662,136.446,144.719z M140.696,142.36h0.025c0.176-0.29,0.391-0.479,0.631-0.593
			c0.252-0.126,0.542-0.176,0.87-0.176c0.845,0,1.59,0.505,1.59,1.388v5.11h-1.779v-4.39c0-0.568-0.101-1.009-0.669-1.009
			c-0.568,0-0.669,0.441-0.669,1.009v4.39h-1.779v-6.371h1.779V142.36z M143.936,141.717h0.719v-1.009l1.779-0.795v1.804h0.921
			v1.098h-0.921v3.406c0,0.479-0.013,0.795,0.568,0.795c0.113,0,0.227,0,0.315-0.025v1.098c-0.24,0.025-0.492,0.063-0.921,0.063
			c-1.539,0-1.741-1.022-1.741-1.413v-3.924h-0.719V141.717z M150.71,148.088v-4.39c0-0.568-0.101-1.009-0.669-1.009
			c-0.568,0-0.669,0.441-0.669,1.009v4.39h-1.779v-9.109h1.779v3.381h0.025c0.176-0.29,0.391-0.479,0.631-0.593
			c0.252-0.126,0.542-0.176,0.87-0.176c0.845,0,1.59,0.505,1.59,1.388v5.11H150.71z M154.733,146.044
			c-0.013,0.29,0,0.568,0.088,0.77c0.101,0.202,0.29,0.303,0.644,0.303c0.353,0,0.656-0.227,0.656-0.656
			c0-1.35-3.129-1.047-3.129-3.078c0-1.375,1.363-1.791,2.51-1.791c1.211,0,2.309,0.58,2.208,1.955h-1.741
			c0-0.441-0.05-0.706-0.177-0.82c-0.113-0.114-0.265-0.139-0.454-0.139c-0.391,0-0.605,0.252-0.605,0.681
			c0,1.009,3.129,0.959,3.129,3.003c0,1.11-0.908,1.943-2.384,1.943c-1.552,0-2.586-0.391-2.485-2.17H154.733z"/>
		<g>
			<path fill="#5CA5B9" d="M159.007,143.888v-0.904c1.618-2.155,1.957-2.405,1.957-3.045c0-0.258-0.096-0.5-0.391-0.5
				c-0.426,0-0.448,0.404-0.448,0.735h-1.037c-0.073-0.956,0.464-1.486,1.412-1.486c0.89,0,1.501,0.36,1.501,1.324
				c0,1.154-1.346,2.464-1.905,3.082h1.956v0.794H159.007z"/>
		</g>
		<g>
			<path fill="#006C83" d="M340.697,311.308h0.854l2.33,5.816h-0.87l-0.622-1.515h-2.674l-0.622,1.515h-0.822L340.697,311.308z
				 M339.97,314.958h2.178l-1.061-2.853L339.97,314.958z"/>
			<path fill="#006C83" d="M347.437,311.316h0.75v5.164c0,0.089,0.016,0.436,0.032,0.645h-0.751l-0.016-0.645
				c-0.063,0.113-0.151,0.282-0.359,0.427c-0.326,0.226-0.718,0.298-0.989,0.298c-0.534,0-1.724-0.281-1.724-2.054
				c0-1.539,0.87-2.208,1.812-2.208c0.862,0,1.149,0.516,1.245,0.686V311.316z M347.158,313.918c-0.16-0.209-0.455-0.41-0.878-0.41
				c-1.101,0-1.101,1.346-1.101,1.619c0,0.717,0.183,1.547,1.101,1.547c1.181,0,1.181-1.313,1.181-1.627
				C347.461,314.458,347.326,314.135,347.158,313.918z"/>
			<path fill="#006C83" d="M351.976,317.125c-0.057-0.201-0.072-0.395-0.072-0.604c-0.359,0.669-0.901,0.733-1.236,0.733
				c-0.918,0-1.413-0.523-1.413-1.192c0-0.322,0.112-0.838,0.702-1.185c0.432-0.241,1.07-0.266,1.389-0.266
				c0.191,0,0.312,0.008,0.543,0.024c0-0.5,0-0.718-0.145-0.895c-0.15-0.201-0.479-0.266-0.693-0.266
				c-0.758,0-0.799,0.523-0.807,0.685h-0.75c0.024-0.209,0.049-0.491,0.279-0.766c0.304-0.338,0.87-0.435,1.293-0.435
				c0.582,0,1.205,0.185,1.42,0.596c0.129,0.242,0.137,0.436,0.137,0.62l-0.032,1.934c0,0.064,0.008,0.604,0.063,1.016H351.976z
				 M351.457,315.134c-0.303,0-1.443,0-1.443,0.822c0,0.258,0.159,0.701,0.83,0.701c0.383,0,0.67-0.153,0.854-0.436
				c0.168-0.273,0.176-0.5,0.191-1.063C351.753,315.142,351.64,315.134,351.457,315.134z"/>
			<path fill="#006C83" d="M353.945,313.741c0-0.177-0.008-0.274-0.023-0.661h0.758l0.017,0.669
				c0.375-0.636,1.037-0.733,1.364-0.733c0.861,0,1.684,0.597,1.684,2.096c0,1.506-0.869,2.167-1.827,2.167
				c-0.583,0-1.014-0.25-1.229-0.604v2.006h-0.742V313.741z M355.789,316.722c0.191,0,0.591-0.041,0.846-0.396
				c0.287-0.395,0.328-0.975,0.328-1.265c0-0.725-0.216-1.482-1.102-1.482c-1.197,0-1.197,1.281-1.197,1.644
				C354.664,315.714,354.736,316.722,355.789,316.722z"/>
			<path fill="#006C83" d="M358.229,313.064h0.71v-0.846l0.742-0.242v1.088h0.895v0.556h-0.895v2.425c0,0.202,0,0.54,0.535,0.54
				c0.151,0,0.295-0.024,0.359-0.04v0.588c-0.137,0.024-0.352,0.049-0.623,0.049c-0.687,0-1.014-0.201-1.014-0.862v-2.699h-0.71
				V313.064z"/>
			<path fill="#006C83" d="M361.955,315.24c-0.016,0.838,0.327,1.458,1.148,1.458c0.487,0,0.879-0.258,0.942-0.838h0.75
				c-0.024,0.201-0.056,0.531-0.343,0.846c-0.176,0.201-0.574,0.54-1.381,0.54c-1.261,0-1.859-0.79-1.859-2.07
				c0-0.798,0.16-1.459,0.79-1.902c0.383-0.273,0.862-0.298,1.093-0.298c1.796,0,1.756,1.604,1.74,2.265H361.955z M364.07,314.708
				c0.008-0.387-0.064-1.192-0.99-1.192c-0.486,0-1.077,0.298-1.094,1.192H364.07z"/>
			<path fill="#006C83" d="M368.712,311.316h0.75v5.164c0,0.089,0.016,0.436,0.032,0.645h-0.751l-0.016-0.645
				c-0.063,0.113-0.151,0.282-0.359,0.427c-0.326,0.226-0.718,0.298-0.989,0.298c-0.534,0-1.724-0.281-1.724-2.054
				c0-1.539,0.87-2.208,1.812-2.208c0.862,0,1.149,0.516,1.245,0.686V311.316z M368.433,313.918c-0.16-0.209-0.455-0.41-0.878-0.41
				c-1.101,0-1.101,1.346-1.101,1.619c0,0.717,0.183,1.547,1.101,1.547c1.181,0,1.181-1.313,1.181-1.627
				C368.736,314.458,368.601,314.135,368.433,313.918z"/>
			<path fill="#006C83" d="M375.03,311.872c-0.128-0.008-0.288-0.017-0.438-0.017c-0.607,0-0.607,0.307-0.607,0.589v0.636h0.934
				v0.549h-0.934v3.496h-0.742v-3.496h-0.79v-0.549h0.79v-0.459c0-0.556,0.032-0.757,0.168-0.967
				c0.168-0.258,0.486-0.443,1.006-0.443c0.215,0,0.455,0.033,0.614,0.057V311.872z"/>
			<path fill="#006C83" d="M375.723,313.902c0-0.273-0.017-0.556-0.04-0.822h0.758l0.017,0.782c0.144-0.564,0.622-0.749,0.958-0.798
				c0.223-0.032,0.391-0.024,0.518-0.016v0.74c-0.039-0.016-0.088-0.023-0.143-0.031c-0.057-0.009-0.128-0.009-0.216-0.009
				c-0.886,0-1.093,0.532-1.093,1.225v2.151h-0.759V313.902z"/>
			<path fill="#006C83" d="M380.526,312.975c1.604,0,1.964,1.273,1.964,2.119c0,1.185-0.663,2.167-2.027,2.167
				c-1.325,0-1.971-0.926-1.971-2.11C378.492,314.152,378.954,312.975,380.526,312.975z M380.478,316.698
				c0.566,0,1.213-0.411,1.213-1.628c0-1.007-0.463-1.539-1.165-1.539c-0.479,0-1.253,0.307-1.253,1.571
				C379.273,315.932,379.625,316.698,380.478,316.698z"/>
			<path fill="#006C83" d="M383.652,313.62l-0.016-0.54h0.758v0.589c0.383-0.637,0.926-0.693,1.27-0.693
				c0.886,0,1.165,0.46,1.309,0.758c0.136-0.226,0.463-0.758,1.349-0.758c0.575,0,1.468,0.242,1.468,1.435v2.715h-0.758v-2.594
				c0-0.355-0.063-0.508-0.135-0.613c-0.129-0.185-0.384-0.354-0.767-0.354c-0.487,0-0.751,0.281-0.854,0.427
				c-0.176,0.249-0.176,0.692-0.176,0.87v2.264h-0.758v-2.675c0-0.499-0.287-0.886-0.877-0.886c-0.512,0-0.791,0.322-0.879,0.442
				c-0.167,0.233-0.175,0.564-0.175,0.822v2.296h-0.759V313.62z"/>
			<path fill="#006C83" d="M393.449,313.902c0-0.273-0.017-0.556-0.041-0.822h0.759l0.017,0.782
				c0.143-0.564,0.621-0.749,0.957-0.798c0.223-0.032,0.391-0.024,0.519-0.016v0.74c-0.04-0.016-0.088-0.023-0.144-0.031
				c-0.056-0.009-0.128-0.009-0.215-0.009c-0.887,0-1.094,0.532-1.094,1.225v2.151h-0.758V313.902z"/>
			<path fill="#006C83" d="M396.966,315.24c-0.016,0.838,0.327,1.458,1.148,1.458c0.487,0,0.879-0.258,0.942-0.838h0.75
				c-0.024,0.201-0.056,0.531-0.343,0.846c-0.176,0.201-0.574,0.54-1.381,0.54c-1.261,0-1.859-0.79-1.859-2.07
				c0-0.798,0.16-1.459,0.79-1.902c0.383-0.273,0.862-0.298,1.093-0.298c1.796,0,1.756,1.604,1.74,2.265H396.966z M399.082,314.708
				c0.008-0.387-0.064-1.192-0.99-1.192c-0.486,0-1.077,0.298-1.094,1.192H399.082z"/>
			<path fill="#006C83" d="M402.95,311.872c-0.128-0.008-0.288-0.017-0.438-0.017c-0.607,0-0.607,0.307-0.607,0.589v0.636h0.934
				v0.549h-0.934v3.496h-0.742v-3.496h-0.79v-0.549h0.79v-0.459c0-0.556,0.032-0.757,0.168-0.967
				c0.168-0.258,0.486-0.443,1.006-0.443c0.215,0,0.455,0.033,0.614,0.057V311.872z"/>
			<path fill="#006C83" d="M404.058,315.24c-0.017,0.838,0.326,1.458,1.148,1.458c0.486,0,0.878-0.258,0.941-0.838h0.75
				c-0.023,0.201-0.055,0.531-0.343,0.846c-0.175,0.201-0.574,0.54-1.38,0.54c-1.262,0-1.859-0.79-1.859-2.07
				c0-0.798,0.159-1.459,0.789-1.902c0.383-0.273,0.862-0.298,1.094-0.298c1.795,0,1.756,1.604,1.74,2.265H404.058z
				 M406.172,314.708c0.008-0.387-0.063-1.192-0.989-1.192c-0.487,0-1.078,0.298-1.094,1.192H406.172z"/>
			<path fill="#006C83" d="M408.078,313.902c0-0.273-0.016-0.556-0.039-0.822h0.758l0.016,0.782
				c0.145-0.564,0.623-0.749,0.958-0.798c0.224-0.032,0.392-0.024,0.519-0.016v0.74c-0.04-0.016-0.088-0.023-0.144-0.031
				c-0.056-0.009-0.128-0.009-0.216-0.009c-0.885,0-1.093,0.532-1.093,1.225v2.151h-0.759V313.902z"/>
			<path fill="#006C83" d="M411.596,315.24c-0.017,0.838,0.327,1.458,1.149,1.458c0.486,0,0.877-0.258,0.941-0.838h0.75
				c-0.023,0.201-0.056,0.531-0.344,0.846c-0.175,0.201-0.574,0.54-1.38,0.54c-1.261,0-1.859-0.79-1.859-2.07
				c0-0.798,0.159-1.459,0.79-1.902c0.383-0.273,0.861-0.298,1.094-0.298c1.795,0,1.756,1.604,1.739,2.265H411.596z
				 M413.711,314.708c0.008-0.387-0.063-1.192-0.989-1.192c-0.487,0-1.077,0.298-1.093,1.192H413.711z"/>
			<path fill="#006C83" d="M415.601,313.547l-0.008-0.468h0.75l0.008,0.653c0.088-0.169,0.375-0.733,1.285-0.733
				c0.358,0,1.452,0.137,1.452,1.378v2.747h-0.767v-2.57c0-0.266-0.031-0.508-0.215-0.692c-0.191-0.186-0.455-0.274-0.711-0.274
				c-0.543,0-1.045,0.395-1.045,1.209v2.328h-0.75V313.547z"/>
			<path fill="#006C83" d="M422.734,314.378c-0.017-0.186-0.072-0.847-0.799-0.847c-1.037,0-1.037,1.217-1.037,1.523
				c0,0.83,0.199,1.604,0.997,1.604c0.639,0,0.854-0.484,0.87-0.879h0.758c-0.047,0.79-0.631,1.45-1.619,1.45
				c-0.271,0-0.895-0.056-1.317-0.523c-0.239-0.282-0.479-0.709-0.479-1.547c0-1.684,1.021-2.184,1.82-2.184
				c0.264,0,0.861,0.057,1.229,0.5c0.296,0.347,0.32,0.677,0.336,0.902H422.734z"/>
			<path fill="#006C83" d="M424.894,315.24c-0.016,0.838,0.327,1.458,1.148,1.458c0.487,0,0.879-0.258,0.942-0.838h0.75
				c-0.024,0.201-0.056,0.531-0.343,0.846c-0.176,0.201-0.574,0.54-1.381,0.54c-1.261,0-1.859-0.79-1.859-2.07
				c0-0.798,0.16-1.459,0.79-1.902c0.383-0.273,0.862-0.298,1.093-0.298c1.796,0,1.756,1.604,1.74,2.265H424.894z M427.009,314.708
				c0.008-0.387-0.064-1.192-0.99-1.192c-0.486,0-1.077,0.298-1.094,1.192H427.009z"/>
			<path fill="#006C83" d="M432.552,312.427c-0.343,0.29-0.893,0.621-1.284,0.806v-0.806c0.519-0.273,1.029-0.612,1.341-0.878h0.71
				v5.575h-0.767V312.427z"/>
			<path fill="#006C83" d="M435.472,316.158h0.885v0.967h-0.885V316.158z"/>
		</g>
		<polyline fill="none" stroke="#006C83" stroke-width="0.75" points="94.913,35.839 94.913,278.115 380.352,278.115 		"/>
	</g>
</g>
</svg>
