<?xml version="1.0" encoding="utf-8"?>
<!-- Generator: Adobe Illustrator 17.0.0, SVG Export Plug-In . SVG Version: 6.00 Build 0)  -->
<!DOCTYPE svg PUBLIC "-//W3C//DTD SVG 1.1//EN" "http://www.w3.org/Graphics/SVG/1.1/DTD/svg11.dtd">
<svg version="1.1" id="Layer_1" xmlns="http://www.w3.org/2000/svg" xmlns:xlink="http://www.w3.org/1999/xlink" x="0px" y="0px"
	 width="296.098px" height="236.225px" viewBox="0 0 296.098 236.225" enable-background="new 0 0 296.098 236.225"
	 xml:space="preserve">
<g>
	<g>
		<defs>
			<polyline id="SVGID_24_" points="5.678,234.725 13.336,234.725 12.64,231.941 18.209,231.941 18.209,229.155 25.171,229.155 
				25.171,227.067 30.741,227.067 30.741,224.63 36.31,224.63 36.31,218.712 42.575,209.314 47.449,209.314 49.537,207.225 
				59.284,202.003 64.158,202.003 68.335,194.345 71.816,194.345 71.816,192.953 80.17,192.953 80.17,188.079 87.131,188.079 
				87.131,183.902 96.879,183.902 105.233,177.637 109.41,177.637 109.41,174.852 114.284,174.852 114.284,168.587 117.069,164.409 
				125.422,164.409 128.208,157.447 134.473,163.016 142.828,157.447 151.182,152.573 161.625,147.701 172.068,142.827 
				182.511,135.865 188.081,135.865 188.081,133.254 193.65,133.254 193.65,130.992 200.612,130.992 200.612,127.512 
				208.27,127.512 210.358,125.422 212.446,123.334 218.017,112.195 220.801,112.195 220.801,110.107 224.979,110.107 
				224.979,108.017 230.548,108.017 230.548,105.233 234.725,105.233 234.725,102.448 244.471,102.448 250.042,94.79 
				258.395,91.309 266.054,91.309 271.623,81.563 271.623,77.385 286.243,77.385 286.243,73.208 293.901,73.208 294.598,1.5 
				273.016,1.5 265.357,14.031 259.092,14.031 250.042,27.955 238.206,27.955 226.37,35.613 226.37,39.791 220.801,39.791 
				218.017,48.841 212.446,48.841 200.612,57.196 195.041,68.335 188.081,68.335 183.207,76.689 180.422,87.828 172.764,87.828 
				165.802,94.093 153.27,94.093 149.789,100.359 144.22,100.359 130.296,112.891 130.296,117.764 124.031,117.764 114.981,121.245 
				109.41,130.992 96.183,130.992 85.74,145.611 85.74,155.359 75.993,155.359 68.335,165.106 60.677,165.106 56.499,172.764 
				45.361,172.764 44.665,182.51 37.006,189.82 32.829,197.131 22.386,203.396 18.209,210.358 14.031,210.358 11.943,223.586 
				1.5,234.029 			"/>
		</defs>
		<clipPath id="SVGID_2_">
			<use xlink:href="#SVGID_24_"  overflow="visible"/>
		</clipPath>
		
			<linearGradient id="SVGID_4_" gradientUnits="userSpaceOnUse" x1="-1999.7247" y1="-276.0893" x2="-1998.3234" y2="-276.0893" gradientTransform="matrix(104.5469 -68.4136 -68.4136 -104.5469 190283.7969 -165527.6875)">
			<stop  offset="0" style="stop-color:#C7DEA9"/>
			<stop  offset="0.011" style="stop-color:#C7DEA9"/>
			<stop  offset="1" style="stop-color:#81BC45"/>
		</linearGradient>
		<polygon clip-path="url(#SVGID_2_)" fill="url(#SVGID_4_)" points="-105.359,71.427 206.72,-132.792 401.457,164.798 
			89.378,369.017 		"/>
	</g>
	<polyline fill="none" stroke="#3B97AD" stroke-width="3" stroke-linecap="round" stroke-linejoin="round" points="293.901,73.208 
		286.243,73.208 286.243,77.385 271.623,77.385 271.623,81.563 266.054,91.309 258.395,91.309 250.042,94.79 244.471,102.449 
		234.725,102.449 234.725,105.233 230.548,105.233 230.548,108.018 224.979,108.018 224.979,110.106 220.801,110.106 
		220.801,112.195 218.017,112.195 212.446,123.334 210.358,125.423 208.27,127.51 200.612,127.51 200.612,130.991 193.65,130.991 
		193.65,133.255 188.079,133.255 188.079,135.865 182.511,135.865 172.068,142.827 161.625,147.701 151.182,152.574 
		142.827,157.448 134.473,163.017 128.208,157.448 125.422,164.41 117.069,164.41 114.284,168.587 114.284,174.852 109.41,174.852 
		109.41,177.637 105.233,177.637 96.879,183.902 87.131,183.902 87.131,188.08 80.17,188.08 80.17,192.954 71.816,192.954 
		71.816,194.345 68.335,194.345 64.158,202.004 59.284,202.004 49.537,207.225 47.449,209.313 42.575,209.313 36.31,218.712 
		36.31,224.63 30.741,224.63 30.741,227.067 25.171,227.067 25.171,229.155 18.209,229.155 18.209,231.939 12.64,231.939 
		13.336,234.725 5.678,234.725 	"/>
	<polyline fill="none" stroke="#6A7370" stroke-width="3" stroke-linecap="round" stroke-linejoin="round" points="294.598,1.5 
		273.015,1.5 265.357,14.031 259.092,14.031 250.042,27.955 238.206,27.955 226.371,35.613 226.371,39.791 220.801,39.791 
		218.016,48.841 212.447,48.841 200.612,57.195 195.043,68.335 188.081,68.335 183.207,76.688 180.422,87.828 172.764,87.828 
		165.802,94.093 153.271,94.093 149.79,100.36 144.22,100.36 130.296,112.891 130.296,117.765 124.03,117.765 114.98,121.246 
		109.41,130.992 96.183,130.992 85.74,145.613 85.74,155.359 75.993,155.359 68.335,165.105 60.676,165.105 56.499,172.764 
		45.361,172.764 44.665,182.51 37.006,189.82 32.829,197.131 22.386,203.396 18.208,210.358 14.032,210.358 11.943,223.585 
		1.5,234.028 	"/>
</g>
</svg>
