<?xml version="1.0" encoding="utf-8"?>
<!-- Generator: Adobe Illustrator 17.0.0, SVG Export Plug-In . SVG Version: 6.00 Build 0)  -->
<!DOCTYPE svg PUBLIC "-//W3C//DTD SVG 1.1//EN" "http://www.w3.org/Graphics/SVG/1.1/DTD/svg11.dtd">
<svg version="1.1" id="Layer_1" xmlns="http://www.w3.org/2000/svg" xmlns:xlink="http://www.w3.org/1999/xlink" x="0px" y="0px"
	 width="56.256px" height="126.287px" viewBox="0 0 56.256 126.287" enable-background="new 0 0 56.256 126.287"
	 xml:space="preserve">
<g>
	<g opacity="0.25">
		<g>
			<defs>
				<rect id="SVGID_27_" x="0" y="70.032" width="56.256" height="56.255"/>
			</defs>
			<clipPath id="SVGID_2_">
				<use xlink:href="#SVGID_27_"  overflow="visible"/>
			</clipPath>
			<path clip-path="url(#SVGID_2_)" fill="#FFFFFF" d="M28.128,123.918c14.227,0,25.76-11.533,25.76-25.76
				c0-14.225-11.533-25.758-25.76-25.758c-14.227,0-25.76,11.533-25.76,25.758C2.368,112.385,13.901,123.918,28.128,123.918"/>
			
				<path clip-path="url(#SVGID_2_)" fill="none" stroke="#87BBCA" stroke-width="1.38" stroke-linecap="round" stroke-linejoin="round" stroke-dasharray="2.888,2.888" d="
				M34.143,123.212c10.048-2.403,17.808-10.694,19.431-21.023"/>
			
				<path clip-path="url(#SVGID_2_)" fill="none" stroke="#87BBCA" stroke-width="1.38" stroke-linecap="round" stroke-linejoin="round" stroke-dasharray="2.888,2.888" d="
				M53.181,92.144c-2.403-10.048-10.694-17.808-21.023-19.431"/>
			
				<path clip-path="url(#SVGID_2_)" fill="none" stroke="#87BBCA" stroke-width="1.38" stroke-linecap="round" stroke-linejoin="round" stroke-dasharray="2.888,2.888" d="
				M22.113,73.106C12.065,75.509,4.305,83.8,2.682,94.129"/>
			
				<path clip-path="url(#SVGID_2_)" fill="none" stroke="#87BBCA" stroke-width="1.38" stroke-linecap="round" stroke-linejoin="round" stroke-dasharray="2.888,2.888" d="
				M3.075,104.174c2.403,10.048,10.694,17.809,21.023,19.431"/>
			
				<path clip-path="url(#SVGID_2_)" fill="none" stroke="#87BBCA" stroke-width="1.38" stroke-linecap="round" stroke-linejoin="round" d="
				M26.107,123.84c0.667,0.052,1.341,0.078,2.021,0.078c0.681,0,1.355-0.027,2.022-0.078 M2.446,96.137
				c-0.052,0.667-0.077,1.341-0.077,2.021c0,0.681,0.025,1.355,0.077,2.022 M30.15,72.479c-0.667-0.052-1.341-0.078-2.022-0.078
				c-0.68,0-1.354,0.027-2.021,0.078 M53.809,100.18c0.052-0.667,0.079-1.341,0.079-2.022c0-0.68-0.027-1.354-0.079-2.021"/>
		</g>
	</g>
	
		<line fill="none" stroke="#87BBCA" stroke-width="1.5" stroke-linecap="round" stroke-linejoin="round" stroke-dasharray="2.948,2.948" x1="28.128" y1="0.75" x2="28.128" y2="70.969"/>
	
		<path fill="none" stroke="#87BBCA" stroke-width="1.5" stroke-linecap="round" stroke-linejoin="round" stroke-dasharray="2.888,2.888" d="
		M34.317,123.212c10.048-2.403,17.808-10.694,19.431-21.023"/>
	
		<path fill="none" stroke="#87BBCA" stroke-width="1.5" stroke-linecap="round" stroke-linejoin="round" stroke-dasharray="2.888,2.888" d="
		M53.355,92.144c-2.403-10.048-10.694-17.808-21.023-19.431"/>
	
		<path fill="none" stroke="#87BBCA" stroke-width="1.5" stroke-linecap="round" stroke-linejoin="round" stroke-dasharray="2.888,2.888" d="
		M22.287,73.106C12.239,75.509,4.479,83.8,2.856,94.129"/>
	
		<path fill="none" stroke="#87BBCA" stroke-width="1.5" stroke-linecap="round" stroke-linejoin="round" stroke-dasharray="2.888,2.888" d="
		M3.249,104.174c2.403,10.048,10.694,17.809,21.023,19.431"/>
	<path fill="none" stroke="#87BBCA" stroke-width="1.5" stroke-linecap="round" stroke-linejoin="round" d="M26.281,123.84
		c0.667,0.052,1.341,0.078,2.021,0.078c0.681,0,1.355-0.027,2.022-0.078 M2.621,96.137c-0.052,0.667-0.077,1.341-0.077,2.021
		c0,0.681,0.025,1.355,0.077,2.022 M30.324,72.479c-0.667-0.052-1.341-0.078-2.022-0.078c-0.68,0-1.354,0.027-2.021,0.078
		 M53.983,100.18c0.052-0.667,0.078-1.341,0.078-2.022c0-0.68-0.027-1.354-0.078-2.021"/>
</g>
</svg>
