<?xml version="1.0" encoding="utf-8"?>
<!-- Generator: Adobe Illustrator 17.0.0, SVG Export Plug-In . SVG Version: 6.00 Build 0)  -->
<!DOCTYPE svg PUBLIC "-//W3C//DTD SVG 1.1//EN" "http://www.w3.org/Graphics/SVG/1.1/DTD/svg11.dtd">
<svg version="1.1" id="Layer_1" xmlns="http://www.w3.org/2000/svg" xmlns:xlink="http://www.w3.org/1999/xlink" x="0px" y="0px"
	 width="53.018px" height="237.945px" viewBox="0 0 53.018 237.945" enable-background="new 0 0 53.018 237.945"
	 xml:space="preserve">
<g>
	
		<line fill="none" stroke="#5CA5B9" stroke-width="1.5" stroke-linecap="round" stroke-linejoin="round" stroke-dasharray="2.96,2.96" x1="26.509" y1="0.75" x2="26.509" y2="237.195"/>
	<path fill="#FFFFFF" d="M26.508,214.917c14.227,0,25.76-11.533,25.76-25.76c0-14.225-11.533-25.758-25.76-25.758
		c-14.227,0-25.76,11.533-25.76,25.758C0.749,203.383,12.282,214.917,26.508,214.917"/>
	
		<path fill="none" stroke="#5CA5B9" stroke-width="1.5" stroke-linecap="round" stroke-linejoin="round" stroke-dasharray="2.888,2.888" d="
		M32.523,214.211c10.048-2.403,17.808-10.694,19.431-21.023"/>
	
		<path fill="none" stroke="#5CA5B9" stroke-width="1.5" stroke-linecap="round" stroke-linejoin="round" stroke-dasharray="2.888,2.888" d="
		M51.562,183.143c-2.403-10.048-10.694-17.808-21.023-19.431"/>
	
		<path fill="none" stroke="#5CA5B9" stroke-width="1.5" stroke-linecap="round" stroke-linejoin="round" stroke-dasharray="2.888,2.888" d="
		M20.494,164.104c-10.048,2.403-17.808,10.694-19.431,21.023"/>
	
		<path fill="none" stroke="#5CA5B9" stroke-width="1.5" stroke-linecap="round" stroke-linejoin="round" stroke-dasharray="2.888,2.888" d="
		M1.456,195.172c2.403,10.048,10.694,17.809,21.023,19.431"/>
	<path fill="none" stroke="#5CA5B9" stroke-width="1.5" stroke-linecap="round" stroke-linejoin="round" d="M24.488,214.838
		c0.667,0.052,1.341,0.079,2.021,0.079c0.681,0,1.355-0.027,2.022-0.079 M0.827,187.136c-0.052,0.667-0.077,1.341-0.077,2.021
		c0,0.681,0.025,1.355,0.077,2.022 M28.53,163.477c-0.667-0.052-1.341-0.079-2.022-0.079c-0.68,0-1.354,0.027-2.021,0.079
		 M52.19,191.179c0.052-0.667,0.078-1.341,0.078-2.022c0-0.68-0.027-1.354-0.078-2.021"/>
	<g>
		<path fill="#231F20" d="M22.051,174.681v1.346h-1.884v6.752h-1.693v-6.752h-1.885v-1.346H22.051z"/>
		<path fill="#231F20" d="M23.44,177.114v0.729h0.022c0.291-0.65,0.83-0.841,1.469-0.841v1.413c-1.391-0.09-1.412,0.718-1.412,1.278
			v3.084h-1.582v-5.664H23.44z"/>
		<path fill="#231F20" d="M27.386,174.681v1.245h-1.582v-1.245H27.386z M27.386,182.778h-1.582v-5.664h1.582V182.778z"/>
		<path fill="#231F20" d="M33.081,181.724c0,0.348,0.045,0.707,0.079,1.055h-1.47l-0.066-0.751h-0.023
			c-0.336,0.583-0.795,0.863-1.479,0.863c-1.099,0-1.503-0.819-1.503-1.806c0-1.873,1.447-1.951,2.916-1.929v-0.438
			c0-0.482-0.067-0.83-0.64-0.83c-0.55,0-0.595,0.415-0.595,0.863h-1.547c0-0.684,0.213-1.121,0.583-1.379
			c0.358-0.27,0.874-0.37,1.48-0.37c2.007,0,2.265,0.863,2.265,1.895V181.724z M30.165,181.018c0,0.403,0.068,0.897,0.584,0.897
			c0.931,0,0.785-1.257,0.785-1.873C30.749,180.075,30.165,180.008,30.165,181.018z"/>
		<path fill="#231F20" d="M36.108,174.681v8.098h-1.581v-8.098H36.108z"/>
	</g>
	<g>
		<path fill="#231F20" d="M10.508,191.472c-0.011,0.258,0,0.504,0.079,0.684c0.089,0.18,0.258,0.27,0.571,0.27
			s0.583-0.202,0.583-0.583c0-1.2-2.781-0.932-2.781-2.737c0-1.222,1.211-1.592,2.232-1.592c1.076,0,2.052,0.516,1.962,1.738h-1.548
			c0-0.393-0.045-0.628-0.156-0.729c-0.102-0.101-0.236-0.123-0.404-0.123c-0.348,0-0.538,0.225-0.538,0.605
			c0,0.897,2.781,0.853,2.781,2.669c0,0.987-0.808,1.728-2.12,1.728c-1.379,0-2.299-0.348-2.209-1.929H10.508z"/>
		<path fill="#231F20" d="M13.601,187.624h0.64v-0.896l1.581-0.707v1.604h0.819v0.977h-0.819v3.027c0,0.427-0.011,0.707,0.505,0.707
			c0.101,0,0.202,0,0.28-0.022v0.976c-0.213,0.022-0.438,0.056-0.818,0.056c-1.368,0-1.548-0.908-1.548-1.256v-3.487h-0.64V187.624z
			"/>
		<path fill="#231F20" d="M17.223,190.384c0-1.548,0.224-2.871,2.31-2.871s2.311,1.323,2.311,2.871c0,1.771-0.269,3.017-2.311,3.017
			C17.491,193.401,17.223,192.155,17.223,190.384z M20.262,190.294c0-1.178-0.056-1.772-0.729-1.772
			c-0.672,0-0.729,0.595-0.729,1.772c0,1.727,0.146,2.097,0.729,2.097C20.116,192.391,20.262,192.021,20.262,190.294z"/>
		<path fill="#231F20" d="M24.466,187.624v0.629h0.021c0.292-0.55,0.729-0.74,1.335-0.74c1.638,0,1.581,1.816,1.581,2.982
			c0,1.145,0.045,2.905-1.547,2.905c-0.572,0-0.965-0.168-1.29-0.65h-0.022v2.972h-1.582v-8.098H24.466z M25.857,190.406
			c0-1.133,0.011-1.918-0.674-1.918c-0.65,0-0.639,0.785-0.639,1.918c0,1.424,0.102,2.019,0.639,2.019
			C25.755,192.425,25.857,191.83,25.857,190.406z"/>
		<path fill="#231F20" d="M30.071,187.624v0.629h0.022c0.291-0.55,0.729-0.74,1.334-0.74c1.639,0,1.582,1.816,1.582,2.982
			c0,1.145,0.045,2.905-1.548,2.905c-0.571,0-0.964-0.168-1.29-0.65H30.15v2.972h-1.582v-8.098H30.071z M31.461,190.406
			c0-1.133,0.011-1.918-0.673-1.918c-0.65,0-0.639,0.785-0.639,1.918c0,1.424,0.101,2.019,0.639,2.019
			C31.361,192.425,31.461,191.83,31.461,190.406z"/>
		<path fill="#231F20" d="M35.631,190.709c0,0.673,0.022,1.682,0.718,1.682c0.561,0,0.673-0.538,0.673-1.009h1.604
			c-0.023,0.616-0.225,1.121-0.605,1.469c-0.371,0.348-0.932,0.55-1.672,0.55c-2.041,0-2.311-1.245-2.311-3.017
			c0-1.548,0.225-2.871,2.311-2.871c2.131,0,2.367,1.379,2.311,3.196H35.631z M37.077,189.822c0-0.549,0.023-1.334-0.729-1.334
			c-0.729,0-0.718,0.852-0.718,1.334H37.077z"/>
		<path fill="#231F20" d="M42.605,193.288v-0.628h-0.022c-0.292,0.55-0.729,0.74-1.335,0.74c-1.637,0-1.58-1.817-1.58-2.983
			c0-1.144-0.045-2.904,1.547-2.904c0.572,0,0.965,0.168,1.29,0.65h0.022v-2.973h1.581v8.098H42.605z M42.527,190.406
			c0-1.133,0.012-1.918-0.64-1.918c-0.685,0-0.673,0.785-0.673,1.918c0,1.424,0.102,2.019,0.673,2.019
			C42.425,192.425,42.527,191.83,42.527,190.406z"/>
	</g>
	<g>
		<path fill="#231F20" d="M17.263,201.219c0,0.673,0.021,1.682,0.717,1.682c0.562,0,0.674-0.538,0.674-1.009h1.604
			c-0.022,0.616-0.225,1.121-0.605,1.469c-0.37,0.348-0.932,0.55-1.672,0.55c-2.041,0-2.31-1.245-2.31-3.017
			c0-1.548,0.224-2.871,2.31-2.871c2.131,0,2.367,1.379,2.311,3.196H17.263z M18.709,200.332c0-0.549,0.022-1.334-0.729-1.334
			c-0.729,0-0.717,0.852-0.717,1.334H18.709z"/>
		<path fill="#231F20" d="M25.705,202.743c0,0.348,0.045,0.707,0.079,1.055h-1.47l-0.067-0.751h-0.022
			c-0.337,0.583-0.796,0.863-1.479,0.863c-1.1,0-1.504-0.819-1.504-1.806c0-1.873,1.447-1.951,2.916-1.929v-0.438
			c0-0.482-0.066-0.83-0.639-0.83c-0.55,0-0.595,0.415-0.595,0.863h-1.548c0-0.684,0.213-1.121,0.584-1.379
			c0.358-0.27,0.874-0.37,1.48-0.37c2.007,0,2.265,0.863,2.265,1.895V202.743z M22.789,202.037c0,0.403,0.067,0.897,0.583,0.897
			c0.932,0,0.785-1.257,0.785-1.873C23.372,201.095,22.789,201.027,22.789,202.037z"/>
		<path fill="#231F20" d="M28.519,198.134v0.729h0.021c0.292-0.65,0.83-0.841,1.47-0.841v1.413c-1.391-0.09-1.413,0.718-1.413,1.278
			v3.084h-1.582v-5.664H28.519z"/>
		<path fill="#231F20" d="M32.464,195.7v8.098h-1.581V195.7H32.464z"/>
		<path fill="#231F20" d="M34.874,203.843l-1.536-5.709h1.569l0.809,3.981h0.021l0.854-3.981h1.524l-2.187,7.807h-1.66
			L34.874,203.843z"/>
	</g>
</g>
</svg>
