<?xml version="1.0" encoding="utf-8"?>
<!-- Generator: Adobe Illustrator 17.0.0, SVG Export Plug-In . SVG Version: 6.00 Build 0)  -->
<!DOCTYPE svg PUBLIC "-//W3C//DTD SVG 1.1//EN" "http://www.w3.org/Graphics/SVG/1.1/DTD/svg11.dtd">
<svg version="1.1" id="Layer_1" xmlns="http://www.w3.org/2000/svg" xmlns:xlink="http://www.w3.org/1999/xlink" x="0px" y="0px"
	 width="176.066px" height="210.826px" viewBox="0 0 176.066 210.826" enable-background="new 0 0 176.066 210.826"
	 xml:space="preserve">
<g>
	<g>
		<defs>
			<path id="SVGID_19_" d="M12.128,0.376c0,0-11.753,0-11.753,11.753l0.001,120.42c0,0,0,11.753,9.389,18.821l69.585,52.387
				c0,0,9.389,7.069,18.724-0.073l68.281-52.241c0,0,9.334-7.141,9.334-18.894l0.001-120.42c0,0,0-11.753-11.753-11.753H12.128z"/>
		</defs>
		<clipPath id="SVGID_2_">
			<use xlink:href="#SVGID_19_"  overflow="visible"/>
		</clipPath>
		
			<radialGradient id="SVGID_4_" cx="-2847.7163" cy="449.2091" r="1.3059" gradientTransform="matrix(78.9363 0 0 -92.8997 224876.2188 41834.3555)" gradientUnits="userSpaceOnUse">
			<stop  offset="0" style="stop-color:#C7DEA9"/>
			<stop  offset="1" style="stop-color:#C7DEA9"/>
		</radialGradient>
		<rect x="0.375" y="0.376" clip-path="url(#SVGID_2_)" fill="url(#SVGID_4_)" width="175.316" height="210.45"/>
	</g>
	<path fill="none" stroke="#006C83" stroke-width="0.75" d="M175.691,12.128c0,0,0-11.753-11.753-11.753H12.128
		c0,0-11.753,0-11.753,11.753l0.001,120.42c0,0,0,11.753,9.389,18.822l69.585,52.386c0,0,9.389,7.069,18.724-0.072l68.281-52.241
		c0,0,9.335-7.142,9.335-18.895L175.691,12.128z"/>
	<g>
		<path fill="#006C83" d="M35.391,25.602c-0.338,0.188-1.016,0.376-1.883,0.376c-2.009,0-3.521-1.409-3.521-4.006
			c0-2.479,1.512-4.159,3.722-4.159c0.889,0,1.449,0.211,1.692,0.353l-0.222,0.834c-0.35-0.188-0.847-0.329-1.438-0.329
			c-1.671,0-2.781,1.187-2.781,3.267c0,1.938,1.005,3.184,2.739,3.184c0.561,0,1.131-0.129,1.501-0.329L35.391,25.602z"/>
		<path fill="#006C83" d="M41.251,22.97c0,2.104-1.311,3.02-2.548,3.02c-1.386,0-2.453-1.128-2.453-2.925
			c0-1.904,1.121-3.02,2.538-3.02C40.257,20.045,41.251,21.232,41.251,22.97z M37.19,23.029c0,1.246,0.646,2.186,1.555,2.186
			c0.889,0,1.555-0.928,1.555-2.209c0-0.963-0.434-2.185-1.533-2.185S37.19,21.949,37.19,23.029z"/>
		<path fill="#006C83" d="M42.522,21.713c0-0.588-0.011-1.069-0.043-1.539h0.814l0.043,0.916h0.031
			c0.285-0.54,0.762-1.045,1.607-1.045c0.697,0,1.227,0.47,1.449,1.14h0.021c0.159-0.317,0.36-0.564,0.571-0.74
			c0.307-0.259,0.645-0.399,1.131-0.399c0.678,0,1.682,0.493,1.682,2.467v3.349h-0.909v-3.22c0-1.092-0.359-1.75-1.11-1.75
			c-0.529,0-0.941,0.435-1.1,0.939c-0.043,0.142-0.074,0.329-0.074,0.518v3.513h-0.909v-3.407c0-0.904-0.36-1.563-1.068-1.563
			c-0.581,0-1.005,0.517-1.152,1.034c-0.053,0.152-0.074,0.328-0.074,0.505v3.431h-0.909V21.713z"/>
		<path fill="#006C83" d="M51.45,22.031c0-0.729-0.021-1.316-0.043-1.856h0.836l0.043,0.975h0.021
			c0.381-0.692,0.983-1.104,1.819-1.104c1.236,0,2.167,1.163,2.167,2.89c0,2.045-1.12,3.055-2.326,3.055
			c-0.677,0-1.269-0.329-1.575-0.893H52.37v3.09h-0.92V22.031z M52.37,23.546c0,0.152,0.021,0.294,0.043,0.423
			c0.168,0.717,0.729,1.21,1.395,1.21c0.984,0,1.555-0.893,1.555-2.197c0-1.14-0.539-2.114-1.522-2.114
			c-0.634,0-1.227,0.505-1.406,1.28c-0.032,0.129-0.063,0.282-0.063,0.423V23.546z"/>
		<path fill="#006C83" d="M60.397,25.861l-0.074-0.717h-0.031c-0.285,0.446-0.836,0.846-1.564,0.846
			c-1.037,0-1.565-0.811-1.565-1.633c0-1.375,1.1-2.127,3.077-2.115v-0.117c0-0.47-0.116-1.315-1.163-1.315
			c-0.476,0-0.974,0.164-1.333,0.423l-0.211-0.682c0.423-0.306,1.036-0.505,1.682-0.505c1.564,0,1.945,1.187,1.945,2.326v2.126
			c0,0.494,0.021,0.976,0.084,1.363H60.397z M60.26,22.958c-1.016-0.023-2.168,0.177-2.168,1.281c0,0.669,0.402,0.986,0.877,0.986
			c0.667,0,1.09-0.47,1.238-0.951c0.031-0.106,0.053-0.224,0.053-0.329V22.958z"/>
		<path fill="#006C83" d="M62.756,21.949c0-0.67-0.01-1.246-0.042-1.774h0.814l0.032,1.116h0.041
			c0.233-0.764,0.794-1.245,1.418-1.245c0.105,0,0.18,0.012,0.264,0.035v0.975c-0.095-0.023-0.189-0.035-0.316-0.035
			c-0.656,0-1.121,0.553-1.248,1.328c-0.021,0.141-0.043,0.305-0.043,0.481v3.031h-0.92V21.949z"/>
		<path fill="#006C83" d="M66.829,23.205c0.021,1.398,0.825,1.974,1.756,1.974c0.666,0,1.068-0.129,1.417-0.294l0.159,0.74
			c-0.328,0.165-0.889,0.353-1.703,0.353c-1.576,0-2.517-1.151-2.517-2.866c0-1.716,0.909-3.066,2.4-3.066
			c1.671,0,2.114,1.633,2.114,2.679c0,0.211-0.021,0.376-0.031,0.481H66.829z M69.557,22.465c0.011-0.658-0.243-1.68-1.29-1.68
			c-0.94,0-1.354,0.963-1.427,1.68H69.557z"/>
		<path fill="#006C83" d="M76.126,17.519v6.873c0,0.505,0.011,1.081,0.043,1.469h-0.836l-0.043-0.987h-0.021
			c-0.286,0.635-0.909,1.116-1.745,1.116c-1.236,0-2.188-1.163-2.188-2.89c-0.011-1.892,1.047-3.055,2.294-3.055
			c0.783,0,1.313,0.411,1.545,0.869h0.021v-3.396H76.126z M75.195,22.489c0-0.129-0.011-0.306-0.042-0.435
			c-0.138-0.658-0.645-1.198-1.343-1.198c-0.962,0-1.534,0.939-1.534,2.197c0,1.151,0.508,2.103,1.513,2.103
			c0.624,0,1.194-0.458,1.364-1.233c0.031-0.142,0.042-0.282,0.042-0.446V22.489z"/>
		<path fill="#006C83" d="M80.485,20.174l0.677,2.891c0.147,0.634,0.286,1.222,0.381,1.809h0.031
			c0.116-0.575,0.286-1.187,0.455-1.797l0.835-2.902h0.783l0.793,2.843c0.189,0.682,0.338,1.281,0.455,1.856h0.031
			c0.084-0.575,0.222-1.175,0.391-1.845l0.73-2.854h0.92l-1.65,5.687h-0.846l-0.782-2.714c-0.18-0.635-0.328-1.198-0.455-1.868
			h-0.021c-0.127,0.682-0.286,1.269-0.466,1.88l-0.825,2.702h-0.846l-1.543-5.687H80.485z"/>
		<path fill="#006C83" d="M89.042,18.577c0.012,0.353-0.222,0.634-0.592,0.634c-0.328,0-0.561-0.281-0.561-0.634
			c0-0.364,0.244-0.646,0.582-0.646C88.82,17.93,89.042,18.212,89.042,18.577z M88.006,25.861v-5.687h0.93v5.687H88.006z"/>
		<path fill="#006C83" d="M91.708,18.541v1.633h1.332v0.787h-1.332v3.066c0,0.705,0.18,1.104,0.697,1.104
			c0.244,0,0.424-0.035,0.539-0.07l0.043,0.775c-0.18,0.082-0.465,0.141-0.824,0.141c-0.434,0-0.783-0.152-1.006-0.435
			c-0.264-0.306-0.359-0.811-0.359-1.48v-3.102h-0.793v-0.787h0.793v-1.363L91.708,18.541z"/>
		<path fill="#006C83" d="M94.183,17.519h0.931v3.548h0.021c0.147-0.294,0.381-0.552,0.666-0.729
			c0.274-0.176,0.603-0.293,0.951-0.293c0.688,0,1.787,0.47,1.787,2.432v3.384h-0.93v-3.267c0-0.916-0.308-1.691-1.186-1.691
			c-0.602,0-1.078,0.47-1.247,1.034c-0.054,0.141-0.063,0.293-0.063,0.493v3.431h-0.931V17.519z"/>
		<path fill="#006C83" d="M102.497,22.031c0-0.729-0.021-1.316-0.042-1.856h0.835l0.043,0.975h0.021
			c0.381-0.692,0.982-1.104,1.818-1.104c1.237,0,2.168,1.163,2.168,2.89c0,2.045-1.121,3.055-2.326,3.055
			c-0.678,0-1.27-0.329-1.576-0.893h-0.021v3.09h-0.92V22.031z M103.417,23.546c0,0.152,0.021,0.294,0.043,0.423
			c0.169,0.717,0.729,1.21,1.396,1.21c0.983,0,1.555-0.893,1.555-2.197c0-1.14-0.54-2.114-1.522-2.114
			c-0.635,0-1.227,0.505-1.406,1.28c-0.032,0.129-0.064,0.282-0.064,0.423V23.546z"/>
		<path fill="#006C83" d="M108.611,17.519h0.931v8.342h-0.931V17.519z"/>
		<path fill="#006C83" d="M114.047,25.861l-0.074-0.717h-0.032c-0.285,0.446-0.835,0.846-1.565,0.846
			c-1.035,0-1.564-0.811-1.564-1.633c0-1.375,1.1-2.127,3.077-2.115v-0.117c0-0.47-0.116-1.315-1.163-1.315
			c-0.477,0-0.973,0.164-1.332,0.423l-0.212-0.682c0.423-0.306,1.036-0.505,1.681-0.505c1.565,0,1.946,1.187,1.946,2.326v2.126
			c0,0.494,0.021,0.976,0.085,1.363H114.047z M113.909,22.958c-1.015-0.023-2.167,0.177-2.167,1.281
			c0,0.669,0.401,0.986,0.878,0.986c0.666,0,1.089-0.47,1.236-0.951c0.032-0.106,0.053-0.224,0.053-0.329V22.958z"/>
		<path fill="#006C83" d="M120.054,25.649c-0.243,0.142-0.782,0.329-1.47,0.329c-1.544,0-2.549-1.163-2.549-2.901
			c0-1.751,1.079-3.02,2.75-3.02c0.55,0,1.036,0.152,1.29,0.293l-0.212,0.799c-0.222-0.141-0.57-0.27-1.078-0.27
			c-1.174,0-1.809,0.963-1.809,2.149c0,1.316,0.762,2.127,1.777,2.127c0.527,0,0.877-0.152,1.141-0.282L120.054,25.649z"/>
		<path fill="#006C83" d="M121.769,23.205c0.021,1.398,0.825,1.974,1.755,1.974c0.666,0,1.068-0.129,1.418-0.294l0.158,0.74
			c-0.328,0.165-0.889,0.353-1.703,0.353c-1.575,0-2.516-1.151-2.516-2.866c0-1.716,0.908-3.066,2.4-3.066
			c1.67,0,2.114,1.633,2.114,2.679c0,0.211-0.021,0.376-0.032,0.481H121.769z M124.497,22.465c0.012-0.658-0.242-1.68-1.289-1.68
			c-0.941,0-1.354,0.963-1.428,1.68H124.497z"/>
		<path fill="#006C83" d="M126.603,25.861c0.021-0.388,0.042-0.964,0.042-1.469v-6.873h0.92v3.571h0.021
			c0.328-0.634,0.92-1.045,1.745-1.045c1.269,0,2.167,1.175,2.157,2.901c0,2.033-1.152,3.043-2.295,3.043
			c-0.74,0-1.332-0.317-1.713-1.069h-0.031l-0.043,0.94H126.603z M127.565,23.581c0,0.129,0.021,0.259,0.043,0.376
			c0.18,0.717,0.719,1.21,1.396,1.21c0.974,0,1.555-0.881,1.555-2.186c0-1.14-0.528-2.114-1.522-2.114
			c-0.635,0-1.227,0.481-1.418,1.269c-0.021,0.117-0.053,0.259-0.053,0.423V23.581z"/>
		<path fill="#006C83" d="M137.391,22.97c0,2.104-1.312,3.02-2.549,3.02c-1.385,0-2.453-1.128-2.453-2.925
			c0-1.904,1.121-3.02,2.537-3.02C136.397,20.045,137.391,21.232,137.391,22.97z M133.331,23.029c0,1.246,0.645,2.186,1.555,2.186
			c0.888,0,1.554-0.928,1.554-2.209c0-0.963-0.434-2.185-1.533-2.185S133.331,21.949,133.331,23.029z"/>
		<path fill="#006C83" d="M138.059,27.306c0.232-0.693,0.518-1.95,0.635-2.809l1.035-0.117c-0.242,0.999-0.708,2.303-1.004,2.855
			L138.059,27.306z"/>
	</g>
	<g>
		<path fill="#006C83" d="M27.328,31.001h0.92v7.062h3.046v0.857h-3.966V31.001z"/>
		<path fill="#006C83" d="M33.335,31.001v7.919h-0.92v-7.919H33.335z"/>
		<path fill="#006C83" d="M35.039,31.095c0.444-0.082,1.026-0.152,1.766-0.152c0.909,0,1.575,0.234,1.999,0.658
			c0.391,0.376,0.623,0.951,0.623,1.656c0,0.717-0.189,1.28-0.549,1.691c-0.486,0.576-1.279,0.87-2.179,0.87
			c-0.274,0-0.528-0.012-0.74-0.07v3.172h-0.92V31.095z M35.959,34.913c0.2,0.06,0.454,0.083,0.761,0.083
			c1.111,0,1.787-0.6,1.787-1.692c0-1.046-0.666-1.551-1.681-1.551c-0.401,0-0.708,0.035-0.867,0.082V34.913z"/>
		<path fill="#006C83" d="M41.681,31.001v7.919h-0.92v-7.919H41.681z"/>
		<path fill="#006C83" d="M44.547,31.87h-2.168v-0.869h5.277v0.869h-2.179v7.05h-0.931V31.87z"/>
		<path fill="#006C83" d="M54.066,34.878c0,2.726-1.491,4.171-3.31,4.171c-1.883,0-3.204-1.621-3.204-4.018
			c0-2.515,1.406-4.159,3.31-4.159C52.807,30.872,54.066,32.529,54.066,34.878z M48.536,35.008c0,1.691,0.824,3.207,2.273,3.207
			c1.459,0,2.284-1.492,2.284-3.29c0-1.574-0.74-3.219-2.274-3.219C49.297,31.706,48.536,33.269,48.536,35.008z"/>
		<path fill="#006C83" d="M55.369,31.107c0.466-0.105,1.132-0.164,1.766-0.164c0.983,0,1.618,0.199,2.062,0.646
			c0.36,0.353,0.561,0.894,0.561,1.504c0,1.046-0.592,1.739-1.342,2.021v0.035c0.549,0.212,0.877,0.775,1.047,1.598
			c0.232,1.104,0.401,1.868,0.549,2.174h-0.951c-0.116-0.224-0.275-0.904-0.477-1.892c-0.211-1.093-0.592-1.504-1.427-1.539h-0.867
			v3.431h-0.92V31.107z M56.289,34.714h0.94c0.984,0,1.607-0.6,1.607-1.504c0-1.022-0.666-1.469-1.639-1.48
			c-0.443,0-0.762,0.047-0.909,0.094V34.714z"/>
	</g>
	<g>
		<path fill="#006C83" d="M68.193,31.437c0,0.637-0.45,1.137-1.036,1.137c-0.579,0-1.041-0.5-1.041-1.137
			c0-0.624,0.462-1.124,1.041-1.124C67.743,30.313,68.193,30.813,68.193,31.437z M66.375,31.437c0,0.5,0.333,0.897,0.789,0.897
			c0.444,0,0.771-0.397,0.771-0.891c0-0.5-0.326-0.904-0.777-0.904C66.708,30.539,66.375,30.944,66.375,31.437z M66.997,32.026
			h-0.234v-1.123c0.094-0.021,0.223-0.034,0.389-0.034c0.191,0,0.277,0.034,0.352,0.082c0.056,0.048,0.099,0.137,0.099,0.246
			c0,0.124-0.086,0.22-0.21,0.261v0.014c0.1,0.041,0.154,0.123,0.186,0.274c0.031,0.171,0.049,0.239,0.074,0.28h-0.253
			c-0.031-0.041-0.05-0.144-0.08-0.273c-0.019-0.124-0.081-0.179-0.21-0.179h-0.111V32.026z M67.003,31.389h0.11
			c0.13,0,0.234-0.048,0.234-0.165c0-0.103-0.067-0.171-0.215-0.171c-0.063,0-0.105,0.007-0.13,0.014V31.389z"/>
	</g>
	<g>
		<path fill="#006C83" d="M75.129,32.246h-0.021l-1.195,0.717l-0.18-0.787l1.502-0.893h0.793v7.637h-0.898V32.246z"/>
		<path fill="#006C83" d="M82.417,35.02c0,2.597-0.867,4.029-2.391,4.029c-1.343,0-2.252-1.397-2.273-3.924
			c0-2.562,0.994-3.972,2.391-3.972C81.591,31.154,82.417,32.587,82.417,35.02z M78.683,35.137c0,1.985,0.55,3.113,1.396,3.113
			c0.952,0,1.406-1.233,1.406-3.184c0-1.88-0.434-3.114-1.395-3.114C79.276,31.953,78.683,33.057,78.683,35.137z"/>
		<path fill="#006C83" d="M86.014,34.773c0-0.588-0.012-1.069-0.043-1.539h0.814l0.042,0.916h0.032
			c0.285-0.54,0.762-1.045,1.607-1.045c0.697,0,1.227,0.47,1.448,1.14h0.021c0.159-0.317,0.36-0.564,0.572-0.74
			c0.307-0.259,0.645-0.399,1.131-0.399c0.677,0,1.682,0.493,1.682,2.467v3.349h-0.91v-3.22c0-1.092-0.359-1.75-1.109-1.75
			c-0.529,0-0.941,0.435-1.1,0.939c-0.043,0.142-0.074,0.329-0.074,0.518v3.513h-0.91v-3.407c0-0.904-0.359-1.563-1.068-1.563
			c-0.581,0-1.004,0.517-1.152,1.034c-0.053,0.152-0.074,0.328-0.074,0.505v3.431h-0.908V34.773z"/>
		<path fill="#006C83" d="M99.35,33.234c-0.021,0.411-0.042,0.869-0.042,1.563v3.302c0,1.304-0.232,2.103-0.729,2.597
			c-0.497,0.517-1.217,0.682-1.861,0.682c-0.613,0-1.29-0.165-1.702-0.471l0.232-0.787c0.339,0.235,0.867,0.446,1.501,0.446
			c0.952,0,1.65-0.552,1.65-1.985v-0.635h-0.021c-0.285,0.529-0.836,0.952-1.629,0.952c-1.269,0-2.178-1.198-2.178-2.772
			c0-1.928,1.131-3.02,2.305-3.02c0.889,0,1.375,0.517,1.598,0.986h0.021l0.042-0.857H99.35z M98.388,35.478
			c0-0.177-0.011-0.329-0.053-0.47c-0.169-0.6-0.624-1.093-1.301-1.093c-0.888,0-1.522,0.834-1.522,2.149
			c0,1.116,0.508,2.045,1.512,2.045c0.571,0,1.09-0.399,1.29-1.058c0.054-0.176,0.074-0.376,0.074-0.552V35.478z"/>
		<path fill="#006C83" d="M103.287,35.09c0-0.729-0.021-1.316-0.042-1.856h0.835l0.042,0.975h0.021
			c0.381-0.692,0.983-1.104,1.818-1.104c1.238,0,2.168,1.163,2.168,2.89c0,2.045-1.121,3.055-2.326,3.055
			c-0.677,0-1.27-0.329-1.576-0.893h-0.021v3.09h-0.92V35.09z M104.207,36.606c0,0.152,0.021,0.294,0.042,0.423
			c0.17,0.717,0.73,1.21,1.396,1.21c0.982,0,1.555-0.893,1.555-2.197c0-1.14-0.54-2.114-1.523-2.114
			c-0.635,0-1.227,0.505-1.406,1.28c-0.031,0.129-0.063,0.282-0.063,0.423V36.606z"/>
		<path fill="#006C83" d="M109.401,35.008c0-0.67-0.012-1.246-0.043-1.774h0.814l0.031,1.116h0.043
			c0.232-0.764,0.793-1.245,1.416-1.245c0.106,0,0.181,0.012,0.266,0.035v0.975c-0.096-0.023-0.191-0.035-0.318-0.035
			c-0.655,0-1.12,0.553-1.247,1.328c-0.021,0.141-0.042,0.305-0.042,0.481v3.031h-0.92V35.008z"/>
		<path fill="#006C83" d="M117.586,36.03c0,2.104-1.312,3.02-2.549,3.02c-1.385,0-2.453-1.128-2.453-2.925
			c0-1.903,1.121-3.02,2.537-3.02C116.592,33.105,117.586,34.291,117.586,36.03z M113.526,36.088c0,1.246,0.645,2.186,1.555,2.186
			c0.888,0,1.554-0.928,1.554-2.209c0-0.963-0.434-2.185-1.533-2.185S113.526,35.008,113.526,36.088z"/>
		<path fill="#006C83" d="M119.026,33.234l1.005,3.195c0.169,0.518,0.307,0.987,0.412,1.457h0.032
			c0.115-0.47,0.264-0.939,0.434-1.457l0.994-3.195h0.973l-2.01,5.687h-0.889l-1.945-5.687H119.026z"/>
		<path fill="#006C83" d="M124.885,31.636c0.012,0.353-0.222,0.634-0.592,0.634c-0.328,0-0.561-0.281-0.561-0.634
			c0-0.364,0.244-0.646,0.582-0.646C124.664,30.99,124.885,31.272,124.885,31.636z M123.85,38.92v-5.687h0.93v5.687H123.85z"/>
		<path fill="#006C83" d="M130.85,30.578v6.873c0,0.505,0.011,1.081,0.043,1.469h-0.836l-0.043-0.987h-0.021
			c-0.286,0.635-0.909,1.116-1.745,1.116c-1.236,0-2.188-1.163-2.188-2.89c-0.011-1.892,1.047-3.055,2.294-3.055
			c0.783,0,1.313,0.411,1.545,0.869h0.021v-3.396H130.85z M129.919,35.548c0-0.129-0.011-0.306-0.042-0.435
			c-0.138-0.658-0.645-1.198-1.343-1.198c-0.962,0-1.534,0.939-1.534,2.197c0,1.151,0.508,2.103,1.513,2.103
			c0.624,0,1.194-0.458,1.364-1.233c0.031-0.142,0.042-0.282,0.042-0.446V35.548z"/>
		<path fill="#006C83" d="M133.009,36.265c0.021,1.398,0.825,1.974,1.755,1.974c0.666,0,1.068-0.129,1.418-0.294l0.158,0.74
			c-0.328,0.165-0.889,0.353-1.703,0.353c-1.575,0-2.516-1.151-2.516-2.866c0-1.716,0.908-3.066,2.4-3.066
			c1.67,0,2.114,1.633,2.114,2.679c0,0.211-0.021,0.376-0.032,0.481H133.009z M135.737,35.525c0.012-0.658-0.242-1.681-1.289-1.681
			c-0.941,0-1.354,0.964-1.428,1.681H135.737z"/>
		<path fill="#006C83" d="M142.305,30.578v6.873c0,0.505,0.012,1.081,0.043,1.469h-0.836l-0.042-0.987h-0.021
			c-0.286,0.635-0.91,1.116-1.745,1.116c-1.237,0-2.188-1.163-2.188-2.89c-0.012-1.892,1.047-3.055,2.294-3.055
			c0.782,0,1.312,0.411,1.544,0.869h0.021v-3.396H142.305z M141.376,35.548c0-0.129-0.011-0.306-0.043-0.435
			c-0.137-0.658-0.645-1.198-1.343-1.198c-0.962,0-1.533,0.939-1.533,2.197c0,1.151,0.508,2.103,1.513,2.103
			c0.623,0,1.194-0.458,1.363-1.233c0.032-0.142,0.043-0.282,0.043-0.446V35.548z"/>
		<path fill="#006C83" d="M143.735,34.173c0-0.435,0.266-0.74,0.635-0.74c0.37,0,0.613,0.306,0.624,0.74
			c0,0.411-0.243,0.729-0.634,0.729C143.989,34.902,143.735,34.584,143.735,34.173z M143.735,38.321c0-0.435,0.266-0.74,0.635-0.74
			c0.37,0,0.613,0.306,0.624,0.74c0,0.412-0.243,0.729-0.634,0.729C143.989,39.049,143.735,38.733,143.735,38.321z"/>
	</g>
	<g>
		<path fill="#004F63" d="M53.223,83.974c0.064,1.437,0.457,6.072,5.876,6.072c3.656,0,5.876-2.678,5.876-6.203
			c0-6.726-6.464-6.726-11.23-6.726v-7.639c4.57-0.131,11.296-0.262,11.296-6.79c0-3.592-2.677-5.42-5.615-5.42
			c-2.808,0-5.55,1.894-5.55,5.681h-9.99c0.196-2.024,0.393-4.896,2.678-7.704c3.004-3.657,7.835-5.028,12.666-5.028
			c11.623,0,15.344,7.443,15.344,12.406c0,7.639-6.725,9.729-8.748,10.315c1.436,0.458,3.329,1.045,5.418,2.808
			c3.2,2.678,3.723,6.008,3.723,8.162c0,7.704-7.052,13.45-16.52,13.45c-3.264,0-8.031-0.719-10.969-3.069
			c-4.049-3.329-4.179-8.487-4.179-10.315H53.223z"/>
		<path fill="#004F63" d="M102.389,62.101c-0.196-3.265-2.351-4.505-4.767-4.505c-6.529,0-6.726,8.096-6.855,12.797
			c1.632-1.502,4.179-3.656,8.944-3.656c6.334,0,13.059,4.505,13.059,14.43c0,5.027-1.371,8.684-4.831,11.883
			c-3.003,2.808-6.529,4.244-11.622,4.244c-15.735,0-15.735-15.278-15.735-20.697c0-9.142,1.175-18.608,7.378-23.179
			c3.982-3.004,8.749-3.2,10.512-3.2c6.855,0,13.385,3.526,13.581,11.884H102.389z M103.172,81.819c0-5.027-2.611-7.835-5.876-7.835
			c-1.632,0-6.595,0.979-6.595,8.031c0,5.615,3.004,7.966,6.203,7.966C99.711,89.981,103.172,88.022,103.172,81.819z"/>
	</g>
	<g>
		<path fill="#004F63" d="M122.84,84.524c0,2.753-1.621,4.019-3.641,4.019c-1.932,0-3.575-1.154-3.575-3.886
			c0-2.331,1.266-4.063,3.774-4.063C121.952,80.594,122.84,82.503,122.84,84.524z M121.086,84.613c0-1.088-0.267-2.687-1.843-2.687
			c-1.909,0-1.909,2.176-1.909,2.709c0,0.51,0,2.619,1.909,2.619C121.086,87.254,121.086,85.056,121.086,84.613z M118.578,97.245
			l9.79-17.096h1.466l-9.79,17.096H118.578z M132.121,89.763c0.399,0.444,0.91,1.154,0.91,2.819c0,2.42-1.177,4.063-3.575,4.063
			c-2.842,0-3.641-2.109-3.641-3.952c0-2.687,1.666-3.996,3.641-3.996C130.055,88.698,131.254,88.809,132.121,89.763z
			 M131.343,92.627c0-0.688-0.134-2.687-1.864-2.687c-1.91,0-1.91,2.309-1.91,2.975c0,0.777,0.178,2.42,1.865,2.42
			C131.209,95.335,131.343,93.426,131.343,92.627z"/>
	</g>
	<g>
		<path fill="#004F63" d="M34.793,119.885h-2.271v-11.314h4.197c1.551,0,2.543,1.034,2.543,2.962c0,1.441-0.541,2.523-2.016,2.773
			v0.031c0.496,0.063,1.971,0.188,1.971,2.226c0,0.721,0.045,2.853,0.256,3.322h-2.227c-0.301-0.689-0.24-1.457-0.24-2.194
			c0-1.348,0.119-2.491-1.625-2.491h-0.588V119.885z M34.793,113.46h1.009c0.903,0,1.158-0.94,1.158-1.661
			c0-1.081-0.437-1.489-1.158-1.489h-1.009V113.46z"/>
		<path fill="#004F63" d="M43.159,119.885h-2.271v-11.314h4.197c1.549,0,2.543,1.034,2.543,2.962c0,1.441-0.542,2.523-2.017,2.773
			v0.031c0.497,0.063,1.971,0.188,1.971,2.226c0,0.721,0.046,2.853,0.256,3.322h-2.227c-0.301-0.689-0.241-1.457-0.241-2.194
			c0-1.348,0.121-2.491-1.625-2.491h-0.586V119.885z M43.159,113.46h1.008c0.902,0,1.158-0.94,1.158-1.661
			c0-1.081-0.436-1.489-1.158-1.489h-1.008V113.46z"/>
		<path fill="#004F63" d="M51.523,119.885h-2.271v-11.314h4.197c1.55,0,2.543,1.034,2.543,2.962c0,1.441-0.542,2.523-2.017,2.773
			v0.031c0.497,0.063,1.971,0.188,1.971,2.226c0,0.721,0.046,2.853,0.256,3.322h-2.227c-0.301-0.689-0.24-1.457-0.24-2.194
			c0-1.348,0.12-2.491-1.625-2.491h-0.587V119.885z M51.523,113.46h1.009c0.902,0,1.158-0.94,1.158-1.661
			c0-1.081-0.437-1.489-1.158-1.489h-1.009V113.46z"/>
		<path fill="#004F63" d="M63.197,108.571v1.739h-2.122v-1.739H63.197z M63.197,119.885h-2.122v-7.914h2.122V119.885z"/>
		<path fill="#004F63" d="M67.198,112.771h0.031c0.21-0.36,0.466-0.596,0.752-0.736c0.301-0.157,0.646-0.22,1.037-0.22
			c1.009,0,1.896,0.627,1.896,1.724v6.347h-2.121v-5.453c0-0.705-0.121-1.254-0.798-1.254s-0.798,0.549-0.798,1.254v5.453h-2.121
			v-7.914h2.121V112.771z"/>
		<path fill="#004F63" d="M75.081,111.971h0.858v-1.253l2.121-0.987v2.24h1.099v1.363H78.06v4.231c0,0.596-0.015,0.987,0.677,0.987
			c0.136,0,0.271,0,0.377-0.031v1.363c-0.286,0.031-0.588,0.078-1.099,0.078c-1.836,0-2.076-1.27-2.076-1.755v-4.874h-0.858V111.971
			z"/>
		<path fill="#004F63" d="M83.836,119.885v-5.453c0-0.705-0.119-1.254-0.797-1.254c-0.677,0-0.797,0.549-0.797,1.254v5.453h-2.122
			v-11.314h2.122v4.2h0.029c0.211-0.36,0.467-0.596,0.752-0.736c0.302-0.157,0.647-0.22,1.039-0.22c1.008,0,1.896,0.627,1.896,1.724
			v6.347H83.836z"/>
		<path fill="#004F63" d="M89.598,116.281c0,0.94,0.031,2.351,0.963,2.351c0.753,0,0.903-0.752,0.903-1.41h2.151
			c-0.03,0.862-0.301,1.567-0.813,2.053c-0.496,0.486-1.248,0.768-2.242,0.768c-2.738,0-3.099-1.739-3.099-4.215
			c0-2.163,0.301-4.012,3.099-4.012c2.859,0,3.176,1.928,3.1,4.466H89.598z M91.54,115.043c0-0.769,0.03-1.865-0.979-1.865
			c-0.978,0-0.963,1.191-0.963,1.865H91.54z"/>
		<path fill="#004F63" d="M100.52,111.971v0.878h0.03c0.392-0.768,0.978-1.034,1.79-1.034c2.197,0,2.121,2.538,2.121,4.168
			c0,1.599,0.061,4.059-2.076,4.059c-0.767,0-1.293-0.234-1.729-0.908h-0.03v4.152h-2.121v-11.314H100.52z M102.385,115.858
			c0-1.583,0.016-2.68-0.902-2.68c-0.873,0-0.857,1.097-0.857,2.68c0,1.99,0.135,2.82,0.857,2.82
			C102.251,118.678,102.385,117.848,102.385,115.858z"/>
		<path fill="#004F63" d="M108.042,111.971v1.019h0.031c0.391-0.908,1.113-1.175,1.971-1.175v1.975
			c-1.865-0.126-1.896,1.003-1.896,1.786v4.31h-2.121v-7.914H108.042z"/>
		<path fill="#004F63" d="M113.337,108.571v1.739h-2.122v-1.739H113.337z M113.337,119.885h-2.122v-7.914h2.122V119.885z"/>
		<path fill="#004F63" d="M117.174,112.771h0.029c0.422-0.705,0.993-0.956,1.791-0.956c0.752,0,1.354,0.376,1.699,1.003
			c0.497-0.689,1.1-1.003,1.972-1.003c1.008,0,1.896,0.627,1.896,1.724v6.347h-2.121v-5.453c0-0.705-0.121-1.254-0.798-1.254
			s-0.798,0.549-0.798,1.254v5.453h-2.076v-5.453c0-0.705-0.119-1.254-0.797-1.254c-0.677,0-0.797,0.549-0.797,1.254v5.453h-2.121
			v-7.914h2.121V112.771z"/>
		<path fill="#004F63" d="M131.842,118.412c0,0.485,0.06,0.987,0.104,1.473h-1.971l-0.091-1.05h-0.029
			c-0.451,0.814-1.068,1.206-1.986,1.206c-1.475,0-2.016-1.144-2.016-2.522c0-2.617,1.94-2.727,3.912-2.695v-0.611
			c0-0.674-0.091-1.159-0.858-1.159c-0.737,0-0.798,0.579-0.798,1.206h-2.076c0-0.956,0.286-1.567,0.783-1.928
			c0.48-0.376,1.174-0.517,1.986-0.517c2.692,0,3.039,1.206,3.039,2.648V118.412z M127.93,117.425c0,0.563,0.09,1.253,0.782,1.253
			c1.249,0,1.054-1.755,1.054-2.616C128.712,116.109,127.93,116.014,127.93,117.425z"/>
		<path fill="#004F63" d="M135.618,111.971v1.019h0.029c0.392-0.908,1.113-1.175,1.971-1.175v1.975
			c-1.865-0.126-1.895,1.003-1.895,1.786v4.31h-2.122v-7.914H135.618z"/>
		<path fill="#004F63" d="M139.965,119.948l-2.063-7.977h2.107l1.083,5.563h0.03l1.143-5.563h2.047l-2.934,10.907h-2.227
			L139.965,119.948z"/>
	</g>
	<g>
		<path fill="#004F63" d="M17.284,133.257c0,0.94,0.029,2.351,0.963,2.351c0.752,0,0.902-0.752,0.902-1.41H21.3
			c-0.03,0.862-0.301,1.567-0.813,2.053c-0.497,0.486-1.249,0.768-2.241,0.768c-2.738,0-3.1-1.739-3.1-4.215
			c0-2.163,0.301-4.012,3.1-4.012c2.858,0,3.174,1.928,3.099,4.466H17.284z M19.224,132.02c0-0.769,0.03-1.865-0.978-1.865
			c-0.979,0-0.963,1.191-0.963,1.865H19.224z"/>
		<path fill="#004F63" d="M24.971,129.747h0.029c0.211-0.36,0.467-0.596,0.752-0.736c0.302-0.157,0.647-0.22,1.039-0.22
			c1.008,0,1.896,0.627,1.896,1.724v6.347h-2.122v-5.453c0-0.705-0.119-1.254-0.797-1.254c-0.677,0-0.797,0.549-0.797,1.254v5.453
			h-2.122v-7.914h2.122V129.747z"/>
		<path fill="#004F63" d="M34.163,136.862v-0.878h-0.029c-0.392,0.769-0.979,1.034-1.791,1.034c-2.197,0-2.121-2.538-2.121-4.168
			c0-1.599-0.061-4.059,2.076-4.059c0.768,0,1.293,0.235,1.73,0.909h0.029v-4.153h2.121v11.314H34.163z M34.057,132.834
			c0-1.583,0.016-2.68-0.857-2.68c-0.918,0-0.902,1.097-0.902,2.68c0,1.99,0.135,2.82,0.902,2.82
			C33.922,135.655,34.057,134.825,34.057,132.834z"/>
		<path fill="#004F63" d="M39.909,128.948v0.878h0.031c0.391-0.768,0.978-1.034,1.79-1.034c2.196,0,2.121,2.538,2.121,4.168
			c0,1.599,0.061,4.059-2.076,4.059c-0.767,0-1.294-0.234-1.729-0.908h-0.031v4.152h-2.121v-11.314H39.909z M41.775,132.834
			c0-1.583,0.015-2.68-0.903-2.68c-0.872,0-0.857,1.097-0.857,2.68c0,1.99,0.136,2.82,0.857,2.82
			C41.639,135.655,41.775,134.825,41.775,132.834z"/>
		<path fill="#004F63" d="M45.235,132.803c0-2.163,0.301-4.012,3.1-4.012c2.798,0,3.099,1.849,3.099,4.012
			c0,2.476-0.36,4.215-3.099,4.215S45.235,135.279,45.235,132.803z M49.312,132.677c0-1.645-0.075-2.476-0.978-2.476
			c-0.903,0-0.979,0.831-0.979,2.476c0,2.414,0.195,2.931,0.979,2.931C49.116,135.608,49.312,135.091,49.312,132.677z"/>
		<path fill="#004F63" d="M55.239,125.547v1.739h-2.121v-1.739H55.239z M55.239,136.862h-2.121v-7.914h2.121V136.862z"/>
		<path fill="#004F63" d="M59.241,129.747h0.03c0.21-0.36,0.466-0.596,0.752-0.736c0.302-0.157,0.647-0.22,1.038-0.22
			c1.008,0,1.896,0.627,1.896,1.724v6.347h-2.122v-5.453c0-0.705-0.12-1.254-0.798-1.254c-0.676,0-0.797,0.549-0.797,1.254v5.453
			H57.12v-7.914h2.121V129.747z"/>
		<path fill="#004F63" d="M63.784,128.948h0.857v-1.253l2.121-0.987v2.24h1.099v1.363h-1.099v4.231c0,0.596-0.015,0.987,0.678,0.987
			c0.135,0,0.271,0,0.376-0.031v1.363c-0.286,0.031-0.587,0.078-1.099,0.078c-1.835,0-2.076-1.27-2.076-1.755v-4.874h-0.857V128.948
			z"/>
		<path fill="#004F63" d="M71.983,132.803c0-2.163,0.301-4.012,3.099-4.012s3.1,1.849,3.1,4.012c0,2.476-0.361,4.215-3.1,4.215
			S71.983,135.279,71.983,132.803z M76.059,132.677c0-1.645-0.074-2.476-0.978-2.476s-0.978,0.831-0.978,2.476
			c0,2.414,0.195,2.931,0.978,2.931S76.059,135.091,76.059,132.677z"/>
		<path fill="#004F63" d="M82.95,126.911c-0.857-0.063-1.038,0.282-1.038,1.081v0.956h0.993v1.363h-0.993v6.551H79.79v-6.551h-0.947
			v-1.363h0.963c-0.016-2.271-0.195-3.479,2.393-3.479c0.256,0,0.496,0.016,0.752,0.031V126.911z"/>
		<path fill="#004F63" d="M89.329,129.747h0.029c0.211-0.36,0.467-0.596,0.752-0.736c0.302-0.157,0.647-0.22,1.039-0.22
			c1.008,0,1.896,0.627,1.896,1.724v6.347h-2.122v-5.453c0-0.705-0.119-1.254-0.797-1.254c-0.677,0-0.797,0.549-0.797,1.254v5.453
			h-2.122v-7.914h2.122V129.747z"/>
		<path fill="#004F63" d="M94.548,132.803c0-2.163,0.301-4.012,3.099-4.012c2.799,0,3.1,1.849,3.1,4.012
			c0,2.476-0.361,4.215-3.1,4.215S94.548,135.279,94.548,132.803z M98.626,132.677c0-1.645-0.075-2.476-0.979-2.476
			c-0.902,0-0.978,0.831-0.978,2.476c0,2.414,0.196,2.931,0.978,2.931C98.43,135.608,98.626,135.091,98.626,132.677z"/>
		<path fill="#004F63" d="M104.372,129.747h0.031c0.21-0.36,0.466-0.596,0.752-0.736c0.301-0.157,0.646-0.22,1.037-0.22
			c1.009,0,1.896,0.627,1.896,1.724v6.347h-2.121v-5.453c0-0.705-0.121-1.254-0.798-1.254s-0.798,0.549-0.798,1.254v5.453h-2.121
			v-7.914h2.121V129.747z"/>
		<path fill="#004F63" d="M113.278,131.831v1.599h-3.686v-1.599H113.278z"/>
		<path fill="#004F63" d="M118.047,126.911c-0.858-0.063-1.039,0.282-1.039,1.081v0.956h0.993v1.363h-0.993v6.551h-2.121v-6.551
			h-0.947v-1.363h0.963c-0.016-2.271-0.196-3.479,2.392-3.479c0.256,0,0.497,0.016,0.753,0.031V126.911z"/>
		<path fill="#004F63" d="M124.727,135.389c0,0.485,0.06,0.987,0.104,1.473h-1.971l-0.091-1.05h-0.029
			c-0.451,0.814-1.068,1.206-1.986,1.206c-1.475,0-2.016-1.144-2.016-2.522c0-2.617,1.94-2.727,3.912-2.695v-0.611
			c0-0.674-0.091-1.159-0.858-1.159c-0.737,0-0.798,0.579-0.798,1.206h-2.076c0-0.956,0.286-1.567,0.783-1.928
			c0.48-0.376,1.174-0.517,1.986-0.517c2.692,0,3.039,1.206,3.039,2.648V135.389z M120.815,134.402c0,0.563,0.09,1.253,0.782,1.253
			c1.249,0,1.054-1.755,1.054-2.616C121.597,133.085,120.815,132.991,120.815,134.402z"/>
		<path fill="#004F63" d="M125.628,128.948h0.857v-1.253l2.122-0.987v2.24h1.098v1.363h-1.098v4.231
			c0,0.596-0.016,0.987,0.677,0.987c0.136,0,0.271,0,0.376-0.031v1.363c-0.286,0.031-0.587,0.078-1.098,0.078
			c-1.836,0-2.077-1.27-2.077-1.755v-4.874h-0.857V128.948z"/>
		<path fill="#004F63" d="M136.43,135.389c0,0.485,0.061,0.987,0.105,1.473h-1.971l-0.09-1.05h-0.031
			c-0.451,0.814-1.067,1.206-1.985,1.206c-1.474,0-2.017-1.144-2.017-2.522c0-2.617,1.941-2.727,3.912-2.695v-0.611
			c0-0.674-0.09-1.159-0.857-1.159c-0.737,0-0.797,0.579-0.797,1.206h-2.076c0-0.956,0.285-1.567,0.781-1.928
			c0.482-0.376,1.174-0.517,1.986-0.517c2.693,0,3.039,1.206,3.039,2.648V135.389z M132.518,134.402
			c0,0.563,0.091,1.253,0.783,1.253c1.248,0,1.053-1.755,1.053-2.616C133.301,133.085,132.518,132.991,132.518,134.402z"/>
		<path fill="#004F63" d="M140.493,125.547v11.314h-2.122v-11.314H140.493z"/>
		<path fill="#004F63" d="M145.772,136.862v-11.314h3.656l1.7,7.694h0.03l1.805-7.694h3.536v11.314h-2.212v-8.729h-0.029
			l-2.092,8.729h-2.166l-1.986-8.729h-0.03v8.729H145.772z"/>
		<path fill="#004F63" d="M158.348,136.862v-11.314h2.272v11.314H158.348z"/>
	</g>
	<g>
		<path fill="#004F63" d="M52.846,152.366c0,0.485,0.061,0.987,0.105,1.473h-1.971l-0.09-1.05H50.86
			c-0.451,0.814-1.067,1.206-1.985,1.206c-1.474,0-2.017-1.144-2.017-2.522c0-2.617,1.941-2.727,3.912-2.695v-0.611
			c0-0.674-0.09-1.159-0.857-1.159c-0.737,0-0.797,0.579-0.797,1.206H47.04c0-0.956,0.285-1.567,0.781-1.928
			c0.482-0.376,1.174-0.517,1.986-0.517c2.693,0,3.039,1.206,3.039,2.648V152.366z M48.934,151.378c0,0.563,0.091,1.253,0.783,1.253
			c1.248,0,1.053-1.755,1.053-2.616C49.717,150.062,48.934,149.967,48.934,151.378z"/>
		<path fill="#004F63" d="M56.727,146.724h0.031c0.21-0.36,0.466-0.596,0.752-0.736c0.301-0.157,0.646-0.22,1.037-0.22
			c1.009,0,1.896,0.627,1.896,1.724v6.347h-2.121v-5.453c0-0.705-0.121-1.254-0.798-1.254s-0.798,0.549-0.798,1.254v5.453h-2.121
			v-7.914h2.121V146.724z"/>
		<path fill="#004F63" d="M65.919,153.838v-0.878h-0.03c-0.391,0.769-0.978,1.034-1.79,1.034c-2.196,0-2.122-2.538-2.122-4.168
			c0-1.599-0.06-4.059,2.077-4.059c0.767,0,1.294,0.235,1.729,0.909h0.031v-4.153h2.121v11.314H65.919z M65.815,149.811
			c0-1.583,0.014-2.68-0.858-2.68c-0.917,0-0.902,1.097-0.902,2.68c0,1.99,0.136,2.82,0.902,2.82
			C65.678,152.631,65.815,151.801,65.815,149.811z"/>
		<path fill="#004F63" d="M76.254,143.887c-0.857-0.063-1.038,0.282-1.038,1.081v0.956h0.993v1.363h-0.993v6.551h-2.122v-6.551
			h-0.947v-1.363h0.963c-0.016-2.271-0.195-3.479,2.393-3.479c0.256,0,0.496,0.016,0.752,0.031V143.887z"/>
		<path fill="#004F63" d="M82.934,152.366c0,0.485,0.061,0.987,0.105,1.473h-1.971l-0.091-1.05h-0.03
			c-0.451,0.814-1.068,1.206-1.986,1.206c-1.474,0-2.016-1.144-2.016-2.522c0-2.617,1.941-2.727,3.912-2.695v-0.611
			c0-0.674-0.09-1.159-0.857-1.159c-0.738,0-0.798,0.579-0.798,1.206h-2.076c0-0.956,0.286-1.567,0.782-1.928
			c0.481-0.376,1.174-0.517,1.986-0.517c2.693,0,3.039,1.206,3.039,2.648V152.366z M79.022,151.378c0,0.563,0.09,1.253,0.783,1.253
			c1.248,0,1.053-1.755,1.053-2.616C79.805,150.062,79.022,149.967,79.022,151.378z"/>
		<path fill="#004F63" d="M83.836,145.924h0.857v-1.253l2.121-0.987v2.24h1.098v1.363h-1.098v4.231c0,0.596-0.016,0.987,0.678,0.987
			c0.135,0,0.27,0,0.375-0.031v1.363c-0.285,0.031-0.586,0.078-1.098,0.078c-1.836,0-2.076-1.27-2.076-1.755v-4.874h-0.857V145.924z
			"/>
		<path fill="#004F63" d="M94.638,152.366c0,0.485,0.06,0.987,0.104,1.473h-1.971l-0.09-1.05h-0.03
			c-0.451,0.814-1.067,1.206-1.985,1.206c-1.475,0-2.017-1.144-2.017-2.522c0-2.617,1.94-2.727,3.912-2.695v-0.611
			c0-0.674-0.091-1.159-0.858-1.159c-0.736,0-0.797,0.579-0.797,1.206h-2.076c0-0.956,0.286-1.567,0.782-1.928
			c0.481-0.376,1.174-0.517,1.986-0.517c2.692,0,3.039,1.206,3.039,2.648V152.366z M90.726,151.378c0,0.563,0.091,1.253,0.782,1.253
			c1.249,0,1.054-1.755,1.054-2.616C91.508,150.062,90.726,149.967,90.726,151.378z"/>
		<path fill="#004F63" d="M98.7,142.524v11.314h-2.121v-11.314H98.7z"/>
		<path fill="#004F63" d="M103.919,148.181c0-2.993,0-5.845,3.747-5.845c2.316,0,3.249,1.332,3.158,3.761h-2.227
			c0-1.505-0.256-2.068-0.932-2.068c-1.279,0-1.445,1.253-1.445,4.152s0.166,4.153,1.445,4.153c1.053,0,1.008-1.411,1.037-2.304
			h2.242c0,3.024-1.158,3.996-3.279,3.996C103.919,154.027,103.919,151.143,103.919,148.181z"/>
		<path fill="#004F63" d="M117.339,147.053v-4.529h2.271v11.314h-2.271v-5.046h-2.603v5.046h-2.272v-11.314h2.272v4.529H117.339z"/>
		<path fill="#004F63" d="M121.626,142.524h3.791c2.979,0,3.536,2.068,3.536,5.595c0,1.739,0.256,5.72-3.626,5.72h-3.701V142.524z
			 M123.898,152.099h1.099c1.384,0,1.654-1.081,1.654-3.918c0-2.084,0-3.918-1.579-3.918h-1.174V152.099z"/>
	</g>
	<g>
		<path fill="#004F63" d="M62.825,162.661c-0.772,1.151-1.332,2.679-1.332,4.806c0,2.092,0.581,3.596,1.332,4.771h-0.73
			c-0.666-0.976-1.385-2.479-1.385-4.771c0.011-2.314,0.719-3.818,1.385-4.806H62.825z"/>
	</g>
	<g>
		<path fill="#004F63" d="M63.852,166.986c0-0.729-0.021-1.316-0.043-1.856h0.836l0.042,0.975h0.021
			c0.381-0.692,0.984-1.104,1.819-1.104c1.237,0,2.167,1.163,2.167,2.89c0,2.045-1.12,3.055-2.326,3.055
			c-0.676,0-1.269-0.329-1.575-0.893h-0.021v3.09h-0.92V166.986z M64.772,168.501c0,0.152,0.021,0.294,0.042,0.423
			c0.169,0.717,0.729,1.21,1.396,1.21c0.983,0,1.555-0.893,1.555-2.197c0-1.14-0.539-2.114-1.523-2.114
			c-0.634,0-1.227,0.505-1.406,1.28c-0.031,0.129-0.063,0.282-0.063,0.423V168.501z"/>
	</g>
	<g>
		<path fill="#004F63" d="M69.49,166.856v-0.704h5.456v0.704H69.49z M69.49,169.16v-0.705h5.456v0.705H69.49z"/>
		<path fill="#004F63" d="M80.521,166.915c0,2.597-0.867,4.029-2.39,4.029c-1.344,0-2.252-1.397-2.273-3.924
			c0-2.562,0.994-3.972,2.39-3.972C79.696,163.049,80.521,164.483,80.521,166.915z M76.788,167.033c0,1.985,0.551,3.113,1.396,3.113
			c0.951,0,1.406-1.233,1.406-3.184c0-1.88-0.434-3.114-1.396-3.114C77.38,163.848,76.788,164.952,76.788,167.033z"/>
		<path fill="#004F63" d="M81.548,170.204c0-0.435,0.265-0.74,0.635-0.74s0.624,0.306,0.624,0.74c0,0.423-0.244,0.74-0.635,0.74
			C81.802,170.945,81.548,170.627,81.548,170.204z"/>
		<path fill="#004F63" d="M88.337,166.915c0,2.597-0.867,4.029-2.39,4.029c-1.344,0-2.252-1.397-2.273-3.924
			c0-2.562,0.994-3.972,2.39-3.972C87.512,163.049,88.337,164.483,88.337,166.915z M84.604,167.033c0,1.985,0.551,3.113,1.396,3.113
			c0.951,0,1.406-1.233,1.406-3.184c0-1.88-0.434-3.114-1.396-3.114C85.197,163.848,84.604,164.952,84.604,167.033z"/>
		<path fill="#004F63" d="M94.071,166.915c0,2.597-0.867,4.029-2.391,4.029c-1.343,0-2.252-1.397-2.273-3.924
			c0-2.562,0.994-3.972,2.391-3.972C93.246,163.049,94.071,164.483,94.071,166.915z M90.337,167.033c0,1.985,0.55,3.113,1.396,3.113
			c0.952,0,1.406-1.233,1.406-3.184c0-1.88-0.434-3.114-1.395-3.114C90.93,163.848,90.337,164.952,90.337,167.033z"/>
		<path fill="#004F63" d="M99.803,166.915c0,2.597-0.867,4.029-2.389,4.029c-1.344,0-2.253-1.397-2.273-3.924
			c0-2.562,0.993-3.972,2.389-3.972C98.979,163.049,99.803,164.483,99.803,166.915z M96.071,167.033c0,1.985,0.55,3.113,1.396,3.113
			c0.951,0,1.406-1.233,1.406-3.184c0-1.88-0.434-3.114-1.396-3.114C96.663,163.848,96.071,164.952,96.071,167.033z"/>
		<path fill="#004F63" d="M104.86,164.048h-2.623l-0.264,1.962c0.158-0.023,0.307-0.047,0.561-0.047c0.528,0,1.057,0.129,1.48,0.411
			c0.539,0.341,0.982,0.999,0.982,1.962c0,1.492-1.068,2.608-2.559,2.608c-0.751,0-1.385-0.234-1.713-0.47l0.232-0.787
			c0.285,0.188,0.846,0.423,1.47,0.423c0.878,0,1.628-0.635,1.628-1.656c-0.01-0.987-0.602-1.692-1.977-1.692
			c-0.392,0-0.698,0.047-0.952,0.082l0.444-3.665h3.289V164.048z"/>
		<path fill="#004F63" d="M106.014,172.238c0.75-1.163,1.332-2.69,1.332-4.806c0-2.104-0.571-3.607-1.332-4.771h0.719
			c0.677,0.964,1.385,2.468,1.385,4.782c0,2.303-0.708,3.795-1.385,4.794H106.014z"/>
	</g>
	<g>
		<path fill="#004F63" d="M114.059,163.01h-0.013l-0.696,0.418l-0.105-0.459l0.876-0.521h0.462v4.453h-0.523V163.01z"/>
	</g>
</g>
</svg>
