<?xml version="1.0" encoding="utf-8"?>
<!-- Generator: Adobe Illustrator 17.0.0, SVG Export Plug-In . SVG Version: 6.00 Build 0)  -->
<!DOCTYPE svg PUBLIC "-//W3C//DTD SVG 1.1//EN" "http://www.w3.org/Graphics/SVG/1.1/DTD/svg11.dtd">
<svg version="1.1" id="Layer_1" xmlns="http://www.w3.org/2000/svg" xmlns:xlink="http://www.w3.org/1999/xlink" x="0px" y="0px"
	 width="788.025px" height="52.512px" viewBox="0 0 788.025 52.512" enable-background="new 0 0 788.025 52.512"
	 xml:space="preserve">
<g>
	<g>
		<path fill="#00435B" d="M0,0.978h3.747v14.204h7.351v2.917H0V0.978z"/>
		<path fill="#00435B" d="M12.973,0.907h3.675v17.191h-3.675V0.907z"/>
		<path fill="#00435B" d="M19.685,1.001h5.288c2.466,0,4.529,0.166,5.952,1.874c0.901,1.091,1.043,2.324,1.043,3.201
			c0,1.992-0.83,3.675-2.182,4.553c-1.257,0.806-2.988,0.806-3.889,0.806h-2.49v6.663h-3.723V1.001z M23.313,8.708h1.47
			c1.186,0,3.391,0,3.391-2.608c0-2.324-1.968-2.324-3.012-2.324h-1.849V8.708z"/>
		<path fill="#00435B" d="M34.056,0.907h3.675v17.191h-3.675V0.907z"/>
		<path fill="#00435B" d="M44.657,3.8h-5.098V0.954h13.895V3.8h-5.098v14.298h-3.699V3.8z"/>
		<path fill="#00435B" d="M62.016,0.599c1.826,0,4.339,0.427,6.023,2.324c1.826,2.086,2.181,4.766,2.181,6.45
			c0,2.49-0.759,5.146-2.158,6.71c-1.897,2.134-4.671,2.442-6.094,2.442c-2.253,0-4.505-0.711-6.07-2.348
			c-1.874-1.992-2.11-4.837-2.11-6.402C53.788,5.223,55.851,0.599,62.016,0.599z M58.91,14.446c0.521,0.711,1.399,1.375,3.106,1.375
			c1.494,0,2.513-0.521,3.201-1.589c0.569-0.854,1.162-2.181,1.162-4.908c0-0.83-0.071-2.016-0.427-3.059
			c-0.711-2.11-2.158-3.035-3.913-3.035c-1.375,0-2.466,0.569-3.153,1.447c-0.973,1.186-1.257,3.035-1.257,4.979
			C57.629,11.293,57.89,13.119,58.91,14.446z"/>
		<path fill="#00435B" d="M72.666,0.954h6.568c1.897-0.023,3.817-0.023,5.193,1.162c1.067,0.925,1.494,2.182,1.494,3.296
			c0,3.201-2.75,3.96-3.581,4.197c2.585,0.237,2.774,1.707,3.083,3.936c0.261,2.016,0.403,2.845,0.522,3.32
			c0.189,0.759,0.332,0.948,0.521,1.233h-4.055c-0.166-0.949-0.688-5.288-0.925-5.952c-0.332-0.972-1.233-0.972-1.85-0.972h-3.225
			v6.924h-3.747V0.954z M76.293,8.447h2.964c0.427,0,1.28,0,1.874-0.474c0.261-0.19,0.948-0.783,0.948-1.992
			c0-1.162-0.569-1.708-0.901-1.921c-0.569-0.403-1.257-0.403-2.419-0.403h-2.466V8.447z"/>
	</g>
	<g>
		<path fill="#00435B" d="M97.794,5.226c0,2.876-2.35,5.226-5.226,5.226c-2.848,0-5.226-2.323-5.226-5.226
			C87.343,2.268,89.776,0,92.568,0C95.389,0,97.794,2.268,97.794,5.226z M88.186,5.212c0,2.433,1.963,4.396,4.369,4.396
			c2.433,0,4.396-2.005,4.396-4.396c0-2.433-1.991-4.369-4.396-4.369C90.177,0.843,88.186,2.751,88.186,5.212z M90.605,2.295h2.018
			c0.691,0,2.046,0,2.046,1.548c0,1.079-0.691,1.3-1.105,1.438c0.802,0.055,0.857,0.581,0.967,1.327
			c0.056,0.47,0.138,1.271,0.304,1.548h-1.244c-0.027-0.277-0.221-1.77-0.221-1.853c-0.083-0.332-0.193-0.498-0.608-0.498h-1.023
			v2.35h-1.133V2.295z M91.711,4.866h0.912c0.747,0,0.885-0.525,0.885-0.829c0-0.802-0.553-0.802-0.857-0.802h-0.94V4.866z"/>
	</g>
	<g>
		<path fill="#00435B" d="M106.329,0.978h3.485V7.76c0.403-0.569,1.281-1.802,3.462-1.802c1.778,0,2.917,0.877,3.485,1.612
			c0.427,0.593,0.783,1.684,0.783,3.249v7.28h-3.486v-7.161c0-0.688,0-2.608-1.968-2.608c-0.996,0-2.252,0.569-2.252,2.442
			l0.024,7.327h-3.533V0.978z"/>
		<path fill="#00435B" d="M127.909,18.098c-0.119-0.735-0.119-1.28-0.119-1.636c-1.328,1.921-2.917,1.921-3.581,1.921
			c-1.731,0-2.513-0.498-2.988-0.949c-0.711-0.711-1.043-1.684-1.043-2.632c0-0.949,0.332-2.703,2.537-3.723
			c1.47-0.664,3.581-0.664,4.742-0.664c0-0.783-0.023-1.162-0.166-1.589c-0.308-0.877-1.233-0.996-1.565-0.996
			c-0.498,0-1.02,0.213-1.328,0.664c-0.261,0.403-0.261,0.783-0.261,1.067H120.7c0.024-0.64,0.095-1.92,1.352-2.821
			c1.091-0.783,2.49-0.973,3.628-0.973c0.996,0,3.083,0.166,4.268,1.542c0.807,0.972,0.83,2.395,0.83,2.94l0.024,4.813
			c0,1.02,0.071,2.039,0.284,3.035H127.909z M123.593,14.399c0,0.806,0.545,1.708,1.707,1.708c0.64,0,1.162-0.309,1.494-0.688
			c0.616-0.759,0.664-1.683,0.664-2.964C125.206,12.265,123.593,12.977,123.593,14.399z"/>
		<path fill="#00435B" d="M136.352,14.636c0.048,0.759,0.522,1.636,1.992,1.636c1.257,0,1.85-0.711,1.85-1.423
			c0-0.545-0.285-0.972-1.66-1.352l-2.182-0.593c-0.972-0.285-3.035-0.877-3.035-3.32c0-2.324,2.134-3.747,5.241-3.747
			c2.466,0,4.458,1.138,4.553,3.533h-3.201c-0.095-1.328-1.162-1.423-1.708-1.423c-0.948,0-1.66,0.451-1.66,1.186
			c0,0.807,0.593,0.972,1.636,1.257l2.158,0.593c2.182,0.593,3.201,1.708,3.201,3.344c0,2.063-1.778,4.125-5.501,4.125
			c-1.541,0-3.011-0.332-4.102-1.47c-0.782-0.83-0.854-1.779-0.877-2.348H136.352z"/>
		<path fill="#00435B" d="M158.692,10.368c-0.047-0.427-0.19-2.206-1.542-2.206c-1.66,0-1.85,2.514-1.85,3.818
			c0,0.664,0.071,2.798,0.877,3.675c0.332,0.356,0.688,0.403,0.949,0.403c0.379,0,1.47-0.166,1.612-2.3h3.462
			c-0.047,0.925-0.166,2.371-1.542,3.533c-0.854,0.735-1.92,1.114-3.415,1.114c-1.588,0-2.987-0.355-4.078-1.588
			c-1.043-1.209-1.518-2.798-1.518-4.719c0-5.454,4.007-6.213,5.596-6.213c2.229,0,4.861,1.233,4.885,4.482H158.692z"/>
		<path fill="#00435B" d="M169.862,5.839c4.339,0,6.213,2.94,6.213,6.284c0,3.367-1.944,6.402-6.284,6.402
			c-3.415,0-6.118-2.11-6.118-6.307C163.674,9.325,165.144,5.839,169.862,5.839z M169.91,16.083c1.541,0,2.584-0.925,2.584-4.102
			c0-1.589-0.308-3.794-2.632-3.794c-2.561,0-2.584,2.964-2.584,4.055C167.278,14.921,168.179,16.083,169.91,16.083z"/>
		<path fill="#00435B" d="M178.78,8.376c0-0.759-0.047-1.494-0.119-2.252h3.391l0.119,1.542c0.379-0.522,1.304-1.802,3.699-1.802
			c2.751,0,3.533,1.684,3.771,2.252c0.996-1.92,2.608-2.229,3.841-2.229c2.418,0,3.391,1.447,3.652,1.921
			c0.64,1.043,0.593,2.49,0.593,3.533v6.758h-3.533v-7.042c0-1.28-0.19-2.703-2.016-2.703c-2.11,0-2.158,1.968-2.158,3.747v5.999
			h-3.533v-7.114c0-0.925-0.023-2.632-1.968-2.632c-2.205,0-2.205,1.897-2.205,2.703v7.042h-3.533V8.376z"/>
		<path fill="#00435B" d="M204.393,6.124l0.095,1.707c1.091-1.92,3.083-1.944,3.652-1.944c3.106,0,4.979,2.324,4.979,5.976
			c0,3.391-1.755,6.402-5.217,6.402c-2.158,0-3.035-1.138-3.343-1.542v5.976h-3.581V6.124H204.393z M209.562,12.004
			c0-1.422-0.355-3.865-2.418-3.865c-1.138,0-2.75,0.854-2.75,4.079c0,0.711,0.023,3.746,2.608,3.746
			C208.661,15.964,209.562,14.375,209.562,12.004z"/>
		<path fill="#00435B" d="M222.772,18.098c-0.119-0.735-0.119-1.28-0.119-1.636c-1.328,1.921-2.917,1.921-3.581,1.921
			c-1.731,0-2.513-0.498-2.988-0.949c-0.711-0.711-1.043-1.684-1.043-2.632c0-0.949,0.332-2.703,2.537-3.723
			c1.47-0.664,3.581-0.664,4.742-0.664c0-0.783-0.023-1.162-0.166-1.589c-0.308-0.877-1.233-0.996-1.565-0.996
			c-0.498,0-1.02,0.213-1.328,0.664c-0.261,0.403-0.261,0.783-0.261,1.067h-3.438c0.024-0.64,0.095-1.92,1.352-2.821
			c1.091-0.783,2.49-0.973,3.628-0.973c0.996,0,3.083,0.166,4.268,1.542c0.807,0.972,0.83,2.395,0.83,2.94l0.024,4.813
			c0,1.02,0.071,2.039,0.284,3.035H222.772z M218.457,14.399c0,0.806,0.545,1.708,1.707,1.708c0.64,0,1.162-0.309,1.494-0.688
			c0.616-0.759,0.664-1.683,0.664-2.964C220.069,12.265,218.457,12.977,218.457,14.399z"/>
		<path fill="#00435B" d="M228.773,9.064c0-0.569-0.095-2.3-0.166-2.988h3.296l0.071,2.3c0.451-1.02,1.233-2.466,4.079-2.324v3.154
			c-3.557-0.332-3.77,1.494-3.77,2.988v5.904h-3.509V9.064z"/>
		<path fill="#00435B" d="M244.733,18.098c-0.119-0.735-0.119-1.28-0.119-1.636c-1.328,1.921-2.917,1.921-3.581,1.921
			c-1.731,0-2.513-0.498-2.988-0.949c-0.711-0.711-1.043-1.684-1.043-2.632c0-0.949,0.332-2.703,2.537-3.723
			c1.47-0.664,3.581-0.664,4.742-0.664c0-0.783-0.023-1.162-0.166-1.589c-0.308-0.877-1.233-0.996-1.565-0.996
			c-0.498,0-1.02,0.213-1.328,0.664c-0.261,0.403-0.261,0.783-0.261,1.067h-3.438c0.024-0.64,0.095-1.92,1.352-2.821
			c1.091-0.783,2.49-0.973,3.628-0.973c0.996,0,3.083,0.166,4.268,1.542c0.807,0.972,0.83,2.395,0.83,2.94l0.024,4.813
			c0,1.02,0.071,2.039,0.284,3.035H244.733z M240.417,14.399c0,0.806,0.545,1.708,1.707,1.708c0.64,0,1.162-0.309,1.494-0.688
			c0.616-0.759,0.664-1.683,0.664-2.964C242.03,12.265,240.417,12.977,240.417,14.399z"/>
		<path fill="#00435B" d="M250.616,1.001h3.509V7.57c1.186-1.565,2.774-1.612,3.391-1.612c2.917,0,5.217,2.3,5.217,6.331
			c0,4.482-2.608,6.047-5.003,6.047c-0.616,0-2.513-0.047-3.604-1.921c-0.024,0.379-0.047,0.949-0.119,1.684h-3.391V1.001z
			 M256.567,8.305c-2.584,0-2.584,2.94-2.584,3.699c0,2.727,1.162,4.031,2.75,4.031c2.418,0,2.418-3.011,2.418-3.628
			C259.152,11.459,259.104,8.305,256.567,8.305z"/>
		<path fill="#00435B" d="M265.225,0.954h3.509v17.144h-3.509V0.954z"/>
		<path fill="#00435B" d="M274.639,13c0,0.783,0,3.201,2.442,3.201c0.877,0,1.755-0.332,2.087-1.66h3.201
			c-0.047,0.569-0.166,1.588-1.138,2.608c-0.877,0.925-2.442,1.399-4.197,1.399c-1.02,0-2.964-0.19-4.221-1.494
			c-1.091-1.138-1.541-2.75-1.541-4.671c0-1.944,0.474-4.268,2.49-5.667c0.925-0.617,2.063-0.996,3.367-0.996
			c1.707,0,3.746,0.664,4.837,2.893c0.806,1.636,0.759,3.391,0.711,4.387H274.639z M279.097,10.795c0-0.545-0.047-2.68-2.086-2.68
			c-1.542,0-2.182,1.281-2.253,2.68H279.097z"/>
		<path fill="#00435B" d="M291.692,0.978h3.747v14.204h7.351v2.917h-11.097V0.978z"/>
		<path fill="#00435B" d="M304.783,1.001l5.667,0.024c0.949,0,3.841,0.024,5.904,1.542c2.158,1.588,2.917,4.292,2.917,6.734
			c0,5.264-2.822,8.015-6.07,8.607c-0.64,0.119-1.352,0.19-3.083,0.19h-5.335V1.001z M308.506,15.276
			c0.403,0.024,1.02,0.047,1.446,0.047c1.565,0,2.917-0.119,3.984-1.186c1.446-1.446,1.541-4.007,1.541-4.837
			c0-2.418-0.83-4.647-3.13-5.288c-0.759-0.213-1.731-0.332-3.841-0.237V15.276z"/>
		<path fill="#00435B" d="M322,0.978h3.747v14.204h7.351v2.917H322V0.978z"/>
		<path fill="#00435B" d="M331.629,10.486h5.88v2.68h-5.88V10.486z"/>
		<path fill="#00435B" d="M349.771,6.55c-0.071-0.593-0.285-3.011-2.774-3.011c-2.727,0-3.865,2.845-3.865,6.378
			c0,1.02,0,5.88,3.581,5.88c1.542,0,3.012-0.972,3.083-3.249h3.865c-0.071,1.02-0.166,2.608-1.542,4.031
			c-1.518,1.565-3.438,1.921-5.003,1.921c-5.904,0-7.825-4.363-7.825-8.608c0-5.43,3.035-9.034,7.849-9.034
			c3.747,0,6.379,2.276,6.379,5.691H349.771z"/>
		<path fill="#00435B" d="M362.437,9.064c0-0.569-0.095-2.3-0.166-2.988h3.296l0.071,2.3c0.451-1.02,1.233-2.466,4.079-2.324v3.154
			c-3.557-0.332-3.77,1.494-3.77,2.988v5.904h-3.509V9.064z"/>
		<path fill="#00435B" d="M373.795,13c0,0.783,0,3.201,2.442,3.201c0.877,0,1.755-0.332,2.087-1.66h3.201
			c-0.047,0.569-0.166,1.588-1.138,2.608c-0.877,0.925-2.442,1.399-4.197,1.399c-1.02,0-2.964-0.19-4.221-1.494
			c-1.091-1.138-1.541-2.75-1.541-4.671c0-1.944,0.474-4.268,2.49-5.667c0.925-0.617,2.063-0.996,3.367-0.996
			c1.707,0,3.746,0.664,4.837,2.893c0.806,1.636,0.759,3.391,0.711,4.387H373.795z M378.253,10.795c0-0.545-0.047-2.68-2.086-2.68
			c-1.542,0-2.182,1.281-2.253,2.68H378.253z"/>
		<path fill="#00435B" d="M392.08,0.978h3.533v15.176c0,0.711,0.047,1.494,0.095,1.944h-3.557l-0.095-1.731
			c-0.237,0.427-0.474,0.877-1.209,1.352c-0.877,0.569-1.802,0.617-2.324,0.617c-3.201,0-5.098-2.206-5.098-5.952
			c0-3.959,2.158-6.426,5.288-6.426c2.158,0,3.059,1.209,3.367,1.636V0.978z M389.4,16.059c1.02,0,1.85-0.617,2.229-1.352
			c0.521-0.996,0.569-2.229,0.569-2.822c0-2.348-1.02-3.628-2.608-3.628c-2.347,0-2.608,2.821-2.608,4.031
			C386.982,14.28,387.646,16.059,389.4,16.059z"/>
		<path fill="#00435B" d="M402.088,6.124v7.137c0,1.043,0,2.632,1.874,2.632c2.252,0,2.252-1.684,2.252-3.723V6.124h3.604v7.896
			c0.047,2.585,0.071,2.893,0.071,3.201c0.024,0.332,0.047,0.545,0.095,0.877h-3.415l-0.118-1.589
			c-0.356,0.522-1.257,1.897-3.533,1.897c-1.612,0-2.94-0.735-3.604-1.612c-0.782-0.972-0.782-2.632-0.782-3.225V6.124H402.088z"/>
		<path fill="#00435B" d="M419.472,10.368c-0.047-0.427-0.19-2.206-1.542-2.206c-1.66,0-1.85,2.514-1.85,3.818
			c0,0.664,0.071,2.798,0.877,3.675c0.332,0.356,0.688,0.403,0.949,0.403c0.379,0,1.47-0.166,1.612-2.3h3.462
			c-0.047,0.925-0.166,2.371-1.542,3.533c-0.854,0.735-1.92,1.114-3.415,1.114c-1.588,0-2.987-0.355-4.078-1.588
			c-1.043-1.209-1.518-2.798-1.518-4.719c0-5.454,4.007-6.213,5.596-6.213c2.229,0,4.861,1.233,4.885,4.482H419.472z"/>
		<path fill="#00435B" d="M432.041,17.932c-1.138,0.308-2.158,0.379-2.727,0.379c-3.533,0-3.533-2.229-3.533-3.225V8.519h-2.3V6.195
			h2.3V3.847l3.486-1.28v3.628h2.845v2.324h-2.845v5.406c0.023,1.091,0.023,1.778,1.588,1.778c0.522,0,0.759-0.023,1.186-0.071
			V17.932z"/>
		<path fill="#00435B" d="M434.105,0.978h3.747v3.059h-3.747V0.978z M434.224,6.1h3.509v11.999h-3.509V6.1z"/>
		<path fill="#00435B" d="M446.46,5.839c4.339,0,6.213,2.94,6.213,6.284c0,3.367-1.944,6.402-6.284,6.402
			c-3.415,0-6.118-2.11-6.118-6.307C440.272,9.325,441.742,5.839,446.46,5.839z M446.508,16.083c1.541,0,2.584-0.925,2.584-4.102
			c0-1.589-0.308-3.794-2.632-3.794c-2.561,0-2.584,2.964-2.584,4.055C443.876,14.921,444.777,16.083,446.508,16.083z"/>
		<path fill="#00435B" d="M455.355,8.258c0-0.048,0-1.352-0.071-2.182h3.367l0.095,1.802c0.332-0.545,1.28-2.087,3.889-2.087
			c2.348,0,3.344,1.423,3.652,2.252c0.261,0.735,0.332,1.352,0.332,3.581v6.474h-3.581v-7.446c0-0.498,0-0.925-0.19-1.304
			c-0.261-0.521-0.806-1.02-1.707-1.02c-0.759,0-1.446,0.356-1.826,0.925c-0.213,0.308-0.427,0.901-0.427,1.826v7.019h-3.533V8.258z
			"/>
		<path fill="#00435B" d="M472.24,14.636c0.048,0.759,0.522,1.636,1.992,1.636c1.257,0,1.85-0.711,1.85-1.423
			c0-0.545-0.285-0.972-1.66-1.352l-2.182-0.593c-0.972-0.285-3.035-0.877-3.035-3.32c0-2.324,2.134-3.747,5.241-3.747
			c2.466,0,4.458,1.138,4.553,3.533h-3.201c-0.095-1.328-1.162-1.423-1.708-1.423c-0.948,0-1.66,0.451-1.66,1.186
			c0,0.807,0.593,0.972,1.636,1.257l2.158,0.593c2.182,0.593,3.201,1.708,3.201,3.344c0,2.063-1.778,4.125-5.501,4.125
			c-1.541,0-3.011-0.332-4.102-1.47c-0.782-0.83-0.854-1.779-0.877-2.348H472.24z"/>
		<path fill="#00435B" d="M490.62,6.124l2.703,8.133l2.75-8.133h3.391l-4.316,11.975h-3.889l-4.387-11.975H490.62z"/>
		<path fill="#00435B" d="M503.877,14.636c0.047,0.759,0.521,1.636,1.992,1.636c1.257,0,1.85-0.711,1.85-1.423
			c0-0.545-0.285-0.972-1.66-1.352l-2.181-0.593c-0.973-0.285-3.035-0.877-3.035-3.32c0-2.324,2.134-3.747,5.24-3.747
			c2.466,0,4.458,1.138,4.553,3.533h-3.201c-0.095-1.328-1.162-1.423-1.708-1.423c-0.948,0-1.66,0.451-1.66,1.186
			c0,0.807,0.593,0.972,1.636,1.257l2.158,0.593c2.182,0.593,3.201,1.708,3.201,3.344c0,2.063-1.778,4.125-5.501,4.125
			c-1.541,0-3.011-0.332-4.102-1.47c-0.782-0.83-0.854-1.779-0.877-2.348H503.877z"/>
		<path fill="#00435B" d="M522.708,13c0,0.783,0,3.201,2.442,3.201c0.877,0,1.755-0.332,2.087-1.66h3.201
			c-0.047,0.569-0.166,1.588-1.138,2.608c-0.877,0.925-2.442,1.399-4.197,1.399c-1.02,0-2.964-0.19-4.221-1.494
			c-1.091-1.138-1.541-2.75-1.541-4.671c0-1.944,0.474-4.268,2.49-5.667c0.925-0.617,2.063-0.996,3.367-0.996
			c1.707,0,3.746,0.664,4.837,2.893c0.806,1.636,0.759,3.391,0.711,4.387H522.708z M527.166,10.795c0-0.545-0.047-2.68-2.086-2.68
			c-1.542,0-2.182,1.281-2.253,2.68H527.166z"/>
		<path fill="#00435B" d="M532.29,15.016l6.07-6.544h-5.904V6.124h9.817v3.011l-6.07,6.545h6.307v2.418h-10.22V15.016z"/>
		<path fill="#00435B" d="M547.301,13c0,0.783,0,3.201,2.442,3.201c0.877,0,1.755-0.332,2.087-1.66h3.201
			c-0.047,0.569-0.166,1.588-1.138,2.608c-0.877,0.925-2.442,1.399-4.197,1.399c-1.02,0-2.964-0.19-4.221-1.494
			c-1.091-1.138-1.541-2.75-1.541-4.671c0-1.944,0.474-4.268,2.49-5.667c0.925-0.617,2.063-0.996,3.367-0.996
			c1.707,0,3.746,0.664,4.837,2.893c0.806,1.636,0.759,3.391,0.711,4.387H547.301z M551.759,10.795c0-0.545-0.047-2.68-2.086-2.68
			c-1.542,0-2.182,1.281-2.253,2.68H551.759z"/>
		<path fill="#00435B" d="M564.708,17.932c-1.138,0.308-2.158,0.379-2.727,0.379c-3.533,0-3.533-2.229-3.533-3.225V8.519h-2.3V6.195
			h2.3V3.847l3.486-1.28v3.628h2.845v2.324h-2.845v5.406c0.023,1.091,0.023,1.778,1.589,1.778c0.521,0,0.759-0.023,1.186-0.071
			V17.932z"/>
		<path fill="#00435B" d="M566.772,0.978h3.747v3.059h-3.747V0.978z M566.891,6.1h3.509v11.999h-3.509V6.1z"/>
		<path fill="#00435B" d="M573.555,8.376c0-0.759-0.047-1.494-0.119-2.252h3.391l0.119,1.542c0.379-0.522,1.304-1.802,3.699-1.802
			c2.751,0,3.533,1.684,3.771,2.252c0.996-1.92,2.608-2.229,3.841-2.229c2.418,0,3.391,1.447,3.652,1.921
			c0.64,1.043,0.593,2.49,0.593,3.533v6.758h-3.533v-7.042c0-1.28-0.19-2.703-2.016-2.703c-2.11,0-2.158,1.968-2.158,3.747v5.999
			h-3.533v-7.114c0-0.925-0.024-2.632-1.968-2.632c-2.205,0-2.205,1.897-2.205,2.703v7.042h-3.533V8.376z"/>
		<path fill="#00435B" d="M595.753,0.978h3.747v3.059h-3.747V0.978z M595.872,6.1h3.509v11.999h-3.509V6.1z"/>
		<path fill="#00435B" d="M602.346,1.001h3.509V7.57c1.186-1.565,2.774-1.612,3.391-1.612c2.917,0,5.217,2.3,5.217,6.331
			c0,4.482-2.608,6.047-5.003,6.047c-0.616,0-2.513-0.047-3.604-1.921c-0.024,0.379-0.047,0.949-0.119,1.684h-3.391V1.001z
			 M608.298,8.305c-2.584,0-2.584,2.94-2.584,3.699c0,2.727,1.162,4.031,2.75,4.031c2.418,0,2.418-3.011,2.418-3.628
			C610.882,11.459,610.835,8.305,608.298,8.305z"/>
		<path fill="#00435B" d="M619.777,13c0,0.783,0,3.201,2.442,3.201c0.877,0,1.755-0.332,2.087-1.66h3.201
			c-0.047,0.569-0.166,1.588-1.138,2.608c-0.877,0.925-2.442,1.399-4.197,1.399c-1.02,0-2.964-0.19-4.221-1.494
			c-1.091-1.138-1.541-2.75-1.541-4.671c0-1.944,0.474-4.268,2.49-5.667c0.925-0.617,2.063-0.996,3.367-0.996
			c1.707,0,3.746,0.664,4.837,2.893c0.806,1.636,0.759,3.391,0.711,4.387H619.777z M624.234,10.795c0-0.545-0.047-2.68-2.086-2.68
			c-1.542,0-2.182,1.281-2.253,2.68H624.234z"/>
		<path fill="#00435B" d="M638.44,1.073l-6.378,17.025h-2.774l6.426-17.025H638.44z"/>
		<path fill="#00435B" d="M643.113,14.636c0.048,0.759,0.522,1.636,1.992,1.636c1.257,0,1.85-0.711,1.85-1.423
			c0-0.545-0.285-0.972-1.66-1.352l-2.182-0.593c-0.972-0.285-3.035-0.877-3.035-3.32c0-2.324,2.134-3.747,5.241-3.747
			c2.466,0,4.458,1.138,4.553,3.533h-3.201c-0.095-1.328-1.162-1.423-1.708-1.423c-0.948,0-1.66,0.451-1.66,1.186
			c0,0.807,0.593,0.972,1.636,1.257l2.158,0.593c2.182,0.593,3.201,1.708,3.201,3.344c0,2.063-1.778,4.125-5.501,4.125
			c-1.541,0-3.011-0.332-4.102-1.47c-0.782-0.83-0.854-1.779-0.877-2.348H643.113z"/>
		<path fill="#00435B" d="M652.41,0.978h3.747v3.059h-3.747V0.978z M652.529,6.1h3.509v11.999h-3.509V6.1z"/>
		<path fill="#00435B" d="M659.193,8.376c0-0.759-0.047-1.494-0.119-2.252h3.391l0.119,1.542c0.379-0.522,1.304-1.802,3.699-1.802
			c2.751,0,3.533,1.684,3.771,2.252c0.996-1.92,2.608-2.229,3.841-2.229c2.418,0,3.391,1.447,3.652,1.921
			c0.64,1.043,0.593,2.49,0.593,3.533v6.758h-3.533v-7.042c0-1.28-0.19-2.703-2.016-2.703c-2.11,0-2.158,1.968-2.158,3.747v5.999
			h-3.533v-7.114c0-0.925-0.024-2.632-1.968-2.632c-2.205,0-2.205,1.897-2.205,2.703v7.042h-3.533V8.376z"/>
		<path fill="#00435B" d="M683.881,6.124l2.703,8.133l2.75-8.133h3.391l-4.316,11.975h-3.889l-4.387-11.975H683.881z"/>
		<path fill="#00435B" d="M700.932,18.098c-0.119-0.735-0.119-1.28-0.119-1.636c-1.328,1.921-2.917,1.921-3.581,1.921
			c-1.731,0-2.513-0.498-2.988-0.949c-0.711-0.711-1.043-1.684-1.043-2.632c0-0.949,0.332-2.703,2.537-3.723
			c1.47-0.664,3.581-0.664,4.742-0.664c0-0.783-0.023-1.162-0.166-1.589c-0.308-0.877-1.233-0.996-1.565-0.996
			c-0.498,0-1.02,0.213-1.328,0.664c-0.261,0.403-0.261,0.783-0.261,1.067h-3.438c0.024-0.64,0.095-1.92,1.352-2.821
			c1.091-0.783,2.49-0.973,3.628-0.973c0.996,0,3.083,0.166,4.268,1.542c0.806,0.972,0.83,2.395,0.83,2.94l0.024,4.813
			c0,1.02,0.071,2.039,0.284,3.035H700.932z M696.616,14.399c0,0.806,0.545,1.708,1.707,1.708c0.64,0,1.162-0.309,1.494-0.688
			c0.616-0.759,0.664-1.683,0.664-2.964C698.229,12.265,696.616,12.977,696.616,14.399z"/>
		<path fill="#00435B" d="M709.375,14.636c0.047,0.759,0.521,1.636,1.992,1.636c1.257,0,1.85-0.711,1.85-1.423
			c0-0.545-0.285-0.972-1.66-1.352l-2.181-0.593c-0.973-0.285-3.035-0.877-3.035-3.32c0-2.324,2.134-3.747,5.24-3.747
			c2.466,0,4.458,1.138,4.553,3.533h-3.201c-0.095-1.328-1.162-1.423-1.708-1.423c-0.948,0-1.66,0.451-1.66,1.186
			c0,0.807,0.593,0.972,1.636,1.257l2.158,0.593c2.182,0.593,3.201,1.708,3.201,3.344c0,2.063-1.778,4.125-5.501,4.125
			c-1.541,0-3.011-0.332-4.102-1.47c-0.782-0.83-0.854-1.779-0.877-2.348H709.375z"/>
		<path fill="#00435B" d="M725.833,17.932c-1.138,0.308-2.158,0.379-2.727,0.379c-3.533,0-3.533-2.229-3.533-3.225V8.519h-2.3V6.195
			h2.3V3.847l3.486-1.28v3.628h2.845v2.324h-2.845v5.406c0.023,1.091,0.023,1.778,1.589,1.778c0.521,0,0.759-0.023,1.186-0.071
			V17.932z"/>
		<path fill="#00435B" d="M735.201,18.098c-0.119-0.735-0.119-1.28-0.119-1.636c-1.328,1.921-2.917,1.921-3.581,1.921
			c-1.731,0-2.513-0.498-2.988-0.949c-0.711-0.711-1.043-1.684-1.043-2.632c0-0.949,0.332-2.703,2.537-3.723
			c1.47-0.664,3.581-0.664,4.742-0.664c0-0.783-0.023-1.162-0.166-1.589c-0.308-0.877-1.233-0.996-1.565-0.996
			c-0.498,0-1.02,0.213-1.328,0.664c-0.261,0.403-0.261,0.783-0.261,1.067h-3.438c0.024-0.64,0.095-1.92,1.352-2.821
			c1.091-0.783,2.49-0.973,3.628-0.973c0.996,0,3.083,0.166,4.268,1.542c0.806,0.972,0.83,2.395,0.83,2.94l0.024,4.813
			c0,1.02,0.071,2.039,0.284,3.035H735.201z M730.886,14.399c0,0.806,0.545,1.708,1.707,1.708c0.64,0,1.162-0.309,1.494-0.688
			c0.616-0.759,0.664-1.683,0.664-2.964C732.498,12.265,730.886,12.977,730.886,14.399z"/>
		<path fill="#00435B" d="M748.245,17.932c-1.138,0.308-2.158,0.379-2.727,0.379c-3.533,0-3.533-2.229-3.533-3.225V8.519h-2.3V6.195
			h2.3V3.847l3.486-1.28v3.628h2.845v2.324h-2.845v5.406c0.023,1.091,0.023,1.778,1.588,1.778c0.522,0,0.759-0.023,1.186-0.071
			V17.932z"/>
		<path fill="#00435B" d="M750.31,0.978h3.747v3.059h-3.747V0.978z M750.428,6.1h3.509v11.999h-3.509V6.1z"/>
		<path fill="#00435B" d="M757.068,8.258c0-0.048,0-1.352-0.071-2.182h3.367l0.095,1.802c0.332-0.545,1.281-2.087,3.889-2.087
			c2.348,0,3.344,1.423,3.652,2.252c0.261,0.735,0.332,1.352,0.332,3.581v6.474h-3.581v-7.446c0-0.498,0-0.925-0.19-1.304
			c-0.261-0.521-0.806-1.02-1.707-1.02c-0.759,0-1.446,0.356-1.826,0.925c-0.213,0.308-0.427,0.901-0.427,1.826v7.019h-3.533V8.258z
			"/>
	</g>
	<g>
		<path fill="#00435B" d="M771.213,2.005c0.898-0.387,1.755-0.871,2.558-1.452h1.783v9.649h-2.087V2.696
			c-0.401,0.304-1.203,0.802-2.253,1.23V2.005z"/>
		<path fill="#00435B" d="M780.781,8.364l-1.645,3.401h-1.424l1.023-3.401H780.781z"/>
		<path fill="#00435B" d="M781.251,8.253l2.502-2.281c0.442-0.401,0.94-0.843,1.452-1.465c0.539-0.649,0.664-0.954,0.664-1.396
			c0-0.733-0.429-1.23-1.147-1.23c-1.106,0-1.203,1.133-1.216,1.41h-2.115c0-0.387,0-1.106,0.567-1.811
			c0.553-0.691,1.576-1.051,2.751-1.051c2.101,0,3.263,1.134,3.263,2.626c0,0.996-0.387,2.281-4.562,5.641
			c1.396-0.028,1.562-0.042,2.654-0.055c1.479-0.028,1.645-0.028,1.963-0.042v1.604h-6.774V8.253z"/>
	</g>
	<g>
		<path fill="#00435B" d="M1.21,34.175h2.762l7.053,11.86v-11.86h1.828v14.344h-2.543L3.018,36.341v12.178H1.21V34.175z"/>
		<path fill="#00435B" d="M20.86,38.288c3.994,0,4.887,3.139,4.887,5.225c0,2.92-1.649,5.344-5.046,5.344
			c-3.298,0-4.907-2.285-4.907-5.205C15.794,41.188,16.947,38.288,20.86,38.288z M20.741,47.466c1.411,0,3.02-1.013,3.02-4.013
			c0-2.483-1.152-3.795-2.901-3.795c-1.192,0-3.119,0.755-3.119,3.874C17.741,45.579,18.616,47.466,20.741,47.466z"/>
		<path fill="#00435B" d="M28.729,39.698l-0.02-1.152h1.867l0.02,1.609c0.219-0.417,0.934-1.808,3.199-1.808
			c0.894,0,3.616,0.338,3.616,3.397v6.774h-1.907v-6.337c0-0.656-0.08-1.252-0.537-1.708c-0.477-0.457-1.132-0.676-1.768-0.676
			c-1.351,0-2.603,0.974-2.603,2.98v5.742h-1.867V39.698z"/>
		<path fill="#00435B" d="M39.896,42.539h4.986v1.51h-4.986V42.539z"/>
		<path fill="#00435B" d="M48.5,45.559c-0.02,0.755,0.377,1.808,2.185,1.808c0.775,0,1.351-0.139,1.749-0.636
			c0.199-0.258,0.318-0.596,0.318-0.934c0-0.974-0.695-1.152-2.186-1.49c-2.086-0.477-3.834-0.894-3.834-2.98
			c0-1.828,1.589-3.02,3.894-3.02c1.251,0,3,0.357,3.596,1.549c0.258,0.556,0.258,1.033,0.258,1.45h-1.907
			c0.06-1.51-1.252-1.629-1.927-1.629c-0.278,0-2.026,0-2.026,1.431c0,0.914,0.894,1.132,1.411,1.271
			c2.761,0.655,3.357,0.814,3.953,1.371c0.557,0.517,0.755,1.212,0.755,1.848c0,1.112-0.616,2.066-1.351,2.523
			c-0.875,0.537-1.927,0.676-2.96,0.676c-2.026,0-3.914-0.834-3.894-3.238H48.5z"/>
		<path fill="#00435B" d="M55.832,38.506H57.6V36.42l1.848-0.596v2.682h2.225v1.371h-2.225v5.98c0,0.497,0,1.331,1.331,1.331
			c0.377,0,0.735-0.06,0.894-0.099v1.45c-0.338,0.06-0.875,0.119-1.55,0.119c-1.708,0-2.523-0.497-2.523-2.126v-6.655h-1.768V38.506
			z"/>
		<path fill="#00435B" d="M70.057,48.519c-0.139-0.497-0.179-0.974-0.179-1.49c-0.894,1.649-2.245,1.808-3.08,1.808
			c-2.285,0-3.517-1.292-3.517-2.94c0-0.794,0.278-2.066,1.749-2.92c1.073-0.596,2.662-0.656,3.457-0.656
			c0.477,0,0.774,0.02,1.351,0.06c0-1.232,0-1.769-0.357-2.206c-0.377-0.497-1.192-0.655-1.729-0.655
			c-1.887,0-1.987,1.291-2.006,1.688h-1.868c0.06-0.517,0.119-1.212,0.695-1.887c0.755-0.834,2.166-1.073,3.219-1.073
			c1.45,0,3,0.457,3.536,1.47c0.318,0.596,0.338,1.073,0.338,1.53l-0.08,4.768c0,0.159,0.02,1.49,0.159,2.503H70.057z
			 M68.766,43.612c-0.755,0-3.596,0-3.596,2.026c0,0.636,0.397,1.729,2.066,1.729c0.954,0,1.669-0.377,2.126-1.073
			c0.417-0.675,0.437-1.232,0.477-2.623C69.501,43.632,69.223,43.612,68.766,43.612z"/>
		<path fill="#00435B" d="M73.496,38.506h1.768V36.42l1.848-0.596v2.682h2.225v1.371h-2.225v5.98c0,0.497,0,1.331,1.331,1.331
			c0.377,0,0.735-0.06,0.894-0.099v1.45c-0.338,0.06-0.875,0.119-1.55,0.119c-1.708,0-2.523-0.497-2.523-2.126v-6.655h-1.768V38.506
			z"/>
		<path fill="#00435B" d="M81.462,34.215h2.245v2.046h-2.245V34.215z M81.661,38.546h1.868v9.973h-1.868V38.546z"/>
		<path fill="#00435B" d="M87.225,39.698l-0.02-1.152h1.868l0.02,1.609c0.219-0.417,0.934-1.808,3.199-1.808
			c0.894,0,3.616,0.338,3.616,3.397v6.774H94v-6.337c0-0.656-0.08-1.252-0.537-1.708c-0.477-0.457-1.132-0.676-1.768-0.676
			c-1.351,0-2.603,0.974-2.603,2.98v5.742h-1.867V39.698z"/>
		<path fill="#00435B" d="M100.378,45.559c-0.02,0.755,0.377,1.808,2.185,1.808c0.775,0,1.351-0.139,1.749-0.636
			c0.199-0.258,0.318-0.596,0.318-0.934c0-0.974-0.695-1.152-2.186-1.49c-2.086-0.477-3.834-0.894-3.834-2.98
			c0-1.828,1.589-3.02,3.894-3.02c1.251,0,3,0.357,3.596,1.549c0.258,0.556,0.258,1.033,0.258,1.45h-1.907
			c0.06-1.51-1.252-1.629-1.927-1.629c-0.278,0-2.026,0-2.026,1.431c0,0.914,0.894,1.132,1.411,1.271
			c2.761,0.655,3.357,0.814,3.953,1.371c0.557,0.517,0.755,1.212,0.755,1.848c0,1.112-0.616,2.066-1.351,2.523
			c-0.875,0.537-1.927,0.676-2.96,0.676c-2.026,0-3.914-0.834-3.894-3.238H100.378z"/>
		<path fill="#00435B" d="M116.83,50.963c-1.073-2.643-2.364-5.94-2.364-8.841c0-1.57,0.358-3.119,0.814-4.629
			c0.557-1.788,1.073-3.059,1.411-3.914h1.312c-0.318,0.974-0.755,2.324-1.172,4.212c-0.417,1.828-0.556,3.06-0.556,4.291
			c0,2.821,0.695,5.106,1.848,8.881H116.83z"/>
		<path fill="#00435B" d="M122.513,43.87c-0.04,2.066,0.814,3.596,2.861,3.596c1.212,0,2.185-0.636,2.344-2.066h1.867
			c-0.06,0.497-0.139,1.311-0.854,2.086c-0.437,0.497-1.431,1.331-3.437,1.331c-3.139,0-4.629-1.947-4.629-5.105
			c0-1.967,0.397-3.596,1.967-4.689c0.954-0.675,2.146-0.735,2.722-0.735c4.47,0,4.371,3.954,4.331,5.583H122.513z M127.778,42.559
			c0.02-0.954-0.159-2.94-2.463-2.94c-1.212,0-2.682,0.735-2.722,2.94H127.778z"/>
		<path fill="#00435B" d="M132.289,46.135h2.205v2.384h-2.205V46.135z"/>
		<path fill="#00435B" d="M139.74,49.294c0.08,1.112,0.557,1.947,2.325,1.947c2.603,0,2.642-1.887,2.642-4.589
			c-0.794,1.649-2.682,1.689-3.278,1.689c-0.914,0-2.225-0.199-3.06-1.232c-0.854-1.013-1.132-2.344-1.132-3.675
			c0-3.377,1.986-5.026,4.43-5.026c2.006,0,2.742,0.993,3.139,1.51l0.02-1.371h1.808l-0.04,1.808l-0.02,6.238
			c0,2.404-0.08,3.377-0.477,4.132c-0.834,1.589-2.781,1.788-4.152,1.788c-3.994,0-4.113-1.867-4.192-3.218H139.74z M144.091,45.956
			c0.397-0.517,0.675-1.053,0.675-2.861c0-1.251-0.278-1.967-0.774-2.483c-0.497-0.536-1.292-0.874-2.146-0.874
			c-2.364,0-2.682,2.384-2.682,3.656c0,1.53,0.457,3.556,2.742,3.556C142.998,46.95,143.634,46.552,144.091,45.956z"/>
		<path fill="#00435B" d="M149.953,46.135h2.205v2.384h-2.205V46.135z"/>
		<path fill="#00435B" d="M162.272,43.87c-0.04,2.066,0.814,3.596,2.861,3.596c1.212,0,2.185-0.636,2.344-2.066h1.867
			c-0.06,0.497-0.139,1.311-0.854,2.086c-0.437,0.497-1.431,1.331-3.437,1.331c-3.139,0-4.629-1.947-4.629-5.105
			c0-1.967,0.397-3.596,1.967-4.689c0.954-0.675,2.146-0.735,2.722-0.735c4.47,0,4.371,3.954,4.331,5.583H162.272z M167.537,42.559
			c0.02-0.954-0.159-2.94-2.463-2.94c-1.212,0-2.682,0.735-2.722,2.94H167.537z"/>
		<path fill="#00435B" d="M171.035,46.592l5.324-6.635h-5.046v-1.411h7.172v1.589l-5.503,6.934h5.503v1.45h-7.45V46.592z"/>
		<path fill="#00435B" d="M181.744,43.87c-0.04,2.066,0.814,3.596,2.861,3.596c1.212,0,2.185-0.636,2.344-2.066h1.867
			c-0.06,0.497-0.139,1.311-0.854,2.086c-0.437,0.497-1.431,1.331-3.437,1.331c-3.139,0-4.629-1.947-4.629-5.105
			c0-1.967,0.397-3.596,1.967-4.689c0.954-0.675,2.146-0.735,2.722-0.735c4.47,0,4.371,3.954,4.331,5.583H181.744z M187.008,42.559
			c0.02-0.954-0.159-2.94-2.463-2.94c-1.212,0-2.682,0.735-2.722,2.94H187.008z"/>
		<path fill="#00435B" d="M190.129,38.506h1.768V36.42l1.848-0.596v2.682h2.225v1.371h-2.225v5.98c0,0.497,0,1.331,1.331,1.331
			c0.377,0,0.735-0.06,0.894-0.099v1.45c-0.338,0.06-0.875,0.119-1.55,0.119c-1.708,0-2.523-0.497-2.523-2.126v-6.655h-1.768V38.506
			z"/>
		<path fill="#00435B" d="M198.096,34.215h2.245v2.046h-2.245V34.215z M198.295,38.546h1.868v9.973h-1.868V38.546z"/>
		<path fill="#00435B" d="M203.779,39.877l-0.04-1.331h1.888v1.45c0.954-1.569,2.304-1.708,3.159-1.708
			c2.205,0,2.9,1.132,3.258,1.868c0.337-0.557,1.152-1.868,3.357-1.868c1.43,0,3.656,0.596,3.656,3.536v6.695h-1.888v-6.397
			c0-0.875-0.159-1.252-0.338-1.51c-0.317-0.457-0.953-0.874-1.907-0.874c-1.211,0-1.867,0.695-2.125,1.053
			c-0.437,0.616-0.437,1.708-0.437,2.146v5.583h-1.888v-6.596c0-1.232-0.715-2.186-2.185-2.186c-1.271,0-1.967,0.795-2.186,1.093
			c-0.417,0.576-0.437,1.391-0.437,2.026v5.662h-1.887V39.877z"/>
		<path fill="#00435B" d="M224.423,39.996c0.258-0.457,0.994-1.708,3.258-1.708c0.993,0,2.245,0.238,3.159,1.271
			c0.497,0.576,1.172,1.569,1.172,3.755c0,1.927-0.457,2.98-0.954,3.636c-0.795,1.132-2.126,1.708-3.497,1.708
			c-0.477,0-1.371-0.06-2.225-0.636c-0.556-0.377-0.775-0.715-0.974-1.013l-0.04,1.51h-1.808l0.04-1.788V34.175h1.868V39.996z
			 M227.244,39.559c-2.861,0-2.861,3.337-2.861,3.973c0,0.656,0,3.775,2.781,3.775c2.305,0,2.881-2.245,2.881-3.874
			C230.045,42.44,229.847,39.559,227.244,39.559z"/>
		<path fill="#00435B" d="M235.828,43.87c-0.04,2.066,0.814,3.596,2.861,3.596c1.212,0,2.185-0.636,2.344-2.066h1.867
			c-0.06,0.497-0.139,1.311-0.854,2.086c-0.437,0.497-1.431,1.331-3.437,1.331c-3.139,0-4.629-1.947-4.629-5.105
			c0-1.967,0.397-3.596,1.967-4.689c0.954-0.675,2.146-0.735,2.722-0.735c4.47,0,4.371,3.954,4.331,5.583H235.828z M241.093,42.559
			c0.02-0.954-0.159-2.94-2.463-2.94c-1.212,0-2.682,0.735-2.722,2.94H241.093z"/>
		<path fill="#00435B" d="M246.796,33.579c1.073,2.642,2.364,5.92,2.364,8.821c0,1.57-0.358,3.119-0.814,4.629
			c-0.557,1.788-1.073,3.08-1.411,3.934h-1.312c0.318-0.994,0.755-2.345,1.172-4.232c0.417-1.808,0.556-3.06,0.556-4.291
			c0-2.801-0.695-5.086-1.848-8.861H246.796z"/>
		<path fill="#00435B" d="M263.963,48.519c-0.139-0.497-0.179-0.974-0.179-1.49c-0.894,1.649-2.245,1.808-3.08,1.808
			c-2.285,0-3.517-1.292-3.517-2.94c0-0.794,0.278-2.066,1.749-2.92c1.073-0.596,2.662-0.656,3.457-0.656
			c0.477,0,0.774,0.02,1.351,0.06c0-1.232,0-1.769-0.357-2.206c-0.377-0.497-1.192-0.655-1.729-0.655
			c-1.887,0-1.987,1.291-2.006,1.688h-1.868c0.06-0.517,0.119-1.212,0.695-1.887c0.755-0.834,2.166-1.073,3.218-1.073
			c1.451,0,3,0.457,3.537,1.47c0.318,0.596,0.338,1.073,0.338,1.53l-0.08,4.768c0,0.159,0.02,1.49,0.159,2.503H263.963z
			 M262.671,43.612c-0.755,0-3.596,0-3.596,2.026c0,0.636,0.397,1.729,2.066,1.729c0.954,0,1.669-0.377,2.126-1.073
			c0.417-0.675,0.437-1.232,0.477-2.623C263.407,43.632,263.128,43.612,262.671,43.612z"/>
		<path fill="#00435B" d="M269.03,40.572c0-0.675-0.04-1.371-0.099-2.026h1.887l0.04,1.927c0.358-1.391,1.55-1.848,2.384-1.967
			c0.556-0.079,0.973-0.06,1.291-0.04v1.828c-0.099-0.04-0.218-0.06-0.357-0.079c-0.139-0.02-0.318-0.02-0.537-0.02
			c-2.205,0-2.722,1.311-2.722,3.02v5.305h-1.887V40.572z"/>
		<path fill="#00435B" d="M277.792,43.87c-0.04,2.066,0.814,3.596,2.861,3.596c1.212,0,2.185-0.636,2.344-2.066h1.867
			c-0.06,0.497-0.139,1.311-0.854,2.086c-0.437,0.497-1.431,1.331-3.437,1.331c-3.139,0-4.629-1.947-4.629-5.105
			c0-1.967,0.397-3.596,1.967-4.689c0.954-0.675,2.146-0.735,2.722-0.735c4.47,0,4.371,3.954,4.331,5.583H277.792z M283.057,42.559
			c0.02-0.954-0.159-2.94-2.463-2.94c-1.212,0-2.682,0.735-2.722,2.94H283.057z"/>
		<path fill="#00435B" d="M293.291,39.698l-0.02-1.152h1.867l0.02,1.609c0.219-0.417,0.934-1.808,3.199-1.808
			c0.894,0,3.616,0.338,3.616,3.397v6.774h-1.907v-6.337c0-0.656-0.08-1.252-0.537-1.708c-0.477-0.457-1.132-0.676-1.768-0.676
			c-1.351,0-2.603,0.974-2.603,2.98v5.742h-1.867V39.698z"/>
		<path fill="#00435B" d="M309.702,38.288c3.994,0,4.887,3.139,4.887,5.225c0,2.92-1.649,5.344-5.046,5.344
			c-3.298,0-4.907-2.285-4.907-5.205C304.636,41.188,305.789,38.288,309.702,38.288z M309.583,47.466c1.411,0,3.02-1.013,3.02-4.013
			c0-2.483-1.152-3.795-2.901-3.795c-1.192,0-3.119,0.755-3.119,3.874C306.583,45.579,307.458,47.466,309.583,47.466z"/>
		<path fill="#00435B" d="M315.982,38.506h1.768V36.42l1.848-0.596v2.682h2.225v1.371h-2.225v5.98c0,0.497,0,1.331,1.331,1.331
			c0.377,0,0.735-0.06,0.894-0.099v1.45c-0.338,0.06-0.875,0.119-1.55,0.119c-1.708,0-2.523-0.497-2.523-2.126v-6.655h-1.768V38.506
			z"/>
		<path fill="#00435B" d="M329.751,40.572c0-0.675-0.04-1.371-0.099-2.026h1.887l0.04,1.927c0.358-1.391,1.55-1.848,2.384-1.967
			c0.556-0.079,0.973-0.06,1.291-0.04v1.828c-0.099-0.04-0.218-0.06-0.357-0.079c-0.139-0.02-0.318-0.02-0.537-0.02
			c-2.205,0-2.722,1.311-2.722,3.02v5.305h-1.887V40.572z"/>
		<path fill="#00435B" d="M338.513,43.87c-0.04,2.066,0.814,3.596,2.861,3.596c1.212,0,2.185-0.636,2.344-2.066h1.867
			c-0.06,0.497-0.139,1.311-0.854,2.086c-0.437,0.497-1.431,1.331-3.437,1.331c-3.139,0-4.629-1.947-4.629-5.105
			c0-1.967,0.397-3.596,1.967-4.689c0.954-0.675,2.146-0.735,2.722-0.735c4.47,0,4.371,3.954,4.331,5.583H338.513z M343.778,42.559
			c0.02-0.954-0.159-2.94-2.463-2.94c-1.212,0-2.682,0.735-2.722,2.94H343.778z"/>
		<path fill="#00435B" d="M354.11,41.745c-0.04-0.457-0.179-2.086-1.987-2.086c-2.583,0-2.583,3-2.583,3.755
			c0,2.046,0.497,3.954,2.483,3.954c1.589,0,2.125-1.192,2.166-2.166h1.887c-0.119,1.947-1.569,3.576-4.033,3.576
			c-0.676,0-2.225-0.139-3.278-1.292c-0.596-0.695-1.192-1.748-1.192-3.814c0-4.152,2.543-5.384,4.53-5.384
			c0.655,0,2.146,0.139,3.06,1.232c0.735,0.854,0.794,1.668,0.834,2.225H354.11z"/>
		<path fill="#00435B" d="M362.694,38.288c3.994,0,4.888,3.139,4.888,5.225c0,2.92-1.649,5.344-5.046,5.344
			c-3.298,0-4.907-2.285-4.907-5.205C357.628,41.188,358.78,38.288,362.694,38.288z M362.575,47.466c1.411,0,3.02-1.013,3.02-4.013
			c0-2.483-1.152-3.795-2.901-3.795c-1.192,0-3.119,0.755-3.119,3.874C359.575,45.579,360.449,47.466,362.575,47.466z"/>
		<path fill="#00435B" d="M370.483,39.877l-0.04-1.331h1.888v1.45c0.954-1.569,2.304-1.708,3.159-1.708
			c2.205,0,2.9,1.132,3.258,1.868c0.337-0.557,1.152-1.868,3.357-1.868c1.43,0,3.656,0.596,3.656,3.536v6.695h-1.888v-6.397
			c0-0.875-0.159-1.252-0.338-1.51c-0.317-0.457-0.953-0.874-1.907-0.874c-1.211,0-1.867,0.695-2.125,1.053
			c-0.437,0.616-0.437,1.708-0.437,2.146v5.583h-1.888v-6.596c0-1.232-0.715-2.186-2.185-2.186c-1.271,0-1.967,0.795-2.186,1.093
			c-0.417,0.576-0.437,1.391-0.437,2.026v5.662h-1.887V39.877z"/>
		<path fill="#00435B" d="M389.24,39.877l-0.04-1.331h1.888v1.45c0.954-1.569,2.304-1.708,3.159-1.708
			c2.205,0,2.9,1.132,3.258,1.868c0.337-0.557,1.152-1.868,3.357-1.868c1.43,0,3.656,0.596,3.656,3.536v6.695h-1.888v-6.397
			c0-0.875-0.159-1.252-0.338-1.51c-0.317-0.457-0.953-0.874-1.907-0.874c-1.211,0-1.867,0.695-2.125,1.053
			c-0.437,0.616-0.437,1.708-0.437,2.146v5.583h-1.888v-6.596c0-1.232-0.715-2.186-2.185-2.186c-1.271,0-1.967,0.795-2.186,1.093
			c-0.417,0.576-0.437,1.391-0.437,2.026v5.662h-1.887V39.877z"/>
		<path fill="#00435B" d="M409.149,43.87c-0.04,2.066,0.814,3.596,2.861,3.596c1.212,0,2.185-0.636,2.344-2.066h1.867
			c-0.06,0.497-0.139,1.311-0.854,2.086c-0.437,0.497-1.431,1.331-3.437,1.331c-3.139,0-4.629-1.947-4.629-5.105
			c0-1.967,0.397-3.596,1.967-4.689c0.954-0.675,2.146-0.735,2.722-0.735c4.47,0,4.371,3.954,4.331,5.583H409.149z M414.414,42.559
			c0.02-0.954-0.159-2.94-2.463-2.94c-1.212,0-2.682,0.735-2.722,2.94H414.414z"/>
		<path fill="#00435B" d="M419.124,39.698l-0.02-1.152h1.867l0.02,1.609c0.219-0.417,0.934-1.808,3.199-1.808
			c0.894,0,3.616,0.338,3.616,3.397v6.774h-1.907v-6.337c0-0.656-0.08-1.252-0.537-1.708c-0.477-0.457-1.132-0.676-1.768-0.676
			c-1.351,0-2.603,0.974-2.603,2.98v5.742h-1.867V39.698z"/>
		<path fill="#00435B" d="M438.118,34.195h1.867V46.93c0,0.219,0.04,1.073,0.08,1.589h-1.867l-0.04-1.589
			c-0.159,0.278-0.377,0.695-0.894,1.053c-0.814,0.557-1.788,0.735-2.463,0.735c-1.331,0-4.292-0.695-4.292-5.066
			c0-3.795,2.166-5.444,4.51-5.444c2.146,0,2.86,1.271,3.099,1.689V34.195z M437.423,40.612c-0.397-0.516-1.132-1.013-2.186-1.013
			c-2.742,0-2.742,3.318-2.742,3.993c0,1.769,0.457,3.814,2.742,3.814c2.94,0,2.94-3.238,2.94-4.013
			C438.178,41.943,437.84,41.148,437.423,40.612z"/>
		<path fill="#00435B" d="M444.477,43.87c-0.04,2.066,0.814,3.596,2.861,3.596c1.212,0,2.185-0.636,2.344-2.066h1.867
			c-0.06,0.497-0.139,1.311-0.854,2.086c-0.437,0.497-1.431,1.331-3.437,1.331c-3.139,0-4.629-1.947-4.629-5.105
			c0-1.967,0.397-3.596,1.967-4.689c0.954-0.675,2.146-0.735,2.722-0.735c4.47,0,4.371,3.954,4.331,5.583H444.477z M449.742,42.559
			c0.02-0.954-0.159-2.94-2.463-2.94c-1.212,0-2.682,0.735-2.722,2.94H449.742z"/>
		<path fill="#00435B" d="M461.306,34.195h1.867V46.93c0,0.219,0.04,1.073,0.08,1.589h-1.867l-0.04-1.589
			c-0.159,0.278-0.377,0.695-0.894,1.053c-0.814,0.557-1.788,0.735-2.463,0.735c-1.331,0-4.292-0.695-4.292-5.066
			c0-3.795,2.166-5.444,4.51-5.444c2.146,0,2.86,1.271,3.099,1.689V34.195z M460.61,40.612c-0.397-0.516-1.132-1.013-2.186-1.013
			c-2.742,0-2.742,3.318-2.742,3.993c0,1.769,0.457,3.814,2.742,3.814c2.94,0,2.94-3.238,2.94-4.013
			C461.365,41.943,461.027,41.148,460.61,40.612z"/>
		<path fill="#00435B" d="M477.042,35.566c-0.318-0.02-0.715-0.04-1.093-0.04c-1.51,0-1.51,0.755-1.51,1.451v1.569h2.324v1.351
			h-2.324v8.622h-1.848v-8.622h-1.967v-1.351h1.967v-1.132c0-1.371,0.08-1.868,0.417-2.384c0.417-0.636,1.212-1.093,2.503-1.093
			c0.537,0,1.132,0.08,1.53,0.139V35.566z"/>
		<path fill="#00435B" d="M483.003,38.288c3.994,0,4.887,3.139,4.887,5.225c0,2.92-1.649,5.344-5.046,5.344
			c-3.298,0-4.907-2.285-4.907-5.205C477.937,41.188,479.089,38.288,483.003,38.288z M482.884,47.466c1.411,0,3.02-1.013,3.02-4.013
			c0-2.483-1.152-3.795-2.901-3.795c-1.192,0-3.119,0.755-3.119,3.874C479.884,45.579,480.758,47.466,482.884,47.466z"/>
		<path fill="#00435B" d="M490.912,40.572c0-0.675-0.04-1.371-0.1-2.026h1.888l0.04,1.927c0.358-1.391,1.55-1.848,2.384-1.967
			c0.556-0.079,0.973-0.06,1.291-0.04v1.828c-0.099-0.04-0.218-0.06-0.357-0.079c-0.139-0.02-0.318-0.02-0.537-0.02
			c-2.205,0-2.722,1.311-2.722,3.02v5.305h-1.887V40.572z"/>
		<path fill="#00435B" d="M504.165,40.572c0-0.675-0.04-1.371-0.1-2.026h1.888l0.04,1.927c0.358-1.391,1.55-1.848,2.384-1.967
			c0.556-0.079,0.973-0.06,1.291-0.04v1.828c-0.099-0.04-0.218-0.06-0.357-0.079c-0.139-0.02-0.318-0.02-0.537-0.02
			c-2.205,0-2.722,1.311-2.722,3.02v5.305h-1.887V40.572z"/>
		<path fill="#00435B" d="M516.125,38.288c3.994,0,4.887,3.139,4.887,5.225c0,2.92-1.649,5.344-5.046,5.344
			c-3.298,0-4.907-2.285-4.907-5.205C511.059,41.188,512.211,38.288,516.125,38.288z M516.006,47.466c1.411,0,3.02-1.013,3.02-4.013
			c0-2.483-1.152-3.795-2.901-3.795c-1.192,0-3.119,0.755-3.119,3.874C513.006,45.579,513.88,47.466,516.006,47.466z"/>
		<path fill="#00435B" d="M525.643,38.546v6.417c0,0.974,0.218,2.205,2.125,2.205c0.934,0,1.808-0.318,2.344-1.112
			c0.417-0.596,0.417-1.371,0.417-1.868v-5.642h1.927v8.105c0,0.199,0.04,1.312,0.06,1.868h-1.947l-0.04-1.708
			c-0.358,0.695-1.033,1.808-3.179,1.808c-2.463,0-3.616-1.41-3.616-3.377v-6.695H525.643z"/>
		<path fill="#00435B" d="M534.545,38.506h1.768V36.42l1.848-0.596v2.682h2.225v1.371h-2.225v5.98c0,0.497,0,1.331,1.331,1.331
			c0.377,0,0.735-0.06,0.894-0.099v1.45c-0.338,0.06-0.875,0.119-1.55,0.119c-1.708,0-2.523-0.497-2.523-2.126v-6.655h-1.768V38.506
			z"/>
		<path fill="#00435B" d="M542.512,34.215h2.245v2.046h-2.245V34.215z M542.711,38.546h1.868v9.973h-1.868V38.546z"/>
		<path fill="#00435B" d="M548.274,39.698l-0.02-1.152h1.867l0.02,1.609c0.219-0.417,0.934-1.808,3.199-1.808
			c0.894,0,3.616,0.338,3.616,3.397v6.774h-1.907v-6.337c0-0.656-0.08-1.252-0.537-1.708c-0.477-0.457-1.132-0.676-1.768-0.676
			c-1.351,0-2.603,0.974-2.603,2.98v5.742h-1.867V39.698z"/>
		<path fill="#00435B" d="M561.488,43.87c-0.04,2.066,0.814,3.596,2.861,3.596c1.212,0,2.185-0.636,2.344-2.066h1.867
			c-0.06,0.497-0.139,1.311-0.854,2.086c-0.437,0.497-1.431,1.331-3.437,1.331c-3.139,0-4.629-1.947-4.629-5.105
			c0-1.967,0.397-3.596,1.967-4.689c0.954-0.675,2.146-0.735,2.722-0.735c4.47,0,4.371,3.954,4.331,5.583H561.488z M566.752,42.559
			c0.02-0.954-0.159-2.94-2.463-2.94c-1.212,0-2.682,0.735-2.722,2.94H566.752z"/>
		<path fill="#00435B" d="M580.423,34.175h2.126l5.801,14.344h-2.166l-1.55-3.735h-6.655l-1.55,3.735h-2.046L580.423,34.175z
			 M578.615,43.175h5.423l-2.642-7.033L578.615,43.175z"/>
		<path fill="#00435B" d="M591.331,44.327c0.04,0.993,0.159,2.841,3.457,2.841c2.98,0,3.357-1.848,3.357-2.563
			c0-1.609-1.292-1.927-3.298-2.424c-2.186-0.537-3.159-0.775-3.894-1.271c-1.172-0.795-1.49-1.868-1.49-2.821
			c0-2.92,2.762-4.192,5.463-4.192c0.954,0,2.881,0.159,4.033,1.411c0.794,0.874,0.834,1.848,0.874,2.443h-2.066
			c-0.1-1.788-1.609-2.185-3.02-2.185c-1.987,0-3.179,0.894-3.179,2.324c0,1.271,0.834,1.708,2.583,2.126
			c3.417,0.874,3.794,0.954,4.629,1.51c1.331,0.874,1.43,2.265,1.43,2.861c0,2.543-1.986,4.47-5.662,4.47
			c-1.092,0-3.317-0.179-4.45-1.629c-0.814-1.053-0.834-2.205-0.834-2.9H591.331z"/>
		<path fill="#00435B" d="M611.796,38.049c-0.08-0.497-0.338-2.483-3.1-2.483c-3.457,0-4.073,3.536-4.073,5.92
			c0,2.702,0.775,5.622,4.053,5.622c0.874,0,1.708-0.218,2.324-0.854c0.517-0.557,0.636-1.172,0.695-1.51h2.186
			c-0.298,2.821-2.901,3.994-5.364,3.994c-5.046,0-6.02-4.45-6.02-7.232c0-3.02,1.172-7.529,6.278-7.529
			c2.026,0,4.887,0.814,5.146,4.073H611.796z"/>
		<path fill="#00435B" d="M622.228,48.519h-2.186l-5.105-14.344h2.205l4.073,12.258l4.291-12.258h2.007L622.228,48.519z"/>
		<path fill="#00435B" d="M629.66,34.175h4.152c1.927,0,4.192,0,5.781,1.867c1.271,1.49,1.768,3.457,1.768,5.424
			c0,3.099-1.291,5.006-2.384,5.88c-1.411,1.172-3.179,1.172-5.285,1.172h-4.033V34.175z M631.646,46.89h1.947
			c1.371,0,2.801-0.08,3.755-0.795c1.828-1.371,1.887-3.715,1.887-4.549c0-0.537-0.04-2.98-1.391-4.47
			c-0.914-1.013-2.066-1.251-3.814-1.251h-2.384V46.89z"/>
		<path fill="#00435B" d="M649.469,40.175c0-0.437-0.02-0.675-0.06-1.629h1.888l0.04,1.649c0.934-1.569,2.583-1.808,3.397-1.808
			c2.146,0,4.192,1.47,4.192,5.166c0,3.715-2.166,5.344-4.55,5.344c-1.45,0-2.523-0.616-3.06-1.49v4.947h-1.848V40.175z
			 M654.058,47.526c0.477,0,1.47-0.1,2.106-0.974c0.715-0.974,0.814-2.404,0.814-3.119c0-1.788-0.536-3.656-2.742-3.656
			c-2.98,0-2.98,3.159-2.98,4.053C651.257,45.042,651.436,47.526,654.058,47.526z"/>
		<path fill="#00435B" d="M661.768,40.572c0-0.675-0.04-1.371-0.1-2.026h1.888l0.04,1.927c0.358-1.391,1.55-1.848,2.384-1.967
			c0.556-0.079,0.973-0.06,1.291-0.04v1.828c-0.099-0.04-0.218-0.06-0.357-0.079c-0.139-0.02-0.318-0.02-0.537-0.02
			c-2.205,0-2.722,1.311-2.722,3.02v5.305h-1.887V40.572z"/>
		<path fill="#00435B" d="M670.531,43.87c-0.04,2.066,0.814,3.596,2.861,3.596c1.212,0,2.185-0.636,2.344-2.066h1.867
			c-0.06,0.497-0.139,1.311-0.854,2.086c-0.437,0.497-1.431,1.331-3.437,1.331c-3.139,0-4.629-1.947-4.629-5.105
			c0-1.967,0.397-3.596,1.967-4.689c0.954-0.675,2.146-0.735,2.722-0.735c4.47,0,4.371,3.954,4.331,5.583H670.531z M675.795,42.559
			c0.02-0.954-0.159-2.94-2.463-2.94c-1.212,0-2.682,0.735-2.722,2.94H675.795z"/>
		<path fill="#00435B" d="M678.936,38.546h2.086l3.179,7.907l3.1-7.907h2.066l-4.371,9.973h-1.887L678.936,38.546z"/>
		<path fill="#00435B" d="M692.625,43.87c-0.04,2.066,0.814,3.596,2.861,3.596c1.212,0,2.185-0.636,2.344-2.066h1.867
			c-0.06,0.497-0.139,1.311-0.854,2.086c-0.437,0.497-1.431,1.331-3.437,1.331c-3.139,0-4.629-1.947-4.629-5.105
			c0-1.967,0.397-3.596,1.967-4.689c0.954-0.675,2.146-0.735,2.722-0.735c4.47,0,4.371,3.954,4.331,5.583H692.625z M697.89,42.559
			c0.02-0.954-0.159-2.94-2.463-2.94c-1.212,0-2.682,0.735-2.722,2.94H697.89z"/>
		<path fill="#00435B" d="M702.6,39.698l-0.02-1.152h1.868l0.02,1.609c0.219-0.417,0.934-1.808,3.199-1.808
			c0.894,0,3.616,0.338,3.616,3.397v6.774h-1.907v-6.337c0-0.656-0.08-1.252-0.537-1.708c-0.477-0.457-1.132-0.676-1.768-0.676
			c-1.351,0-2.603,0.974-2.603,2.98v5.742H702.6V39.698z"/>
		<path fill="#00435B" d="M713.151,38.506h1.768V36.42l1.848-0.596v2.682h2.225v1.371h-2.225v5.98c0,0.497,0,1.331,1.331,1.331
			c0.377,0,0.735-0.06,0.894-0.099v1.45c-0.338,0.06-0.875,0.119-1.55,0.119c-1.708,0-2.523-0.497-2.523-2.126v-6.655h-1.768V38.506
			z"/>
		<path fill="#00435B" d="M721.118,34.215h2.245v2.046h-2.245V34.215z M721.317,38.546h1.868v9.973h-1.868V38.546z"/>
		<path fill="#00435B" d="M731.152,38.288c3.994,0,4.888,3.139,4.888,5.225c0,2.92-1.649,5.344-5.046,5.344
			c-3.298,0-4.907-2.285-4.907-5.205C726.086,41.188,727.238,38.288,731.152,38.288z M731.033,47.466c1.411,0,3.02-1.013,3.02-4.013
			c0-2.483-1.152-3.795-2.901-3.795c-1.192,0-3.119,0.755-3.119,3.874C728.033,45.579,728.907,47.466,731.033,47.466z"/>
		<path fill="#00435B" d="M739.021,39.698l-0.02-1.152h1.868l0.02,1.609c0.219-0.417,0.934-1.808,3.199-1.808
			c0.894,0,3.616,0.338,3.616,3.397v6.774h-1.907v-6.337c0-0.656-0.08-1.252-0.537-1.708c-0.477-0.457-1.132-0.676-1.768-0.676
			c-1.351,0-2.603,0.974-2.603,2.98v5.742h-1.867V39.698z"/>
	</g>
</g>
</svg>
