<?xml version="1.0" encoding="utf-8"?>
<!-- Generator: Adobe Illustrator 17.0.0, SVG Export Plug-In . SVG Version: 6.00 Build 0)  -->
<!DOCTYPE svg PUBLIC "-//W3C//DTD SVG 1.1//EN" "http://www.w3.org/Graphics/SVG/1.1/DTD/svg11.dtd">
<svg version="1.1" id="Layer_1" xmlns="http://www.w3.org/2000/svg" xmlns:xlink="http://www.w3.org/1999/xlink" x="0px" y="0px"
	 width="439.817px" height="339.949px" viewBox="0 0 439.817 339.949" enable-background="new 0 0 439.817 339.949"
	 xml:space="preserve">
<g>
	<radialGradient id="SVGID_2_" cx="219.9085" cy="169.9745" r="196.5338" gradientUnits="userSpaceOnUse">
		<stop  offset="0" style="stop-color:#A0D4E4;stop-opacity:0"/>
		<stop  offset="0.0392" style="stop-color:#9DD2E5;stop-opacity:0.197"/>
		<stop  offset="0.0707" style="stop-color:#93CDE6;stop-opacity:0.3552"/>
		<stop  offset="0.0995" style="stop-color:#82C4E9;stop-opacity:0.5"/>
		<stop  offset="0.1267" style="stop-color:#6AB8ED;stop-opacity:0.6367"/>
		<stop  offset="0.1528" style="stop-color:#4BA8F2;stop-opacity:0.7679"/>
		<stop  offset="0.1777" style="stop-color:#2694F9;stop-opacity:0.893"/>
		<stop  offset="0.199" style="stop-color:#0080FF"/>
		<stop  offset="0.2012" style="stop-color:#007FFC"/>
		<stop  offset="0.2379" style="stop-color:#006CD3"/>
		<stop  offset="0.2776" style="stop-color:#015BAF"/>
		<stop  offset="0.3223" style="stop-color:#014D8F"/>
		<stop  offset="0.3717" style="stop-color:#014073"/>
		<stop  offset="0.4275" style="stop-color:#02365D"/>
		<stop  offset="0.4927" style="stop-color:#022E4C"/>
		<stop  offset="0.5733" style="stop-color:#022941"/>
		<stop  offset="0.6863" style="stop-color:#02263A"/>
		<stop  offset="1" style="stop-color:#022538"/>
	</radialGradient>
	<path fill="url(#SVGID_2_)" d="M439.817,299.104c0,14.064-11.401,25.465-25.465,25.465c0,0-152.841,15.575-203.98,15.378
		c-46.386-0.179-184.906-15.378-184.906-15.378C11.401,324.569,0,313.168,0,299.104V37.848c0-14.064,11.401-25.465,25.465-25.465
		c0,0,138.68-12.383,184.906-12.383c50.995,0,203.98,12.383,203.98,12.383c14.064,0,25.465,11.401,25.465,25.465V299.104z"/>
	<g>
		<radialGradient id="SVGID_4_" cx="219.9086" cy="169.9746" r="192.3232" gradientUnits="userSpaceOnUse">
			<stop  offset="0" style="stop-color:#FFFFFF"/>
			<stop  offset="1" style="stop-color:#F7F7F7"/>
		</radialGradient>
		<path fill="url(#SVGID_4_)" d="M435.106,296.337c0,13.763-11.157,24.92-24.92,24.92c0,0-149.566,15.242-199.61,15.048
			c-45.392-0.175-180.945-15.048-180.945-15.048c-13.763,0-24.92-11.157-24.92-24.92V40.679c0-13.763,11.157-24.92,24.92-24.92
			c0,0,135.709-12.118,180.945-12.118c49.902,0,199.61,12.118,199.61,12.118c13.763,0,24.92,11.157,24.92,24.92V296.337z"/>
	</g>
</g>
<g>
	<defs>
		<rect id="SVGID_19_" x="4.47" y="22.241" width="426.876" height="290.559"/>
	</defs>
	<clipPath id="SVGID_6_">
		<use xlink:href="#SVGID_19_"  overflow="visible"/>
	</clipPath>
	<g opacity="0.9" clip-path="url(#SVGID_6_)">
		<g>
			<defs>
				<rect id="SVGID_21_" x="4.472" y="22.24" width="426.868" height="290.559"/>
			</defs>
			<clipPath id="SVGID_8_">
				<use xlink:href="#SVGID_21_"  overflow="visible"/>
			</clipPath>
			<g clip-path="url(#SVGID_8_)">
				<defs>
					<rect id="SVGID_23_" x="4.469" y="22.241" width="426.876" height="290.559"/>
				</defs>
				<clipPath id="SVGID_9_">
					<use xlink:href="#SVGID_23_"  overflow="visible"/>
				</clipPath>
			</g>
		</g>
	</g>
</g>
<g>
	<defs>
		<rect id="SVGID_25_" x="2.47" y="22.241" width="426.876" height="290.559"/>
	</defs>
	<clipPath id="SVGID_10_">
		<use xlink:href="#SVGID_25_"  overflow="visible"/>
	</clipPath>
	<g clip-path="url(#SVGID_10_)">
		<path fill="#04617D" d="M23.874,236.963v-1.36h8.76v-4.619h1.232v5.979H23.874z"/>
		<path fill="#04617D" d="M23.874,229.389v-2.873c0-1.334,0-2.901,1.301-4.001c1.038-0.88,2.408-1.224,3.778-1.224
			c2.159,0,3.488,0.894,4.097,1.649c0.816,0.977,0.816,2.2,0.816,3.657v2.791H23.874z M32.732,228.014v-1.348
			c0-0.948-0.056-1.938-0.554-2.598c-0.955-1.266-2.588-1.307-3.169-1.307c-0.374,0-2.076,0.027-3.114,0.963
			c-0.706,0.632-0.872,1.43-0.872,2.64v1.649H32.732z"/>
		<path fill="#04617D" d="M23.874,219.394v-1.36h8.76v-4.619h1.232v5.979H23.874z"/>
		<path fill="#04617D" d="M29.701,214.858v-3.451h1.052v3.451H29.701z"/>
		<path fill="#04617D" d="M26.573,203.667c-0.346,0.055-1.73,0.233-1.73,2.145c0,2.393,2.463,2.818,4.124,2.818
			c1.882,0,3.917-0.536,3.917-2.805c0-0.604-0.152-1.183-0.595-1.608c-0.388-0.357-0.816-0.439-1.052-0.481v-1.512
			c1.965,0.206,2.782,2.007,2.782,3.712c0,3.492-3.1,4.165-5.038,4.165c-2.104,0-5.246-0.811-5.246-4.344
			c0-1.402,0.567-3.382,2.837-3.561V203.667z"/>
		<path fill="#04617D" d="M34.406,195.323l-10.656-6.063v-0.907l10.656,6.063V195.323z M26.476,192.683
			c1.716,0,2.505,1.004,2.505,2.255c0,1.195-0.72,2.213-2.422,2.213c-1.454,0-2.533-0.783-2.533-2.337
			C24.027,193.233,25.217,192.683,26.476,192.683z M26.532,193.769c-0.678,0-1.675,0.165-1.675,1.141
			c0,1.183,1.356,1.183,1.688,1.183c0.318,0,1.633,0,1.633-1.183C28.179,193.769,26.809,193.769,26.532,193.769z M29.743,186.936
			c0.276-0.247,0.719-0.563,1.757-0.563c1.509,0,2.533,0.729,2.533,2.214c0,1.76-1.315,2.254-2.463,2.254
			c-1.675,0-2.491-1.031-2.491-2.254C29.078,188.214,29.147,187.472,29.743,186.936z M31.528,187.417
			c-0.429,0-1.675,0.082-1.675,1.154c0,1.183,1.439,1.183,1.854,1.183c0.484,0,1.509-0.109,1.509-1.154
			C33.216,187.499,32.026,187.417,31.528,187.417z"/>
		<path fill="#04617D" d="M29.147,176.681c-0.318,0.027-1.453,0.123-1.453,1.374c0,1.788,2.09,1.788,2.616,1.788
			c1.425,0,2.754-0.344,2.754-1.719c0-1.101-0.831-1.472-1.508-1.499v-1.306c1.356,0.082,2.491,1.086,2.491,2.791
			c0,0.467-0.097,1.539-0.899,2.269c-0.484,0.412-1.218,0.824-2.657,0.824c-2.893,0-3.75-1.76-3.75-3.135
			c0-0.453,0.097-1.484,0.858-2.117c0.595-0.508,1.163-0.55,1.55-0.577V176.681z"/>
		<path fill="#04617D" d="M23.888,174.413v-1.307h4.055c-0.733-0.426-1.149-1.278-1.149-2.24c0-0.729,0.263-1.773,1.107-2.173
			c0.277-0.137,0.609-0.233,1.619-0.233h4.346v1.32h-4.11c-0.623,0-1.965,0-1.965,1.484c0,0.962,0.595,1.443,0.927,1.622
			c0.388,0.22,1.038,0.22,1.467,0.22h3.681v1.307H23.888z"/>
		<path fill="#04617D" d="M33.867,161.806c-0.346,0.097-0.678,0.124-1.038,0.124c1.149,0.618,1.259,1.554,1.259,2.131
			c0,1.581-0.899,2.434-2.048,2.434c-0.554,0-1.439-0.192-2.035-1.21c-0.415-0.742-0.457-1.843-0.457-2.393
			c0-0.33,0.014-0.536,0.042-0.935c-0.858,0-1.232,0-1.536,0.247c-0.346,0.262-0.457,0.825-0.457,1.196
			c0,1.306,0.9,1.375,1.176,1.389v1.292c-0.359-0.041-0.844-0.082-1.314-0.48c-0.582-0.522-0.748-1.499-0.748-2.228
			c0-1.004,0.318-2.076,1.024-2.447c0.415-0.22,0.747-0.233,1.065-0.233l3.322,0.055c0.11,0,1.038-0.014,1.744-0.11V161.806z
			 M30.448,162.7c0,0.522,0,2.488,1.412,2.488c0.443,0,1.204-0.274,1.204-1.43c0-0.66-0.263-1.154-0.748-1.471
			c-0.47-0.289-0.858-0.303-1.827-0.33C30.462,162.191,30.448,162.383,30.448,162.7z"/>
		<path fill="#04617D" d="M27.722,158.328l-0.803,0.014v-1.292l1.121-0.014c-0.291-0.151-1.259-0.646-1.259-2.214
			c0-0.618,0.235-2.502,2.367-2.502h4.719v1.32h-4.415c-0.457,0-0.872,0.055-1.19,0.371c-0.318,0.329-0.471,0.783-0.471,1.224
			c0,0.935,0.678,1.801,2.076,1.801h4v1.292H27.722z"/>
		<path fill="#04617D" d="M34.406,148.732c0.775-0.055,1.356-0.385,1.356-1.608c0-1.801-1.315-1.828-3.197-1.828
			c1.148,0.55,1.176,1.855,1.176,2.269c0,0.632-0.139,1.539-0.858,2.117c-0.706,0.591-1.633,0.783-2.561,0.783
			c-2.353,0-3.501-1.375-3.501-3.065c0-1.389,0.692-1.897,1.052-2.173l-0.955-0.014v-1.251l1.26,0.027l4.346,0.014
			c1.674,0,2.353,0.056,2.878,0.33c1.107,0.578,1.246,1.925,1.246,2.874c0,2.763-1.301,2.846-2.242,2.9V148.732z M32.082,145.721
			c-0.36-0.274-0.734-0.467-1.993-0.467c-0.872,0-1.37,0.192-1.73,0.536c-0.374,0.344-0.609,0.894-0.609,1.484
			c0,1.636,1.661,1.856,2.546,1.856c1.066,0,2.478-0.316,2.478-1.897C32.773,146.478,32.497,146.038,32.082,145.721z"/>
		<path fill="#04617D" d="M30.628,140.786c1.439,0.028,2.505-0.563,2.505-1.979c0-0.839-0.443-1.512-1.439-1.622v-1.292
			c0.346,0.041,0.914,0.096,1.453,0.591c0.346,0.303,0.927,0.99,0.927,2.378c0,2.173-1.356,3.204-3.557,3.204
			c-1.37,0-2.505-0.275-3.266-1.361c-0.471-0.66-0.512-1.484-0.512-1.884c0-3.093,2.754-3.024,3.889-2.997V140.786z M29.715,137.143
			c-0.665-0.014-2.048,0.109-2.048,1.704c0,0.839,0.512,1.856,2.048,1.884V137.143z"/>
	</g>
	<g clip-path="url(#SVGID_10_)">
		<path fill="#04617D" d="M42.17,226.721c-0.014,0.221-0.028,0.495-0.028,0.757c0,1.045,0.526,1.045,1.01,1.045h1.093v-1.609h0.941
			v1.609h6.006v1.278h-6.006v1.361h-0.941v-1.361h-0.789c-0.955,0-1.301-0.056-1.661-0.289c-0.443-0.289-0.761-0.839-0.761-1.732
			c0-0.371,0.055-0.783,0.097-1.059H42.17z"/>
		<path fill="#04617D" d="M45.657,225.526c-0.47,0-0.955,0.027-1.412,0.068v-1.306l1.343-0.027c-0.969-0.248-1.287-1.072-1.37-1.65
			c-0.056-0.385-0.042-0.673-0.028-0.894h1.273c-0.028,0.069-0.042,0.151-0.056,0.248c-0.014,0.096-0.014,0.22-0.014,0.371
			c0,1.526,0.914,1.884,2.104,1.884h3.695v1.306H45.657z"/>
		<path fill="#04617D" d="M44.066,217.249c0-2.764,2.187-3.382,3.64-3.382c2.035,0,3.723,1.141,3.723,3.491
			c0,2.282-1.592,3.396-3.626,3.396C46.086,220.755,44.066,219.958,44.066,217.249z M50.46,217.332c0-0.976-0.706-2.09-2.796-2.09
			c-1.73,0-2.643,0.798-2.643,2.008c0,0.825,0.526,2.158,2.699,2.158C49.145,219.408,50.46,218.803,50.46,217.332z"/>
		<path fill="#04617D" d="M45.173,211.861l-0.927,0.027v-1.306h1.011c-1.094-0.66-1.19-1.595-1.19-2.187
			c0-1.525,0.789-2.007,1.301-2.255c-0.387-0.233-1.301-0.797-1.301-2.323c0-0.989,0.415-2.529,2.463-2.529h4.664v1.306h-4.457
			c-0.609,0-0.872,0.11-1.052,0.234c-0.318,0.22-0.609,0.659-0.609,1.319c0,0.839,0.484,1.292,0.733,1.471
			c0.429,0.303,1.19,0.303,1.495,0.303h3.889v1.307h-4.595c-0.858,0-1.522,0.494-1.522,1.512c0,0.88,0.554,1.361,0.761,1.513
			c0.401,0.288,0.969,0.303,1.412,0.303h3.944v1.306H45.173z"/>
		<path fill="#04617D" d="M45.256,193.755c-0.318-0.179-1.19-0.688-1.19-2.255c0-0.688,0.166-1.554,0.886-2.186
			c0.401-0.344,1.093-0.812,2.616-0.812c1.342,0,2.076,0.316,2.533,0.66c0.789,0.55,1.19,1.471,1.19,2.42
			c0,0.33-0.042,0.948-0.443,1.539c-0.263,0.386-0.498,0.536-0.706,0.674l1.052,0.027v1.252l-1.246-0.028h-8.747v-1.292H45.256z
			 M44.952,191.803c0,1.979,2.325,1.979,2.768,1.979c0.457,0,2.629,0,2.629-1.925c0-1.595-1.564-1.993-2.699-1.993
			C46.958,189.865,44.952,190.002,44.952,191.803z"/>
		<path fill="#04617D" d="M51.193,182.441c-0.346,0.097-0.678,0.124-1.038,0.124c1.149,0.618,1.26,1.554,1.26,2.131
			c0,1.581-0.9,2.434-2.048,2.434c-0.554,0-1.439-0.192-2.035-1.21c-0.415-0.742-0.457-1.843-0.457-2.393
			c0-0.33,0.014-0.536,0.042-0.935c-0.858,0-1.232,0-1.536,0.247c-0.346,0.262-0.457,0.825-0.457,1.196
			c0,1.306,0.9,1.375,1.177,1.389v1.292c-0.36-0.041-0.844-0.082-1.315-0.48c-0.582-0.522-0.748-1.499-0.748-2.228
			c0-1.004,0.318-2.076,1.024-2.447c0.415-0.22,0.747-0.233,1.065-0.233l3.322,0.055c0.11,0,1.038-0.014,1.744-0.11V182.441z
			 M47.775,183.334c0,0.522,0,2.488,1.412,2.488c0.443,0,1.204-0.274,1.204-1.43c0-0.66-0.263-1.154-0.747-1.471
			c-0.471-0.289-0.858-0.303-1.827-0.33C47.789,182.826,47.775,183.018,47.775,183.334z"/>
		<path fill="#04617D" d="M49.131,178.262c0.526,0.014,1.259-0.262,1.259-1.513c0-0.536-0.097-0.935-0.443-1.21
			c-0.18-0.138-0.415-0.22-0.65-0.22c-0.678,0-0.803,0.481-1.038,1.513c-0.332,1.443-0.623,2.653-2.076,2.653
			c-1.273,0-2.104-1.101-2.104-2.695c0-0.866,0.25-2.075,1.08-2.488c0.388-0.179,0.72-0.179,1.01-0.179v1.32
			c-1.052-0.042-1.135,0.866-1.135,1.333c0,0.192,0,1.402,0.997,1.402c0.637,0,0.789-0.618,0.886-0.976
			c0.457-1.911,0.567-2.324,0.955-2.736c0.359-0.385,0.844-0.522,1.287-0.522c0.775,0,1.439,0.427,1.758,0.935
			c0.374,0.605,0.471,1.334,0.471,2.049c0,1.402-0.582,2.708-2.256,2.694V178.262z"/>
		<path fill="#04617D" d="M47.955,171.346c1.439,0.028,2.505-0.563,2.505-1.979c0-0.839-0.443-1.512-1.439-1.622v-1.292
			c0.346,0.041,0.914,0.096,1.453,0.591c0.346,0.303,0.927,0.99,0.927,2.378c0,2.173-1.356,3.204-3.557,3.204
			c-1.37,0-2.505-0.275-3.266-1.361c-0.471-0.66-0.512-1.484-0.512-1.884c0-3.093,2.754-3.024,3.889-2.997V171.346z M47.041,167.704
			c-0.665-0.014-2.048,0.109-2.048,1.704c0,0.839,0.512,1.856,2.048,1.884V167.704z"/>
		<path fill="#04617D" d="M41.215,164.459v-1.293h9.979v1.293H41.215z"/>
		<path fill="#04617D" d="M41.228,160.789v-1.554h1.426v1.554H41.228z M44.246,160.651v-1.292h6.948v1.292H44.246z"/>
		<path fill="#04617D" d="M45.048,156.802l-0.803,0.014v-1.293l1.121-0.014c-0.291-0.151-1.259-0.646-1.259-2.213
			c0-0.619,0.235-2.502,2.367-2.502h4.719v1.319h-4.415c-0.457,0-0.872,0.055-1.19,0.371c-0.318,0.33-0.471,0.784-0.471,1.224
			c0,0.935,0.678,1.801,2.076,1.801h4v1.293H45.048z"/>
		<path fill="#04617D" d="M47.955,147.66c1.439,0.027,2.505-0.563,2.505-1.979c0-0.839-0.443-1.513-1.439-1.623v-1.292
			c0.346,0.041,0.914,0.097,1.453,0.591c0.346,0.303,0.927,0.99,0.927,2.379c0,2.172-1.356,3.203-3.557,3.203
			c-1.37,0-2.505-0.274-3.266-1.361c-0.471-0.659-0.512-1.484-0.512-1.883c0-3.094,2.754-3.024,3.889-2.997V147.66z M47.041,144.016
			c-0.665-0.014-2.048,0.11-2.048,1.705c0,0.839,0.512,1.855,2.048,1.884V144.016z"/>
	</g>
	<g clip-path="url(#SVGID_10_)">
		<path fill="#04617D" d="M53.127,298.184h3.474v1.045h-3.474V298.184z"/>
		<path fill="#04617D" d="M60.905,294.307c-0.595,0.495-1.55,1.059-2.228,1.375v-1.375c0.899-0.467,1.785-1.045,2.325-1.498h1.231
			v9.514h-1.329V294.307z"/>
		<path fill="#04617D" d="M67.921,292.617c2.865,0,3.211,3.052,3.211,4.839c0,2.255-0.457,3.52-1.329,4.331
			c-0.678,0.632-1.481,0.729-1.91,0.729c-1.273,0-2.145-0.742-2.56-1.581c-0.318-0.633-0.623-1.554-0.623-3.259
			C64.71,296.259,64.876,292.617,67.921,292.617z M67.908,301.374c1.605,0,1.882-2.09,1.882-3.794c0-2.282-0.401-3.863-1.854-3.863
			c-1.674,0-1.896,2.186-1.896,3.891C66.039,299.724,66.454,301.374,67.908,301.374z"/>
		<path fill="#04617D" d="M76.155,292.617c2.865,0,3.211,3.052,3.211,4.839c0,2.255-0.457,3.52-1.329,4.331
			c-0.678,0.632-1.481,0.729-1.91,0.729c-1.273,0-2.145-0.742-2.56-1.581c-0.318-0.633-0.623-1.554-0.623-3.259
			C72.944,296.259,73.11,292.617,76.155,292.617z M76.141,301.374c1.605,0,1.882-2.09,1.882-3.794c0-2.282-0.401-3.863-1.854-3.863
			c-1.674,0-1.896,2.186-1.896,3.891C74.272,299.724,74.687,301.374,76.141,301.374z"/>
	</g>
	<g clip-path="url(#SVGID_10_)">
		<path fill="#04617D" d="M62.289,251.153h3.474v1.045h-3.474V251.153z"/>
		<path fill="#04617D" d="M67.021,248.156c0-0.853,0.581-2.599,3.1-2.599c2.021,0,3.183,1.087,3.183,2.544
			c0,0.935-0.609,1.911-1.952,2.158c0.567,0.151,2.09,0.563,2.09,2.406c0,1.306-0.914,2.791-3.294,2.791
			c-0.816,0-1.785-0.165-2.477-0.798c-0.512-0.467-0.844-1.183-0.844-1.911c0-0.632,0.249-1.292,0.733-1.746
			c0.457-0.453,0.955-0.591,1.384-0.729C67.672,249.999,67.021,249.105,67.021,248.156z M70.149,254.371
			c1.536,0,1.91-1.073,1.91-1.788c0-1.059-0.789-1.746-1.882-1.746c-1.176,0-1.952,0.784-1.952,1.788
			C68.225,253.367,68.724,254.371,70.149,254.371z M70.177,246.575c-1.024,0-1.813,0.605-1.813,1.554c0,0.921,0.775,1.54,1.771,1.54
			c1.052,0,1.841-0.605,1.841-1.54C71.976,247.262,71.325,246.575,70.177,246.575z"/>
		<path fill="#04617D" d="M77.83,245.585c2.865,0,3.211,3.052,3.211,4.839c0,2.255-0.457,3.52-1.329,4.331
			c-0.678,0.632-1.481,0.729-1.91,0.729c-1.273,0-2.145-0.742-2.56-1.581c-0.318-0.633-0.623-1.554-0.623-3.259
			C74.619,249.228,74.785,245.585,77.83,245.585z M77.816,254.342c1.605,0,1.882-2.09,1.882-3.794c0-2.282-0.401-3.863-1.854-3.863
			c-1.674,0-1.896,2.186-1.896,3.891C75.947,252.693,76.362,254.342,77.816,254.342z"/>
	</g>
	<g clip-path="url(#SVGID_10_)">
		<path fill="#04617D" d="M62.289,163.375h3.474v1.045h-3.474V163.375z"/>
		<path fill="#04617D" d="M71.021,165.452h-4.318v-1.636l4.152-5.939h1.495v6.462h1.398v1.113H72.35v2.063h-1.329V165.452z
			 M71.062,164.338v-5.019l-3.308,5.019H71.062z"/>
		<path fill="#04617D" d="M77.83,157.808c2.865,0,3.211,3.052,3.211,4.839c0,2.255-0.457,3.52-1.329,4.331
			c-0.678,0.632-1.481,0.729-1.91,0.729c-1.273,0-2.145-0.742-2.56-1.581c-0.318-0.633-0.623-1.554-0.623-3.259
			C74.619,161.451,74.785,157.808,77.83,157.808z M77.816,166.565c1.605,0,1.882-2.09,1.882-3.794c0-2.282-0.401-3.863-1.854-3.863
			c-1.674,0-1.896,2.186-1.896,3.891C75.947,164.916,76.362,166.565,77.816,166.565z"/>
	</g>
	<g clip-path="url(#SVGID_10_)">
		<path fill="#04617D" d="M62.289,208.934h3.474v1.045h-3.474V208.934z"/>
		<path fill="#04617D" d="M71.948,205.814c-0.014-1.114-0.844-1.417-1.453-1.417c-1.384,0-1.993,1.183-2.118,3.713
			c0.305-0.44,0.831-1.21,2.229-1.21c1.563,0,2.892,1.031,2.892,3.052c0,2.214-1.591,3.327-3.238,3.327
			c-0.927,0-1.854-0.371-2.367-1.031c-0.706-0.935-0.872-2.296-0.872-3.506c0-2.076,0.512-5.375,3.543-5.375
			c1.259,0,1.965,0.55,2.297,0.907c0.484,0.563,0.498,1.168,0.512,1.54H71.948z M72.169,210.076c0-0.674-0.193-2.117-1.785-2.117
			c-1.287,0-1.91,1.045-1.91,2.131c0,1.237,0.775,2.145,1.84,2.145C71.173,212.234,72.169,211.629,72.169,210.076z"/>
		<path fill="#04617D" d="M77.83,203.367c2.865,0,3.211,3.052,3.211,4.839c0,2.255-0.457,3.52-1.329,4.331
			c-0.678,0.632-1.481,0.729-1.91,0.729c-1.273,0-2.145-0.742-2.56-1.581c-0.318-0.633-0.623-1.554-0.623-3.259
			C74.619,207.009,74.785,203.367,77.83,203.367z M77.816,212.124c1.605,0,1.882-2.09,1.882-3.794c0-2.282-0.401-3.863-1.854-3.863
			c-1.674,0-1.896,2.186-1.896,3.891C75.947,210.474,76.362,212.124,77.816,212.124z"/>
	</g>
	<g clip-path="url(#SVGID_10_)">
		<path fill="#04617D" d="M62.289,116.81h3.474v1.045h-3.474V116.81z"/>
		<path fill="#04617D" d="M67.049,119.698l2.505-2.447c0.526-0.509,1.052-1.059,1.481-1.637c0.554-0.756,0.706-1.182,0.706-1.69
			c0-0.468-0.166-1.554-1.536-1.554c-1.537,0-1.564,1.306-1.564,1.663h-1.453c0.014-0.467,0.055-1.374,0.886-2.089
			c0.664-0.564,1.467-0.688,2.076-0.688c1.467,0,2.962,0.742,2.962,2.776c0,0.605-0.042,1.073-1.08,2.379
			c-0.277,0.344-1.495,1.595-1.771,1.87l-1.675,1.581h4.553v1.086h-6.089V119.698z"/>
		<path fill="#04617D" d="M77.83,111.243c2.865,0,3.211,3.052,3.211,4.839c0,2.255-0.457,3.52-1.329,4.331
			c-0.678,0.632-1.481,0.729-1.91,0.729c-1.273,0-2.145-0.742-2.56-1.581c-0.318-0.633-0.623-1.554-0.623-3.259
			C74.619,114.885,74.785,111.243,77.83,111.243z M77.816,119.999c1.605,0,1.882-2.09,1.882-3.794c0-2.282-0.401-3.863-1.854-3.863
			c-1.674,0-1.896,2.186-1.896,3.891C75.947,118.35,76.362,119.999,77.816,119.999z"/>
	</g>
	<g clip-path="url(#SVGID_10_)">
		<path fill="#04617D" d="M78.329,69.163c2.865,0,3.211,3.052,3.211,4.839c0,2.254-0.457,3.52-1.329,4.331
			c-0.678,0.632-1.481,0.729-1.91,0.729c-1.273,0-2.145-0.742-2.56-1.581c-0.318-0.632-0.623-1.553-0.623-3.258
			C75.118,72.806,75.284,69.163,78.329,69.163z M78.315,77.92c1.605,0,1.882-2.09,1.882-3.794c0-2.282-0.401-3.863-1.854-3.863
			c-1.674,0-1.896,2.186-1.896,3.891C76.446,76.27,76.861,77.92,78.315,77.92z"/>
	</g>
	<g clip-path="url(#SVGID_10_)">
		<path fill="#646869" d="M231.339,53.934h6.27v1.168h-4.885v3.094h4.65v1.155h-4.65v3.299h4.996v1.21h-6.38V53.934z"/>
		<path fill="#646869" d="M239.158,62.526l3.709-4.592h-3.515v-0.976h4.996v1.1l-3.833,4.798h3.833v1.003h-5.19V62.526z"/>
		<path fill="#646869" d="M246.631,60.643c-0.028,1.43,0.567,2.489,1.993,2.489c0.844,0,1.522-0.44,1.633-1.43h1.301
			c-0.042,0.344-0.097,0.908-0.595,1.444c-0.304,0.344-0.996,0.921-2.394,0.921c-2.187,0-3.225-1.347-3.225-3.533
			c0-1.361,0.277-2.488,1.37-3.245c0.664-0.467,1.495-0.508,1.896-0.508c3.114,0,3.045,2.736,3.017,3.863H246.631z M250.298,59.735
			c0.014-0.66-0.111-2.035-1.716-2.035c-0.844,0-1.868,0.509-1.896,2.035H250.298z"/>
		<path fill="#646869" d="M252.47,56.931h1.231v-1.443l1.287-0.413v1.856h1.55v0.949h-1.55v4.138c0,0.344,0,0.921,0.927,0.921
			c0.263,0,0.512-0.042,0.623-0.069v1.003c-0.235,0.042-0.609,0.083-1.08,0.083c-1.19,0-1.758-0.344-1.758-1.471v-4.605h-1.231
			V56.931z"/>
		<path fill="#646869" d="M258.02,53.961h1.564v1.416h-1.564V53.961z M258.158,56.958h1.301v6.901h-1.301V56.958z"/>
		<path fill="#646869" d="M261.977,57.879l-0.028-0.921h1.315v1.003c0.664-1.086,1.605-1.182,2.201-1.182
			c1.536,0,2.021,0.783,2.27,1.292c0.235-0.385,0.803-1.292,2.339-1.292c0.997,0,2.546,0.412,2.546,2.447v4.633h-1.314v-4.427
			c0-0.605-0.111-0.866-0.235-1.045c-0.222-0.316-0.665-0.605-1.329-0.605c-0.844,0-1.301,0.481-1.481,0.729
			c-0.305,0.426-0.305,1.183-0.305,1.485v3.863h-1.314v-4.564c0-0.853-0.499-1.512-1.522-1.512c-0.886,0-1.37,0.55-1.522,0.756
			c-0.291,0.398-0.304,0.962-0.304,1.402v3.918h-1.315V57.879z"/>
		<path fill="#646869" d="M274.93,53.961h1.564v1.416h-1.564V53.961z M275.068,56.958h1.301v6.901h-1.301V56.958z"/>
		<path fill="#646869" d="M280.203,57.962c0.18-0.316,0.692-1.182,2.27-1.182c0.692,0,1.564,0.165,2.201,0.88
			c0.346,0.398,0.816,1.086,0.816,2.598c0,1.333-0.318,2.062-0.665,2.516c-0.553,0.784-1.48,1.182-2.436,1.182
			c-0.332,0-0.955-0.041-1.55-0.44c-0.387-0.261-0.54-0.495-0.678-0.701l-0.028,1.045h-1.259l0.027-1.237v-8.689h1.301V57.962z
			 M282.167,57.66c-1.993,0-1.993,2.31-1.993,2.75c0,0.454,0,2.612,1.938,2.612c1.605,0,2.007-1.553,2.007-2.681
			C284.119,59.653,283.98,57.66,282.167,57.66z"/>
		<path fill="#646869" d="M288.145,60.643c-0.028,1.43,0.567,2.489,1.993,2.489c0.844,0,1.522-0.44,1.633-1.43h1.301
			c-0.042,0.344-0.097,0.908-0.595,1.444c-0.304,0.344-0.996,0.921-2.394,0.921c-2.187,0-3.225-1.347-3.225-3.533
			c0-1.361,0.277-2.488,1.37-3.245c0.664-0.467,1.495-0.508,1.896-0.508c3.114,0,3.045,2.736,3.017,3.863H288.145z M291.813,59.735
			c0.014-0.66-0.111-2.035-1.716-2.035c-0.844,0-1.868,0.509-1.896,2.035H291.813z"/>
		<path fill="#646869" d="M296.946,54.058h0.9l-3.225,10.022h-0.914L296.946,54.058z"/>
		<path fill="#646869" d="M299.645,61.812c-0.014,0.522,0.263,1.251,1.522,1.251c0.54,0,0.941-0.096,1.218-0.44
			c0.138-0.179,0.221-0.413,0.221-0.646c0-0.674-0.484-0.797-1.522-1.031c-1.454-0.33-2.671-0.619-2.671-2.063
			c0-1.265,1.107-2.089,2.713-2.089c0.872,0,2.09,0.247,2.505,1.072c0.18,0.385,0.18,0.715,0.18,1.003h-1.329
			c0.042-1.045-0.872-1.127-1.342-1.127c-0.194,0-1.412,0-1.412,0.99c0,0.632,0.623,0.784,0.982,0.88
			c1.924,0.454,2.339,0.563,2.754,0.948c0.387,0.358,0.526,0.839,0.526,1.279c0,0.77-0.429,1.43-0.941,1.746
			c-0.609,0.371-1.342,0.467-2.062,0.467c-1.412,0-2.727-0.577-2.712-2.241H299.645z"/>
		<path fill="#646869" d="M305.692,53.961h1.564v1.416h-1.564V53.961z M305.831,56.958h1.301v6.901h-1.301V56.958z"/>
		<path fill="#646869" d="M309.65,57.879l-0.028-0.921h1.315v1.003c0.664-1.086,1.605-1.182,2.201-1.182
			c1.536,0,2.021,0.783,2.27,1.292c0.235-0.385,0.803-1.292,2.339-1.292c0.997,0,2.546,0.412,2.546,2.447v4.633h-1.314v-4.427
			c0-0.605-0.111-0.866-0.235-1.045c-0.222-0.316-0.665-0.605-1.329-0.605c-0.844,0-1.301,0.481-1.481,0.729
			c-0.305,0.426-0.305,1.183-0.305,1.485v3.863h-1.314v-4.564c0-0.853-0.499-1.512-1.522-1.512c-0.886,0-1.37,0.55-1.522,0.756
			c-0.291,0.398-0.304,0.962-0.304,1.402v3.918h-1.315V57.879z"/>
		<path fill="#646869" d="M321.675,56.958h1.453l2.214,5.472l2.159-5.472h1.439l-3.045,6.901h-1.315L321.675,56.958z"/>
		<path fill="#646869" d="M334.656,63.86c-0.097-0.344-0.125-0.674-0.125-1.031c-0.623,1.141-1.564,1.251-2.145,1.251
			c-1.591,0-2.45-0.894-2.45-2.035c0-0.55,0.194-1.43,1.218-2.021c0.748-0.412,1.855-0.454,2.408-0.454
			c0.333,0,0.54,0.014,0.941,0.042c0-0.853,0-1.224-0.25-1.526c-0.263-0.344-0.83-0.454-1.204-0.454
			c-1.315,0-1.384,0.894-1.398,1.168h-1.301c0.042-0.357,0.083-0.838,0.484-1.306c0.526-0.578,1.508-0.743,2.242-0.743
			c1.01,0,2.09,0.316,2.463,1.018c0.222,0.412,0.235,0.742,0.235,1.059l-0.055,3.299c0,0.11,0.014,1.031,0.111,1.732H334.656z
			 M333.757,60.464c-0.526,0-2.505,0-2.505,1.402c0,0.44,0.277,1.196,1.439,1.196c0.664,0,1.162-0.261,1.48-0.743
			c0.291-0.467,0.305-0.852,0.333-1.814C334.269,60.478,334.075,60.464,333.757,60.464z"/>
		<path fill="#646869" d="M338.863,61.812c-0.014,0.522,0.263,1.251,1.522,1.251c0.54,0,0.941-0.096,1.218-0.44
			c0.138-0.179,0.221-0.413,0.221-0.646c0-0.674-0.484-0.797-1.522-1.031c-1.454-0.33-2.671-0.619-2.671-2.063
			c0-1.265,1.107-2.089,2.713-2.089c0.872,0,2.09,0.247,2.505,1.072c0.18,0.385,0.18,0.715,0.18,1.003H341.7
			c0.042-1.045-0.872-1.127-1.342-1.127c-0.194,0-1.412,0-1.412,0.99c0,0.632,0.623,0.784,0.982,0.88
			c1.924,0.454,2.339,0.563,2.754,0.948c0.387,0.358,0.526,0.839,0.526,1.279c0,0.77-0.429,1.43-0.941,1.746
			c-0.609,0.371-1.342,0.467-2.062,0.467c-1.412,0-2.727-0.577-2.712-2.241H338.863z"/>
		<path fill="#646869" d="M343.969,56.931h1.231v-1.443l1.287-0.413v1.856h1.55v0.949h-1.55v4.138c0,0.344,0,0.921,0.927,0.921
			c0.263,0,0.512-0.042,0.623-0.069v1.003c-0.235,0.042-0.609,0.083-1.08,0.083c-1.19,0-1.758-0.344-1.758-1.471v-4.605h-1.231
			V56.931z"/>
		<path fill="#646869" d="M353.877,63.86c-0.097-0.344-0.125-0.674-0.125-1.031c-0.623,1.141-1.563,1.251-2.145,1.251
			c-1.591,0-2.45-0.894-2.45-2.035c0-0.55,0.194-1.43,1.218-2.021c0.748-0.412,1.855-0.454,2.408-0.454
			c0.333,0,0.54,0.014,0.941,0.042c0-0.853,0-1.224-0.25-1.526c-0.263-0.344-0.83-0.454-1.204-0.454
			c-1.315,0-1.384,0.894-1.398,1.168h-1.301c0.042-0.357,0.083-0.838,0.484-1.306c0.526-0.578,1.508-0.743,2.242-0.743
			c1.01,0,2.09,0.316,2.463,1.018c0.222,0.412,0.235,0.742,0.235,1.059l-0.055,3.299c0,0.11,0.014,1.031,0.111,1.732H353.877z
			 M352.978,60.464c-0.526,0-2.505,0-2.505,1.402c0,0.44,0.277,1.196,1.439,1.196c0.664,0,1.163-0.261,1.48-0.743
			c0.291-0.467,0.305-0.852,0.333-1.814C353.49,60.478,353.296,60.464,352.978,60.464z"/>
		<path fill="#646869" d="M356.271,56.931h1.231v-1.443l1.287-0.413v1.856h1.55v0.949h-1.55v4.138c0,0.344,0,0.921,0.927,0.921
			c0.263,0,0.512-0.042,0.623-0.069v1.003c-0.235,0.042-0.609,0.083-1.08,0.083c-1.19,0-1.758-0.344-1.758-1.471v-4.605h-1.231
			V56.931z"/>
		<path fill="#646869" d="M361.82,53.961h1.564v1.416h-1.564V53.961z M361.959,56.958h1.301v6.901h-1.301V56.958z"/>
		<path fill="#646869" d="M365.833,57.756l-0.014-0.797h1.301l0.014,1.113c0.152-0.289,0.65-1.251,2.228-1.251
			c0.623,0,2.519,0.234,2.519,2.351v4.688h-1.329v-4.386c0-0.454-0.055-0.866-0.374-1.182c-0.332-0.316-0.789-0.468-1.231-0.468
			c-0.941,0-1.813,0.674-1.813,2.063v3.973h-1.301V57.756z"/>
	</g>
	<g clip-path="url(#SVGID_10_)">
		<path fill="#646869" d="M251.101,223.825c-0.595,0.494-1.55,1.059-2.228,1.375v-1.375c0.899-0.468,1.785-1.045,2.325-1.499h1.231
			v9.514h-1.329V223.825z"/>
		<path fill="#646869" d="M258.117,222.133c2.865,0,3.211,3.052,3.211,4.84c0,2.254-0.457,3.52-1.329,4.33
			c-0.678,0.633-1.481,0.729-1.91,0.729c-1.273,0-2.145-0.742-2.56-1.581c-0.318-0.632-0.623-1.554-0.623-3.259
			C254.906,225.776,255.072,222.133,258.117,222.133z M258.103,230.891c1.605,0,1.882-2.09,1.882-3.795
			c0-2.282-0.401-3.863-1.854-3.863c-1.674,0-1.896,2.186-1.896,3.891C256.234,229.241,256.649,230.891,258.103,230.891z"/>
		<path fill="#646869" d="M265.105,222.038h0.9l-3.225,10.021h-0.914L265.105,222.038z"/>
		<path fill="#646869" d="M269.589,223.825c-0.595,0.494-1.55,1.059-2.228,1.375v-1.375c0.899-0.468,1.785-1.045,2.325-1.499h1.231
			v9.514h-1.329V223.825z"/>
		<path fill="#646869" d="M276.605,222.133c2.865,0,3.211,3.052,3.211,4.84c0,2.254-0.457,3.52-1.329,4.33
			c-0.678,0.633-1.481,0.729-1.91,0.729c-1.273,0-2.145-0.742-2.56-1.581c-0.318-0.632-0.623-1.554-0.623-3.259
			C273.394,225.776,273.56,222.133,276.605,222.133z M276.591,230.891c1.605,0,1.882-2.09,1.882-3.795
			c0-2.282-0.401-3.863-1.854-3.863c-1.674,0-1.896,2.186-1.896,3.891C274.723,229.241,275.138,230.891,276.591,230.891z"/>
		<path fill="#646869" d="M281.06,227.702h3.474v1.045h-3.474V227.702z"/>
		<path fill="#646869" d="M288.838,223.825c-0.595,0.494-1.55,1.059-2.228,1.375v-1.375c0.899-0.468,1.785-1.045,2.325-1.499h1.231
			v9.514h-1.329V223.825z"/>
		<path fill="#646869" d="M295.854,222.133c2.865,0,3.211,3.052,3.211,4.84c0,2.254-0.457,3.52-1.329,4.33
			c-0.678,0.633-1.481,0.729-1.91,0.729c-1.273,0-2.145-0.742-2.56-1.581c-0.318-0.632-0.623-1.554-0.623-3.259
			C292.643,225.776,292.809,222.133,295.854,222.133z M295.84,230.891c1.605,0,1.882-2.09,1.882-3.795
			c0-2.282-0.401-3.863-1.854-3.863c-1.674,0-1.896,2.186-1.896,3.891C293.972,229.241,294.387,230.891,295.84,230.891z"/>
		<path fill="#646869" d="M302.842,222.038h0.9l-3.225,10.021h-0.914L302.842,222.038z"/>
		<path fill="#646869" d="M308.281,229.778h-4.318v-1.637l4.152-5.939h1.495v6.462h1.398v1.114h-1.398v2.062h-1.329V229.778z
			 M308.322,228.664v-5.019l-3.308,5.019H308.322z"/>
		<path fill="#646869" d="M315.089,222.133c2.865,0,3.211,3.052,3.211,4.84c0,2.254-0.457,3.52-1.329,4.33
			c-0.678,0.633-1.481,0.729-1.91,0.729c-1.273,0-2.145-0.742-2.56-1.581c-0.318-0.632-0.623-1.554-0.623-3.259
			C311.878,225.776,312.044,222.133,315.089,222.133z M315.076,230.891c1.605,0,1.882-2.09,1.882-3.795
			c0-2.282-0.401-3.863-1.854-3.863c-1.674,0-1.896,2.186-1.896,3.891C313.207,229.241,313.622,230.891,315.076,230.891z"/>
		<path fill="#646869" d="M324.015,225.859l-0.028-0.921h1.315v1.004c0.664-1.086,1.605-1.183,2.201-1.183
			c1.536,0,2.021,0.783,2.27,1.292c0.235-0.385,0.803-1.292,2.339-1.292c0.997,0,2.546,0.412,2.546,2.446v4.634h-1.314v-4.427
			c0-0.605-0.111-0.866-0.235-1.045c-0.222-0.316-0.665-0.605-1.329-0.605c-0.844,0-1.301,0.481-1.481,0.729
			c-0.305,0.427-0.305,1.184-0.305,1.485v3.863h-1.314v-4.564c0-0.853-0.499-1.513-1.522-1.513c-0.886,0-1.37,0.551-1.522,0.757
			c-0.291,0.398-0.304,0.962-0.304,1.401v3.919h-1.315V225.859z"/>
		<path fill="#646869" d="M338.337,232.375c0.056,0.77,0.388,1.348,1.619,1.348c1.813,0,1.841-1.307,1.841-3.176
			c-0.554,1.141-1.868,1.168-2.284,1.168c-0.636,0-1.55-0.137-2.131-0.852c-0.595-0.701-0.789-1.623-0.789-2.544
			c0-2.337,1.384-3.479,3.086-3.479c1.397,0,1.91,0.688,2.187,1.045l0.014-0.948h1.259l-0.027,1.251l-0.014,4.317
			c0,1.663-0.055,2.336-0.332,2.859c-0.581,1.1-1.938,1.236-2.893,1.236c-2.782,0-2.865-1.291-2.92-2.227H338.337z M341.368,230.066
			c0.277-0.357,0.471-0.729,0.471-1.979c0-0.866-0.194-1.361-0.54-1.719c-0.346-0.371-0.9-0.605-1.495-0.605
			c-1.647,0-1.869,1.65-1.869,2.53c0,1.059,0.318,2.461,1.91,2.461C340.607,230.753,341.05,230.479,341.368,230.066z"/>
	</g>
	<g clip-path="url(#SVGID_10_)">
		<path fill="#646869" d="M344.722,226.528l1.461-1.426c0.307-0.296,0.614-0.617,0.864-0.953c0.323-0.44,0.412-0.689,0.412-0.985
			c0-0.272-0.097-0.905-0.896-0.905c-0.896,0-0.912,0.762-0.912,0.97h-0.848c0.008-0.272,0.033-0.802,0.517-1.218
			c0.388-0.328,0.856-0.4,1.211-0.4c0.855,0,1.728,0.433,1.728,1.618c0,0.353-0.024,0.624-0.63,1.386
			c-0.161,0.2-0.872,0.93-1.033,1.09l-0.977,0.921h2.656v0.633h-3.552V226.528z"/>
	</g>
</g>
<line fill="none" stroke="#04617D" stroke-width="1.6254" stroke-miterlimit="10" x1="93.173" y1="73.799" x2="93.173" y2="299.592"/>
<line fill="none" stroke="#04617D" stroke-width="1.6254" stroke-miterlimit="10" x1="87.956" y1="74.886" x2="392.547" y2="74.886"/>
<line fill="none" stroke="#04617D" stroke-width="1.6254" stroke-miterlimit="10" x1="93.173" y1="116.97" x2="87.956" y2="116.97"/>
<line fill="none" stroke="#04617D" stroke-width="1.6254" stroke-miterlimit="10" x1="93.173" y1="163.534" x2="87.956" y2="163.534"/>
<line fill="none" stroke="#04617D" stroke-width="1.6254" stroke-miterlimit="10" x1="93.173" y1="209.093" x2="87.956" y2="209.093"/>
<line fill="none" stroke="#04617D" stroke-width="1.6254" stroke-miterlimit="10" x1="93.173" y1="251.306" x2="87.956" y2="251.306"/>
<line fill="none" stroke="#04617D" stroke-width="1.6254" stroke-miterlimit="10" x1="93.173" y1="298.335" x2="87.956" y2="298.335"/>
<g>
	<defs>
		<rect id="SVGID_27_" x="2.47" y="22.241" width="426.876" height="290.559"/>
	</defs>
	<clipPath id="SVGID_12_">
		<use xlink:href="#SVGID_27_"  overflow="visible"/>
	</clipPath>
	<g clip-path="url(#SVGID_12_)">
		<path fill="#04617D" d="M135.002,53.931h1.48l4.042,9.926h-1.509l-1.08-2.584H133.3l-1.079,2.584h-1.426L135.002,53.931z
			 M133.743,60.159h3.778l-1.841-4.867L133.743,60.159z"/>
		<path fill="#04617D" d="M140.814,56.928h1.231v-1.443l1.287-0.413v1.856h1.55v0.949h-1.55v4.138c0,0.344,0,0.921,0.927,0.921
			c0.263,0,0.512-0.042,0.623-0.069v1.003c-0.235,0.042-0.609,0.083-1.08,0.083c-1.19,0-1.758-0.344-1.758-1.471v-4.605h-1.231
			V56.928z"/>
		<path fill="#04617D" d="M149.504,56.777c2.782,0,3.405,2.172,3.405,3.616c0,2.021-1.149,3.698-3.516,3.698
			c-2.297,0-3.418-1.581-3.418-3.602C145.976,58.784,146.778,56.777,149.504,56.777z M149.421,63.128
			c0.983,0,2.104-0.701,2.104-2.777c0-1.718-0.803-2.626-2.021-2.626c-0.83,0-2.173,0.522-2.173,2.681
			C147.331,61.822,147.94,63.128,149.421,63.128z"/>
		<path fill="#04617D" d="M155.012,58.358c0-0.468-0.028-0.949-0.069-1.402h1.315l0.028,1.333c0.249-0.962,1.079-1.279,1.661-1.361
			c0.387-0.055,0.678-0.041,0.899-0.027v1.265c-0.069-0.027-0.152-0.041-0.249-0.055s-0.221-0.014-0.374-0.014
			c-1.536,0-1.896,0.907-1.896,2.089v3.671h-1.315V58.358z"/>
		<path fill="#04617D" d="M159.274,56.956h1.453l2.214,5.472l2.159-5.472h1.439l-3.045,6.901h-1.315L159.274,56.956z"/>
		<path fill="#04617D" d="M172.254,63.857c-0.097-0.344-0.125-0.674-0.125-1.031c-0.623,1.141-1.563,1.251-2.145,1.251
			c-1.591,0-2.45-0.894-2.45-2.035c0-0.55,0.194-1.43,1.218-2.021c0.748-0.412,1.855-0.454,2.408-0.454
			c0.333,0,0.54,0.014,0.941,0.042c0-0.853,0-1.224-0.25-1.526c-0.263-0.344-0.83-0.454-1.204-0.454
			c-1.315,0-1.384,0.894-1.398,1.168h-1.301c0.042-0.357,0.083-0.838,0.484-1.306c0.526-0.578,1.508-0.743,2.242-0.743
			c1.01,0,2.09,0.316,2.463,1.018c0.222,0.412,0.235,0.742,0.235,1.059l-0.055,3.299c0,0.11,0.014,1.031,0.111,1.732H172.254z
			 M171.355,60.461c-0.526,0-2.505,0-2.505,1.402c0,0.44,0.277,1.196,1.439,1.196c0.664,0,1.163-0.261,1.48-0.743
			c0.291-0.467,0.305-0.852,0.333-1.814C171.867,60.475,171.673,60.461,171.355,60.461z"/>
		<path fill="#04617D" d="M176.461,61.809c-0.014,0.522,0.263,1.251,1.522,1.251c0.54,0,0.941-0.096,1.218-0.44
			c0.138-0.179,0.221-0.413,0.221-0.646c0-0.674-0.484-0.797-1.522-1.031c-1.454-0.33-2.671-0.619-2.671-2.063
			c0-1.265,1.107-2.089,2.713-2.089c0.872,0,2.09,0.247,2.505,1.072c0.18,0.385,0.18,0.715,0.18,1.003h-1.329
			c0.042-1.045-0.872-1.127-1.342-1.127c-0.194,0-1.412,0-1.412,0.99c0,0.632,0.623,0.784,0.982,0.88
			c1.924,0.454,2.339,0.563,2.754,0.948c0.387,0.358,0.526,0.839,0.526,1.279c0,0.77-0.429,1.43-0.941,1.746
			c-0.609,0.371-1.342,0.467-2.062,0.467c-1.412,0-2.727-0.577-2.712-2.241H176.461z"/>
		<path fill="#04617D" d="M181.567,56.928h1.231v-1.443l1.287-0.413v1.856h1.55v0.949h-1.55v4.138c0,0.344,0,0.921,0.927,0.921
			c0.263,0,0.512-0.042,0.623-0.069v1.003c-0.235,0.042-0.609,0.083-1.08,0.083c-1.19,0-1.758-0.344-1.758-1.471v-4.605h-1.231
			V56.928z"/>
		<path fill="#04617D" d="M191.476,63.857c-0.097-0.344-0.125-0.674-0.125-1.031c-0.623,1.141-1.563,1.251-2.145,1.251
			c-1.591,0-2.45-0.894-2.45-2.035c0-0.55,0.194-1.43,1.218-2.021c0.748-0.412,1.855-0.454,2.408-0.454
			c0.333,0,0.54,0.014,0.941,0.042c0-0.853,0-1.224-0.25-1.526c-0.263-0.344-0.83-0.454-1.204-0.454
			c-1.315,0-1.384,0.894-1.398,1.168h-1.301c0.042-0.357,0.083-0.838,0.484-1.306c0.526-0.578,1.508-0.743,2.242-0.743
			c1.01,0,2.09,0.316,2.463,1.018c0.222,0.412,0.235,0.742,0.235,1.059l-0.055,3.299c0,0.11,0.014,1.031,0.111,1.732H191.476z
			 M190.577,60.461c-0.526,0-2.505,0-2.505,1.402c0,0.44,0.277,1.196,1.439,1.196c0.664,0,1.163-0.261,1.48-0.743
			c0.291-0.467,0.305-0.852,0.333-1.814C191.089,60.475,190.895,60.461,190.577,60.461z"/>
		<path fill="#04617D" d="M193.87,56.928h1.231v-1.443l1.287-0.413v1.856h1.55v0.949h-1.55v4.138c0,0.344,0,0.921,0.927,0.921
			c0.263,0,0.512-0.042,0.623-0.069v1.003c-0.235,0.042-0.609,0.083-1.08,0.083c-1.19,0-1.758-0.344-1.758-1.471v-4.605h-1.231
			V56.928z"/>
		<path fill="#04617D" d="M199.419,53.958h1.564v1.416h-1.564V53.958z M199.558,56.956h1.301v6.901h-1.301V56.956z"/>
		<path fill="#04617D" d="M203.432,57.753l-0.014-0.797h1.301l0.014,1.113c0.152-0.289,0.65-1.251,2.228-1.251
			c0.623,0,2.519,0.234,2.519,2.351v4.688h-1.328v-4.386c0-0.454-0.056-0.866-0.374-1.182c-0.332-0.316-0.789-0.468-1.231-0.468
			c-0.941,0-1.813,0.674-1.813,2.063v3.973h-1.301V57.753z"/>
	</g>
	<g clip-path="url(#SVGID_12_)">
		<path fill="#04617D" d="M141.95,223.821c-0.595,0.494-1.55,1.059-2.228,1.375v-1.375c0.899-0.468,1.785-1.045,2.325-1.499h1.231
			v9.514h-1.329V223.821z"/>
		<path fill="#04617D" d="M148.966,222.129c2.865,0,3.211,3.052,3.211,4.84c0,2.254-0.457,3.52-1.329,4.33
			c-0.678,0.633-1.481,0.729-1.91,0.729c-1.273,0-2.145-0.742-2.56-1.581c-0.318-0.632-0.623-1.554-0.623-3.259
			C145.755,225.772,145.921,222.129,148.966,222.129z M148.952,230.887c1.605,0,1.882-2.09,1.882-3.795
			c0-2.282-0.401-3.863-1.854-3.863c-1.674,0-1.896,2.186-1.896,3.891C147.083,229.237,147.498,230.887,148.952,230.887z"/>
		<path fill="#04617D" d="M153.421,227.698h3.474v1.045h-3.474V227.698z"/>
		<path fill="#04617D" d="M158.154,224.7c0-0.852,0.581-2.598,3.1-2.598c2.021,0,3.183,1.086,3.183,2.543
			c0,0.936-0.609,1.911-1.952,2.158c0.567,0.152,2.09,0.564,2.09,2.406c0,1.307-0.914,2.791-3.294,2.791
			c-0.816,0-1.785-0.165-2.477-0.797c-0.512-0.468-0.844-1.184-0.844-1.912c0-0.632,0.249-1.292,0.733-1.746
			c0.457-0.453,0.955-0.59,1.384-0.729C158.805,226.542,158.154,225.649,158.154,224.7z M161.282,230.915
			c1.536,0,1.91-1.072,1.91-1.787c0-1.059-0.789-1.746-1.882-1.746c-1.176,0-1.952,0.783-1.952,1.787
			C159.358,229.911,159.856,230.915,161.282,230.915z M161.31,223.12c-1.024,0-1.813,0.604-1.813,1.553
			c0,0.922,0.775,1.54,1.771,1.54c1.052,0,1.841-0.604,1.841-1.54C163.109,223.807,162.458,223.12,161.31,223.12z"/>
		<path fill="#04617D" d="M168.962,222.129c2.865,0,3.211,3.052,3.211,4.84c0,2.254-0.457,3.52-1.329,4.33
			c-0.678,0.633-1.481,0.729-1.91,0.729c-1.273,0-2.145-0.742-2.56-1.581c-0.318-0.632-0.623-1.554-0.623-3.259
			C165.751,225.772,165.917,222.129,168.962,222.129z M168.949,230.887c1.605,0,1.882-2.09,1.882-3.795
			c0-2.282-0.401-3.863-1.854-3.863c-1.674,0-1.896,2.186-1.896,3.891C167.08,229.237,167.495,230.887,168.949,230.887z"/>
		<path fill="#04617D" d="M177.888,225.855l-0.028-0.921h1.315v1.004c0.664-1.086,1.605-1.183,2.201-1.183
			c1.536,0,2.021,0.783,2.27,1.292c0.235-0.385,0.803-1.292,2.339-1.292c0.997,0,2.546,0.412,2.546,2.446v4.634h-1.314v-4.427
			c0-0.605-0.111-0.866-0.235-1.045c-0.222-0.316-0.665-0.605-1.329-0.605c-0.844,0-1.301,0.481-1.481,0.729
			c-0.305,0.427-0.305,1.184-0.305,1.485v3.863h-1.314v-4.564c0-0.853-0.499-1.513-1.522-1.513c-0.886,0-1.37,0.551-1.522,0.757
			c-0.291,0.398-0.304,0.962-0.304,1.401v3.919h-1.315V225.855z"/>
		<path fill="#04617D" d="M192.21,232.372c0.056,0.77,0.388,1.348,1.619,1.348c1.813,0,1.841-1.307,1.841-3.176
			c-0.554,1.141-1.868,1.168-2.284,1.168c-0.636,0-1.55-0.137-2.131-0.852c-0.595-0.701-0.789-1.623-0.789-2.544
			c0-2.337,1.384-3.479,3.086-3.479c1.397,0,1.91,0.688,2.187,1.045l0.014-0.948h1.259l-0.027,1.251l-0.014,4.317
			c0,1.663-0.055,2.336-0.332,2.859c-0.581,1.1-1.938,1.236-2.893,1.236c-2.782,0-2.865-1.291-2.92-2.227H192.21z M195.241,230.062
			c0.277-0.357,0.471-0.729,0.471-1.979c0-0.866-0.194-1.361-0.54-1.719c-0.346-0.371-0.9-0.605-1.495-0.605
			c-1.647,0-1.869,1.65-1.869,2.53c0,1.059,0.318,2.461,1.91,2.461C194.48,230.749,194.923,230.475,195.241,230.062z"/>
	</g>
	<g clip-path="url(#SVGID_12_)">
		<path fill="#04617D" d="M200.368,222.586c-0.347,0.289-0.904,0.617-1.3,0.802v-0.802c0.525-0.271,1.042-0.608,1.356-0.873h0.718
			v5.544h-0.775V222.586z"/>
	</g>
</g>
</svg>
