<?xml version="1.0" encoding="utf-8"?>
<!-- Generator: Adobe Illustrator 17.0.0, SVG Export Plug-In . SVG Version: 6.00 Build 0)  -->
<!DOCTYPE svg PUBLIC "-//W3C//DTD SVG 1.1//EN" "http://www.w3.org/Graphics/SVG/1.1/DTD/svg11.dtd">
<svg version="1.1" id="Layer_1" xmlns="http://www.w3.org/2000/svg" xmlns:xlink="http://www.w3.org/1999/xlink" x="0px" y="0px"
	 width="72.5px" height="135.5px" viewBox="0 0 72.5 135.5" enable-background="new 0 0 72.5 135.5" xml:space="preserve">
<g>
	<defs>
		<rect id="SVGID_29_" x="-129.657" y="-50.617" width="426.876" height="290.559"/>
	</defs>
	<clipPath id="SVGID_2_">
		<use xlink:href="#SVGID_29_"  overflow="visible"/>
	</clipPath>
	<g opacity="0.9" clip-path="url(#SVGID_2_)">
		<g>
			<defs>
				<rect id="SVGID_31_" x="-129.655" y="-50.617" width="426.868" height="290.559"/>
			</defs>
			<clipPath id="SVGID_4_">
				<use xlink:href="#SVGID_31_"  overflow="visible"/>
			</clipPath>
			<g clip-path="url(#SVGID_4_)">
				<defs>
					<rect id="SVGID_33_" x="-129.659" y="-50.617" width="426.876" height="290.559"/>
				</defs>
				<clipPath id="SVGID_6_">
					<use xlink:href="#SVGID_33_"  overflow="visible"/>
				</clipPath>
			</g>
		</g>
	</g>
</g>
<g>
	<defs>
		<rect id="SVGID_35_" x="-131.657" y="-50.617" width="426.876" height="290.559"/>
	</defs>
	<clipPath id="SVGID_8_">
		<use xlink:href="#SVGID_35_"  overflow="visible"/>
	</clipPath>
</g>
<rect x="5.998" y="2.31" fill="#04617D" width="63.049" height="130.058"/>
<g>
	<defs>
		<rect id="SVGID_37_" x="9.134" y="5.435" width="56.942" height="123.807"/>
	</defs>
	<clipPath id="SVGID_9_">
		<use xlink:href="#SVGID_37_"  overflow="visible"/>
	</clipPath>
	
		<linearGradient id="SVGID_10_" gradientUnits="userSpaceOnUse" x1="540.2352" y1="459.7936" x2="541.9324" y2="459.7936" gradientTransform="matrix(0 -39.6025 -39.8642 0 18366.9082 21462.002)">
		<stop  offset="0" style="stop-color:#FFFFFF"/>
		<stop  offset="0.2973" style="stop-color:#F8F8F8"/>
		<stop  offset="0.7441" style="stop-color:#E6E5E3"/>
		<stop  offset="1" style="stop-color:#D8D7D4"/>
	</linearGradient>
	<rect x="9.134" y="5.435" clip-path="url(#SVGID_9_)" fill="url(#SVGID_10_)" width="56.942" height="123.807"/>
</g>
<g>
	<defs>
		<rect id="SVGID_40_" x="-130.657" y="-50.617" width="426.876" height="290.559"/>
	</defs>
	<clipPath id="SVGID_12_">
		<use xlink:href="#SVGID_40_"  overflow="visible"/>
	</clipPath>
	<g opacity="0.4" clip-path="url(#SVGID_12_)">
		<g>
			<defs>
				<rect id="SVGID_42_" x="9.128" y="5.434" width="56.942" height="123.807"/>
			</defs>
			<clipPath id="SVGID_14_">
				<use xlink:href="#SVGID_42_"  overflow="visible"/>
			</clipPath>
			<rect x="9.134" y="5.433" clip-path="url(#SVGID_14_)" fill="#04617D" width="56.941" height="123.808"/>
		</g>
	</g>
	<g opacity="0.2" clip-path="url(#SVGID_12_)">
		<g>
			<defs>
				<rect id="SVGID_44_" x="9.043" y="87.803" width="56.942" height="41.438"/>
			</defs>
			<clipPath id="SVGID_16_">
				<use xlink:href="#SVGID_44_"  overflow="visible"/>
			</clipPath>
			<rect x="9.052" y="87.803" clip-path="url(#SVGID_16_)" fill="#58595B" width="56.941" height="41.438"/>
		</g>
	</g>
</g>
<g>
	<defs>
		<rect id="SVGID_46_" x="-131.657" y="-50.617" width="426.876" height="290.559"/>
	</defs>
	<clipPath id="SVGID_18_">
		<use xlink:href="#SVGID_46_"  overflow="visible"/>
	</clipPath>
</g>
<g>
	<defs>
		<rect id="SVGID_54_" x="-131.657" y="-50.617" width="426.876" height="290.559"/>
	</defs>
	<clipPath id="SVGID_20_">
		<use xlink:href="#SVGID_54_"  overflow="visible"/>
	</clipPath>
</g>
<g>
	<defs>
		<rect id="SVGID_63_" x="-130.657" y="-50.617" width="426.876" height="290.559"/>
	</defs>
	<clipPath id="SVGID_22_">
		<use xlink:href="#SVGID_63_"  overflow="visible"/>
	</clipPath>
	<g clip-path="url(#SVGID_22_)">
		<path fill="#58595B" d="M17.161,107.29c0.167,0.013,0.32,0.013,0.474,0.013c0.923,0,1.73-0.496,1.73-1.476
			c0-0.942-0.692-1.451-1.615-1.451c-1.192,0-1.705,0.903-1.717,1.96h-1.09c0.064-1.718,0.987-2.914,2.807-2.914
			c1.577,0,2.769,0.75,2.769,2.418c0,0.788-0.564,1.476-1.256,1.794v0.025c1.103,0.242,1.641,1.107,1.641,2.188
			c0,1.808-1.422,2.749-3.127,2.749c-1.846,0-3.063-1.082-3.025-2.939h1.09c0.038,1.171,0.692,1.985,1.936,1.985
			c1.063,0,1.974-0.649,1.974-1.743c0-1.133-0.859-1.731-1.936-1.731c-0.218,0-0.448,0.013-0.653,0.038V107.29z"/>
		<path fill="#58595B" d="M23.21,110.267c0.077,0.879,0.794,1.375,1.666,1.375c1.333,0,1.987-1.158,2.051-3.487l-0.025-0.025
			c-0.41,0.764-1.218,1.247-2.103,1.247c-1.846,0-2.871-1.234-2.871-3.016c0-1.743,1.23-2.939,2.987-2.939
			c1.692,0,3.115,0.903,3.115,4.313c0,3.118-0.949,4.861-3.153,4.861c-1.525,0-2.615-0.776-2.756-2.329H23.21z M24.864,104.375
			c-1.295,0-1.782,1.03-1.782,2.138c0,0.993,0.744,1.909,1.794,1.909c1.141,0,1.858-0.916,1.858-1.985
			C26.735,105.33,26.081,104.375,24.864,104.375z"/>
		<path fill="#58595B" d="M29.259,108.397h3.705v1.018h-3.705V108.397z"/>
		<path fill="#58595B" d="M38.911,105.724c-0.103-0.814-0.666-1.349-1.525-1.349c-1.859,0-2.153,2.036-2.205,3.423l0.025,0.025
			c0.513-0.827,1.282-1.183,2.269-1.183c1.743,0,2.782,1.26,2.782,2.927c0,1.311-0.744,3.028-3.038,3.028
			c-2.692,0-3.128-2.443-3.128-4.34c0-2.481,0.756-4.835,3.346-4.835c1.5,0,2.435,0.84,2.563,2.303H38.911z M35.386,109.631
			c0,1.12,0.692,2.011,1.884,2.011c1.18,0,1.833-0.929,1.833-1.998c0-1.12-0.589-2.049-1.833-2.049
			C36.053,107.595,35.386,108.499,35.386,109.631z"/>
		<path fill="#58595B" d="M44.294,103.421c2.845,0,3.024,2.596,3.024,4.594c0,1.985-0.179,4.581-3.024,4.581
			c-2.846,0-3.025-2.596-3.025-4.581C41.269,106.017,41.449,103.421,44.294,103.421z M44.294,111.642
			c1.858,0,1.871-2.291,1.871-3.64c0-1.336-0.013-3.627-1.871-3.627c-1.859,0-1.872,2.291-1.872,3.627
			C42.423,109.351,42.435,111.642,44.294,111.642z"/>
		<path fill="#58595B" d="M51.113,103.421c1.589,0,2.051,1.157,2.051,2.545c0,1.323-0.564,2.558-2.051,2.558
			c-1.551,0-2.077-1.146-2.077-2.52C49.036,104.643,49.536,103.421,51.113,103.421z M51.074,107.824
			c0.974,0,1.128-1.068,1.128-1.857c0-0.751-0.128-1.846-1.089-1.846c-0.949,0-1.115,1.095-1.115,1.858
			C49.997,106.717,50.113,107.824,51.074,107.824z M57.162,103.255h1.089l-6.883,9.468h-1.102L57.162,103.255z M57.444,107.494
			c1.589,0,2.051,1.157,2.051,2.545c0,1.323-0.564,2.558-2.051,2.558c-1.551,0-2.077-1.146-2.077-2.52
			C55.368,108.715,55.868,107.494,57.444,107.494z M57.406,111.896c0.974,0,1.128-1.068,1.128-1.857
			c0-0.751-0.128-1.846-1.089-1.846c-0.949,0-1.115,1.095-1.115,1.858C56.329,110.79,56.445,111.896,57.406,111.896z"/>
	</g>
</g>
</svg>
