<?xml version="1.0" encoding="utf-8"?>
<!-- Generator: Adobe Illustrator 17.0.0, SVG Export Plug-In . SVG Version: 6.00 Build 0)  -->
<!DOCTYPE svg PUBLIC "-//W3C//DTD SVG 1.1//EN" "http://www.w3.org/Graphics/SVG/1.1/DTD/svg11.dtd">
<svg version="1.1" id="Layer_1" xmlns="http://www.w3.org/2000/svg" xmlns:xlink="http://www.w3.org/1999/xlink" x="0px" y="0px"
	 width="71.5px" height="127px" viewBox="0 0 71.5 127" enable-background="new 0 0 71.5 127" xml:space="preserve">
<g>
	<defs>
		<rect id="SVGID_29_" x="-260.157" y="-50.617" width="426.876" height="290.559"/>
	</defs>
	<clipPath id="SVGID_2_">
		<use xlink:href="#SVGID_29_"  overflow="visible"/>
	</clipPath>
	<g opacity="0.9" clip-path="url(#SVGID_2_)">
		<g>
			<defs>
				<rect id="SVGID_31_" x="-260.155" y="-50.617" width="426.868" height="290.559"/>
			</defs>
			<clipPath id="SVGID_4_">
				<use xlink:href="#SVGID_31_"  overflow="visible"/>
			</clipPath>
			<g clip-path="url(#SVGID_4_)">
				<defs>
					<rect id="SVGID_33_" x="-260.159" y="-50.617" width="426.876" height="290.559"/>
				</defs>
				<clipPath id="SVGID_6_">
					<use xlink:href="#SVGID_33_"  overflow="visible"/>
				</clipPath>
			</g>
		</g>
	</g>
</g>
<g>
	<defs>
		<rect id="SVGID_35_" x="-262.157" y="-50.617" width="426.876" height="290.559"/>
	</defs>
	<clipPath id="SVGID_8_">
		<use xlink:href="#SVGID_35_"  overflow="visible"/>
	</clipPath>
</g>
<g>
	<defs>
		<rect id="SVGID_40_" x="-261.157" y="-50.617" width="426.876" height="290.559"/>
	</defs>
	<clipPath id="SVGID_9_">
		<use xlink:href="#SVGID_40_"  overflow="visible"/>
	</clipPath>
</g>
<g>
	<defs>
		<rect id="SVGID_46_" x="-262.157" y="-50.617" width="426.876" height="290.559"/>
	</defs>
	<clipPath id="SVGID_10_">
		<use xlink:href="#SVGID_46_"  overflow="visible"/>
	</clipPath>
</g>
<g>
	<defs>
		<rect id="SVGID_48_" x="3.582" y="3.748" width="63.048" height="118.642"/>
	</defs>
	<clipPath id="SVGID_12_">
		<use xlink:href="#SVGID_48_"  overflow="visible"/>
	</clipPath>
	
		<linearGradient id="SVGID_14_" gradientUnits="userSpaceOnUse" x1="409.9426" y1="460.4856" x2="411.6398" y2="460.4856" gradientTransform="matrix(0 -37.9513 -38.2021 0 17626.6211 15620.9248)">
		<stop  offset="0" style="stop-color:#404041"/>
		<stop  offset="0.0139" style="stop-color:#444445"/>
		<stop  offset="0.1522" style="stop-color:#68696A"/>
		<stop  offset="0.2969" style="stop-color:#868889"/>
		<stop  offset="0.4479" style="stop-color:#9E9FA1"/>
		<stop  offset="0.6078" style="stop-color:#AEB0B2"/>
		<stop  offset="0.7825" style="stop-color:#B8BABC"/>
		<stop  offset="1" style="stop-color:#BBBDBF"/>
	</linearGradient>
	<rect x="3.581" y="3.748" clip-path="url(#SVGID_12_)" fill="url(#SVGID_14_)" width="63.048" height="118.643"/>
</g>
<g>
	<defs>
		<rect id="SVGID_51_" x="6.72" y="6.596" width="56.942" height="112.943"/>
	</defs>
	<clipPath id="SVGID_16_">
		<use xlink:href="#SVGID_51_"  overflow="visible"/>
	</clipPath>
	
		<linearGradient id="SVGID_18_" gradientUnits="userSpaceOnUse" x1="410.1282" y1="462.9022" x2="411.8254" y2="462.9022" gradientTransform="matrix(0 -36.1271 -36.3658 0 16869 14879.8105)">
		<stop  offset="0" style="stop-color:#FFFFFF"/>
		<stop  offset="0.2973" style="stop-color:#F8F8F8"/>
		<stop  offset="0.7441" style="stop-color:#E6E5E3"/>
		<stop  offset="1" style="stop-color:#D8D7D4"/>
	</linearGradient>
	<rect x="6.72" y="6.596" clip-path="url(#SVGID_16_)" fill="url(#SVGID_18_)" width="56.942" height="112.943"/>
</g>
<g>
	<defs>
		<rect id="SVGID_54_" x="-262.157" y="-50.617" width="426.876" height="290.559"/>
	</defs>
	<clipPath id="SVGID_20_">
		<use xlink:href="#SVGID_54_"  overflow="visible"/>
	</clipPath>
	<g opacity="0.5" clip-path="url(#SVGID_20_)">
		<g>
			<defs>
				<rect id="SVGID_56_" x="6.718" y="6.598" width="56.942" height="112.941"/>
			</defs>
			<clipPath id="SVGID_22_">
				<use xlink:href="#SVGID_56_"  overflow="visible"/>
			</clipPath>
			<g clip-path="url(#SVGID_22_)">
				<defs>
					<rect id="SVGID_58_" x="6.72" y="6.596" width="56.942" height="112.943"/>
				</defs>
				<clipPath id="SVGID_24_">
					<use xlink:href="#SVGID_58_"  overflow="visible"/>
				</clipPath>
				
					<linearGradient id="SVGID_26_" gradientUnits="userSpaceOnUse" x1="408.3556" y1="451.8422" x2="410.0528" y2="451.8422" gradientTransform="matrix(0 -46.28 -46.5859 0 21084.666 19061.1016)">
					<stop  offset="0" style="stop-color:#FFFFFF"/>
					<stop  offset="0.162" style="stop-color:#FBFBFB"/>
					<stop  offset="0.3174" style="stop-color:#F0F0F0"/>
					<stop  offset="0.4701" style="stop-color:#DCDCDD"/>
					<stop  offset="0.6213" style="stop-color:#C1C1C2"/>
					<stop  offset="0.7713" style="stop-color:#9E9EA0"/>
					<stop  offset="0.9184" style="stop-color:#747476"/>
					<stop  offset="1" style="stop-color:#59595C"/>
				</linearGradient>
				<rect x="6.72" y="6.596" clip-path="url(#SVGID_24_)" fill="url(#SVGID_26_)" width="56.942" height="112.943"/>
			</g>
		</g>
	</g>
	<g opacity="0.5" clip-path="url(#SVGID_20_)">
		<g>
			<defs>
				<rect id="SVGID_61_" x="6.718" y="98.367" width="56.942" height="23.876"/>
			</defs>
			<clipPath id="SVGID_28_">
				<use xlink:href="#SVGID_61_"  overflow="visible"/>
			</clipPath>
			<rect x="6.719" y="98.366" clip-path="url(#SVGID_28_)" fill="#58595B" width="56.94" height="23.877"/>
		</g>
	</g>
</g>
<g>
	<defs>
		<rect id="SVGID_63_" x="-261.157" y="-50.617" width="426.876" height="290.559"/>
	</defs>
	<clipPath id="SVGID_30_">
		<use xlink:href="#SVGID_63_"  overflow="visible"/>
	</clipPath>
	<g clip-path="url(#SVGID_30_)">
		<path fill="#58595B" d="M18.408,111.161h1.23v0.955h-1.23v2.112h-1.025v-2.112h-3.986v-1.044l4.14-5.866h0.872V111.161z
			 M17.383,111.161v-4.416h-0.026l-3.025,4.416H17.383z"/>
		<path fill="#58595B" d="M26.188,106.312h-3.666l-0.487,2.597l0.025,0.025c0.397-0.445,1.077-0.649,1.692-0.649
			c1.615,0,2.935,1.031,2.935,3.093c0,1.527-1.063,3.003-3.179,3.003c-1.576,0-2.858-0.954-2.896-2.583h1.089
			c0.064,0.929,0.82,1.629,1.91,1.629c1.038,0,1.923-0.7,1.923-2.138c0-1.196-0.833-2.049-2.051-2.049
			c-0.692,0-1.269,0.343-1.692,0.853l-0.936-0.052l0.846-4.683h4.486V106.312z"/>
		<path fill="#58595B" d="M27.931,110.181h3.704v1.018h-3.704V110.181z"/>
		<path fill="#58595B" d="M38.3,106.312h-3.666l-0.487,2.597l0.026,0.025c0.397-0.445,1.077-0.649,1.692-0.649
			c1.615,0,2.935,1.031,2.935,3.093c0,1.527-1.064,3.003-3.179,3.003c-1.577,0-2.858-0.954-2.896-2.583h1.089
			c0.064,0.929,0.82,1.629,1.91,1.629c1.039,0,1.923-0.7,1.923-2.138c0-1.196-0.833-2.049-2.051-2.049
			c-0.692,0-1.269,0.343-1.692,0.853l-0.936-0.052l0.846-4.683H38.3V106.312z"/>
		<path fill="#58595B" d="M45.426,106.312h-3.666l-0.487,2.597l0.025,0.025c0.397-0.445,1.077-0.649,1.692-0.649
			c1.615,0,2.935,1.031,2.935,3.093c0,1.527-1.063,3.003-3.179,3.003c-1.576,0-2.858-0.954-2.896-2.583h1.089
			c0.064,0.929,0.82,1.629,1.91,1.629c1.038,0,1.923-0.7,1.923-2.138c0-1.196-0.833-2.049-2.051-2.049
			c-0.692,0-1.269,0.343-1.692,0.853l-0.936-0.052l0.846-4.683h4.486V106.312z"/>
		<path fill="#58595B" d="M49.784,105.206c1.59,0,2.051,1.157,2.051,2.545c0,1.323-0.563,2.558-2.051,2.558
			c-1.551,0-2.076-1.146-2.076-2.52C47.707,106.427,48.207,105.206,49.784,105.206z M49.745,109.608
			c0.974,0,1.128-1.068,1.128-1.857c0-0.751-0.128-1.846-1.09-1.846c-0.948,0-1.115,1.095-1.115,1.858
			C48.669,108.501,48.784,109.608,49.745,109.608z M55.833,105.04h1.09l-6.883,9.468h-1.103L55.833,105.04z M56.116,109.278
			c1.589,0,2.051,1.157,2.051,2.545c0,1.323-0.564,2.558-2.051,2.558c-1.551,0-2.076-1.146-2.076-2.52
			C54.039,110.499,54.539,109.278,56.116,109.278z M56.077,113.68c0.974,0,1.128-1.068,1.128-1.857c0-0.751-0.128-1.846-1.089-1.846
			c-0.948,0-1.115,1.095-1.115,1.858C55,112.574,55.116,113.68,56.077,113.68z"/>
	</g>
</g>
</svg>
