<?xml version="1.0" encoding="utf-8"?>
<!-- Generator: Adobe Illustrator 17.0.0, SVG Export Plug-In . SVG Version: 6.00 Build 0)  -->
<!DOCTYPE svg PUBLIC "-//W3C//DTD SVG 1.1//EN" "http://www.w3.org/Graphics/SVG/1.1/DTD/svg11.dtd">
<svg version="1.1" id="Layer_1" xmlns="http://www.w3.org/2000/svg" xmlns:xlink="http://www.w3.org/1999/xlink" x="0px" y="0px"
	 width="412.061px" height="152.884px" viewBox="0 0 412.061 152.884" enable-background="new 0 0 412.061 152.884"
	 xml:space="preserve">
<g>
	<g>
		<defs>
			<rect id="SVGID_65_" x="0.748" y="0" width="411.313" height="152.883"/>
		</defs>
		<clipPath id="SVGID_2_">
			<use xlink:href="#SVGID_65_"  overflow="visible"/>
		</clipPath>
		<g opacity="0.9" clip-path="url(#SVGID_2_)">
			<g>
				<defs>
					<rect id="SVGID_67_" x="0.007" y="2.635" width="409.249" height="150.249"/>
				</defs>
				<clipPath id="SVGID_4_">
					<use xlink:href="#SVGID_67_"  overflow="visible"/>
				</clipPath>
				<g clip-path="url(#SVGID_4_)">
					<defs>
						<rect id="SVGID_69_" x="0" y="2.637" width="409.261" height="150.248"/>
					</defs>
					<clipPath id="SVGID_6_">
						<use xlink:href="#SVGID_69_"  overflow="visible"/>
					</clipPath>
					<path clip-path="url(#SVGID_6_)" fill="#FFFFFF" d="M409.262,117.593c0,6.07-7.332,10.994-16.369,10.994H16.37
						c-9.041,0-16.37-4.924-16.37-10.994V13.631C0,7.558,7.329,2.636,16.37,2.636h376.524c9.037,0,16.369,4.922,16.369,10.995
						V117.593z"/>
				</g>
			</g>
		</g>
	</g>
	<g>
		<defs>
			<rect id="SVGID_71_" x="0.748" y="0" width="411.313" height="152.883"/>
		</defs>
		<clipPath id="SVGID_8_">
			<use xlink:href="#SVGID_71_"  overflow="visible"/>
		</clipPath>
		<g clip-path="url(#SVGID_8_)">
			<path fill="#09617D" d="M44.624,48.22h-3.704v-1.398l3.562-5.076h1.282v5.522h1.199v0.952h-1.199v1.762h-1.14V48.22z
				 M44.66,47.268V42.98l-2.837,4.288H44.66z"/>
			<path fill="#09617D" d="M50.462,41.687c2.458,0,2.754,2.608,2.754,4.136c0,1.927-0.392,3.008-1.14,3.701
				c-0.582,0.54-1.271,0.623-1.638,0.623c-1.092,0-1.84-0.635-2.196-1.352c-0.273-0.54-0.534-1.327-0.534-2.784
				C47.708,44.8,47.85,41.687,50.462,41.687z M50.45,49.171c1.377,0,1.614-1.786,1.614-3.243c0-1.95-0.344-3.301-1.59-3.301
				c-1.437,0-1.626,1.868-1.626,3.325C48.847,47.761,49.203,49.171,50.45,49.171z"/>
			<path fill="#09617D" d="M58.114,44.871l-0.023-0.787h1.127v0.857c0.57-0.929,1.377-1.011,1.888-1.011
				c1.318,0,1.733,0.67,1.947,1.104c0.202-0.329,0.688-1.104,2.006-1.104c0.854,0,2.185,0.353,2.185,2.092v3.959h-1.128v-3.783
				c0-0.517-0.095-0.74-0.202-0.893c-0.189-0.271-0.569-0.518-1.14-0.518c-0.724,0-1.116,0.412-1.27,0.623
				c-0.261,0.364-0.261,1.011-0.261,1.269v3.302h-1.128v-3.9c0-0.729-0.427-1.293-1.306-1.293c-0.76,0-1.175,0.471-1.306,0.646
				c-0.25,0.341-0.261,0.822-0.261,1.198v3.349h-1.128V44.871z"/>
			<path fill="#09617D" d="M70.394,50.44c0.047,0.658,0.332,1.152,1.389,1.152c1.555,0,1.579-1.116,1.579-2.715
				c-0.475,0.976-1.603,0.999-1.959,0.999c-0.546,0-1.33-0.117-1.828-0.729c-0.51-0.6-0.677-1.387-0.677-2.174
				c0-1.997,1.188-2.973,2.647-2.973c1.199,0,1.638,0.588,1.875,0.894l0.012-0.811h1.08l-0.024,1.068l-0.012,3.689
				c0,1.422-0.047,1.998-0.285,2.444c-0.499,0.939-1.662,1.058-2.481,1.058c-2.386,0-2.457-1.104-2.505-1.904H70.394z
				 M72.994,48.466c0.237-0.306,0.404-0.622,0.404-1.691c0-0.74-0.167-1.163-0.463-1.469c-0.296-0.317-0.771-0.518-1.282-0.518
				c-1.413,0-1.603,1.41-1.603,2.162c0,0.905,0.273,2.104,1.638,2.104C72.341,49.054,72.721,48.819,72.994,48.466z"/>
		</g>
		<g clip-path="url(#SVGID_8_)">
			<path fill="#09617D" d="M41.194,58.514c0-0.729,0.499-2.221,2.659-2.221c1.733,0,2.73,0.929,2.73,2.174
				c0,0.799-0.522,1.633-1.674,1.845c0.487,0.129,1.792,0.481,1.792,2.056c0,1.116-0.784,2.386-2.825,2.386
				c-0.701,0-1.532-0.142-2.125-0.682c-0.439-0.399-0.724-1.011-0.724-1.634c0-0.54,0.213-1.104,0.629-1.491
				c0.392-0.389,0.819-0.506,1.187-0.623C41.752,60.088,41.194,59.325,41.194,58.514z M43.877,63.825
				c1.317,0,1.638-0.916,1.638-1.527c0-0.904-0.677-1.492-1.615-1.492c-1.009,0-1.674,0.67-1.674,1.527
				C42.226,62.967,42.654,63.825,43.877,63.825z M43.9,57.162c-0.878,0-1.555,0.518-1.555,1.328c0,0.787,0.665,1.315,1.52,1.315
				c0.902,0,1.579-0.517,1.579-1.315C45.444,57.75,44.886,57.162,43.9,57.162z"/>
			<path fill="#09617D" d="M50.462,56.317c2.458,0,2.754,2.608,2.754,4.136c0,1.927-0.392,3.008-1.14,3.701
				c-0.582,0.54-1.271,0.623-1.638,0.623c-1.092,0-1.84-0.635-2.196-1.352c-0.273-0.54-0.534-1.327-0.534-2.784
				C47.708,59.43,47.85,56.317,50.462,56.317z M50.45,63.801c1.377,0,1.614-1.786,1.614-3.243c0-1.95-0.344-3.301-1.59-3.301
				c-1.437,0-1.626,1.868-1.626,3.325C48.847,62.391,49.203,63.801,50.45,63.801z"/>
			<path fill="#09617D" d="M58.114,59.501l-0.023-0.787h1.127v0.857c0.57-0.929,1.377-1.011,1.888-1.011
				c1.318,0,1.733,0.67,1.947,1.104c0.202-0.329,0.688-1.104,2.006-1.104c0.854,0,2.185,0.353,2.185,2.092v3.959h-1.128v-3.783
				c0-0.517-0.095-0.74-0.202-0.893c-0.189-0.271-0.569-0.518-1.14-0.518c-0.724,0-1.116,0.412-1.27,0.623
				c-0.261,0.364-0.261,1.011-0.261,1.269v3.302h-1.128v-3.9c0-0.729-0.427-1.293-1.306-1.293c-0.76,0-1.175,0.471-1.306,0.646
				c-0.25,0.341-0.261,0.822-0.261,1.198v3.349h-1.128V59.501z"/>
			<path fill="#09617D" d="M70.394,65.07c0.047,0.658,0.332,1.152,1.389,1.152c1.555,0,1.579-1.116,1.579-2.715
				c-0.475,0.976-1.603,0.999-1.959,0.999c-0.546,0-1.33-0.117-1.828-0.729c-0.51-0.6-0.677-1.387-0.677-2.174
				c0-1.997,1.188-2.973,2.647-2.973c1.199,0,1.638,0.588,1.875,0.894l0.012-0.811h1.08l-0.024,1.068l-0.012,3.689
				c0,1.422-0.047,1.998-0.285,2.444c-0.499,0.939-1.662,1.058-2.481,1.058c-2.386,0-2.457-1.104-2.505-1.904H70.394z
				 M72.994,63.096c0.237-0.306,0.404-0.622,0.404-1.691c0-0.74-0.167-1.163-0.463-1.469c-0.296-0.317-0.771-0.518-1.282-0.518
				c-1.413,0-1.603,1.41-1.603,2.162c0,0.905,0.273,2.104,1.638,2.104C72.341,63.684,72.721,63.449,72.994,63.096z"/>
		</g>
		<g clip-path="url(#SVGID_8_)">
			<path fill="#09617D" d="M44.137,73.39c-0.511,0.423-1.33,0.904-1.912,1.175V73.39c0.772-0.399,1.532-0.893,1.995-1.28h1.057v8.13
				h-1.14V73.39z"/>
			<path fill="#09617D" d="M50.141,71.945c2.458,0,2.754,2.608,2.754,4.136c0,1.927-0.392,3.008-1.14,3.701
				c-0.582,0.54-1.271,0.623-1.638,0.623c-1.092,0-1.84-0.635-2.196-1.352c-0.273-0.54-0.534-1.327-0.534-2.784
				C47.387,75.058,47.529,71.945,50.141,71.945z M50.129,79.429c1.377,0,1.614-1.786,1.614-3.243c0-1.95-0.344-3.301-1.59-3.301
				c-1.437,0-1.626,1.868-1.626,3.325C48.527,78.019,48.883,79.429,50.129,79.429z"/>
			<path fill="#09617D" d="M57.793,75.129l-0.023-0.787h1.127V75.2c0.57-0.929,1.377-1.011,1.888-1.011
				c1.318,0,1.733,0.67,1.947,1.104c0.202-0.329,0.688-1.104,2.006-1.104c0.855,0,2.184,0.353,2.184,2.092v3.959h-1.127v-3.783
				c0-0.517-0.095-0.74-0.202-0.893c-0.19-0.271-0.57-0.518-1.14-0.518c-0.725,0-1.116,0.412-1.271,0.623
				c-0.261,0.364-0.261,1.011-0.261,1.269v3.302h-1.127v-3.9c0-0.729-0.428-1.293-1.306-1.293c-0.76,0-1.175,0.471-1.306,0.646
				c-0.25,0.341-0.261,0.822-0.261,1.198v3.349h-1.128V75.129z"/>
			<path fill="#09617D" d="M70.074,80.698c0.047,0.658,0.332,1.152,1.389,1.152c1.555,0,1.579-1.116,1.579-2.715
				c-0.475,0.976-1.603,0.999-1.959,0.999c-0.546,0-1.33-0.117-1.828-0.729c-0.51-0.6-0.677-1.387-0.677-2.174
				c0-1.997,1.188-2.973,2.647-2.973c1.199,0,1.638,0.588,1.875,0.894l0.012-0.811h1.08l-0.024,1.068L74.157,79.1
				c0,1.422-0.047,1.998-0.285,2.444c-0.499,0.939-1.662,1.058-2.481,1.058c-2.386,0-2.457-1.104-2.505-1.904H70.074z
				 M72.674,78.724c0.237-0.306,0.404-0.622,0.404-1.691c0-0.74-0.167-1.163-0.463-1.469c-0.296-0.317-0.771-0.518-1.282-0.518
				c-1.413,0-1.603,1.41-1.603,2.162c0,0.905,0.273,2.104,1.638,2.104C72.021,79.312,72.401,79.076,72.674,78.724z"/>
		</g>
		<g clip-path="url(#SVGID_8_)">
			<path fill="#09617D" d="M41.218,93.799l2.148-2.091c0.451-0.435,0.902-0.905,1.271-1.398c0.475-0.646,0.605-1.011,0.605-1.445
				c0-0.399-0.143-1.327-1.318-1.327c-1.318,0-1.341,1.116-1.341,1.422h-1.247c0.012-0.4,0.047-1.176,0.76-1.786
				c0.57-0.481,1.258-0.588,1.781-0.588c1.258,0,2.54,0.635,2.54,2.374c0,0.517-0.035,0.916-0.926,2.032
				c-0.237,0.294-1.282,1.363-1.52,1.598l-1.437,1.352h3.906v0.928h-5.223V93.799z"/>
			<path fill="#09617D" d="M50.462,86.574c2.458,0,2.754,2.608,2.754,4.136c0,1.927-0.392,3.008-1.14,3.701
				c-0.582,0.54-1.271,0.623-1.638,0.623c-1.092,0-1.84-0.635-2.196-1.352c-0.273-0.54-0.534-1.327-0.534-2.784
				C47.708,89.687,47.85,86.574,50.462,86.574z M50.45,94.058c1.377,0,1.614-1.786,1.614-3.243c0-1.95-0.344-3.301-1.59-3.301
				c-1.437,0-1.626,1.868-1.626,3.325C48.847,92.648,49.203,94.058,50.45,94.058z"/>
			<path fill="#09617D" d="M58.114,89.758l-0.023-0.787h1.127v0.857c0.57-0.929,1.377-1.011,1.888-1.011
				c1.318,0,1.733,0.67,1.947,1.104c0.202-0.329,0.688-1.104,2.006-1.104c0.854,0,2.185,0.353,2.185,2.092v3.959h-1.128v-3.783
				c0-0.517-0.095-0.74-0.202-0.893c-0.189-0.271-0.569-0.518-1.14-0.518c-0.724,0-1.116,0.412-1.27,0.623
				c-0.261,0.364-0.261,1.011-0.261,1.269v3.302h-1.128v-3.9c0-0.729-0.427-1.293-1.306-1.293c-0.76,0-1.175,0.471-1.306,0.646
				c-0.25,0.341-0.261,0.822-0.261,1.198v3.349h-1.128V89.758z"/>
			<path fill="#09617D" d="M70.394,95.326c0.047,0.658,0.332,1.152,1.389,1.152c1.555,0,1.579-1.116,1.579-2.715
				c-0.475,0.976-1.603,0.999-1.959,0.999c-0.546,0-1.33-0.117-1.828-0.729c-0.51-0.6-0.677-1.387-0.677-2.174
				c0-1.997,1.188-2.973,2.647-2.973c1.199,0,1.638,0.588,1.875,0.894l0.012-0.811h1.08l-0.024,1.068l-0.012,3.689
				c0,1.422-0.047,1.998-0.285,2.444c-0.499,0.939-1.662,1.058-2.481,1.058c-2.386,0-2.457-1.104-2.505-1.904H70.394z
				 M72.994,93.353c0.237-0.306,0.404-0.622,0.404-1.691c0-0.74-0.167-1.163-0.463-1.469c-0.296-0.317-0.771-0.518-1.282-0.518
				c-1.413,0-1.603,1.41-1.603,2.162c0,0.905,0.273,2.104,1.638,2.104C72.341,93.941,72.721,93.705,72.994,93.353z"/>
		</g>
		<g clip-path="url(#SVGID_8_)">
			<path fill="#09617D" d="M184.027,49.089h1.65l4.214,7.014v-7.014h1.092v8.482h-1.52l-4.357-7.202v7.202h-1.08V49.089z"/>
			<path fill="#09617D" d="M194.801,49.195h0.772l-2.766,8.565h-0.784L194.801,49.195z"/>
			<path fill="#09617D" d="M199.144,49.089h1.27l3.466,8.482h-1.294l-0.926-2.209h-3.977l-0.926,2.209h-1.223L199.144,49.089z
				 M198.064,54.411h3.241l-1.579-4.159L198.064,54.411z"/>
		</g>
		<g clip-path="url(#SVGID_8_)">
			<path fill="#09617D" d="M184.027,78.948h1.65l4.214,7.014v-7.014h1.092v8.482h-1.52l-4.357-7.202v7.202h-1.08V78.948z"/>
			<path fill="#09617D" d="M194.801,79.053h0.772l-2.766,8.565h-0.784L194.801,79.053z"/>
			<path fill="#09617D" d="M199.144,78.948h1.27l3.466,8.482h-1.294l-0.926-2.209h-3.977l-0.926,2.209h-1.223L199.144,78.948z
				 M198.064,84.27h3.241l-1.579-4.159L198.064,84.27z"/>
		</g>
		<g clip-path="url(#SVGID_8_)">
			<path fill="#09617D" d="M27.503,19.078h1.27l3.467,8.482h-1.294l-0.926-2.209h-3.977l-0.926,2.209h-1.223L27.503,19.078z
				 M26.423,24.401h3.241l-1.579-4.159L26.423,24.401z"/>
			<path fill="#09617D" d="M32.484,21.64h1.057v-1.234l1.104-0.353v1.587h1.33v0.811h-1.33v3.536c0,0.294,0,0.787,0.795,0.787
				c0.226,0,0.439-0.035,0.534-0.059v0.857c-0.202,0.035-0.522,0.07-0.926,0.07c-1.021,0-1.508-0.293-1.508-1.257v-3.936h-1.057
				V21.64z"/>
			<path fill="#09617D" d="M39.938,21.51c2.386,0,2.92,1.856,2.92,3.09c0,1.728-0.985,3.161-3.016,3.161
				c-1.971,0-2.932-1.352-2.932-3.078C36.91,23.226,37.599,21.51,39.938,21.51z M39.866,26.939c0.843,0,1.804-0.6,1.804-2.374
				c0-1.469-0.688-2.244-1.733-2.244c-0.712,0-1.864,0.447-1.864,2.291C38.074,25.823,38.596,26.939,39.866,26.939z"/>
			<path fill="#09617D" d="M44.658,22.862c0-0.399-0.024-0.811-0.059-1.198h1.127l0.024,1.14c0.213-0.823,0.926-1.093,1.424-1.163
				c0.333-0.048,0.582-0.036,0.772-0.024v1.081c-0.06-0.023-0.131-0.035-0.214-0.047s-0.19-0.012-0.32-0.012
				c-1.318,0-1.626,0.775-1.626,1.786v3.137h-1.128V22.862z"/>
			<path fill="#09617D" d="M48.312,21.663h1.247l1.899,4.676l1.852-4.676h1.235l-2.612,5.897h-1.128L48.312,21.663z"/>
			<path fill="#09617D" d="M59.444,27.561c-0.083-0.294-0.107-0.575-0.107-0.881c-0.534,0.976-1.341,1.069-1.84,1.069
				c-1.365,0-2.101-0.764-2.101-1.739c0-0.47,0.166-1.222,1.044-1.727c0.641-0.353,1.591-0.388,2.065-0.388
				c0.285,0,0.463,0.012,0.808,0.035c0-0.729,0-1.046-0.214-1.305c-0.226-0.294-0.712-0.388-1.033-0.388
				c-1.128,0-1.187,0.764-1.199,0.999h-1.116c0.036-0.306,0.071-0.717,0.416-1.116c0.451-0.494,1.294-0.635,1.923-0.635
				c0.867,0,1.793,0.271,2.113,0.869c0.19,0.353,0.202,0.635,0.202,0.905l-0.047,2.819c0,0.095,0.012,0.882,0.095,1.48H59.444z
				 M58.673,24.66c-0.451,0-2.149,0-2.149,1.198c0,0.376,0.238,1.021,1.235,1.021c0.57,0,0.997-0.223,1.27-0.634
				c0.25-0.399,0.261-0.729,0.285-1.551C59.112,24.671,58.946,24.66,58.673,24.66z"/>
			<path fill="#09617D" d="M63.05,25.811c-0.012,0.446,0.226,1.068,1.306,1.068c0.463,0,0.807-0.082,1.044-0.376
				c0.119-0.152,0.19-0.352,0.19-0.552c0-0.576-0.416-0.682-1.306-0.881c-1.247-0.282-2.291-0.529-2.291-1.763
				c0-1.081,0.95-1.786,2.327-1.786c0.748,0,1.792,0.212,2.148,0.917c0.154,0.329,0.154,0.61,0.154,0.857h-1.14
				c0.036-0.893-0.748-0.964-1.151-0.964c-0.166,0-1.211,0-1.211,0.847c0,0.54,0.534,0.669,0.843,0.752
				c1.65,0.388,2.006,0.481,2.363,0.811c0.332,0.306,0.451,0.717,0.451,1.093c0,0.657-0.368,1.222-0.807,1.492
				c-0.522,0.316-1.151,0.399-1.769,0.399c-1.211,0-2.339-0.494-2.327-1.915H63.05z"/>
			<path fill="#09617D" d="M67.427,21.64h1.057v-1.234l1.104-0.353v1.587h1.33v0.811h-1.33v3.536c0,0.294,0,0.787,0.795,0.787
				c0.226,0,0.439-0.035,0.534-0.059v0.857c-0.202,0.035-0.522,0.07-0.926,0.07c-1.021,0-1.508-0.293-1.508-1.257v-3.936h-1.057
				V21.64z"/>
			<path fill="#09617D" d="M75.925,27.561c-0.083-0.294-0.107-0.575-0.107-0.881c-0.534,0.976-1.341,1.069-1.84,1.069
				c-1.365,0-2.101-0.764-2.101-1.739c0-0.47,0.166-1.222,1.044-1.727c0.641-0.353,1.591-0.388,2.065-0.388
				c0.285,0,0.463,0.012,0.808,0.035c0-0.729,0-1.046-0.214-1.305c-0.226-0.294-0.712-0.388-1.033-0.388
				c-1.128,0-1.187,0.764-1.199,0.999h-1.116c0.036-0.306,0.071-0.717,0.416-1.116c0.451-0.494,1.294-0.635,1.923-0.635
				c0.867,0,1.793,0.271,2.113,0.869c0.19,0.353,0.202,0.635,0.202,0.905l-0.047,2.819c0,0.095,0.012,0.882,0.095,1.48H75.925z
				 M75.153,24.66c-0.451,0-2.149,0-2.149,1.198c0,0.376,0.238,1.021,1.235,1.021c0.57,0,0.997-0.223,1.27-0.634
				c0.25-0.399,0.261-0.729,0.285-1.551C75.592,24.671,75.426,24.66,75.153,24.66z"/>
			<path fill="#09617D" d="M77.975,21.64h1.057v-1.234l1.104-0.353v1.587h1.33v0.811h-1.33v3.536c0,0.294,0,0.787,0.795,0.787
				c0.226,0,0.439-0.035,0.534-0.059v0.857c-0.202,0.035-0.522,0.07-0.926,0.07c-1.021,0-1.508-0.293-1.508-1.257v-3.936h-1.057
				V21.64z"/>
			<path fill="#09617D" d="M82.734,19.102h1.341v1.21h-1.341V19.102z M82.852,21.663h1.116v5.897h-1.116V21.663z"/>
			<path fill="#09617D" d="M86.174,22.344l-0.012-0.681h1.116l0.012,0.951c0.13-0.247,0.558-1.069,1.911-1.069
				c0.534,0,2.161,0.2,2.161,2.01v4.006h-1.14v-3.748c0-0.388-0.047-0.74-0.32-1.01c-0.285-0.271-0.677-0.399-1.057-0.399
				c-0.808,0-1.555,0.575-1.555,1.762v3.396h-1.116V22.344z"/>
		</g>
		<g clip-path="url(#SVGID_8_)">
			<path fill="#09617D" d="M133.16,19.078h5.377v0.998h-4.19v2.644h3.989v0.987h-3.989v2.82h4.286v1.033h-5.473V19.078z"/>
			<path fill="#09617D" d="M139.864,26.421l3.182-3.924h-3.015v-0.834h4.286v0.939l-3.289,4.101h3.289v0.857h-4.452V26.421z"/>
			<path fill="#09617D" d="M146.26,24.812c-0.023,1.222,0.487,2.127,1.709,2.127c0.724,0,1.306-0.376,1.401-1.223h1.116
				c-0.036,0.294-0.083,0.775-0.511,1.234c-0.261,0.293-0.854,0.787-2.054,0.787c-1.875,0-2.766-1.151-2.766-3.02
				c0-1.163,0.238-2.127,1.175-2.773c0.57-0.399,1.282-0.435,1.626-0.435c2.671,0,2.612,2.338,2.588,3.302H146.26z M149.406,24.036
				c0.012-0.564-0.095-1.739-1.472-1.739c-0.724,0-1.603,0.435-1.626,1.739H149.406z"/>
			<path fill="#09617D" d="M151.266,21.64h1.057v-1.234l1.104-0.353v1.587h1.33v0.811h-1.33v3.536c0,0.294,0,0.787,0.795,0.787
				c0.226,0,0.439-0.035,0.534-0.059v0.857c-0.202,0.035-0.522,0.07-0.926,0.07c-1.021,0-1.508-0.293-1.508-1.257v-3.936h-1.057
				V21.64z"/>
			<path fill="#09617D" d="M156.024,19.102h1.341v1.21h-1.341V19.102z M156.143,21.663h1.116v5.897h-1.116V21.663z"/>
			<path fill="#09617D" d="M159.418,22.451l-0.023-0.787h1.127v0.857c0.57-0.929,1.377-1.011,1.888-1.011
				c1.318,0,1.733,0.67,1.947,1.104c0.202-0.329,0.688-1.104,2.006-1.104c0.855,0,2.184,0.353,2.184,2.092v3.959h-1.127v-3.783
				c0-0.517-0.095-0.74-0.202-0.893c-0.19-0.271-0.57-0.518-1.14-0.518c-0.725,0-1.116,0.412-1.271,0.623
				c-0.261,0.364-0.261,1.011-0.261,1.269v3.302h-1.127v-3.9c0-0.729-0.428-1.293-1.306-1.293c-0.76,0-1.175,0.471-1.306,0.646
				c-0.25,0.341-0.261,0.822-0.261,1.198v3.349h-1.128V22.451z"/>
			<path fill="#09617D" d="M170.523,19.102h1.341v1.21h-1.341V19.102z M170.642,21.663h1.116v5.897h-1.116V21.663z"/>
			<path fill="#09617D" d="M175.045,22.521c0.154-0.271,0.594-1.011,1.947-1.011c0.594,0,1.341,0.142,1.888,0.752
				c0.297,0.341,0.7,0.929,0.7,2.221c0,1.14-0.273,1.763-0.57,2.15c-0.475,0.67-1.27,1.01-2.089,1.01
				c-0.285,0-0.819-0.035-1.33-0.376c-0.332-0.223-0.463-0.423-0.582-0.599l-0.024,0.893h-1.08l0.023-1.058v-7.425h1.116V22.521z
				 M176.73,22.262c-1.709,0-1.709,1.974-1.709,2.35c0,0.388,0,2.232,1.662,2.232c1.377,0,1.721-1.327,1.721-2.291
				C178.404,23.966,178.285,22.262,176.73,22.262z"/>
			<path fill="#09617D" d="M181.855,24.812c-0.023,1.222,0.487,2.127,1.709,2.127c0.724,0,1.306-0.376,1.401-1.223h1.116
				c-0.036,0.294-0.083,0.775-0.511,1.234c-0.261,0.293-0.854,0.787-2.054,0.787c-1.875,0-2.766-1.151-2.766-3.02
				c0-1.163,0.237-2.127,1.175-2.773c0.57-0.399,1.282-0.435,1.626-0.435c2.671,0,2.612,2.338,2.588,3.302H181.855z M185.001,24.036
				c0.012-0.564-0.095-1.739-1.472-1.739c-0.724,0-1.603,0.435-1.626,1.739H185.001z"/>
			<path fill="#09617D" d="M189.401,19.184h0.772l-2.766,8.565h-0.784L189.401,19.184z"/>
			<path fill="#09617D" d="M191.715,25.811c-0.012,0.446,0.226,1.068,1.306,1.068c0.463,0,0.807-0.082,1.044-0.376
				c0.119-0.152,0.19-0.352,0.19-0.552c0-0.576-0.416-0.682-1.306-0.881c-1.247-0.282-2.291-0.529-2.291-1.763
				c0-1.081,0.95-1.786,2.327-1.786c0.748,0,1.792,0.212,2.148,0.917c0.154,0.329,0.154,0.61,0.154,0.857h-1.14
				c0.036-0.893-0.748-0.964-1.151-0.964c-0.166,0-1.211,0-1.211,0.847c0,0.54,0.534,0.669,0.843,0.752
				c1.65,0.388,2.006,0.481,2.363,0.811c0.332,0.306,0.451,0.717,0.451,1.093c0,0.657-0.368,1.222-0.807,1.492
				c-0.522,0.316-1.151,0.399-1.769,0.399c-1.211,0-2.339-0.494-2.327-1.915H191.715z"/>
			<path fill="#09617D" d="M196.9,19.102h1.341v1.21H196.9V19.102z M197.018,21.663h1.116v5.897h-1.116V21.663z"/>
			<path fill="#09617D" d="M200.293,22.451l-0.023-0.787h1.127v0.857c0.57-0.929,1.377-1.011,1.888-1.011
				c1.318,0,1.733,0.67,1.947,1.104c0.202-0.329,0.688-1.104,2.006-1.104c0.855,0,2.184,0.353,2.184,2.092v3.959h-1.127v-3.783
				c0-0.517-0.095-0.74-0.202-0.893c-0.19-0.271-0.57-0.518-1.14-0.518c-0.725,0-1.116,0.412-1.271,0.623
				c-0.261,0.364-0.261,1.011-0.261,1.269v3.302h-1.127v-3.9c0-0.729-0.428-1.293-1.306-1.293c-0.76,0-1.175,0.471-1.306,0.646
				c-0.25,0.341-0.261,0.822-0.261,1.198v3.349h-1.128V22.451z"/>
			<path fill="#09617D" d="M210.603,21.663h1.247l1.899,4.676l1.852-4.676h1.235l-2.612,5.897h-1.128L210.603,21.663z"/>
			<path fill="#09617D" d="M221.735,27.561c-0.083-0.294-0.107-0.575-0.107-0.881c-0.534,0.976-1.341,1.069-1.84,1.069
				c-1.365,0-2.101-0.764-2.101-1.739c0-0.47,0.166-1.222,1.044-1.727c0.641-0.353,1.591-0.388,2.065-0.388
				c0.285,0,0.463,0.012,0.808,0.035c0-0.729,0-1.046-0.214-1.305c-0.226-0.294-0.712-0.388-1.033-0.388
				c-1.128,0-1.187,0.764-1.199,0.999h-1.116c0.036-0.306,0.071-0.717,0.416-1.116c0.451-0.494,1.294-0.635,1.923-0.635
				c0.866,0,1.792,0.271,2.113,0.869c0.19,0.353,0.202,0.635,0.202,0.905l-0.047,2.819c0,0.095,0.012,0.882,0.095,1.48H221.735z
				 M220.963,24.66c-0.451,0-2.149,0-2.149,1.198c0,0.376,0.237,1.021,1.235,1.021c0.57,0,0.997-0.223,1.27-0.634
				c0.25-0.399,0.261-0.729,0.285-1.551C221.402,24.671,221.236,24.66,220.963,24.66z"/>
			<path fill="#09617D" d="M225.34,25.811c-0.012,0.446,0.226,1.068,1.306,1.068c0.463,0,0.807-0.082,1.044-0.376
				c0.119-0.152,0.19-0.352,0.19-0.552c0-0.576-0.416-0.682-1.306-0.881c-1.247-0.282-2.291-0.529-2.291-1.763
				c0-1.081,0.95-1.786,2.327-1.786c0.748,0,1.792,0.212,2.148,0.917c0.154,0.329,0.154,0.61,0.154,0.857h-1.14
				c0.036-0.893-0.748-0.964-1.151-0.964c-0.166,0-1.211,0-1.211,0.847c0,0.54,0.534,0.669,0.843,0.752
				c1.65,0.388,2.006,0.481,2.363,0.811c0.332,0.306,0.451,0.717,0.451,1.093c0,0.657-0.368,1.222-0.808,1.492
				c-0.522,0.316-1.151,0.399-1.769,0.399c-1.211,0-2.339-0.494-2.327-1.915H225.34z"/>
			<path fill="#09617D" d="M229.718,21.64h1.057v-1.234l1.104-0.353v1.587h1.33v0.811h-1.33v3.536c0,0.294,0,0.787,0.795,0.787
				c0.226,0,0.439-0.035,0.534-0.059v0.857c-0.202,0.035-0.522,0.07-0.926,0.07c-1.021,0-1.508-0.293-1.508-1.257v-3.936h-1.057
				V21.64z"/>
			<path fill="#09617D" d="M238.216,27.561c-0.083-0.294-0.107-0.575-0.107-0.881c-0.534,0.976-1.341,1.069-1.84,1.069
				c-1.365,0-2.101-0.764-2.101-1.739c0-0.47,0.166-1.222,1.044-1.727c0.641-0.353,1.591-0.388,2.065-0.388
				c0.285,0,0.463,0.012,0.808,0.035c0-0.729,0-1.046-0.214-1.305c-0.226-0.294-0.712-0.388-1.033-0.388
				c-1.128,0-1.187,0.764-1.199,0.999h-1.116c0.036-0.306,0.071-0.717,0.416-1.116c0.451-0.494,1.294-0.635,1.923-0.635
				c0.867,0,1.793,0.271,2.113,0.869c0.19,0.353,0.202,0.635,0.202,0.905l-0.047,2.819c0,0.095,0.012,0.882,0.095,1.48H238.216z
				 M237.444,24.66c-0.451,0-2.149,0-2.149,1.198c0,0.376,0.238,1.021,1.235,1.021c0.57,0,0.997-0.223,1.27-0.634
				c0.25-0.399,0.261-0.729,0.285-1.551C237.883,24.671,237.717,24.66,237.444,24.66z"/>
			<path fill="#09617D" d="M240.265,21.64h1.057v-1.234l1.104-0.353v1.587h1.33v0.811h-1.33v3.536c0,0.294,0,0.787,0.795,0.787
				c0.226,0,0.439-0.035,0.534-0.059v0.857c-0.202,0.035-0.522,0.07-0.926,0.07c-1.021,0-1.508-0.293-1.508-1.257v-3.936h-1.057
				V21.64z"/>
			<path fill="#09617D" d="M245.024,19.102h1.341v1.21h-1.341V19.102z M245.143,21.663h1.116v5.897h-1.116V21.663z"/>
			<path fill="#09617D" d="M248.465,22.344l-0.012-0.681h1.116l0.012,0.951c0.13-0.247,0.558-1.069,1.911-1.069
				c0.534,0,2.161,0.2,2.161,2.01v4.006h-1.14v-3.748c0-0.388-0.047-0.74-0.32-1.01c-0.285-0.271-0.677-0.399-1.057-0.399
				c-0.807,0-1.555,0.575-1.555,1.762v3.396h-1.116V22.344z"/>
			<path fill="#09617D" d="M260.332,21.827l-2.042-0.224l1.211,1.622l-0.771,0.47l-0.795-1.856l-0.855,1.833l-0.807-0.435
				l1.258-1.634l-1.971,0.165v-0.857l2.006,0.258l-1.211-1.645l0.784-0.423l0.795,1.821l0.819-1.833l0.795,0.435l-1.246,1.645
				l2.03-0.223V21.827z"/>
		</g>
		<g clip-path="url(#SVGID_8_)">
			<path fill="#09617D" d="M293.65,12.026h1.27l3.467,8.483h-1.294l-0.926-2.209h-3.977l-0.926,2.209h-1.223L293.65,12.026z
				 M292.569,17.348h3.241l-1.579-4.159L292.569,17.348z"/>
			<path fill="#09617D" d="M300.732,12.026v3.643h4.072v-3.643h1.187v8.483h-1.187v-3.83h-4.072v3.83h-1.188v-8.483H300.732z"/>
			<path fill="#09617D" d="M310.783,12.026h1.27l3.467,8.483h-1.294l-0.926-2.209h-3.977l-0.926,2.209h-1.223L310.783,12.026z
				 M309.702,17.348h3.241l-1.579-4.159L309.702,17.348z"/>
			<path fill="#09617D" d="M321.045,20.967c0.047,0.658,0.332,1.151,1.389,1.151c1.555,0,1.579-1.116,1.579-2.714
				c-0.475,0.975-1.603,0.998-1.959,0.998c-0.546,0-1.33-0.117-1.828-0.728c-0.51-0.6-0.677-1.387-0.677-2.174
				c0-1.998,1.187-2.973,2.647-2.973c1.199,0,1.638,0.587,1.875,0.893l0.012-0.811h1.08l-0.024,1.069l-0.012,3.689
				c0,1.422-0.047,1.997-0.285,2.443c-0.499,0.94-1.662,1.058-2.481,1.058c-2.386,0-2.457-1.104-2.505-1.903H321.045z
				 M323.645,18.993c0.237-0.306,0.404-0.623,0.404-1.692c0-0.74-0.167-1.163-0.463-1.469c-0.297-0.317-0.772-0.517-1.282-0.517
				c-1.413,0-1.603,1.41-1.603,2.162c0,0.904,0.273,2.103,1.638,2.103C322.992,19.58,323.372,19.346,323.645,18.993z"/>
			<path fill="#09617D" d="M328.247,14.611v3.795c0,0.576,0.131,1.305,1.271,1.305c0.558,0,1.08-0.188,1.401-0.658
				c0.249-0.353,0.249-0.811,0.249-1.104v-3.337h1.152v4.794c0,0.117,0.023,0.775,0.035,1.104h-1.163l-0.024-1.011
				c-0.213,0.411-0.617,1.069-1.899,1.069c-1.472,0-2.161-0.834-2.161-1.997v-3.96H328.247z"/>
			<path fill="#09617D" d="M334.369,12.049h1.341v1.21h-1.341V12.049z M334.488,14.611h1.116v5.898h-1.116V14.611z"/>
			<path fill="#09617D" d="M341.905,12.037h1.116v7.531c0,0.13,0.023,0.635,0.047,0.94h-1.116l-0.024-0.94
				c-0.095,0.165-0.226,0.411-0.534,0.623c-0.487,0.329-1.068,0.435-1.472,0.435c-0.795,0-2.564-0.411-2.564-2.996
				c0-2.244,1.294-3.219,2.695-3.219c1.282,0,1.709,0.752,1.852,0.998V12.037z M341.49,15.832c-0.237-0.305-0.676-0.599-1.306-0.599
				c-1.638,0-1.638,1.962-1.638,2.361c0,1.046,0.273,2.256,1.638,2.256c1.757,0,1.757-1.915,1.757-2.373
				C341.941,16.619,341.739,16.15,341.49,15.832z"/>
			<path fill="#09617D" d="M345.7,17.759c-0.023,1.223,0.487,2.127,1.709,2.127c0.724,0,1.306-0.376,1.401-1.222h1.116
				c-0.036,0.294-0.083,0.775-0.511,1.233c-0.261,0.294-0.854,0.787-2.054,0.787c-1.875,0-2.766-1.151-2.766-3.02
				c0-1.163,0.238-2.126,1.175-2.772c0.57-0.399,1.282-0.435,1.626-0.435c2.671,0,2.612,2.338,2.588,3.301H345.7z M348.846,16.984
				c0.012-0.563-0.095-1.738-1.472-1.738c-0.724,0-1.603,0.435-1.626,1.738H348.846z"/>
			<path fill="#09617D" d="M351.644,12.037h1.116v8.472h-1.116V12.037z"/>
			<path fill="#09617D" d="M354.812,12.049h1.341v1.21h-1.341V12.049z M354.931,14.611h1.116v5.898h-1.116V14.611z"/>
			<path fill="#09617D" d="M358.253,15.292l-0.012-0.682h1.116l0.012,0.952c0.13-0.247,0.558-1.069,1.911-1.069
				c0.534,0,2.161,0.199,2.161,2.009v4.007h-1.14v-3.748c0-0.388-0.047-0.74-0.32-1.011c-0.285-0.271-0.677-0.399-1.057-0.399
				c-0.808,0-1.555,0.576-1.555,1.763v3.396h-1.116V15.292z"/>
			<path fill="#09617D" d="M366.144,17.759c-0.023,1.223,0.487,2.127,1.709,2.127c0.724,0,1.306-0.376,1.401-1.222h1.116
				c-0.036,0.294-0.083,0.775-0.511,1.233c-0.261,0.294-0.854,0.787-2.054,0.787c-1.875,0-2.766-1.151-2.766-3.02
				c0-1.163,0.237-2.126,1.175-2.772c0.57-0.399,1.282-0.435,1.626-0.435c2.671,0,2.612,2.338,2.588,3.301H366.144z M369.29,16.984
				c0.012-0.563-0.095-1.738-1.472-1.738c-0.724,0-1.603,0.435-1.626,1.738H369.29z"/>
			<path fill="#09617D" d="M372.705,18.758c-0.012,0.446,0.226,1.069,1.306,1.069c0.463,0,0.807-0.082,1.044-0.376
				c0.119-0.152,0.19-0.353,0.19-0.553c0-0.575-0.416-0.681-1.306-0.881c-1.247-0.282-2.291-0.528-2.291-1.763
				c0-1.08,0.95-1.785,2.327-1.785c0.748,0,1.792,0.211,2.148,0.916c0.154,0.329,0.154,0.611,0.154,0.857h-1.14
				c0.036-0.893-0.748-0.963-1.151-0.963c-0.166,0-1.211,0-1.211,0.846c0,0.541,0.534,0.67,0.843,0.752
				c1.65,0.388,2.006,0.481,2.363,0.811c0.332,0.306,0.451,0.717,0.451,1.093c0,0.658-0.368,1.222-0.807,1.492
				c-0.522,0.317-1.151,0.399-1.769,0.399c-1.211,0-2.339-0.493-2.327-1.915H372.705z"/>
			<path fill="#09617D" d="M377.937,14.552h1.318v1.387h-1.318V14.552z M377.937,19.122h1.318v1.387h-1.318V19.122z"/>
		</g>
		<g clip-path="url(#SVGID_8_)">
			<path fill="#09617D" d="M291.619,32.861c-0.012,0.446,0.226,1.068,1.306,1.068c0.463,0,0.807-0.082,1.044-0.376
				c0.119-0.152,0.19-0.352,0.19-0.552c0-0.576-0.416-0.682-1.306-0.881c-1.247-0.282-2.291-0.529-2.291-1.763
				c0-1.081,0.95-1.786,2.327-1.786c0.748,0,1.792,0.212,2.148,0.917c0.154,0.329,0.154,0.61,0.154,0.857h-1.14
				c0.036-0.893-0.748-0.964-1.151-0.964c-0.166,0-1.211,0-1.211,0.847c0,0.54,0.534,0.669,0.843,0.752
				c1.65,0.388,2.006,0.481,2.363,0.811c0.332,0.306,0.451,0.717,0.451,1.093c0,0.657-0.368,1.222-0.808,1.492
				c-0.522,0.316-1.151,0.399-1.769,0.399c-1.211,0-2.339-0.494-2.327-1.915H291.619z"/>
			<path fill="#09617D" d="M295.997,28.69h1.057v-1.234l1.104-0.353v1.587h1.33V29.5h-1.33v3.536c0,0.294,0,0.787,0.795,0.787
				c0.226,0,0.439-0.035,0.534-0.059v0.857c-0.202,0.035-0.522,0.07-0.926,0.07c-1.021,0-1.508-0.293-1.508-1.257V29.5h-1.057V28.69
				z"/>
			<path fill="#09617D" d="M304.495,34.611c-0.083-0.294-0.107-0.575-0.107-0.881c-0.534,0.976-1.341,1.069-1.84,1.069
				c-1.365,0-2.101-0.764-2.101-1.739c0-0.47,0.166-1.222,1.044-1.727c0.641-0.353,1.591-0.388,2.065-0.388
				c0.285,0,0.463,0.012,0.808,0.035c0-0.729,0-1.046-0.214-1.305c-0.226-0.294-0.712-0.388-1.033-0.388
				c-1.128,0-1.187,0.764-1.199,0.999h-1.116c0.036-0.306,0.071-0.717,0.416-1.116c0.451-0.494,1.294-0.635,1.923-0.635
				c0.867,0,1.793,0.271,2.113,0.869c0.19,0.353,0.202,0.635,0.202,0.905l-0.047,2.819c0,0.095,0.012,0.882,0.095,1.48H304.495z
				 M303.723,31.709c-0.451,0-2.149,0-2.149,1.198c0,0.376,0.238,1.021,1.235,1.021c0.57,0,0.997-0.223,1.27-0.634
				c0.25-0.399,0.261-0.729,0.285-1.551C304.162,31.721,303.996,31.709,303.723,31.709z"/>
			<path fill="#09617D" d="M306.545,28.69h1.057v-1.234l1.104-0.353v1.587h1.33V29.5h-1.33v3.536c0,0.294,0,0.787,0.795,0.787
				c0.226,0,0.439-0.035,0.534-0.059v0.857c-0.202,0.035-0.522,0.07-0.926,0.07c-1.021,0-1.508-0.293-1.508-1.257V29.5h-1.057V28.69
				z"/>
			<path fill="#09617D" d="M311.303,26.152h1.341v1.21h-1.341V26.152z M311.422,28.713h1.116v5.897h-1.116V28.713z"/>
			<path fill="#09617D" d="M314.744,29.394l-0.012-0.681h1.116l0.012,0.951c0.13-0.247,0.558-1.069,1.911-1.069
				c0.534,0,2.161,0.2,2.161,2.01v4.006h-1.14v-3.748c0-0.388-0.047-0.74-0.32-1.01c-0.285-0.271-0.677-0.399-1.057-0.399
				c-0.807,0-1.555,0.575-1.555,1.762v3.396h-1.116V29.394z"/>
			<path fill="#09617D" d="M329.388,26.14h1.116v7.531c0,0.129,0.023,0.634,0.047,0.939h-1.116l-0.023-0.939
				c-0.095,0.164-0.226,0.411-0.534,0.622c-0.487,0.329-1.068,0.436-1.472,0.436c-0.795,0-2.564-0.412-2.564-2.996
				c0-2.244,1.294-3.22,2.694-3.22c1.282,0,1.71,0.752,1.852,0.999V26.14z M328.972,29.935c-0.237-0.306-0.677-0.6-1.306-0.6
				c-1.638,0-1.638,1.962-1.638,2.362c0,1.045,0.273,2.256,1.638,2.256c1.757,0,1.757-1.916,1.757-2.374
				C329.424,30.722,329.222,30.252,328.972,29.935z"/>
			<path fill="#09617D" d="M335.095,28.56c2.386,0,2.92,1.856,2.92,3.09c0,1.728-0.985,3.161-3.015,3.161
				c-1.971,0-2.932-1.352-2.932-3.078C332.067,30.276,332.756,28.56,335.095,28.56z M335.023,33.989c0.843,0,1.804-0.6,1.804-2.374
				c0-1.469-0.688-2.244-1.733-2.244c-0.712,0-1.864,0.447-1.864,2.291C333.231,32.872,333.753,33.989,335.023,33.989z"/>
			<path fill="#09617D" d="M340.397,32.861c-0.012,0.446,0.226,1.068,1.306,1.068c0.463,0,0.807-0.082,1.044-0.376
				c0.119-0.152,0.19-0.352,0.19-0.552c0-0.576-0.416-0.682-1.306-0.881c-1.247-0.282-2.291-0.529-2.291-1.763
				c0-1.081,0.95-1.786,2.327-1.786c0.748,0,1.792,0.212,2.148,0.917c0.154,0.329,0.154,0.61,0.154,0.857h-1.14
				c0.036-0.893-0.748-0.964-1.151-0.964c-0.166,0-1.211,0-1.211,0.847c0,0.54,0.534,0.669,0.843,0.752
				c1.65,0.388,2.006,0.481,2.363,0.811c0.332,0.306,0.451,0.717,0.451,1.093c0,0.657-0.368,1.222-0.808,1.492
				c-0.522,0.316-1.151,0.399-1.769,0.399c-1.211,0-2.339-0.494-2.327-1.915H340.397z"/>
			<path fill="#09617D" d="M346.365,31.862c-0.023,1.222,0.487,2.127,1.709,2.127c0.724,0,1.306-0.376,1.401-1.223h1.116
				c-0.036,0.294-0.083,0.775-0.511,1.234c-0.261,0.293-0.854,0.787-2.054,0.787c-1.875,0-2.766-1.151-2.766-3.02
				c0-1.163,0.238-2.127,1.175-2.773c0.57-0.399,1.282-0.435,1.626-0.435c2.671,0,2.612,2.338,2.588,3.302H346.365z M349.511,31.086
				c0.012-0.564-0.095-1.739-1.472-1.739c-0.724,0-1.603,0.435-1.626,1.739H349.511z"/>
			<path fill="#09617D" d="M352.926,32.861c-0.012,0.446,0.226,1.068,1.306,1.068c0.463,0,0.807-0.082,1.044-0.376
				c0.119-0.152,0.19-0.352,0.19-0.552c0-0.576-0.416-0.682-1.306-0.881c-1.247-0.282-2.291-0.529-2.291-1.763
				c0-1.081,0.95-1.786,2.327-1.786c0.748,0,1.792,0.212,2.148,0.917c0.154,0.329,0.154,0.61,0.154,0.857h-1.14
				c0.036-0.893-0.748-0.964-1.151-0.964c-0.166,0-1.211,0-1.211,0.847c0,0.54,0.534,0.669,0.843,0.752
				c1.65,0.388,2.006,0.481,2.363,0.811c0.332,0.306,0.451,0.717,0.451,1.093c0,0.657-0.368,1.222-0.808,1.492
				c-0.522,0.316-1.151,0.399-1.769,0.399c-1.211,0-2.339-0.494-2.327-1.915H352.926z"/>
		</g>
		<g clip-path="url(#SVGID_8_)">
			<path fill="#09617D" d="M358.165,29.485c-0.007,0.453,0.29,0.774,0.877,0.774c0.67,0,0.954-0.425,0.954-0.843
				c0-0.5-0.339-0.76-0.691-0.836c-0.249-0.048-0.421-0.041-0.664-0.034v-0.555c0.477,0.041,1.279-0.055,1.279-0.822
				c0-0.534-0.366-0.747-0.843-0.747c-0.359,0-0.809,0.158-0.871,0.747h-0.698c0.042-1.178,1.161-1.295,1.548-1.295
				c1.043,0,1.562,0.624,1.562,1.281c0,0.391-0.214,0.952-0.954,1.117c1.023,0.144,1.023,1.055,1.023,1.15
				c0,0.665-0.546,1.398-1.659,1.398c-0.504,0-1.009-0.145-1.313-0.494c-0.27-0.301-0.276-0.644-0.283-0.843H358.165z"/>
		</g>
		<g clip-path="url(#SVGID_8_)">
			<path fill="#09617D" d="M292.162,49.098v3.642h4.072v-3.642h1.187v8.482h-1.187v-3.83h-4.072v3.83h-1.188v-8.482H292.162z"/>
			<path fill="#09617D" d="M299.434,49.121h1.341v1.21h-1.341V49.121z M299.553,51.683h1.116v5.897h-1.116V51.683z"/>
			<path fill="#09617D" d="M303.908,58.038c0.047,0.658,0.332,1.152,1.389,1.152c1.555,0,1.579-1.116,1.579-2.715
				c-0.475,0.976-1.603,0.999-1.959,0.999c-0.546,0-1.33-0.117-1.828-0.729c-0.51-0.6-0.677-1.387-0.677-2.174
				c0-1.997,1.188-2.973,2.647-2.973c1.199,0,1.638,0.588,1.875,0.894l0.012-0.811h1.08l-0.024,1.068l-0.012,3.689
				c0,1.422-0.047,1.998-0.285,2.444c-0.499,0.939-1.662,1.058-2.481,1.058c-2.386,0-2.457-1.104-2.505-1.904H303.908z
				 M306.508,56.065c0.237-0.306,0.404-0.622,0.404-1.691c0-0.74-0.167-1.163-0.463-1.469c-0.296-0.317-0.771-0.518-1.282-0.518
				c-1.413,0-1.603,1.41-1.603,2.162c0,0.905,0.273,2.104,1.638,2.104C305.855,56.653,306.235,56.417,306.508,56.065z"/>
			<path fill="#09617D" d="M310.089,49.11h1.128v3.442c0.368-0.623,1.104-0.976,1.935-0.976c0.629,0,1.531,0.224,1.875,0.94
				c0.119,0.234,0.202,0.517,0.202,1.374v3.689h-1.14v-3.489c0-0.528,0-1.668-1.282-1.668c-0.831,0-1.247,0.505-1.401,0.787
				c-0.19,0.329-0.19,0.881-0.19,1.245v3.125h-1.128V49.11z"/>
			<path fill="#09617D" d="M320.531,49.121h1.341v1.21h-1.341V49.121z M320.649,51.683h1.116v5.897h-1.116V51.683z"/>
			<path fill="#09617D" d="M323.971,52.364l-0.012-0.681h1.116l0.012,0.951c0.13-0.247,0.558-1.069,1.911-1.069
				c0.534,0,2.161,0.2,2.161,2.01v4.006h-1.14v-3.748c0-0.388-0.047-0.74-0.32-1.01c-0.285-0.271-0.677-0.399-1.057-0.399
				c-0.808,0-1.555,0.575-1.555,1.762v3.396h-1.116V52.364z"/>
			<path fill="#09617D" d="M330.271,51.66h1.057v-1.234l1.104-0.353v1.587h1.33v0.811h-1.33v3.536c0,0.294,0,0.787,0.795,0.787
				c0.226,0,0.439-0.035,0.534-0.059v0.857c-0.202,0.035-0.522,0.07-0.926,0.07c-1.021,0-1.508-0.293-1.508-1.257V52.47h-1.057
				V51.66z"/>
			<path fill="#09617D" d="M335.813,54.831c-0.023,1.222,0.487,2.127,1.709,2.127c0.724,0,1.306-0.376,1.401-1.223h1.116
				c-0.036,0.294-0.083,0.775-0.511,1.234c-0.261,0.293-0.854,0.787-2.054,0.787c-1.875,0-2.766-1.151-2.766-3.02
				c0-1.163,0.237-2.127,1.175-2.773c0.57-0.399,1.282-0.435,1.626-0.435c2.671,0,2.612,2.338,2.588,3.302H335.813z M338.959,54.056
				c0.012-0.564-0.095-1.739-1.472-1.739c-0.724,0-1.603,0.435-1.626,1.739H338.959z"/>
			<path fill="#09617D" d="M341.769,52.364l-0.012-0.681h1.116l0.012,0.951c0.13-0.247,0.558-1.069,1.911-1.069
				c0.534,0,2.161,0.2,2.161,2.01v4.006h-1.14v-3.748c0-0.388-0.047-0.74-0.32-1.01c-0.285-0.271-0.677-0.399-1.057-0.399
				c-0.808,0-1.555,0.575-1.555,1.762v3.396h-1.116V52.364z"/>
			<path fill="#09617D" d="M349.624,55.83c-0.012,0.446,0.226,1.068,1.306,1.068c0.463,0,0.807-0.082,1.044-0.376
				c0.119-0.152,0.19-0.352,0.19-0.552c0-0.576-0.416-0.682-1.306-0.881c-1.247-0.282-2.291-0.529-2.291-1.763
				c0-1.081,0.95-1.786,2.327-1.786c0.748,0,1.792,0.212,2.148,0.917c0.154,0.329,0.154,0.61,0.154,0.857h-1.14
				c0.036-0.893-0.748-0.964-1.151-0.964c-0.166,0-1.211,0-1.211,0.847c0,0.54,0.534,0.669,0.843,0.752
				c1.65,0.388,2.006,0.481,2.363,0.811c0.332,0.306,0.451,0.717,0.451,1.093c0,0.657-0.368,1.222-0.807,1.492
				c-0.522,0.316-1.151,0.399-1.769,0.399c-1.211,0-2.339-0.494-2.327-1.915H349.624z"/>
			<path fill="#09617D" d="M354.809,49.121h1.341v1.21h-1.341V49.121z M354.928,51.683h1.116v5.897h-1.116V51.683z"/>
			<path fill="#09617D" d="M357.3,51.66h1.057v-1.234l1.104-0.353v1.587h1.33v0.811h-1.33v3.536c0,0.294,0,0.787,0.795,0.787
				c0.226,0,0.439-0.035,0.534-0.059v0.857c-0.202,0.035-0.522,0.07-0.926,0.07c-1.021,0-1.508-0.293-1.508-1.257V52.47H357.3V51.66
				z"/>
			<path fill="#09617D" d="M364.848,57.616l-0.854,2.197h-1.152l0.902-2.256l-2.481-5.874h1.258l1.864,4.652l1.899-4.652h1.211
				L364.848,57.616z"/>
		</g>
		<g clip-path="url(#SVGID_8_)">
			<path fill="#09617D" d="M290.998,78.957h2.101l2.422,6.99l2.481-6.99h1.958v8.482h-1.164v-7.637l-2.813,7.637h-1.127l-2.707-7.59
				v7.59h-1.151V78.957z"/>
			<path fill="#09617D" d="M304.763,81.389c2.386,0,2.92,1.856,2.92,3.09c0,1.728-0.985,3.161-3.015,3.161
				c-1.971,0-2.932-1.352-2.932-3.078C301.736,83.105,302.425,81.389,304.763,81.389z M304.692,86.818
				c0.843,0,1.804-0.6,1.804-2.374c0-1.469-0.688-2.244-1.733-2.244c-0.712,0-1.864,0.447-1.864,2.291
				C302.9,85.701,303.422,86.818,304.692,86.818z"/>
			<path fill="#09617D" d="M313.556,78.969h1.116V86.5c0,0.129,0.023,0.634,0.047,0.939h-1.116L313.58,86.5
				c-0.095,0.164-0.226,0.411-0.534,0.622c-0.487,0.329-1.068,0.436-1.472,0.436c-0.795,0-2.564-0.412-2.564-2.996
				c0-2.244,1.294-3.22,2.694-3.22c1.282,0,1.71,0.752,1.852,0.999V78.969z M313.14,82.764c-0.237-0.306-0.677-0.6-1.306-0.6
				c-1.638,0-1.638,1.962-1.638,2.362c0,1.045,0.273,2.256,1.638,2.256c1.757,0,1.757-1.916,1.757-2.374
				C313.592,83.551,313.39,83.081,313.14,82.764z"/>
			<path fill="#09617D" d="M317.351,84.691c-0.023,1.222,0.487,2.127,1.709,2.127c0.724,0,1.306-0.376,1.401-1.223h1.116
				c-0.036,0.294-0.083,0.775-0.511,1.234c-0.261,0.293-0.854,0.787-2.054,0.787c-1.875,0-2.766-1.151-2.766-3.02
				c0-1.163,0.237-2.127,1.175-2.773c0.57-0.399,1.282-0.435,1.626-0.435c2.671,0,2.612,2.338,2.588,3.302H317.351z M320.497,83.915
				c0.012-0.564-0.095-1.739-1.472-1.739c-0.724,0-1.603,0.435-1.626,1.739H320.497z"/>
			<path fill="#09617D" d="M323.33,82.741c0-0.399-0.024-0.811-0.059-1.198h1.127l0.024,1.14c0.213-0.823,0.926-1.093,1.424-1.163
				c0.333-0.048,0.582-0.036,0.772-0.024v1.081c-0.06-0.023-0.131-0.035-0.214-0.047s-0.19-0.012-0.32-0.012
				c-1.318,0-1.626,0.775-1.626,1.786v3.137h-1.128V82.741z"/>
			<path fill="#09617D" d="M331.519,87.44c-0.083-0.294-0.107-0.575-0.107-0.881c-0.534,0.976-1.341,1.069-1.84,1.069
				c-1.365,0-2.101-0.764-2.101-1.739c0-0.47,0.166-1.222,1.044-1.727c0.641-0.353,1.591-0.388,2.065-0.388
				c0.285,0,0.463,0.012,0.808,0.035c0-0.729,0-1.046-0.214-1.305c-0.226-0.294-0.712-0.388-1.033-0.388
				c-1.128,0-1.187,0.764-1.199,0.999h-1.116c0.036-0.306,0.071-0.717,0.416-1.116c0.451-0.494,1.294-0.635,1.923-0.635
				c0.867,0,1.793,0.271,2.113,0.869c0.19,0.353,0.202,0.635,0.202,0.905l-0.047,2.819c0,0.095,0.012,0.882,0.095,1.48H331.519z
				 M330.748,84.538c-0.451,0-2.149,0-2.149,1.198c0,0.376,0.238,1.021,1.235,1.021c0.57,0,0.997-0.223,1.27-0.634
				c0.25-0.399,0.261-0.729,0.285-1.551C331.187,84.55,331.021,84.538,330.748,84.538z"/>
			<path fill="#09617D" d="M333.57,81.519h1.057v-1.234l1.104-0.353v1.587h1.33v0.811h-1.33v3.536c0,0.294,0,0.787,0.795,0.787
				c0.226,0,0.439-0.035,0.534-0.059v0.857c-0.202,0.035-0.522,0.07-0.926,0.07c-1.021,0-1.508-0.293-1.508-1.257v-3.936h-1.057
				V81.519z"/>
			<path fill="#09617D" d="M339.111,84.691c-0.023,1.222,0.487,2.127,1.709,2.127c0.724,0,1.306-0.376,1.401-1.223h1.116
				c-0.036,0.294-0.083,0.775-0.511,1.234c-0.261,0.293-0.854,0.787-2.054,0.787c-1.875,0-2.766-1.151-2.766-3.02
				c0-1.163,0.238-2.127,1.175-2.773c0.57-0.399,1.282-0.435,1.626-0.435c2.671,0,2.612,2.338,2.588,3.302H339.111z M342.257,83.915
				c0.012-0.564-0.095-1.739-1.472-1.739c-0.724,0-1.603,0.435-1.626,1.739H342.257z"/>
			<path fill="#09617D" d="M348.223,78.981h1.341v1.21h-1.341V78.981z M348.342,81.542h1.116v5.897h-1.116V81.542z"/>
			<path fill="#09617D" d="M351.664,82.223l-0.012-0.681h1.116l0.012,0.951c0.13-0.247,0.558-1.069,1.911-1.069
				c0.534,0,2.161,0.2,2.161,2.01v4.006h-1.14v-3.748c0-0.388-0.047-0.74-0.32-1.01c-0.285-0.271-0.677-0.399-1.057-0.399
				c-0.808,0-1.555,0.575-1.555,1.762v3.396h-1.116V82.223z"/>
			<path fill="#09617D" d="M357.964,81.519h1.057v-1.234l1.104-0.353v1.587h1.33v0.811h-1.33v3.536c0,0.294,0,0.787,0.795,0.787
				c0.226,0,0.439-0.035,0.534-0.059v0.857c-0.202,0.035-0.522,0.07-0.926,0.07c-1.021,0-1.508-0.293-1.508-1.257v-3.936h-1.057
				V81.519z"/>
			<path fill="#09617D" d="M363.506,84.691c-0.023,1.222,0.487,2.127,1.709,2.127c0.724,0,1.306-0.376,1.401-1.223h1.116
				c-0.036,0.294-0.083,0.775-0.511,1.234c-0.261,0.293-0.854,0.787-2.054,0.787c-1.875,0-2.766-1.151-2.766-3.02
				c0-1.163,0.238-2.127,1.175-2.773c0.57-0.399,1.282-0.435,1.626-0.435c2.671,0,2.612,2.338,2.588,3.302H363.506z M366.652,83.915
				c0.012-0.564-0.095-1.739-1.472-1.739c-0.724,0-1.603,0.435-1.626,1.739H366.652z"/>
			<path fill="#09617D" d="M369.462,82.223l-0.012-0.681h1.116l0.012,0.951c0.13-0.247,0.558-1.069,1.911-1.069
				c0.534,0,2.161,0.2,2.161,2.01v4.006h-1.14v-3.748c0-0.388-0.047-0.74-0.32-1.01c-0.285-0.271-0.677-0.399-1.057-0.399
				c-0.807,0-1.555,0.575-1.555,1.762v3.396h-1.116V82.223z"/>
			<path fill="#09617D" d="M377.317,85.69c-0.012,0.446,0.226,1.068,1.306,1.068c0.463,0,0.807-0.082,1.044-0.376
				c0.119-0.152,0.19-0.352,0.19-0.552c0-0.576-0.416-0.682-1.306-0.881c-1.247-0.282-2.291-0.529-2.291-1.763
				c0-1.081,0.95-1.786,2.327-1.786c0.748,0,1.792,0.212,2.148,0.917c0.154,0.329,0.154,0.61,0.154,0.857h-1.14
				c0.036-0.893-0.748-0.964-1.151-0.964c-0.166,0-1.211,0-1.211,0.847c0,0.54,0.534,0.669,0.843,0.752
				c1.65,0.388,2.006,0.481,2.363,0.811c0.332,0.306,0.451,0.717,0.451,1.093c0,0.657-0.368,1.222-0.808,1.492
				c-0.522,0.316-1.151,0.399-1.769,0.399c-1.211,0-2.339-0.494-2.327-1.915H377.317z"/>
			<path fill="#09617D" d="M382.502,78.981h1.341v1.21h-1.341V78.981z M382.62,81.542h1.116v5.897h-1.116V81.542z"/>
			<path fill="#09617D" d="M384.992,81.519h1.057v-1.234l1.104-0.353v1.587h1.33v0.811h-1.33v3.536c0,0.294,0,0.787,0.795,0.787
				c0.226,0,0.439-0.035,0.534-0.059v0.857c-0.202,0.035-0.522,0.07-0.926,0.07c-1.021,0-1.508-0.293-1.508-1.257v-3.936h-1.057
				V81.519z"/>
			<path fill="#09617D" d="M392.541,87.475l-0.854,2.197h-1.152l0.902-2.256l-2.481-5.874h1.258l1.864,4.652l1.899-4.652h1.211
				L392.541,87.475z"/>
		</g>
		<path clip-path="url(#SVGID_8_)" fill="none" stroke="#08586B" stroke-width="0.8385" stroke-miterlimit="10" d="M392.542,7.835
			H220.163h-31.062H16.721c-6.412,0-11.609,6.407-11.609,14.311V87.78c0,7.904,5.197,14.313,11.609,14.313h172.381h31.062h172.379
			c6.411,0,11.609-6.408,11.609-14.313V22.146C404.152,14.242,398.953,7.835,392.542,7.835z"/>
	</g>
	
		<line fill="none" stroke="#08586B" stroke-width="0.8385" stroke-miterlimit="10" x1="5.111" y1="38.259" x2="404.151" y2="38.259"/>
	
		<line fill="none" stroke="#08586B" stroke-width="0.8385" stroke-miterlimit="10" x1="5.111" y1="68.591" x2="404.151" y2="68.591"/>
	
		<line fill="none" stroke="#08586B" stroke-width="0.8385" stroke-miterlimit="10" x1="103.779" y1="7.835" x2="103.779" y2="101.093"/>
	
		<line fill="none" stroke="#08586B" stroke-width="0.8385" stroke-miterlimit="10" x1="280.886" y1="7.835" x2="280.886" y2="101.093"/>
	<g>
		<path fill="#003B47" d="M278.939,110.467h1.004l2.74,6.775h-1.023l-0.732-1.764h-3.144l-0.732,1.764h-0.967L278.939,110.467z
			 M278.086,114.718h2.562l-1.248-3.321L278.086,114.718z"/>
		<path fill="#003B47" d="M286.872,110.477h0.882v6.016c0,0.103,0.019,0.506,0.038,0.75h-0.882l-0.019-0.75
			c-0.075,0.131-0.178,0.328-0.422,0.497c-0.385,0.263-0.845,0.347-1.164,0.347c-0.629,0-2.027-0.328-2.027-2.393
			c0-1.792,1.022-2.571,2.13-2.571c1.014,0,1.352,0.601,1.464,0.798V110.477z M286.544,113.508
			c-0.188-0.244-0.535-0.479-1.032-0.479c-1.295,0-1.295,1.566-1.295,1.886c0,0.835,0.216,1.802,1.295,1.802
			c1.389,0,1.389-1.529,1.389-1.896C286.9,114.137,286.741,113.761,286.544,113.508z"/>
		<path fill="#003B47" d="M292.214,117.243c-0.065-0.234-0.084-0.46-0.084-0.703c-0.422,0.778-1.06,0.854-1.455,0.854
			c-1.079,0-1.661-0.61-1.661-1.389c0-0.376,0.131-0.977,0.826-1.38c0.507-0.281,1.257-0.31,1.633-0.31
			c0.225,0,0.366,0.01,0.638,0.028c0-0.582,0-0.835-0.169-1.042c-0.178-0.234-0.563-0.31-0.816-0.31
			c-0.892,0-0.938,0.61-0.948,0.798h-0.882c0.028-0.244,0.056-0.572,0.329-0.892c0.356-0.394,1.023-0.507,1.52-0.507
			c0.685,0,1.417,0.216,1.67,0.694c0.15,0.282,0.16,0.507,0.16,0.723l-0.038,2.252c0,0.075,0.009,0.704,0.075,1.183H292.214z
			 M291.604,114.925c-0.356,0-1.699,0-1.699,0.957c0,0.3,0.188,0.816,0.976,0.816c0.451,0,0.789-0.179,1.004-0.507
			c0.197-0.319,0.206-0.582,0.225-1.238C291.951,114.934,291.82,114.925,291.604,114.925z"/>
		<path fill="#003B47" d="M294.534,113.301c0-0.206-0.01-0.318-0.028-0.77h0.892l0.019,0.779c0.441-0.741,1.22-0.854,1.605-0.854
			c1.013,0,1.98,0.695,1.98,2.44c0,1.755-1.023,2.524-2.149,2.524c-0.685,0-1.192-0.291-1.445-0.704v2.337h-0.873V113.301z
			 M296.702,116.774c0.225,0,0.694-0.047,0.995-0.46c0.338-0.46,0.385-1.136,0.385-1.474c0-0.845-0.253-1.727-1.295-1.727
			c-1.408,0-1.408,1.492-1.408,1.914C295.379,115.601,295.463,116.774,296.702,116.774z"/>
		<path fill="#003B47" d="M299.575,112.513h0.835v-0.985l0.873-0.281v1.267h1.051v0.647h-1.051v2.825c0,0.234,0,0.628,0.629,0.628
			c0.178,0,0.347-0.027,0.422-0.047v0.686c-0.16,0.028-0.413,0.057-0.732,0.057c-0.807,0-1.192-0.235-1.192-1.005v-3.144h-0.835
			V112.513z"/>
		<path fill="#003B47" d="M303.96,115.047c-0.019,0.976,0.385,1.698,1.351,1.698c0.573,0,1.032-0.301,1.107-0.976h0.882
			c-0.028,0.234-0.066,0.619-0.404,0.985c-0.207,0.234-0.676,0.628-1.624,0.628c-1.482,0-2.187-0.919-2.187-2.411
			c0-0.93,0.188-1.699,0.929-2.215c0.451-0.319,1.014-0.348,1.286-0.348c2.111,0,2.064,1.868,2.046,2.638H303.96z M306.447,114.427
			c0.009-0.45-0.075-1.389-1.164-1.389c-0.573,0-1.267,0.348-1.286,1.389H306.447z"/>
		<path fill="#003B47" d="M311.91,110.477h0.882v6.016c0,0.103,0.019,0.506,0.038,0.75h-0.882l-0.019-0.75
			c-0.075,0.131-0.178,0.328-0.422,0.497c-0.385,0.263-0.845,0.347-1.164,0.347c-0.629,0-2.027-0.328-2.027-2.393
			c0-1.792,1.022-2.571,2.13-2.571c1.014,0,1.352,0.601,1.464,0.798V110.477z M311.582,113.508
			c-0.188-0.244-0.535-0.479-1.032-0.479c-1.295,0-1.295,1.566-1.295,1.886c0,0.835,0.216,1.802,1.295,1.802
			c1.389,0,1.389-1.529,1.389-1.896C311.938,114.137,311.779,113.761,311.582,113.508z"/>
		<path fill="#003B47" d="M319.346,111.124c-0.15-0.01-0.338-0.019-0.516-0.019c-0.713,0-0.713,0.356-0.713,0.685v0.741h1.098v0.639
			h-1.098v4.072h-0.873v-4.072h-0.929v-0.639h0.929v-0.534c0-0.647,0.038-0.883,0.197-1.127c0.197-0.3,0.572-0.516,1.182-0.516
			c0.253,0,0.535,0.037,0.723,0.065V111.124z"/>
		<path fill="#003B47" d="M320.163,113.49c0-0.319-0.019-0.648-0.047-0.958h0.892l0.019,0.91c0.169-0.656,0.732-0.872,1.126-0.929
			c0.263-0.037,0.459-0.028,0.61-0.019v0.863c-0.047-0.019-0.103-0.028-0.169-0.037c-0.066-0.01-0.15-0.01-0.253-0.01
			c-1.042,0-1.286,0.619-1.286,1.427v2.505h-0.892V113.49z"/>
		<path fill="#003B47" d="M325.814,112.41c1.886,0,2.309,1.483,2.309,2.469c0,1.379-0.779,2.524-2.384,2.524
			c-1.558,0-2.318-1.079-2.318-2.459C323.421,113.78,323.966,112.41,325.814,112.41z M325.758,116.745
			c0.666,0,1.426-0.479,1.426-1.896c0-1.173-0.544-1.793-1.37-1.793c-0.563,0-1.473,0.357-1.473,1.83
			C324.341,115.854,324.754,116.745,325.758,116.745z"/>
		<path fill="#003B47" d="M329.495,113.16l-0.019-0.629h0.891v0.686c0.451-0.741,1.089-0.808,1.492-0.808
			c1.042,0,1.37,0.535,1.539,0.883c0.16-0.263,0.544-0.883,1.586-0.883c0.676,0,1.727,0.282,1.727,1.671v3.162h-0.892v-3.021
			c0-0.413-0.075-0.591-0.159-0.713c-0.15-0.216-0.451-0.413-0.901-0.413c-0.573,0-0.882,0.328-1.004,0.497
			c-0.206,0.291-0.206,0.808-0.206,1.014v2.637h-0.892v-3.115c0-0.582-0.338-1.032-1.032-1.032c-0.601,0-0.929,0.375-1.032,0.516
			c-0.197,0.272-0.207,0.657-0.207,0.958v2.674h-0.892V113.16z"/>
		<path fill="#003B47" d="M341.024,113.49c0-0.319-0.019-0.648-0.047-0.958h0.892l0.019,0.91c0.169-0.656,0.732-0.872,1.126-0.929
			c0.263-0.037,0.459-0.028,0.61-0.019v0.863c-0.047-0.019-0.103-0.028-0.169-0.037c-0.066-0.01-0.15-0.01-0.253-0.01
			c-1.042,0-1.286,0.619-1.286,1.427v2.505h-0.892V113.49z"/>
		<path fill="#003B47" d="M345.164,115.047c-0.019,0.976,0.385,1.698,1.351,1.698c0.573,0,1.032-0.301,1.107-0.976h0.882
			c-0.028,0.234-0.066,0.619-0.404,0.985c-0.207,0.234-0.676,0.628-1.624,0.628c-1.482,0-2.187-0.919-2.187-2.411
			c0-0.93,0.188-1.699,0.929-2.215c0.451-0.319,1.014-0.348,1.286-0.348c2.111,0,2.064,1.868,2.046,2.638H345.164z M347.651,114.427
			c0.009-0.45-0.075-1.389-1.164-1.389c-0.573,0-1.267,0.348-1.286,1.389H347.651z"/>
		<path fill="#003B47" d="M352.204,111.124c-0.15-0.01-0.338-0.019-0.516-0.019c-0.713,0-0.713,0.356-0.713,0.685v0.741h1.098v0.639
			h-1.098v4.072h-0.873v-4.072h-0.929v-0.639h0.929v-0.534c0-0.647,0.038-0.883,0.197-1.127c0.197-0.3,0.572-0.516,1.182-0.516
			c0.253,0,0.535,0.037,0.723,0.065V111.124z"/>
		<path fill="#003B47" d="M353.51,115.047c-0.019,0.976,0.385,1.698,1.351,1.698c0.573,0,1.032-0.301,1.107-0.976h0.882
			c-0.028,0.234-0.066,0.619-0.404,0.985c-0.207,0.234-0.676,0.628-1.624,0.628c-1.482,0-2.187-0.919-2.187-2.411
			c0-0.93,0.188-1.699,0.929-2.215c0.451-0.319,1.014-0.348,1.286-0.348c2.111,0,2.064,1.868,2.046,2.638H353.51z M355.997,114.427
			c0.009-0.45-0.075-1.389-1.164-1.389c-0.573,0-1.267,0.348-1.286,1.389H355.997z"/>
		<path fill="#003B47" d="M358.241,113.49c0-0.319-0.019-0.648-0.047-0.958h0.892l0.019,0.91c0.169-0.656,0.732-0.872,1.126-0.929
			c0.263-0.037,0.459-0.028,0.61-0.019v0.863c-0.047-0.019-0.103-0.028-0.169-0.037c-0.066-0.01-0.15-0.01-0.253-0.01
			c-1.042,0-1.286,0.619-1.286,1.427v2.505h-0.892V113.49z"/>
		<path fill="#003B47" d="M362.382,115.047c-0.019,0.976,0.385,1.698,1.351,1.698c0.573,0,1.032-0.301,1.107-0.976h0.882
			c-0.028,0.234-0.066,0.619-0.404,0.985c-0.207,0.234-0.676,0.628-1.624,0.628c-1.482,0-2.187-0.919-2.187-2.411
			c0-0.93,0.188-1.699,0.929-2.215c0.451-0.319,1.014-0.348,1.286-0.348c2.111,0,2.064,1.868,2.046,2.638H362.382z M364.869,114.427
			c0.009-0.45-0.075-1.389-1.164-1.389c-0.573,0-1.267,0.348-1.286,1.389H364.869z"/>
		<path fill="#003B47" d="M367.095,113.076l-0.009-0.545h0.882l0.009,0.761c0.104-0.197,0.441-0.854,1.511-0.854
			c0.422,0,1.708,0.16,1.708,1.604v3.2h-0.901v-2.993c0-0.31-0.037-0.592-0.253-0.808c-0.226-0.216-0.535-0.318-0.835-0.318
			c-0.638,0-1.229,0.46-1.229,1.407v2.712h-0.882V113.076z"/>
		<path fill="#003B47" d="M375.487,114.042c-0.019-0.216-0.084-0.985-0.938-0.985c-1.22,0-1.22,1.417-1.22,1.774
			c0,0.966,0.235,1.867,1.173,1.867c0.75,0,1.004-0.563,1.023-1.023h0.891c-0.056,0.92-0.741,1.689-1.905,1.689
			c-0.319,0-1.051-0.065-1.548-0.609c-0.282-0.329-0.563-0.826-0.563-1.802c0-1.962,1.201-2.544,2.14-2.544
			c0.31,0,1.013,0.066,1.445,0.582c0.347,0.403,0.375,0.788,0.395,1.051H375.487z"/>
		<path fill="#003B47" d="M378.032,115.047c-0.019,0.976,0.385,1.698,1.351,1.698c0.573,0,1.032-0.301,1.107-0.976h0.882
			c-0.028,0.234-0.066,0.619-0.404,0.985c-0.207,0.234-0.676,0.628-1.624,0.628c-1.482,0-2.187-0.919-2.187-2.411
			c0-0.93,0.188-1.699,0.929-2.215c0.451-0.319,1.014-0.348,1.286-0.348c2.111,0,2.064,1.868,2.046,2.638H378.032z M380.519,114.427
			c0.009-0.45-0.075-1.389-1.164-1.389c-0.573,0-1.267,0.348-1.286,1.389H380.519z"/>
		<path fill="#003B47" d="M385.852,115.573c-0.01,0.619,0.394,1.061,1.191,1.061c0.91,0,1.295-0.582,1.295-1.154
			c0-0.686-0.459-1.042-0.938-1.146c-0.338-0.065-0.573-0.056-0.901-0.047v-0.76c0.647,0.057,1.736-0.075,1.736-1.126
			c0-0.732-0.498-1.023-1.145-1.023c-0.488,0-1.098,0.216-1.182,1.023h-0.948c0.056-1.614,1.576-1.773,2.102-1.773
			c1.417,0,2.121,0.854,2.121,1.755c0,0.534-0.291,1.304-1.295,1.529c1.389,0.197,1.389,1.445,1.389,1.576
			c0,0.91-0.741,1.915-2.252,1.915c-0.685,0-1.37-0.197-1.783-0.676c-0.366-0.413-0.375-0.883-0.385-1.154H385.852z"/>
	</g>
</g>
</svg>
