<?xml version="1.0" encoding="utf-8"?>
<!-- Generator: Adobe Illustrator 17.0.0, SVG Export Plug-In . SVG Version: 6.00 Build 0)  -->
<!DOCTYPE svg PUBLIC "-//W3C//DTD SVG 1.1//EN" "http://www.w3.org/Graphics/SVG/1.1/DTD/svg11.dtd">
<svg version="1.1" id="Layer_1" xmlns="http://www.w3.org/2000/svg" xmlns:xlink="http://www.w3.org/1999/xlink" x="0px" y="0px"
	 width="187.933px" height="113.187px" viewBox="0 0 187.933 113.187" enable-background="new 0 0 187.933 113.187"
	 xml:space="preserve">
<g>
	<path fill="#002D3D" d="M0.578,0.017h7.921v1.972H3.213v3.025h4.93v2.04h-4.93v5.235H0.578V0.017z"/>
	<path fill="#002D3D" d="M15.112,12.289c-0.085-0.526-0.085-0.918-0.085-1.173c-0.951,1.377-2.091,1.377-2.566,1.377
		c-1.241,0-1.802-0.356-2.142-0.68c-0.51-0.51-0.748-1.207-0.748-1.887s0.238-1.938,1.819-2.669
		c1.054-0.476,2.566-0.476,3.399-0.476c0-0.562-0.018-0.833-0.119-1.14c-0.221-0.629-0.884-0.714-1.122-0.714
		c-0.356,0-0.73,0.153-0.952,0.477C12.41,5.694,12.41,5.966,12.41,6.17H9.945c0.017-0.459,0.068-1.377,0.969-2.022
		c0.782-0.562,1.785-0.697,2.601-0.697c0.714,0,2.21,0.119,3.06,1.104c0.578,0.697,0.596,1.717,0.596,2.108l0.017,3.45
		c0,0.731,0.051,1.462,0.204,2.176H15.112z M12.02,9.638c0,0.578,0.391,1.224,1.224,1.224c0.459,0,0.833-0.221,1.07-0.493
		c0.442-0.544,0.477-1.207,0.477-2.124C13.175,8.107,12.02,8.617,12.02,9.638z"/>
	<path fill="#002D3D" d="M24.463,12.17c-0.815,0.222-1.547,0.272-1.955,0.272c-2.532,0-2.532-1.598-2.532-2.312V5.422h-1.649V3.756
		h1.649V2.073l2.499-0.918v2.601h2.039v1.666h-2.039v3.876c0.017,0.781,0.017,1.274,1.139,1.274c0.374,0,0.544-0.017,0.85-0.051
		V12.17z"/>
	<path fill="#002D3D" d="M26.078,5.32c0-0.544-0.034-1.071-0.085-1.615h2.431l0.085,1.104c0.271-0.373,0.935-1.291,2.651-1.291
		c1.972,0,2.533,1.206,2.703,1.614c0.714-1.377,1.869-1.598,2.753-1.598c1.734,0,2.432,1.037,2.618,1.377
		c0.459,0.748,0.425,1.785,0.425,2.532v4.845h-2.532V7.241c0-0.918-0.137-1.938-1.445-1.938c-1.513,0-1.547,1.411-1.547,2.686v4.301
		h-2.532v-5.1c0-0.662-0.018-1.887-1.411-1.887c-1.581,0-1.581,1.36-1.581,1.938v5.048h-2.532V5.32z"/>
	<path fill="#002D3D" d="M47.226,12.289c-0.086-0.526-0.086-0.918-0.086-1.173c-0.951,1.377-2.09,1.377-2.566,1.377
		c-1.241,0-1.802-0.356-2.142-0.68c-0.51-0.51-0.748-1.207-0.748-1.887s0.238-1.938,1.819-2.669
		c1.054-0.476,2.566-0.476,3.399-0.476c0-0.562-0.018-0.833-0.119-1.14c-0.221-0.629-0.884-0.714-1.122-0.714
		c-0.356,0-0.73,0.153-0.952,0.477c-0.187,0.289-0.187,0.561-0.187,0.765h-2.465c0.017-0.459,0.068-1.377,0.969-2.022
		c0.782-0.562,1.785-0.697,2.601-0.697c0.714,0,2.21,0.119,3.06,1.104c0.578,0.697,0.596,1.717,0.596,2.108l0.017,3.45
		c0,0.731,0.051,1.462,0.204,2.176H47.226z M44.132,9.638c0,0.578,0.391,1.224,1.224,1.224c0.459,0,0.833-0.221,1.07-0.493
		c0.442-0.544,0.477-1.207,0.477-2.124C45.287,8.107,44.132,8.617,44.132,9.638z"/>
	<path fill="#002D3D" d="M54.672,10.028l-2.023,4.182h-1.751l1.258-4.182H54.672z"/>
	<path fill="#002D3D" d="M62.832,9.06c0.017,0.374,0.119,1.581,1.529,1.581c0.952,0,1.53-0.697,1.53-1.615
		c0-1.751-1.683-1.751-2.924-1.751V5.286c1.189-0.034,2.94-0.068,2.94-1.768c0-0.936-0.696-1.411-1.462-1.411
		c-0.73,0-1.444,0.493-1.444,1.479h-2.601c0.051-0.526,0.102-1.274,0.696-2.006c0.782-0.951,2.04-1.309,3.298-1.309
		c3.025,0,3.995,1.938,3.995,3.229c0,1.989-1.751,2.533-2.278,2.686c0.374,0.119,0.867,0.272,1.411,0.731
		c0.833,0.697,0.969,1.563,0.969,2.125c0,2.006-1.836,3.501-4.301,3.501c-0.85,0-2.091-0.187-2.855-0.799
		c-1.054-0.866-1.088-2.21-1.088-2.686H62.832z"/>
	<path fill="#002D3D" d="M69.751,9.893l3.077-2.805c0.544-0.493,1.155-1.037,1.784-1.802c0.663-0.799,0.816-1.173,0.816-1.717
		c0-0.901-0.527-1.513-1.411-1.513c-1.359,0-1.479,1.394-1.496,1.733h-2.601c0-0.476,0-1.359,0.697-2.227
		c0.68-0.85,1.938-1.292,3.383-1.292c2.583,0,4.012,1.394,4.012,3.229c0,1.224-0.477,2.805-5.609,6.936
		c1.717-0.034,1.92-0.051,3.264-0.068c1.818-0.033,2.022-0.033,2.413-0.051v1.972h-8.329V9.893z"/>
	<path fill="#002D3D" d="M86.462,3.705l1.887,5.949l1.921-5.949h2.498l-3.246,8.432l-1.037,3.416h-2.532l1.088-3.229l-3.298-8.618
		H86.462z"/>
	<path fill="#002D3D" d="M96.084,8.635c0,0.561,0,2.295,1.751,2.295c0.629,0,1.258-0.238,1.495-1.19h2.295
		c-0.034,0.408-0.119,1.14-0.815,1.87c-0.629,0.663-1.751,1.003-3.009,1.003c-0.731,0-2.125-0.136-3.026-1.071
		c-0.781-0.815-1.104-1.972-1.104-3.349c0-1.394,0.34-3.06,1.785-4.063c0.663-0.441,1.479-0.714,2.413-0.714
		c1.225,0,2.687,0.477,3.468,2.074c0.578,1.173,0.544,2.431,0.51,3.145H96.084z M99.279,7.054c0-0.391-0.034-1.921-1.496-1.921
		c-1.104,0-1.563,0.918-1.614,1.921H99.279z"/>
	<path fill="#002D3D" d="M108.663,12.289c-0.085-0.526-0.085-0.918-0.085-1.173c-0.951,1.377-2.091,1.377-2.566,1.377
		c-1.241,0-1.802-0.356-2.142-0.68c-0.51-0.51-0.748-1.207-0.748-1.887s0.238-1.938,1.819-2.669
		c1.054-0.476,2.566-0.476,3.399-0.476c0-0.562-0.018-0.833-0.119-1.14c-0.221-0.629-0.884-0.714-1.122-0.714
		c-0.356,0-0.73,0.153-0.952,0.477c-0.187,0.289-0.187,0.561-0.187,0.765h-2.465c0.017-0.459,0.068-1.377,0.969-2.022
		c0.782-0.562,1.785-0.697,2.601-0.697c0.714,0,2.21,0.119,3.06,1.104c0.578,0.697,0.596,1.717,0.596,2.108l0.017,3.45
		c0,0.731,0.051,1.462,0.204,2.176H108.663z M105.57,9.638c0,0.578,0.391,1.224,1.224,1.224c0.459,0,0.833-0.221,1.07-0.493
		c0.442-0.544,0.477-1.207,0.477-2.124C106.726,8.107,105.57,8.617,105.57,9.638z"/>
	<path fill="#002D3D" d="M112.964,5.813c0-0.407-0.067-1.648-0.118-2.142h2.362l0.051,1.649c0.323-0.731,0.884-1.769,2.924-1.666
		v2.261c-2.55-0.238-2.702,1.07-2.702,2.142v4.232h-2.517V5.813z"/>
	<path fill="#002D3D" d="M121.328,9.808c0.034,0.544,0.374,1.173,1.428,1.173c0.901,0,1.326-0.51,1.326-1.02
		c0-0.392-0.204-0.697-1.189-0.97l-1.564-0.425c-0.696-0.204-2.176-0.629-2.176-2.38c0-1.665,1.53-2.686,3.757-2.686
		c1.768,0,3.195,0.816,3.264,2.533h-2.295c-0.067-0.952-0.833-1.021-1.224-1.021c-0.68,0-1.19,0.323-1.19,0.851
		c0,0.577,0.426,0.696,1.174,0.9l1.547,0.425c1.563,0.426,2.294,1.225,2.294,2.397c0,1.479-1.274,2.957-3.943,2.957
		c-1.104,0-2.159-0.237-2.94-1.054c-0.562-0.595-0.612-1.274-0.629-1.683H121.328z"/>
	<path fill="#002D3D" d="M136.849,3.501c3.11,0,4.454,2.108,4.454,4.505c0,2.414-1.395,4.59-4.505,4.59
		c-2.448,0-4.386-1.514-4.386-4.522C132.412,6,133.466,3.501,136.849,3.501z M136.883,10.845c1.104,0,1.853-0.663,1.853-2.941
		c0-1.139-0.221-2.72-1.887-2.72c-1.836,0-1.853,2.125-1.853,2.907C134.996,10.012,135.642,10.845,136.883,10.845z"/>
	<path fill="#002D3D" d="M143.19,0h2.517v12.289h-2.517V0z"/>
	<path fill="#002D3D" d="M153.594,0.017h2.533v10.879c0,0.51,0.033,1.071,0.067,1.394h-2.55l-0.067-1.24
		c-0.17,0.306-0.34,0.629-0.867,0.969c-0.629,0.407-1.292,0.441-1.666,0.441c-2.295,0-3.654-1.58-3.654-4.267
		c0-2.839,1.547-4.606,3.79-4.606c1.547,0,2.193,0.867,2.414,1.173V0.017z M151.673,10.827c0.731,0,1.326-0.441,1.598-0.969
		c0.374-0.714,0.408-1.598,0.408-2.022c0-1.683-0.73-2.601-1.87-2.601c-1.683,0-1.869,2.022-1.869,2.89
		C149.939,9.553,150.415,10.827,151.673,10.827z"/>
	<path fill="#002D3D" d="M0.578,24.416h2.499v4.862c0.289-0.408,0.918-1.292,2.481-1.292c1.275,0,2.091,0.629,2.499,1.155
		c0.306,0.426,0.561,1.207,0.561,2.329v5.219H6.119v-5.134c0-0.493,0-1.87-1.41-1.87c-0.714,0-1.615,0.408-1.615,1.751l0.018,5.253
		H0.578V24.416z"/>
	<path fill="#002D3D" d="M12.92,33.034c0,0.562,0,2.295,1.751,2.295c0.629,0,1.258-0.237,1.495-1.189h2.295
		c-0.034,0.408-0.119,1.139-0.815,1.869c-0.629,0.663-1.751,1.003-3.009,1.003c-0.731,0-2.125-0.136-3.026-1.07
		c-0.781-0.816-1.104-1.972-1.104-3.349c0-1.394,0.34-3.06,1.785-4.063c0.663-0.442,1.479-0.714,2.413-0.714
		c1.225,0,2.687,0.476,3.468,2.073c0.578,1.173,0.544,2.431,0.51,3.145H12.92z M16.115,31.454c0-0.392-0.034-1.921-1.496-1.921
		c-1.104,0-1.563,0.918-1.614,1.921H16.115z"/>
	<path fill="#002D3D" d="M25.499,36.689c-0.085-0.527-0.085-0.918-0.085-1.173c-0.951,1.377-2.091,1.377-2.566,1.377
		c-1.241,0-1.802-0.357-2.142-0.681c-0.51-0.51-0.748-1.206-0.748-1.887c0-0.68,0.238-1.938,1.819-2.669
		c1.054-0.476,2.566-0.476,3.399-0.476c0-0.561-0.018-0.833-0.119-1.139c-0.221-0.629-0.884-0.714-1.122-0.714
		c-0.356,0-0.73,0.152-0.952,0.476c-0.187,0.289-0.187,0.562-0.187,0.765h-2.465c0.017-0.458,0.068-1.376,0.969-2.022
		c0.782-0.561,1.785-0.697,2.601-0.697c0.714,0,2.21,0.119,3.06,1.105c0.578,0.697,0.596,1.717,0.596,2.107l0.017,3.451
		c0,0.73,0.051,1.462,0.204,2.176H25.499z M22.406,34.037c0,0.578,0.391,1.225,1.224,1.225c0.459,0,0.833-0.222,1.07-0.493
		c0.442-0.544,0.477-1.207,0.477-2.125C23.562,32.508,22.406,33.018,22.406,34.037z"/>
	<path fill="#002D3D" d="M29.801,24.399h2.517v12.29h-2.517V24.399z"/>
	<path fill="#002D3D" d="M39.575,36.57c-0.815,0.221-1.547,0.271-1.955,0.271c-2.532,0-2.532-1.598-2.532-2.312v-4.708h-1.649
		v-1.666h1.649v-1.683l2.499-0.918v2.601h2.039v1.666h-2.039v3.875c0.017,0.782,0.017,1.275,1.139,1.275
		c0.374,0,0.544-0.018,0.85-0.052V36.57z"/>
	<path fill="#002D3D" d="M41.208,24.416h2.499v4.862c0.289-0.408,0.918-1.292,2.481-1.292c1.275,0,2.091,0.629,2.499,1.155
		c0.306,0.426,0.561,1.207,0.561,2.329v5.219h-2.499v-5.134c0-0.493,0-1.87-1.41-1.87c-0.714,0-1.615,0.408-1.615,1.751l0.018,5.253
		h-2.533V24.416z"/>
	<path fill="#002D3D" d="M53.38,28.105l1.887,5.949l1.921-5.949h2.498l-3.246,8.431l-1.037,3.417H52.87l1.088-3.229l-3.298-8.618
		H53.38z"/>
	<path fill="#002D3D" d="M65.874,29.89H64.6v-1.784h1.274v-1.173c0-1.514,0.511-2.737,2.958-2.737c0.17,0,0.646,0,1.36,0.085v1.751
		c-0.255-0.034-0.323-0.051-0.527-0.051c-1.292,0-1.292,0.68-1.292,1.122v1.003h1.598v1.784h-1.598v6.8h-2.499V29.89z"/>
	<path fill="#002D3D" d="M73.389,33.034c0,0.562,0,2.295,1.751,2.295c0.629,0,1.258-0.237,1.495-1.189h2.295
		c-0.034,0.408-0.119,1.139-0.815,1.869c-0.629,0.663-1.751,1.003-3.009,1.003c-0.731,0-2.125-0.136-3.026-1.07
		c-0.781-0.816-1.104-1.972-1.104-3.349c0-1.394,0.34-3.06,1.785-4.063c0.663-0.442,1.479-0.714,2.413-0.714
		c1.225,0,2.687,0.476,3.468,2.073c0.578,1.173,0.544,2.431,0.51,3.145H73.389z M76.584,31.454c0-0.392-0.034-1.921-1.496-1.921
		c-1.104,0-1.563,0.918-1.614,1.921H76.584z"/>
	<path fill="#002D3D" d="M80.869,29.72c0-0.544-0.034-1.07-0.085-1.614h2.431L83.3,29.21c0.271-0.374,0.935-1.292,2.651-1.292
		c1.972,0,2.533,1.207,2.703,1.615c0.714-1.377,1.869-1.598,2.753-1.598c1.734,0,2.432,1.036,2.618,1.376
		c0.459,0.748,0.425,1.785,0.425,2.533v4.845h-2.532v-5.049c0-0.918-0.137-1.938-1.445-1.938c-1.513,0-1.547,1.41-1.547,2.686v4.301
		h-2.532v-5.1c0-0.663-0.018-1.887-1.411-1.887c-1.581,0-1.581,1.359-1.581,1.938v5.049h-2.532V29.72z"/>
	<path fill="#002D3D" d="M102.017,36.689c-0.086-0.527-0.086-0.918-0.086-1.173c-0.951,1.377-2.09,1.377-2.566,1.377
		c-1.241,0-1.802-0.357-2.142-0.681c-0.51-0.51-0.748-1.206-0.748-1.887c0-0.68,0.238-1.938,1.819-2.669
		c1.054-0.476,2.566-0.476,3.399-0.476c0-0.561-0.018-0.833-0.119-1.139c-0.221-0.629-0.884-0.714-1.122-0.714
		c-0.356,0-0.73,0.152-0.952,0.476c-0.187,0.289-0.187,0.562-0.187,0.765h-2.465c0.017-0.458,0.068-1.376,0.969-2.022
		c0.782-0.561,1.785-0.697,2.601-0.697c0.714,0,2.21,0.119,3.06,1.105c0.578,0.697,0.596,1.717,0.596,2.107l0.017,3.451
		c0,0.73,0.051,1.462,0.204,2.176H102.017z M98.923,34.037c0,0.578,0.391,1.225,1.224,1.225c0.459,0,0.833-0.222,1.07-0.493
		c0.442-0.544,0.477-1.207,0.477-2.125C100.078,32.508,98.923,33.018,98.923,34.037z"/>
	<path fill="#002D3D" d="M106.317,24.399h2.517v12.29h-2.517V24.399z"/>
	<path fill="#002D3D" d="M113.066,33.034c0,0.562,0,2.295,1.751,2.295c0.629,0,1.258-0.237,1.495-1.189h2.295
		c-0.034,0.408-0.119,1.139-0.815,1.869c-0.629,0.663-1.751,1.003-3.009,1.003c-0.731,0-2.125-0.136-3.026-1.07
		c-0.781-0.816-1.104-1.972-1.104-3.349c0-1.394,0.34-3.06,1.785-4.063c0.663-0.442,1.479-0.714,2.413-0.714
		c1.225,0,2.687,0.476,3.468,2.073c0.578,1.173,0.544,2.431,0.51,3.145H113.066z M116.262,31.454c0-0.392-0.034-1.921-1.496-1.921
		c-1.104,0-1.563,0.918-1.614,1.921H116.262z"/>
	<path fill="#002D3D" d="M126.87,28.105l1.581,6.476l1.818-6.476h2.771l1.802,6.476l1.684-6.476h2.498l-2.94,8.584h-2.736
		l-1.769-6.357l-1.802,6.357h-2.771l-2.805-8.584H126.87z"/>
	<path fill="#002D3D" d="M140.249,24.416h2.687v2.193h-2.687V24.416z M140.334,28.088h2.517v8.602h-2.517V28.088z"/>
	<path fill="#002D3D" d="M150.108,36.57c-0.815,0.221-1.547,0.271-1.955,0.271c-2.532,0-2.532-1.598-2.532-2.312v-4.708h-1.649
		v-1.666h1.649v-1.683l2.499-0.918v2.601h2.039v1.666h-2.039v3.875c0.017,0.782,0.017,1.275,1.139,1.275
		c0.374,0,0.544-0.018,0.85-0.052V36.57z"/>
	<path fill="#002D3D" d="M151.741,24.416h2.499v4.862c0.289-0.408,0.918-1.292,2.481-1.292c1.275,0,2.091,0.629,2.499,1.155
		c0.306,0.426,0.561,1.207,0.561,2.329v5.219h-2.499v-5.134c0-0.493,0-1.87-1.41-1.87c-0.714,0-1.615,0.408-1.615,1.751l0.018,5.253
		h-2.533V24.416z"/>
	<path fill="#002D3D" d="M166.105,27.901c3.11,0,4.454,2.107,4.454,4.504c0,2.414-1.395,4.59-4.505,4.59
		c-2.448,0-4.386-1.513-4.386-4.521C161.669,30.399,162.723,27.901,166.105,27.901z M166.14,35.244c1.104,0,1.853-0.663,1.853-2.94
		c0-1.139-0.221-2.72-1.887-2.72c-1.836,0-1.853,2.125-1.853,2.906C164.253,34.411,164.898,35.244,166.14,35.244z"/>
	<path fill="#002D3D" d="M174.911,28.105v5.116c0,0.748,0,1.887,1.343,1.887c1.615,0,1.615-1.207,1.615-2.669v-4.334h2.584v5.66
		c0.034,1.853,0.051,2.073,0.051,2.295c0.017,0.237,0.034,0.391,0.068,0.629h-2.448l-0.085-1.139
		c-0.255,0.373-0.9,1.359-2.532,1.359c-1.156,0-2.108-0.527-2.584-1.156c-0.562-0.696-0.562-1.887-0.562-2.312v-5.337H174.911z"/>
	<path fill="#002D3D" d="M187.882,36.57c-0.815,0.221-1.547,0.271-1.955,0.271c-2.532,0-2.532-1.598-2.532-2.312v-4.708h-1.649
		v-1.666h1.649v-1.683l2.499-0.918v2.601h2.039v1.666h-2.039v3.875c0.017,0.782,0.017,1.275,1.139,1.275
		c0.374,0,0.544-0.018,0.85-0.052V36.57z"/>
	<path fill="#002D3D" d="M5.661,61.089c-0.086-0.526-0.086-0.918-0.086-1.173c-0.951,1.377-2.09,1.377-2.566,1.377
		c-1.241,0-1.802-0.356-2.142-0.68c-0.51-0.51-0.748-1.207-0.748-1.887s0.238-1.938,1.819-2.669
		c1.054-0.476,2.566-0.476,3.399-0.476c0-0.562-0.018-0.833-0.119-1.14c-0.221-0.629-0.884-0.714-1.122-0.714
		c-0.356,0-0.73,0.153-0.952,0.477c-0.187,0.289-0.187,0.561-0.187,0.765H0.493c0.017-0.459,0.068-1.377,0.969-2.022
		c0.782-0.562,1.785-0.697,2.601-0.697c0.714,0,2.21,0.119,3.06,1.104c0.578,0.697,0.596,1.717,0.596,2.108l0.017,3.45
		c0,0.731,0.051,1.462,0.204,2.176H5.661z M2.567,58.438c0,0.578,0.391,1.224,1.224,1.224c0.459,0,0.833-0.221,1.07-0.493
		c0.442-0.544,0.477-1.207,0.477-2.124C3.723,56.907,2.567,57.417,2.567,58.438z"/>
	<path fill="#002D3D" d="M9.996,54.035c0-0.034,0-0.97-0.051-1.564h2.414l0.067,1.292c0.238-0.391,0.918-1.496,2.788-1.496
		c1.683,0,2.396,1.021,2.618,1.615c0.187,0.527,0.237,0.969,0.237,2.566v4.641h-2.566v-5.337c0-0.357,0-0.663-0.136-0.936
		c-0.188-0.374-0.578-0.73-1.225-0.73c-0.544,0-1.036,0.255-1.309,0.663c-0.153,0.221-0.306,0.646-0.306,1.309v5.031H9.996V54.035z"
		/>
	<path fill="#002D3D" d="M22.202,52.505l1.887,5.949l1.921-5.949h2.498l-3.246,8.432l-1.037,3.416h-2.532l1.088-3.229l-3.298-8.618
		H22.202z"/>
	<path fill="#002D3D" d="M36.277,58.607c0.034,0.544,0.374,1.173,1.428,1.173c0.901,0,1.326-0.51,1.326-1.02
		c0-0.392-0.204-0.697-1.189-0.97l-1.564-0.425c-0.696-0.204-2.176-0.629-2.176-2.38c0-1.665,1.53-2.686,3.757-2.686
		c1.768,0,3.195,0.816,3.264,2.533h-2.295c-0.067-0.952-0.833-1.021-1.224-1.021c-0.68,0-1.19,0.323-1.19,0.851
		c0,0.577,0.426,0.696,1.174,0.9l1.547,0.425c1.563,0.426,2.294,1.225,2.294,2.397c0,1.479-1.274,2.957-3.943,2.957
		c-1.104,0-2.159-0.237-2.94-1.054c-0.562-0.595-0.612-1.274-0.629-1.683H36.277z"/>
	<path fill="#002D3D" d="M42.941,48.816h2.687v2.192h-2.687V48.816z M43.026,52.488h2.517v8.601h-2.517V52.488z"/>
	<path fill="#002D3D" d="M55.896,52.539c-0.068,0.68-0.119,1.258-0.119,2.125v6.34c0,3.162-2.635,3.468-4.283,3.468
		c-1.224,0-3.621-0.153-3.773-2.754h2.413c0.034,0.255,0.153,1.19,1.496,1.19c0.748,0,1.394-0.357,1.563-1.122
		c0.103-0.425,0.103-0.731,0.119-2.04C52.513,60.8,51.612,60.919,51,60.919c-2.465,0-3.621-2.142-3.621-4.216
		c0-2.176,1.207-4.249,3.672-4.249c1.564,0,2.142,0.85,2.397,1.224l0.085-1.139H55.896z M51.578,59.202
		c1.768,0,1.768-2.073,1.768-2.447c0-0.97-0.187-2.618-1.717-2.618c-0.952,0-1.733,0.731-1.733,2.566
		C49.896,57.129,49.896,59.202,51.578,59.202z"/>
	<path fill="#002D3D" d="M58.174,54.035c0-0.034,0-0.97-0.051-1.564h2.414l0.067,1.292c0.238-0.391,0.918-1.496,2.788-1.496
		c1.683,0,2.396,1.021,2.618,1.615c0.187,0.527,0.237,0.969,0.237,2.566v4.641h-2.566v-5.337c0-0.357,0-0.663-0.136-0.936
		c-0.188-0.374-0.578-0.73-1.225-0.73c-0.544,0-1.036,0.255-1.309,0.663c-0.153,0.221-0.306,0.646-0.306,1.309v5.031h-2.533V54.035z
		"/>
	<path fill="#002D3D" d="M68.441,48.816h2.687v2.192h-2.687V48.816z M68.526,52.488h2.517v8.601h-2.517V52.488z"/>
	<path fill="#002D3D" d="M73.474,54.29h-1.292v-1.785h1.292v-1.173c0-1.513,0.492-2.736,2.94-2.736c0.187,0,0.663,0,1.359,0.085
		v1.751c-0.255-0.034-0.322-0.052-0.526-0.052c-1.275,0-1.275,0.681-1.275,1.122v1.003h1.581v1.785h-1.581v6.799h-2.498V54.29z
		 M78.828,48.816h2.686v2.192h-2.686V48.816z M78.913,52.488h2.516v8.601h-2.516V52.488z"/>
	<path fill="#002D3D" d="M88.179,55.548c-0.034-0.307-0.136-1.581-1.105-1.581c-1.189,0-1.325,1.802-1.325,2.736
		c0,0.477,0.051,2.006,0.629,2.635c0.237,0.255,0.493,0.289,0.68,0.289c0.272,0,1.054-0.119,1.156-1.648h2.481
		c-0.034,0.663-0.119,1.7-1.104,2.532c-0.612,0.527-1.377,0.8-2.448,0.8c-1.139,0-2.142-0.256-2.924-1.14
		c-0.748-0.866-1.088-2.006-1.088-3.383c0-3.909,2.873-4.453,4.012-4.453c1.598,0,3.484,0.884,3.502,3.213H88.179z"/>
	<path fill="#002D3D" d="M97.29,61.089c-0.085-0.526-0.085-0.918-0.085-1.173c-0.951,1.377-2.091,1.377-2.566,1.377
		c-1.241,0-1.802-0.356-2.142-0.68c-0.51-0.51-0.748-1.207-0.748-1.887s0.238-1.938,1.819-2.669
		c1.054-0.476,2.566-0.476,3.399-0.476c0-0.562-0.018-0.833-0.119-1.14c-0.221-0.629-0.884-0.714-1.122-0.714
		c-0.356,0-0.73,0.153-0.952,0.477c-0.187,0.289-0.187,0.561-0.187,0.765h-2.465c0.017-0.459,0.068-1.377,0.969-2.022
		c0.782-0.562,1.785-0.697,2.601-0.697c0.714,0,2.21,0.119,3.06,1.104c0.578,0.697,0.596,1.717,0.596,2.108l0.017,3.45
		c0,0.731,0.051,1.462,0.204,2.176H97.29z M94.197,58.438c0,0.578,0.391,1.224,1.224,1.224c0.459,0,0.833-0.221,1.07-0.493
		c0.442-0.544,0.477-1.207,0.477-2.124C95.353,56.907,94.197,57.417,94.197,58.438z"/>
	<path fill="#002D3D" d="M101.625,54.035c0-0.034,0-0.97-0.051-1.564h2.414l0.067,1.292c0.238-0.391,0.918-1.496,2.788-1.496
		c1.683,0,2.396,1.021,2.618,1.615c0.187,0.527,0.237,0.969,0.237,2.566v4.641h-2.566v-5.337c0-0.357,0-0.663-0.136-0.936
		c-0.188-0.374-0.578-0.73-1.225-0.73c-0.544,0-1.036,0.255-1.309,0.663c-0.153,0.221-0.306,0.646-0.306,1.309v5.031h-2.533V54.035z
		"/>
	<path fill="#002D3D" d="M117.027,60.97c-0.815,0.222-1.547,0.272-1.955,0.272c-2.532,0-2.532-1.598-2.532-2.312v-4.709h-1.649
		v-1.666h1.649v-1.683l2.499-0.918v2.601h2.039v1.666h-2.039v3.876c0.017,0.781,0.017,1.274,1.139,1.274
		c0.374,0,0.544-0.017,0.85-0.051V60.97z"/>
	<path fill="#002D3D" d="M123.317,48.833h3.791c1.768,0,3.247,0.119,4.267,1.343c0.646,0.782,0.748,1.666,0.748,2.295
		c0,1.428-0.595,2.635-1.564,3.264c-0.9,0.578-2.142,0.578-2.787,0.578h-1.785v4.776h-2.669V48.833z M125.919,54.357h1.054
		c0.85,0,2.431,0,2.431-1.869c0-1.666-1.411-1.666-2.159-1.666h-1.325V54.357z"/>
	<path fill="#002D3D" d="M133.619,48.8h4.301l2.601,8.94l2.805-8.94h4.182v12.289h-2.617V50.55l-3.349,10.539h-2.176l-3.281-10.539
		v10.539h-2.465V48.8z"/>
	<path fill="#002D3D" d="M149.786,48.8h2.635v4.912h4.641V48.8h2.669v12.289h-2.635V55.7h-4.675v5.389h-2.635V48.8z"/>
	<path fill="#002D3D" d="M160.832,52.602h1.021l0.218-1.2h-0.813v-1.091h1.021l0.328-1.796h1.27l-0.328,1.796h0.942l0.327-1.796
		h1.28l-0.338,1.796h0.823v1.091h-1.021l-0.218,1.2h0.813v1.091h-1.021l-0.317,1.735h-1.27l0.328-1.735h-0.952l-0.317,1.735h-1.28
		l0.317-1.735h-0.813V52.602z M164.065,52.602l0.228-1.2h-0.942l-0.228,1.2H164.065z"/>
	<path fill="#002D3D" d="M5.049,79.947c-0.034-0.306-0.136-1.58-1.105-1.58c-1.189,0-1.325,1.802-1.325,2.736
		c0,0.476,0.051,2.006,0.629,2.635c0.238,0.255,0.493,0.289,0.68,0.289c0.272,0,1.054-0.119,1.156-1.649h2.481
		c-0.034,0.663-0.119,1.7-1.104,2.533c-0.612,0.527-1.377,0.799-2.448,0.799c-1.139,0-2.142-0.255-2.924-1.139
		C0.34,83.704,0,82.565,0,81.188c0-3.909,2.873-4.453,4.012-4.453c1.598,0,3.484,0.884,3.502,3.212H5.049z"/>
	<path fill="#002D3D" d="M14.161,85.489c-0.086-0.527-0.086-0.918-0.086-1.173c-0.951,1.377-2.09,1.377-2.566,1.377
		c-1.241,0-1.802-0.357-2.142-0.681c-0.51-0.51-0.748-1.206-0.748-1.887c0-0.68,0.238-1.938,1.819-2.669
		c1.054-0.476,2.566-0.476,3.399-0.476c0-0.561-0.018-0.833-0.119-1.139c-0.221-0.629-0.884-0.714-1.122-0.714
		c-0.356,0-0.73,0.152-0.952,0.476c-0.187,0.289-0.187,0.562-0.187,0.765H8.993c0.017-0.458,0.068-1.376,0.969-2.022
		c0.782-0.561,1.785-0.697,2.601-0.697c0.714,0,2.21,0.119,3.06,1.105c0.578,0.697,0.596,1.717,0.596,2.107l0.017,3.451
		c0,0.73,0.051,1.462,0.204,2.176H14.161z M11.067,82.837c0,0.578,0.391,1.225,1.224,1.225c0.459,0,0.833-0.222,1.07-0.493
		c0.442-0.544,0.477-1.207,0.477-2.125C12.223,81.308,11.067,81.817,11.067,82.837z"/>
	<path fill="#002D3D" d="M18.514,78.52c0-0.544-0.034-1.07-0.085-1.614h2.431l0.085,1.104c0.271-0.374,0.935-1.292,2.651-1.292
		c1.972,0,2.533,1.207,2.703,1.615c0.714-1.377,1.869-1.598,2.753-1.598c1.734,0,2.432,1.036,2.618,1.376
		c0.459,0.748,0.425,1.785,0.425,2.533v4.845h-2.532V80.44c0-0.918-0.137-1.938-1.445-1.938c-1.513,0-1.547,1.41-1.547,2.686v4.301
		h-2.532v-5.1c0-0.663-0.018-1.887-1.411-1.887c-1.581,0-1.581,1.359-1.581,1.938v5.049h-2.532V78.52z"/>
	<path fill="#002D3D" d="M36.533,81.834c0,0.562,0,2.295,1.751,2.295c0.629,0,1.258-0.237,1.495-1.189h2.295
		c-0.034,0.408-0.119,1.139-0.815,1.869c-0.629,0.663-1.751,1.003-3.009,1.003c-0.731,0-2.125-0.136-3.026-1.07
		c-0.781-0.816-1.104-1.972-1.104-3.349c0-1.394,0.34-3.06,1.785-4.063c0.663-0.442,1.479-0.714,2.413-0.714
		c1.225,0,2.687,0.476,3.468,2.073c0.578,1.173,0.544,2.431,0.51,3.145H36.533z M39.729,80.254c0-0.392-0.034-1.921-1.496-1.921
		c-1.104,0-1.563,0.918-1.614,1.921H39.729z"/>
	<path fill="#002D3D" d="M53.736,85.37c-0.815,0.221-1.547,0.271-1.955,0.271c-2.532,0-2.532-1.598-2.532-2.312v-4.708H47.6v-1.666
		h1.649v-1.683l2.499-0.918v2.601h2.039v1.666h-2.039v3.875c0.017,0.782,0.017,1.275,1.139,1.275c0.374,0,0.544-0.018,0.85-0.052
		V85.37z"/>
	<path fill="#002D3D" d="M59.347,76.701c3.11,0,4.454,2.107,4.454,4.504c0,2.414-1.395,4.59-4.505,4.59
		c-2.448,0-4.386-1.513-4.386-4.521C54.91,79.199,55.964,76.701,59.347,76.701z M59.381,84.044c1.104,0,1.853-0.663,1.853-2.94
		c0-1.139-0.221-2.72-1.887-2.72c-1.836,0-1.853,2.125-1.853,2.906C57.494,83.211,58.14,84.044,59.381,84.044z"/>
	<path fill="#002D3D" d="M70.481,73.216h2.499v4.862c0.289-0.408,0.918-1.292,2.481-1.292c1.275,0,2.091,0.629,2.499,1.155
		c0.306,0.426,0.561,1.207,0.561,2.329v5.219h-2.499v-5.134c0-0.493,0-1.87-1.41-1.87c-0.714,0-1.615,0.408-1.615,1.751l0.018,5.253
		h-2.533V73.216z"/>
	<path fill="#002D3D" d="M82.823,81.834c0,0.562,0,2.295,1.751,2.295c0.629,0,1.258-0.237,1.495-1.189h2.295
		c-0.034,0.408-0.119,1.139-0.815,1.869c-0.629,0.663-1.751,1.003-3.009,1.003c-0.731,0-2.125-0.136-3.026-1.07
		c-0.781-0.816-1.104-1.972-1.104-3.349c0-1.394,0.34-3.06,1.785-4.063c0.663-0.442,1.479-0.714,2.413-0.714
		c1.225,0,2.687,0.476,3.468,2.073c0.578,1.173,0.544,2.431,0.51,3.145H82.823z M86.019,80.254c0-0.392-0.034-1.921-1.496-1.921
		c-1.104,0-1.563,0.918-1.614,1.921H86.019z"/>
	<path fill="#002D3D" d="M90.252,79.013c0-0.408-0.067-1.648-0.118-2.142h2.362l0.051,1.648c0.323-0.73,0.884-1.768,2.924-1.666
		v2.261c-2.55-0.237-2.702,1.071-2.702,2.143v4.232h-2.517V79.013z"/>
	<path fill="#002D3D" d="M107.269,73.216h2.533v10.879c0,0.511,0.033,1.071,0.067,1.395h-2.55l-0.067-1.241
		c-0.17,0.306-0.34,0.629-0.867,0.969c-0.629,0.408-1.292,0.442-1.666,0.442c-2.295,0-3.654-1.581-3.654-4.267
		c0-2.839,1.547-4.606,3.79-4.606c1.547,0,2.193,0.866,2.414,1.173V73.216z M105.348,84.027c0.731,0,1.326-0.442,1.598-0.969
		c0.374-0.714,0.408-1.599,0.408-2.023c0-1.683-0.73-2.601-1.87-2.601c-1.683,0-1.869,2.022-1.869,2.89
		C103.614,82.752,104.09,84.027,105.348,84.027z"/>
	<path fill="#002D3D" d="M116.023,76.701c3.11,0,4.454,2.107,4.454,4.504c0,2.414-1.395,4.59-4.505,4.59
		c-2.448,0-4.386-1.513-4.386-4.521C111.587,79.199,112.641,76.701,116.023,76.701z M116.058,84.044c1.104,0,1.853-0.663,1.853-2.94
		c0-1.139-0.221-2.72-1.887-2.72c-1.836,0-1.853,2.125-1.853,2.906C114.171,83.211,114.816,84.044,116.058,84.044z"/>
	<path fill="#002D3D" d="M126.903,79.947c-0.034-0.306-0.136-1.58-1.105-1.58c-1.189,0-1.325,1.802-1.325,2.736
		c0,0.476,0.051,2.006,0.629,2.635c0.237,0.255,0.493,0.289,0.68,0.289c0.272,0,1.054-0.119,1.156-1.649h2.481
		c-0.034,0.663-0.119,1.7-1.104,2.533c-0.612,0.527-1.377,0.799-2.448,0.799c-1.139,0-2.142-0.255-2.924-1.139
		c-0.748-0.867-1.088-2.006-1.088-3.383c0-3.909,2.873-4.453,4.012-4.453c1.598,0,3.484,0.884,3.502,3.212H126.903z"/>
	<path fill="#002D3D" d="M135.913,85.37c-0.815,0.221-1.547,0.271-1.955,0.271c-2.532,0-2.532-1.598-2.532-2.312v-4.708h-1.649
		v-1.666h1.649v-1.683l2.499-0.918v2.601h2.039v1.666h-2.039v3.875c0.017,0.782,0.017,1.275,1.139,1.275
		c0.374,0,0.544-0.018,0.85-0.052V85.37z"/>
	<path fill="#002D3D" d="M141.523,76.701c3.11,0,4.454,2.107,4.454,4.504c0,2.414-1.395,4.59-4.505,4.59
		c-2.448,0-4.386-1.513-4.386-4.521C137.087,79.199,138.141,76.701,141.523,76.701z M141.558,84.044c1.104,0,1.853-0.663,1.853-2.94
		c0-1.139-0.221-2.72-1.887-2.72c-1.836,0-1.853,2.125-1.853,2.906C139.671,83.211,140.316,84.044,141.558,84.044z"/>
	<path fill="#002D3D" d="M147.864,79.013c0-0.408-0.067-1.648-0.118-2.142h2.362l0.051,1.648c0.323-0.73,0.884-1.768,2.924-1.666
		v2.261c-2.55-0.237-2.702,1.071-2.702,2.143v4.232h-2.517V79.013z"/>
	<path fill="#002D3D" d="M159.373,78.689h-1.274v-1.784h1.274v-1.173c0-1.514,0.511-2.737,2.958-2.737c0.17,0,0.646,0,1.36,0.085
		v1.751c-0.255-0.034-0.323-0.051-0.527-0.051c-1.292,0-1.292,0.68-1.292,1.122v1.003h1.598v1.784h-1.598v6.8h-2.499V78.689z"/>
	<path fill="#002D3D" d="M168.91,76.701c3.11,0,4.454,2.107,4.454,4.504c0,2.414-1.395,4.59-4.505,4.59
		c-2.448,0-4.386-1.513-4.386-4.521C164.474,79.199,165.527,76.701,168.91,76.701z M168.944,84.044c1.104,0,1.853-0.663,1.853-2.94
		c0-1.139-0.221-2.72-1.887-2.72c-1.836,0-1.853,2.125-1.853,2.906C167.058,83.211,167.703,84.044,168.944,84.044z"/>
	<path fill="#002D3D" d="M175.251,79.013c0-0.408-0.067-1.648-0.118-2.142h2.362l0.051,1.648c0.323-0.73,0.884-1.768,2.924-1.666
		v2.261c-2.55-0.237-2.702,1.071-2.702,2.143v4.232h-2.517V79.013z"/>
	<path fill="#002D3D" d="M5.049,104.348c-0.034-0.307-0.136-1.581-1.105-1.581c-1.189,0-1.325,1.802-1.325,2.736
		c0,0.477,0.051,2.006,0.629,2.635c0.238,0.255,0.493,0.289,0.68,0.289c0.272,0,1.054-0.119,1.156-1.648h2.481
		c-0.034,0.663-0.119,1.7-1.104,2.532c-0.612,0.527-1.377,0.8-2.448,0.8c-1.139,0-2.142-0.256-2.924-1.14
		C0.34,108.104,0,106.965,0,105.588c0-3.909,2.873-4.453,4.012-4.453c1.598,0,3.484,0.884,3.502,3.213H5.049z"/>
	<path fill="#002D3D" d="M14.161,109.889c-0.086-0.526-0.086-0.918-0.086-1.173c-0.951,1.377-2.09,1.377-2.566,1.377
		c-1.241,0-1.802-0.356-2.142-0.68c-0.51-0.51-0.748-1.207-0.748-1.887s0.238-1.938,1.819-2.669
		c1.054-0.476,2.566-0.476,3.399-0.476c0-0.562-0.018-0.833-0.119-1.14c-0.221-0.629-0.884-0.714-1.122-0.714
		c-0.356,0-0.73,0.153-0.952,0.477c-0.187,0.289-0.187,0.561-0.187,0.765H8.993c0.017-0.459,0.068-1.377,0.969-2.022
		c0.782-0.562,1.785-0.697,2.601-0.697c0.714,0,2.21,0.119,3.06,1.104c0.578,0.697,0.596,1.717,0.596,2.108l0.017,3.45
		c0,0.731,0.051,1.462,0.204,2.176H14.161z M11.067,107.237c0,0.578,0.391,1.224,1.224,1.224c0.459,0,0.833-0.221,1.07-0.493
		c0.442-0.544,0.477-1.207,0.477-2.124C12.223,105.707,11.067,106.217,11.067,107.237z"/>
	<path fill="#002D3D" d="M20.213,107.407c0.034,0.544,0.374,1.173,1.428,1.173c0.901,0,1.326-0.51,1.326-1.02
		c0-0.392-0.204-0.697-1.189-0.97l-1.564-0.425c-0.696-0.204-2.176-0.629-2.176-2.38c0-1.665,1.53-2.686,3.757-2.686
		c1.768,0,3.195,0.816,3.264,2.533h-2.295c-0.067-0.952-0.833-1.021-1.224-1.021c-0.68,0-1.19,0.323-1.19,0.851
		c0,0.577,0.426,0.696,1.174,0.9l1.547,0.425c1.563,0.426,2.294,1.225,2.294,2.397c0,1.479-1.274,2.957-3.943,2.957
		c-1.104,0-2.159-0.237-2.94-1.054c-0.562-0.595-0.612-1.274-0.629-1.683H20.213z"/>
	<path fill="#002D3D" d="M29.427,101.305v5.116c0,0.748,0,1.887,1.343,1.887c1.615,0,1.615-1.206,1.615-2.668v-4.335h2.584v5.66
		c0.034,1.854,0.051,2.074,0.051,2.295c0.017,0.238,0.034,0.392,0.068,0.629H32.64l-0.085-1.139c-0.255,0.374-0.9,1.36-2.532,1.36
		c-1.156,0-2.108-0.527-2.584-1.156c-0.562-0.697-0.562-1.887-0.562-2.312v-5.338H29.427z"/>
	<path fill="#002D3D" d="M42.499,109.889c-0.085-0.526-0.085-0.918-0.085-1.173c-0.951,1.377-2.091,1.377-2.566,1.377
		c-1.241,0-1.802-0.356-2.142-0.68c-0.51-0.51-0.748-1.207-0.748-1.887s0.238-1.938,1.819-2.669
		c1.054-0.476,2.566-0.476,3.399-0.476c0-0.562-0.018-0.833-0.119-1.14c-0.221-0.629-0.884-0.714-1.122-0.714
		c-0.356,0-0.73,0.153-0.952,0.477c-0.187,0.289-0.187,0.561-0.187,0.765h-2.465c0.017-0.459,0.068-1.377,0.969-2.022
		c0.782-0.562,1.785-0.697,2.601-0.697c0.714,0,2.21,0.119,3.06,1.104c0.578,0.697,0.596,1.717,0.596,2.108l0.017,3.45
		c0,0.731,0.051,1.462,0.204,2.176H42.499z M39.406,107.237c0,0.578,0.391,1.224,1.224,1.224c0.459,0,0.833-0.221,1.07-0.493
		c0.442-0.544,0.477-1.207,0.477-2.124C40.562,105.707,39.406,106.217,39.406,107.237z"/>
	<path fill="#002D3D" d="M46.801,97.6h2.517v12.289h-2.517V97.6z"/>
	<path fill="#002D3D" d="M60.792,104.348c-0.034-0.307-0.136-1.581-1.105-1.581c-1.189,0-1.325,1.802-1.325,2.736
		c0,0.477,0.051,2.006,0.629,2.635c0.237,0.255,0.493,0.289,0.68,0.289c0.272,0,1.054-0.119,1.156-1.648h2.481
		c-0.034,0.663-0.119,1.7-1.104,2.532c-0.612,0.527-1.377,0.8-2.448,0.8c-1.139,0-2.142-0.256-2.924-1.14
		c-0.748-0.866-1.088-2.006-1.088-3.383c0-3.909,2.873-4.453,4.012-4.453c1.598,0,3.484,0.884,3.502,3.213H60.792z"/>
	<path fill="#002D3D" d="M64.821,97.616h2.499v4.861c0.289-0.408,0.918-1.292,2.481-1.292c1.275,0,2.091,0.629,2.499,1.156
		c0.306,0.425,0.561,1.207,0.561,2.329v5.218h-2.499v-5.133c0-0.493,0-1.87-1.41-1.87c-0.714,0-1.615,0.408-1.615,1.751l0.018,5.252
		h-2.533V97.616z"/>
	<path fill="#002D3D" d="M77.163,106.234c0,0.561,0,2.295,1.751,2.295c0.629,0,1.258-0.238,1.495-1.19h2.295
		c-0.034,0.408-0.119,1.14-0.815,1.87c-0.629,0.663-1.751,1.003-3.009,1.003c-0.731,0-2.125-0.136-3.026-1.071
		c-0.781-0.815-1.104-1.972-1.104-3.349c0-1.394,0.34-3.06,1.785-4.063c0.663-0.441,1.479-0.714,2.413-0.714
		c1.225,0,2.687,0.477,3.468,2.074c0.578,1.173,0.544,2.431,0.51,3.145H77.163z M80.358,104.653c0-0.391-0.034-1.921-1.496-1.921
		c-1.104,0-1.563,0.918-1.614,1.921H80.358z"/>
	<path fill="#002D3D" d="M89.131,104.348c-0.034-0.307-0.136-1.581-1.105-1.581c-1.189,0-1.325,1.802-1.325,2.736
		c0,0.477,0.051,2.006,0.629,2.635c0.238,0.255,0.493,0.289,0.68,0.289c0.272,0,1.054-0.119,1.156-1.648h2.481
		c-0.034,0.663-0.119,1.7-1.104,2.532c-0.612,0.527-1.377,0.8-2.448,0.8c-1.139,0-2.142-0.256-2.924-1.14
		c-0.748-0.866-1.088-2.006-1.088-3.383c0-3.909,2.873-4.453,4.012-4.453c1.598,0,3.484,0.884,3.502,3.213H89.131z"/>
	<path fill="#002D3D" d="M93.126,97.6h2.499v7.241l2.601-3.587h2.839l-2.94,3.739l3.127,4.896h-2.975l-2.651-4.674v4.674h-2.499
		V97.6z"/>
	<path fill="#002D3D" d="M102.188,104.433h4.216v1.921h-4.216V104.433z"/>
	<path fill="#002D3D" d="M110.669,101.305v5.116c0,0.748,0,1.887,1.343,1.887c1.615,0,1.615-1.206,1.615-2.668v-4.335h2.584v5.66
		c0.034,1.854,0.051,2.074,0.051,2.295c0.017,0.238,0.034,0.392,0.068,0.629h-2.448l-0.085-1.139c-0.255,0.374-0.9,1.36-2.532,1.36
		c-1.156,0-2.108-0.527-2.584-1.156c-0.562-0.697-0.562-1.887-0.562-2.312v-5.338H110.669z"/>
	<path fill="#002D3D" d="M120.954,101.305l0.068,1.224c0.781-1.377,2.209-1.394,2.617-1.394c2.227,0,3.569,1.666,3.569,4.283
		c0,2.431-1.258,4.59-3.739,4.59c-1.547,0-2.176-0.815-2.396-1.104v4.283h-2.567v-11.882H120.954z M124.659,105.521
		c0-1.021-0.255-2.771-1.733-2.771c-0.815,0-1.972,0.611-1.972,2.923c0,0.511,0.017,2.687,1.87,2.687
		C124.014,108.359,124.659,107.22,124.659,105.521z"/>
</g>
</svg>
