<?xml version="1.0" encoding="utf-8"?>
<!-- Generator: Adobe Illustrator 17.0.0, SVG Export Plug-In . SVG Version: 6.00 Build 0)  -->
<!DOCTYPE svg PUBLIC "-//W3C//DTD SVG 1.1//EN" "http://www.w3.org/Graphics/SVG/1.1/DTD/svg11.dtd">
<svg version="1.1" id="Layer_1" xmlns="http://www.w3.org/2000/svg" xmlns:xlink="http://www.w3.org/1999/xlink" x="0px" y="0px"
	 width="99.848px" height="7.408px" viewBox="0 0 99.848 7.408" enable-background="new 0 0 99.848 7.408" xml:space="preserve">
<g>
	<g>
		<path fill="#020202" d="M0.107,1.287V0.994h0.55L0.807,0h0.293L0.952,0.994h0.625L1.726,0H2.02L1.871,0.994h0.48v0.293H1.833
			l-0.07,0.625h0.476v0.294H1.726L1.577,3.232H1.283l0.149-1.026H0.807L0.658,3.232H0.364l0.149-1.026H0V1.912h0.55l0.07-0.625
			H0.107z M0.914,1.287l-0.07,0.625h0.625l0.07-0.625H0.914z"/>
	</g>
	<g>
		<path fill="#020202" d="M7.25,0.104C7.757,0.109,8.219,0.235,8.638,0.48c0.418,0.245,0.628,0.667,0.628,1.264
			c0,0.598-0.212,1.021-0.636,1.269C8.206,3.261,7.725,3.385,7.186,3.385l-1.2-0.008v2.52H5.418V0.104H7.25z M5.986,2.872h1.2
			C7.628,2.878,7.991,2.794,8.274,2.62c0.283-0.173,0.424-0.465,0.424-0.876c0-0.378-0.112-0.661-0.336-0.848
			c-0.224-0.187-0.573-0.28-1.048-0.28L5.986,0.608V2.872z"/>
		<path fill="#020202" d="M11.09,0.104l2.144,5.04l2.136-5.04h0.888v5.792h-0.568V0.664l-2.144,5.232h-0.632L10.77,0.664v5.232
			h-0.56V0.104H11.09z"/>
		<path fill="#020202" d="M18.33,0.104v2.52h3.088v-2.52h0.568v5.792h-0.568V3.129H18.33v2.768h-0.568V0.104H18.33z"/>
		<path fill="#020202" d="M24.194,1.801v0.76h-0.696v-0.76H24.194z M24.194,5.145v0.752h-0.696V5.145H24.194z"/>
		<path fill="#020202" d="M29.746,0.104c0.507,0.005,0.969,0.131,1.388,0.376c0.418,0.245,0.628,0.667,0.628,1.264
			c0,0.598-0.212,1.021-0.636,1.269c-0.424,0.248-0.905,0.372-1.444,0.372l-1.2-0.008v2.52h-0.568V0.104H29.746z M28.481,2.872h1.2
			c0.442,0.006,0.805-0.078,1.088-0.252c0.283-0.173,0.424-0.465,0.424-0.876c0-0.378-0.112-0.661-0.336-0.848
			c-0.224-0.187-0.573-0.28-1.048-0.28l-1.328-0.008V2.872z"/>
		<path fill="#020202" d="M32.961,2.04c0.298-0.176,0.626-0.271,0.984-0.287c0.021-0.006,0.044-0.009,0.068-0.009s0.049,0,0.076,0
			c0.378,0,0.704,0.098,0.976,0.292c0.272,0.195,0.408,0.562,0.408,1.101c0,0.938,0.001,1.566,0.004,1.884
			c0.003,0.317,0.018,0.572,0.044,0.764c0,0.021,0.001,0.042,0.004,0.061c0.002,0.019,0.006,0.036,0.012,0.052h-0.504
			c-0.005-0.005-0.008-0.011-0.008-0.016c-0.027-0.117-0.045-0.277-0.056-0.48c-0.075,0.134-0.177,0.244-0.308,0.332
			c-0.13,0.088-0.268,0.153-0.412,0.196C34.153,5.961,34.059,5.984,33.965,6c-0.093,0.017-0.177,0.024-0.252,0.024
			c-0.475,0-0.826-0.131-1.052-0.392c-0.227-0.262-0.34-0.55-0.34-0.864c0.032-0.565,0.261-0.927,0.688-1.084s1.08-0.236,1.96-0.236
			c0-0.314-0.044-0.604-0.132-0.868C34.75,2.316,34.5,2.185,34.089,2.185c-0.315,0-0.562,0.062-0.74,0.184
			c-0.179,0.123-0.268,0.294-0.268,0.513l-0.568-0.009C32.513,2.494,32.663,2.217,32.961,2.04z M34.969,3.881
			c-0.027,0.005-0.055,0.008-0.084,0.008s-0.057,0-0.084,0c-0.48,0-0.919,0.043-1.316,0.128c-0.397,0.085-0.596,0.336-0.596,0.752
			c0,0.277,0.091,0.482,0.272,0.616c0.181,0.133,0.387,0.2,0.616,0.2c0.026,0,0.052-0.002,0.076-0.005
			c0.024-0.002,0.046-0.004,0.068-0.004c0.112-0.011,0.22-0.037,0.324-0.08c0.104-0.042,0.199-0.096,0.284-0.159
			c0.139-0.107,0.248-0.254,0.328-0.44s0.123-0.427,0.128-0.72c0-0.043-0.001-0.088-0.004-0.137
			c-0.003-0.048-0.007-0.099-0.012-0.151V3.881z"/>
		<path fill="#020202" d="M37.229,5.328c0.216,0.134,0.449,0.2,0.7,0.2c0.314,0,0.583-0.066,0.804-0.2
			c0.221-0.133,0.332-0.341,0.332-0.624c0-0.261-0.116-0.44-0.348-0.54c-0.232-0.099-0.495-0.183-0.788-0.252
			c-0.027-0.005-0.054-0.01-0.08-0.016c-0.027-0.005-0.053-0.011-0.08-0.016c-0.32-0.075-0.615-0.181-0.884-0.316
			c-0.27-0.136-0.404-0.385-0.404-0.748c0-0.282,0.116-0.532,0.348-0.748s0.599-0.324,1.1-0.324c0.411,0,0.768,0.065,1.072,0.196
			c0.304,0.131,0.472,0.401,0.504,0.813l-0.568-0.009c-0.032-0.181-0.137-0.329-0.316-0.443c-0.179-0.115-0.409-0.172-0.692-0.172
			s-0.485,0.044-0.608,0.132c-0.123,0.088-0.203,0.183-0.24,0.284c-0.011,0.037-0.019,0.073-0.024,0.107
			c-0.005,0.035-0.008,0.068-0.008,0.101c0,0.197,0.099,0.34,0.296,0.428c0.197,0.088,0.426,0.164,0.688,0.228
			c0.053,0.017,0.105,0.029,0.156,0.04s0.103,0.024,0.156,0.04c0.32,0.086,0.614,0.206,0.884,0.36s0.404,0.421,0.404,0.8
			c0,0.438-0.173,0.776-0.52,1.016c-0.347,0.24-0.742,0.36-1.184,0.36c-0.075,0-0.152-0.004-0.232-0.012
			c-0.08-0.008-0.16-0.021-0.24-0.036c-0.261-0.054-0.504-0.176-0.728-0.368s-0.349-0.493-0.376-0.904l0.504-0.008
			C36.89,4.984,37.014,5.195,37.229,5.328z"/>
		<path fill="#020202" d="M40.073,1.864h0.816V1.049l0.504-0.192v1.008h0.944v0.44h-0.944v2.647c0,0.251,0.049,0.42,0.148,0.509
			c0.099,0.088,0.228,0.132,0.388,0.132c0.075,0,0.151-0.006,0.228-0.017s0.159-0.026,0.244-0.048v0.433
			c-0.102,0.026-0.2,0.046-0.296,0.06c-0.096,0.014-0.187,0.02-0.272,0.02c-0.315,0-0.551-0.079-0.708-0.239
			c-0.158-0.16-0.236-0.376-0.236-0.648V2.305h-0.816V1.864z"/>
		<path fill="#020202" d="M46.377,0.104l2.144,5.04l2.136-5.04h0.888v5.792h-0.568V0.664l-2.144,5.232h-0.632l-2.144-5.232v5.232
			h-0.56V0.104H46.377z"/>
		<path fill="#020202" d="M55.761,4.513h0.568c-0.128,0.538-0.344,0.914-0.648,1.128c-0.304,0.213-0.677,0.32-1.12,0.32
			c-0.651,0-1.115-0.189-1.392-0.568s-0.438-0.797-0.48-1.256c-0.005-0.054-0.009-0.105-0.012-0.156
			c-0.002-0.051-0.004-0.103-0.004-0.156c0-0.629,0.187-1.144,0.56-1.544c0.373-0.399,0.797-0.6,1.272-0.6
			c0.629,0,1.086,0.205,1.372,0.616c0.285,0.41,0.438,0.863,0.46,1.359c0,0.021,0,0.042,0,0.061s0,0.036,0,0.052s0,0.032,0,0.048
			s0,0.029,0,0.04c-0.005,0.016-0.008,0.032-0.008,0.048c0,0.017,0,0.032,0,0.048l-3.088-0.008c0,0.086,0.007,0.174,0.02,0.264
			c0.013,0.091,0.033,0.185,0.06,0.28c0.069,0.262,0.197,0.5,0.384,0.716c0.187,0.217,0.442,0.324,0.768,0.324
			c0.011,0,0.019,0,0.024,0c0.005,0,0.013,0,0.024,0c0.005,0,0.012,0,0.02,0c0.008,0,0.015,0,0.02,0
			c0.304-0.021,0.537-0.091,0.7-0.208s0.281-0.242,0.356-0.376c0.043-0.08,0.075-0.156,0.096-0.228
			c0.021-0.072,0.037-0.138,0.048-0.196V4.513z M55.761,3.484c0-0.008,0.003-0.018,0.008-0.028c0-0.01,0-0.02,0-0.027
			s0-0.018,0-0.028c0-0.341-0.099-0.612-0.296-0.812c-0.197-0.2-0.416-0.324-0.656-0.372c-0.043-0.011-0.085-0.019-0.128-0.024
			c-0.043-0.005-0.085-0.008-0.128-0.008c-0.08,0-0.171,0.007-0.272,0.02c-0.102,0.014-0.206,0.047-0.312,0.101
			c-0.144,0.069-0.284,0.195-0.42,0.38c-0.136,0.184-0.241,0.46-0.316,0.828l2.52-0.008C55.761,3.499,55.761,3.492,55.761,3.484z"/>
		<path fill="#020202" d="M60.545,4.513c0,0.16,0.003,0.354,0.008,0.58c0.005,0.227,0.024,0.494,0.056,0.804h-0.568
			c-0.005-0.016-0.011-0.036-0.016-0.06c-0.005-0.024-0.011-0.05-0.016-0.076c-0.016-0.106-0.027-0.248-0.032-0.424
			c-0.091,0.187-0.25,0.348-0.476,0.483s-0.465,0.204-0.716,0.204c-0.016,0-0.032,0-0.048,0c-0.016,0-0.03,0-0.04,0
			c-0.55,0.005-0.951-0.186-1.204-0.572c-0.253-0.387-0.404-0.812-0.452-1.275c-0.011-0.069-0.017-0.139-0.02-0.208
			c-0.002-0.069-0.004-0.139-0.004-0.208c0-0.555,0.103-0.977,0.308-1.265c0.205-0.288,0.433-0.49,0.684-0.607
			c0.117-0.054,0.232-0.091,0.344-0.112s0.213-0.032,0.304-0.032c0.378,0,0.67,0.06,0.876,0.177
			c0.205,0.117,0.353,0.269,0.444,0.456V0.104h0.568V4.513z M57.585,3.753c0,0.57,0.097,1.009,0.292,1.315s0.498,0.46,0.908,0.46
			c0.442,0,0.763-0.177,0.96-0.532c0.197-0.354,0.296-0.767,0.296-1.235c0-0.475-0.133-0.856-0.4-1.145s-0.573-0.432-0.92-0.432
			c-0.374,0.026-0.644,0.168-0.812,0.424s-0.271,0.533-0.308,0.832c-0.005,0.054-0.009,0.106-0.012,0.16
			c-0.002,0.054-0.004,0.106-0.004,0.16V3.753z"/>
		<path fill="#020202" d="M62.313,0.104v0.624h-0.632V0.104H62.313z M62.249,1.864v4.032h-0.504V1.864H62.249z"/>
		<path fill="#020202" d="M65.757,2.448c-0.179-0.176-0.425-0.264-0.74-0.264c-0.368,0-0.648,0.121-0.84,0.364
			c-0.192,0.242-0.317,0.511-0.376,0.804c-0.016,0.08-0.028,0.16-0.036,0.24c-0.008,0.08-0.012,0.157-0.012,0.231
			c0,0.064,0.001,0.131,0.004,0.2c0.003,0.069,0.009,0.139,0.02,0.208c0.032,0.325,0.136,0.627,0.312,0.904
			c0.176,0.277,0.485,0.429,0.928,0.456c0.25,0,0.481-0.091,0.692-0.272c0.21-0.181,0.316-0.427,0.316-0.735l0.568-0.009
			c-0.032,0.475-0.184,0.835-0.456,1.08s-0.646,0.368-1.12,0.368c-0.469,0-0.881-0.169-1.236-0.508
			c-0.355-0.339-0.532-0.902-0.532-1.692c0-0.538,0.106-0.956,0.32-1.252s0.451-0.508,0.712-0.636
			c0.133-0.069,0.265-0.119,0.396-0.148c0.13-0.029,0.244-0.044,0.34-0.044c0.011,0,0.02,0,0.028,0c0.008,0,0.018,0,0.028,0
			c0.005,0,0.013-0.001,0.024-0.004c0.011-0.002,0.019-0.004,0.024-0.004c0.384,0,0.72,0.131,1.008,0.393
			c0.288,0.261,0.443,0.549,0.464,0.863c0,0.011,0,0.021,0,0.032s0,0.021,0,0.032c0,0.016,0,0.03,0,0.044s0,0.025,0,0.036
			l-0.568-0.008C66.025,2.852,65.936,2.624,65.757,2.448z"/>
		<path fill="#020202" d="M67.793,2.04c0.298-0.176,0.626-0.271,0.984-0.287c0.021-0.006,0.044-0.009,0.068-0.009s0.049,0,0.076,0
			c0.378,0,0.704,0.098,0.976,0.292c0.272,0.195,0.408,0.562,0.408,1.101c0,0.938,0.001,1.566,0.004,1.884
			c0.003,0.317,0.018,0.572,0.044,0.764c0,0.021,0.001,0.042,0.004,0.061c0.002,0.019,0.006,0.036,0.012,0.052h-0.504
			c-0.005-0.005-0.008-0.011-0.008-0.016c-0.027-0.117-0.045-0.277-0.056-0.48c-0.075,0.134-0.177,0.244-0.308,0.332
			c-0.13,0.088-0.268,0.153-0.412,0.196C68.985,5.961,68.89,5.984,68.797,6c-0.093,0.017-0.177,0.024-0.252,0.024
			c-0.475,0-0.826-0.131-1.052-0.392c-0.227-0.262-0.34-0.55-0.34-0.864c0.032-0.565,0.261-0.927,0.688-1.084s1.08-0.236,1.96-0.236
			c0-0.314-0.044-0.604-0.132-0.868c-0.088-0.264-0.337-0.396-0.748-0.396c-0.315,0-0.562,0.062-0.74,0.184
			c-0.179,0.123-0.268,0.294-0.268,0.513l-0.568-0.009C67.345,2.494,67.494,2.217,67.793,2.04z M69.801,3.881
			c-0.027,0.005-0.055,0.008-0.084,0.008s-0.057,0-0.084,0c-0.48,0-0.919,0.043-1.316,0.128c-0.397,0.085-0.596,0.336-0.596,0.752
			c0,0.277,0.091,0.482,0.272,0.616c0.181,0.133,0.387,0.2,0.616,0.2c0.026,0,0.052-0.002,0.076-0.005
			c0.024-0.002,0.046-0.004,0.068-0.004c0.112-0.011,0.22-0.037,0.324-0.08c0.104-0.042,0.199-0.096,0.284-0.159
			c0.139-0.107,0.248-0.254,0.328-0.44s0.123-0.427,0.128-0.72c0-0.043-0.001-0.088-0.004-0.137
			c-0.003-0.048-0.007-0.099-0.012-0.151V3.881z"/>
		<path fill="#020202" d="M71.945,0.104v5.792H71.44V0.104H71.945z"/>
		<path fill="#020202" d="M76.096,0.104v2.52h3.088v-2.52h0.568v5.792h-0.568V3.129h-3.088v2.768h-0.568V0.104H76.096z"/>
		<path fill="#020202" d="M81.712,0.104v0.624H81.08V0.104H81.712z M81.648,1.864v4.032h-0.504V1.864H81.648z"/>
		<path fill="#020202" d="M83.524,5.328c0.216,0.134,0.449,0.2,0.7,0.2c0.314,0,0.583-0.066,0.804-0.2
			c0.221-0.133,0.332-0.341,0.332-0.624c0-0.261-0.116-0.44-0.348-0.54c-0.232-0.099-0.495-0.183-0.788-0.252
			c-0.027-0.005-0.054-0.01-0.08-0.016c-0.027-0.005-0.053-0.011-0.08-0.016c-0.32-0.075-0.615-0.181-0.884-0.316
			c-0.27-0.136-0.404-0.385-0.404-0.748c0-0.282,0.116-0.532,0.348-0.748s0.599-0.324,1.1-0.324c0.411,0,0.768,0.065,1.072,0.196
			c0.304,0.131,0.472,0.401,0.504,0.813l-0.568-0.009c-0.032-0.181-0.137-0.329-0.316-0.443c-0.179-0.115-0.409-0.172-0.692-0.172
			s-0.485,0.044-0.608,0.132c-0.123,0.088-0.203,0.183-0.24,0.284c-0.011,0.037-0.019,0.073-0.024,0.107
			c-0.005,0.035-0.008,0.068-0.008,0.101c0,0.197,0.099,0.34,0.296,0.428c0.197,0.088,0.426,0.164,0.688,0.228
			c0.053,0.017,0.105,0.029,0.156,0.04s0.103,0.024,0.156,0.04c0.32,0.086,0.614,0.206,0.884,0.36s0.404,0.421,0.404,0.8
			c0,0.438-0.173,0.776-0.52,1.016c-0.347,0.24-0.742,0.36-1.184,0.36c-0.075,0-0.152-0.004-0.232-0.012
			c-0.08-0.008-0.16-0.021-0.24-0.036c-0.261-0.054-0.504-0.176-0.728-0.368s-0.349-0.493-0.376-0.904l0.504-0.008
			C83.185,4.984,83.309,5.195,83.524,5.328z"/>
		<path fill="#020202" d="M86.368,1.864h0.816V1.049l0.504-0.192v1.008h0.944v0.44h-0.944v2.647c0,0.251,0.049,0.42,0.148,0.509
			c0.099,0.088,0.228,0.132,0.388,0.132c0.075,0,0.151-0.006,0.228-0.017s0.159-0.026,0.244-0.048v0.433
			c-0.102,0.026-0.2,0.046-0.296,0.06c-0.096,0.014-0.187,0.02-0.272,0.02c-0.315,0-0.551-0.079-0.708-0.239
			c-0.158-0.16-0.236-0.376-0.236-0.648V2.305h-0.816V1.864z"/>
		<path fill="#020202" d="M89.2,3.816c0-0.592,0.164-1.096,0.492-1.512c0.328-0.416,0.774-0.624,1.34-0.624s1.021,0.2,1.368,0.6
			c0.346,0.4,0.52,0.915,0.52,1.544c0,0.63-0.171,1.153-0.512,1.572s-0.779,0.628-1.312,0.628s-0.983-0.209-1.348-0.628
			S89.2,4.454,89.2,3.824V3.816z M89.704,3.816c0.032,0.475,0.169,0.89,0.412,1.244s0.569,0.532,0.98,0.532
			c0.405,0,0.725-0.182,0.96-0.544c0.235-0.363,0.354-0.763,0.36-1.2c0-0.006,0-0.01,0-0.012c0-0.003,0-0.007,0-0.013
			c0-0.427-0.12-0.815-0.36-1.168c-0.24-0.352-0.552-0.527-0.936-0.527c-0.005,0-0.012,0-0.02,0c-0.008,0-0.015,0-0.02,0
			c-0.011,0-0.019,0-0.024,0s-0.013,0-0.024,0c-0.411,0.026-0.735,0.205-0.972,0.535c-0.237,0.331-0.356,0.718-0.356,1.16V3.816z"/>
		<path fill="#020202" d="M93.864,1.864h0.504c0.016,0.054,0.028,0.101,0.036,0.141c0.008,0.04,0.015,0.078,0.02,0.115
			c0.005,0.043,0.008,0.084,0.008,0.124s0,0.084,0,0.133c0.112-0.32,0.276-0.507,0.492-0.561c0.216-0.053,0.465-0.077,0.748-0.072
			c0.021,0,0.044,0,0.068,0s0.049,0,0.076,0v0.433c-0.038,0-0.073-0.002-0.108-0.004C95.673,2.17,95.637,2.169,95.6,2.169
			c-0.326,0-0.602,0.106-0.828,0.319c-0.227,0.214-0.34,0.491-0.34,0.832v2.576h-0.504V2.561c0-0.059,0-0.116,0-0.172
			c0-0.057-0.002-0.113-0.008-0.172c-0.005-0.054-0.012-0.108-0.02-0.164c-0.008-0.057-0.02-0.116-0.036-0.181V1.864z"/>
		<path fill="#020202" d="M96.576,1.864l1.384,3.28l1.32-3.28h0.568l-2.264,5.544h-0.568l0.632-1.576l-1.704-3.968H96.576z"/>
	</g>
</g>
</svg>
