<?xml version="1.0" encoding="utf-8"?>
<!-- Generator: Adobe Illustrator 17.0.0, SVG Export Plug-In . SVG Version: 6.00 Build 0)  -->
<!DOCTYPE svg PUBLIC "-//W3C//DTD SVG 1.1//EN" "http://www.w3.org/Graphics/SVG/1.1/DTD/svg11.dtd">
<svg version="1.1" id="Layer_1" xmlns="http://www.w3.org/2000/svg" xmlns:xlink="http://www.w3.org/1999/xlink" x="0px" y="0px"
	 width="89.506px" height="43.566px" viewBox="0 0 89.506 43.566" enable-background="new 0 0 89.506 43.566" xml:space="preserve">
<g>
	<g>
		<path fill="#FFFFFF" d="M24.145,11.116v-1.35h3.491v5.963l-0.841,0.255c-0.294,0.08-0.617,0.142-0.968,0.187
			c-0.532,0.079-1.045,0.116-1.538,0.11c-1.297,0-2.22-0.297-2.769-0.892c-0.481-0.521-0.725-1.461-0.73-2.82V8.237
			c0.005-1.229,0.099-2.07,0.28-2.523c0.34-0.844,0.965-1.373,1.877-1.588c0.431-0.102,0.889-0.156,1.376-0.161
			c1.087,0.017,1.907,0.265,2.459,0.743S27.62,5.98,27.636,7.09v0.391h-1.648V7.209c0-0.187-0.017-0.382-0.051-0.586
			c-0.136-0.872-0.657-1.308-1.563-1.308c-0.821,0.017-1.362,0.277-1.623,0.781c-0.159,0.278-0.249,0.589-0.271,0.935
			c-0.034,0.312-0.048,0.648-0.042,1.011v4.247c-0.006,0.917,0.076,1.543,0.246,1.877c0.26,0.527,0.81,0.782,1.648,0.765
			c0.312,0.006,0.625-0.031,0.943-0.11l0.713-0.212v-3.491h-1.843V11.116z"/>
		<path fill="#FFFFFF" d="M31.162,7.769v1.028c0.238-0.413,0.515-0.708,0.833-0.883c0.209-0.119,0.414-0.201,0.612-0.246L33.099,7.6
			v1.529l-0.519,0.05c-0.555,0.068-0.937,0.3-1.146,0.697c-0.181,0.368-0.272,0.912-0.272,1.631v4.604h-1.546V7.769H31.162z"/>
		<path fill="#FFFFFF" d="M34.007,10.955C34.012,10.089,34.1,9.44,34.27,9.01c0.266-0.646,0.745-1.067,1.436-1.266
			c0.323-0.096,0.663-0.144,1.02-0.144c0.351,0,0.69,0.048,1.019,0.144c0.43,0.125,0.77,0.332,1.02,0.62
			c0.436,0.504,0.66,1.368,0.671,2.591v2.09c0.006,1.104-0.164,1.886-0.51,2.344c-0.441,0.601-1.164,0.897-2.166,0.892
			c-1.591,0.017-2.483-0.663-2.676-2.039c-0.057-0.362-0.082-0.762-0.076-1.198v-2.089H34.007z M35.553,13.045l0.025,0.807
			c0.051,0.844,0.439,1.263,1.164,1.257c0.504-0.011,0.838-0.255,1.002-0.73c0.096-0.277,0.145-0.722,0.145-1.333V10.82
			c0-1.376-0.391-2.059-1.172-2.047c-0.702-0.011-1.079,0.408-1.13,1.257l-0.034,0.79V13.045z"/>
		<path fill="#FFFFFF" d="M42.612,7.769v5.624c0.005,0.595,0.04,0.977,0.102,1.147c0.153,0.391,0.458,0.581,0.917,0.569
			c0.3,0.006,0.552-0.068,0.756-0.221c0.255-0.175,0.419-0.456,0.493-0.841c0.045-0.227,0.068-0.476,0.068-0.748v-5.53h1.546v8.342
			h-1.546v-0.739l-0.289,0.34c-0.385,0.379-0.903,0.569-1.554,0.569c-0.578,0-1.065-0.167-1.461-0.501
			c-0.368-0.312-0.558-0.785-0.569-1.419l-0.008-0.9V7.769H42.612z"/>
		<path fill="#FFFFFF" d="M48.125,7.769h1.546v0.833c0.192-0.243,0.362-0.424,0.51-0.543c0.356-0.3,0.813-0.453,1.368-0.458
			c1.07,0,1.71,0.572,1.919,1.716c0.057,0.328,0.085,0.657,0.085,0.985v2.591c0,0.493-0.025,0.962-0.076,1.41
			c-0.142,1.308-0.833,1.968-2.073,1.979c-0.549-0.006-0.983-0.142-1.3-0.408c-0.13-0.09-0.275-0.232-0.433-0.425v3.754h-1.546
			V7.769z M49.671,12.892c-0.006,0.34,0.011,0.674,0.051,1.002c0.028,0.289,0.088,0.516,0.179,0.68
			c0.175,0.368,0.501,0.547,0.977,0.535c0.663-0.011,1.025-0.43,1.087-1.257c0.028-0.323,0.042-0.654,0.042-0.994v-2.259
			l-0.025-0.68c-0.085-0.776-0.442-1.158-1.07-1.147c-0.47-0.005-0.804,0.207-1.002,0.637c-0.107,0.221-0.176,0.458-0.204,0.713
			s-0.04,0.538-0.034,0.85v1.92H49.671z"/>
		<path fill="#FFFFFF" d="M62.319,4.159h2.107v7.705h1.444v1.325h-1.444v2.922H62.88v-2.922h-4.307v-1.292L62.319,4.159z
			 M59.95,11.864h2.93V5.739L59.95,11.864z"/>
		<path fill="#FFFFFF" d="M67.314,7.769h1.826v1.827h-1.826V7.769z M69.14,14.285v1.826h-1.826v-1.826H69.14z"/>
		<path fill="#FFFFFF" d="M19.486,30.26v-1.351h3.491v5.963l-0.841,0.255c-0.294,0.08-0.617,0.142-0.968,0.187
			c-0.532,0.079-1.045,0.116-1.538,0.11c-1.297,0-2.22-0.297-2.769-0.892c-0.481-0.521-0.725-1.461-0.73-2.82V27.38
			c0.005-1.229,0.099-2.07,0.28-2.523c0.34-0.844,0.965-1.373,1.877-1.588c0.431-0.102,0.889-0.156,1.376-0.161
			c1.087,0.017,1.907,0.265,2.459,0.743s0.837,1.273,0.854,2.383v0.391h-1.648v-0.272c0-0.187-0.017-0.382-0.051-0.586
			c-0.136-0.872-0.657-1.308-1.563-1.308c-0.821,0.017-1.362,0.277-1.623,0.781c-0.159,0.278-0.249,0.589-0.271,0.935
			c-0.034,0.312-0.048,0.648-0.042,1.011v4.247c-0.006,0.917,0.076,1.543,0.246,1.877c0.26,0.527,0.81,0.782,1.648,0.765
			c0.312,0.006,0.625-0.031,0.943-0.11l0.713-0.212V30.26H19.486z"/>
		<path fill="#FFFFFF" d="M26.409,26.913v5.624c0.005,0.595,0.04,0.977,0.102,1.147c0.153,0.391,0.458,0.581,0.917,0.569
			c0.3,0.006,0.552-0.068,0.756-0.221c0.255-0.175,0.419-0.456,0.493-0.841c0.045-0.227,0.068-0.476,0.068-0.748v-5.53h1.546v8.342
			h-1.546v-0.739l-0.289,0.34c-0.385,0.379-0.903,0.569-1.554,0.569c-0.578,0-1.065-0.167-1.461-0.501
			c-0.368-0.312-0.558-0.785-0.569-1.419l-0.008-0.9v-5.691L26.409,26.913L26.409,26.913z"/>
		<path fill="#FFFFFF" d="M33.544,23.26v1.563h-1.665V23.26H33.544z M31.938,26.913h1.546v8.342h-1.546
			C31.938,35.255,31.938,26.913,31.938,26.913z"/>
		<path fill="#FFFFFF" d="M40.578,23.26v11.994h-1.546V34.49c-0.572,0.634-1.169,0.946-1.792,0.935
			c-0.504,0.005-0.933-0.137-1.287-0.429s-0.579-0.681-0.675-1.168c-0.085-0.385-0.127-0.804-0.127-1.257v-2.778
			c-0.017-2.039,0.711-3.055,2.183-3.049c0.544,0.005,0.98,0.139,1.309,0.399c0.102,0.085,0.232,0.204,0.391,0.357v-4.24H40.578z
			 M36.696,32.307c-0.006,0.408,0.005,0.725,0.034,0.952c0.051,0.674,0.399,1.005,1.045,0.994c0.374,0,0.666-0.13,0.875-0.391
			c0.249-0.312,0.376-0.94,0.382-1.886v-2.438c0-0.294-0.025-0.563-0.077-0.807c-0.051-0.243-0.161-0.438-0.331-0.586
			c-0.182-0.147-0.414-0.224-0.697-0.229c-0.725,0.006-1.121,0.411-1.189,1.215c-0.034,0.277-0.048,0.598-0.042,0.96V32.307z"/>
		<path fill="#FFFFFF" d="M43.585,32.528c-0.006,0.566,0.04,0.962,0.136,1.189c0.147,0.346,0.481,0.524,1.002,0.535
			c0.691,0,1.079-0.317,1.164-0.951l0.034-0.357v-0.195h1.546v0.195l-0.025,0.578c-0.125,1.274-1.04,1.908-2.744,1.903
			c-0.396,0.005-0.762-0.04-1.096-0.136c-0.442-0.113-0.788-0.332-1.037-0.654c-0.34-0.408-0.515-1.135-0.526-2.183V30.09
			c-0.006-1.167,0.155-1.979,0.484-2.438c0.436-0.606,1.192-0.909,2.268-0.909c1.653,0.017,2.534,0.713,2.642,2.089
			c0.023,0.266,0.034,0.575,0.034,0.926v1.869h-3.882C43.585,31.627,43.585,32.528,43.585,32.528z M43.585,30.455h2.336v-0.96
			c-0.006-1.036-0.394-1.563-1.164-1.58c-0.493,0.012-0.83,0.218-1.011,0.62c-0.107,0.232-0.161,0.646-0.161,1.24
			C43.585,29.775,43.585,30.455,43.585,30.455z"/>
		<path fill="#FFFFFF" d="M50.491,23.26v11.994h-1.546V23.26H50.491z"/>
		<path fill="#FFFFFF" d="M53.761,23.26v1.563h-1.665V23.26H53.761z M52.155,26.913h1.546v8.342h-1.546V26.913z"/>
		<path fill="#FFFFFF" d="M55.35,26.913h1.546v0.731c0.453-0.601,1.084-0.9,1.894-0.9c0.329,0,0.637,0.059,0.926,0.178
			c0.657,0.266,1.005,0.795,1.044,1.588l0.017,1.07v5.674h-1.546v-5.258l-0.017-0.841c-0.028-0.827-0.388-1.24-1.079-1.24
			c-0.521,0.012-0.867,0.221-1.037,0.629c-0.096,0.227-0.156,0.471-0.178,0.734c-0.022,0.264-0.031,0.542-0.025,0.837v5.139H55.35
			V26.913z"/>
		<path fill="#FFFFFF" d="M63.802,32.528c-0.006,0.566,0.04,0.962,0.136,1.189c0.147,0.346,0.481,0.524,1.002,0.535
			c0.691,0,1.079-0.317,1.164-0.951l0.034-0.357v-0.195h1.546v0.195l-0.025,0.578c-0.125,1.274-1.04,1.908-2.744,1.903
			c-0.396,0.005-0.762-0.04-1.096-0.136c-0.442-0.113-0.788-0.332-1.037-0.654c-0.34-0.408-0.515-1.135-0.526-2.183V30.09
			c-0.006-1.167,0.155-1.979,0.484-2.438c0.436-0.606,1.192-0.909,2.268-0.909c1.653,0.017,2.534,0.713,2.642,2.089
			c0.023,0.266,0.034,0.575,0.034,0.926v1.869h-3.882C63.802,31.627,63.802,32.528,63.802,32.528z M63.802,30.455h2.336v-0.96
			c-0.006-1.036-0.394-1.563-1.164-1.58c-0.493,0.012-0.83,0.218-1.011,0.62c-0.107,0.232-0.161,0.646-0.161,1.24V30.455z"/>
		<path fill="#FFFFFF" d="M70.486,32.715v0.306l0.026,0.34c0.096,0.611,0.436,0.909,1.019,0.892c0.691-0.005,1.048-0.34,1.07-1.002
			c0-0.226-0.057-0.427-0.17-0.603c-0.153-0.215-0.345-0.419-0.578-0.611l-0.773-0.578l-0.815-0.612
			c-0.368-0.289-0.634-0.561-0.798-0.815c-0.204-0.312-0.303-0.708-0.297-1.189c0-1.394,0.813-2.093,2.438-2.098
			c0.425,0,0.818,0.057,1.181,0.169c0.713,0.221,1.11,0.722,1.189,1.504l0.026,0.637v0.272h-1.546v-0.263v-0.306
			c-0.051-0.549-0.348-0.83-0.892-0.841c-0.555-0.005-0.838,0.283-0.85,0.867c0,0.215,0.048,0.394,0.145,0.535
			c0.125,0.187,0.326,0.385,0.603,0.594l0.96,0.705c0.844,0.595,1.359,1.102,1.546,1.521c0.113,0.278,0.173,0.595,0.178,0.952
			c-0.011,0.753-0.26,1.339-0.748,1.758c-0.447,0.379-1.062,0.572-1.843,0.578c-1.58-0.006-2.443-0.668-2.591-1.988l-0.025-0.425
			v-0.297h1.545V32.715z"/>
	</g>
</g>
</svg>
