<?xml version="1.0" encoding="utf-8"?>
<!-- Generator: Adobe Illustrator 17.0.0, SVG Export Plug-In . SVG Version: 6.00 Build 0)  -->
<!DOCTYPE svg PUBLIC "-//W3C//DTD SVG 1.1//EN" "http://www.w3.org/Graphics/SVG/1.1/DTD/svg11.dtd">
<svg version="1.1" id="Layer_1" xmlns="http://www.w3.org/2000/svg" xmlns:xlink="http://www.w3.org/1999/xlink" x="0px" y="0px"
	 width="204.561px" height="51.519px" viewBox="0 0 204.561 51.519" enable-background="new 0 0 204.561 51.519"
	 xml:space="preserve">
<g>
	<g>
		<path fill="#020202" d="M0.685,1.387l1.368,0.198L1.206,0.514l0.838-0.46l0.504,1.243l0.531-1.27l0.837,0.495L3.034,1.585
			l1.377-0.162L4.394,2.377L3.052,2.17l0.847,1.107L3.061,3.736l-0.521-1.27L2.017,3.745L1.206,3.259l0.838-1.098l-1.359,0.18V1.387
			z"/>
		<path fill="#020202" d="M9.136,0.019l2.26,6.509H9.991L9.523,5.123H6.948L6.462,6.527H5.13l2.35-6.509H9.136z M9.172,4.069
			l-0.9-2.772L7.309,4.069H9.172z"/>
		<path fill="#020202" d="M12.123,0.019h2.494c0.72-0.01,1.449-0.01,1.972,0.44c0.404,0.352,0.566,0.828,0.566,1.252
			c0,1.215-1.044,1.503-1.359,1.593c0.981,0.091,1.054,0.648,1.171,1.495c0.099,0.765,0.153,1.08,0.198,1.26
			c0.071,0.288,0.126,0.36,0.197,0.469h-1.539c-0.063-0.36-0.261-2.008-0.352-2.26c-0.126-0.369-0.468-0.369-0.702-0.369h-1.224
			v2.629h-1.423V0.019z M13.501,2.863h1.125c0.162,0,0.486,0,0.711-0.181c0.1-0.071,0.36-0.297,0.36-0.756
			c0-0.441-0.216-0.648-0.342-0.729c-0.217-0.152-0.478-0.152-0.919-0.152h-0.936V2.863z"/>
		<path fill="#020202" d="M18.198,0.027h2.431c0.378,0,1.107,0,1.603,0.306c0.594,0.378,0.729,1.009,0.729,1.387
			c0,0.243-0.046,0.666-0.379,0.973c-0.045,0.054-0.359,0.342-0.738,0.44v0.019c0.991,0.18,1.378,0.9,1.378,1.584
			c0,0.766-0.45,1.278-0.954,1.53c-0.505,0.262-1.387,0.262-1.639,0.262h-2.431V0.027z M19.53,2.674h0.973
			c0.396,0,1.116,0,1.116-0.837c0-0.811-0.685-0.811-1.144-0.811H19.53V2.674z M19.53,5.482h0.945c0.64,0,1.359,0,1.359-0.873
			c0-0.927-0.837-0.927-1.503-0.927H19.53V5.482z"/>
		<path fill="#020202" d="M24.273,1.98h1.134v1.216h-1.134V1.98z M24.273,5.32h1.134v1.207h-1.134V5.32z"/>
		<path fill="#020202" d="M32.644,0.019l2.26,6.509h-1.404l-0.468-1.404h-2.575L29.97,6.527h-1.332l2.35-6.509H32.644z M32.68,4.069
			l-0.9-2.772l-0.963,2.772H32.68z"/>
		<path fill="#020202" d="M35.694,2.791c0-0.018,0-0.513-0.027-0.828h1.278l0.036,0.684c0.126-0.207,0.486-0.792,1.477-0.792
			c0.891,0,1.27,0.54,1.387,0.855c0.099,0.279,0.126,0.513,0.126,1.359v2.458h-1.359V3.7c0-0.189,0-0.351-0.072-0.495
			c-0.1-0.198-0.307-0.387-0.648-0.387c-0.288,0-0.549,0.135-0.693,0.351c-0.081,0.117-0.162,0.342-0.162,0.693v2.665h-1.341V2.791z
			"/>
		<path fill="#020202" d="M45.487,1.999c-0.036,0.359-0.063,0.666-0.063,1.125v3.358c0,1.674-1.395,1.836-2.269,1.836
			c-0.647,0-1.917-0.081-1.998-1.458h1.278c0.018,0.135,0.081,0.63,0.792,0.63c0.396,0,0.738-0.188,0.828-0.594
			c0.055-0.226,0.055-0.388,0.063-1.081c-0.424,0.559-0.9,0.622-1.225,0.622c-1.306,0-1.918-1.135-1.918-2.233
			c0-1.152,0.64-2.25,1.945-2.25c0.828,0,1.134,0.45,1.269,0.647l0.046-0.603H45.487z M43.2,5.527c0.937,0,0.937-1.098,0.937-1.296
			c0-0.513-0.099-1.387-0.909-1.387c-0.504,0-0.918,0.388-0.918,1.359C42.31,4.43,42.31,5.527,43.2,5.527z"/>
		<path fill="#020202" d="M46.629,0.027h1.423v1.161h-1.423V0.027z M46.674,1.972h1.333v4.556h-1.333V1.972z"/>
		<path fill="#020202" d="M51.318,1.873c1.647,0,2.359,1.116,2.359,2.386c0,1.278-0.738,2.431-2.386,2.431
			c-1.297,0-2.323-0.802-2.323-2.395C48.969,3.196,49.527,1.873,51.318,1.873z M51.337,5.762c0.585,0,0.981-0.351,0.981-1.558
			c0-0.603-0.117-1.44-1-1.44c-0.972,0-0.981,1.126-0.981,1.54C50.337,5.32,50.68,5.762,51.337,5.762z"/>
		<path fill="#020202" d="M57.349,6.464c-0.432,0.117-0.819,0.145-1.035,0.145c-1.342,0-1.342-0.847-1.342-1.225V2.89h-0.873V2.008
			h0.873V1.116l1.324-0.486v1.378h1.08V2.89h-1.08v2.053c0.009,0.414,0.009,0.676,0.603,0.676c0.198,0,0.288-0.01,0.45-0.027V6.464z
			"/>
		<path fill="#020202" d="M59.247,4.592c0,0.297,0,1.215,0.928,1.215c0.333,0,0.666-0.126,0.792-0.63h1.216
			c-0.019,0.216-0.063,0.604-0.433,0.99c-0.333,0.352-0.927,0.531-1.594,0.531c-0.387,0-1.125-0.072-1.603-0.567
			c-0.414-0.432-0.585-1.044-0.585-1.773c0-0.738,0.181-1.62,0.945-2.151c0.352-0.234,0.783-0.378,1.278-0.378
			c0.648,0,1.423,0.252,1.837,1.098c0.306,0.621,0.288,1.288,0.27,1.666H59.247z M60.939,3.754c0-0.207-0.018-1.017-0.792-1.017
			c-0.585,0-0.828,0.485-0.855,1.017H60.939z"/>
		<path fill="#020202" d="M63.198,2.791c0-0.018,0-0.513-0.027-0.828h1.278l0.036,0.684c0.126-0.207,0.486-0.792,1.477-0.792
			c0.891,0,1.27,0.54,1.387,0.855c0.099,0.279,0.126,0.513,0.126,1.359v2.458h-1.359V3.7c0-0.189,0-0.351-0.072-0.495
			c-0.1-0.198-0.307-0.387-0.648-0.387c-0.288,0-0.549,0.135-0.693,0.351c-0.081,0.117-0.162,0.342-0.162,0.693v2.665h-1.341V2.791z
			"/>
		<path fill="#020202" d="M69.606,5.213c0.018,0.288,0.198,0.621,0.756,0.621c0.478,0,0.702-0.271,0.702-0.54
			c0-0.207-0.107-0.369-0.63-0.514l-0.828-0.225c-0.369-0.108-1.152-0.333-1.152-1.261c0-0.882,0.81-1.422,1.989-1.422
			c0.937,0,1.692,0.432,1.729,1.341h-1.215c-0.036-0.504-0.441-0.54-0.648-0.54c-0.36,0-0.63,0.171-0.63,0.45
			c0,0.307,0.225,0.369,0.621,0.478l0.818,0.225c0.829,0.226,1.216,0.648,1.216,1.27c0,0.783-0.675,1.566-2.089,1.566
			c-0.585,0-1.143-0.126-1.558-0.559c-0.297-0.314-0.323-0.675-0.333-0.891H69.606z"/>
		<path fill="#020202" d="M73.134,0.027h1.423v1.161h-1.423V0.027z M73.179,1.972h1.333v4.556h-1.333V1.972z"/>
		<path fill="#020202" d="M75.699,2.791c0-0.018,0-0.513-0.027-0.828h1.278l0.036,0.684c0.126-0.207,0.486-0.792,1.477-0.792
			c0.891,0,1.27,0.54,1.386,0.855c0.1,0.279,0.127,0.513,0.127,1.359v2.458h-1.359V3.7c0-0.189,0-0.351-0.072-0.495
			c-0.1-0.198-0.307-0.387-0.648-0.387c-0.288,0-0.549,0.135-0.693,0.351c-0.081,0.117-0.162,0.342-0.162,0.693v2.665h-1.341V2.791z
			"/>
		<path fill="#020202" d="M83.637,0h1.396v6.527h-1.396V0z"/>
		<path fill="#020202" d="M86.139,0h1.396v6.527h-1.396V0z"/>
		<path fill="#020202" d="M91.188,3.097c0-0.216-0.036-0.873-0.063-1.134h1.251l0.027,0.873c0.171-0.387,0.468-0.937,1.548-0.882
			v1.197c-1.35-0.126-1.431,0.567-1.431,1.134v2.242h-1.333V3.097z"/>
		<path fill="#020202" d="M95.76,4.592c0,0.297,0,1.215,0.928,1.215c0.333,0,0.666-0.126,0.792-0.63h1.216
			c-0.019,0.216-0.063,0.604-0.433,0.99c-0.333,0.352-0.927,0.531-1.594,0.531c-0.387,0-1.125-0.072-1.603-0.567
			c-0.414-0.432-0.585-1.044-0.585-1.773c0-0.738,0.181-1.62,0.945-2.151c0.352-0.234,0.783-0.378,1.278-0.378
			c0.648,0,1.423,0.252,1.837,1.098c0.306,0.621,0.288,1.288,0.27,1.666H95.76z M97.452,3.754c0-0.207-0.018-1.017-0.792-1.017
			c-0.585,0-0.828,0.485-0.855,1.017H97.452z"/>
		<path fill="#020202" d="M102.097,3.592c-0.019-0.161-0.072-0.837-0.586-0.837c-0.63,0-0.702,0.954-0.702,1.449
			c0,0.252,0.027,1.063,0.333,1.396c0.127,0.136,0.262,0.153,0.36,0.153c0.145,0,0.559-0.063,0.612-0.873h1.314
			c-0.018,0.351-0.063,0.9-0.585,1.341c-0.324,0.279-0.729,0.424-1.297,0.424c-0.603,0-1.134-0.136-1.548-0.604
			c-0.396-0.459-0.576-1.063-0.576-1.792c0-2.07,1.521-2.358,2.124-2.358c0.847,0,1.846,0.468,1.854,1.701H102.097z"/>
		<path fill="#020202" d="M105.264,4.592c0,0.297,0,1.215,0.928,1.215c0.333,0,0.666-0.126,0.792-0.63h1.216
			c-0.019,0.216-0.063,0.604-0.433,0.99c-0.333,0.352-0.927,0.531-1.594,0.531c-0.387,0-1.125-0.072-1.603-0.567
			c-0.414-0.432-0.585-1.044-0.585-1.773c0-0.738,0.181-1.62,0.945-2.151c0.352-0.234,0.783-0.378,1.278-0.378
			c0.648,0,1.423,0.252,1.837,1.098c0.306,0.621,0.288,1.288,0.27,1.666H105.264z M106.956,3.754c0-0.207-0.018-1.017-0.792-1.017
			c-0.585,0-0.828,0.485-0.855,1.017H106.956z"/>
		<path fill="#020202" d="M110.448,1.98l0.035,0.648c0.415-0.729,1.171-0.738,1.387-0.738c1.18,0,1.891,0.883,1.891,2.269
			c0,1.288-0.666,2.431-1.98,2.431c-0.819,0-1.152-0.432-1.27-0.585v2.269h-1.359V1.98H110.448z M112.41,4.214
			c0-0.541-0.135-1.468-0.918-1.468c-0.433,0-1.044,0.324-1.044,1.549c0,0.27,0.009,1.422,0.99,1.422
			C112.068,5.717,112.41,5.113,112.41,4.214z"/>
		<path fill="#020202" d="M117.369,6.464c-0.432,0.117-0.819,0.145-1.035,0.145c-1.342,0-1.342-0.847-1.342-1.225V2.89h-0.873V2.008
			h0.873V1.116l1.324-0.486v1.378h1.08V2.89h-1.08v2.053c0.009,0.414,0.009,0.676,0.603,0.676c0.198,0,0.288-0.01,0.45-0.027V6.464z
			"/>
		<path fill="#020202" d="M120.339,1.873c1.647,0,2.359,1.116,2.359,2.386c0,1.278-0.738,2.431-2.386,2.431
			c-1.297,0-2.323-0.802-2.323-2.395C117.989,3.196,118.548,1.873,120.339,1.873z M120.357,5.762c0.585,0,0.981-0.351,0.981-1.558
			c0-0.603-0.117-1.44-1-1.44c-0.972,0-0.981,1.126-0.981,1.54C119.357,5.32,119.7,5.762,120.357,5.762z"/>
		<path fill="#020202" d="M123.695,3.097c0-0.216-0.036-0.873-0.063-1.134h1.251l0.027,0.873c0.171-0.387,0.468-0.937,1.548-0.882
			v1.197c-1.35-0.126-1.431,0.567-1.431,1.134v2.242h-1.333V3.097z"/>
		<path fill="#020202" d="M129.653,0.036h1.332V2.53c0.45-0.595,1.054-0.612,1.288-0.612c1.107,0,1.98,0.873,1.98,2.403
			c0,1.702-0.99,2.296-1.899,2.296c-0.234,0-0.954-0.018-1.369-0.729c-0.009,0.145-0.018,0.36-0.045,0.64h-1.287V0.036z
			 M131.913,2.809c-0.981,0-0.981,1.117-0.981,1.405c0,1.035,0.441,1.53,1.045,1.53c0.918,0,0.918-1.144,0.918-1.378
			C132.895,4.007,132.876,2.809,131.913,2.809z"/>
		<path fill="#020202" d="M135.196,0.019h1.333v6.509h-1.333V0.019z"/>
		<path fill="#020202" d="M139.842,1.873c1.647,0,2.359,1.116,2.359,2.386c0,1.278-0.738,2.431-2.386,2.431
			c-1.297,0-2.323-0.802-2.323-2.395C137.492,3.196,138.051,1.873,139.842,1.873z M139.86,5.762c0.585,0,0.981-0.351,0.981-1.558
			c0-0.603-0.117-1.44-1-1.44c-0.972,0-0.981,1.126-0.981,1.54C138.86,5.32,139.203,5.762,139.86,5.762z"/>
		<path fill="#020202" d="M145.602,3.592c-0.019-0.161-0.072-0.837-0.586-0.837c-0.63,0-0.702,0.954-0.702,1.449
			c0,0.252,0.027,1.063,0.333,1.396c0.126,0.136,0.262,0.153,0.36,0.153c0.145,0,0.559-0.063,0.612-0.873h1.314
			c-0.018,0.351-0.063,0.9-0.585,1.341c-0.324,0.279-0.729,0.424-1.297,0.424c-0.603,0-1.134-0.136-1.548-0.604
			c-0.396-0.459-0.576-1.063-0.576-1.792c0-2.07,1.521-2.358,2.124-2.358c0.847,0,1.846,0.468,1.854,1.701H145.602z"/>
		<path fill="#020202" d="M147.716,0.019h1.323v3.835l1.377-1.899h1.504l-1.558,1.98l1.656,2.593h-1.575l-1.404-2.476v2.476h-1.323
			V0.019z"/>
		<path fill="#020202" d="M153.773,4.592c0,0.297,0,1.215,0.928,1.215c0.333,0,0.666-0.126,0.792-0.63h1.216
			c-0.019,0.216-0.063,0.604-0.433,0.99c-0.333,0.352-0.927,0.531-1.594,0.531c-0.387,0-1.125-0.072-1.603-0.567
			c-0.414-0.432-0.585-1.044-0.585-1.773c0-0.738,0.181-1.62,0.945-2.151c0.352-0.234,0.783-0.378,1.278-0.378
			c0.648,0,1.423,0.252,1.837,1.098c0.306,0.621,0.288,1.288,0.27,1.666H153.773z M155.466,3.754c0-0.207-0.018-1.017-0.792-1.017
			c-0.585,0-0.828,0.485-0.855,1.017H155.466z"/>
		<path fill="#020202" d="M157.706,3.097c0-0.216-0.036-0.873-0.063-1.134h1.251l0.027,0.873c0.171-0.387,0.468-0.937,1.548-0.882
			v1.197c-1.35-0.126-1.431,0.567-1.431,1.134v2.242h-1.333V3.097z"/>
		<path fill="#020202" d="M162.135,5.213c0.018,0.288,0.198,0.621,0.756,0.621c0.478,0,0.702-0.271,0.702-0.54
			c0-0.207-0.107-0.369-0.63-0.514l-0.828-0.225c-0.369-0.108-1.152-0.333-1.152-1.261c0-0.882,0.81-1.422,1.989-1.422
			c0.937,0,1.692,0.432,1.729,1.341h-1.215c-0.036-0.504-0.441-0.54-0.648-0.54c-0.36,0-0.631,0.171-0.631,0.45
			c0,0.307,0.226,0.369,0.622,0.478l0.819,0.225c0.828,0.226,1.215,0.648,1.215,1.27c0,0.783-0.675,1.566-2.089,1.566
			c-0.585,0-1.144-0.126-1.558-0.559c-0.297-0.314-0.323-0.675-0.333-0.891H162.135z"/>
		<path fill="#020202" d="M0.685,12.187l1.368,0.198l-0.847-1.071l0.838-0.46l0.504,1.243l0.531-1.27l0.837,0.495l-0.882,1.063
			l1.377-0.162l-0.018,0.954L3.052,12.97l0.847,1.107l-0.838,0.459l-0.521-1.27l-0.522,1.278l-0.811-0.486l0.838-1.098l-1.359,0.18
			V12.187z"/>
		<path fill="#020202" d="M5.688,12.187l1.368,0.198L6.21,11.313l0.838-0.46l0.504,1.243l0.531-1.27l0.837,0.495l-0.882,1.063
			l1.377-0.162l-0.018,0.954L8.056,12.97l0.847,1.107l-0.838,0.459l-0.521-1.27l-0.522,1.278L6.21,14.059l0.838-1.098l-1.359,0.18
			V12.187z"/>
		<path fill="#020202" d="M12.15,11.898h-1.936v-1.08h5.275v1.08h-1.936v5.429H12.15V11.898z"/>
		<path fill="#020202" d="M19.873,12.942c-0.027-0.225-0.108-1.144-1.053-1.144c-1.036,0-1.468,1.081-1.468,2.422
			c0,0.388,0,2.233,1.359,2.233c0.585,0,1.144-0.369,1.17-1.233h1.468c-0.027,0.387-0.063,0.99-0.585,1.53
			c-0.576,0.594-1.306,0.729-1.899,0.729c-2.242,0-2.972-1.656-2.972-3.268c0-2.062,1.152-3.43,2.98-3.43
			c1.422,0,2.422,0.864,2.422,2.16H19.873z"/>
		<path fill="#020202" d="M22.275,12.78h1.134v1.216h-1.134V12.78z M22.275,16.12h1.134v1.207h-1.134V16.12z"/>
		<path fill="#020202" d="M28.656,11.898h-1.936v-1.08h5.275v1.08h-1.936v5.429h-1.404V11.898z"/>
		<path fill="#020202" d="M34.821,12.673c1.647,0,2.359,1.116,2.359,2.386c0,1.278-0.738,2.431-2.386,2.431
			c-1.297,0-2.323-0.802-2.323-2.395C32.472,13.996,33.03,12.673,34.821,12.673z M34.84,16.562c0.585,0,0.981-0.351,0.981-1.558
			c0-0.603-0.117-1.44-1-1.44c-0.972,0-0.981,1.126-0.981,1.54C33.84,16.12,34.183,16.562,34.84,16.562z"/>
		<path fill="#020202" d="M40.852,17.264c-0.432,0.117-0.819,0.145-1.035,0.145c-1.342,0-1.342-0.847-1.342-1.225v-2.494h-0.873
			v-0.882h0.873v-0.892l1.324-0.486v1.378h1.08v0.882h-1.08v2.053c0.009,0.414,0.009,0.676,0.603,0.676
			c0.198,0,0.288-0.01,0.45-0.027V17.264z"/>
		<path fill="#020202" d="M44.407,17.327c-0.046-0.279-0.046-0.486-0.046-0.621c-0.504,0.729-1.106,0.729-1.359,0.729
			c-0.657,0-0.954-0.188-1.134-0.359c-0.271-0.271-0.396-0.64-0.396-1c0-0.359,0.126-1.026,0.964-1.413
			c0.558-0.252,1.359-0.252,1.8-0.252c0-0.297-0.009-0.441-0.063-0.604c-0.117-0.333-0.469-0.378-0.595-0.378
			c-0.188,0-0.387,0.081-0.504,0.252c-0.099,0.153-0.099,0.297-0.099,0.405H41.67c0.009-0.243,0.036-0.729,0.513-1.071
			c0.415-0.297,0.945-0.369,1.378-0.369c0.378,0,1.17,0.063,1.62,0.585c0.307,0.369,0.315,0.909,0.315,1.116l0.009,1.828
			c0,0.387,0.027,0.774,0.108,1.152H44.407z M42.769,15.923c0,0.306,0.207,0.647,0.647,0.647c0.243,0,0.441-0.116,0.567-0.261
			c0.234-0.288,0.252-0.639,0.252-1.125C43.381,15.112,42.769,15.383,42.769,15.923z"/>
		<path fill="#020202" d="M46.683,10.818h1.333v6.509h-1.333V10.818z"/>
		<path fill="#020202" d="M55.387,12.942c-0.027-0.225-0.108-1.144-1.053-1.144c-1.036,0-1.468,1.081-1.468,2.422
			c0,0.388,0,2.233,1.359,2.233c0.585,0,1.144-0.369,1.17-1.233h1.468c-0.027,0.387-0.063,0.99-0.585,1.53
			c-0.576,0.594-1.306,0.729-1.899,0.729c-2.242,0-2.972-1.656-2.972-3.268c0-2.062,1.152-3.43,2.98-3.43
			c1.422,0,2.422,0.864,2.422,2.16H55.387z"/>
		<path fill="#020202" d="M57.726,10.827h1.323v2.574c0.153-0.216,0.486-0.684,1.314-0.684c0.676,0,1.107,0.333,1.323,0.612
			c0.162,0.225,0.298,0.639,0.298,1.233v2.764H60.66v-2.719c0-0.262,0-0.99-0.747-0.99c-0.378,0-0.855,0.216-0.855,0.927l0.01,2.782
			h-1.342V10.827z"/>
		<path fill="#020202" d="M65.331,12.673c1.647,0,2.359,1.116,2.359,2.386c0,1.278-0.738,2.431-2.386,2.431
			c-1.297,0-2.323-0.802-2.323-2.395C62.981,13.996,63.54,12.673,65.331,12.673z M65.35,16.562c0.585,0,0.981-0.351,0.981-1.558
			c0-0.603-0.117-1.44-1-1.44c-0.972,0-0.981,1.126-0.981,1.54C64.35,16.12,64.692,16.562,65.35,16.562z"/>
		<path fill="#020202" d="M68.688,10.818h1.333v6.509h-1.333V10.818z"/>
		<path fill="#020202" d="M72.261,15.392c0,0.297,0,1.215,0.928,1.215c0.333,0,0.666-0.126,0.792-0.63h1.216
			c-0.019,0.216-0.063,0.604-0.433,0.99c-0.333,0.352-0.927,0.531-1.594,0.531c-0.387,0-1.125-0.072-1.603-0.567
			c-0.414-0.432-0.585-1.044-0.585-1.773c0-0.738,0.181-1.62,0.945-2.151c0.352-0.234,0.783-0.378,1.278-0.378
			c0.648,0,1.423,0.252,1.837,1.098c0.306,0.621,0.288,1.288,0.27,1.666H72.261z M73.953,14.554c0-0.207-0.018-1.017-0.792-1.017
			c-0.585,0-0.828,0.485-0.855,1.017H73.953z"/>
		<path fill="#020202" d="M77.121,16.013c0.018,0.288,0.198,0.621,0.756,0.621c0.478,0,0.702-0.271,0.702-0.54
			c0-0.207-0.107-0.369-0.63-0.514l-0.828-0.225c-0.369-0.108-1.152-0.333-1.152-1.261c0-0.882,0.81-1.422,1.989-1.422
			c0.937,0,1.692,0.432,1.729,1.341h-1.215c-0.036-0.504-0.441-0.54-0.648-0.54c-0.36,0-0.631,0.171-0.631,0.45
			c0,0.307,0.226,0.369,0.622,0.478l0.819,0.225c0.828,0.226,1.215,0.648,1.215,1.27c0,0.783-0.675,1.566-2.089,1.566
			c-0.585,0-1.144-0.126-1.558-0.559c-0.297-0.314-0.323-0.675-0.333-0.891H77.121z"/>
		<path fill="#020202" d="M83.367,17.264c-0.432,0.117-0.819,0.145-1.035,0.145c-1.342,0-1.342-0.847-1.342-1.225v-2.494h-0.873
			v-0.882h0.873v-0.892l1.324-0.486v1.378h1.08v0.882h-1.08v2.053c0.009,0.414,0.009,0.676,0.603,0.676
			c0.198,0,0.288-0.01,0.45-0.027V17.264z"/>
		<path fill="#020202" d="M85.266,15.392c0,0.297,0,1.215,0.928,1.215c0.333,0,0.666-0.126,0.792-0.63h1.216
			c-0.019,0.216-0.063,0.604-0.433,0.99c-0.333,0.352-0.927,0.531-1.594,0.531c-0.387,0-1.125-0.072-1.603-0.567
			c-0.414-0.432-0.585-1.044-0.585-1.773c0-0.738,0.181-1.62,0.945-2.151c0.352-0.234,0.783-0.378,1.278-0.378
			c0.648,0,1.423,0.252,1.837,1.098c0.306,0.621,0.288,1.288,0.27,1.666H85.266z M86.958,14.554c0-0.207-0.018-1.017-0.792-1.017
			c-0.585,0-0.828,0.485-0.855,1.017H86.958z"/>
		<path fill="#020202" d="M89.198,13.896c0-0.216-0.036-0.873-0.063-1.134h1.251l0.027,0.873c0.171-0.387,0.468-0.937,1.548-0.882
			v1.197c-1.35-0.126-1.431,0.567-1.431,1.134v2.242h-1.333V13.896z"/>
		<path fill="#020202" d="M94.842,12.673c1.647,0,2.359,1.116,2.359,2.386c0,1.278-0.738,2.431-2.386,2.431
			c-1.297,0-2.323-0.802-2.323-2.395C92.492,13.996,93.051,12.673,94.842,12.673z M94.86,16.562c0.585,0,0.981-0.351,0.981-1.558
			c0-0.603-0.117-1.44-1-1.44c-0.972,0-0.981,1.126-0.981,1.54C93.86,16.12,94.203,16.562,94.86,16.562z"/>
		<path fill="#020202" d="M98.198,10.818h1.333v6.509h-1.333V10.818z"/>
		<path fill="#020202" d="M0.685,22.986l1.368,0.198l-0.847-1.071l0.838-0.459l0.504,1.242l0.531-1.27l0.837,0.495l-0.882,1.063
			l1.377-0.162l-0.018,0.954L3.052,23.77l0.847,1.107l-0.838,0.459l-0.521-1.269l-0.522,1.278l-0.811-0.486l0.838-1.099
			l-1.359,0.181V22.986z"/>
		<path fill="#020202" d="M5.688,22.986l1.368,0.198L6.21,22.113l0.838-0.459l0.504,1.242l0.531-1.27l0.837,0.495l-0.882,1.063
			l1.377-0.162l-0.018,0.954L8.056,23.77l0.847,1.107l-0.838,0.459l-0.521-1.269l-0.522,1.278L6.21,24.859l0.838-1.099l-1.359,0.181
			V22.986z"/>
		<path fill="#020202" d="M10.692,22.986l1.368,0.198l-0.847-1.071l0.838-0.459l0.504,1.242l0.531-1.27l0.837,0.495l-0.882,1.063
			l1.377-0.162l-0.018,0.954L13.06,23.77l0.847,1.107l-0.838,0.459l-0.521-1.269l-0.522,1.278l-0.811-0.486l0.838-1.099
			l-1.359,0.181V22.986z"/>
		<path fill="#020202" d="M18.216,21.627h1.423v5.393h2.79v1.107h-4.213V21.627z"/>
		<path fill="#020202" d="M23.184,21.637l2.151,0.009c0.36,0,1.459,0.009,2.242,0.585c0.819,0.604,1.107,1.63,1.107,2.557
			c0,1.999-1.071,3.043-2.305,3.269c-0.243,0.045-0.514,0.071-1.171,0.071h-2.025V21.637z M24.598,27.056
			c0.152,0.009,0.387,0.019,0.549,0.019c0.594,0,1.107-0.045,1.513-0.45c0.549-0.55,0.585-1.521,0.585-1.837
			c0-0.918-0.315-1.765-1.188-2.008c-0.288-0.081-0.657-0.126-1.458-0.09V27.056z"/>
		<path fill="#020202" d="M29.718,21.627h1.423v5.393h2.79v1.107h-4.213V21.627z"/>
		<path fill="#020202" d="M34.497,25.237h2.232v1.018h-2.232V25.237z"/>
		<path fill="#020202" d="M41.383,23.743c-0.027-0.226-0.108-1.144-1.053-1.144c-1.036,0-1.468,1.08-1.468,2.422
			c0,0.387,0,2.232,1.359,2.232c0.585,0,1.144-0.369,1.17-1.233h1.468c-0.027,0.387-0.063,0.99-0.585,1.53
			c-0.576,0.595-1.306,0.729-1.899,0.729c-2.242,0-2.972-1.656-2.972-3.268c0-2.063,1.152-3.431,2.98-3.431
			c1.422,0,2.422,0.864,2.422,2.161H41.383z"/>
		<path fill="#020202" d="M43.785,23.581h1.134v1.215h-1.134V23.581z M43.785,26.921h1.134v1.206h-1.134V26.921z"/>
		<path fill="#020202" d="M48.726,21.627h1.423v5.393h2.79v1.107h-4.213V21.627z"/>
		<path fill="#020202" d="M55.836,23.473c1.647,0,2.359,1.116,2.359,2.386c0,1.278-0.738,2.431-2.386,2.431
			c-1.297,0-2.323-0.801-2.323-2.395C53.486,24.796,54.045,23.473,55.836,23.473z M55.854,27.362c0.585,0,0.981-0.352,0.981-1.558
			c0-0.604-0.117-1.44-1-1.44c-0.972,0-0.981,1.125-0.981,1.539C54.854,26.921,55.197,27.362,55.854,27.362z"/>
		<path fill="#020202" d="M60.065,23.581l0.838,3.43l0.963-3.43h1.468l0.954,3.43l0.892-3.43h1.323l-1.558,4.546h-1.449L62.56,24.76
			l-0.954,3.367h-1.468l-1.485-4.546H60.065z"/>
		<path fill="#020202" d="M69.695,21.637l2.151,0.009c0.36,0,1.459,0.009,2.242,0.585c0.819,0.604,1.107,1.63,1.107,2.557
			c0,1.999-1.071,3.043-2.305,3.269c-0.243,0.045-0.514,0.071-1.171,0.071h-2.025V21.637z M71.109,27.056
			c0.152,0.009,0.387,0.019,0.549,0.019c0.594,0,1.107-0.045,1.513-0.45c0.549-0.55,0.585-1.521,0.585-1.837
			c0-0.918-0.315-1.765-1.188-2.008c-0.288-0.081-0.657-0.126-1.458-0.09V27.056z"/>
		<path fill="#020202" d="M77.265,26.191c0,0.297,0,1.216,0.928,1.216c0.333,0,0.666-0.126,0.792-0.631H80.2
			c-0.019,0.217-0.063,0.604-0.433,0.991c-0.333,0.351-0.927,0.53-1.594,0.53c-0.387,0-1.125-0.071-1.603-0.566
			c-0.414-0.433-0.585-1.045-0.585-1.773c0-0.738,0.181-1.621,0.945-2.152c0.352-0.233,0.783-0.378,1.278-0.378
			c0.648,0,1.423,0.252,1.837,1.099c0.306,0.621,0.288,1.287,0.27,1.665H77.265z M78.957,25.354c0-0.207-0.018-1.018-0.792-1.018
			c-0.585,0-0.828,0.486-0.855,1.018H78.957z"/>
		<path fill="#020202" d="M81.216,24.391c0-0.018,0-0.513-0.027-0.828h1.278l0.036,0.685c0.126-0.207,0.486-0.792,1.477-0.792
			c0.891,0,1.27,0.54,1.387,0.855c0.099,0.278,0.126,0.513,0.126,1.359v2.457h-1.359v-2.826c0-0.189,0-0.352-0.072-0.495
			c-0.1-0.198-0.307-0.388-0.648-0.388c-0.288,0-0.549,0.135-0.693,0.352c-0.081,0.117-0.162,0.342-0.162,0.693v2.664h-1.341V24.391
			z"/>
		<path fill="#020202" d="M87.624,26.813c0.018,0.288,0.198,0.621,0.756,0.621c0.478,0,0.702-0.27,0.702-0.54
			c0-0.207-0.107-0.369-0.63-0.513l-0.828-0.226c-0.369-0.107-1.152-0.333-1.152-1.26c0-0.883,0.81-1.423,1.989-1.423
			c0.937,0,1.692,0.433,1.729,1.342h-1.215c-0.036-0.504-0.441-0.54-0.648-0.54c-0.36,0-0.63,0.171-0.63,0.45
			c0,0.306,0.225,0.369,0.621,0.477l0.818,0.226c0.829,0.225,1.216,0.647,1.216,1.269c0,0.784-0.675,1.567-2.089,1.567
			c-0.585,0-1.143-0.127-1.558-0.559c-0.297-0.315-0.323-0.675-0.333-0.892H87.624z"/>
		<path fill="#020202" d="M91.151,21.627h1.423v1.162h-1.423V21.627z M91.196,23.572h1.333v4.555h-1.333V23.572z"/>
		<path fill="#020202" d="M96.372,28.064c-0.432,0.117-0.819,0.144-1.035,0.144c-1.342,0-1.342-0.846-1.342-1.225V24.49h-0.873
			v-0.883h0.873v-0.891l1.324-0.486v1.377h1.08v0.883h-1.08v2.053c0.009,0.414,0.009,0.675,0.603,0.675
			c0.198,0,0.288-0.009,0.45-0.026V28.064z"/>
		<path fill="#020202" d="M98.181,23.581l0.999,3.15l1.018-3.15h1.323l-1.72,4.465l-0.549,1.81h-1.341l0.576-1.71l-1.747-4.564
			H98.181z"/>
		<path fill="#020202" d="M104.741,21.627h1.423v5.393h2.79v1.107h-4.213V21.627z"/>
		<path fill="#020202" d="M109.664,21.627h1.423v1.162h-1.423V21.627z M109.709,23.572h1.333v4.555h-1.333V23.572z"/>
		<path fill="#020202" d="M113.463,23.581l0.036,0.648c0.414-0.729,1.17-0.738,1.386-0.738c1.18,0,1.891,0.882,1.891,2.269
			c0,1.287-0.666,2.431-1.98,2.431c-0.819,0-1.152-0.433-1.27-0.585v2.269h-1.359v-6.293H113.463z M115.425,25.813
			c0-0.54-0.135-1.468-0.918-1.468c-0.432,0-1.044,0.324-1.044,1.549c0,0.271,0.009,1.423,0.99,1.423
			C115.083,27.317,115.425,26.714,115.425,25.813z"/>
		<path fill="#020202" d="M119.853,23.473c1.647,0,2.359,1.116,2.359,2.386c0,1.278-0.738,2.431-2.386,2.431
			c-1.297,0-2.323-0.801-2.323-2.395C117.503,24.796,118.062,23.473,119.853,23.473z M119.871,27.362
			c0.585,0,0.981-0.352,0.981-1.558c0-0.604-0.117-1.44-1-1.44c-0.972,0-0.981,1.125-0.981,1.539
			C118.871,26.921,119.214,27.362,119.871,27.362z"/>
		<path fill="#020202" d="M124.461,23.581l0.036,0.648c0.414-0.729,1.17-0.738,1.386-0.738c1.18,0,1.891,0.882,1.891,2.269
			c0,1.287-0.666,2.431-1.98,2.431c-0.819,0-1.152-0.433-1.27-0.585v2.269h-1.359v-6.293H124.461z M126.423,25.813
			c0-0.54-0.135-1.468-0.918-1.468c-0.432,0-1.044,0.324-1.044,1.549c0,0.271,0.009,1.423,0.99,1.423
			C126.081,27.317,126.423,26.714,126.423,25.813z"/>
		<path fill="#020202" d="M128.708,24.697c0-0.216-0.036-0.873-0.063-1.135h1.251l0.027,0.874c0.171-0.388,0.468-0.937,1.548-0.883
			v1.197c-1.35-0.126-1.431,0.567-1.431,1.135v2.241h-1.333V24.697z"/>
		<path fill="#020202" d="M134.352,23.473c1.647,0,2.359,1.116,2.359,2.386c0,1.278-0.738,2.431-2.386,2.431
			c-1.297,0-2.323-0.801-2.323-2.395C132.002,24.796,132.561,23.473,134.352,23.473z M134.37,27.362
			c0.585,0,0.981-0.352,0.981-1.558c0-0.604-0.117-1.44-1-1.44c-0.972,0-0.981,1.125-0.981,1.539
			C133.37,26.921,133.713,27.362,134.37,27.362z"/>
		<path fill="#020202" d="M140.382,28.064c-0.432,0.117-0.819,0.144-1.035,0.144c-1.342,0-1.342-0.846-1.342-1.225V24.49h-0.873
			v-0.883h0.873v-0.891l1.324-0.486v1.377h1.08v0.883h-1.08v2.053c0.009,0.414,0.009,0.675,0.603,0.675
			c0.198,0,0.288-0.009,0.45-0.026V28.064z"/>
		<path fill="#020202" d="M142.28,26.191c0,0.297,0,1.216,0.928,1.216c0.333,0,0.666-0.126,0.792-0.631h1.216
			c-0.019,0.217-0.063,0.604-0.433,0.991c-0.333,0.351-0.927,0.53-1.594,0.53c-0.387,0-1.125-0.071-1.603-0.566
			c-0.414-0.433-0.585-1.045-0.585-1.773c0-0.738,0.181-1.621,0.945-2.152c0.352-0.233,0.783-0.378,1.278-0.378
			c0.648,0,1.423,0.252,1.837,1.099c0.306,0.621,0.288,1.287,0.27,1.665H142.28z M143.973,25.354c0-0.207-0.018-1.018-0.792-1.018
			c-0.585,0-0.828,0.486-0.855,1.018H143.973z"/>
		<path fill="#020202" d="M146.168,21.627h1.423v1.162h-1.423V21.627z M146.213,23.572h1.333v4.555h-1.333V23.572z"/>
		<path fill="#020202" d="M148.733,24.391c0-0.018,0-0.513-0.027-0.828h1.278l0.036,0.685c0.126-0.207,0.486-0.792,1.477-0.792
			c0.891,0,1.27,0.54,1.387,0.855c0.099,0.278,0.126,0.513,0.126,1.359v2.457h-1.359v-2.826c0-0.189,0-0.352-0.072-0.495
			c-0.1-0.198-0.307-0.388-0.648-0.388c-0.288,0-0.549,0.135-0.693,0.352c-0.081,0.117-0.162,0.342-0.162,0.693v2.664h-1.341V24.391
			z"/>
		<path fill="#020202" d="M160.416,23.743c-0.027-0.226-0.108-1.144-1.053-1.144c-1.036,0-1.468,1.08-1.468,2.422
			c0,0.387,0,2.232,1.359,2.232c0.585,0,1.144-0.369,1.17-1.233h1.468c-0.027,0.387-0.063,0.99-0.585,1.53
			c-0.576,0.595-1.306,0.729-1.899,0.729c-2.242,0-2.972-1.656-2.972-3.268c0-2.063,1.152-3.431,2.98-3.431
			c1.422,0,2.422,0.864,2.422,2.161H160.416z"/>
		<path fill="#020202" d="M162.755,21.627h1.323v2.575c0.153-0.216,0.486-0.685,1.314-0.685c0.676,0,1.107,0.333,1.323,0.612
			c0.162,0.226,0.298,0.64,0.298,1.233v2.764h-1.324v-2.719c0-0.261,0-0.99-0.747-0.99c-0.378,0-0.855,0.216-0.855,0.928l0.01,2.781
			h-1.342V21.627z"/>
		<path fill="#020202" d="M170.36,23.473c1.647,0,2.359,1.116,2.359,2.386c0,1.278-0.738,2.431-2.386,2.431
			c-1.297,0-2.323-0.801-2.323-2.395C168.011,24.796,168.569,23.473,170.36,23.473z M170.379,27.362
			c0.585,0,0.981-0.352,0.981-1.558c0-0.604-0.117-1.44-1-1.44c-0.972,0-0.981,1.125-0.981,1.539
			C169.379,26.921,169.722,27.362,170.379,27.362z"/>
		<path fill="#020202" d="M173.717,21.618h1.333v6.509h-1.333V21.618z"/>
		<path fill="#020202" d="M177.29,26.191c0,0.297,0,1.216,0.928,1.216c0.333,0,0.666-0.126,0.792-0.631h1.216
			c-0.019,0.217-0.063,0.604-0.433,0.991c-0.333,0.351-0.927,0.53-1.594,0.53c-0.387,0-1.125-0.071-1.603-0.566
			c-0.414-0.433-0.585-1.045-0.585-1.773c0-0.738,0.181-1.621,0.945-2.152c0.352-0.233,0.783-0.378,1.278-0.378
			c0.648,0,1.423,0.252,1.837,1.099c0.306,0.621,0.288,1.287,0.27,1.665H177.29z M178.982,25.354c0-0.207-0.018-1.018-0.792-1.018
			c-0.585,0-0.828,0.486-0.855,1.018H178.982z"/>
		<path fill="#020202" d="M182.15,26.813c0.018,0.288,0.198,0.621,0.756,0.621c0.478,0,0.702-0.27,0.702-0.54
			c0-0.207-0.107-0.369-0.63-0.513l-0.828-0.226c-0.369-0.107-1.152-0.333-1.152-1.26c0-0.883,0.81-1.423,1.989-1.423
			c0.937,0,1.692,0.433,1.729,1.342h-1.215c-0.036-0.504-0.441-0.54-0.648-0.54c-0.36,0-0.631,0.171-0.631,0.45
			c0,0.306,0.226,0.369,0.622,0.477l0.819,0.226c0.828,0.225,1.215,0.647,1.215,1.269c0,0.784-0.675,1.567-2.089,1.567
			c-0.585,0-1.144-0.127-1.558-0.559c-0.297-0.315-0.323-0.675-0.333-0.892H182.15z"/>
		<path fill="#020202" d="M188.396,28.064c-0.432,0.117-0.819,0.144-1.035,0.144c-1.342,0-1.342-0.846-1.342-1.225V24.49h-0.873
			v-0.883h0.873v-0.891l1.324-0.486v1.377h1.08v0.883h-1.08v2.053c0.009,0.414,0.009,0.675,0.603,0.675
			c0.198,0,0.288-0.009,0.45-0.026V28.064z"/>
		<path fill="#020202" d="M190.295,26.191c0,0.297,0,1.216,0.928,1.216c0.333,0,0.666-0.126,0.792-0.631h1.216
			c-0.019,0.217-0.063,0.604-0.433,0.991c-0.333,0.351-0.927,0.53-1.594,0.53c-0.387,0-1.125-0.071-1.603-0.566
			c-0.414-0.433-0.585-1.045-0.585-1.773c0-0.738,0.181-1.621,0.945-2.152c0.352-0.233,0.783-0.378,1.278-0.378
			c0.648,0,1.423,0.252,1.837,1.099c0.306,0.621,0.288,1.287,0.27,1.665H190.295z M191.987,25.354c0-0.207-0.018-1.018-0.792-1.018
			c-0.585,0-0.828,0.486-0.855,1.018H191.987z"/>
		<path fill="#020202" d="M194.228,24.697c0-0.216-0.036-0.873-0.063-1.135h1.251l0.027,0.874c0.171-0.388,0.468-0.937,1.548-0.883
			v1.197c-1.35-0.126-1.431,0.567-1.431,1.135v2.241h-1.333V24.697z"/>
		<path fill="#020202" d="M199.871,23.473c1.647,0,2.359,1.116,2.359,2.386c0,1.278-0.738,2.431-2.386,2.431
			c-1.297,0-2.323-0.801-2.323-2.395C197.521,24.796,198.08,23.473,199.871,23.473z M199.89,27.362c0.585,0,0.981-0.352,0.981-1.558
			c0-0.604-0.117-1.44-1-1.44c-0.972,0-0.981,1.125-0.981,1.539C198.89,26.921,199.232,27.362,199.89,27.362z"/>
		<path fill="#020202" d="M203.228,21.618h1.333v6.509h-1.333V21.618z"/>
		<path fill="#020202" d="M0,36.361h0.928l0.197-1.09H0.387v-0.99h0.928l0.297-1.629h1.152l-0.297,1.629h0.855l0.297-1.629H4.78
			l-0.306,1.629h0.747v0.99H4.294l-0.197,1.09h0.738v0.99H3.907l-0.288,1.575H2.467l0.297-1.575H1.899l-0.288,1.575H0.45
			l0.288-1.575H0V36.361z M2.935,36.361l0.207-1.09H2.287l-0.207,1.09H2.935z"/>
		<path fill="#020202" d="M7.146,33.498H5.211v-1.08h5.275v1.08H8.551v5.429H7.146V33.498z"/>
		<path fill="#020202" d="M15.571,34.417c-0.009-0.171-0.018-0.405-0.18-0.657c-0.271-0.433-0.783-0.505-1.09-0.505
			c-1.584,0-1.899,1.477-1.899,2.477c0,0.44,0.063,1.233,0.54,1.746c0.324,0.36,0.757,0.559,1.531,0.559
			c0.675,0,0.909-0.081,1.062-0.126v-1.369h-1.26v-1.08h2.655v3.25c-0.405,0.135-1.071,0.36-2.377,0.36
			c-1.485,0-2.25-0.36-2.764-0.864c-0.729-0.712-0.864-1.747-0.864-2.431c0-2.305,1.44-3.538,3.412-3.538
			c0.838,0,1.702,0.233,2.215,0.819c0.433,0.495,0.459,1.008,0.468,1.359H15.571z"/>
		<path fill="#020202" d="M18.271,34.381h1.134v1.215h-1.134V34.381z M18.271,37.721h1.134v1.206h-1.134V37.721z"/>
		<path fill="#020202" d="M24.651,33.498h-1.936v-1.08h5.275v1.08h-1.936v5.429h-1.404V33.498z"/>
		<path fill="#020202" d="M28.674,35.497c0-0.216-0.036-0.873-0.063-1.135h1.251l0.027,0.874c0.171-0.388,0.468-0.937,1.548-0.883
			v1.197c-1.35-0.126-1.431,0.567-1.431,1.135v2.241h-1.333V35.497z"/>
		<path fill="#020202" d="M32.13,32.427h1.423v1.162H32.13V32.427z M32.175,34.372h1.333v4.555h-1.333V34.372z"/>
		<path fill="#020202" d="M38.989,34.398c-0.036,0.36-0.063,0.666-0.063,1.126v3.357c0,1.675-1.395,1.837-2.269,1.837
			c-0.647,0-1.917-0.081-1.998-1.459h1.278c0.018,0.136,0.081,0.631,0.792,0.631c0.396,0,0.738-0.189,0.828-0.595
			c0.055-0.225,0.055-0.387,0.063-1.08c-0.424,0.559-0.9,0.621-1.225,0.621c-1.306,0-1.918-1.134-1.918-2.232
			c0-1.152,0.64-2.251,1.945-2.251c0.828,0,1.134,0.45,1.269,0.648l0.046-0.604H38.989z M36.702,37.928
			c0.937,0,0.937-1.099,0.937-1.297c0-0.513-0.099-1.386-0.909-1.386c-0.504,0-0.918,0.387-0.918,1.359
			C35.812,36.829,35.812,37.928,36.702,37.928z"/>
		<path fill="#020202" d="M40.176,32.418h1.333v6.509h-1.333V32.418z"/>
		<path fill="#020202" d="M43.659,34.381l0.999,3.15l1.018-3.15h1.323l-1.72,4.465l-0.549,1.81H43.39l0.576-1.71l-1.747-4.564
			H43.659z"/>
		<path fill="#020202" d="M50.086,35.992c-0.019-0.162-0.072-0.837-0.586-0.837c-0.63,0-0.702,0.954-0.702,1.449
			c0,0.252,0.027,1.063,0.333,1.396c0.126,0.135,0.262,0.152,0.36,0.152c0.145,0,0.559-0.063,0.612-0.873h1.314
			c-0.018,0.352-0.063,0.9-0.585,1.342c-0.324,0.279-0.729,0.423-1.297,0.423c-0.603,0-1.134-0.135-1.548-0.604
			c-0.396-0.459-0.576-1.062-0.576-1.791c0-2.07,1.521-2.358,2.124-2.358c0.847,0,1.846,0.468,1.854,1.701H50.086z"/>
		<path fill="#020202" d="M53.253,36.991c0,0.297,0,1.216,0.928,1.216c0.333,0,0.666-0.126,0.792-0.631h1.216
			c-0.019,0.217-0.063,0.604-0.433,0.991c-0.333,0.351-0.927,0.53-1.594,0.53c-0.387,0-1.125-0.071-1.603-0.566
			c-0.414-0.433-0.585-1.045-0.585-1.773c0-0.738,0.181-1.621,0.945-2.152c0.352-0.233,0.783-0.378,1.278-0.378
			c0.648,0,1.423,0.252,1.837,1.099c0.306,0.621,0.288,1.287,0.27,1.665H53.253z M54.945,36.154c0-0.207-0.018-1.018-0.792-1.018
			c-0.585,0-0.828,0.486-0.855,1.018H54.945z"/>
		<path fill="#020202" d="M57.186,35.497c0-0.216-0.036-0.873-0.063-1.135h1.251l0.027,0.874c0.171-0.388,0.468-0.937,1.548-0.883
			v1.197c-1.35-0.126-1.431,0.567-1.431,1.135v2.241h-1.333V35.497z"/>
		<path fill="#020202" d="M60.642,32.427h1.423v1.162h-1.423V32.427z M60.687,34.372h1.333v4.555h-1.333V34.372z"/>
		<path fill="#020202" d="M66.195,32.427h1.342v5.762c0,0.271,0.018,0.567,0.036,0.738h-1.351l-0.036-0.657
			c-0.09,0.162-0.18,0.333-0.459,0.514c-0.333,0.216-0.685,0.233-0.883,0.233c-1.215,0-1.936-0.837-1.936-2.259
			c0-1.504,0.819-2.44,2.008-2.44c0.819,0,1.161,0.459,1.278,0.621V32.427z M65.179,38.152c0.387,0,0.702-0.233,0.846-0.513
			c0.198-0.378,0.216-0.847,0.216-1.071c0-0.892-0.387-1.378-0.99-1.378c-0.891,0-0.99,1.072-0.99,1.531
			C64.26,37.478,64.512,38.152,65.179,38.152z"/>
		<path fill="#020202" d="M69.759,36.991c0,0.297,0,1.216,0.928,1.216c0.333,0,0.666-0.126,0.792-0.631h1.216
			c-0.019,0.217-0.063,0.604-0.433,0.991c-0.333,0.351-0.927,0.53-1.594,0.53c-0.387,0-1.125-0.071-1.603-0.566
			c-0.414-0.433-0.585-1.045-0.585-1.773c0-0.738,0.181-1.621,0.945-2.152c0.352-0.233,0.783-0.378,1.278-0.378
			c0.648,0,1.423,0.252,1.837,1.099c0.306,0.621,0.288,1.287,0.27,1.665H69.759z M71.451,36.154c0-0.207-0.018-1.018-0.792-1.018
			c-0.585,0-0.828,0.486-0.855,1.018H71.451z"/>
		<path fill="#020202" d="M74.619,37.612c0.018,0.288,0.198,0.621,0.756,0.621c0.478,0,0.702-0.27,0.702-0.54
			c0-0.207-0.107-0.369-0.63-0.513l-0.828-0.226c-0.369-0.107-1.152-0.333-1.152-1.26c0-0.883,0.81-1.423,1.989-1.423
			c0.937,0,1.692,0.433,1.729,1.342H75.97c-0.036-0.504-0.441-0.54-0.648-0.54c-0.36,0-0.631,0.171-0.631,0.45
			c0,0.306,0.226,0.369,0.622,0.477l0.819,0.226c0.828,0.225,1.215,0.647,1.215,1.269c0,0.784-0.675,1.567-2.089,1.567
			c-0.585,0-1.144-0.127-1.558-0.559c-0.297-0.315-0.323-0.675-0.333-0.892H74.619z"/>
		<path fill="#020202" d="M0,47.161h0.928l0.197-1.089H0.387v-0.99h0.928l0.297-1.63h1.152l-0.297,1.63h0.855l0.297-1.63H4.78
			l-0.306,1.63h0.747v0.99H4.294l-0.197,1.089h0.738v0.99H3.907l-0.288,1.576H2.467l0.297-1.576H1.899l-0.288,1.576H0.45
			l0.288-1.576H0V47.161z M2.935,47.161l0.207-1.089H2.287L2.08,47.161H2.935z"/>
		<path fill="#020202" d="M5.004,47.161h0.928l0.197-1.089H5.391v-0.99h0.928l0.297-1.63h1.152l-0.297,1.63h0.855l0.297-1.63h1.161
			l-0.306,1.63h0.747v0.99H9.298l-0.197,1.089h0.738v0.99H8.911l-0.288,1.576H7.471l0.297-1.576H6.903l-0.288,1.576H5.454
			l0.288-1.576H5.004V47.161z M7.938,47.161l0.207-1.089H7.291l-0.207,1.089H7.938z"/>
		<path fill="#020202" d="M10.692,43.219h1.396v2.602h2.457v-2.602h1.414v6.509h-1.396v-2.854h-2.476v2.854h-1.396V43.219z"/>
		<path fill="#020202" d="M17.172,43.236l2.151,0.009c0.36,0,1.459,0.009,2.242,0.585c0.819,0.604,1.107,1.63,1.107,2.558
			c0,1.998-1.071,3.043-2.305,3.268c-0.243,0.045-0.514,0.072-1.171,0.072h-2.025V43.236z M18.586,48.656
			c0.152,0.009,0.387,0.018,0.549,0.018c0.594,0,1.107-0.045,1.513-0.45c0.549-0.549,0.585-1.521,0.585-1.836
			c0-0.919-0.315-1.765-1.188-2.008c-0.288-0.081-0.657-0.126-1.458-0.09V48.656z"/>
		<path fill="#020202" d="M23.706,43.228h1.423v5.393h2.79v1.107h-4.213V43.228z"/>
		<path fill="#020202" d="M28.485,46.838h2.232v1.017h-2.232V46.838z"/>
		<path fill="#020202" d="M35.371,45.343c-0.027-0.225-0.108-1.144-1.053-1.144c-1.036,0-1.468,1.081-1.468,2.422
			c0,0.388,0,2.233,1.359,2.233c0.585,0,1.144-0.369,1.17-1.233h1.468c-0.027,0.387-0.063,0.99-0.585,1.53
			c-0.576,0.594-1.306,0.729-1.899,0.729c-2.242,0-2.972-1.656-2.972-3.268c0-2.062,1.152-3.43,2.98-3.43
			c1.422,0,2.422,0.864,2.422,2.16H35.371z"/>
		<path fill="#020202" d="M37.773,45.181h1.134v1.216h-1.134V45.181z M37.773,48.521h1.134v1.207h-1.134V48.521z"/>
		<path fill="#020202" d="M42.696,43.219h1.396v2.602h2.457v-2.602h1.414v6.509h-1.396v-2.854h-2.476v2.854h-1.396V43.219z"/>
		<path fill="#020202" d="M49.131,43.228h1.423v1.161h-1.423V43.228z M49.176,45.172h1.333v4.556h-1.333V45.172z"/>
		<path fill="#020202" d="M55.99,45.199c-0.036,0.359-0.063,0.666-0.063,1.125v3.358c0,1.674-1.395,1.836-2.269,1.836
			c-0.647,0-1.917-0.081-1.998-1.458h1.278c0.018,0.135,0.081,0.63,0.792,0.63c0.396,0,0.738-0.188,0.828-0.594
			c0.055-0.226,0.055-0.388,0.063-1.081c-0.424,0.559-0.9,0.622-1.225,0.622c-1.306,0-1.918-1.135-1.918-2.233
			c0-1.152,0.64-2.25,1.945-2.25c0.828,0,1.134,0.45,1.27,0.647l0.045-0.603H55.99z M53.703,48.728c0.937,0,0.937-1.098,0.937-1.296
			c0-0.513-0.099-1.387-0.909-1.387c-0.504,0-0.918,0.388-0.918,1.359C52.813,47.63,52.813,48.728,53.703,48.728z"/>
		<path fill="#020202" d="M57.213,43.228h1.323v2.574c0.153-0.216,0.486-0.684,1.314-0.684c0.676,0,1.107,0.333,1.323,0.612
			c0.162,0.225,0.298,0.639,0.298,1.233v2.764h-1.324v-2.719c0-0.262,0-0.99-0.747-0.99c-0.378,0-0.855,0.216-0.855,0.927
			l0.01,2.782h-1.342V43.228z"/>
		<path fill="#020202" d="M65.178,43.236l2.151,0.009c0.36,0,1.459,0.009,2.242,0.585c0.819,0.604,1.107,1.63,1.107,2.558
			c0,1.998-1.071,3.043-2.305,3.268c-0.243,0.045-0.514,0.072-1.171,0.072h-2.025V43.236z M66.592,48.656
			c0.152,0.009,0.387,0.018,0.549,0.018c0.594,0,1.107-0.045,1.513-0.45c0.549-0.549,0.585-1.521,0.585-1.836
			c0-0.919-0.315-1.765-1.188-2.008c-0.288-0.081-0.657-0.126-1.458-0.09V48.656z"/>
		<path fill="#020202" d="M72.746,47.792c0,0.297,0,1.215,0.928,1.215c0.333,0,0.666-0.126,0.792-0.63h1.216
			c-0.019,0.216-0.063,0.604-0.433,0.99c-0.333,0.352-0.927,0.531-1.594,0.531c-0.387,0-1.125-0.072-1.603-0.567
			c-0.414-0.432-0.585-1.044-0.585-1.773c0-0.738,0.181-1.62,0.945-2.151c0.352-0.234,0.783-0.378,1.278-0.378
			c0.648,0,1.423,0.252,1.837,1.098c0.306,0.621,0.288,1.288,0.27,1.666H72.746z M74.438,46.954c0-0.207-0.018-1.017-0.792-1.017
			c-0.585,0-0.828,0.485-0.855,1.017H74.438z"/>
		<path fill="#020202" d="M76.697,45.991c0-0.018,0-0.513-0.027-0.828h1.278l0.036,0.684c0.126-0.207,0.486-0.792,1.477-0.792
			c0.891,0,1.27,0.54,1.386,0.855c0.1,0.279,0.127,0.513,0.127,1.359v2.458h-1.359V46.9c0-0.189,0-0.351-0.072-0.495
			c-0.1-0.198-0.307-0.387-0.648-0.387c-0.288,0-0.549,0.135-0.693,0.351c-0.081,0.117-0.162,0.342-0.162,0.693v2.665h-1.341V45.991
			z"/>
		<path fill="#020202" d="M83.105,48.413c0.018,0.288,0.198,0.621,0.756,0.621c0.478,0,0.702-0.271,0.702-0.54
			c0-0.207-0.107-0.369-0.63-0.514l-0.828-0.225c-0.369-0.108-1.152-0.333-1.152-1.261c0-0.882,0.81-1.422,1.989-1.422
			c0.937,0,1.692,0.432,1.729,1.341h-1.215c-0.036-0.504-0.441-0.54-0.648-0.54c-0.36,0-0.631,0.171-0.631,0.45
			c0,0.307,0.226,0.369,0.622,0.478l0.819,0.225c0.828,0.226,1.215,0.648,1.215,1.27c0,0.783-0.675,1.566-2.089,1.566
			c-0.585,0-1.144-0.126-1.558-0.559c-0.297-0.314-0.323-0.675-0.333-0.891H83.105z"/>
		<path fill="#020202" d="M86.633,43.228h1.423v1.161h-1.423V43.228z M86.678,45.172h1.333v4.556h-1.333V45.172z"/>
		<path fill="#020202" d="M91.854,49.664c-0.432,0.117-0.819,0.145-1.035,0.145c-1.342,0-1.342-0.847-1.342-1.225V46.09h-0.873
			v-0.882h0.873v-0.892l1.324-0.486v1.378h1.08v0.882h-1.08v2.053c0.009,0.414,0.009,0.676,0.603,0.676
			c0.198,0,0.288-0.01,0.45-0.027V49.664z"/>
		<path fill="#020202" d="M93.662,45.181l0.999,3.151l1.018-3.151h1.323l-1.72,4.466l-0.549,1.81h-1.342l0.576-1.711l-1.746-4.564
			H93.662z"/>
		<path fill="#020202" d="M100.224,43.228h1.423v5.393h2.79v1.107h-4.213V43.228z"/>
		<path fill="#020202" d="M105.146,43.228h1.423v1.161h-1.423V43.228z M105.191,45.172h1.333v4.556h-1.333V45.172z"/>
		<path fill="#020202" d="M108.945,45.181l0.036,0.648c0.414-0.729,1.17-0.738,1.386-0.738c1.18,0,1.891,0.883,1.891,2.269
			c0,1.288-0.666,2.431-1.98,2.431c-0.819,0-1.152-0.432-1.27-0.585v2.269h-1.359v-6.293H108.945z M110.907,47.414
			c0-0.541-0.135-1.468-0.918-1.468c-0.432,0-1.044,0.324-1.044,1.549c0,0.27,0.009,1.422,0.99,1.422
			C110.565,48.917,110.907,48.313,110.907,47.414z"/>
		<path fill="#020202" d="M115.335,45.073c1.647,0,2.359,1.116,2.359,2.386c0,1.278-0.738,2.431-2.386,2.431
			c-1.297,0-2.323-0.802-2.323-2.395C112.985,46.396,113.544,45.073,115.335,45.073z M115.354,48.962
			c0.585,0,0.981-0.351,0.981-1.558c0-0.603-0.117-1.44-1-1.44c-0.972,0-0.981,1.126-0.981,1.54
			C114.354,48.521,114.696,48.962,115.354,48.962z"/>
		<path fill="#020202" d="M119.942,45.181l0.035,0.648c0.415-0.729,1.171-0.738,1.387-0.738c1.18,0,1.891,0.883,1.891,2.269
			c0,1.288-0.666,2.431-1.98,2.431c-0.819,0-1.152-0.432-1.27-0.585v2.269h-1.359v-6.293H119.942z M121.904,47.414
			c0-0.541-0.135-1.468-0.918-1.468c-0.433,0-1.044,0.324-1.044,1.549c0,0.27,0.009,1.422,0.99,1.422
			C121.563,48.917,121.904,48.313,121.904,47.414z"/>
		<path fill="#020202" d="M124.189,46.297c0-0.216-0.036-0.873-0.063-1.134h1.251l0.027,0.873c0.171-0.387,0.468-0.937,1.548-0.882
			v1.197c-1.35-0.126-1.431,0.567-1.431,1.134v2.242h-1.333V46.297z"/>
		<path fill="#020202" d="M129.833,45.073c1.647,0,2.359,1.116,2.359,2.386c0,1.278-0.738,2.431-2.386,2.431
			c-1.297,0-2.323-0.802-2.323-2.395C127.483,46.396,128.042,45.073,129.833,45.073z M129.852,48.962
			c0.585,0,0.981-0.351,0.981-1.558c0-0.603-0.117-1.44-1-1.44c-0.972,0-0.981,1.126-0.981,1.54
			C128.852,48.521,129.194,48.962,129.852,48.962z"/>
		<path fill="#020202" d="M135.863,49.664c-0.432,0.117-0.819,0.145-1.035,0.145c-1.342,0-1.342-0.847-1.342-1.225V46.09h-0.873
			v-0.882h0.873v-0.892l1.324-0.486v1.378h1.08v0.882h-1.08v2.053c0.009,0.414,0.009,0.676,0.603,0.676
			c0.198,0,0.288-0.01,0.45-0.027V49.664z"/>
		<path fill="#020202" d="M137.762,47.792c0,0.297,0,1.215,0.928,1.215c0.333,0,0.666-0.126,0.792-0.63h1.216
			c-0.019,0.216-0.063,0.604-0.433,0.99c-0.333,0.352-0.927,0.531-1.594,0.531c-0.387,0-1.125-0.072-1.603-0.567
			c-0.414-0.432-0.585-1.044-0.585-1.773c0-0.738,0.181-1.62,0.945-2.151c0.352-0.234,0.783-0.378,1.278-0.378
			c0.648,0,1.423,0.252,1.837,1.098c0.306,0.621,0.288,1.288,0.27,1.666H137.762z M139.454,46.954c0-0.207-0.018-1.017-0.792-1.017
			c-0.585,0-0.828,0.485-0.855,1.017H139.454z"/>
		<path fill="#020202" d="M141.649,43.228h1.423v1.161h-1.423V43.228z M141.694,45.172h1.333v4.556h-1.333V45.172z"/>
		<path fill="#020202" d="M144.215,45.991c0-0.018,0-0.513-0.027-0.828h1.278l0.036,0.684c0.126-0.207,0.486-0.792,1.477-0.792
			c0.891,0,1.27,0.54,1.386,0.855c0.1,0.279,0.127,0.513,0.127,1.359v2.458h-1.359V46.9c0-0.189,0-0.351-0.072-0.495
			c-0.1-0.198-0.307-0.387-0.648-0.387c-0.288,0-0.549,0.135-0.693,0.351c-0.081,0.117-0.162,0.342-0.162,0.693v2.665h-1.341V45.991
			z"/>
		<path fill="#020202" d="M155.897,45.343c-0.027-0.225-0.107-1.144-1.053-1.144c-1.036,0-1.468,1.081-1.468,2.422
			c0,0.388,0,2.233,1.359,2.233c0.585,0,1.144-0.369,1.17-1.233h1.468c-0.027,0.387-0.063,0.99-0.585,1.53
			c-0.576,0.594-1.306,0.729-1.899,0.729c-2.242,0-2.972-1.656-2.972-3.268c0-2.062,1.152-3.43,2.98-3.43
			c1.422,0,2.422,0.864,2.422,2.16H155.897z"/>
		<path fill="#020202" d="M158.236,43.228h1.323v2.574c0.153-0.216,0.486-0.684,1.314-0.684c0.676,0,1.107,0.333,1.323,0.612
			c0.162,0.225,0.298,0.639,0.298,1.233v2.764h-1.324v-2.719c0-0.262,0-0.99-0.747-0.99c-0.378,0-0.855,0.216-0.855,0.927
			l0.01,2.782h-1.342V43.228z"/>
		<path fill="#020202" d="M165.842,45.073c1.647,0,2.359,1.116,2.359,2.386c0,1.278-0.738,2.431-2.386,2.431
			c-1.297,0-2.323-0.802-2.323-2.395C163.492,46.396,164.051,45.073,165.842,45.073z M165.86,48.962
			c0.585,0,0.981-0.351,0.981-1.558c0-0.603-0.117-1.44-1-1.44c-0.972,0-0.981,1.126-0.981,1.54
			C164.86,48.521,165.203,48.962,165.86,48.962z"/>
		<path fill="#020202" d="M169.198,43.219h1.333v6.509h-1.333V43.219z"/>
		<path fill="#020202" d="M172.771,47.792c0,0.297,0,1.215,0.928,1.215c0.333,0,0.666-0.126,0.792-0.63h1.216
			c-0.019,0.216-0.063,0.604-0.433,0.99c-0.333,0.352-0.927,0.531-1.594,0.531c-0.387,0-1.125-0.072-1.603-0.567
			c-0.414-0.432-0.585-1.044-0.585-1.773c0-0.738,0.181-1.62,0.945-2.151c0.352-0.234,0.783-0.378,1.278-0.378
			c0.648,0,1.423,0.252,1.837,1.098c0.306,0.621,0.288,1.288,0.27,1.666H172.771z M174.464,46.954c0-0.207-0.018-1.017-0.792-1.017
			c-0.585,0-0.828,0.485-0.855,1.017H174.464z"/>
		<path fill="#020202" d="M177.632,48.413c0.018,0.288,0.198,0.621,0.756,0.621c0.478,0,0.702-0.271,0.702-0.54
			c0-0.207-0.107-0.369-0.63-0.514l-0.828-0.225c-0.369-0.108-1.152-0.333-1.152-1.261c0-0.882,0.81-1.422,1.989-1.422
			c0.937,0,1.692,0.432,1.729,1.341h-1.215c-0.036-0.504-0.441-0.54-0.648-0.54c-0.36,0-0.63,0.171-0.63,0.45
			c0,0.307,0.225,0.369,0.621,0.478l0.818,0.225c0.829,0.226,1.216,0.648,1.216,1.27c0,0.783-0.675,1.566-2.089,1.566
			c-0.585,0-1.143-0.126-1.558-0.559c-0.297-0.314-0.323-0.675-0.333-0.891H177.632z"/>
		<path fill="#020202" d="M183.878,49.664c-0.432,0.117-0.819,0.145-1.035,0.145c-1.342,0-1.342-0.847-1.342-1.225V46.09h-0.873
			v-0.882h0.873v-0.892l1.324-0.486v1.378h1.08v0.882h-1.08v2.053c0.009,0.414,0.009,0.676,0.603,0.676
			c0.198,0,0.288-0.01,0.45-0.027V49.664z"/>
		<path fill="#020202" d="M185.776,47.792c0,0.297,0,1.215,0.928,1.215c0.333,0,0.666-0.126,0.792-0.63h1.216
			c-0.019,0.216-0.063,0.604-0.433,0.99c-0.333,0.352-0.927,0.531-1.594,0.531c-0.387,0-1.125-0.072-1.603-0.567
			c-0.414-0.432-0.585-1.044-0.585-1.773c0-0.738,0.181-1.62,0.945-2.151c0.352-0.234,0.783-0.378,1.278-0.378
			c0.648,0,1.423,0.252,1.837,1.098c0.306,0.621,0.288,1.288,0.27,1.666H185.776z M187.469,46.954c0-0.207-0.018-1.017-0.792-1.017
			c-0.585,0-0.828,0.485-0.855,1.017H187.469z"/>
		<path fill="#020202" d="M189.709,46.297c0-0.216-0.036-0.873-0.063-1.134h1.251l0.027,0.873c0.171-0.387,0.468-0.937,1.548-0.882
			v1.197c-1.35-0.126-1.431,0.567-1.431,1.134v2.242h-1.333V46.297z"/>
		<path fill="#020202" d="M195.353,45.073c1.647,0,2.359,1.116,2.359,2.386c0,1.278-0.738,2.431-2.386,2.431
			c-1.297,0-2.323-0.802-2.323-2.395C193.003,46.396,193.562,45.073,195.353,45.073z M195.371,48.962
			c0.585,0,0.981-0.351,0.981-1.558c0-0.603-0.117-1.44-1-1.44c-0.972,0-0.981,1.126-0.981,1.54
			C194.371,48.521,194.714,48.962,195.371,48.962z"/>
		<path fill="#020202" d="M198.709,43.219h1.333v6.509h-1.333V43.219z"/>
	</g>
</g>
</svg>
