<?xml version="1.0" encoding="utf-8"?>
<!-- Generator: Adobe Illustrator 17.0.0, SVG Export Plug-In . SVG Version: 6.00 Build 0)  -->
<!DOCTYPE svg PUBLIC "-//W3C//DTD SVG 1.1//EN" "http://www.w3.org/Graphics/SVG/1.1/DTD/svg11.dtd">
<svg version="1.1" id="Layer_1" xmlns="http://www.w3.org/2000/svg" xmlns:xlink="http://www.w3.org/1999/xlink" x="0px" y="0px"
	 width="438.185px" height="52.169px" viewBox="0 0 438.185 52.169" enable-background="new 0 0 438.185 52.169"
	 xml:space="preserve">
<g>
	<g>
		<path fill="#00435B" d="M18.149,0.85h3.281v12.44h6.438v2.554h-9.719V0.85z"/>
		<path fill="#00435B" d="M29.505,0.788h3.219v15.056h-3.219V0.788z"/>
		<path fill="#00435B" d="M35.381,0.871h4.631c2.16,0,3.966,0.146,5.212,1.641c0.79,0.955,0.914,2.035,0.914,2.804
			c0,1.744-0.727,3.219-1.911,3.987c-1.101,0.706-2.617,0.706-3.406,0.706h-2.181v5.835h-3.26V0.871z M38.558,7.621h1.288
			c1.038,0,2.97,0,2.97-2.285c0-2.035-1.724-2.035-2.638-2.035h-1.62V7.621z"/>
		<path fill="#00435B" d="M47.962,0.788h3.219v15.056h-3.219V0.788z"/>
		<path fill="#00435B" d="M57.244,3.322h-4.465V0.83h12.17v2.492h-4.465v12.522h-3.24V3.322z"/>
		<path fill="#00435B" d="M72.442,0.518c1.599,0,3.8,0.374,5.275,2.035c1.599,1.828,1.91,4.174,1.91,5.649
			c0,2.18-0.665,4.506-1.89,5.877c-1.661,1.869-4.091,2.139-5.337,2.139c-1.973,0-3.946-0.623-5.316-2.056
			c-1.641-1.745-1.849-4.236-1.849-5.607C65.235,4.568,67.042,0.518,72.442,0.518z M69.721,12.646
			c0.457,0.623,1.225,1.205,2.721,1.205c1.308,0,2.201-0.457,2.803-1.392c0.499-0.748,1.018-1.91,1.018-4.299
			c0-0.727-0.062-1.765-0.374-2.679c-0.623-1.848-1.89-2.658-3.427-2.658c-1.205,0-2.16,0.499-2.762,1.267
			C68.849,5.128,68.6,6.748,68.6,8.451C68.6,9.884,68.828,11.483,69.721,12.646z"/>
		<path fill="#00435B" d="M81.762,0.83h5.752c1.662-0.021,3.344-0.021,4.548,1.018c0.935,0.81,1.309,1.911,1.309,2.887
			c0,2.803-2.409,3.468-3.136,3.676c2.264,0.208,2.43,1.495,2.7,3.447c0.229,1.765,0.353,2.492,0.457,2.907
			c0.167,0.665,0.291,0.831,0.457,1.08h-3.551c-0.145-0.831-0.602-4.631-0.81-5.212c-0.291-0.852-1.08-0.852-1.62-0.852h-2.824
			v6.064h-3.281V0.83z M84.939,7.392h2.596c0.374,0,1.121,0,1.641-0.416c0.228-0.166,0.831-0.685,0.831-1.744
			c0-1.018-0.499-1.496-0.789-1.683c-0.499-0.353-1.101-0.353-2.119-0.353h-2.16V7.392z"/>
	</g>
	<g>
		<path fill="#00435B" d="M103.758,4.574c0,2.517-2.057,4.574-4.574,4.574c-2.493,0-4.574-2.033-4.574-4.574
			C94.61,1.985,96.74,0,99.184,0C101.652,0,103.758,1.985,103.758,4.574z M95.348,4.562c0,2.129,1.718,3.848,3.824,3.848
			c2.129,0,3.848-1.754,3.848-3.848c0-2.13-1.742-3.824-3.848-3.824C97.09,0.738,95.348,2.408,95.348,4.562z M97.466,2.009h1.767
			c0.605,0,1.791,0,1.791,1.355c0,0.944-0.605,1.137-0.968,1.258c0.702,0.048,0.75,0.508,0.847,1.162
			c0.049,0.411,0.121,1.113,0.267,1.355h-1.089c-0.024-0.242-0.193-1.549-0.193-1.621c-0.073-0.291-0.169-0.436-0.533-0.436h-0.895
			v2.057h-0.992V2.009z M98.434,4.259h0.799c0.653,0,0.774-0.459,0.774-0.726c0-0.702-0.484-0.702-0.75-0.702h-0.823V4.259z"/>
	</g>
	<g>
		<path fill="#00435B" d="M111.231,0.85h3.053V6.79c0.353-0.498,1.121-1.578,3.032-1.578c1.558,0,2.555,0.769,3.053,1.412
			c0.374,0.519,0.686,1.475,0.686,2.845v6.375h-3.053V9.573c0-0.603,0-2.285-1.724-2.285c-0.873,0-1.973,0.499-1.973,2.139
			l0.021,6.417h-3.094V0.85z"/>
		<path fill="#00435B" d="M130.125,15.844c-0.104-0.644-0.104-1.122-0.104-1.433c-1.163,1.682-2.555,1.682-3.136,1.682
			c-1.516,0-2.202-0.436-2.617-0.831c-0.623-0.623-0.914-1.475-0.914-2.305s0.291-2.367,2.222-3.26
			c1.288-0.582,3.136-0.582,4.153-0.582c0-0.686-0.021-1.018-0.145-1.392c-0.27-0.768-1.08-0.872-1.371-0.872
			c-0.437,0-0.893,0.187-1.163,0.582c-0.229,0.353-0.229,0.685-0.229,0.935h-3.011c0.021-0.561,0.083-1.682,1.184-2.471
			c0.956-0.686,2.181-0.852,3.178-0.852c0.872,0,2.7,0.145,3.738,1.35c0.706,0.852,0.727,2.098,0.727,2.575l0.021,4.216
			c0,0.893,0.063,1.786,0.25,2.658H130.125z M126.346,12.604c0,0.706,0.478,1.495,1.495,1.495c0.561,0,1.018-0.27,1.309-0.602
			c0.54-0.665,0.581-1.475,0.581-2.596C127.758,10.735,126.346,11.358,126.346,12.604z"/>
		<path fill="#00435B" d="M137.515,12.812c0.042,0.665,0.457,1.433,1.745,1.433c1.101,0,1.62-0.623,1.62-1.246
			c0-0.478-0.249-0.852-1.454-1.184l-1.911-0.519c-0.852-0.25-2.658-0.769-2.658-2.908c0-2.035,1.869-3.281,4.59-3.281
			c2.16,0,3.904,0.997,3.987,3.095h-2.804c-0.083-1.163-1.018-1.246-1.495-1.246c-0.831,0-1.454,0.395-1.454,1.038
			c0,0.706,0.52,0.852,1.433,1.101l1.89,0.52c1.91,0.519,2.803,1.495,2.803,2.928c0,1.807-1.558,3.613-4.818,3.613
			c-1.35,0-2.638-0.291-3.593-1.288c-0.685-0.727-0.748-1.558-0.769-2.056H137.515z"/>
		<path fill="#00435B" d="M154.415,5.357l0.083,1.495c0.956-1.682,2.7-1.703,3.198-1.703c2.721,0,4.361,2.035,4.361,5.233
			c0,2.97-1.537,5.607-4.569,5.607c-1.89,0-2.658-0.997-2.928-1.35v5.233h-3.136V5.357H154.415z M158.943,10.507
			c0-1.246-0.312-3.385-2.118-3.385c-0.997,0-2.409,0.748-2.409,3.572c0,0.623,0.021,3.281,2.285,3.281
			C158.154,13.975,158.943,12.584,158.943,10.507z"/>
		<path fill="#00435B" d="M164.214,7.932c0-0.499-0.083-2.015-0.146-2.617h2.887l0.062,2.014c0.395-0.893,1.08-2.16,3.572-2.035
			v2.762c-3.115-0.291-3.302,1.308-3.302,2.617v5.171h-3.073V7.932z"/>
		<path fill="#00435B" d="M176.734,5.107c3.8,0,5.441,2.575,5.441,5.503c0,2.949-1.703,5.607-5.503,5.607
			c-2.99,0-5.358-1.849-5.358-5.524C171.314,8.16,172.601,5.107,176.734,5.107z M176.776,14.079c1.35,0,2.264-0.81,2.264-3.593
			c0-1.392-0.27-3.323-2.305-3.323c-2.243,0-2.264,2.596-2.264,3.551C174.471,13.062,175.26,14.079,176.776,14.079z"/>
		<path fill="#00435B" d="M186.159,5.357l2.367,7.123l2.409-7.123h2.97l-3.78,10.487h-3.406l-3.842-10.487H186.159z"/>
		<path fill="#00435B" d="M197.703,11.379c0,0.685,0,2.803,2.139,2.803c0.769,0,1.537-0.291,1.828-1.454h2.804
			c-0.042,0.499-0.146,1.392-0.997,2.285c-0.768,0.81-2.139,1.225-3.676,1.225c-0.893,0-2.596-0.166-3.696-1.308
			c-0.956-0.997-1.35-2.409-1.35-4.091c0-1.703,0.416-3.738,2.181-4.963c0.81-0.54,1.807-0.872,2.949-0.872
			c1.495,0,3.281,0.582,4.236,2.533c0.706,1.433,0.665,2.97,0.623,3.842H197.703z M201.607,9.448c0-0.478-0.042-2.347-1.828-2.347
			c-1.35,0-1.911,1.122-1.973,2.347H201.607z"/>
		<path fill="#00435B" d="M206.816,7.226c0-0.042,0-1.184-0.063-1.911h2.949l0.083,1.578c0.291-0.478,1.121-1.828,3.406-1.828
			c2.056,0,2.928,1.246,3.198,1.973c0.228,0.644,0.291,1.184,0.291,3.136v5.669h-3.136V9.323c0-0.436,0-0.81-0.167-1.142
			c-0.228-0.457-0.706-0.893-1.495-0.893c-0.665,0-1.267,0.312-1.599,0.81c-0.187,0.27-0.374,0.789-0.374,1.599v6.147h-3.094V7.226z
			"/>
		<path fill="#00435B" d="M225.315,0.85h3.281v12.44h6.438v2.554h-9.719V0.85z"/>
		<path fill="#00435B" d="M236.775,0.871l4.963,0.021c0.831,0,3.364,0.021,5.171,1.35c1.89,1.392,2.554,3.759,2.554,5.898
			c0,4.61-2.471,7.019-5.316,7.539c-0.561,0.104-1.184,0.166-2.7,0.166h-4.672V0.871z M240.036,13.373
			c0.353,0.021,0.893,0.042,1.267,0.042c1.371,0,2.555-0.104,3.489-1.039c1.267-1.267,1.35-3.51,1.35-4.236
			c0-2.118-0.727-4.07-2.741-4.631c-0.665-0.187-1.516-0.291-3.364-0.208V13.373z"/>
		<path fill="#00435B" d="M251.848,0.85h3.281v12.44h6.437v2.554h-9.719V0.85z"/>
		<path fill="#00435B" d="M260.276,9.178h5.15v2.347h-5.15V9.178z"/>
		<path fill="#00435B" d="M276.162,5.73c-0.063-0.519-0.249-2.637-2.43-2.637c-2.388,0-3.385,2.492-3.385,5.586
			c0,0.893,0,5.15,3.136,5.15c1.35,0,2.638-0.851,2.7-2.845h3.385c-0.063,0.893-0.146,2.284-1.35,3.53
			c-1.329,1.371-3.011,1.682-4.382,1.682c-5.171,0-6.853-3.821-6.853-7.539c0-4.755,2.658-7.912,6.874-7.912
			c3.281,0,5.586,1.994,5.586,4.984H276.162z"/>
		<path fill="#00435B" d="M287.246,7.932c0-0.499-0.083-2.015-0.146-2.617h2.887l0.062,2.014c0.395-0.893,1.08-2.16,3.572-2.035
			v2.762c-3.115-0.291-3.302,1.308-3.302,2.617v5.171h-3.073V7.932z"/>
		<path fill="#00435B" d="M297.191,11.379c0,0.685,0,2.803,2.139,2.803c0.769,0,1.537-0.291,1.828-1.454h2.804
			c-0.042,0.499-0.146,1.392-0.997,2.285c-0.768,0.81-2.139,1.225-3.676,1.225c-0.893,0-2.596-0.166-3.696-1.308
			c-0.956-0.997-1.35-2.409-1.35-4.091c0-1.703,0.416-3.738,2.181-4.963c0.81-0.54,1.807-0.872,2.949-0.872
			c1.495,0,3.281,0.582,4.236,2.533c0.706,1.433,0.665,2.97,0.623,3.842H297.191z M301.095,9.448c0-0.478-0.042-2.347-1.828-2.347
			c-1.35,0-1.911,1.122-1.973,2.347H301.095z"/>
		<path fill="#00435B" d="M313.199,0.85h3.094v13.291c0,0.623,0.042,1.309,0.083,1.703h-3.115l-0.083-1.516
			c-0.208,0.374-0.415,0.769-1.059,1.184c-0.768,0.499-1.578,0.54-2.035,0.54c-2.803,0-4.465-1.931-4.465-5.212
			c0-3.468,1.89-5.628,4.631-5.628c1.89,0,2.679,1.059,2.949,1.433V0.85z M310.852,14.058c0.893,0,1.62-0.54,1.952-1.184
			c0.457-0.872,0.499-1.952,0.499-2.471c0-2.056-0.893-3.177-2.285-3.177c-2.056,0-2.284,2.471-2.284,3.53
			C308.734,12.5,309.316,14.058,310.852,14.058z"/>
		<path fill="#00435B" d="M321.959,5.357v6.251c0,0.914,0,2.305,1.641,2.305c1.973,0,1.973-1.475,1.973-3.261V5.357h3.157v6.916
			c0.042,2.264,0.062,2.533,0.062,2.803c0.021,0.291,0.042,0.478,0.083,0.769h-2.99l-0.104-1.392
			c-0.312,0.457-1.101,1.662-3.094,1.662c-1.412,0-2.575-0.644-3.157-1.412c-0.685-0.852-0.685-2.305-0.685-2.824V5.357H321.959z"/>
		<path fill="#00435B" d="M337.178,9.074c-0.042-0.374-0.166-1.932-1.35-1.932c-1.454,0-1.62,2.202-1.62,3.344
			c0,0.582,0.063,2.451,0.769,3.219c0.291,0.312,0.602,0.353,0.831,0.353c0.333,0,1.288-0.145,1.412-2.014h3.032
			c-0.042,0.81-0.146,2.077-1.35,3.094c-0.748,0.644-1.682,0.976-2.99,0.976c-1.392,0-2.617-0.312-3.572-1.392
			c-0.914-1.059-1.329-2.45-1.329-4.132c0-4.777,3.509-5.441,4.901-5.441c1.952,0,4.257,1.08,4.278,3.925H337.178z"/>
		<path fill="#00435B" d="M348.182,15.699c-0.997,0.27-1.89,0.333-2.388,0.333c-3.094,0-3.094-1.952-3.094-2.824V7.454h-2.014V5.419
			h2.014V3.363l3.053-1.122v3.177h2.492v2.035h-2.492v4.735c0.021,0.955,0.021,1.557,1.392,1.557c0.457,0,0.665-0.021,1.038-0.062
			V15.699z"/>
		<path fill="#00435B" d="M349.986,0.85h3.281v2.679h-3.281V0.85z M350.09,5.336h3.073v10.508h-3.073V5.336z"/>
		<path fill="#00435B" d="M360.805,5.107c3.8,0,5.441,2.575,5.441,5.503c0,2.949-1.703,5.607-5.503,5.607
			c-2.99,0-5.358-1.849-5.358-5.524C355.384,8.16,356.672,5.107,360.805,5.107z M360.846,14.079c1.35,0,2.264-0.81,2.264-3.593
			c0-1.392-0.27-3.323-2.305-3.323c-2.243,0-2.264,2.596-2.264,3.551C358.541,13.062,359.33,14.079,360.846,14.079z"/>
		<path fill="#00435B" d="M368.589,7.226c0-0.042,0-1.184-0.063-1.911h2.949l0.083,1.578c0.291-0.478,1.121-1.828,3.406-1.828
			c2.056,0,2.928,1.246,3.198,1.973c0.228,0.644,0.291,1.184,0.291,3.136v5.669h-3.136V9.323c0-0.436,0-0.81-0.167-1.142
			c-0.228-0.457-0.706-0.893-1.495-0.893c-0.665,0-1.267,0.312-1.599,0.81c-0.187,0.27-0.374,0.789-0.374,1.599v6.147h-3.094V7.226z
			"/>
		<path fill="#00435B" d="M381.032,1.755c0.787-0.339,1.537-0.762,2.239-1.271h1.561v8.446h-1.827V2.36
			c-0.351,0.266-1.053,0.702-1.973,1.077V1.755z"/>
	</g>
	<g>
		<g>
			<path fill="#00435B" d="M4.727,33.001h3.676l4.236,12.357l4.34-12.357h3.427v14.994h-2.035V34.497L13.45,47.995h-1.973
				L6.742,34.58v13.416H4.727V33.001z"/>
			<path fill="#00435B" d="M25.468,43.136c-0.042,2.16,0.852,3.759,2.991,3.759c1.267,0,2.284-0.665,2.45-2.16h1.952
				c-0.062,0.519-0.146,1.371-0.893,2.18c-0.457,0.52-1.495,1.392-3.593,1.392c-3.281,0-4.838-2.035-4.838-5.337
				c0-2.056,0.415-3.759,2.056-4.901c0.997-0.706,2.243-0.769,2.845-0.769c4.673,0,4.569,4.133,4.527,5.836H25.468z M30.972,41.765
				c0.021-0.997-0.166-3.074-2.575-3.074c-1.267,0-2.804,0.769-2.845,3.074H30.972z"/>
			<path fill="#00435B" d="M34.229,37.528h1.848v-2.181l1.932-0.623v2.803h2.326v1.433h-2.326v6.251c0,0.519,0,1.391,1.391,1.391
				c0.395,0,0.769-0.062,0.935-0.104v1.516c-0.353,0.062-0.914,0.125-1.62,0.125c-1.786,0-2.638-0.52-2.638-2.222v-6.957h-1.848
				V37.528z"/>
			<path fill="#00435B" d="M49.096,47.995c-0.145-0.519-0.187-1.018-0.187-1.558c-0.935,1.724-2.347,1.89-3.219,1.89
				c-2.388,0-3.676-1.35-3.676-3.073c0-0.831,0.291-2.16,1.828-3.053c1.122-0.623,2.783-0.686,3.613-0.686
				c0.499,0,0.81,0.021,1.412,0.063c0-1.288,0-1.848-0.374-2.305c-0.395-0.519-1.246-0.686-1.807-0.686
				c-1.973,0-2.077,1.35-2.098,1.765h-1.952c0.063-0.54,0.125-1.267,0.727-1.973c0.789-0.872,2.264-1.122,3.364-1.122
				c1.516,0,3.136,0.478,3.696,1.537c0.333,0.623,0.353,1.121,0.353,1.599l-0.083,4.984c0,0.166,0.021,1.558,0.166,2.617H49.096z
				 M47.746,42.866c-0.789,0-3.759,0-3.759,2.118c0,0.665,0.415,1.807,2.16,1.807c0.997,0,1.744-0.395,2.222-1.122
				c0.436-0.706,0.457-1.287,0.498-2.741C48.514,42.886,48.224,42.866,47.746,42.866z"/>
			<path fill="#00435B" d="M53.329,41.744h5.213v1.578h-5.213V41.744z"/>
			<path fill="#00435B" d="M67.553,47.995c-0.145-0.519-0.187-1.018-0.187-1.558c-0.935,1.724-2.347,1.89-3.219,1.89
				c-2.388,0-3.676-1.35-3.676-3.073c0-0.831,0.291-2.16,1.828-3.053c1.122-0.623,2.783-0.686,3.613-0.686
				c0.499,0,0.81,0.021,1.412,0.063c0-1.288,0-1.848-0.374-2.305c-0.395-0.519-1.246-0.686-1.807-0.686
				c-1.973,0-2.077,1.35-2.098,1.765h-1.952c0.063-0.54,0.125-1.267,0.727-1.973c0.789-0.872,2.264-1.122,3.364-1.122
				c1.516,0,3.136,0.478,3.696,1.537c0.333,0.623,0.353,1.121,0.353,1.599l-0.083,4.984c0,0.166,0.021,1.558,0.166,2.617H67.553z
				 M66.203,42.866c-0.789,0-3.759,0-3.759,2.118c0,0.665,0.415,1.807,2.16,1.807c0.997,0,1.744-0.395,2.222-1.122
				c0.436-0.706,0.457-1.287,0.498-2.741C66.971,42.886,66.681,42.866,66.203,42.866z"/>
			<path fill="#00435B" d="M72.804,38.774l-0.021-1.205h1.952l0.021,1.682c0.229-0.436,0.976-1.89,3.344-1.89
				c0.935,0,3.78,0.353,3.78,3.551v7.082h-1.994v-6.625c0-0.686-0.083-1.309-0.561-1.786c-0.499-0.478-1.184-0.706-1.848-0.706
				c-1.412,0-2.721,1.018-2.721,3.115v6.002h-1.952V38.774z"/>
			<path fill="#00435B" d="M91.781,47.995c-0.145-0.519-0.187-1.018-0.187-1.558c-0.935,1.724-2.347,1.89-3.219,1.89
				c-2.388,0-3.676-1.35-3.676-3.073c0-0.831,0.291-2.16,1.828-3.053c1.122-0.623,2.783-0.686,3.613-0.686
				c0.499,0,0.81,0.021,1.412,0.063c0-1.288,0-1.848-0.374-2.305c-0.395-0.519-1.246-0.686-1.807-0.686
				c-1.973,0-2.077,1.35-2.098,1.765h-1.952c0.063-0.54,0.125-1.267,0.727-1.973c0.789-0.872,2.264-1.122,3.364-1.122
				c1.516,0,3.136,0.478,3.696,1.537c0.333,0.623,0.353,1.121,0.353,1.599l-0.083,4.984c0,0.166,0.021,1.558,0.166,2.617H91.781z
				 M90.432,42.866c-0.789,0-3.759,0-3.759,2.118c0,0.665,0.415,1.807,2.16,1.807c0.997,0,1.744-0.395,2.222-1.122
				c0.436-0.706,0.457-1.287,0.498-2.741C91.2,42.886,90.909,42.866,90.432,42.866z"/>
			<path fill="#00435B" d="M97.012,33.022h1.952v14.973h-1.952V33.022z"/>
			<path fill="#00435B" d="M107.435,48.058l-1.495,3.883h-2.015l1.578-3.987l-4.34-10.384h2.202l3.26,8.224l3.323-8.224h2.118
				L107.435,48.058z"/>
			<path fill="#00435B" d="M115.406,44.901c-0.021,0.789,0.395,1.89,2.285,1.89c0.81,0,1.412-0.146,1.828-0.665
				c0.208-0.27,0.332-0.623,0.332-0.976c0-1.018-0.727-1.205-2.284-1.558c-2.181-0.498-4.008-0.935-4.008-3.115
				c0-1.911,1.662-3.157,4.07-3.157c1.309,0,3.136,0.374,3.759,1.62c0.27,0.582,0.27,1.08,0.27,1.516h-1.994
				c0.063-1.578-1.308-1.703-2.014-1.703c-0.291,0-2.118,0-2.118,1.495c0,0.955,0.935,1.184,1.474,1.329
				c2.887,0.685,3.51,0.852,4.133,1.433c0.582,0.54,0.789,1.267,0.789,1.932c0,1.163-0.644,2.16-1.412,2.637
				c-0.914,0.561-2.014,0.706-3.094,0.706c-2.118,0-4.091-0.872-4.07-3.385H115.406z"/>
			<path fill="#00435B" d="M124.479,33.043h2.347v2.139h-2.347V33.043z M124.686,37.57h1.952v10.425h-1.952V37.57z"/>
			<path fill="#00435B" d="M131.559,44.901c-0.021,0.789,0.395,1.89,2.285,1.89c0.81,0,1.412-0.146,1.828-0.665
				c0.208-0.27,0.332-0.623,0.332-0.976c0-1.018-0.727-1.205-2.284-1.558c-2.181-0.498-4.008-0.935-4.008-3.115
				c0-1.911,1.662-3.157,4.07-3.157c1.309,0,3.136,0.374,3.759,1.62c0.27,0.582,0.27,1.08,0.27,1.516h-1.994
				c0.063-1.578-1.308-1.703-2.014-1.703c-0.291,0-2.118,0-2.118,1.495c0,0.955,0.935,1.184,1.474,1.329
				c2.887,0.685,3.51,0.852,4.133,1.433c0.582,0.54,0.789,1.267,0.789,1.932c0,1.163-0.644,2.16-1.412,2.637
				c-0.914,0.561-2.014,0.706-3.094,0.706c-2.118,0-4.091-0.872-4.07-3.385H131.559z"/>
			<path fill="#00435B" d="M151.118,37.3c4.174,0,5.108,3.281,5.108,5.462c0,3.053-1.724,5.586-5.275,5.586
				c-3.447,0-5.129-2.388-5.129-5.441C145.822,40.332,147.026,37.3,151.118,37.3z M150.993,46.895c1.475,0,3.157-1.059,3.157-4.195
				c0-2.596-1.205-3.967-3.032-3.967c-1.246,0-3.261,0.789-3.261,4.05C147.857,44.921,148.771,46.895,150.993,46.895z"/>
			<path fill="#00435B" d="M164.488,34.455c-0.332-0.021-0.748-0.042-1.142-0.042c-1.579,0-1.579,0.789-1.579,1.516v1.641h2.43
				v1.412h-2.43v9.013h-1.931v-9.013h-2.056V37.57h2.056v-1.184c0-1.433,0.083-1.952,0.436-2.492
				c0.436-0.665,1.267-1.142,2.617-1.142c0.561,0,1.184,0.083,1.599,0.146V34.455z"/>
			<path fill="#00435B" d="M175.761,35.888c-0.893,0.748-2.326,1.599-3.344,2.077v-2.077c1.35-0.706,2.679-1.578,3.489-2.264h1.848
				v14.371h-1.994V35.888z"/>
			<path fill="#00435B" d="M189.838,37.03c-0.021-1.683-1.267-2.139-2.181-2.139c-2.077,0-2.99,1.786-3.177,5.607
				c0.457-0.665,1.246-1.828,3.344-1.828c2.347,0,4.34,1.558,4.34,4.61c0,3.344-2.388,5.026-4.86,5.026
				c-1.391,0-2.783-0.561-3.551-1.558c-1.06-1.412-1.309-3.468-1.309-5.295c0-3.136,0.769-8.12,5.316-8.12
				c1.89,0,2.949,0.831,3.447,1.371c0.727,0.852,0.748,1.765,0.769,2.326H189.838z M190.17,43.468c0-1.018-0.291-3.198-2.679-3.198
				c-1.931,0-2.866,1.579-2.866,3.219c0,1.869,1.163,3.24,2.762,3.24C188.675,46.729,190.17,45.814,190.17,43.468z"/>
			<path fill="#00435B" d="M199.99,44.88h-6.479v-2.471l6.23-8.971h2.243v9.76h2.097v1.682h-2.097v3.115h-1.994V44.88z
				 M200.052,43.198v-7.58l-4.963,7.58H200.052z"/>
			<path fill="#00435B" d="M212.03,33.001h5.358c0.768,0,2.347,0,3.447,0.706c1.122,0.707,1.661,1.849,1.661,3.053
				c0,1.059-0.395,1.994-1.059,2.658c-0.644,0.644-1.308,0.851-1.765,0.976c1.433,0.374,2.077,1.018,2.285,2.886
				c0.208,1.766,0.353,3.053,0.935,4.714h-2.222c-0.333-0.997-0.54-2.824-0.686-3.966c-0.249-2.181-0.769-2.804-3.281-2.804h-2.617
				v6.77h-2.056V33.001z M214.044,39.46h3.281c0.229,0,1.412,0,1.973-0.333c0.291-0.166,1.018-0.706,1.018-1.952
				c0-2.43-2.16-2.43-2.991-2.43h-3.281V39.46z"/>
			<path fill="#00435B" d="M234.953,37.051c-0.083-0.519-0.353-2.596-3.24-2.596c-3.613,0-4.257,3.696-4.257,6.188
				c0,2.824,0.81,5.877,4.236,5.877c0.914,0,1.786-0.229,2.43-0.893c0.54-0.581,0.665-1.225,0.727-1.578h2.285
				c-0.312,2.949-3.032,4.174-5.607,4.174c-5.275,0-6.292-4.652-6.292-7.56c0-3.156,1.226-7.871,6.563-7.871
				c2.118,0,5.109,0.852,5.379,4.257H234.953z"/>
			<path fill="#00435B" d="M243.401,47.995V34.767h-5.026v-1.766h12.107v1.766h-5.026v13.229H243.401z"/>
			<path fill="#00435B" d="M253.574,44.901c-0.021,0.789,0.395,1.89,2.285,1.89c0.81,0,1.412-0.146,1.828-0.665
				c0.208-0.27,0.332-0.623,0.332-0.976c0-1.018-0.727-1.205-2.284-1.558c-2.181-0.498-4.008-0.935-4.008-3.115
				c0-1.911,1.662-3.157,4.07-3.157c1.309,0,3.136,0.374,3.759,1.62c0.27,0.582,0.27,1.08,0.27,1.516h-1.994
				c0.063-1.578-1.308-1.703-2.014-1.703c-0.291,0-2.118,0-2.118,1.495c0,0.955,0.935,1.184,1.474,1.329
				c2.887,0.685,3.51,0.852,4.133,1.433c0.582,0.54,0.789,1.267,0.789,1.932c0,1.163-0.644,2.16-1.412,2.637
				c-0.914,0.561-2.014,0.706-3.094,0.706c-2.118,0-4.091-0.872-4.07-3.385H253.574z"/>
			<path fill="#00435B" d="M268.708,39.688c0-0.707-0.042-1.433-0.104-2.119h1.973l0.042,2.015c0.374-1.454,1.62-1.932,2.492-2.056
				c0.582-0.083,1.018-0.062,1.35-0.042v1.911c-0.104-0.042-0.229-0.063-0.374-0.083c-0.146-0.021-0.332-0.021-0.561-0.021
				c-2.305,0-2.845,1.371-2.845,3.157v5.545h-1.973V39.688z"/>
			<path fill="#00435B" d="M277.865,43.136c-0.042,2.16,0.852,3.759,2.991,3.759c1.267,0,2.284-0.665,2.45-2.16h1.952
				c-0.062,0.519-0.146,1.371-0.893,2.18c-0.457,0.52-1.495,1.392-3.593,1.392c-3.281,0-4.838-2.035-4.838-5.337
				c0-2.056,0.415-3.759,2.056-4.901c0.997-0.706,2.243-0.769,2.845-0.769c4.673,0,4.569,4.133,4.527,5.836H277.865z
				 M283.368,41.765c0.021-0.997-0.166-3.074-2.575-3.074c-1.267,0-2.804,0.769-2.845,3.074H283.368z"/>
			<path fill="#00435B" d="M294.163,40.914c-0.042-0.478-0.187-2.181-2.077-2.181c-2.7,0-2.7,3.136-2.7,3.925
				c0,2.139,0.519,4.133,2.596,4.133c1.661,0,2.222-1.246,2.264-2.264h1.973c-0.125,2.035-1.641,3.738-4.216,3.738
				c-0.706,0-2.326-0.146-3.426-1.35c-0.623-0.727-1.246-1.827-1.246-3.987c0-4.34,2.658-5.628,4.735-5.628
				c0.686,0,2.243,0.146,3.198,1.288c0.769,0.893,0.831,1.745,0.872,2.326H294.163z"/>
			<path fill="#00435B" d="M299.788,43.136c-0.042,2.16,0.852,3.759,2.991,3.759c1.267,0,2.284-0.665,2.45-2.16h1.952
				c-0.062,0.519-0.146,1.371-0.893,2.18c-0.457,0.52-1.495,1.392-3.593,1.392c-3.281,0-4.838-2.035-4.838-5.337
				c0-2.056,0.415-3.759,2.056-4.901c0.997-0.706,2.243-0.769,2.845-0.769c4.673,0,4.569,4.133,4.527,5.836H299.788z
				 M305.292,41.765c0.021-0.997-0.166-3.074-2.575-3.074c-1.267,0-2.804,0.769-2.845,3.074H305.292z"/>
			<path fill="#00435B" d="M309.961,33.043h2.347v2.139h-2.347V33.043z M310.169,37.57h1.952v10.425h-1.952V37.57z"/>
			<path fill="#00435B" d="M314.736,37.57h2.181l3.323,8.266l3.24-8.266h2.16l-4.569,10.425h-1.973L314.736,37.57z"/>
			<path fill="#00435B" d="M327.671,33.043h2.347v2.139h-2.347V33.043z M327.878,37.57h1.952v10.425h-1.952V37.57z"/>
			<path fill="#00435B" d="M333.692,38.774l-0.021-1.205h1.952l0.021,1.682c0.229-0.436,0.976-1.89,3.344-1.89
				c0.935,0,3.779,0.353,3.779,3.551v7.082h-1.993v-6.625c0-0.686-0.083-1.309-0.561-1.786c-0.499-0.478-1.184-0.706-1.848-0.706
				c-1.412,0-2.721,1.018-2.721,3.115v6.002h-1.952V38.774z"/>
			<path fill="#00435B" d="M348.184,48.805c0.083,1.163,0.581,2.035,2.43,2.035c2.72,0,2.762-1.973,2.762-4.797
				c-0.831,1.724-2.803,1.765-3.426,1.765c-0.956,0-2.326-0.208-3.198-1.288c-0.893-1.059-1.184-2.45-1.184-3.842
				c0-3.53,2.077-5.254,4.631-5.254c2.098,0,2.866,1.038,3.281,1.578l0.021-1.433h1.89l-0.042,1.89l-0.021,6.521
				c0,2.513-0.083,3.531-0.498,4.32c-0.873,1.661-2.908,1.869-4.34,1.869c-4.174,0-4.299-1.952-4.382-3.364H348.184z
				 M352.732,45.316c0.416-0.54,0.706-1.101,0.706-2.99c0-1.308-0.291-2.056-0.81-2.596c-0.519-0.561-1.35-0.914-2.243-0.914
				c-2.471,0-2.804,2.492-2.804,3.821c0,1.599,0.478,3.717,2.866,3.717C351.59,46.354,352.254,45.939,352.732,45.316z"/>
			<path fill="#00435B" d="M365.892,44.901c-0.021,0.789,0.395,1.89,2.285,1.89c0.81,0,1.412-0.146,1.828-0.665
				c0.208-0.27,0.332-0.623,0.332-0.976c0-1.018-0.727-1.205-2.284-1.558c-2.181-0.498-4.008-0.935-4.008-3.115
				c0-1.911,1.662-3.157,4.07-3.157c1.309,0,3.136,0.374,3.759,1.62c0.27,0.582,0.27,1.08,0.27,1.516h-1.994
				c0.063-1.578-1.308-1.703-2.014-1.703c-0.291,0-2.118,0-2.118,1.495c0,0.955,0.935,1.184,1.474,1.329
				c2.887,0.685,3.51,0.852,4.133,1.433c0.582,0.54,0.789,1.267,0.789,1.932c0,1.163-0.644,2.16-1.412,2.637
				c-0.914,0.561-2.014,0.706-3.094,0.706c-2.118,0-4.091-0.872-4.07-3.385H365.892z"/>
			<path fill="#00435B" d="M373.553,37.528h1.848v-2.181l1.932-0.623v2.803h2.326v1.433h-2.326v6.251c0,0.519,0,1.391,1.391,1.391
				c0.395,0,0.769-0.062,0.935-0.104v1.516c-0.353,0.062-0.914,0.125-1.62,0.125c-1.786,0-2.638-0.52-2.638-2.222v-6.957h-1.848
				V37.528z"/>
			<path fill="#00435B" d="M388.42,47.995c-0.145-0.519-0.187-1.018-0.187-1.558c-0.935,1.724-2.347,1.89-3.219,1.89
				c-2.388,0-3.676-1.35-3.676-3.073c0-0.831,0.291-2.16,1.828-3.053c1.122-0.623,2.783-0.686,3.613-0.686
				c0.499,0,0.81,0.021,1.412,0.063c0-1.288,0-1.848-0.374-2.305c-0.395-0.519-1.246-0.686-1.807-0.686
				c-1.973,0-2.077,1.35-2.098,1.765h-1.952c0.063-0.54,0.125-1.267,0.727-1.973c0.789-0.872,2.264-1.122,3.364-1.122
				c1.516,0,3.136,0.478,3.696,1.537c0.333,0.623,0.353,1.121,0.353,1.599l-0.083,4.984c0,0.166,0.021,1.558,0.166,2.617H388.42z
				 M387.071,42.866c-0.789,0-3.759,0-3.759,2.118c0,0.665,0.415,1.807,2.16,1.807c0.997,0,1.745-0.395,2.222-1.122
				c0.436-0.706,0.457-1.287,0.498-2.741C387.839,42.886,387.548,42.866,387.071,42.866z"/>
			<path fill="#00435B" d="M392.01,37.528h1.848v-2.181l1.932-0.623v2.803h2.326v1.433h-2.326v6.251c0,0.519,0,1.391,1.391,1.391
				c0.395,0,0.769-0.062,0.935-0.104v1.516c-0.353,0.062-0.914,0.125-1.62,0.125c-1.786,0-2.638-0.52-2.638-2.222v-6.957h-1.848
				V37.528z"/>
			<path fill="#00435B" d="M400.335,33.043h2.347v2.139h-2.347V33.043z M400.543,37.57h1.952v10.425h-1.952V37.57z"/>
			<path fill="#00435B" d="M406.356,38.774l-0.021-1.205h1.952l0.021,1.682c0.229-0.436,0.976-1.89,3.344-1.89
				c0.935,0,3.78,0.353,3.78,3.551v7.082h-1.994v-6.625c0-0.686-0.083-1.309-0.561-1.786c-0.499-0.478-1.184-0.706-1.848-0.706
				c-1.412,0-2.721,1.018-2.721,3.115v6.002h-1.952V38.774z"/>
			<path fill="#00435B" d="M420.1,44.901c-0.021,0.789,0.395,1.89,2.285,1.89c0.81,0,1.412-0.146,1.828-0.665
				c0.208-0.27,0.332-0.623,0.332-0.976c0-1.018-0.727-1.205-2.284-1.558c-2.181-0.498-4.008-0.935-4.008-3.115
				c0-1.911,1.662-3.157,4.07-3.157c1.309,0,3.136,0.374,3.759,1.62c0.27,0.582,0.27,1.08,0.27,1.516h-1.994
				c0.063-1.578-1.308-1.703-2.014-1.703c-0.291,0-2.118,0-2.118,1.495c0,0.955,0.935,1.184,1.474,1.329
				c2.887,0.685,3.51,0.852,4.133,1.433c0.582,0.54,0.789,1.267,0.789,1.932c0,1.163-0.644,2.16-1.412,2.637
				c-0.914,0.561-2.014,0.706-3.094,0.706c-2.118,0-4.091-0.872-4.07-3.385H420.1z"/>
			<path fill="#00435B" d="M429.256,37.466h2.305v2.45h-2.305V37.466z M429.256,45.544h2.305v2.451h-2.305V45.544z"/>
		</g>
		<g>
			<path fill="#00435B" d="M437.024,34.029c-0.521,0.436-1.355,0.932-1.948,1.21v-1.21c0.787-0.412,1.561-0.92,2.033-1.319h1.077
				v8.374h-1.162V34.029z"/>
		</g>
	</g>
	<rect x="0" y="5.24" fill="#00435B" width="5.716" height="5.716"/>
</g>
</svg>
