<?xml version="1.0" encoding="utf-8"?>
<!-- Generator: Adobe Illustrator 17.0.0, SVG Export Plug-In . SVG Version: 6.00 Build 0)  -->
<!DOCTYPE svg PUBLIC "-//W3C//DTD SVG 1.1//EN" "http://www.w3.org/Graphics/SVG/1.1/DTD/svg11.dtd">
<svg version="1.1" id="Layer_1" xmlns="http://www.w3.org/2000/svg" xmlns:xlink="http://www.w3.org/1999/xlink" x="0px" y="0px"
	 width="449.98px" height="365.497px" viewBox="0 0 449.98 365.497" enable-background="new 0 0 449.98 365.497"
	 xml:space="preserve">
<g>
	<g>
		<radialGradient id="SVGID_2_" cx="224.99" cy="173.9022" r="201.0752" gradientUnits="userSpaceOnUse">
			<stop  offset="0" style="stop-color:#A0D4E4;stop-opacity:0"/>
			<stop  offset="0.0392" style="stop-color:#9DD2E5;stop-opacity:0.197"/>
			<stop  offset="0.0707" style="stop-color:#93CDE6;stop-opacity:0.3552"/>
			<stop  offset="0.0995" style="stop-color:#82C4E9;stop-opacity:0.5"/>
			<stop  offset="0.1267" style="stop-color:#6AB8ED;stop-opacity:0.6367"/>
			<stop  offset="0.1528" style="stop-color:#4BA8F2;stop-opacity:0.7679"/>
			<stop  offset="0.1777" style="stop-color:#2694F9;stop-opacity:0.893"/>
			<stop  offset="0.199" style="stop-color:#0080FF"/>
			<stop  offset="0.2012" style="stop-color:#007FFC"/>
			<stop  offset="0.2379" style="stop-color:#006CD3"/>
			<stop  offset="0.2776" style="stop-color:#015BAF"/>
			<stop  offset="0.3223" style="stop-color:#014D8F"/>
			<stop  offset="0.3717" style="stop-color:#014073"/>
			<stop  offset="0.4275" style="stop-color:#02365D"/>
			<stop  offset="0.4927" style="stop-color:#022E4C"/>
			<stop  offset="0.5733" style="stop-color:#022941"/>
			<stop  offset="0.6863" style="stop-color:#02263A"/>
			<stop  offset="1" style="stop-color:#022538"/>
		</radialGradient>
		<path fill="url(#SVGID_2_)" d="M449.98,306.016c0,14.389-11.665,26.054-26.054,26.054c0,0-156.372,15.935-208.693,15.733
			c-47.458-0.183-189.179-15.733-189.179-15.733C11.665,332.069,0,320.405,0,306.016V38.723c0-14.389,11.665-26.054,26.054-26.054
			c0,0,141.884-12.669,189.179-12.669c52.173,0,208.693,12.669,208.693,12.669c14.389,0,26.054,11.665,26.054,26.054V306.016z"/>
		<g>
			<radialGradient id="SVGID_4_" cx="224.99" cy="173.9022" r="196.7673" gradientUnits="userSpaceOnUse">
				<stop  offset="0" style="stop-color:#FFFFFF"/>
				<stop  offset="1" style="stop-color:#F7F7F7"/>
			</radialGradient>
			<path fill="url(#SVGID_4_)" d="M445.16,303.185c0,14.081-11.415,25.496-25.496,25.496c0,0-153.022,15.594-204.222,15.396
				c-46.441-0.179-185.126-15.396-185.126-15.396c-14.081,0-25.496-11.415-25.496-25.496V41.619
				c0-14.081,11.415-25.496,25.496-25.496c0,0,138.844-12.398,185.126-12.398c51.056,0,204.222,12.398,204.222,12.398
				c14.081,0,25.496,11.415,25.496,25.496V303.185z"/>
		</g>
	</g>
	<g>
		<path fill="#04617D" d="M24.505,249.011v-1.366h8.732v-4.635h1.228v6.001H24.505z"/>
		<path fill="#04617D" d="M24.505,241.411v-2.883c0-1.338,0-2.91,1.297-4.014c1.035-0.883,2.4-1.228,3.766-1.228
			c2.152,0,3.476,0.896,4.083,1.655c0.814,0.979,0.814,2.207,0.814,3.669v2.8H24.505z M33.333,240.032v-1.352
			c0-0.952-0.055-1.945-0.552-2.607c-0.952-1.27-2.579-1.311-3.159-1.311c-0.373,0-2.069,0.027-3.104,0.966
			c-0.704,0.635-0.869,1.435-0.869,2.648v1.655H33.333z"/>
		<path fill="#04617D" d="M24.505,231.383v-1.365h8.732v-4.635h1.228v6H24.505z"/>
		<path fill="#04617D" d="M30.312,226.832v-3.463h1.048v3.463H30.312z"/>
		<path fill="#04617D" d="M27.195,215.604c-0.345,0.055-1.724,0.234-1.724,2.151c0,2.4,2.455,2.828,4.11,2.828
			c1.876,0,3.904-0.538,3.904-2.813c0-0.607-0.152-1.187-0.593-1.614c-0.386-0.358-0.813-0.441-1.048-0.482v-1.518
			c1.958,0.207,2.772,2.014,2.772,3.725c0,3.503-3.09,4.179-5.021,4.179c-2.097,0-5.228-0.813-5.228-4.358
			c0-1.407,0.565-3.394,2.828-3.572V215.604z"/>
		<path fill="#04617D" d="M35.002,207.232l-10.622-6.083v-0.91l10.622,6.083V207.232z M27.098,204.583
			c1.71,0,2.497,1.007,2.497,2.263c0,1.2-0.717,2.221-2.414,2.221c-1.448,0-2.524-0.786-2.524-2.345
			C24.656,205.135,25.843,204.583,27.098,204.583z M27.153,205.673c-0.676,0-1.669,0.166-1.669,1.145
			c0,1.187,1.352,1.187,1.683,1.187c0.317,0,1.627,0,1.627-1.187C28.795,205.673,27.429,205.673,27.153,205.673z M30.353,198.818
			c0.276-0.248,0.718-0.565,1.752-0.565c1.504,0,2.524,0.73,2.524,2.221c0,1.766-1.311,2.262-2.455,2.262
			c-1.669,0-2.483-1.034-2.483-2.262C29.691,200.101,29.76,199.356,30.353,198.818z M32.133,199.3c-0.428,0-1.669,0.083-1.669,1.159
			c0,1.187,1.435,1.187,1.849,1.187c0.483,0,1.503-0.11,1.503-1.159C33.816,199.383,32.63,199.3,32.133,199.3z"/>
		<path fill="#04617D" d="M29.76,188.529c-0.317,0.027-1.448,0.124-1.448,1.38c0,1.793,2.083,1.793,2.607,1.793
			c1.42,0,2.745-0.345,2.745-1.725c0-1.104-0.827-1.476-1.503-1.503v-1.311c1.352,0.082,2.483,1.09,2.483,2.8
			c0,0.469-0.097,1.545-0.896,2.276c-0.483,0.413-1.214,0.827-2.648,0.827c-2.883,0-3.738-1.766-3.738-3.145
			c0-0.455,0.097-1.49,0.855-2.125c0.593-0.51,1.159-0.552,1.545-0.579V188.529z"/>
		<path fill="#04617D" d="M24.519,186.253v-1.311h4.042c-0.731-0.428-1.145-1.283-1.145-2.248c0-0.731,0.262-1.78,1.104-2.18
			c0.276-0.138,0.607-0.234,1.614-0.234h4.332v1.324h-4.097c-0.621,0-1.959,0-1.959,1.489c0,0.966,0.593,1.448,0.924,1.628
			c0.386,0.221,1.035,0.221,1.462,0.221h3.669v1.311H24.519z"/>
		<path fill="#04617D" d="M34.464,173.605c-0.345,0.096-0.676,0.124-1.035,0.124c1.145,0.62,1.255,1.559,1.255,2.138
			c0,1.586-0.896,2.441-2.042,2.441c-0.552,0-1.435-0.193-2.028-1.214c-0.414-0.745-0.455-1.849-0.455-2.4
			c0-0.331,0.014-0.537,0.042-0.938c-0.855,0-1.228,0-1.531,0.248c-0.345,0.263-0.455,0.828-0.455,1.2
			c0,1.311,0.896,1.38,1.172,1.394v1.296c-0.359-0.041-0.841-0.082-1.311-0.482c-0.579-0.524-0.745-1.504-0.745-2.234
			c0-1.007,0.317-2.083,1.021-2.455c0.414-0.221,0.745-0.235,1.063-0.235l3.311,0.056c0.11,0,1.034-0.014,1.738-0.11V173.605z
			 M31.057,174.501c0,0.523,0,2.496,1.407,2.496c0.441,0,1.2-0.275,1.2-1.435c0-0.662-0.262-1.158-0.745-1.476
			c-0.469-0.29-0.855-0.304-1.821-0.331C31.071,173.991,31.057,174.184,31.057,174.501z"/>
		<path fill="#04617D" d="M28.34,170.115l-0.8,0.015v-1.297l1.117-0.014c-0.29-0.152-1.255-0.648-1.255-2.221
			c0-0.621,0.234-2.511,2.359-2.511h4.704v1.324h-4.4c-0.455,0-0.869,0.055-1.186,0.372c-0.317,0.331-0.469,0.786-0.469,1.228
			c0,0.938,0.676,1.808,2.069,1.808h3.986v1.296H28.34z"/>
		<path fill="#04617D" d="M35.002,160.488c0.772-0.055,1.352-0.386,1.352-1.614c0-1.807-1.31-1.834-3.186-1.834
			c1.145,0.552,1.172,1.862,1.172,2.275c0,0.635-0.138,1.545-0.855,2.125c-0.704,0.593-1.627,0.786-2.552,0.786
			c-2.345,0-3.49-1.38-3.49-3.076c0-1.394,0.689-1.903,1.048-2.18l-0.952-0.014v-1.255l1.255,0.027l4.332,0.014
			c1.669,0,2.345,0.056,2.869,0.331c1.104,0.579,1.241,1.932,1.241,2.883c0,2.772-1.296,2.855-2.234,2.911V160.488z M32.685,157.467
			c-0.359-0.276-0.731-0.47-1.986-0.47c-0.869,0-1.366,0.193-1.724,0.538c-0.373,0.345-0.607,0.896-0.607,1.49
			c0,1.642,1.655,1.862,2.538,1.862c1.063,0,2.469-0.317,2.469-1.904C33.374,158.226,33.098,157.785,32.685,157.467z"/>
		<path fill="#04617D" d="M31.236,152.515c1.435,0.027,2.497-0.565,2.497-1.986c0-0.841-0.441-1.518-1.435-1.628v-1.296
			c0.345,0.041,0.91,0.097,1.448,0.593c0.345,0.304,0.924,0.993,0.924,2.387c0,2.179-1.352,3.214-3.545,3.214
			c-1.365,0-2.497-0.276-3.255-1.366c-0.469-0.662-0.511-1.489-0.511-1.89c0-3.104,2.745-3.034,3.876-3.007V152.515z M30.326,148.86
			c-0.662-0.014-2.042,0.11-2.042,1.711c0,0.841,0.51,1.861,2.042,1.89V148.86z"/>
	</g>
	<g>
		<path fill="#04617D" d="M44.188,238.738c-0.014,0.221-0.027,0.496-0.027,0.759c0,1.048,0.524,1.048,1.007,1.048h1.09v-1.613h0.938
			v1.613h5.987v1.283h-5.987v1.365h-0.938v-1.365h-0.787c-0.952,0-1.296-0.056-1.655-0.29c-0.441-0.289-0.758-0.841-0.758-1.737
			c0-0.373,0.055-0.787,0.096-1.063H44.188z"/>
		<path fill="#04617D" d="M47.664,237.538c-0.469,0-0.952,0.027-1.407,0.068v-1.311l1.338-0.027
			c-0.966-0.248-1.283-1.076-1.366-1.655c-0.055-0.386-0.042-0.676-0.028-0.896h1.27c-0.028,0.069-0.042,0.151-0.056,0.248
			c-0.014,0.097-0.014,0.221-0.014,0.373c0,1.531,0.911,1.89,2.097,1.89h3.683v1.311H47.664z"/>
		<path fill="#04617D" d="M46.078,229.235c0-2.773,2.18-3.394,3.628-3.394c2.028,0,3.71,1.145,3.71,3.504
			c0,2.289-1.586,3.406-3.614,3.406C48.092,232.751,46.078,231.952,46.078,229.235z M52.451,229.317
			c0-0.979-0.704-2.097-2.787-2.097c-1.724,0-2.634,0.801-2.634,2.015c0,0.827,0.524,2.165,2.689,2.165
			C51.14,231.4,52.451,230.793,52.451,229.317z"/>
		<path fill="#04617D" d="M47.181,223.828l-0.924,0.028v-1.311h1.007c-1.09-0.662-1.187-1.601-1.187-2.193
			c0-1.531,0.786-2.014,1.297-2.263c-0.386-0.234-1.297-0.8-1.297-2.331c0-0.993,0.414-2.538,2.456-2.538h4.648v1.311H48.74
			c-0.606,0-0.869,0.11-1.048,0.234c-0.317,0.221-0.607,0.662-0.607,1.324c0,0.842,0.483,1.297,0.731,1.477
			c0.428,0.303,1.186,0.303,1.49,0.303h3.876v1.311h-4.58c-0.855,0-1.518,0.497-1.518,1.518c0,0.883,0.552,1.365,0.759,1.518
			c0.4,0.289,0.966,0.304,1.407,0.304h3.931v1.31H47.181z"/>
		<path fill="#04617D" d="M47.264,205.662c-0.317-0.18-1.187-0.689-1.187-2.262c0-0.69,0.166-1.56,0.883-2.193
			c0.4-0.345,1.09-0.814,2.607-0.814c1.338,0,2.069,0.317,2.524,0.662c0.787,0.552,1.187,1.477,1.187,2.428
			c0,0.331-0.042,0.952-0.441,1.545c-0.262,0.387-0.497,0.538-0.704,0.676l1.048,0.028v1.255l-1.242-0.027h-8.718v-1.297H47.264z
			 M46.961,203.704c0,1.986,2.317,1.986,2.759,1.986c0.455,0,2.621,0,2.621-1.931c0-1.601-1.559-2-2.69-2
			C48.961,201.759,46.961,201.897,46.961,203.704z"/>
		<path fill="#04617D" d="M53.182,194.311c-0.345,0.097-0.676,0.124-1.035,0.124c1.145,0.621,1.255,1.559,1.255,2.139
			c0,1.586-0.896,2.441-2.042,2.441c-0.552,0-1.435-0.193-2.028-1.214c-0.414-0.745-0.455-1.849-0.455-2.4
			c0-0.331,0.014-0.538,0.042-0.938c-0.855,0-1.228,0-1.531,0.249c-0.345,0.262-0.455,0.827-0.455,1.2
			c0,1.31,0.896,1.379,1.172,1.393v1.297c-0.359-0.041-0.841-0.083-1.311-0.482c-0.579-0.524-0.745-1.504-0.745-2.235
			c0-1.007,0.317-2.083,1.021-2.455c0.414-0.221,0.745-0.234,1.063-0.234l3.311,0.055c0.11,0,1.034-0.014,1.738-0.11V194.311z
			 M49.775,195.207c0,0.524,0,2.497,1.407,2.497c0.441,0,1.2-0.276,1.2-1.435c0-0.662-0.262-1.159-0.745-1.477
			c-0.469-0.289-0.855-0.303-1.821-0.331C49.789,194.698,49.775,194.89,49.775,195.207z"/>
		<path fill="#04617D" d="M51.127,190.119c0.524,0.014,1.255-0.263,1.255-1.518c0-0.538-0.096-0.938-0.441-1.214
			c-0.179-0.138-0.414-0.221-0.648-0.221c-0.676,0-0.8,0.482-1.035,1.518c-0.331,1.448-0.621,2.662-2.069,2.662
			c-1.269,0-2.097-1.104-2.097-2.704c0-0.869,0.249-2.083,1.076-2.496c0.386-0.18,0.717-0.18,1.007-0.18v1.324
			c-1.048-0.041-1.131,0.869-1.131,1.338c0,0.193,0,1.407,0.993,1.407c0.634,0,0.786-0.621,0.883-0.979
			c0.455-1.917,0.565-2.331,0.952-2.745c0.359-0.386,0.841-0.524,1.283-0.524c0.772,0,1.435,0.428,1.752,0.938
			c0.373,0.606,0.469,1.338,0.469,2.055c0,1.407-0.579,2.718-2.248,2.704V190.119z"/>
		<path fill="#04617D" d="M49.954,183.18c1.435,0.027,2.497-0.565,2.497-1.986c0-0.842-0.441-1.518-1.435-1.628v-1.297
			c0.345,0.042,0.91,0.097,1.448,0.594c0.345,0.303,0.924,0.993,0.924,2.386c0,2.18-1.352,3.214-3.545,3.214
			c-1.365,0-2.497-0.275-3.255-1.365c-0.469-0.662-0.511-1.49-0.511-1.89c0-3.104,2.745-3.035,3.876-3.007V183.18z M49.044,179.525
			c-0.662-0.015-2.042,0.11-2.042,1.71c0,0.842,0.51,1.862,2.042,1.89V179.525z"/>
		<path fill="#04617D" d="M43.237,176.27v-1.297h9.945v1.297H43.237z"/>
		<path fill="#04617D" d="M43.25,172.586v-1.559h1.421v1.559H43.25z M46.258,172.449v-1.297h6.924v1.297H46.258z"/>
		<path fill="#04617D" d="M47.057,168.586l-0.8,0.015v-1.297l1.117-0.014c-0.29-0.152-1.255-0.648-1.255-2.221
			c0-0.621,0.234-2.511,2.359-2.511h4.704v1.324h-4.4c-0.455,0-0.869,0.055-1.186,0.372c-0.317,0.331-0.469,0.786-0.469,1.228
			c0,0.938,0.676,1.808,2.069,1.808h3.986v1.296H47.057z"/>
		<path fill="#04617D" d="M49.954,159.414c1.435,0.027,2.497-0.565,2.497-1.986c0-0.841-0.441-1.518-1.435-1.628v-1.296
			c0.345,0.041,0.91,0.097,1.448,0.593c0.345,0.304,0.924,0.993,0.924,2.387c0,2.179-1.352,3.214-3.545,3.214
			c-1.365,0-2.497-0.276-3.255-1.366c-0.469-0.662-0.511-1.489-0.511-1.89c0-3.104,2.745-3.034,3.876-3.007V159.414z
			 M49.044,155.759c-0.662-0.014-2.042,0.11-2.042,1.711c0,0.841,0.51,1.861,2.042,1.89V155.759z"/>
	</g>
	<g>
		<path fill="#04617D" d="M57.445,303.377h3.462v1.048h-3.462V303.377z"/>
		<path fill="#04617D" d="M65.197,299.487c-0.593,0.497-1.545,1.063-2.221,1.38v-1.38c0.897-0.469,1.78-1.048,2.317-1.503h1.228
			v9.545h-1.324V299.487z"/>
		<path fill="#04617D" d="M72.176,297.79c2.855,0,3.2,3.063,3.2,4.855c0,2.263-0.455,3.531-1.324,4.345
			c-0.676,0.635-1.476,0.731-1.904,0.731c-1.269,0-2.138-0.745-2.552-1.586c-0.317-0.635-0.621-1.559-0.621-3.27
			C68.976,301.446,69.141,297.79,72.176,297.79z M72.162,306.578c1.6,0,1.876-2.097,1.876-3.808c0-2.29-0.4-3.876-1.849-3.876
			c-1.669,0-1.89,2.193-1.89,3.903C70.3,304.922,70.714,306.578,72.162,306.578z"/>
		<path fill="#04617D" d="M80.397,297.79c2.855,0,3.2,3.063,3.2,4.855c0,2.263-0.455,3.531-1.324,4.345
			c-0.676,0.635-1.476,0.731-1.904,0.731c-1.269,0-2.138-0.745-2.552-1.586c-0.317-0.635-0.621-1.559-0.621-3.27
			C77.197,301.446,77.362,297.79,80.397,297.79z M80.383,306.578c1.6,0,1.876-2.097,1.876-3.808c0-2.29-0.4-3.876-1.849-3.876
			c-1.669,0-1.89,2.193-1.89,3.903C78.521,304.922,78.934,306.578,80.383,306.578z"/>
	</g>
	<g>
		<path fill="#04617D" d="M66.107,258.62h3.462v1.048h-3.462V258.62z"/>
		<path fill="#04617D" d="M70.824,255.612c0-0.854,0.579-2.606,3.09-2.606c2.014,0,3.172,1.09,3.172,2.552
			c0,0.937-0.607,1.917-1.945,2.166c0.565,0.151,2.083,0.565,2.083,2.413c0,1.311-0.911,2.801-3.283,2.801
			c-0.814,0-1.779-0.166-2.469-0.8c-0.51-0.47-0.841-1.187-0.841-1.918c0-0.635,0.249-1.297,0.731-1.752
			c0.456-0.455,0.952-0.593,1.38-0.73C71.472,257.46,70.824,256.564,70.824,255.612z M73.942,261.847
			c1.531,0,1.904-1.076,1.904-1.793c0-1.063-0.786-1.752-1.876-1.752c-1.173,0-1.945,0.786-1.945,1.793
			C72.024,260.84,72.521,261.847,73.942,261.847z M73.969,254.026c-1.021,0-1.807,0.607-1.807,1.559
			c0,0.925,0.772,1.545,1.766,1.545c1.048,0,1.834-0.606,1.834-1.545C75.762,254.715,75.114,254.026,73.969,254.026z"/>
		<path fill="#04617D" d="M81.597,253.033c2.855,0,3.2,3.062,3.2,4.855c0,2.263-0.455,3.531-1.324,4.345
			c-0.676,0.635-1.476,0.731-1.904,0.731c-1.269,0-2.138-0.745-2.552-1.586c-0.317-0.635-0.621-1.559-0.621-3.27
			C78.397,256.688,78.562,253.033,81.597,253.033z M81.583,261.82c1.6,0,1.876-2.097,1.876-3.808c0-2.29-0.4-3.876-1.849-3.876
			c-1.669,0-1.89,2.193-1.89,3.903C79.721,260.164,80.134,261.82,81.583,261.82z"/>
	</g>
	<g>
		<path fill="#04617D" d="M66.107,175.075h3.462v1.049h-3.462V175.075z"/>
		<path fill="#04617D" d="M74.811,177.158h-4.304v-1.642l4.138-5.959h1.49v6.483h1.393v1.117h-1.393v2.069h-1.324V177.158z
			 M74.852,176.04v-5.035l-3.297,5.035H74.852z"/>
		<path fill="#04617D" d="M81.597,169.489c2.855,0,3.2,3.062,3.2,4.855c0,2.262-0.455,3.531-1.324,4.345
			c-0.676,0.635-1.476,0.731-1.904,0.731c-1.269,0-2.138-0.745-2.552-1.587c-0.317-0.635-0.621-1.559-0.621-3.269
			C78.397,173.144,78.562,169.489,81.597,169.489z M81.583,178.275c1.6,0,1.876-2.097,1.876-3.807c0-2.29-0.4-3.876-1.849-3.876
			c-1.669,0-1.89,2.192-1.89,3.903C79.721,176.62,80.134,178.275,81.583,178.275z"/>
	</g>
	<g>
		<path fill="#04617D" d="M66.107,217.944h3.462v1.048h-3.462V217.944z"/>
		<path fill="#04617D" d="M75.735,214.812c-0.014-1.117-0.842-1.421-1.448-1.421c-1.38,0-1.986,1.187-2.111,3.725
			c0.304-0.441,0.828-1.214,2.221-1.214c1.559,0,2.883,1.035,2.883,3.063c0,2.221-1.586,3.338-3.228,3.338
			c-0.924,0-1.848-0.372-2.359-1.034c-0.703-0.938-0.869-2.304-0.869-3.518c0-2.083,0.51-5.394,3.531-5.394
			c1.255,0,1.958,0.552,2.29,0.91c0.483,0.565,0.497,1.173,0.511,1.545H75.735z M75.956,219.088c0-0.676-0.193-2.124-1.779-2.124
			c-1.283,0-1.904,1.048-1.904,2.138c0,1.241,0.772,2.152,1.834,2.152C74.963,221.254,75.956,220.647,75.956,219.088z"/>
		<path fill="#04617D" d="M81.597,212.357c2.855,0,3.2,3.063,3.2,4.855c0,2.263-0.455,3.531-1.324,4.345
			c-0.676,0.635-1.476,0.731-1.904,0.731c-1.269,0-2.138-0.745-2.552-1.586c-0.317-0.635-0.621-1.559-0.621-3.27
			C78.397,216.012,78.562,212.357,81.597,212.357z M81.583,221.144c1.6,0,1.876-2.097,1.876-3.808c0-2.29-0.4-3.876-1.849-3.876
			c-1.669,0-1.89,2.193-1.89,3.903C79.721,219.489,80.134,221.144,81.583,221.144z"/>
	</g>
	<g>
		<path fill="#04617D" d="M66.107,130.757h3.462v1.049h-3.462V130.757z"/>
		<path fill="#04617D" d="M70.852,133.654l2.497-2.455c0.524-0.51,1.049-1.062,1.476-1.642c0.552-0.759,0.704-1.186,0.704-1.696
			c0-0.469-0.166-1.559-1.531-1.559c-1.531,0-1.559,1.311-1.559,1.669H70.99c0.014-0.469,0.055-1.38,0.883-2.097
			c0.662-0.565,1.462-0.689,2.069-0.689c1.462,0,2.952,0.744,2.952,2.786c0,0.606-0.042,1.076-1.076,2.387
			c-0.276,0.345-1.49,1.6-1.766,1.876l-1.669,1.586h4.538v1.09h-6.069V133.654z"/>
		<path fill="#04617D" d="M81.597,125.171c2.855,0,3.2,3.062,3.2,4.855c0,2.262-0.455,3.531-1.324,4.345
			c-0.676,0.635-1.476,0.731-1.904,0.731c-1.269,0-2.138-0.745-2.552-1.587c-0.317-0.635-0.621-1.559-0.621-3.269
			C78.397,128.827,78.562,125.171,81.597,125.171z M81.583,133.957c1.6,0,1.876-2.097,1.876-3.807c0-2.29-0.4-3.876-1.849-3.876
			c-1.669,0-1.89,2.192-1.89,3.903C79.721,132.302,80.134,133.957,81.583,133.957z"/>
	</g>
	<g>
		<path fill="#04617D" d="M84.065,83.832c2.855,0,3.2,3.062,3.2,4.855c0,2.262-0.455,3.531-1.324,4.345
			c-0.676,0.635-1.476,0.731-1.903,0.731c-1.27,0-2.138-0.745-2.552-1.586c-0.317-0.635-0.621-1.559-0.621-3.269
			C80.865,87.488,81.03,83.832,84.065,83.832z M84.051,92.619c1.6,0,1.876-2.097,1.876-3.807c0-2.29-0.4-3.876-1.849-3.876
			c-1.669,0-1.89,2.193-1.89,3.903C82.189,90.964,82.603,92.619,84.051,92.619z"/>
	</g>
	<g>
		<path fill="#04617D" d="M116.287,71.389h1.476l4.028,9.959h-1.503l-1.076-2.593h-4.621l-1.076,2.593h-1.421L116.287,71.389z
			 M115.032,77.638h3.766l-1.834-4.883L115.032,77.638z"/>
		<path fill="#04617D" d="M122.08,74.396h1.228v-1.448l1.283-0.414v1.862h1.545v0.952h-1.545V79.5c0,0.345,0,0.924,0.924,0.924
			c0.262,0,0.51-0.041,0.621-0.069v1.007c-0.234,0.042-0.607,0.083-1.076,0.083c-1.187,0-1.752-0.345-1.752-1.476v-4.621h-1.228
			V74.396z"/>
		<path fill="#04617D" d="M130.742,74.245c2.773,0,3.394,2.18,3.394,3.628c0,2.028-1.145,3.71-3.504,3.71
			c-2.29,0-3.407-1.586-3.407-3.614C127.225,76.259,128.025,74.245,130.742,74.245z M130.659,80.618
			c0.979,0,2.097-0.704,2.097-2.787c0-1.724-0.8-2.634-2.014-2.634c-0.827,0-2.166,0.524-2.166,2.689
			C128.576,79.307,129.183,80.618,130.659,80.618z"/>
		<path fill="#04617D" d="M136.232,75.831c0-0.469-0.027-0.952-0.069-1.407h1.311l0.027,1.338c0.249-0.966,1.076-1.283,1.655-1.366
			c0.386-0.055,0.676-0.042,0.896-0.028v1.27c-0.069-0.028-0.151-0.042-0.248-0.056c-0.097-0.014-0.221-0.014-0.373-0.014
			c-1.531,0-1.89,0.911-1.89,2.097v3.683h-1.311V75.831z"/>
		<path fill="#04617D" d="M140.48,74.424h1.448l2.207,5.49l2.152-5.49h1.435l-3.035,6.924h-1.31L140.48,74.424z"/>
		<path fill="#04617D" d="M153.418,81.349c-0.096-0.345-0.124-0.676-0.124-1.035c-0.621,1.145-1.559,1.255-2.138,1.255
			c-1.586,0-2.442-0.896-2.442-2.042c0-0.552,0.193-1.435,1.214-2.028c0.745-0.414,1.849-0.455,2.4-0.455
			c0.331,0,0.538,0.014,0.938,0.042c0-0.855,0-1.228-0.249-1.531c-0.262-0.345-0.828-0.455-1.2-0.455
			c-1.311,0-1.38,0.896-1.394,1.172h-1.296c0.042-0.359,0.083-0.841,0.483-1.311c0.524-0.579,1.503-0.745,2.234-0.745
			c1.007,0,2.083,0.317,2.455,1.021c0.221,0.414,0.235,0.745,0.235,1.063l-0.055,3.311c0,0.11,0.014,1.034,0.11,1.738H153.418z
			 M152.521,77.941c-0.524,0-2.497,0-2.497,1.407c0,0.441,0.276,1.2,1.435,1.2c0.662,0,1.159-0.262,1.476-0.745
			c0.29-0.469,0.303-0.855,0.331-1.821C153.032,77.955,152.839,77.941,152.521,77.941z"/>
		<path fill="#04617D" d="M157.611,79.293c-0.014,0.524,0.262,1.255,1.517,1.255c0.538,0,0.938-0.096,1.214-0.441
			c0.138-0.179,0.221-0.414,0.221-0.648c0-0.676-0.483-0.8-1.517-1.035c-1.449-0.331-2.663-0.621-2.663-2.069
			c0-1.269,1.104-2.097,2.704-2.097c0.869,0,2.083,0.249,2.497,1.076c0.179,0.386,0.179,0.717,0.179,1.007h-1.324
			c0.042-1.048-0.869-1.131-1.338-1.131c-0.193,0-1.407,0-1.407,0.993c0,0.634,0.621,0.786,0.979,0.883
			c1.917,0.455,2.331,0.565,2.745,0.952c0.387,0.359,0.524,0.841,0.524,1.283c0,0.772-0.428,1.435-0.938,1.752
			c-0.607,0.373-1.338,0.469-2.055,0.469c-1.407,0-2.718-0.579-2.704-2.248H157.611z"/>
		<path fill="#04617D" d="M162.7,74.396h1.228v-1.448l1.283-0.414v1.862h1.545v0.952h-1.545V79.5c0,0.345,0,0.924,0.924,0.924
			c0.262,0,0.51-0.041,0.621-0.069v1.007c-0.234,0.042-0.607,0.083-1.076,0.083c-1.187,0-1.752-0.345-1.752-1.476v-4.621H162.7
			V74.396z"/>
		<path fill="#04617D" d="M172.576,81.349c-0.096-0.345-0.124-0.676-0.124-1.035c-0.621,1.145-1.559,1.255-2.138,1.255
			c-1.586,0-2.442-0.896-2.442-2.042c0-0.552,0.193-1.435,1.214-2.028c0.745-0.414,1.849-0.455,2.4-0.455
			c0.331,0,0.538,0.014,0.938,0.042c0-0.855,0-1.228-0.249-1.531c-0.262-0.345-0.828-0.455-1.2-0.455
			c-1.311,0-1.38,0.896-1.394,1.172h-1.296c0.042-0.359,0.083-0.841,0.483-1.311c0.524-0.579,1.503-0.745,2.234-0.745
			c1.007,0,2.083,0.317,2.455,1.021c0.221,0.414,0.235,0.745,0.235,1.063l-0.055,3.311c0,0.11,0.014,1.034,0.11,1.738H172.576z
			 M171.679,77.941c-0.524,0-2.497,0-2.497,1.407c0,0.441,0.276,1.2,1.435,1.2c0.662,0,1.159-0.262,1.476-0.745
			c0.29-0.469,0.303-0.855,0.331-1.821C172.19,77.955,171.997,77.941,171.679,77.941z"/>
		<path fill="#04617D" d="M174.962,74.396h1.228v-1.448l1.283-0.414v1.862h1.545v0.952h-1.545V79.5c0,0.345,0,0.924,0.924,0.924
			c0.262,0,0.51-0.041,0.621-0.069v1.007c-0.234,0.042-0.607,0.083-1.076,0.083c-1.187,0-1.752-0.345-1.752-1.476v-4.621h-1.228
			V74.396z"/>
		<path fill="#04617D" d="M180.493,71.417h1.559v1.421h-1.559V71.417z M180.631,74.424h1.297v6.924h-1.297V74.424z"/>
		<path fill="#04617D" d="M184.493,75.224l-0.014-0.8h1.297l0.014,1.117c0.152-0.29,0.648-1.255,2.221-1.255
			c0.621,0,2.511,0.234,2.511,2.359v4.704h-1.324v-4.4c0-0.455-0.055-0.869-0.373-1.186c-0.331-0.317-0.786-0.469-1.228-0.469
			c-0.938,0-1.807,0.676-1.807,2.069v3.986h-1.296V75.224z"/>
	</g>
	<g>
		<path fill="#646869" d="M217.212,69.651h3.559c0.51,0,1.559,0,2.29,0.469c0.745,0.469,1.104,1.228,1.104,2.028
			c0,0.703-0.262,1.324-0.704,1.766c-0.428,0.428-0.869,0.565-1.172,0.648c0.952,0.248,1.379,0.676,1.517,1.917
			c0.138,1.173,0.234,2.028,0.621,3.131h-1.476c-0.221-0.662-0.359-1.876-0.456-2.635c-0.166-1.448-0.51-1.862-2.179-1.862h-1.738
			v4.497h-1.365V69.651z M218.55,73.941h2.179c0.152,0,0.938,0,1.311-0.221c0.193-0.11,0.676-0.469,0.676-1.296
			c0-1.614-1.435-1.614-1.986-1.614h-2.179V73.941z"/>
		<path fill="#646869" d="M229.184,72.506c2.772,0,3.393,2.18,3.393,3.628c0,2.028-1.145,3.71-3.503,3.71
			c-2.29,0-3.407-1.586-3.407-3.614C225.667,74.52,226.467,72.506,229.184,72.506z M229.101,78.879c0.979,0,2.097-0.704,2.097-2.787
			c0-1.724-0.8-2.634-2.014-2.634c-0.828,0-2.166,0.524-2.166,2.689C227.018,77.569,227.625,78.879,229.101,78.879z"/>
		<path fill="#646869" d="M235.349,77.555c-0.014,0.524,0.262,1.255,1.517,1.255c0.538,0,0.938-0.096,1.214-0.441
			c0.138-0.179,0.221-0.414,0.221-0.648c0-0.676-0.483-0.8-1.517-1.035c-1.449-0.331-2.663-0.621-2.663-2.069
			c0-1.269,1.104-2.097,2.704-2.097c0.869,0,2.083,0.249,2.497,1.076c0.179,0.386,0.179,0.717,0.179,1.007h-1.324
			c0.042-1.048-0.869-1.131-1.338-1.131c-0.193,0-1.407,0-1.407,0.993c0,0.634,0.621,0.786,0.979,0.883
			c1.917,0.455,2.331,0.565,2.745,0.952c0.387,0.359,0.524,0.841,0.524,1.283c0,0.772-0.428,1.435-0.938,1.752
			c-0.607,0.373-1.338,0.469-2.055,0.469c-1.407,0-2.718-0.579-2.704-2.248H235.349z"/>
		<path fill="#646869" d="M242.687,72.686v4.455c0,0.676,0.151,1.531,1.476,1.531c0.648,0,1.255-0.221,1.628-0.772
			c0.29-0.414,0.29-0.952,0.29-1.297v-3.917h1.338v5.628c0,0.138,0.028,0.91,0.042,1.296h-1.352l-0.028-1.186
			c-0.249,0.482-0.717,1.255-2.207,1.255c-1.71,0-2.51-0.979-2.51-2.345v-4.648H242.687z"/>
		<path fill="#646869" d="M248.88,72.686h1.448l2.207,5.49l2.152-5.49h1.435l-3.035,6.924h-1.31L248.88,72.686z"/>
		<path fill="#646869" d="M261.818,79.61c-0.096-0.345-0.124-0.676-0.124-1.035c-0.621,1.145-1.559,1.255-2.138,1.255
			c-1.586,0-2.442-0.896-2.442-2.042c0-0.552,0.193-1.435,1.214-2.028c0.745-0.414,1.849-0.455,2.4-0.455
			c0.331,0,0.538,0.014,0.938,0.042c0-0.855,0-1.228-0.249-1.531c-0.262-0.345-0.828-0.455-1.2-0.455
			c-1.311,0-1.38,0.896-1.394,1.172h-1.296c0.042-0.359,0.083-0.841,0.483-1.311c0.524-0.579,1.503-0.745,2.234-0.745
			c1.007,0,2.083,0.317,2.455,1.021c0.221,0.414,0.235,0.745,0.235,1.063l-0.055,3.311c0,0.11,0.014,1.034,0.11,1.738H261.818z
			 M260.922,76.203c-0.524,0-2.497,0-2.497,1.407c0,0.441,0.276,1.2,1.435,1.2c0.662,0,1.159-0.262,1.476-0.745
			c0.29-0.469,0.303-0.855,0.331-1.821C261.432,76.217,261.239,76.203,260.922,76.203z"/>
		<path fill="#646869" d="M266.011,77.555c-0.014,0.524,0.262,1.255,1.517,1.255c0.538,0,0.938-0.096,1.214-0.441
			c0.138-0.179,0.221-0.414,0.221-0.648c0-0.676-0.483-0.8-1.517-1.035c-1.449-0.331-2.663-0.621-2.663-2.069
			c0-1.269,1.104-2.097,2.704-2.097c0.869,0,2.083,0.249,2.497,1.076c0.179,0.386,0.179,0.717,0.179,1.007h-1.324
			c0.042-1.048-0.869-1.131-1.338-1.131c-0.193,0-1.407,0-1.407,0.993c0,0.634,0.621,0.786,0.979,0.883
			c1.917,0.455,2.331,0.565,2.745,0.952c0.387,0.359,0.524,0.841,0.524,1.283c0,0.772-0.428,1.435-0.938,1.752
			c-0.607,0.373-1.338,0.469-2.055,0.469c-1.407,0-2.718-0.579-2.704-2.248H266.011z"/>
		<path fill="#646869" d="M271.101,72.658h1.228V71.21l1.283-0.414v1.862h1.545v0.952h-1.545v4.152c0,0.345,0,0.924,0.924,0.924
			c0.262,0,0.51-0.041,0.621-0.069v1.007c-0.234,0.042-0.607,0.083-1.076,0.083c-1.187,0-1.752-0.345-1.752-1.476V73.61h-1.228
			V72.658z"/>
		<path fill="#646869" d="M280.976,79.61c-0.096-0.345-0.124-0.676-0.124-1.035c-0.621,1.145-1.559,1.255-2.138,1.255
			c-1.586,0-2.442-0.896-2.442-2.042c0-0.552,0.193-1.435,1.214-2.028c0.745-0.414,1.849-0.455,2.4-0.455
			c0.331,0,0.538,0.014,0.938,0.042c0-0.855,0-1.228-0.249-1.531c-0.262-0.345-0.828-0.455-1.2-0.455
			c-1.311,0-1.38,0.896-1.394,1.172h-1.296c0.042-0.359,0.083-0.841,0.483-1.311c0.524-0.579,1.503-0.745,2.234-0.745
			c1.007,0,2.083,0.317,2.455,1.021c0.221,0.414,0.235,0.745,0.235,1.063l-0.055,3.311c0,0.11,0.014,1.034,0.11,1.738H280.976z
			 M280.08,76.203c-0.524,0-2.497,0-2.497,1.407c0,0.441,0.276,1.2,1.435,1.2c0.662,0,1.159-0.262,1.476-0.745
			c0.29-0.469,0.303-0.855,0.331-1.821C280.591,76.217,280.397,76.203,280.08,76.203z"/>
		<path fill="#646869" d="M283.363,72.658h1.228V71.21l1.283-0.414v1.862h1.545v0.952h-1.545v4.152c0,0.345,0,0.924,0.924,0.924
			c0.262,0,0.51-0.041,0.621-0.069v1.007c-0.234,0.042-0.607,0.083-1.076,0.083c-1.187,0-1.752-0.345-1.752-1.476V73.61h-1.228
			V72.658z"/>
		<path fill="#646869" d="M288.893,69.679h1.559V71.1h-1.559V69.679z M289.031,72.686h1.297v6.924h-1.297V72.686z"/>
		<path fill="#646869" d="M292.893,73.486l-0.014-0.8h1.296l0.014,1.117c0.152-0.29,0.648-1.255,2.221-1.255
			c0.621,0,2.51,0.234,2.51,2.359v4.704h-1.324v-4.4c0-0.455-0.055-0.869-0.373-1.186c-0.331-0.317-0.786-0.469-1.228-0.469
			c-0.938,0-1.807,0.676-1.807,2.069v3.986h-1.296V73.486z"/>
	</g>
	<g>
		<path fill="#646869" d="M232.328,231.369c0.028,0.966,0.869,1.353,1.586,1.353c1.669,0,1.89-1.573,1.89-2.193
			c0-1.297-0.704-2.056-1.807-2.056c-0.552,0-0.993,0.207-1.283,0.497c-0.29,0.289-0.373,0.579-0.441,0.8h-1.255l0.249-5.684h5.366
			v1.117h-4.18l-0.179,3.09c0.29-0.289,0.896-0.883,2.014-0.883c1.917,0,2.855,1.504,2.855,3.146c0,1.876-1.324,3.297-3.407,3.297
			c-1.545,0-2.772-0.855-2.841-2.483H232.328z"/>
		<path fill="#646869" d="M238.37,229.479h3.462v1.049h-3.462V229.479z"/>
		<path fill="#646869" d="M247.073,231.562h-4.304v-1.642l4.138-5.959h1.49v6.483h1.393v1.117h-1.393v2.069h-1.324V231.562z
			 M247.114,230.445v-5.035l-3.297,5.035H247.114z"/>
		<path fill="#646869" d="M253.859,223.893c2.855,0,3.2,3.062,3.2,4.855c0,2.262-0.455,3.531-1.324,4.345
			c-0.676,0.635-1.476,0.731-1.903,0.731c-1.27,0-2.138-0.745-2.552-1.587c-0.317-0.635-0.621-1.559-0.621-3.269
			C250.659,227.548,250.824,223.893,253.859,223.893z M253.845,232.679c1.6,0,1.876-2.097,1.876-3.807c0-2.29-0.4-3.876-1.849-3.876
			c-1.669,0-1.89,2.192-1.89,3.903C251.983,231.024,252.397,232.679,253.845,232.679z"/>
		<path fill="#646869" d="M262.756,227.63l-0.028-0.924h1.311v1.007c0.662-1.09,1.6-1.187,2.193-1.187
			c1.531,0,2.014,0.787,2.262,1.297c0.234-0.386,0.8-1.297,2.331-1.297c0.993,0,2.538,0.414,2.538,2.456v4.648h-1.311v-4.441
			c0-0.607-0.11-0.869-0.234-1.049c-0.221-0.317-0.662-0.606-1.324-0.606c-0.841,0-1.297,0.482-1.476,0.73
			c-0.303,0.428-0.303,1.187-0.303,1.49v3.876h-1.311v-4.58c0-0.854-0.497-1.517-1.518-1.517c-0.883,0-1.365,0.552-1.517,0.758
			c-0.29,0.4-0.303,0.966-0.303,1.407v3.932h-1.311V227.63z"/>
		<path fill="#646869" d="M277.031,234.169c0.056,0.772,0.387,1.352,1.614,1.352c1.807,0,1.834-1.311,1.834-3.187
			c-0.552,1.145-1.862,1.173-2.276,1.173c-0.635,0-1.545-0.139-2.125-0.855c-0.593-0.703-0.786-1.628-0.786-2.552
			c0-2.345,1.379-3.49,3.076-3.49c1.393,0,1.903,0.689,2.179,1.049l0.014-0.952h1.255l-0.027,1.255l-0.014,4.332
			c0,1.669-0.055,2.345-0.331,2.869c-0.579,1.104-1.931,1.241-2.883,1.241c-2.772,0-2.855-1.297-2.91-2.234H277.031z
			 M280.052,231.852c0.276-0.359,0.469-0.731,0.469-1.986c0-0.869-0.193-1.366-0.538-1.725c-0.345-0.372-0.896-0.606-1.49-0.606
			c-1.642,0-1.862,1.655-1.862,2.538c0,1.062,0.317,2.469,1.904,2.469C279.294,232.541,279.735,232.265,280.052,231.852z"/>
	</g>
	<g>
		<path fill="#82602A" d="M328.881,75.83c0.027,0.69,0.11,1.973,2.4,1.973c2.069,0,2.331-1.283,2.331-1.779
			c0-1.117-0.896-1.338-2.29-1.683c-1.517-0.373-2.193-0.538-2.704-0.883c-0.814-0.552-1.035-1.296-1.035-1.958
			c0-2.028,1.917-2.911,3.793-2.911c0.662,0,2,0.11,2.8,0.979c0.552,0.607,0.579,1.283,0.607,1.697h-1.435
			c-0.069-1.242-1.117-1.518-2.097-1.518c-1.379,0-2.207,0.621-2.207,1.614c0,0.883,0.58,1.187,1.793,1.476
			c2.372,0.607,2.634,0.662,3.214,1.048c0.924,0.607,0.993,1.573,0.993,1.986c0,1.766-1.379,3.104-3.932,3.104
			c-0.758,0-2.303-0.124-3.09-1.131c-0.565-0.731-0.579-1.531-0.579-2.014H328.881z"/>
		<path fill="#82602A" d="M336.963,68.809h1.559v1.421h-1.559V68.809z M337.101,71.817h1.297v6.924h-1.297V71.817z"/>
		<path fill="#82602A" d="M340.908,72.741l-0.028-0.924h1.311v1.007c0.662-1.09,1.6-1.187,2.193-1.187
			c1.531,0,2.014,0.786,2.262,1.297c0.234-0.386,0.8-1.297,2.331-1.297c0.993,0,2.538,0.414,2.538,2.456v4.648h-1.311v-4.442
			c0-0.606-0.11-0.869-0.234-1.048c-0.221-0.317-0.662-0.607-1.324-0.607c-0.841,0-1.297,0.483-1.476,0.731
			c-0.303,0.428-0.303,1.186-0.303,1.49v3.876h-1.311v-4.58c0-0.855-0.497-1.518-1.518-1.518c-0.883,0-1.365,0.552-1.517,0.759
			c-0.29,0.4-0.303,0.966-0.303,1.407v3.931h-1.311V72.741z"/>
		<path fill="#82602A" d="M352.894,71.817h1.448l2.207,5.49l2.152-5.49h1.435l-3.035,6.924h-1.31L352.894,71.817z"/>
		<path fill="#82602A" d="M365.832,78.741c-0.096-0.345-0.124-0.676-0.124-1.035c-0.621,1.145-1.559,1.255-2.138,1.255
			c-1.586,0-2.442-0.896-2.442-2.042c0-0.552,0.193-1.435,1.214-2.028c0.745-0.414,1.849-0.455,2.4-0.455
			c0.331,0,0.538,0.014,0.938,0.042c0-0.855,0-1.228-0.249-1.531c-0.262-0.345-0.828-0.455-1.2-0.455
			c-1.311,0-1.38,0.896-1.394,1.172h-1.296c0.042-0.359,0.083-0.841,0.483-1.311c0.524-0.579,1.503-0.745,2.234-0.745
			c1.007,0,2.083,0.317,2.455,1.021c0.221,0.414,0.235,0.745,0.235,1.063l-0.055,3.311c0,0.11,0.014,1.034,0.11,1.738H365.832z
			 M364.935,75.334c-0.524,0-2.497,0-2.497,1.407c0,0.441,0.276,1.2,1.435,1.2c0.662,0,1.159-0.262,1.476-0.745
			c0.29-0.469,0.303-0.855,0.331-1.821C365.446,75.348,365.253,75.334,364.935,75.334z"/>
		<path fill="#82602A" d="M370.025,76.686c-0.014,0.524,0.262,1.255,1.517,1.255c0.538,0,0.938-0.096,1.214-0.441
			c0.138-0.179,0.221-0.414,0.221-0.648c0-0.676-0.483-0.8-1.517-1.035c-1.449-0.331-2.663-0.621-2.663-2.069
			c0-1.269,1.104-2.097,2.704-2.097c0.869,0,2.083,0.249,2.497,1.076c0.179,0.386,0.179,0.717,0.179,1.007h-1.324
			c0.042-1.048-0.869-1.131-1.338-1.131c-0.193,0-1.407,0-1.407,0.993c0,0.634,0.621,0.786,0.979,0.883
			c1.917,0.455,2.331,0.565,2.745,0.952c0.387,0.359,0.524,0.841,0.524,1.283c0,0.772-0.428,1.435-0.938,1.752
			c-0.607,0.373-1.338,0.469-2.055,0.469c-1.407,0-2.718-0.579-2.704-2.248H370.025z"/>
		<path fill="#82602A" d="M375.114,71.789h1.228v-1.448l1.283-0.414v1.862h1.545v0.952h-1.545v4.152c0,0.345,0,0.924,0.924,0.924
			c0.262,0,0.51-0.041,0.621-0.069v1.007c-0.234,0.042-0.607,0.083-1.076,0.083c-1.187,0-1.752-0.345-1.752-1.476v-4.621h-1.228
			V71.789z"/>
		<path fill="#82602A" d="M384.991,78.741c-0.097-0.345-0.125-0.676-0.125-1.035c-0.621,1.145-1.559,1.255-2.138,1.255
			c-1.586,0-2.441-0.896-2.441-2.042c0-0.552,0.193-1.435,1.214-2.028c0.745-0.414,1.849-0.455,2.4-0.455
			c0.331,0,0.538,0.014,0.938,0.042c0-0.855,0-1.228-0.249-1.531c-0.262-0.345-0.828-0.455-1.2-0.455
			c-1.31,0-1.379,0.896-1.393,1.172h-1.296c0.041-0.359,0.083-0.841,0.482-1.311c0.524-0.579,1.504-0.745,2.235-0.745
			c1.007,0,2.083,0.317,2.456,1.021c0.221,0.414,0.234,0.745,0.234,1.063l-0.055,3.311c0,0.11,0.014,1.034,0.11,1.738H384.991z
			 M384.094,75.334c-0.524,0-2.497,0-2.497,1.407c0,0.441,0.276,1.2,1.435,1.2c0.662,0,1.159-0.262,1.476-0.745
			c0.29-0.469,0.303-0.855,0.331-1.821C384.604,75.348,384.411,75.334,384.094,75.334z"/>
		<path fill="#82602A" d="M387.377,71.789h1.228v-1.448l1.283-0.414v1.862h1.545v0.952h-1.545v4.152c0,0.345,0,0.924,0.924,0.924
			c0.262,0,0.51-0.041,0.621-0.069v1.007c-0.234,0.042-0.607,0.083-1.076,0.083c-1.187,0-1.752-0.345-1.752-1.476v-4.621h-1.228
			V71.789z"/>
		<path fill="#82602A" d="M392.907,68.809h1.559v1.421h-1.559V68.809z M393.045,71.817h1.297v6.924h-1.297V71.817z"/>
		<path fill="#82602A" d="M396.907,72.617l-0.014-0.8h1.297l0.014,1.117c0.152-0.29,0.648-1.255,2.221-1.255
			c0.621,0,2.511,0.234,2.511,2.359v4.704h-1.324v-4.4c0-0.455-0.055-0.869-0.373-1.186c-0.331-0.317-0.786-0.469-1.228-0.469
			c-0.938,0-1.807,0.676-1.807,2.069v3.986h-1.296V72.617z"/>
	</g>
	<g>
		<path fill="#82602A" d="M336.549,224.721c-0.593,0.496-1.545,1.063-2.221,1.379v-1.379c0.897-0.469,1.78-1.049,2.317-1.504h1.228
			v9.546h-1.324V224.721z"/>
		<path fill="#82602A" d="M343.528,223.025c2.855,0,3.2,3.062,3.2,4.855c0,2.262-0.455,3.531-1.324,4.345
			c-0.676,0.635-1.476,0.731-1.903,0.731c-1.27,0-2.138-0.745-2.552-1.587c-0.317-0.635-0.621-1.559-0.621-3.269
			C340.328,226.68,340.493,223.025,343.528,223.025z M343.514,231.811c1.6,0,1.876-2.097,1.876-3.807c0-2.29-0.4-3.876-1.849-3.876
			c-1.669,0-1.89,2.192-1.89,3.903C341.652,230.156,342.066,231.811,343.514,231.811z"/>
		<path fill="#82602A" d="M347.969,228.611h3.462v1.049h-3.462V228.611z"/>
		<path fill="#82602A" d="M352.687,225.604c0-0.855,0.579-2.607,3.09-2.607c2.014,0,3.172,1.09,3.172,2.552
			c0,0.938-0.607,1.918-1.945,2.166c0.565,0.151,2.083,0.565,2.083,2.414c0,1.311-0.911,2.8-3.283,2.8
			c-0.814,0-1.779-0.165-2.469-0.8c-0.51-0.469-0.841-1.187-0.841-1.917c0-0.635,0.249-1.297,0.731-1.752
			c0.456-0.455,0.952-0.594,1.38-0.731C353.335,227.453,352.687,226.556,352.687,225.604z M355.804,231.838
			c1.531,0,1.904-1.075,1.904-1.793c0-1.062-0.786-1.752-1.876-1.752c-1.173,0-1.945,0.786-1.945,1.794
			C353.886,230.831,354.384,231.838,355.804,231.838z M355.832,224.018c-1.021,0-1.807,0.606-1.807,1.559
			c0,0.924,0.772,1.545,1.766,1.545c1.048,0,1.834-0.607,1.834-1.545C357.625,224.707,356.976,224.018,355.832,224.018z"/>
		<path fill="#82602A" d="M363.459,223.025c2.855,0,3.2,3.062,3.2,4.855c0,2.262-0.455,3.531-1.324,4.345
			c-0.676,0.635-1.476,0.731-1.904,0.731c-1.269,0-2.138-0.745-2.552-1.587c-0.317-0.635-0.621-1.559-0.621-3.269
			C360.259,226.68,360.425,223.025,363.459,223.025z M363.446,231.811c1.6,0,1.876-2.097,1.876-3.807c0-2.29-0.4-3.876-1.849-3.876
			c-1.669,0-1.89,2.192-1.89,3.903C361.583,230.156,361.997,231.811,363.446,231.811z"/>
		<path fill="#82602A" d="M372.356,226.762l-0.028-0.924h1.311v1.007c0.662-1.09,1.6-1.187,2.193-1.187
			c1.531,0,2.014,0.787,2.262,1.297c0.234-0.386,0.8-1.297,2.331-1.297c0.993,0,2.538,0.414,2.538,2.456v4.648h-1.311v-4.441
			c0-0.607-0.11-0.869-0.234-1.049c-0.221-0.317-0.662-0.606-1.324-0.606c-0.841,0-1.296,0.482-1.476,0.73
			c-0.303,0.428-0.303,1.187-0.303,1.49v3.876h-1.311v-4.58c0-0.854-0.497-1.517-1.517-1.517c-0.883,0-1.366,0.552-1.518,0.758
			c-0.29,0.4-0.304,0.966-0.304,1.407v3.932h-1.31V226.762z"/>
		<path fill="#82602A" d="M386.632,233.301c0.055,0.772,0.386,1.352,1.614,1.352c1.807,0,1.834-1.311,1.834-3.187
			c-0.552,1.145-1.862,1.173-2.276,1.173c-0.635,0-1.545-0.139-2.125-0.855c-0.593-0.703-0.786-1.628-0.786-2.552
			c0-2.345,1.379-3.49,3.076-3.49c1.393,0,1.903,0.689,2.179,1.049l0.014-0.952h1.255l-0.027,1.255l-0.014,4.332
			c0,1.669-0.056,2.345-0.331,2.869c-0.58,1.104-1.932,1.241-2.883,1.241c-2.772,0-2.855-1.297-2.911-2.234H386.632z
			 M389.652,230.984c0.276-0.359,0.469-0.731,0.469-1.986c0-0.869-0.193-1.366-0.538-1.725c-0.345-0.372-0.896-0.606-1.49-0.606
			c-1.642,0-1.862,1.655-1.862,2.538c0,1.062,0.317,2.469,1.904,2.469C388.893,231.673,389.335,231.397,389.652,230.984z"/>
	</g>
	<g>
		<path fill="#04617D" d="M122.826,225.589c-0.593,0.496-1.545,1.063-2.221,1.379v-1.379c0.897-0.469,1.78-1.049,2.317-1.504h1.228
			v9.546h-1.324V225.589z"/>
		<path fill="#04617D" d="M129.805,223.893c2.855,0,3.2,3.062,3.2,4.855c0,2.262-0.455,3.531-1.324,4.345
			c-0.676,0.635-1.476,0.731-1.903,0.731c-1.27,0-2.138-0.745-2.552-1.587c-0.317-0.635-0.621-1.559-0.621-3.269
			C126.605,227.548,126.771,223.893,129.805,223.893z M129.792,232.679c1.6,0,1.876-2.097,1.876-3.807c0-2.29-0.4-3.876-1.849-3.876
			c-1.669,0-1.89,2.192-1.89,3.903C127.929,231.024,128.343,232.679,129.792,232.679z"/>
		<path fill="#04617D" d="M134.247,229.479h3.462v1.049h-3.462V229.479z"/>
		<path fill="#04617D" d="M138.964,226.472c0-0.855,0.579-2.607,3.09-2.607c2.014,0,3.172,1.09,3.172,2.552
			c0,0.938-0.607,1.918-1.945,2.166c0.565,0.151,2.083,0.565,2.083,2.414c0,1.311-0.911,2.8-3.283,2.8
			c-0.814,0-1.779-0.165-2.469-0.8c-0.51-0.469-0.841-1.187-0.841-1.917c0-0.635,0.249-1.297,0.731-1.752
			c0.456-0.455,0.952-0.594,1.38-0.731C139.612,228.321,138.964,227.424,138.964,226.472z M142.081,232.706
			c1.531,0,1.904-1.075,1.904-1.793c0-1.062-0.786-1.752-1.876-1.752c-1.173,0-1.945,0.786-1.945,1.794
			C140.164,231.7,140.661,232.706,142.081,232.706z M142.109,224.886c-1.021,0-1.807,0.606-1.807,1.559
			c0,0.924,0.772,1.545,1.766,1.545c1.048,0,1.834-0.607,1.834-1.545C143.902,225.576,143.254,224.886,142.109,224.886z"/>
		<path fill="#04617D" d="M149.737,223.893c2.855,0,3.2,3.062,3.2,4.855c0,2.262-0.455,3.531-1.324,4.345
			c-0.676,0.635-1.476,0.731-1.904,0.731c-1.269,0-2.138-0.745-2.552-1.587c-0.317-0.635-0.621-1.559-0.621-3.269
			C146.536,227.548,146.702,223.893,149.737,223.893z M149.723,232.679c1.6,0,1.876-2.097,1.876-3.807c0-2.29-0.4-3.876-1.849-3.876
			c-1.669,0-1.89,2.192-1.89,3.903C147.861,231.024,148.274,232.679,149.723,232.679z"/>
		<path fill="#04617D" d="M158.633,227.63l-0.028-0.924h1.311v1.007c0.662-1.09,1.6-1.187,2.193-1.187
			c1.531,0,2.014,0.787,2.262,1.297c0.234-0.386,0.8-1.297,2.331-1.297c0.993,0,2.538,0.414,2.538,2.456v4.648h-1.311v-4.441
			c0-0.607-0.11-0.869-0.234-1.049c-0.221-0.317-0.662-0.606-1.324-0.606c-0.841,0-1.296,0.482-1.476,0.73
			c-0.303,0.428-0.303,1.187-0.303,1.49v3.876h-1.311v-4.58c0-0.854-0.497-1.517-1.517-1.517c-0.883,0-1.366,0.552-1.518,0.758
			c-0.29,0.4-0.304,0.966-0.304,1.407v3.932h-1.31V227.63z"/>
		<path fill="#04617D" d="M172.909,234.169c0.055,0.772,0.386,1.352,1.614,1.352c1.807,0,1.834-1.311,1.834-3.187
			c-0.552,1.145-1.862,1.173-2.276,1.173c-0.635,0-1.545-0.139-2.125-0.855c-0.593-0.703-0.786-1.628-0.786-2.552
			c0-2.345,1.379-3.49,3.076-3.49c1.393,0,1.903,0.689,2.179,1.049l0.014-0.952h1.255l-0.027,1.255l-0.014,4.332
			c0,1.669-0.056,2.345-0.331,2.869c-0.58,1.104-1.932,1.241-2.883,1.241c-2.772,0-2.855-1.297-2.911-2.234H172.909z
			 M175.929,231.852c0.276-0.359,0.469-0.731,0.469-1.986c0-0.869-0.193-1.366-0.538-1.725c-0.345-0.372-0.896-0.606-1.49-0.606
			c-1.642,0-1.862,1.655-1.862,2.538c0,1.062,0.317,2.469,1.904,2.469C175.171,232.541,175.612,232.265,175.929,231.852z"/>
	</g>
	
		<line fill="none" stroke="#04617D" stroke-width="1.627" stroke-miterlimit="10" x1="99.943" y1="89.627" x2="99.943" y2="304.066"/>
	
		<line fill="none" stroke="#04617D" stroke-width="1.627" stroke-miterlimit="10" x1="94.886" y1="89.223" x2="418.565" y2="89.223"/>
	
		<line fill="none" stroke="#04617D" stroke-width="1.627" stroke-miterlimit="10" x1="99.943" y1="130.161" x2="94.885" y2="130.161"/>
	
		<line fill="none" stroke="#04617D" stroke-width="1.627" stroke-miterlimit="10" x1="99.943" y1="174.48" x2="94.885" y2="174.48"/>
	
		<line fill="none" stroke="#04617D" stroke-width="1.627" stroke-miterlimit="10" x1="99.943" y1="217.349" x2="94.885" y2="217.349"/>
	
		<line fill="none" stroke="#04617D" stroke-width="1.627" stroke-miterlimit="10" x1="99.943" y1="258.023" x2="94.885" y2="258.023"/>
	
		<line fill="none" stroke="#04617D" stroke-width="1.627" stroke-miterlimit="10" x1="99.943" y1="302.784" x2="94.885" y2="302.784"/>
	<g>
		<path fill="#003B47" d="M295.257,309.401h1.089l2.972,7.348h-1.109l-0.794-1.913h-3.41l-0.794,1.913h-1.048L295.257,309.401z
			 M294.33,314.011h2.779l-1.354-3.604L294.33,314.011z"/>
		<path fill="#003B47" d="M303.851,309.411h0.957v6.524c0,0.111,0.021,0.549,0.041,0.813h-0.957l-0.02-0.813
			c-0.082,0.142-0.193,0.355-0.458,0.539c-0.417,0.285-0.916,0.376-1.262,0.376c-0.682,0-2.198-0.355-2.198-2.595
			c0-1.944,1.109-2.789,2.31-2.789c1.099,0,1.466,0.651,1.588,0.865V309.411z M303.495,312.698c-0.204-0.265-0.58-0.519-1.119-0.519
			c-1.405,0-1.405,1.699-1.405,2.046c0,0.905,0.234,1.954,1.405,1.954c1.506,0,1.506-1.659,1.506-2.057
			C303.882,313.38,303.709,312.973,303.495,312.698z"/>
		<path fill="#003B47" d="M309.637,316.748c-0.071-0.254-0.091-0.498-0.091-0.763c-0.458,0.845-1.15,0.926-1.578,0.926
			c-1.17,0-1.801-0.661-1.801-1.506c0-0.407,0.143-1.059,0.896-1.496c0.55-0.306,1.364-0.336,1.771-0.336
			c0.244,0,0.397,0.01,0.692,0.03c0-0.631,0-0.906-0.183-1.13c-0.193-0.254-0.611-0.336-0.885-0.336
			c-0.967,0-1.018,0.662-1.028,0.865h-0.957c0.031-0.265,0.061-0.621,0.356-0.967c0.387-0.428,1.109-0.55,1.648-0.55
			c0.743,0,1.537,0.234,1.812,0.753c0.163,0.306,0.173,0.55,0.173,0.784l-0.041,2.442c0,0.081,0.01,0.764,0.082,1.282H309.637z
			 M308.976,314.235c-0.387,0-1.842,0-1.842,1.038c0,0.326,0.204,0.886,1.059,0.886c0.488,0,0.855-0.193,1.089-0.55
			c0.214-0.346,0.224-0.631,0.244-1.344C309.353,314.245,309.21,314.235,308.976,314.235z"/>
		<path fill="#003B47" d="M312.147,312.474c0-0.224-0.01-0.346-0.031-0.835h0.967l0.021,0.845c0.479-0.804,1.323-0.926,1.74-0.926
			c1.099,0,2.147,0.753,2.147,2.646c0,1.903-1.109,2.737-2.331,2.737c-0.743,0-1.292-0.315-1.567-0.763v2.534h-0.946V312.474z
			 M314.498,316.24c0.244,0,0.753-0.051,1.079-0.499c0.366-0.498,0.417-1.231,0.417-1.598c0-0.916-0.275-1.872-1.405-1.872
			c-1.526,0-1.526,1.618-1.526,2.076C313.063,314.967,313.155,316.24,314.498,316.24z"/>
		<path fill="#003B47" d="M317.608,311.62h0.906v-1.069l0.947-0.305v1.374h1.14v0.702h-1.14v3.063c0,0.254,0,0.682,0.682,0.682
			c0.193,0,0.377-0.03,0.458-0.051v0.743c-0.173,0.03-0.448,0.061-0.793,0.061c-0.875,0-1.293-0.254-1.293-1.089v-3.409h-0.906
			V311.62z"/>
		<path fill="#003B47" d="M322.358,314.368c-0.02,1.058,0.417,1.842,1.466,1.842c0.621,0,1.12-0.326,1.201-1.059h0.957
			c-0.031,0.255-0.071,0.672-0.438,1.068c-0.224,0.255-0.732,0.683-1.761,0.683c-1.608,0-2.371-0.998-2.371-2.616
			c0-1.008,0.204-1.842,1.007-2.401c0.489-0.347,1.1-0.377,1.395-0.377c2.29,0,2.239,2.025,2.219,2.86H322.358z M325.055,313.696
			c0.01-0.489-0.082-1.507-1.262-1.507c-0.621,0-1.374,0.377-1.394,1.507H325.055z"/>
		<path fill="#003B47" d="M330.975,309.411h0.957v6.524c0,0.111,0.021,0.549,0.041,0.813h-0.957l-0.02-0.813
			c-0.082,0.142-0.193,0.355-0.458,0.539c-0.417,0.285-0.916,0.376-1.262,0.376c-0.682,0-2.198-0.355-2.198-2.595
			c0-1.944,1.109-2.789,2.31-2.789c1.099,0,1.466,0.651,1.588,0.865V309.411z M330.618,312.698c-0.204-0.265-0.58-0.519-1.119-0.519
			c-1.405,0-1.405,1.699-1.405,2.046c0,0.905,0.234,1.954,1.405,1.954c1.506,0,1.506-1.659,1.506-2.057
			C331.005,313.38,330.832,312.973,330.618,312.698z"/>
		<path fill="#003B47" d="M339.029,310.113c-0.163-0.01-0.366-0.021-0.56-0.021c-0.774,0-0.774,0.387-0.774,0.743v0.804h1.191v0.692
			h-1.191v4.417h-0.946v-4.417h-1.008v-0.692h1.008v-0.58c0-0.702,0.041-0.956,0.214-1.221c0.213-0.326,0.621-0.56,1.282-0.56
			c0.275,0,0.58,0.04,0.784,0.071V310.113z"/>
		<path fill="#003B47" d="M339.911,312.678c0-0.347-0.02-0.703-0.051-1.039h0.967l0.021,0.987c0.183-0.712,0.794-0.946,1.221-1.007
			c0.285-0.041,0.499-0.031,0.662-0.021v0.937c-0.051-0.021-0.112-0.031-0.183-0.041c-0.071-0.011-0.163-0.011-0.275-0.011
			c-1.129,0-1.394,0.672-1.394,1.548v2.717h-0.967V312.678z"/>
		<path fill="#003B47" d="M346.035,311.507c2.046,0,2.504,1.608,2.504,2.677c0,1.496-0.845,2.737-2.585,2.737
			c-1.689,0-2.514-1.17-2.514-2.666C343.44,312.994,344.03,311.507,346.035,311.507z M345.974,316.209
			c0.723,0,1.547-0.52,1.547-2.056c0-1.272-0.59-1.944-1.486-1.944c-0.61,0-1.598,0.387-1.598,1.984
			C344.438,315.243,344.885,316.209,345.974,316.209z"/>
		<path fill="#003B47" d="M350.02,312.322l-0.02-0.683h0.967v0.743c0.488-0.804,1.181-0.875,1.618-0.875
			c1.13,0,1.486,0.58,1.669,0.957c0.173-0.285,0.59-0.957,1.72-0.957c0.733,0,1.873,0.306,1.873,1.812v3.43h-0.967v-3.277
			c0-0.447-0.082-0.641-0.173-0.773c-0.163-0.233-0.489-0.447-0.977-0.447c-0.621,0-0.957,0.356-1.089,0.539
			c-0.224,0.315-0.224,0.875-0.224,1.1v2.859h-0.967v-3.379c0-0.631-0.367-1.119-1.12-1.119c-0.651,0-1.008,0.407-1.12,0.56
			c-0.214,0.295-0.224,0.713-0.224,1.038v2.9h-0.967V312.322z"/>
		<path fill="#003B47" d="M362.509,312.678c0-0.347-0.02-0.703-0.051-1.039h0.967l0.021,0.987c0.183-0.712,0.794-0.946,1.221-1.007
			c0.285-0.041,0.499-0.031,0.662-0.021v0.937c-0.051-0.021-0.112-0.031-0.183-0.041c-0.071-0.011-0.163-0.011-0.275-0.011
			c-1.129,0-1.394,0.672-1.394,1.548v2.717h-0.967V312.678z"/>
		<path fill="#003B47" d="M366.994,314.368c-0.02,1.058,0.417,1.842,1.466,1.842c0.621,0,1.12-0.326,1.201-1.059h0.957
			c-0.031,0.255-0.071,0.672-0.438,1.068c-0.224,0.255-0.732,0.683-1.761,0.683c-1.608,0-2.371-0.998-2.371-2.616
			c0-1.008,0.204-1.842,1.007-2.401c0.489-0.347,1.1-0.377,1.395-0.377c2.29,0,2.239,2.025,2.219,2.86H366.994z M369.692,313.696
			c0.01-0.489-0.082-1.507-1.262-1.507c-0.621,0-1.374,0.377-1.394,1.507H369.692z"/>
		<path fill="#003B47" d="M374.623,310.113c-0.163-0.01-0.366-0.021-0.56-0.021c-0.774,0-0.774,0.387-0.774,0.743v0.804h1.191v0.692
			h-1.191v4.417h-0.946v-4.417h-1.008v-0.692h1.008v-0.58c0-0.702,0.041-0.956,0.214-1.221c0.213-0.326,0.621-0.56,1.282-0.56
			c0.275,0,0.58,0.04,0.784,0.071V310.113z"/>
		<path fill="#003B47" d="M376.035,314.368c-0.02,1.058,0.417,1.842,1.466,1.842c0.621,0,1.12-0.326,1.201-1.059h0.957
			c-0.031,0.255-0.071,0.672-0.438,1.068c-0.224,0.255-0.732,0.683-1.761,0.683c-1.608,0-2.371-0.998-2.371-2.616
			c0-1.008,0.204-1.842,1.007-2.401c0.489-0.347,1.1-0.377,1.395-0.377c2.29,0,2.239,2.025,2.219,2.86H376.035z M378.733,313.696
			c0.01-0.489-0.082-1.507-1.262-1.507c-0.621,0-1.374,0.377-1.394,1.507H378.733z"/>
		<path fill="#003B47" d="M381.161,312.678c0-0.347-0.02-0.703-0.051-1.039h0.967l0.021,0.987c0.183-0.712,0.794-0.946,1.221-1.007
			c0.285-0.041,0.499-0.031,0.662-0.021v0.937c-0.051-0.021-0.112-0.031-0.183-0.041c-0.071-0.011-0.163-0.011-0.275-0.011
			c-1.129,0-1.394,0.672-1.394,1.548v2.717h-0.967V312.678z"/>
		<path fill="#003B47" d="M385.646,314.368c-0.02,1.058,0.417,1.842,1.466,1.842c0.621,0,1.12-0.326,1.201-1.059h0.957
			c-0.031,0.255-0.071,0.672-0.438,1.068c-0.224,0.255-0.732,0.683-1.761,0.683c-1.608,0-2.371-0.998-2.371-2.616
			c0-1.008,0.204-1.842,1.007-2.401c0.489-0.347,1.1-0.377,1.395-0.377c2.29,0,2.239,2.025,2.219,2.86H385.646z M388.343,313.696
			c0.01-0.489-0.082-1.507-1.262-1.507c-0.621,0-1.374,0.377-1.394,1.507H388.343z"/>
		<path fill="#003B47" d="M390.751,312.23l-0.01-0.591h0.957l0.01,0.825c0.112-0.214,0.479-0.927,1.639-0.927
			c0.458,0,1.853,0.173,1.853,1.74v3.471h-0.978v-3.246c0-0.336-0.041-0.642-0.274-0.876c-0.245-0.233-0.58-0.346-0.906-0.346
			c-0.692,0-1.333,0.499-1.333,1.526v2.941h-0.957V312.23z"/>
		<path fill="#003B47" d="M399.845,313.278c-0.021-0.233-0.092-1.068-1.018-1.068c-1.323,0-1.323,1.537-1.323,1.924
			c0,1.048,0.254,2.025,1.272,2.025c0.814,0,1.089-0.611,1.109-1.109h0.967c-0.061,0.997-0.804,1.832-2.066,1.832
			c-0.346,0-1.14-0.071-1.679-0.662c-0.306-0.355-0.611-0.896-0.611-1.954c0-2.127,1.303-2.758,2.32-2.758
			c0.336,0,1.099,0.071,1.567,0.631c0.377,0.438,0.407,0.855,0.428,1.14H399.845z"/>
		<path fill="#003B47" d="M402.6,314.368c-0.02,1.058,0.417,1.842,1.466,1.842c0.621,0,1.12-0.326,1.201-1.059h0.957
			c-0.031,0.255-0.071,0.672-0.438,1.068c-0.224,0.255-0.732,0.683-1.761,0.683c-1.608,0-2.371-0.998-2.371-2.616
			c0-1.008,0.204-1.842,1.007-2.401c0.489-0.347,1.1-0.377,1.395-0.377c2.29,0,2.239,2.025,2.219,2.86H402.6z M405.297,313.696
			c0.01-0.489-0.082-1.507-1.262-1.507c-0.621,0-1.374,0.377-1.394,1.507H405.297z"/>
		<path fill="#003B47" d="M412.364,310.815c-0.438,0.366-1.14,0.784-1.639,1.018v-1.018c0.662-0.346,1.313-0.773,1.71-1.109h0.906
			v7.043h-0.977V310.815z"/>
	</g>
	<g>
		<g>
			<path fill="#00435B" d="M81.433,357.681h0.847v6.114h-0.847V357.681z"/>
			<path fill="#00435B" d="M83.811,360.036l-0.008-0.491h0.796l0.009,0.686c0.093-0.178,0.398-0.771,1.363-0.771
				c0.381,0,1.542,0.144,1.542,1.448v2.888h-0.813v-2.701c0-0.279-0.034-0.534-0.229-0.729c-0.203-0.195-0.482-0.288-0.753-0.288
				c-0.576,0-1.109,0.415-1.109,1.271v2.447h-0.796V360.036z"/>
			<path fill="#00435B" d="M88.88,357.698h0.957v0.872H88.88V357.698z M88.965,359.544h0.796v4.251h-0.796V359.544z"/>
			<path fill="#00435B" d="M90.657,359.527h0.753v-0.889l0.788-0.254v1.143h0.949v0.585h-0.949v2.549c0,0.212,0,0.567,0.567,0.567
				c0.161,0,0.313-0.025,0.381-0.042v0.618c-0.144,0.025-0.373,0.051-0.661,0.051c-0.729,0-1.076-0.212-1.076-0.906v-2.837h-0.753
				V359.527z"/>
			<path fill="#00435B" d="M94.051,357.698h0.957v0.872h-0.957V357.698z M94.135,359.544h0.796v4.251h-0.796V359.544z"/>
			<path fill="#00435B" d="M99.071,363.795c-0.059-0.212-0.076-0.415-0.076-0.635c-0.381,0.702-0.957,0.771-1.313,0.771
				c-0.974,0-1.499-0.551-1.499-1.254c0-0.339,0.119-0.881,0.745-1.244c0.458-0.255,1.135-0.28,1.474-0.28
				c0.204,0,0.331,0.009,0.576,0.025c0-0.524,0-0.753-0.153-0.939c-0.161-0.212-0.508-0.279-0.736-0.279
				c-0.805,0-0.847,0.55-0.855,0.72h-0.796c0.025-0.221,0.051-0.517,0.296-0.805c0.322-0.355,0.923-0.457,1.372-0.457
				c0.618,0,1.279,0.194,1.507,0.626c0.136,0.255,0.144,0.458,0.144,0.652l-0.034,2.032c0,0.068,0.008,0.636,0.068,1.067H99.071z
				 M98.52,361.703c-0.322,0-1.533,0-1.533,0.864c0,0.271,0.169,0.736,0.881,0.736c0.406,0,0.711-0.161,0.906-0.457
				c0.178-0.288,0.187-0.525,0.204-1.118C98.834,361.712,98.715,361.703,98.52,361.703z"/>
			<path fill="#00435B" d="M100.532,359.527h0.753v-0.889l0.788-0.254v1.143h0.949v0.585h-0.949v2.549c0,0.212,0,0.567,0.567,0.567
				c0.161,0,0.313-0.025,0.381-0.042v0.618c-0.144,0.025-0.373,0.051-0.661,0.051c-0.729,0-1.076-0.212-1.076-0.906v-2.837h-0.753
				V359.527z"/>
			<path fill="#00435B" d="M103.926,357.698h0.957v0.872h-0.957V357.698z M104.011,359.544h0.796v4.251h-0.796V359.544z"/>
			<path fill="#00435B" d="M108.201,359.434c1.702,0,2.083,1.338,2.083,2.228c0,1.244-0.703,2.277-2.151,2.277
				c-1.406,0-2.091-0.974-2.091-2.219C106.042,360.67,106.532,359.434,108.201,359.434z M108.15,363.346
				c0.602,0,1.287-0.432,1.287-1.71c0-1.059-0.491-1.618-1.236-1.618c-0.508,0-1.33,0.322-1.33,1.651
				C106.871,362.542,107.244,363.346,108.15,363.346z"/>
			<path fill="#00435B" d="M111.551,360.036l-0.008-0.491h0.796l0.009,0.686c0.093-0.178,0.398-0.771,1.363-0.771
				c0.381,0,1.542,0.144,1.542,1.448v2.888h-0.813v-2.701c0-0.279-0.034-0.534-0.229-0.729c-0.203-0.195-0.482-0.288-0.753-0.288
				c-0.576,0-1.109,0.415-1.109,1.271v2.447h-0.796V360.036z"/>
			<path fill="#00435B" d="M120.894,359.434c1.702,0,2.083,1.338,2.083,2.228c0,1.244-0.703,2.277-2.151,2.277
				c-1.406,0-2.091-0.974-2.091-2.219C118.735,360.67,119.226,359.434,120.894,359.434z M120.843,363.346
				c0.602,0,1.287-0.432,1.287-1.71c0-1.059-0.491-1.618-1.236-1.618c-0.508,0-1.33,0.322-1.33,1.651
				C119.565,362.542,119.937,363.346,120.843,363.346z"/>
			<path fill="#00435B" d="M126.344,358.274c-0.136-0.009-0.305-0.017-0.466-0.017c-0.644,0-0.644,0.321-0.644,0.618v0.669h0.991
				v0.575h-0.991v3.676h-0.788v-3.676h-0.838v-0.575h0.838v-0.483c0-0.584,0.034-0.796,0.178-1.016
				c0.178-0.271,0.517-0.466,1.067-0.466c0.229,0,0.483,0.034,0.652,0.06V358.274z"/>
			<path fill="#00435B" d="M129.846,362.534c-0.009,0.321,0.161,0.771,0.932,0.771c0.33,0,0.576-0.06,0.745-0.271
				c0.084-0.11,0.135-0.255,0.135-0.398c0-0.415-0.296-0.491-0.931-0.635c-0.89-0.204-1.635-0.382-1.635-1.271
				c0-0.779,0.678-1.287,1.66-1.287c0.533,0,1.278,0.152,1.533,0.66c0.11,0.237,0.11,0.44,0.11,0.618h-0.813
				c0.025-0.644-0.533-0.694-0.821-0.694c-0.119,0-0.864,0-0.864,0.609c0,0.39,0.381,0.483,0.601,0.542
				c1.177,0.28,1.431,0.348,1.686,0.585c0.237,0.22,0.322,0.517,0.322,0.787c0,0.475-0.263,0.881-0.576,1.076
				c-0.373,0.229-0.821,0.287-1.262,0.287c-0.864,0-1.668-0.355-1.66-1.38H129.846z"/>
			<path fill="#00435B" d="M133.544,357.698h0.957v0.872h-0.957V357.698z M133.629,359.544h0.796v4.251h-0.796V359.544z"/>
			<path fill="#00435B" d="M135.964,360.112l-0.017-0.567h0.805v0.618c0.406-0.669,0.982-0.729,1.347-0.729
				c0.94,0,1.236,0.482,1.389,0.796c0.144-0.237,0.491-0.796,1.431-0.796c0.61,0,1.558,0.254,1.558,1.508v2.854h-0.804v-2.727
				c0-0.373-0.068-0.534-0.144-0.644c-0.136-0.195-0.407-0.373-0.813-0.373c-0.517,0-0.796,0.297-0.906,0.449
				c-0.187,0.262-0.187,0.728-0.187,0.914v2.38h-0.804v-2.812c0-0.525-0.305-0.932-0.932-0.932c-0.542,0-0.838,0.339-0.932,0.466
				c-0.178,0.245-0.186,0.593-0.186,0.864v2.413h-0.805V360.112z"/>
			<path fill="#00435B" d="M143.317,359.544h0.889l1.355,3.37l1.321-3.37h0.881l-1.863,4.251h-0.805L143.317,359.544z"/>
			<path fill="#00435B" d="M151.257,363.795c-0.059-0.212-0.076-0.415-0.076-0.635c-0.381,0.702-0.957,0.771-1.313,0.771
				c-0.974,0-1.499-0.551-1.499-1.254c0-0.339,0.119-0.881,0.745-1.244c0.458-0.255,1.135-0.28,1.474-0.28
				c0.204,0,0.331,0.009,0.576,0.025c0-0.524,0-0.753-0.153-0.939c-0.161-0.212-0.508-0.279-0.736-0.279
				c-0.805,0-0.847,0.55-0.855,0.72h-0.796c0.025-0.221,0.051-0.517,0.296-0.805c0.322-0.355,0.923-0.457,1.372-0.457
				c0.618,0,1.279,0.194,1.507,0.626c0.136,0.255,0.144,0.458,0.144,0.652l-0.034,2.032c0,0.068,0.008,0.636,0.068,1.067H151.257z
				 M150.707,361.703c-0.322,0-1.533,0-1.533,0.864c0,0.271,0.169,0.736,0.881,0.736c0.406,0,0.711-0.161,0.906-0.457
				c0.178-0.288,0.187-0.525,0.204-1.118C151.02,361.712,150.902,361.703,150.707,361.703z"/>
			<path fill="#00435B" d="M153.828,362.534c-0.009,0.321,0.161,0.771,0.932,0.771c0.33,0,0.576-0.06,0.745-0.271
				c0.084-0.11,0.135-0.255,0.135-0.398c0-0.415-0.296-0.491-0.931-0.635c-0.89-0.204-1.635-0.382-1.635-1.271
				c0-0.779,0.678-1.287,1.66-1.287c0.533,0,1.279,0.152,1.533,0.66c0.11,0.237,0.11,0.44,0.11,0.618h-0.813
				c0.025-0.644-0.533-0.694-0.821-0.694c-0.119,0-0.864,0-0.864,0.609c0,0.39,0.381,0.483,0.601,0.542
				c1.177,0.28,1.431,0.348,1.686,0.585c0.237,0.22,0.322,0.517,0.322,0.787c0,0.475-0.263,0.881-0.576,1.076
				c-0.373,0.229-0.821,0.287-1.262,0.287c-0.864,0-1.668-0.355-1.66-1.38H153.828z"/>
			<path fill="#00435B" d="M156.95,359.527h0.753v-0.889l0.788-0.254v1.143h0.949v0.585h-0.949v2.549c0,0.212,0,0.567,0.567,0.567
				c0.161,0,0.313-0.025,0.381-0.042v0.618c-0.144,0.025-0.373,0.051-0.661,0.051c-0.729,0-1.076-0.212-1.076-0.906v-2.837h-0.753
				V359.527z"/>
			<path fill="#00435B" d="M163.011,363.795c-0.059-0.212-0.076-0.415-0.076-0.635c-0.381,0.702-0.957,0.771-1.313,0.771
				c-0.974,0-1.499-0.551-1.499-1.254c0-0.339,0.119-0.881,0.745-1.244c0.458-0.255,1.135-0.28,1.474-0.28
				c0.204,0,0.331,0.009,0.576,0.025c0-0.524,0-0.753-0.153-0.939c-0.161-0.212-0.508-0.279-0.736-0.279
				c-0.805,0-0.847,0.55-0.855,0.72h-0.796c0.025-0.221,0.051-0.517,0.296-0.805c0.322-0.355,0.923-0.457,1.372-0.457
				c0.618,0,1.279,0.194,1.507,0.626c0.136,0.255,0.144,0.458,0.144,0.652l-0.034,2.032c0,0.068,0.008,0.636,0.068,1.067H163.011z
				 M162.461,361.703c-0.322,0-1.533,0-1.533,0.864c0,0.271,0.169,0.736,0.881,0.736c0.406,0,0.711-0.161,0.906-0.457
				c0.178-0.288,0.187-0.525,0.204-1.118C162.775,361.712,162.656,361.703,162.461,361.703z"/>
			<path fill="#00435B" d="M164.473,359.527h0.753v-0.889l0.788-0.254v1.143h0.949v0.585h-0.949v2.549c0,0.212,0,0.567,0.567,0.567
				c0.161,0,0.313-0.025,0.381-0.042v0.618c-0.144,0.025-0.373,0.051-0.661,0.051c-0.729,0-1.076-0.212-1.076-0.906v-2.837h-0.753
				V359.527z"/>
			<path fill="#00435B" d="M167.867,357.698h0.957v0.872h-0.957V357.698z M167.952,359.544h0.796v4.251h-0.796V359.544z"/>
			<path fill="#00435B" d="M170.321,360.036l-0.008-0.491h0.796l0.009,0.686c0.093-0.178,0.398-0.771,1.363-0.771
				c0.381,0,1.542,0.144,1.542,1.448v2.888h-0.813v-2.701c0-0.279-0.034-0.534-0.229-0.729c-0.203-0.195-0.482-0.288-0.753-0.288
				c-0.576,0-1.109,0.415-1.109,1.271v2.447h-0.796V360.036z"/>
			<path fill="#00435B" d="M177.506,359.4c0-0.524,0.355-1.601,1.897-1.601c1.236,0,1.948,0.669,1.948,1.567
				c0,0.575-0.373,1.177-1.194,1.329c0.347,0.093,1.279,0.348,1.279,1.482c0,0.805-0.559,1.719-2.016,1.719
				c-0.5,0-1.092-0.102-1.516-0.491c-0.313-0.288-0.517-0.729-0.517-1.177c0-0.39,0.152-0.796,0.449-1.076
				c0.279-0.279,0.584-0.364,0.847-0.448C177.904,360.535,177.506,359.985,177.506,359.4z M179.419,363.228
				c0.94,0,1.169-0.66,1.169-1.101c0-0.652-0.483-1.076-1.152-1.076c-0.72,0-1.194,0.483-1.194,1.102
				C178.242,362.61,178.547,363.228,179.419,363.228z M179.436,358.426c-0.627,0-1.109,0.373-1.109,0.957
				c0,0.567,0.474,0.948,1.084,0.948c0.644,0,1.126-0.372,1.126-0.948C180.537,358.85,180.139,358.426,179.436,358.426z"/>
			<path fill="#00435B" d="M184.115,357.817c1.753,0,1.965,1.88,1.965,2.98c0,1.389-0.28,2.168-0.813,2.668
				c-0.415,0.39-0.906,0.448-1.169,0.448c-0.779,0-1.313-0.457-1.566-0.974c-0.195-0.39-0.381-0.957-0.381-2.007
				C182.151,360.061,182.252,357.817,184.115,357.817z M184.107,363.211c0.982,0,1.151-1.287,1.151-2.338
				c0-1.405-0.246-2.38-1.135-2.38c-1.024,0-1.16,1.347-1.16,2.397C182.964,362.195,183.217,363.211,184.107,363.211z"/>
			<path fill="#00435B" d="M189.572,360.112l-0.017-0.567h0.805v0.618c0.406-0.669,0.982-0.729,1.347-0.729
				c0.94,0,1.236,0.482,1.389,0.796c0.144-0.237,0.491-0.796,1.431-0.796c0.61,0,1.558,0.254,1.558,1.508v2.854h-0.804v-2.727
				c0-0.373-0.068-0.534-0.144-0.644c-0.136-0.195-0.407-0.373-0.813-0.373c-0.517,0-0.796,0.297-0.906,0.449
				c-0.187,0.262-0.187,0.728-0.187,0.914v2.38h-0.804v-2.812c0-0.525-0.305-0.932-0.932-0.932c-0.542,0-0.838,0.339-0.932,0.466
				c-0.178,0.245-0.186,0.593-0.186,0.864v2.413h-0.805V360.112z"/>
			<path fill="#00435B" d="M198.331,364.125c0.034,0.475,0.237,0.83,0.991,0.83c1.109,0,1.126-0.805,1.126-1.956
				c-0.339,0.703-1.143,0.72-1.397,0.72c-0.389,0-0.948-0.085-1.304-0.525c-0.364-0.432-0.482-0.999-0.482-1.566
				c0-1.439,0.847-2.143,1.889-2.143c0.855,0,1.168,0.424,1.338,0.644l0.008-0.584h0.771l-0.017,0.771l-0.009,2.659
				c0,1.024-0.034,1.439-0.203,1.762c-0.355,0.677-1.186,0.762-1.77,0.762c-1.702,0-1.753-0.796-1.787-1.372H198.331z
				 M200.186,362.703c0.169-0.22,0.288-0.448,0.288-1.219c0-0.534-0.119-0.839-0.33-1.059c-0.212-0.229-0.551-0.373-0.915-0.373
				c-1.008,0-1.144,1.017-1.144,1.559c0,0.651,0.195,1.516,1.169,1.516C199.72,363.126,199.991,362.956,200.186,362.703z"/>
			<path fill="#00435B" d="M206.938,359.434c1.702,0,2.083,1.338,2.083,2.228c0,1.244-0.703,2.277-2.151,2.277
				c-1.406,0-2.091-0.974-2.091-2.219C204.779,360.67,205.27,359.434,206.938,359.434z M206.887,363.346
				c0.602,0,1.287-0.432,1.287-1.71c0-1.059-0.491-1.618-1.236-1.618c-0.508,0-1.33,0.322-1.33,1.651
				C205.609,362.542,205.981,363.346,206.887,363.346z"/>
			<path fill="#00435B" d="M210.305,360.408c0-0.288-0.017-0.584-0.042-0.863h0.805l0.017,0.821c0.152-0.593,0.66-0.788,1.016-0.839
				c0.237-0.033,0.415-0.025,0.55-0.017v0.779c-0.042-0.018-0.093-0.025-0.152-0.034s-0.135-0.009-0.229-0.009
				c-0.94,0-1.16,0.56-1.16,1.288v2.261h-0.805V360.408z"/>
			<path fill="#00435B" d="M215.255,359.527h0.753v-0.889l0.788-0.254v1.143h0.949v0.585h-0.949v2.549c0,0.212,0,0.567,0.567,0.567
				c0.161,0,0.313-0.025,0.381-0.042v0.618c-0.144,0.025-0.373,0.051-0.661,0.051c-0.729,0-1.076-0.212-1.076-0.906v-2.837h-0.753
				V359.527z"/>
			<path fill="#00435B" d="M218.649,357.698h0.957v0.872h-0.957V357.698z M218.734,359.544h0.796v4.251h-0.796V359.544z"/>
			<path fill="#00435B" d="M220.426,359.527h0.753v-0.889l0.788-0.254v1.143h0.949v0.585h-0.949v2.549c0,0.212,0,0.567,0.567,0.567
				c0.161,0,0.313-0.025,0.381-0.042v0.618c-0.144,0.025-0.373,0.051-0.661,0.051c-0.729,0-1.076-0.212-1.076-0.906v-2.837h-0.753
				V359.527z"/>
			<path fill="#00435B" d="M223.938,360.408c0-0.288-0.017-0.584-0.042-0.863h0.805l0.017,0.821c0.152-0.593,0.66-0.788,1.016-0.839
				c0.237-0.033,0.415-0.025,0.55-0.017v0.779c-0.042-0.018-0.093-0.025-0.152-0.034s-0.135-0.009-0.229-0.009
				c-0.94,0-1.16,0.56-1.16,1.288v2.261h-0.805V360.408z"/>
			<path fill="#00435B" d="M229.779,363.795c-0.059-0.212-0.076-0.415-0.076-0.635c-0.381,0.702-0.957,0.771-1.313,0.771
				c-0.974,0-1.499-0.551-1.499-1.254c0-0.339,0.119-0.881,0.745-1.244c0.458-0.255,1.135-0.28,1.474-0.28
				c0.204,0,0.331,0.009,0.576,0.025c0-0.524,0-0.753-0.153-0.939c-0.161-0.212-0.508-0.279-0.736-0.279
				c-0.805,0-0.847,0.55-0.855,0.72h-0.796c0.025-0.221,0.051-0.517,0.296-0.805c0.322-0.355,0.923-0.457,1.372-0.457
				c0.618,0,1.279,0.194,1.507,0.626c0.136,0.255,0.144,0.458,0.144,0.652l-0.034,2.032c0,0.068,0.008,0.636,0.068,1.067H229.779z
				 M229.228,361.703c-0.322,0-1.533,0-1.533,0.864c0,0.271,0.169,0.736,0.881,0.736c0.406,0,0.711-0.161,0.906-0.457
				c0.178-0.288,0.187-0.525,0.204-1.118C229.542,361.712,229.423,361.703,229.228,361.703z"/>
			<path fill="#00435B" d="M231.24,359.527h0.753v-0.889l0.788-0.254v1.143h0.949v0.585h-0.949v2.549c0,0.212,0,0.567,0.567,0.567
				c0.161,0,0.313-0.025,0.381-0.042v0.618c-0.144,0.025-0.373,0.051-0.661,0.051c-0.729,0-1.076-0.212-1.076-0.906v-2.837h-0.753
				V359.527z"/>
			<path fill="#00435B" d="M234.634,357.698h0.957v0.872h-0.957V357.698z M234.719,359.544h0.796v4.251h-0.796V359.544z"/>
			<path fill="#00435B" d="M238.908,359.434c1.702,0,2.083,1.338,2.083,2.228c0,1.244-0.703,2.277-2.151,2.277
				c-1.406,0-2.091-0.974-2.091-2.219C236.749,360.67,237.24,359.434,238.908,359.434z M238.858,363.346
				c0.602,0,1.287-0.432,1.287-1.71c0-1.059-0.491-1.618-1.236-1.618c-0.508,0-1.33,0.322-1.33,1.651
				C237.579,362.542,237.951,363.346,238.858,363.346z"/>
			<path fill="#00435B" d="M242.259,360.036l-0.008-0.491h0.796l0.009,0.686c0.093-0.178,0.398-0.771,1.363-0.771
				c0.381,0,1.542,0.144,1.542,1.448v2.888h-0.813v-2.701c0-0.279-0.034-0.534-0.229-0.729c-0.203-0.195-0.482-0.288-0.753-0.288
				c-0.576,0-1.109,0.415-1.109,1.271v2.447h-0.796V360.036z"/>
			<path fill="#00435B" d="M249.104,359.527h0.753v-0.889l0.788-0.254v1.143h0.949v0.585h-0.949v2.549c0,0.212,0,0.567,0.567,0.567
				c0.161,0,0.313-0.025,0.381-0.042v0.618c-0.144,0.025-0.373,0.051-0.661,0.051c-0.729,0-1.076-0.212-1.076-0.906v-2.837h-0.753
				V359.527z"/>
			<path fill="#00435B" d="M254.42,359.434c1.702,0,2.083,1.338,2.083,2.228c0,1.244-0.703,2.277-2.151,2.277
				c-1.406,0-2.091-0.974-2.091-2.219C252.261,360.67,252.752,359.434,254.42,359.434z M254.369,363.346
				c0.602,0,1.287-0.432,1.287-1.71c0-1.059-0.491-1.618-1.236-1.618c-0.508,0-1.33,0.322-1.33,1.651
				C253.091,362.542,253.463,363.346,254.369,363.346z"/>
			<path fill="#00435B" d="M259.783,359.4c0-0.524,0.355-1.601,1.897-1.601c1.236,0,1.948,0.669,1.948,1.567
				c0,0.575-0.373,1.177-1.194,1.329c0.347,0.093,1.279,0.348,1.279,1.482c0,0.805-0.559,1.719-2.016,1.719
				c-0.5,0-1.092-0.102-1.516-0.491c-0.313-0.288-0.517-0.729-0.517-1.177c0-0.39,0.152-0.796,0.449-1.076
				c0.279-0.279,0.584-0.364,0.847-0.448C260.181,360.535,259.783,359.985,259.783,359.4z M261.697,363.228
				c0.94,0,1.169-0.66,1.169-1.101c0-0.652-0.483-1.076-1.152-1.076c-0.72,0-1.194,0.483-1.194,1.102
				C260.52,362.61,260.825,363.228,261.697,363.228z M261.714,358.426c-0.627,0-1.109,0.373-1.109,0.957
				c0,0.567,0.474,0.948,1.084,0.948c0.644,0,1.126-0.372,1.126-0.948C262.815,358.85,262.417,358.426,261.714,358.426z"/>
			<path fill="#00435B" d="M266.394,357.817c1.753,0,1.965,1.88,1.965,2.98c0,1.389-0.28,2.168-0.813,2.668
				c-0.415,0.39-0.906,0.448-1.169,0.448c-0.779,0-1.313-0.457-1.566-0.974c-0.195-0.39-0.381-0.957-0.381-2.007
				C264.429,360.061,264.53,357.817,266.394,357.817z M266.385,363.211c0.982,0,1.151-1.287,1.151-2.338
				c0-1.405-0.246-2.38-1.135-2.38c-1.024,0-1.16,1.347-1.16,2.397C265.242,362.195,265.496,363.211,266.385,363.211z"/>
			<path fill="#00435B" d="M271.851,360.112l-0.017-0.567h0.805v0.618c0.406-0.669,0.982-0.729,1.347-0.729
				c0.94,0,1.236,0.482,1.389,0.796c0.144-0.237,0.491-0.796,1.431-0.796c0.61,0,1.558,0.254,1.558,1.508v2.854h-0.804v-2.727
				c0-0.373-0.068-0.534-0.144-0.644c-0.136-0.195-0.407-0.373-0.813-0.373c-0.517,0-0.796,0.297-0.906,0.449
				c-0.187,0.262-0.187,0.728-0.187,0.914v2.38h-0.804v-2.812c0-0.525-0.305-0.932-0.932-0.932c-0.542,0-0.838,0.339-0.932,0.466
				c-0.178,0.245-0.186,0.593-0.186,0.864v2.413h-0.805V360.112z"/>
			<path fill="#00435B" d="M280.61,364.125c0.034,0.475,0.237,0.83,0.991,0.83c1.109,0,1.126-0.805,1.126-1.956
				c-0.339,0.703-1.143,0.72-1.397,0.72c-0.389,0-0.948-0.085-1.304-0.525c-0.364-0.432-0.482-0.999-0.482-1.566
				c0-1.439,0.847-2.143,1.889-2.143c0.855,0,1.168,0.424,1.338,0.644l0.008-0.584h0.771l-0.017,0.771l-0.009,2.659
				c0,1.024-0.034,1.439-0.203,1.762c-0.355,0.677-1.186,0.762-1.77,0.762c-1.702,0-1.753-0.796-1.787-1.372H280.61z
				 M282.464,362.703c0.169-0.22,0.288-0.448,0.288-1.219c0-0.534-0.119-0.839-0.33-1.059c-0.212-0.229-0.551-0.373-0.915-0.373
				c-1.008,0-1.144,1.017-1.144,1.559c0,0.651,0.195,1.516,1.169,1.516C281.999,363.126,282.27,362.956,282.464,362.703z"/>
			<path fill="#00435B" d="M287.294,357.698h0.957v0.872h-0.957V357.698z M287.379,359.544h0.796v4.251h-0.796V359.544z"/>
			<path fill="#00435B" d="M290.18,362.534c-0.009,0.321,0.161,0.771,0.932,0.771c0.33,0,0.576-0.06,0.745-0.271
				c0.084-0.11,0.135-0.255,0.135-0.398c0-0.415-0.296-0.491-0.931-0.635c-0.89-0.204-1.635-0.382-1.635-1.271
				c0-0.779,0.678-1.287,1.66-1.287c0.533,0,1.278,0.152,1.533,0.66c0.11,0.237,0.11,0.44,0.11,0.618h-0.813
				c0.025-0.644-0.533-0.694-0.821-0.694c-0.119,0-0.864,0-0.864,0.609c0,0.39,0.381,0.483,0.601,0.542
				c1.177,0.28,1.431,0.348,1.686,0.585c0.237,0.22,0.322,0.517,0.322,0.787c0,0.475-0.263,0.881-0.576,1.076
				c-0.373,0.229-0.821,0.287-1.262,0.287c-0.864,0-1.668-0.355-1.66-1.38H290.18z"/>
			<path fill="#00435B" d="M296.332,360.036l-0.008-0.491h0.796l0.009,0.686c0.093-0.178,0.398-0.771,1.363-0.771
				c0.381,0,1.541,0.144,1.541,1.448v2.888h-0.813v-2.701c0-0.279-0.034-0.534-0.229-0.729c-0.203-0.195-0.482-0.288-0.753-0.288
				c-0.576,0-1.109,0.415-1.109,1.271v2.447h-0.796V360.036z"/>
			<path fill="#00435B" d="M303.323,359.434c1.702,0,2.083,1.338,2.083,2.228c0,1.244-0.703,2.277-2.151,2.277
				c-1.406,0-2.091-0.974-2.091-2.219C301.164,360.67,301.655,359.434,303.323,359.434z M303.273,363.346
				c0.602,0,1.287-0.432,1.287-1.71c0-1.059-0.491-1.618-1.236-1.618c-0.508,0-1.33,0.322-1.33,1.651
				C301.994,362.542,302.366,363.346,303.273,363.346z"/>
			<path fill="#00435B" d="M305.996,359.527h0.753v-0.889l0.788-0.254v1.143h0.949v0.585h-0.949v2.549c0,0.212,0,0.567,0.567,0.567
				c0.161,0,0.313-0.025,0.381-0.042v0.618c-0.144,0.025-0.373,0.051-0.661,0.051c-0.729,0-1.076-0.212-1.076-0.906v-2.837h-0.753
				V359.527z"/>
			<path fill="#00435B" d="M311.861,360.408c0-0.288-0.017-0.584-0.042-0.863h0.805l0.017,0.821c0.152-0.593,0.66-0.788,1.016-0.839
				c0.237-0.033,0.415-0.025,0.55-0.017v0.779c-0.042-0.018-0.093-0.025-0.152-0.034s-0.135-0.009-0.229-0.009
				c-0.94,0-1.16,0.56-1.16,1.288v2.261h-0.805V360.408z"/>
			<path fill="#00435B" d="M315.592,361.814c-0.017,0.881,0.347,1.532,1.219,1.532c0.517,0,0.932-0.271,1-0.88h0.796
				c-0.025,0.211-0.059,0.559-0.364,0.889c-0.186,0.212-0.609,0.567-1.465,0.567c-1.338,0-1.973-0.83-1.973-2.177
				c0-0.838,0.169-1.532,0.838-1.998c0.406-0.288,0.915-0.313,1.16-0.313c1.905,0,1.863,1.686,1.846,2.38H315.592z M317.837,361.254
				c0.008-0.406-0.068-1.253-1.05-1.253c-0.517,0-1.143,0.313-1.16,1.253H317.837z"/>
			<path fill="#00435B" d="M322.237,360.908c-0.017-0.195-0.077-0.89-0.847-0.89c-1.101,0-1.101,1.279-1.101,1.601
				c0,0.873,0.212,1.686,1.059,1.686c0.678,0,0.906-0.508,0.923-0.923h0.805c-0.051,0.83-0.669,1.524-1.719,1.524
				c-0.288,0-0.949-0.06-1.397-0.551c-0.254-0.296-0.508-0.745-0.508-1.626c0-1.77,1.084-2.295,1.931-2.295
				c0.279,0,0.915,0.06,1.304,0.525c0.313,0.364,0.339,0.711,0.355,0.948H322.237z"/>
			<path fill="#00435B" d="M325.892,359.434c1.702,0,2.083,1.338,2.083,2.228c0,1.244-0.703,2.277-2.151,2.277
				c-1.406,0-2.091-0.974-2.091-2.219C323.733,360.67,324.224,359.434,325.892,359.434z M325.842,363.346
				c0.602,0,1.287-0.432,1.287-1.71c0-1.059-0.491-1.618-1.236-1.618c-0.508,0-1.33,0.322-1.33,1.651
				C324.563,362.542,324.935,363.346,325.842,363.346z"/>
			<path fill="#00435B" d="M329.208,360.112l-0.017-0.567h0.805v0.618c0.406-0.669,0.982-0.729,1.347-0.729
				c0.94,0,1.236,0.482,1.389,0.796c0.144-0.237,0.491-0.796,1.431-0.796c0.61,0,1.558,0.254,1.558,1.508v2.854h-0.804v-2.727
				c0-0.373-0.068-0.534-0.144-0.644c-0.136-0.195-0.407-0.373-0.813-0.373c-0.517,0-0.796,0.297-0.906,0.449
				c-0.187,0.262-0.187,0.728-0.187,0.914v2.38h-0.804v-2.812c0-0.525-0.305-0.932-0.932-0.932c-0.542,0-0.838,0.339-0.932,0.466
				c-0.178,0.245-0.186,0.593-0.186,0.864v2.413h-0.805V360.112z"/>
			<path fill="#00435B" d="M337.197,360.112l-0.017-0.567h0.805v0.618c0.406-0.669,0.982-0.729,1.347-0.729
				c0.94,0,1.236,0.482,1.389,0.796c0.144-0.237,0.491-0.796,1.431-0.796c0.61,0,1.558,0.254,1.558,1.508v2.854h-0.804v-2.727
				c0-0.373-0.068-0.534-0.144-0.644c-0.136-0.195-0.407-0.373-0.813-0.373c-0.517,0-0.796,0.297-0.906,0.449
				c-0.187,0.262-0.187,0.728-0.187,0.914v2.38h-0.804v-2.812c0-0.525-0.305-0.932-0.932-0.932c-0.542,0-0.838,0.339-0.932,0.466
				c-0.178,0.245-0.186,0.593-0.186,0.864v2.413h-0.805V360.112z"/>
			<path fill="#00435B" d="M345.676,361.814c-0.017,0.881,0.347,1.532,1.219,1.532c0.517,0,0.932-0.271,1-0.88h0.796
				c-0.025,0.211-0.059,0.559-0.364,0.889c-0.186,0.212-0.609,0.567-1.465,0.567c-1.338,0-1.973-0.83-1.973-2.177
				c0-0.838,0.169-1.532,0.838-1.998c0.406-0.288,0.915-0.313,1.16-0.313c1.905,0,1.863,1.686,1.846,2.38H345.676z M347.92,361.254
				c0.008-0.406-0.068-1.253-1.05-1.253c-0.517,0-1.143,0.313-1.16,1.253H347.92z"/>
			<path fill="#00435B" d="M349.924,360.036l-0.008-0.491h0.796l0.009,0.686c0.093-0.178,0.398-0.771,1.363-0.771
				c0.381,0,1.542,0.144,1.542,1.448v2.888h-0.813v-2.701c0-0.279-0.034-0.534-0.229-0.729c-0.203-0.195-0.482-0.288-0.753-0.288
				c-0.576,0-1.109,0.415-1.109,1.271v2.447h-0.796V360.036z"/>
			<path fill="#00435B" d="M358.016,357.69h0.796v5.428c0,0.094,0.017,0.458,0.034,0.678h-0.796l-0.017-0.678
				c-0.068,0.119-0.161,0.297-0.381,0.449c-0.347,0.237-0.762,0.313-1.05,0.313c-0.567,0-1.829-0.297-1.829-2.16
				c0-1.617,0.923-2.32,1.922-2.32c0.915,0,1.22,0.542,1.321,0.72V357.69z M357.719,360.425c-0.169-0.221-0.483-0.433-0.932-0.433
				c-1.168,0-1.168,1.415-1.168,1.702c0,0.754,0.195,1.626,1.168,1.626c1.253,0,1.253-1.38,1.253-1.71
				C358.041,360.993,357.897,360.654,357.719,360.425z"/>
			<path fill="#00435B" d="M360.722,361.814c-0.017,0.881,0.347,1.532,1.219,1.532c0.517,0,0.932-0.271,1-0.88h0.796
				c-0.025,0.211-0.059,0.559-0.364,0.889c-0.186,0.212-0.609,0.567-1.465,0.567c-1.338,0-1.973-0.83-1.973-2.177
				c0-0.838,0.169-1.532,0.838-1.998c0.406-0.288,0.915-0.313,1.16-0.313c1.905,0,1.863,1.686,1.846,2.38H360.722z M362.966,361.254
				c0.008-0.406-0.068-1.253-1.05-1.253c-0.517,0-1.143,0.313-1.16,1.253H362.966z"/>
			<path fill="#00435B" d="M367.891,357.69h0.796v5.428c0,0.094,0.017,0.458,0.034,0.678h-0.796l-0.017-0.678
				c-0.068,0.119-0.161,0.297-0.381,0.449c-0.347,0.237-0.762,0.313-1.05,0.313c-0.567,0-1.829-0.297-1.829-2.16
				c0-1.617,0.923-2.32,1.922-2.32c0.915,0,1.22,0.542,1.321,0.72V357.69z M367.595,360.425c-0.169-0.221-0.483-0.433-0.932-0.433
				c-1.168,0-1.168,1.415-1.168,1.702c0,0.754,0.194,1.626,1.168,1.626c1.253,0,1.253-1.38,1.253-1.71
				C367.917,360.993,367.773,360.654,367.595,360.425z"/>
			<path fill="#00435B" d="M370.055,362.779h0.94v1.017h-0.94V362.779z"/>
			<path fill="#00435B" d="M374.802,357.681h2.185c0.313,0,0.957,0,1.406,0.288c0.458,0.288,0.678,0.754,0.678,1.245
				c0,0.432-0.161,0.813-0.432,1.084c-0.262,0.262-0.533,0.347-0.72,0.397c0.584,0.152,0.847,0.415,0.932,1.177
				c0.084,0.721,0.144,1.245,0.381,1.923h-0.906c-0.136-0.406-0.22-1.151-0.28-1.617c-0.102-0.89-0.313-1.144-1.338-1.144h-1.067
				v2.761h-0.838V357.681z M375.624,360.315h1.338c0.093,0,0.576,0,0.805-0.136c0.119-0.067,0.415-0.288,0.415-0.796
				c0-0.991-0.881-0.991-1.22-0.991h-1.338V360.315z"/>
			<path fill="#00435B" d="M380.947,361.814c-0.017,0.881,0.347,1.532,1.219,1.532c0.517,0,0.932-0.271,1-0.88h0.796
				c-0.025,0.211-0.059,0.559-0.364,0.889c-0.186,0.212-0.609,0.567-1.465,0.567c-1.338,0-1.973-0.83-1.973-2.177
				c0-0.838,0.169-1.532,0.838-1.998c0.406-0.288,0.915-0.313,1.16-0.313c1.905,0,1.863,1.686,1.846,2.38H380.947z M383.191,361.254
				c0.008-0.406-0.068-1.253-1.05-1.253c-0.517,0-1.143,0.313-1.16,1.253H383.191z"/>
			<path fill="#00435B" d="M387.295,358.274c-0.136-0.009-0.305-0.017-0.466-0.017c-0.644,0-0.644,0.321-0.644,0.618v0.669h0.991
				v0.575h-0.991v3.676h-0.788v-3.676h-0.838v-0.575h0.838v-0.483c0-0.584,0.034-0.796,0.178-1.016
				c0.178-0.271,0.517-0.466,1.067-0.466c0.229,0,0.483,0.034,0.652,0.06V358.274z"/>
			<path fill="#00435B" d="M390.043,363.025l1.533-1.508c0.322-0.313,0.644-0.651,0.906-1.008c0.339-0.466,0.432-0.728,0.432-1.041
				c0-0.288-0.102-0.957-0.94-0.957c-0.94,0-0.957,0.805-0.957,1.024h-0.889c0.008-0.288,0.034-0.847,0.542-1.287
				c0.406-0.348,0.897-0.424,1.27-0.424c0.898,0,1.813,0.458,1.813,1.711c0,0.373-0.025,0.66-0.661,1.465
				c-0.169,0.212-0.915,0.982-1.084,1.152l-1.025,0.974h2.786v0.669h-3.726V363.025z"/>
		</g>
	</g>
</g>
</svg>
