<?xml version="1.0" encoding="utf-8"?>
<!-- Generator: Adobe Illustrator 17.0.0, SVG Export Plug-In . SVG Version: 6.00 Build 0)  -->
<!DOCTYPE svg PUBLIC "-//W3C//DTD SVG 1.1//EN" "http://www.w3.org/Graphics/SVG/1.1/DTD/svg11.dtd">
<svg version="1.1" id="Layer_1" xmlns="http://www.w3.org/2000/svg" xmlns:xlink="http://www.w3.org/1999/xlink" x="0px" y="0px"
	 width="71.161px" height="127.553px" viewBox="0 0 71.161 127.553" enable-background="new 0 0 71.161 127.553"
	 xml:space="preserve">
<g>
	<g>
		<defs>
			<rect id="SVGID_26_" x="5.129" y="7.485" width="59.614" height="111.96"/>
		</defs>
		<clipPath id="SVGID_2_">
			<use xlink:href="#SVGID_26_"  overflow="visible"/>
		</clipPath>
		
			<linearGradient id="SVGID_4_" gradientUnits="userSpaceOnUse" x1="423.2621" y1="589.9314" x2="424.9572" y2="589.9314" gradientTransform="matrix(0 -35.859 -35.859 0 21189.2852 15241.2217)">
			<stop  offset="0" style="stop-color:#404041"/>
			<stop  offset="0.0139" style="stop-color:#444445"/>
			<stop  offset="0.1522" style="stop-color:#68696A"/>
			<stop  offset="0.2969" style="stop-color:#868889"/>
			<stop  offset="0.4479" style="stop-color:#9E9FA1"/>
			<stop  offset="0.6078" style="stop-color:#AEB0B2"/>
			<stop  offset="0.7825" style="stop-color:#B8BABC"/>
			<stop  offset="1" style="stop-color:#BBBDBF"/>
		</linearGradient>
		<rect x="5.129" y="7.485" clip-path="url(#SVGID_2_)" fill="url(#SVGID_4_)" width="59.614" height="111.96"/>
	</g>
	<g>
		<defs>
			<rect id="SVGID_29_" x="8.097" y="10.175" width="53.841" height="106.578"/>
		</defs>
		<clipPath id="SVGID_6_">
			<use xlink:href="#SVGID_29_"  overflow="visible"/>
		</clipPath>
		
			<linearGradient id="SVGID_8_" gradientUnits="userSpaceOnUse" x1="423.1087" y1="592.4934" x2="424.8037" y2="592.4934" gradientTransform="matrix(0 -34.1355 -34.1355 0 20260.0762 14506.4912)">
			<stop  offset="0" style="stop-color:#FFFFFF"/>
			<stop  offset="0.2973" style="stop-color:#F8F8F8"/>
			<stop  offset="0.7441" style="stop-color:#E6E5E3"/>
			<stop  offset="1" style="stop-color:#D8D7D4"/>
		</linearGradient>
		<rect x="8.097" y="10.175" clip-path="url(#SVGID_6_)" fill="url(#SVGID_8_)" width="53.841" height="106.578"/>
	</g>
	<g>
		<path fill="#58595B" d="M15.765,100.597c0.158,0.012,0.303,0.012,0.448,0.012c0.873,0,1.636-0.473,1.636-1.405
			c0-0.896-0.654-1.381-1.526-1.381c-1.127,0-1.612,0.86-1.624,1.865h-1.03c0.061-1.636,0.933-2.774,2.653-2.774
			c1.49,0,2.617,0.715,2.617,2.302c0,0.752-0.533,1.406-1.188,1.709v0.024c1.042,0.229,1.551,1.054,1.551,2.083
			c0,1.721-1.345,2.617-2.956,2.617c-1.745,0-2.896-1.029-2.859-2.799h1.03c0.037,1.115,0.654,1.891,1.83,1.891
			c1.006,0,1.866-0.618,1.866-1.66c0-1.078-0.812-1.647-1.829-1.647c-0.206,0-0.424,0.012-0.618,0.036V100.597z"/>
		<path fill="#58595B" d="M23.169,96.913c1.878,0,2.605,1.103,2.605,2.193c0,0.763-0.485,1.466-1.188,1.78
			c1.03,0.327,1.526,1.079,1.526,2.145c0,1.66-1.26,2.617-2.847,2.617c-1.647,0-2.919-0.86-2.919-2.617
			c0-1.018,0.545-1.805,1.502-2.145c-0.715-0.29-1.199-1.005-1.199-1.78C20.649,97.688,21.849,96.913,23.169,96.913z M23.266,104.74
			c1.03,0,1.757-0.715,1.757-1.672c0-0.934-0.799-1.636-1.769-1.636c-1.018,0-1.817,0.654-1.817,1.647
			C21.437,104.11,22.2,104.74,23.266,104.74z M23.266,100.523c0.812,0,1.417-0.509,1.417-1.381c0-0.86-0.605-1.32-1.441-1.32
			c-0.824,0-1.502,0.46-1.502,1.32C21.74,100.088,22.418,100.523,23.266,100.523z"/>
		<path fill="#58595B" d="M27.206,101.65h3.501v0.97h-3.501V101.65z"/>
		<path fill="#58595B" d="M37.009,97.968h-3.465l-0.46,2.471l0.024,0.024c0.375-0.424,1.018-0.617,1.6-0.617
			c1.526,0,2.774,0.98,2.774,2.943c0,1.454-1.006,2.859-3.005,2.859c-1.49,0-2.702-0.908-2.738-2.459h1.03
			c0.061,0.884,0.775,1.551,1.805,1.551c0.981,0,1.817-0.667,1.817-2.036c0-1.139-0.787-1.95-1.938-1.95
			c-0.654,0-1.199,0.327-1.599,0.812l-0.884-0.048l0.8-4.459h4.24V97.968z"/>
		<path fill="#58595B" d="M40.694,100.597c0.158,0.012,0.303,0.012,0.448,0.012c0.873,0,1.636-0.473,1.636-1.405
			c0-0.896-0.654-1.381-1.527-1.381c-1.126,0-1.611,0.86-1.623,1.865h-1.03c0.061-1.636,0.933-2.774,2.653-2.774
			c1.49,0,2.617,0.715,2.617,2.302c0,0.752-0.533,1.406-1.188,1.709v0.024c1.042,0.229,1.551,1.054,1.551,2.083
			c0,1.721-1.345,2.617-2.956,2.617c-1.745,0-2.896-1.029-2.859-2.799h1.03c0.037,1.115,0.654,1.891,1.83,1.891
			c1.006,0,1.866-0.618,1.866-1.66c0-1.078-0.812-1.647-1.829-1.647c-0.206,0-0.424,0.012-0.618,0.036V100.597z"/>
		<path fill="#58595B" d="M47.868,96.913c1.502,0,1.938,1.103,1.938,2.423c0,1.261-0.533,2.436-1.938,2.436
			c-1.466,0-1.962-1.09-1.962-2.398C45.906,98.076,46.378,96.913,47.868,96.913z M47.832,101.105c0.921,0,1.066-1.018,1.066-1.77
			c0-0.714-0.121-1.756-1.03-1.756c-0.896,0-1.054,1.042-1.054,1.769C46.814,100.051,46.923,101.105,47.832,101.105z M53.587,96.756
			h1.03l-6.506,9.014h-1.042L53.587,96.756z M53.853,100.79c1.502,0,1.938,1.103,1.938,2.423c0,1.261-0.533,2.436-1.938,2.436
			c-1.466,0-1.963-1.09-1.963-2.398C51.891,101.953,52.363,100.79,53.853,100.79z M53.817,104.982c0.921,0,1.066-1.018,1.066-1.77
			c0-0.714-0.121-1.756-1.03-1.756c-0.896,0-1.054,1.042-1.054,1.769C52.799,103.928,52.908,104.982,53.817,104.982z"/>
	</g>
	<g>
		<g>
			<defs>
				<rect id="SVGID_35_" x="-212.739" y="-54.748" width="425.477" height="291.521"/>
			</defs>
			<clipPath id="SVGID_10_">
				<use xlink:href="#SVGID_35_"  overflow="visible"/>
			</clipPath>
		</g>
		<g>
			<defs>
				<rect id="SVGID_42_" x="-212.739" y="-54.748" width="425.477" height="291.521"/>
			</defs>
			<clipPath id="SVGID_12_">
				<use xlink:href="#SVGID_42_"  overflow="visible"/>
			</clipPath>
		</g>
		<g>
			<defs>
				<rect id="SVGID_46_" x="-212.739" y="-54.748" width="425.477" height="291.521"/>
			</defs>
			<clipPath id="SVGID_14_">
				<use xlink:href="#SVGID_46_"  overflow="visible"/>
			</clipPath>
			<g opacity="0.5" clip-path="url(#SVGID_14_)">
				<g>
					<defs>
						<rect id="SVGID_48_" x="8.089" y="10.175" width="53.851" height="106.578"/>
					</defs>
					<clipPath id="SVGID_16_">
						<use xlink:href="#SVGID_48_"  overflow="visible"/>
					</clipPath>
					<g clip-path="url(#SVGID_16_)">
						<defs>
							<rect id="SVGID_50_" x="8.097" y="10.175" width="53.841" height="106.578"/>
						</defs>
						<clipPath id="SVGID_17_">
							<use xlink:href="#SVGID_50_"  overflow="visible"/>
						</clipPath>
						
							<linearGradient id="SVGID_18_" gradientUnits="userSpaceOnUse" x1="422.8993" y1="580.758" x2="424.5944" y2="580.758" gradientTransform="matrix(0 -43.7288 -43.7288 0 25430.8672 18650.084)">
							<stop  offset="0" style="stop-color:#FFFFFF"/>
							<stop  offset="0.162" style="stop-color:#FBFBFB"/>
							<stop  offset="0.3174" style="stop-color:#F0F0F0"/>
							<stop  offset="0.4701" style="stop-color:#DCDCDD"/>
							<stop  offset="0.6213" style="stop-color:#C1C1C2"/>
							<stop  offset="0.7713" style="stop-color:#9E9EA0"/>
							<stop  offset="0.9184" style="stop-color:#747476"/>
							<stop  offset="1" style="stop-color:#59595C"/>
						</linearGradient>
						<rect x="8.097" y="10.175" clip-path="url(#SVGID_17_)" fill="url(#SVGID_18_)" width="53.841" height="106.578"/>
					</g>
				</g>
			</g>
		</g>
		<g>
			<defs>
				<rect id="SVGID_53_" x="-212.739" y="-54.748" width="425.477" height="291.521"/>
			</defs>
			<clipPath id="SVGID_19_">
				<use xlink:href="#SVGID_53_"  overflow="visible"/>
			</clipPath>
			<g opacity="0.5" clip-path="url(#SVGID_19_)">
				<g>
					<defs>
						<rect id="SVGID_55_" x="8.089" y="84.239" width="53.851" height="35.065"/>
					</defs>
					<clipPath id="SVGID_21_">
						<use xlink:href="#SVGID_55_"  overflow="visible"/>
					</clipPath>
					<rect x="8.097" y="84.239" clip-path="url(#SVGID_21_)" fill="#58595B" width="53.839" height="35.063"/>
				</g>
			</g>
		</g>
		<g>
			<defs>
				<rect id="SVGID_57_" x="-212.739" y="-54.748" width="425.477" height="291.521"/>
			</defs>
			<clipPath id="SVGID_22_">
				<use xlink:href="#SVGID_57_"  overflow="visible"/>
			</clipPath>
		</g>
	</g>
</g>
</svg>
