<?xml version="1.0" encoding="utf-8"?>
<!-- Generator: Adobe Illustrator 17.0.0, SVG Export Plug-In . SVG Version: 6.00 Build 0)  -->
<!DOCTYPE svg PUBLIC "-//W3C//DTD SVG 1.1//EN" "http://www.w3.org/Graphics/SVG/1.1/DTD/svg11.dtd">
<svg version="1.1" id="Layer_1" xmlns="http://www.w3.org/2000/svg" xmlns:xlink="http://www.w3.org/1999/xlink" x="0px" y="0px"
	 width="74px" height="110.77px" viewBox="0 0 74 110.77" enable-background="new 0 0 74 110.77" xml:space="preserve">
<g>
	<defs>
		<rect id="SVGID_20_" x="8.415" y="12.485" width="59.614" height="91.582"/>
	</defs>
	<clipPath id="SVGID_2_">
		<use xlink:href="#SVGID_20_"  overflow="visible"/>
	</clipPath>
	
		<linearGradient id="SVGID_4_" gradientUnits="userSpaceOnUse" x1="320.6018" y1="604.7946" x2="322.2968" y2="604.7946" gradientTransform="matrix(0 -29.3322 -29.3322 0 17778.1777 9462.2314)">
		<stop  offset="0" style="stop-color:#B69170"/>
		<stop  offset="0.2776" style="stop-color:#B99372"/>
		<stop  offset="0.5005" style="stop-color:#C39B77"/>
		<stop  offset="0.7044" style="stop-color:#D4A880"/>
		<stop  offset="0.8959" style="stop-color:#ECBA8D"/>
		<stop  offset="1" style="stop-color:#FCC696"/>
	</linearGradient>
	<rect x="8.415" y="12.485" clip-path="url(#SVGID_2_)" fill="url(#SVGID_4_)" width="59.614" height="91.582"/>
</g>
<g>
	<defs>
		<polygon id="SVGID_23_" points="46.219,14.687 30.223,14.687 11.615,14.687 11.615,101.865 64.829,101.865 64.829,14.687 		"/>
	</defs>
	<clipPath id="SVGID_6_">
		<use xlink:href="#SVGID_23_"  overflow="visible"/>
	</clipPath>
	
		<linearGradient id="SVGID_8_" gradientUnits="userSpaceOnUse" x1="320.4245" y1="607.8584" x2="322.1195" y2="607.8584" gradientTransform="matrix(0 -27.9219 -27.9219 0 17010.7832 9005.1367)">
		<stop  offset="0" style="stop-color:#FFFFFF"/>
		<stop  offset="0.2973" style="stop-color:#F8F8F8"/>
		<stop  offset="0.7441" style="stop-color:#E6E5E3"/>
		<stop  offset="1" style="stop-color:#D8D7D4"/>
	</linearGradient>
	<rect x="11.615" y="14.687" clip-path="url(#SVGID_6_)" fill="url(#SVGID_8_)" width="53.213" height="87.178"/>
</g>
<g>
	<g>
		<g>
			<defs>
				<rect id="SVGID_35_" x="-314.9" y="-49.748" width="425.477" height="291.521"/>
			</defs>
			<clipPath id="SVGID_10_">
				<use xlink:href="#SVGID_35_"  overflow="visible"/>
			</clipPath>
		</g>
		<g>
			<defs>
				<rect id="SVGID_42_" x="-314.9" y="-49.748" width="425.477" height="291.521"/>
			</defs>
			<clipPath id="SVGID_12_">
				<use xlink:href="#SVGID_42_"  overflow="visible"/>
			</clipPath>
		</g>
		<g>
			<defs>
				<rect id="SVGID_46_" x="-314.9" y="-49.748" width="425.477" height="291.521"/>
			</defs>
			<clipPath id="SVGID_14_">
				<use xlink:href="#SVGID_46_"  overflow="visible"/>
			</clipPath>
		</g>
		<g>
			<defs>
				<rect id="SVGID_53_" x="-314.9" y="-49.748" width="425.477" height="291.521"/>
			</defs>
			<clipPath id="SVGID_16_">
				<use xlink:href="#SVGID_53_"  overflow="visible"/>
			</clipPath>
		</g>
		<g>
			<defs>
				<rect id="SVGID_57_" x="-314.9" y="-49.748" width="425.477" height="291.521"/>
			</defs>
			<clipPath id="SVGID_17_">
				<use xlink:href="#SVGID_57_"  overflow="visible"/>
			</clipPath>
			<g opacity="0.4" clip-path="url(#SVGID_17_)">
				<g>
					<defs>
						<rect id="SVGID_59_" x="11.307" y="14.687" width="53.834" height="87.178"/>
					</defs>
					<clipPath id="SVGID_18_">
						<use xlink:href="#SVGID_59_"  overflow="visible"/>
					</clipPath>
					<g clip-path="url(#SVGID_18_)">
						<defs>
							<rect id="SVGID_61_" x="11.303" y="14.687" width="53.841" height="87.178"/>
						</defs>
						<clipPath id="SVGID_19_">
							<use xlink:href="#SVGID_61_"  overflow="visible"/>
						</clipPath>
						
							<linearGradient id="SVGID_21_" gradientUnits="userSpaceOnUse" x1="319.7362" y1="607.8583" x2="321.4312" y2="607.8583" gradientTransform="matrix(0 -27.9219 -27.9219 0 17010.7832 9032.7891)">
							<stop  offset="0" style="stop-color:#FFFFFF"/>
							<stop  offset="0.0635" style="stop-color:#FFF8EE"/>
							<stop  offset="0.3105" style="stop-color:#FDDDB0"/>
							<stop  offset="0.5365" style="stop-color:#FCC97F"/>
							<stop  offset="0.7338" style="stop-color:#FBBA5C"/>
							<stop  offset="0.8951" style="stop-color:#FAB047"/>
							<stop  offset="1" style="stop-color:#FAAD3F"/>
						</linearGradient>
						<rect x="11.303" y="14.687" clip-path="url(#SVGID_19_)" fill="url(#SVGID_21_)" width="53.841" height="87.178"/>
					</g>
				</g>
			</g>
			<g opacity="0.2" clip-path="url(#SVGID_17_)">
				<g>
					<defs>
						<rect id="SVGID_64_" x="11.307" y="71.713" width="53.834" height="30.414"/>
					</defs>
					<clipPath id="SVGID_22_">
						<use xlink:href="#SVGID_64_"  overflow="visible"/>
					</clipPath>
					<rect x="11.302" y="71.713" clip-path="url(#SVGID_22_)" fill="#58595B" width="53.842" height="30.414"/>
				</g>
			</g>
		</g>
	</g>
</g>
<g>
	<path fill="#58595B" d="M16.862,85.103c-0.085-1.745,0.945-3.041,2.762-3.041c1.502,0,2.689,0.872,2.689,2.472
		c0,1.514-1.018,2.277-2.083,2.943c-1.079,0.654-2.205,1.2-2.411,2.266h4.41v0.909h-5.61c0.17-2.035,1.2-2.763,2.411-3.514
		c1.454-0.896,2.193-1.43,2.193-2.617c0-0.933-0.751-1.551-1.66-1.551c-1.199,0-1.708,1.103-1.672,2.133H16.862z"/>
	<path fill="#58595B" d="M29.235,83.091c-1.733,1.721-3.138,4.871-3.295,7.561h-1.151c0.194-2.908,1.587-5.562,3.393-7.476h-4.507
		v-0.969h5.561V83.091z"/>
	<path fill="#58595B" d="M30.412,86.799h3.501v0.969h-3.501V86.799z"/>
	<path fill="#58595B" d="M39.596,87.731h1.163v0.908h-1.163v2.012h-0.969V88.64H34.86v-0.993l3.913-5.585h0.824V87.731z
		 M38.627,87.731v-4.204h-0.024l-2.859,4.204H38.627z"/>
	<path fill="#58595B" d="M41.792,85.103c-0.085-1.745,0.945-3.041,2.762-3.041c1.502,0,2.689,0.872,2.689,2.472
		c0,1.514-1.018,2.277-2.083,2.943c-1.079,0.654-2.205,1.2-2.411,2.266h4.41v0.909h-5.609c0.169-2.035,1.199-2.763,2.411-3.514
		c1.454-0.896,2.193-1.43,2.193-2.617c0-0.933-0.751-1.551-1.66-1.551c-1.2,0-1.708,1.103-1.672,2.133H41.792z"/>
	<path fill="#58595B" d="M51.074,82.062c1.502,0,1.938,1.103,1.938,2.423c0,1.26-0.533,2.436-1.938,2.436
		c-1.466,0-1.962-1.091-1.962-2.399C49.112,83.225,49.584,82.062,51.074,82.062z M51.038,86.253c0.921,0,1.066-1.018,1.066-1.769
		c0-0.715-0.121-1.757-1.03-1.757c-0.896,0-1.054,1.042-1.054,1.769C50.02,85.199,50.129,86.253,51.038,86.253z M56.793,81.903h1.03
		l-6.506,9.015h-1.042L56.793,81.903z M57.059,85.938c1.502,0,1.938,1.103,1.938,2.423c0,1.26-0.533,2.436-1.938,2.436
		c-1.466,0-1.963-1.091-1.963-2.399C55.096,87.102,55.569,85.938,57.059,85.938z M57.023,90.13c0.921,0,1.066-1.018,1.066-1.769
		c0-0.715-0.121-1.757-1.03-1.757c-0.896,0-1.054,1.042-1.054,1.769C56.005,89.076,56.114,90.13,57.023,90.13z"/>
</g>
</svg>
