<?xml version="1.0" encoding="utf-8"?>
<!-- Generator: Adobe Illustrator 17.0.0, SVG Export Plug-In . SVG Version: 6.00 Build 0)  -->
<!DOCTYPE svg PUBLIC "-//W3C//DTD SVG 1.1//EN" "http://www.w3.org/Graphics/SVG/1.1/DTD/svg11.dtd">
<svg version="1.1" id="Layer_1" xmlns="http://www.w3.org/2000/svg" xmlns:xlink="http://www.w3.org/1999/xlink" x="0px" y="0px"
	 width="406.742px" height="150.892px" viewBox="0 0 406.742 150.892" enable-background="new 0 0 406.742 150.892"
	 xml:space="preserve">
<g>
	<g>
		<defs>
			<rect id="SVGID_9_" x="0" y="0" width="406.742" height="150.892"/>
		</defs>
		<clipPath id="SVGID_2_">
			<use xlink:href="#SVGID_9_"  overflow="visible"/>
		</clipPath>
		<g opacity="0.9" clip-path="url(#SVGID_2_)">
			<g>
				<defs>
					<rect id="SVGID_11_" x="2.904" y="2.6" width="401.247" height="148.292"/>
				</defs>
				<clipPath id="SVGID_4_">
					<use xlink:href="#SVGID_11_"  overflow="visible"/>
				</clipPath>
				<g clip-path="url(#SVGID_4_)">
					<defs>
						<rect id="SVGID_13_" x="2.904" y="2.6" width="401.254" height="148.292"/>
					</defs>
					<clipPath id="SVGID_6_">
						<use xlink:href="#SVGID_13_"  overflow="visible"/>
					</clipPath>
					<path clip-path="url(#SVGID_6_)" fill="#FFFFFF" d="M404.157,140.041c0,5.991-7.188,10.85-16.048,10.85H18.953
						c-8.864,0-16.051-4.859-16.051-10.85V13.452c0-5.994,7.187-10.852,16.051-10.852h369.155c8.861,0,16.048,4.858,16.048,10.852
						V140.041z"/>
				</g>
			</g>
		</g>
	</g>
	<g>
		<defs>
			<rect id="SVGID_15_" x="0" y="0" width="406.742" height="150.892"/>
		</defs>
		<clipPath id="SVGID_8_">
			<use xlink:href="#SVGID_15_"  overflow="visible"/>
		</clipPath>
		<g clip-path="url(#SVGID_8_)">
			<path fill="#09617D" d="M46.494,47.59h-3.627v-1.38l3.488-5.01h1.255v5.45h1.174v0.939H47.61v1.739h-1.116V47.59z M46.529,46.651
				v-4.232l-2.779,4.232H46.529z"/>
			<path fill="#09617D" d="M52.218,41.143c2.407,0,2.698,2.574,2.698,4.082c0,1.901-0.384,2.969-1.116,3.652
				c-0.57,0.533-1.244,0.615-1.604,0.615c-1.07,0-1.802-0.627-2.151-1.334c-0.267-0.533-0.523-1.311-0.523-2.748
				C49.52,44.215,49.66,41.143,52.218,41.143z M52.206,48.529c1.349,0,1.582-1.763,1.582-3.201c0-1.925-0.337-3.258-1.558-3.258
				c-1.407,0-1.593,1.844-1.593,3.281C50.637,47.138,50.985,48.529,52.206,48.529z"/>
			<path fill="#09617D" d="M59.723,44.285l-0.023-0.777h1.104v0.847c0.558-0.916,1.349-0.997,1.849-0.997
				c1.291,0,1.698,0.661,1.907,1.09c0.198-0.325,0.674-1.09,1.965-1.09c0.837,0,2.139,0.348,2.139,2.063v3.908h-1.104v-3.733
				c0-0.511-0.093-0.731-0.197-0.882c-0.187-0.267-0.559-0.51-1.116-0.51c-0.709,0-1.093,0.405-1.244,0.614
				c-0.256,0.359-0.256,0.997-0.256,1.252v3.259h-1.104v-3.85c0-0.719-0.419-1.275-1.279-1.275c-0.744,0-1.151,0.464-1.279,0.638
				c-0.244,0.336-0.256,0.812-0.256,1.183v3.305h-1.104V44.285z"/>
			<path fill="#09617D" d="M71.762,49.781c0.046,0.649,0.325,1.137,1.36,1.137c1.523,0,1.546-1.102,1.546-2.679
				c-0.465,0.963-1.57,0.985-1.918,0.985c-0.535,0-1.302-0.115-1.791-0.719c-0.5-0.591-0.663-1.368-0.663-2.146
				c0-1.971,1.163-2.934,2.593-2.934c1.175,0,1.605,0.58,1.837,0.881l0.012-0.8h1.058l-0.023,1.056l-0.012,3.641
				c0,1.403-0.046,1.972-0.279,2.412c-0.489,0.928-1.628,1.044-2.43,1.044c-2.337,0-2.407-1.09-2.454-1.879H71.762z M74.308,47.833
				c0.232-0.301,0.395-0.614,0.395-1.67c0-0.73-0.163-1.147-0.454-1.449c-0.291-0.313-0.755-0.51-1.255-0.51
				c-1.384,0-1.57,1.392-1.57,2.134c0,0.893,0.268,2.075,1.604,2.075C73.668,48.413,74.04,48.182,74.308,47.833z"/>
		</g>
		<g clip-path="url(#SVGID_8_)">
			<path fill="#09617D" d="M43.134,57.751c0-0.719,0.489-2.191,2.604-2.191c1.698,0,2.674,0.916,2.674,2.146
				c0,0.788-0.511,1.611-1.639,1.82c0.477,0.128,1.755,0.476,1.755,2.029c0,1.102-0.767,2.354-2.767,2.354
				c-0.686,0-1.5-0.14-2.081-0.673c-0.43-0.395-0.709-0.997-0.709-1.612c0-0.533,0.209-1.09,0.616-1.473
				c0.384-0.383,0.802-0.498,1.163-0.614C43.681,59.305,43.134,58.552,43.134,57.751z M45.762,62.993
				c1.291,0,1.604-0.905,1.604-1.508c0-0.893-0.663-1.473-1.581-1.473c-0.988,0-1.64,0.661-1.64,1.508
				C44.145,62.147,44.564,62.993,45.762,62.993z M45.785,56.418c-0.86,0-1.523,0.51-1.523,1.31c0,0.777,0.651,1.299,1.488,1.299
				c0.884,0,1.546-0.51,1.546-1.299C47.296,56.997,46.75,56.418,45.785,56.418z"/>
			<path fill="#09617D" d="M52.218,55.583c2.407,0,2.698,2.574,2.698,4.082c0,1.901-0.384,2.969-1.116,3.652
				c-0.57,0.533-1.244,0.615-1.604,0.615c-1.07,0-1.802-0.627-2.151-1.334c-0.267-0.533-0.523-1.311-0.523-2.748
				C49.52,58.655,49.66,55.583,52.218,55.583z M52.206,62.97c1.349,0,1.582-1.763,1.582-3.201c0-1.925-0.337-3.258-1.558-3.258
				c-1.407,0-1.593,1.844-1.593,3.281C50.637,61.578,50.985,62.97,52.206,62.97z"/>
			<path fill="#09617D" d="M59.723,58.726l-0.023-0.777h1.104v0.847c0.558-0.916,1.349-0.997,1.849-0.997
				c1.291,0,1.698,0.661,1.907,1.09c0.198-0.325,0.674-1.09,1.965-1.09c0.837,0,2.139,0.348,2.139,2.063v3.908h-1.104v-3.733
				c0-0.511-0.093-0.731-0.197-0.882c-0.187-0.267-0.559-0.51-1.116-0.51c-0.709,0-1.093,0.405-1.244,0.614
				c-0.256,0.359-0.256,0.997-0.256,1.252v3.259h-1.104v-3.85c0-0.719-0.419-1.275-1.279-1.275c-0.744,0-1.151,0.464-1.279,0.638
				c-0.244,0.336-0.256,0.812-0.256,1.183v3.305h-1.104V58.726z"/>
			<path fill="#09617D" d="M71.762,64.222c0.046,0.649,0.325,1.137,1.36,1.137c1.523,0,1.546-1.102,1.546-2.679
				c-0.465,0.963-1.57,0.985-1.918,0.985c-0.535,0-1.302-0.115-1.791-0.719c-0.5-0.591-0.663-1.368-0.663-2.146
				c0-1.971,1.163-2.934,2.593-2.934c1.175,0,1.605,0.58,1.837,0.881l0.012-0.8h1.058l-0.023,1.056l-0.012,3.641
				c0,1.403-0.046,1.972-0.279,2.412c-0.489,0.928-1.628,1.044-2.43,1.044c-2.337,0-2.407-1.09-2.454-1.879H71.762z M74.308,62.274
				c0.232-0.301,0.395-0.614,0.395-1.67c0-0.73-0.163-1.147-0.454-1.449c-0.291-0.313-0.755-0.51-1.255-0.51
				c-1.384,0-1.57,1.392-1.57,2.134c0,0.893,0.268,2.075,1.604,2.075C73.668,62.854,74.04,62.622,74.308,62.274z"/>
		</g>
		<g clip-path="url(#SVGID_8_)">
			<path fill="#09617D" d="M46.016,72.434c-0.5,0.418-1.302,0.894-1.872,1.16v-1.16c0.756-0.395,1.5-0.881,1.954-1.264h1.035v8.024
				h-1.116V72.434z"/>
			<path fill="#09617D" d="M51.914,71.008c2.407,0,2.698,2.574,2.698,4.082c0,1.901-0.384,2.969-1.116,3.652
				c-0.57,0.533-1.244,0.615-1.604,0.615c-1.07,0-1.802-0.627-2.151-1.334c-0.267-0.533-0.523-1.311-0.523-2.748
				C49.217,74.08,49.356,71.008,51.914,71.008z M51.902,78.395c1.349,0,1.582-1.763,1.582-3.201c0-1.925-0.337-3.258-1.558-3.258
				c-1.407,0-1.593,1.844-1.593,3.281C50.333,77.003,50.682,78.395,51.902,78.395z"/>
			<path fill="#09617D" d="M59.418,74.151l-0.023-0.777h1.104v0.847c0.558-0.916,1.349-0.997,1.849-0.997
				c1.291,0,1.698,0.661,1.907,1.09c0.197-0.325,0.674-1.09,1.965-1.09c0.837,0,2.14,0.348,2.14,2.063v3.908h-1.105v-3.733
				c0-0.511-0.093-0.731-0.198-0.882c-0.186-0.267-0.558-0.51-1.116-0.51c-0.709,0-1.093,0.405-1.244,0.614
				c-0.256,0.359-0.256,0.997-0.256,1.252v3.259h-1.105v-3.85c0-0.719-0.418-1.275-1.279-1.275c-0.744,0-1.151,0.464-1.279,0.638
				c-0.244,0.336-0.256,0.812-0.256,1.183v3.305h-1.104V74.151z"/>
			<path fill="#09617D" d="M71.458,79.647c0.046,0.649,0.325,1.137,1.36,1.137c1.523,0,1.546-1.102,1.546-2.679
				c-0.465,0.963-1.57,0.985-1.918,0.985c-0.535,0-1.302-0.115-1.791-0.719c-0.5-0.591-0.663-1.368-0.663-2.146
				c0-1.971,1.163-2.934,2.593-2.934c1.175,0,1.605,0.58,1.837,0.881l0.012-0.8h1.058l-0.023,1.056l-0.012,3.641
				c0,1.403-0.046,1.972-0.279,2.412c-0.489,0.928-1.628,1.044-2.43,1.044c-2.337,0-2.407-1.09-2.454-1.879H71.458z M74.004,77.698
				c0.232-0.301,0.395-0.614,0.395-1.67c0-0.73-0.163-1.147-0.454-1.449c-0.291-0.313-0.755-0.51-1.255-0.51
				c-1.384,0-1.57,1.392-1.57,2.134c0,0.893,0.268,2.075,1.604,2.075C73.365,78.278,73.737,78.047,74.004,77.698z"/>
		</g>
		<g clip-path="url(#SVGID_8_)">
			<path fill="#09617D" d="M43.157,92.579l2.104-2.064c0.442-0.429,0.884-0.893,1.244-1.38c0.465-0.638,0.593-0.997,0.593-1.427
				c0-0.395-0.14-1.311-1.291-1.311c-1.291,0-1.313,1.102-1.313,1.403h-1.221c0.012-0.395,0.046-1.159,0.744-1.763
				c0.558-0.476,1.232-0.58,1.744-0.58c1.232,0,2.488,0.627,2.488,2.343c0,0.511-0.035,0.904-0.907,2.007
				c-0.233,0.289-1.256,1.345-1.488,1.577l-1.407,1.333h3.826v0.916h-5.116V92.579z"/>
			<path fill="#09617D" d="M52.218,85.447c2.407,0,2.698,2.574,2.698,4.082c0,1.901-0.384,2.969-1.116,3.652
				c-0.57,0.533-1.244,0.615-1.604,0.615c-1.07,0-1.802-0.627-2.151-1.334c-0.267-0.533-0.523-1.311-0.523-2.748
				C49.52,88.52,49.66,85.447,52.218,85.447z M52.206,92.834c1.349,0,1.582-1.763,1.582-3.201c0-1.925-0.337-3.258-1.558-3.258
				c-1.407,0-1.593,1.844-1.593,3.281C50.637,91.443,50.985,92.834,52.206,92.834z"/>
			<path fill="#09617D" d="M59.723,88.59l-0.023-0.777h1.104v0.847c0.558-0.916,1.349-0.997,1.849-0.997
				c1.291,0,1.698,0.661,1.907,1.09c0.198-0.325,0.674-1.09,1.965-1.09c0.837,0,2.139,0.348,2.139,2.063v3.908h-1.104v-3.733
				c0-0.511-0.093-0.731-0.197-0.882c-0.187-0.267-0.559-0.51-1.116-0.51c-0.709,0-1.093,0.405-1.244,0.614
				c-0.256,0.359-0.256,0.997-0.256,1.252v3.259h-1.104v-3.85c0-0.719-0.419-1.275-1.279-1.275c-0.744,0-1.151,0.464-1.279,0.638
				c-0.244,0.336-0.256,0.812-0.256,1.183v3.305h-1.104V88.59z"/>
			<path fill="#09617D" d="M71.762,94.086c0.046,0.649,0.325,1.137,1.36,1.137c1.523,0,1.546-1.102,1.546-2.679
				c-0.465,0.963-1.57,0.985-1.918,0.985c-0.535,0-1.302-0.115-1.791-0.719c-0.5-0.591-0.663-1.368-0.663-2.146
				c0-1.971,1.163-2.934,2.593-2.934c1.175,0,1.605,0.58,1.837,0.881l0.012-0.8h1.058l-0.023,1.056l-0.012,3.641
				c0,1.403-0.046,1.972-0.279,2.412c-0.489,0.928-1.628,1.044-2.43,1.044c-2.337,0-2.407-1.09-2.454-1.879H71.762z M74.308,92.138
				c0.232-0.301,0.395-0.614,0.395-1.67c0-0.73-0.163-1.147-0.454-1.449c-0.291-0.313-0.755-0.51-1.255-0.51
				c-1.384,0-1.57,1.392-1.57,2.134c0,0.893,0.268,2.075,1.604,2.075C73.668,92.718,74.04,92.486,74.308,92.138z"/>
		</g>
		<g clip-path="url(#SVGID_8_)">
			<path fill="#09617D" d="M50.427,108.445h1.616l4.128,6.923v-6.923h1.069v8.372h-1.488l-4.267-7.108v7.108h-1.058V108.445z"/>
			<path fill="#09617D" d="M60.989,108.549h0.756l-2.709,8.454h-0.767L60.989,108.549z"/>
			<path fill="#09617D" d="M65.246,108.445h1.244l3.396,8.372h-1.268l-0.907-2.18h-3.896l-0.907,2.18h-1.198L65.246,108.445z
				 M64.187,113.698h3.174l-1.546-4.105L64.187,113.698z"/>
		</g>
		<g clip-path="url(#SVGID_8_)">
			<path fill="#09617D" d="M141.803,108.445h1.616l4.128,6.923v-6.923h1.069v8.372h-1.488l-4.267-7.108v7.108h-1.058V108.445z"/>
			<path fill="#09617D" d="M152.365,108.549h0.756l-2.709,8.454h-0.767L152.365,108.549z"/>
			<path fill="#09617D" d="M156.622,108.445h1.244l3.396,8.372h-1.268l-0.907-2.18h-3.896l-0.907,2.18h-1.198L156.622,108.445z
				 M155.563,113.698h3.174l-1.546-4.105L155.563,113.698z"/>
		</g>
		<g clip-path="url(#SVGID_8_)">
			<path fill="#09617D" d="M229.678,48.462h1.616l4.128,6.923v-6.923h1.069v8.372h-1.488l-4.267-7.108v7.108h-1.058V48.462z"/>
			<path fill="#09617D" d="M240.24,48.566h0.756l-2.709,8.454h-0.767L240.24,48.566z"/>
			<path fill="#09617D" d="M244.497,48.462h1.244l3.396,8.372h-1.268l-0.907-2.18h-3.896l-0.907,2.18h-1.198L244.497,48.462z
				 M243.438,53.715h3.174l-1.546-4.105L243.438,53.715z"/>
		</g>
		<g clip-path="url(#SVGID_8_)">
			<path fill="#09617D" d="M134.521,48.275l2.104-2.064c0.442-0.429,0.884-0.893,1.244-1.38c0.465-0.638,0.593-0.997,0.593-1.427
				c0-0.395-0.14-1.311-1.291-1.311c-1.291,0-1.313,1.102-1.313,1.403h-1.221c0.012-0.395,0.046-1.159,0.744-1.763
				c0.558-0.476,1.232-0.58,1.744-0.58c1.232,0,2.488,0.627,2.488,2.343c0,0.511-0.035,0.904-0.907,2.007
				c-0.233,0.289-1.256,1.345-1.488,1.577l-1.407,1.333h3.826v0.916h-5.116V48.275z"/>
			<path fill="#09617D" d="M143.582,41.143c2.407,0,2.698,2.574,2.698,4.082c0,1.901-0.384,2.969-1.116,3.652
				c-0.57,0.533-1.244,0.615-1.604,0.615c-1.07,0-1.802-0.627-2.151-1.334c-0.267-0.533-0.523-1.311-0.523-2.748
				C140.885,44.215,141.024,41.143,143.582,41.143z M143.57,48.529c1.349,0,1.582-1.763,1.582-3.201
				c0-1.925-0.337-3.258-1.558-3.258c-1.407,0-1.593,1.844-1.593,3.281C142.001,47.138,142.35,48.529,143.57,48.529z"/>
		</g>
		<g clip-path="url(#SVGID_8_)">
			<path fill="#09617D" d="M151.086,44.285l-0.023-0.777h1.104v0.847c0.558-0.916,1.349-0.997,1.849-0.997
				c1.291,0,1.698,0.661,1.907,1.09c0.197-0.325,0.674-1.09,1.965-1.09c0.837,0,2.14,0.348,2.14,2.063v3.908h-1.105v-3.733
				c0-0.511-0.093-0.731-0.198-0.882c-0.186-0.267-0.558-0.51-1.116-0.51c-0.709,0-1.093,0.405-1.244,0.614
				c-0.256,0.359-0.256,0.997-0.256,1.252v3.259h-1.105v-3.85c0-0.719-0.418-1.275-1.279-1.275c-0.744,0-1.151,0.464-1.279,0.638
				c-0.244,0.336-0.256,0.812-0.256,1.183v3.305h-1.104V44.285z"/>
			<path fill="#09617D" d="M163.126,49.781c0.046,0.649,0.325,1.137,1.36,1.137c1.523,0,1.546-1.102,1.546-2.679
				c-0.465,0.963-1.57,0.985-1.918,0.985c-0.535,0-1.302-0.115-1.791-0.719c-0.5-0.591-0.663-1.368-0.663-2.146
				c0-1.971,1.163-2.934,2.593-2.934c1.175,0,1.605,0.58,1.837,0.881l0.012-0.8h1.058l-0.023,1.056l-0.012,3.641
				c0,1.403-0.046,1.972-0.279,2.412c-0.489,0.928-1.628,1.044-2.43,1.044c-2.337,0-2.407-1.09-2.454-1.879H163.126z
				 M165.672,47.833c0.232-0.301,0.395-0.614,0.395-1.67c0-0.73-0.163-1.147-0.454-1.449c-0.291-0.313-0.755-0.51-1.255-0.51
				c-1.384,0-1.57,1.392-1.57,2.134c0,0.893,0.268,2.075,1.604,2.075C165.033,48.413,165.405,48.182,165.672,47.833z"/>
		</g>
		<g clip-path="url(#SVGID_8_)">
			<path fill="#09617D" d="M137.858,62.03h-3.627v-1.38l3.488-5.01h1.255v5.45h1.174v0.939h-1.174v1.739h-1.116V62.03z
				 M137.893,61.091v-4.232l-2.779,4.232H137.893z"/>
			<path fill="#09617D" d="M143.582,55.583c2.407,0,2.698,2.574,2.698,4.082c0,1.901-0.384,2.969-1.116,3.652
				c-0.57,0.533-1.244,0.615-1.604,0.615c-1.07,0-1.802-0.627-2.151-1.334c-0.267-0.533-0.523-1.311-0.523-2.748
				C140.885,58.655,141.024,55.583,143.582,55.583z M143.57,62.97c1.349,0,1.582-1.763,1.582-3.201c0-1.925-0.337-3.258-1.558-3.258
				c-1.407,0-1.593,1.844-1.593,3.281C142.001,61.578,142.35,62.97,143.57,62.97z"/>
		</g>
		<g clip-path="url(#SVGID_8_)">
			<path fill="#09617D" d="M151.086,58.726l-0.023-0.777h1.104v0.847c0.558-0.916,1.349-0.997,1.849-0.997
				c1.291,0,1.698,0.661,1.907,1.09c0.197-0.325,0.674-1.09,1.965-1.09c0.837,0,2.14,0.348,2.14,2.063v3.908h-1.105v-3.733
				c0-0.511-0.093-0.731-0.198-0.882c-0.186-0.267-0.558-0.51-1.116-0.51c-0.709,0-1.093,0.405-1.244,0.614
				c-0.256,0.359-0.256,0.997-0.256,1.252v3.259h-1.105v-3.85c0-0.719-0.418-1.275-1.279-1.275c-0.744,0-1.151,0.464-1.279,0.638
				c-0.244,0.336-0.256,0.812-0.256,1.183v3.305h-1.104V58.726z"/>
			<path fill="#09617D" d="M163.126,64.222c0.046,0.649,0.325,1.137,1.36,1.137c1.523,0,1.546-1.102,1.546-2.679
				c-0.465,0.963-1.57,0.985-1.918,0.985c-0.535,0-1.302-0.115-1.791-0.719c-0.5-0.591-0.663-1.368-0.663-2.146
				c0-1.971,1.163-2.934,2.593-2.934c1.175,0,1.605,0.58,1.837,0.881l0.012-0.8h1.058l-0.023,1.056l-0.012,3.641
				c0,1.403-0.046,1.972-0.279,2.412c-0.489,0.928-1.628,1.044-2.43,1.044c-2.337,0-2.407-1.09-2.454-1.879H163.126z
				 M165.672,62.274c0.232-0.301,0.395-0.614,0.395-1.67c0-0.73-0.163-1.147-0.454-1.449c-0.291-0.313-0.755-0.51-1.255-0.51
				c-1.384,0-1.57,1.392-1.57,2.134c0,0.893,0.268,2.075,1.604,2.075C165.033,62.854,165.405,62.622,165.672,62.274z"/>
		</g>
		<g clip-path="url(#SVGID_8_)">
			<path fill="#09617D" d="M138.998,77.293c0.023,0.812,0.732,1.137,1.337,1.137c1.407,0,1.593-1.322,1.593-1.845
				c0-1.09-0.593-1.728-1.523-1.728c-0.465,0-0.837,0.174-1.081,0.418c-0.244,0.243-0.314,0.486-0.372,0.672h-1.058l0.209-4.777
				h4.523v0.939h-3.523l-0.151,2.598c0.244-0.244,0.756-0.742,1.697-0.742c1.616,0,2.407,1.264,2.407,2.644
				c0,1.577-1.116,2.771-2.872,2.771c-1.302,0-2.337-0.719-2.396-2.087H138.998z"/>
		</g>
		<g clip-path="url(#SVGID_8_)">
			<path fill="#09617D" d="M147.852,74.151l-0.023-0.777h1.104v0.847c0.558-0.916,1.349-0.997,1.849-0.997
				c1.291,0,1.698,0.661,1.907,1.09c0.197-0.325,0.674-1.09,1.965-1.09c0.837,0,2.14,0.348,2.14,2.063v3.908h-1.105v-3.733
				c0-0.511-0.093-0.731-0.198-0.882c-0.186-0.267-0.558-0.51-1.116-0.51c-0.709,0-1.093,0.405-1.244,0.614
				c-0.256,0.359-0.256,0.997-0.256,1.252v3.259h-1.105v-3.85c0-0.719-0.418-1.275-1.279-1.275c-0.744,0-1.151,0.464-1.279,0.638
				c-0.244,0.336-0.256,0.812-0.256,1.183v3.305h-1.104V74.151z"/>
			<path fill="#09617D" d="M159.892,79.647c0.046,0.649,0.325,1.137,1.36,1.137c1.523,0,1.546-1.102,1.546-2.679
				c-0.465,0.963-1.57,0.985-1.918,0.985c-0.535,0-1.302-0.115-1.791-0.719c-0.5-0.591-0.663-1.368-0.663-2.146
				c0-1.971,1.163-2.934,2.593-2.934c1.175,0,1.605,0.58,1.837,0.881l0.012-0.8h1.058l-0.023,1.056l-0.012,3.641
				c0,1.403-0.046,1.972-0.279,2.412c-0.489,0.928-1.628,1.044-2.43,1.044c-2.337,0-2.407-1.09-2.454-1.879H159.892z
				 M162.438,77.698c0.232-0.301,0.395-0.614,0.395-1.67c0-0.73-0.163-1.147-0.454-1.449c-0.291-0.313-0.755-0.51-1.255-0.51
				c-1.384,0-1.57,1.392-1.57,2.134c0,0.893,0.268,2.075,1.604,2.075C161.798,78.278,162.17,78.047,162.438,77.698z"/>
		</g>
		<g clip-path="url(#SVGID_8_)">
			<path fill="#09617D" d="M137.381,86.873c-0.5,0.418-1.302,0.894-1.872,1.16v-1.16c0.756-0.395,1.5-0.881,1.954-1.264h1.035v8.024
				h-1.116V86.873z"/>
			<path fill="#09617D" d="M143.279,85.447c2.407,0,2.698,2.574,2.698,4.082c0,1.901-0.384,2.969-1.116,3.652
				c-0.57,0.533-1.244,0.615-1.604,0.615c-1.07,0-1.802-0.627-2.151-1.334c-0.267-0.533-0.523-1.311-0.523-2.748
				C140.582,88.52,140.721,85.447,143.279,85.447z M143.268,92.834c1.349,0,1.582-1.763,1.582-3.201
				c0-1.925-0.337-3.258-1.558-3.258c-1.407,0-1.593,1.844-1.593,3.281C141.698,91.443,142.047,92.834,143.268,92.834z"/>
		</g>
		<g clip-path="url(#SVGID_8_)">
			<path fill="#09617D" d="M150.772,88.59l-0.023-0.777h1.104v0.847c0.558-0.916,1.349-0.997,1.849-0.997
				c1.291,0,1.698,0.661,1.907,1.09c0.197-0.325,0.674-1.09,1.965-1.09c0.837,0,2.14,0.348,2.14,2.063v3.908h-1.105v-3.733
				c0-0.511-0.093-0.731-0.198-0.882c-0.186-0.267-0.558-0.51-1.116-0.51c-0.709,0-1.093,0.405-1.244,0.614
				c-0.256,0.359-0.256,0.997-0.256,1.252v3.259h-1.105v-3.85c0-0.719-0.418-1.275-1.279-1.275c-0.744,0-1.151,0.464-1.279,0.638
				c-0.244,0.336-0.256,0.812-0.256,1.183v3.305h-1.104V88.59z"/>
			<path fill="#09617D" d="M162.811,94.086c0.046,0.649,0.325,1.137,1.36,1.137c1.523,0,1.546-1.102,1.546-2.679
				c-0.465,0.963-1.57,0.985-1.918,0.985c-0.535,0-1.302-0.115-1.791-0.719c-0.5-0.591-0.663-1.368-0.663-2.146
				c0-1.971,1.163-2.934,2.593-2.934c1.175,0,1.605,0.58,1.837,0.881l0.012-0.8h1.058l-0.023,1.056l-0.012,3.641
				c0,1.403-0.046,1.972-0.279,2.412c-0.489,0.928-1.628,1.044-2.43,1.044c-2.337,0-2.407-1.09-2.454-1.879H162.811z
				 M165.358,92.138c0.232-0.301,0.395-0.614,0.395-1.67c0-0.73-0.163-1.147-0.454-1.449c-0.291-0.313-0.755-0.51-1.255-0.51
				c-1.384,0-1.57,1.392-1.57,2.134c0,0.893,0.268,2.075,1.604,2.075C164.718,92.718,165.09,92.486,165.358,92.138z"/>
		</g>
		<g clip-path="url(#SVGID_8_)">
			<path fill="#09617D" d="M222.407,78.14l2.104-2.064c0.442-0.429,0.884-0.893,1.244-1.38c0.465-0.638,0.593-0.997,0.593-1.427
				c0-0.395-0.14-1.311-1.291-1.311c-1.291,0-1.313,1.102-1.313,1.403h-1.221c0.012-0.395,0.046-1.159,0.744-1.763
				c0.558-0.476,1.232-0.58,1.744-0.58c1.232,0,2.488,0.627,2.488,2.343c0,0.511-0.035,0.904-0.907,2.007
				c-0.233,0.289-1.256,1.345-1.488,1.577l-1.407,1.333h3.826v0.916h-5.116V78.14z"/>
			<path fill="#09617D" d="M231.468,71.008c2.407,0,2.698,2.574,2.698,4.082c0,1.901-0.384,2.969-1.116,3.652
				c-0.57,0.533-1.244,0.615-1.604,0.615c-1.07,0-1.802-0.627-2.151-1.334c-0.267-0.533-0.523-1.311-0.523-2.748
				C228.77,74.08,228.91,71.008,231.468,71.008z M231.456,78.395c1.349,0,1.582-1.763,1.582-3.201c0-1.925-0.337-3.258-1.558-3.258
				c-1.407,0-1.593,1.844-1.593,3.281C229.887,77.003,230.235,78.395,231.456,78.395z"/>
		</g>
		<g clip-path="url(#SVGID_8_)">
			<path fill="#09617D" d="M238.972,74.151l-0.023-0.777h1.104v0.847c0.558-0.916,1.349-0.997,1.849-0.997
				c1.291,0,1.698,0.661,1.907,1.09c0.197-0.325,0.674-1.09,1.965-1.09c0.837,0,2.14,0.348,2.14,2.063v3.908h-1.105v-3.733
				c0-0.511-0.093-0.731-0.198-0.882c-0.186-0.267-0.558-0.51-1.116-0.51c-0.709,0-1.093,0.405-1.244,0.614
				c-0.256,0.359-0.256,0.997-0.256,1.252v3.259h-1.105v-3.85c0-0.719-0.418-1.275-1.279-1.275c-0.744,0-1.151,0.464-1.279,0.638
				c-0.244,0.336-0.256,0.812-0.256,1.183v3.305h-1.104V74.151z"/>
			<path fill="#09617D" d="M251.012,79.647c0.046,0.649,0.325,1.137,1.36,1.137c1.523,0,1.546-1.102,1.546-2.679
				c-0.465,0.963-1.57,0.985-1.918,0.985c-0.535,0-1.302-0.115-1.791-0.719c-0.5-0.591-0.663-1.368-0.663-2.146
				c0-1.971,1.163-2.934,2.593-2.934c1.175,0,1.605,0.58,1.837,0.881l0.012-0.8h1.058l-0.023,1.056l-0.012,3.641
				c0,1.403-0.046,1.972-0.279,2.412c-0.489,0.928-1.628,1.044-2.43,1.044c-2.337,0-2.407-1.09-2.454-1.879H251.012z
				 M253.558,77.698c0.232-0.301,0.395-0.614,0.395-1.67c0-0.73-0.163-1.147-0.454-1.449c-0.291-0.313-0.755-0.51-1.255-0.51
				c-1.384,0-1.57,1.392-1.57,2.134c0,0.893,0.268,2.075,1.604,2.075C252.918,78.278,253.29,78.047,253.558,77.698z"/>
		</g>
		<g clip-path="url(#SVGID_8_)">
			<path fill="#09617D" d="M225.744,91.895h-3.627v-1.38l3.488-5.01h1.255v5.45h1.174v0.939h-1.174v1.739h-1.116V91.895z
				 M225.779,90.955v-4.232L223,90.955H225.779z"/>
			<path fill="#09617D" d="M231.468,85.447c2.407,0,2.698,2.574,2.698,4.082c0,1.901-0.384,2.969-1.116,3.652
				c-0.57,0.533-1.244,0.615-1.604,0.615c-1.07,0-1.802-0.627-2.151-1.334c-0.267-0.533-0.523-1.311-0.523-2.748
				C228.77,88.52,228.91,85.447,231.468,85.447z M231.456,92.834c1.349,0,1.582-1.763,1.582-3.201c0-1.925-0.337-3.258-1.558-3.258
				c-1.407,0-1.593,1.844-1.593,3.281C229.887,91.443,230.235,92.834,231.456,92.834z"/>
		</g>
		<g clip-path="url(#SVGID_8_)">
			<path fill="#09617D" d="M238.972,88.59l-0.023-0.777h1.104v0.847c0.558-0.916,1.349-0.997,1.849-0.997
				c1.291,0,1.698,0.661,1.907,1.09c0.197-0.325,0.674-1.09,1.965-1.09c0.837,0,2.14,0.348,2.14,2.063v3.908h-1.105v-3.733
				c0-0.511-0.093-0.731-0.198-0.882c-0.186-0.267-0.558-0.51-1.116-0.51c-0.709,0-1.093,0.405-1.244,0.614
				c-0.256,0.359-0.256,0.997-0.256,1.252v3.259h-1.105v-3.85c0-0.719-0.418-1.275-1.279-1.275c-0.744,0-1.151,0.464-1.279,0.638
				c-0.244,0.336-0.256,0.812-0.256,1.183v3.305h-1.104V88.59z"/>
			<path fill="#09617D" d="M251.012,94.086c0.046,0.649,0.325,1.137,1.36,1.137c1.523,0,1.546-1.102,1.546-2.679
				c-0.465,0.963-1.57,0.985-1.918,0.985c-0.535,0-1.302-0.115-1.791-0.719c-0.5-0.591-0.663-1.368-0.663-2.146
				c0-1.971,1.163-2.934,2.593-2.934c1.175,0,1.605,0.58,1.837,0.881l0.012-0.8h1.058l-0.023,1.056l-0.012,3.641
				c0,1.403-0.046,1.972-0.279,2.412c-0.489,0.928-1.628,1.044-2.43,1.044c-2.337,0-2.407-1.09-2.454-1.879H251.012z
				 M253.558,92.138c0.232-0.301,0.395-0.614,0.395-1.67c0-0.73-0.163-1.147-0.454-1.449c-0.291-0.313-0.755-0.51-1.255-0.51
				c-1.384,0-1.57,1.392-1.57,2.134c0,0.893,0.268,2.075,1.604,2.075C252.918,92.718,253.29,92.486,253.558,92.138z"/>
		</g>
		<g clip-path="url(#SVGID_8_)">
			<path fill="#09617D" d="M225.267,110.986c-0.5,0.417-1.302,0.893-1.872,1.159v-1.159c0.756-0.395,1.5-0.882,1.954-1.265h1.035
				v8.025h-1.116V110.986z"/>
			<path fill="#09617D" d="M231.165,109.56c2.407,0,2.698,2.574,2.698,4.082c0,1.901-0.384,2.969-1.116,3.653
				c-0.57,0.533-1.244,0.614-1.604,0.614c-1.07,0-1.802-0.626-2.151-1.334c-0.267-0.533-0.523-1.311-0.523-2.748
				C228.468,112.633,228.607,109.56,231.165,109.56z M231.153,116.946c1.349,0,1.582-1.763,1.582-3.2
				c0-1.925-0.337-3.259-1.558-3.259c-1.407,0-1.593,1.844-1.593,3.282C229.584,115.555,229.933,116.946,231.153,116.946z"/>
		</g>
		<g clip-path="url(#SVGID_8_)">
			<path fill="#09617D" d="M238.491,112.036l-0.023-0.777h1.104v0.847c0.558-0.916,1.349-0.997,1.849-0.997
				c1.291,0,1.698,0.661,1.907,1.09c0.197-0.325,0.674-1.09,1.965-1.09c0.837,0,2.14,0.348,2.14,2.063v3.908h-1.105v-3.733
				c0-0.511-0.093-0.731-0.198-0.882c-0.186-0.267-0.558-0.51-1.116-0.51c-0.709,0-1.093,0.405-1.244,0.614
				c-0.256,0.359-0.256,0.997-0.256,1.252v3.259h-1.105v-3.85c0-0.719-0.418-1.275-1.279-1.275c-0.744,0-1.151,0.464-1.279,0.638
				c-0.244,0.336-0.256,0.812-0.256,1.183v3.305h-1.104V112.036z"/>
			<path fill="#09617D" d="M250.531,117.532c0.046,0.649,0.325,1.137,1.36,1.137c1.523,0,1.546-1.102,1.546-2.679
				c-0.465,0.963-1.57,0.985-1.918,0.985c-0.535,0-1.302-0.115-1.791-0.719c-0.5-0.591-0.663-1.368-0.663-2.146
				c0-1.971,1.163-2.934,2.593-2.934c1.175,0,1.605,0.58,1.837,0.881l0.012-0.8h1.058l-0.023,1.056l-0.012,3.641
				c0,1.403-0.046,1.972-0.279,2.412c-0.489,0.928-1.628,1.044-2.43,1.044c-2.337,0-2.407-1.09-2.454-1.879H250.531z
				 M253.077,115.584c0.232-0.301,0.395-0.614,0.395-1.67c0-0.73-0.163-1.147-0.454-1.449c-0.291-0.313-0.755-0.51-1.255-0.51
				c-1.384,0-1.57,1.392-1.57,2.134c0,0.893,0.268,2.075,1.604,2.075C252.437,116.164,252.809,115.933,253.077,115.584z"/>
		</g>
		<g clip-path="url(#SVGID_8_)">
			<path fill="#09617D" d="M29.705,18.841h1.244l3.396,8.372h-1.268l-0.907-2.18h-3.896l-0.907,2.18h-1.198L29.705,18.841z
				 M28.647,24.094h3.174l-1.546-4.105L28.647,24.094z"/>
			<path fill="#09617D" d="M34.593,21.368h1.035v-1.218l1.082-0.348v1.565h1.302v0.801h-1.302v3.49c0,0.29,0,0.777,0.779,0.777
				c0.221,0,0.43-0.035,0.523-0.059v0.847c-0.198,0.035-0.512,0.069-0.907,0.069c-1,0-1.477-0.289-1.477-1.24v-3.885h-1.035V21.368z
				"/>
			<path fill="#09617D" d="M41.897,21.241c2.337,0,2.86,1.832,2.86,3.05c0,1.704-0.965,3.119-2.954,3.119
				c-1.93,0-2.872-1.333-2.872-3.038C38.932,22.934,39.606,21.241,41.897,21.241z M41.827,26.599c0.825,0,1.767-0.592,1.767-2.343
				c0-1.449-0.674-2.215-1.697-2.215c-0.698,0-1.826,0.44-1.826,2.262C40.071,25.497,40.583,26.599,41.827,26.599z"/>
			<path fill="#09617D" d="M46.528,22.574c0-0.394-0.023-0.8-0.059-1.183h1.105l0.023,1.125c0.209-0.812,0.907-1.078,1.396-1.148
				c0.326-0.046,0.57-0.034,0.756-0.022v1.066c-0.058-0.023-0.128-0.035-0.209-0.046c-0.082-0.012-0.186-0.012-0.314-0.012
				c-1.291,0-1.593,0.765-1.593,1.763v3.096h-1.104V22.574z"/>
			<path fill="#09617D" d="M50.111,21.392h1.221l1.86,4.615l1.814-4.615h1.209l-2.558,5.821h-1.105L50.111,21.392z"/>
			<path fill="#09617D" d="M61.02,27.213c-0.082-0.29-0.104-0.568-0.104-0.869c-0.523,0.962-1.314,1.055-1.802,1.055
				c-1.337,0-2.058-0.754-2.058-1.716c0-0.464,0.163-1.206,1.023-1.705c0.627-0.348,1.558-0.383,2.023-0.383
				c0.279,0,0.454,0.012,0.791,0.035c0-0.719,0-1.032-0.209-1.287c-0.221-0.29-0.698-0.383-1.012-0.383
				c-1.104,0-1.163,0.754-1.174,0.985h-1.093c0.035-0.301,0.07-0.707,0.407-1.102c0.442-0.487,1.267-0.626,1.883-0.626
				c0.849,0,1.756,0.267,2.07,0.858c0.186,0.348,0.198,0.626,0.198,0.893l-0.046,2.783c0,0.093,0.011,0.87,0.093,1.461H61.02z
				 M60.265,24.349c-0.442,0-2.104,0-2.104,1.183c0,0.371,0.233,1.01,1.209,1.01c0.558,0,0.977-0.221,1.244-0.627
				c0.244-0.394,0.256-0.719,0.279-1.53C60.695,24.361,60.532,24.349,60.265,24.349z"/>
			<path fill="#09617D" d="M64.558,25.486c-0.011,0.44,0.221,1.056,1.279,1.056c0.453,0,0.791-0.082,1.023-0.371
				c0.116-0.151,0.186-0.349,0.186-0.546c0-0.567-0.407-0.672-1.279-0.869c-1.221-0.278-2.244-0.522-2.244-1.739
				c0-1.067,0.93-1.763,2.279-1.763c0.732,0,1.756,0.208,2.104,0.904c0.151,0.324,0.151,0.603,0.151,0.847h-1.116
				c0.035-0.882-0.732-0.951-1.128-0.951c-0.163,0-1.186,0-1.186,0.835c0,0.533,0.523,0.661,0.826,0.742
				c1.616,0.383,1.965,0.476,2.314,0.8c0.325,0.302,0.442,0.708,0.442,1.079c0,0.649-0.361,1.206-0.791,1.473
				c-0.512,0.313-1.128,0.395-1.732,0.395c-1.186,0-2.291-0.487-2.279-1.891H64.558z"/>
			<path fill="#09617D" d="M68.852,21.368h1.035v-1.218l1.082-0.348v1.565h1.302v0.801h-1.302v3.49c0,0.29,0,0.777,0.779,0.777
				c0.221,0,0.43-0.035,0.523-0.059v0.847c-0.198,0.035-0.512,0.069-0.907,0.069c-1,0-1.477-0.289-1.477-1.24v-3.885h-1.035V21.368z
				"/>
			<path fill="#09617D" d="M77.179,27.213c-0.082-0.29-0.104-0.568-0.104-0.869c-0.523,0.962-1.314,1.055-1.802,1.055
				c-1.337,0-2.058-0.754-2.058-1.716c0-0.464,0.163-1.206,1.023-1.705c0.627-0.348,1.558-0.383,2.023-0.383
				c0.279,0,0.454,0.012,0.791,0.035c0-0.719,0-1.032-0.209-1.287c-0.221-0.29-0.698-0.383-1.012-0.383
				c-1.104,0-1.163,0.754-1.174,0.985h-1.093c0.035-0.301,0.07-0.707,0.407-1.102c0.442-0.487,1.267-0.626,1.883-0.626
				c0.849,0,1.756,0.267,2.07,0.858c0.186,0.348,0.198,0.626,0.198,0.893l-0.046,2.783c0,0.093,0.011,0.87,0.093,1.461H77.179z
				 M76.423,24.349c-0.442,0-2.104,0-2.104,1.183c0,0.371,0.233,1.01,1.209,1.01c0.558,0,0.977-0.221,1.244-0.627
				c0.244-0.394,0.256-0.719,0.279-1.53C76.853,24.361,76.69,24.349,76.423,24.349z"/>
			<path fill="#09617D" d="M79.193,21.368h1.035v-1.218l1.082-0.348v1.565h1.302v0.801h-1.302v3.49c0,0.29,0,0.777,0.779,0.777
				c0.221,0,0.43-0.035,0.523-0.059v0.847c-0.198,0.035-0.512,0.069-0.907,0.069c-1,0-1.477-0.289-1.477-1.24v-3.885h-1.035V21.368z
				"/>
			<path fill="#09617D" d="M83.857,18.863h1.314v1.194h-1.314V18.863z M83.974,21.392h1.093v5.821h-1.093V21.392z"/>
			<path fill="#09617D" d="M87.231,22.065l-0.012-0.673h1.093l0.011,0.939c0.128-0.243,0.546-1.056,1.872-1.056
				c0.523,0,2.116,0.197,2.116,1.983v3.954h-1.116v-3.699c0-0.383-0.046-0.73-0.314-0.997c-0.279-0.267-0.663-0.395-1.035-0.395
				c-0.791,0-1.523,0.568-1.523,1.739v3.352h-1.093V22.065z"/>
		</g>
		<g clip-path="url(#SVGID_8_)">
			<path fill="#09617D" d="M116.617,18.841h3c0.431,0,1.314,0,1.93,0.394c0.628,0.395,0.93,1.032,0.93,1.705
				c0,0.592-0.221,1.113-0.593,1.484c-0.36,0.359-0.732,0.476-0.988,0.545c0.802,0.209,1.163,0.568,1.279,1.612
				c0.116,0.985,0.198,1.704,0.523,2.632h-1.244c-0.186-0.557-0.302-1.577-0.384-2.215c-0.14-1.218-0.43-1.565-1.837-1.565h-1.465
				v3.78h-1.151V18.841z M117.745,22.447h1.837c0.128,0,0.791,0,1.104-0.186c0.163-0.093,0.57-0.395,0.57-1.091
				c0-1.356-1.209-1.356-1.674-1.356h-1.837V22.447z"/>
			<path fill="#09617D" d="M126.713,21.241c2.337,0,2.86,1.832,2.86,3.05c0,1.704-0.965,3.119-2.954,3.119
				c-1.93,0-2.872-1.333-2.872-3.038C123.748,22.934,124.423,21.241,126.713,21.241z M126.643,26.599
				c0.825,0,1.767-0.592,1.767-2.343c0-1.449-0.674-2.215-1.697-2.215c-0.698,0-1.826,0.44-1.826,2.262
				C124.888,25.497,125.399,26.599,126.643,26.599z"/>
			<path fill="#09617D" d="M131.913,25.486c-0.011,0.44,0.221,1.056,1.279,1.056c0.453,0,0.791-0.082,1.023-0.371
				c0.116-0.151,0.186-0.349,0.186-0.546c0-0.567-0.407-0.672-1.279-0.869c-1.221-0.278-2.244-0.522-2.244-1.739
				c0-1.067,0.93-1.763,2.279-1.763c0.732,0,1.756,0.208,2.104,0.904c0.151,0.324,0.151,0.603,0.151,0.847h-1.116
				c0.035-0.882-0.732-0.951-1.128-0.951c-0.163,0-1.186,0-1.186,0.835c0,0.533,0.523,0.661,0.826,0.742
				c1.616,0.383,1.965,0.476,2.314,0.8c0.325,0.302,0.442,0.708,0.442,1.079c0,0.649-0.361,1.206-0.791,1.473
				c-0.512,0.313-1.128,0.395-1.732,0.395c-1.186,0-2.291-0.487-2.279-1.891H131.913z"/>
			<path fill="#09617D" d="M138.102,21.392v3.746c0,0.568,0.128,1.287,1.244,1.287c0.547,0,1.058-0.186,1.372-0.649
				c0.244-0.348,0.244-0.801,0.244-1.09v-3.294h1.128v4.731c0,0.116,0.023,0.766,0.035,1.09h-1.14l-0.023-0.997
				c-0.209,0.406-0.604,1.056-1.86,1.056c-1.441,0-2.116-0.823-2.116-1.972v-3.908H138.102z"/>
			<path fill="#09617D" d="M143.327,21.392h1.221l1.86,4.615l1.814-4.615h1.209l-2.558,5.821h-1.105L143.327,21.392z"/>
			<path fill="#09617D" d="M154.236,27.213c-0.082-0.29-0.104-0.568-0.104-0.869c-0.523,0.962-1.314,1.055-1.802,1.055
				c-1.337,0-2.058-0.754-2.058-1.716c0-0.464,0.163-1.206,1.023-1.705c0.627-0.348,1.558-0.383,2.023-0.383
				c0.279,0,0.454,0.012,0.791,0.035c0-0.719,0-1.032-0.209-1.287c-0.221-0.29-0.698-0.383-1.012-0.383
				c-1.104,0-1.163,0.754-1.174,0.985h-1.093c0.035-0.301,0.07-0.707,0.407-1.102c0.442-0.487,1.267-0.626,1.884-0.626
				c0.849,0,1.755,0.267,2.069,0.858c0.186,0.348,0.198,0.626,0.198,0.893l-0.046,2.783c0,0.093,0.012,0.87,0.093,1.461H154.236z
				 M153.48,24.349c-0.442,0-2.104,0-2.104,1.183c0,0.371,0.232,1.01,1.209,1.01c0.558,0,0.977-0.221,1.244-0.627
				c0.244-0.394,0.256-0.719,0.279-1.53C153.91,24.361,153.747,24.349,153.48,24.349z"/>
			<path fill="#09617D" d="M157.773,25.486c-0.011,0.44,0.221,1.056,1.279,1.056c0.453,0,0.791-0.082,1.023-0.371
				c0.116-0.151,0.186-0.349,0.186-0.546c0-0.567-0.407-0.672-1.279-0.869c-1.221-0.278-2.244-0.522-2.244-1.739
				c0-1.067,0.93-1.763,2.279-1.763c0.733,0,1.756,0.208,2.104,0.904c0.151,0.324,0.151,0.603,0.151,0.847h-1.116
				c0.035-0.882-0.732-0.951-1.128-0.951c-0.163,0-1.186,0-1.186,0.835c0,0.533,0.523,0.661,0.826,0.742
				c1.616,0.383,1.965,0.476,2.314,0.8c0.325,0.302,0.441,0.708,0.441,1.079c0,0.649-0.36,1.206-0.791,1.473
				c-0.511,0.313-1.128,0.395-1.732,0.395c-1.186,0-2.291-0.487-2.279-1.891H157.773z"/>
			<path fill="#09617D" d="M162.067,21.368h1.035v-1.218l1.082-0.348v1.565h1.302v0.801h-1.302v3.49c0,0.29,0,0.777,0.779,0.777
				c0.221,0,0.43-0.035,0.523-0.059v0.847c-0.198,0.035-0.512,0.069-0.907,0.069c-1,0-1.477-0.289-1.477-1.24v-3.885h-1.035V21.368z
				"/>
			<path fill="#09617D" d="M170.394,27.213c-0.082-0.29-0.104-0.568-0.104-0.869c-0.523,0.962-1.314,1.055-1.802,1.055
				c-1.337,0-2.058-0.754-2.058-1.716c0-0.464,0.163-1.206,1.023-1.705c0.627-0.348,1.558-0.383,2.023-0.383
				c0.279,0,0.454,0.012,0.791,0.035c0-0.719,0-1.032-0.209-1.287c-0.221-0.29-0.698-0.383-1.012-0.383
				c-1.104,0-1.163,0.754-1.174,0.985h-1.093c0.035-0.301,0.07-0.707,0.407-1.102c0.442-0.487,1.267-0.626,1.884-0.626
				c0.849,0,1.755,0.267,2.069,0.858c0.186,0.348,0.198,0.626,0.198,0.893l-0.046,2.783c0,0.093,0.012,0.87,0.093,1.461H170.394z
				 M169.638,24.349c-0.442,0-2.104,0-2.104,1.183c0,0.371,0.232,1.01,1.209,1.01c0.558,0,0.977-0.221,1.244-0.627
				c0.244-0.394,0.256-0.719,0.279-1.53C170.068,24.361,169.906,24.349,169.638,24.349z"/>
			<path fill="#09617D" d="M172.409,21.368h1.035v-1.218l1.082-0.348v1.565h1.302v0.801h-1.302v3.49c0,0.29,0,0.777,0.779,0.777
				c0.221,0,0.43-0.035,0.523-0.059v0.847c-0.198,0.035-0.512,0.069-0.907,0.069c-1,0-1.477-0.289-1.477-1.24v-3.885h-1.035V21.368z
				"/>
			<path fill="#09617D" d="M177.073,18.863h1.314v1.194h-1.314V18.863z M177.189,21.392h1.093v5.821h-1.093V21.392z"/>
			<path fill="#09617D" d="M180.447,22.065l-0.012-0.673h1.093l0.012,0.939c0.128-0.243,0.547-1.056,1.872-1.056
				c0.523,0,2.116,0.197,2.116,1.983v3.954h-1.116v-3.699c0-0.383-0.046-0.73-0.314-0.997c-0.279-0.267-0.663-0.395-1.035-0.395
				c-0.791,0-1.523,0.568-1.523,1.739v3.352h-1.093V22.065z"/>
		</g>
		<g clip-path="url(#SVGID_8_)">
			<path fill="#09617D" d="M208.144,24.767c0.023,0.579,0.093,1.658,2.023,1.658c1.744,0,1.965-1.079,1.965-1.496
				c0-0.939-0.756-1.125-1.93-1.415c-1.279-0.313-1.849-0.452-2.279-0.742c-0.686-0.464-0.872-1.09-0.872-1.646
				c0-1.705,1.616-2.447,3.197-2.447c0.558,0,1.686,0.093,2.36,0.823c0.465,0.511,0.488,1.079,0.512,1.427h-1.209
				c-0.058-1.044-0.942-1.275-1.767-1.275c-1.163,0-1.86,0.521-1.86,1.356c0,0.742,0.488,0.997,1.511,1.241
				c2,0.51,2.221,0.557,2.709,0.881c0.779,0.511,0.837,1.322,0.837,1.67c0,1.484-1.163,2.609-3.313,2.609
				c-0.64,0-1.942-0.104-2.604-0.951c-0.477-0.614-0.489-1.287-0.489-1.692H208.144z"/>
			<path fill="#09617D" d="M214.962,18.863h1.314v1.194h-1.314V18.863z M215.078,21.392h1.093v5.821h-1.093V21.392z"/>
			<path fill="#09617D" d="M218.289,22.169l-0.023-0.777h1.104v0.847c0.558-0.916,1.349-0.997,1.849-0.997
				c1.291,0,1.698,0.661,1.907,1.09c0.198-0.325,0.674-1.09,1.965-1.09c0.837,0,2.139,0.348,2.139,2.063v3.908h-1.104V23.48
				c0-0.511-0.093-0.731-0.197-0.882c-0.187-0.267-0.559-0.51-1.116-0.51c-0.709,0-1.093,0.405-1.244,0.614
				c-0.256,0.359-0.256,0.997-0.256,1.252v3.259h-1.104v-3.85c0-0.719-0.419-1.275-1.279-1.275c-0.744,0-1.151,0.464-1.279,0.638
				c-0.244,0.336-0.256,0.812-0.256,1.183v3.305h-1.104V22.169z"/>
			<path fill="#09617D" d="M228.398,21.392h1.221l1.86,4.615l1.814-4.615h1.209l-2.558,5.821h-1.105L228.398,21.392z"/>
			<path fill="#09617D" d="M239.308,27.213c-0.082-0.29-0.104-0.568-0.104-0.869c-0.523,0.962-1.314,1.055-1.802,1.055
				c-1.337,0-2.058-0.754-2.058-1.716c0-0.464,0.163-1.206,1.023-1.705c0.627-0.348,1.558-0.383,2.023-0.383
				c0.279,0,0.454,0.012,0.791,0.035c0-0.719,0-1.032-0.209-1.287c-0.221-0.29-0.698-0.383-1.012-0.383
				c-1.104,0-1.163,0.754-1.174,0.985h-1.093c0.035-0.301,0.07-0.707,0.407-1.102c0.442-0.487,1.267-0.626,1.883-0.626
				c0.849,0,1.756,0.267,2.07,0.858c0.186,0.348,0.198,0.626,0.198,0.893l-0.046,2.783c0,0.093,0.011,0.87,0.093,1.461H239.308z
				 M238.552,24.349c-0.442,0-2.104,0-2.104,1.183c0,0.371,0.233,1.01,1.209,1.01c0.558,0,0.977-0.221,1.244-0.627
				c0.244-0.394,0.256-0.719,0.279-1.53C238.982,24.361,238.819,24.349,238.552,24.349z"/>
			<path fill="#09617D" d="M242.845,25.486c-0.011,0.44,0.221,1.056,1.279,1.056c0.453,0,0.791-0.082,1.023-0.371
				c0.116-0.151,0.186-0.349,0.186-0.546c0-0.567-0.407-0.672-1.279-0.869c-1.221-0.278-2.244-0.522-2.244-1.739
				c0-1.067,0.93-1.763,2.279-1.763c0.732,0,1.756,0.208,2.104,0.904c0.151,0.324,0.151,0.603,0.151,0.847h-1.116
				c0.035-0.882-0.732-0.951-1.128-0.951c-0.163,0-1.186,0-1.186,0.835c0,0.533,0.523,0.661,0.826,0.742
				c1.616,0.383,1.965,0.476,2.314,0.8c0.325,0.302,0.442,0.708,0.442,1.079c0,0.649-0.361,1.206-0.791,1.473
				c-0.512,0.313-1.128,0.395-1.732,0.395c-1.186,0-2.291-0.487-2.279-1.891H242.845z"/>
			<path fill="#09617D" d="M247.139,21.368h1.035v-1.218l1.082-0.348v1.565h1.302v0.801h-1.302v3.49c0,0.29,0,0.777,0.779,0.777
				c0.221,0,0.43-0.035,0.523-0.059v0.847c-0.198,0.035-0.512,0.069-0.907,0.069c-1,0-1.477-0.289-1.477-1.24v-3.885h-1.035V21.368z
				"/>
			<path fill="#09617D" d="M255.465,27.213c-0.082-0.29-0.104-0.568-0.104-0.869c-0.523,0.962-1.314,1.055-1.802,1.055
				c-1.337,0-2.058-0.754-2.058-1.716c0-0.464,0.163-1.206,1.023-1.705c0.627-0.348,1.558-0.383,2.023-0.383
				c0.279,0,0.454,0.012,0.791,0.035c0-0.719,0-1.032-0.209-1.287c-0.221-0.29-0.698-0.383-1.012-0.383
				c-1.104,0-1.163,0.754-1.174,0.985h-1.093c0.035-0.301,0.07-0.707,0.407-1.102c0.442-0.487,1.267-0.626,1.884-0.626
				c0.849,0,1.755,0.267,2.069,0.858c0.186,0.348,0.198,0.626,0.198,0.893l-0.046,2.783c0,0.093,0.012,0.87,0.093,1.461H255.465z
				 M254.709,24.349c-0.442,0-2.104,0-2.104,1.183c0,0.371,0.232,1.01,1.209,1.01c0.558,0,0.977-0.221,1.244-0.627
				c0.244-0.394,0.256-0.719,0.279-1.53C255.14,24.361,254.977,24.349,254.709,24.349z"/>
			<path fill="#09617D" d="M257.48,21.368h1.035v-1.218l1.082-0.348v1.565h1.302v0.801h-1.302v3.49c0,0.29,0,0.777,0.779,0.777
				c0.221,0,0.43-0.035,0.523-0.059v0.847c-0.198,0.035-0.512,0.069-0.907,0.069c-1,0-1.477-0.289-1.477-1.24v-3.885h-1.035V21.368z
				"/>
			<path fill="#09617D" d="M262.144,18.863h1.314v1.194h-1.314V18.863z M262.261,21.392h1.093v5.821h-1.093V21.392z"/>
			<path fill="#09617D" d="M265.518,22.065l-0.012-0.673h1.093l0.012,0.939c0.128-0.243,0.547-1.056,1.872-1.056
				c0.523,0,2.116,0.197,2.116,1.983v3.954h-1.116v-3.699c0-0.383-0.046-0.73-0.314-0.997c-0.279-0.267-0.663-0.395-1.035-0.395
				c-0.791,0-1.523,0.568-1.523,1.739v3.352h-1.093V22.065z"/>
		</g>
		<g clip-path="url(#SVGID_8_)">
			<path fill="#09617D" d="M287.044,11.881h1.244l3.396,8.373h-1.268l-0.907-2.18h-3.896l-0.907,2.18h-1.198L287.044,11.881z
				 M285.986,17.134h3.174l-1.546-4.105L285.986,17.134z"/>
			<path fill="#09617D" d="M297.652,14.143c-0.046-0.29-0.198-1.45-1.814-1.45c-2.023,0-2.383,2.064-2.383,3.456
				c0,1.577,0.453,3.282,2.372,3.282c0.512,0,1-0.127,1.36-0.498c0.303-0.325,0.372-0.685,0.407-0.882h1.279
				c-0.174,1.646-1.697,2.331-3.139,2.331c-2.953,0-3.523-2.598-3.523-4.222c0-1.763,0.686-4.395,3.674-4.395
				c1.186,0,2.86,0.476,3.012,2.377H297.652z"/>
			<path fill="#09617D" d="M305.178,14.143c-0.046-0.29-0.198-1.45-1.814-1.45c-2.023,0-2.383,2.064-2.383,3.456
				c0,1.577,0.453,3.282,2.372,3.282c0.512,0,1-0.127,1.36-0.498c0.303-0.325,0.372-0.685,0.407-0.882h1.279
				c-0.174,1.646-1.697,2.331-3.139,2.331c-2.953,0-3.523-2.598-3.523-4.222c0-1.763,0.686-4.395,3.674-4.395
				c1.186,0,2.86,0.476,3.012,2.377H305.178z"/>
			<path fill="#09617D" d="M309.24,11.986h0.756l-2.709,8.454h-0.767L309.24,11.986z"/>
			<path fill="#09617D" d="M313.264,11.881h1.244l3.395,8.373h-1.267l-0.907-2.18h-3.896l-0.907,2.18h-1.198L313.264,11.881z
				 M312.206,17.134h3.174l-1.546-4.105L312.206,17.134z"/>
			<path fill="#09617D" d="M319.977,11.881v3.595h3.988v-3.595h1.163v8.373h-1.163v-3.781h-3.988v3.781h-1.163v-8.373H319.977z"/>
			<path fill="#09617D" d="M329.597,11.881h1.244l3.396,8.373h-1.268l-0.907-2.18h-3.896l-0.907,2.18h-1.198L329.597,11.881z
				 M328.538,17.134h3.174l-1.546-4.105L328.538,17.134z"/>
			<path fill="#09617D" d="M339.194,20.706c0.046,0.649,0.325,1.137,1.36,1.137c1.523,0,1.546-1.102,1.546-2.679
				c-0.465,0.963-1.57,0.985-1.918,0.985c-0.535,0-1.302-0.115-1.791-0.719c-0.5-0.591-0.663-1.368-0.663-2.146
				c0-1.971,1.163-2.934,2.593-2.934c1.174,0,1.605,0.58,1.837,0.881l0.012-0.8h1.058l-0.023,1.056l-0.012,3.641
				c0,1.403-0.046,1.972-0.279,2.412c-0.488,0.928-1.628,1.044-2.43,1.044c-2.337,0-2.407-1.09-2.454-1.879H339.194z
				 M341.741,18.758c0.232-0.301,0.395-0.614,0.395-1.67c0-0.73-0.163-1.148-0.453-1.45c-0.291-0.313-0.756-0.51-1.256-0.51
				c-1.384,0-1.57,1.392-1.57,2.134c0,0.893,0.268,2.076,1.604,2.076C341.101,19.338,341.473,19.107,341.741,18.758z"/>
			<path fill="#09617D" d="M346.022,14.432v3.747c0,0.568,0.128,1.287,1.244,1.287c0.547,0,1.058-0.186,1.372-0.649
				c0.244-0.348,0.244-0.801,0.244-1.09v-3.294h1.128v4.732c0,0.116,0.023,0.766,0.035,1.09h-1.14l-0.023-0.997
				c-0.209,0.406-0.604,1.056-1.86,1.056c-1.441,0-2.116-0.823-2.116-1.972v-3.909H346.022z"/>
			<path fill="#09617D" d="M351.793,11.904h1.314v1.194h-1.314V11.904z M351.909,14.432h1.093v5.822h-1.093V14.432z"/>
			<path fill="#09617D" d="M358.945,11.893h1.093v7.434c0,0.128,0.023,0.627,0.046,0.928h-1.093l-0.023-0.928
				c-0.093,0.163-0.221,0.406-0.523,0.615c-0.477,0.324-1.046,0.429-1.441,0.429c-0.779,0-2.512-0.406-2.512-2.958
				c0-2.215,1.268-3.177,2.64-3.177c1.255,0,1.674,0.742,1.813,0.986V11.893z M358.538,15.638c-0.232-0.301-0.663-0.591-1.279-0.591
				c-1.604,0-1.604,1.937-1.604,2.331c0,1.032,0.268,2.227,1.604,2.227c1.721,0,1.721-1.89,1.721-2.342
				C358.98,16.416,358.783,15.952,358.538,15.638z"/>
			<path fill="#09617D" d="M362.437,17.541c-0.023,1.207,0.477,2.099,1.674,2.099c0.709,0,1.279-0.371,1.372-1.206h1.093
				c-0.035,0.29-0.082,0.766-0.5,1.218c-0.256,0.29-0.837,0.776-2.011,0.776c-1.837,0-2.709-1.136-2.709-2.98
				c0-1.148,0.232-2.099,1.151-2.737c0.558-0.394,1.255-0.429,1.593-0.429c2.616,0,2.558,2.308,2.535,3.259H362.437z
				 M365.518,16.775c0.012-0.557-0.093-1.716-1.442-1.716c-0.709,0-1.569,0.429-1.593,1.716H365.518z"/>
			<path fill="#09617D" d="M368.033,11.893h1.093v8.361h-1.093V11.893z"/>
			<path fill="#09617D" d="M370.906,11.904h1.314v1.194h-1.314V11.904z M371.022,14.432h1.093v5.822h-1.093V14.432z"/>
			<path fill="#09617D" d="M374.047,15.105l-0.012-0.673h1.093l0.012,0.939c0.128-0.243,0.547-1.055,1.872-1.055
				c0.523,0,2.116,0.197,2.116,1.983v3.955h-1.116v-3.699c0-0.383-0.046-0.731-0.314-0.998c-0.279-0.267-0.663-0.394-1.035-0.394
				c-0.791,0-1.523,0.568-1.523,1.739v3.352h-1.093V15.105z"/>
			<path fill="#09617D" d="M381.55,17.541c-0.023,1.207,0.477,2.099,1.674,2.099c0.709,0,1.279-0.371,1.372-1.206h1.093
				c-0.035,0.29-0.082,0.766-0.5,1.218c-0.256,0.29-0.837,0.776-2.011,0.776c-1.837,0-2.709-1.136-2.709-2.98
				c0-1.148,0.233-2.099,1.151-2.737c0.558-0.394,1.255-0.429,1.593-0.429c2.616,0,2.558,2.308,2.535,3.259H381.55z M384.631,16.775
				c0.012-0.557-0.093-1.716-1.442-1.716c-0.709,0-1.569,0.429-1.593,1.716H384.631z"/>
			<path fill="#09617D" d="M387.75,18.527c-0.011,0.44,0.221,1.056,1.279,1.056c0.453,0,0.791-0.082,1.023-0.371
				c0.116-0.151,0.186-0.349,0.186-0.546c0-0.567-0.407-0.672-1.279-0.87c-1.221-0.278-2.244-0.522-2.244-1.739
				c0-1.067,0.93-1.763,2.279-1.763c0.732,0,1.756,0.208,2.104,0.904c0.151,0.325,0.151,0.603,0.151,0.847h-1.116
				c0.035-0.881-0.732-0.951-1.128-0.951c-0.163,0-1.186,0-1.186,0.835c0,0.534,0.523,0.661,0.826,0.742
				c1.616,0.383,1.965,0.476,2.314,0.8c0.325,0.301,0.442,0.708,0.442,1.079c0,0.649-0.361,1.206-0.791,1.473
				c-0.512,0.313-1.128,0.395-1.732,0.395c-1.186,0-2.291-0.487-2.279-1.891H387.75z"/>
			<path fill="#09617D" d="M392.647,14.375h1.291v1.368h-1.291V14.375z M392.647,18.886h1.291v1.368h-1.291V18.886z"/>
		</g>
		<g clip-path="url(#SVGID_8_)">
			<path fill="#09617D" d="M288.656,32.444c-0.011,0.44,0.221,1.056,1.279,1.056c0.453,0,0.791-0.082,1.023-0.371
				c0.116-0.151,0.186-0.349,0.186-0.546c0-0.567-0.407-0.672-1.279-0.869c-1.221-0.278-2.244-0.522-2.244-1.739
				c0-1.067,0.93-1.763,2.279-1.763c0.732,0,1.756,0.208,2.104,0.904c0.151,0.324,0.151,0.603,0.151,0.847h-1.116
				c0.035-0.882-0.732-0.951-1.128-0.951c-0.163,0-1.186,0-1.186,0.835c0,0.533,0.523,0.661,0.826,0.742
				c1.616,0.383,1.965,0.476,2.314,0.8c0.325,0.302,0.442,0.708,0.442,1.079c0,0.649-0.361,1.206-0.791,1.473
				c-0.512,0.313-1.128,0.395-1.732,0.395c-1.186,0-2.291-0.487-2.279-1.891H288.656z"/>
			<path fill="#09617D" d="M292.949,28.326h1.035v-1.218l1.082-0.348v1.565h1.302v0.801h-1.302v3.49c0,0.29,0,0.777,0.779,0.777
				c0.221,0,0.43-0.035,0.523-0.059v0.847c-0.198,0.035-0.512,0.069-0.907,0.069c-1,0-1.477-0.289-1.477-1.24v-3.885h-1.035V28.326z
				"/>
			<path fill="#09617D" d="M301.276,34.171c-0.082-0.29-0.104-0.568-0.104-0.869c-0.523,0.962-1.314,1.055-1.802,1.055
				c-1.337,0-2.058-0.754-2.058-1.716c0-0.464,0.163-1.206,1.023-1.705c0.627-0.348,1.558-0.383,2.023-0.383
				c0.279,0,0.454,0.012,0.791,0.035c0-0.719,0-1.032-0.209-1.287c-0.221-0.29-0.698-0.383-1.012-0.383
				c-1.104,0-1.163,0.754-1.174,0.985h-1.093c0.035-0.301,0.07-0.707,0.407-1.102c0.442-0.487,1.267-0.626,1.884-0.626
				c0.849,0,1.755,0.267,2.069,0.858c0.186,0.348,0.198,0.626,0.198,0.893l-0.046,2.783c0,0.093,0.012,0.87,0.093,1.461H301.276z
				 M300.52,31.307c-0.442,0-2.104,0-2.104,1.183c0,0.371,0.232,1.01,1.209,1.01c0.558,0,0.977-0.221,1.244-0.627
				c0.244-0.394,0.256-0.719,0.279-1.53C300.95,31.319,300.788,31.307,300.52,31.307z"/>
			<path fill="#09617D" d="M303.291,28.326h1.035v-1.218l1.082-0.348v1.565h1.302v0.801h-1.302v3.49c0,0.29,0,0.777,0.779,0.777
				c0.221,0,0.43-0.035,0.523-0.059v0.847c-0.198,0.035-0.512,0.069-0.907,0.069c-1,0-1.477-0.289-1.477-1.24v-3.885h-1.035V28.326z
				"/>
			<path fill="#09617D" d="M307.955,25.821h1.314v1.194h-1.314V25.821z M308.071,28.35h1.093v5.821h-1.093V28.35z"/>
			<path fill="#09617D" d="M311.329,29.023l-0.012-0.673h1.093l0.012,0.939c0.128-0.243,0.547-1.056,1.872-1.056
				c0.523,0,2.116,0.197,2.116,1.983v3.954h-1.116v-3.699c0-0.383-0.046-0.73-0.314-0.997c-0.279-0.267-0.663-0.395-1.035-0.395
				c-0.791,0-1.523,0.568-1.523,1.739v3.352h-1.093V29.023z"/>
			<path fill="#09617D" d="M325.682,25.81h1.093v7.434c0,0.128,0.023,0.627,0.046,0.928h-1.093l-0.023-0.928
				c-0.093,0.163-0.221,0.406-0.523,0.615c-0.477,0.324-1.046,0.429-1.441,0.429c-0.779,0-2.512-0.406-2.512-2.957
				c0-2.215,1.268-3.178,2.639-3.178c1.256,0,1.675,0.742,1.814,0.986V25.81z M325.275,29.556c-0.232-0.302-0.663-0.592-1.279-0.592
				c-1.604,0-1.604,1.938-1.604,2.331c0,1.032,0.268,2.227,1.604,2.227c1.721,0,1.721-1.89,1.721-2.342
				C325.717,30.333,325.519,29.869,325.275,29.556z"/>
			<path fill="#09617D" d="M331.278,28.199c2.337,0,2.86,1.832,2.86,3.05c0,1.704-0.965,3.119-2.954,3.119
				c-1.93,0-2.872-1.333-2.872-3.038C328.312,29.892,328.987,28.199,331.278,28.199z M331.208,33.557
				c0.825,0,1.767-0.592,1.767-2.343c0-1.449-0.674-2.215-1.697-2.215c-0.698,0-1.826,0.44-1.826,2.262
				C329.452,32.455,329.964,33.557,331.208,33.557z"/>
			<path fill="#09617D" d="M336.478,32.444c-0.011,0.44,0.221,1.056,1.279,1.056c0.453,0,0.791-0.082,1.023-0.371
				c0.116-0.151,0.186-0.349,0.186-0.546c0-0.567-0.407-0.672-1.279-0.869c-1.221-0.278-2.244-0.522-2.244-1.739
				c0-1.067,0.93-1.763,2.279-1.763c0.733,0,1.756,0.208,2.104,0.904c0.151,0.324,0.151,0.603,0.151,0.847h-1.116
				c0.035-0.882-0.732-0.951-1.128-0.951c-0.163,0-1.186,0-1.186,0.835c0,0.533,0.523,0.661,0.826,0.742
				c1.616,0.383,1.965,0.476,2.314,0.8c0.325,0.302,0.441,0.708,0.441,1.079c0,0.649-0.36,1.206-0.791,1.473
				c-0.511,0.313-1.128,0.395-1.732,0.395c-1.186,0-2.291-0.487-2.279-1.891H336.478z"/>
			<path fill="#09617D" d="M342.33,31.458c-0.023,1.206,0.477,2.099,1.674,2.099c0.709,0,1.279-0.371,1.372-1.206h1.093
				c-0.035,0.29-0.082,0.766-0.5,1.218c-0.256,0.29-0.837,0.776-2.011,0.776c-1.837,0-2.709-1.136-2.709-2.979
				c0-1.148,0.232-2.1,1.151-2.737c0.558-0.395,1.255-0.429,1.593-0.429c2.616,0,2.558,2.308,2.535,3.259H342.33z M345.411,30.693
				c0.012-0.557-0.093-1.717-1.442-1.717c-0.709,0-1.569,0.43-1.593,1.717H345.411z"/>
			<path fill="#09617D" d="M348.763,32.444c-0.011,0.44,0.221,1.056,1.279,1.056c0.453,0,0.791-0.082,1.023-0.371
				c0.116-0.151,0.186-0.349,0.186-0.546c0-0.567-0.407-0.672-1.279-0.869c-1.221-0.278-2.244-0.522-2.244-1.739
				c0-1.067,0.93-1.763,2.279-1.763c0.733,0,1.756,0.208,2.104,0.904c0.151,0.324,0.151,0.603,0.151,0.847h-1.116
				c0.035-0.882-0.732-0.951-1.128-0.951c-0.163,0-1.186,0-1.186,0.835c0,0.533,0.523,0.661,0.826,0.742
				c1.616,0.383,1.965,0.476,2.314,0.8c0.325,0.302,0.441,0.708,0.441,1.079c0,0.649-0.36,1.206-0.791,1.473
				c-0.511,0.313-1.128,0.395-1.732,0.395c-1.186,0-2.291-0.487-2.279-1.891H348.763z"/>
		</g>
		<g clip-path="url(#SVGID_8_)">
			<path fill="#09617D" d="M354.762,26.365c-0.292,0.243-0.759,0.521-1.091,0.676v-0.676c0.44-0.23,0.874-0.514,1.138-0.737h0.603
				v4.678h-0.65V26.365z"/>
			<path fill="#09617D" d="M359.352,26.737c-0.007-0.548-0.413-0.696-0.711-0.696c-0.677,0-0.976,0.581-1.037,1.824
				c0.149-0.216,0.407-0.595,1.091-0.595c0.766,0,1.416,0.507,1.416,1.501c0,1.088-0.779,1.636-1.585,1.636
				c-0.454,0-0.908-0.183-1.158-0.507c-0.346-0.46-0.427-1.129-0.427-1.724c0-1.021,0.25-2.644,1.734-2.644
				c0.616,0,0.962,0.271,1.125,0.446c0.237,0.277,0.244,0.575,0.25,0.758H359.352z M359.46,28.832c0-0.331-0.095-1.041-0.874-1.041
				c-0.63,0-0.935,0.514-0.935,1.048c0,0.608,0.379,1.055,0.901,1.055C358.973,29.894,359.46,29.596,359.46,28.832z"/>
		</g>
		<g clip-path="url(#SVGID_8_)">
			<path fill="#09617D" d="M289.188,48.458v3.595h3.988v-3.595h1.163v8.372h-1.163v-3.78h-3.988v3.78h-1.163v-8.372H289.188z"/>
			<path fill="#09617D" d="M296.319,48.481h1.314v1.194h-1.314V48.481z M296.435,51.009h1.093v5.821h-1.093V51.009z"/>
			<path fill="#09617D" d="M300.704,57.282c0.046,0.649,0.325,1.137,1.36,1.137c1.523,0,1.546-1.102,1.546-2.679
				c-0.465,0.963-1.57,0.985-1.918,0.985c-0.535,0-1.302-0.115-1.791-0.719c-0.5-0.591-0.663-1.368-0.663-2.146
				c0-1.971,1.163-2.934,2.593-2.934c1.174,0,1.605,0.58,1.837,0.881l0.012-0.8h1.058l-0.023,1.056l-0.012,3.641
				c0,1.403-0.046,1.972-0.279,2.412c-0.488,0.928-1.628,1.044-2.43,1.044c-2.337,0-2.407-1.09-2.454-1.879H300.704z
				 M303.251,55.334c0.232-0.301,0.395-0.614,0.395-1.67c0-0.73-0.163-1.147-0.453-1.449c-0.291-0.313-0.756-0.51-1.256-0.51
				c-1.384,0-1.57,1.392-1.57,2.134c0,0.893,0.268,2.075,1.604,2.075C302.611,55.914,302.983,55.683,303.251,55.334z"/>
			<path fill="#09617D" d="M306.765,48.469h1.105v3.398c0.36-0.615,1.081-0.963,1.895-0.963c0.616,0,1.5,0.221,1.837,0.928
				c0.117,0.232,0.198,0.511,0.198,1.357v3.641h-1.116v-3.444c0-0.521,0-1.646-1.255-1.646c-0.814,0-1.221,0.499-1.372,0.777
				c-0.186,0.324-0.186,0.869-0.186,1.229v3.084h-1.105V48.469z"/>
			<path fill="#09617D" d="M317.002,48.481h1.314v1.194h-1.314V48.481z M317.119,51.009h1.093v5.821h-1.093V51.009z"/>
			<path fill="#09617D" d="M320.376,51.682l-0.012-0.673h1.093l0.011,0.939c0.128-0.243,0.546-1.056,1.872-1.056
				c0.523,0,2.116,0.197,2.116,1.983v3.954h-1.116v-3.699c0-0.383-0.046-0.73-0.314-0.997c-0.279-0.267-0.663-0.395-1.035-0.395
				c-0.791,0-1.523,0.568-1.523,1.739v3.352h-1.093V51.682z"/>
			<path fill="#09617D" d="M326.553,50.986h1.035v-1.218l1.082-0.348v1.565h1.302v0.801h-1.302v3.49c0,0.29,0,0.777,0.779,0.777
				c0.221,0,0.43-0.035,0.523-0.059v0.847c-0.198,0.035-0.512,0.069-0.907,0.069c-1,0-1.477-0.289-1.477-1.24v-3.885h-1.035V50.986z
				"/>
			<path fill="#09617D" d="M331.985,54.117c-0.023,1.206,0.477,2.099,1.674,2.099c0.709,0,1.279-0.371,1.372-1.206h1.093
				c-0.035,0.29-0.082,0.766-0.5,1.218c-0.256,0.29-0.837,0.776-2.011,0.776c-1.837,0-2.709-1.136-2.709-2.979
				c0-1.148,0.232-2.1,1.151-2.737c0.558-0.395,1.255-0.429,1.593-0.429c2.616,0,2.558,2.308,2.535,3.259H331.985z M335.066,53.352
				c0.012-0.557-0.093-1.717-1.442-1.717c-0.709,0-1.569,0.43-1.593,1.717H335.066z"/>
			<path fill="#09617D" d="M337.825,51.682l-0.012-0.673h1.093l0.011,0.939c0.128-0.243,0.546-1.056,1.872-1.056
				c0.523,0,2.116,0.197,2.116,1.983v3.954h-1.116v-3.699c0-0.383-0.046-0.73-0.314-0.997c-0.279-0.267-0.663-0.395-1.035-0.395
				c-0.791,0-1.523,0.568-1.523,1.739v3.352h-1.093V51.682z"/>
			<path fill="#09617D" d="M345.525,55.103c-0.011,0.44,0.221,1.056,1.279,1.056c0.453,0,0.791-0.082,1.023-0.371
				c0.116-0.151,0.186-0.349,0.186-0.546c0-0.567-0.407-0.672-1.279-0.869c-1.221-0.278-2.244-0.522-2.244-1.739
				c0-1.067,0.93-1.763,2.279-1.763c0.733,0,1.756,0.208,2.104,0.904c0.151,0.324,0.151,0.603,0.151,0.847h-1.116
				c0.035-0.882-0.732-0.951-1.128-0.951c-0.163,0-1.186,0-1.186,0.835c0,0.533,0.523,0.661,0.826,0.742
				c1.616,0.383,1.965,0.476,2.314,0.8c0.325,0.302,0.441,0.708,0.441,1.079c0,0.649-0.36,1.206-0.791,1.473
				c-0.511,0.313-1.128,0.395-1.732,0.395c-1.186,0-2.291-0.487-2.279-1.891H345.525z"/>
			<path fill="#09617D" d="M350.61,48.481h1.314v1.194h-1.314V48.481z M350.726,51.009h1.093v5.821h-1.093V51.009z"/>
			<path fill="#09617D" d="M353.053,50.986h1.035v-1.218l1.082-0.348v1.565h1.302v0.801h-1.302v3.49c0,0.29,0,0.777,0.779,0.777
				c0.221,0,0.43-0.035,0.523-0.059v0.847c-0.198,0.035-0.512,0.069-0.907,0.069c-1,0-1.477-0.289-1.477-1.24v-3.885h-1.035V50.986z
				"/>
			<path fill="#09617D" d="M360.45,56.865l-0.837,2.169h-1.128l0.884-2.227l-2.43-5.799h1.232l1.825,4.593l1.86-4.593h1.186
				L360.45,56.865z"/>
		</g>
		<g clip-path="url(#SVGID_8_)">
			<path fill="#09617D" d="M288.048,77.929h2.058l2.372,6.899l2.43-6.899h1.918v8.372h-1.14v-7.537l-2.756,7.537h-1.104
				l-2.651-7.491v7.491h-1.128V77.929z"/>
			<path fill="#09617D" d="M301.541,80.329c2.337,0,2.86,1.832,2.86,3.05c0,1.704-0.965,3.119-2.954,3.119
				c-1.93,0-2.872-1.333-2.872-3.038C298.576,82.022,299.251,80.329,301.541,80.329z M301.472,85.687
				c0.825,0,1.767-0.592,1.767-2.343c0-1.449-0.674-2.215-1.697-2.215c-0.698,0-1.826,0.44-1.826,2.262
				C299.716,84.585,300.227,85.687,301.472,85.687z"/>
			<path fill="#09617D" d="M310.16,77.94h1.093v7.434c0,0.128,0.023,0.627,0.046,0.928h-1.093l-0.023-0.928
				c-0.093,0.163-0.221,0.406-0.523,0.615c-0.477,0.324-1.046,0.429-1.441,0.429c-0.779,0-2.512-0.406-2.512-2.957
				c0-2.215,1.268-3.178,2.639-3.178c1.256,0,1.675,0.742,1.814,0.986V77.94z M309.753,81.686c-0.232-0.302-0.663-0.592-1.279-0.592
				c-1.604,0-1.604,1.938-1.604,2.331c0,1.032,0.268,2.227,1.604,2.227c1.721,0,1.721-1.89,1.721-2.342
				C310.195,82.463,309.997,81.999,309.753,81.686z"/>
			<path fill="#09617D" d="M313.885,83.588c-0.023,1.206,0.477,2.099,1.674,2.099c0.709,0,1.279-0.371,1.372-1.206h1.093
				c-0.035,0.29-0.082,0.766-0.5,1.218c-0.256,0.29-0.837,0.776-2.011,0.776c-1.837,0-2.709-1.136-2.709-2.979
				c0-1.148,0.232-2.1,1.151-2.737c0.558-0.395,1.255-0.429,1.593-0.429c2.616,0,2.558,2.308,2.535,3.259H313.885z M316.966,82.822
				c0.012-0.557-0.093-1.717-1.442-1.717c-0.709,0-1.569,0.43-1.593,1.717H316.966z"/>
			<path fill="#09617D" d="M319.748,81.662c0-0.394-0.023-0.8-0.058-1.183h1.104l0.023,1.125c0.209-0.812,0.907-1.078,1.396-1.148
				c0.326-0.046,0.57-0.034,0.756-0.022V81.5c-0.058-0.023-0.128-0.035-0.209-0.046c-0.082-0.012-0.186-0.012-0.314-0.012
				c-1.291,0-1.593,0.765-1.593,1.763v3.096h-1.104V81.662z"/>
			<path fill="#09617D" d="M327.772,86.301c-0.082-0.29-0.104-0.568-0.104-0.869c-0.523,0.962-1.314,1.055-1.802,1.055
				c-1.337,0-2.058-0.754-2.058-1.716c0-0.464,0.163-1.206,1.023-1.705c0.627-0.348,1.558-0.383,2.023-0.383
				c0.279,0,0.454,0.012,0.791,0.035c0-0.719,0-1.032-0.209-1.287c-0.221-0.29-0.698-0.383-1.012-0.383
				c-1.104,0-1.163,0.754-1.174,0.985h-1.093c0.035-0.301,0.07-0.707,0.407-1.102c0.442-0.487,1.267-0.626,1.883-0.626
				c0.849,0,1.756,0.267,2.07,0.858c0.186,0.348,0.198,0.626,0.198,0.893l-0.046,2.783c0,0.093,0.011,0.87,0.093,1.461H327.772z
				 M327.017,83.437c-0.442,0-2.104,0-2.104,1.183c0,0.371,0.233,1.01,1.209,1.01c0.558,0,0.977-0.221,1.244-0.627
				c0.244-0.394,0.256-0.719,0.279-1.53C327.447,83.448,327.284,83.437,327.017,83.437z"/>
			<path fill="#09617D" d="M329.788,80.456h1.035v-1.218l1.082-0.348v1.565h1.302v0.801h-1.302v3.49c0,0.29,0,0.777,0.779,0.777
				c0.221,0,0.43-0.035,0.523-0.059v0.847c-0.198,0.035-0.512,0.069-0.907,0.069c-1,0-1.477-0.289-1.477-1.24v-3.885h-1.035V80.456z
				"/>
			<path fill="#09617D" d="M335.219,83.588c-0.023,1.206,0.477,2.099,1.674,2.099c0.709,0,1.279-0.371,1.372-1.206h1.093
				c-0.035,0.29-0.082,0.766-0.5,1.218c-0.256,0.29-0.837,0.776-2.011,0.776c-1.837,0-2.709-1.136-2.709-2.979
				c0-1.148,0.233-2.1,1.151-2.737c0.558-0.395,1.255-0.429,1.593-0.429c2.616,0,2.558,2.308,2.535,3.259H335.219z M338.3,82.822
				c0.012-0.557-0.093-1.717-1.442-1.717c-0.709,0-1.569,0.43-1.593,1.717H338.3z"/>
			<path fill="#09617D" d="M344.153,77.951h1.314v1.194h-1.314V77.951z M344.269,80.48h1.093v5.821h-1.093V80.48z"/>
			<path fill="#09617D" d="M347.527,81.152l-0.012-0.673h1.093l0.012,0.939c0.128-0.243,0.547-1.056,1.872-1.056
				c0.523,0,2.116,0.197,2.116,1.983v3.954h-1.116v-3.699c0-0.383-0.046-0.73-0.314-0.997c-0.279-0.267-0.663-0.395-1.035-0.395
				c-0.791,0-1.523,0.568-1.523,1.739v3.352h-1.093V81.152z"/>
			<path fill="#09617D" d="M353.704,80.456h1.035v-1.218l1.082-0.348v1.565h1.302v0.801h-1.302v3.49c0,0.29,0,0.777,0.779,0.777
				c0.221,0,0.43-0.035,0.523-0.059v0.847c-0.198,0.035-0.512,0.069-0.907,0.069c-1,0-1.477-0.289-1.477-1.24v-3.885h-1.035V80.456z
				"/>
			<path fill="#09617D" d="M359.136,83.588c-0.023,1.206,0.477,2.099,1.674,2.099c0.709,0,1.279-0.371,1.372-1.206h1.093
				c-0.035,0.29-0.082,0.766-0.5,1.218c-0.256,0.29-0.837,0.776-2.011,0.776c-1.837,0-2.709-1.136-2.709-2.979
				c0-1.148,0.233-2.1,1.151-2.737c0.558-0.395,1.255-0.429,1.593-0.429c2.616,0,2.558,2.308,2.535,3.259H359.136z M362.217,82.822
				c0.012-0.557-0.093-1.717-1.442-1.717c-0.709,0-1.569,0.43-1.593,1.717H362.217z"/>
			<path fill="#09617D" d="M364.976,81.152l-0.012-0.673h1.093l0.012,0.939c0.128-0.243,0.547-1.056,1.872-1.056
				c0.523,0,2.116,0.197,2.116,1.983v3.954h-1.116v-3.699c0-0.383-0.046-0.73-0.314-0.997c-0.279-0.267-0.663-0.395-1.035-0.395
				c-0.791,0-1.523,0.568-1.523,1.739v3.352h-1.093V81.152z"/>
			<path fill="#09617D" d="M372.677,84.573c-0.011,0.44,0.221,1.056,1.279,1.056c0.453,0,0.791-0.082,1.023-0.371
				c0.116-0.151,0.186-0.349,0.186-0.546c0-0.567-0.407-0.672-1.279-0.869c-1.221-0.278-2.244-0.522-2.244-1.739
				c0-1.067,0.93-1.763,2.279-1.763c0.733,0,1.756,0.208,2.104,0.904c0.151,0.324,0.151,0.603,0.151,0.847h-1.116
				c0.035-0.882-0.732-0.951-1.128-0.951c-0.163,0-1.186,0-1.186,0.835c0,0.533,0.523,0.661,0.826,0.742
				c1.616,0.383,1.965,0.476,2.314,0.8c0.325,0.302,0.441,0.708,0.441,1.079c0,0.649-0.36,1.206-0.791,1.473
				c-0.511,0.313-1.128,0.395-1.732,0.395c-1.186,0-2.291-0.487-2.279-1.891H372.677z"/>
			<path fill="#09617D" d="M377.761,77.951h1.314v1.194h-1.314V77.951z M377.877,80.48h1.093v5.821h-1.093V80.48z"/>
			<path fill="#09617D" d="M380.204,80.456h1.035v-1.218l1.082-0.348v1.565h1.302v0.801h-1.302v3.49c0,0.29,0,0.777,0.779,0.777
				c0.221,0,0.43-0.035,0.523-0.059v0.847c-0.198,0.035-0.512,0.069-0.907,0.069c-1,0-1.477-0.289-1.477-1.24v-3.885h-1.035V80.456z
				"/>
			<path fill="#09617D" d="M387.6,86.336l-0.837,2.169h-1.128l0.884-2.227l-2.43-5.799h1.232l1.825,4.593l1.86-4.593h1.186
				L387.6,86.336z"/>
		</g>
		<g clip-path="url(#SVGID_8_)">
			<path fill="#09617D" d="M288.048,108.465h1.093v8.361h-1.093V108.465z"/>
			<path fill="#09617D" d="M293.794,110.855c2.337,0,2.86,1.832,2.86,3.05c0,1.704-0.965,3.119-2.953,3.119
				c-1.93,0-2.872-1.333-2.872-3.038C290.829,112.547,291.503,110.855,293.794,110.855z M293.724,116.212
				c0.825,0,1.767-0.592,1.767-2.343c0-1.449-0.674-2.215-1.697-2.215c-0.698,0-1.826,0.44-1.826,2.262
				C291.968,115.111,292.48,116.212,293.724,116.212z"/>
			<path fill="#09617D" d="M298.681,111.005l1.407,4.639l1.477-4.639h1.43l1.325,4.593l1.465-4.593h1.128l-2.058,5.821h-1.256
				l-1.372-4.789l-1.523,4.789h-1.291l-1.93-5.821H298.681z"/>
			<path fill="#09617D" d="M311.186,108.477h1.314v1.194h-1.314V108.477z M311.302,111.005h1.093v5.821h-1.093V111.005z"/>
			<path fill="#09617D" d="M314.559,111.678l-0.012-0.673h1.093l0.011,0.939c0.128-0.243,0.546-1.056,1.872-1.056
				c0.523,0,2.116,0.197,2.116,1.983v3.954h-1.116v-3.699c0-0.383-0.046-0.73-0.314-0.997c-0.279-0.267-0.663-0.395-1.035-0.395
				c-0.791,0-1.523,0.568-1.523,1.739v3.352h-1.093V111.678z"/>
			<path fill="#09617D" d="M320.737,110.982h1.035v-1.218l1.082-0.348v1.565h1.302v0.801h-1.302v3.49c0,0.29,0,0.777,0.779,0.777
				c0.221,0,0.43-0.035,0.523-0.059v0.847c-0.198,0.035-0.512,0.069-0.907,0.069c-1,0-1.477-0.289-1.477-1.24v-3.885h-1.035V110.982
				z"/>
			<path fill="#09617D" d="M326.169,114.113c-0.023,1.206,0.477,2.099,1.674,2.099c0.709,0,1.279-0.371,1.372-1.206h1.093
				c-0.035,0.29-0.082,0.766-0.5,1.218c-0.256,0.29-0.837,0.776-2.011,0.776c-1.837,0-2.709-1.136-2.709-2.979
				c0-1.148,0.232-2.1,1.151-2.737c0.558-0.395,1.255-0.429,1.593-0.429c2.616,0,2.558,2.308,2.535,3.259H326.169z M329.25,113.348
				c0.012-0.557-0.093-1.717-1.442-1.717c-0.709,0-1.569,0.43-1.593,1.717H329.25z"/>
			<path fill="#09617D" d="M332.009,111.678l-0.012-0.673h1.093l0.011,0.939c0.128-0.243,0.546-1.056,1.872-1.056
				c0.523,0,2.116,0.197,2.116,1.983v3.954h-1.116v-3.699c0-0.383-0.046-0.73-0.314-0.997c-0.279-0.267-0.663-0.395-1.035-0.395
				c-0.791,0-1.523,0.568-1.523,1.739v3.352h-1.093V111.678z"/>
			<path fill="#09617D" d="M339.709,115.099c-0.011,0.44,0.221,1.056,1.279,1.056c0.453,0,0.791-0.082,1.023-0.371
				c0.116-0.151,0.186-0.349,0.186-0.546c0-0.567-0.407-0.672-1.279-0.869c-1.221-0.278-2.244-0.522-2.244-1.739
				c0-1.067,0.93-1.763,2.279-1.763c0.732,0,1.756,0.208,2.104,0.904c0.151,0.324,0.151,0.603,0.151,0.847h-1.116
				c0.035-0.882-0.732-0.951-1.128-0.951c-0.163,0-1.186,0-1.186,0.835c0,0.533,0.523,0.661,0.826,0.742
				c1.616,0.383,1.965,0.476,2.314,0.8c0.325,0.302,0.442,0.708,0.442,1.079c0,0.649-0.361,1.206-0.791,1.473
				c-0.512,0.313-1.128,0.395-1.732,0.395c-1.186,0-2.291-0.487-2.279-1.891H339.709z"/>
			<path fill="#09617D" d="M344.793,108.477h1.314v1.194h-1.314V108.477z M344.91,111.005h1.093v5.821h-1.093V111.005z"/>
			<path fill="#09617D" d="M347.237,110.982h1.035v-1.218l1.082-0.348v1.565h1.302v0.801h-1.302v3.49c0,0.29,0,0.777,0.779,0.777
				c0.221,0,0.43-0.035,0.523-0.059v0.847c-0.198,0.035-0.512,0.069-0.907,0.069c-1,0-1.477-0.289-1.477-1.24v-3.885h-1.035V110.982
				z"/>
			<path fill="#09617D" d="M354.633,116.861l-0.837,2.169h-1.128l0.884-2.227l-2.43-5.799h1.232l1.825,4.593l1.86-4.593h1.186
				L354.633,116.861z"/>
		</g>
		<path clip-path="url(#SVGID_8_)" fill="none" stroke="#08586B" stroke-width="0.8374" stroke-miterlimit="10" d="M387.605,7.732
			H218.599h-30.454H19.139c-6.287,0-11.382,6.323-11.382,14.125v90.853c0,7.802,5.095,14.126,11.382,14.126h169.007h30.454h169.006
			c6.286,0,11.382-6.325,11.382-14.126V21.857C398.987,14.055,393.89,7.732,387.605,7.732z"/>
	</g>
	<line fill="none" stroke="#08586B" stroke-width="0.8374" stroke-miterlimit="10" x1="7.756" y1="37.76" x2="398.987" y2="37.76"/>
	
		<line fill="none" stroke="#08586B" stroke-width="0.8374" stroke-miterlimit="10" x1="7.756" y1="67.696" x2="398.987" y2="67.696"/>
	
		<line fill="none" stroke="#08586B" stroke-width="0.8374" stroke-miterlimit="10" x1="104.493" y1="7.732" x2="104.493" y2="126.836"/>
	
		<line fill="none" stroke="#08586B" stroke-width="0.8374" stroke-miterlimit="10" x1="195.914" y1="7.732" x2="195.914" y2="126.836"/>
	
		<line fill="none" stroke="#08586B" stroke-width="0.8374" stroke-miterlimit="10" x1="278.134" y1="7.732" x2="278.134" y2="126.836"/>
	
		<line fill="none" stroke="#08586B" stroke-width="0.8374" stroke-miterlimit="10" x1="7.756" y1="97.581" x2="398.987" y2="97.581"/>
	<g>
		<path fill="#003B47" d="M280.062,139.898h0.99l2.7,6.676h-1.008l-0.721-1.738h-3.098l-0.721,1.738h-0.953L280.062,139.898z
			 M279.221,144.086h2.524l-1.23-3.273L279.221,144.086z"/>
		<path fill="#003B47" d="M287.875,139.906h0.869v5.928c0,0.102,0.019,0.499,0.037,0.739h-0.869l-0.019-0.739
			c-0.074,0.129-0.176,0.323-0.417,0.49c-0.379,0.259-0.832,0.342-1.146,0.342c-0.62,0-1.997-0.323-1.997-2.358
			c0-1.766,1.008-2.533,2.099-2.533c0.999,0,1.331,0.592,1.442,0.786V139.906z M287.552,142.894
			c-0.185-0.24-0.527-0.472-1.017-0.472c-1.276,0-1.276,1.544-1.276,1.858c0,0.823,0.213,1.775,1.276,1.775
			c1.369,0,1.369-1.507,1.369-1.868C287.903,143.513,287.746,143.143,287.552,142.894z"/>
		<path fill="#003B47" d="M293.137,146.573c-0.064-0.23-0.083-0.453-0.083-0.693c-0.416,0.768-1.045,0.842-1.433,0.842
			c-1.063,0-1.637-0.602-1.637-1.369c0-0.369,0.129-0.961,0.813-1.359c0.5-0.277,1.239-0.305,1.609-0.305
			c0.222,0,0.361,0.009,0.629,0.027c0-0.573,0-0.822-0.167-1.026c-0.176-0.23-0.555-0.305-0.804-0.305
			c-0.878,0-0.925,0.601-0.934,0.786h-0.869c0.028-0.24,0.055-0.564,0.324-0.879c0.351-0.388,1.008-0.499,1.498-0.499
			c0.675,0,1.396,0.213,1.646,0.685c0.148,0.277,0.157,0.499,0.157,0.712l-0.037,2.219c0,0.074,0.009,0.693,0.074,1.165H293.137z
			 M292.536,144.289c-0.351,0-1.673,0-1.673,0.943c0,0.296,0.185,0.805,0.961,0.805c0.444,0,0.777-0.176,0.99-0.499
			c0.194-0.314,0.203-0.573,0.222-1.221C292.878,144.299,292.748,144.289,292.536,144.289z"/>
		<path fill="#003B47" d="M295.421,142.69c0-0.203-0.009-0.314-0.028-0.758h0.878l0.019,0.768c0.435-0.73,1.202-0.842,1.581-0.842
			c0.999,0,1.951,0.685,1.951,2.404c0,1.729-1.008,2.487-2.118,2.487c-0.675,0-1.174-0.286-1.424-0.693v2.303h-0.86V142.69z
			 M297.557,146.111c0.222,0,0.685-0.047,0.98-0.453c0.333-0.453,0.379-1.119,0.379-1.452c0-0.832-0.25-1.701-1.276-1.701
			c-1.387,0-1.387,1.471-1.387,1.887C296.253,144.955,296.336,146.111,297.557,146.111z"/>
		<path fill="#003B47" d="M300.386,141.913h0.823v-0.971l0.86-0.277v1.248h1.036v0.638h-1.036v2.783c0,0.231,0,0.62,0.62,0.62
			c0.176,0,0.342-0.028,0.416-0.046v0.675c-0.157,0.027-0.407,0.056-0.721,0.056c-0.795,0-1.174-0.231-1.174-0.99v-3.098h-0.823
			V141.913z"/>
		<path fill="#003B47" d="M304.704,144.41c-0.019,0.961,0.379,1.673,1.332,1.673c0.564,0,1.017-0.296,1.091-0.961h0.869
			c-0.028,0.23-0.065,0.61-0.398,0.971c-0.203,0.231-0.666,0.619-1.6,0.619c-1.461,0-2.154-0.906-2.154-2.376
			c0-0.916,0.185-1.674,0.916-2.183c0.444-0.314,0.999-0.342,1.267-0.342c2.081,0,2.034,1.84,2.016,2.599H304.704z M307.155,143.8
			c0.009-0.444-0.074-1.369-1.146-1.369c-0.564,0-1.248,0.343-1.267,1.369H307.155z"/>
		<path fill="#003B47" d="M312.537,139.906h0.869v5.928c0,0.102,0.019,0.499,0.037,0.739h-0.869l-0.019-0.739
			c-0.074,0.129-0.176,0.323-0.417,0.49c-0.379,0.259-0.832,0.342-1.146,0.342c-0.62,0-1.997-0.323-1.997-2.358
			c0-1.766,1.008-2.533,2.099-2.533c0.999,0,1.331,0.592,1.442,0.786V139.906z M312.213,142.894
			c-0.185-0.24-0.527-0.472-1.017-0.472c-1.276,0-1.276,1.544-1.276,1.858c0,0.823,0.213,1.775,1.276,1.775
			c1.369,0,1.369-1.507,1.369-1.868C312.564,143.513,312.407,143.143,312.213,142.894z"/>
		<path fill="#003B47" d="M319.86,140.545c-0.148-0.01-0.333-0.019-0.509-0.019c-0.703,0-0.703,0.352-0.703,0.675v0.73h1.082v0.629
			h-1.082v4.013h-0.86v-4.013h-0.916v-0.629h0.916v-0.527c0-0.638,0.037-0.869,0.194-1.109c0.194-0.296,0.564-0.509,1.165-0.509
			c0.25,0,0.527,0.037,0.712,0.064V140.545z"/>
		<path fill="#003B47" d="M320.664,142.875c0-0.314-0.019-0.639-0.046-0.943h0.879l0.018,0.896c0.167-0.646,0.722-0.859,1.11-0.915
			c0.259-0.037,0.453-0.027,0.601-0.019v0.851c-0.046-0.019-0.102-0.027-0.167-0.037c-0.065-0.009-0.148-0.009-0.25-0.009
			c-1.026,0-1.267,0.61-1.267,1.405v2.469h-0.878V142.875z"/>
		<path fill="#003B47" d="M326.231,141.812c1.858,0,2.274,1.461,2.274,2.432c0,1.359-0.767,2.487-2.349,2.487
			c-1.535,0-2.284-1.063-2.284-2.423C323.873,143.161,324.409,141.812,326.231,141.812z M326.175,146.083
			c0.657,0,1.406-0.471,1.406-1.867c0-1.156-0.537-1.767-1.35-1.767c-0.555,0-1.452,0.352-1.452,1.804
			C324.779,145.205,325.186,146.083,326.175,146.083z"/>
		<path fill="#003B47" d="M329.855,142.551l-0.019-0.619h0.878v0.675c0.444-0.73,1.072-0.795,1.47-0.795
			c1.026,0,1.35,0.527,1.517,0.869c0.157-0.259,0.536-0.869,1.563-0.869c0.666,0,1.702,0.277,1.702,1.646v3.116h-0.879v-2.978
			c0-0.406-0.074-0.582-0.157-0.702c-0.147-0.213-0.443-0.407-0.888-0.407c-0.564,0-0.869,0.323-0.989,0.49
			c-0.203,0.286-0.203,0.795-0.203,0.999v2.598h-0.879v-3.069c0-0.573-0.333-1.018-1.017-1.018c-0.592,0-0.915,0.37-1.017,0.509
			c-0.194,0.268-0.203,0.647-0.203,0.943v2.635h-0.878V142.551z"/>
		<path fill="#003B47" d="M341.21,142.875c0-0.314-0.019-0.639-0.046-0.943h0.879l0.018,0.896c0.167-0.646,0.722-0.859,1.11-0.915
			c0.259-0.037,0.453-0.027,0.601-0.019v0.851c-0.046-0.019-0.102-0.027-0.167-0.037c-0.065-0.009-0.148-0.009-0.25-0.009
			c-1.026,0-1.267,0.61-1.267,1.405v2.469h-0.878V142.875z"/>
		<path fill="#003B47" d="M345.288,144.41c-0.019,0.961,0.379,1.673,1.332,1.673c0.564,0,1.017-0.296,1.091-0.961h0.869
			c-0.028,0.23-0.065,0.61-0.398,0.971c-0.203,0.231-0.666,0.619-1.6,0.619c-1.461,0-2.154-0.906-2.154-2.376
			c0-0.916,0.185-1.674,0.916-2.183c0.444-0.314,0.999-0.342,1.267-0.342c2.081,0,2.034,1.84,2.016,2.599H345.288z M347.738,143.8
			c0.009-0.444-0.074-1.369-1.146-1.369c-0.564,0-1.248,0.343-1.267,1.369H347.738z"/>
		<path fill="#003B47" d="M352.223,140.545c-0.148-0.01-0.333-0.019-0.509-0.019c-0.703,0-0.703,0.352-0.703,0.675v0.73h1.082v0.629
			h-1.082v4.013h-0.86v-4.013h-0.916v-0.629h0.916v-0.527c0-0.638,0.037-0.869,0.194-1.109c0.194-0.296,0.564-0.509,1.165-0.509
			c0.25,0,0.527,0.037,0.712,0.064V140.545z"/>
		<path fill="#003B47" d="M353.508,144.41c-0.019,0.961,0.379,1.673,1.332,1.673c0.564,0,1.017-0.296,1.091-0.961h0.869
			c-0.028,0.23-0.065,0.61-0.398,0.971c-0.203,0.231-0.666,0.619-1.6,0.619c-1.461,0-2.154-0.906-2.154-2.376
			c0-0.916,0.185-1.674,0.916-2.183c0.444-0.314,0.999-0.342,1.267-0.342c2.081,0,2.034,1.84,2.016,2.599H353.508z M355.958,143.8
			c0.009-0.444-0.074-1.369-1.146-1.369c-0.564,0-1.248,0.343-1.267,1.369H355.958z"/>
		<path fill="#003B47" d="M358.168,142.875c0-0.314-0.019-0.639-0.046-0.943h0.878l0.018,0.896c0.167-0.646,0.722-0.859,1.11-0.915
			c0.259-0.037,0.453-0.027,0.601-0.019v0.851c-0.046-0.019-0.102-0.027-0.167-0.037c-0.065-0.009-0.148-0.009-0.25-0.009
			c-1.026,0-1.267,0.61-1.267,1.405v2.469h-0.878V142.875z"/>
		<path fill="#003B47" d="M362.246,144.41c-0.019,0.961,0.379,1.673,1.332,1.673c0.564,0,1.017-0.296,1.091-0.961h0.869
			c-0.028,0.23-0.065,0.61-0.398,0.971c-0.203,0.231-0.666,0.619-1.6,0.619c-1.461,0-2.154-0.906-2.154-2.376
			c0-0.916,0.185-1.674,0.916-2.183c0.444-0.314,0.999-0.342,1.267-0.342c2.081,0,2.034,1.84,2.016,2.599H362.246z M364.697,143.8
			c0.009-0.444-0.074-1.369-1.146-1.369c-0.564,0-1.248,0.343-1.267,1.369H364.697z"/>
		<path fill="#003B47" d="M366.888,142.468l-0.009-0.536h0.87l0.009,0.749c0.102-0.194,0.435-0.842,1.489-0.842
			c0.417,0,1.683,0.157,1.683,1.581v3.153h-0.888v-2.949c0-0.306-0.037-0.583-0.25-0.796c-0.222-0.212-0.527-0.314-0.823-0.314
			c-0.628,0-1.211,0.453-1.211,1.388v2.672h-0.869V142.468z"/>
		<path fill="#003B47" d="M375.155,143.42c-0.019-0.212-0.083-0.971-0.925-0.971c-1.202,0-1.202,1.396-1.202,1.748
			c0,0.952,0.231,1.84,1.156,1.84c0.74,0,0.989-0.555,1.008-1.008h0.878c-0.055,0.906-0.73,1.664-1.877,1.664
			c-0.314,0-1.036-0.064-1.526-0.601c-0.277-0.324-0.555-0.813-0.555-1.775c0-1.933,1.184-2.506,2.108-2.506
			c0.305,0,0.999,0.064,1.424,0.573c0.342,0.397,0.37,0.776,0.389,1.035H375.155z"/>
		<path fill="#003B47" d="M377.661,144.41c-0.019,0.961,0.379,1.673,1.332,1.673c0.564,0,1.017-0.296,1.091-0.961h0.869
			c-0.028,0.23-0.065,0.61-0.398,0.971c-0.203,0.231-0.666,0.619-1.6,0.619c-1.461,0-2.154-0.906-2.154-2.376
			c0-0.916,0.185-1.674,0.916-2.183c0.444-0.314,0.999-0.342,1.267-0.342c2.081,0,2.034,1.84,2.016,2.599H377.661z M380.111,143.8
			c0.009-0.444-0.074-1.369-1.146-1.369c-0.564,0-1.248,0.343-1.267,1.369H380.111z"/>
		<path fill="#003B47" d="M384.522,145.733l1.673-1.646c0.352-0.342,0.703-0.712,0.99-1.101c0.37-0.508,0.472-0.795,0.472-1.137
			c0-0.314-0.111-1.045-1.027-1.045c-1.026,0-1.044,0.878-1.044,1.118h-0.971c0.009-0.313,0.037-0.924,0.592-1.405
			c0.444-0.379,0.98-0.462,1.387-0.462c0.98,0,1.979,0.499,1.979,1.867c0,0.407-0.027,0.722-0.721,1.601
			c-0.185,0.23-0.999,1.072-1.184,1.257l-1.119,1.063h3.042v0.73h-4.068V145.733z"/>
	</g>
</g>
</svg>
