<?xml version="1.0" encoding="utf-8"?>
<!-- Generator: Adobe Illustrator 17.0.0, SVG Export Plug-In . SVG Version: 6.00 Build 0)  -->
<!DOCTYPE svg PUBLIC "-//W3C//DTD SVG 1.1//EN" "http://www.w3.org/Graphics/SVG/1.1/DTD/svg11.dtd">
<svg version="1.1" id="Layer_1" xmlns="http://www.w3.org/2000/svg" xmlns:xlink="http://www.w3.org/1999/xlink" x="0px" y="0px"
	 width="257.043px" height="373.616px" viewBox="0 0 257.043 373.616" enable-background="new 0 0 257.043 373.616"
	 xml:space="preserve">
<g>
	<g>
		<g>
			<path fill="#020202" d="M6.374,0c1.309,0,3.11,0.306,4.317,1.666C12,3.162,12.256,5.083,12.256,6.29
				c0,1.785-0.544,3.688-1.547,4.811c-1.36,1.53-3.349,1.751-4.369,1.751c-1.614,0-3.229-0.51-4.352-1.683
				C0.646,9.74,0.476,7.7,0.476,6.579C0.476,3.315,1.954,0,6.374,0z M4.147,9.927c0.374,0.51,1.003,0.986,2.227,0.986
				c1.071,0,1.802-0.374,2.295-1.139C9.077,9.162,9.502,8.21,9.502,6.255c0-0.595-0.051-1.445-0.307-2.192
				C8.686,2.55,7.648,1.887,6.391,1.887c-0.985,0-1.768,0.408-2.261,1.037c-0.696,0.85-0.9,2.176-0.9,3.57
				C3.229,7.667,3.416,8.975,4.147,9.927z"/>
			<path fill="#020202" d="M15.792,3.961l1.938,5.83l1.972-5.83h2.432l-3.094,8.584h-2.788l-3.145-8.584H15.792z"/>
			<path fill="#020202" d="M25.567,8.89c0,0.561,0,2.295,1.751,2.295c0.629,0,1.258-0.238,1.495-1.19h2.295
				c-0.034,0.408-0.119,1.139-0.815,1.87c-0.629,0.663-1.751,1.003-3.009,1.003c-0.731,0-2.125-0.136-3.026-1.071
				c-0.781-0.816-1.104-1.972-1.104-3.349c0-1.394,0.34-3.06,1.785-4.063c0.663-0.442,1.479-0.714,2.413-0.714
				c1.225,0,2.687,0.476,3.468,2.074c0.578,1.173,0.544,2.431,0.51,3.145H25.567z M28.763,7.31c0-0.391-0.034-1.921-1.496-1.921
				c-1.104,0-1.563,0.918-1.614,1.921H28.763z"/>
			<path fill="#020202" d="M32.996,6.068c0-0.408-0.067-1.648-0.118-2.142h2.362l0.051,1.649c0.323-0.731,0.884-1.768,2.924-1.666
				V6.17c-2.55-0.238-2.702,1.071-2.702,2.142v4.232h-2.517V6.068z"/>
			<path fill="#020202" d="M41.259,3.961l1.581,6.476l1.818-6.476h2.771l1.802,6.476l1.684-6.476h2.498l-2.94,8.584h-2.736
				l-1.769-6.357l-1.802,6.357h-2.771L38.59,3.961H41.259z"/>
			<path fill="#020202" d="M56.745,8.89c0,0.561,0,2.295,1.751,2.295c0.629,0,1.258-0.238,1.495-1.19h2.295
				c-0.034,0.408-0.119,1.139-0.815,1.87c-0.629,0.663-1.751,1.003-3.009,1.003c-0.731,0-2.125-0.136-3.026-1.071
				c-0.781-0.816-1.104-1.972-1.104-3.349c0-1.394,0.34-3.06,1.785-4.063c0.663-0.442,1.479-0.714,2.413-0.714
				c1.225,0,2.687,0.476,3.468,2.074c0.578,1.173,0.544,2.431,0.51,3.145H56.745z M59.94,7.31c0-0.391-0.034-1.921-1.496-1.921
				c-1.104,0-1.563,0.918-1.614,1.921H59.94z"/>
			<path fill="#020202" d="M64.089,0.272h2.687v2.193h-2.687V0.272z M64.174,3.944h2.517v8.601h-2.517V3.944z"/>
			<path fill="#020202" d="M77.043,3.995c-0.068,0.68-0.119,1.258-0.119,2.125v6.34c0,3.162-2.635,3.468-4.283,3.468
				c-1.224,0-3.621-0.153-3.773-2.754h2.413c0.034,0.255,0.153,1.19,1.496,1.19c0.748,0,1.394-0.357,1.563-1.122
				c0.103-0.425,0.103-0.731,0.119-2.04c-0.799,1.054-1.699,1.173-2.312,1.173c-2.465,0-3.621-2.142-3.621-4.216
				c0-2.176,1.207-4.25,3.672-4.25c1.564,0,2.142,0.85,2.397,1.224l0.085-1.139H77.043z M72.726,10.658
				c1.768,0,1.768-2.074,1.768-2.448c0-0.969-0.187-2.618-1.717-2.618c-0.952,0-1.733,0.731-1.733,2.566
				C71.043,8.584,71.043,10.658,72.726,10.658z"/>
			<path fill="#020202" d="M79.355,0.272h2.499v4.862c0.289-0.408,0.918-1.292,2.481-1.292c1.275,0,2.091,0.629,2.499,1.156
				c0.306,0.425,0.561,1.207,0.561,2.329v5.218h-2.499V7.412c0-0.493,0-1.87-1.41-1.87c-0.714,0-1.615,0.408-1.615,1.751
				l0.018,5.252h-2.533V0.272z"/>
			<path fill="#020202" d="M94.723,12.426c-0.815,0.221-1.547,0.272-1.955,0.272c-2.532,0-2.532-1.598-2.532-2.312V5.678h-1.649
				V4.012h1.649V2.329l2.499-0.918v2.601h2.039v1.666h-2.039v3.875c0.017,0.782,0.017,1.275,1.139,1.275
				c0.374,0,0.544-0.017,0.85-0.051V12.426z"/>
			<path fill="#020202" d="M96.474,3.961h2.142v2.294h-2.142V3.961z M96.474,10.267h2.142v2.278h-2.142V10.267z"/>
			<path fill="#020202" d="M106.249,0.272h4.385c1.496,0,2.329,0.153,3.094,0.901c0.527,0.51,0.867,1.224,0.867,2.193
				c0,2.023-1.479,2.55-2.073,2.771c0.714,0.204,2.447,0.714,2.447,3.06c0,1.666-1.071,2.516-1.479,2.788
				c-0.851,0.561-1.802,0.561-2.771,0.561h-4.47V0.272z M107.897,5.457h2.38c0.578,0,2.55,0,2.55-1.938
				c0-1.853-1.547-1.853-2.481-1.853h-2.448V5.457z M107.897,11.168h2.906c1.344,0,2.414-0.714,2.414-2.125
				c0-1.224-0.85-2.125-2.346-2.125h-2.975V11.168z"/>
			<path fill="#020202" d="M117.503,0.272h3.008l3.468,10.114l3.553-10.114h2.805v12.273h-1.666V1.496l-4.028,11.049h-1.614
				l-3.876-10.981v10.981h-1.648V0.272z"/>
			<path fill="#020202" d="M133.517,0.272h1.699v12.273h-1.699V0.272z"/>
			<path fill="#020202" d="M142.374,10.998l3.076-3.026c0.646-0.629,1.292-1.309,1.819-2.022c0.68-0.935,0.866-1.462,0.866-2.091
				c0-0.578-0.204-1.921-1.887-1.921c-1.887,0-1.921,1.615-1.921,2.057h-1.784c0.017-0.578,0.067-1.7,1.088-2.583
				c0.815-0.697,1.802-0.85,2.55-0.85c1.802,0,3.637,0.918,3.637,3.434c0,0.748-0.051,1.326-1.325,2.941
				c-0.34,0.425-1.836,1.972-2.176,2.312l-2.057,1.955h5.592v1.343h-7.479V10.998z"/>
			<path fill="#020202" d="M153.491,9.74c0,1.02,0.562,1.734,1.887,1.734c2.584,0,2.602-3.043,2.517-4.878
				c-0.612,1.156-1.717,1.479-2.635,1.479c-1.87,0-3.587-1.258-3.587-3.723c0-2.703,1.921-3.791,3.773-3.791
				c1.258,0,3.11,0.51,3.791,2.89c0.204,0.714,0.34,1.564,0.34,3.162c0,1.734-0.018,6.205-4.335,6.205
				c-1.598,0-3.468-0.629-3.535-3.077H153.491z M155.446,1.836c-1.377,0-2.107,1.139-2.107,2.533c0,1.53,0.935,2.414,2.227,2.414
				c1.326,0,2.142-0.986,2.142-2.397C157.707,2.686,156.603,1.836,155.446,1.836z"/>
			<path fill="#020202" d="M161.754,10.505h1.887v2.04h-1.887V10.505z"/>
			<path fill="#020202" d="M165.697,0.782h7.769V2.21l-4.317,10.335h-1.921l4.521-10.352h-6.052V0.782z"/>
			<path fill="#020202" d="M0.9,24.655h2.635v4.912h4.641v-4.912h2.669v12.29H8.21v-5.389H3.535v5.389H0.9V24.655z"/>
			<path fill="#020202" d="M14.993,28.361l1.887,5.949l1.921-5.949h2.498l-3.246,8.431l-1.037,3.417h-2.533l1.088-3.229
				l-3.297-8.618H14.993z"/>
			<path fill="#020202" d="M24.955,28.361l0.068,1.224c0.781-1.377,2.209-1.394,2.617-1.394c2.227,0,3.569,1.666,3.569,4.283
				c0,2.431-1.258,4.59-3.739,4.59c-1.547,0-2.176-0.816-2.396-1.105v4.284h-2.567V28.361H24.955z M28.66,32.576
				c0-1.02-0.255-2.771-1.733-2.771c-0.815,0-1.972,0.612-1.972,2.923c0,0.51,0.017,2.686,1.87,2.686
				C28.015,35.415,28.66,34.276,28.66,32.576z"/>
			<path fill="#020202" d="M35.002,33.29c0,0.561,0,2.295,1.751,2.295c0.629,0,1.258-0.238,1.495-1.19h2.295
				c-0.034,0.408-0.119,1.139-0.815,1.87c-0.629,0.663-1.751,1.002-3.009,1.002c-0.731,0-2.125-0.136-3.026-1.071
				c-0.781-0.816-1.104-1.972-1.104-3.349c0-1.394,0.34-3.06,1.785-4.063c0.663-0.442,1.479-0.714,2.413-0.714
				c1.225,0,2.687,0.476,3.468,2.074c0.578,1.173,0.544,2.431,0.51,3.145H35.002z M38.197,31.709c0-0.391-0.034-1.921-1.496-1.921
				c-1.104,0-1.563,0.918-1.614,1.921H38.197z"/>
			<path fill="#020202" d="M42.431,30.468c0-0.408-0.067-1.648-0.118-2.142h2.362l0.051,1.649c0.323-0.731,0.884-1.768,2.924-1.666
				v2.261c-2.55-0.238-2.702,1.071-2.702,2.142v4.232h-2.517V30.468z"/>
			<path fill="#020202" d="M54.093,36.826c-0.815,0.221-1.547,0.272-1.955,0.272c-2.532,0-2.532-1.598-2.532-2.312v-4.708h-1.649
				v-1.666h1.649v-1.683l2.499-0.918v2.601h2.039v1.666h-2.039v3.875c0.017,0.782,0.017,1.275,1.139,1.275
				c0.374,0,0.544-0.017,0.85-0.051V36.826z"/>
			<path fill="#020202" d="M57.68,33.29c0,0.561,0,2.295,1.751,2.295c0.629,0,1.258-0.238,1.495-1.19h2.295
				c-0.034,0.408-0.119,1.139-0.815,1.87c-0.629,0.663-1.751,1.002-3.009,1.002c-0.731,0-2.125-0.136-3.026-1.071
				c-0.781-0.816-1.104-1.972-1.104-3.349c0-1.394,0.34-3.06,1.785-4.063c0.663-0.442,1.479-0.714,2.413-0.714
				c1.225,0,2.687,0.476,3.468,2.074c0.578,1.173,0.544,2.431,0.51,3.145H57.68z M60.875,31.709c0-0.391-0.034-1.921-1.496-1.921
				c-1.104,0-1.563,0.918-1.614,1.921H60.875z"/>
			<path fill="#020202" d="M65.143,29.891c0-0.034,0-0.969-0.051-1.564h2.414l0.067,1.292c0.238-0.391,0.918-1.496,2.788-1.496
				c1.683,0,2.396,1.02,2.617,1.615c0.188,0.527,0.238,0.969,0.238,2.566v4.641H70.65v-5.337c0-0.357,0-0.663-0.136-0.935
				c-0.188-0.374-0.578-0.731-1.225-0.731c-0.544,0-1.036,0.255-1.309,0.663c-0.153,0.221-0.306,0.646-0.306,1.309v5.031h-2.533
				V29.891z"/>
			<path fill="#020202" d="M77.246,34.463c0.034,0.544,0.374,1.173,1.428,1.173c0.901,0,1.326-0.51,1.326-1.02
				c0-0.391-0.204-0.697-1.189-0.969l-1.564-0.425c-0.696-0.204-2.176-0.629-2.176-2.38c0-1.666,1.53-2.686,3.757-2.686
				c1.768,0,3.195,0.816,3.264,2.533h-2.295c-0.067-0.952-0.833-1.02-1.224-1.02c-0.68,0-1.189,0.323-1.189,0.85
				c0,0.578,0.425,0.697,1.173,0.901l1.546,0.425c1.564,0.425,2.295,1.224,2.295,2.397c0,1.479-1.274,2.958-3.943,2.958
				c-1.104,0-2.158-0.238-2.94-1.054c-0.562-0.595-0.612-1.275-0.629-1.683H77.246z"/>
			<path fill="#020202" d="M83.91,24.672h2.687v2.193H83.91V24.672z M83.995,28.344h2.517v8.601h-2.517V28.344z"/>
			<path fill="#020202" d="M92.768,28.157c3.11,0,4.454,2.108,4.454,4.504c0,2.414-1.395,4.59-4.505,4.59
				c-2.448,0-4.386-1.513-4.386-4.522C88.331,30.655,89.385,28.157,92.768,28.157z M92.802,35.5c1.104,0,1.853-0.663,1.853-2.941
				c0-1.139-0.221-2.72-1.887-2.72c-1.836,0-1.853,2.125-1.853,2.907C90.915,34.667,91.561,35.5,92.802,35.5z"/>
			<path fill="#020202" d="M99.143,29.891c0-0.034,0-0.969-0.051-1.564h2.414l0.067,1.292c0.238-0.391,0.918-1.496,2.788-1.496
				c1.683,0,2.396,1.02,2.617,1.615c0.188,0.527,0.238,0.969,0.238,2.566v4.641h-2.566v-5.337c0-0.357,0-0.663-0.136-0.935
				c-0.188-0.374-0.578-0.731-1.225-0.731c-0.544,0-1.036,0.255-1.309,0.663c-0.153,0.221-0.306,0.646-0.306,1.309v5.031h-2.533
				V29.891z"/>
			<path fill="#020202" d="M116.363,28.361l1.614,2.805l1.683-2.805h2.618l-2.788,4.182l2.873,4.402h-2.975l-1.734-3.145
				l-1.75,3.145h-2.635l2.872-4.606l-2.753-3.978H116.363z"/>
			<path fill="#020202" d="M128.91,26.865c1.104-0.476,2.158-1.071,3.145-1.785h2.192v11.865h-2.566v-9.23
				c-0.493,0.374-1.479,0.986-2.771,1.513V26.865z"/>
			<path fill="#020202" d="M138.362,26.865c1.104-0.476,2.158-1.071,3.145-1.785h2.192v11.865h-2.566v-9.23
				c-0.493,0.374-1.479,0.986-2.771,1.513V26.865z"/>
			<path fill="#020202" d="M153.883,28.361l1.887,5.949l1.921-5.949h2.498l-3.246,8.431l-1.037,3.417h-2.532l1.088-3.229
				l-3.298-8.618H153.883z"/>
			<path fill="#020202" d="M163.505,33.29c0,0.561,0,2.295,1.751,2.295c0.629,0,1.258-0.238,1.495-1.19h2.295
				c-0.034,0.408-0.119,1.139-0.815,1.87c-0.629,0.663-1.751,1.002-3.009,1.002c-0.731,0-2.125-0.136-3.026-1.071
				c-0.781-0.816-1.104-1.972-1.104-3.349c0-1.394,0.34-3.06,1.785-4.063c0.663-0.442,1.479-0.714,2.413-0.714
				c1.225,0,2.687,0.476,3.468,2.074c0.578,1.173,0.544,2.431,0.51,3.145H163.505z M166.7,31.709c0-0.391-0.034-1.921-1.496-1.921
				c-1.104,0-1.563,0.918-1.614,1.921H166.7z"/>
			<path fill="#020202" d="M176.084,36.945c-0.085-0.527-0.085-0.918-0.085-1.173c-0.951,1.377-2.091,1.377-2.566,1.377
				c-1.241,0-1.802-0.357-2.142-0.68c-0.51-0.51-0.748-1.207-0.748-1.887c0-0.68,0.238-1.938,1.819-2.668
				c1.054-0.476,2.566-0.476,3.399-0.476c0-0.561-0.018-0.833-0.119-1.139c-0.221-0.629-0.884-0.714-1.122-0.714
				c-0.356,0-0.73,0.153-0.952,0.476c-0.187,0.289-0.187,0.561-0.187,0.765h-2.465c0.017-0.459,0.068-1.377,0.969-2.023
				c0.782-0.561,1.785-0.697,2.601-0.697c0.714,0,2.21,0.119,3.06,1.104c0.578,0.697,0.596,1.717,0.596,2.108l0.017,3.451
				c0,0.731,0.051,1.462,0.204,2.176H176.084z M172.991,34.293c0,0.578,0.391,1.224,1.224,1.224c0.459,0,0.833-0.221,1.07-0.493
				c0.442-0.544,0.477-1.207,0.477-2.125C174.146,32.763,172.991,33.273,172.991,34.293z"/>
			<path fill="#020202" d="M180.385,30.468c0-0.408-0.067-1.648-0.118-2.142h2.362l0.051,1.649c0.323-0.731,0.884-1.768,2.924-1.666
				v2.261c-2.55-0.238-2.702,1.071-2.702,2.142v4.232h-2.517V30.468z"/>
			<path fill="#020202" d="M188.749,34.463c0.034,0.544,0.374,1.173,1.428,1.173c0.901,0,1.326-0.51,1.326-1.02
				c0-0.391-0.204-0.697-1.189-0.969l-1.564-0.425c-0.696-0.204-2.176-0.629-2.176-2.38c0-1.666,1.53-2.686,3.757-2.686
				c1.768,0,3.195,0.816,3.264,2.533h-2.295c-0.067-0.952-0.833-1.02-1.224-1.02c-0.68,0-1.19,0.323-1.19,0.85
				c0,0.578,0.426,0.697,1.174,0.901l1.547,0.425c1.563,0.425,2.294,1.224,2.294,2.397c0,1.479-1.274,2.958-3.943,2.958
				c-1.104,0-2.159-0.238-2.94-1.054c-0.562-0.595-0.612-1.275-0.629-1.683H188.749z"/>
			<path fill="#020202" d="M4.232,61.345V50.517H0.119v-1.445h9.909v1.445H5.915v10.828H4.232z"/>
			<path fill="#020202" d="M11.729,54.545c0-0.578-0.034-1.173-0.085-1.734h1.614l0.034,1.649c0.306-1.19,1.326-1.581,2.04-1.683
				c0.476-0.068,0.833-0.051,1.104-0.034v1.564c-0.085-0.034-0.187-0.051-0.306-0.068c-0.119-0.017-0.272-0.017-0.459-0.017
				c-1.887,0-2.329,1.122-2.329,2.583v4.539h-1.614V54.545z"/>
			<path fill="#020202" d="M19.227,57.367c-0.034,1.768,0.697,3.077,2.447,3.077c1.037,0,1.87-0.544,2.006-1.768h1.599
				c-0.052,0.425-0.119,1.122-0.731,1.785c-0.374,0.425-1.224,1.139-2.94,1.139c-2.686,0-3.961-1.666-3.961-4.369
				c0-1.683,0.34-3.077,1.683-4.011c0.816-0.578,1.836-0.629,2.329-0.629c3.824,0,3.739,3.382,3.706,4.776H19.227z M23.731,56.245
				c0.017-0.816-0.137-2.516-2.108-2.516c-1.037,0-2.295,0.629-2.328,2.516H23.731z"/>
			<path fill="#020202" d="M32.911,61.345c-0.119-0.425-0.153-0.833-0.153-1.275c-0.765,1.411-1.92,1.547-2.635,1.547
				c-1.954,0-3.008-1.105-3.008-2.516c0-0.68,0.237-1.768,1.495-2.499c0.918-0.51,2.278-0.561,2.958-0.561
				c0.408,0,0.663,0.017,1.156,0.051c0-1.054,0-1.513-0.307-1.887c-0.322-0.425-1.02-0.561-1.479-0.561
				c-1.615,0-1.7,1.105-1.717,1.445h-1.598c0.051-0.442,0.102-1.037,0.595-1.615c0.646-0.714,1.853-0.918,2.754-0.918
				c1.24,0,2.566,0.391,3.025,1.258c0.272,0.51,0.289,0.918,0.289,1.309l-0.068,4.08c0,0.136,0.018,1.275,0.137,2.142H32.911z
				 M31.807,57.146c-0.646,0-3.077,0-3.077,1.734c0,0.544,0.34,1.479,1.768,1.479c0.816,0,1.429-0.323,1.819-0.918
				c0.356-0.578,0.374-1.054,0.408-2.244C32.436,57.163,32.197,57.146,31.807,57.146z"/>
			<path fill="#020202" d="M35.852,52.778h1.514v-1.785l1.58-0.51v2.295h1.904v1.173h-1.904v5.116c0,0.425,0,1.139,1.14,1.139
				c0.322,0,0.629-0.051,0.765-0.085v1.241c-0.289,0.051-0.748,0.102-1.326,0.102c-1.462,0-2.158-0.425-2.158-1.819v-5.694h-1.514
				V52.778z"/>
			<path fill="#020202" d="M43.791,57.367c-0.034,1.768,0.697,3.077,2.447,3.077c1.037,0,1.87-0.544,2.006-1.768h1.599
				c-0.052,0.425-0.119,1.122-0.731,1.785c-0.374,0.425-1.224,1.139-2.94,1.139c-2.686,0-3.961-1.666-3.961-4.369
				c0-1.683,0.34-3.077,1.683-4.011c0.816-0.578,1.836-0.629,2.329-0.629c3.824,0,3.739,3.382,3.706,4.776H43.791z M48.296,56.245
				c0.017-0.816-0.137-2.516-2.108-2.516c-1.037,0-2.295,0.629-2.328,2.516H48.296z"/>
			<path fill="#020202" d="M58.189,49.089h1.598v10.896c0,0.187,0.034,0.918,0.068,1.36h-1.598l-0.034-1.36
				c-0.136,0.238-0.323,0.595-0.765,0.901c-0.697,0.476-1.53,0.629-2.108,0.629c-1.139,0-3.671-0.595-3.671-4.334
				c0-3.247,1.853-4.658,3.858-4.658c1.836,0,2.447,1.088,2.651,1.445V49.089z M57.595,54.58c-0.34-0.442-0.969-0.867-1.87-0.867
				c-2.346,0-2.346,2.839-2.346,3.417c0,1.513,0.391,3.264,2.346,3.264c2.516,0,2.516-2.771,2.516-3.434
				C58.24,55.718,57.951,55.039,57.595,54.58z"/>
			<path fill="#020202" d="M67.847,52.812l2.057,6.799l2.158-6.799h2.091l1.938,6.731l2.142-6.731h1.648l-3.009,8.533h-1.835
				l-2.006-7.021l-2.228,7.021h-1.887l-2.821-8.533H67.847z"/>
			<path fill="#020202" d="M81.395,49.106h1.921v1.751h-1.921V49.106z M81.564,52.812h1.598v8.533h-1.598V52.812z"/>
			<path fill="#020202" d="M84.965,52.778h1.514v-1.785l1.58-0.51v2.295h1.904v1.173h-1.904v5.116c0,0.425,0,1.139,1.14,1.139
				c0.322,0,0.629-0.051,0.765-0.085v1.241c-0.289,0.051-0.748,0.102-1.326,0.102c-1.462,0-2.158-0.425-2.158-1.819v-5.694h-1.514
				V52.778z"/>
			<path fill="#020202" d="M91.935,49.089h1.614v4.98c0.527-0.901,1.581-1.411,2.771-1.411c0.9,0,2.192,0.323,2.686,1.36
				c0.17,0.34,0.289,0.748,0.289,1.989v5.337h-1.632v-5.048c0-0.765,0-2.414-1.836-2.414c-1.19,0-1.785,0.731-2.006,1.139
				c-0.272,0.476-0.272,1.275-0.272,1.802v4.521h-1.614V49.089z"/>
			<path fill="#020202" d="M112.249,61.345c-0.119-0.425-0.153-0.833-0.153-1.275c-0.765,1.411-1.92,1.547-2.635,1.547
				c-1.954,0-3.008-1.105-3.008-2.516c0-0.68,0.237-1.768,1.495-2.499c0.918-0.51,2.278-0.561,2.958-0.561
				c0.408,0,0.663,0.017,1.156,0.051c0-1.054,0-1.513-0.307-1.887c-0.322-0.425-1.02-0.561-1.479-0.561
				c-1.615,0-1.7,1.105-1.717,1.445h-1.598c0.051-0.442,0.102-1.037,0.595-1.615c0.646-0.714,1.853-0.918,2.754-0.918
				c1.24,0,2.566,0.391,3.025,1.258c0.272,0.51,0.289,0.918,0.289,1.309l-0.068,4.08c0,0.136,0.018,1.275,0.137,2.142H112.249z
				 M111.145,57.146c-0.646,0-3.077,0-3.077,1.734c0,0.544,0.34,1.479,1.768,1.479c0.816,0,1.429-0.323,1.819-0.918
				c0.356-0.578,0.374-1.054,0.408-2.244C111.773,57.163,111.535,57.146,111.145,57.146z"/>
			<path fill="#020202" d="M116.551,53.797l-0.017-0.986h1.598l0.017,1.377c0.188-0.357,0.799-1.547,2.737-1.547
				c0.765,0,3.093,0.289,3.093,2.907v5.796h-1.631v-5.422c0-0.561-0.068-1.071-0.459-1.462c-0.408-0.391-0.97-0.578-1.514-0.578
				c-1.155,0-2.227,0.833-2.227,2.55v4.913h-1.598V53.797z"/>
			<path fill="#020202" d="M135.437,49.072h1.819l4.963,12.273h-1.853l-1.326-3.196h-5.694l-1.326,3.196h-1.75L135.437,49.072z
				 M133.89,56.772h4.641l-2.261-6.017L133.89,56.772z"/>
			<path fill="#020202" d="M151.28,52.387c-0.067-0.425-0.288-2.125-2.651-2.125c-2.958,0-3.484,3.026-3.484,5.065
				c0,2.312,0.663,4.811,3.468,4.811c0.748,0,1.462-0.187,1.988-0.731c0.442-0.476,0.544-1.003,0.595-1.292h1.87
				c-0.255,2.414-2.481,3.417-4.59,3.417c-4.317,0-5.15-3.808-5.15-6.188c0-2.583,1.003-6.442,5.372-6.442
				c1.733,0,4.182,0.697,4.402,3.485H151.28z"/>
			<path fill="#020202" d="M155.021,49.072h7.7v1.445h-6.001v3.825h5.712v1.428h-5.712v4.08h6.137v1.496h-7.836V49.072z"/>
			<path fill="#020202" d="M170.185,49.106h1.921v1.751h-1.921V49.106z M170.354,52.812h1.598v8.533h-1.598V52.812z"/>
			<path fill="#020202" d="M175.115,53.797l-0.017-0.986h1.598l0.017,1.377c0.188-0.357,0.799-1.547,2.737-1.547
				c0.765,0,3.093,0.289,3.093,2.907v5.796h-1.631v-5.422c0-0.561-0.068-1.071-0.459-1.462c-0.408-0.391-0.97-0.578-1.514-0.578
				c-1.155,0-2.227,0.833-2.227,2.55v4.913h-1.598V53.797z"/>
			<path fill="#020202" d="M185.451,49.089h1.614v4.98c0.527-0.901,1.581-1.411,2.771-1.411c0.9,0,2.192,0.323,2.686,1.36
				c0.17,0.34,0.289,0.748,0.289,1.989v5.337h-1.632v-5.048c0-0.765,0-2.414-1.836-2.414c-1.19,0-1.785,0.731-2.006,1.139
				c-0.272,0.476-0.272,1.275-0.272,1.802v4.521h-1.614V49.089z"/>
			<path fill="#020202" d="M195.685,49.106h1.921v1.751h-1.921V49.106z M195.854,52.812h1.598v8.533h-1.598V52.812z"/>
			<path fill="#020202" d="M202.162,54.052c0.221-0.391,0.85-1.461,2.788-1.461c0.85,0,1.92,0.204,2.702,1.088
				c0.425,0.493,1.003,1.343,1.003,3.212c0,1.649-0.391,2.55-0.815,3.111c-0.681,0.969-1.819,1.462-2.992,1.462
				c-0.408,0-1.173-0.051-1.903-0.544c-0.477-0.323-0.663-0.612-0.833-0.867l-0.034,1.292h-1.547l0.034-1.53V49.072h1.598V54.052z
				 M204.576,53.679c-2.448,0-2.448,2.855-2.448,3.399c0,0.561,0,3.229,2.38,3.229c1.972,0,2.465-1.92,2.465-3.314
				C206.973,56.143,206.803,53.679,204.576,53.679z"/>
			<path fill="#020202" d="M210.798,49.106h1.921v1.751h-1.921V49.106z M210.968,52.812h1.598v8.533h-1.598V52.812z"/>
			<path fill="#020202" d="M214.367,52.778h1.514v-1.785l1.58-0.51v2.295h1.904v1.173h-1.904v5.116c0,0.425,0,1.139,1.14,1.139
				c0.322,0,0.629-0.051,0.765-0.085v1.241c-0.289,0.051-0.748,0.102-1.326,0.102c-1.462,0-2.158-0.425-2.158-1.819v-5.694h-1.514
				V52.778z"/>
			<path fill="#020202" d="M225.043,52.591c3.417,0,4.182,2.686,4.182,4.47c0,2.499-1.41,4.573-4.317,4.573
				c-2.821,0-4.198-1.955-4.198-4.454C220.709,55.072,221.694,52.591,225.043,52.591z M224.941,60.444
				c1.207,0,2.584-0.867,2.584-3.434c0-2.125-0.986-3.247-2.482-3.247c-1.02,0-2.668,0.646-2.668,3.314
				C222.375,58.829,223.122,60.444,224.941,60.444z"/>
			<path fill="#020202" d="M231.81,54.545c0-0.578-0.034-1.173-0.085-1.734h1.614l0.034,1.649c0.306-1.19,1.326-1.581,2.04-1.683
				c0.476-0.068,0.833-0.051,1.104-0.034v1.564c-0.085-0.034-0.187-0.051-0.306-0.068c-0.119-0.017-0.272-0.017-0.459-0.017
				c-1.887,0-2.329,1.122-2.329,2.583v4.539h-1.614V54.545z"/>
			<path fill="#020202" d="M8.651,76.787C8.584,76.362,8.363,74.662,6,74.662c-2.958,0-3.484,3.026-3.484,5.065
				c0,2.312,0.663,4.811,3.468,4.811c0.748,0,1.462-0.187,1.988-0.731c0.442-0.476,0.544-1.003,0.595-1.292h1.87
				c-0.255,2.414-2.481,3.417-4.59,3.417c-4.317,0-5.15-3.808-5.15-6.188c0-2.583,1.003-6.442,5.372-6.442
				c1.733,0,4.182,0.697,4.402,3.485H8.651z"/>
			<path fill="#020202" d="M14.059,77.211v5.491c0,0.833,0.187,1.887,1.818,1.887c0.799,0,1.547-0.272,2.006-0.952
				c0.357-0.51,0.357-1.173,0.357-1.598v-4.828h1.648v6.936c0,0.17,0.034,1.122,0.051,1.598h-1.666l-0.033-1.462
				c-0.307,0.595-0.885,1.547-2.72,1.547c-2.108,0-3.094-1.207-3.094-2.89v-5.729H14.059z"/>
			<path fill="#020202" d="M23.068,78.945c0-0.578-0.034-1.173-0.085-1.734h1.614l0.034,1.649c0.306-1.19,1.326-1.581,2.04-1.683
				c0.476-0.068,0.833-0.051,1.104-0.034v1.564c-0.085-0.034-0.187-0.051-0.306-0.068c-0.119-0.017-0.271-0.017-0.459-0.017
				c-1.887,0-2.329,1.122-2.329,2.583v4.539h-1.614V78.945z"/>
			<path fill="#020202" d="M29.682,78.945c0-0.578-0.034-1.173-0.085-1.734h1.614l0.034,1.649c0.306-1.19,1.326-1.581,2.04-1.683
				c0.476-0.068,0.833-0.051,1.104-0.034v1.564c-0.085-0.034-0.187-0.051-0.306-0.068c-0.119-0.017-0.271-0.017-0.459-0.017
				c-1.887,0-2.329,1.122-2.329,2.583v4.539h-1.614V78.945z"/>
			<path fill="#020202" d="M37.178,81.767c-0.034,1.768,0.697,3.077,2.447,3.077c1.037,0,1.87-0.544,2.006-1.768h1.599
				c-0.052,0.425-0.119,1.122-0.731,1.785C42.124,85.286,41.274,86,39.558,86c-2.686,0-3.961-1.666-3.961-4.369
				c0-1.683,0.34-3.077,1.683-4.011c0.816-0.578,1.836-0.629,2.329-0.629c3.824,0,3.739,3.382,3.706,4.776H37.178z M41.683,80.645
				c0.017-0.816-0.137-2.516-2.108-2.516c-1.037,0-2.295,0.629-2.328,2.516H41.683z"/>
			<path fill="#020202" d="M45.712,78.197l-0.017-0.986h1.598l0.017,1.377c0.188-0.357,0.799-1.547,2.737-1.547
				c0.765,0,3.094,0.289,3.094,2.907v5.796h-1.633v-5.422c0-0.561-0.067-1.071-0.458-1.462c-0.408-0.391-0.97-0.578-1.514-0.578
				c-1.155,0-2.227,0.833-2.227,2.55v4.913h-1.598V78.197z"/>
			<path fill="#020202" d="M54.738,77.177h1.514v-1.785l1.58-0.51v2.294h1.904v1.173h-1.904v5.116c0,0.425,0,1.139,1.14,1.139
				c0.322,0,0.629-0.051,0.765-0.085v1.241c-0.289,0.051-0.748,0.102-1.326,0.102c-1.462,0-2.158-0.425-2.158-1.819v-5.694h-1.514
				V77.177z"/>
			<path fill="#020202" d="M66.554,73.472h4.385c1.496,0,2.329,0.153,3.094,0.901c0.527,0.51,0.867,1.224,0.867,2.193
				c0,2.023-1.479,2.55-2.073,2.771c0.714,0.204,2.447,0.714,2.447,3.06c0,1.666-1.071,2.516-1.479,2.788
				c-0.851,0.561-1.802,0.561-2.771,0.561h-4.47V73.472z M68.202,78.656h2.38c0.578,0,2.55,0,2.55-1.938
				c0-1.853-1.547-1.853-2.481-1.853h-2.448V78.656z M68.202,84.368h2.906c1.344,0,2.414-0.714,2.414-2.125
				c0-1.224-0.85-2.125-2.346-2.125h-2.975V84.368z"/>
			<path fill="#020202" d="M77.773,73.472h4.113c1.496,0,2.516,0.085,3.349,0.986c0.612,0.629,0.901,1.462,0.901,2.38
				c0,0.935-0.307,1.734-0.97,2.397c-0.646,0.646-1.495,1.054-3.705,1.054h-1.989v5.457h-1.699V73.472z M79.473,78.86h2.023
				c1.122,0,2.839-0.085,2.839-2.091c0-1.921-1.599-1.921-2.482-1.921h-2.38V78.86z"/>
			<path fill="#020202" d="M88.076,77.126h1.887v2.006h-1.887V77.126z M88.076,83.739h1.887v2.006h-1.887V83.739z"/>
			<path fill="#020202" d="M100.723,75.834c-0.73,0.612-1.903,1.309-2.736,1.7v-1.7c1.104-0.578,2.192-1.292,2.855-1.853h1.513
				v11.763h-1.632V75.834z"/>
			<path fill="#020202" d="M106.47,84.198l3.076-3.026c0.646-0.629,1.292-1.309,1.819-2.022c0.68-0.935,0.866-1.462,0.866-2.091
				c0-0.578-0.204-1.921-1.887-1.921c-1.887,0-1.921,1.615-1.921,2.057h-1.784c0.017-0.578,0.067-1.7,1.088-2.583
				c0.815-0.697,1.802-0.85,2.55-0.85c1.802,0,3.637,0.918,3.637,3.434c0,0.748-0.051,1.326-1.325,2.941
				c-0.34,0.425-1.836,1.972-2.176,2.312l-2.057,1.955h5.592v1.343h-7.479V84.198z"/>
			<path fill="#020202" d="M117.74,82.957c0.034,1.19,1.071,1.666,1.955,1.666c2.057,0,2.328-1.938,2.328-2.703
				c0-1.598-0.866-2.533-2.227-2.533c-0.68,0-1.224,0.255-1.581,0.612c-0.356,0.357-0.459,0.714-0.544,0.986h-1.547l0.307-7.003
				h6.612v1.377h-5.15l-0.222,3.808c0.357-0.357,1.105-1.088,2.482-1.088c2.362,0,3.519,1.853,3.519,3.875
				c0,2.312-1.632,4.063-4.199,4.063c-1.903,0-3.416-1.054-3.501-3.06H117.74z"/>
			<path fill="#020202" d="M128.297,73.625h1.105l-3.961,12.392h-1.122L128.297,73.625z"/>
			<path fill="#020202" d="M130.065,76.922c0-1.054,0.714-3.212,3.808-3.212c2.481,0,3.909,1.343,3.909,3.145
				c0,1.156-0.748,2.363-2.396,2.669c0.697,0.187,2.566,0.697,2.566,2.975c0,1.615-1.122,3.451-4.045,3.451
				c-1.003,0-2.193-0.204-3.043-0.986c-0.629-0.578-1.037-1.462-1.037-2.363c0-0.782,0.306-1.598,0.901-2.159
				c0.561-0.561,1.173-0.73,1.699-0.901C130.864,79.2,130.065,78.095,130.065,76.922z M133.907,84.606
				c1.887,0,2.346-1.326,2.346-2.21c0-1.309-0.97-2.159-2.313-2.159c-1.444,0-2.396,0.969-2.396,2.209
				C131.544,83.365,132.156,84.606,133.907,84.606z M133.94,74.968c-1.258,0-2.227,0.748-2.227,1.921
				c0,1.139,0.952,1.904,2.176,1.904c1.292,0,2.261-0.748,2.261-1.904C136.15,75.818,135.352,74.968,133.94,74.968z"/>
			<path fill="#020202" d="M143.342,73.744c3.519,0,3.943,3.774,3.943,5.983c0,2.788-0.561,4.352-1.632,5.354
				c-0.833,0.782-1.818,0.901-2.346,0.901c-1.563,0-2.635-0.917-3.145-1.955c-0.391-0.782-0.765-1.921-0.765-4.029
				C139.398,78.249,139.603,73.744,143.342,73.744z M143.325,84.572c1.972,0,2.312-2.584,2.312-4.691
				c0-2.822-0.493-4.777-2.277-4.777c-2.058,0-2.329,2.703-2.329,4.811C141.03,82.532,141.54,84.572,143.325,84.572z"/>
			<path fill="#020202" d="M154.308,78.351l-0.033-1.139h1.614v1.241c0.816-1.343,1.972-1.461,2.703-1.461
				c1.887,0,2.481,0.969,2.787,1.598c0.289-0.476,0.986-1.598,2.873-1.598c1.224,0,3.128,0.51,3.128,3.025v5.729h-1.615v-5.474
				c0-0.748-0.136-1.071-0.289-1.292c-0.271-0.391-0.815-0.748-1.632-0.748c-1.037,0-1.598,0.595-1.818,0.901
				c-0.374,0.527-0.374,1.462-0.374,1.836v4.776h-1.615v-5.644c0-1.054-0.611-1.87-1.869-1.87c-1.088,0-1.684,0.68-1.87,0.935
				c-0.357,0.493-0.374,1.189-0.374,1.733v4.845h-1.615V78.351z"/>
			<path fill="#020202" d="M170.354,78.351l-0.033-1.139h1.614v1.241c0.816-1.343,1.972-1.461,2.703-1.461
				c1.887,0,2.481,0.969,2.787,1.598c0.289-0.476,0.986-1.598,2.873-1.598c1.224,0,3.128,0.51,3.128,3.025v5.729h-1.615v-5.474
				c0-0.748-0.136-1.071-0.289-1.292c-0.271-0.391-0.815-0.748-1.632-0.748c-1.037,0-1.598,0.595-1.818,0.901
				c-0.374,0.527-0.374,1.462-0.374,1.836v4.776h-1.615v-5.644c0-1.054-0.611-1.87-1.869-1.87c-1.088,0-1.684,0.68-1.87,0.935
				c-0.357,0.493-0.374,1.189-0.374,1.733v4.845h-1.615V78.351z"/>
			<path fill="#020202" d="M188.119,73.472v5.27h5.831v-5.27h1.699v12.273h-1.699v-5.542h-5.831v5.542h-1.699V73.472H188.119z"/>
			<path fill="#020202" d="M200.224,86.408c0.068,0.952,0.477,1.666,1.989,1.666c2.227,0,2.261-1.615,2.261-3.926
				c-0.68,1.411-2.295,1.445-2.805,1.445c-0.782,0-1.904-0.17-2.618-1.054c-0.73-0.867-0.969-2.006-0.969-3.145
				c0-2.89,1.7-4.301,3.791-4.301c1.717,0,2.346,0.85,2.686,1.292l0.017-1.173h1.547l-0.034,1.547l-0.017,5.337
				c0,2.057-0.068,2.89-0.408,3.536c-0.714,1.36-2.38,1.53-3.553,1.53c-3.416,0-3.519-1.598-3.586-2.753H200.224z M203.946,83.552
				c0.34-0.442,0.578-0.901,0.578-2.448c0-1.071-0.238-1.683-0.663-2.125c-0.425-0.459-1.104-0.748-1.836-0.748
				c-2.022,0-2.294,2.04-2.294,3.127c0,1.309,0.391,3.043,2.346,3.043C203.012,84.402,203.556,84.062,203.946,83.552z"/>
		</g>
	</g>
	<g>
		<g>
			<path fill="#020202" d="M3.654,115.949H0v-2.04h9.961v2.04H6.306v10.25H3.654V115.949z"/>
			<path fill="#020202" d="M13.106,117.615l1.887,5.949l1.921-5.949h2.498l-3.246,8.431l-1.037,3.417h-2.533l1.088-3.229
				l-3.297-8.618H13.106z"/>
			<path fill="#020202" d="M23.068,117.615l0.068,1.224c0.781-1.377,2.209-1.394,2.617-1.394c2.227,0,3.569,1.666,3.569,4.283
				c0,2.431-1.258,4.59-3.739,4.59c-1.547,0-2.176-0.816-2.396-1.105v4.284H20.62v-11.882H23.068z M26.773,121.83
				c0-1.02-0.255-2.771-1.733-2.771c-0.815,0-1.972,0.612-1.972,2.924c0,0.51,0.017,2.686,1.87,2.686
				C26.128,124.669,26.773,123.53,26.773,121.83z"/>
			<path fill="#020202" d="M33.115,122.544c0,0.561,0,2.295,1.751,2.295c0.629,0,1.258-0.238,1.495-1.19h2.295
				c-0.034,0.408-0.119,1.139-0.815,1.87c-0.629,0.663-1.751,1.003-3.009,1.003c-0.731,0-2.125-0.136-3.026-1.071
				c-0.781-0.816-1.104-1.972-1.104-3.349c0-1.394,0.34-3.06,1.785-4.063c0.663-0.442,1.479-0.714,2.413-0.714
				c1.225,0,2.687,0.476,3.468,2.074c0.578,1.173,0.544,2.431,0.51,3.145H33.115z M36.311,120.963c0-0.391-0.034-1.921-1.496-1.921
				c-1.104,0-1.563,0.918-1.614,1.921H36.311z"/>
			<path fill="#020202" d="M44.59,123.802l3.077-2.805c0.544-0.493,1.155-1.037,1.784-1.802c0.663-0.799,0.816-1.173,0.816-1.717
				c0-0.901-0.527-1.513-1.411-1.513c-1.359,0-1.479,1.394-1.496,1.734H44.76c0-0.476,0-1.36,0.697-2.227
				c0.68-0.85,1.938-1.292,3.383-1.292c2.583,0,4.012,1.394,4.012,3.229c0,1.224-0.477,2.805-5.609,6.935
				c1.717-0.034,1.92-0.051,3.264-0.068c1.818-0.034,2.022-0.034,2.413-0.051v1.972H44.59V123.802z"/>
			<path fill="#020202" d="M65.126,113.926h2.533v10.879c0,0.51,0.033,1.071,0.067,1.394h-2.55l-0.067-1.241
				c-0.17,0.306-0.34,0.629-0.867,0.969c-0.629,0.408-1.292,0.442-1.666,0.442c-2.295,0-3.654-1.581-3.654-4.267
				c0-2.838,1.547-4.606,3.79-4.606c1.547,0,2.193,0.867,2.414,1.173V113.926z M63.205,124.737c0.731,0,1.326-0.442,1.598-0.969
				c0.374-0.714,0.408-1.598,0.408-2.023c0-1.683-0.73-2.601-1.87-2.601c-1.683,0-1.869,2.022-1.869,2.89
				C61.472,123.462,61.947,124.737,63.205,124.737z"/>
			<path fill="#020202" d="M69.75,113.926h2.687v2.193H69.75V113.926z M69.835,117.598h2.517v8.601h-2.517V117.598z"/>
			<path fill="#020202" d="M79.711,126.199c-0.085-0.527-0.085-0.918-0.085-1.173c-0.951,1.377-2.091,1.377-2.566,1.377
				c-1.241,0-1.802-0.357-2.142-0.68c-0.51-0.51-0.748-1.207-0.748-1.887c0-0.68,0.238-1.938,1.819-2.669
				c1.054-0.476,2.566-0.476,3.399-0.476c0-0.561-0.018-0.833-0.119-1.139c-0.221-0.629-0.884-0.714-1.122-0.714
				c-0.356,0-0.73,0.153-0.952,0.476c-0.187,0.289-0.187,0.561-0.187,0.765h-2.465c0.017-0.458,0.068-1.376,0.969-2.022
				c0.782-0.561,1.785-0.697,2.601-0.697c0.714,0,2.21,0.119,3.06,1.105c0.578,0.697,0.596,1.717,0.596,2.108l0.017,3.451
				c0,0.731,0.051,1.462,0.204,2.176H79.711z M76.618,123.547c0,0.578,0.391,1.224,1.224,1.224c0.459,0,0.833-0.221,1.07-0.493
				c0.442-0.544,0.477-1.207,0.477-2.125C77.773,122.017,76.618,122.527,76.618,123.547z"/>
			<path fill="#020202" d="M83.928,113.943h2.516v4.708c0.851-1.122,1.989-1.156,2.432-1.156c2.091,0,3.739,1.649,3.739,4.539
				c0,3.213-1.87,4.334-3.587,4.334c-0.441,0-1.802-0.034-2.584-1.377c-0.017,0.272-0.033,0.68-0.085,1.207h-2.431V113.943z
				 M88.194,119.178c-1.853,0-1.853,2.108-1.853,2.652c0,1.955,0.833,2.89,1.972,2.89c1.734,0,1.734-2.159,1.734-2.601
				C90.048,121.439,90.014,119.178,88.194,119.178z"/>
			<path fill="#020202" d="M96.423,122.544c0,0.561,0,2.295,1.751,2.295c0.629,0,1.258-0.238,1.495-1.19h2.295
				c-0.034,0.408-0.119,1.139-0.815,1.87c-0.629,0.663-1.751,1.003-3.009,1.003c-0.731,0-2.125-0.136-3.026-1.071
				c-0.781-0.816-1.104-1.972-1.104-3.349c0-1.394,0.34-3.06,1.785-4.063c0.663-0.442,1.479-0.714,2.413-0.714
				c1.225,0,2.687,0.476,3.468,2.074c0.578,1.173,0.544,2.431,0.51,3.145H96.423z M99.618,120.963c0-0.391-0.034-1.921-1.496-1.921
				c-1.104,0-1.563,0.918-1.614,1.921H99.618z"/>
			<path fill="#020202" d="M108.9,126.08c-0.815,0.221-1.547,0.272-1.955,0.272c-2.532,0-2.532-1.598-2.532-2.312v-4.708h-1.649
				v-1.666h1.649v-1.683l2.499-0.918v2.601h2.039v1.666h-2.039v3.875c0.017,0.782,0.017,1.275,1.139,1.275
				c0.374,0,0.544-0.017,0.85-0.051V126.08z"/>
			<path fill="#020202" d="M112.488,122.544c0,0.561,0,2.295,1.751,2.295c0.629,0,1.258-0.238,1.495-1.19h2.295
				c-0.034,0.408-0.119,1.139-0.815,1.87c-0.629,0.663-1.751,1.003-3.009,1.003c-0.731,0-2.125-0.136-3.026-1.071
				c-0.781-0.816-1.104-1.972-1.104-3.349c0-1.394,0.34-3.06,1.785-4.063c0.663-0.442,1.479-0.714,2.413-0.714
				c1.225,0,2.687,0.476,3.468,2.074c0.578,1.173,0.544,2.431,0.51,3.145H112.488z M115.684,120.963
				c0-0.391-0.034-1.921-1.496-1.921c-1.104,0-1.563,0.918-1.614,1.921H115.684z"/>
			<path fill="#020202" d="M121.668,123.717c0.034,0.544,0.374,1.173,1.428,1.173c0.901,0,1.326-0.51,1.326-1.02
				c0-0.391-0.204-0.697-1.189-0.969l-1.564-0.425c-0.696-0.204-2.176-0.629-2.176-2.38c0-1.666,1.53-2.686,3.757-2.686
				c1.768,0,3.195,0.816,3.264,2.533h-2.295c-0.067-0.952-0.833-1.02-1.224-1.02c-0.68,0-1.189,0.323-1.189,0.85
				c0,0.578,0.425,0.697,1.173,0.901l1.546,0.425c1.564,0.425,2.295,1.224,2.295,2.397c0,1.479-1.274,2.958-3.943,2.958
				c-1.104,0-2.158-0.238-2.94-1.054c-0.562-0.595-0.612-1.275-0.629-1.683H121.668z"/>
			<path fill="#020202" d="M135.285,117.615l1.614,2.805l1.683-2.805h2.618l-2.788,4.182l2.873,4.402h-2.975l-1.734-3.145
				l-1.75,3.145h-2.635l2.872-4.606l-2.753-3.978H135.285z"/>
			<path fill="#020202" d="M147.831,116.119c1.104-0.476,2.158-1.071,3.145-1.785h2.192v11.865h-2.566v-9.23
				c-0.493,0.374-1.479,0.986-2.771,1.513V116.119z"/>
			<path fill="#020202" d="M160.444,114.164c1.666,0,2.652,0.901,3.094,1.563c0.612,0.901,1.071,2.057,1.071,4.284
				c0,2.754-0.629,6.375-4.199,6.375c-3.042,0-4.097-2.924-4.097-6.085C156.313,118.72,156.637,114.164,160.444,114.164z
				 M161.753,117.513c-0.067-0.323-0.356-1.377-1.291-1.377c-0.731,0-1.055,0.663-1.173,1.02c-0.392,1.207-0.392,3.025-0.392,3.314
				c0,2.023,0.306,3.91,1.581,3.91c1.359,0,1.581-2.312,1.581-3.943C162.06,119.688,161.975,118.294,161.753,117.513z"/>
			<path fill="#020202" d="M172.804,117.615l1.887,5.949l1.921-5.949h2.498l-3.246,8.431l-1.037,3.417h-2.533l1.088-3.229
				l-3.297-8.618H172.804z"/>
			<path fill="#020202" d="M182.426,122.544c0,0.561,0,2.295,1.751,2.295c0.629,0,1.258-0.238,1.495-1.19h2.295
				c-0.034,0.408-0.119,1.139-0.815,1.87c-0.629,0.663-1.751,1.003-3.009,1.003c-0.731,0-2.125-0.136-3.026-1.071
				c-0.781-0.816-1.104-1.972-1.104-3.349c0-1.394,0.34-3.06,1.785-4.063c0.663-0.442,1.479-0.714,2.413-0.714
				c1.225,0,2.687,0.476,3.468,2.074c0.578,1.173,0.544,2.431,0.51,3.145H182.426z M185.621,120.963
				c0-0.391-0.034-1.921-1.496-1.921c-1.104,0-1.563,0.918-1.614,1.921H185.621z"/>
			<path fill="#020202" d="M195.006,126.199c-0.086-0.527-0.086-0.918-0.086-1.173c-0.951,1.377-2.09,1.377-2.566,1.377
				c-1.241,0-1.802-0.357-2.142-0.68c-0.51-0.51-0.748-1.207-0.748-1.887c0-0.68,0.238-1.938,1.819-2.669
				c1.054-0.476,2.566-0.476,3.399-0.476c0-0.561-0.018-0.833-0.119-1.139c-0.221-0.629-0.884-0.714-1.122-0.714
				c-0.356,0-0.73,0.153-0.952,0.476c-0.187,0.289-0.187,0.561-0.187,0.765h-2.465c0.017-0.458,0.068-1.376,0.969-2.022
				c0.782-0.561,1.785-0.697,2.601-0.697c0.714,0,2.21,0.119,3.06,1.105c0.578,0.697,0.596,1.717,0.596,2.108l0.017,3.451
				c0,0.731,0.051,1.462,0.204,2.176H195.006z M191.912,123.547c0,0.578,0.391,1.224,1.224,1.224c0.459,0,0.833-0.221,1.07-0.493
				c0.442-0.544,0.477-1.207,0.477-2.125C193.067,122.017,191.912,122.527,191.912,123.547z"/>
			<path fill="#020202" d="M199.307,119.722c0-0.408-0.067-1.648-0.118-2.142h2.362l0.051,1.649
				c0.323-0.731,0.884-1.768,2.924-1.666v2.261c-2.55-0.238-2.702,1.071-2.702,2.142v4.232h-2.517V119.722z"/>
			<path fill="#020202" d="M207.67,123.717c0.034,0.544,0.374,1.173,1.428,1.173c0.901,0,1.326-0.51,1.326-1.02
				c0-0.391-0.204-0.697-1.189-0.969l-1.564-0.425c-0.696-0.204-2.176-0.629-2.176-2.38c0-1.666,1.53-2.686,3.757-2.686
				c1.768,0,3.195,0.816,3.264,2.533h-2.295c-0.067-0.952-0.833-1.02-1.224-1.02c-0.68,0-1.189,0.323-1.189,0.85
				c0,0.578,0.425,0.697,1.173,0.901l1.546,0.425c1.564,0.425,2.295,1.224,2.295,2.397c0,1.479-1.274,2.958-3.943,2.958
				c-1.104,0-2.158-0.238-2.94-1.054c-0.562-0.595-0.612-1.275-0.629-1.683H207.67z"/>
			<path fill="#020202" d="M1.377,138.326h7.309v1.445H3.11v3.825h5.253v1.428H3.11v5.575H1.377V138.326z"/>
			<path fill="#020202" d="M10.71,138.326h4.113c1.496,0,2.516,0.085,3.349,0.986c0.612,0.629,0.901,1.462,0.901,2.38
				c0,0.935-0.307,1.734-0.97,2.397c-0.646,0.646-1.495,1.054-3.705,1.054h-1.989v5.457H10.71V138.326z M12.409,143.714h2.023
				c1.122,0,2.839-0.085,2.839-2.091c0-1.921-1.599-1.921-2.482-1.921h-2.38V143.714z"/>
			<path fill="#020202" d="M29.408,141.386c-0.187-1.139-1.104-1.921-2.771-1.921c-1.155,0-2.125,0.306-2.771,1.037
				c-1.071,1.19-1.309,2.788-1.309,3.944c0,1.037,0.221,2.788,1.121,3.858c0.8,0.918,2.04,1.207,3.264,1.207
				c1.395,0,2.278-0.272,2.669-0.391v-3.638h-2.805v-1.411h4.505v6.051c-0.714,0.238-2.278,0.748-4.369,0.748
				c-2.261,0-3.586-0.646-4.453-1.53c-1.207-1.224-1.717-2.941-1.717-4.675c0-1.224,0.306-4.113,2.635-5.677
				c1.207-0.816,2.805-0.867,3.417-0.867c0.969,0,2.447,0.119,3.62,1.309c0.731,0.765,0.782,1.479,0.816,1.955H29.408z"/>
			<path fill="#020202" d="M34.237,141.98h1.887v2.006h-1.887V141.98z M34.237,148.593h1.887v2.006h-1.887V148.593z"/>
			<path fill="#020202" d="M46.885,140.688c-0.73,0.612-1.903,1.309-2.736,1.7v-1.7c1.104-0.578,2.192-1.292,2.855-1.853h1.513
				v11.763h-1.632V140.688z"/>
			<path fill="#020202" d="M56.337,140.688c-0.73,0.612-1.903,1.309-2.736,1.7v-1.7c1.104-0.578,2.192-1.292,2.855-1.853h1.513
				v11.763h-1.632V140.688z"/>
			<path fill="#020202" d="M63.749,147.794c0,1.02,0.562,1.734,1.887,1.734c2.584,0,2.602-3.043,2.517-4.878
				c-0.612,1.156-1.717,1.479-2.635,1.479c-1.87,0-3.587-1.258-3.587-3.723c0-2.703,1.921-3.791,3.773-3.791
				c1.258,0,3.11,0.51,3.791,2.89c0.204,0.714,0.34,1.564,0.34,3.162c0,1.734-0.018,6.205-4.335,6.205
				c-1.598,0-3.468-0.629-3.535-3.077H63.749z M65.704,139.89c-1.377,0-2.107,1.139-2.107,2.533c0,1.53,0.935,2.414,2.227,2.414
				c1.326,0,2.142-0.986,2.142-2.397C67.965,140.74,66.86,139.89,65.704,139.89z"/>
			<path fill="#020202" d="M76.839,143.205l-0.033-1.139h1.614v1.241c0.816-1.343,1.972-1.461,2.703-1.461
				c1.887,0,2.481,0.969,2.787,1.598c0.289-0.476,0.986-1.598,2.873-1.598c1.224,0,3.128,0.51,3.128,3.025v5.729h-1.615v-5.474
				c0-0.748-0.136-1.071-0.289-1.292c-0.271-0.391-0.815-0.748-1.632-0.748c-1.037,0-1.598,0.595-1.818,0.901
				c-0.374,0.527-0.374,1.462-0.374,1.836v4.776h-1.615v-5.644c0-1.054-0.611-1.87-1.869-1.87c-1.088,0-1.684,0.68-1.87,0.935
				c-0.357,0.493-0.374,1.189-0.374,1.733v4.845h-1.615V143.205z"/>
			<path fill="#020202" d="M94.434,151.262c0.068,0.952,0.477,1.666,1.989,1.666c2.227,0,2.261-1.615,2.261-3.926
				c-0.68,1.411-2.295,1.445-2.805,1.445c-0.782,0-1.904-0.17-2.618-1.054c-0.73-0.867-0.969-2.006-0.969-3.145
				c0-2.89,1.7-4.301,3.791-4.301c1.717,0,2.346,0.85,2.686,1.292l0.017-1.173h1.547l-0.034,1.547l-0.017,5.337
				c0,2.057-0.068,2.89-0.408,3.536c-0.714,1.36-2.38,1.53-3.553,1.53c-3.416,0-3.519-1.598-3.586-2.753H94.434z M98.156,148.406
				c0.34-0.442,0.578-0.901,0.578-2.448c0-1.071-0.238-1.683-0.663-2.125c-0.425-0.459-1.104-0.748-1.836-0.748
				c-2.022,0-2.294,2.04-2.294,3.127c0,1.309,0.391,3.043,2.346,3.043C97.222,149.256,97.766,148.916,98.156,148.406z"/>
			<path fill="#020202" d="M105.619,138.479h1.105l-3.961,12.392h-1.122L105.619,138.479z"/>
			<path fill="#020202" d="M113.933,138.343h1.598v10.896c0,0.187,0.034,0.918,0.068,1.36h-1.598l-0.034-1.36
				c-0.136,0.238-0.323,0.595-0.765,0.901c-0.697,0.476-1.53,0.629-2.108,0.629c-1.139,0-3.671-0.595-3.671-4.334
				c0-3.247,1.853-4.658,3.858-4.658c1.836,0,2.447,1.088,2.651,1.445V138.343z M113.338,143.833
				c-0.34-0.442-0.969-0.867-1.87-0.867c-2.346,0-2.346,2.839-2.346,3.417c0,1.513,0.392,3.264,2.346,3.264
				c2.516,0,2.516-2.771,2.516-3.434C113.983,144.972,113.694,144.292,113.338,143.833z"/>
			<path fill="#020202" d="M118.489,138.326h1.683v10.76h5.711v1.513h-7.394V138.326z"/>
			<path fill="#020202" d="M2.957,162.726v5.27h5.831v-5.27h1.699v12.273H8.788v-5.542H2.957v5.542H1.258v-12.273H2.957z"/>
			<path fill="#020202" d="M15.129,167.706c0.221-0.391,0.85-1.461,2.788-1.461c0.85,0,1.92,0.204,2.702,1.088
				c0.425,0.493,1.003,1.343,1.003,3.213c0,1.648-0.391,2.55-0.815,3.11c-0.681,0.969-1.819,1.462-2.992,1.462
				c-0.408,0-1.173-0.051-1.903-0.544c-0.477-0.323-0.663-0.612-0.833-0.867l-0.034,1.292h-1.547l0.034-1.529v-10.744h1.598V167.706
				z M17.543,167.333c-2.448,0-2.448,2.855-2.448,3.399c0,0.562,0,3.229,2.38,3.229c1.972,0,2.465-1.92,2.465-3.314
				C19.939,169.797,19.77,167.333,17.543,167.333z"/>
			<path fill="#020202" d="M27.742,162.726h1.819l4.963,12.273h-1.853l-1.326-3.195h-5.694l-1.325,3.195h-1.751L27.742,162.726z
				 M26.195,170.426h4.641l-2.261-6.018L26.195,170.426z"/>
			<path fill="#020202" d="M39.303,165.088c-0.73,0.612-1.903,1.309-2.736,1.7v-1.7c1.104-0.578,2.192-1.292,2.855-1.853h1.513
				v11.763h-1.632V165.088z"/>
			<path fill="#020202" d="M50.506,169.202c-0.034-0.391-0.153-1.785-1.7-1.785c-2.21,0-2.21,2.566-2.21,3.213
				c0,1.751,0.426,3.383,2.125,3.383c1.36,0,1.819-1.021,1.854-1.854h1.614c-0.102,1.666-1.343,3.061-3.45,3.061
				c-0.578,0-1.904-0.119-2.805-1.105c-0.511-0.595-1.021-1.496-1.021-3.264c0-3.553,2.176-4.606,3.876-4.606
				c0.561,0,1.836,0.119,2.617,1.054c0.629,0.731,0.681,1.428,0.715,1.904H50.506z"/>
			<path fill="#020202" d="M54.06,166.38h1.887v2.006H54.06V166.38z M54.06,172.993h1.887v2.006H54.06V172.993z"/>
			<path fill="#020202" d="M69.018,166.023c-0.017-1.377-1.036-1.751-1.784-1.751c-1.7,0-2.448,1.462-2.601,4.59
				c0.373-0.544,1.02-1.496,2.736-1.496c1.921,0,3.553,1.275,3.553,3.774c0,2.736-1.955,4.113-3.978,4.113
				c-1.139,0-2.278-0.459-2.907-1.274c-0.866-1.156-1.07-2.839-1.07-4.335c0-2.567,0.629-6.646,4.352-6.646
				c1.547,0,2.413,0.68,2.821,1.122c0.595,0.697,0.612,1.445,0.629,1.904H69.018z M69.29,171.293c0-0.833-0.238-2.618-2.193-2.618
				c-1.58,0-2.346,1.292-2.346,2.635c0,1.53,0.952,2.651,2.261,2.651C68.066,173.961,69.29,173.214,69.29,171.293z"/>
			<path fill="#020202" d="M72.929,172.959h1.887v2.039h-1.887V172.959z"/>
			<path fill="#020202" d="M77.146,166.176c0-1.054,0.714-3.212,3.808-3.212c2.481,0,3.909,1.343,3.909,3.145
				c0,1.156-0.748,2.363-2.396,2.669c0.697,0.187,2.566,0.697,2.566,2.975c0,1.614-1.122,3.45-4.045,3.45
				c-1.003,0-2.193-0.204-3.043-0.985c-0.629-0.578-1.037-1.462-1.037-2.363c0-0.782,0.306-1.598,0.901-2.159
				c0.561-0.561,1.173-0.731,1.699-0.901C77.944,168.454,77.146,167.349,77.146,166.176z M80.987,173.86
				c1.887,0,2.346-1.326,2.346-2.21c0-1.309-0.97-2.159-2.313-2.159c-1.444,0-2.396,0.969-2.396,2.209
				C78.624,172.619,79.236,173.86,80.987,173.86z M81.021,164.222c-1.258,0-2.227,0.748-2.227,1.921
				c0,1.139,0.952,1.904,2.176,1.904c1.292,0,2.261-0.748,2.261-1.904C83.23,165.071,82.432,164.222,81.021,164.222z"/>
			<path fill="#020202" d="M92.139,165.921c0,2.108-1.24,3.077-2.787,3.077c-1.479,0-2.737-0.884-2.737-2.975
				c0-1.785,0.969-3.111,2.89-3.111C91.459,162.913,92.139,164.375,92.139,165.921z M90.796,165.989
				c0-0.833-0.204-2.057-1.411-2.057c-1.462,0-1.462,1.666-1.462,2.074c0,0.391,0,2.006,1.462,2.006
				C90.796,168.012,90.796,166.33,90.796,165.989z M88.875,175.662l7.496-13.089h1.122l-7.496,13.089H88.875z M99.244,169.933
				c0.306,0.34,0.697,0.884,0.697,2.159c0,1.853-0.901,3.11-2.737,3.11c-2.176,0-2.787-1.614-2.787-3.025
				c0-2.057,1.274-3.06,2.787-3.06C97.663,169.117,98.581,169.202,99.244,169.933z M98.649,172.126c0-0.527-0.103-2.058-1.428-2.058
				c-1.462,0-1.462,1.769-1.462,2.278c0,0.595,0.136,1.853,1.428,1.853C98.547,174.2,98.649,172.738,98.649,172.126z"/>
			<path fill="#020202" d="M4.232,199.399v-10.828H0.119v-1.445h9.909v1.445H5.915v10.828H4.232z"/>
			<path fill="#020202" d="M16.846,199.399c-0.119-0.425-0.153-0.833-0.153-1.275c-0.765,1.411-1.921,1.547-2.635,1.547
				c-1.954,0-3.008-1.104-3.008-2.516c0-0.68,0.237-1.768,1.495-2.499c0.918-0.51,2.278-0.561,2.958-0.561
				c0.408,0,0.663,0.017,1.156,0.051c0-1.054,0-1.513-0.307-1.887c-0.322-0.425-1.02-0.561-1.479-0.561
				c-1.615,0-1.7,1.104-1.717,1.444H11.56c0.051-0.441,0.102-1.037,0.595-1.614c0.646-0.714,1.853-0.918,2.754-0.918
				c1.24,0,2.566,0.391,3.025,1.258c0.272,0.51,0.289,0.918,0.289,1.309l-0.068,4.08c0,0.136,0.018,1.274,0.137,2.142H16.846z
				 M15.741,195.2c-0.646,0-3.077,0-3.077,1.734c0,0.544,0.34,1.479,1.768,1.479c0.816,0,1.428-0.323,1.819-0.918
				c0.356-0.578,0.374-1.054,0.408-2.243C16.37,195.217,16.132,195.2,15.741,195.2z"/>
			<path fill="#020202" d="M20.978,187.041h1.581v7.31l3.195-3.484h2.091l-3.604,3.62l3.824,4.913h-2.091l-3.416-4.606v4.606h-1.581
				V187.041z"/>
			<path fill="#020202" d="M29.443,187.16h1.921v1.751h-1.921V187.16z M29.613,190.866h1.598v8.533h-1.598V190.866z"/>
			<path fill="#020202" d="M34.373,191.851l-0.017-0.985h1.598l0.017,1.377c0.188-0.357,0.799-1.547,2.737-1.547
				c0.765,0,3.093,0.289,3.093,2.906v5.797H40.17v-5.423c0-0.561-0.068-1.07-0.459-1.462c-0.408-0.391-0.97-0.578-1.514-0.578
				c-1.155,0-2.227,0.833-2.227,2.55v4.913h-1.598V191.851z"/>
			<path fill="#020202" d="M46.239,200.062c0.068,0.951,0.477,1.665,1.989,1.665c2.227,0,2.261-1.614,2.261-3.926
				c-0.68,1.41-2.295,1.444-2.805,1.444c-0.782,0-1.904-0.17-2.618-1.054c-0.73-0.867-0.969-2.006-0.969-3.145
				c0-2.89,1.7-4.301,3.791-4.301c1.717,0,2.346,0.85,2.686,1.292l0.017-1.173h1.547l-0.034,1.547l-0.017,5.337
				c0,2.058-0.068,2.89-0.408,3.536c-0.714,1.359-2.38,1.529-3.553,1.529c-3.416,0-3.519-1.598-3.586-2.753H46.239z M49.962,197.206
				c0.34-0.441,0.578-0.9,0.578-2.447c0-1.071-0.238-1.683-0.663-2.125c-0.425-0.459-1.104-0.748-1.836-0.748
				c-2.022,0-2.294,2.04-2.294,3.128c0,1.309,0.391,3.043,2.346,3.043C49.027,198.056,49.571,197.716,49.962,197.206z"/>
			<path fill="#020202" d="M59.805,192.004l-0.033-1.139h1.614v1.24c0.816-1.343,1.972-1.461,2.703-1.461
				c1.887,0,2.481,0.969,2.787,1.598c0.289-0.477,0.986-1.598,2.873-1.598c1.224,0,3.128,0.51,3.128,3.025v5.729h-1.615v-5.474
				c0-0.748-0.136-1.071-0.289-1.292c-0.271-0.391-0.815-0.748-1.632-0.748c-1.037,0-1.598,0.595-1.818,0.901
				c-0.374,0.526-0.374,1.462-0.374,1.836v4.776h-1.615v-5.644c0-1.054-0.611-1.87-1.869-1.87c-1.088,0-1.684,0.68-1.87,0.936
				c-0.357,0.492-0.374,1.189-0.374,1.733v4.845h-1.615V192.004z"/>
			<path fill="#020202" d="M76.839,195.421c-0.034,1.768,0.697,3.076,2.447,3.076c1.037,0,1.87-0.544,2.006-1.768h1.599
				c-0.052,0.425-0.119,1.122-0.731,1.785c-0.374,0.425-1.224,1.139-2.94,1.139c-2.686,0-3.961-1.666-3.961-4.369
				c0-1.683,0.34-3.076,1.683-4.011c0.816-0.578,1.836-0.629,2.329-0.629c3.824,0,3.739,3.382,3.706,4.776H76.839z M81.344,194.299
				c0.017-0.816-0.137-2.516-2.108-2.516c-1.037,0-2.295,0.629-2.328,2.516H81.344z"/>
			<path fill="#020202" d="M84.013,190.832h1.514v-1.785l1.58-0.51v2.295h1.904v1.173h-1.904v5.116c0,0.425,0,1.14,1.14,1.14
				c0.322,0,0.629-0.052,0.765-0.085v1.24c-0.289,0.051-0.748,0.103-1.326,0.103c-1.462,0-2.158-0.426-2.158-1.819v-5.694h-1.514
				V190.832z"/>
			<path fill="#020202" d="M95.25,188.316c-0.272-0.018-0.612-0.034-0.936-0.034c-1.291,0-1.291,0.646-1.291,1.241v1.343h1.988
				v1.155h-1.988v7.378h-1.581v-7.378H89.76v-1.155h1.683v-0.969c0-1.173,0.067-1.599,0.356-2.04
				c0.357-0.544,1.037-0.935,2.142-0.935c0.459,0,0.97,0.067,1.31,0.118V188.316z"/>
			<path fill="#020202" d="M100.349,190.645c3.417,0,4.182,2.686,4.182,4.47c0,2.499-1.41,4.573-4.317,4.573
				c-2.821,0-4.198-1.955-4.198-4.454C96.015,193.126,97,190.645,100.349,190.645z M100.247,198.498
				c1.207,0,2.584-0.866,2.584-3.434c0-2.125-0.986-3.246-2.482-3.246c-1.02,0-2.668,0.646-2.668,3.314
				C97.681,196.883,98.428,198.498,100.247,198.498z"/>
			<path fill="#020202" d="M107.116,192.599c0-0.578-0.034-1.173-0.085-1.733h1.614l0.034,1.648c0.306-1.189,1.326-1.581,2.04-1.683
				c0.476-0.068,0.833-0.051,1.104-0.034v1.564c-0.085-0.034-0.187-0.052-0.306-0.068s-0.272-0.017-0.459-0.017
				c-1.887,0-2.329,1.121-2.329,2.583v4.539h-1.614V192.599z"/>
			<path fill="#020202" d="M113.626,192.004l-0.033-1.139h1.614v1.24c0.816-1.343,1.972-1.461,2.703-1.461
				c1.887,0,2.481,0.969,2.787,1.598c0.289-0.477,0.986-1.598,2.873-1.598c1.224,0,3.128,0.51,3.128,3.025v5.729h-1.615v-5.474
				c0-0.748-0.136-1.071-0.289-1.292c-0.271-0.391-0.815-0.748-1.632-0.748c-1.037,0-1.598,0.595-1.818,0.901
				c-0.374,0.526-0.374,1.462-0.374,1.836v4.776h-1.615v-5.644c0-1.054-0.611-1.87-1.869-1.87c-1.088,0-1.684,0.68-1.87,0.936
				c-0.357,0.492-0.374,1.189-0.374,1.733v4.845h-1.615V192.004z"/>
			<path fill="#020202" d="M129.538,187.16h1.921v1.751h-1.921V187.16z M129.708,190.866h1.598v8.533h-1.598V190.866z"/>
			<path fill="#020202" d="M134.468,191.851l-0.017-0.985h1.598l0.017,1.377c0.188-0.357,0.799-1.547,2.737-1.547
				c0.765,0,3.094,0.289,3.094,2.906v5.797h-1.633v-5.423c0-0.561-0.067-1.07-0.458-1.462c-0.408-0.391-0.97-0.578-1.514-0.578
				c-1.155,0-2.227,0.833-2.227,2.55v4.913h-1.598V191.851z"/>
			<path fill="#020202" d="M150.754,196.611c0.034,1.19,1.071,1.666,1.955,1.666c2.057,0,2.328-1.938,2.328-2.703
				c0-1.598-0.866-2.532-2.227-2.532c-0.68,0-1.224,0.255-1.581,0.611c-0.356,0.357-0.459,0.715-0.544,0.986h-1.547l0.307-7.003
				h6.612v1.377h-5.15l-0.222,3.808c0.357-0.357,1.105-1.088,2.482-1.088c2.362,0,3.519,1.853,3.519,3.875
				c0,2.312-1.632,4.063-4.199,4.063c-1.903,0-3.416-1.054-3.501-3.06H150.754z"/>
			<path fill="#020202" d="M162.178,187.398c3.519,0,3.943,3.773,3.943,5.983c0,2.788-0.561,4.352-1.632,5.354
				c-0.833,0.782-1.818,0.9-2.346,0.9c-1.563,0-2.635-0.917-3.145-1.954c-0.391-0.782-0.765-1.921-0.765-4.029
				C158.234,191.903,158.438,187.398,162.178,187.398z M162.161,198.226c1.972,0,2.312-2.584,2.312-4.691
				c0-2.822-0.493-4.777-2.277-4.777c-2.058,0-2.329,2.703-2.329,4.811C159.866,196.186,160.376,198.226,162.161,198.226z"/>
			<path fill="#020202" d="M171.63,187.398c3.519,0,3.943,3.773,3.943,5.983c0,2.788-0.561,4.352-1.632,5.354
				c-0.833,0.782-1.818,0.9-2.346,0.9c-1.563,0-2.635-0.917-3.145-1.954c-0.391-0.782-0.765-1.921-0.765-4.029
				C167.687,191.903,167.891,187.398,171.63,187.398z M171.613,198.226c1.972,0,2.312-2.584,2.312-4.691
				c0-2.822-0.493-4.777-2.277-4.777c-2.058,0-2.329,2.703-2.329,4.811C169.318,196.186,169.828,198.226,171.613,198.226z"/>
			<path fill="#020202" d="M182.595,192.004l-0.033-1.139h1.614v1.24c0.816-1.343,1.972-1.461,2.703-1.461
				c1.887,0,2.481,0.969,2.787,1.598c0.289-0.477,0.986-1.598,2.873-1.598c1.224,0,3.128,0.51,3.128,3.025v5.729h-1.615v-5.474
				c0-0.748-0.136-1.071-0.289-1.292c-0.271-0.391-0.815-0.748-1.632-0.748c-1.037,0-1.598,0.595-1.818,0.901
				c-0.374,0.526-0.374,1.462-0.374,1.836v4.776h-1.615v-5.644c0-1.054-0.611-1.87-1.869-1.87c-1.088,0-1.684,0.68-1.87,0.936
				c-0.357,0.492-0.374,1.189-0.374,1.733v4.845h-1.615V192.004z"/>
			<path fill="#020202" d="M200.189,200.062c0.068,0.951,0.477,1.665,1.989,1.665c2.227,0,2.261-1.614,2.261-3.926
				c-0.68,1.41-2.295,1.444-2.805,1.444c-0.782,0-1.904-0.17-2.618-1.054c-0.73-0.867-0.969-2.006-0.969-3.145
				c0-2.89,1.7-4.301,3.791-4.301c1.717,0,2.346,0.85,2.686,1.292l0.017-1.173h1.547l-0.034,1.547l-0.017,5.337
				c0,2.058-0.068,2.89-0.408,3.536c-0.714,1.359-2.38,1.529-3.553,1.529c-3.416,0-3.519-1.598-3.586-2.753H200.189z
				 M203.912,197.206c0.34-0.441,0.578-0.9,0.578-2.447c0-1.071-0.238-1.683-0.663-2.125c-0.425-0.459-1.104-0.748-1.836-0.748
				c-2.022,0-2.294,2.04-2.294,3.128c0,1.309,0.391,3.043,2.346,3.043C202.978,198.056,203.521,197.716,203.912,197.206z"/>
			<path fill="#020202" d="M213.892,187.125h4.385c1.496,0,2.329,0.153,3.094,0.901c0.527,0.51,0.867,1.224,0.867,2.192
				c0,2.023-1.479,2.55-2.073,2.771c0.714,0.203,2.447,0.714,2.447,3.06c0,1.666-1.071,2.516-1.479,2.787
				c-0.851,0.562-1.802,0.562-2.771,0.562h-4.47V187.125z M215.54,192.31h2.38c0.578,0,2.55,0,2.55-1.938
				c0-1.853-1.547-1.853-2.481-1.853h-2.448V192.31z M215.54,198.022h2.906c1.344,0,2.414-0.714,2.414-2.125
				c0-1.224-0.85-2.125-2.346-2.125h-2.975V198.022z"/>
			<path fill="#020202" d="M225.111,187.125h1.699v12.273h-1.699V187.125z"/>
			<path fill="#020202" d="M229.838,187.125h3.553c1.648,0,3.586,0,4.946,1.599c1.088,1.274,1.513,2.957,1.513,4.641
				c0,2.651-1.104,4.283-2.04,5.031c-1.207,1.003-2.72,1.003-4.521,1.003h-3.45V187.125z M231.537,198.004h1.666
				c1.173,0,2.396-0.067,3.213-0.68c1.563-1.173,1.615-3.179,1.615-3.893c0-0.459-0.034-2.55-1.19-3.824
				c-0.782-0.867-1.768-1.071-3.264-1.071h-2.04V198.004z"/>
			<path fill="#020202" d="M0.781,235.91h4.301l2.601,8.94l2.805-8.94h4.182v12.289h-2.617V237.66l-3.349,10.539H6.527L3.246,237.66
				v10.539H0.781V235.91z"/>
			<path fill="#020202" d="M18.938,244.544c0,0.561,0,2.295,1.751,2.295c0.629,0,1.258-0.238,1.495-1.19h2.295
				c-0.034,0.408-0.119,1.14-0.815,1.87c-0.629,0.663-1.751,1.003-3.009,1.003c-0.731,0-2.125-0.136-3.026-1.071
				c-0.781-0.815-1.104-1.972-1.104-3.349c0-1.394,0.34-3.06,1.785-4.063c0.663-0.441,1.479-0.714,2.413-0.714
				c1.225,0,2.687,0.477,3.468,2.074c0.578,1.173,0.544,2.431,0.51,3.145H18.938z M22.133,242.963c0-0.391-0.034-1.921-1.496-1.921
				c-1.104,0-1.563,0.918-1.614,1.921H22.133z"/>
			<path fill="#020202" d="M26.4,241.145c0-0.034,0-0.969-0.051-1.564h2.414l0.067,1.292c0.238-0.391,0.918-1.496,2.788-1.496
				c1.683,0,2.396,1.021,2.617,1.615c0.188,0.527,0.238,0.969,0.238,2.566v4.641h-2.566v-5.337c0-0.357,0-0.663-0.136-0.936
				c-0.188-0.374-0.578-0.73-1.225-0.73c-0.544,0-1.036,0.255-1.309,0.663c-0.153,0.221-0.306,0.646-0.306,1.309v5.031H26.4V241.145
				z"/>
			<path fill="#020202" d="M40.799,239.411c3.11,0,4.454,2.108,4.454,4.505c0,2.414-1.395,4.59-4.505,4.59
				c-2.448,0-4.386-1.514-4.386-4.521C36.362,241.91,37.416,239.411,40.799,239.411z M40.833,246.754
				c1.104,0,1.853-0.663,1.853-2.941c0-1.139-0.221-2.72-1.887-2.72c-1.836,0-1.853,2.125-1.853,2.907
				C38.946,245.921,39.592,246.754,40.833,246.754z"/>
			<path fill="#020202" d="M49.503,239.615l0.067,1.224c0.782-1.377,2.21-1.394,2.618-1.394c2.227,0,3.569,1.666,3.569,4.283
				c0,2.432-1.258,4.59-3.739,4.59c-1.547,0-2.176-0.815-2.396-1.104v4.283h-2.567v-11.882H49.503z M53.208,243.831
				c0-1.021-0.255-2.771-1.733-2.771c-0.816,0-1.972,0.611-1.972,2.924c0,0.51,0.017,2.686,1.87,2.686
				C52.563,246.669,53.208,245.53,53.208,243.831z"/>
			<path fill="#020202" d="M62.678,248.199c-0.086-0.526-0.086-0.918-0.086-1.173c-0.951,1.377-2.09,1.377-2.566,1.377
				c-1.241,0-1.802-0.356-2.142-0.68c-0.51-0.51-0.748-1.207-0.748-1.887s0.238-1.938,1.819-2.669
				c1.054-0.476,2.566-0.476,3.399-0.476c0-0.562-0.018-0.833-0.119-1.14c-0.221-0.629-0.884-0.714-1.122-0.714
				c-0.356,0-0.73,0.153-0.952,0.477c-0.187,0.289-0.187,0.561-0.187,0.765H57.51c0.017-0.459,0.068-1.377,0.969-2.022
				c0.782-0.562,1.785-0.697,2.601-0.697c0.714,0,2.21,0.119,3.06,1.104c0.578,0.697,0.596,1.717,0.596,2.108l0.017,3.45
				c0,0.731,0.051,1.462,0.204,2.176H62.678z M59.584,245.547c0,0.578,0.391,1.224,1.224,1.224c0.459,0,0.833-0.221,1.07-0.493
				c0.442-0.544,0.477-1.206,0.477-2.124C60.739,244.017,59.584,244.528,59.584,245.547z"/>
			<path fill="#020202" d="M69.443,239.615v5.116c0,0.748,0,1.887,1.343,1.887c1.615,0,1.615-1.206,1.615-2.668v-4.335h2.584v5.66
				c0.034,1.854,0.051,2.074,0.051,2.295c0.017,0.238,0.034,0.392,0.068,0.629h-2.448l-0.085-1.139
				c-0.255,0.374-0.9,1.36-2.532,1.36c-1.156,0-2.108-0.527-2.584-1.156c-0.562-0.697-0.562-1.887-0.562-2.312v-5.338H69.443z"/>
			<path fill="#020202" d="M79.116,245.717c0.034,0.544,0.374,1.173,1.428,1.173c0.901,0,1.326-0.51,1.326-1.02
				c0-0.392-0.204-0.697-1.189-0.97l-1.564-0.425c-0.696-0.204-2.176-0.629-2.176-2.38c0-1.665,1.53-2.686,3.757-2.686
				c1.768,0,3.195,0.816,3.264,2.533h-2.295c-0.067-0.952-0.833-1.021-1.224-1.021c-0.68,0-1.19,0.323-1.19,0.851
				c0,0.578,0.426,0.696,1.174,0.9l1.547,0.425c1.563,0.426,2.294,1.225,2.294,2.397c0,1.479-1.274,2.957-3.943,2.957
				c-1.104,0-2.159-0.237-2.94-1.054c-0.562-0.595-0.612-1.274-0.629-1.683H79.116z"/>
			<path fill="#020202" d="M91.016,248.199c-0.085-0.526-0.085-0.918-0.085-1.173c-0.951,1.377-2.091,1.377-2.566,1.377
				c-1.241,0-1.802-0.356-2.142-0.68c-0.51-0.51-0.748-1.207-0.748-1.887s0.238-1.938,1.819-2.669
				c1.054-0.476,2.566-0.476,3.399-0.476c0-0.562-0.018-0.833-0.119-1.14c-0.221-0.629-0.884-0.714-1.122-0.714
				c-0.356,0-0.73,0.153-0.952,0.477c-0.187,0.289-0.187,0.561-0.187,0.765h-2.465c0.017-0.459,0.068-1.377,0.969-2.022
				c0.782-0.562,1.785-0.697,2.601-0.697c0.714,0,2.21,0.119,3.06,1.104c0.578,0.697,0.596,1.717,0.596,2.108l0.017,3.45
				c0,0.731,0.051,1.462,0.204,2.176H91.016z M87.923,245.547c0,0.578,0.391,1.224,1.224,1.224c0.459,0,0.833-0.221,1.07-0.493
				c0.442-0.544,0.477-1.206,0.477-2.124C89.078,244.017,87.923,244.528,87.923,245.547z"/>
			<path fill="#020202" d="M95.317,235.91h2.517v12.289h-2.517V235.91z"/>
			<path fill="#020202" d="M0.935,260.326H3.62v10.183h5.27v2.091H0.935V260.326z"/>
			<path fill="#020202" d="M10.233,260.326h2.687v2.193h-2.687V260.326z M10.318,263.998h2.517v8.602h-2.517V263.998z"/>
			<path fill="#020202" d="M17.407,264.015l0.067,1.224c0.782-1.377,2.21-1.394,2.618-1.394c2.227,0,3.569,1.665,3.569,4.283
				c0,2.431-1.258,4.59-3.739,4.59c-1.547,0-2.176-0.816-2.396-1.105v4.284h-2.567v-11.882H17.407z M21.112,268.23
				c0-1.02-0.255-2.771-1.733-2.771c-0.816,0-1.972,0.612-1.972,2.924c0,0.51,0.017,2.686,1.87,2.686
				C20.467,271.069,21.112,269.93,21.112,268.23z"/>
			<path fill="#020202" d="M25.346,260.326h2.687v2.193h-2.687V260.326z M25.431,263.998h2.517v8.602h-2.517V263.998z"/>
			<path fill="#020202" d="M35.835,260.326h2.533v10.879c0,0.511,0.033,1.071,0.067,1.395h-2.55l-0.067-1.241
				c-0.17,0.306-0.34,0.629-0.867,0.969c-0.629,0.408-1.292,0.442-1.666,0.442c-2.295,0-3.654-1.581-3.654-4.267
				c0-2.839,1.547-4.606,3.79-4.606c1.547,0,2.193,0.866,2.414,1.173V260.326z M33.914,271.137c0.731,0,1.326-0.442,1.598-0.969
				c0.374-0.714,0.408-1.599,0.408-2.023c0-1.683-0.73-2.601-1.87-2.601c-1.683,0-1.869,2.023-1.869,2.89
				C32.181,269.862,32.656,271.137,33.914,271.137z"/>
			<path fill="#020202" d="M47.633,264.015l0.068,1.224c0.781-1.377,2.209-1.394,2.617-1.394c2.227,0,3.569,1.665,3.569,4.283
				c0,2.431-1.258,4.59-3.739,4.59c-1.547,0-2.176-0.816-2.396-1.105v4.284h-2.567v-11.882H47.633z M51.338,268.23
				c0-1.02-0.255-2.771-1.733-2.771c-0.815,0-1.972,0.612-1.972,2.924c0,0.51,0.017,2.686,1.87,2.686
				C50.692,271.069,51.338,269.93,51.338,268.23z"/>
			<path fill="#020202" d="M55.657,266.123c0-0.408-0.067-1.648-0.118-2.142h2.362l0.051,1.648c0.323-0.73,0.884-1.768,2.924-1.666
				v2.261c-2.55-0.237-2.702,1.071-2.702,2.143v4.232h-2.517V266.123z"/>
			<path fill="#020202" d="M66.315,263.811c3.11,0,4.454,2.107,4.454,4.504c0,2.414-1.395,4.59-4.505,4.59
				c-2.448,0-4.386-1.513-4.386-4.521C61.879,266.309,62.933,263.811,66.315,263.811z M66.35,271.154
				c1.104,0,1.853-0.663,1.853-2.94c0-1.139-0.221-2.72-1.887-2.72c-1.836,0-1.853,2.125-1.853,2.906
				C64.463,270.321,65.108,271.154,66.35,271.154z"/>
			<path fill="#020202" d="M72.878,265.799h-1.292v-1.784h1.292v-1.173c0-1.514,0.492-2.737,2.94-2.737c0.187,0,0.663,0,1.359,0.085
				v1.751c-0.255-0.034-0.322-0.051-0.526-0.051c-1.275,0-1.275,0.68-1.275,1.122v1.003h1.581v1.784h-1.581v6.8h-2.498V265.799z
				 M78.232,260.326h2.686v2.193h-2.686V260.326z M78.317,263.998h2.516v8.602h-2.516V263.998z"/>
			<path fill="#020202" d="M83.043,260.309h2.517v12.29h-2.517V260.309z"/>
			<path fill="#020202" d="M89.793,268.944c0,0.562,0,2.295,1.751,2.295c0.629,0,1.258-0.237,1.495-1.189h2.295
				c-0.034,0.408-0.119,1.139-0.815,1.87c-0.629,0.662-1.751,1.002-3.009,1.002c-0.731,0-2.125-0.136-3.026-1.07
				c-0.781-0.816-1.104-1.972-1.104-3.349c0-1.394,0.34-3.06,1.785-4.063c0.663-0.442,1.479-0.714,2.413-0.714
				c1.225,0,2.687,0.476,3.468,2.073c0.578,1.173,0.544,2.431,0.51,3.145H89.793z M92.988,267.364c0-0.392-0.034-1.921-1.496-1.921
				c-1.104,0-1.563,0.918-1.614,1.921H92.988z"/>
			<path fill="#020202" d="M97.409,264.015h2.142v2.294h-2.142V264.015z M97.409,270.321h2.142v2.278h-2.142V270.321z"/>
			<path fill="#020202" d="M4.232,296.999V286.17H0.119v-1.444h9.909v1.444H5.915v10.828H4.232z"/>
			<path fill="#020202" d="M19.038,288.041c-0.067-0.425-0.288-2.125-2.651-2.125c-2.958,0-3.484,3.026-3.484,5.065
				c0,2.313,0.663,4.811,3.468,4.811c0.748,0,1.462-0.187,1.988-0.73c0.442-0.476,0.544-1.003,0.595-1.292h1.87
				c-0.255,2.414-2.481,3.417-4.59,3.417c-4.317,0-5.15-3.808-5.15-6.188c0-2.584,1.003-6.442,5.372-6.442
				c1.733,0,4.182,0.697,4.402,3.484H19.038z"/>
			<path fill="#020202" d="M26.248,286.498l-1.706-0.188l1.012,1.369l-0.645,0.396l-0.665-1.567l-0.714,1.548l-0.674-0.367
				l1.051-1.379l-1.646,0.139v-0.724l1.677,0.218l-1.012-1.389l0.654-0.356l0.664,1.537l0.685-1.547l0.665,0.366l-1.042,1.389
				l1.696-0.188V286.498z"/>
			<path fill="#020202" d="M28.409,288.38h1.887v2.006h-1.887V288.38z M28.409,294.993h1.887v2.006h-1.887V294.993z"/>
			<path fill="#020202" d="M37.352,295.452l3.076-3.025c0.646-0.629,1.292-1.309,1.819-2.022c0.68-0.936,0.866-1.462,0.866-2.091
				c0-0.578-0.204-1.921-1.887-1.921c-1.887,0-1.921,1.614-1.921,2.057h-1.784c0.017-0.578,0.067-1.7,1.088-2.584
				c0.815-0.696,1.802-0.85,2.55-0.85c1.802,0,3.637,0.918,3.637,3.434c0,0.748-0.051,1.326-1.325,2.94
				c-0.34,0.425-1.836,1.972-2.176,2.312l-2.057,1.955h5.592v1.343h-7.479V295.452z"/>
			<path fill="#020202" d="M50.509,287.088c-0.73,0.612-1.903,1.31-2.736,1.7v-1.7c1.104-0.577,2.192-1.291,2.855-1.853h1.513
				v11.763h-1.632V287.088z"/>
			<path fill="#020202" d="M56.221,288.176c0-1.054,0.714-3.212,3.808-3.212c2.481,0,3.909,1.343,3.909,3.145
				c0,1.155-0.748,2.362-2.396,2.669c0.697,0.187,2.566,0.696,2.566,2.975c0,1.614-1.122,3.45-4.045,3.45
				c-1.003,0-2.193-0.204-3.043-0.985c-0.629-0.578-1.037-1.462-1.037-2.363c0-0.782,0.306-1.598,0.901-2.158
				c0.561-0.562,1.173-0.731,1.699-0.901C57.02,290.455,56.221,289.349,56.221,288.176z M60.063,295.86
				c1.887,0,2.346-1.326,2.346-2.21c0-1.309-0.97-2.158-2.313-2.158c-1.444,0-2.396,0.969-2.396,2.209
				C57.699,294.619,58.312,295.86,60.063,295.86z M60.096,286.222c-1.258,0-2.227,0.748-2.227,1.921
				c0,1.139,0.952,1.903,2.176,1.903c1.292,0,2.261-0.748,2.261-1.903C62.306,287.072,61.507,286.222,60.096,286.222z"/>
			<path fill="#020202" d="M71.011,289.605l-0.033-1.14h1.614v1.241c0.816-1.343,1.972-1.462,2.703-1.462
				c1.887,0,2.481,0.969,2.787,1.598c0.289-0.476,0.986-1.598,2.873-1.598c1.224,0,3.128,0.51,3.128,3.025v5.729h-1.615v-5.474
				c0-0.747-0.136-1.07-0.289-1.291c-0.271-0.392-0.815-0.748-1.632-0.748c-1.037,0-1.598,0.595-1.818,0.9
				c-0.374,0.527-0.374,1.462-0.374,1.836v4.776h-1.615v-5.644c0-1.054-0.611-1.869-1.869-1.869c-1.088,0-1.684,0.68-1.87,0.935
				c-0.357,0.493-0.374,1.189-0.374,1.733v4.845h-1.615V289.605z"/>
			<path fill="#020202" d="M88.605,297.662c0.068,0.952,0.477,1.666,1.989,1.666c2.227,0,2.261-1.615,2.261-3.927
				c-0.68,1.411-2.295,1.445-2.805,1.445c-0.782,0-1.904-0.17-2.618-1.055c-0.73-0.866-0.969-2.006-0.969-3.145
				c0-2.89,1.7-4.301,3.791-4.301c1.717,0,2.346,0.851,2.686,1.292l0.017-1.173h1.547l-0.034,1.547l-0.017,5.338
				c0,2.057-0.068,2.89-0.408,3.535c-0.714,1.36-2.38,1.53-3.553,1.53c-3.416,0-3.519-1.598-3.586-2.754H88.605z M92.328,294.806
				c0.34-0.442,0.578-0.901,0.578-2.448c0-1.07-0.238-1.683-0.663-2.124c-0.425-0.459-1.104-0.748-1.836-0.748
				c-2.022,0-2.294,2.039-2.294,3.127c0,1.31,0.391,3.043,2.346,3.043C91.394,295.656,91.938,295.316,92.328,294.806z"/>
			<path fill="#020202" d="M99.791,284.879h1.105l-3.961,12.392h-1.122L99.791,284.879z"/>
			<path fill="#020202" d="M108.104,284.743h1.598v10.896c0,0.187,0.034,0.918,0.068,1.359h-1.598l-0.034-1.359
				c-0.136,0.237-0.323,0.595-0.765,0.9c-0.697,0.477-1.53,0.629-2.108,0.629c-1.139,0-3.671-0.595-3.671-4.334
				c0-3.247,1.853-4.658,3.858-4.658c1.836,0,2.447,1.088,2.651,1.445V284.743z M107.509,290.234
				c-0.34-0.442-0.969-0.867-1.87-0.867c-2.346,0-2.346,2.839-2.346,3.417c0,1.513,0.391,3.264,2.346,3.264
				c2.516,0,2.516-2.771,2.516-3.435C108.154,291.373,107.865,290.693,107.509,290.234z"/>
			<path fill="#020202" d="M112.66,284.726h1.683v10.76h5.712v1.513h-7.395V284.726z"/>
			<path fill="#020202" d="M128.521,299.089c-0.918-2.261-2.022-5.082-2.022-7.564c0-1.343,0.306-2.668,0.696-3.96
				c0.477-1.53,0.918-2.618,1.207-3.349h1.122c-0.272,0.833-0.646,1.988-1.003,3.604c-0.357,1.563-0.476,2.617-0.476,3.672
				c0,2.413,0.595,4.368,1.58,7.598H128.521z"/>
			<path fill="#020202" d="M133.638,294.211c0.034,1.189,1.071,1.665,1.955,1.665c2.057,0,2.328-1.938,2.328-2.702
				c0-1.598-0.866-2.533-2.227-2.533c-0.68,0-1.224,0.255-1.581,0.612c-0.356,0.356-0.459,0.714-0.544,0.986h-1.547l0.307-7.004
				h6.612v1.377h-5.15l-0.222,3.808c0.357-0.356,1.105-1.088,2.482-1.088c2.362,0,3.519,1.853,3.519,3.876
				c0,2.312-1.632,4.063-4.199,4.063c-1.903,0-3.416-1.054-3.501-3.06H133.638z"/>
			<path fill="#020202" d="M141.747,294.959h1.887v2.039h-1.887V294.959z"/>
			<path fill="#020202" d="M152.015,288.024c-0.017-1.377-1.036-1.751-1.784-1.751c-1.7,0-2.448,1.462-2.601,4.59
				c0.373-0.544,1.02-1.496,2.736-1.496c1.921,0,3.553,1.274,3.553,3.773c0,2.736-1.955,4.113-3.978,4.113
				c-1.139,0-2.278-0.459-2.907-1.274c-0.866-1.156-1.07-2.839-1.07-4.335c0-2.566,0.629-6.646,4.352-6.646
				c1.547,0,2.413,0.681,2.821,1.122c0.595,0.697,0.612,1.445,0.629,1.904H152.015z M152.287,293.293
				c0-0.833-0.238-2.618-2.193-2.618c-1.58,0-2.346,1.292-2.346,2.635c0,1.53,0.952,2.651,2.261,2.651
				C151.063,295.961,152.287,295.214,152.287,293.293z"/>
			<path fill="#020202" d="M160.753,289.605l-0.033-1.14h1.614v1.241c0.816-1.343,1.972-1.462,2.703-1.462
				c1.887,0,2.481,0.969,2.787,1.598c0.289-0.476,0.986-1.598,2.873-1.598c1.224,0,3.128,0.51,3.128,3.025v5.729h-1.615v-5.474
				c0-0.747-0.136-1.07-0.289-1.291c-0.271-0.392-0.815-0.748-1.632-0.748c-1.037,0-1.598,0.595-1.818,0.9
				c-0.374,0.527-0.374,1.462-0.374,1.836v4.776h-1.615v-5.644c0-1.054-0.611-1.869-1.869-1.869c-1.088,0-1.684,0.68-1.87,0.935
				c-0.357,0.493-0.374,1.189-0.374,1.733v4.845h-1.615V289.605z"/>
			<path fill="#020202" d="M176.801,289.605l-0.033-1.14h1.614v1.241c0.816-1.343,1.972-1.462,2.703-1.462
				c1.887,0,2.481,0.969,2.787,1.598c0.289-0.476,0.986-1.598,2.873-1.598c1.224,0,3.128,0.51,3.128,3.025v5.729h-1.615v-5.474
				c0-0.747-0.136-1.07-0.289-1.291c-0.271-0.392-0.815-0.748-1.632-0.748c-1.037,0-1.598,0.595-1.818,0.9
				c-0.374,0.527-0.374,1.462-0.374,1.836v4.776h-1.615v-5.644c0-1.054-0.611-1.869-1.869-1.869c-1.088,0-1.684,0.68-1.87,0.935
				c-0.357,0.493-0.374,1.189-0.374,1.733v4.845h-1.615V289.605z"/>
			<path fill="#020202" d="M196.571,288.245c3.417,0,4.182,2.686,4.182,4.471c0,2.499-1.41,4.572-4.317,4.572
				c-2.821,0-4.198-1.955-4.198-4.453C192.237,290.726,193.223,288.245,196.571,288.245z M196.47,296.098
				c1.207,0,2.584-0.867,2.584-3.434c0-2.125-0.986-3.247-2.482-3.247c-1.02,0-2.668,0.646-2.668,3.314
				C193.903,294.483,194.65,296.098,196.47,296.098z"/>
			<path fill="#020202" d="M203.287,284.743h1.598v12.256h-1.598V284.743z"/>
			<path fill="#020202" d="M210.307,284.879h1.105l-3.961,12.392h-1.122L210.307,284.879z"/>
			<path fill="#020202" d="M212.79,284.726h1.683v10.76h5.711v1.513h-7.394V284.726z"/>
			<path fill="#020202" d="M223.057,284.216c0.918,2.261,2.023,5.065,2.023,7.547c0,1.343-0.307,2.669-0.697,3.961
				c-0.476,1.529-0.918,2.635-1.207,3.365h-1.122c0.272-0.85,0.646-2.006,1.003-3.62c0.357-1.547,0.477-2.618,0.477-3.672
				c0-2.396-0.596-4.352-1.581-7.581H223.057z"/>
			<path fill="#020202" d="M1.343,309.125h1.683v10.761h5.711v1.513H1.343V309.125z"/>
			<path fill="#020202" d="M10.71,309.125h3.553c1.648,0,3.586,0,4.946,1.599c1.088,1.274,1.513,2.957,1.513,4.641
				c0,2.651-1.104,4.283-2.04,5.031c-1.207,1.003-2.72,1.003-4.521,1.003h-3.45V309.125z M12.409,320.004h1.666
				c1.173,0,2.396-0.067,3.213-0.68c1.563-1.173,1.615-3.179,1.615-3.893c0-0.459-0.034-2.55-1.19-3.824
				c-0.782-0.867-1.768-1.071-3.264-1.071h-2.04V320.004z"/>
			<path fill="#020202" d="M23.068,309.125h1.683v10.761h5.712v1.513h-7.395V309.125z"/>
			<path fill="#020202" d="M31.653,316.282h4.267v1.292h-4.267V316.282z"/>
			<path fill="#020202" d="M45.49,312.441c-0.067-0.425-0.288-2.125-2.651-2.125c-2.958,0-3.484,3.025-3.484,5.065
				c0,2.312,0.663,4.811,3.468,4.811c0.748,0,1.462-0.188,1.988-0.731c0.442-0.476,0.544-1.003,0.595-1.291h1.87
				c-0.255,2.413-2.481,3.416-4.59,3.416c-4.317,0-5.15-3.808-5.15-6.188c0-2.583,1.003-6.442,5.372-6.442
				c1.733,0,4.182,0.697,4.402,3.485H45.49z"/>
			<path fill="#020202" d="M52.7,310.898l-1.706-0.188l1.012,1.368l-0.645,0.396l-0.665-1.566l-0.714,1.547l-0.674-0.367
				l1.051-1.378l-1.646,0.139v-0.725l1.677,0.219l-1.012-1.389l0.654-0.357l0.664,1.537l0.685-1.547l0.665,0.367l-1.042,1.389
				l1.696-0.188V310.898z"/>
			<path fill="#020202" d="M58.21,310.898l-1.706-0.188l1.012,1.368l-0.645,0.396l-0.665-1.566l-0.714,1.547l-0.674-0.367
				l1.051-1.378l-1.646,0.139v-0.725l1.677,0.219l-1.012-1.389l0.654-0.357l0.664,1.537l0.685-1.547l0.665,0.367l-1.042,1.389
				l1.696-0.188V310.898z"/>
			<path fill="#020202" d="M60.371,312.781h1.887v2.006h-1.887V312.781z M60.371,319.393h1.887v2.006h-1.887V319.393z"/>
			<path fill="#020202" d="M73.019,311.489c-0.73,0.612-1.903,1.309-2.736,1.7v-1.7c1.104-0.578,2.192-1.292,2.855-1.853h1.513
				v11.763h-1.632V311.489z"/>
			<path fill="#020202" d="M80.313,318.373c-0.018,1.122,0.714,1.921,2.158,1.921c1.648,0,2.346-1.054,2.346-2.091
				c0-1.24-0.833-1.887-1.699-2.073c-0.612-0.119-1.037-0.103-1.632-0.085v-1.377c1.173,0.102,3.145-0.136,3.145-2.04
				c0-1.326-0.901-1.853-2.074-1.853c-0.884,0-1.988,0.391-2.142,1.853h-1.717c0.102-2.924,2.855-3.213,3.808-3.213
				c2.566,0,3.842,1.547,3.842,3.179c0,0.969-0.527,2.363-2.346,2.771c2.516,0.356,2.516,2.617,2.516,2.855
				c0,1.648-1.343,3.468-4.08,3.468c-1.24,0-2.481-0.357-3.229-1.225c-0.663-0.747-0.68-1.598-0.697-2.091H80.313z"/>
			<path fill="#020202" d="M88.218,319.852l3.076-3.026c0.646-0.629,1.292-1.309,1.819-2.022c0.68-0.935,0.866-1.462,0.866-2.091
				c0-0.578-0.204-1.921-1.887-1.921c-1.887,0-1.921,1.615-1.921,2.057h-1.784c0.017-0.577,0.067-1.699,1.088-2.583
				c0.815-0.697,1.802-0.851,2.55-0.851c1.802,0,3.637,0.918,3.637,3.434c0,0.748-0.051,1.326-1.325,2.941
				c-0.34,0.425-1.836,1.972-2.176,2.312l-2.057,1.955h5.592v1.343h-7.479V319.852z"/>
			<path fill="#020202" d="M102.973,314.004l-0.033-1.139h1.614v1.24c0.816-1.343,1.972-1.461,2.703-1.461
				c1.887,0,2.481,0.969,2.787,1.598c0.289-0.477,0.986-1.598,2.873-1.598c1.224,0,3.128,0.51,3.128,3.025v5.729h-1.615v-5.474
				c0-0.748-0.136-1.071-0.289-1.292c-0.271-0.391-0.815-0.748-1.632-0.748c-1.037,0-1.598,0.595-1.818,0.901
				c-0.374,0.526-0.374,1.462-0.374,1.836v4.776h-1.615v-5.644c0-1.054-0.611-1.87-1.869-1.87c-1.088,0-1.684,0.68-1.87,0.936
				c-0.357,0.492-0.374,1.189-0.374,1.733v4.845h-1.615V314.004z"/>
			<path fill="#020202" d="M120.567,322.062c0.068,0.951,0.477,1.665,1.989,1.665c2.227,0,2.261-1.614,2.261-3.926
				c-0.68,1.41-2.295,1.444-2.805,1.444c-0.782,0-1.904-0.17-2.618-1.054c-0.73-0.867-0.969-2.006-0.969-3.145
				c0-2.89,1.7-4.301,3.791-4.301c1.717,0,2.346,0.85,2.686,1.292l0.017-1.173h1.547l-0.034,1.547l-0.017,5.337
				c0,2.058-0.068,2.89-0.408,3.536c-0.714,1.359-2.38,1.529-3.553,1.529c-3.416,0-3.519-1.598-3.586-2.753H120.567z
				 M124.29,319.206c0.34-0.441,0.578-0.9,0.578-2.447c0-1.071-0.238-1.683-0.663-2.125c-0.425-0.459-1.104-0.748-1.836-0.748
				c-2.022,0-2.294,2.04-2.294,3.128c0,1.309,0.391,3.043,2.346,3.043C123.355,320.056,123.899,319.716,124.29,319.206z"/>
			<path fill="#020202" d="M131.753,309.279h1.105l-3.961,12.392h-1.122L131.753,309.279z"/>
			<path fill="#020202" d="M140.066,309.143h1.598v10.896c0,0.188,0.034,0.918,0.068,1.36h-1.598l-0.034-1.36
				c-0.136,0.238-0.323,0.595-0.765,0.901c-0.697,0.476-1.53,0.629-2.108,0.629c-1.139,0-3.671-0.595-3.671-4.335
				c0-3.246,1.853-4.657,3.858-4.657c1.836,0,2.447,1.088,2.651,1.444V309.143z M139.472,314.633
				c-0.34-0.441-0.969-0.867-1.87-0.867c-2.346,0-2.346,2.839-2.346,3.417c0,1.513,0.391,3.264,2.346,3.264
				c2.516,0,2.516-2.771,2.516-3.434C140.117,315.772,139.828,315.092,139.472,314.633z"/>
			<path fill="#020202" d="M144.623,309.125h1.683v10.761h5.712v1.513h-7.395V309.125z"/>
			<path fill="#020202" d="M160.483,323.49c-0.918-2.261-2.022-5.083-2.022-7.564c0-1.343,0.306-2.669,0.696-3.961
				c0.477-1.529,0.918-2.617,1.207-3.349h1.122c-0.272,0.833-0.646,1.989-1.003,3.604c-0.357,1.564-0.476,2.618-0.476,3.672
				c0,2.414,0.595,4.369,1.58,7.599H160.483z"/>
			<path fill="#020202" d="M165.328,318.373c-0.017,1.122,0.715,1.921,2.159,1.921c1.649,0,2.346-1.054,2.346-2.091
				c0-1.24-0.833-1.887-1.699-2.073c-0.612-0.119-1.037-0.103-1.632-0.085v-1.377c1.173,0.102,3.145-0.136,3.145-2.04
				c0-1.326-0.901-1.853-2.074-1.853c-0.884,0-1.988,0.391-2.142,1.853h-1.717c0.102-2.924,2.855-3.213,3.808-3.213
				c2.566,0,3.842,1.547,3.842,3.179c0,0.969-0.527,2.363-2.346,2.771c2.516,0.356,2.516,2.617,2.516,2.855
				c0,1.648-1.343,3.468-4.08,3.468c-1.24,0-2.481-0.357-3.229-1.225c-0.663-0.747-0.68-1.598-0.697-2.091H165.328z"/>
			<path fill="#020202" d="M173.71,319.359h1.887v2.04h-1.887V319.359z"/>
			<path fill="#020202" d="M182.838,318.849h-5.304v-2.023l5.1-7.343h1.836v7.989h1.717v1.377h-1.717v2.55h-1.632V318.849z
				 M182.889,317.472v-6.204l-4.063,6.204H182.889z"/>
			<path fill="#020202" d="M192.715,314.004l-0.033-1.139h1.614v1.24c0.816-1.343,1.972-1.461,2.703-1.461
				c1.887,0,2.481,0.969,2.787,1.598c0.289-0.477,0.986-1.598,2.873-1.598c1.224,0,3.128,0.51,3.128,3.025v5.729h-1.615v-5.474
				c0-0.748-0.136-1.071-0.289-1.292c-0.271-0.391-0.815-0.748-1.632-0.748c-1.037,0-1.598,0.595-1.818,0.901
				c-0.374,0.526-0.374,1.462-0.374,1.836v4.776h-1.615v-5.644c0-1.054-0.611-1.87-1.869-1.87c-1.088,0-1.684,0.68-1.87,0.936
				c-0.357,0.492-0.374,1.189-0.374,1.733v4.845h-1.615V314.004z"/>
			<path fill="#020202" d="M208.763,314.004l-0.033-1.139h1.614v1.24c0.816-1.343,1.972-1.461,2.703-1.461
				c1.887,0,2.481,0.969,2.787,1.598c0.289-0.477,0.986-1.598,2.873-1.598c1.224,0,3.128,0.51,3.128,3.025v5.729h-1.615v-5.474
				c0-0.748-0.136-1.071-0.289-1.292c-0.271-0.391-0.815-0.748-1.632-0.748c-1.037,0-1.598,0.595-1.818,0.901
				c-0.374,0.526-0.374,1.462-0.374,1.836v4.776h-1.615v-5.644c0-1.054-0.611-1.87-1.869-1.87c-1.088,0-1.684,0.68-1.87,0.936
				c-0.357,0.492-0.374,1.189-0.374,1.733v4.845h-1.615V314.004z"/>
			<path fill="#020202" d="M228.533,312.645c3.417,0,4.182,2.686,4.182,4.47c0,2.499-1.41,4.573-4.317,4.573
				c-2.821,0-4.198-1.955-4.198-4.454C224.199,315.126,225.185,312.645,228.533,312.645z M228.432,320.498
				c1.207,0,2.584-0.866,2.584-3.434c0-2.125-0.986-3.246-2.482-3.246c-1.02,0-2.668,0.646-2.668,3.314
				C225.865,318.883,226.612,320.498,228.432,320.498z"/>
			<path fill="#020202" d="M235.249,309.143h1.598v12.256h-1.598V309.143z"/>
			<path fill="#020202" d="M242.27,309.279h1.105l-3.961,12.392h-1.122L242.27,309.279z"/>
			<path fill="#020202" d="M244.752,309.125h1.683v10.761h5.712v1.513h-7.395V309.125z"/>
			<path fill="#020202" d="M255.02,308.616c0.918,2.261,2.023,5.065,2.023,7.548c0,1.343-0.307,2.668-0.697,3.96
				c-0.476,1.53-0.918,2.635-1.207,3.366h-1.122c0.272-0.851,0.646-2.006,1.003-3.621c0.357-1.547,0.477-2.617,0.477-3.672
				c0-2.396-0.596-4.352-1.581-7.581H255.02z"/>
			<path fill="#020202" d="M4.232,345.798V334.97H0.119v-1.444h9.909v1.444H5.915v10.828H4.232z"/>
			<path fill="#020202" d="M19.956,336.585c-0.187-1.139-1.104-1.921-2.771-1.921c-1.155,0-2.125,0.306-2.771,1.037
				c-1.071,1.189-1.309,2.788-1.309,3.943c0,1.037,0.221,2.788,1.122,3.858c0.799,0.918,2.039,1.207,3.264,1.207
				c1.394,0,2.277-0.271,2.668-0.391v-3.638h-2.805v-1.411h4.505v6.052c-0.714,0.238-2.278,0.748-4.368,0.748
				c-2.262,0-3.587-0.646-4.454-1.53c-1.207-1.224-1.717-2.94-1.717-4.675c0-1.224,0.306-4.113,2.635-5.677
				c1.207-0.816,2.805-0.867,3.417-0.867c0.969,0,2.447,0.119,3.62,1.309c0.731,0.766,0.782,1.479,0.816,1.955H19.956z"/>
			<path fill="#020202" d="M23.435,337.5h1.11l0.278-1.478h-0.992v-0.685h1.121l0.377-2.063h0.803l-0.387,2.063h1.21l0.377-2.063
				h0.804l-0.387,2.063h0.992v0.685H27.62l-0.268,1.478h0.981v0.685h-1.11l-0.367,1.954h-0.794l0.357-1.954h-1.2l-0.367,1.954H24.06
				l0.356-1.954h-0.991L23.435,337.5z M26.549,337.5l0.277-1.478h-1.21l-0.268,1.478H26.549z"/>
			<path fill="#020202" d="M30.296,337.18h1.887v2.006h-1.887V337.18z M30.296,343.792h1.887v2.006h-1.887V343.792z"/>
			<path fill="#020202" d="M39.238,344.251l3.076-3.025c0.646-0.629,1.292-1.309,1.819-2.022c0.68-0.936,0.866-1.462,0.866-2.091
				c0-0.578-0.204-1.921-1.887-1.921c-1.887,0-1.921,1.614-1.921,2.057h-1.784c0.017-0.578,0.067-1.7,1.088-2.584
				c0.815-0.696,1.802-0.85,2.55-0.85c1.802,0,3.637,0.918,3.637,3.434c0,0.748-0.051,1.326-1.325,2.94
				c-0.34,0.425-1.836,1.972-2.176,2.312l-2.057,1.955h5.592v1.343h-7.479V344.251z"/>
			<path fill="#020202" d="M53.568,343.249h-5.304v-2.022l5.1-7.344H55.2v7.989h1.717v1.377H55.2v2.55h-1.632V343.249z
				 M53.619,341.872v-6.204l-4.063,6.204H53.619z"/>
			<path fill="#020202" d="M61.933,333.797c3.519,0,3.943,3.774,3.943,5.983c0,2.788-0.561,4.352-1.632,5.354
				c-0.833,0.782-1.818,0.901-2.346,0.901c-1.563,0-2.635-0.918-3.145-1.955c-0.391-0.781-0.765-1.921-0.765-4.028
				C57.989,338.302,58.193,333.797,61.933,333.797z M61.916,344.625c1.972,0,2.312-2.584,2.312-4.691
				c0-2.821-0.493-4.776-2.277-4.776c-2.058,0-2.329,2.703-2.329,4.811C59.621,342.585,60.131,344.625,61.916,344.625z"/>
			<path fill="#020202" d="M72.897,338.405l-0.033-1.14h1.614v1.241c0.816-1.343,1.972-1.462,2.703-1.462
				c1.887,0,2.481,0.969,2.787,1.598c0.289-0.476,0.986-1.598,2.873-1.598c1.224,0,3.128,0.51,3.128,3.025v5.729h-1.615v-5.474
				c0-0.747-0.136-1.07-0.289-1.291c-0.271-0.392-0.815-0.748-1.632-0.748c-1.037,0-1.598,0.595-1.818,0.9
				c-0.374,0.527-0.374,1.462-0.374,1.836v4.776h-1.615v-5.644c0-1.054-0.611-1.869-1.869-1.869c-1.088,0-1.684,0.68-1.87,0.935
				c-0.357,0.493-0.374,1.189-0.374,1.733v4.845h-1.615V338.405z"/>
			<path fill="#020202" d="M90.492,346.461c0.068,0.952,0.477,1.666,1.989,1.666c2.227,0,2.261-1.615,2.261-3.927
				c-0.68,1.411-2.295,1.445-2.805,1.445c-0.782,0-1.904-0.17-2.618-1.055c-0.73-0.866-0.969-2.006-0.969-3.145
				c0-2.89,1.7-4.301,3.791-4.301c1.717,0,2.346,0.851,2.686,1.292l0.017-1.173h1.547l-0.034,1.547l-0.017,5.338
				c0,2.057-0.068,2.89-0.408,3.535c-0.714,1.36-2.38,1.53-3.553,1.53c-3.416,0-3.519-1.598-3.586-2.754H90.492z M94.215,343.606
				c0.34-0.442,0.578-0.901,0.578-2.448c0-1.07-0.238-1.683-0.663-2.124c-0.425-0.459-1.104-0.748-1.836-0.748
				c-2.022,0-2.294,2.039-2.294,3.127c0,1.31,0.391,3.043,2.346,3.043C93.28,344.456,93.824,344.116,94.215,343.606z"/>
			<path fill="#020202" d="M101.678,333.679h1.105l-3.961,12.392H97.7L101.678,333.679z"/>
			<path fill="#020202" d="M109.991,333.542h1.598v10.896c0,0.187,0.034,0.918,0.068,1.359h-1.598l-0.034-1.359
				c-0.136,0.237-0.323,0.595-0.765,0.9c-0.697,0.477-1.53,0.629-2.108,0.629c-1.139,0-3.671-0.595-3.671-4.334
				c0-3.247,1.853-4.658,3.858-4.658c1.836,0,2.447,1.088,2.651,1.445V333.542z M109.396,339.034
				c-0.34-0.442-0.969-0.867-1.87-0.867c-2.346,0-2.346,2.839-2.346,3.417c0,1.513,0.392,3.264,2.346,3.264
				c2.516,0,2.516-2.771,2.516-3.435C110.042,340.172,109.753,339.493,109.396,339.034z"/>
			<path fill="#020202" d="M114.548,333.526h1.683v10.76h5.711v1.513h-7.394V333.526z"/>
			<path fill="#020202" d="M130.408,347.889c-0.918-2.261-2.022-5.082-2.022-7.564c0-1.343,0.306-2.668,0.696-3.96
				c0.477-1.53,0.918-2.618,1.207-3.349h1.122c-0.272,0.833-0.646,1.988-1.003,3.604c-0.357,1.563-0.476,2.617-0.476,3.672
				c0,2.413,0.595,4.368,1.58,7.598H130.408z"/>
			<path fill="#020202" d="M133.707,344.251l3.076-3.025c0.646-0.629,1.292-1.309,1.819-2.022c0.68-0.936,0.866-1.462,0.866-2.091
				c0-0.578-0.204-1.921-1.887-1.921c-1.887,0-1.921,1.614-1.921,2.057h-1.784c0.017-0.578,0.067-1.7,1.088-2.584
				c0.815-0.696,1.802-0.85,2.55-0.85c1.802,0,3.637,0.918,3.637,3.434c0,0.748-0.051,1.326-1.325,2.94
				c-0.34,0.425-1.836,1.972-2.176,2.312l-2.057,1.955h5.592v1.343h-7.479V344.251z"/>
			<path fill="#020202" d="M143.635,343.759h1.887v2.039h-1.887V343.759z"/>
			<path fill="#020202" d="M147.578,334.036h7.769v1.428l-4.317,10.335h-1.921l4.521-10.352h-6.052V334.036z"/>
			<path fill="#020202" d="M162.64,338.405l-0.033-1.14h1.614v1.241c0.816-1.343,1.972-1.462,2.703-1.462
				c1.887,0,2.481,0.969,2.787,1.598c0.289-0.476,0.986-1.598,2.873-1.598c1.224,0,3.128,0.51,3.128,3.025v5.729h-1.615v-5.474
				c0-0.747-0.136-1.07-0.289-1.291c-0.271-0.392-0.815-0.748-1.632-0.748c-1.037,0-1.598,0.595-1.818,0.9
				c-0.374,0.527-0.374,1.462-0.374,1.836v4.776h-1.615v-5.644c0-1.054-0.611-1.869-1.869-1.869c-1.088,0-1.684,0.68-1.87,0.935
				c-0.357,0.493-0.374,1.189-0.374,1.733v4.845h-1.615V338.405z"/>
			<path fill="#020202" d="M178.688,338.405l-0.033-1.14h1.614v1.241c0.816-1.343,1.972-1.462,2.703-1.462
				c1.887,0,2.481,0.969,2.787,1.598c0.289-0.476,0.986-1.598,2.873-1.598c1.224,0,3.128,0.51,3.128,3.025v5.729h-1.615v-5.474
				c0-0.747-0.136-1.07-0.289-1.291c-0.271-0.392-0.815-0.748-1.632-0.748c-1.037,0-1.598,0.595-1.818,0.9
				c-0.374,0.527-0.374,1.462-0.374,1.836v4.776h-1.615v-5.644c0-1.054-0.611-1.869-1.869-1.869c-1.088,0-1.684,0.68-1.87,0.935
				c-0.357,0.493-0.374,1.189-0.374,1.733v4.845h-1.615V338.405z"/>
			<path fill="#020202" d="M198.458,337.044c3.417,0,4.182,2.686,4.182,4.471c0,2.499-1.41,4.572-4.317,4.572
				c-2.821,0-4.198-1.955-4.198-4.453C194.124,339.526,195.109,337.044,198.458,337.044z M198.356,344.898
				c1.207,0,2.584-0.867,2.584-3.434c0-2.125-0.986-3.247-2.482-3.247c-1.02,0-2.668,0.646-2.668,3.314
				C195.79,343.283,196.537,344.898,198.356,344.898z"/>
			<path fill="#020202" d="M205.174,333.542h1.598v12.256h-1.598V333.542z"/>
			<path fill="#020202" d="M212.194,333.679h1.105l-3.961,12.392h-1.122L212.194,333.679z"/>
			<path fill="#020202" d="M214.677,333.526h1.683v10.76h5.711v1.513h-7.394V333.526z"/>
			<path fill="#020202" d="M224.944,333.016c0.918,2.261,2.023,5.065,2.023,7.547c0,1.343-0.307,2.669-0.697,3.961
				c-0.476,1.529-0.918,2.635-1.207,3.365h-1.122c0.272-0.85,0.646-2.006,1.003-3.62c0.357-1.547,0.477-2.618,0.477-3.672
				c0-2.396-0.596-4.352-1.581-7.581H224.944z"/>
			<path fill="#020202" d="M2.957,357.926v5.27h5.831v-5.27h1.699v12.272H8.788v-5.541H2.957v5.541H1.258v-12.272H2.957z"/>
			<path fill="#020202" d="M13.531,357.926h3.553c1.648,0,3.586,0,4.946,1.598c1.088,1.275,1.513,2.958,1.513,4.641
				c0,2.651-1.104,4.283-2.04,5.031c-1.207,1.003-2.72,1.003-4.521,1.003h-3.45V357.926z M15.23,368.805h1.666
				c1.173,0,2.396-0.068,3.213-0.68c1.563-1.173,1.615-3.179,1.615-3.893c0-0.459-0.034-2.55-1.19-3.825
				c-0.782-0.866-1.768-1.07-3.264-1.07h-2.04V368.805z"/>
			<path fill="#020202" d="M25.891,357.926h1.683v10.76h5.712v1.513h-7.395V357.926z"/>
			<path fill="#020202" d="M34.475,365.083h4.267v1.292h-4.267V365.083z"/>
			<path fill="#020202" d="M48.312,361.241c-0.067-0.425-0.288-2.125-2.651-2.125c-2.958,0-3.484,3.026-3.484,5.065
				c0,2.313,0.663,4.811,3.468,4.811c0.748,0,1.462-0.187,1.988-0.73c0.442-0.476,0.544-1.003,0.595-1.292h1.87
				c-0.255,2.414-2.481,3.417-4.59,3.417c-4.317,0-5.15-3.808-5.15-6.188c0-2.584,1.003-6.442,5.372-6.442
				c1.733,0,4.182,0.697,4.402,3.484H48.312z"/>
			<path fill="#020202" d="M50.82,361.9h1.11l0.278-1.479h-0.992v-0.684h1.121l0.377-2.063h0.803l-0.387,2.063h1.21l0.377-2.063
				h0.804l-0.387,2.063h0.992v0.684h-1.121l-0.268,1.479h0.981v0.684h-1.11l-0.367,1.954h-0.794l0.357-1.954h-1.2l-0.367,1.954
				h-0.793l0.356-1.954h-0.991L50.82,361.9z M53.935,361.9l0.277-1.479h-1.21l-0.268,1.479H53.935z"/>
			<path fill="#020202" d="M56.331,361.9h1.11l0.278-1.479h-0.992v-0.684h1.121l0.377-2.063h0.803l-0.387,2.063h1.21l0.377-2.063
				h0.804l-0.387,2.063h0.992v0.684h-1.121l-0.268,1.479h0.981v0.684h-1.11l-0.367,1.954h-0.794l0.357-1.954h-1.2l-0.367,1.954
				h-0.793l0.356-1.954h-0.991L56.331,361.9z M59.445,361.9l0.277-1.479h-1.21l-0.268,1.479H59.445z"/>
			<path fill="#020202" d="M63.193,361.581h1.887v2.006h-1.887V361.581z M63.193,368.193h1.887v2.006h-1.887V368.193z"/>
			<path fill="#020202" d="M73.682,367.173c-0.017,1.122,0.715,1.921,2.159,1.921c1.649,0,2.346-1.054,2.346-2.091
				c0-1.241-0.833-1.887-1.699-2.074c-0.612-0.119-1.037-0.102-1.632-0.085v-1.377c1.173,0.103,3.145-0.136,3.145-2.039
				c0-1.326-0.901-1.854-2.074-1.854c-0.884,0-1.988,0.392-2.142,1.854h-1.717c0.102-2.924,2.855-3.213,3.808-3.213
				c2.566,0,3.842,1.547,3.842,3.179c0,0.969-0.527,2.362-2.346,2.771c2.516,0.357,2.516,2.618,2.516,2.855
				c0,1.649-1.343,3.468-4.08,3.468c-1.24,0-2.481-0.356-3.229-1.224c-0.663-0.748-0.68-1.598-0.697-2.091H73.682z"/>
			<path fill="#020202" d="M81.553,361.376c0-1.054,0.714-3.212,3.808-3.212c2.481,0,3.909,1.343,3.909,3.145
				c0,1.155-0.748,2.362-2.396,2.669c0.697,0.187,2.566,0.696,2.566,2.975c0,1.614-1.122,3.45-4.045,3.45
				c-1.003,0-2.193-0.204-3.043-0.985c-0.629-0.578-1.037-1.462-1.037-2.363c0-0.782,0.306-1.598,0.901-2.158
				c0.561-0.562,1.173-0.731,1.699-0.901C82.352,363.655,81.553,362.549,81.553,361.376z M85.395,369.06
				c1.887,0,2.346-1.326,2.346-2.21c0-1.309-0.97-2.158-2.313-2.158c-1.444,0-2.396,0.969-2.396,2.209
				C83.031,367.819,83.644,369.06,85.395,369.06z M85.428,359.422c-1.258,0-2.227,0.748-2.227,1.921
				c0,1.139,0.952,1.903,2.176,1.903c1.292,0,2.261-0.748,2.261-1.903C87.638,360.272,86.839,359.422,85.428,359.422z"/>
			<path fill="#020202" d="M96.343,362.805l-0.033-1.14h1.614v1.241c0.816-1.343,1.972-1.462,2.703-1.462
				c1.887,0,2.481,0.969,2.787,1.598c0.289-0.476,0.986-1.598,2.873-1.598c1.224,0,3.128,0.51,3.128,3.025v5.729H107.8v-5.474
				c0-0.747-0.136-1.07-0.289-1.291c-0.271-0.392-0.815-0.748-1.632-0.748c-1.037,0-1.598,0.595-1.818,0.9
				c-0.374,0.527-0.374,1.462-0.374,1.836v4.776h-1.615v-5.644c0-1.054-0.611-1.869-1.869-1.869c-1.088,0-1.684,0.68-1.87,0.935
				c-0.357,0.493-0.374,1.189-0.374,1.733v4.845h-1.615V362.805z"/>
			<path fill="#020202" d="M113.938,370.862c0.068,0.952,0.477,1.666,1.989,1.666c2.227,0,2.261-1.615,2.261-3.927
				c-0.68,1.411-2.295,1.445-2.805,1.445c-0.782,0-1.904-0.17-2.618-1.055c-0.73-0.866-0.969-2.006-0.969-3.145
				c0-2.89,1.7-4.301,3.791-4.301c1.717,0,2.346,0.851,2.686,1.292l0.017-1.173h1.547l-0.034,1.547l-0.017,5.338
				c0,2.057-0.068,2.89-0.408,3.535c-0.714,1.36-2.38,1.53-3.553,1.53c-3.416,0-3.519-1.598-3.586-2.754H113.938z M117.66,368.006
				c0.34-0.442,0.578-0.901,0.578-2.448c0-1.07-0.238-1.683-0.663-2.124c-0.425-0.459-1.104-0.748-1.836-0.748
				c-2.022,0-2.294,2.039-2.294,3.127c0,1.31,0.391,3.043,2.346,3.043C116.726,368.856,117.27,368.516,117.66,368.006z"/>
			<path fill="#020202" d="M125.123,358.08h1.105l-3.961,12.392h-1.122L125.123,358.08z"/>
			<path fill="#020202" d="M133.436,357.943h1.598v10.896c0,0.187,0.034,0.918,0.068,1.359h-1.598l-0.034-1.359
				c-0.136,0.237-0.323,0.595-0.765,0.9c-0.697,0.477-1.53,0.629-2.108,0.629c-1.139,0-3.671-0.595-3.671-4.334
				c0-3.247,1.853-4.658,3.858-4.658c1.836,0,2.447,1.088,2.651,1.445V357.943z M132.841,363.434
				c-0.34-0.442-0.969-0.867-1.87-0.867c-2.346,0-2.346,2.839-2.346,3.417c0,1.513,0.391,3.264,2.346,3.264
				c2.516,0,2.516-2.771,2.516-3.435C133.486,364.573,133.197,363.893,132.841,363.434z"/>
			<path fill="#020202" d="M137.992,357.926h1.683v10.76h5.712v1.513h-7.395V357.926z"/>
			<path fill="#020202" d="M153.854,372.29c-0.918-2.261-2.022-5.082-2.022-7.564c0-1.343,0.306-2.668,0.696-3.96
				c0.477-1.53,0.918-2.618,1.207-3.349h1.122c-0.272,0.833-0.646,1.988-1.003,3.604c-0.357,1.563-0.476,2.617-0.476,3.672
				c0,2.413,0.595,4.368,1.58,7.598H153.854z"/>
			<path fill="#020202" d="M160.856,360.289c-0.73,0.612-1.903,1.31-2.736,1.7v-1.7c1.104-0.577,2.192-1.291,2.855-1.853h1.513
				v11.763h-1.632V360.289z"/>
			<path fill="#020202" d="M167.079,368.16h1.887v2.039h-1.887V368.16z"/>
			<path fill="#020202" d="M175.12,358.198c3.519,0,3.943,3.774,3.943,5.983c0,2.788-0.561,4.352-1.632,5.354
				c-0.833,0.782-1.818,0.901-2.346,0.901c-1.563,0-2.635-0.918-3.145-1.955c-0.391-0.781-0.765-1.921-0.765-4.028
				C171.177,362.703,171.381,358.198,175.12,358.198z M175.104,369.026c1.972,0,2.312-2.584,2.312-4.691
				c0-2.821-0.493-4.776-2.277-4.776c-2.058,0-2.329,2.703-2.329,4.811C172.809,366.986,173.318,369.026,175.104,369.026z"/>
			<path fill="#020202" d="M186.085,362.805l-0.033-1.14h1.614v1.241c0.816-1.343,1.972-1.462,2.703-1.462
				c1.887,0,2.481,0.969,2.787,1.598c0.289-0.476,0.986-1.598,2.873-1.598c1.224,0,3.128,0.51,3.128,3.025v5.729h-1.615v-5.474
				c0-0.747-0.136-1.07-0.289-1.291c-0.271-0.392-0.815-0.748-1.632-0.748c-1.037,0-1.598,0.595-1.818,0.9
				c-0.374,0.527-0.374,1.462-0.374,1.836v4.776h-1.615v-5.644c0-1.054-0.611-1.869-1.869-1.869c-1.088,0-1.684,0.68-1.87,0.935
				c-0.357,0.493-0.374,1.189-0.374,1.733v4.845h-1.615V362.805z"/>
			<path fill="#020202" d="M202.133,362.805l-0.033-1.14h1.614v1.241c0.816-1.343,1.972-1.462,2.703-1.462
				c1.887,0,2.481,0.969,2.787,1.598c0.289-0.476,0.986-1.598,2.873-1.598c1.224,0,3.128,0.51,3.128,3.025v5.729h-1.615v-5.474
				c0-0.747-0.136-1.07-0.289-1.291c-0.271-0.392-0.815-0.748-1.632-0.748c-1.037,0-1.598,0.595-1.818,0.9
				c-0.374,0.527-0.374,1.462-0.374,1.836v4.776h-1.615v-5.644c0-1.054-0.611-1.869-1.869-1.869c-1.088,0-1.684,0.68-1.87,0.935
				c-0.357,0.493-0.374,1.189-0.374,1.733v4.845h-1.615V362.805z"/>
			<path fill="#020202" d="M221.903,361.445c3.417,0,4.182,2.686,4.182,4.471c0,2.499-1.41,4.572-4.317,4.572
				c-2.821,0-4.198-1.955-4.198-4.453C217.569,363.926,218.555,361.445,221.903,361.445z M221.802,369.298
				c1.207,0,2.584-0.867,2.584-3.434c0-2.125-0.986-3.247-2.482-3.247c-1.02,0-2.668,0.646-2.668,3.314
				C219.235,367.683,219.982,369.298,221.802,369.298z"/>
			<path fill="#020202" d="M228.619,357.943h1.598v12.256h-1.598V357.943z"/>
			<path fill="#020202" d="M235.639,358.08h1.105l-3.961,12.392h-1.122L235.639,358.08z"/>
			<path fill="#020202" d="M238.122,357.926h1.683v10.76h5.711v1.513h-7.394V357.926z"/>
			<path fill="#020202" d="M248.389,357.417c0.918,2.261,2.023,5.065,2.023,7.547c0,1.343-0.307,2.669-0.697,3.961
				c-0.476,1.529-0.918,2.635-1.207,3.365h-1.122c0.272-0.85,0.646-2.006,1.003-3.62c0.357-1.547,0.477-2.618,0.477-3.672
				c0-2.396-0.596-4.352-1.581-7.581H248.389z"/>
		</g>
	</g>
</g>
</svg>
