<?xml version="1.0" encoding="utf-8"?>
<!-- Generator: Adobe Illustrator 17.0.0, SVG Export Plug-In . SVG Version: 6.00 Build 0)  -->
<!DOCTYPE svg PUBLIC "-//W3C//DTD SVG 1.1//EN" "http://www.w3.org/Graphics/SVG/1.1/DTD/svg11.dtd">
<svg version="1.1" id="Layer_1" xmlns="http://www.w3.org/2000/svg" xmlns:xlink="http://www.w3.org/1999/xlink" x="0px" y="0px"
	 width="151.808px" height="208.846px" viewBox="0 0 151.808 208.846" enable-background="new 0 0 151.808 208.846"
	 xml:space="preserve">
<g>
	<defs>
		<polyline id="SVGID_17_" points="906.9,291.889 906.9,-155.891 -114.612,-155.891 -114.612,291.889 		"/>
	</defs>
	<clipPath id="SVGID_2_">
		<use xlink:href="#SVGID_17_"  overflow="visible"/>
	</clipPath>
</g>
<g>
	<g>
		<path fill="#00435B" d="M5.717,15.796c0,1.066-0.061,4.294,3.984,4.294c2.555,0,4.166-1.254,4.166-3.165
			c0-2.006-1.368-2.351-4.166-3.04c-5.23-1.348-8.09-2.946-8.09-6.864C1.611,3.291,4.196,0,10.31,0c2.28,0,4.987,0.533,6.629,2.664
			c1.247,1.63,1.247,3.447,1.247,4.2h-4.531c-0.061-0.784-0.304-3.448-3.558-3.448c-2.189,0-3.619,1.223-3.619,3.072
			c0,2.1,1.611,2.476,4.774,3.29c3.802,0.94,7.542,2.006,7.542,6.426c0,4.074-3.284,7.365-9.366,7.365
			c-8.424,0-8.485-5.579-8.516-7.773H5.717z"/>
		<path fill="#00435B" d="M21.647,0.407h4.805V4.45h-4.805V0.407z M21.8,7.178h4.501v15.858H21.8V7.178z"/>
		<path fill="#00435B" d="M44.515,7.271c-0.122,1.254-0.213,2.319-0.213,3.918v11.69c0,5.829-4.714,6.394-7.664,6.394
			c-2.189,0-6.478-0.282-6.751-5.078h4.318c0.061,0.471,0.273,2.194,2.676,2.194c1.339,0,2.494-0.658,2.798-2.068
			c0.183-0.784,0.183-1.348,0.213-3.761c-1.429,1.942-3.041,2.162-4.136,2.162c-4.409,0-6.478-3.949-6.478-7.772
			c0-4.012,2.159-7.836,6.569-7.836c2.798,0,3.831,1.567,4.287,2.257l0.152-2.1H44.515z M36.79,19.558
			c3.163,0,3.163-3.824,3.163-4.514c0-1.786-0.335-4.826-3.072-4.826c-1.702,0-3.102,1.348-3.102,4.732
			C33.779,15.733,33.779,19.558,36.79,19.558z"/>
		<path fill="#00435B" d="M48.281,10.029c0-0.063,0-1.786-0.092-2.884h4.318l0.122,2.383c0.426-0.722,1.642-2.759,4.987-2.759
			c3.011,0,4.288,1.881,4.683,2.978c0.335,0.972,0.426,1.787,0.426,4.732v8.557h-4.592v-9.841c0-0.658,0-1.223-0.243-1.725
			c-0.334-0.689-1.034-1.348-2.189-1.348c-0.974,0-1.855,0.471-2.342,1.223c-0.273,0.407-0.547,1.191-0.547,2.413v9.277h-4.531
			V10.029z"/>
		<path fill="#00435B" d="M66.341,0.407h4.805V4.45h-4.805V0.407z M66.492,7.178h4.501v15.858h-4.501V7.178z"/>
		<path fill="#00435B" d="M75.036,10.5h-2.311V7.209h2.311V5.046C75.036,2.257,75.918,0,80.298,0c0.334,0,1.186,0,2.433,0.157v3.228
			c-0.456-0.063-0.578-0.094-0.943-0.094c-2.28,0-2.28,1.254-2.28,2.068v1.85h2.828V10.5h-2.828v12.536h-4.471V10.5z M84.616,0.407
			h4.805V4.45h-4.805V0.407z M84.768,7.178h4.501v15.858h-4.501V7.178z"/>
		<path fill="#00435B" d="M101.033,12.818c-0.061-0.563-0.243-2.914-1.977-2.914c-2.129,0-2.372,3.322-2.372,5.046
			c0,0.877,0.091,3.698,1.125,4.857c0.426,0.471,0.882,0.533,1.217,0.533c0.486,0,1.885-0.22,2.067-3.04h4.44
			c-0.062,1.223-0.213,3.134-1.977,4.67c-1.095,0.972-2.464,1.473-4.38,1.473c-2.037,0-3.831-0.47-5.23-2.1
			c-1.338-1.599-1.946-3.698-1.946-6.237c0-7.208,5.14-8.211,7.177-8.211c2.859,0,6.234,1.63,6.265,5.923H101.033z"/>
		<path fill="#00435B" d="M117.025,23.036c-0.151-0.972-0.151-1.692-0.151-2.162c-1.703,2.538-3.741,2.538-4.592,2.538
			c-2.221,0-3.224-0.658-3.832-1.254c-0.912-0.939-1.338-2.225-1.338-3.479s0.426-3.573,3.254-4.921
			c1.885-0.877,4.592-0.877,6.082-0.877c0-1.034-0.03-1.536-0.213-2.101c-0.396-1.159-1.581-1.316-2.007-1.316
			c-0.639,0-1.308,0.282-1.703,0.878c-0.335,0.533-0.335,1.034-0.335,1.41h-4.409c0.03-0.846,0.121-2.538,1.733-3.729
			c1.398-1.034,3.193-1.285,4.652-1.285c1.277,0,3.954,0.22,5.475,2.037c1.033,1.285,1.064,3.166,1.064,3.887l0.03,6.362
			c0,1.348,0.091,2.695,0.364,4.012H117.025z M111.491,18.146c0,1.066,0.699,2.257,2.189,2.257c0.821,0,1.49-0.407,1.916-0.909
			c0.791-1.003,0.852-2.225,0.852-3.917C113.559,15.326,111.491,16.267,111.491,18.146z"/>
		<path fill="#00435B" d="M124.473,10.029c0-0.063,0-1.786-0.092-2.884h4.318l0.122,2.383c0.426-0.722,1.642-2.759,4.987-2.759
			c3.011,0,4.288,1.881,4.683,2.978c0.335,0.972,0.426,1.787,0.426,4.732v8.557h-4.592v-9.841c0-0.658,0-1.223-0.243-1.725
			c-0.334-0.689-1.034-1.348-2.189-1.348c-0.974,0-1.855,0.471-2.342,1.223c-0.273,0.407-0.547,1.191-0.547,2.413v9.277h-4.531
			V10.029z"/>
		<path fill="#00435B" d="M151.716,22.816c-1.46,0.408-2.768,0.502-3.497,0.502c-4.531,0-4.531-2.946-4.531-4.263v-8.682h-2.95
			V7.303h2.95V4.2l4.471-1.692v4.795h3.649v3.071h-3.649v7.146c0.03,1.442,0.03,2.352,2.037,2.352c0.669,0,0.974-0.032,1.521-0.095
			V22.816z"/>
	</g>
	<g>
		<path fill="#00435B" d="M14.323,44.815c-0.091-0.783-0.365-3.98-3.558-3.98c-3.497,0-4.957,3.762-4.957,8.432
			c0,1.348,0,7.772,4.592,7.772c1.977,0,3.862-1.285,3.953-4.294h4.957c-0.091,1.348-0.213,3.447-1.977,5.328
			c-1.946,2.068-4.409,2.539-6.417,2.539c-7.572,0-10.035-5.768-10.035-11.377c0-7.178,3.893-11.941,10.066-11.941
			c4.805,0,8.18,3.009,8.18,7.521H14.323z"/>
		<path fill="#00435B" d="M25.357,37.514l5.748,17.771l5.777-17.771h4.653l-8.089,22.565h-5.14l-8.09-22.565H25.357z"/>
		<path fill="#00435B" d="M51.655,48.138c0-0.752-0.121-3.04-0.213-3.949h4.228l0.091,3.041c0.578-1.348,1.582-3.26,5.231-3.072
			v4.169c-4.563-0.438-4.836,1.975-4.836,3.949v7.804h-4.501V48.138z"/>
		<path fill="#00435B" d="M61.811,37.45h4.805v4.043h-4.805V37.45z M61.962,44.221h4.501v15.858h-4.501V44.221z"/>
		<path fill="#00435B" d="M73.243,55.503c0.061,1.003,0.669,2.163,2.555,2.163c1.611,0,2.372-0.94,2.372-1.881
			c0-0.721-0.365-1.285-2.129-1.786l-2.798-0.784c-1.247-0.376-3.893-1.159-3.893-4.388c0-3.071,2.737-4.951,6.721-4.951
			c3.163,0,5.717,1.504,5.839,4.669h-4.105c-0.122-1.755-1.49-1.88-2.189-1.88c-1.217,0-2.129,0.596-2.129,1.567
			c0,1.065,0.761,1.284,2.099,1.661l2.767,0.783c2.798,0.783,4.105,2.257,4.105,4.419c0,2.727-2.28,5.453-7.055,5.453
			c-1.977,0-3.862-0.438-5.261-1.942c-1.004-1.098-1.096-2.351-1.126-3.104H73.243z"/>
		<path fill="#00435B" d="M85.1,37.419h4.471v13.352l4.652-6.613h5.079l-5.261,6.896l5.595,9.026h-5.321L89.57,51.46v8.619H85.1
			V37.419z"/>
	</g>
	<g>
		<path fill="#00435B" d="M1.824,85.181c0-0.752-0.121-3.04-0.213-3.949h4.228l0.091,3.041c0.578-1.348,1.582-3.26,5.231-3.072
			v4.169c-4.563-0.438-4.836,1.975-4.836,3.949v7.804H1.824V85.181z"/>
		<path fill="#00435B" d="M16.085,90.384c0,1.034,0,4.231,3.132,4.231c1.125,0,2.251-0.439,2.676-2.194h4.105
			c-0.061,0.752-0.213,2.1-1.459,3.447c-1.125,1.223-3.133,1.85-5.383,1.85c-1.308,0-3.802-0.251-5.413-1.975
			c-1.399-1.505-1.977-3.636-1.977-6.175c0-2.569,0.607-5.641,3.192-7.49c1.187-0.814,2.646-1.316,4.318-1.316
			c2.19,0,4.806,0.878,6.204,3.824c1.034,2.162,0.974,4.481,0.912,5.798H16.085z M21.802,87.469c0-0.721-0.061-3.541-2.676-3.541
			c-1.977,0-2.798,1.692-2.89,3.541H21.802z"/>
		<path fill="#00435B" d="M39.254,74.493h4.531v20.059c0,0.94,0.061,1.975,0.121,2.57h-4.562l-0.121-2.288
			c-0.305,0.564-0.608,1.16-1.551,1.787c-1.126,0.752-2.312,0.814-2.98,0.814c-4.105,0-6.538-2.915-6.538-7.867
			c0-5.233,2.767-8.493,6.781-8.493c2.768,0,3.923,1.599,4.318,2.162V74.493z M35.817,94.427c1.308,0,2.372-0.815,2.858-1.786
			c0.669-1.316,0.73-2.946,0.73-3.73c0-3.103-1.308-4.795-3.346-4.795c-3.011,0-3.345,3.729-3.345,5.328
			C32.716,92.076,33.567,94.427,35.817,94.427z"/>
		<path fill="#00435B" d="M51.778,81.295v9.434c0,1.379,0,3.479,2.402,3.479c2.89,0,2.89-2.225,2.89-4.92v-7.992h4.622v10.437
			c0.061,3.416,0.092,3.823,0.092,4.231c0.03,0.438,0.061,0.721,0.121,1.159h-4.379l-0.152-2.1
			c-0.456,0.689-1.611,2.507-4.531,2.507c-2.067,0-3.771-0.972-4.622-2.131c-1.004-1.285-1.004-3.479-1.004-4.263v-9.841H51.778z"/>
		<path fill="#00435B" d="M73.791,86.904c-0.061-0.563-0.243-2.914-1.977-2.914c-2.129,0-2.372,3.322-2.372,5.046
			c0,0.877,0.092,3.698,1.126,4.857c0.425,0.471,0.882,0.533,1.216,0.533c0.486,0,1.886-0.22,2.068-3.04h4.439
			c-0.061,1.223-0.213,3.134-1.977,4.67c-1.095,0.972-2.463,1.473-4.379,1.473c-2.038,0-3.832-0.47-5.23-2.1
			c-1.339-1.599-1.946-3.698-1.946-6.237c0-7.208,5.139-8.211,7.177-8.211c2.858,0,6.234,1.63,6.265,5.923H73.791z"/>
		<path fill="#00435B" d="M89.632,96.902c-1.46,0.408-2.768,0.502-3.497,0.502c-4.531,0-4.531-2.946-4.531-4.263V84.46h-2.95v-3.071
			h2.95v-3.103l4.471-1.692v4.795h3.649v3.071h-3.649v7.146c0.03,1.442,0.03,2.352,2.037,2.352c0.669,0,0.974-0.032,1.521-0.095
			V96.902z"/>
		<path fill="#00435B" d="M92.001,74.493h4.805v4.043h-4.805V74.493z M92.153,81.264h4.501v15.858h-4.501V81.264z"/>
		<path fill="#00435B" d="M107.539,80.919c5.565,0,7.968,3.886,7.968,8.305c0,4.451-2.493,8.463-8.059,8.463
			c-4.379,0-7.846-2.79-7.846-8.337C99.603,85.525,101.487,80.919,107.539,80.919z M107.601,94.458c1.977,0,3.314-1.223,3.314-5.422
			c0-2.1-0.396-5.015-3.376-5.015c-3.284,0-3.314,3.918-3.314,5.359C104.225,92.922,105.38,94.458,107.601,94.458z"/>
		<path fill="#00435B" d="M118.665,84.115c0-0.063,0-1.786-0.091-2.884h4.318l0.121,2.383c0.426-0.722,1.643-2.759,4.987-2.759
			c3.011,0,4.288,1.881,4.684,2.978c0.335,0.972,0.426,1.787,0.426,4.732v8.557h-4.592v-9.841c0-0.658,0-1.223-0.243-1.725
			c-0.335-0.689-1.034-1.348-2.19-1.348c-0.973,0-1.854,0.471-2.341,1.223c-0.274,0.407-0.548,1.191-0.548,2.413v9.277h-4.531
			V84.115z"/>
		<path fill="#00435B" d="M140.039,92.546c0.062,1.003,0.669,2.163,2.555,2.163c1.612,0,2.372-0.94,2.372-1.881
			c0-0.721-0.365-1.285-2.129-1.786l-2.798-0.784c-1.246-0.376-3.893-1.159-3.893-4.388c0-3.071,2.737-4.951,6.721-4.951
			c3.163,0,5.718,1.504,5.839,4.669h-4.105c-0.121-1.755-1.489-1.88-2.189-1.88c-1.216,0-2.129,0.596-2.129,1.567
			c0,1.065,0.761,1.284,2.099,1.661l2.768,0.783c2.798,0.783,4.105,2.257,4.105,4.419c0,2.727-2.281,5.453-7.056,5.453
			c-1.977,0-3.862-0.438-5.261-1.942c-1.004-1.098-1.095-2.351-1.125-3.104H140.039z"/>
	</g>
	<g>
		<path fill="#00435B" d="M1.673,111.536h4.805v4.043H1.673V111.536z M1.824,118.307h4.501v15.858H1.824V118.307z"/>
		<path fill="#00435B" d="M10.034,121.158c0-0.063,0-1.786-0.092-2.884h4.318l0.122,2.383c0.426-0.722,1.642-2.759,4.987-2.759
			c3.011,0,4.288,1.881,4.683,2.978c0.335,0.972,0.426,1.787,0.426,4.732v8.557h-4.592v-9.841c0-0.658,0-1.223-0.243-1.725
			c-0.334-0.689-1.034-1.348-2.189-1.348c-0.974,0-1.855,0.471-2.342,1.223c-0.273,0.407-0.547,1.191-0.547,2.413v9.277h-4.531
			V121.158z"/>
		<path fill="#00435B" d="M40.65,118.338l0.122,2.256c1.398-2.538,3.953-2.569,4.684-2.569c3.983,0,6.386,3.071,6.386,7.897
			c0,4.482-2.25,8.463-6.69,8.463c-2.768,0-3.893-1.505-4.288-2.037v7.897h-4.592v-21.907H40.65z M47.28,126.11
			c0-1.881-0.456-5.108-3.102-5.108c-1.46,0-3.528,1.128-3.528,5.391c0,0.94,0.031,4.952,3.346,4.952
			C46.125,131.345,47.28,129.244,47.28,126.11z"/>
		<path fill="#00435B" d="M63.941,134.165c-0.152-0.972-0.152-1.692-0.152-2.162c-1.703,2.538-3.74,2.538-4.592,2.538
			c-2.22,0-3.224-0.658-3.832-1.254c-0.912-0.939-1.338-2.225-1.338-3.479s0.426-3.573,3.254-4.921
			c1.886-0.877,4.592-0.877,6.082-0.877c0-1.034-0.03-1.536-0.213-2.101c-0.395-1.159-1.581-1.316-2.007-1.316
			c-0.639,0-1.308,0.282-1.703,0.878c-0.334,0.533-0.334,1.034-0.334,1.41h-4.41c0.03-0.846,0.122-2.538,1.733-3.729
			c1.399-1.034,3.193-1.285,4.653-1.285c1.277,0,3.953,0.22,5.474,2.037c1.034,1.285,1.064,3.166,1.064,3.887l0.03,6.362
			c0,1.348,0.092,2.695,0.365,4.012H63.941z M58.406,129.275c0,1.066,0.7,2.257,2.19,2.257c0.82,0,1.489-0.407,1.915-0.909
			c0.791-1.003,0.852-2.225,0.852-3.917C60.475,126.455,58.406,127.396,58.406,129.275z"/>
		<path fill="#00435B" d="M80.359,133.945c-1.46,0.408-2.768,0.502-3.498,0.502c-4.53,0-4.53-2.946-4.53-4.263v-8.682h-2.95v-3.071
			h2.95v-3.103l4.47-1.692v4.795h3.649v3.071h-3.649v7.146c0.03,1.442,0.03,2.352,2.038,2.352c0.669,0,0.973-0.032,1.521-0.095
			V133.945z"/>
		<path fill="#00435B" d="M82.729,111.536h4.805v4.043h-4.805V111.536z M82.88,118.307h4.501v15.858H82.88V118.307z"/>
		<path fill="#00435B" d="M94.647,127.427c0,1.034,0,4.231,3.133,4.231c1.125,0,2.25-0.439,2.676-2.194h4.105
			c-0.061,0.752-0.213,2.1-1.46,3.447c-1.125,1.223-3.132,1.85-5.383,1.85c-1.308,0-3.801-0.251-5.413-1.975
			c-1.398-1.505-1.977-3.636-1.977-6.175c0-2.569,0.608-5.641,3.193-7.49c1.186-0.814,2.646-1.316,4.318-1.316
			c2.189,0,4.805,0.878,6.204,3.824c1.033,2.162,0.973,4.481,0.912,5.798H94.647z M100.365,124.512c0-0.721-0.062-3.541-2.677-3.541
			c-1.977,0-2.798,1.692-2.889,3.541H100.365z"/>
		<path fill="#00435B" d="M107.689,121.158c0-0.063,0-1.786-0.091-2.884h4.318l0.121,2.383c0.426-0.722,1.643-2.759,4.987-2.759
			c3.011,0,4.288,1.881,4.684,2.978c0.335,0.972,0.426,1.787,0.426,4.732v8.557h-4.592v-9.841c0-0.658,0-1.223-0.243-1.725
			c-0.335-0.689-1.034-1.348-2.19-1.348c-0.973,0-1.854,0.471-2.341,1.223c-0.274,0.407-0.548,1.191-0.548,2.413v9.277h-4.531
			V121.158z"/>
		<path fill="#00435B" d="M134.964,133.945c-1.46,0.408-2.768,0.502-3.497,0.502c-4.531,0-4.531-2.946-4.531-4.263v-8.682h-2.95
			v-3.071h2.95v-3.103l4.471-1.692v4.795h3.649v3.071h-3.649v7.146c0.03,1.442,0.03,2.352,2.037,2.352
			c0.669,0,0.974-0.032,1.521-0.095V133.945z"/>
		<path fill="#00435B" d="M140.617,129.589c0.062,1.003,0.669,2.163,2.555,2.163c1.612,0,2.372-0.94,2.372-1.881
			c0-0.721-0.365-1.285-2.129-1.786l-2.798-0.784c-1.246-0.376-3.893-1.159-3.893-4.388c0-3.071,2.737-4.951,6.721-4.951
			c3.163,0,5.718,1.504,5.839,4.669h-4.105c-0.121-1.755-1.489-1.88-2.189-1.88c-1.216,0-2.129,0.596-2.129,1.567
			c0,1.065,0.761,1.284,2.099,1.661l2.768,0.783c2.798,0.783,4.105,2.257,4.105,4.419c0,2.727-2.281,5.453-7.056,5.453
			c-1.977,0-3.862-0.438-5.261-1.942c-1.004-1.098-1.095-2.351-1.125-3.104H140.617z"/>
	</g>
	<g>
		<path fill="#00435B" d="M4.774,155.381l2.828,11.94l3.254-11.94h4.957l3.224,11.94l3.011-11.94h4.471l-5.262,15.827h-4.896
			l-3.163-11.722l-3.224,11.722H5.018L0,155.381H4.774z"/>
		<path fill="#00435B" d="M28.428,148.579h4.805v4.043h-4.805V148.579z M28.579,155.35h4.501v15.858h-4.501V155.35z"/>
		<path fill="#00435B" d="M45.76,170.988c-1.46,0.408-2.768,0.502-3.497,0.502c-4.531,0-4.531-2.946-4.531-4.263v-8.682h-2.95
			v-3.071h2.95v-3.103l4.471-1.692v4.795h3.649v3.071h-3.649v7.146c0.03,1.442,0.03,2.352,2.037,2.352
			c0.669,0,0.974-0.032,1.521-0.095V170.988z"/>
		<path fill="#00435B" d="M48.402,148.579h4.471v8.964c0.518-0.752,1.643-2.382,4.44-2.382c2.28,0,3.74,1.159,4.47,2.131
			c0.548,0.784,1.004,2.226,1.004,4.294v9.622h-4.471v-9.465c0-0.909,0-3.448-2.523-3.448c-1.277,0-2.89,0.753-2.89,3.229
			l0.03,9.685h-4.531V148.579z"/>
	</g>
	<g>
		<path fill="#00435B" d="M11.981,185.621h4.531v20.059c0,0.94,0.062,1.975,0.122,2.57h-4.562l-0.122-2.288
			c-0.304,0.564-0.608,1.16-1.551,1.786c-1.125,0.753-2.312,0.815-2.98,0.815c-4.105,0-6.538-2.915-6.538-7.867
			c0-5.233,2.768-8.493,6.781-8.493c2.768,0,3.924,1.599,4.318,2.162V185.621z M8.545,205.555c1.309,0,2.372-0.814,2.859-1.786
			c0.669-1.316,0.729-2.946,0.729-3.73c0-3.103-1.308-4.795-3.345-4.795c-3.011,0-3.346,3.729-3.346,5.328
			C5.443,203.204,6.295,205.555,8.545,205.555z"/>
		<path fill="#00435B" d="M19.976,185.621h4.805v4.043h-4.805V185.621z M20.127,192.392h4.501v15.858h-4.501V192.392z"/>
		<path fill="#00435B" d="M37.49,208.25c-0.152-0.972-0.152-1.692-0.152-2.162c-1.703,2.538-3.74,2.538-4.592,2.538
			c-2.22,0-3.224-0.658-3.832-1.254c-0.912-0.939-1.338-2.225-1.338-3.479s0.426-3.573,3.254-4.921
			c1.886-0.877,4.592-0.877,6.082-0.877c0-1.034-0.03-1.536-0.213-2.101c-0.395-1.159-1.581-1.316-2.007-1.316
			c-0.639,0-1.308,0.282-1.703,0.878c-0.334,0.533-0.334,1.034-0.334,1.41h-4.41c0.03-0.846,0.122-2.538,1.733-3.729
			c1.399-1.034,3.193-1.285,4.653-1.285c1.277,0,3.953,0.22,5.474,2.037c1.034,1.285,1.064,3.166,1.064,3.887l0.03,6.362
			c0,1.348,0.092,2.695,0.365,4.012H37.49z M31.955,203.36c0,1.066,0.7,2.257,2.19,2.257c0.82,0,1.489-0.407,1.915-0.909
			c0.791-1.003,0.852-2.225,0.852-3.917C34.023,200.54,31.955,201.48,31.955,203.36z"/>
		<path fill="#00435B" d="M44.724,185.652h4.501v8.682c1.521-2.068,3.558-2.131,4.349-2.131c3.74,0,6.69,3.04,6.69,8.368
			c0,5.924-3.345,7.992-6.417,7.992c-0.79,0-3.224-0.063-4.622-2.539c-0.03,0.502-0.061,1.254-0.152,2.226h-4.349V185.652z
			 M52.356,195.306c-3.314,0-3.314,3.887-3.314,4.89c0,3.604,1.49,5.328,3.527,5.328c3.103,0,3.103-3.98,3.103-4.795
			C55.672,199.475,55.611,195.306,52.356,195.306z"/>
		<path fill="#00435B" d="M66.798,201.512c0,1.034,0,4.23,3.133,4.23c1.125,0,2.25-0.438,2.676-2.193h4.105
			c-0.061,0.752-0.213,2.1-1.46,3.447c-1.125,1.223-3.132,1.85-5.383,1.85c-1.308,0-3.801-0.251-5.413-1.975
			c-1.398-1.505-1.977-3.636-1.977-6.175c0-2.569,0.608-5.641,3.193-7.49c1.186-0.814,2.646-1.316,4.318-1.316
			c2.189,0,4.805,0.878,6.204,3.823c1.033,2.163,0.973,4.482,0.912,5.799H66.798z M72.516,198.597c0-0.721-0.062-3.541-2.677-3.541
			c-1.977,0-2.798,1.692-2.889,3.541H72.516z"/>
		<path fill="#00435B" d="M88.812,208.03c-1.46,0.408-2.768,0.502-3.498,0.502c-4.53,0-4.53-2.946-4.53-4.263v-8.682h-2.95v-3.071
			h2.95v-3.103l4.47-1.692v4.795h3.649v3.071h-3.649v7.146c0.03,1.441,0.03,2.351,2.038,2.351c0.669,0,0.973-0.032,1.521-0.095
			V208.03z"/>
		<path fill="#00435B" d="M94.344,201.512c0,1.034,0,4.23,3.132,4.23c1.125,0,2.251-0.438,2.676-2.193h4.105
			c-0.061,0.752-0.213,2.1-1.459,3.447c-1.125,1.223-3.133,1.85-5.383,1.85c-1.308,0-3.802-0.251-5.413-1.975
			c-1.399-1.505-1.977-3.636-1.977-6.175c0-2.569,0.607-5.641,3.192-7.49c1.187-0.814,2.646-1.316,4.318-1.316
			c2.19,0,4.806,0.878,6.204,3.823c1.034,2.163,0.974,4.482,0.912,5.799H94.344z M100.061,198.597c0-0.721-0.061-3.541-2.676-3.541
			c-1.977,0-2.798,1.692-2.89,3.541H100.061z"/>
		<path fill="#00435B" d="M110.457,203.674c0.062,1.003,0.669,2.163,2.555,2.163c1.612,0,2.372-0.94,2.372-1.881
			c0-0.721-0.365-1.285-2.129-1.786l-2.798-0.784c-1.246-0.376-3.893-1.159-3.893-4.388c0-3.071,2.737-4.951,6.721-4.951
			c3.163,0,5.718,1.504,5.839,4.67h-4.105c-0.121-1.756-1.489-1.881-2.189-1.881c-1.216,0-2.129,0.596-2.129,1.567
			c0,1.065,0.761,1.284,2.099,1.661l2.768,0.783c2.798,0.783,4.105,2.257,4.105,4.419c0,2.727-2.281,5.453-7.056,5.453
			c-1.977,0-3.862-0.438-5.261-1.942c-1.004-1.098-1.095-2.351-1.125-3.104H110.457z"/>
	</g>
	<g>
		<path fill="#00435B" d="M121.84,186.974c1.152-0.512,2.252-1.151,3.28-1.92h2.287v12.76h-2.677v-9.926
			c-0.515,0.402-1.543,1.06-2.891,1.627V186.974z"/>
		<path fill="#00435B" d="M134.443,195.382l-2.109,4.497h-1.826l1.312-4.497H134.443z"/>
		<path fill="#00435B" d="M135.382,195.236l3.209-3.017c0.567-0.53,1.206-1.115,1.861-1.938c0.691-0.859,0.852-1.262,0.852-1.847
			c0-0.969-0.55-1.627-1.472-1.627c-1.419,0-1.543,1.499-1.561,1.865h-2.713c0-0.512,0-1.463,0.728-2.396
			c0.709-0.913,2.021-1.389,3.528-1.389c2.694,0,4.185,1.499,4.185,3.473c0,1.316-0.497,3.017-5.852,7.459
			c1.791-0.037,2.004-0.056,3.404-0.073c1.897-0.037,2.11-0.037,2.518-0.055v2.12h-8.688V195.236z"/>
	</g>
</g>
</svg>
