<?xml version="1.0" encoding="utf-8"?>
<!-- Generator: Adobe Illustrator 17.0.0, SVG Export Plug-In . SVG Version: 6.00 Build 0)  -->
<!DOCTYPE svg PUBLIC "-//W3C//DTD SVG 1.1//EN" "http://www.w3.org/Graphics/SVG/1.1/DTD/svg11.dtd">
<svg version="1.1" id="Layer_1" xmlns="http://www.w3.org/2000/svg" xmlns:xlink="http://www.w3.org/1999/xlink" x="0px" y="0px"
	 width="262.849px" height="25.425px" viewBox="0 0 262.849 25.425" enable-background="new 0 0 262.849 25.425"
	 xml:space="preserve">
<g>
	<defs>
		<polyline id="SVGID_17_" points="549.254,364.909 549.254,-82.871 -472.258,-82.871 -472.258,364.909 		"/>
	</defs>
	<clipPath id="SVGID_2_">
		<use xlink:href="#SVGID_17_"  overflow="visible"/>
	</clipPath>
</g>
<g>
	<g>
		<defs>
			<path id="SVGID_21_" d="M8.205,0C3.672,0,0,3.673,0,8.203v9.019c0,4.528,3.672,8.203,8.205,8.203h246.443
				c4.527,0,8.202-3.675,8.202-8.203V8.203c0-4.53-3.675-8.203-8.202-8.203H8.205z"/>
		</defs>
		<clipPath id="SVGID_4_">
			<use xlink:href="#SVGID_21_"  overflow="visible"/>
		</clipPath>
		
			<linearGradient id="SVGID_6_" gradientUnits="userSpaceOnUse" x1="-2477.9116" y1="422.3376" x2="-2476.437" y2="422.3376" gradientTransform="matrix(0 -17.2412 -17.2412 0 7413.0313 -42696.7461)">
			<stop  offset="0" style="stop-color:#404041"/>
			<stop  offset="0.0139" style="stop-color:#444445"/>
			<stop  offset="0.1522" style="stop-color:#68696A"/>
			<stop  offset="0.2969" style="stop-color:#868889"/>
			<stop  offset="0.4479" style="stop-color:#9E9FA1"/>
			<stop  offset="0.6078" style="stop-color:#AEB0B2"/>
			<stop  offset="0.7825" style="stop-color:#B8BABC"/>
			<stop  offset="1" style="stop-color:#BBBDBF"/>
		</linearGradient>
		<rect x="0" y="0" clip-path="url(#SVGID_4_)" fill="url(#SVGID_6_)" width="262.849" height="25.425"/>
	</g>
	<g>
		<defs>
			<path id="SVGID_24_" d="M8.205,2.327c-3.243,0-5.879,2.636-5.879,5.876v9.019c0,3.24,2.637,5.878,5.879,5.878h246.443
				c3.24,0,5.878-2.638,5.878-5.878V8.203c0-3.24-2.638-5.876-5.878-5.876H8.205z"/>
		</defs>
		<clipPath id="SVGID_8_">
			<use xlink:href="#SVGID_24_"  overflow="visible"/>
		</clipPath>
		
			<linearGradient id="SVGID_10_" gradientUnits="userSpaceOnUse" x1="-2479.9419" y1="401.6508" x2="-2478.4673" y2="401.6508" gradientTransform="matrix(0 -14.0864 -14.0864 0 5789.2388 -34910.3555)">
			<stop  offset="0" style="stop-color:#FFFFFF"/>
			<stop  offset="0.2973" style="stop-color:#F8F8F8"/>
			<stop  offset="0.7441" style="stop-color:#E6E5E3"/>
			<stop  offset="1" style="stop-color:#D8D7D4"/>
		</linearGradient>
		<rect x="2.325" y="2.327" clip-path="url(#SVGID_8_)" fill="url(#SVGID_10_)" width="258.199" height="20.772"/>
	</g>
	<g>
		<defs>
			<rect id="SVGID_27_" x="0" y="0" width="262.849" height="25.425"/>
		</defs>
		<clipPath id="SVGID_12_">
			<use xlink:href="#SVGID_27_"  overflow="visible"/>
		</clipPath>
		<g opacity="0.5" clip-path="url(#SVGID_12_)">
			<g>
				<defs>
					<rect id="SVGID_29_" x="2.325" y="2.327" width="258.199" height="20.772"/>
				</defs>
				<clipPath id="SVGID_14_">
					<use xlink:href="#SVGID_29_"  overflow="visible"/>
				</clipPath>
				<g clip-path="url(#SVGID_14_)">
					<defs>
						<path id="SVGID_31_" d="M8.203,2.327c-3.241,0-5.878,2.636-5.878,5.876v9.017c0,3.201,2.572,5.814,5.757,5.878h246.686
							c3.183-0.063,5.757-2.676,5.757-5.878V8.203c0-3.24-2.638-5.876-5.878-5.876H8.203z"/>
					</defs>
					<clipPath id="SVGID_16_">
						<use xlink:href="#SVGID_31_"  overflow="visible"/>
					</clipPath>
					
						<linearGradient id="SVGID_18_" gradientUnits="userSpaceOnUse" x1="-2479.9417" y1="401.6508" x2="-2478.4673" y2="401.6508" gradientTransform="matrix(0 -14.0864 -14.0864 0 5789.2388 -34910.3555)">
						<stop  offset="0" style="stop-color:#59595C"/>
						<stop  offset="0.005" style="stop-color:#5C5C5F"/>
						<stop  offset="0.066" style="stop-color:#838385"/>
						<stop  offset="0.1322" style="stop-color:#A4A4A5"/>
						<stop  offset="0.2061" style="stop-color:#C0C0C1"/>
						<stop  offset="0.2882" style="stop-color:#D7D7D8"/>
						<stop  offset="0.3822" style="stop-color:#E9E9EA"/>
						<stop  offset="0.4954" style="stop-color:#F6F6F6"/>
						<stop  offset="0.6471" style="stop-color:#FDFDFD"/>
						<stop  offset="1" style="stop-color:#FFFFFF"/>
					</linearGradient>
					<rect x="2.325" y="2.327" clip-path="url(#SVGID_16_)" fill="url(#SVGID_18_)" width="258.199" height="20.771"/>
				</g>
			</g>
		</g>
	</g>
	<g>
		<path fill="#231F20" d="M32.454,15.908h-1.492V4.198h1.492V15.908z"/>
		<path fill="#231F20" d="M39.575,15.908v-5.677c0-0.876-0.309-1.59-1.444-1.59c-1.459,0-1.67,1.298-1.67,2.417v4.85h-1.33V9.42
			c0-0.567-0.033-1.135-0.081-1.703h1.411v1.055h0.064c0.52-0.925,1.136-1.217,2.189-1.217c1.752,0,2.19,1.055,2.19,2.677v5.677
			H39.575z"/>
		<path fill="#231F20" d="M47.523,10.345c0.032-1.347-0.633-1.703-1.136-1.703c-1.022,0-1.72,0.486-1.72,2.725
			c0,2.66,0.341,3.617,1.72,3.617c0.308,0,1.232-0.324,1.184-1.8h1.396c0.049,2.303-1.671,2.887-2.579,2.887
			c-1.735,0-3.114-0.519-3.114-4.136c0-2.4,0.275-4.38,3.114-4.38c1.638,0,2.595,0.957,2.514,2.79H47.523z"/>
		<path fill="#231F20" d="M51.237,4.198h1.492v1.428h-1.492V4.198z M52.648,15.908h-1.33V7.717h1.33V15.908z"/>
		<path fill="#231F20" d="M59.282,4.198h1.33v11.711h-1.33v-0.974H59.25c-0.454,0.763-1.022,1.136-1.882,1.136
			c-1.313,0-2.644-0.519-2.644-4.12c0-2.043,0.064-4.396,2.708-4.396c0.779,0,1.347,0.341,1.801,0.989h0.049V4.198z M57.741,8.642
			c-1.428,0-1.622,1.136-1.622,3.325c0,1.232,0,3.017,1.671,3.017c1.492,0,1.492-1.849,1.492-3.503
			C59.282,10.394,59.216,8.642,57.741,8.642z"/>
		<path fill="#231F20" d="M64.359,12.242c0,2.287,0.616,2.741,1.654,2.741c0.908,0,1.379-0.729,1.428-1.557h1.46
			c-0.017,1.816-1.136,2.644-2.855,2.644c-1.735,0-3.114-0.519-3.114-4.136c0-2.4,0.276-4.38,3.114-4.38
			c2.336,0,2.92,1.281,2.92,3.99v0.697H64.359z M67.554,11.238c0-2.385-0.665-2.677-1.639-2.677c-0.843,0-1.541,0.405-1.557,2.677
			H67.554z"/>
		<path fill="#231F20" d="M75.616,15.908v-5.677c0-0.876-0.308-1.59-1.443-1.59c-1.46,0-1.671,1.298-1.671,2.417v4.85h-1.33V9.42
			c0-0.567-0.032-1.135-0.081-1.703h1.411v1.055h0.065c0.519-0.925,1.135-1.217,2.189-1.217c1.752,0,2.189,1.055,2.189,2.677v5.677
			H75.616z"/>
		<path fill="#231F20" d="M83.564,10.345c0.032-1.347-0.633-1.703-1.136-1.703c-1.022,0-1.72,0.486-1.72,2.725
			c0,2.66,0.341,3.617,1.72,3.617c0.308,0,1.232-0.324,1.184-1.8h1.396c0.049,2.303-1.671,2.887-2.579,2.887
			c-1.735,0-3.114-0.519-3.114-4.136c0-2.4,0.275-4.38,3.114-4.38c1.638,0,2.595,0.957,2.514,2.79H83.564z"/>
		<path fill="#231F20" d="M88.689,12.242c0,2.287,0.617,2.741,1.655,2.741c0.908,0,1.378-0.729,1.427-1.557h1.46
			c-0.017,1.816-1.136,2.644-2.854,2.644c-1.735,0-3.114-0.519-3.114-4.136c0-2.4,0.275-4.38,3.114-4.38
			c2.336,0,2.919,1.281,2.919,3.99v0.697H88.689z M91.884,11.238c0-2.385-0.665-2.677-1.638-2.677c-0.844,0-1.541,0.405-1.558,2.677
			H91.884z"/>
		<path fill="#231F20" d="M98.876,11.935c0-2.4,0.275-4.38,3.114-4.38s3.114,1.979,3.114,4.38c0,3.617-1.379,4.136-3.114,4.136
			S98.876,15.552,98.876,11.935z M103.71,11.366c0-2.238-0.698-2.725-1.72-2.725s-1.719,0.486-1.719,2.725
			c0,2.66,0.34,3.617,1.719,3.617S103.71,14.027,103.71,11.366z"/>
		<path fill="#231F20" d="M107.456,7.717V6.128c0-1.655,1.168-1.979,2.353-1.979c0.275,0,0.438,0.017,0.632,0.049v0.957
			c-1.411-0.098-1.654,0.503-1.654,1.168v1.395h1.654v1.006h-1.654v7.186h-1.33V8.723h-1.265V7.717H107.456z"/>
		<path fill="#231F20" d="M119.345,15.908v-5.677c0-0.827-0.228-1.59-1.298-1.59c-0.405,0-0.957,0.243-1.151,0.552
			c-0.243,0.405-0.309,0.892-0.309,1.2v5.515h-1.33V9.42c0-0.567-0.032-1.135-0.081-1.703h1.411V8.74h0.032
			c0.39-0.876,1.087-1.185,2.044-1.185c0.746,0,1.605,0.309,1.914,1.055c0.454-0.876,1.2-1.055,1.946-1.055
			c0.859,0,2.238,0.194,2.238,2.125v6.229h-1.33v-5.677c0-0.827-0.227-1.59-1.297-1.59c-0.503,0-0.649,0.017-1.006,0.309
			c-0.39,0.324-0.454,1.135-0.454,1.443v5.515H119.345z"/>
		<path fill="#231F20" d="M131.251,14.725h-0.032c-0.405,0.94-1.038,1.346-2.061,1.346c-1.735,0-2.238-1.119-2.238-2.692
			c0-2.481,2.434-2.596,4.299-2.547c0.032-1.087,0.049-2.271-1.379-2.271c-0.892,0-1.362,0.601-1.281,1.46h-1.443
			c0.064-1.833,1.038-2.466,2.773-2.466c2.108,0,2.66,1.087,2.66,2.466v3.941c0,0.648,0.064,1.313,0.162,1.946h-1.46V14.725z
			 M128.25,13.476c0,0.794,0.39,1.508,1.281,1.508c0.812,0,1.817-0.503,1.688-3.146C129.953,11.854,128.25,11.74,128.25,13.476z"/>
		<path fill="#231F20" d="M135.111,7.717h1.33v9.327c0,1.297-0.373,1.962-2.319,1.962v-1.135c0.568,0,0.989-0.081,0.989-0.763V7.717
			z M135.03,4.198h1.492v1.428h-1.492V4.198z"/>
		<path fill="#231F20" d="M138.517,11.935c0-2.4,0.275-4.38,3.114-4.38s3.114,1.979,3.114,4.38c0,3.617-1.379,4.136-3.114,4.136
			S138.517,15.552,138.517,11.935z M143.351,11.366c0-2.238-0.698-2.725-1.72-2.725s-1.719,0.486-1.719,2.725
			c0,2.66,0.34,3.617,1.719,3.617S143.351,14.027,143.351,11.366z"/>
		<path fill="#231F20" d="M148.233,8.95h0.032c0.552-1.249,1.232-1.396,2.53-1.396v1.379c-0.113-0.017-0.243-0.032-0.356-0.049
			c-0.113-0.016-0.228-0.032-0.357-0.032c-1.476,0-1.849,1.119-1.849,2.222v4.834h-1.33V7.717h1.33V8.95z"/>
		<path fill="#231F20" d="M161.16,7.425c0.017-0.665-0.032-1.33-0.34-1.703c-0.309-0.373-1.006-0.503-1.314-0.503
			c-1.232,0-1.719,0.746-1.768,0.909c-0.049,0.129-0.341,0.421-0.341,2.433v3.131c0,2.87,0.94,3.211,2.093,3.211
			c0.454,0,1.832-0.162,1.849-2.449h1.541c0.064,3.698-2.547,3.698-3.309,3.698c-1.46,0-3.698-0.098-3.698-4.639V8.204
			c0-3.31,1.46-4.25,3.763-4.25c2.319,0,3.212,1.2,3.065,3.471H161.16z"/>
		<path fill="#231F20" d="M169.092,15.908h-1.784l-3.391-11.711h1.622l2.677,10.3h0.032l2.741-10.3h1.524L169.092,15.908z"/>
		<path fill="#231F20" d="M178.792,12.242c0,2.287,0.616,2.741,1.654,2.741c0.908,0,1.379-0.729,1.428-1.557h1.46
			c-0.017,1.816-1.136,2.644-2.855,2.644c-1.735,0-3.114-0.519-3.114-4.136c0-2.4,0.276-4.38,3.114-4.38
			c2.336,0,2.92,1.281,2.92,3.99v0.697H178.792z M181.987,11.238c0-2.385-0.665-2.677-1.639-2.677c-0.843,0-1.541,0.405-1.557,2.677
			H181.987z"/>
		<path fill="#231F20" d="M184.664,7.717h1.492l1.833,6.942h0.032L190,7.717h1.396l-2.563,8.191h-1.735L184.664,7.717z"/>
		<path fill="#231F20" d="M194.103,12.242c0,2.287,0.617,2.741,1.655,2.741c0.908,0,1.378-0.729,1.427-1.557h1.46
			c-0.017,1.816-1.136,2.644-2.854,2.644c-1.735,0-3.114-0.519-3.114-4.136c0-2.4,0.275-4.38,3.114-4.38
			c2.336,0,2.919,1.281,2.919,3.99v0.697H194.103z M197.298,11.238c0-2.385-0.665-2.677-1.638-2.677
			c-0.844,0-1.541,0.405-1.558,2.677H197.298z"/>
		<path fill="#231F20" d="M205.36,15.908v-5.677c0-0.876-0.308-1.59-1.443-1.59c-1.46,0-1.671,1.298-1.671,2.417v4.85h-1.33V9.42
			c0-0.567-0.032-1.135-0.081-1.703h1.411v1.055h0.065c0.519-0.925,1.135-1.217,2.189-1.217c1.752,0,2.189,1.055,2.189,2.677v5.677
			H205.36z"/>
		<path fill="#231F20" d="M209.172,7.717V6.144l1.33-0.6v2.173h1.784v1.006h-1.784v5.012c0,0.52,0,1.185,1.216,1.185
			c0.098,0,0.309-0.032,0.601-0.065v1.022c-0.438,0.032-0.876,0.13-1.314,0.13c-1.265,0-1.832-0.52-1.832-1.46V8.723h-1.347V7.717
			H209.172z"/>
		<path fill="#231F20" d="M215.952,16.071c-1.768,0-2.87-0.778-2.822-2.66h1.509c0,0.471,0.017,1.573,1.362,1.573
			c0.795,0,1.411-0.405,1.411-1.249c0-1.46-4.087-1.492-4.087-3.941c0-0.859,0.519-2.238,2.822-2.238
			c1.46,0,2.709,0.697,2.595,2.319h-1.476c0.016-0.859-0.438-1.313-1.281-1.313c-0.714,0-1.266,0.39-1.266,1.103
			c0,1.444,4.088,1.411,4.088,3.909C218.807,15.373,217.574,16.071,215.952,16.071z"/>
	</g>
	<g>
		<path fill="#231F20" d="M223.72,5.724l1.477,2.108l-0.941,0.519l-1.086-2.335l-1.087,2.335l-0.941-0.519l1.477-2.108l-2.53,0.243
			v-1.07l2.53,0.194l-1.46-2.06l0.957-0.552l1.055,2.303l1.054-2.303l0.957,0.552l-1.46,2.06l2.53-0.194v1.07L223.72,5.724z"/>
	</g>
</g>
</svg>
