<?xml version="1.0" encoding="utf-8"?>
<!-- Generator: Adobe Illustrator 17.0.0, SVG Export Plug-In . SVG Version: 6.00 Build 0)  -->
<!DOCTYPE svg PUBLIC "-//W3C//DTD SVG 1.1//EN" "http://www.w3.org/Graphics/SVG/1.1/DTD/svg11.dtd">
<svg version="1.1" id="Layer_1" xmlns="http://www.w3.org/2000/svg" xmlns:xlink="http://www.w3.org/1999/xlink" x="0px" y="0px"
	 width="560.727px" height="360.905px" viewBox="0 0 560.727 360.905" enable-background="new 0 0 560.727 360.905"
	 xml:space="preserve">
<g>
	<defs>
		<polyline id="SVGID_17_" points="698.193,330.464 698.193,-117.316 -323.319,-117.316 -323.319,330.464 		"/>
	</defs>
	<clipPath id="SVGID_2_">
		<use xlink:href="#SVGID_17_"  overflow="visible"/>
	</clipPath>
</g>
<g>
	<g>
		<g>
			
				<radialGradient id="SVGID_4_" cx="223.2367" cy="163.1088" r="196.538" gradientTransform="matrix(1.2749 0 0 0.9787 -4.2409 6.7268)" gradientUnits="userSpaceOnUse">
				<stop  offset="0" style="stop-color:#A0D4E4;stop-opacity:0"/>
				<stop  offset="0.0392" style="stop-color:#9DD2E5;stop-opacity:0.197"/>
				<stop  offset="0.0707" style="stop-color:#93CDE6;stop-opacity:0.3552"/>
				<stop  offset="0.0995" style="stop-color:#82C4E9;stop-opacity:0.5"/>
				<stop  offset="0.1267" style="stop-color:#6AB8ED;stop-opacity:0.6367"/>
				<stop  offset="0.1528" style="stop-color:#4BA8F2;stop-opacity:0.7679"/>
				<stop  offset="0.1777" style="stop-color:#2694F9;stop-opacity:0.893"/>
				<stop  offset="0.199" style="stop-color:#0080FF"/>
				<stop  offset="0.2012" style="stop-color:#007FFC"/>
				<stop  offset="0.2379" style="stop-color:#006CD3"/>
				<stop  offset="0.2776" style="stop-color:#015BAF"/>
				<stop  offset="0.3223" style="stop-color:#014D8F"/>
				<stop  offset="0.3717" style="stop-color:#014073"/>
				<stop  offset="0.4275" style="stop-color:#02365D"/>
				<stop  offset="0.4927" style="stop-color:#022E4C"/>
				<stop  offset="0.5733" style="stop-color:#022941"/>
				<stop  offset="0.6863" style="stop-color:#02263A"/>
				<stop  offset="1" style="stop-color:#022538"/>
			</radialGradient>
			<path fill="url(#SVGID_4_)" d="M560.727,292.746c0,13.765-14.536,24.924-32.466,24.924c0,0-194.858,15.244-260.056,15.051
				c-59.138-0.175-235.739-15.051-235.739-15.051C14.536,317.67,0,306.511,0,292.746V37.044C0,23.278,14.536,12.12,32.466,12.12
				c0,0,176.804-12.12,235.739-12.12c65.014,0,260.056,12.12,260.056,12.12c17.931,0,32.466,11.159,32.466,24.924V292.746z"/>
			<g>
				
					<radialGradient id="SVGID_6_" cx="223.2367" cy="163.1088" r="192.3273" gradientTransform="matrix(1.2749 0 0 0.9787 -4.2409 6.7268)" gradientUnits="userSpaceOnUse">
					<stop  offset="0" style="stop-color:#FFFFFF"/>
					<stop  offset="1" style="stop-color:#F7F7F7"/>
				</radialGradient>
				<path fill="url(#SVGID_6_)" d="M554.72,290.038c0,13.47-14.224,24.39-31.771,24.39c0,0-190.683,14.918-254.484,14.728
					c-57.871-0.172-230.688-14.728-230.688-14.728c-17.546,0-31.771-10.92-31.771-24.39V39.814c0-13.47,14.224-24.39,31.771-24.39
					c0,0,173.016-11.86,230.688-11.86c63.621,0,254.484,11.86,254.484,11.86c17.546,0,31.771,10.92,31.771,24.39V290.038z"/>
			</g>
		</g>
		<g>
			
				<line fill="none" stroke="#004051" stroke-width="2.2495" stroke-miterlimit="10" x1="74.77" y1="54.272" x2="74.77" y2="266.947"/>
			
				<line fill="none" stroke="#004051" stroke-width="2.2495" stroke-miterlimit="10" x1="67.967" y1="259.186" x2="401.885" y2="259.186"/>
			
				<line fill="none" stroke="#004051" stroke-width="2.2495" stroke-miterlimit="10" x1="67.115" y1="53.697" x2="75.621" y2="53.697"/>
			
				<line fill="none" stroke="#004051" stroke-width="2.2495" stroke-miterlimit="10" x1="67.115" y1="95.06" x2="75.621" y2="95.06"/>
			
				<line fill="none" stroke="#004051" stroke-width="2.2495" stroke-miterlimit="10" x1="67.115" y1="135.46" x2="75.621" y2="135.46"/>
			
				<line fill="none" stroke="#004051" stroke-width="2.2495" stroke-miterlimit="10" x1="67.115" y1="176.416" x2="75.621" y2="176.416"/>
			
				<line fill="none" stroke="#004051" stroke-width="2.2495" stroke-miterlimit="10" x1="67.115" y1="216.937" x2="75.621" y2="216.937"/>
			
				<line fill="none" stroke="#004051" stroke-width="2.2495" stroke-miterlimit="10" x1="133.021" y1="267.808" x2="133.021" y2="259.186"/>
			
				<line fill="none" stroke="#004051" stroke-width="2.2495" stroke-miterlimit="10" x1="184.895" y1="267.808" x2="184.895" y2="259.186"/>
			
				<line fill="none" stroke="#004051" stroke-width="2.2495" stroke-miterlimit="10" x1="239.318" y1="267.808" x2="239.318" y2="259.186"/>
			
				<line fill="none" stroke="#004051" stroke-width="2.2495" stroke-miterlimit="10" x1="293.314" y1="267.808" x2="293.314" y2="259.186"/>
			
				<line fill="none" stroke="#004051" stroke-width="2.2495" stroke-miterlimit="10" x1="348.165" y1="267.808" x2="348.165" y2="259.186"/>
			
				<line fill="none" stroke="#004051" stroke-width="2.2495" stroke-miterlimit="10" x1="401.884" y1="267.808" x2="401.884" y2="259.186"/>
			<g>
				<g>
					<path fill="#04607D" d="M205.791,295.398v-8.515h-3.189v-1.136h7.686v1.136h-3.19v8.515H205.791z"/>
					<path fill="#04607D" d="M211.668,285.774h1.489v1.377h-1.489V285.774z M211.799,288.688h1.24v6.71h-1.24V288.688z"/>
					<path fill="#04607D" d="M215.436,289.583l-0.025-0.896h1.252v0.976c0.633-1.056,1.529-1.149,2.096-1.149
						c1.464,0,1.926,0.762,2.162,1.257c0.225-0.375,0.766-1.257,2.229-1.257c0.949,0,2.426,0.401,2.426,2.379v4.505h-1.252v-4.304
						c0-0.589-0.105-0.843-0.225-1.017c-0.211-0.307-0.633-0.588-1.266-0.588c-0.805,0-1.239,0.468-1.41,0.709
						c-0.291,0.414-0.291,1.149-0.291,1.443v3.756h-1.252v-4.438c0-0.829-0.475-1.471-1.45-1.471c-0.844,0-1.306,0.535-1.45,0.735
						c-0.277,0.388-0.29,0.936-0.29,1.363v3.81h-1.253V289.583z"/>
					<path fill="#04607D" d="M228.64,292.27c-0.026,1.391,0.54,2.42,1.898,2.42c0.804,0,1.45-0.428,1.556-1.391h1.239
						c-0.04,0.334-0.093,0.882-0.567,1.403c-0.289,0.334-0.949,0.896-2.28,0.896c-2.083,0-3.071-1.31-3.071-3.435
						c0-1.323,0.264-2.42,1.305-3.155c0.633-0.454,1.424-0.494,1.807-0.494c2.966,0,2.9,2.66,2.873,3.756H228.64z M232.133,291.388
						c0.014-0.642-0.105-1.979-1.635-1.979c-0.804,0-1.779,0.494-1.806,1.979H232.133z"/>
					<path fill="#04607D" d="M240.249,297.042c-0.712-1.778-1.569-3.997-1.569-5.948c0-1.057,0.238-2.099,0.541-3.115
						c0.369-1.202,0.712-2.058,0.936-2.633h0.871c-0.211,0.655-0.502,1.563-0.778,2.834c-0.276,1.229-0.369,2.059-0.369,2.887
						c0,1.898,0.462,3.436,1.226,5.976H240.249z"/>
					<path fill="#04607D" d="M246.246,295.438l-0.949,2.5h-1.279l1.002-2.566l-2.756-6.684h1.398l2.069,5.293l2.109-5.293h1.345
						L246.246,295.438z"/>
					<path fill="#04607D" d="M251.344,292.27c-0.025,1.391,0.541,2.42,1.898,2.42c0.805,0,1.451-0.428,1.557-1.391h1.238
						c-0.039,0.334-0.092,0.882-0.566,1.403c-0.29,0.334-0.949,0.896-2.281,0.896c-2.082,0-3.071-1.31-3.071-3.435
						c0-1.323,0.264-2.42,1.306-3.155c0.633-0.454,1.424-0.494,1.806-0.494c2.966,0,2.9,2.66,2.874,3.756H251.344z M254.838,291.388
						c0.014-0.642-0.105-1.979-1.635-1.979c-0.805,0-1.779,0.494-1.807,1.979H254.838z"/>
					<path fill="#04607D" d="M261.953,295.398c-0.092-0.334-0.119-0.655-0.119-1.003c-0.593,1.11-1.489,1.217-2.043,1.217
						c-1.516,0-2.334-0.869-2.334-1.979c0-0.534,0.186-1.39,1.16-1.965c0.713-0.4,1.768-0.44,2.295-0.44
						c0.316,0,0.514,0.013,0.896,0.04c0-0.829,0-1.19-0.238-1.484c-0.25-0.334-0.791-0.44-1.146-0.44
						c-1.252,0-1.318,0.868-1.332,1.136h-1.238c0.039-0.348,0.078-0.815,0.461-1.27c0.501-0.562,1.438-0.722,2.136-0.722
						c0.962,0,1.991,0.307,2.347,0.988c0.211,0.401,0.225,0.723,0.225,1.029l-0.053,3.208c0,0.107,0.013,1.003,0.105,1.685H261.953z
						 M261.096,292.096c-0.5,0-2.386,0-2.386,1.363c0,0.428,0.264,1.163,1.371,1.163c0.633,0,1.107-0.254,1.411-0.722
						c0.276-0.454,0.289-0.829,0.316-1.765C261.584,292.109,261.4,292.096,261.096,292.096z"/>
					<path fill="#04607D" d="M265.312,290.051c0-0.454-0.026-0.922-0.065-1.363h1.252l0.026,1.297
						c0.237-0.937,1.028-1.243,1.582-1.323c0.369-0.054,0.646-0.041,0.856-0.027v1.229c-0.065-0.026-0.145-0.04-0.236-0.053
						c-0.093-0.014-0.211-0.014-0.356-0.014c-1.464,0-1.806,0.882-1.806,2.031v3.569h-1.253V290.051z"/>
					<path fill="#04607D" d="M271.334,293.406c-0.014,0.508,0.25,1.216,1.45,1.216c0.515,0,0.896-0.094,1.16-0.428
						c0.132-0.174,0.211-0.4,0.211-0.628c0-0.655-0.462-0.775-1.45-1.003c-1.385-0.32-2.545-0.602-2.545-2.005
						c0-1.229,1.055-2.031,2.584-2.031c0.831,0,1.991,0.24,2.387,1.042c0.172,0.375,0.172,0.695,0.172,0.976h-1.266
						c0.039-1.016-0.831-1.096-1.279-1.096c-0.185,0-1.345,0-1.345,0.963c0,0.614,0.593,0.762,0.937,0.855
						c1.832,0.44,2.228,0.548,2.623,0.922c0.369,0.348,0.501,0.815,0.501,1.243c0,0.748-0.409,1.39-0.896,1.697
						c-0.58,0.361-1.278,0.455-1.964,0.455c-1.346,0-2.598-0.562-2.584-2.179H271.334z"/>
					<path fill="#04607D" d="M277.909,285.346c0.712,1.777,1.569,3.983,1.569,5.935c0,1.057-0.238,2.099-0.541,3.114
						c-0.369,1.203-0.712,2.072-0.936,2.647h-0.871c0.211-0.669,0.502-1.578,0.778-2.848c0.276-1.216,0.369-2.059,0.369-2.887
						c0-1.885-0.462-3.422-1.226-5.962H277.909z"/>
				</g>
				<g>
					<path fill="#04607D" d="M19.018,191.452v-3.234c0-1.176,0.066-1.979,0.765-2.633c0.487-0.481,1.134-0.709,1.846-0.709
						c0.726,0,1.345,0.241,1.858,0.762c0.502,0.509,0.818,1.177,0.818,2.914v1.564h4.231v1.336H19.018z M23.197,190.116v-1.591
						c0-0.882-0.066-2.232-1.622-2.232c-1.489,0-1.489,1.257-1.489,1.952v1.871H23.197z"/>
					<path fill="#04607D" d="M28.536,179.587c-0.329,0.094-0.646,0.12-0.989,0.12c1.095,0.602,1.2,1.511,1.2,2.072
						c0,1.537-0.856,2.366-1.951,2.366c-0.527,0-1.371-0.188-1.938-1.177c-0.395-0.722-0.435-1.791-0.435-2.326
						c0-0.32,0.013-0.521,0.04-0.908c-0.818,0-1.174,0-1.464,0.24c-0.329,0.254-0.435,0.802-0.435,1.163
						c0,1.27,0.856,1.337,1.12,1.35v1.257c-0.343-0.04-0.804-0.08-1.253-0.468c-0.553-0.508-0.711-1.457-0.711-2.166
						c0-0.976,0.303-2.018,0.975-2.379c0.396-0.214,0.713-0.228,1.016-0.228l3.164,0.054c0.105,0,0.988-0.014,1.661-0.106V179.587z
						 M25.28,180.456c0,0.508,0,2.419,1.346,2.419c0.422,0,1.146-0.267,1.146-1.39c0-0.642-0.25-1.123-0.712-1.431
						c-0.448-0.28-0.817-0.294-1.74-0.32C25.293,179.961,25.28,180.149,25.28,180.456z"/>
					<path fill="#04607D" d="M21.892,177.277v-1.189h-1.384l-0.396-1.243h1.78v-1.497h0.909v1.497h3.969c0.33,0,0.883,0,0.883-0.896
						c0-0.254-0.039-0.494-0.065-0.602h0.962c0.04,0.228,0.08,0.589,0.08,1.043c0,1.149-0.33,1.697-1.411,1.697h-4.417v1.189H21.892
						z"/>
					<path fill="#04607D" d="M19.044,171.92v-1.511h1.358v1.511H19.044z M21.918,171.786v-1.257h6.618v1.257H21.918z"/>
					<path fill="#04607D" d="M25.451,167.323c1.371,0.027,2.387-0.548,2.387-1.925c0-0.815-0.422-1.47-1.371-1.577v-1.256
						c0.329,0.04,0.869,0.093,1.384,0.574c0.329,0.294,0.884,0.963,0.884,2.313c0,2.112-1.293,3.114-3.389,3.114
						c-1.305,0-2.387-0.267-3.111-1.323c-0.448-0.642-0.488-1.443-0.488-1.831c0-3.008,2.624-2.94,3.705-2.914V167.323z
						 M24.581,163.781c-0.633-0.014-1.951,0.107-1.951,1.657c0,0.815,0.487,1.805,1.951,1.832V163.781z"/>
					<path fill="#04607D" d="M22.683,160.616l-0.765,0.014v-1.256l1.068-0.014c-0.277-0.147-1.2-0.629-1.2-2.152
						c0-0.602,0.224-2.433,2.255-2.433h4.495v1.283H24.33c-0.435,0-0.83,0.054-1.133,0.361c-0.304,0.32-0.449,0.762-0.449,1.189
						c0,0.909,0.646,1.751,1.979,1.751h3.81v1.256H22.683z"/>
					<path fill="#04607D" d="M21.892,153.523v-1.189h-1.384l-0.396-1.243h1.78v-1.497h0.909v1.497h3.969c0.33,0,0.883,0,0.883-0.896
						c0-0.254-0.039-0.494-0.065-0.602h0.962c0.04,0.228,0.08,0.589,0.08,1.043c0,1.149-0.33,1.697-1.411,1.697h-4.417v1.189H21.892
						z"/>
					<path fill="#04607D" d="M26.572,147.323c0.5,0.014,1.199-0.254,1.199-1.47c0-0.521-0.092-0.909-0.422-1.177
						c-0.172-0.134-0.396-0.214-0.619-0.214c-0.646,0-0.766,0.468-0.989,1.471c-0.316,1.403-0.593,2.58-1.978,2.58
						c-1.213,0-2.004-1.069-2.004-2.62c0-0.842,0.237-2.019,1.028-2.42c0.369-0.174,0.686-0.174,0.962-0.174v1.283
						c-1.002-0.04-1.08,0.843-1.08,1.297c0,0.188,0,1.363,0.949,1.363c0.605,0,0.751-0.602,0.844-0.949
						c0.435-1.857,0.54-2.259,0.909-2.659c0.343-0.375,0.804-0.509,1.226-0.509c0.738,0,1.371,0.415,1.675,0.909
						c0.356,0.589,0.448,1.297,0.448,1.992c0,1.363-0.554,2.633-2.148,2.619V147.323z"/>
					<path fill="#04607D" d="M21.918,137.29l5.273-1.617l-5.273-1.698v-1.644l5.221-1.523l-5.221-1.685v-1.297l6.618,2.366v1.443
						l-5.444,1.577l5.444,1.751v1.484l-6.618,2.219V137.29z"/>
					<path fill="#04607D" d="M19.044,126.643v-1.511h1.358v1.511H19.044z M21.918,126.509v-1.257h6.618v1.257H21.918z"/>
					<path fill="#04607D" d="M21.892,123.836v-1.189h-1.384l-0.396-1.243h1.78v-1.497h0.909v1.497h3.969c0.33,0,0.883,0,0.883-0.896
						c0-0.254-0.039-0.494-0.065-0.602h0.962c0.04,0.228,0.08,0.589,0.08,1.043c0,1.149-0.33,1.697-1.411,1.697h-4.417v1.189H21.892
						z"/>
					<path fill="#04607D" d="M19.031,118.358v-1.27h3.862c-0.698-0.414-1.095-1.243-1.095-2.179c0-0.708,0.251-1.725,1.055-2.112
						c0.264-0.133,0.58-0.227,1.543-0.227h4.14v1.283h-3.915c-0.594,0-1.873,0-1.873,1.443c0,0.936,0.567,1.403,0.884,1.577
						c0.369,0.214,0.989,0.214,1.397,0.214h3.507v1.27H19.031z"/>
				</g>
				<g>
					<path fill="#04607D" d="M35.846,212.601l-0.883,0.027v-1.271h0.962c-1.042-0.642-1.134-1.55-1.134-2.125
						c0-1.483,0.752-1.951,1.239-2.192c-0.369-0.227-1.239-0.775-1.239-2.259c0-0.962,0.396-2.46,2.347-2.46h4.442v1.271h-4.244
						c-0.58,0-0.831,0.106-1.002,0.228c-0.304,0.213-0.58,0.641-0.58,1.283c0,0.814,0.461,1.256,0.698,1.43
						c0.409,0.294,1.134,0.294,1.424,0.294h3.704v1.271h-4.377c-0.816,0-1.449,0.48-1.449,1.47c0,0.855,0.527,1.323,0.725,1.471
						c0.383,0.28,0.923,0.294,1.345,0.294h3.757v1.27H35.846z"/>
					<path fill="#04607D" d="M41.58,195.885c-0.329,0.094-0.646,0.12-0.988,0.12c1.094,0.602,1.199,1.511,1.199,2.072
						c0,1.537-0.856,2.366-1.951,2.366c-0.527,0-1.371-0.188-1.938-1.177c-0.396-0.722-0.436-1.791-0.436-2.326
						c0-0.32,0.014-0.521,0.04-0.908c-0.817,0-1.173,0-1.464,0.24c-0.329,0.254-0.435,0.802-0.435,1.163
						c0,1.27,0.856,1.337,1.12,1.35v1.257c-0.342-0.04-0.804-0.08-1.252-0.468c-0.554-0.508-0.712-1.457-0.712-2.165
						c0-0.977,0.304-2.019,0.976-2.38c0.396-0.214,0.712-0.228,1.016-0.228l3.164,0.054c0.105,0,0.988-0.013,1.66-0.106V195.885z
						 M38.324,196.754c0,0.508,0,2.419,1.345,2.419c0.422,0,1.147-0.268,1.147-1.39c0-0.642-0.251-1.123-0.713-1.431
						c-0.447-0.28-0.816-0.294-1.74-0.32C38.338,196.259,38.324,196.446,38.324,196.754z"/>
					<path fill="#04607D" d="M32.088,192.628v-1.524h1.371v1.524H32.088z M43.242,193.737c0.039-0.989-0.133-1.23-1.188-1.23h-7.092
						v-1.256H42.2c0.633,0,1.978,0.026,1.978,1.711c0,0.16-0.014,0.428-0.053,0.775H43.242z"/>
					<path fill="#04607D" d="M34.791,185.919c0-2.688,2.083-3.289,3.467-3.289c1.938,0,3.547,1.11,3.547,3.396
						c0,2.219-1.516,3.302-3.454,3.302C36.716,189.327,34.791,188.552,34.791,185.919z M40.882,185.999
						c0-0.949-0.673-2.032-2.663-2.032c-1.648,0-2.518,0.775-2.518,1.952c0,0.802,0.5,2.099,2.57,2.099
						C39.629,188.018,40.882,187.429,40.882,185.999z"/>
					<path fill="#04607D" d="M36.307,180.603c-0.447,0-0.909,0.026-1.344,0.066v-1.27l1.278-0.026
						c-0.923-0.241-1.226-1.043-1.306-1.604c-0.053-0.374-0.039-0.654-0.025-0.868h1.213c-0.027,0.066-0.04,0.146-0.053,0.24
						c-0.014,0.094-0.014,0.214-0.014,0.361c0,1.483,0.87,1.831,2.004,1.831h3.52v1.27H36.307z"/>
					<path fill="#04607D" d="M34.633,165.943c-0.33,0.054-1.648,0.228-1.648,2.086c0,2.325,2.348,2.74,3.93,2.74
						c1.793,0,3.73-0.521,3.73-2.728c0-0.588-0.145-1.149-0.566-1.563c-0.369-0.348-0.778-0.428-1.002-0.468v-1.471
						c1.871,0.201,2.649,1.952,2.649,3.609c0,3.395-2.953,4.05-4.799,4.05c-2.004,0-4.997-0.788-4.997-4.224
						c0-1.363,0.541-3.288,2.703-3.462V165.943z"/>
					<path fill="#04607D" d="M41.58,158.931v1.471l-9.518,3.435v-1.483l8.134-2.74l-8.134-2.887v-1.351L41.58,158.931z"/>
					<path fill="#04607D" d="M38.496,149.459c1.371,0.027,2.386-0.548,2.386-1.925c0-0.815-0.422-1.47-1.371-1.577v-1.256
						c0.329,0.04,0.87,0.093,1.384,0.574c0.33,0.294,0.884,0.963,0.884,2.313c0,2.112-1.292,3.114-3.388,3.114
						c-1.306,0-2.387-0.268-3.111-1.323c-0.449-0.642-0.488-1.443-0.488-1.831c0-3.008,2.623-2.94,3.705-2.914V149.459z
						 M37.625,145.917c-0.633-0.014-1.951,0.107-1.951,1.657c0,0.815,0.488,1.805,1.951,1.832V145.917z"/>
					<path fill="#04607D" d="M34.963,143.81v-1.403l5.246-2.139l-5.246-2.086v-1.39l6.617,2.94v1.27L34.963,143.81z"/>
					<path fill="#04607D" d="M38.496,134.603c1.371,0.027,2.386-0.548,2.386-1.925c0-0.815-0.422-1.47-1.371-1.577v-1.256
						c0.329,0.04,0.87,0.093,1.384,0.574c0.33,0.294,0.884,0.963,0.884,2.313c0,2.112-1.292,3.114-3.388,3.114
						c-1.306,0-2.387-0.267-3.111-1.323c-0.449-0.642-0.488-1.443-0.488-1.831c0-3.008,2.623-2.94,3.705-2.914V134.603z
						 M37.625,131.061c-0.633-0.014-1.951,0.107-1.951,1.657c0,0.815,0.488,1.805,1.951,1.832V131.061z"/>
					<path fill="#04607D" d="M35.727,127.896l-0.764,0.014v-1.256l1.067-0.014c-0.276-0.147-1.2-0.629-1.2-2.152
						c0-0.602,0.225-2.433,2.255-2.433h4.495v1.283h-4.205c-0.436,0-0.83,0.054-1.134,0.361c-0.304,0.32-0.448,0.762-0.448,1.189
						c0,0.909,0.646,1.751,1.978,1.751h3.81v1.256H35.727z"/>
					<path fill="#04607D" d="M34.936,120.802v-1.189h-1.384l-0.396-1.243h1.779v-1.497h0.91v1.497h3.969
						c0.329,0,0.883,0,0.883-0.896c0-0.254-0.039-0.494-0.066-0.602h0.963c0.039,0.228,0.079,0.589,0.079,1.043
						c0,1.149-0.329,1.697-1.411,1.697h-4.416v1.189H34.936z"/>
					<path fill="#04607D" d="M39.616,114.603c0.501,0.014,1.2-0.254,1.2-1.47c0-0.521-0.093-0.909-0.422-1.177
						c-0.172-0.134-0.396-0.214-0.62-0.214c-0.646,0-0.765,0.468-0.989,1.471c-0.316,1.403-0.593,2.58-1.977,2.58
						c-1.213,0-2.004-1.069-2.004-2.62c0-0.842,0.236-2.019,1.027-2.42c0.369-0.174,0.686-0.174,0.963-0.174v1.283
						c-1.002-0.04-1.081,0.843-1.081,1.297c0,0.188,0,1.363,0.949,1.363c0.606,0,0.751-0.602,0.844-0.949
						c0.435-1.857,0.54-2.259,0.909-2.659c0.344-0.375,0.805-0.509,1.227-0.509c0.738,0,1.371,0.415,1.674,0.909
						c0.356,0.589,0.449,1.297,0.449,1.992c0,1.363-0.555,2.633-2.149,2.619V114.603z"/>
					<path fill="#04607D" d="M43.202,103.54c-1.753,0.722-3.942,1.591-5.866,1.591c-1.042,0-2.07-0.241-3.072-0.548
						c-1.187-0.375-2.03-0.723-2.598-0.949v-0.883c0.646,0.214,1.543,0.509,2.795,0.789c1.213,0.28,2.031,0.374,2.848,0.374
						c1.873,0,3.389-0.468,5.894-1.243V103.54z"/>
					<path fill="#04607D" d="M42.095,99.185L31.944,93.29v-0.883l10.151,5.895V99.185z M34.541,96.618
						c1.635,0,2.386,0.976,2.386,2.192c0,1.162-0.686,2.151-2.308,2.151c-1.384,0-2.412-0.762-2.412-2.272
						C32.207,97.152,33.341,96.618,34.541,96.618z M34.594,97.674c-0.646,0-1.596,0.16-1.596,1.109c0,1.149,1.292,1.149,1.608,1.149
						c0.304,0,1.556,0,1.556-1.149C36.162,97.674,34.858,97.674,34.594,97.674z M37.653,91.03c0.264-0.24,0.686-0.548,1.674-0.548
						c1.438,0,2.412,0.709,2.412,2.152c0,1.711-1.252,2.192-2.346,2.192c-1.596,0-2.373-1.003-2.373-2.192
						C37.02,92.274,37.085,91.552,37.653,91.03z M39.353,91.499c-0.409,0-1.595,0.08-1.595,1.122c0,1.149,1.371,1.149,1.766,1.149
						c0.462,0,1.438-0.106,1.438-1.122C40.961,91.579,39.827,91.499,39.353,91.499z"/>
					<path fill="#04607D" d="M31.666,87.896c1.754-0.722,3.93-1.591,5.854-1.591c1.042,0,2.07,0.241,3.072,0.548
						c1.187,0.375,2.043,0.723,2.61,0.949v0.883c-0.659-0.214-1.556-0.508-2.808-0.789c-1.2-0.28-2.031-0.374-2.848-0.374
						c-1.859,0-3.375,0.468-5.881,1.243V87.896z"/>
				</g>
				<g>
					<path fill="#04607D" d="M80.106,275.366c0,1.919-0.487,4.394-2.88,4.394c-2.392,0-2.88-2.475-2.88-4.394
						s0.488-4.394,2.88-4.394C79.618,270.973,80.106,273.447,80.106,275.366z M78.749,275.366c0-1.762-0.333-3.246-1.523-3.246
						s-1.523,1.484-1.523,3.246c0,1.763,0.333,3.247,1.523,3.247S78.749,277.129,78.749,275.366z"/>
				</g>
				<g>
					<path fill="#04607D" d="M64.797,259.275c0,1.919-0.488,4.394-2.881,4.394c-2.393,0-2.881-2.475-2.881-4.394
						s0.488-4.394,2.881-4.394C64.309,254.882,64.797,257.357,64.797,259.275z M63.44,259.275c0-1.762-0.333-3.246-1.523-3.246
						c-1.189,0-1.523,1.484-1.523,3.246c0,1.763,0.334,3.247,1.523,3.247C63.107,262.523,63.44,261.038,63.44,259.275z"/>
				</g>
				<g>
					<path fill="#04607D" d="M60.072,213.383h4.309v1.231h-3.297l-0.429,2.148l0.023,0.024c0.369-0.41,0.977-0.64,1.536-0.64
						c1.654,0,2.606,1.207,2.606,2.824c0,1.352-0.834,3.029-2.881,3.029c-1.606,0-2.855-0.881-2.916-2.571h1.357
						c0.084,0.905,0.654,1.425,1.535,1.425c1.154,0,1.547-0.833,1.547-1.858c0-0.93-0.487-1.763-1.582-1.763
						c-0.572,0-1.131,0.181-1.346,0.772h-1.356L60.072,213.383z"/>
				</g>
				<g>
					<path fill="#04607D" d="M52.441,173.683c1.143,0.012,2.226-0.386,2.428-1.4h1.106v8.449h-1.487v-5.963h-2.047V173.683z"/>
					<path fill="#04607D" d="M64.617,176.507c0,1.919-0.487,4.394-2.88,4.394c-2.392,0-2.88-2.475-2.88-4.394
						s0.488-4.394,2.88-4.394C64.13,172.113,64.617,174.588,64.617,176.507z M63.261,176.507c0-1.762-0.333-3.246-1.523-3.246
						s-1.523,1.484-1.523,3.246c0,1.763,0.333,3.247,1.523,3.247S63.261,178.27,63.261,176.507z"/>
				</g>
				<g>
					<path fill="#04607D" d="M52.441,133.441c1.143,0.012,2.226-0.386,2.428-1.4h1.106v8.449h-1.487v-5.963h-2.047V133.441z"/>
					<path fill="#04607D" d="M59.893,132.04h4.309v1.231h-3.297l-0.428,2.148l0.023,0.024c0.369-0.41,0.976-0.64,1.535-0.64
						c1.654,0,2.606,1.207,2.606,2.824c0,1.352-0.833,3.029-2.88,3.029c-1.607,0-2.857-0.881-2.916-2.571h1.356
						c0.083,0.905,0.655,1.425,1.535,1.425c1.155,0,1.548-0.833,1.548-1.858c0-0.93-0.488-1.763-1.584-1.763
						c-0.57,0-1.131,0.181-1.344,0.772H59L59.893,132.04z"/>
				</g>
				<g>
					<path fill="#04607D" d="M57.963,99.4h-5.689c0.012-1.388,0.715-2.438,1.833-3.198c1.083-0.797,2.487-1.461,2.511-2.776
						c0.013-0.604-0.237-1.496-1.404-1.496c-1.07,0-1.393,0.929-1.428,2.111h-1.357c0-1.87,1.012-3.259,2.869-3.259
						c2.035,0,2.678,1.509,2.678,2.596c0,1.34-0.904,2.172-1.856,2.848c-0.964,0.677-1.976,1.195-2.214,1.943h4.059V99.4z"/>
					<path fill="#04607D" d="M64.617,95.175c0,1.919-0.487,4.394-2.88,4.394c-2.392,0-2.88-2.475-2.88-4.394s0.488-4.394,2.88-4.394
						C64.13,90.781,64.617,93.256,64.617,95.175z M63.261,95.175c0-1.762-0.333-3.246-1.523-3.246s-1.523,1.484-1.523,3.246
						c0,1.763,0.333,3.247,1.523,3.247S63.261,96.938,63.261,95.175z"/>
				</g>
				<g>
					<path fill="#04607D" d="M57.963,57.152h-5.689c0.012-1.388,0.715-2.438,1.833-3.198c1.083-0.797,2.487-1.461,2.511-2.776
						c0.013-0.604-0.237-1.496-1.404-1.496c-1.07,0-1.393,0.929-1.428,2.111h-1.357c0-1.87,1.012-3.259,2.869-3.259
						c2.035,0,2.678,1.509,2.678,2.596c0,1.34-0.904,2.172-1.856,2.848c-0.964,0.677-1.976,1.195-2.214,1.943h4.059V57.152z"/>
					<path fill="#04607D" d="M59.893,48.703h4.309v1.231h-3.297l-0.428,2.148l0.023,0.024c0.369-0.41,0.976-0.64,1.535-0.64
						c1.654,0,2.606,1.207,2.606,2.824c0,1.352-0.833,3.029-2.88,3.029c-1.607,0-2.857-0.881-2.916-2.571h1.356
						c0.083,0.905,0.655,1.425,1.535,1.425c1.155,0,1.548-0.833,1.548-1.858c0-0.93-0.488-1.763-1.584-1.763
						c-0.57,0-1.131,0.181-1.344,0.772H59L59.893,48.703z"/>
				</g>
				<g>
					<path fill="#04607D" d="M129.539,272.555c1.143,0.012,2.226-0.386,2.428-1.4h1.107v8.449h-1.488v-5.963h-2.047V272.555z"/>
				</g>
				<g>
					<path fill="#04607D" d="M187.79,279.604h-5.688c0.012-1.388,0.713-2.438,1.832-3.198c1.084-0.797,2.488-1.461,2.512-2.776
						c0.012-0.604-0.238-1.496-1.404-1.496c-1.072,0-1.393,0.929-1.429,2.111h-1.356c0-1.87,1.012-3.259,2.868-3.259
						c2.035,0,2.678,1.509,2.678,2.596c0,1.34-0.904,2.172-1.856,2.848c-0.965,0.677-1.977,1.195-2.214,1.943h4.059V279.604z"/>
				</g>
				<g>
					<path fill="#04607D" d="M238.555,274.655c0.905,0.036,1.846-0.29,1.846-1.328c0-0.712-0.548-1.194-1.297-1.194
						c-0.941,0-1.404,0.856-1.381,1.726h-1.357c0.072-1.642,1.084-2.873,2.762-2.873c1.297,0,2.63,0.761,2.63,2.258
						c0,0.845-0.381,1.521-1.179,1.811v0.023c0.941,0.193,1.512,1.026,1.512,2.112c0,1.594-1.356,2.583-2.951,2.583
						c-1.928,0-2.893-1.183-2.928-2.945h1.356c-0.036,1.026,0.513,1.799,1.571,1.799c0.904,0,1.595-0.543,1.595-1.509
						c0-1.315-1.106-1.484-2.179-1.437V274.655z"/>
				</g>
				<g>
					<path fill="#04607D" d="M296.759,277.6h-1.071v2.004h-1.285V277.6h-3.57v-1.363l3.57-5.082h1.285v5.359h1.071V277.6z
						 M291.879,276.514h2.523v-3.718h-0.023L291.879,276.514z"/>
				</g>
				<g>
					<path fill="#04607D" d="M346.942,271.154h4.309v1.231h-3.297l-0.428,2.148l0.023,0.024c0.369-0.41,0.976-0.64,1.535-0.64
						c1.654,0,2.606,1.207,2.606,2.824c0,1.352-0.833,3.029-2.88,3.029c-1.607,0-2.857-0.881-2.916-2.571h1.356
						c0.083,0.905,0.655,1.425,1.535,1.425c1.155,0,1.548-0.833,1.548-1.858c0-0.93-0.488-1.763-1.584-1.763
						c-0.57,0-1.131,0.181-1.344,0.772h-1.357L346.942,271.154z"/>
				</g>
				<g>
					<path fill="#04607D" d="M402.847,273.291c-0.06-0.688-0.512-1.158-1.214-1.158c-1.477,0-1.643,1.786-1.727,2.896l0.024,0.024
						c0.369-0.664,1.06-1.002,1.798-1.002c1.654,0,2.63,1.219,2.63,2.836c0,1.642-1.106,2.885-2.773,2.885
						c-2.452,0-3.034-1.955-3.034-4.418c0-2.016,0.785-4.369,3.142-4.369c1.321,0,2.44,0.93,2.511,2.306H402.847z M403.002,276.863
						c0-0.905-0.488-1.726-1.465-1.726c-0.987,0-1.499,0.797-1.499,1.726c0,0.918,0.512,1.763,1.499,1.763
						C402.514,278.626,403.002,277.769,403.002,276.863z"/>
				</g>
				<g>
					<path fill="#04607D" d="M285.154,211.716h1.183l3.225,8.098h-1.203l-0.862-2.108h-3.7l-0.862,2.108h-1.138L285.154,211.716z
						 M284.149,216.797h3.016l-1.47-3.971L284.149,216.797z"/>
					<path fill="#04607D" d="M289.799,214.161h0.982v-1.178l1.027-0.337v1.515h1.238v0.773h-1.238v3.376c0,0.28,0,0.752,0.74,0.752
						c0.21,0,0.409-0.034,0.498-0.057v0.818c-0.188,0.034-0.486,0.067-0.862,0.067c-0.95,0-1.403-0.28-1.403-1.199v-3.758h-0.982
						V214.161z"/>
					<path fill="#04607D" d="M296.738,214.038c2.221,0,2.718,1.771,2.718,2.949c0,1.648-0.917,3.017-2.806,3.017
						c-1.834,0-2.729-1.289-2.729-2.938C293.922,215.675,294.563,214.038,296.738,214.038z M296.672,219.219
						c0.785,0,1.68-0.571,1.68-2.266c0-1.401-0.641-2.142-1.613-2.142c-0.662,0-1.734,0.426-1.734,2.187
						C295.004,218.153,295.49,219.219,296.672,219.219z"/>
					<path fill="#04607D" d="M301.14,215.327c0-0.381-0.022-0.773-0.056-1.144h1.05l0.022,1.088c0.199-0.785,0.861-1.043,1.326-1.11
						c0.309-0.045,0.541-0.034,0.717-0.022v1.031c-0.055-0.022-0.121-0.033-0.198-0.044c-0.077-0.012-0.177-0.012-0.298-0.012
						c-1.227,0-1.514,0.74-1.514,1.705v2.994h-1.05V215.327z"/>
					<path fill="#04607D" d="M304.545,214.184h1.16l1.768,4.464l1.724-4.464h1.149l-2.432,5.63h-1.049L304.545,214.184z"/>
					<path fill="#04607D" d="M314.912,219.814c-0.078-0.28-0.1-0.55-0.1-0.841c-0.498,0.931-1.248,1.021-1.713,1.021
						c-1.27,0-1.955-0.729-1.955-1.66c0-0.448,0.154-1.166,0.973-1.648c0.596-0.337,1.48-0.37,1.922-0.37
						c0.266,0,0.431,0.011,0.751,0.033c0-0.695,0-0.998-0.198-1.244c-0.211-0.281-0.663-0.37-0.961-0.37
						c-1.051,0-1.105,0.729-1.116,0.953h-1.038c0.033-0.292,0.066-0.685,0.387-1.065c0.42-0.472,1.203-0.605,1.789-0.605
						c0.807,0,1.668,0.258,1.967,0.829c0.176,0.337,0.188,0.606,0.188,0.864l-0.045,2.691c0,0.09,0.012,0.841,0.089,1.413H314.912z
						 M314.194,217.043c-0.42,0-2,0-2,1.145c0,0.358,0.222,0.976,1.15,0.976c0.529,0,0.928-0.213,1.182-0.605
						c0.232-0.382,0.242-0.695,0.265-1.48C314.603,217.055,314.447,217.043,314.194,217.043z"/>
					<path fill="#04607D" d="M318.275,218.143c-0.011,0.426,0.21,1.021,1.216,1.021c0.43,0,0.75-0.078,0.971-0.359
						c0.111-0.146,0.178-0.336,0.178-0.526c0-0.55-0.387-0.65-1.215-0.842c-1.16-0.269-2.133-0.504-2.133-1.682
						c0-1.032,0.884-1.705,2.166-1.705c0.695,0,1.668,0.202,1.999,0.875c0.144,0.313,0.144,0.583,0.144,0.818h-1.061
						c0.033-0.853-0.695-0.92-1.072-0.92c-0.154,0-1.127,0-1.127,0.808c0,0.517,0.498,0.64,0.785,0.718
						c1.535,0.37,1.867,0.46,2.198,0.774c0.31,0.291,0.42,0.684,0.42,1.043c0,0.628-0.343,1.166-0.751,1.424
						c-0.486,0.303-1.072,0.382-1.646,0.382c-1.127,0-2.176-0.472-2.165-1.828H318.275z"/>
					<path fill="#04607D" d="M322.355,214.161h0.983v-1.178l1.027-0.337v1.515h1.237v0.773h-1.237v3.376c0,0.28,0,0.752,0.74,0.752
						c0.209,0,0.408-0.034,0.497-0.057v0.818c-0.188,0.034-0.486,0.067-0.862,0.067c-0.949,0-1.402-0.28-1.402-1.199v-3.758h-0.983
						V214.161z"/>
					<path fill="#04607D" d="M330.268,219.814c-0.078-0.28-0.1-0.55-0.1-0.841c-0.498,0.931-1.248,1.021-1.713,1.021
						c-1.27,0-1.955-0.729-1.955-1.66c0-0.448,0.154-1.166,0.973-1.648c0.596-0.337,1.48-0.37,1.922-0.37
						c0.266,0,0.431,0.011,0.751,0.033c0-0.695,0-0.998-0.198-1.244c-0.211-0.281-0.663-0.37-0.961-0.37
						c-1.051,0-1.105,0.729-1.116,0.953h-1.038c0.033-0.292,0.066-0.685,0.387-1.065c0.42-0.472,1.203-0.605,1.789-0.605
						c0.807,0,1.668,0.258,1.967,0.829c0.176,0.337,0.188,0.606,0.188,0.864l-0.045,2.691c0,0.09,0.012,0.841,0.089,1.413H330.268z
						 M329.549,217.043c-0.42,0-2,0-2,1.145c0,0.358,0.222,0.976,1.15,0.976c0.529,0,0.928-0.213,1.182-0.605
						c0.232-0.382,0.242-0.695,0.265-1.48C329.958,217.055,329.803,217.043,329.549,217.043z"/>
					<path fill="#04607D" d="M332.183,214.161h0.983v-1.178l1.027-0.337v1.515h1.237v0.773h-1.237v3.376c0,0.28,0,0.752,0.74,0.752
						c0.209,0,0.408-0.034,0.497-0.057v0.818c-0.188,0.034-0.486,0.067-0.862,0.067c-0.949,0-1.402-0.28-1.402-1.199v-3.758h-0.983
						V214.161z"/>
					<path fill="#04607D" d="M336.615,211.738h1.248v1.155h-1.248V211.738z M336.726,214.184h1.038v5.63h-1.038V214.184z"/>
					<path fill="#04607D" d="M339.821,214.834l-0.011-0.65h1.038l0.012,0.908c0.121-0.235,0.52-1.021,1.778-1.021
						c0.497,0,2.011,0.19,2.011,1.918v3.824h-1.061v-3.578c0-0.369-0.045-0.706-0.299-0.964c-0.265-0.258-0.629-0.382-0.982-0.382
						c-0.752,0-1.447,0.55-1.447,1.683v3.241h-1.039V214.834z"/>
				</g>
				<g>
					<path fill="#04607D" d="M351.637,213.275c-0.475,0.403-1.236,0.863-1.777,1.121v-1.121c0.717-0.382,1.424-0.853,1.855-1.223
						h0.982v7.761h-1.061V213.275z"/>
					<path fill="#04607D" d="M357.231,211.896c2.287,0,2.564,2.49,2.564,3.948c0,1.839-0.365,2.871-1.061,3.532
						c-0.542,0.516-1.183,0.595-1.525,0.595c-1.016,0-1.713-0.605-2.043-1.29c-0.255-0.516-0.498-1.268-0.498-2.658
						C354.668,214.867,354.801,211.896,357.231,211.896z M357.221,219.04c1.281,0,1.502-1.705,1.502-3.096
						c0-1.862-0.32-3.151-1.48-3.151c-1.336,0-1.514,1.783-1.514,3.174C355.729,217.693,356.061,219.04,357.221,219.04z"/>
				</g>
				<g>
					<path fill="#04607D" d="M364.363,214.935l-0.021-0.751h1.049v0.818c0.531-0.886,1.281-0.964,1.757-0.964
						c1.226,0,1.612,0.639,1.812,1.054c0.188-0.313,0.641-1.054,1.867-1.054c0.795,0,2.033,0.336,2.033,1.996v3.779h-1.05v-3.611
						c0-0.493-0.089-0.706-0.188-0.853c-0.176-0.258-0.529-0.493-1.061-0.493c-0.674,0-1.038,0.393-1.182,0.595
						c-0.243,0.348-0.243,0.964-0.243,1.211v3.151h-1.05v-3.724c0-0.695-0.396-1.233-1.215-1.233c-0.707,0-1.094,0.448-1.215,0.617
						c-0.232,0.325-0.243,0.784-0.243,1.144v3.196h-1.05V214.935z"/>
					<path fill="#04607D" d="M375.805,220.251c0.044,0.628,0.309,1.099,1.292,1.099c1.447,0,1.47-1.065,1.47-2.591
						c-0.441,0.932-1.492,0.954-1.823,0.954c-0.508,0-1.237-0.112-1.701-0.695c-0.476-0.572-0.63-1.324-0.63-2.075
						c0-1.906,1.105-2.838,2.464-2.838c1.116,0,1.524,0.562,1.745,0.853l0.012-0.773h1.005l-0.022,1.021l-0.011,3.521
						c0,1.357-0.044,1.906-0.265,2.333c-0.465,0.897-1.547,1.009-2.309,1.009c-2.221,0-2.287-1.054-2.332-1.816H375.805z
						 M378.224,218.367c0.222-0.292,0.376-0.595,0.376-1.615c0-0.707-0.154-1.11-0.432-1.402c-0.275-0.303-0.718-0.493-1.193-0.493
						c-1.314,0-1.49,1.346-1.49,2.063c0,0.863,0.254,2.008,1.523,2.008C377.616,218.928,377.97,218.703,378.224,218.367z"/>
				</g>
				<g>
					<path fill="#98C4D2" d="M285.154,231.836h1.183l3.225,8.098h-1.203l-0.862-2.108h-3.7l-0.862,2.108h-1.138L285.154,231.836z
						 M284.149,236.917h3.016l-1.47-3.971L284.149,236.917z"/>
					<path fill="#98C4D2" d="M289.799,234.281h0.982v-1.178l1.027-0.337v1.515h1.238v0.773h-1.238v3.376c0,0.28,0,0.752,0.74,0.752
						c0.21,0,0.409-0.034,0.498-0.057v0.818c-0.188,0.034-0.486,0.067-0.862,0.067c-0.95,0-1.403-0.28-1.403-1.199v-3.758h-0.982
						V234.281z"/>
					<path fill="#98C4D2" d="M296.738,234.158c2.221,0,2.718,1.771,2.718,2.949c0,1.648-0.917,3.017-2.806,3.017
						c-1.834,0-2.729-1.289-2.729-2.938C293.922,235.795,294.563,234.158,296.738,234.158z M296.672,239.339
						c0.785,0,1.68-0.571,1.68-2.266c0-1.401-0.641-2.142-1.613-2.142c-0.662,0-1.734,0.426-1.734,2.187
						C295.004,238.274,295.49,239.339,296.672,239.339z"/>
					<path fill="#98C4D2" d="M301.14,235.447c0-0.381-0.022-0.773-0.056-1.144h1.05l0.022,1.088c0.199-0.785,0.861-1.043,1.326-1.11
						c0.309-0.045,0.541-0.034,0.717-0.022v1.031c-0.055-0.021-0.121-0.033-0.198-0.044c-0.077-0.012-0.177-0.012-0.298-0.012
						c-1.227,0-1.514,0.74-1.514,1.705v2.994h-1.05V235.447z"/>
					<path fill="#98C4D2" d="M304.545,234.304h1.16l1.768,4.464l1.724-4.464h1.149l-2.432,5.63h-1.049L304.545,234.304z"/>
					<path fill="#98C4D2" d="M314.912,239.934c-0.078-0.28-0.1-0.55-0.1-0.841c-0.498,0.931-1.248,1.021-1.713,1.021
						c-1.27,0-1.955-0.729-1.955-1.66c0-0.448,0.154-1.166,0.973-1.648c0.596-0.337,1.48-0.37,1.922-0.37
						c0.266,0,0.431,0.011,0.751,0.033c0-0.695,0-0.998-0.198-1.244c-0.211-0.281-0.663-0.37-0.961-0.37
						c-1.051,0-1.105,0.729-1.116,0.953h-1.038c0.033-0.292,0.066-0.685,0.387-1.065c0.42-0.472,1.203-0.605,1.789-0.605
						c0.807,0,1.668,0.258,1.967,0.829c0.176,0.337,0.188,0.606,0.188,0.864l-0.045,2.691c0,0.09,0.012,0.841,0.089,1.413H314.912z
						 M314.194,237.163c-0.42,0-2,0-2,1.145c0,0.358,0.222,0.976,1.15,0.976c0.529,0,0.928-0.213,1.182-0.605
						c0.232-0.382,0.242-0.695,0.265-1.48C314.603,237.175,314.447,237.163,314.194,237.163z"/>
					<path fill="#98C4D2" d="M318.275,238.263c-0.011,0.426,0.21,1.021,1.216,1.021c0.43,0,0.75-0.078,0.971-0.359
						c0.111-0.146,0.178-0.336,0.178-0.526c0-0.55-0.387-0.65-1.215-0.842c-1.16-0.269-2.133-0.504-2.133-1.682
						c0-1.032,0.884-1.705,2.166-1.705c0.695,0,1.668,0.202,1.999,0.875c0.144,0.313,0.144,0.583,0.144,0.818h-1.061
						c0.033-0.853-0.695-0.92-1.072-0.92c-0.154,0-1.127,0-1.127,0.808c0,0.517,0.498,0.64,0.785,0.718
						c1.535,0.37,1.867,0.46,2.198,0.774c0.31,0.291,0.42,0.684,0.42,1.043c0,0.628-0.343,1.166-0.751,1.424
						c-0.486,0.303-1.072,0.382-1.646,0.382c-1.127,0-2.176-0.472-2.165-1.828H318.275z"/>
					<path fill="#98C4D2" d="M322.355,234.281h0.983v-1.178l1.027-0.337v1.515h1.237v0.773h-1.237v3.376c0,0.28,0,0.752,0.74,0.752
						c0.209,0,0.408-0.034,0.497-0.057v0.818c-0.188,0.034-0.486,0.067-0.862,0.067c-0.949,0-1.402-0.28-1.402-1.199v-3.758h-0.983
						V234.281z"/>
					<path fill="#98C4D2" d="M330.268,239.934c-0.078-0.28-0.1-0.55-0.1-0.841c-0.498,0.931-1.248,1.021-1.713,1.021
						c-1.27,0-1.955-0.729-1.955-1.66c0-0.448,0.154-1.166,0.973-1.648c0.596-0.337,1.48-0.37,1.922-0.37
						c0.266,0,0.431,0.011,0.751,0.033c0-0.695,0-0.998-0.198-1.244c-0.211-0.281-0.663-0.37-0.961-0.37
						c-1.051,0-1.105,0.729-1.116,0.953h-1.038c0.033-0.292,0.066-0.685,0.387-1.065c0.42-0.472,1.203-0.605,1.789-0.605
						c0.807,0,1.668,0.258,1.967,0.829c0.176,0.337,0.188,0.606,0.188,0.864l-0.045,2.691c0,0.09,0.012,0.841,0.089,1.413H330.268z
						 M329.549,237.163c-0.42,0-2,0-2,1.145c0,0.358,0.222,0.976,1.15,0.976c0.529,0,0.928-0.213,1.182-0.605
						c0.232-0.382,0.242-0.695,0.265-1.48C329.958,237.175,329.803,237.163,329.549,237.163z"/>
					<path fill="#98C4D2" d="M332.183,234.281h0.983v-1.178l1.027-0.337v1.515h1.237v0.773h-1.237v3.376c0,0.28,0,0.752,0.74,0.752
						c0.209,0,0.408-0.034,0.497-0.057v0.818c-0.188,0.034-0.486,0.067-0.862,0.067c-0.949,0-1.402-0.28-1.402-1.199v-3.758h-0.983
						V234.281z"/>
					<path fill="#98C4D2" d="M336.615,231.858h1.248v1.155h-1.248V231.858z M336.726,234.304h1.038v5.63h-1.038V234.304z"/>
					<path fill="#98C4D2" d="M339.821,234.954l-0.011-0.65h1.038l0.012,0.908c0.121-0.235,0.52-1.021,1.778-1.021
						c0.497,0,2.011,0.19,2.011,1.918v3.824h-1.061v-3.578c0-0.37-0.045-0.706-0.299-0.964c-0.265-0.258-0.629-0.382-0.982-0.382
						c-0.752,0-1.447,0.55-1.447,1.683v3.241h-1.039V234.954z"/>
				</g>
				<g>
					<path fill="#98C4D2" d="M349.207,234.113c0-0.695,0.464-2.12,2.475-2.12c1.613,0,2.541,0.886,2.541,2.075
						c0,0.763-0.486,1.559-1.559,1.761c0.453,0.123,1.669,0.46,1.669,1.962c0,1.065-0.729,2.277-2.63,2.277
						c-0.651,0-1.424-0.135-1.977-0.65c-0.409-0.382-0.674-0.965-0.674-1.56c0-0.516,0.198-1.054,0.585-1.424
						c0.364-0.37,0.763-0.482,1.104-0.595C349.727,235.616,349.207,234.887,349.207,234.113z M351.703,239.183
						c1.227,0,1.525-0.875,1.525-1.458c0-0.864-0.63-1.425-1.503-1.425c-0.938,0-1.558,0.64-1.558,1.458
						C350.168,238.363,350.567,239.183,351.703,239.183z M351.726,232.823c-0.817,0-1.446,0.493-1.446,1.268
						c0,0.751,0.617,1.256,1.414,1.256c0.839,0,1.469-0.493,1.469-1.256C353.162,233.384,352.643,232.823,351.726,232.823z"/>
					<path fill="#98C4D2" d="M357.84,232.016c2.286,0,2.563,2.49,2.563,3.948c0,1.839-0.365,2.871-1.061,3.532
						c-0.541,0.516-1.182,0.595-1.525,0.595c-1.016,0-1.712-0.605-2.043-1.29c-0.254-0.516-0.498-1.268-0.498-2.658
						C355.276,234.987,355.408,232.016,357.84,232.016z M357.828,239.16c1.281,0,1.502-1.705,1.502-3.096
						c0-1.862-0.32-3.151-1.48-3.151c-1.336,0-1.514,1.783-1.514,3.174C356.336,237.814,356.668,239.16,357.828,239.16z"/>
				</g>
				<g>
					<path fill="#98C4D2" d="M364.971,235.055l-0.021-0.751h1.049v0.818c0.531-0.886,1.281-0.964,1.757-0.964
						c1.226,0,1.612,0.639,1.812,1.054c0.188-0.313,0.641-1.054,1.867-1.054c0.795,0,2.033,0.336,2.033,1.996v3.779h-1.05v-3.611
						c0-0.493-0.089-0.706-0.188-0.853c-0.176-0.258-0.529-0.493-1.061-0.493c-0.674,0-1.038,0.393-1.182,0.595
						c-0.243,0.348-0.243,0.964-0.243,1.211v3.151h-1.05v-3.724c0-0.695-0.396-1.233-1.215-1.233c-0.707,0-1.094,0.448-1.215,0.617
						c-0.232,0.325-0.243,0.784-0.243,1.144v3.196h-1.05V235.055z"/>
					<path fill="#98C4D2" d="M376.412,240.371c0.044,0.628,0.309,1.099,1.292,1.099c1.447,0,1.47-1.065,1.47-2.591
						c-0.441,0.932-1.492,0.954-1.823,0.954c-0.508,0-1.237-0.112-1.701-0.695c-0.476-0.572-0.63-1.324-0.63-2.075
						c0-1.906,1.105-2.838,2.464-2.838c1.116,0,1.524,0.562,1.745,0.853l0.012-0.773h1.005l-0.022,1.021l-0.011,3.521
						c0,1.357-0.044,1.906-0.265,2.333c-0.465,0.897-1.547,1.009-2.309,1.009c-2.221,0-2.287-1.054-2.332-1.816H376.412z
						 M378.831,238.487c0.222-0.292,0.376-0.595,0.376-1.615c0-0.707-0.154-1.11-0.432-1.402c-0.275-0.303-0.718-0.493-1.193-0.493
						c-1.314,0-1.49,1.346-1.49,2.063c0,0.863,0.254,2.008,1.523,2.008C378.224,239.048,378.577,238.823,378.831,238.487z"/>
				</g>
			</g>
			<rect x="242.01" y="213.49" fill="#04607D" width="30.047" height="3.447"/>
			<rect x="242.01" y="234.758" fill="#98C4D2" width="30.047" height="3.449"/>
			<g>
				<defs>
					<path id="SVGID_36_" d="M447.099,197.813c0,0.509-0.557,0.92-1.261,0.92h-11.617c-0.111,0-0.205-0.009-0.307-0.025
						c-1.004,0.108-2.551,0.417-2.551,1.276c0,0.321,0.198,1.013,1.541,2.055l42.524,32.877c1.466,1.132,2.237,1.501,3.111,1.501
						c0.876,0,1.638-0.369,3.113-1.501l42.534-32.877c1.336-1.042,1.541-1.733,1.541-2.054c0-0.852-1.548-1.163-2.536-1.272
						c-0.087,0.015-0.192,0.021-0.277,0.021H510.99c-0.69,0-1.256-0.411-1.256-0.92v-91.944l-62.615-0.175L447.099,197.813z"/>
				</defs>
				<clipPath id="SVGID_8_">
					<use xlink:href="#SVGID_36_"  overflow="visible"/>
				</clipPath>
				
					<linearGradient id="SVGID_10_" gradientUnits="userSpaceOnUse" x1="-2322.5703" y1="461.6104" x2="-2321.0957" y2="461.6104" gradientTransform="matrix(0 -88.6528 -88.6528 0 41401.5977 -205665.9531)">
					<stop  offset="0" style="stop-color:#FFFFFF"/>
					<stop  offset="0.0379" style="stop-color:#EFF6F8"/>
					<stop  offset="0.1672" style="stop-color:#BED9E2"/>
					<stop  offset="0.2999" style="stop-color:#94C1CF"/>
					<stop  offset="0.4338" style="stop-color:#72ACBF"/>
					<stop  offset="0.5694" style="stop-color:#579DB3"/>
					<stop  offset="0.7073" style="stop-color:#4492AB"/>
					<stop  offset="0.8489" style="stop-color:#398BA6"/>
					<stop  offset="1" style="stop-color:#3589A4"/>
				</linearGradient>
				<rect x="431.364" y="105.693" clip-path="url(#SVGID_8_)" fill="url(#SVGID_10_)" width="94.364" height="130.724"/>
			</g>
			<g>
				<defs>
					<rect id="SVGID_39_" x="422.517" y="96.846" width="112.057" height="148.42"/>
				</defs>
				<clipPath id="SVGID_12_">
					<use xlink:href="#SVGID_39_"  overflow="visible"/>
				</clipPath>
				<path clip-path="url(#SVGID_12_)" fill="none" stroke="#676A6C" stroke-miterlimit="10" d="M431.365,199.983
					c0,0.322,0.197,1.015,1.541,2.056l42.524,32.876c1.464,1.135,2.235,1.504,3.11,1.504c0.876,0,1.64-0.369,3.114-1.504
					l42.533-32.876c1.336-1.041,1.541-1.733,1.541-2.054c0-0.852-1.548-1.162-2.536-1.27c-0.087,0.012-0.19,0.018-0.277,0.018
					h-11.923c-0.69,0-1.258-0.411-1.258-0.919v-91.943l-62.613-0.178l-0.021,92.121c0,0.507-0.557,0.919-1.261,0.919h-11.617
					c-0.109,0-0.203-0.009-0.307-0.025C432.91,198.815,431.365,199.126,431.365,199.983z"/>
			</g>
			<g>
				<defs>
					<path id="SVGID_41_" d="M449.872,197.813c0,1.657-1.806,3.01-4.033,3.01h-10.636l42.214,32.637
						c0.571,0.444,0.923,0.674,1.124,0.789c0.199-0.116,0.547-0.345,1.121-0.79l42.229-32.635h-10.9
						c-2.219,0-4.033-1.352-4.033-3.01v-89.863l-57.066-0.162L449.872,197.813z"/>
				</defs>
				<clipPath id="SVGID_14_">
					<use xlink:href="#SVGID_41_"  overflow="visible"/>
				</clipPath>
				
					<linearGradient id="SVGID_16_" gradientUnits="userSpaceOnUse" x1="-2322.6614" y1="460.98" x2="-2321.1868" y2="460.98" gradientTransform="matrix(0 -85.7612 -85.7612 0 40012.7461 -198959.9688)">
					<stop  offset="0" style="stop-color:#FFFFFF"/>
					<stop  offset="0.0379" style="stop-color:#EFF6F8"/>
					<stop  offset="0.1672" style="stop-color:#BED9E2"/>
					<stop  offset="0.2999" style="stop-color:#94C1CF"/>
					<stop  offset="0.4338" style="stop-color:#72ACBF"/>
					<stop  offset="0.5694" style="stop-color:#579DB3"/>
					<stop  offset="0.7073" style="stop-color:#4492AB"/>
					<stop  offset="0.8489" style="stop-color:#398BA6"/>
					<stop  offset="1" style="stop-color:#3589A4"/>
				</linearGradient>
				<rect x="435.202" y="107.787" clip-path="url(#SVGID_14_)" fill="url(#SVGID_16_)" width="86.687" height="126.461"/>
			</g>
			<g>
				<defs>
					<rect id="SVGID_44_" x="422.517" y="96.846" width="112.057" height="148.42"/>
				</defs>
				<clipPath id="SVGID_18_">
					<use xlink:href="#SVGID_44_"  overflow="visible"/>
				</clipPath>
				<path clip-path="url(#SVGID_18_)" fill="none" stroke="#676A6C" stroke-miterlimit="10" d="M478.54,234.248
					c-0.201-0.115-0.553-0.345-1.124-0.787l-42.214-32.64h10.636c2.226,0,4.033-1.349,4.033-3.007l0.019-90.029l57.068,0.164v89.865
					c0,1.657,1.812,3.007,4.033,3.007h10.899l-42.227,32.638C479.088,233.903,478.739,234.132,478.54,234.248z"/>
				<g opacity="0.4" clip-path="url(#SVGID_18_)">
					<g>
						<defs>
							<rect id="SVGID_46_" x="433.042" y="107.048" width="91.011" height="128.052"/>
						</defs>
						<clipPath id="SVGID_19_">
							<use xlink:href="#SVGID_46_"  overflow="visible"/>
						</clipPath>
						<g clip-path="url(#SVGID_19_)">
							<defs>
								<path id="SVGID_48_" d="M449.87,197.813c0,1.657-1.805,3.008-4.031,3.008h-10.636l42.214,32.638
									c0.571,0.444,0.923,0.674,1.124,0.789c0.199-0.116,0.547-0.345,1.122-0.79l42.227-32.637h-10.899
									c-2.221,0-4.034-1.351-4.034-3.008v-89.863l-57.066-0.162L449.87,197.813z"/>
							</defs>
							<clipPath id="SVGID_20_">
								<use xlink:href="#SVGID_48_"  overflow="visible"/>
							</clipPath>
							
								<linearGradient id="SVGID_22_" gradientUnits="userSpaceOnUse" x1="-2322.6614" y1="460.98" x2="-2321.1868" y2="460.98" gradientTransform="matrix(0 -85.7612 -85.7612 0 40012.7461 -198959.9688)">
								<stop  offset="0" style="stop-color:#FFFFFF"/>
								<stop  offset="0.0379" style="stop-color:#EFF6F8"/>
								<stop  offset="0.1672" style="stop-color:#BED9E2"/>
								<stop  offset="0.2999" style="stop-color:#94C1CF"/>
								<stop  offset="0.4338" style="stop-color:#72ACBF"/>
								<stop  offset="0.5694" style="stop-color:#579DB3"/>
								<stop  offset="0.7073" style="stop-color:#4492AB"/>
								<stop  offset="0.8489" style="stop-color:#398BA6"/>
								<stop  offset="1" style="stop-color:#3589A4"/>
							</linearGradient>
							<rect x="435.202" y="107.787" clip-path="url(#SVGID_20_)" fill="url(#SVGID_22_)" width="86.687" height="126.461"/>
						</g>
						<g clip-path="url(#SVGID_19_)">
							<defs>
								<rect id="SVGID_51_" x="433.044" y="107.048" width="91.006" height="128.052"/>
							</defs>
							<clipPath id="SVGID_23_">
								<use xlink:href="#SVGID_51_"  overflow="visible"/>
							</clipPath>
							<path clip-path="url(#SVGID_23_)" fill="none" stroke="#676A6C" stroke-miterlimit="10" d="M478.54,234.248
								c-0.201-0.115-0.553-0.345-1.124-0.787l-42.214-32.64h10.636c2.226,0,4.033-1.349,4.033-3.007l0.019-90.029l57.068,0.164
								v89.865c0,1.657,1.812,3.007,4.033,3.007h10.899l-42.227,32.638C479.088,233.903,478.739,234.132,478.54,234.248z"/>
						</g>
					</g>
				</g>
			</g>
			<g>
				<path fill="#FFFFFF" d="M456.211,129.651v-1.075l1.375-1.334c3.305-3.146,4.799-4.819,4.818-6.771
					c0-1.314-0.637-2.529-2.568-2.529c-1.176,0-2.15,0.598-2.748,1.096l-0.558-1.234c0.896-0.757,2.171-1.314,3.663-1.314
					c2.789,0,3.963,1.911,3.963,3.764c0,2.389-1.732,4.32-4.46,6.949l-1.036,0.956v0.039h5.814v1.454H456.211z"/>
				<path fill="#FFFFFF" d="M474.15,118.182h-4.938l-0.498,3.325c0.299-0.04,0.578-0.079,1.056-0.079
					c0.995,0,1.991,0.219,2.788,0.696c1.016,0.578,1.852,1.693,1.852,3.326c0,2.528-2.011,4.42-4.818,4.42
					c-1.414,0-2.609-0.398-3.227-0.796l0.438-1.335c0.538,0.319,1.593,0.718,2.769,0.718c1.652,0,3.066-1.076,3.066-2.809
					c-0.021-1.672-1.136-2.867-3.725-2.867c-0.736,0-1.314,0.08-1.791,0.14l0.836-6.213h6.192V118.182z"/>
				<path fill="#FFFFFF" d="M482.47,120.353c0,2.728-1.434,4.082-3.106,4.082c-1.613,0-3.007-1.295-3.027-3.903
					c0-2.589,1.414-4.042,3.127-4.042C481.276,116.489,482.47,117.883,482.47,120.353z M477.731,120.472
					c-0.039,1.652,0.578,2.907,1.673,2.907c1.155,0,1.673-1.234,1.673-2.947c0-1.573-0.459-2.888-1.673-2.888
					C478.309,117.544,477.731,118.839,477.731,120.472z M479.244,129.87l7.606-13.381h1.115l-7.606,13.381H479.244z
					 M490.893,125.709c0,2.728-1.434,4.082-3.086,4.082c-1.613,0-3.008-1.295-3.027-3.883c0-2.609,1.414-4.063,3.127-4.063
					C489.718,121.846,490.893,123.239,490.893,125.709z M486.155,125.828c-0.021,1.652,0.617,2.907,1.691,2.907
					c1.155,0,1.674-1.234,1.674-2.947c0-1.573-0.459-2.887-1.674-2.887C486.751,122.901,486.155,124.195,486.155,125.828z"/>
			</g>
			<g>
				<path fill="#FFFFFF" d="M469.106,140.069h2.662c0.381,0,1.165,0,1.712,0.351c0.558,0.351,0.825,0.918,0.825,1.517
					c0,0.525-0.196,0.99-0.526,1.32c-0.319,0.319-0.649,0.423-0.876,0.484c0.711,0.186,1.031,0.506,1.135,1.434
					c0.103,0.877,0.175,1.517,0.463,2.342h-1.104c-0.164-0.495-0.268-1.402-0.34-1.97c-0.124-1.083-0.382-1.393-1.63-1.393h-1.3
					v3.362h-1.021V140.069z M470.107,143.277h1.63c0.113,0,0.701,0,0.98-0.165c0.144-0.083,0.505-0.351,0.505-0.97
					c0-1.207-1.073-1.207-1.485-1.207h-1.63V143.277z"/>
				<path fill="#FFFFFF" d="M475.99,140.069h2.662c0.381,0,1.165,0,1.712,0.351c0.558,0.351,0.825,0.918,0.825,1.517
					c0,0.525-0.196,0.99-0.526,1.32c-0.319,0.319-0.649,0.423-0.876,0.484c0.711,0.186,1.031,0.506,1.135,1.434
					c0.103,0.877,0.175,1.517,0.463,2.342h-1.104c-0.164-0.495-0.268-1.402-0.34-1.97c-0.124-1.083-0.382-1.393-1.63-1.393h-1.3
					v3.362h-1.021V140.069z M476.991,143.277h1.63c0.113,0,0.701,0,0.98-0.165c0.144-0.083,0.505-0.351,0.505-0.97
					c0-1.207-1.073-1.207-1.485-1.207h-1.63V143.277z"/>
				<path fill="#FFFFFF" d="M482.875,140.069h2.662c0.381,0,1.165,0,1.712,0.351c0.558,0.351,0.825,0.918,0.825,1.517
					c0,0.525-0.196,0.99-0.526,1.32c-0.319,0.319-0.649,0.423-0.876,0.484c0.711,0.186,1.031,0.506,1.135,1.434
					c0.103,0.877,0.175,1.517,0.463,2.342h-1.104c-0.164-0.495-0.268-1.402-0.34-1.97c-0.124-1.083-0.382-1.393-1.63-1.393h-1.3
					v3.362h-1.021V140.069z M483.876,143.277h1.63c0.113,0,0.701,0,0.98-0.165c0.144-0.083,0.505-0.351,0.505-0.97
					c0-1.207-1.073-1.207-1.485-1.207h-1.63V143.277z"/>
			</g>
			<g>
				<path fill="#FFFFFF" d="M461.838,152.022v3.197h3.537v-3.197h1.032v7.447h-1.032v-3.362h-3.537v3.362h-1.031v-7.447H461.838z"/>
				<path fill="#FFFFFF" d="M468.238,152.022h2.66c0.383,0,1.166,0,1.713,0.351c0.557,0.351,0.825,0.918,0.825,1.517
					c0,0.525-0.196,0.99-0.526,1.32c-0.32,0.319-0.65,0.423-0.877,0.484c0.712,0.186,1.031,0.506,1.135,1.434
					c0.104,0.877,0.176,1.517,0.465,2.342h-1.104c-0.166-0.495-0.27-1.403-0.341-1.97c-0.124-1.084-0.382-1.393-1.63-1.393h-1.3
					v3.362h-1.021V152.022z M469.238,155.23h1.63c0.113,0,0.701,0,0.979-0.165c0.145-0.083,0.506-0.351,0.506-0.97
					c0-1.207-1.072-1.207-1.485-1.207h-1.63V155.23z"/>
				<path fill="#FFFFFF" d="M479.951,152.187c2.136,0,2.395,2.29,2.395,3.631c0,1.691-0.342,2.641-0.99,3.249
					c-0.506,0.475-1.104,0.547-1.424,0.547c-0.949,0-1.6-0.558-1.908-1.187c-0.238-0.475-0.465-1.165-0.465-2.444
					C477.559,154.92,477.683,152.187,479.951,152.187z M479.942,158.757c1.197,0,1.402-1.567,1.402-2.847
					c0-1.712-0.299-2.898-1.381-2.898c-1.248,0-1.414,1.64-1.414,2.919C478.549,157.52,478.859,158.757,479.942,158.757z"/>
				<path fill="#FFFFFF" d="M483.68,158.232h1.145v1.237h-1.145V158.232z"/>
				<path fill="#FFFFFF" d="M486.074,152.331h4.715v0.866l-2.621,6.271h-1.165l2.743-6.282h-3.672V152.331z"/>
				<path fill="#FFFFFF" d="M493.104,157.777c0.02,0.722,0.649,1.011,1.186,1.011c1.248,0,1.414-1.176,1.414-1.641
					c0-0.969-0.527-1.536-1.352-1.536c-0.413,0-0.743,0.154-0.959,0.371c-0.217,0.217-0.279,0.433-0.33,0.599h-0.939l0.186-4.25
					h4.013v0.835h-3.126l-0.133,2.311c0.216-0.216,0.67-0.66,1.506-0.66c1.434,0,2.135,1.125,2.135,2.353
					c0,1.402-0.99,2.465-2.548,2.465c-1.155,0-2.073-0.64-2.125-1.856H493.104z"/>
			</g>
			<g>
				<path fill="#FFFFFF" d="M463.459,169.348c0,0.619,0.34,1.053,1.145,1.053c1.568,0,1.578-1.847,1.527-2.961
					c-0.371,0.701-1.042,0.897-1.6,0.897c-1.135,0-2.176-0.764-2.176-2.259c0-1.641,1.166-2.301,2.289-2.301
					c0.764,0,1.889,0.31,2.301,1.754c0.124,0.434,0.207,0.949,0.207,1.919c0,1.052-0.012,3.765-2.631,3.765
					c-0.97,0-2.104-0.382-2.146-1.867H463.459z M464.645,164.552c-0.835,0-1.278,0.69-1.278,1.536c0,0.929,0.567,1.465,1.351,1.465
					c0.805,0,1.301-0.598,1.301-1.454C466.018,165.067,465.347,164.552,464.645,164.552z"/>
				<path fill="#FFFFFF" d="M469.291,169.358c0.021,0.722,0.65,1.011,1.186,1.011c1.248,0,1.414-1.176,1.414-1.641
					c0-0.969-0.526-1.536-1.352-1.536c-0.412,0-0.742,0.154-0.959,0.371s-0.279,0.434-0.33,0.598h-0.939l0.186-4.249h4.014v0.835
					h-3.126l-0.134,2.311c0.217-0.217,0.67-0.66,1.506-0.66c1.434,0,2.135,1.125,2.135,2.353c0,1.402-0.99,2.465-2.547,2.465
					c-1.156,0-2.074-0.64-2.125-1.856H469.291z"/>
				<path fill="#FFFFFF" d="M477.268,165.542c0,1.278-0.752,1.866-1.691,1.866c-0.896,0-1.66-0.536-1.66-1.805
					c0-1.083,0.588-1.888,1.754-1.888C476.856,163.716,477.268,164.603,477.268,165.542z M476.453,165.583
					c0-0.506-0.123-1.248-0.855-1.248c-0.888,0-0.888,1.011-0.888,1.258c0,0.237,0,1.218,0.888,1.218
					C476.453,166.811,476.453,165.789,476.453,165.583z M475.287,171.452l4.549-7.942h0.682l-4.549,7.942H475.287z M481.58,167.976
					c0.186,0.207,0.422,0.537,0.422,1.311c0,1.124-0.546,1.888-1.66,1.888c-1.32,0-1.691-0.98-1.691-1.836
					c0-1.248,0.773-1.857,1.691-1.857C480.621,167.481,481.178,167.532,481.58,167.976z M481.219,169.307
					c0-0.319-0.063-1.248-0.867-1.248c-0.887,0-0.887,1.072-0.887,1.382c0,0.361,0.083,1.125,0.867,1.125
					C481.156,170.566,481.219,169.678,481.219,169.307z"/>
				<path fill="#FFFFFF" d="M490.821,165.614c-0.041-0.258-0.176-1.29-1.609-1.29c-1.795,0-2.115,1.836-2.115,3.074
					c0,1.402,0.402,2.919,2.105,2.919c0.453,0,0.887-0.113,1.206-0.443c0.269-0.289,0.33-0.608,0.361-0.784h1.134
					c-0.154,1.465-1.506,2.073-2.784,2.073c-2.62,0-3.126-2.311-3.126-3.755c0-1.567,0.609-3.909,3.26-3.909
					c1.053,0,2.537,0.423,2.672,2.115H490.821z"/>
				<path fill="#FFFFFF" d="M493.218,163.603h1.032v7.447h-1.032V163.603z"/>
			</g>
			<g>
				<path fill="#FFFFFF" d="M458.009,210.582c-0.558-1.372-1.228-3.084-1.228-4.59c0-0.815,0.186-1.619,0.423-2.403
					c0.289-0.929,0.558-1.589,0.732-2.032h0.681c-0.165,0.506-0.392,1.207-0.608,2.187c-0.217,0.949-0.288,1.589-0.288,2.229
					c0,1.465,0.36,2.65,0.959,4.61H458.009z"/>
				<path fill="#FFFFFF" d="M460.373,201.866h2.496c0.908,0,1.527,0.052,2.032,0.598c0.371,0.382,0.546,0.888,0.546,1.444
					c0,0.567-0.186,1.053-0.588,1.455c-0.391,0.392-0.907,0.639-2.248,0.639h-1.207v3.312h-1.031V201.866z M461.405,205.136h1.228
					c0.681,0,1.723-0.052,1.723-1.269c0-1.166-0.97-1.166-1.506-1.166h-1.444V205.136z"/>
				<path fill="#FFFFFF" d="M466.155,205.28h5.26v0.794h-5.26V205.28z M466.155,207.364h5.26v0.805h-5.26V207.364z"/>
				<path fill="#FFFFFF" d="M474.647,202.031c2.136,0,2.395,2.29,2.395,3.631c0,1.691-0.342,2.641-0.99,3.249
					c-0.506,0.475-1.104,0.547-1.424,0.547c-0.949,0-1.6-0.557-1.908-1.187c-0.238-0.475-0.465-1.165-0.465-2.444
					C472.254,204.765,472.378,202.031,474.647,202.031z M474.637,208.602c1.197,0,1.402-1.567,1.402-2.847
					c0-1.712-0.299-2.898-1.381-2.898c-1.248,0-1.414,1.64-1.414,2.919C473.244,207.364,473.554,208.602,474.637,208.602z"/>
				<path fill="#FFFFFF" d="M478.375,208.075h1.145v1.238h-1.145V208.075z"/>
				<path fill="#FFFFFF" d="M483.256,202.031c2.135,0,2.393,2.29,2.393,3.631c0,1.691-0.34,2.641-0.99,3.249
					c-0.506,0.475-1.104,0.547-1.424,0.547c-0.948,0-1.598-0.557-1.908-1.187c-0.236-0.475-0.463-1.165-0.463-2.444
					C480.863,204.765,480.987,202.031,483.256,202.031z M483.245,208.602c1.196,0,1.403-1.567,1.403-2.847
					c0-1.712-0.299-2.898-1.383-2.898c-1.248,0-1.412,1.64-1.412,2.919C481.854,207.364,482.162,208.602,483.245,208.602z"/>
				<path fill="#FFFFFF" d="M486.696,208.375l1.866-1.836c0.392-0.382,0.784-0.795,1.104-1.228c0.412-0.567,0.525-0.888,0.525-1.269
					c0-0.352-0.123-1.166-1.145-1.166c-1.146,0-1.166,0.979-1.166,1.248h-1.083c0.011-0.351,0.041-1.031,0.66-1.567
					c0.495-0.424,1.093-0.517,1.548-0.517c1.093,0,2.207,0.558,2.207,2.084c0,0.454-0.031,0.805-0.805,1.784
					c-0.207,0.258-1.114,1.197-1.32,1.403l-1.248,1.187h3.394v0.814h-4.538V208.375z"/>
				<path fill="#FFFFFF" d="M496.085,203.867c-0.011-0.836-0.63-1.063-1.083-1.063c-1.031,0-1.485,0.887-1.578,2.785
					c0.227-0.33,0.619-0.908,1.66-0.908c1.166,0,2.156,0.774,2.156,2.29c0,1.661-1.186,2.496-2.414,2.496
					c-0.691,0-1.382-0.278-1.764-0.773c-0.525-0.701-0.65-1.723-0.65-2.63c0-1.558,0.383-4.033,2.641-4.033
					c0.939,0,1.465,0.412,1.713,0.681c0.361,0.423,0.371,0.877,0.382,1.155H496.085z M496.25,207.065
					c0-0.505-0.145-1.588-1.33-1.588c-0.96,0-1.424,0.784-1.424,1.599c0,0.929,0.578,1.609,1.371,1.609
					C495.508,208.685,496.25,208.231,496.25,207.065z"/>
				<path fill="#FFFFFF" d="M499.08,201.557c0.557,1.372,1.229,3.074,1.229,4.58c0,0.814-0.187,1.619-0.424,2.403
					c-0.289,0.928-0.557,1.599-0.732,2.042h-0.681c0.165-0.516,0.392-1.217,0.608-2.197c0.217-0.938,0.289-1.588,0.289-2.228
					c0-1.454-0.361-2.641-0.959-4.601H499.08z"/>
			</g>
			<g>
				<path fill="#FFFFFF" d="M459.588,173.76c2.135,0,2.393,2.29,2.393,3.631c0,1.691-0.341,2.641-0.99,3.249
					c-0.506,0.475-1.104,0.547-1.424,0.547c-0.949,0-1.599-0.557-1.908-1.187c-0.237-0.475-0.465-1.165-0.465-2.444
					C457.194,176.493,457.319,173.76,459.588,173.76z M459.576,180.33c1.197,0,1.403-1.567,1.403-2.847
					c0-1.712-0.299-2.898-1.382-2.898c-1.248,0-1.414,1.64-1.414,2.919C458.184,179.093,458.494,180.33,459.576,180.33z"/>
				<path fill="#FFFFFF" d="M463.315,179.804h1.146v1.238h-1.146V179.804z"/>
				<path fill="#FFFFFF" d="M466.999,179.351c0.021,0.722,0.649,1.011,1.187,1.011c1.248,0,1.412-1.176,1.412-1.641
					c0-0.969-0.525-1.536-1.351-1.536c-0.413,0-0.743,0.154-0.96,0.371c-0.216,0.217-0.277,0.434-0.33,0.598h-0.938l0.186-4.249
					h4.012v0.835h-3.125l-0.135,2.311c0.217-0.217,0.672-0.66,1.507-0.66c1.434,0,2.136,1.125,2.136,2.353
					c0,1.402-0.99,2.465-2.549,2.465c-1.154,0-2.072-0.64-2.125-1.856H466.999z"/>
				<path fill="#FFFFFF" d="M471.613,175.689c0-0.64,0.434-1.949,2.311-1.949c1.507,0,2.373,0.814,2.373,1.908
					c0,0.701-0.453,1.434-1.455,1.619c0.424,0.113,1.559,0.423,1.559,1.806c0,0.979-0.682,2.094-2.455,2.094
					c-0.609,0-1.33-0.124-1.847-0.599c-0.382-0.351-0.629-0.887-0.629-1.434c0-0.475,0.186-0.97,0.546-1.311
					c0.341-0.34,0.713-0.443,1.032-0.546C472.099,177.07,471.613,176.4,471.613,175.689z M473.946,180.351
					c1.145,0,1.424-0.805,1.424-1.341c0-0.794-0.588-1.31-1.403-1.31c-0.877,0-1.454,0.588-1.454,1.341
					C472.512,179.598,472.883,180.351,473.946,180.351z M473.966,174.502c-0.763,0-1.351,0.454-1.351,1.166
					c0,0.691,0.576,1.155,1.32,1.155c0.783,0,1.371-0.454,1.371-1.155C475.307,175.019,474.822,174.502,473.966,174.502z"/>
				<path fill="#FFFFFF" d="M477.26,177.938h2.59v0.783h-2.59V177.938z"/>
				<path fill="#FFFFFF" d="M483.112,173.76c2.135,0,2.393,2.29,2.393,3.631c0,1.691-0.34,2.641-0.99,3.249
					c-0.506,0.475-1.104,0.547-1.424,0.547c-0.948,0-1.598-0.557-1.908-1.187c-0.236-0.475-0.463-1.165-0.463-2.444
					C480.719,176.493,480.842,173.76,483.112,173.76z M483.101,180.33c1.196,0,1.403-1.567,1.403-2.847
					c0-1.712-0.299-2.898-1.383-2.898c-1.248,0-1.412,1.64-1.412,2.919C481.709,179.093,482.018,180.33,483.101,180.33z"/>
				<path fill="#FFFFFF" d="M486.838,179.804h1.146v1.238h-1.146V179.804z"/>
				<path fill="#FFFFFF" d="M490.43,179.34c0,0.619,0.341,1.053,1.146,1.053c1.567,0,1.578-1.847,1.526-2.961
					c-0.371,0.701-1.041,0.897-1.599,0.897c-1.135,0-2.177-0.764-2.177-2.259c0-1.641,1.166-2.301,2.29-2.301
					c0.763,0,1.888,0.31,2.3,1.754c0.125,0.434,0.207,0.949,0.207,1.919c0,1.052-0.01,3.765-2.631,3.765
					c-0.969,0-2.104-0.382-2.145-1.867H490.43z M491.616,174.544c-0.835,0-1.278,0.69-1.278,1.536c0,0.929,0.566,1.465,1.351,1.465
					c0.805,0,1.3-0.598,1.3-1.454C492.988,175.06,492.319,174.544,491.616,174.544z"/>
				<path fill="#FFFFFF" d="M494.973,173.904h4.715v0.866l-2.621,6.271h-1.165l2.743-6.282h-3.672V173.904z"/>
			</g>
		</g>
	</g>
	<g>
		<path fill="#00435B" d="M220.488,353.156h0.905l2.474,6.114h-0.923l-0.661-1.592h-2.837l-0.66,1.592h-0.873L220.488,353.156z
			 M219.717,356.993h2.312l-1.126-2.998L219.717,356.993z"/>
		<path fill="#00435B" d="M227.639,353.165h0.796v5.429c0,0.093,0.017,0.457,0.034,0.677h-0.797l-0.016-0.677
			c-0.068,0.118-0.162,0.296-0.382,0.448c-0.347,0.237-0.763,0.313-1.05,0.313c-0.568,0-1.83-0.297-1.83-2.159
			c0-1.618,0.924-2.32,1.923-2.32c0.915,0,1.22,0.542,1.321,0.72V353.165z M227.342,355.9c-0.169-0.221-0.482-0.432-0.932-0.432
			c-1.168,0-1.168,1.414-1.168,1.702c0,0.753,0.194,1.626,1.168,1.626c1.254,0,1.254-1.381,1.254-1.711
			C227.664,356.468,227.52,356.129,227.342,355.9z"/>
		<path fill="#00435B" d="M232.453,359.271c-0.059-0.212-0.076-0.415-0.076-0.635c-0.381,0.703-0.957,0.771-1.313,0.771
			c-0.974,0-1.499-0.551-1.499-1.253c0-0.339,0.118-0.881,0.745-1.245c0.457-0.254,1.135-0.279,1.474-0.279
			c0.204,0,0.331,0.008,0.576,0.025c0-0.525,0-0.754-0.153-0.94c-0.16-0.212-0.508-0.279-0.736-0.279
			c-0.805,0-0.847,0.551-0.855,0.72h-0.795c0.025-0.22,0.051-0.517,0.296-0.805c0.321-0.355,0.923-0.457,1.372-0.457
			c0.617,0,1.278,0.194,1.507,0.627c0.136,0.254,0.144,0.457,0.144,0.651l-0.033,2.033c0,0.067,0.008,0.635,0.068,1.066H232.453z
			 M231.903,357.179c-0.321,0-1.532,0-1.532,0.864c0,0.271,0.169,0.736,0.881,0.736c0.406,0,0.711-0.16,0.905-0.457
			c0.179-0.288,0.188-0.525,0.204-1.118C232.217,357.188,232.098,357.179,231.903,357.179z"/>
		<path fill="#00435B" d="M234.541,355.714c0-0.187-0.008-0.288-0.025-0.694h0.805l0.018,0.703c0.398-0.669,1.101-0.771,1.447-0.771
			c0.915,0,1.787,0.626,1.787,2.201c0,1.584-0.923,2.278-1.939,2.278c-0.617,0-1.075-0.263-1.304-0.635v2.108h-0.788V355.714z
			 M236.498,358.848c0.203,0,0.627-0.043,0.897-0.415c0.305-0.415,0.347-1.025,0.347-1.33c0-0.762-0.229-1.558-1.168-1.558
			c-1.271,0-1.271,1.346-1.271,1.728C235.304,357.789,235.38,358.848,236.498,358.848z"/>
		<path fill="#00435B" d="M239.086,355.003h0.753v-0.89l0.788-0.254v1.144h0.948v0.584h-0.948v2.549c0,0.212,0,0.567,0.566,0.567
			c0.162,0,0.314-0.025,0.382-0.042v0.618c-0.144,0.025-0.372,0.051-0.661,0.051c-0.729,0-1.075-0.212-1.075-0.906v-2.837h-0.753
			V355.003z"/>
		<path fill="#00435B" d="M243.038,357.289c-0.017,0.881,0.347,1.533,1.22,1.533c0.516,0,0.932-0.271,0.999-0.881h0.796
			c-0.025,0.212-0.059,0.559-0.364,0.889c-0.187,0.212-0.609,0.567-1.465,0.567c-1.338,0-1.974-0.83-1.974-2.176
			c0-0.839,0.17-1.533,0.839-1.999c0.406-0.288,0.915-0.313,1.16-0.313c1.905,0,1.863,1.686,1.847,2.38H243.038z M245.282,356.731
			c0.009-0.407-0.067-1.254-1.05-1.254c-0.518,0-1.144,0.313-1.16,1.254H245.282z"/>
		<path fill="#00435B" d="M250.207,353.165h0.797v5.429c0,0.093,0.017,0.457,0.033,0.677h-0.796l-0.017-0.677
			c-0.068,0.118-0.161,0.296-0.381,0.448c-0.348,0.237-0.763,0.313-1.051,0.313c-0.567,0-1.829-0.297-1.829-2.159
			c0-1.618,0.923-2.32,1.923-2.32c0.914,0,1.219,0.542,1.32,0.72V353.165z M249.911,355.9c-0.169-0.221-0.483-0.432-0.932-0.432
			c-1.169,0-1.169,1.414-1.169,1.702c0,0.753,0.195,1.626,1.169,1.626c1.253,0,1.253-1.381,1.253-1.711
			C250.233,356.468,250.089,356.129,249.911,355.9z"/>
		<path fill="#00435B" d="M256.909,353.749c-0.136-0.008-0.306-0.017-0.466-0.017c-0.644,0-0.644,0.321-0.644,0.618v0.669h0.991
			v0.576H255.8v3.675h-0.788v-3.675h-0.838v-0.576h0.838v-0.482c0-0.585,0.034-0.796,0.178-1.017
			c0.178-0.271,0.518-0.466,1.067-0.466c0.229,0,0.483,0.034,0.652,0.06V353.749z"/>
		<path fill="#00435B" d="M257.644,355.884c0-0.288-0.017-0.585-0.042-0.864h0.805l0.017,0.821c0.152-0.593,0.66-0.787,1.017-0.838
			c0.236-0.034,0.414-0.025,0.55-0.018v0.779c-0.042-0.017-0.093-0.025-0.152-0.034c-0.06-0.008-0.136-0.008-0.229-0.008
			c-0.94,0-1.16,0.559-1.16,1.287v2.261h-0.805V355.884z"/>
		<path fill="#00435B" d="M262.738,354.909c1.703,0,2.084,1.338,2.084,2.228c0,1.245-0.703,2.278-2.151,2.278
			c-1.405,0-2.091-0.975-2.091-2.219C260.58,356.146,261.071,354.909,262.738,354.909z M262.688,358.822
			c0.602,0,1.287-0.433,1.287-1.711c0-1.059-0.49-1.617-1.236-1.617c-0.508,0-1.329,0.321-1.329,1.651
			C261.409,358.018,261.781,358.822,262.688,358.822z"/>
		<path fill="#00435B" d="M266.055,355.587l-0.018-0.567h0.805v0.618c0.406-0.669,0.982-0.729,1.348-0.729
			c0.939,0,1.236,0.483,1.389,0.796c0.144-0.236,0.49-0.796,1.431-0.796c0.61,0,1.558,0.254,1.558,1.508v2.854h-0.804v-2.727
			c0-0.373-0.067-0.533-0.144-0.644c-0.137-0.195-0.407-0.373-0.813-0.373c-0.517,0-0.796,0.297-0.906,0.449
			c-0.187,0.263-0.187,0.729-0.187,0.914v2.38h-0.805v-2.812c0-0.524-0.305-0.932-0.932-0.932c-0.541,0-0.838,0.339-0.932,0.466
			c-0.178,0.246-0.186,0.593-0.186,0.864v2.413h-0.805V355.587z"/>
		<path fill="#00435B" d="M276.447,355.884c0-0.288-0.017-0.585-0.042-0.864h0.805l0.017,0.821c0.152-0.593,0.66-0.787,1.017-0.838
			c0.236-0.034,0.414-0.025,0.55-0.018v0.779c-0.042-0.017-0.093-0.025-0.152-0.034c-0.06-0.008-0.136-0.008-0.229-0.008
			c-0.94,0-1.16,0.559-1.16,1.287v2.261h-0.805V355.884z"/>
		<path fill="#00435B" d="M280.179,357.289c-0.017,0.881,0.347,1.533,1.22,1.533c0.516,0,0.932-0.271,0.999-0.881h0.796
			c-0.025,0.212-0.059,0.559-0.364,0.889c-0.187,0.212-0.609,0.567-1.465,0.567c-1.338,0-1.974-0.83-1.974-2.176
			c0-0.839,0.17-1.533,0.839-1.999c0.406-0.288,0.915-0.313,1.16-0.313c1.905,0,1.863,1.686,1.847,2.38H280.179z M282.423,356.731
			c0.009-0.407-0.067-1.254-1.05-1.254c-0.518,0-1.144,0.313-1.16,1.254H282.423z"/>
		<path fill="#00435B" d="M286.528,353.749c-0.137-0.008-0.306-0.017-0.467-0.017c-0.644,0-0.644,0.321-0.644,0.618v0.669h0.991
			v0.576h-0.991v3.675h-0.787v-3.675h-0.839v-0.576h0.839v-0.482c0-0.585,0.034-0.796,0.178-1.017
			c0.178-0.271,0.517-0.466,1.067-0.466c0.229,0,0.482,0.034,0.652,0.06V353.749z"/>
		<path fill="#00435B" d="M287.16,358.255h0.939v1.016h-0.939V358.255z"/>
		<path fill="#00435B" d="M291.627,358.5l1.533-1.507c0.322-0.313,0.645-0.652,0.906-1.008c0.339-0.466,0.432-0.729,0.432-1.042
			c0-0.288-0.102-0.957-0.939-0.957c-0.94,0-0.957,0.805-0.957,1.024h-0.889c0.008-0.288,0.033-0.847,0.541-1.287
			c0.406-0.347,0.898-0.423,1.271-0.423c0.897,0,1.813,0.457,1.813,1.71c0,0.373-0.025,0.661-0.661,1.466
			c-0.169,0.211-0.914,0.981-1.084,1.151l-1.024,0.974h2.786v0.669h-3.727V358.5z"/>
	</g>
</g>
</svg>
