<?xml version="1.0" encoding="utf-8"?>
<!-- Generator: Adobe Illustrator 17.0.0, SVG Export Plug-In . SVG Version: 6.00 Build 0)  -->
<!DOCTYPE svg PUBLIC "-//W3C//DTD SVG 1.1//EN" "http://www.w3.org/Graphics/SVG/1.1/DTD/svg11.dtd">
<svg version="1.1" id="Layer_1" xmlns="http://www.w3.org/2000/svg" xmlns:xlink="http://www.w3.org/1999/xlink" x="0px" y="0px"
	 width="300.057px" height="165.927px" viewBox="0 0 300.057 165.927" enable-background="new 0 0 300.057 165.927"
	 xml:space="preserve">
<polygon fill="#04607D" points="0,165.019 4.464,157.691 13.411,156.608 13.126,150.058 28.138,136.097 38.382,133.361 
	48.543,125.454 64.084,123.872 64.435,120.614 65.156,119.857 75.804,118.254 79.702,113.14 80.223,112.818 84.873,111.963 
	84.352,108.257 85.194,107.272 98.379,107.272 99.19,104.513 99.625,103.987 123.294,91.986 134.587,88.377 136.933,88.377 
	147.598,77.774 148.133,77.528 154.648,77.058 157.183,72.973 157.903,72.567 163.34,72.567 165.367,68.649 166,68.195 
	176.058,66.728 180.317,62.204 180.821,61.947 188.041,60.977 197.4,51.205 198.045,50.943 205.818,51.289 220.224,36.544 
	220.829,36.283 227.781,36.283 234.123,29.992 234.64,29.75 243.851,28.89 249.239,24.077 249.812,23.858 261.507,23.858 
	261.507,22.273 262.355,21.412 269.868,21.412 269.868,18.322 270.718,17.459 276.852,17.459 277.618,14.242 277.914,13.582 
	289.424,12.641 289.424,6.54 290.274,5.675 298.355,5.675 298.355,0 300.057,0 300.057,6.54 299.204,7.403 291.126,7.403 
	291.126,13.437 290.345,14.301 279.133,15.212 278.347,18.524 277.52,19.185 271.566,19.185 271.566,21.844 270.718,23.137 
	263.205,23.137 263.205,24.718 262.355,25.577 250.14,25.577 244.928,30.383 244.009,30.604 235.096,31.44 228.724,37.765 
	228.129,38.01 221.186,38.01 206.764,52.772 206.121,53.024 198.355,52.683 189.054,62.391 188.556,62.645 181.343,63.615 
	177.084,68.138 176.588,68.395 166.672,69.84 164.611,73.829 163.855,74.294 158.372,74.294 155.857,78.345 155.198,78.744 
	148.567,79.225 137.875,89.853 137.279,90.099 134.722,90.099 123.571,93.771 100.715,105.361 99.827,108.382 99.012,108.997 
	86.174,108.997 86.675,112.541 85.983,113.511 80.847,114.456 76.938,119.582 76.39,119.908 66.057,121.462 65.702,124.754 
	64.941,125.516 48.96,127.144 39.303,134.821 28.56,138.053 14.866,150.937 15.179,158.103 5.417,159.406 1.448,165.927 "/>
</svg>
