<?xml version="1.0" encoding="utf-8"?>
<!-- Generator: Adobe Illustrator 17.0.0, SVG Export Plug-In . SVG Version: 6.00 Build 0)  -->
<!DOCTYPE svg PUBLIC "-//W3C//DTD SVG 1.1//EN" "http://www.w3.org/Graphics/SVG/1.1/DTD/svg11.dtd">
<svg version="1.1" id="Layer_1" xmlns="http://www.w3.org/2000/svg" xmlns:xlink="http://www.w3.org/1999/xlink" x="0px" y="0px"
	 width="314.598px" height="124.979px" viewBox="0 0 314.598 124.979" enable-background="new 0 0 314.598 124.979"
	 xml:space="preserve">
<polygon fill="#98C4D2" points="0,123.912 5.386,119.889 6.055,119.56 21.018,119.56 22.675,114.133 23.487,113.523 30.403,113.523 
	32.325,108.197 33.124,107.633 50.52,107.633 59.775,99.369 60.335,99.156 63.595,99.156 63.595,98.294 64.448,97.429 
	69.686,97.429 74.277,93.873 74.794,93.696 83.295,93.696 83.295,90.388 84.148,89.525 90.634,89.525 95.357,85.425 95.907,85.216 
	107.556,85.216 114.1,77.054 114.696,76.739 121.698,76.203 123.479,72.081 124.144,71.57 130.209,70.75 133.543,66.967 
	134.177,66.678 139.65,66.678 141.1,64.22 141.831,63.802 155.226,63.802 163.121,59.592 163.641,59.5 170.561,60.559 
	174.526,52.914 174.779,52.616 184.56,45.43 185.104,45.267 194.977,45.793 194.977,42.969 195.543,42.155 197.933,41.287 
	199.249,35.168 200.081,34.488 212.868,34.488 218.803,27.367 227.874,19.463 228.424,19.256 237.745,19.256 245.523,15.81 
	256.068,15.139 256.068,10.633 256.913,9.771 267.959,9.771 274.816,4.351 275.34,4.167 284.307,4.167 285.142,0.661 285.97,0 
	314.598,0 314.598,1.725 286.637,1.725 285.801,5.232 284.977,5.892 275.629,5.892 268.776,11.313 268.254,11.497 257.765,11.497 
	257.765,15.951 256.967,16.811 245.781,17.521 238.269,20.906 237.925,20.981 228.74,20.981 219.961,28.628 213.912,35.906 
	213.258,36.212 200.766,36.212 199.498,42.122 198.95,42.748 196.68,43.573 196.68,46.703 195.784,47.565 185.313,47.003 
	175.942,53.894 171.778,61.904 170.902,62.356 163.666,61.249 155.832,65.429 155.435,65.528 142.312,65.528 140.858,67.983 
	140.128,68.4 134.557,68.4 131.266,72.138 130.746,72.417 124.843,73.217 123.05,77.37 122.336,77.883 115.187,78.432 
	108.617,86.62 107.958,86.939 96.225,86.939 91.503,91.043 90.949,91.25 84.996,91.25 84.996,94.556 84.148,95.421 75.08,95.421 
	70.49,98.975 69.973,99.156 65.295,99.156 65.295,100.021 64.448,100.881 60.656,100.881 51.403,109.144 50.839,109.356 
	33.717,109.356 31.797,114.682 30.998,115.25 24.113,115.25 22.456,120.677 21.644,121.284 6.468,121.284 1.336,124.98 "/>
</svg>
