<?xml version="1.0" encoding="utf-8"?>
<!-- Generator: Adobe Illustrator 17.0.0, SVG Export Plug-In . SVG Version: 6.00 Build 0)  -->
<!DOCTYPE svg PUBLIC "-//W3C//DTD SVG 1.1//EN" "http://www.w3.org/Graphics/SVG/1.1/DTD/svg11.dtd">
<svg version="1.1" id="Layer_1" xmlns="http://www.w3.org/2000/svg" xmlns:xlink="http://www.w3.org/1999/xlink" x="0px" y="0px"
	 width="520.845px" height="108.75px" viewBox="0 0 520.845 108.75" enable-background="new 0 0 520.845 108.75"
	 xml:space="preserve">
<g>
	<g>
		<defs>
			<path id="SVGID_368_" d="M28.624,0C12.813,0,0,9.904,0,22.121V86.64c0,12.206,12.813,22.109,28.624,22.109h463.599
				c15.807,0,28.622-9.904,28.622-22.109V22.121C520.845,9.904,508.03,0,492.223,0H28.624z"/>
		</defs>
		<clipPath id="SVGID_2_">
			<use xlink:href="#SVGID_368_"  overflow="visible"/>
		</clipPath>
		
			<linearGradient id="SVGID_4_" gradientUnits="userSpaceOnUse" x1="-2306.3486" y1="671.0957" x2="-2303.9873" y2="671.0957" gradientTransform="matrix(0 -46.0542 -46.7324 0 31622.3359 -106108.2969)">
			<stop  offset="0" style="stop-color:#414042"/>
			<stop  offset="0.0139" style="stop-color:#454446"/>
			<stop  offset="0.1522" style="stop-color:#69696B"/>
			<stop  offset="0.2969" style="stop-color:#87888A"/>
			<stop  offset="0.4479" style="stop-color:#9FA0A2"/>
			<stop  offset="0.6078" style="stop-color:#AFB1B3"/>
			<stop  offset="0.7825" style="stop-color:#B9BBBD"/>
			<stop  offset="1" style="stop-color:#BCBEC0"/>
		</linearGradient>
		<rect x="0" y="0" clip-path="url(#SVGID_2_)" fill="url(#SVGID_4_)" width="520.845" height="108.75"/>
	</g>
	<g>
		<defs>
			<path id="SVGID_371_" d="M28.624,8.208c-9.93,0-17.989,6.234-17.989,13.913V86.64c0,7.663,8.059,13.897,17.989,13.897h463.599
				c9.92,0,17.986-6.234,17.986-13.897V22.121c0-7.679-8.066-13.913-17.986-13.913H28.624z"/>
		</defs>
		<clipPath id="SVGID_6_">
			<use xlink:href="#SVGID_371_"  overflow="visible"/>
		</clipPath>
		
			<linearGradient id="SVGID_8_" gradientUnits="userSpaceOnUse" x1="-2306.01" y1="663.5029" x2="-2303.6484" y2="663.5029" gradientTransform="matrix(0 -39.0996 -39.6754 0 26585.1641 -90063.5313)">
			<stop  offset="0" style="stop-color:#FFFFFF"/>
			<stop  offset="0.3022" style="stop-color:#F8F8F8"/>
			<stop  offset="0.7564" style="stop-color:#E6E5E3"/>
			<stop  offset="1" style="stop-color:#DAD8D5"/>
		</linearGradient>
		<rect x="10.636" y="8.208" clip-path="url(#SVGID_6_)" fill="url(#SVGID_8_)" width="499.574" height="92.329"/>
	</g>
	<g opacity="0.5">
		<g>
			<defs>
				<rect id="SVGID_374_" x="9.566" y="7.391" width="501.721" height="93.97"/>
			</defs>
			<clipPath id="SVGID_9_">
				<use xlink:href="#SVGID_374_"  overflow="visible"/>
			</clipPath>
			<g clip-path="url(#SVGID_9_)">
				<defs>
					<path id="SVGID_376_" d="M28.624,7.391c-10.506,0-19.059,6.6-19.059,14.728V86.64c0,8.116,8.553,14.721,19.059,14.721h463.599
						c10.508,0,19.063-6.605,19.063-14.721V22.119c0-8.128-8.555-14.728-19.063-14.728H28.624z"/>
				</defs>
				<clipPath id="SVGID_10_">
					<use xlink:href="#SVGID_376_"  overflow="visible"/>
				</clipPath>
				
					<linearGradient id="SVGID_11_" gradientUnits="userSpaceOnUse" x1="-2306.0466" y1="664.3717" x2="-2303.6853" y2="664.3717" gradientTransform="matrix(0 -39.7949 -40.381 0 27088.418 -91667.5391)">
					<stop  offset="0" style="stop-color:#595A5C"/>
					<stop  offset="0.005" style="stop-color:#5C5D5F"/>
					<stop  offset="0.066" style="stop-color:#838385"/>
					<stop  offset="0.1322" style="stop-color:#A4A4A5"/>
					<stop  offset="0.2061" style="stop-color:#C0C1C1"/>
					<stop  offset="0.2882" style="stop-color:#D7D8D8"/>
					<stop  offset="0.3822" style="stop-color:#E9E9EA"/>
					<stop  offset="0.4954" style="stop-color:#F6F6F6"/>
					<stop  offset="0.6471" style="stop-color:#FDFDFD"/>
					<stop  offset="1" style="stop-color:#FFFFFF"/>
				</linearGradient>
				<rect x="9.566" y="7.391" clip-path="url(#SVGID_10_)" fill="url(#SVGID_11_)" width="501.721" height="93.97"/>
			</g>
		</g>
	</g>
	<g>
		<g>
			<path fill="#00728F" d="M122.919,14.851l5.251,14.904h-3.264l-1.088-3.216h-5.983l-1.129,3.216h-3.097l5.46-14.904H122.919z
				 M123.003,24.128l-2.093-6.349l-2.238,6.349H123.003z"/>
			<path fill="#00728F" d="M132.858,24.993c0,0.701-0.041,2.824,2.741,2.824c1.757,0,2.865-0.824,2.865-2.082
				c0-1.319-0.941-1.546-2.865-2c-3.599-0.886-5.565-1.938-5.565-4.515c0-2.453,1.778-4.618,5.983-4.618
				c1.569,0,3.431,0.351,4.561,1.752c0.857,1.072,0.857,2.268,0.857,2.762h-3.116c-0.042-0.515-0.21-2.268-2.448-2.268
				c-1.506,0-2.489,0.804-2.489,2.02c0,1.381,1.108,1.629,3.284,2.165c2.615,0.619,5.188,1.319,5.188,4.226
				c0,2.68-2.26,4.845-6.443,4.845c-5.795,0-5.837-3.669-5.857-5.113H132.858z"/>
			<path fill="#00728F" d="M152.943,19.716c-0.063-0.515-0.251-2.618-2.448-2.618c-2.405,0-3.409,2.474-3.409,5.545
				c0,0.886,0,5.112,3.158,5.112c1.36,0,2.657-0.845,2.72-2.824h3.41c-0.063,0.886-0.146,2.268-1.359,3.504
				c-1.339,1.36-3.034,1.67-4.414,1.67c-5.209,0-6.904-3.793-6.904-7.483c0-4.721,2.678-7.854,6.925-7.854
				c3.306,0,5.627,1.979,5.627,4.947H152.943z"/>
			<path fill="#00728F" d="M160.935,14.913l3.954,11.689l3.975-11.689h3.201L166.5,29.756h-3.536L157.4,14.913H160.935z"/>
			<path fill="#00728F" d="M173.824,14.892l5,0.021c0.837,0,3.39,0.021,5.209,1.34c1.904,1.381,2.573,3.731,2.573,5.854
				c0,4.576-2.489,6.968-5.355,7.483c-0.564,0.103-1.192,0.165-2.72,0.165h-4.707V14.892z M177.109,27.302
				c0.355,0.021,0.899,0.041,1.275,0.041c1.381,0,2.573-0.103,3.515-1.031c1.276-1.257,1.36-3.484,1.36-4.205
				c0-2.103-0.732-4.041-2.762-4.597c-0.67-0.186-1.527-0.289-3.389-0.206V27.302z"/>
			<path fill="#00728F" d="M194.667,14.45h-2.47v6.98h-1.168v-6.98h-2.514v-1.079h2.514v-2.462h1.168v2.462h2.47V14.45z"/>
			<path fill="#00728F" d="M199.829,24.993c0,0.701-0.041,2.824,2.741,2.824c1.757,0,2.865-0.824,2.865-2.082
				c0-1.319-0.94-1.546-2.865-2c-3.599-0.886-5.565-1.938-5.565-4.515c0-2.453,1.778-4.618,5.983-4.618
				c1.569,0,3.431,0.351,4.561,1.752c0.857,1.072,0.857,2.268,0.857,2.762h-3.116c-0.042-0.515-0.21-2.268-2.448-2.268
				c-1.506,0-2.489,0.804-2.489,2.02c0,1.381,1.108,1.629,3.284,2.165c2.615,0.619,5.188,1.319,5.188,4.226
				c0,2.68-2.26,4.845-6.443,4.845c-5.795,0-5.837-3.669-5.857-5.113H199.829z"/>
			<path fill="#00728F" d="M217.321,29.611c-1.005,0.268-1.904,0.33-2.406,0.33c-3.117,0-3.117-1.938-3.117-2.804v-5.71h-2.029
				v-2.021h2.029v-2.041l3.075-1.113v3.154h2.511v2.021h-2.511v4.7c0.021,0.948,0.021,1.546,1.402,1.546
				c0.46,0,0.669-0.021,1.046-0.062V29.611z"/>
			<path fill="#00728F" d="M225.584,29.756c-0.104-0.639-0.104-1.113-0.104-1.422c-1.171,1.67-2.573,1.67-3.159,1.67
				c-1.526,0-2.217-0.433-2.636-0.825c-0.627-0.619-0.92-1.464-0.92-2.288c0-0.825,0.293-2.35,2.238-3.237
				c1.297-0.577,3.159-0.577,4.184-0.577c0-0.68-0.021-1.01-0.146-1.381c-0.271-0.763-1.088-0.866-1.381-0.866
				c-0.438,0-0.899,0.186-1.171,0.577c-0.23,0.351-0.23,0.681-0.23,0.928h-3.033c0.021-0.557,0.084-1.669,1.192-2.453
				c0.962-0.68,2.196-0.845,3.201-0.845c0.878,0,2.719,0.145,3.766,1.34c0.711,0.845,0.731,2.083,0.731,2.557l0.021,4.185
				c0,0.886,0.063,1.773,0.251,2.639H225.584z M221.777,26.54c0,0.701,0.481,1.484,1.507,1.484c0.564,0,1.025-0.268,1.317-0.598
				c0.544-0.66,0.586-1.463,0.586-2.577C223.199,24.684,221.777,25.303,221.777,26.54z"/>
			<path fill="#00728F" d="M237.093,29.611c-1.005,0.268-1.904,0.33-2.406,0.33c-3.117,0-3.117-1.938-3.117-2.804v-5.71h-2.029
				v-2.021h2.029v-2.041l3.075-1.113v3.154h2.511v2.021h-2.511v4.7c0.021,0.948,0.021,1.546,1.402,1.546
				c0.46,0,0.669-0.021,1.046-0.062V29.611z"/>
			<path fill="#00728F" d="M238.913,14.872h3.306v2.659h-3.306V14.872z M239.018,19.324h3.097v10.431h-3.097V19.324z"/>
			<path fill="#00728F" d="M244.876,21.2c0-0.041,0-1.175-0.063-1.896h2.971l0.084,1.567c0.293-0.474,1.129-1.814,3.431-1.814
				c2.071,0,2.949,1.237,3.222,1.958c0.229,0.639,0.293,1.175,0.293,3.113v5.628h-3.159v-6.473c0-0.433,0-0.804-0.167-1.134
				c-0.23-0.454-0.712-0.886-1.507-0.886c-0.669,0-1.276,0.309-1.61,0.804c-0.188,0.268-0.377,0.784-0.377,1.587v6.102h-3.117V21.2z
				"/>
			<path fill="#00728F" d="M263.497,14.872h5.648c0.878,0,2.572,0,3.724,0.701c1.381,0.866,1.694,2.309,1.694,3.174
				c0,0.557-0.104,1.525-0.879,2.227c-0.104,0.124-0.837,0.783-1.715,1.01v0.041c2.301,0.412,3.2,2.062,3.2,3.628
				c0,1.752-1.046,2.928-2.218,3.505c-1.171,0.598-3.222,0.598-3.807,0.598h-5.648V14.872z M266.593,20.932h2.26
				c0.92,0,2.594,0,2.594-1.917c0-1.855-1.59-1.855-2.657-1.855h-2.196V20.932z M266.593,27.365h2.196c1.485,0,3.159,0,3.159-2
				c0-2.123-1.945-2.123-3.493-2.123h-1.862V27.365z"/>
			<path fill="#00728F" d="M279.879,25.323c0,0.68,0,2.783,2.154,2.783c0.774,0,1.548-0.289,1.841-1.443h2.824
				c-0.042,0.495-0.146,1.381-1.004,2.268c-0.774,0.804-2.155,1.216-3.703,1.216c-0.899,0-2.615-0.165-3.724-1.299
				c-0.962-0.989-1.359-2.391-1.359-4.061c0-1.69,0.418-3.71,2.196-4.927c0.815-0.536,1.82-0.866,2.971-0.866
				c1.506,0,3.306,0.577,4.268,2.515c0.711,1.423,0.669,2.948,0.628,3.814H279.879z M283.812,23.406c0-0.474-0.042-2.33-1.841-2.33
				c-1.36,0-1.925,1.113-1.987,2.33H283.812z"/>
			<path fill="#00728F" d="M289.064,21.2c0-0.041,0-1.175-0.063-1.896h2.971l0.084,1.567c0.293-0.474,1.129-1.814,3.431-1.814
				c2.071,0,2.949,1.237,3.222,1.958c0.229,0.639,0.293,1.175,0.293,3.113v5.628h-3.159v-6.473c0-0.433,0-0.804-0.167-1.134
				c-0.23-0.454-0.712-0.886-1.507-0.886c-0.669,0-1.276,0.309-1.61,0.804c-0.188,0.268-0.377,0.784-0.377,1.587v6.102h-3.117V21.2z
				"/>
			<path fill="#00728F" d="M304.296,25.323c0,0.68,0,2.783,2.154,2.783c0.774,0,1.548-0.289,1.841-1.443h2.824
				c-0.042,0.495-0.146,1.381-1.004,2.268c-0.774,0.804-2.155,1.216-3.703,1.216c-0.899,0-2.614-0.165-3.724-1.299
				c-0.962-0.989-1.359-2.391-1.359-4.061c0-1.69,0.418-3.71,2.196-4.927c0.815-0.536,1.82-0.866,2.971-0.866
				c1.506,0,3.306,0.577,4.268,2.515c0.711,1.423,0.669,2.948,0.628,3.814H304.296z M308.229,23.406c0-0.474-0.042-2.33-1.841-2.33
				c-1.36,0-1.925,1.113-1.987,2.33H308.229z"/>
			<path fill="#00728F" d="M313.711,21.51h-1.59v-2.164h1.59v-1.423c0-1.834,0.606-3.319,3.619-3.319c0.23,0,0.815,0,1.674,0.103
				v2.124c-0.314-0.042-0.397-0.062-0.648-0.062c-1.569,0-1.569,0.825-1.569,1.361v1.216h1.945v2.164h-1.945v8.246h-3.075V21.51z
				 M320.301,14.872h3.305v2.659h-3.305V14.872z M320.406,19.324h3.096v10.431h-3.096V19.324z"/>
			<path fill="#00728F" d="M332.436,29.611c-1.005,0.268-1.904,0.33-2.406,0.33c-3.117,0-3.117-1.938-3.117-2.804v-5.71h-2.029
				v-2.021h2.029v-2.041l3.075-1.113v3.154h2.511v2.021h-2.511v4.7c0.021,0.948,0.021,1.546,1.402,1.546
				c0.46,0,0.669-0.021,1.046-0.062V29.611z"/>
			<path fill="#00728F" d="M350.407,19.427c-0.021-0.392-0.042-0.927-0.419-1.505c-0.627-0.989-1.819-1.154-2.531-1.154
				c-3.682,0-4.414,3.381-4.414,5.669c0,1.01,0.146,2.824,1.256,4c0.753,0.825,1.757,1.278,3.556,1.278
				c1.569,0,2.113-0.186,2.469-0.289v-3.133h-2.929v-2.474h6.171v7.442c-0.941,0.309-2.489,0.825-5.522,0.825
				c-3.452,0-5.229-0.825-6.422-1.979c-1.695-1.628-2.009-3.999-2.009-5.566c0-5.277,3.348-8.102,7.929-8.102
				c1.945,0,3.954,0.536,5.146,1.876c1.004,1.134,1.066,2.309,1.088,3.113H350.407z"/>
			<path fill="#00728F" d="M356.454,21.902c0-0.495-0.083-2-0.146-2.598h2.908l0.063,2c0.397-0.886,1.088-2.144,3.599-2.02v2.742
				c-3.138-0.289-3.326,1.299-3.326,2.598v5.133h-3.097V21.902z"/>
			<path fill="#00728F" d="M369.573,19.098c3.828,0,5.48,2.556,5.48,5.463c0,2.927-1.715,5.566-5.543,5.566
				c-3.013,0-5.397-1.835-5.397-5.483C364.113,22.128,365.409,19.098,369.573,19.098z M369.615,28.003
				c1.359,0,2.28-0.804,2.28-3.566c0-1.381-0.272-3.298-2.322-3.298c-2.26,0-2.28,2.577-2.28,3.525
				C367.292,26.993,368.087,28.003,369.615,28.003z"/>
			<path fill="#00728F" d="M380.411,19.345v6.205c0,0.907,0,2.289,1.652,2.289c1.987,0,1.987-1.464,1.987-3.237v-5.256h3.18v6.864
				c0.042,2.247,0.063,2.515,0.063,2.783c0.021,0.289,0.042,0.474,0.084,0.763h-3.013l-0.104-1.381
				c-0.313,0.454-1.108,1.649-3.117,1.649c-1.422,0-2.594-0.639-3.18-1.402c-0.69-0.845-0.69-2.288-0.69-2.804v-6.473H380.411z"/>
			<path fill="#00728F" d="M393.069,19.345l0.084,1.484c0.962-1.669,2.72-1.69,3.222-1.69c2.74,0,4.393,2.021,4.393,5.195
				c0,2.948-1.548,5.566-4.602,5.566c-1.904,0-2.678-0.99-2.95-1.34v5.195h-3.159V19.345H393.069z M397.629,24.458
				c0-1.237-0.313-3.36-2.134-3.36c-1.004,0-2.427,0.742-2.427,3.546c0,0.618,0.021,3.257,2.301,3.257
				C396.834,27.9,397.629,26.519,397.629,24.458z"/>
			<path fill="#00728F" d="M405.099,26.746c0.042,0.66,0.46,1.422,1.757,1.422c1.109,0,1.632-0.618,1.632-1.237
				c0-0.474-0.251-0.845-1.464-1.175l-1.925-0.516c-0.857-0.248-2.678-0.763-2.678-2.886c0-2.02,1.883-3.257,4.623-3.257
				c2.176,0,3.933,0.989,4.017,3.072h-2.824c-0.084-1.155-1.025-1.237-1.506-1.237c-0.837,0-1.465,0.392-1.465,1.031
				c0,0.701,0.523,0.845,1.443,1.093l1.904,0.515c1.925,0.516,2.824,1.484,2.824,2.907c0,1.793-1.569,3.587-4.854,3.587
				c-1.36,0-2.657-0.289-3.619-1.278c-0.69-0.722-0.753-1.546-0.774-2.041H405.099z"/>
			<path fill="#00728F" d="M413.204,15.759c0.793-0.336,1.549-0.757,2.256-1.262h1.572v8.393h-1.841v-6.529
				c-0.354,0.264-1.061,0.697-1.987,1.07V15.759z"/>
		</g>
	</g>
	<g>
		<g>
			<path fill="#231F20" d="M43.429,35.947h2.001v3.673h3.523v-3.673h2.027v9.19H48.98v-4.029h-3.55v4.029h-2.001V35.947z"/>
			<path fill="#231F20" d="M54.253,42.404c0,0.419,0,1.716,1.33,1.716c0.478,0,0.955-0.178,1.136-0.89h1.743
				c-0.026,0.305-0.091,0.852-0.62,1.398c-0.478,0.496-1.329,0.75-2.285,0.75c-0.555,0-1.613-0.102-2.298-0.801
				c-0.594-0.61-0.839-1.475-0.839-2.504c0-1.042,0.259-2.288,1.355-3.038c0.504-0.331,1.123-0.534,1.833-0.534
				c0.93,0,2.04,0.356,2.634,1.551c0.438,0.877,0.413,1.817,0.387,2.351H54.253z M56.68,41.221c0-0.292-0.025-1.436-1.136-1.436
				c-0.839,0-1.188,0.687-1.227,1.436H56.68z"/>
			<path fill="#231F20" d="M63.803,45.136c-0.065-0.394-0.065-0.687-0.065-0.877c-0.723,1.029-1.587,1.029-1.949,1.029
				c-0.942,0-1.368-0.267-1.626-0.508c-0.388-0.381-0.568-0.902-0.568-1.411c0-0.509,0.181-1.449,1.382-1.996
				c0.8-0.356,1.949-0.356,2.581-0.356c0-0.419-0.013-0.623-0.09-0.852c-0.168-0.47-0.672-0.534-0.853-0.534
				c-0.271,0-0.555,0.115-0.723,0.356c-0.142,0.216-0.142,0.419-0.142,0.572h-1.872c0.013-0.343,0.052-1.03,0.735-1.513
				c0.595-0.419,1.355-0.521,1.976-0.521c0.542,0,1.678,0.089,2.323,0.826c0.439,0.521,0.452,1.284,0.452,1.576l0.013,2.58
				c0,0.546,0.039,1.093,0.155,1.627H63.803z M61.453,43.154c0,0.432,0.297,0.915,0.929,0.915c0.349,0,0.633-0.165,0.813-0.369
				c0.336-0.407,0.361-0.902,0.361-1.588C62.331,42.01,61.453,42.391,61.453,43.154z"/>
			<path fill="#231F20" d="M67.064,40.294c0-0.305-0.052-1.233-0.09-1.602h1.794l0.039,1.233c0.245-0.546,0.671-1.322,2.22-1.246
				v1.69c-1.936-0.178-2.052,0.801-2.052,1.602v3.165h-1.911V40.294z"/>
			<path fill="#231F20" d="M75.916,45.048c-0.619,0.165-1.175,0.203-1.484,0.203c-1.924,0-1.924-1.195-1.924-1.729v-3.521h-1.252
				v-1.246h1.252v-1.258l1.898-0.686v1.944h1.549v1.246h-1.549v2.898c0.013,0.585,0.013,0.954,0.864,0.954
				c0.284,0,0.413-0.013,0.646-0.038V45.048z"/>
			<path fill="#231F20" d="M80.74,35.959h1.897v3.635c0.22-0.305,0.697-0.966,1.885-0.966c0.969,0,1.588,0.47,1.897,0.864
				c0.232,0.318,0.427,0.902,0.427,1.741v3.902h-1.898v-3.838c0-0.369,0-1.398-1.071-1.398c-0.542,0-1.227,0.305-1.227,1.309
				l0.014,3.928H80.74V35.959z"/>
			<path fill="#231F20" d="M90.107,42.404c0,0.419,0,1.716,1.33,1.716c0.478,0,0.955-0.178,1.136-0.89h1.743
				c-0.026,0.305-0.091,0.852-0.62,1.398c-0.478,0.496-1.329,0.75-2.285,0.75c-0.555,0-1.613-0.102-2.298-0.801
				c-0.594-0.61-0.839-1.475-0.839-2.504c0-1.042,0.259-2.288,1.355-3.038c0.504-0.331,1.123-0.534,1.833-0.534
				c0.93,0,2.04,0.356,2.634,1.551c0.438,0.877,0.413,1.817,0.387,2.351H90.107z M92.533,41.221c0-0.292-0.025-1.436-1.136-1.436
				c-0.839,0-1.188,0.687-1.227,1.436H92.533z"/>
			<path fill="#231F20" d="M99.655,45.136c-0.064-0.394-0.064-0.687-0.064-0.877c-0.723,1.029-1.588,1.029-1.949,1.029
				c-0.942,0-1.368-0.267-1.626-0.508c-0.388-0.381-0.568-0.902-0.568-1.411c0-0.509,0.181-1.449,1.382-1.996
				c0.8-0.356,1.949-0.356,2.581-0.356c0-0.419-0.013-0.623-0.09-0.852c-0.168-0.47-0.672-0.534-0.853-0.534
				c-0.271,0-0.555,0.115-0.723,0.356c-0.142,0.216-0.142,0.419-0.142,0.572h-1.872c0.013-0.343,0.052-1.03,0.735-1.513
				c0.595-0.419,1.355-0.521,1.976-0.521c0.542,0,1.678,0.089,2.323,0.826c0.439,0.521,0.452,1.284,0.452,1.576l0.013,2.58
				c0,0.546,0.039,1.093,0.155,1.627H99.655z M97.306,43.154c0,0.432,0.297,0.915,0.929,0.915c0.349,0,0.633-0.165,0.813-0.369
				c0.336-0.407,0.361-0.902,0.361-1.588C98.184,42.01,97.306,42.391,97.306,43.154z"/>
			<path fill="#231F20" d="M102.917,35.947h1.911v9.19h-1.911V35.947z"/>
			<path fill="#231F20" d="M110.337,45.048c-0.619,0.165-1.175,0.203-1.484,0.203c-1.924,0-1.924-1.195-1.924-1.729v-3.521h-1.252
				v-1.246h1.252v-1.258l1.898-0.686v1.944h1.549v1.246h-1.549v2.898c0.013,0.585,0.013,0.954,0.864,0.954
				c0.284,0,0.413-0.013,0.646-0.038V45.048z"/>
			<path fill="#231F20" d="M111.574,35.959h1.897v3.635c0.22-0.305,0.697-0.966,1.885-0.966c0.969,0,1.588,0.47,1.897,0.864
				c0.232,0.318,0.427,0.902,0.427,1.741v3.902h-1.898v-3.838c0-0.369,0-1.398-1.071-1.398c-0.542,0-1.227,0.305-1.227,1.309
				l0.014,3.928h-1.924V35.959z"/>
			<path fill="#231F20" d="M120.812,38.718l1.433,4.449l1.459-4.449h1.897l-2.466,6.305l-0.787,2.555h-1.924l0.826-2.415
				l-2.504-6.444H120.812z"/>
			<path fill="#231F20" d="M130.165,35.947h1.911v9.19h-1.911V35.947z"/>
			<path fill="#231F20" d="M133.687,35.959h2.04v1.64h-2.04V35.959z M133.751,38.705h1.911v6.432h-1.911V38.705z"/>
			<path fill="#231F20" d="M137.467,40.052h-0.968v-1.335h0.968v-0.877c0-1.131,0.388-2.046,2.246-2.046c0.13,0,0.491,0,1.033,0.063
				v1.309c-0.193-0.025-0.245-0.038-0.4-0.038c-0.98,0-0.98,0.509-0.98,0.839v0.75h1.213v1.335h-1.213v5.084h-1.898V40.052z"/>
			<path fill="#231F20" d="M143.17,42.404c0,0.419,0,1.716,1.33,1.716c0.478,0,0.955-0.178,1.136-0.89h1.743
				c-0.026,0.305-0.091,0.852-0.62,1.398c-0.478,0.496-1.329,0.75-2.285,0.75c-0.555,0-1.613-0.102-2.298-0.801
				c-0.594-0.61-0.839-1.475-0.839-2.504c0-1.042,0.259-2.288,1.355-3.038c0.504-0.331,1.123-0.534,1.833-0.534
				c0.93,0,2.04,0.356,2.634,1.551c0.438,0.877,0.413,1.817,0.387,2.351H143.17z M145.597,41.221c0-0.292-0.025-1.436-1.136-1.436
				c-0.839,0-1.188,0.687-1.227,1.436H145.597z"/>
			<path fill="#231F20" d="M150.138,43.281c0.025,0.407,0.284,0.877,1.084,0.877c0.685,0,1.007-0.381,1.007-0.763
				c0-0.292-0.154-0.521-0.903-0.725l-1.188-0.318c-0.529-0.152-1.652-0.47-1.652-1.779c0-1.246,1.161-2.008,2.853-2.008
				c1.343,0,2.427,0.61,2.479,1.894h-1.742c-0.052-0.711-0.633-0.762-0.93-0.762c-0.517,0-0.904,0.241-0.904,0.635
				c0,0.432,0.323,0.521,0.892,0.674l1.175,0.318c1.188,0.317,1.742,0.915,1.742,1.792c0,1.106-0.968,2.211-2.995,2.211
				c-0.839,0-1.64-0.178-2.233-0.788c-0.426-0.445-0.464-0.954-0.478-1.259H150.138z"/>
			<path fill="#231F20" d="M159.092,45.048c-0.619,0.165-1.175,0.203-1.484,0.203c-1.924,0-1.924-1.195-1.924-1.729v-3.521h-1.252
				v-1.246h1.252v-1.258l1.898-0.686v1.944h1.549v1.246h-1.549v2.898c0.013,0.585,0.013,0.954,0.864,0.954
				c0.284,0,0.413-0.013,0.646-0.038V45.048z"/>
			<path fill="#231F20" d="M161.684,38.718l1.433,4.449l1.459-4.449h1.897l-2.466,6.305l-0.787,2.555h-1.923l0.826-2.415
				l-2.505-6.444H161.684z"/>
			<path fill="#231F20" d="M167.45,35.947h1.911v9.19h-1.911V35.947z"/>
			<path fill="#231F20" d="M172.573,42.404c0,0.419,0,1.716,1.33,1.716c0.478,0,0.955-0.178,1.136-0.89h1.743
				c-0.026,0.305-0.091,0.852-0.62,1.398c-0.478,0.496-1.329,0.75-2.285,0.75c-0.555,0-1.613-0.102-2.298-0.801
				c-0.594-0.61-0.839-1.475-0.839-2.504c0-1.042,0.259-2.288,1.355-3.038c0.504-0.331,1.123-0.534,1.833-0.534
				c0.93,0,2.04,0.356,2.634,1.551c0.438,0.877,0.413,1.817,0.387,2.351H172.573z M174.999,41.221c0-0.292-0.025-1.436-1.136-1.436
				c-0.839,0-1.188,0.687-1.227,1.436H174.999z"/>
			<path fill="#231F20" d="M181.849,35.959h1.897v3.635c0.22-0.305,0.697-0.966,1.885-0.966c0.969,0,1.588,0.47,1.897,0.864
				c0.232,0.318,0.427,0.902,0.427,1.741v3.902h-1.898v-3.838c0-0.369,0-1.398-1.071-1.398c-0.542,0-1.227,0.305-1.227,1.309
				l0.014,3.928h-1.924V35.959z"/>
			<path fill="#231F20" d="M193.592,45.136c-0.065-0.394-0.065-0.687-0.065-0.877c-0.723,1.029-1.587,1.029-1.949,1.029
				c-0.942,0-1.368-0.267-1.626-0.508c-0.388-0.381-0.568-0.902-0.568-1.411c0-0.509,0.181-1.449,1.382-1.996
				c0.8-0.356,1.949-0.356,2.581-0.356c0-0.419-0.013-0.623-0.09-0.852c-0.168-0.47-0.672-0.534-0.853-0.534
				c-0.271,0-0.555,0.115-0.723,0.356c-0.142,0.216-0.142,0.419-0.142,0.572h-1.872c0.013-0.343,0.052-1.03,0.735-1.513
				c0.595-0.419,1.355-0.521,1.976-0.521c0.542,0,1.678,0.089,2.323,0.826c0.439,0.521,0.452,1.284,0.452,1.576l0.013,2.58
				c0,0.546,0.039,1.093,0.155,1.627H193.592z M191.242,43.154c0,0.432,0.297,0.915,0.929,0.915c0.349,0,0.633-0.165,0.813-0.369
				c0.336-0.407,0.361-0.902,0.361-1.588C192.12,42.01,191.242,42.391,191.242,43.154z"/>
			<path fill="#231F20" d="M196.788,35.972h1.911v3.521c0.645-0.839,1.51-0.864,1.846-0.864c1.588,0,2.84,1.233,2.84,3.394
				c0,2.402-1.42,3.241-2.724,3.241c-0.336,0-1.368-0.025-1.962-1.029c-0.014,0.203-0.026,0.508-0.065,0.902h-1.846V35.972z
				 M200.029,39.887c-1.407,0-1.407,1.576-1.407,1.983c0,1.462,0.633,2.161,1.498,2.161c1.316,0,1.316-1.614,1.316-1.945
				C201.436,41.577,201.409,39.887,200.029,39.887z"/>
			<path fill="#231F20" d="M204.671,35.959h2.04v1.64h-2.04V35.959z M204.736,38.705h1.911v6.432h-1.911V38.705z"/>
			<path fill="#231F20" d="M212.157,45.048c-0.619,0.165-1.175,0.203-1.484,0.203c-1.924,0-1.924-1.195-1.924-1.729v-3.521h-1.252
				v-1.246h1.252v-1.258l1.898-0.686v1.944h1.549v1.246h-1.549v2.898c0.013,0.585,0.013,0.954,0.864,0.954
				c0.284,0,0.413-0.013,0.646-0.038V45.048z"/>
			<path fill="#231F20" d="M214.671,43.281c0.025,0.407,0.284,0.877,1.084,0.877c0.685,0,1.007-0.381,1.007-0.763
				c0-0.292-0.154-0.521-0.903-0.725l-1.188-0.318c-0.529-0.152-1.652-0.47-1.652-1.779c0-1.246,1.161-2.008,2.853-2.008
				c1.343,0,2.427,0.61,2.479,1.894h-1.742c-0.052-0.711-0.633-0.762-0.93-0.762c-0.517,0-0.904,0.241-0.904,0.635
				c0,0.432,0.323,0.521,0.892,0.674l1.175,0.318c1.188,0.317,1.742,0.915,1.742,1.792c0,1.106-0.968,2.211-2.995,2.211
				c-0.839,0-1.64-0.178-2.233-0.788c-0.426-0.445-0.464-0.954-0.478-1.259H214.671z"/>
			<path fill="#231F20" d="M227.289,45.136c-0.064-0.394-0.064-0.687-0.064-0.877c-0.723,1.029-1.588,1.029-1.949,1.029
				c-0.942,0-1.368-0.267-1.626-0.508c-0.388-0.381-0.568-0.902-0.568-1.411c0-0.509,0.181-1.449,1.382-1.996
				c0.8-0.356,1.949-0.356,2.581-0.356c0-0.419-0.013-0.623-0.09-0.852c-0.168-0.47-0.672-0.534-0.853-0.534
				c-0.271,0-0.555,0.115-0.723,0.356c-0.142,0.216-0.142,0.419-0.142,0.572h-1.872c0.013-0.343,0.052-1.03,0.735-1.513
				c0.595-0.419,1.355-0.521,1.976-0.521c0.542,0,1.678,0.089,2.323,0.826c0.439,0.521,0.452,1.284,0.452,1.576l0.013,2.58
				c0,0.546,0.039,1.093,0.155,1.627H227.289z M224.941,43.154c0,0.432,0.297,0.915,0.929,0.915c0.349,0,0.633-0.165,0.813-0.369
				c0.336-0.407,0.361-0.902,0.361-1.588C225.819,42.01,224.941,42.391,224.941,43.154z"/>
			<path fill="#231F20" d="M230.551,40.294c0-0.305-0.052-1.233-0.09-1.602h1.794l0.039,1.233c0.245-0.546,0.671-1.322,2.22-1.246
				v1.69c-1.936-0.178-2.052,0.801-2.052,1.602v3.165h-1.911V40.294z"/>
			<path fill="#231F20" d="M237.107,42.404c0,0.419,0,1.716,1.33,1.716c0.478,0,0.955-0.178,1.136-0.89h1.743
				c-0.026,0.305-0.091,0.852-0.62,1.398c-0.478,0.496-1.329,0.75-2.285,0.75c-0.555,0-1.613-0.102-2.298-0.801
				c-0.594-0.61-0.839-1.475-0.839-2.504c0-1.042,0.259-2.288,1.355-3.038c0.504-0.331,1.123-0.534,1.833-0.534
				c0.93,0,2.04,0.356,2.634,1.551c0.438,0.877,0.413,1.817,0.387,2.351H237.107z M239.533,41.221c0-0.292-0.025-1.436-1.136-1.436
				c-0.839,0-1.188,0.687-1.227,1.436H239.533z"/>
			<path fill="#231F20" d="M250.164,45.048c-0.619,0.165-1.175,0.203-1.484,0.203c-1.924,0-1.924-1.195-1.924-1.729v-3.521h-1.252
				v-1.246h1.252v-1.258l1.898-0.686v1.944h1.549v1.246h-1.549v2.898c0.013,0.585,0.013,0.954,0.864,0.954
				c0.284,0,0.413-0.013,0.646-0.038V45.048z"/>
			<path fill="#231F20" d="M251.401,35.959h1.897v3.635c0.22-0.305,0.697-0.966,1.885-0.966c0.969,0,1.588,0.47,1.897,0.864
				c0.232,0.318,0.427,0.902,0.427,1.741v3.902h-1.898v-3.838c0-0.369,0-1.398-1.071-1.398c-0.542,0-1.227,0.305-1.227,1.309
				l0.014,3.928h-1.924V35.959z"/>
			<path fill="#231F20" d="M260.768,42.404c0,0.419,0,1.716,1.33,1.716c0.478,0,0.955-0.178,1.136-0.89h1.743
				c-0.026,0.305-0.091,0.852-0.62,1.398c-0.478,0.496-1.329,0.75-2.285,0.75c-0.555,0-1.613-0.102-2.298-0.801
				c-0.594-0.61-0.839-1.475-0.839-2.504c0-1.042,0.259-2.288,1.355-3.038c0.504-0.331,1.123-0.534,1.833-0.534
				c0.93,0,2.04,0.356,2.634,1.551c0.438,0.877,0.413,1.817,0.387,2.351H260.768z M263.195,41.221c0-0.292-0.025-1.436-1.136-1.436
				c-0.839,0-1.188,0.687-1.227,1.436H263.195z"/>
			<path fill="#231F20" d="M270.12,40.052h-0.968v-1.335h0.968v-0.877c0-1.131,0.388-2.046,2.246-2.046c0.13,0,0.491,0,1.033,0.063
				v1.309c-0.193-0.025-0.245-0.038-0.4-0.038c-0.98,0-0.98,0.509-0.98,0.839v0.75h1.213v1.335h-1.213v5.084h-1.898V40.052z"/>
			<path fill="#231F20" d="M277.36,38.565c2.362,0,3.383,1.576,3.383,3.368c0,1.805-1.059,3.432-3.421,3.432
				c-1.859,0-3.331-1.131-3.331-3.381C273.99,40.433,274.791,38.565,277.36,38.565z M277.386,44.056
				c0.839,0,1.407-0.496,1.407-2.199c0-0.852-0.168-2.034-1.434-2.034c-1.394,0-1.407,1.589-1.407,2.173
				C275.952,43.433,276.444,44.056,277.386,44.056z"/>
			<path fill="#231F20" d="M284.042,38.718v3.826c0,0.559,0,1.411,1.02,1.411c1.227,0,1.227-0.902,1.227-1.996v-3.241h1.962v4.233
				c0.026,1.385,0.039,1.55,0.039,1.716c0.013,0.178,0.025,0.292,0.052,0.47h-1.859l-0.064-0.852
				c-0.193,0.28-0.684,1.017-1.923,1.017c-0.878,0-1.602-0.394-1.963-0.864c-0.426-0.521-0.426-1.411-0.426-1.729v-3.991H284.042z"
				/>
			<path fill="#231F20" d="M290.079,39.862c0-0.025,0-0.725-0.039-1.169h1.833l0.052,0.966c0.181-0.292,0.697-1.119,2.117-1.119
				c1.277,0,1.82,0.763,1.987,1.208c0.143,0.394,0.182,0.725,0.182,1.919v3.47h-1.949v-3.991c0-0.267,0-0.496-0.104-0.699
				c-0.143-0.279-0.439-0.546-0.93-0.546c-0.413,0-0.787,0.191-0.994,0.496c-0.116,0.166-0.232,0.483-0.232,0.979v3.762h-1.923
				V39.862z"/>
			<path fill="#231F20" d="M302.247,35.959h1.924v8.135c0,0.381,0.025,0.801,0.052,1.042h-1.937l-0.052-0.928
				c-0.129,0.229-0.258,0.47-0.658,0.725c-0.478,0.305-0.981,0.33-1.266,0.33c-1.742,0-2.775-1.182-2.775-3.19
				c0-2.123,1.175-3.444,2.879-3.444c1.175,0,1.665,0.648,1.833,0.877V35.959z M300.789,44.043c0.555,0,1.007-0.331,1.213-0.724
				c0.284-0.534,0.31-1.195,0.31-1.513c0-1.258-0.555-1.945-1.42-1.945c-1.277,0-1.42,1.513-1.42,2.161
				C299.472,43.09,299.833,44.043,300.789,44.043z"/>
			<path fill="#231F20" d="M309.731,45.136c-0.065-0.394-0.065-0.687-0.065-0.877c-0.723,1.029-1.587,1.029-1.949,1.029
				c-0.942,0-1.368-0.267-1.626-0.508c-0.388-0.381-0.568-0.902-0.568-1.411c0-0.509,0.181-1.449,1.382-1.996
				c0.8-0.356,1.949-0.356,2.581-0.356c0-0.419-0.013-0.623-0.09-0.852c-0.168-0.47-0.672-0.534-0.853-0.534
				c-0.271,0-0.555,0.115-0.723,0.356c-0.142,0.216-0.142,0.419-0.142,0.572h-1.872c0.013-0.343,0.052-1.03,0.735-1.513
				c0.595-0.419,1.355-0.521,1.976-0.521c0.542,0,1.678,0.089,2.323,0.826c0.439,0.521,0.452,1.284,0.452,1.576l0.013,2.58
				c0,0.546,0.039,1.093,0.155,1.627H309.731z M307.381,43.154c0,0.432,0.297,0.915,0.929,0.915c0.349,0,0.633-0.165,0.813-0.369
				c0.336-0.407,0.361-0.902,0.361-1.588C308.259,42.01,307.381,42.391,307.381,43.154z"/>
			<path fill="#231F20" d="M316.825,45.048c-0.619,0.165-1.175,0.203-1.484,0.203c-1.924,0-1.924-1.195-1.924-1.729v-3.521h-1.252
				v-1.246h1.252v-1.258l1.898-0.686v1.944h1.549v1.246h-1.549v2.898c0.013,0.585,0.013,0.954,0.864,0.954
				c0.284,0,0.413-0.013,0.646-0.038V45.048z"/>
			<path fill="#231F20" d="M317.946,35.959h2.04v1.64h-2.04V35.959z M318.01,38.705h1.911v6.432h-1.911V38.705z"/>
			<path fill="#231F20" d="M324.669,38.565c2.362,0,3.383,1.576,3.383,3.368c0,1.805-1.059,3.432-3.421,3.432
				c-1.859,0-3.331-1.131-3.331-3.381C321.3,40.433,322.101,38.565,324.669,38.565z M324.696,44.056
				c0.839,0,1.407-0.496,1.407-2.199c0-0.852-0.168-2.034-1.434-2.034c-1.394,0-1.407,1.589-1.407,2.173
				C323.262,43.433,323.753,44.056,324.696,44.056z"/>
			<path fill="#231F20" d="M329.506,39.862c0-0.025,0-0.725-0.039-1.169h1.833l0.052,0.966c0.181-0.292,0.697-1.119,2.117-1.119
				c1.277,0,1.82,0.763,1.988,1.208c0.142,0.394,0.181,0.725,0.181,1.919v3.47h-1.949v-3.991c0-0.267,0-0.496-0.104-0.699
				c-0.143-0.279-0.439-0.546-0.93-0.546c-0.413,0-0.787,0.191-0.994,0.496c-0.116,0.166-0.232,0.483-0.232,0.979v3.762h-1.923
				V39.862z"/>
			<path fill="#231F20" d="M344.022,38.565c2.362,0,3.383,1.576,3.383,3.368c0,1.805-1.059,3.432-3.421,3.432
				c-1.859,0-3.331-1.131-3.331-3.381C340.653,40.433,341.453,38.565,344.022,38.565z M344.048,44.056
				c0.839,0,1.407-0.496,1.407-2.199c0-0.852-0.168-2.034-1.434-2.034c-1.394,0-1.407,1.589-1.407,2.173
				C342.615,43.433,343.106,44.056,344.048,44.056z"/>
			<path fill="#231F20" d="M348.961,40.052h-0.968v-1.335h0.968v-0.877c0-1.131,0.388-2.046,2.246-2.046c0.13,0,0.491,0,1.033,0.063
				v1.309c-0.193-0.025-0.245-0.038-0.4-0.038c-0.98,0-0.98,0.509-0.98,0.839v0.75h1.213v1.335h-1.213v5.084h-1.898V40.052z"/>
			<path fill="#231F20" d="M361.684,35.947l3.24,9.19h-2.014l-0.671-1.983h-3.692l-0.697,1.983h-1.91l3.369-9.19H361.684z
				 M361.736,41.666l-1.291-3.915l-1.381,3.915H361.736z"/>
			<path fill="#231F20" d="M367.682,42.2c0,0.432-0.025,1.741,1.691,1.741c1.084,0,1.769-0.508,1.769-1.284
				c0-0.813-0.581-0.953-1.769-1.233c-2.221-0.546-3.434-1.195-3.434-2.784c0-1.513,1.097-2.847,3.691-2.847
				c0.969,0,2.117,0.216,2.814,1.081c0.529,0.661,0.529,1.398,0.529,1.703h-1.924c-0.025-0.318-0.129-1.398-1.51-1.398
				c-0.93,0-1.536,0.496-1.536,1.246c0,0.852,0.684,1.004,2.026,1.334c1.613,0.381,3.201,0.813,3.201,2.605
				c0,1.652-1.394,2.987-3.976,2.987c-3.576,0-3.602-2.263-3.614-3.152H367.682z"/>
			<path fill="#231F20" d="M379.941,38.947c-0.039-0.318-0.155-1.614-1.51-1.614c-1.485,0-2.104,1.525-2.104,3.419
				c0,0.547,0,3.152,1.949,3.152c0.839,0,1.64-0.521,1.678-1.741h2.104c-0.039,0.546-0.091,1.398-0.839,2.161
				c-0.826,0.839-1.872,1.03-2.724,1.03c-3.215,0-4.261-2.339-4.261-4.614c0-2.911,1.652-4.843,4.273-4.843
				c2.039,0,3.473,1.22,3.473,3.051H379.941z"/>
			<path fill="#231F20" d="M384.738,35.985l2.439,7.207l2.452-7.207h1.976l-3.434,9.151h-2.182l-3.434-9.151H384.738z"/>
			<path fill="#231F20" d="M392.555,35.972l3.086,0.013c0.516,0,2.091,0.013,3.214,0.826c1.175,0.852,1.588,2.3,1.588,3.609
				c0,2.822-1.536,4.296-3.305,4.614c-0.349,0.063-0.736,0.102-1.679,0.102h-2.904V35.972z M394.582,43.624
				c0.219,0.013,0.555,0.025,0.787,0.025c0.852,0,1.588-0.063,2.169-0.635c0.787-0.775,0.839-2.148,0.839-2.593
				c0-1.296-0.452-2.491-1.704-2.834c-0.413-0.114-0.942-0.178-2.091-0.127V43.624z"/>
			<path fill="#231F20" d="M407.251,38.718l0.052,0.915c0.594-1.029,1.678-1.042,1.987-1.042c1.691,0,2.711,1.246,2.711,3.203
				c0,1.817-0.955,3.432-2.84,3.432c-1.175,0-1.652-0.61-1.82-0.826v3.203h-1.949v-8.885H407.251z M410.065,41.87
				c0-0.763-0.193-2.072-1.316-2.072c-0.619,0-1.497,0.458-1.497,2.186c0,0.381,0.013,2.008,1.42,2.008
				C409.574,43.992,410.065,43.141,410.065,41.87z"/>
			<path fill="#231F20" d="M413.339,40.294c0-0.305-0.052-1.233-0.09-1.602h1.794l0.039,1.233c0.245-0.546,0.671-1.322,2.22-1.246
				v1.69c-1.936-0.178-2.052,0.801-2.052,1.602v3.165h-1.911V40.294z"/>
			<path fill="#231F20" d="M419.894,42.404c0,0.419,0,1.716,1.33,1.716c0.478,0,0.955-0.178,1.136-0.89h1.743
				c-0.026,0.305-0.091,0.852-0.62,1.398c-0.478,0.496-1.329,0.75-2.285,0.75c-0.555,0-1.613-0.102-2.298-0.801
				c-0.594-0.61-0.839-1.475-0.839-2.504c0-1.042,0.259-2.288,1.355-3.038c0.504-0.331,1.123-0.534,1.833-0.534
				c0.93,0,2.04,0.356,2.634,1.551c0.438,0.877,0.413,1.817,0.387,2.351H419.894z M422.321,41.221c0-0.292-0.025-1.436-1.136-1.436
				c-0.839,0-1.188,0.687-1.227,1.436H422.321z"/>
			<path fill="#231F20" d="M426.822,38.718l1.472,4.36l1.497-4.36h1.847l-2.35,6.419h-2.117l-2.388-6.419H426.822z"/>
			<path fill="#231F20" d="M434.24,42.404c0,0.419,0,1.716,1.33,1.716c0.478,0,0.955-0.178,1.136-0.89h1.743
				c-0.026,0.305-0.091,0.852-0.62,1.398c-0.478,0.496-1.329,0.75-2.285,0.75c-0.555,0-1.613-0.102-2.298-0.801
				c-0.594-0.61-0.839-1.475-0.839-2.504c0-1.042,0.259-2.288,1.355-3.038c0.504-0.331,1.123-0.534,1.833-0.534
				c0.93,0,2.04,0.356,2.634,1.551c0.438,0.877,0.413,1.817,0.387,2.351H434.24z M436.666,41.221c0-0.292-0.025-1.436-1.136-1.436
				c-0.839,0-1.188,0.687-1.227,1.436H436.666z"/>
			<path fill="#231F20" d="M439.904,39.862c0-0.025,0-0.725-0.039-1.169h1.833l0.052,0.966c0.181-0.292,0.697-1.119,2.117-1.119
				c1.277,0,1.82,0.763,1.987,1.208c0.143,0.394,0.182,0.725,0.182,1.919v3.47h-1.949v-3.991c0-0.267,0-0.496-0.104-0.699
				c-0.143-0.279-0.439-0.546-0.93-0.546c-0.413,0-0.787,0.191-0.994,0.496c-0.116,0.166-0.232,0.483-0.232,0.979v3.762h-1.923
				V39.862z"/>
			<path fill="#231F20" d="M451.594,45.048c-0.619,0.165-1.175,0.203-1.484,0.203c-1.924,0-1.924-1.195-1.924-1.729v-3.521h-1.252
				v-1.246h1.252v-1.258l1.898-0.686v1.944h1.549v1.246h-1.549v2.898c0.013,0.585,0.013,0.954,0.864,0.954
				c0.284,0,0.413-0.013,0.646-0.038V45.048z"/>
			<path fill="#231F20" d="M452.714,35.959h2.04v1.64h-2.04V35.959z M452.779,38.705h1.911v6.432h-1.911V38.705z"/>
			<path fill="#231F20" d="M459.438,38.565c2.362,0,3.383,1.576,3.383,3.368c0,1.805-1.059,3.432-3.421,3.432
				c-1.859,0-3.331-1.131-3.331-3.381C456.069,40.433,456.869,38.565,459.438,38.565z M459.464,44.056
				c0.839,0,1.407-0.496,1.407-2.199c0-0.852-0.168-2.034-1.434-2.034c-1.394,0-1.407,1.589-1.407,2.173
				C458.031,43.433,458.522,44.056,459.464,44.056z"/>
			<path fill="#231F20" d="M464.275,39.862c0-0.025,0-0.725-0.039-1.169h1.833l0.052,0.966c0.181-0.292,0.697-1.119,2.117-1.119
				c1.277,0,1.82,0.763,1.987,1.208c0.143,0.394,0.182,0.725,0.182,1.919v3.47h-1.949v-3.991c0-0.267,0-0.496-0.104-0.699
				c-0.143-0.279-0.439-0.546-0.93-0.546c-0.413,0-0.787,0.191-0.994,0.496c-0.116,0.166-0.232,0.483-0.232,0.979v3.762h-1.923
				V39.862z"/>
			<path fill="#231F20" d="M472.246,43.446h1.64v1.69h-1.64V43.446z"/>
			<path fill="#231F20" d="M32.94,49.69h2.001v9.215H32.94V49.69z"/>
			<path fill="#231F20" d="M36.617,53.63c0-0.025,0-0.725-0.039-1.169h1.833l0.052,0.966c0.181-0.292,0.697-1.119,2.117-1.119
				c1.277,0,1.82,0.763,1.988,1.208c0.142,0.394,0.181,0.725,0.181,1.919v3.47H40.8v-3.991c0-0.267,0-0.496-0.104-0.699
				c-0.143-0.279-0.439-0.546-0.93-0.546c-0.413,0-0.787,0.191-0.994,0.496c-0.116,0.166-0.232,0.483-0.232,0.979v3.762h-1.923
				V53.63z"/>
			<path fill="#231F20" d="M47.995,49.728h2.04v1.64h-2.04V49.728z M48.06,52.473h1.911v6.432H48.06V52.473z"/>
			<path fill="#231F20" d="M51.673,53.63c0-0.025,0-0.725-0.039-1.169h1.833l0.052,0.966c0.181-0.292,0.697-1.119,2.117-1.119
				c1.277,0,1.82,0.763,1.987,1.208c0.143,0.394,0.182,0.725,0.182,1.919v3.47h-1.949v-3.991c0-0.267,0-0.496-0.104-0.699
				c-0.143-0.279-0.439-0.546-0.93-0.546c-0.413,0-0.787,0.191-0.994,0.496c-0.116,0.166-0.232,0.483-0.232,0.979v3.762h-1.923
				V53.63z"/>
			<path fill="#231F20" d="M63.841,49.728h1.924v8.135c0,0.381,0.025,0.801,0.052,1.042H63.88l-0.052-0.928
				c-0.129,0.229-0.258,0.47-0.658,0.725c-0.478,0.305-0.981,0.33-1.266,0.33c-1.742,0-2.775-1.182-2.775-3.19
				c0-2.123,1.175-3.444,2.879-3.444c1.175,0,1.665,0.648,1.833,0.877V49.728z M62.383,57.812c0.555,0,1.007-0.331,1.213-0.724
				c0.284-0.534,0.31-1.195,0.31-1.513c0-1.258-0.555-1.945-1.42-1.945c-1.277,0-1.42,1.513-1.42,2.161
				C61.066,56.859,61.427,57.812,62.383,57.812z"/>
			<path fill="#231F20" d="M67.348,49.728h2.04v1.64h-2.04V49.728z M67.412,52.473h1.911v6.432h-1.911V52.473z"/>
			<path fill="#231F20" d="M72.29,52.486l1.472,4.36l1.497-4.36h1.847l-2.35,6.419h-2.117l-2.388-6.419H72.29z"/>
			<path fill="#231F20" d="M78.108,49.728h2.04v1.64h-2.04V49.728z M78.172,52.473h1.911v6.432h-1.911V52.473z"/>
			<path fill="#231F20" d="M86.071,49.728h1.924v8.135c0,0.381,0.025,0.801,0.052,1.042H86.11l-0.052-0.928
				c-0.129,0.229-0.258,0.47-0.658,0.725c-0.478,0.305-0.981,0.33-1.266,0.33c-1.742,0-2.775-1.182-2.775-3.19
				c0-2.123,1.175-3.444,2.879-3.444c1.175,0,1.665,0.648,1.833,0.877V49.728z M84.613,57.812c0.555,0,1.007-0.331,1.213-0.724
				c0.284-0.534,0.31-1.195,0.31-1.513c0-1.258-0.555-1.945-1.42-1.945c-1.277,0-1.42,1.513-1.42,2.161
				C83.295,56.859,83.657,57.812,84.613,57.812z"/>
			<path fill="#231F20" d="M91.514,52.486v3.826c0,0.559,0,1.411,1.02,1.411c1.227,0,1.227-0.902,1.227-1.996v-3.241h1.962v4.233
				c0.026,1.385,0.039,1.55,0.039,1.716c0.013,0.178,0.025,0.292,0.052,0.47h-1.859l-0.064-0.852
				c-0.193,0.28-0.684,1.017-1.923,1.017c-0.878,0-1.602-0.394-1.963-0.864c-0.426-0.521-0.426-1.411-0.426-1.729v-3.991H91.514z"/>
			<path fill="#231F20" d="M101.436,58.905c-0.064-0.394-0.064-0.687-0.064-0.877c-0.723,1.029-1.588,1.029-1.949,1.029
				c-0.942,0-1.368-0.267-1.626-0.508c-0.388-0.381-0.568-0.902-0.568-1.411c0-0.509,0.181-1.449,1.382-1.996
				c0.8-0.356,1.949-0.356,2.581-0.356c0-0.419-0.013-0.623-0.09-0.852c-0.168-0.47-0.672-0.534-0.853-0.534
				c-0.271,0-0.555,0.115-0.723,0.356c-0.142,0.216-0.142,0.419-0.142,0.572h-1.872c0.013-0.343,0.052-1.03,0.735-1.513
				c0.595-0.419,1.355-0.521,1.976-0.521c0.542,0,1.678,0.089,2.323,0.826c0.439,0.521,0.452,1.284,0.452,1.576l0.013,2.58
				c0,0.546,0.039,1.093,0.155,1.627H101.436z M99.087,56.922c0,0.432,0.297,0.915,0.929,0.915c0.349,0,0.633-0.165,0.813-0.369
				c0.336-0.407,0.361-0.902,0.361-1.588C99.965,55.778,99.087,56.159,99.087,56.922z"/>
			<path fill="#231F20" d="M104.698,49.715h1.911v9.19h-1.911V49.715z"/>
			<path fill="#231F20" d="M109.615,57.049c0.025,0.407,0.284,0.877,1.084,0.877c0.685,0,1.007-0.381,1.007-0.763
				c0-0.292-0.154-0.521-0.903-0.725l-1.188-0.318c-0.529-0.152-1.652-0.47-1.652-1.779c0-1.246,1.161-2.008,2.853-2.008
				c1.343,0,2.427,0.61,2.479,1.894h-1.742c-0.052-0.711-0.633-0.762-0.93-0.762c-0.517,0-0.904,0.241-0.904,0.635
				c0,0.432,0.323,0.521,0.892,0.674l1.175,0.318c1.188,0.317,1.742,0.915,1.742,1.792c0,1.106-0.968,2.211-2.995,2.211
				c-0.839,0-1.64-0.178-2.233-0.788c-0.426-0.445-0.464-0.954-0.478-1.259H109.615z"/>
			<path fill="#231F20" d="M118.348,53.63c0-0.025,0-0.725-0.039-1.169h1.833l0.052,0.966c0.181-0.292,0.697-1.119,2.117-1.119
				c1.277,0,1.82,0.763,1.988,1.208c0.142,0.394,0.181,0.725,0.181,1.919v3.47h-1.949v-3.991c0-0.267,0-0.496-0.104-0.699
				c-0.143-0.279-0.439-0.546-0.93-0.546c-0.413,0-0.787,0.191-0.994,0.496c-0.116,0.166-0.232,0.483-0.232,0.979v3.762h-1.923
				V53.63z"/>
			<path fill="#231F20" d="M129.277,52.334c2.362,0,3.383,1.576,3.383,3.368c0,1.805-1.059,3.432-3.421,3.432
				c-1.859,0-3.331-1.131-3.331-3.381C125.907,54.202,126.708,52.334,129.277,52.334z M129.303,57.824
				c0.839,0,1.407-0.496,1.407-2.199c0-0.852-0.168-2.034-1.434-2.034c-1.394,0-1.407,1.589-1.407,2.173
				C127.869,57.202,128.361,57.824,129.303,57.824z"/>
			<path fill="#231F20" d="M137.921,58.816c-0.619,0.165-1.175,0.203-1.484,0.203c-1.924,0-1.924-1.195-1.924-1.729V53.77h-1.252
				v-1.246h1.252v-1.258l1.898-0.686v1.944h1.549v1.246h-1.549v2.898c0.013,0.585,0.013,0.954,0.864,0.954
				c0.284,0,0.413-0.013,0.646-0.038V58.816z"/>
			<path fill="#231F20" d="M142.693,54.062c0-0.305-0.052-1.233-0.09-1.602h1.794l0.039,1.233c0.245-0.546,0.671-1.322,2.22-1.246
				v1.69c-1.936-0.178-2.052,0.801-2.052,1.602v3.165h-1.911V54.062z"/>
			<path fill="#231F20" d="M149.247,56.172c0,0.419,0,1.716,1.33,1.716c0.478,0,0.955-0.178,1.136-0.89h1.743
				c-0.026,0.305-0.091,0.852-0.62,1.398c-0.478,0.496-1.329,0.75-2.285,0.75c-0.555,0-1.613-0.102-2.298-0.801
				c-0.594-0.61-0.839-1.475-0.839-2.504c0-1.042,0.259-2.288,1.355-3.038c0.504-0.331,1.123-0.534,1.833-0.534
				c0.93,0,2.04,0.356,2.634,1.551c0.438,0.877,0.413,1.817,0.387,2.351H149.247z M151.674,54.99c0-0.292-0.025-1.436-1.136-1.436
				c-0.839,0-1.188,0.687-1.227,1.436H151.674z"/>
			<path fill="#231F20" d="M158.331,54.761c-0.026-0.229-0.104-1.182-0.84-1.182c-0.903,0-1.007,1.347-1.007,2.046
				c0,0.356,0.039,1.5,0.478,1.97c0.181,0.19,0.375,0.216,0.517,0.216c0.207,0,0.801-0.089,0.878-1.233h1.885
				c-0.025,0.496-0.091,1.271-0.839,1.894c-0.465,0.394-1.046,0.597-1.859,0.597c-0.864,0-1.626-0.19-2.22-0.852
				c-0.568-0.648-0.826-1.5-0.826-2.529c0-2.923,2.182-3.33,3.046-3.33c1.214,0,2.646,0.661,2.659,2.402H158.331z"/>
			<path fill="#231F20" d="M162.871,56.172c0,0.419,0,1.716,1.33,1.716c0.478,0,0.955-0.178,1.136-0.89h1.743
				c-0.026,0.305-0.091,0.852-0.62,1.398c-0.478,0.496-1.329,0.75-2.285,0.75c-0.555,0-1.613-0.102-2.298-0.801
				c-0.594-0.61-0.839-1.475-0.839-2.504c0-1.042,0.259-2.288,1.355-3.038c0.504-0.331,1.123-0.534,1.833-0.534
				c0.93,0,2.04,0.356,2.634,1.551c0.438,0.877,0.413,1.817,0.387,2.351H162.871z M165.298,54.99c0-0.292-0.025-1.436-1.136-1.436
				c-0.839,0-1.188,0.687-1.227,1.436H165.298z"/>
			<path fill="#231F20" d="M168.444,49.728h2.04v1.64h-2.04V49.728z M168.508,52.473h1.911v6.432h-1.911V52.473z"/>
			<path fill="#231F20" d="M173.386,52.486l1.472,4.36l1.497-4.36h1.847l-2.35,6.419h-2.117l-2.388-6.419H173.386z"/>
			<path fill="#231F20" d="M179.203,49.728h2.04v1.64h-2.04V49.728z M179.268,52.473h1.911v6.432h-1.911V52.473z"/>
			<path fill="#231F20" d="M182.881,53.63c0-0.025,0-0.725-0.039-1.169h1.833l0.052,0.966c0.181-0.292,0.697-1.119,2.117-1.119
				c1.277,0,1.82,0.763,1.988,1.208c0.142,0.394,0.181,0.725,0.181,1.919v3.47h-1.949v-3.991c0-0.267,0-0.496-0.104-0.699
				c-0.143-0.279-0.439-0.546-0.93-0.546c-0.413,0-0.787,0.191-0.994,0.496c-0.116,0.166-0.232,0.483-0.232,0.979v3.762h-1.923
				V53.63z"/>
			<path fill="#231F20" d="M196.921,52.511c-0.052,0.509-0.091,0.941-0.091,1.589v4.741c0,2.364-2,2.593-3.253,2.593
				c-0.929,0-2.749-0.114-2.865-2.059h1.833c0.025,0.191,0.116,0.89,1.136,0.89c0.568,0,1.059-0.267,1.188-0.839
				c0.078-0.318,0.078-0.546,0.091-1.525c-0.607,0.788-1.291,0.877-1.756,0.877c-1.872,0-2.75-1.602-2.75-3.152
				c0-1.627,0.917-3.178,2.789-3.178c1.188,0,1.626,0.636,1.82,0.915l0.064-0.852H196.921z M193.642,57.494
				c1.343,0,1.343-1.551,1.343-1.831c0-0.725-0.142-1.958-1.304-1.958c-0.723,0-1.316,0.547-1.316,1.919
				C192.365,55.944,192.365,57.494,193.642,57.494z"/>
			<path fill="#231F20" d="M205.655,54.761c-0.026-0.229-0.104-1.182-0.84-1.182c-0.903,0-1.007,1.347-1.007,2.046
				c0,0.356,0.039,1.5,0.478,1.97c0.182,0.19,0.375,0.216,0.517,0.216c0.207,0,0.801-0.089,0.878-1.233h1.885
				c-0.025,0.496-0.091,1.271-0.839,1.894c-0.465,0.394-1.046,0.597-1.859,0.597c-0.864,0-1.626-0.19-2.22-0.852
				c-0.568-0.648-0.826-1.5-0.826-2.529c0-2.923,2.182-3.33,3.046-3.33c1.214,0,2.646,0.661,2.659,2.402H205.655z"/>
			<path fill="#231F20" d="M208.709,49.728h1.897v3.635c0.22-0.305,0.697-0.966,1.885-0.966c0.969,0,1.588,0.47,1.897,0.864
				c0.232,0.318,0.427,0.902,0.427,1.741v3.902h-1.898v-3.838c0-0.369,0-1.398-1.071-1.398c-0.542,0-1.227,0.305-1.227,1.309
				l0.014,3.928h-1.924V49.728z"/>
			<path fill="#231F20" d="M219.613,52.334c2.362,0,3.383,1.576,3.383,3.368c0,1.805-1.059,3.432-3.421,3.432
				c-1.859,0-3.331-1.131-3.331-3.381C216.243,54.202,217.044,52.334,219.613,52.334z M219.639,57.824
				c0.839,0,1.407-0.496,1.407-2.199c0-0.852-0.168-2.034-1.434-2.034c-1.394,0-1.407,1.589-1.407,2.173
				C218.205,57.202,218.697,57.824,219.639,57.824z"/>
			<path fill="#231F20" d="M224.423,49.715h1.911v9.19h-1.911V49.715z"/>
			<path fill="#231F20" d="M229.546,56.172c0,0.419,0,1.716,1.33,1.716c0.478,0,0.955-0.178,1.136-0.89h1.743
				c-0.026,0.305-0.091,0.852-0.62,1.398c-0.478,0.496-1.329,0.75-2.285,0.75c-0.555,0-1.613-0.102-2.298-0.801
				c-0.594-0.61-0.839-1.475-0.839-2.504c0-1.042,0.259-2.288,1.355-3.038c0.504-0.331,1.123-0.534,1.833-0.534
				c0.93,0,2.04,0.356,2.634,1.551c0.438,0.877,0.413,1.817,0.387,2.351H229.546z M231.973,54.99c0-0.292-0.025-1.436-1.136-1.436
				c-0.839,0-1.188,0.687-1.227,1.436H231.973z"/>
			<path fill="#231F20" d="M236.513,57.049c0.025,0.407,0.284,0.877,1.084,0.877c0.685,0,1.007-0.381,1.007-0.763
				c0-0.292-0.154-0.521-0.903-0.725l-1.188-0.318c-0.529-0.152-1.652-0.47-1.652-1.779c0-1.246,1.161-2.008,2.853-2.008
				c1.343,0,2.427,0.61,2.479,1.894h-1.742c-0.052-0.711-0.633-0.762-0.93-0.762c-0.517,0-0.904,0.241-0.904,0.635
				c0,0.432,0.323,0.521,0.892,0.674l1.175,0.318c1.188,0.317,1.742,0.915,1.742,1.792c0,1.106-0.968,2.211-2.995,2.211
				c-0.839,0-1.64-0.178-2.233-0.788c-0.426-0.445-0.464-0.954-0.478-1.259H236.513z"/>
			<path fill="#231F20" d="M245.468,58.816c-0.619,0.165-1.175,0.203-1.484,0.203c-1.924,0-1.924-1.195-1.924-1.729V53.77h-1.252
				v-1.246h1.252v-1.258l1.898-0.686v1.944h1.549v1.246h-1.549v2.898c0.013,0.585,0.013,0.954,0.864,0.954
				c0.284,0,0.413-0.013,0.646-0.038V58.816z"/>
			<path fill="#231F20" d="M248.189,56.172c0,0.419,0,1.716,1.33,1.716c0.478,0,0.955-0.178,1.136-0.89h1.743
				c-0.026,0.305-0.091,0.852-0.62,1.398c-0.478,0.496-1.329,0.75-2.285,0.75c-0.555,0-1.613-0.102-2.298-0.801
				c-0.594-0.61-0.839-1.475-0.839-2.504c0-1.042,0.259-2.288,1.355-3.038c0.504-0.331,1.123-0.534,1.833-0.534
				c0.93,0,2.04,0.356,2.634,1.551c0.438,0.877,0.413,1.817,0.387,2.351H248.189z M250.615,54.99c0-0.292-0.025-1.436-1.136-1.436
				c-0.839,0-1.188,0.687-1.227,1.436H250.615z"/>
			<path fill="#231F20" d="M253.825,54.062c0-0.305-0.052-1.233-0.09-1.602h1.794l0.039,1.233c0.245-0.546,0.671-1.322,2.22-1.246
				v1.69c-1.936-0.178-2.052,0.801-2.052,1.602v3.165h-1.911V54.062z"/>
			<path fill="#231F20" d="M261.917,52.334c2.362,0,3.383,1.576,3.383,3.368c0,1.805-1.059,3.432-3.421,3.432
				c-1.859,0-3.331-1.131-3.331-3.381C258.548,54.202,259.349,52.334,261.917,52.334z M261.944,57.824
				c0.839,0,1.407-0.496,1.407-2.199c0-0.852-0.168-2.034-1.434-2.034c-1.394,0-1.407,1.589-1.407,2.173
				C260.51,57.202,261.001,57.824,261.944,57.824z"/>
			<path fill="#231F20" d="M266.728,49.715h1.911v9.19h-1.911V49.715z"/>
			<path fill="#231F20" d="M270.043,54.825h3.201v1.437h-3.201V54.825z"/>
			<path fill="#231F20" d="M274.61,49.715h1.911v9.19h-1.911V49.715z"/>
			<path fill="#231F20" d="M281.269,52.334c2.362,0,3.383,1.576,3.383,3.368c0,1.805-1.059,3.432-3.421,3.432
				c-1.859,0-3.331-1.131-3.331-3.381C277.9,54.202,278.7,52.334,281.269,52.334z M281.295,57.824c0.839,0,1.407-0.496,1.407-2.199
				c0-0.852-0.168-2.034-1.434-2.034c-1.394,0-1.407,1.589-1.407,2.173C279.862,57.202,280.353,57.824,281.295,57.824z"/>
			<path fill="#231F20" d="M287.331,52.486l1.201,4.843l1.381-4.843h2.104l1.368,4.843l1.278-4.843h1.897l-2.233,6.419h-2.078
				l-1.343-4.754l-1.368,4.754h-2.104l-2.13-6.419H287.331z"/>
			<path fill="#231F20" d="M299.085,56.172c0,0.419,0,1.716,1.33,1.716c0.478,0,0.955-0.178,1.136-0.89h1.743
				c-0.026,0.305-0.091,0.852-0.62,1.398c-0.478,0.496-1.329,0.75-2.285,0.75c-0.555,0-1.613-0.102-2.298-0.801
				c-0.594-0.61-0.839-1.475-0.839-2.504c0-1.042,0.259-2.288,1.355-3.038c0.504-0.331,1.123-0.534,1.833-0.534
				c0.93,0,2.04,0.356,2.634,1.551c0.438,0.877,0.413,1.817,0.387,2.351H299.085z M301.512,54.99c0-0.292-0.025-1.436-1.136-1.436
				c-0.839,0-1.188,0.687-1.227,1.436H301.512z"/>
			<path fill="#231F20" d="M304.722,54.062c0-0.305-0.052-1.233-0.09-1.602h1.794l0.039,1.233c0.245-0.546,0.671-1.322,2.22-1.246
				v1.69c-1.936-0.178-2.052,0.801-2.052,1.602v3.165h-1.911V54.062z"/>
			<path fill="#231F20" d="M309.676,49.728h2.04v1.64h-2.04V49.728z M309.74,52.473h1.911v6.432h-1.911V52.473z"/>
			<path fill="#231F20" d="M313.354,53.63c0-0.025,0-0.725-0.039-1.169h1.833l0.052,0.966c0.181-0.292,0.697-1.119,2.117-1.119
				c1.277,0,1.82,0.763,1.988,1.208c0.142,0.394,0.181,0.725,0.181,1.919v3.47h-1.949v-3.991c0-0.267,0-0.496-0.104-0.699
				c-0.143-0.279-0.439-0.546-0.93-0.546c-0.413,0-0.787,0.191-0.994,0.496c-0.116,0.166-0.232,0.483-0.232,0.979v3.762h-1.923
				V53.63z"/>
			<path fill="#231F20" d="M327.394,52.511c-0.052,0.509-0.091,0.941-0.091,1.589v4.741c0,2.364-2,2.593-3.253,2.593
				c-0.929,0-2.749-0.114-2.865-2.059h1.833c0.025,0.191,0.116,0.89,1.136,0.89c0.568,0,1.059-0.267,1.188-0.839
				c0.078-0.318,0.078-0.546,0.091-1.525c-0.607,0.788-1.291,0.877-1.756,0.877c-1.872,0-2.75-1.602-2.75-3.152
				c0-1.627,0.917-3.178,2.789-3.178c1.188,0,1.626,0.636,1.82,0.915l0.064-0.852H327.394z M324.115,57.494
				c1.343,0,1.343-1.551,1.343-1.831c0-0.725-0.142-1.958-1.304-1.958c-0.723,0-1.316,0.547-1.316,1.919
				C322.837,55.944,322.837,57.494,324.115,57.494z"/>
			<path fill="#231F20" d="M336.991,49.728h1.924v8.135c0,0.381,0.025,0.801,0.052,1.042h-1.937l-0.052-0.928
				c-0.129,0.229-0.258,0.47-0.658,0.725c-0.478,0.305-0.981,0.33-1.266,0.33c-1.742,0-2.775-1.182-2.775-3.19
				c0-2.123,1.175-3.444,2.879-3.444c1.175,0,1.665,0.648,1.833,0.877V49.728z M335.533,57.812c0.555,0,1.007-0.331,1.213-0.724
				c0.284-0.534,0.31-1.195,0.31-1.513c0-1.258-0.555-1.945-1.42-1.945c-1.277,0-1.42,1.513-1.42,2.161
				C334.216,56.859,334.577,57.812,335.533,57.812z"/>
			<path fill="#231F20" d="M340.563,54.062c0-0.305-0.052-1.233-0.09-1.602h1.794l0.039,1.233c0.245-0.546,0.671-1.322,2.22-1.246
				v1.69c-1.936-0.178-2.052,0.801-2.052,1.602v3.165h-1.911V54.062z"/>
			<path fill="#231F20" d="M347.453,52.486v3.826c0,0.559,0,1.411,1.02,1.411c1.227,0,1.227-0.902,1.227-1.996v-3.241h1.962v4.233
				c0.026,1.385,0.039,1.55,0.039,1.716c0.013,0.178,0.025,0.292,0.052,0.47h-1.859l-0.064-0.852
				c-0.193,0.28-0.684,1.017-1.923,1.017c-0.878,0-1.602-0.394-1.963-0.864c-0.426-0.521-0.426-1.411-0.426-1.729v-3.991H347.453z"
				/>
			<path fill="#231F20" d="M359.648,52.511c-0.052,0.509-0.091,0.941-0.091,1.589v4.741c0,2.364-2,2.593-3.253,2.593
				c-0.929,0-2.749-0.114-2.865-2.059h1.833c0.025,0.191,0.116,0.89,1.136,0.89c0.568,0,1.059-0.267,1.188-0.839
				c0.078-0.318,0.078-0.546,0.091-1.525c-0.607,0.788-1.291,0.877-1.756,0.877c-1.872,0-2.75-1.602-2.75-3.152
				c0-1.627,0.917-3.178,2.789-3.178c1.188,0,1.626,0.636,1.82,0.915l0.064-0.852H359.648z M356.368,57.494
				c1.343,0,1.343-1.551,1.343-1.831c0-0.725-0.142-1.958-1.304-1.958c-0.723,0-1.316,0.547-1.316,1.919
				C355.091,55.944,355.091,57.494,356.368,57.494z"/>
			<path fill="#231F20" d="M368.767,58.816c-0.619,0.165-1.175,0.203-1.484,0.203c-1.924,0-1.924-1.195-1.924-1.729V53.77h-1.252
				v-1.246h1.252v-1.258l1.898-0.686v1.944h1.549v1.246h-1.549v2.898c0.013,0.585,0.013,0.954,0.864,0.954
				c0.284,0,0.413-0.013,0.646-0.038V58.816z"/>
			<path fill="#231F20" d="M370.003,49.728h1.897v3.635c0.22-0.305,0.697-0.966,1.885-0.966c0.969,0,1.588,0.47,1.897,0.864
				c0.232,0.318,0.427,0.902,0.427,1.741v3.902h-1.898v-3.838c0-0.369,0-1.398-1.071-1.398c-0.542,0-1.227,0.305-1.227,1.309
				l0.014,3.928h-1.924V49.728z"/>
			<path fill="#231F20" d="M379.37,56.172c0,0.419,0,1.716,1.33,1.716c0.478,0,0.955-0.178,1.136-0.89h1.743
				c-0.026,0.305-0.091,0.852-0.62,1.398c-0.478,0.496-1.329,0.75-2.285,0.75c-0.555,0-1.613-0.102-2.298-0.801
				c-0.594-0.61-0.839-1.475-0.839-2.504c0-1.042,0.259-2.288,1.355-3.038c0.504-0.331,1.123-0.534,1.833-0.534
				c0.93,0,2.04,0.356,2.634,1.551c0.438,0.877,0.413,1.817,0.387,2.351H379.37z M381.797,54.99c0-0.292-0.025-1.436-1.136-1.436
				c-0.839,0-1.188,0.687-1.227,1.436H381.797z"/>
			<path fill="#231F20" d="M385.008,54.062c0-0.305-0.052-1.233-0.09-1.602h1.794l0.039,1.233c0.245-0.546,0.671-1.322,2.22-1.246
				v1.69c-1.936-0.178-2.052,0.801-2.052,1.602v3.165h-1.911V54.062z"/>
			<path fill="#231F20" d="M393.938,58.905c-0.064-0.394-0.064-0.687-0.064-0.877c-0.723,1.029-1.588,1.029-1.949,1.029
				c-0.942,0-1.368-0.267-1.626-0.508c-0.388-0.381-0.568-0.902-0.568-1.411c0-0.509,0.181-1.449,1.382-1.996
				c0.8-0.356,1.949-0.356,2.581-0.356c0-0.419-0.013-0.623-0.09-0.852c-0.168-0.47-0.672-0.534-0.853-0.534
				c-0.271,0-0.555,0.115-0.723,0.356c-0.142,0.216-0.142,0.419-0.142,0.572h-1.872c0.013-0.343,0.052-1.03,0.735-1.513
				c0.595-0.419,1.355-0.521,1.976-0.521c0.542,0,1.678,0.089,2.323,0.826c0.439,0.521,0.452,1.284,0.452,1.576l0.013,2.58
				c0,0.546,0.039,1.093,0.155,1.627H393.938z M391.589,56.922c0,0.432,0.297,0.915,0.929,0.915c0.349,0,0.633-0.165,0.813-0.369
				c0.336-0.407,0.361-0.902,0.361-1.588C392.467,55.778,391.589,56.159,391.589,56.922z"/>
			<path fill="#231F20" d="M398.994,52.486l0.051,0.915c0.595-1.029,1.679-1.042,1.988-1.042c1.691,0,2.711,1.246,2.711,3.203
				c0,1.817-0.955,3.432-2.84,3.432c-1.175,0-1.652-0.61-1.82-0.826v3.203h-1.949v-8.885H398.994z M401.808,55.638
				c0-0.763-0.193-2.072-1.316-2.072c-0.62,0-1.497,0.458-1.497,2.186c0,0.381,0.013,2.008,1.42,2.008
				C401.318,57.761,401.808,56.909,401.808,55.638z"/>
			<path fill="#231F20" d="M406.49,52.486l1.433,4.449l1.459-4.449h1.897l-2.466,6.305l-0.787,2.555h-1.924l0.826-2.415
				l-2.504-6.444H406.49z"/>
			<path fill="#231F20" d="M414.644,57.215l-1.536,3.127h-1.33l0.955-3.127H414.644z"/>
			<path fill="#231F20" d="M419.429,54.062c0-0.305-0.052-1.233-0.09-1.602h1.794l0.039,1.233c0.245-0.546,0.671-1.322,2.22-1.246
				v1.69c-1.936-0.178-2.052,0.801-2.052,1.602v3.165h-1.911V54.062z"/>
			<path fill="#231F20" d="M425.984,56.172c0,0.419,0,1.716,1.33,1.716c0.478,0,0.955-0.178,1.136-0.89h1.743
				c-0.026,0.305-0.091,0.852-0.62,1.398c-0.478,0.496-1.329,0.75-2.285,0.75c-0.555,0-1.613-0.102-2.298-0.801
				c-0.594-0.61-0.839-1.475-0.839-2.504c0-1.042,0.259-2.288,1.355-3.038c0.504-0.331,1.123-0.534,1.833-0.534
				c0.93,0,2.04,0.356,2.634,1.551c0.438,0.877,0.413,1.817,0.387,2.351H425.984z M428.41,54.99c0-0.292-0.025-1.436-1.136-1.436
				c-0.839,0-1.188,0.687-1.227,1.436H428.41z"/>
			<path fill="#231F20" d="M435.068,54.761c-0.026-0.229-0.104-1.182-0.84-1.182c-0.903,0-1.007,1.347-1.007,2.046
				c0,0.356,0.039,1.5,0.478,1.97c0.181,0.19,0.375,0.216,0.517,0.216c0.207,0,0.801-0.089,0.878-1.233h1.885
				c-0.025,0.496-0.091,1.271-0.839,1.894c-0.465,0.394-1.046,0.597-1.859,0.597c-0.864,0-1.626-0.19-2.22-0.852
				c-0.568-0.648-0.826-1.5-0.826-2.529c0-2.923,2.182-3.33,3.046-3.33c1.214,0,2.646,0.661,2.659,2.402H435.068z"/>
			<path fill="#231F20" d="M441.983,58.905c-0.064-0.394-0.064-0.687-0.064-0.877c-0.723,1.029-1.588,1.029-1.949,1.029
				c-0.942,0-1.368-0.267-1.626-0.508c-0.388-0.381-0.568-0.902-0.568-1.411c0-0.509,0.181-1.449,1.382-1.996
				c0.8-0.356,1.949-0.356,2.581-0.356c0-0.419-0.013-0.623-0.09-0.852c-0.168-0.47-0.672-0.534-0.853-0.534
				c-0.271,0-0.555,0.115-0.723,0.356c-0.142,0.216-0.142,0.419-0.142,0.572h-1.872c0.013-0.343,0.052-1.03,0.735-1.513
				c0.595-0.419,1.355-0.521,1.976-0.521c0.542,0,1.678,0.089,2.323,0.826c0.439,0.521,0.452,1.284,0.452,1.576l0.013,2.58
				c0,0.546,0.039,1.093,0.155,1.627H441.983z M439.634,56.922c0,0.432,0.297,0.915,0.929,0.915c0.349,0,0.633-0.165,0.813-0.369
				c0.336-0.407,0.361-0.902,0.361-1.588C440.512,55.778,439.634,56.159,439.634,56.922z"/>
			<path fill="#231F20" d="M445.244,49.715h1.911v9.19h-1.911V49.715z"/>
			<path fill="#231F20" d="M452.279,54.761c-0.026-0.229-0.104-1.182-0.84-1.182c-0.903,0-1.007,1.347-1.007,2.046
				c0,0.356,0.039,1.5,0.478,1.97c0.181,0.19,0.375,0.216,0.517,0.216c0.207,0,0.801-0.089,0.878-1.233h1.885
				c-0.025,0.496-0.091,1.271-0.839,1.894c-0.465,0.394-1.046,0.597-1.859,0.597c-0.864,0-1.626-0.19-2.22-0.852
				c-0.568-0.648-0.826-1.5-0.826-2.529c0-2.923,2.182-3.33,3.046-3.33c1.214,0,2.646,0.661,2.659,2.402H452.279z"/>
			<path fill="#231F20" d="M457.155,52.486v3.826c0,0.559,0,1.411,1.02,1.411c1.227,0,1.227-0.902,1.227-1.996v-3.241h1.962v4.233
				c0.026,1.385,0.039,1.55,0.039,1.716c0.013,0.178,0.025,0.292,0.052,0.47h-1.859l-0.064-0.852
				c-0.193,0.28-0.684,1.017-1.923,1.017c-0.878,0-1.602-0.394-1.963-0.864c-0.426-0.521-0.426-1.411-0.426-1.729v-3.991H457.155z"
				/>
			<path fill="#231F20" d="M463.165,49.715h1.911v9.19h-1.911V49.715z"/>
			<path fill="#231F20" d="M470.662,58.905c-0.064-0.394-0.064-0.687-0.064-0.877c-0.723,1.029-1.588,1.029-1.949,1.029
				c-0.942,0-1.368-0.267-1.626-0.508c-0.388-0.381-0.568-0.902-0.568-1.411c0-0.509,0.181-1.449,1.382-1.996
				c0.8-0.356,1.949-0.356,2.581-0.356c0-0.419-0.013-0.623-0.09-0.852c-0.168-0.47-0.672-0.534-0.853-0.534
				c-0.271,0-0.555,0.115-0.723,0.356c-0.142,0.216-0.142,0.419-0.142,0.572h-1.872c0.013-0.343,0.052-1.03,0.735-1.513
				c0.595-0.419,1.355-0.521,1.976-0.521c0.542,0,1.678,0.089,2.323,0.826c0.439,0.521,0.452,1.284,0.452,1.576l0.013,2.58
				c0,0.546,0.039,1.093,0.155,1.627H470.662z M468.314,56.922c0,0.432,0.297,0.915,0.929,0.915c0.349,0,0.633-0.165,0.813-0.369
				c0.336-0.407,0.361-0.902,0.361-1.588C469.192,55.778,468.314,56.159,468.314,56.922z"/>
			<path fill="#231F20" d="M477.759,58.816c-0.619,0.165-1.175,0.203-1.484,0.203c-1.924,0-1.924-1.195-1.924-1.729V53.77h-1.252
				v-1.246h1.252v-1.258l1.898-0.686v1.944h1.549v1.246h-1.549v2.898c0.013,0.585,0.013,0.954,0.864,0.954
				c0.284,0,0.413-0.013,0.646-0.038V58.816z"/>
			<path fill="#231F20" d="M480.48,56.172c0,0.419,0,1.716,1.33,1.716c0.478,0,0.955-0.178,1.136-0.89h1.743
				c-0.026,0.305-0.091,0.852-0.62,1.398c-0.478,0.496-1.329,0.75-2.285,0.75c-0.555,0-1.613-0.102-2.298-0.801
				c-0.594-0.61-0.839-1.475-0.839-2.504c0-1.042,0.259-2.288,1.355-3.038c0.504-0.331,1.123-0.534,1.833-0.534
				c0.93,0,2.04,0.356,2.634,1.551c0.438,0.877,0.413,1.817,0.387,2.351H480.48z M482.906,54.99c0-0.292-0.025-1.436-1.136-1.436
				c-0.839,0-1.188,0.687-1.227,1.436H482.906z"/>
			<path fill="#231F20" d="M39.532,70.972c0,0.419,0,1.716,1.33,1.716c0.478,0,0.955-0.178,1.136-0.89h1.743
				c-0.026,0.305-0.091,0.852-0.62,1.398c-0.478,0.496-1.329,0.75-2.285,0.75c-0.555,0-1.613-0.102-2.298-0.801
				c-0.594-0.61-0.839-1.475-0.839-2.504c0-1.042,0.259-2.288,1.355-3.038c0.504-0.331,1.123-0.534,1.833-0.534
				c0.93,0,2.04,0.356,2.634,1.55c0.438,0.877,0.413,1.818,0.387,2.352H39.532z M41.959,69.79c0-0.292-0.025-1.436-1.136-1.436
				c-0.839,0-1.188,0.687-1.227,1.436H41.959z"/>
			<path fill="#231F20" d="M46.499,71.849c0.025,0.407,0.284,0.877,1.084,0.877c0.685,0,1.007-0.381,1.007-0.763
				c0-0.292-0.154-0.521-0.903-0.725l-1.188-0.318c-0.529-0.152-1.652-0.47-1.652-1.779c0-1.246,1.161-2.008,2.853-2.008
				c1.343,0,2.427,0.61,2.479,1.894h-1.742c-0.052-0.712-0.633-0.763-0.93-0.763c-0.517,0-0.904,0.241-0.904,0.635
				c0,0.432,0.323,0.521,0.892,0.674l1.175,0.318c1.188,0.317,1.742,0.915,1.742,1.792c0,1.106-0.968,2.211-2.995,2.211
				c-0.839,0-1.64-0.178-2.233-0.788c-0.426-0.445-0.464-0.954-0.478-1.259H46.499z"/>
			<path fill="#231F20" d="M55.454,73.616c-0.619,0.165-1.175,0.203-1.484,0.203c-1.924,0-1.924-1.195-1.924-1.729V68.57h-1.252
				v-1.246h1.252v-1.258l1.898-0.686v1.944h1.549v1.246h-1.549v2.898c0.013,0.584,0.013,0.953,0.864,0.953
				c0.284,0,0.413-0.013,0.646-0.038V73.616z"/>
			<path fill="#231F20" d="M56.574,64.528h2.04v1.64h-2.04V64.528z M56.639,67.274h1.911v6.432h-1.911V67.274z"/>
			<path fill="#231F20" d="M60.265,68.494c0-0.407-0.026-0.801-0.064-1.208h1.846l0.064,0.826c0.207-0.279,0.71-0.966,2.014-0.966
				c1.498,0,1.924,0.902,2.053,1.208c0.542-1.03,1.42-1.195,2.091-1.195c1.317,0,1.847,0.775,1.988,1.029
				c0.349,0.56,0.323,1.335,0.323,1.894v3.623h-1.924V69.93c0-0.687-0.104-1.449-1.098-1.449c-1.148,0-1.174,1.055-1.174,2.008
				v3.216H64.46v-3.813c0-0.496-0.013-1.411-1.071-1.411c-1.201,0-1.201,1.017-1.201,1.449v3.775h-1.923V68.494z"/>
			<path fill="#231F20" d="M76.317,73.705c-0.065-0.394-0.065-0.687-0.065-0.877c-0.723,1.029-1.587,1.029-1.949,1.029
				c-0.942,0-1.368-0.267-1.626-0.508c-0.388-0.381-0.568-0.902-0.568-1.411c0-0.509,0.181-1.449,1.382-1.996
				c0.8-0.356,1.949-0.356,2.581-0.356c0-0.419-0.013-0.623-0.09-0.852c-0.168-0.47-0.672-0.534-0.853-0.534
				c-0.271,0-0.555,0.115-0.723,0.356c-0.142,0.216-0.142,0.419-0.142,0.572h-1.872c0.013-0.343,0.052-1.03,0.735-1.513
				c0.595-0.419,1.355-0.521,1.976-0.521c0.542,0,1.678,0.089,2.323,0.826c0.439,0.521,0.452,1.284,0.452,1.576l0.013,2.58
				c0,0.546,0.039,1.093,0.155,1.627H76.317z M73.967,71.722c0,0.432,0.297,0.915,0.929,0.915c0.349,0,0.633-0.165,0.813-0.369
				c0.336-0.407,0.361-0.902,0.361-1.588C74.845,70.578,73.967,70.96,73.967,71.722z"/>
			<path fill="#231F20" d="M83.411,73.616c-0.619,0.165-1.175,0.203-1.484,0.203c-1.924,0-1.924-1.195-1.924-1.729V68.57h-1.252
				v-1.246h1.252v-1.258l1.898-0.686v1.944h1.549v1.246h-1.549v2.898c0.013,0.584,0.013,0.953,0.864,0.953
				c0.284,0,0.413-0.013,0.646-0.038V73.616z"/>
			<path fill="#231F20" d="M86.132,70.972c0,0.419,0,1.716,1.33,1.716c0.478,0,0.955-0.178,1.136-0.89h1.743
				c-0.026,0.305-0.091,0.852-0.62,1.398c-0.478,0.496-1.329,0.75-2.285,0.75c-0.555,0-1.613-0.102-2.298-0.801
				c-0.594-0.61-0.839-1.475-0.839-2.504c0-1.042,0.259-2.288,1.355-3.038c0.504-0.331,1.123-0.534,1.833-0.534
				c0.93,0,2.04,0.356,2.634,1.55c0.438,0.877,0.413,1.818,0.387,2.352H86.132z M88.559,69.79c0-0.292-0.025-1.436-1.136-1.436
				c-0.839,0-1.188,0.687-1.227,1.436H88.559z"/>
			<path fill="#231F20" d="M96.081,64.528h1.924v8.135c0,0.381,0.025,0.801,0.052,1.042H96.12l-0.052-0.928
				c-0.129,0.229-0.258,0.47-0.658,0.724c-0.478,0.305-0.981,0.331-1.266,0.331c-1.742,0-2.775-1.182-2.775-3.19
				c0-2.123,1.175-3.444,2.879-3.444c1.175,0,1.665,0.648,1.833,0.877V64.528z M94.623,72.612c0.555,0,1.007-0.33,1.213-0.724
				c0.284-0.534,0.31-1.195,0.31-1.513c0-1.258-0.555-1.945-1.42-1.945c-1.277,0-1.42,1.513-1.42,2.161
				C93.306,71.659,93.667,72.612,94.623,72.612z"/>
			<path fill="#231F20" d="M103.627,66.168c0.839-0.355,1.64-0.801,2.388-1.334h1.665v8.872h-1.949v-6.902
				c-0.374,0.28-1.123,0.737-2.104,1.131V66.168z"/>
			<path fill="#231F20" d="M113.2,64.706c1.266,0,2.015,0.674,2.35,1.169c0.465,0.673,0.813,1.538,0.813,3.203
				c0,2.059-0.478,4.766-3.188,4.766c-2.311,0-3.111-2.186-3.111-4.55C110.064,68.113,110.309,64.706,113.2,64.706z M114.195,67.21
				c-0.052-0.242-0.271-1.03-0.98-1.03c-0.556,0-0.801,0.496-0.891,0.763c-0.297,0.903-0.297,2.263-0.297,2.479
				c0,1.513,0.231,2.924,1.2,2.924c1.032,0,1.2-1.729,1.2-2.949C114.427,68.837,114.363,67.795,114.195,67.21z"/>
			<path fill="#231F20" d="M117.315,69.625h3.201v1.436h-3.201V69.625z"/>
			<path fill="#231F20" d="M123.289,67.286l1.433,4.449l1.459-4.449h1.897l-2.466,6.305l-0.787,2.555h-1.923l0.826-2.415
				l-2.505-6.444H123.289z"/>
			<path fill="#231F20" d="M130.591,70.972c0,0.419,0,1.716,1.33,1.716c0.478,0,0.955-0.178,1.136-0.89h1.743
				c-0.026,0.305-0.091,0.852-0.62,1.398c-0.478,0.496-1.329,0.75-2.285,0.75c-0.555,0-1.613-0.102-2.298-0.801
				c-0.594-0.61-0.839-1.475-0.839-2.504c0-1.042,0.259-2.288,1.355-3.038c0.504-0.331,1.123-0.534,1.833-0.534
				c0.93,0,2.04,0.356,2.634,1.55c0.438,0.877,0.413,1.818,0.387,2.352H130.591z M133.018,69.79c0-0.292-0.025-1.436-1.136-1.436
				c-0.839,0-1.188,0.687-1.227,1.436H133.018z"/>
			<path fill="#231F20" d="M140.139,73.705c-0.064-0.394-0.064-0.687-0.064-0.877c-0.723,1.029-1.588,1.029-1.949,1.029
				c-0.942,0-1.368-0.267-1.626-0.508c-0.388-0.381-0.568-0.902-0.568-1.411c0-0.509,0.181-1.449,1.382-1.996
				c0.8-0.356,1.949-0.356,2.581-0.356c0-0.419-0.013-0.623-0.09-0.852c-0.168-0.47-0.672-0.534-0.853-0.534
				c-0.271,0-0.555,0.115-0.723,0.356c-0.142,0.216-0.142,0.419-0.142,0.572h-1.872c0.013-0.343,0.052-1.03,0.735-1.513
				c0.595-0.419,1.355-0.521,1.976-0.521c0.542,0,1.678,0.089,2.323,0.826c0.439,0.521,0.452,1.284,0.452,1.576l0.013,2.58
				c0,0.546,0.039,1.093,0.155,1.627H140.139z M137.79,71.722c0,0.432,0.297,0.915,0.929,0.915c0.349,0,0.633-0.165,0.813-0.369
				c0.336-0.407,0.361-0.902,0.361-1.588C138.668,70.578,137.79,70.96,137.79,71.722z"/>
			<path fill="#231F20" d="M143.402,68.863c0-0.305-0.052-1.233-0.09-1.602h1.794l0.039,1.233c0.245-0.546,0.671-1.322,2.22-1.246
				v1.69c-1.936-0.178-2.052,0.801-2.052,1.602v3.165h-1.911V68.863z"/>
			<path fill="#231F20" d="M149.75,71.849c0.025,0.407,0.284,0.877,1.084,0.877c0.685,0,1.007-0.381,1.007-0.763
				c0-0.292-0.154-0.521-0.903-0.725l-1.188-0.318c-0.529-0.152-1.652-0.47-1.652-1.779c0-1.246,1.161-2.008,2.853-2.008
				c1.343,0,2.427,0.61,2.479,1.894h-1.742c-0.052-0.712-0.633-0.763-0.93-0.763c-0.517,0-0.903,0.241-0.903,0.635
				c0,0.432,0.322,0.521,0.891,0.674l1.174,0.318c1.188,0.317,1.743,0.915,1.743,1.792c0,1.106-0.968,2.211-2.995,2.211
				c-0.839,0-1.639-0.178-2.233-0.788c-0.426-0.445-0.464-0.954-0.478-1.259H149.75z"/>
			<path fill="#231F20" d="M163.427,64.515l3.24,9.19h-2.014l-0.671-1.983h-3.692l-0.697,1.983h-1.91l3.369-9.19H163.427z
				 M163.479,70.235l-1.291-3.915l-1.381,3.915H163.479z"/>
			<path fill="#231F20" d="M169.425,70.769c0,0.432-0.025,1.741,1.691,1.741c1.084,0,1.769-0.508,1.769-1.284
				c0-0.813-0.581-0.953-1.769-1.233c-2.221-0.546-3.434-1.195-3.434-2.784c0-1.513,1.097-2.847,3.691-2.847
				c0.969,0,2.117,0.216,2.814,1.081c0.529,0.661,0.529,1.398,0.529,1.703h-1.924c-0.025-0.318-0.129-1.398-1.51-1.398
				c-0.93,0-1.536,0.496-1.536,1.246c0,0.852,0.684,1.004,2.026,1.335c1.613,0.381,3.201,0.813,3.201,2.605
				c0,1.652-1.394,2.987-3.976,2.987c-3.576,0-3.602-2.263-3.614-3.152H169.425z"/>
			<path fill="#231F20" d="M181.683,67.515c-0.039-0.318-0.155-1.614-1.51-1.614c-1.485,0-2.104,1.525-2.104,3.419
				c0,0.547,0,3.152,1.949,3.152c0.839,0,1.64-0.521,1.678-1.741h2.104c-0.039,0.546-0.091,1.398-0.839,2.161
				c-0.826,0.839-1.872,1.03-2.724,1.03c-3.215,0-4.261-2.339-4.261-4.614c0-2.911,1.652-4.843,4.273-4.843
				c2.039,0,3.473,1.22,3.473,3.051H181.683z"/>
			<path fill="#231F20" d="M186.481,64.553l2.439,7.207l2.453-7.207h1.975l-3.434,9.152h-2.182l-3.434-9.152H186.481z"/>
			<path fill="#231F20" d="M194.297,64.541l3.086,0.013c0.516,0,2.091,0.013,3.214,0.827c1.175,0.852,1.588,2.3,1.588,3.609
				c0,2.822-1.536,4.296-3.305,4.614c-0.349,0.063-0.736,0.102-1.679,0.102h-2.904V64.541z M196.324,72.193
				c0.219,0.013,0.555,0.025,0.787,0.025c0.852,0,1.588-0.063,2.169-0.635c0.787-0.775,0.839-2.148,0.839-2.593
				c0-1.296-0.452-2.491-1.704-2.834c-0.413-0.114-0.942-0.178-2.091-0.127V72.193z"/>
			<path fill="#231F20" d="M207.199,68.863c0-0.305-0.052-1.233-0.09-1.602h1.794l0.039,1.233c0.245-0.546,0.671-1.322,2.22-1.246
				v1.69c-1.936-0.178-2.052,0.801-2.052,1.602v3.165h-1.911V68.863z"/>
			<path fill="#231F20" d="M212.153,64.528h2.04v1.64h-2.04V64.528z M212.217,67.274h1.911v6.432h-1.911V67.274z"/>
			<path fill="#231F20" d="M217.134,71.849c0.025,0.407,0.284,0.877,1.084,0.877c0.685,0,1.007-0.381,1.007-0.763
				c0-0.292-0.154-0.521-0.903-0.725l-1.188-0.318c-0.529-0.152-1.652-0.47-1.652-1.779c0-1.246,1.161-2.008,2.853-2.008
				c1.343,0,2.427,0.61,2.479,1.894h-1.742c-0.052-0.712-0.633-0.763-0.93-0.763c-0.517,0-0.904,0.241-0.904,0.635
				c0,0.432,0.323,0.521,0.892,0.674l1.175,0.318c1.188,0.317,1.742,0.915,1.742,1.792c0,1.106-0.968,2.211-2.995,2.211
				c-0.839,0-1.64-0.178-2.233-0.788c-0.426-0.445-0.464-0.954-0.478-1.259H217.134z"/>
			<path fill="#231F20" d="M222.282,64.515h1.897v5.415l1.975-2.682h2.156l-2.233,2.796l2.375,3.661h-2.259l-2.014-3.496v3.496
				h-1.897V64.515z"/>
			<path fill="#231F20" d="M234.551,70.972c0,0.419,0,1.716,1.33,1.716c0.478,0,0.955-0.178,1.136-0.89h1.743
				c-0.026,0.305-0.091,0.852-0.62,1.398c-0.478,0.496-1.329,0.75-2.285,0.75c-0.555,0-1.613-0.102-2.298-0.801
				c-0.594-0.61-0.839-1.475-0.839-2.504c0-1.042,0.259-2.288,1.355-3.038c0.504-0.331,1.123-0.534,1.833-0.534
				c0.93,0,2.04,0.356,2.634,1.55c0.438,0.877,0.413,1.818,0.387,2.352H234.551z M236.978,69.79c0-0.292-0.025-1.436-1.136-1.436
				c-0.839,0-1.188,0.687-1.227,1.436H236.978z"/>
			<path fill="#231F20" d="M241.479,67.286l1.472,4.36l1.497-4.36h1.847l-2.35,6.419h-2.117l-2.388-6.419H241.479z"/>
			<path fill="#231F20" d="M248.898,70.972c0,0.419,0,1.716,1.33,1.716c0.478,0,0.955-0.178,1.136-0.89h1.743
				c-0.026,0.305-0.091,0.852-0.62,1.398c-0.478,0.496-1.329,0.75-2.285,0.75c-0.555,0-1.613-0.102-2.298-0.801
				c-0.594-0.61-0.839-1.475-0.839-2.504c0-1.042,0.259-2.288,1.355-3.038c0.504-0.331,1.123-0.534,1.833-0.534
				c0.93,0,2.04,0.356,2.634,1.55c0.438,0.877,0.413,1.818,0.387,2.352H248.898z M251.324,69.79c0-0.292-0.025-1.436-1.136-1.436
				c-0.839,0-1.188,0.687-1.227,1.436H251.324z"/>
			<path fill="#231F20" d="M254.534,68.863c0-0.305-0.052-1.233-0.09-1.602h1.794l0.039,1.233c0.245-0.546,0.671-1.322,2.22-1.246
				v1.69c-1.936-0.178-2.052,0.801-2.052,1.602v3.165h-1.911V68.863z"/>
			<path fill="#231F20" d="M260.96,67.286l1.433,4.449l1.459-4.449h1.897l-2.466,6.305l-0.787,2.555h-1.924l0.826-2.415
				l-2.504-6.444H260.96z"/>
			<path fill="#231F20" d="M269.68,71.773v-1.716l3.615-5.224h1.923l-0.013,5.479h1.227v1.461h-1.227v1.932h-1.91v-1.932H269.68z
				 M271.126,70.35h2.272v-2.339c0-0.114,0.013-0.75,0.025-0.979L271.126,70.35z"/>
			<path fill="#231F20" d="M277.216,69.625h3.201v1.436h-3.201V69.625z"/>
			<path fill="#231F20" d="M285.733,67.032c-0.039-0.636-0.465-0.877-0.942-0.877c-1.291,0-1.329,1.576-1.355,2.492
				c0.323-0.292,0.826-0.712,1.769-0.712c1.252,0,2.582,0.877,2.582,2.809c0,0.979-0.271,1.69-0.955,2.313
				c-0.594,0.547-1.291,0.826-2.298,0.826c-3.111,0-3.111-2.974-3.111-4.029c0-1.78,0.232-3.623,1.459-4.513
				c0.787-0.584,1.729-0.623,2.078-0.623c1.355,0,2.646,0.687,2.686,2.313H285.733z M285.888,70.871
				c0-0.979-0.517-1.525-1.162-1.525c-0.322,0-1.304,0.191-1.304,1.563c0,1.093,0.594,1.551,1.227,1.551
				C285.203,72.46,285.888,72.078,285.888,70.871z"/>
			<path fill="#231F20" d="M293.949,67.286l1.433,4.449l1.459-4.449h1.897l-2.466,6.305l-0.787,2.555h-1.923l0.826-2.415
				l-2.505-6.444H293.949z"/>
			<path fill="#231F20" d="M301.252,70.972c0,0.419,0,1.716,1.33,1.716c0.478,0,0.955-0.178,1.136-0.89h1.743
				c-0.026,0.305-0.091,0.852-0.62,1.398c-0.478,0.496-1.329,0.75-2.285,0.75c-0.555,0-1.613-0.102-2.298-0.801
				c-0.594-0.61-0.839-1.475-0.839-2.504c0-1.042,0.259-2.288,1.355-3.038c0.504-0.331,1.123-0.534,1.833-0.534
				c0.93,0,2.04,0.356,2.634,1.55c0.438,0.877,0.413,1.818,0.387,2.352H301.252z M303.679,69.79c0-0.292-0.025-1.436-1.136-1.436
				c-0.839,0-1.188,0.687-1.227,1.436H303.679z"/>
			<path fill="#231F20" d="M310.801,73.705c-0.065-0.394-0.065-0.687-0.065-0.877c-0.723,1.029-1.587,1.029-1.949,1.029
				c-0.942,0-1.368-0.267-1.626-0.508c-0.388-0.381-0.568-0.902-0.568-1.411c0-0.509,0.181-1.449,1.382-1.996
				c0.8-0.356,1.949-0.356,2.581-0.356c0-0.419-0.013-0.623-0.09-0.852c-0.168-0.47-0.672-0.534-0.853-0.534
				c-0.271,0-0.555,0.115-0.723,0.356c-0.142,0.216-0.142,0.419-0.142,0.572h-1.872c0.013-0.343,0.052-1.03,0.735-1.513
				c0.595-0.419,1.355-0.521,1.976-0.521c0.542,0,1.678,0.089,2.323,0.826c0.439,0.521,0.452,1.284,0.452,1.576l0.013,2.58
				c0,0.546,0.039,1.093,0.155,1.627H310.801z M308.451,71.722c0,0.432,0.297,0.915,0.929,0.915c0.349,0,0.633-0.165,0.813-0.369
				c0.336-0.407,0.361-0.902,0.361-1.588C309.329,70.578,308.451,70.96,308.451,71.722z"/>
			<path fill="#231F20" d="M314.062,68.863c0-0.305-0.052-1.233-0.09-1.602h1.794l0.039,1.233c0.245-0.546,0.671-1.322,2.22-1.246
				v1.69c-1.936-0.178-2.052,0.801-2.052,1.602v3.165h-1.911V68.863z"/>
			<path fill="#231F20" d="M320.411,71.849c0.025,0.407,0.284,0.877,1.084,0.877c0.685,0,1.007-0.381,1.007-0.763
				c0-0.292-0.154-0.521-0.903-0.725l-1.188-0.318c-0.529-0.152-1.652-0.47-1.652-1.779c0-1.246,1.161-2.008,2.853-2.008
				c1.343,0,2.427,0.61,2.479,1.894h-1.742c-0.052-0.712-0.633-0.763-0.93-0.763c-0.517,0-0.904,0.241-0.904,0.635
				c0,0.432,0.323,0.521,0.892,0.674l1.175,0.318c1.188,0.317,1.742,0.915,1.742,1.792c0,1.106-0.968,2.211-2.995,2.211
				c-0.839,0-1.64-0.178-2.233-0.788c-0.426-0.445-0.464-0.954-0.478-1.259H320.411z"/>
			<path fill="#231F20" d="M329.054,64.528h2.04v1.64h-2.04V64.528z M329.118,67.274h1.911v6.432h-1.911V67.274z"/>
			<path fill="#231F20" d="M332.732,68.43c0-0.025,0-0.725-0.039-1.169h1.833l0.052,0.966c0.181-0.292,0.697-1.119,2.117-1.119
				c1.277,0,1.82,0.763,1.987,1.208c0.143,0.394,0.182,0.725,0.182,1.919v3.47h-1.949v-3.991c0-0.267,0-0.496-0.104-0.699
				c-0.143-0.279-0.439-0.546-0.93-0.546c-0.413,0-0.787,0.191-0.994,0.496c-0.116,0.166-0.232,0.483-0.232,0.979v3.762h-1.923
				V68.43z"/>
			<path fill="#231F20" d="M344.11,64.528h2.04v1.64h-2.04V64.528z M344.174,67.274h1.911v6.432h-1.911V67.274z"/>
			<path fill="#231F20" d="M347.787,68.43c0-0.025,0-0.725-0.039-1.169h1.833l0.052,0.966c0.181-0.292,0.697-1.119,2.117-1.119
				c1.277,0,1.82,0.763,1.988,1.208c0.142,0.394,0.181,0.725,0.181,1.919v3.47h-1.949v-3.991c0-0.267,0-0.496-0.104-0.699
				c-0.143-0.279-0.439-0.546-0.93-0.546c-0.413,0-0.787,0.191-0.994,0.496c-0.116,0.166-0.232,0.483-0.232,0.979v3.762h-1.923
				V68.43z"/>
			<path fill="#231F20" d="M359.955,64.528h1.924v8.135c0,0.381,0.025,0.801,0.052,1.042h-1.937l-0.052-0.928
				c-0.129,0.229-0.258,0.47-0.658,0.724c-0.478,0.305-0.981,0.331-1.266,0.331c-1.742,0-2.775-1.182-2.775-3.19
				c0-2.123,1.175-3.444,2.879-3.444c1.175,0,1.665,0.648,1.833,0.877V64.528z M358.497,72.612c0.555,0,1.007-0.33,1.213-0.724
				c0.284-0.534,0.31-1.195,0.31-1.513c0-1.258-0.555-1.945-1.42-1.945c-1.277,0-1.42,1.513-1.42,2.161
				C357.18,71.659,357.541,72.612,358.497,72.612z"/>
			<path fill="#231F20" d="M363.462,64.528h2.04v1.64h-2.04V64.528z M363.527,67.274h1.911v6.432h-1.911V67.274z"/>
			<path fill="#231F20" d="M368.404,67.286l1.472,4.36l1.497-4.36h1.847l-2.35,6.419h-2.117l-2.388-6.419H368.404z"/>
			<path fill="#231F20" d="M374.222,64.528h2.04v1.64h-2.04V64.528z M374.286,67.274h1.911v6.432h-1.911V67.274z"/>
			<path fill="#231F20" d="M382.185,64.528h1.924v8.135c0,0.381,0.025,0.801,0.052,1.042h-1.937l-0.052-0.928
				c-0.129,0.229-0.258,0.47-0.658,0.724c-0.478,0.305-0.981,0.331-1.266,0.331c-1.742,0-2.775-1.182-2.775-3.19
				c0-2.123,1.175-3.444,2.879-3.444c1.175,0,1.665,0.648,1.833,0.877V64.528z M380.727,72.612c0.555,0,1.007-0.33,1.213-0.724
				c0.284-0.534,0.31-1.195,0.31-1.513c0-1.258-0.555-1.945-1.42-1.945c-1.277,0-1.42,1.513-1.42,2.161
				C379.409,71.659,379.771,72.612,380.727,72.612z"/>
			<path fill="#231F20" d="M387.628,67.286v3.826c0,0.559,0,1.411,1.02,1.411c1.227,0,1.227-0.902,1.227-1.996v-3.241h1.962v4.233
				c0.026,1.385,0.039,1.55,0.039,1.716c0.013,0.178,0.025,0.292,0.052,0.47h-1.859l-0.064-0.852
				c-0.193,0.28-0.684,1.017-1.923,1.017c-0.878,0-1.602-0.394-1.963-0.864c-0.426-0.521-0.426-1.411-0.426-1.729v-3.991H387.628z"
				/>
			<path fill="#231F20" d="M397.551,73.705c-0.065-0.394-0.065-0.687-0.065-0.877c-0.723,1.029-1.587,1.029-1.949,1.029
				c-0.942,0-1.368-0.267-1.626-0.508c-0.388-0.381-0.568-0.902-0.568-1.411c0-0.509,0.181-1.449,1.382-1.996
				c0.8-0.356,1.949-0.356,2.581-0.356c0-0.419-0.013-0.623-0.09-0.852c-0.168-0.47-0.672-0.534-0.853-0.534
				c-0.271,0-0.555,0.115-0.723,0.356c-0.142,0.216-0.142,0.419-0.142,0.572h-1.872c0.013-0.343,0.052-1.03,0.735-1.513
				c0.595-0.419,1.355-0.521,1.976-0.521c0.542,0,1.678,0.089,2.323,0.826c0.439,0.521,0.452,1.284,0.452,1.576l0.013,2.58
				c0,0.546,0.039,1.093,0.155,1.627H397.551z M395.201,71.722c0,0.432,0.297,0.915,0.929,0.915c0.349,0,0.633-0.165,0.813-0.369
				c0.336-0.407,0.361-0.902,0.361-1.588C396.079,70.578,395.201,70.96,395.201,71.722z"/>
			<path fill="#231F20" d="M400.812,64.515h1.911v9.19h-1.911V64.515z"/>
			<path fill="#231F20" d="M405.729,71.849c0.025,0.407,0.284,0.877,1.084,0.877c0.685,0,1.007-0.381,1.007-0.763
				c0-0.292-0.154-0.521-0.903-0.725l-1.188-0.318c-0.529-0.152-1.652-0.47-1.652-1.779c0-1.246,1.161-2.008,2.853-2.008
				c1.343,0,2.427,0.61,2.479,1.894h-1.742c-0.052-0.712-0.633-0.763-0.93-0.763c-0.517,0-0.903,0.241-0.903,0.635
				c0,0.432,0.322,0.521,0.891,0.674l1.174,0.318c1.188,0.317,1.743,0.915,1.743,1.792c0,1.106-0.968,2.211-2.995,2.211
				c-0.839,0-1.639-0.178-2.233-0.788c-0.426-0.445-0.464-0.954-0.478-1.259H405.729z"/>
			<path fill="#231F20" d="M418.348,73.705c-0.065-0.394-0.065-0.687-0.065-0.877c-0.723,1.029-1.587,1.029-1.949,1.029
				c-0.942,0-1.368-0.267-1.626-0.508c-0.388-0.381-0.568-0.902-0.568-1.411c0-0.509,0.181-1.449,1.382-1.996
				c0.8-0.356,1.949-0.356,2.581-0.356c0-0.419-0.013-0.623-0.09-0.852c-0.168-0.47-0.672-0.534-0.853-0.534
				c-0.271,0-0.555,0.115-0.723,0.356c-0.142,0.216-0.142,0.419-0.142,0.572h-1.872c0.013-0.343,0.052-1.03,0.735-1.513
				c0.595-0.419,1.355-0.521,1.976-0.521c0.542,0,1.678,0.089,2.323,0.826c0.439,0.521,0.452,1.284,0.452,1.576l0.013,2.58
				c0,0.546,0.039,1.093,0.155,1.627H418.348z M415.998,71.722c0,0.432,0.297,0.915,0.929,0.915c0.349,0,0.633-0.165,0.813-0.369
				c0.336-0.407,0.361-0.902,0.361-1.588C416.876,70.578,415.998,70.96,415.998,71.722z"/>
			<path fill="#231F20" d="M427.792,67.312c-0.052,0.509-0.091,0.941-0.091,1.589v4.741c0,2.364-2,2.593-3.253,2.593
				c-0.929,0-2.749-0.114-2.865-2.059h1.833c0.025,0.191,0.116,0.89,1.136,0.89c0.568,0,1.059-0.267,1.188-0.839
				c0.078-0.317,0.078-0.546,0.091-1.525c-0.607,0.788-1.291,0.877-1.756,0.877c-1.872,0-2.75-1.602-2.75-3.152
				c0-1.627,0.917-3.178,2.789-3.178c1.188,0,1.626,0.636,1.82,0.915l0.064-0.852H427.792z M424.513,72.295
				c1.343,0,1.343-1.551,1.343-1.831c0-0.725-0.142-1.958-1.304-1.958c-0.723,0-1.316,0.547-1.316,1.919
				C423.236,70.744,423.236,72.295,424.513,72.295z"/>
			<path fill="#231F20" d="M431.028,70.972c0,0.419,0,1.716,1.33,1.716c0.478,0,0.955-0.178,1.136-0.89h1.743
				c-0.026,0.305-0.091,0.852-0.62,1.398c-0.478,0.496-1.329,0.75-2.285,0.75c-0.555,0-1.613-0.102-2.298-0.801
				c-0.594-0.61-0.839-1.475-0.839-2.504c0-1.042,0.259-2.288,1.355-3.038c0.504-0.331,1.123-0.534,1.833-0.534
				c0.93,0,2.04,0.356,2.634,1.55c0.438,0.877,0.413,1.818,0.387,2.352H431.028z M433.454,69.79c0-0.292-0.025-1.436-1.136-1.436
				c-0.839,0-1.188,0.687-1.227,1.436H433.454z"/>
			<path fill="#231F20" d="M440.977,64.528h1.924v8.135c0,0.381,0.025,0.801,0.052,1.042h-1.937l-0.052-0.928
				c-0.129,0.229-0.258,0.47-0.658,0.724c-0.478,0.305-0.981,0.331-1.266,0.331c-1.742,0-2.775-1.182-2.775-3.19
				c0-2.123,1.175-3.444,2.879-3.444c1.175,0,1.665,0.648,1.833,0.877V64.528z M439.519,72.612c0.555,0,1.007-0.33,1.213-0.724
				c0.284-0.534,0.31-1.195,0.31-1.513c0-1.258-0.555-1.945-1.42-1.945c-1.277,0-1.42,1.513-1.42,2.161
				C438.201,71.659,438.563,72.612,439.519,72.612z"/>
			<path fill="#231F20" d="M447.502,71.773v-1.716l3.614-5.224h1.923l-0.013,5.479h1.227v1.461h-1.227v1.932h-1.91v-1.932H447.502z
				 M448.948,70.35h2.271v-2.339c0-0.114,0.014-0.75,0.026-0.979L448.948,70.35z"/>
			<path fill="#231F20" d="M458.096,64.706c1.266,0,2.015,0.674,2.35,1.169c0.465,0.673,0.813,1.538,0.813,3.203
				c0,2.059-0.478,4.766-3.188,4.766c-2.311,0-3.111-2.186-3.111-4.55C454.959,68.113,455.204,64.706,458.096,64.706z M459.09,67.21
				c-0.052-0.242-0.271-1.03-0.98-1.03c-0.556,0-0.801,0.496-0.891,0.763c-0.297,0.903-0.297,2.263-0.297,2.479
				c0,1.513,0.232,2.924,1.2,2.924c1.032,0,1.2-1.729,1.2-2.949C459.323,68.837,459.258,67.795,459.09,67.21z"/>
			<path fill="#231F20" d="M462.21,69.625h3.201v1.436h-3.201V69.625z"/>
			<path fill="#231F20" d="M466.416,64.846h6.106v1.576l-3.099,7.283h-2.155l3.291-7.385h-4.144V64.846z"/>
			<path fill="#231F20" d="M475.422,71.519c-0.013,0.203,0.155,0.991,1.059,0.991c0.697,0,1.33-0.496,1.33-1.665
				c0-0.852-0.336-1.589-1.201-1.589c-0.864,0-1.084,0.687-1.148,0.89l-1.872-0.051l0.207-5.25h5.46v1.449h-3.757l-0.116,2.199
				c0.284-0.241,0.711-0.635,1.704-0.635c1.446,0,2.659,1.042,2.659,2.822c0,1.512-0.903,3.215-3.214,3.215
				c-0.942,0-1.897-0.241-2.518-0.966c-0.451-0.534-0.49-1.081-0.503-1.411H475.422z"/>
			<path fill="#231F20" d="M35.782,82.086l1.433,4.449l1.459-4.449h1.897l-2.466,6.305l-0.787,2.555h-1.924l0.826-2.415
				l-2.504-6.444H35.782z"/>
			<path fill="#231F20" d="M43.084,85.772c0,0.419,0,1.716,1.33,1.716c0.478,0,0.955-0.178,1.136-0.89h1.743
				c-0.026,0.305-0.091,0.852-0.62,1.398c-0.478,0.496-1.329,0.75-2.285,0.75c-0.555,0-1.613-0.102-2.298-0.801
				c-0.594-0.61-0.839-1.475-0.839-2.504c0-1.042,0.259-2.288,1.355-3.038c0.504-0.331,1.123-0.534,1.833-0.534
				c0.93,0,2.04,0.356,2.634,1.55c0.438,0.877,0.413,1.818,0.387,2.352H43.084z M45.511,84.59c0-0.292-0.025-1.436-1.136-1.436
				c-0.839,0-1.188,0.687-1.227,1.436H45.511z"/>
			<path fill="#231F20" d="M52.633,88.505c-0.064-0.394-0.064-0.687-0.064-0.877c-0.723,1.029-1.588,1.029-1.949,1.029
				c-0.942,0-1.368-0.267-1.626-0.508c-0.388-0.381-0.568-0.902-0.568-1.411c0-0.509,0.181-1.449,1.382-1.996
				c0.8-0.356,1.949-0.356,2.581-0.356c0-0.419-0.013-0.623-0.09-0.852c-0.168-0.47-0.672-0.534-0.853-0.534
				c-0.271,0-0.555,0.115-0.723,0.356c-0.142,0.216-0.142,0.419-0.142,0.572h-1.872c0.013-0.343,0.052-1.03,0.735-1.513
				c0.595-0.419,1.355-0.521,1.976-0.521c0.542,0,1.678,0.089,2.323,0.826c0.439,0.521,0.452,1.284,0.452,1.576l0.013,2.58
				c0,0.546,0.039,1.093,0.155,1.627H52.633z M50.284,86.522c0,0.432,0.297,0.915,0.929,0.915c0.349,0,0.633-0.165,0.813-0.369
				c0.336-0.407,0.361-0.902,0.361-1.588C51.162,85.378,50.284,85.76,50.284,86.522z"/>
			<path fill="#231F20" d="M55.895,83.662c0-0.305-0.052-1.233-0.09-1.602h1.794l0.039,1.233c0.245-0.546,0.671-1.322,2.22-1.246
				v1.69c-1.936-0.178-2.052,0.801-2.052,1.602v3.165h-1.911V83.662z"/>
			<path fill="#231F20" d="M62.243,86.649c0.025,0.407,0.284,0.877,1.084,0.877c0.685,0,1.007-0.381,1.007-0.763
				c0-0.292-0.154-0.521-0.903-0.725l-1.188-0.318c-0.529-0.152-1.652-0.47-1.652-1.779c0-1.246,1.161-2.008,2.853-2.008
				c1.343,0,2.427,0.61,2.479,1.894H64.18c-0.052-0.712-0.633-0.763-0.93-0.763c-0.517,0-0.904,0.241-0.904,0.635
				c0,0.432,0.323,0.521,0.892,0.674l1.175,0.318c1.188,0.317,1.742,0.915,1.742,1.792c0,1.106-0.968,2.211-2.995,2.211
				c-0.839,0-1.64-0.178-2.233-0.788c-0.426-0.445-0.464-0.954-0.478-1.259H62.243z"/>
			<path fill="#231F20" d="M72.203,82.086l1.201,4.843l1.381-4.843h2.104l1.368,4.843l1.278-4.843h1.897L79.2,88.505h-2.078
				l-1.343-4.754l-1.368,4.754h-2.104l-2.13-6.419H72.203z"/>
			<path fill="#231F20" d="M82.356,79.328h2.04v1.64h-2.04V79.328z M82.42,82.073h1.911v6.432H82.42V82.073z"/>
			<path fill="#231F20" d="M89.841,88.416c-0.619,0.165-1.175,0.203-1.484,0.203c-1.924,0-1.924-1.195-1.924-1.729V83.37h-1.252
				v-1.246h1.252v-1.258l1.898-0.686v1.944h1.549v1.246h-1.549v2.898c0.013,0.584,0.013,0.953,0.864,0.953
				c0.284,0,0.413-0.013,0.646-0.038V88.416z"/>
			<path fill="#231F20" d="M91.077,79.328h1.897v3.635c0.22-0.305,0.697-0.966,1.885-0.966c0.969,0,1.588,0.47,1.897,0.864
				c0.232,0.318,0.427,0.902,0.427,1.741v3.902h-1.898v-3.838c0-0.369,0-1.398-1.071-1.398c-0.542,0-1.227,0.305-1.227,1.309
				l0.014,3.928h-1.924V79.328z"/>
			<path fill="#231F20" d="M101.981,81.934c2.362,0,3.383,1.576,3.383,3.368c0,1.805-1.059,3.432-3.421,3.432
				c-1.859,0-3.331-1.131-3.331-3.381C98.612,83.802,99.412,81.934,101.981,81.934z M102.007,87.425
				c0.839,0,1.407-0.496,1.407-2.199c0-0.852-0.168-2.034-1.434-2.034c-1.394,0-1.407,1.589-1.407,2.173
				C100.574,86.802,101.065,87.425,102.007,87.425z"/>
			<path fill="#231F20" d="M108.663,82.086v3.826c0,0.559,0,1.411,1.02,1.411c1.227,0,1.227-0.902,1.227-1.996v-3.241h1.962v4.233
				c0.026,1.385,0.039,1.55,0.039,1.716c0.013,0.178,0.025,0.292,0.052,0.47h-1.859l-0.064-0.852
				c-0.193,0.28-0.684,1.017-1.923,1.017c-0.878,0-1.602-0.394-1.963-0.864c-0.426-0.521-0.426-1.411-0.426-1.729v-3.991H108.663z"
				/>
			<path fill="#231F20" d="M118.508,88.416c-0.619,0.165-1.175,0.203-1.484,0.203c-1.924,0-1.924-1.195-1.924-1.729V83.37h-1.252
				v-1.246h1.252v-1.258l1.898-0.686v1.944h1.549v1.246h-1.549v2.898c0.013,0.584,0.013,0.953,0.864,0.953
				c0.284,0,0.413-0.013,0.646-0.038V88.416z"/>
			<path fill="#231F20" d="M126.727,84.362c-0.026-0.229-0.104-1.182-0.84-1.182c-0.903,0-1.007,1.347-1.007,2.046
				c0,0.356,0.039,1.5,0.478,1.97c0.182,0.19,0.375,0.216,0.517,0.216c0.207,0,0.801-0.089,0.878-1.233h1.885
				c-0.025,0.496-0.091,1.271-0.839,1.894c-0.465,0.394-1.046,0.597-1.859,0.597c-0.864,0-1.626-0.19-2.22-0.852
				c-0.568-0.648-0.826-1.5-0.826-2.529c0-2.923,2.182-3.33,3.046-3.33c1.214,0,2.646,0.661,2.659,2.402H126.727z"/>
			<path fill="#231F20" d="M129.73,79.315h1.911v9.19h-1.911V79.315z"/>
			<path fill="#231F20" d="M133.252,79.328h2.04v1.64h-2.04V79.328z M133.317,82.073h1.911v6.432h-1.911V82.073z"/>
			<path fill="#231F20" d="M136.93,83.23c0-0.025,0-0.725-0.039-1.169h1.833l0.052,0.966c0.181-0.292,0.697-1.119,2.117-1.119
				c1.277,0,1.82,0.763,1.988,1.208c0.142,0.394,0.181,0.725,0.181,1.919v3.47h-1.949v-3.991c0-0.267,0-0.496-0.104-0.699
				c-0.143-0.279-0.439-0.546-0.93-0.546c-0.413,0-0.787,0.191-0.994,0.496c-0.116,0.166-0.232,0.483-0.232,0.979v3.762h-1.923
				V83.23z"/>
			<path fill="#231F20" d="M144.722,79.328h2.04v1.64h-2.04V79.328z M144.786,82.073h1.911v6.432h-1.911V82.073z"/>
			<path fill="#231F20" d="M151.82,84.362c-0.026-0.229-0.104-1.182-0.84-1.182c-0.903,0-1.007,1.347-1.007,2.046
				c0,0.356,0.039,1.5,0.478,1.97c0.181,0.19,0.375,0.216,0.517,0.216c0.207,0,0.801-0.089,0.878-1.233h1.885
				c-0.025,0.496-0.091,1.271-0.839,1.894c-0.465,0.394-1.046,0.597-1.859,0.597c-0.864,0-1.626-0.19-2.22-0.852
				c-0.568-0.648-0.826-1.5-0.826-2.529c0-2.923,2.182-3.33,3.046-3.33c1.214,0,2.646,0.661,2.659,2.402H151.82z"/>
			<path fill="#231F20" d="M158.735,88.505c-0.064-0.394-0.064-0.687-0.064-0.877c-0.723,1.029-1.588,1.029-1.949,1.029
				c-0.942,0-1.368-0.267-1.626-0.508c-0.388-0.381-0.568-0.902-0.568-1.411c0-0.509,0.181-1.449,1.382-1.996
				c0.8-0.356,1.949-0.356,2.581-0.356c0-0.419-0.013-0.623-0.09-0.852c-0.168-0.47-0.672-0.534-0.853-0.534
				c-0.271,0-0.555,0.115-0.723,0.356c-0.142,0.216-0.142,0.419-0.142,0.572h-1.872c0.013-0.343,0.052-1.03,0.735-1.513
				c0.595-0.419,1.355-0.521,1.976-0.521c0.542,0,1.678,0.089,2.323,0.826c0.439,0.521,0.452,1.284,0.452,1.576l0.013,2.58
				c0,0.546,0.039,1.093,0.155,1.627H158.735z M156.386,86.522c0,0.432,0.297,0.915,0.929,0.915c0.349,0,0.633-0.165,0.813-0.369
				c0.336-0.407,0.361-0.902,0.361-1.588C157.264,85.378,156.386,85.76,156.386,86.522z"/>
			<path fill="#231F20" d="M161.996,79.315h1.911v9.19h-1.911V79.315z"/>
			<path fill="#231F20" d="M174.14,79.315l3.24,9.19h-2.014l-0.671-1.983h-3.692l-0.697,1.983h-1.91l3.369-9.19H174.14z
				 M174.192,85.035l-1.291-3.915l-1.381,3.915H174.192z"/>
			<path fill="#231F20" d="M180.137,85.569c0,0.432-0.025,1.741,1.691,1.741c1.084,0,1.769-0.508,1.769-1.284
				c0-0.813-0.581-0.953-1.769-1.233c-2.221-0.546-3.434-1.195-3.434-2.784c0-1.513,1.097-2.847,3.691-2.847
				c0.969,0,2.117,0.216,2.814,1.081c0.529,0.661,0.529,1.398,0.529,1.703h-1.924c-0.025-0.318-0.129-1.398-1.51-1.398
				c-0.93,0-1.536,0.496-1.536,1.246c0,0.852,0.684,1.004,2.026,1.335c1.613,0.381,3.201,0.813,3.201,2.605
				c0,1.652-1.394,2.987-3.976,2.987c-3.576,0-3.602-2.263-3.614-3.152H180.137z"/>
			<path fill="#231F20" d="M192.396,82.315c-0.039-0.318-0.155-1.614-1.51-1.614c-1.485,0-2.104,1.525-2.104,3.419
				c0,0.547,0,3.152,1.949,3.152c0.839,0,1.64-0.521,1.678-1.741h2.104c-0.039,0.546-0.091,1.398-0.839,2.161
				c-0.826,0.839-1.872,1.03-2.724,1.03c-3.215,0-4.261-2.339-4.261-4.614c0-2.911,1.652-4.843,4.273-4.843
				c2.039,0,3.473,1.22,3.473,3.051H192.396z"/>
			<path fill="#231F20" d="M197.194,79.353l2.439,7.207l2.453-7.207h1.975l-3.434,9.152h-2.182l-3.434-9.152H197.194z"/>
			<path fill="#231F20" d="M205.01,79.341l3.086,0.013c0.516,0,2.091,0.013,3.214,0.827c1.175,0.852,1.588,2.3,1.588,3.609
				c0,2.822-1.536,4.296-3.305,4.614c-0.349,0.063-0.736,0.102-1.679,0.102h-2.904V79.341z M207.037,86.992
				c0.219,0.013,0.555,0.025,0.787,0.025c0.852,0,1.588-0.063,2.169-0.635c0.787-0.775,0.839-2.148,0.839-2.593
				c0-1.296-0.452-2.491-1.704-2.834c-0.413-0.114-0.942-0.178-2.091-0.127V86.992z"/>
			<path fill="#231F20" d="M220.984,81.934c2.362,0,3.383,1.576,3.383,3.368c0,1.805-1.059,3.432-3.421,3.432
				c-1.859,0-3.331-1.131-3.331-3.381C217.615,83.802,218.415,81.934,220.984,81.934z M221.01,87.425
				c0.839,0,1.407-0.496,1.407-2.199c0-0.852-0.168-2.034-1.434-2.034c-1.394,0-1.407,1.589-1.407,2.173
				C219.576,86.802,220.068,87.425,221.01,87.425z"/>
			<path fill="#231F20" d="M225.794,83.662c0-0.305-0.052-1.233-0.09-1.602h1.794l0.039,1.233c0.245-0.546,0.671-1.322,2.22-1.246
				v1.69c-1.936-0.178-2.052,0.801-2.052,1.602v3.165h-1.911V83.662z"/>
			<path fill="#231F20" d="M238.711,79.328h1.924v8.135c0,0.381,0.025,0.801,0.052,1.042h-1.937l-0.052-0.928
				c-0.129,0.229-0.258,0.47-0.658,0.724c-0.478,0.305-0.981,0.331-1.266,0.331c-1.742,0-2.775-1.182-2.775-3.19
				c0-2.123,1.175-3.444,2.879-3.444c1.175,0,1.665,0.648,1.833,0.877V79.328z M237.253,87.412c0.555,0,1.007-0.33,1.213-0.724
				c0.284-0.534,0.31-1.195,0.31-1.513c0-1.258-0.555-1.945-1.42-1.945c-1.277,0-1.42,1.513-1.42,2.161
				C235.936,86.459,236.297,87.412,237.253,87.412z"/>
			<path fill="#231F20" d="M242.218,79.328h2.04v1.64h-2.04V79.328z M242.282,82.073h1.911v6.432h-1.911V82.073z"/>
			<path fill="#231F20" d="M249.78,88.505c-0.064-0.394-0.064-0.687-0.064-0.877c-0.723,1.029-1.588,1.029-1.949,1.029
				c-0.942,0-1.368-0.267-1.626-0.508c-0.388-0.381-0.568-0.902-0.568-1.411c0-0.509,0.181-1.449,1.382-1.996
				c0.8-0.356,1.949-0.356,2.581-0.356c0-0.419-0.013-0.623-0.09-0.852c-0.168-0.47-0.672-0.534-0.853-0.534
				c-0.271,0-0.555,0.115-0.723,0.356c-0.142,0.216-0.142,0.419-0.142,0.572h-1.872c0.013-0.343,0.052-1.03,0.735-1.513
				c0.595-0.419,1.355-0.521,1.976-0.521c0.542,0,1.678,0.089,2.323,0.826c0.439,0.521,0.452,1.284,0.452,1.576l0.013,2.58
				c0,0.546,0.039,1.093,0.155,1.627H249.78z M247.431,86.522c0,0.432,0.297,0.915,0.929,0.915c0.349,0,0.633-0.165,0.813-0.369
				c0.336-0.407,0.361-0.902,0.361-1.588C248.309,85.378,247.431,85.76,247.431,86.522z"/>
			<path fill="#231F20" d="M252.978,79.341h1.911v3.521c0.645-0.839,1.51-0.864,1.846-0.864c1.588,0,2.84,1.233,2.84,3.394
				c0,2.402-1.42,3.241-2.724,3.241c-0.336,0-1.368-0.025-1.962-1.029c-0.014,0.203-0.026,0.508-0.065,0.902h-1.846V79.341z
				 M256.218,83.256c-1.407,0-1.407,1.576-1.407,1.983c0,1.462,0.633,2.161,1.498,2.161c1.316,0,1.316-1.614,1.316-1.944
				C257.625,84.946,257.599,83.256,256.218,83.256z"/>
			<path fill="#231F20" d="M262.461,85.772c0,0.419,0,1.716,1.33,1.716c0.478,0,0.955-0.178,1.136-0.89h1.743
				c-0.026,0.305-0.091,0.852-0.62,1.398c-0.478,0.496-1.329,0.75-2.285,0.75c-0.555,0-1.613-0.102-2.298-0.801
				c-0.594-0.61-0.839-1.475-0.839-2.504c0-1.042,0.259-2.288,1.355-3.038c0.504-0.331,1.123-0.534,1.833-0.534
				c0.93,0,2.04,0.356,2.634,1.55c0.438,0.877,0.413,1.818,0.387,2.352H262.461z M264.888,84.59c0-0.292-0.025-1.436-1.136-1.436
				c-0.839,0-1.188,0.687-1.227,1.436H264.888z"/>
			<path fill="#231F20" d="M271.932,88.416c-0.619,0.165-1.175,0.203-1.484,0.203c-1.924,0-1.924-1.195-1.924-1.729V83.37h-1.252
				v-1.246h1.252v-1.258l1.898-0.686v1.944h1.549v1.246h-1.549v2.898c0.013,0.584,0.013,0.953,0.864,0.953
				c0.284,0,0.413-0.013,0.646-0.038V88.416z"/>
			<path fill="#231F20" d="M274.653,85.772c0,0.419,0,1.716,1.33,1.716c0.478,0,0.955-0.178,1.136-0.89h1.743
				c-0.026,0.305-0.091,0.852-0.62,1.398c-0.478,0.496-1.329,0.75-2.285,0.75c-0.555,0-1.613-0.102-2.298-0.801
				c-0.594-0.61-0.839-1.475-0.839-2.504c0-1.042,0.259-2.288,1.355-3.038c0.504-0.331,1.123-0.534,1.833-0.534
				c0.93,0,2.04,0.356,2.634,1.55c0.438,0.877,0.413,1.818,0.387,2.352H274.653z M277.079,84.59c0-0.292-0.025-1.436-1.136-1.436
				c-0.839,0-1.188,0.687-1.227,1.436H277.079z"/>
			<path fill="#231F20" d="M281.62,86.649c0.025,0.407,0.284,0.877,1.084,0.877c0.685,0,1.007-0.381,1.007-0.763
				c0-0.292-0.154-0.521-0.903-0.725l-1.188-0.318c-0.529-0.152-1.652-0.47-1.652-1.779c0-1.246,1.161-2.008,2.853-2.008
				c1.343,0,2.427,0.61,2.479,1.894h-1.742c-0.052-0.712-0.633-0.763-0.93-0.763c-0.517,0-0.904,0.241-0.904,0.635
				c0,0.432,0.323,0.521,0.892,0.674l1.175,0.318c1.188,0.317,1.742,0.915,1.742,1.792c0,1.106-0.968,2.211-2.995,2.211
				c-0.839,0-1.64-0.178-2.233-0.788c-0.426-0.445-0.464-0.954-0.478-1.259H281.62z"/>
			<path fill="#231F20" d="M294.239,88.505c-0.064-0.394-0.064-0.687-0.064-0.877c-0.723,1.029-1.588,1.029-1.949,1.029
				c-0.942,0-1.368-0.267-1.626-0.508c-0.388-0.381-0.568-0.902-0.568-1.411c0-0.509,0.181-1.449,1.382-1.996
				c0.8-0.356,1.949-0.356,2.581-0.356c0-0.419-0.013-0.623-0.09-0.852c-0.168-0.47-0.672-0.534-0.853-0.534
				c-0.271,0-0.555,0.115-0.723,0.356c-0.142,0.216-0.142,0.419-0.142,0.572h-1.872c0.013-0.343,0.052-1.03,0.735-1.513
				c0.595-0.419,1.355-0.521,1.976-0.521c0.542,0,1.678,0.089,2.323,0.826c0.439,0.521,0.452,1.284,0.452,1.576l0.013,2.58
				c0,0.546,0.039,1.093,0.155,1.627H294.239z M291.89,86.522c0,0.432,0.297,0.915,0.929,0.915c0.349,0,0.633-0.165,0.813-0.369
				c0.336-0.407,0.361-0.902,0.361-1.588C292.768,85.378,291.89,85.76,291.89,86.522z"/>
			<path fill="#231F20" d="M297.527,83.23c0-0.025,0-0.725-0.039-1.169h1.833l0.052,0.966c0.181-0.292,0.697-1.119,2.117-1.119
				c1.277,0,1.82,0.763,1.987,1.208c0.143,0.394,0.182,0.725,0.182,1.919v3.47h-1.949v-3.991c0-0.267,0-0.496-0.104-0.699
				c-0.143-0.279-0.439-0.546-0.93-0.546c-0.413,0-0.787,0.191-0.994,0.496c-0.116,0.166-0.232,0.483-0.232,0.979v3.762h-1.923
				V83.23z"/>
			<path fill="#231F20" d="M309.695,79.328h1.924v8.135c0,0.381,0.025,0.801,0.052,1.042h-1.937l-0.052-0.928
				c-0.129,0.229-0.258,0.47-0.658,0.724c-0.478,0.305-0.981,0.331-1.266,0.331c-1.742,0-2.775-1.182-2.775-3.19
				c0-2.123,1.175-3.444,2.879-3.444c1.175,0,1.665,0.648,1.833,0.877V79.328z M308.237,87.412c0.555,0,1.007-0.33,1.213-0.724
				c0.284-0.534,0.31-1.195,0.31-1.513c0-1.258-0.555-1.945-1.42-1.945c-1.277,0-1.42,1.513-1.42,2.161
				C306.919,86.459,307.281,87.412,308.237,87.412z"/>
			<path fill="#231F20" d="M318.105,82.086l1.201,4.843l1.381-4.843h2.104l1.368,4.843l1.278-4.843h1.897l-2.233,6.419h-2.078
				l-1.343-4.754l-1.368,4.754h-2.104l-2.13-6.419H318.105z"/>
			<path fill="#231F20" d="M328.258,79.328h2.04v1.64h-2.04V79.328z M328.323,82.073h1.911v6.432h-1.911V82.073z"/>
			<path fill="#231F20" d="M335.742,88.416c-0.619,0.165-1.175,0.203-1.484,0.203c-1.924,0-1.924-1.195-1.924-1.729V83.37h-1.252
				v-1.246h1.252v-1.258l1.898-0.686v1.944h1.549v1.246h-1.549v2.898c0.013,0.584,0.013,0.953,0.864,0.953
				c0.284,0,0.413-0.013,0.646-0.038V88.416z"/>
			<path fill="#231F20" d="M336.979,79.328h1.897v3.635c0.22-0.305,0.697-0.966,1.885-0.966c0.969,0,1.588,0.47,1.897,0.864
				c0.232,0.318,0.427,0.902,0.427,1.741v3.902h-1.898v-3.838c0-0.369,0-1.398-1.071-1.398c-0.542,0-1.227,0.305-1.227,1.309
				l0.014,3.928h-1.924V79.328z"/>
			<path fill="#231F20" d="M348.515,78.634h2.191v8.189h4.3v1.682h-6.491V78.634z"/>
			<path fill="#231F20" d="M356.17,78.648l3.315,0.014c0.555,0,2.247,0.014,3.453,0.889c1.263,0.916,1.706,2.475,1.706,3.883
				c0,3.035-1.65,4.621-3.551,4.963c-0.374,0.068-0.79,0.109-1.803,0.109h-3.121V78.648z M358.348,86.878
				c0.236,0.014,0.597,0.027,0.846,0.027c0.916,0,1.706-0.068,2.331-0.684c0.846-0.834,0.901-2.311,0.901-2.789
				c0-1.395-0.485-2.68-1.831-3.049c-0.444-0.123-1.013-0.191-2.247-0.137V86.878z"/>
			<path fill="#231F20" d="M366.238,78.634h2.191v8.189h4.3v1.682h-6.491V78.634z"/>
			<path fill="#231F20" d="M373.602,84.116h3.439v1.545h-3.439V84.116z"/>
			<path fill="#231F20" d="M384.212,81.847c-0.042-0.342-0.167-1.736-1.623-1.736c-1.595,0-2.261,1.641-2.261,3.678
				c0,0.588,0,3.391,2.094,3.391c0.902,0,1.762-0.561,1.804-1.873h2.261c-0.042,0.588-0.097,1.504-0.901,2.324
				c-0.888,0.902-2.012,1.107-2.927,1.107c-3.454,0-4.577-2.516-4.577-4.963c0-3.131,1.775-5.209,4.591-5.209
				c2.191,0,3.731,1.313,3.731,3.281H384.212z"/>
			<path fill="#231F20" d="M387.069,83.349l1.828-5.034h1.262l1.763,5.026v0.613h-4.853V83.349z M390.789,83.118l-0.85-2.262
				c-0.121-0.422-0.355-1.075-0.444-1.417h-0.024c-0.064,0.279-0.291,0.86-0.412,1.298l-0.898,2.381H390.789z"/>
			<path fill="#231F20" d="M396.203,79.646h6.106v1.576l-3.099,7.283h-2.155l3.291-7.385h-4.144V79.646z"/>
			<path fill="#231F20" d="M406.527,79.506c1.266,0,2.015,0.674,2.35,1.169c0.465,0.673,0.813,1.538,0.813,3.203
				c0,2.059-0.478,4.766-3.188,4.766c-2.311,0-3.111-2.186-3.111-4.55C403.39,82.912,403.635,79.506,406.527,79.506z M407.521,82.01
				c-0.052-0.242-0.271-1.03-0.98-1.03c-0.556,0-0.801,0.496-0.891,0.763c-0.297,0.903-0.297,2.263-0.297,2.479
				c0,1.513,0.231,2.924,1.2,2.924c1.032,0,1.2-1.729,1.2-2.949C407.753,83.637,407.689,82.594,407.521,82.01z"/>
			<path fill="#231F20" d="M410.641,84.425h3.201v1.436h-3.201V84.425z"/>
			<path fill="#231F20" d="M415.595,80.968c0.839-0.355,1.64-0.801,2.388-1.334h1.665v8.872h-1.949v-6.902
				c-0.374,0.28-1.123,0.737-2.104,1.131V80.968z"/>
			<path fill="#231F20" d="M422.084,81.959c0-1.081,0.917-2.479,3.111-2.479c1.808,0,3.06,1.017,3.06,2.402
				c0,1.067-0.853,1.805-1.769,1.945c0.361,0.102,0.968,0.254,1.445,0.915c0.311,0.432,0.413,0.89,0.413,1.322
				c0,1.627-1.536,2.58-3.305,2.58c-1.833,0-3.098-1.157-3.098-2.58c0-0.687,0.271-1.182,0.658-1.551
				c0.438-0.419,0.852-0.546,1.188-0.661C423.336,83.713,422.084,83.332,422.084,81.959z M426.448,85.938
				c0-0.801-0.606-1.284-1.291-1.284c-0.748,0-1.291,0.559-1.291,1.309c0,0.902,0.685,1.322,1.304,1.322
				C425.712,87.285,426.448,86.929,426.448,85.938z M426.383,81.985c0-0.725-0.594-1.106-1.2-1.106
				c-0.646,0-1.175,0.432-1.175,1.106c0,0.623,0.451,1.144,1.161,1.144C425.828,83.129,426.383,82.697,426.383,81.985z"/>
			<path fill="#231F20" d="M431.09,86.344c0.052,0.534,0.4,0.864,0.942,0.864c1.343,0,1.446-1.373,1.407-2.593
				c-0.646,0.572-1.227,0.61-1.627,0.61c-2.207,0-2.775-1.729-2.775-2.784c0-1.652,1.201-2.911,3.189-2.911
				c3.098,0,3.175,2.898,3.175,4.322c0,3.75-1.291,4.817-3.473,4.817c-0.503,0-2.788,0-2.788-2.326H431.09z M433.401,82.315
				c0-0.775-0.413-1.348-1.2-1.348c-0.916,0-1.252,0.725-1.252,1.398c0,0.305,0.09,1.398,1.213,1.398
				C433.117,83.764,433.401,82.938,433.401,82.315z"/>
			<path fill="#231F20" d="M440.353,83.294c0-0.407-0.026-0.801-0.064-1.208h1.846l0.064,0.826c0.207-0.279,0.71-0.966,2.014-0.966
				c1.498,0,1.924,0.902,2.053,1.208c0.542-1.03,1.42-1.195,2.091-1.195c1.317,0,1.847,0.775,1.988,1.029
				c0.349,0.56,0.323,1.335,0.323,1.894v3.623h-1.924V84.73c0-0.687-0.104-1.449-1.098-1.449c-1.148,0-1.174,1.055-1.174,2.008
				v3.216h-1.924v-3.813c0-0.496-0.013-1.411-1.071-1.411c-1.201,0-1.201,1.017-1.201,1.449v3.775h-1.923V83.294z"/>
			<path fill="#231F20" d="M458.677,82.112c-0.052,0.509-0.091,0.941-0.091,1.589v4.741c0,2.364-2,2.593-3.253,2.593
				c-0.929,0-2.749-0.114-2.865-2.059h1.833c0.025,0.191,0.116,0.89,1.136,0.89c0.568,0,1.059-0.267,1.188-0.839
				c0.078-0.317,0.078-0.546,0.091-1.525c-0.607,0.788-1.291,0.877-1.756,0.877c-1.872,0-2.75-1.602-2.75-3.152
				c0-1.627,0.917-3.178,2.789-3.178c1.188,0,1.626,0.636,1.82,0.915l0.064-0.852H458.677z M455.398,87.094
				c1.343,0,1.343-1.551,1.343-1.831c0-0.725-0.142-1.958-1.304-1.958c-0.723,0-1.316,0.547-1.316,1.919
				C454.12,85.544,454.12,87.094,455.398,87.094z"/>
			<path fill="#231F20" d="M464.894,79.379l-3.473,9.126h-1.511l3.499-9.126H464.894z"/>
			<path fill="#231F20" d="M470.415,79.328h1.924v8.135c0,0.381,0.025,0.801,0.052,1.042h-1.937l-0.052-0.928
				c-0.129,0.229-0.258,0.47-0.658,0.724c-0.478,0.305-0.981,0.331-1.266,0.331c-1.742,0-2.775-1.182-2.775-3.19
				c0-2.123,1.175-3.444,2.879-3.444c1.175,0,1.665,0.648,1.833,0.877V79.328z M468.957,87.412c0.555,0,1.007-0.33,1.213-0.724
				c0.284-0.534,0.31-1.195,0.31-1.513c0-1.258-0.555-1.945-1.42-1.945c-1.277,0-1.42,1.513-1.42,2.161
				C467.64,86.459,468.001,87.412,468.957,87.412z"/>
			<path fill="#231F20" d="M474.038,79.328h2.04v7.614h4.001v1.563h-6.041V79.328z"/>
			<path fill="#231F20" d="M481.276,86.815h1.64v1.69h-1.64V86.815z"/>
		</g>
	</g>
</g>
</svg>
