<?xml version="1.0" encoding="utf-8"?>
<!-- Generator: Adobe Illustrator 17.0.0, SVG Export Plug-In . SVG Version: 6.00 Build 0)  -->
<!DOCTYPE svg PUBLIC "-//W3C//DTD SVG 1.1//EN" "http://www.w3.org/Graphics/SVG/1.1/DTD/svg11.dtd">
<svg version="1.1" id="Layer_1" xmlns="http://www.w3.org/2000/svg" xmlns:xlink="http://www.w3.org/1999/xlink" x="0px" y="0px"
	 width="184.872px" height="31.999px" viewBox="0 0 184.872 31.999" enable-background="new 0 0 184.872 31.999"
	 xml:space="preserve">
<g>
	<g>
		<g>
			<path fill="#484849" d="M14.691,0h1.848l3.712,11.425h-1.627l-0.821-2.722h-4.406l-0.853,2.722h-1.469L14.691,0z M15.576,1.346
				h-0.032L13.76,7.438h3.648L15.576,1.346z"/>
			<path fill="#484849" d="M25.844,0h1.295v11.425h-1.295v-0.949h-0.031c-0.442,0.743-0.995,1.107-1.832,1.107
				c-1.279,0-2.574-0.506-2.574-4.02c0-1.993,0.063-4.288,2.637-4.288c0.759,0,1.312,0.333,1.753,0.966h0.048V0z M24.344,4.336
				c-1.39,0-1.58,1.107-1.58,3.244c0,1.202,0,2.942,1.627,2.942c1.453,0,1.453-1.804,1.453-3.417
				C25.844,6.045,25.78,4.336,24.344,4.336z"/>
			<path fill="#484849" d="M33.79,3.434h1.295v6.33c0,0.554,0.031,1.107,0.079,1.661H33.79V10.46h-0.047
				c-0.427,0.728-1.185,1.123-2.021,1.123c-1.391,0-2.148-0.696-2.148-2.057V3.434h1.295v5.539c0,0.965,0.442,1.613,1.358,1.613
				c0.695,0,1.563-0.521,1.563-1.852V3.434z"/>
			<path fill="#484849" d="M38.688,11.425h-1.295V0h1.295V11.425z"/>
			<path fill="#484849" d="M41.073,3.434V1.899l1.295-0.586v2.12h1.737v0.981h-1.737v4.89c0,0.506,0,1.155,1.185,1.155
				c0.095,0,0.3-0.032,0.585-0.063v0.997c-0.427,0.031-0.854,0.126-1.279,0.126c-1.232,0-1.785-0.506-1.785-1.424V4.415h-1.311
				V3.434H41.073z"/>
			<path fill="#484849" d="M47.676,11.583c-1.722,0-2.795-0.76-2.748-2.595h1.469c0,0.459,0.016,1.534,1.327,1.534
				c0.773,0,1.374-0.396,1.374-1.218c0-1.424-3.98-1.456-3.98-3.846c0-0.838,0.506-2.184,2.748-2.184
				c1.422,0,2.638,0.681,2.527,2.263h-1.438c0.016-0.838-0.426-1.281-1.247-1.281c-0.695,0-1.232,0.38-1.232,1.076
				c0,1.408,3.979,1.376,3.979,3.813C50.455,10.902,49.255,11.583,47.676,11.583z"/>
			<path fill="#484849" d="M59.949,10.27h-0.031c-0.395,0.918-1.011,1.313-2.006,1.313c-1.689,0-2.18-1.092-2.18-2.627
				c0-2.421,2.369-2.531,4.186-2.484c0.031-1.06,0.047-2.215-1.343-2.215c-0.868,0-1.326,0.585-1.247,1.424h-1.406
				c0.063-1.788,1.011-2.405,2.701-2.405c2.053,0,2.59,1.061,2.59,2.405v3.846c0,0.633,0.063,1.281,0.158,1.898h-1.422V10.27z
				 M57.028,9.052c0,0.774,0.379,1.471,1.247,1.471c0.79,0,1.769-0.49,1.643-3.069C58.687,7.469,57.028,7.358,57.028,9.052z"/>
			<path fill="#484849" d="M67.959,3.434h1.295v8.798c0,1.788-1.185,2.216-2.938,2.216c-1.327,0-2.527-0.665-2.417-2.137h1.453
				c0.016,0.744,0.506,1.155,1.216,1.155c0.9,0,1.391-0.554,1.391-1.376v-1.662h-0.048c-0.332,0.633-1.059,0.997-1.753,0.997
				c-2.164,0-2.59-1.867-2.59-4.24c0-3.672,1.848-3.909,2.495-3.909c0.837,0,1.5,0.364,1.863,1.14h0.032V3.434z M66.442,4.352
				c-1.469,0-1.516,1.772-1.516,2.833c0,2.563,0.584,3.164,1.547,3.164c1.563,0,1.517-1.852,1.517-2.959
				C67.99,6.203,68.069,4.352,66.442,4.352z"/>
			<path fill="#484849" d="M72.904,7.849c0,2.231,0.6,2.674,1.61,2.674c0.885,0,1.343-0.712,1.391-1.519h1.421
				c-0.016,1.772-1.105,2.579-2.779,2.579c-1.69,0-3.032-0.506-3.032-4.035c0-2.342,0.269-4.272,3.032-4.272
				c2.273,0,2.843,1.25,2.843,3.893v0.681H72.904z M76.016,6.867c0-2.325-0.647-2.61-1.596-2.61c-0.821,0-1.5,0.396-1.516,2.61
				H76.016z"/>
			<path fill="#484849" d="M87.91,7.422l-5.354-2.991V3.275l6.585,3.64v1.013l-6.585,3.703v-1.155L87.91,7.422z"/>
			<path fill="#484849" d="M90.486,11.425v-1.266c3.206-4.494,4.153-5.317,4.153-7.216c0-0.87-0.426-1.456-1.357-1.456
				c-1.09,0-1.296,0.902-1.279,1.788h-1.485c-0.126-1.819,0.79-3.006,2.653-3.006c1.975,0,2.922,0.901,2.922,2.88
				c0,2.452-1.231,3.275-4.059,7.01h4.343v1.266H90.486z"/>
			<path fill="#484849" d="M101.385,11.425h-1.452V2.042L98.29,3.149V1.757c0.363-0.158,1.405-0.949,1.848-1.313h1.247V11.425z"/>
			<path fill="#484849" d="M110.879,9.938h0.032l1.91-6.504h1.406l-3.617,11.014h-1.342l0.9-3.022l-2.701-7.991h1.5L110.879,9.938z"
				/>
			<path fill="#484849" d="M116.756,7.849c0,2.231,0.6,2.674,1.61,2.674c0.885,0,1.343-0.712,1.391-1.519h1.421
				c-0.016,1.772-1.105,2.579-2.779,2.579c-1.69,0-3.032-0.506-3.032-4.035c0-2.342,0.269-4.272,3.032-4.272
				c2.273,0,2.843,1.25,2.843,3.893v0.681H116.756z M119.867,6.867c0-2.325-0.647-2.61-1.596-2.61c-0.821,0-1.5,0.396-1.516,2.61
				H119.867z"/>
			<path fill="#484849" d="M127.497,10.27h-0.031c-0.395,0.918-1.011,1.313-2.006,1.313c-1.689,0-2.18-1.092-2.18-2.627
				c0-2.421,2.369-2.531,4.186-2.484c0.031-1.06,0.047-2.215-1.343-2.215c-0.868,0-1.326,0.585-1.247,1.424h-1.406
				c0.063-1.788,1.011-2.405,2.701-2.405c2.053,0,2.59,1.061,2.59,2.405v3.846c0,0.633,0.063,1.281,0.158,1.898h-1.422V10.27z
				 M124.576,9.052c0,0.774,0.379,1.471,1.247,1.471c0.79,0,1.769-0.49,1.643-3.069C126.234,7.469,124.576,7.358,124.576,9.052z"/>
			<path fill="#484849" d="M132.632,4.637h0.032c0.536-1.219,1.2-1.361,2.463-1.361v1.346c-0.11-0.017-0.236-0.032-0.347-0.048
				c-0.111-0.016-0.222-0.031-0.348-0.031c-1.438,0-1.801,1.092-1.801,2.167v4.716h-1.295V3.434h1.295V4.637z"/>
			<path fill="#484849" d="M138.903,11.583c-1.722,0-2.796-0.76-2.748-2.595h1.469c0,0.459,0.016,1.534,1.326,1.534
				c0.774,0,1.374-0.396,1.374-1.218c0-1.424-3.979-1.456-3.979-3.846c0-0.838,0.505-2.184,2.748-2.184
				c1.421,0,2.637,0.681,2.526,2.263h-1.437c0.016-0.838-0.427-1.281-1.248-1.281c-0.694,0-1.231,0.38-1.231,1.076
				c0,1.408,3.979,1.376,3.979,3.813C141.683,10.902,140.482,11.583,138.903,11.583z"/>
			<path fill="#484849" d="M151.177,10.27h-0.032c-0.395,0.918-1.011,1.313-2.005,1.313c-1.69,0-2.18-1.092-2.18-2.627
				c0-2.421,2.369-2.531,4.185-2.484c0.032-1.06,0.048-2.215-1.342-2.215c-0.869,0-1.327,0.585-1.248,1.424h-1.405
				c0.063-1.788,1.011-2.405,2.7-2.405c2.054,0,2.591,1.061,2.591,2.405v3.846c0,0.633,0.063,1.281,0.157,1.898h-1.421V10.27z
				 M148.255,9.052c0,0.774,0.379,1.471,1.248,1.471c0.789,0,1.769-0.49,1.642-3.069C149.913,7.469,148.255,7.358,148.255,9.052z"/>
			<path fill="#484849" d="M159.297,11.425V5.887c0-0.854-0.301-1.551-1.406-1.551c-1.421,0-1.626,1.266-1.626,2.357v4.731h-1.295
				V5.096c0-0.554-0.032-1.107-0.079-1.662h1.374v1.029h0.063c0.506-0.902,1.105-1.188,2.133-1.188c1.705,0,2.132,1.029,2.132,2.611
				v5.538H159.297z"/>
			<path fill="#484849" d="M167.085,0h1.295v11.425h-1.295v-0.949h-0.032c-0.442,0.743-0.995,1.107-1.832,1.107
				c-1.279,0-2.574-0.506-2.574-4.02c0-1.993,0.063-4.288,2.638-4.288c0.758,0,1.311,0.333,1.753,0.966h0.048V0z M165.584,4.336
				c-1.39,0-1.579,1.107-1.579,3.244c0,1.202,0,2.942,1.627,2.942c1.453,0,1.453-1.804,1.453-3.417
				C167.085,6.045,167.021,4.336,165.584,4.336z"/>
		</g>
	</g>
	<g>
		<g>
			<path fill="#484849" d="M4.217,27.821H4.186c-0.395,0.918-1.011,1.313-2.006,1.313C0.49,29.135,0,28.043,0,26.508
				c0-2.421,2.369-2.531,4.186-2.484c0.031-1.06,0.047-2.215-1.343-2.215c-0.868,0-1.326,0.586-1.247,1.424H0.189
				c0.063-1.788,1.011-2.405,2.701-2.405c2.053,0,2.59,1.061,2.59,2.405v3.846c0,0.633,0.063,1.281,0.158,1.898H4.217V27.821z
				 M1.296,26.604c0,0.774,0.379,1.471,1.247,1.471c0.79,0,1.769-0.49,1.643-3.069C2.954,25.021,1.296,24.91,1.296,26.604z"/>
			<path fill="#484849" d="M15.686,23.549c0.031-1.313-0.616-1.661-1.105-1.661c-0.995,0-1.674,0.475-1.674,2.658
				c0,2.595,0.331,3.528,1.674,3.528c0.3,0,1.2-0.316,1.153-1.756h1.357c0.048,2.247-1.626,2.816-2.511,2.816
				c-1.689,0-3.032-0.506-3.032-4.035c0-2.342,0.269-4.272,3.032-4.272c1.595,0,2.526,0.934,2.448,2.722H15.686z"/>
			<path fill="#484849" d="M23.521,27.821h-0.032c-0.395,0.918-1.011,1.313-2.005,1.313c-1.69,0-2.18-1.092-2.18-2.627
				c0-2.421,2.369-2.531,4.185-2.484c0.032-1.06,0.048-2.215-1.342-2.215c-0.869,0-1.327,0.586-1.248,1.424h-1.405
				c0.063-1.788,1.011-2.405,2.7-2.405c2.054,0,2.591,1.061,2.591,2.405v3.846c0,0.633,0.063,1.281,0.157,1.898h-1.421V27.821z
				 M20.6,26.604c0,0.774,0.379,1.471,1.248,1.471c0.789,0,1.769-0.49,1.642-3.069C22.258,25.021,20.6,24.91,20.6,26.604z"/>
			<path fill="#484849" d="M31.641,28.977v-5.538c0-0.854-0.3-1.551-1.405-1.551c-1.422,0-1.627,1.266-1.627,2.357v4.731h-1.295
				v-6.329c0-0.554-0.031-1.107-0.079-1.662h1.374v1.029h0.063c0.505-0.902,1.105-1.188,2.132-1.188
				c1.706,0,2.132,1.029,2.132,2.611v5.538H31.641z"/>
			<path fill="#484849" d="M39.429,17.552h1.295v11.425h-1.295v-0.949h-0.031c-0.442,0.743-0.995,1.107-1.832,1.107
				c-1.279,0-2.574-0.506-2.574-4.02c0-1.993,0.063-4.288,2.637-4.288c0.759,0,1.312,0.333,1.753,0.966h0.048V17.552z
				 M37.929,21.888c-1.39,0-1.58,1.107-1.58,3.244c0,1.202,0,2.942,1.627,2.942c1.453,0,1.453-1.804,1.453-3.417
				C39.429,23.597,39.365,21.888,37.929,21.888z"/>
			<path fill="#484849" d="M43,17.552h1.453v1.393H43V17.552z M44.374,28.977h-1.295v-7.991h1.295V28.977z"/>
			<path fill="#484849" d="M50.835,17.552h1.295v11.425h-1.295v-0.949h-0.032c-0.442,0.743-0.995,1.107-1.832,1.107
				c-1.279,0-2.574-0.506-2.574-4.02c0-1.993,0.063-4.288,2.638-4.288c0.758,0,1.311,0.333,1.753,0.966h0.048V17.552z
				 M49.334,21.888c-1.39,0-1.579,1.107-1.579,3.244c0,1.202,0,2.942,1.627,2.942c1.453,0,1.453-1.804,1.453-3.417
				C50.835,23.597,50.771,21.888,49.334,21.888z"/>
			<path fill="#484849" d="M58.622,27.821h-0.031c-0.395,0.918-1.011,1.313-2.006,1.313c-1.689,0-2.18-1.092-2.18-2.627
				c0-2.421,2.369-2.531,4.186-2.484c0.031-1.06,0.047-2.215-1.343-2.215c-0.868,0-1.326,0.586-1.247,1.424h-1.406
				c0.063-1.788,1.011-2.405,2.701-2.405c2.053,0,2.59,1.061,2.59,2.405v3.846c0,0.633,0.063,1.281,0.158,1.898h-1.422V27.821z
				 M55.701,26.604c0,0.774,0.379,1.471,1.247,1.471c0.79,0,1.769-0.49,1.643-3.069C57.359,25.021,55.701,24.91,55.701,26.604z"/>
			<path fill="#484849" d="M62.557,20.985v-1.534l1.295-0.586v2.12h1.737v0.981h-1.737v4.89c0,0.506,0,1.155,1.185,1.155
				c0.095,0,0.3-0.032,0.585-0.063v0.997c-0.427,0.031-0.854,0.126-1.279,0.126c-1.232,0-1.785-0.506-1.785-1.424v-5.681h-1.311
				v-0.981H62.557z"/>
			<path fill="#484849" d="M68.069,25.4c0,2.231,0.601,2.674,1.611,2.674c0.885,0,1.343-0.712,1.39-1.519h1.421
				c-0.016,1.772-1.105,2.579-2.779,2.579c-1.689,0-3.032-0.506-3.032-4.035c0-2.342,0.269-4.272,3.032-4.272
				c2.274,0,2.843,1.25,2.843,3.893V25.4H68.069z M71.181,24.42c0-2.326-0.647-2.611-1.595-2.611c-0.821,0-1.5,0.396-1.517,2.611
				H71.181z"/>
			<path fill="#484849" d="M78.449,20.985v-1.55c0-1.614,1.137-1.931,2.29-1.931c0.269,0,0.426,0.016,0.615,0.047v0.934
				c-1.374-0.095-1.61,0.491-1.61,1.14v1.36h1.61v0.981h-1.61v7.01h-1.295v-7.01h-1.232v-0.981H78.449z"/>
			<path fill="#484849" d="M82.383,25.1c0-2.342,0.269-4.272,3.032-4.272s3.032,1.931,3.032,4.272c0,3.529-1.343,4.035-3.032,4.035
				C83.725,29.135,82.383,28.629,82.383,25.1z M87.089,24.546c0-2.184-0.679-2.658-1.674-2.658s-1.675,0.475-1.675,2.658
				c0,2.595,0.332,3.528,1.675,3.528C86.757,28.074,87.089,27.141,87.089,24.546z"/>
			<path fill="#484849" d="M91.845,22.188h0.031c0.537-1.219,1.2-1.361,2.464-1.361v1.346c-0.11-0.017-0.237-0.032-0.348-0.048
				s-0.221-0.031-0.348-0.031c-1.437,0-1.8,1.092-1.8,2.167v4.716H90.55v-7.991h1.295V22.188z"/>
			<path fill="#484849" d="M101.622,29.135c-1.722,0-2.795-0.76-2.748-2.595h1.469c0,0.459,0.016,1.534,1.327,1.534
				c0.773,0,1.374-0.396,1.374-1.218c0-1.425-3.98-1.456-3.98-3.846c0-0.838,0.506-2.184,2.748-2.184
				c1.422,0,2.638,0.681,2.527,2.263h-1.438c0.016-0.838-0.426-1.281-1.247-1.281c-0.695,0-1.232,0.38-1.232,1.076
				c0,1.408,3.979,1.376,3.979,3.813C104.401,28.454,103.201,29.135,101.622,29.135z"/>
			<path fill="#484849" d="M106.425,20.985v-1.534l1.295-0.586v2.12h1.737v0.981h-1.737v4.89c0,0.506,0,1.155,1.185,1.155
				c0.095,0,0.3-0.032,0.585-0.063v0.997c-0.427,0.031-0.854,0.126-1.279,0.126c-1.232,0-1.785-0.506-1.785-1.424v-5.681h-1.311
				v-0.981H106.425z"/>
			<path fill="#484849" d="M114.78,27.821h-0.031c-0.395,0.918-1.011,1.313-2.006,1.313c-1.689,0-2.18-1.092-2.18-2.627
				c0-2.421,2.369-2.531,4.186-2.484c0.031-1.06,0.047-2.215-1.343-2.215c-0.868,0-1.326,0.586-1.247,1.424h-1.406
				c0.063-1.788,1.011-2.405,2.701-2.405c2.053,0,2.59,1.061,2.59,2.405v3.846c0,0.633,0.063,1.281,0.158,1.898h-1.422V27.821z
				 M111.859,26.604c0,0.774,0.379,1.471,1.247,1.471c0.79,0,1.769-0.49,1.643-3.069C113.518,25.021,111.859,24.91,111.859,26.604z"
				/>
			<path fill="#484849" d="M118.716,20.985v-1.534l1.295-0.586v2.12h1.737v0.981h-1.737v4.89c0,0.506,0,1.155,1.185,1.155
				c0.095,0,0.3-0.032,0.584-0.063v0.997c-0.427,0.031-0.853,0.126-1.279,0.126c-1.231,0-1.784-0.506-1.784-1.424v-5.681h-1.312
				v-0.981H118.716z"/>
			<path fill="#484849" d="M122.854,17.552h1.453v1.393h-1.453V17.552z M124.229,28.977h-1.295v-7.991h1.295V28.977z"/>
			<path fill="#484849" d="M130.799,28.977v-5.538c0-0.854-0.301-1.551-1.406-1.551c-1.421,0-1.626,1.266-1.626,2.357v4.731h-1.295
				v-6.329c0-0.554-0.032-1.107-0.079-1.662h1.374v1.029h0.063c0.506-0.902,1.105-1.188,2.133-1.188
				c1.705,0,2.132,1.029,2.132,2.611v5.538H130.799z"/>
			<path fill="#484849" d="M138.02,20.985v-1.534l1.295-0.586v2.12h1.737v0.981h-1.737v4.89c0,0.506,0,1.155,1.185,1.155
				c0.095,0,0.3-0.032,0.584-0.063v0.997c-0.427,0.031-0.853,0.126-1.279,0.126c-1.231,0-1.784-0.506-1.784-1.424v-5.681h-1.312
				v-0.981H138.02z"/>
			<path fill="#484849" d="M146.596,28.977v-5.411c0-0.981-0.315-1.678-1.421-1.678c-1.295,0-1.627,1.044-1.627,2.39v4.699h-1.295
				V17.552h1.295v4.463h0.063c0.521-0.934,1.121-1.188,2.163-1.188c1.358,0,2.116,0.681,2.116,2.484v5.665H146.596z"/>
			<path fill="#484849" d="M151.431,25.4c0,2.231,0.6,2.674,1.61,2.674c0.885,0,1.343-0.712,1.391-1.519h1.421
				c-0.016,1.772-1.105,2.579-2.779,2.579c-1.69,0-3.032-0.506-3.032-4.035c0-2.342,0.269-4.272,3.032-4.272
				c2.273,0,2.843,1.25,2.843,3.893V25.4H151.431z M154.542,24.42c0-2.326-0.647-2.611-1.596-2.611c-0.821,0-1.5,0.396-1.516,2.611
				H154.542z"/>
			<path fill="#484849" d="M159.408,22.188h0.031c0.537-1.219,1.2-1.361,2.464-1.361v1.346c-0.11-0.017-0.237-0.032-0.348-0.048
				s-0.221-0.031-0.348-0.031c-1.437,0-1.8,1.092-1.8,2.167v4.716h-1.295v-7.991h1.295V22.188z"/>
			<path fill="#484849" d="M167.433,27.821H167.4c-0.395,0.918-1.011,1.313-2.005,1.313c-1.69,0-2.18-1.092-2.18-2.627
				c0-2.421,2.369-2.531,4.185-2.484c0.032-1.06,0.048-2.215-1.342-2.215c-0.869,0-1.327,0.586-1.248,1.424h-1.405
				c0.063-1.788,1.011-2.405,2.7-2.405c2.054,0,2.591,1.061,2.591,2.405v3.846c0,0.633,0.063,1.281,0.157,1.898h-1.421V27.821z
				 M164.511,26.604c0,0.774,0.379,1.471,1.248,1.471c0.789,0,1.769-0.49,1.642-3.069C166.169,25.021,164.511,24.91,164.511,26.604z
				"/>
			<path fill="#484849" d="M172.63,21.936h0.032c0.442-0.744,0.995-1.108,1.832-1.108c1.279,0,2.574,0.507,2.574,4.02
				c0,1.994-0.063,4.288-2.638,4.288c-0.758,0-1.311-0.332-1.753-0.965h-0.048v3.829h-1.295V20.985h1.295V21.936z M175.71,24.847
				c0-1.202,0-2.959-1.627-2.959c-1.595,0-1.453,2.215-1.453,3.434c0,1.061,0.063,2.753,1.501,2.753
				C175.521,28.074,175.71,26.982,175.71,24.847z"/>
			<path fill="#484849" d="M181.523,27.489h0.032l1.91-6.504h1.406l-3.617,11.014h-1.342l0.9-3.022l-2.701-7.991h1.5L181.523,27.489
				z"/>
		</g>
	</g>
</g>
</svg>
