<?xml version="1.0" encoding="utf-8"?>
<!-- Generator: Adobe Illustrator 17.0.0, SVG Export Plug-In . SVG Version: 6.00 Build 0)  -->
<!DOCTYPE svg PUBLIC "-//W3C//DTD SVG 1.1//EN" "http://www.w3.org/Graphics/SVG/1.1/DTD/svg11.dtd">
<svg version="1.1" id="Layer_1" xmlns="http://www.w3.org/2000/svg" xmlns:xlink="http://www.w3.org/1999/xlink" x="0px" y="0px"
	 width="230.751px" height="60.909px" viewBox="0 0 230.751 60.909" enable-background="new 0 0 230.751 60.909"
	 xml:space="preserve">
<g>
	<path fill="#808084" d="M230.751,48.2c0,7.018-5.68,12.709-12.682,12.709H12.683C5.677,60.909,0,55.217,0,48.2V13.174
		C0,6.162,5.677,0.469,12.683,0.469h205.386c7.002,0,12.682,5.693,12.682,12.705V48.2z"/>
	<g>
		<defs>
			<path id="SVGID_219_" d="M12.683,0C5.678,0,0,5.69,0,12.706v35.022c0,7.018,5.678,12.711,12.683,12.711h205.385
				c7.004,0,12.681-5.693,12.681-12.711V12.706C230.749,5.69,225.072,0,218.068,0H12.683z"/>
		</defs>
		<clipPath id="SVGID_2_">
			<use xlink:href="#SVGID_219_"  overflow="visible"/>
		</clipPath>
		
			<linearGradient id="SVGID_4_" gradientUnits="userSpaceOnUse" x1="-2367.5557" y1="434.5814" x2="-2366.2759" y2="434.5814" gradientTransform="matrix(0 -47.2201 -47.1227 0 20594.0234 -111735.7813)">
			<stop  offset="0" style="stop-color:#404041"/>
			<stop  offset="0.0139" style="stop-color:#444445"/>
			<stop  offset="0.1522" style="stop-color:#68696A"/>
			<stop  offset="0.2969" style="stop-color:#868889"/>
			<stop  offset="0.4479" style="stop-color:#9E9FA1"/>
			<stop  offset="0.6078" style="stop-color:#AEB0B2"/>
			<stop  offset="0.7825" style="stop-color:#B8BABC"/>
			<stop  offset="1" style="stop-color:#BBBDBF"/>
		</linearGradient>
		<rect x="0" y="0" clip-path="url(#SVGID_2_)" fill="url(#SVGID_4_)" width="230.749" height="60.439"/>
	</g>
	<g>
		<defs>
			<path id="SVGID_222_" d="M12.683,4.718c-4.393,0-7.971,3.581-7.971,7.988v35.022c0,4.408,3.579,7.99,7.971,7.99h205.385
				c4.399,0,7.97-3.582,7.97-7.99V12.706c0-4.407-3.571-7.988-7.97-7.988H12.683z"/>
		</defs>
		<clipPath id="SVGID_6_">
			<use xlink:href="#SVGID_222_"  overflow="visible"/>
		</clipPath>
		
			<linearGradient id="SVGID_8_" gradientUnits="userSpaceOnUse" x1="-2367.8037" y1="426.6013" x2="-2366.5237" y2="426.6013" gradientTransform="matrix(0 -39.8462 -39.7641 0 17078.793 -94292.2578)">
			<stop  offset="0" style="stop-color:#FFFFFF"/>
			<stop  offset="0.2973" style="stop-color:#F8F8F8"/>
			<stop  offset="0.7441" style="stop-color:#E6E5E3"/>
			<stop  offset="1" style="stop-color:#D8D7D4"/>
		</linearGradient>
		<rect x="4.711" y="4.718" clip-path="url(#SVGID_6_)" fill="url(#SVGID_8_)" width="221.327" height="51"/>
	</g>
	<g opacity="0.5">
		<g>
			<defs>
				<rect id="SVGID_225_" x="4.242" y="4.243" width="222.276" height="51.945"/>
			</defs>
			<clipPath id="SVGID_9_">
				<use xlink:href="#SVGID_225_"  overflow="visible"/>
			</clipPath>
			<g clip-path="url(#SVGID_9_)">
				<defs>
					<path id="SVGID_227_" d="M12.683,4.243c-4.654,0-8.441,3.799-8.441,8.463v35.023c0,4.668,3.787,8.46,8.441,8.46h205.385
						c4.66,0,8.45-3.792,8.45-8.46V12.706c0-4.664-3.79-8.463-8.45-8.463H12.683z"/>
				</defs>
				<clipPath id="SVGID_10_">
					<use xlink:href="#SVGID_227_"  overflow="visible"/>
				</clipPath>
				
					<linearGradient id="SVGID_11_" gradientUnits="userSpaceOnUse" x1="-2367.7737" y1="427.5254" x2="-2366.4937" y2="427.5254" gradientTransform="matrix(0 -40.5851 -40.5015 0 17430.7988 -96040.1406)">
					<stop  offset="0" style="stop-color:#59595C"/>
					<stop  offset="0.005" style="stop-color:#5C5C5F"/>
					<stop  offset="0.066" style="stop-color:#838385"/>
					<stop  offset="0.1322" style="stop-color:#A4A4A5"/>
					<stop  offset="0.2061" style="stop-color:#C0C0C1"/>
					<stop  offset="0.2882" style="stop-color:#D7D7D8"/>
					<stop  offset="0.3822" style="stop-color:#E9E9EA"/>
					<stop  offset="0.4954" style="stop-color:#F6F6F6"/>
					<stop  offset="0.6471" style="stop-color:#FDFDFD"/>
					<stop  offset="1" style="stop-color:#FFFFFF"/>
				</linearGradient>
				<rect x="4.242" y="4.243" clip-path="url(#SVGID_10_)" fill="url(#SVGID_11_)" width="222.276" height="51.946"/>
			</g>
		</g>
	</g>
	<g>
		<g>
			<path fill="#58595B" d="M47.449,29.317c-0.062-0.519-0.248-2.635-2.424-2.635c-2.383,0-3.378,2.49-3.378,5.582
				c0,0.893,0,5.146,3.129,5.146c1.347,0,2.632-0.852,2.694-2.844h3.377c-0.062,0.893-0.145,2.283-1.347,3.528
				c-1.326,1.37-3.005,1.681-4.372,1.681c-5.16,0-6.838-3.818-6.838-7.533c0-4.752,2.652-7.906,6.858-7.906
				c3.274,0,5.574,1.992,5.574,4.98H47.449z"/>
			<path fill="#58595B" d="M52.75,24.42h3.067v15.004H52.75V24.42z"/>
			<path fill="#58595B" d="M58.405,24.44h3.274v2.678h-3.274V24.44z M58.509,28.923h3.067v10.501h-3.067V28.923z"/>
			<path fill="#58595B" d="M64.309,30.812c0-0.041,0-1.183-0.062-1.909h2.942l0.083,1.577c0.29-0.477,1.118-1.826,3.398-1.826
				c2.051,0,2.921,1.245,3.19,1.972c0.229,0.644,0.29,1.183,0.29,3.134v5.665h-3.129v-6.517c0-0.436,0-0.809-0.165-1.141
				c-0.229-0.457-0.705-0.893-1.492-0.893c-0.663,0-1.265,0.312-1.596,0.81c-0.187,0.27-0.373,0.788-0.373,1.598v6.143h-3.088
				V30.812z"/>
			<path fill="#58595B" d="M76.822,24.44h3.273v2.678h-3.273V24.44z M76.926,28.923h3.066v10.501h-3.066V28.923z"/>
			<path fill="#58595B" d="M88.217,32.659c-0.041-0.374-0.165-1.931-1.347-1.931c-1.45,0-1.616,2.2-1.616,3.341
				c0,0.582,0.063,2.449,0.767,3.217c0.29,0.312,0.602,0.354,0.829,0.354c0.331,0,1.284-0.146,1.409-2.014h3.025
				c-0.042,0.81-0.146,2.075-1.347,3.092c-0.746,0.644-1.679,0.976-2.984,0.976c-1.389,0-2.611-0.312-3.564-1.39
				c-0.911-1.059-1.326-2.449-1.326-4.13c0-4.773,3.502-5.438,4.891-5.438c1.948,0,4.248,1.079,4.269,3.923H88.217z"/>
			<path fill="#58595B" d="M99.321,39.424c-0.104-0.644-0.104-1.12-0.104-1.432c-1.161,1.681-2.549,1.681-3.129,1.681
				c-1.513,0-2.197-0.436-2.611-0.83c-0.622-0.623-0.912-1.474-0.912-2.304s0.29-2.365,2.218-3.258
				c1.284-0.581,3.129-0.581,4.145-0.581c0-0.685-0.021-1.017-0.146-1.391c-0.27-0.768-1.077-0.871-1.367-0.871
				c-0.436,0-0.892,0.187-1.161,0.581c-0.228,0.353-0.228,0.685-0.228,0.934h-3.005c0.021-0.561,0.083-1.681,1.182-2.47
				c0.953-0.685,2.176-0.851,3.17-0.851c0.87,0,2.694,0.146,3.73,1.349c0.704,0.852,0.725,2.096,0.725,2.573l0.021,4.213
				c0,0.893,0.063,1.784,0.249,2.656H99.321z M95.55,36.187c0,0.705,0.477,1.494,1.492,1.494c0.56,0,1.015-0.27,1.305-0.602
				c0.539-0.664,0.581-1.474,0.581-2.594C96.959,34.319,95.55,34.941,95.55,36.187z"/>
			<path fill="#58595B" d="M104.56,24.42h3.066v15.004h-3.066V24.42z"/>
			<path fill="#58595B" d="M124.056,24.42l5.201,15.004h-3.233l-1.077-3.237h-5.926l-1.119,3.237h-3.067l5.408-15.004H124.056z
				 M124.139,33.759l-2.072-6.392l-2.218,6.392H124.139z"/>
			<path fill="#58595B" d="M133.686,34.63c0,0.706-0.041,2.844,2.715,2.844c1.74,0,2.839-0.83,2.839-2.097
				c0-1.328-0.933-1.556-2.839-2.013c-3.564-0.893-5.512-1.951-5.512-4.545c0-2.469,1.762-4.648,5.926-4.648
				c1.555,0,3.398,0.354,4.518,1.764c0.85,1.08,0.85,2.283,0.85,2.781h-3.087c-0.042-0.519-0.208-2.283-2.425-2.283
				c-1.492,0-2.466,0.81-2.466,2.034c0,1.391,1.099,1.64,3.253,2.179c2.591,0.623,5.14,1.328,5.14,4.254
				c0,2.698-2.238,4.877-6.383,4.877c-5.739,0-5.781-3.693-5.802-5.146H133.686z"/>
			<path fill="#58595B" d="M153.368,29.317c-0.062-0.519-0.248-2.635-2.424-2.635c-2.383,0-3.378,2.49-3.378,5.582
				c0,0.893,0,5.146,3.129,5.146c1.347,0,2.632-0.852,2.694-2.844h3.377c-0.062,0.893-0.145,2.283-1.347,3.528
				c-1.326,1.37-3.005,1.681-4.372,1.681c-5.16,0-6.838-3.818-6.838-7.533c0-4.752,2.652-7.906,6.858-7.906
				c3.274,0,5.574,1.992,5.574,4.98H153.368z"/>
			<path fill="#58595B" d="M161.073,24.482l3.916,11.767l3.938-11.767h3.17l-5.512,14.941h-3.502l-5.512-14.941H161.073z"/>
			<path fill="#58595B" d="M173.626,24.462l4.952,0.021c0.829,0,3.357,0.021,5.16,1.349c1.886,1.391,2.549,3.756,2.549,5.894
				c0,4.607-2.466,7.015-5.305,7.533c-0.56,0.104-1.182,0.166-2.694,0.166h-4.662V24.462z M176.879,36.954
				c0.353,0.021,0.892,0.042,1.265,0.042c1.367,0,2.549-0.104,3.48-1.038c1.265-1.266,1.348-3.507,1.348-4.233
				c0-2.116-0.726-4.067-2.735-4.628c-0.663-0.187-1.513-0.29-3.357-0.207V36.954z"/>
			<path fill="#58595B" d="M187.875,26.885v-1.21h1.943v-1.899h1.473v1.899h1.895v1.21h-1.895v5.627h-1.473v-5.627H187.875z"/>
		</g>
	</g>
</g>
</svg>
