<?xml version="1.0" encoding="utf-8"?>
<!-- Generator: Adobe Illustrator 17.0.0, SVG Export Plug-In . SVG Version: 6.00 Build 0)  -->
<!DOCTYPE svg PUBLIC "-//W3C//DTD SVG 1.1//EN" "http://www.w3.org/Graphics/SVG/1.1/DTD/svg11.dtd">
<svg version="1.1" id="Layer_1" xmlns="http://www.w3.org/2000/svg" xmlns:xlink="http://www.w3.org/1999/xlink" x="0px" y="0px"
	 width="230.75px" height="84.111px" viewBox="0 0 230.75 84.111" enable-background="new 0 0 230.75 84.111" xml:space="preserve">
<g>
	<line fill="none" stroke="#77787B" stroke-width="0.9991" x1="115.376" y1="55.717" x2="115.376" y2="78.237"/>
	<polygon fill="#77787B" points="111.999,75.833 115.376,77.798 118.751,75.833 115.376,84.111 	"/>
	<path fill="#808084" d="M230.749,48.2c0,7.018-5.68,12.709-12.682,12.709H12.684C5.676,60.909,0,55.217,0,48.2V13.174
		C0,6.162,5.676,0.469,12.684,0.469h205.383c7.002,0,12.682,5.693,12.682,12.705V48.2z"/>
	<g>
		<defs>
			<path id="SVGID_208_" d="M12.683,0C5.677,0,0,5.691,0,12.706v35.022c0,7.018,5.676,12.711,12.683,12.711h205.384
				c7.002,0,12.683-5.693,12.683-12.711V12.706C230.75,5.691,225.07,0,218.067,0H12.683z"/>
		</defs>
		<clipPath id="SVGID_2_">
			<use xlink:href="#SVGID_208_"  overflow="visible"/>
		</clipPath>
		
			<linearGradient id="SVGID_4_" gradientUnits="userSpaceOnUse" x1="-2653.7683" y1="435.9915" x2="-2652.4885" y2="435.9915" gradientTransform="matrix(0 -47.2201 -47.1227 0 20660.4746 -125250.7734)">
			<stop  offset="0" style="stop-color:#404041"/>
			<stop  offset="0.0139" style="stop-color:#444445"/>
			<stop  offset="0.1522" style="stop-color:#68696A"/>
			<stop  offset="0.2969" style="stop-color:#868889"/>
			<stop  offset="0.4479" style="stop-color:#9E9FA1"/>
			<stop  offset="0.6078" style="stop-color:#AEB0B2"/>
			<stop  offset="0.7825" style="stop-color:#B8BABC"/>
			<stop  offset="1" style="stop-color:#BBBDBF"/>
		</linearGradient>
		<rect x="0" y="0" clip-path="url(#SVGID_2_)" fill="url(#SVGID_4_)" width="230.749" height="60.438"/>
	</g>
	<g>
		<defs>
			<path id="SVGID_211_" d="M12.683,4.718c-4.394,0-7.972,3.581-7.972,7.988v35.022c0,4.408,3.578,7.99,7.972,7.99h205.384
				c4.398,0,7.973-3.582,7.973-7.99V12.706c0-4.407-3.575-7.988-7.973-7.988H12.683z"/>
		</defs>
		<clipPath id="SVGID_6_">
			<use xlink:href="#SVGID_211_"  overflow="visible"/>
		</clipPath>
		
			<linearGradient id="SVGID_8_" gradientUnits="userSpaceOnUse" x1="-2654.0083" y1="427.8918" x2="-2652.7283" y2="427.8918" gradientTransform="matrix(0 -39.8462 -39.7641 0 17130.1094 -105696.4297)">
			<stop  offset="0" style="stop-color:#FFFFFF"/>
			<stop  offset="0.2973" style="stop-color:#F8F8F8"/>
			<stop  offset="0.7441" style="stop-color:#E6E5E3"/>
			<stop  offset="1" style="stop-color:#D8D7D4"/>
		</linearGradient>
		<rect x="4.711" y="4.718" clip-path="url(#SVGID_6_)" fill="url(#SVGID_8_)" width="221.329" height="51"/>
	</g>
	<g opacity="0.5">
		<g>
			<defs>
				<rect id="SVGID_214_" x="4.241" y="4.243" width="222.275" height="51.945"/>
			</defs>
			<clipPath id="SVGID_9_">
				<use xlink:href="#SVGID_214_"  overflow="visible"/>
			</clipPath>
			<g clip-path="url(#SVGID_9_)">
				<defs>
					<path id="SVGID_216_" d="M12.683,4.243c-4.655,0-8.442,3.799-8.442,8.463v35.023c0,4.668,3.787,8.46,8.442,8.46h205.384
						c4.659,0,8.449-3.792,8.449-8.46V12.706c0-4.664-3.79-8.463-8.449-8.463H12.683z"/>
				</defs>
				<clipPath id="SVGID_10_">
					<use xlink:href="#SVGID_216_"  overflow="visible"/>
				</clipPath>
				
					<linearGradient id="SVGID_11_" gradientUnits="userSpaceOnUse" x1="-2653.9792" y1="428.8299" x2="-2652.6992" y2="428.8299" gradientTransform="matrix(0 -40.5851 -40.5015 0 17483.6328 -107655.8281)">
					<stop  offset="0" style="stop-color:#59595C"/>
					<stop  offset="0.005" style="stop-color:#5C5C5F"/>
					<stop  offset="0.066" style="stop-color:#838385"/>
					<stop  offset="0.1322" style="stop-color:#A4A4A5"/>
					<stop  offset="0.2061" style="stop-color:#C0C0C1"/>
					<stop  offset="0.2882" style="stop-color:#D7D7D8"/>
					<stop  offset="0.3822" style="stop-color:#E9E9EA"/>
					<stop  offset="0.4954" style="stop-color:#F6F6F6"/>
					<stop  offset="0.6471" style="stop-color:#FDFDFD"/>
					<stop  offset="1" style="stop-color:#FFFFFF"/>
				</linearGradient>
				<rect x="4.241" y="4.243" clip-path="url(#SVGID_10_)" fill="url(#SVGID_11_)" width="222.275" height="51.946"/>
			</g>
		</g>
	</g>
	<g>
		<g>
			<path fill="#58595B" d="M21.132,24.419h4.642l5.615,11.808V24.419h2.984v15.004h-4.414l-5.802-12.451v12.451h-3.025V24.419z"/>
			<path fill="#58595B" d="M43.817,24.108c1.596,0,3.792,0.374,5.263,2.034c1.596,1.826,1.907,4.171,1.907,5.645
				c0,2.179-0.663,4.503-1.886,5.873c-1.658,1.867-4.082,2.138-5.326,2.138c-1.968,0-3.937-0.623-5.305-2.055
				c-1.637-1.743-1.844-4.233-1.844-5.604C36.627,28.155,38.429,24.108,43.817,24.108z M41.102,36.227
				c0.456,0.623,1.223,1.204,2.715,1.204c1.306,0,2.196-0.456,2.797-1.391c0.498-0.747,1.016-1.909,1.016-4.296
				c0-0.726-0.063-1.764-0.373-2.677c-0.621-1.847-1.886-2.656-3.419-2.656c-1.202,0-2.155,0.498-2.756,1.267
				c-0.85,1.037-1.099,2.656-1.099,4.357C39.983,33.467,40.212,35.065,41.102,36.227z"/>
			<path fill="#58595B" d="M67.496,29.317c-0.063-0.519-0.249-2.635-2.425-2.635c-2.383,0-3.377,2.49-3.377,5.582
				c0,0.893,0,5.146,3.129,5.146c1.347,0,2.631-0.852,2.693-2.844h3.378c-0.063,0.893-0.146,2.283-1.347,3.528
				c-1.326,1.37-3.005,1.681-4.373,1.681c-5.159,0-6.838-3.818-6.838-7.533c0-4.752,2.652-7.906,6.859-7.906
				c3.273,0,5.573,1.992,5.573,4.98H67.496z"/>
			<path fill="#58595B" d="M72.797,24.419h3.066v15.004h-3.066V24.419z"/>
			<path fill="#58595B" d="M78.452,24.44h3.273v2.678h-3.273V24.44z M78.555,28.922h3.066v10.501h-3.066V28.922z"/>
			<path fill="#58595B" d="M84.356,30.811c0-0.041,0-1.183-0.063-1.909h2.942l0.083,1.577c0.29-0.477,1.119-1.826,3.398-1.826
				c2.052,0,2.922,1.245,3.191,1.972c0.228,0.644,0.29,1.183,0.29,3.134v5.665H91.07v-6.517c0-0.436,0-0.809-0.166-1.141
				c-0.228-0.457-0.704-0.893-1.492-0.893c-0.663,0-1.264,0.312-1.596,0.81c-0.187,0.27-0.373,0.788-0.373,1.598v6.143h-3.087
				V30.811z"/>
			<path fill="#58595B" d="M96.868,24.44h3.274v2.678h-3.274V24.44z M96.971,28.922h3.067v10.501h-3.067V28.922z"/>
			<path fill="#58595B" d="M108.263,32.659c-0.042-0.374-0.166-1.931-1.347-1.931c-1.451,0-1.616,2.2-1.616,3.341
				c0,0.582,0.062,2.449,0.767,3.217c0.29,0.312,0.601,0.354,0.828,0.354c0.332,0,1.285-0.146,1.409-2.014h3.025
				c-0.041,0.81-0.145,2.075-1.347,3.092c-0.746,0.644-1.679,0.976-2.983,0.976c-1.389,0-2.611-0.312-3.564-1.39
				c-0.912-1.059-1.326-2.449-1.326-4.13c0-4.773,3.502-5.438,4.891-5.438c1.947,0,4.247,1.079,4.269,3.923H108.263z"/>
			<path fill="#58595B" d="M119.367,39.423c-0.104-0.644-0.104-1.12-0.104-1.432c-1.16,1.681-2.549,1.681-3.129,1.681
				c-1.513,0-2.196-0.436-2.61-0.83c-0.622-0.623-0.912-1.474-0.912-2.304s0.29-2.365,2.217-3.258
				c1.285-0.581,3.129-0.581,4.145-0.581c0-0.685-0.021-1.017-0.145-1.391c-0.27-0.768-1.078-0.871-1.368-0.871
				c-0.435,0-0.891,0.187-1.16,0.581c-0.229,0.353-0.229,0.685-0.229,0.934h-3.004c0.021-0.561,0.083-1.681,1.181-2.47
				c0.953-0.685,2.176-0.851,3.171-0.851c0.87,0,2.693,0.146,3.729,1.349c0.704,0.852,0.726,2.096,0.726,2.573l0.021,4.213
				c0,0.893,0.063,1.784,0.249,2.656H119.367z M115.595,36.186c0,0.705,0.477,1.494,1.492,1.494c0.56,0,1.016-0.27,1.306-0.602
				c0.539-0.664,0.58-1.474,0.58-2.594C117.005,34.319,115.595,34.941,115.595,36.186z"/>
			<path fill="#58595B" d="M124.606,24.419h3.067v15.004h-3.067V24.419z"/>
			<path fill="#58595B" d="M144.102,24.419l5.201,15.004h-3.232l-1.077-3.237h-5.927l-1.119,3.237h-3.066l5.408-15.004H144.102z
				 M144.185,33.758l-2.072-6.392l-2.217,6.392H144.185z"/>
			<path fill="#58595B" d="M153.733,34.629c0,0.706-0.041,2.844,2.715,2.844c1.74,0,2.839-0.83,2.839-2.097
				c0-1.328-0.933-1.556-2.839-2.013c-3.564-0.893-5.512-1.951-5.512-4.545c0-2.469,1.762-4.648,5.926-4.648
				c1.555,0,3.398,0.354,4.518,1.764c0.85,1.08,0.85,2.283,0.85,2.781h-3.087c-0.042-0.519-0.208-2.283-2.425-2.283
				c-1.492,0-2.466,0.81-2.466,2.034c0,1.391,1.099,1.64,3.253,2.179c2.591,0.623,5.14,1.328,5.14,4.254
				c0,2.698-2.238,4.877-6.383,4.877c-5.739,0-5.781-3.693-5.802-5.146H153.733z"/>
			<path fill="#58595B" d="M173.415,29.317c-0.063-0.519-0.249-2.635-2.425-2.635c-2.383,0-3.377,2.49-3.377,5.582
				c0,0.893,0,5.146,3.129,5.146c1.347,0,2.631-0.852,2.693-2.844h3.378c-0.063,0.893-0.146,2.283-1.347,3.528
				c-1.326,1.37-3.005,1.681-4.373,1.681c-5.159,0-6.838-3.818-6.838-7.533c0-4.752,2.652-7.906,6.859-7.906
				c3.273,0,5.573,1.992,5.573,4.98H173.415z"/>
			<path fill="#58595B" d="M181.119,24.482l3.917,11.767l3.937-11.767h3.171l-5.512,14.941h-3.502l-5.513-14.941H181.119z"/>
			<path fill="#58595B" d="M193.672,24.461l4.953,0.021c0.828,0,3.356,0.021,5.159,1.349c1.886,1.391,2.549,3.756,2.549,5.894
				c0,4.607-2.466,7.015-5.305,7.533c-0.56,0.104-1.181,0.166-2.693,0.166h-4.663V24.461z M196.926,36.954
				c0.353,0.021,0.891,0.042,1.264,0.042c1.368,0,2.549-0.104,3.481-1.038c1.264-1.266,1.347-3.507,1.347-4.233
				c0-2.116-0.726-4.067-2.735-4.628c-0.663-0.187-1.513-0.29-3.356-0.207V36.954z"/>
			<path fill="#58595B" d="M207.922,26.884v-1.21h1.943v-1.899h1.472v1.899h1.896v1.21h-1.896v5.627h-1.472v-5.627H207.922z"/>
		</g>
	</g>
</g>
</svg>
