<?xml version="1.0" encoding="utf-8"?>
<!-- Generator: Adobe Illustrator 17.0.0, SVG Export Plug-In . SVG Version: 6.00 Build 0)  -->
<!DOCTYPE svg PUBLIC "-//W3C//DTD SVG 1.1//EN" "http://www.w3.org/Graphics/SVG/1.1/DTD/svg11.dtd">
<svg version="1.1" id="Layer_1" xmlns="http://www.w3.org/2000/svg" xmlns:xlink="http://www.w3.org/1999/xlink" x="0px" y="0px"
	 width="218.392px" height="95.901px" viewBox="0 0 218.392 95.901" enable-background="new 0 0 218.392 95.901"
	 xml:space="preserve">
<g>
	<g opacity="0.5">
		<g>
			<defs>
				<rect id="SVGID_1_" x="248.384" y="-291.942" width="1013.98" height="498.291"/>
			</defs>
			<clipPath id="SVGID_2_">
				<use xlink:href="#SVGID_1_"  overflow="visible"/>
			</clipPath>
			<g clip-path="url(#SVGID_2_)">
				<defs>
					<rect id="SVGID_3_" x="250.035" y="-290.105" width="1010.677" height="494.616"/>
				</defs>
				<clipPath id="SVGID_4_">
					<use xlink:href="#SVGID_3_"  overflow="visible"/>
				</clipPath>
				<g opacity="0.5" clip-path="url(#SVGID_4_)">
					<g>
						<defs>
							<rect id="SVGID_5_" x="165.242" y="-301.903" width="1166.597" height="515.427"/>
						</defs>
						<clipPath id="SVGID_6_">
							<use xlink:href="#SVGID_5_"  overflow="visible"/>
						</clipPath>
						<g clip-path="url(#SVGID_6_)">
							<defs>
								<rect id="SVGID_7_" x="166.803" y="-300.463" width="1163.469" height="512.55"/>
							</defs>
							<clipPath id="SVGID_8_">
								<use xlink:href="#SVGID_7_"  overflow="visible"/>
							</clipPath>
						</g>
					</g>
				</g>
			</g>
		</g>
	</g>
</g>
<g>
	<polygon fill="#00A79C" points="97.788,86.024 101.816,88.368 105.844,86.024 101.816,95.901 	"/>
	<g>
		<line fill="none" stroke="#00A79C" stroke-width="0.9991" x1="101.817" y1="75.98" x2="101.817" y2="88.892"/>
		<path fill="#808084" d="M218.391,67.15c0,5.998-4.844,10.854-10.826,10.854H10.83C4.85,78.005,0,73.149,0,67.15V11.256
			C0,5.268,4.85,0.402,10.83,0.402h196.734c5.981,0,10.826,4.867,10.826,10.854V67.15z"/>
		<g>
			<defs>
				<path id="SVGID_139_" d="M10.83,0C4.85,0,0.001,4.854,0.001,10.857V66.75c0,5.993,4.849,10.857,10.829,10.857h196.734
					c5.982,0,10.828-4.864,10.828-10.857V10.857C218.392,4.854,213.546,0,207.564,0H10.83z"/>
			</defs>
			<clipPath id="SVGID_9_">
				<use xlink:href="#SVGID_139_"  overflow="visible"/>
			</clipPath>
			
				<linearGradient id="SVGID_10_" gradientUnits="userSpaceOnUse" x1="-2926.5527" y1="343.1364" x2="-2925.0259" y2="343.1364" gradientTransform="matrix(143.0388 0 0 -143.3343 418610.5625 49222.0156)">
				<stop  offset="0" style="stop-color:#00A69C"/>
				<stop  offset="0.2036" style="stop-color:#03A79D"/>
				<stop  offset="0.3808" style="stop-color:#0EAAA1"/>
				<stop  offset="0.5481" style="stop-color:#20B0A8"/>
				<stop  offset="0.7094" style="stop-color:#39B7B1"/>
				<stop  offset="0.8649" style="stop-color:#59C1BD"/>
				<stop  offset="0.9901" style="stop-color:#79CBC9"/>
				<stop  offset="1" style="stop-color:#79CBC9"/>
			</linearGradient>
			<rect x="0" y="0" clip-path="url(#SVGID_9_)" fill="url(#SVGID_10_)" width="218.392" height="77.606"/>
		</g>
		<g>
			<defs>
				<path id="SVGID_142_" d="M10.83,4.031c-3.759,0-6.808,3.063-6.808,6.826V66.75c0,3.767,3.049,6.82,6.808,6.82h196.734
					c3.754,0,6.805-3.053,6.805-6.82V10.857c0-3.763-3.051-6.826-6.805-6.826H10.83z"/>
			</defs>
			<clipPath id="SVGID_11_">
				<use xlink:href="#SVGID_142_"  overflow="visible"/>
			</clipPath>
			
				<linearGradient id="SVGID_12_" gradientUnits="userSpaceOnUse" x1="-2943.22" y1="291.749" x2="-2941.6934" y2="291.749" gradientTransform="matrix(0 -45.5469 -45.453 0 13370.0625 -133980.9844)">
				<stop  offset="0" style="stop-color:#FFFFFF"/>
				<stop  offset="0.2973" style="stop-color:#F8F8F8"/>
				<stop  offset="0.7441" style="stop-color:#E6E5E3"/>
				<stop  offset="1" style="stop-color:#D8D7D4"/>
			</linearGradient>
			<rect x="4.022" y="4.031" clip-path="url(#SVGID_11_)" fill="url(#SVGID_12_)" width="210.347" height="69.539"/>
		</g>
		<g opacity="0.5">
			<g>
				<defs>
					<rect id="SVGID_145_" x="3.618" y="3.626" width="211.159" height="70.354"/>
				</defs>
				<clipPath id="SVGID_13_">
					<use xlink:href="#SVGID_145_"  overflow="visible"/>
				</clipPath>
				<g clip-path="url(#SVGID_13_)">
					<defs>
						<path id="SVGID_147_" d="M10.83,3.626c-3.977,0-7.213,3.241-7.213,7.231V66.75c0,3.985,3.235,7.231,7.213,7.231h196.734
							c3.979,0,7.213-3.246,7.213-7.231V10.857c0-3.989-3.234-7.231-7.213-7.231H10.83z"/>
					</defs>
					<clipPath id="SVGID_14_">
						<use xlink:href="#SVGID_147_"  overflow="visible"/>
					</clipPath>
					
						<linearGradient id="SVGID_15_" gradientUnits="userSpaceOnUse" x1="-2942.616" y1="394.1348" x2="-2941.0891" y2="394.1348" gradientTransform="matrix(0 46.0793 45.9842 0 -18014.7754 135597.3125)">
						<stop  offset="0" style="stop-color:#80CECA"/>
						<stop  offset="0.147" style="stop-color:#86D0CC"/>
						<stop  offset="0.3382" style="stop-color:#96D6D3"/>
						<stop  offset="0.5537" style="stop-color:#B1E1DE"/>
						<stop  offset="0.7851" style="stop-color:#D6EFEE"/>
						<stop  offset="1" style="stop-color:#FFFFFF"/>
					</linearGradient>
					<rect x="3.617" y="3.626" clip-path="url(#SVGID_14_)" fill="url(#SVGID_15_)" width="211.159" height="70.354"/>
				</g>
			</g>
		</g>
		<g>
			<path fill="#231F20" d="M76.841,13.495h2.406v9.149h4.721v1.879h-7.127V13.495z"/>
			<path fill="#231F20" d="M85.251,13.511l3.64,0.016c0.608,0,2.467,0.015,3.791,0.992c1.386,1.023,1.873,2.765,1.873,4.338
				c0,3.391-1.812,5.163-3.898,5.545c-0.411,0.076-0.867,0.122-1.979,0.122h-3.426V13.511z M87.642,22.706
				c0.259,0.015,0.654,0.03,0.929,0.03c1.005,0,1.873-0.076,2.559-0.764c0.929-0.932,0.989-2.581,0.989-3.116
				c0-1.558-0.532-2.993-2.01-3.406c-0.487-0.138-1.111-0.214-2.467-0.152V22.706z"/>
			<path fill="#231F20" d="M96.311,13.495h2.406v9.149h4.721v1.879h-7.127V13.495z"/>
			<path fill="#231F20" d="M104.401,19.62h3.776v1.727h-3.776V19.62z"/>
			<path fill="#231F20" d="M116.053,17.085c-0.046-0.382-0.184-1.94-1.782-1.94c-1.751,0-2.482,1.833-2.482,4.109
				c0,0.656,0,3.788,2.3,3.788c0.99,0,1.934-0.627,1.979-2.093h2.482c-0.046,0.656-0.106,1.68-0.99,2.597
				c-0.975,1.008-2.208,1.237-3.213,1.237c-3.792,0-5.025-2.811-5.025-5.545c0-3.498,1.949-5.819,5.041-5.819
				c2.406,0,4.096,1.467,4.096,3.666H116.053z"/>
		</g>
		<g>
			<path fill="#231F20" d="M51.245,31.281c-0.503,1.527-1.34,4.002-1.34,6.735c0,2.047,0.426,3.574,1.325,6.706h-1.66
				c-0.868-2.123-1.538-4.338-1.538-6.629c0-2.353,0.7-4.629,1.553-6.813H51.245z"/>
			<path fill="#231F20" d="M52.908,43.057v-1.161h6.822v1.161H52.908z M59.73,36.719v1.237l-6.73,3.375v-1.328l5.589-2.658v-0.03
				l-5.604-2.643v-1.329L59.73,36.719z"/>
			<path fill="#231F20" d="M66.162,33.786c0.99-0.428,1.935-0.962,2.817-1.604h1.965v10.661h-2.3V34.55
				c-0.441,0.336-1.324,0.886-2.482,1.359V33.786z"/>
			<path fill="#231F20" d="M75.988,40.247c0.062,0.642,0.473,1.038,1.112,1.038c1.583,0,1.705-1.649,1.659-3.115
				c-0.761,0.688-1.446,0.732-1.919,0.732c-2.604,0-3.273-2.077-3.273-3.345c0-1.985,1.416-3.498,3.762-3.498
				c3.654,0,3.746,3.483,3.746,5.193c0,4.506-1.523,5.789-4.097,5.789c-0.594,0-3.289,0-3.289-2.795H75.988z M78.714,35.405
				c0-0.932-0.487-1.619-1.417-1.619c-1.081,0-1.477,0.87-1.477,1.68c0,0.367,0.106,1.681,1.432,1.681
				C78.378,37.146,78.714,36.153,78.714,35.405z"/>
			<path fill="#231F20" d="M85.936,32.029c1.492,0,2.375,0.81,2.771,1.405c0.548,0.81,0.959,1.849,0.959,3.85
				c0,2.474-0.563,5.728-3.761,5.728c-2.727,0-3.67-2.627-3.67-5.469C82.236,36.123,82.525,32.029,85.936,32.029z M87.109,35.038
				c-0.062-0.29-0.32-1.236-1.158-1.236c-0.654,0-0.943,0.595-1.051,0.916c-0.35,1.084-0.35,2.719-0.35,2.979
				c0,1.817,0.274,3.513,1.416,3.513c1.219,0,1.416-2.077,1.416-3.543C87.382,36.993,87.306,35.741,87.109,35.038z"/>
			<path fill="#231F20" d="M95.398,36.581c0-0.488-0.03-0.962-0.076-1.451h2.178l0.076,0.993c0.244-0.336,0.838-1.161,2.376-1.161
				c1.767,0,2.269,1.085,2.421,1.451c0.64-1.237,1.676-1.436,2.468-1.436c1.553,0,2.177,0.932,2.345,1.237
				c0.411,0.672,0.381,1.604,0.381,2.275v4.354h-2.27v-4.537c0-0.824-0.121-1.741-1.294-1.741c-1.355,0-1.386,1.269-1.386,2.414
				v3.864h-2.27v-4.582c0-0.596-0.015-1.696-1.264-1.696c-1.416,0-1.416,1.223-1.416,1.741v4.537h-2.27V36.581z"/>
			<path fill="#231F20" d="M117.028,35.161c-0.061,0.61-0.106,1.13-0.106,1.909v5.697c0,2.841-2.36,3.115-3.838,3.115
				c-1.097,0-3.243-0.137-3.381-2.475h2.163c0.03,0.229,0.137,1.069,1.34,1.069c0.67,0,1.249-0.32,1.401-1.008
				c0.091-0.382,0.091-0.657,0.106-1.833c-0.716,0.947-1.523,1.054-2.071,1.054c-2.208,0-3.243-1.924-3.243-3.788
				c0-1.955,1.081-3.818,3.289-3.818c1.4,0,1.919,0.764,2.146,1.1l0.076-1.022H117.028z M113.16,41.148
				c1.584,0,1.584-1.864,1.584-2.2c0-0.87-0.168-2.352-1.538-2.352c-0.853,0-1.554,0.656-1.554,2.306
				C111.652,39.284,111.652,41.148,113.16,41.148z"/>
			<path fill="#231F20" d="M124.371,31.877l-4.096,10.967h-1.782l4.127-10.967H124.371z"/>
			<path fill="#231F20" d="M130.893,31.815h2.269v9.775c0,0.458,0.031,0.963,0.062,1.253h-2.284l-0.062-1.115
				c-0.152,0.275-0.305,0.565-0.776,0.871c-0.563,0.366-1.157,0.396-1.492,0.396c-2.056,0-3.274-1.42-3.274-3.834
				c0-2.551,1.386-4.139,3.396-4.139c1.386,0,1.964,0.778,2.162,1.054V31.815z M129.172,41.53c0.654,0,1.188-0.397,1.432-0.871
				c0.335-0.642,0.365-1.436,0.365-1.817c0-1.513-0.655-2.337-1.675-2.337c-1.508,0-1.676,1.817-1.676,2.597
				C127.619,40.385,128.045,41.53,129.172,41.53z"/>
			<path fill="#231F20" d="M135.176,31.815h2.406v9.149h4.721v1.879h-7.127V31.815z"/>
			<path fill="#231F20" d="M143.51,44.723c0.502-1.528,1.34-4.002,1.34-6.736c0-2.062-0.427-3.574-1.325-6.705h1.66
				c0.868,2.107,1.538,4.338,1.538,6.613c0,2.353-0.7,4.628-1.554,6.828H143.51z"/>
			<path fill="#231F20" d="M48.708,49.563c-0.503,1.527-1.34,4.002-1.34,6.736c0,2.046,0.426,3.573,1.325,6.705h-1.66
				c-0.868-2.123-1.538-4.338-1.538-6.629c0-2.353,0.7-4.628,1.553-6.813H48.708z"/>
			<path fill="#231F20" d="M50.37,61.34v-1.161h6.822v1.161H50.37z M57.193,55.001v1.237l-6.73,3.376v-1.329l5.589-2.658v-0.03
				l-5.604-2.643v-1.328L57.193,55.001z"/>
			<path fill="#231F20" d="M62.422,58.805v-2.063l4.264-6.277h2.269l-0.015,6.583h1.446v1.757H68.94v2.321h-2.254v-2.321H62.422z
				 M64.127,57.094h2.68v-2.811c0-0.138,0.016-0.901,0.031-1.176L64.127,57.094z"/>
			<path fill="#231F20" d="M71.776,59.095h1.934v2.031h-1.934V59.095z"/>
			<path fill="#231F20" d="M77.686,58.529c0.062,0.642,0.473,1.039,1.112,1.039c1.583,0,1.705-1.65,1.659-3.116
				c-0.761,0.688-1.446,0.733-1.918,0.733c-2.604,0-3.274-2.077-3.274-3.346c0-1.985,1.416-3.497,3.761-3.497
				c3.655,0,3.747,3.482,3.747,5.193c0,4.506-1.523,5.788-4.097,5.788c-0.594,0-3.289,0-3.289-2.795H77.686z M80.412,53.687
				c0-0.932-0.487-1.619-1.417-1.619c-1.081,0-1.477,0.871-1.477,1.681c0,0.366,0.106,1.68,1.432,1.68
				C80.077,55.429,80.412,54.435,80.412,53.687z"/>
			<path fill="#231F20" d="M88.625,54.863c0-0.488-0.03-0.962-0.076-1.451h2.178l0.076,0.993c0.244-0.336,0.838-1.161,2.376-1.161
				c1.767,0,2.269,1.085,2.421,1.451c0.64-1.237,1.676-1.436,2.467-1.436c1.554,0,2.178,0.932,2.346,1.237
				c0.411,0.672,0.381,1.604,0.381,2.275v4.354h-2.27V56.59c0-0.825-0.121-1.741-1.294-1.741c-1.355,0-1.386,1.268-1.386,2.413
				v3.864h-2.27v-4.582c0-0.596-0.015-1.695-1.264-1.695c-1.416,0-1.416,1.222-1.416,1.741v4.536h-2.27V54.863z"/>
			<path fill="#231F20" d="M103.006,54.863c0-0.488-0.03-0.962-0.076-1.451h2.178l0.076,0.993c0.244-0.336,0.838-1.161,2.376-1.161
				c1.767,0,2.269,1.085,2.421,1.451c0.64-1.237,1.676-1.436,2.467-1.436c1.554,0,2.178,0.932,2.346,1.237
				c0.411,0.672,0.381,1.604,0.381,2.275v4.354h-2.27V56.59c0-0.825-0.121-1.741-1.294-1.741c-1.355,0-1.386,1.268-1.386,2.413
				v3.864h-2.27v-4.582c0-0.596-0.015-1.695-1.264-1.695c-1.416,0-1.416,1.222-1.416,1.741v4.536h-2.27V54.863z"/>
			<path fill="#231F20" d="M120.967,53.229c2.787,0,3.989,1.894,3.989,4.048c0,2.169-1.248,4.124-4.035,4.124
				c-2.192,0-3.929-1.359-3.929-4.063C116.993,55.474,117.937,53.229,120.967,53.229z M120.997,59.828c0.99,0,1.66-0.596,1.66-2.643
				c0-1.023-0.198-2.444-1.69-2.444c-1.645,0-1.66,1.909-1.66,2.612C119.307,59.079,119.886,59.828,120.997,59.828z"/>
			<path fill="#231F20" d="M126.652,50.083h2.253v11.043h-2.253V50.083z"/>
			<path fill="#231F20" d="M136.216,50.159l-4.096,10.967h-1.782l4.127-10.967H136.216z"/>
			<path fill="#231F20" d="M137.712,50.098h2.406v9.149h4.721v1.879h-7.127V50.098z"/>
			<path fill="#231F20" d="M146.046,63.005c0.502-1.527,1.34-4.002,1.34-6.736c0-2.062-0.427-3.574-1.325-6.705h1.66
				c0.868,2.107,1.538,4.338,1.538,6.613c0,2.353-0.7,4.629-1.554,6.828H146.046z"/>
		</g>
	</g>
</g>
</svg>
