<?xml version="1.0" encoding="utf-8"?>
<!-- Generator: Adobe Illustrator 17.0.0, SVG Export Plug-In . SVG Version: 6.00 Build 0)  -->
<!DOCTYPE svg PUBLIC "-//W3C//DTD SVG 1.1//EN" "http://www.w3.org/Graphics/SVG/1.1/DTD/svg11.dtd">
<svg version="1.1" id="Layer_1" xmlns="http://www.w3.org/2000/svg" xmlns:xlink="http://www.w3.org/1999/xlink" x="0px" y="0px"
	 width="225.967px" height="60.526px" viewBox="0 0 225.967 60.526" enable-background="new 0 0 225.967 60.526"
	 xml:space="preserve">
<g>
	<path fill="#808084" d="M225.967,48.314c0,6.75-5.026,12.212-11.207,12.212H11.205c-6.187,0-11.204-5.462-11.204-12.212V12.665
		c0-6.739,5.017-12.212,11.204-12.212H214.76c6.181,0,11.207,5.473,11.207,12.212V48.314z"/>
	<g>
		<defs>
			<path id="SVGID_172_" d="M11.205,0C5.017,0,0,5.461,0,12.219v35.644c0,6.747,5.017,12.22,11.205,12.22h203.556
				c6.18,0,11.205-5.473,11.205-12.22V12.219C225.966,5.461,220.941,0,214.761,0H11.205z"/>
		</defs>
		<clipPath id="SVGID_2_">
			<use xlink:href="#SVGID_172_"  overflow="visible"/>
		</clipPath>
		
			<linearGradient id="SVGID_4_" gradientUnits="userSpaceOnUse" x1="-2650.7144" y1="305.3145" x2="-2649.1875" y2="305.3145" gradientTransform="matrix(148.0011 0 0 -148.3069 392308.625 45310.2891)">
			<stop  offset="0" style="stop-color:#00A69C"/>
			<stop  offset="0.2036" style="stop-color:#03A79D"/>
			<stop  offset="0.3808" style="stop-color:#0EAAA1"/>
			<stop  offset="0.5481" style="stop-color:#20B0A8"/>
			<stop  offset="0.7094" style="stop-color:#39B7B1"/>
			<stop  offset="0.8649" style="stop-color:#59C1BD"/>
			<stop  offset="0.9901" style="stop-color:#79CBC9"/>
			<stop  offset="1" style="stop-color:#79CBC9"/>
		</linearGradient>
		<rect x="0" y="0" clip-path="url(#SVGID_2_)" fill="url(#SVGID_4_)" width="225.966" height="60.083"/>
	</g>
	<g>
		<defs>
			<path id="SVGID_175_" d="M11.205,4.535c-3.886,0-7.043,3.444-7.043,7.684v35.644c0,4.237,3.157,7.68,7.043,7.68h203.556
				c3.88,0,7.042-3.443,7.042-7.68V12.219c0-4.24-3.162-7.684-7.042-7.684H11.205z"/>
		</defs>
		<clipPath id="SVGID_6_">
			<use xlink:href="#SVGID_175_"  overflow="visible"/>
		</clipPath>
		
			<linearGradient id="SVGID_8_" gradientUnits="userSpaceOnUse" x1="-2664.0715" y1="243.2256" x2="-2662.5447" y2="243.2256" gradientTransform="matrix(0 -33.4081 -33.3392 0 8221.9287 -88946.0234)">
			<stop  offset="0" style="stop-color:#FFFFFF"/>
			<stop  offset="0.2973" style="stop-color:#F8F8F8"/>
			<stop  offset="0.7441" style="stop-color:#E6E5E3"/>
			<stop  offset="1" style="stop-color:#D8D7D4"/>
		</linearGradient>
		<rect x="4.162" y="4.535" clip-path="url(#SVGID_6_)" fill="url(#SVGID_8_)" width="217.641" height="51.008"/>
	</g>
	<g opacity="0.5">
		<g>
			<defs>
				<rect id="SVGID_178_" x="3.75" y="4.081" width="218.474" height="51.917"/>
			</defs>
			<clipPath id="SVGID_9_">
				<use xlink:href="#SVGID_178_"  overflow="visible"/>
			</clipPath>
			<g clip-path="url(#SVGID_9_)">
				<defs>
					<path id="SVGID_180_" d="M11.205,4.083c-4.11,0-7.455,3.649-7.455,8.136v35.644c0,4.486,3.345,8.135,7.455,8.135h203.556
						c4.11,0,7.463-3.649,7.463-8.135V12.219c0-4.487-3.353-8.136-7.463-8.136H11.205z"/>
				</defs>
				<clipPath id="SVGID_10_">
					<use xlink:href="#SVGID_180_"  overflow="visible"/>
				</clipPath>
				
					<linearGradient id="SVGID_11_" gradientUnits="userSpaceOnUse" x1="-2665.2544" y1="366.0636" x2="-2663.7275" y2="366.0636" gradientTransform="matrix(0 34.0039 33.9338 0 -12308.9414 90633.125)">
					<stop  offset="0" style="stop-color:#80CECA"/>
					<stop  offset="0.147" style="stop-color:#86D0CC"/>
					<stop  offset="0.3382" style="stop-color:#96D6D3"/>
					<stop  offset="0.5537" style="stop-color:#B1E1DE"/>
					<stop  offset="0.7851" style="stop-color:#D6EFEE"/>
					<stop  offset="1" style="stop-color:#FFFFFF"/>
				</linearGradient>
				<rect x="3.75" y="4.083" clip-path="url(#SVGID_10_)" fill="url(#SVGID_11_)" width="218.474" height="51.915"/>
			</g>
		</g>
	</g>
	<g>
		<path fill="#231F20" d="M39.079,10.187h2.36v4.414h4.157v-4.414h2.391V21.23h-2.36v-4.842h-4.188v4.842h-2.36V10.187z"/>
		<path fill="#231F20" d="M49.971,10.201h2.405v1.971h-2.405V10.201z M50.048,13.501H52.3v7.729h-2.253V13.501z"/>
		<path fill="#231F20" d="M61.577,13.547c-0.061,0.61-0.106,1.13-0.106,1.909v5.697c0,2.841-2.36,3.115-3.838,3.115
			c-1.097,0-3.243-0.137-3.381-2.474h2.163c0.03,0.229,0.137,1.069,1.34,1.069c0.67,0,1.249-0.321,1.401-1.009
			c0.091-0.382,0.091-0.656,0.106-1.833c-0.716,0.947-1.523,1.055-2.071,1.055c-2.208,0-3.243-1.925-3.243-3.788
			c0-1.955,1.081-3.818,3.289-3.818c1.4,0,1.919,0.764,2.146,1.1l0.076-1.023H61.577z M57.709,19.534
			c1.584,0,1.584-1.863,1.584-2.199c0-0.871-0.168-2.353-1.538-2.353c-0.853,0-1.554,0.657-1.554,2.307
			C56.201,17.671,56.201,19.534,57.709,19.534z"/>
		<path fill="#231F20" d="M63.652,10.201h2.238v4.369c0.259-0.367,0.822-1.161,2.224-1.161c1.142,0,1.873,0.565,2.238,1.039
			c0.274,0.382,0.503,1.084,0.503,2.092v4.689h-2.238v-4.612c0-0.443,0-1.681-1.265-1.681c-0.64,0-1.446,0.366-1.446,1.573
			l0.015,4.72h-2.269V10.201z"/>
		<path fill="#231F20" d="M77.059,10.156h2.36V21.23h-2.36V10.156z"/>
		<path fill="#231F20" d="M81.401,14.891c0-0.03,0-0.87-0.046-1.405h2.162l0.062,1.161c0.213-0.352,0.822-1.344,2.497-1.344
			c1.508,0,2.147,0.916,2.345,1.45c0.168,0.474,0.214,0.871,0.214,2.307v4.17h-2.3v-4.796c0-0.321,0-0.596-0.122-0.84
			c-0.167-0.336-0.518-0.657-1.096-0.657c-0.487,0-0.93,0.229-1.173,0.596c-0.137,0.198-0.274,0.58-0.274,1.176v4.521h-2.269V14.891
			z"/>
		<path fill="#231F20" d="M95.202,21.123c-0.731,0.198-1.386,0.244-1.751,0.244c-2.27,0-2.27-1.436-2.27-2.077v-4.231h-1.477v-1.497
			h1.477V12.05l2.238-0.825v2.337h1.828v1.497H93.42v3.482c0.016,0.703,0.016,1.146,1.021,1.146c0.335,0,0.487-0.015,0.762-0.046
			V21.123z"/>
		<path fill="#231F20" d="M98.418,17.945c0,0.504,0,2.063,1.568,2.063c0.563,0,1.127-0.214,1.341-1.069h2.056
			c-0.03,0.366-0.106,1.023-0.731,1.68c-0.563,0.596-1.568,0.901-2.695,0.901c-0.654,0-1.903-0.122-2.71-0.962
			c-0.701-0.733-0.99-1.771-0.99-3.009c0-1.253,0.305-2.75,1.599-3.651c0.594-0.396,1.325-0.641,2.163-0.641
			c1.096,0,2.405,0.428,3.106,1.863c0.518,1.054,0.487,2.184,0.457,2.825H98.418z M101.281,16.525c0-0.352-0.03-1.727-1.34-1.727
			c-0.99,0-1.401,0.825-1.447,1.727H101.281z"/>
		<path fill="#231F20" d="M105.107,14.891c0-0.03,0-0.87-0.046-1.405h2.162l0.062,1.161c0.213-0.352,0.822-1.344,2.497-1.344
			c1.508,0,2.147,0.916,2.346,1.45c0.167,0.474,0.213,0.871,0.213,2.307v4.17h-2.3v-4.796c0-0.321,0-0.596-0.122-0.84
			c-0.167-0.336-0.518-0.657-1.096-0.657c-0.487,0-0.93,0.229-1.173,0.596c-0.137,0.198-0.274,0.58-0.274,1.176v4.521h-2.269V14.891
			z"/>
		<path fill="#231F20" d="M115.954,18.999c0.03,0.489,0.335,1.055,1.279,1.055c0.807,0,1.188-0.459,1.188-0.917
			c0-0.351-0.183-0.626-1.066-0.87l-1.4-0.382c-0.625-0.184-1.949-0.565-1.949-2.139c0-1.497,1.37-2.413,3.365-2.413
			c1.584,0,2.863,0.733,2.924,2.275h-2.056c-0.062-0.855-0.746-0.916-1.097-0.916c-0.609,0-1.066,0.29-1.066,0.764
			c0,0.52,0.381,0.626,1.051,0.81l1.387,0.382c1.4,0.382,2.056,1.1,2.056,2.153c0,1.329-1.143,2.658-3.533,2.658
			c-0.99,0-1.935-0.214-2.635-0.947c-0.502-0.535-0.548-1.146-0.563-1.513H115.954z"/>
		<path fill="#231F20" d="M121.926,10.201h2.405v1.971h-2.405V10.201z M122.003,13.501h2.253v7.729h-2.253V13.501z"/>
		<path fill="#231F20" d="M130.76,21.123c-0.731,0.198-1.386,0.244-1.751,0.244c-2.27,0-2.27-1.436-2.27-2.077v-4.231h-1.477v-1.497
			h1.477V12.05l2.238-0.825v2.337h1.828v1.497h-1.828v3.482c0.016,0.703,0.016,1.146,1.021,1.146c0.335,0,0.487-0.015,0.762-0.046
			V21.123z"/>
		<path fill="#231F20" d="M133.823,13.516l1.69,5.347l1.721-5.347h2.239l-2.909,7.576l-0.929,3.07h-2.27l0.975-2.902l-2.954-7.744
			H133.823z"/>
		<path fill="#231F20" d="M146.819,17.701c0,0.52-0.031,2.093,1.994,2.093c1.279,0,2.087-0.611,2.087-1.543
			c0-0.978-0.686-1.146-2.087-1.481c-2.619-0.657-4.051-1.436-4.051-3.345c0-1.818,1.295-3.422,4.355-3.422
			c1.143,0,2.498,0.26,3.32,1.299c0.624,0.794,0.624,1.68,0.624,2.046h-2.269c-0.031-0.382-0.152-1.68-1.782-1.68
			c-1.097,0-1.813,0.596-1.813,1.497c0,1.023,0.808,1.206,2.392,1.604c1.903,0.458,3.776,0.978,3.776,3.131
			c0,1.986-1.645,3.59-4.69,3.59c-4.218,0-4.249-2.719-4.264-3.788H146.819z"/>
		<path fill="#231F20" d="M159.554,21.123c-0.731,0.198-1.386,0.244-1.751,0.244c-2.27,0-2.27-1.436-2.27-2.077v-4.231h-1.477
			v-1.497h1.477V12.05l2.238-0.825v2.337h1.828v1.497h-1.828v3.482c0.016,0.703,0.016,1.146,1.021,1.146
			c0.335,0,0.487-0.015,0.762-0.046V21.123z"/>
		<path fill="#231F20" d="M165.573,21.23c-0.076-0.474-0.076-0.825-0.076-1.054c-0.854,1.237-1.873,1.237-2.3,1.237
			c-1.111,0-1.614-0.321-1.919-0.611c-0.457-0.458-0.67-1.084-0.67-1.695s0.213-1.741,1.629-2.398
			c0.944-0.428,2.3-0.428,3.046-0.428c0-0.504-0.015-0.748-0.106-1.022c-0.198-0.565-0.792-0.642-1.005-0.642
			c-0.32,0-0.655,0.137-0.853,0.428c-0.168,0.259-0.168,0.504-0.168,0.687h-2.208c0.016-0.412,0.061-1.237,0.868-1.817
			c0.7-0.504,1.599-0.626,2.33-0.626c0.64,0,1.979,0.106,2.741,0.993c0.518,0.626,0.532,1.542,0.532,1.894l0.016,3.101
			c0,0.657,0.046,1.313,0.183,1.955H165.573z M162.8,18.847c0,0.52,0.351,1.1,1.097,1.1c0.411,0,0.746-0.198,0.96-0.442
			c0.396-0.489,0.426-1.085,0.426-1.909C163.837,17.472,162.8,17.931,162.8,18.847z"/>
		<path fill="#231F20" d="M173.951,21.123c-0.731,0.198-1.386,0.244-1.751,0.244c-2.27,0-2.27-1.436-2.27-2.077v-4.231h-1.477
			v-1.497h1.477V12.05l2.238-0.825v2.337h1.828v1.497h-1.828v3.482c0.016,0.703,0.016,1.146,1.021,1.146
			c0.335,0,0.487-0.015,0.762-0.046V21.123z"/>
		<path fill="#231F20" d="M175.279,10.201h2.405v1.971h-2.405V10.201z M175.355,13.501h2.253v7.729h-2.253V13.501z"/>
		<path fill="#231F20" d="M179.621,14.891c0-0.03,0-0.87-0.046-1.405h2.162l0.062,1.161c0.213-0.352,0.822-1.344,2.497-1.344
			c1.508,0,2.147,0.916,2.346,1.45c0.167,0.474,0.213,0.871,0.213,2.307v4.17h-2.3v-4.796c0-0.321,0-0.596-0.122-0.84
			c-0.167-0.336-0.518-0.657-1.096-0.657c-0.487,0-0.93,0.229-1.173,0.596c-0.137,0.198-0.274,0.58-0.274,1.176v4.521h-2.269V14.891
			z"/>
	</g>
	<g>
		<path fill="#5E5F5E" d="M20.72,28.07c-0.431,1.31-1.149,3.431-1.149,5.774c0,1.754,0.366,3.063,1.137,5.747h-1.424
			c-0.744-1.819-1.319-3.718-1.319-5.682c0-2.017,0.601-3.967,1.333-5.84H20.72z"/>
		<path fill="#5E5F5E" d="M22.026,28.516h3.304l1.999,6.887l2.155-6.887h3.213v9.466h-2.012v-8.117l-2.573,8.117H26.44l-2.521-8.117
			v8.117h-1.894V28.516z"/>
		<path fill="#5E5F5E" d="M37.266,31.213c2.39,0,3.422,1.623,3.422,3.47c0,1.858-1.071,3.534-3.461,3.534
			c-1.881,0-3.37-1.165-3.37-3.482C33.857,33.138,34.667,31.213,37.266,31.213z M37.292,36.868c0.85,0,1.424-0.51,1.424-2.265
			c0-0.877-0.17-2.095-1.449-2.095c-1.411,0-1.424,1.637-1.424,2.239C35.842,36.228,36.339,36.868,37.292,36.868z"/>
		<path fill="#5E5F5E" d="M46.238,28.529h1.946v8.379c0,0.393,0.025,0.824,0.052,1.073h-1.959l-0.053-0.956
			c-0.13,0.236-0.261,0.484-0.666,0.747c-0.483,0.313-0.992,0.34-1.28,0.34c-1.763,0-2.808-1.218-2.808-3.286
			c0-2.187,1.188-3.548,2.912-3.548c1.188,0,1.686,0.668,1.855,0.903V28.529z M44.761,36.856c0.562,0,1.019-0.341,1.228-0.746
			c0.288-0.55,0.314-1.23,0.314-1.558c0-1.297-0.563-2.004-1.438-2.004c-1.293,0-1.437,1.559-1.437,2.226
			C43.429,35.874,43.796,36.856,44.761,36.856z"/>
		<path fill="#5E5F5E" d="M51.146,35.167c0,0.432,0,1.768,1.346,1.768c0.483,0,0.966-0.184,1.149-0.917h1.763
			c-0.026,0.314-0.091,0.877-0.627,1.44c-0.483,0.511-1.345,0.772-2.312,0.772c-0.562,0-1.633-0.105-2.325-0.825
			c-0.601-0.628-0.849-1.519-0.849-2.579c0-1.073,0.261-2.356,1.371-3.129c0.51-0.341,1.137-0.55,1.854-0.55
			c0.94,0,2.064,0.366,2.665,1.598c0.444,0.903,0.418,1.872,0.392,2.422H51.146z M53.602,33.949c0-0.301-0.026-1.479-1.15-1.479
			c-0.849,0-1.201,0.707-1.24,1.479H53.602z"/>
		<path fill="#5E5F5E" d="M56.591,32.993c0-0.314-0.052-1.27-0.091-1.649h1.815l0.039,1.27c0.248-0.563,0.679-1.361,2.247-1.282
			v1.741c-1.96-0.184-2.077,0.824-2.077,1.649v3.26h-1.934V32.993z"/>
		<path fill="#5E5F5E" d="M65.12,37.982c-0.065-0.406-0.065-0.707-0.065-0.903c-0.731,1.061-1.606,1.061-1.972,1.061
			c-0.954,0-1.385-0.275-1.646-0.523c-0.392-0.394-0.574-0.93-0.574-1.453c0-0.524,0.183-1.493,1.397-2.056
			c0.81-0.367,1.972-0.367,2.612-0.367c0-0.432-0.014-0.642-0.092-0.877c-0.17-0.484-0.679-0.55-0.861-0.55
			c-0.274,0-0.563,0.118-0.732,0.366c-0.144,0.223-0.144,0.433-0.144,0.59h-1.894c0.013-0.354,0.053-1.061,0.744-1.559
			c0.602-0.432,1.372-0.536,1.999-0.536c0.548,0,1.698,0.092,2.351,0.851c0.444,0.537,0.457,1.322,0.457,1.624l0.014,2.657
			c0,0.563,0.039,1.126,0.156,1.676H65.12z M62.743,35.94c0,0.444,0.3,0.942,0.94,0.942c0.353,0,0.64-0.17,0.822-0.38
			c0.34-0.419,0.366-0.93,0.366-1.637C63.631,34.761,62.743,35.153,62.743,35.94z"/>
		<path fill="#5E5F5E" d="M72.041,37.89c-0.627,0.17-1.188,0.21-1.502,0.21c-1.946,0-1.946-1.231-1.946-1.781v-3.626h-1.268v-1.283
			h1.268v-1.296l1.92-0.707v2.003h1.567v1.283h-1.567v2.984c0.013,0.603,0.013,0.982,0.875,0.982c0.287,0,0.418-0.013,0.653-0.039
			V37.89z"/>
		<path fill="#5E5F5E" d="M74.273,35.167c0,0.432,0,1.768,1.346,1.768c0.483,0,0.966-0.184,1.149-0.917h1.763
			c-0.026,0.314-0.091,0.877-0.627,1.44c-0.483,0.511-1.345,0.772-2.312,0.772c-0.562,0-1.633-0.105-2.325-0.825
			c-0.601-0.628-0.849-1.519-0.849-2.579c0-1.073,0.261-2.356,1.371-3.129c0.51-0.341,1.137-0.55,1.854-0.55
			c0.94,0,2.064,0.366,2.665,1.598c0.444,0.903,0.418,1.872,0.392,2.422H74.273z M76.729,33.949c0-0.301-0.026-1.479-1.15-1.479
			c-0.849,0-1.201,0.707-1.24,1.479H76.729z"/>
		<path fill="#5E5F5E" d="M79.444,33.779h3.238v1.479h-3.238V33.779z"/>
		<path fill="#5E5F5E" d="M83.741,28.529h2.063v1.688h-2.063V28.529z M83.805,31.357h1.934v6.625h-1.934V31.357z"/>
		<path fill="#5E5F5E" d="M87.201,32.548c0-0.025,0-0.746-0.039-1.204h1.854l0.053,0.995c0.183-0.301,0.705-1.152,2.142-1.152
			c1.293,0,1.842,0.786,2.012,1.244c0.144,0.405,0.183,0.746,0.183,1.977v3.574h-1.972V33.87c0-0.274,0-0.51-0.104-0.72
			c-0.145-0.288-0.444-0.563-0.94-0.563c-0.418,0-0.797,0.196-1.006,0.51c-0.118,0.171-0.235,0.498-0.235,1.009v3.875h-1.946V32.548
			z"/>
		<path fill="#5E5F5E" d="M98.772,37.89c-0.627,0.17-1.188,0.21-1.502,0.21c-1.946,0-1.946-1.231-1.946-1.781v-3.626h-1.268v-1.283
			h1.268v-1.296l1.92-0.707v2.003h1.567v1.283h-1.567v2.984c0.013,0.603,0.013,0.982,0.875,0.982c0.287,0,0.418-0.013,0.653-0.039
			V37.89z"/>
		<path fill="#5E5F5E" d="M101.017,35.167c0,0.432,0,1.768,1.346,1.768c0.483,0,0.966-0.184,1.149-0.917h1.763
			c-0.026,0.314-0.091,0.877-0.627,1.44c-0.483,0.511-1.345,0.772-2.312,0.772c-0.562,0-1.633-0.105-2.325-0.825
			c-0.601-0.628-0.849-1.519-0.849-2.579c0-1.073,0.261-2.356,1.371-3.129c0.51-0.341,1.137-0.55,1.854-0.55
			c0.94,0,2.064,0.366,2.665,1.598c0.444,0.903,0.418,1.872,0.392,2.422H101.017z M103.473,33.949c0-0.301-0.026-1.479-1.15-1.479
			c-0.849,0-1.201,0.707-1.24,1.479H103.473z"/>
		<path fill="#5E5F5E" d="M106.488,32.548c0-0.025,0-0.746-0.039-1.204h1.854l0.053,0.995c0.183-0.301,0.705-1.152,2.142-1.152
			c1.293,0,1.842,0.786,2.012,1.244c0.144,0.405,0.183,0.746,0.183,1.977v3.574h-1.972V33.87c0-0.274,0-0.51-0.104-0.72
			c-0.145-0.288-0.444-0.563-0.94-0.563c-0.418,0-0.797,0.196-1.006,0.51c-0.118,0.171-0.235,0.498-0.235,1.009v3.875h-1.946V32.548
			z"/>
		<path fill="#5E5F5E" d="M115.525,36.07c0.026,0.419,0.287,0.903,1.097,0.903c0.692,0,1.02-0.393,1.02-0.786
			c0-0.301-0.157-0.536-0.914-0.746l-1.202-0.327c-0.535-0.157-1.672-0.484-1.672-1.833c0-1.283,1.176-2.068,2.887-2.068
			c1.358,0,2.455,0.628,2.508,1.95h-1.764c-0.052-0.732-0.64-0.785-0.94-0.785c-0.522,0-0.914,0.249-0.914,0.654
			c0,0.445,0.326,0.537,0.901,0.694l1.188,0.327c1.201,0.327,1.764,0.942,1.764,1.846c0,1.14-0.98,2.278-3.03,2.278
			c-0.85,0-1.659-0.184-2.26-0.812c-0.432-0.458-0.471-0.982-0.483-1.296H115.525z"/>
		<path fill="#5E5F5E" d="M120.382,28.529h2.064v1.688h-2.064V28.529z M120.447,31.357h1.934v6.625h-1.934V31.357z"/>
		<path fill="#5E5F5E" d="M127.696,37.89c-0.627,0.17-1.188,0.21-1.502,0.21c-1.946,0-1.946-1.231-1.946-1.781v-3.626h-1.268v-1.283
			h1.268v-1.296l1.92-0.707v2.003h1.567v1.283h-1.567v2.984c0.013,0.603,0.013,0.982,0.875,0.982c0.287,0,0.418-0.013,0.653-0.039
			V37.89z"/>
		<path fill="#5E5F5E" d="M130.058,31.37l1.45,4.582l1.476-4.582h1.92l-2.494,6.493l-0.797,2.632h-1.946l0.836-2.487l-2.534-6.638
			H130.058z"/>
		<path fill="#5E5F5E" d="M140.349,36.07c0.026,0.419,0.287,0.903,1.097,0.903c0.692,0,1.02-0.393,1.02-0.786
			c0-0.301-0.157-0.536-0.914-0.746l-1.202-0.327c-0.535-0.157-1.672-0.484-1.672-1.833c0-1.283,1.176-2.068,2.887-2.068
			c1.358,0,2.455,0.628,2.508,1.95h-1.764c-0.052-0.732-0.64-0.785-0.94-0.785c-0.522,0-0.914,0.249-0.914,0.654
			c0,0.445,0.326,0.537,0.901,0.694l1.188,0.327c1.201,0.327,1.764,0.942,1.764,1.846c0,1.14-0.98,2.278-3.03,2.278
			c-0.85,0-1.659-0.184-2.26-0.812c-0.432-0.458-0.471-0.982-0.483-1.296H140.349z"/>
		<path fill="#5E5F5E" d="M149.151,37.89c-0.627,0.17-1.188,0.21-1.502,0.21c-1.946,0-1.946-1.231-1.946-1.781v-3.626h-1.268v-1.283
			h1.268v-1.296l1.92-0.707v2.003h1.567v1.283h-1.567v2.984c0.013,0.603,0.013,0.982,0.875,0.982c0.287,0,0.418-0.013,0.653-0.039
			V37.89z"/>
		<path fill="#5E5F5E" d="M154.049,37.982c-0.065-0.406-0.065-0.707-0.065-0.903c-0.731,1.061-1.606,1.061-1.973,1.061
			c-0.953,0-1.384-0.275-1.646-0.523c-0.392-0.394-0.574-0.93-0.574-1.453c0-0.524,0.183-1.493,1.397-2.056
			c0.81-0.367,1.973-0.367,2.612-0.367c0-0.432-0.013-0.642-0.092-0.877c-0.17-0.484-0.679-0.55-0.862-0.55
			c-0.273,0-0.562,0.118-0.73,0.366c-0.145,0.223-0.145,0.433-0.145,0.59h-1.894c0.013-0.354,0.052-1.061,0.744-1.559
			c0.602-0.432,1.372-0.536,1.999-0.536c0.549,0,1.697,0.092,2.351,0.851c0.444,0.537,0.457,1.322,0.457,1.624l0.014,2.657
			c0,0.563,0.039,1.126,0.156,1.676H154.049z M151.672,35.94c0,0.444,0.3,0.942,0.94,0.942c0.353,0,0.64-0.17,0.822-0.38
			c0.34-0.419,0.366-0.93,0.366-1.637C152.559,34.761,151.672,35.153,151.672,35.94z"/>
		<path fill="#5E5F5E" d="M160.969,37.89c-0.627,0.17-1.188,0.21-1.502,0.21c-1.946,0-1.946-1.231-1.946-1.781v-3.626h-1.268v-1.283
			h1.268v-1.296l1.92-0.707v2.003h1.567v1.283h-1.567v2.984c0.013,0.603,0.013,0.982,0.875,0.982c0.287,0,0.418-0.013,0.653-0.039
			V37.89z"/>
		<path fill="#5E5F5E" d="M161.842,28.529h2.064v1.688h-2.064V28.529z M161.908,31.357h1.934v6.625h-1.934V31.357z"/>
		<path fill="#5E5F5E" d="M165.303,32.548c0-0.025,0-0.746-0.039-1.204h1.854l0.053,0.995c0.183-0.301,0.705-1.152,2.142-1.152
			c1.293,0,1.842,0.786,2.012,1.244c0.144,0.405,0.183,0.746,0.183,1.977v3.574h-1.972V33.87c0-0.274,0-0.51-0.104-0.72
			c-0.144-0.288-0.444-0.563-0.94-0.563c-0.418,0-0.797,0.196-1.006,0.51c-0.118,0.171-0.235,0.498-0.235,1.009v3.875h-1.946V32.548
			z"/>
		<path fill="#5E5F5E" d="M176.299,28.529h2.063v1.688h-2.063V28.529z M176.364,31.357h1.934v6.625h-1.934V31.357z"/>
		<path fill="#5E5F5E" d="M179.864,32.745h-0.979V31.37h0.979v-0.903c0-1.165,0.392-2.108,2.272-2.108c0.131,0,0.497,0,1.045,0.065
			v1.349c-0.195-0.026-0.248-0.039-0.404-0.039c-0.993,0-0.993,0.523-0.993,0.864v0.772h1.229v1.375h-1.229v5.236h-1.92V32.745z"/>
		<path fill="#5E5F5E" d="M187.216,32.548c0-0.025,0-0.746-0.039-1.204h1.854l0.053,0.995c0.183-0.301,0.705-1.152,2.142-1.152
			c1.293,0,1.842,0.786,2.012,1.244c0.144,0.405,0.183,0.746,0.183,1.977v3.574h-1.972V33.87c0-0.274,0-0.51-0.104-0.72
			c-0.144-0.288-0.444-0.563-0.94-0.563c-0.418,0-0.797,0.196-1.006,0.51c-0.118,0.171-0.235,0.498-0.235,1.009v3.875h-1.946V32.548
			z"/>
		<path fill="#5E5F5E" d="M198.016,31.213c2.39,0,3.422,1.623,3.422,3.47c0,1.858-1.071,3.534-3.461,3.534
			c-1.881,0-3.37-1.165-3.37-3.482C194.607,33.138,195.417,31.213,198.016,31.213z M198.042,36.868c0.85,0,1.424-0.51,1.424-2.265
			c0-0.877-0.17-2.095-1.449-2.095c-1.411,0-1.424,1.637-1.424,2.239C196.592,36.228,197.089,36.868,198.042,36.868z"/>
		<path fill="#5E5F5E" d="M206.505,37.89c-0.627,0.17-1.188,0.21-1.502,0.21c-1.946,0-1.946-1.231-1.946-1.781v-3.626h-1.268v-1.283
			h1.268v-1.296l1.92-0.707v2.003h1.567v1.283h-1.567v2.984c0.013,0.603,0.013,0.982,0.875,0.982c0.287,0,0.418-0.013,0.653-0.039
			V37.89z"/>
	</g>
	<g>
		<path fill="#5E5F5E" d="M14.966,46.801c-0.026-0.236-0.105-1.218-0.85-1.218c-0.914,0-1.019,1.388-1.019,2.107
			c0,0.367,0.039,1.545,0.483,2.029c0.183,0.196,0.379,0.223,0.522,0.223c0.209,0,0.81-0.092,0.888-1.27h1.907
			c-0.026,0.51-0.092,1.309-0.849,1.95c-0.471,0.406-1.059,0.615-1.881,0.615c-0.875,0-1.646-0.196-2.247-0.877
			c-0.574-0.668-0.836-1.545-0.836-2.605c0-3.011,2.208-3.43,3.083-3.43c1.228,0,2.678,0.681,2.69,2.475H14.966z"/>
		<path fill="#5E5F5E" d="M21.704,51.068c-0.065-0.406-0.065-0.707-0.065-0.903c-0.731,1.061-1.606,1.061-1.972,1.061
			c-0.954,0-1.385-0.275-1.646-0.523c-0.392-0.394-0.574-0.93-0.574-1.453c0-0.524,0.183-1.493,1.397-2.056
			c0.81-0.367,1.972-0.367,2.612-0.367c0-0.432-0.014-0.642-0.092-0.877c-0.17-0.484-0.679-0.55-0.861-0.55
			c-0.274,0-0.563,0.118-0.732,0.366c-0.144,0.223-0.144,0.433-0.144,0.59h-1.894c0.013-0.354,0.053-1.061,0.744-1.559
			c0.602-0.432,1.372-0.536,1.999-0.536c0.548,0,1.698,0.092,2.351,0.851c0.444,0.537,0.457,1.322,0.457,1.624l0.014,2.657
			c0,0.563,0.039,1.126,0.156,1.676H21.704z M19.327,49.026c0,0.444,0.3,0.942,0.94,0.942c0.353,0,0.64-0.17,0.822-0.38
			c0.34-0.419,0.366-0.93,0.366-1.637C20.215,47.848,19.327,48.24,19.327,49.026z"/>
		<path fill="#5E5F5E" d="M24.771,45.635c0-0.025,0-0.746-0.039-1.204h1.854l0.053,0.995c0.183-0.301,0.705-1.152,2.142-1.152
			c1.293,0,1.842,0.786,2.012,1.244c0.144,0.405,0.183,0.746,0.183,1.977v3.574h-1.972v-4.111c0-0.274,0-0.51-0.104-0.72
			c-0.145-0.288-0.444-0.563-0.94-0.563c-0.418,0-0.797,0.196-1.006,0.51c-0.118,0.171-0.235,0.498-0.235,1.009v3.875h-1.946V45.635
			z"/>
		<path fill="#5E5F5E" d="M36.826,41.616h1.946v8.379c0,0.393,0.025,0.824,0.052,1.073h-1.959l-0.053-0.956
			c-0.13,0.236-0.261,0.484-0.666,0.746c-0.483,0.314-0.992,0.341-1.28,0.341c-1.763,0-2.808-1.218-2.808-3.286
			c0-2.187,1.188-3.548,2.912-3.548c1.188,0,1.686,0.668,1.855,0.903V41.616z M35.349,49.942c0.562,0,1.019-0.34,1.228-0.746
			c0.288-0.55,0.314-1.23,0.314-1.558c0-1.297-0.563-2.004-1.438-2.004c-1.293,0-1.437,1.559-1.437,2.226
			C34.017,48.961,34.383,49.942,35.349,49.942z"/>
		<path fill="#5E5F5E" d="M40.114,41.616h2.064v1.688h-2.064V41.616z M40.179,44.443h1.934v6.625h-1.934V44.443z"/>
		<path fill="#5E5F5E" d="M47.912,41.616h1.946v8.379c0,0.393,0.025,0.824,0.052,1.073h-1.959l-0.053-0.956
			c-0.13,0.236-0.261,0.484-0.666,0.746c-0.483,0.314-0.992,0.341-1.28,0.341c-1.763,0-2.808-1.218-2.808-3.286
			c0-2.187,1.188-3.548,2.912-3.548c1.188,0,1.686,0.668,1.855,0.903V41.616z M46.435,49.942c0.562,0,1.019-0.34,1.228-0.746
			c0.288-0.55,0.314-1.23,0.314-1.558c0-1.297-0.563-2.004-1.438-2.004c-1.293,0-1.437,1.559-1.437,2.226
			C45.103,48.961,45.469,49.942,46.435,49.942z"/>
		<path fill="#5E5F5E" d="M55.224,51.068c-0.065-0.406-0.065-0.707-0.065-0.903c-0.731,1.061-1.606,1.061-1.973,1.061
			c-0.953,0-1.384-0.275-1.646-0.523c-0.392-0.394-0.574-0.93-0.574-1.453c0-0.524,0.183-1.493,1.397-2.056
			c0.81-0.367,1.973-0.367,2.612-0.367c0-0.432-0.013-0.642-0.092-0.877c-0.17-0.484-0.679-0.55-0.862-0.55
			c-0.273,0-0.562,0.118-0.73,0.366c-0.145,0.223-0.145,0.433-0.145,0.59h-1.894c0.013-0.354,0.052-1.061,0.744-1.559
			c0.602-0.432,1.372-0.536,1.999-0.536c0.549,0,1.697,0.092,2.351,0.851c0.444,0.537,0.457,1.322,0.457,1.624l0.014,2.657
			c0,0.563,0.039,1.126,0.156,1.676H55.224z M52.847,49.026c0,0.444,0.3,0.942,0.94,0.942c0.353,0,0.64-0.17,0.822-0.38
			c0.34-0.419,0.366-0.93,0.366-1.637C53.735,47.848,52.847,48.24,52.847,49.026z"/>
		<path fill="#5E5F5E" d="M62.146,50.977c-0.627,0.17-1.188,0.21-1.502,0.21c-1.946,0-1.946-1.231-1.946-1.781v-3.626H57.43v-1.283
			h1.268V43.2l1.92-0.707v2.003h1.567v1.283h-1.567v2.985c0.013,0.602,0.013,0.981,0.875,0.981c0.287,0,0.418-0.013,0.653-0.039
			V50.977z"/>
		<path fill="#5E5F5E" d="M64.391,48.254c0,0.432,0,1.767,1.346,1.767c0.482,0,0.966-0.183,1.149-0.916h1.763
			c-0.025,0.314-0.091,0.877-0.627,1.44c-0.483,0.511-1.345,0.772-2.312,0.772c-0.562,0-1.633-0.105-2.325-0.825
			c-0.601-0.628-0.849-1.519-0.849-2.579c0-1.073,0.261-2.356,1.371-3.129c0.51-0.341,1.137-0.55,1.854-0.55
			c0.94,0,2.064,0.366,2.665,1.597c0.444,0.904,0.418,1.873,0.392,2.423H64.391z M66.846,47.036c0-0.301-0.025-1.479-1.148-1.479
			c-0.85,0-1.202,0.707-1.241,1.479H66.846z"/>
		<path fill="#5E5F5E" d="M73.336,45.831h-0.979v-1.374h0.979v-0.903c0-1.165,0.392-2.108,2.272-2.108c0.131,0,0.497,0,1.045,0.065
			v1.349c-0.195-0.026-0.248-0.039-0.404-0.039c-0.993,0-0.993,0.523-0.993,0.864v0.772h1.228v1.374h-1.228v5.237h-1.92V45.831z"/>
		<path fill="#5E5F5E" d="M80.14,44.3c2.39,0,3.422,1.623,3.422,3.47c0,1.858-1.071,3.534-3.462,3.534
			c-1.881,0-3.369-1.165-3.369-3.482C76.731,46.225,77.541,44.3,80.14,44.3z M80.166,49.955c0.85,0,1.424-0.51,1.424-2.265
			c0-0.877-0.17-2.095-1.449-2.095c-1.411,0-1.424,1.637-1.424,2.239C78.716,49.315,79.213,49.955,80.166,49.955z"/>
		<path fill="#5E5F5E" d="M84.749,46.08c0-0.314-0.052-1.27-0.091-1.649h1.815l0.039,1.27c0.248-0.563,0.68-1.361,2.246-1.282v1.741
			c-1.959-0.184-2.076,0.824-2.076,1.649v3.26h-1.934V46.08z"/>
		<path fill="#5E5F5E" d="M92.989,41.616h1.92v3.744c0.222-0.314,0.705-0.995,1.907-0.995c0.979,0,1.606,0.484,1.92,0.891
			c0.235,0.327,0.431,0.929,0.431,1.793v4.02h-1.92v-3.954c0-0.379,0-1.439-1.084-1.439c-0.549,0-1.241,0.313-1.241,1.348
			l0.014,4.046h-1.946V41.616z"/>
		<path fill="#5E5F5E" d="M100.589,41.616h2.064v1.688h-2.064V41.616z M100.654,44.443h1.934v6.625h-1.934V44.443z"/>
		<path fill="#5E5F5E" d="M110.28,44.483c-0.053,0.523-0.092,0.969-0.092,1.636v4.884c0,2.436-2.024,2.671-3.291,2.671
			c-0.94,0-2.782-0.118-2.899-2.121h1.854c0.026,0.196,0.117,0.916,1.149,0.916c0.574,0,1.071-0.274,1.201-0.863
			c0.079-0.327,0.079-0.563,0.092-1.571c-0.614,0.812-1.306,0.903-1.776,0.903c-1.894,0-2.782-1.649-2.782-3.247
			c0-1.676,0.928-3.272,2.821-3.272c1.202,0,1.646,0.654,1.842,0.942l0.065-0.877H110.28z M106.963,49.615
			c1.358,0,1.358-1.598,1.358-1.886c0-0.746-0.144-2.016-1.319-2.016c-0.731,0-1.332,0.563-1.332,1.977
			C105.67,48.018,105.67,49.615,106.963,49.615z"/>
		<path fill="#5E5F5E" d="M111.793,41.616h1.92v3.744c0.222-0.314,0.705-0.995,1.907-0.995c0.979,0,1.606,0.484,1.92,0.891
			c0.235,0.327,0.431,0.929,0.431,1.793v4.02h-1.92v-3.954c0-0.379,0-1.439-1.084-1.439c-0.549,0-1.241,0.313-1.241,1.348
			l0.014,4.046h-1.946V41.616z"/>
		<path fill="#5E5F5E" d="M119.184,46.866h3.238v1.479h-3.238V46.866z"/>
		<path fill="#5E5F5E" d="M123.481,41.616h2.063v1.688h-2.063V41.616z M123.546,44.443h1.934v6.625h-1.934V44.443z"/>
		<path fill="#5E5F5E" d="M126.941,45.635c0-0.025,0-0.746-0.039-1.204h1.854l0.053,0.995c0.183-0.301,0.705-1.152,2.142-1.152
			c1.293,0,1.842,0.786,2.012,1.244c0.144,0.405,0.183,0.746,0.183,1.977v3.574h-1.972v-4.111c0-0.274,0-0.51-0.104-0.72
			c-0.145-0.288-0.444-0.563-0.94-0.563c-0.418,0-0.797,0.196-1.006,0.51c-0.118,0.171-0.235,0.498-0.235,1.009v3.875h-1.946V45.635
			z"/>
		<path fill="#5E5F5E" d="M138.511,50.977c-0.627,0.17-1.188,0.21-1.502,0.21c-1.946,0-1.946-1.231-1.946-1.781v-3.626h-1.268
			v-1.283h1.268V43.2l1.92-0.707v2.003h1.567v1.283h-1.567v2.985c0.013,0.602,0.013,0.981,0.875,0.981
			c0.287,0,0.418-0.013,0.653-0.039V50.977z"/>
		<path fill="#5E5F5E" d="M140.744,48.254c0,0.432,0,1.767,1.346,1.767c0.483,0,0.966-0.183,1.149-0.916h1.763
			c-0.026,0.314-0.091,0.877-0.627,1.44c-0.483,0.511-1.345,0.772-2.312,0.772c-0.562,0-1.633-0.105-2.325-0.825
			c-0.601-0.628-0.849-1.519-0.849-2.579c0-1.073,0.261-2.356,1.371-3.129c0.51-0.341,1.137-0.55,1.854-0.55
			c0.94,0,2.064,0.366,2.665,1.597c0.444,0.904,0.418,1.873,0.392,2.423H140.744z M143.2,47.036c0-0.301-0.026-1.479-1.15-1.479
			c-0.849,0-1.201,0.707-1.24,1.479H143.2z"/>
		<path fill="#5E5F5E" d="M146.215,45.635c0-0.025,0-0.746-0.039-1.204h1.854l0.053,0.995c0.183-0.301,0.705-1.152,2.142-1.152
			c1.293,0,1.842,0.786,2.012,1.244c0.144,0.405,0.183,0.746,0.183,1.977v3.574h-1.972v-4.111c0-0.274,0-0.51-0.104-0.72
			c-0.145-0.288-0.444-0.563-0.94-0.563c-0.418,0-0.797,0.196-1.006,0.51c-0.118,0.171-0.235,0.498-0.235,1.009v3.875h-1.946V45.635
			z"/>
		<path fill="#5E5F5E" d="M155.252,49.157c0.026,0.419,0.287,0.903,1.097,0.903c0.692,0,1.02-0.393,1.02-0.786
			c0-0.301-0.157-0.536-0.914-0.746l-1.202-0.327c-0.535-0.157-1.672-0.484-1.672-1.833c0-1.283,1.176-2.068,2.887-2.068
			c1.358,0,2.455,0.628,2.508,1.951h-1.764c-0.052-0.733-0.64-0.786-0.94-0.786c-0.522,0-0.914,0.249-0.914,0.654
			c0,0.445,0.326,0.537,0.901,0.694l1.188,0.327c1.201,0.327,1.764,0.942,1.764,1.846c0,1.14-0.98,2.278-3.03,2.278
			c-0.85,0-1.659-0.184-2.26-0.812c-0.432-0.458-0.471-0.982-0.483-1.296H155.252z"/>
		<path fill="#5E5F5E" d="M160.11,41.616h2.063v1.688h-2.063V41.616z M160.174,44.443h1.934v6.625h-1.934V44.443z"/>
		<path fill="#5E5F5E" d="M167.424,50.977c-0.627,0.17-1.188,0.21-1.502,0.21c-1.946,0-1.946-1.231-1.946-1.781v-3.626h-1.268
			v-1.283h1.268V43.2l1.92-0.707v2.003h1.567v1.283h-1.567v2.985c0.013,0.602,0.013,0.981,0.875,0.981
			c0.287,0,0.418-0.013,0.653-0.039V50.977z"/>
		<path fill="#5E5F5E" d="M169.786,44.457l1.45,4.582l1.476-4.582h1.92l-2.494,6.493l-0.797,2.632h-1.946l0.836-2.487l-2.534-6.638
			H169.786z"/>
		<path fill="#5E5F5E" d="M180.076,49.157c0.026,0.419,0.287,0.903,1.097,0.903c0.692,0,1.02-0.393,1.02-0.786
			c0-0.301-0.157-0.536-0.914-0.746l-1.202-0.327c-0.535-0.157-1.672-0.484-1.672-1.833c0-1.283,1.176-2.068,2.887-2.068
			c1.358,0,2.455,0.628,2.508,1.951h-1.764c-0.052-0.733-0.64-0.786-0.94-0.786c-0.522,0-0.914,0.249-0.914,0.654
			c0,0.445,0.326,0.537,0.901,0.694l1.188,0.327c1.201,0.327,1.764,0.942,1.764,1.846c0,1.14-0.98,2.278-3.03,2.278
			c-0.85,0-1.659-0.184-2.26-0.812c-0.432-0.458-0.471-0.982-0.483-1.296H180.076z"/>
		<path fill="#5E5F5E" d="M188.879,50.977c-0.627,0.17-1.188,0.21-1.502,0.21c-1.946,0-1.946-1.231-1.946-1.781v-3.626h-1.268
			v-1.283h1.268V43.2l1.92-0.707v2.003h1.567v1.283h-1.567v2.985c0.013,0.602,0.013,0.981,0.875,0.981
			c0.287,0,0.418-0.013,0.653-0.039V50.977z"/>
		<path fill="#5E5F5E" d="M193.775,51.068c-0.065-0.406-0.065-0.707-0.065-0.903c-0.731,1.061-1.606,1.061-1.973,1.061
			c-0.953,0-1.384-0.275-1.646-0.523c-0.392-0.394-0.574-0.93-0.574-1.453c0-0.524,0.183-1.493,1.397-2.056
			c0.81-0.367,1.973-0.367,2.612-0.367c0-0.432-0.013-0.642-0.092-0.877c-0.17-0.484-0.679-0.55-0.862-0.55
			c-0.273,0-0.562,0.118-0.73,0.366c-0.145,0.223-0.145,0.433-0.145,0.59h-1.894c0.013-0.354,0.052-1.061,0.744-1.559
			c0.602-0.432,1.372-0.536,1.999-0.536c0.549,0,1.697,0.092,2.351,0.851c0.444,0.537,0.457,1.322,0.457,1.624l0.014,2.657
			c0,0.563,0.039,1.126,0.156,1.676H193.775z M191.398,49.026c0,0.444,0.3,0.942,0.94,0.942c0.353,0,0.64-0.17,0.822-0.38
			c0.34-0.419,0.366-0.93,0.366-1.637C192.286,47.848,191.398,48.24,191.398,49.026z"/>
		<path fill="#5E5F5E" d="M200.696,50.977c-0.627,0.17-1.188,0.21-1.502,0.21c-1.946,0-1.946-1.231-1.946-1.781v-3.626h-1.268
			v-1.283h1.268V43.2l1.92-0.707v2.003h1.567v1.283h-1.567v2.985c0.013,0.602,0.013,0.981,0.875,0.981
			c0.287,0,0.418-0.013,0.653-0.039V50.977z"/>
		<path fill="#5E5F5E" d="M201.571,41.616h2.063v1.688h-2.063V41.616z M201.635,44.443h1.934v6.625h-1.934V44.443z"/>
		<path fill="#5E5F5E" d="M205.031,45.635c0-0.025,0-0.746-0.039-1.204h1.854l0.053,0.995c0.183-0.301,0.705-1.152,2.142-1.152
			c1.293,0,1.842,0.786,2.012,1.244c0.144,0.405,0.183,0.746,0.183,1.977v3.574h-1.972v-4.111c0-0.274,0-0.51-0.104-0.72
			c-0.145-0.288-0.444-0.563-0.94-0.563c-0.418,0-0.797,0.196-1.006,0.51c-0.118,0.171-0.235,0.498-0.235,1.009v3.875h-1.946V45.635
			z"/>
		<path fill="#5E5F5E" d="M212.657,52.679c0.431-1.31,1.148-3.43,1.148-5.773c0-1.768-0.365-3.063-1.136-5.748h1.424
			c0.744,1.808,1.319,3.719,1.319,5.669c0,2.017-0.602,3.967-1.333,5.853H212.657z"/>
	</g>
</g>
</svg>
