<?xml version="1.0" encoding="utf-8"?>
<!-- Generator: Adobe Illustrator 17.0.0, SVG Export Plug-In . SVG Version: 6.00 Build 0)  -->
<!DOCTYPE svg PUBLIC "-//W3C//DTD SVG 1.1//EN" "http://www.w3.org/Graphics/SVG/1.1/DTD/svg11.dtd">
<svg version="1.1" id="Layer_1" xmlns="http://www.w3.org/2000/svg" xmlns:xlink="http://www.w3.org/1999/xlink" x="0px" y="0px"
	 width="257.164px" height="103.746px" viewBox="0 0 257.164 103.746" enable-background="new 0 0 257.164 103.746"
	 xml:space="preserve">
<g>
	<line fill="none" stroke="#FAAF4C" stroke-width="0.4712" x1="107.271" y1="79.092" x2="107.271" y2="96.739"/>
	<polygon fill="#FAAF4C" points="103.243,93.871 107.271,96.215 111.297,93.871 107.271,103.746 	"/>
	<g>
		<path fill="#808084" d="M218.4,67.15c0,5.998-4.857,10.854-10.827,10.854H10.829C4.848,78.005,0,73.149,0,67.15V11.256
			C0,5.268,4.848,0.402,10.829,0.402h196.743c5.971,0,10.827,4.867,10.827,10.854V67.15z"/>
		<g>
			<defs>
				<path id="SVGID_194_" d="M10.827,0C4.85,0,0.001,4.854,0.001,10.857V66.75c0,5.993,4.849,10.857,10.826,10.857h196.745
					c5.971,0,10.828-4.864,10.828-10.857V10.857C218.4,4.854,213.543,0,207.572,0H10.827z"/>
			</defs>
			<clipPath id="SVGID_2_">
				<use xlink:href="#SVGID_194_"  overflow="visible"/>
			</clipPath>
			
				<linearGradient id="SVGID_4_" gradientUnits="userSpaceOnUse" x1="-2130.321" y1="373.9397" x2="-2128.7942" y2="373.9397" gradientTransform="matrix(0 -50.8301 -50.7253 0 19077.4023 -108206.8203)">
				<stop  offset="0" style="stop-color:#B69170"/>
				<stop  offset="0.2776" style="stop-color:#B99372"/>
				<stop  offset="0.5005" style="stop-color:#C39B77"/>
				<stop  offset="0.7044" style="stop-color:#D4A880"/>
				<stop  offset="0.8959" style="stop-color:#ECBA8D"/>
				<stop  offset="1" style="stop-color:#FCC696"/>
			</linearGradient>
			<rect x="0" y="0" clip-path="url(#SVGID_2_)" fill="url(#SVGID_4_)" width="218.399" height="77.607"/>
		</g>
		<g>
			<defs>
				<path id="SVGID_197_" d="M10.827,4.031c-3.751,0-6.805,3.063-6.805,6.826V66.75c0,3.767,3.054,6.82,6.805,6.82h196.745
					c3.747,0,6.803-3.053,6.803-6.82V10.857c0-3.763-3.057-6.826-6.803-6.826H10.827z"/>
			</defs>
			<clipPath id="SVGID_6_">
				<use xlink:href="#SVGID_197_"  overflow="visible"/>
			</clipPath>
			
				<linearGradient id="SVGID_8_" gradientUnits="userSpaceOnUse" x1="-2130.1978" y1="370.0479" x2="-2128.6709" y2="370.0479" gradientTransform="matrix(0 -45.5469 -45.453 0 16928.9824 -96950.3281)">
				<stop  offset="0" style="stop-color:#FFFFFF"/>
				<stop  offset="0.2973" style="stop-color:#F8F8F8"/>
				<stop  offset="0.7441" style="stop-color:#E6E5E3"/>
				<stop  offset="1" style="stop-color:#D8D7D4"/>
			</linearGradient>
			<rect x="4.022" y="4.031" clip-path="url(#SVGID_6_)" fill="url(#SVGID_8_)" width="210.353" height="69.539"/>
		</g>
		<g opacity="0.4">
			<g>
				<defs>
					<rect id="SVGID_200_" x="3.625" y="3.626" width="211.152" height="70.354"/>
				</defs>
				<clipPath id="SVGID_9_">
					<use xlink:href="#SVGID_200_"  overflow="visible"/>
				</clipPath>
				<g clip-path="url(#SVGID_9_)">
					<defs>
						<path id="SVGID_202_" d="M10.829,3.626c-3.974,0-7.203,3.241-7.203,7.231V66.75c0,3.985,3.229,7.231,7.203,7.231h196.743
							c3.973,0,7.205-3.246,7.205-7.231V10.857c0-3.99-3.232-7.231-7.205-7.231H10.829z"/>
					</defs>
					<clipPath id="SVGID_10_">
						<use xlink:href="#SVGID_202_"  overflow="visible"/>
					</clipPath>
					
						<linearGradient id="SVGID_11_" gradientUnits="userSpaceOnUse" x1="-2132.4026" y1="444.6864" x2="-2130.876" y2="444.6864" gradientTransform="matrix(0 46.0793 45.9842 0 -20339.3496 98263.25)">
						<stop  offset="0" style="stop-color:#FAAD3F"/>
						<stop  offset="0.1049" style="stop-color:#FAB047"/>
						<stop  offset="0.2662" style="stop-color:#FBBA5C"/>
						<stop  offset="0.4635" style="stop-color:#FCC97F"/>
						<stop  offset="0.6895" style="stop-color:#FDDDB0"/>
						<stop  offset="0.9365" style="stop-color:#FFF8EE"/>
						<stop  offset="1" style="stop-color:#FFFFFF"/>
					</linearGradient>
					<rect x="3.625" y="3.626" clip-path="url(#SVGID_10_)" fill="url(#SVGID_11_)" width="211.152" height="70.354"/>
				</g>
			</g>
		</g>
		<g>
			<path fill="#231F20" d="M72.15,23.81l3.639,0.016c0.609,0,2.468,0.015,3.792,0.992c1.386,1.023,1.873,2.765,1.873,4.338
				c0,3.391-1.812,5.163-3.898,5.545c-0.411,0.076-0.867,0.122-1.979,0.122H72.15V23.81z M74.541,33.006
				c0.259,0.015,0.654,0.03,0.929,0.03c1.005,0,1.873-0.076,2.559-0.764c0.929-0.932,0.989-2.581,0.989-3.116
				c0-1.558-0.532-2.993-2.01-3.406c-0.487-0.138-1.111-0.214-2.467-0.152V33.006z"/>
			<path fill="#231F20" d="M83.073,23.749h2.36v11.074h-2.36V23.749z"/>
			<path fill="#231F20" d="M93.247,23.78l3.822,11.043h-2.375l-0.792-2.383h-4.355l-0.822,2.383H86.47l3.975-11.043H93.247z
				 M93.308,30.653l-1.523-4.704l-1.629,4.704H93.308z"/>
			<path fill="#231F20" d="M98.429,23.795h4.112c0.64,0,1.873,0,2.71,0.52c1.006,0.642,1.233,1.711,1.233,2.353
				c0,0.412-0.075,1.13-0.639,1.649c-0.076,0.092-0.609,0.58-1.249,0.748v0.031c1.675,0.305,2.33,1.527,2.33,2.688
				c0,1.299-0.762,2.169-1.614,2.597c-0.853,0.443-2.346,0.443-2.771,0.443h-4.112V23.795z M100.683,28.286h1.645
				c0.67,0,1.889,0,1.889-1.421c0-1.375-1.157-1.375-1.934-1.375h-1.6V28.286z M100.683,33.051h1.6c1.081,0,2.299,0,2.299-1.481
				c0-1.573-1.416-1.573-2.543-1.573h-1.355V33.051z"/>
			<path fill="#231F20" d="M108.682,23.78h7.37v1.802h-5.01v2.627h4.69v1.803h-4.69v2.979h5.178v1.833h-7.538V23.78z"/>
			<path fill="#231F20" d="M120.351,25.612h-3.274V23.78h8.924v1.832h-3.273v9.211h-2.376V25.612z"/>
			<path fill="#231F20" d="M127.3,23.78h7.37v1.802h-5.01v2.627h4.69v1.803h-4.69v2.979h5.178v1.833H127.3V23.78z"/>
			<path fill="#231F20" d="M138.421,31.295c0,0.52-0.031,2.093,1.994,2.093c1.279,0,2.087-0.611,2.087-1.543
				c0-0.978-0.686-1.146-2.087-1.481c-2.619-0.657-4.051-1.437-4.051-3.346c0-1.817,1.295-3.421,4.355-3.421
				c1.143,0,2.498,0.26,3.32,1.298c0.624,0.795,0.624,1.681,0.624,2.047h-2.269c-0.031-0.382-0.152-1.68-1.782-1.68
				c-1.097,0-1.813,0.596-1.813,1.497c0,1.022,0.808,1.206,2.392,1.604c1.903,0.458,3.776,0.978,3.776,3.131
				c0,1.985-1.645,3.59-4.69,3.59c-4.218,0-4.249-2.719-4.264-3.788H138.421z"/>
		</g>
		<g>
			<path fill="#5E5F5E" d="M23.441,42.892c-0.502,1.527-1.34,4.002-1.34,6.736c0,2.046,0.426,3.573,1.324,6.705h-1.659
				c-0.868-2.123-1.538-4.338-1.538-6.629c0-2.353,0.7-4.628,1.553-6.813H23.441z"/>
			<path fill="#5E5F5E" d="M27.844,45.245H24.57v-1.833h8.924v1.833H30.22v9.21h-2.376V45.245z"/>
			<path fill="#5E5F5E" d="M34.045,46.741l1.69,5.347l1.721-5.347h2.239l-2.909,7.576l-0.929,3.07h-2.27l0.975-2.902l-2.954-7.744
				H34.045z"/>
			<path fill="#5E5F5E" d="M42.972,46.741l0.061,1.101c0.701-1.237,1.98-1.253,2.346-1.253c1.995,0,3.198,1.497,3.198,3.85
				c0,2.184-1.127,4.123-3.351,4.123c-1.386,0-1.949-0.732-2.147-0.992v3.849H40.78V46.741H42.972z M46.293,50.529
				c0-0.916-0.229-2.489-1.554-2.489c-0.731,0-1.767,0.55-1.767,2.627c0,0.458,0.016,2.413,1.675,2.413
				C45.714,53.08,46.293,52.056,46.293,50.529z"/>
			<path fill="#5E5F5E" d="M51.976,51.171c0,0.504,0,2.063,1.568,2.063c0.563,0,1.127-0.214,1.341-1.069h2.056
				c-0.03,0.366-0.106,1.023-0.731,1.68c-0.563,0.596-1.568,0.901-2.695,0.901c-0.654,0-1.903-0.122-2.71-0.962
				c-0.701-0.733-0.99-1.771-0.99-3.009c0-1.253,0.305-2.75,1.599-3.651c0.594-0.396,1.325-0.641,2.163-0.641
				c1.096,0,2.405,0.428,3.106,1.863c0.518,1.054,0.487,2.184,0.457,2.825H51.976z M54.84,49.751c0-0.352-0.03-1.727-1.34-1.727
				c-0.99,0-1.401,0.825-1.447,1.727H54.84z"/>
			<path fill="#5E5F5E" d="M63.327,45.397c0.99-0.428,1.935-0.962,2.817-1.604h1.965v10.661h-2.3v-8.294
				c-0.441,0.336-1.324,0.886-2.482,1.359V45.397z"/>
			<path fill="#5E5F5E" d="M79.201,46.558c2.787,0,3.989,1.894,3.989,4.048c0,2.169-1.248,4.124-4.035,4.124
				c-2.192,0-3.929-1.359-3.929-4.063C75.226,48.804,76.171,46.558,79.201,46.558z M79.231,53.157c0.99,0,1.66-0.596,1.66-2.643
				c0-1.023-0.198-2.444-1.69-2.444c-1.645,0-1.66,1.909-1.66,2.612C77.541,52.408,78.12,53.157,79.231,53.157z"/>
			<path fill="#5E5F5E" d="M84.885,48.636c0-0.366-0.062-1.481-0.107-1.925h2.117l0.046,1.481c0.289-0.656,0.792-1.588,2.619-1.496
				v2.031c-2.284-0.214-2.422,0.962-2.422,1.924v3.804h-2.253V48.636z"/>
			<path fill="#5E5F5E" d="M94.438,52.302l2.756-2.521c0.487-0.443,1.036-0.932,1.6-1.619c0.594-0.718,0.73-1.054,0.73-1.543
				c0-0.81-0.472-1.359-1.264-1.359c-1.219,0-1.325,1.253-1.34,1.559h-2.33c0-0.428,0-1.223,0.624-2.001
				c0.609-0.765,1.736-1.161,3.03-1.161c2.315,0,3.594,1.253,3.594,2.902c0,1.1-0.426,2.52-5.025,6.231
				c1.538-0.03,1.722-0.046,2.924-0.061c1.63-0.031,1.813-0.031,2.163-0.046v1.771h-7.462V52.302z"/>
			<path fill="#5E5F5E" d="M106.335,52.424l-1.812,3.757h-1.568l1.127-3.757H106.335z"/>
			<path fill="#5E5F5E" d="M110.861,52.134v-2.063l4.265-6.277h2.269l-0.015,6.583h1.446v1.757h-1.446v2.321h-2.254v-2.321H110.861z
				 M112.567,50.423h2.681v-2.811c0-0.138,0.015-0.901,0.03-1.176L112.567,50.423z"/>
			<path fill="#5E5F5E" d="M123.368,43.64c1.492,0,2.375,0.81,2.771,1.405c0.548,0.81,0.959,1.849,0.959,3.85
				c0,2.475-0.563,5.728-3.761,5.728c-2.727,0-3.67-2.627-3.67-5.468C119.668,47.734,119.957,43.64,123.368,43.64z M124.541,46.65
				c-0.062-0.291-0.32-1.237-1.158-1.237c-0.654,0-0.943,0.596-1.051,0.916c-0.35,1.085-0.35,2.719-0.35,2.979
				c0,1.817,0.273,3.513,1.416,3.513c1.219,0,1.416-2.077,1.416-3.543C124.814,48.605,124.738,47.352,124.541,46.65z"/>
			<path fill="#5E5F5E" d="M128.228,49.552h3.776v1.727h-3.776V49.552z"/>
			<path fill="#5E5F5E" d="M133.195,43.808h7.203v1.895l-3.655,8.752H134.2l3.884-8.874h-4.889V43.808z"/>
			<path fill="#5E5F5E" d="M143.828,51.828c-0.015,0.244,0.183,1.191,1.249,1.191c0.822,0,1.568-0.596,1.568-2.001
				c0-1.023-0.396-1.909-1.416-1.909s-1.279,0.824-1.355,1.069l-2.208-0.062l0.243-6.309h6.442v1.742h-4.432l-0.137,2.642
				c0.335-0.29,0.837-0.764,2.01-0.764c1.705,0,3.137,1.253,3.137,3.392c0,1.817-1.065,3.864-3.792,3.864
				c-1.111,0-2.238-0.291-2.969-1.161c-0.533-0.642-0.579-1.299-0.595-1.695H143.828z"/>
			<path fill="#5E5F5E" d="M156.458,46.741l1.69,5.347l1.721-5.347h2.239l-2.909,7.576l-0.929,3.07h-2.269l0.975-2.902l-2.955-7.744
				H156.458z"/>
			<path fill="#5E5F5E" d="M164.792,51.171c0,0.504,0,2.063,1.568,2.063c0.563,0,1.127-0.214,1.341-1.069h2.056
				c-0.03,0.366-0.106,1.023-0.731,1.68c-0.563,0.596-1.568,0.901-2.695,0.901c-0.654,0-1.903-0.122-2.71-0.962
				c-0.701-0.733-0.99-1.771-0.99-3.009c0-1.253,0.305-2.75,1.599-3.651c0.594-0.396,1.325-0.641,2.163-0.641
				c1.096,0,2.405,0.428,3.106,1.863c0.518,1.054,0.487,2.184,0.457,2.825H164.792z M167.655,49.751c0-0.352-0.03-1.727-1.34-1.727
				c-0.99,0-1.401,0.825-1.447,1.727H167.655z"/>
			<path fill="#5E5F5E" d="M176.064,54.455c-0.075-0.474-0.075-0.825-0.075-1.054c-0.854,1.237-1.874,1.237-2.3,1.237
				c-1.111,0-1.614-0.321-1.919-0.611c-0.457-0.458-0.67-1.084-0.67-1.695s0.213-1.741,1.629-2.398
				c0.944-0.428,2.3-0.428,3.046-0.428c0-0.504-0.015-0.748-0.106-1.022c-0.198-0.565-0.792-0.642-1.005-0.642
				c-0.32,0-0.655,0.137-0.853,0.428c-0.168,0.259-0.168,0.504-0.168,0.687h-2.208c0.016-0.412,0.061-1.237,0.868-1.817
				c0.7-0.504,1.599-0.626,2.33-0.626c0.64,0,1.979,0.106,2.741,0.993c0.518,0.626,0.532,1.542,0.532,1.894l0.016,3.101
				c0,0.657,0.046,1.313,0.183,1.955H176.064z M173.293,52.072c0,0.52,0.351,1.1,1.097,1.1c0.411,0,0.746-0.198,0.96-0.442
				c0.396-0.489,0.426-1.085,0.426-1.909C174.329,50.697,173.293,51.156,173.293,52.072z"/>
			<path fill="#5E5F5E" d="M179.922,48.636c0-0.366-0.062-1.481-0.107-1.925h2.117l0.046,1.481c0.289-0.656,0.792-1.588,2.619-1.496
				v2.031c-2.284-0.214-2.422,0.962-2.422,1.924v3.804h-2.253V48.636z"/>
			<path fill="#5E5F5E" d="M187.416,52.224c0.03,0.489,0.335,1.055,1.279,1.055c0.807,0,1.188-0.459,1.188-0.917
				c0-0.351-0.183-0.626-1.066-0.87l-1.4-0.382c-0.625-0.184-1.949-0.565-1.949-2.139c0-1.497,1.37-2.413,3.365-2.413
				c1.584,0,2.863,0.733,2.924,2.275H189.7c-0.062-0.855-0.746-0.916-1.097-0.916c-0.609,0-1.066,0.29-1.066,0.764
				c0,0.52,0.381,0.626,1.051,0.81l1.387,0.382c1.4,0.382,2.056,1.1,2.056,2.153c0,1.329-1.143,2.658-3.533,2.658
				c-0.99,0-1.935-0.214-2.635-0.947c-0.502-0.535-0.548-1.146-0.563-1.513H187.416z"/>
			<path fill="#5E5F5E" d="M193.389,56.334c0.502-1.527,1.34-4.002,1.34-6.736c0-2.062-0.427-3.574-1.325-6.705h1.66
				c0.868,2.107,1.538,4.338,1.538,6.613c0,2.353-0.7,4.629-1.554,6.828H193.389z"/>
		</g>
		<g>
			<path fill="#231F20" d="M249.813,34.098v10.069h-1.753l-3.967-8.73h-0.027v8.73h-1.141V34.098h1.809l3.91,8.619h0.028v-8.619
				H249.813z"/>
			<path fill="#231F20" d="M251.82,40.75c0-2.064,0.237-3.766,2.672-3.766c2.436,0,2.672,1.701,2.672,3.766
				c0,3.11-1.183,3.557-2.672,3.557C253.004,44.306,251.82,43.86,251.82,40.75z M255.968,40.262c0-1.925-0.599-2.343-1.476-2.343
				c-0.876,0-1.475,0.418-1.475,2.343c0,2.287,0.292,3.11,1.475,3.11C255.676,43.372,255.968,42.549,255.968,40.262z"/>
		</g>
		<g>
			<defs>
				<polygon id="SVGID_205_" points="223.394,37.73 223.394,37.727 233.121,27.977 235.636,30.51 228.426,37.729 235.636,44.962 
					233.121,47.483 				"/>
			</defs>
			<clipPath id="SVGID_12_">
				<use xlink:href="#SVGID_205_"  overflow="visible"/>
			</clipPath>
			
				<radialGradient id="SVGID_13_" cx="-1802.7469" cy="417.116" r="1.5268" gradientTransform="matrix(5.3254 0 0 -5.3364 9831.4873 2263.4485)" gradientUnits="userSpaceOnUse">
				<stop  offset="0" style="stop-color:#005E7D"/>
				<stop  offset="1" style="stop-color:#043E5B"/>
			</radialGradient>
			<rect x="223.394" y="27.977" clip-path="url(#SVGID_12_)" fill="url(#SVGID_13_)" width="12.242" height="19.506"/>
		</g>
		<polygon fill="none" stroke="#77787B" stroke-width="0.9991" stroke-miterlimit="10" points="235.636,30.509 233.123,27.978 
			223.393,37.73 233.123,47.483 235.636,44.964 228.43,37.73 		"/>
	</g>
</g>
</svg>
