<?xml version="1.0" encoding="utf-8"?>
<!-- Generator: Adobe Illustrator 17.0.0, SVG Export Plug-In . SVG Version: 6.00 Build 0)  -->
<!DOCTYPE svg PUBLIC "-//W3C//DTD SVG 1.1//EN" "http://www.w3.org/Graphics/SVG/1.1/DTD/svg11.dtd">
<svg version="1.1" id="Layer_1" xmlns="http://www.w3.org/2000/svg" xmlns:xlink="http://www.w3.org/1999/xlink" x="0px" y="0px"
	 width="193.085px" height="47.539px" viewBox="0 0 193.085 47.539" enable-background="new 0 0 193.085 47.539"
	 xml:space="preserve">
<g>
	<path fill="#808084" d="M193.085,37.948c0,5.299-4.29,9.591-9.573,9.591H9.575C4.287,47.539,0,43.247,0,37.948V9.949
		c0-5.294,4.287-9.591,9.575-9.591h173.937c5.283,0,9.573,4.297,9.573,9.591V37.948z"/>
	<g>
		<defs>
			<path id="SVGID_183_" d="M9.575,0C4.288,0,0.001,4.295,0.001,9.596v27.997c0,5.301,4.287,9.596,9.575,9.596H183.51
				c5.283,0,9.574-4.295,9.574-9.596V9.596c0-5.301-4.292-9.596-9.574-9.596H9.575z"/>
		</defs>
		<clipPath id="SVGID_2_">
			<use xlink:href="#SVGID_183_"  overflow="visible"/>
		</clipPath>
		
			<linearGradient id="SVGID_4_" gradientUnits="userSpaceOnUse" x1="-2404.6865" y1="244.9911" x2="-2403.1597" y2="244.9911" gradientTransform="matrix(0 -30.9067 -30.843 0 7652.8022 -74273.7344)">
			<stop  offset="0" style="stop-color:#B69170"/>
			<stop  offset="0.2776" style="stop-color:#B99372"/>
			<stop  offset="0.5005" style="stop-color:#C39B77"/>
			<stop  offset="0.7044" style="stop-color:#D4A880"/>
			<stop  offset="0.8959" style="stop-color:#ECBA8D"/>
			<stop  offset="1" style="stop-color:#FCC696"/>
		</linearGradient>
		<rect x="0" y="0" clip-path="url(#SVGID_2_)" fill="url(#SVGID_4_)" width="193.084" height="47.188"/>
	</g>
	<g>
		<defs>
			<path id="SVGID_186_" d="M9.575,3.562c-3.318,0-6.022,2.708-6.022,6.034v27.997c0,3.324,2.704,6.034,6.022,6.034H183.51
				c3.277,0,5.948-2.643,6.014-5.91V9.472c-0.066-3.269-2.737-5.91-6.014-5.91H9.575z"/>
		</defs>
		<clipPath id="SVGID_6_">
			<use xlink:href="#SVGID_186_"  overflow="visible"/>
		</clipPath>
		
			<linearGradient id="SVGID_8_" gradientUnits="userSpaceOnUse" x1="-2404.4058" y1="233.6515" x2="-2402.8789" y2="233.6515" gradientTransform="matrix(0 -26.2399 -26.1858 0 6214.8892 -63047.7422)">
			<stop  offset="0" style="stop-color:#FFFFFF"/>
			<stop  offset="0.2973" style="stop-color:#F8F8F8"/>
			<stop  offset="0.7441" style="stop-color:#E6E5E3"/>
			<stop  offset="1" style="stop-color:#D8D7D4"/>
		</linearGradient>
		<rect x="3.554" y="3.562" clip-path="url(#SVGID_6_)" fill="url(#SVGID_8_)" width="185.97" height="40.064"/>
	</g>
	<g opacity="0.4">
		<g>
			<defs>
				<rect id="SVGID_189_" x="3.202" y="3.206" width="186.685" height="40.771"/>
			</defs>
			<clipPath id="SVGID_9_">
				<use xlink:href="#SVGID_189_"  overflow="visible"/>
			</clipPath>
			<g clip-path="url(#SVGID_9_)">
				<defs>
					<path id="SVGID_191_" d="M9.575,3.206c-3.519,0-6.373,2.867-6.373,6.39v27.997c0,3.521,2.854,6.385,6.373,6.385h173.936
						c3.508,0,6.377-2.864,6.377-6.385V9.596c0-3.522-2.869-6.39-6.377-6.39H9.575z"/>
				</defs>
				<clipPath id="SVGID_10_">
					<use xlink:href="#SVGID_191_"  overflow="visible"/>
				</clipPath>
				
					<linearGradient id="SVGID_11_" gradientUnits="userSpaceOnUse" x1="-2408.145" y1="382.5316" x2="-2406.6184" y2="382.5316" gradientTransform="matrix(0 26.7038 26.6488 0 -10097.4639 64309.832)">
					<stop  offset="0" style="stop-color:#FAAD3F"/>
					<stop  offset="0.1049" style="stop-color:#FAB047"/>
					<stop  offset="0.2662" style="stop-color:#FBBA5C"/>
					<stop  offset="0.4635" style="stop-color:#FCC97F"/>
					<stop  offset="0.6895" style="stop-color:#FDDDB0"/>
					<stop  offset="0.9365" style="stop-color:#FFF8EE"/>
					<stop  offset="1" style="stop-color:#FFFFFF"/>
				</linearGradient>
				<rect x="3.202" y="3.206" clip-path="url(#SVGID_10_)" fill="url(#SVGID_11_)" width="186.686" height="40.771"/>
			</g>
		</g>
	</g>
	<g>
		<path fill="#231F20" d="M25.703,10.397h7.37v1.802h-5.01v2.628h4.69v1.802h-4.69v2.979h5.178v1.833h-7.538V10.397z"/>
		<path fill="#231F20" d="M36.443,19.21c0.03,0.489,0.335,1.055,1.279,1.055c0.807,0,1.188-0.459,1.188-0.917
			c0-0.352-0.183-0.626-1.066-0.87l-1.4-0.382c-0.625-0.184-1.949-0.565-1.949-2.139c0-1.497,1.37-2.413,3.365-2.413
			c1.584,0,2.863,0.733,2.924,2.275h-2.056c-0.062-0.855-0.746-0.916-1.097-0.916c-0.609,0-1.066,0.29-1.066,0.764
			c0,0.52,0.381,0.626,1.051,0.81l1.387,0.382c1.4,0.382,2.056,1.1,2.056,2.153c0,1.329-1.143,2.658-3.533,2.658
			c-0.99,0-1.935-0.214-2.635-0.947c-0.502-0.535-0.548-1.146-0.563-1.513H36.443z"/>
		<path fill="#231F20" d="M47.015,21.334c-0.731,0.198-1.386,0.244-1.751,0.244c-2.27,0-2.27-1.436-2.27-2.077v-4.231h-1.477v-1.497
			h1.477v-1.512l2.238-0.825v2.337h1.828v1.497h-1.828v3.482c0.016,0.703,0.016,1.146,1.021,1.146c0.335,0,0.487-0.015,0.762-0.046
			V21.334z"/>
		<path fill="#231F20" d="M48.343,10.412h2.405v1.971h-2.405V10.412z M48.419,13.712h2.253v7.729h-2.253V13.712z"/>
		<path fill="#231F20" d="M52.699,15.178c0-0.488-0.03-0.962-0.076-1.451h2.178l0.076,0.993c0.244-0.336,0.838-1.161,2.376-1.161
			c1.767,0,2.269,1.085,2.421,1.451c0.64-1.237,1.676-1.436,2.467-1.436c1.554,0,2.178,0.932,2.346,1.237
			c0.411,0.672,0.381,1.604,0.381,2.275v4.354h-2.27v-4.536c0-0.825-0.121-1.741-1.294-1.741c-1.355,0-1.386,1.268-1.386,2.413
			v3.864h-2.27v-4.582c0-0.596-0.015-1.695-1.264-1.695c-1.416,0-1.416,1.222-1.416,1.741v4.536h-2.27V15.178z"/>
		<path fill="#231F20" d="M71.65,21.44c-0.076-0.474-0.076-0.825-0.076-1.054c-0.854,1.237-1.873,1.237-2.3,1.237
			c-1.111,0-1.614-0.321-1.919-0.611c-0.457-0.458-0.67-1.084-0.67-1.695s0.213-1.741,1.629-2.398
			c0.944-0.428,2.3-0.428,3.046-0.428c0-0.504-0.015-0.748-0.106-1.022c-0.198-0.565-0.792-0.642-1.005-0.642
			c-0.32,0-0.655,0.137-0.853,0.428c-0.168,0.259-0.168,0.504-0.168,0.687H67.02c0.016-0.412,0.061-1.237,0.868-1.817
			c0.7-0.504,1.599-0.626,2.33-0.626c0.64,0,1.979,0.106,2.741,0.993c0.518,0.626,0.532,1.542,0.532,1.894l0.016,3.101
			c0,0.657,0.046,1.313,0.183,1.955H71.65z M68.878,19.058c0,0.52,0.351,1.1,1.097,1.1c0.411,0,0.746-0.198,0.96-0.442
			c0.396-0.489,0.426-1.085,0.426-1.909C69.914,17.683,68.878,18.142,68.878,19.058z"/>
		<path fill="#231F20" d="M80.029,21.334c-0.731,0.198-1.386,0.244-1.751,0.244c-2.27,0-2.27-1.436-2.27-2.077v-4.231h-1.477v-1.497
			h1.477v-1.512l2.238-0.825v2.337h1.828v1.497h-1.828v3.482c0.016,0.703,0.016,1.146,1.021,1.146c0.335,0,0.487-0.015,0.762-0.046
			V21.334z"/>
		<path fill="#231F20" d="M83.244,18.156c0,0.504,0,2.063,1.568,2.063c0.563,0,1.127-0.214,1.341-1.069h2.056
			c-0.03,0.366-0.106,1.023-0.731,1.68c-0.563,0.596-1.568,0.901-2.695,0.901c-0.654,0-1.903-0.122-2.71-0.962
			c-0.701-0.733-0.99-1.772-0.99-3.009c0-1.253,0.305-2.75,1.599-3.65c0.594-0.397,1.325-0.642,2.163-0.642
			c1.096,0,2.405,0.428,3.106,1.863c0.518,1.054,0.487,2.184,0.457,2.825H83.244z M86.107,16.736c0-0.352-0.03-1.727-1.34-1.727
			c-0.99,0-1.401,0.825-1.447,1.727H86.107z"/>
		<path fill="#231F20" d="M94.989,10.412h2.269v9.775c0,0.459,0.031,0.963,0.062,1.253h-2.284l-0.062-1.115
			c-0.152,0.275-0.305,0.565-0.776,0.871c-0.563,0.366-1.157,0.396-1.492,0.396c-2.056,0-3.274-1.42-3.274-3.833
			c0-2.551,1.386-4.14,3.396-4.14c1.386,0,1.964,0.779,2.162,1.054V10.412z M93.269,20.127c0.654,0,1.188-0.397,1.432-0.871
			c0.335-0.642,0.365-1.436,0.365-1.817c0-1.512-0.655-2.337-1.675-2.337c-1.508,0-1.676,1.817-1.676,2.597
			C91.715,18.981,92.142,20.127,93.269,20.127z"/>
		<path fill="#231F20" d="M103.903,12.383c0.99-0.428,1.935-0.962,2.817-1.604h1.965V21.44h-2.3v-8.294
			c-0.441,0.336-1.324,0.886-2.482,1.359V12.383z"/>
		<path fill="#231F20" d="M115.207,10.626c1.492,0,2.375,0.81,2.771,1.405c0.548,0.81,0.959,1.849,0.959,3.85
			c0,2.475-0.563,5.728-3.761,5.728c-2.727,0-3.67-2.627-3.67-5.468C111.507,14.72,111.796,10.626,115.207,10.626z M116.38,13.636
			c-0.062-0.291-0.32-1.237-1.158-1.237c-0.654,0-0.943,0.596-1.051,0.916c-0.35,1.085-0.35,2.719-0.35,2.979
			c0,1.817,0.274,3.513,1.416,3.513c1.219,0,1.416-2.077,1.416-3.543C116.653,15.591,116.577,14.338,116.38,13.636z"/>
		<path fill="#231F20" d="M126.283,13.726l1.69,5.347l1.721-5.347h2.239l-2.909,7.576l-0.929,3.07h-2.27l0.975-2.902l-2.954-7.744
			H126.283z"/>
		<path fill="#231F20" d="M134.906,18.156c0,0.504,0,2.063,1.568,2.063c0.563,0,1.127-0.214,1.341-1.069h2.056
			c-0.03,0.366-0.106,1.023-0.731,1.68c-0.563,0.596-1.568,0.901-2.695,0.901c-0.654,0-1.903-0.122-2.71-0.962
			c-0.701-0.733-0.99-1.772-0.99-3.009c0-1.253,0.305-2.75,1.599-3.65c0.594-0.397,1.325-0.642,2.163-0.642
			c1.096,0,2.405,0.428,3.106,1.863c0.518,1.054,0.487,2.184,0.457,2.825H134.906z M137.77,16.736c0-0.352-0.03-1.727-1.34-1.727
			c-0.99,0-1.401,0.825-1.447,1.727H137.77z"/>
		<path fill="#231F20" d="M146.18,21.44c-0.076-0.474-0.076-0.825-0.076-1.054c-0.854,1.237-1.873,1.237-2.3,1.237
			c-1.111,0-1.614-0.321-1.919-0.611c-0.457-0.458-0.67-1.084-0.67-1.695s0.213-1.741,1.629-2.398
			c0.944-0.428,2.3-0.428,3.046-0.428c0-0.504-0.015-0.748-0.106-1.022c-0.198-0.565-0.792-0.642-1.005-0.642
			c-0.32,0-0.655,0.137-0.853,0.428c-0.168,0.259-0.168,0.504-0.168,0.687h-2.208c0.016-0.412,0.061-1.237,0.868-1.817
			c0.7-0.504,1.599-0.626,2.33-0.626c0.64,0,1.979,0.106,2.741,0.993c0.518,0.626,0.532,1.542,0.532,1.894l0.016,3.101
			c0,0.657,0.046,1.313,0.183,1.955H146.18z M143.407,19.058c0,0.52,0.351,1.1,1.097,1.1c0.411,0,0.746-0.198,0.96-0.442
			c0.396-0.489,0.426-1.085,0.426-1.909C144.443,17.683,143.407,18.142,143.407,19.058z"/>
		<path fill="#231F20" d="M150.036,15.621c0-0.366-0.062-1.481-0.107-1.925h2.117l0.046,1.481c0.289-0.656,0.792-1.588,2.619-1.496
			v2.031c-2.284-0.214-2.422,0.962-2.422,1.924v3.804h-2.253V15.621z"/>
		<path fill="#231F20" d="M157.53,19.21c0.03,0.489,0.335,1.055,1.279,1.055c0.807,0,1.188-0.459,1.188-0.917
			c0-0.352-0.183-0.626-1.066-0.87l-1.4-0.382c-0.625-0.184-1.949-0.565-1.949-2.139c0-1.497,1.37-2.413,3.365-2.413
			c1.584,0,2.863,0.733,2.924,2.275h-2.056c-0.062-0.855-0.746-0.916-1.097-0.916c-0.609,0-1.065,0.29-1.065,0.764
			c0,0.52,0.38,0.626,1.05,0.81l1.386,0.382c1.401,0.382,2.057,1.1,2.057,2.153c0,1.329-1.143,2.658-3.533,2.658
			c-0.99,0-1.934-0.214-2.635-0.947c-0.502-0.535-0.548-1.146-0.563-1.513H157.53z"/>
	</g>
	<g>
		<path fill="#231F20" d="M33.163,28.386l3.822,11.043H34.61l-0.792-2.383h-4.355l-0.822,2.383h-2.254l3.975-11.043H33.163z
			 M33.225,35.259l-1.523-4.704l-1.629,4.704H33.225z"/>
		<path fill="#231F20" d="M40.249,35.9c0,0.52-0.031,2.093,1.994,2.093c1.279,0,2.087-0.611,2.087-1.543
			c0-0.978-0.686-1.146-2.087-1.481c-2.619-0.657-4.051-1.436-4.051-3.345c0-1.818,1.295-3.422,4.355-3.422
			c1.143,0,2.498,0.26,3.32,1.299c0.624,0.794,0.624,1.68,0.624,2.046h-2.269c-0.031-0.382-0.152-1.68-1.782-1.68
			c-1.097,0-1.813,0.596-1.813,1.497c0,1.023,0.808,1.206,2.392,1.604c1.903,0.458,3.776,0.978,3.776,3.131
			c0,1.986-1.645,3.59-4.69,3.59c-4.218,0-4.249-2.719-4.264-3.788H40.249z"/>
		<path fill="#231F20" d="M54.721,31.99c-0.046-0.382-0.184-1.939-1.782-1.939c-1.751,0-2.482,1.833-2.482,4.108
			c0,0.657,0,3.788,2.3,3.788c0.99,0,1.934-0.626,1.979-2.093h2.482c-0.046,0.657-0.106,1.681-0.99,2.597
			c-0.975,1.008-2.208,1.237-3.213,1.237c-3.792,0-5.025-2.811-5.025-5.545c0-3.497,1.949-5.819,5.041-5.819
			c2.406,0,4.096,1.467,4.096,3.666H54.721z"/>
		<path fill="#231F20" d="M60.39,28.432l2.879,8.66l2.894-8.66h2.329L64.44,39.429h-2.573l-4.051-10.997H60.39z"/>
		<path fill="#231F20" d="M69.623,28.416l3.639,0.016c0.609,0,2.468,0.015,3.792,0.992c1.386,1.023,1.873,2.765,1.873,4.338
			c0,3.392-1.812,5.163-3.898,5.545c-0.411,0.076-0.867,0.122-1.979,0.122h-3.426V28.416z M72.014,37.611
			c0.259,0.015,0.654,0.03,0.929,0.03c1.005,0,1.873-0.076,2.559-0.764c0.929-0.932,0.989-2.581,0.989-3.116
			c0-1.558-0.532-2.993-2.01-3.406c-0.487-0.137-1.111-0.214-2.467-0.152V37.611z"/>
		<path fill="#231F20" d="M80.271,26.89v-1.21h1.943V23.78h1.473v1.899h1.895v1.21h-1.895v5.627h-1.473V26.89H80.271z"/>
		<path fill="#231F20" d="M91.573,33.609c0-0.366-0.062-1.481-0.107-1.925h2.117l0.046,1.481c0.289-0.656,0.792-1.588,2.619-1.496
			v2.031c-2.284-0.214-2.422,0.962-2.422,1.924v3.804h-2.253V33.609z"/>
		<path fill="#231F20" d="M97.423,28.4h2.405v1.971h-2.405V28.4z M97.499,31.7h2.253v7.729h-2.253V31.7z"/>
		<path fill="#231F20" d="M103.303,37.198c0.03,0.489,0.335,1.055,1.279,1.055c0.807,0,1.188-0.459,1.188-0.917
			c0-0.351-0.183-0.626-1.066-0.87l-1.4-0.382c-0.625-0.184-1.949-0.565-1.949-2.139c0-1.497,1.37-2.413,3.365-2.413
			c1.584,0,2.863,0.733,2.924,2.275h-2.056c-0.062-0.855-0.746-0.916-1.097-0.916c-0.609,0-1.066,0.29-1.066,0.764
			c0,0.52,0.381,0.626,1.051,0.81l1.387,0.382c1.4,0.382,2.056,1.1,2.056,2.153c0,1.329-1.143,2.658-3.533,2.658
			c-0.99,0-1.935-0.214-2.635-0.947c-0.502-0.535-0.548-1.146-0.563-1.513H103.303z"/>
		<path fill="#231F20" d="M109.382,28.386h2.238v6.507l2.33-3.223h2.543l-2.635,3.36l2.803,4.398h-2.665l-2.376-4.2v4.2h-2.238
			V28.386z"/>
		<path fill="#231F20" d="M121.813,39.643v-1.161h6.822v1.161H121.813z M128.636,33.304v1.237l-6.73,3.376v-1.329l5.589-2.658v-0.03
			l-5.604-2.643v-1.328L128.636,33.304z"/>
		<path fill="#231F20" d="M134.185,28.782h7.203v1.895l-3.655,8.752h-2.543l3.884-8.874h-4.889V28.782z"/>
		<path fill="#231F20" d="M143.219,37.397h1.934v2.031h-1.934V37.397z"/>
		<path fill="#231F20" d="M149.053,36.802c-0.015,0.244,0.183,1.191,1.249,1.191c0.822,0,1.568-0.596,1.568-2.001
			c0-1.023-0.396-1.909-1.416-1.909s-1.279,0.824-1.355,1.069l-2.208-0.062l0.243-6.309h6.442v1.742h-4.432l-0.137,2.642
			c0.335-0.29,0.837-0.764,2.01-0.764c1.705,0,3.137,1.253,3.137,3.392c0,1.817-1.065,3.864-3.792,3.864
			c-1.111,0-2.238-0.291-2.969-1.161c-0.533-0.642-0.579-1.299-0.595-1.695H149.053z"/>
		<path fill="#231F20" d="M162.338,27.79c2.116,0,2.482,1.359,2.482,2.795c0,0.764,0,3.055-2.589,3.055
			c-1.797,0-2.437-1.252-2.437-2.902C159.795,29.943,159.81,27.79,162.338,27.79z M162.276,32.388c0.519,0,0.884-0.336,0.884-1.787
			c0-0.627-0.046-1.619-0.822-1.619c-0.898,0-0.898,1.237-0.898,1.695C161.439,31.852,161.638,32.388,162.276,32.388z
			 M169.206,27.683l-5.787,11.93h-1.143l5.787-11.93H169.206z M169.343,33.716c2.102,0,2.482,1.359,2.482,2.78
			c0,0.779,0,3.07-2.604,3.07c-1.797,0-2.421-1.268-2.421-2.918C166.8,35.87,166.8,33.716,169.343,33.716z M169.282,38.313
			c0.518,0,0.883-0.336,0.883-1.787c0-0.626-0.061-1.619-0.838-1.619c-0.898,0-0.898,1.223-0.898,1.695
			C168.429,37.764,168.627,38.313,169.282,38.313z"/>
	</g>
</g>
</svg>
