<?xml version="1.0" encoding="utf-8"?>
<!-- Generator: Adobe Illustrator 17.0.0, SVG Export Plug-In . SVG Version: 6.00 Build 0)  -->
<!DOCTYPE svg PUBLIC "-//W3C//DTD SVG 1.1//EN" "http://www.w3.org/Graphics/SVG/1.1/DTD/svg11.dtd">
<svg version="1.1" id="Layer_1" xmlns="http://www.w3.org/2000/svg" xmlns:xlink="http://www.w3.org/1999/xlink" x="0px" y="0px"
	 width="77.106px" height="132.604px" viewBox="0 0 77.106 132.604" enable-background="new 0 0 77.106 132.604"
	 xml:space="preserve">
<g>
	<polyline fill="none" stroke="#FAAF4C" stroke-width="0.9991" points="0.5,0 0.5,128.567 32.986,128.567 	"/>
	<polygon fill="#FAAF4C" points="32.463,128.568 30.125,124.535 39.981,128.568 30.125,132.604 	"/>
	<line fill="none" stroke="#FAAF4C" stroke-width="0.9991" x1="0.5" y1="64.758" x2="70.113" y2="64.758"/>
	<polygon fill="#FAAF4C" points="69.589,64.758 67.251,60.723 77.106,64.758 67.251,68.794 	"/>
	<g>
		<path fill="#231F20" d="M16.706,112.434v10.069h-1.753l-3.967-8.73h-0.027v8.73H9.818v-10.069h1.809l3.91,8.619h0.028v-8.619
			H16.706z"/>
		<path fill="#231F20" d="M18.713,119.086c0-2.064,0.237-3.766,2.672-3.766c2.436,0,2.672,1.701,2.672,3.766
			c0,3.11-1.183,3.557-2.672,3.557C19.896,122.643,18.713,122.197,18.713,119.086z M22.86,118.598c0-1.925-0.599-2.343-1.476-2.343
			c-0.876,0-1.475,0.418-1.475,2.343c0,2.287,0.292,3.11,1.475,3.11C22.568,121.708,22.86,120.885,22.86,118.598z"/>
	</g>
	<g>
		<path fill="#231F20" d="M15.035,48.612h1.295l-2.742,6.234v3.835h-1.279v-3.835l-2.7-6.234h1.434l1.962,4.867L15.035,48.612z"/>
		<path fill="#231F20" d="M18.573,55.529c0,1.967,0.528,2.357,1.419,2.357c0.779,0,1.184-0.628,1.225-1.339h1.253
			c-0.014,1.562-0.974,2.273-2.449,2.273c-1.489,0-2.672-0.446-2.672-3.557c0-2.064,0.236-3.766,2.672-3.766
			c2.004,0,2.505,1.102,2.505,3.431v0.6H18.573z M21.314,54.665c0-2.05-0.57-2.301-1.405-2.301c-0.724,0-1.322,0.349-1.336,2.301
			H21.314z"/>
		<path fill="#231F20" d="M26.479,58.821c-1.517,0-2.463-0.67-2.421-2.287h1.294c0,0.404,0.014,1.353,1.169,1.353
			c0.682,0,1.211-0.349,1.211-1.074c0-1.255-3.507-1.283-3.507-3.389c0-0.739,0.445-1.925,2.421-1.925
			c1.253,0,2.324,0.6,2.227,1.994h-1.266c0.014-0.739-0.376-1.129-1.1-1.129c-0.612,0-1.086,0.334-1.086,0.948
			c0,1.241,3.507,1.213,3.507,3.361C28.929,58.221,27.871,58.821,26.479,58.821z"/>
	</g>
</g>
</svg>
