<?xml version="1.0" encoding="utf-8"?>
<!-- Generator: Adobe Illustrator 17.0.0, SVG Export Plug-In . SVG Version: 6.00 Build 0)  -->
<!DOCTYPE svg PUBLIC "-//W3C//DTD SVG 1.1//EN" "http://www.w3.org/Graphics/SVG/1.1/DTD/svg11.dtd">
<svg version="1.1" id="Layer_1" xmlns="http://www.w3.org/2000/svg" xmlns:xlink="http://www.w3.org/1999/xlink" x="0px" y="0px"
	 width="230.485px" height="59.383px" viewBox="0 0 230.485 59.383" enable-background="new 0 0 230.485 59.383"
	 xml:space="preserve">
<g>
	<path fill="#808084" d="M230.484,47.395c0,6.626-5.114,11.987-11.429,11.987H11.432C5.119,59.383,0,54.021,0,47.395V12.429
		c0-6.614,5.119-11.98,11.432-11.98h207.623c6.315,0,11.429,5.366,11.429,11.98V47.395z"/>
	<g>
		<defs>
			<path id="SVGID_215_" d="M11.433,0C5.119,0,0,5.357,0,11.99v34.963c0,6.62,5.119,11.988,11.433,11.988h207.623
				c6.313,0,11.43-5.368,11.43-11.988V11.99c0-6.632-5.116-11.99-11.43-11.99H11.433z"/>
		</defs>
		<clipPath id="SVGID_2_">
			<use xlink:href="#SVGID_215_"  overflow="visible"/>
		</clipPath>
		
			<linearGradient id="SVGID_4_" gradientUnits="userSpaceOnUse" x1="-2584.7212" y1="-173.2192" x2="-2583.1946" y2="-173.2192" gradientTransform="matrix(0 -38.6043 -38.5247 0 -6557.9736 -99722.4141)">
			<stop  offset="0" style="stop-color:#B69170"/>
			<stop  offset="0.2776" style="stop-color:#B99372"/>
			<stop  offset="0.5005" style="stop-color:#C39B77"/>
			<stop  offset="0.7044" style="stop-color:#D4A880"/>
			<stop  offset="0.8959" style="stop-color:#ECBA8D"/>
			<stop  offset="1" style="stop-color:#FCC696"/>
		</linearGradient>
		<rect x="0" y="0" clip-path="url(#SVGID_2_)" fill="url(#SVGID_4_)" width="230.486" height="58.942"/>
	</g>
	<g>
		<defs>
			<path id="SVGID_218_" d="M11.433,4.446c-3.964,0-7.179,3.385-7.179,7.544v34.963c0,4.157,3.215,7.53,7.179,7.53h207.623
				c3.962,0,7.181-3.373,7.181-7.53V11.99c0-4.159-3.219-7.544-7.181-7.544H11.433z"/>
		</defs>
		<clipPath id="SVGID_6_">
			<use xlink:href="#SVGID_218_"  overflow="visible"/>
		</clipPath>
		
			<linearGradient id="SVGID_8_" gradientUnits="userSpaceOnUse" x1="-2586.2471" y1="-182.8129" x2="-2584.7205" y2="-182.8129" gradientTransform="matrix(0 -32.7732 -32.7057 0 -5863.7773 -84705.1094)">
			<stop  offset="0" style="stop-color:#FFFFFF"/>
			<stop  offset="0.2973" style="stop-color:#F8F8F8"/>
			<stop  offset="0.7441" style="stop-color:#E6E5E3"/>
			<stop  offset="1" style="stop-color:#D8D7D4"/>
		</linearGradient>
		<rect x="4.253" y="4.446" clip-path="url(#SVGID_6_)" fill="url(#SVGID_8_)" width="221.983" height="50.037"/>
	</g>
	<g opacity="0.4">
		<g>
			<defs>
				<rect id="SVGID_221_" x="3.826" y="4.009" width="222.845" height="50.928"/>
			</defs>
			<clipPath id="SVGID_9_">
				<use xlink:href="#SVGID_221_"  overflow="visible"/>
			</clipPath>
			<g clip-path="url(#SVGID_9_)">
				<defs>
					<path id="SVGID_223_" d="M11.433,4.009c-4.199,0-7.606,3.576-7.606,7.981v34.963c0,4.399,3.408,7.982,7.606,7.982h207.623
						c4.199,0,7.616-3.583,7.616-7.982V11.99c0-4.405-3.417-7.981-7.616-7.981H11.433z"/>
				</defs>
				<clipPath id="SVGID_10_">
					<use xlink:href="#SVGID_223_"  overflow="visible"/>
				</clipPath>
				
					<linearGradient id="SVGID_11_" gradientUnits="userSpaceOnUse" x1="-2566.1621" y1="-57.0981" x2="-2564.6353" y2="-57.0981" gradientTransform="matrix(0 33.3563 33.2876 0 2015.9078 85601.6797)">
					<stop  offset="0" style="stop-color:#FAAD3F"/>
					<stop  offset="0.1049" style="stop-color:#FAB047"/>
					<stop  offset="0.2662" style="stop-color:#FBBA5C"/>
					<stop  offset="0.4635" style="stop-color:#FCC97F"/>
					<stop  offset="0.6895" style="stop-color:#FDDDB0"/>
					<stop  offset="0.9365" style="stop-color:#FFF8EE"/>
					<stop  offset="1" style="stop-color:#FFFFFF"/>
				</linearGradient>
				<rect x="3.826" y="4.009" clip-path="url(#SVGID_10_)" fill="url(#SVGID_11_)" width="222.845" height="50.926"/>
			</g>
		</g>
	</g>
	<g>
		<path fill="#231F20" d="M41.339,10.257h2.36v4.414h4.157v-4.414h2.391V21.3h-2.36v-4.842H43.7V21.3h-2.36V10.257z"/>
		<path fill="#231F20" d="M52.232,10.272h2.405v1.971h-2.405V10.272z M52.308,13.571h2.253V21.3h-2.253V13.571z"/>
		<path fill="#231F20" d="M63.837,13.617c-0.061,0.61-0.106,1.13-0.106,1.909v5.697c0,2.841-2.36,3.115-3.838,3.115
			c-1.097,0-3.243-0.137-3.381-2.474h2.163c0.03,0.229,0.137,1.069,1.34,1.069c0.67,0,1.249-0.321,1.401-1.009
			c0.091-0.382,0.091-0.656,0.106-1.833c-0.716,0.947-1.523,1.055-2.071,1.055c-2.208,0-3.243-1.925-3.243-3.788
			c0-1.955,1.081-3.818,3.289-3.818c1.4,0,1.919,0.764,2.146,1.1l0.076-1.023H63.837z M59.969,19.605
			c1.584,0,1.584-1.863,1.584-2.199c0-0.871-0.168-2.353-1.538-2.353c-0.853,0-1.554,0.657-1.554,2.307
			C58.461,17.741,58.461,19.605,59.969,19.605z"/>
		<path fill="#231F20" d="M65.913,10.272h2.238v4.369c0.259-0.367,0.822-1.161,2.224-1.161c1.142,0,1.873,0.565,2.238,1.039
			c0.274,0.382,0.503,1.084,0.503,2.092V21.3h-2.238v-4.612c0-0.443,0-1.681-1.265-1.681c-0.64,0-1.446,0.366-1.446,1.573
			l0.015,4.72h-2.269V10.272z"/>
		<path fill="#231F20" d="M79.32,10.227h2.36V21.3h-2.36V10.227z"/>
		<path fill="#231F20" d="M83.662,14.961c0-0.03,0-0.87-0.046-1.405h2.162l0.062,1.161c0.213-0.352,0.822-1.344,2.497-1.344
			c1.508,0,2.147,0.916,2.345,1.45c0.168,0.474,0.214,0.871,0.214,2.307v4.17h-2.3v-4.796c0-0.321,0-0.596-0.122-0.84
			c-0.167-0.336-0.518-0.657-1.096-0.657c-0.487,0-0.93,0.229-1.173,0.596c-0.137,0.198-0.274,0.58-0.274,1.176V21.3h-2.269V14.961z
			"/>
		<path fill="#231F20" d="M97.462,21.193c-0.731,0.198-1.386,0.244-1.751,0.244c-2.27,0-2.27-1.436-2.27-2.077v-4.231h-1.477v-1.497
			h1.477V12.12l2.238-0.825v2.337h1.828v1.497H95.68v3.482c0.016,0.703,0.016,1.146,1.021,1.146c0.335,0,0.487-0.015,0.762-0.046
			V21.193z"/>
		<path fill="#231F20" d="M100.678,18.016c0,0.504,0,2.063,1.568,2.063c0.563,0,1.127-0.214,1.341-1.069h2.056
			c-0.03,0.366-0.106,1.023-0.731,1.68c-0.563,0.596-1.568,0.901-2.695,0.901c-0.654,0-1.903-0.122-2.71-0.962
			c-0.701-0.733-0.99-1.771-0.99-3.009c0-1.253,0.305-2.75,1.599-3.651c0.594-0.396,1.325-0.641,2.163-0.641
			c1.096,0,2.405,0.428,3.106,1.863c0.518,1.054,0.487,2.184,0.457,2.825H100.678z M103.542,16.596c0-0.352-0.03-1.727-1.34-1.727
			c-0.99,0-1.401,0.825-1.447,1.727H103.542z"/>
		<path fill="#231F20" d="M107.368,14.961c0-0.03,0-0.87-0.046-1.405h2.162l0.062,1.161c0.213-0.352,0.822-1.344,2.497-1.344
			c1.508,0,2.147,0.916,2.346,1.45c0.167,0.474,0.213,0.871,0.213,2.307v4.17h-2.3v-4.796c0-0.321,0-0.596-0.122-0.84
			c-0.167-0.336-0.518-0.657-1.096-0.657c-0.487,0-0.93,0.229-1.173,0.596c-0.137,0.198-0.274,0.58-0.274,1.176V21.3h-2.269V14.961z
			"/>
		<path fill="#231F20" d="M118.214,19.069c0.03,0.489,0.335,1.055,1.279,1.055c0.807,0,1.188-0.459,1.188-0.917
			c0-0.351-0.183-0.626-1.066-0.87l-1.4-0.382c-0.625-0.184-1.949-0.565-1.949-2.139c0-1.497,1.37-2.413,3.365-2.413
			c1.584,0,2.863,0.733,2.924,2.275h-2.056c-0.062-0.855-0.746-0.916-1.097-0.916c-0.609,0-1.066,0.29-1.066,0.764
			c0,0.52,0.381,0.626,1.051,0.81l1.387,0.382c1.4,0.382,2.056,1.1,2.056,2.153c0,1.329-1.143,2.658-3.533,2.658
			c-0.99,0-1.935-0.214-2.635-0.947c-0.502-0.535-0.548-1.146-0.563-1.513H118.214z"/>
		<path fill="#231F20" d="M124.187,10.272h2.405v1.971h-2.405V10.272z M124.263,13.571h2.253V21.3h-2.253V13.571z"/>
		<path fill="#231F20" d="M133.021,21.193c-0.731,0.198-1.386,0.244-1.751,0.244c-2.27,0-2.27-1.436-2.27-2.077v-4.231h-1.477
			v-1.497h1.477V12.12l2.238-0.825v2.337h1.828v1.497h-1.828v3.482c0.016,0.703,0.016,1.146,1.021,1.146
			c0.335,0,0.487-0.015,0.762-0.046V21.193z"/>
		<path fill="#231F20" d="M136.084,13.586l1.69,5.347l1.721-5.347h2.239l-2.909,7.576l-0.929,3.07h-2.27l0.975-2.902l-2.954-7.744
			H136.084z"/>
		<path fill="#231F20" d="M149.08,17.772c0,0.52-0.031,2.093,1.994,2.093c1.279,0,2.087-0.611,2.087-1.543
			c0-0.978-0.686-1.146-2.087-1.481c-2.619-0.657-4.051-1.436-4.051-3.345c0-1.818,1.295-3.422,4.355-3.422
			c1.143,0,2.498,0.26,3.32,1.299c0.624,0.794,0.624,1.68,0.624,2.046h-2.269c-0.031-0.382-0.152-1.68-1.782-1.68
			c-1.097,0-1.813,0.596-1.813,1.497c0,1.023,0.808,1.206,2.392,1.604c1.903,0.458,3.776,0.978,3.776,3.131
			c0,1.986-1.645,3.59-4.69,3.59c-4.218,0-4.249-2.719-4.264-3.788H149.08z"/>
		<path fill="#231F20" d="M161.815,21.193c-0.731,0.198-1.386,0.244-1.751,0.244c-2.27,0-2.27-1.436-2.27-2.077v-4.231h-1.477
			v-1.497h1.477V12.12l2.238-0.825v2.337h1.828v1.497h-1.828v3.482c0.016,0.703,0.016,1.146,1.021,1.146
			c0.335,0,0.487-0.015,0.762-0.046V21.193z"/>
		<path fill="#231F20" d="M167.834,21.3c-0.076-0.474-0.076-0.825-0.076-1.054c-0.854,1.237-1.873,1.237-2.3,1.237
			c-1.111,0-1.614-0.321-1.919-0.611c-0.457-0.458-0.67-1.084-0.67-1.695s0.213-1.741,1.629-2.398
			c0.944-0.428,2.3-0.428,3.046-0.428c0-0.504-0.015-0.748-0.106-1.022c-0.198-0.565-0.792-0.642-1.005-0.642
			c-0.32,0-0.655,0.137-0.853,0.428c-0.168,0.259-0.168,0.504-0.168,0.687h-2.208c0.016-0.412,0.061-1.237,0.868-1.817
			c0.7-0.504,1.599-0.626,2.33-0.626c0.64,0,1.979,0.106,2.741,0.993c0.518,0.626,0.532,1.542,0.532,1.894l0.016,3.101
			c0,0.657,0.046,1.313,0.183,1.955H167.834z M165.061,18.917c0,0.52,0.351,1.1,1.097,1.1c0.411,0,0.746-0.198,0.96-0.442
			c0.396-0.489,0.426-1.085,0.426-1.909C166.097,17.542,165.061,18.001,165.061,18.917z"/>
		<path fill="#231F20" d="M176.211,21.193c-0.731,0.198-1.386,0.244-1.751,0.244c-2.27,0-2.27-1.436-2.27-2.077v-4.231h-1.477
			v-1.497h1.477V12.12l2.238-0.825v2.337h1.828v1.497h-1.828v3.482c0.016,0.703,0.016,1.146,1.021,1.146
			c0.335,0,0.487-0.015,0.762-0.046V21.193z"/>
		<path fill="#231F20" d="M177.54,10.272h2.405v1.971h-2.405V10.272z M177.616,13.571h2.253V21.3h-2.253V13.571z"/>
		<path fill="#231F20" d="M181.881,14.961c0-0.03,0-0.87-0.046-1.405h2.162l0.062,1.161c0.213-0.352,0.822-1.344,2.497-1.344
			c1.508,0,2.147,0.916,2.346,1.45c0.167,0.474,0.213,0.871,0.213,2.307v4.17h-2.3v-4.796c0-0.321,0-0.596-0.122-0.84
			c-0.167-0.336-0.518-0.657-1.096-0.657c-0.487,0-0.93,0.229-1.173,0.596c-0.137,0.198-0.274,0.58-0.274,1.176V21.3h-2.269V14.961z
			"/>
	</g>
	<g>
		<path fill="#5E5F5E" d="M19.794,24.475c-0.431,1.31-1.149,3.431-1.149,5.774c0,1.754,0.366,3.063,1.137,5.747h-1.424
			c-0.744-1.819-1.319-3.718-1.319-5.682c0-2.017,0.602-3.967,1.332-5.84H19.794z"/>
		<path fill="#5E5F5E" d="M21.361,24.92h3.305l1.999,6.887l2.155-6.887h3.213v9.466h-2.012v-8.117l-2.573,8.117h-1.672l-2.521-8.117
			v8.117h-1.895V24.92z"/>
		<path fill="#5E5F5E" d="M36.863,27.617c2.39,0,3.422,1.623,3.422,3.47c0,1.858-1.071,3.534-3.461,3.534
			c-1.881,0-3.37-1.165-3.37-3.482C33.454,29.542,34.263,27.617,36.863,27.617z M36.888,33.273c0.85,0,1.424-0.51,1.424-2.265
			c0-0.877-0.17-2.095-1.449-2.095c-1.411,0-1.424,1.637-1.424,2.239C35.439,32.632,35.935,33.273,36.888,33.273z"/>
		<path fill="#5E5F5E" d="M46.095,24.934h1.945v8.379c0,0.393,0.026,0.824,0.053,1.073h-1.959l-0.053-0.956
			c-0.131,0.236-0.261,0.484-0.666,0.747c-0.483,0.313-0.992,0.34-1.28,0.34c-1.763,0-2.808-1.218-2.808-3.286
			c0-2.187,1.188-3.548,2.912-3.548c1.189,0,1.686,0.668,1.855,0.903V24.934z M44.619,33.26c0.562,0,1.02-0.341,1.229-0.746
			c0.287-0.55,0.313-1.23,0.313-1.558c0-1.297-0.562-2.004-1.437-2.004c-1.293,0-1.437,1.559-1.437,2.226
			C43.287,32.278,43.652,33.26,44.619,33.26z"/>
		<path fill="#5E5F5E" d="M51.265,31.571c0,0.432,0,1.768,1.346,1.768c0.482,0,0.966-0.184,1.149-0.917h1.763
			c-0.025,0.314-0.091,0.877-0.627,1.44c-0.483,0.511-1.345,0.772-2.312,0.772c-0.562,0-1.633-0.105-2.325-0.825
			c-0.601-0.628-0.849-1.519-0.849-2.579c0-1.073,0.261-2.356,1.371-3.129c0.51-0.341,1.137-0.55,1.854-0.55
			c0.94,0,2.064,0.366,2.665,1.598c0.444,0.903,0.418,1.872,0.392,2.422H51.265z M53.72,30.354c0-0.301-0.025-1.479-1.148-1.479
			c-0.85,0-1.202,0.707-1.241,1.479H53.72z"/>
		<path fill="#5E5F5E" d="M56.971,29.398c0-0.314-0.052-1.27-0.091-1.649h1.815l0.039,1.27c0.248-0.563,0.679-1.361,2.247-1.282
			v1.741c-1.96-0.184-2.077,0.824-2.077,1.649v3.26h-1.934V29.398z"/>
		<path fill="#5E5F5E" d="M65.761,34.386c-0.065-0.406-0.065-0.707-0.065-0.903c-0.731,1.061-1.606,1.061-1.972,1.061
			c-0.954,0-1.385-0.275-1.646-0.523c-0.392-0.394-0.574-0.93-0.574-1.453c0-0.524,0.183-1.493,1.397-2.056
			c0.81-0.367,1.972-0.367,2.612-0.367c0-0.432-0.014-0.642-0.092-0.877c-0.17-0.484-0.679-0.55-0.861-0.55
			c-0.274,0-0.563,0.118-0.732,0.366c-0.144,0.223-0.144,0.433-0.144,0.59h-1.894c0.013-0.354,0.053-1.061,0.744-1.559
			c0.602-0.432,1.372-0.536,1.999-0.536c0.548,0,1.698,0.092,2.351,0.851c0.444,0.537,0.457,1.322,0.457,1.624l0.014,2.657
			c0,0.563,0.039,1.126,0.156,1.676H65.761z M63.384,32.344c0,0.444,0.3,0.942,0.94,0.942c0.353,0,0.64-0.17,0.822-0.38
			c0.34-0.419,0.366-0.93,0.366-1.637C64.272,31.165,63.384,31.558,63.384,32.344z"/>
		<path fill="#5E5F5E" d="M72.943,34.294c-0.627,0.17-1.188,0.21-1.502,0.21c-1.946,0-1.946-1.231-1.946-1.781v-3.626h-1.268v-1.283
			h1.268v-1.296l1.92-0.707v2.003h1.567v1.283h-1.567v2.984c0.013,0.603,0.013,0.982,0.875,0.982c0.287,0,0.418-0.013,0.653-0.039
			V34.294z"/>
		<path fill="#5E5F5E" d="M75.45,31.571c0,0.432,0,1.768,1.346,1.768c0.483,0,0.966-0.184,1.149-0.917h1.763
			c-0.026,0.314-0.091,0.877-0.627,1.44c-0.483,0.511-1.345,0.772-2.312,0.772c-0.562,0-1.633-0.105-2.325-0.825
			c-0.601-0.628-0.849-1.519-0.849-2.579c0-1.073,0.261-2.356,1.371-3.129c0.51-0.341,1.137-0.55,1.854-0.55
			c0.94,0,2.064,0.366,2.665,1.598c0.444,0.903,0.418,1.872,0.392,2.422H75.45z M77.906,30.354c0-0.301-0.026-1.479-1.15-1.479
			c-0.849,0-1.201,0.707-1.24,1.479H77.906z"/>
		<path fill="#5E5F5E" d="M80.882,30.184h3.238v1.479h-3.238V30.184z"/>
		<path fill="#5E5F5E" d="M85.439,24.934h2.064v1.688h-2.064V24.934z M85.504,27.761h1.934v6.625h-1.934V27.761z"/>
		<path fill="#5E5F5E" d="M89.161,28.952c0-0.025,0-0.746-0.039-1.204h1.854l0.053,0.995c0.183-0.301,0.705-1.152,2.142-1.152
			c1.293,0,1.842,0.786,2.012,1.244c0.144,0.405,0.183,0.746,0.183,1.977v3.574h-1.972v-4.111c0-0.274,0-0.51-0.104-0.72
			c-0.145-0.288-0.444-0.563-0.94-0.563c-0.418,0-0.797,0.196-1.006,0.51c-0.118,0.171-0.235,0.498-0.235,1.009v3.875h-1.946V28.952
			z"/>
		<path fill="#5E5F5E" d="M100.993,34.294c-0.627,0.17-1.188,0.21-1.502,0.21c-1.946,0-1.946-1.231-1.946-1.781v-3.626h-1.268
			v-1.283h1.268v-1.296l1.92-0.707v2.003h1.567v1.283h-1.567v2.984c0.013,0.603,0.013,0.982,0.875,0.982
			c0.287,0,0.418-0.013,0.653-0.039V34.294z"/>
		<path fill="#5E5F5E" d="M103.5,31.571c0,0.432,0,1.768,1.346,1.768c0.482,0,0.966-0.184,1.149-0.917h1.763
			c-0.025,0.314-0.091,0.877-0.627,1.44c-0.483,0.511-1.345,0.772-2.312,0.772c-0.562,0-1.633-0.105-2.325-0.825
			c-0.601-0.628-0.849-1.519-0.849-2.579c0-1.073,0.261-2.356,1.371-3.129c0.51-0.341,1.137-0.55,1.854-0.55
			c0.94,0,2.064,0.366,2.665,1.598c0.444,0.903,0.418,1.872,0.392,2.422H103.5z M105.955,30.354c0-0.301-0.025-1.479-1.148-1.479
			c-0.85,0-1.202,0.707-1.241,1.479H105.955z"/>
		<path fill="#5E5F5E" d="M109.232,28.952c0-0.025,0-0.746-0.039-1.204h1.854l0.053,0.995c0.183-0.301,0.705-1.152,2.142-1.152
			c1.293,0,1.842,0.786,2.012,1.244c0.144,0.405,0.183,0.746,0.183,1.977v3.574h-1.972v-4.111c0-0.274,0-0.51-0.104-0.72
			c-0.144-0.288-0.444-0.563-0.94-0.563c-0.418,0-0.797,0.196-1.006,0.51c-0.118,0.171-0.235,0.498-0.235,1.009v3.875h-1.946V28.952
			z"/>
		<path fill="#5E5F5E" d="M118.53,32.475c0.026,0.419,0.287,0.903,1.097,0.903c0.692,0,1.02-0.393,1.02-0.786
			c0-0.301-0.157-0.536-0.914-0.746l-1.202-0.327c-0.535-0.157-1.672-0.484-1.672-1.833c0-1.283,1.176-2.068,2.887-2.068
			c1.358,0,2.455,0.628,2.508,1.95h-1.764c-0.052-0.732-0.64-0.785-0.94-0.785c-0.522,0-0.914,0.249-0.914,0.654
			c0,0.445,0.326,0.537,0.901,0.694l1.188,0.327c1.201,0.327,1.764,0.942,1.764,1.846c0,1.14-0.98,2.278-3.03,2.278
			c-0.85,0-1.659-0.184-2.26-0.812c-0.432-0.458-0.471-0.982-0.483-1.296H118.53z"/>
		<path fill="#5E5F5E" d="M123.648,24.934h2.064v1.688h-2.064V24.934z M123.713,27.761h1.934v6.625h-1.934V27.761z"/>
		<path fill="#5E5F5E" d="M131.223,34.294c-0.627,0.17-1.188,0.21-1.502,0.21c-1.946,0-1.946-1.231-1.946-1.781v-3.626h-1.268
			v-1.283h1.268v-1.296l1.92-0.707v2.003h1.567v1.283h-1.567v2.984c0.013,0.603,0.013,0.982,0.875,0.982
			c0.287,0,0.418-0.013,0.653-0.039V34.294z"/>
		<path fill="#5E5F5E" d="M133.847,27.774l1.45,4.582l1.476-4.582h1.92l-2.494,6.493l-0.797,2.632h-1.946l0.836-2.487l-2.534-6.638
			H133.847z"/>
		<path fill="#5E5F5E" d="M144.66,32.475c0.026,0.419,0.287,0.903,1.098,0.903c0.691,0,1.019-0.393,1.019-0.786
			c0-0.301-0.157-0.536-0.915-0.746l-1.201-0.327c-0.535-0.157-1.672-0.484-1.672-1.833c0-1.283,1.176-2.068,2.887-2.068
			c1.358,0,2.455,0.628,2.508,1.95h-1.764c-0.052-0.732-0.64-0.785-0.94-0.785c-0.522,0-0.914,0.249-0.914,0.654
			c0,0.445,0.326,0.537,0.901,0.694l1.188,0.327c1.202,0.327,1.764,0.942,1.764,1.846c0,1.14-0.979,2.278-3.03,2.278
			c-0.85,0-1.659-0.184-2.26-0.812c-0.432-0.458-0.471-0.982-0.483-1.296H144.66z"/>
		<path fill="#5E5F5E" d="M153.723,34.294c-0.627,0.17-1.188,0.21-1.502,0.21c-1.946,0-1.946-1.231-1.946-1.781v-3.626h-1.268
			v-1.283h1.268v-1.296l1.92-0.707v2.003h1.567v1.283h-1.567v2.984c0.013,0.603,0.013,0.982,0.875,0.982
			c0.287,0,0.418-0.013,0.653-0.039V34.294z"/>
		<path fill="#5E5F5E" d="M158.881,34.386c-0.065-0.406-0.065-0.707-0.065-0.903c-0.731,1.061-1.606,1.061-1.973,1.061
			c-0.953,0-1.384-0.275-1.646-0.523c-0.392-0.394-0.574-0.93-0.574-1.453c0-0.524,0.183-1.493,1.397-2.056
			c0.81-0.367,1.973-0.367,2.612-0.367c0-0.432-0.013-0.642-0.092-0.877c-0.17-0.484-0.679-0.55-0.862-0.55
			c-0.273,0-0.562,0.118-0.73,0.366c-0.145,0.223-0.145,0.433-0.145,0.59h-1.894c0.013-0.354,0.052-1.061,0.744-1.559
			c0.602-0.432,1.372-0.536,1.999-0.536c0.549,0,1.697,0.092,2.351,0.851c0.444,0.537,0.457,1.322,0.457,1.624l0.014,2.657
			c0,0.563,0.039,1.126,0.156,1.676H158.881z M156.504,32.344c0,0.444,0.3,0.942,0.94,0.942c0.353,0,0.64-0.17,0.822-0.38
			c0.34-0.419,0.366-0.93,0.366-1.637C157.392,31.165,156.504,31.558,156.504,32.344z"/>
		<path fill="#5E5F5E" d="M166.064,34.294c-0.627,0.17-1.188,0.21-1.502,0.21c-1.946,0-1.946-1.231-1.946-1.781v-3.626h-1.268
			v-1.283h1.268v-1.296l1.92-0.707v2.003h1.567v1.283h-1.567v2.984c0.013,0.603,0.013,0.982,0.875,0.982
			c0.287,0,0.418-0.013,0.653-0.039V34.294z"/>
		<path fill="#5E5F5E" d="M167.199,24.934h2.063v1.688h-2.063V24.934z M167.263,27.761h1.934v6.625h-1.934V27.761z"/>
		<path fill="#5E5F5E" d="M170.92,28.952c0-0.025,0-0.746-0.039-1.204h1.854l0.053,0.995c0.183-0.301,0.705-1.152,2.142-1.152
			c1.293,0,1.842,0.786,2.012,1.244c0.144,0.405,0.183,0.746,0.183,1.977v3.574h-1.972v-4.111c0-0.274,0-0.51-0.104-0.72
			c-0.145-0.288-0.444-0.563-0.94-0.563c-0.418,0-0.797,0.196-1.006,0.51c-0.118,0.171-0.235,0.498-0.235,1.009v3.875h-1.946V28.952
			z"/>
		<path fill="#5E5F5E" d="M182.437,24.934h2.064v1.688h-2.064V24.934z M182.502,27.761h1.934v6.625h-1.934V27.761z"/>
		<path fill="#5E5F5E" d="M186.264,29.149h-0.979v-1.375h0.979v-0.903c0-1.165,0.392-2.108,2.272-2.108c0.131,0,0.497,0,1.045,0.065
			v1.349c-0.195-0.026-0.248-0.039-0.404-0.039c-0.993,0-0.993,0.523-0.993,0.864v0.772h1.228v1.375h-1.228v5.236h-1.92V29.149z"/>
		<path fill="#5E5F5E" d="M194.138,28.952c0-0.025,0-0.746-0.039-1.204h1.854l0.053,0.995c0.183-0.301,0.705-1.152,2.142-1.152
			c1.293,0,1.842,0.786,2.012,1.244c0.144,0.405,0.183,0.746,0.183,1.977v3.574h-1.972v-4.111c0-0.274,0-0.51-0.104-0.72
			c-0.144-0.288-0.444-0.563-0.94-0.563c-0.418,0-0.797,0.196-1.006,0.51c-0.118,0.171-0.235,0.498-0.235,1.009v3.875h-1.946V28.952
			z"/>
		<path fill="#5E5F5E" d="M205.2,27.617c2.39,0,3.422,1.623,3.422,3.47c0,1.858-1.071,3.534-3.462,3.534
			c-1.881,0-3.369-1.165-3.369-3.482C201.791,29.542,202.6,27.617,205.2,27.617z M205.225,33.273c0.85,0,1.424-0.51,1.424-2.265
			c0-0.877-0.17-2.095-1.449-2.095c-1.411,0-1.424,1.637-1.424,2.239C203.776,32.632,204.272,33.273,205.225,33.273z"/>
		<path fill="#5E5F5E" d="M213.949,34.294c-0.627,0.17-1.188,0.21-1.502,0.21c-1.946,0-1.946-1.231-1.946-1.781v-3.626h-1.268
			v-1.283h1.268v-1.296l1.92-0.707v2.003h1.567v1.283h-1.567v2.984c0.013,0.603,0.013,0.982,0.875,0.982
			c0.287,0,0.418-0.013,0.653-0.039V34.294z"/>
	</g>
	<g>
		<path fill="#5E5F5E" d="M14.037,43.203c-0.026-0.236-0.105-1.218-0.85-1.218c-0.914,0-1.019,1.388-1.019,2.107
			c0,0.367,0.039,1.545,0.483,2.029c0.183,0.196,0.379,0.223,0.522,0.223c0.209,0,0.81-0.092,0.888-1.27h1.907
			c-0.026,0.51-0.092,1.309-0.849,1.95c-0.471,0.406-1.059,0.615-1.881,0.615c-0.875,0-1.646-0.196-2.247-0.877
			c-0.574-0.668-0.836-1.545-0.836-2.605c0-3.011,2.208-3.43,3.083-3.43c1.228,0,2.678,0.681,2.69,2.475H14.037z"/>
		<path fill="#5E5F5E" d="M21.036,47.471c-0.065-0.406-0.065-0.707-0.065-0.903c-0.731,1.061-1.606,1.061-1.973,1.061
			c-0.953,0-1.384-0.275-1.646-0.523c-0.392-0.394-0.574-0.93-0.574-1.453c0-0.524,0.183-1.493,1.397-2.056
			c0.81-0.367,1.973-0.367,2.612-0.367c0-0.432-0.013-0.642-0.092-0.877c-0.17-0.484-0.679-0.55-0.862-0.55
			c-0.273,0-0.562,0.118-0.73,0.366c-0.145,0.223-0.145,0.433-0.145,0.59h-1.894c0.013-0.354,0.052-1.061,0.744-1.559
			c0.602-0.432,1.372-0.536,1.999-0.536c0.549,0,1.697,0.092,2.351,0.851c0.444,0.537,0.457,1.322,0.457,1.624l0.014,2.657
			c0,0.563,0.039,1.126,0.156,1.676H21.036z M18.659,45.429c0,0.444,0.3,0.942,0.94,0.942c0.353,0,0.64-0.17,0.822-0.38
			c0.34-0.419,0.366-0.93,0.366-1.637C19.546,44.25,18.659,44.643,18.659,45.429z"/>
		<path fill="#5E5F5E" d="M24.365,42.037c0-0.025,0-0.746-0.039-1.204h1.854l0.053,0.995c0.183-0.301,0.705-1.152,2.142-1.152
			c1.293,0,1.842,0.786,2.012,1.244c0.144,0.405,0.183,0.746,0.183,1.977v3.574h-1.972v-4.111c0-0.274,0-0.51-0.104-0.72
			c-0.144-0.288-0.444-0.563-0.94-0.563c-0.418,0-0.797,0.196-1.006,0.51c-0.118,0.171-0.235,0.498-0.235,1.009v3.875h-1.946V42.037
			z"/>
		<path fill="#5E5F5E" d="M36.68,38.019h1.946v8.379c0,0.393,0.025,0.824,0.052,1.073h-1.959l-0.053-0.956
			c-0.13,0.236-0.261,0.484-0.666,0.746c-0.483,0.314-0.992,0.341-1.28,0.341c-1.763,0-2.808-1.218-2.808-3.286
			c0-2.187,1.188-3.548,2.912-3.548c1.188,0,1.686,0.668,1.855,0.903V38.019z M35.204,46.345c0.562,0,1.019-0.34,1.228-0.746
			c0.288-0.55,0.314-1.23,0.314-1.558c0-1.297-0.563-2.004-1.438-2.004c-1.293,0-1.437,1.559-1.437,2.226
			C33.872,45.363,34.238,46.345,35.204,46.345z"/>
		<path fill="#5E5F5E" d="M40.232,38.019h2.063v1.688h-2.063V38.019z M40.296,40.846h1.934v6.625h-1.934V40.846z"/>
		<path fill="#5E5F5E" d="M48.29,38.019h1.946v8.379c0,0.393,0.025,0.824,0.052,1.073h-1.959l-0.053-0.956
			c-0.13,0.236-0.261,0.484-0.666,0.746c-0.483,0.314-0.992,0.341-1.28,0.341c-1.763,0-2.808-1.218-2.808-3.286
			c0-2.187,1.188-3.548,2.912-3.548c1.188,0,1.686,0.668,1.855,0.903V38.019z M46.813,46.345c0.562,0,1.019-0.34,1.228-0.746
			c0.288-0.55,0.314-1.23,0.314-1.558c0-1.297-0.563-2.004-1.438-2.004c-1.293,0-1.437,1.559-1.437,2.226
			C45.481,45.363,45.847,46.345,46.813,46.345z"/>
		<path fill="#5E5F5E" d="M55.863,47.471c-0.065-0.406-0.065-0.707-0.065-0.903c-0.731,1.061-1.606,1.061-1.972,1.061
			c-0.954,0-1.385-0.275-1.646-0.523c-0.392-0.394-0.574-0.93-0.574-1.453c0-0.524,0.183-1.493,1.397-2.056
			c0.81-0.367,1.972-0.367,2.612-0.367c0-0.432-0.014-0.642-0.092-0.877c-0.17-0.484-0.679-0.55-0.861-0.55
			c-0.274,0-0.563,0.118-0.732,0.366c-0.144,0.223-0.144,0.433-0.144,0.59h-1.894c0.013-0.354,0.053-1.061,0.744-1.559
			c0.602-0.432,1.372-0.536,1.999-0.536c0.548,0,1.698,0.092,2.351,0.851c0.444,0.537,0.457,1.322,0.457,1.624l0.014,2.657
			c0,0.563,0.039,1.126,0.156,1.676H55.863z M53.486,45.429c0,0.444,0.3,0.942,0.94,0.942c0.353,0,0.64-0.17,0.822-0.38
			c0.34-0.419,0.366-0.93,0.366-1.637C54.374,44.25,53.486,44.643,53.486,45.429z"/>
		<path fill="#5E5F5E" d="M63.045,47.379c-0.627,0.17-1.188,0.21-1.502,0.21c-1.946,0-1.946-1.231-1.946-1.781v-3.626H58.33v-1.283
			h1.268v-1.296l1.92-0.707v2.003h1.567v1.283h-1.567v2.985c0.013,0.602,0.013,0.981,0.875,0.981c0.287,0,0.418-0.013,0.653-0.039
			V47.379z"/>
		<path fill="#5E5F5E" d="M65.552,44.656c0,0.432,0,1.767,1.346,1.767c0.482,0,0.966-0.183,1.149-0.916h1.763
			c-0.025,0.314-0.091,0.877-0.627,1.44c-0.483,0.511-1.345,0.772-2.312,0.772c-0.562,0-1.633-0.105-2.325-0.825
			c-0.601-0.628-0.849-1.519-0.849-2.579c0-1.073,0.261-2.356,1.371-3.129c0.51-0.341,1.137-0.55,1.854-0.55
			c0.94,0,2.064,0.366,2.665,1.597c0.444,0.904,0.418,1.873,0.392,2.423H65.552z M68.007,43.439c0-0.301-0.025-1.479-1.148-1.479
			c-0.85,0-1.202,0.707-1.241,1.479H68.007z"/>
		<path fill="#5E5F5E" d="M75.019,42.233H74.04v-1.374h0.979v-0.903c0-1.165,0.392-2.108,2.272-2.108c0.131,0,0.497,0,1.045,0.065
			v1.349c-0.195-0.026-0.248-0.039-0.404-0.039c-0.993,0-0.993,0.523-0.993,0.864v0.772h1.229v1.374h-1.229v5.237h-1.92V42.233z"/>
		<path fill="#5E5F5E" d="M82.098,40.702c2.39,0,3.422,1.623,3.422,3.47c0,1.858-1.071,3.534-3.462,3.534
			c-1.881,0-3.369-1.165-3.369-3.482C78.689,42.627,79.499,40.702,82.098,40.702z M82.124,46.358c0.85,0,1.424-0.51,1.424-2.265
			c0-0.877-0.17-2.095-1.449-2.095c-1.411,0-1.424,1.637-1.424,2.239C80.674,45.717,81.17,46.358,82.124,46.358z"/>
		<path fill="#5E5F5E" d="M86.967,42.483c0-0.314-0.052-1.27-0.091-1.649h1.815l0.039,1.27c0.248-0.563,0.679-1.361,2.247-1.282
			v1.741c-1.96-0.184-2.077,0.824-2.077,1.649v3.26h-1.934V42.483z"/>
		<path fill="#5E5F5E" d="M95.73,38.019h1.92v3.744c0.222-0.314,0.705-0.995,1.907-0.995c0.979,0,1.606,0.484,1.92,0.891
			c0.235,0.327,0.431,0.929,0.431,1.793v4.02h-1.92v-3.954c0-0.379,0-1.439-1.084-1.439c-0.549,0-1.241,0.313-1.241,1.348
			l0.014,4.046H95.73V38.019z"/>
		<path fill="#5E5F5E" d="M103.591,38.019h2.063v1.688h-2.063V38.019z M103.656,40.846h1.934v6.625h-1.934V40.846z"/>
		<path fill="#5E5F5E" d="M113.543,40.886c-0.053,0.523-0.092,0.969-0.092,1.636v4.884c0,2.436-2.024,2.671-3.291,2.671
			c-0.94,0-2.782-0.118-2.899-2.121h1.854c0.026,0.196,0.117,0.916,1.149,0.916c0.574,0,1.071-0.274,1.201-0.863
			c0.079-0.327,0.079-0.563,0.092-1.571c-0.614,0.812-1.306,0.903-1.776,0.903c-1.894,0-2.782-1.649-2.782-3.247
			c0-1.676,0.928-3.272,2.821-3.272c1.202,0,1.646,0.654,1.842,0.942l0.065-0.877H113.543z M110.225,46.018
			c1.358,0,1.358-1.598,1.358-1.886c0-0.746-0.144-2.016-1.319-2.016c-0.731,0-1.332,0.563-1.332,1.977
			C108.932,44.42,108.932,46.018,110.225,46.018z"/>
		<path fill="#5E5F5E" d="M115.318,38.019h1.92v3.744c0.222-0.314,0.705-0.995,1.907-0.995c0.979,0,1.606,0.484,1.92,0.891
			c0.235,0.327,0.431,0.929,0.431,1.793v4.02h-1.92v-3.954c0-0.379,0-1.439-1.084-1.439c-0.549,0-1.241,0.313-1.241,1.348
			l0.014,4.046h-1.946V38.019z"/>
		<path fill="#5E5F5E" d="M122.97,43.269h3.238v1.479h-3.238V43.269z"/>
		<path fill="#5E5F5E" d="M127.527,38.019h2.064v1.688h-2.064V38.019z M127.592,40.846h1.934v6.625h-1.934V40.846z"/>
		<path fill="#5E5F5E" d="M131.249,42.037c0-0.025,0-0.746-0.039-1.204h1.854l0.053,0.995c0.183-0.301,0.705-1.152,2.142-1.152
			c1.293,0,1.842,0.786,2.012,1.244c0.144,0.405,0.183,0.746,0.183,1.977v3.574h-1.972v-4.111c0-0.274,0-0.51-0.104-0.72
			c-0.145-0.288-0.444-0.563-0.94-0.563c-0.418,0-0.797,0.196-1.006,0.51c-0.118,0.171-0.235,0.498-0.235,1.009v3.875h-1.946V42.037
			z"/>
		<path fill="#5E5F5E" d="M143.081,47.379c-0.627,0.17-1.188,0.21-1.502,0.21c-1.946,0-1.946-1.231-1.946-1.781v-3.626h-1.268
			v-1.283h1.268v-1.296l1.92-0.707v2.003h1.567v1.283h-1.567v2.985c0.013,0.602,0.013,0.981,0.875,0.981
			c0.287,0,0.418-0.013,0.653-0.039V47.379z"/>
		<path fill="#5E5F5E" d="M145.587,44.656c0,0.432,0,1.767,1.346,1.767c0.482,0,0.966-0.183,1.149-0.916h1.763
			c-0.025,0.314-0.091,0.877-0.627,1.44c-0.483,0.511-1.345,0.772-2.312,0.772c-0.562,0-1.633-0.105-2.325-0.825
			c-0.601-0.628-0.849-1.519-0.849-2.579c0-1.073,0.261-2.356,1.371-3.129c0.51-0.341,1.137-0.55,1.854-0.55
			c0.94,0,2.064,0.366,2.665,1.597c0.444,0.904,0.418,1.873,0.392,2.423H145.587z M148.043,43.439c0-0.301-0.025-1.479-1.148-1.479
			c-0.85,0-1.202,0.707-1.241,1.479H148.043z"/>
		<path fill="#5E5F5E" d="M151.32,42.037c0-0.025,0-0.746-0.039-1.204h1.854l0.053,0.995c0.183-0.301,0.705-1.152,2.142-1.152
			c1.293,0,1.842,0.786,2.012,1.244c0.144,0.405,0.183,0.746,0.183,1.977v3.574h-1.972v-4.111c0-0.274,0-0.51-0.104-0.72
			c-0.144-0.288-0.444-0.563-0.94-0.563c-0.418,0-0.797,0.196-1.006,0.51c-0.118,0.171-0.235,0.498-0.235,1.009v3.875h-1.946V42.037
			z"/>
		<path fill="#5E5F5E" d="M160.618,45.56c0.026,0.419,0.287,0.903,1.097,0.903c0.692,0,1.02-0.393,1.02-0.786
			c0-0.301-0.157-0.536-0.914-0.746l-1.202-0.327c-0.535-0.157-1.672-0.484-1.672-1.833c0-1.283,1.176-2.068,2.887-2.068
			c1.358,0,2.455,0.628,2.508,1.951h-1.764c-0.052-0.733-0.64-0.786-0.94-0.786c-0.522,0-0.914,0.249-0.914,0.654
			c0,0.445,0.326,0.537,0.901,0.694l1.188,0.327c1.201,0.327,1.764,0.942,1.764,1.846c0,1.14-0.98,2.278-3.03,2.278
			c-0.85,0-1.659-0.184-2.26-0.812c-0.432-0.458-0.471-0.982-0.483-1.296H160.618z"/>
		<path fill="#5E5F5E" d="M165.736,38.019h2.064v1.688h-2.064V38.019z M165.801,40.846h1.934v6.625h-1.934V40.846z"/>
		<path fill="#5E5F5E" d="M173.311,47.379c-0.627,0.17-1.188,0.21-1.502,0.21c-1.946,0-1.946-1.231-1.946-1.781v-3.626h-1.268
			v-1.283h1.268v-1.296l1.92-0.707v2.003h1.567v1.283h-1.567v2.985c0.013,0.602,0.013,0.981,0.875,0.981
			c0.287,0,0.418-0.013,0.653-0.039V47.379z"/>
		<path fill="#5E5F5E" d="M175.935,40.859l1.45,4.582l1.476-4.582h1.92l-2.494,6.493l-0.797,2.632h-1.946l0.836-2.487l-2.534-6.638
			H175.935z"/>
		<path fill="#5E5F5E" d="M186.748,45.56c0.026,0.419,0.287,0.903,1.098,0.903c0.691,0,1.019-0.393,1.019-0.786
			c0-0.301-0.157-0.536-0.915-0.746l-1.201-0.327c-0.535-0.157-1.672-0.484-1.672-1.833c0-1.283,1.176-2.068,2.887-2.068
			c1.358,0,2.455,0.628,2.508,1.951h-1.764c-0.052-0.733-0.64-0.786-0.94-0.786c-0.522,0-0.914,0.249-0.914,0.654
			c0,0.445,0.326,0.537,0.901,0.694l1.188,0.327c1.202,0.327,1.764,0.942,1.764,1.846c0,1.14-0.979,2.278-3.03,2.278
			c-0.85,0-1.659-0.184-2.26-0.812c-0.432-0.458-0.471-0.982-0.483-1.296H186.748z"/>
		<path fill="#5E5F5E" d="M195.811,47.379c-0.627,0.17-1.188,0.21-1.502,0.21c-1.946,0-1.946-1.231-1.946-1.781v-3.626h-1.268
			v-1.283h1.268v-1.296l1.92-0.707v2.003h1.567v1.283h-1.567v2.985c0.013,0.602,0.013,0.981,0.875,0.981
			c0.287,0,0.418-0.013,0.653-0.039V47.379z"/>
		<path fill="#5E5F5E" d="M200.969,47.471c-0.065-0.406-0.065-0.707-0.065-0.903c-0.731,1.061-1.606,1.061-1.973,1.061
			c-0.953,0-1.384-0.275-1.646-0.523c-0.392-0.394-0.574-0.93-0.574-1.453c0-0.524,0.183-1.493,1.397-2.056
			c0.81-0.367,1.973-0.367,2.612-0.367c0-0.432-0.013-0.642-0.092-0.877c-0.17-0.484-0.679-0.55-0.862-0.55
			c-0.273,0-0.562,0.118-0.73,0.366c-0.145,0.223-0.145,0.433-0.145,0.59h-1.894c0.013-0.354,0.052-1.061,0.744-1.559
			c0.602-0.432,1.372-0.536,1.999-0.536c0.549,0,1.697,0.092,2.351,0.851c0.444,0.537,0.457,1.322,0.457,1.624l0.014,2.657
			c0,0.563,0.039,1.126,0.156,1.676H200.969z M198.592,45.429c0,0.444,0.3,0.942,0.94,0.942c0.353,0,0.64-0.17,0.822-0.38
			c0.34-0.419,0.366-0.93,0.366-1.637C199.48,44.25,198.592,44.643,198.592,45.429z"/>
		<path fill="#5E5F5E" d="M208.152,47.379c-0.627,0.17-1.188,0.21-1.502,0.21c-1.946,0-1.946-1.231-1.946-1.781v-3.626h-1.268
			v-1.283h1.268v-1.296l1.92-0.707v2.003h1.567v1.283h-1.567v2.985c0.013,0.602,0.013,0.981,0.875,0.981
			c0.287,0,0.418-0.013,0.653-0.039V47.379z"/>
		<path fill="#5E5F5E" d="M209.287,38.019h2.063v1.688h-2.063V38.019z M209.351,40.846h1.934v6.625h-1.934V40.846z"/>
		<path fill="#5E5F5E" d="M213.008,42.037c0-0.025,0-0.746-0.039-1.204h1.854l0.053,0.995c0.183-0.301,0.705-1.152,2.142-1.152
			c1.293,0,1.842,0.786,2.012,1.244c0.144,0.405,0.183,0.746,0.183,1.977v3.574h-1.972v-4.111c0-0.274,0-0.51-0.104-0.72
			c-0.145-0.288-0.444-0.563-0.94-0.563c-0.418,0-0.797,0.196-1.006,0.51c-0.118,0.171-0.235,0.498-0.235,1.009v3.875h-1.946V42.037
			z"/>
		<path fill="#5E5F5E" d="M220.896,49.081c0.431-1.31,1.148-3.43,1.148-5.773c0-1.768-0.365-3.063-1.136-5.748h1.424
			c0.744,1.808,1.319,3.719,1.319,5.669c0,2.017-0.602,3.967-1.333,5.853H220.896z"/>
	</g>
</g>
</svg>
