<?xml version="1.0" encoding="utf-8"?>
<!-- Generator: Adobe Illustrator 17.0.0, SVG Export Plug-In . SVG Version: 6.00 Build 0)  -->
<!DOCTYPE svg PUBLIC "-//W3C//DTD SVG 1.1//EN" "http://www.w3.org/Graphics/SVG/1.1/DTD/svg11.dtd">
<svg version="1.1" id="Layer_1" xmlns="http://www.w3.org/2000/svg" xmlns:xlink="http://www.w3.org/1999/xlink" x="0px" y="0px"
	 width="193.088px" height="47.542px" viewBox="0 0 193.088 47.542" enable-background="new 0 0 193.088 47.542"
	 xml:space="preserve">
<g>
	<path fill="#808084" d="M193.087,37.949c0,5.294-4.287,9.593-9.575,9.593H9.577c-5.286,0-9.576-4.299-9.576-9.593V9.948
		c0-5.296,4.29-9.588,9.576-9.588h173.935c5.288,0,9.575,4.293,9.575,9.588V37.949z"/>
	<g>
		<defs>
			<path id="SVGID_161_" d="M9.577,0C4.292,0,0,4.29,0,9.594v28c0,5.296,4.292,9.591,9.577,9.591h173.935
				c5.29,0,9.576-4.295,9.576-9.591v-28c0-5.304-4.286-9.594-9.576-9.594H9.577z"/>
		</defs>
		<clipPath id="SVGID_2_">
			<use xlink:href="#SVGID_161_"  overflow="visible"/>
		</clipPath>
		
			<linearGradient id="SVGID_4_" gradientUnits="userSpaceOnUse" x1="-2551.0876" y1="57.9116" x2="-2549.561" y2="57.9116" gradientTransform="matrix(0 -30.9048 -30.841 0 1882.5963 -78793.6719)">
			<stop  offset="0" style="stop-color:#B69170"/>
			<stop  offset="0.2776" style="stop-color:#B99372"/>
			<stop  offset="0.5005" style="stop-color:#C39B77"/>
			<stop  offset="0.7044" style="stop-color:#D4A880"/>
			<stop  offset="0.8959" style="stop-color:#ECBA8D"/>
			<stop  offset="1" style="stop-color:#FCC696"/>
		</linearGradient>
		<rect x="0" y="0" clip-path="url(#SVGID_2_)" fill="url(#SVGID_4_)" width="193.088" height="47.185"/>
	</g>
	<g>
		<defs>
			<path id="SVGID_164_" d="M9.577,3.559c-3.321,0-6.017,2.713-6.017,6.035v28c0,3.324,2.696,6.029,6.017,6.029h173.935
				c3.318,0,6.019-2.705,6.019-6.029v-28c0-3.322-2.701-6.035-6.019-6.035H9.577z"/>
		</defs>
		<clipPath id="SVGID_6_">
			<use xlink:href="#SVGID_164_"  overflow="visible"/>
		</clipPath>
		
			<linearGradient id="SVGID_8_" gradientUnits="userSpaceOnUse" x1="-2551.2966" y1="46.0036" x2="-2549.77" y2="46.0036" gradientTransform="matrix(0 -26.2418 -26.1877 0 1301.2737 -66906.9922)">
			<stop  offset="0" style="stop-color:#FFFFFF"/>
			<stop  offset="0.2973" style="stop-color:#F8F8F8"/>
			<stop  offset="0.7441" style="stop-color:#E6E5E3"/>
			<stop  offset="1" style="stop-color:#D8D7D4"/>
		</linearGradient>
		<rect x="3.56" y="3.559" clip-path="url(#SVGID_6_)" fill="url(#SVGID_8_)" width="185.97" height="40.064"/>
	</g>
	<g opacity="0.4">
		<g>
			<defs>
				<rect id="SVGID_167_" x="3.206" y="3.205" width="186.682" height="40.771"/>
			</defs>
			<clipPath id="SVGID_9_">
				<use xlink:href="#SVGID_167_"  overflow="visible"/>
			</clipPath>
			<g clip-path="url(#SVGID_9_)">
				<defs>
					<path id="SVGID_169_" d="M9.577,3.205c-3.515,0-6.373,2.87-6.373,6.39v28c0,3.515,2.858,6.382,6.373,6.382h173.935
						c3.516,0,6.376-2.867,6.376-6.382v-28c0-3.519-2.86-6.39-6.376-6.39H9.577z"/>
				</defs>
				<clipPath id="SVGID_10_">
					<use xlink:href="#SVGID_169_"  overflow="visible"/>
				</clipPath>
				
					<linearGradient id="SVGID_11_" gradientUnits="userSpaceOnUse" x1="-2548.2749" y1="202.4723" x2="-2546.7483" y2="202.4723" gradientTransform="matrix(0 26.7048 26.6498 0 -5299.3008 68054.375)">
					<stop  offset="0" style="stop-color:#FAAD3F"/>
					<stop  offset="0.1049" style="stop-color:#FAB047"/>
					<stop  offset="0.2662" style="stop-color:#FBBA5C"/>
					<stop  offset="0.4635" style="stop-color:#FCC97F"/>
					<stop  offset="0.6895" style="stop-color:#FDDDB0"/>
					<stop  offset="0.9365" style="stop-color:#FFF8EE"/>
					<stop  offset="1" style="stop-color:#FFFFFF"/>
				</linearGradient>
				<rect x="3.205" y="3.205" clip-path="url(#SVGID_10_)" fill="url(#SVGID_11_)" width="186.683" height="40.771"/>
			</g>
		</g>
	</g>
	<g>
		<path fill="#231F20" d="M28.421,7.518h3.853l2.33,8.034l2.513-8.034h3.746v11.043h-2.346v-9.47l-3,9.47h-1.949l-2.938-9.47v9.47
			h-2.208V7.518z"/>
		<path fill="#231F20" d="M46.503,10.665c2.787,0,3.989,1.894,3.989,4.048c0,2.169-1.248,4.124-4.035,4.124
			c-2.192,0-3.929-1.359-3.929-4.063C42.529,12.91,43.473,10.665,46.503,10.665z M46.534,17.263c0.99,0,1.66-0.596,1.66-2.643
			c0-1.023-0.198-2.444-1.69-2.444c-1.645,0-1.66,1.909-1.66,2.612C44.843,16.514,45.422,17.263,46.534,17.263z"/>
		<path fill="#231F20" d="M57.274,7.533h2.269v9.775c0,0.459,0.031,0.963,0.062,1.253H57.32l-0.062-1.115
			c-0.152,0.275-0.305,0.565-0.776,0.871c-0.563,0.366-1.157,0.396-1.492,0.396c-2.056,0-3.274-1.42-3.274-3.833
			c0-2.551,1.386-4.14,3.396-4.14c1.386,0,1.964,0.779,2.162,1.054V7.533z M55.553,17.248c0.654,0,1.188-0.397,1.432-0.871
			c0.335-0.642,0.365-1.436,0.365-1.817c0-1.512-0.655-2.337-1.675-2.337c-1.508,0-1.676,1.817-1.676,2.597
			C53.999,16.102,54.426,17.248,55.553,17.248z"/>
		<path fill="#231F20" d="M63.308,15.277c0,0.504,0,2.062,1.568,2.062c0.563,0,1.127-0.214,1.341-1.069h2.056
			c-0.03,0.366-0.106,1.023-0.731,1.68c-0.563,0.596-1.568,0.901-2.695,0.901c-0.654,0-1.903-0.122-2.71-0.962
			c-0.701-0.733-0.99-1.772-0.99-3.009c0-1.253,0.305-2.75,1.599-3.65c0.594-0.397,1.325-0.642,2.163-0.642
			c1.096,0,2.405,0.428,3.106,1.863c0.518,1.054,0.487,2.184,0.457,2.825H63.308z M66.171,13.857c0-0.352-0.03-1.727-1.34-1.727
			c-0.99,0-1.401,0.825-1.447,1.727H66.171z"/>
		<path fill="#231F20" d="M69.967,12.742c0-0.366-0.062-1.481-0.107-1.925h2.117l0.046,1.481c0.289-0.656,0.792-1.588,2.619-1.496
			v2.031c-2.284-0.214-2.422,0.962-2.422,1.924v3.804h-2.253V12.742z"/>
		<path fill="#231F20" d="M80.506,18.561c-0.075-0.474-0.075-0.825-0.075-1.054c-0.854,1.237-1.874,1.237-2.3,1.237
			c-1.111,0-1.614-0.321-1.919-0.611c-0.457-0.458-0.67-1.084-0.67-1.695c0-0.611,0.213-1.741,1.629-2.398
			c0.944-0.428,2.3-0.428,3.046-0.428c0-0.504-0.015-0.748-0.106-1.022c-0.198-0.565-0.792-0.642-1.005-0.642
			c-0.32,0-0.655,0.137-0.853,0.428c-0.168,0.259-0.168,0.504-0.168,0.687h-2.208c0.016-0.412,0.061-1.237,0.868-1.817
			c0.7-0.504,1.599-0.626,2.33-0.626c0.64,0,1.979,0.106,2.741,0.993c0.518,0.626,0.532,1.542,0.532,1.894l0.016,3.101
			c0,0.657,0.046,1.313,0.183,1.955H80.506z M77.735,16.178c0,0.52,0.351,1.1,1.097,1.1c0.411,0,0.746-0.198,0.96-0.442
			c0.396-0.489,0.426-1.085,0.426-1.909C78.771,14.803,77.735,15.262,77.735,16.178z"/>
		<path fill="#231F20" d="M88.886,18.455c-0.731,0.198-1.386,0.244-1.751,0.244c-2.27,0-2.27-1.436-2.27-2.077V12.39h-1.477v-1.497
			h1.477V9.382l2.238-0.825v2.337h1.828v1.497h-1.828v3.482c0.016,0.703,0.016,1.146,1.021,1.146c0.335,0,0.487-0.015,0.762-0.046
			V18.455z"/>
		<path fill="#231F20" d="M92.102,15.277c0,0.504,0,2.062,1.568,2.062c0.563,0,1.127-0.214,1.341-1.069h2.056
			c-0.03,0.366-0.106,1.023-0.731,1.68c-0.563,0.596-1.568,0.901-2.695,0.901c-0.654,0-1.903-0.122-2.71-0.962
			c-0.701-0.733-0.99-1.772-0.99-3.009c0-1.253,0.305-2.75,1.599-3.65c0.594-0.397,1.325-0.642,2.163-0.642
			c1.096,0,2.405,0.428,3.106,1.863c0.518,1.054,0.487,2.184,0.457,2.825H92.102z M94.965,13.857c0-0.352-0.03-1.727-1.34-1.727
			c-0.99,0-1.401,0.825-1.447,1.727H94.965z"/>
		<path fill="#231F20" d="M102.92,7.488h2.36v11.073h-2.36V7.488z"/>
		<path fill="#231F20" d="M107.262,12.222c0-0.03,0-0.87-0.046-1.405h2.162l0.062,1.161c0.213-0.352,0.822-1.344,2.497-1.344
			c1.508,0,2.147,0.916,2.345,1.45c0.168,0.474,0.214,0.871,0.214,2.307v4.17h-2.3v-4.796c0-0.321,0-0.596-0.122-0.84
			c-0.167-0.336-0.518-0.657-1.096-0.657c-0.487,0-0.93,0.229-1.173,0.596c-0.137,0.198-0.274,0.58-0.274,1.176v4.521h-2.269V12.222
			z"/>
		<path fill="#231F20" d="M121.063,18.455c-0.731,0.198-1.386,0.244-1.751,0.244c-2.27,0-2.27-1.436-2.27-2.077V12.39h-1.477v-1.497
			h1.477V9.382l2.238-0.825v2.337h1.828v1.497h-1.828v3.482c0.016,0.703,0.016,1.146,1.021,1.146c0.335,0,0.487-0.015,0.762-0.046
			V18.455z"/>
		<path fill="#231F20" d="M124.278,15.277c0,0.504,0,2.062,1.568,2.062c0.563,0,1.127-0.214,1.341-1.069h2.056
			c-0.03,0.366-0.106,1.023-0.731,1.68c-0.563,0.596-1.568,0.901-2.695,0.901c-0.654,0-1.903-0.122-2.71-0.962
			c-0.701-0.733-0.99-1.772-0.99-3.009c0-1.253,0.305-2.75,1.599-3.65c0.594-0.397,1.325-0.642,2.163-0.642
			c1.096,0,2.405,0.428,3.106,1.863c0.518,1.054,0.487,2.184,0.457,2.825H124.278z M127.141,13.857c0-0.352-0.03-1.727-1.34-1.727
			c-0.99,0-1.401,0.825-1.447,1.727H127.141z"/>
		<path fill="#231F20" d="M130.967,12.222c0-0.03,0-0.87-0.046-1.405h2.162l0.062,1.161c0.213-0.352,0.822-1.344,2.497-1.344
			c1.508,0,2.147,0.916,2.345,1.45c0.168,0.474,0.214,0.871,0.214,2.307v4.17h-2.3v-4.796c0-0.321,0-0.596-0.122-0.84
			c-0.167-0.336-0.518-0.657-1.096-0.657c-0.487,0-0.93,0.229-1.173,0.596c-0.137,0.198-0.274,0.58-0.274,1.176v4.521h-2.269V12.222
			z"/>
		<path fill="#231F20" d="M141.814,16.331c0.03,0.489,0.335,1.055,1.279,1.055c0.807,0,1.188-0.459,1.188-0.917
			c0-0.352-0.183-0.626-1.066-0.87l-1.4-0.382c-0.625-0.184-1.949-0.565-1.949-2.139c0-1.497,1.37-2.413,3.365-2.413
			c1.584,0,2.863,0.733,2.924,2.275h-2.056c-0.062-0.855-0.746-0.916-1.097-0.916c-0.609,0-1.065,0.29-1.065,0.764
			c0,0.52,0.38,0.626,1.05,0.81l1.386,0.382c1.401,0.382,2.057,1.1,2.057,2.153c0,1.329-1.143,2.658-3.533,2.658
			c-0.99,0-1.934-0.214-2.635-0.947c-0.502-0.535-0.548-1.146-0.563-1.513H141.814z"/>
		<path fill="#231F20" d="M147.787,7.533h2.405v1.971h-2.405V7.533z M147.863,10.833h2.253v7.729h-2.253V10.833z"/>
		<path fill="#231F20" d="M156.62,18.455c-0.731,0.198-1.386,0.244-1.751,0.244c-2.27,0-2.27-1.436-2.27-2.077V12.39h-1.477v-1.497
			h1.477V9.382l2.238-0.825v2.337h1.828v1.497h-1.828v3.482c0.016,0.703,0.016,1.146,1.021,1.146c0.335,0,0.487-0.015,0.762-0.046
			V18.455z"/>
		<path fill="#231F20" d="M159.684,10.847l1.69,5.347l1.721-5.347h2.239l-2.909,7.576l-0.929,3.07h-2.27l0.975-2.902l-2.954-7.744
			H159.684z"/>
	</g>
	<g>
		<path fill="#231F20" d="M77.431,33.353c0,0.52-0.031,2.093,1.994,2.093c1.279,0,2.087-0.611,2.087-1.543
			c0-0.978-0.686-1.146-2.087-1.481c-2.619-0.657-4.051-1.436-4.051-3.345c0-1.818,1.295-3.422,4.355-3.422
			c1.143,0,2.498,0.26,3.32,1.299c0.624,0.794,0.624,1.68,0.624,2.046h-2.269c-0.031-0.382-0.152-1.68-1.782-1.68
			c-1.097,0-1.813,0.596-1.813,1.497c0,1.023,0.808,1.206,2.392,1.604c1.903,0.458,3.776,0.978,3.776,3.131
			c0,1.986-1.645,3.59-4.69,3.59c-4.218,0-4.249-2.719-4.264-3.788H77.431z"/>
		<path fill="#231F20" d="M90.166,36.775c-0.731,0.198-1.386,0.244-1.751,0.244c-2.27,0-2.27-1.436-2.27-2.077v-4.231h-1.477v-1.497
			h1.477v-1.512l2.238-0.825v2.337h1.828v1.497h-1.828v3.482c0.016,0.703,0.016,1.146,1.021,1.146c0.335,0,0.487-0.015,0.762-0.046
			V36.775z"/>
		<path fill="#231F20" d="M96.184,36.882c-0.076-0.474-0.076-0.825-0.076-1.054c-0.854,1.237-1.873,1.237-2.3,1.237
			c-1.111,0-1.614-0.321-1.919-0.611c-0.457-0.458-0.67-1.084-0.67-1.695s0.213-1.741,1.629-2.398
			c0.944-0.428,2.3-0.428,3.046-0.428c0-0.504-0.015-0.748-0.106-1.022c-0.198-0.565-0.792-0.642-1.005-0.642
			c-0.32,0-0.655,0.137-0.853,0.428c-0.168,0.259-0.168,0.504-0.168,0.687h-2.208c0.016-0.412,0.061-1.237,0.868-1.817
			c0.7-0.504,1.599-0.626,2.33-0.626c0.64,0,1.979,0.106,2.741,0.993c0.518,0.626,0.532,1.542,0.532,1.894l0.016,3.101
			c0,0.657,0.046,1.313,0.183,1.955H96.184z M93.412,34.499c0,0.52,0.351,1.1,1.097,1.1c0.411,0,0.746-0.198,0.96-0.442
			c0.396-0.489,0.426-1.085,0.426-1.909C94.448,33.124,93.412,33.583,93.412,34.499z"/>
		<path fill="#231F20" d="M104.563,36.775c-0.731,0.198-1.386,0.244-1.751,0.244c-2.27,0-2.27-1.436-2.27-2.077v-4.231h-1.477
			v-1.497h1.477v-1.512l2.238-0.825v2.337h1.828v1.497h-1.828v3.482c0.016,0.703,0.016,1.146,1.021,1.146
			c0.335,0,0.487-0.015,0.762-0.046V36.775z"/>
		<path fill="#231F20" d="M105.891,25.853h2.405v1.971h-2.405V25.853z M105.967,29.153h2.253v7.729h-2.253V29.153z"/>
		<path fill="#231F20" d="M110.233,30.543c0-0.03,0-0.87-0.046-1.405h2.162l0.062,1.161c0.213-0.352,0.822-1.344,2.497-1.344
			c1.508,0,2.147,0.916,2.345,1.45c0.168,0.474,0.214,0.871,0.214,2.307v4.17h-2.3v-4.796c0-0.321,0-0.596-0.122-0.84
			c-0.167-0.336-0.518-0.657-1.096-0.657c-0.487,0-0.93,0.229-1.173,0.596c-0.137,0.198-0.274,0.58-0.274,1.176v4.521h-2.269V30.543
			z"/>
	</g>
</g>
</svg>
