<?xml version="1.0" encoding="utf-8"?>
<!-- Generator: Adobe Illustrator 17.0.0, SVG Export Plug-In . SVG Version: 6.00 Build 0)  -->
<!DOCTYPE svg PUBLIC "-//W3C//DTD SVG 1.1//EN" "http://www.w3.org/Graphics/SVG/1.1/DTD/svg11.dtd">
<svg version="1.1" id="Layer_1" xmlns="http://www.w3.org/2000/svg" xmlns:xlink="http://www.w3.org/1999/xlink" x="0px" y="0px"
	 width="105.913px" height="94.31px" viewBox="0 0 105.913 94.31" enable-background="new 0 0 105.913 94.31" xml:space="preserve">
<g>
	
		<radialGradient id="SVGID_2_" cx="75.2345" cy="-10.4064" r="42.6244" gradientTransform="matrix(1.2424 0 0 1.1063 -40.5146 58.6677)" gradientUnits="userSpaceOnUse">
		<stop  offset="0" style="stop-color:#022538"/>
		<stop  offset="0.3137" style="stop-color:#02263A"/>
		<stop  offset="0.4267" style="stop-color:#022941"/>
		<stop  offset="0.5073" style="stop-color:#022E4C"/>
		<stop  offset="0.5725" style="stop-color:#02365D"/>
		<stop  offset="0.6283" style="stop-color:#014073"/>
		<stop  offset="0.6777" style="stop-color:#014D8F"/>
		<stop  offset="0.7224" style="stop-color:#015BAF"/>
		<stop  offset="0.7621" style="stop-color:#006CD3"/>
		<stop  offset="0.7988" style="stop-color:#007FFC"/>
		<stop  offset="0.801" style="stop-color:#0080FF"/>
		<stop  offset="0.8223" style="stop-color:#2694F9;stop-opacity:0.893"/>
		<stop  offset="0.8472" style="stop-color:#4BA8F2;stop-opacity:0.7679"/>
		<stop  offset="0.8733" style="stop-color:#6AB8ED;stop-opacity:0.6367"/>
		<stop  offset="0.9005" style="stop-color:#82C4E9;stop-opacity:0.5"/>
		<stop  offset="0.9293" style="stop-color:#93CDE6;stop-opacity:0.3552"/>
		<stop  offset="0.9608" style="stop-color:#9DD2E5;stop-opacity:0.197"/>
		<stop  offset="1" style="stop-color:#A0D4E4;stop-opacity:0"/>
	</radialGradient>
	<ellipse fill="url(#SVGID_2_)" cx="52.957" cy="47.155" rx="52.957" ry="47.155"/>
	<g>
		<g>
			<path fill="#DEF3FD" d="M26.605,42.28h2.862c0.826-0.011,1.663-0.011,2.262,0.506c0.465,0.403,0.651,0.951,0.651,1.437
				c0,1.395-1.198,1.725-1.56,1.828c1.126,0.104,1.208,0.744,1.343,1.715c0.114,0.878,0.176,1.239,0.228,1.446
				c0.083,0.33,0.145,0.413,0.227,0.537h-1.766c-0.072-0.413-0.3-2.304-0.403-2.593c-0.145-0.424-0.537-0.424-0.806-0.424h-1.405
				v3.017h-1.632V42.28z M28.186,45.544h1.292c0.186,0,0.558,0,0.816-0.207c0.114-0.082,0.413-0.341,0.413-0.867
				c0-0.507-0.248-0.744-0.393-0.837c-0.248-0.176-0.547-0.176-1.053-0.176h-1.075V45.544z"/>
			<path fill="#DEF3FD" d="M34.774,47.528c0,0.341,0,1.395,1.064,1.395c0.382,0,0.764-0.145,0.909-0.724h1.395
				c-0.021,0.248-0.072,0.692-0.496,1.137c-0.382,0.402-1.064,0.609-1.828,0.609c-0.444,0-1.292-0.083-1.839-0.65
				c-0.475-0.496-0.671-1.198-0.671-2.035c0-0.848,0.207-1.859,1.084-2.47c0.403-0.269,0.899-0.434,1.467-0.434
				c0.744,0,1.632,0.289,2.107,1.261c0.351,0.713,0.331,1.477,0.31,1.911H34.774z M36.715,46.567c0-0.237-0.021-1.167-0.909-1.167
				c-0.671,0-0.95,0.558-0.981,1.167H36.715z"/>
			<path fill="#DEF3FD" d="M39.389,45.617h-0.775v-1.085h0.775v-0.713c0-0.919,0.31-1.663,1.797-1.663c0.103,0,0.393,0,0.826,0.052
				v1.064c-0.155-0.021-0.196-0.031-0.32-0.031c-0.785,0-0.785,0.413-0.785,0.682v0.609h0.971v1.085h-0.971v4.132h-1.519V45.617z"/>
			<path fill="#DEF3FD" d="M43.953,47.528c0,0.341,0,1.395,1.064,1.395c0.382,0,0.764-0.145,0.909-0.724h1.395
				c-0.021,0.248-0.072,0.692-0.496,1.137c-0.382,0.402-1.064,0.609-1.828,0.609c-0.444,0-1.292-0.083-1.839-0.65
				c-0.475-0.496-0.671-1.198-0.671-2.035c0-0.848,0.207-1.859,1.084-2.47c0.403-0.269,0.899-0.434,1.467-0.434
				c0.744,0,1.632,0.289,2.107,1.261c0.351,0.713,0.331,1.477,0.31,1.911H43.953z M45.895,46.567c0-0.237-0.021-1.167-0.909-1.167
				c-0.671,0-0.95,0.558-0.981,1.167H45.895z"/>
			<path fill="#DEF3FD" d="M48.465,45.813c0-0.248-0.041-1.002-0.072-1.302h1.436l0.031,1.002c0.196-0.444,0.537-1.074,1.777-1.013
				v1.374c-1.549-0.145-1.643,0.651-1.643,1.302v2.572h-1.529V45.813z"/>
			<path fill="#DEF3FD" d="M53.711,47.528c0,0.341,0,1.395,1.064,1.395c0.382,0,0.764-0.145,0.909-0.724h1.395
				c-0.021,0.248-0.072,0.692-0.496,1.137c-0.382,0.402-1.064,0.609-1.828,0.609c-0.444,0-1.292-0.083-1.839-0.65
				c-0.475-0.496-0.671-1.198-0.671-2.035c0-0.848,0.207-1.859,1.084-2.47c0.403-0.269,0.899-0.434,1.467-0.434
				c0.744,0,1.632,0.289,2.107,1.261c0.351,0.713,0.331,1.477,0.31,1.911H53.711z M55.653,46.567c0-0.237-0.021-1.167-0.909-1.167
				c-0.671,0-0.95,0.558-0.981,1.167H55.653z"/>
			<path fill="#DEF3FD" d="M58.243,45.461c0-0.021,0-0.589-0.031-0.95h1.467l0.042,0.785c0.145-0.237,0.558-0.909,1.694-0.909
				c1.023,0,1.457,0.62,1.591,0.981c0.114,0.32,0.145,0.589,0.145,1.56v2.82h-1.56v-3.244c0-0.217,0-0.402-0.083-0.567
				c-0.114-0.228-0.351-0.444-0.744-0.444c-0.331,0-0.63,0.154-0.795,0.402c-0.093,0.135-0.186,0.393-0.186,0.796v3.058h-1.54
				V45.461z"/>
			<path fill="#DEF3FD" d="M67.29,46.381c-0.021-0.187-0.083-0.961-0.671-0.961c-0.723,0-0.806,1.095-0.806,1.663
				c0,0.289,0.031,1.219,0.382,1.601c0.145,0.155,0.3,0.176,0.414,0.176c0.165,0,0.64-0.072,0.702-1.002h1.508
				c-0.021,0.403-0.072,1.033-0.671,1.539c-0.372,0.32-0.837,0.486-1.488,0.486c-0.692,0-1.301-0.155-1.777-0.692
				c-0.454-0.527-0.661-1.219-0.661-2.056c0-2.376,1.746-2.707,2.438-2.707c0.971,0,2.118,0.537,2.128,1.953H67.29z"/>
			<path fill="#DEF3FD" d="M70.924,47.528c0,0.341,0,1.395,1.064,1.395c0.382,0,0.764-0.145,0.909-0.724h1.395
				c-0.021,0.248-0.072,0.692-0.496,1.137c-0.382,0.402-1.064,0.609-1.828,0.609c-0.444,0-1.292-0.083-1.839-0.65
				c-0.475-0.496-0.671-1.198-0.671-2.035c0-0.848,0.207-1.859,1.084-2.47c0.403-0.269,0.899-0.434,1.467-0.434
				c0.744,0,1.632,0.289,2.107,1.261c0.351,0.713,0.331,1.477,0.31,1.911H70.924z M72.866,46.567c0-0.237-0.021-1.167-0.909-1.167
				c-0.671,0-0.95,0.558-0.981,1.167H72.866z"/>
			<path fill="#DEF3FD" d="M76.5,48.241c0.021,0.33,0.228,0.712,0.868,0.712c0.548,0,0.806-0.31,0.806-0.619
				c0-0.237-0.124-0.424-0.723-0.589L76.5,47.486c-0.423-0.124-1.322-0.382-1.322-1.446c0-1.012,0.93-1.632,2.283-1.632
				c1.074,0,1.942,0.496,1.983,1.539H78.05c-0.042-0.578-0.506-0.619-0.744-0.619c-0.413,0-0.723,0.196-0.723,0.516
				c0,0.352,0.258,0.424,0.713,0.548l0.94,0.259c0.95,0.258,1.395,0.743,1.395,1.456c0,0.898-0.775,1.798-2.397,1.798
				c-0.671,0-1.312-0.145-1.787-0.641c-0.341-0.361-0.372-0.775-0.382-1.022H76.5z"/>
		</g>
	</g>
</g>
</svg>
