<?xml version="1.0" encoding="utf-8"?>
<!-- Generator: Adobe Illustrator 17.0.0, SVG Export Plug-In . SVG Version: 6.00 Build 0)  -->
<!DOCTYPE svg PUBLIC "-//W3C//DTD SVG 1.1//EN" "http://www.w3.org/Graphics/SVG/1.1/DTD/svg11.dtd">
<svg version="1.1" id="Layer_1" xmlns="http://www.w3.org/2000/svg" xmlns:xlink="http://www.w3.org/1999/xlink" x="0px" y="0px"
	 width="211.442px" height="162.056px" viewBox="0 0 211.442 162.056" enable-background="new 0 0 211.442 162.056"
	 xml:space="preserve">
<g>
	<path fill="#002D3D" d="M0.68,0h7.921v1.973H3.314v3.025h4.93v2.04h-4.93v5.235H0.68V0z"/>
	<path fill="#002D3D" d="M15.214,12.273c-0.085-0.527-0.085-0.918-0.085-1.173c-0.951,1.377-2.091,1.377-2.566,1.377
		c-1.241,0-1.802-0.357-2.142-0.681c-0.51-0.51-0.748-1.206-0.748-1.887c0-0.68,0.238-1.938,1.819-2.669
		c1.054-0.476,2.566-0.476,3.399-0.476c0-0.561-0.018-0.833-0.119-1.139c-0.221-0.629-0.884-0.714-1.122-0.714
		c-0.356,0-0.73,0.152-0.952,0.476c-0.187,0.289-0.187,0.562-0.187,0.765h-2.465c0.017-0.458,0.068-1.376,0.969-2.022
		c0.782-0.561,1.785-0.697,2.601-0.697c0.714,0,2.21,0.119,3.06,1.105c0.578,0.697,0.596,1.717,0.596,2.107l0.017,3.451
		c0,0.73,0.051,1.462,0.204,2.176H15.214z M12.121,9.621c0,0.578,0.391,1.225,1.224,1.225c0.459,0,0.833-0.222,1.07-0.493
		c0.442-0.544,0.477-1.207,0.477-2.125C13.276,8.092,12.121,8.602,12.121,9.621z"/>
	<path fill="#002D3D" d="M19.516,5.797c0-0.408-0.067-1.648-0.118-2.142h2.362l0.051,1.648c0.323-0.73,0.884-1.768,2.924-1.666
		v2.261c-2.55-0.237-2.702,1.071-2.702,2.143v4.232h-2.517V5.797z"/>
	<path fill="#002D3D" d="M31.278,12.273c-0.085-0.527-0.085-0.918-0.085-1.173c-0.951,1.377-2.091,1.377-2.566,1.377
		c-1.241,0-1.802-0.357-2.142-0.681c-0.51-0.51-0.748-1.206-0.748-1.887c0-0.68,0.238-1.938,1.819-2.669
		c1.054-0.476,2.566-0.476,3.399-0.476c0-0.561-0.018-0.833-0.119-1.139c-0.221-0.629-0.884-0.714-1.122-0.714
		c-0.356,0-0.73,0.152-0.952,0.476c-0.187,0.289-0.187,0.562-0.187,0.765h-2.465c0.017-0.458,0.068-1.376,0.969-2.022
		c0.782-0.561,1.785-0.697,2.601-0.697c0.714,0,2.21,0.119,3.06,1.105c0.578,0.697,0.596,1.717,0.596,2.107l0.017,3.451
		c0,0.73,0.051,1.462,0.204,2.176H31.278z M28.186,9.621c0,0.578,0.391,1.225,1.224,1.225c0.459,0,0.833-0.222,1.07-0.493
		c0.442-0.544,0.477-1.207,0.477-2.125C29.341,8.092,28.186,8.602,28.186,9.621z"/>
	<path fill="#002D3D" d="M35.648,0h2.499v4.862c0.289-0.408,0.918-1.292,2.481-1.292c1.275,0,2.091,0.629,2.499,1.155
		c0.306,0.426,0.561,1.207,0.561,2.329v5.219h-2.499V7.14c0-0.493,0-1.87-1.41-1.87c-0.714,0-1.615,0.408-1.615,1.751l0.018,5.253
		h-2.533V0z"/>
	<path fill="#002D3D" d="M49.112,10.013l-2.023,4.182h-1.751l1.258-4.182H49.112z"/>
	<path fill="#002D3D" d="M60.621,3.349c-0.052-0.85-0.612-1.173-1.241-1.173c-1.7,0-1.751,2.108-1.785,3.332
		c0.426-0.391,1.088-0.952,2.329-0.952c1.648,0,3.399,1.173,3.399,3.757c0,1.309-0.356,2.261-1.258,3.094
		c-0.781,0.73-1.699,1.104-3.025,1.104c-4.097,0-4.097-3.978-4.097-5.388c0-2.38,0.306-4.845,1.921-6.035
		c1.037-0.781,2.277-0.832,2.736-0.832c1.785,0,3.485,0.917,3.536,3.093H60.621z M60.825,8.482c0-1.309-0.681-2.04-1.53-2.04
		c-0.425,0-1.717,0.255-1.717,2.091c0,1.462,0.782,2.074,1.615,2.074C59.924,10.607,60.825,10.098,60.825,8.482z"/>
	<path fill="#002D3D" d="M66.725,9.044c0.017,0.373,0.119,1.58,1.529,1.58c0.952,0,1.53-0.696,1.53-1.614
		c0-1.751-1.683-1.751-2.924-1.751V5.27c1.189-0.033,2.94-0.067,2.94-1.768c0-0.935-0.696-1.411-1.462-1.411
		c-0.73,0-1.444,0.493-1.444,1.479h-2.601c0.051-0.527,0.102-1.275,0.696-2.006c0.782-0.952,2.04-1.309,3.298-1.309
		c3.025,0,3.995,1.937,3.995,3.229c0,1.988-1.751,2.532-2.278,2.686c0.374,0.119,0.867,0.271,1.411,0.73
		c0.833,0.697,0.969,1.564,0.969,2.125c0,2.006-1.836,3.502-4.301,3.502c-0.85,0-2.091-0.188-2.855-0.799
		c-1.054-0.867-1.088-2.21-1.088-2.686H66.725z"/>
	<path fill="#002D3D" d="M77.469,10.013l-2.023,4.182h-1.751l1.258-4.182H77.469z"/>
	<path fill="#002D3D" d="M83.844,0h2.499v4.862c0.289-0.408,0.918-1.292,2.481-1.292c1.275,0,2.091,0.629,2.499,1.155
		c0.306,0.426,0.561,1.207,0.561,2.329v5.219h-2.499V7.14c0-0.493,0-1.87-1.41-1.87c-0.714,0-1.615,0.408-1.615,1.751l0.018,5.253
		h-2.533V0z"/>
	<path fill="#002D3D" d="M99.313,12.273c-0.086-0.527-0.086-0.918-0.086-1.173c-0.951,1.377-2.09,1.377-2.566,1.377
		c-1.241,0-1.802-0.357-2.142-0.681c-0.51-0.51-0.748-1.206-0.748-1.887c0-0.68,0.238-1.938,1.819-2.669
		c1.054-0.476,2.566-0.476,3.399-0.476c0-0.561-0.018-0.833-0.119-1.139c-0.221-0.629-0.884-0.714-1.122-0.714
		c-0.356,0-0.73,0.152-0.952,0.476C96.61,5.678,96.61,5.95,96.61,6.153h-2.465c0.017-0.458,0.068-1.376,0.969-2.022
		c0.782-0.561,1.785-0.697,2.601-0.697c0.714,0,2.21,0.119,3.06,1.105c0.578,0.697,0.596,1.717,0.596,2.107l0.017,3.451
		c0,0.73,0.051,1.462,0.204,2.176H99.313z M96.22,9.621c0,0.578,0.391,1.225,1.224,1.225c0.459,0,0.833-0.222,1.07-0.493
		c0.442-0.544,0.477-1.207,0.477-2.125C97.375,8.092,96.22,8.602,96.22,9.621z"/>
	<path fill="#002D3D" d="M105.365,9.791c0.034,0.544,0.374,1.173,1.428,1.173c0.901,0,1.326-0.51,1.326-1.02
		c0-0.391-0.204-0.697-1.189-0.969l-1.564-0.425c-0.696-0.204-2.176-0.629-2.176-2.38c0-1.666,1.53-2.686,3.757-2.686
		c1.768,0,3.195,0.815,3.264,2.532h-2.295c-0.067-0.952-0.833-1.02-1.224-1.02c-0.68,0-1.19,0.323-1.19,0.85
		c0,0.578,0.426,0.697,1.174,0.901l1.547,0.425c1.563,0.425,2.294,1.224,2.294,2.396c0,1.479-1.274,2.958-3.943,2.958
		c-1.104,0-2.159-0.238-2.94-1.054c-0.562-0.596-0.612-1.275-0.629-1.684H105.365z"/>
	<path fill="#002D3D" d="M116.755,0.018h2.516v4.708c0.851-1.121,1.989-1.155,2.432-1.155c2.091,0,3.739,1.648,3.739,4.538
		c0,3.213-1.87,4.335-3.587,4.335c-0.441,0-1.802-0.034-2.584-1.377c-0.017,0.271-0.033,0.68-0.085,1.207h-2.431V0.018z
		 M121.021,5.253c-1.853,0-1.853,2.107-1.853,2.651c0,1.955,0.833,2.89,1.972,2.89c1.734,0,1.734-2.158,1.734-2.601
		C122.875,7.514,122.841,5.253,121.021,5.253z"/>
	<path fill="#002D3D" d="M129.25,8.618c0,0.562,0,2.295,1.751,2.295c0.629,0,1.258-0.237,1.495-1.189h2.295
		c-0.034,0.408-0.119,1.139-0.815,1.869c-0.629,0.663-1.751,1.003-3.009,1.003c-0.731,0-2.125-0.136-3.026-1.07
		c-0.781-0.816-1.104-1.972-1.104-3.349c0-1.394,0.34-3.06,1.785-4.063c0.663-0.442,1.479-0.714,2.413-0.714
		c1.225,0,2.687,0.476,3.468,2.073c0.578,1.173,0.544,2.431,0.51,3.145H129.25z M132.445,7.038c0-0.392-0.034-1.921-1.496-1.921
		c-1.104,0-1.563,0.918-1.614,1.921H132.445z"/>
	<path fill="#002D3D" d="M138.702,8.618c0,0.562,0,2.295,1.751,2.295c0.629,0,1.258-0.237,1.495-1.189h2.295
		c-0.034,0.408-0.119,1.139-0.815,1.869c-0.629,0.663-1.751,1.003-3.009,1.003c-0.731,0-2.125-0.136-3.026-1.07
		c-0.781-0.816-1.104-1.972-1.104-3.349c0-1.394,0.34-3.06,1.785-4.063c0.663-0.442,1.479-0.714,2.413-0.714
		c1.225,0,2.687,0.476,3.468,2.073c0.578,1.173,0.544,2.431,0.51,3.145H138.702z M141.897,7.038c0-0.392-0.034-1.921-1.496-1.921
		c-1.104,0-1.563,0.918-1.614,1.921H141.897z"/>
	<path fill="#002D3D" d="M146.165,5.219c0-0.034,0-0.969-0.051-1.563h2.414l0.067,1.292c0.238-0.392,0.918-1.496,2.788-1.496
		c1.683,0,2.396,1.02,2.617,1.614c0.188,0.527,0.238,0.97,0.238,2.567v4.641h-2.566V6.936c0-0.356,0-0.663-0.136-0.935
		c-0.188-0.374-0.578-0.731-1.225-0.731c-0.544,0-1.036,0.255-1.309,0.663c-0.153,0.221-0.306,0.646-0.306,1.309v5.032h-2.533V5.219
		z"/>
	<path fill="#002D3D" d="M166.394,12.273c-0.085-0.527-0.085-0.918-0.085-1.173c-0.951,1.377-2.091,1.377-2.566,1.377
		c-1.241,0-1.802-0.357-2.142-0.681c-0.51-0.51-0.748-1.206-0.748-1.887c0-0.68,0.238-1.938,1.819-2.669
		c1.054-0.476,2.566-0.476,3.399-0.476c0-0.561-0.018-0.833-0.119-1.139c-0.221-0.629-0.884-0.714-1.122-0.714
		c-0.356,0-0.73,0.152-0.952,0.476c-0.187,0.289-0.187,0.562-0.187,0.765h-2.465c0.017-0.458,0.068-1.376,0.969-2.022
		c0.782-0.561,1.785-0.697,2.601-0.697c0.714,0,2.21,0.119,3.06,1.105c0.578,0.697,0.596,1.717,0.596,2.107l0.017,3.451
		c0,0.73,0.051,1.462,0.204,2.176H166.394z M163.301,9.621c0,0.578,0.391,1.225,1.224,1.225c0.459,0,0.833-0.222,1.07-0.493
		c0.442-0.544,0.477-1.207,0.477-2.125C164.456,8.092,163.301,8.602,163.301,9.621z"/>
	<path fill="#002D3D" d="M2.362,34.191c0.034,0.544,0.374,1.173,1.428,1.173c0.901,0,1.326-0.51,1.326-1.02
		c0-0.392-0.204-0.697-1.189-0.97L2.362,32.95c-0.696-0.204-2.176-0.629-2.176-2.38c0-1.665,1.53-2.686,3.757-2.686
		c1.768,0,3.195,0.816,3.264,2.533H4.912c-0.067-0.952-0.833-1.021-1.224-1.021c-0.68,0-1.189,0.323-1.189,0.851
		c0,0.577,0.425,0.696,1.173,0.9l1.546,0.425c1.564,0.426,2.295,1.225,2.295,2.397c0,1.479-1.274,2.957-3.943,2.957
		c-1.104,0-2.158-0.237-2.94-1.054C0.067,35.279,0.017,34.6,0,34.191H2.362z"/>
	<path fill="#002D3D" d="M11.135,33.019c0,0.561,0,2.295,1.751,2.295c0.629,0,1.258-0.238,1.495-1.19h2.295
		c-0.034,0.408-0.119,1.14-0.815,1.87c-0.629,0.663-1.751,1.003-3.009,1.003c-0.731,0-2.125-0.136-3.026-1.071
		c-0.781-0.815-1.104-1.972-1.104-3.349c0-1.394,0.34-3.06,1.785-4.063c0.663-0.441,1.479-0.714,2.413-0.714
		c1.225,0,2.687,0.477,3.468,2.074c0.578,1.173,0.544,2.431,0.51,3.145H11.135z M14.33,31.437c0-0.391-0.034-1.921-1.496-1.921
		c-1.104,0-1.563,0.918-1.614,1.921H14.33z"/>
	<path fill="#002D3D" d="M23.714,36.673c-0.085-0.526-0.085-0.918-0.085-1.173c-0.951,1.377-2.091,1.377-2.566,1.377
		c-1.241,0-1.802-0.356-2.142-0.68c-0.51-0.51-0.748-1.207-0.748-1.887s0.238-1.938,1.819-2.669
		c1.054-0.476,2.566-0.476,3.399-0.476c0-0.562-0.018-0.833-0.119-1.14c-0.221-0.629-0.884-0.714-1.122-0.714
		c-0.356,0-0.73,0.153-0.952,0.477c-0.187,0.289-0.187,0.561-0.187,0.765h-2.465c0.017-0.459,0.068-1.377,0.969-2.022
		c0.782-0.562,1.785-0.697,2.601-0.697c0.714,0,2.21,0.119,3.06,1.104c0.578,0.697,0.596,1.717,0.596,2.108l0.017,3.45
		c0,0.731,0.051,1.462,0.204,2.176H23.714z M20.621,34.021c0,0.578,0.391,1.224,1.224,1.224c0.459,0,0.833-0.221,1.07-0.493
		c0.442-0.544,0.477-1.207,0.477-2.124C21.776,32.491,20.621,33.001,20.621,34.021z"/>
	<path fill="#002D3D" d="M28.067,29.704c0-0.544-0.034-1.071-0.085-1.615h2.431l0.085,1.104c0.271-0.373,0.935-1.291,2.651-1.291
		c1.972,0,2.533,1.206,2.703,1.614c0.714-1.377,1.869-1.598,2.754-1.598c1.733,0,2.431,1.037,2.617,1.377
		c0.459,0.748,0.425,1.785,0.425,2.532v4.845h-2.532v-5.048c0-0.918-0.137-1.938-1.445-1.938c-1.513,0-1.547,1.411-1.547,2.686
		v4.301h-2.532v-5.1c0-0.662-0.018-1.887-1.411-1.887c-1.581,0-1.581,1.36-1.581,1.938v5.048h-2.532V29.704z"/>
	<path fill="#002D3D" d="M45.814,34.191c0.034,0.544,0.374,1.173,1.428,1.173c0.901,0,1.326-0.51,1.326-1.02
		c0-0.392-0.204-0.697-1.189-0.97l-1.564-0.425c-0.696-0.204-2.176-0.629-2.176-2.38c0-1.665,1.53-2.686,3.757-2.686
		c1.768,0,3.195,0.816,3.264,2.533h-2.295c-0.067-0.952-0.833-1.021-1.224-1.021c-0.68,0-1.19,0.323-1.19,0.851
		c0,0.577,0.426,0.696,1.174,0.9l1.547,0.425c1.563,0.426,2.294,1.225,2.294,2.397c0,1.479-1.274,2.957-3.943,2.957
		c-1.104,0-2.159-0.237-2.94-1.054c-0.562-0.595-0.612-1.274-0.629-1.683H45.814z"/>
	<path fill="#002D3D" d="M57.612,36.554c-0.815,0.222-1.547,0.272-1.955,0.272c-2.532,0-2.532-1.598-2.532-2.312v-4.709h-1.649
		V28.14h1.649v-1.683l2.499-0.918v2.601h2.039v1.666h-2.039v3.876c0.017,0.781,0.017,1.274,1.139,1.274
		c0.374,0,0.544-0.017,0.85-0.051V36.554z"/>
	<path fill="#002D3D" d="M59.176,30.196c0-0.407-0.067-1.648-0.118-2.142h2.362l0.051,1.649c0.323-0.731,0.884-1.769,2.924-1.666
		v2.261c-2.55-0.238-2.702,1.07-2.702,2.142v4.232h-2.517V30.196z"/>
	<path fill="#002D3D" d="M67.813,33.019c0,0.561,0,2.295,1.751,2.295c0.629,0,1.258-0.238,1.495-1.19h2.295
		c-0.034,0.408-0.119,1.14-0.815,1.87c-0.629,0.663-1.751,1.003-3.009,1.003c-0.731,0-2.125-0.136-3.026-1.071
		c-0.781-0.815-1.104-1.972-1.104-3.349c0-1.394,0.34-3.06,1.785-4.063c0.663-0.441,1.479-0.714,2.413-0.714
		c1.225,0,2.687,0.477,3.468,2.074c0.578,1.173,0.544,2.431,0.51,3.145H67.813z M71.008,31.437c0-0.391-0.034-1.921-1.496-1.921
		c-1.104,0-1.563,0.918-1.614,1.921H71.008z"/>
	<path fill="#002D3D" d="M76.992,34.191c0.034,0.544,0.374,1.173,1.428,1.173c0.901,0,1.326-0.51,1.326-1.02
		c0-0.392-0.204-0.697-1.189-0.97l-1.564-0.425c-0.696-0.204-2.176-0.629-2.176-2.38c0-1.665,1.53-2.686,3.757-2.686
		c1.768,0,3.195,0.816,3.264,2.533h-2.295c-0.067-0.952-0.833-1.021-1.224-1.021c-0.68,0-1.19,0.323-1.19,0.851
		c0,0.577,0.426,0.696,1.174,0.9l1.547,0.425c1.563,0.426,2.294,1.225,2.294,2.397c0,1.479-1.274,2.957-3.943,2.957
		c-1.104,0-2.159-0.237-2.94-1.054c-0.562-0.595-0.612-1.274-0.629-1.683H76.992z"/>
	<path fill="#002D3D" d="M85.492,34.191c0.034,0.544,0.374,1.173,1.428,1.173c0.901,0,1.326-0.51,1.326-1.02
		c0-0.392-0.204-0.697-1.189-0.97l-1.564-0.425c-0.696-0.204-2.176-0.629-2.176-2.38c0-1.665,1.53-2.686,3.757-2.686
		c1.768,0,3.195,0.816,3.264,2.533h-2.295c-0.067-0.952-0.833-1.021-1.224-1.021c-0.68,0-1.19,0.323-1.19,0.851
		c0,0.577,0.426,0.696,1.174,0.9l1.547,0.425c1.563,0.426,2.294,1.225,2.294,2.397c0,1.479-1.274,2.957-3.943,2.957
		c-1.104,0-2.159-0.237-2.94-1.054c-0.562-0.595-0.612-1.274-0.629-1.683H85.492z"/>
	<path fill="#002D3D" d="M97.137,29.874h-1.274v-1.785h1.274v-1.173c0-1.513,0.511-2.736,2.958-2.736c0.17,0,0.646,0,1.36,0.085
		v1.751c-0.255-0.034-0.323-0.052-0.527-0.052c-1.292,0-1.292,0.681-1.292,1.122v1.003h1.598v1.785h-1.598v6.799h-2.499V29.874z"/>
	<path fill="#002D3D" d="M106.674,27.885c3.11,0,4.454,2.108,4.454,4.505c0,2.414-1.395,4.59-4.505,4.59
		c-2.448,0-4.386-1.514-4.386-4.522C102.237,30.384,103.291,27.885,106.674,27.885z M106.708,35.229
		c1.104,0,1.853-0.663,1.853-2.941c0-1.139-0.221-2.72-1.887-2.72c-1.836,0-1.853,2.125-1.853,2.907
		C104.821,34.395,105.467,35.229,106.708,35.229z"/>
	<path fill="#002D3D" d="M113.015,30.196c0-0.407-0.067-1.648-0.118-2.142h2.362l0.051,1.649c0.323-0.731,0.884-1.769,2.924-1.666
		v2.261c-2.55-0.238-2.702,1.07-2.702,2.142v4.232h-2.517V30.196z"/>
	<path fill="#002D3D" d="M123.521,34.089v-2.294l4.76-6.986h2.533l-0.018,7.326h1.615v1.954h-1.615v2.584h-2.516v-2.584H123.521z
		 M125.425,32.186h2.992v-3.128c0-0.152,0.017-1.003,0.033-1.309L125.425,32.186z"/>
	<path fill="#002D3D" d="M135.744,33.749c-0.018,0.272,0.204,1.326,1.394,1.326c0.918,0,1.751-0.663,1.751-2.227
		c0-1.139-0.442-2.125-1.581-2.125s-1.428,0.918-1.513,1.189l-2.465-0.067l0.272-7.021h7.189v1.938h-4.946l-0.153,2.941
		c0.374-0.323,0.936-0.851,2.244-0.851c1.904,0,3.502,1.395,3.502,3.774c0,2.022-1.19,4.3-4.232,4.3
		c-1.241,0-2.499-0.322-3.315-1.292c-0.595-0.714-0.646-1.444-0.662-1.887H135.744z"/>
	<path fill="#002D3D" d="M149.837,28.089l1.887,5.949l1.921-5.949h2.498l-3.246,8.432l-1.037,3.416h-2.532l1.088-3.229l-3.298-8.618
		H149.837z"/>
	<path fill="#002D3D" d="M159.459,33.019c0,0.561,0,2.295,1.751,2.295c0.629,0,1.258-0.238,1.495-1.19H165
		c-0.034,0.408-0.119,1.14-0.815,1.87c-0.629,0.663-1.751,1.003-3.009,1.003c-0.731,0-2.125-0.136-3.026-1.071
		c-0.781-0.815-1.104-1.972-1.104-3.349c0-1.394,0.34-3.06,1.785-4.063c0.663-0.441,1.479-0.714,2.413-0.714
		c1.225,0,2.687,0.477,3.468,2.074c0.578,1.173,0.544,2.431,0.51,3.145H159.459z M162.654,31.437c0-0.391-0.034-1.921-1.496-1.921
		c-1.104,0-1.563,0.918-1.614,1.921H162.654z"/>
	<path fill="#002D3D" d="M172.038,36.673c-0.085-0.526-0.085-0.918-0.085-1.173c-0.951,1.377-2.091,1.377-2.566,1.377
		c-1.241,0-1.802-0.356-2.142-0.68c-0.51-0.51-0.748-1.207-0.748-1.887s0.238-1.938,1.819-2.669
		c1.054-0.476,2.566-0.476,3.399-0.476c0-0.562-0.018-0.833-0.119-1.14c-0.221-0.629-0.884-0.714-1.122-0.714
		c-0.356,0-0.73,0.153-0.952,0.477c-0.187,0.289-0.187,0.561-0.187,0.765h-2.465c0.017-0.459,0.068-1.377,0.969-2.022
		c0.782-0.562,1.785-0.697,2.601-0.697c0.714,0,2.21,0.119,3.06,1.104c0.578,0.697,0.596,1.717,0.596,2.108l0.017,3.45
		c0,0.731,0.051,1.462,0.204,2.176H172.038z M168.945,34.021c0,0.578,0.391,1.224,1.224,1.224c0.459,0,0.833-0.221,1.07-0.493
		c0.442-0.544,0.477-1.207,0.477-2.124C170.101,32.491,168.945,33.001,168.945,34.021z"/>
	<path fill="#002D3D" d="M176.34,30.196c0-0.407-0.067-1.648-0.118-2.142h2.362l0.051,1.649c0.323-0.731,0.884-1.769,2.924-1.666
		v2.261c-2.55-0.238-2.702,1.07-2.702,2.142v4.232h-2.517V30.196z"/>
	<path fill="#002D3D" d="M184.703,34.191c0.034,0.544,0.374,1.173,1.428,1.173c0.901,0,1.326-0.51,1.326-1.02
		c0-0.392-0.204-0.697-1.189-0.97l-1.564-0.425c-0.696-0.204-2.176-0.629-2.176-2.38c0-1.665,1.53-2.686,3.757-2.686
		c1.768,0,3.195,0.816,3.264,2.533h-2.295c-0.067-0.952-0.833-1.021-1.224-1.021c-0.68,0-1.19,0.323-1.19,0.851
		c0,0.577,0.426,0.696,1.174,0.9l1.547,0.425c1.563,0.426,2.294,1.225,2.294,2.397c0,1.479-1.274,2.957-3.943,2.957
		c-1.104,0-2.159-0.237-2.94-1.054c-0.562-0.595-0.612-1.274-0.629-1.683H184.703z"/>
	<path fill="#002D3D" d="M192.337,34.412h2.158v2.261h-2.158V34.412z M197.776,34.412h2.158v2.261h-2.158V34.412z M203.216,34.412
		h2.158v2.261h-2.158V34.412z"/>
	<path fill="#002D3D" d="M0.526,48.817h2.516v4.708c0.851-1.121,1.989-1.155,2.432-1.155c2.091,0,3.739,1.648,3.739,4.538
		c0,3.213-1.87,4.335-3.587,4.335c-0.441,0-1.802-0.034-2.584-1.377c-0.017,0.271-0.033,0.68-0.085,1.207H0.526V48.817z
		 M4.793,54.053c-1.853,0-1.853,2.107-1.853,2.651c0,1.955,0.833,2.89,1.972,2.89c1.734,0,1.734-2.158,1.734-2.601
		C6.646,56.313,6.612,54.053,4.793,54.053z"/>
	<path fill="#002D3D" d="M13.463,52.489v5.116c0,0.748,0,1.887,1.343,1.887c1.615,0,1.615-1.207,1.615-2.669v-4.334h2.584v5.66
		c0.034,1.853,0.051,2.073,0.051,2.295c0.017,0.237,0.034,0.391,0.068,0.629h-2.448l-0.085-1.139
		c-0.255,0.373-0.9,1.359-2.532,1.359c-1.156,0-2.108-0.527-2.584-1.156c-0.562-0.696-0.562-1.887-0.562-2.312v-5.337H13.463z"/>
	<path fill="#002D3D" d="M26.434,60.954c-0.815,0.221-1.547,0.271-1.955,0.271c-2.532,0-2.532-1.598-2.532-2.312v-4.708h-1.649
		V52.54h1.649v-1.683l2.499-0.918v2.601h2.039v1.666h-2.039v3.875c0.017,0.782,0.017,1.275,1.139,1.275
		c0.374,0,0.544-0.018,0.85-0.052V60.954z"/>
	<path fill="#002D3D" d="M37.772,60.954c-0.815,0.221-1.547,0.271-1.955,0.271c-2.532,0-2.532-1.598-2.532-2.312v-4.708h-1.649
		V52.54h1.649v-1.683l2.499-0.918v2.601h2.039v1.666h-2.039v3.875c0.017,0.782,0.017,1.275,1.139,1.275
		c0.374,0,0.544-0.018,0.85-0.052V60.954z"/>
	<path fill="#002D3D" d="M39.405,48.8h2.499v4.862c0.289-0.408,0.918-1.292,2.481-1.292c1.275,0,2.091,0.629,2.499,1.155
		c0.306,0.426,0.561,1.207,0.561,2.329v5.219h-2.499v-5.134c0-0.493,0-1.87-1.41-1.87c-0.714,0-1.615,0.408-1.615,1.751l0.018,5.253
		h-2.533V48.8z"/>
	<path fill="#002D3D" d="M49.639,48.8h2.687v2.193h-2.687V48.8z M49.724,52.472h2.517v8.602h-2.517V52.472z"/>
	<path fill="#002D3D" d="M56.2,58.591c0.034,0.544,0.374,1.173,1.428,1.173c0.901,0,1.326-0.51,1.326-1.02
		c0-0.391-0.204-0.697-1.189-0.969L56.2,57.351c-0.696-0.204-2.176-0.629-2.176-2.38c0-1.666,1.53-2.686,3.757-2.686
		c1.768,0,3.195,0.815,3.264,2.532H58.75c-0.067-0.952-0.833-1.02-1.224-1.02c-0.68,0-1.189,0.323-1.189,0.85
		c0,0.578,0.425,0.697,1.173,0.901l1.546,0.425c1.564,0.425,2.295,1.224,2.295,2.396c0,1.479-1.274,2.958-3.943,2.958
		c-1.104,0-2.158-0.238-2.94-1.054c-0.562-0.596-0.612-1.275-0.629-1.684H56.2z"/>
	<path fill="#002D3D" d="M70.039,52.489l0.067,1.224c0.782-1.377,2.21-1.394,2.618-1.394c2.227,0,3.569,1.665,3.569,4.283
		c0,2.431-1.258,4.59-3.739,4.59c-1.547,0-2.176-0.816-2.396-1.105v4.284h-2.567V52.489H70.039z M73.744,56.704
		c0-1.02-0.255-2.771-1.733-2.771c-0.816,0-1.972,0.612-1.972,2.924c0,0.51,0.017,2.686,1.87,2.686
		C73.099,59.543,73.744,58.404,73.744,56.704z"/>
	<path fill="#002D3D" d="M78.063,54.597c0-0.408-0.067-1.648-0.118-2.142h2.362l0.051,1.648c0.323-0.73,0.884-1.768,2.924-1.666
		v2.261c-2.55-0.237-2.702,1.071-2.702,2.143v4.232h-2.517V54.597z"/>
	<path fill="#002D3D" d="M88.722,52.285c3.11,0,4.454,2.107,4.454,4.504c0,2.414-1.395,4.59-4.505,4.59
		c-2.448,0-4.386-1.513-4.386-4.521C84.285,54.783,85.339,52.285,88.722,52.285z M88.756,59.628c1.104,0,1.853-0.663,1.853-2.94
		c0-1.139-0.221-2.72-1.887-2.72c-1.836,0-1.853,2.125-1.853,2.906C86.869,58.795,87.515,59.628,88.756,59.628z"/>
	<path fill="#002D3D" d="M93.924,62.671c1.139,0.051,1.139-1.02,1.139-1.462v-8.754h2.517v9.383c0,1.615-0.663,2.601-2.805,2.601
		c-0.137,0-0.477,0-0.851-0.067V62.671z M94.978,48.8h2.687v2.193h-2.687V48.8z"/>
	<path fill="#002D3D" d="M101.812,57.418c0,0.562,0,2.295,1.751,2.295c0.629,0,1.258-0.237,1.495-1.189h2.295
		c-0.034,0.408-0.119,1.139-0.815,1.869c-0.629,0.663-1.751,1.003-3.009,1.003c-0.731,0-2.125-0.136-3.026-1.07
		c-0.781-0.816-1.104-1.972-1.104-3.349c0-1.394,0.34-3.06,1.785-4.063c0.663-0.442,1.479-0.714,2.413-0.714
		c1.225,0,2.687,0.476,3.468,2.073c0.578,1.173,0.544,2.431,0.51,3.145H101.812z M105.007,55.838c0-0.392-0.034-1.921-1.496-1.921
		c-1.104,0-1.563,0.918-1.614,1.921H105.007z"/>
	<path fill="#002D3D" d="M113.779,55.531c-0.034-0.306-0.136-1.58-1.105-1.58c-1.189,0-1.325,1.802-1.325,2.736
		c0,0.476,0.051,2.006,0.629,2.635c0.238,0.255,0.493,0.289,0.68,0.289c0.272,0,1.054-0.119,1.156-1.649h2.481
		c-0.034,0.663-0.119,1.7-1.104,2.533c-0.612,0.527-1.377,0.799-2.448,0.799c-1.139,0-2.142-0.255-2.924-1.139
		c-0.748-0.867-1.088-2.006-1.088-3.383c0-3.909,2.873-4.453,4.012-4.453c1.598,0,3.484,0.884,3.502,3.212H113.779z"/>
	<path fill="#002D3D" d="M122.789,60.954c-0.815,0.221-1.547,0.271-1.955,0.271c-2.532,0-2.532-1.598-2.532-2.312v-4.708h-1.649
		V52.54h1.649v-1.683l2.499-0.918v2.601h2.039v1.666h-2.039v3.875c0.017,0.782,0.017,1.275,1.139,1.275
		c0.374,0,0.544-0.018,0.85-0.052V60.954z"/>
	<path fill="#002D3D" d="M128.994,48.8h2.687v2.193h-2.687V48.8z M129.079,52.472h2.517v8.602h-2.517V52.472z"/>
	<path fill="#002D3D" d="M135.556,58.591c0.034,0.544,0.374,1.173,1.428,1.173c0.901,0,1.326-0.51,1.326-1.02
		c0-0.391-0.204-0.697-1.189-0.969l-1.564-0.425c-0.696-0.204-2.176-0.629-2.176-2.38c0-1.666,1.53-2.686,3.757-2.686
		c1.768,0,3.195,0.815,3.264,2.532h-2.295c-0.067-0.952-0.833-1.02-1.224-1.02c-0.68,0-1.189,0.323-1.189,0.85
		c0,0.578,0.425,0.697,1.173,0.901l1.546,0.425c1.564,0.425,2.295,1.224,2.295,2.396c0,1.479-1.274,2.958-3.943,2.958
		c-1.104,0-2.158-0.238-2.94-1.054c-0.562-0.596-0.612-1.275-0.629-1.684H135.556z"/>
	<path fill="#002D3D" d="M148.782,58.591c0.034,0.544,0.374,1.173,1.428,1.173c0.901,0,1.326-0.51,1.326-1.02
		c0-0.391-0.204-0.697-1.189-0.969l-1.564-0.425c-0.696-0.204-2.176-0.629-2.176-2.38c0-1.666,1.53-2.686,3.757-2.686
		c1.768,0,3.195,0.815,3.264,2.532h-2.295c-0.067-0.952-0.833-1.02-1.224-1.02c-0.68,0-1.189,0.323-1.189,0.85
		c0,0.578,0.425,0.697,1.173,0.901l1.546,0.425c1.564,0.425,2.295,1.224,2.295,2.396c0,1.479-1.274,2.958-3.943,2.958
		c-1.104,0-2.158-0.238-2.94-1.054c-0.562-0.596-0.612-1.275-0.629-1.684H148.782z"/>
	<path fill="#002D3D" d="M157.895,52.489l0.067,1.224c0.782-1.377,2.21-1.394,2.618-1.394c2.227,0,3.569,1.665,3.569,4.283
		c0,2.431-1.258,4.59-3.739,4.59c-1.547,0-2.176-0.816-2.396-1.105v4.284h-2.567V52.489H157.895z M161.6,56.704
		c0-1.02-0.255-2.771-1.733-2.771c-0.816,0-1.972,0.612-1.972,2.924c0,0.51,0.017,2.686,1.87,2.686
		C160.954,59.543,161.6,58.404,161.6,56.704z"/>
	<path fill="#002D3D" d="M167.941,57.418c0,0.562,0,2.295,1.751,2.295c0.629,0,1.258-0.237,1.495-1.189h2.295
		c-0.034,0.408-0.119,1.139-0.815,1.869c-0.629,0.663-1.751,1.003-3.009,1.003c-0.731,0-2.125-0.136-3.026-1.07
		c-0.781-0.816-1.104-1.972-1.104-3.349c0-1.394,0.34-3.06,1.785-4.063c0.663-0.442,1.479-0.714,2.413-0.714
		c1.225,0,2.687,0.476,3.468,2.073c0.578,1.173,0.544,2.431,0.51,3.145H167.941z M171.137,55.838c0-0.392-0.034-1.921-1.496-1.921
		c-1.104,0-1.563,0.918-1.614,1.921H171.137z"/>
	<path fill="#002D3D" d="M179.909,55.531c-0.034-0.306-0.136-1.58-1.105-1.58c-1.189,0-1.325,1.802-1.325,2.736
		c0,0.476,0.051,2.006,0.629,2.635c0.237,0.255,0.493,0.289,0.68,0.289c0.272,0,1.054-0.119,1.156-1.649h2.481
		c-0.034,0.663-0.119,1.7-1.104,2.533c-0.612,0.527-1.377,0.799-2.448,0.799c-1.139,0-2.142-0.255-2.924-1.139
		c-0.748-0.867-1.088-2.006-1.088-3.383c0-3.909,2.873-4.453,4.012-4.453c1.598,0,3.484,0.884,3.502,3.212H179.909z"/>
	<path fill="#002D3D" d="M183.785,48.8h2.687v2.193h-2.687V48.8z M183.87,52.472h2.517v8.602h-2.517V52.472z"/>
	<path fill="#002D3D" d="M193.747,61.073c-0.086-0.527-0.086-0.918-0.086-1.173c-0.951,1.377-2.09,1.377-2.566,1.377
		c-1.241,0-1.802-0.357-2.142-0.681c-0.51-0.51-0.748-1.206-0.748-1.887c0-0.68,0.238-1.938,1.819-2.669
		c1.054-0.476,2.566-0.476,3.399-0.476c0-0.561-0.018-0.833-0.119-1.139c-0.221-0.629-0.884-0.714-1.122-0.714
		c-0.356,0-0.73,0.152-0.952,0.476c-0.187,0.289-0.187,0.562-0.187,0.765h-2.465c0.017-0.458,0.068-1.376,0.969-2.022
		c0.782-0.561,1.785-0.697,2.601-0.697c0.714,0,2.21,0.119,3.06,1.105c0.578,0.697,0.596,1.717,0.596,2.107l0.017,3.451
		c0,0.73,0.051,1.462,0.204,2.176H193.747z M190.653,58.421c0,0.578,0.391,1.225,1.224,1.225c0.459,0,0.833-0.222,1.07-0.493
		c0.442-0.544,0.477-1.207,0.477-2.125C191.809,56.892,190.653,57.401,190.653,58.421z"/>
	<path fill="#002D3D" d="M198.048,48.783h2.517v12.29h-2.517V48.783z"/>
	<path fill="#002D3D" d="M202.928,58.812h2.159v2.261h-2.159V58.812z"/>
	<path fill="#002D3D" d="M2.787,81.546c0,0.578-0.033,2.329,2.228,2.329c1.428,0,2.328-0.68,2.328-1.717
		c0-1.088-0.765-1.274-2.328-1.648c-2.924-0.731-4.521-1.599-4.521-3.723c0-2.023,1.444-3.808,4.861-3.808
		c1.274,0,2.787,0.289,3.705,1.444c0.697,0.884,0.697,1.87,0.697,2.278H7.224c-0.033-0.426-0.17-1.87-1.988-1.87
		c-1.224,0-2.022,0.663-2.022,1.666c0,1.139,0.9,1.343,2.668,1.784c2.125,0.511,4.216,1.088,4.216,3.485
		c0,2.209-1.836,3.994-5.235,3.994c-4.709,0-4.742-3.025-4.76-4.216H2.787z"/>
	<path fill="#002D3D" d="M12.019,73.2h2.499v4.861c0.289-0.408,0.918-1.292,2.481-1.292c1.275,0,2.091,0.629,2.499,1.156
		c0.306,0.425,0.561,1.207,0.561,2.329v5.218H17.56V80.34c0-0.493,0-1.87-1.41-1.87c-0.714,0-1.615,0.408-1.615,1.751l0.018,5.252
		h-2.533V73.2z"/>
	<path fill="#002D3D" d="M24.36,81.818c0,0.561,0,2.295,1.751,2.295c0.629,0,1.258-0.238,1.495-1.19h2.295
		c-0.034,0.408-0.119,1.14-0.815,1.87c-0.629,0.663-1.751,1.003-3.009,1.003c-0.731,0-2.125-0.136-3.026-1.071
		c-0.781-0.815-1.104-1.972-1.104-3.349c0-1.394,0.34-3.06,1.785-4.063c0.663-0.441,1.479-0.714,2.413-0.714
		c1.225,0,2.687,0.477,3.468,2.074c0.578,1.173,0.544,2.431,0.51,3.145H24.36z M27.556,80.237c0-0.391-0.034-1.921-1.496-1.921
		c-1.104,0-1.563,0.918-1.614,1.921H27.556z"/>
	<path fill="#002D3D" d="M32.555,73.2h2.481l-1.904,4.198h-1.784L32.555,73.2z"/>
	<path fill="#002D3D" d="M38.266,82.991c0.034,0.544,0.374,1.173,1.428,1.173c0.901,0,1.326-0.51,1.326-1.02
		c0-0.392-0.204-0.697-1.189-0.97l-1.564-0.425c-0.696-0.204-2.176-0.629-2.176-2.38c0-1.665,1.53-2.686,3.757-2.686
		c1.768,0,3.195,0.816,3.264,2.533h-2.295c-0.067-0.952-0.833-1.021-1.224-1.021c-0.68,0-1.19,0.323-1.19,0.851
		c0,0.577,0.426,0.696,1.174,0.9l1.547,0.425c1.563,0.426,2.294,1.225,2.294,2.397c0,1.479-1.274,2.957-3.943,2.957
		c-1.104,0-2.159-0.237-2.94-1.054c-0.562-0.595-0.612-1.274-0.629-1.683H38.266z"/>
	<path fill="#002D3D" d="M54.28,79.932c-0.034-0.307-0.136-1.581-1.105-1.581c-1.189,0-1.325,1.802-1.325,2.736
		c0,0.477,0.051,2.006,0.629,2.635c0.237,0.255,0.493,0.289,0.68,0.289c0.272,0,1.054-0.119,1.156-1.648h2.481
		c-0.034,0.663-0.119,1.7-1.104,2.532c-0.612,0.527-1.377,0.8-2.448,0.8c-1.139,0-2.142-0.256-2.924-1.14
		c-0.748-0.866-1.088-2.006-1.088-3.383c0-3.909,2.873-4.453,4.012-4.453c1.598,0,3.484,0.884,3.502,3.213H54.28z"/>
	<path fill="#002D3D" d="M58.241,78.996c0-0.407-0.067-1.648-0.118-2.142h2.362l0.051,1.649c0.323-0.731,0.884-1.769,2.924-1.666
		v2.261c-2.55-0.238-2.702,1.07-2.702,2.142v4.232h-2.517V78.996z"/>
	<path fill="#002D3D" d="M66.877,81.818c0,0.561,0,2.295,1.751,2.295c0.629,0,1.258-0.238,1.495-1.19h2.295
		c-0.034,0.408-0.119,1.14-0.815,1.87c-0.629,0.663-1.751,1.003-3.009,1.003c-0.731,0-2.125-0.136-3.026-1.071
		c-0.781-0.815-1.104-1.972-1.104-3.349c0-1.394,0.34-3.06,1.785-4.063c0.663-0.441,1.479-0.714,2.413-0.714
		c1.225,0,2.687,0.477,3.468,2.074c0.578,1.173,0.544,2.431,0.51,3.145H66.877z M70.072,80.237c0-0.391-0.034-1.921-1.496-1.921
		c-1.104,0-1.563,0.918-1.614,1.921H70.072z"/>
	<path fill="#002D3D" d="M79.456,85.473c-0.085-0.526-0.085-0.918-0.085-1.173c-0.951,1.377-2.091,1.377-2.566,1.377
		c-1.241,0-1.802-0.356-2.142-0.68c-0.51-0.51-0.748-1.207-0.748-1.887s0.238-1.938,1.819-2.669
		c1.054-0.476,2.566-0.476,3.399-0.476c0-0.562-0.018-0.833-0.119-1.14c-0.221-0.629-0.884-0.714-1.122-0.714
		c-0.356,0-0.73,0.153-0.952,0.477c-0.187,0.289-0.187,0.561-0.187,0.765h-2.465c0.017-0.459,0.068-1.377,0.969-2.022
		c0.782-0.562,1.785-0.697,2.601-0.697c0.714,0,2.21,0.119,3.06,1.104c0.578,0.697,0.596,1.717,0.596,2.108l0.017,3.45
		c0,0.731,0.051,1.462,0.204,2.176H79.456z M76.363,82.821c0,0.578,0.391,1.224,1.224,1.224c0.459,0,0.833-0.221,1.07-0.493
		c0.442-0.544,0.477-1.207,0.477-2.124C77.519,81.291,76.363,81.801,76.363,82.821z"/>
	<path fill="#002D3D" d="M88.807,85.354c-0.815,0.222-1.547,0.272-1.955,0.272c-2.532,0-2.532-1.598-2.532-2.312v-4.709H82.67
		v-1.666h1.649v-1.683l2.499-0.918v2.601h2.039v1.666h-2.039v3.876c0.017,0.781,0.017,1.274,1.139,1.274
		c0.374,0,0.544-0.017,0.85-0.051V85.354z"/>
	<path fill="#002D3D" d="M90.286,73.2h2.687v2.192h-2.687V73.2z M90.371,76.872h2.517v8.601h-2.517V76.872z"/>
	<path fill="#002D3D" d="M95.131,78.419c0-0.034,0-0.97-0.051-1.564h2.414l0.067,1.292c0.238-0.391,0.918-1.496,2.788-1.496
		c1.683,0,2.396,1.021,2.618,1.615c0.187,0.527,0.237,0.969,0.237,2.566v4.641h-2.566v-5.337c0-0.357,0-0.663-0.136-0.936
		c-0.188-0.374-0.578-0.73-1.225-0.73c-0.544,0-1.036,0.255-1.309,0.663c-0.153,0.221-0.306,0.646-0.306,1.309v5.031h-2.533V78.419z
		"/>
	<path fill="#002D3D" d="M113.626,76.923c-0.068,0.68-0.119,1.258-0.119,2.125v6.34c0,3.162-2.635,3.468-4.283,3.468
		c-1.224,0-3.621-0.153-3.773-2.754h2.413c0.034,0.255,0.153,1.19,1.496,1.19c0.748,0,1.394-0.357,1.563-1.122
		c0.103-0.425,0.103-0.731,0.119-2.04c-0.799,1.054-1.699,1.173-2.312,1.173c-2.465,0-3.621-2.142-3.621-4.216
		c0-2.176,1.207-4.249,3.672-4.249c1.564,0,2.142,0.85,2.397,1.224l0.085-1.139H113.626z M109.309,83.586
		c1.768,0,1.768-2.073,1.768-2.447c0-0.97-0.187-2.618-1.717-2.618c-0.952,0-1.733,0.731-1.733,2.566
		C107.626,81.513,107.626,83.586,109.309,83.586z"/>
	<path fill="#002D3D" d="M125.747,85.473c-0.085-0.526-0.085-0.918-0.085-1.173c-0.951,1.377-2.091,1.377-2.566,1.377
		c-1.241,0-1.802-0.356-2.142-0.68c-0.51-0.51-0.748-1.207-0.748-1.887s0.238-1.938,1.819-2.669
		c1.054-0.476,2.566-0.476,3.399-0.476c0-0.562-0.018-0.833-0.119-1.14c-0.221-0.629-0.884-0.714-1.122-0.714
		c-0.356,0-0.73,0.153-0.952,0.477c-0.187,0.289-0.187,0.561-0.187,0.765h-2.465c0.017-0.459,0.068-1.377,0.969-2.022
		c0.782-0.562,1.785-0.697,2.601-0.697c0.714,0,2.21,0.119,3.06,1.104c0.578,0.697,0.596,1.717,0.596,2.108l0.017,3.45
		c0,0.731,0.051,1.462,0.204,2.176H125.747z M122.654,82.821c0,0.578,0.391,1.224,1.224,1.224c0.459,0,0.833-0.221,1.07-0.493
		c0.442-0.544,0.477-1.207,0.477-2.124C123.81,81.291,122.654,81.801,122.654,82.821z"/>
	<path fill="#002D3D" d="M4.657,101.085c3.11,0,4.454,2.107,4.454,4.504c0,2.414-1.395,4.59-4.505,4.59
		c-2.448,0-4.386-1.513-4.386-4.521C0.221,103.583,1.274,101.085,4.657,101.085z M4.691,108.428c1.104,0,1.853-0.663,1.853-2.94
		c0-1.139-0.221-2.72-1.887-2.72c-1.836,0-1.853,2.125-1.853,2.906C2.805,107.595,3.45,108.428,4.691,108.428z"/>
	<path fill="#002D3D" d="M11.032,102.818c0-0.034,0-0.969-0.051-1.563h2.414l0.067,1.292c0.238-0.392,0.918-1.496,2.788-1.496
		c1.683,0,2.396,1.02,2.617,1.614c0.188,0.527,0.238,0.97,0.238,2.567v4.641H16.54v-5.338c0-0.356,0-0.663-0.136-0.935
		c-0.188-0.374-0.578-0.731-1.225-0.731c-0.544,0-1.036,0.255-1.309,0.663c-0.153,0.221-0.306,0.646-0.306,1.309v5.032h-2.533
		V102.818z"/>
	<path fill="#002D3D" d="M23.408,106.218c0,0.562,0,2.295,1.751,2.295c0.629,0,1.258-0.237,1.495-1.189h2.295
		c-0.034,0.408-0.119,1.139-0.815,1.869c-0.629,0.663-1.751,1.003-3.009,1.003c-0.731,0-2.125-0.136-3.026-1.07
		c-0.781-0.816-1.104-1.972-1.104-3.349c0-1.394,0.34-3.06,1.785-4.063c0.663-0.442,1.479-0.714,2.413-0.714
		c1.225,0,2.687,0.476,3.468,2.073c0.578,1.173,0.544,2.431,0.51,3.145H23.408z M26.604,104.638c0-0.392-0.034-1.921-1.496-1.921
		c-1.104,0-1.563,0.918-1.614,1.921H26.604z"/>
	<path fill="#002D3D" d="M30.48,104.416h4.216v1.921H30.48V104.416z"/>
	<path fill="#002D3D" d="M40.544,101.085c3.11,0,4.454,2.107,4.454,4.504c0,2.414-1.395,4.59-4.505,4.59
		c-2.448,0-4.386-1.513-4.386-4.521C36.107,103.583,37.161,101.085,40.544,101.085z M40.578,108.428c1.104,0,1.853-0.663,1.853-2.94
		c0-1.139-0.221-2.72-1.887-2.72c-1.836,0-1.853,2.125-1.853,2.906C38.691,107.595,39.337,108.428,40.578,108.428z"/>
	<path fill="#002D3D" d="M47.055,103.073H45.78v-1.784h1.274v-1.173c0-1.514,0.511-2.737,2.958-2.737c0.17,0,0.646,0,1.36,0.085
		v1.751c-0.255-0.034-0.323-0.051-0.527-0.051c-1.292,0-1.292,0.68-1.292,1.122v1.003h1.598v1.784h-1.598v6.8h-2.499V103.073z"/>
	<path fill="#002D3D" d="M52.189,104.416h4.216v1.921h-4.216V104.416z"/>
	<path fill="#002D3D" d="M63.358,109.873c-0.086-0.527-0.086-0.918-0.086-1.173c-0.951,1.377-2.09,1.377-2.566,1.377
		c-1.241,0-1.802-0.357-2.142-0.681c-0.51-0.51-0.748-1.206-0.748-1.887c0-0.68,0.238-1.938,1.819-2.669
		c1.054-0.476,2.566-0.476,3.399-0.476c0-0.561-0.018-0.833-0.119-1.139c-0.221-0.629-0.884-0.714-1.122-0.714
		c-0.356,0-0.73,0.152-0.952,0.476c-0.187,0.289-0.187,0.562-0.187,0.765H58.19c0.017-0.458,0.068-1.376,0.969-2.022
		c0.782-0.561,1.785-0.697,2.601-0.697c0.714,0,2.21,0.119,3.06,1.105c0.578,0.697,0.596,1.717,0.596,2.107l0.017,3.451
		c0,0.73,0.051,1.462,0.204,2.176H63.358z M60.265,107.221c0,0.578,0.391,1.225,1.224,1.225c0.459,0,0.833-0.222,1.07-0.493
		c0.442-0.544,0.477-1.207,0.477-2.125C61.42,105.691,60.265,106.201,60.265,107.221z"/>
	<path fill="#002D3D" d="M67.302,104.416h4.216v1.921h-4.216V104.416z"/>
	<path fill="#002D3D" d="M73.354,97.583h2.499v7.241l2.601-3.587h2.839l-2.94,3.74l3.127,4.896h-2.975l-2.651-4.675v4.675h-2.499
		V97.583z"/>
	<path fill="#002D3D" d="M82.687,97.6h2.687v2.193h-2.687V97.6z M82.771,101.271h2.517v8.602h-2.517V101.271z"/>
	<path fill="#002D3D" d="M87.531,102.818c0-0.034,0-0.969-0.051-1.563h2.414l0.067,1.292c0.238-0.392,0.918-1.496,2.788-1.496
		c1.683,0,2.396,1.02,2.618,1.614c0.187,0.527,0.237,0.97,0.237,2.567v4.641h-2.566v-5.338c0-0.356,0-0.663-0.136-0.935
		c-0.188-0.374-0.578-0.731-1.225-0.731c-0.544,0-1.036,0.255-1.309,0.663c-0.153,0.221-0.306,0.646-0.306,1.309v5.032h-2.533
		V102.818z"/>
	<path fill="#002D3D" d="M103.563,97.6h2.533v10.879c0,0.511,0.033,1.071,0.067,1.395h-2.55l-0.067-1.241
		c-0.17,0.306-0.34,0.629-0.867,0.969c-0.629,0.408-1.292,0.442-1.666,0.442c-2.295,0-3.654-1.581-3.654-4.267
		c0-2.839,1.547-4.606,3.79-4.606c1.547,0,2.193,0.866,2.414,1.173V97.6z M101.642,108.411c0.731,0,1.326-0.442,1.598-0.969
		c0.374-0.714,0.408-1.599,0.408-2.023c0-1.683-0.73-2.601-1.87-2.601c-1.683,0-1.869,2.022-1.869,2.89
		C99.908,107.136,100.384,108.411,101.642,108.411z"/>
	<path fill="#002D3D" d="M114.646,101.289l1.581,6.476l1.818-6.476h2.771l1.802,6.476l1.684-6.476h2.498l-2.94,8.584h-2.736
		l-1.769-6.357l-1.802,6.357h-2.771l-2.805-8.584H114.646z"/>
	<path fill="#002D3D" d="M130.134,106.218c0,0.562,0,2.295,1.751,2.295c0.629,0,1.258-0.237,1.495-1.189h2.295
		c-0.034,0.408-0.119,1.139-0.815,1.869c-0.629,0.663-1.751,1.003-3.009,1.003c-0.731,0-2.125-0.136-3.026-1.07
		c-0.781-0.816-1.104-1.972-1.104-3.349c0-1.394,0.34-3.06,1.785-4.063c0.663-0.442,1.479-0.714,2.413-0.714
		c1.225,0,2.687,0.476,3.468,2.073c0.578,1.173,0.544,2.431,0.51,3.145H130.134z M133.329,104.638c0-0.392-0.034-1.921-1.496-1.921
		c-1.104,0-1.563,0.918-1.614,1.921H133.329z"/>
	<path fill="#002D3D" d="M143.24,97.6h2.533v10.879c0,0.511,0.033,1.071,0.067,1.395h-2.55l-0.067-1.241
		c-0.17,0.306-0.34,0.629-0.867,0.969c-0.629,0.408-1.292,0.442-1.666,0.442c-2.295,0-3.654-1.581-3.654-4.267
		c0-2.839,1.547-4.606,3.79-4.606c1.547,0,2.193,0.866,2.414,1.173V97.6z M141.319,108.411c0.731,0,1.326-0.442,1.598-0.969
		c0.374-0.714,0.408-1.599,0.408-2.023c0-1.683-0.73-2.601-1.87-2.601c-1.683,0-1.869,2.022-1.869,2.89
		C139.586,107.136,140.062,108.411,141.319,108.411z"/>
	<path fill="#002D3D" d="M153.627,97.6h2.533v10.879c0,0.511,0.033,1.071,0.067,1.395h-2.55l-0.067-1.241
		c-0.17,0.306-0.34,0.629-0.867,0.969c-0.629,0.408-1.292,0.442-1.666,0.442c-2.295,0-3.654-1.581-3.654-4.267
		c0-2.839,1.547-4.606,3.79-4.606c1.547,0,2.193,0.866,2.414,1.173V97.6z M151.706,108.411c0.731,0,1.326-0.442,1.598-0.969
		c0.374-0.714,0.408-1.599,0.408-2.023c0-1.683-0.73-2.601-1.87-2.601c-1.683,0-1.869,2.022-1.869,2.89
		C149.973,107.136,150.448,108.411,151.706,108.411z"/>
	<path fill="#002D3D" d="M158.251,97.6h2.687v2.193h-2.687V97.6z M158.336,101.271h2.517v8.602h-2.517V101.271z"/>
	<path fill="#002D3D" d="M163.096,102.818c0-0.034,0-0.969-0.051-1.563h2.414l0.067,1.292c0.238-0.392,0.918-1.496,2.788-1.496
		c1.683,0,2.396,1.02,2.618,1.614c0.187,0.527,0.237,0.97,0.237,2.567v4.641h-2.566v-5.338c0-0.356,0-0.663-0.136-0.935
		c-0.188-0.374-0.578-0.731-1.225-0.731c-0.544,0-1.036,0.255-1.309,0.663c-0.153,0.221-0.306,0.646-0.306,1.309v5.032h-2.533
		V102.818z"/>
	<path fill="#002D3D" d="M181.591,101.322c-0.068,0.681-0.119,1.258-0.119,2.125v6.341c0,3.161-2.635,3.468-4.283,3.468
		c-1.224,0-3.621-0.153-3.773-2.754h2.413c0.034,0.255,0.153,1.189,1.496,1.189c0.748,0,1.394-0.356,1.563-1.122
		c0.103-0.425,0.103-0.73,0.119-2.039c-0.799,1.054-1.699,1.173-2.312,1.173c-2.465,0-3.621-2.143-3.621-4.216
		c0-2.176,1.207-4.25,3.672-4.25c1.564,0,2.142,0.851,2.397,1.225l0.085-1.14H181.591z M177.273,107.986
		c1.768,0,1.768-2.074,1.768-2.448c0-0.969-0.187-2.617-1.717-2.617c-0.952,0-1.733,0.73-1.733,2.566
		C175.591,105.912,175.591,107.986,177.273,107.986z"/>
	<path fill="#002D3D" d="M6.289,122h2.533v10.879c0,0.511,0.033,1.071,0.067,1.395H6.34l-0.067-1.241
		c-0.17,0.306-0.34,0.629-0.867,0.969c-0.629,0.408-1.292,0.442-1.666,0.442c-2.295,0-3.654-1.581-3.654-4.267
		c0-2.839,1.547-4.606,3.79-4.606c1.547,0,2.193,0.866,2.414,1.173V122z M4.368,132.812c0.731,0,1.326-0.442,1.598-0.969
		c0.374-0.714,0.408-1.599,0.408-2.023c0-1.683-0.73-2.601-1.87-2.601c-1.683,0-1.869,2.022-1.869,2.89
		C2.635,131.536,3.11,132.812,4.368,132.812z"/>
	<path fill="#002D3D" d="M10.998,127.797c0-0.408-0.067-1.648-0.118-2.142h2.362l0.051,1.648c0.323-0.73,0.884-1.768,2.924-1.666
		v2.261c-2.55-0.237-2.702,1.071-2.702,2.143v4.232h-2.517V127.797z"/>
	<path fill="#002D3D" d="M19.635,130.618c0,0.562,0,2.295,1.751,2.295c0.629,0,1.258-0.237,1.495-1.189h2.295
		c-0.034,0.408-0.119,1.139-0.815,1.869c-0.629,0.663-1.751,1.003-3.009,1.003c-0.731,0-2.125-0.136-3.026-1.07
		c-0.781-0.816-1.104-1.972-1.104-3.349c0-1.394,0.34-3.06,1.785-4.063c0.663-0.442,1.479-0.714,2.413-0.714
		c1.225,0,2.687,0.476,3.468,2.073c0.578,1.173,0.544,2.431,0.51,3.145H19.635z M22.83,129.038c0-0.392-0.034-1.921-1.496-1.921
		c-1.104,0-1.563,0.918-1.614,1.921H22.83z"/>
	<path fill="#002D3D" d="M28.814,131.791c0.034,0.544,0.374,1.173,1.428,1.173c0.901,0,1.326-0.51,1.326-1.02
		c0-0.391-0.204-0.697-1.189-0.969l-1.564-0.425c-0.696-0.204-2.176-0.629-2.176-2.38c0-1.666,1.53-2.686,3.757-2.686
		c1.768,0,3.195,0.815,3.264,2.532h-2.295c-0.067-0.952-0.833-1.02-1.224-1.02c-0.68,0-1.19,0.323-1.19,0.85
		c0,0.578,0.426,0.697,1.174,0.901l1.547,0.425c1.563,0.425,2.294,1.224,2.294,2.396c0,1.479-1.274,2.958-3.943,2.958
		c-1.104,0-2.159-0.238-2.94-1.054c-0.562-0.596-0.612-1.275-0.629-1.684H28.814z"/>
	<path fill="#002D3D" d="M37.314,131.791c0.034,0.544,0.374,1.173,1.428,1.173c0.901,0,1.326-0.51,1.326-1.02
		c0-0.391-0.204-0.697-1.189-0.969l-1.564-0.425c-0.696-0.204-2.176-0.629-2.176-2.38c0-1.666,1.53-2.686,3.757-2.686
		c1.768,0,3.195,0.815,3.264,2.532h-2.295c-0.067-0.952-0.833-1.02-1.224-1.02c-0.68,0-1.19,0.323-1.19,0.85
		c0,0.578,0.426,0.697,1.174,0.901l1.547,0.425c1.563,0.425,2.294,1.224,2.294,2.396c0,1.479-1.274,2.958-3.943,2.958
		c-1.104,0-2.159-0.238-2.94-1.054c-0.562-0.596-0.612-1.275-0.629-1.684H37.314z"/>
	<path fill="#002D3D" d="M48.746,127.474h-1.274v-1.784h1.274v-1.173c0-1.514,0.511-2.737,2.958-2.737c0.17,0,0.646,0,1.36,0.085
		v1.751c-0.255-0.034-0.323-0.051-0.527-0.051c-1.292,0-1.292,0.68-1.292,1.122v1.003h1.598v1.784h-1.598v6.8h-2.499V127.474z"/>
	<path fill="#002D3D" d="M58.283,125.485c3.11,0,4.454,2.107,4.454,4.504c0,2.414-1.395,4.59-4.505,4.59
		c-2.448,0-4.386-1.513-4.386-4.521C53.847,127.983,54.9,125.485,58.283,125.485z M58.317,132.828c1.104,0,1.853-0.663,1.853-2.94
		c0-1.139-0.221-2.72-1.887-2.72c-1.836,0-1.853,2.125-1.853,2.906C56.431,131.995,57.076,132.828,58.317,132.828z"/>
	<path fill="#002D3D" d="M64.624,127.797c0-0.408-0.067-1.648-0.118-2.142h2.362l0.051,1.648c0.323-0.73,0.884-1.768,2.924-1.666
		v2.261c-2.55-0.237-2.702,1.071-2.702,2.143v4.232h-2.517V127.797z"/>
	<path fill="#002D3D" d="M75.818,122h2.499v4.862c0.289-0.408,0.918-1.292,2.481-1.292c1.275,0,2.091,0.629,2.499,1.155
		c0.306,0.426,0.561,1.207,0.561,2.329v5.219h-2.499v-5.134c0-0.493,0-1.87-1.41-1.87c-0.714,0-1.615,0.408-1.615,1.751l0.018,5.253
		h-2.533V122z"/>
	<path fill="#002D3D" d="M88.16,130.618c0,0.562,0,2.295,1.751,2.295c0.629,0,1.258-0.237,1.495-1.189h2.295
		c-0.034,0.408-0.119,1.139-0.815,1.869c-0.629,0.663-1.751,1.003-3.009,1.003c-0.731,0-2.125-0.136-3.026-1.07
		c-0.781-0.816-1.104-1.972-1.104-3.349c0-1.394,0.34-3.06,1.785-4.063c0.663-0.442,1.479-0.714,2.413-0.714
		c1.225,0,2.687,0.476,3.468,2.073c0.578,1.173,0.544,2.431,0.51,3.145H88.16z M91.355,129.038c0-0.392-0.034-1.921-1.496-1.921
		c-1.104,0-1.563,0.918-1.614,1.921H91.355z"/>
	<path fill="#002D3D" d="M95.589,127.797c0-0.408-0.067-1.648-0.118-2.142h2.362l0.051,1.648c0.323-0.73,0.884-1.768,2.924-1.666
		v2.261c-2.55-0.237-2.702,1.071-2.702,2.143v4.232h-2.517V127.797z"/>
	<path fill="#002D3D" d="M108.738,130.618c0,0.562,0,2.295,1.751,2.295c0.629,0,1.258-0.237,1.495-1.189h2.295
		c-0.034,0.408-0.119,1.139-0.815,1.869c-0.629,0.663-1.751,1.003-3.009,1.003c-0.731,0-2.125-0.136-3.026-1.07
		c-0.781-0.816-1.104-1.972-1.104-3.349c0-1.394,0.34-3.06,1.785-4.063c0.663-0.442,1.479-0.714,2.413-0.714
		c1.225,0,2.687,0.476,3.468,2.073c0.578,1.173,0.544,2.431,0.51,3.145H108.738z M111.934,129.038c0-0.392-0.034-1.921-1.496-1.921
		c-1.104,0-1.563,0.918-1.614,1.921H111.934z"/>
	<path fill="#002D3D" d="M116.167,121.983h2.517v12.29h-2.517V121.983z"/>
	<path fill="#002D3D" d="M126.57,122h2.533v10.879c0,0.511,0.033,1.071,0.067,1.395h-2.55l-0.067-1.241
		c-0.17,0.306-0.34,0.629-0.867,0.969c-0.629,0.408-1.292,0.442-1.666,0.442c-2.295,0-3.654-1.581-3.654-4.267
		c0-2.839,1.547-4.606,3.79-4.606c1.547,0,2.193,0.866,2.414,1.173V122z M124.649,132.812c0.731,0,1.326-0.442,1.598-0.969
		c0.374-0.714,0.408-1.599,0.408-2.023c0-1.683-0.73-2.601-1.87-2.601c-1.683,0-1.869,2.022-1.869,2.89
		C122.916,131.536,123.392,132.812,124.649,132.812z"/>
	<path fill="#002D3D" d="M133.303,130.618c0,0.562,0,2.295,1.751,2.295c0.629,0,1.258-0.237,1.495-1.189h2.295
		c-0.034,0.408-0.119,1.139-0.815,1.869c-0.629,0.663-1.751,1.003-3.009,1.003c-0.731,0-2.125-0.136-3.026-1.07
		c-0.781-0.816-1.104-1.972-1.104-3.349c0-1.394,0.34-3.06,1.785-4.063c0.663-0.442,1.479-0.714,2.413-0.714
		c1.225,0,2.687,0.476,3.468,2.073c0.578,1.173,0.544,2.431,0.51,3.145H133.303z M136.498,129.038c0-0.392-0.034-1.921-1.496-1.921
		c-1.104,0-1.563,0.918-1.614,1.921H136.498z"/>
	<path fill="#002D3D" d="M142.482,131.791c0.034,0.544,0.374,1.173,1.428,1.173c0.901,0,1.326-0.51,1.326-1.02
		c0-0.391-0.204-0.697-1.189-0.969l-1.564-0.425c-0.696-0.204-2.176-0.629-2.176-2.38c0-1.666,1.53-2.686,3.757-2.686
		c1.768,0,3.195,0.815,3.264,2.532h-2.295c-0.067-0.952-0.833-1.02-1.224-1.02c-0.68,0-1.19,0.323-1.19,0.85
		c0,0.578,0.426,0.697,1.174,0.901l1.547,0.425c1.563,0.425,2.294,1.224,2.294,2.396c0,1.479-1.274,2.958-3.943,2.958
		c-1.104,0-2.159-0.238-2.94-1.054c-0.562-0.596-0.612-1.275-0.629-1.684H142.482z"/>
	<path fill="#002D3D" d="M154.28,134.154c-0.815,0.221-1.547,0.271-1.955,0.271c-2.532,0-2.532-1.598-2.532-2.312v-4.708h-1.649
		v-1.666h1.649v-1.683l2.499-0.918v2.601h2.039v1.666h-2.039v3.875c0.017,0.782,0.017,1.275,1.139,1.275
		c0.374,0,0.544-0.018,0.85-0.052V134.154z"/>
	<path fill="#002D3D" d="M168.5,125.723c-0.068,0.681-0.119,1.258-0.119,2.125v6.341c0,3.161-2.635,3.468-4.283,3.468
		c-1.224,0-3.621-0.153-3.773-2.754h2.413c0.034,0.255,0.153,1.189,1.496,1.189c0.748,0,1.394-0.356,1.563-1.122
		c0.103-0.425,0.103-0.73,0.119-2.039c-0.799,1.054-1.699,1.173-2.312,1.173c-2.465,0-3.621-2.143-3.621-4.216
		c0-2.176,1.207-4.25,3.672-4.25c1.564,0,2.142,0.851,2.396,1.225l0.086-1.14H168.5z M164.183,132.387
		c1.768,0,1.768-2.074,1.768-2.448c0-0.969-0.187-2.617-1.717-2.617c-0.952,0-1.733,0.73-1.733,2.566
		C162.5,130.312,162.5,132.387,164.183,132.387z"/>
	<path fill="#002D3D" d="M170.745,127.797c0-0.408-0.067-1.648-0.118-2.142h2.362l0.051,1.648c0.323-0.73,0.884-1.768,2.924-1.666
		v2.261c-2.55-0.237-2.702,1.071-2.702,2.143v4.232h-2.517V127.797z"/>
	<path fill="#002D3D" d="M182.509,134.273c-0.086-0.527-0.086-0.918-0.086-1.173c-0.951,1.377-2.09,1.377-2.566,1.377
		c-1.241,0-1.802-0.357-2.142-0.681c-0.51-0.51-0.748-1.206-0.748-1.887c0-0.68,0.238-1.938,1.819-2.669
		c1.054-0.476,2.566-0.476,3.399-0.476c0-0.561-0.018-0.833-0.119-1.139c-0.221-0.629-0.884-0.714-1.122-0.714
		c-0.356,0-0.73,0.152-0.952,0.476c-0.187,0.289-0.187,0.562-0.187,0.765h-2.465c0.017-0.458,0.068-1.376,0.969-2.022
		c0.782-0.561,1.785-0.697,2.601-0.697c0.714,0,2.21,0.119,3.06,1.105c0.578,0.697,0.596,1.717,0.596,2.107l0.017,3.451
		c0,0.73,0.051,1.462,0.204,2.176H182.509z M179.415,131.621c0,0.578,0.391,1.225,1.224,1.225c0.459,0,0.833-0.222,1.07-0.493
		c0.442-0.544,0.477-1.207,0.477-2.125C180.57,130.092,179.415,130.602,179.415,131.621z"/>
	<path fill="#002D3D" d="M186.844,127.219c0-0.034,0-0.969-0.051-1.563h2.414l0.067,1.292c0.238-0.392,0.918-1.496,2.788-1.496
		c1.683,0,2.396,1.02,2.618,1.614c0.187,0.527,0.237,0.97,0.237,2.567v4.641h-2.566v-5.338c0-0.356,0-0.663-0.136-0.935
		c-0.188-0.374-0.578-0.731-1.225-0.731c-0.544,0-1.036,0.255-1.309,0.663c-0.153,0.221-0.306,0.646-0.306,1.309v5.032h-2.533
		V127.219z"/>
	<path fill="#002D3D" d="M202.874,122h2.533v10.879c0,0.511,0.033,1.071,0.067,1.395h-2.55l-0.067-1.241
		c-0.17,0.306-0.34,0.629-0.867,0.969c-0.629,0.408-1.292,0.442-1.666,0.442c-2.295,0-3.654-1.581-3.654-4.267
		c0-2.839,1.547-4.606,3.79-4.606c1.547,0,2.193,0.866,2.414,1.173V122z M200.953,132.812c0.731,0,1.326-0.442,1.598-0.969
		c0.374-0.714,0.408-1.599,0.408-2.023c0-1.683-0.73-2.601-1.87-2.601c-1.683,0-1.869,2.022-1.869,2.89
		C199.22,131.536,199.695,132.812,200.953,132.812z"/>
	<path fill="#002D3D" d="M207.227,128.816h4.216v1.921h-4.216V128.816z"/>
	<path fill="#002D3D" d="M6.289,146.4h2.533v10.879c0,0.51,0.033,1.071,0.067,1.394H6.34l-0.067-1.24
		c-0.17,0.306-0.34,0.629-0.867,0.969c-0.629,0.407-1.292,0.441-1.666,0.441c-2.295,0-3.654-1.58-3.654-4.267
		c0-2.839,1.547-4.606,3.79-4.606c1.547,0,2.193,0.867,2.414,1.173V146.4z M4.368,157.211c0.731,0,1.326-0.441,1.598-0.969
		c0.374-0.714,0.408-1.598,0.408-2.022c0-1.683-0.73-2.601-1.87-2.601c-1.683,0-1.869,2.022-1.869,2.89
		C2.635,155.937,3.11,157.211,4.368,157.211z"/>
	<path fill="#002D3D" d="M16.149,158.673c-0.086-0.526-0.086-0.918-0.086-1.173c-0.951,1.377-2.09,1.377-2.566,1.377
		c-1.241,0-1.802-0.356-2.142-0.68c-0.51-0.51-0.748-1.207-0.748-1.887s0.238-1.938,1.819-2.669
		c1.054-0.476,2.566-0.476,3.399-0.476c0-0.562-0.018-0.833-0.119-1.14c-0.221-0.629-0.884-0.714-1.122-0.714
		c-0.356,0-0.73,0.153-0.952,0.477c-0.187,0.289-0.187,0.561-0.187,0.765h-2.465c0.017-0.459,0.068-1.377,0.969-2.022
		c0.782-0.562,1.785-0.697,2.601-0.697c0.714,0,2.21,0.119,3.06,1.104c0.578,0.697,0.596,1.717,0.596,2.108l0.017,3.45
		c0,0.731,0.051,1.462,0.204,2.176H16.149z M13.056,156.021c0,0.578,0.391,1.224,1.224,1.224c0.459,0,0.833-0.221,1.07-0.493
		c0.442-0.544,0.477-1.207,0.477-2.124C14.211,154.491,13.056,155.001,13.056,156.021z"/>
	<path fill="#002D3D" d="M22.915,150.089v5.116c0,0.748,0,1.887,1.343,1.887c1.615,0,1.615-1.206,1.615-2.668v-4.335h2.584v5.66
		c0.034,1.854,0.051,2.074,0.051,2.295c0.017,0.238,0.034,0.392,0.068,0.629h-2.448l-0.085-1.139c-0.255,0.374-0.9,1.36-2.532,1.36
		c-1.156,0-2.108-0.527-2.584-1.156c-0.562-0.697-0.562-1.887-0.562-2.312v-5.338H22.915z"/>
	<path fill="#002D3D" d="M38.979,150.123c-0.068,0.68-0.119,1.258-0.119,2.125v6.34c0,3.162-2.635,3.468-4.283,3.468
		c-1.224,0-3.621-0.153-3.773-2.754h2.413c0.034,0.255,0.153,1.19,1.496,1.19c0.748,0,1.394-0.357,1.563-1.122
		c0.103-0.425,0.103-0.731,0.119-2.04c-0.799,1.054-1.699,1.173-2.312,1.173c-2.465,0-3.621-2.142-3.621-4.216
		c0-2.176,1.207-4.249,3.672-4.249c1.564,0,2.142,0.85,2.397,1.224l0.085-1.139H38.979z M34.662,156.786
		c1.768,0,1.768-2.073,1.768-2.447c0-0.97-0.187-2.618-1.717-2.618c-0.952,0-1.733,0.731-1.733,2.566
		C32.979,154.713,32.979,156.786,34.662,156.786z"/>
	<path fill="#002D3D" d="M41.292,146.4h2.499v4.861c0.289-0.408,0.918-1.292,2.481-1.292c1.275,0,2.091,0.629,2.499,1.156
		c0.306,0.425,0.561,1.207,0.561,2.329v5.218h-2.499v-5.133c0-0.493,0-1.87-1.41-1.87c-0.714,0-1.615,0.408-1.615,1.751l0.018,5.252
		h-2.533V146.4z"/>
	<path fill="#002D3D" d="M56.659,158.554c-0.815,0.222-1.547,0.272-1.955,0.272c-2.532,0-2.532-1.598-2.532-2.312v-4.709h-1.649
		v-1.666h1.649v-1.683l2.499-0.918v2.601h2.039v1.666h-2.039v3.876c0.017,0.781,0.017,1.274,1.139,1.274
		c0.374,0,0.544-0.017,0.85-0.051V158.554z"/>
	<path fill="#002D3D" d="M60.247,155.019c0,0.561,0,2.295,1.751,2.295c0.629,0,1.258-0.238,1.495-1.19h2.295
		c-0.034,0.408-0.119,1.14-0.815,1.87c-0.629,0.663-1.751,1.003-3.009,1.003c-0.731,0-2.125-0.136-3.026-1.071
		c-0.781-0.815-1.104-1.972-1.104-3.349c0-1.394,0.34-3.06,1.785-4.063c0.663-0.441,1.479-0.714,2.413-0.714
		c1.225,0,2.687,0.477,3.468,2.074c0.578,1.173,0.544,2.431,0.51,3.145H60.247z M63.442,153.437c0-0.391-0.034-1.921-1.496-1.921
		c-1.104,0-1.563,0.918-1.614,1.921H63.442z"/>
	<path fill="#002D3D" d="M67.676,152.196c0-0.407-0.067-1.648-0.118-2.142h2.362l0.051,1.649c0.323-0.731,0.884-1.769,2.924-1.666
		v2.261c-2.55-0.238-2.702,1.07-2.702,2.142v4.232h-2.517V152.196z"/>
	<path fill="#002D3D" d="M74.441,156.412h2.159v2.261h-2.159V156.412z"/>
	<path fill="#002D3D" d="M79.049,148.967l2.584,0.374l-1.598-2.022l1.581-0.867l0.951,2.346l1.003-2.396l1.581,0.935l-1.666,2.006
		l2.601-0.306l-0.033,1.802l-2.533-0.391l1.598,2.091l-1.581,0.866l-0.985-2.396l-0.986,2.414l-1.529-0.918l1.581-2.074l-2.567,0.34
		V148.967z"/>
</g>
</svg>
