<?xml version="1.0" encoding="utf-8"?>
<!-- Generator: Adobe Illustrator 17.0.0, SVG Export Plug-In . SVG Version: 6.00 Build 0)  -->
<!DOCTYPE svg PUBLIC "-//W3C//DTD SVG 1.1//EN" "http://www.w3.org/Graphics/SVG/1.1/DTD/svg11.dtd">
<svg version="1.1" id="Layer_1" xmlns="http://www.w3.org/2000/svg" xmlns:xlink="http://www.w3.org/1999/xlink" x="0px" y="0px"
	 width="181.778px" height="225.938px" viewBox="0 0 181.778 225.938" enable-background="new 0 0 181.778 225.938"
	 xml:space="preserve">
<g>
	<g>
		<g>
			<path fill="#002D3D" d="M7.632,0l4.267,12.29H9.247L8.363,9.638H3.501L2.583,12.29H0.068L4.504,0H7.632z M7.7,7.649L6,2.414
				L4.182,7.649H7.7z"/>
			<path fill="#002D3D" d="M19.039,0.017h2.533v10.879c0,0.511,0.034,1.071,0.068,1.395H19.09l-0.068-1.241
				c-0.17,0.306-0.34,0.629-0.867,0.969c-0.629,0.408-1.292,0.442-1.666,0.442c-2.294,0-3.654-1.581-3.654-4.267
				c0-2.839,1.547-4.606,3.791-4.606c1.547,0,2.193,0.866,2.414,1.173V0.017z M17.118,10.828c0.731,0,1.326-0.442,1.598-0.969
				c0.374-0.714,0.408-1.599,0.408-2.023c0-1.683-0.731-2.601-1.87-2.601c-1.683,0-1.87,2.023-1.87,2.89
				C15.385,9.553,15.86,10.828,17.118,10.828z"/>
			<path fill="#002D3D" d="M25.771,8.635c0,0.562,0,2.295,1.75,2.295c0.629,0,1.258-0.237,1.496-1.189h2.294
				c-0.034,0.408-0.119,1.139-0.816,1.87c-0.629,0.662-1.75,1.002-3.008,1.002c-0.731,0-2.125-0.136-3.026-1.07
				c-0.782-0.816-1.105-1.972-1.105-3.349c0-1.394,0.34-3.06,1.785-4.063c0.663-0.442,1.479-0.714,2.414-0.714
				c1.224,0,2.686,0.476,3.468,2.073c0.578,1.173,0.544,2.431,0.51,3.145H25.771z M28.967,7.055c0-0.392-0.034-1.921-1.496-1.921
				c-1.105,0-1.564,0.918-1.615,1.921H28.967z"/>
			<path fill="#002D3D" d="M33.201,0h2.516v12.29h-2.516V0z"/>
			<path fill="#002D3D" d="M41.071,10.029l-2.023,4.182h-1.75l1.258-4.182H41.071z"/>
			<path fill="#002D3D" d="M46.546,9.706V7.411l4.759-6.986h2.533L53.82,7.751h1.615v1.955H53.82v2.584h-2.516V9.706H46.546z
				 M48.449,7.803h2.991V4.675c0-0.153,0.018-1.003,0.034-1.31L48.449,7.803z"/>
			<path fill="#002D3D" d="M56.439,3.536c0-1.445,1.207-3.315,4.097-3.315c2.38,0,4.028,1.36,4.028,3.213
				c0,1.428-1.122,2.414-2.328,2.601c0.476,0.137,1.274,0.34,1.903,1.225c0.408,0.577,0.544,1.189,0.544,1.768
				c0,2.176-2.022,3.45-4.352,3.45c-2.414,0-4.079-1.547-4.079-3.45c0-0.918,0.356-1.581,0.866-2.074
				c0.578-0.561,1.122-0.73,1.564-0.884C58.088,5.882,56.439,5.371,56.439,3.536z M62.185,8.856c0-1.071-0.799-1.717-1.699-1.717
				c-0.986,0-1.7,0.748-1.7,1.751c0,1.206,0.901,1.768,1.717,1.768C61.216,10.658,62.185,10.182,62.185,8.856z M62.1,3.569
				c0-0.969-0.781-1.479-1.58-1.479c-0.851,0-1.547,0.578-1.547,1.479c0,0.833,0.595,1.53,1.529,1.53
				C61.369,5.1,62.1,4.521,62.1,3.569z"/>
			<path fill="#002D3D" d="M69.428,10.029l-2.023,4.182h-1.751l1.258-4.182H69.428z"/>
			<path fill="#002D3D" d="M75.803,0.017h2.499v4.862c0.289-0.408,0.918-1.292,2.481-1.292c1.275,0,2.091,0.629,2.499,1.155
				c0.306,0.426,0.561,1.207,0.561,2.329v5.219h-2.499V7.156c0-0.493,0-1.87-1.41-1.87c-0.714,0-1.615,0.408-1.615,1.751
				l0.018,5.253h-2.533V0.017z"/>
			<path fill="#002D3D" d="M91.272,12.29c-0.086-0.527-0.086-0.918-0.086-1.173c-0.951,1.377-2.09,1.377-2.566,1.377
				c-1.241,0-1.802-0.357-2.142-0.681c-0.51-0.51-0.748-1.206-0.748-1.887c0-0.68,0.238-1.938,1.819-2.668
				c1.054-0.477,2.566-0.477,3.399-0.477c0-0.561-0.018-0.833-0.119-1.139c-0.221-0.629-0.884-0.714-1.122-0.714
				c-0.356,0-0.73,0.153-0.952,0.476c-0.187,0.289-0.187,0.562-0.187,0.766h-2.465c0.017-0.459,0.068-1.377,0.969-2.023
				c0.782-0.561,1.785-0.696,2.601-0.696c0.714,0,2.21,0.118,3.06,1.104c0.578,0.697,0.596,1.717,0.596,2.107l0.017,3.451
				c0,0.73,0.051,1.462,0.204,2.176H91.272z M88.179,9.638c0,0.578,0.391,1.225,1.224,1.225c0.459,0,0.833-0.222,1.07-0.493
				c0.442-0.544,0.477-1.207,0.477-2.125C89.334,8.108,88.179,8.618,88.179,9.638z"/>
			<path fill="#002D3D" d="M97.324,9.808c0.034,0.544,0.374,1.173,1.428,1.173c0.901,0,1.326-0.51,1.326-1.02
				c0-0.391-0.204-0.697-1.189-0.969l-1.564-0.425c-0.696-0.204-2.176-0.629-2.176-2.38c0-1.666,1.53-2.686,3.757-2.686
				c1.768,0,3.195,0.815,3.264,2.532h-2.295c-0.067-0.951-0.833-1.02-1.224-1.02c-0.68,0-1.19,0.323-1.19,0.85
				c0,0.578,0.426,0.697,1.174,0.901l1.547,0.425c1.563,0.425,2.294,1.224,2.294,2.396c0,1.479-1.274,2.958-3.943,2.958
				c-1.104,0-2.159-0.238-2.94-1.054c-0.562-0.596-0.612-1.275-0.629-1.684H97.324z"/>
		</g>
		<g>
			<path fill="#002D3D" d="M6.238,35.995c-0.085-0.527-0.085-0.918-0.085-1.173c-0.952,1.377-2.091,1.377-2.567,1.377
				c-1.241,0-1.802-0.357-2.142-0.681c-0.51-0.51-0.748-1.206-0.748-1.887c0-0.68,0.238-1.938,1.819-2.668
				c1.054-0.477,2.567-0.477,3.4-0.477c0-0.561-0.017-0.833-0.119-1.139c-0.221-0.629-0.884-0.714-1.122-0.714
				c-0.357,0-0.731,0.153-0.952,0.476c-0.187,0.289-0.187,0.562-0.187,0.766H1.071c0.017-0.459,0.068-1.377,0.969-2.023
				c0.782-0.561,1.785-0.696,2.601-0.696c0.714,0,2.209,0.118,3.06,1.104c0.578,0.697,0.595,1.717,0.595,2.107l0.017,3.451
				c0,0.73,0.051,1.462,0.204,2.176H6.238z M3.145,33.343c0,0.578,0.391,1.225,1.224,1.225c0.459,0,0.833-0.222,1.071-0.493
				c0.442-0.544,0.476-1.207,0.476-2.125C4.3,31.813,3.145,32.323,3.145,33.343z"/>
			<path fill="#002D3D" d="M15.436,29.195h-1.275v-1.784h1.275v-1.173c0-1.514,0.51-2.737,2.958-2.737c0.17,0,0.646,0,1.36,0.085
				v1.751c-0.255-0.034-0.323-0.051-0.527-0.051c-1.292,0-1.292,0.68-1.292,1.122v1.003h1.598v1.784h-1.598v6.8h-2.499V29.195z"/>
			<path fill="#002D3D" d="M26.077,35.995c-0.085-0.527-0.085-0.918-0.085-1.173c-0.952,1.377-2.091,1.377-2.567,1.377
				c-1.241,0-1.802-0.357-2.142-0.681c-0.51-0.51-0.748-1.206-0.748-1.887c0-0.68,0.238-1.938,1.819-2.668
				c1.054-0.477,2.567-0.477,3.4-0.477c0-0.561-0.017-0.833-0.119-1.139c-0.221-0.629-0.884-0.714-1.122-0.714
				c-0.357,0-0.731,0.153-0.952,0.476c-0.187,0.289-0.187,0.562-0.187,0.766H20.91c0.017-0.459,0.068-1.377,0.969-2.023
				c0.782-0.561,1.785-0.696,2.601-0.696c0.714,0,2.209,0.118,3.06,1.104c0.578,0.697,0.595,1.717,0.595,2.107l0.017,3.451
				c0,0.73,0.051,1.462,0.204,2.176H26.077z M22.983,33.343c0,0.578,0.391,1.225,1.224,1.225c0.459,0,0.833-0.222,1.071-0.493
				c0.442-0.544,0.476-1.207,0.476-2.125C24.139,31.813,22.983,32.323,22.983,33.343z"/>
			<path fill="#002D3D" d="M30.43,29.025c0-0.544-0.034-1.07-0.085-1.614h2.431l0.085,1.104c0.272-0.374,0.935-1.292,2.652-1.292
				c1.972,0,2.533,1.207,2.703,1.615c0.714-1.377,1.87-1.598,2.754-1.598c1.733,0,2.431,1.036,2.618,1.376
				c0.459,0.748,0.425,1.785,0.425,2.533v4.845h-2.533v-5.049c0-0.918-0.136-1.938-1.444-1.938c-1.513,0-1.547,1.411-1.547,2.686
				v4.301h-2.533v-5.1c0-0.663-0.017-1.887-1.411-1.887c-1.581,0-1.581,1.359-1.581,1.938v5.049H30.43V29.025z"/>
			<path fill="#002D3D" d="M46.341,23.722h2.687v2.193h-2.687V23.722z M46.426,27.394h2.517v8.602h-2.517V27.394z"/>
			<path fill="#002D3D" d="M51.152,23.705h2.517v12.29h-2.517V23.705z"/>
			<path fill="#002D3D" d="M57.731,27.411l1.887,5.949l1.921-5.949h2.498l-3.246,8.431l-1.037,3.417h-2.532l1.088-3.229
				l-3.298-8.618H57.731z"/>
			<path fill="#002D3D" d="M70.124,23.722h2.499v4.862c0.289-0.408,0.918-1.292,2.481-1.292c1.275,0,2.091,0.629,2.499,1.155
				c0.306,0.426,0.561,1.207,0.561,2.329v5.219h-2.499v-5.134c0-0.493,0-1.87-1.41-1.87c-0.714,0-1.615,0.408-1.615,1.751
				l0.018,5.253h-2.533V23.722z"/>
			<path fill="#002D3D" d="M80.358,23.722h2.687v2.193h-2.687V23.722z M80.443,27.394h2.517v8.602h-2.517V27.394z"/>
			<path fill="#002D3D" d="M86.92,33.513c0.034,0.544,0.374,1.173,1.428,1.173c0.901,0,1.326-0.51,1.326-1.02
				c0-0.391-0.204-0.697-1.189-0.969l-1.564-0.425c-0.696-0.204-2.176-0.629-2.176-2.38c0-1.666,1.53-2.686,3.757-2.686
				c1.768,0,3.195,0.815,3.264,2.532H89.47c-0.067-0.951-0.833-1.02-1.224-1.02c-0.68,0-1.19,0.323-1.19,0.85
				c0,0.578,0.426,0.697,1.174,0.901l1.547,0.425c1.563,0.425,2.294,1.224,2.294,2.396c0,1.479-1.274,2.958-3.943,2.958
				c-1.104,0-2.159-0.238-2.94-1.054c-0.562-0.596-0.612-1.275-0.629-1.684H86.92z"/>
			<path fill="#002D3D" d="M98.718,35.876c-0.815,0.221-1.547,0.271-1.955,0.271c-2.532,0-2.532-1.598-2.532-2.312v-4.708h-1.649
				v-1.666h1.649v-1.683l2.499-0.918v2.601h2.039v1.666h-2.039v3.875c0.017,0.782,0.017,1.275,1.139,1.275
				c0.374,0,0.544-0.018,0.85-0.051V35.876z"/>
			<path fill="#002D3D" d="M104.327,27.207c3.11,0,4.454,2.107,4.454,4.504c0,2.414-1.395,4.59-4.505,4.59
				c-2.448,0-4.386-1.513-4.386-4.521C99.891,29.705,100.944,27.207,104.327,27.207z M104.361,34.55c1.104,0,1.853-0.663,1.853-2.94
				c0-1.139-0.221-2.72-1.887-2.72c-1.836,0-1.853,2.125-1.853,2.906C102.475,33.717,103.12,34.55,104.361,34.55z"/>
			<path fill="#002D3D" d="M110.669,29.519c0-0.408-0.067-1.648-0.118-2.142h2.362l0.051,1.648c0.323-0.73,0.884-1.768,2.924-1.666
				v2.261c-2.55-0.237-2.702,1.071-2.702,2.143v4.232h-2.517V29.519z"/>
			<path fill="#002D3D" d="M119.135,27.411l1.887,5.949l1.921-5.949h2.498l-3.246,8.431l-1.037,3.417h-2.533l1.088-3.229
				l-3.297-8.618H119.135z"/>
			<path fill="#002D3D" d="M135.505,27.207c3.11,0,4.454,2.107,4.454,4.504c0,2.414-1.395,4.59-4.505,4.59
				c-2.448,0-4.386-1.513-4.386-4.521C131.068,29.705,132.122,27.207,135.505,27.207z M135.539,34.55
				c1.104,0,1.853-0.663,1.853-2.94c0-1.139-0.221-2.72-1.887-2.72c-1.836,0-1.853,2.125-1.853,2.906
				C133.652,33.717,134.298,34.55,135.539,34.55z"/>
			<path fill="#002D3D" d="M142.017,29.195h-1.274v-1.784h1.274v-1.173c0-1.514,0.511-2.737,2.958-2.737c0.17,0,0.646,0,1.36,0.085
				v1.751c-0.255-0.034-0.323-0.051-0.527-0.051c-1.292,0-1.292,0.68-1.292,1.122v1.003h1.598v1.784h-1.598v6.8h-2.499V29.195z"/>
		</g>
		<g>
			<path fill="#002D3D" d="M5.626,54.157c-0.034-0.306-0.136-1.58-1.105-1.58c-1.19,0-1.326,1.802-1.326,2.736
				c0,0.476,0.051,2.006,0.629,2.635c0.238,0.255,0.493,0.289,0.68,0.289c0.272,0,1.054-0.119,1.156-1.649h2.482
				c-0.034,0.663-0.119,1.7-1.105,2.533C6.425,59.648,5.66,59.92,4.589,59.92c-1.139,0-2.142-0.255-2.924-1.139
				c-0.748-0.867-1.088-2.006-1.088-3.383c0-3.909,2.873-4.453,4.012-4.453c1.598,0,3.485,0.884,3.502,3.212H5.626z"/>
			<path fill="#002D3D" d="M14.738,59.699c-0.085-0.527-0.085-0.918-0.085-1.173c-0.952,1.377-2.091,1.377-2.567,1.377
				c-1.241,0-1.802-0.357-2.142-0.681c-0.51-0.51-0.748-1.206-0.748-1.887c0-0.68,0.238-1.938,1.819-2.668
				c1.054-0.477,2.567-0.477,3.4-0.477c0-0.561-0.017-0.833-0.119-1.139c-0.221-0.629-0.884-0.714-1.122-0.714
				c-0.357,0-0.731,0.153-0.952,0.476c-0.187,0.289-0.187,0.562-0.187,0.766H9.571c0.017-0.459,0.068-1.377,0.969-2.023
				c0.782-0.561,1.785-0.696,2.601-0.696c0.714,0,2.209,0.118,3.06,1.104c0.578,0.697,0.595,1.717,0.595,2.107l0.017,3.451
				c0,0.73,0.051,1.462,0.204,2.176H14.738z M11.645,57.047c0,0.578,0.391,1.225,1.224,1.225c0.459,0,0.833-0.222,1.071-0.493
				c0.442-0.544,0.476-1.207,0.476-2.125C12.8,55.518,11.645,56.027,11.645,57.047z"/>
			<path fill="#002D3D" d="M19.04,53.223c0-0.408-0.068-1.648-0.119-2.142h2.363l0.051,1.648c0.323-0.73,0.884-1.768,2.923-1.666
				v2.261c-2.55-0.237-2.703,1.071-2.703,2.143v4.232H19.04V53.223z"/>
			<path fill="#002D3D" d="M31.33,47.426h2.533v10.879c0,0.511,0.034,1.071,0.068,1.395h-2.549l-0.068-1.241
				c-0.17,0.306-0.34,0.629-0.867,0.969c-0.629,0.408-1.292,0.442-1.666,0.442c-2.294,0-3.654-1.581-3.654-4.267
				c0-2.839,1.547-4.606,3.791-4.606c1.547,0,2.193,0.866,2.414,1.173V47.426z M29.409,58.237c0.731,0,1.326-0.442,1.598-0.969
				c0.374-0.714,0.408-1.599,0.408-2.023c0-1.683-0.731-2.601-1.87-2.601c-1.683,0-1.87,2.023-1.87,2.89
				C27.676,56.962,28.151,58.237,29.409,58.237z"/>
			<path fill="#002D3D" d="M35.955,47.426h2.686v2.193h-2.686V47.426z M36.04,51.098h2.516v8.602H36.04V51.098z"/>
			<path fill="#002D3D" d="M44.812,50.911c3.11,0,4.454,2.107,4.454,4.504c0,2.414-1.395,4.59-4.505,4.59
				c-2.448,0-4.386-1.513-4.386-4.521C40.375,53.409,41.429,50.911,44.812,50.911z M44.846,58.254c1.104,0,1.853-0.663,1.853-2.94
				c0-1.139-0.221-2.72-1.887-2.72c-1.836,0-1.853,2.125-1.853,2.906C42.959,57.421,43.604,58.254,44.846,58.254z"/>
			<path fill="#002D3D" d="M52.853,51.115l1.938,5.83l1.972-5.83h2.432L56.1,59.699h-2.788l-3.145-8.584H52.853z"/>
			<path fill="#002D3D" d="M65.755,59.699c-0.086-0.527-0.086-0.918-0.086-1.173c-0.951,1.377-2.09,1.377-2.566,1.377
				c-1.241,0-1.802-0.357-2.142-0.681c-0.51-0.51-0.748-1.206-0.748-1.887c0-0.68,0.238-1.938,1.819-2.668
				c1.054-0.477,2.566-0.477,3.399-0.477c0-0.561-0.018-0.833-0.119-1.139c-0.221-0.629-0.884-0.714-1.122-0.714
				c-0.356,0-0.73,0.153-0.952,0.476c-0.187,0.289-0.187,0.562-0.187,0.766h-2.465c0.017-0.459,0.068-1.377,0.969-2.023
				c0.782-0.561,1.785-0.696,2.601-0.696c0.714,0,2.21,0.118,3.06,1.104c0.578,0.697,0.596,1.717,0.596,2.107l0.017,3.451
				c0,0.73,0.051,1.462,0.204,2.176H65.755z M62.661,57.047c0,0.578,0.391,1.225,1.224,1.225c0.459,0,0.833-0.222,1.07-0.493
				c0.442-0.544,0.477-1.207,0.477-2.125C63.816,55.518,62.661,56.027,62.661,57.047z"/>
			<path fill="#002D3D" d="M71.807,57.217c0.034,0.544,0.374,1.173,1.428,1.173c0.901,0,1.326-0.51,1.326-1.02
				c0-0.391-0.204-0.697-1.189-0.969l-1.564-0.425c-0.696-0.204-2.176-0.629-2.176-2.38c0-1.666,1.53-2.686,3.757-2.686
				c1.768,0,3.195,0.815,3.264,2.532h-2.295c-0.067-0.951-0.833-1.02-1.224-1.02c-0.68,0-1.19,0.323-1.19,0.85
				c0,0.578,0.426,0.697,1.174,0.901l1.547,0.425c1.563,0.425,2.294,1.224,2.294,2.396c0,1.479-1.274,2.958-3.943,2.958
				c-1.104,0-2.159-0.238-2.94-1.054c-0.562-0.596-0.612-1.275-0.629-1.684H71.807z"/>
			<path fill="#002D3D" d="M83.095,54.157c-0.034-0.306-0.136-1.58-1.105-1.58c-1.189,0-1.325,1.802-1.325,2.736
				c0,0.476,0.051,2.006,0.629,2.635c0.237,0.255,0.493,0.289,0.68,0.289c0.272,0,1.054-0.119,1.156-1.649h2.481
				c-0.034,0.663-0.119,1.7-1.104,2.533c-0.612,0.527-1.377,0.799-2.448,0.799c-1.139,0-2.142-0.255-2.924-1.139
				c-0.748-0.867-1.088-2.006-1.088-3.383c0-3.909,2.873-4.453,4.012-4.453c1.598,0,3.484,0.884,3.502,3.212H83.095z"/>
			<path fill="#002D3D" d="M89.521,51.115v5.116c0,0.748,0,1.887,1.343,1.887c1.615,0,1.615-1.207,1.615-2.669v-4.334h2.584v5.66
				c0.034,1.853,0.051,2.073,0.051,2.295c0.017,0.237,0.034,0.391,0.068,0.629h-2.448l-0.085-1.139
				c-0.255,0.373-0.9,1.359-2.532,1.359c-1.156,0-2.108-0.527-2.584-1.156c-0.562-0.696-0.562-1.887-0.562-2.312v-5.337H89.521z"/>
			<path fill="#002D3D" d="M97.443,47.409h2.517v12.29h-2.517V47.409z"/>
			<path fill="#002D3D" d="M107.319,59.699c-0.085-0.527-0.085-0.918-0.085-1.173c-0.951,1.377-2.091,1.377-2.566,1.377
				c-1.241,0-1.802-0.357-2.142-0.681c-0.51-0.51-0.748-1.206-0.748-1.887c0-0.68,0.238-1.938,1.819-2.668
				c1.054-0.477,2.566-0.477,3.399-0.477c0-0.561-0.018-0.833-0.119-1.139c-0.221-0.629-0.884-0.714-1.122-0.714
				c-0.356,0-0.73,0.153-0.952,0.476c-0.187,0.289-0.187,0.562-0.187,0.766h-2.465c0.017-0.459,0.068-1.377,0.969-2.023
				c0.782-0.561,1.785-0.696,2.601-0.696c0.714,0,2.21,0.118,3.06,1.104c0.578,0.697,0.596,1.717,0.596,2.107l0.017,3.451
				c0,0.73,0.051,1.462,0.204,2.176H107.319z M104.227,57.047c0,0.578,0.391,1.225,1.224,1.225c0.459,0,0.833-0.222,1.07-0.493
				c0.442-0.544,0.477-1.207,0.477-2.125C105.382,55.518,104.227,56.027,104.227,57.047z"/>
			<path fill="#002D3D" d="M111.621,53.223c0-0.408-0.067-1.648-0.118-2.142h2.362l0.051,1.648c0.323-0.73,0.884-1.768,2.924-1.666
				v2.261c-2.55-0.237-2.702,1.071-2.702,2.143v4.232h-2.517V53.223z"/>
			<path fill="#002D3D" d="M128.638,47.426h2.533v10.879c0,0.511,0.033,1.071,0.067,1.395h-2.55l-0.067-1.241
				c-0.17,0.306-0.34,0.629-0.867,0.969c-0.629,0.408-1.292,0.442-1.666,0.442c-2.295,0-3.654-1.581-3.654-4.267
				c0-2.839,1.547-4.606,3.79-4.606c1.547,0,2.193,0.866,2.414,1.173V47.426z M126.717,58.237c0.731,0,1.326-0.442,1.598-0.969
				c0.374-0.714,0.408-1.599,0.408-2.023c0-1.683-0.73-2.601-1.87-2.601c-1.683,0-1.869,2.023-1.869,2.89
				C124.983,56.962,125.459,58.237,126.717,58.237z"/>
			<path fill="#002D3D" d="M133.262,47.426h2.687v2.193h-2.687V47.426z M133.347,51.098h2.517v8.602h-2.517V51.098z"/>
			<path fill="#002D3D" d="M139.823,57.217c0.034,0.544,0.374,1.173,1.428,1.173c0.901,0,1.326-0.51,1.326-1.02
				c0-0.391-0.204-0.697-1.189-0.969l-1.564-0.425c-0.696-0.204-2.176-0.629-2.176-2.38c0-1.666,1.53-2.686,3.757-2.686
				c1.768,0,3.195,0.815,3.264,2.532h-2.295c-0.067-0.951-0.833-1.02-1.224-1.02c-0.68,0-1.189,0.323-1.189,0.85
				c0,0.578,0.425,0.697,1.173,0.901l1.546,0.425c1.564,0.425,2.295,1.224,2.295,2.396c0,1.479-1.274,2.958-3.943,2.958
				c-1.104,0-2.158-0.238-2.94-1.054c-0.562-0.596-0.612-1.275-0.629-1.684H139.823z"/>
			<path fill="#002D3D" d="M148.596,56.044c0,0.562,0,2.295,1.751,2.295c0.629,0,1.258-0.237,1.495-1.189h2.295
				c-0.034,0.408-0.119,1.139-0.815,1.87c-0.629,0.662-1.751,1.002-3.009,1.002c-0.731,0-2.125-0.136-3.026-1.07
				c-0.781-0.816-1.104-1.972-1.104-3.349c0-1.394,0.34-3.06,1.785-4.063c0.663-0.442,1.479-0.714,2.413-0.714
				c1.225,0,2.687,0.476,3.468,2.073c0.578,1.173,0.544,2.431,0.51,3.145H148.596z M151.791,54.464c0-0.392-0.034-1.921-1.496-1.921
				c-1.104,0-1.563,0.918-1.614,1.921H151.791z"/>
			<path fill="#002D3D" d="M161.175,59.699c-0.085-0.527-0.085-0.918-0.085-1.173c-0.951,1.377-2.091,1.377-2.566,1.377
				c-1.241,0-1.802-0.357-2.142-0.681c-0.51-0.51-0.748-1.206-0.748-1.887c0-0.68,0.238-1.938,1.819-2.668
				c1.054-0.477,2.566-0.477,3.399-0.477c0-0.561-0.018-0.833-0.119-1.139c-0.221-0.629-0.884-0.714-1.122-0.714
				c-0.356,0-0.73,0.153-0.952,0.476c-0.187,0.289-0.187,0.562-0.187,0.766h-2.465c0.017-0.459,0.068-1.377,0.969-2.023
				c0.782-0.561,1.785-0.696,2.601-0.696c0.714,0,2.21,0.118,3.06,1.104c0.578,0.697,0.596,1.717,0.596,2.107l0.017,3.451
				c0,0.73,0.051,1.462,0.204,2.176H161.175z M158.082,57.047c0,0.578,0.391,1.225,1.224,1.225c0.459,0,0.833-0.222,1.07-0.493
				c0.442-0.544,0.477-1.207,0.477-2.125C159.237,55.518,158.082,56.027,158.082,57.047z"/>
			<path fill="#002D3D" d="M167.228,57.217c0.034,0.544,0.374,1.173,1.428,1.173c0.901,0,1.326-0.51,1.326-1.02
				c0-0.391-0.204-0.697-1.189-0.969l-1.564-0.425c-0.696-0.204-2.176-0.629-2.176-2.38c0-1.666,1.53-2.686,3.757-2.686
				c1.768,0,3.195,0.815,3.264,2.532h-2.295c-0.067-0.951-0.833-1.02-1.224-1.02c-0.68,0-1.189,0.323-1.189,0.85
				c0,0.578,0.425,0.697,1.173,0.901l1.546,0.425c1.564,0.425,2.295,1.224,2.295,2.396c0,1.479-1.274,2.958-3.943,2.958
				c-1.104,0-2.158-0.238-2.94-1.054c-0.562-0.596-0.612-1.275-0.629-1.684H167.228z"/>
			<path fill="#002D3D" d="M176,56.044c0,0.562,0,2.295,1.751,2.295c0.629,0,1.258-0.237,1.495-1.189h2.295
				c-0.034,0.408-0.119,1.139-0.815,1.87c-0.629,0.662-1.751,1.002-3.009,1.002c-0.731,0-2.125-0.136-3.026-1.07
				c-0.781-0.816-1.104-1.972-1.104-3.349c0-1.394,0.34-3.06,1.785-4.063c0.663-0.442,1.479-0.714,2.413-0.714
				c1.225,0,2.687,0.476,3.468,2.073c0.578,1.173,0.544,2.431,0.51,3.145H176z M179.195,54.464c0-0.392-0.034-1.921-1.496-1.921
				c-1.104,0-1.563,0.918-1.614,1.921H179.195z"/>
		</g>
		<g>
			<path fill="#002D3D" d="M6.238,83.404c-0.085-0.527-0.085-0.918-0.085-1.173c-0.952,1.377-2.091,1.377-2.567,1.377
				c-1.241,0-1.802-0.357-2.142-0.681c-0.51-0.51-0.748-1.206-0.748-1.887c0-0.68,0.238-1.938,1.819-2.668
				c1.054-0.477,2.567-0.477,3.4-0.477c0-0.561-0.017-0.833-0.119-1.139c-0.221-0.629-0.884-0.714-1.122-0.714
				c-0.357,0-0.731,0.153-0.952,0.476c-0.187,0.289-0.187,0.562-0.187,0.766H1.071c0.017-0.459,0.068-1.377,0.969-2.023
				c0.782-0.561,1.785-0.696,2.601-0.696c0.714,0,2.209,0.118,3.06,1.104c0.578,0.697,0.595,1.717,0.595,2.107l0.017,3.451
				c0,0.73,0.051,1.462,0.204,2.176H6.238z M3.145,80.752c0,0.578,0.391,1.225,1.224,1.225c0.459,0,0.833-0.222,1.071-0.493
				c0.442-0.544,0.476-1.207,0.476-2.125C4.3,79.223,3.145,79.732,3.145,80.752z"/>
			<path fill="#002D3D" d="M10.574,76.35c0-0.034,0-0.969-0.051-1.563h2.414l0.068,1.292c0.238-0.392,0.918-1.496,2.788-1.496
				c1.683,0,2.396,1.02,2.618,1.615c0.187,0.526,0.238,0.969,0.238,2.566v4.641h-2.566v-5.338c0-0.356,0-0.663-0.136-0.935
				c-0.187-0.374-0.578-0.731-1.224-0.731c-0.544,0-1.037,0.255-1.309,0.663c-0.153,0.222-0.306,0.646-0.306,1.31v5.031h-2.533
				V76.35z"/>
			<path fill="#002D3D" d="M26.604,71.131h2.533V82.01c0,0.511,0.034,1.071,0.068,1.395h-2.55l-0.068-1.241
				c-0.17,0.306-0.34,0.629-0.867,0.969c-0.629,0.408-1.292,0.442-1.666,0.442c-2.294,0-3.654-1.581-3.654-4.267
				c0-2.839,1.547-4.606,3.791-4.606c1.547,0,2.193,0.866,2.414,1.173V71.131z M24.683,81.942c0.731,0,1.326-0.442,1.598-0.969
				c0.374-0.714,0.408-1.599,0.408-2.023c0-1.683-0.731-2.601-1.87-2.601c-1.683,0-1.87,2.023-1.87,2.89
				C22.949,80.667,23.425,81.942,24.683,81.942z"/>
			<path fill="#002D3D" d="M36.107,71.131h2.499v4.862c0.289-0.408,0.918-1.292,2.481-1.292c1.275,0,2.091,0.629,2.499,1.155
				c0.306,0.426,0.561,1.207,0.561,2.329v5.219h-2.499v-5.134c0-0.493,0-1.87-1.41-1.87c-0.714,0-1.615,0.408-1.615,1.751
				l0.017,5.253h-2.533V71.131z"/>
			<path fill="#002D3D" d="M51.577,83.404c-0.086-0.527-0.086-0.918-0.086-1.173c-0.951,1.377-2.09,1.377-2.566,1.377
				c-1.241,0-1.802-0.357-2.142-0.681c-0.51-0.51-0.748-1.206-0.748-1.887c0-0.68,0.238-1.938,1.819-2.668
				c1.054-0.477,2.566-0.477,3.399-0.477c0-0.561-0.018-0.833-0.119-1.139c-0.221-0.629-0.884-0.714-1.122-0.714
				c-0.356,0-0.73,0.153-0.952,0.476c-0.187,0.289-0.187,0.562-0.187,0.766h-2.465c0.017-0.459,0.068-1.377,0.969-2.023
				c0.782-0.561,1.785-0.696,2.601-0.696c0.714,0,2.21,0.118,3.06,1.104c0.578,0.697,0.596,1.717,0.596,2.107l0.017,3.451
				c0,0.73,0.051,1.462,0.204,2.176H51.577z M48.483,80.752c0,0.578,0.391,1.225,1.224,1.225c0.459,0,0.833-0.222,1.07-0.493
				c0.442-0.544,0.477-1.207,0.477-2.125C49.639,79.223,48.483,79.732,48.483,80.752z"/>
			<path fill="#002D3D" d="M57.629,80.922c0.034,0.544,0.374,1.173,1.428,1.173c0.901,0,1.326-0.51,1.326-1.02
				c0-0.391-0.204-0.697-1.189-0.969l-1.564-0.425c-0.696-0.204-2.176-0.629-2.176-2.38c0-1.666,1.53-2.686,3.757-2.686
				c1.768,0,3.195,0.815,3.264,2.532h-2.295c-0.067-0.951-0.833-1.02-1.224-1.02c-0.68,0-1.19,0.323-1.19,0.85
				c0,0.578,0.426,0.697,1.174,0.901l1.547,0.425c1.563,0.425,2.294,1.224,2.294,2.396c0,1.479-1.274,2.958-3.943,2.958
				c-1.104,0-2.159-0.238-2.94-1.054c-0.562-0.596-0.612-1.275-0.629-1.684H57.629z"/>
			<path fill="#002D3D" d="M74.781,71.131h2.533V82.01c0,0.511,0.033,1.071,0.067,1.395h-2.55l-0.067-1.241
				c-0.17,0.306-0.34,0.629-0.867,0.969c-0.629,0.408-1.292,0.442-1.666,0.442c-2.295,0-3.654-1.581-3.654-4.267
				c0-2.839,1.547-4.606,3.79-4.606c1.547,0,2.193,0.866,2.414,1.173V71.131z M72.86,81.942c0.731,0,1.326-0.442,1.598-0.969
				c0.374-0.714,0.408-1.599,0.408-2.023c0-1.683-0.73-2.601-1.87-2.601c-1.683,0-1.869,2.023-1.869,2.89
				C71.127,80.667,71.603,81.942,72.86,81.942z"/>
			<path fill="#002D3D" d="M81.515,79.749c0,0.562,0,2.295,1.751,2.295c0.629,0,1.258-0.237,1.495-1.189h2.295
				c-0.034,0.408-0.119,1.139-0.815,1.87c-0.629,0.662-1.751,1.002-3.009,1.002c-0.731,0-2.125-0.136-3.026-1.07
				c-0.781-0.816-1.104-1.972-1.104-3.349c0-1.394,0.34-3.06,1.785-4.063c0.663-0.442,1.479-0.714,2.413-0.714
				c1.225,0,2.687,0.476,3.468,2.073c0.578,1.173,0.544,2.431,0.51,3.145H81.515z M84.71,78.169c0-0.392-0.034-1.921-1.496-1.921
				c-1.104,0-1.563,0.918-1.614,1.921H84.71z"/>
			<path fill="#002D3D" d="M93.482,77.862c-0.034-0.306-0.136-1.58-1.105-1.58c-1.189,0-1.325,1.802-1.325,2.736
				c0,0.476,0.051,2.006,0.629,2.635c0.238,0.255,0.493,0.289,0.68,0.289c0.272,0,1.054-0.119,1.156-1.649h2.481
				c-0.034,0.663-0.119,1.7-1.104,2.533c-0.612,0.527-1.377,0.799-2.448,0.799c-1.139,0-2.142-0.255-2.924-1.139
				c-0.748-0.867-1.088-2.006-1.088-3.383c0-3.909,2.873-4.453,4.012-4.453c1.598,0,3.484,0.884,3.502,3.212H93.482z"/>
			<path fill="#002D3D" d="M97.358,71.131h2.687v2.193h-2.687V71.131z M97.443,74.803h2.517v8.602h-2.517V74.803z"/>
			<path fill="#002D3D" d="M107.847,71.131h2.533V82.01c0,0.511,0.033,1.071,0.067,1.395h-2.55l-0.067-1.241
				c-0.17,0.306-0.34,0.629-0.867,0.969c-0.629,0.408-1.292,0.442-1.666,0.442c-2.295,0-3.654-1.581-3.654-4.267
				c0-2.839,1.547-4.606,3.79-4.606c1.547,0,2.193,0.866,2.414,1.173V71.131z M105.926,81.942c0.731,0,1.326-0.442,1.598-0.969
				c0.374-0.714,0.408-1.599,0.408-2.023c0-1.683-0.73-2.601-1.87-2.601c-1.683,0-1.869,2.023-1.869,2.89
				C104.192,80.667,104.668,81.942,105.926,81.942z"/>
			<path fill="#002D3D" d="M114.579,79.749c0,0.562,0,2.295,1.751,2.295c0.629,0,1.258-0.237,1.495-1.189h2.295
				c-0.034,0.408-0.119,1.139-0.815,1.87c-0.629,0.662-1.751,1.002-3.009,1.002c-0.731,0-2.125-0.136-3.026-1.07
				c-0.781-0.816-1.104-1.972-1.104-3.349c0-1.394,0.34-3.06,1.785-4.063c0.663-0.442,1.479-0.714,2.413-0.714
				c1.225,0,2.687,0.476,3.468,2.073c0.578,1.173,0.544,2.431,0.51,3.145H114.579z M117.774,78.169c0-0.392-0.034-1.921-1.496-1.921
				c-1.104,0-1.563,0.918-1.614,1.921H117.774z"/>
			<path fill="#002D3D" d="M127.686,71.131h2.533V82.01c0,0.511,0.033,1.071,0.067,1.395h-2.55l-0.067-1.241
				c-0.17,0.306-0.34,0.629-0.867,0.969c-0.629,0.408-1.292,0.442-1.666,0.442c-2.295,0-3.654-1.581-3.654-4.267
				c0-2.839,1.547-4.606,3.79-4.606c1.547,0,2.193,0.866,2.414,1.173V71.131z M125.765,81.942c0.731,0,1.326-0.442,1.598-0.969
				c0.374-0.714,0.408-1.599,0.408-2.023c0-1.683-0.73-2.601-1.87-2.601c-1.683,0-1.869,2.023-1.869,2.89
				C124.031,80.667,124.507,81.942,125.765,81.942z"/>
			<path fill="#002D3D" d="M142.17,83.285c-0.815,0.221-1.547,0.271-1.955,0.271c-2.532,0-2.532-1.598-2.532-2.312v-4.708h-1.649
				v-1.666h1.649v-1.683l2.499-0.918v2.601h2.039v1.666h-2.039v3.875c0.017,0.782,0.017,1.275,1.139,1.275
				c0.374,0,0.544-0.018,0.85-0.051V83.285z"/>
			<path fill="#002D3D" d="M147.779,74.616c3.11,0,4.454,2.107,4.454,4.504c0,2.414-1.395,4.59-4.505,4.59
				c-2.448,0-4.386-1.513-4.386-4.521C143.343,77.114,144.396,74.616,147.779,74.616z M147.813,81.959
				c1.104,0,1.853-0.663,1.853-2.94c0-1.139-0.221-2.72-1.887-2.72c-1.836,0-1.853,2.125-1.853,2.906
				C145.927,81.126,146.572,81.959,147.813,81.959z"/>
		</g>
		<g>
			<path fill="#002D3D" d="M9.23,98.558c-0.068,0.681-0.119,1.258-0.119,2.125v6.341c0,3.161-2.635,3.468-4.283,3.468
				c-1.224,0-3.621-0.153-3.774-2.754h2.414c0.034,0.255,0.153,1.189,1.496,1.189c0.748,0,1.394-0.356,1.564-1.122
				c0.102-0.425,0.102-0.73,0.119-2.039c-0.799,1.054-1.7,1.173-2.312,1.173c-2.465,0-3.621-2.142-3.621-4.216
				c0-2.176,1.207-4.25,3.671-4.25c1.564,0,2.142,0.851,2.397,1.225l0.085-1.14H9.23z M4.913,105.222
				c1.768,0,1.768-2.074,1.768-2.448c0-0.969-0.187-2.617-1.717-2.617c-0.952,0-1.734,0.73-1.734,2.566
				C3.229,103.147,3.229,105.222,4.913,105.222z"/>
			<path fill="#002D3D" d="M13.497,103.453c0,0.562,0,2.295,1.751,2.295c0.629,0,1.258-0.237,1.496-1.189h2.294
				c-0.034,0.408-0.119,1.139-0.816,1.87c-0.629,0.662-1.75,1.002-3.008,1.002c-0.731,0-2.125-0.136-3.026-1.07
				c-0.782-0.816-1.105-1.972-1.105-3.349c0-1.394,0.34-3.06,1.785-4.063c0.663-0.442,1.479-0.714,2.414-0.714
				c1.224,0,2.686,0.476,3.468,2.073c0.578,1.173,0.544,2.431,0.51,3.145H13.497z M16.693,101.873c0-0.392-0.034-1.921-1.496-1.921
				c-1.105,0-1.564,0.918-1.615,1.921H16.693z"/>
			<path fill="#002D3D" d="M25.975,106.989c-0.816,0.221-1.547,0.271-1.955,0.271c-2.533,0-2.533-1.598-2.533-2.312v-4.708h-1.649
				v-1.666h1.649v-1.683l2.499-0.918v2.601h2.04v1.666h-2.04v3.875c0.017,0.782,0.017,1.275,1.139,1.275
				c0.374,0,0.544-0.018,0.85-0.051V106.989z"/>
			<path fill="#002D3D" d="M34.628,98.524l0.068,1.224c0.782-1.377,2.21-1.394,2.618-1.394c2.227,0,3.57,1.665,3.57,4.283
				c0,2.431-1.258,4.59-3.74,4.59c-1.547,0-2.176-0.816-2.397-1.105v4.284h-2.566V98.524H34.628z M38.334,102.739
				c0-1.02-0.255-2.771-1.734-2.771c-0.816,0-1.972,0.612-1.972,2.924c0,0.51,0.017,2.686,1.87,2.686
				C37.688,105.578,38.334,104.439,38.334,102.739z"/>
			<path fill="#002D3D" d="M42.652,100.632c0-0.408-0.067-1.648-0.118-2.142h2.362l0.051,1.648c0.323-0.73,0.884-1.768,2.924-1.666
				v2.261c-2.55-0.237-2.702,1.071-2.702,2.143v4.232h-2.517V100.632z"/>
			<path fill="#002D3D" d="M53.311,98.32c3.11,0,4.454,2.107,4.454,4.504c0,2.414-1.395,4.59-4.505,4.59
				c-2.448,0-4.386-1.513-4.386-4.521C48.874,100.818,49.928,98.32,53.311,98.32z M53.345,105.663c1.104,0,1.853-0.663,1.853-2.94
				c0-1.139-0.221-2.72-1.887-2.72c-1.836,0-1.853,2.125-1.853,2.906C51.458,104.83,52.104,105.663,53.345,105.663z"/>
			<path fill="#002D3D" d="M64.802,107.108c-0.085-0.527-0.085-0.918-0.085-1.173c-0.951,1.377-2.091,1.377-2.566,1.377
				c-1.241,0-1.802-0.357-2.142-0.681c-0.51-0.51-0.748-1.206-0.748-1.887c0-0.68,0.238-1.938,1.819-2.668
				c1.054-0.477,2.566-0.477,3.399-0.477c0-0.561-0.018-0.833-0.119-1.139c-0.221-0.629-0.884-0.714-1.122-0.714
				c-0.356,0-0.73,0.153-0.952,0.476c-0.187,0.289-0.187,0.562-0.187,0.766h-2.465c0.017-0.459,0.068-1.377,0.969-2.023
				c0.782-0.561,1.785-0.696,2.601-0.696c0.714,0,2.21,0.118,3.06,1.104c0.578,0.697,0.596,1.717,0.596,2.107l0.017,3.451
				c0,0.73,0.051,1.462,0.204,2.176H64.802z M61.709,104.456c0,0.578,0.391,1.225,1.224,1.225c0.459,0,0.833-0.222,1.07-0.493
				c0.442-0.544,0.477-1.207,0.477-2.125C62.864,102.927,61.709,103.437,61.709,104.456z"/>
			<path fill="#002D3D" d="M73.643,101.566c-0.034-0.306-0.136-1.58-1.105-1.58c-1.189,0-1.325,1.802-1.325,2.736
				c0,0.476,0.051,2.006,0.629,2.635c0.238,0.255,0.493,0.289,0.68,0.289c0.272,0,1.054-0.119,1.156-1.649h2.481
				c-0.034,0.663-0.119,1.7-1.104,2.533c-0.612,0.527-1.377,0.799-2.448,0.799c-1.139,0-2.142-0.255-2.924-1.139
				c-0.748-0.867-1.088-2.006-1.088-3.383c0-3.909,2.873-4.453,4.012-4.453c1.598,0,3.484,0.884,3.502,3.212H73.643z"/>
			<path fill="#002D3D" d="M82.652,106.989c-0.815,0.221-1.547,0.271-1.955,0.271c-2.532,0-2.532-1.598-2.532-2.312v-4.708h-1.649
				v-1.666h1.649v-1.683l2.499-0.918v2.601h2.039v1.666h-2.039v3.875c0.017,0.782,0.017,1.275,1.139,1.275
				c0.374,0,0.544-0.018,0.85-0.051V106.989z"/>
			<path fill="#002D3D" d="M84.132,94.835h2.687v2.193h-2.687V94.835z M84.217,98.507h2.517v8.602h-2.517V98.507z"/>
			<path fill="#002D3D" d="M90.643,98.524l1.938,5.83l1.972-5.83h2.432l-3.094,8.584h-2.788l-3.145-8.584H90.643z"/>
			<path fill="#002D3D" d="M100.418,103.453c0,0.562,0,2.295,1.751,2.295c0.629,0,1.258-0.237,1.495-1.189h2.295
				c-0.034,0.408-0.119,1.139-0.815,1.87c-0.629,0.662-1.751,1.002-3.009,1.002c-0.731,0-2.125-0.136-3.026-1.07
				c-0.781-0.816-1.104-1.972-1.104-3.349c0-1.394,0.34-3.06,1.785-4.063c0.663-0.442,1.479-0.714,2.413-0.714
				c1.225,0,2.687,0.476,3.468,2.073c0.578,1.173,0.544,2.431,0.51,3.145H100.418z M103.613,101.873
				c0-0.392-0.034-1.921-1.496-1.921c-1.104,0-1.563,0.918-1.614,1.921H103.613z"/>
			<path fill="#002D3D" d="M117.724,107.108c-0.086-0.527-0.086-0.918-0.086-1.173c-0.951,1.377-2.09,1.377-2.566,1.377
				c-1.241,0-1.802-0.357-2.142-0.681c-0.51-0.51-0.748-1.206-0.748-1.887c0-0.68,0.238-1.938,1.819-2.668
				c1.054-0.477,2.566-0.477,3.399-0.477c0-0.561-0.018-0.833-0.119-1.139c-0.221-0.629-0.884-0.714-1.122-0.714
				c-0.356,0-0.73,0.153-0.952,0.476c-0.187,0.289-0.187,0.562-0.187,0.766h-2.465c0.017-0.459,0.068-1.377,0.969-2.023
				c0.782-0.561,1.785-0.696,2.601-0.696c0.714,0,2.21,0.118,3.06,1.104c0.578,0.697,0.596,1.717,0.596,2.107l0.017,3.451
				c0,0.73,0.051,1.462,0.204,2.176H117.724z M114.63,104.456c0,0.578,0.391,1.225,1.224,1.225c0.459,0,0.833-0.222,1.07-0.493
				c0.442-0.544,0.477-1.207,0.477-2.125C115.785,102.927,114.63,103.437,114.63,104.456z"/>
			<path fill="#002D3D" d="M121.939,94.853h2.517v4.708c0.85-1.121,1.988-1.155,2.431-1.155c2.091,0,3.739,1.648,3.739,4.538
				c0,3.213-1.87,4.335-3.587,4.335c-0.441,0-1.802-0.034-2.583-1.377c-0.018,0.271-0.034,0.68-0.086,1.207h-2.431V94.853z
				 M126.206,100.088c-1.853,0-1.853,2.107-1.853,2.651c0,1.955,0.833,2.89,1.972,2.89c1.734,0,1.734-2.158,1.734-2.601
				C128.06,102.349,128.025,100.088,126.206,100.088z"/>
			<path fill="#002D3D" d="M136.457,98.32c3.11,0,4.454,2.107,4.454,4.504c0,2.414-1.395,4.59-4.505,4.59
				c-2.448,0-4.386-1.513-4.386-4.521C132.021,100.818,133.074,98.32,136.457,98.32z M136.491,105.663
				c1.104,0,1.853-0.663,1.853-2.94c0-1.139-0.221-2.72-1.887-2.72c-1.836,0-1.853,2.125-1.853,2.906
				C134.604,104.83,135.25,105.663,136.491,105.663z"/>
			<path fill="#002D3D" d="M145.264,98.524v5.116c0,0.748,0,1.887,1.343,1.887c1.615,0,1.615-1.207,1.615-2.669v-4.334h2.584v5.66
				c0.034,1.853,0.051,2.073,0.051,2.295c0.017,0.237,0.034,0.391,0.068,0.629h-2.448l-0.085-1.139
				c-0.255,0.373-0.9,1.359-2.532,1.359c-1.156,0-2.108-0.527-2.584-1.156c-0.562-0.696-0.562-1.887-0.562-2.312v-5.337H145.264z"/>
			<path fill="#002D3D" d="M158.234,106.989c-0.815,0.221-1.547,0.271-1.955,0.271c-2.532,0-2.532-1.598-2.532-2.312v-4.708h-1.649
				v-1.666h1.649v-1.683l2.499-0.918v2.601h2.039v1.666h-2.039v3.875c0.017,0.782,0.017,1.275,1.139,1.275
				c0.374,0,0.544-0.018,0.85-0.051V106.989z"/>
		</g>
		<g>
			<path fill="#002D3D" d="M1.156,118.54h2.499v4.862c0.289-0.408,0.918-1.292,2.482-1.292c1.275,0,2.091,0.629,2.499,1.155
				c0.306,0.426,0.561,1.207,0.561,2.329v5.219H6.697v-5.134c0-0.493,0-1.87-1.411-1.87c-0.714,0-1.615,0.408-1.615,1.751
				l0.017,5.253H1.156V118.54z"/>
			<path fill="#002D3D" d="M11.39,118.54h2.686v2.193H11.39V118.54z M11.475,122.212h2.516v8.602h-2.516V122.212z"/>
			<path fill="#002D3D" d="M17.951,128.331c0.034,0.544,0.374,1.173,1.428,1.173c0.901,0,1.326-0.51,1.326-1.02
				c0-0.391-0.204-0.697-1.19-0.969l-1.564-0.425c-0.697-0.204-2.176-0.629-2.176-2.38c0-1.666,1.53-2.686,3.757-2.686
				c1.768,0,3.196,0.815,3.264,2.532h-2.295c-0.068-0.951-0.833-1.02-1.224-1.02c-0.68,0-1.19,0.323-1.19,0.85
				c0,0.578,0.425,0.697,1.173,0.901l1.547,0.425c1.564,0.425,2.295,1.224,2.295,2.396c0,1.479-1.275,2.958-3.944,2.958
				c-1.105,0-2.159-0.238-2.94-1.054c-0.561-0.596-0.612-1.275-0.629-1.684H17.951z"/>
			<path fill="#002D3D" d="M33.472,122.025c3.111,0,4.454,2.107,4.454,4.504c0,2.414-1.394,4.59-4.504,4.59
				c-2.448,0-4.386-1.513-4.386-4.521C29.036,124.523,30.09,122.025,33.472,122.025z M33.506,129.368
				c1.105,0,1.853-0.663,1.853-2.94c0-1.139-0.221-2.72-1.887-2.72c-1.836,0-1.853,2.125-1.853,2.906
				C31.62,128.535,32.266,129.368,33.506,129.368z"/>
			<path fill="#002D3D" d="M41.462,122.229l1.581,6.476l1.819-6.476h2.771l1.802,6.476l1.683-6.476h2.499l-2.941,8.584h-2.736
				l-1.768-6.357l-1.802,6.357h-2.771l-2.805-8.584H41.462z"/>
			<path fill="#002D3D" d="M54.96,123.759c0-0.034,0-0.969-0.051-1.563h2.414l0.067,1.292c0.238-0.392,0.918-1.496,2.788-1.496
				c1.683,0,2.396,1.02,2.617,1.615c0.188,0.526,0.238,0.969,0.238,2.566v4.641h-2.566v-5.338c0-0.356,0-0.663-0.136-0.935
				c-0.188-0.374-0.578-0.731-1.225-0.731c-0.544,0-1.036,0.255-1.309,0.663c-0.153,0.222-0.306,0.646-0.306,1.31v5.031H54.96
				V123.759z"/>
			<path fill="#002D3D" d="M70.107,118.54h2.499v4.862c0.289-0.408,0.918-1.292,2.481-1.292c1.275,0,2.091,0.629,2.499,1.155
				c0.306,0.426,0.561,1.207,0.561,2.329v5.219h-2.499v-5.134c0-0.493,0-1.87-1.41-1.87c-0.714,0-1.615,0.408-1.615,1.751
				l0.018,5.253h-2.533V118.54z"/>
			<path fill="#002D3D" d="M82.449,127.158c0,0.562,0,2.295,1.751,2.295c0.629,0,1.258-0.237,1.495-1.189h2.295
				c-0.034,0.408-0.119,1.139-0.815,1.87c-0.629,0.662-1.751,1.002-3.009,1.002c-0.731,0-2.125-0.136-3.026-1.07
				c-0.781-0.816-1.104-1.972-1.104-3.349c0-1.394,0.34-3.06,1.785-4.063c0.663-0.442,1.479-0.714,2.413-0.714
				c1.225,0,2.687,0.476,3.468,2.073c0.578,1.173,0.544,2.431,0.51,3.145H82.449z M85.645,125.578c0-0.392-0.034-1.921-1.496-1.921
				c-1.104,0-1.563,0.918-1.614,1.921H85.645z"/>
			<path fill="#002D3D" d="M95.028,130.813c-0.085-0.527-0.085-0.918-0.085-1.173c-0.951,1.377-2.091,1.377-2.566,1.377
				c-1.241,0-1.802-0.357-2.142-0.681c-0.51-0.51-0.748-1.206-0.748-1.887c0-0.68,0.238-1.938,1.819-2.668
				c1.054-0.477,2.566-0.477,3.399-0.477c0-0.561-0.018-0.833-0.119-1.139c-0.221-0.629-0.884-0.714-1.122-0.714
				c-0.356,0-0.73,0.153-0.952,0.476c-0.187,0.289-0.187,0.562-0.187,0.766h-2.465c0.017-0.459,0.068-1.377,0.969-2.023
				c0.782-0.561,1.785-0.696,2.601-0.696c0.714,0,2.21,0.118,3.06,1.104c0.578,0.697,0.596,1.717,0.596,2.107l0.017,3.451
				c0,0.73,0.051,1.462,0.204,2.176H95.028z M91.936,128.161c0,0.578,0.391,1.225,1.224,1.225c0.459,0,0.833-0.222,1.07-0.493
				c0.442-0.544,0.477-1.207,0.477-2.125C93.091,126.632,91.936,127.142,91.936,128.161z"/>
			<path fill="#002D3D" d="M99.33,118.523h2.517v12.29H99.33V118.523z"/>
			<path fill="#002D3D" d="M109.104,130.694c-0.815,0.221-1.547,0.271-1.955,0.271c-2.532,0-2.532-1.598-2.532-2.312v-4.708h-1.649
				v-1.666h1.649v-1.683l2.499-0.918v2.601h2.039v1.666h-2.039v3.875c0.017,0.782,0.017,1.275,1.139,1.275
				c0.374,0,0.544-0.018,0.85-0.051V130.694z"/>
			<path fill="#002D3D" d="M110.737,118.54h2.499v4.862c0.289-0.408,0.918-1.292,2.481-1.292c1.275,0,2.091,0.629,2.499,1.155
				c0.306,0.426,0.561,1.207,0.561,2.329v5.219h-2.499v-5.134c0-0.493,0-1.87-1.41-1.87c-0.714,0-1.615,0.408-1.615,1.751
				l0.018,5.253h-2.533V118.54z"/>
			<path fill="#002D3D" d="M121.209,128.553h2.159v2.261h-2.159V128.553z"/>
		</g>
		<g>
			<path fill="#002D3D" d="M1.122,142.228h2.635v4.912h4.641v-4.912h2.669v12.29H8.431v-5.389H3.756v5.389H1.122V142.228z"/>
			<path fill="#002D3D" d="M15.385,150.862c0,0.562,0,2.295,1.75,2.295c0.629,0,1.258-0.237,1.496-1.189h2.294
				c-0.034,0.408-0.119,1.139-0.816,1.87c-0.629,0.662-1.75,1.002-3.008,1.002c-0.731,0-2.125-0.136-3.026-1.07
				c-0.782-0.816-1.105-1.972-1.105-3.349c0-1.394,0.34-3.06,1.785-4.063c0.663-0.442,1.479-0.714,2.414-0.714
				c1.224,0,2.686,0.476,3.468,2.073c0.578,1.173,0.544,2.431,0.51,3.145H15.385z M18.58,149.282c0-0.392-0.034-1.921-1.496-1.921
				c-1.105,0-1.564,0.918-1.615,1.921H18.58z"/>
			<path fill="#002D3D" d="M27.607,142.244h2.499v4.862c0.289-0.408,0.917-1.292,2.481-1.292c1.275,0,2.091,0.629,2.499,1.155
				c0.306,0.426,0.561,1.207,0.561,2.329v5.219h-2.499v-5.134c0-0.493,0-1.87-1.411-1.87c-0.714,0-1.615,0.408-1.615,1.751
				l0.017,5.253h-2.533V142.244z"/>
			<path fill="#002D3D" d="M43.077,154.518c-0.086-0.527-0.086-0.918-0.086-1.173c-0.951,1.377-2.09,1.377-2.566,1.377
				c-1.241,0-1.802-0.357-2.142-0.681c-0.51-0.51-0.748-1.206-0.748-1.887c0-0.68,0.238-1.938,1.819-2.668
				c1.054-0.477,2.567-0.477,3.4-0.477c0-0.561-0.018-0.833-0.119-1.139c-0.221-0.629-0.884-0.714-1.122-0.714
				c-0.356,0-0.73,0.153-0.952,0.476c-0.187,0.289-0.187,0.562-0.187,0.766h-2.465c0.017-0.459,0.068-1.377,0.969-2.023
				c0.782-0.561,1.785-0.696,2.601-0.696c0.714,0,2.21,0.118,3.06,1.104c0.578,0.697,0.596,1.717,0.596,2.107l0.017,3.451
				c0,0.73,0.051,1.462,0.204,2.176H43.077z M39.983,151.865c0,0.578,0.391,1.225,1.224,1.225c0.459,0,0.833-0.222,1.07-0.493
				c0.442-0.544,0.477-1.207,0.477-2.125C41.139,150.336,39.983,150.846,39.983,151.865z"/>
			<path fill="#002D3D" d="M49.129,152.035c0.034,0.544,0.374,1.173,1.428,1.173c0.901,0,1.326-0.51,1.326-1.02
				c0-0.391-0.204-0.697-1.189-0.969l-1.564-0.425c-0.696-0.204-2.176-0.629-2.176-2.38c0-1.666,1.53-2.686,3.757-2.686
				c1.768,0,3.195,0.815,3.264,2.532h-2.295c-0.067-0.951-0.833-1.02-1.224-1.02c-0.68,0-1.19,0.323-1.19,0.85
				c0,0.578,0.426,0.697,1.174,0.901l1.547,0.425c1.563,0.425,2.294,1.224,2.294,2.396c0,1.479-1.274,2.958-3.943,2.958
				c-1.104,0-2.159-0.238-2.94-1.054c-0.562-0.596-0.612-1.275-0.629-1.684H49.129z"/>
			<path fill="#002D3D" d="M59.465,156.115c1.139,0.051,1.139-1.02,1.139-1.462v-8.754h2.517v9.383c0,1.615-0.663,2.601-2.805,2.601
				c-0.137,0-0.477,0-0.851-0.067V156.115z M60.519,142.244h2.687v2.193h-2.687V142.244z"/>
			<path fill="#002D3D" d="M67.795,145.934v5.116c0,0.748,0,1.887,1.343,1.887c1.615,0,1.615-1.207,1.615-2.669v-4.334h2.584v5.66
				c0.034,1.853,0.051,2.073,0.051,2.295c0.017,0.237,0.034,0.391,0.068,0.629h-2.448l-0.085-1.139
				c-0.255,0.373-0.9,1.359-2.532,1.359c-1.156,0-2.108-0.527-2.584-1.156c-0.562-0.696-0.562-1.887-0.562-2.312v-5.337H67.795z"/>
			<path fill="#002D3D" d="M77.468,152.035c0.034,0.544,0.374,1.173,1.428,1.173c0.901,0,1.326-0.51,1.326-1.02
				c0-0.391-0.204-0.697-1.189-0.969l-1.564-0.425c-0.696-0.204-2.176-0.629-2.176-2.38c0-1.666,1.53-2.686,3.757-2.686
				c1.768,0,3.195,0.815,3.264,2.532h-2.295c-0.067-0.951-0.833-1.02-1.224-1.02c-0.68,0-1.189,0.323-1.189,0.85
				c0,0.578,0.425,0.697,1.173,0.901l1.546,0.425c1.564,0.425,2.295,1.224,2.295,2.396c0,1.479-1.274,2.958-3.943,2.958
				c-1.104,0-2.158-0.238-2.94-1.054c-0.562-0.596-0.612-1.275-0.629-1.684H77.468z"/>
			<path fill="#002D3D" d="M89.266,154.398c-0.815,0.221-1.547,0.271-1.955,0.271c-2.532,0-2.532-1.598-2.532-2.312v-4.708h-1.649
				v-1.666h1.649v-1.683l2.499-0.918v2.601h2.039v1.666h-2.039v3.875c0.017,0.782,0.017,1.275,1.139,1.275
				c0.374,0,0.544-0.018,0.85-0.051V154.398z"/>
			<path fill="#002D3D" d="M97.307,152.035c0.034,0.544,0.374,1.173,1.428,1.173c0.901,0,1.326-0.51,1.326-1.02
				c0-0.391-0.204-0.697-1.189-0.969l-1.564-0.425c-0.696-0.204-2.176-0.629-2.176-2.38c0-1.666,1.53-2.686,3.757-2.686
				c1.768,0,3.195,0.815,3.264,2.532h-2.295c-0.067-0.951-0.833-1.02-1.224-1.02c-0.68,0-1.19,0.323-1.19,0.85
				c0,0.578,0.426,0.697,1.174,0.901l1.547,0.425c1.563,0.425,2.294,1.224,2.294,2.396c0,1.479-1.274,2.958-3.943,2.958
				c-1.104,0-2.159-0.238-2.94-1.054c-0.562-0.596-0.612-1.275-0.629-1.684H97.307z"/>
			<path fill="#002D3D" d="M109.104,154.398c-0.815,0.221-1.547,0.271-1.955,0.271c-2.532,0-2.532-1.598-2.532-2.312v-4.708h-1.649
				v-1.666h1.649v-1.683l2.499-0.918v2.601h2.039v1.666h-2.039v3.875c0.017,0.782,0.017,1.275,1.139,1.275
				c0.374,0,0.544-0.018,0.85-0.051V154.398z"/>
			<path fill="#002D3D" d="M115.819,154.518c-0.085-0.527-0.085-0.918-0.085-1.173c-0.951,1.377-2.091,1.377-2.566,1.377
				c-1.241,0-1.802-0.357-2.142-0.681c-0.51-0.51-0.748-1.206-0.748-1.887c0-0.68,0.238-1.938,1.819-2.668
				c1.054-0.477,2.566-0.477,3.399-0.477c0-0.561-0.018-0.833-0.119-1.139c-0.221-0.629-0.884-0.714-1.122-0.714
				c-0.356,0-0.73,0.153-0.952,0.476c-0.187,0.289-0.187,0.562-0.187,0.766h-2.465c0.017-0.459,0.068-1.377,0.969-2.023
				c0.782-0.561,1.785-0.696,2.601-0.696c0.714,0,2.21,0.118,3.06,1.104c0.578,0.697,0.596,1.717,0.596,2.107l0.017,3.451
				c0,0.73,0.051,1.462,0.204,2.176H115.819z M112.727,151.865c0,0.578,0.391,1.225,1.224,1.225c0.459,0,0.833-0.222,1.07-0.493
				c0.442-0.544,0.477-1.207,0.477-2.125C113.882,150.336,112.727,150.846,112.727,151.865z"/>
			<path fill="#002D3D" d="M120.121,148.041c0-0.408-0.067-1.648-0.118-2.142h2.362l0.051,1.648c0.323-0.73,0.884-1.768,2.924-1.666
				v2.261c-2.55-0.237-2.702,1.071-2.702,2.143v4.232h-2.517V148.041z"/>
			<path fill="#002D3D" d="M131.782,154.398c-0.815,0.221-1.547,0.271-1.955,0.271c-2.532,0-2.532-1.598-2.532-2.312v-4.708h-1.649
				v-1.666h1.649v-1.683l2.499-0.918v2.601h2.039v1.666h-2.039v3.875c0.017,0.782,0.017,1.275,1.139,1.275
				c0.374,0,0.544-0.018,0.85-0.051V154.398z"/>
			<path fill="#002D3D" d="M135.37,150.862c0,0.562,0,2.295,1.751,2.295c0.629,0,1.258-0.237,1.495-1.189h2.295
				c-0.034,0.408-0.119,1.139-0.815,1.87c-0.629,0.662-1.751,1.002-3.009,1.002c-0.731,0-2.125-0.136-3.026-1.07
				c-0.781-0.816-1.104-1.972-1.104-3.349c0-1.394,0.34-3.06,1.785-4.063c0.663-0.442,1.479-0.714,2.413-0.714
				c1.225,0,2.687,0.476,3.468,2.073c0.578,1.173,0.544,2.431,0.51,3.145H135.37z M138.565,149.282c0-0.392-0.034-1.921-1.496-1.921
				c-1.104,0-1.563,0.918-1.614,1.921H138.565z"/>
			<path fill="#002D3D" d="M148.477,142.244h2.533v10.879c0,0.511,0.033,1.071,0.067,1.395h-2.55l-0.067-1.241
				c-0.17,0.306-0.34,0.629-0.867,0.969c-0.629,0.408-1.292,0.442-1.666,0.442c-2.295,0-3.654-1.581-3.654-4.267
				c0-2.839,1.547-4.606,3.79-4.606c1.547,0,2.193,0.866,2.414,1.173V142.244z M146.556,153.056c0.731,0,1.326-0.442,1.598-0.969
				c0.374-0.714,0.408-1.599,0.408-2.023c0-1.683-0.73-2.601-1.87-2.601c-1.683,0-1.869,2.023-1.869,2.89
				C144.822,151.78,145.298,153.056,146.556,153.056z"/>
		</g>
		<g>
			<path fill="#002D3D" d="M1.088,171.746c0-0.408-0.068-1.648-0.119-2.142h2.363l0.051,1.648c0.323-0.73,0.884-1.768,2.923-1.666
				v2.261c-2.55-0.237-2.703,1.071-2.703,2.143v4.232H1.088V171.746z"/>
			<path fill="#002D3D" d="M10.166,169.639v5.116c0,0.748,0,1.887,1.343,1.887c1.615,0,1.615-1.207,1.615-2.669v-4.334h2.584v5.66
				c0.034,1.853,0.051,2.073,0.051,2.295c0.017,0.237,0.034,0.391,0.068,0.629h-2.448l-0.085-1.139
				c-0.255,0.373-0.901,1.359-2.533,1.359c-1.156,0-2.108-0.527-2.583-1.156c-0.561-0.696-0.561-1.887-0.561-2.312v-5.337H10.166z"
				/>
			<path fill="#002D3D" d="M18.121,171.168c0-0.034,0-0.969-0.051-1.563h2.414l0.068,1.292c0.238-0.392,0.917-1.496,2.788-1.496
				c1.683,0,2.396,1.02,2.618,1.615c0.187,0.526,0.238,0.969,0.238,2.566v4.641h-2.566v-5.338c0-0.356,0-0.663-0.136-0.935
				c-0.187-0.374-0.578-0.731-1.224-0.731c-0.544,0-1.037,0.255-1.309,0.663c-0.153,0.222-0.306,0.646-0.306,1.31v5.031h-2.533
				V171.168z"/>
			<path fill="#002D3D" d="M28.508,171.168c0-0.034,0-0.969-0.051-1.563h2.414l0.068,1.292c0.238-0.392,0.918-1.496,2.788-1.496
				c1.683,0,2.396,1.02,2.618,1.615c0.187,0.526,0.238,0.969,0.238,2.566v4.641h-2.566v-5.338c0-0.356,0-0.663-0.136-0.935
				c-0.187-0.374-0.578-0.731-1.224-0.731c-0.544,0-1.037,0.255-1.309,0.663c-0.153,0.222-0.306,0.646-0.306,1.31v5.031h-2.533
				V171.168z"/>
			<path fill="#002D3D" d="M38.776,165.949h2.686v2.193h-2.686V165.949z M38.861,169.621h2.516v8.602h-2.516V169.621z"/>
			<path fill="#002D3D" d="M43.621,171.168c0-0.034,0-0.969-0.051-1.563h2.414l0.067,1.292c0.238-0.392,0.918-1.496,2.788-1.496
				c1.683,0,2.396,1.02,2.618,1.615c0.187,0.526,0.237,0.969,0.237,2.566v4.641h-2.566v-5.338c0-0.356,0-0.663-0.136-0.935
				c-0.188-0.374-0.578-0.731-1.225-0.731c-0.544,0-1.036,0.255-1.309,0.663c-0.153,0.222-0.306,0.646-0.306,1.31v5.031h-2.533
				V171.168z"/>
			<path fill="#002D3D" d="M62.116,169.672c-0.068,0.681-0.119,1.258-0.119,2.125v6.341c0,3.161-2.635,3.468-4.283,3.468
				c-1.224,0-3.621-0.153-3.773-2.754h2.413c0.034,0.255,0.153,1.189,1.496,1.189c0.748,0,1.394-0.356,1.563-1.122
				c0.103-0.425,0.103-0.73,0.119-2.039c-0.799,1.054-1.699,1.173-2.312,1.173c-2.465,0-3.621-2.142-3.621-4.216
				c0-2.176,1.207-4.25,3.672-4.25c1.564,0,2.142,0.851,2.397,1.225l0.085-1.14H62.116z M57.799,176.336
				c1.768,0,1.768-2.074,1.768-2.448c0-0.969-0.187-2.617-1.717-2.617c-0.952,0-1.733,0.73-1.733,2.566
				C56.116,174.262,56.116,176.336,57.799,176.336z"/>
			<path fill="#002D3D" d="M74.237,178.223c-0.085-0.527-0.085-0.918-0.085-1.173c-0.951,1.377-2.091,1.377-2.566,1.377
				c-1.241,0-1.802-0.357-2.142-0.681c-0.51-0.51-0.748-1.206-0.748-1.887c0-0.68,0.238-1.938,1.819-2.668
				c1.054-0.477,2.566-0.477,3.399-0.477c0-0.561-0.018-0.833-0.119-1.139c-0.221-0.629-0.884-0.714-1.122-0.714
				c-0.356,0-0.73,0.153-0.952,0.476c-0.187,0.289-0.187,0.562-0.187,0.766H69.07c0.017-0.459,0.068-1.377,0.969-2.023
				c0.782-0.561,1.785-0.696,2.601-0.696c0.714,0,2.21,0.118,3.06,1.104c0.578,0.697,0.596,1.717,0.596,2.107l0.017,3.451
				c0,0.73,0.051,1.462,0.204,2.176H74.237z M71.145,175.57c0,0.578,0.391,1.225,1.224,1.225c0.459,0,0.833-0.222,1.07-0.493
				c0.442-0.544,0.477-1.207,0.477-2.125C72.3,174.041,71.145,174.551,71.145,175.57z"/>
			<path fill="#002D3D" d="M78.573,171.168c0-0.034,0-0.969-0.051-1.563h2.414l0.067,1.292c0.238-0.392,0.918-1.496,2.788-1.496
				c1.683,0,2.396,1.02,2.617,1.615c0.188,0.526,0.238,0.969,0.238,2.566v4.641h-2.566v-5.338c0-0.356,0-0.663-0.136-0.935
				c-0.188-0.374-0.578-0.731-1.225-0.731c-0.544,0-1.036,0.255-1.309,0.663c-0.153,0.222-0.306,0.646-0.306,1.31v5.031h-2.533
				V171.168z"/>
			<path fill="#002D3D" d="M94.604,165.949h2.533v10.879c0,0.511,0.033,1.071,0.067,1.395h-2.55l-0.067-1.241
				c-0.17,0.306-0.34,0.629-0.867,0.969c-0.629,0.408-1.292,0.442-1.666,0.442c-2.295,0-3.654-1.581-3.654-4.267
				c0-2.839,1.547-4.606,3.79-4.606c1.547,0,2.193,0.866,2.414,1.173V165.949z M92.683,176.761c0.731,0,1.326-0.442,1.598-0.969
				c0.374-0.714,0.408-1.599,0.408-2.023c0-1.683-0.73-2.601-1.87-2.601c-1.683,0-1.869,2.023-1.869,2.89
				C90.949,175.485,91.425,176.761,92.683,176.761z"/>
			<path fill="#002D3D" d="M105.688,169.639l1.581,6.476l1.818-6.476h2.771l1.802,6.476l1.684-6.476h2.498l-2.94,8.584h-2.736
				l-1.769-6.357l-1.802,6.357h-2.771l-2.805-8.584H105.688z"/>
			<path fill="#002D3D" d="M124.302,178.223c-0.085-0.527-0.085-0.918-0.085-1.173c-0.951,1.377-2.091,1.377-2.566,1.377
				c-1.241,0-1.802-0.357-2.142-0.681c-0.51-0.51-0.748-1.206-0.748-1.887c0-0.68,0.238-1.938,1.819-2.668
				c1.054-0.477,2.566-0.477,3.399-0.477c0-0.561-0.018-0.833-0.119-1.139c-0.221-0.629-0.884-0.714-1.122-0.714
				c-0.356,0-0.73,0.153-0.952,0.476c-0.187,0.289-0.187,0.562-0.187,0.766h-2.465c0.017-0.459,0.068-1.377,0.969-2.023
				c0.782-0.561,1.785-0.696,2.601-0.696c0.714,0,2.21,0.118,3.06,1.104c0.578,0.697,0.596,1.717,0.596,2.107l0.017,3.451
				c0,0.73,0.051,1.462,0.204,2.176H124.302z M121.209,175.57c0,0.578,0.391,1.225,1.224,1.225c0.459,0,0.833-0.222,1.07-0.493
				c0.442-0.544,0.477-1.207,0.477-2.125C122.364,174.041,121.209,174.551,121.209,175.57z"/>
			<path fill="#002D3D" d="M128.638,171.168c0-0.034,0-0.969-0.051-1.563h2.414l0.067,1.292c0.238-0.392,0.918-1.496,2.788-1.496
				c1.683,0,2.396,1.02,2.617,1.615c0.188,0.526,0.238,0.969,0.238,2.566v4.641h-2.566v-5.338c0-0.356,0-0.663-0.136-0.935
				c-0.188-0.374-0.578-0.731-1.225-0.731c-0.544,0-1.036,0.255-1.309,0.663c-0.153,0.222-0.306,0.646-0.306,1.31v5.031h-2.533
				V171.168z"/>
			<path fill="#002D3D" d="M144.039,178.104c-0.815,0.221-1.547,0.271-1.955,0.271c-2.532,0-2.532-1.598-2.532-2.312v-4.708h-1.649
				v-1.666h1.649v-1.683l2.499-0.918v2.601h2.039v1.666h-2.039v3.875c0.017,0.782,0.017,1.275,1.139,1.275
				c0.374,0,0.544-0.018,0.85-0.051V178.104z"/>
			<path fill="#002D3D" d="M147.626,174.567c0,0.562,0,2.295,1.751,2.295c0.629,0,1.258-0.237,1.495-1.189h2.295
				c-0.034,0.408-0.119,1.139-0.815,1.87c-0.629,0.662-1.751,1.002-3.009,1.002c-0.731,0-2.125-0.136-3.026-1.07
				c-0.781-0.816-1.104-1.972-1.104-3.349c0-1.394,0.34-3.06,1.785-4.063c0.663-0.442,1.479-0.714,2.413-0.714
				c1.225,0,2.687,0.476,3.468,2.073c0.578,1.173,0.544,2.431,0.51,3.145H147.626z M150.821,172.987
				c0-0.392-0.034-1.921-1.496-1.921c-1.104,0-1.563,0.918-1.614,1.921H150.821z"/>
			<path fill="#002D3D" d="M160.732,165.949h2.533v10.879c0,0.511,0.033,1.071,0.067,1.395h-2.55l-0.067-1.241
				c-0.17,0.306-0.34,0.629-0.867,0.969c-0.629,0.408-1.292,0.442-1.666,0.442c-2.295,0-3.654-1.581-3.654-4.267
				c0-2.839,1.547-4.606,3.79-4.606c1.547,0,2.193,0.866,2.414,1.173V165.949z M158.812,176.761c0.731,0,1.326-0.442,1.598-0.969
				c0.374-0.714,0.408-1.599,0.408-2.023c0-1.683-0.73-2.601-1.87-2.601c-1.683,0-1.869,2.023-1.869,2.89
				C157.078,175.485,157.554,176.761,158.812,176.761z"/>
			<path fill="#002D3D" d="M6.136,202.503c-0.816,0.222-1.547,0.272-1.955,0.272c-2.533,0-2.533-1.598-2.533-2.312v-4.709H0v-1.666
				h1.649v-1.683l2.499-0.918v2.601h2.04v1.666h-2.04v3.876c0.017,0.781,0.017,1.274,1.139,1.274c0.374,0,0.544-0.017,0.85-0.051
				V202.503z"/>
			<path fill="#002D3D" d="M11.746,193.834c3.111,0,4.454,2.108,4.454,4.505c0,2.414-1.394,4.59-4.504,4.59
				c-2.448,0-4.386-1.514-4.386-4.521C7.31,196.333,8.363,193.834,11.746,193.834z M11.78,201.178c1.105,0,1.853-0.663,1.853-2.941
				c0-1.139-0.221-2.72-1.887-2.72c-1.836,0-1.853,2.125-1.853,2.907C9.894,200.345,10.539,201.178,11.78,201.178z"/>
			<path fill="#002D3D" d="M24.836,198.968c0,0.561,0,2.295,1.751,2.295c0.629,0,1.258-0.238,1.496-1.19h2.294
				c-0.034,0.408-0.119,1.14-0.816,1.87c-0.629,0.663-1.75,1.003-3.008,1.003c-0.731,0-2.125-0.136-3.026-1.071
				c-0.782-0.815-1.105-1.972-1.105-3.349c0-1.394,0.34-3.06,1.785-4.063c0.663-0.441,1.479-0.714,2.414-0.714
				c1.224,0,2.686,0.477,3.468,2.074c0.578,1.173,0.544,2.431,0.51,3.145H24.836z M28.032,197.387c0-0.391-0.034-1.921-1.496-1.921
				c-1.105,0-1.564,0.918-1.615,1.921H28.032z"/>
			<path fill="#002D3D" d="M33.965,194.038l1.938,5.83l1.972-5.83h2.431l-3.094,8.584h-2.788l-3.145-8.584H33.965z"/>
			<path fill="#002D3D" d="M43.74,198.968c0,0.561,0,2.295,1.751,2.295c0.629,0,1.258-0.238,1.495-1.19h2.295
				c-0.034,0.408-0.119,1.14-0.815,1.87c-0.629,0.663-1.751,1.003-3.009,1.003c-0.731,0-2.125-0.136-3.026-1.071
				c-0.781-0.815-1.104-1.972-1.104-3.349c0-1.394,0.34-3.06,1.785-4.063c0.663-0.441,1.479-0.714,2.413-0.714
				c1.225,0,2.687,0.477,3.468,2.074c0.578,1.173,0.544,2.431,0.51,3.145H43.74z M46.936,197.387c0-0.391-0.034-1.921-1.496-1.921
				c-1.104,0-1.563,0.918-1.614,1.921H46.936z"/>
			<path fill="#002D3D" d="M51.203,195.568c0-0.034,0-0.969-0.051-1.564h2.414l0.067,1.292c0.238-0.391,0.918-1.496,2.788-1.496
				c1.683,0,2.396,1.021,2.618,1.615c0.187,0.527,0.237,0.969,0.237,2.566v4.641h-2.566v-5.337c0-0.357,0-0.663-0.136-0.936
				c-0.188-0.374-0.578-0.73-1.225-0.73c-0.544,0-1.036,0.255-1.309,0.663c-0.153,0.221-0.306,0.646-0.306,1.309v5.031h-2.533
				V195.568z"/>
			<path fill="#002D3D" d="M66.604,202.503c-0.815,0.222-1.547,0.272-1.955,0.272c-2.532,0-2.532-1.598-2.532-2.312v-4.709h-1.649
				v-1.666h1.649v-1.683l2.499-0.918v2.601h2.039v1.666h-2.039v3.876c0.017,0.781,0.017,1.274,1.139,1.274
				c0.374,0,0.544-0.017,0.85-0.051V202.503z"/>
			<path fill="#002D3D" d="M70.634,194.038v5.116c0,0.748,0,1.887,1.343,1.887c1.615,0,1.615-1.206,1.615-2.668v-4.335h2.584v5.66
				c0.034,1.854,0.051,2.074,0.051,2.295c0.017,0.238,0.034,0.392,0.068,0.629h-2.448l-0.085-1.139
				c-0.255,0.374-0.9,1.36-2.532,1.36c-1.156,0-2.108-0.527-2.584-1.156c-0.562-0.697-0.562-1.887-0.562-2.312v-5.338H70.634z"/>
			<path fill="#002D3D" d="M83.706,202.622c-0.085-0.526-0.085-0.918-0.085-1.173c-0.951,1.377-2.091,1.377-2.566,1.377
				c-1.241,0-1.802-0.356-2.142-0.68c-0.51-0.51-0.748-1.207-0.748-1.887s0.238-1.938,1.819-2.669
				c1.054-0.476,2.566-0.476,3.399-0.476c0-0.562-0.018-0.833-0.119-1.14c-0.221-0.629-0.884-0.714-1.122-0.714
				c-0.356,0-0.73,0.153-0.952,0.477c-0.187,0.289-0.187,0.561-0.187,0.765h-2.465c0.017-0.459,0.068-1.377,0.969-2.022
				c0.782-0.562,1.785-0.697,2.601-0.697c0.714,0,2.21,0.119,3.06,1.104c0.578,0.697,0.596,1.717,0.596,2.108l0.017,3.45
				c0,0.731,0.051,1.462,0.204,2.176H83.706z M80.613,199.971c0,0.578,0.391,1.224,1.224,1.224c0.459,0,0.833-0.221,1.07-0.493
				c0.442-0.544,0.477-1.206,0.477-2.124C81.769,198.44,80.613,198.951,80.613,199.971z"/>
			<path fill="#002D3D" d="M88.008,190.333h2.517v12.289h-2.517V190.333z"/>
			<path fill="#002D3D" d="M92.733,190.333h2.517v12.289h-2.517V190.333z"/>
			<path fill="#002D3D" d="M99.313,194.038l1.887,5.949l1.921-5.949h2.498l-3.246,8.432l-1.037,3.416h-2.532l1.088-3.229
				l-3.298-8.618H99.313z"/>
			<path fill="#002D3D" d="M111.859,195.823h-1.292v-1.785h1.292v-1.173c0-1.513,0.492-2.736,2.94-2.736
				c0.187,0,0.663,0,1.359,0.085v1.751c-0.255-0.034-0.322-0.052-0.526-0.052c-1.275,0-1.275,0.681-1.275,1.122v1.003h1.581v1.785
				h-1.581v6.799h-2.498V195.823z M117.214,190.35h2.686v2.192h-2.686V190.35z M117.299,194.021h2.516v8.601h-2.516V194.021z"/>
			<path fill="#002D3D" d="M122.059,195.568c0-0.034,0-0.969-0.051-1.564h2.414l0.067,1.292c0.238-0.391,0.918-1.496,2.788-1.496
				c1.683,0,2.396,1.021,2.618,1.615c0.187,0.527,0.237,0.969,0.237,2.566v4.641h-2.566v-5.337c0-0.357,0-0.663-0.136-0.936
				c-0.188-0.374-0.578-0.73-1.225-0.73c-0.544,0-1.036,0.255-1.309,0.663c-0.153,0.221-0.306,0.646-0.306,1.309v5.031h-2.533
				V195.568z"/>
			<path fill="#002D3D" d="M132.326,190.35h2.687v2.192h-2.687V190.35z M132.411,194.021h2.517v8.601h-2.517V194.021z"/>
			<path fill="#002D3D" d="M138.889,200.141c0.034,0.544,0.374,1.173,1.428,1.173c0.901,0,1.326-0.51,1.326-1.02
				c0-0.392-0.204-0.697-1.189-0.97l-1.564-0.425c-0.696-0.204-2.176-0.629-2.176-2.38c0-1.665,1.53-2.686,3.757-2.686
				c1.768,0,3.195,0.816,3.264,2.533h-2.295c-0.067-0.952-0.833-1.021-1.224-1.021c-0.68,0-1.19,0.323-1.19,0.851
				c0,0.578,0.426,0.696,1.174,0.9l1.547,0.425c1.563,0.426,2.294,1.225,2.294,2.397c0,1.479-1.274,2.957-3.943,2.957
				c-1.104,0-2.159-0.237-2.94-1.054c-0.562-0.595-0.612-1.274-0.629-1.683H138.889z"/>
			<path fill="#002D3D" d="M145.706,190.35h2.499v4.861c0.289-0.408,0.918-1.292,2.481-1.292c1.275,0,2.091,0.629,2.499,1.156
				c0.306,0.425,0.561,1.207,0.561,2.329v5.218h-2.499v-5.133c0-0.493,0-1.87-1.41-1.87c-0.714,0-1.615,0.408-1.615,1.751
				l0.018,5.252h-2.533V190.35z"/>
		</g>
		<g>
			<path fill="#002D3D" d="M6.238,225.632c-0.085-0.527-0.085-0.918-0.085-1.173c-0.952,1.377-2.091,1.377-2.567,1.377
				c-1.241,0-1.802-0.357-2.142-0.681c-0.51-0.51-0.748-1.206-0.748-1.887c0-0.68,0.238-1.938,1.819-2.668
				c1.054-0.477,2.567-0.477,3.4-0.477c0-0.561-0.017-0.833-0.119-1.139c-0.221-0.629-0.884-0.714-1.122-0.714
				c-0.357,0-0.731,0.153-0.952,0.476c-0.187,0.289-0.187,0.562-0.187,0.766H1.071c0.017-0.459,0.068-1.377,0.969-2.023
				c0.782-0.561,1.785-0.696,2.601-0.696c0.714,0,2.209,0.118,3.06,1.104c0.578,0.697,0.595,1.717,0.595,2.107l0.017,3.451
				c0,0.73,0.051,1.462,0.204,2.176H6.238z M3.145,222.979c0,0.578,0.391,1.225,1.224,1.225c0.459,0,0.833-0.222,1.071-0.493
				c0.442-0.544,0.476-1.207,0.476-2.125C4.3,221.45,3.145,221.96,3.145,222.979z"/>
			<path fill="#002D3D" d="M15.317,218.662c0-0.544-0.034-1.07-0.085-1.614h2.431l0.085,1.104c0.272-0.374,0.935-1.292,2.652-1.292
				c1.972,0,2.533,1.207,2.703,1.615c0.714-1.377,1.87-1.598,2.754-1.598c1.734,0,2.431,1.036,2.618,1.376
				c0.459,0.748,0.425,1.785,0.425,2.533v4.845h-2.533v-5.049c0-0.918-0.136-1.938-1.445-1.938c-1.513,0-1.547,1.411-1.547,2.686
				v4.301h-2.533v-5.1c0-0.663-0.017-1.887-1.411-1.887c-1.581,0-1.581,1.359-1.581,1.938v5.049h-2.533V218.662z"/>
			<path fill="#002D3D" d="M36.464,225.632c-0.085-0.527-0.085-0.918-0.085-1.173c-0.952,1.377-2.091,1.377-2.567,1.377
				c-1.241,0-1.802-0.357-2.142-0.681c-0.51-0.51-0.748-1.206-0.748-1.887c0-0.68,0.238-1.938,1.819-2.668
				c1.054-0.477,2.567-0.477,3.4-0.477c0-0.561-0.017-0.833-0.119-1.139c-0.221-0.629-0.884-0.714-1.122-0.714
				c-0.357,0-0.731,0.153-0.952,0.476c-0.187,0.289-0.187,0.562-0.187,0.766h-2.465c0.017-0.459,0.068-1.377,0.969-2.023
				c0.782-0.561,1.785-0.696,2.601-0.696c0.714,0,2.209,0.118,3.06,1.104c0.578,0.697,0.595,1.717,0.595,2.107l0.017,3.451
				c0,0.73,0.051,1.462,0.204,2.176H36.464z M33.37,222.979c0,0.578,0.391,1.225,1.224,1.225c0.459,0,0.833-0.222,1.071-0.493
				c0.442-0.544,0.476-1.207,0.476-2.125C34.526,221.45,33.37,221.96,33.37,222.979z"/>
			<path fill="#002D3D" d="M40.766,219.155c0-0.408-0.067-1.648-0.118-2.142h2.362l0.051,1.648c0.323-0.73,0.884-1.768,2.924-1.666
				v2.261c-2.55-0.237-2.702,1.071-2.702,2.143v4.232h-2.517V219.155z"/>
			<path fill="#002D3D" d="M52.528,225.632c-0.085-0.527-0.085-0.918-0.085-1.173c-0.951,1.377-2.091,1.377-2.566,1.377
				c-1.241,0-1.802-0.357-2.142-0.681c-0.51-0.51-0.748-1.206-0.748-1.887c0-0.68,0.238-1.938,1.819-2.668
				c1.054-0.477,2.566-0.477,3.399-0.477c0-0.561-0.018-0.833-0.119-1.139c-0.221-0.629-0.884-0.714-1.122-0.714
				c-0.356,0-0.73,0.153-0.952,0.476c-0.187,0.289-0.187,0.562-0.187,0.766h-2.465c0.017-0.459,0.068-1.377,0.969-2.023
				c0.782-0.561,1.785-0.696,2.601-0.696c0.714,0,2.21,0.118,3.06,1.104c0.578,0.697,0.596,1.717,0.596,2.107l0.017,3.451
				c0,0.73,0.051,1.462,0.204,2.176H52.528z M49.436,222.979c0,0.578,0.391,1.225,1.224,1.225c0.459,0,0.833-0.222,1.07-0.493
				c0.442-0.544,0.477-1.207,0.477-2.125C50.591,221.45,49.436,221.96,49.436,222.979z"/>
			<path fill="#002D3D" d="M61.879,225.513c-0.815,0.221-1.547,0.271-1.955,0.271c-2.532,0-2.532-1.598-2.532-2.312v-4.708h-1.649
				v-1.666h1.649v-1.683l2.499-0.918v2.601h2.039v1.666h-2.039v3.875c0.017,0.782,0.017,1.275,1.139,1.275
				c0.374,0,0.544-0.018,0.85-0.051V225.513z"/>
			<path fill="#002D3D" d="M63.512,213.358h2.499v4.862c0.289-0.408,0.918-1.292,2.481-1.292c1.275,0,2.091,0.629,2.499,1.155
				c0.306,0.426,0.561,1.207,0.561,2.329v5.219h-2.499v-5.134c0-0.493,0-1.87-1.41-1.87c-0.714,0-1.615,0.408-1.615,1.751
				l0.018,5.253h-2.533V213.358z"/>
			<path fill="#002D3D" d="M77.876,216.844c3.11,0,4.454,2.107,4.454,4.504c0,2.414-1.395,4.59-4.505,4.59
				c-2.448,0-4.386-1.513-4.386-4.521C73.439,219.342,74.493,216.844,77.876,216.844z M77.91,224.187
				c1.104,0,1.853-0.663,1.853-2.94c0-1.139-0.221-2.72-1.887-2.72c-1.836,0-1.853,2.125-1.853,2.906
				C76.023,223.354,76.669,224.187,77.91,224.187z"/>
			<path fill="#002D3D" d="M84.251,218.577c0-0.034,0-0.969-0.051-1.563h2.414l0.067,1.292c0.238-0.392,0.918-1.496,2.788-1.496
				c1.683,0,2.396,1.02,2.617,1.615c0.188,0.526,0.238,0.969,0.238,2.566v4.641h-2.566v-5.338c0-0.356,0-0.663-0.136-0.935
				c-0.188-0.374-0.578-0.731-1.225-0.731c-0.544,0-1.036,0.255-1.309,0.663c-0.153,0.222-0.306,0.646-0.306,1.31v5.031h-2.533
				V218.577z"/>
			<path fill="#002D3D" d="M94.757,223.371h2.159v2.261h-2.159V223.371z"/>
			<path fill="#002D3D" d="M99.363,215.926l2.584,0.374l-1.598-2.023l1.581-0.866l0.951,2.346l1.003-2.397l1.581,0.936L103.8,216.3
				l2.601-0.307l-0.033,1.802l-2.533-0.391l1.598,2.091l-1.581,0.867l-0.985-2.396l-0.986,2.413l-1.529-0.918l1.581-2.073
				l-2.567,0.34V215.926z"/>
		</g>
	</g>
</g>
</svg>
