<?xml version="1.0" encoding="utf-8"?>
<!-- Generator: Adobe Illustrator 17.0.0, SVG Export Plug-In . SVG Version: 6.00 Build 0)  -->
<!DOCTYPE svg PUBLIC "-//W3C//DTD SVG 1.1//EN" "http://www.w3.org/Graphics/SVG/1.1/DTD/svg11.dtd">
<svg version="1.1" id="Layer_1" xmlns="http://www.w3.org/2000/svg" xmlns:xlink="http://www.w3.org/1999/xlink" x="0px" y="0px"
	 width="485.357px" height="41.73px" viewBox="0 0 485.357 41.73" enable-background="new 0 0 485.357 41.73" xml:space="preserve">
<g>
	<path d="M0,14.133l1.141-1.374l1.5-1.796c2.071-2.606,3.113-4.723,3.127-6.35C5.762,3.281,5.11,2.605,3.814,2.584
		C2.687,2.605,2.103,3.099,2.061,4.063L2.05,4.645v0.465H0.127V4.465c0.028-1.811,0.729-2.912,2.103-3.307
		C2.736,1.01,3.271,0.937,3.835,0.937c2.542,0.007,3.828,1.197,3.856,3.571c0.007,1.295-0.507,2.75-1.542,4.363
		c-0.584,0.908-1.521,2.158-2.81,3.75l-1.437,1.744H7.86v1.647H0V14.133z"/>
	<path d="M17.687,11.364c0,0.704-0.042,1.338-0.127,1.901c-0.155,1.008-0.592,1.747-1.31,2.219c-0.768,0.5-1.603,0.746-2.504,0.74
		c-0.563,0.006-1.106-0.092-1.627-0.297c-1.296-0.465-2.029-1.352-2.198-2.662c-0.084-0.542-0.123-1.176-0.116-1.901V5.701
		c0-0.746,0.035-1.405,0.105-1.976c0.099-0.951,0.539-1.665,1.321-2.146c0.683-0.429,1.521-0.644,2.515-0.644
		c1.507,0,2.592,0.43,3.254,1.288c0.451,0.586,0.68,1.744,0.687,3.477V11.364z M15.764,5.69c0-0.408-0.015-0.81-0.042-1.204
		c-0.07-1.275-0.74-1.908-2.007-1.902c-0.909,0-1.497,0.332-1.765,0.994c-0.155,0.387-0.229,1.092-0.222,2.112v5.685l0.063,1.057
		c0.105,1.43,0.757,2.145,1.955,2.145c1.127,0,1.778-0.715,1.955-2.145c0.042-0.381,0.063-0.732,0.063-1.057V5.69z"/>
	<path d="M19.587,3.081l0.919-0.56c0.282-0.184,0.634-0.458,1.057-0.824l0.645-0.55h1.595v14.865H21.88V3.451l-0.708,0.56
		c-0.296,0.232-0.581,0.412-0.856,0.538l-0.729,0.297V3.081z"/>
	<path d="M29.878,11.775v1.016c-0.007,0.465,0.148,0.895,0.465,1.288c0.281,0.339,0.697,0.504,1.247,0.497
		c1.268,0.014,2.011-0.535,2.229-1.648c0.063-0.311,0.095-0.648,0.095-1.014c0-0.627-0.067-1.184-0.201-1.67
		c-0.12-0.416-0.349-0.74-0.687-0.973c-0.367-0.253-0.958-0.391-1.775-0.411V7.212l0.951-0.105c0.43-0.063,0.768-0.187,1.014-0.37
		c0.253-0.189,0.426-0.459,0.518-0.809c0.092-0.348,0.138-0.723,0.138-1.125c-0.007-0.76-0.12-1.299-0.338-1.616
		c-0.274-0.394-0.771-0.595-1.49-0.603c-1.331,0.008-1.993,0.768-1.986,2.283v0.338h-1.923V4.697
		c-0.007-2.473,1.254-3.726,3.783-3.761c0.648,0,1.268,0.099,1.859,0.296c0.972,0.331,1.578,0.922,1.817,1.774
		c0.134,0.479,0.201,1.004,0.201,1.574c-0.021,1.733-0.486,2.808-1.395,3.223l-0.708,0.274l0.645,0.223
		c0.838,0.345,1.31,1,1.416,1.965c0.056,0.472,0.084,0.957,0.084,1.457c0,1.586-0.292,2.695-0.877,3.328
		c-0.704,0.768-1.771,1.159-3.201,1.174c-1.24,0-2.18-0.332-2.821-0.994c-0.676-0.703-1.004-1.651-0.982-2.842v-0.613H29.878z"/>
	<path d="M46.096,1.115h2.694l3.434,14.897h-2.155l-0.708-3.401h-3.983l-0.729,3.401h-1.986L46.096,1.115z M45.726,10.931h3.254
		l-1.574-7.935L45.726,10.931z"/>
	<path d="M60.094,5.057l-0.011-0.697c-0.049-1.19-0.627-1.781-1.732-1.775c-0.979,0.008-1.617,0.321-1.913,0.941
		c-0.162,0.303-0.25,0.605-0.264,0.908l-0.021,1.225v5.875c0.007,1.063,0.092,1.75,0.254,2.061c0.338,0.633,0.922,0.95,1.753,0.95
		c1.092-0.007,1.708-0.641,1.849-1.901l0.084-0.961v-0.508h2.05v0.518l-0.021,0.93c-0.063,1.113-0.373,1.965-0.93,2.557
		c-0.338,0.367-0.736,0.623-1.194,0.771c-0.542,0.184-1.134,0.275-1.775,0.275c-0.549,0.006-1.074-0.053-1.574-0.18
		c-1.69-0.388-2.539-1.779-2.546-4.174V5.934c-0.007-0.641,0.024-1.24,0.095-1.796c0.07-0.683,0.254-1.247,0.549-1.69
		c0.655-1.008,1.828-1.521,3.519-1.543c2.374,0.021,3.648,0.947,3.824,2.779c0.035,0.345,0.053,0.736,0.053,1.172v0.582h-2.05V5.057
		z"/>
	<path d="M70.871,5.057L70.86,4.359c-0.049-1.19-0.627-1.781-1.732-1.775c-0.979,0.008-1.617,0.321-1.913,0.941
		c-0.162,0.303-0.25,0.605-0.264,0.908L66.93,5.658v5.875c0.007,1.063,0.092,1.75,0.254,2.061c0.338,0.633,0.922,0.95,1.753,0.95
		c1.092-0.007,1.708-0.641,1.849-1.901l0.084-0.961v-0.508h2.05v0.518l-0.021,0.93c-0.063,1.113-0.373,1.965-0.93,2.557
		c-0.338,0.367-0.736,0.623-1.194,0.771c-0.542,0.184-1.134,0.275-1.775,0.275c-0.549,0.006-1.074-0.053-1.574-0.18
		c-1.69-0.388-2.539-1.779-2.546-4.174V5.934c-0.007-0.641,0.024-1.24,0.095-1.796c0.07-0.683,0.254-1.247,0.549-1.69
		c0.655-1.008,1.828-1.521,3.519-1.543c2.374,0.021,3.648,0.947,3.824,2.779c0.035,0.345,0.053,0.736,0.053,1.172v0.582h-2.05V5.057
		z"/>
	<path d="M76.988,1.095h1.321L76.154,17.64h-1.31L76.988,1.095z"/>
	<path d="M83.211,1.115h2.694l3.434,14.897h-2.155l-0.708-3.401h-3.983l-0.729,3.401h-1.986L83.211,1.115z M82.841,10.931h3.254
		l-1.574-7.935L82.841,10.931z"/>
	<path d="M91.526,1.115h2.049v6.318h4.321V1.115h2.05v14.897h-2.05V9.113h-4.321v6.899h-2.049V1.115z"/>
	<path d="M105.567,1.115h2.694l3.434,14.897h-2.155l-0.708-3.401h-3.983l-0.729,3.401h-1.986L105.567,1.115z M105.197,10.931h3.254
		l-1.574-7.935L105.197,10.931z"/>
	<path d="M114.965,1.564l-0.813-1.184L114.824,0l0.591,1.361L115.994,0l0.677,0.381l-0.813,1.184l1.417-0.148v0.789l-1.417-0.148
		l0.813,1.183l-0.677,0.382l-0.579-1.361l-0.591,1.361l-0.671-0.382l0.813-1.183l-1.417,0.148V1.416L114.965,1.564z"/>
	<path d="M128.602,9.801v-1.68h4.342v7.416l-1.046,0.316c-0.366,0.1-0.768,0.177-1.204,0.232c-0.662,0.1-1.3,0.145-1.913,0.139
		c-1.613,0-2.761-0.371-3.444-1.109c-0.599-0.648-0.901-1.818-0.908-3.508V6.219c0.007-1.528,0.123-2.574,0.349-3.138
		c0.422-1.05,1.201-1.708,2.335-1.976c0.535-0.127,1.105-0.193,1.711-0.201c1.352,0.021,2.372,0.33,3.059,0.925
		c0.687,0.595,1.041,1.583,1.062,2.964v0.485h-2.049V4.94c0-0.232-0.021-0.476-0.063-0.729c-0.169-1.084-0.817-1.627-1.944-1.627
		c-1.021,0.021-1.694,0.346-2.018,0.973c-0.197,0.346-0.31,0.732-0.338,1.162c-0.042,0.387-0.06,0.807-0.053,1.258v5.281
		c-0.007,1.142,0.095,1.92,0.307,2.336c0.324,0.654,1.007,0.972,2.049,0.95c0.388,0.007,0.778-0.038,1.173-0.138l0.888-0.264V9.801
		H128.602z"/>
	<path d="M135.681,1.115h2.05v9.932l0.021,1.32c0.07,1.444,0.753,2.17,2.05,2.177c1.296,0,2.007-0.679,2.134-2.039
		c0.042-0.479,0.067-0.965,0.074-1.458V1.115h2.05v10.102c-0.007,0.823-0.032,1.461-0.074,1.912
		c-0.063,0.697-0.289,1.277-0.676,1.742c-0.753,0.895-1.901,1.346-3.444,1.354c-1.606-0.008-2.761-0.451-3.466-1.332
		c-0.395-0.5-0.616-1.088-0.666-1.764c-0.035-0.395-0.053-1.032-0.053-1.912V1.115z"/>
	<path d="M148.877,1.115v14.897h-2.05V1.115H148.877z"/>
	<path d="M151.687,1.115h3.655c0.606,0,1.18,0.043,1.722,0.127c0.62,0.092,1.166,0.3,1.638,0.624
		c0.817,0.55,1.292,1.317,1.426,2.304c0.063,0.485,0.099,1.031,0.105,1.637v5.483c-0.021,1.839-0.342,3.075-0.961,3.708
		c-0.472,0.486-1.039,0.797-1.701,0.93c-0.282,0.057-0.934,0.085-1.955,0.085h-3.93V1.115z M153.736,2.796v11.537h1.891
		c1.134,0,1.86-0.292,2.177-0.877c0.26-0.493,0.387-1.307,0.38-2.44V5.965c0-1.133-0.138-1.912-0.412-2.334
		c-0.359-0.543-1.074-0.82-2.145-0.835H153.736z"/>
	<path d="M162.812,1.115h6.709v1.681h-4.659v4.723h4.374v1.68h-4.374v5.135h4.796v1.68h-6.846V1.115z"/>
	<path d="M171.993,1.115h2.05v13.218h4.342v1.68h-6.392V1.115z"/>
	<path d="M182.389,1.115v14.897h-2.05V1.115H182.389z"/>
	<path d="M188.253,1.115l3.867,12.838V1.115h1.923v14.897h-3.212l-3.867-12.699v12.699h-1.923V1.115H188.253z"/>
	<path d="M196.715,1.115h6.709v1.681h-4.659v4.723h4.374v1.68h-4.374v5.135h4.796v1.68h-6.846V1.115z"/>
	<path d="M205.937,1.269l0.536-0.327c0.164-0.105,0.37-0.266,0.616-0.48l0.376-0.32h0.93v8.667h-1.121V1.484l-0.413,0.326
		c-0.172,0.135-0.338,0.24-0.499,0.314l-0.425,0.172V1.269z"/>
	<path d="M6.741,26.619V28.3H2.25v4.712h4.321v1.68H2.25v6.825h-2.05V26.619H6.741z"/>
	<path d="M8.167,35.104c0.007-1.078,0.116-1.884,0.327-2.42c0.331-0.803,0.926-1.327,1.786-1.574c0.401-0.119,0.824-0.18,1.268-0.18
		c0.437,0,0.859,0.061,1.268,0.18c0.535,0.156,0.958,0.412,1.268,0.771c0.542,0.627,0.821,1.701,0.835,3.223v2.6
		c0.007,1.373-0.205,2.345-0.634,2.916c-0.55,0.746-1.448,1.115-2.694,1.109c-1.979,0.021-3.088-0.824-3.328-2.536
		c-0.07-0.45-0.102-0.947-0.095-1.489V35.104z M10.09,37.703l0.031,1.003c0.063,1.05,0.546,1.571,1.448,1.563
		c0.626-0.014,1.042-0.316,1.247-0.908c0.12-0.346,0.18-0.898,0.18-1.658v-2.769c0-1.712-0.486-2.56-1.458-2.546
		c-0.874-0.014-1.342,0.507-1.405,1.563l-0.042,0.982V37.703z"/>
	<path d="M17,34.723c-0.007-1.352,0.201-2.289,0.623-2.81c0.521-0.642,1.416-0.969,2.684-0.983c2.029,0.015,3.046,0.863,3.053,2.547
		v0.581v0.285h-1.923v-0.285l-0.021-0.518c-0.07-0.761-0.447-1.145-1.13-1.151c-0.88-0.008-1.331,0.461-1.353,1.404l-0.01,0.782
		v3.286l0.021,1.057c0.035,0.895,0.468,1.346,1.299,1.352c0.859-0.006,1.3-0.535,1.321-1.584v-0.423h1.923v0.476
		c-0.028,2.021-1.084,3.018-3.169,2.99c-0.634,0-1.198-0.089-1.69-0.265c-1.078-0.353-1.62-1.501-1.627-3.444V34.723z"/>
	<path d="M27.248,31.142v6.994c0.007,0.739,0.049,1.215,0.126,1.427c0.19,0.485,0.571,0.722,1.141,0.707
		c0.373,0.008,0.687-0.084,0.94-0.274c0.317-0.218,0.521-0.567,0.613-1.046c0.056-0.281,0.084-0.592,0.084-0.93v-6.878h1.923v10.375
		h-1.923v-0.919l-0.359,0.422c-0.479,0.473-1.124,0.709-1.933,0.709c-0.719,0-1.325-0.209-1.817-0.624
		c-0.458-0.388-0.694-0.976-0.708-1.765l-0.01-1.119v-7.079H27.248z"/>
	<path d="M35.773,38.357v0.381l0.032,0.422c0.12,0.762,0.542,1.131,1.268,1.109c0.859-0.006,1.303-0.422,1.331-1.246
		c0-0.281-0.07-0.531-0.211-0.75c-0.19-0.268-0.43-0.521-0.718-0.762l-0.961-0.718l-1.014-0.761
		c-0.458-0.359-0.789-0.697-0.993-1.014c-0.254-0.388-0.377-0.881-0.37-1.479c0-1.733,1.011-2.603,3.032-2.61
		c0.528,0,1.018,0.071,1.469,0.212c0.887,0.274,1.38,0.897,1.479,1.87l0.032,0.793v0.338h-1.923v-0.328v-0.381
		c-0.063-0.683-0.433-1.031-1.109-1.045c-0.69-0.008-1.042,0.352-1.057,1.077c0,0.269,0.06,0.489,0.18,0.666
		c0.155,0.232,0.405,0.479,0.75,0.739l1.194,0.877c1.049,0.74,1.69,1.37,1.923,1.891c0.141,0.346,0.214,0.74,0.222,1.184
		c-0.014,0.938-0.324,1.666-0.93,2.188c-0.557,0.472-1.321,0.711-2.292,0.719c-1.965-0.008-3.04-0.832-3.223-2.473l-0.032-0.528
		v-0.37H35.773z"/>
	<path d="M43.813,38.125c-0.007,0.705,0.049,1.197,0.169,1.479c0.183,0.43,0.599,0.651,1.247,0.665c0.859,0,1.342-0.395,1.448-1.184
		l0.042-0.443V38.4h1.923v0.242l-0.032,0.719c-0.155,1.585-1.292,2.373-3.412,2.367c-0.493,0.006-0.948-0.05-1.363-0.17
		c-0.549-0.141-0.979-0.412-1.289-0.813c-0.423-0.507-0.641-1.411-0.655-2.715v-2.937c-0.007-1.451,0.194-2.463,0.602-3.033
		c0.542-0.754,1.483-1.131,2.821-1.131c2.056,0.021,3.152,0.889,3.286,2.6c0.028,0.331,0.042,0.715,0.042,1.152v2.324h-4.828V38.125
		z M43.813,35.547h2.905v-1.193c-0.007-1.289-0.489-1.943-1.447-1.965c-0.613,0.014-1.032,0.271-1.257,0.771
		c-0.134,0.289-0.201,0.803-0.201,1.542V35.547z"/>
	<path d="M52.128,38.357v0.381l0.032,0.422c0.12,0.762,0.542,1.131,1.268,1.109c0.859-0.006,1.303-0.422,1.331-1.246
		c0-0.281-0.07-0.531-0.211-0.75c-0.19-0.268-0.43-0.521-0.718-0.762l-0.961-0.718l-1.014-0.761
		c-0.458-0.359-0.789-0.697-0.993-1.014c-0.254-0.388-0.377-0.881-0.37-1.479c0-1.733,1.011-2.603,3.032-2.61
		c0.528,0,1.018,0.071,1.469,0.212c0.887,0.274,1.38,0.897,1.479,1.87l0.032,0.793v0.338H54.58v-0.328v-0.381
		c-0.063-0.683-0.433-1.031-1.109-1.045c-0.69-0.008-1.042,0.352-1.057,1.077c0,0.269,0.06,0.489,0.18,0.666
		c0.155,0.232,0.405,0.479,0.75,0.739l1.194,0.877c1.049,0.74,1.69,1.37,1.923,1.891c0.141,0.346,0.214,0.74,0.222,1.184
		c-0.014,0.938-0.324,1.666-0.93,2.188c-0.557,0.472-1.321,0.711-2.292,0.719c-1.965-0.008-3.04-0.832-3.223-2.473l-0.032-0.528
		v-0.37H52.128z"/>
	<path d="M63.222,35.104c0.007-1.078,0.116-1.884,0.327-2.42c0.331-0.803,0.926-1.327,1.786-1.574
		c0.401-0.119,0.824-0.18,1.268-0.18c0.437,0,0.859,0.061,1.268,0.18c0.535,0.156,0.958,0.412,1.268,0.771
		c0.542,0.627,0.821,1.701,0.835,3.223v2.6c0.007,1.373-0.205,2.345-0.634,2.916c-0.55,0.746-1.448,1.115-2.694,1.109
		c-1.979,0.021-3.088-0.824-3.328-2.536c-0.07-0.45-0.102-0.947-0.095-1.489V35.104z M65.145,37.703l0.031,1.003
		c0.063,1.05,0.546,1.571,1.448,1.563c0.626-0.014,1.042-0.316,1.247-0.908c0.12-0.346,0.18-0.898,0.18-1.658v-2.769
		c0-1.712-0.486-2.56-1.458-2.546c-0.874-0.014-1.342,0.507-1.405,1.563l-0.042,0.982V37.703z"/>
	<path d="M72.001,31.142h1.923v0.909c0.563-0.747,1.349-1.121,2.356-1.121c0.408,0,0.792,0.074,1.151,0.223
		c0.817,0.331,1.25,0.99,1.3,1.976l0.021,1.331v7.058H76.83v-6.54l-0.021-1.046c-0.036-1.028-0.483-1.542-1.342-1.542
		c-0.648,0.014-1.078,0.274-1.289,0.781c-0.12,0.282-0.194,0.586-0.222,0.914c-0.028,0.328-0.039,0.675-0.031,1.041v6.392h-1.923
		V31.142z"/>
	<path d="M86.623,31.142v-1.859l1.923-0.866v2.726h1.564V32.6h-1.564v6.096l0.011,0.688c0.021,0.549,0.37,0.838,1.046,0.866
		l0.507,0.021v1.32l-0.634,0.096c-0.239,0.035-0.482,0.049-0.729,0.043c-1.317,0-2.014-0.529-2.092-1.586l-0.032-1.141V32.6H85.26
		v-1.458H86.623z"/>
	<path d="M91.948,26.599h1.923v5.452l0.37-0.359c0.57-0.515,1.222-0.768,1.955-0.762c1.578,0.021,2.402,0.801,2.472,2.336
		l0.032,1.246v7.005h-1.923v-6.571l-0.011-0.771c-0.021-0.563-0.102-0.976-0.243-1.236c-0.198-0.359-0.557-0.542-1.078-0.549
		c-0.69,0-1.141,0.268-1.353,0.803c-0.12,0.281-0.187,0.57-0.201,0.866l-0.021,0.845v6.614h-1.923V26.599z"/>
	<path d="M102.46,38.125c-0.007,0.705,0.049,1.197,0.169,1.479c0.183,0.43,0.599,0.651,1.247,0.665c0.859,0,1.342-0.395,1.448-1.184
		l0.042-0.443V38.4h1.923v0.242l-0.032,0.719c-0.155,1.585-1.292,2.373-3.412,2.367c-0.493,0.006-0.948-0.05-1.363-0.17
		c-0.549-0.141-0.979-0.412-1.289-0.813c-0.423-0.507-0.641-1.411-0.655-2.715v-2.937c-0.007-1.451,0.194-2.463,0.602-3.033
		c0.542-0.754,1.483-1.131,2.821-1.131c2.056,0.021,3.152,0.889,3.286,2.6c0.028,0.331,0.042,0.715,0.042,1.152v2.324h-4.828V38.125
		z M102.46,35.547h2.905v-1.193c-0.007-1.289-0.489-1.943-1.447-1.965c-0.613,0.014-1.032,0.271-1.257,0.771
		c-0.134,0.289-0.201,0.803-0.201,1.542V35.547z"/>
	<path d="M122.545,26.619V28.3h-3.444v13.217h-2.05V28.3h-3.444v-1.681H122.545z"/>
	<path d="M123.506,31.142v1.278c0.295-0.514,0.641-0.881,1.035-1.099c0.261-0.147,0.514-0.25,0.761-0.307l0.613-0.085v1.902
		l-0.645,0.063c-0.69,0.085-1.166,0.374-1.426,0.866c-0.226,0.458-0.338,1.135-0.338,2.029v5.726h-1.923V31.142H123.506z"/>
	<path d="M128.778,38.125c-0.007,0.705,0.049,1.197,0.169,1.479c0.183,0.43,0.599,0.651,1.247,0.665
		c0.859,0,1.342-0.395,1.448-1.184l0.042-0.443V38.4h1.923v0.242l-0.032,0.719c-0.155,1.585-1.292,2.373-3.412,2.367
		c-0.493,0.006-0.948-0.05-1.363-0.17c-0.549-0.141-0.979-0.412-1.289-0.813c-0.423-0.507-0.641-1.411-0.655-2.715v-2.937
		c-0.007-1.451,0.194-2.463,0.602-3.033c0.542-0.754,1.483-1.131,2.821-1.131c2.056,0.021,3.152,0.889,3.286,2.6
		c0.028,0.331,0.042,0.715,0.042,1.152v2.324h-4.828V38.125z M128.778,35.547h2.905v-1.193c-0.007-1.289-0.489-1.943-1.447-1.965
		c-0.613,0.014-1.032,0.271-1.257,0.771c-0.134,0.289-0.201,0.803-0.201,1.542V35.547z"/>
	<path d="M135.772,32.959c0.077-0.408,0.266-0.777,0.565-1.104c0.299-0.328,0.653-0.555,1.062-0.682
		c0.486-0.155,0.993-0.236,1.521-0.244c0.612,0,1.169,0.085,1.669,0.254c0.627,0.205,1.084,0.655,1.374,1.353
		c0.148,0.366,0.222,1.019,0.222,1.954v7.026h-1.923v-1.12c-0.352,0.528-0.676,0.87-0.972,1.025
		c-0.38,0.211-0.835,0.313-1.363,0.307c-0.388,0.006-0.733-0.05-1.036-0.17c-0.986-0.338-1.472-1.254-1.458-2.746
		c0-0.627,0.063-1.191,0.19-1.691c0.211-0.865,0.873-1.443,1.986-1.732c0.444-0.119,0.902-0.197,1.374-0.232l1.278-0.042v-1.216
		c-0.014-1.027-0.443-1.531-1.289-1.51c-0.514,0.007-0.881,0.172-1.099,0.496c-0.155,0.232-0.253,0.635-0.295,1.205h-1.923
		C135.663,33.652,135.702,33.275,135.772,32.959z M140.262,36.572h-0.56c-1.592,0.078-2.374,0.803-2.346,2.176
		c-0.021,1.008,0.374,1.516,1.184,1.521c0.683,0.015,1.18-0.342,1.489-1.066c0.12-0.275,0.19-0.561,0.211-0.855l0.021-0.824V36.572z
		"/>
	<path d="M145.26,31.142v-1.859l1.923-0.866v2.726h1.564V32.6h-1.564v6.096l0.011,0.688c0.021,0.549,0.37,0.838,1.046,0.866
		l0.507,0.021v1.32l-0.634,0.096c-0.239,0.035-0.482,0.049-0.729,0.043c-1.317,0-2.014-0.529-2.092-1.586l-0.032-1.141V32.6h-1.363
		v-1.458H145.26z"/>
	<path d="M150.374,31.142h1.923v0.897l0.465-0.465c0.204-0.196,0.44-0.344,0.708-0.443c0.338-0.127,0.704-0.193,1.099-0.201
		c1.12,0,1.895,0.441,2.324,1.321c0.676-0.859,1.486-1.3,2.43-1.321c0.88,0.008,1.556,0.258,2.028,0.751
		c0.366,0.38,0.563,1.077,0.592,2.092l0.01,1.257v6.487h-1.923v-6.392l-0.01-1.3c-0.014-0.965-0.461-1.444-1.342-1.437
		c-0.69,0-1.141,0.277-1.353,0.834c-0.141,0.332-0.208,0.977-0.201,1.934v6.36h-1.923v-6.382l-0.011-1.277
		c-0.035-0.973-0.493-1.462-1.373-1.469c-0.592-0.008-0.997,0.215-1.215,0.665c-0.141,0.274-0.226,0.557-0.253,0.845
		c-0.042,0.359-0.06,0.779-0.053,1.258v6.36h-1.923V31.142z"/>
	<path d="M165.481,38.125c-0.007,0.705,0.049,1.197,0.169,1.479c0.183,0.43,0.599,0.651,1.247,0.665
		c0.859,0,1.342-0.395,1.448-1.184l0.042-0.443V38.4h1.923v0.242l-0.032,0.719c-0.155,1.585-1.292,2.373-3.412,2.367
		c-0.493,0.006-0.948-0.05-1.363-0.17c-0.549-0.141-0.979-0.412-1.289-0.813c-0.423-0.507-0.641-1.411-0.655-2.715v-2.937
		c-0.007-1.451,0.194-2.463,0.602-3.033c0.542-0.754,1.483-1.131,2.821-1.131c2.056,0.021,3.152,0.889,3.286,2.6
		c0.028,0.331,0.042,0.715,0.042,1.152v2.324h-4.828V38.125z M165.481,35.547h2.905v-1.193c-0.007-1.289-0.489-1.943-1.447-1.965
		c-0.613,0.014-1.032,0.271-1.257,0.771c-0.134,0.289-0.201,0.803-0.201,1.542V35.547z"/>
	<path d="M172.127,31.142h1.923v0.909c0.563-0.747,1.349-1.121,2.356-1.121c0.408,0,0.792,0.074,1.151,0.223
		c0.817,0.331,1.25,0.99,1.3,1.976l0.021,1.331v7.058h-1.923v-6.54l-0.021-1.046c-0.036-1.028-0.483-1.542-1.342-1.542
		c-0.648,0.014-1.078,0.274-1.289,0.781c-0.12,0.282-0.194,0.586-0.222,0.914c-0.028,0.328-0.039,0.675-0.031,1.041v6.392h-1.923
		V31.142z"/>
	<path d="M181.963,31.142v-1.859l1.923-0.866v2.726h1.564V32.6h-1.564v6.096l0.011,0.688c0.021,0.549,0.37,0.838,1.046,0.866
		l0.507,0.021v1.32l-0.634,0.096c-0.239,0.035-0.482,0.049-0.729,0.043c-1.317,0-2.014-0.529-2.092-1.586l-0.032-1.141V32.6H180.6
		v-1.458H181.963z"/>
	<path d="M192.074,35.104c0.007-1.078,0.116-1.884,0.327-2.42c0.331-0.803,0.926-1.327,1.786-1.574
		c0.401-0.119,0.824-0.18,1.268-0.18c0.437,0,0.859,0.061,1.268,0.18c0.535,0.156,0.958,0.412,1.268,0.771
		c0.542,0.627,0.821,1.701,0.835,3.223v2.6c0.007,1.373-0.205,2.345-0.634,2.916c-0.55,0.746-1.448,1.115-2.694,1.109
		c-1.979,0.021-3.088-0.824-3.328-2.536c-0.07-0.45-0.102-0.947-0.095-1.489V35.104z M193.997,37.703l0.031,1.003
		c0.063,1.05,0.546,1.571,1.448,1.563c0.626-0.014,1.042-0.316,1.247-0.908c0.12-0.346,0.18-0.898,0.18-1.658v-2.769
		c0-1.712-0.486-2.56-1.458-2.546c-0.874-0.014-1.342,0.507-1.405,1.563l-0.042,0.982V37.703z"/>
	<path d="M200.6,31.142h1.363v-1.986c0.007-0.901,0.151-1.546,0.434-1.933c0.366-0.5,0.968-0.751,1.807-0.751
		c0.331,0.007,0.799,0.042,1.405,0.106v1.373l-0.539-0.021c-0.782-0.007-1.176,0.423-1.184,1.289v1.923h1.722V32.6h-1.722v8.917
		h-1.923V32.6H200.6V31.142z"/>
	<path d="M212.475,26.619h3.719c0.578,0,1.12,0.047,1.627,0.139c1.796,0.316,2.705,1.557,2.726,3.719
		c-0.014,1.098-0.24,1.912-0.676,2.439c-0.352,0.444-1.035,0.771-2.05,0.982c1.211,0.121,2.021,0.469,2.43,1.047
		c0.451,0.619,0.68,1.486,0.687,2.599c-0.007,0.599-0.088,1.173-0.243,1.722c-0.261,0.944-0.821,1.592-1.68,1.945
		c-0.507,0.211-1.38,0.313-2.62,0.306h-3.919V26.619z M214.525,28.3v4.754h1.584c0.458,0.007,0.838-0.028,1.141-0.105
		c0.817-0.169,1.232-0.962,1.247-2.377c0.014-1.507-0.792-2.265-2.419-2.271H214.525z M214.525,34.734v5.103h1.595
		c1.014-0.007,1.726-0.194,2.134-0.56c0.408-0.367,0.62-1.067,0.634-2.104c0.007-1.324-0.528-2.102-1.606-2.334
		c-0.359-0.064-0.75-0.1-1.173-0.105H214.525z"/>
	<path d="M224.741,26.599v14.918h-1.923V26.599H224.741z"/>
	<path d="M226.791,35.104c0.007-1.078,0.116-1.884,0.327-2.42c0.331-0.803,0.926-1.327,1.786-1.574
		c0.401-0.119,0.824-0.18,1.268-0.18c0.437,0,0.859,0.061,1.268,0.18c0.535,0.156,0.958,0.412,1.268,0.771
		c0.542,0.627,0.821,1.701,0.835,3.223v2.6c0.007,1.373-0.205,2.345-0.634,2.916c-0.55,0.746-1.448,1.115-2.694,1.109
		c-1.979,0.021-3.088-0.824-3.328-2.536c-0.07-0.45-0.102-0.947-0.095-1.489V35.104z M228.714,37.703l0.031,1.003
		c0.063,1.05,0.546,1.571,1.448,1.563c0.626-0.014,1.042-0.316,1.247-0.908c0.12-0.346,0.18-0.898,0.18-1.658v-2.769
		c0-1.712-0.486-2.56-1.458-2.546c-0.874-0.014-1.342,0.507-1.405,1.563l-0.042,0.982V37.703z"/>
	<path d="M235.57,35.104c0.007-1.078,0.116-1.884,0.327-2.42c0.331-0.803,0.926-1.327,1.786-1.574
		c0.401-0.119,0.824-0.18,1.268-0.18c0.437,0,0.859,0.061,1.268,0.18c0.535,0.156,0.958,0.412,1.268,0.771
		c0.542,0.627,0.821,1.701,0.835,3.223v2.6c0.007,1.373-0.205,2.345-0.634,2.916c-0.55,0.746-1.448,1.115-2.694,1.109
		c-1.979,0.021-3.088-0.824-3.328-2.536c-0.07-0.45-0.102-0.947-0.095-1.489V35.104z M237.493,37.703l0.031,1.003
		c0.063,1.05,0.546,1.571,1.448,1.563c0.626-0.014,1.042-0.316,1.247-0.908c0.12-0.346,0.18-0.898,0.18-1.658v-2.769
		c0-1.712-0.486-2.56-1.458-2.546c-0.874-0.014-1.342,0.507-1.405,1.563l-0.042,0.982V37.703z"/>
	<path d="M251.122,26.599v14.918h-1.923v-0.95c-0.711,0.788-1.455,1.176-2.229,1.162c-0.627,0.006-1.161-0.172-1.601-0.534
		c-0.44-0.362-0.721-0.847-0.84-1.452c-0.105-0.479-0.158-1-0.158-1.564v-3.455c-0.021-2.535,0.884-3.799,2.715-3.793
		c0.676,0.008,1.218,0.174,1.627,0.497c0.126,0.106,0.289,0.254,0.486,0.444v-5.272H251.122z M246.294,37.851
		c-0.007,0.507,0.007,0.901,0.042,1.183c0.063,0.839,0.497,1.251,1.3,1.236c0.465,0,0.828-0.162,1.088-0.486
		c0.31-0.387,0.469-1.168,0.476-2.345v-3.032c0-0.366-0.032-0.701-0.095-1.004c-0.063-0.303-0.201-0.545-0.412-0.729
		c-0.225-0.184-0.514-0.278-0.866-0.285c-0.901,0.007-1.395,0.51-1.479,1.51c-0.042,0.346-0.06,0.744-0.053,1.195V37.851z"/>
	<path d="M264.371,30.561l-0.011-0.697c-0.049-1.19-0.627-1.781-1.732-1.775c-0.979,0.008-1.617,0.321-1.913,0.941
		c-0.162,0.303-0.25,0.605-0.264,0.908l-0.021,1.225v5.875c0.007,1.063,0.092,1.75,0.254,2.061c0.338,0.633,0.922,0.95,1.753,0.95
		c1.092-0.007,1.708-0.641,1.849-1.901l0.084-0.961v-0.508h2.05v0.518l-0.021,0.93c-0.063,1.113-0.373,1.965-0.93,2.557
		c-0.338,0.367-0.736,0.623-1.194,0.771c-0.542,0.184-1.134,0.275-1.775,0.275c-0.549,0.006-1.074-0.053-1.574-0.18
		c-1.69-0.388-2.539-1.779-2.546-4.174v-5.938c-0.007-0.641,0.024-1.24,0.095-1.796c0.07-0.683,0.254-1.247,0.549-1.69
		c0.655-1.008,1.828-1.521,3.519-1.543c2.374,0.021,3.648,0.947,3.824,2.779c0.035,0.345,0.053,0.736,0.053,1.172v0.582h-2.05
		V30.561z"/>
	<path d="M268.692,26.599h1.923v5.452l0.37-0.359c0.57-0.515,1.222-0.768,1.955-0.762c1.578,0.021,2.402,0.801,2.472,2.336
		l0.032,1.246v7.005h-1.923v-6.571l-0.011-0.771c-0.021-0.563-0.102-0.976-0.243-1.236c-0.198-0.359-0.557-0.542-1.078-0.549
		c-0.69,0-1.141,0.268-1.353,0.803c-0.12,0.281-0.187,0.57-0.201,0.866l-0.021,0.845v6.614h-1.923V26.599z"/>
	<path d="M277.472,35.104c0.007-1.078,0.116-1.884,0.327-2.42c0.331-0.803,0.926-1.327,1.786-1.574
		c0.401-0.119,0.824-0.18,1.268-0.18c0.437,0,0.859,0.061,1.268,0.18c0.535,0.156,0.958,0.412,1.268,0.771
		c0.542,0.627,0.821,1.701,0.835,3.223v2.6c0.007,1.373-0.205,2.345-0.634,2.916c-0.55,0.746-1.448,1.115-2.694,1.109
		c-1.979,0.021-3.088-0.824-3.328-2.536c-0.07-0.45-0.102-0.947-0.095-1.489V35.104z M279.395,37.703l0.031,1.003
		c0.063,1.05,0.546,1.571,1.448,1.563c0.626-0.014,1.042-0.316,1.247-0.908c0.12-0.346,0.18-0.898,0.18-1.658v-2.769
		c0-1.712-0.486-2.56-1.458-2.546c-0.874-0.014-1.342,0.507-1.405,1.563l-0.042,0.982V37.703z"/>
	<path d="M288.195,26.599v14.918h-1.923V26.599H288.195z"/>
	<path d="M291.977,38.125c-0.007,0.705,0.049,1.197,0.169,1.479c0.183,0.43,0.599,0.651,1.247,0.665
		c0.859,0,1.342-0.395,1.448-1.184l0.042-0.443V38.4h1.923v0.242l-0.032,0.719c-0.155,1.585-1.292,2.373-3.412,2.367
		c-0.493,0.006-0.948-0.05-1.363-0.17c-0.549-0.141-0.979-0.412-1.289-0.813c-0.423-0.507-0.641-1.411-0.655-2.715v-2.937
		c-0.007-1.451,0.194-2.463,0.602-3.033c0.542-0.754,1.483-1.131,2.821-1.131c2.056,0.021,3.152,0.889,3.286,2.6
		c0.028,0.331,0.042,0.715,0.042,1.152v2.324h-4.828V38.125z M291.977,35.547h2.905v-1.193c-0.007-1.289-0.489-1.943-1.447-1.965
		c-0.613,0.014-1.032,0.271-1.257,0.771c-0.134,0.289-0.201,0.803-0.201,1.542V35.547z"/>
	<path d="M300.292,38.357v0.381l0.032,0.422c0.12,0.762,0.542,1.131,1.268,1.109c0.859-0.006,1.303-0.422,1.331-1.246
		c0-0.281-0.07-0.531-0.211-0.75c-0.19-0.268-0.43-0.521-0.718-0.762l-0.961-0.718l-1.014-0.761
		c-0.458-0.359-0.789-0.697-0.993-1.014c-0.254-0.388-0.377-0.881-0.37-1.479c0-1.733,1.011-2.603,3.032-2.61
		c0.528,0,1.018,0.071,1.469,0.212c0.887,0.274,1.38,0.897,1.479,1.87l0.032,0.793v0.338h-1.923v-0.328v-0.381
		c-0.063-0.683-0.433-1.031-1.109-1.045c-0.69-0.008-1.042,0.352-1.057,1.077c0,0.269,0.06,0.489,0.18,0.666
		c0.155,0.232,0.405,0.479,0.75,0.739l1.194,0.877c1.049,0.74,1.69,1.37,1.923,1.891c0.141,0.346,0.214,0.74,0.222,1.184
		c-0.014,0.938-0.324,1.666-0.93,2.188c-0.557,0.472-1.321,0.711-2.292,0.719c-1.965-0.008-3.04-0.832-3.223-2.473l-0.032-0.528
		v-0.37H300.292z"/>
	<path d="M307.656,31.142v-1.859l1.923-0.866v2.726h1.564V32.6h-1.564v6.096l0.011,0.688c0.021,0.549,0.37,0.838,1.046,0.866
		l0.507,0.021v1.32l-0.634,0.096c-0.239,0.035-0.482,0.049-0.729,0.043c-1.317,0-2.014-0.529-2.092-1.586l-0.032-1.141V32.6h-1.363
		v-1.458H307.656z"/>
	<path d="M314.713,38.125c-0.007,0.705,0.049,1.197,0.169,1.479c0.183,0.43,0.599,0.651,1.247,0.665
		c0.859,0,1.342-0.395,1.448-1.184l0.042-0.443V38.4h1.923v0.242l-0.032,0.719c-0.155,1.585-1.292,2.373-3.412,2.367
		c-0.493,0.006-0.948-0.05-1.363-0.17c-0.549-0.141-0.979-0.412-1.289-0.813c-0.423-0.507-0.641-1.411-0.655-2.715v-2.937
		c-0.007-1.451,0.194-2.463,0.602-3.033c0.542-0.754,1.483-1.131,2.821-1.131c2.056,0.021,3.152,0.889,3.286,2.6
		c0.028,0.331,0.042,0.715,0.042,1.152v2.324h-4.828V38.125z M314.713,35.547h2.905v-1.193c-0.007-1.289-0.489-1.943-1.447-1.965
		c-0.613,0.014-1.032,0.271-1.257,0.771c-0.134,0.289-0.201,0.803-0.201,1.542V35.547z"/>
	<path d="M323.398,31.142v1.278c0.295-0.514,0.641-0.881,1.035-1.099c0.261-0.147,0.514-0.25,0.761-0.307l0.613-0.085v1.902
		l-0.645,0.063c-0.69,0.085-1.166,0.374-1.426,0.866c-0.226,0.458-0.338,1.135-0.338,2.029v5.726h-1.923V31.142H323.398z"/>
	<path d="M326.938,35.104c0.007-1.078,0.116-1.884,0.327-2.42c0.331-0.803,0.926-1.327,1.786-1.574
		c0.401-0.119,0.824-0.18,1.268-0.18c0.437,0,0.859,0.061,1.268,0.18c0.535,0.156,0.958,0.412,1.268,0.771
		c0.542,0.627,0.821,1.701,0.835,3.223v2.6c0.007,1.373-0.205,2.345-0.634,2.916c-0.55,0.746-1.448,1.115-2.694,1.109
		c-1.979,0.021-3.088-0.824-3.328-2.536c-0.07-0.45-0.102-0.947-0.095-1.489V35.104z M328.86,37.703l0.031,1.003
		c0.063,1.05,0.546,1.571,1.448,1.563c0.626-0.014,1.042-0.316,1.247-0.908c0.12-0.346,0.18-0.898,0.18-1.658v-2.769
		c0-1.712-0.486-2.56-1.458-2.546c-0.874-0.014-1.342,0.507-1.405,1.563l-0.042,0.982V37.703z"/>
	<path d="M337.661,26.599v14.918h-1.923V26.599H337.661z"/>
	<path d="M345.553,31.142v-1.859l1.923-0.866v2.726h1.564V32.6h-1.564v6.096l0.011,0.688c0.021,0.549,0.37,0.838,1.046,0.866
		l0.507,0.021v1.32l-0.634,0.096c-0.239,0.035-0.482,0.049-0.729,0.043c-1.317,0-2.014-0.529-2.092-1.586l-0.032-1.141V32.6h-1.363
		v-1.458H345.553z"/>
	<path d="M350.878,35.104c0.007-1.078,0.116-1.884,0.327-2.42c0.331-0.803,0.926-1.327,1.786-1.574
		c0.401-0.119,0.824-0.18,1.268-0.18c0.437,0,0.859,0.061,1.268,0.18c0.535,0.156,0.958,0.412,1.268,0.771
		c0.542,0.627,0.821,1.701,0.835,3.223v2.6c0.007,1.373-0.205,2.345-0.634,2.916c-0.55,0.746-1.448,1.115-2.694,1.109
		c-1.979,0.021-3.088-0.824-3.328-2.536c-0.07-0.45-0.102-0.947-0.095-1.489V35.104z M352.801,37.703l0.031,1.003
		c0.063,1.05,0.546,1.571,1.448,1.563c0.626-0.014,1.042-0.316,1.247-0.908c0.12-0.346,0.18-0.898,0.18-1.658v-2.769
		c0-1.712-0.486-2.56-1.458-2.546c-0.874-0.014-1.342,0.507-1.405,1.563l-0.042,0.982V37.703z"/>
	<path d="M368.247,26.619h1.226c0.472,0.008,0.905,0.054,1.299,0.139c1.515,0.295,2.282,1.485,2.303,3.57
		c0,1.092-0.201,1.927-0.602,2.504c-0.388,0.543-1.141,0.908-2.261,1.099c0.697,0.077,1.197,0.208,1.5,0.392
		c0.444,0.268,0.718,0.697,0.824,1.289c0.07,0.395,0.116,0.855,0.137,1.383l0.084,1.754c0.035,0.67,0.091,1.194,0.169,1.574
		c0.042,0.275,0.141,0.674,0.296,1.194h-2.134l-0.201-0.95c-0.056-0.268-0.095-0.609-0.116-1.025l-0.074-1.342l-0.074-1.395
		c-0.091-1.07-0.507-1.711-1.247-1.923c-0.317-0.085-0.676-0.127-1.078-0.127h-1.416v6.762h-2.05V26.619H368.247z M366.884,28.3
		v4.775h1.468c0.43,0,0.807-0.032,1.131-0.095c0.634-0.12,1.07-0.43,1.31-0.93c0.155-0.332,0.232-0.881,0.232-1.648
		c0-0.831-0.229-1.408-0.687-1.732c-0.331-0.24-0.955-0.363-1.87-0.37H366.884z"/>
	<path d="M376.953,38.125c-0.007,0.705,0.049,1.197,0.169,1.479c0.183,0.43,0.599,0.651,1.247,0.665
		c0.859,0,1.342-0.395,1.448-1.184l0.042-0.443V38.4h1.923v0.242l-0.032,0.719c-0.155,1.585-1.292,2.373-3.412,2.367
		c-0.493,0.006-0.948-0.05-1.363-0.17c-0.549-0.141-0.979-0.412-1.289-0.813c-0.423-0.507-0.641-1.411-0.655-2.715v-2.937
		c-0.007-1.451,0.194-2.463,0.602-3.033c0.542-0.754,1.483-1.131,2.821-1.131c2.056,0.021,3.152,0.889,3.286,2.6
		c0.028,0.331,0.042,0.715,0.042,1.152v2.324h-4.828V38.125z M376.953,35.547h2.905v-1.193c-0.007-1.289-0.489-1.943-1.447-1.965
		c-0.613,0.014-1.032,0.271-1.257,0.771c-0.134,0.289-0.201,0.803-0.201,1.542V35.547z"/>
	<path d="M390.37,26.599v14.918h-1.923v-0.95c-0.711,0.788-1.455,1.176-2.229,1.162c-0.627,0.006-1.161-0.172-1.601-0.534
		c-0.44-0.362-0.721-0.847-0.84-1.452c-0.105-0.479-0.158-1-0.158-1.564v-3.455c-0.021-2.535,0.884-3.799,2.715-3.793
		c0.676,0.008,1.218,0.174,1.627,0.497c0.126,0.106,0.289,0.254,0.486,0.444v-5.272H390.37z M385.542,37.851
		c-0.007,0.507,0.007,0.901,0.042,1.183c0.063,0.839,0.497,1.251,1.3,1.236c0.465,0,0.828-0.162,1.088-0.486
		c0.31-0.387,0.469-1.168,0.476-2.345v-3.032c0-0.366-0.032-0.701-0.095-1.004c-0.063-0.303-0.201-0.545-0.412-0.729
		c-0.225-0.184-0.514-0.278-0.866-0.285c-0.901,0.007-1.395,0.51-1.479,1.51c-0.042,0.346-0.06,0.744-0.053,1.195V37.851z"/>
	<path d="M394.3,31.142v6.994c0.007,0.739,0.049,1.215,0.126,1.427c0.19,0.485,0.571,0.722,1.141,0.707
		c0.373,0.008,0.687-0.084,0.94-0.274c0.317-0.218,0.521-0.567,0.613-1.046c0.056-0.281,0.084-0.592,0.084-0.93v-6.878h1.923v10.375
		h-1.923v-0.919l-0.359,0.422c-0.479,0.473-1.124,0.709-1.933,0.709c-0.719,0-1.325-0.209-1.817-0.624
		c-0.458-0.388-0.694-0.976-0.708-1.765l-0.01-1.119v-7.079H394.3z"/>
	<path d="M401.21,34.723c-0.007-1.352,0.201-2.289,0.623-2.81c0.521-0.642,1.416-0.969,2.684-0.983
		c2.029,0.015,3.046,0.863,3.053,2.547v0.581v0.285h-1.923v-0.285l-0.021-0.518c-0.07-0.761-0.447-1.145-1.13-1.151
		c-0.88-0.008-1.331,0.461-1.353,1.404l-0.01,0.782v3.286l0.021,1.057c0.035,0.895,0.468,1.346,1.299,1.352
		c0.859-0.006,1.3-0.535,1.321-1.584v-0.423h1.923v0.476c-0.028,2.021-1.084,3.018-3.169,2.99c-0.634,0-1.198-0.089-1.69-0.265
		c-1.078-0.353-1.62-1.501-1.627-3.444V34.723z"/>
	<path d="M411.268,38.125c-0.007,0.705,0.049,1.197,0.169,1.479c0.183,0.43,0.599,0.651,1.247,0.665
		c0.859,0,1.342-0.395,1.448-1.184l0.042-0.443V38.4h1.923v0.242l-0.032,0.719c-0.155,1.585-1.292,2.373-3.412,2.367
		c-0.493,0.006-0.948-0.05-1.363-0.17c-0.549-0.141-0.979-0.412-1.289-0.813c-0.423-0.507-0.641-1.411-0.655-2.715v-2.937
		c-0.007-1.451,0.194-2.463,0.602-3.033c0.542-0.754,1.483-1.131,2.821-1.131c2.056,0.021,3.152,0.889,3.286,2.6
		c0.028,0.331,0.042,0.715,0.042,1.152v2.324h-4.828V38.125z M411.268,35.547h2.905v-1.193c-0.007-1.289-0.489-1.943-1.447-1.965
		c-0.613,0.014-1.032,0.271-1.257,0.771c-0.134,0.289-0.201,0.803-0.201,1.542V35.547z"/>
	<path d="M425.933,26.619h2.694l3.434,14.897h-2.155l-0.708-3.401h-3.983l-0.729,3.401h-1.986L425.933,26.619z M425.563,36.435
		h3.254l-1.574-7.935L425.563,36.435z"/>
	<path d="M435.821,36.52v0.834c-0.007,0.423,0.035,0.817,0.126,1.184c0.205,1.014,0.87,1.518,1.997,1.511
		c0.422,0.007,0.806-0.063,1.151-0.211c0.768-0.296,1.166-1.004,1.194-2.124c-0.007-0.768-0.264-1.363-0.771-1.785
		c-0.359-0.289-0.786-0.574-1.278-0.855l-1.49-0.835c-0.592-0.323-1.085-0.659-1.479-1.004c-0.824-0.704-1.236-1.718-1.236-3.042
		c0.014-1.444,0.476-2.469,1.384-3.075c0.676-0.458,1.605-0.693,2.789-0.708c1.444,0,2.486,0.338,3.127,1.015
		c0.507,0.542,0.76,1.606,0.76,3.19v0.296h-2.049V30.55l-0.042-0.771c-0.126-1.148-0.736-1.712-1.828-1.691
		c-1.38,0.008-2.078,0.691-2.092,2.051c0,0.865,0.433,1.57,1.299,2.112c0.535,0.345,1.141,0.692,1.817,1.04
		c0.676,0.35,1.226,0.679,1.648,0.988c0.993,0.747,1.49,1.867,1.49,3.359c-0.021,2.727-1.483,4.09-4.384,4.09
		c-1.247,0.014-2.205-0.24-2.874-0.762c-0.789-0.619-1.215-1.504-1.278-2.651l-0.032-1.204V36.52H435.821z"/>
	<path d="M450.708,30.561l-0.011-0.697c-0.049-1.19-0.627-1.781-1.732-1.775c-0.979,0.008-1.617,0.321-1.913,0.941
		c-0.162,0.303-0.25,0.605-0.264,0.908l-0.021,1.225v5.875c0.007,1.063,0.092,1.75,0.254,2.061c0.338,0.633,0.922,0.95,1.753,0.95
		c1.092-0.007,1.708-0.641,1.849-1.901l0.084-0.961v-0.508h2.05v0.518l-0.021,0.93c-0.063,1.113-0.373,1.965-0.93,2.557
		c-0.338,0.367-0.736,0.623-1.194,0.771c-0.542,0.184-1.134,0.275-1.775,0.275c-0.549,0.006-1.074-0.053-1.574-0.18
		c-1.69-0.388-2.539-1.779-2.546-4.174v-5.938c-0.007-0.641,0.024-1.24,0.095-1.796c0.07-0.683,0.254-1.247,0.549-1.69
		c0.655-1.008,1.828-1.521,3.519-1.543c2.374,0.021,3.648,0.947,3.824,2.779c0.035,0.345,0.053,0.736,0.053,1.172v0.582h-2.05
		V30.561z"/>
	<path d="M456.328,26.619l2.388,12.605l2.324-12.605h1.986l-3.169,14.897h-2.504l-3.169-14.897H456.328z"/>
	<path d="M465.034,26.619h3.655c0.606,0,1.18,0.043,1.722,0.127c0.62,0.092,1.166,0.3,1.638,0.624
		c0.817,0.55,1.292,1.317,1.426,2.304c0.063,0.485,0.099,1.031,0.105,1.637v5.483c-0.021,1.839-0.342,3.075-0.961,3.708
		c-0.472,0.486-1.039,0.797-1.701,0.93c-0.282,0.057-0.934,0.085-1.955,0.085h-3.93V26.619z M467.083,28.3v11.537h1.891
		c1.134,0,1.86-0.292,2.177-0.877c0.26-0.493,0.387-1.307,0.38-2.44v-5.051c0-1.133-0.138-1.912-0.412-2.334
		c-0.359-0.543-1.074-0.82-2.145-0.835H467.083z"/>
	<path d="M477.232,27.067l-0.813-1.183l0.671-0.382l0.591,1.361l0.579-1.361l0.677,0.382l-0.813,1.183l1.417-0.147v0.788
		l-1.417-0.147l0.813,1.182l-0.677,0.383l-0.579-1.361l-0.591,1.361l-0.671-0.383l0.813-1.182l-1.417,0.147V26.92L477.232,27.067z"
		/>
	<path d="M483.047,27.067l-0.813-1.183l0.671-0.382l0.591,1.361l0.579-1.361l0.677,0.382l-0.813,1.183l1.417-0.147v0.788
		l-1.417-0.147l0.813,1.182l-0.677,0.383l-0.579-1.361l-0.591,1.361l-0.671-0.383l0.813-1.182l-1.417,0.147V26.92L483.047,27.067z"
		/>
</g>
</svg>
