<?xml version="1.0" encoding="utf-8"?>
<!-- Generator: Adobe Illustrator 17.0.0, SVG Export Plug-In . SVG Version: 6.00 Build 0)  -->
<!DOCTYPE svg PUBLIC "-//W3C//DTD SVG 1.1//EN" "http://www.w3.org/Graphics/SVG/1.1/DTD/svg11.dtd">
<svg version="1.1" id="Layer_1" xmlns="http://www.w3.org/2000/svg" xmlns:xlink="http://www.w3.org/1999/xlink" x="0px" y="0px"
	 width="791.73px" height="108.86px" viewBox="0 0 791.73 108.86" enable-background="new 0 0 791.73 108.86" xml:space="preserve">
<g>
	<path d="M4.405,1.251H7.86l4.405,19.108H9.5l-0.908-4.363H3.483l-0.935,4.363H0L4.405,1.251z M3.93,13.841h4.174L6.085,3.663
		L3.93,13.841z"/>
	<path d="M17.09,13.949v1.07c-0.009,0.543,0.045,1.049,0.163,1.519c0.262,1.301,1.116,1.947,2.561,1.938
		c0.542,0.01,1.035-0.081,1.478-0.271c0.984-0.38,1.495-1.288,1.531-2.725c-0.009-0.984-0.339-1.748-0.989-2.29
		c-0.461-0.37-1.007-0.736-1.64-1.098l-1.911-1.07c-0.759-0.416-1.392-0.845-1.897-1.288c-1.057-0.903-1.585-2.204-1.585-3.903
		c0.018-1.852,0.61-3.166,1.775-3.943c0.867-0.587,2.06-0.89,3.578-0.908c1.852,0,3.189,0.434,4.012,1.302
		c0.65,0.695,0.976,2.06,0.976,4.093v0.379h-2.629V6.292l-0.054-0.989c-0.163-1.473-0.944-2.195-2.345-2.168
		c-1.771,0.009-2.666,0.886-2.683,2.629c0,1.111,0.556,2.015,1.667,2.711c0.687,0.442,1.464,0.888,2.331,1.335
		c0.868,0.447,1.572,0.869,2.114,1.267c1.274,0.958,1.911,2.395,1.911,4.31c-0.027,3.497-1.902,5.245-5.625,5.245
		c-1.599,0.018-2.828-0.308-3.686-0.976c-1.012-0.795-1.559-1.93-1.64-3.402l-0.041-1.545v-0.759H17.09z"/>
	<path d="M36.185,6.306l-0.014-0.895c-0.063-1.526-0.804-2.285-2.222-2.276c-1.256,0.009-2.074,0.411-2.453,1.206
		c-0.208,0.389-0.321,0.777-0.339,1.165L31.13,7.078v7.535c0.009,1.364,0.118,2.245,0.326,2.643c0.434,0.813,1.183,1.22,2.25,1.22
		c1.4-0.009,2.191-0.821,2.372-2.439l0.108-1.233v-0.65h2.629v0.664l-0.027,1.193c-0.081,1.427-0.479,2.521-1.192,3.279
		c-0.434,0.47-0.944,0.8-1.532,0.989c-0.696,0.234-1.455,0.353-2.277,0.353c-0.705,0.009-1.377-0.068-2.019-0.23
		c-2.168-0.497-3.257-2.281-3.266-5.354V7.431c-0.009-0.822,0.032-1.59,0.122-2.304c0.09-0.876,0.325-1.6,0.705-2.169
		c0.84-1.292,2.345-1.951,4.513-1.979c3.044,0.027,4.68,1.216,4.906,3.564c0.045,0.443,0.068,0.944,0.068,1.505v0.745h-2.629V6.306z
		"/>
	<path d="M43.395,1.251l3.063,16.168l2.981-16.168h2.548l-4.065,19.108h-3.212L40.644,1.251H43.395z"/>
	<path d="M54.562,1.251h4.689c0.777,0,1.513,0.054,2.209,0.162c0.795,0.118,1.495,0.385,2.101,0.8
		c1.048,0.705,1.658,1.689,1.83,2.954c0.082,0.624,0.126,1.324,0.136,2.101v7.034c-0.027,2.358-0.438,3.943-1.233,4.757
		c-0.605,0.623-1.333,1.021-2.182,1.192c-0.361,0.072-1.197,0.108-2.507,0.108h-5.042V1.251z M57.191,3.405v14.8h2.426
		c1.455,0,2.385-0.375,2.792-1.125c0.334-0.633,0.497-1.676,0.488-3.131V7.472c0-1.455-0.176-2.453-0.528-2.995
		c-0.461-0.696-1.378-1.053-2.751-1.071H57.191z"/>
	<path d="M74.417,13.949v1.07c-0.009,0.543,0.045,1.049,0.163,1.519c0.262,1.301,1.116,1.947,2.561,1.938
		c0.542,0.01,1.035-0.081,1.478-0.271c0.984-0.38,1.495-1.288,1.531-2.725c-0.009-0.984-0.339-1.748-0.989-2.29
		c-0.461-0.37-1.007-0.736-1.64-1.098l-1.911-1.07c-0.759-0.416-1.392-0.845-1.897-1.288c-1.057-0.903-1.585-2.204-1.585-3.903
		c0.018-1.852,0.61-3.166,1.775-3.943c0.867-0.587,2.06-0.89,3.578-0.908c1.852,0,3.189,0.434,4.012,1.302
		c0.65,0.695,0.976,2.06,0.976,4.093v0.379h-2.629V6.292l-0.054-0.989c-0.163-1.473-0.944-2.195-2.345-2.168
		c-1.771,0.009-2.666,0.886-2.683,2.629c0,1.111,0.556,2.015,1.667,2.711c0.687,0.442,1.464,0.888,2.331,1.335
		c0.868,0.447,1.572,0.869,2.114,1.267c1.274,0.958,1.911,2.395,1.911,4.31c-0.027,3.497-1.902,5.245-5.625,5.245
		c-1.599,0.018-2.828-0.308-3.686-0.976c-1.012-0.795-1.559-1.93-1.64-3.402l-0.041-1.545v-0.759H74.417z"/>
	<path d="M96.332,1.251v2.154h-4.418v16.954h-2.629V3.405h-4.418V1.251H96.332z"/>
	<path d="M100.113,1.251h3.456l4.405,19.108h-2.765l-0.908-4.363h-5.109l-0.935,4.363h-2.548L100.113,1.251z M99.638,13.841h4.174
		l-2.02-10.178L99.638,13.841z"/>
	<path d="M118.828,1.251v2.154h-4.418v16.954h-2.629V3.405h-4.418V1.251H118.828z"/>
	<path d="M124.127,1.251v19.108h-2.629V1.251H124.127z"/>
	<path d="M131.649,1.251l4.96,16.466V1.251h2.467v19.108h-4.12l-4.96-16.29v16.29h-2.467V1.251H131.649z"/>
	<path d="M148.738,1.251h4.771c0.741,0,1.437,0.059,2.087,0.176c2.304,0.407,3.47,1.997,3.497,4.771
		c-0.018,1.409-0.307,2.453-0.867,3.131c-0.452,0.569-1.328,0.989-2.629,1.261c1.554,0.153,2.593,0.601,3.117,1.341
		c0.578,0.796,0.872,1.907,0.881,3.334c-0.009,0.769-0.113,1.505-0.312,2.209c-0.334,1.211-1.053,2.042-2.155,2.494
		c-0.651,0.271-1.771,0.401-3.361,0.393h-5.028V1.251z M151.368,3.405v6.099h2.033c0.587,0.01,1.075-0.036,1.464-0.135
		c1.048-0.218,1.581-1.233,1.599-3.05c0.018-1.934-1.017-2.904-3.104-2.914H151.368z M151.368,11.659v6.546h2.046
		c1.301-0.009,2.213-0.249,2.737-0.719s0.795-1.368,0.813-2.696c0.009-1.699-0.678-2.697-2.06-2.995
		c-0.461-0.082-0.962-0.127-1.504-0.136H151.368z"/>
	<path d="M162.467,1.251h8.605v2.154h-5.977v6.059h5.611v2.154h-5.611v6.587h6.153v2.154h-8.782V1.251z"/>
	<path d="M178.215,1.251l4.96,16.466V1.251h2.467v19.108h-4.12l-4.96-16.29v16.29h-2.467V1.251H178.215z"/>
	<path d="M189.07,1.251h8.605v2.154h-5.977v6.059h5.611v2.154h-5.611v6.587h6.153v2.154h-8.782V1.251z"/>
	<path d="M209.263,1.251v2.154h-5.76V9.45h5.543v2.154h-5.543v8.755h-2.629V1.251H209.263z"/>
	<path d="M214.698,1.251v19.108h-2.629V1.251H214.698z"/>
	<path d="M228.846,1.251v2.154h-4.418v16.954h-2.629V3.405h-4.418V1.251H228.846z"/>
	<path d="M242.955,12.391v-2.154h5.57v9.514l-1.342,0.406c-0.47,0.127-0.985,0.226-1.545,0.298
		c-0.849,0.127-1.667,0.186-2.453,0.177c-2.069,0-3.542-0.475-4.418-1.423c-0.768-0.831-1.156-2.331-1.166-4.5V7.797
		c0.009-1.961,0.158-3.303,0.447-4.025c0.542-1.346,1.541-2.19,2.995-2.534c0.687-0.163,1.418-0.248,2.196-0.258
		c1.734,0.027,3.042,0.423,3.923,1.187c0.881,0.763,1.335,2.03,1.362,3.801v0.624h-2.629V6.157c0-0.299-0.027-0.61-0.082-0.936
		c-0.217-1.392-1.048-2.087-2.494-2.087c-1.31,0.027-2.173,0.442-2.588,1.247c-0.253,0.442-0.398,0.939-0.434,1.49
		c-0.054,0.497-0.077,1.035-0.068,1.613v6.775c-0.009,1.464,0.122,2.463,0.393,2.995c0.416,0.841,1.292,1.247,2.629,1.22
		c0.497,0.01,0.999-0.049,1.504-0.176l1.139-0.339v-5.57H242.955z"/>
	<path d="M256.412,1.251h1.572c0.605,0.009,1.161,0.067,1.667,0.176c1.942,0.38,2.927,1.906,2.955,4.581
		c0,1.4-0.258,2.471-0.772,3.212c-0.497,0.695-1.464,1.165-2.9,1.409c0.895,0.1,1.536,0.267,1.924,0.502
		c0.569,0.343,0.922,0.895,1.057,1.653c0.09,0.506,0.149,1.098,0.176,1.775l0.108,2.249c0.045,0.858,0.117,1.531,0.217,2.02
		c0.054,0.353,0.181,0.863,0.379,1.531h-2.737l-0.258-1.22c-0.072-0.343-0.122-0.781-0.149-1.314l-0.095-1.721l-0.095-1.789
		c-0.118-1.373-0.651-2.195-1.6-2.467c-0.406-0.108-0.867-0.162-1.382-0.162h-1.816v8.673h-2.629V1.251H256.412z M254.664,3.405
		v6.126h1.884c0.551,0,1.035-0.041,1.45-0.122c0.813-0.153,1.373-0.551,1.681-1.192c0.198-0.425,0.298-1.129,0.298-2.114
		c0-1.066-0.293-1.807-0.881-2.223c-0.425-0.307-1.224-0.465-2.399-0.475H254.664z"/>
	<path d="M265.776,7.417c0.009-1.563,0.126-2.71,0.353-3.442c0.352-1.147,1.125-1.965,2.317-2.453
		c0.867-0.361,1.798-0.542,2.792-0.542c0.985,0,1.916,0.181,2.792,0.542c1.174,0.488,1.942,1.306,2.304,2.453
		c0.226,0.724,0.348,1.87,0.366,3.442v6.396c0,1.166-0.05,2.164-0.149,2.995c-0.298,2.53-2.042,3.804-5.231,3.822
		c-2.322,0-3.876-0.592-4.662-1.775c-0.596-0.895-0.89-2.575-0.881-5.042V7.417z M268.406,13.8c0.009,1.608,0.104,2.652,0.285,3.131
		c0.18,0.479,0.519,0.858,1.016,1.139s1.007,0.416,1.531,0.406c0.479,0.01,0.94-0.104,1.383-0.339
		c0.831-0.415,1.287-1.147,1.369-2.195c0.045-0.596,0.072-1.31,0.081-2.142V7.403c0.009-1.382-0.117-2.354-0.379-2.913
		c-0.416-0.913-1.233-1.364-2.453-1.355c-0.47,0-0.913,0.095-1.328,0.284c-0.858,0.371-1.337,1.111-1.437,2.223
		c-0.054,0.506-0.077,1.094-0.067,1.762V13.8z"/>
	<path d="M280.196,1.251h2.629V13.99l0.027,1.693c0.09,1.853,0.966,2.783,2.629,2.792c1.663,0,2.575-0.871,2.738-2.615
		c0.054-0.614,0.085-1.238,0.095-1.87V1.251h2.629v12.956c-0.009,1.057-0.041,1.875-0.095,2.453
		c-0.081,0.895-0.371,1.64-0.867,2.235c-0.967,1.148-2.439,1.726-4.418,1.735c-2.06-0.01-3.542-0.578-4.445-1.708
		c-0.506-0.642-0.791-1.396-0.854-2.263c-0.045-0.506-0.067-1.324-0.067-2.453V1.251z"/>
	<path d="M298.668,1.251c0.976,0.009,1.744,0.04,2.304,0.095c0.813,0.072,1.522,0.344,2.128,0.813
		c1.075,0.849,1.608,2.235,1.599,4.16c-0.018,3.74-1.681,5.606-4.987,5.598h-2.534v8.442h-2.629V1.251H298.668z M297.177,3.405
		v6.356h2.141c1.111-0.009,1.866-0.294,2.263-0.854c0.316-0.443,0.479-1.261,0.488-2.453c0-1.103-0.244-1.884-0.732-2.345
		s-1.292-0.695-2.413-0.705H297.177z"/>
	<path d="M309.32,13.949v1.07c-0.009,0.543,0.045,1.049,0.163,1.519c0.262,1.301,1.116,1.947,2.561,1.938
		c0.542,0.01,1.035-0.081,1.478-0.271c0.984-0.38,1.495-1.288,1.531-2.725c-0.009-0.984-0.339-1.748-0.989-2.29
		c-0.461-0.37-1.007-0.736-1.64-1.098l-1.911-1.07c-0.759-0.416-1.392-0.845-1.897-1.288c-1.057-0.903-1.585-2.204-1.585-3.903
		c0.018-1.852,0.61-3.166,1.775-3.943c0.867-0.587,2.06-0.89,3.578-0.908c1.852,0,3.189,0.434,4.012,1.302
		c0.65,0.695,0.976,2.06,0.976,4.093v0.379h-2.629V6.292l-0.054-0.989c-0.163-1.473-0.944-2.195-2.345-2.168
		c-1.771,0.009-2.666,0.886-2.683,2.629c0,1.111,0.556,2.015,1.667,2.711c0.687,0.442,1.464,0.888,2.331,1.335
		c0.868,0.447,1.572,0.869,2.114,1.267c1.274,0.958,1.911,2.395,1.911,4.31c-0.027,3.497-1.902,5.245-5.625,5.245
		c-1.599,0.018-2.828-0.308-3.686-0.976c-1.012-0.795-1.559-1.93-1.64-3.402l-0.041-1.545v-0.759H309.32z"/>
	<path d="M320.688,1.446l0.688-0.419c0.21-0.137,0.474-0.343,0.79-0.616L322.647,0h1.193v11.117h-1.438V1.723l-0.53,0.419
		c-0.221,0.174-0.435,0.308-0.64,0.402l-0.545,0.222V1.446z"/>
	<path d="M2.717,32.005v16.354h-2.25V32.005H2.717z"/>
	<path d="M5.327,36.969h2.111v0.998c0.619-0.819,1.481-1.229,2.587-1.229c0.448,0,0.87,0.081,1.264,0.243
		c0.897,0.364,1.373,1.087,1.427,2.169l0.023,1.462v7.748h-2.111v-7.18l-0.023-1.148c-0.039-1.129-0.53-1.693-1.473-1.693
		c-0.711,0.016-1.183,0.302-1.415,0.858c-0.131,0.31-0.212,0.644-0.244,1.003c-0.031,0.36-0.042,0.741-0.035,1.143v7.018H5.327
		V36.969z"/>
	<path d="M22.436,31.981v2.135h-2.273v-2.135H22.436z M20.243,36.969h2.111v11.391h-2.111V36.969z"/>
	<path d="M24.604,36.969h2.111v0.998c0.619-0.819,1.481-1.229,2.587-1.229c0.448,0,0.87,0.081,1.264,0.243
		c0.897,0.364,1.373,1.087,1.427,2.169l0.023,1.462v7.748h-2.111v-7.18l-0.023-1.148c-0.039-1.129-0.53-1.693-1.473-1.693
		c-0.711,0.016-1.183,0.302-1.415,0.858c-0.131,0.31-0.212,0.644-0.244,1.003c-0.031,0.36-0.042,0.741-0.035,1.143v7.018h-2.111
		V36.969z"/>
	<path d="M41.679,31.981v16.378h-2.111v-1.044c-0.781,0.866-1.597,1.292-2.447,1.276c-0.688,0.008-1.274-0.188-1.757-0.586
		s-0.791-0.93-0.922-1.595c-0.116-0.526-0.174-1.098-0.174-1.717v-3.793c-0.023-2.784,0.971-4.172,2.981-4.164
		c0.743,0.008,1.338,0.189,1.787,0.545c0.139,0.116,0.317,0.278,0.533,0.487v-5.788H41.679z M36.378,44.335
		c-0.008,0.557,0.007,0.989,0.046,1.299c0.069,0.92,0.545,1.373,1.427,1.357c0.51,0,0.908-0.178,1.194-0.534
		c0.34-0.425,0.514-1.283,0.522-2.575v-3.328c0-0.402-0.035-0.77-0.104-1.103c-0.07-0.332-0.221-0.599-0.453-0.8
		c-0.248-0.201-0.564-0.306-0.951-0.313c-0.99,0.008-1.531,0.561-1.624,1.659c-0.046,0.379-0.065,0.815-0.058,1.311V44.335z"/>
	<path d="M46.098,31.981v2.135h-2.273v-2.135H46.098z M43.905,36.969h2.111v11.391h-2.111V36.969z"/>
	<path d="M49.972,36.969l1.786,9.303l1.775-9.303h2.169l-2.598,11.391h-2.703l-2.598-11.391H49.972z"/>
	<path d="M59.681,31.981v2.135h-2.273v-2.135H59.681z M57.488,36.969H59.6v11.391h-2.111V36.969z"/>
	<path d="M69.285,31.981v16.378h-2.111v-1.044c-0.781,0.866-1.597,1.292-2.447,1.276c-0.688,0.008-1.274-0.188-1.757-0.586
		s-0.791-0.93-0.922-1.595c-0.116-0.526-0.174-1.098-0.174-1.717v-3.793c-0.023-2.784,0.971-4.172,2.981-4.164
		c0.743,0.008,1.338,0.189,1.787,0.545c0.139,0.116,0.317,0.278,0.533,0.487v-5.788H69.285z M63.984,44.335
		c-0.008,0.557,0.007,0.989,0.046,1.299c0.069,0.92,0.545,1.373,1.427,1.357c0.51,0,0.908-0.178,1.194-0.534
		c0.34-0.425,0.514-1.283,0.522-2.575v-3.328c0-0.402-0.035-0.77-0.104-1.103c-0.07-0.332-0.221-0.599-0.453-0.8
		c-0.248-0.201-0.564-0.306-0.951-0.313c-0.99,0.008-1.531,0.561-1.624,1.659c-0.046,0.379-0.065,0.815-0.058,1.311V44.335z"/>
	<path d="M73.6,36.969v7.679c0.008,0.813,0.054,1.334,0.139,1.566c0.209,0.533,0.626,0.793,1.253,0.777
		c0.41,0.008,0.754-0.093,1.032-0.302c0.348-0.239,0.572-0.622,0.673-1.148c0.062-0.31,0.093-0.649,0.093-1.021v-7.552H78.9v11.391
		H76.79v-1.009l-0.395,0.464c-0.526,0.519-1.233,0.777-2.123,0.777c-0.789,0-1.454-0.229-1.995-0.685
		c-0.503-0.425-0.762-1.071-0.777-1.938l-0.011-1.229v-7.771H73.6z"/>
	<path d="M81.51,38.964c0.085-0.448,0.292-0.853,0.621-1.212c0.329-0.359,0.717-0.608,1.166-0.748c0.534-0.17,1.09-0.259,1.67-0.267
		c0.673,0,1.283,0.093,1.833,0.278c0.688,0.225,1.191,0.719,1.508,1.484c0.163,0.402,0.244,1.118,0.244,2.146v7.713H86.44V47.13
		c-0.387,0.58-0.743,0.955-1.067,1.125c-0.417,0.232-0.917,0.345-1.496,0.337c-0.425,0.008-0.805-0.055-1.137-0.186
		c-1.083-0.371-1.616-1.377-1.601-3.016c0-0.688,0.07-1.307,0.209-1.856c0.232-0.951,0.959-1.585,2.181-1.902
		c0.487-0.131,0.99-0.216,1.508-0.255l1.404-0.047v-1.333c-0.016-1.13-0.487-1.683-1.416-1.659
		c-0.564,0.008-0.966,0.189-1.206,0.545c-0.17,0.256-0.278,0.696-0.325,1.322h-2.111C81.39,39.726,81.433,39.313,81.51,38.964z
		 M86.44,42.932h-0.615c-1.748,0.085-2.606,0.881-2.575,2.389c-0.023,1.106,0.41,1.663,1.299,1.671
		c0.75,0.016,1.295-0.375,1.635-1.172c0.131-0.302,0.209-0.614,0.232-0.939l0.023-0.904V42.932z"/>
	<path d="M92.901,31.981v16.378H90.79V31.981H92.901z"/>
	<path d="M96.983,44.892v0.417l0.035,0.465c0.131,0.835,0.596,1.24,1.392,1.218c0.943-0.008,1.431-0.464,1.461-1.369
		c0-0.309-0.077-0.584-0.232-0.823c-0.209-0.294-0.472-0.572-0.789-0.835l-1.056-0.789l-1.114-0.835
		c-0.502-0.395-0.866-0.766-1.09-1.113c-0.278-0.426-0.414-0.967-0.406-1.624c0-1.902,1.109-2.857,3.329-2.865
		c0.58,0,1.117,0.077,1.612,0.231c0.974,0.302,1.515,0.986,1.624,2.054l0.035,0.87v0.371h-2.111v-0.36v-0.417
		c-0.069-0.75-0.476-1.133-1.218-1.148c-0.758-0.008-1.145,0.387-1.16,1.184c0,0.294,0.066,0.537,0.197,0.73
		c0.17,0.255,0.445,0.525,0.824,0.812l1.311,0.963c1.152,0.813,1.856,1.504,2.111,2.076c0.154,0.379,0.236,0.813,0.244,1.299
		c-0.016,1.029-0.356,1.829-1.021,2.401c-0.611,0.519-1.45,0.781-2.517,0.789c-2.157-0.008-3.336-0.912-3.538-2.715l-0.035-0.579
		v-0.406H96.983z"/>
	<path d="M109.163,36.969h2.111v0.998c0.619-0.819,1.481-1.229,2.587-1.229c0.448,0,0.87,0.081,1.264,0.243
		c0.897,0.364,1.373,1.087,1.427,2.169l0.023,1.462v7.748h-2.111v-7.18l-0.023-1.148c-0.039-1.129-0.53-1.693-1.473-1.693
		c-0.711,0.016-1.183,0.302-1.415,0.858c-0.131,0.31-0.212,0.644-0.244,1.003c-0.031,0.36-0.042,0.741-0.035,1.143v7.018h-2.111
		V36.969z"/>
	<path d="M118.802,41.319c0.007-1.184,0.127-2.069,0.359-2.656c0.363-0.882,1.017-1.458,1.96-1.729
		c0.44-0.132,0.905-0.197,1.392-0.197c0.479,0,0.943,0.065,1.392,0.197c0.587,0.17,1.052,0.452,1.392,0.847
		c0.595,0.688,0.9,1.867,0.916,3.538v2.853c0.008,1.509-0.224,2.575-0.696,3.202c-0.603,0.819-1.589,1.226-2.958,1.218
		c-2.173,0.023-3.391-0.905-3.653-2.784c-0.078-0.494-0.112-1.04-0.104-1.636V41.319z M120.913,44.172l0.035,1.103
		c0.07,1.152,0.6,1.725,1.589,1.717c0.688-0.016,1.145-0.349,1.369-0.998c0.131-0.379,0.197-0.985,0.197-1.821v-3.038
		c0-1.88-0.534-2.812-1.601-2.796c-0.959-0.016-1.473,0.557-1.543,1.717l-0.046,1.079V44.172z"/>
	<path d="M129.601,36.969v-2.041l2.111-0.951v2.992h1.716v1.602h-1.716v6.692l0.011,0.754c0.023,0.604,0.406,0.92,1.148,0.951
		l0.557,0.023v1.449l-0.696,0.104c-0.263,0.039-0.53,0.055-0.8,0.047c-1.446,0-2.211-0.58-2.296-1.74l-0.035-1.253V38.57h-1.496
		v-1.602H129.601z"/>
	<path d="M142.939,36.969v1.404c0.325-0.564,0.704-0.967,1.137-1.207c0.286-0.162,0.564-0.274,0.835-0.336l0.673-0.093v2.088
		l-0.708,0.069c-0.758,0.093-1.28,0.41-1.566,0.951c-0.248,0.503-0.372,1.245-0.372,2.228v6.286h-2.111V36.969H142.939z"/>
	<path d="M148.728,44.637c-0.008,0.772,0.054,1.314,0.186,1.623c0.201,0.472,0.657,0.716,1.369,0.731c0.943,0,1.473-0.434,1.589-1.3
		l0.046-0.486v-0.268h2.111v0.268l-0.035,0.788c-0.17,1.74-1.419,2.606-3.746,2.599c-0.542,0.008-1.041-0.055-1.497-0.186
		c-0.603-0.155-1.075-0.452-1.415-0.894c-0.464-0.557-0.704-1.55-0.719-2.98v-3.225c-0.008-1.593,0.213-2.703,0.661-3.329
		c0.596-0.827,1.628-1.241,3.097-1.241c2.258,0.023,3.46,0.975,3.607,2.854c0.031,0.363,0.046,0.785,0.046,1.264v2.553h-5.301
		V44.637z M148.728,41.806h3.189v-1.311c-0.008-1.415-0.538-2.134-1.589-2.157c-0.673,0.016-1.133,0.298-1.38,0.847
		c-0.147,0.317-0.22,0.882-0.22,1.693V41.806z"/>
	<path d="M156.082,40.901c-0.008-1.484,0.22-2.513,0.684-3.085c0.572-0.704,1.554-1.063,2.946-1.079
		c2.227,0.016,3.344,0.947,3.352,2.795v0.639v0.313h-2.111v-0.313l-0.023-0.568c-0.077-0.836-0.491-1.257-1.241-1.265
		c-0.966-0.008-1.461,0.507-1.484,1.543l-0.012,0.858v3.607l0.023,1.159c0.039,0.982,0.514,1.478,1.427,1.485
		c0.943-0.008,1.427-0.588,1.45-1.74v-0.464h2.111v0.521c-0.031,2.22-1.191,3.313-3.479,3.283c-0.696,0-1.315-0.097-1.856-0.29
		c-1.183-0.387-1.779-1.647-1.786-3.781V40.901z"/>
	<path d="M167.124,44.637c-0.008,0.772,0.054,1.314,0.186,1.623c0.201,0.472,0.657,0.716,1.369,0.731c0.943,0,1.473-0.434,1.589-1.3
		l0.046-0.486v-0.268h2.111v0.268l-0.035,0.788c-0.17,1.74-1.419,2.606-3.746,2.599c-0.542,0.008-1.041-0.055-1.497-0.186
		c-0.603-0.155-1.075-0.452-1.415-0.894c-0.464-0.557-0.704-1.55-0.719-2.98v-3.225c-0.008-1.593,0.213-2.703,0.661-3.329
		c0.596-0.827,1.628-1.241,3.097-1.241c2.258,0.023,3.46,0.975,3.607,2.854c0.031,0.363,0.046,0.785,0.046,1.264v2.553h-5.301
		V44.637z M167.124,41.806h3.189v-1.311c-0.008-1.415-0.538-2.134-1.589-2.157c-0.673,0.016-1.133,0.298-1.38,0.847
		c-0.147,0.317-0.22,0.882-0.22,1.693V41.806z"/>
	<path d="M176.635,31.981v2.135h-2.273v-2.135H176.635z M174.443,36.969h2.111v11.391h-2.111V36.969z"/>
	<path d="M180.51,36.969l1.786,9.303l1.775-9.303h2.169l-2.598,11.391h-2.703l-2.598-11.391H180.51z"/>
	<path d="M190.218,31.981v2.135h-2.273v-2.135H190.218z M188.026,36.969h2.111v11.391h-2.111V36.969z"/>
	<path d="M192.387,36.969h2.111v0.998c0.619-0.819,1.481-1.229,2.587-1.229c0.448,0,0.87,0.081,1.264,0.243
		c0.897,0.364,1.373,1.087,1.427,2.169l0.023,1.462v7.748h-2.111v-7.18l-0.023-1.148c-0.039-1.129-0.53-1.693-1.473-1.693
		c-0.711,0.016-1.183,0.302-1.415,0.858c-0.131,0.31-0.212,0.644-0.244,1.003c-0.031,0.36-0.042,0.741-0.035,1.143v7.018h-2.111
		V36.969z"/>
	<path d="M206.793,47.687c-0.464,0.441-1.098,0.665-1.902,0.673c-1.655,0-2.586-0.877-2.795-2.633
		c-0.077-0.541-0.112-1.137-0.104-1.786v-3.282l0.012-1.148c0.031-0.89,0.302-1.563,0.812-2.019
		c0.541-0.487,1.229-0.738,2.065-0.754c0.773-0.008,1.446,0.225,2.018,0.696l0.395,0.417v-0.882h2.111v10.405l-0.023,1.461
		c-0.016,0.727-0.054,1.257-0.116,1.589c-0.085,0.526-0.321,0.994-0.708,1.404c-0.649,0.68-1.62,1.024-2.912,1.032
		c-2.25-0.016-3.368-1.11-3.352-3.283v-0.383h1.821v0.453c-0.016,1.105,0.479,1.643,1.484,1.612c0.688,0,1.152-0.171,1.392-0.511
		c0.201-0.278,0.302-0.781,0.302-1.508v-2.088L206.793,47.687z M204.103,43.905l0.023,0.998c0.008,1.253,0.495,1.871,1.462,1.855
		c0.757,0,1.26-0.302,1.508-0.904c0.077-0.209,0.131-0.495,0.162-0.858l0.035-1.044v-3.294c0.015-0.967-0.182-1.64-0.592-2.019
		c-0.24-0.193-0.572-0.294-0.998-0.302c-1.067,0-1.601,0.781-1.601,2.343V43.905z"/>
	<path d="M216.978,40.901c-0.008-1.484,0.22-2.513,0.684-3.085c0.572-0.704,1.554-1.063,2.946-1.079
		c2.227,0.016,3.344,0.947,3.352,2.795v0.639v0.313h-2.111v-0.313l-0.023-0.568c-0.077-0.836-0.491-1.257-1.241-1.265
		c-0.966-0.008-1.461,0.507-1.484,1.543l-0.012,0.858v3.607l0.023,1.159c0.039,0.982,0.514,1.478,1.427,1.485
		c0.943-0.008,1.427-0.588,1.45-1.74v-0.464h2.111v0.521c-0.031,2.22-1.191,3.313-3.479,3.283c-0.696,0-1.315-0.097-1.856-0.29
		c-1.183-0.387-1.779-1.647-1.786-3.781V40.901z"/>
	<path d="M226.118,31.981h2.111v5.985l0.406-0.395c0.626-0.564,1.341-0.843,2.146-0.835c1.732,0.023,2.637,0.878,2.714,2.563
		l0.035,1.368v7.69h-2.111v-7.215l-0.012-0.847c-0.023-0.618-0.112-1.07-0.267-1.356c-0.217-0.395-0.611-0.596-1.183-0.604
		c-0.758,0-1.253,0.294-1.485,0.882c-0.131,0.31-0.205,0.626-0.22,0.951l-0.023,0.928v7.261h-2.111V31.981z"/>
	<path d="M235.757,41.319c0.007-1.184,0.127-2.069,0.359-2.656c0.363-0.882,1.017-1.458,1.96-1.729
		c0.44-0.132,0.905-0.197,1.392-0.197c0.479,0,0.943,0.065,1.392,0.197c0.587,0.17,1.052,0.452,1.392,0.847
		c0.595,0.688,0.9,1.867,0.916,3.538v2.853c0.008,1.509-0.224,2.575-0.696,3.202c-0.603,0.819-1.589,1.226-2.958,1.218
		c-2.173,0.023-3.391-0.905-3.653-2.784c-0.078-0.494-0.112-1.04-0.104-1.636V41.319z M237.868,44.172l0.035,1.103
		c0.07,1.152,0.6,1.725,1.589,1.717c0.688-0.016,1.145-0.349,1.369-0.998c0.131-0.379,0.197-0.985,0.197-1.821v-3.038
		c0-1.88-0.534-2.812-1.601-2.796c-0.959-0.016-1.473,0.557-1.543,1.717l-0.046,1.079V44.172z"/>
	<path d="M247.53,31.981v16.378h-2.111V31.981H247.53z"/>
	<path d="M251.683,44.637c-0.008,0.772,0.054,1.314,0.186,1.623c0.201,0.472,0.657,0.716,1.369,0.731c0.943,0,1.473-0.434,1.589-1.3
		l0.046-0.486v-0.268h2.111v0.268l-0.035,0.788c-0.17,1.74-1.419,2.606-3.746,2.599c-0.542,0.008-1.041-0.055-1.497-0.186
		c-0.603-0.155-1.075-0.452-1.415-0.894c-0.464-0.557-0.704-1.55-0.719-2.98v-3.225c-0.008-1.593,0.213-2.703,0.661-3.329
		c0.596-0.827,1.628-1.241,3.097-1.241c2.258,0.023,3.46,0.975,3.607,2.854c0.031,0.363,0.046,0.785,0.046,1.264v2.553h-5.301
		V44.637z M251.683,41.806h3.189v-1.311c-0.008-1.415-0.538-2.134-1.589-2.157c-0.673,0.016-1.133,0.298-1.38,0.847
		c-0.147,0.317-0.22,0.882-0.22,1.693V41.806z"/>
	<path d="M260.811,44.892v0.417l0.035,0.465c0.131,0.835,0.596,1.24,1.392,1.218c0.943-0.008,1.431-0.464,1.461-1.369
		c0-0.309-0.077-0.584-0.232-0.823c-0.209-0.294-0.472-0.572-0.789-0.835l-1.056-0.789l-1.114-0.835
		c-0.502-0.395-0.866-0.766-1.09-1.113c-0.278-0.426-0.414-0.967-0.406-1.624c0-1.902,1.109-2.857,3.329-2.865
		c0.58,0,1.117,0.077,1.612,0.231c0.974,0.302,1.515,0.986,1.624,2.054l0.035,0.87v0.371h-2.111v-0.36v-0.417
		c-0.069-0.75-0.476-1.133-1.218-1.148c-0.758-0.008-1.145,0.387-1.16,1.184c0,0.294,0.066,0.537,0.197,0.73
		c0.17,0.255,0.445,0.525,0.824,0.812l1.311,0.963c1.152,0.813,1.856,1.504,2.111,2.076c0.154,0.379,0.236,0.813,0.244,1.299
		c-0.016,1.029-0.356,1.829-1.021,2.401c-0.611,0.519-1.45,0.781-2.517,0.789c-2.157-0.008-3.336-0.912-3.538-2.715l-0.035-0.579
		v-0.406H260.811z"/>
	<path d="M268.896,36.969v-2.041l2.111-0.951v2.992h1.716v1.602h-1.716v6.692l0.011,0.754c0.023,0.604,0.406,0.92,1.148,0.951
		l0.557,0.023v1.449l-0.696,0.104c-0.263,0.039-0.53,0.055-0.8,0.047c-1.446,0-2.211-0.58-2.296-1.74l-0.035-1.253V38.57h-1.496
		v-1.602H268.896z"/>
	<path d="M276.644,44.637c-0.008,0.772,0.054,1.314,0.186,1.623c0.201,0.472,0.657,0.716,1.369,0.731c0.943,0,1.473-0.434,1.589-1.3
		l0.046-0.486v-0.268h2.111v0.268l-0.035,0.788c-0.17,1.74-1.419,2.606-3.746,2.599c-0.542,0.008-1.041-0.055-1.497-0.186
		c-0.603-0.155-1.075-0.452-1.415-0.894c-0.464-0.557-0.704-1.55-0.719-2.98v-3.225c-0.008-1.593,0.213-2.703,0.661-3.329
		c0.596-0.827,1.628-1.241,3.097-1.241c2.258,0.023,3.46,0.975,3.607,2.854c0.031,0.363,0.046,0.785,0.046,1.264v2.553h-5.301
		V44.637z M276.644,41.806h3.189v-1.311c-0.008-1.415-0.538-2.134-1.589-2.157c-0.673,0.016-1.133,0.298-1.38,0.847
		c-0.147,0.317-0.22,0.882-0.22,1.693V41.806z"/>
	<path d="M286.178,36.969v1.404c0.325-0.564,0.704-0.967,1.137-1.207c0.286-0.162,0.564-0.274,0.835-0.336l0.673-0.093v2.088
		l-0.708,0.069c-0.758,0.093-1.28,0.41-1.566,0.951c-0.248,0.503-0.372,1.245-0.372,2.228v6.286h-2.111V36.969H286.178z"/>
	<path d="M290.064,41.319c0.007-1.184,0.127-2.069,0.359-2.656c0.363-0.882,1.017-1.458,1.96-1.729
		c0.44-0.132,0.905-0.197,1.392-0.197c0.479,0,0.943,0.065,1.392,0.197c0.587,0.17,1.052,0.452,1.392,0.847
		c0.595,0.688,0.9,1.867,0.916,3.538v2.853c0.008,1.509-0.224,2.575-0.696,3.202c-0.603,0.819-1.589,1.226-2.958,1.218
		c-2.173,0.023-3.391-0.905-3.653-2.784c-0.078-0.494-0.112-1.04-0.104-1.636V41.319z M292.175,44.172l0.035,1.103
		c0.07,1.152,0.6,1.725,1.589,1.717c0.688-0.016,1.145-0.349,1.369-0.998c0.131-0.379,0.197-0.985,0.197-1.821v-3.038
		c0-1.88-0.534-2.812-1.601-2.796c-0.959-0.016-1.473,0.557-1.543,1.717l-0.046,1.079V44.172z"/>
	<path d="M301.837,31.981v16.378h-2.111V31.981H301.837z"/>
	<path d="M311.477,31.981v16.378h-2.111V31.981H311.477z"/>
	<path d="M313.727,41.319c0.007-1.184,0.127-2.069,0.359-2.656c0.363-0.882,1.017-1.458,1.96-1.729
		c0.44-0.132,0.905-0.197,1.392-0.197c0.479,0,0.943,0.065,1.392,0.197c0.587,0.17,1.052,0.452,1.392,0.847
		c0.595,0.688,0.9,1.867,0.916,3.538v2.853c0.008,1.509-0.224,2.575-0.696,3.202c-0.603,0.819-1.589,1.226-2.958,1.218
		c-2.173,0.023-3.391-0.905-3.653-2.784c-0.078-0.494-0.112-1.04-0.104-1.636V41.319z M315.837,44.172l0.035,1.103
		c0.07,1.152,0.6,1.725,1.589,1.717c0.688-0.016,1.145-0.349,1.369-0.998c0.131-0.379,0.197-0.985,0.197-1.821v-3.038
		c0-1.88-0.534-2.812-1.601-2.796c-0.959-0.016-1.473,0.557-1.543,1.717l-0.046,1.079V44.172z"/>
	<path d="M324.548,36.969l1.763,9.871l1.694-9.871h2.946l1.879,9.918l1.763-9.918h1.949l-2.331,11.391h-2.946l-1.856-9.639
		l-1.717,9.639h-2.946l-2.331-11.391H324.548z"/>
	<path d="M339.721,44.637c-0.008,0.772,0.054,1.314,0.186,1.623c0.201,0.472,0.657,0.716,1.369,0.731c0.943,0,1.473-0.434,1.589-1.3
		l0.046-0.486v-0.268h2.111v0.268l-0.035,0.788c-0.17,1.74-1.419,2.606-3.746,2.599c-0.542,0.008-1.041-0.055-1.497-0.186
		c-0.603-0.155-1.075-0.452-1.415-0.894c-0.464-0.557-0.704-1.55-0.719-2.98v-3.225c-0.008-1.593,0.213-2.703,0.661-3.329
		c0.596-0.827,1.628-1.241,3.097-1.241c2.258,0.023,3.46,0.975,3.607,2.854c0.031,0.363,0.046,0.785,0.046,1.264v2.553h-5.301
		V44.637z M339.721,41.806h3.189v-1.311c-0.008-1.415-0.538-2.134-1.589-2.157c-0.673,0.016-1.133,0.298-1.38,0.847
		c-0.147,0.317-0.22,0.882-0.22,1.693V41.806z"/>
	<path d="M349.255,36.969v1.404c0.325-0.564,0.704-0.967,1.137-1.207c0.286-0.162,0.564-0.274,0.835-0.336l0.673-0.093v2.088
		l-0.708,0.069c-0.758,0.093-1.28,0.41-1.566,0.951c-0.248,0.503-0.372,1.245-0.372,2.228v6.286h-2.111V36.969H349.255z"/>
	<path d="M355.797,31.981v2.135h-2.273v-2.135H355.797z M353.604,36.969h2.111v11.391h-2.111V36.969z"/>
	<path d="M357.966,36.969h2.111v0.998c0.619-0.819,1.481-1.229,2.587-1.229c0.448,0,0.87,0.081,1.264,0.243
		c0.897,0.364,1.373,1.087,1.427,2.169l0.023,1.462v7.748h-2.111v-7.18l-0.023-1.148c-0.039-1.129-0.53-1.693-1.473-1.693
		c-0.711,0.016-1.183,0.302-1.415,0.858c-0.131,0.31-0.212,0.644-0.244,1.003c-0.031,0.36-0.042,0.741-0.035,1.143v7.018h-2.111
		V36.969z"/>
	<path d="M372.372,47.687c-0.464,0.441-1.098,0.665-1.902,0.673c-1.655,0-2.586-0.877-2.795-2.633
		c-0.077-0.541-0.112-1.137-0.104-1.786v-3.282l0.012-1.148c0.031-0.89,0.302-1.563,0.812-2.019
		c0.541-0.487,1.229-0.738,2.065-0.754c0.773-0.008,1.446,0.225,2.018,0.696l0.395,0.417v-0.882h2.111v10.405l-0.023,1.461
		c-0.016,0.727-0.054,1.257-0.116,1.589c-0.085,0.526-0.321,0.994-0.708,1.404c-0.649,0.68-1.62,1.024-2.912,1.032
		c-2.25-0.016-3.368-1.11-3.352-3.283v-0.383h1.821v0.453c-0.016,1.105,0.479,1.643,1.484,1.612c0.688,0,1.152-0.171,1.392-0.511
		c0.201-0.278,0.302-0.781,0.302-1.508v-2.088L372.372,47.687z M369.681,43.905l0.023,0.998c0.008,1.253,0.495,1.871,1.462,1.855
		c0.757,0,1.26-0.302,1.508-0.904c0.077-0.209,0.131-0.495,0.162-0.858l0.035-1.044v-3.294c0.015-0.967-0.182-1.64-0.592-2.019
		c-0.24-0.193-0.572-0.294-0.998-0.302c-1.067,0-1.601,0.781-1.601,2.343V43.905z"/>
	<path d="M389.934,31.981v16.378h-2.111v-1.044c-0.781,0.866-1.597,1.292-2.447,1.276c-0.688,0.008-1.274-0.188-1.757-0.586
		s-0.791-0.93-0.922-1.595c-0.116-0.526-0.174-1.098-0.174-1.717v-3.793c-0.023-2.784,0.971-4.172,2.981-4.164
		c0.743,0.008,1.338,0.189,1.787,0.545c0.139,0.116,0.317,0.278,0.533,0.487v-5.788H389.934z M384.633,44.335
		c-0.008,0.557,0.007,0.989,0.046,1.299c0.069,0.92,0.545,1.373,1.427,1.357c0.51,0,0.908-0.178,1.194-0.534
		c0.34-0.425,0.514-1.283,0.522-2.575v-3.328c0-0.402-0.035-0.77-0.104-1.103c-0.07-0.332-0.221-0.599-0.453-0.8
		c-0.248-0.201-0.564-0.306-0.951-0.313c-0.99,0.008-1.531,0.561-1.624,1.659c-0.046,0.379-0.065,0.815-0.058,1.311V44.335z"/>
	<path d="M394.375,36.969v1.404c0.325-0.564,0.704-0.967,1.137-1.207c0.286-0.162,0.564-0.274,0.835-0.336l0.673-0.093v2.088
		l-0.708,0.069c-0.758,0.093-1.28,0.41-1.566,0.951c-0.248,0.503-0.372,1.245-0.372,2.228v6.286h-2.111V36.969H394.375z"/>
	<path d="M400.813,36.969v7.679c0.008,0.813,0.054,1.334,0.139,1.566c0.209,0.533,0.626,0.793,1.253,0.777
		c0.41,0.008,0.754-0.093,1.032-0.302c0.348-0.239,0.572-0.622,0.673-1.148c0.062-0.31,0.093-0.649,0.093-1.021v-7.552h2.111v11.391
		h-2.111v-1.009l-0.395,0.464c-0.526,0.519-1.233,0.777-2.123,0.777c-0.789,0-1.454-0.229-1.995-0.685
		c-0.503-0.425-0.762-1.071-0.777-1.938l-0.011-1.229v-7.771H400.813z"/>
	<path d="M413.108,47.687c-0.464,0.441-1.098,0.665-1.902,0.673c-1.655,0-2.586-0.877-2.795-2.633
		c-0.077-0.541-0.112-1.137-0.104-1.786v-3.282l0.012-1.148c0.031-0.89,0.302-1.563,0.812-2.019
		c0.541-0.487,1.229-0.738,2.065-0.754c0.773-0.008,1.446,0.225,2.018,0.696l0.395,0.417v-0.882h2.111v10.405l-0.023,1.461
		c-0.016,0.727-0.054,1.257-0.116,1.589c-0.085,0.526-0.321,0.994-0.708,1.404c-0.649,0.68-1.62,1.024-2.912,1.032
		c-2.25-0.016-3.368-1.11-3.352-3.283v-0.383h1.821v0.453c-0.016,1.105,0.479,1.643,1.484,1.612c0.688,0,1.152-0.171,1.392-0.511
		c0.201-0.278,0.302-0.781,0.302-1.508v-2.088L413.108,47.687z M410.417,43.905l0.023,0.998c0.008,1.253,0.495,1.871,1.462,1.855
		c0.757,0,1.26-0.302,1.508-0.904c0.077-0.209,0.131-0.495,0.162-0.858l0.035-1.044v-3.294c0.015-0.967-0.182-1.64-0.592-2.019
		c-0.24-0.193-0.572-0.294-0.998-0.302c-1.067,0-1.601,0.781-1.601,2.343V43.905z"/>
	<path d="M424.395,36.969v-2.041l2.111-0.951v2.992h1.716v1.602h-1.716v6.692l0.011,0.754c0.023,0.604,0.406,0.92,1.148,0.951
		l0.557,0.023v1.449l-0.696,0.104c-0.263,0.039-0.53,0.055-0.8,0.047c-1.446,0-2.211-0.58-2.296-1.74l-0.035-1.253V38.57h-1.496
		v-1.602H424.395z"/>
	<path d="M430.241,31.981h2.111v5.985l0.406-0.395c0.626-0.564,1.341-0.843,2.146-0.835c1.732,0.023,2.637,0.878,2.714,2.563
		l0.035,1.368v7.69h-2.111v-7.215l-0.012-0.847c-0.023-0.618-0.112-1.07-0.267-1.356c-0.217-0.395-0.611-0.596-1.183-0.604
		c-0.758,0-1.253,0.294-1.485,0.882c-0.131,0.31-0.205,0.626-0.22,0.951l-0.023,0.928v7.261h-2.111V31.981z"/>
	<path d="M441.782,44.637c-0.008,0.772,0.054,1.314,0.186,1.623c0.201,0.472,0.657,0.716,1.369,0.731c0.943,0,1.473-0.434,1.589-1.3
		l0.046-0.486v-0.268h2.111v0.268l-0.035,0.788c-0.17,1.74-1.419,2.606-3.746,2.599c-0.542,0.008-1.041-0.055-1.497-0.186
		c-0.603-0.155-1.075-0.452-1.415-0.894c-0.464-0.557-0.704-1.55-0.719-2.98v-3.225c-0.008-1.593,0.213-2.703,0.661-3.329
		c0.596-0.827,1.628-1.241,3.097-1.241c2.258,0.023,3.46,0.975,3.607,2.854c0.031,0.363,0.046,0.785,0.046,1.264v2.553h-5.301
		V44.637z M441.782,41.806h3.189v-1.311c-0.008-1.415-0.538-2.134-1.589-2.157c-0.673,0.016-1.133,0.298-1.38,0.847
		c-0.147,0.317-0.22,0.882-0.22,1.693V41.806z"/>
	<path d="M451.316,36.969v1.404c0.325-0.564,0.704-0.967,1.137-1.207c0.286-0.162,0.564-0.274,0.835-0.336l0.673-0.093v2.088
		l-0.708,0.069c-0.758,0.093-1.28,0.41-1.566,0.951c-0.248,0.503-0.372,1.245-0.372,2.228v6.286h-2.111V36.969H451.316z"/>
	<path d="M455.585,38.964c0.085-0.448,0.292-0.853,0.621-1.212c0.329-0.359,0.717-0.608,1.166-0.748
		c0.534-0.17,1.09-0.259,1.67-0.267c0.673,0,1.283,0.093,1.833,0.278c0.688,0.225,1.191,0.719,1.508,1.484
		c0.163,0.402,0.244,1.118,0.244,2.146v7.713h-2.111V47.13c-0.387,0.58-0.743,0.955-1.067,1.125
		c-0.417,0.232-0.917,0.345-1.496,0.337c-0.425,0.008-0.805-0.055-1.137-0.186c-1.083-0.371-1.616-1.377-1.601-3.016
		c0-0.688,0.07-1.307,0.209-1.856c0.232-0.951,0.959-1.585,2.181-1.902c0.487-0.131,0.99-0.216,1.508-0.255l1.404-0.047v-1.333
		c-0.016-1.13-0.487-1.683-1.416-1.659c-0.564,0.008-0.966,0.189-1.206,0.545c-0.17,0.256-0.278,0.696-0.325,1.322h-2.111
		C455.465,39.726,455.507,39.313,455.585,38.964z M460.515,42.932H459.9c-1.748,0.085-2.606,0.881-2.575,2.389
		c-0.023,1.106,0.41,1.663,1.299,1.671c0.75,0.016,1.295-0.375,1.635-1.172c0.131-0.302,0.209-0.614,0.232-0.939l0.023-0.904V42.932
		z"/>
	<path d="M464.841,36.969h2.111v1.137c0.263-0.332,0.495-0.579,0.696-0.742c0.487-0.409,1.11-0.618,1.868-0.626
		c1.461,0,2.335,0.781,2.622,2.343c0.077,0.449,0.116,0.897,0.116,1.346v3.538c0,0.673-0.035,1.314-0.104,1.925
		c-0.194,1.786-1.137,2.688-2.831,2.703c-0.75-0.008-1.342-0.193-1.774-0.557c-0.178-0.124-0.375-0.317-0.592-0.58v5.127h-2.111
		V36.969z M466.952,43.964c-0.008,0.464,0.016,0.92,0.07,1.368c0.039,0.395,0.12,0.704,0.244,0.928
		c0.239,0.503,0.684,0.747,1.333,0.731c0.905-0.016,1.4-0.588,1.485-1.717c0.039-0.441,0.058-0.894,0.058-1.357v-3.085l-0.035-0.929
		c-0.116-1.059-0.604-1.581-1.462-1.565c-0.642-0.008-1.098,0.282-1.369,0.87c-0.147,0.302-0.24,0.626-0.278,0.975
		c-0.039,0.348-0.054,0.734-0.046,1.159V43.964z"/>
	<path d="M475.803,36.969l1.937,8.503l2.088-8.503h2.041l-4.314,15.613h-1.995l1.183-3.99l-3.109-11.623H475.803z"/>
	<path d="M482.588,45.681h2.366l-2.019,5.138h-1.473L482.588,45.681z"/>
	<path d="M2.311,64.969v1.404c0.325-0.564,0.704-0.967,1.137-1.207c0.286-0.162,0.564-0.274,0.835-0.336l0.673-0.093v2.088
		l-0.708,0.069c-0.758,0.093-1.28,0.41-1.566,0.951c-0.248,0.503-0.372,1.245-0.372,2.228v6.286H0.2V64.969H2.311z"/>
	<path d="M8.099,72.637c-0.008,0.772,0.054,1.314,0.186,1.623c0.201,0.472,0.657,0.716,1.369,0.731c0.943,0,1.473-0.434,1.589-1.3
		l0.046-0.486v-0.268H13.4v0.268l-0.035,0.788c-0.17,1.74-1.419,2.606-3.746,2.599c-0.542,0.008-1.041-0.055-1.497-0.186
		c-0.603-0.155-1.075-0.452-1.415-0.894c-0.464-0.557-0.704-1.55-0.719-2.98v-3.225c-0.008-1.593,0.213-2.703,0.661-3.329
		c0.596-0.827,1.628-1.241,3.097-1.241c2.258,0.023,3.46,0.975,3.607,2.854c0.031,0.363,0.046,0.785,0.046,1.264v2.553H8.099V72.637
		z M8.099,69.806h3.189v-1.311c-0.008-1.415-0.538-2.134-1.589-2.157c-0.673,0.016-1.133,0.298-1.38,0.847
		c-0.147,0.317-0.22,0.882-0.22,1.693V69.806z"/>
	<path d="M15.453,68.901c-0.008-1.484,0.22-2.513,0.684-3.085c0.572-0.704,1.554-1.063,2.946-1.079
		c2.227,0.016,3.344,0.947,3.352,2.795v0.639v0.313h-2.111v-0.313l-0.023-0.568c-0.077-0.836-0.491-1.257-1.241-1.265
		c-0.966-0.008-1.461,0.507-1.484,1.543l-0.012,0.858v3.607l0.023,1.159c0.039,0.982,0.514,1.478,1.427,1.485
		c0.943-0.008,1.427-0.588,1.45-1.74v-0.464h2.111v0.521c-0.031,2.22-1.191,3.313-3.479,3.283c-0.696,0-1.315-0.097-1.856-0.29
		c-1.183-0.387-1.779-1.647-1.786-3.781V68.901z"/>
	<path d="M24.976,66.964c0.085-0.448,0.292-0.853,0.621-1.212c0.329-0.359,0.717-0.608,1.166-0.748
		c0.534-0.17,1.09-0.259,1.67-0.267c0.673,0,1.283,0.093,1.833,0.278c0.688,0.225,1.191,0.719,1.508,1.484
		c0.163,0.402,0.244,1.118,0.244,2.146v7.713h-2.111V75.13c-0.387,0.58-0.743,0.955-1.067,1.125
		c-0.417,0.232-0.917,0.345-1.496,0.337c-0.425,0.008-0.805-0.055-1.137-0.186c-1.083-0.371-1.616-1.377-1.601-3.016
		c0-0.688,0.07-1.307,0.209-1.856c0.232-0.951,0.959-1.585,2.181-1.902c0.487-0.131,0.99-0.216,1.508-0.255l1.404-0.047v-1.333
		c-0.016-1.13-0.487-1.683-1.416-1.659c-0.564,0.008-0.966,0.189-1.206,0.545c-0.17,0.256-0.278,0.696-0.325,1.322h-2.111
		C24.855,67.726,24.898,67.313,24.976,66.964z M29.905,70.932h-0.615c-1.748,0.085-2.606,0.881-2.575,2.389
		c-0.023,1.106,0.41,1.663,1.299,1.671c0.75,0.016,1.295-0.375,1.635-1.172c0.131-0.302,0.209-0.614,0.232-0.939l0.023-0.904V70.932
		z"/>
	<path d="M36.366,59.981v16.378h-2.111V59.981H36.366z"/>
	<path d="M38.674,68.901c-0.008-1.484,0.22-2.513,0.684-3.085c0.572-0.704,1.554-1.063,2.946-1.079
		c2.227,0.016,3.344,0.947,3.352,2.795v0.639v0.313h-2.111v-0.313l-0.023-0.568c-0.077-0.836-0.491-1.257-1.241-1.265
		c-0.966-0.008-1.461,0.507-1.484,1.543l-0.012,0.858v3.607l0.023,1.159c0.039,0.982,0.514,1.478,1.427,1.485
		c0.943-0.008,1.427-0.588,1.45-1.74v-0.464h2.111v0.521c-0.031,2.22-1.191,3.313-3.479,3.283c-0.696,0-1.315-0.097-1.856-0.29
		c-1.183-0.387-1.779-1.647-1.786-3.781V68.901z"/>
	<path d="M49.925,64.969v7.679c0.008,0.813,0.054,1.334,0.139,1.566c0.209,0.533,0.626,0.793,1.253,0.777
		c0.41,0.008,0.754-0.093,1.032-0.302c0.348-0.239,0.572-0.622,0.673-1.148c0.062-0.31,0.093-0.649,0.093-1.021v-7.552h2.111v11.391
		h-2.111v-1.009l-0.395,0.464c-0.526,0.519-1.233,0.777-2.123,0.777c-0.789,0-1.454-0.229-1.995-0.685
		c-0.503-0.425-0.762-1.071-0.777-1.938l-0.011-1.229v-7.771H49.925z"/>
	<path d="M59.588,59.981v16.378h-2.111V59.981H59.588z"/>
	<path d="M62.221,66.964c0.085-0.448,0.292-0.853,0.621-1.212c0.329-0.359,0.717-0.608,1.166-0.748
		c0.534-0.17,1.09-0.259,1.67-0.267c0.673,0,1.283,0.093,1.833,0.278c0.688,0.225,1.191,0.719,1.508,1.484
		c0.163,0.402,0.244,1.118,0.244,2.146v7.713H67.15V75.13c-0.387,0.58-0.743,0.955-1.067,1.125
		c-0.417,0.232-0.917,0.345-1.496,0.337c-0.425,0.008-0.805-0.055-1.137-0.186c-1.083-0.371-1.616-1.377-1.601-3.016
		c0-0.688,0.07-1.307,0.209-1.856c0.232-0.951,0.959-1.585,2.181-1.902c0.487-0.131,0.99-0.216,1.508-0.255l1.404-0.047v-1.333
		c-0.016-1.13-0.487-1.683-1.416-1.659c-0.564,0.008-0.966,0.189-1.206,0.545c-0.17,0.256-0.278,0.696-0.325,1.322h-2.111
		C62.101,67.726,62.143,67.313,62.221,66.964z M67.15,70.932h-0.615c-1.748,0.085-2.606,0.881-2.575,2.389
		c-0.023,1.106,0.41,1.663,1.299,1.671c0.75,0.016,1.295-0.375,1.635-1.172c0.131-0.302,0.209-0.614,0.232-0.939l0.023-0.904V70.932
		z"/>
	<path d="M72.637,64.969v-2.041l2.111-0.951v2.992h1.716v1.602h-1.716v6.692l0.011,0.754c0.023,0.604,0.406,0.92,1.148,0.951
		l0.557,0.023v1.449l-0.696,0.104c-0.263,0.039-0.53,0.055-0.8,0.047c-1.446,0-2.211-0.58-2.296-1.74l-0.035-1.253V66.57h-1.496
		v-1.602H72.637z"/>
	<path d="M80.385,72.637c-0.008,0.772,0.054,1.314,0.186,1.623c0.201,0.472,0.657,0.716,1.369,0.731c0.943,0,1.473-0.434,1.589-1.3
		l0.046-0.486v-0.268h2.111v0.268l-0.035,0.788c-0.17,1.74-1.419,2.606-3.746,2.599c-0.542,0.008-1.041-0.055-1.497-0.186
		c-0.603-0.155-1.075-0.452-1.415-0.894c-0.464-0.557-0.704-1.55-0.719-2.98v-3.225c-0.008-1.593,0.213-2.703,0.661-3.329
		c0.596-0.827,1.628-1.241,3.097-1.241c2.258,0.023,3.46,0.975,3.607,2.854c0.031,0.363,0.046,0.785,0.046,1.264v2.553h-5.301
		V72.637z M80.385,69.806h3.189v-1.311c-0.008-1.415-0.538-2.134-1.589-2.157c-0.673,0.016-1.133,0.298-1.38,0.847
		c-0.147,0.317-0.22,0.882-0.22,1.693V69.806z"/>
	<path d="M94.838,72.637c-0.008,0.772,0.054,1.314,0.186,1.623c0.201,0.472,0.657,0.716,1.369,0.731c0.943,0,1.473-0.434,1.589-1.3
		l0.046-0.486v-0.268h2.111v0.268l-0.035,0.788c-0.17,1.74-1.419,2.606-3.746,2.599c-0.542,0.008-1.041-0.055-1.497-0.186
		c-0.603-0.155-1.075-0.452-1.415-0.894c-0.464-0.557-0.704-1.55-0.719-2.98v-3.225c-0.008-1.593,0.213-2.703,0.661-3.329
		c0.596-0.827,1.628-1.241,3.097-1.241c2.258,0.023,3.46,0.975,3.607,2.854c0.031,0.363,0.046,0.785,0.046,1.264v2.553h-5.301
		V72.637z M94.838,69.806h3.189v-1.311c-0.008-1.415-0.538-2.134-1.589-2.157c-0.673,0.016-1.133,0.298-1.38,0.847
		c-0.147,0.317-0.22,0.882-0.22,1.693V69.806z"/>
	<path d="M103.966,72.892v0.417l0.035,0.465c0.131,0.835,0.596,1.24,1.392,1.218c0.943-0.008,1.431-0.464,1.461-1.369
		c0-0.309-0.077-0.584-0.232-0.823c-0.209-0.294-0.472-0.572-0.789-0.835l-1.056-0.789l-1.114-0.835
		c-0.502-0.395-0.866-0.766-1.09-1.113c-0.278-0.426-0.414-0.967-0.406-1.624c0-1.902,1.109-2.857,3.329-2.865
		c0.58,0,1.117,0.077,1.612,0.231c0.974,0.302,1.515,0.986,1.624,2.054l0.035,0.87v0.371h-2.111v-0.36v-0.417
		c-0.069-0.75-0.476-1.133-1.218-1.148c-0.758-0.008-1.145,0.387-1.16,1.184c0,0.294,0.066,0.537,0.197,0.73
		c0.17,0.255,0.445,0.525,0.824,0.812l1.311,0.963c1.152,0.813,1.856,1.504,2.111,2.076c0.154,0.379,0.236,0.813,0.244,1.299
		c-0.016,1.029-0.356,1.829-1.021,2.401c-0.611,0.519-1.45,0.781-2.517,0.789c-2.157-0.008-3.336-0.912-3.538-2.715l-0.035-0.579
		v-0.406H103.966z"/>
	<path d="M112.051,64.969v-2.041l2.111-0.951v2.992h1.716v1.602h-1.716v6.692l0.011,0.754c0.023,0.604,0.406,0.92,1.148,0.951
		l0.557,0.023v1.449l-0.696,0.104c-0.263,0.039-0.53,0.055-0.8,0.047c-1.446,0-2.211-0.58-2.296-1.74l-0.035-1.253V66.57h-1.496
		v-1.602H112.051z"/>
	<path d="M120.112,59.981v2.135h-2.273v-2.135H120.112z M117.92,64.969h2.111v11.391h-2.111V64.969z"/>
	<path d="M122.05,64.969h2.111v0.986l0.51-0.511c0.224-0.216,0.483-0.378,0.777-0.486c0.371-0.14,0.773-0.213,1.206-0.221
		c1.229,0,2.08,0.483,2.552,1.45c0.742-0.943,1.631-1.427,2.667-1.45c0.967,0.008,1.709,0.282,2.227,0.823
		c0.402,0.418,0.619,1.184,0.65,2.297l0.011,1.38v7.122h-2.111v-7.018l-0.012-1.427c-0.016-1.059-0.506-1.585-1.473-1.577
		c-0.758,0-1.252,0.306-1.484,0.916c-0.155,0.364-0.229,1.071-0.221,2.123v6.982h-2.111v-7.006l-0.012-1.403
		c-0.039-1.067-0.542-1.604-1.508-1.612c-0.649-0.008-1.094,0.236-1.334,0.73c-0.155,0.302-0.248,0.611-0.278,0.929
		c-0.046,0.394-0.066,0.854-0.058,1.38v6.982h-2.111V64.969z"/>
	<path d="M137.117,66.964c0.085-0.448,0.292-0.853,0.621-1.212c0.329-0.359,0.717-0.608,1.166-0.748
		c0.534-0.17,1.09-0.259,1.67-0.267c0.673,0,1.283,0.093,1.833,0.278c0.688,0.225,1.191,0.719,1.508,1.484
		c0.163,0.402,0.244,1.118,0.244,2.146v7.713h-2.111V75.13c-0.387,0.58-0.743,0.955-1.067,1.125
		c-0.417,0.232-0.917,0.345-1.496,0.337c-0.425,0.008-0.805-0.055-1.137-0.186c-1.083-0.371-1.616-1.377-1.601-3.016
		c0-0.688,0.07-1.307,0.209-1.856c0.232-0.951,0.959-1.585,2.181-1.902c0.487-0.131,0.99-0.216,1.508-0.255l1.404-0.047v-1.333
		c-0.016-1.13-0.487-1.683-1.416-1.659c-0.564,0.008-0.966,0.189-1.206,0.545c-0.17,0.256-0.278,0.696-0.325,1.322h-2.111
		C136.997,67.726,137.04,67.313,137.117,66.964z M142.047,70.932h-0.615c-1.748,0.085-2.606,0.881-2.575,2.389
		c-0.023,1.106,0.41,1.663,1.299,1.671c0.75,0.016,1.295-0.375,1.635-1.172c0.131-0.302,0.209-0.614,0.232-0.939l0.023-0.904V70.932
		z"/>
	<path d="M147.533,64.969v-2.041l2.111-0.951v2.992h1.716v1.602h-1.716v6.692l0.011,0.754c0.023,0.604,0.406,0.92,1.148,0.951
		l0.557,0.023v1.449l-0.696,0.104c-0.263,0.039-0.53,0.055-0.8,0.047c-1.446,0-2.211-0.58-2.296-1.74l-0.035-1.253V66.57h-1.496
		v-1.602H147.533z"/>
	<path d="M155.281,72.637c-0.008,0.772,0.054,1.314,0.186,1.623c0.201,0.472,0.657,0.716,1.369,0.731c0.943,0,1.473-0.434,1.589-1.3
		l0.046-0.486v-0.268h2.111v0.268l-0.035,0.788c-0.17,1.74-1.419,2.606-3.746,2.599c-0.542,0.008-1.041-0.055-1.497-0.186
		c-0.603-0.155-1.075-0.452-1.415-0.894c-0.464-0.557-0.704-1.55-0.719-2.98v-3.225c-0.008-1.593,0.213-2.703,0.661-3.329
		c0.596-0.827,1.628-1.241,3.097-1.241c2.258,0.023,3.46,0.975,3.607,2.854c0.031,0.363,0.046,0.785,0.046,1.264v2.553h-5.301
		V72.637z M155.281,69.806h3.189v-1.311c-0.008-1.415-0.538-2.134-1.589-2.157c-0.673,0.016-1.133,0.298-1.38,0.847
		c-0.147,0.317-0.22,0.882-0.22,1.693V69.806z"/>
	<path d="M170.012,59.981v16.378h-2.111v-1.044c-0.781,0.866-1.597,1.292-2.447,1.276c-0.688,0.008-1.274-0.188-1.757-0.586
		s-0.791-0.93-0.922-1.595c-0.116-0.526-0.174-1.098-0.174-1.717v-3.793c-0.023-2.784,0.971-4.172,2.981-4.164
		c0.743,0.008,1.338,0.189,1.787,0.545c0.139,0.116,0.317,0.278,0.533,0.487v-5.788H170.012z M164.711,72.335
		c-0.008,0.557,0.007,0.989,0.046,1.299c0.069,0.92,0.545,1.373,1.427,1.357c0.51,0,0.908-0.178,1.194-0.534
		c0.34-0.425,0.514-1.283,0.522-2.575v-3.328c0-0.402-0.035-0.77-0.104-1.103c-0.07-0.332-0.221-0.599-0.453-0.8
		c-0.248-0.201-0.564-0.306-0.951-0.313c-0.99,0.008-1.531,0.561-1.624,1.659c-0.046,0.379-0.065,0.815-0.058,1.311V72.335z"/>
	<path d="M179.071,62.162l1.009-0.614c0.309-0.201,0.696-0.503,1.16-0.905l0.708-0.604h1.751v16.32h-2.111V62.568l-0.777,0.614
		c-0.325,0.256-0.638,0.453-0.939,0.592l-0.8,0.325V62.162z"/>
	<path d="M194.475,71.256c0,0.773-0.046,1.47-0.139,2.088c-0.17,1.106-0.649,1.918-1.438,2.436c-0.843,0.55-1.759,0.82-2.749,0.813
		c-0.619,0.008-1.214-0.101-1.786-0.325c-1.423-0.51-2.227-1.484-2.413-2.923c-0.093-0.596-0.135-1.291-0.127-2.088v-6.217
		c0-0.82,0.039-1.543,0.116-2.169c0.108-1.044,0.592-1.829,1.45-2.355c0.75-0.471,1.67-0.707,2.76-0.707
		c1.655,0,2.846,0.472,3.573,1.415c0.495,0.642,0.746,1.914,0.754,3.816V71.256z M192.364,65.027c0-0.448-0.016-0.89-0.046-1.322
		c-0.078-1.399-0.812-2.096-2.204-2.088c-0.998,0-1.643,0.363-1.937,1.09c-0.17,0.426-0.251,1.199-0.244,2.32v6.24l0.07,1.16
		c0.116,1.569,0.831,2.354,2.146,2.354c1.237,0,1.953-0.785,2.146-2.354c0.046-0.418,0.07-0.805,0.07-1.16V65.027z"/>
	<path d="M203.743,64.969l1.937,8.503l2.088-8.503h2.041l-4.314,15.613H203.5l1.183-3.99l-3.109-11.623H203.743z"/>
	<path d="M213.08,72.637c-0.008,0.772,0.054,1.314,0.186,1.623c0.201,0.472,0.657,0.716,1.369,0.731c0.943,0,1.473-0.434,1.589-1.3
		l0.046-0.486v-0.268h2.111v0.268l-0.035,0.788c-0.17,1.74-1.419,2.606-3.746,2.599c-0.542,0.008-1.041-0.055-1.497-0.186
		c-0.603-0.155-1.075-0.452-1.415-0.894c-0.464-0.557-0.704-1.55-0.719-2.98v-3.225c-0.008-1.593,0.213-2.703,0.661-3.329
		c0.596-0.827,1.628-1.241,3.097-1.241c2.258,0.023,3.46,0.975,3.607,2.854c0.031,0.363,0.046,0.785,0.046,1.264v2.553h-5.301
		V72.637z M213.08,69.806h3.189v-1.311c-0.008-1.415-0.538-2.134-1.589-2.157c-0.673,0.016-1.133,0.298-1.38,0.847
		c-0.147,0.317-0.22,0.882-0.22,1.693V69.806z"/>
	<path d="M220.759,66.964c0.085-0.448,0.292-0.853,0.621-1.212c0.329-0.359,0.717-0.608,1.166-0.748
		c0.534-0.17,1.09-0.259,1.67-0.267c0.673,0,1.283,0.093,1.833,0.278c0.688,0.225,1.191,0.719,1.508,1.484
		c0.163,0.402,0.244,1.118,0.244,2.146v7.713h-2.111V75.13c-0.387,0.58-0.743,0.955-1.067,1.125
		c-0.417,0.232-0.917,0.345-1.496,0.337c-0.425,0.008-0.805-0.055-1.137-0.186c-1.083-0.371-1.616-1.377-1.601-3.016
		c0-0.688,0.07-1.307,0.209-1.856c0.232-0.951,0.959-1.585,2.181-1.902c0.487-0.131,0.99-0.216,1.508-0.255l1.404-0.047v-1.333
		c-0.016-1.13-0.487-1.683-1.416-1.659c-0.564,0.008-0.966,0.189-1.206,0.545c-0.17,0.256-0.278,0.696-0.325,1.322h-2.111
		C220.639,67.726,220.681,67.313,220.759,66.964z M225.688,70.932h-0.615c-1.748,0.085-2.606,0.881-2.575,2.389
		c-0.023,1.106,0.41,1.663,1.299,1.671c0.75,0.016,1.295-0.375,1.635-1.172c0.131-0.302,0.209-0.614,0.232-0.939l0.023-0.904V70.932
		z"/>
	<path d="M232.253,64.969v1.404c0.325-0.564,0.704-0.967,1.137-1.207c0.286-0.162,0.564-0.274,0.835-0.336l0.673-0.093v2.088
		l-0.708,0.069c-0.758,0.093-1.28,0.41-1.566,0.951c-0.248,0.503-0.372,1.245-0.372,2.228v6.286h-2.111V64.969H232.253z"/>
	<path d="M237.972,72.892v0.417l0.035,0.465c0.131,0.835,0.596,1.24,1.392,1.218c0.943-0.008,1.431-0.464,1.461-1.369
		c0-0.309-0.077-0.584-0.232-0.823c-0.209-0.294-0.472-0.572-0.789-0.835l-1.056-0.789l-1.114-0.835
		c-0.502-0.395-0.866-0.766-1.09-1.113c-0.278-0.426-0.414-0.967-0.406-1.624c0-1.902,1.109-2.857,3.329-2.865
		c0.58,0,1.117,0.077,1.612,0.231c0.974,0.302,1.515,0.986,1.624,2.054l0.035,0.87v0.371h-2.111v-0.36v-0.417
		c-0.069-0.75-0.476-1.133-1.218-1.148c-0.758-0.008-1.145,0.387-1.16,1.184c0,0.294,0.066,0.537,0.197,0.73
		c0.17,0.255,0.445,0.525,0.824,0.812l1.311,0.963c1.152,0.813,1.856,1.504,2.111,2.076c0.154,0.379,0.236,0.813,0.244,1.299
		c-0.016,1.029-0.356,1.829-1.021,2.401c-0.611,0.519-1.45,0.781-2.517,0.789c-2.157-0.008-3.336-0.912-3.538-2.715l-0.035-0.579
		v-0.406H237.972z"/>
	<path d="M253.701,60.005h2.958l3.77,16.354h-2.366l-0.777-3.734h-4.373l-0.8,3.734h-2.181L253.701,60.005z M253.294,70.78h3.573
		l-1.729-8.711L253.294,70.78z"/>
	<path d="M264.558,70.873v0.916c-0.008,0.465,0.039,0.897,0.139,1.3c0.224,1.113,0.955,1.666,2.192,1.658
		c0.464,0.008,0.886-0.069,1.265-0.231c0.843-0.325,1.28-1.103,1.311-2.332c-0.008-0.843-0.29-1.496-0.847-1.96
		c-0.395-0.317-0.862-0.63-1.403-0.939l-1.636-0.916c-0.649-0.356-1.191-0.724-1.624-1.103c-0.904-0.773-1.357-1.887-1.357-3.341
		c0.016-1.585,0.522-2.71,1.52-3.375c0.742-0.503,1.763-0.762,3.062-0.777c1.585,0,2.73,0.371,3.434,1.114
		c0.557,0.595,0.835,1.763,0.835,3.503v0.324h-2.25v-0.395l-0.046-0.847c-0.139-1.26-0.808-1.879-2.007-1.855
		c-1.516,0.008-2.281,0.758-2.296,2.25c0,0.951,0.476,1.725,1.426,2.32c0.588,0.379,1.253,0.76,1.995,1.143
		c0.743,0.383,1.346,0.744,1.81,1.084c1.09,0.82,1.636,2.05,1.636,3.688c-0.023,2.993-1.628,4.489-4.814,4.489
		c-1.369,0.016-2.42-0.263-3.155-0.835c-0.866-0.681-1.334-1.651-1.404-2.912l-0.035-1.322v-0.649H264.558z"/>
	<path d="M280.9,64.331l-0.012-0.766c-0.054-1.307-0.688-1.956-1.902-1.948c-1.075,0.008-1.775,0.352-2.1,1.032
		c-0.178,0.332-0.274,0.665-0.29,0.997l-0.023,1.346v6.449c0.008,1.168,0.101,1.922,0.279,2.262
		c0.371,0.696,1.013,1.044,1.925,1.044c1.199-0.008,1.875-0.703,2.03-2.088l0.093-1.056v-0.557h2.25v0.568l-0.023,1.021
		c-0.069,1.222-0.41,2.157-1.021,2.807c-0.371,0.402-0.808,0.685-1.311,0.847c-0.595,0.201-1.245,0.302-1.949,0.302
		c-0.603,0.008-1.179-0.059-1.728-0.197c-1.856-0.426-2.788-1.952-2.795-4.582v-6.519c-0.008-0.703,0.027-1.361,0.104-1.972
		c0.077-0.75,0.278-1.369,0.603-1.856c0.719-1.105,2.007-1.67,3.863-1.693c2.605,0.023,4.005,1.04,4.199,3.051
		c0.039,0.379,0.058,0.809,0.058,1.288v0.638h-2.25V64.331z"/>
	<path d="M287.071,60.005l2.622,13.838l2.552-13.838h2.181l-3.479,16.354h-2.749l-3.48-16.354H287.071z"/>
	<path d="M296.629,60.005h4.013c0.665,0,1.295,0.046,1.891,0.139c0.68,0.101,1.28,0.329,1.798,0.685
		c0.897,0.604,1.419,1.446,1.566,2.528c0.07,0.534,0.108,1.134,0.116,1.798v6.021c-0.023,2.019-0.375,3.375-1.056,4.071
		c-0.518,0.533-1.141,0.874-1.868,1.021c-0.309,0.063-1.024,0.093-2.146,0.093h-4.315V60.005z M298.879,61.849v12.667h2.076
		c1.245,0,2.042-0.321,2.39-0.963c0.286-0.541,0.425-1.435,0.417-2.68v-5.544c0-1.245-0.151-2.1-0.452-2.563
		c-0.395-0.596-1.18-0.901-2.355-0.917H298.879z"/>
	<path d="M315.918,64.969v1.404c0.325-0.564,0.704-0.967,1.137-1.207c0.286-0.162,0.564-0.274,0.835-0.336l0.673-0.093v2.088
		l-0.708,0.069c-0.758,0.093-1.28,0.41-1.566,0.951c-0.248,0.503-0.372,1.245-0.372,2.228v6.286h-2.111V64.969H315.918z"/>
	<path d="M322.46,59.981v2.135h-2.273v-2.135H322.46z M320.268,64.969h2.111v11.391h-2.111V64.969z"/>
	<path d="M326.462,72.892v0.417l0.035,0.465c0.131,0.835,0.596,1.24,1.392,1.218c0.943-0.008,1.431-0.464,1.461-1.369
		c0-0.309-0.077-0.584-0.232-0.823c-0.209-0.294-0.472-0.572-0.789-0.835l-1.056-0.789l-1.114-0.835
		c-0.502-0.395-0.866-0.766-1.09-1.113c-0.278-0.426-0.414-0.967-0.406-1.624c0-1.902,1.109-2.857,3.329-2.865
		c0.58,0,1.117,0.077,1.612,0.231c0.974,0.302,1.515,0.986,1.624,2.054l0.035,0.87v0.371h-2.111v-0.36v-0.417
		c-0.069-0.75-0.476-1.133-1.218-1.148c-0.758-0.008-1.145,0.387-1.16,1.184c0,0.294,0.066,0.537,0.197,0.73
		c0.17,0.255,0.445,0.525,0.824,0.812l1.311,0.963c1.152,0.813,1.856,1.504,2.111,2.076c0.154,0.379,0.236,0.813,0.244,1.299
		c-0.016,1.029-0.356,1.829-1.021,2.401c-0.611,0.519-1.45,0.781-2.517,0.789c-2.157-0.008-3.336-0.912-3.538-2.715l-0.035-0.579
		v-0.406H326.462z"/>
	<path d="M335.788,59.981v16.378h-2.111V59.981H335.788z M338.769,64.969h2.285l-2.981,5.081l3.225,6.31h-2.273l-3.236-6.298
		L338.769,64.969z"/>
	<path d="M350.183,72.637c-0.008,0.772,0.054,1.314,0.186,1.623c0.201,0.472,0.657,0.716,1.369,0.731c0.943,0,1.473-0.434,1.589-1.3
		l0.046-0.486v-0.268h2.111v0.268l-0.035,0.788c-0.17,1.74-1.419,2.606-3.746,2.599c-0.542,0.008-1.041-0.055-1.497-0.186
		c-0.603-0.155-1.075-0.452-1.415-0.894c-0.464-0.557-0.704-1.55-0.719-2.98v-3.225c-0.008-1.593,0.213-2.703,0.661-3.329
		c0.596-0.827,1.628-1.241,3.097-1.241c2.258,0.023,3.46,0.975,3.607,2.854c0.031,0.363,0.046,0.785,0.046,1.264v2.553h-5.301
		V72.637z M350.183,69.806h3.189v-1.311c-0.008-1.415-0.538-2.134-1.589-2.157c-0.673,0.016-1.133,0.298-1.38,0.847
		c-0.147,0.317-0.22,0.882-0.22,1.693V69.806z"/>
	<path d="M358.743,64.969l1.786,9.303l1.775-9.303h2.169l-2.598,11.391h-2.703l-2.598-11.391H358.743z"/>
	<path d="M367.698,72.637c-0.008,0.772,0.054,1.314,0.186,1.623c0.201,0.472,0.657,0.716,1.369,0.731c0.943,0,1.473-0.434,1.589-1.3
		l0.046-0.486v-0.268h2.111v0.268l-0.035,0.788c-0.17,1.74-1.419,2.606-3.746,2.599c-0.542,0.008-1.041-0.055-1.497-0.186
		c-0.603-0.155-1.075-0.452-1.415-0.894c-0.464-0.557-0.704-1.55-0.719-2.98v-3.225c-0.008-1.593,0.213-2.703,0.661-3.329
		c0.596-0.827,1.628-1.241,3.097-1.241c2.258,0.023,3.46,0.975,3.607,2.854c0.031,0.363,0.046,0.785,0.046,1.264v2.553h-5.301
		V72.637z M367.698,69.806h3.189v-1.311c-0.008-1.415-0.538-2.134-1.589-2.157c-0.673,0.016-1.133,0.298-1.38,0.847
		c-0.147,0.317-0.22,0.882-0.22,1.693V69.806z"/>
	<path d="M377.232,64.969v1.404c0.325-0.564,0.704-0.967,1.137-1.207c0.286-0.162,0.564-0.274,0.835-0.336l0.673-0.093v2.088
		l-0.708,0.069c-0.758,0.093-1.28,0.41-1.566,0.951c-0.248,0.503-0.372,1.245-0.372,2.228v6.286h-2.111V64.969H377.232z"/>
	<path d="M383.322,64.969l1.937,8.503l2.088-8.503h2.041l-4.314,15.613h-1.995l1.183-3.99l-3.109-11.623H383.322z"/>
	<path d="M400.941,60.039h2.876V70.56h1.972v1.81h-1.972v3.99h-2.111v-3.99h-5.881v-1.763L400.941,60.039z M397.705,70.56h4.002
		v-8.362L397.705,70.56z"/>
	<path d="M410.51,69.551v1.81h-3.178v-1.81H410.51z"/>
	<path d="M415.603,66.616c0.634-0.379,1.361-0.572,2.181-0.58c1.94,0.031,3.066,0.928,3.375,2.691
		c0.131,0.742,0.197,1.508,0.197,2.297c0.008,1.863-0.248,3.182-0.766,3.955c-0.696,1.067-1.883,1.604-3.561,1.612
		c-2.637-0.031-4.044-1.314-4.222-3.852c-0.078-1.028-0.112-2.153-0.104-3.375c-0.008-1.67,0.039-3.267,0.139-4.79
		c0.039-0.766,0.143-1.47,0.313-2.111c0.425-1.764,1.798-2.648,4.118-2.656c1.083,0,1.983,0.239,2.703,0.719
		c0.82,0.55,1.249,1.357,1.288,2.425l0.012,1.066v0.487h-2.111v-0.278l-0.035-0.661c-0.124-1.299-0.766-1.948-1.925-1.948
		c-1.346,0.023-2.088,0.719-2.227,2.088c-0.062,0.464-0.101,0.943-0.116,1.438l-0.046,1.995L415.603,66.616z M414.779,71.349
		c0,1.091,0.104,1.872,0.313,2.343c0.325,0.743,0.975,1.106,1.949,1.091c1.199,0,1.891-0.619,2.076-1.856
		c0.078-0.525,0.12-1.098,0.128-1.716c0-0.519-0.031-0.998-0.093-1.438c-0.178-1.276-0.858-1.918-2.042-1.926
		c-1.276,0-2.019,0.661-2.227,1.983C414.806,70.285,414.771,70.792,414.779,71.349z"/>
	<path d="M430.624,64.969l1.937,8.503l2.088-8.503h2.041l-4.314,15.613h-1.995l1.183-3.99l-3.109-11.623H430.624z"/>
	<path d="M439.961,72.637c-0.008,0.772,0.054,1.314,0.186,1.623c0.201,0.472,0.657,0.716,1.369,0.731c0.943,0,1.473-0.434,1.589-1.3
		l0.046-0.486v-0.268h2.111v0.268l-0.035,0.788c-0.17,1.74-1.419,2.606-3.746,2.599c-0.542,0.008-1.041-0.055-1.497-0.186
		c-0.603-0.155-1.075-0.452-1.415-0.894c-0.464-0.557-0.704-1.55-0.719-2.98v-3.225c-0.008-1.593,0.213-2.703,0.661-3.329
		c0.596-0.827,1.628-1.241,3.097-1.241c2.258,0.023,3.46,0.975,3.607,2.854c0.031,0.363,0.046,0.785,0.046,1.264v2.553h-5.301
		V72.637z M439.961,69.806h3.189v-1.311c-0.008-1.415-0.538-2.134-1.589-2.157c-0.673,0.016-1.133,0.298-1.38,0.847
		c-0.147,0.317-0.22,0.882-0.22,1.693V69.806z"/>
	<path d="M447.64,66.964c0.085-0.448,0.292-0.853,0.621-1.212c0.329-0.359,0.717-0.608,1.166-0.748
		c0.534-0.17,1.09-0.259,1.67-0.267c0.673,0,1.283,0.093,1.833,0.278c0.688,0.225,1.191,0.719,1.508,1.484
		c0.163,0.402,0.244,1.118,0.244,2.146v7.713h-2.111V75.13c-0.387,0.58-0.743,0.955-1.067,1.125
		c-0.417,0.232-0.917,0.345-1.496,0.337c-0.425,0.008-0.805-0.055-1.137-0.186c-1.083-0.371-1.616-1.377-1.601-3.016
		c0-0.688,0.07-1.307,0.209-1.856c0.232-0.951,0.959-1.585,2.181-1.902c0.487-0.131,0.99-0.216,1.508-0.255l1.404-0.047v-1.333
		c-0.016-1.13-0.487-1.683-1.416-1.659c-0.564,0.008-0.966,0.189-1.206,0.545c-0.17,0.256-0.278,0.696-0.325,1.322h-2.111
		C447.52,67.726,447.562,67.313,447.64,66.964z M452.569,70.932h-0.615c-1.748,0.085-2.606,0.881-2.575,2.389
		c-0.023,1.106,0.41,1.663,1.299,1.671c0.75,0.016,1.295-0.375,1.635-1.172c0.131-0.302,0.209-0.614,0.232-0.939l0.023-0.904V70.932
		z"/>
	<path d="M459.134,64.969v1.404c0.325-0.564,0.704-0.967,1.137-1.207c0.286-0.162,0.564-0.274,0.835-0.336l0.673-0.093v2.088
		l-0.708,0.069c-0.758,0.093-1.28,0.41-1.566,0.951c-0.248,0.503-0.372,1.245-0.372,2.228v6.286h-2.111V64.969H459.134z"/>
	<path d="M464.853,72.892v0.417l0.035,0.465c0.131,0.835,0.596,1.24,1.392,1.218c0.943-0.008,1.431-0.464,1.461-1.369
		c0-0.309-0.077-0.584-0.232-0.823c-0.209-0.294-0.472-0.572-0.789-0.835l-1.056-0.789l-1.114-0.835
		c-0.502-0.395-0.866-0.766-1.09-1.113c-0.278-0.426-0.414-0.967-0.406-1.624c0-1.902,1.109-2.857,3.329-2.865
		c0.58,0,1.117,0.077,1.612,0.231c0.974,0.302,1.515,0.986,1.624,2.054l0.035,0.87v0.371h-2.111v-0.36v-0.417
		c-0.069-0.75-0.476-1.133-1.218-1.148c-0.758-0.008-1.145,0.387-1.16,1.184c0,0.294,0.066,0.537,0.197,0.73
		c0.17,0.255,0.445,0.525,0.824,0.812l1.311,0.963c1.152,0.813,1.856,1.504,2.111,2.076c0.154,0.379,0.236,0.813,0.244,1.299
		c-0.016,1.029-0.356,1.829-1.021,2.401c-0.611,0.519-1.45,0.781-2.517,0.789c-2.157-0.008-3.336-0.912-3.538-2.715l-0.035-0.579
		v-0.406H464.853z"/>
	<path d="M479.247,59.981v2.135h-2.273v-2.135H479.247z M477.055,64.969h2.111v11.391h-2.111V64.969z"/>
	<path d="M481.417,64.969h2.111v0.998c0.619-0.819,1.481-1.229,2.587-1.229c0.448,0,0.87,0.081,1.264,0.243
		c0.897,0.364,1.373,1.087,1.427,2.169l0.023,1.462v7.748h-2.111v-7.18l-0.023-1.148c-0.039-1.129-0.53-1.693-1.473-1.693
		c-0.711,0.016-1.183,0.302-1.415,0.858c-0.131,0.31-0.212,0.644-0.244,1.003c-0.031,0.36-0.042,0.741-0.035,1.143v7.018h-2.111
		V64.969z"/>
	<path d="M498.525,59.981v2.135h-2.273v-2.135H498.525z M496.333,64.969h2.111v11.391h-2.111V64.969z"/>
	<path d="M500.694,64.969h2.111v0.998c0.619-0.819,1.481-1.229,2.587-1.229c0.448,0,0.87,0.081,1.264,0.243
		c0.897,0.364,1.373,1.087,1.427,2.169l0.023,1.462v7.748h-2.111v-7.18l-0.023-1.148c-0.039-1.129-0.53-1.693-1.473-1.693
		c-0.711,0.016-1.183,0.302-1.415,0.858c-0.131,0.31-0.212,0.644-0.244,1.003c-0.031,0.36-0.042,0.741-0.035,1.143v7.018h-2.111
		V64.969z"/>
	<path d="M517.769,59.981v16.378h-2.111v-1.044c-0.781,0.866-1.597,1.292-2.447,1.276c-0.688,0.008-1.274-0.188-1.757-0.586
		s-0.791-0.93-0.922-1.595c-0.116-0.526-0.174-1.098-0.174-1.717v-3.793c-0.023-2.784,0.971-4.172,2.981-4.164
		c0.743,0.008,1.338,0.189,1.787,0.545c0.139,0.116,0.317,0.278,0.533,0.487v-5.788H517.769z M512.468,72.335
		c-0.008,0.557,0.007,0.989,0.046,1.299c0.069,0.92,0.545,1.373,1.427,1.357c0.51,0,0.908-0.178,1.194-0.534
		c0.34-0.425,0.514-1.283,0.522-2.575v-3.328c0-0.402-0.035-0.77-0.104-1.103c-0.07-0.332-0.221-0.599-0.453-0.8
		c-0.248-0.201-0.564-0.306-0.951-0.313c-0.99,0.008-1.531,0.561-1.624,1.659c-0.046,0.379-0.065,0.815-0.058,1.311V72.335z"/>
	<path d="M522.188,59.981v2.135h-2.273v-2.135H522.188z M519.995,64.969h2.111v11.391h-2.111V64.969z"/>
	<path d="M526.062,64.969l1.786,9.303l1.775-9.303h2.169l-2.598,11.391h-2.703l-2.598-11.391H526.062z"/>
	<path d="M535.77,59.981v2.135h-2.273v-2.135H535.77z M533.578,64.969h2.111v11.391h-2.111V64.969z"/>
	<path d="M545.375,59.981v16.378h-2.111v-1.044c-0.781,0.866-1.597,1.292-2.447,1.276c-0.688,0.008-1.274-0.188-1.757-0.586
		s-0.791-0.93-0.922-1.595c-0.116-0.526-0.174-1.098-0.174-1.717v-3.793c-0.023-2.784,0.971-4.172,2.981-4.164
		c0.743,0.008,1.338,0.189,1.787,0.545c0.139,0.116,0.317,0.278,0.533,0.487v-5.788H545.375z M540.074,72.335
		c-0.008,0.557,0.007,0.989,0.046,1.299c0.069,0.92,0.545,1.373,1.427,1.357c0.51,0,0.908-0.178,1.194-0.534
		c0.34-0.425,0.514-1.283,0.522-2.575v-3.328c0-0.402-0.035-0.77-0.104-1.103c-0.07-0.332-0.221-0.599-0.453-0.8
		c-0.248-0.201-0.564-0.306-0.951-0.313c-0.99,0.008-1.531,0.561-1.624,1.659c-0.046,0.379-0.065,0.815-0.058,1.311V72.335z"/>
	<path d="M549.689,64.969v7.679c0.008,0.813,0.054,1.334,0.139,1.566c0.209,0.533,0.626,0.793,1.253,0.777
		c0.41,0.008,0.754-0.093,1.032-0.302c0.348-0.239,0.572-0.622,0.673-1.148c0.062-0.31,0.093-0.649,0.093-1.021v-7.552h2.111v11.391
		h-2.111v-1.009l-0.395,0.464c-0.526,0.519-1.233,0.777-2.123,0.777c-0.789,0-1.454-0.229-1.995-0.685
		c-0.503-0.425-0.762-1.071-0.777-1.938l-0.011-1.229v-7.771H549.689z"/>
	<path d="M557.6,66.964c0.085-0.448,0.292-0.853,0.621-1.212c0.329-0.359,0.717-0.608,1.166-0.748c0.534-0.17,1.09-0.259,1.67-0.267
		c0.673,0,1.283,0.093,1.833,0.278c0.688,0.225,1.191,0.719,1.508,1.484c0.163,0.402,0.244,1.118,0.244,2.146v7.713h-2.111V75.13
		c-0.387,0.58-0.743,0.955-1.067,1.125c-0.417,0.232-0.917,0.345-1.496,0.337c-0.425,0.008-0.805-0.055-1.137-0.186
		c-1.083-0.371-1.616-1.377-1.601-3.016c0-0.688,0.07-1.307,0.209-1.856c0.232-0.951,0.959-1.585,2.181-1.902
		c0.487-0.131,0.99-0.216,1.508-0.255l1.404-0.047v-1.333c-0.016-1.13-0.487-1.683-1.416-1.659
		c-0.564,0.008-0.966,0.189-1.206,0.545c-0.17,0.256-0.278,0.696-0.325,1.322h-2.111C557.48,67.726,557.522,67.313,557.6,66.964z
		 M562.53,70.932h-0.615c-1.748,0.085-2.606,0.881-2.575,2.389c-0.023,1.106,0.41,1.663,1.299,1.671
		c0.75,0.016,1.295-0.375,1.635-1.172c0.131-0.302,0.209-0.614,0.232-0.939l0.023-0.904V70.932z"/>
	<path d="M568.991,59.981v16.378h-2.111V59.981H568.991z"/>
	<path d="M573.073,72.892v0.417l0.035,0.465c0.131,0.835,0.596,1.24,1.392,1.218c0.943-0.008,1.431-0.464,1.461-1.369
		c0-0.309-0.077-0.584-0.232-0.823c-0.209-0.294-0.472-0.572-0.789-0.835l-1.056-0.789l-1.114-0.835
		c-0.502-0.395-0.866-0.766-1.09-1.113c-0.278-0.426-0.414-0.967-0.406-1.624c0-1.902,1.109-2.857,3.329-2.865
		c0.58,0,1.117,0.077,1.612,0.231c0.974,0.302,1.515,0.986,1.624,2.054l0.035,0.87v0.371h-2.111v-0.36v-0.417
		c-0.069-0.75-0.476-1.133-1.218-1.148c-0.758-0.008-1.145,0.387-1.16,1.184c0,0.294,0.066,0.537,0.197,0.73
		c0.17,0.255,0.445,0.525,0.824,0.812l1.311,0.963c1.152,0.813,1.856,1.504,2.111,2.076c0.154,0.379,0.236,0.813,0.244,1.299
		c-0.016,1.029-0.356,1.829-1.021,2.401c-0.611,0.519-1.45,0.781-2.517,0.789c-2.157-0.008-3.336-0.912-3.538-2.715l-0.035-0.579
		v-0.406H573.073z"/>
	<path d="M585.635,66.964c0.085-0.448,0.292-0.853,0.621-1.212c0.329-0.359,0.717-0.608,1.166-0.748
		c0.534-0.17,1.09-0.259,1.67-0.267c0.673,0,1.283,0.093,1.833,0.278c0.688,0.225,1.191,0.719,1.508,1.484
		c0.163,0.402,0.244,1.118,0.244,2.146v7.713h-2.111V75.13c-0.387,0.58-0.743,0.955-1.067,1.125
		c-0.417,0.232-0.917,0.345-1.496,0.337c-0.425,0.008-0.805-0.055-1.137-0.186c-1.083-0.371-1.616-1.377-1.601-3.016
		c0-0.688,0.07-1.307,0.209-1.856c0.232-0.951,0.959-1.585,2.181-1.902c0.487-0.131,0.99-0.216,1.508-0.255l1.404-0.047v-1.333
		c-0.016-1.13-0.487-1.683-1.416-1.659c-0.564,0.008-0.966,0.189-1.206,0.545c-0.17,0.256-0.278,0.696-0.325,1.322h-2.111
		C585.515,67.726,585.558,67.313,585.635,66.964z M590.565,70.932h-0.615c-1.748,0.085-2.606,0.881-2.575,2.389
		c-0.023,1.106,0.41,1.663,1.299,1.671c0.75,0.016,1.295-0.375,1.635-1.172c0.131-0.302,0.209-0.614,0.232-0.939l0.023-0.904V70.932
		z"/>
	<path d="M599.659,75.687c-0.464,0.441-1.098,0.665-1.902,0.673c-1.655,0-2.586-0.877-2.795-2.633
		c-0.077-0.541-0.112-1.137-0.104-1.786v-3.282l0.012-1.148c0.031-0.89,0.302-1.563,0.812-2.019
		c0.541-0.487,1.229-0.738,2.065-0.754c0.773-0.008,1.446,0.225,2.018,0.696l0.395,0.417v-0.882h2.111v10.405l-0.023,1.461
		c-0.016,0.727-0.054,1.257-0.116,1.589c-0.085,0.526-0.321,0.994-0.708,1.404c-0.649,0.68-1.62,1.024-2.912,1.032
		c-2.25-0.016-3.368-1.11-3.352-3.283v-0.383h1.821v0.453c-0.016,1.105,0.479,1.643,1.484,1.612c0.688,0,1.152-0.171,1.392-0.511
		c0.201-0.278,0.302-0.781,0.302-1.508v-2.088L599.659,75.687z M596.968,71.905l0.023,0.998c0.008,1.253,0.495,1.871,1.462,1.855
		c0.757,0,1.26-0.302,1.508-0.904c0.077-0.209,0.131-0.495,0.162-0.858l0.035-1.044v-3.294c0.015-0.967-0.182-1.64-0.592-2.019
		c-0.24-0.193-0.572-0.294-0.998-0.302c-1.067,0-1.601,0.781-1.601,2.343V71.905z"/>
	<path d="M606.433,72.637c-0.008,0.772,0.054,1.314,0.186,1.623c0.201,0.472,0.657,0.716,1.369,0.731c0.943,0,1.473-0.434,1.589-1.3
		l0.046-0.486v-0.268h2.111v0.268l-0.035,0.788c-0.17,1.74-1.419,2.606-3.746,2.599c-0.542,0.008-1.041-0.055-1.497-0.186
		c-0.603-0.155-1.075-0.452-1.415-0.894c-0.464-0.557-0.704-1.55-0.719-2.98v-3.225c-0.008-1.593,0.213-2.703,0.661-3.329
		c0.596-0.827,1.628-1.241,3.097-1.241c2.258,0.023,3.46,0.975,3.607,2.854c0.031,0.363,0.046,0.785,0.046,1.264v2.553h-5.301
		V72.637z M606.433,69.806h3.189v-1.311c-0.008-1.415-0.538-2.134-1.589-2.157c-0.673,0.016-1.133,0.298-1.38,0.847
		c-0.147,0.317-0.22,0.882-0.22,1.693V69.806z"/>
	<path d="M621.164,59.981v16.378h-2.111v-1.044c-0.781,0.866-1.597,1.292-2.447,1.276c-0.688,0.008-1.274-0.188-1.757-0.586
		s-0.791-0.93-0.922-1.595c-0.116-0.526-0.174-1.098-0.174-1.717v-3.793c-0.023-2.784,0.971-4.172,2.981-4.164
		c0.743,0.008,1.338,0.189,1.787,0.545c0.139,0.116,0.317,0.278,0.533,0.487v-5.788H621.164z M615.863,72.335
		c-0.008,0.557,0.007,0.989,0.046,1.299c0.069,0.92,0.545,1.373,1.427,1.357c0.51,0,0.908-0.178,1.194-0.534
		c0.34-0.425,0.514-1.283,0.522-2.575v-3.328c0-0.402-0.035-0.77-0.104-1.103c-0.07-0.332-0.221-0.599-0.453-0.8
		c-0.248-0.201-0.564-0.306-0.951-0.313c-0.99,0.008-1.531,0.561-1.624,1.659c-0.046,0.379-0.065,0.815-0.058,1.311V72.335z"/>
	<path d="M633.111,60.039h2.876V70.56h1.972v1.81h-1.972v3.99h-2.111v-3.99h-5.881v-1.763L633.111,60.039z M629.875,70.56h4.002
		v-8.362L629.875,70.56z"/>
	<path d="M648.271,71.256c0,0.773-0.046,1.47-0.139,2.088c-0.17,1.106-0.649,1.918-1.438,2.436c-0.843,0.55-1.759,0.82-2.749,0.813
		c-0.619,0.008-1.214-0.101-1.786-0.325c-1.423-0.51-2.227-1.484-2.413-2.923c-0.093-0.596-0.135-1.291-0.127-2.088v-6.217
		c0-0.82,0.039-1.543,0.116-2.169c0.108-1.044,0.592-1.829,1.45-2.355c0.75-0.471,1.67-0.707,2.76-0.707
		c1.655,0,2.846,0.472,3.573,1.415c0.495,0.642,0.746,1.914,0.754,3.816V71.256z M646.16,65.027c0-0.448-0.016-0.89-0.046-1.322
		c-0.078-1.399-0.812-2.096-2.204-2.088c-0.998,0-1.643,0.363-1.937,1.09c-0.17,0.426-0.251,1.199-0.244,2.32v6.24l0.07,1.16
		c0.116,1.569,0.831,2.354,2.146,2.354c1.237,0,1.953-0.785,2.146-2.354c0.046-0.418,0.07-0.805,0.07-1.16V65.027z"/>
	<path d="M653.63,69.551v1.81h-3.178v-1.81H653.63z"/>
	<path d="M656.274,60.039h8.212v1.717l-4.895,14.604h-2.528l5.463-14.511h-6.252V60.039z"/>
	<path d="M669.208,72.312v0.406c0.008,1.36,0.634,2.049,1.879,2.064c1.121,0.016,1.805-0.511,2.053-1.577
		c0.116-0.503,0.178-1.45,0.186-2.842c0-0.441-0.015-0.828-0.046-1.16c-0.108-1.176-0.746-1.771-1.914-1.786
		c-1.176,0.008-1.837,0.494-1.983,1.461l-0.082,0.73h-2.111l0.139-9.569h7.725v1.81H669.3l-0.139,5.186
		c0.278-0.302,0.526-0.534,0.743-0.696c0.58-0.472,1.353-0.715,2.32-0.73c1.825-0.008,2.849,0.866,3.074,2.621
		c0.093,0.712,0.139,1.442,0.139,2.192c0,1.168-0.07,2.204-0.209,3.108c-0.101,0.688-0.321,1.261-0.661,1.717
		c-0.634,0.897-1.751,1.346-3.352,1.346c-0.634,0-1.229-0.074-1.786-0.221c-0.604-0.146-1.094-0.429-1.473-0.847
		c-0.58-0.596-0.866-1.469-0.858-2.621v-0.592H669.208z"/>
	<path d="M684.693,64.969l1.937,8.503l2.088-8.503h2.041l-4.314,15.613h-1.995l1.183-3.99l-3.109-11.623H684.693z"/>
	<path d="M694.03,72.637c-0.008,0.772,0.054,1.314,0.186,1.623c0.201,0.472,0.657,0.716,1.369,0.731c0.943,0,1.473-0.434,1.589-1.3
		l0.046-0.486v-0.268h2.111v0.268l-0.035,0.788c-0.17,1.74-1.419,2.606-3.746,2.599c-0.542,0.008-1.041-0.055-1.497-0.186
		c-0.603-0.155-1.075-0.452-1.415-0.894c-0.464-0.557-0.704-1.55-0.719-2.98v-3.225c-0.008-1.593,0.213-2.703,0.661-3.329
		c0.596-0.827,1.628-1.241,3.097-1.241c2.258,0.023,3.46,0.975,3.607,2.854c0.031,0.363,0.046,0.785,0.046,1.264v2.553h-5.301
		V72.637z M694.03,69.806h3.189v-1.311c-0.008-1.415-0.538-2.134-1.589-2.157c-0.673,0.016-1.133,0.298-1.38,0.847
		c-0.147,0.317-0.22,0.882-0.22,1.693V69.806z"/>
	<path d="M701.708,66.964c0.085-0.448,0.292-0.853,0.621-1.212c0.329-0.359,0.717-0.608,1.166-0.748
		c0.534-0.17,1.09-0.259,1.67-0.267c0.673,0,1.283,0.093,1.833,0.278c0.688,0.225,1.191,0.719,1.508,1.484
		c0.163,0.402,0.244,1.118,0.244,2.146v7.713h-2.111V75.13c-0.387,0.58-0.743,0.955-1.067,1.125
		c-0.417,0.232-0.917,0.345-1.496,0.337c-0.425,0.008-0.805-0.055-1.137-0.186c-1.083-0.371-1.616-1.377-1.601-3.016
		c0-0.688,0.07-1.307,0.209-1.856c0.232-0.951,0.959-1.585,2.181-1.902c0.487-0.131,0.99-0.216,1.508-0.255l1.404-0.047v-1.333
		c-0.016-1.13-0.487-1.683-1.416-1.659c-0.564,0.008-0.966,0.189-1.206,0.545c-0.17,0.256-0.278,0.696-0.325,1.322h-2.111
		C701.588,67.726,701.631,67.313,701.708,66.964z M706.638,70.932h-0.615c-1.748,0.085-2.606,0.881-2.575,2.389
		c-0.023,1.106,0.41,1.663,1.299,1.671c0.75,0.016,1.295-0.375,1.635-1.172c0.131-0.302,0.209-0.614,0.232-0.939l0.023-0.904V70.932
		z"/>
	<path d="M713.203,64.969v1.404c0.325-0.564,0.704-0.967,1.137-1.207c0.286-0.162,0.564-0.274,0.835-0.336l0.673-0.093v2.088
		l-0.708,0.069c-0.758,0.093-1.28,0.41-1.566,0.951c-0.248,0.503-0.372,1.245-0.372,2.228v6.286h-2.111V64.969H713.203z"/>
	<path d="M718.922,72.892v0.417l0.035,0.465c0.131,0.835,0.596,1.24,1.392,1.218c0.943-0.008,1.431-0.464,1.461-1.369
		c0-0.309-0.077-0.584-0.232-0.823c-0.209-0.294-0.472-0.572-0.789-0.835l-1.056-0.789l-1.114-0.835
		c-0.502-0.395-0.866-0.766-1.09-1.113c-0.278-0.426-0.414-0.967-0.406-1.624c0-1.902,1.109-2.857,3.329-2.865
		c0.58,0,1.117,0.077,1.612,0.231c0.974,0.302,1.515,0.986,1.624,2.054l0.035,0.87v0.371h-2.111v-0.36v-0.417
		c-0.069-0.75-0.476-1.133-1.218-1.148c-0.758-0.008-1.145,0.387-1.16,1.184c0,0.294,0.066,0.537,0.197,0.73
		c0.17,0.255,0.445,0.525,0.824,0.812l1.311,0.963c1.152,0.813,1.856,1.504,2.111,2.076c0.154,0.379,0.236,0.813,0.244,1.299
		c-0.016,1.029-0.356,1.829-1.021,2.401c-0.611,0.519-1.45,0.781-2.517,0.789c-2.157-0.008-3.336-0.912-3.538-2.715l-0.035-0.579
		v-0.406H718.922z"/>
	<path d="M732.725,64.969l1.763,9.871l1.694-9.871h2.946l1.879,9.918l1.763-9.918h1.949l-2.331,11.391h-2.946l-1.856-9.639
		l-1.717,9.639h-2.946l-2.331-11.391H732.725z"/>
	<path d="M748.651,59.981v2.135h-2.273v-2.135H748.651z M746.458,64.969h2.111v11.391h-2.111V64.969z"/>
	<path d="M751.979,64.969v-2.041l2.111-0.951v2.992h1.716v1.602h-1.716v6.692l0.011,0.754c0.023,0.604,0.406,0.92,1.148,0.951
		l0.557,0.023v1.449l-0.696,0.104c-0.263,0.039-0.53,0.055-0.8,0.047c-1.446,0-2.211-0.58-2.296-1.74l-0.035-1.253V66.57h-1.496
		v-1.602H751.979z"/>
	<path d="M757.826,59.981h2.111v5.985l0.406-0.395c0.626-0.564,1.341-0.843,2.146-0.835c1.732,0.023,2.637,0.878,2.714,2.563
		l0.035,1.368v7.69h-2.111v-7.215l-0.012-0.847c-0.023-0.618-0.112-1.07-0.267-1.356c-0.217-0.395-0.611-0.596-1.183-0.604
		c-0.758,0-1.253,0.294-1.485,0.882c-0.131,0.31-0.205,0.626-0.22,0.951l-0.023,0.928v7.261h-2.111V59.981z"/>
	<path d="M767.465,69.319c0.007-1.184,0.127-2.069,0.359-2.656c0.363-0.882,1.017-1.458,1.96-1.729
		c0.44-0.132,0.905-0.197,1.392-0.197c0.479,0,0.943,0.065,1.392,0.197c0.587,0.17,1.052,0.452,1.392,0.847
		c0.595,0.688,0.9,1.867,0.916,3.538v2.853c0.008,1.509-0.224,2.575-0.696,3.202c-0.603,0.819-1.589,1.226-2.958,1.218
		c-2.173,0.023-3.391-0.905-3.653-2.784c-0.078-0.494-0.112-1.04-0.104-1.636V69.319z M769.576,72.172l0.035,1.103
		c0.07,1.152,0.6,1.725,1.589,1.717c0.688-0.016,1.145-0.349,1.369-0.998c0.131-0.379,0.197-0.985,0.197-1.821v-3.038
		c0-1.88-0.534-2.812-1.601-2.796c-0.959-0.016-1.473,0.557-1.543,1.717l-0.046,1.079V72.172z"/>
	<path d="M779.214,64.969v7.679c0.008,0.813,0.054,1.334,0.139,1.566c0.209,0.533,0.626,0.793,1.253,0.777
		c0.41,0.008,0.754-0.093,1.032-0.302c0.348-0.239,0.572-0.622,0.673-1.148c0.062-0.31,0.093-0.649,0.093-1.021v-7.552h2.111v11.391
		h-2.111v-1.009l-0.395,0.464c-0.526,0.519-1.233,0.777-2.123,0.777c-0.789,0-1.454-0.229-1.995-0.685
		c-0.503-0.425-0.762-1.071-0.777-1.938l-0.011-1.229v-7.771H779.214z"/>
	<path d="M787.902,64.969v-2.041l2.111-0.951v2.992h1.716v1.602h-1.716v6.692l0.011,0.754c0.023,0.604,0.406,0.92,1.148,0.951
		l0.557,0.023v1.449l-0.696,0.104c-0.263,0.039-0.53,0.055-0.8,0.047c-1.446,0-2.211-0.58-2.296-1.74l-0.035-1.253V66.57h-1.496
		v-1.602H787.902z"/>
	<path d="M0.13,96.901c-0.008-1.484,0.22-2.513,0.684-3.085c0.572-0.704,1.554-1.063,2.946-1.079
		c2.227,0.016,3.344,0.947,3.352,2.795v0.639v0.313H5.002v-0.313l-0.023-0.568c-0.077-0.836-0.491-1.257-1.241-1.265
		c-0.966-0.008-1.461,0.507-1.484,1.543l-0.012,0.858v3.607l0.023,1.159c0.039,0.982,0.514,1.478,1.427,1.485
		c0.943-0.008,1.427-0.588,1.45-1.74v-0.464h2.111v0.521c-0.031,2.22-1.191,3.313-3.479,3.283c-0.696,0-1.315-0.097-1.856-0.29
		c-1.183-0.387-1.779-1.647-1.786-3.781V96.901z"/>
	<path d="M11.405,87.981v16.378H9.293V87.981H11.405z"/>
	<path d="M15.87,87.981v2.135h-2.273v-2.135H15.87z M13.678,92.969h2.111v11.391h-2.111V92.969z"/>
	<path d="M18.04,92.969h2.111v0.998c0.619-0.819,1.481-1.229,2.587-1.229c0.448,0,0.87,0.081,1.264,0.243
		c0.897,0.364,1.373,1.087,1.427,2.169l0.023,1.462v7.748H23.34v-7.18l-0.023-1.148c-0.039-1.129-0.53-1.693-1.473-1.693
		c-0.711,0.016-1.183,0.302-1.415,0.858c-0.131,0.31-0.212,0.644-0.244,1.003c-0.031,0.36-0.042,0.741-0.035,1.143v7.018H18.04
		V92.969z"/>
	<path d="M29.894,87.981v2.135H27.62v-2.135H29.894z M27.701,92.969h2.111v11.391h-2.111V92.969z"/>
	<path d="M32.121,96.901c-0.008-1.484,0.22-2.513,0.684-3.085c0.572-0.704,1.554-1.063,2.946-1.079
		c2.227,0.016,3.344,0.947,3.352,2.795v0.639v0.313h-2.111v-0.313l-0.023-0.568c-0.077-0.836-0.491-1.257-1.241-1.265
		c-0.966-0.008-1.461,0.507-1.484,1.543l-0.012,0.858v3.607l0.023,1.159c0.039,0.982,0.514,1.478,1.427,1.485
		c0.943-0.008,1.427-0.588,1.45-1.74v-0.464h2.111v0.521c-0.031,2.22-1.191,3.313-3.479,3.283c-0.696,0-1.315-0.097-1.856-0.29
		c-1.183-0.387-1.779-1.647-1.786-3.781V96.901z"/>
	<path d="M41.644,94.964c0.085-0.448,0.292-0.853,0.621-1.212c0.329-0.359,0.717-0.608,1.166-0.748
		c0.534-0.17,1.09-0.259,1.67-0.267c0.673,0,1.283,0.093,1.833,0.278c0.688,0.225,1.191,0.719,1.508,1.484
		c0.163,0.402,0.244,1.118,0.244,2.146v7.713h-2.111v-1.229c-0.387,0.58-0.743,0.955-1.067,1.125
		c-0.417,0.232-0.917,0.345-1.496,0.337c-0.425,0.008-0.805-0.055-1.137-0.186c-1.083-0.371-1.616-1.377-1.601-3.016
		c0-0.688,0.07-1.307,0.209-1.856c0.232-0.951,0.959-1.585,2.181-1.902c0.487-0.131,0.99-0.216,1.508-0.255l1.404-0.047v-1.333
		c-0.016-1.13-0.487-1.683-1.416-1.659c-0.564,0.008-0.966,0.189-1.206,0.545c-0.17,0.256-0.278,0.696-0.325,1.322h-2.111
		C41.524,95.726,41.566,95.313,41.644,94.964z M46.574,98.932h-0.615c-1.748,0.085-2.606,0.881-2.575,2.389
		c-0.023,1.106,0.41,1.663,1.299,1.671c0.75,0.016,1.295-0.375,1.635-1.172c0.131-0.302,0.209-0.614,0.232-0.939l0.023-0.904V98.932
		z"/>
	<path d="M53.034,87.981v16.378h-2.111V87.981H53.034z"/>
	<path d="M64.088,88.005h2.958l3.77,16.354H68.45l-0.777-3.734h-4.373l-0.8,3.734h-2.181L64.088,88.005z M63.682,98.78h3.573
		l-1.729-8.711L63.682,98.78z"/>
	<path d="M74.945,98.873v0.916c-0.008,0.465,0.039,0.897,0.139,1.3c0.224,1.113,0.955,1.666,2.192,1.658
		c0.464,0.008,0.886-0.069,1.265-0.231c0.843-0.325,1.28-1.103,1.311-2.332c-0.008-0.843-0.29-1.496-0.847-1.96
		c-0.395-0.317-0.862-0.63-1.403-0.939l-1.636-0.916c-0.649-0.356-1.191-0.724-1.624-1.103c-0.904-0.773-1.357-1.887-1.357-3.341
		c0.016-1.585,0.522-2.71,1.52-3.375c0.742-0.503,1.763-0.762,3.062-0.777c1.585,0,2.73,0.371,3.434,1.114
		c0.557,0.595,0.835,1.763,0.835,3.503v0.324h-2.25v-0.395l-0.046-0.847c-0.139-1.26-0.808-1.879-2.007-1.855
		c-1.516,0.008-2.281,0.758-2.296,2.25c0,0.951,0.476,1.725,1.426,2.32c0.588,0.379,1.253,0.76,1.995,1.143
		c0.743,0.383,1.346,0.744,1.81,1.084c1.09,0.82,1.636,2.05,1.636,3.688c-0.023,2.993-1.628,4.489-4.814,4.489
		c-1.369,0.016-2.42-0.263-3.155-0.835c-0.866-0.681-1.334-1.651-1.404-2.912l-0.035-1.322v-0.649H74.945z"/>
	<path d="M91.288,92.331l-0.012-0.766c-0.054-1.307-0.688-1.956-1.902-1.948c-1.075,0.008-1.775,0.352-2.1,1.032
		c-0.178,0.332-0.274,0.665-0.29,0.997l-0.023,1.346v6.449c0.008,1.168,0.101,1.922,0.279,2.262
		c0.371,0.696,1.013,1.044,1.925,1.044c1.199-0.008,1.875-0.703,2.03-2.088l0.093-1.056v-0.557h2.25v0.568l-0.023,1.021
		c-0.069,1.222-0.41,2.157-1.021,2.807c-0.371,0.402-0.808,0.685-1.311,0.847c-0.595,0.201-1.245,0.302-1.949,0.302
		c-0.603,0.008-1.179-0.059-1.728-0.197c-1.856-0.426-2.788-1.952-2.795-4.582v-6.519c-0.008-0.703,0.027-1.361,0.104-1.972
		c0.077-0.75,0.278-1.369,0.603-1.856c0.719-1.105,2.007-1.67,3.863-1.693c2.605,0.023,4.005,1.04,4.199,3.051
		c0.039,0.379,0.058,0.809,0.058,1.288v0.638h-2.25V92.331z"/>
	<path d="M97.459,88.005l2.622,13.838l2.552-13.838h2.181l-3.479,16.354h-2.749l-3.48-16.354H97.459z"/>
	<path d="M107.017,88.005h4.013c0.665,0,1.295,0.046,1.891,0.139c0.68,0.101,1.28,0.329,1.798,0.685
		c0.897,0.604,1.419,1.446,1.566,2.528c0.07,0.534,0.108,1.134,0.116,1.798v6.021c-0.023,2.019-0.375,3.375-1.056,4.071
		c-0.518,0.533-1.141,0.874-1.868,1.021c-0.309,0.063-1.024,0.093-2.146,0.093h-4.315V88.005z M109.267,89.849v12.667h2.076
		c1.245,0,2.042-0.321,2.39-0.963c0.286-0.541,0.425-1.435,0.417-2.68v-5.544c0-1.245-0.151-2.1-0.452-2.563
		c-0.395-0.596-1.18-0.901-2.355-0.917H109.267z"/>
	<path d="M124.068,97.319c0.007-1.184,0.127-2.069,0.359-2.656c0.363-0.882,1.017-1.458,1.96-1.729
		c0.44-0.132,0.905-0.197,1.392-0.197c0.479,0,0.943,0.065,1.392,0.197c0.587,0.17,1.052,0.452,1.392,0.847
		c0.595,0.688,0.9,1.867,0.916,3.538v2.853c0.008,1.509-0.224,2.575-0.696,3.202c-0.603,0.819-1.589,1.226-2.958,1.218
		c-2.173,0.023-3.391-0.905-3.653-2.784c-0.078-0.494-0.112-1.04-0.104-1.636V97.319z M126.179,100.172l0.035,1.103
		c0.07,1.152,0.6,1.725,1.589,1.717c0.688-0.016,1.145-0.349,1.369-0.998c0.131-0.379,0.197-0.985,0.197-1.821v-3.038
		c0-1.88-0.534-2.812-1.601-2.796c-0.959-0.016-1.473,0.557-1.543,1.717l-0.046,1.079V100.172z"/>
	<path d="M135.945,92.969v1.404c0.325-0.564,0.704-0.967,1.137-1.207c0.286-0.162,0.564-0.274,0.835-0.336l0.673-0.093v2.088
		l-0.708,0.069c-0.758,0.093-1.28,0.41-1.566,0.951c-0.248,0.503-0.372,1.245-0.372,2.228v6.286h-2.111V92.969H135.945z"/>
	<path d="M152.961,87.981v16.378h-2.111v-1.044c-0.781,0.866-1.597,1.292-2.447,1.276c-0.688,0.008-1.274-0.188-1.757-0.586
		s-0.791-0.93-0.922-1.595c-0.116-0.526-0.174-1.098-0.174-1.717v-3.793c-0.023-2.784,0.971-4.172,2.981-4.164
		c0.743,0.008,1.338,0.189,1.787,0.545c0.139,0.116,0.317,0.278,0.533,0.487v-5.788H152.961z M147.661,100.335
		c-0.008,0.557,0.007,0.989,0.046,1.299c0.069,0.92,0.545,1.373,1.427,1.357c0.51,0,0.908-0.178,1.194-0.534
		c0.34-0.425,0.514-1.283,0.522-2.575v-3.328c0-0.402-0.035-0.77-0.104-1.103c-0.07-0.332-0.221-0.599-0.453-0.8
		c-0.248-0.201-0.564-0.306-0.951-0.313c-0.99,0.008-1.531,0.561-1.624,1.659c-0.046,0.379-0.065,0.815-0.058,1.311V100.335z"/>
	<path d="M157.381,87.981v2.135h-2.273v-2.135H157.381z M155.188,92.969h2.111v11.391h-2.111V92.969z"/>
	<path d="M159.933,94.964c0.085-0.448,0.292-0.853,0.621-1.212c0.329-0.359,0.717-0.608,1.166-0.748
		c0.534-0.17,1.09-0.259,1.67-0.267c0.673,0,1.283,0.093,1.833,0.278c0.688,0.225,1.191,0.719,1.508,1.484
		c0.163,0.402,0.244,1.118,0.244,2.146v7.713h-2.111v-1.229c-0.387,0.58-0.743,0.955-1.067,1.125
		c-0.417,0.232-0.917,0.345-1.496,0.337c-0.425,0.008-0.805-0.055-1.137-0.186c-1.083-0.371-1.616-1.377-1.601-3.016
		c0-0.688,0.07-1.307,0.209-1.856c0.232-0.951,0.959-1.585,2.181-1.902c0.487-0.131,0.99-0.216,1.508-0.255l1.404-0.047v-1.333
		c-0.016-1.13-0.487-1.683-1.416-1.659c-0.564,0.008-0.966,0.189-1.206,0.545c-0.17,0.256-0.278,0.696-0.325,1.322h-2.111
		C159.813,95.726,159.855,95.313,159.933,94.964z M164.862,98.932h-0.615c-1.748,0.085-2.606,0.881-2.575,2.389
		c-0.023,1.106,0.41,1.663,1.299,1.671c0.75,0.016,1.295-0.375,1.635-1.172c0.131-0.302,0.209-0.614,0.232-0.939l0.023-0.904V98.932
		z"/>
	<path d="M171.3,87.981v5.893c0.402-0.519,0.843-0.847,1.322-0.986c0.325-0.101,0.669-0.15,1.032-0.15
		c1.964,0,2.946,1.253,2.946,3.758v3.747c0,0.634-0.031,1.222-0.093,1.763c-0.201,1.748-1.16,2.61-2.876,2.587
		c-0.897,0-1.674-0.398-2.332-1.195v0.963h-2.111V87.981H171.3z M171.3,100.254c-0.008,0.448,0.027,0.869,0.104,1.264
		c0.039,0.286,0.131,0.542,0.278,0.766c0.263,0.479,0.696,0.716,1.299,0.708c0.905-0.008,1.392-0.479,1.461-1.415
		c0.031-0.317,0.046-0.762,0.046-1.334v-3.596c-0.023-1.516-0.549-2.285-1.578-2.309c-0.619-0.008-1.048,0.221-1.288,0.685
		c-0.201,0.363-0.309,1.009-0.325,1.937V100.254z"/>
	<path d="M180.73,100.637c-0.008,0.772,0.054,1.314,0.186,1.623c0.201,0.472,0.657,0.716,1.369,0.731c0.943,0,1.473-0.434,1.589-1.3
		l0.046-0.486v-0.268h2.111v0.268l-0.035,0.788c-0.17,1.74-1.419,2.606-3.746,2.599c-0.542,0.008-1.041-0.055-1.497-0.186
		c-0.603-0.155-1.075-0.452-1.415-0.894c-0.464-0.557-0.704-1.55-0.719-2.98v-3.225c-0.008-1.593,0.213-2.703,0.661-3.329
		c0.596-0.827,1.628-1.241,3.097-1.241c2.258,0.023,3.46,0.975,3.607,2.854c0.031,0.363,0.046,0.785,0.046,1.264v2.553h-5.301
		V100.637z M180.73,97.806h3.189v-1.311c-0.008-1.415-0.538-2.134-1.589-2.157c-0.673,0.016-1.133,0.298-1.38,0.847
		c-0.147,0.317-0.22,0.882-0.22,1.693V97.806z"/>
	<path d="M189.186,92.969v-2.041l2.111-0.951v2.992h1.716v1.602h-1.716v6.692l0.011,0.754c0.023,0.604,0.406,0.92,1.148,0.951
		l0.557,0.023v1.449l-0.696,0.104c-0.263,0.039-0.53,0.055-0.8,0.047c-1.446,0-2.211-0.58-2.296-1.74l-0.035-1.253V94.57h-1.496
		v-1.602H189.186z"/>
	<path d="M196.934,100.637c-0.008,0.772,0.054,1.314,0.186,1.623c0.201,0.472,0.657,0.716,1.369,0.731
		c0.943,0,1.473-0.434,1.589-1.3l0.046-0.486v-0.268h2.111v0.268l-0.035,0.788c-0.17,1.74-1.419,2.606-3.746,2.599
		c-0.542,0.008-1.041-0.055-1.497-0.186c-0.603-0.155-1.075-0.452-1.415-0.894c-0.464-0.557-0.704-1.55-0.719-2.98v-3.225
		c-0.008-1.593,0.213-2.703,0.661-3.329c0.596-0.827,1.628-1.241,3.097-1.241c2.258,0.023,3.46,0.975,3.607,2.854
		c0.031,0.363,0.046,0.785,0.046,1.264v2.553h-5.301V100.637z M196.934,97.806h3.189v-1.311c-0.008-1.415-0.538-2.134-1.589-2.157
		c-0.673,0.016-1.133,0.298-1.38,0.847c-0.147,0.317-0.22,0.882-0.22,1.693V97.806z"/>
	<path d="M206.063,100.892v0.417l0.035,0.465c0.131,0.835,0.596,1.24,1.392,1.218c0.943-0.008,1.431-0.464,1.461-1.369
		c0-0.309-0.077-0.584-0.232-0.823c-0.209-0.294-0.472-0.572-0.789-0.835l-1.056-0.789l-1.114-0.835
		c-0.502-0.395-0.866-0.766-1.09-1.113c-0.278-0.426-0.414-0.967-0.406-1.624c0-1.902,1.109-2.857,3.329-2.865
		c0.58,0,1.117,0.077,1.612,0.231c0.974,0.302,1.515,0.986,1.624,2.054l0.035,0.87v0.371h-2.111v-0.36v-0.417
		c-0.069-0.75-0.476-1.133-1.218-1.148c-0.758-0.008-1.145,0.387-1.16,1.184c0,0.294,0.066,0.537,0.197,0.73
		c0.17,0.255,0.445,0.525,0.824,0.812l1.311,0.963c1.152,0.813,1.856,1.504,2.111,2.076c0.154,0.379,0.236,0.813,0.244,1.299
		c-0.016,1.029-0.356,1.829-1.021,2.401c-0.611,0.519-1.45,0.781-2.517,0.789c-2.157-0.008-3.336-0.912-3.538-2.715l-0.035-0.579
		v-0.406H206.063z"/>
	<path d="M218.625,94.964c0.085-0.448,0.292-0.853,0.621-1.212c0.329-0.359,0.717-0.608,1.166-0.748
		c0.534-0.17,1.09-0.259,1.67-0.267c0.673,0,1.283,0.093,1.833,0.278c0.688,0.225,1.191,0.719,1.508,1.484
		c0.163,0.402,0.244,1.118,0.244,2.146v7.713h-2.111v-1.229c-0.387,0.58-0.743,0.955-1.067,1.125
		c-0.417,0.232-0.917,0.345-1.496,0.337c-0.425,0.008-0.805-0.055-1.137-0.186c-1.083-0.371-1.616-1.377-1.601-3.016
		c0-0.688,0.07-1.307,0.209-1.856c0.232-0.951,0.959-1.585,2.181-1.902c0.487-0.131,0.99-0.216,1.508-0.255l1.404-0.047v-1.333
		c-0.016-1.13-0.487-1.683-1.416-1.659c-0.564,0.008-0.966,0.189-1.206,0.545c-0.17,0.256-0.278,0.696-0.325,1.322h-2.111
		C218.504,95.726,218.547,95.313,218.625,94.964z M223.554,98.932h-0.615c-1.748,0.085-2.606,0.881-2.575,2.389
		c-0.023,1.106,0.41,1.663,1.299,1.671c0.75,0.016,1.295-0.375,1.635-1.172c0.131-0.302,0.209-0.614,0.232-0.939l0.023-0.904V98.932
		z"/>
	<path d="M227.881,92.969h2.111v0.998c0.619-0.819,1.481-1.229,2.587-1.229c0.448,0,0.87,0.081,1.264,0.243
		c0.897,0.364,1.373,1.087,1.427,2.169l0.023,1.462v7.748h-2.111v-7.18l-0.023-1.148c-0.039-1.129-0.53-1.693-1.473-1.693
		c-0.711,0.016-1.183,0.302-1.415,0.858c-0.131,0.31-0.212,0.644-0.244,1.003c-0.031,0.36-0.042,0.741-0.035,1.143v7.018h-2.111
		V92.969z"/>
	<path d="M244.955,87.981v16.378h-2.111v-1.044c-0.781,0.866-1.597,1.292-2.447,1.276c-0.688,0.008-1.274-0.188-1.757-0.586
		s-0.791-0.93-0.922-1.595c-0.116-0.526-0.174-1.098-0.174-1.717v-3.793c-0.023-2.784,0.971-4.172,2.981-4.164
		c0.743,0.008,1.338,0.189,1.787,0.545c0.139,0.116,0.317,0.278,0.533,0.487v-5.788H244.955z M239.654,100.335
		c-0.008,0.557,0.007,0.989,0.046,1.299c0.069,0.92,0.545,1.373,1.427,1.357c0.51,0,0.908-0.178,1.194-0.534
		c0.34-0.425,0.514-1.283,0.522-2.575v-3.328c0-0.402-0.035-0.77-0.104-1.103c-0.07-0.332-0.221-0.599-0.453-0.8
		c-0.248-0.201-0.564-0.306-0.951-0.313c-0.99,0.008-1.531,0.561-1.624,1.659c-0.046,0.379-0.065,0.815-0.058,1.311V100.335z"/>
	<path d="M254.037,92.969l1.763,9.871l1.694-9.871h2.946l1.879,9.918l1.763-9.918h1.949l-2.331,11.391h-2.946l-1.856-9.639
		l-1.717,9.639h-2.946l-2.331-11.391H254.037z"/>
	<path d="M269.962,87.981v2.135h-2.273v-2.135H269.962z M267.77,92.969h2.111v11.391h-2.111V92.969z"/>
	<path d="M273.292,92.969v-2.041l2.111-0.951v2.992h1.716v1.602h-1.716v6.692l0.011,0.754c0.023,0.604,0.406,0.92,1.148,0.951
		l0.557,0.023v1.449l-0.696,0.104c-0.263,0.039-0.53,0.055-0.8,0.047c-1.446,0-2.211-0.58-2.296-1.74l-0.035-1.253V94.57h-1.496
		v-1.602H273.292z"/>
	<path d="M279.138,87.981h2.111v5.985l0.406-0.395c0.626-0.564,1.341-0.843,2.146-0.835c1.732,0.023,2.637,0.878,2.714,2.563
		l0.035,1.368v7.69h-2.111v-7.215l-0.012-0.847c-0.023-0.618-0.112-1.07-0.267-1.356c-0.217-0.395-0.611-0.596-1.183-0.604
		c-0.758,0-1.253,0.294-1.485,0.882c-0.131,0.31-0.205,0.626-0.22,0.951l-0.023,0.928v7.261h-2.111V87.981z"/>
	<path d="M294.46,88.005h2.25v14.511h4.768v1.844h-7.018V88.005z"/>
	<path d="M303.705,88.005h4.013c0.665,0,1.295,0.046,1.891,0.139c0.68,0.101,1.28,0.329,1.798,0.685
		c0.897,0.604,1.419,1.446,1.566,2.528c0.07,0.534,0.108,1.134,0.116,1.798v6.021c-0.023,2.019-0.375,3.375-1.056,4.071
		c-0.518,0.533-1.141,0.874-1.868,1.021c-0.309,0.063-1.024,0.093-2.146,0.093h-4.315V88.005z M305.955,89.849v12.667h2.076
		c1.245,0,2.042-0.321,2.39-0.963c0.286-0.541,0.425-1.435,0.417-2.68v-5.544c0-1.245-0.151-2.1-0.452-2.563
		c-0.395-0.596-1.18-0.901-2.355-0.917H305.955z"/>
	<path d="M315.931,88.005h2.25v14.511h4.768v1.844h-7.018V88.005z"/>
	<path d="M324.177,97.736h9.778v1.624h-9.778V97.736z"/>
	<path d="M342.736,92.331l-0.012-0.766c-0.054-1.307-0.688-1.956-1.902-1.948c-1.075,0.008-1.775,0.352-2.1,1.032
		c-0.178,0.332-0.274,0.665-0.29,0.997l-0.023,1.346v6.449c0.008,1.168,0.101,1.922,0.279,2.262
		c0.371,0.696,1.013,1.044,1.925,1.044c1.199-0.008,1.875-0.703,2.03-2.088l0.093-1.056v-0.557h2.25v0.568l-0.023,1.021
		c-0.069,1.222-0.41,2.157-1.021,2.807c-0.371,0.402-0.808,0.685-1.311,0.847c-0.595,0.201-1.245,0.302-1.949,0.302
		c-0.603,0.008-1.179-0.059-1.728-0.197c-1.856-0.426-2.788-1.952-2.795-4.582v-6.519c-0.008-0.703,0.027-1.361,0.104-1.972
		c0.077-0.75,0.278-1.369,0.603-1.856c0.719-1.105,2.007-1.67,3.863-1.693c2.605,0.023,4.005,1.04,4.199,3.051
		c0.039,0.379,0.058,0.809,0.058,1.288v0.638h-2.25V92.331z"/>
	<path d="M353.233,88.039h8.212v1.717l-4.895,14.604h-2.528l5.463-14.511h-6.252V88.039z"/>
	<path d="M372.384,99.256c0,0.773-0.046,1.47-0.139,2.088c-0.17,1.106-0.649,1.918-1.438,2.436c-0.843,0.55-1.759,0.82-2.749,0.813
		c-0.619,0.008-1.214-0.101-1.786-0.325c-1.423-0.51-2.227-1.484-2.413-2.923c-0.093-0.596-0.135-1.291-0.127-2.088v-6.217
		c0-0.82,0.039-1.543,0.116-2.169c0.108-1.044,0.592-1.829,1.45-2.355c0.75-0.471,1.67-0.707,2.76-0.707
		c1.655,0,2.846,0.472,3.573,1.415c0.495,0.642,0.746,1.914,0.754,3.816V99.256z M370.273,93.027c0-0.448-0.016-0.89-0.046-1.322
		c-0.078-1.399-0.812-2.096-2.204-2.088c-0.998,0-1.643,0.363-1.937,1.09c-0.17,0.426-0.251,1.199-0.244,2.32v6.24l0.07,1.16
		c0.116,1.569,0.831,2.354,2.146,2.354c1.237,0,1.953-0.785,2.146-2.354c0.046-0.418,0.07-0.805,0.07-1.16V93.027z"/>
	<path d="M377.743,97.551v1.81h-3.178v-1.81H377.743z"/>
	<path d="M381.489,90.162l1.009-0.614c0.309-0.201,0.696-0.503,1.16-0.905l0.708-0.604h1.751v16.32h-2.111V90.568l-0.777,0.614
		c-0.325,0.256-0.638,0.453-0.939,0.592l-0.8,0.325V90.162z"/>
	<path d="M392.114,95.104c-0.387-0.348-0.649-0.801-0.789-1.357c-0.131-0.456-0.193-0.943-0.186-1.461
		c0.031-2.985,1.442-4.478,4.234-4.478c2.567-0.008,3.87,1.435,3.909,4.326c-0.016,1.006-0.151,1.744-0.406,2.216
		c-0.286,0.518-0.851,0.997-1.693,1.438c1.167,0.294,1.891,1.013,2.169,2.157c0.124,0.519,0.186,1.105,0.186,1.763
		c-0.008,3.264-1.45,4.892-4.327,4.884c-2.861,0.016-4.303-1.485-4.326-4.501c-0.008-1.151,0.143-2.068,0.452-2.749
		c0.363-0.78,1.098-1.299,2.204-1.554C392.845,95.563,392.369,95.335,392.114,95.104z M392.996,99.778
		c0.008,0.981,0.131,1.682,0.371,2.099c0.348,0.604,0.955,0.905,1.821,0.905c1.214,0.016,1.917-0.545,2.111-1.682
		c0.085-0.472,0.128-1.021,0.128-1.647c0-0.858-0.139-1.52-0.417-1.983c-0.31-0.525-0.897-0.793-1.763-0.801
		C393.738,96.662,392.988,97.698,392.996,99.778z M393.251,92.25c0.007,1.748,0.661,2.617,1.96,2.609
		c1.323,0.023,1.976-0.92,1.96-2.83c-0.023-1.593-0.669-2.396-1.937-2.412C393.904,89.602,393.243,90.479,393.251,92.25z"/>
	<path d="M407.61,97.817c-0.649,0.387-1.388,0.58-2.215,0.58c-0.534,0.016-1.025-0.065-1.473-0.243
		c-1.044-0.363-1.67-1.188-1.879-2.471c-0.139-0.75-0.205-1.531-0.197-2.343c-0.016-1.849,0.239-3.163,0.765-3.944
		c0.719-1.067,1.914-1.597,3.584-1.589c0.533,0,1.047,0.065,1.542,0.197c0.619,0.17,1.145,0.46,1.578,0.87
		c0.371,0.348,0.626,0.723,0.766,1.125c0.17,0.472,0.274,1.021,0.313,1.646c0.07,1.06,0.104,2.212,0.104,3.457
		c0,1.632-0.046,3.205-0.139,4.721c-0.046,0.773-0.151,1.478-0.313,2.111c-0.124,0.503-0.329,0.924-0.615,1.264
		c-0.742,0.929-1.917,1.393-3.526,1.393c-0.742,0.008-1.404-0.097-1.983-0.313c-0.65-0.216-1.129-0.61-1.438-1.183
		c-0.294-0.487-0.464-1.044-0.51-1.671c-0.039-0.316-0.054-0.653-0.046-1.009v-0.522h2.111v0.511
		c-0.023,1.57,0.653,2.362,2.03,2.378c0.959-0.008,1.601-0.395,1.926-1.16c0.17-0.409,0.286-1.19,0.348-2.343l0.046-1.995
		L407.61,97.817z M408.422,93.039c-0.008-1.083-0.112-1.863-0.313-2.344c-0.309-0.719-0.959-1.078-1.949-1.078
		c-0.943,0.016-1.57,0.406-1.879,1.171c-0.216,0.526-0.325,1.3-0.325,2.32c-0.008,0.541,0.027,1.056,0.104,1.543
		c0.162,1.291,0.854,1.937,2.076,1.937C407.684,96.611,408.445,95.429,408.422,93.039z"/>
	<path d="M417.76,92.969h2.111v0.986l0.51-0.511c0.224-0.216,0.483-0.378,0.777-0.486c0.371-0.14,0.773-0.213,1.206-0.221
		c1.229,0,2.08,0.483,2.552,1.45c0.742-0.943,1.631-1.427,2.667-1.45c0.967,0.008,1.709,0.282,2.227,0.823
		c0.402,0.418,0.619,1.184,0.65,2.297l0.011,1.38v7.122h-2.111v-7.018l-0.012-1.427c-0.016-1.059-0.506-1.585-1.473-1.577
		c-0.758,0-1.252,0.306-1.484,0.916c-0.155,0.364-0.229,1.071-0.221,2.123v6.982h-2.111v-7.006l-0.012-1.403
		c-0.039-1.067-0.542-1.604-1.508-1.612c-0.649-0.008-1.094,0.236-1.334,0.73c-0.155,0.302-0.248,0.611-0.278,0.929
		c-0.046,0.394-0.066,0.854-0.058,1.38v6.982h-2.111V92.969z"/>
	<path d="M437.211,103.687c-0.464,0.441-1.098,0.665-1.902,0.673c-1.655,0-2.586-0.877-2.795-2.633
		c-0.077-0.541-0.112-1.137-0.104-1.786v-3.282l0.012-1.148c0.031-0.89,0.302-1.563,0.812-2.019
		c0.541-0.487,1.229-0.738,2.065-0.754c0.773-0.008,1.446,0.225,2.018,0.696l0.395,0.417v-0.882h2.111v10.405l-0.023,1.461
		c-0.016,0.727-0.054,1.257-0.116,1.589c-0.085,0.526-0.321,0.994-0.708,1.404c-0.649,0.68-1.62,1.024-2.912,1.032
		c-2.25-0.016-3.368-1.11-3.352-3.283v-0.383h1.821v0.453c-0.016,1.105,0.479,1.643,1.484,1.612c0.688,0,1.152-0.171,1.392-0.511
		c0.201-0.278,0.302-0.781,0.302-1.508v-2.088L437.211,103.687z M434.521,99.905l0.023,0.998c0.008,1.253,0.495,1.871,1.462,1.855
		c0.757,0,1.26-0.302,1.508-0.904c0.077-0.209,0.131-0.495,0.162-0.858l0.035-1.044v-3.294c0.015-0.967-0.182-1.64-0.592-2.019
		c-0.24-0.193-0.572-0.294-0.998-0.302c-1.067,0-1.601,0.781-1.601,2.343V99.905z"/>
	<path d="M444.055,87.981h1.45l-2.367,18.164h-1.438L444.055,87.981z"/>
	<path d="M454.773,87.981v16.378h-2.111v-1.044c-0.781,0.866-1.597,1.292-2.447,1.276c-0.688,0.008-1.274-0.188-1.757-0.586
		s-0.791-0.93-0.922-1.595c-0.116-0.526-0.174-1.098-0.174-1.717v-3.793c-0.023-2.784,0.971-4.172,2.981-4.164
		c0.743,0.008,1.338,0.189,1.787,0.545c0.139,0.116,0.317,0.278,0.533,0.487v-5.788H454.773z M449.472,100.335
		c-0.008,0.557,0.007,0.989,0.046,1.299c0.069,0.92,0.545,1.373,1.427,1.357c0.51,0,0.908-0.178,1.194-0.534
		c0.34-0.425,0.514-1.283,0.522-2.575v-3.328c0-0.402-0.035-0.77-0.104-1.103c-0.07-0.332-0.221-0.599-0.453-0.8
		c-0.248-0.201-0.564-0.306-0.951-0.313c-0.99,0.008-1.531,0.561-1.624,1.659c-0.046,0.379-0.065,0.815-0.058,1.311V100.335z"/>
	<path d="M457.406,88.005h2.25v14.511h4.768v1.844h-7.018V88.005z"/>
	<path d="M469.028,101.866v2.493h-2.494v-2.493H469.028z"/>
</g>
</svg>
