<?xml version="1.0" encoding="utf-8"?>
<!-- Generator: Adobe Illustrator 17.0.0, SVG Export Plug-In . SVG Version: 6.00 Build 0)  -->
<!DOCTYPE svg PUBLIC "-//W3C//DTD SVG 1.1//EN" "http://www.w3.org/Graphics/SVG/1.1/DTD/svg11.dtd">
<svg version="1.1" id="Layer_1" xmlns="http://www.w3.org/2000/svg" xmlns:xlink="http://www.w3.org/1999/xlink" x="0px" y="0px"
	 width="293.215px" height="34.001px" viewBox="0 0 293.215 34.001" enable-background="new 0 0 293.215 34.001"
	 xml:space="preserve">
<g>
	<path d="M1.348,1.488L0.574,0.363L1.213,0l0.563,1.295L2.326,0l0.645,0.363L2.197,1.488l1.348-0.141v0.75L2.197,1.957l0.773,1.125
		L2.326,3.445L1.775,2.15L1.213,3.445L0.574,3.082l0.773-1.125L0,2.098v-0.75L1.348,1.488z"/>
	<path d="M9.545,0.117h1.494l1.904,8.262h-1.195l-0.393-1.887H9.146L8.742,8.379H7.641L9.545,0.117z M9.34,5.561h1.805l-0.873-4.4
		L9.34,5.561z"/>
	<path d="M17.309,2.303l-0.006-0.387c-0.027-0.66-0.348-0.988-0.961-0.984c-0.543,0.004-0.896,0.178-1.061,0.521
		c-0.09,0.168-0.139,0.336-0.146,0.504l-0.012,0.68v3.258c0.004,0.59,0.051,0.971,0.141,1.143c0.188,0.352,0.512,0.527,0.973,0.527
		c0.605-0.004,0.947-0.355,1.025-1.055l0.047-0.533V5.695h1.137v0.287l-0.012,0.516c-0.035,0.617-0.207,1.09-0.516,1.418
		c-0.188,0.203-0.408,0.346-0.662,0.428c-0.301,0.102-0.629,0.152-0.984,0.152c-0.305,0.004-0.596-0.029-0.873-0.1
		c-0.938-0.215-1.408-0.986-1.412-2.314V2.789C13.982,2.434,14,2.102,14.039,1.793c0.039-0.379,0.141-0.691,0.305-0.938
		C14.707,0.297,15.357,0.012,16.295,0c1.316,0.012,2.023,0.525,2.121,1.541c0.02,0.191,0.029,0.408,0.029,0.65v0.322h-1.137V2.303z"
		/>
	<path d="M23.285,2.303l-0.006-0.387c-0.027-0.66-0.348-0.988-0.961-0.984c-0.543,0.004-0.896,0.178-1.061,0.521
		c-0.09,0.168-0.139,0.336-0.146,0.504L21.1,2.637v3.258c0.004,0.59,0.051,0.971,0.141,1.143c0.188,0.352,0.512,0.527,0.973,0.527
		c0.605-0.004,0.947-0.355,1.025-1.055l0.047-0.533V5.695h1.137v0.287L24.41,6.498c-0.035,0.617-0.207,1.09-0.516,1.418
		c-0.188,0.203-0.408,0.346-0.662,0.428c-0.301,0.102-0.629,0.152-0.984,0.152c-0.305,0.004-0.596-0.029-0.873-0.1
		c-0.938-0.215-1.408-0.986-1.412-2.314V2.789c-0.004-0.355,0.014-0.688,0.053-0.996c0.039-0.379,0.141-0.691,0.305-0.938
		C20.684,0.297,21.334,0.012,22.271,0c1.316,0.012,2.023,0.525,2.121,1.541c0.02,0.191,0.029,0.408,0.029,0.65v0.322h-1.137V2.303z"
		/>
	<path d="M26.678,0.105h0.732l-1.195,9.176h-0.727L26.678,0.105z"/>
	<path d="M30.129,0.117h1.494l1.904,8.262h-1.195l-0.393-1.887H29.73l-0.404,1.887h-1.102L30.129,0.117z M29.924,5.561h1.805
		l-0.873-4.4L29.924,5.561z"/>
	<path d="M34.74,0.117h1.137v3.504h2.396V0.117h1.137v8.262h-1.137V4.553h-2.396v3.826H34.74V0.117z"/>
	<path d="M42.527,0.117h1.494l1.904,8.262H44.73l-0.393-1.887h-2.209l-0.404,1.887h-1.102L42.527,0.117z M42.322,5.561h1.805
		l-0.873-4.4L42.322,5.561z"/>
	<path d="M47.115,2.625h1.26v1.26h-1.26V2.625z M48.375,7.119v1.26h-1.26v-1.26H48.375z"/>
	<path d="M54.035,0.117h1.494l1.904,8.262h-1.195l-0.393-1.887h-2.209l-0.404,1.887h-1.102L54.035,0.117z M53.83,5.561h1.805
		l-0.873-4.4L53.83,5.561z"/>
	<path d="M58.324,2.625h1.066v0.498l0.258-0.258c0.113-0.109,0.244-0.191,0.393-0.246c0.188-0.07,0.391-0.107,0.609-0.111
		c0.621,0,1.051,0.244,1.289,0.732c0.375-0.477,0.824-0.721,1.348-0.732c0.488,0.004,0.863,0.143,1.125,0.416
		c0.203,0.211,0.313,0.598,0.328,1.16l0.006,0.697v3.598H63.68V4.834l-0.006-0.721c-0.008-0.535-0.256-0.801-0.744-0.797
		c-0.383,0-0.633,0.154-0.75,0.463c-0.078,0.184-0.115,0.541-0.111,1.072v3.527h-1.066V4.84l-0.006-0.709
		c-0.02-0.539-0.273-0.811-0.762-0.814c-0.328-0.004-0.553,0.119-0.674,0.369c-0.078,0.152-0.125,0.309-0.141,0.469
		c-0.023,0.199-0.033,0.432-0.029,0.697v3.527h-1.066V2.625z"/>
	<path d="M66.703,6.498c-0.004,0.391,0.027,0.664,0.094,0.82c0.102,0.238,0.332,0.361,0.691,0.369c0.477,0,0.744-0.219,0.803-0.656
		l0.023-0.246V6.65h1.066v0.135l-0.018,0.398c-0.086,0.879-0.717,1.316-1.893,1.313c-0.273,0.004-0.525-0.027-0.756-0.094
		C66.41,8.324,66.172,8.174,66,7.951c-0.234-0.281-0.355-0.783-0.363-1.506V4.816c-0.004-0.805,0.107-1.365,0.334-1.682
		c0.301-0.418,0.822-0.627,1.564-0.627C68.676,2.52,69.283,3,69.357,3.949c0.016,0.184,0.023,0.396,0.023,0.639v1.289h-2.678V6.498z
		 M66.703,5.068h1.611V4.406c-0.004-0.715-0.271-1.078-0.803-1.09c-0.34,0.008-0.572,0.15-0.697,0.428
		c-0.074,0.16-0.111,0.445-0.111,0.855V5.068z"/>
	<path d="M71.52,2.625v0.709c0.164-0.285,0.355-0.488,0.574-0.609c0.145-0.082,0.285-0.139,0.422-0.17l0.34-0.047v1.055
		l-0.357,0.035c-0.383,0.047-0.646,0.207-0.791,0.48c-0.125,0.254-0.188,0.629-0.188,1.125v3.176h-1.066V2.625H71.52z"/>
	<path d="M74.824,0.105v1.078h-1.148V0.105H74.824z M73.717,2.625h1.066v5.754h-1.066V2.625z"/>
	<path d="M75.949,4.611c-0.004-0.75,0.111-1.27,0.346-1.559c0.289-0.355,0.785-0.537,1.488-0.545
		c1.125,0.008,1.689,0.479,1.693,1.412v0.322V4.4H78.41V4.242l-0.012-0.287c-0.039-0.422-0.248-0.635-0.627-0.639
		c-0.488-0.004-0.738,0.256-0.75,0.779l-0.006,0.434v1.822l0.012,0.586c0.02,0.496,0.26,0.746,0.721,0.75
		c0.477-0.004,0.721-0.297,0.732-0.879V6.574h1.066v0.264c-0.016,1.121-0.602,1.674-1.758,1.658c-0.352,0-0.664-0.049-0.938-0.146
		c-0.598-0.195-0.898-0.832-0.902-1.91V4.611z"/>
	<path d="M80.76,3.633c0.043-0.227,0.147-0.431,0.313-0.612s0.362-0.308,0.589-0.378c0.27-0.086,0.551-0.131,0.844-0.135
		c0.34,0,0.648,0.047,0.926,0.141c0.348,0.113,0.602,0.363,0.762,0.75c0.082,0.203,0.123,0.564,0.123,1.084v3.896H83.25V7.758
		c-0.195,0.293-0.375,0.482-0.539,0.568C82.5,8.443,82.248,8.5,81.955,8.496C81.74,8.5,81.549,8.469,81.381,8.402
		c-0.547-0.188-0.816-0.695-0.809-1.523c0-0.348,0.035-0.66,0.105-0.938c0.117-0.48,0.484-0.801,1.102-0.961
		c0.246-0.066,0.5-0.109,0.762-0.129l0.709-0.023V4.154c-0.008-0.57-0.246-0.85-0.715-0.838c-0.285,0.004-0.488,0.096-0.609,0.275
		c-0.086,0.129-0.141,0.352-0.164,0.668h-1.066C80.699,4.018,80.721,3.809,80.76,3.633z M83.25,5.637h-0.311
		c-0.883,0.043-1.316,0.445-1.301,1.207c-0.012,0.559,0.207,0.84,0.656,0.844c0.379,0.008,0.654-0.189,0.826-0.592
		c0.066-0.152,0.105-0.311,0.117-0.475l0.012-0.457V5.637z"/>
	<path d="M85.436,2.625h1.066v0.504c0.313-0.414,0.748-0.621,1.307-0.621c0.227,0,0.439,0.041,0.639,0.123
		c0.453,0.184,0.693,0.549,0.721,1.096l0.012,0.738v3.914h-1.066V4.752l-0.012-0.58c-0.02-0.57-0.268-0.855-0.744-0.855
		c-0.359,0.008-0.598,0.152-0.715,0.434c-0.066,0.156-0.107,0.325-0.123,0.507s-0.021,0.374-0.018,0.577v3.545h-1.066V2.625z"/>
	<path d="M96.539,2.303l-0.006-0.387c-0.027-0.66-0.348-0.988-0.961-0.984c-0.543,0.004-0.896,0.178-1.061,0.521
		c-0.09,0.168-0.139,0.336-0.146,0.504l-0.012,0.68v3.258c0.004,0.59,0.051,0.971,0.141,1.143c0.188,0.352,0.512,0.527,0.973,0.527
		c0.605-0.004,0.947-0.355,1.025-1.055l0.047-0.533V5.695h1.137v0.287l-0.012,0.516c-0.035,0.617-0.207,1.09-0.516,1.418
		c-0.188,0.203-0.408,0.346-0.662,0.428c-0.301,0.102-0.629,0.152-0.984,0.152c-0.305,0.004-0.596-0.029-0.873-0.1
		c-0.938-0.215-1.408-0.986-1.412-2.314V2.789c-0.004-0.355,0.014-0.688,0.053-0.996c0.039-0.379,0.141-0.691,0.305-0.938
		C93.938,0.297,94.588,0.012,95.525,0c1.316,0.012,2.023,0.525,2.121,1.541c0.02,0.191,0.029,0.408,0.029,0.65v0.322h-1.137V2.303z"
		/>
	<path d="M98.936,4.822C98.939,4.225,99,3.777,99.117,3.48c0.184-0.445,0.514-0.736,0.99-0.873c0.223-0.066,0.457-0.1,0.703-0.1
		c0.242,0,0.477,0.033,0.703,0.1c0.297,0.086,0.531,0.229,0.703,0.428c0.301,0.348,0.455,0.943,0.463,1.787v1.441
		c0.004,0.762-0.113,1.301-0.352,1.617c-0.305,0.414-0.803,0.619-1.494,0.615c-1.098,0.012-1.713-0.457-1.846-1.406
		c-0.039-0.25-0.057-0.525-0.053-0.826V4.822z M100.002,6.264l0.018,0.557c0.035,0.582,0.303,0.871,0.803,0.867
		c0.348-0.008,0.578-0.176,0.691-0.504c0.066-0.191,0.1-0.498,0.1-0.92V4.729c0-0.949-0.27-1.42-0.809-1.412
		c-0.484-0.008-0.744,0.281-0.779,0.867l-0.023,0.545V6.264z"/>
	<path d="M104.883,0.105v8.273h-1.066V0.105H104.883z"/>
	<path d="M107.098,0.105v8.273h-1.066V0.105H107.098z"/>
	<path d="M109.195,6.498c-0.004,0.391,0.027,0.664,0.094,0.82c0.102,0.238,0.332,0.361,0.691,0.369c0.477,0,0.744-0.219,0.803-0.656
		l0.023-0.246V6.65h1.066v0.135l-0.018,0.398c-0.086,0.879-0.717,1.316-1.893,1.313c-0.273,0.004-0.525-0.027-0.756-0.094
		c-0.305-0.078-0.543-0.229-0.715-0.451c-0.234-0.281-0.355-0.783-0.363-1.506V4.816c-0.004-0.805,0.107-1.365,0.334-1.682
		c0.301-0.418,0.822-0.627,1.564-0.627c1.141,0.012,1.748,0.492,1.822,1.441c0.016,0.184,0.023,0.396,0.023,0.639v1.289h-2.678
		V6.498z M109.195,5.068h1.611V4.406c-0.004-0.715-0.271-1.078-0.803-1.09c-0.34,0.008-0.572,0.15-0.697,0.428
		c-0.074,0.16-0.111,0.445-0.111,0.855V5.068z"/>
	<path d="M115.289,8.039c-0.234,0.223-0.555,0.336-0.961,0.34c-0.836,0-1.307-0.443-1.412-1.33
		c-0.039-0.273-0.057-0.574-0.053-0.902V4.488l0.006-0.58c0.016-0.449,0.152-0.789,0.41-1.02c0.273-0.246,0.621-0.373,1.043-0.381
		c0.391-0.004,0.73,0.113,1.02,0.352l0.199,0.211V2.625h1.066v5.256l-0.012,0.738c-0.008,0.367-0.027,0.635-0.059,0.803
		c-0.043,0.266-0.162,0.502-0.357,0.709c-0.328,0.344-0.818,0.518-1.471,0.521c-1.137-0.008-1.701-0.561-1.693-1.658V8.801h0.92
		v0.229c-0.008,0.559,0.242,0.83,0.75,0.814c0.348,0,0.582-0.086,0.703-0.258c0.102-0.141,0.152-0.395,0.152-0.762V7.77
		L115.289,8.039z M113.93,6.129l0.012,0.504c0.004,0.633,0.25,0.945,0.738,0.938c0.383,0,0.637-0.152,0.762-0.457
		c0.039-0.105,0.066-0.25,0.082-0.434l0.018-0.527V4.488c0.008-0.488-0.092-0.828-0.299-1.02c-0.121-0.098-0.289-0.148-0.504-0.152
		c-0.539,0-0.809,0.395-0.809,1.184V6.129z"/>
	<path d="M118.711,6.498c-0.004,0.391,0.027,0.664,0.094,0.82c0.102,0.238,0.332,0.361,0.691,0.369c0.477,0,0.744-0.219,0.803-0.656
		l0.023-0.246V6.65h1.066v0.135l-0.018,0.398c-0.086,0.879-0.717,1.316-1.893,1.313c-0.273,0.004-0.525-0.027-0.756-0.094
		c-0.305-0.078-0.543-0.229-0.715-0.451c-0.234-0.281-0.355-0.783-0.363-1.506V4.816c-0.004-0.805,0.107-1.365,0.334-1.682
		c0.301-0.418,0.822-0.627,1.564-0.627c1.141,0.012,1.748,0.492,1.822,1.441c0.016,0.184,0.023,0.396,0.023,0.639v1.289h-2.678
		V6.498z M118.711,5.068h1.611V4.406c-0.004-0.715-0.271-1.078-0.803-1.09c-0.34,0.008-0.572,0.15-0.697,0.428
		c-0.074,0.16-0.111,0.445-0.111,0.855V5.068z"/>
	<path d="M125.051,4.822c0.004-0.598,0.064-1.045,0.182-1.342c0.184-0.445,0.514-0.736,0.99-0.873c0.223-0.066,0.457-0.1,0.703-0.1
		c0.242,0,0.477,0.033,0.703,0.1c0.297,0.086,0.531,0.229,0.703,0.428c0.301,0.348,0.455,0.943,0.463,1.787v1.441
		c0.004,0.762-0.113,1.301-0.352,1.617c-0.305,0.414-0.803,0.619-1.494,0.615c-1.098,0.012-1.713-0.457-1.846-1.406
		c-0.039-0.25-0.057-0.525-0.053-0.826V4.822z M126.117,6.264l0.018,0.557c0.035,0.582,0.303,0.871,0.803,0.867
		c0.348-0.008,0.578-0.176,0.691-0.504c0.066-0.191,0.1-0.498,0.1-0.92V4.729c0-0.949-0.27-1.42-0.809-1.412
		c-0.484-0.008-0.744,0.281-0.779,0.867l-0.023,0.545V6.264z"/>
	<path d="M129.779,2.625h0.756V1.523c0.004-0.5,0.084-0.857,0.24-1.072c0.203-0.277,0.537-0.416,1.002-0.416
		c0.184,0.004,0.443,0.023,0.779,0.059v0.762l-0.299-0.012c-0.434-0.004-0.652,0.234-0.656,0.715v1.066h0.955v0.809h-0.955v4.945
		h-1.066V3.434h-0.756V2.625z"/>
	<path d="M139.693,2.303l-0.006-0.387c-0.027-0.66-0.348-0.988-0.961-0.984c-0.543,0.004-0.896,0.178-1.061,0.521
		c-0.09,0.168-0.139,0.336-0.146,0.504l-0.012,0.68v3.258c0.004,0.59,0.051,0.971,0.141,1.143c0.188,0.352,0.512,0.527,0.973,0.527
		c0.605-0.004,0.947-0.355,1.025-1.055l0.047-0.533V5.695h1.137v0.287l-0.012,0.516c-0.035,0.617-0.207,1.09-0.516,1.418
		c-0.188,0.203-0.408,0.346-0.662,0.428c-0.301,0.102-0.629,0.152-0.984,0.152c-0.305,0.004-0.596-0.029-0.873-0.1
		c-0.938-0.215-1.408-0.986-1.412-2.314V2.789c-0.004-0.355,0.014-0.688,0.053-0.996c0.039-0.379,0.141-0.691,0.305-0.938
		c0.363-0.559,1.014-0.844,1.951-0.855c1.316,0.012,2.023,0.525,2.121,1.541c0.02,0.191,0.029,0.408,0.029,0.65v0.322h-1.137V2.303z
		"/>
	<path d="M142.283,3.633c0.043-0.227,0.147-0.431,0.313-0.612s0.362-0.308,0.589-0.378c0.27-0.086,0.551-0.131,0.844-0.135
		c0.34,0,0.648,0.047,0.926,0.141c0.348,0.113,0.602,0.363,0.762,0.75c0.082,0.203,0.123,0.564,0.123,1.084v3.896h-1.066V7.758
		c-0.195,0.293-0.375,0.482-0.539,0.568c-0.211,0.117-0.463,0.174-0.756,0.17c-0.215,0.004-0.406-0.027-0.574-0.094
		c-0.547-0.188-0.816-0.695-0.809-1.523c0-0.348,0.035-0.66,0.105-0.938c0.117-0.48,0.484-0.801,1.102-0.961
		c0.246-0.066,0.5-0.109,0.762-0.129l0.709-0.023V4.154c-0.008-0.57-0.246-0.85-0.715-0.838c-0.285,0.004-0.488,0.096-0.609,0.275
		c-0.086,0.129-0.141,0.352-0.164,0.668h-1.066C142.223,4.018,142.244,3.809,142.283,3.633z M144.773,5.637h-0.311
		c-0.883,0.043-1.316,0.445-1.301,1.207c-0.012,0.559,0.207,0.84,0.656,0.844c0.379,0.008,0.654-0.189,0.826-0.592
		c0.066-0.152,0.105-0.311,0.117-0.475l0.012-0.457V5.637z"/>
	<path d="M148.09,2.625v0.709c0.164-0.285,0.355-0.488,0.574-0.609c0.145-0.082,0.285-0.139,0.422-0.17l0.34-0.047v1.055
		l-0.357,0.035c-0.383,0.047-0.646,0.207-0.791,0.48c-0.125,0.254-0.188,0.629-0.188,1.125v3.176h-1.066V2.625H148.09z"/>
	<path d="M153.809,0.105v8.273h-1.066V7.852c-0.395,0.438-0.807,0.652-1.236,0.645c-0.348,0.004-0.644-0.095-0.888-0.296
		s-0.399-0.47-0.466-0.806c-0.059-0.266-0.088-0.555-0.088-0.867V4.611c-0.012-1.406,0.49-2.107,1.506-2.104
		c0.375,0.004,0.676,0.096,0.902,0.275c0.07,0.059,0.16,0.141,0.27,0.246V0.105H153.809z M151.131,6.346
		c-0.004,0.281,0.004,0.5,0.023,0.656c0.035,0.465,0.275,0.693,0.721,0.686c0.258,0,0.459-0.09,0.604-0.27
		c0.172-0.215,0.26-0.648,0.264-1.301V4.436c0-0.203-0.018-0.389-0.053-0.557s-0.111-0.303-0.229-0.404
		c-0.125-0.102-0.285-0.154-0.48-0.158c-0.5,0.004-0.773,0.283-0.82,0.838c-0.023,0.191-0.033,0.412-0.029,0.662V6.346z"/>
	<path d="M156.041,0.105v1.078h-1.148V0.105H156.041z M154.934,2.625H156v5.754h-1.066V2.625z"/>
	<path d="M157.137,4.822c0.004-0.598,0.064-1.045,0.182-1.342c0.184-0.445,0.514-0.736,0.99-0.873c0.223-0.066,0.457-0.1,0.703-0.1
		c0.242,0,0.477,0.033,0.703,0.1c0.297,0.086,0.531,0.229,0.703,0.428c0.301,0.348,0.455,0.943,0.463,1.787v1.441
		c0.004,0.762-0.113,1.301-0.352,1.617c-0.305,0.414-0.803,0.619-1.494,0.615c-1.098,0.012-1.713-0.457-1.846-1.406
		c-0.039-0.25-0.057-0.525-0.053-0.826V4.822z M158.203,6.264l0.018,0.557c0.035,0.582,0.303,0.871,0.803,0.867
		c0.348-0.008,0.578-0.176,0.691-0.504c0.066-0.191,0.1-0.498,0.1-0.92V4.729c0-0.949-0.27-1.42-0.809-1.412
		c-0.484-0.008-0.744,0.281-0.779,0.867l-0.023,0.545V6.264z"/>
	<path d="M163.084,0.105v8.273h-1.066V0.105H163.084z"/>
	<path d="M164.221,4.822c0.004-0.598,0.064-1.045,0.182-1.342c0.184-0.445,0.514-0.736,0.99-0.873c0.223-0.066,0.457-0.1,0.703-0.1
		c0.242,0,0.477,0.033,0.703,0.1c0.297,0.086,0.531,0.229,0.703,0.428c0.301,0.348,0.455,0.943,0.463,1.787v1.441
		c0.004,0.762-0.113,1.301-0.352,1.617c-0.305,0.414-0.803,0.619-1.494,0.615c-1.098,0.012-1.713-0.457-1.846-1.406
		c-0.039-0.25-0.057-0.525-0.053-0.826V4.822z M165.287,6.264l0.018,0.557c0.035,0.582,0.303,0.871,0.803,0.867
		c0.348-0.008,0.578-0.176,0.691-0.504c0.066-0.191,0.1-0.498,0.1-0.92V4.729c0-0.949-0.27-1.42-0.809-1.412
		c-0.484-0.008-0.744,0.281-0.779,0.867l-0.023,0.545V6.264z"/>
	<path d="M171.498,8.039c-0.234,0.223-0.555,0.336-0.961,0.34c-0.836,0-1.307-0.443-1.412-1.33
		c-0.039-0.273-0.057-0.574-0.053-0.902V4.488l0.006-0.58c0.016-0.449,0.152-0.789,0.41-1.02c0.273-0.246,0.621-0.373,1.043-0.381
		c0.391-0.004,0.73,0.113,1.02,0.352l0.199,0.211V2.625h1.066v5.256l-0.012,0.738c-0.008,0.367-0.027,0.635-0.059,0.803
		c-0.043,0.266-0.162,0.502-0.357,0.709c-0.328,0.344-0.818,0.518-1.471,0.521c-1.137-0.008-1.701-0.561-1.693-1.658V8.801h0.92
		v0.229c-0.008,0.559,0.242,0.83,0.75,0.814c0.348,0,0.582-0.086,0.703-0.258c0.102-0.141,0.152-0.395,0.152-0.762V7.77
		L171.498,8.039z M170.139,6.129l0.012,0.504c0.004,0.633,0.25,0.945,0.738,0.938c0.383,0,0.637-0.152,0.762-0.457
		c0.039-0.105,0.066-0.25,0.082-0.434l0.018-0.527V4.488c0.008-0.488-0.092-0.828-0.299-1.02c-0.121-0.098-0.289-0.148-0.504-0.152
		c-0.539,0-0.809,0.395-0.809,1.184V6.129z"/>
	<path d="M174.85,2.625l0.979,4.295l1.055-4.295h1.031l-2.18,7.887h-1.008l0.598-2.016l-1.57-5.871H174.85z"/>
	<path d="M179.824,0.105h0.732l-1.195,9.176h-0.727L179.824,0.105z"/>
	<path d="M183.275,0.117h1.494l1.904,8.262h-1.195l-0.393-1.887h-2.209l-0.404,1.887h-1.102L183.275,0.117z M183.07,5.561h1.805
		l-0.873-4.4L183.07,5.561z"/>
	<path d="M187.564,2.625h1.066v0.498l0.258-0.258c0.113-0.109,0.244-0.191,0.393-0.246c0.188-0.07,0.391-0.107,0.609-0.111
		c0.621,0,1.051,0.244,1.289,0.732c0.375-0.477,0.824-0.721,1.348-0.732c0.488,0.004,0.863,0.143,1.125,0.416
		c0.203,0.211,0.313,0.598,0.328,1.16l0.006,0.697v3.598h-1.066V4.834l-0.006-0.721c-0.008-0.535-0.256-0.801-0.744-0.797
		c-0.383,0-0.633,0.154-0.75,0.463c-0.078,0.184-0.115,0.541-0.111,1.072v3.527h-1.066V4.84l-0.006-0.709
		c-0.02-0.539-0.273-0.811-0.762-0.814c-0.328-0.004-0.553,0.119-0.674,0.369c-0.078,0.152-0.125,0.309-0.141,0.469
		c-0.023,0.199-0.033,0.432-0.029,0.697v3.527h-1.066V2.625z"/>
	<path d="M195.943,6.498c-0.004,0.391,0.027,0.664,0.094,0.82c0.102,0.238,0.332,0.361,0.691,0.369c0.477,0,0.744-0.219,0.803-0.656
		l0.023-0.246V6.65h1.066v0.135l-0.018,0.398c-0.086,0.879-0.717,1.316-1.893,1.313c-0.273,0.004-0.525-0.027-0.756-0.094
		c-0.305-0.078-0.543-0.229-0.715-0.451c-0.234-0.281-0.355-0.783-0.363-1.506V4.816c-0.004-0.805,0.107-1.365,0.334-1.682
		c0.301-0.418,0.822-0.627,1.564-0.627c1.141,0.012,1.748,0.492,1.822,1.441c0.016,0.184,0.023,0.396,0.023,0.639v1.289h-2.678
		V6.498z M195.943,5.068h1.611V4.406c-0.004-0.715-0.271-1.078-0.803-1.09c-0.34,0.008-0.572,0.15-0.697,0.428
		c-0.074,0.16-0.111,0.445-0.111,0.855V5.068z"/>
	<path d="M200.76,2.625v0.709c0.164-0.285,0.355-0.488,0.574-0.609c0.145-0.082,0.285-0.139,0.422-0.17l0.34-0.047v1.055
		l-0.357,0.035c-0.383,0.047-0.646,0.207-0.791,0.48c-0.125,0.254-0.188,0.629-0.188,1.125v3.176h-1.066V2.625H200.76z"/>
	<path d="M204.064,0.105v1.078h-1.148V0.105H204.064z M202.957,2.625h1.066v5.754h-1.066V2.625z"/>
	<path d="M205.189,4.611c-0.004-0.75,0.111-1.27,0.346-1.559c0.289-0.355,0.785-0.537,1.488-0.545
		c1.125,0.008,1.689,0.479,1.693,1.412v0.322V4.4h-1.066V4.242l-0.012-0.287c-0.039-0.422-0.248-0.635-0.627-0.639
		c-0.488-0.004-0.738,0.256-0.75,0.779l-0.006,0.434v1.822l0.012,0.586c0.02,0.496,0.26,0.746,0.721,0.75
		c0.477-0.004,0.721-0.297,0.732-0.879V6.574h1.066v0.264c-0.016,1.121-0.602,1.674-1.758,1.658c-0.352,0-0.664-0.049-0.938-0.146
		c-0.598-0.195-0.898-0.832-0.902-1.91V4.611z"/>
	<path d="M210,3.633c0.043-0.227,0.147-0.431,0.313-0.612s0.362-0.308,0.589-0.378c0.27-0.086,0.551-0.131,0.844-0.135
		c0.34,0,0.648,0.047,0.926,0.141c0.348,0.113,0.602,0.363,0.762,0.75c0.082,0.203,0.123,0.564,0.123,1.084v3.896h-1.066V7.758
		c-0.195,0.293-0.375,0.482-0.539,0.568c-0.211,0.117-0.463,0.174-0.756,0.17c-0.215,0.004-0.406-0.027-0.574-0.094
		c-0.547-0.188-0.816-0.695-0.809-1.523c0-0.348,0.035-0.66,0.105-0.938c0.117-0.48,0.484-0.801,1.102-0.961
		c0.246-0.066,0.5-0.109,0.762-0.129l0.709-0.023V4.154c-0.008-0.57-0.246-0.85-0.715-0.838c-0.285,0.004-0.488,0.096-0.609,0.275
		c-0.086,0.129-0.141,0.352-0.164,0.668h-1.066C209.939,4.018,209.961,3.809,210,3.633z M212.49,5.637h-0.311
		c-0.883,0.043-1.316,0.445-1.301,1.207c-0.012,0.559,0.207,0.84,0.656,0.844c0.379,0.008,0.654-0.189,0.826-0.592
		c0.066-0.152,0.105-0.311,0.117-0.475l0.012-0.457V5.637z"/>
	<path d="M214.676,2.625h1.066v0.504c0.313-0.414,0.748-0.621,1.307-0.621c0.227,0,0.439,0.041,0.639,0.123
		c0.453,0.184,0.693,0.549,0.721,1.096l0.012,0.738v3.914h-1.066V4.752l-0.012-0.58c-0.02-0.57-0.268-0.855-0.744-0.855
		c-0.359,0.008-0.598,0.152-0.715,0.434c-0.066,0.156-0.107,0.325-0.123,0.507s-0.021,0.374-0.018,0.577v3.545h-1.066V2.625z"/>
	<path d="M222.404,0.117h1.137v3.504h2.396V0.117h1.137v8.262h-1.137V4.553h-2.396v3.826h-1.137V0.117z"/>
	<path d="M229.359,6.498c-0.004,0.391,0.027,0.664,0.094,0.82c0.102,0.238,0.332,0.361,0.691,0.369c0.477,0,0.744-0.219,0.803-0.656
		l0.023-0.246V6.65h1.066v0.135l-0.018,0.398c-0.086,0.879-0.717,1.316-1.893,1.313c-0.273,0.004-0.525-0.027-0.756-0.094
		c-0.305-0.078-0.543-0.229-0.715-0.451c-0.234-0.281-0.355-0.783-0.363-1.506V4.816c-0.004-0.805,0.107-1.365,0.334-1.682
		c0.301-0.418,0.822-0.627,1.564-0.627c1.141,0.012,1.748,0.492,1.822,1.441c0.016,0.184,0.023,0.396,0.023,0.639v1.289h-2.678
		V6.498z M229.359,5.068h1.611V4.406c-0.004-0.715-0.271-1.078-0.803-1.09c-0.34,0.008-0.572,0.15-0.697,0.428
		c-0.074,0.16-0.111,0.445-0.111,0.855V5.068z"/>
	<path d="M233.238,3.633c0.043-0.227,0.147-0.431,0.313-0.612s0.362-0.308,0.589-0.378c0.27-0.086,0.551-0.131,0.844-0.135
		c0.34,0,0.648,0.047,0.926,0.141c0.348,0.113,0.602,0.363,0.762,0.75c0.082,0.203,0.123,0.564,0.123,1.084v3.896h-1.066V7.758
		c-0.195,0.293-0.375,0.482-0.539,0.568c-0.211,0.117-0.463,0.174-0.756,0.17c-0.215,0.004-0.406-0.027-0.574-0.094
		c-0.547-0.188-0.816-0.695-0.809-1.523c0-0.348,0.035-0.66,0.105-0.938c0.117-0.48,0.484-0.801,1.102-0.961
		c0.246-0.066,0.5-0.109,0.762-0.129l0.709-0.023V4.154c-0.008-0.57-0.246-0.85-0.715-0.838c-0.285,0.004-0.488,0.096-0.609,0.275
		c-0.086,0.129-0.141,0.352-0.164,0.668h-1.066C233.178,4.018,233.199,3.809,233.238,3.633z M235.729,5.637h-0.311
		c-0.883,0.043-1.316,0.445-1.301,1.207c-0.012,0.559,0.207,0.84,0.656,0.844c0.379,0.008,0.654-0.189,0.826-0.592
		c0.066-0.152,0.105-0.311,0.117-0.475l0.012-0.457V5.637z"/>
	<path d="M239.045,2.625v0.709c0.164-0.285,0.355-0.488,0.574-0.609c0.145-0.082,0.285-0.139,0.422-0.17l0.34-0.047v1.055
		l-0.357,0.035c-0.383,0.047-0.646,0.207-0.791,0.48c-0.125,0.254-0.188,0.629-0.188,1.125v3.176h-1.066V2.625H239.045z"/>
	<path d="M241.816,2.625V1.594l1.066-0.48v1.512h0.867v0.809h-0.867v3.381l0.006,0.381c0.012,0.305,0.205,0.465,0.58,0.48
		l0.281,0.012V8.42l-0.352,0.053c-0.133,0.02-0.268,0.027-0.404,0.023c-0.73,0-1.117-0.293-1.16-0.879l-0.018-0.633V3.434h-0.756
		V2.625H241.816z"/>
	<path d="M249.217,0.117h1.494l1.904,8.262h-1.195l-0.393-1.887h-2.209l-0.404,1.887h-1.102L249.217,0.117z M249.012,5.561h1.805
		l-0.873-4.4L249.012,5.561z"/>
	<path d="M254.326,6.627v0.211l0.018,0.234c0.066,0.422,0.301,0.627,0.703,0.615c0.477-0.004,0.723-0.234,0.738-0.691
		c0-0.156-0.039-0.295-0.117-0.416c-0.105-0.148-0.238-0.289-0.398-0.422l-0.533-0.398l-0.563-0.422
		c-0.254-0.199-0.438-0.387-0.551-0.563c-0.141-0.215-0.209-0.488-0.205-0.82c0-0.961,0.561-1.443,1.682-1.447
		c0.293,0,0.564,0.039,0.814,0.117c0.492,0.152,0.766,0.498,0.82,1.037l0.018,0.439v0.188h-1.066V4.107V3.896
		c-0.035-0.379-0.24-0.572-0.615-0.58c-0.383-0.004-0.578,0.195-0.586,0.598c0,0.148,0.033,0.271,0.1,0.369
		c0.086,0.129,0.225,0.266,0.416,0.41l0.662,0.486c0.582,0.41,0.938,0.76,1.066,1.049c0.078,0.191,0.119,0.41,0.123,0.656
		c-0.008,0.52-0.18,0.924-0.516,1.213c-0.309,0.262-0.732,0.395-1.271,0.398c-1.09-0.004-1.686-0.461-1.787-1.371l-0.018-0.293
		V6.627H254.326z"/>
	<path d="M258.75,6.627v0.211l0.018,0.234c0.066,0.422,0.301,0.627,0.703,0.615c0.477-0.004,0.723-0.234,0.738-0.691
		c0-0.156-0.039-0.295-0.117-0.416c-0.105-0.148-0.238-0.289-0.398-0.422L259.16,5.76l-0.563-0.422
		c-0.254-0.199-0.438-0.387-0.551-0.563c-0.141-0.215-0.209-0.488-0.205-0.82c0-0.961,0.561-1.443,1.682-1.447
		c0.293,0,0.564,0.039,0.814,0.117c0.492,0.152,0.766,0.498,0.82,1.037l0.018,0.439v0.188h-1.066V4.107V3.896
		c-0.035-0.379-0.24-0.572-0.615-0.58c-0.383-0.004-0.578,0.195-0.586,0.598c0,0.148,0.033,0.271,0.1,0.369
		c0.086,0.129,0.225,0.266,0.416,0.41l0.662,0.486c0.582,0.41,0.938,0.76,1.066,1.049c0.078,0.191,0.119,0.41,0.123,0.656
		c-0.008,0.52-0.18,0.924-0.516,1.213c-0.309,0.262-0.732,0.395-1.271,0.398c-1.09-0.004-1.686-0.461-1.787-1.371l-0.018-0.293
		V6.627H258.75z"/>
	<path d="M262.248,4.822c0.004-0.598,0.064-1.045,0.182-1.342c0.184-0.445,0.514-0.736,0.99-0.873c0.223-0.066,0.457-0.1,0.703-0.1
		c0.242,0,0.477,0.033,0.703,0.1c0.297,0.086,0.531,0.229,0.703,0.428c0.301,0.348,0.455,0.943,0.463,1.787v1.441
		c0.004,0.762-0.113,1.301-0.352,1.617c-0.305,0.414-0.803,0.619-1.494,0.615c-1.098,0.012-1.713-0.457-1.846-1.406
		c-0.039-0.25-0.057-0.525-0.053-0.826V4.822z M263.314,6.264l0.018,0.557c0.035,0.582,0.303,0.871,0.803,0.867
		c0.348-0.008,0.578-0.176,0.691-0.504c0.066-0.191,0.1-0.498,0.1-0.92V4.729c0-0.949-0.27-1.42-0.809-1.412
		c-0.484-0.008-0.744,0.281-0.779,0.867l-0.023,0.545V6.264z"/>
	<path d="M267.146,4.611c-0.004-0.75,0.111-1.27,0.346-1.559c0.289-0.355,0.785-0.537,1.488-0.545
		c1.125,0.008,1.689,0.479,1.693,1.412v0.322V4.4h-1.066V4.242l-0.012-0.287c-0.039-0.422-0.248-0.635-0.627-0.639
		c-0.488-0.004-0.738,0.256-0.75,0.779l-0.006,0.434v1.822l0.012,0.586c0.02,0.496,0.26,0.746,0.721,0.75
		c0.477-0.004,0.721-0.297,0.732-0.879V6.574h1.066v0.264c-0.016,1.121-0.602,1.674-1.758,1.658c-0.352,0-0.664-0.049-0.938-0.146
		c-0.598-0.195-0.898-0.832-0.902-1.91V4.611z"/>
	<path d="M272.883,0.105v1.078h-1.148V0.105H272.883z M271.775,2.625h1.066v5.754h-1.066V2.625z"/>
	<path d="M274.172,3.633c0.043-0.227,0.147-0.431,0.313-0.612s0.362-0.308,0.589-0.378c0.27-0.086,0.551-0.131,0.844-0.135
		c0.34,0,0.648,0.047,0.926,0.141c0.348,0.113,0.602,0.363,0.762,0.75c0.082,0.203,0.123,0.564,0.123,1.084v3.896h-1.066V7.758
		c-0.195,0.293-0.375,0.482-0.539,0.568c-0.211,0.117-0.463,0.174-0.756,0.17c-0.215,0.004-0.406-0.027-0.574-0.094
		c-0.547-0.188-0.816-0.695-0.809-1.523c0-0.348,0.035-0.66,0.105-0.938c0.117-0.48,0.484-0.801,1.102-0.961
		c0.246-0.066,0.5-0.109,0.762-0.129l0.709-0.023V4.154c-0.008-0.57-0.246-0.85-0.715-0.838c-0.285,0.004-0.488,0.096-0.609,0.275
		c-0.086,0.129-0.141,0.352-0.164,0.668h-1.066C274.111,4.018,274.133,3.809,274.172,3.633z M276.662,5.637h-0.311
		c-0.883,0.043-1.316,0.445-1.301,1.207c-0.012,0.559,0.207,0.84,0.656,0.844c0.379,0.008,0.654-0.189,0.826-0.592
		c0.066-0.152,0.105-0.311,0.117-0.475l0.012-0.457V5.637z"/>
	<path d="M279.434,2.625V1.594l1.066-0.48v1.512h0.867v0.809H280.5v3.381l0.006,0.381c0.012,0.305,0.205,0.465,0.58,0.48
		l0.281,0.012V8.42l-0.352,0.053c-0.133,0.02-0.268,0.027-0.404,0.023c-0.73,0-1.117-0.293-1.16-0.879l-0.018-0.633V3.434h-0.756
		V2.625H279.434z"/>
	<path d="M283.506,0.105v1.078h-1.148V0.105H283.506z M282.398,2.625h1.066v5.754h-1.066V2.625z"/>
	<path d="M284.602,4.822c0.004-0.598,0.064-1.045,0.182-1.342c0.184-0.445,0.514-0.736,0.99-0.873c0.223-0.066,0.457-0.1,0.703-0.1
		c0.242,0,0.477,0.033,0.703,0.1c0.297,0.086,0.531,0.229,0.703,0.428c0.301,0.348,0.455,0.943,0.463,1.787v1.441
		c0.004,0.762-0.113,1.301-0.352,1.617c-0.305,0.414-0.803,0.619-1.494,0.615c-1.098,0.012-1.713-0.457-1.846-1.406
		c-0.039-0.25-0.057-0.525-0.053-0.826V4.822z M285.668,6.264l0.018,0.557c0.035,0.582,0.303,0.871,0.803,0.867
		c0.348-0.008,0.578-0.176,0.691-0.504c0.066-0.191,0.1-0.498,0.1-0.92V4.729c0-0.949-0.27-1.42-0.809-1.412
		c-0.484-0.008-0.744,0.281-0.779,0.867l-0.023,0.545V6.264z"/>
	<path d="M289.471,2.625h1.066v0.504c0.313-0.414,0.748-0.621,1.307-0.621c0.227,0,0.439,0.041,0.639,0.123
		c0.453,0.184,0.693,0.549,0.721,1.096l0.012,0.738v3.914h-1.066V4.752l-0.012-0.58c-0.02-0.57-0.268-0.855-0.744-0.855
		c-0.359,0.008-0.598,0.152-0.715,0.434c-0.066,0.156-0.107,0.325-0.123,0.507s-0.021,0.374-0.018,0.577v3.545h-1.066V2.625z"/>
	<path d="M1.348,26.992l-0.773-1.125l0.639-0.363l0.563,1.295l0.551-1.295l0.645,0.363l-0.773,1.125l1.348-0.141v0.75l-1.348-0.141
		l0.773,1.125l-0.645,0.363l-0.551-1.295l-0.563,1.295l-0.639-0.363l0.773-1.125L0,27.602v-0.75L1.348,26.992z"/>
	<path d="M6.879,26.992l-0.773-1.125l0.639-0.363l0.563,1.295l0.551-1.295l0.645,0.363l-0.773,1.125l1.348-0.141v0.75l-1.348-0.141
		l0.773,1.125l-0.645,0.363l-0.551-1.295l-0.563,1.295l-0.639-0.363l0.773-1.125l-1.348,0.141v-0.75L6.879,26.992z"/>
	<path d="M15.076,25.621h1.494l1.904,8.262h-1.195l-0.393-1.887h-2.209l-0.404,1.887h-1.102L15.076,25.621z M14.871,31.064h1.805
		l-0.873-4.4L14.871,31.064z"/>
	<path d="M20.561,31.111v0.463c-0.004,0.234,0.02,0.453,0.07,0.656c0.113,0.563,0.482,0.842,1.107,0.838
		c0.234,0.004,0.447-0.035,0.639-0.117c0.426-0.164,0.646-0.557,0.662-1.178c-0.004-0.426-0.146-0.756-0.428-0.99
		c-0.199-0.16-0.436-0.318-0.709-0.475l-0.826-0.463c-0.328-0.18-0.602-0.365-0.82-0.557c-0.457-0.391-0.686-0.953-0.686-1.688
		c0.008-0.801,0.264-1.369,0.768-1.705c0.375-0.254,0.891-0.385,1.547-0.393c0.801,0,1.379,0.188,1.734,0.563
		c0.281,0.301,0.422,0.891,0.422,1.77V28h-1.137v-0.199l-0.023-0.428c-0.07-0.637-0.408-0.949-1.014-0.938
		c-0.766,0.004-1.152,0.383-1.16,1.137c0,0.48,0.24,0.871,0.721,1.172c0.297,0.191,0.633,0.384,1.008,0.577s0.68,0.376,0.914,0.548
		c0.551,0.414,0.826,1.035,0.826,1.863C24.164,33.244,23.354,34,21.744,34c-0.691,0.008-1.223-0.133-1.594-0.422
		c-0.438-0.344-0.674-0.834-0.709-1.471l-0.018-0.668v-0.328H20.561z"/>
	<path d="M28.816,27.807l-0.006-0.387c-0.027-0.66-0.348-0.988-0.961-0.984c-0.543,0.004-0.896,0.178-1.061,0.521
		c-0.09,0.168-0.139,0.336-0.146,0.504l-0.012,0.68v3.258c0.004,0.59,0.051,0.971,0.141,1.143c0.188,0.352,0.512,0.527,0.973,0.527
		c0.605-0.004,0.947-0.355,1.025-1.055l0.047-0.533v-0.281h1.137v0.287l-0.012,0.516c-0.035,0.617-0.207,1.09-0.516,1.418
		c-0.188,0.203-0.408,0.346-0.662,0.428C28.463,33.949,28.135,34,27.779,34c-0.305,0.004-0.596-0.029-0.873-0.1
		c-0.938-0.215-1.408-0.986-1.412-2.314v-3.293c-0.004-0.355,0.014-0.688,0.053-0.996c0.039-0.379,0.141-0.691,0.305-0.938
		c0.363-0.559,1.014-0.844,1.951-0.855c1.316,0.012,2.023,0.525,2.121,1.541c0.02,0.191,0.029,0.408,0.029,0.65v0.322h-1.137V27.807
		z"/>
	<path d="M31.934,25.621l1.324,6.99l1.289-6.99h1.102l-1.758,8.262h-1.389l-1.758-8.262H31.934z"/>
	<path d="M36.762,25.621h2.027c0.336,0,0.654,0.023,0.955,0.07c0.344,0.051,0.646,0.166,0.908,0.346
		c0.453,0.305,0.717,0.73,0.791,1.277c0.035,0.27,0.055,0.572,0.059,0.908v3.041c-0.012,1.02-0.189,1.705-0.533,2.057
		c-0.262,0.27-0.576,0.441-0.943,0.516c-0.156,0.031-0.518,0.047-1.084,0.047h-2.18V25.621z M37.898,26.553v6.398h1.049
		c0.629,0,1.031-0.162,1.207-0.486c0.145-0.273,0.215-0.725,0.211-1.354v-2.801c0-0.629-0.076-1.061-0.229-1.295
		c-0.199-0.301-0.596-0.455-1.189-0.463H37.898z"/>
	<path d="M42.902,28.129h1.26v1.26h-1.26V28.129z M44.162,32.623v1.26h-1.26v-1.26H44.162z"/>
	<path d="M49.822,25.621h1.494l1.904,8.262h-1.195l-0.393-1.887h-2.209l-0.404,1.887h-1.102L49.822,25.621z M49.617,31.064h1.805
		l-0.873-4.4L49.617,31.064z"/>
	<path d="M54.592,28.129v-1.031l1.066-0.48v1.512h0.867v0.809h-0.867v3.381l0.006,0.381c0.012,0.305,0.205,0.465,0.58,0.48
		l0.281,0.012v0.732l-0.352,0.053c-0.133,0.02-0.268,0.027-0.404,0.023c-0.73,0-1.117-0.293-1.16-0.879l-0.018-0.633v-3.551h-0.756
		v-0.809H54.592z"/>
	<path d="M57.545,25.609h1.066v3.023l0.205-0.199c0.316-0.285,0.678-0.426,1.084-0.422c0.875,0.012,1.332,0.443,1.371,1.295
		l0.018,0.691v3.885h-1.066v-3.645l-0.006-0.428c-0.012-0.313-0.057-0.541-0.135-0.686c-0.109-0.199-0.309-0.301-0.598-0.305
		c-0.383,0-0.633,0.148-0.75,0.445c-0.066,0.156-0.104,0.316-0.111,0.48l-0.012,0.469v3.668h-1.066V25.609z"/>
	<path d="M63.375,32.002c-0.004,0.391,0.027,0.664,0.094,0.82c0.102,0.238,0.332,0.361,0.691,0.369c0.477,0,0.744-0.219,0.803-0.656
		l0.023-0.246v-0.135h1.066v0.135l-0.018,0.398c-0.086,0.879-0.717,1.316-1.893,1.313c-0.273,0.004-0.525-0.027-0.756-0.094
		c-0.305-0.078-0.543-0.229-0.715-0.451c-0.234-0.281-0.355-0.783-0.363-1.506V30.32c-0.004-0.805,0.107-1.365,0.334-1.682
		c0.301-0.418,0.822-0.627,1.564-0.627c1.141,0.012,1.748,0.492,1.822,1.441c0.016,0.184,0.023,0.396,0.023,0.639v1.289h-2.678
		V32.002z M63.375,30.572h1.611V29.91c-0.004-0.715-0.271-1.078-0.803-1.09c-0.34,0.008-0.572,0.15-0.697,0.428
		c-0.074,0.16-0.111,0.445-0.111,0.855V30.572z"/>
	<path d="M68.191,28.129v0.709c0.164-0.285,0.355-0.488,0.574-0.609c0.145-0.082,0.285-0.139,0.422-0.17l0.34-0.047v1.055
		l-0.357,0.035c-0.383,0.047-0.646,0.207-0.791,0.48c-0.125,0.254-0.188,0.629-0.188,1.125v3.176h-1.066v-5.754H68.191z"/>
	<path d="M70.154,30.326c0.004-0.598,0.064-1.045,0.182-1.342c0.184-0.445,0.514-0.736,0.99-0.873c0.223-0.066,0.457-0.1,0.703-0.1
		c0.242,0,0.477,0.033,0.703,0.1c0.297,0.086,0.531,0.229,0.703,0.428c0.301,0.348,0.455,0.943,0.463,1.787v1.441
		c0.004,0.762-0.113,1.301-0.352,1.617c-0.305,0.414-0.803,0.619-1.494,0.615c-1.098,0.012-1.713-0.457-1.846-1.406
		c-0.039-0.25-0.057-0.525-0.053-0.826V30.326z M71.221,31.768l0.018,0.557c0.035,0.582,0.303,0.871,0.803,0.867
		c0.348-0.008,0.578-0.176,0.691-0.504c0.066-0.191,0.1-0.498,0.1-0.92v-1.535c0-0.949-0.27-1.42-0.809-1.412
		c-0.484-0.008-0.744,0.281-0.779,0.867l-0.023,0.545V31.768z"/>
	<path d="M75.949,32.131v0.211l0.018,0.234c0.066,0.422,0.301,0.627,0.703,0.615c0.477-0.004,0.723-0.234,0.738-0.691
		c0-0.156-0.039-0.295-0.117-0.416c-0.105-0.148-0.238-0.289-0.398-0.422l-0.533-0.398l-0.563-0.422
		c-0.254-0.199-0.438-0.387-0.551-0.563c-0.141-0.215-0.209-0.488-0.205-0.82c0-0.961,0.561-1.443,1.682-1.447
		c0.293,0,0.564,0.039,0.814,0.117c0.492,0.152,0.766,0.498,0.82,1.037l0.018,0.439v0.188h-1.066v-0.182V29.4
		c-0.035-0.379-0.24-0.572-0.615-0.58c-0.383-0.004-0.578,0.195-0.586,0.598c0,0.148,0.033,0.271,0.1,0.369
		c0.086,0.129,0.225,0.266,0.416,0.41l0.662,0.486c0.582,0.41,0.938,0.76,1.066,1.049c0.078,0.191,0.119,0.41,0.123,0.656
		c-0.008,0.52-0.18,0.924-0.516,1.213c-0.309,0.262-0.732,0.395-1.271,0.398c-1.09-0.004-1.686-0.461-1.787-1.371l-0.018-0.293
		v-0.205H75.949z"/>
	<path d="M79.477,30.115c-0.004-0.75,0.111-1.27,0.346-1.559c0.289-0.355,0.785-0.537,1.488-0.545
		c1.125,0.008,1.689,0.479,1.693,1.412v0.322v0.158h-1.066v-0.158l-0.012-0.287c-0.039-0.422-0.248-0.635-0.627-0.639
		c-0.488-0.004-0.738,0.256-0.75,0.779l-0.006,0.434v1.822l0.012,0.586c0.02,0.496,0.26,0.746,0.721,0.75
		c0.477-0.004,0.721-0.297,0.732-0.879v-0.234h1.066v0.264c-0.016,1.121-0.602,1.674-1.758,1.658c-0.352,0-0.664-0.049-0.938-0.146
		c-0.598-0.195-0.898-0.832-0.902-1.91V30.115z"/>
	<path d="M85.172,25.609v8.273h-1.066v-8.273H85.172z"/>
	<path d="M87.27,32.002c-0.004,0.391,0.027,0.664,0.094,0.82c0.102,0.238,0.332,0.361,0.691,0.369c0.477,0,0.744-0.219,0.803-0.656
		l0.023-0.246v-0.135h1.066v0.135l-0.018,0.398c-0.086,0.879-0.717,1.316-1.893,1.313c-0.273,0.004-0.525-0.027-0.756-0.094
		c-0.305-0.078-0.543-0.229-0.715-0.451c-0.234-0.281-0.355-0.783-0.363-1.506V30.32c-0.004-0.805,0.107-1.365,0.334-1.682
		c0.301-0.418,0.822-0.627,1.564-0.627c1.141,0.012,1.748,0.492,1.822,1.441c0.016,0.184,0.023,0.396,0.023,0.639v1.289H87.27
		V32.002z M87.27,30.572h1.611V29.91c-0.004-0.715-0.271-1.078-0.803-1.09c-0.34,0.008-0.572,0.15-0.697,0.428
		c-0.074,0.16-0.111,0.445-0.111,0.855V30.572z"/>
	<path d="M92.086,28.129v0.709c0.164-0.285,0.355-0.488,0.574-0.609c0.145-0.082,0.285-0.139,0.422-0.17l0.34-0.047v1.055
		l-0.357,0.035c-0.383,0.047-0.646,0.207-0.791,0.48c-0.125,0.254-0.188,0.629-0.188,1.125v3.176H91.02v-5.754H92.086z"/>
	<path d="M94.049,30.326c0.004-0.598,0.064-1.045,0.182-1.342c0.184-0.445,0.514-0.736,0.99-0.873c0.223-0.066,0.457-0.1,0.703-0.1
		c0.242,0,0.477,0.033,0.703,0.1c0.297,0.086,0.531,0.229,0.703,0.428c0.301,0.348,0.455,0.943,0.463,1.787v1.441
		c0.004,0.762-0.113,1.301-0.352,1.617c-0.305,0.414-0.803,0.619-1.494,0.615c-1.098,0.012-1.713-0.457-1.846-1.406
		c-0.039-0.25-0.057-0.525-0.053-0.826V30.326z M95.115,31.768l0.018,0.557c0.035,0.582,0.303,0.871,0.803,0.867
		c0.348-0.008,0.578-0.176,0.691-0.504c0.066-0.191,0.1-0.498,0.1-0.92v-1.535c0-0.949-0.27-1.42-0.809-1.412
		c-0.484-0.008-0.744,0.281-0.779,0.867l-0.023,0.545V31.768z"/>
	<path d="M99.504,28.129v-1.031l1.066-0.48v1.512h0.867v0.809h-0.867v3.381l0.006,0.381c0.012,0.305,0.205,0.465,0.58,0.48
		l0.281,0.012v0.732l-0.352,0.053c-0.133,0.02-0.268,0.027-0.404,0.023c-0.73,0-1.117-0.293-1.16-0.879l-0.018-0.633v-3.551h-0.756
		v-0.809H99.504z"/>
	<path d="M103.576,25.609v1.078h-1.148v-1.078H103.576z M102.469,28.129h1.066v5.754h-1.066V28.129z"/>
	<path d="M104.701,30.115c-0.004-0.75,0.111-1.27,0.346-1.559c0.289-0.355,0.785-0.537,1.488-0.545
		c1.125,0.008,1.689,0.479,1.693,1.412v0.322v0.158h-1.066v-0.158l-0.012-0.287c-0.039-0.422-0.248-0.635-0.627-0.639
		c-0.488-0.004-0.738,0.256-0.75,0.779l-0.006,0.434v1.822l0.012,0.586c0.02,0.496,0.26,0.746,0.721,0.75
		c0.477-0.004,0.721-0.297,0.732-0.879v-0.234h1.066v0.264c-0.016,1.121-0.602,1.674-1.758,1.658c-0.352,0-0.664-0.049-0.938-0.146
		c-0.598-0.195-0.898-0.832-0.902-1.91V30.115z"/>
	<path d="M115.553,27.807l-0.006-0.387c-0.027-0.66-0.348-0.988-0.961-0.984c-0.543,0.004-0.896,0.178-1.061,0.521
		c-0.09,0.168-0.139,0.336-0.146,0.504l-0.012,0.68v3.258c0.004,0.59,0.051,0.971,0.141,1.143c0.188,0.352,0.512,0.527,0.973,0.527
		c0.605-0.004,0.947-0.355,1.025-1.055l0.047-0.533v-0.281h1.137v0.287l-0.012,0.516c-0.035,0.617-0.207,1.09-0.516,1.418
		c-0.188,0.203-0.408,0.346-0.662,0.428c-0.301,0.102-0.629,0.152-0.984,0.152c-0.305,0.004-0.596-0.029-0.873-0.1
		c-0.938-0.215-1.408-0.986-1.412-2.314v-3.293c-0.004-0.355,0.014-0.688,0.053-0.996c0.039-0.379,0.141-0.691,0.305-0.938
		c0.363-0.559,1.014-0.844,1.951-0.855c1.316,0.012,2.023,0.525,2.121,1.541c0.02,0.191,0.029,0.408,0.029,0.65v0.322h-1.137V27.807
		z"/>
	<path d="M118.143,29.137c0.043-0.227,0.147-0.431,0.313-0.612s0.362-0.308,0.589-0.378c0.27-0.086,0.551-0.131,0.844-0.135
		c0.34,0,0.648,0.047,0.926,0.141c0.348,0.113,0.602,0.363,0.762,0.75c0.082,0.203,0.123,0.564,0.123,1.084v3.896h-1.066v-0.621
		c-0.195,0.293-0.375,0.482-0.539,0.568c-0.211,0.117-0.463,0.174-0.756,0.17c-0.215,0.004-0.406-0.027-0.574-0.094
		c-0.547-0.188-0.816-0.695-0.809-1.523c0-0.348,0.035-0.66,0.105-0.938c0.117-0.48,0.484-0.801,1.102-0.961
		c0.246-0.066,0.5-0.109,0.762-0.129l0.709-0.023v-0.674c-0.008-0.57-0.246-0.85-0.715-0.838c-0.285,0.004-0.488,0.096-0.609,0.275
		c-0.086,0.129-0.141,0.352-0.164,0.668h-1.066C118.082,29.521,118.104,29.313,118.143,29.137z M120.633,31.141h-0.311
		c-0.883,0.043-1.316,0.445-1.301,1.207c-0.012,0.559,0.207,0.84,0.656,0.844c0.379,0.008,0.654-0.189,0.826-0.592
		c0.066-0.152,0.105-0.311,0.117-0.475l0.012-0.457V31.141z"/>
	<path d="M123.949,28.129v0.709c0.164-0.285,0.355-0.488,0.574-0.609c0.145-0.082,0.285-0.139,0.422-0.17l0.34-0.047v1.055
		l-0.357,0.035c-0.383,0.047-0.646,0.207-0.791,0.48c-0.125,0.254-0.188,0.629-0.188,1.125v3.176h-1.066v-5.754H123.949z"/>
	<path d="M129.668,25.609v8.273h-1.066v-0.527c-0.395,0.438-0.807,0.652-1.236,0.645c-0.348,0.004-0.644-0.095-0.888-0.296
		s-0.399-0.47-0.466-0.806c-0.059-0.266-0.088-0.555-0.088-0.867v-1.916c-0.012-1.406,0.49-2.107,1.506-2.104
		c0.375,0.004,0.676,0.096,0.902,0.275c0.07,0.059,0.16,0.141,0.27,0.246v-2.924H129.668z M126.99,31.85
		c-0.004,0.281,0.004,0.5,0.023,0.656c0.035,0.465,0.275,0.693,0.721,0.686c0.258,0,0.459-0.09,0.604-0.27
		c0.172-0.215,0.26-0.648,0.264-1.301v-1.682c0-0.203-0.018-0.389-0.053-0.557s-0.111-0.303-0.229-0.404
		c-0.125-0.102-0.285-0.154-0.48-0.158c-0.5,0.004-0.773,0.283-0.82,0.838c-0.023,0.191-0.033,0.412-0.029,0.662V31.85z"/>
	<path d="M131.9,25.609v1.078h-1.148v-1.078H131.9z M130.793,28.129h1.066v5.754h-1.066V28.129z"/>
	<path d="M132.996,30.326c0.004-0.598,0.064-1.045,0.182-1.342c0.184-0.445,0.514-0.736,0.99-0.873c0.223-0.066,0.457-0.1,0.703-0.1
		c0.242,0,0.477,0.033,0.703,0.1c0.297,0.086,0.531,0.229,0.703,0.428c0.301,0.348,0.455,0.943,0.463,1.787v1.441
		c0.004,0.762-0.113,1.301-0.352,1.617c-0.305,0.414-0.803,0.619-1.494,0.615c-1.098,0.012-1.713-0.457-1.846-1.406
		c-0.039-0.25-0.057-0.525-0.053-0.826V30.326z M134.063,31.768l0.018,0.557c0.035,0.582,0.303,0.871,0.803,0.867
		c0.348-0.008,0.578-0.176,0.691-0.504c0.066-0.191,0.1-0.498,0.1-0.92v-1.535c0-0.949-0.27-1.42-0.809-1.412
		c-0.484-0.008-0.744,0.281-0.779,0.867l-0.023,0.545V31.768z"/>
	<path d="M138.504,28.129l0.902,4.699l0.896-4.699h1.096l-1.313,5.754h-1.365l-1.313-5.754H138.504z"/>
	<path d="M142.26,29.137c0.043-0.227,0.147-0.431,0.313-0.612s0.362-0.308,0.589-0.378c0.27-0.086,0.551-0.131,0.844-0.135
		c0.34,0,0.648,0.047,0.926,0.141c0.348,0.113,0.602,0.363,0.762,0.75c0.082,0.203,0.123,0.564,0.123,1.084v3.896h-1.066v-0.621
		c-0.195,0.293-0.375,0.482-0.539,0.568c-0.211,0.117-0.463,0.174-0.756,0.17c-0.215,0.004-0.406-0.027-0.574-0.094
		c-0.547-0.188-0.816-0.695-0.809-1.523c0-0.348,0.035-0.66,0.105-0.938c0.117-0.48,0.484-0.801,1.102-0.961
		c0.246-0.066,0.5-0.109,0.762-0.129l0.709-0.023v-0.674c-0.008-0.57-0.246-0.85-0.715-0.838c-0.285,0.004-0.488,0.096-0.609,0.275
		c-0.086,0.129-0.141,0.352-0.164,0.668h-1.066C142.199,29.521,142.221,29.313,142.26,29.137z M144.75,31.141h-0.311
		c-0.883,0.043-1.316,0.445-1.301,1.207c-0.012,0.559,0.207,0.84,0.656,0.844c0.379,0.008,0.654-0.189,0.826-0.592
		c0.066-0.152,0.105-0.311,0.117-0.475l0.012-0.457V31.141z"/>
	<path d="M147.861,32.131v0.211l0.018,0.234c0.066,0.422,0.301,0.627,0.703,0.615c0.477-0.004,0.723-0.234,0.738-0.691
		c0-0.156-0.039-0.295-0.117-0.416c-0.105-0.148-0.238-0.289-0.398-0.422l-0.533-0.398l-0.563-0.422
		c-0.254-0.199-0.438-0.387-0.551-0.563c-0.141-0.215-0.209-0.488-0.205-0.82c0-0.961,0.561-1.443,1.682-1.447
		c0.293,0,0.564,0.039,0.814,0.117c0.492,0.152,0.766,0.498,0.82,1.037l0.018,0.439v0.188h-1.066v-0.182V29.4
		c-0.035-0.379-0.24-0.572-0.615-0.58c-0.383-0.004-0.578,0.195-0.586,0.598c0,0.148,0.033,0.271,0.1,0.369
		c0.086,0.129,0.225,0.266,0.416,0.41l0.662,0.486c0.582,0.41,0.938,0.76,1.066,1.049c0.078,0.191,0.119,0.41,0.123,0.656
		c-0.008,0.52-0.18,0.924-0.516,1.213c-0.309,0.262-0.732,0.395-1.271,0.398c-1.09-0.004-1.686-0.461-1.787-1.371l-0.018-0.293
		v-0.205H147.861z"/>
	<path d="M151.389,30.115c-0.004-0.75,0.111-1.27,0.346-1.559c0.289-0.355,0.785-0.537,1.488-0.545
		c1.125,0.008,1.689,0.479,1.693,1.412v0.322v0.158h-1.066v-0.158l-0.012-0.287c-0.039-0.422-0.248-0.635-0.627-0.639
		c-0.488-0.004-0.738,0.256-0.75,0.779l-0.006,0.434v1.822l0.012,0.586c0.02,0.496,0.26,0.746,0.721,0.75
		c0.477-0.004,0.721-0.297,0.732-0.879v-0.234h1.066v0.264c-0.016,1.121-0.602,1.674-1.758,1.658c-0.352,0-0.664-0.049-0.938-0.146
		c-0.598-0.195-0.898-0.832-0.902-1.91V30.115z"/>
	<path d="M157.072,28.129v3.879c0.004,0.41,0.027,0.674,0.07,0.791c0.105,0.27,0.316,0.4,0.633,0.393
		c0.207,0.004,0.381-0.047,0.521-0.152c0.176-0.121,0.289-0.314,0.34-0.58c0.031-0.156,0.047-0.328,0.047-0.516v-3.814h1.066v5.754
		h-1.066v-0.51l-0.199,0.234c-0.266,0.262-0.623,0.393-1.072,0.393c-0.398,0-0.734-0.115-1.008-0.346
		c-0.254-0.215-0.385-0.541-0.393-0.979l-0.006-0.621v-3.926H157.072z"/>
	<path d="M161.953,25.609v8.273h-1.066v-8.273H161.953z"/>
	<path d="M163.283,29.137c0.043-0.227,0.147-0.431,0.313-0.612s0.362-0.308,0.589-0.378c0.27-0.086,0.551-0.131,0.844-0.135
		c0.34,0,0.648,0.047,0.926,0.141c0.348,0.113,0.602,0.363,0.762,0.75c0.082,0.203,0.123,0.564,0.123,1.084v3.896h-1.066v-0.621
		c-0.195,0.293-0.375,0.482-0.539,0.568c-0.211,0.117-0.463,0.174-0.756,0.17c-0.215,0.004-0.406-0.027-0.574-0.094
		c-0.547-0.188-0.816-0.695-0.809-1.523c0-0.348,0.035-0.66,0.105-0.938c0.117-0.48,0.484-0.801,1.102-0.961
		c0.246-0.066,0.5-0.109,0.762-0.129l0.709-0.023v-0.674c-0.008-0.57-0.246-0.85-0.715-0.838c-0.285,0.004-0.488,0.096-0.609,0.275
		c-0.086,0.129-0.141,0.352-0.164,0.668h-1.066C163.223,29.521,163.244,29.313,163.283,29.137z M165.773,31.141h-0.311
		c-0.883,0.043-1.316,0.445-1.301,1.207c-0.012,0.559,0.207,0.84,0.656,0.844c0.379,0.008,0.654-0.189,0.826-0.592
		c0.066-0.152,0.105-0.311,0.117-0.475l0.012-0.457V31.141z"/>
	<path d="M169.09,28.129v0.709c0.164-0.285,0.355-0.488,0.574-0.609c0.145-0.082,0.285-0.139,0.422-0.17l0.34-0.047v1.055
		l-0.357,0.035c-0.383,0.047-0.646,0.207-0.791,0.48c-0.125,0.254-0.188,0.629-0.188,1.125v3.176h-1.066v-5.754H169.09z"/>
	<path d="M176.039,25.621h0.68c0.262,0.004,0.502,0.029,0.721,0.076c0.84,0.164,1.266,0.824,1.277,1.98
		c0,0.605-0.111,1.068-0.334,1.389c-0.215,0.301-0.633,0.504-1.254,0.609c0.387,0.043,0.664,0.115,0.832,0.217
		c0.246,0.148,0.398,0.387,0.457,0.715c0.039,0.219,0.064,0.475,0.076,0.768l0.047,0.973c0.02,0.371,0.051,0.662,0.094,0.873
		c0.023,0.152,0.078,0.373,0.164,0.662h-1.184l-0.111-0.527c-0.031-0.148-0.053-0.338-0.064-0.568l-0.041-0.744l-0.041-0.773
		c-0.051-0.594-0.281-0.949-0.691-1.066c-0.176-0.047-0.375-0.07-0.598-0.07h-0.785v3.75h-1.137v-8.262H176.039z M175.283,26.553
		v2.648h0.814c0.238,0,0.447-0.018,0.627-0.053c0.352-0.066,0.594-0.238,0.727-0.516c0.086-0.184,0.129-0.488,0.129-0.914
		c0-0.461-0.127-0.781-0.381-0.961c-0.184-0.133-0.529-0.201-1.037-0.205H175.283z"/>
	<path d="M181.025,25.609v1.078h-1.148v-1.078H181.025z M179.918,28.129h1.066v5.754h-1.066V28.129z"/>
	<path d="M183.047,32.131v0.211l0.018,0.234c0.066,0.422,0.301,0.627,0.703,0.615c0.477-0.004,0.723-0.234,0.738-0.691
		c0-0.156-0.039-0.295-0.117-0.416c-0.105-0.148-0.238-0.289-0.398-0.422l-0.533-0.398l-0.563-0.422
		c-0.254-0.199-0.438-0.387-0.551-0.563c-0.141-0.215-0.209-0.488-0.205-0.82c0-0.961,0.561-1.443,1.682-1.447
		c0.293,0,0.564,0.039,0.814,0.117c0.492,0.152,0.766,0.498,0.82,1.037l0.018,0.439v0.188h-1.066v-0.182V29.4
		c-0.035-0.379-0.24-0.572-0.615-0.58c-0.383-0.004-0.578,0.195-0.586,0.598c0,0.148,0.033,0.271,0.1,0.369
		c0.086,0.129,0.225,0.266,0.416,0.41l0.662,0.486c0.582,0.41,0.938,0.76,1.066,1.049c0.078,0.191,0.119,0.41,0.123,0.656
		c-0.008,0.52-0.18,0.924-0.516,1.213c-0.309,0.262-0.732,0.395-1.271,0.398c-1.09-0.004-1.686-0.461-1.787-1.371l-0.018-0.293
		v-0.205H183.047z"/>
	<path d="M187.758,25.609v8.273h-1.066v-8.273H187.758z M189.264,28.129h1.154l-1.506,2.566l1.629,3.188h-1.148l-1.635-3.182
		L189.264,28.129z"/>
	<path d="M195.188,25.609v1.078h-1.148v-1.078H195.188z M194.08,28.129h1.066v5.754h-1.066V28.129z"/>
	<path d="M196.283,28.129h1.066v0.504c0.313-0.414,0.748-0.621,1.307-0.621c0.227,0,0.439,0.041,0.639,0.123
		c0.453,0.184,0.693,0.549,0.721,1.096l0.012,0.738v3.914h-1.066v-3.627l-0.012-0.58c-0.02-0.57-0.268-0.855-0.744-0.855
		c-0.359,0.008-0.598,0.152-0.715,0.434c-0.066,0.156-0.107,0.325-0.123,0.507s-0.021,0.374-0.018,0.577v3.545h-1.066V28.129z"/>
	<path d="M205.6,25.621h1.494l1.904,8.262h-1.195l-0.393-1.887h-2.209l-0.404,1.887h-1.102L205.6,25.621z M205.395,31.064h1.805
		l-0.873-4.4L205.395,31.064z"/>
	<path d="M213.539,25.609v8.273h-1.066v-0.527c-0.395,0.438-0.807,0.652-1.236,0.645c-0.348,0.004-0.644-0.095-0.888-0.296
		s-0.399-0.47-0.466-0.806c-0.059-0.266-0.088-0.555-0.088-0.867v-1.916c-0.012-1.406,0.49-2.107,1.506-2.104
		c0.375,0.004,0.676,0.096,0.902,0.275c0.07,0.059,0.16,0.141,0.27,0.246v-2.924H213.539z M210.861,31.85
		c-0.004,0.281,0.004,0.5,0.023,0.656c0.035,0.465,0.275,0.693,0.721,0.686c0.258,0,0.459-0.09,0.604-0.27
		c0.172-0.215,0.26-0.648,0.264-1.301v-1.682c0-0.203-0.018-0.389-0.053-0.557s-0.111-0.303-0.229-0.404
		c-0.125-0.102-0.285-0.154-0.48-0.158c-0.5,0.004-0.773,0.283-0.82,0.838c-0.023,0.191-0.033,0.412-0.029,0.662V31.85z"/>
	<path d="M215.719,28.129v3.879c0.004,0.41,0.027,0.674,0.07,0.791c0.105,0.27,0.316,0.4,0.633,0.393
		c0.207,0.004,0.381-0.047,0.521-0.152c0.176-0.121,0.289-0.314,0.34-0.58c0.031-0.156,0.047-0.328,0.047-0.516v-3.814h1.066v5.754
		h-1.066v-0.51l-0.199,0.234c-0.266,0.262-0.623,0.393-1.072,0.393c-0.398,0-0.734-0.115-1.008-0.346
		c-0.254-0.215-0.385-0.541-0.393-0.979l-0.006-0.621v-3.926H215.719z"/>
	<path d="M220.6,25.609v8.273h-1.066v-8.273H220.6z"/>
	<path d="M222.322,28.129v-1.031l1.066-0.48v1.512h0.867v0.809h-0.867v3.381l0.006,0.381c0.012,0.305,0.205,0.465,0.58,0.48
		l0.281,0.012v0.732l-0.352,0.053c-0.133,0.02-0.268,0.027-0.404,0.023c-0.73,0-1.117-0.293-1.16-0.879l-0.018-0.633v-3.551h-0.756
		v-0.809H222.322z"/>
	<path d="M226.201,32.131v0.211l0.018,0.234c0.066,0.422,0.301,0.627,0.703,0.615c0.477-0.004,0.723-0.234,0.738-0.691
		c0-0.156-0.039-0.295-0.117-0.416c-0.105-0.148-0.238-0.289-0.398-0.422l-0.533-0.398l-0.563-0.422
		c-0.254-0.199-0.438-0.387-0.551-0.563c-0.141-0.215-0.209-0.488-0.205-0.82c0-0.961,0.561-1.443,1.682-1.447
		c0.293,0,0.564,0.039,0.814,0.117c0.492,0.152,0.766,0.498,0.82,1.037l0.018,0.439v0.188h-1.066v-0.182V29.4
		c-0.035-0.379-0.24-0.572-0.615-0.58c-0.383-0.004-0.578,0.195-0.586,0.598c0,0.148,0.033,0.271,0.1,0.369
		c0.086,0.129,0.225,0.266,0.416,0.41l0.662,0.486c0.582,0.41,0.938,0.76,1.066,1.049c0.078,0.191,0.119,0.41,0.123,0.656
		c-0.008,0.52-0.18,0.924-0.516,1.213c-0.309,0.262-0.732,0.395-1.271,0.398c-1.09-0.004-1.686-0.461-1.787-1.371l-0.018-0.293
		v-0.205H226.201z"/>
</g>
</svg>
