<?xml version="1.0" encoding="utf-8"?>
<!-- Generator: Adobe Illustrator 17.0.0, SVG Export Plug-In . SVG Version: 6.00 Build 0)  -->
<!DOCTYPE svg PUBLIC "-//W3C//DTD SVG 1.1//EN" "http://www.w3.org/Graphics/SVG/1.1/DTD/svg11.dtd">
<svg version="1.1" id="Layer_1" xmlns="http://www.w3.org/2000/svg" xmlns:xlink="http://www.w3.org/1999/xlink" x="0px" y="0px"
	 width="105.913px" height="91.724px" viewBox="0 0 105.913 91.724" enable-background="new 0 0 105.913 91.724"
	 xml:space="preserve">
<g>
	
		<radialGradient id="SVGID_2_" cx="-389.1467" cy="110.5149" r="42.6236" gradientTransform="matrix(1.2424 0 0 1.076 536.4326 -73.0521)" gradientUnits="userSpaceOnUse">
		<stop  offset="0" style="stop-color:#022538"/>
		<stop  offset="0.3137" style="stop-color:#02263A"/>
		<stop  offset="0.4267" style="stop-color:#022941"/>
		<stop  offset="0.5073" style="stop-color:#022E4C"/>
		<stop  offset="0.5725" style="stop-color:#02365D"/>
		<stop  offset="0.6283" style="stop-color:#014073"/>
		<stop  offset="0.6777" style="stop-color:#014D8F"/>
		<stop  offset="0.7224" style="stop-color:#015BAF"/>
		<stop  offset="0.7621" style="stop-color:#006CD3"/>
		<stop  offset="0.7988" style="stop-color:#007FFC"/>
		<stop  offset="0.801" style="stop-color:#0080FF"/>
		<stop  offset="0.8223" style="stop-color:#2694F9;stop-opacity:0.893"/>
		<stop  offset="0.8472" style="stop-color:#4BA8F2;stop-opacity:0.7679"/>
		<stop  offset="0.8733" style="stop-color:#6AB8ED;stop-opacity:0.6367"/>
		<stop  offset="0.9005" style="stop-color:#82C4E9;stop-opacity:0.5"/>
		<stop  offset="0.9293" style="stop-color:#93CDE6;stop-opacity:0.3552"/>
		<stop  offset="0.9608" style="stop-color:#9DD2E5;stop-opacity:0.197"/>
		<stop  offset="1" style="stop-color:#A0D4E4;stop-opacity:0"/>
	</radialGradient>
	<ellipse fill="url(#SVGID_2_)" cx="52.957" cy="45.862" rx="52.957" ry="45.862"/>
	<g>
		<g>
			<g>
				<g>
					<path fill="#FFFFFF" d="M40.287,28.58v-1.038h2.227v4.58l-0.536,0.195c-0.188,0.061-0.394,0.108-0.618,0.144
						c-0.339,0.061-0.666,0.089-0.98,0.085c-0.827,0-1.416-0.229-1.767-0.686c-0.308-0.399-0.463-1.121-0.467-2.165v-3.327
						c0.004-0.943,0.063-1.589,0.18-1.938c0.217-0.647,0.615-1.055,1.197-1.22c0.274-0.078,0.567-0.119,0.878-0.124
						c0.693,0.014,1.217,0.203,1.569,0.571c0.352,0.367,0.533,0.978,0.544,1.829v0.301h-1.051v-0.209
						c0-0.144-0.011-0.294-0.032-0.45c-0.087-0.67-0.42-1.005-0.998-1.005c-0.523,0.014-0.868,0.214-1.035,0.601
						c-0.101,0.213-0.158,0.452-0.173,0.718c-0.021,0.239-0.031,0.498-0.027,0.776v3.261c-0.004,0.705,0.049,1.186,0.157,1.442
						c0.166,0.404,0.517,0.6,1.052,0.587c0.198,0.004,0.398-0.024,0.602-0.085l0.455-0.163V28.58H40.287z"/>
					<path fill="#FFFFFF" d="M44.764,26.01v0.789c0.151-0.317,0.328-0.544,0.53-0.679c0.134-0.091,0.264-0.154,0.391-0.188
						l0.314-0.053v1.175l-0.331,0.039c-0.354,0.052-0.598,0.23-0.731,0.534c-0.115,0.283-0.173,0.7-0.173,1.253v3.535h-0.986V26.01
						H44.764z"/>
					<path fill="#FFFFFF" d="M46.578,28.456c0.004-0.666,0.061-1.164,0.169-1.494c0.169-0.496,0.475-0.819,0.915-0.972
						c0.206-0.074,0.423-0.111,0.65-0.111c0.225,0,0.441,0.037,0.65,0.111c0.274,0.096,0.491,0.254,0.65,0.476
						c0.278,0.388,0.421,1.051,0.429,1.99v1.604c0.003,0.848-0.105,1.448-0.325,1.8c-0.282,0.462-0.743,0.689-1.382,0.686
						c-1.016,0.013-1.585-0.509-1.708-1.565c-0.036-0.278-0.052-0.585-0.049-0.92V28.456z M47.566,30.06l0.016,0.619
						c0.032,0.648,0.28,0.971,0.742,0.966c0.322-0.009,0.535-0.195,0.64-0.561c0.062-0.214,0.093-0.555,0.093-1.024v-1.709
						c0-1.057-0.25-1.581-0.748-1.572c-0.448-0.009-0.688,0.313-0.721,0.966l-0.021,0.606V30.06z"/>
					<path fill="#FFFFFF" d="M52.07,26.01v4.318c0.003,0.456,0.024,0.75,0.064,0.881c0.098,0.3,0.293,0.445,0.585,0.437
						c0.192,0.005,0.353-0.052,0.482-0.17c0.163-0.135,0.268-0.35,0.314-0.646c0.029-0.174,0.044-0.365,0.044-0.574V26.01h0.986
						v6.405H53.56v-0.567l-0.185,0.261c-0.246,0.292-0.576,0.438-0.992,0.438c-0.368,0-0.679-0.129-0.932-0.385
						c-0.235-0.239-0.356-0.603-0.363-1.09l-0.006-0.691v-4.37H52.07z"/>
					<path fill="#FFFFFF" d="M55.586,26.01h0.987v0.639c0.122-0.187,0.23-0.326,0.324-0.417c0.229-0.23,0.519-0.348,0.873-0.353
						c0.683,0,1.091,0.439,1.225,1.317c0.036,0.253,0.055,0.505,0.055,0.757v1.99c0,0.378-0.017,0.739-0.049,1.082
						c-0.091,1.005-0.531,1.512-1.322,1.521c-0.351-0.005-0.627-0.109-0.829-0.313c-0.084-0.069-0.176-0.178-0.276-0.326v2.884
						h-0.987V26.01z M56.574,29.943c-0.004,0.261,0.007,0.518,0.032,0.77c0.018,0.222,0.056,0.396,0.113,0.521
						c0.112,0.283,0.32,0.42,0.624,0.411c0.422-0.009,0.653-0.33,0.693-0.966c0.018-0.247,0.027-0.502,0.027-0.763v-1.735
						l-0.017-0.521c-0.054-0.596-0.282-0.89-0.683-0.881c-0.3-0.004-0.514,0.159-0.64,0.489c-0.068,0.17-0.112,0.353-0.13,0.548
						c-0.019,0.195-0.025,0.413-0.021,0.652V29.943z"/>
					<path fill="#FFFFFF" d="M64.643,23.237h1.344v5.916h0.921v1.018h-0.921v2.244H65v-2.244h-2.748v-0.991L64.643,23.237z
						 M63.13,29.153H65V24.45L63.13,29.153z"/>
					<path fill="#FFFFFF" d="M67.829,26.01h1.165v1.402h-1.165V26.01z M68.994,31.012v1.402h-1.165v-1.402H68.994z"/>
					<path fill="#FFFFFF" d="M24.795,37.374c0.391,0.004,0.697,0.02,0.921,0.046c0.325,0.034,0.609,0.165,0.852,0.391
						c0.43,0.409,0.643,1.077,0.64,2.003c-0.008,1.801-0.673,2.698-1.995,2.694h-1.014v4.063h-1.051v-9.197H24.795z M24.199,38.411
						v3.06h0.856c0.444-0.005,0.746-0.142,0.905-0.411c0.127-0.213,0.191-0.606,0.195-1.181c0-0.53-0.098-0.907-0.293-1.129
						s-0.517-0.335-0.965-0.339H24.199z"/>
					<path fill="#FFFFFF" d="M27.619,41.288c0.04-0.253,0.137-0.479,0.29-0.682s0.335-0.343,0.545-0.421
						c0.249-0.096,0.509-0.146,0.78-0.15c0.314,0,0.6,0.053,0.856,0.156c0.321,0.127,0.556,0.405,0.704,0.835
						c0.076,0.227,0.114,0.629,0.114,1.207v4.338h-0.986V45.88c-0.181,0.326-0.347,0.537-0.499,0.633
						c-0.195,0.131-0.428,0.193-0.699,0.189c-0.198,0.004-0.376-0.03-0.531-0.104c-0.506-0.209-0.755-0.774-0.747-1.696
						c0-0.387,0.032-0.734,0.097-1.044c0.108-0.534,0.448-0.891,1.02-1.069c0.228-0.074,0.462-0.122,0.704-0.144l0.656-0.026v-0.75
						c-0.008-0.635-0.228-0.945-0.661-0.933c-0.264,0.004-0.452,0.106-0.564,0.307c-0.079,0.144-0.13,0.392-0.151,0.743h-0.986
						C27.563,41.716,27.582,41.483,27.619,41.288z M29.922,43.518h-0.287c-0.817,0.048-1.218,0.496-1.203,1.344
						c-0.012,0.622,0.191,0.936,0.606,0.939c0.351,0.009,0.605-0.211,0.765-0.659c0.061-0.169,0.098-0.346,0.108-0.528l0.011-0.509
						V43.518z"/>
					<path fill="#FFFFFF" d="M32.486,40.166v-1.148l0.986-0.535v1.684h0.802v0.9h-0.802v3.764l0.006,0.424
						c0.011,0.339,0.189,0.518,0.536,0.535l0.26,0.013v0.815l-0.325,0.059c-0.122,0.021-0.247,0.03-0.374,0.026
						c-0.675,0-1.033-0.326-1.072-0.979l-0.017-0.705v-3.952h-0.699v-0.9H32.486z"/>
					<path fill="#FFFFFF" d="M36.252,37.36v1.201H35.19V37.36H36.252z M35.228,40.166h0.986v6.405h-0.986V40.166z"/>
					<path fill="#FFFFFF" d="M38.155,44.477c-0.004,0.435,0.024,0.739,0.086,0.913c0.095,0.266,0.308,0.402,0.64,0.411
						c0.441,0,0.688-0.243,0.743-0.73l0.021-0.274v-0.149h0.986v0.149l-0.017,0.444c-0.079,0.979-0.663,1.465-1.75,1.461
						c-0.253,0.004-0.486-0.03-0.699-0.104c-0.282-0.087-0.503-0.255-0.661-0.502c-0.217-0.313-0.329-0.872-0.336-1.677v-1.813
						c-0.004-0.896,0.099-1.52,0.309-1.872c0.278-0.466,0.761-0.698,1.447-0.698c1.055,0.014,1.616,0.548,1.686,1.604
						c0.014,0.205,0.021,0.441,0.021,0.711v1.436h-2.477V44.477z M38.155,42.885h1.49v-0.737c-0.004-0.796-0.251-1.2-0.743-1.213
						c-0.313,0.009-0.529,0.167-0.645,0.477c-0.068,0.178-0.103,0.495-0.103,0.952V42.885z"/>
					<path fill="#FFFFFF" d="M41.563,40.166h0.987v0.561c0.288-0.461,0.691-0.691,1.208-0.691c0.21,0,0.406,0.046,0.591,0.137
						c0.419,0.205,0.642,0.611,0.667,1.221l0.011,0.821v4.357H44.04v-4.038l-0.011-0.646c-0.019-0.635-0.248-0.952-0.688-0.952
						c-0.333,0.009-0.553,0.17-0.661,0.482c-0.062,0.174-0.1,0.362-0.114,0.564s-0.02,0.417-0.016,0.643v3.946h-0.987V40.166z"/>
					<path fill="#FFFFFF" d="M46.609,40.166v-1.148l0.986-0.535v1.684h0.803v0.9h-0.803v3.764l0.006,0.424
						c0.011,0.339,0.189,0.518,0.536,0.535l0.261,0.013v0.815l-0.325,0.059c-0.123,0.021-0.248,0.03-0.374,0.026
						c-0.676,0-1.033-0.326-1.073-0.979l-0.017-0.705v-3.952H45.91v-0.9H46.609z"/>
					<path fill="#FFFFFF" d="M50.197,44.621v0.234l0.017,0.262c0.062,0.47,0.278,0.697,0.65,0.685
						c0.44-0.004,0.668-0.261,0.683-0.77c0-0.174-0.036-0.328-0.108-0.463c-0.098-0.166-0.221-0.322-0.368-0.47l-0.493-0.444
						l-0.521-0.47c-0.235-0.222-0.404-0.43-0.51-0.626c-0.13-0.239-0.193-0.543-0.189-0.913c0-1.069,0.519-1.606,1.556-1.611
						c0.271,0,0.521,0.044,0.753,0.131c0.455,0.169,0.708,0.555,0.759,1.154l0.017,0.489v0.209h-0.986v-0.202v-0.235
						c-0.032-0.422-0.223-0.637-0.569-0.646c-0.354-0.004-0.534,0.218-0.542,0.665c0,0.166,0.031,0.303,0.092,0.411
						c0.08,0.144,0.208,0.296,0.386,0.457l0.612,0.541c0.538,0.457,0.867,0.846,0.986,1.168c0.072,0.213,0.109,0.456,0.113,0.73
						c-0.007,0.578-0.166,1.028-0.477,1.351c-0.285,0.291-0.678,0.438-1.176,0.443c-1.009-0.005-1.56-0.514-1.653-1.526
						l-0.017-0.326v-0.229H50.197z"/>
					<path fill="#FFFFFF" d="M56.646,40.166l0.824,5.551l0.791-5.551h1.377l0.878,5.577l0.823-5.577h0.911l-1.09,6.405h-1.376
						l-0.867-5.421l-0.803,5.421h-1.376l-1.09-6.405H56.646z"/>
					<path fill="#FFFFFF" d="M64.087,37.36v1.201h-1.062V37.36H64.087z M63.063,40.166h0.986v6.405h-0.986V40.166z"/>
					<path fill="#FFFFFF" d="M65.642,40.166v-1.148l0.986-0.535v1.684h0.803v0.9h-0.803v3.764l0.006,0.424
						c0.011,0.339,0.189,0.518,0.536,0.535l0.261,0.013v0.815l-0.325,0.059c-0.123,0.021-0.248,0.03-0.374,0.026
						c-0.676,0-1.033-0.326-1.073-0.979l-0.017-0.705v-3.952h-0.698v-0.9H65.642z"/>
					<path fill="#FFFFFF" d="M68.373,37.36h0.987v3.366l0.189-0.222c0.292-0.317,0.627-0.474,1.002-0.47
						c0.81,0.014,1.232,0.494,1.269,1.441l0.017,0.771v4.324h-0.986v-4.058l-0.006-0.476c-0.011-0.348-0.053-0.603-0.125-0.764
						c-0.101-0.222-0.285-0.335-0.553-0.339c-0.354,0-0.585,0.165-0.693,0.496c-0.062,0.174-0.096,0.352-0.103,0.534l-0.011,0.522
						v4.083h-0.987V37.36z"/>
					<path fill="#FFFFFF" d="M72.877,42.612c0.004-0.666,0.061-1.164,0.169-1.494c0.169-0.496,0.475-0.819,0.915-0.972
						c0.206-0.074,0.423-0.111,0.65-0.111c0.225,0,0.441,0.037,0.65,0.111c0.274,0.096,0.491,0.254,0.65,0.476
						c0.278,0.388,0.421,1.051,0.429,1.99v1.604c0.003,0.848-0.105,1.448-0.325,1.8c-0.282,0.462-0.743,0.689-1.382,0.686
						c-1.016,0.013-1.585-0.509-1.708-1.565c-0.036-0.278-0.052-0.585-0.049-0.92V42.612z M73.865,44.217l0.016,0.619
						c0.032,0.648,0.28,0.971,0.742,0.966c0.322-0.009,0.535-0.195,0.64-0.561c0.062-0.214,0.093-0.555,0.093-1.024v-1.709
						c0-1.057-0.25-1.581-0.748-1.572c-0.448-0.009-0.688,0.313-0.721,0.966l-0.021,0.606V44.217z"/>
					<path fill="#FFFFFF" d="M78.368,40.166v4.318c0.004,0.456,0.025,0.75,0.065,0.881c0.097,0.3,0.292,0.445,0.585,0.437
						c0.191,0.005,0.353-0.052,0.482-0.17c0.162-0.135,0.268-0.35,0.314-0.646c0.028-0.174,0.043-0.365,0.043-0.574v-4.246h0.986
						v6.405h-0.986v-0.567l-0.185,0.261c-0.245,0.292-0.576,0.438-0.991,0.438c-0.368,0-0.68-0.129-0.933-0.385
						c-0.234-0.239-0.355-0.603-0.362-1.09l-0.006-0.691v-4.37H78.368z"/>
					<path fill="#FFFFFF" d="M82.427,40.166v-1.148l0.986-0.535v1.684h0.802v0.9h-0.802v3.764l0.006,0.424
						c0.011,0.339,0.189,0.518,0.536,0.535l0.26,0.013v0.815l-0.325,0.059c-0.122,0.021-0.247,0.03-0.374,0.026
						c-0.675,0-1.033-0.326-1.072-0.979l-0.017-0.705v-3.952h-0.699v-0.9H82.427z"/>
					<path fill="#FFFFFF" d="M26.337,56.533c-0.004-0.835,0.103-1.414,0.319-1.735c0.268-0.396,0.727-0.598,1.377-0.606
						c1.04,0.009,1.563,0.532,1.566,1.571v0.359v0.176h-0.986v-0.176l-0.012-0.319c-0.036-0.47-0.229-0.707-0.579-0.712
						c-0.452-0.004-0.684,0.285-0.694,0.868l-0.005,0.482v2.029l0.011,0.652c0.018,0.552,0.24,0.83,0.666,0.835
						c0.441-0.005,0.667-0.331,0.678-0.979v-0.262h0.986v0.294c-0.015,1.248-0.557,1.863-1.626,1.846
						c-0.325,0-0.614-0.054-0.867-0.163c-0.553-0.217-0.831-0.926-0.834-2.126V56.533z"/>
					<path fill="#FFFFFF" d="M31.605,51.516v9.211h-0.986v-9.211H31.605z"/>
					<path fill="#FFFFFF" d="M33.691,51.516v1.2h-1.062v-1.2H33.691z M32.667,54.321h0.986v6.406h-0.986V54.321z"/>
					<path fill="#FFFFFF" d="M34.704,54.321h0.987v0.562c0.288-0.461,0.691-0.691,1.208-0.691c0.21,0,0.406,0.045,0.591,0.137
						c0.419,0.204,0.642,0.611,0.667,1.22l0.011,0.822v4.357h-0.986v-4.038l-0.011-0.646c-0.019-0.635-0.248-0.953-0.688-0.953
						c-0.333,0.009-0.553,0.17-0.661,0.483c-0.062,0.174-0.1,0.361-0.114,0.564c-0.015,0.202-0.02,0.416-0.016,0.643v3.946h-0.987
						V54.321z"/>
					<path fill="#FFFFFF" d="M40.244,51.516v1.2h-1.063v-1.2H40.244z M39.219,54.321h0.986v6.406h-0.986V54.321z"/>
					<path fill="#FFFFFF" d="M41.285,56.533c-0.004-0.835,0.103-1.414,0.319-1.735c0.268-0.396,0.727-0.598,1.377-0.606
						c1.04,0.009,1.563,0.532,1.566,1.571v0.359v0.176h-0.986v-0.176l-0.012-0.319c-0.036-0.47-0.229-0.707-0.579-0.712
						c-0.452-0.004-0.684,0.285-0.694,0.868l-0.005,0.482v2.029l0.011,0.652c0.018,0.552,0.24,0.83,0.666,0.835
						c0.441-0.005,0.667-0.331,0.678-0.979v-0.262h0.986v0.294c-0.015,1.248-0.557,1.863-1.626,1.846
						c-0.325,0-0.614-0.054-0.867-0.163c-0.553-0.217-0.831-0.926-0.834-2.126V56.533z"/>
					<path fill="#FFFFFF" d="M45.734,55.443c0.04-0.252,0.137-0.479,0.29-0.682s0.335-0.343,0.545-0.421
						c0.249-0.096,0.509-0.146,0.78-0.149c0.314,0,0.6,0.052,0.856,0.156c0.321,0.126,0.556,0.404,0.704,0.835
						c0.076,0.227,0.114,0.629,0.114,1.207v4.338h-0.986v-0.691c-0.181,0.326-0.347,0.537-0.499,0.633
						c-0.195,0.13-0.428,0.193-0.699,0.188c-0.198,0.005-0.376-0.03-0.531-0.104c-0.506-0.208-0.755-0.773-0.747-1.695
						c0-0.388,0.032-0.735,0.097-1.044c0.108-0.535,0.448-0.892,1.02-1.069c0.228-0.074,0.462-0.122,0.704-0.144l0.656-0.026v-0.75
						c-0.008-0.635-0.228-0.946-0.661-0.934c-0.264,0.005-0.452,0.107-0.564,0.307c-0.079,0.144-0.13,0.392-0.151,0.744h-0.986
						C45.678,55.872,45.698,55.639,45.734,55.443z M48.037,57.675H47.75c-0.817,0.048-1.218,0.495-1.203,1.344
						c-0.012,0.622,0.191,0.935,0.606,0.939c0.351,0.009,0.605-0.211,0.765-0.659c0.061-0.17,0.098-0.346,0.108-0.528l0.011-0.509
						V57.675z"/>
					<path fill="#FFFFFF" d="M51.056,51.516v9.211H50.07v-9.211H51.056z"/>
					<path fill="#FFFFFF" d="M56.221,51.529h1.382l1.761,9.198h-1.105l-0.362-2.101h-2.044l-0.374,2.101h-1.019L56.221,51.529z
						 M56.031,57.59h1.67l-0.808-4.899L56.031,57.59z"/>
					<path fill="#FFFFFF" d="M61.293,57.641v0.516c-0.004,0.261,0.019,0.505,0.065,0.73c0.104,0.626,0.446,0.938,1.024,0.933
						c0.217,0.005,0.413-0.039,0.59-0.13c0.395-0.183,0.599-0.62,0.613-1.312c-0.004-0.474-0.136-0.842-0.396-1.103
						c-0.184-0.178-0.402-0.354-0.655-0.528l-0.765-0.516c-0.303-0.199-0.556-0.406-0.758-0.619
						c-0.423-0.435-0.635-1.062-0.635-1.879c0.008-0.892,0.244-1.524,0.71-1.898c0.347-0.282,0.824-0.428,1.431-0.437
						c0.741,0,1.275,0.208,1.604,0.626c0.26,0.335,0.391,0.991,0.391,1.97v0.183h-1.052v-0.222L63.44,53.48
						c-0.065-0.709-0.378-1.058-0.938-1.044c-0.709,0.004-1.066,0.426-1.073,1.266c0,0.534,0.222,0.97,0.666,1.305
						c0.275,0.213,0.586,0.427,0.933,0.643c0.347,0.215,0.629,0.418,0.846,0.609c0.509,0.461,0.764,1.152,0.764,2.074
						c-0.011,1.684-0.761,2.524-2.249,2.524c-0.64,0.009-1.131-0.147-1.474-0.47c-0.405-0.382-0.624-0.928-0.656-1.637l-0.017-0.744
						v-0.365H61.293z"/>
					<path fill="#FFFFFF" d="M68.929,53.963l-0.005-0.431c-0.025-0.734-0.322-1.101-0.889-1.096
						c-0.503,0.004-0.829,0.198-0.981,0.58c-0.083,0.188-0.128,0.374-0.136,0.562l-0.011,0.757v3.627
						c0.004,0.656,0.047,1.08,0.13,1.271c0.174,0.392,0.474,0.587,0.9,0.587c0.56-0.004,0.876-0.396,0.948-1.174l0.043-0.594v-0.313
						h1.052v0.32l-0.011,0.574c-0.032,0.687-0.191,1.213-0.478,1.578c-0.173,0.227-0.377,0.385-0.612,0.477
						c-0.278,0.112-0.581,0.169-0.91,0.169c-0.282,0.005-0.551-0.032-0.808-0.11c-0.867-0.239-1.303-1.099-1.306-2.577v-3.666
						c-0.004-0.396,0.013-0.765,0.049-1.108c0.036-0.422,0.13-0.77,0.281-1.044c0.336-0.622,0.938-0.939,1.805-0.952
						c1.218,0.013,1.872,0.585,1.962,1.716c0.019,0.213,0.027,0.454,0.027,0.724v0.358h-1.052V53.963z"/>
					<path fill="#FFFFFF" d="M71.813,51.529l1.225,7.782l1.192-7.782h1.019l-1.625,9.198h-1.285l-1.626-9.198H71.813z"/>
					<path fill="#FFFFFF" d="M76.279,51.529h1.875c0.311,0,0.604,0.026,0.883,0.078c0.318,0.057,0.599,0.186,0.84,0.386
						c0.42,0.339,0.663,0.813,0.732,1.422c0.032,0.3,0.05,0.637,0.054,1.011v3.386c-0.011,1.135-0.175,1.898-0.493,2.289
						c-0.242,0.301-0.533,0.492-0.872,0.574c-0.145,0.035-0.479,0.053-1.003,0.053h-2.016V51.529z M77.329,52.566v7.124H78.3
						c0.581,0,0.953-0.181,1.116-0.542c0.134-0.304,0.198-0.807,0.195-1.507v-3.118c0-0.7-0.071-1.181-0.212-1.441
						c-0.185-0.335-0.551-0.507-1.1-0.516H77.329z"/>
					<path fill="#FFFFFF" d="M34.504,70.924c0.004-0.665,0.06-1.163,0.168-1.493c0.17-0.496,0.475-0.82,0.916-0.973
						c0.206-0.073,0.423-0.11,0.65-0.11c0.224,0,0.44,0.037,0.65,0.11c0.274,0.096,0.491,0.255,0.65,0.477
						c0.278,0.387,0.421,1.05,0.428,1.989v1.604c0.004,0.849-0.104,1.448-0.325,1.801c-0.281,0.461-0.742,0.689-1.382,0.685
						c-1.016,0.014-1.584-0.509-1.707-1.565c-0.036-0.278-0.053-0.585-0.049-0.92V70.924z M35.491,72.528l0.017,0.62
						c0.032,0.648,0.279,0.97,0.742,0.966c0.321-0.009,0.534-0.196,0.64-0.562c0.062-0.213,0.092-0.555,0.092-1.024v-1.709
						c0-1.057-0.249-1.58-0.748-1.572c-0.447-0.008-0.688,0.313-0.721,0.966l-0.021,0.606V72.528z"/>
					<path fill="#FFFFFF" d="M40.054,68.477v0.79c0.151-0.318,0.329-0.544,0.531-0.679c0.134-0.092,0.264-0.154,0.39-0.189
						l0.314-0.052v1.174l-0.33,0.039c-0.354,0.053-0.599,0.23-0.731,0.535c-0.116,0.282-0.174,0.7-0.174,1.252v3.536h-0.986v-6.406
						H40.054z"/>
					<path fill="#FFFFFF" d="M48.004,65.673v9.211h-0.986v-0.587c-0.364,0.486-0.746,0.726-1.144,0.717
						c-0.321,0.005-0.595-0.105-0.82-0.329c-0.227-0.224-0.37-0.522-0.432-0.896c-0.054-0.296-0.081-0.618-0.081-0.966v-2.133
						c-0.011-1.565,0.453-2.347,1.393-2.342c0.348,0.004,0.625,0.106,0.835,0.307c0.065,0.064,0.148,0.156,0.249,0.273v-3.255
						H48.004z M45.528,72.62c-0.004,0.313,0.004,0.557,0.021,0.73c0.033,0.518,0.255,0.772,0.667,0.764
						c0.238,0,0.425-0.101,0.559-0.301c0.158-0.239,0.24-0.722,0.243-1.448v-1.872c0-0.226-0.016-0.433-0.049-0.619
						c-0.032-0.188-0.103-0.337-0.211-0.45c-0.116-0.113-0.264-0.172-0.444-0.177c-0.463,0.005-0.716,0.315-0.759,0.934
						c-0.021,0.213-0.031,0.459-0.027,0.736V72.62z"/>
					<path fill="#FFFFFF" d="M50.069,65.673v1.2h-1.062v-1.2H50.069z M49.045,68.477h0.986v6.406h-0.986V68.477z"/>
					<path fill="#FFFFFF" d="M51.262,69.599c0.039-0.252,0.136-0.479,0.29-0.682c0.153-0.202,0.335-0.343,0.544-0.421
						c0.25-0.096,0.51-0.146,0.78-0.149c0.314,0,0.601,0.052,0.856,0.156c0.321,0.126,0.557,0.404,0.705,0.835
						c0.075,0.227,0.113,0.629,0.113,1.207v4.338h-0.986v-0.691c-0.181,0.326-0.347,0.537-0.498,0.633
						c-0.195,0.13-0.429,0.193-0.699,0.188c-0.199,0.005-0.376-0.03-0.531-0.104c-0.506-0.208-0.755-0.773-0.748-1.695
						c0-0.388,0.032-0.735,0.098-1.044c0.108-0.535,0.448-0.892,1.019-1.069c0.228-0.074,0.463-0.122,0.705-0.144l0.655-0.026v-0.75
						c-0.007-0.635-0.228-0.946-0.661-0.934c-0.264,0.005-0.451,0.107-0.563,0.307c-0.079,0.144-0.13,0.392-0.151,0.744h-0.986
						C51.205,70.028,51.226,69.796,51.262,69.599z M53.565,71.831h-0.287c-0.816,0.048-1.218,0.495-1.203,1.344
						c-0.011,0.622,0.191,0.935,0.607,0.939c0.35,0.009,0.604-0.211,0.764-0.659c0.062-0.17,0.098-0.346,0.108-0.528l0.011-0.509
						V71.831z"/>
					<path fill="#FFFFFF" d="M56.573,65.673v3.313c0.188-0.291,0.394-0.476,0.618-0.554c0.151-0.057,0.313-0.085,0.482-0.085
						c0.917,0,1.376,0.704,1.376,2.113v2.106c0,0.357-0.015,0.688-0.043,0.992c-0.094,0.982-0.542,1.468-1.345,1.454
						c-0.419,0-0.782-0.224-1.089-0.672v0.542h-0.986v-9.211H56.573z M56.573,72.574c-0.004,0.252,0.013,0.489,0.049,0.711
						c0.018,0.161,0.062,0.305,0.13,0.431c0.123,0.27,0.325,0.402,0.607,0.398c0.423-0.005,0.65-0.271,0.683-0.796
						c0.015-0.179,0.021-0.429,0.021-0.751v-2.021c-0.011-0.853-0.257-1.285-0.737-1.299c-0.289-0.004-0.489,0.124-0.602,0.386
						c-0.094,0.204-0.145,0.567-0.151,1.089V72.574z"/>
					<path fill="#FFFFFF" d="M60.979,72.79c-0.004,0.435,0.025,0.739,0.087,0.913c0.094,0.265,0.307,0.402,0.64,0.411
						c0.44,0,0.688-0.244,0.742-0.731l0.021-0.273v-0.15h0.986v0.15l-0.016,0.443c-0.08,0.979-0.663,1.466-1.751,1.461
						c-0.253,0.005-0.486-0.03-0.699-0.104c-0.281-0.087-0.502-0.254-0.661-0.502c-0.217-0.313-0.329-0.872-0.336-1.677v-1.813
						c-0.004-0.896,0.1-1.52,0.309-1.872c0.278-0.465,0.761-0.697,1.447-0.697c1.055,0.013,1.617,0.548,1.686,1.604
						c0.015,0.204,0.021,0.441,0.021,0.711v1.436h-2.477V72.79z M60.979,71.198h1.49v-0.737c-0.003-0.796-0.251-1.2-0.742-1.214
						c-0.314,0.009-0.529,0.168-0.645,0.477c-0.069,0.179-0.104,0.496-0.104,0.952V71.198z"/>
					<path fill="#FFFFFF" d="M64.93,68.477V67.33l0.986-0.535v1.683h0.802v0.9h-0.802v3.764l0.006,0.424
						c0.011,0.34,0.189,0.518,0.536,0.535l0.26,0.014v0.815l-0.325,0.059c-0.122,0.021-0.247,0.03-0.374,0.025
						c-0.675,0-1.033-0.326-1.072-0.979l-0.017-0.704v-3.953h-0.699v-0.9H64.93z"/>
					<path fill="#FFFFFF" d="M68.55,72.79c-0.004,0.435,0.025,0.739,0.087,0.913c0.094,0.265,0.307,0.402,0.64,0.411
						c0.44,0,0.688-0.244,0.742-0.731l0.021-0.273v-0.15h0.986v0.15l-0.016,0.443c-0.08,0.979-0.663,1.466-1.751,1.461
						c-0.253,0.005-0.486-0.03-0.699-0.104c-0.281-0.087-0.502-0.254-0.661-0.502c-0.217-0.313-0.329-0.872-0.336-1.677v-1.813
						c-0.004-0.896,0.1-1.52,0.309-1.872c0.278-0.465,0.761-0.697,1.447-0.697c1.055,0.013,1.617,0.548,1.686,1.604
						c0.015,0.204,0.021,0.441,0.021,0.711v1.436H68.55V72.79z M68.55,71.198h1.49v-0.737c-0.003-0.796-0.251-1.2-0.742-1.214
						c-0.314,0.009-0.529,0.168-0.645,0.477c-0.069,0.179-0.104,0.496-0.104,0.952V71.198z"/>
					<path fill="#FFFFFF" d="M72.815,72.933v0.234l0.017,0.261c0.062,0.47,0.278,0.698,0.65,0.686
						c0.44-0.005,0.668-0.262,0.683-0.771c0-0.174-0.036-0.328-0.108-0.463c-0.098-0.165-0.221-0.321-0.368-0.47l-0.493-0.443
						l-0.521-0.47c-0.235-0.222-0.404-0.431-0.51-0.626c-0.13-0.239-0.193-0.544-0.189-0.913c0-1.07,0.519-1.607,1.556-1.611
						c0.271,0,0.521,0.043,0.753,0.13c0.455,0.17,0.708,0.555,0.759,1.155l0.017,0.489v0.208h-0.986v-0.202v-0.234
						c-0.032-0.422-0.223-0.638-0.569-0.646c-0.354-0.004-0.534,0.218-0.542,0.666c0,0.165,0.031,0.302,0.092,0.411
						c0.08,0.144,0.208,0.296,0.386,0.456l0.612,0.542c0.538,0.456,0.867,0.846,0.986,1.167c0.072,0.214,0.109,0.457,0.113,0.73
						c-0.007,0.579-0.166,1.029-0.477,1.351c-0.285,0.292-0.678,0.439-1.176,0.443c-1.009-0.004-1.56-0.513-1.653-1.526
						l-0.017-0.326v-0.228H72.815z"/>
				</g>
			</g>
		</g>
	</g>
</g>
<radialGradient id="SVGID_4_" cx="656.2133" cy="11633.0684" r="18.9849" gradientTransform="matrix(-2.4863 0 0 -2.1993 1684.0757 25630.4004)" gradientUnits="userSpaceOnUse">
	<stop  offset="0.828" style="stop-color:#000000;stop-opacity:0.3"/>
	<stop  offset="0.8419" style="stop-color:#000303;stop-opacity:0.4137"/>
	<stop  offset="0.8531" style="stop-color:#000D0D;stop-opacity:0.505"/>
	<stop  offset="0.8634" style="stop-color:#001E1E;stop-opacity:0.5885"/>
	<stop  offset="0.8731" style="stop-color:#003636;stop-opacity:0.6675"/>
	<stop  offset="0.8824" style="stop-color:#005555;stop-opacity:0.7432"/>
	<stop  offset="0.8914" style="stop-color:#007B7B;stop-opacity:0.8165"/>
	<stop  offset="0.9002" style="stop-color:#00A7A7;stop-opacity:0.8879"/>
	<stop  offset="0.9086" style="stop-color:#00DADA;stop-opacity:0.956"/>
	<stop  offset="0.914" style="stop-color:#00FFFF"/>
</radialGradient>
<ellipse fill="url(#SVGID_4_)" cx="52.533" cy="45.792" rx="47.202" ry="41.754"/>
</svg>
