<?xml version="1.0" encoding="utf-8"?>
<!-- Generator: Adobe Illustrator 17.0.0, SVG Export Plug-In . SVG Version: 6.00 Build 0)  -->
<!DOCTYPE svg PUBLIC "-//W3C//DTD SVG 1.1//EN" "http://www.w3.org/Graphics/SVG/1.1/DTD/svg11.dtd">
<svg version="1.1" id="Layer_1" xmlns="http://www.w3.org/2000/svg" xmlns:xlink="http://www.w3.org/1999/xlink" x="0px" y="0px"
	 width="578.824px" height="27.615px" viewBox="0 0 578.824 27.615" enable-background="new 0 0 578.824 27.615"
	 xml:space="preserve">
<g>
	<g>
		<path fill="#002D3D" d="M0,27.186V1.385h5.396v21.513h8.077v4.288H0z"/>
		<path fill="#002D3D" d="M15.964,27.186V1.385h5.396v25.801H15.964z"/>
		<path fill="#002D3D" d="M26,1.385h9.72c4.932,0,6.861,3.001,6.861,7.719c0,2.93-0.858,7.576-7.183,7.576h-4.002v10.506H26V1.385z
			 M31.396,12.713h3.002c1.608,0,2.716-1.751,2.716-3.466c0-2.108-0.572-3.896-3.001-3.896h-2.716V12.713z"/>
		<path fill="#002D3D" d="M45.964,27.186V1.385h5.396v25.801H45.964z"/>
		<path fill="#002D3D" d="M71.331,1.385v4.288h-6.003v21.513h-5.396V5.673h-6.004V1.385H71.331z"/>
		<path fill="#002D3D" d="M73.714,14.285c0-6.826,0-13.33,8.898-13.33s8.898,6.504,8.898,13.33c0,6.754,0,13.33-8.898,13.33
			S73.714,21.04,73.714,14.285z M86.043,14.285c0-6.611-0.393-9.47-3.431-9.47s-3.431,2.859-3.431,9.47
			c0,6.611,0.393,9.47,3.431,9.47S86.043,20.896,86.043,14.285z"/>
		<path fill="#002D3D" d="M101.253,27.186h-5.396V1.385h9.971c3.681,0,6.039,2.358,6.039,6.754c0,3.288-1.287,5.753-4.789,6.325
			v0.072c1.179,0.143,4.682,0.429,4.682,5.074c0,1.644,0.107,6.504,0.607,7.576h-5.289c-0.715-1.572-0.572-3.323-0.572-5.003
			c0-3.073,0.286-5.682-3.859-5.682h-1.394V27.186z M101.253,12.534h2.394c2.144,0,2.752-2.144,2.752-3.788
			c0-2.466-1.037-3.395-2.752-3.395h-2.394V12.534z"/>
		<path fill="#002D3D" d="M130.104,7.748c0,4.312-3.437,7.79-7.727,7.79c-4.312,0-7.769-3.479-7.769-7.79
			c0-4.311,3.458-7.748,7.769-7.748C126.668,0,130.104,3.437,130.104,7.748z M128.647,7.748c0-3.478-2.833-6.29-6.27-6.29
			c-3.499,0-6.311,2.812-6.311,6.29c0,3.479,2.812,6.332,6.311,6.332C125.814,14.08,128.647,11.227,128.647,7.748z M121.398,12.227
			h-2.041V3.208h3.77c1.396,0,2.291,0.833,2.291,2.375c0,1.146-0.479,2-1.812,2.208v0.042c0.438,0.021,1.771,0.125,1.771,1.75
			c0,0.583,0.042,2.271,0.229,2.646h-2c-0.271-0.542-0.271-1.146-0.271-1.75c0-1.062,0.167-1.979-1.416-1.979h-0.521V12.227z
			 M121.398,7.228h0.917c0.813,0,1.062-0.75,1.062-1.333c0-0.854-0.417-1.187-1.062-1.187h-0.917V7.228z"/>
		<path fill="#002D3D" d="M144.824,22.469v4.717h-4.288v-4.717H144.824z"/>
		<path fill="#002D3D" d="M172.331,1.385v4.288h-6.003v21.513h-5.396V5.673h-6.004V1.385H172.331z"/>
		<path fill="#002D3D" d="M186.722,11.712V1.385h5.396v25.801h-5.396V15.679h-6.183v11.507h-5.396V1.385h5.396v10.328H186.722z"/>
		<path fill="#002D3D" d="M196.964,27.186V1.385h14.08v3.966h-8.684v6.361h8.005v3.967h-8.005v7.54h8.97v3.967H196.964z"/>
		<path fill="#002D3D" d="M222.964,27.186V1.385h14.08v3.966h-8.684v6.361h8.005v3.967h-8.005v7.54h8.97v3.967H222.964z"/>
		<path fill="#002D3D" d="M239.285,1.385h6.146l3.681,8.469l3.609-8.469h5.61l-6.433,12.758l6.54,13.043h-6.111l-3.966-8.898
			l-3.967,8.898h-5.575l6.683-13.508L239.285,1.385z"/>
		<path fill="#002D3D" d="M261,1.385h9.72c4.932,0,6.861,3.001,6.861,7.719c0,2.93-0.858,7.576-7.183,7.576h-4.002v10.506H261V1.385
			z M266.396,12.713h3.002c1.608,0,2.716-1.751,2.716-3.466c0-2.108-0.572-3.896-3.001-3.896h-2.716V12.713z"/>
		<path fill="#002D3D" d="M280.964,27.186V1.385h14.08v3.966h-8.684v6.361h8.005v3.967h-8.005v7.54h8.97v3.967H280.964z"/>
		<path fill="#002D3D" d="M304.253,27.186h-5.396V1.385h9.971c3.681,0,6.039,2.358,6.039,6.754c0,3.288-1.287,5.753-4.789,6.325
			v0.072c1.179,0.143,4.682,0.429,4.682,5.074c0,1.644,0.107,6.504,0.607,7.576h-5.289c-0.715-1.572-0.572-3.323-0.572-5.003
			c0-3.073,0.286-5.682-3.859-5.682h-1.394V27.186z M304.253,12.534h2.394c2.144,0,2.752-2.144,2.752-3.788
			c0-2.466-1.037-3.395-2.752-3.395h-2.394V12.534z"/>
		<path fill="#002D3D" d="M318.964,27.186V1.385h5.396v25.801H318.964z"/>
		<path fill="#002D3D" d="M328.964,27.186V1.385h14.08v3.966h-8.684v6.361h8.005v3.967h-8.005v7.54h8.97v3.967H328.964z"/>
		<path fill="#002D3D" d="M347,27.186V1.385h7.29l6.861,17.868h0.072V1.385h5.039v25.801h-7.111l-7.04-18.869h-0.072v18.869H347z"/>
		<path fill="#002D3D" d="M370.714,14.285c0-6.826,0-13.33,8.898-13.33c5.503,0,7.719,3.038,7.505,8.577h-5.289
			c0-3.431-0.607-4.717-2.216-4.717c-3.038,0-3.431,2.859-3.431,9.47c0,6.611,0.393,9.47,3.431,9.47
			c2.501,0,2.395-3.216,2.466-5.253h5.325c0,6.897-2.751,9.113-7.791,9.113C370.714,27.615,370.714,21.04,370.714,14.285z"/>
		<path fill="#002D3D" d="M390.964,27.186V1.385h14.08v3.966h-8.684v6.361h8.005v3.967h-8.005v7.54h8.97v3.967H390.964z"/>
		<path fill="#002D3D" d="M416.964,27.186V1.385h5.396v25.801H416.964z"/>
		<path fill="#002D3D" d="M433.969,27.615c-6.683,0-7.934-3.931-7.648-8.398h5.396c0,2.466,0.107,4.539,3.073,4.539
			c1.822,0,2.716-1.179,2.716-2.93c0-4.646-10.864-4.932-10.864-12.615c0-4.038,1.93-7.254,8.505-7.254
			c5.253,0,7.862,2.359,7.504,7.755h-5.253c0-1.93-0.322-3.895-2.502-3.895c-1.751,0-2.787,0.965-2.787,2.751
			c0,4.896,10.864,4.467,10.864,12.579C442.974,26.829,438.078,27.615,433.969,27.615z"/>
		<path fill="#002D3D" d="M466.757,9.318c0.036-2.394-0.357-4.502-3.216-4.502c-3.359,0-3.359,4.538-3.359,9.542
			c0,8.076,0.786,9.506,3.859,9.506c0.894,0,1.858-0.215,2.681-0.5v-5.718h-2.931v-3.967h8.327v13.08
			c-1.465,0.286-5.146,0.857-7.29,0.857c-9.077,0-10.114-3.752-10.114-13.544c0-6.504,0.322-13.115,9.148-13.115
			c5.289,0,8.577,2.966,8.255,8.362H466.757z"/>
		<path fill="#002D3D" d="M477,27.186V1.385h5.396v21.513h8.077v4.288H477z"/>
		<path fill="#002D3D" d="M492.714,14.285c0-6.826,0-13.33,8.898-13.33s8.898,6.504,8.898,13.33c0,6.754,0,13.33-8.898,13.33
			S492.714,21.04,492.714,14.285z M505.043,14.285c0-6.611-0.393-9.47-3.431-9.47s-3.431,2.859-3.431,9.47
			c0,6.611,0.393,9.47,3.431,9.47S505.043,20.896,505.043,14.285z"/>
		<path fill="#002D3D" d="M515.036,27.186V1.385h9.577c4.11,0,7.505,1.179,7.505,6.683c0,2.966-1.465,5.11-4.396,5.682v0.071
			c3.824,0.536,4.824,3.002,4.824,6.54c0,6.54-5.682,6.826-7.969,6.826H515.036z M520.432,11.927h3.609
			c1.18,0,2.823-0.786,2.823-3.288c0-1.894-1.286-3.288-3.109-3.288h-3.324V11.927z M520.432,23.219h3.002
			c1.144,0,3.717-0.036,3.717-3.645c0-2.287-0.858-3.681-3.574-3.681h-3.145V23.219z"/>
		<path fill="#002D3D" d="M534.999,27.186l7.147-25.801h7.111l7.004,25.801h-5.682l-1.429-5.718h-7.362l-1.465,5.718H534.999z
			 M545.398,6.352h-0.071l-2.466,11.149h5.146L545.398,6.352z"/>
		<path fill="#002D3D" d="M559,27.186V1.385h5.396v21.513h8.077v4.288H559z"/>
		<path fill="#002D3D" d="M578.824,22.469v4.717h-4.288v-4.717H578.824z"/>
	</g>
</g>
</svg>
