<?xml version="1.0" encoding="utf-8"?>
<!-- Generator: Adobe Illustrator 17.0.0, SVG Export Plug-In . SVG Version: 6.00 Build 0)  -->
<!DOCTYPE svg PUBLIC "-//W3C//DTD SVG 1.1//EN" "http://www.w3.org/Graphics/SVG/1.1/DTD/svg11.dtd">
<svg version="1.1" id="Layer_1" xmlns="http://www.w3.org/2000/svg" xmlns:xlink="http://www.w3.org/1999/xlink" x="0px" y="0px"
	 width="400.749px" height="7.429px" viewBox="0 0 400.749 7.429" enable-background="new 0 0 400.749 7.429" xml:space="preserve">
<g>
	<g>
		<path fill="#020202" d="M0,1.312l1.215,0.176L0.463,0.536l0.744-0.408l0.447,1.104l0.472-1.127L2.87,0.544L2.087,1.487L3.31,1.344
			L3.294,2.191L2.103,2.007l0.752,0.984L2.11,3.398L1.646,2.271L1.183,3.406l-0.72-0.432l0.744-0.976L0,2.159V1.312z"/>
		<path fill="#020202" d="M7.967,1.056H6.248V0.097h4.685v0.959H9.214v4.821H7.967V1.056z"/>
		<path fill="#020202" d="M11.575,0.104h1.176v2.286c0.136-0.191,0.432-0.607,1.167-0.607c0.6,0,0.983,0.296,1.175,0.544
			c0.145,0.2,0.265,0.567,0.265,1.096v2.454h-1.176V3.463c0-0.232,0-0.88-0.663-0.88c-0.336,0-0.76,0.191-0.76,0.823l0.008,2.471
			h-1.191V0.104z"/>
		<path fill="#020202" d="M16.392,0.104h1.264v1.031h-1.264V0.104z M16.432,1.831h1.184v4.046h-1.184V1.831z"/>
		<path fill="#020202" d="M19.479,4.71c0.016,0.256,0.176,0.552,0.671,0.552c0.424,0,0.624-0.24,0.624-0.479
			c0-0.185-0.096-0.328-0.56-0.456l-0.735-0.2c-0.328-0.096-1.023-0.296-1.023-1.119c0-0.783,0.719-1.264,1.767-1.264
			c0.831,0,1.503,0.384,1.535,1.191h-1.079c-0.032-0.447-0.393-0.479-0.576-0.479c-0.319,0-0.56,0.152-0.56,0.399
			c0,0.272,0.2,0.328,0.552,0.424l0.728,0.2c0.735,0.2,1.079,0.575,1.079,1.127c0,0.696-0.6,1.392-1.854,1.392
			c-0.52,0-1.016-0.112-1.384-0.496c-0.264-0.279-0.287-0.6-0.296-0.791H19.479z"/>
		<path fill="#020202" d="M25.99,1.84l0.032,0.575c0.368-0.647,1.039-0.655,1.231-0.655c1.047,0,1.679,0.783,1.679,2.015
			c0,1.144-0.592,2.159-1.759,2.159c-0.728,0-1.023-0.384-1.127-0.521v2.016h-1.208V1.84H25.99z M27.733,3.822
			c0-0.479-0.12-1.304-0.815-1.304c-0.384,0-0.928,0.288-0.928,1.376c0,0.239,0.008,1.263,0.88,1.263
			C27.43,5.157,27.733,4.622,27.733,3.822z"/>
		<path fill="#020202" d="M32.19,5.877c-0.04-0.248-0.04-0.432-0.04-0.552c-0.447,0.647-0.983,0.647-1.207,0.647
			c-0.584,0-0.848-0.167-1.008-0.319c-0.239-0.24-0.352-0.567-0.352-0.888c0-0.319,0.112-0.911,0.855-1.255
			c0.496-0.225,1.207-0.225,1.599-0.225c0-0.264-0.008-0.392-0.056-0.535c-0.104-0.296-0.416-0.336-0.527-0.336
			c-0.168,0-0.344,0.072-0.448,0.224c-0.088,0.136-0.088,0.264-0.088,0.36H29.76c0.008-0.216,0.032-0.647,0.456-0.952
			c0.367-0.264,0.839-0.327,1.223-0.327c0.336,0,1.04,0.056,1.439,0.52c0.271,0.328,0.28,0.808,0.28,0.991l0.008,1.623
			c0,0.344,0.023,0.688,0.096,1.023H32.19z M30.735,4.63c0,0.271,0.184,0.575,0.575,0.575c0.216,0,0.393-0.104,0.504-0.231
			c0.208-0.256,0.224-0.567,0.224-0.999C31.279,3.91,30.735,4.15,30.735,4.63z"/>
		<path fill="#020202" d="M36.59,5.821c-0.384,0.104-0.728,0.128-0.92,0.128c-1.191,0-1.191-0.752-1.191-1.088V2.646h-0.775V1.863
			h0.775V1.072l1.176-0.433v1.224h0.959v0.783h-0.959V4.47c0.008,0.368,0.008,0.6,0.536,0.6c0.176,0,0.256-0.008,0.399-0.023V5.821z
			"/>
		<path fill="#020202" d="M37.287,0.104h1.264v1.031h-1.264V0.104z M37.327,1.831h1.184v4.046h-1.184V1.831z"/>
		<path fill="#020202" d="M40.503,4.158c0,0.264,0,1.079,0.823,1.079c0.296,0,0.592-0.111,0.703-0.56h1.08
			c-0.017,0.192-0.057,0.536-0.384,0.88c-0.296,0.312-0.824,0.472-1.416,0.472c-0.344,0-0.999-0.064-1.423-0.504
			c-0.368-0.384-0.52-0.928-0.52-1.575c0-0.655,0.16-1.439,0.84-1.911c0.312-0.208,0.695-0.336,1.135-0.336
			c0.576,0,1.264,0.225,1.631,0.976c0.272,0.552,0.256,1.144,0.24,1.479H40.503z M42.006,3.414c0-0.184-0.017-0.903-0.704-0.903
			c-0.52,0-0.735,0.432-0.76,0.903H42.006z"/>
		<path fill="#020202" d="M44.016,2.559c0-0.016,0-0.455-0.024-0.735h1.136l0.031,0.607c0.112-0.184,0.433-0.703,1.312-0.703
			c0.792,0,1.128,0.479,1.231,0.76c0.088,0.248,0.112,0.455,0.112,1.207v2.183h-1.208V3.366c0-0.168,0-0.312-0.063-0.439
			c-0.088-0.176-0.272-0.344-0.576-0.344c-0.256,0-0.487,0.12-0.615,0.312c-0.072,0.104-0.145,0.304-0.145,0.616v2.366h-1.19V2.559z
			"/>
		<path fill="#020202" d="M51.262,5.821c-0.384,0.104-0.728,0.128-0.92,0.128c-1.191,0-1.191-0.752-1.191-1.088V2.646h-0.775V1.863
			h0.775V1.072l1.176-0.433v1.224h0.959v0.783h-0.959V4.47c0.008,0.368,0.008,0.6,0.536,0.6c0.176,0,0.256-0.008,0.399-0.023V5.821z
			"/>
		<path fill="#020202" d="M56.357,3.271c-0.016-0.144-0.063-0.743-0.52-0.743c-0.56,0-0.624,0.848-0.624,1.287
			c0,0.224,0.024,0.943,0.296,1.239c0.112,0.12,0.232,0.136,0.32,0.136c0.128,0,0.495-0.056,0.544-0.775h1.167
			c-0.016,0.312-0.056,0.8-0.52,1.191c-0.288,0.248-0.647,0.376-1.151,0.376c-0.536,0-1.008-0.12-1.375-0.536
			c-0.353-0.407-0.512-0.943-0.512-1.591c0-1.839,1.351-2.095,1.887-2.095c0.751,0,1.639,0.415,1.646,1.511H56.357z"/>
		<path fill="#020202" d="M60.646,5.877c-0.04-0.248-0.04-0.432-0.04-0.552c-0.447,0.647-0.983,0.647-1.207,0.647
			c-0.584,0-0.848-0.167-1.008-0.319c-0.239-0.24-0.352-0.567-0.352-0.888c0-0.319,0.112-0.911,0.855-1.255
			c0.496-0.225,1.207-0.225,1.599-0.225c0-0.264-0.008-0.392-0.056-0.535c-0.104-0.296-0.416-0.336-0.527-0.336
			c-0.168,0-0.344,0.072-0.448,0.224c-0.088,0.136-0.088,0.264-0.088,0.36h-1.159c0.008-0.216,0.032-0.647,0.456-0.952
			c0.367-0.264,0.839-0.327,1.223-0.327c0.336,0,1.04,0.056,1.439,0.52c0.271,0.328,0.28,0.808,0.28,0.991l0.008,1.623
			c0,0.344,0.023,0.688,0.096,1.023H60.646z M59.19,4.63c0,0.271,0.184,0.575,0.575,0.575c0.216,0,0.393-0.104,0.504-0.231
			c0.208-0.256,0.224-0.567,0.224-0.999C59.734,3.91,59.19,4.15,59.19,4.63z"/>
		<path fill="#020202" d="M63.495,4.71c0.016,0.256,0.176,0.552,0.671,0.552c0.424,0,0.624-0.24,0.624-0.479
			c0-0.185-0.096-0.328-0.56-0.456l-0.735-0.2c-0.328-0.096-1.023-0.296-1.023-1.119c0-0.783,0.719-1.264,1.767-1.264
			c0.831,0,1.503,0.384,1.535,1.191h-1.079c-0.032-0.447-0.393-0.479-0.576-0.479c-0.319,0-0.56,0.152-0.56,0.399
			c0,0.272,0.2,0.328,0.552,0.424l0.728,0.2c0.735,0.2,1.079,0.575,1.079,1.127c0,0.696-0.6,1.392-1.854,1.392
			c-0.52,0-1.016-0.112-1.384-0.496c-0.264-0.279-0.287-0.6-0.296-0.791H63.495z"/>
		<path fill="#020202" d="M67.622,4.158c0,0.264,0,1.079,0.824,1.079c0.296,0,0.592-0.111,0.703-0.56h1.08
			c-0.017,0.192-0.057,0.536-0.384,0.88c-0.296,0.312-0.824,0.472-1.416,0.472c-0.344,0-0.999-0.064-1.423-0.504
			c-0.368-0.384-0.52-0.928-0.52-1.575c0-0.655,0.16-1.439,0.84-1.911c0.312-0.208,0.695-0.336,1.135-0.336
			c0.576,0,1.264,0.225,1.631,0.976c0.272,0.552,0.256,1.144,0.24,1.479H67.622z M69.126,3.414c0-0.184-0.017-0.903-0.704-0.903
			c-0.52,0-0.735,0.432-0.76,0.903H69.126z"/>
		<path fill="#020202" d="M74.167,4.71c0.016,0.256,0.176,0.552,0.671,0.552c0.424,0,0.624-0.24,0.624-0.479
			c0-0.185-0.096-0.328-0.56-0.456l-0.735-0.2c-0.328-0.096-1.023-0.296-1.023-1.119c0-0.783,0.719-1.264,1.767-1.264
			c0.831,0,1.503,0.384,1.535,1.191h-1.079c-0.032-0.447-0.393-0.479-0.576-0.479c-0.319,0-0.56,0.152-0.56,0.399
			c0,0.272,0.2,0.328,0.552,0.424l0.728,0.2c0.735,0.2,1.079,0.575,1.079,1.127c0,0.696-0.6,1.392-1.854,1.392
			c-0.52,0-1.016-0.112-1.384-0.496c-0.264-0.279-0.287-0.6-0.296-0.791H74.167z"/>
		<path fill="#020202" d="M79.718,5.821c-0.384,0.104-0.728,0.128-0.92,0.128c-1.191,0-1.191-0.752-1.191-1.088V2.646h-0.775V1.863
			h0.775V1.072l1.176-0.433v1.224h0.959v0.783h-0.959V4.47c0.008,0.368,0.008,0.6,0.535,0.6c0.177,0,0.256-0.008,0.4-0.023V5.821z"
			/>
		<path fill="#020202" d="M81.614,1.84v2.406c0,0.352,0,0.888,0.632,0.888c0.76,0,0.76-0.568,0.76-1.256V1.84h1.216v2.662
			c0.016,0.871,0.023,0.976,0.023,1.079c0.008,0.112,0.016,0.185,0.032,0.296h-1.151l-0.04-0.535c-0.12,0.176-0.424,0.64-1.191,0.64
			c-0.544,0-0.991-0.248-1.216-0.544c-0.264-0.328-0.264-0.888-0.264-1.088V1.84H81.614z"/>
		<path fill="#020202" d="M88.014,0.104h1.191v5.117c0,0.239,0.016,0.504,0.032,0.655h-1.2l-0.031-0.583
			c-0.08,0.144-0.16,0.295-0.408,0.455c-0.296,0.192-0.607,0.208-0.783,0.208c-1.08,0-1.72-0.743-1.72-2.007
			c0-1.335,0.728-2.167,1.783-2.167c0.728,0,1.031,0.408,1.136,0.552V0.104z M87.11,5.189c0.344,0,0.623-0.208,0.751-0.456
			c0.176-0.335,0.192-0.751,0.192-0.951c0-0.791-0.344-1.224-0.88-1.224c-0.791,0-0.88,0.952-0.88,1.359
			C86.294,4.59,86.519,5.189,87.11,5.189z"/>
		<path fill="#020202" d="M91.103,1.84l0.887,2.798l0.904-2.798h1.175l-1.527,3.966l-0.487,1.606h-1.191l0.512-1.519L89.823,1.84
			H91.103z"/>
		<path fill="#020202" d="M96.863,0.104h1.264v1.031h-1.264V0.104z M96.903,1.831h1.184v4.046h-1.184V1.831z"/>
		<path fill="#020202" d="M99.95,4.71c0.017,0.256,0.177,0.552,0.672,0.552c0.424,0,0.624-0.24,0.624-0.479
			c0-0.185-0.096-0.328-0.56-0.456l-0.736-0.2c-0.327-0.096-1.023-0.296-1.023-1.119c0-0.783,0.72-1.264,1.768-1.264
			c0.831,0,1.503,0.384,1.535,1.191h-1.079c-0.032-0.447-0.393-0.479-0.576-0.479c-0.319,0-0.56,0.152-0.56,0.399
			c0,0.272,0.2,0.328,0.552,0.424l0.728,0.2c0.735,0.2,1.079,0.575,1.079,1.127c0,0.696-0.6,1.392-1.854,1.392
			c-0.52,0-1.016-0.112-1.384-0.496c-0.264-0.279-0.287-0.6-0.296-0.791H99.95z"/>
		<path fill="#020202" d="M105.455,2.679h-0.608V1.84h0.608V1.288c0-0.712,0.231-1.288,1.383-1.288c0.088,0,0.312,0,0.64,0.04v0.824
			c-0.12-0.017-0.152-0.024-0.248-0.024c-0.6,0-0.6,0.32-0.6,0.527V1.84h0.744v0.839h-0.744v3.198h-1.175V2.679z M107.974,0.104
			h1.263v1.031h-1.263V0.104z M108.014,1.831h1.183v4.046h-1.183V1.831z"/>
		<path fill="#020202" d="M112.374,3.271c-0.016-0.144-0.063-0.743-0.52-0.743c-0.56,0-0.624,0.848-0.624,1.287
			c0,0.224,0.024,0.943,0.296,1.239c0.112,0.12,0.232,0.136,0.32,0.136c0.128,0,0.496-0.056,0.544-0.775h1.167
			c-0.016,0.312-0.056,0.8-0.52,1.191c-0.288,0.248-0.647,0.376-1.151,0.376c-0.536,0-1.008-0.12-1.375-0.536
			C110.159,5.038,110,4.502,110,3.854c0-1.839,1.351-2.095,1.887-2.095c0.751,0,1.639,0.415,1.646,1.511H112.374z"/>
		<path fill="#020202" d="M116.614,5.821c-0.384,0.104-0.728,0.128-0.92,0.128c-1.191,0-1.191-0.752-1.191-1.088V2.646h-0.775V1.863
			h0.775V1.072l1.176-0.433v1.224h0.959v0.783h-0.959V4.47c0.008,0.368,0.008,0.6,0.535,0.6c0.177,0,0.256-0.008,0.4-0.023V5.821z"
			/>
		<path fill="#020202" d="M117.311,0.104h1.264v1.031h-1.264V0.104z M117.351,1.831h1.184v4.046h-1.184V1.831z"/>
		<path fill="#020202" d="M121.479,1.743c1.463,0,2.095,0.992,2.095,2.119c0,1.136-0.655,2.159-2.119,2.159
			c-1.151,0-2.063-0.712-2.063-2.127C119.392,2.919,119.888,1.743,121.479,1.743z M121.494,5.197c0.52,0,0.872-0.312,0.872-1.383
			c0-0.536-0.104-1.279-0.888-1.279c-0.863,0-0.872,0.999-0.872,1.367C120.606,4.806,120.911,5.197,121.494,5.197z"/>
		<path fill="#020202" d="M124.479,2.559c0-0.016,0-0.455-0.024-0.735h1.136l0.031,0.607c0.112-0.184,0.432-0.703,1.312-0.703
			c0.792,0,1.128,0.479,1.231,0.76c0.088,0.248,0.112,0.455,0.112,1.207v2.183h-1.208V3.366c0-0.168,0-0.312-0.063-0.439
			c-0.088-0.176-0.272-0.344-0.576-0.344c-0.256,0-0.487,0.12-0.615,0.312c-0.072,0.104-0.144,0.304-0.144,0.616v2.366h-1.191V2.559
			z"/>
		<path fill="#020202" d="M131.773,5.877c-0.04-0.248-0.04-0.432-0.04-0.552c-0.447,0.647-0.983,0.647-1.207,0.647
			c-0.584,0-0.848-0.167-1.008-0.319c-0.24-0.24-0.352-0.567-0.352-0.888c0-0.319,0.111-0.911,0.855-1.255
			c0.496-0.225,1.207-0.225,1.599-0.225c0-0.264-0.008-0.392-0.056-0.535c-0.104-0.296-0.416-0.336-0.527-0.336
			c-0.168,0-0.344,0.072-0.448,0.224c-0.088,0.136-0.088,0.264-0.088,0.36h-1.159c0.008-0.216,0.032-0.647,0.456-0.952
			c0.367-0.264,0.839-0.327,1.223-0.327c0.336,0,1.04,0.056,1.439,0.52c0.272,0.328,0.28,0.808,0.28,0.991l0.008,1.623
			c0,0.344,0.023,0.688,0.096,1.023H131.773z M130.318,4.63c0,0.271,0.184,0.575,0.575,0.575c0.216,0,0.393-0.104,0.504-0.231
			c0.208-0.256,0.224-0.567,0.224-0.999C130.862,3.91,130.318,4.15,130.318,4.63z"/>
		<path fill="#020202" d="M133.799,0.097h1.184v5.78h-1.184V0.097z"/>
		<path fill="#020202" d="M136.095,4.813h1.016v1.063h-1.016V4.813z"/>
		<path fill="#020202" d="M140.431,0.097h2.023l1.223,4.205l1.319-4.205h1.967v5.78h-1.23V0.92l-1.575,4.957h-1.023L141.59,0.92
			v4.957h-1.159V0.097z"/>
		<path fill="#020202" d="M148.974,4.158c0,0.264,0,1.079,0.824,1.079c0.296,0,0.592-0.111,0.703-0.56h1.08
			c-0.017,0.192-0.057,0.536-0.384,0.88c-0.296,0.312-0.824,0.472-1.416,0.472c-0.344,0-0.999-0.064-1.423-0.504
			c-0.368-0.384-0.52-0.928-0.52-1.575c0-0.655,0.16-1.439,0.84-1.911c0.312-0.208,0.695-0.336,1.135-0.336
			c0.576,0,1.264,0.225,1.631,0.976c0.272,0.552,0.256,1.144,0.24,1.479H148.974z M150.478,3.414c0-0.184-0.017-0.903-0.704-0.903
			c-0.52,0-0.735,0.432-0.76,0.903H150.478z"/>
		<path fill="#020202" d="M155.142,0.104h1.191v5.117c0,0.239,0.016,0.504,0.031,0.655h-1.199l-0.031-0.583
			c-0.08,0.144-0.16,0.295-0.408,0.455c-0.296,0.192-0.607,0.208-0.783,0.208c-1.08,0-1.72-0.743-1.72-2.007
			c0-1.335,0.728-2.167,1.783-2.167c0.728,0,1.031,0.408,1.136,0.552V0.104z M154.238,5.189c0.344,0,0.623-0.208,0.751-0.456
			c0.176-0.335,0.192-0.751,0.192-0.951c0-0.791-0.344-1.224-0.88-1.224c-0.791,0-0.879,0.952-0.879,1.359
			C153.423,4.59,153.646,5.189,154.238,5.189z"/>
		<path fill="#020202" d="M157.318,0.104h1.264v1.031h-1.264V0.104z M157.358,1.831h1.184v4.046h-1.184V1.831z"/>
		<path fill="#020202" d="M161.717,3.271c-0.016-0.144-0.063-0.743-0.52-0.743c-0.56,0-0.624,0.848-0.624,1.287
			c0,0.224,0.024,0.943,0.296,1.239c0.112,0.12,0.232,0.136,0.32,0.136c0.128,0,0.495-0.056,0.544-0.775h1.167
			c-0.016,0.312-0.056,0.8-0.52,1.191c-0.288,0.248-0.647,0.376-1.151,0.376c-0.536,0-1.008-0.12-1.375-0.536
			c-0.353-0.407-0.512-0.943-0.512-1.591c0-1.839,1.351-2.095,1.887-2.095c0.751,0,1.639,0.415,1.646,1.511H161.717z"/>
		<path fill="#020202" d="M166.005,5.877c-0.04-0.248-0.04-0.432-0.04-0.552c-0.447,0.647-0.983,0.647-1.207,0.647
			c-0.584,0-0.848-0.167-1.008-0.319c-0.239-0.24-0.352-0.567-0.352-0.888c0-0.319,0.112-0.911,0.855-1.255
			c0.496-0.225,1.207-0.225,1.599-0.225c0-0.264-0.008-0.392-0.056-0.535c-0.104-0.296-0.416-0.336-0.527-0.336
			c-0.168,0-0.344,0.072-0.448,0.224c-0.088,0.136-0.088,0.264-0.088,0.36h-1.159c0.008-0.216,0.032-0.647,0.456-0.952
			c0.367-0.264,0.839-0.327,1.223-0.327c0.336,0,1.04,0.056,1.439,0.52c0.271,0.328,0.28,0.808,0.28,0.991l0.008,1.623
			c0,0.344,0.023,0.688,0.096,1.023H166.005z M164.55,4.63c0,0.271,0.184,0.575,0.575,0.575c0.216,0,0.393-0.104,0.504-0.231
			c0.208-0.256,0.224-0.567,0.224-0.999C165.094,3.91,164.55,4.15,164.55,4.63z"/>
		<path fill="#020202" d="M168.03,0.097h1.184v5.78h-1.184V0.097z"/>
		<path fill="#020202" d="M173.59,1.84l0.032,0.575c0.368-0.647,1.039-0.655,1.231-0.655c1.047,0,1.679,0.783,1.679,2.015
			c0,1.144-0.592,2.159-1.759,2.159c-0.728,0-1.023-0.384-1.127-0.521v2.016h-1.208V1.84H173.59z M175.333,3.822
			c0-0.479-0.12-1.304-0.815-1.304c-0.384,0-0.928,0.288-0.928,1.376c0,0.239,0.008,1.263,0.88,1.263
			C175.029,5.157,175.333,4.622,175.333,3.822z"/>
		<path fill="#020202" d="M177.366,2.831c0-0.192-0.032-0.775-0.056-1.008h1.111l0.024,0.775c0.151-0.344,0.415-0.831,1.375-0.783
			v1.063c-1.199-0.112-1.271,0.504-1.271,1.008v1.99h-1.184V2.831z"/>
		<path fill="#020202" d="M182.382,1.743c1.463,0,2.095,0.992,2.095,2.119c0,1.136-0.655,2.159-2.119,2.159
			c-1.151,0-2.063-0.712-2.063-2.127C180.295,2.919,180.79,1.743,182.382,1.743z M182.397,5.197c0.52,0,0.872-0.312,0.872-1.383
			c0-0.536-0.104-1.279-0.888-1.279c-0.863,0-0.872,0.999-0.872,1.367C181.51,4.806,181.813,5.197,182.397,5.197z"/>
		<path fill="#020202" d="M185.471,2.679h-0.608V1.84h0.608V1.288c0-0.712,0.231-1.288,1.383-1.288c0.088,0,0.312,0,0.64,0.04v0.824
			c-0.12-0.017-0.152-0.024-0.248-0.024c-0.6,0-0.6,0.32-0.6,0.527V1.84h0.744v0.839h-0.744v3.198h-1.175V2.679z M187.989,0.104
			h1.263v1.031h-1.263V0.104z M188.029,1.831h1.183v4.046h-1.183V1.831z"/>
		<path fill="#020202" d="M190.254,0.097h1.184v5.78h-1.184V0.097z"/>
		<path fill="#020202" d="M193.431,4.158c0,0.264,0,1.079,0.823,1.079c0.296,0,0.592-0.111,0.703-0.56h1.08
			c-0.017,0.192-0.057,0.536-0.384,0.88c-0.296,0.312-0.824,0.472-1.416,0.472c-0.344,0-0.999-0.064-1.423-0.504
			c-0.368-0.384-0.52-0.928-0.52-1.575c0-0.655,0.16-1.439,0.84-1.911c0.312-0.208,0.695-0.336,1.135-0.336
			c0.576,0,1.264,0.225,1.631,0.976c0.272,0.552,0.256,1.144,0.24,1.479H193.431z M194.934,3.414c0-0.184-0.017-0.903-0.704-0.903
			c-0.52,0-0.735,0.432-0.76,0.903H194.934z"/>
		<path fill="#020202" d="M201.821,0.104h1.191v5.117c0,0.239,0.016,0.504,0.031,0.655h-1.199l-0.031-0.583
			c-0.08,0.144-0.16,0.295-0.408,0.455c-0.296,0.192-0.607,0.208-0.783,0.208c-1.08,0-1.72-0.743-1.72-2.007
			c0-1.335,0.728-2.167,1.783-2.167c0.728,0,1.031,0.408,1.136,0.552V0.104z M200.918,5.189c0.344,0,0.623-0.208,0.751-0.456
			c0.176-0.335,0.192-0.751,0.192-0.951c0-0.791-0.344-1.224-0.88-1.224c-0.791,0-0.879,0.952-0.879,1.359
			C200.103,4.59,200.326,5.189,200.918,5.189z"/>
		<path fill="#020202" d="M206.461,5.877c-0.04-0.248-0.04-0.432-0.04-0.552c-0.447,0.647-0.983,0.647-1.207,0.647
			c-0.584,0-0.848-0.167-1.008-0.319c-0.24-0.24-0.352-0.567-0.352-0.888c0-0.319,0.111-0.911,0.855-1.255
			c0.496-0.225,1.207-0.225,1.599-0.225c0-0.264-0.008-0.392-0.056-0.535c-0.104-0.296-0.416-0.336-0.527-0.336
			c-0.168,0-0.344,0.072-0.448,0.224c-0.088,0.136-0.088,0.264-0.088,0.36h-1.159c0.008-0.216,0.032-0.647,0.456-0.952
			c0.367-0.264,0.839-0.327,1.223-0.327c0.336,0,1.04,0.056,1.439,0.52c0.272,0.328,0.28,0.808,0.28,0.991l0.008,1.623
			c0,0.344,0.023,0.688,0.096,1.023H206.461z M205.006,4.63c0,0.271,0.184,0.575,0.575,0.575c0.216,0,0.393-0.104,0.504-0.231
			c0.208-0.256,0.224-0.567,0.224-0.999C205.55,3.91,205.006,4.15,205.006,4.63z"/>
		<path fill="#020202" d="M210.861,5.821c-0.384,0.104-0.728,0.128-0.92,0.128c-1.191,0-1.191-0.752-1.191-1.088V2.646h-0.775V1.863
			h0.775V1.072l1.176-0.433v1.224h0.959v0.783h-0.959V4.47c0.008,0.368,0.008,0.6,0.536,0.6c0.176,0,0.256-0.008,0.399-0.023V5.821z
			"/>
		<path fill="#020202" d="M214.021,5.877c-0.04-0.248-0.04-0.432-0.04-0.552c-0.447,0.647-0.983,0.647-1.207,0.647
			c-0.584,0-0.848-0.167-1.008-0.319c-0.239-0.24-0.352-0.567-0.352-0.888c0-0.319,0.112-0.911,0.855-1.255
			c0.496-0.225,1.207-0.225,1.599-0.225c0-0.264-0.008-0.392-0.056-0.535c-0.104-0.296-0.416-0.336-0.527-0.336
			c-0.168,0-0.344,0.072-0.448,0.224c-0.088,0.136-0.088,0.264-0.088,0.36h-1.159c0.008-0.216,0.032-0.647,0.456-0.952
			c0.367-0.264,0.839-0.327,1.223-0.327c0.336,0,1.04,0.056,1.439,0.52c0.271,0.328,0.28,0.808,0.28,0.991l0.008,1.623
			c0,0.344,0.023,0.688,0.096,1.023H214.021z M212.565,4.63c0,0.271,0.184,0.575,0.575,0.575c0.216,0,0.393-0.104,0.504-0.231
			c0.208-0.256,0.224-0.567,0.224-0.999C213.109,3.91,212.565,4.15,212.565,4.63z"/>
		<path fill="#020202" d="M218.303,0.104h1.175v2.286c0.137-0.191,0.433-0.607,1.168-0.607c0.6,0,0.983,0.296,1.175,0.544
			c0.145,0.2,0.265,0.567,0.265,1.096v2.454h-1.176V3.463c0-0.232,0-0.88-0.664-0.88c-0.335,0-0.759,0.191-0.759,0.823l0.008,2.471
			h-1.191V0.104z"/>
		<path fill="#020202" d="M225.581,5.877c-0.04-0.248-0.04-0.432-0.04-0.552c-0.447,0.647-0.983,0.647-1.207,0.647
			c-0.584,0-0.848-0.167-1.008-0.319c-0.239-0.24-0.352-0.567-0.352-0.888c0-0.319,0.112-0.911,0.855-1.255
			c0.496-0.225,1.207-0.225,1.599-0.225c0-0.264-0.008-0.392-0.056-0.535c-0.104-0.296-0.416-0.336-0.527-0.336
			c-0.168,0-0.344,0.072-0.448,0.224c-0.088,0.136-0.088,0.264-0.088,0.36h-1.159c0.008-0.216,0.032-0.647,0.456-0.952
			c0.367-0.264,0.839-0.327,1.223-0.327c0.336,0,1.04,0.056,1.439,0.52c0.271,0.328,0.28,0.808,0.28,0.991l0.008,1.623
			c0,0.344,0.023,0.688,0.096,1.023H225.581z M224.126,4.63c0,0.271,0.184,0.575,0.575,0.575c0.216,0,0.393-0.104,0.504-0.231
			c0.208-0.256,0.224-0.567,0.224-0.999C224.67,3.91,224.126,4.15,224.126,4.63z"/>
		<path fill="#020202" d="M228.406,1.84l0.911,2.742l0.928-2.742h1.144l-1.455,4.037h-1.312l-1.479-4.037H228.406z"/>
		<path fill="#020202" d="M233.005,4.158c0,0.264,0,1.079,0.824,1.079c0.296,0,0.592-0.111,0.703-0.56h1.08
			c-0.017,0.192-0.057,0.536-0.384,0.88c-0.296,0.312-0.824,0.472-1.416,0.472c-0.344,0-0.999-0.064-1.423-0.504
			c-0.368-0.384-0.52-0.928-0.52-1.575c0-0.655,0.16-1.439,0.84-1.911c0.312-0.208,0.695-0.336,1.135-0.336
			c0.576,0,1.264,0.225,1.631,0.976c0.272,0.552,0.256,1.144,0.24,1.479H233.005z M234.509,3.414c0-0.184-0.017-0.903-0.704-0.903
			c-0.52,0-0.735,0.432-0.76,0.903H234.509z"/>
		<path fill="#020202" d="M238.686,0.112h1.184v2.215c0.399-0.527,0.936-0.544,1.144-0.544c0.983,0,1.759,0.775,1.759,2.135
			c0,1.512-0.88,2.039-1.687,2.039c-0.208,0-0.848-0.016-1.216-0.647c-0.008,0.128-0.016,0.319-0.04,0.567h-1.144V0.112z
			 M240.692,2.575c-0.871,0-0.871,0.991-0.871,1.247c0,0.92,0.392,1.359,0.928,1.359c0.815,0,0.815-1.016,0.815-1.224
			C241.564,3.639,241.548,2.575,240.692,2.575z"/>
		<path fill="#020202" d="M244.565,4.158c0,0.264,0,1.079,0.824,1.079c0.296,0,0.592-0.111,0.703-0.56h1.08
			c-0.017,0.192-0.057,0.536-0.384,0.88c-0.296,0.312-0.824,0.472-1.416,0.472c-0.344,0-0.999-0.064-1.423-0.504
			c-0.368-0.384-0.52-0.928-0.52-1.575c0-0.655,0.16-1.439,0.84-1.911c0.312-0.208,0.695-0.336,1.135-0.336
			c0.576,0,1.264,0.225,1.631,0.976c0.272,0.552,0.256,1.144,0.24,1.479H244.565z M246.069,3.414c0-0.184-0.017-0.903-0.704-0.903
			c-0.52,0-0.735,0.432-0.76,0.903H246.069z"/>
		<path fill="#020202" d="M249.013,4.158c0,0.264,0,1.079,0.824,1.079c0.296,0,0.592-0.111,0.703-0.56h1.08
			c-0.017,0.192-0.057,0.536-0.384,0.88c-0.296,0.312-0.824,0.472-1.416,0.472c-0.344,0-0.999-0.064-1.423-0.504
			c-0.368-0.384-0.52-0.928-0.52-1.575c0-0.655,0.16-1.439,0.84-1.911c0.312-0.208,0.695-0.336,1.135-0.336
			c0.576,0,1.264,0.225,1.631,0.976c0.272,0.552,0.256,1.144,0.24,1.479H249.013z M250.517,3.414c0-0.184-0.017-0.903-0.704-0.903
			c-0.52,0-0.735,0.432-0.76,0.903H250.517z"/>
		<path fill="#020202" d="M252.526,2.559c0-0.016,0-0.455-0.024-0.735h1.136l0.031,0.607c0.112-0.184,0.432-0.703,1.312-0.703
			c0.792,0,1.128,0.479,1.231,0.76c0.088,0.248,0.112,0.455,0.112,1.207v2.183h-1.208V3.366c0-0.168,0-0.312-0.063-0.439
			c-0.088-0.176-0.272-0.344-0.576-0.344c-0.256,0-0.487,0.12-0.615,0.312c-0.072,0.104-0.144,0.304-0.144,0.616v2.366h-1.191V2.559
			z"/>
		<path fill="#020202" d="M262.293,0.104h1.191v5.117c0,0.239,0.016,0.504,0.032,0.655h-1.2l-0.031-0.583
			c-0.08,0.144-0.16,0.295-0.408,0.455c-0.296,0.192-0.607,0.208-0.783,0.208c-1.08,0-1.72-0.743-1.72-2.007
			c0-1.335,0.728-2.167,1.783-2.167c0.728,0,1.031,0.408,1.136,0.552V0.104z M261.39,5.189c0.344,0,0.623-0.208,0.751-0.456
			c0.176-0.335,0.192-0.751,0.192-0.951c0-0.791-0.344-1.224-0.88-1.224c-0.791,0-0.88,0.952-0.88,1.359
			C260.573,4.59,260.798,5.189,261.39,5.189z"/>
		<path fill="#020202" d="M265.462,4.158c0,0.264,0,1.079,0.823,1.079c0.296,0,0.592-0.111,0.703-0.56h1.08
			c-0.017,0.192-0.057,0.536-0.384,0.88c-0.296,0.312-0.824,0.472-1.416,0.472c-0.344,0-0.999-0.064-1.423-0.504
			c-0.368-0.384-0.52-0.928-0.52-1.575c0-0.655,0.16-1.439,0.84-1.911c0.312-0.208,0.695-0.336,1.135-0.336
			c0.576,0,1.264,0.225,1.631,0.976c0.272,0.552,0.256,1.144,0.24,1.479H265.462z M266.965,3.414c0-0.184-0.017-0.903-0.704-0.903
			c-0.52,0-0.735,0.432-0.76,0.903H266.965z"/>
		<path fill="#020202" d="M268.958,2.831c0-0.192-0.032-0.775-0.056-1.008h1.111l0.024,0.775c0.151-0.344,0.415-0.831,1.375-0.783
			v1.063c-1.199-0.112-1.271,0.504-1.271,1.008v1.99h-1.184V2.831z"/>
		<path fill="#020202" d="M272.029,0.104h1.264v1.031h-1.264V0.104z M272.069,1.831h1.184v4.046h-1.184V1.831z"/>
		<path fill="#020202" d="M275.094,1.84l0.911,2.742l0.928-2.742h1.144l-1.455,4.037h-1.312L273.83,1.84H275.094z"/>
		<path fill="#020202" d="M279.692,4.158c0,0.264,0,1.079,0.824,1.079c0.296,0,0.592-0.111,0.703-0.56h1.08
			c-0.017,0.192-0.057,0.536-0.384,0.88c-0.296,0.312-0.824,0.472-1.416,0.472c-0.344,0-0.999-0.064-1.423-0.504
			c-0.368-0.384-0.52-0.928-0.52-1.575c0-0.655,0.16-1.439,0.84-1.911c0.312-0.208,0.695-0.336,1.135-0.336
			c0.576,0,1.264,0.225,1.631,0.976c0.272,0.552,0.256,1.144,0.24,1.479H279.692z M281.196,3.414c0-0.184-0.017-0.903-0.704-0.903
			c-0.52,0-0.735,0.432-0.76,0.903H281.196z"/>
		<path fill="#020202" d="M285.86,0.104h1.191v5.117c0,0.239,0.016,0.504,0.031,0.655h-1.199l-0.031-0.583
			c-0.08,0.144-0.16,0.295-0.408,0.455c-0.296,0.192-0.607,0.208-0.783,0.208c-1.08,0-1.72-0.743-1.72-2.007
			c0-1.335,0.728-2.167,1.783-2.167c0.728,0,1.031,0.408,1.136,0.552V0.104z M284.957,5.189c0.344,0,0.623-0.208,0.751-0.456
			c0.176-0.335,0.192-0.751,0.192-0.951c0-0.791-0.344-1.224-0.88-1.224c-0.791,0-0.879,0.952-0.879,1.359
			C284.142,4.59,284.365,5.189,284.957,5.189z"/>
		<path fill="#020202" d="M290.382,2.679h-0.6V1.84h0.6V1.288c0-0.712,0.24-1.288,1.392-1.288c0.08,0,0.304,0,0.64,0.04v0.824
			c-0.12-0.017-0.152-0.024-0.248-0.024c-0.607,0-0.607,0.32-0.607,0.527V1.84h0.751v0.839h-0.751v3.198h-1.176V2.679z"/>
		<path fill="#020202" d="M294.869,1.743c1.463,0,2.095,0.992,2.095,2.119c0,1.136-0.655,2.159-2.119,2.159
			c-1.151,0-2.063-0.712-2.063-2.127C292.782,2.919,293.278,1.743,294.869,1.743z M294.885,5.197c0.52,0,0.872-0.312,0.872-1.383
			c0-0.536-0.104-1.279-0.888-1.279c-0.863,0-0.872,0.999-0.872,1.367C293.997,4.806,294.302,5.197,294.885,5.197z"/>
		<path fill="#020202" d="M297.854,2.831c0-0.192-0.032-0.775-0.056-1.008h1.111l0.023,0.775c0.152-0.344,0.416-0.831,1.376-0.783
			v1.063c-1.199-0.112-1.271,0.504-1.271,1.008v1.99h-1.184V2.831z"/>
		<path fill="#020202" d="M303.149,0.104h1.264v1.031h-1.264V0.104z M303.189,1.831h1.184v4.046h-1.184V1.831z"/>
		<path fill="#020202" d="M305.413,0.097h1.184v5.78h-1.184V0.097z"/>
		<path fill="#020202" d="M307.638,0.097h1.184v5.78h-1.184V0.097z"/>
		<path fill="#020202" d="M311.021,1.84v2.406c0,0.352,0,0.888,0.632,0.888c0.76,0,0.76-0.568,0.76-1.256V1.84h1.216v2.662
			c0.016,0.871,0.023,0.976,0.023,1.079c0.008,0.112,0.016,0.185,0.032,0.296h-1.151l-0.04-0.535c-0.12,0.176-0.424,0.64-1.191,0.64
			c-0.544,0-0.991-0.248-1.216-0.544c-0.264-0.328-0.264-0.888-0.264-1.088V1.84H311.021z"/>
		<path fill="#020202" d="M315.573,4.71c0.016,0.256,0.176,0.552,0.671,0.552c0.424,0,0.624-0.24,0.624-0.479
			c0-0.185-0.096-0.328-0.56-0.456l-0.735-0.2c-0.328-0.096-1.023-0.296-1.023-1.119c0-0.783,0.719-1.264,1.767-1.264
			c0.831,0,1.503,0.384,1.535,1.191h-1.079c-0.032-0.447-0.393-0.479-0.576-0.479c-0.319,0-0.56,0.152-0.56,0.399
			c0,0.272,0.2,0.328,0.552,0.424l0.728,0.2c0.735,0.2,1.079,0.575,1.079,1.127c0,0.696-0.6,1.392-1.854,1.392
			c-0.52,0-1.016-0.112-1.384-0.496c-0.264-0.279-0.287-0.6-0.296-0.791H315.573z"/>
		<path fill="#020202" d="M321.124,5.821c-0.384,0.104-0.728,0.128-0.92,0.128c-1.191,0-1.191-0.752-1.191-1.088V2.646h-0.775V1.863
			h0.775V1.072l1.176-0.433v1.224h0.959v0.783h-0.959V4.47c0.008,0.368,0.008,0.6,0.535,0.6c0.177,0,0.256-0.008,0.4-0.023V5.821z"
			/>
		<path fill="#020202" d="M321.861,2.831c0-0.192-0.032-0.775-0.056-1.008h1.111l0.023,0.775c0.152-0.344,0.416-0.831,1.376-0.783
			v1.063c-1.199-0.112-1.271,0.504-1.271,1.008v1.99h-1.184V2.831z"/>
		<path fill="#020202" d="M327.396,5.877c-0.04-0.248-0.04-0.432-0.04-0.552c-0.447,0.647-0.983,0.647-1.207,0.647
			c-0.584,0-0.848-0.167-1.008-0.319c-0.24-0.24-0.352-0.567-0.352-0.888c0-0.319,0.111-0.911,0.855-1.255
			c0.496-0.225,1.207-0.225,1.599-0.225c0-0.264-0.008-0.392-0.056-0.535c-0.104-0.296-0.416-0.336-0.527-0.336
			c-0.168,0-0.344,0.072-0.448,0.224c-0.088,0.136-0.088,0.264-0.088,0.36h-1.159c0.008-0.216,0.032-0.647,0.456-0.952
			c0.367-0.264,0.839-0.327,1.223-0.327c0.336,0,1.04,0.056,1.439,0.52c0.272,0.328,0.28,0.808,0.28,0.991l0.008,1.623
			c0,0.344,0.023,0.688,0.096,1.023H327.396z M325.941,4.63c0,0.271,0.184,0.575,0.575,0.575c0.216,0,0.393-0.104,0.504-0.231
			c0.208-0.256,0.224-0.567,0.224-0.999C326.485,3.91,325.941,4.15,325.941,4.63z"/>
		<path fill="#020202" d="M331.796,5.821c-0.384,0.104-0.728,0.128-0.92,0.128c-1.191,0-1.191-0.752-1.191-1.088V2.646h-0.775V1.863
			h0.775V1.072l1.176-0.433v1.224h0.959v0.783h-0.959V4.47c0.008,0.368,0.008,0.6,0.535,0.6c0.177,0,0.256-0.008,0.4-0.023V5.821z"
			/>
		<path fill="#020202" d="M332.493,0.104h1.264v1.031h-1.264V0.104z M332.533,1.831h1.184v4.046h-1.184V1.831z"/>
		<path fill="#020202" d="M335.557,1.84l0.911,2.742l0.928-2.742h1.144l-1.455,4.037h-1.312l-1.479-4.037H335.557z"/>
		<path fill="#020202" d="M340.157,4.158c0,0.264,0,1.079,0.823,1.079c0.296,0,0.592-0.111,0.703-0.56h1.08
			c-0.017,0.192-0.057,0.536-0.384,0.88c-0.296,0.312-0.824,0.472-1.416,0.472c-0.344,0-0.999-0.064-1.423-0.504
			c-0.368-0.384-0.52-0.928-0.52-1.575c0-0.655,0.16-1.439,0.84-1.911c0.312-0.208,0.695-0.336,1.135-0.336
			c0.576,0,1.264,0.225,1.631,0.976c0.272,0.552,0.256,1.144,0.24,1.479H340.157z M341.66,3.414c0-0.184-0.017-0.903-0.704-0.903
			c-0.52,0-0.735,0.432-0.76,0.903H341.66z"/>
		<path fill="#020202" d="M346.988,1.84l0.032,0.575c0.368-0.647,1.039-0.655,1.231-0.655c1.047,0,1.679,0.783,1.679,2.015
			c0,1.144-0.592,2.159-1.759,2.159c-0.728,0-1.023-0.384-1.127-0.521v2.016h-1.208V1.84H346.988z M348.731,3.822
			c0-0.479-0.12-1.304-0.815-1.304c-0.384,0-0.928,0.288-0.928,1.376c0,0.239,0.008,1.263,0.88,1.263
			C348.428,5.157,348.731,4.622,348.731,3.822z"/>
		<path fill="#020202" d="M351.924,1.84v2.406c0,0.352,0,0.888,0.632,0.888c0.76,0,0.76-0.568,0.76-1.256V1.84h1.215v2.662
			c0.017,0.871,0.024,0.976,0.024,1.079c0.008,0.112,0.016,0.185,0.032,0.296h-1.151l-0.04-0.535c-0.12,0.176-0.424,0.64-1.191,0.64
			c-0.544,0-0.991-0.248-1.216-0.544c-0.264-0.328-0.264-0.888-0.264-1.088V1.84H351.924z"/>
		<path fill="#020202" d="M355.653,2.831c0-0.192-0.032-0.775-0.056-1.008h1.111l0.024,0.775c0.151-0.344,0.415-0.831,1.375-0.783
			v1.063c-1.199-0.112-1.271,0.504-1.271,1.008v1.99h-1.184V2.831z"/>
		<path fill="#020202" d="M359.876,1.84l0.032,0.575c0.368-0.647,1.039-0.655,1.231-0.655c1.047,0,1.679,0.783,1.679,2.015
			c0,1.144-0.592,2.159-1.759,2.159c-0.728,0-1.023-0.384-1.127-0.521v2.016h-1.208V1.84H359.876z M361.619,3.822
			c0-0.479-0.12-1.304-0.815-1.304c-0.384,0-0.928,0.288-0.928,1.376c0,0.239,0.008,1.263,0.88,1.263
			C361.315,5.157,361.619,4.622,361.619,3.822z"/>
		<path fill="#020202" d="M365.557,1.743c1.463,0,2.095,0.992,2.095,2.119c0,1.136-0.655,2.159-2.119,2.159
			c-1.151,0-2.063-0.712-2.063-2.127C363.47,2.919,363.966,1.743,365.557,1.743z M365.572,5.197c0.52,0,0.872-0.312,0.872-1.383
			c0-0.536-0.104-1.279-0.888-1.279c-0.863,0-0.872,0.999-0.872,1.367C364.685,4.806,364.989,5.197,365.572,5.197z"/>
		<path fill="#020202" d="M369.364,4.71c0.017,0.256,0.177,0.552,0.672,0.552c0.424,0,0.624-0.24,0.624-0.479
			c0-0.185-0.096-0.328-0.56-0.456l-0.736-0.2c-0.327-0.096-1.023-0.296-1.023-1.119c0-0.783,0.72-1.264,1.768-1.264
			c0.831,0,1.503,0.384,1.535,1.191h-1.079c-0.032-0.447-0.393-0.479-0.576-0.479c-0.319,0-0.56,0.152-0.56,0.399
			c0,0.272,0.2,0.328,0.552,0.424l0.728,0.2c0.735,0.2,1.079,0.575,1.079,1.127c0,0.696-0.6,1.392-1.854,1.392
			c-0.52,0-1.016-0.112-1.384-0.496c-0.264-0.279-0.287-0.6-0.296-0.791H369.364z"/>
		<path fill="#020202" d="M373.493,4.158c0,0.264,0,1.079,0.823,1.079c0.296,0,0.592-0.111,0.703-0.56h1.08
			c-0.017,0.192-0.057,0.536-0.384,0.88c-0.296,0.312-0.824,0.472-1.416,0.472c-0.344,0-0.999-0.064-1.423-0.504
			c-0.368-0.384-0.52-0.928-0.52-1.575c0-0.655,0.16-1.439,0.84-1.911c0.312-0.208,0.695-0.336,1.135-0.336
			c0.576,0,1.264,0.225,1.631,0.976c0.272,0.552,0.256,1.144,0.24,1.479H373.493z M374.996,3.414c0-0.184-0.017-0.903-0.704-0.903
			c-0.52,0-0.735,0.432-0.76,0.903H374.996z"/>
		<path fill="#020202" d="M377.813,4.71c0.016,0.256,0.176,0.552,0.671,0.552c0.424,0,0.624-0.24,0.624-0.479
			c0-0.185-0.096-0.328-0.56-0.456l-0.735-0.2c-0.328-0.096-1.023-0.296-1.023-1.119c0-0.783,0.719-1.264,1.767-1.264
			c0.831,0,1.503,0.384,1.535,1.191h-1.079c-0.032-0.447-0.393-0.479-0.576-0.479c-0.319,0-0.56,0.152-0.56,0.399
			c0,0.272,0.2,0.328,0.552,0.424l0.728,0.2c0.735,0.2,1.079,0.575,1.079,1.127c0,0.696-0.6,1.392-1.854,1.392
			c-0.52,0-1.016-0.112-1.384-0.496c-0.264-0.279-0.287-0.6-0.296-0.791H377.813z"/>
		<path fill="#020202" d="M385.116,1.743c1.463,0,2.095,0.992,2.095,2.119c0,1.136-0.655,2.159-2.119,2.159
			c-1.151,0-2.063-0.712-2.063-2.127C383.029,2.919,383.524,1.743,385.116,1.743z M385.132,5.197c0.52,0,0.872-0.312,0.872-1.383
			c0-0.536-0.104-1.279-0.888-1.279c-0.863,0-0.872,0.999-0.872,1.367C384.244,4.806,384.548,5.197,385.132,5.197z"/>
		<path fill="#020202" d="M388.117,2.559c0-0.016,0-0.455-0.024-0.735h1.136l0.031,0.607c0.112-0.184,0.433-0.703,1.312-0.703
			c0.792,0,1.128,0.479,1.231,0.76c0.088,0.248,0.112,0.455,0.112,1.207v2.183h-1.208V3.366c0-0.168,0-0.312-0.063-0.439
			c-0.088-0.176-0.272-0.344-0.576-0.344c-0.256,0-0.487,0.12-0.615,0.312c-0.072,0.104-0.145,0.304-0.145,0.616v2.366h-1.19V2.559z
			"/>
		<path fill="#020202" d="M392.989,0.097h1.184v5.78h-1.184V0.097z"/>
		<path fill="#020202" d="M396.085,1.84l0.887,2.798l0.904-2.798h1.175l-1.527,3.966l-0.487,1.606h-1.191l0.512-1.519l-1.551-4.054
			H396.085z"/>
		<path fill="#020202" d="M399.733,4.813h1.016v1.063h-1.016V4.813z"/>
	</g>
</g>
</svg>
