<?xml version="1.0" encoding="utf-8"?>
<!-- Generator: Adobe Illustrator 17.0.0, SVG Export Plug-In . SVG Version: 6.00 Build 0)  -->
<!DOCTYPE svg PUBLIC "-//W3C//DTD SVG 1.1//EN" "http://www.w3.org/Graphics/SVG/1.1/DTD/svg11.dtd">
<svg version="1.1" id="Layer_1" xmlns="http://www.w3.org/2000/svg" xmlns:xlink="http://www.w3.org/1999/xlink" x="0px" y="0px"
	 width="172.293px" height="11.231px" viewBox="0 0 172.293 11.231" enable-background="new 0 0 172.293 11.231"
	 xml:space="preserve">
<g>
	<g>
		<path fill="#020202" d="M0.672,0.647l0.756-0.372l0.756,1.513L2.94,0.275l0.756,0.372L2.652,2.063l1.704-0.096v0.756L2.652,2.628
			l1.044,1.428L2.94,4.523L2.184,2.819L1.428,4.523L0.672,4.056l1.032-1.428L0,2.724V1.968l1.704,0.096L0.672,0.647z"/>
		<path fill="#020202" d="M7.284,0.647L8.04,0.275l0.756,1.513l0.757-1.513l0.756,0.372L9.265,2.063l1.704-0.096v0.756L9.265,2.628
			l1.044,1.428L9.553,4.523L8.796,2.819L8.04,4.523L7.284,4.056l1.032-1.428L6.612,2.724V1.968l1.704,0.096L7.284,0.647z"/>
		<path fill="#020202" d="M21.313,1.193c-0.36-0.292-0.849-0.438-1.464-0.438c-0.992,0.048-1.713,0.441-2.16,1.182
			c-0.448,0.74-0.672,1.606-0.672,2.598c0,0.129,0.004,0.259,0.012,0.391s0.023,0.266,0.048,0.401
			c0.096,0.744,0.362,1.429,0.798,2.053c0.437,0.624,1.094,0.936,1.975,0.936c0.663,0,1.157-0.122,1.481-0.366
			c0.324-0.243,0.554-0.625,0.69-1.146l0.947-0.012C22.824,7.456,22.517,8,22.044,8.424C21.572,8.848,20.84,9.06,19.849,9.06
			c-1.32,0-2.28-0.47-2.881-1.41c-0.6-0.939-0.899-1.978-0.899-3.114c0-1.136,0.288-2.163,0.864-3.084
			C17.508,0.532,18.48,0.048,19.849,0c0.079,0,0.163,0.002,0.252,0.006c0.088,0.004,0.172,0.01,0.252,0.018
			c0.592,0.057,1.14,0.248,1.644,0.576s0.796,0.884,0.876,1.668l-0.948-0.012C21.876,1.84,21.672,1.485,21.313,1.193z"/>
		<path fill="#020202" d="M25.32,0.275v3.78h4.632v-3.78h0.852v8.688h-0.852V4.812H25.32v4.152h-0.853V0.275H25.32z"/>
		<path fill="#020202" d="M35.819,0.275c1.464,0.008,2.506,0.473,3.126,1.393s0.93,1.972,0.93,3.155
			c-0.04,1.32-0.43,2.341-1.17,3.061s-1.702,1.08-2.886,1.08h-2.832V0.275H35.819z M33.827,8.208h1.992
			c0.872,0.008,1.626-0.28,2.262-0.864c0.637-0.584,0.954-1.48,0.954-2.688c0-0.04,0-0.078,0-0.113c0-0.036,0-0.07,0-0.103
			c0-1.088-0.324-1.926-0.972-2.514c-0.648-0.588-1.584-0.882-2.809-0.882l-1.428-0.013V8.208z"/>
		<path fill="#020202" d="M42.72,2.819V3.96h-1.044V2.819H42.72z M42.72,7.836v1.128h-1.044V7.836H42.72z"/>
		<path fill="#020202" d="M53.075,1.193c-0.36-0.292-0.849-0.438-1.464-0.438c-0.992,0.048-1.713,0.441-2.16,1.182
			c-0.448,0.74-0.672,1.606-0.672,2.598c0,0.129,0.004,0.259,0.012,0.391s0.023,0.266,0.048,0.401
			c0.096,0.744,0.362,1.429,0.798,2.053c0.437,0.624,1.094,0.936,1.975,0.936c0.663,0,1.157-0.122,1.481-0.366
			c0.324-0.243,0.554-0.625,0.69-1.146l0.947-0.012C54.587,7.456,54.279,8,53.807,8.424c-0.472,0.424-1.204,0.636-2.195,0.636
			c-1.32,0-2.28-0.47-2.881-1.41c-0.6-0.939-0.899-1.978-0.899-3.114c0-1.136,0.288-2.163,0.864-3.084
			C49.271,0.532,50.243,0.048,51.611,0c0.079,0,0.163,0.002,0.252,0.006c0.088,0.004,0.172,0.01,0.252,0.018
			c0.592,0.057,1.14,0.248,1.644,0.576s0.796,0.884,0.876,1.668l-0.948-0.012C53.639,1.84,53.435,1.485,53.075,1.193z"/>
		<path fill="#020202" d="M55.571,5.844c0-0.888,0.246-1.645,0.738-2.269s1.162-0.936,2.01-0.936s1.532,0.3,2.052,0.9
			c0.521,0.6,0.78,1.372,0.78,2.315c0,0.944-0.256,1.73-0.768,2.358c-0.513,0.628-1.168,0.941-1.969,0.941
			c-0.8,0-1.474-0.313-2.021-0.941S55.571,6.8,55.571,5.855V5.844z M56.327,5.844c0.049,0.712,0.254,1.334,0.618,1.866
			s0.854,0.798,1.47,0.798c0.608,0,1.088-0.272,1.44-0.816c0.352-0.544,0.532-1.144,0.54-1.8c0-0.008,0-0.014,0-0.018
			s0-0.011,0-0.019c0-0.64-0.18-1.224-0.54-1.752s-0.828-0.792-1.404-0.792c-0.008,0-0.018,0-0.029,0c-0.013,0-0.022,0-0.03,0
			c-0.017,0-0.028,0-0.036,0s-0.02,0-0.036,0c-0.616,0.04-1.102,0.309-1.458,0.804c-0.355,0.496-0.534,1.076-0.534,1.74V5.844z"/>
		<path fill="#020202" d="M62.566,2.916h0.757c0.023,0.08,0.042,0.149,0.054,0.21c0.012,0.06,0.021,0.118,0.03,0.174
			c0.008,0.063,0.012,0.126,0.012,0.186c0,0.061,0,0.126,0,0.198c0.168-0.479,0.414-0.76,0.738-0.84
			c0.323-0.08,0.697-0.116,1.122-0.108c0.031,0,0.065,0,0.102,0s0.074,0,0.114,0v0.648c-0.057,0-0.11-0.002-0.162-0.006
			c-0.053-0.004-0.106-0.006-0.162-0.006c-0.488,0-0.902,0.16-1.242,0.479c-0.34,0.32-0.51,0.736-0.51,1.248v3.864h-0.756V3.96
			c0-0.088,0-0.175,0-0.259s-0.004-0.169-0.013-0.258c-0.008-0.08-0.018-0.162-0.029-0.246c-0.013-0.084-0.03-0.174-0.055-0.27
			V2.916z"/>
		<path fill="#020202" d="M66.155,5.844c0-0.888,0.246-1.645,0.738-2.269s1.162-0.936,2.01-0.936s1.532,0.3,2.052,0.9
			c0.521,0.6,0.78,1.372,0.78,2.315c0,0.944-0.256,1.73-0.768,2.358c-0.513,0.628-1.168,0.941-1.969,0.941
			c-0.8,0-1.474-0.313-2.021-0.941S66.155,6.8,66.155,5.855V5.844z M66.911,5.844c0.049,0.712,0.254,1.334,0.618,1.866
			s0.854,0.798,1.47,0.798c0.608,0,1.088-0.272,1.44-0.816c0.352-0.544,0.532-1.144,0.54-1.8c0-0.008,0-0.014,0-0.018
			s0-0.011,0-0.019c0-0.64-0.18-1.224-0.54-1.752s-0.828-0.792-1.404-0.792c-0.008,0-0.018,0-0.029,0c-0.013,0-0.022,0-0.03,0
			c-0.017,0-0.028,0-0.036,0s-0.02,0-0.036,0c-0.616,0.04-1.102,0.309-1.458,0.804c-0.355,0.496-0.534,1.076-0.534,1.74V5.844z"/>
		<path fill="#020202" d="M74.003,3.768c0.032-0.032,0.063-0.066,0.096-0.102c0.032-0.036,0.064-0.074,0.097-0.114
			c0.184-0.2,0.411-0.386,0.684-0.559c0.271-0.172,0.607-0.258,1.008-0.258c0.112,0,0.256,0.021,0.432,0.061
			c0.177,0.04,0.36,0.104,0.553,0.191c0.296,0.145,0.567,0.356,0.815,0.637c0.248,0.279,0.372,0.647,0.372,1.104v4.236h-0.756V4.991
			c0-0.399-0.14-0.766-0.42-1.098s-0.656-0.498-1.128-0.498c-0.024,0-0.048,0-0.072,0c-0.023,0-0.048,0-0.072,0
			c-0.472,0.04-0.844,0.246-1.115,0.618c-0.272,0.372-0.433,0.774-0.48,1.206c0,0.048-0.002,0.094-0.006,0.138
			s-0.006,0.086-0.006,0.126v3.48h-0.756V4.332c0-0.04,0-0.078,0-0.114s0-0.074,0-0.114c0-0.112-0.006-0.246-0.019-0.402
			c-0.012-0.155-0.038-0.413-0.078-0.773l0.757-0.012c0.048,0.239,0.079,0.527,0.096,0.863V3.768z"/>
		<path fill="#020202" d="M80.339,3.18c0.448-0.264,0.94-0.408,1.477-0.432c0.031-0.008,0.065-0.013,0.102-0.013s0.074,0,0.114,0
			c0.567,0,1.056,0.146,1.464,0.438s0.612,0.842,0.612,1.649c0,1.408,0.002,2.351,0.006,2.826c0.004,0.477,0.025,0.858,0.065,1.146
			c0,0.032,0.002,0.062,0.007,0.09c0.004,0.028,0.01,0.054,0.018,0.078h-0.756c-0.008-0.008-0.012-0.017-0.012-0.024
			c-0.041-0.176-0.068-0.416-0.084-0.72c-0.112,0.2-0.267,0.366-0.463,0.498c-0.195,0.132-0.401,0.229-0.617,0.294
			c-0.145,0.048-0.286,0.084-0.427,0.107c-0.14,0.024-0.266,0.036-0.378,0.036c-0.712,0-1.237-0.195-1.578-0.588
			c-0.34-0.392-0.51-0.823-0.51-1.296c0.048-0.848,0.393-1.39,1.032-1.626c0.64-0.235,1.62-0.354,2.94-0.354
			c0-0.473-0.066-0.906-0.198-1.303c-0.132-0.396-0.506-0.594-1.122-0.594c-0.473,0-0.842,0.092-1.11,0.276
			c-0.268,0.184-0.401,0.439-0.401,0.768l-0.853-0.012C79.667,3.859,79.891,3.443,80.339,3.18z M83.352,5.939
			c-0.041,0.008-0.083,0.012-0.126,0.012c-0.045,0-0.087,0-0.126,0c-0.721,0-1.379,0.064-1.975,0.192s-0.894,0.504-0.894,1.128
			c0,0.416,0.136,0.725,0.407,0.924c0.272,0.2,0.58,0.301,0.925,0.301c0.04,0,0.078-0.002,0.113-0.007
			c0.036-0.004,0.07-0.006,0.103-0.006c0.168-0.016,0.33-0.056,0.485-0.12c0.156-0.063,0.299-0.144,0.427-0.239
			c0.208-0.16,0.372-0.38,0.492-0.66c0.119-0.28,0.184-0.641,0.191-1.08c0-0.064-0.002-0.132-0.006-0.204s-0.01-0.148-0.018-0.229
			V5.939z"/>
		<path fill="#020202" d="M85.714,2.916h0.757c0.023,0.08,0.042,0.149,0.054,0.21c0.012,0.06,0.021,0.118,0.03,0.174
			c0.008,0.063,0.012,0.126,0.012,0.186c0,0.061,0,0.126,0,0.198c0.168-0.479,0.414-0.76,0.738-0.84
			c0.323-0.08,0.697-0.116,1.122-0.108c0.031,0,0.065,0,0.102,0s0.074,0,0.114,0v0.648c-0.057,0-0.11-0.002-0.162-0.006
			c-0.053-0.004-0.106-0.006-0.162-0.006c-0.488,0-0.902,0.16-1.242,0.479c-0.34,0.32-0.51,0.736-0.51,1.248v3.864h-0.756V3.96
			c0-0.088,0-0.175,0-0.259s-0.004-0.169-0.013-0.258c-0.008-0.08-0.018-0.162-0.029-0.246c-0.013-0.084-0.03-0.174-0.055-0.27
			V2.916z"/>
		<path fill="#020202" d="M89.783,2.916l2.076,4.92l1.979-4.92h0.853l-3.396,8.315h-0.852l0.947-2.364l-2.556-5.951H89.783z"/>
		<path fill="#020202" d="M100.079,0.275v3.78h4.632v-3.78h0.852v8.688h-0.852V4.812h-4.632v4.152h-0.853V0.275H100.079z"/>
		<path fill="#020202" d="M111.898,6.888h0.852c-0.191,0.808-0.516,1.372-0.972,1.692c-0.456,0.319-1.017,0.479-1.68,0.479
			c-0.977,0-1.673-0.284-2.089-0.852c-0.416-0.568-0.655-1.196-0.72-1.885c-0.008-0.079-0.014-0.157-0.018-0.233
			c-0.005-0.076-0.006-0.154-0.006-0.234c0-0.943,0.279-1.716,0.84-2.315c0.56-0.601,1.195-0.9,1.907-0.9
			c0.944,0,1.631,0.308,2.059,0.924s0.658,1.296,0.689,2.04c0,0.032,0,0.063,0,0.09c0,0.028,0,0.055,0,0.078
			c0,0.024,0,0.048,0,0.072c0,0.023,0,0.044,0,0.06c-0.008,0.024-0.012,0.048-0.012,0.072s0,0.048,0,0.072l-4.632-0.013
			c0,0.129,0.01,0.261,0.03,0.396c0.02,0.136,0.05,0.276,0.09,0.42c0.104,0.393,0.296,0.75,0.576,1.074
			c0.279,0.324,0.664,0.486,1.151,0.486c0.017,0,0.028,0,0.036,0s0.021,0,0.036,0c0.008,0,0.018,0,0.03,0c0.012,0,0.021,0,0.03,0
			c0.455-0.032,0.806-0.137,1.05-0.313c0.243-0.176,0.422-0.364,0.534-0.564c0.063-0.119,0.111-0.233,0.144-0.342
			c0.032-0.107,0.056-0.206,0.072-0.294V6.888z M111.898,5.346c0-0.012,0.004-0.026,0.012-0.042c0-0.016,0-0.03,0-0.042
			s0-0.026,0-0.042c0-0.512-0.148-0.918-0.444-1.218c-0.296-0.301-0.624-0.486-0.983-0.559c-0.064-0.016-0.128-0.027-0.192-0.036
			c-0.064-0.008-0.128-0.012-0.191-0.012c-0.12,0-0.257,0.01-0.408,0.03c-0.152,0.02-0.309,0.07-0.469,0.149
			c-0.216,0.104-0.426,0.294-0.63,0.57s-0.361,0.69-0.474,1.242l3.78-0.012C111.898,5.368,111.898,5.357,111.898,5.346z"/>
		<path fill="#020202" d="M114.742,3.18c0.448-0.264,0.94-0.408,1.477-0.432c0.031-0.008,0.065-0.013,0.102-0.013s0.074,0,0.114,0
			c0.567,0,1.056,0.146,1.464,0.438s0.612,0.842,0.612,1.649c0,1.408,0.002,2.351,0.006,2.826c0.004,0.477,0.025,0.858,0.065,1.146
			c0,0.032,0.002,0.062,0.007,0.09c0.004,0.028,0.01,0.054,0.018,0.078h-0.756c-0.008-0.008-0.012-0.017-0.012-0.024
			c-0.041-0.176-0.068-0.416-0.084-0.72c-0.112,0.2-0.267,0.366-0.463,0.498c-0.195,0.132-0.401,0.229-0.617,0.294
			c-0.145,0.048-0.286,0.084-0.427,0.107c-0.14,0.024-0.266,0.036-0.378,0.036c-0.712,0-1.237-0.195-1.578-0.588
			c-0.34-0.392-0.51-0.823-0.51-1.296c0.048-0.848,0.393-1.39,1.032-1.626c0.64-0.235,1.62-0.354,2.94-0.354
			c0-0.473-0.066-0.906-0.198-1.303c-0.132-0.396-0.506-0.594-1.122-0.594c-0.473,0-0.842,0.092-1.11,0.276
			c-0.268,0.184-0.401,0.439-0.401,0.768l-0.853-0.012C114.07,3.859,114.294,3.443,114.742,3.18z M117.755,5.939
			c-0.041,0.008-0.083,0.012-0.126,0.012c-0.045,0-0.087,0-0.126,0c-0.721,0-1.379,0.064-1.975,0.192s-0.894,0.504-0.894,1.128
			c0,0.416,0.136,0.725,0.407,0.924c0.272,0.2,0.58,0.301,0.925,0.301c0.04,0,0.078-0.002,0.113-0.007
			c0.036-0.004,0.07-0.006,0.103-0.006c0.168-0.016,0.33-0.056,0.485-0.12c0.156-0.063,0.299-0.144,0.427-0.239
			c0.208-0.16,0.372-0.38,0.492-0.66c0.119-0.28,0.184-0.641,0.191-1.08c0-0.064-0.002-0.132-0.006-0.204s-0.01-0.148-0.018-0.229
			V5.939z"/>
		<path fill="#020202" d="M120.118,2.916h0.757c0.023,0.08,0.042,0.149,0.054,0.21c0.012,0.06,0.021,0.118,0.03,0.174
			c0.008,0.063,0.012,0.126,0.012,0.186c0,0.061,0,0.126,0,0.198c0.168-0.479,0.414-0.76,0.738-0.84
			c0.323-0.08,0.697-0.116,1.122-0.108c0.031,0,0.065,0,0.102,0s0.074,0,0.114,0v0.648c-0.057,0-0.11-0.002-0.162-0.006
			c-0.053-0.004-0.106-0.006-0.162-0.006c-0.488,0-0.902,0.16-1.242,0.479c-0.34,0.32-0.51,0.736-0.51,1.248v3.864h-0.756V3.96
			c0-0.088,0-0.175,0-0.259s-0.004-0.169-0.013-0.258c-0.008-0.08-0.018-0.162-0.029-0.246c-0.013-0.084-0.03-0.174-0.055-0.27
			V2.916z"/>
		<path fill="#020202" d="M123.431,2.916h1.224V1.691l0.756-0.288v1.513h1.416v0.659h-1.416v3.973c0,0.376,0.074,0.63,0.222,0.762
			c0.148,0.132,0.343,0.198,0.582,0.198c0.112,0,0.227-0.008,0.343-0.024c0.115-0.016,0.237-0.04,0.365-0.071V9.06
			c-0.151,0.04-0.3,0.07-0.443,0.09c-0.145,0.021-0.28,0.03-0.408,0.03c-0.472,0-0.826-0.12-1.063-0.36
			c-0.235-0.239-0.354-0.563-0.354-0.972V3.575h-1.224V2.916z"/>
		<path fill="#020202" d="M134.397,0.275c1.464,0.008,2.506,0.473,3.126,1.393s0.93,1.972,0.93,3.155
			c-0.04,1.32-0.43,2.341-1.17,3.061s-1.702,1.08-2.886,1.08h-2.832V0.275H134.397z M132.405,8.208h1.992
			c0.872,0.008,1.626-0.28,2.262-0.864c0.637-0.584,0.954-1.48,0.954-2.688c0-0.04,0-0.078,0-0.113c0-0.036,0-0.07,0-0.103
			c0-1.088-0.324-1.926-0.972-2.514c-0.648-0.588-1.584-0.882-2.809-0.882l-1.428-0.013V8.208z"/>
		<path fill="#020202" d="M140.926,0.275v0.937h-0.948V0.275H140.926z M140.83,2.916v6.048h-0.756V2.916H140.83z"/>
		<path fill="#020202" d="M143.644,8.111c0.324,0.2,0.674,0.301,1.05,0.301c0.473,0,0.874-0.101,1.206-0.301
			c0.332-0.199,0.498-0.512,0.498-0.936c0-0.392-0.174-0.662-0.521-0.811c-0.349-0.147-0.742-0.273-1.183-0.378
			c-0.04-0.008-0.08-0.016-0.12-0.023s-0.08-0.017-0.119-0.024c-0.48-0.111-0.923-0.27-1.326-0.474
			c-0.404-0.204-0.606-0.578-0.606-1.122c0-0.424,0.174-0.798,0.522-1.122c0.348-0.324,0.897-0.486,1.649-0.486
			c0.616,0,1.152,0.099,1.608,0.294c0.456,0.196,0.708,0.603,0.756,1.219l-0.852-0.013c-0.049-0.271-0.206-0.493-0.475-0.666
			c-0.268-0.172-0.614-0.258-1.038-0.258s-0.728,0.066-0.912,0.198c-0.184,0.132-0.304,0.274-0.359,0.426
			c-0.017,0.056-0.028,0.11-0.036,0.162s-0.012,0.102-0.012,0.15c0,0.296,0.147,0.51,0.443,0.642s0.641,0.246,1.032,0.342
			c0.08,0.024,0.158,0.044,0.234,0.061c0.075,0.016,0.153,0.035,0.233,0.06c0.48,0.128,0.922,0.309,1.326,0.54
			c0.404,0.232,0.606,0.632,0.606,1.2c0,0.656-0.261,1.164-0.78,1.523c-0.521,0.36-1.112,0.54-1.776,0.54
			c-0.112,0-0.228-0.006-0.348-0.018s-0.24-0.03-0.36-0.054c-0.392-0.08-0.756-0.265-1.092-0.553s-0.524-0.739-0.563-1.355
			l0.756-0.012C143.134,7.596,143.319,7.912,143.644,8.111z"/>
		<path fill="#020202" d="M152.914,6.888h0.852c-0.191,0.808-0.516,1.372-0.972,1.692c-0.456,0.319-1.017,0.479-1.68,0.479
			c-0.977,0-1.673-0.284-2.089-0.852c-0.416-0.568-0.655-1.196-0.72-1.885c-0.008-0.079-0.014-0.157-0.018-0.233
			c-0.005-0.076-0.006-0.154-0.006-0.234c0-0.943,0.279-1.716,0.84-2.315c0.56-0.601,1.195-0.9,1.907-0.9
			c0.944,0,1.631,0.308,2.059,0.924s0.658,1.296,0.689,2.04c0,0.032,0,0.063,0,0.09c0,0.028,0,0.055,0,0.078
			c0,0.024,0,0.048,0,0.072c0,0.023,0,0.044,0,0.06c-0.008,0.024-0.012,0.048-0.012,0.072s0,0.048,0,0.072l-4.632-0.013
			c0,0.129,0.01,0.261,0.03,0.396c0.02,0.136,0.05,0.276,0.09,0.42c0.104,0.393,0.296,0.75,0.576,1.074
			c0.279,0.324,0.664,0.486,1.151,0.486c0.017,0,0.028,0,0.036,0s0.021,0,0.036,0c0.008,0,0.018,0,0.03,0c0.012,0,0.021,0,0.03,0
			c0.455-0.032,0.806-0.137,1.05-0.313c0.243-0.176,0.422-0.364,0.534-0.564c0.063-0.119,0.111-0.233,0.144-0.342
			c0.032-0.107,0.056-0.206,0.072-0.294V6.888z M152.914,5.346c0-0.012,0.004-0.026,0.012-0.042c0-0.016,0-0.03,0-0.042
			s0-0.026,0-0.042c0-0.512-0.148-0.918-0.444-1.218c-0.296-0.301-0.624-0.486-0.983-0.559c-0.064-0.016-0.128-0.027-0.192-0.036
			c-0.064-0.008-0.128-0.012-0.191-0.012c-0.12,0-0.257,0.01-0.408,0.03c-0.152,0.02-0.309,0.07-0.469,0.149
			c-0.216,0.104-0.426,0.294-0.63,0.57s-0.361,0.69-0.474,1.242l3.78-0.012C152.914,5.368,152.914,5.357,152.914,5.346z"/>
		<path fill="#020202" d="M155.757,3.18c0.448-0.264,0.94-0.408,1.477-0.432c0.031-0.008,0.065-0.013,0.102-0.013s0.074,0,0.114,0
			c0.567,0,1.056,0.146,1.464,0.438s0.612,0.842,0.612,1.649c0,1.408,0.002,2.351,0.006,2.826c0.004,0.477,0.025,0.858,0.065,1.146
			c0,0.032,0.002,0.062,0.007,0.09c0.004,0.028,0.01,0.054,0.018,0.078h-0.756c-0.008-0.008-0.012-0.017-0.012-0.024
			c-0.041-0.176-0.068-0.416-0.084-0.72c-0.112,0.2-0.267,0.366-0.463,0.498c-0.195,0.132-0.401,0.229-0.617,0.294
			c-0.145,0.048-0.286,0.084-0.427,0.107c-0.14,0.024-0.266,0.036-0.378,0.036c-0.712,0-1.237-0.195-1.578-0.588
			c-0.34-0.392-0.51-0.823-0.51-1.296c0.048-0.848,0.393-1.39,1.032-1.626c0.64-0.235,1.62-0.354,2.94-0.354
			c0-0.473-0.066-0.906-0.198-1.303c-0.132-0.396-0.506-0.594-1.122-0.594c-0.473,0-0.842,0.092-1.11,0.276
			c-0.268,0.184-0.401,0.439-0.401,0.768l-0.853-0.012C155.085,3.859,155.309,3.443,155.757,3.18z M158.77,5.939
			c-0.041,0.008-0.083,0.012-0.126,0.012c-0.045,0-0.087,0-0.126,0c-0.721,0-1.379,0.064-1.975,0.192s-0.894,0.504-0.894,1.128
			c0,0.416,0.136,0.725,0.407,0.924c0.272,0.2,0.58,0.301,0.925,0.301c0.04,0,0.078-0.002,0.113-0.007
			c0.036-0.004,0.07-0.006,0.103-0.006c0.168-0.016,0.33-0.056,0.485-0.12c0.156-0.063,0.299-0.144,0.427-0.239
			c0.208-0.16,0.372-0.38,0.492-0.66c0.119-0.28,0.184-0.641,0.191-1.08c0-0.064-0.002-0.132-0.006-0.204s-0.01-0.148-0.018-0.229
			V5.939z"/>
		<path fill="#020202" d="M162.159,8.111c0.324,0.2,0.674,0.301,1.05,0.301c0.473,0,0.874-0.101,1.206-0.301
			c0.332-0.199,0.498-0.512,0.498-0.936c0-0.392-0.174-0.662-0.521-0.811c-0.349-0.147-0.742-0.273-1.183-0.378
			c-0.04-0.008-0.08-0.016-0.12-0.023s-0.08-0.017-0.119-0.024c-0.48-0.111-0.923-0.27-1.326-0.474
			c-0.404-0.204-0.606-0.578-0.606-1.122c0-0.424,0.174-0.798,0.522-1.122c0.348-0.324,0.897-0.486,1.649-0.486
			c0.616,0,1.152,0.099,1.608,0.294c0.456,0.196,0.708,0.603,0.756,1.219l-0.852-0.013c-0.049-0.271-0.206-0.493-0.475-0.666
			c-0.268-0.172-0.614-0.258-1.038-0.258s-0.728,0.066-0.912,0.198c-0.184,0.132-0.304,0.274-0.359,0.426
			c-0.017,0.056-0.028,0.11-0.036,0.162s-0.012,0.102-0.012,0.15c0,0.296,0.147,0.51,0.443,0.642s0.641,0.246,1.032,0.342
			c0.08,0.024,0.158,0.044,0.234,0.061c0.075,0.016,0.153,0.035,0.233,0.06c0.48,0.128,0.922,0.309,1.326,0.54
			c0.404,0.232,0.606,0.632,0.606,1.2c0,0.656-0.261,1.164-0.78,1.523c-0.521,0.36-1.112,0.54-1.776,0.54
			c-0.112,0-0.228-0.006-0.348-0.018s-0.24-0.03-0.36-0.054c-0.392-0.08-0.756-0.265-1.092-0.553s-0.524-0.739-0.563-1.355
			l0.756-0.012C161.649,7.596,161.835,7.912,162.159,8.111z"/>
		<path fill="#020202" d="M171.43,6.888h0.852c-0.191,0.808-0.516,1.372-0.972,1.692c-0.456,0.319-1.017,0.479-1.68,0.479
			c-0.977,0-1.673-0.284-2.089-0.852c-0.416-0.568-0.655-1.196-0.72-1.885c-0.008-0.079-0.014-0.157-0.018-0.233
			c-0.005-0.076-0.006-0.154-0.006-0.234c0-0.943,0.279-1.716,0.84-2.315c0.56-0.601,1.195-0.9,1.907-0.9
			c0.944,0,1.631,0.308,2.059,0.924s0.658,1.296,0.689,2.04c0,0.032,0,0.063,0,0.09c0,0.028,0,0.055,0,0.078
			c0,0.024,0,0.048,0,0.072c0,0.023,0,0.044,0,0.06c-0.008,0.024-0.012,0.048-0.012,0.072s0,0.048,0,0.072l-4.632-0.013
			c0,0.129,0.01,0.261,0.03,0.396c0.02,0.136,0.05,0.276,0.09,0.42c0.104,0.393,0.296,0.75,0.576,1.074
			c0.279,0.324,0.664,0.486,1.151,0.486c0.017,0,0.028,0,0.036,0s0.021,0,0.036,0c0.008,0,0.018,0,0.03,0c0.012,0,0.021,0,0.03,0
			c0.455-0.032,0.806-0.137,1.05-0.313c0.243-0.176,0.422-0.364,0.534-0.564c0.063-0.119,0.111-0.233,0.144-0.342
			c0.032-0.107,0.056-0.206,0.072-0.294V6.888z M171.43,5.346c0-0.012,0.004-0.026,0.012-0.042c0-0.016,0-0.03,0-0.042
			s0-0.026,0-0.042c0-0.512-0.148-0.918-0.444-1.218c-0.296-0.301-0.624-0.486-0.983-0.559c-0.064-0.016-0.128-0.027-0.192-0.036
			c-0.064-0.008-0.128-0.012-0.191-0.012c-0.12,0-0.257,0.01-0.408,0.03c-0.152,0.02-0.309,0.07-0.469,0.149
			c-0.216,0.104-0.426,0.294-0.63,0.57s-0.361,0.69-0.474,1.242l3.78-0.012C171.43,5.368,171.43,5.357,171.43,5.346z"/>
	</g>
</g>
</svg>
