<?xml version="1.0" encoding="utf-8"?>
<!-- Generator: Adobe Illustrator 17.0.0, SVG Export Plug-In . SVG Version: 6.00 Build 0)  -->
<!DOCTYPE svg PUBLIC "-//W3C//DTD SVG 1.1//EN" "http://www.w3.org/Graphics/SVG/1.1/DTD/svg11.dtd">
<svg version="1.1" id="Layer_1" xmlns="http://www.w3.org/2000/svg" xmlns:xlink="http://www.w3.org/1999/xlink" x="0px" y="0px"
	 width="105.913px" height="94.31px" viewBox="0 0 105.913 94.31" enable-background="new 0 0 105.913 94.31" xml:space="preserve">
<g>
	
		<radialGradient id="SVGID_2_" cx="-326.3842" cy="103.1963" r="42.6243" gradientTransform="matrix(1.2424 0 0 1.1063 458.4564 -67.011)" gradientUnits="userSpaceOnUse">
		<stop  offset="0" style="stop-color:#022538"/>
		<stop  offset="0.3137" style="stop-color:#02263A"/>
		<stop  offset="0.4267" style="stop-color:#022941"/>
		<stop  offset="0.5073" style="stop-color:#022E4C"/>
		<stop  offset="0.5725" style="stop-color:#02365D"/>
		<stop  offset="0.6283" style="stop-color:#014073"/>
		<stop  offset="0.6777" style="stop-color:#014D8F"/>
		<stop  offset="0.7224" style="stop-color:#015BAF"/>
		<stop  offset="0.7621" style="stop-color:#006CD3"/>
		<stop  offset="0.7988" style="stop-color:#007FFC"/>
		<stop  offset="0.801" style="stop-color:#0080FF"/>
		<stop  offset="0.8223" style="stop-color:#2694F9;stop-opacity:0.893"/>
		<stop  offset="0.8472" style="stop-color:#4BA8F2;stop-opacity:0.7679"/>
		<stop  offset="0.8733" style="stop-color:#6AB8ED;stop-opacity:0.6367"/>
		<stop  offset="0.9005" style="stop-color:#82C4E9;stop-opacity:0.5"/>
		<stop  offset="0.9293" style="stop-color:#93CDE6;stop-opacity:0.3552"/>
		<stop  offset="0.9608" style="stop-color:#9DD2E5;stop-opacity:0.197"/>
		<stop  offset="1" style="stop-color:#A0D4E4;stop-opacity:0"/>
	</radialGradient>
	<ellipse fill="url(#SVGID_2_)" cx="52.957" cy="47.155" rx="52.957" ry="47.155"/>
	<g>
		<g>
			<g>
				<path fill="#FFFFFF" d="M40.127,31.402v-1.066h2.227v4.708l-0.536,0.201c-0.188,0.063-0.394,0.112-0.618,0.147
					c-0.34,0.063-0.666,0.092-0.98,0.087c-0.828,0-1.416-0.235-1.768-0.705c-0.307-0.411-0.462-1.153-0.466-2.227v-3.42
					c0.004-0.97,0.063-1.634,0.179-1.992c0.217-0.666,0.616-1.084,1.198-1.254c0.274-0.081,0.567-0.123,0.878-0.127
					c0.693,0.014,1.217,0.209,1.568,0.587c0.353,0.378,0.534,1.005,0.545,1.881v0.309h-1.051v-0.214
					c0-0.148-0.012-0.302-0.033-0.463c-0.086-0.688-0.419-1.033-0.997-1.033c-0.524,0.014-0.868,0.219-1.035,0.617
					c-0.101,0.219-0.159,0.465-0.173,0.738c-0.021,0.246-0.031,0.512-0.027,0.798v3.354c-0.004,0.724,0.049,1.218,0.157,1.482
					c0.166,0.416,0.517,0.617,1.052,0.604c0.198,0.004,0.398-0.025,0.602-0.087l0.455-0.167v-2.757H40.127z"/>
				<path fill="#FFFFFF" d="M44.603,28.759v0.812c0.15-0.326,0.328-0.559,0.53-0.697c0.134-0.094,0.264-0.159,0.391-0.195
					l0.313-0.054v1.208l-0.33,0.04c-0.354,0.054-0.598,0.237-0.731,0.55c-0.116,0.291-0.173,0.72-0.173,1.288v3.635h-0.986v-6.586
					H44.603z"/>
				<path fill="#FFFFFF" d="M46.418,31.274c0.004-0.684,0.061-1.196,0.169-1.536c0.169-0.51,0.475-0.843,0.915-1
					c0.207-0.076,0.424-0.114,0.65-0.114c0.225,0,0.441,0.038,0.65,0.114c0.275,0.098,0.492,0.262,0.65,0.49
					c0.279,0.398,0.422,1.08,0.429,2.045v1.65c0.003,0.872-0.104,1.489-0.325,1.851c-0.281,0.474-0.742,0.709-1.382,0.705
					c-1.016,0.013-1.585-0.523-1.708-1.61c-0.035-0.286-0.052-0.601-0.049-0.946V31.274z M47.405,32.924l0.017,0.637
					c0.031,0.667,0.279,0.997,0.742,0.993c0.321-0.009,0.534-0.201,0.639-0.577c0.063-0.219,0.093-0.57,0.093-1.053v-1.757
					c0-1.086-0.249-1.625-0.748-1.616c-0.448-0.009-0.688,0.322-0.721,0.993l-0.021,0.624V32.924z"/>
				<path fill="#FFFFFF" d="M51.908,28.759v4.44c0.004,0.47,0.025,0.771,0.065,0.906c0.098,0.309,0.292,0.458,0.585,0.449
					c0.191,0.004,0.353-0.054,0.482-0.174c0.162-0.139,0.268-0.36,0.314-0.664c0.029-0.179,0.043-0.375,0.043-0.59v-4.366h0.986
					v6.586h-0.986v-0.583l-0.184,0.268c-0.246,0.3-0.576,0.45-0.992,0.45c-0.368,0-0.68-0.132-0.932-0.396
					c-0.235-0.246-0.356-0.619-0.363-1.12l-0.006-0.711v-4.494H51.908z"/>
				<path fill="#FFFFFF" d="M55.425,28.759h0.986v0.657c0.123-0.192,0.231-0.335,0.325-0.429c0.228-0.237,0.519-0.357,0.872-0.362
					c0.684,0,1.092,0.452,1.226,1.355c0.036,0.259,0.054,0.519,0.054,0.778v2.046c0,0.389-0.016,0.76-0.049,1.113
					c-0.09,1.033-0.531,1.554-1.322,1.563c-0.35-0.005-0.627-0.112-0.828-0.322c-0.084-0.071-0.176-0.183-0.277-0.335v2.964h-0.986
					V28.759z M56.412,32.804c-0.004,0.268,0.008,0.532,0.033,0.792c0.018,0.228,0.056,0.407,0.113,0.537
					c0.111,0.291,0.32,0.432,0.623,0.422c0.423-0.009,0.654-0.34,0.693-0.993c0.019-0.255,0.027-0.516,0.027-0.785v-1.784
					l-0.016-0.537c-0.055-0.612-0.282-0.914-0.684-0.905c-0.299-0.004-0.513,0.163-0.639,0.503
					c-0.068,0.174-0.112,0.362-0.131,0.563c-0.018,0.201-0.025,0.425-0.021,0.671V32.804z"/>
				<path fill="#FFFFFF" d="M63.133,27.136l0.471-0.355c0.145-0.116,0.326-0.291,0.543-0.523l0.33-0.349h0.818v9.437h-0.986v-7.975
					l-0.363,0.355c-0.152,0.147-0.298,0.261-0.439,0.342l-0.373,0.188V27.136z"/>
				<path fill="#FFFFFF" d="M67.669,28.759h1.165v1.442h-1.165V28.759z M68.834,33.904v1.442h-1.165v-1.442H68.834z"/>
				<path fill="#FFFFFF" d="M32.002,41.255c0.391,0.004,0.697,0.02,0.922,0.047c0.324,0.036,0.608,0.17,0.851,0.402
					c0.43,0.42,0.644,1.107,0.64,2.059c-0.008,1.852-0.672,2.775-1.994,2.77h-1.014v4.179h-1.052v-9.457H32.002z M31.406,42.321
					v3.146h0.855c0.445-0.004,0.746-0.145,0.906-0.422c0.126-0.219,0.191-0.624,0.194-1.214c0-0.545-0.097-0.933-0.292-1.161
					s-0.518-0.344-0.965-0.349H31.406z"/>
				<path fill="#FFFFFF" d="M34.826,45.279c0.039-0.259,0.136-0.493,0.289-0.701c0.154-0.208,0.336-0.352,0.545-0.433
					c0.25-0.098,0.51-0.149,0.78-0.154c0.314,0,0.601,0.054,0.856,0.161c0.322,0.13,0.557,0.416,0.705,0.858
					c0.075,0.233,0.113,0.646,0.113,1.241v4.46h-0.986v-0.711c-0.181,0.335-0.347,0.552-0.498,0.65
					c-0.195,0.134-0.429,0.199-0.699,0.195c-0.199,0.004-0.377-0.031-0.531-0.107c-0.506-0.215-0.756-0.796-0.748-1.744
					c0-0.398,0.032-0.756,0.098-1.073c0.107-0.55,0.447-0.917,1.019-1.1c0.228-0.076,0.462-0.125,0.704-0.147l0.656-0.027v-0.771
					c-0.008-0.653-0.228-0.973-0.661-0.959c-0.264,0.004-0.452,0.109-0.563,0.315c-0.08,0.147-0.131,0.402-0.152,0.764h-0.986
					C34.769,45.72,34.789,45.48,34.826,45.279z M37.129,47.573h-0.287c-0.816,0.049-1.218,0.51-1.203,1.382
					c-0.012,0.64,0.191,0.961,0.607,0.966c0.35,0.009,0.604-0.217,0.764-0.677c0.061-0.174,0.098-0.355,0.108-0.543l0.011-0.523
					V47.573z"/>
				<path fill="#FFFFFF" d="M39.692,44.125v-1.18l0.986-0.55v1.73h0.802v0.926h-0.802v3.87l0.006,0.436
					c0.011,0.349,0.189,0.532,0.536,0.55l0.26,0.013v0.838l-0.324,0.061c-0.123,0.022-0.248,0.031-0.375,0.027
					c-0.675,0-1.033-0.335-1.072-1.006l-0.017-0.724v-4.064h-0.698v-0.926H39.692z"/>
				<path fill="#FFFFFF" d="M43.459,41.242v1.234h-1.063v-1.234H43.459z M42.435,44.125h0.986v6.586h-0.986V44.125z"/>
				<path fill="#FFFFFF" d="M45.361,48.559c-0.004,0.447,0.025,0.76,0.087,0.939c0.095,0.272,0.308,0.414,0.64,0.422
					c0.441,0,0.688-0.25,0.742-0.751l0.021-0.282v-0.154h0.986v0.154l-0.016,0.456c-0.08,1.006-0.663,1.507-1.75,1.502
					c-0.254,0.004-0.486-0.031-0.699-0.107c-0.282-0.089-0.503-0.262-0.662-0.517c-0.217-0.322-0.328-0.896-0.336-1.724v-1.865
					c-0.004-0.921,0.1-1.563,0.309-1.925c0.279-0.479,0.762-0.718,1.447-0.718c1.055,0.014,1.617,0.563,1.686,1.65
					c0.015,0.21,0.021,0.454,0.021,0.731v1.476h-2.477V48.559z M45.361,46.922h1.49v-0.758c-0.003-0.818-0.25-1.234-0.742-1.248
					c-0.314,0.009-0.529,0.172-0.645,0.49c-0.068,0.183-0.104,0.51-0.104,0.979V46.922z"/>
				<path fill="#FFFFFF" d="M48.769,44.125h0.987v0.577c0.288-0.474,0.691-0.711,1.208-0.711c0.21,0,0.406,0.047,0.592,0.141
					c0.418,0.21,0.641,0.628,0.666,1.254l0.011,0.845v4.48h-0.986V46.56l-0.011-0.664c-0.018-0.652-0.248-0.979-0.688-0.979
					c-0.333,0.009-0.553,0.174-0.661,0.496c-0.062,0.179-0.1,0.373-0.113,0.581c-0.016,0.208-0.021,0.428-0.017,0.661v4.058h-0.987
					V44.125z"/>
				<path fill="#FFFFFF" d="M53.816,44.125v-1.18l0.986-0.55v1.73h0.802v0.926h-0.802v3.87l0.006,0.436
					c0.01,0.349,0.189,0.532,0.535,0.55l0.261,0.013v0.838l-0.325,0.061c-0.123,0.022-0.248,0.031-0.374,0.027
					c-0.675,0-1.033-0.335-1.073-1.006l-0.016-0.724v-4.064h-0.699v-0.926H53.816z"/>
				<path fill="#FFFFFF" d="M57.404,48.706v0.241l0.016,0.269c0.062,0.483,0.278,0.718,0.65,0.704
					c0.441-0.004,0.668-0.268,0.684-0.792c0-0.179-0.037-0.337-0.109-0.476c-0.098-0.17-0.221-0.331-0.368-0.483l-0.493-0.456
					l-0.52-0.483c-0.236-0.228-0.405-0.443-0.51-0.644c-0.131-0.246-0.193-0.559-0.189-0.939c0-1.1,0.518-1.652,1.555-1.657
					c0.271,0,0.521,0.045,0.754,0.134c0.455,0.174,0.707,0.57,0.758,1.187l0.017,0.503v0.214h-0.986v-0.208v-0.241
					c-0.032-0.434-0.222-0.655-0.569-0.664c-0.354-0.004-0.534,0.224-0.541,0.684c0,0.17,0.03,0.311,0.092,0.422
					c0.079,0.148,0.207,0.304,0.385,0.47l0.612,0.557c0.538,0.47,0.867,0.87,0.986,1.201c0.072,0.219,0.11,0.469,0.114,0.751
					c-0.008,0.595-0.166,1.058-0.478,1.389c-0.285,0.299-0.677,0.451-1.176,0.456c-1.009-0.005-1.56-0.528-1.653-1.57l-0.016-0.335
					v-0.235H57.404z"/>
				<path fill="#FFFFFF" d="M63.853,44.125l0.823,5.708l0.792-5.708h1.376l0.878,5.735l0.824-5.735h0.91l-1.09,6.586h-1.376
					l-0.867-5.574l-0.802,5.574h-1.377l-1.09-6.586H63.853z"/>
				<path fill="#FFFFFF" d="M71.294,41.242v1.234h-1.062v-1.234H71.294z M70.269,44.125h0.986v6.586h-0.986V44.125z"/>
				<path fill="#FFFFFF" d="M72.849,44.125v-1.18l0.986-0.55v1.73h0.803v0.926h-0.803v3.87l0.006,0.436
					c0.011,0.349,0.189,0.532,0.536,0.55l0.261,0.013v0.838l-0.326,0.061c-0.122,0.022-0.247,0.031-0.373,0.027
					c-0.676,0-1.033-0.335-1.073-1.006l-0.017-0.724v-4.064H72.15v-0.926H72.849z"/>
				<path fill="#FFFFFF" d="M75.581,41.242h0.987v3.46l0.189-0.228c0.292-0.326,0.627-0.487,1.002-0.483
					c0.81,0.014,1.232,0.508,1.269,1.482l0.017,0.792v4.447h-0.986V46.54l-0.006-0.49c-0.011-0.357-0.053-0.619-0.125-0.785
					c-0.102-0.228-0.285-0.344-0.553-0.349c-0.354,0-0.585,0.17-0.693,0.51c-0.062,0.179-0.096,0.362-0.104,0.55l-0.01,0.537v4.199
					h-0.987V41.242z"/>
				<path fill="#FFFFFF" d="M28.631,61.765c-0.004-0.859,0.104-1.453,0.32-1.784c0.268-0.407,0.727-0.615,1.377-0.624
					c1.04,0.009,1.563,0.548,1.566,1.617v0.369v0.181h-0.986v-0.181l-0.012-0.329c-0.036-0.483-0.229-0.727-0.58-0.731
					c-0.451-0.004-0.683,0.293-0.693,0.892l-0.006,0.496v2.086l0.012,0.671c0.018,0.568,0.24,0.854,0.666,0.858
					c0.441-0.004,0.667-0.34,0.678-1.006v-0.269h0.986v0.302c-0.015,1.284-0.557,1.916-1.626,1.898
					c-0.325,0-0.614-0.056-0.867-0.168c-0.553-0.223-0.831-0.952-0.835-2.187V61.765z"/>
				<path fill="#FFFFFF" d="M33.899,56.607v9.47h-0.986v-9.47H33.899z"/>
				<path fill="#FFFFFF" d="M35.985,56.607v1.234h-1.062v-1.234H35.985z M34.961,59.491h0.986v6.586h-0.986V59.491z"/>
				<path fill="#FFFFFF" d="M36.999,59.491h0.987v0.577c0.288-0.474,0.691-0.711,1.208-0.711c0.21,0,0.406,0.047,0.591,0.141
					c0.419,0.21,0.641,0.628,0.666,1.254l0.012,0.845v4.48h-0.986v-4.152l-0.012-0.664c-0.018-0.652-0.247-0.979-0.688-0.979
					c-0.333,0.009-0.553,0.174-0.662,0.496c-0.061,0.179-0.1,0.373-0.113,0.581c-0.015,0.208-0.02,0.428-0.016,0.661v4.058h-0.987
					V59.491z"/>
				<path fill="#FFFFFF" d="M42.537,56.607v1.234h-1.062v-1.234H42.537z M41.513,59.491H42.5v6.586h-0.986V59.491z"/>
				<path fill="#FFFFFF" d="M43.578,61.765c-0.004-0.859,0.104-1.453,0.32-1.784c0.268-0.407,0.727-0.615,1.377-0.624
					c1.04,0.009,1.563,0.548,1.566,1.617v0.369v0.181h-0.986v-0.181l-0.012-0.329c-0.036-0.483-0.229-0.727-0.58-0.731
					c-0.451-0.004-0.683,0.293-0.693,0.892l-0.006,0.496v2.086l0.012,0.671c0.018,0.568,0.24,0.854,0.666,0.858
					c0.441-0.004,0.667-0.34,0.678-1.006v-0.269h0.986v0.302c-0.015,1.284-0.557,1.916-1.626,1.898
					c-0.325,0-0.614-0.056-0.867-0.168c-0.553-0.223-0.831-0.952-0.835-2.187V61.765z"/>
				<path fill="#FFFFFF" d="M48.028,60.645c0.04-0.259,0.136-0.493,0.29-0.701c0.153-0.208,0.335-0.352,0.545-0.433
					c0.249-0.098,0.509-0.149,0.779-0.154c0.314,0,0.601,0.054,0.857,0.161c0.321,0.13,0.556,0.416,0.704,0.858
					c0.075,0.233,0.114,0.646,0.114,1.241v4.46h-0.986v-0.711c-0.182,0.335-0.348,0.552-0.499,0.65
					c-0.195,0.134-0.429,0.199-0.699,0.195c-0.198,0.004-0.376-0.031-0.531-0.107c-0.506-0.215-0.755-0.796-0.747-1.744
					c0-0.398,0.031-0.756,0.097-1.073c0.108-0.55,0.448-0.917,1.019-1.1c0.229-0.076,0.463-0.125,0.705-0.147l0.656-0.027v-0.771
					c-0.008-0.653-0.229-0.973-0.662-0.959c-0.264,0.004-0.451,0.109-0.563,0.315c-0.079,0.147-0.13,0.402-0.151,0.764h-0.986
					C47.972,61.085,47.992,60.846,48.028,60.645z M50.332,62.938h-0.287c-0.817,0.049-1.219,0.51-1.203,1.382
					c-0.012,0.64,0.191,0.961,0.606,0.966c0.351,0.009,0.604-0.217,0.765-0.677c0.061-0.174,0.098-0.355,0.107-0.543l0.012-0.523
					V62.938z"/>
				<path fill="#FFFFFF" d="M53.349,56.607v9.47h-0.986v-9.47H53.349z"/>
				<path fill="#FFFFFF" d="M58.515,56.62h1.381l1.762,9.457h-1.105l-0.363-2.16h-2.043l-0.374,2.16h-1.019L58.515,56.62z
					 M58.325,62.851h1.669l-0.807-5.037L58.325,62.851z"/>
				<path fill="#FFFFFF" d="M63.588,62.905v0.53c-0.004,0.268,0.018,0.519,0.064,0.751c0.105,0.644,0.447,0.964,1.025,0.959
					c0.217,0.004,0.413-0.041,0.59-0.134c0.395-0.188,0.598-0.637,0.613-1.348c-0.004-0.487-0.137-0.865-0.396-1.133
					c-0.184-0.184-0.402-0.365-0.656-0.543l-0.764-0.53c-0.303-0.206-0.557-0.418-0.758-0.637c-0.424-0.447-0.635-1.091-0.635-1.932
					c0.008-0.917,0.244-1.567,0.71-1.952c0.347-0.291,0.823-0.44,1.431-0.45c0.74,0,1.275,0.215,1.604,0.644
					c0.26,0.344,0.39,1.02,0.39,2.025v0.188h-1.051v-0.228l-0.021-0.49c-0.065-0.729-0.378-1.086-0.938-1.073
					c-0.709,0.005-1.066,0.438-1.074,1.301c0,0.55,0.223,0.997,0.667,1.341c0.274,0.219,0.585,0.439,0.933,0.661
					c0.347,0.222,0.629,0.431,0.846,0.627c0.509,0.474,0.764,1.185,0.764,2.133c-0.011,1.73-0.761,2.596-2.249,2.596
					c-0.64,0.009-1.131-0.152-1.474-0.483c-0.405-0.394-0.624-0.955-0.656-1.684l-0.017-0.765v-0.375H63.588z"/>
				<path fill="#FFFFFF" d="M71.224,59.122l-0.006-0.443c-0.025-0.755-0.322-1.131-0.889-1.127c-0.502,0.005-0.829,0.204-0.98,0.597
					c-0.084,0.192-0.129,0.385-0.137,0.577l-0.01,0.778v3.729c0.003,0.675,0.047,1.111,0.129,1.308
					c0.174,0.403,0.475,0.604,0.9,0.604c0.561-0.004,0.876-0.407,0.948-1.208l0.044-0.61v-0.322h1.051v0.329l-0.011,0.59
					c-0.032,0.707-0.191,1.248-0.478,1.623c-0.173,0.232-0.377,0.396-0.611,0.49c-0.279,0.116-0.582,0.174-0.91,0.174
					c-0.283,0.004-0.552-0.034-0.809-0.114c-0.867-0.246-1.303-1.129-1.306-2.649v-3.769c-0.004-0.407,0.013-0.787,0.049-1.14
					c0.036-0.434,0.13-0.792,0.282-1.073c0.336-0.64,0.938-0.966,1.805-0.979c1.217,0.014,1.871,0.602,1.961,1.764
					c0.019,0.219,0.027,0.467,0.027,0.745v0.369h-1.051V59.122z"/>
				<path fill="#FFFFFF" d="M74.107,56.62l1.225,8.001l1.192-8.001h1.019l-1.625,9.457h-1.285l-1.626-9.457H74.107z"/>
				<path fill="#FFFFFF" d="M78.573,56.62h1.875c0.311,0,0.604,0.027,0.884,0.081c0.317,0.058,0.598,0.19,0.84,0.396
					c0.419,0.349,0.662,0.836,0.731,1.462c0.032,0.309,0.05,0.655,0.054,1.04v3.481c-0.01,1.167-0.175,1.952-0.492,2.354
					c-0.242,0.309-0.533,0.505-0.873,0.59c-0.145,0.036-0.479,0.054-1.003,0.054h-2.016V56.62z M79.625,57.687v7.324h0.97
					c0.581,0,0.954-0.186,1.116-0.557c0.134-0.313,0.199-0.83,0.195-1.549v-3.206c0-0.72-0.07-1.214-0.211-1.482
					c-0.186-0.344-0.552-0.521-1.101-0.53H79.625z"/>
			</g>
		</g>
	</g>
</g>
</svg>
