<?xml version="1.0" encoding="utf-8"?>
<!-- Generator: Adobe Illustrator 17.0.0, SVG Export Plug-In . SVG Version: 6.00 Build 0)  -->
<!DOCTYPE svg PUBLIC "-//W3C//DTD SVG 1.1//EN" "http://www.w3.org/Graphics/SVG/1.1/DTD/svg11.dtd">
<svg version="1.1" id="Layer_1" xmlns="http://www.w3.org/2000/svg" xmlns:xlink="http://www.w3.org/1999/xlink" x="0px" y="0px"
	 width="559.856px" height="116.895px" viewBox="0 0 559.856 116.895" enable-background="new 0 0 559.856 116.895"
	 xml:space="preserve">
<g>
	<g>
		<defs>
			<path id="SVGID_377_" d="M30.768,0C13.772,0,0,10.645,0,23.778V93.13c0,13.12,13.772,23.765,30.768,23.765H529.09
				c16.991,0,30.766-10.645,30.766-23.765V23.778C559.856,10.645,546.081,0,529.09,0H30.768z"/>
		</defs>
		<clipPath id="SVGID_2_">
			<use xlink:href="#SVGID_377_"  overflow="visible"/>
		</clipPath>
		
			<linearGradient id="SVGID_4_" gradientUnits="userSpaceOnUse" x1="-1266.2097" y1="672.7961" x2="-1263.6715" y2="672.7961" gradientTransform="matrix(0 -46.0542 -46.7324 0 31721.3027 -58197.3789)">
			<stop  offset="0" style="stop-color:#414042"/>
			<stop  offset="0.0139" style="stop-color:#454446"/>
			<stop  offset="0.1522" style="stop-color:#69696B"/>
			<stop  offset="0.2969" style="stop-color:#87888A"/>
			<stop  offset="0.4479" style="stop-color:#9FA0A2"/>
			<stop  offset="0.6078" style="stop-color:#AFB1B3"/>
			<stop  offset="0.7825" style="stop-color:#B9BBBD"/>
			<stop  offset="1" style="stop-color:#BCBEC0"/>
		</linearGradient>
		<rect x="0" y="0" clip-path="url(#SVGID_2_)" fill="url(#SVGID_4_)" width="559.856" height="116.895"/>
	</g>
	<g>
		<defs>
			<path id="SVGID_380_" d="M30.768,8.823c-10.673,0-19.336,6.701-19.336,14.955V93.13c0,8.236,8.663,14.937,19.336,14.937H529.09
				c10.663,0,19.334-6.701,19.334-14.937V23.778c0-8.254-8.671-14.955-19.334-14.955H30.768z"/>
		</defs>
		<clipPath id="SVGID_6_">
			<use xlink:href="#SVGID_380_"  overflow="visible"/>
		</clipPath>
		
			<linearGradient id="SVGID_8_" gradientUnits="userSpaceOnUse" x1="-1265.9645" y1="669.0901" x2="-1263.4263" y2="669.0901" gradientTransform="matrix(0 -39.0996 -39.6754 0 26826.3477 -49390.6367)">
			<stop  offset="0" style="stop-color:#FFFFFF"/>
			<stop  offset="0.3022" style="stop-color:#F8F8F8"/>
			<stop  offset="0.7564" style="stop-color:#E6E5E3"/>
			<stop  offset="1" style="stop-color:#DAD8D5"/>
		</linearGradient>
		<rect x="11.432" y="8.823" clip-path="url(#SVGID_6_)" fill="url(#SVGID_8_)" width="536.992" height="99.244"/>
	</g>
	<g opacity="0.5">
		<g>
			<defs>
				<rect id="SVGID_383_" x="10.282" y="7.945" width="539.299" height="101.008"/>
			</defs>
			<clipPath id="SVGID_9_">
				<use xlink:href="#SVGID_383_"  overflow="visible"/>
			</clipPath>
			<g clip-path="url(#SVGID_9_)">
				<defs>
					<path id="SVGID_385_" d="M30.768,7.945c-11.292,0-20.486,7.094-20.486,15.831V93.13c0,8.724,9.194,15.823,20.486,15.823H529.09
						c11.295,0,20.491-7.099,20.491-15.823V23.775c0-8.736-9.196-15.831-20.491-15.831H30.768z"/>
				</defs>
				<clipPath id="SVGID_10_">
					<use xlink:href="#SVGID_385_"  overflow="visible"/>
				</clipPath>
				
					<linearGradient id="SVGID_11_" gradientUnits="userSpaceOnUse" x1="-1265.9905" y1="669.5092" x2="-1263.4523" y2="669.5092" gradientTransform="matrix(0 -39.7949 -40.381 0 27315.3828 -50271.0117)">
					<stop  offset="0" style="stop-color:#595A5C"/>
					<stop  offset="0.005" style="stop-color:#5C5D5F"/>
					<stop  offset="0.066" style="stop-color:#838385"/>
					<stop  offset="0.1322" style="stop-color:#A4A4A5"/>
					<stop  offset="0.2061" style="stop-color:#C0C1C1"/>
					<stop  offset="0.2882" style="stop-color:#D7D8D8"/>
					<stop  offset="0.3822" style="stop-color:#E9E9EA"/>
					<stop  offset="0.4954" style="stop-color:#F6F6F6"/>
					<stop  offset="0.6471" style="stop-color:#FDFDFD"/>
					<stop  offset="1" style="stop-color:#FFFFFF"/>
				</linearGradient>
				<rect x="10.282" y="7.945" clip-path="url(#SVGID_10_)" fill="url(#SVGID_11_)" width="539.299" height="101.008"/>
			</g>
		</g>
	</g>
	<g>
		<g>
			<path fill="#00728F" d="M129.672,13.485l5.76,16.35h-3.58l-1.193-3.528h-6.563l-1.239,3.528h-3.396l5.99-16.35H129.672z
				 M129.763,23.661l-2.295-6.965l-2.456,6.965H129.763z"/>
			<path fill="#00728F" d="M140.574,24.611c0,0.769-0.046,3.098,3.006,3.098c1.928,0,3.145-0.905,3.145-2.284
				c0-1.447-1.033-1.696-3.145-2.193c-3.947-0.973-6.104-2.126-6.104-4.953c0-2.691,1.951-5.065,6.563-5.065
				c1.722,0,3.764,0.385,5.003,1.922c0.941,1.176,0.941,2.487,0.941,3.03h-3.42c-0.046-0.565-0.229-2.488-2.685-2.488
				c-1.652,0-2.731,0.882-2.731,2.216c0,1.515,1.217,1.787,3.604,2.375c2.868,0.678,5.691,1.447,5.691,4.636
				c0,2.94-2.479,5.314-7.068,5.314c-6.357,0-6.403-4.025-6.426-5.608H140.574z"/>
			<path fill="#00728F" d="M162.607,18.822c-0.069-0.565-0.275-2.872-2.686-2.872c-2.639,0-3.74,2.714-3.74,6.083
				c0,0.973,0,5.608,3.465,5.608c1.492,0,2.915-0.927,2.983-3.098h3.741c-0.069,0.972-0.161,2.487-1.492,3.844
				c-1.469,1.493-3.327,1.832-4.842,1.832c-5.715,0-7.573-4.161-7.573-8.208c0-5.179,2.938-8.616,7.596-8.616
				c3.626,0,6.174,2.171,6.174,5.427H162.607z"/>
			<path fill="#00728F" d="M171.375,13.553l4.338,12.822l4.36-12.822h3.511l-6.104,16.282h-3.878l-6.104-16.282H171.375z"/>
			<path fill="#00728F" d="M185.513,13.531l5.485,0.022c0.918,0,3.718,0.022,5.714,1.47c2.089,1.515,2.823,4.093,2.823,6.422
				c0,5.02-2.731,7.644-5.875,8.208c-0.62,0.113-1.309,0.181-2.983,0.181h-5.164V13.531z M189.117,27.144
				c0.39,0.022,0.986,0.045,1.399,0.045c1.515,0,2.823-0.113,3.855-1.13c1.4-1.379,1.492-3.822,1.492-4.613
				c0-2.307-0.804-4.432-3.029-5.043c-0.734-0.203-1.676-0.316-3.718-0.226V27.144z"/>
			<path fill="#00728F" d="M208.261,13.301h-2.668v7.543h-1.263v-7.543h-2.716v-1.165h2.716V9.474h1.263v2.662h2.668V13.301z"/>
			<path fill="#00728F" d="M213.903,24.611c0,0.769-0.046,3.098,3.006,3.098c1.928,0,3.145-0.905,3.145-2.284
				c0-1.447-1.033-1.696-3.145-2.193c-3.947-0.973-6.104-2.126-6.104-4.953c0-2.691,1.951-5.065,6.563-5.065
				c1.722,0,3.764,0.385,5.003,1.922c0.941,1.176,0.941,2.487,0.941,3.03h-3.42c-0.046-0.565-0.229-2.488-2.685-2.488
				c-1.652,0-2.731,0.882-2.731,2.216c0,1.515,1.217,1.787,3.604,2.375c2.868,0.678,5.691,1.447,5.691,4.636
				c0,2.94-2.479,5.314-7.068,5.314c-6.357,0-6.403-4.025-6.426-5.608H213.903z"/>
			<path fill="#00728F" d="M233.09,29.677c-1.102,0.294-2.088,0.362-2.639,0.362c-3.42,0-3.42-2.126-3.42-3.076v-6.264h-2.226
				v-2.216h2.226v-2.239l3.374-1.221v3.46h2.754v2.216h-2.754v5.156c0.022,1.04,0.022,1.696,1.537,1.696
				c0.505,0,0.734-0.022,1.147-0.068V29.677z"/>
			<path fill="#00728F" d="M242.156,29.835c-0.115-0.701-0.115-1.221-0.115-1.561c-1.285,1.832-2.822,1.832-3.465,1.832
				c-1.676,0-2.433-0.475-2.892-0.905c-0.688-0.678-1.01-1.605-1.01-2.51c0-0.905,0.321-2.578,2.455-3.551
				c1.423-0.633,3.466-0.633,4.59-0.633c0-0.747-0.022-1.108-0.16-1.515c-0.299-0.837-1.193-0.95-1.515-0.95
				c-0.482,0-0.987,0.203-1.285,0.633c-0.253,0.385-0.253,0.747-0.253,1.018h-3.327c0.022-0.61,0.092-1.832,1.308-2.691
				c1.056-0.746,2.41-0.927,3.512-0.927c0.964,0,2.983,0.159,4.131,1.47c0.78,0.927,0.803,2.284,0.803,2.804l0.023,4.59
				c0,0.972,0.068,1.945,0.275,2.895H242.156z M237.979,26.307c0,0.769,0.527,1.628,1.652,1.628c0.619,0,1.124-0.294,1.445-0.656
				c0.597-0.724,0.643-1.605,0.643-2.827C239.54,24.272,237.979,24.951,237.979,26.307z"/>
			<path fill="#00728F" d="M254.779,29.677c-1.102,0.294-2.088,0.362-2.639,0.362c-3.42,0-3.42-2.126-3.42-3.076v-6.264h-2.226
				v-2.216h2.226v-2.239l3.374-1.221v3.46h2.754v2.216h-2.754v5.156c0.022,1.04,0.022,1.696,1.537,1.696
				c0.505,0,0.734-0.022,1.147-0.068V29.677z"/>
			<path fill="#00728F" d="M256.777,13.508h3.626v2.917h-3.626V13.508z M256.891,18.392h3.396v11.442h-3.396V18.392z"/>
			<path fill="#00728F" d="M263.318,20.45c0-0.045,0-1.289-0.068-2.08h3.259l0.092,1.718c0.321-0.52,1.239-1.99,3.764-1.99
				c2.271,0,3.235,1.357,3.534,2.148c0.252,0.701,0.321,1.289,0.321,3.415v6.173h-3.466v-7.101c0-0.475,0-0.882-0.184-1.244
				c-0.252-0.498-0.78-0.973-1.652-0.973c-0.734,0-1.399,0.339-1.767,0.882c-0.207,0.294-0.413,0.859-0.413,1.741v6.694h-3.42V20.45
				z"/>
			<path fill="#00728F" d="M283.745,13.508h6.196c0.964,0,2.823,0,4.085,0.769c1.515,0.95,1.859,2.533,1.859,3.482
				c0,0.611-0.115,1.673-0.964,2.442c-0.115,0.136-0.918,0.859-1.882,1.108v0.045c2.524,0.452,3.511,2.261,3.511,3.98
				c0,1.922-1.147,3.211-2.433,3.844c-1.285,0.656-3.534,0.656-4.177,0.656h-6.196V13.508z M287.141,20.156h2.479
				c1.01,0,2.846,0,2.846-2.103c0-2.035-1.744-2.035-2.914-2.035h-2.41V20.156z M287.141,27.212h2.41c1.629,0,3.465,0,3.465-2.194
				c0-2.329-2.134-2.329-3.832-2.329h-2.043V27.212z"/>
			<path fill="#00728F" d="M301.717,24.973c0,0.746,0,3.053,2.363,3.053c0.85,0,1.698-0.316,2.02-1.583h3.099
				c-0.046,0.543-0.161,1.515-1.102,2.487c-0.85,0.882-2.364,1.334-4.063,1.334c-0.986,0-2.868-0.181-4.085-1.425
				c-1.056-1.085-1.491-2.623-1.491-4.455c0-1.854,0.459-4.071,2.409-5.405c0.896-0.588,1.997-0.95,3.259-0.95
				c1.652,0,3.626,0.633,4.682,2.759c0.78,1.561,0.734,3.234,0.688,4.184H301.717z M306.031,22.87c0-0.52-0.046-2.556-2.02-2.556
				c-1.492,0-2.111,1.221-2.181,2.556H306.031z"/>
			<path fill="#00728F" d="M311.793,20.45c0-0.045,0-1.289-0.069-2.08h3.259l0.092,1.718c0.321-0.52,1.239-1.99,3.764-1.99
				c2.272,0,3.236,1.357,3.534,2.148c0.253,0.701,0.321,1.289,0.321,3.415v6.173h-3.465v-7.101c0-0.475,0-0.882-0.184-1.244
				c-0.253-0.498-0.78-0.973-1.652-0.973c-0.734,0-1.4,0.339-1.768,0.882c-0.206,0.294-0.413,0.859-0.413,1.741v6.694h-3.419V20.45z
				"/>
			<path fill="#00728F" d="M328.501,24.973c0,0.746,0,3.053,2.364,3.053c0.849,0,1.698-0.316,2.02-1.583h3.098
				c-0.046,0.543-0.16,1.515-1.102,2.487c-0.849,0.882-2.363,1.334-4.062,1.334c-0.987,0-2.869-0.181-4.085-1.425
				c-1.056-1.085-1.492-2.623-1.492-4.455c0-1.854,0.459-4.071,2.41-5.405c0.895-0.588,1.996-0.95,3.259-0.95
				c1.652,0,3.626,0.633,4.682,2.759c0.78,1.561,0.734,3.234,0.688,4.184H328.501z M332.815,22.87c0-0.52-0.046-2.556-2.02-2.556
				c-1.491,0-2.111,1.221-2.18,2.556H332.815z"/>
			<path fill="#00728F" d="M338.83,20.789h-1.744v-2.375h1.744v-1.56c0-2.013,0.665-3.641,3.97-3.641c0.253,0,0.896,0,1.836,0.113
				v2.329c-0.344-0.045-0.436-0.068-0.711-0.068c-1.722,0-1.722,0.905-1.722,1.493v1.334h2.135v2.375h-2.135v9.045h-3.373V20.789z
				 M346.058,13.508h3.626v2.917h-3.626V13.508z M346.174,18.392h3.396v11.442h-3.396V18.392z"/>
			<path fill="#00728F" d="M359.371,29.677c-1.102,0.294-2.089,0.362-2.64,0.362c-3.419,0-3.419-2.126-3.419-3.076v-6.264h-2.227
				v-2.216h2.227v-2.239l3.373-1.221v3.46h2.754v2.216h-2.754v5.156c0.023,1.04,0.023,1.696,1.538,1.696
				c0.505,0,0.734-0.022,1.147-0.068V29.677z"/>
			<path fill="#00728F" d="M379.086,18.505c-0.023-0.43-0.046-1.018-0.459-1.65c-0.688-1.085-1.997-1.267-2.777-1.267
				c-4.039,0-4.842,3.708-4.842,6.219c0,1.108,0.16,3.098,1.377,4.387c0.826,0.904,1.928,1.402,3.901,1.402
				c1.721,0,2.317-0.204,2.708-0.316v-3.438h-3.213v-2.713h6.77v8.164c-1.032,0.339-2.73,0.904-6.059,0.904
				c-3.786,0-5.737-0.904-7.045-2.171c-1.859-1.787-2.203-4.387-2.203-6.105c0-5.789,3.672-8.887,8.697-8.887
				c2.135,0,4.338,0.588,5.646,2.058c1.102,1.244,1.171,2.533,1.193,3.415H379.086z"/>
			<path fill="#00728F" d="M385.72,21.219c0-0.543-0.092-2.193-0.161-2.849h3.19l0.068,2.193c0.437-0.973,1.193-2.352,3.947-2.216
				v3.008c-3.442-0.317-3.648,1.425-3.648,2.849v5.631h-3.396V21.219z"/>
			<path fill="#00728F" d="M400.11,18.143c4.2,0,6.013,2.804,6.013,5.993c0,3.211-1.882,6.106-6.081,6.106
				c-3.305,0-5.921-2.013-5.921-6.015C394.121,21.468,395.544,18.143,400.11,18.143z M400.156,27.912
				c1.492,0,2.502-0.882,2.502-3.912c0-1.515-0.299-3.618-2.548-3.618c-2.479,0-2.501,2.827-2.501,3.867
				C397.609,26.805,398.481,27.912,400.156,27.912z"/>
			<path fill="#00728F" d="M412,18.415v6.807c0,0.995,0,2.51,1.813,2.51c2.181,0,2.181-1.605,2.181-3.55v-5.767h3.488v7.53
				c0.046,2.465,0.068,2.759,0.068,3.053c0.023,0.317,0.046,0.521,0.092,0.837h-3.305l-0.114-1.515
				c-0.345,0.498-1.217,1.809-3.42,1.809c-1.561,0-2.846-0.701-3.488-1.538c-0.757-0.927-0.757-2.51-0.757-3.076v-7.101H412z"/>
			<path fill="#00728F" d="M425.885,18.415l0.092,1.628c1.056-1.832,2.983-1.854,3.534-1.854c3.006,0,4.819,2.216,4.819,5.699
				c0,3.234-1.698,6.105-5.049,6.105c-2.089,0-2.938-1.085-3.236-1.47v5.699h-3.465V18.415H425.885z M430.888,24.023
				c0-1.357-0.345-3.686-2.341-3.686c-1.102,0-2.662,0.814-2.662,3.89c0,0.678,0.022,3.573,2.524,3.573
				C430.016,27.8,430.888,26.285,430.888,24.023z"/>
			<path fill="#00728F" d="M439.083,26.533c0.046,0.724,0.505,1.561,1.928,1.561c1.216,0,1.79-0.678,1.79-1.357
				c0-0.52-0.275-0.927-1.606-1.289l-2.111-0.565c-0.941-0.271-2.938-0.837-2.938-3.166c0-2.216,2.065-3.573,5.071-3.573
				c2.387,0,4.314,1.085,4.406,3.37h-3.098c-0.092-1.267-1.125-1.357-1.652-1.357c-0.918,0-1.606,0.43-1.606,1.131
				c0,0.769,0.573,0.927,1.583,1.198l2.089,0.565c2.111,0.565,3.098,1.628,3.098,3.188c0,1.967-1.721,3.935-5.324,3.935
				c-1.491,0-2.914-0.317-3.97-1.402c-0.758-0.792-0.826-1.696-0.85-2.239H439.083z"/>
			<path fill="#00728F" d="M447.974,14.485c0.869-0.369,1.699-0.831,2.476-1.384h1.726v9.202h-2.021v-7.159
				c-0.388,0.29-1.164,0.765-2.181,1.173V14.485z"/>
		</g>
	</g>
	<g>
		<g>
			<path fill="#231F20" d="M46.681,38.632h2.15v3.951h3.786v-3.951h2.178v9.885h-2.149v-4.334h-3.814v4.334h-2.15V38.632z"/>
			<path fill="#231F20" d="M58.317,45.578c0,0.451,0,1.846,1.429,1.846c0.513,0,1.026-0.191,1.22-0.957h1.873
				c-0.028,0.328-0.098,0.916-0.666,1.504c-0.513,0.533-1.429,0.807-2.455,0.807c-0.597,0-1.733-0.109-2.469-0.861
				c-0.638-0.656-0.901-1.586-0.901-2.693c0-1.121,0.277-2.461,1.456-3.268c0.541-0.355,1.207-0.574,1.97-0.574
				c0.999,0,2.191,0.383,2.829,1.668c0.472,0.943,0.444,1.955,0.416,2.529H58.317z M60.925,44.306c0-0.314-0.028-1.545-1.221-1.545
				c-0.901,0-1.276,0.738-1.317,1.545H60.925z"/>
			<path fill="#231F20" d="M68.58,48.517c-0.069-0.424-0.069-0.738-0.069-0.943c-0.776,1.107-1.706,1.107-2.095,1.107
				c-1.013,0-1.47-0.287-1.747-0.547c-0.416-0.41-0.61-0.971-0.61-1.518s0.194-1.559,1.484-2.146
				c0.859-0.383,2.094-0.383,2.773-0.383c0-0.451-0.014-0.67-0.097-0.916c-0.181-0.506-0.722-0.574-0.916-0.574
				c-0.291,0-0.596,0.123-0.776,0.383c-0.152,0.232-0.152,0.451-0.152,0.615h-2.012c0.014-0.369,0.056-1.107,0.791-1.627
				c0.638-0.451,1.456-0.561,2.122-0.561c0.582,0,1.803,0.096,2.496,0.889c0.472,0.561,0.486,1.381,0.486,1.695l0.014,2.775
				c0,0.588,0.041,1.176,0.166,1.75H68.58z M66.055,46.384c0,0.465,0.319,0.984,0.999,0.984c0.374,0,0.68-0.178,0.873-0.396
				c0.361-0.438,0.389-0.971,0.389-1.709C66.999,45.154,66.055,45.564,66.055,46.384z"/>
			<path fill="#231F20" d="M72.088,43.308c0-0.328-0.056-1.326-0.097-1.723h1.928l0.041,1.326c0.264-0.588,0.722-1.422,2.386-1.34
				v1.818c-2.08-0.191-2.205,0.861-2.205,1.723v3.404h-2.053V43.308z"/>
			<path fill="#231F20" d="M81.601,48.421c-0.665,0.178-1.262,0.219-1.595,0.219c-2.066,0-2.066-1.285-2.066-1.859v-3.787h-1.346
				v-1.34h1.346V40.3l2.039-0.738v2.092h1.664v1.34h-1.664v3.117c0.014,0.629,0.014,1.025,0.929,1.025
				c0.306,0,0.444-0.014,0.693-0.041V48.421z"/>
			<path fill="#231F20" d="M86.787,38.646h2.039v3.91c0.236-0.328,0.749-1.039,2.025-1.039c1.04,0,1.706,0.506,2.039,0.93
				c0.249,0.342,0.457,0.971,0.457,1.873v4.197h-2.039v-4.129c0-0.396,0-1.504-1.15-1.504c-0.583,0-1.318,0.328-1.318,1.408
				l0.015,4.225h-2.067V38.646z"/>
			<path fill="#231F20" d="M96.855,45.578c0,0.451,0,1.846,1.429,1.846c0.514,0,1.026-0.191,1.221-0.957h1.872
				c-0.027,0.328-0.097,0.916-0.665,1.504c-0.514,0.533-1.429,0.807-2.455,0.807c-0.597,0-1.734-0.109-2.47-0.861
				c-0.638-0.656-0.901-1.586-0.901-2.693c0-1.121,0.277-2.461,1.457-3.268c0.541-0.355,1.206-0.574,1.969-0.574
				c0.999,0,2.192,0.383,2.83,1.668c0.472,0.943,0.443,1.955,0.416,2.529H96.855z M99.463,44.306c0-0.314-0.027-1.545-1.221-1.545
				c-0.901,0-1.275,0.738-1.317,1.545H99.463z"/>
			<path fill="#231F20" d="M107.118,48.517c-0.069-0.424-0.069-0.738-0.069-0.943c-0.776,1.107-1.706,1.107-2.095,1.107
				c-1.013,0-1.47-0.287-1.747-0.547c-0.416-0.41-0.61-0.971-0.61-1.518s0.194-1.559,1.484-2.146
				c0.859-0.383,2.094-0.383,2.773-0.383c0-0.451-0.014-0.67-0.097-0.916c-0.181-0.506-0.722-0.574-0.916-0.574
				c-0.291,0-0.596,0.123-0.776,0.383c-0.152,0.232-0.152,0.451-0.152,0.615h-2.012c0.014-0.369,0.056-1.107,0.791-1.627
				c0.638-0.451,1.456-0.561,2.122-0.561c0.582,0,1.803,0.096,2.496,0.889c0.472,0.561,0.486,1.381,0.486,1.695l0.014,2.775
				c0,0.588,0.041,1.176,0.166,1.75H107.118z M104.594,46.384c0,0.465,0.319,0.984,0.999,0.984c0.374,0,0.68-0.178,0.873-0.396
				c0.361-0.438,0.389-0.971,0.389-1.709C105.537,45.154,104.594,45.564,104.594,46.384z"/>
			<path fill="#231F20" d="M110.626,38.632h2.054v9.885h-2.054V38.632z"/>
			<path fill="#231F20" d="M118.6,48.421c-0.665,0.178-1.262,0.219-1.595,0.219c-2.066,0-2.066-1.285-2.066-1.859v-3.787h-1.346
				v-1.34h1.346V40.3l2.039-0.738v2.092h1.664v1.34h-1.664v3.117c0.014,0.629,0.014,1.025,0.929,1.025
				c0.306,0,0.444-0.014,0.693-0.041V48.421z"/>
			<path fill="#231F20" d="M119.931,38.646h2.039v3.91c0.235-0.328,0.749-1.039,2.024-1.039c1.041,0,1.706,0.506,2.039,0.93
				c0.25,0.342,0.458,0.971,0.458,1.873v4.197h-2.039v-4.129c0-0.396,0-1.504-1.151-1.504c-0.582,0-1.317,0.328-1.317,1.408
				l0.014,4.225h-2.066V38.646z"/>
			<path fill="#231F20" d="M129.861,41.613l1.539,4.785l1.567-4.785h2.039l-2.649,6.781l-0.846,2.748h-2.066l0.888-2.598
				l-2.691-6.932H129.861z"/>
			<path fill="#231F20" d="M139.915,38.632h2.053v9.885h-2.053V38.632z"/>
			<path fill="#231F20" d="M143.701,38.646h2.191v1.764h-2.191V38.646z M143.77,41.599h2.053v6.918h-2.053V41.599z"/>
			<path fill="#231F20" d="M147.763,43.048h-1.04v-1.436h1.04v-0.943c0-1.217,0.417-2.201,2.414-2.201c0.139,0,0.527,0,1.109,0.068
				v1.408c-0.208-0.027-0.264-0.041-0.43-0.041c-1.055,0-1.055,0.547-1.055,0.902v0.807h1.304v1.436h-1.304v5.469h-2.039V43.048z"/>
			<path fill="#231F20" d="M153.894,45.578c0,0.451,0,1.846,1.429,1.846c0.513,0,1.026-0.191,1.22-0.957h1.873
				c-0.028,0.328-0.098,0.916-0.666,1.504c-0.513,0.533-1.429,0.807-2.455,0.807c-0.597,0-1.733-0.109-2.469-0.861
				c-0.638-0.656-0.901-1.586-0.901-2.693c0-1.121,0.277-2.461,1.456-3.268c0.541-0.355,1.207-0.574,1.97-0.574
				c0.999,0,2.191,0.383,2.829,1.668c0.472,0.943,0.444,1.955,0.416,2.529H153.894z M156.502,44.306
				c0-0.314-0.028-1.545-1.221-1.545c-0.901,0-1.276,0.738-1.317,1.545H156.502z"/>
			<path fill="#231F20" d="M161.383,46.521c0.027,0.438,0.305,0.943,1.165,0.943c0.735,0,1.082-0.41,1.082-0.82
				c0-0.314-0.167-0.561-0.971-0.779l-1.276-0.342c-0.568-0.164-1.775-0.506-1.775-1.914c0-1.34,1.248-2.16,3.065-2.16
				c1.442,0,2.607,0.656,2.663,2.037h-1.873c-0.055-0.766-0.68-0.82-0.998-0.82c-0.555,0-0.971,0.26-0.971,0.684
				c0,0.465,0.347,0.561,0.957,0.725l1.262,0.342c1.276,0.342,1.872,0.984,1.872,1.928c0,1.189-1.04,2.379-3.218,2.379
				c-0.901,0-1.761-0.191-2.399-0.848c-0.458-0.479-0.499-1.025-0.513-1.354H161.383z"/>
			<path fill="#231F20" d="M171.008,48.421c-0.666,0.178-1.263,0.219-1.596,0.219c-2.066,0-2.066-1.285-2.066-1.859v-3.787H166
				v-1.34h1.346V40.3l2.039-0.738v2.092h1.664v1.34h-1.664v3.117c0.014,0.629,0.014,1.025,0.93,1.025
				c0.305,0,0.443-0.014,0.693-0.041V48.421z"/>
			<path fill="#231F20" d="M173.795,41.613l1.539,4.785l1.567-4.785h2.039l-2.649,6.781l-0.846,2.748h-2.066l0.888-2.598
				l-2.691-6.932H173.795z"/>
			<path fill="#231F20" d="M179.993,38.632h2.053v9.885h-2.053V38.632z"/>
			<path fill="#231F20" d="M185.499,45.578c0,0.451,0,1.846,1.429,1.846c0.513,0,1.026-0.191,1.22-0.957h1.873
				c-0.028,0.328-0.098,0.916-0.666,1.504c-0.513,0.533-1.429,0.807-2.455,0.807c-0.597,0-1.733-0.109-2.469-0.861
				c-0.638-0.656-0.901-1.586-0.901-2.693c0-1.121,0.277-2.461,1.456-3.268c0.541-0.355,1.207-0.574,1.97-0.574
				c0.999,0,2.191,0.383,2.829,1.668c0.472,0.943,0.444,1.955,0.416,2.529H185.499z M188.106,44.306
				c0-0.314-0.028-1.545-1.221-1.545c-0.901,0-1.276,0.738-1.317,1.545H188.106z"/>
			<path fill="#231F20" d="M195.469,38.646h2.039v3.91c0.235-0.328,0.749-1.039,2.024-1.039c1.041,0,1.706,0.506,2.039,0.93
				c0.25,0.342,0.458,0.971,0.458,1.873v4.197h-2.039v-4.129c0-0.396,0-1.504-1.151-1.504c-0.582,0-1.317,0.328-1.317,1.408
				l0.014,4.225h-2.066V38.646z"/>
			<path fill="#231F20" d="M208.09,48.517c-0.069-0.424-0.069-0.738-0.069-0.943c-0.776,1.107-1.706,1.107-2.095,1.107
				c-1.013,0-1.47-0.287-1.747-0.547c-0.416-0.41-0.61-0.971-0.61-1.518s0.194-1.559,1.484-2.146
				c0.859-0.383,2.094-0.383,2.773-0.383c0-0.451-0.014-0.67-0.097-0.916c-0.181-0.506-0.722-0.574-0.916-0.574
				c-0.291,0-0.596,0.123-0.776,0.383c-0.152,0.232-0.152,0.451-0.152,0.615h-2.012c0.014-0.369,0.056-1.107,0.791-1.627
				c0.638-0.451,1.456-0.561,2.122-0.561c0.582,0,1.803,0.096,2.496,0.889c0.472,0.561,0.486,1.381,0.486,1.695l0.014,2.775
				c0,0.588,0.041,1.176,0.166,1.75H208.09z M205.565,46.384c0,0.465,0.319,0.984,0.999,0.984c0.374,0,0.68-0.178,0.873-0.396
				c0.361-0.438,0.389-0.971,0.389-1.709C206.509,45.154,205.565,45.564,205.565,46.384z"/>
			<path fill="#231F20" d="M211.528,38.66h2.053v3.787c0.693-0.902,1.623-0.93,1.983-0.93c1.706,0,3.052,1.326,3.052,3.65
				c0,2.584-1.526,3.486-2.927,3.486c-0.36,0-1.471-0.027-2.108-1.107c-0.014,0.219-0.027,0.547-0.069,0.971h-1.983V38.66z
				 M215.01,42.87c-1.512,0-1.512,1.695-1.512,2.133c0,1.572,0.68,2.324,1.608,2.324c1.415,0,1.415-1.736,1.415-2.092
				C216.521,44.689,216.494,42.87,215.01,42.87z"/>
			<path fill="#231F20" d="M220.001,38.646h2.192v1.764h-2.192V38.646z M220.07,41.599h2.054v6.918h-2.054V41.599z"/>
			<path fill="#231F20" d="M228.046,48.421c-0.666,0.178-1.263,0.219-1.596,0.219c-2.066,0-2.066-1.285-2.066-1.859v-3.787h-1.346
				v-1.34h1.346V40.3l2.039-0.738v2.092h1.664v1.34h-1.664v3.117c0.014,0.629,0.014,1.025,0.93,1.025
				c0.305,0,0.443-0.014,0.693-0.041V48.421z"/>
			<path fill="#231F20" d="M230.749,46.521c0.028,0.438,0.306,0.943,1.165,0.943c0.735,0,1.082-0.41,1.082-0.82
				c0-0.314-0.166-0.561-0.971-0.779l-1.276-0.342c-0.568-0.164-1.775-0.506-1.775-1.914c0-1.34,1.249-2.16,3.065-2.16
				c1.442,0,2.607,0.656,2.663,2.037h-1.872c-0.056-0.766-0.68-0.82-0.999-0.82c-0.555,0-0.971,0.26-0.971,0.684
				c0,0.465,0.347,0.561,0.957,0.725l1.263,0.342c1.275,0.342,1.872,0.984,1.872,1.928c0,1.189-1.04,2.379-3.218,2.379
				c-0.901,0-1.762-0.191-2.399-0.848c-0.458-0.479-0.5-1.025-0.514-1.354H230.749z"/>
			<path fill="#231F20" d="M244.312,48.517c-0.069-0.424-0.069-0.738-0.069-0.943c-0.776,1.107-1.706,1.107-2.095,1.107
				c-1.013,0-1.47-0.287-1.747-0.547c-0.416-0.41-0.61-0.971-0.61-1.518s0.194-1.559,1.484-2.146
				c0.859-0.383,2.094-0.383,2.773-0.383c0-0.451-0.014-0.67-0.097-0.916c-0.181-0.506-0.722-0.574-0.916-0.574
				c-0.291,0-0.596,0.123-0.776,0.383c-0.152,0.232-0.152,0.451-0.152,0.615h-2.012c0.014-0.369,0.056-1.107,0.791-1.627
				c0.638-0.451,1.456-0.561,2.122-0.561c0.582,0,1.803,0.096,2.496,0.889c0.472,0.561,0.486,1.381,0.486,1.695l0.014,2.775
				c0,0.588,0.041,1.176,0.166,1.75H244.312z M241.788,46.384c0,0.465,0.319,0.984,0.999,0.984c0.374,0,0.68-0.178,0.873-0.396
				c0.361-0.438,0.389-0.971,0.389-1.709C242.731,45.154,241.788,45.564,241.788,46.384z"/>
			<path fill="#231F20" d="M247.82,43.308c0-0.328-0.056-1.326-0.097-1.723h1.928l0.041,1.326c0.264-0.588,0.722-1.422,2.386-1.34
				v1.818c-2.08-0.191-2.205,0.861-2.205,1.723v3.404h-2.053V43.308z"/>
			<path fill="#231F20" d="M254.865,45.578c0,0.451,0,1.846,1.429,1.846c0.514,0,1.026-0.191,1.221-0.957h1.872
				c-0.027,0.328-0.097,0.916-0.665,1.504c-0.514,0.533-1.429,0.807-2.455,0.807c-0.597,0-1.734-0.109-2.47-0.861
				c-0.638-0.656-0.901-1.586-0.901-2.693c0-1.121,0.277-2.461,1.457-3.268c0.541-0.355,1.206-0.574,1.969-0.574
				c0.999,0,2.192,0.383,2.83,1.668c0.472,0.943,0.443,1.955,0.416,2.529H254.865z M257.472,44.306c0-0.314-0.027-1.545-1.221-1.545
				c-0.901,0-1.275,0.738-1.317,1.545H257.472z"/>
			<path fill="#231F20" d="M268.9,48.421c-0.666,0.178-1.263,0.219-1.596,0.219c-2.066,0-2.066-1.285-2.066-1.859v-3.787h-1.346
				v-1.34h1.346V40.3l2.039-0.738v2.092h1.664v1.34h-1.664v3.117c0.014,0.629,0.014,1.025,0.93,1.025
				c0.305,0,0.443-0.014,0.693-0.041V48.421z"/>
			<path fill="#231F20" d="M270.23,38.646h2.039v3.91c0.236-0.328,0.749-1.039,2.025-1.039c1.04,0,1.706,0.506,2.039,0.93
				c0.249,0.342,0.457,0.971,0.457,1.873v4.197h-2.039v-4.129c0-0.396,0-1.504-1.15-1.504c-0.583,0-1.318,0.328-1.318,1.408
				l0.015,4.225h-2.067V38.646z"/>
			<path fill="#231F20" d="M280.299,45.578c0,0.451,0,1.846,1.429,1.846c0.514,0,1.026-0.191,1.221-0.957h1.872
				c-0.027,0.328-0.097,0.916-0.665,1.504c-0.514,0.533-1.429,0.807-2.455,0.807c-0.597,0-1.734-0.109-2.47-0.861
				c-0.638-0.656-0.901-1.586-0.901-2.693c0-1.121,0.277-2.461,1.457-3.268c0.541-0.355,1.206-0.574,1.969-0.574
				c0.999,0,2.192,0.383,2.83,1.668c0.472,0.943,0.443,1.955,0.416,2.529H280.299z M282.906,44.306c0-0.314-0.027-1.545-1.221-1.545
				c-0.901,0-1.275,0.738-1.317,1.545H282.906z"/>
			<path fill="#231F20" d="M290.352,43.048h-1.04v-1.436h1.04v-0.943c0-1.217,0.417-2.201,2.414-2.201c0.139,0,0.527,0,1.109,0.068
				v1.408c-0.208-0.027-0.264-0.041-0.43-0.041c-1.055,0-1.055,0.547-1.055,0.902v0.807h1.304v1.436h-1.304v5.469h-2.039V43.048z"/>
			<path fill="#231F20" d="M298.133,41.449c2.538,0,3.635,1.695,3.635,3.623c0,1.941-1.138,3.691-3.676,3.691
				c-1.998,0-3.579-1.217-3.579-3.637C294.512,43.458,295.373,41.449,298.133,41.449z M298.161,47.355
				c0.901,0,1.512-0.533,1.512-2.365c0-0.916-0.181-2.188-1.54-2.188c-1.498,0-1.512,1.709-1.512,2.338
				C296.621,46.685,297.148,47.355,298.161,47.355z"/>
			<path fill="#231F20" d="M305.316,41.613v4.115c0,0.602,0,1.518,1.096,1.518c1.317,0,1.317-0.971,1.317-2.146v-3.486h2.108v4.553
				c0.028,1.49,0.042,1.668,0.042,1.846c0.014,0.191,0.027,0.314,0.056,0.506h-1.998l-0.069-0.916
				c-0.208,0.301-0.734,1.094-2.066,1.094c-0.943,0-1.72-0.424-2.108-0.93c-0.458-0.561-0.458-1.518-0.458-1.859v-4.293H305.316z"/>
			<path fill="#231F20" d="M311.805,42.843c0-0.027,0-0.779-0.041-1.258h1.97l0.055,1.039c0.194-0.314,0.749-1.203,2.275-1.203
				c1.373,0,1.955,0.82,2.136,1.299c0.152,0.424,0.194,0.779,0.194,2.064v3.732H316.3v-4.293c0-0.287,0-0.533-0.11-0.752
				c-0.153-0.301-0.472-0.588-0.999-0.588c-0.444,0-0.846,0.205-1.068,0.533c-0.125,0.178-0.249,0.52-0.249,1.053v4.047h-2.067
				V42.843z"/>
			<path fill="#231F20" d="M324.885,38.646h2.066v8.75c0,0.41,0.027,0.861,0.056,1.121h-2.081l-0.055-0.998
				c-0.139,0.246-0.277,0.506-0.708,0.779c-0.513,0.328-1.054,0.355-1.359,0.355c-1.872,0-2.981-1.271-2.981-3.432
				c0-2.283,1.262-3.705,3.093-3.705c1.262,0,1.789,0.697,1.97,0.943V38.646z M323.317,47.341c0.597,0,1.082-0.355,1.304-0.779
				c0.305-0.574,0.333-1.285,0.333-1.627c0-1.354-0.597-2.092-1.526-2.092c-1.373,0-1.525,1.627-1.525,2.324
				C321.902,46.316,322.291,47.341,323.317,47.341z"/>
			<path fill="#231F20" d="M332.927,48.517c-0.069-0.424-0.069-0.738-0.069-0.943c-0.776,1.107-1.706,1.107-2.095,1.107
				c-1.013,0-1.47-0.287-1.747-0.547c-0.416-0.41-0.61-0.971-0.61-1.518s0.194-1.559,1.484-2.146
				c0.859-0.383,2.094-0.383,2.773-0.383c0-0.451-0.014-0.67-0.097-0.916c-0.181-0.506-0.722-0.574-0.916-0.574
				c-0.291,0-0.596,0.123-0.776,0.383c-0.152,0.232-0.152,0.451-0.152,0.615h-2.012c0.014-0.369,0.056-1.107,0.791-1.627
				c0.638-0.451,1.456-0.561,2.122-0.561c0.582,0,1.803,0.096,2.496,0.889c0.472,0.561,0.486,1.381,0.486,1.695l0.014,2.775
				c0,0.588,0.041,1.176,0.166,1.75H332.927z M330.403,46.384c0,0.465,0.319,0.984,0.999,0.984c0.374,0,0.68-0.178,0.873-0.396
				c0.361-0.438,0.389-0.971,0.389-1.709C331.346,45.154,330.403,45.564,330.403,46.384z"/>
			<path fill="#231F20" d="M340.554,48.421c-0.665,0.178-1.262,0.219-1.595,0.219c-2.066,0-2.066-1.285-2.066-1.859v-3.787h-1.346
				v-1.34h1.346V40.3l2.039-0.738v2.092h1.664v1.34h-1.664v3.117c0.014,0.629,0.014,1.025,0.929,1.025
				c0.306,0,0.444-0.014,0.693-0.041V48.421z"/>
			<path fill="#231F20" d="M341.76,38.646h2.191v1.764h-2.191V38.646z M341.83,41.599h2.053v6.918h-2.053V41.599z"/>
			<path fill="#231F20" d="M348.986,41.449c2.538,0,3.634,1.695,3.634,3.623c0,1.941-1.138,3.691-3.676,3.691
				c-1.997,0-3.578-1.217-3.578-3.637C345.366,43.458,346.225,41.449,348.986,41.449z M349.013,47.355
				c0.901,0,1.512-0.533,1.512-2.365c0-0.916-0.18-2.188-1.539-2.188c-1.498,0-1.512,1.709-1.512,2.338
				C347.474,46.685,348.001,47.355,349.013,47.355z"/>
			<path fill="#231F20" d="M354.185,42.843c0-0.027,0-0.779-0.041-1.258h1.97l0.055,1.039c0.194-0.314,0.749-1.203,2.275-1.203
				c1.373,0,1.955,0.82,2.136,1.299c0.152,0.424,0.194,0.779,0.194,2.064v3.732h-2.095v-4.293c0-0.287,0-0.533-0.11-0.752
				c-0.153-0.301-0.472-0.588-0.999-0.588c-0.444,0-0.846,0.205-1.068,0.533c-0.125,0.178-0.249,0.52-0.249,1.053v4.047h-2.067
				V42.843z"/>
			<path fill="#231F20" d="M369.788,41.449c2.538,0,3.634,1.695,3.634,3.623c0,1.941-1.138,3.691-3.676,3.691
				c-1.997,0-3.578-1.217-3.578-3.637C366.168,43.458,367.027,41.449,369.788,41.449z M369.815,47.355
				c0.901,0,1.512-0.533,1.512-2.365c0-0.916-0.18-2.188-1.539-2.188c-1.498,0-1.512,1.709-1.512,2.338
				C368.276,46.685,368.802,47.355,369.815,47.355z"/>
			<path fill="#231F20" d="M375.098,43.048h-1.04v-1.436h1.04v-0.943c0-1.217,0.416-2.201,2.413-2.201c0.139,0,0.527,0,1.11,0.068
				v1.408c-0.208-0.027-0.264-0.041-0.431-0.041c-1.054,0-1.054,0.547-1.054,0.902v0.807h1.304v1.436h-1.304v5.469h-2.039V43.048z"
				/>
			<path fill="#231F20" d="M388.773,38.632l3.481,9.885h-2.164l-0.722-2.133h-3.967l-0.749,2.133H382.6l3.62-9.885H388.773z
				 M388.828,44.785l-1.387-4.211l-1.484,4.211H388.828z"/>
			<path fill="#231F20" d="M395.22,45.359c0,0.465-0.027,1.873,1.817,1.873c1.165,0,1.899-0.547,1.899-1.381
				c0-0.875-0.624-1.025-1.899-1.326c-2.386-0.588-3.689-1.285-3.689-2.994c0-1.627,1.179-3.063,3.967-3.063
				c1.04,0,2.274,0.232,3.023,1.162c0.568,0.711,0.568,1.504,0.568,1.832h-2.066c-0.027-0.342-0.139-1.504-1.623-1.504
				c-0.998,0-1.65,0.533-1.65,1.34c0,0.916,0.735,1.08,2.178,1.436c1.733,0.41,3.439,0.875,3.439,2.803
				c0,1.777-1.498,3.213-4.271,3.213c-3.843,0-3.87-2.434-3.884-3.391H395.22z"/>
			<path fill="#231F20" d="M408.395,41.859c-0.041-0.342-0.166-1.736-1.622-1.736c-1.596,0-2.261,1.641-2.261,3.678
				c0,0.588,0,3.391,2.094,3.391c0.901,0,1.762-0.561,1.804-1.873h2.261c-0.042,0.588-0.098,1.504-0.901,2.324
				c-0.888,0.902-2.012,1.107-2.927,1.107c-3.454,0-4.577-2.516-4.577-4.963c0-3.131,1.775-5.209,4.591-5.209
				c2.191,0,3.731,1.313,3.731,3.281H408.395z"/>
			<path fill="#231F20" d="M413.554,38.673l2.621,7.752l2.636-7.752h2.122l-3.689,9.844h-2.345l-3.689-9.844H413.554z"/>
			<path fill="#231F20" d="M421.957,38.66l3.315,0.014c0.555,0,2.247,0.014,3.454,0.889c1.262,0.916,1.706,2.475,1.706,3.883
				c0,3.035-1.651,4.621-3.551,4.963c-0.375,0.068-0.791,0.109-1.804,0.109h-3.121V38.66z M424.135,46.89
				c0.236,0.014,0.597,0.027,0.847,0.027c0.915,0,1.706-0.068,2.33-0.684c0.846-0.834,0.901-2.311,0.901-2.789
				c0-1.395-0.485-2.68-1.831-3.049c-0.443-0.123-1.013-0.191-2.247-0.137V46.89z"/>
			<path fill="#231F20" d="M437.753,41.613l0.056,0.984c0.638-1.107,1.803-1.121,2.136-1.121c1.817,0,2.913,1.34,2.913,3.445
				c0,1.955-1.026,3.691-3.052,3.691c-1.262,0-1.775-0.656-1.955-0.889v3.445h-2.095v-9.557H437.753z M440.776,45.003
				c0-0.82-0.208-2.229-1.414-2.229c-0.666,0-1.609,0.492-1.609,2.352c0,0.41,0.014,2.16,1.526,2.16
				C440.25,47.286,440.776,46.37,440.776,45.003z"/>
			<path fill="#231F20" d="M444.298,43.308c0-0.328-0.055-1.326-0.097-1.723h1.928l0.042,1.326c0.264-0.588,0.721-1.422,2.386-1.34
				v1.818c-2.081-0.191-2.205,0.861-2.205,1.723v3.404h-2.054V43.308z"/>
			<path fill="#231F20" d="M451.344,45.578c0,0.451,0,1.846,1.429,1.846c0.513,0,1.026-0.191,1.22-0.957h1.873
				c-0.028,0.328-0.098,0.916-0.666,1.504c-0.513,0.533-1.429,0.807-2.455,0.807c-0.597,0-1.733-0.109-2.469-0.861
				c-0.638-0.656-0.901-1.586-0.901-2.693c0-1.121,0.277-2.461,1.456-3.268c0.541-0.355,1.207-0.574,1.97-0.574
				c0.999,0,2.191,0.383,2.829,1.668c0.472,0.943,0.444,1.955,0.416,2.529H451.344z M453.951,44.306
				c0-0.314-0.028-1.545-1.221-1.545c-0.901,0-1.276,0.738-1.317,1.545H453.951z"/>
			<path fill="#231F20" d="M458.79,41.613l1.581,4.689l1.609-4.689h1.983l-2.524,6.904h-2.274l-2.566-6.904H458.79z"/>
			<path fill="#231F20" d="M466.764,45.578c0,0.451,0,1.846,1.429,1.846c0.513,0,1.026-0.191,1.22-0.957h1.873
				c-0.028,0.328-0.098,0.916-0.666,1.504c-0.513,0.533-1.429,0.807-2.455,0.807c-0.597,0-1.733-0.109-2.469-0.861
				c-0.638-0.656-0.901-1.586-0.901-2.693c0-1.121,0.277-2.461,1.456-3.268c0.541-0.355,1.207-0.574,1.97-0.574
				c0.999,0,2.191,0.383,2.829,1.668c0.472,0.943,0.444,1.955,0.416,2.529H466.764z M469.372,44.306
				c0-0.314-0.028-1.545-1.221-1.545c-0.901,0-1.276,0.738-1.317,1.545H469.372z"/>
			<path fill="#231F20" d="M472.851,42.843c0-0.027,0-0.779-0.041-1.258h1.97l0.055,1.039c0.194-0.314,0.749-1.203,2.275-1.203
				c1.373,0,1.955,0.82,2.136,1.299c0.152,0.424,0.194,0.779,0.194,2.064v3.732h-2.095v-4.293c0-0.287,0-0.533-0.11-0.752
				c-0.153-0.301-0.472-0.588-0.999-0.588c-0.444,0-0.846,0.205-1.068,0.533c-0.125,0.178-0.249,0.52-0.249,1.053v4.047h-2.067
				V42.843z"/>
			<path fill="#231F20" d="M485.417,48.421c-0.666,0.178-1.263,0.219-1.596,0.219c-2.066,0-2.066-1.285-2.066-1.859v-3.787h-1.346
				v-1.34h1.346V40.3l2.039-0.738v2.092h1.664v1.34h-1.664v3.117c0.014,0.629,0.014,1.025,0.93,1.025
				c0.305,0,0.443-0.014,0.693-0.041V48.421z"/>
			<path fill="#231F20" d="M486.622,38.646h2.192v1.764h-2.192V38.646z M486.691,41.599h2.054v6.918h-2.054V41.599z"/>
			<path fill="#231F20" d="M493.848,41.449c2.538,0,3.634,1.695,3.634,3.623c0,1.941-1.138,3.691-3.676,3.691
				c-1.997,0-3.578-1.217-3.578-3.637C490.228,43.458,491.088,41.449,493.848,41.449z M493.876,47.355
				c0.901,0,1.512-0.533,1.512-2.365c0-0.916-0.18-2.188-1.539-2.188c-1.498,0-1.512,1.709-1.512,2.338
				C492.337,46.685,492.863,47.355,493.876,47.355z"/>
			<path fill="#231F20" d="M499.048,42.843c0-0.027,0-0.779-0.041-1.258h1.97l0.055,1.039c0.194-0.314,0.749-1.203,2.275-1.203
				c1.373,0,1.955,0.82,2.136,1.299c0.152,0.424,0.194,0.779,0.194,2.064v3.732h-2.095v-4.293c0-0.287,0-0.533-0.11-0.752
				c-0.153-0.301-0.472-0.588-0.999-0.588c-0.444,0-0.846,0.205-1.068,0.533c-0.125,0.178-0.249,0.52-0.249,1.053v4.047h-2.067
				V42.843z"/>
			<path fill="#231F20" d="M507.618,46.699h1.762v1.818h-1.762V46.699z"/>
			<path fill="#231F20" d="M35.406,53.405h2.15v9.912h-2.15V53.405z"/>
			<path fill="#231F20" d="M39.359,57.643c0-0.027,0-0.779-0.042-1.258h1.97l0.056,1.039c0.194-0.314,0.749-1.203,2.274-1.203
				c1.373,0,1.956,0.82,2.137,1.299c0.152,0.424,0.193,0.779,0.193,2.064v3.732h-2.094v-4.293c0-0.287,0-0.533-0.111-0.752
				c-0.152-0.301-0.472-0.588-0.999-0.588c-0.443,0-0.846,0.205-1.067,0.533c-0.125,0.178-0.25,0.52-0.25,1.053v4.047h-2.066V57.643
				z"/>
			<path fill="#231F20" d="M51.59,53.446h2.192v1.764H51.59V53.446z M51.659,56.399h2.054v6.918h-2.054V56.399z"/>
			<path fill="#231F20" d="M55.543,57.643c0-0.027,0-0.779-0.042-1.258h1.97l0.056,1.039c0.194-0.314,0.749-1.203,2.274-1.203
				c1.373,0,1.956,0.82,2.137,1.299c0.152,0.424,0.193,0.779,0.193,2.064v3.732h-2.094v-4.293c0-0.287,0-0.533-0.111-0.752
				c-0.152-0.301-0.472-0.588-0.999-0.588c-0.443,0-0.846,0.205-1.067,0.533c-0.125,0.178-0.25,0.52-0.25,1.053v4.047h-2.066V57.643
				z"/>
			<path fill="#231F20" d="M68.621,53.446h2.066v8.75c0,0.41,0.027,0.861,0.056,1.121h-2.081l-0.055-0.998
				c-0.139,0.246-0.277,0.506-0.708,0.779c-0.513,0.328-1.054,0.355-1.359,0.355c-1.872,0-2.981-1.271-2.981-3.432
				c0-2.283,1.262-3.705,3.093-3.705c1.262,0,1.789,0.697,1.97,0.943V53.446z M67.053,62.141c0.597,0,1.082-0.355,1.304-0.779
				c0.305-0.574,0.333-1.285,0.333-1.627c0-1.354-0.597-2.092-1.526-2.092c-1.373,0-1.525,1.627-1.525,2.324
				C65.638,61.116,66.027,62.141,67.053,62.141z"/>
			<path fill="#231F20" d="M72.391,53.446h2.192v1.764h-2.192V53.446z M72.461,56.399h2.054v6.918h-2.054V56.399z"/>
			<path fill="#231F20" d="M77.704,56.412l1.581,4.689l1.608-4.689h1.984l-2.524,6.904h-2.275l-2.565-6.904H77.704z"/>
			<path fill="#231F20" d="M83.958,53.446h2.191v1.764h-2.191V53.446z M84.027,56.399h2.053v6.918h-2.053V56.399z"/>
			<path fill="#231F20" d="M92.514,53.446h2.067v8.75c0,0.41,0.027,0.861,0.055,1.121h-2.08l-0.056-0.998
				c-0.139,0.246-0.277,0.506-0.707,0.779c-0.514,0.328-1.055,0.355-1.359,0.355c-1.873,0-2.982-1.271-2.982-3.432
				c0-2.283,1.263-3.705,3.093-3.705c1.263,0,1.79,0.697,1.97,0.943V53.446z M90.947,62.141c0.597,0,1.082-0.355,1.304-0.779
				c0.306-0.574,0.333-1.285,0.333-1.627c0-1.354-0.596-2.092-1.525-2.092c-1.373,0-1.525,1.627-1.525,2.324
				C89.533,61.116,89.921,62.141,90.947,62.141z"/>
			<path fill="#231F20" d="M98.366,56.412v4.115c0,0.602,0,1.518,1.096,1.518c1.318,0,1.318-0.971,1.318-2.146v-3.486h2.108v4.553
				c0.027,1.49,0.041,1.668,0.041,1.846c0.014,0.191,0.028,0.314,0.056,0.506h-1.997l-0.069-0.916
				c-0.208,0.301-0.735,1.094-2.066,1.094c-0.943,0-1.721-0.424-2.108-0.93c-0.458-0.561-0.458-1.518-0.458-1.859v-4.293H98.366z"/>
			<path fill="#231F20" d="M109.031,63.317c-0.069-0.424-0.069-0.738-0.069-0.943c-0.776,1.107-1.706,1.107-2.095,1.107
				c-1.013,0-1.47-0.287-1.747-0.547c-0.416-0.41-0.61-0.971-0.61-1.518s0.194-1.559,1.484-2.146
				c0.859-0.383,2.094-0.383,2.773-0.383c0-0.451-0.014-0.67-0.097-0.916c-0.181-0.506-0.722-0.574-0.916-0.574
				c-0.291,0-0.596,0.123-0.776,0.383c-0.152,0.232-0.152,0.451-0.152,0.615h-2.012c0.014-0.369,0.056-1.107,0.791-1.627
				c0.638-0.451,1.456-0.561,2.122-0.561c0.582,0,1.803,0.096,2.496,0.889c0.472,0.561,0.486,1.381,0.486,1.695l0.014,2.775
				c0,0.588,0.041,1.176,0.166,1.75H109.031z M106.507,61.184c0,0.465,0.319,0.984,0.999,0.984c0.374,0,0.68-0.178,0.873-0.396
				c0.361-0.438,0.389-0.971,0.389-1.709C107.45,59.953,106.507,60.364,106.507,61.184z"/>
			<path fill="#231F20" d="M112.539,53.432h2.054v9.885h-2.054V53.432z"/>
			<path fill="#231F20" d="M117.823,61.321c0.027,0.438,0.305,0.943,1.165,0.943c0.735,0,1.082-0.41,1.082-0.82
				c0-0.314-0.167-0.561-0.971-0.779l-1.276-0.342c-0.568-0.164-1.775-0.506-1.775-1.914c0-1.34,1.248-2.16,3.065-2.16
				c1.442,0,2.607,0.656,2.663,2.037h-1.873c-0.055-0.766-0.68-0.82-0.998-0.82c-0.555,0-0.971,0.26-0.971,0.684
				c0,0.465,0.347,0.561,0.957,0.725l1.262,0.342c1.276,0.342,1.872,0.984,1.872,1.928c0,1.189-1.04,2.379-3.218,2.379
				c-0.901,0-1.761-0.191-2.399-0.848c-0.458-0.479-0.499-1.025-0.513-1.354H117.823z"/>
			<path fill="#231F20" d="M127.212,57.643c0-0.027,0-0.779-0.042-1.258h1.97l0.056,1.039c0.194-0.314,0.749-1.203,2.274-1.203
				c1.373,0,1.956,0.82,2.137,1.299c0.152,0.424,0.193,0.779,0.193,2.064v3.732h-2.094v-4.293c0-0.287,0-0.533-0.111-0.752
				c-0.152-0.301-0.472-0.588-0.999-0.588c-0.443,0-0.846,0.205-1.067,0.533c-0.125,0.178-0.25,0.52-0.25,1.053v4.047h-2.066V57.643
				z"/>
			<path fill="#231F20" d="M138.958,56.248c2.538,0,3.635,1.695,3.635,3.623c0,1.941-1.138,3.691-3.676,3.691
				c-1.998,0-3.579-1.217-3.579-3.637C135.338,58.258,136.198,56.248,138.958,56.248z M138.986,62.155
				c0.901,0,1.512-0.533,1.512-2.365c0-0.916-0.181-2.188-1.54-2.188c-1.498,0-1.512,1.709-1.512,2.338
				C137.446,61.485,137.973,62.155,138.986,62.155z"/>
			<path fill="#231F20" d="M148.25,63.221c-0.666,0.178-1.263,0.219-1.596,0.219c-2.066,0-2.066-1.285-2.066-1.859v-3.787h-1.346
				v-1.34h1.346V55.1l2.039-0.738v2.092h1.664v1.34h-1.664v3.117c0.014,0.629,0.014,1.025,0.93,1.025
				c0.305,0,0.443-0.014,0.693-0.041V63.221z"/>
			<path fill="#231F20" d="M153.38,58.108c0-0.328-0.056-1.326-0.097-1.723h1.928l0.041,1.326c0.264-0.588,0.722-1.422,2.386-1.34
				v1.818c-2.08-0.191-2.205,0.861-2.205,1.723v3.404h-2.053V58.108z"/>
			<path fill="#231F20" d="M160.425,60.377c0,0.451,0,1.846,1.429,1.846c0.514,0,1.026-0.191,1.221-0.957h1.872
				c-0.027,0.328-0.097,0.916-0.665,1.504c-0.514,0.533-1.429,0.807-2.455,0.807c-0.597,0-1.734-0.109-2.47-0.861
				c-0.638-0.656-0.901-1.586-0.901-2.693c0-1.121,0.277-2.461,1.457-3.268c0.541-0.355,1.206-0.574,1.969-0.574
				c0.999,0,2.192,0.383,2.83,1.668c0.472,0.943,0.443,1.955,0.416,2.529H160.425z M163.032,59.106c0-0.314-0.027-1.545-1.221-1.545
				c-0.901,0-1.275,0.738-1.317,1.545H163.032z"/>
			<path fill="#231F20" d="M170.188,58.86c-0.028-0.246-0.111-1.271-0.902-1.271c-0.971,0-1.081,1.449-1.081,2.201
				c0,0.383,0.041,1.613,0.513,2.119c0.194,0.205,0.402,0.232,0.555,0.232c0.223,0,0.86-0.096,0.943-1.326h2.025
				c-0.028,0.533-0.098,1.367-0.901,2.037c-0.5,0.424-1.124,0.643-1.998,0.643c-0.929,0-1.747-0.205-2.386-0.916
				c-0.61-0.697-0.888-1.613-0.888-2.721c0-3.145,2.345-3.582,3.273-3.582c1.304,0,2.844,0.711,2.857,2.584H170.188z"/>
			<path fill="#231F20" d="M175.069,60.377c0,0.451,0,1.846,1.429,1.846c0.514,0,1.026-0.191,1.221-0.957h1.872
				c-0.027,0.328-0.097,0.916-0.665,1.504c-0.514,0.533-1.429,0.807-2.455,0.807c-0.597,0-1.734-0.109-2.47-0.861
				c-0.638-0.656-0.901-1.586-0.901-2.693c0-1.121,0.277-2.461,1.457-3.268c0.541-0.355,1.206-0.574,1.969-0.574
				c0.999,0,2.192,0.383,2.83,1.668c0.472,0.943,0.443,1.955,0.416,2.529H175.069z M177.677,59.106c0-0.314-0.027-1.545-1.221-1.545
				c-0.901,0-1.275,0.738-1.317,1.545H177.677z"/>
			<path fill="#231F20" d="M181.059,53.446h2.192v1.764h-2.192V53.446z M181.129,56.399h2.054v6.918h-2.054V56.399z"/>
			<path fill="#231F20" d="M186.372,56.412l1.581,4.689l1.608-4.689h1.984l-2.524,6.904h-2.275l-2.565-6.904H186.372z"/>
			<path fill="#231F20" d="M192.626,53.446h2.191v1.764h-2.191V53.446z M192.695,56.399h2.053v6.918h-2.053V56.399z"/>
			<path fill="#231F20" d="M196.578,57.643c0-0.027,0-0.779-0.041-1.258h1.97l0.055,1.039c0.194-0.314,0.749-1.203,2.275-1.203
				c1.373,0,1.955,0.82,2.136,1.299c0.152,0.424,0.194,0.779,0.194,2.064v3.732h-2.095v-4.293c0-0.287,0-0.533-0.11-0.752
				c-0.153-0.301-0.472-0.588-0.999-0.588c-0.444,0-0.846,0.205-1.068,0.533c-0.125,0.178-0.249,0.52-0.249,1.053v4.047h-2.067
				V57.643z"/>
			<path fill="#231F20" d="M211.668,56.44c-0.056,0.547-0.098,1.012-0.098,1.709v5.1c0,2.543-2.149,2.789-3.495,2.789
				c-0.998,0-2.954-0.123-3.079-2.215h1.97c0.027,0.205,0.125,0.957,1.221,0.957c0.61,0,1.137-0.287,1.275-0.902
				c0.084-0.342,0.084-0.588,0.098-1.641c-0.652,0.848-1.387,0.943-1.887,0.943c-2.011,0-2.954-1.723-2.954-3.391
				c0-1.75,0.984-3.418,2.996-3.418c1.276,0,1.747,0.684,1.956,0.984l0.069-0.916H211.668z M208.144,61.799
				c1.442,0,1.442-1.668,1.442-1.969c0-0.779-0.152-2.105-1.4-2.105c-0.777,0-1.415,0.588-1.415,2.064
				C206.771,60.131,206.771,61.799,208.144,61.799z"/>
			<path fill="#231F20" d="M221.055,58.86c-0.028-0.246-0.111-1.271-0.902-1.271c-0.971,0-1.081,1.449-1.081,2.201
				c0,0.383,0.041,1.613,0.513,2.119c0.194,0.205,0.402,0.232,0.555,0.232c0.223,0,0.86-0.096,0.943-1.326h2.025
				c-0.028,0.533-0.098,1.367-0.901,2.037c-0.5,0.424-1.124,0.643-1.998,0.643c-0.929,0-1.747-0.205-2.386-0.916
				c-0.61-0.697-0.888-1.613-0.888-2.721c0-3.145,2.345-3.582,3.273-3.582c1.304,0,2.844,0.711,2.857,2.584H221.055z"/>
			<path fill="#231F20" d="M224.342,53.446h2.039v3.91c0.235-0.328,0.749-1.039,2.024-1.039c1.041,0,1.706,0.506,2.039,0.93
				c0.25,0.342,0.458,0.971,0.458,1.873v4.197h-2.039v-4.129c0-0.396,0-1.504-1.151-1.504c-0.582,0-1.317,0.328-1.317,1.408
				l0.014,4.225h-2.066V53.446z"/>
			<path fill="#231F20" d="M236.06,56.248c2.538,0,3.634,1.695,3.634,3.623c0,1.941-1.138,3.691-3.676,3.691
				c-1.997,0-3.578-1.217-3.578-3.637C232.44,58.258,233.3,56.248,236.06,56.248z M236.088,62.155c0.901,0,1.512-0.533,1.512-2.365
				c0-0.916-0.18-2.188-1.539-2.188c-1.498,0-1.512,1.709-1.512,2.338C234.549,61.485,235.075,62.155,236.088,62.155z"/>
			<path fill="#231F20" d="M241.232,53.432h2.053v9.885h-2.053V53.432z"/>
			<path fill="#231F20" d="M246.738,60.377c0,0.451,0,1.846,1.429,1.846c0.514,0,1.026-0.191,1.221-0.957h1.872
				c-0.027,0.328-0.097,0.916-0.665,1.504c-0.514,0.533-1.429,0.807-2.455,0.807c-0.597,0-1.734-0.109-2.47-0.861
				c-0.638-0.656-0.901-1.586-0.901-2.693c0-1.121,0.277-2.461,1.457-3.268c0.541-0.355,1.206-0.574,1.969-0.574
				c0.999,0,2.192,0.383,2.83,1.668c0.472,0.943,0.443,1.955,0.416,2.529H246.738z M249.345,59.106c0-0.314-0.027-1.545-1.221-1.545
				c-0.901,0-1.275,0.738-1.317,1.545H249.345z"/>
			<path fill="#231F20" d="M254.226,61.321c0.028,0.438,0.306,0.943,1.165,0.943c0.735,0,1.082-0.41,1.082-0.82
				c0-0.314-0.166-0.561-0.971-0.779l-1.276-0.342c-0.568-0.164-1.775-0.506-1.775-1.914c0-1.34,1.249-2.16,3.065-2.16
				c1.442,0,2.607,0.656,2.663,2.037h-1.872c-0.056-0.766-0.68-0.82-0.999-0.82c-0.555,0-0.971,0.26-0.971,0.684
				c0,0.465,0.347,0.561,0.957,0.725l1.263,0.342c1.275,0.342,1.872,0.984,1.872,1.928c0,1.189-1.04,2.379-3.218,2.379
				c-0.901,0-1.762-0.191-2.399-0.848c-0.458-0.479-0.5-1.025-0.514-1.354H254.226z"/>
			<path fill="#231F20" d="M263.851,63.221c-0.665,0.178-1.262,0.219-1.595,0.219c-2.066,0-2.066-1.285-2.066-1.859v-3.787h-1.346
				v-1.34h1.346V55.1l2.039-0.738v2.092h1.664v1.34h-1.664v3.117c0.014,0.629,0.014,1.025,0.929,1.025
				c0.306,0,0.444-0.014,0.693-0.041V63.221z"/>
			<path fill="#231F20" d="M266.777,60.377c0,0.451,0,1.846,1.429,1.846c0.514,0,1.026-0.191,1.221-0.957h1.872
				c-0.027,0.328-0.097,0.916-0.665,1.504c-0.514,0.533-1.429,0.807-2.455,0.807c-0.597,0-1.734-0.109-2.47-0.861
				c-0.638-0.656-0.901-1.586-0.901-2.693c0-1.121,0.277-2.461,1.457-3.268c0.541-0.355,1.206-0.574,1.969-0.574
				c0.999,0,2.192,0.383,2.83,1.668c0.472,0.943,0.443,1.955,0.416,2.529H266.777z M269.385,59.106c0-0.314-0.027-1.545-1.221-1.545
				c-0.901,0-1.275,0.738-1.317,1.545H269.385z"/>
			<path fill="#231F20" d="M272.837,58.108c0-0.328-0.055-1.326-0.097-1.723h1.928l0.042,1.326c0.264-0.588,0.721-1.422,2.386-1.34
				v1.818c-2.081-0.191-2.205,0.861-2.205,1.723v3.404h-2.054V58.108z"/>
			<path fill="#231F20" d="M281.533,56.248c2.538,0,3.634,1.695,3.634,3.623c0,1.941-1.138,3.691-3.676,3.691
				c-1.997,0-3.578-1.217-3.578-3.637C277.913,58.258,278.772,56.248,281.533,56.248z M281.56,62.155
				c0.901,0,1.512-0.533,1.512-2.365c0-0.916-0.18-2.188-1.539-2.188c-1.498,0-1.512,1.709-1.512,2.338
				C280.021,61.485,280.548,62.155,281.56,62.155z"/>
			<path fill="#231F20" d="M286.705,53.432h2.053v9.885h-2.053V53.432z"/>
			<path fill="#231F20" d="M290.268,58.928h3.44v1.545h-3.44V58.928z"/>
			<path fill="#231F20" d="M295.177,53.432h2.054v9.885h-2.054V53.432z"/>
			<path fill="#231F20" d="M302.334,56.248c2.538,0,3.635,1.695,3.635,3.623c0,1.941-1.138,3.691-3.676,3.691
				c-1.998,0-3.579-1.217-3.579-3.637C298.714,58.258,299.574,56.248,302.334,56.248z M302.362,62.155
				c0.901,0,1.512-0.533,1.512-2.365c0-0.916-0.181-2.188-1.54-2.188c-1.498,0-1.512,1.709-1.512,2.338
				C300.822,61.485,301.349,62.155,302.362,62.155z"/>
			<path fill="#231F20" d="M308.851,56.412l1.29,5.209l1.484-5.209h2.261l1.47,5.209l1.374-5.209h2.038l-2.399,6.904h-2.232
				l-1.443-5.113l-1.47,5.113h-2.261l-2.289-6.904H308.851z"/>
			<path fill="#231F20" d="M321.485,60.377c0,0.451,0,1.846,1.429,1.846c0.514,0,1.026-0.191,1.221-0.957h1.872
				c-0.027,0.328-0.097,0.916-0.665,1.504c-0.514,0.533-1.429,0.807-2.455,0.807c-0.597,0-1.734-0.109-2.47-0.861
				c-0.638-0.656-0.901-1.586-0.901-2.693c0-1.121,0.277-2.461,1.457-3.268c0.541-0.355,1.206-0.574,1.969-0.574
				c0.999,0,2.192,0.383,2.83,1.668c0.472,0.943,0.443,1.955,0.416,2.529H321.485z M324.093,59.106c0-0.314-0.027-1.545-1.221-1.545
				c-0.901,0-1.275,0.738-1.317,1.545H324.093z"/>
			<path fill="#231F20" d="M327.545,58.108c0-0.328-0.055-1.326-0.097-1.723h1.928l0.042,1.326c0.264-0.588,0.721-1.422,2.386-1.34
				v1.818c-2.081-0.191-2.205,0.861-2.205,1.723v3.404h-2.054V58.108z"/>
			<path fill="#231F20" d="M332.87,53.446h2.192v1.764h-2.192V53.446z M332.939,56.399h2.054v6.918h-2.054V56.399z"/>
			<path fill="#231F20" d="M336.823,57.643c0-0.027,0-0.779-0.042-1.258h1.97l0.056,1.039c0.194-0.314,0.749-1.203,2.274-1.203
				c1.373,0,1.956,0.82,2.137,1.299c0.152,0.424,0.193,0.779,0.193,2.064v3.732h-2.094v-4.293c0-0.287,0-0.533-0.111-0.752
				c-0.152-0.301-0.472-0.588-0.999-0.588c-0.443,0-0.846,0.205-1.067,0.533c-0.125,0.178-0.25,0.52-0.25,1.053v4.047h-2.066V57.643
				z"/>
			<path fill="#231F20" d="M351.912,56.44c-0.056,0.547-0.097,1.012-0.097,1.709v5.1c0,2.543-2.15,2.789-3.495,2.789
				c-0.999,0-2.955-0.123-3.079-2.215h1.969c0.028,0.205,0.125,0.957,1.221,0.957c0.61,0,1.138-0.287,1.276-0.902
				c0.083-0.342,0.083-0.588,0.097-1.641c-0.651,0.848-1.387,0.943-1.886,0.943c-2.012,0-2.955-1.723-2.955-3.391
				c0-1.75,0.985-3.418,2.996-3.418c1.276,0,1.748,0.684,1.956,0.984l0.069-0.916H351.912z M348.389,61.799
				c1.442,0,1.442-1.668,1.442-1.969c0-0.779-0.152-2.105-1.401-2.105c-0.776,0-1.414,0.588-1.414,2.064
				C347.016,60.131,347.016,61.799,348.389,61.799z"/>
			<path fill="#231F20" d="M362.229,53.446h2.066v8.75c0,0.41,0.027,0.861,0.056,1.121h-2.081l-0.055-0.998
				c-0.139,0.246-0.277,0.506-0.708,0.779c-0.513,0.328-1.054,0.355-1.359,0.355c-1.872,0-2.981-1.271-2.981-3.432
				c0-2.283,1.262-3.705,3.093-3.705c1.262,0,1.789,0.697,1.97,0.943V53.446z M360.662,62.141c0.597,0,1.082-0.355,1.304-0.779
				c0.305-0.574,0.333-1.285,0.333-1.627c0-1.354-0.597-2.092-1.526-2.092c-1.373,0-1.525,1.627-1.525,2.324
				C359.247,61.116,359.635,62.141,360.662,62.141z"/>
			<path fill="#231F20" d="M366.07,58.108c0-0.328-0.056-1.326-0.097-1.723h1.928l0.041,1.326c0.264-0.588,0.722-1.422,2.386-1.34
				v1.818c-2.08-0.191-2.205,0.861-2.205,1.723v3.404h-2.053V58.108z"/>
			<path fill="#231F20" d="M373.475,56.412v4.115c0,0.602,0,1.518,1.096,1.518c1.317,0,1.317-0.971,1.317-2.146v-3.486h2.108v4.553
				c0.028,1.49,0.042,1.668,0.042,1.846c0.014,0.191,0.027,0.314,0.056,0.506h-1.998l-0.069-0.916
				c-0.208,0.301-0.734,1.094-2.066,1.094c-0.943,0-1.72-0.424-2.108-0.93c-0.458-0.561-0.458-1.518-0.458-1.859v-4.293H373.475z"/>
			<path fill="#231F20" d="M386.581,56.44c-0.056,0.547-0.097,1.012-0.097,1.709v5.1c0,2.543-2.15,2.789-3.495,2.789
				c-0.999,0-2.955-0.123-3.079-2.215h1.969c0.028,0.205,0.125,0.957,1.221,0.957c0.61,0,1.138-0.287,1.276-0.902
				c0.083-0.342,0.083-0.588,0.097-1.641c-0.651,0.848-1.387,0.943-1.886,0.943c-2.012,0-2.955-1.723-2.955-3.391
				c0-1.75,0.985-3.418,2.996-3.418c1.276,0,1.748,0.684,1.956,0.984l0.069-0.916H386.581z M383.058,61.799
				c1.442,0,1.442-1.668,1.442-1.969c0-0.779-0.152-2.105-1.401-2.105c-0.776,0-1.414,0.588-1.414,2.064
				C381.685,60.131,381.685,61.799,383.058,61.799z"/>
			<path fill="#231F20" d="M396.385,63.221c-0.666,0.178-1.263,0.219-1.596,0.219c-2.066,0-2.066-1.285-2.066-1.859v-3.787h-1.346
				v-1.34h1.346V55.1l2.039-0.738v2.092h1.664v1.34h-1.664v3.117c0.014,0.629,0.014,1.025,0.93,1.025
				c0.305,0,0.443-0.014,0.693-0.041V63.221z"/>
			<path fill="#231F20" d="M397.716,53.446h2.039v3.91c0.236-0.328,0.749-1.039,2.025-1.039c1.04,0,1.706,0.506,2.039,0.93
				c0.249,0.342,0.457,0.971,0.457,1.873v4.197h-2.039v-4.129c0-0.396,0-1.504-1.15-1.504c-0.583,0-1.318,0.328-1.318,1.408
				l0.015,4.225h-2.067V53.446z"/>
			<path fill="#231F20" d="M407.784,60.377c0,0.451,0,1.846,1.429,1.846c0.514,0,1.026-0.191,1.221-0.957h1.872
				c-0.027,0.328-0.097,0.916-0.665,1.504c-0.514,0.533-1.429,0.807-2.455,0.807c-0.597,0-1.734-0.109-2.47-0.861
				c-0.638-0.656-0.901-1.586-0.901-2.693c0-1.121,0.277-2.461,1.457-3.268c0.541-0.355,1.206-0.574,1.969-0.574
				c0.999,0,2.192,0.383,2.83,1.668c0.472,0.943,0.443,1.955,0.416,2.529H407.784z M410.391,59.106c0-0.314-0.027-1.545-1.221-1.545
				c-0.901,0-1.275,0.738-1.317,1.545H410.391z"/>
			<path fill="#231F20" d="M413.844,58.108c0-0.328-0.055-1.326-0.097-1.723h1.928l0.042,1.326c0.264-0.588,0.721-1.422,2.386-1.34
				v1.818c-2.081-0.191-2.205,0.861-2.205,1.723v3.404h-2.054V58.108z"/>
			<path fill="#231F20" d="M423.441,63.317c-0.069-0.424-0.069-0.738-0.069-0.943c-0.776,1.107-1.706,1.107-2.095,1.107
				c-1.013,0-1.47-0.287-1.747-0.547c-0.416-0.41-0.61-0.971-0.61-1.518s0.194-1.559,1.484-2.146
				c0.859-0.383,2.094-0.383,2.773-0.383c0-0.451-0.014-0.67-0.097-0.916c-0.181-0.506-0.722-0.574-0.916-0.574
				c-0.291,0-0.596,0.123-0.776,0.383c-0.152,0.232-0.152,0.451-0.152,0.615h-2.012c0.014-0.369,0.056-1.107,0.791-1.627
				c0.638-0.451,1.456-0.561,2.122-0.561c0.582,0,1.803,0.096,2.496,0.889c0.472,0.561,0.486,1.381,0.486,1.695l0.014,2.775
				c0,0.588,0.041,1.176,0.166,1.75H423.441z M420.917,61.184c0,0.465,0.319,0.984,0.999,0.984c0.374,0,0.68-0.178,0.873-0.396
				c0.361-0.438,0.389-0.971,0.389-1.709C421.86,59.953,420.917,60.364,420.917,61.184z"/>
			<path fill="#231F20" d="M428.877,56.412l0.056,0.984c0.638-1.107,1.803-1.121,2.136-1.121c1.817,0,2.913,1.34,2.913,3.445
				c0,1.955-1.026,3.691-3.052,3.691c-1.262,0-1.775-0.656-1.955-0.889v3.445h-2.095v-9.557H428.877z M431.9,59.803
				c0-0.82-0.208-2.229-1.414-2.229c-0.666,0-1.609,0.492-1.609,2.352c0,0.41,0.014,2.16,1.526,2.16
				C431.374,62.086,431.9,61.17,431.9,59.803z"/>
			<path fill="#231F20" d="M436.934,56.412l1.54,4.785l1.567-4.785h2.038l-2.648,6.781l-0.847,2.748h-2.066l0.888-2.598l-2.69-6.932
				H436.934z"/>
			<path fill="#231F20" d="M445.699,61.498l-1.65,3.363h-1.429l1.026-3.363H445.699z"/>
			<path fill="#231F20" d="M450.844,58.108c0-0.328-0.056-1.326-0.097-1.723h1.928l0.041,1.326c0.264-0.588,0.722-1.422,2.386-1.34
				v1.818c-2.08-0.191-2.205,0.861-2.205,1.723v3.404h-2.053V58.108z"/>
			<path fill="#231F20" d="M457.888,60.377c0,0.451,0,1.846,1.429,1.846c0.514,0,1.026-0.191,1.221-0.957h1.872
				c-0.027,0.328-0.097,0.916-0.665,1.504c-0.514,0.533-1.429,0.807-2.455,0.807c-0.597,0-1.734-0.109-2.47-0.861
				c-0.638-0.656-0.901-1.586-0.901-2.693c0-1.121,0.277-2.461,1.457-3.268c0.541-0.355,1.206-0.574,1.969-0.574
				c0.999,0,2.192,0.383,2.83,1.668c0.472,0.943,0.443,1.955,0.416,2.529H457.888z M460.496,59.106c0-0.314-0.027-1.545-1.221-1.545
				c-0.901,0-1.275,0.738-1.317,1.545H460.496z"/>
			<path fill="#231F20" d="M467.652,58.86c-0.028-0.246-0.111-1.271-0.902-1.271c-0.971,0-1.081,1.449-1.081,2.201
				c0,0.383,0.041,1.613,0.513,2.119c0.194,0.205,0.402,0.232,0.555,0.232c0.223,0,0.86-0.096,0.943-1.326h2.025
				c-0.028,0.533-0.098,1.367-0.901,2.037c-0.5,0.424-1.124,0.643-1.998,0.643c-0.929,0-1.747-0.205-2.386-0.916
				c-0.61-0.697-0.888-1.613-0.888-2.721c0-3.145,2.345-3.582,3.273-3.582c1.304,0,2.844,0.711,2.857,2.584H467.652z"/>
			<path fill="#231F20" d="M475.086,63.317c-0.07-0.424-0.07-0.738-0.07-0.943c-0.776,1.107-1.705,1.107-2.094,1.107
				c-1.013,0-1.471-0.287-1.748-0.547c-0.416-0.41-0.61-0.971-0.61-1.518s0.194-1.559,1.484-2.146
				c0.86-0.383,2.095-0.383,2.774-0.383c0-0.451-0.015-0.67-0.098-0.916c-0.18-0.506-0.721-0.574-0.915-0.574
				c-0.291,0-0.597,0.123-0.777,0.383c-0.152,0.232-0.152,0.451-0.152,0.615h-2.011c0.014-0.369,0.056-1.107,0.79-1.627
				c0.639-0.451,1.457-0.561,2.122-0.561c0.583,0,1.804,0.096,2.497,0.889c0.472,0.561,0.485,1.381,0.485,1.695l0.014,2.775
				c0,0.588,0.042,1.176,0.167,1.75H475.086z M472.561,61.184c0,0.465,0.318,0.984,0.998,0.984c0.375,0,0.68-0.178,0.874-0.396
				c0.36-0.438,0.389-0.971,0.389-1.709C473.504,59.953,472.561,60.364,472.561,61.184z"/>
			<path fill="#231F20" d="M478.593,53.432h2.054v9.885h-2.054V53.432z"/>
			<path fill="#231F20" d="M486.151,58.86c-0.027-0.246-0.11-1.271-0.901-1.271c-0.971,0-1.082,1.449-1.082,2.201
				c0,0.383,0.042,1.613,0.514,2.119c0.194,0.205,0.402,0.232,0.555,0.232c0.222,0,0.859-0.096,0.943-1.326h2.024
				c-0.027,0.533-0.097,1.367-0.901,2.037c-0.499,0.424-1.123,0.643-1.997,0.643c-0.93,0-1.748-0.205-2.386-0.916
				c-0.61-0.697-0.888-1.613-0.888-2.721c0-3.145,2.344-3.582,3.273-3.582c1.304,0,2.843,0.711,2.857,2.584H486.151z"/>
			<path fill="#231F20" d="M491.393,56.412v4.115c0,0.602,0,1.518,1.096,1.518c1.317,0,1.317-0.971,1.317-2.146v-3.486h2.108v4.553
				c0.028,1.49,0.042,1.668,0.042,1.846c0.014,0.191,0.027,0.314,0.056,0.506h-1.998l-0.069-0.916
				c-0.208,0.301-0.734,1.094-2.066,1.094c-0.943,0-1.72-0.424-2.108-0.93c-0.458-0.561-0.458-1.518-0.458-1.859v-4.293H491.393z"/>
			<path fill="#231F20" d="M497.855,53.432h2.053v9.885h-2.053V53.432z"/>
			<path fill="#231F20" d="M505.914,63.317c-0.07-0.424-0.07-0.738-0.07-0.943c-0.776,1.107-1.705,1.107-2.094,1.107
				c-1.013,0-1.471-0.287-1.748-0.547c-0.416-0.41-0.61-0.971-0.61-1.518s0.194-1.559,1.484-2.146
				c0.86-0.383,2.095-0.383,2.774-0.383c0-0.451-0.015-0.67-0.098-0.916c-0.18-0.506-0.721-0.574-0.915-0.574
				c-0.291,0-0.597,0.123-0.777,0.383c-0.152,0.232-0.152,0.451-0.152,0.615h-2.011c0.014-0.369,0.056-1.107,0.79-1.627
				c0.639-0.451,1.457-0.561,2.122-0.561c0.583,0,1.804,0.096,2.497,0.889c0.472,0.561,0.485,1.381,0.485,1.695l0.014,2.775
				c0,0.588,0.042,1.176,0.167,1.75H505.914z M503.389,61.184c0,0.465,0.318,0.984,0.998,0.984c0.375,0,0.68-0.178,0.874-0.396
				c0.36-0.438,0.389-0.971,0.389-1.709C504.332,59.953,503.389,60.364,503.389,61.184z"/>
			<path fill="#231F20" d="M513.541,63.221c-0.666,0.178-1.263,0.219-1.596,0.219c-2.066,0-2.066-1.285-2.066-1.859v-3.787h-1.346
				v-1.34h1.346V55.1l2.039-0.738v2.092h1.664v1.34h-1.664v3.117c0.014,0.629,0.014,1.025,0.93,1.025
				c0.305,0,0.443-0.014,0.693-0.041V63.221z"/>
			<path fill="#231F20" d="M516.467,60.377c0,0.451,0,1.846,1.429,1.846c0.513,0,1.026-0.191,1.22-0.957h1.873
				c-0.028,0.328-0.098,0.916-0.666,1.504c-0.513,0.533-1.429,0.807-2.455,0.807c-0.597,0-1.733-0.109-2.469-0.861
				c-0.638-0.656-0.901-1.586-0.901-2.693c0-1.121,0.277-2.461,1.456-3.268c0.541-0.355,1.207-0.574,1.97-0.574
				c0.999,0,2.191,0.383,2.829,1.668c0.472,0.943,0.444,1.955,0.416,2.529H516.467z M519.074,59.106
				c0-0.314-0.028-1.545-1.221-1.545c-0.901,0-1.276,0.738-1.317,1.545H519.074z"/>
			<path fill="#231F20" d="M42.493,75.178c0,0.451,0,1.846,1.429,1.846c0.514,0,1.026-0.191,1.221-0.957h1.872
				c-0.027,0.328-0.097,0.916-0.665,1.504c-0.514,0.533-1.429,0.807-2.455,0.807c-0.597,0-1.734-0.109-2.47-0.861
				c-0.638-0.656-0.901-1.586-0.901-2.693c0-1.121,0.277-2.461,1.457-3.268c0.541-0.355,1.206-0.574,1.969-0.574
				c0.999,0,2.192,0.383,2.83,1.668c0.472,0.943,0.443,1.955,0.416,2.529H42.493z M45.1,73.906c0-0.314-0.027-1.545-1.221-1.545
				c-0.901,0-1.275,0.738-1.317,1.545H45.1z"/>
			<path fill="#231F20" d="M49.981,76.121c0.028,0.438,0.306,0.943,1.165,0.943c0.735,0,1.082-0.41,1.082-0.82
				c0-0.314-0.166-0.561-0.971-0.779l-1.276-0.342c-0.568-0.164-1.775-0.506-1.775-1.914c0-1.34,1.249-2.16,3.065-2.16
				c1.442,0,2.607,0.656,2.663,2.037h-1.872c-0.056-0.766-0.68-0.82-0.999-0.82c-0.555,0-0.971,0.26-0.971,0.684
				c0,0.465,0.347,0.561,0.957,0.725l1.263,0.342c1.275,0.342,1.872,0.984,1.872,1.928c0,1.189-1.04,2.379-3.218,2.379
				c-0.901,0-1.762-0.191-2.399-0.848c-0.458-0.479-0.5-1.025-0.514-1.354H49.981z"/>
			<path fill="#231F20" d="M59.606,78.021c-0.665,0.178-1.262,0.219-1.595,0.219c-2.066,0-2.066-1.285-2.066-1.859v-3.787h-1.346
				v-1.34h1.346V69.9l2.039-0.738v2.092h1.664v1.34h-1.664v3.117c0.014,0.629,0.014,1.025,0.929,1.025
				c0.306,0,0.444-0.014,0.693-0.041V78.021z"/>
			<path fill="#231F20" d="M60.812,68.246h2.191v1.764h-2.191V68.246z M60.882,71.199h2.053v6.918h-2.053V71.199z"/>
			<path fill="#231F20" d="M64.778,72.512c0-0.438-0.027-0.861-0.069-1.299h1.983l0.069,0.889c0.222-0.301,0.763-1.039,2.164-1.039
				c1.608,0,2.066,0.971,2.205,1.299c0.583-1.107,1.525-1.285,2.247-1.285c1.415,0,1.983,0.834,2.136,1.107
				c0.375,0.602,0.347,1.436,0.347,2.037v3.896h-2.066v-4.061c0-0.738-0.111-1.559-1.179-1.559c-1.234,0-1.263,1.135-1.263,2.16
				v3.459h-2.066v-4.102c0-0.533-0.014-1.518-1.151-1.518c-1.29,0-1.29,1.094-1.29,1.559v4.061h-2.066V72.512z"/>
			<path fill="#231F20" d="M82.031,78.117c-0.07-0.424-0.07-0.738-0.07-0.943c-0.776,1.107-1.705,1.107-2.094,1.107
				c-1.013,0-1.471-0.287-1.748-0.547c-0.416-0.41-0.61-0.971-0.61-1.518s0.194-1.559,1.484-2.146
				c0.86-0.383,2.095-0.383,2.774-0.383c0-0.451-0.015-0.67-0.098-0.916c-0.18-0.506-0.721-0.574-0.915-0.574
				c-0.291,0-0.597,0.123-0.777,0.383c-0.152,0.232-0.152,0.451-0.152,0.615h-2.011c0.014-0.369,0.056-1.107,0.79-1.627
				c0.639-0.451,1.457-0.561,2.122-0.561c0.583,0,1.804,0.096,2.497,0.889c0.472,0.561,0.485,1.381,0.485,1.695l0.014,2.775
				c0,0.588,0.042,1.176,0.167,1.75H82.031z M79.507,75.984c0,0.465,0.318,0.984,0.998,0.984c0.375,0,0.68-0.178,0.874-0.396
				c0.36-0.438,0.389-0.971,0.389-1.709C80.449,74.754,79.507,75.164,79.507,75.984z"/>
			<path fill="#231F20" d="M89.658,78.021c-0.666,0.178-1.263,0.219-1.596,0.219c-2.066,0-2.066-1.285-2.066-1.859v-3.787H84.65
				v-1.34h1.346V69.9l2.039-0.738v2.092h1.664v1.34h-1.664v3.117c0.014,0.629,0.014,1.025,0.93,1.025
				c0.305,0,0.443-0.014,0.693-0.041V78.021z"/>
			<path fill="#231F20" d="M92.584,75.178c0,0.451,0,1.846,1.429,1.846c0.513,0,1.026-0.191,1.22-0.957h1.873
				c-0.028,0.328-0.098,0.916-0.666,1.504c-0.513,0.533-1.429,0.807-2.455,0.807c-0.597,0-1.733-0.109-2.469-0.861
				c-0.638-0.656-0.901-1.586-0.901-2.693c0-1.121,0.277-2.461,1.456-3.268c0.541-0.355,1.207-0.574,1.97-0.574
				c0.999,0,2.191,0.383,2.829,1.668c0.472,0.943,0.444,1.955,0.416,2.529H92.584z M95.191,73.906c0-0.314-0.028-1.545-1.221-1.545
				c-0.901,0-1.276,0.738-1.317,1.545H95.191z"/>
			<path fill="#231F20" d="M103.276,68.246h2.066v8.75c0,0.41,0.027,0.861,0.056,1.121h-2.081l-0.055-0.998
				c-0.139,0.246-0.277,0.506-0.708,0.779c-0.513,0.328-1.054,0.355-1.359,0.355c-1.872,0-2.981-1.271-2.981-3.432
				c0-2.283,1.262-3.705,3.093-3.705c1.262,0,1.789,0.697,1.97,0.943V68.246z M101.709,76.941c0.597,0,1.082-0.355,1.304-0.779
				c0.305-0.574,0.333-1.285,0.333-1.627c0-1.354-0.597-2.092-1.526-2.092c-1.373,0-1.525,1.627-1.525,2.324
				C100.294,75.916,100.682,76.941,101.709,76.941z"/>
			<path fill="#231F20" d="M111.388,70.01c0.901-0.383,1.761-0.861,2.565-1.436h1.789v9.543h-2.094v-7.424
				c-0.402,0.301-1.207,0.793-2.261,1.217V70.01z"/>
			<path fill="#231F20" d="M121.678,68.437c1.359,0,2.164,0.725,2.524,1.258c0.499,0.725,0.874,1.654,0.874,3.445
				c0,2.215-0.514,5.127-3.427,5.127c-2.482,0-3.343-2.352-3.343-4.895C118.307,72.101,118.571,68.437,121.678,68.437z
				 M122.746,71.131c-0.055-0.26-0.291-1.107-1.054-1.107c-0.597,0-0.86,0.533-0.957,0.82c-0.319,0.971-0.319,2.434-0.319,2.666
				c0,1.627,0.25,3.145,1.29,3.145c1.109,0,1.29-1.859,1.29-3.172C122.996,72.881,122.927,71.76,122.746,71.131z"/>
			<path fill="#231F20" d="M126.101,73.728h3.44v1.545h-3.44V73.728z"/>
			<path fill="#231F20" d="M132.523,71.213l1.539,4.785l1.567-4.785h2.039l-2.649,6.781l-0.846,2.748h-2.066l0.888-2.598
				l-2.691-6.932H132.523z"/>
			<path fill="#231F20" d="M140.372,75.178c0,0.451,0,1.846,1.429,1.846c0.514,0,1.026-0.191,1.221-0.957h1.872
				c-0.027,0.328-0.097,0.916-0.665,1.504c-0.514,0.533-1.429,0.807-2.455,0.807c-0.597,0-1.734-0.109-2.47-0.861
				c-0.638-0.656-0.901-1.586-0.901-2.693c0-1.121,0.277-2.461,1.457-3.268c0.541-0.355,1.206-0.574,1.969-0.574
				c0.999,0,2.192,0.383,2.83,1.668c0.472,0.943,0.443,1.955,0.416,2.529H140.372z M142.979,73.906c0-0.314-0.027-1.545-1.221-1.545
				c-0.901,0-1.275,0.738-1.317,1.545H142.979z"/>
			<path fill="#231F20" d="M150.635,78.117c-0.069-0.424-0.069-0.738-0.069-0.943c-0.776,1.107-1.706,1.107-2.095,1.107
				c-1.013,0-1.47-0.287-1.747-0.547c-0.416-0.41-0.61-0.971-0.61-1.518s0.194-1.559,1.484-2.146
				c0.859-0.383,2.094-0.383,2.773-0.383c0-0.451-0.014-0.67-0.097-0.916c-0.181-0.506-0.722-0.574-0.916-0.574
				c-0.291,0-0.596,0.123-0.776,0.383c-0.152,0.232-0.152,0.451-0.152,0.615h-2.012c0.014-0.369,0.056-1.107,0.791-1.627
				c0.638-0.451,1.456-0.561,2.122-0.561c0.582,0,1.803,0.096,2.496,0.889c0.472,0.561,0.486,1.381,0.486,1.695l0.014,2.775
				c0,0.588,0.041,1.176,0.166,1.75H150.635z M148.11,75.984c0,0.465,0.319,0.984,0.999,0.984c0.374,0,0.68-0.178,0.873-0.396
				c0.361-0.438,0.389-0.971,0.389-1.709C149.053,74.754,148.11,75.164,148.11,75.984z"/>
			<path fill="#231F20" d="M154.142,72.908c0-0.328-0.056-1.326-0.097-1.723h1.928l0.041,1.326c0.264-0.588,0.722-1.422,2.386-1.34
				v1.818c-2.08-0.191-2.205,0.861-2.205,1.723v3.404h-2.053V72.908z"/>
			<path fill="#231F20" d="M160.966,76.121c0.027,0.438,0.305,0.943,1.165,0.943c0.735,0,1.082-0.41,1.082-0.82
				c0-0.314-0.167-0.561-0.971-0.779l-1.276-0.342c-0.568-0.164-1.775-0.506-1.775-1.914c0-1.34,1.248-2.16,3.065-2.16
				c1.442,0,2.607,0.656,2.663,2.037h-1.873c-0.055-0.766-0.68-0.82-0.998-0.82c-0.555,0-0.971,0.26-0.971,0.684
				c0,0.465,0.347,0.561,0.957,0.725l1.262,0.342c1.276,0.342,1.872,0.984,1.872,1.928c0,1.189-1.04,2.379-3.218,2.379
				c-0.901,0-1.761-0.191-2.399-0.848c-0.458-0.479-0.499-1.025-0.513-1.354H160.966z"/>
			<path fill="#231F20" d="M175.667,68.232l3.481,9.885h-2.164l-0.722-2.133h-3.967l-0.749,2.133h-2.053l3.62-9.885H175.667z
				 M175.721,74.385l-1.387-4.211l-1.484,4.211H175.721z"/>
			<path fill="#231F20" d="M182.114,74.959c0,0.465-0.027,1.873,1.817,1.873c1.165,0,1.899-0.547,1.899-1.381
				c0-0.875-0.624-1.025-1.899-1.326c-2.386-0.588-3.689-1.285-3.689-2.994c0-1.627,1.179-3.063,3.967-3.063
				c1.04,0,2.274,0.232,3.023,1.162c0.568,0.711,0.568,1.504,0.568,1.832h-2.066c-0.027-0.342-0.139-1.504-1.623-1.504
				c-0.998,0-1.65,0.533-1.65,1.34c0,0.916,0.735,1.08,2.178,1.436c1.733,0.41,3.439,0.875,3.439,2.803
				c0,1.777-1.498,3.213-4.271,3.213c-3.843,0-3.87-2.434-3.884-3.391H182.114z"/>
			<path fill="#231F20" d="M195.289,71.459c-0.041-0.342-0.166-1.736-1.622-1.736c-1.596,0-2.261,1.641-2.261,3.678
				c0,0.588,0,3.391,2.094,3.391c0.901,0,1.762-0.561,1.804-1.873h2.261c-0.042,0.588-0.098,1.504-0.901,2.324
				c-0.888,0.902-2.012,1.107-2.927,1.107c-3.454,0-4.577-2.516-4.577-4.963c0-3.131,1.775-5.209,4.591-5.209
				c2.191,0,3.731,1.313,3.731,3.281H195.289z"/>
			<path fill="#231F20" d="M200.447,68.273l2.621,7.752l2.636-7.752h2.122l-3.689,9.844h-2.344l-3.689-9.844H200.447z"/>
			<path fill="#231F20" d="M208.85,68.26l3.315,0.014c0.555,0,2.246,0.014,3.453,0.889c1.263,0.916,1.706,2.475,1.706,3.883
				c0,3.035-1.65,4.621-3.551,4.963c-0.374,0.068-0.791,0.109-1.803,0.109h-3.121V68.26z M211.028,76.49
				c0.235,0.014,0.597,0.027,0.846,0.027c0.916,0,1.706-0.068,2.33-0.684c0.847-0.834,0.902-2.311,0.902-2.789
				c0-1.395-0.486-2.68-1.831-3.049c-0.444-0.123-1.013-0.191-2.247-0.137V76.49z"/>
			<path fill="#231F20" d="M222.718,72.908c0-0.328-0.055-1.326-0.097-1.723h1.928l0.042,1.326c0.264-0.588,0.721-1.422,2.386-1.34
				v1.818c-2.081-0.191-2.205,0.861-2.205,1.723v3.404h-2.054V72.908z"/>
			<path fill="#231F20" d="M228.043,68.246h2.192v1.764h-2.192V68.246z M228.112,71.199h2.054v6.918h-2.054V71.199z"/>
			<path fill="#231F20" d="M233.396,76.121c0.028,0.438,0.306,0.943,1.165,0.943c0.735,0,1.082-0.41,1.082-0.82
				c0-0.314-0.166-0.561-0.971-0.779l-1.276-0.342c-0.568-0.164-1.775-0.506-1.775-1.914c0-1.34,1.249-2.16,3.065-2.16
				c1.442,0,2.607,0.656,2.663,2.037h-1.872c-0.056-0.766-0.68-0.82-0.999-0.82c-0.555,0-0.971,0.26-0.971,0.684
				c0,0.465,0.347,0.561,0.957,0.725l1.263,0.342c1.275,0.342,1.872,0.984,1.872,1.928c0,1.189-1.04,2.379-3.218,2.379
				c-0.901,0-1.762-0.191-2.399-0.848c-0.458-0.479-0.5-1.025-0.514-1.354H233.396z"/>
			<path fill="#231F20" d="M238.929,68.232h2.039v5.824l2.122-2.885h2.316l-2.399,3.008l2.552,3.938h-2.427l-2.164-3.76v3.76h-2.039
				V68.232z"/>
			<path fill="#231F20" d="M252.118,75.178c0,0.451,0,1.846,1.429,1.846c0.514,0,1.026-0.191,1.221-0.957h1.872
				c-0.027,0.328-0.097,0.916-0.665,1.504c-0.514,0.533-1.429,0.807-2.455,0.807c-0.597,0-1.734-0.109-2.47-0.861
				c-0.638-0.656-0.901-1.586-0.901-2.693c0-1.121,0.277-2.461,1.457-3.268c0.541-0.355,1.206-0.574,1.969-0.574
				c0.999,0,2.192,0.383,2.83,1.668c0.472,0.943,0.443,1.955,0.416,2.529H252.118z M254.725,73.906c0-0.314-0.027-1.545-1.221-1.545
				c-0.901,0-1.275,0.738-1.317,1.545H254.725z"/>
			<path fill="#231F20" d="M259.565,71.213l1.581,4.689l1.609-4.689h1.983l-2.524,6.904h-2.274l-2.566-6.904H259.565z"/>
			<path fill="#231F20" d="M267.54,75.178c0,0.451,0,1.846,1.429,1.846c0.513,0,1.026-0.191,1.22-0.957h1.873
				c-0.028,0.328-0.098,0.916-0.666,1.504c-0.513,0.533-1.429,0.807-2.455,0.807c-0.597,0-1.733-0.109-2.469-0.861
				c-0.638-0.656-0.901-1.586-0.901-2.693c0-1.121,0.277-2.461,1.456-3.268c0.541-0.355,1.207-0.574,1.97-0.574
				c0.999,0,2.191,0.383,2.829,1.668c0.472,0.943,0.444,1.955,0.416,2.529H267.54z M270.147,73.906c0-0.314-0.028-1.545-1.221-1.545
				c-0.901,0-1.276,0.738-1.317,1.545H270.147z"/>
			<path fill="#231F20" d="M273.599,72.908c0-0.328-0.056-1.326-0.097-1.723h1.928l0.041,1.326c0.264-0.588,0.722-1.422,2.386-1.34
				v1.818c-2.08-0.191-2.205,0.861-2.205,1.723v3.404h-2.053V72.908z"/>
			<path fill="#231F20" d="M280.506,71.213l1.54,4.785l1.567-4.785h2.038l-2.648,6.781l-0.847,2.748h-2.066l0.888-2.598l-2.69-6.932
				H280.506z"/>
			<path fill="#231F20" d="M289.881,76.039v-1.846l3.883-5.619h2.067l-0.015,5.893h1.318v1.572h-1.318v2.078h-2.053v-2.078H289.881z
				 M291.433,74.508h2.441v-2.516c0-0.123,0.014-0.807,0.027-1.053L291.433,74.508z"/>
			<path fill="#231F20" d="M297.979,73.728h3.439v1.545h-3.439V73.728z"/>
			<path fill="#231F20" d="M307.133,70.939c-0.042-0.684-0.5-0.943-1.013-0.943c-1.388,0-1.429,1.695-1.457,2.68
				c0.348-0.314,0.888-0.766,1.9-0.766c1.346,0,2.774,0.943,2.774,3.021c0,1.053-0.291,1.818-1.026,2.488
				c-0.638,0.588-1.387,0.889-2.469,0.889c-3.343,0-3.343-3.199-3.343-4.334c0-1.914,0.249-3.896,1.567-4.854
				c0.846-0.629,1.858-0.67,2.232-0.67c1.457,0,2.844,0.738,2.886,2.488H307.133z M307.299,75.068c0-1.053-0.555-1.641-1.248-1.641
				c-0.347,0-1.401,0.205-1.401,1.682c0,1.176,0.639,1.668,1.318,1.668C306.563,76.777,307.299,76.367,307.299,75.068z"/>
			<path fill="#231F20" d="M315.966,71.213l1.54,4.785l1.567-4.785h2.038l-2.648,6.781l-0.847,2.748h-2.066l0.888-2.598l-2.69-6.932
				H315.966z"/>
			<path fill="#231F20" d="M323.815,75.178c0,0.451,0,1.846,1.429,1.846c0.513,0,1.026-0.191,1.22-0.957h1.873
				c-0.028,0.328-0.098,0.916-0.666,1.504c-0.513,0.533-1.429,0.807-2.455,0.807c-0.597,0-1.733-0.109-2.469-0.861
				c-0.638-0.656-0.901-1.586-0.901-2.693c0-1.121,0.277-2.461,1.456-3.268c0.541-0.355,1.207-0.574,1.97-0.574
				c0.999,0,2.191,0.383,2.829,1.668c0.472,0.943,0.444,1.955,0.416,2.529H323.815z M326.423,73.906
				c0-0.314-0.028-1.545-1.221-1.545c-0.901,0-1.276,0.738-1.317,1.545H326.423z"/>
			<path fill="#231F20" d="M334.078,78.117c-0.069-0.424-0.069-0.738-0.069-0.943c-0.776,1.107-1.706,1.107-2.095,1.107
				c-1.013,0-1.47-0.287-1.747-0.547c-0.416-0.41-0.61-0.971-0.61-1.518s0.194-1.559,1.484-2.146
				c0.859-0.383,2.094-0.383,2.773-0.383c0-0.451-0.014-0.67-0.097-0.916c-0.181-0.506-0.722-0.574-0.916-0.574
				c-0.291,0-0.596,0.123-0.776,0.383c-0.152,0.232-0.152,0.451-0.152,0.615h-2.012c0.014-0.369,0.056-1.107,0.791-1.627
				c0.638-0.451,1.456-0.561,2.122-0.561c0.582,0,1.803,0.096,2.496,0.889c0.472,0.561,0.486,1.381,0.486,1.695l0.014,2.775
				c0,0.588,0.041,1.176,0.166,1.75H334.078z M331.553,75.984c0,0.465,0.319,0.984,0.999,0.984c0.374,0,0.68-0.178,0.873-0.396
				c0.361-0.438,0.389-0.971,0.389-1.709C332.497,74.754,331.553,75.164,331.553,75.984z"/>
			<path fill="#231F20" d="M337.586,72.908c0-0.328-0.056-1.326-0.097-1.723h1.928l0.041,1.326c0.264-0.588,0.722-1.422,2.386-1.34
				v1.818c-2.08-0.191-2.205,0.861-2.205,1.723v3.404h-2.053V72.908z"/>
			<path fill="#231F20" d="M344.409,76.121c0.027,0.438,0.305,0.943,1.165,0.943c0.735,0,1.082-0.41,1.082-0.82
				c0-0.314-0.167-0.561-0.971-0.779l-1.276-0.342c-0.568-0.164-1.775-0.506-1.775-1.914c0-1.34,1.248-2.16,3.065-2.16
				c1.442,0,2.607,0.656,2.663,2.037h-1.873c-0.055-0.766-0.68-0.82-0.998-0.82c-0.555,0-0.971,0.26-0.971,0.684
				c0,0.465,0.347,0.561,0.957,0.725l1.262,0.342c1.276,0.342,1.872,0.984,1.872,1.928c0,1.189-1.04,2.379-3.218,2.379
				c-0.901,0-1.761-0.191-2.399-0.848c-0.458-0.479-0.499-1.025-0.513-1.354H344.409z"/>
			<path fill="#231F20" d="M353.7,68.246h2.191v1.764H353.7V68.246z M353.769,71.199h2.053v6.918h-2.053V71.199z"/>
			<path fill="#231F20" d="M357.652,72.443c0-0.027,0-0.779-0.041-1.258h1.97l0.055,1.039c0.194-0.314,0.749-1.203,2.275-1.203
				c1.373,0,1.955,0.82,2.136,1.299c0.152,0.424,0.194,0.779,0.194,2.064v3.732h-2.095v-4.293c0-0.287,0-0.533-0.11-0.752
				c-0.153-0.301-0.472-0.588-0.999-0.588c-0.444,0-0.846,0.205-1.068,0.533c-0.125,0.178-0.249,0.52-0.249,1.053v4.047h-2.067
				V72.443z"/>
			<path fill="#231F20" d="M369.884,68.246h2.191v1.764h-2.191V68.246z M369.953,71.199h2.053v6.918h-2.053V71.199z"/>
			<path fill="#231F20" d="M373.836,72.443c0-0.027,0-0.779-0.041-1.258h1.97l0.055,1.039c0.194-0.314,0.749-1.203,2.275-1.203
				c1.373,0,1.955,0.82,2.136,1.299c0.152,0.424,0.194,0.779,0.194,2.064v3.732h-2.095v-4.293c0-0.287,0-0.533-0.11-0.752
				c-0.153-0.301-0.472-0.588-0.999-0.588c-0.444,0-0.846,0.205-1.068,0.533c-0.125,0.178-0.249,0.52-0.249,1.053v4.047h-2.067
				V72.443z"/>
			<path fill="#231F20" d="M386.914,68.246h2.067v8.75c0,0.41,0.027,0.861,0.055,1.121h-2.08l-0.056-0.998
				c-0.139,0.246-0.277,0.506-0.707,0.779c-0.514,0.328-1.055,0.355-1.359,0.355c-1.873,0-2.982-1.271-2.982-3.432
				c0-2.283,1.263-3.705,3.093-3.705c1.263,0,1.79,0.697,1.97,0.943V68.246z M385.346,76.941c0.597,0,1.082-0.355,1.304-0.779
				c0.306-0.574,0.333-1.285,0.333-1.627c0-1.354-0.596-2.092-1.525-2.092c-1.373,0-1.525,1.627-1.525,2.324
				C383.932,75.916,384.32,76.941,385.346,76.941z"/>
			<path fill="#231F20" d="M390.685,68.246h2.191v1.764h-2.191V68.246z M390.755,71.199h2.053v6.918h-2.053V71.199z"/>
			<path fill="#231F20" d="M395.997,71.213l1.581,4.689l1.608-4.689h1.984l-2.524,6.904h-2.275l-2.565-6.904H395.997z"/>
			<path fill="#231F20" d="M402.251,68.246h2.192v1.764h-2.192V68.246z M402.32,71.199h2.054v6.918h-2.054V71.199z"/>
			<path fill="#231F20" d="M410.808,68.246h2.066v8.75c0,0.41,0.027,0.861,0.056,1.121h-2.081l-0.055-0.998
				c-0.139,0.246-0.277,0.506-0.708,0.779c-0.513,0.328-1.054,0.355-1.359,0.355c-1.872,0-2.981-1.271-2.981-3.432
				c0-2.283,1.262-3.705,3.093-3.705c1.262,0,1.789,0.697,1.97,0.943V68.246z M409.241,76.941c0.597,0,1.082-0.355,1.304-0.779
				c0.305-0.574,0.333-1.285,0.333-1.627c0-1.354-0.597-2.092-1.526-2.092c-1.373,0-1.525,1.627-1.525,2.324
				C407.826,75.916,408.215,76.941,409.241,76.941z"/>
			<path fill="#231F20" d="M416.66,71.213v4.115c0,0.602,0,1.518,1.096,1.518c1.317,0,1.317-0.971,1.317-2.146v-3.486h2.108v4.553
				c0.028,1.49,0.042,1.668,0.042,1.846c0.014,0.191,0.027,0.314,0.056,0.506h-1.998l-0.069-0.916
				c-0.208,0.301-0.734,1.094-2.066,1.094c-0.943,0-1.72-0.424-2.108-0.93c-0.458-0.561-0.458-1.518-0.458-1.859v-4.293H416.66z"/>
			<path fill="#231F20" d="M427.325,78.117c-0.07-0.424-0.07-0.738-0.07-0.943c-0.776,1.107-1.705,1.107-2.094,1.107
				c-1.013,0-1.471-0.287-1.748-0.547c-0.416-0.41-0.61-0.971-0.61-1.518s0.194-1.559,1.484-2.146
				c0.86-0.383,2.095-0.383,2.774-0.383c0-0.451-0.015-0.67-0.098-0.916c-0.18-0.506-0.721-0.574-0.915-0.574
				c-0.291,0-0.597,0.123-0.777,0.383c-0.152,0.232-0.152,0.451-0.152,0.615h-2.011c0.014-0.369,0.056-1.107,0.79-1.627
				c0.639-0.451,1.457-0.561,2.122-0.561c0.583,0,1.804,0.096,2.497,0.889c0.472,0.561,0.485,1.381,0.485,1.695l0.014,2.775
				c0,0.588,0.042,1.176,0.167,1.75H427.325z M424.801,75.984c0,0.465,0.318,0.984,0.998,0.984c0.375,0,0.68-0.178,0.874-0.396
				c0.36-0.438,0.389-0.971,0.389-1.709C425.743,74.754,424.801,75.164,424.801,75.984z"/>
			<path fill="#231F20" d="M430.833,68.232h2.053v9.885h-2.053V68.232z"/>
			<path fill="#231F20" d="M436.116,76.121c0.028,0.438,0.306,0.943,1.165,0.943c0.735,0,1.082-0.41,1.082-0.82
				c0-0.314-0.166-0.561-0.971-0.779l-1.276-0.342c-0.568-0.164-1.775-0.506-1.775-1.914c0-1.34,1.249-2.16,3.065-2.16
				c1.442,0,2.607,0.656,2.663,2.037h-1.872c-0.056-0.766-0.68-0.82-0.999-0.82c-0.555,0-0.971,0.26-0.971,0.684
				c0,0.465,0.347,0.561,0.957,0.725l1.263,0.342c1.275,0.342,1.872,0.984,1.872,1.928c0,1.189-1.04,2.379-3.218,2.379
				c-0.901,0-1.762-0.191-2.399-0.848c-0.458-0.479-0.5-1.025-0.514-1.354H436.116z"/>
			<path fill="#231F20" d="M449.679,78.117c-0.069-0.424-0.069-0.738-0.069-0.943c-0.776,1.107-1.706,1.107-2.095,1.107
				c-1.013,0-1.47-0.287-1.747-0.547c-0.416-0.41-0.61-0.971-0.61-1.518s0.194-1.559,1.484-2.146
				c0.859-0.383,2.094-0.383,2.773-0.383c0-0.451-0.014-0.67-0.097-0.916c-0.181-0.506-0.722-0.574-0.916-0.574
				c-0.291,0-0.596,0.123-0.776,0.383c-0.152,0.232-0.152,0.451-0.152,0.615h-2.012c0.014-0.369,0.056-1.107,0.791-1.627
				c0.638-0.451,1.456-0.561,2.122-0.561c0.582,0,1.803,0.096,2.496,0.889c0.472,0.561,0.486,1.381,0.486,1.695l0.014,2.775
				c0,0.588,0.041,1.176,0.166,1.75H449.679z M447.155,75.984c0,0.465,0.319,0.984,0.999,0.984c0.374,0,0.68-0.178,0.873-0.396
				c0.361-0.438,0.389-0.971,0.389-1.709C448.098,74.754,447.155,75.164,447.155,75.984z"/>
			<path fill="#231F20" d="M459.831,71.24c-0.056,0.547-0.097,1.012-0.097,1.709v5.1c0,2.543-2.15,2.789-3.495,2.789
				c-0.999,0-2.955-0.123-3.079-2.215h1.969c0.028,0.205,0.125,0.957,1.221,0.957c0.61,0,1.138-0.287,1.276-0.902
				c0.083-0.342,0.083-0.588,0.097-1.641c-0.651,0.848-1.387,0.943-1.886,0.943c-2.012,0-2.955-1.723-2.955-3.391
				c0-1.75,0.985-3.418,2.996-3.418c1.276,0,1.748,0.684,1.956,0.984l0.069-0.916H459.831z M456.308,76.599
				c1.442,0,1.442-1.668,1.442-1.969c0-0.779-0.152-2.105-1.401-2.105c-0.776,0-1.414,0.588-1.414,2.064
				C454.935,74.932,454.935,76.599,456.308,76.599z"/>
			<path fill="#231F20" d="M463.311,75.178c0,0.451,0,1.846,1.429,1.846c0.514,0,1.026-0.191,1.221-0.957h1.872
				c-0.027,0.328-0.097,0.916-0.665,1.504c-0.514,0.533-1.429,0.807-2.455,0.807c-0.597,0-1.734-0.109-2.47-0.861
				c-0.638-0.656-0.901-1.586-0.901-2.693c0-1.121,0.277-2.461,1.457-3.268c0.541-0.355,1.206-0.574,1.969-0.574
				c0.999,0,2.192,0.383,2.83,1.668c0.472,0.943,0.443,1.955,0.416,2.529H463.311z M465.919,73.906c0-0.314-0.027-1.545-1.221-1.545
				c-0.901,0-1.275,0.738-1.317,1.545H465.919z"/>
			<path fill="#231F20" d="M474.004,68.246h2.067v8.75c0,0.41,0.027,0.861,0.055,1.121h-2.08l-0.056-0.998
				c-0.139,0.246-0.277,0.506-0.707,0.779c-0.514,0.328-1.055,0.355-1.359,0.355c-1.873,0-2.982-1.271-2.982-3.432
				c0-2.283,1.263-3.705,3.093-3.705c1.263,0,1.79,0.697,1.97,0.943V68.246z M472.436,76.941c0.597,0,1.082-0.355,1.304-0.779
				c0.306-0.574,0.333-1.285,0.333-1.627c0-1.354-0.596-2.092-1.525-2.092c-1.373,0-1.525,1.627-1.525,2.324
				C471.022,75.916,471.41,76.941,472.436,76.941z"/>
			<path fill="#231F20" d="M481.02,76.039v-1.846l3.883-5.619h2.067l-0.015,5.893h1.318v1.572h-1.318v2.078h-2.053v-2.078H481.02z
				 M482.573,74.508h2.441v-2.516c0-0.123,0.014-0.807,0.027-1.053L482.573,74.508z"/>
			<path fill="#231F20" d="M492.406,68.437c1.359,0,2.164,0.725,2.524,1.258c0.5,0.725,0.874,1.654,0.874,3.445
				c0,2.215-0.513,5.127-3.426,5.127c-2.482,0-3.343-2.352-3.343-4.895C489.036,72.101,489.3,68.437,492.406,68.437z
				 M493.474,71.131c-0.056-0.26-0.291-1.107-1.054-1.107c-0.597,0-0.86,0.533-0.957,0.82c-0.319,0.971-0.319,2.434-0.319,2.666
				c0,1.627,0.25,3.145,1.29,3.145c1.109,0,1.29-1.859,1.29-3.172C493.724,72.881,493.655,71.76,493.474,71.131z"/>
			<path fill="#231F20" d="M496.83,73.728h3.439v1.545h-3.439V73.728z"/>
			<path fill="#231F20" d="M501.35,68.588h6.561v1.695l-3.329,7.834h-2.316l3.537-7.943h-4.452V68.588z"/>
			<path fill="#231F20" d="M511.03,75.765c-0.014,0.219,0.167,1.066,1.138,1.066c0.749,0,1.429-0.533,1.429-1.791
				c0-0.916-0.361-1.709-1.29-1.709c-0.93,0-1.165,0.738-1.234,0.957l-2.012-0.055l0.223-5.646h5.866v1.559h-4.036l-0.124,2.365
				c0.305-0.26,0.763-0.684,1.83-0.684c1.554,0,2.857,1.121,2.857,3.035c0,1.627-0.971,3.459-3.453,3.459
				c-1.013,0-2.039-0.26-2.705-1.039c-0.485-0.574-0.527-1.162-0.541-1.518H511.03z"/>
			<path fill="#231F20" d="M40.132,86.013l1.539,4.785l1.567-4.785h2.039l-2.649,6.781l-0.846,2.748h-2.066l0.888-2.598
				l-2.691-6.932H40.132z"/>
			<path fill="#231F20" d="M47.98,89.977c0,0.451,0,1.846,1.429,1.846c0.514,0,1.026-0.191,1.221-0.957h1.872
				c-0.027,0.328-0.097,0.916-0.665,1.504c-0.514,0.533-1.429,0.807-2.455,0.807c-0.597,0-1.734-0.109-2.47-0.861
				c-0.638-0.656-0.901-1.586-0.901-2.693c0-1.121,0.277-2.461,1.457-3.268c0.541-0.355,1.206-0.574,1.969-0.574
				c0.999,0,2.192,0.383,2.83,1.668c0.472,0.943,0.443,1.955,0.416,2.529H47.98z M50.588,88.706c0-0.314-0.027-1.545-1.221-1.545
				c-0.901,0-1.275,0.738-1.317,1.545H50.588z"/>
			<path fill="#231F20" d="M58.243,92.917c-0.069-0.424-0.069-0.738-0.069-0.943c-0.776,1.107-1.706,1.107-2.095,1.107
				c-1.013,0-1.47-0.287-1.747-0.547c-0.416-0.41-0.61-0.971-0.61-1.518s0.194-1.559,1.484-2.146
				c0.859-0.383,2.094-0.383,2.773-0.383c0-0.451-0.014-0.67-0.097-0.916c-0.181-0.506-0.722-0.574-0.916-0.574
				c-0.291,0-0.596,0.123-0.776,0.383c-0.152,0.232-0.152,0.451-0.152,0.615h-2.012c0.014-0.369,0.056-1.107,0.791-1.627
				c0.638-0.451,1.456-0.561,2.122-0.561c0.582,0,1.803,0.096,2.496,0.889c0.472,0.561,0.486,1.381,0.486,1.695l0.014,2.775
				c0,0.588,0.041,1.176,0.166,1.75H58.243z M55.719,90.784c0,0.465,0.319,0.984,0.999,0.984c0.374,0,0.68-0.178,0.873-0.396
				c0.361-0.438,0.389-0.971,0.389-1.709C56.662,89.554,55.719,89.964,55.719,90.784z"/>
			<path fill="#231F20" d="M61.751,87.708c0-0.328-0.055-1.326-0.097-1.723h1.928l0.042,1.326c0.264-0.588,0.721-1.422,2.386-1.34
				v1.818c-2.081-0.191-2.205,0.861-2.205,1.723v3.404h-2.054V87.708z"/>
			<path fill="#231F20" d="M68.574,90.921c0.027,0.438,0.305,0.943,1.165,0.943c0.735,0,1.082-0.41,1.082-0.82
				c0-0.314-0.167-0.561-0.971-0.779l-1.276-0.342c-0.568-0.164-1.775-0.506-1.775-1.914c0-1.34,1.248-2.16,3.065-2.16
				c1.442,0,2.607,0.656,2.663,2.037h-1.873c-0.055-0.766-0.68-0.82-0.998-0.82c-0.555,0-0.971,0.26-0.971,0.684
				c0,0.465,0.347,0.561,0.957,0.725l1.262,0.342c1.276,0.342,1.872,0.984,1.872,1.928c0,1.189-1.04,2.379-3.218,2.379
				c-0.901,0-1.761-0.191-2.399-0.848c-0.458-0.479-0.499-1.025-0.513-1.354H68.574z"/>
			<path fill="#231F20" d="M79.28,86.013l1.29,5.209l1.484-5.209h2.261l1.47,5.209l1.374-5.209h2.038l-2.399,6.904h-2.232
				l-1.443-5.113l-1.47,5.113h-2.261l-2.289-6.904H79.28z"/>
			<path fill="#231F20" d="M90.193,83.046h2.192v1.764h-2.192V83.046z M90.262,85.999h2.054v6.918h-2.054V85.999z"/>
			<path fill="#231F20" d="M98.238,92.821c-0.666,0.178-1.263,0.219-1.596,0.219c-2.066,0-2.066-1.285-2.066-1.859v-3.787H93.23
				v-1.34h1.346V84.7l2.039-0.738v2.092h1.664v1.34h-1.664v3.117c0.014,0.629,0.014,1.025,0.93,1.025
				c0.305,0,0.443-0.014,0.693-0.041V92.821z"/>
			<path fill="#231F20" d="M99.568,83.046h2.039v3.91c0.236-0.328,0.749-1.039,2.025-1.039c1.04,0,1.706,0.506,2.039,0.93
				c0.249,0.342,0.457,0.971,0.457,1.873v4.197h-2.039v-4.129c0-0.396,0-1.504-1.15-1.504c-0.583,0-1.318,0.328-1.318,1.408
				l0.015,4.225h-2.067V83.046z"/>
			<path fill="#231F20" d="M111.287,85.849c2.538,0,3.635,1.695,3.635,3.623c0,1.941-1.138,3.691-3.676,3.691
				c-1.998,0-3.579-1.217-3.579-3.637C107.667,87.858,108.527,85.849,111.287,85.849z M111.315,91.755
				c0.901,0,1.512-0.533,1.512-2.365c0-0.916-0.181-2.188-1.54-2.188c-1.498,0-1.512,1.709-1.512,2.338
				C109.775,91.085,110.302,91.755,111.315,91.755z"/>
			<path fill="#231F20" d="M118.47,86.013v4.115c0,0.602,0,1.518,1.096,1.518c1.317,0,1.317-0.971,1.317-2.146v-3.486h2.108v4.553
				c0.028,1.49,0.042,1.668,0.042,1.846c0.014,0.191,0.027,0.314,0.056,0.506h-1.998l-0.069-0.916
				c-0.208,0.301-0.734,1.094-2.066,1.094c-0.943,0-1.72-0.424-2.108-0.93c-0.458-0.561-0.458-1.518-0.458-1.859v-4.293H118.47z"/>
			<path fill="#231F20" d="M129.052,92.821c-0.665,0.178-1.262,0.219-1.595,0.219c-2.066,0-2.066-1.285-2.066-1.859v-3.787h-1.346
				v-1.34h1.346V84.7l2.039-0.738v2.092h1.664v1.34h-1.664v3.117c0.014,0.629,0.014,1.025,0.929,1.025
				c0.306,0,0.444-0.014,0.693-0.041V92.821z"/>
			<path fill="#231F20" d="M137.885,88.46c-0.027-0.246-0.11-1.271-0.901-1.271c-0.971,0-1.082,1.449-1.082,2.201
				c0,0.383,0.042,1.613,0.514,2.119c0.194,0.205,0.402,0.232,0.555,0.232c0.222,0,0.859-0.096,0.943-1.326h2.024
				c-0.027,0.533-0.097,1.367-0.901,2.037c-0.499,0.424-1.123,0.643-1.997,0.643c-0.93,0-1.748-0.205-2.386-0.916
				c-0.61-0.697-0.888-1.613-0.888-2.721c0-3.145,2.344-3.582,3.273-3.582c1.304,0,2.843,0.711,2.857,2.584H137.885z"/>
			<path fill="#231F20" d="M141.116,83.032h2.053v9.885h-2.053V83.032z"/>
			<path fill="#231F20" d="M144.902,83.046h2.191v1.764h-2.191V83.046z M144.971,85.999h2.053v6.918h-2.053V85.999z"/>
			<path fill="#231F20" d="M148.854,87.243c0-0.027,0-0.779-0.041-1.258h1.97l0.055,1.039c0.194-0.314,0.749-1.203,2.275-1.203
				c1.373,0,1.955,0.82,2.136,1.299c0.152,0.424,0.194,0.779,0.194,2.064v3.732h-2.095v-4.293c0-0.287,0-0.533-0.11-0.752
				c-0.153-0.301-0.472-0.588-0.999-0.588c-0.444,0-0.846,0.205-1.068,0.533c-0.125,0.178-0.249,0.52-0.249,1.053v4.047h-2.067
				V87.243z"/>
			<path fill="#231F20" d="M157.23,83.046h2.192v1.764h-2.192V83.046z M157.3,85.999h2.054v6.918H157.3V85.999z"/>
			<path fill="#231F20" d="M164.858,88.46c-0.027-0.246-0.11-1.271-0.901-1.271c-0.971,0-1.082,1.449-1.082,2.201
				c0,0.383,0.042,1.613,0.514,2.119c0.194,0.205,0.402,0.232,0.555,0.232c0.222,0,0.859-0.096,0.943-1.326h2.024
				c-0.027,0.533-0.097,1.367-0.901,2.037c-0.499,0.424-1.123,0.643-1.997,0.643c-0.93,0-1.748-0.205-2.386-0.916
				c-0.61-0.697-0.888-1.613-0.888-2.721c0-3.145,2.344-3.582,3.273-3.582c1.304,0,2.843,0.711,2.857,2.584H164.858z"/>
			<path fill="#231F20" d="M172.292,92.917c-0.069-0.424-0.069-0.738-0.069-0.943c-0.776,1.107-1.706,1.107-2.095,1.107
				c-1.013,0-1.47-0.287-1.747-0.547c-0.416-0.41-0.61-0.971-0.61-1.518s0.194-1.559,1.484-2.146
				c0.859-0.383,2.094-0.383,2.773-0.383c0-0.451-0.014-0.67-0.097-0.916c-0.181-0.506-0.722-0.574-0.916-0.574
				c-0.291,0-0.596,0.123-0.776,0.383c-0.152,0.232-0.152,0.451-0.152,0.615h-2.012c0.014-0.369,0.056-1.107,0.791-1.627
				c0.638-0.451,1.456-0.561,2.122-0.561c0.582,0,1.803,0.096,2.496,0.889c0.472,0.561,0.486,1.381,0.486,1.695l0.014,2.775
				c0,0.588,0.041,1.176,0.166,1.75H172.292z M169.767,90.784c0,0.465,0.319,0.984,0.999,0.984c0.374,0,0.68-0.178,0.873-0.396
				c0.361-0.438,0.389-0.971,0.389-1.709C170.711,89.554,169.767,89.964,169.767,90.784z"/>
			<path fill="#231F20" d="M175.8,83.032h2.053v9.885H175.8V83.032z"/>
			<path fill="#231F20" d="M188.85,83.032l3.481,9.885h-2.164l-0.722-2.133h-3.967l-0.749,2.133h-2.053l3.62-9.885H188.85z
				 M188.905,89.184l-1.387-4.211l-1.484,4.211H188.905z"/>
			<path fill="#231F20" d="M195.298,89.759c0,0.465-0.027,1.873,1.817,1.873c1.165,0,1.9-0.547,1.9-1.381
				c0-0.875-0.624-1.025-1.9-1.326c-2.386-0.588-3.689-1.285-3.689-2.994c0-1.627,1.179-3.063,3.967-3.063
				c1.04,0,2.274,0.232,3.023,1.162c0.569,0.711,0.569,1.504,0.569,1.832h-2.067c-0.027-0.342-0.139-1.504-1.622-1.504
				c-0.999,0-1.65,0.533-1.65,1.34c0,0.916,0.734,1.08,2.177,1.436c1.734,0.41,3.44,0.875,3.44,2.803
				c0,1.777-1.498,3.213-4.272,3.213c-3.842,0-3.869-2.434-3.884-3.391H195.298z"/>
			<path fill="#231F20" d="M208.472,86.259c-0.041-0.342-0.166-1.736-1.622-1.736c-1.596,0-2.261,1.641-2.261,3.678
				c0,0.588,0,3.391,2.094,3.391c0.901,0,1.762-0.561,1.804-1.873h2.261c-0.042,0.588-0.098,1.504-0.901,2.324
				c-0.888,0.902-2.012,1.107-2.927,1.107c-3.454,0-4.577-2.516-4.577-4.963c0-3.131,1.775-5.209,4.591-5.209
				c2.191,0,3.731,1.313,3.731,3.281H208.472z"/>
			<path fill="#231F20" d="M213.632,83.073l2.621,7.752l2.636-7.752h2.122l-3.689,9.844h-2.345l-3.689-9.844H213.632z"/>
			<path fill="#231F20" d="M222.034,83.059l3.315,0.014c0.555,0,2.247,0.014,3.454,0.889c1.262,0.916,1.706,2.475,1.706,3.883
				c0,3.035-1.651,4.621-3.551,4.963c-0.375,0.068-0.791,0.109-1.804,0.109h-3.121V83.059z M224.212,91.29
				c0.236,0.014,0.597,0.027,0.847,0.027c0.915,0,1.706-0.068,2.33-0.684c0.846-0.834,0.901-2.311,0.901-2.789
				c0-1.395-0.485-2.68-1.831-3.049c-0.443-0.123-1.013-0.191-2.247-0.137V91.29z"/>
			<path fill="#231F20" d="M239.203,85.849c2.538,0,3.635,1.695,3.635,3.623c0,1.941-1.138,3.691-3.676,3.691
				c-1.998,0-3.579-1.217-3.579-3.637C235.583,87.858,236.443,85.849,239.203,85.849z M239.231,91.755
				c0.901,0,1.512-0.533,1.512-2.365c0-0.916-0.181-2.188-1.54-2.188c-1.498,0-1.512,1.709-1.512,2.338
				C237.691,91.085,238.219,91.755,239.231,91.755z"/>
			<path fill="#231F20" d="M244.375,87.708c0-0.328-0.055-1.326-0.097-1.723h1.928l0.042,1.326c0.264-0.588,0.721-1.422,2.386-1.34
				v1.818c-2.081-0.191-2.205,0.861-2.205,1.723v3.404h-2.054V87.708z"/>
			<path fill="#231F20" d="M258.258,83.046h2.067v8.75c0,0.41,0.027,0.861,0.055,1.121h-2.08l-0.056-0.998
				c-0.139,0.246-0.277,0.506-0.707,0.779c-0.514,0.328-1.055,0.355-1.359,0.355c-1.873,0-2.982-1.271-2.982-3.432
				c0-2.283,1.263-3.705,3.093-3.705c1.263,0,1.79,0.697,1.97,0.943V83.046z M256.69,91.741c0.597,0,1.082-0.355,1.304-0.779
				c0.306-0.574,0.333-1.285,0.333-1.627c0-1.354-0.596-2.092-1.525-2.092c-1.373,0-1.525,1.627-1.525,2.324
				C255.276,90.716,255.664,91.741,256.69,91.741z"/>
			<path fill="#231F20" d="M262.029,83.046h2.191v1.764h-2.191V83.046z M262.098,85.999h2.053v6.918h-2.053V85.999z"/>
			<path fill="#231F20" d="M270.156,92.917c-0.069-0.424-0.069-0.738-0.069-0.943c-0.776,1.107-1.706,1.107-2.095,1.107
				c-1.013,0-1.47-0.287-1.747-0.547c-0.416-0.41-0.61-0.971-0.61-1.518s0.194-1.559,1.484-2.146
				c0.859-0.383,2.094-0.383,2.773-0.383c0-0.451-0.014-0.67-0.097-0.916c-0.181-0.506-0.722-0.574-0.916-0.574
				c-0.291,0-0.596,0.123-0.776,0.383c-0.152,0.232-0.152,0.451-0.152,0.615h-2.012c0.014-0.369,0.056-1.107,0.791-1.627
				c0.638-0.451,1.456-0.561,2.122-0.561c0.582,0,1.803,0.096,2.496,0.889c0.472,0.561,0.486,1.381,0.486,1.695l0.014,2.775
				c0,0.588,0.041,1.176,0.166,1.75H270.156z M267.632,90.784c0,0.465,0.319,0.984,0.999,0.984c0.374,0,0.68-0.178,0.873-0.396
				c0.361-0.438,0.389-0.971,0.389-1.709C268.575,89.554,267.632,89.964,267.632,90.784z"/>
			<path fill="#231F20" d="M273.594,83.059h2.054v3.787c0.693-0.902,1.622-0.93,1.983-0.93c1.706,0,3.051,1.326,3.051,3.65
				c0,2.584-1.525,3.486-2.927,3.486c-0.36,0-1.47-0.027-2.107-1.107c-0.015,0.219-0.028,0.547-0.07,0.971h-1.983V83.059z
				 M277.076,87.27c-1.512,0-1.512,1.695-1.512,2.133c0,1.572,0.68,2.324,1.609,2.324c1.415,0,1.415-1.736,1.415-2.092
				C278.589,89.089,278.56,87.27,277.076,87.27z"/>
			<path fill="#231F20" d="M283.788,89.977c0,0.451,0,1.846,1.429,1.846c0.514,0,1.026-0.191,1.221-0.957h1.872
				c-0.027,0.328-0.097,0.916-0.665,1.504c-0.514,0.533-1.429,0.807-2.455,0.807c-0.597,0-1.734-0.109-2.47-0.861
				c-0.638-0.656-0.901-1.586-0.901-2.693c0-1.121,0.277-2.461,1.457-3.268c0.541-0.355,1.206-0.574,1.969-0.574
				c0.999,0,2.192,0.383,2.83,1.668c0.472,0.943,0.443,1.955,0.416,2.529H283.788z M286.395,88.706c0-0.314-0.027-1.545-1.221-1.545
				c-0.901,0-1.275,0.738-1.317,1.545H286.395z"/>
			<path fill="#231F20" d="M293.968,92.821c-0.666,0.178-1.263,0.219-1.596,0.219c-2.066,0-2.066-1.285-2.066-1.859v-3.787h-1.346
				v-1.34h1.346V84.7l2.039-0.738v2.092h1.664v1.34h-1.664v3.117c0.014,0.629,0.014,1.025,0.93,1.025
				c0.305,0,0.443-0.014,0.693-0.041V92.821z"/>
			<path fill="#231F20" d="M296.893,89.977c0,0.451,0,1.846,1.429,1.846c0.513,0,1.026-0.191,1.22-0.957h1.873
				c-0.028,0.328-0.098,0.916-0.666,1.504c-0.513,0.533-1.429,0.807-2.455,0.807c-0.597,0-1.733-0.109-2.469-0.861
				c-0.638-0.656-0.901-1.586-0.901-2.693c0-1.121,0.277-2.461,1.456-3.268c0.541-0.355,1.207-0.574,1.97-0.574
				c0.999,0,2.191,0.383,2.829,1.668c0.472,0.943,0.444,1.955,0.416,2.529H296.893z M299.501,88.706
				c0-0.314-0.028-1.545-1.221-1.545c-0.901,0-1.276,0.738-1.317,1.545H299.501z"/>
			<path fill="#231F20" d="M304.382,90.921c0.027,0.438,0.305,0.943,1.165,0.943c0.735,0,1.082-0.41,1.082-0.82
				c0-0.314-0.167-0.561-0.971-0.779l-1.276-0.342c-0.568-0.164-1.775-0.506-1.775-1.914c0-1.34,1.248-2.16,3.065-2.16
				c1.442,0,2.607,0.656,2.663,2.037h-1.873c-0.055-0.766-0.68-0.82-0.998-0.82c-0.555,0-0.971,0.26-0.971,0.684
				c0,0.465,0.347,0.561,0.957,0.725l1.262,0.342c1.276,0.342,1.872,0.984,1.872,1.928c0,1.189-1.04,2.379-3.218,2.379
				c-0.901,0-1.761-0.191-2.399-0.848c-0.458-0.479-0.499-1.025-0.513-1.354H304.382z"/>
			<path fill="#231F20" d="M317.945,92.917c-0.07-0.424-0.07-0.738-0.07-0.943c-0.776,1.107-1.705,1.107-2.094,1.107
				c-1.013,0-1.471-0.287-1.748-0.547c-0.416-0.41-0.61-0.971-0.61-1.518s0.194-1.559,1.484-2.146
				c0.86-0.383,2.095-0.383,2.774-0.383c0-0.451-0.015-0.67-0.098-0.916c-0.18-0.506-0.721-0.574-0.915-0.574
				c-0.291,0-0.597,0.123-0.777,0.383c-0.152,0.232-0.152,0.451-0.152,0.615h-2.011c0.014-0.369,0.056-1.107,0.79-1.627
				c0.639-0.451,1.457-0.561,2.122-0.561c0.583,0,1.804,0.096,2.497,0.889c0.472,0.561,0.485,1.381,0.485,1.695l0.014,2.775
				c0,0.588,0.042,1.176,0.167,1.75H317.945z M315.421,90.784c0,0.465,0.318,0.984,0.998,0.984c0.375,0,0.68-0.178,0.874-0.396
				c0.36-0.438,0.389-0.971,0.389-1.709C316.363,89.554,315.421,89.964,315.421,90.784z"/>
			<path fill="#231F20" d="M321.48,87.243c0-0.027,0-0.779-0.042-1.258h1.97l0.056,1.039c0.194-0.314,0.749-1.203,2.274-1.203
				c1.373,0,1.956,0.82,2.137,1.299c0.152,0.424,0.193,0.779,0.193,2.064v3.732h-2.094v-4.293c0-0.287,0-0.533-0.111-0.752
				c-0.152-0.301-0.472-0.588-0.999-0.588c-0.443,0-0.846,0.205-1.067,0.533c-0.125,0.178-0.25,0.52-0.25,1.053v4.047h-2.066V87.243
				z"/>
			<path fill="#231F20" d="M334.558,83.046h2.066v8.75c0,0.41,0.027,0.861,0.056,1.121h-2.081l-0.055-0.998
				c-0.139,0.246-0.277,0.506-0.708,0.779c-0.513,0.328-1.054,0.355-1.359,0.355c-1.872,0-2.981-1.271-2.981-3.432
				c0-2.283,1.262-3.705,3.093-3.705c1.262,0,1.789,0.697,1.97,0.943V83.046z M332.991,91.741c0.597,0,1.082-0.355,1.304-0.779
				c0.305-0.574,0.333-1.285,0.333-1.627c0-1.354-0.597-2.092-1.526-2.092c-1.373,0-1.525,1.627-1.525,2.324
				C331.576,90.716,331.965,91.741,332.991,91.741z"/>
			<path fill="#231F20" d="M343.599,86.013l1.29,5.209l1.484-5.209h2.261l1.47,5.209l1.374-5.209h2.038l-2.399,6.904h-2.232
				l-1.443-5.113l-1.47,5.113h-2.261l-2.289-6.904H343.599z"/>
			<path fill="#231F20" d="M354.513,83.046h2.191v1.764h-2.191V83.046z M354.583,85.999h2.053v6.918h-2.053V85.999z"/>
			<path fill="#231F20" d="M362.557,92.821c-0.666,0.178-1.263,0.219-1.596,0.219c-2.066,0-2.066-1.285-2.066-1.859v-3.787h-1.346
				v-1.34h1.346V84.7l2.039-0.738v2.092h1.664v1.34h-1.664v3.117c0.014,0.629,0.014,1.025,0.93,1.025
				c0.305,0,0.443-0.014,0.693-0.041V92.821z"/>
			<path fill="#231F20" d="M363.887,83.046h2.039v3.91c0.236-0.328,0.749-1.039,2.025-1.039c1.04,0,1.706,0.506,2.039,0.93
				c0.249,0.342,0.457,0.971,0.457,1.873v4.197h-2.039v-4.129c0-0.396,0-1.504-1.15-1.504c-0.583,0-1.318,0.328-1.318,1.408
				l0.015,4.225h-2.067V83.046z"/>
			<path fill="#231F20" d="M376.217,83.046h2.191v8.189h4.3v1.682h-6.491V83.046z"/>
			<path fill="#231F20" d="M383.871,83.059l3.315,0.014c0.555,0,2.247,0.014,3.454,0.889c1.262,0.916,1.706,2.475,1.706,3.883
				c0,3.035-1.651,4.621-3.551,4.963c-0.375,0.068-0.791,0.109-1.804,0.109h-3.121V83.059z M386.049,91.29
				c0.236,0.014,0.597,0.027,0.847,0.027c0.915,0,1.706-0.068,2.33-0.684c0.846-0.834,0.901-2.311,0.901-2.789
				c0-1.395-0.485-2.68-1.831-3.049c-0.443-0.123-1.013-0.191-2.247-0.137V91.29z"/>
			<path fill="#231F20" d="M393.939,83.046h2.191v8.189h4.3v1.682h-6.491V83.046z"/>
			<path fill="#231F20" d="M401.303,88.528h3.439v1.545h-3.439V88.528z"/>
			<path fill="#231F20" d="M411.913,86.259c-0.042-0.342-0.166-1.736-1.623-1.736c-1.595,0-2.261,1.641-2.261,3.678
				c0,0.588,0,3.391,2.095,3.391c0.901,0,1.762-0.561,1.803-1.873h2.261c-0.041,0.588-0.097,1.504-0.901,2.324
				c-0.888,0.902-2.011,1.107-2.927,1.107c-3.453,0-4.577-2.516-4.577-4.963c0-3.131,1.775-5.209,4.591-5.209
				c2.191,0,3.731,1.313,3.731,3.281H411.913z"/>
			<path fill="#231F20" d="M414.771,87.761l1.827-5.034h1.262l1.763,5.026v0.613h-4.852V87.761z M418.491,87.53l-0.85-2.262
				c-0.121-0.422-0.355-1.075-0.444-1.417h-0.024c-0.064,0.279-0.291,0.86-0.412,1.298l-0.897,2.381H418.491z"/>
			<path fill="#231F20" d="M424.209,83.388h6.561v1.695l-3.329,7.834h-2.316l3.537-7.943h-4.452V83.388z"/>
			<path fill="#231F20" d="M435.303,83.237c1.359,0,2.164,0.725,2.524,1.258c0.499,0.725,0.874,1.654,0.874,3.445
				c0,2.215-0.514,5.127-3.427,5.127c-2.482,0-3.343-2.352-3.343-4.895C431.932,86.901,432.196,83.237,435.303,83.237z
				 M436.371,85.931c-0.055-0.26-0.291-1.107-1.054-1.107c-0.597,0-0.86,0.533-0.957,0.82c-0.319,0.971-0.319,2.434-0.319,2.666
				c0,1.627,0.25,3.145,1.29,3.145c1.109,0,1.29-1.859,1.29-3.172C436.621,87.681,436.552,86.559,436.371,85.931z"/>
			<path fill="#231F20" d="M439.726,88.528h3.44v1.545h-3.44V88.528z"/>
			<path fill="#231F20" d="M445.052,84.809c0.901-0.383,1.762-0.861,2.566-1.436h1.789v9.543h-2.095v-7.424
				c-0.402,0.301-1.207,0.793-2.261,1.217V84.809z"/>
			<path fill="#231F20" d="M452.027,85.876c0-1.162,0.985-2.666,3.343-2.666c1.942,0,3.287,1.094,3.287,2.584
				c0,1.148-0.915,1.941-1.899,2.092c0.388,0.109,1.04,0.273,1.553,0.984c0.333,0.465,0.444,0.957,0.444,1.422
				c0,1.75-1.65,2.775-3.551,2.775c-1.97,0-3.329-1.244-3.329-2.775c0-0.738,0.291-1.271,0.707-1.668
				c0.472-0.451,0.916-0.588,1.276-0.711C453.373,87.763,452.027,87.352,452.027,85.876z M456.716,90.155
				c0-0.861-0.652-1.381-1.387-1.381c-0.805,0-1.388,0.602-1.388,1.408c0,0.971,0.735,1.422,1.401,1.422
				C455.925,91.604,456.716,91.222,456.716,90.155z M456.646,85.903c0-0.779-0.638-1.189-1.29-1.189
				c-0.693,0-1.262,0.465-1.262,1.189c0,0.67,0.485,1.23,1.248,1.23C456.05,87.134,456.646,86.669,456.646,85.903z"/>
			<path fill="#231F20" d="M461.708,90.593c0.055,0.574,0.43,0.93,1.012,0.93c1.443,0,1.554-1.477,1.513-2.789
				c-0.694,0.615-1.318,0.656-1.748,0.656c-2.372,0-2.982-1.859-2.982-2.994c0-1.777,1.29-3.131,3.427-3.131
				c3.328,0,3.411,3.117,3.411,4.648c0,4.033-1.387,5.182-3.73,5.182c-0.541,0-2.996,0-2.996-2.502H461.708z M464.19,86.259
				c0-0.834-0.444-1.449-1.29-1.449c-0.984,0-1.346,0.779-1.346,1.504c0,0.328,0.098,1.504,1.304,1.504
				C463.885,87.817,464.19,86.929,464.19,86.259z"/>
			<path fill="#231F20" d="M471.665,87.311c0-0.438-0.028-0.861-0.069-1.299h1.983l0.069,0.889c0.222-0.301,0.763-1.039,2.163-1.039
				c1.609,0,2.067,0.971,2.206,1.299c0.582-1.107,1.525-1.285,2.247-1.285c1.414,0,1.983,0.834,2.136,1.107
				c0.374,0.602,0.347,1.436,0.347,2.037v3.896h-2.066v-4.061c0-0.738-0.111-1.559-1.18-1.559c-1.234,0-1.262,1.135-1.262,2.16
				v3.459h-2.066v-4.102c0-0.533-0.015-1.518-1.151-1.518c-1.29,0-1.29,1.094-1.29,1.559v4.061h-2.066V87.311z"/>
			<path fill="#231F20" d="M491.357,86.04c-0.056,0.547-0.097,1.012-0.097,1.709v5.1c0,2.543-2.15,2.789-3.495,2.789
				c-0.999,0-2.955-0.123-3.079-2.215h1.969c0.028,0.205,0.125,0.957,1.221,0.957c0.61,0,1.138-0.287,1.276-0.902
				c0.083-0.342,0.083-0.588,0.097-1.641c-0.651,0.848-1.387,0.943-1.886,0.943c-2.012,0-2.955-1.723-2.955-3.391
				c0-1.75,0.985-3.418,2.996-3.418c1.276,0,1.748,0.684,1.956,0.984l0.069-0.916H491.357z M487.835,91.399
				c1.442,0,1.442-1.668,1.442-1.969c0-0.779-0.152-2.105-1.401-2.105c-0.776,0-1.414,0.588-1.414,2.064
				C486.462,89.731,486.462,91.399,487.835,91.399z"/>
			<path fill="#231F20" d="M498.042,83.1l-3.731,9.816h-1.623l3.759-9.816H498.042z"/>
			<path fill="#231F20" d="M503.976,83.046h2.067v8.75c0,0.41,0.027,0.861,0.055,1.121h-2.08l-0.056-0.998
				c-0.139,0.246-0.277,0.506-0.707,0.779c-0.514,0.328-1.055,0.355-1.359,0.355c-1.873,0-2.982-1.271-2.982-3.432
				c0-2.283,1.263-3.705,3.093-3.705c1.263,0,1.79,0.697,1.97,0.943V83.046z M502.409,91.741c0.597,0,1.082-0.355,1.304-0.779
				c0.306-0.574,0.333-1.285,0.333-1.627c0-1.354-0.596-2.092-1.525-2.092c-1.373,0-1.525,1.627-1.525,2.324
				C500.995,90.716,501.383,91.741,502.409,91.741z"/>
			<path fill="#231F20" d="M507.873,83.046h2.191v8.189h4.3v1.682h-6.491V83.046z"/>
			<path fill="#231F20" d="M515.652,91.099h1.762v1.818h-1.762V91.099z"/>
		</g>
	</g>
</g>
</svg>
