<?xml version="1.0" encoding="utf-8"?>
<!-- Generator: Adobe Illustrator 17.0.0, SVG Export Plug-In . SVG Version: 6.00 Build 0)  -->
<!DOCTYPE svg PUBLIC "-//W3C//DTD SVG 1.1//EN" "http://www.w3.org/Graphics/SVG/1.1/DTD/svg11.dtd">
<svg version="1.1" id="Layer_1" xmlns="http://www.w3.org/2000/svg" xmlns:xlink="http://www.w3.org/1999/xlink" x="0px" y="0px"
	 width="184.872px" height="33.442px" viewBox="0 0 184.872 33.442" enable-background="new 0 0 184.872 33.442"
	 xml:space="preserve">
<g>
	<g>
		<path fill="#484849" d="M14.691,0h1.848l3.711,11.424h-1.626l-0.821-2.722h-4.406l-0.853,2.722h-1.469L14.691,0z M15.576,1.345
			h-0.032L13.76,7.437h3.647L15.576,1.345z"/>
		<path fill="#484849" d="M25.844,0h1.295v11.424h-1.295v-0.949h-0.031c-0.442,0.744-0.995,1.107-1.832,1.107
			c-1.279,0-2.574-0.506-2.574-4.019c0-1.994,0.063-4.288,2.638-4.288c0.758,0,1.311,0.332,1.753,0.965h0.047V0z M24.344,4.335
			c-1.39,0-1.579,1.107-1.579,3.244c0,1.203,0,2.943,1.626,2.943c1.453,0,1.453-1.804,1.453-3.418
			C25.844,6.044,25.781,4.335,24.344,4.335z"/>
		<path fill="#484849" d="M33.79,3.434h1.295v6.329c0,0.554,0.031,1.108,0.079,1.662H33.79v-0.965h-0.048
			c-0.426,0.728-1.185,1.124-2.021,1.124c-1.39,0-2.147-0.696-2.147-2.057V3.434h1.295v5.538c0,0.965,0.442,1.614,1.358,1.614
			c0.694,0,1.563-0.522,1.563-1.851V3.434z"/>
		<path fill="#484849" d="M38.688,11.424h-1.295V0h1.295V11.424z"/>
		<path fill="#484849" d="M41.073,3.434V1.898l1.295-0.585v2.121h1.737v0.981h-1.737v4.89c0,0.506,0,1.155,1.185,1.155
			c0.095,0,0.3-0.032,0.584-0.063v0.997c-0.426,0.032-0.853,0.126-1.279,0.126c-1.231,0-1.784-0.506-1.784-1.424V4.415h-1.311V3.434
			H41.073z"/>
		<path fill="#484849" d="M47.676,11.583c-1.722,0-2.795-0.759-2.748-2.595h1.469c0,0.459,0.016,1.535,1.327,1.535
			c0.773,0,1.373-0.396,1.373-1.218c0-1.424-3.979-1.456-3.979-3.845c0-0.839,0.506-2.184,2.748-2.184
			c1.422,0,2.638,0.68,2.527,2.263h-1.438c0.016-0.839-0.427-1.282-1.248-1.282c-0.694,0-1.231,0.38-1.231,1.076
			c0,1.408,3.979,1.376,3.979,3.813C50.455,10.902,49.255,11.583,47.676,11.583z"/>
		<path fill="#484849" d="M59.949,10.269h-0.031c-0.396,0.918-1.011,1.313-2.006,1.313c-1.69,0-2.18-1.092-2.18-2.626
			c0-2.421,2.369-2.532,4.186-2.484c0.031-1.06,0.047-2.215-1.343-2.215c-0.868,0-1.326,0.585-1.247,1.424h-1.406
			c0.063-1.788,1.011-2.405,2.701-2.405c2.053,0,2.59,1.06,2.59,2.405v3.845c0,0.633,0.063,1.282,0.158,1.899h-1.422V10.269z
			 M57.027,9.051c0,0.775,0.379,1.472,1.248,1.472c0.789,0,1.769-0.491,1.643-3.07C58.686,7.468,57.027,7.358,57.027,9.051z"/>
		<path fill="#484849" d="M67.958,3.434h1.295v8.798c0,1.788-1.185,2.215-2.938,2.215c-1.326,0-2.526-0.665-2.416-2.136h1.453
			c0.016,0.744,0.505,1.155,1.216,1.155c0.9,0,1.39-0.554,1.39-1.376v-1.662h-0.047c-0.332,0.633-1.059,0.997-1.753,0.997
			c-2.164,0-2.591-1.867-2.591-4.241c0-3.671,1.849-3.908,2.496-3.908c0.837,0,1.5,0.364,1.863,1.139h0.031V3.434z M66.442,4.351
			c-1.469,0-1.517,1.772-1.517,2.833c0,2.563,0.585,3.165,1.548,3.165c1.563,0,1.517-1.851,1.517-2.959
			C67.99,6.203,68.068,4.351,66.442,4.351z"/>
		<path fill="#484849" d="M72.903,7.848c0,2.231,0.601,2.674,1.611,2.674c0.884,0,1.342-0.712,1.39-1.519h1.421
			c-0.016,1.772-1.105,2.579-2.779,2.579c-1.689,0-3.032-0.506-3.032-4.035c0-2.342,0.269-4.272,3.032-4.272
			c2.274,0,2.843,1.25,2.843,3.893v0.68H72.903z M76.015,6.867c0-2.326-0.647-2.611-1.595-2.611c-0.821,0-1.501,0.396-1.517,2.611
			H76.015z"/>
		<path fill="#484849" d="M87.909,7.421L82.556,4.43V3.275l6.586,3.639v1.013l-6.586,3.703v-1.155L87.909,7.421z"/>
		<path fill="#484849" d="M90.486,11.424v-1.266c3.206-4.494,4.154-5.317,4.154-7.216c0-0.87-0.427-1.456-1.358-1.456
			c-1.09,0-1.295,0.902-1.279,1.788h-1.484c-0.127-1.82,0.789-3.006,2.653-3.006c1.974,0,2.921,0.902,2.921,2.88
			c0,2.452-1.231,3.275-4.059,7.01h4.344v1.266H90.486z"/>
		<path fill="#484849" d="M101.386,11.424h-1.453V2.041L98.29,3.149V1.756c0.363-0.158,1.405-0.95,1.848-1.313h1.248V11.424z"/>
		<path fill="#484849" d="M110.88,9.937h0.031l1.911-6.503h1.405l-3.616,11.013h-1.343l0.9-3.022l-2.701-7.991h1.501L110.88,9.937z"
			/>
		<path fill="#484849" d="M116.756,7.848c0,2.231,0.601,2.674,1.611,2.674c0.884,0,1.342-0.712,1.39-1.519h1.421
			c-0.016,1.772-1.105,2.579-2.779,2.579c-1.689,0-3.032-0.506-3.032-4.035c0-2.342,0.269-4.272,3.032-4.272
			c2.274,0,2.843,1.25,2.843,3.893v0.68H116.756z M119.867,6.867c0-2.326-0.647-2.611-1.595-2.611c-0.821,0-1.501,0.396-1.517,2.611
			H119.867z"/>
		<path fill="#484849" d="M127.497,10.269h-0.031c-0.396,0.918-1.011,1.313-2.006,1.313c-1.689,0-2.18-1.092-2.18-2.626
			c0-2.421,2.369-2.532,4.186-2.484c0.031-1.06,0.047-2.215-1.343-2.215c-0.868,0-1.326,0.585-1.247,1.424h-1.406
			c0.063-1.788,1.011-2.405,2.701-2.405c2.053,0,2.59,1.06,2.59,2.405v3.845c0,0.633,0.063,1.282,0.158,1.899h-1.422V10.269z
			 M124.575,9.051c0,0.775,0.379,1.472,1.248,1.472c0.789,0,1.769-0.491,1.643-3.07C126.233,7.468,124.575,7.358,124.575,9.051z"/>
		<path fill="#484849" d="M132.632,4.636h0.031c0.537-1.219,1.2-1.361,2.464-1.361V4.62c-0.11-0.016-0.236-0.032-0.348-0.047
			c-0.11-0.016-0.221-0.032-0.347-0.032c-1.438,0-1.801,1.092-1.801,2.168v4.715h-1.295V3.434h1.295V4.636z"/>
		<path fill="#484849" d="M138.903,11.583c-1.722,0-2.795-0.759-2.748-2.595h1.469c0,0.459,0.016,1.535,1.326,1.535
			c0.774,0,1.374-0.396,1.374-1.218c0-1.424-3.979-1.456-3.979-3.845c0-0.839,0.506-2.184,2.748-2.184
			c1.422,0,2.638,0.68,2.527,2.263h-1.438c0.016-0.839-0.427-1.282-1.248-1.282c-0.694,0-1.231,0.38-1.231,1.076
			c0,1.408,3.979,1.376,3.979,3.813C141.683,10.902,140.482,11.583,138.903,11.583z"/>
		<path fill="#484849" d="M151.177,10.269h-0.031c-0.396,0.918-1.011,1.313-2.006,1.313c-1.689,0-2.18-1.092-2.18-2.626
			c0-2.421,2.369-2.532,4.186-2.484c0.031-1.06,0.047-2.215-1.343-2.215c-0.868,0-1.326,0.585-1.247,1.424h-1.406
			c0.063-1.788,1.011-2.405,2.701-2.405c2.053,0,2.59,1.06,2.59,2.405v3.845c0,0.633,0.063,1.282,0.158,1.899h-1.422V10.269z
			 M148.255,9.051c0,0.775,0.379,1.472,1.248,1.472c0.789,0,1.769-0.491,1.643-3.07C149.913,7.468,148.255,7.358,148.255,9.051z"/>
		<path fill="#484849" d="M159.296,11.424V5.886c0-0.854-0.3-1.551-1.405-1.551c-1.421,0-1.627,1.266-1.627,2.358v4.731h-1.295
			V5.095c0-0.554-0.031-1.108-0.078-1.662h1.373v1.028h0.063c0.506-0.902,1.105-1.187,2.132-1.187c1.706,0,2.133,1.028,2.133,2.611
			v5.538H159.296z"/>
		<path fill="#484849" d="M167.084,0h1.295v11.424h-1.295v-0.949h-0.031c-0.442,0.744-0.995,1.107-1.832,1.107
			c-1.279,0-2.574-0.506-2.574-4.019c0-1.994,0.063-4.288,2.638-4.288c0.758,0,1.311,0.332,1.753,0.965h0.047V0z M165.584,4.335
			c-1.39,0-1.579,1.107-1.579,3.244c0,1.203,0,2.943,1.626,2.943c1.453,0,1.453-1.804,1.453-3.418
			C167.084,6.044,167.021,4.335,165.584,4.335z"/>
	</g>
	<g>
		<path fill="#484849" d="M4.217,29.264H4.186c-0.396,0.918-1.011,1.313-2.006,1.313c-1.69,0-2.18-1.092-2.18-2.626
			c0-2.421,2.369-2.532,4.186-2.484c0.031-1.06,0.047-2.215-1.343-2.215c-0.868,0-1.326,0.585-1.247,1.424H0.189
			c0.063-1.788,1.011-2.405,2.701-2.405c2.053,0,2.59,1.06,2.59,2.405v3.845c0,0.633,0.063,1.282,0.158,1.899H4.217V29.264z
			 M1.295,28.046c0,0.775,0.379,1.472,1.248,1.472c0.789,0,1.769-0.491,1.643-3.07C2.953,26.463,1.295,26.353,1.295,28.046z"/>
		<path fill="#484849" d="M15.686,24.992c0.031-1.313-0.616-1.662-1.105-1.662c-0.995,0-1.675,0.475-1.675,2.658
			c0,2.595,0.332,3.529,1.675,3.529c0.3,0,1.2-0.316,1.152-1.756h1.358c0.048,2.247-1.627,2.816-2.511,2.816
			c-1.69,0-3.032-0.506-3.032-4.035c0-2.342,0.269-4.272,3.032-4.272c1.595,0,2.526,0.934,2.447,2.722H15.686z"/>
		<path fill="#484849" d="M23.521,29.264h-0.031c-0.396,0.918-1.011,1.313-2.006,1.313c-1.689,0-2.18-1.092-2.18-2.626
			c0-2.421,2.369-2.532,4.186-2.484c0.031-1.06,0.047-2.215-1.343-2.215c-0.868,0-1.326,0.585-1.247,1.424h-1.406
			c0.063-1.788,1.011-2.405,2.701-2.405c2.053,0,2.59,1.06,2.59,2.405v3.845c0,0.633,0.063,1.282,0.158,1.899h-1.422V29.264z
			 M20.599,28.046c0,0.775,0.379,1.472,1.248,1.472c0.789,0,1.769-0.491,1.643-3.07C22.257,26.463,20.599,26.353,20.599,28.046z"/>
		<path fill="#484849" d="M31.64,30.419v-5.538c0-0.854-0.3-1.551-1.405-1.551c-1.421,0-1.627,1.266-1.627,2.358v4.731h-1.295V24.09
			c0-0.554-0.031-1.108-0.078-1.662h1.373v1.028h0.063c0.506-0.902,1.105-1.187,2.132-1.187c1.706,0,2.133,1.028,2.133,2.611v5.538
			H31.64z"/>
		<path fill="#484849" d="M39.429,18.995h1.295v11.424h-1.295V29.47h-0.031c-0.442,0.744-0.995,1.107-1.832,1.107
			c-1.279,0-2.574-0.506-2.574-4.019c0-1.994,0.063-4.288,2.638-4.288c0.758,0,1.311,0.332,1.753,0.965h0.047V18.995z
			 M37.929,23.331c-1.39,0-1.579,1.107-1.579,3.244c0,1.203,0,2.943,1.626,2.943c1.453,0,1.453-1.804,1.453-3.418
			C39.429,25.04,39.366,23.331,37.929,23.331z"/>
		<path fill="#484849" d="M43,18.995h1.453v1.392H43V18.995z M44.374,30.419h-1.295v-7.991h1.295V30.419z"/>
		<path fill="#484849" d="M50.834,18.995h1.295v11.424h-1.295V29.47h-0.031c-0.442,0.744-0.995,1.107-1.832,1.107
			c-1.279,0-2.574-0.506-2.574-4.019c0-1.994,0.063-4.288,2.638-4.288c0.758,0,1.311,0.332,1.753,0.965h0.047V18.995z
			 M49.334,23.331c-1.39,0-1.579,1.107-1.579,3.244c0,1.203,0,2.943,1.626,2.943c1.453,0,1.453-1.804,1.453-3.418
			C50.834,25.04,50.771,23.331,49.334,23.331z"/>
		<path fill="#484849" d="M58.622,29.264h-0.031c-0.396,0.918-1.011,1.313-2.006,1.313c-1.689,0-2.18-1.092-2.18-2.626
			c0-2.421,2.369-2.532,4.186-2.484c0.031-1.06,0.047-2.215-1.343-2.215c-0.868,0-1.326,0.585-1.247,1.424h-1.406
			c0.063-1.788,1.011-2.405,2.701-2.405c2.053,0,2.59,1.06,2.59,2.405v3.845c0,0.633,0.063,1.282,0.158,1.899h-1.422V29.264z
			 M55.7,28.046c0,0.775,0.379,1.472,1.248,1.472c0.789,0,1.769-0.491,1.643-3.07C57.358,26.463,55.7,26.353,55.7,28.046z"/>
		<path fill="#484849" d="M62.557,22.429v-1.535l1.295-0.585v2.121h1.737v0.981h-1.737v4.89c0,0.506,0,1.155,1.185,1.155
			c0.095,0,0.3-0.032,0.584-0.063v0.997c-0.426,0.032-0.853,0.126-1.279,0.126c-1.231,0-1.784-0.506-1.784-1.424V23.41h-1.311
			v-0.981H62.557z"/>
		<path fill="#484849" d="M68.069,26.843c0,2.231,0.601,2.674,1.611,2.674c0.884,0,1.342-0.712,1.39-1.519h1.421
			c-0.016,1.772-1.105,2.579-2.779,2.579c-1.689,0-3.032-0.506-3.032-4.035c0-2.342,0.269-4.272,3.032-4.272
			c2.274,0,2.843,1.25,2.843,3.893v0.68H68.069z M71.181,25.862c0-2.326-0.647-2.611-1.595-2.611c-0.821,0-1.501,0.396-1.517,2.611
			H71.181z"/>
		<path fill="#484849" d="M78.448,22.429v-1.551c0-1.614,1.137-1.931,2.29-1.931c0.269,0,0.427,0.016,0.616,0.048v0.934
			c-1.374-0.095-1.611,0.49-1.611,1.139v1.361h1.611v0.981h-1.611v7.01h-1.295v-7.01h-1.231v-0.981H78.448z"/>
		<path fill="#484849" d="M82.382,26.542c0-2.342,0.269-4.272,3.032-4.272s3.032,1.93,3.032,4.272c0,3.529-1.343,4.035-3.032,4.035
			S82.382,30.071,82.382,26.542z M87.088,25.989c0-2.184-0.679-2.658-1.674-2.658s-1.674,0.475-1.674,2.658
			c0,2.595,0.331,3.529,1.674,3.529S87.088,28.584,87.088,25.989z"/>
		<path fill="#484849" d="M91.844,23.631h0.031c0.537-1.219,1.2-1.361,2.464-1.361v1.345c-0.11-0.016-0.236-0.032-0.348-0.047
			c-0.11-0.016-0.221-0.032-0.347-0.032c-1.438,0-1.801,1.092-1.801,2.168v4.715h-1.295v-7.991h1.295V23.631z"/>
		<path fill="#484849" d="M101.622,30.578c-1.722,0-2.795-0.759-2.748-2.595h1.469c0,0.459,0.016,1.535,1.326,1.535
			c0.774,0,1.374-0.396,1.374-1.218c0-1.424-3.979-1.456-3.979-3.845c0-0.839,0.506-2.184,2.748-2.184
			c1.422,0,2.638,0.68,2.527,2.263h-1.438c0.016-0.839-0.427-1.282-1.248-1.282c-0.694,0-1.231,0.38-1.231,1.076
			c0,1.408,3.979,1.376,3.979,3.813C104.401,29.897,103.201,30.578,101.622,30.578z"/>
		<path fill="#484849" d="M106.425,22.429v-1.535l1.295-0.585v2.121h1.737v0.981h-1.737v4.89c0,0.506,0,1.155,1.185,1.155
			c0.095,0,0.3-0.032,0.584-0.063v0.997c-0.426,0.032-0.853,0.126-1.279,0.126c-1.231,0-1.784-0.506-1.784-1.424V23.41h-1.311
			v-0.981H106.425z"/>
		<path fill="#484849" d="M114.78,29.264h-0.031c-0.396,0.918-1.011,1.313-2.006,1.313c-1.689,0-2.18-1.092-2.18-2.626
			c0-2.421,2.369-2.532,4.186-2.484c0.031-1.06,0.047-2.215-1.343-2.215c-0.868,0-1.326,0.585-1.247,1.424h-1.406
			c0.063-1.788,1.011-2.405,2.701-2.405c2.053,0,2.59,1.06,2.59,2.405v3.845c0,0.633,0.063,1.282,0.158,1.899h-1.422V29.264z
			 M111.858,28.046c0,0.775,0.379,1.472,1.248,1.472c0.789,0,1.769-0.491,1.643-3.07C113.517,26.463,111.858,26.353,111.858,28.046z
			"/>
		<path fill="#484849" d="M118.715,22.429v-1.535l1.295-0.585v2.121h1.737v0.981h-1.737v4.89c0,0.506,0,1.155,1.185,1.155
			c0.095,0,0.3-0.032,0.584-0.063v0.997c-0.426,0.032-0.853,0.126-1.279,0.126c-1.231,0-1.784-0.506-1.784-1.424V23.41h-1.311
			v-0.981H118.715z"/>
		<path fill="#484849" d="M122.854,18.995h1.453v1.392h-1.453V18.995z M124.228,30.419h-1.295v-7.991h1.295V30.419z"/>
		<path fill="#484849" d="M130.798,30.419v-5.538c0-0.854-0.3-1.551-1.405-1.551c-1.421,0-1.627,1.266-1.627,2.358v4.731h-1.295
			V24.09c0-0.554-0.031-1.108-0.078-1.662h1.373v1.028h0.063c0.506-0.902,1.105-1.187,2.132-1.187c1.706,0,2.133,1.028,2.133,2.611
			v5.538H130.798z"/>
		<path fill="#484849" d="M138.019,22.429v-1.535l1.295-0.585v2.121h1.737v0.981h-1.737v4.89c0,0.506,0,1.155,1.185,1.155
			c0.095,0,0.3-0.032,0.584-0.063v0.997c-0.426,0.032-0.853,0.126-1.279,0.126c-1.231,0-1.784-0.506-1.784-1.424V23.41h-1.311
			v-0.981H138.019z"/>
		<path fill="#484849" d="M146.595,30.419v-5.412c0-0.981-0.315-1.677-1.421-1.677c-1.295,0-1.627,1.044-1.627,2.389v4.7h-1.295
			V18.995h1.295v4.462h0.063c0.521-0.934,1.121-1.187,2.164-1.187c1.357,0,2.116,0.68,2.116,2.484v5.665H146.595z"/>
		<path fill="#484849" d="M151.431,26.843c0,2.231,0.601,2.674,1.611,2.674c0.884,0,1.342-0.712,1.39-1.519h1.421
			c-0.016,1.772-1.105,2.579-2.779,2.579c-1.689,0-3.032-0.506-3.032-4.035c0-2.342,0.269-4.272,3.032-4.272
			c2.274,0,2.843,1.25,2.843,3.893v0.68H151.431z M154.542,25.862c0-2.326-0.647-2.611-1.595-2.611
			c-0.821,0-1.501,0.396-1.517,2.611H154.542z"/>
		<path fill="#484849" d="M159.408,23.631h0.031c0.537-1.219,1.2-1.361,2.464-1.361v1.345c-0.11-0.016-0.236-0.032-0.348-0.047
			c-0.11-0.016-0.221-0.032-0.347-0.032c-1.438,0-1.801,1.092-1.801,2.168v4.715h-1.295v-7.991h1.295V23.631z"/>
		<path fill="#484849" d="M167.432,29.264H167.4c-0.396,0.918-1.011,1.313-2.006,1.313c-1.69,0-2.18-1.092-2.18-2.626
			c0-2.421,2.369-2.532,4.186-2.484c0.031-1.06,0.047-2.215-1.343-2.215c-0.868,0-1.326,0.585-1.247,1.424h-1.406
			c0.063-1.788,1.011-2.405,2.701-2.405c2.053,0,2.59,1.06,2.59,2.405v3.845c0,0.633,0.063,1.282,0.158,1.899h-1.422V29.264z
			 M164.51,28.046c0,0.775,0.379,1.472,1.248,1.472c0.789,0,1.769-0.491,1.643-3.07C166.168,26.463,164.51,26.353,164.51,28.046z"/>
		<path fill="#484849" d="M172.631,23.378h0.031c0.442-0.744,0.995-1.107,1.832-1.107c1.279,0,2.574,0.506,2.574,4.019
			c0,1.994-0.063,4.288-2.638,4.288c-0.758,0-1.311-0.332-1.753-0.965h-0.047v3.83h-1.295V22.429h1.295V23.378z M175.71,26.29
			c0-1.203,0-2.959-1.627-2.959c-1.595,0-1.452,2.215-1.452,3.434c0,1.06,0.063,2.753,1.5,2.753
			C175.521,29.518,175.71,28.426,175.71,26.29z"/>
		<path fill="#484849" d="M181.524,28.932h0.031l1.911-6.503h1.405l-3.616,11.013h-1.343l0.9-3.022l-2.701-7.991h1.501
			L181.524,28.932z"/>
	</g>
</g>
</svg>
