<?xml version="1.0" encoding="utf-8"?>
<!-- Generator: Adobe Illustrator 17.0.0, SVG Export Plug-In . SVG Version: 6.00 Build 0)  -->
<!DOCTYPE svg PUBLIC "-//W3C//DTD SVG 1.1//EN" "http://www.w3.org/Graphics/SVG/1.1/DTD/svg11.dtd">
<svg version="1.1" id="Layer_1" xmlns="http://www.w3.org/2000/svg" xmlns:xlink="http://www.w3.org/1999/xlink" x="0px" y="0px"
	 width="249.741px" height="65.921px" viewBox="0 0 249.741 65.921" enable-background="new 0 0 249.741 65.921"
	 xml:space="preserve">
<g>
	<path fill="#808084" d="M249.741,52.166c0,7.594-6.148,13.754-13.726,13.754H13.726C6.144,65.921,0,59.76,0,52.166v-37.91
		C0,6.667,6.144,0.506,13.726,0.506h222.289c7.578,0,13.726,6.161,13.726,13.751V52.166z"/>
	<g>
		<defs>
			<path id="SVGID_146_" d="M13.726,0C6.144,0,0,6.157,0,13.751v37.904C0,59.25,6.144,65.41,13.726,65.41h222.289
				c7.579,0,13.726-6.16,13.726-13.755V13.751C249.741,6.157,243.594,0,236.015,0H13.726z"/>
		</defs>
		<clipPath id="SVGID_2_">
			<use xlink:href="#SVGID_146_"  overflow="visible"/>
		</clipPath>
		
			<linearGradient id="SVGID_4_" gradientUnits="userSpaceOnUse" x1="-1284.035" y1="411.2348" x2="-1282.7242" y2="411.2348" gradientTransform="matrix(0 -49.8993 -49.7964 0 20602.8848 -64007.0391)">
			<stop  offset="0" style="stop-color:#404041"/>
			<stop  offset="0.0139" style="stop-color:#444445"/>
			<stop  offset="0.1522" style="stop-color:#68696A"/>
			<stop  offset="0.2969" style="stop-color:#868889"/>
			<stop  offset="0.4479" style="stop-color:#9E9FA1"/>
			<stop  offset="0.6078" style="stop-color:#AEB0B2"/>
			<stop  offset="0.7825" style="stop-color:#B8BABC"/>
			<stop  offset="1" style="stop-color:#BBBDBF"/>
		</linearGradient>
		<rect x="0" y="0" clip-path="url(#SVGID_2_)" fill="url(#SVGID_4_)" width="249.741" height="65.41"/>
	</g>
	<g>
		<defs>
			<path id="SVGID_149_" d="M13.726,5.106c-4.754,0-8.625,3.878-8.625,8.645v37.904c0,4.77,3.871,8.645,8.625,8.645h222.289
				c4.76,0,8.628-3.875,8.628-8.645V13.751c0-4.767-3.868-8.645-8.628-8.645H13.726z"/>
		</defs>
		<clipPath id="SVGID_6_">
			<use xlink:href="#SVGID_149_"  overflow="visible"/>
		</clipPath>
		
			<linearGradient id="SVGID_8_" gradientUnits="userSpaceOnUse" x1="-1284.4398" y1="407.6633" x2="-1283.129" y2="407.6633" gradientTransform="matrix(0 -42.1069 -42.0201 0 17254.9238 -54023.4805)">
			<stop  offset="0" style="stop-color:#FFFFFF"/>
			<stop  offset="0.2973" style="stop-color:#F8F8F8"/>
			<stop  offset="0.7441" style="stop-color:#E6E5E3"/>
			<stop  offset="1" style="stop-color:#D8D7D4"/>
		</linearGradient>
		<rect x="5.1" y="5.106" clip-path="url(#SVGID_6_)" fill="url(#SVGID_8_)" width="239.542" height="55.194"/>
	</g>
	<g opacity="0.5">
		<g>
			<defs>
				<rect id="SVGID_152_" x="4.589" y="4.592" width="240.569" height="56.22"/>
			</defs>
			<clipPath id="SVGID_9_">
				<use xlink:href="#SVGID_152_"  overflow="visible"/>
			</clipPath>
			<g clip-path="url(#SVGID_9_)">
				<defs>
					<path id="SVGID_154_" d="M13.727,4.592c-5.036,0-9.138,4.112-9.138,9.159v37.904c0,5.052,4.102,9.157,9.138,9.157h222.288
						c5.045,0,9.143-4.106,9.143-9.157V13.751c0-5.047-4.098-9.159-9.143-9.159H13.727z"/>
				</defs>
				<clipPath id="SVGID_10_">
					<use xlink:href="#SVGID_154_"  overflow="visible"/>
				</clipPath>
				
					<linearGradient id="SVGID_11_" gradientUnits="userSpaceOnUse" x1="-1284.3967" y1="408.092" x2="-1283.0859" y2="408.092" gradientTransform="matrix(0 -42.8888 -42.8003 0 17591.334 -55025.4219)">
					<stop  offset="0" style="stop-color:#59595C"/>
					<stop  offset="0.005" style="stop-color:#5C5C5F"/>
					<stop  offset="0.066" style="stop-color:#838385"/>
					<stop  offset="0.1322" style="stop-color:#A4A4A5"/>
					<stop  offset="0.2061" style="stop-color:#C0C0C1"/>
					<stop  offset="0.2882" style="stop-color:#D7D7D8"/>
					<stop  offset="0.3822" style="stop-color:#E9E9EA"/>
					<stop  offset="0.4954" style="stop-color:#F6F6F6"/>
					<stop  offset="0.6471" style="stop-color:#FDFDFD"/>
					<stop  offset="1" style="stop-color:#FFFFFF"/>
				</linearGradient>
				<rect x="4.589" y="4.592" clip-path="url(#SVGID_10_)" fill="url(#SVGID_11_)" width="240.569" height="56.221"/>
			</g>
		</g>
	</g>
	<g>
		<path fill="#231F20" d="M55.675,28.536c-0.067-0.562-0.27-2.853-2.623-2.853c-2.577,0-3.653,2.695-3.653,6.042
			c0,0.966,0,5.57,3.385,5.57c1.457,0,2.847-0.921,2.914-3.077h3.653c-0.067,0.965-0.157,2.47-1.457,3.818
			c-1.435,1.482-3.25,1.819-4.729,1.819c-5.581,0-7.397-4.133-7.397-8.153c0-5.144,2.869-8.558,7.42-8.558
			c3.541,0,6.029,2.156,6.029,5.391H55.675z"/>
		<path fill="#231F20" d="M61.416,23.235h3.317v16.239h-3.317V23.235z"/>
		<path fill="#231F20" d="M67.538,23.258h3.542v2.897h-3.542V23.258z M67.65,28.109h3.317v11.365H67.65V28.109z"/>
		<path fill="#231F20" d="M73.927,30.153c0-0.045,0-1.28-0.067-2.066h3.183l0.09,1.707c0.313-0.517,1.211-1.977,3.676-1.977
			c2.22,0,3.161,1.348,3.452,2.134c0.247,0.696,0.314,1.28,0.314,3.392v6.131H81.19v-7.052c0-0.472,0-0.876-0.18-1.235
			c-0.246-0.494-0.762-0.966-1.614-0.966c-0.717,0-1.367,0.337-1.726,0.876c-0.202,0.292-0.403,0.854-0.403,1.729v6.648h-3.34
			V30.153z"/>
		<path fill="#231F20" d="M87.469,23.258h3.542v2.897h-3.542V23.258z M87.581,28.109h3.317v11.365h-3.317V28.109z"/>
		<path fill="#231F20" d="M99.799,32.152c-0.044-0.404-0.179-2.089-1.457-2.089c-1.568,0-1.748,2.381-1.748,3.616
			c0,0.629,0.067,2.65,0.829,3.481c0.314,0.337,0.65,0.382,0.897,0.382c0.358,0,1.39-0.157,1.523-2.179h3.273
			c-0.045,0.876-0.157,2.246-1.457,3.347c-0.808,0.696-1.816,1.056-3.229,1.056c-1.502,0-2.824-0.337-3.855-1.505
			c-0.986-1.146-1.435-2.65-1.435-4.469c0-5.166,3.788-5.885,5.29-5.885c2.107,0,4.596,1.168,4.618,4.245H99.799z"/>
		<path fill="#231F20" d="M111.817,39.474c-0.112-0.696-0.112-1.213-0.112-1.55c-1.255,1.819-2.757,1.819-3.385,1.819
			c-1.637,0-2.376-0.472-2.824-0.898c-0.673-0.674-0.986-1.595-0.986-2.493s0.313-2.56,2.398-3.526
			c1.39-0.629,3.385-0.629,4.483-0.629c0-0.741-0.022-1.101-0.157-1.505c-0.291-0.831-1.166-0.943-1.479-0.943
			c-0.471,0-0.964,0.202-1.255,0.629c-0.247,0.382-0.247,0.741-0.247,1.011h-3.25c0.022-0.606,0.09-1.819,1.277-2.673
			c1.031-0.741,2.354-0.921,3.43-0.921c0.941,0,2.914,0.157,4.035,1.46c0.762,0.921,0.784,2.269,0.784,2.785l0.022,4.559
			c0,0.966,0.067,1.932,0.269,2.875H111.817z M107.737,35.97c0,0.764,0.516,1.617,1.614,1.617c0.605,0,1.099-0.292,1.412-0.651
			c0.583-0.719,0.628-1.595,0.628-2.807C109.261,33.949,107.737,34.622,107.737,35.97z"/>
		<path fill="#231F20" d="M117.491,23.235h3.317v16.239h-3.317V23.235z"/>
		<path fill="#231F20" d="M136.815,23.235l5.626,16.239h-3.497l-1.165-3.504h-6.411l-1.21,3.504h-3.317l5.851-16.239H136.815z
			 M136.905,33.343l-2.242-6.918l-2.398,6.918H136.905z"/>
		<path fill="#231F20" d="M146.816,34.286c0,0.763-0.045,3.077,2.937,3.077c1.883,0,3.07-0.898,3.07-2.269
			c0-1.437-1.008-1.684-3.07-2.178c-3.855-0.966-5.963-2.111-5.963-4.919c0-2.673,1.905-5.031,6.411-5.031
			c1.681,0,3.676,0.382,4.887,1.909c0.919,1.168,0.919,2.471,0.919,3.01h-3.34c-0.045-0.562-0.225-2.471-2.623-2.471
			c-1.613,0-2.667,0.876-2.667,2.201c0,1.505,1.188,1.774,3.519,2.358c2.803,0.674,5.56,1.438,5.56,4.604
			c0,2.92-2.421,5.278-6.904,5.278c-6.209,0-6.254-3.998-6.276-5.57H146.816z"/>
		<path fill="#231F20" d="M168.114,28.536c-0.067-0.562-0.27-2.853-2.623-2.853c-2.577,0-3.653,2.695-3.653,6.042
			c0,0.966,0,5.57,3.385,5.57c1.457,0,2.847-0.921,2.914-3.077h3.653c-0.067,0.965-0.157,2.47-1.457,3.818
			c-1.435,1.482-3.25,1.819-4.729,1.819c-5.581,0-7.397-4.133-7.397-8.153c0-5.144,2.869-8.558,7.42-8.558
			c3.541,0,6.029,2.156,6.029,5.391H168.114z"/>
		<path fill="#231F20" d="M176.456,23.303l4.236,12.735l4.259-12.735h3.43l-5.963,16.171h-3.788l-5.963-16.171H176.456z"/>
		<path fill="#231F20" d="M190.043,23.28l5.357,0.022c0.896,0,3.631,0.022,5.581,1.46c2.04,1.505,2.757,4.065,2.757,6.379
			c0,4.986-2.667,7.591-5.738,8.153c-0.604,0.112-1.277,0.18-2.914,0.18h-5.043V23.28z M193.563,36.801
			c0.381,0.022,0.964,0.045,1.367,0.045c1.479,0,2.757-0.112,3.766-1.123c1.367-1.37,1.457-3.795,1.457-4.582
			c0-2.291-0.785-4.402-2.959-5.009c-0.717-0.202-1.637-0.314-3.631-0.225V36.801z"/>
		<path fill="#231F20" d="M205.57,24.123v-1.481h2.42v-2.326h1.833v2.326h2.36v1.481h-2.36v6.89h-1.833v-6.89H205.57z"/>
	</g>
</g>
</svg>
