<?xml version="1.0" encoding="utf-8"?>
<!-- Generator: Adobe Illustrator 17.0.0, SVG Export Plug-In . SVG Version: 6.00 Build 0)  -->
<!DOCTYPE svg PUBLIC "-//W3C//DTD SVG 1.1//EN" "http://www.w3.org/Graphics/SVG/1.1/DTD/svg11.dtd">
<svg version="1.1" id="Layer_1" xmlns="http://www.w3.org/2000/svg" xmlns:xlink="http://www.w3.org/1999/xlink" x="0px" y="0px"
	 width="208.299px" height="113.844px" viewBox="0 0 208.299 113.844" enable-background="new 0 0 208.299 113.844"
	 xml:space="preserve">
<g>
	<line fill="none" stroke="#77787B" stroke-width="0.6309" x1="104.15" y1="93.75" x2="104.15" y2="112.476"/>
	<polygon fill="#77787B" points="100.691,105.367 104.149,107.38 107.607,105.367 104.149,113.844 	"/>
	<path fill="#808084" d="M208.299,80.264c0,7.168-4.623,12.974-10.329,12.974H10.328C4.627,93.238,0,87.432,0,80.264V13.451
		C0,6.293,4.627,0.479,10.328,0.479H197.97c5.706,0,10.329,5.814,10.329,12.972V80.264z"/>
	<g>
		<defs>
			<path id="SVGID_124_" d="M10.328,0C4.624,0,0.001,5.797,0.001,12.973v66.813c0,7.163,4.623,12.975,10.327,12.975h187.641
				c5.709,0,10.329-5.811,10.329-12.975V12.973c0-7.176-4.62-12.973-10.329-12.973H10.328z"/>
		</defs>
		<clipPath id="SVGID_2_">
			<use xlink:href="#SVGID_124_"  overflow="visible"/>
		</clipPath>
		
			<linearGradient id="SVGID_4_" gradientUnits="userSpaceOnUse" x1="-1648.396" y1="346.1603" x2="-1646.6691" y2="346.1603" gradientTransform="matrix(120.6145 0 0 -120.8637 198820.4531 41884.6016)">
			<stop  offset="0" style="stop-color:#00A69C"/>
			<stop  offset="0.2036" style="stop-color:#03A79D"/>
			<stop  offset="0.3808" style="stop-color:#0EAAA1"/>
			<stop  offset="0.5481" style="stop-color:#20B0A8"/>
			<stop  offset="0.7094" style="stop-color:#39B7B1"/>
			<stop  offset="0.8649" style="stop-color:#59C1BD"/>
			<stop  offset="0.9901" style="stop-color:#79CBC9"/>
			<stop  offset="1" style="stop-color:#79CBC9"/>
		</linearGradient>
		<rect x="0.001" y="0" clip-path="url(#SVGID_2_)" fill="url(#SVGID_4_)" width="208.298" height="92.761"/>
	</g>
	<g>
		<defs>
			<path id="SVGID_127_" d="M10.328,4.817c-3.582,0-6.495,3.659-6.495,8.157v66.813c0,4.5,2.913,8.151,6.495,8.151h187.641
				c3.582,0,6.49-3.651,6.49-8.151V12.973c0-4.497-2.908-8.157-6.49-8.157H10.328z"/>
		</defs>
		<clipPath id="SVGID_6_">
			<use xlink:href="#SVGID_127_"  overflow="visible"/>
		</clipPath>
		
			<linearGradient id="SVGID_8_" gradientUnits="userSpaceOnUse" x1="-1657.1206" y1="324.4137" x2="-1655.3937" y2="324.4137" gradientTransform="matrix(0 -48.1314 -48.0321 0 15686.417 -79671.5938)">
			<stop  offset="0" style="stop-color:#FFFFFF"/>
			<stop  offset="0.2973" style="stop-color:#F8F8F8"/>
			<stop  offset="0.7441" style="stop-color:#E6E5E3"/>
			<stop  offset="1" style="stop-color:#D8D7D4"/>
		</linearGradient>
		<rect x="3.833" y="4.817" clip-path="url(#SVGID_6_)" fill="url(#SVGID_8_)" width="200.626" height="83.121"/>
	</g>
	<g opacity="0.5">
		<g>
			<defs>
				<rect id="SVGID_130_" x="3.45" y="4.331" width="201.402" height="84.095"/>
			</defs>
			<clipPath id="SVGID_9_">
				<use xlink:href="#SVGID_130_"  overflow="visible"/>
			</clipPath>
			<g clip-path="url(#SVGID_9_)">
				<defs>
					<path id="SVGID_132_" d="M10.328,4.331c-3.794,0-6.879,3.877-6.879,8.642v66.813c0,4.76,3.084,8.642,6.879,8.642h187.643
						c3.796,0,6.88-3.882,6.88-8.642V12.973c0-4.765-3.084-8.642-6.88-8.642H10.328z"/>
				</defs>
				<clipPath id="SVGID_10_">
					<use xlink:href="#SVGID_132_"  overflow="visible"/>
				</clipPath>
				
					<linearGradient id="SVGID_11_" gradientUnits="userSpaceOnUse" x1="-1657.0098" y1="367.7121" x2="-1655.2828" y2="367.7121" gradientTransform="matrix(0 48.6949 48.5945 0 -17764.6348 80692.2578)">
					<stop  offset="0" style="stop-color:#80CECA"/>
					<stop  offset="0.147" style="stop-color:#86D0CC"/>
					<stop  offset="0.3382" style="stop-color:#96D6D3"/>
					<stop  offset="0.5537" style="stop-color:#B1E1DE"/>
					<stop  offset="0.7851" style="stop-color:#D6EFEE"/>
					<stop  offset="1" style="stop-color:#FFFFFF"/>
				</linearGradient>
				<rect x="3.449" y="4.331" clip-path="url(#SVGID_10_)" fill="url(#SVGID_11_)" width="201.402" height="84.097"/>
			</g>
		</g>
	</g>
	<g>
		<path fill="#231F20" d="M81.755,18.043h2.876v10.931h5.644v2.245h-8.52V18.043z"/>
		<path fill="#231F20" d="M91.808,18.061l4.351,0.019c0.728,0,2.949,0.019,4.532,1.187c1.657,1.223,2.239,3.303,2.239,5.183
			c0,4.052-2.166,6.168-4.66,6.625c-0.491,0.091-1.037,0.146-2.366,0.146h-4.096V18.061z M94.665,29.047
			c0.31,0.019,0.783,0.037,1.11,0.037c1.202,0,2.239-0.092,3.059-0.913c1.11-1.113,1.184-3.084,1.184-3.723
			c0-1.861-0.638-3.577-2.403-4.069c-0.582-0.165-1.329-0.256-2.949-0.183V29.047z"/>
		<path fill="#231F20" d="M105.028,18.043h2.876v10.931h5.644v2.245h-8.52V18.043z"/>
		<path fill="#231F20" d="M114.699,25.361h4.515v2.063h-4.515V25.361z"/>
		<path fill="#231F20" d="M128.626,22.331c-0.055-0.456-0.219-2.317-2.13-2.317c-2.094,0-2.967,2.189-2.967,4.909
			c0,0.784,0,4.525,2.748,4.525c1.184,0,2.313-0.748,2.367-2.5h2.967c-0.055,0.785-0.127,2.008-1.184,3.103
			c-1.165,1.204-2.64,1.479-3.841,1.479c-4.532,0-6.007-3.358-6.007-6.625c0-4.179,2.33-6.953,6.025-6.953
			c2.876,0,4.896,1.752,4.896,4.38H128.626z"/>
	</g>
	<g>
		<path fill="#231F20" d="M51.16,39.305c-0.601,1.824-1.602,4.781-1.602,8.048c0,2.445,0.509,4.271,1.583,8.012h-1.984
			c-1.037-2.537-1.838-5.184-1.838-7.921c0-2.811,0.837-5.529,1.856-8.139H51.16z"/>
		<path fill="#231F20" d="M53.146,53.375v-1.388h8.155v1.388H53.146z M61.301,45.801v1.479l-8.046,4.033v-1.588l6.681-3.175v-0.037
			l-6.698-3.157v-1.588L61.301,45.801z"/>
		<path fill="#231F20" d="M68.989,42.297c1.183-0.511,2.312-1.149,3.367-1.916h2.349v12.738h-2.749V43.21
			c-0.527,0.401-1.583,1.059-2.967,1.624V42.297z"/>
		<path fill="#231F20" d="M80.734,50.017c0.072,0.767,0.564,1.241,1.329,1.241c1.893,0,2.038-1.971,1.983-3.723
			c-0.91,0.821-1.729,0.876-2.293,0.876c-3.113,0-3.914-2.482-3.914-3.997c0-2.372,1.693-4.179,4.496-4.179
			c4.369,0,4.479,4.16,4.479,6.204c0,5.384-1.82,6.917-4.896,6.917c-0.71,0-3.933,0-3.933-3.34H80.734z M83.993,44.232
			c0-1.113-0.583-1.935-1.693-1.935c-1.293,0-1.766,1.04-1.766,2.008c0,0.438,0.127,2.008,1.711,2.008
			C83.591,46.313,83.993,45.126,83.993,44.232z"/>
		<path fill="#231F20" d="M92.624,40.199c1.784,0,2.84,0.968,3.313,1.68c0.655,0.967,1.146,2.208,1.146,4.599
			c0,2.956-0.674,6.844-4.496,6.844c-3.259,0-4.388-3.14-4.388-6.534C88.201,45.089,88.547,40.199,92.624,40.199z M94.026,43.794
			c-0.072-0.347-0.382-1.479-1.383-1.479c-0.783,0-1.129,0.712-1.257,1.095c-0.418,1.296-0.418,3.249-0.418,3.559
			c0,2.172,0.327,4.197,1.692,4.197c1.457,0,1.693-2.481,1.693-4.233C94.354,46.13,94.263,44.633,94.026,43.794z"/>
		<path fill="#231F20" d="M103.935,45.637c0-0.584-0.037-1.149-0.092-1.733h2.604l0.091,1.186c0.291-0.401,1.001-1.387,2.84-1.387
			c2.111,0,2.713,1.296,2.895,1.734c0.765-1.479,2.002-1.716,2.949-1.716c1.856,0,2.603,1.113,2.803,1.479
			c0.492,0.803,0.455,1.916,0.455,2.719v5.201h-2.712V47.7c0-0.985-0.146-2.081-1.547-2.081c-1.621,0-1.657,1.516-1.657,2.884v4.617
			h-2.712v-5.475c0-0.712-0.019-2.026-1.511-2.026c-1.693,0-1.693,1.46-1.693,2.081v5.42h-2.712V45.637z"/>
		<path fill="#231F20" d="M129.79,43.94c-0.073,0.73-0.128,1.351-0.128,2.281v6.808c0,3.394-2.821,3.723-4.587,3.723
			c-1.312,0-3.878-0.164-4.042-2.957h2.585c0.037,0.274,0.164,1.278,1.603,1.278c0.801,0,1.492-0.384,1.675-1.205
			c0.108-0.456,0.108-0.784,0.127-2.189c-0.855,1.131-1.82,1.259-2.476,1.259c-2.64,0-3.877-2.299-3.877-4.525
			c0-2.336,1.292-4.563,3.932-4.563c1.675,0,2.294,0.912,2.566,1.313l0.091-1.223H129.79z M125.166,51.094
			c1.893,0,1.893-2.227,1.893-2.628c0-1.041-0.2-2.811-1.838-2.811c-1.02,0-1.857,0.784-1.857,2.756
			C123.364,48.867,123.364,51.094,125.166,51.094z"/>
		<path fill="#231F20" d="M138.569,40.016l-4.896,13.104h-2.13l4.933-13.104H138.569z"/>
		<path fill="#231F20" d="M146.363,39.944h2.712v11.68c0,0.547,0.036,1.149,0.073,1.496h-2.73l-0.073-1.332
			c-0.182,0.328-0.364,0.675-0.929,1.04c-0.673,0.438-1.383,0.475-1.783,0.475c-2.458,0-3.914-1.697-3.914-4.581
			c0-3.048,1.656-4.945,4.06-4.945c1.656,0,2.348,0.931,2.585,1.259V39.944z M144.305,51.55c0.783,0,1.42-0.475,1.711-1.04
			c0.401-0.767,0.438-1.716,0.438-2.172c0-1.807-0.783-2.792-2.003-2.792c-1.802,0-2.002,2.172-2.002,3.103
			C142.449,50.181,142.958,51.55,144.305,51.55z"/>
		<path fill="#231F20" d="M151.482,39.944h2.876v10.931h5.644v2.245h-8.52V39.944z"/>
		<path fill="#231F20" d="M161.443,55.365c0.602-1.825,1.603-4.782,1.603-8.049c0-2.463-0.51-4.27-1.584-8.011h1.984
			c1.037,2.518,1.839,5.183,1.839,7.901c0,2.811-0.838,5.53-1.857,8.158H161.443z"/>
	</g>
	<g>
		<path fill="#231F20" d="M50.669,61.202c-0.601,1.824-1.602,4.781-1.602,8.048c0,2.445,0.509,4.271,1.583,8.012h-1.984
			c-1.037-2.537-1.838-5.184-1.838-7.921c0-2.811,0.837-5.529,1.856-8.139H50.669z"/>
		<path fill="#231F20" d="M52.656,75.273v-1.388h8.155v1.388H52.656z M60.811,67.699v1.479l-8.046,4.033v-1.588l6.681-3.176V68.41
			l-6.698-3.157v-1.588L60.811,67.699z"/>
		<path fill="#231F20" d="M67.06,72.243V69.78l5.098-7.501h2.712l-0.019,7.865h1.729v2.1h-1.729v2.773h-2.693v-2.773H67.06z
			 M69.099,70.199h3.204v-3.357c0-0.164,0.018-1.077,0.036-1.405L69.099,70.199z"/>
		<path fill="#231F20" d="M78.241,72.59h2.313v2.427h-2.313V72.59z"/>
		<path fill="#231F20" d="M85.306,71.914c0.072,0.767,0.564,1.241,1.329,1.241c1.893,0,2.038-1.971,1.983-3.723
			c-0.91,0.821-1.729,0.876-2.293,0.876c-3.113,0-3.914-2.482-3.914-3.997c0-2.372,1.693-4.179,4.496-4.179
			c4.369,0,4.479,4.16,4.479,6.204c0,5.384-1.82,6.917-4.896,6.917c-0.71,0-3.933,0-3.933-3.34H85.306z M88.565,66.129
			c0-1.113-0.583-1.935-1.693-1.935c-1.293,0-1.766,1.041-1.766,2.008c0,0.438,0.127,2.008,1.711,2.008
			C88.163,68.21,88.565,67.024,88.565,66.129z"/>
		<path fill="#231F20" d="M98.382,67.534c0-0.584-0.037-1.149-0.092-1.733h2.604l0.091,1.187c0.291-0.402,1.001-1.388,2.84-1.388
			c2.111,0,2.713,1.296,2.895,1.734c0.765-1.479,2.002-1.716,2.949-1.716c1.856,0,2.603,1.113,2.803,1.479
			c0.492,0.803,0.455,1.916,0.455,2.719v5.201h-2.712v-5.42c0-0.985-0.146-2.081-1.547-2.081c-1.621,0-1.657,1.515-1.657,2.884
			v4.617h-2.712v-5.475c0-0.712-0.019-2.026-1.511-2.026c-1.693,0-1.693,1.46-1.693,2.081v5.42h-2.712V67.534z"/>
		<path fill="#231F20" d="M115.573,67.534c0-0.584-0.037-1.149-0.092-1.733h2.604l0.091,1.187c0.291-0.402,1.001-1.388,2.84-1.388
			c2.111,0,2.713,1.296,2.895,1.734c0.765-1.479,2.002-1.716,2.949-1.716c1.856,0,2.603,1.113,2.803,1.479
			c0.492,0.803,0.455,1.916,0.455,2.719v5.201h-2.712v-5.42c0-0.985-0.146-2.081-1.547-2.081c-1.62,0-1.657,1.515-1.657,2.884v4.617
			h-2.712v-5.475c0-0.712-0.019-2.026-1.511-2.026c-1.693,0-1.693,1.46-1.693,2.081v5.42h-2.712V67.534z"/>
		<path fill="#231F20" d="M137.041,65.582c3.331,0,4.77,2.263,4.77,4.836c0,2.591-1.493,4.927-4.824,4.927
			c-2.621,0-4.696-1.624-4.696-4.854C132.29,68.265,133.419,65.582,137.041,65.582z M137.077,73.466
			c1.184,0,1.984-0.712,1.984-3.157c0-1.223-0.236-2.92-2.021-2.92c-1.966,0-1.984,2.281-1.984,3.12
			C135.057,72.572,135.749,73.466,137.077,73.466z"/>
		<path fill="#231F20" d="M143.835,61.823h2.693v13.194h-2.693V61.823z"/>
		<path fill="#231F20" d="M155.269,61.913l-4.896,13.104h-2.13l4.933-13.104H155.269z"/>
		<path fill="#231F20" d="M156.983,61.823h2.693v13.194h-2.693V61.823z"/>
		<path fill="#231F20" d="M161.954,77.262c0.602-1.825,1.603-4.782,1.603-8.049c0-2.463-0.51-4.271-1.584-8.011h1.984
			c1.037,2.518,1.839,5.183,1.839,7.901c0,2.811-0.838,5.53-1.857,8.158H161.954z"/>
	</g>
</g>
</svg>
