<?xml version="1.0" encoding="utf-8"?>
<!-- Generator: Adobe Illustrator 17.0.0, SVG Export Plug-In . SVG Version: 6.00 Build 0)  -->
<!DOCTYPE svg PUBLIC "-//W3C//DTD SVG 1.1//EN" "http://www.w3.org/Graphics/SVG/1.1/DTD/svg11.dtd">
<svg version="1.1" id="Layer_1" xmlns="http://www.w3.org/2000/svg" xmlns:xlink="http://www.w3.org/1999/xlink" x="0px" y="0px"
	 width="220.9px" height="59.048px" viewBox="0 0 220.9 59.048" enable-background="new 0 0 220.9 59.048" xml:space="preserve">
<g>
	<path fill="#808084" d="M220.899,47.133c0,6.587-4.913,11.915-10.953,11.915H10.953C4.902,59.048,0,53.72,0,47.133V12.355
		C0,5.78,4.902,0.442,10.953,0.442h198.992c6.04,0,10.953,5.338,10.953,11.913V47.133z"/>
	<g>
		<defs>
			<path id="SVGID_248_" d="M10.955,0C4.904,0,0,5.328,0,11.919v34.774c0,6.583,4.904,11.921,10.955,11.921h198.99
				c6.04,0,10.955-5.338,10.955-11.921V11.919C220.9,5.328,215.986,0,209.945,0H10.955z"/>
		</defs>
		<clipPath id="SVGID_2_">
			<use xlink:href="#SVGID_248_"  overflow="visible"/>
		</clipPath>
		
			<linearGradient id="SVGID_4_" gradientUnits="userSpaceOnUse" x1="-1129.4063" y1="115.019" x2="-1127.2786" y2="115.019" gradientTransform="matrix(103.8242 0 0 -103.8242 117259.6875 11971.0625)">
			<stop  offset="0" style="stop-color:#00A69C"/>
			<stop  offset="0.2036" style="stop-color:#03A79D"/>
			<stop  offset="0.3808" style="stop-color:#0EAAA1"/>
			<stop  offset="0.5481" style="stop-color:#20B0A8"/>
			<stop  offset="0.7094" style="stop-color:#39B7B1"/>
			<stop  offset="0.8649" style="stop-color:#59C1BD"/>
			<stop  offset="0.9901" style="stop-color:#79CBC9"/>
			<stop  offset="1" style="stop-color:#79CBC9"/>
		</linearGradient>
		<rect x="0" y="0" clip-path="url(#SVGID_2_)" fill="url(#SVGID_4_)" width="220.9" height="58.614"/>
	</g>
	<g>
		<defs>
			<path id="SVGID_251_" d="M10.955,4.421c-3.8,0-6.887,3.364-6.887,7.498v34.774c0,4.134,3.087,7.491,6.887,7.491h198.99
				c3.794,0,6.885-3.357,6.885-7.491V11.919c0-4.134-3.091-7.498-6.885-7.498H10.955z"/>
		</defs>
		<clipPath id="SVGID_6_">
			<use xlink:href="#SVGID_251_"  overflow="visible"/>
		</clipPath>
		
			<linearGradient id="SVGID_8_" gradientUnits="userSpaceOnUse" x1="-1140.2742" y1="95.2709" x2="-1138.1466" y2="95.2709" gradientTransform="matrix(0 -23.3887 -23.3887 0 2338.7126 -26615.3477)">
			<stop  offset="0" style="stop-color:#FFFFFF"/>
			<stop  offset="0.2973" style="stop-color:#F8F8F8"/>
			<stop  offset="0.7441" style="stop-color:#E6E5E3"/>
			<stop  offset="1" style="stop-color:#D8D7D4"/>
		</linearGradient>
		<rect x="4.068" y="4.421" clip-path="url(#SVGID_6_)" fill="url(#SVGID_8_)" width="212.762" height="49.763"/>
	</g>
	<g opacity="0.5">
		<g>
			<defs>
				<rect id="SVGID_254_" x="3.666" y="3.983" width="213.575" height="50.646"/>
			</defs>
			<clipPath id="SVGID_9_">
				<use xlink:href="#SVGID_254_"  overflow="visible"/>
			</clipPath>
			<g clip-path="url(#SVGID_9_)">
				<defs>
					<path id="SVGID_256_" d="M10.953,54.629c-4.017,0-7.287-3.562-7.287-7.936V11.919c0-4.376,3.27-7.936,7.287-7.936h198.992
						c4.017,0,7.296,3.559,7.296,7.936v34.774c0,4.374-3.279,7.936-7.296,7.936H10.953z"/>
				</defs>
				<clipPath id="SVGID_10_">
					<use xlink:href="#SVGID_256_"  overflow="visible"/>
				</clipPath>
				
					<linearGradient id="SVGID_11_" gradientUnits="userSpaceOnUse" x1="-1128.1726" y1="137.1294" x2="-1126.045" y2="137.1294" gradientTransform="matrix(0 23.8047 23.8047 0 -3153.8701 26859.793)">
					<stop  offset="0" style="stop-color:#80CECA"/>
					<stop  offset="0.147" style="stop-color:#86D0CC"/>
					<stop  offset="0.3382" style="stop-color:#96D6D3"/>
					<stop  offset="0.5537" style="stop-color:#B1E1DE"/>
					<stop  offset="0.7851" style="stop-color:#D6EFEE"/>
					<stop  offset="1" style="stop-color:#FFFFFF"/>
				</linearGradient>
				<rect x="3.666" y="3.983" clip-path="url(#SVGID_10_)" fill="url(#SVGID_11_)" width="213.575" height="50.646"/>
			</g>
		</g>
	</g>
	<g>
		<path fill="#231F20" d="M38.202,9.942h2.308v4.304h4.066V9.942h2.338v10.768h-2.309v-4.721H40.51v4.721h-2.308V9.942z"/>
		<path fill="#231F20" d="M48.85,9.956h2.353v1.922H48.85V9.956z M48.925,13.173h2.204v7.536h-2.204V13.173z"/>
		<path fill="#231F20" d="M60.199,13.218c-0.06,0.596-0.104,1.103-0.104,1.861v5.556c0,2.77-2.308,3.038-3.753,3.038
			c-1.072,0-3.172-0.135-3.306-2.413h2.114c0.03,0.224,0.135,1.043,1.311,1.043c0.655,0,1.222-0.313,1.37-0.983
			c0.09-0.372,0.09-0.641,0.104-1.787c-0.7,0.924-1.489,1.027-2.025,1.027c-2.159,0-3.172-1.876-3.172-3.693
			c0-1.906,1.057-3.723,3.217-3.723c1.37,0,1.876,0.744,2.1,1.072l0.074-0.998H60.199z M56.416,19.056
			c1.549,0,1.549-1.816,1.549-2.145c0-0.849-0.163-2.293-1.504-2.293c-0.834,0-1.519,0.641-1.519,2.248
			C54.942,17.24,54.942,19.056,56.416,19.056z"/>
		<path fill="#231F20" d="M62.225,9.956h2.189v4.26c0.253-0.357,0.805-1.132,2.174-1.132c1.117,0,1.832,0.551,2.189,1.013
			c0.269,0.372,0.492,1.058,0.492,2.04v4.572H67.08v-4.497c0-0.433,0-1.639-1.236-1.639c-0.625,0-1.415,0.357-1.415,1.534
			l0.015,4.602h-2.219V9.956z"/>
		<path fill="#231F20" d="M75.331,9.912h2.309v10.797h-2.309V9.912z"/>
		<path fill="#231F20" d="M79.575,14.529c0-0.029,0-0.849-0.045-1.37h2.114l0.061,1.132c0.208-0.342,0.804-1.311,2.441-1.311
			c1.475,0,2.101,0.894,2.294,1.415c0.164,0.462,0.208,0.849,0.208,2.249v4.065H84.4v-4.677c0-0.312,0-0.58-0.119-0.818
			c-0.164-0.328-0.507-0.641-1.072-0.641c-0.477,0-0.908,0.224-1.146,0.581c-0.135,0.193-0.269,0.565-0.269,1.146v4.408h-2.219
			V14.529z"/>
		<path fill="#231F20" d="M93.068,20.605c-0.715,0.193-1.355,0.238-1.713,0.238c-2.219,0-2.219-1.399-2.219-2.025v-4.125h-1.445
			v-1.459h1.445v-1.475l2.188-0.805v2.279h1.787v1.459h-1.787v3.396c0.015,0.685,0.015,1.117,0.998,1.117
			c0.327,0,0.477-0.015,0.745-0.045V20.605z"/>
		<path fill="#231F20" d="M96.211,17.507c0,0.492,0,2.011,1.534,2.011c0.551,0,1.102-0.208,1.311-1.042h2.011
			c-0.03,0.357-0.104,0.997-0.715,1.638c-0.552,0.581-1.534,0.879-2.637,0.879c-0.641,0-1.861-0.119-2.65-0.938
			c-0.686-0.715-0.969-1.728-0.969-2.934c0-1.222,0.299-2.681,1.564-3.56c0.58-0.388,1.295-0.626,2.114-0.626
			c1.072,0,2.354,0.418,3.038,1.817c0.507,1.027,0.477,2.13,0.447,2.755H96.211z M99.011,16.122c0-0.343-0.03-1.683-1.311-1.683
			c-0.968,0-1.37,0.804-1.415,1.683H99.011z"/>
		<path fill="#231F20" d="M102.749,14.529c0-0.029,0-0.849-0.045-1.37h2.114l0.061,1.132c0.208-0.342,0.804-1.311,2.441-1.311
			c1.475,0,2.101,0.894,2.294,1.415c0.164,0.462,0.208,0.849,0.208,2.249v4.065h-2.248v-4.677c0-0.312,0-0.58-0.119-0.818
			c-0.164-0.328-0.507-0.641-1.072-0.641c-0.477,0-0.908,0.224-1.146,0.581c-0.135,0.193-0.269,0.565-0.269,1.146v4.408h-2.219
			V14.529z"/>
		<path fill="#231F20" d="M113.352,18.534c0.03,0.477,0.327,1.028,1.251,1.028c0.789,0,1.162-0.447,1.162-0.894
			c0-0.343-0.18-0.611-1.043-0.85l-1.37-0.372c-0.61-0.179-1.906-0.551-1.906-2.085c0-1.459,1.341-2.353,3.291-2.353
			c1.549,0,2.8,0.715,2.859,2.219h-2.011c-0.059-0.834-0.729-0.894-1.072-0.894c-0.596,0-1.042,0.283-1.042,0.744
			c0,0.507,0.372,0.611,1.027,0.79l1.355,0.372c1.37,0.372,2.011,1.072,2.011,2.1c0,1.296-1.117,2.592-3.455,2.592
			c-0.969,0-1.892-0.209-2.576-0.924c-0.492-0.521-0.537-1.117-0.552-1.475H113.352z"/>
		<path fill="#231F20" d="M119.191,9.956h2.354v1.922h-2.354V9.956z M119.266,13.173h2.204v7.536h-2.204V13.173z"/>
		<path fill="#231F20" d="M127.83,20.605c-0.715,0.193-1.355,0.238-1.713,0.238c-2.219,0-2.219-1.399-2.219-2.025v-4.125h-1.445
			v-1.459h1.445v-1.475l2.188-0.805v2.279h1.787v1.459h-1.787v3.396c0.015,0.685,0.015,1.117,0.998,1.117
			c0.327,0,0.477-0.015,0.745-0.045V20.605z"/>
		<path fill="#231F20" d="M130.822,13.189l1.653,5.212l1.683-5.212h2.189l-2.844,7.387l-0.909,2.993h-2.219l0.953-2.829l-2.89-7.551
			H130.822z"/>
		<path fill="#231F20" d="M143.526,17.269c0,0.507-0.029,2.041,1.951,2.041c1.251,0,2.04-0.596,2.04-1.505
			c0-0.953-0.67-1.116-2.04-1.444c-2.562-0.641-3.962-1.4-3.962-3.262c0-1.771,1.267-3.336,4.26-3.336
			c1.117,0,2.442,0.254,3.246,1.266c0.611,0.775,0.611,1.639,0.611,1.996h-2.219c-0.03-0.372-0.149-1.639-1.743-1.639
			c-1.072,0-1.772,0.581-1.772,1.46c0,0.998,0.79,1.177,2.339,1.563c1.861,0.447,3.693,0.953,3.693,3.053
			c0,1.937-1.608,3.5-4.587,3.5c-4.125,0-4.155-2.65-4.17-3.693H143.526z"/>
		<path fill="#231F20" d="M155.976,20.605c-0.715,0.193-1.354,0.238-1.712,0.238c-2.22,0-2.22-1.399-2.22-2.025v-4.125H150.6v-1.459
			h1.444v-1.475l2.189-0.805v2.279h1.787v1.459h-1.787v3.396c0.016,0.685,0.016,1.117,0.998,1.117c0.328,0,0.477-0.015,0.744-0.045
			V20.605z"/>
		<path fill="#231F20" d="M161.86,20.709c-0.074-0.462-0.074-0.804-0.074-1.027c-0.834,1.206-1.832,1.206-2.249,1.206
			c-1.087,0-1.578-0.313-1.877-0.596c-0.446-0.447-0.654-1.058-0.654-1.653s0.208-1.697,1.593-2.338
			c0.924-0.417,2.249-0.417,2.979-0.417c0-0.491-0.015-0.729-0.104-0.998c-0.193-0.551-0.773-0.625-0.982-0.625
			c-0.313,0-0.641,0.134-0.834,0.417c-0.164,0.253-0.164,0.491-0.164,0.67h-2.159c0.015-0.402,0.06-1.206,0.849-1.772
			c0.686-0.491,1.564-0.61,2.279-0.61c0.625,0,1.936,0.104,2.68,0.968c0.507,0.611,0.521,1.504,0.521,1.847l0.016,3.023
			c0,0.641,0.044,1.28,0.178,1.906H161.86z M159.15,18.386c0,0.506,0.342,1.072,1.072,1.072c0.401,0,0.729-0.193,0.938-0.432
			c0.388-0.477,0.417-1.058,0.417-1.861C160.162,17.046,159.15,17.492,159.15,18.386z"/>
		<path fill="#231F20" d="M170.051,20.605c-0.715,0.193-1.354,0.238-1.712,0.238c-2.22,0-2.22-1.399-2.22-2.025v-4.125h-1.444
			v-1.459h1.444v-1.475l2.189-0.805v2.279h1.787v1.459h-1.787v3.396c0.016,0.685,0.016,1.117,0.998,1.117
			c0.328,0,0.477-0.015,0.744-0.045V20.605z"/>
		<path fill="#231F20" d="M171.348,9.956h2.354v1.922h-2.354V9.956z M171.422,13.173h2.204v7.536h-2.204V13.173z"/>
		<path fill="#231F20" d="M175.592,14.529c0-0.029,0-0.849-0.045-1.37h2.115l0.059,1.132c0.209-0.342,0.805-1.311,2.443-1.311
			c1.474,0,2.1,0.894,2.293,1.415c0.164,0.462,0.209,0.849,0.209,2.249v4.065h-2.249v-4.677c0-0.312,0-0.58-0.119-0.818
			c-0.164-0.328-0.507-0.641-1.072-0.641c-0.477,0-0.909,0.224-1.147,0.581c-0.134,0.193-0.268,0.565-0.268,1.146v4.408h-2.219
			V14.529z"/>
	</g>
	<g>
		<path fill="#5E5F5E" d="M21.7,25.362c-0.421,1.277-1.124,3.346-1.124,5.632c0,1.712,0.358,2.989,1.111,5.607h-1.392
			c-0.729-1.775-1.29-3.628-1.29-5.543c0-1.967,0.587-3.87,1.303-5.696H21.7z"/>
		<path fill="#5E5F5E" d="M22.975,25.796h3.23l1.954,6.718l2.107-6.718h3.143v9.233h-1.968v-7.918l-2.516,7.918h-1.635l-2.465-7.918
			v7.918h-1.852V25.796z"/>
		<path fill="#5E5F5E" d="M37.875,28.427c2.337,0,3.346,1.583,3.346,3.384c0,1.813-1.047,3.448-3.385,3.448
			c-1.839,0-3.295-1.137-3.295-3.396C34.541,30.304,35.333,28.427,37.875,28.427z M37.9,33.944c0.83,0,1.392-0.498,1.392-2.209
			c0-0.855-0.166-2.044-1.417-2.044c-1.38,0-1.393,1.597-1.393,2.185C36.482,33.319,36.968,33.944,37.9,33.944z"/>
		<path fill="#5E5F5E" d="M46.644,25.809h1.903v8.174c0,0.383,0.025,0.805,0.051,1.047h-1.916l-0.051-0.933
			c-0.128,0.23-0.255,0.473-0.651,0.729c-0.473,0.307-0.971,0.332-1.252,0.332c-1.724,0-2.745-1.188-2.745-3.206
			c0-2.133,1.162-3.461,2.848-3.461c1.162,0,1.647,0.651,1.813,0.881V25.809z M45.201,33.931c0.55,0,0.996-0.332,1.201-0.728
			c0.28-0.536,0.307-1.201,0.307-1.52c0-1.265-0.55-1.954-1.405-1.954c-1.265,0-1.405,1.52-1.405,2.171
			C43.898,32.973,44.257,33.931,45.201,33.931z"/>
		<path fill="#5E5F5E" d="M51.443,32.284c0,0.422,0,1.725,1.315,1.725c0.473,0,0.945-0.179,1.124-0.895h1.725
			c-0.025,0.307-0.09,0.856-0.613,1.405c-0.473,0.498-1.315,0.753-2.261,0.753c-0.549,0-1.596-0.102-2.273-0.804
			c-0.587-0.613-0.83-1.482-0.83-2.517c0-1.047,0.256-2.299,1.341-3.052c0.499-0.333,1.111-0.537,1.814-0.537
			c0.919,0,2.018,0.357,2.605,1.559c0.434,0.881,0.408,1.826,0.383,2.362H51.443z M53.845,31.096c0-0.294-0.025-1.443-1.124-1.443
			c-0.83,0-1.175,0.689-1.213,1.443H53.845z"/>
		<path fill="#5E5F5E" d="M56.767,30.163c0-0.307-0.051-1.238-0.089-1.609h1.774l0.039,1.239c0.242-0.549,0.664-1.328,2.196-1.252
			v1.699c-1.916-0.179-2.03,0.805-2.03,1.609v3.18h-1.891V30.163z"/>
		<path fill="#5E5F5E" d="M65.104,35.03c-0.064-0.396-0.064-0.689-0.064-0.881c-0.715,1.034-1.57,1.034-1.928,1.034
			c-0.933,0-1.354-0.269-1.609-0.511c-0.384-0.384-0.563-0.907-0.563-1.418s0.179-1.456,1.367-2.005
			c0.791-0.357,1.928-0.357,2.554-0.357c0-0.422-0.013-0.626-0.089-0.856c-0.166-0.472-0.664-0.536-0.843-0.536
			c-0.269,0-0.55,0.115-0.716,0.357c-0.141,0.218-0.141,0.422-0.141,0.575h-1.852c0.013-0.345,0.051-1.034,0.728-1.52
			c0.588-0.422,1.342-0.524,1.954-0.524c0.537,0,1.661,0.09,2.299,0.83c0.435,0.524,0.447,1.29,0.447,1.584l0.013,2.593
			c0,0.549,0.039,1.099,0.153,1.635H65.104z M62.78,33.037c0,0.434,0.293,0.919,0.919,0.919c0.345,0,0.626-0.166,0.805-0.37
			c0.332-0.408,0.357-0.906,0.357-1.597C63.648,31.888,62.78,32.271,62.78,33.037z"/>
		<path fill="#5E5F5E" d="M71.869,34.94c-0.612,0.166-1.162,0.205-1.469,0.205c-1.902,0-1.902-1.201-1.902-1.737v-3.538h-1.239
			v-1.251h1.239v-1.265l1.877-0.689v1.954h1.533v1.251h-1.533v2.912c0.013,0.588,0.013,0.958,0.855,0.958
			c0.281,0,0.409-0.013,0.639-0.038V34.94z"/>
		<path fill="#5E5F5E" d="M74.064,32.284c0,0.422,0,1.725,1.315,1.725c0.473,0,0.945-0.179,1.124-0.895h1.725
			c-0.025,0.307-0.09,0.856-0.613,1.405c-0.473,0.498-1.315,0.753-2.261,0.753c-0.549,0-1.596-0.102-2.273-0.804
			c-0.587-0.613-0.83-1.482-0.83-2.517c0-1.047,0.256-2.299,1.341-3.052c0.499-0.333,1.111-0.537,1.814-0.537
			c0.919,0,2.018,0.357,2.605,1.559c0.434,0.881,0.408,1.826,0.383,2.362H74.064z M76.466,31.096c0-0.294-0.025-1.443-1.124-1.443
			c-0.83,0-1.175,0.689-1.213,1.443H76.466z"/>
		<path fill="#5E5F5E" d="M79.118,30.93h3.168v1.443h-3.168V30.93z"/>
		<path fill="#5E5F5E" d="M83.319,25.809h2.018v1.647h-2.018V25.809z M83.383,28.567h1.891v6.463h-1.891V28.567z"/>
		<path fill="#5E5F5E" d="M86.701,29.73c0-0.026,0-0.729-0.038-1.176h1.813l0.051,0.971c0.179-0.293,0.69-1.124,2.095-1.124
			c1.265,0,1.801,0.767,1.967,1.214c0.141,0.396,0.179,0.728,0.179,1.929v3.486H90.84v-4.011c0-0.268,0-0.498-0.103-0.702
			c-0.141-0.281-0.435-0.549-0.92-0.549c-0.408,0-0.778,0.191-0.983,0.498c-0.114,0.166-0.229,0.485-0.229,0.983v3.78h-1.903V29.73z
			"/>
		<path fill="#5E5F5E" d="M98.014,34.94c-0.612,0.166-1.162,0.205-1.469,0.205c-1.902,0-1.902-1.201-1.902-1.737v-3.538h-1.239
			v-1.251h1.239v-1.265l1.877-0.689v1.954h1.533v1.251h-1.533v2.912c0.013,0.588,0.013,0.958,0.855,0.958
			c0.281,0,0.409-0.013,0.639-0.038V34.94z"/>
		<path fill="#5E5F5E" d="M100.195,32.284c0,0.422,0,1.725,1.315,1.725c0.473,0,0.945-0.179,1.124-0.895h1.725
			c-0.025,0.307-0.09,0.856-0.613,1.405c-0.473,0.498-1.315,0.753-2.261,0.753c-0.549,0-1.596-0.102-2.273-0.804
			c-0.587-0.613-0.83-1.482-0.83-2.517c0-1.047,0.256-2.299,1.341-3.052c0.499-0.333,1.111-0.537,1.814-0.537
			c0.919,0,2.018,0.357,2.605,1.559c0.434,0.881,0.408,1.826,0.383,2.362H100.195z M102.597,31.096c0-0.294-0.025-1.443-1.124-1.443
			c-0.83,0-1.175,0.689-1.213,1.443H102.597z"/>
		<path fill="#5E5F5E" d="M105.543,29.73c0-0.026,0-0.729-0.038-1.176h1.813l0.051,0.971c0.179-0.293,0.69-1.124,2.095-1.124
			c1.265,0,1.801,0.767,1.967,1.214c0.141,0.396,0.179,0.728,0.179,1.929v3.486h-1.928v-4.011c0-0.268,0-0.498-0.103-0.702
			c-0.141-0.281-0.435-0.549-0.92-0.549c-0.408,0-0.778,0.191-0.983,0.498c-0.114,0.166-0.229,0.485-0.229,0.983v3.78h-1.903V29.73z
			"/>
		<path fill="#5E5F5E" d="M114.378,33.165c0.025,0.408,0.281,0.881,1.073,0.881c0.677,0,0.996-0.383,0.996-0.767
			c0-0.294-0.153-0.523-0.895-0.728l-1.175-0.319c-0.523-0.153-1.635-0.473-1.635-1.788c0-1.252,1.149-2.018,2.822-2.018
			c1.329,0,2.401,0.612,2.452,1.902h-1.724c-0.051-0.715-0.626-0.766-0.92-0.766c-0.511,0-0.894,0.242-0.894,0.638
			c0,0.435,0.319,0.524,0.881,0.678l1.162,0.319c1.175,0.319,1.725,0.919,1.725,1.801c0,1.11-0.958,2.222-2.963,2.222
			c-0.83,0-1.622-0.179-2.21-0.792c-0.421-0.446-0.46-0.958-0.473-1.264H114.378z"/>
		<path fill="#5E5F5E" d="M119.127,25.809h2.018v1.647h-2.018V25.809z M119.19,28.567h1.891v6.463h-1.891V28.567z"/>
		<path fill="#5E5F5E" d="M126.276,34.94c-0.612,0.166-1.162,0.205-1.469,0.205c-1.902,0-1.902-1.201-1.902-1.737v-3.538h-1.239
			v-1.251h1.239v-1.265l1.877-0.689v1.954h1.533v1.251h-1.533v2.912c0.013,0.588,0.013,0.958,0.855,0.958
			c0.281,0,0.409-0.013,0.639-0.038V34.94z"/>
		<path fill="#5E5F5E" d="M128.587,28.58l1.417,4.47l1.443-4.47h1.878l-2.439,6.334l-0.779,2.567h-1.903l0.817-2.427l-2.478-6.475
			H128.587z"/>
		<path fill="#5E5F5E" d="M138.645,33.165c0.025,0.408,0.281,0.881,1.073,0.881c0.677,0,0.996-0.383,0.996-0.767
			c0-0.294-0.153-0.523-0.895-0.728l-1.175-0.319c-0.523-0.153-1.635-0.473-1.635-1.788c0-1.252,1.149-2.018,2.822-2.018
			c1.329,0,2.401,0.612,2.452,1.902h-1.724c-0.051-0.715-0.626-0.766-0.92-0.766c-0.511,0-0.894,0.242-0.894,0.638
			c0,0.435,0.319,0.524,0.881,0.678l1.162,0.319c1.175,0.319,1.725,0.919,1.725,1.801c0,1.11-0.958,2.222-2.963,2.222
			c-0.83,0-1.622-0.179-2.21-0.792c-0.421-0.446-0.46-0.958-0.473-1.264H138.645z"/>
		<path fill="#5E5F5E" d="M147.251,34.94c-0.612,0.166-1.162,0.205-1.469,0.205c-1.902,0-1.902-1.201-1.902-1.737v-3.538h-1.239
			v-1.251h1.239v-1.265l1.877-0.689v1.954h1.533v1.251h-1.533v2.912c0.013,0.588,0.013,0.958,0.855,0.958
			c0.281,0,0.409-0.013,0.639-0.038V34.94z"/>
		<path fill="#5E5F5E" d="M152.038,35.03c-0.064-0.396-0.064-0.689-0.064-0.881c-0.715,1.034-1.57,1.034-1.928,1.034
			c-0.933,0-1.354-0.269-1.609-0.511c-0.384-0.384-0.563-0.907-0.563-1.418s0.179-1.456,1.367-2.005
			c0.791-0.357,1.928-0.357,2.554-0.357c0-0.422-0.013-0.626-0.089-0.856c-0.166-0.472-0.664-0.536-0.843-0.536
			c-0.269,0-0.55,0.115-0.716,0.357c-0.141,0.218-0.141,0.422-0.141,0.575h-1.852c0.013-0.345,0.051-1.034,0.728-1.52
			c0.588-0.422,1.342-0.524,1.954-0.524c0.537,0,1.661,0.09,2.299,0.83c0.435,0.524,0.447,1.29,0.447,1.584l0.013,2.593
			c0,0.549,0.039,1.099,0.153,1.635H152.038z M149.714,33.037c0,0.434,0.293,0.919,0.919,0.919c0.345,0,0.626-0.166,0.805-0.37
			c0.332-0.408,0.357-0.906,0.357-1.597C150.582,31.888,149.714,32.271,149.714,33.037z"/>
		<path fill="#5E5F5E" d="M158.804,34.94c-0.612,0.166-1.162,0.205-1.469,0.205c-1.902,0-1.902-1.201-1.902-1.737v-3.538h-1.239
			v-1.251h1.239v-1.265l1.877-0.689v1.954h1.533v1.251h-1.533v2.912c0.013,0.588,0.013,0.958,0.855,0.958
			c0.281,0,0.409-0.013,0.639-0.038V34.94z"/>
		<path fill="#5E5F5E" d="M159.657,25.809h2.018v1.647h-2.018V25.809z M159.721,28.567h1.891v6.463h-1.891V28.567z"/>
		<path fill="#5E5F5E" d="M163.04,29.73c0-0.026,0-0.729-0.038-1.176h1.813l0.051,0.971c0.18-0.293,0.69-1.124,2.095-1.124
			c1.265,0,1.801,0.767,1.967,1.214c0.141,0.396,0.179,0.728,0.179,1.929v3.486h-1.928v-4.011c0-0.268,0-0.498-0.103-0.702
			c-0.141-0.281-0.435-0.549-0.92-0.549c-0.408,0-0.778,0.191-0.983,0.498c-0.114,0.166-0.229,0.485-0.229,0.983v3.78h-1.903V29.73z
			"/>
		<path fill="#5E5F5E" d="M173.789,25.809h2.018v1.647h-2.018V25.809z M173.852,28.567h1.891v6.463h-1.891V28.567z"/>
		<path fill="#5E5F5E" d="M177.274,29.921h-0.958V28.58h0.958v-0.882c0-1.137,0.383-2.056,2.222-2.056c0.128,0,0.485,0,1.022,0.063
			v1.315c-0.191-0.025-0.243-0.038-0.396-0.038c-0.971,0-0.971,0.511-0.971,0.843v0.754h1.201v1.341h-1.201v5.108h-1.877V29.921z"/>
		<path fill="#5E5F5E" d="M184.461,29.73c0-0.026,0-0.729-0.038-1.176h1.813l0.051,0.971c0.179-0.293,0.69-1.124,2.095-1.124
			c1.265,0,1.801,0.767,1.967,1.214c0.141,0.396,0.179,0.728,0.179,1.929v3.486H188.6v-4.011c0-0.268,0-0.498-0.103-0.702
			c-0.141-0.281-0.435-0.549-0.92-0.549c-0.408,0-0.778,0.191-0.983,0.498c-0.114,0.166-0.229,0.485-0.229,0.983v3.78h-1.903V29.73z
			"/>
		<path fill="#5E5F5E" d="M195.019,28.427c2.337,0,3.346,1.583,3.346,3.384c0,1.813-1.047,3.448-3.385,3.448
			c-1.839,0-3.295-1.137-3.295-3.396C191.685,30.304,192.477,28.427,195.019,28.427z M195.045,33.944
			c0.83,0,1.392-0.498,1.392-2.209c0-0.855-0.166-2.044-1.417-2.044c-1.38,0-1.393,1.597-1.393,2.185
			C193.627,33.319,194.112,33.944,195.045,33.944z"/>
		<path fill="#5E5F5E" d="M203.317,34.94c-0.612,0.166-1.162,0.205-1.469,0.205c-1.902,0-1.902-1.201-1.902-1.737v-3.538h-1.239
			v-1.251h1.239v-1.265l1.877-0.689v1.954h1.533v1.251h-1.533v2.912c0.013,0.588,0.013,0.958,0.855,0.958
			c0.281,0,0.409-0.013,0.639-0.038V34.94z"/>
	</g>
	<g>
		<path fill="#5E5F5E" d="M16.071,43.631c-0.025-0.23-0.103-1.188-0.83-1.188c-0.895,0-0.996,1.354-0.996,2.057
			c0,0.357,0.038,1.507,0.473,1.979c0.179,0.191,0.37,0.217,0.511,0.217c0.204,0,0.792-0.089,0.868-1.238h1.865
			c-0.026,0.498-0.09,1.277-0.831,1.902c-0.459,0.396-1.034,0.601-1.839,0.601c-0.855,0-1.609-0.191-2.196-0.855
			c-0.563-0.651-0.817-1.507-0.817-2.542c0-2.938,2.158-3.346,3.014-3.346c1.201,0,2.618,0.664,2.631,2.414H16.071z"/>
		<path fill="#5E5F5E" d="M22.659,47.794c-0.064-0.396-0.064-0.689-0.064-0.881c-0.715,1.034-1.57,1.034-1.928,1.034
			c-0.933,0-1.354-0.269-1.609-0.511c-0.384-0.384-0.563-0.907-0.563-1.418s0.179-1.456,1.367-2.005
			c0.791-0.357,1.928-0.357,2.554-0.357c0-0.422-0.013-0.626-0.089-0.856c-0.166-0.472-0.664-0.536-0.843-0.536
			c-0.269,0-0.55,0.115-0.716,0.357c-0.141,0.218-0.141,0.422-0.141,0.575h-1.852c0.013-0.345,0.051-1.034,0.728-1.52
			c0.588-0.422,1.342-0.524,1.954-0.524c0.537,0,1.661,0.09,2.299,0.83c0.435,0.524,0.447,1.29,0.447,1.584l0.013,2.593
			c0,0.549,0.039,1.099,0.153,1.635H22.659z M20.335,45.802c0,0.434,0.293,0.919,0.919,0.919c0.345,0,0.626-0.166,0.805-0.37
			c0.332-0.408,0.357-0.906,0.357-1.597C21.203,44.653,20.335,45.035,20.335,45.802z"/>
		<path fill="#5E5F5E" d="M25.656,42.494c0-0.026,0-0.729-0.038-1.176h1.813l0.051,0.971c0.179-0.293,0.69-1.124,2.095-1.124
			c1.265,0,1.801,0.767,1.967,1.214c0.141,0.396,0.179,0.728,0.179,1.929v3.486h-1.928v-4.011c0-0.268,0-0.498-0.103-0.702
			c-0.141-0.281-0.435-0.549-0.92-0.549c-0.408,0-0.778,0.191-0.983,0.498c-0.114,0.166-0.229,0.485-0.229,0.983v3.78h-1.903V42.494
			z"/>
		<path fill="#5E5F5E" d="M37.441,38.574h1.903v8.174c0,0.383,0.025,0.805,0.051,1.047h-1.916l-0.051-0.933
			c-0.128,0.23-0.255,0.473-0.651,0.729c-0.473,0.307-0.971,0.332-1.252,0.332c-1.724,0-2.745-1.188-2.745-3.206
			c0-2.133,1.162-3.461,2.848-3.461c1.162,0,1.647,0.651,1.813,0.881V38.574z M35.998,46.696c0.55,0,0.996-0.332,1.201-0.728
			c0.28-0.536,0.307-1.201,0.307-1.52c0-1.265-0.55-1.954-1.405-1.954c-1.265,0-1.405,1.52-1.405,2.171
			C34.695,45.738,35.054,46.696,35.998,46.696z"/>
		<path fill="#5E5F5E" d="M40.656,38.574h2.018v1.647h-2.018V38.574z M40.72,41.331h1.891v6.463H40.72V41.331z"/>
		<path fill="#5E5F5E" d="M48.279,38.574h1.903v8.174c0,0.383,0.025,0.805,0.051,1.047h-1.916l-0.051-0.933
			c-0.128,0.23-0.255,0.473-0.651,0.729c-0.473,0.307-0.971,0.332-1.252,0.332c-1.724,0-2.745-1.188-2.745-3.206
			c0-2.133,1.162-3.461,2.848-3.461c1.162,0,1.647,0.651,1.813,0.881V38.574z M46.836,46.696c0.55,0,0.996-0.332,1.201-0.728
			c0.28-0.536,0.307-1.201,0.307-1.52c0-1.265-0.55-1.954-1.405-1.954c-1.265,0-1.405,1.52-1.405,2.171
			C45.533,45.738,45.892,46.696,46.836,46.696z"/>
		<path fill="#5E5F5E" d="M55.428,47.794c-0.064-0.396-0.064-0.689-0.064-0.881c-0.715,1.034-1.57,1.034-1.928,1.034
			c-0.933,0-1.354-0.269-1.609-0.511c-0.384-0.384-0.563-0.907-0.563-1.418s0.179-1.456,1.367-2.005
			c0.791-0.357,1.928-0.357,2.554-0.357c0-0.422-0.013-0.626-0.089-0.856c-0.166-0.472-0.664-0.536-0.843-0.536
			c-0.269,0-0.55,0.115-0.716,0.357c-0.141,0.218-0.141,0.422-0.141,0.575h-1.852c0.013-0.345,0.051-1.034,0.728-1.52
			c0.588-0.422,1.342-0.524,1.954-0.524c0.537,0,1.661,0.09,2.299,0.83c0.435,0.524,0.447,1.29,0.447,1.584l0.013,2.593
			c0,0.549,0.039,1.099,0.153,1.635H55.428z M53.103,45.802c0,0.434,0.293,0.919,0.919,0.919c0.345,0,0.626-0.166,0.805-0.37
			c0.332-0.408,0.357-0.906,0.357-1.597C53.972,44.653,53.103,45.035,53.103,45.802z"/>
		<path fill="#5E5F5E" d="M62.193,47.704c-0.612,0.166-1.162,0.205-1.469,0.205c-1.902,0-1.902-1.201-1.902-1.737v-3.538h-1.239
			v-1.251h1.239v-1.265l1.877-0.689v1.954h1.533v1.251h-1.533v2.912c0.013,0.588,0.013,0.958,0.855,0.958
			c0.281,0,0.409-0.013,0.639-0.038V47.704z"/>
		<path fill="#5E5F5E" d="M64.388,45.048c0,0.422,0,1.725,1.315,1.725c0.473,0,0.945-0.179,1.124-0.895h1.725
			c-0.025,0.307-0.09,0.856-0.613,1.405c-0.473,0.498-1.315,0.753-2.261,0.753c-0.549,0-1.597-0.102-2.273-0.804
			c-0.587-0.613-0.83-1.481-0.83-2.517c0-1.047,0.256-2.299,1.341-3.053c0.499-0.332,1.111-0.536,1.814-0.536
			c0.919,0,2.018,0.357,2.605,1.559c0.434,0.881,0.408,1.826,0.383,2.362H64.388z M66.789,43.861c0-0.294-0.025-1.443-1.124-1.443
			c-0.83,0-1.175,0.689-1.213,1.443H66.789z"/>
		<path fill="#5E5F5E" d="M73.132,42.686h-0.958v-1.341h0.958v-0.882c0-1.137,0.383-2.056,2.222-2.056c0.128,0,0.485,0,1.022,0.063
			v1.315c-0.191-0.025-0.243-0.038-0.396-0.038c-0.971,0-0.971,0.511-0.971,0.843v0.754h1.201v1.341h-1.201v5.108h-1.877V42.686z"/>
		<path fill="#5E5F5E" d="M79.784,41.192c2.337,0,3.346,1.583,3.346,3.384c0,1.813-1.047,3.448-3.385,3.448
			c-1.839,0-3.295-1.137-3.295-3.396C76.45,43.069,77.242,41.192,79.784,41.192z M79.809,46.708c0.83,0,1.392-0.498,1.392-2.209
			c0-0.855-0.166-2.044-1.417-2.044c-1.38,0-1.393,1.597-1.393,2.185C78.392,46.083,78.877,46.708,79.809,46.708z"/>
		<path fill="#5E5F5E" d="M84.289,42.928c0-0.307-0.051-1.238-0.089-1.609h1.774l0.039,1.239c0.242-0.549,0.664-1.328,2.196-1.252
			v1.699c-1.916-0.179-2.03,0.805-2.03,1.609v3.18h-1.891V42.928z"/>
		<path fill="#5E5F5E" d="M92.344,38.574h1.878v3.652c0.217-0.307,0.689-0.971,1.864-0.971c0.958,0,1.571,0.473,1.878,0.868
			c0.229,0.319,0.421,0.907,0.421,1.75v3.921h-1.877v-3.857c0-0.37,0-1.404-1.061-1.404c-0.536,0-1.213,0.307-1.213,1.315
			l0.013,3.946h-1.903V38.574z"/>
		<path fill="#5E5F5E" d="M99.774,38.574h2.018v1.647h-2.018V38.574z M99.838,41.331h1.891v6.463h-1.891V41.331z"/>
		<path fill="#5E5F5E" d="M109.249,41.37c-0.052,0.511-0.09,0.944-0.09,1.596v4.765c0,2.375-1.979,2.605-3.219,2.605
			c-0.919,0-2.72-0.115-2.835-2.069h1.813c0.025,0.191,0.115,0.894,1.124,0.894c0.562,0,1.047-0.268,1.175-0.843
			c0.077-0.319,0.077-0.549,0.09-1.532c-0.601,0.792-1.277,0.881-1.737,0.881c-1.852,0-2.721-1.609-2.721-3.167
			c0-1.635,0.907-3.193,2.759-3.193c1.175,0,1.609,0.639,1.801,0.92l0.064-0.855H109.249z M106.005,46.376
			c1.328,0,1.328-1.558,1.328-1.839c0-0.728-0.141-1.967-1.29-1.967c-0.715,0-1.303,0.549-1.303,1.929
			C104.74,44.819,104.74,46.376,106.005,46.376z"/>
		<path fill="#5E5F5E" d="M110.726,38.574h1.878v3.652c0.217-0.307,0.689-0.971,1.864-0.971c0.958,0,1.571,0.473,1.878,0.868
			c0.229,0.319,0.421,0.907,0.421,1.75v3.921h-1.877v-3.857c0-0.37,0-1.404-1.061-1.404c-0.536,0-1.213,0.307-1.213,1.315
			l0.013,3.946h-1.903V38.574z"/>
		<path fill="#5E5F5E" d="M117.951,43.695h3.168v1.443h-3.168V43.695z"/>
		<path fill="#5E5F5E" d="M122.152,38.574h2.018v1.647h-2.018V38.574z M122.216,41.331h1.891v6.463h-1.891V41.331z"/>
		<path fill="#5E5F5E" d="M125.534,42.494c0-0.026,0-0.729-0.038-1.176h1.813l0.051,0.971c0.18-0.293,0.69-1.124,2.095-1.124
			c1.265,0,1.801,0.767,1.967,1.214c0.141,0.396,0.179,0.728,0.179,1.929v3.486h-1.928v-4.011c0-0.268,0-0.498-0.103-0.702
			c-0.141-0.281-0.435-0.549-0.92-0.549c-0.408,0-0.778,0.191-0.983,0.498c-0.114,0.166-0.229,0.485-0.229,0.983v3.78h-1.903V42.494
			z"/>
		<path fill="#5E5F5E" d="M136.847,47.704c-0.612,0.166-1.162,0.205-1.469,0.205c-1.902,0-1.902-1.201-1.902-1.737v-3.538h-1.239
			v-1.251h1.239v-1.265l1.877-0.689v1.954h1.533v1.251h-1.533v2.912c0.013,0.588,0.013,0.958,0.855,0.958
			c0.281,0,0.409-0.013,0.639-0.038V47.704z"/>
		<path fill="#5E5F5E" d="M139.041,45.048c0,0.422,0,1.725,1.315,1.725c0.473,0,0.945-0.179,1.124-0.895h1.725
			c-0.025,0.307-0.09,0.856-0.613,1.405c-0.473,0.498-1.315,0.753-2.261,0.753c-0.549,0-1.596-0.102-2.273-0.804
			c-0.587-0.613-0.83-1.481-0.83-2.517c0-1.047,0.256-2.299,1.341-3.053c0.499-0.332,1.111-0.536,1.814-0.536
			c0.919,0,2.018,0.357,2.605,1.559c0.434,0.881,0.408,1.826,0.383,2.362H139.041z M141.442,43.861c0-0.294-0.025-1.443-1.124-1.443
			c-0.83,0-1.175,0.689-1.213,1.443H141.442z"/>
		<path fill="#5E5F5E" d="M144.39,42.494c0-0.026,0-0.729-0.038-1.176h1.813l0.051,0.971c0.18-0.293,0.69-1.124,2.095-1.124
			c1.265,0,1.801,0.767,1.967,1.214c0.141,0.396,0.179,0.728,0.179,1.929v3.486h-1.928v-4.011c0-0.268,0-0.498-0.103-0.702
			c-0.141-0.281-0.435-0.549-0.92-0.549c-0.408,0-0.778,0.191-0.983,0.498c-0.114,0.166-0.229,0.485-0.229,0.983v3.78h-1.903V42.494
			z"/>
		<path fill="#5E5F5E" d="M153.224,45.93c0.025,0.408,0.281,0.881,1.073,0.881c0.677,0,0.996-0.383,0.996-0.767
			c0-0.293-0.153-0.523-0.895-0.728l-1.175-0.319c-0.523-0.153-1.635-0.473-1.635-1.788c0-1.252,1.149-2.018,2.822-2.018
			c1.329,0,2.401,0.612,2.452,1.902h-1.724c-0.051-0.715-0.626-0.766-0.92-0.766c-0.511,0-0.894,0.242-0.894,0.638
			c0,0.435,0.319,0.524,0.881,0.678l1.162,0.319c1.175,0.319,1.725,0.919,1.725,1.801c0,1.11-0.958,2.222-2.963,2.222
			c-0.83,0-1.622-0.179-2.21-0.792c-0.421-0.446-0.46-0.958-0.473-1.264H153.224z"/>
		<path fill="#5E5F5E" d="M157.973,38.574h2.018v1.647h-2.018V38.574z M158.036,41.331h1.891v6.463h-1.891V41.331z"/>
		<path fill="#5E5F5E" d="M165.122,47.704c-0.612,0.166-1.162,0.205-1.469,0.205c-1.902,0-1.902-1.201-1.902-1.737v-3.538h-1.239
			v-1.251h1.239v-1.265l1.877-0.689v1.954h1.533v1.251h-1.533v2.912c0.013,0.588,0.013,0.958,0.855,0.958
			c0.281,0,0.409-0.013,0.639-0.038V47.704z"/>
		<path fill="#5E5F5E" d="M167.433,41.345l1.417,4.47l1.443-4.47h1.878l-2.439,6.334l-0.779,2.567h-1.903l0.817-2.427l-2.478-6.475
			H167.433z"/>
		<path fill="#5E5F5E" d="M177.491,45.93c0.025,0.408,0.281,0.881,1.073,0.881c0.677,0,0.996-0.383,0.996-0.767
			c0-0.293-0.153-0.523-0.895-0.728l-1.175-0.319c-0.523-0.153-1.635-0.473-1.635-1.788c0-1.252,1.149-2.018,2.822-2.018
			c1.329,0,2.401,0.612,2.452,1.902h-1.724c-0.051-0.715-0.626-0.766-0.92-0.766c-0.511,0-0.894,0.242-0.894,0.638
			c0,0.435,0.319,0.524,0.881,0.678l1.162,0.319c1.175,0.319,1.725,0.919,1.725,1.801c0,1.11-0.958,2.222-2.963,2.222
			c-0.83,0-1.622-0.179-2.21-0.792c-0.421-0.446-0.46-0.958-0.473-1.264H177.491z"/>
		<path fill="#5E5F5E" d="M186.097,47.704c-0.612,0.166-1.162,0.205-1.469,0.205c-1.902,0-1.902-1.201-1.902-1.737v-3.538h-1.239
			v-1.251h1.239v-1.265l1.877-0.689v1.954h1.533v1.251h-1.533v2.912c0.013,0.588,0.013,0.958,0.855,0.958
			c0.281,0,0.409-0.013,0.639-0.038V47.704z"/>
		<path fill="#5E5F5E" d="M190.884,47.794c-0.064-0.396-0.064-0.689-0.064-0.881c-0.715,1.034-1.57,1.034-1.928,1.034
			c-0.933,0-1.354-0.269-1.609-0.511c-0.384-0.384-0.563-0.907-0.563-1.418s0.179-1.456,1.367-2.005
			c0.791-0.357,1.928-0.357,2.554-0.357c0-0.422-0.013-0.626-0.089-0.856c-0.166-0.472-0.664-0.536-0.843-0.536
			c-0.269,0-0.55,0.115-0.716,0.357c-0.141,0.218-0.141,0.422-0.141,0.575h-1.852c0.013-0.345,0.051-1.034,0.728-1.52
			c0.588-0.422,1.342-0.524,1.954-0.524c0.537,0,1.661,0.09,2.299,0.83c0.435,0.524,0.447,1.29,0.447,1.584l0.013,2.593
			c0,0.549,0.039,1.099,0.153,1.635H190.884z M188.559,45.802c0,0.434,0.293,0.919,0.919,0.919c0.345,0,0.626-0.166,0.805-0.37
			c0.332-0.408,0.357-0.906,0.357-1.597C189.428,44.653,188.559,45.035,188.559,45.802z"/>
		<path fill="#5E5F5E" d="M197.649,47.704c-0.612,0.166-1.162,0.205-1.469,0.205c-1.902,0-1.902-1.201-1.902-1.737v-3.538h-1.239
			v-1.251h1.239v-1.265l1.877-0.689v1.954h1.533v1.251h-1.533v2.912c0.013,0.588,0.013,0.958,0.855,0.958
			c0.281,0,0.409-0.013,0.639-0.038V47.704z"/>
		<path fill="#5E5F5E" d="M198.503,38.574h2.018v1.647h-2.018V38.574z M198.566,41.331h1.891v6.463h-1.891V41.331z"/>
		<path fill="#5E5F5E" d="M201.886,42.494c0-0.026,0-0.729-0.038-1.176h1.813l0.051,0.971c0.18-0.293,0.69-1.124,2.095-1.124
			c1.265,0,1.801,0.767,1.967,1.214c0.141,0.396,0.179,0.728,0.179,1.929v3.486h-1.928v-4.011c0-0.268,0-0.498-0.103-0.702
			c-0.141-0.281-0.435-0.549-0.92-0.549c-0.408,0-0.778,0.191-0.983,0.498c-0.114,0.166-0.229,0.485-0.229,0.983v3.78h-1.903V42.494
			z"/>
		<path fill="#5E5F5E" d="M209.342,49.366c0.421-1.277,1.124-3.347,1.124-5.633c0-1.724-0.358-2.988-1.111-5.606h1.392
			c0.729,1.763,1.29,3.627,1.29,5.53c0,1.967-0.587,3.869-1.303,5.709H209.342z"/>
	</g>
</g>
</svg>
