<?xml version="1.0" encoding="utf-8"?>
<!-- Generator: Adobe Illustrator 17.0.0, SVG Export Plug-In . SVG Version: 6.00 Build 0)  -->
<!DOCTYPE svg PUBLIC "-//W3C//DTD SVG 1.1//EN" "http://www.w3.org/Graphics/SVG/1.1/DTD/svg11.dtd">
<svg version="1.1" id="Layer_1" xmlns="http://www.w3.org/2000/svg" xmlns:xlink="http://www.w3.org/1999/xlink" x="0px" y="0px"
	 width="1025.205px" height="139.927px" viewBox="0 0 1025.205 139.927" enable-background="new 0 0 1025.205 139.927"
	 xml:space="preserve">
<g>
	
		<linearGradient id="SVGID_2_" gradientUnits="userSpaceOnUse" x1="2956.9438" y1="-99.9208" x2="2956.9438" y2="5.7204" gradientTransform="matrix(-1 0 0 -1 3469.5466 17.926)">
		<stop  offset="0" style="stop-color:#ACEBFF"/>
		<stop  offset="0.393" style="stop-color:#98C5D2"/>
		<stop  offset="1" style="stop-color:#98C5D2"/>
	</linearGradient>
	<path fill="url(#SVGID_2_)" d="M0,0c0,0,232.479,66.351,510.523,66.351C852.219,66.351,1025.205,0,1025.205,0v139.927H0V0z"/>
	<g>
		<g>
			<path fill="#00435B" d="M0.169,139.795h473.372c-181.761-2.451-346.481-16.567-473.372-38.419V139.795z"/>
			<path fill="#00435B" d="M1025.166,139.795V107.12c-121.475,18.569-272.677,30.446-437.974,32.675H1025.166z"/>
		</g>
	</g>
	<g>
		<path fill="#3B99AF" d="M57.03,53.757c-0.236,0.209-0.451,0.406-0.653,0.615c-0.021,0.029-0.023,0.065-0.03,0.088
			C56.555,54.22,56.789,54,57.03,53.757"/>
		<path fill="#3B99AF" d="M64.49,48.834c0.141,0.008,0.28,0.038,0.416,0.059c1.451-0.514,2.929-0.65,4.488-0.382
			c0.461,0.074,0.903,0.179,1.337,0.353c2.219,0.777,3.868,2.343,4.726,4.424c1.775,1.55,3.11,3.441,3.953,5.684
			c0.051-0.295,0.106-0.57,0.148-0.85c0.823-6.317-3.508-11.099-9.45-12.159c-2.901-0.455-5.644,0.011-8.203,1.406
			c-1.091,0.616-2.02,1.337-2.853,2.199C60.737,48.913,62.519,48.625,64.49,48.834"/>
		<path fill="#3B99AF" d="M74.535,60.174c-0.065,0.061-0.153,0.173-0.209,0.236c-0.02,0.724-0.096,1.407-0.237,2.137
			c-0.361,1.628-0.977,3.075-1.871,4.397c1.019-0.405,1.942-0.894,2.793-1.524C75.398,63.567,75.181,61.807,74.535,60.174"/>
		<path fill="#3B99AF" d="M69.602,63.368c-1.236,0.291-2.477,0.316-3.774,0.059c-3.444-0.787-5.675-3.323-6.182-6.241
			c-1.199,1.213-2.042,2.679-2.467,4.454c1.478,2.782,4.133,4.991,7.787,5.832c0.243,0.063,0.48,0.109,0.713,0.145
			C67.392,66.684,68.76,65.25,69.602,63.368"/>
		<path fill="#006C85" d="M74.327,59.735c-1.099-2.291-3.049-4.015-5.588-4.806c1.337,1.835,1.936,4.195,1.398,6.769
			c-0.131,0.589-0.308,1.139-0.536,1.669c1.926-0.443,3.557-1.476,4.726-2.958C74.342,60.187,74.342,59.968,74.327,59.735"/>
		<path fill="#006C85" d="M72.217,66.943c-2.039,0.773-4.236,1.037-6.539,0.673c-1.865,1.017-3.945,1.307-6.003,0.791
			c-0.606-0.161-1.144-0.375-1.664-0.644c0.112,0.222,0.232,0.429,0.357,0.644c1.248,1.92,3.033,3.236,5.261,3.868
			C67.033,71.824,70.16,69.959,72.217,66.943"/>
		<path fill="#006C85" d="M68.681,50.153c-1.183-0.646-2.422-1.068-3.774-1.26c-0.473,0.159-0.914,0.368-1.368,0.615
			c-0.64,0.374-1.181,0.807-1.694,1.29C63.987,50.045,66.25,49.779,68.681,50.153"/>
		<path fill="#006C85" d="M53.077,60.819c0.357-1.597,0.933-3.028,1.754-4.366c0.423-0.766,0.912-1.446,1.545-2.08
			c0.056-0.238,0.118-0.47,0.208-0.703c0.524-1.584,1.349-2.915,2.467-4.104c-3.687,1.515-6.395,4.49-7.49,8.528
			c-0.703,2.881-0.454,5.69,0.892,8.35c0.346,0.662,0.729,1.249,1.19,1.817C52.763,65.869,52.565,63.396,53.077,60.819"/>
		<path fill="#007F97" d="M69.602,63.368c-0.847,1.882-2.215,3.316-3.923,4.248c2.302,0.362,4.501,0.102,6.538-0.673
			c0.896-1.323,1.516-2.768,1.873-4.395c0.14-0.728,0.216-1.416,0.237-2.138C73.154,61.891,71.522,62.925,69.602,63.368"/>
		<path fill="#007F97" d="M56.376,54.373c0.203-0.21,0.419-0.407,0.653-0.615c1.397-1.298,2.982-2.285,4.815-2.959
			c0.513-0.488,1.054-0.916,1.694-1.29c0.455-0.249,0.895-0.457,1.368-0.615c-0.138-0.022-0.275-0.051-0.416-0.059
			c-1.966-0.212-3.755,0.079-5.439,0.732c-1.112,1.183-1.943,2.522-2.467,4.103C56.494,53.904,56.432,54.135,56.376,54.373"/>
		<path fill="#98C5D2" d="M67.818,54.694c0.316,0.08,0.611,0.135,0.921,0.235c-1.286-1.696-3.066-2.768-5.23-3.077
			c-0.894-0.113-1.75-0.084-2.615,0.087c-0.443,0.638-0.778,1.32-1.011,2.082c-0.322,1.076-0.392,2.11-0.237,3.165
			C61.754,55.154,64.658,54.135,67.818,54.694"/>
		<path fill="#98C5D2" d="M68.948,50.212c-0.082-0.028-0.188-0.042-0.268-0.059c1.34,0.763,2.48,1.762,3.447,3.077
			c1.388,1.9,2.144,4.091,2.199,6.505c0.074,0.154,0.134,0.29,0.21,0.438c0.647-0.928,1.087-1.928,1.307-3.046
			c0.225-1.396,0.057-2.658-0.386-3.839c-1.228-1.039-2.551-1.845-4.072-2.432C70.588,50.566,69.796,50.357,68.948,50.212"/>
		<path fill="#98C5D2" d="M79.41,58.972c-0.649,2.599-2.169,4.821-4.399,6.447c-0.001,0.033-0.012,0.082-0.029,0.117
			c-0.544,2.437-1.972,4.413-4.102,5.744c-2.12,1.281-4.501,1.651-6.895,1.112c-0.103-0.031-0.268-0.081-0.357-0.117
			c-1.536,0.193-3.012,0.08-4.518-0.351c-2.285-0.67-4.083-1.923-5.468-3.663c0.319,0.883,0.714,1.688,1.218,2.49
			c1.93,3.037,4.744,5.119,8.321,6.037c7.411,1.724,14.857-2.577,16.704-10.227C80.475,63.9,80.259,61.352,79.41,58.972"/>
		<path fill="#98C5D2" d="M57.179,61.727c0-0.027,0.003-0.071,0-0.088c-1.131-2.268-1.424-4.712-0.832-7.178
			c-0.574,0.626-1.058,1.274-1.516,1.992c-0.338,0.66-0.602,1.325-0.773,2.051c-0.519,2.118-0.3,4.182,0.713,6.094
			c0.777,1.375,1.846,2.426,3.24,3.166C57.029,65.866,56.736,63.834,57.179,61.727"/>
		<path fill="#6BAEC0" d="M75.457,53.289c0.446,1.183,0.612,2.446,0.387,3.839c-0.225,1.118-0.654,2.115-1.308,3.047
			c0.645,1.633,0.862,3.393,0.475,5.245c2.233-1.626,3.752-3.846,4.398-6.447C78.566,56.73,77.235,54.839,75.457,53.289"/>
		<path fill="#6BAEC0" d="M56.347,54.461c-0.592,2.47-0.294,4.906,0.832,7.178c0.426-1.777,1.271-3.244,2.467-4.453
			c-0.154-1.058-0.089-2.087,0.237-3.166c0.234-0.761,0.569-1.444,1.011-2.081c-1.213,0.226-2.324,0.708-3.359,1.435
			c-0.188,0.135-0.337,0.262-0.506,0.383C56.789,54,56.555,54.22,56.347,54.461"/>
		<path fill="#2593AA" d="M59.111,71.924c1.495,0.433,2.986,0.543,4.518,0.351c-2.231-0.633-4.014-1.948-5.262-3.868
			c-0.126-0.216-0.244-0.423-0.356-0.643c-1.396-0.741-2.463-1.795-3.24-3.166c-1.013-1.906-1.232-3.973-0.713-6.094
			c0.171-0.731,0.435-1.39,0.773-2.051c-0.821,1.339-1.394,2.761-1.754,4.366c-0.512,2.57-0.318,5.047,0.565,7.442
			C55.015,69.999,56.829,71.256,59.111,71.924"/>
		<path fill="#2593AA" d="M63.509,51.853c2.16,0.313,3.947,1.381,5.23,3.077c2.535,0.791,4.488,2.518,5.588,4.806
			c-0.053-2.416-0.813-4.609-2.2-6.506c-0.967-1.314-2.109-2.304-3.447-3.076c-2.433-0.375-4.694-0.106-6.836,0.645
			c-0.352,0.362-0.666,0.723-0.951,1.141C61.754,51.758,62.621,51.739,63.509,51.853"/>
		<path fill="#007C95" d="M60.894,51.94c0.286-0.418,0.595-0.774,0.951-1.142c-1.836,0.677-3.42,1.662-4.815,2.96
			c0.169-0.122,0.317-0.248,0.505-0.382C58.569,52.644,59.674,52.172,60.894,51.94"/>
		<polygon fill="#3B99AF" points="74.327,60.438 74.327,59.793 74.536,60.174 		"/>
		<polygon fill="#006C85" points="93.257,50.875 99.193,50.875 94.796,60.161 102.083,60.161 101.014,62.446 87.792,62.446 		"/>
		<polygon fill="#006C85" points="111.503,54.702 107.886,62.446 101.949,62.446 105.566,54.702 		"/>
		<path fill="#006C85" d="M112.654,54.703h10.211c2.414,0,5.4,0.576,4.426,2.662c-0.943,2.019-3.923,2.852-7.024,2.852h-4.252
			l-1.043,2.23h-5.936L112.654,54.703z M116.699,58.419h1.307c1.418,0,2.919-0.134,3.323-0.999c0.384-0.82-1.009-0.92-2.449-0.92
			h-1.285L116.699,58.419z"/>
		<polygon fill="#006C85" points="135.406,54.702 131.789,62.446 125.853,62.446 129.47,54.702 		"/>
		<polygon fill="#006C85" points="151.685,56.987 146.458,56.987 143.908,62.447 137.972,62.447 140.521,56.987 135.294,56.987 
			136.362,54.703 152.752,54.703 		"/>
		<path fill="#006C85" d="M157.755,62.58c-5.405,0-7.935-1.365-6.702-4.005c1.213-2.596,5.039-4.007,10.442-4.007
			c5.405,0,7.98,1.41,6.767,4.007C167.03,61.215,163.16,62.58,157.755,62.58 M158.626,60.715c2.347,0,3.026-1.31,3.436-2.141
			c0.315-0.722,0.824-2.142-1.435-2.142c-2.194,0-3.035,1.419-3.371,2.142C156.867,59.406,156.499,60.715,158.626,60.715"/>
		<path fill="#006C85" d="M170.985,54.702h9.59c3.699,0,5.71,0.577,5.016,2.064c-0.554,1.187-2.318,1.786-4.659,2.053l-0.01,0.022
			c1.233,0.111,1.863,0.422,2.226,0.832c0.524,0.821-0.101,2.02,0.165,2.774h-6.179c-0.007-0.554,0.491-1.764,0.221-2.23
			c-0.188-0.357-0.765-0.401-1.495-0.401h-1.329l-1.228,2.63h-5.936L170.985,54.702z M175.074,58.086h1.55
			c1.218,0,2.445-0.067,2.814-0.855c0.326-0.698-0.757-0.798-1.953-0.798h-1.639L175.074,58.086z"/>
		<path fill="#006C85" d="M88.983,67.74c0.357-0.88,1.361-1.235,2.774-1.243c1.242,0,2.074,0.301,2.074,0.988
			c0,0.185-0.053,0.332-0.105,0.486l-0.779,1.937c-0.026,0.093-0.053,0.155-0.053,0.271c0,0.216,0.198,0.255,0.409,0.255
			c0.158,0,0.317-0.008,0.462-0.031v0.155c-0.171,0.023-0.316,0.031-0.449,0.031c-0.436,0-0.687-0.124-0.687-0.41
			c0-0.209,0.079-0.301,0.132-0.432h-0.026c-0.634,0.601-1.466,0.902-2.775,0.902c-1.044,0-2.021-0.278-2.021-0.981
			c0-1.071,1.48-1.273,2.961-1.281c1.387-0.039,2.669,0.101,2.669-0.903c-0.013-0.64-0.767-0.833-1.811-0.833
			c-1.361-0.008-2.219,0.401-2.511,1.088H88.983z M93.303,68.319l-0.026-0.016c-0.357,0.224-1.599,0.224-2.365,0.233
			c-1.295,0.037-2.695,0.161-2.709,1.133c0,0.572,0.807,0.827,1.757,0.827c1.679,0,2.683-0.625,3.066-1.489L93.303,68.319z"/>
		<path fill="none" stroke="#006C85" stroke-width="0.26" d="M88.983,67.74c0.357-0.88,1.361-1.235,2.774-1.243
			c1.242,0,2.074,0.301,2.074,0.988c0,0.185-0.053,0.332-0.105,0.486l-0.779,1.937c-0.026,0.093-0.053,0.155-0.053,0.271
			c0,0.216,0.198,0.255,0.409,0.255c0.158,0,0.317-0.008,0.462-0.031v0.155c-0.171,0.023-0.316,0.031-0.449,0.031
			c-0.436,0-0.687-0.124-0.687-0.41c0-0.209,0.079-0.301,0.132-0.432h-0.026c-0.634,0.601-1.466,0.902-2.775,0.902
			c-1.044,0-2.021-0.278-2.021-0.981c0-1.071,1.48-1.273,2.961-1.281c1.387-0.039,2.669,0.101,2.669-0.903
			c-0.013-0.64-0.767-0.833-1.811-0.833c-1.361-0.008-2.219,0.401-2.511,1.088H88.983z M93.303,68.319l-0.026-0.016
			c-0.357,0.224-1.599,0.224-2.365,0.233c-1.295,0.037-2.695,0.161-2.709,1.133c0,0.572,0.807,0.827,1.757,0.827
			c1.679,0,2.683-0.625,3.066-1.489L93.303,68.319z"/>
		<path fill="#006C85" d="M96.131,65.339h0.278l-0.449,1.251h1.479l-0.053,0.154h-1.48l-1.057,2.895
			c-0.053,0.139-0.12,0.302-0.133,0.456c0,0.363,0.516,0.34,0.912,0.34c0.251,0,0.45-0.008,0.635-0.03l-0.054,0.154
			c-0.237,0.022-0.488,0.031-0.726,0.031c-0.516,0-1.03-0.078-1.03-0.449c0-0.155,0.066-0.301,0.105-0.455l1.07-2.941h-1.281
			L94.4,66.59h1.282L96.131,65.339z"/>
		<path fill="none" stroke="#006C85" stroke-width="0.26" d="M96.131,65.339h0.278l-0.449,1.251h1.479l-0.053,0.154h-1.48
			l-1.057,2.895c-0.053,0.139-0.12,0.302-0.133,0.456c0,0.363,0.516,0.34,0.912,0.34c0.251,0,0.45-0.008,0.635-0.03l-0.054,0.154
			c-0.237,0.022-0.488,0.031-0.726,0.031c-0.516,0-1.03-0.078-1.03-0.449c0-0.155,0.066-0.301,0.105-0.455l1.07-2.941h-1.281
			L94.4,66.59h1.282L96.131,65.339z"/>
		<path fill="#006C85" d="M100.187,66.497c1.638,0,2.616,0.663,2.616,1.628c0,1.166-1.242,2.524-3.554,2.524
			c-1.665,0-2.603-0.617-2.603-1.567C96.646,67.786,97.901,66.497,100.187,66.497 M99.249,70.495c2.167,0,3.29-1.305,3.29-2.369
			c0-0.919-0.925-1.475-2.352-1.475c-2.18,0-3.277,1.273-3.277,2.431C96.91,69.932,97.716,70.495,99.249,70.495"/>
		<path fill="none" stroke="#006C85" stroke-width="0.26" d="M100.187,66.497c1.638,0,2.616,0.663,2.616,1.628
			c0,1.166-1.242,2.524-3.554,2.524c-1.665,0-2.603-0.617-2.603-1.567C96.646,67.786,97.901,66.497,100.187,66.497z M99.249,70.495
			c2.167,0,3.29-1.305,3.29-2.369c0-0.919-0.925-1.475-2.352-1.475c-2.18,0-3.277,1.273-3.277,2.431
			C96.91,69.932,97.716,70.495,99.249,70.495z"/>
		<path fill="#006C85" d="M102.695,70.557l1.44-3.968h0.291l-0.184,0.509l-0.199,0.486l0.026,0.016
			c0.542-0.625,1.362-1.073,2.471-1.073c0.211,0,0.37,0.007,0.542,0.03l-0.054,0.155c-0.105-0.015-0.278-0.031-0.475-0.031
			c-1.269,0-2.101,0.749-2.391,1.088c-0.172,0.216-0.331,0.456-0.463,0.795l-0.727,1.992H102.695z"/>
		<path fill="none" stroke="#006C85" stroke-width="0.26" d="M102.695,70.557l1.44-3.968h0.291l-0.184,0.509l-0.199,0.486
			l0.026,0.016c0.542-0.625,1.362-1.073,2.471-1.073c0.211,0,0.37,0.007,0.542,0.03l-0.054,0.155
			c-0.105-0.015-0.278-0.031-0.475-0.031c-1.269,0-2.101,0.749-2.391,1.088c-0.172,0.216-0.331,0.456-0.463,0.795l-0.727,1.992
			H102.695z"/>
		<polygon fill="#006C85" points="108.863,70.557 107.621,66.59 107.899,66.59 109.062,70.403 109.088,70.403 112.827,66.59 
			113.131,66.59 109.22,70.557 		"/>
		<polygon fill="none" stroke="#006C85" stroke-width="0.26" points="108.863,70.557 107.621,66.59 107.899,66.59 109.062,70.403 
			109.088,70.403 112.827,66.59 113.131,66.59 109.22,70.557 		"/>
		<path fill="#006C85" d="M113.078,67.74c0.356-0.88,1.361-1.235,2.774-1.243c1.242,0,2.074,0.301,2.074,0.988
			c0,0.185-0.053,0.332-0.105,0.486l-0.779,1.937c-0.026,0.093-0.053,0.155-0.053,0.271c0,0.216,0.199,0.255,0.409,0.255
			c0.158,0,0.317-0.008,0.462-0.031v0.155c-0.171,0.023-0.316,0.031-0.449,0.031c-0.436,0-0.687-0.124-0.687-0.41
			c0-0.209,0.079-0.301,0.132-0.432h-0.026c-0.633,0.601-1.466,0.902-2.775,0.902c-1.044,0-2.021-0.278-2.021-0.981
			c0-1.071,1.48-1.273,2.961-1.281c1.387-0.039,2.669,0.101,2.669-0.903c-0.013-0.64-0.767-0.833-1.811-0.833
			c-1.361-0.008-2.22,0.401-2.511,1.088H113.078z M117.399,68.319l-0.026-0.016c-0.357,0.224-1.599,0.224-2.365,0.233
			c-1.295,0.037-2.695,0.161-2.709,1.133c0,0.572,0.806,0.827,1.757,0.827c1.679,0,2.683-0.625,3.066-1.489L117.399,68.319z"/>
		<path fill="none" stroke="#006C85" stroke-width="0.26" d="M113.078,67.74c0.356-0.88,1.361-1.235,2.774-1.243
			c1.242,0,2.074,0.301,2.074,0.988c0,0.185-0.053,0.332-0.105,0.486l-0.779,1.937c-0.026,0.093-0.053,0.155-0.053,0.271
			c0,0.216,0.199,0.255,0.409,0.255c0.158,0,0.317-0.008,0.462-0.031v0.155c-0.171,0.023-0.316,0.031-0.449,0.031
			c-0.436,0-0.687-0.124-0.687-0.41c0-0.209,0.079-0.301,0.132-0.432h-0.026c-0.633,0.601-1.466,0.902-2.775,0.902
			c-1.044,0-2.021-0.278-2.021-0.981c0-1.071,1.48-1.273,2.961-1.281c1.387-0.039,2.669,0.101,2.669-0.903
			c-0.013-0.64-0.767-0.833-1.811-0.833c-1.361-0.008-2.22,0.401-2.511,1.088H113.078z M117.399,68.319l-0.026-0.016
			c-0.357,0.224-1.599,0.224-2.365,0.233c-1.295,0.037-2.695,0.161-2.709,1.133c0,0.572,0.806,0.827,1.757,0.827
			c1.679,0,2.683-0.625,3.066-1.489L117.399,68.319z"/>
		<path fill="#006C85" d="M123.358,67.778c0.172-0.796-0.661-1.127-1.982-1.127c-0.912,0-2.049,0.232-2.049,0.903
			c0,0.54,0.793,0.687,1.573,0.864c0.925,0.201,2.179,0.348,2.194,1.097c0,0.834-1.229,1.135-2.498,1.135
			c-1.348,0-2.47-0.271-2.47-1.144c0-0.1,0.026-0.192,0.026-0.292h0.278c-0.225,0.941,0.673,1.281,2.166,1.281
			c1.084,0,2.233-0.255,2.233-0.98c0-0.563-0.859-0.703-1.638-0.88c-0.925-0.201-2.127-0.348-2.127-1.081
			c0-0.733,1.149-1.057,2.312-1.057c1.4,0,2.418,0.331,2.245,1.281H123.358z"/>
		<path fill="none" stroke="#006C85" stroke-width="0.26" d="M123.358,67.778c0.172-0.796-0.661-1.127-1.982-1.127
			c-0.912,0-2.049,0.232-2.049,0.903c0,0.54,0.793,0.687,1.573,0.864c0.925,0.201,2.179,0.348,2.194,1.097
			c0,0.834-1.229,1.135-2.498,1.135c-1.348,0-2.47-0.271-2.47-1.144c0-0.1,0.026-0.192,0.026-0.292h0.278
			c-0.225,0.941,0.673,1.281,2.166,1.281c1.084,0,2.233-0.255,2.233-0.98c0-0.563-0.859-0.703-1.638-0.88
			c-0.925-0.201-2.127-0.348-2.127-1.081c0-0.733,1.149-1.057,2.312-1.057c1.4,0,2.418,0.331,2.245,1.281H123.358z"/>
		<path fill="#006C85" d="M125.933,65.339h0.277l-0.45,1.251h1.48l-0.054,0.154h-1.479l-1.058,2.895
			c-0.051,0.139-0.118,0.302-0.132,0.456c0,0.363,0.516,0.34,0.912,0.34c0.251,0,0.449-0.008,0.635-0.03l-0.054,0.154
			c-0.237,0.022-0.488,0.031-0.726,0.031c-0.516,0-1.03-0.078-1.03-0.449c0-0.155,0.066-0.301,0.105-0.455l1.07-2.941h-1.282
			l0.054-0.154h1.281L125.933,65.339z"/>
		<path fill="none" stroke="#006C85" stroke-width="0.26" d="M125.933,65.339h0.277l-0.45,1.251h1.48l-0.054,0.154h-1.479
			l-1.058,2.895c-0.051,0.139-0.118,0.302-0.132,0.456c0,0.363,0.516,0.34,0.912,0.34c0.251,0,0.449-0.008,0.635-0.03l-0.054,0.154
			c-0.237,0.022-0.488,0.031-0.726,0.031c-0.516,0-1.03-0.078-1.03-0.449c0-0.155,0.066-0.301,0.105-0.455l1.07-2.941h-1.282
			l0.054-0.154h1.281L125.933,65.339z"/>
		<path fill="#006C85" d="M127.479,67.74c0.357-0.88,1.361-1.235,2.775-1.243c1.241,0,2.074,0.301,2.074,0.988
			c0,0.185-0.053,0.332-0.105,0.486l-0.78,1.937c-0.026,0.093-0.053,0.155-0.053,0.271c0,0.216,0.199,0.255,0.409,0.255
			c0.158,0,0.317-0.008,0.462-0.031v0.155c-0.171,0.023-0.315,0.031-0.449,0.031c-0.436,0-0.687-0.124-0.687-0.41
			c0-0.209,0.079-0.301,0.133-0.432h-0.027c-0.633,0.601-1.466,0.902-2.774,0.902c-1.044,0-2.021-0.278-2.021-0.981
			c0-1.071,1.48-1.273,2.96-1.281c1.387-0.039,2.669,0.101,2.669-0.903c-0.013-0.64-0.766-0.833-1.81-0.833
			c-1.362-0.008-2.22,0.401-2.511,1.088H127.479z M131.799,68.319l-0.026-0.016c-0.357,0.224-1.599,0.224-2.364,0.233
			c-1.296,0.037-2.696,0.161-2.709,1.133c0,0.572,0.807,0.827,1.757,0.827c1.679,0,2.682-0.625,3.065-1.489L131.799,68.319z"/>
		<path fill="none" stroke="#006C85" stroke-width="0.26" d="M127.479,67.74c0.357-0.88,1.361-1.235,2.775-1.243
			c1.241,0,2.074,0.301,2.074,0.988c0,0.185-0.053,0.332-0.105,0.486l-0.78,1.937c-0.026,0.093-0.053,0.155-0.053,0.271
			c0,0.216,0.199,0.255,0.409,0.255c0.158,0,0.317-0.008,0.462-0.031v0.155c-0.171,0.023-0.315,0.031-0.449,0.031
			c-0.436,0-0.687-0.124-0.687-0.41c0-0.209,0.079-0.301,0.133-0.432h-0.027c-0.633,0.601-1.466,0.902-2.774,0.902
			c-1.044,0-2.021-0.278-2.021-0.981c0-1.071,1.48-1.273,2.96-1.281c1.387-0.039,2.669,0.101,2.669-0.903
			c-0.013-0.64-0.766-0.833-1.81-0.833c-1.362-0.008-2.22,0.401-2.511,1.088H127.479z M131.799,68.319l-0.026-0.016
			c-0.357,0.224-1.599,0.224-2.364,0.233c-1.296,0.037-2.696,0.161-2.709,1.133c0,0.572,0.807,0.827,1.757,0.827
			c1.679,0,2.682-0.625,3.065-1.489L131.799,68.319z"/>
		<path fill="#006C85" d="M134.692,65.339h0.279l-0.45,1.251h1.48l-0.053,0.154h-1.48l-1.057,2.895
			c-0.053,0.139-0.119,0.302-0.133,0.456c0,0.363,0.516,0.34,0.912,0.34c0.251,0,0.449-0.008,0.634-0.03l-0.054,0.154
			c-0.237,0.022-0.488,0.031-0.725,0.031c-0.517,0-1.031-0.078-1.031-0.449c0-0.155,0.066-0.301,0.106-0.455l1.07-2.941h-1.282
			l0.054-0.154h1.281L134.692,65.339z"/>
		<path fill="none" stroke="#006C85" stroke-width="0.26" d="M134.692,65.339h0.279l-0.45,1.251h1.48l-0.053,0.154h-1.48
			l-1.057,2.895c-0.053,0.139-0.119,0.302-0.133,0.456c0,0.363,0.516,0.34,0.912,0.34c0.251,0,0.449-0.008,0.634-0.03l-0.054,0.154
			c-0.237,0.022-0.488,0.031-0.725,0.031c-0.517,0-1.031-0.078-1.031-0.449c0-0.155,0.066-0.301,0.106-0.455l1.07-2.941h-1.282
			l0.054-0.154h1.281L134.692,65.339z"/>
		<path fill="#006C85" d="M135.737,70.557h-0.291l1.454-3.968h0.29L135.737,70.557z M137.428,65.046h0.29l-0.303,0.802h-0.291
			L137.428,65.046z"/>
		<path fill="none" stroke="#006C85" stroke-width="0.26" d="M135.737,70.557h-0.291l1.454-3.968h0.29L135.737,70.557z
			 M137.428,65.046h0.29l-0.303,0.802h-0.291L137.428,65.046z"/>
		<path fill="#006C85" d="M138.232,66.589h0.278l-0.172,0.494l-0.171,0.448l0.026,0.016c0.609-0.649,1.428-1.05,2.749-1.05
			c1.162,0,2.008,0.386,1.995,1.08c0,0.209-0.092,0.417-0.159,0.625l-0.845,2.354h-0.278l0.858-2.394
			c0.066-0.193,0.16-0.394,0.16-0.586c-0.014-0.617-0.741-0.926-1.732-0.926c-2.022,0-2.854,1.081-3.225,2.077l-0.673,1.829h-0.279
			L138.232,66.589z"/>
		<path fill="none" stroke="#006C85" stroke-width="0.26" d="M138.232,66.589h0.278l-0.172,0.494l-0.171,0.448l0.026,0.016
			c0.609-0.649,1.428-1.05,2.749-1.05c1.162,0,2.008,0.386,1.995,1.08c0,0.209-0.092,0.417-0.159,0.625l-0.845,2.354h-0.278
			l0.858-2.394c0.066-0.193,0.16-0.394,0.16-0.586c-0.014-0.617-0.741-0.926-1.732-0.926c-2.022,0-2.854,1.081-3.225,2.077
			l-0.673,1.829h-0.279L138.232,66.589z"/>
		<path fill="#006C85" d="M151.906,67.786c0.012-0.741-0.86-1.135-2.154-1.135c-2.178,0-3.277,1.274-3.277,2.431
			c0,0.849,0.806,1.412,2.339,1.412c1.229-0.023,2.18-0.386,2.683-1.211h0.262c-0.382,0.833-1.584,1.366-2.945,1.366
			c-1.664,0-2.602-0.617-2.602-1.567c0-1.297,1.255-2.585,3.54-2.585c1.493,0,2.418,0.454,2.418,1.289H151.906z"/>
		<path fill="none" stroke="#006C85" stroke-width="0.26" d="M151.906,67.786c0.012-0.741-0.86-1.135-2.154-1.135
			c-2.178,0-3.277,1.274-3.277,2.431c0,0.849,0.806,1.412,2.339,1.412c1.229-0.023,2.18-0.386,2.683-1.211h0.262
			c-0.382,0.833-1.584,1.366-2.945,1.366c-1.664,0-2.602-0.617-2.602-1.567c0-1.297,1.255-2.585,3.54-2.585
			c1.493,0,2.418,0.454,2.418,1.289H151.906z"/>
		<path fill="#006C85" d="M153.28,67.74c0.357-0.88,1.361-1.235,2.774-1.243c1.242,0,2.075,0.301,2.075,0.988
			c0,0.185-0.054,0.332-0.105,0.486l-0.78,1.937c-0.026,0.093-0.052,0.155-0.052,0.271c0,0.216,0.198,0.255,0.408,0.255
			c0.158,0,0.317-0.008,0.462-0.031v0.155c-0.171,0.023-0.316,0.031-0.449,0.031c-0.436,0-0.686-0.124-0.686-0.41
			c0-0.209,0.079-0.301,0.132-0.432h-0.026c-0.634,0.601-1.467,0.902-2.776,0.902c-1.043,0-2.02-0.278-2.02-0.981
			c0-1.071,1.479-1.273,2.961-1.281c1.386-0.039,2.668,0.101,2.668-0.903c-0.013-0.64-0.767-0.833-1.811-0.833
			c-1.361-0.008-2.22,0.401-2.51,1.088H153.28z M157.601,68.319l-0.026-0.016c-0.357,0.224-1.599,0.224-2.365,0.233
			c-1.295,0.037-2.696,0.161-2.709,1.133c0,0.572,0.807,0.827,1.757,0.827c1.679,0,2.683-0.625,3.066-1.489L157.601,68.319z"/>
		<path fill="none" stroke="#006C85" stroke-width="0.26" d="M153.28,67.74c0.357-0.88,1.361-1.235,2.774-1.243
			c1.242,0,2.075,0.301,2.075,0.988c0,0.185-0.054,0.332-0.105,0.486l-0.78,1.937c-0.026,0.093-0.052,0.155-0.052,0.271
			c0,0.216,0.198,0.255,0.408,0.255c0.158,0,0.317-0.008,0.462-0.031v0.155c-0.171,0.023-0.316,0.031-0.449,0.031
			c-0.436,0-0.686-0.124-0.686-0.41c0-0.209,0.079-0.301,0.132-0.432h-0.026c-0.634,0.601-1.467,0.902-2.776,0.902
			c-1.043,0-2.02-0.278-2.02-0.981c0-1.071,1.479-1.273,2.961-1.281c1.386-0.039,2.668,0.101,2.668-0.903
			c-0.013-0.64-0.767-0.833-1.811-0.833c-1.361-0.008-2.22,0.401-2.51,1.088H153.28z M157.601,68.319l-0.026-0.016
			c-0.357,0.224-1.599,0.224-2.365,0.233c-1.295,0.037-2.696,0.161-2.709,1.133c0,0.572,0.807,0.827,1.757,0.827
			c1.679,0,2.683-0.625,3.066-1.489L157.601,68.319z"/>
		<polygon fill="#006C85" points="158.618,70.557 160.6,65.046 160.891,65.046 158.909,70.557 		"/>
		<polygon fill="none" stroke="#006C85" stroke-width="0.26" points="158.618,70.557 160.6,65.046 160.891,65.046 158.909,70.557 		
			"/>
		<path fill="#006C85" d="M165.924,67.786c0.012-0.741-0.859-1.135-2.155-1.135c-2.179,0-3.276,1.274-3.276,2.431
			c0,0.849,0.806,1.412,2.339,1.412c1.229-0.023,2.18-0.386,2.682-1.211h0.264c-0.383,0.833-1.586,1.366-2.946,1.366
			c-1.665,0-2.602-0.617-2.602-1.567c0-1.297,1.254-2.585,3.539-2.585c1.493,0,2.42,0.454,2.42,1.289H165.924z"/>
		<path fill="none" stroke="#006C85" stroke-width="0.26" d="M165.924,67.786c0.012-0.741-0.859-1.135-2.155-1.135
			c-2.179,0-3.276,1.274-3.276,2.431c0,0.849,0.806,1.412,2.339,1.412c1.229-0.023,2.18-0.386,2.682-1.211h0.264
			c-0.383,0.833-1.586,1.366-2.946,1.366c-1.665,0-2.602-0.617-2.602-1.567c0-1.297,1.254-2.585,3.539-2.585
			c1.493,0,2.42,0.454,2.42,1.289H165.924z"/>
		<path fill="#006C85" d="M166.281,70.557h-0.291l1.454-3.968h0.29L166.281,70.557z M167.972,65.046h0.291l-0.303,0.802h-0.292
			L167.972,65.046z"/>
		<path fill="none" stroke="#006C85" stroke-width="0.26" d="M166.281,70.557h-0.291l1.454-3.968h0.29L166.281,70.557z
			 M167.972,65.046h0.291l-0.303,0.802h-0.292L167.972,65.046z"/>
		<path fill="#006C85" d="M172.305,70.557h-0.279l0.173-0.494l0.171-0.447l-0.026-0.015c-0.609,0.648-1.426,1.05-2.749,1.05
			c-1.162,0-2.007-0.387-1.995-1.081c0-0.209,0.092-0.416,0.159-0.626l0.845-2.354h0.278l-0.858,2.394
			c-0.066,0.193-0.159,0.394-0.159,0.586c0.013,0.617,0.74,0.926,1.731,0.926c2.022,0,2.866-1.081,3.224-2.077l0.661-1.829h0.291
			L172.305,70.557z"/>
		<path fill="none" stroke="#006C85" stroke-width="0.26" d="M172.305,70.557h-0.279l0.173-0.494l0.171-0.447l-0.026-0.015
			c-0.609,0.648-1.426,1.05-2.749,1.05c-1.162,0-2.007-0.387-1.995-1.081c0-0.209,0.092-0.416,0.159-0.626l0.845-2.354h0.278
			l-0.858,2.394c-0.066,0.193-0.159,0.394-0.159,0.586c0.013,0.617,0.74,0.926,1.731,0.926c2.022,0,2.866-1.081,3.224-2.077
			l0.661-1.829h0.291L172.305,70.557z"/>
		<path fill="#006C85" d="M174.643,66.589h0.292l-0.331,0.911h0.027c0.475-0.533,1.269-1.003,2.365-1.003
			c1.15,0,1.769,0.463,1.731,1.073l0.026,0.015c0.37-0.609,1.203-1.088,2.392-1.088c1.083,0,1.875,0.371,1.875,1.05
			c0,0.192-0.08,0.416-0.158,0.632l-0.899,2.377h-0.278l0.951-2.524c0.067-0.17,0.119-0.286,0.119-0.485
			c0-0.556-0.634-0.896-1.611-0.896c-1.586,0-2.326,0.958-2.591,1.651l-0.845,2.255h-0.278l0.965-2.655
			c0.04-0.124,0.066-0.248,0.066-0.379c0-0.524-0.568-0.872-1.466-0.872c-1.454,0-2.498,0.988-2.735,1.752l-0.806,2.154h-0.278
			L174.643,66.589z"/>
		<path fill="none" stroke="#006C85" stroke-width="0.26" d="M174.643,66.589h0.292l-0.331,0.911h0.027
			c0.475-0.533,1.269-1.003,2.365-1.003c1.15,0,1.769,0.463,1.731,1.073l0.026,0.015c0.37-0.609,1.203-1.088,2.392-1.088
			c1.083,0,1.875,0.371,1.875,1.05c0,0.192-0.08,0.416-0.158,0.632l-0.899,2.377h-0.278l0.951-2.524
			c0.067-0.17,0.119-0.286,0.119-0.485c0-0.556-0.634-0.896-1.611-0.896c-1.586,0-2.326,0.958-2.591,1.651l-0.845,2.255h-0.278
			l0.965-2.655c0.04-0.124,0.066-0.248,0.066-0.379c0-0.524-0.568-0.872-1.466-0.872c-1.454,0-2.498,0.988-2.735,1.752l-0.806,2.154
			h-0.278L174.643,66.589z"/>
		<path fill="#006C85" d="M163.129,73.532h0.186l-0.301,0.708h0.99l-0.035,0.088h-0.99l-0.707,1.639
			c-0.036,0.079-0.08,0.171-0.089,0.259c0,0.205,0.344,0.192,0.611,0.192c0.168,0,0.301-0.004,0.424-0.017l-0.036,0.087
			c-0.158,0.013-0.326,0.018-0.485,0.018c-0.345,0-0.69-0.044-0.69-0.254c0-0.087,0.045-0.171,0.071-0.258l0.716-1.666h-0.857
			l0.034-0.088h0.858L163.129,73.532z"/>
		<path fill="none" stroke="#006C85" stroke-width="0.173" d="M163.129,73.532h0.186l-0.301,0.708h0.99l-0.035,0.088h-0.99
			l-0.707,1.639c-0.036,0.079-0.08,0.171-0.089,0.259c0,0.205,0.344,0.192,0.611,0.192c0.168,0,0.301-0.004,0.424-0.017
			l-0.036,0.087c-0.158,0.013-0.326,0.018-0.485,0.018c-0.345,0-0.69-0.044-0.69-0.254c0-0.087,0.045-0.171,0.071-0.258l0.716-1.666
			h-0.857l0.034-0.088h0.858L163.129,73.532z"/>
		<path fill="#006C85" d="M164.492,74.892c0.239-0.498,0.91-0.699,1.856-0.704c0.832,0,1.39,0.171,1.39,0.56
			c0,0.104-0.036,0.188-0.072,0.275l-0.522,1.098c-0.017,0.053-0.036,0.087-0.036,0.153c0,0.124,0.134,0.145,0.275,0.145
			c0.106,0,0.213-0.005,0.309-0.018v0.088c-0.113,0.012-0.212,0.017-0.299,0.017c-0.293,0-0.461-0.071-0.461-0.232
			c0-0.118,0.054-0.17,0.088-0.245h-0.017c-0.426,0.341-0.981,0.512-1.857,0.512c-0.699,0-1.354-0.158-1.354-0.556
			c0-0.608,0.991-0.72,1.981-0.725c0.929-0.023,1.787,0.056,1.787-0.512c-0.009-0.364-0.513-0.473-1.213-0.473
			c-0.911-0.004-1.484,0.228-1.68,0.617H164.492z M167.384,75.22l-0.017-0.009c-0.239,0.127-1.071,0.127-1.583,0.132
			c-0.867,0.022-1.804,0.092-1.815,0.642c0,0.324,0.54,0.468,1.177,0.468c1.123,0,1.795-0.355,2.052-0.844L167.384,75.22z"/>
		<path fill="none" stroke="#006C85" stroke-width="0.173" d="M164.492,74.892c0.239-0.498,0.91-0.699,1.856-0.704
			c0.832,0,1.39,0.171,1.39,0.56c0,0.104-0.036,0.188-0.072,0.275l-0.522,1.098c-0.017,0.053-0.036,0.087-0.036,0.153
			c0,0.124,0.134,0.145,0.275,0.145c0.106,0,0.213-0.005,0.309-0.018v0.088c-0.113,0.012-0.212,0.017-0.299,0.017
			c-0.293,0-0.461-0.071-0.461-0.232c0-0.118,0.054-0.17,0.088-0.245h-0.017c-0.426,0.341-0.981,0.512-1.857,0.512
			c-0.699,0-1.354-0.158-1.354-0.556c0-0.608,0.991-0.72,1.981-0.725c0.929-0.023,1.787,0.056,1.787-0.512
			c-0.009-0.364-0.513-0.473-1.213-0.473c-0.911-0.004-1.484,0.228-1.68,0.617H164.492z M167.384,75.22l-0.017-0.009
			c-0.239,0.127-1.071,0.127-1.583,0.132c-0.867,0.022-1.804,0.092-1.815,0.642c0,0.324,0.54,0.468,1.177,0.468
			c1.123,0,1.795-0.355,2.052-0.844L167.384,75.22z"/>
		<path fill="#006C85" d="M169.118,74.787l0.017,0.01c0.354-0.346,1.017-0.608,1.885-0.608c1.061,0,1.582,0.398,1.582,0.866
			c0,0.699-0.769,1.487-2.361,1.487c-0.885,0-1.496-0.29-1.557-0.701h-0.018l-0.283,0.647h-0.185l1.343-3.123h0.187L169.118,74.787z
			 M171.02,74.275c-1.406,0-2.203,0.753-2.22,1.347c-0.017,0.495,0.513,0.832,1.442,0.832c1.476,0,2.184-0.775,2.184-1.399
			C172.426,74.608,171.93,74.275,171.02,74.275"/>
		<path fill="none" stroke="#006C85" stroke-width="0.173" d="M169.118,74.787l0.017,0.01c0.354-0.346,1.017-0.608,1.885-0.608
			c1.061,0,1.582,0.398,1.582,0.866c0,0.699-0.769,1.487-2.361,1.487c-0.885,0-1.496-0.29-1.557-0.701h-0.018l-0.283,0.647h-0.185
			l1.343-3.123h0.187L169.118,74.787z M171.02,74.275c-1.406,0-2.203,0.753-2.22,1.347c-0.017,0.495,0.513,0.832,1.442,0.832
			c1.476,0,2.184-0.775,2.184-1.399C172.426,74.608,171.93,74.275,171.02,74.275z"/>
		<polygon fill="#006C85" points="172.612,76.488 173.938,73.366 174.132,73.366 172.806,76.488 		"/>
		<polygon fill="none" stroke="#006C85" stroke-width="0.173" points="172.612,76.488 173.938,73.366 174.132,73.366 
			172.806,76.488 		"/>
		<path fill="#006C85" d="M173.919,75.381c-0.017,0.066-0.025,0.141-0.025,0.241c0,0.696,0.936,0.831,1.504,0.831
			c0.954,0,1.609-0.223,1.874-0.704h0.187c-0.267,0.507-0.957,0.793-2.054,0.793c-1.141,0-1.689-0.408-1.689-0.924
			c0-0.699,0.787-1.43,2.371-1.43c1.088,0,1.644,0.379,1.644,0.874c0,0.109-0.017,0.197-0.036,0.319H173.919z M177.511,75.294
			c0.033-0.083,0.044-0.145,0.044-0.232c0-0.425-0.477-0.788-1.468-0.788c-1.211,0-1.911,0.465-2.131,1.02H177.511z"/>
		<path fill="none" stroke="#006C85" stroke-width="0.173" d="M173.919,75.381c-0.017,0.066-0.025,0.141-0.025,0.241
			c0,0.696,0.936,0.831,1.504,0.831c0.954,0,1.609-0.223,1.874-0.704h0.187c-0.267,0.507-0.957,0.793-2.054,0.793
			c-1.141,0-1.689-0.408-1.689-0.924c0-0.699,0.787-1.43,2.371-1.43c1.088,0,1.644,0.379,1.644,0.874
			c0,0.109-0.017,0.197-0.036,0.319H173.919z M177.511,75.294c0.033-0.083,0.044-0.145,0.044-0.232c0-0.425-0.477-0.788-1.468-0.788
			c-1.211,0-1.911,0.465-2.131,1.02H177.511z"/>
		<path fill="#006C85" d="M179.218,73.532h0.185l-0.3,0.708h0.99l-0.035,0.088h-0.991l-0.707,1.639
			c-0.035,0.079-0.079,0.171-0.088,0.259c0,0.205,0.344,0.192,0.61,0.192c0.168,0,0.301-0.004,0.426-0.017l-0.037,0.087
			c-0.159,0.013-0.327,0.018-0.485,0.018c-0.347,0-0.691-0.044-0.691-0.254c0-0.087,0.044-0.171,0.07-0.258l0.717-1.666h-0.858
			l0.036-0.088h0.858L179.218,73.532z"/>
		<path fill="none" stroke="#006C85" stroke-width="0.173" d="M179.218,73.532h0.185l-0.3,0.708h0.99l-0.035,0.088h-0.991
			l-0.707,1.639c-0.035,0.079-0.079,0.171-0.088,0.259c0,0.205,0.344,0.192,0.61,0.192c0.168,0,0.301-0.004,0.426-0.017
			l-0.037,0.087c-0.159,0.013-0.327,0.018-0.485,0.018c-0.347,0-0.691-0.044-0.691-0.254c0-0.087,0.044-0.171,0.07-0.258
			l0.717-1.666h-0.858l0.036-0.088h0.858L179.218,73.532z"/>
		<path fill="#006C85" d="M183.172,74.914c0.114-0.449-0.443-0.638-1.327-0.638c-0.61,0-1.37,0.132-1.37,0.511
			c0,0.306,0.53,0.39,1.052,0.491c0.619,0.113,1.459,0.197,1.468,0.62c0,0.473-0.823,0.643-1.672,0.643
			c-0.903,0-1.654-0.154-1.654-0.647c0-0.058,0.019-0.11,0.019-0.166h0.184c-0.149,0.533,0.452,0.726,1.451,0.726
			c0.726,0,1.495-0.145,1.495-0.556c0-0.32-0.575-0.398-1.097-0.497c-0.618-0.115-1.423-0.197-1.423-0.613
			c0-0.416,0.77-0.599,1.547-0.599c0.938,0,1.619,0.189,1.504,0.726H183.172z"/>
		<path fill="none" stroke="#006C85" stroke-width="0.173" d="M183.172,74.914c0.114-0.449-0.443-0.638-1.327-0.638
			c-0.61,0-1.37,0.132-1.37,0.511c0,0.306,0.53,0.39,1.052,0.491c0.619,0.113,1.459,0.197,1.468,0.62
			c0,0.473-0.823,0.643-1.672,0.643c-0.903,0-1.654-0.154-1.654-0.647c0-0.058,0.019-0.11,0.019-0.166h0.184
			c-0.149,0.533,0.452,0.726,1.451,0.726c0.726,0,1.495-0.145,1.495-0.556c0-0.32-0.575-0.398-1.097-0.497
			c-0.618-0.115-1.423-0.197-1.423-0.613c0-0.416,0.77-0.599,1.547-0.599c0.938,0,1.619,0.189,1.504,0.726H183.172z"/>
		<path fill="#006C85" d="M188.507,53.287c0.905,0,1.629,0.727,1.629,1.635c0,0.921-0.724,1.641-1.636,1.641
			c-0.907,0-1.644-0.72-1.644-1.641c0-0.908,0.737-1.635,1.644-1.635H188.507z M188.5,53.542c-0.73,0-1.326,0.617-1.326,1.381
			c0,0.777,0.596,1.387,1.334,1.387c0.736,0.007,1.326-0.61,1.326-1.379c0-0.771-0.59-1.388-1.326-1.388H188.5z M188.19,55.875
			h-0.294v-1.825c0.154-0.02,0.301-0.042,0.522-0.042c0.28,0,0.464,0.059,0.574,0.138c0.111,0.079,0.171,0.203,0.171,0.377
			c0,0.24-0.162,0.386-0.362,0.445v0.013c0.163,0.029,0.273,0.176,0.31,0.443c0.044,0.284,0.087,0.393,0.117,0.452h-0.309
			c-0.044-0.059-0.089-0.227-0.126-0.467c-0.045-0.231-0.162-0.319-0.398-0.319h-0.206V55.875z M188.19,54.864h0.215
			c0.242,0,0.448-0.088,0.448-0.313c0-0.159-0.117-0.32-0.448-0.32c-0.098,0-0.163,0.009-0.215,0.016V54.864z"/>
		<path fill="#006C85" d="M52.264,92.758l1.733-8.061h2.424c1.098,0,2.197,0.401,1.789,2.299c-0.396,1.831-1.925,2.211-2.763,2.211
			h-1.371l-0.77,3.551H52.264z M54.268,88.314h1.144c0.43,0,1.472-0.112,1.744-1.373c0.26-1.228-0.646-1.351-0.871-1.351h-1.439
			L54.268,88.314z"/>
		<path fill="#006C85" d="M58.751,90.022c0.362-1.652,0.838-3.015,2.82-3.015c1.982,0,1.892,1.362,1.529,3.015
			c-0.532,2.49-1.574,2.847-2.786,2.847C59.102,92.869,58.218,92.512,58.751,90.022 M62.216,89.631
			c0.328-1.541-0.09-1.876-0.805-1.876c-0.713,0-1.268,0.335-1.597,1.876c-0.396,1.831-0.305,2.49,0.658,2.49
			C61.435,92.122,61.82,91.463,62.216,89.631"/>
		<polygon fill="#006C85" points="64.48,87.119 65.51,87.119 65.499,91.977 65.522,91.977 67.832,87.119 69.146,87.119 
			69.271,91.977 69.293,91.977 71.468,87.119 72.453,87.119 69.712,92.758 68.466,92.758 68.274,87.956 68.251,87.956 
			65.941,92.758 64.695,92.758 		"/>
		<path fill="#006C85" d="M73.606,90.234c-0.339,1.574,0.022,1.887,0.747,1.887c0.635,0,1.076-0.502,1.235-1.072h1.019
			c-0.284,1.251-1.189,1.819-2.39,1.819c-1.212,0-2.095-0.357-1.562-2.846c0.363-1.653,0.838-3.015,2.82-3.015
			c1.631,0,1.857,0.882,1.45,2.746l-0.102,0.48H73.606z M75.984,89.542c0.352-1.641-0.068-1.842-0.748-1.842
			c-0.589,0-1.132,0.279-1.483,1.842H75.984z"/>
		<path fill="#006C85" d="M79.81,87.968h0.022c0.577-0.86,1.065-0.96,1.971-0.96l-0.204,0.949c-0.068-0.011-0.159-0.022-0.238-0.034
			c-0.079-0.011-0.158-0.022-0.249-0.022c-1.03,0-1.449,0.77-1.619,1.529l-0.713,3.327H77.85l1.212-5.639h0.929L79.81,87.968z"/>
		<polygon fill="#006C85" points="81.768,92.758 80.703,92.758 80.953,91.596 82.017,91.596 		"/>
		<polygon fill="#006C85" points="85.923,92.758 87.655,84.696 91.868,84.696 91.676,85.589 88.505,85.589 87.949,88.179 
			90.895,88.179 90.702,89.074 87.758,89.074 87.157,91.865 90.396,91.865 90.204,92.758 		"/>
		<polygon fill="#006C85" points="92.037,87.119 93.079,87.119 93.327,91.898 93.351,91.898 95.763,87.119 96.737,87.119 
			93.736,92.758 92.524,92.758 		"/>
		<path fill="#006C85" d="M97.415,92.757h-0.929l1.212-5.638h0.928L97.415,92.757z M98.162,84.696h1.043L99,85.678h-1.041
			L98.162,84.696z"/>
		<path fill="#006C85" d="M103.778,84.696h0.929l-1.734,8.062h-0.928l0.147-0.67h-0.022c-0.431,0.524-0.883,0.781-1.483,0.781
			c-0.918,0-1.767-0.357-1.235-2.835c0.306-1.408,0.691-3.027,2.537-3.027c0.544,0,0.895,0.235,1.11,0.681h0.034L103.778,84.696z
			 M102.046,87.756c-0.996,0-1.302,0.781-1.62,2.289c-0.191,0.849-0.453,2.077,0.714,2.077c1.042,0,1.313-1.273,1.562-2.412
			C102.861,88.961,103.076,87.756,102.046,87.756"/>
		<path fill="#006C85" d="M106.133,90.234c-0.339,1.574,0.022,1.887,0.747,1.887c0.635,0,1.076-0.502,1.235-1.072h1.019
			c-0.284,1.251-1.19,1.819-2.39,1.819c-1.212,0-2.095-0.357-1.562-2.846c0.363-1.653,0.838-3.015,2.82-3.015
			c1.631,0,1.857,0.882,1.45,2.746l-0.102,0.48H106.133z M108.511,89.542c0.351-1.641-0.068-1.842-0.748-1.842
			c-0.589,0-1.132,0.279-1.483,1.842H108.511z"/>
		<path fill="#006C85" d="M113.447,92.758l0.838-3.908c0.137-0.603,0.023-1.095-0.77-1.095c-1.019,0-1.359,0.894-1.518,1.664
			l-0.725,3.339h-0.929l0.964-4.466c0.079-0.391,0.147-0.781,0.192-1.173h0.985l-0.148,0.726h0.047
			c0.497-0.636,0.962-0.837,1.698-0.837c1.223,0,1.382,0.725,1.133,1.842l-0.838,3.908H113.447z"/>
		<path fill="#006C85" d="M119.821,88.928c0.226-0.927-0.193-1.173-0.543-1.173c-0.714,0-1.269,0.336-1.597,1.876
			c-0.397,1.831-0.306,2.49,0.657,2.49c0.215,0,0.906-0.224,1.098-1.24h0.974c-0.305,1.585-1.597,1.987-2.23,1.987
			c-1.212,0-2.095-0.357-1.563-2.846c0.362-1.653,0.838-3.015,2.82-3.015c1.144,0,1.676,0.658,1.347,1.92H119.821z"/>
		<path fill="#006C85" d="M123.114,90.234c-0.338,1.574,0.023,1.887,0.749,1.887c0.634,0,1.075-0.502,1.234-1.072h1.019
			c-0.283,1.251-1.19,1.819-2.39,1.819c-1.212,0-2.095-0.357-1.562-2.846c0.363-1.653,0.838-3.015,2.82-3.015
			c1.631,0,1.857,0.882,1.45,2.746l-0.102,0.48H123.114z M125.494,89.542c0.351-1.641-0.068-1.842-0.748-1.842
			c-0.589,0-1.132,0.279-1.483,1.842H125.494z"/>
		<polygon fill="#006C85" points="128.3,92.758 127.236,92.758 127.485,91.596 128.55,91.596 		"/>
		<path fill="#006C85" d="M136.861,86.918c0.113-0.458,0.181-0.915,0.011-1.172c-0.158-0.258-0.623-0.347-0.838-0.347
			c-0.861,0-1.314,0.514-1.37,0.625c-0.057,0.089-0.295,0.291-0.601,1.675l-0.464,2.155c-0.419,1.976,0.181,2.211,0.986,2.211
			c0.317,0,1.301-0.112,1.654-1.686h1.075c-0.498,2.546-2.321,2.546-2.854,2.546c-1.019,0-2.57-0.067-1.891-3.194l0.486-2.278
			c0.487-2.279,1.655-2.926,3.263-2.926c1.619,0,2.061,0.827,1.619,2.39H136.861z"/>
		<path fill="#006C85" d="M138.626,90.022c0.362-1.652,0.837-3.015,2.82-3.015c1.982,0,1.892,1.362,1.529,3.015
			c-0.533,2.49-1.574,2.847-2.786,2.847C138.976,92.869,138.093,92.512,138.626,90.022 M142.091,89.631
			c0.328-1.541-0.09-1.876-0.805-1.876c-0.713,0-1.268,0.335-1.597,1.876c-0.396,1.831-0.306,2.49,0.658,2.49
			C141.31,92.122,141.695,91.463,142.091,89.631"/>
		<path fill="#006C85" d="M146.959,92.758l0.838-3.908c0.136-0.603,0.022-1.095-0.77-1.095c-1.019,0-1.359,0.894-1.518,1.664
			l-0.725,3.339h-0.929l0.963-4.466c0.079-0.391,0.147-0.781,0.192-1.173h0.986l-0.148,0.726h0.046
			c0.498-0.636,0.964-0.837,1.699-0.837c1.223,0,1.382,0.725,1.133,1.842l-0.838,3.908H146.959z"/>
		<path fill="#006C85" d="M150.898,87.119l0.238-1.095c0.249-1.139,1.111-1.361,1.937-1.361c0.192,0,0.305,0.011,0.43,0.033
			l-0.136,0.659c-0.974-0.068-1.234,0.346-1.324,0.803l-0.216,0.961h1.156l-0.148,0.691h-1.155l-1.065,4.947h-0.928l1.064-4.947
			h-0.883l0.147-0.691H150.898z M153.493,92.757h-0.929l1.212-5.638h0.928L153.493,92.757z M154.239,84.696h1.042l-0.204,0.982
			h-1.041L154.239,84.696z"/>
		<path fill="#006C85" d="M159.934,84.696h0.929l-1.733,8.062h-0.929l0.148-0.67h-0.023c-0.43,0.524-0.883,0.781-1.483,0.781
			c-0.918,0-1.767-0.357-1.235-2.835c0.306-1.408,0.691-3.027,2.537-3.027c0.544,0,0.895,0.235,1.109,0.681h0.035L159.934,84.696z
			 M158.202,87.756c-0.996,0-1.302,0.781-1.62,2.289c-0.193,0.849-0.453,2.077,0.714,2.077c1.041,0,1.314-1.273,1.563-2.412
			C159.017,88.961,159.232,87.756,158.202,87.756"/>
		<path fill="#006C85" d="M162.288,90.234c-0.338,1.574,0.023,1.887,0.748,1.887c0.635,0,1.076-0.502,1.235-1.072h1.019
			c-0.283,1.251-1.19,1.819-2.39,1.819c-1.212,0-2.095-0.357-1.562-2.846c0.363-1.653,0.838-3.015,2.82-3.015
			c1.631,0,1.857,0.882,1.45,2.746l-0.102,0.48H162.288z M164.667,89.542c0.351-1.641-0.068-1.842-0.748-1.842
			c-0.589,0-1.132,0.279-1.483,1.842H164.667z"/>
		<path fill="#006C85" d="M169.603,92.758l0.838-3.908c0.136-0.603,0.023-1.095-0.769-1.095c-1.02,0-1.36,0.894-1.519,1.664
			l-0.724,3.339h-0.929l0.963-4.466c0.08-0.391,0.148-0.781,0.193-1.173h0.985l-0.147,0.726h0.046
			c0.497-0.636,0.963-0.837,1.698-0.837c1.223,0,1.382,0.725,1.133,1.842l-0.838,3.908H169.603z"/>
		<path fill="#006C85" d="M175.977,88.928c0.227-0.927-0.193-1.173-0.543-1.173c-0.713,0-1.269,0.336-1.598,1.876
			c-0.395,1.831-0.305,2.49,0.658,2.49c0.215,0,0.906-0.224,1.098-1.24h0.975c-0.307,1.585-1.598,1.987-2.232,1.987
			c-1.212,0-2.094-0.357-1.562-2.846c0.363-1.653,0.838-3.015,2.82-3.015c1.144,0,1.676,0.658,1.348,1.92H175.977z"/>
		<path fill="#006C85" d="M179.27,90.234c-0.338,1.574,0.023,1.887,0.748,1.887c0.635,0,1.076-0.502,1.235-1.072h1.019
			c-0.283,1.251-1.19,1.819-2.39,1.819c-1.212,0-2.095-0.357-1.562-2.846c0.363-1.653,0.838-3.015,2.82-3.015
			c1.631,0,1.857,0.882,1.45,2.746l-0.102,0.48H179.27z M181.649,89.542c0.352-1.641-0.068-1.842-0.748-1.842
			c-0.589,0-1.132,0.279-1.483,1.842H181.649z"/>
		<polygon fill="#006C85" points="184.456,92.758 183.392,92.758 183.641,91.596 184.706,91.596 		"/>
	</g>
</g>
</svg>
