<?xml version="1.0" encoding="utf-8"?>
<!-- Generator: Adobe Illustrator 17.0.0, SVG Export Plug-In . SVG Version: 6.00 Build 0)  -->
<!DOCTYPE svg PUBLIC "-//W3C//DTD SVG 1.1//EN" "http://www.w3.org/Graphics/SVG/1.1/DTD/svg11.dtd">
<svg version="1.1" id="Layer_1" xmlns="http://www.w3.org/2000/svg" xmlns:xlink="http://www.w3.org/1999/xlink" x="0px" y="0px"
	 width="710.503px" height="50.84px" viewBox="0 0 710.503 50.84" enable-background="new 0 0 710.503 50.84" xml:space="preserve">
<g>
	<g>
		<path d="M0,1.113h4.249v14.924h8.255v3.848H0V1.113z"/>
		<path d="M14.582,1.113h4.249v18.772h-4.249V1.113z"/>
		<path d="M22.351,1.113h8.153c3.278,0,5.746,1.872,5.746,6.162c0,3.77-1.841,5.954-6.231,5.954H26.6v6.656h-4.249V1.113z
			 M26.6,9.589h2.609c1.599,0,2.671-0.52,2.671-2.392c0-1.612-0.829-2.444-2.347-2.444H26.6V9.589z"/>
		<path d="M38.551,1.113H42.8v18.772h-4.249V1.113z"/>
		<path d="M50.547,4.961h-5.625V1.113h15.499v3.848h-5.625v14.925h-4.249V4.961z"/>
		<path d="M70.673,0.619c6.11,0,8.681,4.212,8.681,9.88c0,5.668-2.57,9.88-8.681,9.88s-8.68-4.212-8.68-9.88
			C61.993,4.831,64.563,0.619,70.673,0.619z M70.673,16.532c3.237,0,4.311-2.73,4.311-6.032s-1.073-6.032-4.311-6.032
			s-4.31,2.73-4.31,6.032S67.436,16.532,70.673,16.532z"/>
		<path d="M82.442,1.113h8.923c3.521,0,5.523,1.638,5.523,4.914c0,2.392-1.518,4.056-3.702,4.55v0.052
			c1.233,0.104,2.387,0.468,2.873,1.638c0.708,1.716,0.789,5.668,1.396,7.618h-4.512c-0.466-1.82-0.404-4.524-0.81-5.824
			c-0.263-0.858-0.91-1.3-2.61-1.3h-2.832v7.124h-4.249V1.113z M86.691,9.121h3.379c1.942,0,2.569-0.78,2.569-2.21
			c0-1.82-1.112-2.158-3.156-2.158h-2.792V9.121z"/>
		<path d="M103.117,0c2.478,0,4.482,2.576,4.482,5.758c0,3.182-2.005,5.758-4.482,5.758c-2.477,0-4.481-2.576-4.481-5.758
			C98.636,2.576,100.641,0,103.117,0z M103.117,9.667c1.687,0,2.973-1.743,2.973-3.909c0-2.167-1.286-3.909-2.973-3.909
			s-2.972,1.742-2.972,3.909C100.146,7.924,101.431,9.667,103.117,9.667z M101.349,2.682h1.757c1.286,0,2.018,0.424,2.018,1.849
			c0,1.121-0.543,1.545-1.015,1.606l0.943,2.394h-1.168l-0.908-2.318h-0.542V8.53h-1.085V2.682z M102.434,5.091h0.837
			c0.46,0,0.696-0.182,0.696-0.651c0-0.455-0.271-0.636-0.778-0.636h-0.755V5.091z"/>
		<path d="M117.179,6.833h3.764v4.004h-3.764V6.833z M117.179,15.882h3.764v4.004h-3.764V15.882z"/>
		<path d="M132.187,1.113h8.153c3.278,0,5.746,1.872,5.746,6.162c0,3.77-1.841,5.954-6.231,5.954h-3.419v6.656h-4.249V1.113z
			 M136.436,9.589h2.609c1.599,0,2.671-0.52,2.671-2.392c0-1.612-0.829-2.444-2.347-2.444h-2.934V9.589z"/>
		<path d="M148.407,9.511c0-0.832-0.021-1.794-0.081-2.678h3.764c0.061,0.937,0.081,1.872,0.081,2.809h0.04
			c0.951-2.496,2.004-2.99,4.553-2.99v4.264c-0.283-0.052-0.587-0.104-1.032-0.104c-2.084,0-3.439,1.508-3.439,4.134v4.94h-3.885
			V9.511z"/>
		<path d="M165.521,6.339c5.727,0,7.365,3.926,7.365,7.02c0,3.094-1.639,7.021-7.365,7.021c-5.726,0-7.364-3.926-7.364-7.021
			C158.156,10.266,159.795,6.339,165.521,6.339z M165.521,17.52c1.821,0,3.237-1.482,3.237-4.16c0-2.678-1.416-4.16-3.237-4.16
			c-1.82,0-3.237,1.482-3.237,4.16C162.283,16.038,163.7,17.52,165.521,17.52z"/>
		<path d="M183.664,19.886h-4.795l-4.795-13.053h4.37l3.096,10.192l3.156-10.192h3.764L183.664,19.886z"/>
		<path d="M193.655,14.582c0.081,2.028,1.012,3.094,2.65,3.094c1.699,0,2.003-0.884,2.205-1.768h4.128
			c-0.81,4.134-3.581,4.472-6.394,4.472c-3.521,0-6.596-1.664-6.596-6.813c0-5.044,3.055-7.228,6.535-7.228
			c4.957,0,6.656,3.146,6.677,8.242H193.655z M198.733,11.877c-0.04-2.132-1.133-2.834-2.509-2.834
			c-1.801,0-2.326,1.482-2.509,2.834H198.733z"/>
		<path d="M205.385,9.511c0-0.832-0.02-1.794-0.081-2.678h3.764c0.04,0.78,0.081,1.561,0.081,2.34h0.04
			c1.012-1.742,2.529-2.834,4.31-2.834c3.703,0,5.1,2.704,5.1,6.11v7.437h-3.885v-6.682c0-2.08-0.709-3.536-2.469-3.536
			c-1.599,0-2.975,1.586-2.975,4.472v5.746h-3.885V9.511z"/>
		<path d="M232.57,15.804c0,0.702,0.182,1.17,0.485,1.482s0.769,0.39,1.274,0.39c0.81,0,2.023-0.156,2.023-1.43
			c0-0.91-0.91-1.222-1.699-1.378l-2.691-0.546c-1.942-0.39-3.075-1.586-3.075-3.614c0-3.718,3.318-4.368,5.544-4.368
			c4.41,0,5.604,1.638,5.686,4.368h-3.885c-0.062-0.702-0.264-1.118-0.506-1.326c-0.283-0.234-0.891-0.338-1.376-0.338
			c-0.628,0-1.457,0.338-1.457,1.144c0,0.936,0.951,1.17,1.78,1.352l2.631,0.546c2.226,0.468,3.055,1.742,3.055,3.9
			c0,3.979-3.925,4.395-6.171,4.395c-5.078,0-5.483-2.652-5.625-4.576H232.57z"/>
		<path d="M242.561,10.682c0.202-3.406,3.177-4.342,5.848-4.342c3.966,0,6.231,1.222,6.231,5.642v4.992
			c0,0.962,0.021,1.95,0.081,2.912h-3.764c-0.04-0.442-0.08-1.404-0.08-2.106h-0.041c-0.931,1.976-2.671,2.6-4.391,2.6
			c-2.894,0-4.593-1.508-4.593-4.238c0-3.094,2.267-4.498,6.07-4.498h2.832c0-2.08-0.748-2.6-2.286-2.6
			c-1.437,0-1.882,0.728-1.902,1.638H242.561z M249.137,14.191c-2.61,0-3.156,0.884-3.156,1.976c0,0.806,0.586,1.352,1.679,1.352
			c2.529,0,3.096-1.976,3.096-3.328H249.137z"/>
		<path d="M259.005,10.005h-2.347V6.833h2.347c0-5.044,1.801-5.876,5.523-5.876c0.425,0,1.274,0.078,1.7,0.156v2.964
			c-0.304-0.052-0.668-0.104-1.053-0.104c-1.497,0-2.226,0.442-2.226,2.86h3.056v3.172h-3.116v9.88h-3.885V10.005z"/>
		<path d="M271.587,14.582c0.081,2.028,1.012,3.094,2.65,3.094c1.699,0,2.003-0.884,2.205-1.768h4.128
			c-0.81,4.134-3.581,4.472-6.394,4.472c-3.521,0-6.596-1.664-6.596-6.813c0-5.044,3.055-7.228,6.535-7.228
			c4.957,0,6.656,3.146,6.677,8.242H271.587z M276.665,11.877c-0.04-2.132-1.133-2.834-2.509-2.834
			c-1.801,0-2.326,1.482-2.509,2.834H276.665z"/>
		<path d="M282.002,6.833h2.488V4.181l3.885-1.82v4.472h3.277v3.172h-3.277v4.082c0,1.82,0.182,2.782,1.74,2.782
			c0.364,0,0.931-0.052,1.537-0.156v3.172c-0.364,0.078-1.396,0.312-2.609,0.312c-2.975,0-4.553-1.482-4.553-4.654v-5.538h-2.488
			V6.833z"/>
		<path d="M297.699,19.886l-5.22-13.053h4.532l2.913,8.971l3.116-8.971h3.824l-7.244,18.045h-4.127L297.699,19.886z"/>
		<path d="M316.285,8.991c0-0.806-0.02-1.456-0.081-2.158h3.764c0.061,0.729,0.081,1.43,0.081,2.158
			c0.891-1.352,2.023-2.652,4.553-2.652c3.217,0,5.645,2.626,5.645,7.098c0,4.316-2.347,6.942-5.746,6.942
			c-2.246,0-3.541-1.17-4.33-2.21v6.708h-3.885V8.991z M323.185,9.355c-1.76,0-3.015,1.586-3.015,3.9
			c0,2.522,1.255,4.108,3.015,4.108c1.72,0,2.935-1.638,2.935-3.926C326.119,11.332,325.188,9.355,323.185,9.355z"/>
		<path d="M332.77,9.511c0-0.832-0.02-1.794-0.081-2.678h3.764c0.061,0.937,0.081,1.872,0.081,2.809h0.04
			c0.951-2.496,2.003-2.99,4.553-2.99v4.264c-0.283-0.052-0.587-0.104-1.032-0.104c-2.084,0-3.439,1.508-3.439,4.134v4.94h-3.885
			V9.511z"/>
		<path d="M349.884,6.339c5.727,0,7.365,3.926,7.365,7.02c0,3.094-1.639,7.021-7.365,7.021c-5.726,0-7.364-3.926-7.364-7.021
			C342.52,10.266,344.158,6.339,349.884,6.339z M349.884,17.52c1.821,0,3.237-1.482,3.237-4.16c0-2.678-1.416-4.16-3.237-4.16
			c-1.82,0-3.237,1.482-3.237,4.16C346.646,16.038,348.063,17.52,349.884,17.52z"/>
		<path d="M360.945,10.005h-2.347V6.833h2.347c0-5.044,1.801-5.876,5.523-5.876c0.425,0,1.274,0.078,1.699,0.156v2.964
			c-0.303-0.052-0.667-0.104-1.052-0.104c-1.497,0-2.226,0.442-2.226,2.86h3.056v3.172h-3.116v9.88h-3.885V10.005z M370.253,1.113
			h4.248v3.64h-4.248V1.113z M370.435,6.833h3.885v13.053h-3.885V6.833z"/>
		<path d="M377.915,1.113h3.885v18.772h-3.885V1.113z"/>
		<path d="M388.494,14.582c0.081,2.028,1.012,3.094,2.65,3.094c1.699,0,2.003-0.884,2.205-1.768h4.128
			c-0.81,4.134-3.581,4.472-6.394,4.472c-3.521,0-6.596-1.664-6.596-6.813c0-5.044,3.055-7.228,6.535-7.228
			c4.957,0,6.656,3.146,6.677,8.242H388.494z M393.572,11.877c-0.04-2.132-1.133-2.834-2.509-2.834
			c-1.801,0-2.326,1.482-2.509,2.834H393.572z"/>
		<path d="M407.425,10.682c0.202-3.406,3.177-4.342,5.848-4.342c3.966,0,6.231,1.222,6.231,5.642v4.992
			c0,0.962,0.021,1.95,0.081,2.912h-3.764c-0.04-0.442-0.08-1.404-0.08-2.106H415.7c-0.931,1.976-2.671,2.6-4.391,2.6
			c-2.894,0-4.593-1.508-4.593-4.238c0-3.094,2.266-4.498,6.07-4.498h2.832c0-2.08-0.748-2.6-2.286-2.6
			c-1.437,0-1.882,0.728-1.902,1.638H407.425z M414.001,14.191c-2.61,0-3.156,0.884-3.156,1.976c0,0.806,0.586,1.352,1.679,1.352
			c2.529,0,3.096-1.976,3.096-3.328H414.001z"/>
		<path d="M435.16,14.998c-0.364,4.238-3.642,5.382-6.637,5.382c-3.015,0-6.575-1.768-6.575-6.968c0-5.226,3.317-7.072,6.839-7.072
			c2.771,0,5.888,1.092,6.252,5.122h-4.007c-0.223-1.612-0.991-2.262-2.245-2.262c-1.74,0-2.712,1.742-2.712,4.134
			c0,2.288,0.81,4.186,2.712,4.186c1.274,0,2.205-0.832,2.245-2.522H435.16z"/>
		<path d="M437.684,9.511c0-0.832-0.02-1.794-0.081-2.678h3.764c0.061,0.937,0.081,1.872,0.081,2.809h0.04
			c0.951-2.496,2.003-2.99,4.553-2.99v4.264c-0.283-0.052-0.587-0.104-1.032-0.104c-2.084,0-3.439,1.508-3.439,4.134v4.94h-3.885
			V9.511z"/>
		<path d="M454.797,6.339c5.727,0,7.365,3.926,7.365,7.02c0,3.094-1.639,7.021-7.365,7.021c-5.726,0-7.364-3.926-7.364-7.021
			C447.433,10.266,449.071,6.339,454.797,6.339z M454.797,17.52c1.821,0,3.237-1.482,3.237-4.16c0-2.678-1.416-4.16-3.237-4.16
			c-1.82,0-3.237,1.482-3.237,4.16C451.56,16.038,452.977,17.52,454.797,17.52z"/>
		<path d="M467.902,15.804c0,0.702,0.183,1.17,0.486,1.482s0.769,0.39,1.274,0.39c0.81,0,2.023-0.156,2.023-1.43
			c0-0.91-0.91-1.222-1.699-1.378l-2.691-0.546c-1.942-0.39-3.075-1.586-3.075-3.614c0-3.718,3.318-4.368,5.544-4.368
			c4.41,0,5.604,1.638,5.686,4.368h-3.885c-0.062-0.702-0.264-1.118-0.506-1.326c-0.283-0.234-0.891-0.338-1.376-0.338
			c-0.628,0-1.457,0.338-1.457,1.144c0,0.936,0.951,1.17,1.78,1.352l2.631,0.546c2.226,0.468,3.055,1.742,3.055,3.9
			c0,3.979-3.925,4.395-6.171,4.395c-5.078,0-5.483-2.652-5.625-4.576H467.902z"/>
		<path d="M481.395,15.804c0,0.702,0.182,1.17,0.485,1.482s0.769,0.39,1.274,0.39c0.81,0,2.023-0.156,2.023-1.43
			c0-0.91-0.91-1.222-1.699-1.378l-2.691-0.546c-1.942-0.39-3.075-1.586-3.075-3.614c0-3.718,3.318-4.368,5.544-4.368
			c4.41,0,5.604,1.638,5.686,4.368h-3.885c-0.062-0.702-0.264-1.118-0.506-1.326c-0.283-0.234-0.891-0.338-1.376-0.338
			c-0.628,0-1.457,0.338-1.457,1.144c0,0.936,0.951,1.17,1.78,1.352l2.631,0.546c2.226,0.468,3.055,1.742,3.055,3.9
			c0,3.979-3.925,4.395-6.171,4.395c-5.078,0-5.483-2.652-5.625-4.576H481.395z"/>
		<path d="M497.836,6.833h2.489V4.181l3.885-1.82v4.472h3.277v3.172h-3.277v4.082c0,1.82,0.182,2.782,1.74,2.782
			c0.364,0,0.931-0.052,1.537-0.156v3.172c-0.364,0.078-1.396,0.312-2.609,0.312c-2.975,0-4.553-1.482-4.553-4.654v-5.538h-2.489
			V6.833z"/>
		<path d="M509.648,1.113h3.885v7.956c1.255-1.898,2.408-2.73,4.29-2.73c3.642,0,5.038,2.704,5.038,6.11v7.437h-3.885v-6.682
			c0-2.08-0.709-3.536-2.469-3.536c-1.599,0-2.975,1.586-2.975,4.472v5.746h-3.885V1.113z"/>
		<path d="M529.391,14.582c0.081,2.028,1.012,3.094,2.65,3.094c1.699,0,2.003-0.884,2.205-1.768h4.128
			c-0.81,4.134-3.581,4.472-6.394,4.472c-3.521,0-6.596-1.664-6.596-6.813c0-5.044,3.055-7.228,6.535-7.228
			c4.957,0,6.656,3.146,6.677,8.242H529.391z M534.469,11.877c-0.04-2.132-1.133-2.834-2.509-2.834
			c-1.801,0-2.326,1.482-2.509,2.834H534.469z"/>
		<path d="M561.817,17.728c0,0.806,0.02,1.456,0.08,2.158h-3.763c-0.061-0.728-0.081-1.43-0.081-2.158
			c-0.891,1.352-2.023,2.652-4.553,2.652c-3.217,0-5.645-2.626-5.645-7.099c0-4.316,2.347-6.942,5.746-6.942
			c2.246,0,3.541,1.17,4.33,2.21V1.113h3.885V17.728z M554.917,17.364c1.761,0,3.016-1.586,3.016-3.9
			c0-2.522-1.255-4.108-3.016-4.108c-1.72,0-2.934,1.638-2.934,3.926C551.983,15.388,552.914,17.364,554.917,17.364z"/>
		<path d="M571.705,6.339c5.727,0,7.365,3.926,7.365,7.02c0,3.094-1.639,7.021-7.365,7.021c-5.726,0-7.364-3.926-7.364-7.021
			C564.341,10.266,565.979,6.339,571.705,6.339z M571.705,17.52c1.821,0,3.237-1.482,3.237-4.16c0-2.678-1.416-4.16-3.237-4.16
			c-1.82,0-3.237,1.482-3.237,4.16C568.468,16.038,569.885,17.52,571.705,17.52z"/>
		<path d="M584.811,15.804c0,0.702,0.183,1.17,0.486,1.482s0.769,0.39,1.274,0.39c0.81,0,2.023-0.156,2.023-1.43
			c0-0.91-0.91-1.222-1.699-1.378l-2.691-0.546c-1.942-0.39-3.075-1.586-3.075-3.614c0-3.718,3.318-4.368,5.544-4.368
			c4.41,0,5.604,1.638,5.686,4.368h-3.885c-0.062-0.702-0.264-1.118-0.506-1.326c-0.283-0.234-0.891-0.338-1.376-0.338
			c-0.628,0-1.457,0.338-1.457,1.144c0,0.936,0.951,1.17,1.78,1.352l2.631,0.546c2.226,0.468,3.055,1.742,3.055,3.9
			c0,3.979-3.925,4.395-6.171,4.395c-5.078,0-5.483-2.652-5.625-4.576H584.811z"/>
		<path d="M598.342,14.582c0.081,2.028,1.012,3.094,2.65,3.094c1.699,0,2.003-0.884,2.205-1.768h4.128
			c-0.81,4.134-3.581,4.472-6.394,4.472c-3.521,0-6.596-1.664-6.596-6.813c0-5.044,3.055-7.228,6.535-7.228
			c4.957,0,6.656,3.146,6.677,8.242H598.342z M603.42,11.877c-0.04-2.132-1.133-2.834-2.509-2.834c-1.801,0-2.326,1.482-2.509,2.834
			H603.42z"/>
		<path d="M617.556,9.511c0-0.832-0.021-1.794-0.081-2.678h3.764c0.061,0.937,0.081,1.872,0.081,2.809h0.04
			c0.951-2.496,2.004-2.99,4.553-2.99v4.264c-0.283-0.052-0.587-0.104-1.032-0.104c-2.084,0-3.439,1.508-3.439,4.134v4.94h-3.885
			V9.511z"/>
		<path d="M627.77,10.682c0.202-3.406,3.177-4.342,5.848-4.342c3.966,0,6.231,1.222,6.231,5.642v4.992
			c0,0.962,0.021,1.95,0.081,2.912h-3.764c-0.04-0.442-0.08-1.404-0.08-2.106h-0.041c-0.931,1.976-2.671,2.6-4.391,2.6
			c-2.894,0-4.593-1.508-4.593-4.238c0-3.094,2.267-4.498,6.07-4.498h2.832c0-2.08-0.748-2.6-2.286-2.6
			c-1.437,0-1.882,0.728-1.902,1.638H627.77z M634.346,14.191c-2.61,0-3.156,0.884-3.156,1.976c0,0.806,0.586,1.352,1.679,1.352
			c2.529,0,3.096-1.976,3.096-3.328H634.346z"/>
		<path d="M643.041,9.511c0-0.832-0.02-1.794-0.081-2.678h3.764c0.04,0.78,0.081,1.561,0.081,2.34h0.04
			c1.012-1.742,2.529-2.834,4.31-2.834c3.703,0,5.1,2.704,5.1,6.11v7.437h-3.885v-6.682c0-2.08-0.709-3.536-2.469-3.536
			c-1.599,0-2.975,1.586-2.975,4.472v5.746h-3.885V9.511z"/>
		<path d="M668.854,17.052h-0.041c-0.91,1.872-2.813,2.652-4.532,2.652c-3.258,0-5.523-2.938-5.523-6.682
			c0-4.134,2.286-6.682,5.604-6.682c2.023,0,3.561,0.91,4.572,2.574h0.041c0-0.806,0.021-1.508,0.081-2.08h3.763
			c-0.04,0.521-0.08,1.326-0.08,2.08v8.997c0,6.136-3.016,7.462-7.305,7.462c-5.544,0-6.07-2.418-6.231-4.628h4.127
			c0.122,0.78,0.405,1.222,0.81,1.456c0.425,0.26,0.931,0.312,1.478,0.312c2.164,0,3.237-0.962,3.237-4.446V17.052z M665.818,16.532
			c1.942,0,3.035-1.456,3.035-3.51c0-2.21-1.356-3.51-3.076-3.51c-1.882,0-2.893,1.482-2.893,3.51
			C662.885,15.023,663.977,16.532,665.818,16.532z"/>
		<path d="M679.268,14.582c0.081,2.028,1.012,3.094,2.65,3.094c1.699,0,2.003-0.884,2.205-1.768h4.128
			c-0.81,4.134-3.581,4.472-6.394,4.472c-3.521,0-6.596-1.664-6.596-6.813c0-5.044,3.055-7.228,6.535-7.228
			c4.957,0,6.656,3.146,6.677,8.242H679.268z M684.346,11.877c-0.04-2.132-1.133-2.834-2.509-2.834
			c-1.801,0-2.326,1.482-2.509,2.834H684.346z"/>
		<path d="M693.239,3.5c-0.861,0.712-1.368,0.955-2.348,1.349v-2.53c1.015-0.379,2.064-1.137,2.748-1.667h1.935v10.576h-2.335V3.5z"
			/>
		<path d="M699.395,8.894h2.406l-1.593,4.167h-1.816L699.395,8.894z"/>
		<path d="M703.119,8.985c2.183-1.757,4.942-3.364,4.942-5.257c0-0.879-0.542-1.333-1.144-1.333c-0.908,0-1.239,0.651-1.274,1.53
			h-2.335c0-2.5,1.368-3.561,3.491-3.561c2.253,0,3.668,1.212,3.668,3.379c0,2.606-2.854,4.515-4.388,5.333v0.03h4.423v2.121h-7.384
			V8.985z"/>
	</g>
	<g>
		<g>
			<path d="M16.111,36.162l3.125,11.573h-1.942l-0.647-2.497h-3.562l-0.672,2.497H10.57l3.25-11.573H16.111z M16.16,43.365
				l-1.244-4.93l-1.333,4.93H16.16z"/>
			<path d="M25.047,45.397c0.025,0.512,0.273,1.104,1.046,1.104c0.66,0,0.972-0.48,0.972-0.96c0-0.368-0.15-0.656-0.872-0.913
				l-1.146-0.4c-0.511-0.192-1.594-0.592-1.594-2.241c0-1.569,1.121-2.529,2.752-2.529c1.295,0,2.341,0.769,2.391,2.385h-1.682
				c-0.049-0.896-0.609-0.96-0.896-0.96c-0.498,0-0.871,0.304-0.871,0.8c0,0.544,0.312,0.656,0.859,0.848l1.133,0.4
				c1.146,0.4,1.681,1.152,1.681,2.257c0,1.393-0.934,2.785-2.889,2.785c-0.81,0-1.581-0.224-2.153-0.993
				c-0.411-0.56-0.449-1.2-0.461-1.584H25.047z"/>
			<path d="M33.76,47.734c-0.063-0.496-0.063-0.864-0.063-1.104c-0.697,1.296-1.531,1.296-1.88,1.296
				c-0.909,0-1.319-0.336-1.569-0.64c-0.373-0.48-0.547-1.136-0.547-1.777c0-0.64,0.174-1.825,1.332-2.513
				c0.771-0.448,1.88-0.448,2.49-0.448c0-0.528-0.013-0.784-0.088-1.072c-0.161-0.592-0.646-0.672-0.821-0.672
				c-0.262,0-0.535,0.144-0.697,0.448c-0.137,0.272-0.137,0.528-0.137,0.72h-1.806c0.013-0.432,0.05-1.297,0.71-1.905
				c0.572-0.528,1.308-0.656,1.905-0.656c0.522,0,1.618,0.112,2.24,1.041c0.424,0.656,0.437,1.616,0.437,1.984l0.013,3.25
				c0,0.688,0.037,1.376,0.148,2.049H33.76z M31.494,45.237c0,0.544,0.286,1.152,0.896,1.152c0.336,0,0.609-0.208,0.784-0.464
				c0.323-0.512,0.349-1.137,0.349-2.001C32.34,43.797,31.494,44.277,31.494,45.237z"/>
			<path d="M37.032,41.332h-0.934v-1.681h0.934v-1.104c0-1.425,0.374-2.577,2.167-2.577c0.124,0,0.473,0,0.996,0.08v1.648
				c-0.188-0.032-0.236-0.048-0.387-0.048c-0.945,0-0.945,0.64-0.945,1.056v0.944h1.17v1.681h-1.17v6.402h-1.831V41.332z"/>
			<path d="M42.534,44.293c0,0.528,0,2.161,1.282,2.161c0.461,0,0.922-0.224,1.096-1.121h1.682
				c-0.025,0.384-0.088,1.072-0.598,1.761c-0.461,0.624-1.283,0.944-2.204,0.944c-0.536,0-1.557-0.128-2.217-1.008
				c-0.572-0.769-0.81-1.857-0.81-3.153c0-1.313,0.25-2.881,1.308-3.826c0.485-0.416,1.083-0.672,1.769-0.672
				c0.896,0,1.967,0.448,2.54,1.953c0.423,1.104,0.398,2.289,0.373,2.961H42.534z M44.875,42.804c0-0.368-0.025-1.809-1.096-1.809
				c-0.81,0-1.146,0.864-1.183,1.809H44.875z"/>
			<path d="M51.672,47.623c-0.598,0.208-1.134,0.256-1.433,0.256c-1.854,0-1.854-1.504-1.854-2.177v-4.434h-1.208v-1.568h1.208
				v-1.585l1.83-0.864v2.449h1.494v1.568h-1.494v3.649c0.012,0.736,0.012,1.201,0.834,1.201c0.273,0,0.398-0.016,0.623-0.048V47.623
				z"/>
			<path d="M54.172,39.651l1.383,5.603l1.406-5.603h1.831l-2.378,7.939l-0.76,3.217h-1.855l0.797-3.041l-2.416-8.116H54.172z"/>
			<path d="M64.927,39.651l0.05,1.153c0.572-1.297,1.619-1.313,1.918-1.313c1.631,0,2.614,1.568,2.614,4.034
				c0,2.289-0.921,4.321-2.739,4.321c-1.133,0-1.594-0.768-1.756-1.04v4.034h-1.88V39.651H64.927z M67.641,43.621
				c0-0.96-0.187-2.609-1.27-2.609c-0.598,0-1.444,0.576-1.444,2.753c0,0.48,0.013,2.529,1.37,2.529
				C67.168,46.294,67.641,45.221,67.641,43.621z"/>
			<path d="M70.802,41.636c0-0.384-0.05-1.552-0.087-2.017h1.73l0.037,1.553c0.236-0.688,0.647-1.665,2.142-1.569v2.129
				c-1.868-0.224-1.979,1.008-1.979,2.017v3.986h-1.843V41.636z"/>
			<path d="M78.606,39.459c2.278,0,3.263,1.985,3.263,4.242c0,2.273-1.021,4.322-3.3,4.322c-1.793,0-3.212-1.424-3.212-4.258
				C75.357,41.812,76.129,39.459,78.606,39.459z M78.632,46.374c0.81,0,1.356-0.625,1.356-2.77c0-1.072-0.161-2.561-1.382-2.561
				c-1.345,0-1.356,2.001-1.356,2.737C77.25,45.589,77.723,46.374,78.632,46.374z"/>
			<path d="M83.41,41.332h-0.947v-1.681h0.947v-1.104c0-1.425,0.36-2.577,2.153-2.577c0.138,0,0.485,0,0.996,0.08v1.648
				c-0.187-0.032-0.236-0.048-0.386-0.048c-0.934,0-0.934,0.64-0.934,1.056v0.944h1.158v1.681H85.24v6.402h-1.83V41.332z
				 M87.332,36.178h1.967v2.065h-1.967V36.178z M87.395,39.635h1.842v8.099h-1.842V39.635z"/>
			<path d="M90.854,36.162h1.843v11.573h-1.843V36.162z"/>
			<path d="M95.795,44.293c0,0.528,0,2.161,1.282,2.161c0.461,0,0.922-0.224,1.096-1.121h1.681
				c-0.024,0.384-0.087,1.072-0.598,1.761c-0.46,0.624-1.282,0.944-2.203,0.944c-0.535,0-1.557-0.128-2.217-1.008
				c-0.572-0.769-0.809-1.857-0.809-3.153c0-1.313,0.248-2.881,1.307-3.826c0.486-0.416,1.084-0.672,1.769-0.672
				c0.896,0,1.967,0.448,2.54,1.953c0.423,1.104,0.398,2.289,0.373,2.961H95.795z M98.136,42.804c0-0.368-0.024-1.809-1.096-1.809
				c-0.81,0-1.146,0.864-1.183,1.809H98.136z"/>
			<path d="M108.019,42.516c-0.024-0.288-0.1-1.488-0.81-1.488c-0.871,0-0.971,1.696-0.971,2.577c0,0.448,0.037,1.889,0.461,2.481
				c0.174,0.24,0.36,0.272,0.498,0.272c0.199,0,0.771-0.112,0.846-1.553h1.818c-0.025,0.625-0.087,1.601-0.81,2.385
				c-0.448,0.497-1.009,0.752-1.793,0.752c-0.834,0-1.568-0.24-2.142-1.072c-0.548-0.816-0.797-1.889-0.797-3.186
				c0-3.681,2.104-4.193,2.938-4.193c1.171,0,2.553,0.832,2.565,3.025H108.019z"/>
			<path d="M113.881,39.459c2.279,0,3.263,1.985,3.263,4.242c0,2.273-1.021,4.322-3.3,4.322c-1.793,0-3.213-1.424-3.213-4.258
				C110.631,41.812,111.403,39.459,113.881,39.459z M113.906,46.374c0.809,0,1.357-0.625,1.357-2.77
				c0-1.072-0.162-2.561-1.383-2.561c-1.345,0-1.357,2.001-1.357,2.737C112.523,45.589,112.997,46.374,113.906,46.374z"/>
			<path d="M118.56,41.172c0-0.512-0.024-1.009-0.063-1.521h1.78l0.063,1.041c0.199-0.352,0.686-1.216,1.942-1.216
				c1.444,0,1.855,1.136,1.979,1.521c0.523-1.296,1.37-1.504,2.018-1.504c1.27,0,1.78,0.976,1.918,1.296
				c0.336,0.704,0.311,1.681,0.311,2.385v4.562h-1.855V42.98c0-0.864-0.1-1.825-1.058-1.825c-1.108,0-1.134,1.329-1.134,2.529v4.05
				h-1.854v-4.802c0-0.625-0.013-1.777-1.034-1.777c-1.157,0-1.157,1.28-1.157,1.825v4.754h-1.855V41.172z"/>
			<path d="M132.003,39.651l0.05,1.153c0.572-1.297,1.619-1.313,1.918-1.313c1.631,0,2.614,1.568,2.614,4.034
				c0,2.289-0.921,4.321-2.739,4.321c-1.133,0-1.594-0.768-1.756-1.04v4.034h-1.88V39.651H132.003z M134.717,43.621
				c0-0.96-0.187-2.609-1.27-2.609c-0.598,0-1.444,0.576-1.444,2.753c0,0.48,0.013,2.529,1.37,2.529
				C134.244,46.294,134.717,45.221,134.717,43.621z"/>
			<path d="M141.65,47.734c-0.063-0.496-0.063-0.864-0.063-1.104c-0.697,1.296-1.531,1.296-1.88,1.296
				c-0.909,0-1.319-0.336-1.569-0.64c-0.373-0.48-0.547-1.136-0.547-1.777c0-0.64,0.174-1.825,1.332-2.513
				c0.771-0.448,1.88-0.448,2.49-0.448c0-0.528-0.013-0.784-0.088-1.072c-0.161-0.592-0.646-0.672-0.821-0.672
				c-0.262,0-0.535,0.144-0.697,0.448c-0.137,0.272-0.137,0.528-0.137,0.72h-1.806c0.013-0.432,0.05-1.297,0.71-1.905
				c0.572-0.528,1.308-0.656,1.905-0.656c0.522,0,1.618,0.112,2.24,1.041c0.424,0.656,0.437,1.616,0.437,1.984l0.013,3.25
				c0,0.688,0.037,1.376,0.148,2.049H141.65z M139.385,45.237c0,0.544,0.286,1.152,0.896,1.152c0.336,0,0.609-0.208,0.784-0.464
				c0.323-0.512,0.349-1.137,0.349-2.001C140.23,43.797,139.385,44.277,139.385,45.237z"/>
			<path d="M144.798,41.636c0-0.384-0.05-1.552-0.087-2.017h1.73l0.037,1.553c0.236-0.688,0.647-1.665,2.142-1.569v2.129
				c-1.868-0.224-1.979,1.008-1.979,2.017v3.986h-1.843V41.636z"/>
			<path d="M153.412,47.734c-0.063-0.496-0.063-0.864-0.063-1.104c-0.697,1.296-1.531,1.296-1.88,1.296
				c-0.909,0-1.319-0.336-1.569-0.64c-0.373-0.48-0.547-1.136-0.547-1.777c0-0.64,0.174-1.825,1.332-2.513
				c0.771-0.448,1.88-0.448,2.49-0.448c0-0.528-0.013-0.784-0.088-1.072c-0.161-0.592-0.646-0.672-0.821-0.672
				c-0.262,0-0.535,0.144-0.697,0.448c-0.137,0.272-0.137,0.528-0.137,0.72h-1.806c0.013-0.432,0.05-1.297,0.71-1.905
				c0.572-0.528,1.308-0.656,1.905-0.656c0.522,0,1.618,0.112,2.24,1.041c0.424,0.656,0.437,1.616,0.437,1.984l0.013,3.25
				c0,0.688,0.037,1.376,0.148,2.049H153.412z M151.146,45.237c0,0.544,0.286,1.152,0.896,1.152c0.336,0,0.609-0.208,0.784-0.464
				c0.323-0.512,0.349-1.137,0.349-2.001C151.992,43.797,151.146,44.277,151.146,45.237z"/>
			<path d="M156.498,36.194h1.843v4.434c0.622-1.056,1.457-1.088,1.78-1.088c1.531,0,2.739,1.553,2.739,4.274
				c0,3.025-1.369,4.082-2.627,4.082c-0.323,0-1.319-0.032-1.893-1.296c-0.013,0.256-0.024,0.64-0.063,1.136h-1.78V36.194z
				 M159.623,41.124c-1.357,0-1.357,1.985-1.357,2.497c0,1.841,0.61,2.721,1.445,2.721c1.27,0,1.27-2.033,1.27-2.449
				C160.98,43.252,160.955,41.124,159.623,41.124z"/>
			<path d="M164.166,36.162h1.843v11.573h-1.843V36.162z"/>
			<path d="M169.107,44.293c0,0.528,0,2.161,1.282,2.161c0.461,0,0.922-0.224,1.096-1.121h1.681
				c-0.024,0.384-0.087,1.072-0.598,1.761c-0.46,0.624-1.282,0.944-2.203,0.944c-0.535,0-1.557-0.128-2.217-1.008
				c-0.572-0.769-0.809-1.857-0.809-3.153c0-1.313,0.248-2.881,1.307-3.826c0.486-0.416,1.084-0.672,1.769-0.672
				c0.896,0,1.967,0.448,2.54,1.953c0.423,1.104,0.398,2.289,0.373,2.961H169.107z M171.448,42.804c0-0.368-0.024-1.809-1.096-1.809
				c-0.81,0-1.146,0.864-1.183,1.809H171.448z"/>
			<path d="M181.705,47.623c-0.598,0.208-1.134,0.256-1.433,0.256c-1.854,0-1.854-1.504-1.854-2.177v-4.434h-1.208v-1.568h1.208
				v-1.585l1.83-0.864v2.449h1.494v1.568h-1.494v3.649c0.012,0.736,0.012,1.201,0.834,1.201c0.273,0,0.398-0.016,0.623-0.048V47.623
				z"/>
			<path d="M185.812,39.459c2.278,0,3.263,1.985,3.263,4.242c0,2.273-1.021,4.322-3.3,4.322c-1.793,0-3.212-1.424-3.212-4.258
				C182.563,41.812,183.334,39.459,185.812,39.459z M185.837,46.374c0.81,0,1.356-0.625,1.356-2.77c0-1.072-0.161-2.561-1.382-2.561
				c-1.345,0-1.356,2.001-1.356,2.737C184.455,45.589,184.928,46.374,185.837,46.374z"/>
			<path d="M197.611,47.623c-0.598,0.208-1.133,0.256-1.432,0.256c-1.855,0-1.855-1.504-1.855-2.177v-4.434h-1.207v-1.568h1.207
				v-1.585l1.831-0.864v2.449h1.494v1.568h-1.494v3.649c0.013,0.736,0.013,1.201,0.834,1.201c0.274,0,0.398-0.016,0.622-0.048
				V47.623z"/>
			<path d="M198.806,36.178h1.83v4.578c0.212-0.384,0.673-1.216,1.817-1.216c0.935,0,1.532,0.592,1.831,1.088
				c0.224,0.4,0.411,1.137,0.411,2.193v4.914h-1.831V42.9c0-0.464,0-1.761-1.033-1.761c-0.522,0-1.183,0.384-1.183,1.649
				l0.012,4.946h-1.854V36.178z"/>
			<path d="M210.133,47.734c-0.063-0.496-0.063-0.864-0.063-1.104c-0.697,1.296-1.531,1.296-1.88,1.296
				c-0.909,0-1.319-0.336-1.569-0.64c-0.373-0.48-0.547-1.136-0.547-1.777c0-0.64,0.174-1.825,1.332-2.513
				c0.771-0.448,1.88-0.448,2.49-0.448c0-0.528-0.013-0.784-0.088-1.072c-0.161-0.592-0.646-0.672-0.821-0.672
				c-0.262,0-0.535,0.144-0.697,0.448c-0.137,0.272-0.137,0.528-0.137,0.72h-1.806c0.013-0.432,0.05-1.297,0.71-1.905
				c0.572-0.528,1.308-0.656,1.905-0.656c0.522,0,1.618,0.112,2.24,1.041c0.424,0.656,0.437,1.616,0.437,1.984l0.013,3.25
				c0,0.688,0.037,1.376,0.148,2.049H210.133z M207.867,45.237c0,0.544,0.286,1.152,0.896,1.152c0.336,0,0.609-0.208,0.784-0.464
				c0.323-0.512,0.349-1.137,0.349-2.001C208.713,43.797,207.867,44.277,207.867,45.237z"/>
			<path d="M216.979,47.623c-0.598,0.208-1.133,0.256-1.432,0.256c-1.855,0-1.855-1.504-1.855-2.177v-4.434h-1.207v-1.568h1.207
				v-1.585l1.831-0.864v2.449h1.494v1.568h-1.494v3.649c0.013,0.736,0.013,1.201,0.834,1.201c0.274,0,0.398-0.016,0.622-0.048
				V47.623z"/>
			<path d="M224.546,39.459c2.278,0,3.263,1.985,3.263,4.242c0,2.273-1.021,4.322-3.3,4.322c-1.793,0-3.212-1.424-3.212-4.258
				C221.297,41.812,222.068,39.459,224.546,39.459z M224.571,46.374c0.81,0,1.356-0.625,1.356-2.77c0-1.072-0.161-2.561-1.382-2.561
				c-1.345,0-1.356,2.001-1.356,2.737C223.189,45.589,223.662,46.374,224.571,46.374z"/>
			<path d="M229.313,41.332h-0.934v-1.681h0.934v-1.104c0-1.425,0.374-2.577,2.167-2.577c0.124,0,0.473,0,0.996,0.08v1.648
				c-0.187-0.032-0.237-0.048-0.386-0.048c-0.947,0-0.947,0.64-0.947,1.056v0.944h1.171v1.681h-1.171v6.402h-1.83V41.332z"/>
			<path d="M238.523,39.651l0.05,1.153c0.573-1.297,1.618-1.313,1.917-1.313c1.632,0,2.615,1.568,2.615,4.034
				c0,2.289-0.922,4.321-2.739,4.321c-1.133,0-1.594-0.768-1.756-1.04v4.034h-1.88V39.651H238.523z M241.238,43.621
				c0-0.96-0.188-2.609-1.271-2.609c-0.598,0-1.444,0.576-1.444,2.753c0,0.48,0.013,2.529,1.369,2.529
				C240.765,46.294,241.238,45.221,241.238,43.621z"/>
			<path d="M244.398,36.162h1.843v11.573h-1.843V36.162z"/>
			<path d="M251.631,47.734c-0.063-0.496-0.063-0.864-0.063-1.104c-0.697,1.296-1.531,1.296-1.88,1.296
				c-0.909,0-1.319-0.336-1.569-0.64c-0.373-0.48-0.547-1.136-0.547-1.777c0-0.64,0.174-1.825,1.332-2.513
				c0.771-0.448,1.88-0.448,2.49-0.448c0-0.528-0.013-0.784-0.088-1.072c-0.161-0.592-0.646-0.672-0.821-0.672
				c-0.262,0-0.535,0.144-0.697,0.448c-0.137,0.272-0.137,0.528-0.137,0.72h-1.806c0.013-0.432,0.05-1.297,0.71-1.905
				c0.572-0.528,1.308-0.656,1.905-0.656c0.522,0,1.618,0.112,2.24,1.041c0.424,0.656,0.437,1.616,0.437,1.984l0.013,3.25
				c0,0.688,0.037,1.376,0.148,2.049H251.631z M249.365,45.237c0,0.544,0.286,1.152,0.896,1.152c0.336,0,0.609-0.208,0.784-0.464
				c0.323-0.512,0.349-1.137,0.349-2.001C250.211,43.797,249.365,44.277,249.365,45.237z"/>
			<path d="M258.104,42.516c-0.025-0.288-0.1-1.488-0.81-1.488c-0.871,0-0.971,1.696-0.971,2.577c0,0.448,0.037,1.889,0.46,2.481
				c0.175,0.24,0.361,0.272,0.498,0.272c0.199,0,0.772-0.112,0.848-1.553h1.817c-0.024,0.625-0.087,1.601-0.81,2.385
				c-0.448,0.497-1.008,0.752-1.793,0.752c-0.834,0-1.568-0.24-2.142-1.072c-0.548-0.816-0.797-1.889-0.797-3.186
				c0-3.681,2.104-4.193,2.938-4.193c1.171,0,2.553,0.832,2.565,3.025H258.104z"/>
			<path d="M262.484,44.293c0,0.528,0,2.161,1.282,2.161c0.461,0,0.922-0.224,1.096-1.121h1.681
				c-0.024,0.384-0.087,1.072-0.598,1.761c-0.46,0.624-1.282,0.944-2.203,0.944c-0.535,0-1.557-0.128-2.217-1.008
				c-0.572-0.769-0.809-1.857-0.809-3.153c0-1.313,0.248-2.881,1.307-3.826c0.486-0.416,1.084-0.672,1.769-0.672
				c0.896,0,1.967,0.448,2.54,1.953c0.423,1.104,0.398,2.289,0.373,2.961H262.484z M264.825,42.804c0-0.368-0.024-1.809-1.096-1.809
				c-0.81,0-1.146,0.864-1.183,1.809H264.825z"/>
			<path d="M267.861,36.194h1.843v4.434c0.622-1.056,1.457-1.088,1.78-1.088c1.531,0,2.739,1.553,2.739,4.274
				c0,3.025-1.369,4.082-2.627,4.082c-0.323,0-1.319-0.032-1.893-1.296c-0.013,0.256-0.024,0.64-0.063,1.136h-1.78V36.194z
				 M270.986,41.124c-1.357,0-1.357,1.985-1.357,2.497c0,1.841,0.61,2.721,1.445,2.721c1.27,0,1.27-2.033,1.27-2.449
				C272.344,43.252,272.318,41.124,270.986,41.124z"/>
			<path d="M278.491,39.459c2.278,0,3.263,1.985,3.263,4.242c0,2.273-1.021,4.322-3.3,4.322c-1.793,0-3.212-1.424-3.212-4.258
				C275.242,41.812,276.014,39.459,278.491,39.459z M278.517,46.374c0.81,0,1.356-0.625,1.356-2.77c0-1.072-0.161-2.561-1.382-2.561
				c-1.345,0-1.356,2.001-1.356,2.737C277.135,45.589,277.607,46.374,278.517,46.374z"/>
			<path d="M282.506,41.092l1.314-1.539c0.232-0.27,0.494-0.568,0.763-0.988c0.283-0.438,0.349-0.643,0.349-0.941
				c0-0.494-0.225-0.83-0.603-0.83c-0.581,0-0.632,0.764-0.64,0.951h-1.111c0-0.261,0-0.746,0.298-1.221
				c0.291-0.466,0.828-0.708,1.445-0.708c1.104,0,1.715,0.764,1.715,1.771c0,0.671-0.204,1.538-2.397,3.804
				c0.733-0.019,0.821-0.028,1.395-0.038c0.777-0.019,0.864-0.019,1.031-0.028v1.082h-3.559V41.092z"/>
		</g>
	</g>
</g>
</svg>
