<?xml version="1.0" encoding="utf-8"?>
<!-- Generator: Adobe Illustrator 17.0.0, SVG Export Plug-In . SVG Version: 6.00 Build 0)  -->
<!DOCTYPE svg PUBLIC "-//W3C//DTD SVG 1.1//EN" "http://www.w3.org/Graphics/SVG/1.1/DTD/svg11.dtd">
<svg version="1.1" id="Layer_1" xmlns="http://www.w3.org/2000/svg" xmlns:xlink="http://www.w3.org/1999/xlink" x="0px" y="0px"
	 width="713.696px" height="34.438px" viewBox="0 0 713.696 34.438" enable-background="new 0 0 713.696 34.438"
	 xml:space="preserve">
<g>
	<g>
		<path d="M0,0.304h2.614V11.86H0V0.304z"/>
		<path d="M4.618,5.474c0-0.512-0.013-1.104-0.05-1.648h2.315c0.025,0.48,0.05,0.96,0.05,1.44h0.025
			C7.581,4.193,8.515,3.521,9.61,3.521c2.279,0,3.139,1.665,3.139,3.762v4.578h-2.391V7.747c0-1.281-0.437-2.178-1.52-2.178
			c-0.983,0-1.83,0.977-1.83,2.754v3.537H4.618V5.474z"/>
		<path d="M18.558,3.825h1.531V2.192l2.391-1.12v2.753h2.018v1.953h-2.018v2.513c0,1.12,0.112,1.713,1.071,1.713
			c0.224,0,0.572-0.032,0.946-0.097v1.953c-0.225,0.048-0.859,0.192-1.606,0.192c-1.83,0-2.802-0.913-2.802-2.865V5.778h-1.531
			V3.825z"/>
		<path d="M25.827,0.304h2.391v4.898c0.771-1.169,1.481-1.682,2.64-1.682c2.241,0,3.101,1.665,3.101,3.762v4.578h-2.391V7.747
			c0-1.281-0.437-2.178-1.52-2.178c-0.983,0-1.83,0.977-1.83,2.754v3.537h-2.391V0.304z"/>
		<path d="M37.976,8.595c0.051,1.249,0.623,1.905,1.632,1.905c1.046,0,1.232-0.544,1.356-1.089h2.541
			c-0.498,2.545-2.204,2.753-3.936,2.753c-2.166,0-4.059-1.024-4.059-4.193c0-3.105,1.88-4.45,4.021-4.45
			c3.051,0,4.097,1.938,4.109,5.074H37.976z M41.102,6.931c-0.025-1.313-0.697-1.745-1.544-1.745c-1.108,0-1.432,0.912-1.544,1.745
			H41.102z"/>
		<path d="M53.734,0.304h3.125l4.669,11.557h-2.926l-0.847-2.289h-5.229l-0.871,2.289h-2.689L53.734,0.304z M55.179,2.545
			l-1.843,4.882h3.623L55.179,2.545z"/>
		<path d="M64.999,8.115c0.024,1.473,0.548,1.809,1.768,1.809c1.544,0,1.781-0.704,1.781-1.217c0-0.769-0.623-1.024-1.656-1.28
			l-1.283-0.32c-1.481-0.368-3.037-1.072-3.037-3.281C62.571,0.992,64.612,0,66.667,0c3.287,0,4.221,1.296,4.309,3.601h-2.54
			c-0.075-1.184-0.822-1.36-1.606-1.36c-1.146,0-1.644,0.496-1.644,1.137c0,0.784,0.821,0.992,1.78,1.248l1.208,0.32
			c1.644,0.433,2.988,1.121,2.988,3.409c0,3.218-2.527,3.81-4.545,3.81c-3.623,0-4.233-2-4.233-4.049H64.999z"/>
		<path d="M79.662,4.098c-0.137-1.281-0.946-1.729-1.942-1.729c-1.706,0-2.527,1.537-2.527,3.649c0,2.049,0.685,3.778,2.453,3.778
			c0.996,0,1.904-0.448,1.992-1.857h2.764c-0.112,3.41-2.304,4.226-5.018,4.226c-2.689,0-4.881-1.761-4.881-6.066
			C72.503,1.761,74.595,0,77.807,0c2.291,0,4.508,1.04,4.545,4.098H79.662z"/>
		<path d="M88.909,0c3.761,0,5.342,2.593,5.342,6.082s-1.581,6.082-5.342,6.082c-3.76,0-5.341-2.593-5.341-6.082S85.149,0,88.909,0z
			 M88.909,9.796c1.992,0,2.652-1.681,2.652-3.714s-0.66-3.714-2.652-3.714s-2.651,1.681-2.651,3.714S86.917,9.796,88.909,9.796z"/>
		<path d="M98.68,2.673h-3.461V0.304h9.537v2.369h-3.461v9.188H98.68V2.673z"/>
		<path d="M105.886,6.563h3.885v2.049h-3.885V6.563z"/>
		<path d="M111.835,0.304h2.615v9.188h5.08v2.369h-7.695V0.304z"/>
		<path d="M121.059,0.304h2.614v9.188h5.08v2.369h-7.694V0.304z"/>
		<path d="M133.98,0.304h3.125l4.669,11.557h-2.926l-0.847-2.289h-5.229l-0.871,2.289h-2.689L133.98,0.304z M135.425,2.545
			l-1.843,4.882h3.623L135.425,2.545z"/>
		<path d="M146.749,3.825h1.531V2.192l2.391-1.12v2.753h2.018v1.953h-2.018v2.513c0,1.12,0.112,1.713,1.071,1.713
			c0.224,0,0.572-0.032,0.946-0.097v1.953c-0.225,0.048-0.859,0.192-1.606,0.192c-1.83,0-2.802-0.913-2.802-2.865V5.778h-1.531
			V3.825z"/>
		<path d="M154.019,5.474c0-0.512-0.013-1.104-0.05-1.648h2.315c0.037,0.576,0.05,1.152,0.05,1.729h0.025
			c0.585-1.536,1.232-1.841,2.802-1.841v2.625c-0.175-0.032-0.361-0.063-0.636-0.063c-1.282,0-2.116,0.928-2.116,2.545v3.041h-2.391
			V5.474z"/>
		<path d="M163.081,2.545h-2.615V0.304h2.615V2.545z M160.578,3.825h2.391v8.035h-2.391V3.825z"/>
		<path d="M164.909,6.194c0.125-2.097,1.955-2.674,3.599-2.674c2.44,0,3.835,0.753,3.835,3.474v3.073
			c0,0.593,0.013,1.201,0.05,1.793h-2.315c-0.025-0.272-0.051-0.864-0.051-1.297h-0.024c-0.573,1.217-1.644,1.601-2.702,1.601
			c-1.78,0-2.826-0.928-2.826-2.608c0-1.905,1.395-2.77,3.735-2.77h1.743c0-1.28-0.461-1.601-1.407-1.601
			c-0.884,0-1.157,0.448-1.17,1.009H164.909z M168.956,8.354c-1.606,0-1.942,0.545-1.942,1.217c0,0.496,0.361,0.832,1.033,0.832
			c1.557,0,1.905-1.216,1.905-2.049H168.956z"/>
		<path d="M174.406,0.304h2.391V11.86h-2.391V0.304z"/>
		<path d="M179.285,9.396h2.54l-1.681,4.401h-1.917L179.285,9.396z"/>
		<path d="M188.123,5.474c0-0.512-0.013-1.104-0.05-1.648h2.315c0.038,0.576,0.05,1.152,0.05,1.729h0.025
			c0.585-1.536,1.232-1.841,2.801-1.841v2.625c-0.174-0.032-0.36-0.063-0.635-0.063c-1.282,0-2.116,0.928-2.116,2.545v3.041h-2.391
			V5.474z"/>
		<path d="M194.408,6.194c0.125-2.097,1.955-2.674,3.599-2.674c2.44,0,3.835,0.753,3.835,3.474v3.073
			c0,0.593,0.013,1.201,0.05,1.793h-2.316c-0.024-0.272-0.049-0.864-0.049-1.297h-0.025c-0.572,1.217-1.644,1.601-2.702,1.601
			c-1.78,0-2.826-0.928-2.826-2.608c0-1.905,1.395-2.77,3.735-2.77h1.743c0-1.28-0.461-1.601-1.407-1.601
			c-0.884,0-1.158,0.448-1.17,1.009H194.408z M198.455,8.354c-1.606,0-1.942,0.545-1.942,1.217c0,0.496,0.361,0.832,1.033,0.832
			c1.557,0,1.905-1.216,1.905-2.049H198.455z"/>
		<path d="M202.996,3.825h1.531V2.192l2.391-1.12v2.753h2.018v1.953h-2.018v2.513c0,1.12,0.112,1.713,1.071,1.713
			c0.224,0,0.572-0.032,0.946-0.097v1.953c-0.225,0.048-0.859,0.192-1.606,0.192c-1.83,0-2.802-0.913-2.802-2.865V5.778h-1.531
			V3.825z"/>
		<path d="M212.271,8.595c0.049,1.249,0.622,1.905,1.631,1.905c1.046,0,1.232-0.544,1.357-1.089h2.539
			c-0.498,2.545-2.203,2.753-3.934,2.753c-2.167,0-4.06-1.024-4.06-4.193c0-3.105,1.88-4.45,4.021-4.45
			c3.051,0,4.097,1.938,4.109,5.074H212.271z M215.396,6.931c-0.025-1.313-0.697-1.745-1.544-1.745
			c-1.108,0-1.433,0.912-1.544,1.745H215.396z"/>
		<path d="M221.469,9.348c0,0.432,0.112,0.72,0.299,0.912s0.474,0.24,0.784,0.24c0.498,0,1.245-0.097,1.245-0.881
			c0-0.56-0.56-0.752-1.046-0.848l-1.656-0.337c-1.195-0.239-1.893-0.976-1.893-2.225c0-2.289,2.043-2.689,3.412-2.689
			c2.715,0,3.449,1.009,3.499,2.689h-2.391c-0.038-0.432-0.162-0.688-0.312-0.816c-0.174-0.144-0.548-0.208-0.847-0.208
			c-0.386,0-0.896,0.208-0.896,0.704c0,0.576,0.585,0.721,1.096,0.833l1.618,0.336c1.37,0.288,1.881,1.072,1.881,2.4
			c0,2.449-2.416,2.705-3.798,2.705c-3.125,0-3.374-1.632-3.462-2.816H221.469z"/>
		<path d="M236.468,3.521c3.523,0,4.532,2.417,4.532,4.322c0,1.904-1.009,4.321-4.532,4.321s-4.532-2.417-4.532-4.321
			C231.936,5.938,232.944,3.521,236.468,3.521z M236.468,10.403c1.121,0,1.992-0.912,1.992-2.561s-0.871-2.562-1.992-2.562
			s-1.992,0.913-1.992,2.562S235.347,10.403,236.468,10.403z"/>
		<path d="M243.275,5.778h-1.444V3.825h1.444c0-3.105,1.108-3.617,3.399-3.617c0.262,0,0.784,0.048,1.046,0.096v1.824
			c-0.187-0.031-0.411-0.063-0.647-0.063c-0.922,0-1.369,0.272-1.369,1.761h1.88v1.953h-1.918v6.082h-2.391V5.778z"/>
		<path d="M255.598,9.348c0,0.432,0.112,0.72,0.299,0.912s0.474,0.24,0.784,0.24c0.498,0,1.245-0.097,1.245-0.881
			c0-0.56-0.56-0.752-1.046-0.848l-1.656-0.337c-1.195-0.239-1.893-0.976-1.893-2.225c0-2.289,2.043-2.689,3.412-2.689
			c2.715,0,3.449,1.009,3.499,2.689h-2.391c-0.038-0.432-0.162-0.688-0.312-0.816c-0.174-0.144-0.548-0.208-0.847-0.208
			c-0.386,0-0.896,0.208-0.896,0.704c0,0.576,0.585,0.721,1.096,0.833l1.618,0.336c1.37,0.288,1.881,1.072,1.881,2.4
			c0,2.449-2.416,2.705-3.798,2.705c-3.125,0-3.374-1.632-3.462-2.816H255.598z"/>
		<path d="M263.925,8.595c0.051,1.249,0.623,1.905,1.632,1.905c1.046,0,1.232-0.544,1.356-1.089h2.541
			c-0.498,2.545-2.204,2.753-3.936,2.753c-2.166,0-4.059-1.024-4.059-4.193c0-3.105,1.88-4.45,4.021-4.45
			c3.051,0,4.097,1.938,4.109,5.074H263.925z M267.051,6.931c-0.025-1.313-0.697-1.745-1.544-1.745
			c-1.108,0-1.432,0.912-1.544,1.745H267.051z"/>
		<path d="M271.144,5.474c0-0.512-0.013-1.104-0.05-1.648h2.315c0.037,0.576,0.05,1.152,0.05,1.729h0.025
			c0.585-1.536,1.232-1.841,2.802-1.841v2.625c-0.175-0.032-0.361-0.063-0.636-0.063c-1.282,0-2.116,0.928-2.116,2.545v3.041h-2.391
			V5.474z"/>
		<path d="M280.206,2.545h-2.615V0.304h2.615V2.545z M277.703,3.825h2.391v8.035h-2.391V3.825z"/>
		<path d="M286.28,3.521c3.523,0,4.532,2.417,4.532,4.322c0,1.904-1.009,4.321-4.532,4.321s-4.532-2.417-4.532-4.321
			C281.748,5.938,282.757,3.521,286.28,3.521z M286.28,10.403c1.121,0,1.992-0.912,1.992-2.561s-0.871-2.562-1.992-2.562
			s-1.992,0.913-1.992,2.562S285.159,10.403,286.28,10.403z"/>
		<path d="M300.497,10.212c0,0.512,0.012,1.104,0.049,1.648h-2.315c-0.024-0.48-0.05-0.96-0.05-1.44h-0.025
			c-0.622,1.072-1.556,1.744-2.651,1.744c-2.278,0-3.138-1.664-3.138-3.761V3.825h2.391v4.113c0,1.281,0.436,2.177,1.519,2.177
			c0.983,0,1.831-0.976,1.831-2.753V3.825h2.391V10.212z"/>
		<path d="M304.489,9.348c0,0.432,0.112,0.72,0.299,0.912s0.473,0.24,0.784,0.24c0.498,0,1.245-0.097,1.245-0.881
			c0-0.56-0.561-0.752-1.046-0.848l-1.655-0.337c-1.195-0.239-1.893-0.976-1.893-2.225c0-2.289,2.041-2.689,3.411-2.689
			c2.714,0,3.449,1.009,3.499,2.689h-2.391c-0.037-0.432-0.162-0.688-0.312-0.816c-0.175-0.144-0.548-0.208-0.847-0.208
			c-0.386,0-0.896,0.208-0.896,0.704c0,0.576,0.585,0.721,1.096,0.833l1.619,0.336c1.369,0.288,1.88,1.072,1.88,2.4
			c0,2.449-2.416,2.705-3.798,2.705c-3.125,0-3.374-1.632-3.461-2.816H304.489z"/>
		<path d="M315.243,6.194c0.125-2.097,1.955-2.674,3.599-2.674c2.44,0,3.835,0.753,3.835,3.474v3.073
			c0,0.593,0.013,1.201,0.05,1.793h-2.315c-0.025-0.272-0.051-0.864-0.051-1.297h-0.024c-0.573,1.217-1.644,1.601-2.702,1.601
			c-1.78,0-2.826-0.928-2.826-2.608c0-1.905,1.395-2.77,3.735-2.77h1.743c0-1.28-0.461-1.601-1.407-1.601
			c-0.884,0-1.157,0.448-1.17,1.009H315.243z M319.29,8.354c-1.606,0-1.942,0.545-1.942,1.217c0,0.496,0.361,0.832,1.033,0.832
			c1.557,0,1.905-1.216,1.905-2.049H319.29z"/>
		<path d="M332.771,10.532c0,0.496,0.013,0.896,0.051,1.328h-2.316c-0.037-0.448-0.05-0.88-0.05-1.328
			c-0.548,0.832-1.245,1.632-2.802,1.632c-1.979,0-3.474-1.616-3.474-4.369c0-2.657,1.444-4.274,3.536-4.274
			c1.382,0,2.179,0.721,2.664,1.361V0.304h2.391V10.532z M328.525,10.308c1.083,0,1.854-0.977,1.854-2.4
			c0-1.553-0.771-2.529-1.854-2.529c-1.059,0-1.806,1.008-1.806,2.417C326.72,9.091,327.292,10.308,328.525,10.308z"/>
		<path d="M339.865,11.86h-2.951l-2.951-8.035h2.689l1.905,6.274l1.942-6.274h2.315L339.865,11.86z"/>
		<path d="M346.013,8.595c0.049,1.249,0.622,1.905,1.631,1.905c1.046,0,1.232-0.544,1.357-1.089h2.539
			c-0.498,2.545-2.203,2.753-3.934,2.753c-2.167,0-4.06-1.024-4.06-4.193c0-3.105,1.88-4.45,4.021-4.45
			c3.051,0,4.097,1.938,4.109,5.074H346.013z M349.138,6.931c-0.025-1.313-0.697-1.745-1.544-1.745
			c-1.108,0-1.433,0.912-1.544,1.745H349.138z"/>
		<path d="M353.231,5.474c0-0.512-0.013-1.104-0.05-1.648h2.315c0.037,0.576,0.05,1.152,0.05,1.729h0.025
			c0.585-1.536,1.232-1.841,2.802-1.841v2.625c-0.175-0.032-0.361-0.063-0.636-0.063c-1.282,0-2.116,0.928-2.116,2.545v3.041h-2.391
			V5.474z"/>
		<path d="M361.671,9.348c0,0.432,0.112,0.72,0.299,0.912s0.473,0.24,0.784,0.24c0.498,0,1.245-0.097,1.245-0.881
			c0-0.56-0.561-0.752-1.046-0.848l-1.655-0.337c-1.195-0.239-1.893-0.976-1.893-2.225c0-2.289,2.041-2.689,3.411-2.689
			c2.714,0,3.449,1.009,3.499,2.689h-2.391c-0.037-0.432-0.162-0.688-0.312-0.816c-0.175-0.144-0.548-0.208-0.847-0.208
			c-0.386,0-0.896,0.208-0.896,0.704c0,0.576,0.585,0.721,1.096,0.833l1.619,0.336c1.369,0.288,1.88,1.072,1.88,2.4
			c0,2.449-2.416,2.705-3.798,2.705c-3.125,0-3.374-1.632-3.461-2.816H361.671z"/>
		<path d="M369.997,8.595c0.051,1.249,0.623,1.905,1.632,1.905c1.046,0,1.232-0.544,1.356-1.089h2.541
			c-0.498,2.545-2.204,2.753-3.936,2.753c-2.166,0-4.059-1.024-4.059-4.193c0-3.105,1.88-4.45,4.021-4.45
			c3.051,0,4.097,1.938,4.109,5.074H369.997z M373.123,6.931c-0.025-1.313-0.697-1.745-1.544-1.745
			c-1.108,0-1.432,0.912-1.544,1.745H373.123z"/>
		<path d="M383.827,8.595c0.049,1.249,0.622,1.905,1.631,1.905c1.046,0,1.232-0.544,1.357-1.089h2.539
			c-0.498,2.545-2.203,2.753-3.934,2.753c-2.167,0-4.06-1.024-4.06-4.193c0-3.105,1.88-4.45,4.021-4.45
			c3.051,0,4.097,1.938,4.109,5.074H383.827z M386.952,6.931c-0.025-1.313-0.697-1.745-1.544-1.745
			c-1.108,0-1.433,0.912-1.544,1.745H386.952z"/>
		<path d="M396.125,11.86h-2.951l-2.951-8.035h2.689l1.905,6.274l1.942-6.274h2.315L396.125,11.86z"/>
		<path d="M402.272,8.595c0.051,1.249,0.623,1.905,1.632,1.905c1.046,0,1.232-0.544,1.356-1.089h2.541
			c-0.498,2.545-2.204,2.753-3.936,2.753c-2.166,0-4.059-1.024-4.059-4.193c0-3.105,1.88-4.45,4.021-4.45
			c3.051,0,4.097,1.938,4.109,5.074H402.272z M405.398,6.931c-0.025-1.313-0.697-1.745-1.544-1.745
			c-1.108,0-1.432,0.912-1.544,1.745H405.398z"/>
		<path d="M409.492,5.474c0-0.512-0.013-1.104-0.05-1.648h2.315c0.025,0.48,0.05,0.96,0.05,1.44h0.025
			c0.622-1.072,1.557-1.745,2.652-1.745c2.278,0,3.137,1.665,3.137,3.762v4.578h-2.391V7.747c0-1.281-0.436-2.178-1.519-2.178
			c-0.983,0-1.83,0.977-1.83,2.754v3.537h-2.391V5.474z"/>
		<path d="M418.826,3.825h1.531V2.192l2.391-1.12v2.753h2.018v1.953h-2.018v2.513c0,1.12,0.112,1.713,1.071,1.713
			c0.224,0,0.572-0.032,0.946-0.097v1.953c-0.225,0.048-0.859,0.192-1.606,0.192c-1.83,0-2.802-0.913-2.802-2.865V5.778h-1.531
			V3.825z"/>
		<path d="M428.075,9.348c0,0.432,0.112,0.72,0.299,0.912s0.473,0.24,0.784,0.24c0.498,0,1.245-0.097,1.245-0.881
			c0-0.56-0.561-0.752-1.046-0.848l-1.655-0.337c-1.195-0.239-1.893-0.976-1.893-2.225c0-2.289,2.041-2.689,3.411-2.689
			c2.714,0,3.449,1.009,3.499,2.689h-2.391c-0.037-0.432-0.162-0.688-0.312-0.816c-0.175-0.144-0.548-0.208-0.847-0.208
			c-0.386,0-0.896,0.208-0.896,0.704c0,0.576,0.585,0.721,1.096,0.833l1.619,0.336c1.369,0.288,1.88,1.072,1.88,2.4
			c0,2.449-2.416,2.705-3.798,2.705c-3.125,0-3.374-1.632-3.461-2.816H428.075z"/>
		<path d="M438.828,6.194c0.125-2.097,1.955-2.674,3.599-2.674c2.44,0,3.835,0.753,3.835,3.474v3.073
			c0,0.593,0.013,1.201,0.05,1.793h-2.316c-0.024-0.272-0.049-0.864-0.049-1.297h-0.025c-0.572,1.217-1.644,1.601-2.702,1.601
			c-1.78,0-2.826-0.928-2.826-2.608c0-1.905,1.395-2.77,3.735-2.77h1.743c0-1.28-0.461-1.601-1.407-1.601
			c-0.884,0-1.158,0.448-1.17,1.009H438.828z M442.875,8.354c-1.606,0-1.942,0.545-1.942,1.217c0,0.496,0.361,0.832,1.033,0.832
			c1.557,0,1.905-1.216,1.905-2.049H442.875z"/>
		<path d="M448.227,5.474c0-0.512-0.013-1.104-0.05-1.648h2.315c0.025,0.48,0.05,0.96,0.05,1.44h0.025
			c0.622-1.072,1.557-1.745,2.652-1.745c2.278,0,3.137,1.665,3.137,3.762v4.578h-2.391V7.747c0-1.281-0.436-2.178-1.519-2.178
			c-0.983,0-1.83,0.977-1.83,2.754v3.537h-2.391V5.474z"/>
		<path d="M466.501,10.532c0,0.496,0.013,0.896,0.051,1.328h-2.316c-0.037-0.448-0.05-0.88-0.05-1.328
			c-0.548,0.832-1.245,1.632-2.802,1.632c-1.979,0-3.474-1.616-3.474-4.369c0-2.657,1.444-4.274,3.536-4.274
			c1.382,0,2.179,0.721,2.664,1.361V0.304h2.391V10.532z M462.256,10.308c1.083,0,1.854-0.977,1.854-2.4
			c0-1.553-0.771-2.529-1.854-2.529c-1.059,0-1.806,1.008-1.806,2.417C460.45,9.091,461.022,10.308,462.256,10.308z"/>
		<path d="M473.22,0.304h2.391V11.86h-2.391V0.304z"/>
		<path d="M480.327,2.545h-2.614V0.304h2.614V2.545z M477.825,3.825h2.391v8.035h-2.391V3.825z"/>
		<path d="M487.411,11.86h-2.951l-2.951-8.035h2.689l1.905,6.274l1.942-6.274h2.316L487.411,11.86z"/>
		<path d="M493.56,8.595c0.049,1.249,0.622,1.905,1.631,1.905c1.046,0,1.232-0.544,1.357-1.089h2.539
			c-0.498,2.545-2.203,2.753-3.934,2.753c-2.167,0-4.06-1.024-4.06-4.193c0-3.105,1.88-4.45,4.021-4.45
			c3.051,0,4.097,1.938,4.109,5.074H493.56z M496.685,6.931c-0.025-1.313-0.697-1.745-1.544-1.745c-1.108,0-1.433,0.912-1.544,1.745
			H496.685z"/>
		<path d="M500.777,5.474c0-0.512-0.013-1.104-0.05-1.648h2.315c0.038,0.576,0.05,1.152,0.05,1.729h0.025
			c0.585-1.536,1.232-1.841,2.801-1.841v2.625c-0.174-0.032-0.36-0.063-0.635-0.063c-1.282,0-2.116,0.928-2.116,2.545v3.041h-2.391
			V5.474z"/>
		<path d="M507.05,6.563h3.885v2.049h-3.885V6.563z"/>
		<path d="M514.769,8.595c0.049,1.249,0.622,1.905,1.631,1.905c1.046,0,1.232-0.544,1.357-1.089h2.539
			c-0.498,2.545-2.203,2.753-3.934,2.753c-2.167,0-4.06-1.024-4.06-4.193c0-3.105,1.88-4.45,4.021-4.45
			c3.051,0,4.097,1.938,4.109,5.074H514.769z M517.894,6.931c-0.025-1.313-0.697-1.745-1.544-1.745
			c-1.108,0-1.433,0.912-1.544,1.745H517.894z"/>
		<path d="M521.987,5.474c0-0.512-0.013-1.104-0.05-1.648h2.315c0.025,0.48,0.05,0.96,0.05,1.44h0.025
			c0.622-1.072,1.556-1.745,2.651-1.745c2.279,0,3.139,1.665,3.139,3.762v4.578h-2.391V7.747c0-1.281-0.437-2.178-1.52-2.178
			c-0.983,0-1.83,0.977-1.83,2.754v3.537h-2.391V5.474z"/>
		<path d="M531.77,9.491l3.761-3.777V5.682h-3.449V3.825h6.387V5.97l-3.922,4.002v0.032h4.233v1.856h-7.01V9.491z"/>
		<path d="M542.824,11.86l-3.213-8.035h2.789l1.793,5.522l1.918-5.522h2.353l-4.457,11.108h-2.54L542.824,11.86z"/>
		<path d="M549.656,5.474c0-0.512-0.013-1.104-0.05-1.648h2.315c0.025,0.48,0.05,0.96,0.05,1.44h0.025
			c0.598-1.137,1.395-1.745,2.577-1.745c0.934,0,1.817,0.545,2.241,1.81c0.523-1.073,1.382-1.81,2.64-1.81
			c1.332,0,2.951,0.625,2.951,3.778v4.562h-2.391V7.65c0-1.2-0.361-2.081-1.333-2.081c-0.797,0-1.456,0.833-1.456,2.018v4.273
			h-2.391V7.747c0-1.201-0.212-2.178-1.295-2.178c-0.835,0-1.494,0.977-1.494,2.449v3.842h-2.391V5.474z"/>
		<path d="M566.423,8.595c0.051,1.249,0.623,1.905,1.632,1.905c1.046,0,1.232-0.544,1.356-1.089h2.541
			c-0.498,2.545-2.204,2.753-3.936,2.753c-2.166,0-4.059-1.024-4.059-4.193c0-3.105,1.88-4.45,4.021-4.45
			c3.051,0,4.097,1.938,4.109,5.074H566.423z M569.549,6.931c-0.025-1.313-0.697-1.745-1.544-1.745
			c-1.108,0-1.432,0.912-1.544,1.745H569.549z"/>
		<path d="M578.072,6.194c0.125-2.097,1.955-2.674,3.599-2.674c2.44,0,3.835,0.753,3.835,3.474v3.073
			c0,0.593,0.013,1.201,0.05,1.793h-2.316c-0.024-0.272-0.049-0.864-0.049-1.297h-0.025c-0.572,1.217-1.644,1.601-2.702,1.601
			c-1.78,0-2.826-0.928-2.826-2.608c0-1.905,1.395-2.77,3.735-2.77h1.743c0-1.28-0.461-1.601-1.407-1.601
			c-0.884,0-1.158,0.448-1.17,1.009H578.072z M582.119,8.354c-1.606,0-1.942,0.545-1.942,1.217c0,0.496,0.361,0.832,1.033,0.832
			c1.557,0,1.905-1.216,1.905-2.049H582.119z"/>
		<path d="M587.471,0.304h2.391v4.578c0.485-0.641,1.282-1.361,2.664-1.361c2.092,0,3.536,1.617,3.536,4.274
			c0,2.753-1.494,4.369-3.474,4.369c-1.557,0-2.254-0.8-2.802-1.632c0,0.448-0.012,0.88-0.05,1.328h-2.315
			c0.037-0.433,0.05-0.832,0.05-1.328V0.304z M591.716,5.378c-1.083,0-1.854,0.977-1.854,2.529c0,1.424,0.771,2.4,1.854,2.4
			c1.233,0,1.806-1.217,1.806-2.513C593.521,6.386,592.774,5.378,591.716,5.378z"/>
		<path d="M597.614,5.474c0-0.512-0.013-1.104-0.05-1.648h2.315c0.025,0.48,0.05,0.96,0.05,1.44h0.025
			c0.622-1.072,1.556-1.745,2.651-1.745c2.279,0,3.139,1.665,3.139,3.762v4.578h-2.391V7.747c0-1.281-0.437-2.178-1.52-2.178
			c-0.983,0-1.83,0.977-1.83,2.754v3.537h-2.391V5.474z"/>
		<path d="M611.83,3.521c3.523,0,4.532,2.417,4.532,4.322c0,1.904-1.009,4.321-4.532,4.321s-4.532-2.417-4.532-4.321
			C607.298,5.938,608.307,3.521,611.83,3.521z M611.83,10.403c1.12,0,1.992-0.912,1.992-2.561s-0.872-2.562-1.992-2.562
			s-1.992,0.913-1.992,2.562S610.71,10.403,611.83,10.403z"/>
		<path d="M617.915,5.474c0-0.512-0.013-1.104-0.05-1.648h2.315c0.037,0.576,0.05,1.152,0.05,1.729h0.025
			c0.585-1.536,1.232-1.841,2.802-1.841v2.625c-0.175-0.032-0.361-0.063-0.636-0.063c-1.282,0-2.116,0.928-2.116,2.545v3.041h-2.391
			V5.474z"/>
		<path d="M624.375,5.474c0-0.512-0.013-1.104-0.05-1.648h2.315c0.025,0.48,0.05,0.96,0.05,1.44h0.025
			c0.598-1.137,1.395-1.745,2.577-1.745c0.934,0,1.817,0.545,2.241,1.81c0.523-1.073,1.382-1.81,2.64-1.81
			c1.332,0,2.951,0.625,2.951,3.778v4.562h-2.391V7.65c0-1.2-0.361-2.081-1.333-2.081c-0.797,0-1.456,0.833-1.456,2.018v4.273
			h-2.391V7.747c0-1.201-0.212-2.178-1.295-2.178c-0.835,0-1.494,0.977-1.494,2.449v3.842h-2.391V5.474z"/>
		<path d="M638.963,6.194c0.125-2.097,1.955-2.674,3.599-2.674c2.44,0,3.835,0.753,3.835,3.474v3.073
			c0,0.593,0.013,1.201,0.05,1.793h-2.316c-0.024-0.272-0.049-0.864-0.049-1.297h-0.025c-0.572,1.217-1.644,1.601-2.702,1.601
			c-1.78,0-2.826-0.928-2.826-2.608c0-1.905,1.395-2.77,3.735-2.77h1.743c0-1.28-0.461-1.601-1.407-1.601
			c-0.884,0-1.158,0.448-1.17,1.009H638.963z M643.01,8.354c-1.606,0-1.942,0.545-1.942,1.217c0,0.496,0.361,0.832,1.033,0.832
			c1.557,0,1.905-1.216,1.905-2.049H643.01z"/>
		<path d="M648.46,0.304h2.391V11.86h-2.391V0.304z"/>
		<path d="M655.567,2.545h-2.614V0.304h2.614V2.545z M653.065,3.825h2.391v8.035h-2.391V3.825z"/>
		<path d="M656.762,3.825h1.531V2.192l2.391-1.12v2.753h2.018v1.953h-2.018v2.513c0,1.12,0.112,1.713,1.071,1.713
			c0.224,0,0.572-0.032,0.946-0.097v1.953c-0.225,0.048-0.859,0.192-1.606,0.192c-1.83,0-2.802-0.913-2.802-2.865V5.778h-1.531
			V3.825z"/>
		<path d="M666.634,2.545h-2.615V0.304h2.615V2.545z M664.131,3.825h2.391v8.035h-2.391V3.825z"/>
		<path d="M670.642,8.595c0.049,1.249,0.622,1.905,1.631,1.905c1.046,0,1.232-0.544,1.357-1.089h2.539
			c-0.498,2.545-2.203,2.753-3.934,2.753c-2.167,0-4.06-1.024-4.06-4.193c0-3.105,1.88-4.45,4.021-4.45
			c3.051,0,4.097,1.938,4.109,5.074H670.642z M673.767,6.931c-0.025-1.313-0.697-1.745-1.544-1.745
			c-1.108,0-1.433,0.912-1.544,1.745H673.767z"/>
		<path d="M679.839,9.348c0,0.432,0.112,0.72,0.299,0.912s0.473,0.24,0.784,0.24c0.498,0,1.245-0.097,1.245-0.881
			c0-0.56-0.561-0.752-1.046-0.848l-1.655-0.337c-1.195-0.239-1.893-0.976-1.893-2.225c0-2.289,2.041-2.689,3.411-2.689
			c2.714,0,3.449,1.009,3.499,2.689h-2.391c-0.037-0.432-0.162-0.688-0.312-0.816c-0.175-0.144-0.548-0.208-0.847-0.208
			c-0.386,0-0.896,0.208-0.896,0.704c0,0.576,0.585,0.721,1.096,0.833l1.619,0.336c1.369,0.288,1.88,1.072,1.88,2.4
			c0,2.449-2.416,2.705-3.798,2.705c-3.125,0-3.374-1.632-3.461-2.816H679.839z"/>
		<path d="M698.897,10.532c0,0.496,0.013,0.896,0.051,1.328h-2.316c-0.037-0.448-0.05-0.88-0.05-1.328
			c-0.548,0.832-1.245,1.632-2.802,1.632c-1.979,0-3.474-1.616-3.474-4.369c0-2.657,1.444-4.274,3.536-4.274
			c1.382,0,2.179,0.721,2.664,1.361V0.304h2.391V10.532z M694.652,10.308c1.083,0,1.854-0.977,1.854-2.4
			c0-1.553-0.771-2.529-1.854-2.529c-1.059,0-1.806,1.008-1.806,2.417C692.847,9.091,693.419,10.308,694.652,10.308z"/>
		<path d="M703.513,2.545h-2.614V0.304h2.614V2.545z M701.011,3.825h2.391v8.035h-2.391V3.825z"/>
		<path d="M713.647,10.532c0,0.496,0.012,0.896,0.049,1.328h-2.315c-0.037-0.448-0.05-0.88-0.05-1.328
			c-0.548,0.832-1.245,1.632-2.802,1.632c-1.979,0-3.474-1.616-3.474-4.369c0-2.657,1.444-4.274,3.536-4.274
			c1.382,0,2.179,0.721,2.665,1.361V0.304h2.391V10.532z M709.401,10.308c1.083,0,1.855-0.977,1.855-2.4
			c0-1.553-0.772-2.529-1.855-2.529c-1.059,0-1.806,1.008-1.806,2.417C707.596,9.091,708.169,10.308,709.401,10.308z"/>
		<path d="M119.828,24.674c0-0.512-0.013-1.104-0.05-1.648h2.315c0.025,0.48,0.05,0.96,0.05,1.44h0.025
			c0.622-1.072,1.557-1.745,2.652-1.745c2.278,0,3.137,1.665,3.137,3.762v4.578h-2.391v-4.113c0-1.281-0.436-2.178-1.519-2.178
			c-0.983,0-1.83,0.977-1.83,2.754v3.537h-2.391V24.674z"/>
		<path d="M134.044,22.721c3.523,0,4.532,2.417,4.532,4.322c0,1.904-1.009,4.321-4.532,4.321s-4.532-2.417-4.532-4.321
			C129.512,25.138,130.521,22.721,134.044,22.721z M134.044,29.604c1.121,0,1.992-0.912,1.992-2.561s-0.871-2.562-1.992-2.562
			s-1.992,0.913-1.992,2.562S132.923,29.604,134.044,29.604z"/>
		<path d="M139.319,23.025h1.531v-1.633l2.391-1.12v2.753h2.018v1.953h-2.018v2.513c0,1.12,0.112,1.713,1.071,1.713
			c0.224,0,0.572-0.032,0.946-0.097v1.953c-0.225,0.048-0.859,0.192-1.606,0.192c-1.83,0-2.802-0.913-2.802-2.865v-3.409h-1.531
			V23.025z"/>
		<path d="M159.325,29.732c0,0.496,0.012,0.896,0.049,1.328h-2.315c-0.037-0.448-0.05-0.88-0.05-1.328
			c-0.548,0.832-1.245,1.632-2.802,1.632c-1.979,0-3.474-1.616-3.474-4.369c0-2.657,1.444-4.274,3.536-4.274
			c1.382,0,2.179,0.721,2.665,1.361v-4.578h2.391V29.732z M155.079,29.508c1.083,0,1.855-0.977,1.855-2.4
			c0-1.553-0.772-2.529-1.855-2.529c-1.059,0-1.806,1.008-1.806,2.417C153.273,28.291,153.847,29.508,155.079,29.508z"/>
		<path d="M163.94,21.745h-2.614v-2.241h2.614V21.745z M161.438,23.025h2.391v8.035h-2.391V23.025z"/>
		<path d="M166.666,24.979h-1.444v-1.953h1.444c0-3.105,1.108-3.617,3.399-3.617c0.262,0,0.784,0.048,1.046,0.096v1.825
			c-0.187-0.032-0.411-0.064-0.647-0.064c-0.922,0-1.369,0.272-1.369,1.761h1.88v1.953h-1.918v6.082h-2.391V24.979z"/>
		<path d="M173.126,24.979h-1.444v-1.953h1.444c0-3.105,1.108-3.617,3.399-3.617c0.262,0,0.784,0.048,1.046,0.096v1.825
			c-0.187-0.032-0.411-0.064-0.647-0.064c-0.921,0-1.37,0.272-1.37,1.761h1.881v1.953h-1.918v6.082h-2.391V24.979z"/>
		<path d="M180.868,27.795c0.051,1.249,0.623,1.905,1.632,1.905c1.046,0,1.232-0.544,1.356-1.089h2.541
			c-0.498,2.545-2.204,2.753-3.936,2.753c-2.166,0-4.059-1.024-4.059-4.193c0-3.105,1.88-4.45,4.021-4.45
			c3.051,0,4.097,1.938,4.109,5.074H180.868z M183.994,26.131c-0.025-1.313-0.697-1.745-1.544-1.745
			c-1.108,0-1.432,0.912-1.544,1.745H183.994z"/>
		<path d="M188.087,24.674c0-0.512-0.013-1.104-0.05-1.648h2.315c0.037,0.576,0.05,1.152,0.05,1.729h0.025
			c0.585-1.536,1.232-1.841,2.802-1.841v2.625c-0.175-0.032-0.361-0.063-0.636-0.063c-1.282,0-2.116,0.928-2.116,2.545v3.041h-2.391
			V24.674z"/>
		<path d="M199.152,19.504h2.391v4.578c0.485-0.641,1.282-1.361,2.664-1.361c2.092,0,3.536,1.617,3.536,4.274
			c0,2.753-1.494,4.369-3.474,4.369c-1.557,0-2.254-0.8-2.802-1.632c0,0.448-0.012,0.88-0.05,1.328h-2.315
			c0.037-0.433,0.05-0.832,0.05-1.328V19.504z M203.397,24.578c-1.083,0-1.854,0.977-1.854,2.529c0,1.424,0.771,2.4,1.854,2.4
			c1.233,0,1.806-1.217,1.806-2.513C205.203,25.586,204.456,24.578,203.397,24.578z"/>
		<path d="M211.302,27.795c0.049,1.249,0.622,1.905,1.631,1.905c1.046,0,1.232-0.544,1.357-1.089h2.539
			c-0.498,2.545-2.203,2.753-3.934,2.753c-2.167,0-4.06-1.024-4.06-4.193c0-3.105,1.88-4.45,4.021-4.45
			c3.051,0,4.097,1.938,4.109,5.074H211.302z M214.427,26.131c-0.025-1.313-0.697-1.745-1.544-1.745
			c-1.108,0-1.433,0.912-1.544,1.745H214.427z"/>
		<path d="M217.71,23.025h1.531v-1.633l2.391-1.12v2.753h2.018v1.953h-2.018v2.513c0,1.12,0.112,1.713,1.071,1.713
			c0.224,0,0.572-0.032,0.946-0.097v1.953c-0.225,0.048-0.859,0.192-1.606,0.192c-1.83,0-2.802-0.913-2.802-2.865v-3.409h-1.531
			V23.025z"/>
		<path d="M235.899,31.061h-2.802l-1.743-6.179h-0.025l-1.73,6.179h-2.802l-2.64-8.035h2.689l1.482,5.986h0.024l1.644-5.986h2.951
			l1.668,5.986h0.025l1.605-5.986h2.291L235.899,31.061z"/>
		<path d="M241.733,27.795c0.051,1.249,0.623,1.905,1.632,1.905c1.046,0,1.232-0.544,1.356-1.089h2.541
			c-0.498,2.545-2.204,2.753-3.936,2.753c-2.166,0-4.059-1.024-4.059-4.193c0-3.105,1.88-4.45,4.021-4.45
			c3.051,0,4.097,1.938,4.109,5.074H241.733z M244.859,26.131c-0.025-1.313-0.697-1.745-1.544-1.745
			c-1.108,0-1.432,0.912-1.544,1.745H244.859z"/>
		<path d="M250.958,27.795c0.049,1.249,0.622,1.905,1.631,1.905c1.046,0,1.232-0.544,1.357-1.089h2.539
			c-0.498,2.545-2.203,2.753-3.934,2.753c-2.167,0-4.06-1.024-4.06-4.193c0-3.105,1.88-4.45,4.021-4.45
			c3.051,0,4.097,1.938,4.109,5.074H250.958z M254.083,26.131c-0.025-1.313-0.697-1.745-1.544-1.745
			c-1.108,0-1.433,0.912-1.544,1.745H254.083z"/>
		<path d="M258.176,24.674c0-0.512-0.013-1.104-0.05-1.648h2.315c0.025,0.48,0.05,0.96,0.05,1.44h0.025
			c0.622-1.072,1.557-1.745,2.652-1.745c2.278,0,3.137,1.665,3.137,3.762v4.578h-2.391v-4.113c0-1.281-0.436-2.178-1.519-2.178
			c-0.983,0-1.83,0.977-1.83,2.754v3.537h-2.391V24.674z"/>
		<path d="M272.116,23.025h1.531v-1.633l2.391-1.12v2.753h2.018v1.953h-2.018v2.513c0,1.12,0.112,1.713,1.071,1.713
			c0.224,0,0.572-0.032,0.946-0.097v1.953c-0.225,0.048-0.859,0.192-1.606,0.192c-1.83,0-2.802-0.913-2.802-2.865v-3.409h-1.531
			V23.025z"/>
		<path d="M279.386,19.504h2.391v4.897c0.771-1.168,1.481-1.681,2.64-1.681c2.241,0,3.101,1.665,3.101,3.762v4.578h-2.391v-4.113
			c0-1.281-0.437-2.178-1.52-2.178c-0.983,0-1.83,0.977-1.83,2.754v3.537h-2.391V19.504z"/>
		<path d="M291.534,27.795c0.049,1.249,0.622,1.905,1.631,1.905c1.046,0,1.232-0.544,1.357-1.089h2.539
			c-0.498,2.545-2.203,2.753-3.934,2.753c-2.167,0-4.06-1.024-4.06-4.193c0-3.105,1.88-4.45,4.021-4.45
			c3.051,0,4.097,1.938,4.109,5.074H291.534z M294.659,26.131c-0.025-1.313-0.697-1.745-1.544-1.745
			c-1.108,0-1.433,0.912-1.544,1.745H294.659z"/>
		<path d="M303.595,19.504h2.615v9.188h5.08v2.369h-7.695V19.504z"/>
		<path d="M312.568,19.504h2.614v11.557h-2.614V19.504z"/>
		<path d="M317.349,19.504h5.018c2.017,0,3.536,1.152,3.536,3.794c0,2.32-1.134,3.665-3.835,3.665h-2.104v4.098h-2.614V19.504z
			 M319.963,24.722h1.606c0.983,0,1.644-0.32,1.644-1.473c0-0.992-0.511-1.504-1.444-1.504h-1.806V24.722z"/>
		<path d="M327.318,19.504h2.614v11.557h-2.614V19.504z"/>
		<path d="M334.7,21.873h-3.461v-2.369h9.537v2.369h-3.461v9.188H334.7V21.873z"/>
		<path d="M347.085,19.2c3.761,0,5.342,2.593,5.342,6.082s-1.581,6.082-5.342,6.082c-3.76,0-5.341-2.593-5.341-6.082
			S343.325,19.2,347.085,19.2z M347.085,28.996c1.992,0,2.652-1.681,2.652-3.714s-0.66-3.714-2.652-3.714s-2.651,1.681-2.651,3.714
			S345.093,28.996,347.085,28.996z"/>
		<path d="M354.328,19.504h5.491c2.166,0,3.398,1.009,3.398,3.025c0,1.473-0.934,2.497-2.278,2.801v0.032
			c0.76,0.064,1.47,0.288,1.769,1.009c0.436,1.056,0.485,3.489,0.859,4.689h-2.777c-0.286-1.12-0.249-2.785-0.498-3.585
			c-0.162-0.528-0.561-0.801-1.605-0.801h-1.744v4.386h-2.614V19.504z M356.942,24.434h2.08c1.195,0,1.581-0.479,1.581-1.36
			c0-1.12-0.685-1.328-1.942-1.328h-1.719V24.434z"/>
		<path d="M367.054,18.824c1.525,0,2.76,1.585,2.76,3.543c0,1.957-1.234,3.542-2.76,3.542s-2.76-1.585-2.76-3.542
			C364.294,20.409,365.528,18.824,367.054,18.824z M367.054,24.772c1.039,0,1.83-1.072,1.83-2.405c0-1.334-0.791-2.406-1.83-2.406
			s-1.83,1.072-1.83,2.406C365.224,23.7,366.015,24.772,367.054,24.772z M365.964,20.475h1.083c0.791,0,1.241,0.261,1.241,1.137
			c0,0.69-0.334,0.951-0.624,0.988l0.581,1.474h-0.72l-0.559-1.427h-0.334v1.427h-0.669V20.475z M366.633,21.957h0.516
			c0.283,0,0.429-0.112,0.429-0.401c0-0.279-0.168-0.392-0.479-0.392h-0.465V21.957z"/>
		<path d="M375.393,25.395c0.125-2.097,1.955-2.674,3.599-2.674c2.44,0,3.835,0.753,3.835,3.474v3.073
			c0,0.593,0.013,1.201,0.05,1.793h-2.316c-0.024-0.272-0.049-0.864-0.049-1.297h-0.025c-0.572,1.217-1.644,1.601-2.702,1.601
			c-1.78,0-2.826-0.928-2.826-2.608c0-1.905,1.395-2.77,3.735-2.77h1.743c0-1.28-0.461-1.601-1.407-1.601
			c-0.884,0-1.158,0.448-1.17,1.009H375.393z M379.439,27.555c-1.606,0-1.942,0.545-1.942,1.217c0,0.496,0.361,0.832,1.033,0.832
			c1.557,0,1.905-1.216,1.905-2.049H379.439z"/>
		<path d="M384.791,24.674c0-0.512-0.013-1.104-0.05-1.648h2.315c0.025,0.48,0.05,0.96,0.05,1.44h0.025
			c0.622-1.072,1.557-1.745,2.652-1.745c2.278,0,3.137,1.665,3.137,3.762v4.578h-2.391v-4.113c0-1.281-0.436-2.178-1.519-2.178
			c-0.983,0-1.83,0.977-1.83,2.754v3.537h-2.391V24.674z"/>
		<path d="M403.065,29.732c0,0.496,0.012,0.896,0.049,1.328h-2.315c-0.037-0.448-0.05-0.88-0.05-1.328
			c-0.548,0.832-1.245,1.632-2.802,1.632c-1.979,0-3.474-1.616-3.474-4.369c0-2.657,1.444-4.274,3.536-4.274
			c1.382,0,2.179,0.721,2.665,1.361v-4.578h2.391V29.732z M398.819,29.508c1.083,0,1.855-0.977,1.855-2.4
			c0-1.553-0.772-2.529-1.855-2.529c-1.059,0-1.806,1.008-1.806,2.417C397.014,28.291,397.587,29.508,398.819,29.508z"/>
		<path d="M409.685,24.354c0-0.496-0.013-0.896-0.05-1.328h2.315c0.037,0.448,0.05,0.88,0.05,1.328
			c0.548-0.832,1.245-1.633,2.802-1.633c1.979,0,3.474,1.617,3.474,4.37c0,2.657-1.444,4.273-3.536,4.273
			c-1.382,0-2.179-0.72-2.664-1.36v4.13h-2.391V24.354z M413.931,24.578c-1.084,0-1.855,0.977-1.855,2.4
			c0,1.553,0.771,2.529,1.855,2.529c1.058,0,1.805-1.009,1.805-2.417C415.735,25.794,415.163,24.578,413.931,24.578z"/>
		<path d="M419.929,19.504h2.391v11.557h-2.391V19.504z"/>
		<path d="M424.259,25.395c0.125-2.097,1.955-2.674,3.599-2.674c2.44,0,3.835,0.753,3.835,3.474v3.073
			c0,0.593,0.013,1.201,0.05,1.793h-2.315c-0.025-0.272-0.051-0.864-0.051-1.297h-0.024c-0.573,1.217-1.644,1.601-2.702,1.601
			c-1.78,0-2.826-0.928-2.826-2.608c0-1.905,1.395-2.77,3.735-2.77h1.743c0-1.28-0.461-1.601-1.407-1.601
			c-0.884,0-1.157,0.448-1.17,1.009H424.259z M428.306,27.555c-1.606,0-1.942,0.545-1.942,1.217c0,0.496,0.361,0.832,1.033,0.832
			c1.557,0,1.905-1.216,1.905-2.049H428.306z"/>
		<path d="M441.327,28.052c-0.225,2.608-2.241,3.313-4.084,3.313c-1.855,0-4.047-1.088-4.047-4.289c0-3.218,2.042-4.354,4.209-4.354
			c1.705,0,3.623,0.673,3.847,3.153h-2.465c-0.138-0.992-0.61-1.393-1.382-1.393c-1.071,0-1.669,1.073-1.669,2.546
			c0,1.408,0.498,2.576,1.669,2.576c0.784,0,1.356-0.512,1.382-1.552H441.327z"/>
		<path d="M444.886,27.795c0.049,1.249,0.622,1.905,1.631,1.905c1.046,0,1.232-0.544,1.357-1.089h2.539
			c-0.498,2.545-2.203,2.753-3.934,2.753c-2.167,0-4.06-1.024-4.06-4.193c0-3.105,1.88-4.45,4.021-4.45
			c3.051,0,4.097,1.938,4.109,5.074H444.886z M448.011,26.131c-0.025-1.313-0.697-1.745-1.544-1.745
			c-1.108,0-1.433,0.912-1.544,1.745H448.011z"/>
		<path d="M452.104,19.504h2.391v4.578c0.485-0.641,1.282-1.361,2.664-1.361c2.092,0,3.536,1.617,3.536,4.274
			c0,2.753-1.494,4.369-3.474,4.369c-1.557,0-2.254-0.8-2.802-1.632c0,0.448-0.012,0.88-0.05,1.328h-2.315
			c0.037-0.433,0.05-0.832,0.05-1.328V19.504z M456.349,24.578c-1.083,0-1.854,0.977-1.854,2.529c0,1.424,0.771,2.4,1.854,2.4
			c1.233,0,1.806-1.217,1.806-2.513C458.154,25.586,457.407,24.578,456.349,24.578z"/>
		<path d="M466.319,22.721c3.523,0,4.532,2.417,4.532,4.322c0,1.904-1.009,4.321-4.532,4.321s-4.532-2.417-4.532-4.321
			C461.787,25.138,462.796,22.721,466.319,22.721z M466.319,29.604c1.121,0,1.992-0.912,1.992-2.561s-0.871-2.562-1.992-2.562
			s-1.992,0.913-1.992,2.562S465.198,29.604,466.319,29.604z"/>
		<path d="M472.218,25.763h3.885v2.049h-3.885V25.763z"/>
		<path d="M477.121,23.025h1.531v-1.633l2.391-1.12v2.753h2.018v1.953h-2.018v2.513c0,1.12,0.112,1.713,1.071,1.713
			c0.224,0,0.572-0.032,0.946-0.097v1.953c-0.225,0.048-0.859,0.192-1.606,0.192c-1.83,0-2.802-0.913-2.802-2.865v-3.409h-1.531
			V23.025z"/>
		<path d="M484.391,24.674c0-0.512-0.013-1.104-0.05-1.648h2.315c0.038,0.576,0.05,1.152,0.05,1.729h0.025
			c0.585-1.536,1.232-1.841,2.801-1.841v2.625c-0.174-0.032-0.36-0.063-0.635-0.063c-1.282,0-2.116,0.928-2.116,2.545v3.041h-2.391
			V24.674z"/>
		<path d="M492.854,27.795c0.051,1.249,0.623,1.905,1.632,1.905c1.046,0,1.232-0.544,1.356-1.089h2.541
			c-0.498,2.545-2.204,2.753-3.936,2.753c-2.166,0-4.059-1.024-4.059-4.193c0-3.105,1.88-4.45,4.021-4.45
			c3.051,0,4.097,1.938,4.109,5.074H492.854z M495.98,26.131c-0.025-1.313-0.697-1.745-1.544-1.745
			c-1.108,0-1.432,0.912-1.544,1.745H495.98z"/>
		<path d="M499.899,25.395c0.125-2.097,1.955-2.674,3.599-2.674c2.44,0,3.835,0.753,3.835,3.474v3.073
			c0,0.593,0.013,1.201,0.05,1.793h-2.315c-0.025-0.272-0.051-0.864-0.051-1.297h-0.024c-0.573,1.217-1.644,1.601-2.702,1.601
			c-1.78,0-2.826-0.928-2.826-2.608c0-1.905,1.395-2.77,3.735-2.77h1.743c0-1.28-0.461-1.601-1.407-1.601
			c-0.884,0-1.157,0.448-1.17,1.009H499.899z M503.946,27.555c-1.606,0-1.942,0.545-1.942,1.217c0,0.496,0.361,0.832,1.033,0.832
			c1.557,0,1.905-1.216,1.905-2.049H503.946z"/>
		<path d="M508.488,23.025h1.531v-1.633l2.391-1.12v2.753h2.018v1.953h-2.018v2.513c0,1.12,0.112,1.713,1.071,1.713
			c0.224,0,0.572-0.032,0.946-0.097v1.953c-0.225,0.048-0.859,0.192-1.606,0.192c-1.83,0-2.802-0.913-2.802-2.865v-3.409h-1.531
			V23.025z"/>
		<path d="M517.763,27.795c0.049,1.249,0.622,1.905,1.631,1.905c1.046,0,1.232-0.544,1.357-1.089h2.539
			c-0.498,2.545-2.203,2.753-3.934,2.753c-2.167,0-4.06-1.024-4.06-4.193c0-3.105,1.88-4.45,4.021-4.45
			c3.051,0,4.097,1.938,4.109,5.074H517.763z M520.888,26.131c-0.025-1.313-0.697-1.745-1.544-1.745
			c-1.108,0-1.433,0.912-1.544,1.745H520.888z"/>
		<path d="M533.11,29.732c0,0.496,0.013,0.896,0.051,1.328h-2.316c-0.037-0.448-0.05-0.88-0.05-1.328
			c-0.548,0.832-1.245,1.632-2.802,1.632c-1.979,0-3.474-1.616-3.474-4.369c0-2.657,1.444-4.274,3.536-4.274
			c1.382,0,2.179,0.721,2.664,1.361v-4.578h2.391V29.732z M528.865,29.508c1.083,0,1.854-0.977,1.854-2.4
			c0-1.553-0.771-2.529-1.854-2.529c-1.059,0-1.806,1.008-1.806,2.417C527.06,28.291,527.632,29.508,528.865,29.508z"/>
		<path d="M545.47,29.315h-0.024c-0.561,1.153-1.73,1.633-2.789,1.633c-2.005,0-3.399-1.809-3.399-4.113
			c0-2.545,1.407-4.114,3.449-4.114c1.245,0,2.191,0.561,2.814,1.585h0.024c0-0.496,0.013-0.928,0.05-1.28h2.316
			c-0.025,0.32-0.051,0.816-0.051,1.28v5.538c0,3.778-1.854,4.594-4.494,4.594c-3.412,0-3.735-1.488-3.835-2.849h2.54
			c0.074,0.48,0.249,0.752,0.498,0.896c0.262,0.16,0.572,0.191,0.908,0.191c1.333,0,1.992-0.592,1.992-2.736V29.315z
			 M543.603,28.996c1.195,0,1.867-0.896,1.867-2.161c0-1.36-0.834-2.161-1.893-2.161c-1.157,0-1.78,0.912-1.78,2.161
			C541.797,28.067,542.47,28.996,543.603,28.996z"/>
		<path d="M549.874,24.674c0-0.512-0.013-1.104-0.05-1.648h2.315c0.037,0.576,0.05,1.152,0.05,1.729h0.025
			c0.585-1.536,1.232-1.841,2.802-1.841v2.625c-0.175-0.032-0.361-0.063-0.636-0.063c-1.282,0-2.116,0.928-2.116,2.545v3.041h-2.391
			V24.674z"/>
		<path d="M560.405,22.721c3.523,0,4.532,2.417,4.532,4.322c0,1.904-1.009,4.321-4.532,4.321s-4.532-2.417-4.532-4.321
			C555.873,25.138,556.882,22.721,560.405,22.721z M560.405,29.604c1.121,0,1.992-0.912,1.992-2.561s-0.871-2.562-1.992-2.562
			s-1.992,0.913-1.992,2.562S559.284,29.604,560.405,29.604z"/>
		<path d="M574.622,29.412c0,0.512,0.012,1.104,0.049,1.648h-2.315c-0.024-0.48-0.05-0.96-0.05-1.44h-0.025
			c-0.622,1.072-1.556,1.744-2.651,1.744c-2.278,0-3.138-1.664-3.138-3.761v-4.578h2.391v4.113c0,1.281,0.436,2.177,1.519,2.177
			c0.983,0,1.831-0.976,1.831-2.753v-3.537h2.391V29.412z"/>
		<path d="M576.635,24.354c0-0.496-0.013-0.896-0.05-1.328h2.315c0.038,0.448,0.05,0.88,0.05,1.328
			c0.548-0.832,1.245-1.633,2.802-1.633c1.979,0,3.474,1.617,3.474,4.37c0,2.657-1.444,4.273-3.536,4.273
			c-1.382,0-2.179-0.72-2.664-1.36v4.13h-2.391V24.354z M580.88,24.578c-1.083,0-1.854,0.977-1.854,2.4
			c0,1.553,0.771,2.529,1.854,2.529c1.059,0,1.806-1.009,1.806-2.417C582.686,25.794,582.113,24.578,580.88,24.578z"/>
		<path d="M588.759,28.548c0,0.432,0.112,0.72,0.299,0.912s0.473,0.24,0.784,0.24c0.498,0,1.245-0.097,1.245-0.881
			c0-0.56-0.561-0.752-1.046-0.848l-1.655-0.337c-1.195-0.239-1.893-0.976-1.893-2.225c0-2.289,2.041-2.689,3.411-2.689
			c2.714,0,3.449,1.009,3.499,2.689h-2.391c-0.037-0.432-0.162-0.688-0.312-0.816c-0.175-0.144-0.548-0.208-0.847-0.208
			c-0.386,0-0.896,0.208-0.896,0.704c0,0.576,0.585,0.721,1.096,0.833l1.619,0.336c1.369,0.288,1.88,1.072,1.88,2.4
			c0,2.449-2.416,2.705-3.798,2.705c-3.125,0-3.374-1.632-3.461-2.816H588.759z"/>
		<path d="M596.462,20.978c-0.53,0.438-0.843,0.588-1.445,0.83V20.25c0.625-0.232,1.271-0.699,1.692-1.025h1.191v6.508h-1.438
			V20.978z"/>
	</g>
</g>
</svg>
