<?xml version="1.0" encoding="utf-8"?>
<!-- Generator: Adobe Illustrator 17.0.0, SVG Export Plug-In . SVG Version: 6.00 Build 0)  -->
<!DOCTYPE svg PUBLIC "-//W3C//DTD SVG 1.1//EN" "http://www.w3.org/Graphics/SVG/1.1/DTD/svg11.dtd">
<svg version="1.1" id="Layer_1" xmlns="http://www.w3.org/2000/svg" xmlns:xlink="http://www.w3.org/1999/xlink" x="0px" y="0px"
	 width="889.437px" height="48.332px" viewBox="0 0 889.437 48.332" enable-background="new 0 0 889.437 48.332"
	 xml:space="preserve">
<g>
	<g>
		<path d="M0,0.855h3.269v11.482h6.35v2.96H0V0.855z"/>
		<path d="M11.218,0.855h3.269v14.443h-3.269V0.855z"/>
		<path d="M17.192,0.855h6.272c2.521,0,4.42,1.44,4.42,4.741c0,2.901-1.416,4.581-4.794,4.581h-2.63v5.121h-3.269V0.855z
			 M20.461,7.376h2.008c1.229,0,2.055-0.4,2.055-1.84c0-1.24-0.639-1.88-1.806-1.88h-2.257V7.376z"/>
		<path d="M29.654,0.855h3.269v14.443h-3.269V0.855z"/>
		<path d="M38.882,3.816h-4.327v-2.96h11.923v2.96H42.15v11.482h-3.269V3.816z"/>
		<path d="M54.364,0.475c4.7,0,6.677,3.241,6.677,7.602s-1.977,7.602-6.677,7.602s-6.677-3.241-6.677-7.602
			S49.664,0.475,54.364,0.475z M54.364,12.718c2.49,0,3.315-2.101,3.315-4.641s-0.825-4.641-3.315-4.641s-3.315,2.1-3.315,4.641
			S51.874,12.718,54.364,12.718z"/>
		<path d="M63.417,0.855h6.863c2.708,0,4.249,1.26,4.249,3.781c0,1.84-1.167,3.121-2.848,3.5v0.04c0.949,0.08,1.836,0.36,2.21,1.26
			c0.544,1.32,0.606,4.361,1.073,5.861h-3.471c-0.357-1.4-0.311-3.481-0.622-4.481c-0.202-0.66-0.7-1-2.008-1h-2.179v5.481h-3.269
			V0.855z M66.686,7.017h2.599c1.494,0,1.977-0.6,1.977-1.7c0-1.4-0.855-1.661-2.428-1.661h-2.147V7.017z"/>
		<path d="M79.318,0c1.903,0,3.443,1.981,3.443,4.43s-1.54,4.43-3.443,4.43c-1.904,0-3.444-1.982-3.444-4.43S77.414,0,79.318,0z
			 M79.318,7.438c1.296,0,2.283-1.341,2.283-3.008s-0.987-3.008-2.283-3.008c-1.297,0-2.284,1.341-2.284,3.008
			S78.021,7.438,79.318,7.438z M77.958,2.063h1.351c0.988,0,1.55,0.327,1.55,1.422c0,0.863-0.417,1.189-0.779,1.236l0.726,1.842
			h-0.897l-0.698-1.784h-0.417v1.784h-0.834V2.063z M78.792,3.917h0.644c0.354,0,0.535-0.14,0.535-0.501
			c0-0.35-0.209-0.49-0.599-0.49h-0.58V3.917z"/>
		<path d="M84.38,5.256h2.896v3.081H84.38V5.256z M84.38,12.218h2.896v3.081H84.38V12.218z"/>
		<path d="M95.925,0.855h6.272c2.521,0,4.42,1.44,4.42,4.741c0,2.901-1.416,4.581-4.794,4.581h-2.63v5.121h-3.269V0.855z
			 M99.193,7.376h2.008c1.229,0,2.055-0.4,2.055-1.84c0-1.24-0.639-1.88-1.806-1.88h-2.257V7.376z"/>
		<path d="M108.403,7.316c0-0.64-0.016-1.38-0.063-2.06h2.896c0.046,0.72,0.062,1.44,0.062,2.16h0.031
			c0.731-1.92,1.541-2.3,3.502-2.3v3.281c-0.218-0.04-0.451-0.08-0.794-0.08c-1.603,0-2.646,1.16-2.646,3.181v3.801h-2.988V7.316z"
			/>
		<path d="M121.566,4.876c4.405,0,5.666,3.021,5.666,5.401s-1.261,5.401-5.666,5.401c-4.404,0-5.665-3.021-5.665-5.401
			S117.162,4.876,121.566,4.876z M121.566,13.478c1.401,0,2.49-1.14,2.49-3.201s-1.089-3.201-2.49-3.201
			c-1.4,0-2.49,1.14-2.49,3.201S120.166,13.478,121.566,13.478z"/>
		<path d="M135.523,15.298h-3.688l-3.688-10.042h3.362l2.381,7.841l2.428-7.841h2.896L135.523,15.298z"/>
		<path d="M143.209,11.217c0.063,1.561,0.778,2.381,2.039,2.381c1.307,0,1.541-0.68,1.696-1.36h3.175
			c-0.622,3.181-2.755,3.44-4.918,3.44c-2.708,0-5.074-1.28-5.074-5.241c0-3.881,2.351-5.562,5.027-5.562
			c3.813,0,5.121,2.42,5.136,6.341H143.209z M147.115,9.137c-0.031-1.641-0.871-2.181-1.93-2.181c-1.385,0-1.79,1.14-1.93,2.181
			H147.115z"/>
		<path d="M152.231,7.316c0-0.64-0.016-1.38-0.063-2.06h2.896c0.03,0.6,0.062,1.2,0.062,1.8h0.031
			c0.778-1.34,1.945-2.181,3.315-2.181c2.848,0,3.922,2.081,3.922,4.701v5.721h-2.988v-5.141c0-1.6-0.545-2.721-1.898-2.721
			c-1.229,0-2.288,1.22-2.288,3.441v4.421h-2.988V7.316z"/>
		<path d="M173.144,12.158c0,0.54,0.14,0.9,0.374,1.14c0.233,0.24,0.591,0.3,0.98,0.3c0.622,0,1.556-0.12,1.556-1.101
			c0-0.7-0.7-0.94-1.307-1.06l-2.07-0.42c-1.494-0.3-2.366-1.22-2.366-2.781c0-2.86,2.553-3.361,4.265-3.361
			c3.394,0,4.312,1.26,4.374,3.361h-2.988c-0.047-0.54-0.203-0.86-0.39-1.02c-0.218-0.18-0.685-0.26-1.058-0.26
			c-0.483,0-1.121,0.26-1.121,0.88c0,0.72,0.731,0.9,1.369,1.04l2.023,0.42c1.713,0.36,2.351,1.34,2.351,3.001
			c0,3.061-3.02,3.38-4.747,3.38c-3.906,0-4.218-2.04-4.327-3.521H173.144z"/>
		<path d="M180.828,8.217c0.155-2.621,2.443-3.341,4.498-3.341c3.051,0,4.793,0.94,4.793,4.341v3.841c0,0.74,0.016,1.5,0.063,2.24
			h-2.895c-0.031-0.34-0.063-1.08-0.063-1.62h-0.031c-0.716,1.52-2.055,2-3.377,2c-2.226,0-3.533-1.16-3.533-3.261
			c0-2.38,1.743-3.46,4.669-3.46h2.179c0-1.601-0.575-2-1.758-2c-1.105,0-1.448,0.56-1.464,1.26H180.828z M185.887,10.917
			c-2.008,0-2.429,0.68-2.429,1.52c0,0.621,0.451,1.041,1.292,1.041c1.945,0,2.381-1.521,2.381-2.561H185.887z"/>
		<path d="M193.478,7.697h-1.805v-2.44h1.805c0-3.881,1.386-4.521,4.249-4.521c0.327,0,0.98,0.06,1.308,0.12v2.28
			c-0.233-0.04-0.514-0.08-0.81-0.08c-1.151,0-1.712,0.34-1.712,2.201h2.351v2.44h-2.397v7.602h-2.988V7.697z"/>
		<path d="M203.156,11.217c0.063,1.561,0.778,2.381,2.039,2.381c1.307,0,1.541-0.68,1.696-1.36h3.175
			c-0.622,3.181-2.755,3.44-4.918,3.44c-2.708,0-5.074-1.28-5.074-5.241c0-3.881,2.351-5.562,5.027-5.562
			c3.813,0,5.121,2.42,5.136,6.341H203.156z M207.063,9.137c-0.031-1.641-0.871-2.181-1.93-2.181c-1.385,0-1.79,1.14-1.93,2.181
			H207.063z"/>
		<path d="M211.168,5.256h1.914V3.216l2.988-1.4v3.441h2.521v2.44h-2.521v3.141c0,1.4,0.141,2.141,1.339,2.141
			c0.28,0,0.716-0.04,1.183-0.12v2.44c-0.28,0.06-1.074,0.24-2.008,0.24c-2.288,0-3.502-1.141-3.502-3.581V7.697h-1.914V5.256z"/>
		<path d="M223.242,15.298l-4.016-10.042h3.486l2.241,6.901l2.396-6.901h2.942l-5.572,13.883h-3.175L223.242,15.298z"/>
		<path d="M237.54,6.917c0-0.62-0.016-1.12-0.063-1.66h2.896c0.046,0.56,0.062,1.1,0.062,1.66c0.686-1.04,1.557-2.041,3.502-2.041
			c2.475,0,4.343,2.021,4.343,5.461c0,3.321-1.806,5.341-4.42,5.341c-1.729,0-2.725-0.9-3.331-1.7v5.161h-2.988V6.917z
			 M242.848,7.197c-1.354,0-2.319,1.22-2.319,3c0,1.94,0.965,3.161,2.319,3.161c1.322,0,2.257-1.26,2.257-3.021
			C245.104,8.717,244.388,7.197,242.848,7.197z"/>
		<path d="M250.22,7.316c0-0.64-0.016-1.38-0.063-2.06h2.896c0.046,0.72,0.062,1.44,0.062,2.16h0.031
			c0.731-1.92,1.541-2.3,3.502-2.3v3.281c-0.218-0.04-0.451-0.08-0.794-0.08c-1.603,0-2.646,1.16-2.646,3.181v3.801h-2.988V7.316z"
			/>
		<path d="M263.385,4.876c4.404,0,5.665,3.021,5.665,5.401s-1.261,5.401-5.665,5.401c-4.405,0-5.666-3.021-5.666-5.401
			S258.979,4.876,263.385,4.876z M263.385,13.478c1.4,0,2.49-1.14,2.49-3.201s-1.09-3.201-2.49-3.201c-1.401,0-2.49,1.14-2.49,3.201
			S261.983,13.478,263.385,13.478z"/>
		<path d="M271.894,7.697h-1.805v-2.44h1.805c0-3.881,1.386-4.521,4.249-4.521c0.327,0,0.98,0.06,1.308,0.12v2.28
			c-0.233-0.04-0.514-0.08-0.81-0.08c-1.151,0-1.712,0.34-1.712,2.201h2.351v2.44h-2.397v7.602h-2.988V7.697z M279.054,0.855h3.268
			v2.8h-3.268V0.855z M279.193,5.256h2.988v10.042h-2.988V5.256z"/>
		<path d="M284.946,0.855h2.988v14.443h-2.988V0.855z"/>
		<path d="M293.085,11.217c0.063,1.561,0.778,2.381,2.039,2.381c1.307,0,1.54-0.68,1.696-1.36h3.175
			c-0.622,3.181-2.755,3.44-4.918,3.44c-2.708,0-5.074-1.28-5.074-5.241c0-3.881,2.351-5.562,5.027-5.562
			c3.813,0,5.12,2.42,5.136,6.341H293.085z M296.991,9.137c-0.031-1.641-0.871-2.181-1.93-2.181c-1.386,0-1.79,1.14-1.93,2.181
			H296.991z"/>
		<path d="M307.647,8.217c0.155-2.621,2.443-3.341,4.498-3.341c3.05,0,4.794,0.94,4.794,4.341v3.841c0,0.74,0.015,1.5,0.062,2.24
			h-2.895c-0.031-0.34-0.063-1.08-0.063-1.62h-0.031c-0.716,1.52-2.054,2-3.377,2c-2.226,0-3.533-1.16-3.533-3.261
			c0-2.38,1.743-3.46,4.669-3.46h2.18c0-1.601-0.576-2-1.759-2c-1.105,0-1.448,0.56-1.464,1.26H307.647z M312.705,10.917
			c-2.007,0-2.428,0.68-2.428,1.52c0,0.621,0.451,1.041,1.292,1.041c1.945,0,2.382-1.521,2.382-2.561H312.705z"/>
		<path d="M328.981,11.538c-0.279,3.261-2.801,4.141-5.104,4.141c-2.319,0-5.059-1.36-5.059-5.361c0-4.021,2.553-5.441,5.261-5.441
			c2.133,0,4.529,0.84,4.81,3.941h-3.082c-0.171-1.24-0.763-1.74-1.728-1.74c-1.339,0-2.085,1.34-2.085,3.181
			c0,1.76,0.622,3.221,2.085,3.221c0.98,0,1.696-0.64,1.728-1.94H328.981z"/>
		<path d="M330.923,7.316c0-0.64-0.016-1.38-0.063-2.06h2.896c0.046,0.72,0.062,1.44,0.062,2.16h0.031
			c0.731-1.92,1.541-2.3,3.502-2.3v3.281c-0.218-0.04-0.451-0.08-0.794-0.08c-1.603,0-2.646,1.16-2.646,3.181v3.801h-2.988V7.316z"
			/>
		<path d="M344.088,4.876c4.404,0,5.665,3.021,5.665,5.401s-1.261,5.401-5.665,5.401c-4.405,0-5.666-3.021-5.666-5.401
			S339.683,4.876,344.088,4.876z M344.088,13.478c1.4,0,2.49-1.14,2.49-3.201s-1.09-3.201-2.49-3.201c-1.401,0-2.49,1.14-2.49,3.201
			S342.687,13.478,344.088,13.478z"/>
		<path d="M354.169,12.158c0,0.54,0.14,0.9,0.374,1.14c0.233,0.24,0.591,0.3,0.98,0.3c0.622,0,1.556-0.12,1.556-1.101
			c0-0.7-0.7-0.94-1.307-1.06l-2.07-0.42c-1.494-0.3-2.366-1.22-2.366-2.781c0-2.86,2.553-3.361,4.265-3.361
			c3.394,0,4.312,1.26,4.374,3.361h-2.988c-0.047-0.54-0.203-0.86-0.39-1.02c-0.218-0.18-0.685-0.26-1.058-0.26
			c-0.483,0-1.121,0.26-1.121,0.88c0,0.72,0.731,0.9,1.369,1.04l2.023,0.42c1.713,0.36,2.351,1.34,2.351,3.001
			c0,3.061-3.02,3.38-4.747,3.38c-3.906,0-4.218-2.04-4.327-3.521H354.169z"/>
		<path d="M364.546,12.158c0,0.54,0.14,0.9,0.374,1.14c0.233,0.24,0.591,0.3,0.98,0.3c0.622,0,1.556-0.12,1.556-1.101
			c0-0.7-0.7-0.94-1.307-1.06l-2.07-0.42c-1.494-0.3-2.366-1.22-2.366-2.781c0-2.86,2.553-3.361,4.265-3.361
			c3.394,0,4.312,1.26,4.374,3.361h-2.988c-0.047-0.54-0.203-0.86-0.39-1.02c-0.218-0.18-0.685-0.26-1.058-0.26
			c-0.483,0-1.121,0.26-1.121,0.88c0,0.72,0.731,0.9,1.369,1.04l2.023,0.42c1.713,0.36,2.351,1.34,2.351,3.001
			c0,3.061-3.02,3.38-4.747,3.38c-3.906,0-4.218-2.04-4.327-3.521H364.546z"/>
		<path d="M377.194,5.256h1.914V3.216l2.988-1.4v3.441h2.521v2.44h-2.521v3.141c0,1.4,0.141,2.141,1.339,2.141
			c0.28,0,0.716-0.04,1.183-0.12v2.44c-0.28,0.06-1.073,0.24-2.008,0.24c-2.288,0-3.502-1.141-3.502-3.581V7.697h-1.914V5.256z"/>
		<path d="M386.281,0.855h2.988v6.121c0.965-1.46,1.852-2.101,3.3-2.101c2.801,0,3.875,2.081,3.875,4.701v5.721h-2.988v-5.141
			c0-1.6-0.545-2.721-1.898-2.721c-1.229,0-2.288,1.22-2.288,3.441v4.421h-2.988V0.855z"/>
		<path d="M401.467,11.217c0.063,1.561,0.778,2.381,2.039,2.381c1.307,0,1.541-0.68,1.696-1.36h3.175
			c-0.622,3.181-2.755,3.44-4.918,3.44c-2.708,0-5.074-1.28-5.074-5.241c0-3.881,2.351-5.562,5.027-5.562
			c3.813,0,5.121,2.42,5.136,6.341H401.467z M405.373,9.137c-0.031-1.641-0.871-2.181-1.93-2.181c-1.385,0-1.79,1.14-1.93,2.181
			H405.373z"/>
		<path d="M426.41,13.638c0,0.62,0.016,1.12,0.063,1.66h-2.895c-0.047-0.56-0.063-1.1-0.063-1.66c-0.686,1.04-1.557,2.04-3.502,2.04
			c-2.475,0-4.343-2.02-4.343-5.461c0-3.321,1.806-5.341,4.421-5.341c1.728,0,2.724,0.9,3.33,1.701V0.855h2.988V13.638z
			 M421.103,13.358c1.354,0,2.319-1.22,2.319-3c0-1.94-0.965-3.161-2.319-3.161c-1.322,0-2.257,1.26-2.257,3.021
			C418.846,11.837,419.563,13.358,421.103,13.358z"/>
		<path d="M434.016,4.876c4.405,0,5.666,3.021,5.666,5.401s-1.261,5.401-5.666,5.401c-4.404,0-5.665-3.021-5.665-5.401
			S429.611,4.876,434.016,4.876z M434.016,13.478c1.401,0,2.49-1.14,2.49-3.201s-1.089-3.201-2.49-3.201
			c-1.4,0-2.49,1.14-2.49,3.201S432.615,13.478,434.016,13.478z"/>
		<path d="M444.098,12.158c0,0.54,0.14,0.9,0.373,1.14c0.234,0.24,0.592,0.3,0.981,0.3c0.622,0,1.556-0.12,1.556-1.101
			c0-0.7-0.7-0.94-1.307-1.06l-2.07-0.42c-1.494-0.3-2.366-1.22-2.366-2.781c0-2.86,2.553-3.361,4.265-3.361
			c3.394,0,4.312,1.26,4.374,3.361h-2.988c-0.047-0.54-0.202-0.86-0.39-1.02c-0.218-0.18-0.685-0.26-1.059-0.26
			c-0.482,0-1.12,0.26-1.12,0.88c0,0.72,0.731,0.9,1.37,1.04l2.022,0.42c1.712,0.36,2.351,1.34,2.351,3.001
			c0,3.061-3.02,3.38-4.747,3.38c-3.906,0-4.218-2.04-4.327-3.521H444.098z"/>
		<path d="M454.507,11.217c0.063,1.561,0.778,2.381,2.039,2.381c1.307,0,1.54-0.68,1.696-1.36h3.175
			c-0.622,3.181-2.755,3.44-4.918,3.44c-2.708,0-5.074-1.28-5.074-5.241c0-3.881,2.351-5.562,5.027-5.562
			c3.813,0,5.12,2.42,5.136,6.341H454.507z M458.413,9.137c-0.031-1.641-0.871-2.181-1.93-2.181c-1.386,0-1.79,1.14-1.93,2.181
			H458.413z"/>
		<path d="M469.286,7.316c0-0.64-0.016-1.38-0.063-2.06h2.896c0.046,0.72,0.062,1.44,0.062,2.16h0.031
			c0.731-1.92,1.541-2.3,3.502-2.3v3.281c-0.218-0.04-0.451-0.08-0.794-0.08c-1.603,0-2.646,1.16-2.646,3.181v3.801h-2.988V7.316z"
			/>
		<path d="M477.144,8.217c0.155-2.621,2.443-3.341,4.498-3.341c3.05,0,4.794,0.94,4.794,4.341v3.841c0,0.74,0.015,1.5,0.062,2.24
			h-2.895c-0.031-0.34-0.063-1.08-0.063-1.62h-0.031c-0.716,1.52-2.054,2-3.377,2c-2.226,0-3.533-1.16-3.533-3.261
			c0-2.38,1.743-3.46,4.669-3.46h2.18c0-1.601-0.576-2-1.759-2c-1.105,0-1.448,0.56-1.464,1.26H477.144z M482.201,10.917
			c-2.007,0-2.428,0.68-2.428,1.52c0,0.621,0.451,1.041,1.292,1.041c1.945,0,2.382-1.521,2.382-2.561H482.201z"/>
		<path d="M488.891,7.316c0-0.64-0.016-1.38-0.063-2.06h2.896c0.03,0.6,0.062,1.2,0.062,1.8h0.031
			c0.778-1.34,1.945-2.181,3.315-2.181c2.848,0,3.922,2.081,3.922,4.701v5.721h-2.988v-5.141c0-1.6-0.545-2.721-1.898-2.721
			c-1.229,0-2.288,1.22-2.288,3.441v4.421h-2.988V7.316z"/>
		<path d="M508.745,13.118h-0.031c-0.7,1.44-2.163,2.041-3.486,2.041c-2.506,0-4.249-2.26-4.249-5.141
			c0-3.181,1.759-5.141,4.312-5.141c1.557,0,2.739,0.7,3.518,1.98h0.031c0-0.62,0.016-1.16,0.062-1.6h2.896
			c-0.031,0.4-0.063,1.02-0.063,1.6v6.921c0,4.721-2.319,5.741-5.618,5.741c-4.265,0-4.67-1.86-4.794-3.561h3.175
			c0.094,0.6,0.312,0.94,0.623,1.12c0.326,0.2,0.716,0.24,1.136,0.24c1.665,0,2.49-0.74,2.49-3.421V13.118z M506.41,12.718
			c1.494,0,2.335-1.12,2.335-2.701c0-1.7-1.043-2.701-2.365-2.701c-1.448,0-2.226,1.141-2.226,2.701
			C504.154,11.558,504.994,12.718,506.41,12.718z"/>
		<path d="M516.757,11.217c0.063,1.561,0.778,2.381,2.039,2.381c1.307,0,1.54-0.68,1.696-1.36h3.175
			c-0.622,3.181-2.755,3.44-4.918,3.44c-2.708,0-5.074-1.28-5.074-5.241c0-3.881,2.351-5.562,5.027-5.562
			c3.813,0,5.12,2.42,5.136,6.341H516.757z M520.663,9.137c-0.031-1.641-0.871-2.181-1.93-2.181c-1.386,0-1.79,1.14-1.93,2.181
			H520.663z"/>
		<path d="M530.275,8.797h7.782v2.321h-7.782V8.797z"/>
		<path d="M548.325,3.656h-3.269v-2.8h3.269V3.656z M545.196,5.256h2.988v10.042h-2.988V5.256z"/>
		<path d="M550.829,7.316c0-0.64-0.016-1.38-0.063-2.06h2.896c0.03,0.6,0.062,1.2,0.062,1.8h0.031
			c0.778-1.34,1.945-2.181,3.315-2.181c2.848,0,3.922,2.081,3.922,4.701v5.721h-2.988v-5.141c0-1.6-0.545-2.721-1.898-2.721
			c-1.229,0-2.288,1.22-2.288,3.441v4.421h-2.988V7.316z"/>
		<path d="M573.097,11.538c-0.279,3.261-2.801,4.141-5.104,4.141c-2.319,0-5.059-1.36-5.059-5.361c0-4.021,2.553-5.441,5.261-5.441
			c2.133,0,4.529,0.84,4.81,3.941h-3.082c-0.171-1.24-0.763-1.74-1.728-1.74c-1.339,0-2.085,1.34-2.085,3.181
			c0,1.76,0.622,3.221,2.085,3.221c0.98,0,1.696-0.64,1.728-1.94H573.097z"/>
		<path d="M575.162,0.855h2.988v14.443h-2.988V0.855z"/>
		<path d="M590.958,13.238c0,0.64,0.016,1.38,0.063,2.061h-2.896c-0.03-0.6-0.062-1.2-0.062-1.8h-0.031
			c-0.778,1.34-1.945,2.18-3.315,2.18c-2.848,0-3.922-2.08-3.922-4.701V5.256h2.988v5.141c0,1.6,0.545,2.72,1.898,2.72
			c1.229,0,2.288-1.22,2.288-3.44V5.256h2.988V13.238z"/>
		<path d="M603.639,13.638c0,0.62,0.016,1.12,0.063,1.66h-2.895c-0.047-0.56-0.063-1.1-0.063-1.66
			c-0.686,1.04-1.557,2.04-3.502,2.04c-2.475,0-4.343-2.02-4.343-5.461c0-3.321,1.806-5.341,4.421-5.341
			c1.728,0,2.724,0.9,3.33,1.701V0.855h2.988V13.638z M598.331,13.358c1.354,0,2.319-1.22,2.319-3c0-1.94-0.965-3.161-2.319-3.161
			c-1.322,0-2.257,1.26-2.257,3.021C596.074,11.837,596.791,13.358,598.331,13.358z"/>
		<path d="M609.408,3.656h-3.269v-2.8h3.269V3.656z M606.279,5.256h2.988v10.042h-2.988V5.256z"/>
		<path d="M611.912,7.316c0-0.64-0.016-1.38-0.063-2.06h2.896c0.03,0.6,0.062,1.2,0.062,1.8h0.031
			c0.778-1.34,1.945-2.181,3.315-2.181c2.848,0,3.922,2.081,3.922,4.701v5.721h-2.988v-5.141c0-1.6-0.545-2.721-1.898-2.721
			c-1.229,0-2.288,1.22-2.288,3.441v4.421h-2.988V7.316z"/>
		<path d="M631.768,13.118h-0.031c-0.7,1.44-2.163,2.041-3.486,2.041c-2.506,0-4.249-2.26-4.249-5.141
			c0-3.181,1.759-5.141,4.312-5.141c1.557,0,2.739,0.7,3.518,1.98h0.031c0-0.62,0.016-1.16,0.063-1.6h2.895
			c-0.031,0.4-0.063,1.02-0.063,1.6v6.921c0,4.721-2.319,5.741-5.618,5.741c-4.265,0-4.67-1.86-4.794-3.561h3.175
			c0.094,0.6,0.312,0.94,0.623,1.12c0.326,0.2,0.716,0.24,1.136,0.24c1.665,0,2.49-0.74,2.49-3.421V13.118z M629.434,12.718
			c1.494,0,2.334-1.12,2.334-2.701c0-1.7-1.043-2.701-2.365-2.701c-1.448,0-2.226,1.141-2.226,2.701
			C627.177,11.558,628.017,12.718,629.434,12.718z"/>
		<path d="M643.029,6.917c0-0.62-0.016-1.12-0.063-1.66h2.896c0.046,0.56,0.062,1.1,0.062,1.66c0.686-1.04,1.557-2.041,3.502-2.041
			c2.475,0,4.343,2.021,4.343,5.461c0,3.321-1.806,5.341-4.42,5.341c-1.728,0-2.724-0.9-3.331-1.7v5.161h-2.988V6.917z
			 M648.337,7.197c-1.354,0-2.319,1.22-2.319,3c0,1.94,0.965,3.161,2.319,3.161c1.322,0,2.257-1.26,2.257-3.021
			C650.594,8.717,649.877,7.197,648.337,7.197z"/>
		<path d="M655.492,8.217c0.155-2.621,2.443-3.341,4.498-3.341c3.051,0,4.793,0.94,4.793,4.341v3.841c0,0.74,0.016,1.5,0.063,2.24
			h-2.895c-0.031-0.34-0.063-1.08-0.063-1.62h-0.031c-0.716,1.52-2.055,2-3.377,2c-2.226,0-3.533-1.16-3.533-3.261
			c0-2.38,1.743-3.46,4.669-3.46h2.179c0-1.601-0.575-2-1.758-2c-1.105,0-1.448,0.56-1.464,1.26H655.492z M660.551,10.917
			c-2.008,0-2.429,0.68-2.429,1.52c0,0.621,0.451,1.041,1.292,1.041c1.945,0,2.381-1.521,2.381-2.561H660.551z"/>
		<path d="M666.227,5.256h1.914V3.216l2.988-1.4v3.441h2.521v2.44h-2.521v3.141c0,1.4,0.141,2.141,1.339,2.141
			c0.28,0,0.716-0.04,1.183-0.12v2.44c-0.28,0.06-1.074,0.24-2.008,0.24c-2.288,0-3.502-1.141-3.502-3.581V7.697h-1.914V5.256z"/>
		<path d="M678.566,3.656h-3.269v-2.8h3.269V3.656z M675.438,5.256h2.988v10.042h-2.988V5.256z"/>
		<path d="M683.576,11.217c0.063,1.561,0.778,2.381,2.039,2.381c1.307,0,1.541-0.68,1.696-1.36h3.175
			c-0.622,3.181-2.755,3.44-4.918,3.44c-2.708,0-5.074-1.28-5.074-5.241c0-3.881,2.351-5.562,5.027-5.562
			c3.813,0,5.121,2.42,5.136,6.341H683.576z M687.482,9.137c-0.031-1.641-0.871-2.181-1.93-2.181c-1.385,0-1.79,1.14-1.93,2.181
			H687.482z"/>
		<path d="M692.6,7.316c0-0.64-0.016-1.38-0.063-2.06h2.896c0.03,0.6,0.062,1.2,0.062,1.8h0.031c0.778-1.34,1.945-2.181,3.315-2.181
			c2.848,0,3.922,2.081,3.922,4.701v5.721h-2.988v-5.141c0-1.6-0.545-2.721-1.898-2.721c-1.229,0-2.288,1.22-2.288,3.441v4.421
			H692.6V7.316z"/>
		<path d="M704.268,5.256h1.914V3.216l2.988-1.4v3.441h2.521v2.44h-2.521v3.141c0,1.4,0.141,2.141,1.339,2.141
			c0.28,0,0.716-0.04,1.183-0.12v2.44c-0.28,0.06-1.074,0.24-2.008,0.24c-2.288,0-3.502-1.141-3.502-3.581V7.697h-1.914V5.256z"/>
		<path d="M715.829,12.158c0,0.54,0.14,0.9,0.374,1.14c0.233,0.24,0.591,0.3,0.98,0.3c0.622,0,1.556-0.12,1.556-1.101
			c0-0.7-0.7-0.94-1.307-1.06l-2.07-0.42c-1.494-0.3-2.366-1.22-2.366-2.781c0-2.86,2.553-3.361,4.265-3.361
			c3.394,0,4.312,1.26,4.374,3.361h-2.988c-0.047-0.54-0.203-0.86-0.39-1.02c-0.218-0.18-0.685-0.26-1.058-0.26
			c-0.483,0-1.121,0.26-1.121,0.88c0,0.72,0.731,0.9,1.369,1.04l2.023,0.42c1.713,0.36,2.351,1.34,2.351,3.001
			c0,3.061-3.02,3.38-4.747,3.38c-3.906,0-4.218-2.04-4.327-3.521H715.829z"/>
		<path d="M743.139,15.298h-3.502l-2.179-7.722h-0.031l-2.163,7.722h-3.502l-3.3-10.042h3.362l1.852,7.481h0.031l2.055-7.481h3.688
			l2.086,7.481h0.03l2.008-7.481h2.864L743.139,15.298z"/>
		<path d="M751.179,3.656h-3.269v-2.8h3.269V3.656z M748.05,5.256h2.988v10.042h-2.988V5.256z"/>
		<path d="M752.671,5.256h1.914V3.216l2.988-1.4v3.441h2.521v2.44h-2.521v3.141c0,1.4,0.141,2.141,1.339,2.141
			c0.28,0,0.716-0.04,1.183-0.12v2.44c-0.28,0.06-1.073,0.24-2.008,0.24c-2.288,0-3.502-1.141-3.502-3.581V7.697h-1.914V5.256z"/>
		<path d="M761.758,0.855h2.988v6.121c0.965-1.46,1.852-2.101,3.3-2.101c2.801,0,3.875,2.081,3.875,4.701v5.721h-2.988v-5.141
			c0-1.6-0.545-2.721-1.898-2.721c-1.229,0-2.288,1.22-2.288,3.441v4.421h-2.988V0.855z"/>
		<path d="M790.357,13.638c0,0.62,0.016,1.12,0.063,1.66h-2.895c-0.047-0.56-0.063-1.1-0.063-1.66
			c-0.686,1.04-1.557,2.04-3.502,2.04c-2.475,0-4.343-2.02-4.343-5.461c0-3.321,1.806-5.341,4.421-5.341
			c1.728,0,2.724,0.9,3.33,1.701V0.855h2.988V13.638z M785.05,13.358c1.354,0,2.319-1.22,2.319-3c0-1.94-0.965-3.161-2.319-3.161
			c-1.322,0-2.257,1.26-2.257,3.021C782.793,11.837,783.51,13.358,785.05,13.358z"/>
		<path d="M796.128,3.656h-3.269v-2.8h3.269V3.656z M792.999,5.256h2.988v10.042h-2.988V5.256z"/>
		<path d="M798.414,8.217c0.155-2.621,2.443-3.341,4.498-3.341c3.051,0,4.793,0.94,4.793,4.341v3.841c0,0.74,0.016,1.5,0.063,2.24
			h-2.895c-0.031-0.34-0.063-1.08-0.063-1.62h-0.031c-0.716,1.52-2.055,2-3.377,2c-2.226,0-3.533-1.16-3.533-3.261
			c0-2.38,1.743-3.46,4.669-3.46h2.179c0-1.601-0.575-2-1.758-2c-1.105,0-1.448,0.56-1.464,1.26H798.414z M803.473,10.917
			c-2.008,0-2.429,0.68-2.429,1.52c0,0.621,0.451,1.041,1.292,1.041c1.945,0,2.381-1.521,2.381-2.561H803.473z"/>
		<path d="M810.16,0.855h2.988v5.721c0.607-0.8,1.604-1.701,3.331-1.701c2.614,0,4.42,2.021,4.42,5.341
			c0,3.441-1.868,5.461-4.343,5.461c-1.945,0-2.816-1-3.502-2.04c0,0.56-0.016,1.1-0.062,1.66h-2.896
			c0.047-0.54,0.063-1.04,0.063-1.66V0.855z M815.468,7.197c-1.354,0-2.319,1.22-2.319,3.161c0,1.78,0.965,3,2.319,3
			c1.54,0,2.257-1.521,2.257-3.141C817.725,8.457,816.79,7.197,815.468,7.197z"/>
		<path d="M825.347,11.217c0.063,1.561,0.778,2.381,2.039,2.381c1.307,0,1.54-0.68,1.696-1.36h3.175
			c-0.622,3.181-2.755,3.44-4.918,3.44c-2.708,0-5.074-1.28-5.074-5.241c0-3.881,2.351-5.562,5.027-5.562
			c3.813,0,5.12,2.42,5.136,6.341H825.347z M829.253,9.137c-0.031-1.641-0.871-2.181-1.93-2.181c-1.386,0-1.79,1.14-1.93,2.181
			H829.253z"/>
		<path d="M833.358,5.256h1.914V3.216l2.988-1.4v3.441h2.521v2.44h-2.521v3.141c0,1.4,0.141,2.141,1.339,2.141
			c0.28,0,0.716-0.04,1.183-0.12v2.44c-0.28,0.06-1.073,0.24-2.008,0.24c-2.288,0-3.502-1.141-3.502-3.581V7.697h-1.914V5.256z"/>
		<path d="M844.95,11.217c0.063,1.561,0.778,2.381,2.039,2.381c1.307,0,1.54-0.68,1.696-1.36h3.175
			c-0.622,3.181-2.755,3.44-4.918,3.44c-2.708,0-5.074-1.28-5.074-5.241c0-3.881,2.351-5.562,5.027-5.562
			c3.813,0,5.12,2.42,5.136,6.341H844.95z M848.856,9.137c-0.031-1.641-0.871-2.181-1.93-2.181c-1.386,0-1.79,1.14-1.93,2.181
			H848.856z"/>
		<path d="M856.448,12.158c0,0.54,0.14,0.9,0.374,1.14c0.233,0.24,0.591,0.3,0.98,0.3c0.622,0,1.556-0.12,1.556-1.101
			c0-0.7-0.7-0.94-1.307-1.06l-2.07-0.42c-1.494-0.3-2.366-1.22-2.366-2.781c0-2.86,2.553-3.361,4.265-3.361
			c3.394,0,4.312,1.26,4.374,3.361h-2.988c-0.047-0.54-0.203-0.86-0.39-1.02c-0.218-0.18-0.685-0.26-1.058-0.26
			c-0.483,0-1.121,0.26-1.121,0.88c0,0.72,0.731,0.9,1.369,1.04l2.023,0.42c1.713,0.36,2.351,1.34,2.351,3.001
			c0,3.061-3.02,3.38-4.747,3.38c-3.906,0-4.218-2.04-4.327-3.521H856.448z"/>
		<path d="M866.073,2.693c-0.662,0.548-1.052,0.734-1.804,1.038V1.784c0.779-0.292,1.586-0.875,2.111-1.283h1.486v8.137h-1.794
			V2.693z"/>
		<path d="M870.809,6.843h1.85l-1.224,3.206h-1.396L870.809,6.843z"/>
		<path d="M873.676,6.913c1.677-1.352,3.798-2.588,3.798-4.045c0-0.676-0.417-1.026-0.879-1.026c-0.698,0-0.952,0.501-0.979,1.177
			h-1.794c0-1.923,1.051-2.739,2.683-2.739c1.73,0,2.818,0.933,2.818,2.6c0,2.005-2.193,3.474-3.371,4.104v0.023h3.398v1.632h-5.674
			V6.913z"/>
		<path d="M880.877,6.843h1.85l-1.224,3.206h-1.396L880.877,6.843z"/>
		<path d="M886.028,3.719h0.398c0.853,0,1.024-0.618,1.024-0.979c0-0.723-0.48-0.967-0.961-0.967c-0.362,0-0.815,0.256-0.87,0.874
			h-1.794c0.063-1.877,1.368-2.366,2.683-2.366c1.994,0,2.791,1.096,2.791,2.261c0,1.119-0.534,1.632-1.531,1.9v0.023
			c0.915,0.082,1.668,0.734,1.668,1.97c0,1.83-1.405,2.425-2.892,2.425c-1.723,0-2.909-0.583-2.928-2.611h1.849
			c0,0.816,0.463,1.119,1.043,1.119c0.517,0,1.078-0.269,1.078-1.084c0-0.886-0.589-1.072-1.169-1.072h-0.39V3.719z"/>
	</g>
	<g>
		<g>
			<path d="M8.439,35.495H5.763v-1.921h7.296v1.921h-2.677v9.652H8.439V35.495z"/>
			<path d="M14.09,33.574h2.789l3.374,9.108v-9.108h1.793v11.573h-2.652l-3.486-9.604v9.604H14.09V33.574z"/>
			<path d="M25.729,35.495h-2.677v-1.921h7.296v1.921h-2.677v9.652h-1.942V35.495z"/>
			<path d="M38.45,45.035c-0.598,0.208-1.134,0.256-1.433,0.256c-1.854,0-1.854-1.504-1.854-2.177V38.68h-1.208v-1.568h1.208v-1.585
				l1.83-0.864v2.449h1.494v1.568h-1.494v3.649c0.012,0.736,0.012,1.201,0.834,1.201c0.273,0,0.398-0.016,0.623-0.048V45.035z"/>
			<path d="M39.594,39.048c0-0.384-0.05-1.552-0.087-2.017h1.73l0.037,1.553c0.236-0.688,0.647-1.665,2.142-1.569v2.129
				c-1.868-0.224-1.979,1.008-1.979,2.017v3.986h-1.843V39.048z"/>
			<path d="M44.373,33.59h1.968v2.065h-1.968V33.59z M44.436,37.048h1.843v8.099h-1.843V37.048z"/>
			<path d="M51.668,45.147c-0.063-0.496-0.063-0.864-0.063-1.104c-0.697,1.296-1.531,1.296-1.88,1.296
				c-0.909,0-1.32-0.336-1.568-0.64c-0.374-0.48-0.549-1.136-0.549-1.777c0-0.64,0.175-1.825,1.333-2.513
				c0.771-0.448,1.88-0.448,2.49-0.448c0-0.528-0.013-0.784-0.087-1.072c-0.162-0.592-0.648-0.672-0.822-0.672
				c-0.262,0-0.535,0.144-0.697,0.448c-0.137,0.272-0.137,0.528-0.137,0.72h-1.806c0.013-0.432,0.05-1.297,0.71-1.905
				c0.572-0.528,1.307-0.656,1.904-0.656c0.523,0,1.619,0.112,2.242,1.041c0.423,0.656,0.436,1.616,0.436,1.984l0.012,3.25
				c0,0.688,0.038,1.376,0.15,2.049H51.668z M49.401,42.65c0,0.544,0.287,1.152,0.896,1.152c0.337,0,0.61-0.208,0.785-0.464
				c0.323-0.512,0.349-1.137,0.349-2.001C50.249,41.209,49.401,41.689,49.401,42.65z"/>
			<path d="M54.816,33.574h1.843v11.573h-1.843V33.574z"/>
			<path d="M58.413,37.063h1.568v2.161h-1.568V37.063z M58.413,43.002h1.568v2.145h-1.568V43.002z"/>
			<path d="M65.135,33.542h1.93v11.604h-1.93V33.542z"/>
			<path d="M68.682,38.504c0-0.032,0-0.913-0.037-1.473h1.769l0.049,1.216c0.175-0.368,0.673-1.408,2.043-1.408
				c1.232,0,1.755,0.96,1.917,1.521c0.137,0.496,0.175,0.912,0.175,2.417v4.37h-1.881v-5.026c0-0.336,0-0.625-0.1-0.88
				c-0.137-0.352-0.423-0.688-0.896-0.688c-0.398,0-0.76,0.24-0.959,0.625c-0.111,0.208-0.224,0.608-0.224,1.232v4.738h-1.855
				V38.504z"/>
			<path d="M81.453,37.063l0.05,1.153c0.572-1.297,1.619-1.313,1.918-1.313c1.631,0,2.614,1.568,2.614,4.034
				c0,2.289-0.921,4.321-2.739,4.321c-1.133,0-1.594-0.768-1.756-1.04v4.034h-1.88V37.063H81.453z M84.167,41.033
				c0-0.96-0.187-2.609-1.27-2.609c-0.598,0-1.444,0.576-1.444,2.753c0,0.48,0.013,2.529,1.37,2.529
				C83.694,43.707,84.167,42.634,84.167,41.033z"/>
			<path d="M91.1,45.147c-0.063-0.496-0.063-0.864-0.063-1.104c-0.697,1.296-1.531,1.296-1.88,1.296c-0.909,0-1.32-0.336-1.568-0.64
				c-0.374-0.48-0.549-1.136-0.549-1.777c0-0.64,0.175-1.825,1.333-2.513c0.771-0.448,1.88-0.448,2.49-0.448
				c0-0.528-0.013-0.784-0.087-1.072c-0.162-0.592-0.648-0.672-0.822-0.672c-0.262,0-0.535,0.144-0.697,0.448
				c-0.137,0.272-0.137,0.528-0.137,0.72h-1.806c0.013-0.432,0.05-1.297,0.71-1.905c0.572-0.528,1.307-0.656,1.904-0.656
				c0.523,0,1.619,0.112,2.242,1.041c0.423,0.656,0.436,1.616,0.436,1.984l0.012,3.25c0,0.688,0.038,1.376,0.15,2.049H91.1z
				 M88.833,42.65c0,0.544,0.287,1.152,0.896,1.152c0.337,0,0.61-0.208,0.785-0.464c0.323-0.512,0.349-1.137,0.349-2.001
				C89.681,41.209,88.833,41.689,88.833,42.65z"/>
			<path d="M97.946,45.035c-0.598,0.208-1.134,0.256-1.433,0.256c-1.854,0-1.854-1.504-1.854-2.177V38.68h-1.208v-1.568h1.208
				v-1.585l1.83-0.864v2.449h1.494v1.568h-1.494v3.649c0.012,0.736,0.012,1.201,0.834,1.201c0.273,0,0.398-0.016,0.623-0.048V45.035
				z"/>
			<path d="M99.027,33.59h1.968v2.065h-1.968V33.59z M99.09,37.048h1.843v8.099H99.09V37.048z"/>
			<path d="M104.031,41.706c0,0.528,0,2.161,1.282,2.161c0.461,0,0.922-0.224,1.096-1.121h1.682
				c-0.025,0.384-0.088,1.072-0.598,1.761c-0.461,0.624-1.283,0.944-2.204,0.944c-0.536,0-1.557-0.128-2.217-1.008
				c-0.572-0.769-0.81-1.857-0.81-3.153c0-1.313,0.25-2.881,1.308-3.826c0.485-0.416,1.083-0.672,1.769-0.672
				c0.896,0,1.967,0.448,2.54,1.953c0.423,1.104,0.398,2.289,0.373,2.961H104.031z M106.372,40.217c0-0.368-0.025-1.809-1.096-1.809
				c-0.81,0-1.146,0.864-1.183,1.809H106.372z"/>
			<path d="M109.495,38.504c0-0.032,0-0.913-0.037-1.473h1.768l0.051,1.216c0.174-0.368,0.672-1.408,2.041-1.408
				c1.233,0,1.756,0.96,1.918,1.521c0.137,0.496,0.174,0.912,0.174,2.417v4.37h-1.88v-5.026c0-0.336,0-0.625-0.1-0.88
				c-0.137-0.352-0.423-0.688-0.896-0.688c-0.398,0-0.759,0.24-0.958,0.625c-0.112,0.208-0.225,0.608-0.225,1.232v4.738h-1.855
				V38.504z"/>
			<path d="M120.774,45.035c-0.598,0.208-1.134,0.256-1.433,0.256c-1.854,0-1.854-1.504-1.854-2.177V38.68h-1.208v-1.568h1.208
				v-1.585l1.83-0.864v2.449h1.494v1.568h-1.494v3.649c0.012,0.736,0.012,1.201,0.834,1.201c0.273,0,0.398-0.016,0.623-0.048V45.035
				z"/>
			<path d="M123.2,42.81c0.025,0.512,0.273,1.104,1.046,1.104c0.66,0,0.972-0.48,0.972-0.96c0-0.368-0.15-0.656-0.872-0.913
				l-1.146-0.4c-0.511-0.192-1.594-0.592-1.594-2.241c0-1.569,1.121-2.529,2.752-2.529c1.295,0,2.341,0.769,2.391,2.385h-1.682
				c-0.049-0.896-0.609-0.96-0.896-0.96c-0.498,0-0.871,0.304-0.871,0.8c0,0.544,0.312,0.656,0.859,0.848l1.133,0.4
				c1.146,0.4,1.681,1.152,1.681,2.257c0,1.393-0.934,2.785-2.889,2.785c-0.81,0-1.581-0.224-2.153-0.993
				c-0.411-0.56-0.449-1.2-0.461-1.584H123.2z"/>
			<path d="M132.81,37.063l1.157,6.099l1.333-6.099h2.029l1.319,6.099l1.233-6.099h1.83l-2.154,8.083h-2.005l-1.295-5.986
				l-1.319,5.986h-2.029l-2.055-8.083H132.81z"/>
			<path d="M142.604,33.59h1.967v2.065h-1.967V33.59z M142.667,37.048h1.843v8.099h-1.843V37.048z"/>
			<path d="M149.825,45.035c-0.598,0.208-1.134,0.256-1.433,0.256c-1.854,0-1.854-1.504-1.854-2.177V38.68h-1.208v-1.568h1.208
				v-1.585l1.83-0.864v2.449h1.494v1.568h-1.494v3.649c0.012,0.736,0.012,1.201,0.834,1.201c0.273,0,0.398-0.016,0.623-0.048V45.035
				z"/>
			<path d="M151.019,33.59h1.83v4.578c0.212-0.384,0.672-1.216,1.818-1.216c0.934,0,1.531,0.592,1.83,1.088
				c0.224,0.4,0.41,1.137,0.41,2.193v4.914h-1.83v-4.834c0-0.464,0-1.761-1.033-1.761c-0.523,0-1.183,0.384-1.183,1.649l0.013,4.946
				h-1.855V33.59z"/>
			<path d="M163.316,42.81c0.024,0.512,0.274,1.104,1.046,1.104c0.66,0,0.971-0.48,0.971-0.96c0-0.368-0.148-0.656-0.871-0.913
				l-1.146-0.4c-0.511-0.192-1.594-0.592-1.594-2.241c0-1.569,1.12-2.529,2.752-2.529c1.295,0,2.341,0.769,2.391,2.385h-1.681
				c-0.051-0.896-0.61-0.96-0.896-0.96c-0.498,0-0.872,0.304-0.872,0.8c0,0.544,0.312,0.656,0.859,0.848l1.133,0.4
				c1.146,0.4,1.681,1.152,1.681,2.257c0,1.393-0.934,2.785-2.889,2.785c-0.809,0-1.581-0.224-2.154-0.993
				c-0.41-0.56-0.447-1.2-0.46-1.584H163.316z"/>
			<path d="M171.956,45.035c-0.598,0.208-1.134,0.256-1.433,0.256c-1.854,0-1.854-1.504-1.854-2.177V38.68h-1.208v-1.568h1.208
				v-1.585l1.83-0.864v2.449h1.494v1.568h-1.494v3.649c0.012,0.736,0.012,1.201,0.834,1.201c0.273,0,0.398-0.016,0.623-0.048V45.035
				z"/>
			<path d="M176.872,45.147c-0.063-0.496-0.063-0.864-0.063-1.104c-0.697,1.296-1.531,1.296-1.88,1.296
				c-0.909,0-1.319-0.336-1.569-0.64c-0.373-0.48-0.547-1.136-0.547-1.777c0-0.64,0.174-1.825,1.332-2.513
				c0.771-0.448,1.88-0.448,2.49-0.448c0-0.528-0.013-0.784-0.088-1.072c-0.161-0.592-0.646-0.672-0.821-0.672
				c-0.262,0-0.535,0.144-0.697,0.448c-0.137,0.272-0.137,0.528-0.137,0.72h-1.806c0.013-0.432,0.05-1.297,0.71-1.905
				c0.572-0.528,1.308-0.656,1.905-0.656c0.522,0,1.618,0.112,2.24,1.041c0.424,0.656,0.437,1.616,0.437,1.984l0.013,3.25
				c0,0.688,0.037,1.376,0.148,2.049H176.872z M174.606,42.65c0,0.544,0.286,1.152,0.896,1.152c0.336,0,0.609-0.208,0.784-0.464
				c0.323-0.512,0.349-1.137,0.349-2.001C175.452,41.209,174.606,41.689,174.606,42.65z"/>
			<path d="M179.957,33.606h1.843v4.434c0.623-1.056,1.457-1.088,1.78-1.088c1.532,0,2.739,1.553,2.739,4.274
				c0,3.025-1.369,4.082-2.627,4.082c-0.324,0-1.32-0.032-1.893-1.296c-0.013,0.256-0.025,0.64-0.063,1.136h-1.78V33.606z
				 M183.082,38.536c-1.356,0-1.356,1.985-1.356,2.497c0,1.841,0.609,2.721,1.443,2.721c1.271,0,1.271-2.033,1.271-2.449
				C184.439,40.665,184.415,38.536,183.082,38.536z"/>
			<path d="M187.625,33.574h1.843v11.573h-1.843V33.574z"/>
			<path d="M192.566,41.706c0,0.528,0,2.161,1.282,2.161c0.461,0,0.922-0.224,1.096-1.121h1.682
				c-0.025,0.384-0.088,1.072-0.598,1.761c-0.461,0.624-1.283,0.944-2.204,0.944c-0.536,0-1.557-0.128-2.217-1.008
				c-0.572-0.769-0.81-1.857-0.81-3.153c0-1.313,0.25-2.881,1.308-3.826c0.485-0.416,1.083-0.672,1.769-0.672
				c0.896,0,1.967,0.448,2.54,1.953c0.423,1.104,0.398,2.289,0.373,2.961H192.566z M194.907,40.217c0-0.368-0.025-1.809-1.096-1.809
				c-0.81,0-1.146,0.864-1.183,1.809H194.907z"/>
			<path d="M206.583,37.352c-0.037-0.4-0.149-2.033-1.457-2.033c-1.432,0-2.029,1.921-2.029,4.306c0,0.688,0,3.97,1.88,3.97
				c0.81,0,1.581-0.656,1.619-2.193h2.029c-0.037,0.688-0.087,1.761-0.81,2.721c-0.797,1.057-1.805,1.296-2.627,1.296
				c-3.101,0-4.109-2.945-4.109-5.81c0-3.666,1.594-6.099,4.122-6.099c1.967,0,3.349,1.537,3.349,3.842H206.583z"/>
			<path d="M209.793,33.574h1.931V38.2h3.398v-4.626h1.955v11.573h-1.93v-5.074h-3.424v5.074h-1.931V33.574z"/>
			<path d="M218.755,33.606l2.976,0.016c0.498,0,2.017,0.016,3.101,1.04c1.133,1.073,1.531,2.897,1.531,4.546
				c0,3.554-1.481,5.41-3.188,5.811c-0.336,0.08-0.71,0.128-1.619,0.128h-2.801V33.606z M220.71,43.242
				c0.211,0.016,0.535,0.032,0.759,0.032c0.822,0,1.532-0.08,2.092-0.8c0.76-0.977,0.81-2.705,0.81-3.266
				c0-1.633-0.436-3.137-1.644-3.569c-0.398-0.144-0.909-0.224-2.017-0.16V43.242z"/>
			<path d="M234.974,45.147c-0.063-0.496-0.063-0.864-0.063-1.104c-0.697,1.296-1.531,1.296-1.88,1.296
				c-0.909,0-1.319-0.336-1.569-0.64c-0.373-0.48-0.547-1.136-0.547-1.777c0-0.64,0.174-1.825,1.332-2.513
				c0.771-0.448,1.88-0.448,2.49-0.448c0-0.528-0.013-0.784-0.088-1.072c-0.161-0.592-0.646-0.672-0.821-0.672
				c-0.262,0-0.535,0.144-0.697,0.448c-0.137,0.272-0.137,0.528-0.137,0.72h-1.806c0.013-0.432,0.05-1.297,0.71-1.905
				c0.572-0.528,1.308-0.656,1.905-0.656c0.522,0,1.618,0.112,2.24,1.041c0.424,0.656,0.437,1.616,0.437,1.984l0.013,3.25
				c0,0.688,0.037,1.376,0.148,2.049H234.974z M232.708,42.65c0,0.544,0.286,1.152,0.896,1.152c0.336,0,0.609-0.208,0.784-0.464
				c0.323-0.512,0.349-1.137,0.349-2.001C233.554,41.209,232.708,41.689,232.708,42.65z"/>
			<path d="M238.146,38.504c0-0.032,0-0.913-0.037-1.473h1.769l0.049,1.216c0.175-0.368,0.673-1.408,2.043-1.408
				c1.232,0,1.755,0.96,1.917,1.521c0.137,0.496,0.175,0.912,0.175,2.417v4.37h-1.881v-5.026c0-0.336,0-0.625-0.1-0.88
				c-0.137-0.352-0.423-0.688-0.896-0.688c-0.398,0-0.76,0.24-0.959,0.625c-0.111,0.208-0.224,0.608-0.224,1.232v4.738h-1.855
				V38.504z"/>
			<path d="M249.886,33.59h1.855v10.244c0,0.48,0.025,1.008,0.05,1.313h-1.868l-0.049-1.168c-0.125,0.288-0.25,0.592-0.636,0.913
				c-0.46,0.384-0.946,0.416-1.22,0.416c-1.682,0-2.678-1.489-2.678-4.018c0-2.673,1.134-4.338,2.777-4.338
				c1.133,0,1.605,0.816,1.768,1.104V33.59z M248.479,43.771c0.535,0,0.971-0.417,1.17-0.913c0.273-0.672,0.299-1.504,0.299-1.905
				c0-1.584-0.535-2.449-1.369-2.449c-1.233,0-1.37,1.905-1.37,2.721C247.209,42.57,247.558,43.771,248.479,43.771z"/>
			<path d="M260.951,33.59h1.855v10.244c0,0.48,0.024,1.008,0.05,1.313h-1.867l-0.051-1.168c-0.124,0.288-0.248,0.592-0.635,0.913
				c-0.461,0.384-0.946,0.416-1.22,0.416c-1.681,0-2.677-1.489-2.677-4.018c0-2.673,1.133-4.338,2.776-4.338
				c1.133,0,1.606,0.816,1.768,1.104V33.59z M259.544,43.771c0.536,0,0.972-0.417,1.171-0.913c0.274-0.672,0.299-1.504,0.299-1.905
				c0-1.584-0.535-2.449-1.37-2.449c-1.232,0-1.369,1.905-1.369,2.721C258.274,42.57,258.623,43.771,259.544,43.771z"/>
			<path d="M264.335,33.59h1.967v2.065h-1.967V33.59z M264.397,37.048h1.843v8.099h-1.843V37.048z"/>
			<path d="M271.63,45.147c-0.063-0.496-0.063-0.864-0.063-1.104c-0.697,1.296-1.531,1.296-1.88,1.296
				c-0.909,0-1.319-0.336-1.569-0.64c-0.373-0.48-0.547-1.136-0.547-1.777c0-0.64,0.174-1.825,1.332-2.513
				c0.771-0.448,1.88-0.448,2.49-0.448c0-0.528-0.013-0.784-0.088-1.072c-0.161-0.592-0.646-0.672-0.821-0.672
				c-0.262,0-0.535,0.144-0.697,0.448c-0.137,0.272-0.137,0.528-0.137,0.72h-1.806c0.013-0.432,0.05-1.297,0.71-1.905
				c0.572-0.528,1.308-0.656,1.905-0.656c0.522,0,1.618,0.112,2.24,1.041c0.424,0.656,0.437,1.616,0.437,1.984l0.013,3.25
				c0,0.688,0.037,1.376,0.148,2.049H271.63z M269.364,42.65c0,0.544,0.286,1.152,0.896,1.152c0.336,0,0.609-0.208,0.784-0.464
				c0.323-0.512,0.349-1.137,0.349-2.001C270.21,41.209,269.364,41.689,269.364,42.65z"/>
			<path d="M274.716,33.606h1.843v4.434c0.622-1.056,1.457-1.088,1.78-1.088c1.531,0,2.739,1.553,2.739,4.274
				c0,3.025-1.369,4.082-2.627,4.082c-0.323,0-1.319-0.032-1.893-1.296c-0.013,0.256-0.024,0.64-0.063,1.136h-1.78V33.606z
				 M277.841,38.536c-1.357,0-1.357,1.985-1.357,2.497c0,1.841,0.61,2.721,1.445,2.721c1.27,0,1.27-2.033,1.27-2.449
				C279.198,40.665,279.173,38.536,277.841,38.536z"/>
			<path d="M283.865,41.706c0,0.528,0,2.161,1.282,2.161c0.461,0,0.922-0.224,1.096-1.121h1.682
				c-0.025,0.384-0.088,1.072-0.598,1.761c-0.461,0.624-1.283,0.944-2.204,0.944c-0.536,0-1.557-0.128-2.217-1.008
				c-0.572-0.769-0.81-1.857-0.81-3.153c0-1.313,0.25-2.881,1.308-3.826c0.485-0.416,1.083-0.672,1.769-0.672
				c0.896,0,1.967,0.448,2.54,1.953c0.423,1.104,0.398,2.289,0.373,2.961H283.865z M286.206,40.217c0-0.368-0.025-1.809-1.096-1.809
				c-0.81,0-1.146,0.864-1.183,1.809H286.206z"/>
			<path d="M293.001,45.035c-0.598,0.208-1.133,0.256-1.432,0.256c-1.855,0-1.855-1.504-1.855-2.177V38.68h-1.207v-1.568h1.207
				v-1.585l1.831-0.864v2.449h1.494v1.568h-1.494v3.649c0.013,0.736,0.013,1.201,0.834,1.201c0.274,0,0.398-0.016,0.622-0.048
				V45.035z"/>
			<path d="M295.627,41.706c0,0.528,0,2.161,1.282,2.161c0.461,0,0.922-0.224,1.096-1.121h1.682
				c-0.025,0.384-0.088,1.072-0.598,1.761c-0.461,0.624-1.283,0.944-2.204,0.944c-0.536,0-1.557-0.128-2.217-1.008
				c-0.572-0.769-0.81-1.857-0.81-3.153c0-1.313,0.25-2.881,1.308-3.826c0.485-0.416,1.083-0.672,1.769-0.672
				c0.896,0,1.967,0.448,2.54,1.953c0.423,1.104,0.398,2.289,0.373,2.961H295.627z M297.968,40.217c0-0.368-0.025-1.809-1.096-1.809
				c-0.81,0-1.146,0.864-1.183,1.809H297.968z"/>
			<path d="M302.349,42.81c0.025,0.512,0.273,1.104,1.046,1.104c0.66,0,0.972-0.48,0.972-0.96c0-0.368-0.15-0.656-0.872-0.913
				l-1.146-0.4c-0.511-0.192-1.594-0.592-1.594-2.241c0-1.569,1.121-2.529,2.752-2.529c1.295,0,2.341,0.769,2.391,2.385h-1.682
				c-0.049-0.896-0.609-0.96-0.896-0.96c-0.498,0-0.871,0.304-0.871,0.8c0,0.544,0.312,0.656,0.859,0.848l1.133,0.4
				c1.146,0.4,1.681,1.152,1.681,2.257c0,1.393-0.934,2.785-2.889,2.785c-0.81,0-1.581-0.224-2.153-0.993
				c-0.411-0.56-0.449-1.2-0.461-1.584H302.349z"/>
			<path d="M309.593,43.018l-1.481,3.938h-1.282l0.922-3.938H309.593z"/>
			<path d="M317.982,45.147c-0.063-0.496-0.063-0.864-0.063-1.104c-0.697,1.296-1.531,1.296-1.88,1.296
				c-0.909,0-1.32-0.336-1.568-0.64c-0.374-0.48-0.549-1.136-0.549-1.777c0-0.64,0.175-1.825,1.333-2.513
				c0.771-0.448,1.88-0.448,2.49-0.448c0-0.528-0.013-0.784-0.087-1.072c-0.162-0.592-0.648-0.672-0.822-0.672
				c-0.262,0-0.535,0.144-0.697,0.448c-0.137,0.272-0.137,0.528-0.137,0.72h-1.806c0.013-0.432,0.05-1.297,0.71-1.905
				c0.572-0.528,1.307-0.656,1.904-0.656c0.523,0,1.619,0.112,2.242,1.041c0.423,0.656,0.436,1.616,0.436,1.984l0.012,3.25
				c0,0.688,0.038,1.376,0.15,2.049H317.982z M315.716,42.65c0,0.544,0.287,1.152,0.896,1.152c0.337,0,0.61-0.208,0.785-0.464
				c0.323-0.512,0.349-1.137,0.349-2.001C316.563,41.209,315.716,41.689,315.716,42.65z"/>
			<path d="M325.289,33.59h1.855v10.244c0,0.48,0.024,1.008,0.05,1.313h-1.867l-0.051-1.168c-0.124,0.288-0.248,0.592-0.635,0.913
				c-0.461,0.384-0.946,0.416-1.22,0.416c-1.681,0-2.677-1.489-2.677-4.018c0-2.673,1.133-4.338,2.776-4.338
				c1.133,0,1.606,0.816,1.768,1.104V33.59z M323.882,43.771c0.536,0,0.972-0.417,1.171-0.913c0.274-0.672,0.299-1.504,0.299-1.905
				c0-1.584-0.535-2.449-1.37-2.449c-1.232,0-1.369,1.905-1.369,2.721C322.612,42.57,322.961,43.771,323.882,43.771z"/>
			<path d="M329.981,37.063l1.419,5.49l1.444-5.49h1.781l-2.267,8.083h-2.042l-2.304-8.083H329.981z"/>
			<path d="M337.138,41.706c0,0.528,0,2.161,1.282,2.161c0.461,0,0.922-0.224,1.096-1.121h1.681
				c-0.024,0.384-0.087,1.072-0.598,1.761c-0.46,0.624-1.282,0.944-2.203,0.944c-0.535,0-1.557-0.128-2.217-1.008
				c-0.572-0.769-0.809-1.857-0.809-3.153c0-1.313,0.248-2.881,1.307-3.826c0.486-0.416,1.084-0.672,1.769-0.672
				c0.896,0,1.967,0.448,2.54,1.953c0.423,1.104,0.398,2.289,0.373,2.961H337.138z M339.479,40.217c0-0.368-0.024-1.809-1.096-1.809
				c-0.81,0-1.146,0.864-1.183,1.809H339.479z"/>
			<path d="M342.577,39.048c0-0.384-0.05-1.552-0.088-2.017h1.731l0.037,1.553c0.236-0.688,0.647-1.665,2.142-1.569v2.129
				c-1.867-0.224-1.979,1.008-1.979,2.017v3.986h-1.843V39.048z"/>
			<path d="M348.701,42.81c0.024,0.512,0.274,1.104,1.046,1.104c0.66,0,0.971-0.48,0.971-0.96c0-0.368-0.148-0.656-0.871-0.913
				l-1.146-0.4c-0.511-0.192-1.594-0.592-1.594-2.241c0-1.569,1.12-2.529,2.752-2.529c1.295,0,2.341,0.769,2.391,2.385h-1.681
				c-0.051-0.896-0.61-0.96-0.896-0.96c-0.498,0-0.872,0.304-0.872,0.8c0,0.544,0.312,0.656,0.859,0.848l1.133,0.4
				c1.146,0.4,1.681,1.152,1.681,2.257c0,1.393-0.934,2.785-2.889,2.785c-0.809,0-1.581-0.224-2.154-0.993
				c-0.41-0.56-0.447-1.2-0.46-1.584H348.701z"/>
			<path d="M355.124,41.706c0,0.528,0,2.161,1.282,2.161c0.461,0,0.922-0.224,1.096-1.121h1.681
				c-0.024,0.384-0.087,1.072-0.598,1.761c-0.46,0.624-1.282,0.944-2.203,0.944c-0.535,0-1.557-0.128-2.217-1.008
				c-0.572-0.769-0.809-1.857-0.809-3.153c0-1.313,0.248-2.881,1.307-3.826c0.486-0.416,1.084-0.672,1.769-0.672
				c0.896,0,1.967,0.448,2.54,1.953c0.423,1.104,0.398,2.289,0.373,2.961H355.124z M357.465,40.217c0-0.368-0.024-1.809-1.096-1.809
				c-0.81,0-1.146,0.864-1.183,1.809H357.465z"/>
			<path d="M365.505,41.706c0,0.528,0,2.161,1.282,2.161c0.461,0,0.922-0.224,1.096-1.121h1.681
				c-0.024,0.384-0.087,1.072-0.598,1.761c-0.46,0.624-1.282,0.944-2.203,0.944c-0.535,0-1.557-0.128-2.217-1.008
				c-0.572-0.769-0.809-1.857-0.809-3.153c0-1.313,0.248-2.881,1.307-3.826c0.486-0.416,1.084-0.672,1.769-0.672
				c0.896,0,1.967,0.448,2.54,1.953c0.423,1.104,0.398,2.289,0.373,2.961H365.505z M367.846,40.217c0-0.368-0.024-1.809-1.096-1.809
				c-0.81,0-1.146,0.864-1.183,1.809H367.846z"/>
			<path d="M372.188,37.063l1.419,5.49l1.444-5.49h1.781l-2.267,8.083h-2.042l-2.304-8.083H372.188z"/>
			<path d="M379.346,41.706c0,0.528,0,2.161,1.282,2.161c0.461,0,0.922-0.224,1.096-1.121h1.682
				c-0.025,0.384-0.088,1.072-0.598,1.761c-0.461,0.624-1.283,0.944-2.204,0.944c-0.536,0-1.557-0.128-2.217-1.008
				c-0.572-0.769-0.81-1.857-0.81-3.153c0-1.313,0.25-2.881,1.308-3.826c0.485-0.416,1.083-0.672,1.769-0.672
				c0.896,0,1.967,0.448,2.54,1.953c0.423,1.104,0.398,2.289,0.373,2.961H379.346z M381.687,40.217c0-0.368-0.025-1.809-1.096-1.809
				c-0.81,0-1.146,0.864-1.183,1.809H381.687z"/>
			<path d="M384.81,38.504c0-0.032,0-0.913-0.037-1.473h1.768l0.051,1.216c0.174-0.368,0.672-1.408,2.041-1.408
				c1.233,0,1.756,0.96,1.918,1.521c0.137,0.496,0.174,0.912,0.174,2.417v4.37h-1.88v-5.026c0-0.336,0-0.625-0.1-0.88
				c-0.137-0.352-0.423-0.688-0.896-0.688c-0.398,0-0.759,0.24-0.958,0.625c-0.112,0.208-0.225,0.608-0.225,1.232v4.738h-1.855
				V38.504z"/>
			<path d="M396.087,45.035c-0.598,0.208-1.133,0.256-1.432,0.256c-1.855,0-1.855-1.504-1.855-2.177V38.68h-1.207v-1.568h1.207
				v-1.585l1.831-0.864v2.449h1.494v1.568h-1.494v3.649c0.013,0.736,0.013,1.201,0.834,1.201c0.274,0,0.398-0.016,0.622-0.048
				V45.035z"/>
			<path d="M398.514,42.81c0.024,0.512,0.274,1.104,1.046,1.104c0.66,0,0.971-0.48,0.971-0.96c0-0.368-0.148-0.656-0.871-0.913
				l-1.146-0.4c-0.511-0.192-1.594-0.592-1.594-2.241c0-1.569,1.12-2.529,2.752-2.529c1.295,0,2.341,0.769,2.391,2.385h-1.681
				c-0.051-0.896-0.61-0.96-0.896-0.96c-0.498,0-0.872,0.304-0.872,0.8c0,0.544,0.312,0.656,0.859,0.848l1.133,0.4
				c1.146,0.4,1.681,1.152,1.681,2.257c0,1.393-0.934,2.785-2.889,2.785c-0.809,0-1.581-0.224-2.154-0.993
				c-0.41-0.56-0.447-1.2-0.46-1.584H398.514z"/>
			<path d="M408.124,37.063l1.157,6.099l1.333-6.099h2.029l1.319,6.099l1.233-6.099h1.83l-2.154,8.083h-2.005l-1.295-5.986
				l-1.319,5.986h-2.029l-2.055-8.083H408.124z"/>
			<path d="M419.462,41.706c0,0.528,0,2.161,1.282,2.161c0.461,0,0.922-0.224,1.096-1.121h1.681
				c-0.024,0.384-0.087,1.072-0.598,1.761c-0.46,0.624-1.282,0.944-2.203,0.944c-0.535,0-1.557-0.128-2.217-1.008
				c-0.572-0.769-0.809-1.857-0.809-3.153c0-1.313,0.248-2.881,1.307-3.826c0.486-0.416,1.084-0.672,1.769-0.672
				c0.896,0,1.967,0.448,2.54,1.953c0.423,1.104,0.398,2.289,0.373,2.961H419.462z M421.803,40.217c0-0.368-0.024-1.809-1.096-1.809
				c-0.81,0-1.146,0.864-1.183,1.809H421.803z"/>
			<path d="M424.901,39.048c0-0.384-0.05-1.552-0.088-2.017h1.731l0.037,1.553c0.236-0.688,0.647-1.665,2.142-1.569v2.129
				c-1.867-0.224-1.979,1.008-1.979,2.017v3.986h-1.843V39.048z"/>
			<path d="M431.225,41.706c0,0.528,0,2.161,1.282,2.161c0.461,0,0.922-0.224,1.096-1.121h1.682
				c-0.025,0.384-0.088,1.072-0.598,1.761c-0.461,0.624-1.283,0.944-2.204,0.944c-0.536,0-1.557-0.128-2.217-1.008
				c-0.572-0.769-0.81-1.857-0.81-3.153c0-1.313,0.25-2.881,1.308-3.826c0.485-0.416,1.083-0.672,1.769-0.672
				c0.896,0,1.967,0.448,2.54,1.953c0.423,1.104,0.398,2.289,0.373,2.961H431.225z M433.565,40.217c0-0.368-0.025-1.809-1.096-1.809
				c-0.81,0-1.146,0.864-1.183,1.809H433.565z"/>
			<path d="M443.448,39.929c-0.025-0.288-0.1-1.488-0.81-1.488c-0.871,0-0.971,1.696-0.971,2.577c0,0.448,0.037,1.889,0.46,2.481
				c0.175,0.24,0.361,0.272,0.498,0.272c0.199,0,0.772-0.112,0.848-1.553h1.817c-0.024,0.625-0.087,1.601-0.81,2.385
				c-0.448,0.497-1.008,0.752-1.793,0.752c-0.834,0-1.568-0.24-2.142-1.072c-0.548-0.816-0.797-1.889-0.797-3.186
				c0-3.681,2.104-4.193,2.938-4.193c1.171,0,2.553,0.832,2.565,3.025H443.448z"/>
			<path d="M449.311,36.872c2.278,0,3.263,1.985,3.263,4.242c0,2.273-1.021,4.322-3.3,4.322c-1.793,0-3.212-1.424-3.212-4.258
				C446.062,39.225,446.833,36.872,449.311,36.872z M449.336,43.787c0.81,0,1.356-0.625,1.356-2.77c0-1.072-0.161-2.561-1.382-2.561
				c-1.345,0-1.356,2.001-1.356,2.737C447.954,43.002,448.427,43.787,449.336,43.787z"/>
			<path d="M453.99,38.584c0-0.512-0.024-1.009-0.063-1.521h1.78l0.063,1.041c0.199-0.352,0.686-1.216,1.942-1.216
				c1.444,0,1.855,1.136,1.979,1.521c0.523-1.296,1.37-1.504,2.018-1.504c1.27,0,1.78,0.976,1.918,1.296
				c0.336,0.704,0.311,1.681,0.311,2.385v4.562h-1.855v-4.754c0-0.864-0.1-1.825-1.058-1.825c-1.108,0-1.134,1.329-1.134,2.529v4.05
				h-1.854v-4.802c0-0.625-0.013-1.777-1.034-1.777c-1.157,0-1.157,1.28-1.157,1.825v4.754h-1.855V38.584z"/>
			<path d="M467.433,37.063l0.05,1.153c0.573-1.297,1.618-1.313,1.917-1.313c1.632,0,2.615,1.568,2.615,4.034
				c0,2.289-0.922,4.321-2.739,4.321c-1.133,0-1.594-0.768-1.756-1.04v4.034h-1.88V37.063H467.433z M470.147,41.033
				c0-0.96-0.188-2.609-1.271-2.609c-0.598,0-1.444,0.576-1.444,2.753c0,0.48,0.013,2.529,1.369,2.529
				C469.674,43.707,470.147,42.634,470.147,41.033z"/>
			<path d="M477.08,45.147c-0.063-0.496-0.063-0.864-0.063-1.104c-0.697,1.296-1.531,1.296-1.88,1.296
				c-0.909,0-1.32-0.336-1.568-0.64c-0.374-0.48-0.549-1.136-0.549-1.777c0-0.64,0.175-1.825,1.333-2.513
				c0.771-0.448,1.88-0.448,2.49-0.448c0-0.528-0.013-0.784-0.087-1.072c-0.162-0.592-0.648-0.672-0.822-0.672
				c-0.262,0-0.535,0.144-0.697,0.448c-0.137,0.272-0.137,0.528-0.137,0.72h-1.806c0.013-0.432,0.05-1.297,0.71-1.905
				c0.572-0.528,1.307-0.656,1.904-0.656c0.523,0,1.619,0.112,2.242,1.041c0.423,0.656,0.436,1.616,0.436,1.984l0.012,3.25
				c0,0.688,0.038,1.376,0.15,2.049H477.08z M474.813,42.65c0,0.544,0.287,1.152,0.896,1.152c0.337,0,0.61-0.208,0.785-0.464
				c0.323-0.512,0.349-1.137,0.349-2.001C475.661,41.209,474.813,41.689,474.813,42.65z"/>
			<path d="M480.229,39.048c0-0.384-0.05-1.552-0.087-2.017h1.73l0.037,1.553c0.236-0.688,0.647-1.665,2.142-1.569v2.129
				c-1.868-0.224-1.979,1.008-1.979,2.017v3.986h-1.843V39.048z"/>
			<path d="M488.843,45.147c-0.063-0.496-0.063-0.864-0.063-1.104c-0.697,1.296-1.531,1.296-1.88,1.296
				c-0.909,0-1.319-0.336-1.569-0.64c-0.373-0.48-0.547-1.136-0.547-1.777c0-0.64,0.174-1.825,1.332-2.513
				c0.771-0.448,1.88-0.448,2.49-0.448c0-0.528-0.013-0.784-0.088-1.072c-0.161-0.592-0.646-0.672-0.821-0.672
				c-0.262,0-0.535,0.144-0.697,0.448c-0.137,0.272-0.137,0.528-0.137,0.72h-1.806c0.013-0.432,0.05-1.297,0.71-1.905
				c0.572-0.528,1.308-0.656,1.905-0.656c0.522,0,1.618,0.112,2.24,1.041c0.424,0.656,0.437,1.616,0.437,1.984l0.013,3.25
				c0,0.688,0.037,1.376,0.148,2.049H488.843z M486.577,42.65c0,0.544,0.286,1.152,0.896,1.152c0.336,0,0.609-0.208,0.784-0.464
				c0.323-0.512,0.349-1.137,0.349-2.001C487.423,41.209,486.577,41.689,486.577,42.65z"/>
			<path d="M491.928,33.606h1.843v4.434c0.623-1.056,1.457-1.088,1.78-1.088c1.532,0,2.739,1.553,2.739,4.274
				c0,3.025-1.369,4.082-2.627,4.082c-0.324,0-1.32-0.032-1.893-1.296c-0.013,0.256-0.025,0.64-0.063,1.136h-1.78V33.606z
				 M495.053,38.536c-1.356,0-1.356,1.985-1.356,2.497c0,1.841,0.609,2.721,1.443,2.721c1.271,0,1.271-2.033,1.271-2.449
				C496.41,40.665,496.386,38.536,495.053,38.536z"/>
			<path d="M499.596,33.574h1.843v11.573h-1.843V33.574z"/>
			<path d="M504.537,41.706c0,0.528,0,2.161,1.282,2.161c0.461,0,0.922-0.224,1.096-1.121h1.682
				c-0.025,0.384-0.088,1.072-0.598,1.761c-0.461,0.624-1.283,0.944-2.204,0.944c-0.536,0-1.557-0.128-2.217-1.008
				c-0.572-0.769-0.81-1.857-0.81-3.153c0-1.313,0.25-2.881,1.308-3.826c0.485-0.416,1.083-0.672,1.769-0.672
				c0.896,0,1.967,0.448,2.54,1.953c0.423,1.104,0.398,2.289,0.373,2.961H504.537z M506.878,40.217c0-0.368-0.025-1.809-1.096-1.809
				c-0.81,0-1.146,0.864-1.183,1.809H506.878z"/>
			<path d="M513.374,33.606h1.843v4.434c0.622-1.056,1.457-1.088,1.78-1.088c1.531,0,2.739,1.553,2.739,4.274
				c0,3.025-1.369,4.082-2.627,4.082c-0.323,0-1.319-0.032-1.893-1.296c-0.013,0.256-0.024,0.64-0.063,1.136h-1.78V33.606z
				 M516.499,38.536c-1.357,0-1.357,1.985-1.357,2.497c0,1.841,0.61,2.721,1.445,2.721c1.27,0,1.27-2.033,1.27-2.449
				C517.856,40.665,517.831,38.536,516.499,38.536z"/>
			<path d="M522.523,41.706c0,0.528,0,2.161,1.282,2.161c0.461,0,0.922-0.224,1.096-1.121h1.682
				c-0.025,0.384-0.088,1.072-0.598,1.761c-0.461,0.624-1.283,0.944-2.204,0.944c-0.536,0-1.557-0.128-2.217-1.008
				c-0.572-0.769-0.81-1.857-0.81-3.153c0-1.313,0.25-2.881,1.308-3.826c0.485-0.416,1.083-0.672,1.769-0.672
				c0.896,0,1.967,0.448,2.54,1.953c0.423,1.104,0.398,2.289,0.373,2.961H522.523z M524.864,40.217c0-0.368-0.025-1.809-1.096-1.809
				c-0.81,0-1.146,0.864-1.183,1.809H524.864z"/>
			<path d="M531.659,45.035c-0.598,0.208-1.133,0.256-1.432,0.256c-1.855,0-1.855-1.504-1.855-2.177V38.68h-1.207v-1.568h1.207
				v-1.585l1.831-0.864v2.449h1.494v1.568h-1.494v3.649c0.013,0.736,0.013,1.201,0.834,1.201c0.274,0,0.398-0.016,0.622-0.048
				V45.035z"/>
			<path d="M534.011,37.063l1.158,6.099l1.332-6.099h2.03l1.319,6.099l1.232-6.099h1.831l-2.154,8.083h-2.005l-1.295-5.986
				l-1.319,5.986h-2.03l-2.054-8.083H534.011z"/>
			<path d="M545.351,41.706c0,0.528,0,2.161,1.282,2.161c0.461,0,0.922-0.224,1.096-1.121h1.681
				c-0.024,0.384-0.087,1.072-0.598,1.761c-0.46,0.624-1.282,0.944-2.203,0.944c-0.535,0-1.557-0.128-2.217-1.008
				c-0.572-0.769-0.809-1.857-0.809-3.153c0-1.313,0.248-2.881,1.307-3.826c0.486-0.416,1.084-0.672,1.769-0.672
				c0.896,0,1.967,0.448,2.54,1.953c0.423,1.104,0.398,2.289,0.373,2.961H545.351z M547.691,40.217c0-0.368-0.024-1.809-1.096-1.809
				c-0.81,0-1.146,0.864-1.183,1.809H547.691z"/>
			<path d="M552.271,41.706c0,0.528,0,2.161,1.282,2.161c0.461,0,0.922-0.224,1.096-1.121h1.682
				c-0.025,0.384-0.088,1.072-0.598,1.761c-0.461,0.624-1.283,0.944-2.204,0.944c-0.536,0-1.557-0.128-2.217-1.008
				c-0.572-0.769-0.81-1.857-0.81-3.153c0-1.313,0.25-2.881,1.308-3.826c0.485-0.416,1.083-0.672,1.769-0.672
				c0.896,0,1.967,0.448,2.54,1.953c0.423,1.104,0.398,2.289,0.373,2.961H552.271z M554.612,40.217c0-0.368-0.025-1.809-1.096-1.809
				c-0.81,0-1.146,0.864-1.183,1.809H554.612z"/>
			<path d="M557.734,38.504c0-0.032,0-0.913-0.037-1.473h1.769l0.049,1.216c0.175-0.368,0.673-1.408,2.043-1.408
				c1.232,0,1.755,0.96,1.917,1.521c0.137,0.496,0.175,0.912,0.175,2.417v4.37h-1.881v-5.026c0-0.336,0-0.625-0.1-0.88
				c-0.137-0.352-0.423-0.688-0.896-0.688c-0.398,0-0.76,0.24-0.959,0.625c-0.111,0.208-0.224,0.608-0.224,1.232v4.738h-1.855
				V38.504z"/>
			<path d="M568.775,33.574h1.843v11.573h-1.843V33.574z"/>
			<path d="M575.199,36.872c2.278,0,3.263,1.985,3.263,4.242c0,2.273-1.021,4.322-3.3,4.322c-1.793,0-3.212-1.424-3.212-4.258
				C571.95,39.225,572.722,36.872,575.199,36.872z M575.225,43.787c0.81,0,1.356-0.625,1.356-2.77c0-1.072-0.161-2.561-1.382-2.561
				c-1.345,0-1.356,2.001-1.356,2.737C573.843,43.002,574.315,43.787,575.225,43.787z"/>
			<path d="M581.048,37.063l1.158,6.099l1.332-6.099h2.03l1.319,6.099l1.232-6.099h1.831l-2.154,8.083h-2.005l-1.295-5.986
				l-1.319,5.986h-2.03l-2.054-8.083H581.048z"/>
			<path d="M598.139,45.147c-0.063-0.496-0.063-0.864-0.063-1.104c-0.697,1.296-1.531,1.296-1.88,1.296
				c-0.909,0-1.32-0.336-1.568-0.64c-0.374-0.48-0.549-1.136-0.549-1.777c0-0.64,0.175-1.825,1.333-2.513
				c0.771-0.448,1.88-0.448,2.49-0.448c0-0.528-0.013-0.784-0.087-1.072c-0.162-0.592-0.648-0.672-0.822-0.672
				c-0.262,0-0.535,0.144-0.697,0.448c-0.137,0.272-0.137,0.528-0.137,0.72h-1.806c0.013-0.432,0.05-1.297,0.71-1.905
				c0.572-0.528,1.307-0.656,1.904-0.656c0.523,0,1.619,0.112,2.242,1.041c0.423,0.656,0.436,1.616,0.436,1.984l0.012,3.25
				c0,0.688,0.038,1.376,0.15,2.049H598.139z M595.872,42.65c0,0.544,0.287,1.152,0.896,1.152c0.337,0,0.61-0.208,0.785-0.464
				c0.323-0.512,0.349-1.137,0.349-2.001C596.72,41.209,595.872,41.689,595.872,42.65z"/>
			<path d="M601.312,38.504c0-0.032,0-0.913-0.037-1.473h1.768l0.051,1.216c0.174-0.368,0.672-1.408,2.041-1.408
				c1.233,0,1.756,0.96,1.918,1.521c0.137,0.496,0.174,0.912,0.174,2.417v4.37h-1.88v-5.026c0-0.336,0-0.625-0.1-0.88
				c-0.137-0.352-0.423-0.688-0.896-0.688c-0.398,0-0.759,0.24-0.958,0.625c-0.112,0.208-0.225,0.608-0.225,1.232v4.738h-1.855
				V38.504z"/>
			<path d="M613.051,33.59h1.855v10.244c0,0.48,0.024,1.008,0.05,1.313h-1.867l-0.051-1.168c-0.124,0.288-0.248,0.592-0.635,0.913
				c-0.461,0.384-0.946,0.416-1.22,0.416c-1.681,0-2.677-1.489-2.677-4.018c0-2.673,1.133-4.338,2.776-4.338
				c1.133,0,1.606,0.816,1.768,1.104V33.59z M611.644,43.771c0.536,0,0.972-0.417,1.171-0.913c0.274-0.672,0.299-1.504,0.299-1.905
				c0-1.584-0.535-2.449-1.37-2.449c-1.232,0-1.369,1.905-1.369,2.721C610.374,42.57,610.723,43.771,611.644,43.771z"/>
			<path d="M620.007,33.59h1.83v4.578c0.212-0.384,0.672-1.216,1.818-1.216c0.934,0,1.531,0.592,1.83,1.088
				c0.224,0.4,0.41,1.137,0.41,2.193v4.914h-1.83v-4.834c0-0.464,0-1.761-1.033-1.761c-0.523,0-1.183,0.384-1.183,1.649l0.013,4.946
				h-1.855V33.59z"/>
			<path d="M627.5,33.59h1.968v2.065H627.5V33.59z M627.563,37.048h1.843v8.099h-1.843V37.048z"/>
			<path d="M636.986,37.096c-0.05,0.64-0.087,1.185-0.087,2.001v5.97c0,2.977-1.93,3.265-3.138,3.265
				c-0.896,0-2.652-0.144-2.765-2.593h1.769c0.024,0.24,0.112,1.121,1.096,1.121c0.548,0,1.021-0.336,1.146-1.057
				c0.074-0.4,0.074-0.688,0.087-1.921c-0.585,0.993-1.245,1.104-1.693,1.104c-1.806,0-2.652-2.017-2.652-3.97
				c0-2.049,0.884-4.001,2.689-4.001c1.146,0,1.569,0.8,1.756,1.152l0.063-1.072H636.986z M633.823,43.37
				c1.295,0,1.295-1.953,1.295-2.305c0-0.913-0.137-2.465-1.257-2.465c-0.697,0-1.271,0.688-1.271,2.417
				C632.591,41.417,632.591,43.37,633.823,43.37z"/>
			<path d="M638.678,33.59h1.83v4.578c0.212-0.384,0.673-1.216,1.817-1.216c0.935,0,1.532,0.592,1.831,1.088
				c0.224,0.4,0.411,1.137,0.411,2.193v4.914h-1.831v-4.834c0-0.464,0-1.761-1.033-1.761c-0.522,0-1.183,0.384-1.183,1.649
				l0.012,4.946h-1.854V33.59z"/>
			<path d="M653.852,33.59h1.855v10.244c0,0.48,0.024,1.008,0.05,1.313h-1.867l-0.051-1.168c-0.124,0.288-0.248,0.592-0.635,0.913
				c-0.461,0.384-0.946,0.416-1.22,0.416c-1.681,0-2.677-1.489-2.677-4.018c0-2.673,1.133-4.338,2.776-4.338
				c1.133,0,1.606,0.816,1.768,1.104V33.59z M652.444,43.771c0.536,0,0.972-0.417,1.171-0.913c0.274-0.672,0.299-1.504,0.299-1.905
				c0-1.584-0.535-2.449-1.37-2.449c-1.232,0-1.369,1.905-1.369,2.721C651.175,42.57,651.523,43.771,652.444,43.771z"/>
			<path d="M660.261,36.872c2.279,0,3.263,1.985,3.263,4.242c0,2.273-1.021,4.322-3.3,4.322c-1.793,0-3.213-1.424-3.213-4.258
				C657.011,39.225,657.783,36.872,660.261,36.872z M660.286,43.787c0.809,0,1.357-0.625,1.357-2.77
				c0-1.072-0.162-2.561-1.383-2.561c-1.345,0-1.357,2.001-1.357,2.737C658.903,43.002,659.377,43.787,660.286,43.787z"/>
			<path d="M666.186,42.81c0.024,0.512,0.274,1.104,1.046,1.104c0.66,0,0.971-0.48,0.971-0.96c0-0.368-0.148-0.656-0.871-0.913
				l-1.146-0.4c-0.511-0.192-1.594-0.592-1.594-2.241c0-1.569,1.12-2.529,2.752-2.529c1.295,0,2.341,0.769,2.391,2.385h-1.681
				c-0.051-0.896-0.61-0.96-0.896-0.96c-0.498,0-0.872,0.304-0.872,0.8c0,0.544,0.312,0.656,0.859,0.848l1.133,0.4
				c1.146,0.4,1.681,1.152,1.681,2.257c0,1.393-0.934,2.785-2.889,2.785c-0.809,0-1.581-0.224-2.154-0.993
				c-0.41-0.56-0.447-1.2-0.46-1.584H666.186z"/>
			<path d="M672.608,41.706c0,0.528,0,2.161,1.282,2.161c0.461,0,0.922-0.224,1.096-1.121h1.681
				c-0.024,0.384-0.087,1.072-0.598,1.761c-0.46,0.624-1.282,0.944-2.203,0.944c-0.535,0-1.557-0.128-2.217-1.008
				c-0.572-0.769-0.809-1.857-0.809-3.153c0-1.313,0.248-2.881,1.307-3.826c0.486-0.416,1.084-0.672,1.769-0.672
				c0.896,0,1.967,0.448,2.54,1.953c0.423,1.104,0.398,2.289,0.373,2.961H672.608z M674.949,40.217c0-0.368-0.024-1.809-1.096-1.809
				c-0.81,0-1.146,0.864-1.183,1.809H674.949z"/>
			<path d="M679.329,42.81c0.025,0.512,0.273,1.104,1.046,1.104c0.66,0,0.972-0.48,0.972-0.96c0-0.368-0.15-0.656-0.872-0.913
				l-1.146-0.4c-0.511-0.192-1.594-0.592-1.594-2.241c0-1.569,1.121-2.529,2.752-2.529c1.295,0,2.341,0.769,2.391,2.385h-1.682
				c-0.049-0.896-0.609-0.96-0.896-0.96c-0.498,0-0.871,0.304-0.871,0.8c0,0.544,0.312,0.656,0.859,0.848l1.133,0.4
				c1.146,0.4,1.681,1.152,1.681,2.257c0,1.393-0.934,2.785-2.889,2.785c-0.81,0-1.581-0.224-2.153-0.993
				c-0.411-0.56-0.449-1.2-0.461-1.584H679.329z"/>
			<path d="M690.694,36.872c2.279,0,3.263,1.985,3.263,4.242c0,2.273-1.021,4.322-3.3,4.322c-1.793,0-3.213-1.424-3.213-4.258
				C687.444,39.225,688.217,36.872,690.694,36.872z M690.72,43.787c0.809,0,1.357-0.625,1.357-2.77c0-1.072-0.162-2.561-1.383-2.561
				c-1.345,0-1.357,2.001-1.357,2.737C689.337,43.002,689.811,43.787,690.72,43.787z"/>
			<path d="M695.46,38.745h-0.934v-1.681h0.934v-1.104c0-1.425,0.374-2.577,2.167-2.577c0.124,0,0.473,0,0.996,0.08v1.648
				c-0.187-0.032-0.237-0.048-0.386-0.048c-0.947,0-0.947,0.64-0.947,1.056v0.944h1.171v1.681h-1.171v6.402h-1.83V38.745z"/>
			<path d="M702.991,33.59h1.967v9.588h3.86v1.969h-5.827V33.59z"/>
			<path d="M709.799,33.542h1.93v11.604h-1.93V33.542z"/>
			<path d="M713.322,33.606h2.776c1.295,0,2.378,0.112,3.125,1.264c0.474,0.736,0.548,1.569,0.548,2.161
				c0,1.345-0.436,2.481-1.146,3.073c-0.66,0.544-1.568,0.544-2.042,0.544h-1.308v4.498h-1.954V33.606z M715.228,38.809h0.771
				c0.623,0,1.78,0,1.78-1.761c0-1.569-1.033-1.569-1.581-1.569h-0.971V38.809z"/>
			<path d="M720.864,33.542h1.93v11.604h-1.93V33.542z"/>
			<path d="M726.429,35.495h-2.678v-1.921h7.297v1.921h-2.677v9.652h-1.942V35.495z"/>
			<path d="M736.026,33.334c0.959,0,2.278,0.289,3.162,1.569c0.959,1.409,1.146,3.217,1.146,4.354c0,1.681-0.398,3.474-1.133,4.53
				c-0.996,1.44-2.453,1.648-3.2,1.648c-1.183,0-2.365-0.48-3.188-1.584c-0.983-1.345-1.107-3.266-1.107-4.322
				C731.706,36.456,732.789,33.334,736.026,33.334z M734.396,42.682c0.273,0.48,0.734,0.928,1.631,0.928
				c0.784,0,1.319-0.352,1.681-1.072c0.299-0.576,0.61-1.473,0.61-3.313c0-0.56-0.037-1.36-0.225-2.065
				c-0.373-1.424-1.133-2.049-2.055-2.049c-0.722,0-1.295,0.384-1.655,0.977c-0.511,0.8-0.66,2.049-0.66,3.361
				C733.723,40.553,733.859,41.786,734.396,42.682z"/>
			<path d="M741.613,33.574h3.449c0.996-0.016,2.005-0.016,2.727,0.784c0.561,0.625,0.784,1.473,0.784,2.225
				c0,2.161-1.444,2.673-1.88,2.833c1.357,0.16,1.457,1.153,1.618,2.657c0.138,1.36,0.212,1.921,0.274,2.241
				c0.1,0.512,0.175,0.641,0.274,0.833h-2.13c-0.087-0.64-0.36-3.569-0.485-4.018c-0.174-0.656-0.647-0.656-0.971-0.656h-1.693
				v4.674h-1.968V33.574z M743.519,38.632h1.557c0.224,0,0.672,0,0.983-0.32c0.137-0.128,0.498-0.528,0.498-1.344
				c0-0.785-0.299-1.152-0.474-1.296c-0.299-0.272-0.66-0.272-1.27-0.272h-1.295V38.632z"/>
			<path d="M754.819,36.462c0,1.939-1.234,3.524-2.745,3.524c-1.496,0-2.745-1.566-2.745-3.524c0-1.995,1.278-3.524,2.745-3.524
				C753.556,32.938,754.819,34.467,754.819,36.462z M749.771,36.453c0,1.641,1.031,2.965,2.296,2.965c1.278,0,2.31-1.352,2.31-2.965
				c0-1.641-1.046-2.946-2.31-2.946C750.817,33.507,749.771,34.793,749.771,36.453z M751.043,34.486h1.061
				c0.363,0,1.075,0,1.075,1.044c0,0.727-0.363,0.876-0.582,0.97c0.422,0.037,0.451,0.392,0.509,0.895
				c0.029,0.317,0.073,0.857,0.16,1.044h-0.654c-0.015-0.187-0.116-1.193-0.116-1.249c-0.043-0.224-0.102-0.336-0.319-0.336h-0.537
				v1.585h-0.596V34.486z M751.624,36.22h0.479c0.392,0,0.465-0.354,0.465-0.56c0-0.541-0.291-0.541-0.45-0.541h-0.494V36.22z"/>
			<path d="M755.155,38.504l1.314-1.539c0.232-0.27,0.494-0.568,0.763-0.988c0.283-0.438,0.349-0.643,0.349-0.941
				c0-0.494-0.225-0.83-0.603-0.83c-0.581,0-0.632,0.764-0.64,0.951h-1.111c0-0.261,0-0.746,0.298-1.221
				c0.291-0.466,0.828-0.708,1.445-0.708c1.104,0,1.715,0.764,1.715,1.771c0,0.671-0.204,1.538-2.397,3.804
				c0.733-0.019,0.821-0.028,1.395-0.038c0.777-0.019,0.864-0.019,1.031-0.028v1.082h-3.559V38.504z"/>
		</g>
	</g>
</g>
</svg>
