<?xml version="1.0" encoding="utf-8"?>
<!-- Generator: Adobe Illustrator 17.0.0, SVG Export Plug-In . SVG Version: 6.00 Build 0)  -->
<!DOCTYPE svg PUBLIC "-//W3C//DTD SVG 1.1//EN" "http://www.w3.org/Graphics/SVG/1.1/DTD/svg11.dtd">
<svg version="1.1" id="Layer_1" xmlns="http://www.w3.org/2000/svg" xmlns:xlink="http://www.w3.org/1999/xlink" x="0px" y="0px"
	 width="161.805px" height="17.066px" viewBox="246.516 -54.059 161.805 17.066"
	 enable-background="new 246.516 -54.059 161.805 17.066" xml:space="preserve">
<g>
	<g>
		<path fill="#005E7D" d="M250.43-51.465h-3.914v-2.184h10.667v2.184h-3.913v10.977h-2.84V-51.465z"/>
		<path fill="#005E7D" d="M258.698-53.649h4.078l4.933,10.358v-10.358h2.621v13.161h-3.877l-5.097-10.922v10.922h-2.658V-53.649z"/>
		<path fill="#005E7D" d="M275.724-51.465h-3.914v-2.184h10.667v2.184h-3.913v10.977h-2.84V-51.465z"/>
		<path fill="#005E7D" d="M290.802-43.146c0.036,0.583,0.4,1.256,1.528,1.256c0.965,0,1.42-0.546,1.42-1.092
			c0-0.418-0.218-0.746-1.273-1.038l-1.675-0.455c-0.747-0.218-2.33-0.673-2.33-2.548c0-1.784,1.638-2.876,4.022-2.876
			c1.894,0,3.423,0.874,3.495,2.712h-2.457c-0.073-1.02-0.893-1.092-1.311-1.092c-0.729,0-1.274,0.346-1.274,0.91
			c0,0.619,0.455,0.746,1.256,0.965l1.656,0.455c1.675,0.455,2.458,1.311,2.458,2.566c0,1.584-1.365,3.167-4.224,3.167
			c-1.184,0-2.312-0.255-3.149-1.128c-0.601-0.637-0.655-1.365-0.673-1.802H290.802z"/>
		<path fill="#005E7D" d="M303.549-40.488c-0.091-0.564-0.091-0.983-0.091-1.256c-1.02,1.474-2.239,1.474-2.749,1.474
			c-1.329,0-1.93-0.382-2.294-0.728c-0.546-0.546-0.801-1.292-0.801-2.021c0-0.729,0.255-2.075,1.947-2.858
			c1.129-0.51,2.749-0.51,3.642-0.51c0-0.601-0.019-0.892-0.128-1.22c-0.236-0.673-0.946-0.765-1.201-0.765
			c-0.383,0-0.783,0.164-1.02,0.51c-0.2,0.31-0.2,0.601-0.2,0.819h-2.64c0.019-0.492,0.073-1.475,1.038-2.167
			c0.837-0.601,1.911-0.746,2.785-0.746c0.764,0,2.366,0.127,3.276,1.183c0.619,0.747,0.637,1.838,0.637,2.257l0.019,3.695
			c0,0.783,0.055,1.565,0.219,2.33h-2.439V-40.488z M300.235-43.328c0,0.619,0.419,1.311,1.311,1.311
			c0.492,0,0.893-0.236,1.147-0.528c0.473-0.583,0.51-1.292,0.51-2.275C301.474-44.966,300.235-44.42,300.235-43.328z"/>
		<path fill="#005E7D" d="M308.339-47.77h-1.365v-1.911h1.365v-1.256c0-1.62,0.546-2.931,3.168-2.931c0.182,0,0.691,0,1.456,0.091
			v1.875c-0.273-0.037-0.346-0.055-0.564-0.055c-1.384,0-1.384,0.728-1.384,1.201v1.074h1.711v1.911h-1.711v7.282h-2.676V-47.77z"/>
		<path fill="#005E7D" d="M315.677-44.402c0,0.601,0,2.457,1.875,2.457c0.674,0,1.347-0.254,1.602-1.274h2.458
			c-0.037,0.437-0.128,1.22-0.874,2.002c-0.674,0.71-1.875,1.074-3.222,1.074c-0.783,0-2.276-0.146-3.24-1.146
			c-0.838-0.874-1.184-2.112-1.184-3.586c0-1.493,0.364-3.276,1.911-4.351c0.71-0.473,1.584-0.765,2.585-0.765
			c1.311,0,2.876,0.51,3.714,2.221c0.619,1.256,0.582,2.604,0.546,3.368C321.849-44.402,315.677-44.402,315.677-44.402z
			 M319.099-46.095c0-0.418-0.036-2.057-1.602-2.057c-1.184,0-1.675,0.983-1.729,2.057
			C315.768-46.095,319.099-46.095,319.099-46.095z"/>
		<path fill="#005E7D" d="M329.044-40.616c-0.874,0.237-1.656,0.292-2.094,0.292c-2.712,0-2.712-1.711-2.712-2.476v-5.043h-1.766
			v-1.783h1.766v-1.803l2.676-0.983v2.785h2.185v1.784h-2.185v4.151c0.019,0.837,0.019,1.365,1.22,1.365
			c0.4,0,0.582-0.019,0.91-0.055V-40.616z"/>
		<path fill="#005E7D" d="M332.704-49.681l2.021,6.371l2.057-6.371h2.676l-3.477,9.029l-1.11,3.659h-2.713l1.165-3.458l-3.531-9.229
			L332.704-49.681L332.704-49.681z"/>
		<path fill="#005E7D" d="M345.909-47.424c0-0.437-0.073-1.766-0.128-2.294h2.53l0.055,1.766c0.346-0.783,0.946-1.894,3.131-1.784
			v2.421c-2.73-0.255-2.895,1.146-2.895,2.293v4.533h-2.693V-47.424z"/>
		<path fill="#005E7D" d="M354.63-44.402c0,0.601,0,2.457,1.875,2.457c0.674,0,1.347-0.254,1.602-1.274h2.458
			c-0.037,0.437-0.128,1.22-0.874,2.002c-0.674,0.71-1.875,1.074-3.222,1.074c-0.783,0-2.276-0.146-3.24-1.146
			c-0.838-0.874-1.184-2.112-1.184-3.586c0-1.493,0.364-3.276,1.911-4.351c0.71-0.473,1.584-0.765,2.585-0.765
			c1.311,0,2.876,0.51,3.714,2.221c0.619,1.256,0.582,2.604,0.546,3.368C360.801-44.402,354.63-44.402,354.63-44.402z
			 M358.05-46.095c0-0.418-0.036-2.057-1.602-2.057c-1.184,0-1.675,0.983-1.729,2.057C354.719-46.095,358.05-46.095,358.05-46.095z"
			/>
		<path fill="#005E7D" d="M364.464-43.146c0.036,0.583,0.4,1.256,1.528,1.256c0.965,0,1.42-0.546,1.42-1.092
			c0-0.418-0.218-0.746-1.273-1.038l-1.675-0.455c-0.747-0.218-2.33-0.673-2.33-2.548c0-1.784,1.638-2.876,4.022-2.876
			c1.894,0,3.423,0.874,3.495,2.712h-2.457c-0.073-1.02-0.893-1.092-1.311-1.092c-0.729,0-1.274,0.346-1.274,0.91
			c0,0.619,0.455,0.746,1.256,0.965l1.656,0.455c1.675,0.455,2.458,1.311,2.458,2.566c0,1.584-1.365,3.167-4.224,3.167
			c-1.184,0-2.312-0.255-3.149-1.128c-0.601-0.637-0.655-1.365-0.673-1.802H364.464z"/>
		<path fill="#005E7D" d="M374.333-49.681v5.479c0,0.801,0,2.021,1.438,2.021c1.729,0,1.729-1.292,1.729-2.858v-4.642h2.767v6.062
			c0.037,1.984,0.055,2.221,0.055,2.458c0.019,0.255,0.037,0.418,0.073,0.673h-2.621l-0.092-1.22
			c-0.272,0.4-0.965,1.457-2.712,1.457c-1.238,0-2.257-0.564-2.767-1.238c-0.602-0.747-0.602-2.021-0.602-2.476v-5.716H374.333z"/>
		<path fill="#005E7D" d="M382.82-53.649h2.693v13.161h-2.693V-53.649z"/>
		<path fill="#005E7D" d="M393.289-40.616c-0.874,0.237-1.656,0.292-2.094,0.292c-2.712,0-2.712-1.711-2.712-2.476v-5.043h-1.766
			v-1.783h1.766v-1.803l2.676-0.983v2.785h2.185v1.784h-2.185v4.151c0.019,0.837,0.019,1.365,1.22,1.365
			c0.4,0,0.582-0.019,0.91-0.055V-40.616z"/>
		<path fill="#005E7D" d="M396.841-43.146c0.036,0.583,0.4,1.256,1.528,1.256c0.965,0,1.42-0.546,1.42-1.092
			c0-0.418-0.218-0.746-1.273-1.038l-1.675-0.455c-0.747-0.218-2.33-0.673-2.33-2.548c0-1.784,1.638-2.876,4.022-2.876
			c1.894,0,3.423,0.874,3.495,2.712h-2.457c-0.073-1.02-0.893-1.092-1.311-1.092c-0.729,0-1.274,0.346-1.274,0.91
			c0,0.619,0.455,0.746,1.256,0.965l1.656,0.455c1.675,0.455,2.458,1.311,2.458,2.566c0,1.584-1.365,3.167-4.224,3.167
			c-1.184,0-2.312-0.255-3.149-1.128c-0.601-0.637-0.655-1.365-0.673-1.802H396.841z"/>
	</g>
	<g>
		<path fill="#005E7D" d="M403.117-48.048l1.922-1.752c0.34-0.308,0.723-0.648,1.115-1.126c0.414-0.499,0.51-0.733,0.51-1.073
			c0-0.563-0.329-0.945-0.881-0.945c-0.85,0-0.925,0.871-0.936,1.083h-1.624c0-0.297,0-0.85,0.435-1.391
			c0.426-0.531,1.211-0.807,2.114-0.807c1.614,0,2.506,0.871,2.506,2.018c0,0.765-0.297,1.752-3.505,4.333
			c1.073-0.021,1.2-0.032,2.039-0.042c1.137-0.021,1.264-0.021,1.509-0.032v1.232h-5.204V-48.048z"/>
	</g>
</g>
</svg>
