<?xml version="1.0" encoding="utf-8"?>
<!-- Generator: Adobe Illustrator 17.0.0, SVG Export Plug-In . SVG Version: 6.00 Build 0)  -->
<!DOCTYPE svg PUBLIC "-//W3C//DTD SVG 1.1//EN" "http://www.w3.org/Graphics/SVG/1.1/DTD/svg11.dtd">
<svg version="1.1" id="Layer_1" xmlns="http://www.w3.org/2000/svg" xmlns:xlink="http://www.w3.org/1999/xlink" x="0px" y="0px"
	 width="651.199px" height="292.927px" viewBox="0 0 651.199 292.927" enable-background="new 0 0 651.199 292.927"
	 xml:space="preserve">
<g>
	<path fill="#005E7D" d="M493.357,31.781h156.831v93.309H493.357V31.781z M336.526,31.781h156.831v93.309H336.526V31.781z
		 M1.012,31.781h335.514v93.309H1.012V31.781z"/>
	<line fill="none" x1="0" y1="31.781" x2="336.526" y2="31.781"/>
	<line fill="none" x1="1.012" y1="124.079" x2="1.012" y2="32.793"/>
	<line fill="none" x1="336.526" y1="31.781" x2="493.357" y2="31.781"/>
	<line fill="none" stroke="#FFFFFF" stroke-miterlimit="10" x1="336.526" y1="124.079" x2="336.526" y2="32.793"/>
	<line fill="none" x1="493.357" y1="31.781" x2="651.199" y2="31.781"/>
	<line fill="none" stroke="#FFFFFF" stroke-miterlimit="10" x1="493.357" y1="124.079" x2="493.357" y2="32.793"/>
	<line fill="none" x1="650.188" y1="124.079" x2="650.188" y2="32.793"/>
	<line fill="none" x1="0" y1="125.09" x2="336.526" y2="125.09"/>
	<line fill="none" stroke="#000000" stroke-miterlimit="10" x1="1.012" y1="167.783" x2="1.012" y2="126.102"/>
	<line fill="none" x1="336.526" y1="125.09" x2="493.357" y2="125.09"/>
	<line fill="none" stroke="#000000" stroke-miterlimit="10" x1="336.526" y1="167.783" x2="336.526" y2="126.102"/>
	<line fill="none" x1="493.357" y1="125.09" x2="651.199" y2="125.09"/>
	<line fill="none" stroke="#000000" stroke-miterlimit="10" x1="493.357" y1="167.783" x2="493.357" y2="126.102"/>
	<line fill="none" stroke="#000000" stroke-miterlimit="10" x1="650.188" y1="167.783" x2="650.188" y2="126.102"/>
	<line fill="none" stroke="#000000" stroke-miterlimit="10" x1="0" y1="168.795" x2="336.526" y2="168.795"/>
	<line fill="none" stroke="#000000" stroke-miterlimit="10" x1="1.012" y1="240.1" x2="1.012" y2="169.806"/>
	<line fill="none" stroke="#000000" stroke-miterlimit="10" x1="336.526" y1="168.795" x2="493.357" y2="168.795"/>
	<line fill="none" stroke="#000000" stroke-miterlimit="10" x1="336.526" y1="240.1" x2="336.526" y2="169.806"/>
	<line fill="none" stroke="#000000" stroke-miterlimit="10" x1="493.357" y1="168.795" x2="651.199" y2="168.795"/>
	<line fill="none" stroke="#000000" stroke-miterlimit="10" x1="493.357" y1="240.1" x2="493.357" y2="169.806"/>
	<line fill="none" stroke="#000000" stroke-miterlimit="10" x1="650.188" y1="240.1" x2="650.188" y2="169.806"/>
	<line fill="none" stroke="#000000" stroke-miterlimit="10" x1="0" y1="241.112" x2="336.526" y2="241.112"/>
	<line fill="none" stroke="#000000" stroke-miterlimit="10" x1="1.012" y1="283.805" x2="1.012" y2="242.123"/>
	<line fill="none" stroke="#000000" stroke-miterlimit="10" x1="336.526" y1="241.112" x2="493.357" y2="241.112"/>
	<line fill="none" stroke="#000000" stroke-miterlimit="10" x1="336.526" y1="283.805" x2="336.526" y2="242.123"/>
	<line fill="none" stroke="#000000" stroke-miterlimit="10" x1="493.357" y1="241.112" x2="651.199" y2="241.112"/>
	<line fill="none" stroke="#000000" stroke-miterlimit="10" x1="493.357" y1="283.805" x2="493.357" y2="242.123"/>
	<line fill="none" stroke="#000000" stroke-miterlimit="10" x1="650.188" y1="283.805" x2="650.188" y2="242.123"/>
	<line fill="none" stroke="#000000" stroke-miterlimit="10" x1="0" y1="284.816" x2="336.526" y2="284.816"/>
	<line fill="none" stroke="#000000" stroke-miterlimit="10" x1="336.526" y1="284.816" x2="493.357" y2="284.816"/>
	<line fill="none" stroke="#000000" stroke-miterlimit="10" x1="493.357" y1="284.816" x2="651.199" y2="284.816"/>
	<g>
		<path fill="#FFFFFF" d="M115.265,71.868l4.569,13.161h-2.84l-0.946-2.84h-5.206l-0.983,2.84h-2.694l4.751-13.161H115.265z
			 M115.339,80.059l-1.82-5.606l-1.948,5.606H115.339z"/>
		<path fill="#FFFFFF" d="M127.139,71.886h2.712v11.65c0,0.546,0.036,1.147,0.073,1.493h-2.73l-0.073-1.329
			c-0.182,0.328-0.364,0.674-0.929,1.038c-0.673,0.437-1.383,0.474-1.783,0.474c-2.458,0-3.914-1.693-3.914-4.569
			c0-3.04,1.656-4.933,4.06-4.933c1.656,0,2.348,0.928,2.585,1.256L127.139,71.886L127.139,71.886z M125.082,83.463
			c0.783,0,1.42-0.473,1.711-1.038c0.401-0.765,0.438-1.711,0.438-2.167c0-1.802-0.783-2.785-2.003-2.785
			c-1.802,0-2.002,2.167-2.002,3.095C123.225,82.098,123.735,83.463,125.082,83.463z"/>
		<path fill="#FFFFFF" d="M134.006,75.836l2.075,6.244l2.111-6.244h2.604l-3.313,9.193h-2.985l-3.368-9.193H134.006z"/>
		<path fill="#FFFFFF" d="M144.131,81.115c0,0.601,0,2.457,1.875,2.457c0.674,0,1.347-0.254,1.602-1.274h2.458
			c-0.037,0.437-0.128,1.22-0.874,2.002c-0.674,0.71-1.875,1.074-3.222,1.074c-0.783,0-2.276-0.146-3.24-1.146
			c-0.838-0.874-1.184-2.112-1.184-3.586c0-1.493,0.364-3.276,1.911-4.351c0.71-0.473,1.584-0.765,2.585-0.765
			c1.311,0,2.876,0.51,3.714,2.221c0.619,1.256,0.582,2.604,0.546,3.368C150.302,81.115,144.131,81.115,144.131,81.115z
			 M147.553,79.422c0-0.418-0.036-2.057-1.602-2.057c-1.184,0-1.675,0.983-1.729,2.057H147.553z"/>
		<path fill="#FFFFFF" d="M152.09,78.093c0-0.437-0.073-1.766-0.128-2.294h2.53l0.055,1.766c0.346-0.783,0.946-1.894,3.131-1.784
			v2.421c-2.73-0.255-2.895,1.146-2.895,2.293v4.533h-2.693L152.09,78.093L152.09,78.093z"/>
		<path fill="#FFFFFF" d="M161.048,82.371c0.036,0.583,0.4,1.256,1.528,1.256c0.965,0,1.42-0.546,1.42-1.092
			c0-0.418-0.218-0.746-1.273-1.038l-1.675-0.455c-0.747-0.218-2.33-0.673-2.33-2.548c0-1.784,1.638-2.876,4.022-2.876
			c1.894,0,3.423,0.874,3.495,2.712h-2.457c-0.073-1.02-0.893-1.092-1.311-1.092c-0.729,0-1.274,0.346-1.274,0.91
			c0,0.619,0.455,0.746,1.256,0.965l1.656,0.455c1.675,0.455,2.458,1.311,2.458,2.566c0,1.584-1.365,3.167-4.224,3.167
			c-1.184,0-2.312-0.255-3.149-1.128c-0.601-0.637-0.655-1.365-0.673-1.802C158.517,82.371,161.048,82.371,161.048,82.371z"/>
		<path fill="#FFFFFF" d="M170.444,81.115c0,0.601,0,2.457,1.875,2.457c0.674,0,1.347-0.254,1.602-1.274h2.458
			c-0.037,0.437-0.128,1.22-0.874,2.002c-0.674,0.71-1.875,1.074-3.222,1.074c-0.783,0-2.275-0.146-3.24-1.146
			c-0.838-0.874-1.184-2.112-1.184-3.586c0-1.493,0.364-3.276,1.911-4.351c0.71-0.473,1.584-0.765,2.585-0.765
			c1.311,0,2.876,0.51,3.714,2.221c0.619,1.256,0.582,2.604,0.546,3.368C176.615,81.115,170.444,81.115,170.444,81.115z
			 M173.866,79.422c0-0.418-0.036-2.057-1.602-2.057c-1.184,0-1.675,0.983-1.729,2.057H173.866z"/>
		<path fill="#FFFFFF" d="M185.632,81.115c0,0.601,0,2.457,1.875,2.457c0.674,0,1.347-0.254,1.602-1.274h2.458
			c-0.037,0.437-0.128,1.22-0.874,2.002c-0.674,0.71-1.875,1.074-3.222,1.074c-0.783,0-2.275-0.146-3.24-1.146
			c-0.838-0.874-1.184-2.112-1.184-3.586c0-1.493,0.364-3.276,1.911-4.351c0.71-0.473,1.584-0.765,2.585-0.765
			c1.311,0,2.876,0.51,3.714,2.221c0.619,1.256,0.582,2.604,0.546,3.368C191.803,81.115,185.632,81.115,185.632,81.115z
			 M189.054,79.422c0-0.418-0.036-2.057-1.602-2.057c-1.184,0-1.675,0.983-1.729,2.057H189.054z"/>
		<path fill="#FFFFFF" d="M195.411,75.836l2.075,6.244l2.111-6.244h2.604l-3.313,9.193h-2.985l-3.368-9.193H195.411z"/>
		<path fill="#FFFFFF" d="M205.517,81.115c0,0.601,0,2.457,1.875,2.457c0.674,0,1.347-0.254,1.602-1.274h2.458
			c-0.037,0.437-0.128,1.22-0.874,2.002c-0.674,0.71-1.875,1.074-3.222,1.074c-0.783,0-2.276-0.146-3.24-1.146
			c-0.838-0.874-1.184-2.112-1.184-3.586c0-1.493,0.364-3.276,1.911-4.351c0.71-0.473,1.584-0.765,2.585-0.765
			c1.311,0,2.876,0.51,3.714,2.221c0.619,1.256,0.582,2.604,0.546,3.368C211.688,81.115,205.517,81.115,205.517,81.115z
			 M208.939,79.422c0-0.418-0.036-2.057-1.602-2.057c-1.184,0-1.675,0.983-1.729,2.057H208.939z"/>
		<path fill="#FFFFFF" d="M213.513,77.474c0-0.036,0-1.038-0.055-1.675h2.585l0.073,1.384c0.255-0.419,0.982-1.602,2.985-1.602
			c1.802,0,2.566,1.092,2.803,1.729c0.2,0.564,0.255,1.038,0.255,2.749v4.97h-2.749v-5.716c0-0.382,0-0.71-0.146-1.001
			c-0.2-0.4-0.618-0.783-1.311-0.783c-0.582,0-1.11,0.273-1.401,0.71c-0.164,0.237-0.328,0.692-0.328,1.402v5.388h-2.712
			L213.513,77.474L213.513,77.474z"/>
		<path fill="#FFFFFF" d="M230.009,84.901c-0.874,0.237-1.656,0.292-2.094,0.292c-2.712,0-2.712-1.711-2.712-2.476v-5.042h-1.766
			v-1.784h1.766v-1.802l2.676-0.983v2.785h2.185v1.784h-2.185v4.151c0.019,0.837,0.019,1.365,1.22,1.365
			c0.4,0,0.582-0.019,0.91-0.055V84.901z"/>
	</g>
	<g>
		<path fill="#FFFFFF" d="M377.908,50.034h2.876v10.904h5.644v2.239h-8.52L377.908,50.034L377.908,50.034z"/>
		<path fill="#FFFFFF" d="M387.869,49.979h2.822v13.198h-2.822V49.979z"/>
		<path fill="#FFFFFF" d="M393.023,50.052h4.059c1.894,0,3.478,0.127,4.569,1.438c0.692,0.837,0.801,1.784,0.801,2.458
			c0,1.529-0.637,2.822-1.674,3.495c-0.965,0.619-2.294,0.619-2.986,0.619h-1.911v5.115h-2.857L393.023,50.052L393.023,50.052z
			 M395.808,55.969h1.128c0.91,0,2.604,0,2.604-2.002c0-1.784-1.511-1.784-2.312-1.784h-1.42L395.808,55.969L395.808,55.969z"/>
		<path fill="#FFFFFF" d="M404.057,49.979h2.822v13.198h-2.822V49.979z"/>
		<path fill="#FFFFFF" d="M412.197,52.2h-3.914v-2.184h10.667V52.2h-3.913v10.977h-2.84V52.2z"/>
		<path fill="#FFFFFF" d="M425.508,49.743c1.402,0,3.331,0.328,4.624,1.784c1.401,1.602,1.675,3.659,1.675,4.952
			c0,1.911-0.583,3.95-1.656,5.151c-1.457,1.638-3.587,1.875-4.679,1.875c-1.729,0-3.459-0.546-4.66-1.802
			c-1.438-1.529-1.62-3.713-1.62-4.915C419.191,53.292,420.775,49.743,425.508,49.743z M423.123,60.374
			c0.4,0.546,1.074,1.056,2.385,1.056c1.147,0,1.93-0.4,2.458-1.22c0.437-0.655,0.892-1.675,0.892-3.768
			c0-0.637-0.055-1.547-0.327-2.348c-0.547-1.62-1.657-2.33-3.004-2.33c-1.056,0-1.894,0.437-2.421,1.11
			c-0.747,0.91-0.965,2.33-0.965,3.823C422.14,57.953,422.341,59.354,423.123,60.374z"/>
		<path fill="#FFFFFF" d="M433.685,50.016h5.043c1.456-0.019,2.931-0.019,3.986,0.892c0.819,0.71,1.147,1.675,1.147,2.531
			c0,2.457-2.112,3.04-2.749,3.222c1.984,0.182,2.13,1.311,2.366,3.022c0.2,1.547,0.31,2.185,0.4,2.548
			c0.146,0.583,0.255,0.729,0.4,0.947h-3.112c-0.128-0.728-0.528-4.06-0.71-4.569c-0.255-0.746-0.947-0.746-1.42-0.746h-2.476v5.315
			h-2.877V50.016H433.685z M436.471,55.769h2.276c0.327,0,0.982,0,1.438-0.364c0.2-0.146,0.729-0.601,0.729-1.529
			c0-0.892-0.438-1.311-0.692-1.475c-0.437-0.309-0.965-0.309-1.856-0.309h-1.894v3.677
			C436.472,55.769,436.471,55.769,436.471,55.769z"/>
	</g>
	<g>
		<path fill="#FFFFFF" d="M453.002,53.291c0,2.209-1.806,4.014-4.015,4.014c-2.188,0-4.015-1.784-4.015-4.014
			c0-2.273,1.869-4.014,4.015-4.014C451.154,49.276,453.002,51.018,453.002,53.291z M445.621,53.28c0,1.869,1.508,3.377,3.355,3.377
			c1.869,0,3.377-1.54,3.377-3.377c0-1.869-1.529-3.356-3.377-3.356C447.15,49.924,445.621,51.39,445.621,53.28z M447.479,51.039
			h1.55c0.531,0,1.572,0,1.572,1.189c0,0.828-0.531,0.998-0.85,1.104c0.616,0.042,0.658,0.446,0.743,1.02
			c0.043,0.361,0.106,0.977,0.233,1.189h-0.955c-0.021-0.212-0.17-1.359-0.17-1.423c-0.064-0.255-0.148-0.383-0.468-0.383h-0.786
			v1.806h-0.87v-4.502H447.479z M448.329,53.015h0.7c0.574,0,0.68-0.404,0.68-0.638c0-0.616-0.424-0.616-0.658-0.616h-0.722
			L448.329,53.015L448.329,53.015z"/>
	</g>
	<path fill="#FFFFFF" d="M390.404,74.226c1.184-0.51,2.314-1.148,3.37-1.913h2.35v12.715h-2.751v-9.891
		c-0.528,0.401-1.585,1.057-2.969,1.621V74.226z M402.824,72.131c1.785,0,2.842,0.965,3.315,1.676
		c0.656,0.965,1.148,2.204,1.148,4.59c0,2.951-0.674,6.831-4.499,6.831c-3.261,0-4.39-3.133-4.39-6.521
		C398.398,77.013,398.744,72.131,402.824,72.131z M404.227,75.72c-0.073-0.346-0.382-1.476-1.384-1.476
		c-0.784,0-1.13,0.71-1.257,1.093c-0.419,1.293-0.419,3.242-0.419,3.552c0,2.168,0.328,4.19,1.694,4.19
		c1.457,0,1.694-2.477,1.694-4.226C404.555,78.051,404.464,76.558,404.227,75.72z M414.132,77.559c0-0.583-0.036-1.148-0.091-1.73
		h2.605l0.091,1.184c0.292-0.401,1.002-1.384,2.842-1.384c2.113,0,2.714,1.293,2.897,1.73c0.765-1.475,2.004-1.712,2.951-1.712
		c1.858,0,2.605,1.111,2.805,1.476c0.492,0.801,0.455,1.913,0.455,2.714v5.191h-2.714v-5.41c0-0.984-0.146-2.077-1.548-2.077
		c-1.621,0-1.658,1.512-1.658,2.878v4.609h-2.714v-5.465c0-0.71-0.018-2.022-1.512-2.022c-1.694,0-1.694,1.457-1.694,2.077v5.41
		h-2.714v-7.469L414.132,77.559L414.132,77.559z M439.993,75.865c-0.073,0.729-0.128,1.348-0.128,2.277v6.794
		c0,3.388-2.824,3.716-4.59,3.716c-1.312,0-3.88-0.164-4.044-2.951h2.587c0.036,0.273,0.164,1.275,1.603,1.275
		c0.801,0,1.493-0.382,1.676-1.202c0.109-0.455,0.109-0.783,0.128-2.186c-0.856,1.129-1.822,1.257-2.477,1.257
		c-2.641,0-3.88-2.295-3.88-4.518c0-2.332,1.293-4.554,3.935-4.554c1.676,0,2.295,0.911,2.569,1.311l0.091-1.22L439.993,75.865
		L439.993,75.865z M435.366,83.006c1.894,0,1.894-2.222,1.894-2.623c0-1.038-0.201-2.805-1.84-2.805c-1.02,0-1.858,0.783-1.858,2.75
		C433.563,80.784,433.563,83.006,435.366,83.006z"/>
	<g>
		<path fill="#FFFFFF" d="M387.779,93.099c-0.601,1.82-1.602,4.77-1.602,8.028c0,2.439,0.509,4.26,1.583,7.992h-1.984
			c-1.037-2.531-1.838-5.17-1.838-7.9c0-2.804,0.837-5.516,1.856-8.119L387.779,93.099L387.779,93.099z"/>
		<path fill="#FFFFFF" d="M390.093,99.325c0-0.036,0-1.038-0.055-1.675h2.585l0.073,1.384c0.255-0.419,0.982-1.602,2.985-1.602
			c1.802,0,2.566,1.092,2.803,1.729c0.2,0.564,0.255,1.038,0.255,2.749v4.97h-2.749v-5.716c0-0.382,0-0.71-0.146-1.001
			c-0.2-0.4-0.618-0.783-1.311-0.783c-0.582,0-1.11,0.273-1.401,0.71c-0.164,0.237-0.328,0.692-0.328,1.402v5.388h-2.712v-7.555
			H390.093z"/>
		<path fill="#FFFFFF" d="M400.473,98.742h9.684v2.349h-9.684V98.742z M400.473,102.966h9.684v2.348h-9.684V102.966z"/>
		<path fill="#FFFFFF" d="M411.308,94.191h8.61v2.257l-4.369,10.431h-3.04l4.642-10.576h-5.843V94.191z"/>
		<path fill="#FFFFFF" d="M424.018,103.749c-0.019,0.291,0.218,1.42,1.492,1.42c0.983,0,1.875-0.71,1.875-2.385
			c0-1.22-0.473-2.275-1.692-2.275s-1.529,0.983-1.62,1.274l-2.64-0.073l0.291-7.518h7.7v2.075h-5.297l-0.164,3.149
			c0.4-0.346,1.001-0.91,2.402-0.91c2.039,0,3.75,1.493,3.75,4.041c0,2.167-1.274,4.605-4.532,4.605
			c-1.329,0-2.676-0.346-3.55-1.383c-0.638-0.765-0.692-1.547-0.71-2.021L424.018,103.749L424.018,103.749z"/>
		<path fill="#FFFFFF" d="M434.052,103.421c0.019,0.4,0.128,1.693,1.639,1.693c1.02,0,1.639-0.747,1.639-1.729
			c0-1.875-1.803-1.875-3.131-1.875v-2.13c1.273-0.036,3.148-0.073,3.148-1.893c0-1.001-0.746-1.511-1.565-1.511
			c-0.782,0-1.547,0.528-1.547,1.583h-2.785c0.055-0.564,0.109-1.365,0.746-2.148c0.838-1.02,2.185-1.402,3.531-1.402
			c3.24,0,4.278,2.075,4.278,3.459c0,2.129-1.875,2.712-2.439,2.876c0.4,0.127,0.929,0.292,1.511,0.783
			c0.893,0.747,1.038,1.675,1.038,2.275c0,2.148-1.966,3.75-4.605,3.75c-0.91,0-2.239-0.2-3.059-0.855
			c-1.129-0.928-1.165-2.367-1.165-2.876H434.052z"/>
		<path fill="#FFFFFF" d="M442.101,109.119c0.602-1.821,1.603-4.77,1.603-8.028c0-2.458-0.51-4.26-1.584-7.992h1.984
			c1.037,2.512,1.839,5.17,1.839,7.882c0,2.803-0.838,5.516-1.857,8.137L442.101,109.119L442.101,109.119z"/>
	</g>
	<g>
		<path fill="#FFFFFF" d="M534.738,50.034h2.876v10.904h5.644v2.239h-8.52L534.738,50.034L534.738,50.034z"/>
		<path fill="#FFFFFF" d="M544.699,49.979h2.822v13.198h-2.822V49.979z"/>
		<path fill="#FFFFFF" d="M549.853,50.052h4.059c1.894,0,3.478,0.127,4.569,1.438c0.692,0.837,0.801,1.784,0.801,2.458
			c0,1.529-0.637,2.822-1.674,3.495c-0.965,0.619-2.294,0.619-2.986,0.619h-1.911v5.115h-2.857L549.853,50.052L549.853,50.052z
			 M552.638,55.969h1.128c0.91,0,2.604,0,2.604-2.002c0-1.784-1.511-1.784-2.312-1.784h-1.42V55.969z"/>
		<path fill="#FFFFFF" d="M560.888,49.979h2.822v13.198h-2.822V49.979z"/>
		<path fill="#FFFFFF" d="M569.027,52.2h-3.914v-2.184h10.667V52.2h-3.913v10.977h-2.84L569.027,52.2L569.027,52.2z"/>
		<path fill="#FFFFFF" d="M582.338,49.743c1.402,0,3.331,0.328,4.624,1.784c1.401,1.602,1.675,3.659,1.675,4.952
			c0,1.911-0.583,3.95-1.656,5.151c-1.457,1.638-3.587,1.875-4.679,1.875c-1.729,0-3.459-0.546-4.66-1.802
			c-1.438-1.529-1.62-3.713-1.62-4.915C576.021,53.292,577.605,49.743,582.338,49.743z M579.953,60.374
			c0.4,0.546,1.074,1.056,2.385,1.056c1.147,0,1.93-0.4,2.458-1.22c0.437-0.655,0.892-1.675,0.892-3.768
			c0-0.637-0.055-1.547-0.327-2.348c-0.547-1.62-1.657-2.33-3.004-2.33c-1.056,0-1.894,0.437-2.421,1.11
			c-0.747,0.91-0.965,2.33-0.965,3.823C578.971,57.953,579.171,59.354,579.953,60.374z"/>
		<path fill="#FFFFFF" d="M590.515,50.016h5.043c1.456-0.019,2.931-0.019,3.986,0.892c0.819,0.71,1.147,1.675,1.147,2.531
			c0,2.457-2.112,3.04-2.749,3.222c1.984,0.182,2.13,1.311,2.366,3.022c0.2,1.547,0.31,2.185,0.4,2.548
			c0.146,0.583,0.255,0.729,0.4,0.947h-3.112c-0.128-0.728-0.528-4.06-0.71-4.569c-0.255-0.746-0.947-0.746-1.42-0.746h-2.476v5.315
			h-2.877V50.016H590.515z M593.301,55.769h2.276c0.327,0,0.982,0,1.438-0.364c0.2-0.146,0.729-0.601,0.729-1.529
			c0-0.892-0.438-1.311-0.692-1.475c-0.437-0.309-0.965-0.309-1.856-0.309h-1.894L593.301,55.769L593.301,55.769z"/>
	</g>
	<g>
		<path fill="#FFFFFF" d="M609.833,53.291c0,2.209-1.806,4.014-4.015,4.014c-2.188,0-4.015-1.784-4.015-4.014
			c0-2.273,1.869-4.014,4.015-4.014C607.984,49.276,609.833,51.018,609.833,53.291z M602.452,53.28c0,1.869,1.508,3.377,3.355,3.377
			c1.869,0,3.377-1.54,3.377-3.377c0-1.869-1.529-3.356-3.377-3.356C603.981,49.924,602.452,51.39,602.452,53.28z M604.31,51.039
			h1.551c0.53,0,1.571,0,1.571,1.189c0,0.828-0.531,0.998-0.85,1.104c0.616,0.042,0.658,0.446,0.743,1.02
			c0.043,0.361,0.106,0.977,0.234,1.189h-0.956c-0.021-0.212-0.17-1.359-0.17-1.423c-0.063-0.255-0.149-0.383-0.468-0.383h-0.785
			v1.806h-0.871L604.31,51.039L604.31,51.039z M605.16,53.015h0.701c0.573,0,0.68-0.404,0.68-0.638c0-0.616-0.426-0.616-0.659-0.616
			h-0.722V53.015z"/>
	</g>
	<path fill="#FFFFFF" d="M545.723,75.647c0-1.548,1.293-3.552,4.39-3.552c2.55,0,4.317,1.457,4.317,3.443
		c0,1.53-1.202,2.587-2.496,2.787c0.51,0.146,1.366,0.364,2.04,1.312c0.437,0.619,0.583,1.275,0.583,1.895
		c0,2.332-2.168,3.698-4.663,3.698c-2.587,0-4.372-1.658-4.372-3.698c0-0.984,0.383-1.694,0.929-2.222
		c0.619-0.601,1.202-0.783,1.676-0.947C547.49,78.161,545.723,77.614,545.723,75.647z M551.88,81.348c0-1.148-0.856-1.84-1.822-1.84
		c-1.057,0-1.822,0.801-1.822,1.876c0,1.293,0.966,1.894,1.84,1.894C550.841,83.279,551.88,82.769,551.88,81.348z M551.789,75.683
		c0-1.038-0.838-1.585-1.694-1.585c-0.911,0-1.658,0.619-1.658,1.585c0,0.893,0.638,1.639,1.639,1.639
		C551.005,77.323,551.789,76.703,551.789,75.683z M560.201,72.131c1.785,0,2.842,0.965,3.315,1.676
		c0.656,0.965,1.148,2.204,1.148,4.59c0,2.951-0.674,6.831-4.5,6.831c-3.26,0-4.39-3.133-4.39-6.521
		C555.775,77.013,556.121,72.131,560.201,72.131z M561.604,75.72c-0.073-0.346-0.383-1.476-1.385-1.476
		c-0.783,0-1.129,0.71-1.257,1.093c-0.419,1.293-0.419,3.242-0.419,3.552c0,2.168,0.328,4.19,1.694,4.19
		c1.457,0,1.694-2.477,1.694-4.226C561.932,78.051,561.841,76.558,561.604,75.72z M571.509,77.559c0-0.583-0.036-1.148-0.091-1.73
		h2.605l0.091,1.184c0.292-0.401,1.002-1.384,2.842-1.384c2.113,0,2.714,1.293,2.896,1.73c0.765-1.475,2.004-1.712,2.951-1.712
		c1.858,0,2.605,1.111,2.805,1.476c0.492,0.801,0.455,1.913,0.455,2.714v5.191h-2.714v-5.41c0-0.984-0.146-2.077-1.548-2.077
		c-1.621,0-1.658,1.512-1.658,2.878v4.609h-2.714v-5.465c0-0.71-0.018-2.022-1.512-2.022c-1.694,0-1.694,1.457-1.694,2.077v5.41
		h-2.714V77.559z M597.37,75.865c-0.073,0.729-0.127,1.348-0.127,2.277v6.794c0,3.388-2.823,3.716-4.59,3.716
		c-1.312,0-3.88-0.164-4.044-2.951h2.587c0.036,0.273,0.164,1.275,1.603,1.275c0.802,0,1.493-0.382,1.676-1.202
		c0.109-0.455,0.109-0.783,0.128-2.186c-0.856,1.129-1.822,1.257-2.477,1.257c-2.641,0-3.88-2.295-3.88-4.518
		c0-2.332,1.293-4.554,3.935-4.554c1.676,0,2.295,0.911,2.568,1.311l0.091-1.22L597.37,75.865L597.37,75.865z M592.743,83.006
		c1.895,0,1.895-2.222,1.895-2.623c0-1.038-0.2-2.805-1.84-2.805c-1.02,0-1.858,0.783-1.858,2.75
		C590.94,80.784,590.94,83.006,592.743,83.006z"/>
	<g>
		<path fill="#FFFFFF" d="M545.112,93.099c-0.601,1.82-1.602,4.77-1.602,8.028c0,2.439,0.509,4.26,1.583,7.992h-1.984
			c-1.037-2.531-1.838-5.17-1.838-7.9c0-2.804,0.837-5.516,1.856-8.119L545.112,93.099L545.112,93.099z"/>
		<path fill="#FFFFFF" d="M547.426,99.325c0-0.036,0-1.038-0.055-1.675h2.585l0.073,1.384c0.254-0.419,0.982-1.602,2.985-1.602
			c1.802,0,2.566,1.092,2.803,1.729c0.2,0.564,0.255,1.038,0.255,2.749v4.97h-2.749v-5.716c0-0.382,0-0.71-0.146-1.001
			c-0.2-0.4-0.618-0.783-1.311-0.783c-0.582,0-1.11,0.273-1.401,0.71c-0.164,0.237-0.328,0.692-0.328,1.402v5.388h-2.712
			L547.426,99.325L547.426,99.325z"/>
		<path fill="#FFFFFF" d="M557.806,98.742h9.684v2.349h-9.684V98.742z M557.806,102.966h9.684v2.348h-9.684V102.966z"/>
		<path fill="#FFFFFF" d="M568.641,94.191h8.61v2.257l-4.369,10.431h-3.04l4.642-10.576h-5.843V94.191z"/>
		<path fill="#FFFFFF" d="M577.4,104.112v-2.458l5.098-7.481h2.712l-0.019,7.846h1.729v2.093h-1.729v2.767h-2.693v-2.767H577.4z
			 M579.439,102.074h3.204v-3.35c0-0.164,0.018-1.074,0.036-1.402L579.439,102.074z"/>
		<path fill="#FFFFFF" d="M587.999,97.504c0-1.547,1.292-3.55,4.387-3.55c2.549,0,4.314,1.457,4.314,3.44
			c0,1.529-1.201,2.585-2.494,2.786c0.51,0.146,1.365,0.364,2.039,1.311c0.437,0.619,0.583,1.274,0.583,1.893
			c0,2.33-2.167,3.695-4.66,3.695c-2.585,0-4.369-1.657-4.369-3.695c0-0.983,0.382-1.693,0.929-2.221
			c0.618-0.601,1.201-0.783,1.674-0.947C589.764,100.017,587.999,99.471,587.999,97.504z M594.151,103.202
			c0-1.147-0.855-1.838-1.82-1.838c-1.056,0-1.82,0.801-1.82,1.875c0,1.292,0.965,1.893,1.839,1.893
			C593.114,105.132,594.151,104.622,594.151,103.202z M594.06,97.541c0-1.038-0.837-1.584-1.692-1.584
			c-0.91,0-1.657,0.619-1.657,1.584c0,0.892,0.638,1.638,1.639,1.638C593.278,99.179,594.06,98.56,594.06,97.541z"/>
		<path fill="#FFFFFF" d="M598.451,109.119c0.602-1.821,1.603-4.77,1.603-8.028c0-2.458-0.51-4.26-1.584-7.992h1.984
			c1.037,2.512,1.839,5.17,1.839,7.882c0,2.803-0.838,5.516-1.857,8.137L598.451,109.119L598.451,109.119z"/>
	</g>
	<g>
		<path fill="#005E7D" d="M33.114,153.536V141.94h-4.405v-1.548h10.613v1.548h-4.405v11.596H33.114z"/>
		<path fill="#005E7D" d="M39.417,146.254c0-0.619-0.037-1.256-0.092-1.857h1.729l0.037,1.767c0.327-1.274,1.419-1.693,2.184-1.803
			c0.51-0.072,0.893-0.055,1.184-0.036V146c-0.091-0.036-0.2-0.055-0.328-0.073c-0.127-0.018-0.291-0.018-0.491-0.018
			c-2.021,0-2.494,1.201-2.494,2.767v4.86h-1.729V146.254z"/>
		<path fill="#005E7D" d="M47.447,149.276c-0.036,1.894,0.746,3.295,2.621,3.295c1.11,0,2.003-0.582,2.148-1.894h1.711
			c-0.055,0.455-0.128,1.202-0.783,1.912c-0.4,0.455-1.311,1.22-3.148,1.22c-2.877,0-4.242-1.784-4.242-4.679
			c0-1.802,0.364-3.295,1.803-4.296c0.873-0.619,1.966-0.674,2.494-0.674c4.096,0,4.004,3.623,3.968,5.115L47.447,149.276
			L47.447,149.276z M52.271,148.075c0.018-0.874-0.146-2.694-2.258-2.694c-1.11,0-2.457,0.674-2.494,2.694H52.271z"/>
		<path fill="#005E7D" d="M62.103,153.536c-0.127-0.455-0.163-0.892-0.163-1.365c-0.819,1.511-2.058,1.656-2.822,1.656
			c-2.093,0-3.222-1.183-3.222-2.694c0-0.728,0.255-1.893,1.602-2.676c0.983-0.546,2.439-0.601,3.168-0.601
			c0.437,0,0.71,0.019,1.237,0.055c0-1.129,0-1.62-0.327-2.021c-0.346-0.455-1.093-0.601-1.584-0.601
			c-1.729,0-1.82,1.183-1.839,1.547h-1.711c0.055-0.473,0.109-1.11,0.638-1.729c0.691-0.765,1.983-0.982,2.948-0.982
			c1.329,0,2.749,0.419,3.24,1.347c0.292,0.546,0.31,0.983,0.31,1.402l-0.072,4.368c0,0.146,0.018,1.365,0.146,2.294H62.103z
			 M60.921,149.04c-0.692,0-3.295,0-3.295,1.856c0,0.583,0.364,1.584,1.893,1.584c0.874,0,1.529-0.346,1.948-0.983
			c0.382-0.619,0.4-1.128,0.437-2.402C61.594,149.057,61.34,149.04,60.921,149.04z"/>
		<path fill="#005E7D" d="M65.257,144.361h1.62v-1.911l1.693-0.546v2.457h2.038v1.256H68.57v5.479c0,0.455,0,1.22,1.22,1.22
			c0.346,0,0.673-0.055,0.818-0.091v1.329c-0.31,0.055-0.801,0.108-1.42,0.108c-1.565,0-2.312-0.455-2.312-1.947v-6.099h-1.62
			L65.257,144.361L65.257,144.361z"/>
		<path fill="#005E7D" d="M72.705,145.617l-0.037-1.22h1.729v1.329c0.874-1.438,2.112-1.565,2.895-1.565
			c2.021,0,2.658,1.038,2.985,1.711c0.31-0.51,1.056-1.711,3.076-1.711c1.312,0,3.35,0.546,3.35,3.24v6.135h-1.729v-5.861
			c0-0.801-0.146-1.147-0.31-1.384c-0.292-0.419-0.874-0.801-1.748-0.801c-1.11,0-1.711,0.637-1.947,0.965
			c-0.401,0.564-0.401,1.565-0.401,1.966v5.115H78.84v-6.044c0-1.128-0.655-2.002-2.003-2.002c-1.165,0-1.802,0.728-2.002,1.001
			c-0.383,0.528-0.4,1.274-0.4,1.856v5.188h-1.729L72.705,145.617L72.705,145.617z"/>
		<path fill="#005E7D" d="M90.951,149.276c-0.036,1.894,0.746,3.295,2.621,3.295c1.11,0,2.003-0.582,2.148-1.894h1.711
			c-0.055,0.455-0.128,1.202-0.783,1.912c-0.4,0.455-1.311,1.22-3.148,1.22c-2.877,0-4.242-1.784-4.242-4.679
			c0-1.802,0.364-3.295,1.803-4.296c0.873-0.619,1.966-0.674,2.494-0.674c4.096,0,4.004,3.623,3.968,5.115L90.951,149.276
			L90.951,149.276z M95.775,148.075c0.018-0.874-0.146-2.694-2.258-2.694c-1.11,0-2.457,0.674-2.494,2.694H95.775z"/>
		<path fill="#005E7D" d="M100.092,145.454l-0.018-1.057h1.711l0.019,1.475c0.2-0.382,0.855-1.656,2.931-1.656
			c0.818,0,3.313,0.31,3.313,3.113v6.207H106.3v-5.807c0-0.602-0.073-1.147-0.492-1.565c-0.437-0.419-1.037-0.619-1.62-0.619
			c-1.237,0-2.384,0.892-2.384,2.73v5.261h-1.712V145.454z"/>
		<path fill="#005E7D" d="M109.763,144.361h1.62v-1.911l1.693-0.546v2.457h2.038v1.256h-2.038v5.479c0,0.455,0,1.22,1.22,1.22
			c0.346,0,0.673-0.055,0.818-0.091v1.329c-0.31,0.055-0.801,0.108-1.42,0.108c-1.565,0-2.312-0.455-2.312-1.947v-6.099h-1.62
			L109.763,144.361L109.763,144.361z"/>
		<path fill="#005E7D" d="M116.39,148.056h4.569v1.384h-4.569V148.056z"/>
		<path fill="#005E7D" d="M123.384,146.254c0-0.619-0.037-1.256-0.092-1.857h1.729l0.037,1.767c0.327-1.274,1.419-1.693,2.184-1.803
			c0.51-0.072,0.893-0.055,1.184-0.036V146c-0.091-0.036-0.2-0.055-0.328-0.073c-0.127-0.018-0.291-0.018-0.491-0.018
			c-2.021,0-2.494,1.201-2.494,2.767v4.86h-1.729C123.384,153.536,123.384,146.254,123.384,146.254z"/>
		<path fill="#005E7D" d="M131.413,149.276c-0.036,1.894,0.746,3.295,2.621,3.295c1.11,0,2.003-0.582,2.148-1.894h1.711
			c-0.055,0.455-0.128,1.202-0.783,1.912c-0.4,0.455-1.311,1.22-3.148,1.22c-2.877,0-4.242-1.784-4.242-4.679
			c0-1.802,0.364-3.295,1.803-4.296c0.873-0.619,1.966-0.674,2.493-0.674c4.097,0,4.005,3.623,3.969,5.115L131.413,149.276
			L131.413,149.276z M136.237,148.075c0.018-0.874-0.146-2.694-2.258-2.694c-1.11,0-2.457,0.674-2.494,2.694H136.237z"/>
		<path fill="#005E7D" d="M140.537,140.411h1.711v13.125h-1.711V140.411z"/>
		<path fill="#005E7D" d="M151.133,153.536c-0.127-0.455-0.163-0.892-0.163-1.365c-0.819,1.511-2.058,1.656-2.822,1.656
			c-2.093,0-3.222-1.183-3.222-2.694c0-0.728,0.255-1.893,1.602-2.676c0.983-0.546,2.439-0.601,3.168-0.601
			c0.437,0,0.71,0.019,1.237,0.055c0-1.129,0-1.62-0.327-2.021c-0.346-0.455-1.093-0.601-1.584-0.601
			c-1.729,0-1.82,1.183-1.839,1.547h-1.711c0.055-0.473,0.109-1.11,0.638-1.729c0.691-0.765,1.983-0.982,2.948-0.982
			c1.329,0,2.749,0.419,3.24,1.347c0.292,0.546,0.31,0.983,0.31,1.402l-0.072,4.368c0,0.146,0.018,1.365,0.146,2.294H151.133z
			 M149.95,149.04c-0.692,0-3.295,0-3.295,1.856c0,0.583,0.364,1.584,1.893,1.584c0.874,0,1.529-0.346,1.948-0.983
			c0.382-0.619,0.4-1.128,0.437-2.402C150.623,149.057,150.369,149.04,149.95,149.04z"/>
		<path fill="#005E7D" d="M154.286,144.361h1.62v-1.911l1.693-0.546v2.457h2.038v1.256h-2.038v5.479c0,0.455,0,1.22,1.22,1.22
			c0.346,0,0.673-0.055,0.818-0.091v1.329c-0.31,0.055-0.801,0.108-1.42,0.108c-1.565,0-2.312-0.455-2.312-1.947v-6.099h-1.62
			v-1.255L154.286,144.361L154.286,144.361z"/>
		<path fill="#005E7D" d="M162.79,149.276c-0.036,1.894,0.746,3.295,2.621,3.295c1.11,0,2.003-0.582,2.148-1.894h1.711
			c-0.055,0.455-0.128,1.202-0.783,1.912c-0.4,0.455-1.311,1.22-3.148,1.22c-2.877,0-4.242-1.784-4.242-4.679
			c0-1.802,0.364-3.295,1.803-4.296c0.873-0.619,1.966-0.674,2.493-0.674c4.097,0,4.005,3.623,3.969,5.115L162.79,149.276
			L162.79,149.276z M167.614,148.075c0.018-0.874-0.146-2.694-2.258-2.694c-1.11,0-2.457,0.674-2.494,2.694H167.614z"/>
		<path fill="#005E7D" d="M178.211,140.411h1.712v11.669c0,0.2,0.036,0.982,0.072,1.456h-1.711l-0.036-1.456
			c-0.146,0.255-0.347,0.637-0.819,0.965c-0.747,0.51-1.639,0.673-2.258,0.673c-1.22,0-3.932-0.637-3.932-4.642
			c0-3.477,1.984-4.987,4.132-4.987c1.967,0,2.622,1.165,2.84,1.547L178.211,140.411L178.211,140.411z M177.574,146.291
			c-0.364-0.474-1.038-0.929-2.003-0.929c-2.512,0-2.512,3.04-2.512,3.659c0,1.62,0.419,3.495,2.512,3.495
			c2.694,0,2.694-2.967,2.694-3.677C178.265,147.51,177.956,146.782,177.574,146.291z"/>
		<path fill="#005E7D" d="M188.048,145.617l-0.037-1.22h1.729v1.329c0.874-1.438,2.112-1.565,2.895-1.565
			c2.021,0,2.658,1.038,2.985,1.711c0.31-0.51,1.056-1.711,3.077-1.711c1.311,0,3.349,0.546,3.349,3.24v6.135h-1.729v-5.861
			c0-0.801-0.146-1.147-0.31-1.384c-0.292-0.419-0.874-0.801-1.748-0.801c-1.11,0-1.711,0.637-1.947,0.965
			c-0.401,0.564-0.401,1.565-0.401,1.966v5.115h-1.729v-6.044c0-1.128-0.655-2.002-2.003-2.002c-1.165,0-1.802,0.728-2.002,1.001
			c-0.383,0.528-0.4,1.274-0.4,1.856v5.188h-1.729L188.048,145.617L188.048,145.617z"/>
		<path fill="#005E7D" d="M209.006,153.59l-1.311,3.404h-1.766l1.384-3.495l-3.805-9.103h1.93l2.857,7.209l2.913-7.209h1.856
			L209.006,153.59z"/>
		<path fill="#005E7D" d="M220.587,153.536c-0.127-0.455-0.163-0.892-0.163-1.365c-0.819,1.511-2.058,1.656-2.822,1.656
			c-2.093,0-3.222-1.183-3.222-2.694c0-0.728,0.255-1.893,1.602-2.676c0.983-0.546,2.439-0.601,3.168-0.601
			c0.437,0,0.71,0.019,1.237,0.055c0-1.129,0-1.62-0.327-2.021c-0.346-0.455-1.093-0.601-1.584-0.601
			c-1.729,0-1.82,1.183-1.839,1.547h-1.711c0.055-0.473,0.109-1.11,0.638-1.729c0.691-0.765,1.983-0.982,2.948-0.982
			c1.329,0,2.749,0.419,3.24,1.347c0.292,0.546,0.31,0.983,0.31,1.402l-0.072,4.368c0,0.146,0.018,1.365,0.146,2.294H220.587z
			 M219.404,149.04c-0.692,0-3.295,0-3.295,1.856c0,0.583,0.364,1.584,1.893,1.584c0.874,0,1.529-0.346,1.948-0.983
			c0.382-0.619,0.4-1.128,0.437-2.402C220.077,149.057,219.822,149.04,219.404,149.04z"/>
		<path fill="#005E7D" d="M225.178,140.411h1.711v13.125h-1.711V140.411z"/>
		<path fill="#005E7D" d="M231.842,154.246c0.073,1.02,0.51,1.784,2.13,1.784c2.385,0,2.421-1.729,2.421-4.205
			c-0.728,1.511-2.457,1.547-3.004,1.547c-0.837,0-2.038-0.182-2.803-1.128c-0.783-0.929-1.038-2.148-1.038-3.368
			c0-3.095,1.82-4.605,4.06-4.605c1.839,0,2.513,0.91,2.876,1.384l0.019-1.257h1.656l-0.036,1.657l-0.019,5.716
			c0,2.202-0.072,3.095-0.437,3.786c-0.765,1.456-2.549,1.639-3.805,1.639c-3.659,0-3.768-1.711-3.841-2.949L231.842,154.246
			L231.842,154.246z M235.828,151.187c0.364-0.473,0.619-0.965,0.619-2.621c0-1.146-0.255-1.802-0.71-2.275
			c-0.455-0.491-1.184-0.801-1.966-0.801c-2.166,0-2.458,2.185-2.458,3.35c0,1.401,0.419,3.258,2.513,3.258
			C234.827,152.097,235.41,151.734,235.828,151.187z"/>
		<path fill="#005E7D" d="M241.167,140.429h2.057v1.875h-2.057V140.429z M241.348,144.397h1.711v9.139h-1.711V144.397z"/>
		<path fill="#005E7D" d="M251.963,153.536c-0.127-0.455-0.163-0.892-0.163-1.365c-0.819,1.511-2.058,1.656-2.822,1.656
			c-2.093,0-3.222-1.183-3.222-2.694c0-0.728,0.255-1.893,1.602-2.676c0.983-0.546,2.439-0.601,3.168-0.601
			c0.437,0,0.71,0.019,1.237,0.055c0-1.129,0-1.62-0.327-2.021c-0.346-0.455-1.093-0.601-1.584-0.601
			c-1.729,0-1.82,1.183-1.839,1.547h-1.711c0.055-0.473,0.109-1.11,0.638-1.729c0.691-0.765,1.983-0.982,2.948-0.982
			c1.329,0,2.749,0.419,3.24,1.347c0.292,0.546,0.31,0.983,0.31,1.402l-0.072,4.368c0,0.146,0.018,1.365,0.146,2.294H251.963z
			 M250.78,149.04c-0.692,0-3.295,0-3.295,1.856c0,0.583,0.364,1.584,1.893,1.584c0.874,0,1.529-0.346,1.948-0.983
			c0.382-0.619,0.4-1.128,0.437-2.402C251.453,149.057,251.199,149.04,250.78,149.04z"/>
	</g>
	<g>
		<path fill="#005E7D" d="M376.436,151.879l3.295-3.24c0.691-0.674,1.384-1.402,1.947-2.167c0.729-1.001,0.929-1.565,0.929-2.238
			c0-0.619-0.219-2.058-2.021-2.058c-2.021,0-2.057,1.729-2.057,2.203h-1.912c0.019-0.619,0.073-1.82,1.165-2.768
			c0.874-0.746,1.93-0.91,2.73-0.91c1.93,0,3.896,0.983,3.896,3.678c0,0.801-0.055,1.42-1.42,3.149
			c-0.364,0.455-1.967,2.111-2.33,2.476l-2.203,2.093h5.989v1.438h-8.01v-1.656L376.436,151.879L376.436,151.879z"/>
		<path fill="#005E7D" d="M386.233,140.939h8.319v1.528l-4.624,11.068h-2.057l4.842-11.086h-6.48V140.939z"/>
		<path fill="#005E7D" d="M404.279,155.775c-0.983-2.421-2.166-5.443-2.166-8.101c0-1.438,0.327-2.858,0.746-4.242
			c0.51-1.638,0.983-2.803,1.293-3.586h1.201c-0.291,0.893-0.692,2.13-1.074,3.859c-0.382,1.675-0.51,2.804-0.51,3.932
			c0,2.585,0.637,4.679,1.693,8.138H404.279z"/>
		<path fill="#005E7D" d="M409.469,150.295c-0.018,1.201,0.765,2.057,2.313,2.057c1.766,0,2.512-1.128,2.512-2.238
			c0-1.329-0.892-2.021-1.82-2.222c-0.655-0.127-1.11-0.108-1.748-0.091v-1.475c1.257,0.109,3.368-0.146,3.368-2.185
			c0-1.42-0.965-1.983-2.221-1.983c-0.946,0-2.13,0.418-2.294,1.983h-1.839c0.109-3.131,3.059-3.44,4.078-3.44
			c2.749,0,4.114,1.657,4.114,3.404c0,1.038-0.564,2.53-2.513,2.968c2.694,0.382,2.694,2.803,2.694,3.058
			c0,1.766-1.438,3.714-4.369,3.714c-1.328,0-2.657-0.383-3.458-1.311c-0.71-0.801-0.729-1.711-0.747-2.239H409.469z"/>
		<path fill="#005E7D" d="M418.447,151.351h2.021v2.185h-2.021V151.351z"/>
		<path fill="#005E7D" d="M429.444,143.924c-0.019-1.475-1.11-1.875-1.912-1.875c-1.82,0-2.621,1.565-2.785,4.915
			c0.401-0.583,1.093-1.603,2.932-1.603c2.057,0,3.804,1.365,3.804,4.042c0,2.931-2.093,4.405-4.259,4.405
			c-1.22,0-2.439-0.492-3.113-1.365c-0.929-1.238-1.146-3.04-1.146-4.643c0-2.749,0.673-7.117,4.66-7.117
			c1.656,0,2.585,0.728,3.021,1.201c0.637,0.746,0.655,1.547,0.674,2.039h-1.876V143.924z M429.735,149.567
			c0-0.892-0.255-2.803-2.349-2.803c-1.692,0-2.512,1.383-2.512,2.821c0,1.639,1.02,2.84,2.421,2.84
			C428.425,152.425,429.735,151.625,429.735,149.567z"/>
		<path fill="#005E7D" d="M439.023,143.815c0,2.257-1.329,3.295-2.986,3.295c-1.583,0-2.931-0.946-2.931-3.186
			c0-1.912,1.038-3.331,3.095-3.331C438.295,140.593,439.023,142.159,439.023,143.815z M437.585,143.887
			c0-0.892-0.219-2.202-1.511-2.202c-1.565,0-1.565,1.784-1.565,2.221c0,0.419,0,2.148,1.565,2.148
			C437.585,146.054,437.585,144.251,437.585,143.887z M435.528,154.246l8.027-14.017h1.201l-8.027,14.017H435.528z M446.632,148.111
			c0.328,0.364,0.747,0.946,0.747,2.312c0,1.984-0.965,3.332-2.932,3.332c-2.33,0-2.985-1.729-2.985-3.24
			c0-2.203,1.365-3.277,2.985-3.277C444.939,147.237,445.922,147.329,446.632,148.111z M445.995,150.459
			c0-0.564-0.109-2.203-1.529-2.203c-1.565,0-1.565,1.894-1.565,2.439c0,0.637,0.146,1.984,1.529,1.984
			C445.886,152.68,445.995,151.115,445.995,150.459z"/>
		<path fill="#005E7D" d="M450.915,139.846c0.983,2.421,2.167,5.425,2.167,8.083c0,1.438-0.328,2.857-0.747,4.241
			c-0.51,1.639-0.982,2.821-1.292,3.604h-1.201c0.291-0.91,0.691-2.148,1.073-3.878c0.383-1.656,0.51-2.803,0.51-3.932
			c0-2.566-0.637-4.66-1.692-8.119h1.182L450.915,139.846L450.915,139.846z"/>
	</g>
	<g>
		<path fill="#005E7D" d="M537.372,142.923c-0.783,0.655-2.039,1.401-2.932,1.82v-1.82c1.184-0.619,2.349-1.384,3.059-1.984h1.62
			v12.597h-1.747V142.923z"/>
		<path fill="#005E7D" d="M543.237,144.088c0-1.129,0.765-3.441,4.077-3.441c2.658,0,4.188,1.438,4.188,3.368
			c0,1.238-0.802,2.53-2.567,2.858c0.746,0.2,2.749,0.746,2.749,3.186c0,1.729-1.201,3.695-4.333,3.695
			c-1.073,0-2.348-0.219-3.258-1.056c-0.674-0.619-1.11-1.566-1.11-2.531c0-0.837,0.327-1.711,0.965-2.312
			c0.601-0.601,1.256-0.782,1.82-0.965C544.093,146.527,543.237,145.344,543.237,144.088z M547.35,152.316
			c2.021,0,2.513-1.42,2.513-2.366c0-1.402-1.038-2.313-2.476-2.313c-1.548,0-2.567,1.038-2.567,2.367
			C544.82,150.987,545.475,152.316,547.35,152.316z M547.388,141.995c-1.348,0-2.385,0.801-2.385,2.057
			c0,1.22,1.02,2.039,2.33,2.039c1.384,0,2.421-0.801,2.421-2.039C549.754,142.905,548.898,141.995,547.388,141.995z"/>
		<path fill="#005E7D" d="M560.991,155.775c-0.983-2.421-2.166-5.443-2.166-8.101c0-1.438,0.327-2.858,0.746-4.242
			c0.51-1.638,0.983-2.803,1.293-3.586h1.201c-0.291,0.893-0.692,2.13-1.074,3.859c-0.382,1.675-0.51,2.804-0.51,3.932
			c0,2.585,0.637,4.679,1.693,8.138H560.991z"/>
		<path fill="#005E7D" d="M564.524,151.879l3.295-3.24c0.691-0.674,1.384-1.402,1.947-2.167c0.729-1.001,0.929-1.565,0.929-2.238
			c0-0.619-0.219-2.058-2.021-2.058c-2.021,0-2.057,1.729-2.057,2.203h-1.912c0.019-0.619,0.073-1.82,1.165-2.768
			c0.874-0.746,1.93-0.91,2.73-0.91c1.93,0,3.896,0.983,3.896,3.678c0,0.801-0.055,1.42-1.42,3.149
			c-0.364,0.455-1.967,2.111-2.33,2.476l-2.203,2.093h5.989v1.438h-8.01v-1.656L564.524,151.879L564.524,151.879z"/>
		<path fill="#005E7D" d="M575.159,151.351h2.021v2.185h-2.021V151.351z"/>
		<path fill="#005E7D" d="M584.936,150.805h-5.68v-2.166l5.461-7.864h1.966v8.556h1.839v1.475h-1.839v2.73h-1.747V150.805z
			 M584.991,149.331v-6.645l-4.351,6.645H584.991z"/>
		<path fill="#005E7D" d="M595.735,143.815c0,2.257-1.329,3.295-2.986,3.295c-1.583,0-2.931-0.946-2.931-3.186
			c0-1.912,1.038-3.331,3.095-3.331C595.007,140.593,595.735,142.159,595.735,143.815z M594.297,143.887
			c0-0.892-0.219-2.202-1.511-2.202c-1.565,0-1.565,1.784-1.565,2.221c0,0.419,0,2.148,1.565,2.148
			C594.297,146.054,594.297,144.251,594.297,143.887z M592.24,154.246l8.027-14.017h1.201l-8.027,14.017H592.24z M603.344,148.111
			c0.328,0.364,0.747,0.946,0.747,2.312c0,1.984-0.965,3.332-2.932,3.332c-2.33,0-2.985-1.729-2.985-3.24
			c0-2.203,1.365-3.277,2.985-3.277C601.651,147.237,602.634,147.329,603.344,148.111z M602.707,150.459
			c0-0.564-0.109-2.203-1.529-2.203c-1.565,0-1.565,1.894-1.565,2.439c0,0.637,0.146,1.984,1.529,1.984
			C602.597,152.68,602.707,151.115,602.707,150.459z"/>
		<path fill="#005E7D" d="M607.627,139.846c0.983,2.421,2.167,5.425,2.167,8.083c0,1.438-0.328,2.857-0.747,4.241
			c-0.51,1.639-0.982,2.821-1.292,3.604h-1.201c0.291-0.91,0.691-2.148,1.073-3.878c0.383-1.656,0.51-2.803,0.51-3.932
			c0-2.566-0.637-4.66-1.692-8.119h1.182V139.846z"/>
	</g>
	<g>
		<path fill="#005E7D" d="M29.929,187.478h4.405c1.603,0,2.694,0.092,3.587,1.057c0.655,0.673,0.965,1.565,0.965,2.548
			c0,1.002-0.328,1.857-1.038,2.567c-0.691,0.691-1.602,1.128-3.969,1.128h-2.13v5.844h-1.82
			C29.929,200.622,29.929,187.478,29.929,187.478z M31.749,193.25h2.167c1.201,0,3.04-0.092,3.04-2.239
			c0-2.058-1.712-2.058-2.658-2.058h-2.549V193.25z"/>
		<path fill="#005E7D" d="M41.547,196.362c-0.036,1.894,0.746,3.295,2.621,3.295c1.11,0,2.003-0.582,2.148-1.894h1.711
			c-0.055,0.455-0.128,1.202-0.783,1.912c-0.4,0.455-1.311,1.22-3.148,1.22c-2.877,0-4.242-1.784-4.242-4.679
			c0-1.802,0.364-3.295,1.803-4.296c0.873-0.619,1.966-0.674,2.494-0.674c4.096,0,4.004,3.623,3.968,5.115L41.547,196.362
			L41.547,196.362z M46.371,195.161c0.018-0.874-0.146-2.694-2.258-2.694c-1.11,0-2.457,0.674-2.494,2.694H46.371z"/>
		<path fill="#005E7D" d="M50.725,193.34c0-0.619-0.037-1.256-0.092-1.857h1.729l0.037,1.767c0.327-1.274,1.419-1.693,2.184-1.803
			c0.51-0.072,0.893-0.055,1.184-0.036v1.675c-0.091-0.036-0.2-0.055-0.328-0.073c-0.127-0.018-0.291-0.018-0.491-0.018
			c-2.021,0-2.494,1.201-2.494,2.767v4.86h-1.729V193.34z"/>
		<path fill="#005E7D" d="M59.064,197.91c-0.019,0.691,0.346,1.656,2.002,1.656c0.71,0,1.238-0.128,1.603-0.583
			c0.182-0.236,0.291-0.546,0.291-0.855c0-0.892-0.637-1.056-2.002-1.365c-1.912-0.437-3.514-0.819-3.514-2.73
			c0-1.675,1.456-2.767,3.568-2.767c1.146,0,2.748,0.327,3.294,1.42c0.237,0.51,0.237,0.946,0.237,1.328h-1.748
			c0.055-1.383-1.146-1.492-1.766-1.492c-0.255,0-1.856,0-1.856,1.311c0,0.838,0.819,1.038,1.292,1.165
			c2.53,0.601,3.077,0.746,3.623,1.256c0.51,0.474,0.691,1.11,0.691,1.693c0,1.02-0.564,1.893-1.237,2.312
			c-0.802,0.491-1.767,0.619-2.713,0.619c-1.856,0-3.586-0.765-3.567-2.967h1.802C59.064,197.911,59.064,197.91,59.064,197.91z"/>
		<path fill="#005E7D" d="M67.023,187.515h2.057v1.875h-2.057V187.515z M67.205,191.483h1.711v9.139h-1.711V191.483z"/>
		<path fill="#005E7D" d="M73.232,197.91c-0.019,0.691,0.346,1.656,2.002,1.656c0.71,0,1.238-0.128,1.603-0.583
			c0.182-0.236,0.291-0.546,0.291-0.855c0-0.892-0.637-1.056-2.002-1.365c-1.912-0.437-3.514-0.819-3.514-2.73
			c0-1.675,1.456-2.767,3.568-2.767c1.146,0,2.748,0.327,3.294,1.42c0.237,0.51,0.237,0.946,0.237,1.328h-1.748
			c0.055-1.383-1.146-1.492-1.766-1.492c-0.255,0-1.856,0-1.856,1.311c0,0.838,0.819,1.038,1.292,1.165
			c2.53,0.601,3.077,0.746,3.623,1.256c0.51,0.474,0.691,1.11,0.691,1.693c0,1.02-0.564,1.893-1.237,2.312
			c-0.802,0.491-1.767,0.619-2.713,0.619c-1.856,0-3.586-0.765-3.567-2.967h1.802V197.91z"/>
		<path fill="#005E7D" d="M79.953,191.447h1.62v-1.911l1.693-0.546v2.457h2.038v1.256h-2.038v5.479c0,0.455,0,1.22,1.22,1.22
			c0.346,0,0.673-0.055,0.818-0.091v1.329c-0.309,0.055-0.801,0.108-1.42,0.108c-1.565,0-2.312-0.455-2.312-1.947v-6.099h-1.62
			L79.953,191.447L79.953,191.447z"/>
		<path fill="#005E7D" d="M88.456,196.362c-0.036,1.894,0.746,3.295,2.621,3.295c1.11,0,2.003-0.582,2.148-1.894h1.711
			c-0.055,0.455-0.128,1.202-0.783,1.912c-0.4,0.455-1.311,1.22-3.148,1.22c-2.877,0-4.242-1.784-4.242-4.679
			c0-1.802,0.364-3.295,1.803-4.296c0.873-0.619,1.966-0.674,2.493-0.674c4.097,0,4.005,3.623,3.969,5.115L88.456,196.362
			L88.456,196.362z M93.28,195.161c0.018-0.874-0.146-2.694-2.258-2.694c-1.11,0-2.457,0.674-2.494,2.694H93.28z"/>
		<path fill="#005E7D" d="M97.597,192.54l-0.018-1.057h1.711l0.019,1.475c0.2-0.382,0.855-1.656,2.931-1.656
			c0.818,0,3.313,0.31,3.313,3.113v6.207h-1.747v-5.807c0-0.602-0.073-1.147-0.492-1.565c-0.437-0.419-1.037-0.619-1.62-0.619
			c-1.237,0-2.384,0.892-2.384,2.73v5.261h-1.712L97.597,192.54L97.597,192.54z"/>
		<path fill="#005E7D" d="M107.267,191.447h1.62v-1.911l1.693-0.546v2.457h2.038v1.256h-2.038v5.479c0,0.455,0,1.22,1.22,1.22
			c0.346,0,0.673-0.055,0.818-0.091v1.329c-0.309,0.055-0.801,0.108-1.42,0.108c-1.565,0-2.312-0.455-2.312-1.947v-6.099h-1.62
			L107.267,191.447L107.267,191.447z"/>
		<path fill="#005E7D" d="M119.833,187.497h1.711v13.125h-1.711V187.497z"/>
		<path fill="#005E7D" d="M124.695,187.515h2.057v1.875h-2.057V187.515z M124.877,191.483h1.711v9.139h-1.711V191.483z"/>
		<path fill="#005E7D" d="M128.902,191.483h1.911l2.912,7.245l2.84-7.245h1.894l-4.005,9.139h-1.729L128.902,191.483z"/>
		<path fill="#005E7D" d="M141.448,196.362c-0.036,1.894,0.746,3.295,2.621,3.295c1.11,0,2.003-0.582,2.148-1.894h1.711
			c-0.055,0.455-0.128,1.202-0.783,1.912c-0.4,0.455-1.311,1.22-3.148,1.22c-2.877,0-4.242-1.784-4.242-4.679
			c0-1.802,0.364-3.295,1.803-4.296c0.873-0.619,1.966-0.674,2.493-0.674c4.097,0,4.005,3.623,3.969,5.115L141.448,196.362
			L141.448,196.362z M146.272,195.161c0.018-0.874-0.146-2.694-2.258-2.694c-1.11,0-2.457,0.674-2.494,2.694H146.272z"/>
		<path fill="#005E7D" d="M150.627,193.34c0-0.619-0.037-1.256-0.092-1.857h1.729l0.037,1.767c0.327-1.274,1.419-1.693,2.184-1.803
			c0.51-0.072,0.893-0.055,1.184-0.036v1.675c-0.091-0.036-0.2-0.055-0.327-0.073c-0.128-0.018-0.292-0.018-0.492-0.018
			c-2.021,0-2.494,1.201-2.494,2.767v4.86h-1.729L150.627,193.34L150.627,193.34z"/>
		<path fill="#005E7D" d="M163.719,196.362c-0.036,1.894,0.746,3.295,2.621,3.295c1.11,0,2.003-0.582,2.148-1.894h1.711
			c-0.055,0.455-0.128,1.202-0.783,1.912c-0.4,0.455-1.311,1.22-3.148,1.22c-2.877,0-4.242-1.784-4.242-4.679
			c0-1.802,0.364-3.295,1.803-4.296c0.873-0.619,1.966-0.674,2.494-0.674c4.096,0,4.004,3.623,3.968,5.115L163.719,196.362
			L163.719,196.362z M168.543,195.161c0.018-0.874-0.146-2.694-2.258-2.694c-1.11,0-2.457,0.674-2.494,2.694H168.543z"/>
		<path fill="#005E7D" d="M172.86,192.54l-0.018-1.057h1.711l0.019,1.475c0.2-0.382,0.855-1.656,2.931-1.656
			c0.818,0,3.313,0.31,3.313,3.113v6.207h-1.747v-5.807c0-0.602-0.073-1.147-0.492-1.565c-0.437-0.419-1.037-0.619-1.62-0.619
			c-1.237,0-2.384,0.892-2.384,2.73v5.261h-1.712L172.86,192.54L172.86,192.54z"/>
		<path fill="#005E7D" d="M182.876,198.856l4.879-6.08h-4.624v-1.293h6.571v1.457l-5.042,6.353h5.042v1.329h-6.826L182.876,198.856
			L182.876,198.856z"/>
		<path fill="#005E7D" d="M196.132,200.676l-1.311,3.404h-1.766l1.384-3.495l-3.805-9.103h1.93l2.857,7.209l2.913-7.209h1.856
			L196.132,200.676z"/>
		<path fill="#005E7D" d="M202.124,192.703l-0.037-1.22h1.729v1.329c0.874-1.438,2.112-1.565,2.895-1.565
			c2.021,0,2.658,1.038,2.985,1.711c0.31-0.51,1.056-1.711,3.077-1.711c1.311,0,3.349,0.546,3.349,3.24v6.135h-1.729v-5.861
			c0-0.801-0.146-1.147-0.31-1.384c-0.292-0.419-0.874-0.801-1.748-0.801c-1.11,0-1.711,0.637-1.947,0.965
			c-0.401,0.564-0.401,1.565-0.401,1.966v5.115h-1.729v-6.044c0-1.128-0.655-2.002-2.003-2.002c-1.165,0-1.802,0.728-2.002,1.001
			c-0.383,0.528-0.4,1.274-0.4,1.856v5.188h-1.729L202.124,192.703L202.124,192.703z"/>
		<path fill="#005E7D" d="M220.37,196.362c-0.036,1.894,0.746,3.295,2.621,3.295c1.11,0,2.003-0.582,2.148-1.894h1.711
			c-0.055,0.455-0.128,1.202-0.783,1.912c-0.4,0.455-1.311,1.22-3.148,1.22c-2.877,0-4.242-1.784-4.242-4.679
			c0-1.802,0.364-3.295,1.803-4.296c0.873-0.619,1.966-0.674,2.493-0.674c4.097,0,4.005,3.623,3.969,5.115L220.37,196.362
			L220.37,196.362z M225.194,195.161c0.018-0.874-0.146-2.694-2.258-2.694c-1.11,0-2.457,0.674-2.494,2.694H225.194z"/>
		<path fill="#005E7D" d="M235.557,196.362c-0.036,1.894,0.746,3.295,2.621,3.295c1.11,0,2.003-0.582,2.148-1.894h1.711
			c-0.055,0.455-0.128,1.202-0.783,1.912c-0.4,0.455-1.311,1.22-3.148,1.22c-2.877,0-4.242-1.784-4.242-4.679
			c0-1.802,0.364-3.295,1.803-4.296c0.873-0.619,1.966-0.674,2.493-0.674c4.097,0,4.005,3.623,3.969,5.115L235.557,196.362
			L235.557,196.362z M240.382,195.161c0.018-0.874-0.146-2.694-2.258-2.694c-1.11,0-2.457,0.674-2.494,2.694H240.382z"/>
		<path fill="#005E7D" d="M244.681,187.497h1.711v13.125h-1.711V187.497z"/>
		<path fill="#005E7D" d="M250.745,196.362c-0.036,1.894,0.746,3.295,2.621,3.295c1.11,0,2.003-0.582,2.148-1.894h1.711
			c-0.055,0.455-0.128,1.202-0.783,1.912c-0.4,0.455-1.311,1.22-3.148,1.22c-2.877,0-4.242-1.784-4.242-4.679
			c0-1.802,0.364-3.295,1.803-4.296c0.873-0.619,1.966-0.674,2.493-0.674c4.097,0,4.005,3.623,3.969,5.115L250.745,196.362
			L250.745,196.362z M255.569,195.161c0.018-0.874-0.146-2.694-2.258-2.694c-1.11,0-2.457,0.674-2.494,2.694H255.569z"/>
		<path fill="#005E7D" d="M258.449,191.483h1.911l2.912,7.245l2.84-7.245h1.894l-4.005,9.139h-1.729L258.449,191.483z"/>
		<path fill="#005E7D" d="M275.527,200.622c-0.127-0.455-0.163-0.892-0.163-1.365c-0.819,1.511-2.058,1.656-2.822,1.656
			c-2.093,0-3.222-1.183-3.222-2.694c0-0.728,0.255-1.893,1.602-2.676c0.983-0.546,2.439-0.601,3.168-0.601
			c0.437,0,0.71,0.019,1.237,0.055c0-1.129,0-1.62-0.327-2.021c-0.346-0.455-1.093-0.601-1.584-0.601
			c-1.729,0-1.82,1.183-1.839,1.547h-1.711c0.055-0.473,0.109-1.11,0.638-1.729c0.691-0.765,1.983-0.982,2.948-0.982
			c1.329,0,2.749,0.419,3.24,1.347c0.292,0.546,0.31,0.983,0.31,1.402l-0.072,4.368c0,0.146,0.018,1.365,0.146,2.294H275.527z
			 M274.345,196.125c-0.692,0-3.295,0-3.295,1.856c0,0.583,0.364,1.584,1.893,1.584c0.874,0,1.529-0.346,1.948-0.983
			c0.382-0.619,0.4-1.128,0.437-2.402C275.017,196.143,274.763,196.125,274.345,196.125z"/>
		<path fill="#005E7D" d="M278.68,191.447h1.62v-1.911l1.693-0.546v2.457h2.038v1.256h-2.038v5.479c0,0.455,0,1.22,1.22,1.22
			c0.346,0,0.673-0.055,0.818-0.091v1.329c-0.31,0.055-0.801,0.108-1.42,0.108c-1.565,0-2.312-0.455-2.312-1.947v-6.099h-1.62
			v-1.255L278.68,191.447L278.68,191.447z"/>
		<path fill="#005E7D" d="M285.982,187.515h2.057v1.875h-2.057V187.515z M286.164,191.483h1.711v9.139h-1.711V191.483z"/>
		<path fill="#005E7D" d="M295.177,191.247c3.659,0,4.479,2.876,4.479,4.788c0,2.676-1.512,4.896-4.624,4.896
			c-3.021,0-4.496-2.094-4.496-4.77C290.535,193.905,291.591,191.247,295.177,191.247z M295.067,199.657
			c1.293,0,2.768-0.929,2.768-3.677c0-2.275-1.057-3.478-2.658-3.478c-1.092,0-2.858,0.692-2.858,3.55
			C292.318,197.927,293.12,199.657,295.067,199.657z"/>
		<path fill="#005E7D" d="M302.388,192.54l-0.018-1.057h1.711l0.019,1.475c0.2-0.382,0.855-1.656,2.931-1.656
			c0.818,0,3.313,0.31,3.313,3.113v6.207h-1.747v-5.807c0-0.602-0.073-1.147-0.492-1.565c-0.437-0.419-1.037-0.619-1.62-0.619
			c-1.237,0-2.384,0.892-2.384,2.73v5.261h-1.712L302.388,192.54L302.388,192.54z"/>
		<path fill="#005E7D" d="M314.444,197.91c-0.019,0.691,0.346,1.656,2.002,1.656c0.71,0,1.238-0.128,1.603-0.583
			c0.182-0.236,0.291-0.546,0.291-0.855c0-0.892-0.637-1.056-2.002-1.365c-1.912-0.437-3.514-0.819-3.514-2.73
			c0-1.675,1.456-2.767,3.568-2.767c1.146,0,2.748,0.327,3.294,1.42c0.237,0.51,0.237,0.946,0.237,1.328h-1.748
			c0.055-1.383-1.146-1.492-1.766-1.492c-0.255,0-1.856,0-1.856,1.311c0,0.838,0.819,1.038,1.292,1.165
			c2.53,0.601,3.077,0.746,3.623,1.256c0.51,0.474,0.691,1.11,0.691,1.693c0,1.02-0.564,1.893-1.237,2.312
			c-0.802,0.491-1.767,0.619-2.713,0.619c-1.856,0-3.586-0.765-3.567-2.967h1.802V197.91z"/>
	</g>
	<g>
		<path fill="#005E7D" d="M31.822,224.712c-0.983-2.421-2.166-5.443-2.166-8.101c0-1.438,0.327-2.858,0.746-4.242
			c0.51-1.638,0.983-2.803,1.293-3.586h1.201c-0.291,0.893-0.692,2.13-1.074,3.859c-0.382,1.675-0.51,2.804-0.51,3.932
			c0,2.585,0.637,4.679,1.693,8.138H31.822z"/>
		<path fill="#005E7D" d="M40.089,209.33h1.947l5.315,13.144h-1.984l-1.42-3.422h-6.098l-1.42,3.422h-1.875L40.089,209.33z
			 M38.431,217.577h4.97l-2.421-6.444L38.431,217.577z"/>
		<path fill="#005E7D" d="M49.232,209.33h1.802v11.523h6.116v1.62h-7.918V209.33z"/>
		<path fill="#005E7D" d="M60.739,222.473v-11.596h-4.405v-1.548h10.613v1.548h-4.405v11.596H60.739z"/>
		<path fill="#005E7D" d="M79.312,222.473c-0.127-0.455-0.163-0.892-0.163-1.365c-0.819,1.511-2.058,1.656-2.822,1.656
			c-2.093,0-3.222-1.183-3.222-2.694c0-0.728,0.255-1.893,1.602-2.676c0.983-0.546,2.439-0.601,3.168-0.601
			c0.437,0,0.71,0.019,1.237,0.055c0-1.129,0-1.62-0.327-2.021c-0.346-0.455-1.093-0.601-1.584-0.601
			c-1.729,0-1.82,1.183-1.839,1.547h-1.711c0.055-0.473,0.109-1.11,0.638-1.729c0.691-0.765,1.983-0.982,2.948-0.982
			c1.329,0,2.749,0.419,3.24,1.347c0.292,0.546,0.31,0.983,0.31,1.402l-0.072,4.368c0,0.146,0.018,1.365,0.146,2.294H79.312z
			 M78.13,217.977c-0.692,0-3.295,0-3.295,1.856c0,0.583,0.364,1.584,1.893,1.584c0.874,0,1.529-0.346,1.948-0.983
			c0.382-0.619,0.4-1.128,0.437-2.402C78.803,217.995,78.549,217.977,78.13,217.977z"/>
		<path fill="#005E7D" d="M83.922,214.391l-0.018-1.057h1.711l0.019,1.475c0.2-0.382,0.855-1.656,2.931-1.656
			c0.818,0,3.313,0.31,3.313,3.113v6.207H90.13v-5.807c0-0.602-0.073-1.147-0.492-1.565c-0.437-0.419-1.037-0.619-1.62-0.619
			c-1.237,0-2.384,0.892-2.384,2.73v5.261h-1.712V214.391z"/>
		<path fill="#005E7D" d="M101.328,209.348h1.712v11.669c0,0.2,0.036,0.982,0.072,1.456h-1.711l-0.036-1.456
			c-0.146,0.255-0.347,0.637-0.819,0.965c-0.747,0.51-1.639,0.673-2.258,0.673c-1.22,0-3.932-0.637-3.932-4.642
			c0-3.477,1.984-4.987,4.132-4.987c1.967,0,2.622,1.165,2.84,1.547L101.328,209.348L101.328,209.348z M100.691,215.228
			c-0.364-0.474-1.038-0.929-2.003-0.929c-2.512,0-2.512,3.04-2.512,3.659c0,1.62,0.419,3.495,2.512,3.495
			c2.694,0,2.694-2.967,2.694-3.677C101.383,216.448,101.073,215.719,100.691,215.228z"/>
		<path fill="#005E7D" d="M108.614,209.494h1.184l-4.241,13.271h-1.202L108.614,209.494z"/>
		<path fill="#005E7D" d="M115.151,213.098c3.659,0,4.479,2.876,4.479,4.788c0,2.676-1.512,4.896-4.624,4.896
			c-3.021,0-4.496-2.094-4.496-4.77C110.51,215.756,111.565,213.098,115.151,213.098z M115.042,221.508
			c1.293,0,2.768-0.929,2.768-3.677c0-2.275-1.057-3.478-2.658-3.478c-1.092,0-2.858,0.692-2.858,3.55
			C112.293,219.779,113.095,221.508,115.042,221.508z"/>
		<path fill="#005E7D" d="M122.4,215.192c0-0.619-0.037-1.256-0.092-1.857h1.729l0.037,1.767c0.327-1.274,1.419-1.693,2.184-1.803
			c0.51-0.072,0.893-0.055,1.184-0.036v1.675c-0.091-0.036-0.2-0.055-0.327-0.073c-0.128-0.018-0.292-0.018-0.492-0.018
			c-2.021,0-2.494,1.201-2.494,2.767v4.86H122.4V215.192z"/>
		<path fill="#005E7D" d="M137.659,209.33h1.947l5.315,13.144h-1.984l-1.42-3.422h-6.098l-1.42,3.422h-1.875L137.659,209.33z
			 M136.002,217.577h4.97l-2.421-6.444L136.002,217.577z"/>
		<path fill="#005E7D" d="M147.676,218.632c0.036,0.91,0.146,2.603,3.167,2.603c2.73,0,3.076-1.692,3.076-2.348
			c0-1.475-1.183-1.766-3.021-2.221c-2.003-0.492-2.895-0.71-3.568-1.165c-1.073-0.729-1.365-1.712-1.365-2.585
			c0-2.676,2.53-3.842,5.006-3.842c0.874,0,2.64,0.146,3.696,1.293c0.728,0.801,0.764,1.693,0.801,2.239h-1.894
			c-0.091-1.639-1.475-2.003-2.767-2.003c-1.82,0-2.913,0.819-2.913,2.13c0,1.165,0.765,1.565,2.366,1.948
			c3.132,0.801,3.478,0.874,4.242,1.383c1.22,0.802,1.311,2.076,1.311,2.622c0,2.33-1.82,4.096-5.188,4.096
			c-1.001,0-3.04-0.164-4.077-1.493c-0.746-0.965-0.765-2.021-0.765-2.657L147.676,218.632L147.676,218.632z"/>
		<path fill="#005E7D" d="M161.349,222.473v-11.596h-4.405v-1.548h10.613v1.548h-4.405v11.596H161.349z"/>
		<path fill="#005E7D" d="M173.425,222.292v-1.584l7.391-2.804l-7.391-2.821v-1.565l9.283,3.641v1.492L173.425,222.292z"/>
		<path fill="#005E7D" d="M186.007,219.233c-0.018,1.201,0.765,2.057,2.313,2.057c1.766,0,2.512-1.128,2.512-2.238
			c0-1.329-0.892-2.021-1.82-2.222c-0.655-0.127-1.11-0.108-1.748-0.091v-1.475c1.257,0.109,3.368-0.146,3.368-2.185
			c0-1.42-0.965-1.983-2.221-1.983c-0.947,0-2.13,0.418-2.294,1.983h-1.839c0.109-3.131,3.059-3.44,4.078-3.44
			c2.749,0,4.114,1.657,4.114,3.404c0,1.038-0.564,2.53-2.513,2.968c2.694,0.382,2.694,2.803,2.694,3.058
			c0,1.766-1.438,3.714-4.369,3.714c-1.328,0-2.657-0.383-3.458-1.311c-0.71-0.801-0.729-1.711-0.747-2.239H186.007z"/>
		<path fill="#005E7D" d="M203.177,222.473h-2.257l-2.604-3.659l-2.585,3.659h-2.002l3.622-4.787l-3.422-4.352h2.239l2.438,3.44
			l2.549-3.44h2.021l-3.567,4.46L203.177,222.473z"/>
		<path fill="#005E7D" d="M207.149,209.33v8.138c0,1.401,0.31,1.984,0.582,2.366c0.819,1.093,2.094,1.293,3.004,1.293
			c3.55,0,3.55-2.785,3.55-3.732v-8.064h1.766v8.102c0,0.71-0.019,2.184-1.074,3.495c-1.292,1.62-3.295,1.82-4.241,1.82
			c-1.238,0-3.423-0.347-4.643-2.094c-0.4-0.583-0.764-1.347-0.764-3.313v-8.01h1.82V209.33z"/>
		<path fill="#005E7D" d="M219.497,209.33h1.802v11.523h6.116v1.62h-7.918V209.33z"/>
		<path fill="#005E7D" d="M229.658,209.33h2.53l6.462,10.868V209.33h1.675v13.144h-2.33l-6.681-11.159v11.159h-1.656V209.33z"/>
		<path fill="#005E7D" d="M250.834,213.589l-3.132-0.346l1.857,2.513l-1.184,0.728l-1.22-2.876l-1.311,2.84l-1.238-0.674l1.93-2.53
			l-3.021,0.255v-1.329l3.076,0.401l-1.856-2.549l1.201-0.655l1.22,2.821l1.256-2.84l1.22,0.674l-1.911,2.549l3.113-0.347
			L250.834,213.589L250.834,213.589z"/>
		<path fill="#005E7D" d="M254.787,208.784c0.983,2.421,2.167,5.425,2.167,8.083c0,1.438-0.328,2.857-0.747,4.241
			c-0.51,1.639-0.982,2.821-1.292,3.604h-1.201c0.291-0.91,0.691-2.148,1.073-3.878c0.383-1.656,0.51-2.803,0.51-3.932
			c0-2.566-0.637-4.66-1.692-8.119h1.182L254.787,208.784L254.787,208.784z"/>
	</g>
	<g>
		<path fill="#005E7D" d="M383.154,208.307c-0.018,1.201,0.765,2.057,2.313,2.057c1.766,0,2.512-1.128,2.512-2.238
			c0-1.329-0.892-2.021-1.82-2.222c-0.655-0.127-1.11-0.108-1.748-0.091v-1.475c1.257,0.109,3.368-0.146,3.368-2.185
			c0-1.42-0.965-1.983-2.221-1.983c-0.946,0-2.13,0.418-2.294,1.983h-1.839c0.109-3.131,3.059-3.44,4.078-3.44
			c2.749,0,4.114,1.657,4.114,3.404c0,1.038-0.564,2.53-2.513,2.968c2.694,0.382,2.694,2.803,2.694,3.058
			c0,1.766-1.438,3.714-4.369,3.714c-1.328,0-2.657-0.383-3.458-1.311c-0.71-0.801-0.729-1.711-0.747-2.239H383.154z"/>
		<path fill="#005E7D" d="M399.216,213.787c-0.983-2.421-2.166-5.443-2.166-8.101c0-1.438,0.327-2.858,0.746-4.242
			c0.51-1.638,0.983-2.803,1.293-3.586h1.201c-0.291,0.893-0.692,2.13-1.074,3.859c-0.382,1.675-0.51,2.804-0.51,3.932
			c0,2.585,0.637,4.679,1.693,8.138H399.216z"/>
		<path fill="#005E7D" d="M406.808,198.696c3.768,0,4.223,4.041,4.223,6.407c0,2.985-0.601,4.66-1.747,5.734
			c-0.892,0.837-1.948,0.965-2.512,0.965c-1.675,0-2.822-0.983-3.368-2.094c-0.419-0.837-0.819-2.057-0.819-4.314
			C402.585,203.519,402.804,198.696,406.808,198.696z M406.79,210.292c2.111,0,2.476-2.768,2.476-5.024
			c0-3.021-0.527-5.115-2.439-5.115c-2.202,0-2.493,2.895-2.493,5.151C404.333,208.107,404.879,210.292,406.79,210.292z"/>
		<path fill="#005E7D" d="M413.384,209.363h2.021v2.185h-2.021V209.363z"/>
		<path fill="#005E7D" d="M423.161,208.817h-5.68v-2.166l5.461-7.864h1.966v8.556h1.839v1.475h-1.839v2.73h-1.747V208.817z
			 M423.216,207.342v-6.645l-4.351,6.645H423.216z"/>
		<path fill="#005E7D" d="M433.96,201.827c0,2.257-1.329,3.295-2.986,3.295c-1.583,0-2.931-0.946-2.931-3.186
			c0-1.912,1.038-3.331,3.095-3.331C433.231,198.605,433.96,200.17,433.96,201.827z M432.521,201.899
			c0-0.892-0.219-2.202-1.511-2.202c-1.565,0-1.565,1.784-1.565,2.221c0,0.419,0,2.148,1.565,2.148
			C432.521,204.066,432.521,202.263,432.521,201.899z M430.465,212.257l8.027-14.017h1.201l-8.027,14.017H430.465z M441.568,206.123
			c0.328,0.364,0.747,0.946,0.747,2.312c0,1.984-0.965,3.332-2.932,3.332c-2.33,0-2.985-1.729-2.985-3.24
			c0-2.203,1.365-3.277,2.985-3.277C439.876,205.249,440.858,205.34,441.568,206.123z M440.931,208.471
			c0-0.564-0.109-2.203-1.529-2.203c-1.565,0-1.565,1.894-1.565,2.439c0,0.637,0.146,1.984,1.529,1.984
			C440.822,210.692,440.931,209.126,440.931,208.471z"/>
		<path fill="#005E7D" d="M445.851,197.858c0.983,2.421,2.167,5.425,2.167,8.083c0,1.438-0.328,2.857-0.747,4.241
			c-0.51,1.639-0.982,2.821-1.292,3.604h-1.201c0.291-0.91,0.691-2.148,1.073-3.878c0.383-1.656,0.51-2.803,0.51-3.932
			c0-2.566-0.637-4.66-1.692-8.119h1.182L445.851,197.858L445.851,197.858z"/>
	</g>
	<g>
		<path fill="#005E7D" d="M538.003,198.951h8.319v1.528l-4.624,11.068h-2.057l4.842-11.086h-6.48V198.951z"/>
		<path fill="#005E7D" d="M556.049,213.787c-0.983-2.421-2.166-5.443-2.166-8.101c0-1.438,0.327-2.858,0.746-4.242
			c0.51-1.638,0.983-2.803,1.293-3.586h1.201c-0.291,0.893-0.692,2.13-1.074,3.859c-0.382,1.675-0.51,2.804-0.51,3.932
			c0,2.585,0.637,4.679,1.693,8.138H556.049z"/>
		<path fill="#005E7D" d="M563.641,198.696c3.768,0,4.223,4.041,4.223,6.407c0,2.985-0.601,4.66-1.747,5.734
			c-0.892,0.837-1.948,0.965-2.512,0.965c-1.675,0-2.822-0.983-3.368-2.094c-0.419-0.837-0.819-2.057-0.819-4.314
			C559.418,203.519,559.637,198.696,563.641,198.696z M563.623,210.292c2.111,0,2.476-2.768,2.476-5.024
			c0-3.021-0.527-5.115-2.439-5.115c-2.202,0-2.493,2.895-2.493,5.151C561.166,208.107,561.712,210.292,563.623,210.292z"/>
		<path fill="#005E7D" d="M570.217,209.363h2.021v2.185h-2.021V209.363z"/>
		<path fill="#005E7D" d="M576.554,208.543c0,1.093,0.601,1.857,2.021,1.857c2.767,0,2.785-3.259,2.694-5.225
			c-0.655,1.237-1.839,1.584-2.822,1.584c-2.002,0-3.841-1.348-3.841-3.987c0-2.895,2.058-4.06,4.041-4.06
			c1.348,0,3.332,0.547,4.06,3.095c0.219,0.765,0.364,1.675,0.364,3.386c0,1.857-0.019,6.645-4.642,6.645
			c-1.712,0-3.714-0.673-3.787-3.295H576.554z M578.646,200.079c-1.474,0-2.257,1.22-2.257,2.713c0,1.639,1.001,2.585,2.385,2.585
			c1.42,0,2.294-1.056,2.294-2.567C581.068,200.989,579.885,200.079,578.646,200.079z"/>
		<path fill="#005E7D" d="M590.793,201.827c0,2.257-1.329,3.295-2.986,3.295c-1.583,0-2.931-0.946-2.931-3.186
			c0-1.912,1.038-3.331,3.095-3.331C590.064,198.605,590.793,200.17,590.793,201.827z M589.354,201.899
			c0-0.892-0.219-2.202-1.511-2.202c-1.565,0-1.565,1.784-1.565,2.221c0,0.419,0,2.148,1.565,2.148
			C589.354,204.066,589.354,202.263,589.354,201.899z M587.298,212.257l8.027-14.017h1.201l-8.027,14.017H587.298z M598.401,206.123
			c0.328,0.364,0.747,0.946,0.747,2.312c0,1.984-0.965,3.332-2.932,3.332c-2.33,0-2.985-1.729-2.985-3.24
			c0-2.203,1.365-3.277,2.985-3.277C596.709,205.249,597.691,205.34,598.401,206.123z M597.764,208.471
			c0-0.564-0.109-2.203-1.529-2.203c-1.565,0-1.565,1.894-1.565,2.439c0,0.637,0.146,1.984,1.529,1.984
			C597.655,210.692,597.764,209.126,597.764,208.471z"/>
		<path fill="#005E7D" d="M602.684,197.858c0.983,2.421,2.167,5.425,2.167,8.083c0,1.438-0.328,2.857-0.747,4.241
			c-0.51,1.639-0.982,2.821-1.292,3.604h-1.201c0.291-0.91,0.691-2.148,1.073-3.878c0.383-1.656,0.51-2.803,0.51-3.932
			c0-2.566-0.637-4.66-1.692-8.119h1.182V197.858z"/>
	</g>
	<g>
		<path fill="#005E7D" d="M29.892,256.414h4.696c0.674,0,2.058,0,3.022,0.619c0.982,0.619,1.456,1.62,1.456,2.676
			c0,0.929-0.346,1.748-0.929,2.33c-0.564,0.564-1.146,0.747-1.547,0.856c1.256,0.327,1.82,0.892,2.002,2.53
			c0.183,1.547,0.31,2.676,0.819,4.132h-1.947c-0.292-0.874-0.474-2.476-0.602-3.477c-0.218-1.912-0.673-2.458-2.876-2.458h-2.293
			v5.935H29.89v-13.143L29.892,256.414L29.892,256.414z M31.658,262.076h2.876c0.2,0,1.238,0,1.729-0.292
			c0.255-0.146,0.893-0.618,0.893-1.711c0-2.13-1.894-2.13-2.622-2.13h-2.876V262.076z"/>
		<path fill="#005E7D" d="M42.075,256.432h1.729v5.334c0.564-0.965,1.693-1.511,2.968-1.511c0.965,0,2.348,0.346,2.876,1.456
			c0.182,0.364,0.31,0.801,0.31,2.13v5.716H48.21v-5.406c0-0.819,0-2.585-1.966-2.585c-1.274,0-1.911,0.782-2.148,1.22
			c-0.291,0.51-0.291,1.365-0.291,1.93v4.842h-1.729L42.075,256.432L42.075,256.432z"/>
		<path fill="#005E7D" d="M58.771,269.557c-0.127-0.455-0.163-0.892-0.163-1.365c-0.819,1.511-2.058,1.656-2.822,1.656
			c-2.093,0-3.222-1.183-3.222-2.694c0-0.728,0.255-1.893,1.602-2.676c0.983-0.546,2.439-0.601,3.168-0.601
			c0.437,0,0.71,0.019,1.237,0.055c0-1.129,0-1.62-0.327-2.021c-0.346-0.455-1.093-0.601-1.584-0.601
			c-1.729,0-1.82,1.183-1.839,1.547H53.11c0.055-0.473,0.109-1.11,0.638-1.729c0.691-0.765,1.983-0.982,2.948-0.982
			c1.329,0,2.749,0.419,3.24,1.347c0.292,0.546,0.31,0.983,0.31,1.402l-0.072,4.368c0,0.146,0.018,1.365,0.146,2.294H58.771z
			 M57.589,265.061c-0.692,0-3.295,0-3.295,1.856c0,0.583,0.364,1.584,1.893,1.584c0.874,0,1.529-0.346,1.948-0.983
			c0.382-0.619,0.4-1.128,0.437-2.402C58.262,265.079,58.008,265.061,57.589,265.061z"/>
		<path fill="#005E7D" d="M65.038,261.748c0.236-0.419,0.91-1.565,2.985-1.565c0.91,0,2.057,0.219,2.895,1.165
			c0.455,0.528,1.073,1.438,1.073,3.44c0,1.766-0.418,2.73-0.873,3.331c-0.729,1.038-1.948,1.565-3.204,1.565
			c-0.438,0-1.256-0.054-2.039-0.582c-0.51-0.346-0.71-0.655-0.892-0.929l-0.037,1.384H63.29l0.036-1.639v-11.505h1.712V261.748z
			 M67.623,261.347c-2.622,0-2.622,3.059-2.622,3.641c0,0.601,0,3.459,2.549,3.459c2.111,0,2.64-2.057,2.64-3.55
			C70.189,263.987,70.007,261.347,67.623,261.347z"/>
		<path fill="#005E7D" d="M80.787,256.432h1.712v11.669c0,0.2,0.036,0.982,0.072,1.456H80.86l-0.036-1.456
			c-0.146,0.255-0.347,0.637-0.819,0.965c-0.747,0.51-1.639,0.673-2.258,0.673c-1.22,0-3.932-0.637-3.932-4.642
			c0-3.477,1.984-4.987,4.132-4.987c1.967,0,2.622,1.165,2.84,1.547L80.787,256.432L80.787,256.432z M80.15,262.312
			c-0.364-0.474-1.038-0.929-2.003-0.929c-2.512,0-2.512,3.04-2.512,3.659c0,1.62,0.419,3.495,2.512,3.495
			c2.694,0,2.694-2.967,2.694-3.677C80.842,263.532,80.532,262.803,80.15,262.312z"/>
		<path fill="#005E7D" d="M89.548,260.182c3.659,0,4.479,2.876,4.479,4.788c0,2.676-1.512,4.896-4.624,4.896
			c-3.021,0-4.496-2.094-4.496-4.77C84.906,262.84,85.962,260.182,89.548,260.182z M89.438,268.592c1.293,0,2.768-0.929,2.768-3.677
			c0-2.275-1.057-3.478-2.658-3.478c-1.092,0-2.858,0.692-2.858,3.55C86.689,266.863,87.491,268.592,89.438,268.592z"/>
		<path fill="#005E7D" d="M96.687,261.638l-0.037-1.22h1.729v1.329c0.874-1.438,2.112-1.565,2.895-1.565
			c2.021,0,2.658,1.038,2.985,1.711c0.31-0.51,1.056-1.711,3.076-1.711c1.312,0,3.35,0.546,3.35,3.24v6.135h-1.729v-5.861
			c0-0.801-0.146-1.147-0.31-1.384c-0.292-0.419-0.874-0.801-1.748-0.801c-1.11,0-1.711,0.637-1.947,0.965
			c-0.401,0.564-0.401,1.565-0.401,1.966v5.115h-1.729v-6.044c0-1.128-0.655-2.002-2.003-2.002c-1.165,0-1.802,0.728-2.002,1.001
			c-0.383,0.528-0.4,1.274-0.4,1.856v5.188h-1.729V261.638z"/>
		<path fill="#005E7D" d="M117.664,269.612l-1.311,3.404h-1.766l1.384-3.495l-3.805-9.103h1.93l2.857,7.209l2.913-7.209h1.856
			L117.664,269.612z"/>
		<path fill="#005E7D" d="M127.642,260.182c3.659,0,4.479,2.876,4.479,4.788c0,2.676-1.512,4.896-4.624,4.896
			c-3.021,0-4.496-2.094-4.496-4.77C123.001,262.84,124.056,260.182,127.642,260.182z M127.533,268.592
			c1.293,0,2.768-0.929,2.768-3.677c0-2.275-1.057-3.478-2.658-3.478c-1.092,0-2.858,0.692-2.858,3.55
			C124.784,266.863,125.586,268.592,127.533,268.592z"/>
		<path fill="#005E7D" d="M134.838,256.432h1.711v13.125h-1.711V256.432z"/>
		<path fill="#005E7D" d="M143.977,269.612l-1.311,3.404H140.9l1.384-3.495l-3.805-9.103h1.93l2.857,7.209l2.913-7.209h1.856
			L143.977,269.612z"/>
		<path fill="#005E7D" d="M150.971,266.845c-0.019,0.691,0.346,1.656,2.002,1.656c0.71,0,1.238-0.128,1.603-0.583
			c0.182-0.236,0.291-0.546,0.291-0.855c0-0.892-0.637-1.056-2.002-1.365c-1.912-0.437-3.514-0.819-3.514-2.73
			c0-1.675,1.456-2.767,3.568-2.767c1.146,0,2.748,0.327,3.294,1.42c0.237,0.51,0.237,0.946,0.237,1.328h-1.748
			c0.055-1.383-1.146-1.492-1.766-1.492c-0.255,0-1.856,0-1.856,1.311c0,0.838,0.819,1.038,1.292,1.165
			c2.53,0.601,3.077,0.746,3.623,1.256c0.51,0.474,0.691,1.11,0.691,1.693c0,1.02-0.564,1.893-1.237,2.312
			c-0.802,0.491-1.767,0.619-2.713,0.619c-1.856,0-3.586-0.765-3.567-2.967h1.802L150.971,266.845L150.971,266.845z"/>
		<path fill="#005E7D" d="M158.93,256.451h2.057v1.875h-2.057V256.451z M159.111,260.418h1.711v9.139h-1.711V260.418z"/>
		<path fill="#005E7D" d="M165.138,266.845c-0.019,0.691,0.346,1.656,2.002,1.656c0.71,0,1.238-0.128,1.603-0.583
			c0.182-0.236,0.291-0.546,0.291-0.855c0-0.892-0.637-1.056-2.002-1.365c-1.912-0.437-3.514-0.819-3.514-2.73
			c0-1.675,1.456-2.767,3.568-2.767c1.146,0,2.748,0.327,3.294,1.42c0.237,0.51,0.237,0.946,0.237,1.328h-1.748
			c0.055-1.383-1.146-1.492-1.766-1.492c-0.255,0-1.856,0-1.856,1.311c0,0.838,0.819,1.038,1.292,1.165
			c2.53,0.601,3.077,0.746,3.623,1.256c0.51,0.474,0.691,1.11,0.691,1.693c0,1.02-0.564,1.893-1.237,2.312
			c-0.802,0.491-1.767,0.619-2.713,0.619c-1.856,0-3.586-0.765-3.567-2.967h1.802V266.845z"/>
	</g>
	<g>
		<path fill="#005E7D" d="M414.905,256.706c3.768,0,4.223,4.041,4.223,6.407c0,2.985-0.601,4.66-1.747,5.734
			c-0.892,0.837-1.948,0.965-2.512,0.965c-1.675,0-2.822-0.983-3.368-2.094c-0.419-0.837-0.819-2.057-0.819-4.314
			C410.681,261.529,410.9,256.706,414.905,256.706z M414.887,268.301c2.111,0,2.476-2.768,2.476-5.024
			c0-3.021-0.527-5.115-2.439-5.115c-2.202,0-2.493,2.895-2.493,5.151C412.43,266.117,412.975,268.301,414.887,268.301z"/>
	</g>
	<g>
		<path fill="#005E7D" d="M571.735,256.706c3.768,0,4.223,4.041,4.223,6.407c0,2.985-0.601,4.66-1.747,5.734
			c-0.892,0.837-1.948,0.965-2.512,0.965c-1.675,0-2.822-0.983-3.368-2.094c-0.419-0.837-0.819-2.057-0.819-4.314
			C567.512,261.529,567.73,256.706,571.735,256.706z M571.717,268.301c2.111,0,2.476-2.768,2.476-5.024
			c0-3.021-0.527-5.115-2.439-5.115c-2.202,0-2.493,2.895-2.493,5.151C569.26,266.117,569.805,268.301,571.717,268.301z"/>
	</g>
	<g>
		<path fill="#003B47" d="M287.013,316.124h1.004l2.74,6.775h-1.022l-0.732-1.765h-3.144l-0.731,1.765h-0.967L287.013,316.124z
			 M286.159,320.375h2.562l-1.248-3.322L286.159,320.375z"/>
		<path fill="#003B47" d="M294.945,316.132h0.882v6.016c0,0.104,0.019,0.507,0.038,0.751h-0.883l-0.019-0.751
			c-0.075,0.132-0.178,0.328-0.422,0.497c-0.385,0.263-0.845,0.348-1.164,0.348c-0.629,0-2.026-0.328-2.026-2.394
			c0-1.792,1.022-2.571,2.13-2.571c1.014,0,1.352,0.601,1.464,0.798L294.945,316.132L294.945,316.132z M294.617,319.164
			c-0.188-0.244-0.535-0.479-1.032-0.479c-1.296,0-1.296,1.567-1.296,1.887c0,0.835,0.217,1.802,1.296,1.802
			c1.389,0,1.389-1.53,1.389-1.896C294.973,319.792,294.813,319.417,294.617,319.164z"/>
		<path fill="#003B47" d="M300.287,322.899c-0.065-0.234-0.085-0.46-0.085-0.704c-0.422,0.779-1.06,0.854-1.454,0.854
			c-1.079,0-1.661-0.609-1.661-1.389c0-0.375,0.132-0.976,0.826-1.379c0.507-0.282,1.257-0.31,1.633-0.31
			c0.225,0,0.365,0.009,0.638,0.027c0-0.581,0-0.835-0.169-1.041c-0.178-0.234-0.563-0.31-0.816-0.31
			c-0.892,0-0.938,0.609-0.947,0.797h-0.883c0.028-0.243,0.057-0.572,0.329-0.891c0.356-0.395,1.022-0.507,1.52-0.507
			c0.686,0,1.417,0.216,1.671,0.694c0.15,0.281,0.159,0.507,0.159,0.723l-0.037,2.252c0,0.075,0.009,0.704,0.075,1.183
			L300.287,322.899L300.287,322.899z M299.677,320.581c-0.356,0-1.698,0-1.698,0.957c0,0.301,0.188,0.816,0.976,0.816
			c0.451,0,0.789-0.178,1.005-0.507c0.196-0.318,0.206-0.581,0.225-1.238C300.024,320.59,299.892,320.581,299.677,320.581z"/>
		<path fill="#003B47" d="M302.607,318.958c0-0.207-0.01-0.319-0.028-0.77h0.892l0.019,0.778c0.441-0.741,1.221-0.854,1.605-0.854
			c1.013,0,1.979,0.694,1.979,2.439c0,1.755-1.022,2.524-2.148,2.524c-0.686,0-1.192-0.291-1.445-0.703v2.336h-0.873v-5.75H302.607z
			 M304.775,322.429c0.225,0,0.694-0.047,0.994-0.46c0.338-0.459,0.385-1.135,0.385-1.473c0-0.845-0.253-1.727-1.295-1.727
			c-1.407,0-1.407,1.492-1.407,1.914C303.452,321.256,303.536,322.429,304.775,322.429z"/>
		<path fill="#003B47" d="M307.648,318.169h0.836v-0.985l0.872-0.282v1.268h1.052v0.647h-1.052v2.824c0,0.234,0,0.629,0.629,0.629
			c0.179,0,0.348-0.028,0.423-0.047v0.685c-0.16,0.028-0.413,0.057-0.732,0.057c-0.807,0-1.191-0.234-1.191-1.004v-3.144h-0.836
			v-0.648H307.648z"/>
		<path fill="#003B47" d="M312.033,320.703c-0.02,0.977,0.385,1.698,1.351,1.698c0.573,0,1.032-0.3,1.107-0.976h0.883
			c-0.028,0.234-0.066,0.619-0.404,0.985c-0.206,0.234-0.676,0.629-1.623,0.629c-1.482,0-2.187-0.92-2.187-2.412
			c0-0.929,0.188-1.698,0.929-2.215c0.451-0.318,1.014-0.347,1.286-0.347c2.111,0,2.064,1.867,2.046,2.637h-3.388V320.703z
			 M314.519,320.083c0.01-0.45-0.075-1.389-1.163-1.389c-0.573,0-1.268,0.347-1.286,1.389H314.519z"/>
		<path fill="#003B47" d="M319.983,316.132h0.882v6.016c0,0.104,0.019,0.507,0.038,0.751h-0.883l-0.019-0.751
			c-0.075,0.132-0.178,0.328-0.422,0.497c-0.385,0.263-0.845,0.348-1.164,0.348c-0.629,0-2.026-0.328-2.026-2.394
			c0-1.792,1.022-2.571,2.13-2.571c1.014,0,1.352,0.601,1.464,0.798L319.983,316.132L319.983,316.132z M319.655,319.164
			c-0.188-0.244-0.535-0.479-1.032-0.479c-1.296,0-1.296,1.567-1.296,1.887c0,0.835,0.217,1.802,1.296,1.802
			c1.389,0,1.389-1.53,1.389-1.896C320.012,319.792,319.851,319.417,319.655,319.164z"/>
		<path fill="#003B47" d="M327.419,316.78c-0.149-0.009-0.338-0.019-0.516-0.019c-0.713,0-0.713,0.356-0.713,0.686v0.741h1.098
			v0.638h-1.098v4.073h-0.873v-4.073h-0.929v-0.638h0.929v-0.535c0-0.647,0.037-0.882,0.197-1.126
			c0.196-0.301,0.572-0.517,1.182-0.517c0.254,0,0.535,0.038,0.723,0.066V316.78z"/>
		<path fill="#003B47" d="M328.236,319.145c0-0.319-0.019-0.647-0.047-0.957h0.892l0.019,0.91c0.169-0.657,0.732-0.873,1.127-0.929
			c0.263-0.038,0.459-0.028,0.609-0.02v0.863c-0.047-0.019-0.103-0.027-0.169-0.037c-0.065-0.01-0.149-0.01-0.253-0.01
			c-1.042,0-1.286,0.62-1.286,1.427v2.506h-0.892L328.236,319.145L328.236,319.145z"/>
		<path fill="#003B47" d="M333.888,318.066c1.886,0,2.309,1.482,2.309,2.468c0,1.38-0.779,2.524-2.384,2.524
			c-1.558,0-2.318-1.079-2.318-2.459C331.494,319.436,332.039,318.066,333.888,318.066z M333.831,322.401
			c0.666,0,1.427-0.479,1.427-1.896c0-1.173-0.545-1.792-1.37-1.792c-0.563,0-1.474,0.356-1.474,1.83
			C332.414,321.51,332.827,322.401,333.831,322.401z"/>
		<path fill="#003B47" d="M337.568,318.817l-0.019-0.629h0.892v0.685c0.45-0.741,1.089-0.807,1.492-0.807
			c1.041,0,1.37,0.535,1.539,0.882c0.159-0.263,0.544-0.882,1.586-0.882c0.676,0,1.727,0.281,1.727,1.67v3.163h-0.892v-3.021
			c0-0.413-0.075-0.592-0.159-0.714c-0.15-0.216-0.451-0.413-0.901-0.413c-0.572,0-0.882,0.329-1.004,0.498
			c-0.206,0.291-0.206,0.807-0.206,1.014v2.637h-0.892v-3.116c0-0.581-0.338-1.032-1.032-1.032c-0.601,0-0.93,0.376-1.032,0.517
			c-0.197,0.272-0.207,0.657-0.207,0.957v2.675h-0.892L337.568,318.817L337.568,318.817z"/>
		<path fill="#003B47" d="M349.096,319.145c0-0.319-0.019-0.647-0.047-0.957h0.892l0.019,0.91c0.169-0.657,0.732-0.873,1.127-0.929
			c0.263-0.038,0.459-0.028,0.609-0.02v0.863c-0.047-0.019-0.103-0.027-0.169-0.037c-0.065-0.01-0.149-0.01-0.253-0.01
			c-1.042,0-1.286,0.62-1.286,1.427v2.506h-0.892L349.096,319.145L349.096,319.145z"/>
		<path fill="#003B47" d="M353.237,320.703c-0.02,0.977,0.385,1.698,1.351,1.698c0.573,0,1.032-0.3,1.107-0.976h0.883
			c-0.028,0.234-0.066,0.619-0.404,0.985c-0.206,0.234-0.676,0.629-1.623,0.629c-1.482,0-2.187-0.92-2.187-2.412
			c0-0.929,0.188-1.698,0.929-2.215c0.451-0.318,1.014-0.347,1.286-0.347c2.111,0,2.064,1.867,2.046,2.637h-3.388V320.703z
			 M355.723,320.083c0.01-0.45-0.075-1.389-1.163-1.389c-0.573,0-1.268,0.347-1.286,1.389H355.723z"/>
		<path fill="#003B47" d="M360.277,316.78c-0.149-0.009-0.338-0.019-0.516-0.019c-0.713,0-0.713,0.356-0.713,0.686v0.741h1.098
			v0.638h-1.098v4.073h-0.873v-4.073h-0.929v-0.638h0.929v-0.535c0-0.647,0.037-0.882,0.197-1.126
			c0.196-0.301,0.572-0.517,1.182-0.517c0.254,0,0.535,0.038,0.723,0.066V316.78z"/>
		<path fill="#003B47" d="M360.982,321.773h1.042v1.126h-1.042V321.773z"/>
		<path fill="#003B47" d="M365.939,322.044l1.698-1.67c0.357-0.348,0.714-0.723,1.005-1.117c0.375-0.516,0.479-0.807,0.479-1.154
			c0-0.318-0.113-1.061-1.042-1.061c-1.042,0-1.061,0.892-1.061,1.136h-0.985c0.01-0.318,0.038-0.938,0.601-1.426
			c0.45-0.385,0.995-0.47,1.408-0.47c0.994,0,2.008,0.507,2.008,1.896c0,0.413-0.028,0.732-0.732,1.624
			c-0.188,0.234-1.013,1.088-1.201,1.276l-1.135,1.079h3.087v0.741h-4.129v-0.854L365.939,322.044L365.939,322.044z"/>
	</g>
</g>
</svg>
