<?xml version="1.0" encoding="utf-8"?>
<!-- Generator: Adobe Illustrator 17.0.0, SVG Export Plug-In . SVG Version: 6.00 Build 0)  -->
<!DOCTYPE svg PUBLIC "-//W3C//DTD SVG 1.1//EN" "http://www.w3.org/Graphics/SVG/1.1/DTD/svg11.dtd">
<svg version="1.1" id="Layer_1" xmlns="http://www.w3.org/2000/svg" xmlns:xlink="http://www.w3.org/1999/xlink" x="0px" y="0px"
	 width="105.913px" height="94.603px" viewBox="0 0 105.913 94.603" enable-background="new 0 0 105.913 94.603"
	 xml:space="preserve">
<g>
	
		<radialGradient id="SVGID_2_" cx="-447.3937" cy="103.7112" r="42.6249" gradientTransform="matrix(1.2424 0 0 1.1097 608.7988 -67.787)" gradientUnits="userSpaceOnUse">
		<stop  offset="0" style="stop-color:#022538"/>
		<stop  offset="0.3137" style="stop-color:#02263A"/>
		<stop  offset="0.4267" style="stop-color:#022941"/>
		<stop  offset="0.5073" style="stop-color:#022E4C"/>
		<stop  offset="0.5725" style="stop-color:#02365D"/>
		<stop  offset="0.6283" style="stop-color:#014073"/>
		<stop  offset="0.6777" style="stop-color:#014D8F"/>
		<stop  offset="0.7224" style="stop-color:#015BAF"/>
		<stop  offset="0.7621" style="stop-color:#006CD3"/>
		<stop  offset="0.7988" style="stop-color:#007FFC"/>
		<stop  offset="0.801" style="stop-color:#0080FF"/>
		<stop  offset="0.8223" style="stop-color:#2694F9;stop-opacity:0.893"/>
		<stop  offset="0.8472" style="stop-color:#4BA8F2;stop-opacity:0.7679"/>
		<stop  offset="0.8733" style="stop-color:#6AB8ED;stop-opacity:0.6367"/>
		<stop  offset="0.9005" style="stop-color:#82C4E9;stop-opacity:0.5"/>
		<stop  offset="0.9293" style="stop-color:#93CDE6;stop-opacity:0.3552"/>
		<stop  offset="0.9608" style="stop-color:#9DD2E5;stop-opacity:0.197"/>
		<stop  offset="1" style="stop-color:#A0D4E4;stop-opacity:0"/>
	</radialGradient>
	<ellipse fill="url(#SVGID_2_)" cx="52.957" cy="47.301" rx="52.957" ry="47.301"/>
	<g>
		<g>
			<g>
				<path fill="#FFFFFF" d="M19.78,39.805h1.971l2.511,13.524h-1.576l-0.518-3.088h-2.913l-0.532,3.088H17.27L19.78,39.805z
					 M19.511,48.715h2.379l-1.15-7.204L19.511,48.715z"/>
				<path fill="#FFFFFF" d="M26.997,39.786v4.873c0.269-0.428,0.562-0.7,0.881-0.815c0.217-0.083,0.446-0.125,0.688-0.125
					c1.308,0,1.962,1.036,1.962,3.107v3.098c0,0.524-0.021,1.011-0.062,1.458c-0.134,1.445-0.772,2.158-1.916,2.139
					c-0.598,0-1.115-0.329-1.554-0.988v0.796h-1.406V39.786H26.997z M26.997,49.934c-0.005,0.371,0.019,0.719,0.07,1.045
					c0.025,0.237,0.087,0.448,0.185,0.633c0.176,0.396,0.464,0.591,0.866,0.585c0.603-0.006,0.927-0.396,0.974-1.17
					c0.021-0.262,0.03-0.629,0.03-1.103v-2.973c-0.016-1.253-0.365-1.89-1.051-1.909c-0.412-0.006-0.698,0.182-0.857,0.566
					c-0.134,0.3-0.206,0.834-0.217,1.602V49.934z"/>
				<path fill="#FFFFFF" d="M33.418,39.786v4.873c0.269-0.428,0.562-0.7,0.881-0.815c0.217-0.083,0.446-0.125,0.688-0.125
					c1.308,0,1.962,1.036,1.962,3.107v3.098c0,0.524-0.021,1.011-0.062,1.458c-0.134,1.445-0.772,2.158-1.916,2.139
					c-0.598,0-1.115-0.329-1.554-0.988v0.796h-1.406V39.786H33.418z M33.418,49.934c-0.005,0.371,0.019,0.719,0.07,1.045
					c0.025,0.237,0.087,0.448,0.185,0.633c0.176,0.396,0.464,0.591,0.866,0.585c0.603-0.006,0.927-0.396,0.974-1.17
					c0.021-0.262,0.03-0.629,0.03-1.103v-2.973c-0.016-1.253-0.365-1.89-1.051-1.909c-0.412-0.006-0.698,0.182-0.857,0.566
					c-0.134,0.3-0.206,0.834-0.217,1.602V49.934z"/>
				<path fill="#FFFFFF" d="M39.924,43.91v1.16c0.217-0.466,0.469-0.799,0.758-0.998c0.19-0.134,0.376-0.227,0.556-0.278
					l0.448-0.077v1.727l-0.471,0.057c-0.505,0.077-0.853,0.339-1.043,0.787c-0.165,0.416-0.248,1.03-0.248,1.842v5.199h-1.406V43.91
					H39.924z"/>
				<path fill="#FFFFFF" d="M43.779,50.25c-0.005,0.64,0.036,1.087,0.124,1.343c0.134,0.39,0.438,0.592,0.912,0.604
					c0.628,0,0.981-0.358,1.059-1.074l0.03-0.403v-0.221h1.406v0.221l-0.022,0.652c-0.114,1.438-0.945,2.155-2.496,2.148
					c-0.36,0.006-0.693-0.045-0.997-0.153c-0.401-0.128-0.716-0.375-0.942-0.739c-0.309-0.46-0.469-1.282-0.479-2.465v-2.667
					c-0.005-1.317,0.142-2.235,0.44-2.752c0.397-0.685,1.085-1.026,2.063-1.026c1.504,0.019,2.305,0.806,2.403,2.359
					c0.021,0.301,0.03,0.649,0.03,1.045v2.11h-3.531V50.25z M43.779,47.91h2.125v-1.084c-0.005-1.17-0.357-1.765-1.059-1.784
					c-0.448,0.013-0.754,0.246-0.919,0.7c-0.098,0.262-0.147,0.729-0.147,1.4V47.91z"/>
				<path fill="#FFFFFF" d="M49.482,43.91l1.19,7.692l1.182-7.692h1.445l-1.73,9.419h-1.801l-1.73-9.419H49.482z"/>
				<path fill="#FFFFFF" d="M55.949,39.786v1.765h-1.515v-1.765H55.949z M54.488,43.91h1.406v9.419h-1.406V43.91z"/>
				<path fill="#FFFFFF" d="M57.649,45.56c0.057-0.371,0.195-0.705,0.414-1.002c0.219-0.297,0.478-0.503,0.776-0.619
					c0.355-0.14,0.727-0.214,1.112-0.22c0.448,0,0.855,0.077,1.221,0.23c0.459,0.186,0.794,0.595,1.005,1.228
					c0.108,0.333,0.162,0.924,0.162,1.774v6.378h-1.406v-1.017c-0.258,0.479-0.494,0.79-0.711,0.93
					c-0.278,0.192-0.61,0.285-0.996,0.278c-0.284,0.006-0.536-0.045-0.758-0.153c-0.721-0.307-1.076-1.138-1.066-2.494
					c0-0.569,0.047-1.081,0.14-1.535c0.154-0.787,0.639-1.311,1.452-1.573c0.324-0.108,0.659-0.179,1.005-0.211l0.935-0.038v-1.103
					c-0.011-0.934-0.324-1.391-0.942-1.372c-0.376,0.006-0.645,0.157-0.804,0.451c-0.113,0.211-0.186,0.575-0.217,1.093h-1.406
					C57.569,46.189,57.598,45.848,57.649,45.56z M60.933,48.84h-0.409c-1.164,0.07-1.736,0.729-1.716,1.976
					c-0.016,0.915,0.273,1.375,0.865,1.381c0.5,0.013,0.863-0.31,1.09-0.969c0.088-0.25,0.139-0.508,0.154-0.777l0.016-0.748V48.84z
					"/>
				<path fill="#FFFFFF" d="M64.588,43.91v-1.688l1.406-0.787v2.475h1.144v1.323h-1.144v5.535l0.008,0.624
					c0.015,0.499,0.27,0.761,0.765,0.787l0.371,0.019v1.199l-0.464,0.086c-0.176,0.032-0.354,0.045-0.533,0.039
					c-0.963,0-1.474-0.479-1.53-1.439l-0.022-1.036v-5.813h-0.997V43.91H64.588z"/>
				<path fill="#FFFFFF" d="M69.748,50.25c-0.005,0.64,0.036,1.087,0.124,1.343c0.134,0.39,0.438,0.592,0.912,0.604
					c0.628,0,0.981-0.358,1.059-1.074l0.03-0.403v-0.221h1.406v0.221l-0.022,0.652c-0.114,1.438-0.945,2.155-2.496,2.148
					c-0.36,0.006-0.693-0.045-0.997-0.153c-0.401-0.128-0.716-0.375-0.942-0.739c-0.309-0.46-0.469-1.282-0.479-2.465v-2.667
					c-0.005-1.317,0.142-2.235,0.44-2.752c0.397-0.685,1.085-1.026,2.063-1.026c1.504,0.019,2.305,0.806,2.403,2.359
					c0.021,0.301,0.03,0.649,0.03,1.045v2.11h-3.531V50.25z M69.748,47.91h2.125v-1.084c-0.005-1.17-0.357-1.765-1.059-1.784
					c-0.448,0.013-0.754,0.246-0.919,0.7c-0.098,0.262-0.147,0.729-0.147,1.4V47.91z"/>
				<path fill="#FFFFFF" d="M79.562,39.786v13.543h-1.406v-0.863c-0.521,0.716-1.063,1.068-1.63,1.055
					c-0.459,0.006-0.85-0.155-1.171-0.484c-0.322-0.329-0.526-0.769-0.614-1.319c-0.077-0.435-0.116-0.908-0.116-1.42v-3.136
					c-0.016-2.302,0.646-3.45,1.986-3.443c0.494,0.006,0.891,0.157,1.189,0.451c0.093,0.096,0.211,0.23,0.355,0.403v-4.786H79.562z
					 M76.03,50.001c-0.005,0.46,0.005,0.818,0.031,1.074c0.046,0.761,0.363,1.135,0.95,1.122c0.34,0,0.605-0.147,0.796-0.441
					c0.227-0.352,0.343-1.061,0.348-2.129v-2.752c0-0.333-0.023-0.636-0.069-0.912c-0.047-0.275-0.147-0.495-0.302-0.662
					c-0.165-0.166-0.376-0.252-0.634-0.259c-0.659,0.006-1.02,0.463-1.081,1.372c-0.031,0.313-0.044,0.674-0.039,1.083V50.001z"/>
				<path fill="#FFFFFF" d="M87.172,39.805c0.557,0.006,0.994,0.029,1.313,0.067c0.464,0.051,0.868,0.243,1.214,0.576
					c0.612,0.601,0.916,1.583,0.911,2.945c-0.01,2.647-0.958,3.968-2.843,3.961h-1.445v5.976h-1.499V39.805H87.172z M86.322,41.33
					v4.499h1.221c0.634-0.006,1.063-0.208,1.29-0.604c0.181-0.313,0.273-0.892,0.278-1.736c0-0.78-0.139-1.333-0.417-1.659
					s-0.736-0.493-1.375-0.499H86.322z"/>
				<path fill="#FFFFFF" d="M93.585,39.805v13.524h-1.499V39.805H93.585z"/>
			</g>
		</g>
	</g>
</g>
</svg>
