<?xml version="1.0" encoding="utf-8"?>
<!-- Generator: Adobe Illustrator 17.0.0, SVG Export Plug-In . SVG Version: 6.00 Build 0)  -->
<!DOCTYPE svg PUBLIC "-//W3C//DTD SVG 1.1//EN" "http://www.w3.org/Graphics/SVG/1.1/DTD/svg11.dtd">
<svg version="1.1" id="Layer_1" xmlns="http://www.w3.org/2000/svg" xmlns:xlink="http://www.w3.org/1999/xlink" x="0px" y="0px"
	 width="105.913px" height="92.143px" viewBox="0 0 105.913 92.143" enable-background="new 0 0 105.913 92.143"
	 xml:space="preserve">
<g>
	
		<radialGradient id="SVGID_2_" cx="-352.1872" cy="98.3936" r="42.6239" gradientTransform="matrix(1.2424 0 0 1.0809 490.5141 -60.2823)" gradientUnits="userSpaceOnUse">
		<stop  offset="0" style="stop-color:#022538"/>
		<stop  offset="0.3137" style="stop-color:#02263A"/>
		<stop  offset="0.4267" style="stop-color:#022941"/>
		<stop  offset="0.5073" style="stop-color:#022E4C"/>
		<stop  offset="0.5725" style="stop-color:#02365D"/>
		<stop  offset="0.6283" style="stop-color:#014073"/>
		<stop  offset="0.6777" style="stop-color:#014D8F"/>
		<stop  offset="0.7224" style="stop-color:#015BAF"/>
		<stop  offset="0.7621" style="stop-color:#006CD3"/>
		<stop  offset="0.7988" style="stop-color:#007FFC"/>
		<stop  offset="0.801" style="stop-color:#0080FF"/>
		<stop  offset="0.8223" style="stop-color:#2694F9;stop-opacity:0.893"/>
		<stop  offset="0.8472" style="stop-color:#4BA8F2;stop-opacity:0.7679"/>
		<stop  offset="0.8733" style="stop-color:#6AB8ED;stop-opacity:0.6367"/>
		<stop  offset="0.9005" style="stop-color:#82C4E9;stop-opacity:0.5"/>
		<stop  offset="0.9293" style="stop-color:#93CDE6;stop-opacity:0.3552"/>
		<stop  offset="0.9608" style="stop-color:#9DD2E5;stop-opacity:0.197"/>
		<stop  offset="1" style="stop-color:#A0D4E4;stop-opacity:0"/>
	</radialGradient>
	<ellipse fill="url(#SVGID_2_)" cx="52.957" cy="46.071" rx="52.957" ry="46.071"/>
	<g>
		<g>
			<g>
				<g>
					<path fill="#FFFFFF" d="M41.379,24.326v-1.042h2.228v4.6l-0.536,0.197c-0.188,0.061-0.395,0.109-0.619,0.144
						c-0.339,0.061-0.666,0.089-0.98,0.085c-0.827,0-1.416-0.229-1.767-0.688c-0.308-0.402-0.462-1.127-0.466-2.175v-3.342
						c0.004-0.948,0.063-1.597,0.179-1.946c0.217-0.651,0.616-1.059,1.198-1.225c0.273-0.079,0.566-0.12,0.877-0.125
						c0.694,0.013,1.217,0.204,1.569,0.573s0.534,0.982,0.545,1.838v0.302h-1.052v-0.21c0-0.144-0.011-0.295-0.032-0.452
						c-0.087-0.672-0.419-1.009-0.997-1.009c-0.524,0.013-0.869,0.214-1.035,0.603c-0.102,0.214-0.159,0.455-0.174,0.721
						c-0.021,0.24-0.031,0.5-0.027,0.78v3.276c-0.004,0.708,0.049,1.19,0.158,1.448c0.166,0.406,0.516,0.603,1.051,0.59
						c0.199,0.004,0.398-0.024,0.602-0.085l0.455-0.164v-2.693H41.379z"/>
					<path fill="#FFFFFF" d="M45.634,21.744v0.793c0.151-0.319,0.329-0.546,0.53-0.682c0.135-0.092,0.264-0.155,0.391-0.19
						l0.314-0.052v1.179l-0.33,0.04c-0.354,0.052-0.599,0.231-0.732,0.537c-0.115,0.284-0.173,0.704-0.173,1.258v3.552h-0.986
						v-6.435H45.634z"/>
					<path fill="#FFFFFF" d="M47.227,24.201c0.004-0.668,0.061-1.168,0.168-1.501c0.17-0.498,0.475-0.823,0.916-0.976
						c0.206-0.074,0.423-0.111,0.65-0.111c0.225,0,0.441,0.037,0.65,0.111c0.274,0.096,0.491,0.255,0.65,0.479
						c0.278,0.389,0.421,1.055,0.428,1.999v1.612c0.004,0.852-0.104,1.455-0.324,1.809c-0.282,0.463-0.743,0.692-1.383,0.688
						c-1.016,0.013-1.584-0.511-1.707-1.573c-0.036-0.279-0.053-0.587-0.049-0.924V24.201z M48.213,25.813l0.017,0.623
						c0.032,0.651,0.28,0.974,0.742,0.97c0.321-0.008,0.534-0.196,0.64-0.563c0.062-0.214,0.092-0.557,0.092-1.029v-1.717
						c0-1.062-0.249-1.588-0.748-1.579c-0.447-0.009-0.688,0.314-0.721,0.97l-0.021,0.609V25.813z"/>
					<path fill="#FFFFFF" d="M52.495,21.744v4.338c0.003,0.459,0.024,0.754,0.065,0.885c0.098,0.302,0.292,0.448,0.584,0.439
						c0.192,0.004,0.354-0.052,0.482-0.17c0.163-0.135,0.268-0.352,0.314-0.648c0.029-0.175,0.044-0.367,0.044-0.577v-4.266h0.986
						v6.435h-0.986v-0.57l-0.185,0.262c-0.246,0.293-0.576,0.439-0.992,0.439c-0.367,0-0.679-0.129-0.932-0.386
						c-0.234-0.24-0.355-0.605-0.363-1.095l-0.006-0.694v-4.391H52.495z"/>
					<path fill="#FFFFFF" d="M55.79,21.744h0.987v0.642c0.122-0.188,0.23-0.328,0.324-0.419c0.229-0.231,0.519-0.349,0.873-0.354
						c0.683,0,1.091,0.441,1.225,1.324c0.036,0.253,0.055,0.507,0.055,0.76v1.999c0,0.38-0.017,0.743-0.049,1.087
						c-0.091,1.009-0.531,1.518-1.322,1.527c-0.352-0.004-0.627-0.109-0.83-0.314c-0.083-0.07-0.175-0.179-0.275-0.328v2.896H55.79
						V21.744z M56.778,25.696c-0.004,0.262,0.006,0.52,0.031,0.773c0.019,0.223,0.057,0.398,0.114,0.524
						c0.112,0.284,0.319,0.421,0.624,0.413c0.422-0.008,0.653-0.332,0.693-0.97c0.018-0.249,0.027-0.504,0.027-0.767v-1.743
						l-0.017-0.524c-0.054-0.598-0.282-0.893-0.683-0.884c-0.301-0.004-0.514,0.159-0.641,0.491
						c-0.068,0.17-0.111,0.354-0.129,0.551c-0.019,0.196-0.025,0.415-0.021,0.655V25.696z"/>
					<path fill="#FFFFFF" d="M62.414,27.013l0.585-0.852l0.77-1.114c1.063-1.616,1.597-2.929,1.604-3.938
						c-0.004-0.826-0.338-1.245-1.003-1.258c-0.578,0.013-0.878,0.319-0.899,0.917l-0.006,0.361v0.288h-0.986v-0.4
						c0.015-1.123,0.374-1.806,1.078-2.051c0.261-0.092,0.535-0.138,0.824-0.138c1.305,0.004,1.964,0.743,1.979,2.215
						c0.004,0.804-0.26,1.706-0.791,2.707c-0.301,0.563-0.781,1.339-1.441,2.326l-0.738,1.081h3.057v1.022h-4.031V27.013z"/>
					<path fill="#FFFFFF" d="M67.368,21.744h1.166v1.409h-1.166V21.744z M68.534,26.77v1.409h-1.166V26.77H68.534z"/>
					<path fill="#FFFFFF" d="M32.582,33.998c0.391,0.004,0.697,0.02,0.922,0.046c0.324,0.035,0.608,0.166,0.851,0.393
						c0.43,0.411,0.644,1.082,0.64,2.012c-0.008,1.809-0.672,2.711-1.994,2.707h-1.014v4.083h-1.052v-9.24H32.582z M31.987,35.04
						v3.073h0.855c0.445-0.004,0.746-0.142,0.906-0.413c0.126-0.214,0.191-0.609,0.194-1.186c0-0.533-0.097-0.911-0.292-1.134
						s-0.518-0.336-0.965-0.341H31.987z"/>
					<path fill="#FFFFFF" d="M35.184,37.93c0.04-0.253,0.137-0.481,0.291-0.685c0.152-0.203,0.334-0.344,0.544-0.423
						c0.249-0.096,0.509-0.146,0.78-0.15c0.314,0,0.6,0.052,0.856,0.157c0.321,0.126,0.556,0.406,0.704,0.839
						c0.076,0.227,0.114,0.631,0.114,1.212v4.358h-0.986v-0.695c-0.181,0.328-0.347,0.54-0.499,0.636
						c-0.195,0.131-0.428,0.194-0.699,0.19c-0.198,0.004-0.375-0.03-0.531-0.104c-0.506-0.21-0.754-0.778-0.747-1.704
						c0-0.389,0.032-0.738,0.097-1.048c0.109-0.537,0.449-0.896,1.02-1.075c0.228-0.074,0.463-0.122,0.705-0.144l0.655-0.026v-0.753
						c-0.007-0.638-0.228-0.95-0.661-0.937c-0.264,0.004-0.451,0.107-0.563,0.308c-0.079,0.145-0.13,0.394-0.151,0.747h-0.986
						C35.128,38.361,35.149,38.127,35.184,37.93z M37.488,40.171h-0.287c-0.817,0.048-1.218,0.498-1.203,1.35
						c-0.011,0.625,0.191,0.939,0.606,0.943c0.351,0.009,0.605-0.211,0.765-0.662c0.062-0.17,0.098-0.347,0.108-0.531l0.011-0.511
						V40.171z"/>
					<path fill="#FFFFFF" d="M39.828,36.803V35.65l0.986-0.537v1.69h0.803v0.904h-0.803v3.781l0.006,0.426
						c0.012,0.341,0.189,0.52,0.537,0.538l0.26,0.013v0.819l-0.325,0.059c-0.122,0.021-0.247,0.03-0.374,0.026
						c-0.676,0-1.033-0.328-1.072-0.983l-0.018-0.708v-3.971H39.13v-0.904H39.828z"/>
					<path fill="#FFFFFF" d="M43.373,33.985v1.206h-1.063v-1.206H43.373z M42.35,36.803h0.986v6.435H42.35V36.803z"/>
					<path fill="#FFFFFF" d="M45.054,41.135c-0.004,0.437,0.024,0.743,0.087,0.917c0.094,0.267,0.307,0.404,0.639,0.413
						c0.441,0,0.689-0.245,0.743-0.734l0.021-0.275v-0.151h0.986v0.151l-0.017,0.445c-0.079,0.983-0.662,1.472-1.75,1.468
						c-0.253,0.004-0.486-0.03-0.699-0.104c-0.281-0.087-0.502-0.256-0.661-0.505c-0.217-0.314-0.329-0.875-0.336-1.684v-1.822
						c-0.004-0.9,0.099-1.527,0.309-1.88c0.278-0.468,0.761-0.701,1.447-0.701c1.055,0.013,1.616,0.55,1.686,1.612
						c0.015,0.206,0.021,0.443,0.021,0.714v1.441h-2.477V41.135z M45.054,39.535h1.49v-0.74c-0.003-0.799-0.251-1.206-0.743-1.219
						c-0.313,0.009-0.529,0.168-0.645,0.478c-0.068,0.179-0.103,0.498-0.103,0.957V39.535z"/>
					<path fill="#FFFFFF" d="M48.241,36.803h0.986v0.563c0.289-0.463,0.691-0.694,1.209-0.694c0.209,0,0.406,0.046,0.591,0.138
						c0.419,0.205,0.642,0.614,0.667,1.225l0.01,0.826v4.377h-0.986v-4.056l-0.01-0.649c-0.019-0.638-0.248-0.957-0.689-0.957
						c-0.332,0.009-0.553,0.17-0.66,0.485c-0.063,0.175-0.1,0.364-0.114,0.567s-0.021,0.418-0.017,0.646v3.964h-0.986V36.803z"/>
					<path fill="#FFFFFF" d="M53.065,36.803V35.65l0.986-0.537v1.69h0.802v0.904h-0.802v3.781l0.006,0.426
						c0.01,0.341,0.189,0.52,0.535,0.538l0.261,0.013v0.819l-0.325,0.059c-0.123,0.021-0.248,0.03-0.374,0.026
						c-0.675,0-1.033-0.328-1.073-0.983l-0.016-0.708v-3.971h-0.699v-0.904H53.065z"/>
					<path fill="#FFFFFF" d="M56.43,41.279v0.236l0.017,0.262c0.062,0.472,0.278,0.701,0.65,0.688
						c0.44-0.004,0.669-0.262,0.683-0.773c0-0.175-0.035-0.33-0.107-0.465c-0.098-0.166-0.221-0.323-0.369-0.472l-0.493-0.446
						l-0.521-0.472c-0.234-0.223-0.404-0.433-0.51-0.629c-0.129-0.24-0.193-0.546-0.189-0.917c0-1.075,0.519-1.614,1.556-1.619
						c0.271,0,0.522,0.043,0.753,0.131c0.455,0.17,0.709,0.557,0.76,1.16l0.016,0.491v0.21h-0.986v-0.204v-0.236
						c-0.032-0.423-0.223-0.64-0.568-0.648c-0.355-0.004-0.535,0.218-0.543,0.668c0,0.166,0.031,0.304,0.093,0.413
						c0.079,0.144,0.208,0.297,0.385,0.459l0.612,0.543c0.538,0.459,0.867,0.85,0.986,1.173c0.072,0.214,0.11,0.458,0.113,0.734
						c-0.007,0.581-0.166,1.033-0.477,1.356c-0.285,0.292-0.678,0.441-1.176,0.445c-1.008-0.004-1.559-0.515-1.653-1.533
						l-0.017-0.328v-0.229H56.43z"/>
					<path fill="#FFFFFF" d="M62.436,36.803l0.824,5.577l0.791-5.577h1.377l0.877,5.603l0.824-5.603h0.91l-1.089,6.435h-1.376
						l-0.867-5.445l-0.803,5.445h-1.377l-1.089-6.435H62.436z"/>
					<path fill="#FFFFFF" d="M69.655,33.985v1.206h-1.063v-1.206H69.655z M68.631,36.803h0.986v6.435h-0.986V36.803z"/>
					<path fill="#FFFFFF" d="M70.989,36.803V35.65l0.986-0.537v1.69h0.802v0.904h-0.802v3.781l0.006,0.426
						c0.01,0.341,0.189,0.52,0.535,0.538l0.261,0.013v0.819l-0.325,0.059c-0.123,0.021-0.248,0.03-0.374,0.026
						c-0.675,0-1.033-0.328-1.073-0.983l-0.016-0.708v-3.971h-0.699v-0.904H70.989z"/>
					<path fill="#FFFFFF" d="M73.498,33.985h0.986v3.381l0.189-0.223c0.293-0.319,0.627-0.476,1.002-0.472
						c0.811,0.013,1.232,0.496,1.27,1.448l0.016,0.773v4.345h-0.986v-4.076l-0.006-0.478c-0.01-0.35-0.053-0.605-0.125-0.767
						c-0.101-0.223-0.285-0.336-0.553-0.341c-0.354,0-0.584,0.166-0.693,0.498c-0.061,0.175-0.096,0.354-0.103,0.537l-0.011,0.524
						v4.102h-0.986V33.985z"/>
					<path fill="#FFFFFF" d="M18.575,49.057h1.052v8.198h2.228v1.042h-3.279V49.057z"/>
					<path fill="#FFFFFF" d="M22.672,49.057h1.875c0.311,0,0.605,0.026,0.884,0.079c0.317,0.057,0.599,0.186,0.841,0.387
						c0.418,0.341,0.662,0.817,0.73,1.429c0.033,0.301,0.051,0.64,0.055,1.016v3.401c-0.011,1.14-0.176,1.907-0.493,2.3
						c-0.242,0.301-0.533,0.494-0.872,0.577c-0.145,0.035-0.479,0.052-1.004,0.052h-2.016V49.057z M23.724,50.099v7.156h0.97
						c0.582,0,0.954-0.181,1.117-0.544c0.133-0.306,0.198-0.81,0.195-1.514v-3.132c0-0.703-0.071-1.186-0.212-1.448
						c-0.185-0.336-0.552-0.509-1.101-0.518H23.724z"/>
					<path fill="#FFFFFF" d="M28.162,49.057h1.052v8.198h2.228v1.042h-3.279V49.057z"/>
					<path fill="#FFFFFF" d="M32.666,54.45v1.022h-1.484V54.45H32.666z"/>
					<path fill="#FFFFFF" d="M36.758,51.501l-0.005-0.433c-0.025-0.738-0.321-1.105-0.889-1.101
						c-0.503,0.004-0.829,0.199-0.981,0.583c-0.083,0.188-0.128,0.376-0.135,0.563l-0.012,0.76v3.644
						c0.004,0.66,0.047,1.085,0.131,1.278c0.174,0.393,0.473,0.59,0.899,0.59c0.56-0.004,0.876-0.397,0.948-1.18l0.043-0.596v-0.315
						h1.052v0.321l-0.011,0.577c-0.032,0.69-0.191,1.219-0.477,1.586c-0.174,0.227-0.378,0.387-0.613,0.478
						c-0.277,0.114-0.581,0.17-0.91,0.17c-0.281,0.004-0.551-0.033-0.807-0.111c-0.867-0.24-1.303-1.103-1.307-2.588v-3.683
						c-0.004-0.397,0.013-0.769,0.049-1.114c0.036-0.423,0.13-0.773,0.281-1.048c0.336-0.625,0.938-0.943,1.805-0.957
						c1.219,0.013,1.872,0.587,1.963,1.723c0.018,0.214,0.026,0.457,0.026,0.728v0.36h-1.052V51.501z"/>
					<path fill="#FFFFFF" d="M49.615,53.546v0.609l-6.878,2.517V55.82l5.23-1.973l-5.23-2.005v-0.904L49.615,53.546z M49.615,57.412
						v0.885h-6.878v-0.885H49.615z"/>
					<path fill="#FFFFFF" d="M52.563,50.276l0.472-0.347c0.145-0.114,0.325-0.284,0.542-0.511l0.33-0.341h0.818v9.22h-0.986v-7.792
						l-0.363,0.347c-0.151,0.145-0.297,0.256-0.438,0.334l-0.374,0.184V50.276z"/>
					<path fill="#FFFFFF" d="M59.43,54.601c-0.303,0.218-0.648,0.328-1.035,0.328c-0.249,0.009-0.479-0.037-0.688-0.138
						c-0.488-0.205-0.781-0.67-0.879-1.396c-0.064-0.423-0.096-0.865-0.092-1.323c-0.008-1.044,0.111-1.787,0.357-2.228
						c0.336-0.603,0.895-0.902,1.675-0.898c0.249,0,0.489,0.037,0.721,0.111c0.289,0.096,0.534,0.26,0.737,0.492
						c0.174,0.196,0.293,0.408,0.357,0.635c0.08,0.267,0.129,0.577,0.146,0.931c0.033,0.599,0.049,1.25,0.049,1.953
						c0,0.922-0.021,1.811-0.064,2.667c-0.021,0.437-0.07,0.834-0.146,1.192c-0.059,0.284-0.154,0.522-0.287,0.714
						c-0.348,0.524-0.896,0.786-1.648,0.786c-0.347,0.004-0.655-0.055-0.926-0.177c-0.305-0.122-0.528-0.345-0.673-0.668
						c-0.138-0.275-0.217-0.59-0.238-0.943c-0.019-0.179-0.025-0.369-0.021-0.57v-0.295h0.986v0.289
						c-0.011,0.887,0.306,1.334,0.948,1.343c0.448-0.004,0.748-0.223,0.9-0.655c0.078-0.231,0.133-0.673,0.162-1.324l0.021-1.127
						L59.43,54.601z M59.809,51.901c-0.003-0.612-0.052-1.053-0.146-1.324c-0.145-0.406-0.448-0.609-0.911-0.609
						c-0.44,0.009-0.732,0.229-0.877,0.662c-0.102,0.297-0.152,0.734-0.152,1.311c-0.004,0.306,0.013,0.596,0.049,0.872
						c0.076,0.729,0.398,1.094,0.971,1.094C59.465,53.919,59.821,53.251,59.809,51.901z"/>
					<path fill="#FFFFFF" d="M65.668,55.413c0,0.437-0.021,0.83-0.064,1.18c-0.08,0.625-0.305,1.083-0.673,1.376
						c-0.394,0.31-0.821,0.463-1.284,0.458c-0.289,0.004-0.567-0.057-0.834-0.183c-0.666-0.289-1.041-0.839-1.128-1.651
						c-0.044-0.336-0.063-0.729-0.06-1.18v-3.512c0-0.463,0.018-0.872,0.055-1.226c0.05-0.59,0.275-1.033,0.677-1.33
						c0.351-0.267,0.78-0.4,1.29-0.4c0.773,0,1.33,0.267,1.67,0.799c0.23,0.363,0.348,1.082,0.352,2.156V55.413z M64.682,51.894
						c0-0.253-0.008-0.502-0.021-0.747c-0.037-0.791-0.379-1.184-1.029-1.179c-0.467,0-0.769,0.205-0.906,0.616
						c-0.079,0.24-0.117,0.677-0.113,1.311v3.525l0.033,0.655c0.054,0.887,0.388,1.331,1.002,1.331c0.578,0,0.912-0.443,1.002-1.331
						c0.022-0.236,0.033-0.454,0.033-0.655V51.894z"/>
					<path fill="#FFFFFF" d="M68.622,51.862h0.987v0.557l0.238-0.289c0.104-0.122,0.225-0.214,0.363-0.275
						c0.173-0.079,0.36-0.12,0.563-0.125c0.574,0,0.973,0.273,1.193,0.819c0.346-0.533,0.762-0.806,1.246-0.819
						c0.451,0.004,0.799,0.159,1.041,0.465c0.188,0.236,0.289,0.668,0.303,1.297l0.006,0.78v4.023h-0.986v-3.964l-0.006-0.806
						c-0.008-0.599-0.236-0.896-0.688-0.891c-0.355,0-0.586,0.172-0.694,0.518c-0.072,0.206-0.106,0.605-0.103,1.199v3.945H71.1
						v-3.958l-0.006-0.793c-0.018-0.603-0.253-0.906-0.705-0.911c-0.303-0.004-0.511,0.133-0.623,0.413
						c-0.072,0.17-0.115,0.345-0.13,0.524c-0.021,0.223-0.03,0.483-0.026,0.78v3.945h-0.987V51.862z"/>
					<path fill="#FFFFFF" d="M77.489,57.917c-0.217,0.249-0.513,0.375-0.889,0.38c-0.773,0-1.208-0.496-1.306-1.487
						c-0.036-0.306-0.052-0.643-0.049-1.009v-1.854l0.005-0.649c0.016-0.502,0.142-0.882,0.38-1.14
						c0.253-0.275,0.575-0.417,0.965-0.426c0.361-0.004,0.676,0.126,0.942,0.393l0.186,0.236v-0.498h0.986v5.878l-0.012,0.826
						c-0.007,0.411-0.025,0.71-0.055,0.898c-0.039,0.297-0.149,0.561-0.33,0.793c-0.303,0.384-0.757,0.579-1.36,0.583
						c-1.052-0.009-1.573-0.627-1.565-1.854v-0.216h0.85v0.256c-0.007,0.625,0.225,0.928,0.694,0.911
						c0.321,0,0.538-0.096,0.65-0.288c0.094-0.157,0.142-0.441,0.142-0.852v-1.18L77.489,57.917z M76.232,55.781l0.011,0.563
						c0.004,0.708,0.231,1.057,0.684,1.048c0.354,0,0.588-0.17,0.704-0.511c0.036-0.118,0.062-0.279,0.075-0.485l0.018-0.59v-1.861
						c0.006-0.546-0.086-0.926-0.277-1.14c-0.111-0.109-0.268-0.166-0.466-0.17c-0.499,0-0.748,0.441-0.748,1.324V55.781z"/>
					<path fill="#FFFFFF" d="M80.465,49.044h0.678l-1.106,10.262h-0.672L80.465,49.044z"/>
					<path fill="#FFFFFF" d="M85.25,49.044v9.253h-0.986v-0.59c-0.365,0.489-0.746,0.729-1.144,0.721
						c-0.321,0.004-0.595-0.106-0.821-0.331c-0.226-0.225-0.369-0.525-0.431-0.901c-0.054-0.297-0.081-0.62-0.081-0.97v-2.143
						c-0.012-1.573,0.453-2.357,1.393-2.353c0.348,0.004,0.625,0.107,0.834,0.308c0.066,0.066,0.148,0.158,0.25,0.275v-3.27H85.25z
						 M82.774,56.023c-0.004,0.314,0.004,0.559,0.021,0.734c0.033,0.52,0.255,0.775,0.666,0.767c0.239,0,0.426-0.1,0.559-0.301
						c0.159-0.24,0.24-0.725,0.244-1.455v-1.881c0-0.227-0.016-0.435-0.049-0.623c-0.032-0.188-0.104-0.338-0.211-0.452
						c-0.116-0.113-0.264-0.172-0.445-0.177c-0.462,0.004-0.715,0.317-0.758,0.937c-0.021,0.214-0.031,0.461-0.027,0.74V56.023z"/>
					<path fill="#FFFFFF" d="M86.258,49.057h1.052v8.198h2.228v1.042h-3.279V49.057z"/>
					<path fill="#FFFFFF" d="M29.539,64.116l-0.238,1.278c-0.268,1.551-0.403,2.912-0.407,4.083
						c-0.003,1.075,0.098,2.226,0.304,3.454c0.062,0.384,0.176,0.954,0.342,1.71h-0.693l-0.342-1.402
						c-0.102-0.441-0.187-0.871-0.255-1.291c-0.079-0.441-0.138-0.872-0.174-1.291c-0.05-0.476-0.073-0.944-0.07-1.402
						c0.003-0.979,0.119-2.005,0.347-3.08l0.26-1.107l0.234-0.95H29.539z"/>
					<path fill="#FFFFFF" d="M38.828,68.605v0.609l-6.877,2.517v-0.852l5.229-1.973l-5.229-2.005v-0.904L38.828,68.605z
						 M38.828,72.471v0.885h-6.877v-0.885H38.828z"/>
					<path fill="#FFFFFF" d="M43.126,64.136h1.345v5.944h0.92v1.022h-0.92v2.254h-0.987v-2.254h-2.747v-0.996L43.126,64.136z
						 M41.614,70.079h1.87v-4.725L41.614,70.079z"/>
					<path fill="#FFFFFF" d="M47.256,71.947v1.409h-1.164v-1.409H47.256z"/>
					<path fill="#FFFFFF" d="M50.877,69.66c-0.304,0.218-0.648,0.328-1.035,0.328c-0.25,0.009-0.479-0.037-0.688-0.138
						c-0.487-0.205-0.78-0.67-0.878-1.396c-0.065-0.423-0.096-0.865-0.092-1.323c-0.008-1.044,0.111-1.787,0.357-2.228
						c0.336-0.603,0.895-0.902,1.674-0.898c0.25,0,0.49,0.037,0.721,0.111c0.289,0.096,0.535,0.26,0.738,0.492
						c0.173,0.196,0.292,0.408,0.357,0.635c0.079,0.267,0.128,0.577,0.146,0.931c0.032,0.599,0.049,1.25,0.049,1.953
						c0,0.922-0.021,1.811-0.065,2.667c-0.021,0.437-0.07,0.834-0.146,1.192c-0.058,0.284-0.153,0.522-0.287,0.714
						c-0.347,0.524-0.896,0.786-1.647,0.786c-0.348,0.004-0.656-0.055-0.927-0.177c-0.304-0.122-0.528-0.345-0.673-0.668
						c-0.137-0.275-0.217-0.59-0.238-0.943c-0.018-0.179-0.025-0.369-0.021-0.57v-0.295h0.986v0.289
						c-0.01,0.887,0.306,1.334,0.949,1.343c0.447-0.004,0.748-0.223,0.899-0.655c0.079-0.231,0.134-0.673,0.163-1.324l0.021-1.127
						L50.877,69.66z M51.256,66.96c-0.004-0.612-0.053-1.053-0.146-1.324c-0.145-0.406-0.447-0.609-0.91-0.609
						c-0.441,0.009-0.733,0.229-0.878,0.662c-0.101,0.297-0.151,0.734-0.151,1.311c-0.004,0.306,0.012,0.596,0.049,0.872
						c0.075,0.729,0.398,1.094,0.97,1.094C50.912,68.978,51.268,68.31,51.256,66.96z"/>
					<path fill="#FFFFFF" d="M55.175,66.921h0.987v0.557l0.238-0.289c0.104-0.122,0.225-0.214,0.363-0.275
						c0.173-0.079,0.36-0.12,0.563-0.125c0.574,0,0.973,0.273,1.193,0.819c0.346-0.533,0.762-0.806,1.246-0.819
						c0.451,0.004,0.799,0.159,1.041,0.465c0.188,0.236,0.289,0.668,0.303,1.297l0.006,0.78v4.023h-0.986v-3.964l-0.006-0.806
						c-0.008-0.599-0.236-0.896-0.688-0.891c-0.355,0-0.586,0.172-0.694,0.518c-0.072,0.206-0.106,0.605-0.103,1.199v3.945h-0.986
						v-3.958l-0.006-0.793c-0.018-0.603-0.253-0.906-0.705-0.911c-0.303-0.004-0.511,0.133-0.623,0.413
						c-0.072,0.17-0.115,0.345-0.13,0.524c-0.021,0.223-0.03,0.483-0.026,0.78v3.945h-0.987V66.921z"/>
					<path fill="#FFFFFF" d="M61.705,66.921h0.987v0.557l0.238-0.289c0.104-0.122,0.226-0.214,0.363-0.275
						c0.173-0.079,0.36-0.12,0.563-0.125c0.574,0,0.972,0.273,1.192,0.819c0.347-0.533,0.763-0.806,1.247-0.819
						c0.451,0.004,0.798,0.159,1.04,0.465c0.188,0.236,0.289,0.668,0.304,1.297l0.005,0.78v4.023H66.66v-3.964l-0.005-0.806
						c-0.008-0.599-0.237-0.896-0.688-0.891c-0.354,0-0.585,0.172-0.694,0.518c-0.072,0.206-0.105,0.605-0.103,1.199v3.945h-0.986
						v-3.958l-0.005-0.793c-0.019-0.603-0.254-0.906-0.705-0.911c-0.304-0.004-0.512,0.133-0.623,0.413
						c-0.072,0.17-0.115,0.345-0.131,0.524c-0.021,0.223-0.03,0.483-0.026,0.78v3.945h-0.987V66.921z"/>
					<path fill="#FFFFFF" d="M68.345,69.378c0.004-0.668,0.06-1.168,0.169-1.501c0.169-0.498,0.475-0.823,0.915-0.976
						c0.206-0.074,0.423-0.111,0.65-0.111c0.224,0,0.44,0.037,0.65,0.111c0.274,0.096,0.491,0.255,0.65,0.479
						c0.278,0.389,0.421,1.055,0.429,1.999v1.612c0.003,0.852-0.105,1.455-0.326,1.809c-0.281,0.463-0.742,0.692-1.381,0.688
						c-1.016,0.013-1.585-0.511-1.708-1.573c-0.036-0.279-0.052-0.587-0.049-0.924V69.378z M69.332,70.99l0.016,0.623
						c0.032,0.651,0.279,0.974,0.742,0.97c0.322-0.008,0.535-0.196,0.64-0.563c0.062-0.214,0.093-0.557,0.093-1.029v-1.717
						c0-1.062-0.25-1.588-0.748-1.579c-0.448-0.009-0.688,0.314-0.721,0.97l-0.021,0.609V70.99z"/>
					<path fill="#FFFFFF" d="M73.624,64.103v9.253h-0.986v-9.253H73.624z"/>
					<path fill="#FFFFFF" d="M75.375,64.103h0.678l-1.106,10.262h-0.672L75.375,64.103z"/>
					<path fill="#FFFFFF" d="M76.887,64.116h1.051v8.198h2.229v1.042h-3.279V64.116z"/>
					<path fill="#FFFFFF" d="M81.635,65.06l0.266,1.114c0.225,1.062,0.34,2.097,0.348,3.106c0,0.446-0.024,0.904-0.071,1.376
						c-0.04,0.419-0.097,0.85-0.173,1.291c-0.072,0.419-0.158,0.85-0.255,1.291l-0.342,1.402h-0.693
						c0.163-0.756,0.276-1.326,0.341-1.71c0.094-0.568,0.17-1.19,0.229-1.868c0.051-0.603,0.075-1.147,0.075-1.632
						c-0.007-1.167-0.143-2.512-0.406-4.037l-0.238-1.278h0.693L81.635,65.06z"/>
				</g>
			</g>
		</g>
	</g>
</g>
</svg>
