<?xml version="1.0" encoding="utf-8"?>
<!-- Generator: Adobe Illustrator 17.0.0, SVG Export Plug-In . SVG Version: 6.00 Build 0)  -->
<!DOCTYPE svg PUBLIC "-//W3C//DTD SVG 1.1//EN" "http://www.w3.org/Graphics/SVG/1.1/DTD/svg11.dtd">
<svg version="1.1" id="Layer_1" xmlns="http://www.w3.org/2000/svg" xmlns:xlink="http://www.w3.org/1999/xlink" x="0px" y="0px"
	 width="665.426px" height="16.283px" viewBox="0 0 665.426 16.283" enable-background="new 0 0 665.426 16.283"
	 xml:space="preserve">
<g>
	<path fill="#00435B" d="M354.737,7.009c0-0.532-0.031-1.079-0.078-1.595h1.486l0.031,1.517c0.282-1.095,1.22-1.454,1.877-1.548
		c0.438-0.063,0.766-0.047,1.017-0.031V6.79c-0.078-0.031-0.172-0.047-0.282-0.063c-0.109-0.016-0.25-0.016-0.422-0.016
		c-1.736,0-2.142,1.032-2.142,2.377v4.175h-1.486V7.009z M361.637,9.605c-0.031,1.626,0.641,2.831,2.252,2.831
		c0.954,0,1.72-0.5,1.845-1.626h1.47c-0.047,0.391-0.109,1.032-0.672,1.642c-0.344,0.391-1.126,1.048-2.706,1.048
		c-2.471,0-3.643-1.533-3.643-4.019c0-1.548,0.313-2.83,1.548-3.691c0.751-0.532,1.689-0.579,2.142-0.579
		c3.519,0,3.44,3.112,3.409,4.394H361.637z M365.781,8.573c0.016-0.751-0.125-2.314-1.939-2.314c-0.954,0-2.111,0.579-2.143,2.314
		H365.781z M374.887,1.989h1.47v10.024c0,0.172,0.031,0.844,0.062,1.251h-1.47l-0.031-1.251c-0.125,0.219-0.297,0.547-0.704,0.829
		c-0.641,0.438-1.408,0.579-1.939,0.579c-1.048,0-3.378-0.547-3.378-3.988c0-2.987,1.705-4.285,3.55-4.285
		c1.689,0,2.252,1.001,2.439,1.329V1.989z M374.34,7.04c-0.313-0.407-0.891-0.798-1.72-0.798c-2.158,0-2.158,2.612-2.158,3.143
		c0,1.392,0.36,3.003,2.158,3.003c2.314,0,2.314-2.549,2.314-3.159C374.934,8.088,374.668,7.462,374.34,7.04z M380.35,5.414v5.051
		c0,0.766,0.172,1.736,1.673,1.736c0.735,0,1.423-0.25,1.845-0.876c0.328-0.469,0.328-1.079,0.328-1.47V5.414h1.517v6.38
		c0,0.156,0.031,1.032,0.047,1.47h-1.533l-0.031-1.345c-0.282,0.547-0.813,1.423-2.502,1.423c-1.939,0-2.846-1.11-2.846-2.658v-5.27
		H380.35z M393.038,7.932c-0.031-0.36-0.141-1.642-1.564-1.642c-2.033,0-2.033,2.361-2.033,2.955c0,1.611,0.391,3.112,1.955,3.112
		c1.251,0,1.673-0.938,1.705-1.705h1.486c-0.094,1.533-1.235,2.815-3.175,2.815c-0.532,0-1.751-0.11-2.58-1.017
		c-0.469-0.547-0.938-1.376-0.938-3.002c0-3.269,2.002-4.238,3.566-4.238c0.516,0,1.689,0.109,2.408,0.97
		c0.579,0.672,0.626,1.314,0.657,1.752H393.038z M397.28,9.605c-0.031,1.626,0.641,2.831,2.252,2.831c0.954,0,1.72-0.5,1.845-1.626
		h1.47c-0.047,0.391-0.109,1.032-0.672,1.642c-0.344,0.391-1.126,1.048-2.706,1.048c-2.471,0-3.644-1.533-3.644-4.019
		c0-1.548,0.313-2.83,1.548-3.691c0.751-0.532,1.689-0.579,2.143-0.579c3.519,0,3.44,3.112,3.409,4.394H397.28z M401.424,8.573
		c0.016-0.751-0.125-2.314-1.939-2.314c-0.954,0-2.111,0.579-2.142,2.314H401.424z M410.531,1.989h1.47v10.024
		c0,0.172,0.031,0.844,0.062,1.251h-1.47l-0.031-1.251c-0.125,0.219-0.297,0.547-0.704,0.829c-0.641,0.438-1.408,0.579-1.939,0.579
		c-1.048,0-3.378-0.547-3.378-3.988c0-2.987,1.705-4.285,3.55-4.285c1.689,0,2.252,1.001,2.44,1.329V1.989z M409.983,7.04
		c-0.313-0.407-0.891-0.798-1.72-0.798c-2.158,0-2.158,2.612-2.158,3.143c0,1.392,0.36,3.003,2.158,3.003
		c2.314,0,2.314-2.549,2.314-3.159C410.578,8.088,410.312,7.462,409.983,7.04z M420.625,15.188c-0.844-2.08-1.861-4.676-1.861-6.959
		c0-1.235,0.281-2.455,0.641-3.644c0.438-1.408,0.844-2.408,1.11-3.081h1.032c-0.25,0.766-0.594,1.83-0.923,3.315
		c-0.328,1.439-0.438,2.408-0.438,3.378c0,2.221,0.547,4.019,1.454,6.99H420.625z M428.681,7.932
		c-0.031-0.36-0.141-1.642-1.564-1.642c-2.033,0-2.033,2.361-2.033,2.955c0,1.611,0.391,3.112,1.955,3.112
		c1.251,0,1.673-0.938,1.705-1.705h1.486c-0.094,1.533-1.235,2.815-3.175,2.815c-0.532,0-1.751-0.11-2.58-1.017
		c-0.469-0.547-0.938-1.376-0.938-3.002c0-3.269,2.002-4.238,3.566-4.238c0.516,0,1.689,0.109,2.408,0.97
		c0.579,0.672,0.625,1.314,0.657,1.752H428.681z M435.442,5.211c3.143,0,3.847,2.471,3.847,4.113c0,2.299-1.298,4.207-3.972,4.207
		c-2.596,0-3.863-1.799-3.863-4.097C431.454,7.494,432.361,5.211,435.442,5.211z M435.348,12.435c1.11,0,2.377-0.798,2.377-3.159
		c0-1.955-0.907-2.987-2.283-2.987c-0.938,0-2.455,0.594-2.455,3.049C432.986,10.95,433.675,12.435,435.348,12.435z M441.577,6.462
		l-0.031-1.048h1.486v1.141c0.751-1.235,1.814-1.345,2.487-1.345c1.736,0,2.283,0.891,2.565,1.47c0.266-0.438,0.907-1.47,2.643-1.47
		c1.126,0,2.878,0.469,2.878,2.784v5.27h-1.486V8.229c0-0.688-0.125-0.985-0.266-1.188c-0.25-0.36-0.751-0.688-1.501-0.688
		c-0.954,0-1.47,0.547-1.673,0.829c-0.344,0.485-0.344,1.345-0.344,1.689v4.394h-1.486V8.072c0-0.97-0.563-1.72-1.72-1.72
		c-1.001,0-1.548,0.626-1.72,0.86c-0.329,0.453-0.344,1.095-0.344,1.595v4.457h-1.486V6.462z M456.316,6.696
		c0-0.344-0.016-0.532-0.047-1.282h1.486l0.031,1.298c0.735-1.236,2.033-1.423,2.674-1.423c1.689,0,3.3,1.157,3.3,4.066
		c0,2.924-1.704,4.207-3.581,4.207c-1.141,0-1.986-0.485-2.408-1.173v3.894h-1.454V6.696z M459.929,12.482
		c0.376,0,1.157-0.078,1.658-0.766c0.563-0.766,0.641-1.892,0.641-2.455c0-1.407-0.422-2.878-2.158-2.878
		c-2.346,0-2.346,2.487-2.346,3.19C457.724,10.528,457.865,12.482,459.929,12.482z M470.709,13.264
		c-0.109-0.391-0.141-0.766-0.141-1.173c-0.704,1.298-1.767,1.423-2.424,1.423c-1.798,0-2.768-1.017-2.768-2.314
		c0-0.626,0.219-1.626,1.376-2.299c0.845-0.469,2.096-0.516,2.721-0.516c0.375,0,0.61,0.016,1.063,0.047
		c0-0.969,0-1.392-0.281-1.736c-0.297-0.391-0.938-0.516-1.361-0.516c-1.486,0-1.564,1.016-1.579,1.329h-1.47
		c0.047-0.407,0.094-0.954,0.547-1.486c0.594-0.657,1.705-0.844,2.533-0.844c1.142,0,2.361,0.36,2.784,1.157
		c0.25,0.469,0.266,0.844,0.266,1.204l-0.063,3.753c0,0.125,0.016,1.173,0.125,1.97H470.709z M469.692,9.402
		c-0.594,0-2.831,0-2.831,1.595c0,0.501,0.313,1.361,1.626,1.361c0.751,0,1.314-0.297,1.673-0.845
		c0.328-0.532,0.344-0.969,0.375-2.064C470.271,9.417,470.052,9.402,469.692,9.402z M474.702,7.009c0-0.532-0.031-1.079-0.078-1.595
		h1.486l0.031,1.517c0.282-1.095,1.22-1.454,1.877-1.548c0.438-0.063,0.766-0.047,1.016-0.031V6.79
		c-0.078-0.031-0.172-0.047-0.281-0.063c-0.109-0.016-0.25-0.016-0.422-0.016c-1.736,0-2.142,1.032-2.142,2.377v4.175h-1.486V7.009z
		 M481.602,9.605c-0.031,1.626,0.641,2.831,2.252,2.831c0.954,0,1.72-0.5,1.845-1.626h1.47c-0.047,0.391-0.109,1.032-0.672,1.642
		c-0.344,0.391-1.126,1.048-2.706,1.048c-2.471,0-3.644-1.533-3.644-4.019c0-1.548,0.313-2.83,1.548-3.691
		c0.751-0.532,1.689-0.579,2.142-0.579c3.519,0,3.441,3.112,3.409,4.394H481.602z M485.746,8.573
		c0.016-0.751-0.125-2.314-1.939-2.314c-0.954,0-2.111,0.579-2.142,2.314H485.746z M494.852,1.989h1.47v10.024
		c0,0.172,0.031,0.844,0.063,1.251h-1.47l-0.031-1.251c-0.125,0.219-0.297,0.547-0.704,0.829c-0.641,0.438-1.408,0.579-1.939,0.579
		c-1.048,0-3.378-0.547-3.378-3.988c0-2.987,1.705-4.285,3.55-4.285c1.689,0,2.252,1.001,2.44,1.329V1.989z M494.305,7.04
		c-0.313-0.407-0.891-0.798-1.72-0.798c-2.158,0-2.158,2.612-2.158,3.143c0,1.392,0.36,3.003,2.158,3.003
		c2.314,0,2.314-2.549,2.314-3.159C494.899,8.088,494.633,7.462,494.305,7.04z M503.742,5.414l1.892,6.255l1.986-6.255h1.923
		l1.783,6.193l1.97-6.193h1.517l-2.768,7.85h-1.689l-1.846-6.459l-2.048,6.459h-1.736l-2.596-7.85H503.742z M516.213,2.005h1.767
		v1.611h-1.767V2.005z M516.369,5.414h1.47v7.85h-1.47V5.414z M519.5,5.383h1.392V3.74l1.454-0.469v2.111h1.752v1.079h-1.752v4.707
		c0,0.391,0,1.048,1.048,1.048c0.297,0,0.579-0.047,0.704-0.078v1.142c-0.266,0.047-0.688,0.094-1.22,0.094
		c-1.345,0-1.986-0.391-1.986-1.673V6.462H519.5V5.383z M525.914,1.989h1.486v4.582c0.485-0.829,1.454-1.298,2.549-1.298
		c0.829,0,2.017,0.297,2.471,1.251c0.156,0.313,0.266,0.688,0.266,1.83v4.91h-1.501V8.62c0-0.704,0-2.221-1.689-2.221
		c-1.095,0-1.642,0.672-1.845,1.048c-0.25,0.438-0.25,1.173-0.25,1.658v4.16h-1.486V1.989z"/>
	<g>
		<path fill="#00435B" d="M540.071,1.47h1.549v9.9h5.255v1.392h-6.804V1.47z"/>
		<path fill="#00435B" d="M548.693,1.47h1.563v11.292h-1.563V1.47z"/>
		<path fill="#00435B" d="M553.043,1.47h3.785c1.376,0,2.314,0.078,3.081,0.907c0.563,0.578,0.829,1.345,0.829,2.189
			c0,0.86-0.281,1.595-0.892,2.205c-0.595,0.595-1.376,0.97-3.409,0.97h-1.83v5.021h-1.564V1.47z M554.608,6.428h1.861
			c1.032,0,2.611-0.078,2.611-1.924c0-1.768-1.47-1.768-2.283-1.768h-2.189V6.428z"/>
		<path fill="#00435B" d="M562.604,1.47h1.563v11.292h-1.563V1.47z"/>
		<path fill="#00435B" d="M569.69,12.762V2.799h-3.784V1.47h9.118v1.329h-3.785v9.963H569.69z"/>
		<path fill="#00435B" d="M576.889,2.689c1.173-1.267,2.721-1.518,3.769-1.518c3.129,0,5.099,2.002,5.099,5.834
			c0,3.003-1.204,6.021-5.224,6.021c-3.848,0-5.099-2.736-5.099-5.834C575.434,5.911,575.652,4.019,576.889,2.689z M578.077,10.666
			c0.641,0.798,1.61,1.032,2.502,1.032c0.923,0,1.846-0.25,2.503-1.032c0.923-1.126,1.017-2.909,1.017-3.676
			c0-2.564-0.845-4.504-3.426-4.504c-2.861,0-3.597,2.299-3.597,4.613C577.076,8.336,577.295,9.696,578.077,10.666z"/>
		<path fill="#00435B" d="M588.029,1.47h4.035c0.579,0,1.768,0,2.597,0.531c0.845,0.532,1.251,1.393,1.251,2.3
			c0,0.797-0.297,1.501-0.798,2.002c-0.484,0.484-0.985,0.641-1.329,0.734c1.079,0.282,1.563,0.767,1.721,2.174
			c0.156,1.33,0.266,2.3,0.703,3.551h-1.673c-0.251-0.751-0.407-2.127-0.517-2.987c-0.188-1.643-0.579-2.111-2.471-2.111h-1.971
			v5.099h-1.549V1.47z M589.547,6.334h2.471c0.172,0,1.063,0,1.486-0.251c0.219-0.125,0.766-0.531,0.766-1.47
			c0-1.83-1.626-1.83-2.252-1.83h-2.471V6.334z"/>
	</g>
	<g>
		<path fill="#00435B" d="M13.428,12.708V2.746H9.644V1.417h9.118v1.329h-3.785v9.963H13.428z"/>
		<path fill="#00435B" d="M20.36,1.417h2.174l5.553,9.337V1.417h1.438v11.292h-2.002l-5.739-9.588v9.588H20.36V1.417z"/>
		<path fill="#00435B" d="M35.161,12.708V2.746h-3.784V1.417h9.118v1.329H36.71v9.963H35.161z"/>
		<path fill="#00435B" d="M42.525,1.568c-0.419-0.265-0.584-0.356-0.766-0.447l0.565-0.539c0.319,0.165,0.456,0.256,0.922,0.557
			l0.903-0.529l0.328,0.329l-0.821,0.475c0.73,0.557,2.044,1.569,2.044,3.613c0,1.578-0.821,2.628-2.336,2.628
			c-1.277,0-2.263-0.775-2.263-2.382c0-1.752,1.168-2.391,2.135-2.391c0.84,0,1.187,0.42,1.378,0.647
			c-0.338-0.602-0.876-1.131-1.67-1.688l-0.876,0.52L41.74,2.042L42.525,1.568z M44.788,5.208c0-1.123-0.521-1.752-1.351-1.752
			c-0.813,0-1.414,0.584-1.414,1.77c0,0.959,0.446,1.779,1.387,1.779C43.976,7.005,44.788,6.623,44.788,5.208z"/>
		<path fill="#00435B" d="M50.704,4.826h1.392V3.183l1.455-0.469v2.111h1.752v1.079h-1.752v4.708c0,0.391,0,1.048,1.048,1.048
			c0.297,0,0.578-0.047,0.704-0.078v1.142c-0.267,0.047-0.688,0.094-1.221,0.094c-1.345,0-1.986-0.391-1.986-1.674V5.905h-1.392
			V4.826z"/>
		<path fill="#00435B" d="M57.197,6.453c0-0.532-0.031-1.079-0.078-1.596h1.485l0.031,1.518c0.281-1.095,1.22-1.455,1.877-1.549
			c0.438-0.063,0.767-0.047,1.017-0.031v1.439c-0.078-0.031-0.172-0.048-0.281-0.063s-0.25-0.016-0.423-0.016
			c-1.735,0-2.143,1.032-2.143,2.378v4.176h-1.485V6.453z"/>
		<path fill="#00435B" d="M63.065,1.448h1.768v1.61h-1.768V1.448z M63.221,4.857h1.471v7.852h-1.471V4.857z"/>
		<path fill="#00435B" d="M72.341,12.708c-0.109-0.391-0.141-0.767-0.141-1.173c-0.704,1.298-1.768,1.423-2.425,1.423
			c-1.798,0-2.768-1.017-2.768-2.314c0-0.626,0.219-1.627,1.376-2.299c0.845-0.47,2.096-0.517,2.722-0.517
			c0.375,0,0.609,0.016,1.063,0.047c0-0.97,0-1.392-0.282-1.736c-0.297-0.391-0.938-0.516-1.36-0.516
			c-1.485,0-1.563,1.017-1.579,1.329h-1.471c0.047-0.406,0.094-0.954,0.548-1.485c0.594-0.657,1.704-0.845,2.533-0.845
			c1.142,0,2.361,0.359,2.784,1.157c0.25,0.47,0.266,0.845,0.266,1.204l-0.063,3.754c0,0.125,0.016,1.173,0.125,1.971H72.341z
			 M71.324,8.845c-0.595,0-2.831,0-2.831,1.596c0,0.5,0.313,1.36,1.627,1.36c0.75,0,1.313-0.297,1.673-0.845
			c0.329-0.531,0.345-0.97,0.376-2.064C71.902,8.861,71.684,8.845,71.324,8.845z"/>
		<path fill="#00435B" d="M76.286,1.432h1.47v11.276h-1.47V1.432z"/>
		<path fill="#00435B" d="M80.526,4.779h1.736v1.846h-1.736V4.779z M80.526,10.863h1.736v1.846h-1.736V10.863z"/>
		<path fill="#00435B" d="M89.305,1.417h1.563v11.292h-1.563V1.417z"/>
		<path fill="#00435B" d="M93.701,5.764l-0.016-0.907h1.47l0.016,1.267c0.172-0.328,0.735-1.423,2.519-1.423
			c0.703,0,2.847,0.266,2.847,2.675v5.333h-1.502V7.719c0-0.517-0.063-0.985-0.422-1.345c-0.376-0.36-0.892-0.532-1.393-0.532
			c-1.063,0-2.049,0.767-2.049,2.346v4.521h-1.47V5.764z"/>
		<path fill="#00435B" d="M107.518,6.139c0-0.344-0.016-0.531-0.047-1.282h1.485l0.031,1.298c0.735-1.235,2.033-1.423,2.675-1.423
			c1.688,0,3.3,1.157,3.3,4.066c0,2.925-1.705,4.207-3.582,4.207c-1.142,0-1.986-0.484-2.408-1.173v3.895h-1.454V6.139z
			 M111.13,11.926c0.376,0,1.157-0.078,1.658-0.767c0.563-0.766,0.641-1.892,0.641-2.455c0-1.407-0.422-2.878-2.158-2.878
			c-2.346,0-2.346,2.487-2.346,3.19C108.925,9.971,109.066,11.926,111.13,11.926z"/>
		<path fill="#00435B" d="M121.91,12.708c-0.109-0.391-0.141-0.767-0.141-1.173c-0.704,1.298-1.768,1.423-2.425,1.423
			c-1.798,0-2.768-1.017-2.768-2.314c0-0.626,0.219-1.627,1.376-2.299c0.845-0.47,2.096-0.517,2.722-0.517
			c0.375,0,0.609,0.016,1.063,0.047c0-0.97,0-1.392-0.282-1.736c-0.297-0.391-0.938-0.516-1.36-0.516
			c-1.485,0-1.563,1.017-1.579,1.329h-1.471c0.047-0.406,0.094-0.954,0.548-1.485c0.594-0.657,1.704-0.845,2.533-0.845
			c1.142,0,2.361,0.359,2.784,1.157c0.25,0.47,0.266,0.845,0.266,1.204l-0.063,3.754c0,0.125,0.016,1.173,0.125,1.971H121.91z
			 M120.894,8.845c-0.595,0-2.831,0-2.831,1.596c0,0.5,0.313,1.36,1.627,1.36c0.75,0,1.313-0.297,1.673-0.845
			c0.329-0.531,0.345-0.97,0.376-2.064C121.472,8.861,121.253,8.845,120.894,8.845z"/>
		<path fill="#00435B" d="M124.619,4.826h1.393V3.183l1.454-0.469v2.111h1.752v1.079h-1.752v4.708c0,0.391,0,1.048,1.048,1.048
			c0.298,0,0.579-0.047,0.704-0.078v1.142c-0.266,0.047-0.688,0.094-1.22,0.094c-1.346,0-1.986-0.391-1.986-1.674V5.905h-1.393
			V4.826z"/>
		<path fill="#00435B" d="M130.894,1.448h1.768v1.61h-1.768V1.448z M131.05,4.857h1.471v7.852h-1.471V4.857z"/>
		<path fill="#00435B" d="M136.276,9.048c-0.032,1.627,0.641,2.831,2.252,2.831c0.954,0,1.72-0.5,1.846-1.626h1.47
			c-0.047,0.391-0.109,1.032-0.673,1.642c-0.344,0.392-1.126,1.048-2.705,1.048c-2.472,0-3.645-1.532-3.645-4.02
			c0-1.548,0.313-2.831,1.549-3.69c0.75-0.532,1.688-0.579,2.143-0.579c3.519,0,3.44,3.112,3.409,4.395H136.276z M140.421,8.016
			c0.016-0.75-0.125-2.314-1.939-2.314c-0.954,0-2.111,0.579-2.143,2.314H140.421z"/>
		<path fill="#00435B" d="M144.131,5.764l-0.016-0.907h1.471l0.016,1.267c0.172-0.328,0.734-1.423,2.518-1.423
			c0.704,0,2.847,0.266,2.847,2.675v5.333h-1.501V7.719c0-0.517-0.063-0.985-0.423-1.345c-0.375-0.36-0.892-0.532-1.392-0.532
			c-1.063,0-2.049,0.767-2.049,2.346v4.521h-1.471V5.764z"/>
		<path fill="#00435B" d="M152.44,4.826h1.393V3.183l1.454-0.469v2.111h1.752v1.079h-1.752v4.708c0,0.391,0,1.048,1.048,1.048
			c0.298,0,0.579-0.047,0.704-0.078v1.142c-0.266,0.047-0.688,0.094-1.22,0.094c-1.346,0-1.986-0.391-1.986-1.674V5.905h-1.393
			V4.826z"/>
		<path fill="#00435B" d="M159.699,10.378c-0.016,0.594,0.297,1.423,1.721,1.423c0.609,0,1.063-0.109,1.376-0.5
			c0.156-0.204,0.25-0.47,0.25-0.735c0-0.767-0.547-0.907-1.72-1.173c-1.643-0.376-3.019-0.704-3.019-2.347
			c0-1.438,1.251-2.377,3.065-2.377c0.985,0,2.361,0.281,2.83,1.22c0.204,0.438,0.204,0.813,0.204,1.142h-1.502
			c0.047-1.188-0.985-1.282-1.517-1.282c-0.22,0-1.596,0-1.596,1.126c0,0.72,0.704,0.892,1.11,1.001
			c2.174,0.517,2.644,0.642,3.112,1.079c0.438,0.407,0.595,0.954,0.595,1.455c0,0.876-0.485,1.626-1.063,1.986
			c-0.688,0.422-1.518,0.531-2.331,0.531c-1.595,0-3.081-0.656-3.065-2.549H159.699z"/>
		<path fill="#00435B" d="M171.45,4.857l1.893,6.256l1.986-6.256h1.924l1.783,6.193l1.971-6.193h1.517l-2.769,7.852h-1.688
			l-1.846-6.459l-2.049,6.459h-1.736l-2.597-7.852H171.45z"/>
		<path fill="#00435B" d="M183.921,1.448h1.768v1.61h-1.768V1.448z M184.077,4.857h1.471v7.852h-1.471V4.857z"/>
		<path fill="#00435B" d="M187.207,4.826h1.392V3.183l1.455-0.469v2.111h1.752v1.079h-1.752v4.708c0,0.391,0,1.048,1.048,1.048
			c0.297,0,0.578-0.047,0.704-0.078v1.142c-0.267,0.047-0.688,0.094-1.221,0.094c-1.345,0-1.986-0.391-1.986-1.674V5.905h-1.392
			V4.826z"/>
		<path fill="#00435B" d="M193.622,1.432h1.485v4.582c0.485-0.829,1.455-1.298,2.55-1.298c0.828,0,2.018,0.297,2.471,1.251
			c0.156,0.313,0.266,0.688,0.266,1.83v4.911h-1.501V8.063c0-0.703,0-2.221-1.689-2.221c-1.095,0-1.642,0.673-1.846,1.048
			c-0.25,0.438-0.25,1.173-0.25,1.658v4.16h-1.485V1.432z"/>
		<path fill="#00435B" d="M214.335,4.466c-0.063-0.392-0.266-1.955-2.439-1.955c-2.722,0-3.206,2.784-3.206,4.66
			c0,2.128,0.609,4.427,3.19,4.427c0.688,0,1.345-0.172,1.83-0.673c0.406-0.438,0.5-0.923,0.547-1.188h1.721
			c-0.234,2.221-2.283,3.144-4.223,3.144c-3.973,0-4.739-3.503-4.739-5.693c0-2.377,0.923-5.927,4.942-5.927
			c1.596,0,3.848,0.641,4.051,3.206H214.335z"/>
		<path fill="#00435B" d="M219.532,1.417v4.849h5.365V1.417h1.563v11.292h-1.563V7.61h-5.365v5.099h-1.563V1.417H219.532z"/>
		<path fill="#00435B" d="M229.266,1.417h3.269c1.517,0,3.3,0,4.551,1.47c1.001,1.173,1.393,2.722,1.393,4.27
			c0,2.44-1.017,3.941-1.877,4.63c-1.11,0.923-2.503,0.923-4.16,0.923h-3.175V1.417z M230.829,11.426h1.533
			c1.079,0,2.205-0.063,2.956-0.626c1.438-1.079,1.485-2.925,1.485-3.581c0-0.423-0.031-2.347-1.095-3.52
			c-0.72-0.798-1.627-0.985-3.003-0.985h-1.877V11.426z"/>
		<path fill="#00435B" d="M242.768,10.832l-1.752,3.848h-1.063l1.001-3.848H242.768z"/>
		<path fill="#00435B" d="M249.34,1.417h1.549v9.9h5.255v1.392h-6.804V1.417z"/>
		<path fill="#00435B" d="M257.82,1.448h1.768v1.61h-1.768V1.448z M257.978,4.857h1.47v7.852h-1.47V4.857z"/>
		<path fill="#00435B" d="M262.265,6.139c0-0.344-0.016-0.531-0.047-1.282h1.485l0.031,1.298c0.735-1.235,2.033-1.423,2.675-1.423
			c1.688,0,3.3,1.157,3.3,4.066c0,2.925-1.705,4.207-3.582,4.207c-1.142,0-1.986-0.484-2.408-1.173v3.895h-1.454V6.139z
			 M265.877,11.926c0.376,0,1.157-0.078,1.658-0.767c0.563-0.766,0.641-1.892,0.641-2.455c0-1.407-0.422-2.878-2.158-2.878
			c-2.346,0-2.346,2.487-2.346,3.19C263.672,9.971,263.813,11.926,265.877,11.926z"/>
		<path fill="#00435B" d="M271.731,1.448h1.768v1.61h-1.768V1.448z M271.888,4.857h1.47v7.852h-1.47V4.857z"/>
		<path fill="#00435B" d="M275.017,4.826h1.393V3.183l1.454-0.469v2.111h1.752v1.079h-1.752v4.708c0,0.391,0,1.048,1.048,1.048
			c0.298,0,0.579-0.047,0.704-0.078v1.142c-0.266,0.047-0.688,0.094-1.22,0.094c-1.346,0-1.986-0.391-1.986-1.674V5.905h-1.393
			V4.826z"/>
		<path fill="#00435B" d="M284.842,4.654c3.144,0,3.847,2.471,3.847,4.113c0,2.299-1.298,4.207-3.973,4.207
			c-2.596,0-3.862-1.799-3.862-4.098C280.854,6.937,281.76,4.654,284.842,4.654z M284.747,11.879c1.111,0,2.378-0.798,2.378-3.159
			c0-1.955-0.907-2.987-2.283-2.987c-0.938,0-2.456,0.595-2.456,3.05C282.386,10.394,283.074,11.879,284.747,11.879z"/>
		<path fill="#00435B" d="M291.07,6.453c0-0.532-0.031-1.079-0.078-1.596h1.485l0.031,1.518c0.281-1.095,1.22-1.455,1.877-1.549
			c0.438-0.063,0.767-0.047,1.017-0.031v1.439c-0.078-0.031-0.172-0.048-0.281-0.063s-0.25-0.016-0.423-0.016
			c-1.735,0-2.143,1.032-2.143,2.378v4.176h-1.485V6.453z"/>
		<path fill="#00435B" d="M302.901,4.186c0,1.935-1.569,3.468-3.449,3.468c-1.861,0-3.449-1.533-3.449-3.468
			s1.606-3.449,3.449-3.449C301.351,0.737,302.901,2.27,302.901,4.186z M296.414,4.186c0,1.716,1.377,3.066,3.038,3.066
			c1.679,0,3.039-1.369,3.039-3.066c0-1.633-1.323-3.038-3.039-3.038C297.791,1.148,296.414,2.516,296.414,4.186z M298.193,2.306
			h1.313c0.273,0,1.26,0,1.26,0.931c0,0.11,0,0.694-0.694,0.895c0.384,0.092,0.512,0.256,0.566,0.712s0.091,0.803,0.219,1.168
			h-0.529c-0.073-0.237-0.109-0.383-0.183-0.967c-0.055-0.566-0.2-0.712-0.803-0.712h-0.639v1.679h-0.511V2.306z M298.704,3.894
			h0.803c0.256,0,0.73,0,0.73-0.565c0-0.584-0.457-0.584-0.73-0.584h-0.803V3.894z"/>
		<path fill="#00435B" d="M308.148,4.591c0-0.97,0.656-2.956,3.503-2.956c2.283,0,3.598,1.235,3.598,2.894
			c0,1.063-0.688,2.174-2.206,2.455c0.642,0.172,2.362,0.642,2.362,2.737c0,1.485-1.032,3.175-3.723,3.175
			c-0.923,0-2.018-0.188-2.8-0.907c-0.578-0.531-0.954-1.345-0.954-2.174c0-0.72,0.282-1.47,0.829-1.986
			c0.517-0.516,1.079-0.673,1.564-0.829C308.882,6.687,308.148,5.67,308.148,4.591z M311.682,11.661c1.736,0,2.158-1.22,2.158-2.033
			c0-1.204-0.892-1.986-2.127-1.986c-1.329,0-2.205,0.892-2.205,2.033C309.508,10.519,310.07,11.661,311.682,11.661z M311.713,2.792
			c-1.157,0-2.049,0.688-2.049,1.768c0,1.048,0.876,1.752,2.002,1.752c1.188,0,2.08-0.688,2.08-1.752
			C313.746,3.575,313.011,2.792,311.713,2.792z"/>
		<path fill="#00435B" d="M320.366,1.667c3.237,0,3.628,3.472,3.628,5.505c0,2.565-0.516,4.004-1.501,4.927
			c-0.767,0.72-1.674,0.829-2.158,0.829c-1.439,0-2.425-0.845-2.894-1.799c-0.36-0.719-0.704-1.767-0.704-3.706
			C316.737,5.811,316.925,1.667,320.366,1.667z M320.351,11.629c1.813,0,2.127-2.377,2.127-4.316c0-2.597-0.454-4.396-2.096-4.396
			c-1.893,0-2.144,2.487-2.144,4.427C318.238,9.752,318.708,11.629,320.351,11.629z"/>
		<path fill="#00435B" d="M326.109,5.905l-0.031-1.048h1.486v1.142c0.75-1.235,1.813-1.345,2.486-1.345
			c1.736,0,2.283,0.892,2.565,1.47c0.266-0.438,0.907-1.47,2.643-1.47c1.126,0,2.878,0.469,2.878,2.784v5.271h-1.485V7.672
			c0-0.688-0.125-0.985-0.267-1.188c-0.25-0.36-0.75-0.688-1.501-0.688c-0.954,0-1.471,0.548-1.674,0.829
			c-0.344,0.484-0.344,1.345-0.344,1.689v4.395h-1.486V7.516c0-0.97-0.563-1.721-1.72-1.721c-1.001,0-1.549,0.626-1.721,0.86
			c-0.328,0.453-0.344,1.095-0.344,1.596v4.457h-1.486V5.905z"/>
		<path fill="#00435B" d="M342.304,13.319c0.063,0.875,0.438,1.532,1.829,1.532c2.049,0,2.08-1.485,2.08-3.612
			c-0.625,1.298-2.111,1.329-2.58,1.329c-0.72,0-1.752-0.156-2.409-0.97c-0.672-0.798-0.891-1.846-0.891-2.894
			c0-2.659,1.563-3.957,3.487-3.957c1.58,0,2.158,0.782,2.472,1.188l0.016-1.079h1.423l-0.031,1.424l-0.016,4.91
			c0,1.893-0.063,2.659-0.375,3.254c-0.657,1.251-2.19,1.407-3.27,1.407c-3.144,0-3.237-1.47-3.3-2.533H342.304z M345.729,10.691
			c0.313-0.406,0.531-0.829,0.531-2.252c0-0.985-0.219-1.549-0.609-1.955c-0.392-0.423-1.017-0.688-1.689-0.688
			c-1.861,0-2.111,1.877-2.111,2.878c0,1.204,0.359,2.8,2.158,2.8C344.868,11.473,345.369,11.16,345.729,10.691z"/>
	</g>
	<g>
		<path fill="#00435B" d="M604.774,3.449c0,1.935-1.57,3.468-3.449,3.468c-1.861,0-3.449-1.533-3.449-3.468S599.481,0,601.324,0
			C603.223,0,604.774,1.533,604.774,3.449z M598.285,3.449c0,1.716,1.378,3.066,3.039,3.066c1.679,0,3.039-1.369,3.039-3.066
			c0-1.633-1.324-3.038-3.039-3.038C599.663,0.411,598.285,1.779,598.285,3.449z M600.065,1.569h1.314c0.273,0,1.26,0,1.26,0.931
			c0,0.11,0,0.694-0.694,0.895c0.384,0.092,0.511,0.256,0.565,0.712s0.092,0.803,0.219,1.168H602.2
			c-0.073-0.237-0.11-0.383-0.183-0.967c-0.055-0.566-0.201-0.712-0.803-0.712h-0.639v1.679h-0.512V1.569z M600.576,3.157h0.803
			c0.256,0,0.73,0,0.73-0.565c0-0.584-0.457-0.584-0.73-0.584h-0.803V3.157z"/>
		<path fill="#00435B" d="M610.387,3.644c-0.672,0.563-1.752,1.204-2.518,1.563V3.644c1.016-0.532,2.018-1.188,2.627-1.705h1.393
			v10.823h-1.502V3.644z"/>
		<path fill="#00435B" d="M618.305,1.72c3.236,0,3.628,3.472,3.628,5.505c0,2.565-0.517,4.004-1.501,4.927
			c-0.768,0.72-1.674,0.829-2.158,0.829c-1.439,0-2.425-0.845-2.895-1.799c-0.359-0.719-0.703-1.767-0.703-3.706
			C614.676,5.864,614.863,1.72,618.305,1.72z M618.289,11.683c1.813,0,2.127-2.377,2.127-4.316c0-2.597-0.454-4.396-2.096-4.396
			c-1.893,0-2.144,2.487-2.144,4.427C616.177,9.806,616.647,11.683,618.289,11.683z"/>
		<path fill="#00435B" d="M628.399,5.958l-0.031-1.048h1.485v1.142c0.751-1.235,1.813-1.345,2.487-1.345
			c1.735,0,2.283,0.892,2.564,1.47c0.266-0.438,0.907-1.47,2.643-1.47c1.127,0,2.879,0.469,2.879,2.784v5.271h-1.486V7.726
			c0-0.688-0.125-0.985-0.266-1.188c-0.25-0.36-0.751-0.688-1.502-0.688c-0.954,0-1.471,0.548-1.674,0.829
			c-0.344,0.484-0.344,1.345-0.344,1.689v4.395h-1.486V7.569c0-0.97-0.563-1.721-1.72-1.721c-1.001,0-1.548,0.626-1.721,0.86
			c-0.328,0.453-0.344,1.095-0.344,1.596v4.457h-1.485V5.958z"/>
		<path fill="#00435B" d="M644.592,13.372c0.063,0.875,0.438,1.532,1.83,1.532c2.049,0,2.08-1.485,2.08-3.612
			c-0.626,1.298-2.111,1.329-2.581,1.329c-0.72,0-1.751-0.156-2.409-0.97c-0.672-0.798-0.891-1.846-0.891-2.894
			c0-2.659,1.564-3.957,3.488-3.957c1.579,0,2.158,0.782,2.471,1.188l0.016-1.079h1.423l-0.031,1.424l-0.016,4.91
			c0,1.893-0.063,2.659-0.375,3.254c-0.657,1.251-2.19,1.407-3.269,1.407c-3.145,0-3.238-1.47-3.301-2.533H644.592z M648.017,10.744
			c0.313-0.406,0.532-0.829,0.532-2.252c0-0.985-0.219-1.549-0.61-1.955c-0.392-0.423-1.017-0.688-1.688-0.688
			c-1.861,0-2.111,1.877-2.111,2.878c0,1.204,0.359,2.8,2.158,2.8C647.156,11.526,647.657,11.213,648.017,10.744z"/>
		<path fill="#00435B" d="M653.572,1c0.846,2.08,1.861,4.661,1.861,6.944c0,1.235-0.281,2.456-0.641,3.645
			c-0.438,1.407-0.845,2.424-1.11,3.097h-1.032c0.25-0.782,0.594-1.846,0.922-3.331c0.329-1.424,0.438-2.409,0.438-3.379
			c0-2.205-0.548-4.004-1.454-6.976H653.572z"/>
		<path fill="#00435B" d="M657.877,4.832h1.735v1.846h-1.735V4.832z M657.877,10.916h1.735v1.846h-1.735V10.916z"/>
		<path fill="#00435B" d="M661.411,5.932l1.651-1.624c0.348-0.338,0.693-0.703,0.977-1.086c0.365-0.502,0.465-0.785,0.465-1.123
			c0-0.31-0.109-1.03-1.012-1.03c-1.014,0-1.031,0.866-1.031,1.104h-0.959c0.01-0.311,0.037-0.912,0.584-1.387
			c0.438-0.374,0.968-0.456,1.369-0.456c0.967,0,1.953,0.492,1.953,1.843c0,0.401-0.027,0.712-0.712,1.579
			c-0.183,0.228-0.985,1.058-1.168,1.24l-1.104,1.05h3.002v0.721h-4.015V5.932z"/>
	</g>
	<rect x="0" y="4.565" fill="#00435B" width="5.17" height="5.17"/>
</g>
</svg>
