<?xml version="1.0" encoding="utf-8"?>
<!-- Generator: Adobe Illustrator 17.0.0, SVG Export Plug-In . SVG Version: 6.00 Build 0)  -->
<!DOCTYPE svg PUBLIC "-//W3C//DTD SVG 1.1//EN" "http://www.w3.org/Graphics/SVG/1.1/DTD/svg11.dtd">
<svg version="1.1" id="Layer_1" xmlns="http://www.w3.org/2000/svg" xmlns:xlink="http://www.w3.org/1999/xlink" x="0px" y="0px"
	 width="180.126px" height="172.56px" viewBox="0 0 180.126 172.56" enable-background="new 0 0 180.126 172.56"
	 xml:space="preserve">
<g>
	<path fill="#00435B" d="M5.922,15.874c0,1.071-0.063,4.315,4.126,4.315c2.646,0,4.315-1.26,4.315-3.181
		c0-2.016-1.417-2.362-4.315-3.055C4.631,12.599,1.67,10.992,1.67,7.055C1.67,3.307,4.347,0,10.678,0
		c2.362,0,5.165,0.535,6.866,2.677c1.291,1.638,1.291,3.465,1.291,4.221h-4.693c-0.063-0.787-0.315-3.465-3.685-3.465
		c-2.268,0-3.748,1.228-3.748,3.087c0,2.11,1.669,2.488,4.945,3.307c3.937,0.945,7.811,2.016,7.811,6.457
		c0,4.095-3.402,7.402-9.701,7.402c-8.725,0-8.788-5.606-8.819-7.811H5.922z M22.739,0.409h4.977v4.063h-4.977V0.409z M22.896,7.213
		h4.662V23.15h-4.662V7.213z M46.738,7.307c-0.126,1.26-0.22,2.331-0.22,3.937v11.748c0,5.858-4.882,6.425-7.937,6.425
		c-2.268,0-6.709-0.284-6.992-5.103h4.472c0.063,0.472,0.284,2.205,2.772,2.205c1.386,0,2.583-0.661,2.898-2.079
		c0.189-0.787,0.189-1.354,0.221-3.78c-1.48,1.953-3.15,2.173-4.284,2.173c-4.567,0-6.709-3.969-6.709-7.811
		c0-4.032,2.236-7.874,6.803-7.874c2.898,0,3.969,1.575,4.441,2.268l0.158-2.11H46.738z M38.738,19.654
		c3.276,0,3.276-3.843,3.276-4.536c0-1.795-0.347-4.851-3.181-4.851c-1.764,0-3.213,1.354-3.213,4.756
		C35.62,15.811,35.62,19.654,38.738,19.654z M50.956,10.079c0-0.063,0-1.795-0.095-2.898h4.473l0.126,2.394
		c0.441-0.724,1.701-2.772,5.166-2.772c3.118,0,4.441,1.89,4.85,2.992c0.346,0.976,0.441,1.795,0.441,4.756v8.599h-4.756v-9.89
		c0-0.661,0-1.228-0.252-1.732c-0.346-0.693-1.071-1.354-2.268-1.354c-1.008,0-1.921,0.472-2.425,1.228
		c-0.283,0.41-0.567,1.197-0.567,2.425v9.323h-4.693V10.079z M69.977,0.409h4.977v4.063h-4.977V0.409z M70.134,7.213h4.662V23.15
		h-4.662V7.213z M79.299,10.551h-2.394V7.244h2.394V5.071C79.299,2.268,80.212,0,84.748,0c0.346,0,1.228,0,2.52,0.157v3.244
		c-0.473-0.063-0.599-0.094-0.977-0.094c-2.362,0-2.362,1.26-2.362,2.079v1.858h2.929v3.307h-2.929V23.15h-4.63V10.551z
		 M89.22,0.409h4.977v4.063H89.22V0.409z M89.378,7.213h4.662V23.15h-4.662V7.213z M106.541,12.882
		c-0.063-0.567-0.252-2.929-2.047-2.929c-2.205,0-2.457,3.339-2.457,5.071c0,0.882,0.094,3.717,1.165,4.882
		c0.441,0.472,0.914,0.535,1.26,0.535c0.504,0,1.953-0.221,2.142-3.055h4.599c-0.063,1.228-0.221,3.15-2.047,4.693
		c-1.134,0.976-2.551,1.48-4.536,1.48c-2.11,0-3.969-0.472-5.418-2.11c-1.386-1.606-2.016-3.717-2.016-6.268
		c0-7.244,5.323-8.252,7.433-8.252c2.961,0,6.457,1.638,6.488,5.953H106.541z M123.421,23.15c-0.157-0.976-0.157-1.701-0.157-2.173
		c-1.764,2.551-3.874,2.551-4.756,2.551c-2.299,0-3.339-0.662-3.969-1.26c-0.945-0.945-1.386-2.236-1.386-3.496
		c0-1.26,0.441-3.591,3.37-4.945c1.953-0.882,4.756-0.882,6.299-0.882c0-1.04-0.031-1.543-0.22-2.11
		c-0.41-1.165-1.638-1.323-2.079-1.323c-0.661,0-1.354,0.283-1.764,0.882c-0.347,0.536-0.347,1.039-0.347,1.417h-4.567
		c0.031-0.85,0.126-2.551,1.795-3.748c1.449-1.039,3.307-1.291,4.819-1.291c1.323,0,4.095,0.22,5.67,2.047
		c1.071,1.291,1.102,3.181,1.102,3.906l0.031,6.394c0,1.354,0.095,2.709,0.378,4.032H123.421z M117.688,18.237
		c0,1.071,0.724,2.268,2.268,2.268c0.85,0,1.543-0.41,1.984-0.913c0.819-1.008,0.882-2.236,0.882-3.937
		C119.83,15.402,117.688,16.347,117.688,18.237z M131.45,10.079c0-0.063,0-1.795-0.095-2.898h4.473l0.126,2.394
		c0.441-0.724,1.701-2.772,5.165-2.772c3.118,0,4.441,1.89,4.85,2.992c0.347,0.976,0.441,1.795,0.441,4.756v8.599h-4.756v-9.89
		c0-0.661,0-1.228-0.252-1.732c-0.346-0.693-1.071-1.354-2.268-1.354c-1.008,0-1.921,0.472-2.425,1.228
		c-0.283,0.41-0.567,1.197-0.567,2.425v9.323h-4.693V10.079z M159.983,22.93c-1.512,0.409-2.866,0.504-3.622,0.504
		c-4.693,0-4.693-2.961-4.693-4.284v-8.725h-3.055V7.339h3.055V4.22l4.63-1.701v4.819h3.78v3.087h-3.78v7.181
		c0.031,1.449,0.031,2.362,2.11,2.362c0.693,0,1.008-0.031,1.575-0.094V22.93z"/>
	<g>
		<path fill="#00435B" d="M14.834,45.032c-0.095-0.787-0.378-4-3.685-4c-3.622,0-5.134,3.779-5.134,8.473
			c0,1.354,0,7.811,4.756,7.811c2.047,0,4-1.291,4.094-4.314h5.134c-0.095,1.354-0.221,3.464-2.047,5.354
			c-2.016,2.078-4.567,2.551-6.646,2.551c-7.842,0-10.393-5.795-10.393-11.432c0-7.213,4.031-12,10.424-12
			c4.977,0,8.473,3.023,8.473,7.559H14.834z"/>
		<path fill="#00435B" d="M26.549,37.694l5.952,17.857l5.983-17.857h4.819L34.926,60.37h-5.322l-8.377-22.676H26.549z"/>
		<path fill="#00435B" d="M54.387,48.371c0-0.756-0.126-3.056-0.221-3.969h4.378l0.095,3.056c0.599-1.354,1.638-3.275,5.417-3.087
			v4.188c-4.724-0.44-5.008,1.984-5.008,3.969v7.842h-4.661V48.371z"/>
		<path fill="#00435B" d="M65.252,37.631h4.977v4.063h-4.977V37.631z M65.409,44.434h4.661V60.37h-4.661V44.434z"/>
		<path fill="#00435B" d="M77.408,55.772c0.063,1.008,0.693,2.173,2.646,2.173c1.669,0,2.456-0.945,2.456-1.89
			c0-0.725-0.377-1.291-2.204-1.795l-2.897-0.788c-1.291-0.378-4.031-1.165-4.031-4.409c0-3.086,2.834-4.976,6.96-4.976
			c3.275,0,5.921,1.512,6.047,4.692h-4.251c-0.127-1.764-1.544-1.89-2.268-1.89c-1.26,0-2.205,0.599-2.205,1.575
			c0,1.07,0.787,1.291,2.173,1.669l2.866,0.787c2.897,0.787,4.252,2.268,4.252,4.44c0,2.74-2.362,5.48-7.307,5.48
			c-2.047,0-4-0.441-5.449-1.953c-1.039-1.102-1.133-2.361-1.165-3.117H77.408z"/>
		<path fill="#00435B" d="M89.974,37.599h4.63v13.417l4.818-6.646h5.26l-5.449,6.929l5.795,9.07h-5.512l-4.912-8.661v8.661h-4.63
			V37.599z"/>
	</g>
	<g>
		<path fill="#00435B" d="M1.89,85.589c0-0.756-0.126-3.056-0.22-3.969h4.377l0.095,3.056c0.599-1.354,1.638-3.275,5.417-3.087
			v4.188c-4.725-0.44-5.008,1.984-5.008,3.969v7.842H1.89V85.589z"/>
		<path fill="#00435B" d="M16.975,90.817c0,1.039,0,4.252,3.244,4.252c1.165,0,2.33-0.441,2.771-2.205h4.252
			c-0.063,0.756-0.221,2.11-1.512,3.465c-1.166,1.229-3.244,1.858-5.575,1.858c-1.354,0-3.937-0.252-5.605-1.984
			c-1.449-1.512-2.048-3.653-2.048-6.204c0-2.583,0.631-5.669,3.308-7.527c1.228-0.818,2.739-1.322,4.472-1.322
			c2.268,0,4.977,0.881,6.425,3.842c1.071,2.173,1.008,4.504,0.945,5.826H16.975z M22.896,87.888c0-0.725-0.063-3.559-2.771-3.559
			c-2.047,0-2.897,1.7-2.992,3.559H22.896z"/>
		<path fill="#00435B" d="M41.256,74.85h4.692v20.156c0,0.944,0.063,1.983,0.126,2.582H41.35l-0.125-2.299
			c-0.315,0.566-0.631,1.165-1.606,1.795c-1.165,0.756-2.394,0.818-3.087,0.818c-4.252,0-6.771-2.929-6.771-7.904
			c0-5.26,2.866-8.535,7.023-8.535c2.866,0,4.063,1.606,4.473,2.173V74.85z M37.697,94.879c1.354,0,2.456-0.818,2.96-1.795
			c0.692-1.322,0.756-2.96,0.756-3.748c0-3.117-1.354-4.818-3.464-4.818c-3.118,0-3.465,3.748-3.465,5.354
			C34.484,92.518,35.366,94.879,37.697,94.879z"/>
		<path fill="#00435B" d="M54.545,81.684v9.479c0,1.386,0,3.496,2.488,3.496c2.992,0,2.992-2.236,2.992-4.944v-8.031h4.787v10.487
			c0.063,3.433,0.094,3.843,0.094,4.252c0.031,0.44,0.063,0.724,0.126,1.165h-4.535l-0.157-2.11c-0.473,0.693-1.669,2.52-4.692,2.52
			c-2.142,0-3.905-0.976-4.787-2.142c-1.04-1.291-1.04-3.496-1.04-4.283v-9.889H54.545z"/>
		<path fill="#00435B" d="M77.629,87.321c-0.063-0.566-0.252-2.929-2.047-2.929c-2.205,0-2.457,3.339-2.457,5.071
			c0,0.881,0.095,3.716,1.166,4.881c0.44,0.473,0.913,0.535,1.26,0.535c0.504,0,1.952-0.22,2.141-3.055h4.599
			c-0.063,1.229-0.221,3.149-2.047,4.693c-1.134,0.976-2.552,1.479-4.535,1.479c-2.11,0-3.969-0.472-5.417-2.11
			c-1.386-1.605-2.016-3.716-2.016-6.267c0-7.244,5.322-8.252,7.433-8.252c2.96,0,6.456,1.638,6.487,5.952H77.629z"/>
		<path fill="#00435B" d="M94.32,97.368c-1.512,0.41-2.866,0.504-3.622,0.504c-4.692,0-4.692-2.96-4.692-4.283v-8.724H82.95v-3.087
			h3.056v-3.117l4.629-1.701v4.818h3.779v3.087h-3.779v7.181c0.031,1.449,0.031,2.362,2.11,2.362c0.692,0,1.008-0.032,1.575-0.095
			V97.368z"/>
		<path fill="#00435B" d="M97.059,74.85h4.977v4.063h-4.977V74.85z M97.217,81.653h4.661v15.936h-4.661V81.653z"/>
		<path fill="#00435B" d="M113.467,81.306c5.764,0,8.252,3.905,8.252,8.346c0,4.472-2.583,8.503-8.346,8.503
			c-4.535,0-8.126-2.803-8.126-8.377C105.247,85.936,107.199,81.306,113.467,81.306z M113.53,94.912
			c2.047,0,3.433-1.229,3.433-5.448c0-2.11-0.409-5.039-3.496-5.039c-3.401,0-3.433,3.937-3.433,5.385
			C110.034,93.368,111.23,94.912,113.53,94.912z"/>
		<path fill="#00435B" d="M125.276,84.518c0-0.063,0-1.795-0.095-2.897h4.473l0.125,2.394c0.441-0.725,1.701-2.771,5.166-2.771
			c3.117,0,4.44,1.89,4.85,2.992c0.347,0.977,0.441,1.795,0.441,4.756v8.598h-4.756V87.7c0-0.662,0-1.229-0.252-1.732
			c-0.347-0.693-1.071-1.354-2.268-1.354c-1.008,0-1.922,0.473-2.426,1.229c-0.283,0.409-0.566,1.196-0.566,2.425v9.322h-4.692
			V84.518z"/>
		<path fill="#00435B" d="M147.699,92.991c0.063,1.008,0.692,2.173,2.645,2.173c1.67,0,2.457-0.945,2.457-1.89
			c0-0.725-0.378-1.291-2.205-1.795l-2.896-0.788c-1.292-0.378-4.031-1.165-4.031-4.409c0-3.086,2.834-4.976,6.96-4.976
			c3.275,0,5.921,1.512,6.047,4.692h-4.252c-0.126-1.764-1.543-1.89-2.268-1.89c-1.26,0-2.204,0.599-2.204,1.575
			c0,1.07,0.787,1.291,2.173,1.669l2.866,0.787c2.896,0.787,4.251,2.268,4.251,4.44c0,2.74-2.362,5.48-7.307,5.48
			c-2.047,0-3.999-0.441-5.448-1.953c-1.039-1.102-1.134-2.361-1.165-3.117H147.699z"/>
	</g>
	<g>
		<path fill="#00435B" d="M1.732,112.067h4.977v4.063H1.732V112.067z M1.89,118.87h4.661v15.937H1.89V118.87z"/>
		<path fill="#00435B" d="M10.708,121.736c0-0.063,0-1.795-0.095-2.897h4.473l0.125,2.394c0.441-0.724,1.701-2.771,5.166-2.771
			c3.117,0,4.44,1.89,4.85,2.992c0.347,0.977,0.441,1.795,0.441,4.756v8.598h-4.756v-9.89c0-0.661,0-1.228-0.252-1.731
			c-0.347-0.693-1.071-1.354-2.268-1.354c-1.008,0-1.922,0.473-2.426,1.229c-0.283,0.409-0.566,1.196-0.566,2.425v9.322h-4.692
			V121.736z"/>
		<path fill="#00435B" d="M43.02,118.902l0.125,2.268c1.449-2.552,4.095-2.583,4.851-2.583c4.126,0,6.614,3.087,6.614,7.937
			c0,4.504-2.331,8.504-6.93,8.504c-2.865,0-4.031-1.512-4.44-2.048v7.938h-4.755v-22.015H43.02z M49.885,126.712
			c0-1.89-0.473-5.134-3.213-5.134c-1.512,0-3.652,1.134-3.652,5.417c0,0.944,0.031,4.976,3.464,4.976
			C48.688,131.971,49.885,129.862,49.885,126.712z"/>
		<path fill="#00435B" d="M67.426,134.806c-0.157-0.977-0.157-1.7-0.157-2.173c-1.764,2.551-3.874,2.551-4.756,2.551
			c-2.299,0-3.339-0.661-3.968-1.26c-0.945-0.945-1.387-2.236-1.387-3.496s0.441-3.59,3.37-4.944
			c1.953-0.882,4.756-0.882,6.299-0.882c0-1.039-0.031-1.543-0.22-2.11c-0.41-1.165-1.639-1.322-2.079-1.322
			c-0.661,0-1.354,0.283-1.764,0.882c-0.347,0.535-0.347,1.039-0.347,1.417h-4.566c0.031-0.851,0.126-2.551,1.795-3.748
			c1.449-1.039,3.307-1.291,4.818-1.291c1.323,0,4.095,0.221,5.67,2.047c1.07,1.292,1.102,3.181,1.102,3.905l0.031,6.394
			c0,1.354,0.095,2.708,0.379,4.031H67.426z M61.693,129.893c0,1.07,0.725,2.268,2.268,2.268c0.851,0,1.544-0.409,1.984-0.913
			c0.819-1.008,0.882-2.236,0.882-3.937C63.836,127.059,61.693,128.003,61.693,129.893z"/>
		<path fill="#00435B" d="M84.746,134.585c-1.512,0.409-2.865,0.504-3.621,0.504c-4.693,0-4.693-2.96-4.693-4.283v-8.724h-3.055
			v-3.086h3.055v-3.118l4.63-1.701v4.819h3.779v3.086h-3.779v7.181c0.032,1.448,0.032,2.362,2.11,2.362
			c0.693,0,1.008-0.031,1.574-0.095V134.585z"/>
		<path fill="#00435B" d="M87.486,112.067h4.976v4.063h-4.976V112.067z M87.644,118.87h4.661v15.937h-4.661V118.87z"/>
		<path fill="#00435B" d="M100.146,128.035c0,1.04,0,4.252,3.243,4.252c1.165,0,2.331-0.44,2.771-2.204h4.252
			c-0.063,0.756-0.221,2.109-1.512,3.464c-1.165,1.229-3.244,1.858-5.574,1.858c-1.354,0-3.937-0.252-5.606-1.984
			c-1.448-1.512-2.047-3.653-2.047-6.204c0-2.583,0.63-5.669,3.307-7.527c1.229-0.819,2.74-1.323,4.473-1.323
			c2.268,0,4.976,0.883,6.425,3.843c1.07,2.173,1.008,4.504,0.944,5.826H100.146z M106.066,125.106c0-0.725-0.063-3.559-2.771-3.559
			c-2.047,0-2.896,1.7-2.991,3.559H106.066z"/>
		<path fill="#00435B" d="M113.971,121.736c0-0.063,0-1.795-0.094-2.897h4.472l0.126,2.394c0.441-0.724,1.701-2.771,5.165-2.771
			c3.118,0,4.44,1.89,4.851,2.992c0.346,0.977,0.44,1.795,0.44,4.756v8.598h-4.756v-9.89c0-0.661,0-1.228-0.252-1.731
			c-0.347-0.693-1.07-1.354-2.268-1.354c-1.008,0-1.921,0.473-2.425,1.229c-0.283,0.409-0.566,1.196-0.566,2.425v9.322h-4.693
			V121.736z"/>
		<path fill="#00435B" d="M142.504,134.585c-1.512,0.409-2.866,0.504-3.622,0.504c-4.692,0-4.692-2.96-4.692-4.283v-8.724h-3.056
			v-3.086h3.056v-3.118l4.629-1.701v4.819h3.779v3.086h-3.779v7.181c0.031,1.448,0.031,2.362,2.11,2.362
			c0.692,0,1.008-0.031,1.575-0.095V134.585z"/>
		<path fill="#00435B" d="M148.644,130.208c0.063,1.008,0.692,2.174,2.646,2.174c1.669,0,2.457-0.945,2.457-1.89
			c0-0.725-0.379-1.292-2.205-1.796l-2.897-0.787c-1.291-0.378-4.031-1.165-4.031-4.409c0-3.086,2.835-4.976,6.96-4.976
			c3.275,0,5.921,1.512,6.047,4.692h-4.252c-0.125-1.764-1.543-1.89-2.268-1.89c-1.26,0-2.204,0.599-2.204,1.574
			c0,1.071,0.787,1.292,2.173,1.67l2.866,0.787c2.897,0.787,4.252,2.268,4.252,4.44c0,2.74-2.362,5.48-7.307,5.48
			c-2.048,0-4-0.441-5.448-1.953c-1.04-1.103-1.135-2.362-1.166-3.118H148.644z"/>
	</g>
	<g>
		<path fill="#00435B" d="M4.945,156.121l2.929,11.999l3.37-11.999h5.133l3.339,11.999l3.118-11.999h4.629l-5.448,15.904h-5.07
			l-3.275-11.778l-3.339,11.778H5.197L0,156.121H4.945z"/>
		<path fill="#00435B" d="M29.729,149.286h4.977v4.063h-4.977V149.286z M29.887,156.088h4.661v15.937h-4.661V156.088z"/>
		<path fill="#00435B" d="M47.995,171.804c-1.512,0.409-2.866,0.504-3.622,0.504c-4.692,0-4.692-2.96-4.692-4.283v-8.724h-3.055
			v-3.086h3.055v-3.118l4.63-1.701v4.819h3.779v3.086h-3.779v7.181c0.031,1.448,0.031,2.362,2.109,2.362
			c0.693,0,1.008-0.031,1.575-0.095V171.804z"/>
		<path fill="#00435B" d="M51.018,149.286h4.63v9.008c0.535-0.756,1.7-2.394,4.599-2.394c2.361,0,3.873,1.165,4.629,2.142
			c0.567,0.787,1.039,2.236,1.039,4.314v9.669h-4.629v-9.511c0-0.914,0-3.465-2.614-3.465c-1.323,0-2.992,0.756-2.992,3.244
			l0.032,9.731h-4.693V149.286z"/>
		<path fill="#00435B" d="M91.832,156.687c-0.094-0.787-0.377-3.999-3.685-3.999c-3.622,0-5.134,3.779-5.134,8.472
			c0,1.354,0,7.811,4.756,7.811c2.047,0,4-1.292,4.095-4.315h5.134c-0.095,1.354-0.221,3.465-2.048,5.354
			c-2.016,2.079-4.566,2.551-6.646,2.551c-7.842,0-10.393-5.795-10.393-11.433c0-7.212,4.031-11.999,10.425-11.999
			c4.976,0,8.472,3.023,8.472,7.559H91.832z"/>
		<path fill="#00435B" d="M99.956,149.254h4.882v9.102h8.598v-9.102h4.945v22.771h-4.882v-9.983h-8.661v9.983h-4.882V149.254z"/>
		<path fill="#00435B" d="M122.631,149.318l7.527,0.031c1.26,0,5.102,0.031,7.842,2.047c2.865,2.11,3.873,5.7,3.873,8.944
			c0,6.992-3.747,10.646-8.063,11.433c-0.85,0.157-1.795,0.252-4.094,0.252h-7.086V149.318z M127.575,168.277
			c0.535,0.032,1.354,0.063,1.921,0.063c2.079,0,3.874-0.158,5.291-1.575c1.922-1.921,2.047-5.322,2.047-6.425
			c0-3.212-1.102-6.173-4.156-7.023c-1.008-0.283-2.3-0.44-5.103-0.314V168.277z"/>
	</g>
	<g>
		<path fill="#00435B" d="M145.064,150.652c1.193-0.514,2.332-1.156,3.396-1.927h2.368v12.813h-2.772v-9.968
			c-0.531,0.404-1.596,1.065-2.992,1.634V150.652z"/>
		<path fill="#00435B" d="M158.118,159.096l-2.185,4.516h-1.891l1.359-4.516H158.118z"/>
		<path fill="#00435B" d="M159.093,158.95l3.322-3.029c0.587-0.532,1.249-1.119,1.928-1.945c0.716-0.863,0.881-1.267,0.881-1.854
			c0-0.973-0.569-1.634-1.523-1.634c-1.469,0-1.597,1.506-1.615,1.873h-2.809c0-0.515,0-1.469,0.753-2.405
			c0.734-0.918,2.092-1.395,3.652-1.395c2.791,0,4.332,1.505,4.332,3.487c0,1.321-0.514,3.029-6.058,7.489
			c1.854-0.036,2.075-0.055,3.524-0.073c1.965-0.037,2.185-0.037,2.607-0.055v2.129h-8.995V158.95z"/>
	</g>
	<g>
		<g>
			<path fill="#00435B" d="M169.57,147.991l3.876,0.561l-2.397-3.034l2.372-1.301l1.428,3.519l1.504-3.595l2.371,1.402l-2.498,3.009
				l3.9-0.459l-0.051,2.703l-3.799-0.587l2.396,3.137l-2.371,1.3l-1.479-3.595l-1.479,3.62l-2.295-1.377l2.372-3.11l-3.851,0.51
				V147.991z"/>
		</g>
	</g>
</g>
</svg>
