<?xml version="1.0" encoding="utf-8"?>
<!-- Generator: Adobe Illustrator 17.0.0, SVG Export Plug-In . SVG Version: 6.00 Build 0)  -->
<!DOCTYPE svg PUBLIC "-//W3C//DTD SVG 1.1//EN" "http://www.w3.org/Graphics/SVG/1.1/DTD/svg11.dtd">
<svg version="1.1" id="Layer_1" xmlns="http://www.w3.org/2000/svg" xmlns:xlink="http://www.w3.org/1999/xlink" x="0px" y="0px"
	 width="489.002px" height="399.148px" viewBox="0 0 489.002 399.148" enable-background="new 0 0 489.002 399.148"
	 xml:space="preserve">
<g>
	
		<line fill="none" stroke="#04617D" stroke-width="1.95" stroke-miterlimit="10" x1="462.773" y1="302.505" x2="462.773" y2="292.311"/>
	<g>
		<path fill="#04607D" d="M465.808,309.105c-0.015-1.183-0.891-1.504-1.533-1.504c-1.46,0-2.103,1.256-2.234,3.942
			c0.321-0.468,0.876-1.285,2.351-1.285c1.65,0,3.053,1.096,3.053,3.242c0,2.351-1.68,3.533-3.418,3.533
			c-0.978,0-1.956-0.394-2.496-1.095c-0.745-0.993-0.92-2.438-0.92-3.724c0-2.205,0.54-5.71,3.738-5.71
			c1.328,0,2.073,0.584,2.424,0.964c0.511,0.599,0.525,1.241,0.54,1.636H465.808z M466.042,313.631c0-0.715-0.204-2.249-1.884-2.249
			c-1.358,0-2.015,1.11-2.015,2.264c0,1.314,0.817,2.278,1.941,2.278C464.991,315.924,466.042,315.282,466.042,313.631z"/>
	</g>
	<g>
		<radialGradient id="SVGID_1_" cx="244.5011" cy="188.983" r="218.5124" gradientUnits="userSpaceOnUse">
			<stop  offset="0" style="stop-color:#A0D4E4;stop-opacity:0"/>
			<stop  offset="0.0392" style="stop-color:#9DD2E5;stop-opacity:0.197"/>
			<stop  offset="0.0707" style="stop-color:#93CDE6;stop-opacity:0.3552"/>
			<stop  offset="0.0995" style="stop-color:#82C4E9;stop-opacity:0.5"/>
			<stop  offset="0.1267" style="stop-color:#6AB8ED;stop-opacity:0.6367"/>
			<stop  offset="0.1528" style="stop-color:#4BA8F2;stop-opacity:0.7679"/>
			<stop  offset="0.1777" style="stop-color:#2694F9;stop-opacity:0.893"/>
			<stop  offset="0.199" style="stop-color:#0080FF"/>
			<stop  offset="0.2012" style="stop-color:#007FFC"/>
			<stop  offset="0.2379" style="stop-color:#006CD3"/>
			<stop  offset="0.2776" style="stop-color:#015BAF"/>
			<stop  offset="0.3223" style="stop-color:#014D8F"/>
			<stop  offset="0.3717" style="stop-color:#014073"/>
			<stop  offset="0.4275" style="stop-color:#02365D"/>
			<stop  offset="0.4927" style="stop-color:#022E4C"/>
			<stop  offset="0.5733" style="stop-color:#022941"/>
			<stop  offset="0.6863" style="stop-color:#02263A"/>
			<stop  offset="1" style="stop-color:#022538"/>
		</radialGradient>
		<path fill="url(#SVGID_1_)" d="M489.002,332.553c0,15.637-12.676,28.313-28.313,28.313c0,0-169.933,17.317-226.791,17.098
			c-51.573-0.199-205.585-17.098-205.585-17.098C12.676,360.866,0,348.19,0,332.553V42.081c0-15.637,12.676-28.313,28.313-28.313
			c0,0,154.188-13.768,205.585-13.768c56.698,0,226.791,13.768,226.791,13.768c15.637,0,28.313,12.676,28.313,28.313V332.553z"/>
		<g>
			<radialGradient id="SVGID_2_" cx="244.5011" cy="188.983" r="213.8309" gradientUnits="userSpaceOnUse">
				<stop  offset="0" style="stop-color:#FFFFFF"/>
				<stop  offset="1" style="stop-color:#F7F7F7"/>
			</radialGradient>
			<path fill="url(#SVGID_2_)" d="M483.764,329.477c0,15.302-12.405,27.707-27.707,27.707c0,0-166.292,16.946-221.932,16.731
				c-50.468-0.195-201.18-16.731-201.18-16.731c-15.302,0-27.707-12.405-27.707-27.707V45.228c0-15.302,12.405-27.707,27.707-27.707
				c0,0,150.885-13.473,201.18-13.473c55.483,0,221.932,13.473,221.932,13.473c15.302,0,27.707,12.405,27.707,27.707V329.477z"/>
		</g>
		<g>
			<defs>
				<rect id="SVGID_51_" x="10.775" y="25.394" width="466.488" height="316.637"/>
			</defs>
			<clipPath id="SVGID_4_">
				<use xlink:href="#SVGID_51_"  overflow="visible"/>
			</clipPath>
			<g opacity="0.9" clip-path="url(#SVGID_4_)">
				<g>
					<defs>
						<rect id="SVGID_53_" x="10.773" y="25.394" width="466.495" height="316.637"/>
					</defs>
					<clipPath id="SVGID_6_">
						<use xlink:href="#SVGID_53_"  overflow="visible"/>
					</clipPath>
					<g clip-path="url(#SVGID_6_)">
						<defs>
							<rect id="SVGID_55_" x="10.773" y="25.394" width="466.49" height="316.637"/>
						</defs>
						<clipPath id="SVGID_8_">
							<use xlink:href="#SVGID_55_"  overflow="visible"/>
						</clipPath>
					</g>
				</g>
			</g>
		</g>
		<line fill="none" stroke="#04617D" stroke-width="1.95" stroke-miterlimit="10" x1="70.13" y1="50.385" x2="70.13" y2="301.866"/>
		
			<line fill="none" stroke="#04617D" stroke-width="1.95" stroke-miterlimit="10" x1="61.973" y1="292.692" x2="463.664" y2="292.692"/>
		
			<line fill="none" stroke="#04617D" stroke-width="1.95" stroke-miterlimit="10" x1="60.954" y1="49.704" x2="71.149" y2="49.704"/>
		
			<line fill="none" stroke="#04617D" stroke-width="1.95" stroke-miterlimit="10" x1="60.954" y1="156.728" x2="71.149" y2="156.728"/>
		
			<line fill="none" stroke="#04617D" stroke-width="1.95" stroke-miterlimit="10" x1="60.954" y1="123.111" x2="71.149" y2="123.111"/>
		
			<line fill="none" stroke="#04617D" stroke-width="1.95" stroke-miterlimit="10" x1="60.954" y1="189.608" x2="71.149" y2="189.608"/>
		
			<line fill="none" stroke="#04617D" stroke-width="1.95" stroke-miterlimit="10" x1="60.954" y1="226.426" x2="71.149" y2="226.426"/>
		
			<line fill="none" stroke="#04617D" stroke-width="1.95" stroke-miterlimit="10" x1="60.954" y1="258.026" x2="71.149" y2="258.026"/>
		
			<line fill="none" stroke="#04617D" stroke-width="1.95" stroke-miterlimit="10" x1="137.248" y1="303.06" x2="137.248" y2="292.863"/>
		
			<line fill="none" stroke="#04617D" stroke-width="1.95" stroke-miterlimit="10" x1="203.687" y1="303.06" x2="203.687" y2="292.863"/>
		
			<line fill="none" stroke="#04617D" stroke-width="1.95" stroke-miterlimit="10" x1="334.185" y1="302.887" x2="334.185" y2="292.693"/>
		
			<line fill="none" stroke="#04617D" stroke-width="1.95" stroke-miterlimit="10" x1="266.897" y1="302.887" x2="266.897" y2="292.693"/>
		<g>
			<path fill="#04607D" d="M230.467,333.472v-9.302h-3.534v-1.241h8.513v1.241h-3.533v9.302H230.467z"/>
			<path fill="#04607D" d="M236.978,322.958h1.649v1.504h-1.649V322.958z M237.124,326.142h1.373v7.33h-1.373V326.142z"/>
			<path fill="#04607D" d="M241.154,327.119l-0.029-0.978h1.388v1.065c0.701-1.153,1.693-1.256,2.321-1.256
				c1.621,0,2.132,0.832,2.396,1.373c0.248-0.409,0.846-1.373,2.467-1.373c1.052,0,2.688,0.438,2.688,2.6v4.921h-1.387v-4.702
				c0-0.643-0.117-0.92-0.249-1.109c-0.233-0.336-0.7-0.643-1.401-0.643c-0.891,0-1.373,0.511-1.563,0.773
				c-0.322,0.453-0.322,1.256-0.322,1.577v4.104h-1.387v-4.848c0-0.906-0.525-1.606-1.605-1.606c-0.936,0-1.446,0.584-1.607,0.803
				c-0.307,0.424-0.32,1.022-0.32,1.489v4.162h-1.388V327.119z"/>
			<path fill="#04607D" d="M255.783,330.055c-0.028,1.519,0.599,2.643,2.103,2.643c0.891,0,1.607-0.467,1.724-1.519h1.372
				c-0.043,0.365-0.102,0.964-0.627,1.533c-0.322,0.365-1.052,0.979-2.527,0.979c-2.307,0-3.402-1.431-3.402-3.753
				c0-1.445,0.293-2.643,1.446-3.446c0.7-0.496,1.577-0.54,2.001-0.54c3.285,0,3.212,2.906,3.184,4.104H255.783z M259.653,329.091
				c0.014-0.701-0.117-2.161-1.811-2.161c-0.891,0-1.972,0.54-2.001,2.161H259.653z"/>
			<path fill="#04607D" d="M268.645,335.268c-0.788-1.942-1.737-4.366-1.737-6.498c0-1.153,0.263-2.293,0.599-3.402
				c0.409-1.314,0.789-2.249,1.037-2.877h0.963c-0.232,0.716-0.555,1.709-0.861,3.096c-0.307,1.344-0.408,2.249-0.408,3.154
				c0,2.074,0.511,3.753,1.357,6.527H268.645z"/>
			<path fill="#04607D" d="M275.29,333.516l-1.053,2.73h-1.416l1.109-2.804l-3.051-7.301h1.547l2.293,5.782l2.336-5.782h1.49
				L275.29,333.516z"/>
			<path fill="#04607D" d="M280.938,330.055c-0.028,1.519,0.6,2.643,2.104,2.643c0.891,0,1.606-0.467,1.723-1.519h1.373
				c-0.044,0.365-0.102,0.964-0.628,1.533c-0.321,0.365-1.052,0.979-2.526,0.979c-2.307,0-3.402-1.431-3.402-3.753
				c0-1.445,0.292-2.643,1.445-3.446c0.701-0.496,1.578-0.54,2.001-0.54c3.286,0,3.212,2.906,3.184,4.104H280.938z M284.809,329.091
				c0.014-0.701-0.117-2.161-1.812-2.161c-0.891,0-1.972,0.54-2.001,2.161H284.809z"/>
			<path fill="#04607D" d="M292.692,333.472c-0.102-0.365-0.131-0.716-0.131-1.095c-0.657,1.212-1.65,1.328-2.264,1.328
				c-1.68,0-2.584-0.949-2.584-2.161c0-0.584,0.204-1.519,1.285-2.146c0.788-0.438,1.956-0.481,2.54-0.481
				c0.351,0,0.569,0.015,0.993,0.043c0-0.905,0-1.299-0.263-1.62c-0.277-0.365-0.876-0.482-1.271-0.482
				c-1.387,0-1.461,0.949-1.475,1.241h-1.373c0.044-0.38,0.088-0.891,0.512-1.387c0.555-0.613,1.592-0.789,2.365-0.789
				c1.066,0,2.205,0.336,2.6,1.081c0.233,0.438,0.248,0.788,0.248,1.124l-0.059,3.505c0,0.117,0.015,1.095,0.117,1.84H292.692z
				 M291.743,329.866c-0.555,0-2.643,0-2.643,1.489c0,0.467,0.292,1.271,1.519,1.271c0.701,0,1.227-0.277,1.563-0.789
				c0.307-0.496,0.321-0.905,0.351-1.928C292.284,329.88,292.079,329.866,291.743,329.866z"/>
			<path fill="#04607D" d="M296.415,327.631c0-0.497-0.029-1.008-0.072-1.489h1.387l0.029,1.416
				c0.263-1.022,1.139-1.358,1.752-1.445c0.409-0.059,0.716-0.044,0.949-0.029v1.343c-0.072-0.028-0.16-0.043-0.263-0.058
				s-0.233-0.015-0.394-0.015c-1.621,0-2.002,0.964-2.002,2.22v3.898h-1.387V327.631z"/>
			<path fill="#04607D" d="M303.086,331.296c-0.014,0.555,0.277,1.329,1.606,1.329c0.569,0,0.993-0.103,1.285-0.468
				c0.146-0.189,0.233-0.438,0.233-0.687c0-0.715-0.511-0.847-1.605-1.095c-1.533-0.351-2.818-0.657-2.818-2.19
				c0-1.344,1.168-2.22,2.861-2.22c0.92,0,2.205,0.263,2.644,1.139c0.189,0.409,0.189,0.76,0.189,1.066h-1.401
				c0.043-1.109-0.92-1.197-1.416-1.197c-0.205,0-1.49,0-1.49,1.051c0,0.672,0.657,0.833,1.037,0.935
				c2.029,0.482,2.468,0.6,2.906,1.008c0.408,0.38,0.555,0.891,0.555,1.358c0,0.817-0.453,1.519-0.993,1.854
				c-0.643,0.395-1.417,0.496-2.176,0.496c-1.489,0-2.877-0.613-2.862-2.38H303.086z"/>
			<path fill="#04607D" d="M310.373,322.491c0.788,1.942,1.737,4.352,1.737,6.483c0,1.154-0.263,2.293-0.599,3.403
				c-0.409,1.313-0.788,2.263-1.036,2.891h-0.965c0.234-0.729,0.556-1.723,0.862-3.11c0.307-1.329,0.409-2.249,0.409-3.154
				c0-2.059-0.512-3.738-1.358-6.513H310.373z"/>
		</g>
		<g>
			<path fill="#04607D" d="M19.453,258.411v-2.584l8.688-2.979l-8.688-3.052v-2.409h10.543v1.431h-9.491l9.491,3.461v1.387
				l-9.433,3.33h9.433v1.416H19.453z"/>
			<path fill="#04607D" d="M29.996,240.19c-0.365,0.103-0.716,0.132-1.095,0.132c1.211,0.657,1.328,1.65,1.328,2.264
				c0,1.679-0.949,2.584-2.161,2.584c-0.584,0-1.519-0.204-2.146-1.284c-0.438-0.789-0.481-1.957-0.481-2.541
				c0-0.351,0.014-0.569,0.043-0.993c-0.904,0-1.299,0-1.621,0.263c-0.364,0.277-0.481,0.876-0.481,1.271
				c0,1.388,0.949,1.46,1.241,1.475v1.373c-0.379-0.044-0.891-0.088-1.387-0.511c-0.613-0.556-0.789-1.592-0.789-2.366
				c0-1.065,0.336-2.205,1.081-2.6c0.438-0.233,0.788-0.248,1.124-0.248l3.505,0.059c0.116,0,1.095-0.015,1.84-0.117V240.19z
				 M26.389,241.139c0,0.556,0,2.644,1.489,2.644c0.468,0,1.271-0.292,1.271-1.519c0-0.701-0.277-1.227-0.789-1.563
				c-0.496-0.307-0.905-0.321-1.928-0.351C26.403,240.599,26.389,240.804,26.389,241.139z"/>
			<path fill="#04607D" d="M19.482,236.628v-1.665H21v1.665H19.482z M31.835,237.84c0.044-1.081-0.146-1.344-1.313-1.344h-7.857
				v-1.372h8.018c0.701,0,2.19,0.029,2.19,1.869c0,0.175-0.015,0.467-0.059,0.847H31.835z"/>
			<path fill="#04607D" d="M22.475,229.298c0-2.935,2.307-3.592,3.841-3.592c2.146,0,3.928,1.212,3.928,3.709
				c0,2.424-1.679,3.606-3.825,3.606C24.608,233.022,22.475,232.175,22.475,229.298z M29.221,229.386c0-1.037-0.744-2.22-2.949-2.22
				c-1.825,0-2.789,0.847-2.789,2.132c0,0.877,0.555,2.293,2.848,2.293C27.834,231.591,29.221,230.949,29.221,229.386z"/>
			<path fill="#04607D" d="M24.155,223.489c-0.496,0-1.008,0.029-1.49,0.073v-1.387l1.417-0.029
				c-1.022-0.263-1.358-1.14-1.446-1.753c-0.058-0.408-0.043-0.715-0.029-0.949h1.344c-0.029,0.073-0.043,0.161-0.059,0.263
				c-0.014,0.103-0.014,0.234-0.014,0.395c0,1.621,0.963,2.001,2.219,2.001h3.899v1.387H24.155z"/>
			<path fill="#04607D" d="M22.299,207.472c-0.364,0.058-1.824,0.248-1.824,2.277c0,2.541,2.599,2.994,4.352,2.994
				c1.985,0,4.133-0.57,4.133-2.979c0-0.643-0.161-1.256-0.629-1.708c-0.408-0.38-0.861-0.468-1.109-0.512v-1.606
				c2.073,0.22,2.936,2.133,2.936,3.943c0,3.709-3.271,4.425-5.316,4.425c-2.219,0-5.533-0.862-5.533-4.615
				c0-1.489,0.598-3.592,2.992-3.781V207.472z"/>
			<path fill="#04607D" d="M29.996,199.617c-0.365,0.103-0.716,0.132-1.095,0.132c1.211,0.657,1.328,1.65,1.328,2.264
				c0,1.679-0.949,2.584-2.161,2.584c-0.584,0-1.519-0.204-2.146-1.284c-0.438-0.789-0.481-1.957-0.481-2.541
				c0-0.351,0.014-0.569,0.043-0.993c-0.904,0-1.299,0-1.621,0.263c-0.364,0.277-0.481,0.876-0.481,1.271
				c0,1.388,0.949,1.46,1.241,1.475v1.373c-0.379-0.044-0.891-0.088-1.387-0.511c-0.613-0.556-0.789-1.592-0.789-2.366
				c0-1.065,0.336-2.205,1.081-2.6c0.438-0.233,0.788-0.248,1.124-0.248l3.505,0.059c0.116,0,1.095-0.015,1.84-0.117V199.617z
				 M26.389,200.566c0,0.556,0,2.644,1.489,2.644c0.468,0,1.271-0.292,1.271-1.519c0-0.701-0.277-1.227-0.789-1.563
				c-0.496-0.307-0.905-0.321-1.928-0.351C26.403,200.026,26.389,200.23,26.389,200.566z"/>
			<path fill="#04607D" d="M24.155,195.894c-0.496,0-1.008,0.029-1.49,0.073v-1.387l1.417-0.029
				c-1.022-0.263-1.358-1.14-1.446-1.753c-0.058-0.408-0.043-0.715-0.029-0.949h1.344c-0.029,0.073-0.043,0.161-0.059,0.264
				c-0.014,0.102-0.014,0.233-0.014,0.394c0,1.621,0.963,2.001,2.219,2.001h3.899v1.387H24.155z"/>
			<path fill="#04607D" d="M19.467,185.206v-1.372h9.36c0.16,0,0.788-0.029,1.168-0.059v1.373l-1.168,0.029
				c0.204,0.116,0.511,0.277,0.774,0.656c0.408,0.599,0.539,1.314,0.539,1.812c0,0.978-0.511,3.153-3.723,3.153
				c-2.789,0-4.002-1.591-4.002-3.314c0-1.577,0.936-2.103,1.242-2.278H19.467z M24.184,185.718
				c-0.38,0.292-0.745,0.832-0.745,1.606c0,2.015,2.438,2.015,2.935,2.015c1.301,0,2.805-0.336,2.805-2.015
				c0-2.161-2.381-2.161-2.95-2.161C25.163,185.163,24.579,185.411,24.184,185.718z"/>
			<path fill="#04607D" d="M19.482,181.499v-1.65h1.504v1.65H19.482z M22.665,181.353v-1.372h7.331v1.372H22.665z"/>
			<path fill="#04607D" d="M22.475,174.125c0-2.935,2.307-3.592,3.841-3.592c2.146,0,3.928,1.212,3.928,3.709
				c0,2.424-1.679,3.606-3.825,3.606C24.608,177.849,22.475,177.002,22.475,174.125z M29.221,174.213c0-1.037-0.744-2.22-2.949-2.22
				c-1.825,0-2.789,0.847-2.789,2.132c0,0.877,0.555,2.293,2.848,2.293C27.834,176.418,29.221,175.776,29.221,174.213z"/>
			<path fill="#04607D" d="M22.665,169.498v-1.534l5.813-2.336l-5.813-2.278v-1.519l7.331,3.213v1.387L22.665,169.498z"/>
			<path fill="#04607D" d="M29.996,155.802c-0.365,0.103-0.716,0.132-1.095,0.132c1.211,0.657,1.328,1.65,1.328,2.264
				c0,1.679-0.949,2.584-2.161,2.584c-0.584,0-1.519-0.204-2.146-1.284c-0.438-0.789-0.481-1.957-0.481-2.541
				c0-0.351,0.014-0.569,0.043-0.993c-0.904,0-1.299,0-1.621,0.263c-0.364,0.277-0.481,0.876-0.481,1.271
				c0,1.388,0.949,1.46,1.241,1.475v1.373c-0.379-0.044-0.891-0.088-1.387-0.511c-0.613-0.556-0.789-1.592-0.789-2.366
				c0-1.065,0.336-2.205,1.081-2.6c0.438-0.233,0.788-0.248,1.124-0.248l3.505,0.059c0.116,0,1.095-0.015,1.84-0.117V155.802z
				 M26.389,156.751c0,0.556,0,2.644,1.489,2.644c0.468,0,1.271-0.292,1.271-1.519c0-0.701-0.277-1.227-0.789-1.563
				c-0.496-0.307-0.905-0.321-1.928-0.351C26.403,156.211,26.389,156.415,26.389,156.751z"/>
			<path fill="#04607D" d="M27.82,151.365c0.555,0.015,1.329-0.277,1.329-1.606c0-0.569-0.103-0.993-0.468-1.285
				c-0.189-0.146-0.438-0.233-0.687-0.233c-0.715,0-0.847,0.511-1.095,1.606c-0.351,1.533-0.657,2.817-2.19,2.817
				c-1.344,0-2.22-1.168-2.22-2.861c0-0.92,0.263-2.205,1.14-2.644c0.408-0.189,0.759-0.189,1.065-0.189v1.401
				c-1.11-0.044-1.197,0.92-1.197,1.417c0,0.204,0,1.489,1.052,1.489c0.672,0,0.832-0.657,0.934-1.037
				c0.482-2.029,0.6-2.468,1.008-2.905c0.38-0.409,0.891-0.556,1.358-0.556c0.817,0,1.519,0.453,1.854,0.993
				c0.395,0.643,0.496,1.417,0.496,2.176c0,1.489-0.613,2.877-2.38,2.862V151.365z"/>
			<path fill="#04607D" d="M25.016,140.677c-0.336,0.028-1.533,0.131-1.533,1.46c0,1.898,2.205,1.898,2.76,1.898
				c1.504,0,2.906-0.365,2.906-1.825c0-1.169-0.877-1.563-1.592-1.592v-1.388c1.431,0.088,2.629,1.153,2.629,2.965
				c0,0.496-0.104,1.635-0.949,2.409c-0.512,0.438-1.285,0.876-2.805,0.876c-3.052,0-3.957-1.869-3.957-3.329
				c0-0.482,0.103-1.577,0.905-2.25c0.628-0.54,1.228-0.584,1.636-0.613V140.677z"/>
			<path fill="#04607D" d="M22.665,136.297h4.717c0.716,0,1.621-0.16,1.621-1.563c0-0.687-0.233-1.329-0.817-1.723
				c-0.438-0.307-1.008-0.307-1.373-0.307h-4.147v-1.417h5.959c0.146,0,0.963-0.029,1.372-0.044v1.432l-1.256,0.029
				c0.511,0.263,1.329,0.759,1.329,2.336c0,1.811-1.037,2.658-2.482,2.658h-4.922V136.297z"/>
			<path fill="#04607D" d="M19.467,128.602v-1.372h10.528v1.372H19.467z"/>
			<path fill="#04607D" d="M29.996,120.104c-0.365,0.103-0.716,0.132-1.095,0.132c1.211,0.657,1.328,1.65,1.328,2.264
				c0,1.679-0.949,2.584-2.161,2.584c-0.584,0-1.519-0.204-2.146-1.284c-0.438-0.789-0.481-1.957-0.481-2.541
				c0-0.351,0.014-0.569,0.043-0.993c-0.904,0-1.299,0-1.621,0.263c-0.364,0.277-0.481,0.876-0.481,1.271
				c0,1.388,0.949,1.46,1.241,1.475v1.373c-0.379-0.044-0.891-0.088-1.387-0.511c-0.613-0.556-0.789-1.592-0.789-2.366
				c0-1.065,0.336-2.205,1.081-2.6c0.438-0.233,0.788-0.248,1.124-0.248l3.505,0.059c0.116,0,1.095-0.015,1.84-0.117V120.104z
				 M26.389,121.054c0,0.556,0,2.644,1.489,2.644c0.468,0,1.271-0.292,1.271-1.519c0-0.701-0.277-1.227-0.789-1.563
				c-0.496-0.307-0.905-0.321-1.928-0.351C26.403,120.513,26.389,120.718,26.389,121.054z"/>
			<path fill="#04607D" d="M24.155,116.382c-0.496,0-1.008,0.029-1.49,0.073v-1.387l1.417-0.029
				c-1.022-0.263-1.358-1.14-1.446-1.753c-0.058-0.408-0.043-0.715-0.029-0.949h1.344c-0.029,0.073-0.043,0.161-0.059,0.264
				c-0.014,0.102-0.014,0.233-0.014,0.394c0,1.621,0.963,2.001,2.219,2.001h3.899v1.387H24.155z"/>
			<path fill="#04607D" d="M19.453,106.893v-6.615h1.241v5.154h3.285v-4.906h1.227v4.906h3.505v-5.271h1.285v6.732H19.453z"/>
			<path fill="#04607D" d="M22.665,98.907v-1.534l5.813-2.336l-5.813-2.278V91.24l7.331,3.213v1.387L22.665,98.907z"/>
			<path fill="#04607D" d="M26.579,88.846c1.519,0.029,2.643-0.599,2.643-2.103c0-0.892-0.467-1.606-1.518-1.724v-1.373
				c0.364,0.044,0.963,0.103,1.533,0.628c0.365,0.321,0.979,1.052,0.979,2.526c0,2.308-1.432,3.402-3.754,3.402
				c-1.445,0-2.643-0.292-3.445-1.445c-0.497-0.701-0.541-1.577-0.541-2c0-3.286,2.906-3.213,4.104-3.184V88.846z M25.615,84.976
				c-0.7-0.015-2.161,0.117-2.161,1.811c0,0.892,0.541,1.972,2.161,2.001V84.976z"/>
			<path fill="#04607D" d="M23.512,81.517l-0.848,0.015V80.16l1.184-0.015c-0.307-0.161-1.329-0.687-1.329-2.352
				c0-0.657,0.248-2.657,2.497-2.657h4.979v1.401h-4.658c-0.481,0-0.92,0.059-1.256,0.395c-0.336,0.351-0.497,0.832-0.497,1.3
				c0,0.993,0.717,1.913,2.191,1.913h4.22v1.372H23.512z"/>
			<path fill="#04607D" d="M22.635,73.765v-1.3h-1.533l-0.438-1.358h1.971v-1.636h1.008v1.636h4.396c0.364,0,0.978,0,0.978-0.979
				c0-0.277-0.044-0.54-0.073-0.657h1.066c0.044,0.248,0.088,0.643,0.088,1.14c0,1.256-0.365,1.854-1.563,1.854h-4.893v1.3H22.635z"
				/>
			<path fill="#04607D" d="M31.791,62.202c-1.941,0.788-4.366,1.737-6.498,1.737c-1.153,0-2.293-0.263-3.402-0.599
				c-1.314-0.408-2.249-0.788-2.877-1.036v-0.964c0.716,0.233,1.709,0.555,3.096,0.861c1.344,0.307,2.249,0.409,3.154,0.409
				c2.074,0,3.753-0.512,6.527-1.358V62.202z"/>
			<path fill="#04607D" d="M30.565,57.442l-11.244-6.44v-0.964l11.244,6.44V57.442z M22.198,54.638c1.811,0,2.643,1.065,2.643,2.395
				c0,1.271-0.759,2.351-2.555,2.351c-1.533,0-2.672-0.832-2.672-2.482C19.614,55.222,20.87,54.638,22.198,54.638z M22.256,55.792
				c-0.716,0-1.768,0.175-1.768,1.212c0,1.256,1.432,1.256,1.782,1.256c0.335,0,1.724,0,1.724-1.256
				C23.995,55.792,22.548,55.792,22.256,55.792z M25.644,48.534c0.292-0.263,0.759-0.599,1.854-0.599
				c1.592,0,2.672,0.774,2.672,2.352c0,1.869-1.387,2.395-2.599,2.395c-1.767,0-2.629-1.096-2.629-2.395
				C24.943,49.892,25.016,49.103,25.644,48.534z M27.528,49.046c-0.453,0-1.768,0.087-1.768,1.227c0,1.256,1.52,1.256,1.957,1.256
				c0.512,0,1.592-0.117,1.592-1.227C29.309,49.133,28.053,49.046,27.528,49.046z"/>
			<path fill="#04607D" d="M19.014,45.105c1.942-0.789,4.352-1.738,6.484-1.738c1.152,0,2.292,0.263,3.402,0.599
				c1.314,0.409,2.263,0.789,2.891,1.037v0.964c-0.73-0.233-1.723-0.555-3.11-0.861c-1.329-0.307-2.249-0.409-3.153-0.409
				c-2.06,0-3.738,0.511-6.514,1.358V45.105z"/>
		</g>
		<g>
			<path fill="#04607D" d="M73.139,306.511c3.023,0,3.388,3.242,3.388,5.141c0,2.395-0.481,3.738-1.401,4.6
				c-0.716,0.672-1.563,0.773-2.016,0.773c-1.344,0-2.264-0.788-2.701-1.679c-0.336-0.672-0.657-1.65-0.657-3.461
				C69.751,310.381,69.926,306.511,73.139,306.511z M73.125,315.813c1.694,0,1.985-2.22,1.985-4.03c0-2.424-0.423-4.104-1.956-4.104
				c-1.767,0-2.001,2.322-2.001,4.133C71.153,314.061,71.591,315.813,73.125,315.813z"/>
		</g>
		<g>
			<path fill="#04607D" d="M54.787,287.487c3.022,0,3.388,3.242,3.388,5.141c0,2.395-0.482,3.738-1.402,4.6
				c-0.715,0.672-1.563,0.773-2.015,0.773c-1.343,0-2.263-0.788-2.701-1.679c-0.336-0.672-0.657-1.65-0.657-3.461
				C51.399,291.357,51.575,287.487,54.787,287.487z M54.772,296.788c1.693,0,1.986-2.22,1.986-4.03c0-2.424-0.424-4.104-1.957-4.104
				c-1.768,0-2,2.322-2,4.133C52.801,295.036,53.239,296.788,54.772,296.788z"/>
		</g>
		<g>
			<path fill="#04607D" d="M51.53,262.479l2.644-2.599c0.555-0.541,1.11-1.125,1.563-1.738c0.584-0.803,0.745-1.256,0.745-1.796
				c0-0.496-0.176-1.65-1.621-1.65c-1.621,0-1.65,1.388-1.65,1.768h-1.533c0.015-0.497,0.059-1.461,0.935-2.22
				c0.701-0.599,1.548-0.73,2.19-0.73c1.548,0,3.125,0.789,3.125,2.95c0,0.643-0.044,1.139-1.139,2.525
				c-0.293,0.365-1.578,1.694-1.869,1.986l-1.768,1.68h4.805v1.153H51.53V262.479z"/>
		</g>
		<g>
			<path fill="#04607D" d="M55.721,229.335h-4.557v-1.737l4.381-6.309h1.578v6.863h1.475v1.183h-1.475v2.19h-1.402V229.335z
				 M55.765,228.153v-5.33l-3.49,5.33H55.765z"/>
		</g>
		<g>
			<path fill="#04607D" d="M56.7,189.375c-0.015-1.183-0.891-1.504-1.533-1.504c-1.461,0-2.104,1.256-2.234,3.942
				c0.321-0.468,0.876-1.285,2.352-1.285c1.649,0,3.051,1.096,3.051,3.242c0,2.351-1.679,3.533-3.416,3.533
				c-0.979,0-1.957-0.394-2.498-1.095c-0.744-0.993-0.92-2.438-0.92-3.724c0-2.205,0.541-5.71,3.738-5.71
				c1.33,0,2.074,0.584,2.425,0.964c0.511,0.599,0.525,1.241,0.54,1.636H56.7z M56.933,193.902c0-0.715-0.204-2.249-1.884-2.249
				c-1.357,0-2.016,1.11-2.016,2.264c0,1.314,0.818,2.278,1.943,2.278C55.881,196.195,56.933,195.552,56.933,193.902z"/>
		</g>
		<g>
			<path fill="#04607D" d="M51.5,155.296c0-0.905,0.613-2.76,3.271-2.76c2.133,0,3.359,1.153,3.359,2.702
				c0,0.992-0.643,2.029-2.06,2.292c0.599,0.161,2.205,0.599,2.205,2.556c0,1.388-0.964,2.964-3.476,2.964
				c-0.861,0-1.884-0.175-2.613-0.847c-0.541-0.496-0.891-1.256-0.891-2.029c0-0.672,0.262-1.373,0.773-1.854
				c0.481-0.482,1.008-0.628,1.46-0.774C52.188,157.253,51.5,156.304,51.5,155.296z M54.801,161.897
				c1.621,0,2.016-1.139,2.016-1.898c0-1.124-0.833-1.854-1.986-1.854c-1.241,0-2.059,0.833-2.059,1.898
				C52.772,160.831,53.297,161.897,54.801,161.897z M54.831,153.617c-1.08,0-1.913,0.643-1.913,1.649
				c0,0.979,0.817,1.636,1.869,1.636c1.11,0,1.942-0.643,1.942-1.636C56.729,154.347,56.042,153.617,54.831,153.617z"/>
		</g>
		<g>
			<path fill="#04607D" d="M46.553,121.395c-0.629,0.526-1.637,1.125-2.352,1.461v-1.461c0.949-0.496,1.884-1.109,2.453-1.592h1.3
				v10.105h-1.401V121.395z"/>
			<path fill="#04607D" d="M53.94,119.599c3.023,0,3.388,3.242,3.388,5.141c0,2.395-0.481,3.738-1.401,4.6
				c-0.716,0.672-1.563,0.773-2.016,0.773c-1.344,0-2.264-0.788-2.701-1.679c-0.336-0.672-0.657-1.65-0.657-3.461
				C50.552,123.47,50.727,119.599,53.94,119.599z M53.925,128.901c1.694,0,1.985-2.22,1.985-4.03c0-2.424-0.423-4.104-1.956-4.104
				c-1.767,0-2.001,2.322-2.001,4.133C51.954,127.149,52.392,128.901,53.925,128.901z"/>
		</g>
		
			<line fill="none" stroke="#04617D" stroke-width="1.95" stroke-miterlimit="10" x1="60.954" y1="87.766" x2="71.149" y2="87.766"/>
		<g>
			<path fill="#04607D" d="M46.558,86.051c-0.628,0.526-1.636,1.125-2.351,1.461v-1.461c0.949-0.496,1.883-1.109,2.453-1.592h1.299
				v10.105h-1.401V86.051z"/>
			<path fill="#04607D" d="M51.288,93.235l2.643-2.599c0.556-0.541,1.11-1.125,1.563-1.738c0.584-0.803,0.745-1.256,0.745-1.796
				c0-0.496-0.175-1.65-1.62-1.65c-1.621,0-1.65,1.388-1.65,1.768h-1.533c0.014-0.497,0.059-1.461,0.934-2.22
				c0.701-0.599,1.549-0.73,2.191-0.73c1.547,0,3.125,0.789,3.125,2.95c0,0.643-0.045,1.139-1.14,2.525
				c-0.292,0.365-1.577,1.694-1.869,1.986l-1.767,1.68h4.805v1.153h-6.426V93.235z"/>
		</g>
		<g>
			<path fill="#04607D" d="M46.558,45.274c-0.628,0.526-1.636,1.125-2.351,1.461v-1.461c0.949-0.496,1.883-1.109,2.453-1.592h1.299
				v10.105h-1.401V45.274z"/>
			<path fill="#04607D" d="M55.186,51.597H50.63V49.86l4.381-6.309h1.577v6.863h1.475v1.183h-1.475v2.19h-1.402V51.597z
				 M55.231,50.415v-5.33l-3.49,5.33H55.231z"/>
		</g>
		<g>
			<path fill="#04607D" d="M137.983,306.44c-0.627,0.526-1.635,1.125-2.351,1.461v-1.461c0.949-0.496,1.884-1.109,2.453-1.592h1.3
				v10.105h-1.402V306.44z"/>
		</g>
		<g>
			<path fill="#04607D" d="M200.385,315.669l2.643-2.599c0.555-0.541,1.109-1.125,1.563-1.738c0.584-0.803,0.744-1.256,0.744-1.796
				c0-0.496-0.175-1.65-1.62-1.65c-1.621,0-1.65,1.388-1.65,1.768h-1.533c0.015-0.497,0.059-1.461,0.935-2.22
				c0.701-0.599,1.548-0.73,2.19-0.73c1.548,0,3.125,0.789,3.125,2.95c0,0.643-0.044,1.139-1.14,2.525
				c-0.291,0.365-1.576,1.694-1.869,1.986l-1.766,1.68h4.804v1.153h-6.425V315.669z"/>
		</g>
		<g>
			<path fill="#04607D" d="M264.917,314.399c-0.014,0.964,0.613,1.65,1.855,1.65c1.416,0,2.015-0.905,2.015-1.796
				c0-1.066-0.716-1.621-1.46-1.781c-0.526-0.103-0.891-0.088-1.402-0.073v-1.183c1.008,0.087,2.701-0.117,2.701-1.753
				c0-1.139-0.773-1.592-1.781-1.592c-0.76,0-1.709,0.336-1.84,1.592h-1.475c0.088-2.512,2.453-2.76,3.271-2.76
				c2.205,0,3.3,1.329,3.3,2.73c0,0.833-0.452,2.03-2.015,2.381c2.161,0.307,2.161,2.248,2.161,2.453
				c0,1.416-1.153,2.979-3.504,2.979c-1.066,0-2.133-0.307-2.775-1.051c-0.569-0.643-0.584-1.373-0.599-1.797H264.917z"/>
		</g>
		<g>
			<path fill="#04607D" d="M334.385,314.808h-4.557v-1.737l4.381-6.309h1.577v6.863h1.476v1.183h-1.476v2.19h-1.401V314.808z
				 M334.428,313.625v-5.33l-3.49,5.33H334.428z"/>
		</g>
		
			<line fill="none" stroke="#04617D" stroke-width="1.95" stroke-miterlimit="10" x1="398.417" y1="302.887" x2="398.417" y2="292.693"/>
		<g>
			<path fill="#04607D" d="M398.035,314.596c0.029,1.021,0.92,1.431,1.679,1.431c1.768,0,2.001-1.665,2.001-2.321
				c0-1.373-0.745-2.176-1.913-2.176c-0.584,0-1.051,0.219-1.357,0.525s-0.395,0.613-0.468,0.847h-1.329l0.264-6.017h5.68v1.184
				h-4.424l-0.19,3.271c0.307-0.307,0.949-0.935,2.132-0.935c2.03,0,3.023,1.592,3.023,3.329c0,1.986-1.402,3.49-3.607,3.49
				c-1.635,0-2.936-0.905-3.008-2.628H398.035z"/>
		</g>
		<g>
			<path fill="#04607D" d="M321.754,236.748h1.763l3.646,9.468h-1.776l-0.889-2.506h-3.779l-0.889,2.506h-1.71L321.754,236.748z
				 M321.17,242.451h2.891l-1.419-4.071h-0.04L321.17,242.451z"/>
			<path fill="#04607D" d="M327.16,239.361h1.141v-2.055h1.512v2.055h1.366v1.127h-1.366v3.66c0,0.623,0.053,0.941,0.729,0.941
				c0.212,0,0.424,0,0.637-0.053v1.166c-0.332,0.027-0.65,0.08-0.982,0.08c-1.578,0-1.869-0.61-1.896-1.75v-4.045h-1.141V239.361z"
				/>
			<path fill="#04607D" d="M331.945,242.782c0-2.095,1.259-3.606,3.46-3.606s3.461,1.512,3.461,3.606c0,2.108-1.26,3.62-3.461,3.62
				S331.945,244.89,331.945,242.782z M337.354,242.782c0-1.18-0.596-2.413-1.949-2.413c-1.352,0-1.949,1.233-1.949,2.413
				c0,1.193,0.598,2.427,1.949,2.427C336.758,245.208,337.354,243.975,337.354,242.782z"/>
			<path fill="#04607D" d="M340.122,239.361h1.42v1.326h0.025c0.173-0.729,1.074-1.512,2.003-1.512c0.345,0,0.438,0.026,0.57,0.04
				v1.458c-0.212-0.026-0.438-0.066-0.649-0.066c-1.035,0-1.857,0.836-1.857,2.348v3.262h-1.512V239.361z"/>
			<path fill="#04607D" d="M344.111,239.361h1.645l1.737,5.265h0.026l1.671-5.265h1.564l-2.453,6.855h-1.697L344.111,239.361z"/>
			<path fill="#04607D" d="M357.408,244.692c0,0.371,0.079,0.517,0.358,0.517c0.092,0,0.212,0,0.371-0.026v1.048
				c-0.226,0.079-0.703,0.172-0.955,0.172c-0.609,0-1.047-0.212-1.166-0.835c-0.598,0.583-1.565,0.835-2.374,0.835
				c-1.233,0-2.347-0.663-2.347-2.002c0-1.711,1.365-1.989,2.639-2.135c1.087-0.199,2.055-0.08,2.055-0.968
				c0-0.783-0.809-0.929-1.418-0.929c-0.85,0-1.445,0.345-1.512,1.087h-1.512c0.105-1.763,1.604-2.28,3.115-2.28
				c1.34,0,2.745,0.544,2.745,1.989V244.692z M355.896,242.782c-0.464,0.306-1.193,0.292-1.856,0.411
				c-0.649,0.106-1.232,0.345-1.232,1.141c0,0.676,0.861,0.875,1.392,0.875c0.663,0,1.697-0.345,1.697-1.3V242.782z"/>
			<path fill="#04607D" d="M360.176,244.015c0.079,0.875,0.742,1.193,1.551,1.193c0.57,0,1.564-0.119,1.525-0.901
				c-0.04-0.796-1.141-0.889-2.241-1.141c-1.114-0.238-2.201-0.637-2.201-2.028c0-1.499,1.618-1.963,2.864-1.963
				c1.405,0,2.678,0.583,2.863,2.108h-1.577c-0.133-0.716-0.729-0.915-1.393-0.915c-0.438,0-1.246,0.106-1.246,0.703
				c0,0.742,1.114,0.849,2.228,1.101c1.101,0.252,2.215,0.649,2.215,2.002c0,1.631-1.645,2.228-3.063,2.228
				c-1.724,0-3.011-0.769-3.036-2.387H360.176z"/>
			<path fill="#04607D" d="M365.224,239.361h1.141v-2.055h1.512v2.055h1.366v1.127h-1.366v3.66c0,0.623,0.053,0.941,0.729,0.941
				c0.212,0,0.424,0,0.637-0.053v1.166c-0.332,0.027-0.65,0.08-0.982,0.08c-1.578,0-1.869-0.61-1.896-1.75v-4.045h-1.141V239.361z"
				/>
			<path fill="#04607D" d="M376.069,244.692c0,0.371,0.08,0.517,0.357,0.517c0.094,0,0.213,0,0.372-0.026v1.048
				c-0.226,0.079-0.703,0.172-0.955,0.172c-0.61,0-1.048-0.212-1.167-0.835c-0.596,0.583-1.564,0.835-2.373,0.835
				c-1.233,0-2.348-0.663-2.348-2.002c0-1.711,1.366-1.989,2.639-2.135c1.088-0.199,2.056-0.08,2.056-0.968
				c0-0.783-0.809-0.929-1.419-0.929c-0.848,0-1.445,0.345-1.512,1.087h-1.512c0.106-1.763,1.605-2.28,3.117-2.28
				c1.338,0,2.744,0.544,2.744,1.989V244.692z M374.557,242.782c-0.464,0.306-1.193,0.292-1.856,0.411
				c-0.649,0.106-1.233,0.345-1.233,1.141c0,0.676,0.862,0.875,1.393,0.875c0.663,0,1.697-0.345,1.697-1.3V242.782z"/>
			<path fill="#04607D" d="M377.006,239.361h1.141v-2.055h1.512v2.055h1.366v1.127h-1.366v3.66c0,0.623,0.053,0.941,0.729,0.941
				c0.212,0,0.425,0,0.637-0.053v1.166c-0.331,0.027-0.649,0.08-0.981,0.08c-1.578,0-1.869-0.61-1.896-1.75v-4.045h-1.141V239.361z"
				/>
			<path fill="#04607D" d="M382.15,236.748h1.512v1.433h-1.512V236.748z M382.15,239.361h1.512v6.855h-1.512V239.361z"/>
			<path fill="#04607D" d="M385.304,239.361h1.433v1.008l0.026,0.026c0.45-0.756,1.233-1.22,2.135-1.22
				c1.485,0,2.427,0.796,2.427,2.334v4.707h-1.512v-4.31c-0.027-1.074-0.451-1.538-1.34-1.538c-1.008,0-1.657,0.796-1.657,1.804
				v4.044h-1.512V239.361z"/>
		</g>
		<g>
			<path fill="#04607D" d="M396.504,238.472c1.272,0.014,2.479-0.424,2.705-1.538h1.232v9.282h-1.657v-6.551h-2.28V238.472z"/>
			<path fill="#04607D" d="M410.065,241.576c0,2.108-0.543,4.826-3.209,4.826c-2.664,0-3.208-2.718-3.208-4.826
				s0.544-4.827,3.208-4.827C409.522,236.748,410.065,239.467,410.065,241.576z M408.553,241.576c0-1.937-0.371-3.567-1.697-3.567
				c-1.325,0-1.697,1.631-1.697,3.567c0,1.936,0.372,3.566,1.697,3.566C408.182,245.142,408.553,243.511,408.553,241.576z"/>
		</g>
		<g>
			<path fill="#04607D" d="M415.018,239.361h1.432v0.955h0.041c0.45-0.677,1.021-1.141,2.107-1.141c0.836,0,1.618,0.358,1.923,1.141
				c0.504-0.703,1.153-1.141,2.148-1.141c1.445,0,2.294,0.637,2.294,2.308v4.733h-1.512v-4.005c0-1.087-0.066-1.843-1.246-1.843
				c-1.021,0-1.459,0.677-1.459,1.83v4.018h-1.512v-4.402c0-0.941-0.291-1.445-1.207-1.445c-0.781,0-1.498,0.637-1.498,1.777v4.07
				h-1.512V239.361z"/>
			<path fill="#04607D" d="M432.887,245.858c0,2.056-1.207,3.077-3.368,3.077c-1.379,0-2.931-0.531-3.063-2.136h1.512
				c0.186,0.862,0.875,1.008,1.645,1.008c1.221,0,1.764-0.623,1.764-1.75v-1.048h-0.026c-0.425,0.756-1.206,1.207-2.056,1.207
				c-2.174,0-3.076-1.645-3.076-3.606c0-1.844,1.154-3.435,3.104-3.435c0.861,0,1.644,0.358,2.028,1.127h0.026v-0.941h1.512V245.858
				z M431.375,242.636c0-1.181-0.53-2.268-1.843-2.268c-1.339,0-1.804,1.246-1.804,2.387c0,1.127,0.544,2.268,1.804,2.268
				C430.872,245.023,431.375,243.803,431.375,242.636z"/>
		</g>
		<g>
			<path fill="#98C4D2" d="M321.754,262.501h1.763l3.646,9.468h-1.776l-0.889-2.506h-3.779l-0.889,2.506h-1.71L321.754,262.501z
				 M321.17,268.203h2.891l-1.419-4.071h-0.04L321.17,268.203z"/>
			<path fill="#98C4D2" d="M327.16,265.114h1.141v-2.056h1.512v2.056h1.366v1.127h-1.366v3.66c0,0.623,0.053,0.941,0.729,0.941
				c0.212,0,0.424,0,0.637-0.053v1.166c-0.332,0.027-0.65,0.08-0.982,0.08c-1.578,0-1.869-0.61-1.896-1.75v-4.045h-1.141V265.114z"
				/>
			<path fill="#98C4D2" d="M331.945,268.534c0-2.095,1.259-3.606,3.46-3.606s3.461,1.512,3.461,3.606c0,2.108-1.26,3.62-3.461,3.62
				S331.945,270.643,331.945,268.534z M337.354,268.534c0-1.18-0.596-2.413-1.949-2.413c-1.352,0-1.949,1.233-1.949,2.413
				c0,1.193,0.598,2.427,1.949,2.427C336.758,270.961,337.354,269.728,337.354,268.534z"/>
			<path fill="#98C4D2" d="M340.122,265.114h1.42v1.326h0.025c0.173-0.729,1.074-1.512,2.003-1.512c0.345,0,0.438,0.026,0.57,0.04
				v1.458c-0.212-0.026-0.438-0.066-0.649-0.066c-1.035,0-1.857,0.836-1.857,2.348v3.262h-1.512V265.114z"/>
			<path fill="#98C4D2" d="M344.111,265.114h1.645l1.737,5.265h0.026l1.671-5.265h1.564l-2.453,6.855h-1.697L344.111,265.114z"/>
			<path fill="#98C4D2" d="M357.408,270.445c0,0.371,0.079,0.517,0.358,0.517c0.092,0,0.212,0,0.371-0.026v1.048
				c-0.226,0.079-0.703,0.172-0.955,0.172c-0.609,0-1.047-0.212-1.166-0.835c-0.598,0.583-1.565,0.835-2.374,0.835
				c-1.233,0-2.347-0.663-2.347-2.002c0-1.711,1.365-1.989,2.639-2.135c1.087-0.199,2.055-0.08,2.055-0.968
				c0-0.783-0.809-0.929-1.418-0.929c-0.85,0-1.445,0.345-1.512,1.087h-1.512c0.105-1.763,1.604-2.28,3.115-2.28
				c1.34,0,2.745,0.544,2.745,1.989V270.445z M355.896,268.534c-0.464,0.306-1.193,0.292-1.856,0.411
				c-0.649,0.106-1.232,0.345-1.232,1.141c0,0.676,0.861,0.875,1.392,0.875c0.663,0,1.697-0.345,1.697-1.3V268.534z"/>
			<path fill="#98C4D2" d="M360.176,269.768c0.079,0.875,0.742,1.193,1.551,1.193c0.57,0,1.564-0.119,1.525-0.901
				c-0.04-0.796-1.141-0.889-2.241-1.141c-1.114-0.238-2.201-0.637-2.201-2.028c0-1.499,1.618-1.963,2.864-1.963
				c1.405,0,2.678,0.583,2.863,2.108h-1.577c-0.133-0.716-0.729-0.915-1.393-0.915c-0.438,0-1.246,0.106-1.246,0.703
				c0,0.742,1.114,0.849,2.228,1.101c1.101,0.252,2.215,0.649,2.215,2.002c0,1.631-1.645,2.228-3.063,2.228
				c-1.724,0-3.011-0.769-3.036-2.387H360.176z"/>
			<path fill="#98C4D2" d="M365.224,265.114h1.141v-2.056h1.512v2.056h1.366v1.127h-1.366v3.66c0,0.623,0.053,0.941,0.729,0.941
				c0.212,0,0.424,0,0.637-0.053v1.166c-0.332,0.027-0.65,0.08-0.982,0.08c-1.578,0-1.869-0.61-1.896-1.75v-4.045h-1.141V265.114z"
				/>
			<path fill="#98C4D2" d="M376.069,270.445c0,0.371,0.08,0.517,0.357,0.517c0.094,0,0.213,0,0.372-0.026v1.048
				c-0.226,0.079-0.703,0.172-0.955,0.172c-0.61,0-1.048-0.212-1.167-0.835c-0.596,0.583-1.564,0.835-2.373,0.835
				c-1.233,0-2.348-0.663-2.348-2.002c0-1.711,1.366-1.989,2.639-2.135c1.088-0.199,2.056-0.08,2.056-0.968
				c0-0.783-0.809-0.929-1.419-0.929c-0.848,0-1.445,0.345-1.512,1.087h-1.512c0.106-1.763,1.605-2.28,3.117-2.28
				c1.338,0,2.744,0.544,2.744,1.989V270.445z M374.557,268.534c-0.464,0.306-1.193,0.292-1.856,0.411
				c-0.649,0.106-1.233,0.345-1.233,1.141c0,0.676,0.862,0.875,1.393,0.875c0.663,0,1.697-0.345,1.697-1.3V268.534z"/>
			<path fill="#98C4D2" d="M377.006,265.114h1.141v-2.056h1.512v2.056h1.366v1.127h-1.366v3.66c0,0.623,0.053,0.941,0.729,0.941
				c0.212,0,0.425,0,0.637-0.053v1.166c-0.331,0.027-0.649,0.08-0.981,0.08c-1.578,0-1.869-0.61-1.896-1.75v-4.045h-1.141V265.114z"
				/>
			<path fill="#98C4D2" d="M382.15,262.501h1.512v1.433h-1.512V262.501z M382.15,265.114h1.512v6.855h-1.512V265.114z"/>
			<path fill="#98C4D2" d="M385.304,265.114h1.433v1.008l0.026,0.026c0.45-0.756,1.233-1.22,2.135-1.22
				c1.485,0,2.427,0.796,2.427,2.334v4.707h-1.512v-4.31c-0.027-1.074-0.451-1.538-1.34-1.538c-1.008,0-1.657,0.796-1.657,1.804
				v4.044h-1.512V265.114z"/>
		</g>
		<g>
			<path fill="#98C4D2" d="M396.212,269.238c0-1.167,0.663-2.002,1.697-2.268v-0.026c-0.835-0.318-1.313-1.008-1.313-1.909
				c0-1.578,1.049-2.533,2.891-2.533c1.844,0,2.892,0.955,2.892,2.533c0,0.901-0.478,1.591-1.313,1.909v0.026
				c1.035,0.266,1.697,1.101,1.697,2.268c0,1.816-1.392,2.917-3.275,2.917C397.604,272.155,396.212,271.054,396.212,269.238z
				 M401.25,269.238c0-1.021-0.756-1.631-1.764-1.631c-1.007,0-1.763,0.609-1.763,1.631c0,1.087,0.756,1.724,1.763,1.724
				C400.495,270.961,401.25,270.325,401.25,269.238z M398.029,265.114c0,0.875,0.624,1.366,1.458,1.366
				c0.836,0,1.459-0.491,1.459-1.366c0-0.915-0.649-1.419-1.459-1.419C398.678,263.695,398.029,264.199,398.029,265.114z"/>
			<path fill="#98C4D2" d="M410.065,267.328c0,2.108-0.543,4.826-3.209,4.826c-2.664,0-3.208-2.718-3.208-4.826
				s0.544-4.827,3.208-4.827C409.522,262.501,410.065,265.22,410.065,267.328z M408.553,267.328c0-1.937-0.371-3.567-1.697-3.567
				c-1.325,0-1.697,1.631-1.697,3.567c0,1.936,0.372,3.566,1.697,3.566C408.182,270.895,408.553,269.264,408.553,267.328z"/>
		</g>
		<g>
			<path fill="#98C4D2" d="M415.018,265.114h1.432v0.955h0.041c0.45-0.677,1.021-1.141,2.107-1.141c0.836,0,1.618,0.358,1.923,1.141
				c0.504-0.703,1.153-1.141,2.148-1.141c1.445,0,2.294,0.637,2.294,2.308v4.733h-1.512v-4.005c0-1.087-0.066-1.843-1.246-1.843
				c-1.021,0-1.459,0.677-1.459,1.83v4.018h-1.512v-4.402c0-0.941-0.291-1.445-1.207-1.445c-0.781,0-1.498,0.637-1.498,1.777v4.07
				h-1.512V265.114z"/>
			<path fill="#98C4D2" d="M432.887,271.611c0,2.056-1.207,3.077-3.368,3.077c-1.379,0-2.931-0.531-3.063-2.136h1.512
				c0.186,0.862,0.875,1.008,1.645,1.008c1.221,0,1.764-0.623,1.764-1.75v-1.048h-0.026c-0.425,0.756-1.206,1.207-2.056,1.207
				c-2.174,0-3.076-1.645-3.076-3.606c0-1.844,1.154-3.435,3.104-3.435c0.861,0,1.644,0.358,2.028,1.127h0.026v-0.941h1.512V271.611
				z M431.375,268.389c0-1.181-0.53-2.268-1.843-2.268c-1.339,0-1.804,1.246-1.804,2.387c0,1.127,0.544,2.268,1.804,2.268
				C430.872,270.776,431.375,269.556,431.375,268.389z"/>
		</g>
		<rect x="270.637" y="238.654" fill="#04607D" width="36.022" height="4.08"/>
		<rect x="270.637" y="263.804" fill="#98C4D2" width="36.022" height="4.078"/>
		<g>
			<g>
				<path fill="#00435B" d="M398.308,391.399h0.906l2.473,6.114h-0.923l-0.66-1.592h-2.837l-0.661,1.592h-0.872L398.308,391.399z
					 M397.538,395.235h2.313l-1.127-2.998L397.538,395.235z"/>
				<path fill="#00435B" d="M405.459,391.408h0.796v5.428c0,0.094,0.017,0.458,0.034,0.678h-0.796l-0.018-0.678
					c-0.067,0.119-0.16,0.297-0.381,0.449c-0.347,0.237-0.762,0.313-1.05,0.313c-0.567,0-1.829-0.297-1.829-2.16
					c0-1.617,0.923-2.32,1.922-2.32c0.915,0,1.22,0.542,1.321,0.72V391.408z M405.163,394.143c-0.169-0.221-0.482-0.433-0.931-0.433
					c-1.169,0-1.169,1.415-1.169,1.702c0,0.754,0.194,1.626,1.169,1.626c1.253,0,1.253-1.38,1.253-1.71
					C405.485,394.71,405.341,394.371,405.163,394.143z"/>
				<path fill="#00435B" d="M410.275,397.513c-0.06-0.212-0.076-0.415-0.076-0.635c-0.382,0.702-0.957,0.771-1.313,0.771
					c-0.975,0-1.499-0.551-1.499-1.254c0-0.339,0.118-0.881,0.745-1.244c0.457-0.255,1.135-0.28,1.474-0.28
					c0.203,0,0.33,0.009,0.575,0.025c0-0.524,0-0.753-0.152-0.939c-0.161-0.212-0.508-0.279-0.736-0.279
					c-0.805,0-0.847,0.55-0.855,0.72h-0.796c0.025-0.221,0.051-0.517,0.296-0.805c0.322-0.355,0.924-0.457,1.372-0.457
					c0.618,0,1.279,0.194,1.508,0.626c0.135,0.255,0.144,0.458,0.144,0.652l-0.034,2.032c0,0.068,0.009,0.636,0.068,1.067H410.275z
					 M409.724,395.421c-0.321,0-1.533,0-1.533,0.864c0,0.271,0.17,0.736,0.881,0.736c0.407,0,0.712-0.161,0.906-0.457
					c0.178-0.288,0.187-0.525,0.203-1.118C410.038,395.43,409.918,395.421,409.724,395.421z"/>
				<path fill="#00435B" d="M412.363,393.956c0-0.187-0.009-0.288-0.025-0.694h0.805l0.017,0.702
					c0.398-0.669,1.102-0.771,1.448-0.771c0.915,0,1.787,0.627,1.787,2.202c0,1.584-0.923,2.278-1.939,2.278
					c-0.618,0-1.075-0.263-1.304-0.636v2.109h-0.788V393.956z M414.319,397.089c0.203,0,0.627-0.042,0.898-0.415
					c0.305-0.414,0.347-1.024,0.347-1.329c0-0.762-0.229-1.559-1.169-1.559c-1.27,0-1.27,1.347-1.27,1.728
					C413.125,396.031,413.202,397.089,414.319,397.089z"/>
				<path fill="#00435B" d="M416.906,393.244h0.754v-0.889l0.788-0.254v1.143h0.948v0.585h-0.948v2.549c0,0.212,0,0.567,0.567,0.567
					c0.16,0,0.313-0.025,0.381-0.042v0.618c-0.144,0.025-0.373,0.051-0.66,0.051c-0.729,0-1.076-0.212-1.076-0.906v-2.837h-0.754
					V393.244z"/>
				<path fill="#00435B" d="M420.859,395.532c-0.017,0.881,0.348,1.532,1.22,1.532c0.517,0,0.932-0.271,0.999-0.88h0.797
					c-0.025,0.211-0.06,0.559-0.364,0.889c-0.187,0.212-0.61,0.567-1.466,0.567c-1.338,0-1.973-0.83-1.973-2.177
					c0-0.838,0.169-1.532,0.838-1.998c0.407-0.288,0.915-0.313,1.161-0.313c1.905,0,1.862,1.686,1.846,2.38H420.859z
					 M423.103,394.972c0.009-0.406-0.067-1.253-1.05-1.253c-0.517,0-1.144,0.313-1.16,1.253H423.103z"/>
				<path fill="#00435B" d="M428.029,391.408h0.796v5.428c0,0.094,0.017,0.458,0.034,0.678h-0.796l-0.018-0.678
					c-0.067,0.119-0.16,0.297-0.381,0.449c-0.348,0.237-0.762,0.313-1.05,0.313c-0.567,0-1.829-0.297-1.829-2.16
					c0-1.617,0.923-2.32,1.922-2.32c0.915,0,1.22,0.542,1.321,0.72V391.408z M427.732,394.143c-0.169-0.221-0.482-0.433-0.931-0.433
					c-1.169,0-1.169,1.415-1.169,1.702c0,0.754,0.194,1.626,1.169,1.626c1.253,0,1.253-1.38,1.253-1.71
					C428.054,394.71,427.911,394.371,427.732,394.143z"/>
				<path fill="#00435B" d="M434.73,391.992c-0.136-0.009-0.305-0.017-0.466-0.017c-0.644,0-0.644,0.321-0.644,0.618v0.669h0.99
					v0.575h-0.99v3.676h-0.788v-3.676h-0.838v-0.575h0.838v-0.483c0-0.584,0.034-0.796,0.178-1.016
					c0.178-0.271,0.517-0.466,1.067-0.466c0.229,0,0.482,0.034,0.652,0.06V391.992z"/>
				<path fill="#00435B" d="M435.464,394.125c0-0.288-0.017-0.584-0.042-0.863h0.805l0.017,0.821
					c0.152-0.593,0.661-0.788,1.017-0.839c0.237-0.033,0.415-0.025,0.551-0.017v0.779c-0.043-0.018-0.094-0.025-0.152-0.034
					c-0.06-0.009-0.136-0.009-0.229-0.009c-0.939,0-1.16,0.56-1.16,1.288v2.261h-0.805V394.125z"/>
				<path fill="#00435B" d="M440.561,393.152c1.702,0,2.083,1.338,2.083,2.228c0,1.244-0.703,2.277-2.151,2.277
					c-1.405,0-2.092-0.974-2.092-2.219C438.401,394.388,438.892,393.152,440.561,393.152z M440.51,397.064
					c0.601,0,1.287-0.432,1.287-1.71c0-1.059-0.491-1.618-1.236-1.618c-0.509,0-1.33,0.322-1.33,1.651
					C439.231,396.26,439.604,397.064,440.51,397.064z"/>
				<path fill="#00435B" d="M443.875,393.829l-0.017-0.567h0.805v0.618c0.406-0.669,0.982-0.729,1.347-0.729
					c0.939,0,1.236,0.482,1.389,0.796c0.144-0.237,0.491-0.796,1.432-0.796c0.609,0,1.558,0.254,1.558,1.508v2.854h-0.805v-2.727
					c0-0.373-0.067-0.534-0.144-0.644c-0.136-0.195-0.406-0.373-0.813-0.373c-0.517,0-0.796,0.297-0.906,0.449
					c-0.186,0.262-0.186,0.728-0.186,0.914v2.38h-0.805v-2.812c0-0.525-0.305-0.932-0.932-0.932c-0.542,0-0.839,0.339-0.932,0.466
					c-0.178,0.245-0.187,0.593-0.187,0.864v2.413h-0.805V393.829z"/>
				<path fill="#00435B" d="M454.267,394.125c0-0.288-0.017-0.584-0.042-0.863h0.805l0.017,0.821
					c0.152-0.593,0.661-0.788,1.017-0.839c0.237-0.033,0.415-0.025,0.551-0.017v0.779c-0.043-0.018-0.094-0.025-0.152-0.034
					c-0.06-0.009-0.136-0.009-0.229-0.009c-0.939,0-1.16,0.56-1.16,1.288v2.261h-0.805V394.125z"/>
				<path fill="#00435B" d="M458,395.532c-0.017,0.881,0.348,1.532,1.22,1.532c0.517,0,0.932-0.271,0.999-0.88h0.797
					c-0.025,0.211-0.06,0.559-0.364,0.889c-0.187,0.212-0.61,0.567-1.466,0.567c-1.338,0-1.973-0.83-1.973-2.177
					c0-0.838,0.169-1.532,0.838-1.998c0.407-0.288,0.915-0.313,1.161-0.313c1.905,0,1.862,1.686,1.846,2.38H458z M460.244,394.972
					c0.009-0.406-0.067-1.253-1.05-1.253c-0.517,0-1.144,0.313-1.16,1.253H460.244z"/>
				<path fill="#00435B" d="M464.348,391.992c-0.136-0.009-0.305-0.017-0.466-0.017c-0.644,0-0.644,0.321-0.644,0.618v0.669h0.99
					v0.575h-0.99v3.676h-0.788v-3.676h-0.838v-0.575h0.838v-0.483c0-0.584,0.034-0.796,0.178-1.016
					c0.178-0.271,0.517-0.466,1.067-0.466c0.229,0,0.482,0.034,0.652,0.06V391.992z"/>
				<path fill="#00435B" d="M467.096,396.742l1.532-1.508c0.322-0.313,0.644-0.651,0.906-1.008c0.339-0.466,0.432-0.728,0.432-1.041
					c0-0.288-0.102-0.957-0.939-0.957c-0.94,0-0.957,0.805-0.957,1.024h-0.89c0.009-0.288,0.034-0.847,0.542-1.287
					c0.407-0.348,0.898-0.424,1.271-0.424c0.897,0,1.813,0.458,1.813,1.711c0,0.373-0.025,0.66-0.661,1.465
					c-0.169,0.212-0.914,0.982-1.084,1.152l-1.024,0.974h2.786v0.669h-3.726V396.742z"/>
			</g>
		</g>
	</g>
</g>
</svg>
