<?xml version="1.0" encoding="utf-8"?>
<!-- Generator: Adobe Illustrator 17.0.0, SVG Export Plug-In . SVG Version: 6.00 Build 0)  -->
<!DOCTYPE svg PUBLIC "-//W3C//DTD SVG 1.1//EN" "http://www.w3.org/Graphics/SVG/1.1/DTD/svg11.dtd">
<svg version="1.1" id="Layer_1" xmlns="http://www.w3.org/2000/svg" xmlns:xlink="http://www.w3.org/1999/xlink" x="0px" y="0px"
	 width="364.985px" height="195.357px" viewBox="0 0 364.985 195.357" enable-background="new 0 0 364.985 195.357"
	 xml:space="preserve">
<polygon fill="#04607D" points="364.985,0 338.733,0 338.733,1.02 337.716,1.02 337.716,2.804 334.4,2.804 334.4,3.824 
	333.382,3.824 333.382,4.159 328.506,7.645 325.48,7.391 324.46,8.409 324.46,10.024 322.628,11.214 314.009,11.214 313.508,11.345 
	309.434,13.638 308.981,14.162 307.955,16.821 306.871,16.821 306.308,16.992 301.337,20.306 300.931,20.843 300.341,22.685 
	298.081,22.685 297.388,22.953 294.367,25.741 291.835,25.741 291.835,26.761 290.815,26.761 290.815,28.736 289.604,28.826 
	289.328,29.565 284.699,29.565 283.78,30.145 282.594,32.621 275.699,34.047 275.252,34.262 271.523,37.371 262.331,41.863 
	262.138,41.984 259.999,43.712 258.7,43.712 257.24,44.133 254.485,47.917 250.544,47.917 249.844,48.196 242.876,54.797 
	240.987,54.797 240.143,55.244 238.225,58.065 234.461,58.634 234.186,58.716 229.217,61.01 228.663,61.664 228.19,63.359 
	222.68,64.506 222.579,64.535 214.294,67.211 213.779,67.583 209.053,74.132 205.636,74.74 204.794,75.743 204.794,76.846 
	200.97,76.846 200.274,77.119 196.873,80.287 192.305,80.287 191.283,81.305 191.283,83.091 184.523,83.991 183.887,84.337 
	180.132,88.696 176.217,89.832 175.515,90.557 175.059,92.334 175.059,92.267 170.979,92.267 170.608,92.353 168.314,93.375 
	167.731,94.096 167.011,97.491 163.122,97.491 158.404,101.984 155.471,102.75 154.765,103.403 153.729,106.412 150.631,106.412 
	149.718,106.976 149.108,108.196 144.386,108.196 143.51,108.697 141.768,111.638 139.033,111.638 138.227,112.034 136.486,114.059 
	134.191,114.059 133.306,114.572 132.58,115.843 129.602,115.843 128.841,116.185 126.941,118.323 122.541,120.4 122.141,120.739 
	120.464,123.136 114.907,127.001 108.319,129.352 108.319,129.915 102.744,131.962 102.19,132.451 100.564,135.595 96.596,135.595 
	90.989,136.233 90.044,136.873 89.467,138.309 83.72,139.834 83.418,139.973 75.515,145.194 75.393,145.29 66.382,153.437 
	62.824,153.437 62.824,154.457 61.806,154.457 61.806,155.606 57.471,155.606 56.783,155.873 54.224,158.228 50.064,160.146 
	46.002,161.795 45.742,161.946 40.5,166.191 35.02,168.559 35.424,169.494 34.406,169.494 34.406,170.193 33.403,169.916 
	33.132,170.896 32.112,170.896 32.112,172.298 30.199,172.298 29.911,172.343 22.139,174.632 21.809,174.798 17.1,178.362 
	15.852,179.238 16.438,180.071 15.416,180.071 15.416,180.838 12.867,180.838 12.867,181.856 12.277,181.021 6.163,185.356 
	5.965,185.541 2.908,189.234 2.804,189.383 0,194.354 1.776,195.357 4.537,190.467 7.449,186.945 13.194,182.876 16.438,182.876 
	16.438,181.856 17.458,181.856 17.458,180.604 18.294,180.016 18.326,179.992 22.895,176.535 30.347,174.338 33.132,174.338 
	33.132,173.318 34.15,173.318 34.15,172.24 35.153,172.517 35.424,171.534 36.444,171.534 36.444,170.164 41.675,167.866 
	46.907,163.629 50.846,162.029 50.891,162.008 55.486,159.837 57.87,157.644 62.824,157.644 62.824,156.624 63.846,156.624 
	63.846,155.475 66.777,155.475 67.458,155.215 76.705,146.854 84.401,141.764 90.487,140.149 91.17,139.542 91.679,138.273 
	96.596,137.699 101.185,137.635 102.089,137.083 103.82,133.74 109.693,131.584 110.361,130.626 115.564,128.942 115.912,128.787 
	121.774,124.708 122.028,124.454 123.657,122.129 128.001,120.078 128.326,119.835 130.061,117.883 133.172,117.883 
	134.057,117.368 134.783,116.097 136.486,116.097 137.293,116.592 139.537,113.676 142.348,113.676 143.224,113.178 
	144.966,110.236 149.738,110.236 150.652,109.672 151.26,108.45 154.455,108.45 155.419,107.765 156.515,104.586 158.917,103.957 
	163.122,99.531 167.836,99.531 168.832,98.722 169.616,95.026 171.239,94.305 175.059,94.305 176.852,93.54 177.346,91.627 
	180.991,90.568 181.482,90.255 185.176,85.964 192.438,84.992 193.323,83.984 193.323,82.325 197.274,82.325 197.97,82.052 
	201.371,78.886 205.814,78.886 206.832,77.1 206.832,76.597 209.813,76.065 210.462,75.659 215.239,69.047 223.152,66.49 
	229.214,65.227 229.99,64.501 230.501,62.663 234.912,60.629 238.972,60.011 239.662,59.579 241.527,56.839 243.278,56.839 
	243.982,56.558 250.952,49.955 255.005,49.955 255.827,49.536 258.7,45.587 258.7,45.752 260.358,45.752 260.998,45.525 
	263.33,43.644 272.53,39.149 272.734,39.014 276.363,35.994 283.501,34.517 284.216,33.955 285.339,31.605 289.797,31.605 
	290.752,31.58 291.268,30.201 291.835,30.201 291.835,29.183 292.855,29.183 292.855,27.781 294.766,27.781 295.457,27.512 
	298.479,24.721 301.083,24.721 302.054,24.016 302.765,21.805 307.182,18.86 308.659,18.86 309.609,18.208 310.751,15.236 
	314.275,13.252 322.929,13.252 323.485,13.09 326.034,11.431 326.498,10.576 326.498,9.431 328.665,9.431 329.216,9.268 
	335.135,5.033 338.733,5.003 338.733,3.824 339.754,3.824 339.754,2.038 364.985,2.038 "/>
</svg>
