<?xml version="1.0" encoding="utf-8"?>
<!-- Generator: Adobe Illustrator 17.0.0, SVG Export Plug-In . SVG Version: 6.00 Build 0)  -->
<!DOCTYPE svg PUBLIC "-//W3C//DTD SVG 1.1//EN" "http://www.w3.org/Graphics/SVG/1.1/DTD/svg11.dtd">
<svg version="1.1" id="Layer_1" xmlns="http://www.w3.org/2000/svg" xmlns:xlink="http://www.w3.org/1999/xlink" x="0px" y="0px"
	 width="380.758px" height="168.684px" viewBox="0 0 380.758 168.684" enable-background="new 0 0 380.758 168.684"
	 xml:space="preserve">
<polygon fill="#98C4D2" points="356.587,0 356.626,11.214 336.62,11.214 336.655,13.423 330.969,13.423 330.391,13.604 
	325.463,17.001 325.321,17.121 321.711,20.729 318.056,20.729 317.713,20.791 312.958,22.49 312.454,22.874 309.744,26.859 
	294.074,32.861 293.799,33.022 290.507,35.683 282.203,35.683 281.563,35.909 276.47,40.017 269.214,41.831 268.868,41.99 
	265.49,44.404 260.79,45.215 260.466,45.327 254.771,48.51 251.805,49.499 251.318,49.845 246.696,55.851 240.574,55.851 
	240.169,55.933 232.524,59.214 232.157,59.481 226.683,65.759 223.242,65.759 222.618,65.972 216.775,70.492 213.045,70.492 
	212.583,70.604 203.747,75.107 203.454,75.33 199.383,79.831 196.177,80.901 190.164,81.568 189.595,81.824 184.787,86.149 
	181.441,86.149 180.887,86.314 178.053,88.146 171.177,91.343 167.814,90.274 166.835,90.48 165.763,91.416 161.05,91.374 
	161.095,93.753 159.18,93.796 158.632,93.955 157.015,94.987 152.383,94.987 151.808,95.161 146.723,98.606 142.181,99.418 
	141.58,99.765 138.889,102.927 133.404,104.541 133.138,104.664 127.871,108.063 127.647,108.261 124.138,112.407 119.39,113.356 
	118.963,113.552 116.182,115.714 113.301,115.714 112.817,115.841 108.965,117.924 105.315,117.924 104.595,118.222 
	102.553,120.265 83.619,126.799 76.533,128.485 74.899,129.479 74.899,131.178 69.973,131.178 69.043,131.775 68.319,133.37 
	62.457,137.119 62.221,137.323 59.904,140.108 51.859,141.715 46.523,141.715 45.834,141.981 41.958,145.535 36.108,146.836 
	35.539,147.182 32.076,151.401 29.997,151.144 26.595,152.834 26.409,152.935 21.847,156.029 17.323,156.676 16.924,156.822 
	14.456,158.366 11.858,158.366 11.858,159.384 10.84,159.384 10.84,159.895 8.121,159.895 8.121,160.913 7.159,160.571 
	6.554,162.274 5.401,162.274 5.401,163.294 4.381,163.294 4.381,164.484 3.023,164.484 3.023,165.504 2.004,165.504 2.004,166.113 
	0,166.736 0.608,168.684 3.328,167.835 3.023,166.863 4.043,166.863 4.043,166.522 5.401,166.522 5.401,165.504 6.421,165.504 
	6.421,164.312 7.273,164.312 7.273,163.294 8.233,163.637 8.841,161.934 12.88,162.104 12.88,160.406 14.748,160.406 
	15.289,160.251 17.823,158.664 22.369,158.016 22.797,157.848 27.465,154.683 30.506,153.1 33.209,153.236 36.892,148.748 
	42.667,147.466 43.133,147.223 46.92,143.755 52.16,143.733 60.659,142.033 61.241,141.687 63.687,138.751 69.672,134.927 
	70.05,134.487 70.63,133.218 75.919,133.218 76.939,132.199 76.939,130.194 77.007,130.469 84.141,128.772 84.238,128.745 
	103.44,122.118 103.826,121.873 105.737,119.964 109.223,119.964 109.71,119.841 113.558,117.754 116.528,117.754 117.157,117.54 
	120.024,115.311 124.888,114.336 125.463,113.996 129.105,109.691 134.12,106.457 139.758,104.801 140.248,104.481 142.898,101.361 
	147.294,100.577 147.689,100.418 152.695,97.026 157.311,97.026 157.857,96.864 159.478,95.834 161.729,95.834 162.748,94.816 
	162.748,93.456 166.146,93.456 166.82,93.205 167.745,92.393 170.934,93.409 171.675,93.362 178.981,89.961 179.103,89.894 
	181.742,88.187 185.178,88.187 185.857,87.929 190.712,83.559 196.503,82.915 196.716,82.87 200.285,81.678 200.717,81.397 
	204.84,76.838 213.289,72.532 217.122,72.532 217.749,72.318 223.589,67.797 227.147,67.797 227.917,67.449 233.542,60.997 
	240.783,57.889 247.201,57.889 248.008,57.494 252.746,51.335 255.507,50.412 255.681,50.337 261.307,47.193 266.062,46.373 
	266.483,46.197 269.893,43.762 277.181,41.94 277.576,41.745 282.564,37.721 290.868,37.721 291.512,37.495 294.953,34.708 
	310.772,28.65 311.253,28.27 313.957,24.296 318.232,22.769 322.134,22.769 322.856,22.472 326.697,18.627 331.289,15.463 
	338.746,15.377 338.71,13.253 358.709,13.253 358.668,2.038 380.758,2.038 380.758,0 "/>
</svg>
