<?xml version="1.0" encoding="utf-8"?>
<!-- Generator: Adobe Illustrator 17.0.0, SVG Export Plug-In . SVG Version: 6.00 Build 0)  -->
<!DOCTYPE svg PUBLIC "-//W3C//DTD SVG 1.1//EN" "http://www.w3.org/Graphics/SVG/1.1/DTD/svg11.dtd">
<svg version="1.1" id="Layer_1" xmlns="http://www.w3.org/2000/svg" xmlns:xlink="http://www.w3.org/1999/xlink" x="0px" y="0px"
	 width="114.491px" height="189.202px" viewBox="0 0 114.491 189.202" enable-background="new 0 0 114.491 189.202"
	 xml:space="preserve">
<g>
	<path fill="#004F63" d="M105.616,157.859c0,0,8.5-6.031,8.5-16.454V10.798c0,0,0-10.423-10.423-10.423H10.798
		c0,0-10.423,0-10.423,10.423v130.608c0,0,0,10.423,8.5,16.454l39.87,28.288c0,0,8.5,6.03,17,0L105.616,157.859z"/>
	<path fill="none" stroke="#FFFFFF" stroke-width="0.75" d="M105.616,157.859c0,0,8.5-6.031,8.5-16.454V10.798
		c0,0,0-10.423-10.423-10.423H10.798c0,0-10.423,0-10.423,10.423v130.608c0,0,0,10.423,8.5,16.454l39.87,28.288c0,0,8.5,6.03,17,0
		L105.616,157.859z"/>
	<g>
		<path fill="#FFFFFF" d="M30.772,81.908l6.979-7.07c1.234-1.242,2.622-2.613,4.049-4.542c1.504-2.014,1.852-2.956,1.852-4.327
			c0-2.271-1.195-3.813-3.201-3.813c-3.084,0-3.354,3.514-3.393,4.371h-5.9c0-1.2,0-3.428,1.582-5.613
			c1.541-2.143,4.395-3.257,7.672-3.257c5.861,0,9.101,3.514,9.101,8.142c0,3.085-1.079,7.069-12.725,17.481
			c3.895-0.086,4.357-0.129,7.403-0.172c4.126-0.086,4.589-0.086,5.476-0.128v4.97H30.772V81.908z"/>
		<path fill="#FFFFFF" d="M52.56,81.908l6.979-7.07c1.234-1.242,2.621-2.613,4.049-4.542c1.504-2.014,1.851-2.956,1.851-4.327
			c0-2.271-1.195-3.813-3.2-3.813c-3.085,0-3.355,3.514-3.394,4.371h-5.899c0-1.2,0-3.428,1.581-5.613
			c1.542-2.143,4.396-3.257,7.673-3.257c5.861,0,9.1,3.514,9.1,8.142c0,3.085-1.079,7.069-12.725,17.481
			c3.895-0.086,4.357-0.129,7.404-0.172c4.125-0.086,4.588-0.086,5.475-0.128v4.97H52.56V81.908z"/>
	</g>
	<g>
		<path fill="#FFFFFF" d="M80.139,77.439c0,2.44-1.293,3.563-2.904,3.563c-1.542,0-2.853-1.023-2.853-3.445
			c0-2.066,1.01-3.602,3.011-3.602C79.431,73.954,80.139,75.647,80.139,77.439z M78.741,77.517c0-0.964-0.213-2.382-1.471-2.382
			c-1.523,0-1.523,1.93-1.523,2.401c0,0.453,0,2.323,1.523,2.323C78.741,79.859,78.741,77.91,78.741,77.517z M76.739,88.717
			l7.813-15.156h1.169l-7.813,15.156H76.739z M87.545,82.083c0.318,0.395,0.726,1.024,0.726,2.5c0,2.146-0.938,3.603-2.853,3.603
			c-2.268,0-2.904-1.87-2.904-3.504c0-2.382,1.328-3.543,2.904-3.543C85.897,81.139,86.854,81.237,87.545,82.083z M86.924,84.623
			c0-0.61-0.105-2.382-1.488-2.382c-1.523,0-1.523,2.047-1.523,2.638c0,0.688,0.143,2.146,1.488,2.146
			C86.819,87.025,86.924,85.331,86.924,84.623z"/>
	</g>
	<g>
		<path fill="#FFFFFF" d="M45.057,98.573h4.035c0.579,0,1.768,0,2.597,0.59c0.845,0.591,1.251,1.546,1.251,2.553
			c0,0.886-0.297,1.667-0.797,2.223c-0.485,0.539-0.986,0.712-1.33,0.816c1.079,0.313,1.564,0.851,1.721,2.414
			c0.156,1.476,0.266,2.553,0.703,3.941h-1.673c-0.251-0.834-0.407-2.361-0.517-3.316c-0.188-1.823-0.578-2.345-2.471-2.345h-1.971
			v5.661h-1.549V98.573z M46.575,103.974h2.471c0.172,0,1.064,0,1.486-0.278c0.219-0.139,0.766-0.59,0.766-1.632
			c0-2.031-1.626-2.031-2.252-2.031h-2.471V103.974z"/>
		<path fill="#FFFFFF" d="M55.641,98.573h4.035c0.579,0,1.768,0,2.597,0.59c0.845,0.591,1.251,1.546,1.251,2.553
			c0,0.886-0.297,1.667-0.797,2.223c-0.485,0.539-0.986,0.712-1.33,0.816c1.079,0.313,1.564,0.851,1.721,2.414
			c0.156,1.476,0.266,2.553,0.703,3.941h-1.673c-0.251-0.834-0.407-2.361-0.517-3.316c-0.188-1.823-0.578-2.345-2.471-2.345H57.19
			v5.661h-1.549V98.573z M57.159,103.974h2.471c0.172,0,1.064,0,1.486-0.278c0.219-0.139,0.766-0.59,0.766-1.632
			c0-2.031-1.626-2.031-2.252-2.031h-2.471V103.974z"/>
		<path fill="#FFFFFF" d="M66.225,98.573h4.035c0.579,0,1.768,0,2.597,0.59c0.845,0.591,1.251,1.546,1.251,2.553
			c0,0.886-0.297,1.667-0.797,2.223c-0.485,0.539-0.986,0.712-1.33,0.816c1.079,0.313,1.564,0.851,1.721,2.414
			c0.156,1.476,0.266,2.553,0.703,3.941h-1.673c-0.251-0.834-0.407-2.361-0.517-3.316c-0.188-1.823-0.578-2.345-2.471-2.345h-1.971
			v5.661h-1.549V98.573z M67.743,103.974h2.471c0.172,0,1.064,0,1.486-0.278c0.219-0.139,0.766-0.59,0.766-1.632
			c0-2.031-1.626-2.031-2.252-2.031h-2.471V103.974z"/>
	</g>
	<g>
		<g>
			<path fill="#FFFFFF" d="M26.396,12.833h4.193v0.937h-3.188v2.875h2.945v0.924h-2.945v3.914h-1.005V12.833z"/>
			<path fill="#FFFFFF" d="M33.224,13.526c0.011,0.385-0.243,0.693-0.647,0.693c-0.357,0-0.612-0.308-0.612-0.693
				c0-0.398,0.266-0.706,0.636-0.706C32.981,12.82,33.224,13.128,33.224,13.526z M32.091,21.482v-6.211h1.017v6.211H32.091z"/>
			<path fill="#FFFFFF" d="M34.899,17.209c0-0.731-0.011-1.36-0.046-1.938h0.89l0.034,1.219h0.047
				c0.254-0.834,0.866-1.36,1.548-1.36c0.115,0,0.196,0.013,0.288,0.039v1.065c-0.104-0.026-0.208-0.039-0.346-0.039
				c-0.717,0-1.225,0.603-1.363,1.45c-0.023,0.154-0.047,0.333-0.047,0.526v3.311h-1.005V17.209z"/>
			<path fill="#FFFFFF" d="M38.643,20.327c0.3,0.218,0.831,0.449,1.34,0.449c0.739,0,1.085-0.411,1.085-0.924
				c0-0.539-0.288-0.834-1.039-1.142c-1.005-0.397-1.479-1.014-1.479-1.758c0-1.001,0.728-1.822,1.929-1.822
				c0.566,0,1.063,0.18,1.375,0.385L41.6,16.336c-0.22-0.154-0.624-0.359-1.144-0.359c-0.602,0-0.937,0.385-0.937,0.847
				c0,0.513,0.335,0.744,1.063,1.052c0.97,0.411,1.467,0.95,1.467,1.874c0,1.091-0.763,1.861-2.091,1.861
				c-0.612,0-1.179-0.167-1.571-0.423L38.643,20.327z"/>
			<path fill="#FFFFFF" d="M44.684,13.487v1.784h1.456v0.86h-1.456v3.349c0,0.77,0.196,1.207,0.763,1.207
				c0.266,0,0.462-0.039,0.589-0.077l0.046,0.847c-0.196,0.09-0.508,0.154-0.9,0.154c-0.474,0-0.854-0.167-1.098-0.475
				c-0.289-0.333-0.393-0.885-0.393-1.617v-3.388h-0.866v-0.86h0.866v-1.489L44.684,13.487z"/>
			<path fill="#FFFFFF" d="M56.537,17.684c-0.058-1.207-0.127-2.656-0.115-3.734h-0.034c-0.267,1.014-0.59,2.092-0.982,3.285
				l-1.374,4.196h-0.763l-1.259-4.119c-0.37-1.219-0.682-2.336-0.901-3.362h-0.023c-0.022,1.078-0.08,2.528-0.149,3.824
				l-0.208,3.708h-0.959l0.543-8.649h1.282l1.328,4.184c0.323,1.065,0.589,2.015,0.785,2.913h0.035
				c0.196-0.873,0.474-1.822,0.82-2.913l1.386-4.184h1.282l0.485,8.649h-0.982L56.537,17.684z"/>
			<path fill="#FFFFFF" d="M62.429,21.482l-0.08-0.783h-0.035c-0.312,0.488-0.912,0.924-1.709,0.924c-1.133,0-1.71-0.885-1.71-1.784
				c0-1.501,1.201-2.323,3.361-2.31v-0.128c0-0.514-0.127-1.438-1.271-1.438c-0.52,0-1.063,0.18-1.455,0.462l-0.231-0.744
				c0.462-0.333,1.132-0.552,1.837-0.552c1.709,0,2.125,1.296,2.125,2.541v2.323c0,0.539,0.023,1.065,0.093,1.489H62.429z
				 M62.28,18.313c-1.109-0.026-2.368,0.192-2.368,1.398c0,0.731,0.438,1.078,0.959,1.078c0.728,0,1.189-0.513,1.351-1.04
				c0.035-0.116,0.059-0.244,0.059-0.359V18.313z"/>
			<path fill="#FFFFFF" d="M63.644,23.278c0.462-0.038,0.866-0.18,1.108-0.475c0.277-0.359,0.382-0.847,0.382-2.335v-5.197h1.016
				v5.633c0,1.207-0.173,1.989-0.67,2.554c-0.45,0.5-1.189,0.706-1.732,0.706L63.644,23.278z M66.266,13.526
				c0.012,0.372-0.231,0.693-0.636,0.693c-0.381,0-0.624-0.321-0.624-0.693c0-0.398,0.267-0.706,0.647-0.706
				C66.023,12.82,66.266,13.128,66.266,13.526z"/>
			<path fill="#FFFFFF" d="M72.977,18.325c0,2.297-1.433,3.298-2.783,3.298c-1.514,0-2.681-1.232-2.681-3.195
				c0-2.079,1.225-3.298,2.772-3.298C71.891,15.13,72.977,16.426,72.977,18.325z M68.541,18.389c0,1.36,0.705,2.387,1.698,2.387
				c0.97,0,1.698-1.014,1.698-2.413c0-1.052-0.474-2.387-1.675-2.387C69.061,15.977,68.541,17.209,68.541,18.389z"/>
			<path fill="#FFFFFF" d="M74.364,17.209c0-0.731-0.011-1.36-0.046-1.938h0.89l0.034,1.219h0.047
				c0.254-0.834,0.866-1.36,1.548-1.36c0.115,0,0.196,0.013,0.288,0.039v1.065c-0.104-0.026-0.208-0.039-0.346-0.039
				c-0.717,0-1.225,0.603-1.363,1.45c-0.023,0.154-0.047,0.333-0.047,0.526v3.311h-1.005V17.209z"/>
			<path fill="#FFFFFF" d="M81.203,13.128l-1.097,1.604v0.026l1.744-0.257v0.873l-1.744-0.231v0.026l1.108,1.54l-0.728,0.462
				l-0.693-1.796h-0.022l-0.751,1.81l-0.658-0.462l1.097-1.566V15.13l-1.709,0.244v-0.873l1.698,0.244v-0.025l-1.086-1.566
				l0.704-0.449l0.717,1.784h0.022l0.705-1.797L81.203,13.128z"/>
			<path fill="#FFFFFF" d="M24.039,35.064c-0.37,0.205-1.109,0.411-2.056,0.411c-2.195,0-3.847-1.54-3.847-4.376
				c0-2.708,1.651-4.543,4.065-4.543c0.971,0,1.583,0.231,1.849,0.385l-0.243,0.911c-0.381-0.206-0.924-0.359-1.57-0.359
				c-1.825,0-3.038,1.296-3.038,3.567c0,2.117,1.098,3.478,2.991,3.478c0.612,0,1.236-0.141,1.641-0.359L24.039,35.064z"/>
			<path fill="#FFFFFF" d="M28.463,35.346l-0.08-0.783h-0.035c-0.312,0.488-0.912,0.924-1.709,0.924c-1.133,0-1.71-0.885-1.71-1.784
				c0-1.501,1.201-2.323,3.361-2.31v-0.128c0-0.514-0.127-1.438-1.271-1.438c-0.52,0-1.063,0.18-1.455,0.462l-0.231-0.744
				c0.462-0.333,1.132-0.552,1.837-0.552c1.709,0,2.125,1.296,2.125,2.541v2.323c0,0.539,0.023,1.065,0.093,1.489H28.463z
				 M28.314,32.176c-1.109-0.026-2.368,0.192-2.368,1.398c0,0.731,0.438,1.078,0.959,1.078c0.728,0,1.189-0.513,1.351-1.04
				c0.035-0.115,0.059-0.244,0.059-0.359V32.176z"/>
			<path fill="#FFFFFF" d="M31.041,31.072c0-0.731-0.011-1.36-0.046-1.938h0.89l0.034,1.219h0.047
				c0.254-0.834,0.866-1.36,1.548-1.36c0.115,0,0.196,0.013,0.288,0.039v1.065c-0.104-0.026-0.208-0.039-0.346-0.039
				c-0.717,0-1.225,0.603-1.363,1.45c-0.023,0.154-0.046,0.333-0.046,0.526v3.311h-1.006V31.072z"/>
			<path fill="#FFFFFF" d="M39.751,26.234v7.507c0,0.552,0.011,1.181,0.046,1.604h-0.913l-0.046-1.078h-0.022
				c-0.313,0.693-0.994,1.219-1.906,1.219c-1.352,0-2.392-1.271-2.392-3.157c-0.011-2.066,1.144-3.336,2.507-3.336
				c0.854,0,1.433,0.449,1.687,0.95h0.023v-3.709H39.751z M38.735,31.663c0-0.141-0.012-0.333-0.047-0.475
				c-0.149-0.719-0.704-1.309-1.467-1.309c-1.051,0-1.675,1.027-1.675,2.4c0,1.257,0.555,2.297,1.652,2.297
				c0.681,0,1.305-0.5,1.489-1.347c0.035-0.154,0.047-0.308,0.047-0.488V31.663z"/>
			<path fill="#FFFFFF" d="M42.675,27.39c0.011,0.385-0.243,0.693-0.647,0.693c-0.357,0-0.612-0.308-0.612-0.693
				c0-0.398,0.266-0.706,0.636-0.706C42.432,26.684,42.675,26.992,42.675,27.39z M41.542,35.346v-6.211h1.017v6.211H41.542z"/>
			<path fill="#FFFFFF" d="M49.409,32.189c0,2.297-1.433,3.298-2.783,3.298c-1.514,0-2.681-1.232-2.681-3.195
				c0-2.079,1.225-3.298,2.772-3.298C48.323,28.994,49.409,30.29,49.409,32.189z M44.973,32.253c0,1.36,0.705,2.387,1.698,2.387
				c0.97,0,1.698-1.014,1.698-2.413c0-1.052-0.474-2.387-1.675-2.387C45.493,29.84,44.973,31.072,44.973,32.253z"/>
			<path fill="#FFFFFF" d="M51.19,29.135l1.097,3.49c0.186,0.565,0.335,1.078,0.451,1.591h0.034
				c0.127-0.513,0.289-1.026,0.474-1.591l1.086-3.49h1.063L53.2,35.346h-0.971l-2.125-6.211H51.19z"/>
			<path fill="#FFFFFF" d="M59.553,35.346l-0.08-0.783h-0.035c-0.312,0.488-0.912,0.924-1.709,0.924c-1.133,0-1.71-0.885-1.71-1.784
				c0-1.501,1.201-2.323,3.361-2.31v-0.128c0-0.514-0.127-1.438-1.271-1.438c-0.52,0-1.063,0.18-1.455,0.462l-0.231-0.744
				c0.462-0.333,1.132-0.552,1.837-0.552c1.709,0,2.125,1.296,2.125,2.541v2.323c0,0.539,0.023,1.065,0.093,1.489H59.553z
				 M59.404,32.176c-1.109-0.026-2.368,0.192-2.368,1.398c0,0.731,0.438,1.078,0.959,1.078c0.728,0,1.189-0.513,1.351-1.04
				c0.035-0.115,0.059-0.244,0.059-0.359V32.176z"/>
			<path fill="#FFFFFF" d="M61.992,34.191c0.3,0.218,0.831,0.449,1.34,0.449c0.739,0,1.085-0.411,1.085-0.924
				c0-0.539-0.288-0.834-1.039-1.142c-1.005-0.397-1.479-1.014-1.479-1.758c0-1.001,0.728-1.822,1.929-1.822
				c0.566,0,1.062,0.18,1.375,0.385L64.949,30.2c-0.22-0.154-0.624-0.359-1.144-0.359c-0.602,0-0.937,0.385-0.937,0.847
				c0,0.513,0.335,0.744,1.063,1.052c0.97,0.411,1.467,0.95,1.467,1.874c0,1.091-0.763,1.861-2.091,1.861
				c-0.612,0-1.179-0.167-1.571-0.423L61.992,34.191z"/>
			<path fill="#FFFFFF" d="M70.794,35.115c-0.266,0.154-0.854,0.359-1.605,0.359c-1.687,0-2.784-1.271-2.784-3.17
				c0-1.912,1.179-3.298,3.004-3.298c0.601,0,1.132,0.167,1.409,0.321L70.586,30.2c-0.242-0.154-0.623-0.295-1.178-0.295
				c-1.282,0-1.976,1.052-1.976,2.348c0,1.438,0.832,2.323,1.94,2.323c0.578,0,0.959-0.167,1.248-0.308L70.794,35.115z"/>
			<path fill="#FFFFFF" d="M76.767,33.652c0,0.642,0.012,1.206,0.046,1.694h-0.9l-0.059-1.014h-0.022
				c-0.266,0.5-0.855,1.155-1.849,1.155c-0.878,0-1.929-0.539-1.929-2.721v-3.631h1.017v3.439c0,1.181,0.323,1.977,1.247,1.977
				c0.682,0,1.155-0.526,1.34-1.027c0.058-0.167,0.093-0.372,0.093-0.578v-3.811h1.017V33.652z"/>
			<path fill="#FFFFFF" d="M78.558,26.234h1.017v9.111h-1.017V26.234z"/>
			<path fill="#FFFFFF" d="M84.485,35.346l-0.08-0.783H84.37c-0.312,0.488-0.912,0.924-1.709,0.924c-1.133,0-1.71-0.885-1.71-1.784
				c0-1.501,1.201-2.323,3.361-2.31v-0.128c0-0.514-0.127-1.438-1.271-1.438c-0.52,0-1.063,0.18-1.455,0.462l-0.231-0.744
				c0.462-0.333,1.132-0.552,1.837-0.552c1.709,0,2.125,1.296,2.125,2.541v2.323c0,0.539,0.023,1.065,0.093,1.489H84.485z
				 M84.335,32.176c-1.109-0.026-2.368,0.192-2.368,1.398c0,0.731,0.438,1.078,0.959,1.078c0.728,0,1.189-0.513,1.351-1.04
				c0.035-0.115,0.059-0.244,0.059-0.359V32.176z"/>
			<path fill="#FFFFFF" d="M87.061,31.072c0-0.731-0.011-1.36-0.046-1.938h0.89l0.034,1.219h0.047
				c0.254-0.834,0.866-1.36,1.548-1.36c0.115,0,0.196,0.013,0.288,0.039v1.065c-0.104-0.026-0.208-0.039-0.346-0.039
				c-0.717,0-1.225,0.603-1.363,1.45c-0.023,0.154-0.047,0.333-0.047,0.526v3.311h-1.005V31.072z"/>
			<path fill="#FFFFFF" d="M46.152,45.155h-3.026v3.118h3.373v0.937h-4.378v-8.649h4.204v0.937h-3.199v2.733h3.026V45.155z"/>
			<path fill="#FFFFFF" d="M48.267,42.999l1.097,3.49c0.186,0.565,0.335,1.078,0.451,1.591h0.034
				c0.127-0.513,0.289-1.026,0.474-1.591l1.086-3.49h1.063l-2.194,6.211h-0.971l-2.125-6.211H48.267z"/>
			<path fill="#FFFFFF" d="M54.101,46.31c0.023,1.527,0.901,2.156,1.918,2.156c0.728,0,1.166-0.141,1.547-0.321l0.174,0.808
				c-0.358,0.18-0.971,0.385-1.859,0.385c-1.722,0-2.75-1.258-2.75-3.131s0.994-3.349,2.622-3.349c1.825,0,2.311,1.784,2.311,2.926
				c0,0.231-0.023,0.411-0.034,0.526H54.101z M57.082,45.502c0.012-0.719-0.266-1.835-1.409-1.835c-1.028,0-1.479,1.053-1.56,1.835
				H57.082z"/>
			<path fill="#FFFFFF" d="M59.426,44.68c0-0.642-0.011-1.168-0.046-1.681h0.901l0.058,1.026h0.023
				c0.276-0.59,0.924-1.167,1.848-1.167c0.774,0,1.976,0.513,1.976,2.644v3.708h-1.017v-3.58c0-1.001-0.335-1.835-1.294-1.835
				c-0.67,0-1.189,0.526-1.363,1.155c-0.046,0.141-0.069,0.333-0.069,0.526v3.734h-1.017V44.68z"/>
			<path fill="#FFFFFF" d="M67.167,41.215v1.784h1.456v0.86h-1.456v3.349c0,0.77,0.196,1.207,0.763,1.207
				c0.266,0,0.462-0.039,0.589-0.077l0.046,0.847c-0.196,0.09-0.508,0.154-0.9,0.154c-0.474,0-0.854-0.167-1.098-0.475
				c-0.289-0.333-0.393-0.885-0.393-1.617v-3.388h-0.866v-0.86h0.866V41.51L67.167,41.215z"/>
		</g>
	</g>
	<g>
		<path fill="#FFFFFF" d="M40.078,117.201v3.266h3.397v-3.266h0.917v7.806h-0.917v-3.66h-3.397v3.66H39.17v-7.806H40.078z"/>
		<path fill="#FFFFFF" d="M46.071,117.306c0.459-0.104,1.115-0.163,1.74-0.163c0.97,0,1.595,0.197,2.033,0.638
			c0.354,0.348,0.552,0.88,0.552,1.482c0,1.03-0.583,1.714-1.323,1.992v0.034c0.541,0.209,0.865,0.765,1.031,1.575
			c0.229,1.089,0.396,1.842,0.542,2.143h-0.938c-0.114-0.22-0.271-0.892-0.469-1.864c-0.208-1.077-0.584-1.482-1.406-1.518h-0.855
			v3.382h-0.906V117.306z M46.977,120.86h0.928c0.97,0,1.584-0.59,1.584-1.482c0-1.007-0.656-1.447-1.615-1.459
			c-0.438,0-0.75,0.047-0.896,0.093V120.86z"/>
		<path fill="#FFFFFF" d="M51.407,121.104v-0.694h5.378v0.694H51.407z M51.407,123.374v-0.695h5.378v0.695H51.407z"/>
		<path fill="#FFFFFF" d="M62.278,121.162c0,2.56-0.855,3.972-2.355,3.972c-1.324,0-2.221-1.378-2.241-3.868
			c0-2.524,0.979-3.914,2.355-3.914C61.464,117.352,62.278,118.765,62.278,121.162z M58.598,121.277
			c0,1.958,0.542,3.069,1.376,3.069c0.938,0,1.386-1.216,1.386-3.139c0-1.853-0.427-3.069-1.375-3.069
			C59.182,118.139,58.598,119.228,58.598,121.277z"/>
		<path fill="#FFFFFF" d="M63.289,124.404c0-0.428,0.261-0.729,0.625-0.729c0.365,0,0.615,0.302,0.615,0.729
			c0,0.417-0.239,0.729-0.626,0.729C63.539,125.134,63.289,124.821,63.289,124.404z"/>
		<path fill="#FFFFFF" d="M69.875,117.479v0.672l-2.949,6.856h-0.949l2.939-6.659v-0.023h-3.314v-0.846H69.875z"/>
		<path fill="#FFFFFF" d="M70.834,123.096c0-0.949,0.511-1.621,1.344-2.015l-0.01-0.035c-0.75-0.394-1.074-1.042-1.074-1.69
			c0-1.193,0.907-2.004,2.096-2.004c1.313,0,1.969,0.915,1.969,1.853c0,0.638-0.281,1.32-1.114,1.761V121
			c0.844,0.37,1.365,1.03,1.365,1.945c0,1.309-1.011,2.188-2.304,2.188C71.689,125.134,70.834,124.196,70.834,123.096z
			 M74.482,123.05c0-0.915-0.573-1.355-1.49-1.645c-0.792,0.255-1.22,0.834-1.22,1.552c-0.031,0.765,0.49,1.436,1.355,1.436
			C73.951,124.393,74.482,123.825,74.482,123.05z M71.959,119.285c0,0.753,0.512,1.158,1.293,1.391
			c0.584-0.221,1.031-0.684,1.031-1.367c0-0.603-0.322-1.228-1.146-1.228C72.377,118.081,71.959,118.637,71.959,119.285z"/>
	</g>
	<g>
		<path fill="#FFFFFF" d="M14.958,138.186c0.198,0.022,0.427,0,0.739-0.035c0.532-0.081,1.032-0.324,1.418-0.729
			c0.448-0.452,0.771-1.111,0.896-2.004h-0.031c-0.375,0.51-0.918,0.811-1.595,0.811c-1.22,0-2.001-1.019-2.001-2.305
			c0-1.424,0.928-2.675,2.313-2.675s2.241,1.251,2.241,3.173c0,1.656-0.5,2.814-1.168,3.533c-0.521,0.567-1.24,0.914-1.969,1.007
			c-0.334,0.059-0.626,0.069-0.845,0.059V138.186z M15.291,133.854c0,0.938,0.512,1.599,1.303,1.599
			c0.615,0,1.095-0.336,1.334-0.788c0.053-0.092,0.084-0.208,0.084-0.37c0-1.285-0.428-2.27-1.387-2.27
			C15.844,132.025,15.291,132.788,15.291,133.854z"/>
		<path fill="#FFFFFF" d="M23.911,132.233h-2.584l-0.261,1.935c0.156-0.023,0.302-0.047,0.552-0.047
			c0.521,0,1.043,0.128,1.459,0.405c0.532,0.336,0.97,0.984,0.97,1.935c0,1.471-1.052,2.57-2.522,2.57
			c-0.739,0-1.365-0.231-1.688-0.463l0.229-0.775c0.281,0.185,0.834,0.416,1.449,0.416c0.865,0,1.605-0.625,1.605-1.633
			c-0.012-0.973-0.595-1.667-1.949-1.667c-0.386,0-0.688,0.046-0.938,0.081l0.438-3.614h3.24V132.233z"/>
		<path fill="#FFFFFF" d="M28.362,133.495c0,1.586-0.751,2.374-1.626,2.374c-0.845,0-1.573-0.753-1.585-2.271
			c0-1.505,0.74-2.351,1.637-2.351C27.737,131.248,28.362,132.059,28.362,133.495z M25.881,133.565
			c-0.021,0.961,0.302,1.69,0.875,1.69c0.604,0,0.875-0.718,0.875-1.714c0-0.915-0.239-1.679-0.875-1.679
			C26.183,131.862,25.881,132.614,25.881,133.565z M26.673,139.03l3.981-7.782h0.583l-3.981,7.782H26.673z M32.77,136.61
			c0,1.587-0.75,2.374-1.615,2.374c-0.845,0-1.574-0.753-1.584-2.259c0-1.517,0.739-2.362,1.636-2.362
			C32.155,134.363,32.77,135.174,32.77,136.61z M30.29,136.68c-0.011,0.961,0.322,1.69,0.886,1.69c0.604,0,0.876-0.718,0.876-1.714
			c0-0.915-0.24-1.679-0.876-1.679C30.602,134.978,30.29,135.731,30.29,136.68z"/>
		<path fill="#FFFFFF" d="M41.202,138.649c-0.334,0.186-1,0.371-1.855,0.371c-1.979,0-3.471-1.391-3.471-3.949
			c0-2.444,1.491-4.101,3.669-4.101c0.876,0,1.428,0.209,1.667,0.348l-0.219,0.822c-0.344-0.186-0.833-0.324-1.417-0.324
			c-1.646,0-2.741,1.17-2.741,3.22c0,1.911,0.99,3.139,2.699,3.139c0.553,0,1.115-0.128,1.48-0.324L41.202,138.649z"/>
		<path fill="#FFFFFF" d="M42.411,130.681h0.918v8.223h-0.918V130.681z"/>
		<path fill="#FFFFFF" d="M58.43,135.059c0,2.56-0.855,3.972-2.355,3.972c-1.324,0-2.221-1.378-2.241-3.868
			c0-2.524,0.979-3.914,2.355-3.914C57.617,131.248,58.43,132.661,58.43,135.059z M54.75,135.174c0,1.958,0.542,3.069,1.376,3.069
			c0.938,0,1.386-1.216,1.386-3.139c0-1.853-0.427-3.069-1.375-3.069C55.334,132.035,54.75,133.124,54.75,135.174z"/>
		<path fill="#FFFFFF" d="M59.441,138.301c0-0.428,0.261-0.729,0.625-0.729c0.365,0,0.615,0.302,0.615,0.729
			c0,0.417-0.239,0.729-0.626,0.729C59.691,139.03,59.441,138.718,59.441,138.301z"/>
		<path fill="#FFFFFF" d="M65.497,132.094c-0.188-0.012-0.428,0-0.688,0.046c-1.438,0.267-2.198,1.437-2.354,2.676h0.031
			c0.322-0.476,0.885-0.869,1.636-0.869c1.198,0,2.042,0.962,2.042,2.433c0,1.378-0.844,2.651-2.25,2.651
			c-1.449,0-2.397-1.25-2.397-3.208c0-1.482,0.479-2.651,1.146-3.393c0.563-0.614,1.313-0.996,2.167-1.112
			c0.271-0.046,0.501-0.058,0.668-0.058V132.094z M65.235,136.437c0-1.077-0.552-1.726-1.396-1.726
			c-0.552,0-1.063,0.382-1.313,0.927c-0.063,0.115-0.104,0.266-0.104,0.451c0.02,1.239,0.531,2.154,1.49,2.154
			C64.704,138.243,65.235,137.514,65.235,136.437z"/>
		<path fill="#FFFFFF" d="M67.602,138.186c0.197,0.022,0.427,0,0.739-0.035c0.532-0.081,1.032-0.324,1.417-0.729
			c0.449-0.452,0.771-1.111,0.896-2.004h-0.031c-0.375,0.51-0.917,0.811-1.594,0.811c-1.22,0-2.002-1.019-2.002-2.305
			c0-1.424,0.928-2.675,2.314-2.675c1.386,0,2.24,1.251,2.24,3.173c0,1.656-0.5,2.814-1.167,3.533
			c-0.521,0.567-1.24,0.914-1.97,1.007c-0.334,0.059-0.625,0.069-0.844,0.059V138.186z M67.935,133.854
			c0,0.938,0.511,1.599,1.303,1.599c0.614,0,1.095-0.336,1.334-0.788c0.052-0.092,0.083-0.208,0.083-0.37
			c0-1.285-0.427-2.27-1.386-2.27C68.487,132.025,67.935,132.788,67.935,133.854z"/>
		<path fill="#FFFFFF" d="M74.928,135.395v0.752h-2.574v-0.752H74.928z"/>
		<path fill="#FFFFFF" d="M80.306,135.059c0,2.56-0.854,3.972-2.355,3.972c-1.323,0-2.22-1.378-2.241-3.868
			c0-2.524,0.98-3.914,2.355-3.914C79.493,131.248,80.306,132.661,80.306,135.059z M76.627,135.174c0,1.958,0.542,3.069,1.375,3.069
			c0.938,0,1.387-1.216,1.387-3.139c0-1.853-0.428-3.069-1.376-3.069C77.211,132.035,76.627,133.124,76.627,135.174z"/>
		<path fill="#FFFFFF" d="M81.328,138.301c0-0.428,0.261-0.729,0.625-0.729c0.365,0,0.615,0.302,0.615,0.729
			c0,0.417-0.239,0.729-0.626,0.729C81.578,139.03,81.328,138.718,81.328,138.301z"/>
		<path fill="#FFFFFF" d="M83.422,136.992c0-0.949,0.511-1.621,1.344-2.015l-0.01-0.035c-0.75-0.394-1.074-1.042-1.074-1.69
			c0-1.193,0.907-2.004,2.096-2.004c1.313,0,1.969,0.915,1.969,1.853c0,0.638-0.281,1.32-1.114,1.761v0.035
			c0.844,0.37,1.365,1.03,1.365,1.945c0,1.309-1.011,2.188-2.304,2.188C84.277,139.03,83.422,138.093,83.422,136.992z
			 M87.07,136.946c0-0.915-0.573-1.355-1.49-1.645c-0.792,0.255-1.22,0.834-1.22,1.552c-0.031,0.765,0.49,1.436,1.355,1.436
			C86.539,138.289,87.07,137.722,87.07,136.946z M84.547,133.182c0,0.753,0.512,1.158,1.293,1.391
			c0.584-0.221,1.031-0.684,1.031-1.367c0-0.603-0.322-1.228-1.146-1.228C84.965,131.978,84.547,132.533,84.547,133.182z"/>
		<path fill="#FFFFFF" d="M89.477,138.186c0.199,0.022,0.428,0,0.74-0.035c0.531-0.081,1.031-0.324,1.418-0.729
			c0.447-0.452,0.771-1.111,0.896-2.004H92.5c-0.376,0.51-0.918,0.811-1.596,0.811c-1.219,0-2-1.019-2-2.305
			c0-1.424,0.928-2.675,2.313-2.675c1.387,0,2.241,1.251,2.241,3.173c0,1.656-0.5,2.814-1.167,3.533
			c-0.521,0.567-1.24,0.914-1.97,1.007c-0.333,0.059-0.626,0.069-0.845,0.059V138.186z M89.811,133.854
			c0,0.938,0.511,1.599,1.303,1.599c0.615,0,1.094-0.336,1.334-0.788c0.053-0.092,0.084-0.208,0.084-0.37
			c0-1.285-0.428-2.27-1.387-2.27C90.364,132.025,89.811,132.788,89.811,133.854z"/>
	</g>
	<g>
		<path fill="#FFFFFF" d="M39.858,144.763c-0.76,1.135-1.313,2.641-1.313,4.736c0,2.061,0.572,3.543,1.313,4.701h-0.719
			c-0.656-0.961-1.365-2.443-1.365-4.701c0.01-2.281,0.709-3.764,1.365-4.736H39.858z"/>
		<path fill="#FFFFFF" d="M40.932,149.025c0-0.719-0.021-1.297-0.042-1.83h0.823l0.041,0.961h0.021
			c0.375-0.684,0.969-1.088,1.793-1.088c1.219,0,2.137,1.146,2.137,2.848c0,2.016-1.105,3.012-2.293,3.012
			c-0.668,0-1.251-0.324-1.553-0.881h-0.021v3.047h-0.906V149.025z M41.838,150.519c0,0.15,0.021,0.289,0.041,0.416
			c0.168,0.707,0.72,1.193,1.377,1.193c0.969,0,1.531-0.881,1.531-2.166c0-1.123-0.531-2.084-1.5-2.084
			c-0.626,0-1.209,0.498-1.387,1.262c-0.031,0.127-0.063,0.277-0.063,0.416V150.519z"/>
		<path fill="#FFFFFF" d="M46.883,149.406l4.836-2.768v0.799l-4.075,2.271v0.021l4.075,2.271v0.799l-4.836-2.768V149.406z"/>
		<path fill="#FFFFFF" d="M57.483,148.955c0,2.561-0.855,3.973-2.355,3.973c-1.324,0-2.221-1.379-2.241-3.869
			c0-2.523,0.979-3.914,2.355-3.914C56.669,145.144,57.483,146.558,57.483,148.955z M53.803,149.07c0,1.959,0.542,3.07,1.376,3.07
			c0.938,0,1.386-1.217,1.386-3.139c0-1.854-0.427-3.07-1.375-3.07C54.387,145.931,53.803,147.021,53.803,149.07z"/>
		<path fill="#FFFFFF" d="M58.494,152.197c0-0.428,0.261-0.729,0.625-0.729c0.365,0,0.615,0.301,0.615,0.729
			c0,0.418-0.239,0.73-0.626,0.73C58.744,152.927,58.494,152.615,58.494,152.197z"/>
		<path fill="#FFFFFF" d="M65.174,148.955c0,2.561-0.855,3.973-2.355,3.973c-1.324,0-2.221-1.379-2.241-3.869
			c0-2.523,0.979-3.914,2.355-3.914C64.361,145.144,65.174,146.558,65.174,148.955z M61.495,149.07c0,1.959,0.542,3.07,1.376,3.07
			c0.938,0,1.386-1.217,1.386-3.139c0-1.854-0.427-3.07-1.375-3.07C62.079,145.931,61.495,147.021,61.495,149.07z"/>
		<path fill="#FFFFFF" d="M70.833,148.955c0,2.561-0.854,3.973-2.355,3.973c-1.323,0-2.22-1.379-2.241-3.869
			c0-2.523,0.98-3.914,2.355-3.914C70.02,145.144,70.833,146.558,70.833,148.955z M67.155,149.07c0,1.959,0.542,3.07,1.375,3.07
			c0.938,0,1.387-1.217,1.387-3.139c0-1.854-0.428-3.07-1.376-3.07C67.739,145.931,67.155,147.021,67.155,149.07z"/>
		<path fill="#FFFFFF" d="M72.991,146.222h-0.021l-1.177,0.705l-0.177-0.775l1.479-0.881h0.781v7.529h-0.886V146.222z"/>
		<path fill="#FFFFFF" d="M76.18,154.201c0.74-1.146,1.313-2.652,1.313-4.736c0-2.072-0.563-3.555-1.313-4.701h0.709
			c0.666,0.949,1.365,2.432,1.365,4.713c0,2.27-0.699,3.74-1.365,4.725H76.18z"/>
	</g>
	<g>
		<path fill="#FFFFFF" d="M34.75,164.242l-0.729,2.455h-0.938l2.387-7.805h1.094l2.397,7.805h-0.969l-0.751-2.455H34.75z
			 M37.053,163.455l-0.688-2.246c-0.156-0.51-0.261-0.975-0.365-1.426H35.98c-0.104,0.463-0.219,0.939-0.354,1.414l-0.688,2.258
			H37.053z"/>
		<path fill="#FFFFFF" d="M40.097,158.996c0.458-0.104,1.115-0.162,1.741-0.162c0.969,0,1.594,0.197,2.031,0.637
			c0.354,0.348,0.553,0.881,0.553,1.482c0,1.031-0.584,1.715-1.324,1.992v0.035c0.543,0.209,0.865,0.764,1.032,1.574
			c0.229,1.09,0.396,1.842,0.542,2.143h-0.938c-0.115-0.219-0.271-0.891-0.469-1.863c-0.209-1.078-0.584-1.482-1.408-1.518h-0.854
			v3.381h-0.907V158.996z M41.004,162.55h0.928c0.969,0,1.584-0.59,1.584-1.482c0-1.006-0.657-1.447-1.615-1.459
			c-0.438,0-0.751,0.047-0.896,0.094V162.55z"/>
		<path fill="#FFFFFF" d="M45.809,158.996c0.458-0.104,1.115-0.162,1.74-0.162c0.969,0,1.594,0.197,2.032,0.637
			c0.354,0.348,0.552,0.881,0.552,1.482c0,1.031-0.583,1.715-1.323,1.992v0.035c0.542,0.209,0.865,0.764,1.032,1.574
			c0.229,1.09,0.396,1.842,0.541,2.143h-0.938c-0.115-0.219-0.271-0.891-0.469-1.863c-0.209-1.078-0.584-1.482-1.407-1.518h-0.854
			v3.381h-0.906V158.996z M46.715,162.55h0.928c0.969,0,1.584-0.59,1.584-1.482c0-1.006-0.656-1.447-1.615-1.459
			c-0.438,0-0.75,0.047-0.896,0.094V162.55z"/>
		<path fill="#FFFFFF" d="M51.145,162.795v-0.695h5.377v0.695H51.145z M51.145,165.064v-0.695h5.377v0.695H51.145z"/>
		<path fill="#FFFFFF" d="M57.512,166.697v-0.625l0.72-0.775c1.729-1.83,2.512-2.803,2.522-3.938c0-0.766-0.334-1.471-1.345-1.471
			c-0.614,0-1.126,0.346-1.438,0.637l-0.291-0.719c0.469-0.439,1.135-0.764,1.917-0.764c1.459,0,2.074,1.111,2.074,2.188
			c0,1.391-0.907,2.514-2.335,4.043l-0.541,0.557v0.021h3.043v0.846H57.512z"/>
		<path fill="#FFFFFF" d="M63.026,166.095c0-0.428,0.261-0.73,0.626-0.73c0.364,0,0.614,0.303,0.614,0.73
			c0,0.416-0.239,0.729-0.625,0.729C63.276,166.824,63.026,166.511,63.026,166.095z"/>
		<path fill="#FFFFFF" d="M65.215,166.697v-0.625l0.719-0.775c1.73-1.83,2.512-2.803,2.521-3.938c0-0.766-0.333-1.471-1.344-1.471
			c-0.615,0-1.125,0.346-1.438,0.637l-0.293-0.719c0.469-0.439,1.137-0.764,1.918-0.764c1.459,0,2.074,1.111,2.074,2.188
			c0,1.391-0.906,2.514-2.334,4.043l-0.543,0.557v0.021h3.043v0.846H65.215z"/>
		<path fill="#FFFFFF" d="M73.709,161.289c0,1.586-0.751,2.375-1.626,2.375c-0.845,0-1.573-0.754-1.585-2.271
			c0-1.504,0.74-2.35,1.637-2.35C73.084,159.043,73.709,159.853,73.709,161.289z M71.229,161.359
			c-0.021,0.961,0.302,1.689,0.875,1.689c0.604,0,0.875-0.717,0.875-1.713c0-0.916-0.239-1.68-0.875-1.68
			C71.531,159.656,71.229,160.408,71.229,161.359z M72.021,166.824l3.981-7.781h0.583l-3.981,7.781H72.021z M78.118,164.404
			c0,1.588-0.75,2.375-1.615,2.375c-0.845,0-1.574-0.754-1.584-2.26c0-1.516,0.739-2.361,1.636-2.361
			C77.502,162.158,78.118,162.968,78.118,164.404z M75.637,164.474c-0.011,0.961,0.322,1.689,0.886,1.689
			c0.604,0,0.876-0.717,0.876-1.713c0-0.916-0.24-1.68-0.876-1.68C75.95,162.771,75.637,163.525,75.637,164.474z"/>
	</g>
</g>
</svg>
