<?xml version="1.0" encoding="utf-8"?>
<!-- Generator: Adobe Illustrator 17.0.0, SVG Export Plug-In . SVG Version: 6.00 Build 0)  -->
<!DOCTYPE svg PUBLIC "-//W3C//DTD SVG 1.1//EN" "http://www.w3.org/Graphics/SVG/1.1/DTD/svg11.dtd">
<svg version="1.1" id="Layer_1" xmlns="http://www.w3.org/2000/svg" xmlns:xlink="http://www.w3.org/1999/xlink" x="0px" y="0px"
	 width="97.356px" height="126.827px" viewBox="0 0 97.356 126.827" enable-background="new 0 0 97.356 126.827"
	 xml:space="preserve">
<g>
	<g>
		<defs>
			<path id="SVGID_43_" d="M10.423,0C10.423,0,0,0,0,10.423v69.516c0,0,0,10.423,8.34,16.671l31.996,23.969
				c0,0,8.342,6.248,16.683,0L89.015,96.61c0,0,8.342-6.249,8.342-16.671V10.423c0,0,0-10.423-10.423-10.423H10.423z"/>
		</defs>
		<clipPath id="SVGID_1_">
			<use xlink:href="#SVGID_43_"  overflow="visible"/>
		</clipPath>
		
			<radialGradient id="SVGID_2_" cx="-2962.7698" cy="540.0523" r="1.1581" gradientTransform="matrix(-61.45 0 0 77.714 -182013.5156 -41892.8945)" gradientUnits="userSpaceOnUse">
			<stop  offset="0" style="stop-color:#C8DFAA"/>
			<stop  offset="1" style="stop-color:#C8DFAA"/>
		</radialGradient>
		<rect x="0" y="0" clip-path="url(#SVGID_1_)" fill="url(#SVGID_2_)" width="97.356" height="126.827"/>
	</g>
	<g>
		<path fill="#006C84" d="M22.205,7.152h-1.707V6.468h4.156v0.685h-1.716v5.558h-0.733V7.152z"/>
		<path fill="#006C84" d="M25.175,6.134h0.733v2.797h0.016c0.117-0.231,0.301-0.435,0.525-0.574c0.217-0.139,0.475-0.231,0.75-0.231
			c0.541,0,1.408,0.371,1.408,1.917v2.668h-0.733v-2.575c0-0.722-0.241-1.333-0.933-1.333c-0.476,0-0.851,0.37-0.984,0.814
			c-0.041,0.111-0.049,0.231-0.049,0.39v2.704h-0.733V6.134z"/>
		<path fill="#006C84" d="M30.285,10.617c0.018,1.102,0.65,1.556,1.383,1.556c0.525,0,0.842-0.102,1.117-0.231l0.125,0.583
			c-0.259,0.13-0.7,0.278-1.342,0.278c-1.241,0-1.982-0.908-1.982-2.26c0-1.353,0.717-2.418,1.891-2.418
			c1.316,0,1.666,1.288,1.666,2.112c0,0.166-0.016,0.296-0.024,0.38H30.285z M32.436,10.033c0.008-0.519-0.192-1.324-1.018-1.324
			c-0.74,0-1.066,0.759-1.124,1.324H32.436z"/>
		<path fill="#006C84" d="M35.981,9.626c0-0.528-0.008-0.982-0.033-1.398h0.642l0.024,0.88h0.034
			c0.183-0.603,0.624-0.982,1.116-0.982c0.084,0,0.142,0.01,0.208,0.028v0.769c-0.075-0.019-0.149-0.028-0.249-0.028
			c-0.518,0-0.884,0.436-0.984,1.047c-0.016,0.111-0.033,0.241-0.033,0.38v2.39h-0.725V9.626z"/>
		<path fill="#006C84" d="M39.608,6.968c0.008,0.277-0.176,0.5-0.467,0.5c-0.259,0-0.441-0.223-0.441-0.5
			c0-0.287,0.191-0.51,0.457-0.51C39.432,6.458,39.608,6.681,39.608,6.968z M38.791,12.71V8.228h0.732v4.482H38.791z"/>
		<path fill="#006C84" d="M40.725,11.876c0.217,0.158,0.6,0.324,0.967,0.324c0.533,0,0.783-0.296,0.783-0.667
			c0-0.389-0.209-0.602-0.75-0.824C41,10.422,40.658,9.978,40.658,9.441c0-0.723,0.525-1.315,1.392-1.315
			c0.408,0,0.767,0.13,0.991,0.278l-0.184,0.593c-0.158-0.111-0.449-0.26-0.824-0.26c-0.434,0-0.675,0.278-0.675,0.611
			c0,0.371,0.241,0.537,0.767,0.76c0.699,0.296,1.058,0.686,1.058,1.353c0,0.787-0.55,1.343-1.508,1.343
			c-0.441,0-0.85-0.12-1.134-0.306L40.725,11.876z"/>
		<path fill="#006C84" d="M44.927,10.283h0.017c0.1-0.157,0.242-0.352,0.358-0.51l1.183-1.546h0.883l-1.557,1.843l1.773,2.64h-0.891
			l-1.392-2.148l-0.375,0.463v1.686h-0.725V6.134h0.725V10.283z"/>
		<path fill="#006C84" d="M53.688,10.432c0,1.658-1.033,2.38-2.008,2.38c-1.092,0-1.934-0.889-1.934-2.306
			c0-1.501,0.884-2.381,2-2.381C52.905,8.125,53.688,9.061,53.688,10.432z M50.489,10.478c0,0.982,0.508,1.723,1.225,1.723
			c0.699,0,1.225-0.731,1.225-1.741c0-0.759-0.342-1.723-1.208-1.723S50.489,9.626,50.489,10.478z"/>
		<path fill="#006C84" d="M54.766,12.71V8.848h-0.566v-0.62h0.566V8.014c0-0.63,0.125-1.204,0.467-1.564
			c0.275-0.297,0.641-0.417,0.982-0.417c0.259,0,0.484,0.064,0.625,0.13l-0.1,0.629c-0.108-0.055-0.258-0.102-0.467-0.102
			c-0.625,0-0.783,0.611-0.783,1.297v0.241h0.975v0.62H55.49v3.862H54.766z"/>
		<path fill="#006C84" d="M59.127,12.71V8.848h-0.566v-0.62h0.566V8.014c0-0.63,0.125-1.204,0.467-1.564
			c0.274-0.297,0.641-0.417,0.982-0.417c0.258,0,0.483,0.064,0.625,0.13l-0.1,0.629c-0.109-0.055-0.259-0.102-0.467-0.102
			c-0.625,0-0.783,0.611-0.783,1.297v0.241h0.975v0.62h-0.975v3.862H59.127z"/>
		<path fill="#006C84" d="M63.645,12.71l-0.059-0.565h-0.025c-0.225,0.353-0.658,0.667-1.232,0.667
			c-0.816,0-1.233-0.639-1.233-1.287c0-1.084,0.866-1.677,2.425-1.667V9.765c0-0.37-0.092-1.037-0.917-1.037
			c-0.374,0-0.767,0.129-1.05,0.333l-0.166-0.537c0.333-0.241,0.816-0.398,1.324-0.398c1.233,0,1.533,0.936,1.533,1.834v1.677
			c0,0.389,0.017,0.769,0.066,1.074H63.645z M63.536,10.422c-0.8-0.019-1.708,0.14-1.708,1.01c0,0.528,0.316,0.778,0.691,0.778
			c0.525,0,0.857-0.371,0.975-0.75c0.025-0.084,0.042-0.177,0.042-0.26V10.422z"/>
		<path fill="#006C84" d="M66.389,6.94v1.288h1.049v0.62h-1.049v2.417c0,0.557,0.141,0.871,0.549,0.871
			c0.192,0,0.334-0.027,0.426-0.056l0.033,0.611c-0.142,0.064-0.367,0.111-0.65,0.111c-0.342,0-0.616-0.12-0.791-0.343
			c-0.209-0.241-0.283-0.639-0.283-1.167V8.848h-0.625v-0.62h0.625V7.152L66.389,6.94z"/>
		<path fill="#006C84" d="M70.74,12.71l-0.058-0.565h-0.025c-0.225,0.353-0.658,0.667-1.233,0.667c-0.816,0-1.233-0.639-1.233-1.287
			c0-1.084,0.867-1.677,2.425-1.667V9.765c0-0.37-0.091-1.037-0.916-1.037c-0.375,0-0.767,0.129-1.05,0.333l-0.167-0.537
			c0.333-0.241,0.816-0.398,1.325-0.398c1.232,0,1.533,0.936,1.533,1.834v1.677c0,0.389,0.016,0.769,0.066,1.074H70.74z
			 M70.631,10.422c-0.8-0.019-1.707,0.14-1.707,1.01c0,0.528,0.316,0.778,0.691,0.778c0.524,0,0.857-0.371,0.975-0.75
			c0.024-0.084,0.041-0.177,0.041-0.26V10.422z"/>
		<path fill="#006C84" d="M72.602,6.134h0.732v6.576h-0.732V6.134z"/>
	</g>
	<g>
		<path fill="#006C84" d="M32.53,22.012c0,1.658-1.033,2.38-2.008,2.38c-1.092,0-1.934-0.889-1.934-2.306
			c0-1.501,0.884-2.381,2-2.381C31.746,19.705,32.53,20.641,32.53,22.012z M29.33,22.058c0,0.982,0.508,1.723,1.225,1.723
			c0.699,0,1.225-0.731,1.225-1.741c0-0.759-0.342-1.723-1.208-1.723S29.33,21.206,29.33,22.058z"/>
		<path fill="#006C84" d="M33.533,21.206c0-0.528-0.009-0.982-0.033-1.398h0.641l0.025,0.88h0.033
			c0.184-0.603,0.625-0.982,1.117-0.982c0.083,0,0.141,0.01,0.208,0.028v0.769c-0.075-0.019-0.15-0.028-0.25-0.028
			c-0.517,0-0.884,0.436-0.983,1.047c-0.017,0.111-0.033,0.241-0.033,0.38v2.39h-0.725V21.206z"/>
		<path fill="#006C84" d="M38.186,21.021c0-0.463-0.009-0.843-0.033-1.213h0.649l0.042,0.74h0.017
			c0.2-0.426,0.667-0.843,1.333-0.843c0.559,0,1.424,0.371,1.424,1.908v2.677h-0.732v-2.584c0-0.723-0.242-1.324-0.934-1.324
			c-0.482,0-0.857,0.379-0.982,0.833c-0.033,0.103-0.051,0.241-0.051,0.38v2.695h-0.732V21.021z"/>
		<path fill="#006C84" d="M46.537,22.012c0,1.658-1.033,2.38-2.008,2.38c-1.092,0-1.934-0.889-1.934-2.306
			c0-1.501,0.884-2.381,2-2.381C45.754,19.705,46.537,20.641,46.537,22.012z M43.338,22.058c0,0.982,0.508,1.723,1.225,1.723
			c0.699,0,1.225-0.731,1.225-1.741c0-0.759-0.342-1.723-1.208-1.723S43.338,21.206,43.338,22.058z"/>
		<path fill="#006C84" d="M47.549,21.021c0-0.463-0.009-0.843-0.033-1.213h0.649l0.042,0.74h0.017
			c0.2-0.426,0.667-0.843,1.333-0.843c0.559,0,1.424,0.371,1.424,1.908v2.677h-0.732v-2.584c0-0.723-0.242-1.324-0.934-1.324
			c-0.482,0-0.857,0.379-0.982,0.833c-0.033,0.103-0.051,0.241-0.051,0.38v2.695h-0.732V21.021z"/>
		<path fill="#006C84" d="M53.951,21.483v0.603h-2.059v-0.603H53.951z"/>
		<path fill="#006C84" d="M54.961,24.29v-3.862h-0.566v-0.62h0.566v-0.214c0-0.63,0.125-1.204,0.467-1.564
			c0.275-0.297,0.641-0.417,0.982-0.417c0.259,0,0.484,0.064,0.625,0.13l-0.1,0.629c-0.108-0.055-0.258-0.102-0.467-0.102
			c-0.625,0-0.783,0.611-0.783,1.297v0.241h0.975v0.62h-0.975v3.862H54.961z"/>
		<path fill="#006C84" d="M59.479,24.29l-0.059-0.565h-0.024c-0.226,0.353-0.658,0.667-1.233,0.667
			c-0.816,0-1.232-0.639-1.232-1.287c0-1.084,0.866-1.677,2.424-1.667v-0.093c0-0.37-0.092-1.037-0.916-1.037
			c-0.375,0-0.767,0.129-1.05,0.333l-0.167-0.537c0.334-0.241,0.816-0.398,1.324-0.398c1.234,0,1.533,0.936,1.533,1.834v1.677
			c0,0.389,0.018,0.769,0.066,1.074H59.479z M59.37,22.002c-0.8-0.019-1.708,0.14-1.708,1.01c0,0.528,0.316,0.778,0.691,0.778
			c0.525,0,0.858-0.371,0.975-0.75c0.025-0.084,0.042-0.177,0.042-0.26V22.002z"/>
		<path fill="#006C84" d="M62.223,18.52v1.288h1.05v0.62h-1.05v2.417c0,0.557,0.142,0.871,0.55,0.871
			c0.192,0,0.333-0.027,0.425-0.056l0.033,0.611c-0.141,0.064-0.366,0.111-0.649,0.111c-0.342,0-0.616-0.12-0.792-0.343
			c-0.208-0.241-0.283-0.639-0.283-1.167v-2.445h-0.625v-0.62h0.625v-1.075L62.223,18.52z"/>
		<path fill="#006C84" d="M66.582,24.29l-0.058-0.565H66.5c-0.226,0.353-0.658,0.667-1.234,0.667c-0.816,0-1.232-0.639-1.232-1.287
			c0-1.084,0.867-1.677,2.424-1.667v-0.093c0-0.37-0.091-1.037-0.916-1.037c-0.375,0-0.766,0.129-1.049,0.333l-0.168-0.537
			c0.334-0.241,0.817-0.398,1.325-0.398c1.233,0,1.533,0.936,1.533,1.834v1.677c0,0.389,0.017,0.769,0.066,1.074H66.582z
			 M66.475,22.002c-0.8-0.019-1.708,0.14-1.708,1.01c0,0.528,0.316,0.778,0.691,0.778c0.524,0,0.858-0.371,0.975-0.75
			c0.024-0.084,0.042-0.177,0.042-0.26V22.002z"/>
		<path fill="#006C84" d="M68.444,17.714h0.733v6.576h-0.733V17.714z"/>
	</g>
	<g>
		<path fill="#004F63" d="M30.754,38.627c-0.012,0.267,0,0.521,0.078,0.706c0.088,0.186,0.256,0.278,0.566,0.278
			c0.313,0,0.578-0.209,0.578-0.603c0-1.239-2.758-0.961-2.758-2.826c0-1.262,1.201-1.645,2.213-1.645
			c1.068,0,2.036,0.533,1.947,1.796h-1.535c0-0.405-0.045-0.649-0.156-0.753c-0.1-0.104-0.232-0.128-0.4-0.128
			c-0.344,0-0.533,0.231-0.533,0.626c0,0.926,2.758,0.88,2.758,2.756c0,1.02-0.801,1.784-2.102,1.784
			c-1.369,0-2.281-0.359-2.191-1.992H30.754z"/>
		<path fill="#004F63" d="M33.821,34.654h0.635v-0.927l1.568-0.729v1.656h0.813v1.008h-0.813v3.127c0,0.439-0.012,0.729,0.5,0.729
			c0.101,0,0.201,0,0.279-0.023v1.008c-0.212,0.023-0.435,0.058-0.813,0.058c-1.357,0-1.535-0.938-1.535-1.297v-3.602h-0.635V34.654
			z"/>
		<path fill="#004F63" d="M39.036,34.654v0.753h0.022c0.289-0.672,0.823-0.869,1.457-0.869v1.46
			c-1.379-0.093-1.401,0.741-1.401,1.32v3.185h-1.568v-5.849H39.036z"/>
		<path fill="#004F63" d="M41.114,37.503c0-1.598,0.223-2.965,2.292-2.965s2.292,1.367,2.292,2.965c0,1.83-0.268,3.116-2.292,3.116
			S41.114,39.333,41.114,37.503z M44.129,37.411c0-1.217-0.057-1.83-0.724-1.83s-0.723,0.613-0.723,1.83
			c0,1.783,0.145,2.165,0.723,2.165C43.985,39.576,44.129,39.194,44.129,37.411z"/>
		<path fill="#004F63" d="M46.774,40.503v-8.361h1.568v4.979h0.021l1.413-2.467h1.636l-1.592,2.605l1.77,3.243h-1.77l-1.457-3.185
			h-0.021v3.185H46.774z"/>
		<path fill="#004F63" d="M53.811,37.839c0,0.695,0.023,1.737,0.713,1.737c0.556,0,0.667-0.556,0.667-1.042h1.591
			c-0.022,0.637-0.223,1.158-0.601,1.517c-0.367,0.359-0.923,0.568-1.657,0.568c-2.025,0-2.292-1.286-2.292-3.116
			c0-1.598,0.223-2.965,2.292-2.965c2.113,0,2.347,1.425,2.291,3.301H53.811z M55.246,36.924c0-0.567,0.022-1.378-0.723-1.378
			c-0.723,0-0.713,0.881-0.713,1.378H55.246z"/>
		<path fill="#004F63" d="M60.392,32.142h1.568v3.068h0.022c0.322-0.498,0.711-0.672,1.279-0.672c1.579,0,1.535,1.818,1.535,3
			c0,1.204,0.055,3.081-1.568,3.081c-0.602,0-1.035-0.197-1.324-0.765h-0.022v0.648h-1.49V32.142z M63.262,37.526
			c0-1.17,0.011-1.98-0.668-1.98c-0.645,0-0.634,0.811-0.634,1.98c0,1.471,0.101,2.085,0.634,2.085
			C63.161,39.611,63.262,38.997,63.262,37.526z"/>
		<path fill="#004F63" d="M66.951,40.549l-1.523-5.895h1.557l0.802,4.111h0.022l0.846-4.111h1.512l-2.169,8.061h-1.646
			L66.951,40.549z"/>
	</g>
	<g>
		<path fill="#004F63" d="M18.076,84.259l7.756-7.07c1.371-1.242,2.913-2.613,4.498-4.541c1.672-2.015,2.057-2.957,2.057-4.328
			c0-2.271-1.328-3.813-3.556-3.813c-3.428,0-3.728,3.514-3.771,4.37h-6.556c0-1.199,0-3.428,1.757-5.612
			c1.714-2.143,4.885-3.257,8.526-3.257c6.513,0,10.112,3.514,10.112,8.142c0,3.085-1.2,7.069-14.14,17.481
			c4.327-0.086,4.842-0.129,8.227-0.172c4.585-0.086,5.099-0.086,6.084-0.129V90.3H18.076V84.259z"/>
		<path fill="#004F63" d="M48.498,82.931c-0.042,0.686,0.515,3.342,3.514,3.342c2.314,0,4.414-1.671,4.414-5.613
			c0-2.871-1.114-5.355-3.985-5.355c-2.87,0-3.599,2.313-3.813,2.999l-6.213-0.171L43.1,60.436h18.125v4.885H48.756l-0.386,7.412
			c0.942-0.813,2.356-2.142,5.655-2.142c4.799,0,8.827,3.513,8.827,9.512c0,5.099-2.999,10.84-10.669,10.84
			c-3.128,0-6.299-0.814-8.355-3.256c-1.5-1.8-1.628-3.643-1.671-4.756H48.498z"/>
	</g>
	<g>
		<path fill="#004F63" d="M72.074,79.789c0,2.44-1.438,3.563-3.229,3.563c-1.713,0-3.17-1.023-3.17-3.444
			c0-2.067,1.123-3.603,3.347-3.603C71.286,76.305,72.074,77.997,72.074,79.789z M70.519,79.867c0-0.964-0.236-2.382-1.634-2.382
			c-1.693,0-1.693,1.93-1.693,2.401c0,0.453,0,2.323,1.693,2.323C70.519,82.21,70.519,80.261,70.519,79.867z M68.295,91.067
			l8.68-15.156h1.299l-8.68,15.156H68.295z M80.301,84.434c0.355,0.395,0.808,1.024,0.808,2.5c0,2.146-1.043,3.603-3.169,3.603
			c-2.52,0-3.229-1.87-3.229-3.504c0-2.382,1.477-3.543,3.229-3.543C78.471,83.489,79.533,83.588,80.301,84.434z M79.613,86.974
			c0-0.61-0.118-2.382-1.653-2.382c-1.693,0-1.693,2.047-1.693,2.638c0,0.688,0.158,2.146,1.654,2.146
			C79.494,89.375,79.613,87.682,79.613,86.974z"/>
	</g>
	<g>
		<path fill="#006C84" d="M37.688,101.468c-0.533,0.794-0.92,1.848-0.92,3.313c0,1.442,0.402,2.479,0.92,3.29h-0.504
			c-0.459-0.673-0.955-1.71-0.955-3.29c0.008-1.596,0.496-2.633,0.955-3.313H37.688z"/>
	</g>
	<g>
		<path fill="#006C84" d="M38.396,104.449c0-0.502-0.015-0.907-0.028-1.28h0.576l0.028,0.673h0.015
			c0.263-0.479,0.679-0.762,1.255-0.762c0.853,0,1.495,0.802,1.495,1.993c0,1.41-0.773,2.106-1.604,2.106
			c-0.467,0-0.876-0.227-1.087-0.615h-0.015v2.131h-0.635V104.449z M39.031,105.495c0,0.104,0.015,0.202,0.029,0.291
			c0.116,0.494,0.503,0.835,0.963,0.835c0.679,0,1.071-0.616,1.071-1.516c0-0.786-0.371-1.458-1.05-1.458
			c-0.438,0-0.846,0.349-0.97,0.883c-0.021,0.089-0.044,0.194-0.044,0.292V105.495z"/>
	</g>
	<g>
		<path fill="#006C84" d="M42.283,104.36v-0.486h3.764v0.486H42.283z M42.283,105.948v-0.486h3.764v0.486H42.283z"/>
		<path fill="#006C84" d="M49.893,104.4c0,1.791-0.599,2.779-1.648,2.779c-0.927,0-1.554-0.964-1.568-2.706
			c0-1.767,0.686-2.738,1.648-2.738C49.324,101.735,49.893,102.724,49.893,104.4z M47.318,104.482c0,1.37,0.38,2.147,0.963,2.147
			c0.656,0,0.97-0.851,0.97-2.195c0-1.297-0.299-2.147-0.963-2.147C47.727,102.286,47.318,103.048,47.318,104.482z"/>
		<path fill="#006C84" d="M50.601,106.67c0-0.3,0.183-0.511,0.438-0.511s0.431,0.211,0.431,0.511c0,0.291-0.168,0.51-0.438,0.51
			C50.776,107.18,50.601,106.961,50.601,106.67z"/>
		<path fill="#006C84" d="M55.276,104.4c0,1.791-0.598,2.779-1.648,2.779c-0.926,0-1.553-0.964-1.567-2.706
			c0-1.767,0.686-2.738,1.648-2.738C54.707,101.735,55.276,102.724,55.276,104.4z M52.701,104.482c0,1.37,0.379,2.147,0.963,2.147
			c0.656,0,0.971-0.851,0.971-2.195c0-1.297-0.3-2.147-0.963-2.147C53.11,102.286,52.701,103.048,52.701,104.482z"/>
		<path fill="#006C84" d="M55.934,107.091v-0.438l0.504-0.543c1.21-1.28,1.758-1.961,1.765-2.755c0-0.534-0.233-1.029-0.94-1.029
			c-0.431,0-0.788,0.243-1.008,0.446l-0.203-0.503c0.328-0.308,0.795-0.534,1.342-0.534c1.021,0,1.451,0.777,1.451,1.531
			c0,0.973-0.635,1.758-1.634,2.827l-0.379,0.39v0.016h2.13v0.592H55.934z"/>
		<path fill="#006C84" d="M59.56,108.071c0.518-0.802,0.919-1.855,0.919-3.314c0-1.45-0.395-2.487-0.919-3.289h0.496
			c0.467,0.664,0.955,1.701,0.955,3.298c0,1.588-0.488,2.617-0.955,3.306H59.56z"/>
	</g>
</g>
</svg>
