<?xml version="1.0" encoding="utf-8"?>
<!-- Generator: Adobe Illustrator 17.0.0, SVG Export Plug-In . SVG Version: 6.00 Build 0)  -->
<!DOCTYPE svg PUBLIC "-//W3C//DTD SVG 1.1//EN" "http://www.w3.org/Graphics/SVG/1.1/DTD/svg11.dtd">
<svg version="1.1" id="Layer_1" xmlns="http://www.w3.org/2000/svg" xmlns:xlink="http://www.w3.org/1999/xlink" x="0px" y="0px"
	 width="96.757px" height="127.987px" viewBox="0 0 96.757 127.987" enable-background="new 0 0 96.757 127.987"
	 xml:space="preserve">
<g>
	<g>
		<defs>
			<path id="SVGID_46_" d="M10.423,0C10.423,0,0,0,0,10.423v70.343c0,0,0,10.423,8.295,16.732l31.788,24.178
				c0,0,8.295,6.311,16.591,0l31.789-24.178c0,0,8.295-6.309,8.295-16.732V10.423c0,0,0-10.423-10.423-10.423H10.423z"/>
		</defs>
		<clipPath id="SVGID_1_">
			<use xlink:href="#SVGID_46_"  overflow="visible"/>
		</clipPath>
		
			<radialGradient id="SVGID_2_" cx="-2963.3638" cy="406.0872" r="1.1581" gradientTransform="matrix(-61.0749 0 0 78.4189 -180938.7656 -31767.4805)" gradientUnits="userSpaceOnUse">
			<stop  offset="0" style="stop-color:#C8DFAA"/>
			<stop  offset="1" style="stop-color:#C8DFAA"/>
		</radialGradient>
		<rect x="0" y="0" clip-path="url(#SVGID_1_)" fill="url(#SVGID_2_)" width="96.757" height="127.987"/>
	</g>
	<g>
		<path fill="#006C84" d="M30.656,9.677h-1.707V8.994h4.156v0.684H31.39v5.559h-0.733V9.677z"/>
		<path fill="#006C84" d="M33.626,8.66h0.733v2.797h0.016c0.117-0.232,0.301-0.436,0.525-0.574c0.217-0.139,0.475-0.232,0.75-0.232
			c0.541,0,1.408,0.371,1.408,1.918v2.668h-0.733V12.66c0-0.721-0.241-1.332-0.933-1.332c-0.476,0-0.851,0.369-0.984,0.814
			c-0.041,0.111-0.049,0.23-0.049,0.389v2.705h-0.733V8.66z"/>
		<path fill="#006C84" d="M38.736,13.142c0.018,1.102,0.65,1.557,1.383,1.557c0.525,0,0.842-0.102,1.117-0.232l0.125,0.584
			c-0.259,0.129-0.7,0.277-1.342,0.277c-1.241,0-1.982-0.908-1.982-2.26s0.717-2.418,1.891-2.418c1.316,0,1.666,1.289,1.666,2.113
			c0,0.166-0.016,0.295-0.024,0.379H38.736z M40.887,12.558c0.008-0.518-0.192-1.324-1.018-1.324c-0.74,0-1.066,0.76-1.124,1.324
			H40.887z"/>
		<path fill="#006C84" d="M44.432,12.152c0-0.529-0.008-0.982-0.033-1.398h0.642l0.024,0.879h0.034
			c0.183-0.602,0.624-0.982,1.116-0.982c0.084,0,0.142,0.01,0.208,0.029v0.768c-0.075-0.018-0.149-0.027-0.249-0.027
			c-0.518,0-0.884,0.436-0.984,1.047c-0.016,0.111-0.033,0.24-0.033,0.379v2.391h-0.725V12.152z"/>
		<path fill="#006C84" d="M48.059,9.494c0.008,0.277-0.176,0.5-0.467,0.5c-0.259,0-0.441-0.223-0.441-0.5
			c0-0.287,0.191-0.51,0.457-0.51C47.883,8.984,48.059,9.207,48.059,9.494z M47.242,15.236v-4.482h0.732v4.482H47.242z"/>
		<path fill="#006C84" d="M49.176,14.402c0.217,0.158,0.6,0.324,0.967,0.324c0.533,0,0.783-0.297,0.783-0.668
			c0-0.389-0.209-0.602-0.75-0.824c-0.725-0.287-1.066-0.73-1.066-1.268c0-0.723,0.525-1.316,1.392-1.316
			c0.408,0,0.767,0.131,0.991,0.279l-0.184,0.592c-0.158-0.111-0.449-0.26-0.824-0.26c-0.434,0-0.675,0.279-0.675,0.611
			c0,0.371,0.241,0.537,0.767,0.76c0.699,0.297,1.058,0.686,1.058,1.354c0,0.787-0.55,1.342-1.508,1.342
			c-0.441,0-0.85-0.119-1.134-0.305L49.176,14.402z"/>
		<path fill="#006C84" d="M53.378,12.808h0.017c0.1-0.156,0.242-0.352,0.358-0.51l1.183-1.545h0.883l-1.557,1.842l1.773,2.641
			h-0.891l-1.392-2.148l-0.375,0.463v1.686h-0.725V8.66h0.725V12.808z"/>
		<path fill="#006C84" d="M62.139,12.957c0,1.658-1.033,2.381-2.008,2.381c-1.092,0-1.934-0.889-1.934-2.307
			c0-1.5,0.884-2.381,2-2.381C61.356,10.65,62.139,11.586,62.139,12.957z M58.94,13.004c0,0.982,0.508,1.723,1.225,1.723
			c0.699,0,1.225-0.732,1.225-1.742c0-0.758-0.342-1.723-1.208-1.723S58.94,12.152,58.94,13.004z"/>
		<path fill="#006C84" d="M63.217,15.236v-3.863h-0.566v-0.619h0.566v-0.215c0-0.629,0.125-1.203,0.467-1.564
			c0.275-0.297,0.641-0.416,0.982-0.416c0.259,0,0.484,0.064,0.625,0.129l-0.1,0.629c-0.108-0.055-0.258-0.102-0.467-0.102
			c-0.625,0-0.783,0.611-0.783,1.297v0.242h0.975v0.619h-0.975v3.863H63.217z"/>
	</g>
	<g>
		<path fill="#004F63" d="M11.049,29.133v-4.031c0-0.521-0.089-0.926-0.59-0.926c-0.5,0-0.589,0.404-0.589,0.926v4.031H8.302v-8.361
			H9.87v3.104h0.022c0.155-0.268,0.345-0.441,0.557-0.545c0.222-0.115,0.478-0.162,0.767-0.162c0.745,0,1.401,0.463,1.401,1.273
			v4.691H11.049z"/>
		<path fill="#004F63" d="M13.727,26.133c0-1.598,0.223-2.965,2.291-2.965c2.07,0,2.292,1.367,2.292,2.965
			c0,1.83-0.267,3.115-2.292,3.115C13.994,29.248,13.727,27.963,13.727,26.133z M16.741,26.041c0-1.217-0.056-1.83-0.724-1.83
			c-0.667,0-0.723,0.613-0.723,1.83c0,1.783,0.145,2.164,0.723,2.164C16.597,28.205,16.741,27.824,16.741,26.041z"/>
		<path fill="#004F63" d="M20.653,27.256c-0.011,0.268,0,0.521,0.078,0.707c0.089,0.186,0.256,0.277,0.567,0.277
			s0.578-0.209,0.578-0.602c0-1.24-2.758-0.961-2.758-2.826c0-1.262,1.201-1.645,2.213-1.645c1.068,0,2.035,0.533,1.947,1.795
			h-1.535c0-0.404-0.045-0.648-0.156-0.752c-0.1-0.105-0.233-0.129-0.4-0.129c-0.345,0-0.534,0.232-0.534,0.627
			c0,0.926,2.759,0.879,2.759,2.756c0,1.02-0.801,1.783-2.102,1.783c-1.369,0-2.281-0.359-2.191-1.992H20.653z"/>
		<path fill="#004F63" d="M25.846,23.283v0.648h0.021c0.289-0.566,0.724-0.764,1.324-0.764c1.624,0,1.568,1.877,1.568,3.08
			c0,1.182,0.045,3-1.535,3c-0.567,0-0.957-0.174-1.279-0.672h-0.021v3.068h-1.568v-8.361H25.846z M27.225,26.156
			c0-1.17,0.012-1.98-0.668-1.98c-0.645,0-0.633,0.811-0.633,1.98c0,1.471,0.1,2.084,0.633,2.084
			C27.125,28.24,27.225,27.627,27.225,26.156z"/>
		<path fill="#004F63" d="M31.615,20.771v1.285h-1.568v-1.285H31.615z M31.615,29.133h-1.568v-5.85h1.568V29.133z"/>
		<path fill="#004F63" d="M32.37,23.283h0.634v-0.926l1.568-0.73v1.656h0.813v1.008h-0.813v3.127c0,0.439-0.011,0.73,0.501,0.73
			c0.101,0,0.2,0,0.278-0.023v1.008c-0.211,0.023-0.434,0.057-0.813,0.057c-1.357,0-1.535-0.938-1.535-1.297v-3.602H32.37V23.283z"
			/>
		<path fill="#004F63" d="M40.356,28.043c0,0.359,0.045,0.73,0.078,1.09h-1.457l-0.067-0.777h-0.022
			c-0.334,0.604-0.789,0.893-1.468,0.893c-1.091,0-1.491-0.846-1.491-1.865c0-1.934,1.436-2.014,2.893-1.992v-0.451
			c0-0.498-0.066-0.857-0.634-0.857c-0.546,0-0.59,0.43-0.59,0.893h-1.535c0-0.707,0.212-1.158,0.579-1.424
			c0.355-0.279,0.867-0.383,1.468-0.383c1.991,0,2.247,0.893,2.247,1.957V28.043z M37.463,27.314c0,0.416,0.067,0.926,0.578,0.926
			c0.924,0,0.779-1.297,0.779-1.934C38.041,26.341,37.463,26.271,37.463,27.314z"/>
		<path fill="#004F63" d="M43.356,20.771v8.361h-1.568v-8.361H43.356z"/>
		<path fill="#004F63" d="M46.446,20.771v1.285h-1.568v-1.285H46.446z M46.446,29.133h-1.568v-5.85h1.568V29.133z"/>
		<path fill="#004F63" d="M49.069,27.256c-0.011,0.268,0,0.521,0.078,0.707c0.089,0.186,0.256,0.277,0.567,0.277
			s0.578-0.209,0.578-0.602c0-1.24-2.758-0.961-2.758-2.826c0-1.262,1.201-1.645,2.213-1.645c1.068,0,2.035,0.533,1.947,1.795H50.16
			c0-0.404-0.045-0.648-0.156-0.752c-0.1-0.105-0.233-0.129-0.4-0.129c-0.345,0-0.534,0.232-0.534,0.627
			c0,0.926,2.759,0.879,2.759,2.756c0,1.02-0.801,1.783-2.102,1.783c-1.369,0-2.281-0.359-2.191-1.992H49.069z"/>
		<path fill="#004F63" d="M57.031,28.043c0,0.359,0.045,0.73,0.078,1.09h-1.457l-0.067-0.777h-0.022
			c-0.334,0.604-0.789,0.893-1.468,0.893c-1.091,0-1.491-0.846-1.491-1.865c0-1.934,1.436-2.014,2.893-1.992v-0.451
			c0-0.498-0.066-0.857-0.634-0.857c-0.546,0-0.59,0.43-0.59,0.893h-1.535c0-0.707,0.212-1.158,0.579-1.424
			c0.355-0.279,0.867-0.383,1.468-0.383c1.991,0,2.247,0.893,2.247,1.957V28.043z M54.139,27.314c0,0.416,0.067,0.926,0.578,0.926
			c0.924,0,0.779-1.297,0.779-1.934C54.717,26.341,54.139,26.271,54.139,27.314z"/>
		<path fill="#004F63" d="M57.695,23.283h0.635v-0.926l1.568-0.73v1.656h0.813v1.008h-0.813v3.127c0,0.439-0.012,0.73,0.5,0.73
			c0.101,0,0.201,0,0.279-0.023v1.008c-0.212,0.023-0.435,0.057-0.813,0.057c-1.357,0-1.535-0.938-1.535-1.297v-3.602h-0.635V23.283
			z"/>
		<path fill="#004F63" d="M63.122,20.771v1.285h-1.568v-1.285H63.122z M63.122,29.133h-1.568v-5.85h1.568V29.133z"/>
		<path fill="#004F63" d="M64.377,26.133c0-1.598,0.223-2.965,2.292-2.965s2.292,1.367,2.292,2.965c0,1.83-0.268,3.115-2.292,3.115
			S64.377,27.963,64.377,26.133z M67.393,26.041c0-1.217-0.057-1.83-0.724-1.83s-0.723,0.613-0.723,1.83
			c0,1.783,0.145,2.164,0.723,2.164C67.248,28.205,67.393,27.824,67.393,26.041z"/>
		<path fill="#004F63" d="M71.639,23.875h0.021c0.156-0.268,0.346-0.441,0.557-0.545c0.223-0.115,0.479-0.162,0.768-0.162
			c0.745,0,1.401,0.463,1.401,1.273v4.691h-1.568v-4.031c0-0.521-0.089-0.926-0.59-0.926s-0.589,0.404-0.589,0.926v4.031H70.07
			v-5.85h1.568V23.875z"/>
		<path fill="#004F63" d="M80.51,21.777c-0.633-0.045-0.768,0.209-0.768,0.801v0.705h0.734v1.008h-0.734v4.842h-1.568v-4.842h-0.7
			v-1.008h0.712c-0.012-1.68-0.145-2.57,1.769-2.57c0.189,0,0.367,0.012,0.556,0.023V21.777z"/>
		<path fill="#004F63" d="M81.053,26.133c0-1.598,0.223-2.965,2.292-2.965s2.292,1.367,2.292,2.965c0,1.83-0.268,3.115-2.292,3.115
			S81.053,27.963,81.053,26.133z M84.068,26.041c0-1.217-0.057-1.83-0.724-1.83s-0.723,0.613-0.723,1.83
			c0,1.783,0.145,2.164,0.723,2.164C83.924,28.205,84.068,27.824,84.068,26.041z"/>
		<path fill="#004F63" d="M88.236,23.283v0.754h0.021c0.289-0.672,0.824-0.869,1.457-0.869v1.459c-1.379-0.092-1.4,0.742-1.4,1.32
			v3.186h-1.568v-5.85H88.236z"/>
	</g>
	<g>
		<path fill="#004F63" d="M33.938,38.849c0-2.211,0-4.32,2.77-4.32c1.714,0,2.403,0.984,2.336,2.779h-1.646
			c0-1.111-0.189-1.527-0.69-1.527c-0.945,0-1.067,0.926-1.067,3.068s0.122,3.07,1.067,3.07c0.779,0,0.746-1.043,0.768-1.703h1.658
			c0,2.234-0.857,2.953-2.426,2.953C33.938,43.17,33.938,41.039,33.938,38.849z"/>
		<path fill="#004F63" d="M43.857,38.015V34.67h1.68v8.361h-1.68V39.3h-1.925v3.73h-1.68V34.67h1.68v3.346H43.857z"/>
		<path fill="#004F63" d="M46.957,43.031V34.67h4.171v1.285h-2.491v2.143h2.38v1.285h-2.38v3.648H46.957z"/>
		<path fill="#004F63" d="M54.317,34.67h1.568v3.068h0.021c0.322-0.498,0.712-0.672,1.279-0.672c1.58,0,1.535,1.818,1.535,3
			c0,1.203,0.056,3.08-1.568,3.08c-0.601,0-1.035-0.197-1.324-0.764h-0.021v0.648h-1.49V34.67z M57.186,40.054
			c0-1.17,0.012-1.98-0.668-1.98c-0.645,0-0.633,0.811-0.633,1.98c0,1.471,0.1,2.084,0.633,2.084
			C57.086,42.138,57.186,41.525,57.186,40.054z"/>
		<path fill="#004F63" d="M60.875,43.076l-1.523-5.895h1.557l0.802,4.111h0.022l0.846-4.111h1.512l-2.169,8.061h-1.646
			L60.875,43.076z"/>
	</g>
	<g>
		<path fill="#004F63" d="M17.248,83.312l7.756-7.07c1.371-1.242,2.913-2.613,4.498-4.541c1.672-2.016,2.057-2.957,2.057-4.328
			c0-2.271-1.328-3.814-3.556-3.814c-3.428,0-3.728,3.514-3.771,4.371h-6.556c0-1.199,0-3.428,1.757-5.613
			c1.714-2.143,4.885-3.256,8.526-3.256c6.513,0,10.112,3.514,10.112,8.141c0,3.086-1.2,7.07-14.14,17.482
			c4.327-0.086,4.842-0.129,8.227-0.172c4.585-0.086,5.099-0.086,6.084-0.129v4.971H17.248V83.312z"/>
		<path fill="#004F63" d="M55.897,66.859c-0.128-2.143-1.542-2.957-3.127-2.957c-4.285,0-4.414,5.312-4.499,8.398
			c1.071-0.986,2.742-2.4,5.87-2.4c4.156,0,8.569,2.957,8.569,9.469c0,3.301-0.899,5.699-3.171,7.799
			c-1.971,1.842-4.285,2.785-7.627,2.785c-10.326,0-10.326-10.025-10.326-13.582c0-6,0.771-12.211,4.842-15.211
			c2.613-1.971,5.742-2.1,6.898-2.1c4.499,0,8.783,2.314,8.912,7.799H55.897z M56.411,79.799c0-3.299-1.714-5.143-3.856-5.143
			c-1.07,0-4.327,0.643-4.327,5.271c0,3.684,1.971,5.227,4.07,5.227C54.141,85.154,56.411,83.869,56.411,79.799z"/>
	</g>
	<g>
		<path fill="#004F63" d="M71.246,78.841c0,2.441-1.437,3.563-3.228,3.563c-1.713,0-3.169-1.023-3.169-3.443
			c0-2.068,1.121-3.604,3.346-3.604C70.459,75.357,71.246,77.05,71.246,78.841z M69.692,78.92c0-0.963-0.236-2.381-1.634-2.381
			c-1.692,0-1.692,1.93-1.692,2.4c0,0.453,0,2.324,1.692,2.324C69.692,81.263,69.692,79.314,69.692,78.92z M67.467,90.121
			l8.682-15.156h1.299l-8.682,15.156H67.467z M79.475,83.486c0.354,0.395,0.807,1.025,0.807,2.5c0,2.146-1.043,3.604-3.169,3.604
			c-2.52,0-3.228-1.871-3.228-3.504c0-2.383,1.476-3.543,3.228-3.543C77.644,82.543,78.707,82.64,79.475,83.486z M78.785,86.027
			c0-0.611-0.117-2.383-1.653-2.383c-1.692,0-1.692,2.047-1.692,2.639c0,0.688,0.157,2.145,1.653,2.145
			C78.668,88.427,78.785,86.734,78.785,86.027z"/>
	</g>
	<g>
		<path fill="#006C84" d="M37.133,103.994c-0.533,0.795-0.92,1.848-0.92,3.314c0,1.441,0.402,2.479,0.92,3.289h-0.504
			c-0.459-0.672-0.955-1.709-0.955-3.289c0.008-1.596,0.496-2.633,0.955-3.314H37.133z"/>
	</g>
	<g>
		<path fill="#006C84" d="M37.84,106.976c0-0.502-0.014-0.908-0.029-1.281h0.576l0.029,0.674h0.015
			c0.263-0.479,0.679-0.762,1.255-0.762c0.854,0,1.495,0.801,1.495,1.992c0,1.41-0.773,2.107-1.604,2.107
			c-0.467,0-0.875-0.227-1.087-0.615h-0.015v2.131H37.84V106.976z M38.475,108.021c0,0.105,0.015,0.203,0.029,0.291
			c0.117,0.494,0.503,0.836,0.963,0.836c0.678,0,1.072-0.617,1.072-1.516c0-0.787-0.372-1.459-1.051-1.459
			c-0.438,0-0.846,0.35-0.97,0.883c-0.022,0.09-0.044,0.195-0.044,0.293V108.021z"/>
	</g>
	<g>
		<path fill="#006C84" d="M41.73,106.886V106.4h3.763v0.486H41.73z M41.73,108.474v-0.486h3.763v0.486H41.73z"/>
		<path fill="#006C84" d="M49.338,106.927c0,1.791-0.598,2.779-1.648,2.779c-0.926,0-1.553-0.965-1.568-2.707
			c0-1.766,0.686-2.738,1.648-2.738C48.77,104.261,49.338,105.25,49.338,106.927z M46.764,107.007c0,1.371,0.379,2.148,0.963,2.148
			c0.656,0,0.97-0.852,0.97-2.195c0-1.297-0.3-2.148-0.963-2.148C47.172,104.812,46.764,105.574,46.764,107.007z"/>
		<path fill="#006C84" d="M50.047,109.197c0-0.301,0.182-0.512,0.438-0.512c0.255,0,0.43,0.211,0.43,0.512
			c0,0.291-0.168,0.51-0.438,0.51C50.221,109.707,50.047,109.488,50.047,109.197z"/>
		<path fill="#006C84" d="M54.722,106.927c0,1.791-0.599,2.779-1.648,2.779c-0.927,0-1.554-0.965-1.567-2.707
			c0-1.766,0.686-2.738,1.648-2.738C54.152,104.261,54.722,105.25,54.722,106.927z M52.147,107.007c0,1.371,0.38,2.148,0.963,2.148
			c0.656,0,0.971-0.852,0.971-2.195c0-1.297-0.299-2.148-0.963-2.148C52.556,104.812,52.147,105.574,52.147,107.007z"/>
		<path fill="#006C84" d="M56.24,105.015h-0.016l-0.824,0.494l-0.123-0.543l1.035-0.615h0.547v5.266H56.24V105.015z"/>
		<path fill="#006C84" d="M58.473,110.597c0.518-0.801,0.919-1.855,0.919-3.313c0-1.451-0.394-2.488-0.919-3.291h0.496
			c0.467,0.664,0.955,1.701,0.955,3.299c0,1.588-0.488,2.617-0.955,3.305H58.473z"/>
	</g>
</g>
</svg>
