<?xml version="1.0" encoding="utf-8"?>
<!-- Generator: Adobe Illustrator 17.0.0, SVG Export Plug-In . SVG Version: 6.00 Build 0)  -->
<!DOCTYPE svg PUBLIC "-//W3C//DTD SVG 1.1//EN" "http://www.w3.org/Graphics/SVG/1.1/DTD/svg11.dtd">
<svg version="1.1" id="Layer_1" xmlns="http://www.w3.org/2000/svg" xmlns:xlink="http://www.w3.org/1999/xlink" x="0px" y="0px"
	 width="215.059px" height="101.815px" viewBox="0 0 215.059 101.815" enable-background="new 0 0 215.059 101.815"
	 xml:space="preserve">
<g>
	<g>
		<defs>
			<rect id="SVGID_35_" x="0" y="0" width="215.059" height="101.815"/>
		</defs>
		<clipPath id="SVGID_1_">
			<use xlink:href="#SVGID_35_"  overflow="visible"/>
		</clipPath>
		<g opacity="0.9" clip-path="url(#SVGID_1_)">
			<g>
				<defs>
					<rect id="SVGID_37_" x="4.601" y="3.112" width="205.943" height="94.188"/>
				</defs>
				<clipPath id="SVGID_2_">
					<use xlink:href="#SVGID_37_"  overflow="visible"/>
				</clipPath>
				<g clip-path="url(#SVGID_2_)">
					<defs>
						<rect id="SVGID_39_" x="4.601" y="3.112" width="205.943" height="94.188"/>
					</defs>
					<clipPath id="SVGID_4_">
						<use xlink:href="#SVGID_39_"  overflow="visible"/>
					</clipPath>
					<path clip-path="url(#SVGID_4_)" fill="#FFFFFF" d="M210.544,86.128c0,6.171-4.724,11.173-10.55,11.173H15.148
						c-5.823,0-10.549-5.002-10.549-11.173V14.284c0-6.17,4.725-11.171,10.549-11.171h184.846c5.826,0,10.55,5.002,10.55,11.171
						V86.128z"/>
				</g>
			</g>
		</g>
	</g>
	<g>
		<path fill="#04617D" d="M16.396,46.142h0.899l2.455,6.07h-0.916l-0.656-1.581h-2.816l-0.655,1.581H13.84L16.396,46.142z
			 M15.631,49.95h2.295l-1.118-2.977L15.631,49.95z"/>
		<path fill="#04617D" d="M19.928,47.975h0.748v-0.883l0.781-0.252v1.135H22.4v0.58h-0.942v2.53c0,0.211,0,0.563,0.564,0.563
			c0.159,0,0.311-0.025,0.378-0.042v0.614c-0.144,0.024-0.37,0.05-0.655,0.05c-0.724,0-1.068-0.21-1.068-0.899v-2.816h-0.748V47.975
			z"/>
		<path fill="#04617D" d="M25.207,47.882c1.69,0,2.068,1.328,2.068,2.211c0,1.236-0.697,2.262-2.135,2.262
			c-1.396,0-2.077-0.967-2.077-2.202C23.064,49.109,23.551,47.882,25.207,47.882z M25.158,51.767c0.597,0,1.278-0.429,1.278-1.698
			c0-1.052-0.488-1.606-1.229-1.606c-0.504,0-1.319,0.319-1.319,1.64C23.888,50.968,24.258,51.767,25.158,51.767z"/>
		<path fill="#04617D" d="M28.554,48.849c0-0.285-0.017-0.58-0.042-0.857h0.799l0.017,0.815c0.151-0.588,0.656-0.781,1.009-0.832
			c0.236-0.034,0.412-0.025,0.547-0.017v0.773c-0.042-0.018-0.092-0.025-0.151-0.034c-0.06-0.008-0.135-0.008-0.228-0.008
			c-0.933,0-1.151,0.555-1.151,1.277v2.245h-0.799V48.849z"/>
		<path fill="#04617D" d="M31.144,47.991h0.883l1.345,3.347l1.313-3.347h0.873l-1.85,4.221h-0.798L31.144,47.991z"/>
		<path fill="#04617D" d="M39.031,52.212c-0.059-0.21-0.075-0.412-0.075-0.631c-0.379,0.698-0.95,0.766-1.304,0.766
			c-0.967,0-1.487-0.547-1.487-1.244c0-0.337,0.117-0.875,0.739-1.236c0.454-0.252,1.126-0.277,1.463-0.277
			c0.202,0,0.327,0.008,0.571,0.025c0-0.521,0-0.749-0.15-0.934c-0.16-0.21-0.505-0.277-0.732-0.277
			c-0.799,0-0.84,0.547-0.849,0.715h-0.79c0.025-0.219,0.05-0.513,0.294-0.799c0.319-0.354,0.917-0.454,1.362-0.454
			c0.613,0,1.27,0.193,1.496,0.622c0.135,0.252,0.143,0.454,0.143,0.647l-0.033,2.018c0,0.067,0.008,0.631,0.067,1.06H39.031z
			 M38.485,50.135c-0.32,0-1.522,0-1.522,0.858c0,0.269,0.169,0.731,0.874,0.731c0.404,0,0.707-0.16,0.9-0.454
			c0.176-0.286,0.185-0.521,0.201-1.11C38.795,50.144,38.678,50.135,38.485,50.135z"/>
		<path fill="#04617D" d="M41.586,50.959c-0.008,0.319,0.16,0.766,0.926,0.766c0.328,0,0.571-0.06,0.739-0.27
			c0.085-0.109,0.135-0.252,0.135-0.395c0-0.412-0.294-0.488-0.925-0.631c-0.883-0.202-1.623-0.379-1.623-1.262
			c0-0.773,0.673-1.277,1.648-1.277c0.529,0,1.27,0.151,1.521,0.655c0.109,0.235,0.109,0.438,0.109,0.614h-0.807
			c0.025-0.64-0.53-0.689-0.816-0.689c-0.117,0-0.857,0-0.857,0.605c0,0.387,0.379,0.479,0.598,0.538
			c1.168,0.277,1.42,0.345,1.672,0.58c0.236,0.219,0.32,0.513,0.32,0.781c0,0.472-0.261,0.875-0.572,1.068
			c-0.369,0.227-0.814,0.286-1.252,0.286c-0.857,0-1.656-0.354-1.648-1.371H41.586z"/>
		<path fill="#04617D" d="M44.69,47.975h0.748v-0.883l0.781-0.252v1.135h0.942v0.58h-0.942v2.53c0,0.211,0,0.563,0.564,0.563
			c0.159,0,0.311-0.025,0.378-0.042v0.614c-0.144,0.024-0.37,0.05-0.655,0.05c-0.724,0-1.068-0.21-1.068-0.899v-2.816H44.69V47.975z
			"/>
		<path fill="#04617D" d="M50.709,52.212c-0.059-0.21-0.076-0.412-0.076-0.631c-0.378,0.698-0.949,0.766-1.303,0.766
			c-0.967,0-1.488-0.547-1.488-1.244c0-0.337,0.118-0.875,0.74-1.236c0.454-0.252,1.127-0.277,1.463-0.277
			c0.201,0,0.328,0.008,0.572,0.025c0-0.521,0-0.749-0.152-0.934c-0.159-0.21-0.504-0.277-0.73-0.277
			c-0.799,0-0.842,0.547-0.85,0.715h-0.791c0.025-0.219,0.051-0.513,0.295-0.799c0.319-0.354,0.916-0.454,1.361-0.454
			c0.614,0,1.27,0.193,1.497,0.622c0.135,0.252,0.144,0.454,0.144,0.647l-0.034,2.018c0,0.067,0.009,0.631,0.067,1.06H50.709z
			 M50.162,50.135c-0.318,0-1.521,0-1.521,0.858c0,0.269,0.168,0.731,0.875,0.731c0.403,0,0.706-0.16,0.899-0.454
			c0.177-0.286,0.185-0.521,0.202-1.11C50.474,50.144,50.356,50.135,50.162,50.135z"/>
		<path fill="#04617D" d="M52.164,47.975h0.748v-0.883l0.781-0.252v1.135h0.942v0.58h-0.942v2.53c0,0.211,0,0.563,0.564,0.563
			c0.159,0,0.311-0.025,0.378-0.042v0.614c-0.144,0.024-0.37,0.05-0.655,0.05c-0.724,0-1.068-0.21-1.068-0.899v-2.816h-0.748V47.975
			z"/>
		<path fill="#04617D" d="M55.535,46.158h0.951v0.866h-0.951V46.158z M55.619,47.991h0.791v4.221h-0.791V47.991z"/>
		<path fill="#04617D" d="M57.975,48.479l-0.009-0.487h0.79l0.008,0.681c0.094-0.176,0.396-0.765,1.354-0.765
			c0.378,0,1.53,0.143,1.53,1.438v2.867h-0.808V49.53c0-0.277-0.033-0.53-0.227-0.724c-0.202-0.193-0.479-0.286-0.749-0.286
			c-0.571,0-1.102,0.412-1.102,1.262v2.43h-0.789V48.479z"/>
	</g>
	<g>
		<path fill="#04617D" d="M16.043,57.4c-0.361,0.303-0.941,0.647-1.354,0.841V57.4c0.546-0.286,1.084-0.64,1.412-0.917h0.748v5.818
			h-0.807V57.4z"/>
		<path fill="#04617D" d="M20.297,56.366c1.74,0,1.951,1.866,1.951,2.959c0,1.379-0.277,2.152-0.808,2.648
			c-0.412,0.387-0.899,0.446-1.16,0.446c-0.773,0-1.304-0.454-1.556-0.968c-0.193-0.387-0.378-0.949-0.378-1.992
			C18.347,58.594,18.448,56.366,20.297,56.366z M20.289,61.722c0.975,0,1.143-1.278,1.143-2.32c0-1.396-0.243-2.362-1.126-2.362
			c-1.018,0-1.151,1.336-1.151,2.379C19.155,60.713,19.407,61.722,20.289,61.722z"/>
	</g>
	<g>
		<path fill="#04617D" d="M25.721,58.645l-0.016-0.563h0.798v0.614c0.403-0.665,0.976-0.724,1.337-0.724
			c0.934,0,1.228,0.479,1.379,0.79c0.143-0.235,0.488-0.79,1.421-0.79c0.605,0,1.547,0.252,1.547,1.497v2.833h-0.799v-2.707
			c0-0.37-0.067-0.53-0.143-0.64c-0.135-0.193-0.403-0.369-0.808-0.369c-0.513,0-0.79,0.294-0.899,0.445
			c-0.185,0.261-0.185,0.723-0.185,0.908v2.362h-0.799v-2.791c0-0.521-0.303-0.925-0.925-0.925c-0.538,0-0.833,0.336-0.925,0.462
			c-0.177,0.244-0.186,0.589-0.186,0.857v2.396h-0.799V58.645z"/>
		<path fill="#04617D" d="M34.424,62.63c0.033,0.471,0.235,0.823,0.984,0.823c1.101,0,1.117-0.798,1.117-1.941
			c-0.336,0.697-1.135,0.715-1.387,0.715c-0.387,0-0.941-0.085-1.295-0.521c-0.361-0.429-0.479-0.992-0.479-1.556
			c0-1.43,0.841-2.127,1.875-2.127c0.849,0,1.16,0.42,1.329,0.639l0.008-0.58h0.766l-0.018,0.766l-0.008,2.64
			c0,1.018-0.034,1.429-0.202,1.749c-0.353,0.672-1.177,0.756-1.757,0.756c-1.69,0-1.74-0.79-1.774-1.361H34.424z M36.266,61.217
			c0.168-0.218,0.285-0.445,0.285-1.21c0-0.53-0.117-0.833-0.328-1.052c-0.21-0.227-0.546-0.369-0.908-0.369
			c-1,0-1.135,1.009-1.135,1.547c0,0.647,0.193,1.505,1.16,1.505C35.803,61.638,36.073,61.47,36.266,61.217z"/>
	</g>
	<g>
		<path fill="#04617D" d="M79.584,26.197l-0.008-0.487h0.789l0.009,0.681c0.093-0.176,0.396-0.765,1.354-0.765
			c0.378,0,1.529,0.143,1.529,1.438v2.867h-0.807v-2.682c0-0.277-0.033-0.53-0.227-0.724c-0.203-0.193-0.48-0.286-0.749-0.286
			c-0.571,0-1.102,0.412-1.102,1.262v2.43h-0.79V26.197z"/>
	</g>
	<g>
		<path fill="#04617D" d="M73.018,55.878c0.016,0.589,0.529,0.824,0.967,0.824c1.018,0,1.151-0.959,1.151-1.337
			c0-0.79-0.429-1.253-1.102-1.253c-0.336,0-0.604,0.126-0.782,0.303c-0.176,0.177-0.227,0.354-0.269,0.487h-0.765l0.15-3.464h3.271
			v0.682h-2.548l-0.109,1.883c0.177-0.177,0.546-0.538,1.228-0.538c1.168,0,1.74,0.917,1.74,1.917c0,1.144-0.807,2.01-2.076,2.01
			c-0.941,0-1.69-0.521-1.732-1.514H73.018z"/>
		<path fill="#04617D" d="M78.667,51.321c1.741,0,1.95,1.866,1.95,2.959c0,1.379-0.277,2.152-0.807,2.648
			c-0.412,0.387-0.899,0.446-1.16,0.446c-0.773,0-1.303-0.454-1.556-0.968c-0.193-0.387-0.378-0.949-0.378-1.992
			C76.717,53.549,76.818,51.321,78.667,51.321z M78.659,56.677c0.977,0,1.145-1.278,1.145-2.32c0-1.396-0.244-2.362-1.127-2.362
			c-1.018,0-1.152,1.336-1.152,2.379C77.524,55.668,77.776,56.677,78.659,56.677z"/>
		<path fill="#04617D" d="M83.678,51.321c1.741,0,1.951,1.866,1.951,2.959c0,1.379-0.277,2.152-0.807,2.648
			c-0.412,0.387-0.9,0.446-1.16,0.446c-0.773,0-1.304-0.454-1.557-0.968c-0.193-0.387-0.377-0.949-0.377-1.992
			C81.729,53.549,81.828,51.321,83.678,51.321z M83.67,56.677c0.976,0,1.144-1.278,1.144-2.32c0-1.396-0.243-2.362-1.126-2.362
			c-1.018,0-1.152,1.336-1.152,2.379C82.535,55.668,82.787,56.677,83.67,56.677z"/>
		<path fill="#04617D" d="M89.455,52.817c-0.008-0.681-0.513-0.866-0.883-0.866c-0.841,0-1.211,0.724-1.286,2.271
			c0.185-0.269,0.505-0.74,1.354-0.74c0.95,0,1.757,0.631,1.757,1.867c0,1.354-0.967,2.034-1.967,2.034
			c-0.563,0-1.127-0.227-1.438-0.631c-0.43-0.571-0.53-1.403-0.53-2.144c0-1.27,0.312-3.287,2.152-3.287
			c0.765,0,1.194,0.336,1.396,0.555c0.295,0.345,0.303,0.715,0.312,0.941H89.455z M89.59,55.424c0-0.412-0.118-1.295-1.085-1.295
			c-0.782,0-1.16,0.64-1.16,1.304c0,0.757,0.471,1.312,1.118,1.312C88.985,56.744,89.59,56.374,89.59,55.424z"/>
	</g>
	<g>
		<path fill="#04617D" d="M74.531,84.163h-2.623v-1.001l2.522-3.632h0.908v3.951h0.849v0.682h-0.849v1.261h-0.808V84.163z
			 M74.556,83.481v-3.068l-2.009,3.068H74.556z"/>
		<path fill="#04617D" d="M77.617,84.036c0,0.505,0.277,0.858,0.933,0.858c1.279,0,1.287-1.505,1.245-2.413
			c-0.303,0.571-0.849,0.731-1.304,0.731c-0.924,0-1.773-0.622-1.773-1.842c0-1.337,0.949-1.875,1.866-1.875
			c0.622,0,1.538,0.253,1.875,1.43c0.101,0.354,0.168,0.773,0.168,1.563c0,0.857-0.009,3.069-2.144,3.069
			c-0.791,0-1.715-0.312-1.749-1.522H77.617z M78.583,80.127c-0.681,0-1.042,0.563-1.042,1.253c0,0.757,0.462,1.193,1.102,1.193
			c0.655,0,1.059-0.487,1.059-1.186C79.701,80.548,79.155,80.127,78.583,80.127z"/>
		<path fill="#04617D" d="M82.291,84.036c0,0.505,0.277,0.858,0.934,0.858c1.278,0,1.287-1.505,1.244-2.413
			c-0.303,0.571-0.849,0.731-1.303,0.731c-0.925,0-1.773-0.622-1.773-1.842c0-1.337,0.949-1.875,1.865-1.875
			c0.623,0,1.539,0.253,1.875,1.43c0.102,0.354,0.168,0.773,0.168,1.563c0,0.857-0.008,3.069-2.143,3.069
			c-0.791,0-1.716-0.312-1.75-1.522H82.291z M83.258,80.127c-0.681,0-1.042,0.563-1.042,1.253c0,0.757,0.462,1.193,1.102,1.193
			c0.655,0,1.06-0.487,1.06-1.186C84.377,80.548,83.83,80.127,83.258,80.127z"/>
		<path fill="#04617D" d="M87.042,84.045c0.017,0.589,0.53,0.824,0.967,0.824c1.018,0,1.151-0.959,1.151-1.337
			c0-0.79-0.428-1.253-1.102-1.253c-0.336,0-0.604,0.126-0.781,0.303c-0.176,0.177-0.227,0.354-0.27,0.487h-0.765l0.151-3.464h3.271
			v0.682h-2.548l-0.109,1.883c0.178-0.177,0.547-0.538,1.229-0.538c1.168,0,1.74,0.917,1.74,1.917c0,1.144-0.808,2.01-2.077,2.01
			c-0.941,0-1.69-0.521-1.731-1.514H87.042z"/>
	</g>
	<g>
		<path fill="#04617D" d="M111.492,84.163h-2.623v-1.001l2.523-3.632h0.907v3.951h0.849v0.682H112.3v1.261h-0.808V84.163z
			 M111.518,83.481v-3.068l-2.009,3.068H111.518z"/>
		<path fill="#04617D" d="M114.52,83.928c-0.008,0.555,0.354,0.949,1.068,0.949c0.815,0,1.16-0.521,1.16-1.034
			c0-0.613-0.412-0.933-0.841-1.025c-0.303-0.059-0.513-0.051-0.808-0.042v-0.681c0.58,0.05,1.556-0.067,1.556-1.009
			c0-0.656-0.446-0.917-1.026-0.917c-0.437,0-0.982,0.193-1.059,0.917h-0.85c0.051-1.446,1.412-1.59,1.884-1.59
			c1.27,0,1.899,0.766,1.899,1.572c0,0.479-0.26,1.169-1.16,1.371c1.244,0.176,1.244,1.295,1.244,1.412
			c0,0.815-0.664,1.715-2.018,1.715c-0.613,0-1.227-0.176-1.598-0.605c-0.327-0.369-0.336-0.79-0.344-1.033H114.52z"/>
		<path fill="#04617D" d="M120.843,84.163h-2.623v-1.001l2.522-3.632h0.908v3.951h0.849v0.682h-0.849v1.261h-0.808V84.163z
			 M120.868,83.481v-3.068l-2.009,3.068H120.868z"/>
	</g>
	<g>
		<path fill="#04617D" d="M109.98,55.878c0.017,0.589,0.53,0.824,0.967,0.824c1.018,0,1.151-0.959,1.151-1.337
			c0-0.79-0.428-1.253-1.102-1.253c-0.336,0-0.604,0.126-0.781,0.303c-0.176,0.177-0.227,0.354-0.27,0.487h-0.765l0.151-3.464h3.271
			v0.682h-2.548l-0.109,1.883c0.178-0.177,0.547-0.538,1.229-0.538c1.168,0,1.74,0.917,1.74,1.917c0,1.144-0.808,2.01-2.077,2.01
			c-0.941,0-1.69-0.521-1.731-1.514H109.98z"/>
		<path fill="#04617D" d="M116.168,55.996h-2.623v-1.001l2.521-3.632h0.908v3.951h0.85v0.682h-0.85v1.261h-0.807V55.996z
			 M116.194,55.314v-3.068l-2.01,3.068H116.194z"/>
		<path fill="#04617D" d="M118.413,52.894c0-0.521,0.353-1.589,1.884-1.589c1.227,0,1.934,0.664,1.934,1.555
			c0,0.572-0.37,1.169-1.186,1.32c0.345,0.093,1.27,0.345,1.27,1.472c0,0.799-0.555,1.706-2.001,1.706
			c-0.496,0-1.085-0.101-1.505-0.487c-0.312-0.286-0.514-0.723-0.514-1.169c0-0.387,0.152-0.79,0.446-1.067
			c0.277-0.277,0.58-0.361,0.841-0.445C118.809,54.02,118.413,53.474,118.413,52.894z M120.314,56.693
			c0.933,0,1.16-0.655,1.16-1.093c0-0.647-0.479-1.067-1.144-1.067c-0.715,0-1.186,0.479-1.186,1.093
			C119.145,56.08,119.448,56.693,120.314,56.693z M120.33,51.927c-0.622,0-1.102,0.369-1.102,0.95c0,0.563,0.471,0.941,1.076,0.941
			c0.639,0,1.118-0.37,1.118-0.941C121.423,52.347,121.028,51.927,120.33,51.927z"/>
	</g>
	<g>
		<path fill="#04617D" d="M104.069,17.125h1.168l2.984,5.02v-5.02h0.773v6.07h-1.076l-3.085-5.154v5.154h-0.765V17.125z"/>
		<path fill="#04617D" d="M112.383,18.865c1.69,0,2.068,1.328,2.068,2.211c0,1.236-0.697,2.262-2.135,2.262
			c-1.396,0-2.077-0.967-2.077-2.202C110.24,20.093,110.727,18.865,112.383,18.865z M112.333,22.75c0.597,0,1.278-0.429,1.278-1.698
			c0-1.052-0.488-1.606-1.229-1.606c-0.504,0-1.319,0.319-1.319,1.64C111.064,21.951,111.434,22.75,112.333,22.75z"/>
		<path fill="#04617D" d="M115.629,22.187h0.934v1.009h-0.934V22.187z"/>
		<path fill="#04617D" d="M122.196,18.865c1.69,0,2.068,1.328,2.068,2.211c0,1.236-0.697,2.262-2.135,2.262
			c-1.396,0-2.077-0.967-2.077-2.202C120.052,20.093,120.539,18.865,122.196,18.865z M122.146,22.75
			c0.597,0,1.278-0.429,1.278-1.698c0-1.052-0.488-1.606-1.229-1.606c-0.504,0-1.319,0.319-1.319,1.64
			C120.876,21.951,121.246,22.75,122.146,22.75z"/>
		<path fill="#04617D" d="M127.611,17.714c-0.134-0.009-0.303-0.018-0.462-0.018c-0.64,0-0.64,0.32-0.64,0.614v0.664h0.983v0.572
			h-0.983v3.648h-0.782v-3.648h-0.832v-0.572h0.832v-0.479c0-0.58,0.034-0.79,0.178-1.009c0.176-0.269,0.512-0.462,1.059-0.462
			c0.227,0,0.479,0.033,0.647,0.059V17.714z"/>
	</g>
	<g>
		<path fill="#04617D" d="M104.489,31.317c-0.018,0.875,0.345,1.522,1.211,1.522c0.513,0,0.924-0.27,0.992-0.875h0.79
			c-0.025,0.211-0.06,0.556-0.362,0.883c-0.185,0.211-0.605,0.563-1.454,0.563c-1.328,0-1.959-0.824-1.959-2.16
			c0-0.833,0.169-1.522,0.833-1.984c0.403-0.286,0.908-0.312,1.151-0.312c1.892,0,1.85,1.673,1.833,2.362H104.489z M106.717,30.763
			c0.008-0.403-0.068-1.244-1.043-1.244c-0.514,0-1.135,0.312-1.152,1.244H106.717z"/>
		<path fill="#04617D" d="M108.045,29.064h0.883l1.346,3.347l1.311-3.347h0.875l-1.85,4.221h-0.799L108.045,29.064z"/>
		<path fill="#04617D" d="M113.838,31.317c-0.017,0.875,0.346,1.522,1.211,1.522c0.514,0,0.925-0.27,0.992-0.875h0.791
			c-0.025,0.211-0.06,0.556-0.362,0.883c-0.185,0.211-0.605,0.563-1.454,0.563c-1.328,0-1.959-0.824-1.959-2.16
			c0-0.833,0.168-1.522,0.832-1.984c0.404-0.286,0.908-0.312,1.152-0.312c1.891,0,1.85,1.673,1.832,2.362H113.838z M116.067,30.763
			c0.008-0.403-0.067-1.244-1.043-1.244c-0.513,0-1.135,0.312-1.151,1.244H116.067z"/>
		<path fill="#04617D" d="M118.059,29.552l-0.008-0.487h0.79l0.009,0.681c0.092-0.176,0.395-0.765,1.354-0.765
			c0.379,0,1.53,0.143,1.53,1.438v2.867h-0.808v-2.682c0-0.278-0.033-0.53-0.227-0.724c-0.202-0.193-0.479-0.286-0.748-0.286
			c-0.572,0-1.102,0.412-1.102,1.262v2.43h-0.791V29.552z"/>
		<path fill="#04617D" d="M122.524,29.048h0.748v-0.883l0.782-0.252v1.135h0.942v0.58h-0.942v2.53c0,0.211,0,0.563,0.563,0.563
			c0.16,0,0.311-0.025,0.379-0.042v0.614c-0.144,0.024-0.371,0.05-0.656,0.05c-0.723,0-1.068-0.21-1.068-0.899v-2.816h-0.748V29.048
			z"/>
		<path fill="#04617D" d="M126.425,32.032c-0.009,0.319,0.159,0.766,0.925,0.766c0.328,0,0.572-0.06,0.74-0.27
			c0.084-0.109,0.135-0.252,0.135-0.395c0-0.412-0.295-0.488-0.926-0.631c-0.883-0.202-1.622-0.379-1.622-1.262
			c0-0.773,0.673-1.277,1.647-1.277c0.529,0,1.27,0.151,1.521,0.655c0.109,0.235,0.109,0.438,0.109,0.614h-0.807
			c0.025-0.64-0.529-0.689-0.815-0.689c-0.118,0-0.858,0-0.858,0.605c0,0.387,0.379,0.479,0.598,0.538
			c1.168,0.277,1.421,0.345,1.673,0.58c0.235,0.219,0.319,0.513,0.319,0.781c0,0.472-0.26,0.875-0.571,1.068
			c-0.37,0.227-0.815,0.286-1.253,0.286c-0.857,0-1.656-0.354-1.648-1.371H126.425z"/>
	</g>
	<g>
		<path fill="#04617D" d="M145.858,16.94c0.631-0.682,1.463-0.816,2.025-0.816c1.682,0,2.741,1.076,2.741,3.137
			c0,1.614-0.647,3.236-2.808,3.236c-2.068,0-2.741-1.471-2.741-3.136C145.076,18.672,145.194,17.654,145.858,16.94z
			 M146.496,21.228c0.345,0.429,0.865,0.556,1.346,0.556c0.496,0,0.992-0.135,1.345-0.556c0.496-0.605,0.546-1.563,0.546-1.976
			c0-1.379-0.453-2.421-1.841-2.421c-1.538,0-1.934,1.235-1.934,2.479C145.958,19.976,146.076,20.707,146.496,21.228z"/>
		<path fill="#04617D" d="M151.886,18.621l-0.009-0.487h0.791l0.008,0.681c0.093-0.176,0.396-0.765,1.354-0.765
			c0.379,0,1.53,0.143,1.53,1.438v2.867h-0.807v-2.682c0-0.277-0.034-0.53-0.228-0.724c-0.201-0.193-0.479-0.286-0.748-0.286
			c-0.572,0-1.102,0.412-1.102,1.262v2.43h-0.79V18.621z"/>
		<path fill="#04617D" d="M156.612,19.824h2.109v0.639h-2.109V19.824z"/>
		<path fill="#04617D" d="M159.151,18.117h0.748v-0.883l0.782-0.252v1.135h0.942v0.58h-0.942v2.53c0,0.211,0,0.563,0.563,0.563
			c0.16,0,0.311-0.025,0.379-0.042v0.614c-0.144,0.024-0.371,0.05-0.656,0.05c-0.723,0-1.068-0.21-1.068-0.899v-2.816h-0.748V18.117
			z"/>
		<path fill="#04617D" d="M162.64,18.991c0-0.285-0.017-0.58-0.042-0.857h0.799l0.017,0.815c0.151-0.588,0.656-0.781,1.009-0.832
			c0.236-0.034,0.412-0.025,0.547-0.017v0.773c-0.042-0.018-0.092-0.025-0.151-0.034c-0.06-0.008-0.135-0.008-0.228-0.008
			c-0.933,0-1.151,0.555-1.151,1.277v2.245h-0.799V18.991z"/>
		<path fill="#04617D" d="M166.348,20.387c-0.018,0.875,0.345,1.522,1.211,1.522c0.513,0,0.924-0.27,0.992-0.875h0.79
			c-0.025,0.211-0.06,0.556-0.362,0.883c-0.185,0.211-0.605,0.563-1.454,0.563c-1.328,0-1.959-0.824-1.959-2.16
			c0-0.833,0.169-1.522,0.833-1.984c0.403-0.286,0.908-0.312,1.151-0.312c1.892,0,1.85,1.673,1.833,2.362H166.348z M168.576,19.832
			c0.008-0.403-0.068-1.244-1.043-1.244c-0.514,0-1.135,0.312-1.152,1.244H168.576z"/>
		<path fill="#04617D" d="M173.116,22.355c-0.059-0.21-0.075-0.412-0.075-0.631c-0.378,0.698-0.95,0.766-1.304,0.766
			c-0.967,0-1.487-0.547-1.487-1.244c0-0.337,0.118-0.875,0.739-1.236c0.455-0.252,1.127-0.277,1.463-0.277
			c0.202,0,0.328,0.008,0.572,0.025c0-0.521,0-0.749-0.151-0.934c-0.159-0.21-0.505-0.277-0.731-0.277
			c-0.799,0-0.841,0.547-0.85,0.715h-0.79c0.025-0.219,0.05-0.513,0.294-0.799c0.32-0.354,0.917-0.454,1.362-0.454
			c0.614,0,1.27,0.193,1.497,0.622c0.135,0.252,0.143,0.454,0.143,0.647l-0.033,2.018c0,0.067,0.008,0.631,0.066,1.06H173.116z
			 M172.57,20.277c-0.319,0-1.522,0-1.522,0.858c0,0.269,0.169,0.731,0.875,0.731c0.404,0,0.706-0.16,0.9-0.454
			c0.176-0.286,0.184-0.521,0.201-1.11C172.881,20.286,172.763,20.277,172.57,20.277z"/>
		<path fill="#04617D" d="M174.571,18.117h0.749v-0.883l0.782-0.252v1.135h0.941v0.58h-0.941v2.53c0,0.211,0,0.563,0.563,0.563
			c0.16,0,0.312-0.025,0.379-0.042v0.614c-0.143,0.024-0.37,0.05-0.656,0.05c-0.723,0-1.067-0.21-1.067-0.899v-2.816h-0.749V18.117z
			"/>
		<path fill="#04617D" d="M178.01,18.697l-0.017-0.563h0.798v0.614c0.404-0.665,0.977-0.724,1.338-0.724
			c0.933,0,1.227,0.479,1.379,0.79c0.143-0.235,0.487-0.79,1.42-0.79c0.605,0,1.547,0.252,1.547,1.497v2.833h-0.799v-2.707
			c0-0.37-0.066-0.53-0.143-0.64c-0.135-0.193-0.403-0.369-0.807-0.369c-0.514,0-0.791,0.294-0.9,0.445
			c-0.184,0.261-0.184,0.723-0.184,0.908v2.362h-0.799v-2.791c0-0.521-0.303-0.925-0.926-0.925c-0.537,0-0.832,0.336-0.924,0.462
			c-0.178,0.244-0.186,0.589-0.186,0.857v2.396h-0.799V18.697z"/>
		<path fill="#04617D" d="M186.435,20.387c-0.017,0.875,0.345,1.522,1.21,1.522c0.514,0,0.926-0.27,0.992-0.875h0.791
			c-0.025,0.211-0.059,0.556-0.361,0.883c-0.186,0.211-0.605,0.563-1.455,0.563c-1.328,0-1.959-0.824-1.959-2.16
			c0-0.833,0.168-1.522,0.832-1.984c0.404-0.286,0.908-0.312,1.152-0.312c1.892,0,1.85,1.673,1.833,2.362H186.435z M188.662,19.832
			c0.009-0.403-0.066-1.244-1.042-1.244c-0.513,0-1.136,0.312-1.151,1.244H188.662z"/>
		<path fill="#04617D" d="M190.657,18.621l-0.009-0.487h0.79l0.008,0.681c0.094-0.176,0.396-0.765,1.354-0.765
			c0.378,0,1.53,0.143,1.53,1.438v2.867h-0.808v-2.682c0-0.277-0.033-0.53-0.227-0.724c-0.202-0.193-0.479-0.286-0.749-0.286
			c-0.571,0-1.102,0.412-1.102,1.262v2.43h-0.789V18.621z"/>
		<path fill="#04617D" d="M195.12,18.117h0.749v-0.883l0.781-0.252v1.135h0.941v0.58h-0.941v2.53c0,0.211,0,0.563,0.563,0.563
			c0.159,0,0.312-0.025,0.378-0.042v0.614c-0.143,0.024-0.369,0.05-0.655,0.05c-0.724,0-1.067-0.21-1.067-0.899v-2.816h-0.749
			V18.117z"/>
	</g>
	<g>
		<path fill="#04617D" d="M145.311,28.787l-0.017-0.563h0.798v0.614c0.404-0.665,0.977-0.724,1.338-0.724
			c0.933,0,1.227,0.479,1.379,0.79c0.143-0.235,0.487-0.79,1.42-0.79c0.605,0,1.547,0.252,1.547,1.497v2.833h-0.799v-2.707
			c0-0.37-0.066-0.53-0.143-0.64c-0.135-0.193-0.403-0.369-0.807-0.369c-0.514,0-0.791,0.294-0.9,0.445
			c-0.184,0.261-0.184,0.723-0.184,0.908v2.362h-0.799v-2.791c0-0.521-0.303-0.925-0.926-0.925c-0.537,0-0.832,0.336-0.924,0.462
			c-0.178,0.244-0.186,0.589-0.186,0.857v2.396h-0.799V28.787z"/>
		<path fill="#04617D" d="M153.736,30.477c-0.017,0.875,0.345,1.522,1.21,1.522c0.514,0,0.926-0.27,0.992-0.875h0.791
			c-0.025,0.211-0.059,0.556-0.361,0.883c-0.186,0.211-0.605,0.563-1.455,0.563c-1.328,0-1.959-0.824-1.959-2.16
			c0-0.833,0.168-1.522,0.832-1.984c0.404-0.286,0.908-0.312,1.152-0.312c1.892,0,1.85,1.673,1.833,2.362H153.736z M155.963,29.922
			c0.009-0.403-0.066-1.244-1.042-1.244c-0.513,0-1.136,0.312-1.151,1.244H155.963z"/>
		<path fill="#04617D" d="M160.504,32.444c-0.059-0.21-0.076-0.412-0.076-0.631c-0.378,0.698-0.949,0.766-1.303,0.766
			c-0.967,0-1.488-0.547-1.488-1.244c0-0.337,0.118-0.875,0.74-1.236c0.454-0.252,1.127-0.277,1.463-0.277
			c0.201,0,0.328,0.008,0.572,0.025c0-0.521,0-0.749-0.152-0.934c-0.159-0.21-0.504-0.277-0.73-0.277
			c-0.799,0-0.842,0.547-0.85,0.715h-0.791c0.025-0.219,0.051-0.513,0.295-0.799c0.319-0.354,0.916-0.454,1.361-0.454
			c0.614,0,1.27,0.193,1.497,0.622c0.135,0.252,0.144,0.454,0.144,0.647l-0.034,2.018c0,0.067,0.009,0.631,0.067,1.06H160.504z
			 M159.957,30.367c-0.318,0-1.521,0-1.521,0.858c0,0.269,0.168,0.731,0.875,0.731c0.403,0,0.706-0.16,0.899-0.454
			c0.177-0.286,0.185-0.521,0.202-1.11C160.269,30.376,160.151,30.367,159.957,30.367z"/>
		<path fill="#04617D" d="M162.631,28.711l-0.008-0.487h0.79l0.009,0.681c0.092-0.176,0.395-0.765,1.354-0.765
			c0.379,0,1.53,0.143,1.53,1.438v2.867h-0.808v-2.682c0-0.277-0.033-0.53-0.227-0.724c-0.202-0.193-0.479-0.286-0.748-0.286
			c-0.572,0-1.102,0.412-1.102,1.262v2.43h-0.791V28.711z"/>
		<path fill="#04617D" d="M170.123,26.374h0.832v5.322h2.825v0.748h-3.657V26.374z"/>
		<path fill="#04617D" d="M174.756,26.374h1.758c0.814,0,1.773,0,2.446,0.79c0.538,0.631,0.748,1.463,0.748,2.296
			c0,1.312-0.546,2.118-1.009,2.488c-0.598,0.496-1.346,0.496-2.236,0.496h-1.707V26.374z M175.597,31.755h0.824
			c0.58,0,1.185-0.033,1.589-0.336c0.773-0.58,0.799-1.572,0.799-1.926c0-0.227-0.018-1.261-0.589-1.892
			c-0.387-0.429-0.874-0.529-1.614-0.529h-1.009V31.755z"/>
		<path fill="#04617D" d="M180.868,26.374h0.833v5.322h2.824v0.748h-3.657V26.374z"/>
		<path fill="#04617D" d="M183.652,29.914h2.11v0.639h-2.11V29.914z"/>
		<path fill="#04617D" d="M190.496,28.014c-0.033-0.21-0.143-1.051-1.313-1.051c-1.463,0-1.723,1.496-1.723,2.505
			c0,1.144,0.328,2.38,1.715,2.38c0.37,0,0.723-0.093,0.984-0.361c0.218-0.236,0.269-0.496,0.293-0.64h0.926
			c-0.127,1.194-1.229,1.69-2.271,1.69c-2.136,0-2.548-1.884-2.548-3.061c0-1.278,0.496-3.187,2.657-3.187
			c0.857,0,2.068,0.345,2.178,1.724H190.496z"/>
	</g>
	<g>
		<path fill="#04617D" d="M146.858,46.537c-0.361,0.303-0.941,0.647-1.354,0.841v-0.841c0.547-0.286,1.084-0.64,1.412-0.917h0.748
			v5.818h-0.807V46.537z"/>
		<path fill="#04617D" d="M151.112,45.503c1.741,0,1.951,1.866,1.951,2.959c0,1.379-0.277,2.152-0.807,2.648
			c-0.412,0.387-0.9,0.446-1.16,0.446c-0.773,0-1.304-0.454-1.557-0.968c-0.193-0.387-0.377-0.949-0.377-1.992
			C149.162,47.73,149.262,45.503,151.112,45.503z M151.104,50.858c0.976,0,1.144-1.278,1.144-2.32c0-1.396-0.243-2.362-1.126-2.362
			c-1.018,0-1.152,1.336-1.152,2.379C149.969,49.85,150.221,50.858,151.104,50.858z"/>
		<path fill="#04617D" d="M155.291,46.537c-0.361,0.303-0.941,0.647-1.354,0.841v-0.841c0.547-0.286,1.084-0.64,1.412-0.917h0.748
			v5.818h-0.807V46.537z"/>
	</g>
	<g>
		<path fill="#04617D" d="M160.748,47.781l-0.018-0.563h0.799v0.614c0.404-0.665,0.976-0.724,1.337-0.724
			c0.933,0,1.228,0.479,1.379,0.79c0.144-0.235,0.487-0.79,1.421-0.79c0.605,0,1.547,0.252,1.547,1.497v2.833h-0.799v-2.707
			c0-0.37-0.066-0.53-0.143-0.64c-0.135-0.193-0.404-0.369-0.807-0.369c-0.514,0-0.791,0.294-0.9,0.445
			c-0.185,0.261-0.185,0.723-0.185,0.908v2.362h-0.799v-2.791c0-0.521-0.303-0.925-0.925-0.925c-0.538,0-0.832,0.336-0.925,0.462
			c-0.177,0.244-0.185,0.589-0.185,0.857v2.396h-0.799V47.781z"/>
		<path fill="#04617D" d="M169.451,51.767c0.034,0.471,0.235,0.823,0.983,0.823c1.102,0,1.119-0.798,1.119-1.941
			c-0.337,0.697-1.136,0.715-1.388,0.715c-0.388,0-0.942-0.085-1.295-0.521c-0.362-0.429-0.479-0.992-0.479-1.556
			c0-1.43,0.841-2.127,1.875-2.127c0.85,0,1.16,0.42,1.328,0.639l0.009-0.58h0.765l-0.017,0.766l-0.009,2.64
			c0,1.018-0.033,1.429-0.201,1.749c-0.354,0.672-1.178,0.756-1.758,0.756c-1.689,0-1.74-0.79-1.773-1.361H169.451z M171.291,50.354
			c0.168-0.218,0.286-0.445,0.286-1.21c0-0.53-0.118-0.833-0.327-1.052c-0.211-0.227-0.547-0.369-0.908-0.369
			c-1.001,0-1.135,1.009-1.135,1.547c0,0.647,0.193,1.505,1.16,1.505C170.829,50.774,171.098,50.606,171.291,50.354z"/>
		<path fill="#04617D" d="M174.983,45.444h0.547l-1.959,6.129h-0.555L174.983,45.444z"/>
		<path fill="#04617D" d="M179.094,45.377h0.791v5.389c0,0.093,0.016,0.454,0.033,0.673h-0.791l-0.016-0.673
			c-0.068,0.118-0.16,0.295-0.379,0.446c-0.345,0.235-0.757,0.311-1.043,0.311c-0.563,0-1.815-0.294-1.815-2.144
			c0-1.606,0.916-2.304,1.908-2.304c0.908,0,1.211,0.538,1.312,0.715V45.377z M178.8,48.092c-0.169-0.218-0.479-0.429-0.925-0.429
			c-1.16,0-1.16,1.404-1.16,1.69c0,0.748,0.193,1.614,1.16,1.614c1.244,0,1.244-1.37,1.244-1.698
			C179.119,48.655,178.977,48.319,178.8,48.092z"/>
		<path fill="#04617D" d="M181.348,45.368h0.832v5.322h2.825v0.748h-3.657V45.368z"/>
	</g>
	<g>
		<path fill="#04617D" d="M146.194,62.563c-0.454-1.118-1-2.514-1-3.741c0-0.664,0.15-1.32,0.344-1.959
			c0.236-0.757,0.455-1.295,0.598-1.656h0.555c-0.135,0.412-0.319,0.983-0.496,1.782c-0.177,0.773-0.235,1.295-0.235,1.816
			c0,1.193,0.294,2.16,0.782,3.758H146.194z"/>
		<path fill="#04617D" d="M147.606,60.065c0.051-0.354,0.109-0.622,0.337-0.899c0.235-0.277,0.496-0.37,0.773-0.37
			c0.286,0,0.387,0.033,1.219,0.303c0.749,0.252,0.858,0.286,1.06,0.286c0.252,0,0.521-0.135,0.613-0.614h0.455
			c-0.118,1.102-0.782,1.262-1.119,1.262c-0.336,0-0.967-0.211-1.354-0.345c-0.664-0.228-0.74-0.253-0.908-0.253
			c-0.227,0-0.537,0.168-0.613,0.631H147.606z"/>
	</g>
	<g>
		<path fill="#04617D" d="M152.735,60.764l1.521-1.497c0.32-0.311,0.64-0.647,0.9-1c0.336-0.463,0.429-0.724,0.429-1.034
			c0-0.286-0.101-0.95-0.934-0.95c-0.933,0-0.95,0.799-0.95,1.017h-0.883c0.009-0.285,0.034-0.84,0.539-1.277
			c0.402-0.345,0.891-0.421,1.261-0.421c0.892,0,1.799,0.454,1.799,1.698c0,0.37-0.024,0.656-0.655,1.455
			c-0.168,0.21-0.908,0.976-1.076,1.144l-1.018,0.967h2.766v0.664h-3.699V60.764z"/>
		<path fill="#04617D" d="M157.645,60.52h0.934v1.009h-0.934V60.52z"/>
		<path fill="#04617D" d="M160.647,60.149c0.017,0.589,0.529,0.824,0.967,0.824c1.018,0,1.152-0.959,1.152-1.337
			c0-0.79-0.43-1.253-1.102-1.253c-0.336,0-0.605,0.126-0.782,0.303s-0.228,0.354-0.269,0.487h-0.766l0.151-3.464h3.271v0.682
			h-2.547l-0.109,1.883c0.176-0.177,0.546-0.538,1.227-0.538c1.169,0,1.74,0.917,1.74,1.917c0,1.144-0.807,2.01-2.076,2.01
			c-0.941,0-1.689-0.521-1.732-1.514H160.647z"/>
	</g>
	<g>
		<path fill="#04617D" d="M167.045,57.871l-0.017-0.563h0.798v0.614c0.404-0.665,0.977-0.724,1.338-0.724
			c0.933,0,1.227,0.479,1.379,0.79c0.143-0.235,0.487-0.79,1.42-0.79c0.605,0,1.547,0.252,1.547,1.497v2.833h-0.799v-2.707
			c0-0.37-0.066-0.53-0.143-0.64c-0.135-0.193-0.403-0.369-0.807-0.369c-0.514,0-0.791,0.294-0.9,0.445
			c-0.184,0.261-0.184,0.723-0.184,0.908v2.362h-0.799v-2.791c0-0.521-0.303-0.925-0.926-0.925c-0.537,0-0.832,0.336-0.924,0.462
			c-0.178,0.244-0.186,0.589-0.186,0.857v2.396h-0.799V57.871z"/>
		<path fill="#04617D" d="M174.983,57.871l-0.017-0.563h0.798v0.614c0.404-0.665,0.977-0.724,1.338-0.724
			c0.933,0,1.227,0.479,1.379,0.79c0.143-0.235,0.487-0.79,1.42-0.79c0.605,0,1.547,0.252,1.547,1.497v2.833h-0.799v-2.707
			c0-0.37-0.066-0.53-0.143-0.64c-0.135-0.193-0.403-0.369-0.807-0.369c-0.514,0-0.791,0.294-0.9,0.445
			c-0.184,0.261-0.184,0.723-0.184,0.908v2.362h-0.799v-2.791c0-0.521-0.303-0.925-0.926-0.925c-0.537,0-0.832,0.336-0.924,0.462
			c-0.178,0.244-0.186,0.589-0.186,0.857v2.396h-0.799V57.871z"/>
		<path fill="#04617D" d="M184.761,57.198c1.69,0,2.068,1.328,2.068,2.211c0,1.236-0.698,2.262-2.136,2.262
			c-1.396,0-2.076-0.967-2.076-2.202C182.617,58.426,183.105,57.198,184.761,57.198z M184.711,61.083
			c0.596,0,1.277-0.429,1.277-1.698c0-1.052-0.488-1.606-1.228-1.606c-0.505,0-1.319,0.319-1.319,1.64
			C183.442,60.284,183.811,61.083,184.711,61.083z"/>
		<path fill="#04617D" d="M188.082,55.467h0.79v6.062h-0.79V55.467z"/>
		<path fill="#04617D" d="M191.555,55.534h0.546l-1.959,6.129h-0.555L191.555,55.534z"/>
		<path fill="#04617D" d="M192.783,55.458h0.833v5.322h2.824v0.748h-3.657V55.458z"/>
		<path fill="#04617D" d="M197.862,55.206c0.453,1.118,1,2.505,1,3.732c0,0.664-0.151,1.32-0.345,1.959
			c-0.235,0.757-0.454,1.304-0.597,1.665h-0.555c0.134-0.421,0.318-0.992,0.496-1.791c0.176-0.765,0.234-1.295,0.234-1.815
			c0-1.186-0.294-2.152-0.781-3.75H197.862z"/>
	</g>
	<g>
		<path fill="#04617D" d="M144.873,72.248h3.843v0.706l-2.136,5.112h-0.95l2.237-5.12h-2.994V72.248z"/>
		<path fill="#04617D" d="M149.549,72.248h3.842v0.706l-2.136,5.112h-0.95l2.236-5.12h-2.992V72.248z"/>
	</g>
	<g>
		<path fill="#04617D" d="M156.998,74.409l-0.017-0.563h0.798v0.614c0.404-0.665,0.977-0.724,1.338-0.724
			c0.933,0,1.227,0.479,1.379,0.79c0.143-0.235,0.487-0.79,1.42-0.79c0.605,0,1.547,0.252,1.547,1.497v2.833h-0.799v-2.707
			c0-0.37-0.066-0.53-0.143-0.64c-0.135-0.193-0.403-0.369-0.807-0.369c-0.514,0-0.791,0.294-0.9,0.445
			c-0.184,0.261-0.184,0.723-0.184,0.908v2.362h-0.799v-2.791c0-0.521-0.303-0.925-0.926-0.925c-0.537,0-0.832,0.336-0.924,0.462
			c-0.178,0.244-0.186,0.589-0.186,0.857v2.396h-0.799V74.409z"/>
		<path fill="#04617D" d="M165.701,78.395c0.033,0.471,0.234,0.823,0.983,0.823c1.101,0,1.118-0.798,1.118-1.941
			c-0.336,0.697-1.135,0.715-1.387,0.715c-0.388,0-0.942-0.085-1.295-0.521c-0.362-0.429-0.48-0.992-0.48-1.556
			c0-1.43,0.842-2.127,1.875-2.127c0.85,0,1.16,0.42,1.329,0.639l0.009-0.58h0.765l-0.017,0.766l-0.009,2.64
			c0,1.018-0.034,1.429-0.202,1.749c-0.353,0.672-1.177,0.756-1.757,0.756c-1.69,0-1.74-0.79-1.774-1.361H165.701z M167.542,76.981
			c0.168-0.218,0.286-0.445,0.286-1.21c0-0.53-0.118-0.833-0.328-1.052c-0.211-0.227-0.547-0.369-0.908-0.369
			c-1,0-1.135,1.009-1.135,1.547c0,0.647,0.193,1.505,1.16,1.505C167.08,77.402,167.349,77.234,167.542,76.981z"/>
		<path fill="#04617D" d="M171.233,72.072h0.547l-1.959,6.129h-0.555L171.233,72.072z"/>
		<path fill="#04617D" d="M175.344,72.005h0.791v5.389c0,0.093,0.017,0.454,0.033,0.673h-0.79l-0.017-0.673
			c-0.067,0.118-0.16,0.295-0.379,0.446c-0.344,0.235-0.756,0.311-1.042,0.311c-0.563,0-1.815-0.294-1.815-2.144
			c0-1.606,0.916-2.304,1.908-2.304c0.908,0,1.211,0.538,1.311,0.715V72.005z M175.051,74.72c-0.169-0.218-0.48-0.429-0.926-0.429
			c-1.16,0-1.16,1.404-1.16,1.69c0,0.748,0.193,1.614,1.16,1.614c1.244,0,1.244-1.37,1.244-1.698
			C175.369,75.283,175.227,74.947,175.051,74.72z"/>
		<path fill="#04617D" d="M177.598,71.996h0.832v5.322h2.825v0.748h-3.657V71.996z"/>
	</g>
	<g>
		<path fill="#04617D" d="M146.194,89.191c-0.454-1.118-1-2.514-1-3.741c0-0.664,0.15-1.32,0.344-1.959
			c0.236-0.757,0.455-1.295,0.598-1.656h0.555c-0.135,0.412-0.319,0.983-0.496,1.782c-0.177,0.773-0.235,1.295-0.235,1.816
			c0,1.193,0.294,2.16,0.782,3.758H146.194z"/>
		<path fill="#04617D" d="M147.606,86.694c0.051-0.354,0.109-0.622,0.337-0.899c0.235-0.277,0.496-0.37,0.773-0.37
			c0.286,0,0.387,0.033,1.219,0.303c0.749,0.252,0.858,0.286,1.06,0.286c0.252,0,0.521-0.135,0.613-0.614h0.455
			c-0.118,1.102-0.782,1.262-1.119,1.262c-0.336,0-0.967-0.211-1.354-0.345c-0.664-0.228-0.74-0.253-0.908-0.253
			c-0.227,0-0.537,0.168-0.613,0.631H147.606z"/>
	</g>
	<g>
		<path fill="#04617D" d="M152.735,87.393l1.521-1.497c0.32-0.311,0.64-0.647,0.9-1c0.336-0.463,0.429-0.724,0.429-1.034
			c0-0.286-0.101-0.95-0.934-0.95c-0.933,0-0.95,0.799-0.95,1.017h-0.883c0.009-0.285,0.034-0.84,0.539-1.277
			c0.402-0.345,0.891-0.421,1.261-0.421c0.892,0,1.799,0.454,1.799,1.698c0,0.37-0.024,0.656-0.655,1.455
			c-0.168,0.21-0.908,0.976-1.076,1.144l-1.018,0.967h2.766v0.664h-3.699V87.393z"/>
	</g>
	<g>
		<path fill="#04617D" d="M160.034,84.5l-0.018-0.563h0.799v0.614c0.404-0.665,0.976-0.724,1.337-0.724
			c0.933,0,1.228,0.479,1.379,0.79c0.144-0.235,0.487-0.79,1.421-0.79c0.605,0,1.547,0.252,1.547,1.497v2.833H165.7V85.45
			c0-0.37-0.066-0.53-0.143-0.64c-0.135-0.193-0.404-0.369-0.807-0.369c-0.514,0-0.791,0.294-0.9,0.445
			c-0.185,0.261-0.185,0.723-0.185,0.908v2.362h-0.799v-2.791c0-0.521-0.303-0.925-0.925-0.925c-0.538,0-0.832,0.336-0.925,0.462
			c-0.177,0.244-0.185,0.589-0.185,0.857v2.396h-0.799V84.5z"/>
		<path fill="#04617D" d="M167.971,84.5l-0.018-0.563h0.799v0.614c0.404-0.665,0.976-0.724,1.337-0.724
			c0.933,0,1.228,0.479,1.379,0.79c0.144-0.235,0.487-0.79,1.421-0.79c0.605,0,1.547,0.252,1.547,1.497v2.833h-0.799V85.45
			c0-0.37-0.066-0.53-0.143-0.64c-0.135-0.193-0.404-0.369-0.807-0.369c-0.514,0-0.791,0.294-0.9,0.445
			c-0.185,0.261-0.185,0.723-0.185,0.908v2.362h-0.799v-2.791c0-0.521-0.303-0.925-0.925-0.925c-0.538,0-0.832,0.336-0.925,0.462
			c-0.177,0.244-0.185,0.589-0.185,0.857v2.396h-0.799V84.5z"/>
		<path fill="#04617D" d="M177.748,83.827c1.69,0,2.068,1.328,2.068,2.211c0,1.236-0.697,2.262-2.135,2.262
			c-1.396,0-2.077-0.967-2.077-2.202C175.605,85.055,176.092,83.827,177.748,83.827z M177.699,87.712
			c0.597,0,1.278-0.429,1.278-1.698c0-1.052-0.488-1.606-1.229-1.606c-0.504,0-1.319,0.319-1.319,1.64
			C176.429,86.913,176.799,87.712,177.699,87.712z"/>
		<path fill="#04617D" d="M181.071,82.096h0.789v6.062h-0.789V82.096z"/>
		<path fill="#04617D" d="M184.542,82.163h0.546l-1.959,6.129h-0.555L184.542,82.163z"/>
		<path fill="#04617D" d="M185.77,82.087h0.833v5.322h2.825v0.748h-3.658V82.087z"/>
		<path fill="#04617D" d="M190.849,81.835c0.454,1.118,1.001,2.505,1.001,3.732c0,0.664-0.152,1.32-0.346,1.959
			c-0.234,0.757-0.453,1.304-0.597,1.665h-0.555c0.134-0.421,0.319-0.992,0.496-1.791c0.177-0.765,0.235-1.295,0.235-1.815
			c0-1.186-0.295-2.152-0.781-3.75H190.849z"/>
	</g>
	<g>
		<path fill="#04617D" d="M16.396,71.996h0.899l2.455,6.07h-0.916l-0.656-1.581h-2.816l-0.655,1.581H13.84L16.396,71.996z
			 M15.631,75.805h2.295l-1.118-2.977L15.631,75.805z"/>
		<path fill="#04617D" d="M19.928,73.829h0.748v-0.883l0.781-0.252v1.135H22.4v0.58h-0.942v2.53c0,0.211,0,0.563,0.564,0.563
			c0.159,0,0.311-0.025,0.378-0.042v0.614c-0.144,0.024-0.37,0.05-0.655,0.05c-0.724,0-1.068-0.21-1.068-0.899v-2.816h-0.748V73.829
			z"/>
		<path fill="#04617D" d="M25.207,73.736c1.69,0,2.068,1.328,2.068,2.211c0,1.236-0.697,2.262-2.135,2.262
			c-1.396,0-2.077-0.967-2.077-2.202C23.064,74.964,23.551,73.736,25.207,73.736z M25.158,77.621c0.597,0,1.278-0.429,1.278-1.698
			c0-1.052-0.488-1.606-1.229-1.606c-0.504,0-1.319,0.319-1.319,1.64C23.888,76.822,24.258,77.621,25.158,77.621z"/>
		<path fill="#04617D" d="M28.554,74.703c0-0.285-0.017-0.58-0.042-0.857h0.799l0.017,0.815c0.151-0.588,0.656-0.781,1.009-0.832
			c0.236-0.034,0.412-0.025,0.547-0.017v0.773c-0.042-0.017-0.092-0.025-0.151-0.034c-0.06-0.008-0.135-0.008-0.228-0.008
			c-0.933,0-1.151,0.555-1.151,1.277v2.245h-0.799V74.703z"/>
		<path fill="#04617D" d="M31.144,73.846h0.883l1.345,3.347l1.313-3.347h0.873l-1.85,4.221h-0.798L31.144,73.846z"/>
		<path fill="#04617D" d="M39.031,78.066c-0.059-0.21-0.075-0.412-0.075-0.631c-0.379,0.698-0.95,0.766-1.304,0.766
			c-0.967,0-1.487-0.547-1.487-1.244c0-0.337,0.117-0.875,0.739-1.236c0.454-0.252,1.126-0.277,1.463-0.277
			c0.202,0,0.327,0.008,0.571,0.025c0-0.521,0-0.749-0.15-0.934c-0.16-0.21-0.505-0.277-0.732-0.277
			c-0.799,0-0.84,0.547-0.849,0.715h-0.79c0.025-0.219,0.05-0.513,0.294-0.799c0.319-0.354,0.917-0.454,1.362-0.454
			c0.613,0,1.27,0.193,1.496,0.622c0.135,0.252,0.143,0.454,0.143,0.647l-0.033,2.018c0,0.067,0.008,0.631,0.067,1.06H39.031z
			 M38.485,75.989c-0.32,0-1.522,0-1.522,0.858c0,0.269,0.169,0.731,0.874,0.731c0.404,0,0.707-0.16,0.9-0.454
			c0.176-0.286,0.185-0.521,0.201-1.11C38.795,75.998,38.678,75.989,38.485,75.989z"/>
		<path fill="#04617D" d="M41.586,76.813c-0.008,0.319,0.16,0.766,0.926,0.766c0.328,0,0.571-0.06,0.739-0.27
			c0.085-0.109,0.135-0.252,0.135-0.395c0-0.412-0.294-0.488-0.925-0.631c-0.883-0.202-1.623-0.379-1.623-1.262
			c0-0.773,0.673-1.277,1.648-1.277c0.529,0,1.27,0.151,1.521,0.655c0.109,0.235,0.109,0.438,0.109,0.614h-0.807
			c0.025-0.64-0.53-0.689-0.816-0.689c-0.117,0-0.857,0-0.857,0.605c0,0.387,0.379,0.479,0.598,0.538
			c1.168,0.277,1.42,0.345,1.672,0.58c0.236,0.219,0.32,0.513,0.32,0.781c0,0.472-0.261,0.875-0.572,1.068
			c-0.369,0.227-0.814,0.286-1.252,0.286c-0.857,0-1.656-0.354-1.648-1.371H41.586z"/>
		<path fill="#04617D" d="M44.69,73.829h0.748v-0.883l0.781-0.252v1.135h0.942v0.58h-0.942v2.53c0,0.211,0,0.563,0.564,0.563
			c0.159,0,0.311-0.025,0.378-0.042v0.614c-0.144,0.024-0.37,0.05-0.655,0.05c-0.724,0-1.068-0.21-1.068-0.899v-2.816H44.69V73.829z
			"/>
		<path fill="#04617D" d="M50.709,78.066c-0.059-0.21-0.076-0.412-0.076-0.631c-0.378,0.698-0.949,0.766-1.303,0.766
			c-0.967,0-1.488-0.547-1.488-1.244c0-0.337,0.118-0.875,0.74-1.236c0.454-0.252,1.127-0.277,1.463-0.277
			c0.201,0,0.328,0.008,0.572,0.025c0-0.521,0-0.749-0.152-0.934c-0.159-0.21-0.504-0.277-0.73-0.277
			c-0.799,0-0.842,0.547-0.85,0.715h-0.791c0.025-0.219,0.051-0.513,0.295-0.799c0.319-0.354,0.916-0.454,1.361-0.454
			c0.614,0,1.27,0.193,1.497,0.622c0.135,0.252,0.144,0.454,0.144,0.647l-0.034,2.018c0,0.067,0.009,0.631,0.067,1.06H50.709z
			 M50.162,75.989c-0.318,0-1.521,0-1.521,0.858c0,0.269,0.168,0.731,0.875,0.731c0.403,0,0.706-0.16,0.899-0.454
			c0.177-0.286,0.185-0.521,0.202-1.11C50.474,75.998,50.356,75.989,50.162,75.989z"/>
		<path fill="#04617D" d="M52.164,73.829h0.748v-0.883l0.781-0.252v1.135h0.942v0.58h-0.942v2.53c0,0.211,0,0.563,0.564,0.563
			c0.159,0,0.311-0.025,0.378-0.042v0.614c-0.144,0.024-0.37,0.05-0.655,0.05c-0.724,0-1.068-0.21-1.068-0.899v-2.816h-0.748V73.829
			z"/>
		<path fill="#04617D" d="M55.535,72.013h0.951v0.866h-0.951V72.013z M55.619,73.846h0.791v4.221h-0.791V73.846z"/>
		<path fill="#04617D" d="M57.975,74.333l-0.009-0.487h0.79l0.008,0.681c0.094-0.176,0.396-0.765,1.354-0.765
			c0.378,0,1.53,0.143,1.53,1.438v2.867h-0.808v-2.682c0-0.278-0.033-0.53-0.227-0.724c-0.202-0.193-0.479-0.286-0.749-0.286
			c-0.571,0-1.102,0.412-1.102,1.262v2.43h-0.789V74.333z"/>
	</g>
	<g>
		<path fill="#04617D" d="M14.194,83.794c0-0.521,0.353-1.589,1.883-1.589c1.228,0,1.934,0.664,1.934,1.555
			c0,0.572-0.369,1.169-1.186,1.32c0.346,0.093,1.27,0.345,1.27,1.472c0,0.799-0.555,1.706-2,1.706
			c-0.496,0-1.086-0.101-1.506-0.487c-0.311-0.286-0.513-0.723-0.513-1.169c0-0.387,0.151-0.79,0.446-1.067
			c0.277-0.277,0.58-0.361,0.84-0.445C14.588,84.92,14.194,84.374,14.194,83.794z M16.094,87.594c0.933,0,1.16-0.655,1.16-1.093
			c0-0.647-0.48-1.067-1.145-1.067c-0.715,0-1.186,0.479-1.186,1.093C14.924,86.98,15.227,87.594,16.094,87.594z M16.11,82.827
			c-0.621,0-1.102,0.369-1.102,0.95c0,0.563,0.472,0.941,1.076,0.941c0.64,0,1.119-0.37,1.119-0.941
			C17.203,83.247,16.808,82.827,16.11,82.827z"/>
		<path fill="#04617D" d="M20.76,82.222c1.74,0,1.95,1.866,1.95,2.959c0,1.379-0.277,2.152-0.808,2.648
			c-0.412,0.387-0.898,0.446-1.16,0.446c-0.773,0-1.303-0.454-1.555-0.968c-0.193-0.387-0.379-0.949-0.379-1.992
			C18.809,84.449,18.91,82.222,20.76,82.222z M20.751,87.577c0.976,0,1.144-1.278,1.144-2.32c0-1.396-0.244-2.362-1.127-2.362
			c-1.018,0-1.151,1.336-1.151,2.379C19.617,86.568,19.868,87.577,20.751,87.577z"/>
	</g>
	<g>
		<path fill="#04617D" d="M26.182,84.5l-0.016-0.563h0.798v0.614c0.403-0.665,0.976-0.724,1.337-0.724
			c0.934,0,1.228,0.479,1.379,0.79c0.143-0.235,0.488-0.79,1.421-0.79c0.605,0,1.547,0.252,1.547,1.497v2.833h-0.799V85.45
			c0-0.37-0.067-0.53-0.143-0.64c-0.135-0.193-0.403-0.369-0.808-0.369c-0.513,0-0.79,0.294-0.899,0.445
			c-0.185,0.261-0.185,0.723-0.185,0.908v2.362h-0.799v-2.791c0-0.521-0.303-0.925-0.925-0.925c-0.538,0-0.833,0.336-0.925,0.462
			c-0.177,0.244-0.186,0.589-0.186,0.857v2.396h-0.799V84.5z"/>
		<path fill="#04617D" d="M34.885,88.485c0.033,0.471,0.235,0.823,0.984,0.823c1.101,0,1.117-0.798,1.117-1.941
			c-0.336,0.697-1.135,0.715-1.387,0.715c-0.387,0-0.941-0.085-1.295-0.521c-0.361-0.429-0.479-0.992-0.479-1.556
			c0-1.43,0.841-2.127,1.875-2.127c0.849,0,1.16,0.42,1.329,0.639l0.008-0.58h0.766l-0.018,0.766l-0.008,2.64
			c0,1.018-0.034,1.429-0.202,1.749c-0.353,0.672-1.177,0.756-1.757,0.756c-1.69,0-1.74-0.79-1.774-1.361H34.885z M36.727,87.072
			c0.168-0.218,0.285-0.445,0.285-1.21c0-0.53-0.117-0.833-0.328-1.052c-0.21-0.227-0.546-0.369-0.908-0.369
			c-1,0-1.135,1.009-1.135,1.547c0,0.647,0.193,1.505,1.16,1.505C36.264,87.493,36.534,87.325,36.727,87.072z"/>
	</g>
	<g>
		<defs>
			<rect id="SVGID_41_" x="0" y="0" width="215.059" height="101.815"/>
		</defs>
		<clipPath id="SVGID_6_">
			<use xlink:href="#SVGID_41_"  overflow="visible"/>
		</clipPath>
		<path clip-path="url(#SVGID_6_)" fill="none" stroke="#04617D" stroke-width="1.051" stroke-miterlimit="10" d="M206.029,82.695
			c0,5.573-4.518,10.09-10.09,10.09H19.119c-5.57,0-10.089-4.518-10.089-10.09V17.806c0-5.571,4.519-10.09,10.089-10.09h176.819
			c5.573,0,10.09,4.519,10.09,10.09V82.695z"/>
	</g>
	<line fill="none" stroke="#04617D" stroke-width="1.051" stroke-miterlimit="10" x1="67.328" y1="7.716" x2="67.328" y2="92.785"/>
	<line fill="none" stroke="#04617D" stroke-width="1.051" stroke-miterlimit="10" x1="97.037" y1="7.716" x2="97.037" y2="92.785"/>
	
		<line fill="none" stroke="#04617D" stroke-width="1.051" stroke-miterlimit="10" x1="135.715" y1="7.716" x2="135.715" y2="92.785"/>
	
		<line fill="none" stroke="#04617D" stroke-width="1.051" stroke-miterlimit="10" x1="9.031" y1="38.546" x2="205.221" y2="38.546"/>
	
		<line fill="none" stroke="#04617D" stroke-width="1.051" stroke-miterlimit="10" x1="9.031" y1="68.255" x2="205.221" y2="68.255"/>
</g>
</svg>
