<?xml version="1.0" encoding="utf-8"?>
<!-- Generator: Adobe Illustrator 17.0.0, SVG Export Plug-In . SVG Version: 6.00 Build 0)  -->
<!DOCTYPE svg PUBLIC "-//W3C//DTD SVG 1.1//EN" "http://www.w3.org/Graphics/SVG/1.1/DTD/svg11.dtd">
<svg version="1.1" id="Layer_1" xmlns="http://www.w3.org/2000/svg" xmlns:xlink="http://www.w3.org/1999/xlink" x="0px" y="0px"
	 width="193.859px" height="8.607px" viewBox="0 0 193.859 8.607" enable-background="new 0 0 193.859 8.607" xml:space="preserve">
<g>
	<g>
		<path fill="#020202" d="M1.458,1.207C1.224,1.09,1.008,0.981,0.576,0.811L1.287,0c0.702,0.315,0.954,0.469,1.125,0.567
			l0.711-0.486L3.52,0.388L2.835,0.847c0.648,0.478,1.81,1.432,1.81,3.466c0,1.495-0.666,2.629-2.34,2.629
			c-0.478,0-1.063-0.072-1.513-0.414C0.225,6.113,0,5.402,0,4.69c0-1.684,1.224-2.241,2.088-2.241c0.648,0,1.018,0.279,1.188,0.414
			C3.016,2.431,2.7,1.999,1.908,1.477L1.08,2.044L0.684,1.738L1.458,1.207z M3.321,4.601c0-0.459-0.081-1.387-0.972-1.387
			c-1,0-1,1.207-1,1.477c0,0.702,0.198,1.396,1,1.396C3.195,6.086,3.321,5.231,3.321,4.601z"/>
		<path fill="#020202" d="M7.128,1.387H5.192v-1.08h5.275v1.08H8.532v5.429H7.128V1.387z"/>
		<path fill="#020202" d="M11.214,0.307h2.017l2.439,5.122V0.307h1.297v6.509h-1.918l-2.521-5.401v5.401h-1.314V0.307z"/>
		<path fill="#020202" d="M19.629,1.387h-1.936v-1.08h5.275v1.08h-1.936v5.429h-1.404V1.387z"/>
		<path fill="#020202" d="M23.751,2.27h1.134v1.215h-1.134V2.27z M23.751,5.609h1.134v1.206h-1.134V5.609z"/>
		<path fill="#020202" d="M32.634,1.387h-1.936v-1.08h5.275v1.08h-1.936v5.429h-1.404V1.387z"/>
		<path fill="#020202" d="M36.656,3.386c0-0.217-0.036-0.874-0.063-1.135h1.251l0.027,0.873c0.171-0.387,0.468-0.936,1.548-0.882
			v1.197c-1.35-0.126-1.431,0.567-1.431,1.135v2.241h-1.333V3.386z"/>
		<path fill="#020202" d="M41.229,4.88c0,0.297,0,1.215,0.928,1.215c0.333,0,0.666-0.126,0.792-0.63h1.216
			c-0.019,0.216-0.063,0.604-0.433,0.99c-0.333,0.352-0.927,0.531-1.594,0.531c-0.387,0-1.125-0.072-1.603-0.567
			c-0.414-0.432-0.585-1.044-0.585-1.773c0-0.738,0.181-1.62,0.945-2.151c0.352-0.234,0.783-0.378,1.278-0.378
			c0.648,0,1.423,0.252,1.837,1.098c0.306,0.622,0.288,1.288,0.27,1.666H41.229z M42.921,4.043c0-0.207-0.018-1.018-0.792-1.018
			c-0.585,0-0.828,0.486-0.855,1.018H42.921z"/>
		<path fill="#020202" d="M47.889,6.815c-0.045-0.279-0.045-0.486-0.045-0.621c-0.504,0.729-1.107,0.729-1.359,0.729
			c-0.657,0-0.954-0.189-1.134-0.36c-0.271-0.271-0.396-0.64-0.396-0.999c0-0.36,0.126-1.026,0.964-1.414
			c0.558-0.252,1.359-0.252,1.8-0.252c0-0.297-0.009-0.441-0.063-0.604c-0.117-0.333-0.469-0.378-0.595-0.378
			c-0.188,0-0.387,0.081-0.504,0.252c-0.099,0.153-0.099,0.298-0.099,0.405h-1.306c0.009-0.243,0.036-0.729,0.513-1.071
			c0.415-0.297,0.945-0.369,1.378-0.369c0.378,0,1.17,0.063,1.62,0.585c0.307,0.369,0.315,0.91,0.315,1.117l0.009,1.827
			c0,0.387,0.027,0.774,0.108,1.152H47.889z M46.251,5.411c0,0.306,0.207,0.648,0.647,0.648c0.243,0,0.441-0.117,0.567-0.262
			c0.234-0.288,0.252-0.639,0.252-1.125C46.863,4.601,46.251,4.871,46.251,5.411z"/>
		<path fill="#020202" d="M52.839,6.752c-0.432,0.117-0.819,0.145-1.035,0.145c-1.342,0-1.342-0.847-1.342-1.225V3.179h-0.873V2.296
			h0.873V1.405l1.324-0.486v1.377h1.08v0.883h-1.08v2.053c0.009,0.414,0.009,0.675,0.603,0.675c0.198,0,0.288-0.009,0.45-0.027
			V6.752z"/>
		<path fill="#020202" d="M53.621,0.315h1.423v1.161h-1.423V0.315z M53.666,2.26h1.333v4.556h-1.333V2.26z"/>
		<path fill="#020202" d="M56.187,3.079c0-0.018,0-0.513-0.027-0.828h1.278l0.036,0.685C57.6,2.729,57.96,2.143,58.95,2.143
			c0.891,0,1.27,0.541,1.386,0.855c0.1,0.279,0.127,0.514,0.127,1.359v2.458h-1.359V3.988c0-0.188,0-0.351-0.072-0.495
			c-0.1-0.198-0.307-0.387-0.648-0.387c-0.288,0-0.549,0.135-0.693,0.351C57.608,3.574,57.527,3.8,57.527,4.15v2.665h-1.341V3.079z"
			/>
		<path fill="#020202" d="M65.979,2.287c-0.036,0.36-0.063,0.666-0.063,1.125v3.358c0,1.675-1.395,1.837-2.269,1.837
			c-0.647,0-1.917-0.081-1.998-1.459h1.278c0.018,0.135,0.081,0.63,0.792,0.63c0.396,0,0.738-0.188,0.828-0.594
			c0.055-0.225,0.055-0.387,0.063-1.08c-0.424,0.558-0.9,0.621-1.225,0.621c-1.306,0-1.918-1.135-1.918-2.232
			c0-1.152,0.64-2.251,1.945-2.251c0.828,0,1.134,0.45,1.27,0.648l0.045-0.604H65.979z M63.692,5.816
			c0.937,0,0.937-1.099,0.937-1.297c0-0.513-0.099-1.386-0.909-1.386c-0.504,0-0.918,0.387-0.918,1.359
			C62.802,4.718,62.802,5.816,63.692,5.816z"/>
		<path fill="#020202" d="M72.342,6.752c-0.432,0.117-0.819,0.145-1.035,0.145c-1.342,0-1.342-0.847-1.342-1.225V3.179h-0.873V2.296
			h0.873V1.405l1.324-0.486v1.377h1.08v0.883h-1.08v2.053c0.009,0.414,0.009,0.675,0.603,0.675c0.198,0,0.288-0.009,0.45-0.027
			V6.752z"/>
		<path fill="#020202" d="M75.312,2.161c1.647,0,2.359,1.116,2.359,2.386c0,1.278-0.738,2.431-2.386,2.431
			c-1.297,0-2.323-0.802-2.323-2.395C72.962,3.484,73.521,2.161,75.312,2.161z M75.33,6.05c0.585,0,0.981-0.351,0.981-1.557
			c0-0.604-0.117-1.44-1-1.44c-0.972,0-0.981,1.125-0.981,1.539C74.33,5.609,74.673,6.05,75.33,6.05z"/>
		<path fill="#020202" d="M81.233,0.307h2.017l2.439,5.122V0.307h1.297v6.509h-1.918l-2.521-5.401v5.401h-1.314V0.307z"/>
		<path fill="#020202" d="M89.243,4.88c0,0.297,0,1.215,0.928,1.215c0.333,0,0.666-0.126,0.792-0.63h1.216
			c-0.019,0.216-0.063,0.604-0.433,0.99c-0.333,0.352-0.927,0.531-1.594,0.531c-0.387,0-1.125-0.072-1.603-0.567
			c-0.414-0.432-0.585-1.044-0.585-1.773c0-0.738,0.181-1.62,0.945-2.151c0.352-0.234,0.783-0.378,1.278-0.378
			c0.648,0,1.423,0.252,1.837,1.098c0.306,0.622,0.288,1.288,0.27,1.666H89.243z M90.936,4.043c0-0.207-0.018-1.018-0.792-1.018
			c-0.585,0-0.828,0.486-0.855,1.018H90.936z"/>
		<path fill="#020202" d="M94.049,2.27l0.838,3.43l0.963-3.43h1.468l0.954,3.43l0.892-3.43h1.323l-1.558,4.546h-1.449l-0.937-3.367
			l-0.954,3.367h-1.468L92.636,2.27H94.049z"/>
		<path fill="#020202" d="M105.155,1.387h-1.936v-1.08h5.275v1.08h-1.936v5.429h-1.404V1.387z"/>
		<path fill="#020202" d="M111.906,6.815c-0.046-0.279-0.046-0.486-0.046-0.621c-0.504,0.729-1.106,0.729-1.359,0.729
			c-0.657,0-0.954-0.189-1.134-0.36c-0.271-0.271-0.396-0.64-0.396-0.999c0-0.36,0.126-1.026,0.964-1.414
			c0.558-0.252,1.359-0.252,1.8-0.252c0-0.297-0.009-0.441-0.063-0.604c-0.117-0.333-0.469-0.378-0.595-0.378
			c-0.188,0-0.387,0.081-0.504,0.252c-0.099,0.153-0.099,0.298-0.099,0.405h-1.306c0.009-0.243,0.036-0.729,0.513-1.071
			c0.415-0.297,0.945-0.369,1.378-0.369c0.378,0,1.17,0.063,1.62,0.585c0.307,0.369,0.315,0.91,0.315,1.117l0.009,1.827
			c0,0.387,0.027,0.774,0.108,1.152H111.906z M110.268,5.411c0,0.306,0.207,0.648,0.647,0.648c0.243,0,0.441-0.117,0.567-0.262
			c0.234-0.288,0.252-0.639,0.252-1.125C110.88,4.601,110.268,4.871,110.268,5.411z"/>
		<path fill="#020202" d="M114.182,3.386c0-0.217-0.036-0.874-0.063-1.135h1.251l0.027,0.873c0.171-0.387,0.468-0.936,1.548-0.882
			v1.197c-1.35-0.126-1.431,0.567-1.431,1.135v2.241h-1.333V3.386z"/>
		<path fill="#020202" d="M121.995,2.287c-0.036,0.36-0.063,0.666-0.063,1.125v3.358c0,1.675-1.395,1.837-2.269,1.837
			c-0.647,0-1.917-0.081-1.998-1.459h1.278c0.018,0.135,0.081,0.63,0.792,0.63c0.396,0,0.738-0.188,0.828-0.594
			c0.055-0.225,0.055-0.387,0.063-1.08c-0.424,0.558-0.9,0.621-1.225,0.621c-1.306,0-1.918-1.135-1.918-2.232
			c0-1.152,0.64-2.251,1.945-2.251c0.828,0,1.134,0.45,1.27,0.648l0.045-0.604H121.995z M119.708,5.816
			c0.937,0,0.937-1.099,0.937-1.297c0-0.513-0.099-1.386-0.909-1.386c-0.504,0-0.918,0.387-0.918,1.359
			C118.817,4.718,118.817,5.816,119.708,5.816z"/>
		<path fill="#020202" d="M124.253,4.88c0,0.297,0,1.215,0.928,1.215c0.333,0,0.666-0.126,0.792-0.63h1.216
			c-0.019,0.216-0.063,0.604-0.433,0.99c-0.333,0.352-0.927,0.531-1.594,0.531c-0.387,0-1.125-0.072-1.603-0.567
			c-0.414-0.432-0.585-1.044-0.585-1.773c0-0.738,0.181-1.62,0.945-2.151c0.352-0.234,0.783-0.378,1.278-0.378
			c0.648,0,1.423,0.252,1.837,1.098c0.306,0.622,0.288,1.288,0.27,1.666H124.253z M125.945,4.043c0-0.207-0.018-1.018-0.792-1.018
			c-0.585,0-0.828,0.486-0.855,1.018H125.945z"/>
		<path fill="#020202" d="M130.859,6.752c-0.432,0.117-0.819,0.145-1.035,0.145c-1.342,0-1.342-0.847-1.342-1.225V3.179h-0.873
			V2.296h0.873V1.405l1.324-0.486v1.377h1.08v0.883h-1.08v2.053c0.009,0.414,0.009,0.675,0.603,0.675
			c0.198,0,0.288-0.009,0.45-0.027V6.752z"/>
		<path fill="#020202" d="M132.614,5.501c0.018,0.288,0.198,0.621,0.756,0.621c0.478,0,0.702-0.27,0.702-0.54
			c0-0.207-0.107-0.369-0.63-0.513l-0.828-0.226c-0.369-0.108-1.152-0.333-1.152-1.261c0-0.882,0.81-1.422,1.989-1.422
			c0.937,0,1.692,0.432,1.729,1.342h-1.215c-0.036-0.505-0.441-0.541-0.648-0.541c-0.36,0-0.631,0.172-0.631,0.45
			c0,0.307,0.226,0.369,0.622,0.478l0.819,0.225c0.828,0.226,1.215,0.648,1.215,1.27c0,0.783-0.675,1.566-2.089,1.566
			c-0.585,0-1.144-0.126-1.558-0.558c-0.297-0.315-0.323-0.676-0.333-0.892H132.614z"/>
		<path fill="#020202" d="M138.644,0.288h1.396v6.527h-1.396V0.288z"/>
		<path fill="#020202" d="M141.209,3.079c0-0.018,0-0.513-0.027-0.828h1.278l0.036,0.685c0.126-0.207,0.486-0.793,1.477-0.793
			c0.891,0,1.27,0.541,1.387,0.855c0.099,0.279,0.126,0.514,0.126,1.359v2.458h-1.359V3.988c0-0.188,0-0.351-0.072-0.495
			c-0.1-0.198-0.307-0.387-0.648-0.387c-0.288,0-0.549,0.135-0.693,0.351c-0.081,0.117-0.162,0.343-0.162,0.693v2.665h-1.341V3.079z
			"/>
		<path fill="#020202" d="M147.59,2.27l1.026,3.088l1.044-3.088h1.288l-1.639,4.546h-1.477l-1.665-4.546H147.59z"/>
		<path fill="#020202" d="M152.765,4.88c0,0.297,0,1.215,0.928,1.215c0.333,0,0.666-0.126,0.792-0.63h1.216
			c-0.019,0.216-0.063,0.604-0.433,0.99c-0.333,0.352-0.927,0.531-1.594,0.531c-0.387,0-1.125-0.072-1.603-0.567
			c-0.414-0.432-0.585-1.044-0.585-1.773c0-0.738,0.181-1.62,0.945-2.151c0.352-0.234,0.783-0.378,1.278-0.378
			c0.648,0,1.423,0.252,1.837,1.098c0.306,0.622,0.288,1.288,0.27,1.666H152.765z M154.457,4.043c0-0.207-0.018-1.018-0.792-1.018
			c-0.585,0-0.828,0.486-0.855,1.018H154.457z"/>
		<path fill="#020202" d="M157.625,5.501c0.018,0.288,0.198,0.621,0.756,0.621c0.478,0,0.702-0.27,0.702-0.54
			c0-0.207-0.107-0.369-0.63-0.513l-0.828-0.226c-0.369-0.108-1.152-0.333-1.152-1.261c0-0.882,0.81-1.422,1.989-1.422
			c0.937,0,1.692,0.432,1.729,1.342h-1.215c-0.036-0.505-0.441-0.541-0.648-0.541c-0.36,0-0.63,0.172-0.63,0.45
			c0,0.307,0.225,0.369,0.621,0.478l0.818,0.225c0.829,0.226,1.216,0.648,1.216,1.27c0,0.783-0.675,1.566-2.089,1.566
			c-0.585,0-1.143-0.126-1.558-0.558c-0.297-0.315-0.323-0.676-0.333-0.892H157.625z"/>
		<path fill="#020202" d="M163.871,6.752c-0.432,0.117-0.819,0.145-1.035,0.145c-1.342,0-1.342-0.847-1.342-1.225V3.179h-0.873
			V2.296h0.873V1.405l1.324-0.486v1.377h1.08v0.883h-1.08v2.053c0.009,0.414,0.009,0.675,0.603,0.675
			c0.198,0,0.288-0.009,0.45-0.027V6.752z"/>
		<path fill="#020202" d="M164.653,0.315h1.423v1.161h-1.423V0.315z M164.698,2.26h1.333v4.556h-1.333V2.26z"/>
		<path fill="#020202" d="M171.513,2.287c-0.036,0.36-0.063,0.666-0.063,1.125v3.358c0,1.675-1.395,1.837-2.269,1.837
			c-0.647,0-1.917-0.081-1.998-1.459h1.278c0.018,0.135,0.081,0.63,0.792,0.63c0.396,0,0.738-0.188,0.828-0.594
			c0.055-0.225,0.055-0.387,0.063-1.08c-0.424,0.558-0.9,0.621-1.225,0.621c-1.306,0-1.918-1.135-1.918-2.232
			c0-1.152,0.64-2.251,1.945-2.251c0.828,0,1.134,0.45,1.27,0.648l0.045-0.604H171.513z M169.226,5.816
			c0.937,0,0.937-1.099,0.937-1.297c0-0.513-0.099-1.386-0.909-1.386c-0.504,0-0.918,0.387-0.918,1.359
			C168.335,4.718,168.335,5.816,169.226,5.816z"/>
		<path fill="#020202" d="M175.428,6.815c-0.046-0.279-0.046-0.486-0.046-0.621c-0.504,0.729-1.106,0.729-1.359,0.729
			c-0.657,0-0.954-0.189-1.134-0.36c-0.271-0.271-0.396-0.64-0.396-0.999c0-0.36,0.126-1.026,0.964-1.414
			c0.558-0.252,1.359-0.252,1.8-0.252c0-0.297-0.009-0.441-0.063-0.604c-0.117-0.333-0.469-0.378-0.595-0.378
			c-0.188,0-0.387,0.081-0.504,0.252c-0.099,0.153-0.099,0.298-0.099,0.405h-1.306c0.009-0.243,0.036-0.729,0.513-1.071
			c0.415-0.297,0.945-0.369,1.378-0.369c0.378,0,1.17,0.063,1.62,0.585c0.307,0.369,0.315,0.91,0.315,1.117l0.009,1.827
			c0,0.387,0.027,0.774,0.108,1.152H175.428z M173.789,5.411c0,0.306,0.207,0.648,0.647,0.648c0.243,0,0.441-0.117,0.567-0.262
			c0.234-0.288,0.252-0.639,0.252-1.125C174.401,4.601,173.789,4.871,173.789,5.411z"/>
		<path fill="#020202" d="M180.377,6.752c-0.432,0.117-0.819,0.145-1.035,0.145C178,6.896,178,6.05,178,5.672V3.179h-0.873V2.296
			H178V1.405l1.324-0.486v1.377h1.08v0.883h-1.08v2.053c0.009,0.414,0.009,0.675,0.603,0.675c0.198,0,0.288-0.009,0.45-0.027V6.752z
			"/>
		<path fill="#020202" d="M183.347,2.161c1.647,0,2.359,1.116,2.359,2.386c0,1.278-0.738,2.431-2.386,2.431
			c-1.297,0-2.323-0.802-2.323-2.395C180.997,3.484,181.556,2.161,183.347,2.161z M183.365,6.05c0.585,0,0.981-0.351,0.981-1.557
			c0-0.604-0.117-1.44-1-1.44c-0.972,0-0.981,1.125-0.981,1.539C182.365,5.609,182.708,6.05,183.365,6.05z"/>
		<path fill="#020202" d="M186.703,3.386c0-0.217-0.036-0.874-0.063-1.135h1.251l0.027,0.873c0.171-0.387,0.468-0.936,1.548-0.882
			v1.197c-1.35-0.126-1.431,0.567-1.431,1.135v2.241h-1.333V3.386z"/>
		<path fill="#020202" d="M191.132,5.501c0.018,0.288,0.198,0.621,0.756,0.621c0.478,0,0.702-0.27,0.702-0.54
			c0-0.207-0.107-0.369-0.63-0.513l-0.828-0.226c-0.369-0.108-1.152-0.333-1.152-1.261c0-0.882,0.81-1.422,1.989-1.422
			c0.937,0,1.692,0.432,1.729,1.342h-1.215c-0.036-0.505-0.441-0.541-0.648-0.541c-0.36,0-0.631,0.172-0.631,0.45
			c0,0.307,0.226,0.369,0.622,0.478l0.819,0.225c0.828,0.226,1.215,0.648,1.215,1.27c0,0.783-0.675,1.566-2.089,1.566
			c-0.585,0-1.144-0.126-1.558-0.558c-0.297-0.315-0.323-0.676-0.333-0.892H191.132z"/>
	</g>
</g>
</svg>
