<?xml version="1.0" encoding="utf-8"?>
<!-- Generator: Adobe Illustrator 17.0.0, SVG Export Plug-In . SVG Version: 6.00 Build 0)  -->
<!DOCTYPE svg PUBLIC "-//W3C//DTD SVG 1.1//EN" "http://www.w3.org/Graphics/SVG/1.1/DTD/svg11.dtd">
<svg version="1.1" id="Layer_1" xmlns="http://www.w3.org/2000/svg" xmlns:xlink="http://www.w3.org/1999/xlink" x="0px" y="0px"
	 width="256.924px" height="113.509px" viewBox="0 0 256.924 113.509" enable-background="new 0 0 256.924 113.509"
	 xml:space="preserve">
<g>
	<g>
		<path fill="#020202" d="M0.815,0.221h2.686v10.182h5.27v2.091H0.815V0.221z"/>
		<path fill="#020202" d="M10.114,0.221h2.687v2.193h-2.687V0.221z M10.199,3.893h2.517v8.601h-2.517V3.893z"/>
		<path fill="#020202" d="M17.288,3.91l0.067,1.224c0.782-1.377,2.21-1.394,2.618-1.394c2.227,0,3.569,1.666,3.569,4.283
			c0,2.431-1.258,4.59-3.739,4.59c-1.547,0-2.176-0.816-2.396-1.105v4.284H14.84V3.91H17.288z M20.993,8.125
			c0-1.02-0.255-2.771-1.733-2.771c-0.816,0-1.972,0.612-1.972,2.924c0,0.51,0.017,2.686,1.87,2.686
			C20.348,10.964,20.993,9.825,20.993,8.125z"/>
		<path fill="#020202" d="M25.227,0.221h2.687v2.193h-2.687V0.221z M25.312,3.893h2.517v8.601h-2.517V3.893z"/>
		<path fill="#020202" d="M35.716,0.221h2.533V11.1c0,0.51,0.033,1.071,0.067,1.394h-2.55l-0.067-1.241
			c-0.17,0.306-0.34,0.629-0.867,0.969c-0.629,0.408-1.292,0.442-1.666,0.442c-2.295,0-3.654-1.581-3.654-4.267
			c0-2.838,1.547-4.606,3.79-4.606c1.547,0,2.193,0.867,2.414,1.173V0.221z M33.795,11.032c0.731,0,1.326-0.442,1.598-0.969
			c0.374-0.714,0.408-1.598,0.408-2.023c0-1.683-0.73-2.601-1.87-2.601c-1.683,0-1.869,2.022-1.869,2.89
			C32.062,9.757,32.537,11.032,33.795,11.032z"/>
		<path fill="#020202" d="M47.514,3.91l0.068,1.224c0.781-1.377,2.209-1.394,2.617-1.394c2.227,0,3.569,1.666,3.569,4.283
			c0,2.431-1.258,4.59-3.739,4.59c-1.547,0-2.176-0.816-2.396-1.105v4.284h-2.567V3.91H47.514z M51.219,8.125
			c0-1.02-0.255-2.771-1.733-2.771c-0.815,0-1.972,0.612-1.972,2.924c0,0.51,0.017,2.686,1.87,2.686
			C50.573,10.964,51.219,9.825,51.219,8.125z"/>
		<path fill="#020202" d="M55.538,6.017c0-0.408-0.067-1.648-0.118-2.142h2.362l0.051,1.649c0.323-0.731,0.884-1.768,2.924-1.666
			v2.261c-2.55-0.238-2.702,1.071-2.702,2.142v4.232h-2.517V6.017z"/>
		<path fill="#020202" d="M66.196,3.706c3.11,0,4.454,2.108,4.454,4.504c0,2.414-1.395,4.59-4.505,4.59
			c-2.448,0-4.386-1.513-4.386-4.521C61.76,6.204,62.813,3.706,66.196,3.706z M66.23,11.049c1.104,0,1.853-0.663,1.853-2.941
			c0-1.139-0.221-2.72-1.887-2.72c-1.836,0-1.853,2.125-1.853,2.907C64.344,10.216,64.989,11.049,66.23,11.049z"/>
		<path fill="#020202" d="M72.759,5.694h-1.292V3.91h1.292V2.737c0-1.513,0.492-2.737,2.94-2.737c0.187,0,0.663,0,1.359,0.085v1.751
			c-0.255-0.034-0.322-0.051-0.526-0.051c-1.275,0-1.275,0.68-1.275,1.122V3.91h1.581v1.785h-1.581v6.799h-2.498V5.694z
			 M78.113,0.221h2.686v2.193h-2.686V0.221z M78.198,3.893h2.516v8.601h-2.516V3.893z"/>
		<path fill="#020202" d="M82.924,0.204h2.517v12.29h-2.517V0.204z"/>
		<path fill="#020202" d="M89.674,8.839c0,0.561,0,2.295,1.751,2.295c0.629,0,1.258-0.238,1.495-1.19h2.295
			c-0.034,0.408-0.119,1.139-0.815,1.87c-0.629,0.663-1.751,1.003-3.009,1.003c-0.731,0-2.125-0.136-3.026-1.071
			c-0.781-0.816-1.104-1.972-1.104-3.349c0-1.394,0.34-3.06,1.785-4.063c0.663-0.442,1.479-0.714,2.413-0.714
			c1.225,0,2.687,0.476,3.468,2.074c0.578,1.173,0.544,2.431,0.51,3.145H89.674z M92.869,7.258c0-0.391-0.034-1.921-1.496-1.921
			c-1.104,0-1.563,0.918-1.614,1.921H92.869z"/>
		<path fill="#020202" d="M97.29,3.91h2.142v2.294H97.29V3.91z M97.29,10.216h2.142v2.278H97.29V10.216z"/>
		<path fill="#020202" d="M4.113,36.894V26.065H0v-1.445h9.909v1.445H5.796v10.828H4.113z"/>
		<path fill="#020202" d="M18.919,27.936c-0.067-0.425-0.288-2.125-2.651-2.125c-2.958,0-3.484,3.026-3.484,5.065
			c0,2.312,0.663,4.811,3.468,4.811c0.748,0,1.462-0.187,1.988-0.731c0.442-0.476,0.544-1.003,0.595-1.292h1.87
			c-0.255,2.414-2.481,3.417-4.59,3.417c-4.317,0-5.15-3.808-5.15-6.188c0-2.583,1.003-6.442,5.372-6.442
			c1.733,0,4.182,0.697,4.402,3.485H18.919z"/>
		<path fill="#020202" d="M26.129,26.393l-1.706-0.188l1.012,1.369l-0.645,0.396l-0.665-1.567l-0.714,1.547l-0.674-0.367
			l1.051-1.378l-1.646,0.139v-0.724l1.677,0.218l-1.012-1.389l0.654-0.357l0.664,1.537l0.685-1.547l0.665,0.367l-1.042,1.389
			l1.696-0.188V26.393z"/>
		<path fill="#020202" d="M28.29,28.275h1.887v2.006H28.29V28.275z M28.29,34.888h1.887v2.006H28.29V34.888z"/>
		<path fill="#020202" d="M38.779,33.868c-0.018,1.122,0.714,1.921,2.158,1.921c1.648,0,2.346-1.054,2.346-2.091
			c0-1.241-0.833-1.887-1.699-2.074c-0.612-0.119-1.037-0.102-1.632-0.085v-1.377c1.173,0.102,3.145-0.136,3.145-2.04
			c0-1.326-0.901-1.853-2.074-1.853c-0.884,0-1.988,0.391-2.142,1.853h-1.717c0.102-2.924,2.855-3.213,3.808-3.213
			c2.566,0,3.842,1.547,3.842,3.179c0,0.969-0.527,2.363-2.346,2.771c2.516,0.357,2.516,2.618,2.516,2.855
			c0,1.649-1.343,3.468-4.08,3.468c-1.24,0-2.481-0.357-3.229-1.224c-0.663-0.748-0.68-1.598-0.697-2.091H38.779z"/>
		<path fill="#020202" d="M50.475,24.893c3.519,0,3.943,3.774,3.943,5.983c0,2.788-0.561,4.352-1.632,5.354
			c-0.833,0.782-1.818,0.901-2.346,0.901c-1.563,0-2.635-0.917-3.145-1.955c-0.391-0.782-0.765-1.921-0.765-4.029
			C46.531,29.397,46.735,24.893,50.475,24.893z M50.458,35.721c1.972,0,2.312-2.584,2.312-4.691c0-2.822-0.493-4.777-2.277-4.777
			c-2.058,0-2.329,2.703-2.329,4.811C48.163,33.681,48.673,35.721,50.458,35.721z"/>
		<path fill="#020202" d="M59.926,24.893c3.519,0,3.943,3.774,3.943,5.983c0,2.788-0.561,4.352-1.632,5.354
			c-0.833,0.782-1.818,0.901-2.346,0.901c-1.563,0-2.635-0.917-3.145-1.955c-0.391-0.782-0.765-1.921-0.765-4.029
			C55.982,29.397,56.187,24.893,59.926,24.893z M59.909,35.721c1.972,0,2.312-2.584,2.312-4.691c0-2.822-0.493-4.777-2.277-4.777
			c-2.058,0-2.329,2.703-2.329,4.811C57.614,33.681,58.124,35.721,59.909,35.721z"/>
		<path fill="#020202" d="M70.892,29.5l-0.033-1.139h1.614v1.241c0.816-1.343,1.972-1.461,2.703-1.461
			c1.887,0,2.481,0.969,2.787,1.598c0.289-0.476,0.986-1.598,2.873-1.598c1.224,0,3.128,0.51,3.128,3.025v5.729h-1.615V31.42
			c0-0.748-0.136-1.071-0.289-1.292c-0.271-0.391-0.815-0.748-1.632-0.748c-1.037,0-1.598,0.595-1.818,0.901
			c-0.374,0.527-0.374,1.462-0.374,1.836v4.776H76.62V31.25c0-1.054-0.611-1.87-1.869-1.87c-1.088,0-1.684,0.68-1.87,0.935
			c-0.357,0.493-0.374,1.189-0.374,1.733v4.845h-1.615V29.5z"/>
		<path fill="#020202" d="M88.486,37.557c0.068,0.952,0.477,1.666,1.989,1.666c2.227,0,2.261-1.615,2.261-3.926
			c-0.68,1.411-2.295,1.445-2.805,1.445c-0.782,0-1.904-0.17-2.618-1.054c-0.73-0.867-0.969-2.006-0.969-3.145
			c0-2.89,1.7-4.301,3.791-4.301c1.717,0,2.346,0.85,2.686,1.292l0.017-1.173h1.547l-0.034,1.547l-0.017,5.337
			c0,2.057-0.068,2.89-0.408,3.536c-0.714,1.36-2.38,1.53-3.553,1.53c-3.416,0-3.519-1.598-3.586-2.753H88.486z M92.209,34.701
			c0.34-0.442,0.578-0.901,0.578-2.448c0-1.071-0.238-1.683-0.663-2.125c-0.425-0.459-1.104-0.748-1.836-0.748
			c-2.022,0-2.294,2.04-2.294,3.127c0,1.309,0.391,3.043,2.346,3.043C91.274,35.551,91.818,35.211,92.209,34.701z"/>
		<path fill="#020202" d="M99.672,24.774h1.105l-3.961,12.392h-1.122L99.672,24.774z"/>
		<path fill="#020202" d="M107.984,24.638h1.598v10.896c0,0.187,0.034,0.918,0.068,1.36h-1.598l-0.034-1.36
			c-0.136,0.238-0.323,0.595-0.765,0.901c-0.697,0.476-1.53,0.629-2.108,0.629c-1.139,0-3.671-0.595-3.671-4.334
			c0-3.247,1.853-4.658,3.858-4.658c1.836,0,2.447,1.088,2.651,1.445V24.638z M107.39,30.128c-0.34-0.442-0.969-0.867-1.87-0.867
			c-2.346,0-2.346,2.839-2.346,3.417c0,1.513,0.391,3.264,2.346,3.264c2.516,0,2.516-2.771,2.516-3.434
			C108.035,31.267,107.746,30.587,107.39,30.128z"/>
		<path fill="#020202" d="M112.541,24.621h1.683v10.76h5.712v1.513h-7.395V24.621z"/>
		<path fill="#020202" d="M128.402,38.984c-0.918-2.261-2.022-5.083-2.022-7.564c0-1.343,0.306-2.668,0.696-3.96
			c0.477-1.53,0.918-2.618,1.207-3.349h1.122c-0.272,0.833-0.646,1.989-1.003,3.604c-0.357,1.564-0.476,2.618-0.476,3.672
			c0,2.414,0.595,4.369,1.58,7.598H128.402z"/>
		<path fill="#020202" d="M131.394,25.131h7.769v1.428l-4.317,10.335h-1.921l4.521-10.352h-6.052V25.131z"/>
		<path fill="#020202" d="M141.628,34.854h1.887v2.04h-1.887V34.854z"/>
		<path fill="#020202" d="M145.845,28.071c0-1.054,0.714-3.212,3.808-3.212c2.481,0,3.909,1.343,3.909,3.145
			c0,1.156-0.748,2.363-2.396,2.669c0.697,0.187,2.566,0.697,2.566,2.975c0,1.615-1.122,3.451-4.045,3.451
			c-1.003,0-2.193-0.204-3.043-0.986c-0.629-0.578-1.037-1.462-1.037-2.363c0-0.782,0.306-1.598,0.901-2.159
			c0.561-0.561,1.173-0.73,1.699-0.901C146.644,30.349,145.845,29.244,145.845,28.071z M149.687,35.755
			c1.887,0,2.346-1.326,2.346-2.21c0-1.309-0.97-2.159-2.313-2.159c-1.444,0-2.396,0.969-2.396,2.209
			C147.323,34.514,147.936,35.755,149.687,35.755z M149.72,26.117c-1.258,0-2.227,0.748-2.227,1.921
			c0,1.139,0.952,1.904,2.176,1.904c1.292,0,2.261-0.748,2.261-1.904C151.93,26.967,151.131,26.117,149.72,26.117z"/>
		<path fill="#020202" d="M160.634,29.5l-0.033-1.139h1.614v1.241c0.816-1.343,1.972-1.461,2.703-1.461
			c1.887,0,2.481,0.969,2.787,1.598c0.289-0.476,0.986-1.598,2.873-1.598c1.224,0,3.128,0.51,3.128,3.025v5.729h-1.615V31.42
			c0-0.748-0.136-1.071-0.289-1.292c-0.271-0.391-0.815-0.748-1.632-0.748c-1.037,0-1.598,0.595-1.818,0.901
			c-0.374,0.527-0.374,1.462-0.374,1.836v4.776h-1.615V31.25c0-1.054-0.611-1.87-1.869-1.87c-1.088,0-1.684,0.68-1.87,0.935
			c-0.357,0.493-0.374,1.189-0.374,1.733v4.845h-1.615V29.5z"/>
		<path fill="#020202" d="M176.682,29.5l-0.033-1.139h1.614v1.241c0.816-1.343,1.972-1.461,2.703-1.461
			c1.887,0,2.481,0.969,2.787,1.598c0.289-0.476,0.986-1.598,2.873-1.598c1.224,0,3.128,0.51,3.128,3.025v5.729h-1.615V31.42
			c0-0.748-0.136-1.071-0.289-1.292c-0.271-0.391-0.815-0.748-1.632-0.748c-1.037,0-1.598,0.595-1.818,0.901
			c-0.374,0.527-0.374,1.462-0.374,1.836v4.776h-1.615V31.25c0-1.054-0.611-1.87-1.869-1.87c-1.088,0-1.684,0.68-1.87,0.935
			c-0.357,0.493-0.374,1.189-0.374,1.733v4.845h-1.615V29.5z"/>
		<path fill="#020202" d="M196.452,28.14c3.417,0,4.182,2.686,4.182,4.47c0,2.499-1.41,4.573-4.317,4.573
			c-2.821,0-4.198-1.955-4.198-4.454C192.118,30.621,193.104,28.14,196.452,28.14z M196.351,35.993c1.207,0,2.584-0.867,2.584-3.434
			c0-2.125-0.986-3.247-2.482-3.247c-1.02,0-2.668,0.646-2.668,3.314C193.784,34.378,194.531,35.993,196.351,35.993z"/>
		<path fill="#020202" d="M203.168,24.638h1.598v12.256h-1.598V24.638z"/>
		<path fill="#020202" d="M210.188,24.774h1.105l-3.961,12.392h-1.122L210.188,24.774z"/>
		<path fill="#020202" d="M212.62,24.638h1.598v12.256h-1.598V24.638z"/>
		<path fill="#020202" d="M218.212,24.111c0.918,2.261,2.023,5.065,2.023,7.547c0,1.343-0.307,2.668-0.697,3.96
			c-0.476,1.53-0.918,2.635-1.207,3.366h-1.122c0.272-0.85,0.646-2.006,1.003-3.621c0.357-1.547,0.477-2.618,0.477-3.672
			c0-2.396-0.596-4.352-1.581-7.581H218.212z"/>
		<path fill="#020202" d="M1.224,49.021h1.683v10.76h5.711v1.513H1.224V49.021z"/>
		<path fill="#020202" d="M10.591,49.021h3.553c1.648,0,3.586,0,4.946,1.598c1.088,1.275,1.513,2.958,1.513,4.641
			c0,2.651-1.104,4.283-2.04,5.031c-1.207,1.003-2.72,1.003-4.521,1.003h-3.45V49.021z M12.29,59.899h1.666
			c1.173,0,2.396-0.068,3.213-0.68c1.563-1.173,1.615-3.179,1.615-3.893c0-0.459-0.034-2.55-1.19-3.825
			c-0.782-0.867-1.768-1.071-3.264-1.071h-2.04V59.899z"/>
		<path fill="#020202" d="M22.949,49.021h1.683v10.76h5.712v1.513h-7.395V49.021z"/>
		<path fill="#020202" d="M31.534,56.177h4.267v1.292h-4.267V56.177z"/>
		<path fill="#020202" d="M45.371,52.335c-0.067-0.425-0.288-2.125-2.651-2.125c-2.958,0-3.484,3.026-3.484,5.065
			c0,2.312,0.663,4.811,3.468,4.811c0.748,0,1.462-0.187,1.988-0.731c0.442-0.476,0.544-1.003,0.595-1.292h1.87
			c-0.255,2.414-2.481,3.417-4.59,3.417c-4.317,0-5.15-3.808-5.15-6.188c0-2.583,1.003-6.442,5.372-6.442
			c1.733,0,4.182,0.697,4.402,3.485H45.371z"/>
		<path fill="#020202" d="M52.581,50.792l-1.706-0.188l1.012,1.369l-0.645,0.396l-0.665-1.567l-0.714,1.547l-0.674-0.367
			l1.051-1.378l-1.646,0.139v-0.724l1.677,0.218l-1.012-1.389l0.654-0.357l0.664,1.537l0.685-1.547l0.665,0.367l-1.042,1.389
			l1.696-0.188V50.792z"/>
		<path fill="#020202" d="M58.091,50.792l-1.706-0.188l1.012,1.369l-0.645,0.396l-0.665-1.567l-0.714,1.547l-0.674-0.367
			l1.051-1.378l-1.646,0.139v-0.724l1.677,0.218l-1.012-1.389l0.654-0.357l0.664,1.537l0.685-1.547l0.665,0.367l-1.042,1.389
			l1.696-0.188V50.792z"/>
		<path fill="#020202" d="M60.252,52.675h1.887v2.006h-1.887V52.675z M60.252,59.288h1.887v2.006h-1.887V59.288z"/>
		<path fill="#020202" d="M69.194,59.747l3.076-3.026c0.646-0.629,1.292-1.309,1.819-2.022c0.68-0.935,0.866-1.462,0.866-2.091
			c0-0.578-0.204-1.921-1.887-1.921c-1.887,0-1.921,1.615-1.921,2.057h-1.784c0.017-0.578,0.067-1.7,1.088-2.583
			c0.815-0.697,1.802-0.85,2.55-0.85c1.802,0,3.637,0.918,3.637,3.434c0,0.748-0.051,1.326-1.325,2.941
			c-0.34,0.425-1.836,1.972-2.176,2.312l-2.057,1.955h5.592v1.343h-7.479V59.747z"/>
		<path fill="#020202" d="M78.646,59.747l3.076-3.026c0.646-0.629,1.292-1.309,1.819-2.022c0.68-0.935,0.866-1.462,0.866-2.091
			c0-0.578-0.204-1.921-1.887-1.921c-1.887,0-1.921,1.615-1.921,2.057h-1.784c0.017-0.578,0.067-1.7,1.088-2.583
			c0.815-0.697,1.802-0.85,2.55-0.85c1.802,0,3.637,0.918,3.637,3.434c0,0.748-0.051,1.326-1.325,2.941
			c-0.34,0.425-1.836,1.972-2.176,2.312l-2.057,1.955h5.592v1.343h-7.479V59.747z"/>
		<path fill="#020202" d="M91.889,49.292c3.519,0,3.943,3.774,3.943,5.983c0,2.788-0.561,4.352-1.632,5.354
			c-0.833,0.782-1.818,0.901-2.346,0.901c-1.563,0-2.635-0.918-3.145-1.955c-0.391-0.782-0.765-1.921-0.765-4.029
			C87.945,53.797,88.149,49.292,91.889,49.292z M91.872,60.121c1.972,0,2.312-2.584,2.312-4.691c0-2.822-0.493-4.777-2.277-4.777
			c-2.058,0-2.329,2.703-2.329,4.811C89.577,58.081,90.087,60.121,91.872,60.121z"/>
		<path fill="#020202" d="M102.854,53.899l-0.033-1.139h1.614v1.241c0.816-1.343,1.972-1.461,2.703-1.461
			c1.887,0,2.481,0.969,2.787,1.598c0.289-0.476,0.986-1.598,2.873-1.598c1.224,0,3.128,0.51,3.128,3.025v5.729h-1.615V55.82
			c0-0.748-0.136-1.071-0.289-1.292c-0.271-0.391-0.815-0.748-1.632-0.748c-1.037,0-1.598,0.595-1.818,0.901
			c-0.374,0.527-0.374,1.462-0.374,1.836v4.776h-1.615V55.65c0-1.054-0.611-1.87-1.869-1.87c-1.088,0-1.684,0.68-1.87,0.935
			c-0.357,0.493-0.374,1.189-0.374,1.733v4.845h-1.615V53.899z"/>
		<path fill="#020202" d="M120.448,61.957c0.068,0.952,0.477,1.666,1.989,1.666c2.227,0,2.261-1.615,2.261-3.926
			c-0.68,1.411-2.295,1.445-2.805,1.445c-0.782,0-1.904-0.17-2.618-1.054c-0.73-0.867-0.969-2.006-0.969-3.145
			c0-2.89,1.7-4.301,3.791-4.301c1.717,0,2.346,0.85,2.686,1.292l0.017-1.173h1.547l-0.034,1.547l-0.017,5.337
			c0,2.057-0.068,2.89-0.408,3.536c-0.714,1.36-2.38,1.53-3.553,1.53c-3.416,0-3.519-1.598-3.586-2.753H120.448z M124.171,59.101
			c0.34-0.442,0.578-0.901,0.578-2.448c0-1.071-0.238-1.683-0.663-2.125c-0.425-0.459-1.104-0.748-1.836-0.748
			c-2.022,0-2.294,2.04-2.294,3.127c0,1.309,0.391,3.043,2.346,3.043C123.236,59.951,123.78,59.611,124.171,59.101z"/>
		<path fill="#020202" d="M131.634,49.174h1.105l-3.961,12.392h-1.122L131.634,49.174z"/>
		<path fill="#020202" d="M139.947,49.038h1.598v10.896c0,0.187,0.034,0.918,0.068,1.36h-1.598l-0.034-1.36
			c-0.136,0.238-0.323,0.595-0.765,0.901c-0.697,0.476-1.53,0.629-2.108,0.629c-1.139,0-3.671-0.595-3.671-4.334
			c0-3.247,1.853-4.658,3.858-4.658c1.836,0,2.447,1.088,2.651,1.445V49.038z M139.353,54.528c-0.34-0.442-0.969-0.867-1.87-0.867
			c-2.346,0-2.346,2.839-2.346,3.417c0,1.513,0.391,3.264,2.346,3.264c2.516,0,2.516-2.771,2.516-3.434
			C139.998,55.667,139.709,54.987,139.353,54.528z"/>
		<path fill="#020202" d="M144.504,49.021h1.683v10.76h5.712v1.513h-7.395V49.021z"/>
		<path fill="#020202" d="M160.364,63.384c-0.918-2.261-2.022-5.083-2.022-7.564c0-1.343,0.306-2.668,0.696-3.96
			c0.477-1.53,0.918-2.618,1.207-3.349h1.122c-0.272,0.833-0.646,1.989-1.003,3.604c-0.357,1.564-0.476,2.618-0.476,3.672
			c0,2.414,0.595,4.369,1.58,7.598H160.364z"/>
		<path fill="#020202" d="M163.663,59.747l3.076-3.026c0.646-0.629,1.292-1.309,1.819-2.022c0.68-0.935,0.866-1.462,0.866-2.091
			c0-0.578-0.204-1.921-1.887-1.921c-1.887,0-1.921,1.615-1.921,2.057h-1.784c0.017-0.578,0.067-1.7,1.088-2.583
			c0.815-0.697,1.802-0.85,2.55-0.85c1.802,0,3.637,0.918,3.637,3.434c0,0.748-0.051,1.326-1.325,2.941
			c-0.34,0.425-1.836,1.972-2.176,2.312l-2.057,1.955h5.592v1.343h-7.479V59.747z"/>
		<path fill="#020202" d="M173.591,59.254h1.887v2.04h-1.887V59.254z"/>
		<path fill="#020202" d="M179.387,58.268c-0.017,1.122,0.715,1.921,2.159,1.921c1.649,0,2.346-1.054,2.346-2.091
			c0-1.241-0.833-1.887-1.699-2.074c-0.612-0.119-1.037-0.102-1.632-0.085v-1.377c1.173,0.102,3.145-0.136,3.145-2.04
			c0-1.326-0.901-1.853-2.074-1.853c-0.884,0-1.988,0.391-2.142,1.853h-1.717c0.102-2.924,2.855-3.213,3.808-3.213
			c2.566,0,3.842,1.547,3.842,3.179c0,0.969-0.527,2.363-2.346,2.771c2.516,0.357,2.516,2.618,2.516,2.855
			c0,1.649-1.343,3.468-4.08,3.468c-1.24,0-2.481-0.357-3.229-1.224c-0.663-0.748-0.68-1.598-0.697-2.091H179.387z"/>
		<path fill="#020202" d="M197.322,53.899l-0.033-1.139h1.614v1.241c0.816-1.343,1.972-1.461,2.703-1.461
			c1.887,0,2.481,0.969,2.787,1.598c0.289-0.476,0.986-1.598,2.873-1.598c1.224,0,3.128,0.51,3.128,3.025v5.729h-1.615V55.82
			c0-0.748-0.136-1.071-0.289-1.292c-0.271-0.391-0.815-0.748-1.632-0.748c-1.037,0-1.598,0.595-1.818,0.901
			c-0.374,0.527-0.374,1.462-0.374,1.836v4.776h-1.615V55.65c0-1.054-0.611-1.87-1.869-1.87c-1.088,0-1.684,0.68-1.87,0.935
			c-0.357,0.493-0.374,1.189-0.374,1.733v4.845h-1.615V53.899z"/>
		<path fill="#020202" d="M213.37,53.899l-0.033-1.139h1.614v1.241c0.816-1.343,1.972-1.461,2.703-1.461
			c1.887,0,2.481,0.969,2.787,1.598c0.289-0.476,0.986-1.598,2.873-1.598c1.224,0,3.128,0.51,3.128,3.025v5.729h-1.615V55.82
			c0-0.748-0.136-1.071-0.289-1.292c-0.271-0.391-0.815-0.748-1.632-0.748c-1.037,0-1.598,0.595-1.818,0.901
			c-0.374,0.527-0.374,1.462-0.374,1.836v4.776h-1.615V55.65c0-1.054-0.611-1.87-1.869-1.87c-1.088,0-1.684,0.68-1.87,0.935
			c-0.357,0.493-0.374,1.189-0.374,1.733v4.845h-1.615V53.899z"/>
		<path fill="#020202" d="M233.14,52.54c3.417,0,4.182,2.686,4.182,4.47c0,2.499-1.41,4.573-4.317,4.573
			c-2.821,0-4.198-1.955-4.198-4.454C228.806,55.021,229.791,52.54,233.14,52.54z M233.038,60.393c1.207,0,2.584-0.867,2.584-3.434
			c0-2.125-0.986-3.247-2.482-3.247c-1.02,0-2.668,0.646-2.668,3.314C230.472,58.778,231.219,60.393,233.038,60.393z"/>
		<path fill="#020202" d="M239.856,49.038h1.598v12.256h-1.598V49.038z"/>
		<path fill="#020202" d="M246.876,49.174h1.105l-3.961,12.392h-1.122L246.876,49.174z"/>
		<path fill="#020202" d="M249.308,49.038h1.598v12.256h-1.598V49.038z"/>
		<path fill="#020202" d="M254.9,48.511c0.918,2.261,2.023,5.065,2.023,7.547c0,1.343-0.307,2.668-0.697,3.96
			c-0.476,1.53-0.918,2.635-1.207,3.366h-1.122c0.272-0.85,0.646-2.006,1.003-3.621c0.357-1.547,0.477-2.618,0.477-3.672
			c0-2.396-0.596-4.352-1.581-7.581H254.9z"/>
		<path fill="#020202" d="M4.113,85.693V74.865H0V73.42h9.909v1.445H5.796v10.828H4.113z"/>
		<path fill="#020202" d="M19.837,76.48c-0.187-1.139-1.104-1.921-2.771-1.921c-1.155,0-2.125,0.306-2.771,1.037
			c-1.071,1.19-1.309,2.788-1.309,3.944c0,1.037,0.221,2.788,1.122,3.858c0.799,0.918,2.039,1.207,3.264,1.207
			c1.394,0,2.277-0.272,2.668-0.391v-3.638h-2.805v-1.411h4.505v6.051c-0.714,0.238-2.278,0.748-4.368,0.748
			c-2.262,0-3.587-0.646-4.454-1.53c-1.207-1.224-1.717-2.941-1.717-4.675c0-1.224,0.306-4.113,2.635-5.677
			c1.207-0.816,2.805-0.867,3.417-0.867c0.969,0,2.447,0.119,3.62,1.309c0.731,0.765,0.782,1.479,0.816,1.955H19.837z"/>
		<path fill="#020202" d="M23.315,77.394h1.11l0.278-1.478h-0.992v-0.684h1.121l0.377-2.063h0.803l-0.387,2.063h1.21l0.377-2.063
			h0.804l-0.387,2.063h0.992v0.684h-1.121l-0.268,1.478h0.981v0.684h-1.11l-0.367,1.954h-0.794l0.357-1.954h-1.2l-0.367,1.954H23.94
			l0.356-1.954h-0.991L23.315,77.394z M26.43,77.394l0.277-1.478h-1.21l-0.268,1.478H26.43z"/>
		<path fill="#020202" d="M30.177,77.075h1.887v2.006h-1.887V77.075z M30.177,83.688h1.887v2.006h-1.887V83.688z"/>
		<path fill="#020202" d="M39.119,84.146l3.076-3.026c0.646-0.629,1.292-1.309,1.819-2.022c0.68-0.935,0.866-1.462,0.866-2.091
			c0-0.578-0.204-1.921-1.887-1.921c-1.887,0-1.921,1.615-1.921,2.057h-1.784c0.017-0.578,0.067-1.7,1.088-2.583
			c0.815-0.697,1.802-0.85,2.55-0.85c1.802,0,3.637,0.918,3.637,3.434c0,0.748-0.051,1.326-1.325,2.941
			c-0.34,0.425-1.836,1.972-2.176,2.312l-2.057,1.955h5.592v1.343h-7.479V84.146z"/>
		<path fill="#020202" d="M52.361,73.692c3.519,0,3.943,3.774,3.943,5.983c0,2.788-0.561,4.352-1.632,5.354
			c-0.833,0.782-1.818,0.901-2.346,0.901c-1.563,0-2.635-0.917-3.145-1.955c-0.391-0.782-0.765-1.921-0.765-4.029
			C48.418,78.197,48.622,73.692,52.361,73.692z M52.345,84.521c1.972,0,2.312-2.584,2.312-4.691c0-2.822-0.493-4.777-2.277-4.777
			c-2.058,0-2.329,2.703-2.329,4.811C50.05,82.48,50.56,84.521,52.345,84.521z"/>
		<path fill="#020202" d="M61.813,73.692c3.519,0,3.943,3.774,3.943,5.983c0,2.788-0.561,4.352-1.632,5.354
			c-0.833,0.782-1.818,0.901-2.346,0.901c-1.563,0-2.635-0.917-3.145-1.955c-0.391-0.782-0.765-1.921-0.765-4.029
			C57.87,78.197,58.074,73.692,61.813,73.692z M61.797,84.521c1.972,0,2.312-2.584,2.312-4.691c0-2.822-0.493-4.777-2.277-4.777
			c-2.058,0-2.329,2.703-2.329,4.811C59.502,82.48,60.012,84.521,61.797,84.521z"/>
		<path fill="#020202" d="M72.778,78.299l-0.033-1.139h1.614v1.241c0.816-1.343,1.972-1.461,2.703-1.461
			c1.887,0,2.481,0.969,2.787,1.598c0.289-0.476,0.986-1.598,2.873-1.598c1.224,0,3.128,0.51,3.128,3.025v5.729h-1.615V80.22
			c0-0.748-0.136-1.071-0.289-1.292c-0.271-0.391-0.815-0.748-1.632-0.748c-1.037,0-1.598,0.595-1.818,0.901
			c-0.374,0.527-0.374,1.462-0.374,1.836v4.776h-1.615V80.05c0-1.054-0.611-1.87-1.869-1.87c-1.088,0-1.684,0.68-1.87,0.935
			c-0.357,0.493-0.374,1.189-0.374,1.733v4.845h-1.615V78.299z"/>
		<path fill="#020202" d="M90.373,86.356c0.068,0.952,0.477,1.666,1.989,1.666c2.227,0,2.261-1.615,2.261-3.926
			c-0.68,1.411-2.295,1.445-2.805,1.445c-0.782,0-1.904-0.17-2.618-1.054c-0.73-0.867-0.969-2.006-0.969-3.145
			c0-2.89,1.7-4.301,3.791-4.301c1.717,0,2.346,0.85,2.686,1.292l0.017-1.173h1.547l-0.034,1.547l-0.017,5.337
			c0,2.057-0.068,2.89-0.408,3.536c-0.714,1.36-2.38,1.53-3.553,1.53c-3.416,0-3.519-1.598-3.586-2.753H90.373z M94.096,83.5
			c0.34-0.442,0.578-0.901,0.578-2.448c0-1.071-0.238-1.683-0.663-2.125c-0.425-0.459-1.104-0.748-1.836-0.748
			c-2.022,0-2.294,2.04-2.294,3.127c0,1.309,0.391,3.043,2.346,3.043C93.161,84.351,93.705,84.011,94.096,83.5z"/>
		<path fill="#020202" d="M101.559,73.574h1.105l-3.961,12.392h-1.122L101.559,73.574z"/>
		<path fill="#020202" d="M109.872,73.438h1.598v10.896c0,0.187,0.034,0.918,0.068,1.36h-1.598l-0.034-1.36
			c-0.136,0.238-0.323,0.595-0.765,0.901c-0.697,0.476-1.53,0.629-2.108,0.629c-1.139,0-3.671-0.595-3.671-4.334
			c0-3.247,1.853-4.658,3.858-4.658c1.836,0,2.447,1.088,2.651,1.445V73.438z M109.277,78.928c-0.34-0.442-0.969-0.867-1.87-0.867
			c-2.346,0-2.346,2.839-2.346,3.417c0,1.513,0.392,3.264,2.346,3.264c2.516,0,2.516-2.771,2.516-3.434
			C109.923,80.067,109.634,79.387,109.277,78.928z"/>
		<path fill="#020202" d="M114.429,73.42h1.683v10.76h5.711v1.513h-7.394V73.42z"/>
		<path fill="#020202" d="M130.289,87.784c-0.918-2.261-2.022-5.083-2.022-7.564c0-1.343,0.306-2.668,0.696-3.96
			c0.477-1.53,0.918-2.618,1.207-3.349h1.122c-0.272,0.833-0.646,1.989-1.003,3.604c-0.357,1.564-0.476,2.618-0.476,3.672
			c0,2.414,0.595,4.369,1.58,7.598H130.289z"/>
		<path fill="#020202" d="M135.406,82.906c0.034,1.19,1.071,1.666,1.955,1.666c2.057,0,2.328-1.938,2.328-2.703
			c0-1.598-0.866-2.533-2.227-2.533c-0.68,0-1.224,0.255-1.581,0.612c-0.356,0.357-0.459,0.714-0.544,0.986h-1.547l0.307-7.003
			h6.612v1.377h-5.15l-0.222,3.808c0.357-0.357,1.105-1.088,2.482-1.088c2.362,0,3.519,1.853,3.519,3.875
			c0,2.312-1.632,4.063-4.199,4.063c-1.903,0-3.416-1.054-3.501-3.06H135.406z"/>
		<path fill="#020202" d="M143.516,83.653h1.887v2.04h-1.887V83.653z"/>
		<path fill="#020202" d="M147.766,84.146l3.076-3.026c0.646-0.629,1.292-1.309,1.819-2.022c0.68-0.935,0.866-1.462,0.866-2.091
			c0-0.578-0.204-1.921-1.887-1.921c-1.887,0-1.921,1.615-1.921,2.057h-1.784c0.017-0.578,0.067-1.7,1.088-2.583
			c0.815-0.697,1.802-0.85,2.55-0.85c1.802,0,3.637,0.918,3.637,3.434c0,0.748-0.051,1.326-1.325,2.941
			c-0.34,0.425-1.836,1.972-2.176,2.312l-2.057,1.955h5.592v1.343h-7.479V84.146z"/>
		<path fill="#020202" d="M162.521,78.299l-0.033-1.139h1.614v1.241c0.816-1.343,1.972-1.461,2.703-1.461
			c1.887,0,2.481,0.969,2.787,1.598c0.289-0.476,0.986-1.598,2.873-1.598c1.224,0,3.128,0.51,3.128,3.025v5.729h-1.615V80.22
			c0-0.748-0.136-1.071-0.289-1.292c-0.271-0.391-0.815-0.748-1.632-0.748c-1.037,0-1.598,0.595-1.818,0.901
			c-0.374,0.527-0.374,1.462-0.374,1.836v4.776h-1.615V80.05c0-1.054-0.611-1.87-1.869-1.87c-1.088,0-1.684,0.68-1.87,0.935
			c-0.357,0.493-0.374,1.189-0.374,1.733v4.845h-1.615V78.299z"/>
		<path fill="#020202" d="M178.568,78.299l-0.033-1.139h1.614v1.241c0.816-1.343,1.972-1.461,2.703-1.461
			c1.887,0,2.481,0.969,2.787,1.598c0.289-0.476,0.986-1.598,2.873-1.598c1.224,0,3.128,0.51,3.128,3.025v5.729h-1.615V80.22
			c0-0.748-0.136-1.071-0.289-1.292c-0.271-0.391-0.815-0.748-1.632-0.748c-1.037,0-1.598,0.595-1.818,0.901
			c-0.374,0.527-0.374,1.462-0.374,1.836v4.776h-1.615V80.05c0-1.054-0.611-1.87-1.869-1.87c-1.088,0-1.684,0.68-1.87,0.935
			c-0.357,0.493-0.374,1.189-0.374,1.733v4.845h-1.615V78.299z"/>
		<path fill="#020202" d="M198.339,76.939c3.417,0,4.182,2.686,4.182,4.47c0,2.499-1.41,4.573-4.317,4.573
			c-2.821,0-4.198-1.955-4.198-4.454C194.005,79.421,194.99,76.939,198.339,76.939z M198.237,84.792
			c1.207,0,2.584-0.867,2.584-3.434c0-2.125-0.986-3.247-2.482-3.247c-1.02,0-2.668,0.646-2.668,3.314
			C195.671,83.178,196.418,84.792,198.237,84.792z"/>
		<path fill="#020202" d="M205.055,73.438h1.598v12.256h-1.598V73.438z"/>
		<path fill="#020202" d="M212.075,73.574h1.105l-3.961,12.392h-1.122L212.075,73.574z"/>
		<path fill="#020202" d="M214.507,73.438h1.598v12.256h-1.598V73.438z"/>
		<path fill="#020202" d="M220.1,72.911c0.918,2.261,2.023,5.065,2.023,7.547c0,1.343-0.307,2.668-0.697,3.96
			c-0.476,1.53-0.918,2.635-1.207,3.366h-1.122c0.272-0.85,0.646-2.006,1.003-3.621c0.357-1.547,0.477-2.618,0.477-3.672
			c0-2.396-0.596-4.352-1.581-7.581H220.1z"/>
		<path fill="#020202" d="M2.838,97.82v5.27h5.831v-5.27h1.699v12.273H8.669v-5.542H2.838v5.542H1.139V97.82H2.838z"/>
		<path fill="#020202" d="M13.412,97.82h3.553c1.648,0,3.586,0,4.946,1.598c1.088,1.275,1.513,2.958,1.513,4.641
			c0,2.651-1.104,4.283-2.04,5.031c-1.207,1.003-2.72,1.003-4.521,1.003h-3.45V97.82z M15.111,108.699h1.666
			c1.173,0,2.396-0.068,3.213-0.68c1.563-1.173,1.615-3.179,1.615-3.893c0-0.459-0.034-2.55-1.19-3.825
			c-0.782-0.867-1.768-1.071-3.264-1.071h-2.04V108.699z"/>
		<path fill="#020202" d="M25.771,97.82h1.683v10.76h5.712v1.513h-7.395V97.82z"/>
		<path fill="#020202" d="M34.355,104.977h4.267v1.292h-4.267V104.977z"/>
		<path fill="#020202" d="M48.192,101.135c-0.067-0.425-0.288-2.125-2.651-2.125c-2.958,0-3.484,3.026-3.484,5.065
			c0,2.312,0.663,4.811,3.468,4.811c0.748,0,1.462-0.187,1.988-0.731c0.442-0.476,0.544-1.003,0.595-1.292h1.87
			c-0.255,2.414-2.481,3.417-4.59,3.417c-4.317,0-5.15-3.808-5.15-6.188c0-2.583,1.003-6.442,5.372-6.442
			c1.733,0,4.182,0.697,4.402,3.485H48.192z"/>
		<path fill="#020202" d="M50.701,101.794h1.11l0.278-1.478h-0.992v-0.684h1.121l0.377-2.063h0.803l-0.387,2.063h1.21l0.377-2.063
			h0.804l-0.387,2.063h0.992v0.684h-1.121l-0.268,1.478h0.981v0.684h-1.11l-0.367,1.954h-0.794l0.357-1.954h-1.2l-0.367,1.954
			h-0.793l0.356-1.954h-0.991L50.701,101.794z M53.815,101.794l0.277-1.478h-1.21l-0.268,1.478H53.815z"/>
		<path fill="#020202" d="M56.212,101.794h1.11l0.278-1.478h-0.992v-0.684h1.121l0.377-2.063h0.803l-0.387,2.063h1.21l0.377-2.063
			h0.804l-0.387,2.063h0.992v0.684h-1.121l-0.268,1.478h0.981v0.684h-1.11l-0.367,1.954H58.84l0.357-1.954h-1.2l-0.367,1.954h-0.793
			l0.356-1.954h-0.991L56.212,101.794z M59.326,101.794l0.277-1.478h-1.21l-0.268,1.478H59.326z"/>
		<path fill="#020202" d="M63.074,101.475h1.887v2.006h-1.887V101.475z M63.074,108.087h1.887v2.006h-1.887V108.087z"/>
		<path fill="#020202" d="M76.895,107.543h-5.304v-2.023l5.1-7.343h1.836v7.989h1.717v1.377h-1.717v2.55h-1.632V107.543z
			 M76.945,106.167v-6.204l-4.063,6.204H76.945z"/>
		<path fill="#020202" d="M85.258,98.092c3.519,0,3.943,3.774,3.943,5.983c0,2.788-0.561,4.352-1.632,5.354
			c-0.833,0.782-1.818,0.901-2.346,0.901c-1.563,0-2.635-0.918-3.145-1.955c-0.391-0.782-0.765-1.921-0.765-4.029
			C81.314,102.597,81.519,98.092,85.258,98.092z M85.241,108.92c1.972,0,2.312-2.584,2.312-4.691c0-2.822-0.493-4.777-2.277-4.777
			c-2.058,0-2.329,2.703-2.329,4.811C82.946,106.88,83.456,108.92,85.241,108.92z"/>
		<path fill="#020202" d="M96.224,102.699l-0.033-1.139h1.614v1.241c0.816-1.343,1.972-1.461,2.703-1.461
			c1.887,0,2.481,0.969,2.787,1.598c0.289-0.476,0.986-1.598,2.873-1.598c1.224,0,3.128,0.51,3.128,3.025v5.729h-1.615v-5.474
			c0-0.748-0.136-1.071-0.289-1.292c-0.271-0.391-0.815-0.748-1.632-0.748c-1.037,0-1.598,0.595-1.818,0.901
			c-0.374,0.527-0.374,1.462-0.374,1.836v4.776h-1.615v-5.644c0-1.054-0.611-1.87-1.869-1.87c-1.088,0-1.684,0.68-1.87,0.935
			c-0.357,0.493-0.374,1.189-0.374,1.733v4.845h-1.615V102.699z"/>
		<path fill="#020202" d="M113.818,110.756c0.068,0.952,0.477,1.665,1.989,1.665c2.227,0,2.261-1.614,2.261-3.926
			c-0.68,1.411-2.295,1.445-2.805,1.445c-0.782,0-1.904-0.17-2.618-1.054c-0.73-0.867-0.969-2.006-0.969-3.145
			c0-2.89,1.7-4.301,3.791-4.301c1.717,0,2.346,0.85,2.686,1.292l0.017-1.173h1.547l-0.034,1.547l-0.017,5.337
			c0,2.057-0.068,2.89-0.408,3.536c-0.714,1.359-2.38,1.529-3.553,1.529c-3.416,0-3.519-1.597-3.586-2.753H113.818z M117.541,107.9
			c0.34-0.442,0.578-0.901,0.578-2.448c0-1.071-0.238-1.683-0.663-2.125c-0.425-0.459-1.104-0.748-1.836-0.748
			c-2.022,0-2.294,2.04-2.294,3.127c0,1.309,0.391,3.043,2.346,3.043C116.606,108.75,117.15,108.411,117.541,107.9z"/>
		<path fill="#020202" d="M125.004,97.974h1.105l-3.961,12.392h-1.122L125.004,97.974z"/>
		<path fill="#020202" d="M133.316,97.837h1.598v10.896c0,0.187,0.034,0.918,0.068,1.36h-1.598l-0.034-1.36
			c-0.136,0.238-0.323,0.595-0.765,0.901c-0.697,0.476-1.53,0.629-2.108,0.629c-1.139,0-3.671-0.595-3.671-4.334
			c0-3.247,1.853-4.658,3.858-4.658c1.836,0,2.447,1.088,2.651,1.445V97.837z M132.722,103.328c-0.34-0.442-0.969-0.867-1.87-0.867
			c-2.346,0-2.346,2.839-2.346,3.417c0,1.513,0.391,3.264,2.346,3.264c2.516,0,2.516-2.771,2.516-3.434
			C133.367,104.467,133.078,103.787,132.722,103.328z"/>
		<path fill="#020202" d="M137.873,97.82h1.683v10.76h5.712v1.513h-7.395V97.82z"/>
		<path fill="#020202" d="M153.734,112.184c-0.918-2.261-2.022-5.083-2.022-7.564c0-1.343,0.306-2.668,0.696-3.96
			c0.477-1.53,0.918-2.618,1.207-3.349h1.122c-0.272,0.833-0.646,1.989-1.003,3.604c-0.357,1.564-0.476,2.618-0.476,3.672
			c0,2.414,0.595,4.369,1.58,7.598H153.734z"/>
		<path fill="#020202" d="M160.737,100.183c-0.73,0.612-1.903,1.309-2.736,1.7v-1.7c1.104-0.578,2.192-1.292,2.855-1.853h1.513
			v11.763h-1.632V100.183z"/>
		<path fill="#020202" d="M171.788,102.699l-0.033-1.139h1.614v1.241c0.816-1.343,1.972-1.461,2.703-1.461
			c1.887,0,2.481,0.969,2.787,1.598c0.289-0.476,0.986-1.598,2.873-1.598c1.224,0,3.128,0.51,3.128,3.025v5.729h-1.615v-5.474
			c0-0.748-0.136-1.071-0.289-1.292c-0.271-0.391-0.815-0.748-1.632-0.748c-1.037,0-1.598,0.595-1.818,0.901
			c-0.374,0.527-0.374,1.462-0.374,1.836v4.776h-1.615v-5.644c0-1.054-0.611-1.87-1.869-1.87c-1.088,0-1.684,0.68-1.87,0.935
			c-0.357,0.493-0.374,1.189-0.374,1.733v4.845h-1.615V102.699z"/>
		<path fill="#020202" d="M187.835,102.699l-0.033-1.139h1.614v1.241c0.816-1.343,1.972-1.461,2.703-1.461
			c1.887,0,2.481,0.969,2.787,1.598c0.289-0.476,0.986-1.598,2.873-1.598c1.224,0,3.128,0.51,3.128,3.025v5.729h-1.615v-5.474
			c0-0.748-0.136-1.071-0.289-1.292c-0.271-0.391-0.815-0.748-1.632-0.748c-1.037,0-1.598,0.595-1.818,0.901
			c-0.374,0.527-0.374,1.462-0.374,1.836v4.776h-1.615v-5.644c0-1.054-0.611-1.87-1.869-1.87c-1.088,0-1.684,0.68-1.87,0.935
			c-0.357,0.493-0.374,1.189-0.374,1.733v4.845h-1.615V102.699z"/>
		<path fill="#020202" d="M207.605,101.339c3.417,0,4.182,2.686,4.182,4.47c0,2.499-1.41,4.573-4.317,4.573
			c-2.821,0-4.198-1.955-4.198-4.454C203.271,103.821,204.257,101.339,207.605,101.339z M207.504,109.192
			c1.207,0,2.584-0.867,2.584-3.434c0-2.125-0.986-3.247-2.482-3.247c-1.02,0-2.668,0.646-2.668,3.314
			C204.938,107.578,205.685,109.192,207.504,109.192z"/>
		<path fill="#020202" d="M214.322,97.837h1.598v12.256h-1.598V97.837z"/>
		<path fill="#020202" d="M221.342,97.974h1.105l-3.961,12.392h-1.122L221.342,97.974z"/>
		<path fill="#020202" d="M223.773,97.837h1.598v12.256h-1.598V97.837z"/>
		<path fill="#020202" d="M229.366,97.311c0.918,2.261,2.023,5.065,2.023,7.547c0,1.343-0.307,2.668-0.697,3.96
			c-0.476,1.53-0.918,2.635-1.207,3.366h-1.122c0.272-0.85,0.646-2.006,1.003-3.621c0.357-1.547,0.477-2.618,0.477-3.672
			c0-2.396-0.596-4.352-1.581-7.581H229.366z"/>
	</g>
</g>
</svg>
