<?xml version="1.0" encoding="utf-8"?>
<!-- Generator: Adobe Illustrator 17.0.0, SVG Export Plug-In . SVG Version: 6.00 Build 0)  -->
<!DOCTYPE svg PUBLIC "-//W3C//DTD SVG 1.1//EN" "http://www.w3.org/Graphics/SVG/1.1/DTD/svg11.dtd">
<svg version="1.1" id="Layer_1" xmlns="http://www.w3.org/2000/svg" xmlns:xlink="http://www.w3.org/1999/xlink" x="0px" y="0px"
	 width="200.042px" height="40.736px" viewBox="0 0 200.042 40.736" enable-background="new 0 0 200.042 40.736"
	 xml:space="preserve">
<g>
	<g>
		<path fill="#020202" d="M0.685,1.404l1.368,0.198L1.206,0.531l0.838-0.46l0.504,1.243l0.531-1.27L3.916,0.54L3.034,1.603
			L4.411,1.44L4.394,2.395L3.052,2.188l0.847,1.107L3.061,3.754l-0.521-1.27L2.017,3.763L1.206,3.276l0.838-1.098l-1.359,0.18V1.404
			z"/>
		<path fill="#020202" d="M7.146,1.116H5.211v-1.08h5.275v1.08H8.551v5.429H7.146V1.116z"/>
		<path fill="#020202" d="M14.869,2.16c-0.027-0.225-0.108-1.144-1.053-1.144c-1.036,0-1.468,1.081-1.468,2.422
			c0,0.388,0,2.233,1.359,2.233c0.585,0,1.144-0.369,1.17-1.233h1.468c-0.027,0.387-0.063,0.99-0.585,1.53
			c-0.576,0.594-1.306,0.729-1.899,0.729c-2.242,0-2.972-1.656-2.972-3.268c0-2.062,1.152-3.43,2.98-3.43
			c1.422,0,2.422,0.864,2.422,2.16H14.869z"/>
		<path fill="#020202" d="M17.271,1.998h1.134v1.216h-1.134V1.998z M17.271,5.338h1.134v1.207h-1.134V5.338z"/>
		<path fill="#020202" d="M23.652,1.116h-1.936v-1.08h5.275v1.08h-1.936v5.429h-1.404V1.116z"/>
		<path fill="#020202" d="M29.817,1.891c1.647,0,2.359,1.116,2.359,2.386c0,1.278-0.738,2.431-2.386,2.431
			c-1.297,0-2.323-0.802-2.323-2.395C27.468,3.214,28.026,1.891,29.817,1.891z M29.836,5.779c0.585,0,0.981-0.351,0.981-1.558
			c0-0.603-0.117-1.44-1-1.44c-0.972,0-0.981,1.126-0.981,1.54C28.836,5.338,29.179,5.779,29.836,5.779z"/>
		<path fill="#020202" d="M35.848,6.481c-0.432,0.117-0.819,0.145-1.035,0.145c-1.342,0-1.342-0.847-1.342-1.225V2.907h-0.873V2.025
			h0.873V1.134l1.324-0.486v1.378h1.08v0.882h-1.08V4.96c0.009,0.414,0.009,0.676,0.603,0.676c0.198,0,0.288-0.01,0.45-0.027V6.481z
			"/>
		<path fill="#020202" d="M39.403,6.545c-0.046-0.279-0.046-0.486-0.046-0.621c-0.504,0.729-1.106,0.729-1.359,0.729
			c-0.657,0-0.954-0.188-1.134-0.359c-0.271-0.271-0.396-0.64-0.396-1c0-0.359,0.126-1.026,0.964-1.413
			c0.558-0.252,1.359-0.252,1.8-0.252c0-0.297-0.009-0.441-0.063-0.604c-0.117-0.333-0.469-0.378-0.595-0.378
			c-0.188,0-0.387,0.081-0.504,0.252c-0.099,0.153-0.099,0.297-0.099,0.405h-1.306c0.009-0.243,0.036-0.729,0.513-1.071
			c0.415-0.297,0.945-0.369,1.378-0.369c0.378,0,1.17,0.063,1.62,0.585c0.307,0.369,0.315,0.909,0.315,1.116l0.009,1.828
			c0,0.387,0.027,0.774,0.108,1.152H39.403z M37.765,5.141c0,0.306,0.207,0.647,0.647,0.647c0.243,0,0.441-0.116,0.567-0.261
			c0.234-0.288,0.252-0.639,0.252-1.125C38.377,4.33,37.765,4.601,37.765,5.141z"/>
		<path fill="#020202" d="M41.679,0.036h1.333v6.509h-1.333V0.036z"/>
		<path fill="#020202" d="M50.383,2.16c-0.027-0.225-0.108-1.144-1.053-1.144c-1.036,0-1.468,1.081-1.468,2.422
			c0,0.388,0,2.233,1.359,2.233c0.585,0,1.144-0.369,1.17-1.233h1.468c-0.027,0.387-0.063,0.99-0.585,1.53
			c-0.576,0.594-1.306,0.729-1.899,0.729c-2.242,0-2.972-1.656-2.972-3.268c0-2.062,1.152-3.43,2.98-3.43
			c1.422,0,2.422,0.864,2.422,2.16H50.383z"/>
		<path fill="#020202" d="M52.722,0.045h1.323v2.574c0.153-0.216,0.486-0.684,1.314-0.684c0.676,0,1.107,0.333,1.323,0.612
			c0.162,0.225,0.298,0.639,0.298,1.233v2.764h-1.324V3.826c0-0.262,0-0.99-0.747-0.99c-0.378,0-0.855,0.216-0.855,0.927l0.01,2.782
			h-1.342V0.045z"/>
		<path fill="#020202" d="M60.327,1.891c1.647,0,2.359,1.116,2.359,2.386c0,1.278-0.738,2.431-2.386,2.431
			c-1.297,0-2.323-0.802-2.323-2.395C57.978,3.214,58.536,1.891,60.327,1.891z M60.346,5.779c0.585,0,0.981-0.351,0.981-1.558
			c0-0.603-0.117-1.44-1-1.44c-0.972,0-0.981,1.126-0.981,1.54C59.346,5.338,59.688,5.779,60.346,5.779z"/>
		<path fill="#020202" d="M63.684,0.036h1.333v6.509h-1.333V0.036z"/>
		<path fill="#020202" d="M67.257,4.609c0,0.297,0,1.215,0.928,1.215c0.333,0,0.666-0.126,0.792-0.63h1.216
			c-0.019,0.216-0.063,0.604-0.433,0.99c-0.333,0.352-0.927,0.531-1.594,0.531c-0.387,0-1.125-0.072-1.603-0.567
			c-0.414-0.432-0.585-1.044-0.585-1.773c0-0.738,0.181-1.62,0.945-2.151c0.352-0.234,0.783-0.378,1.278-0.378
			c0.648,0,1.423,0.252,1.837,1.098c0.306,0.621,0.288,1.288,0.27,1.666H67.257z M68.949,3.771c0-0.207-0.018-1.017-0.792-1.017
			c-0.585,0-0.828,0.485-0.855,1.017H68.949z"/>
		<path fill="#020202" d="M72.117,5.23c0.018,0.288,0.198,0.621,0.756,0.621c0.478,0,0.702-0.271,0.702-0.54
			c0-0.207-0.107-0.369-0.63-0.514l-0.828-0.225c-0.369-0.108-1.152-0.333-1.152-1.261c0-0.882,0.81-1.422,1.989-1.422
			c0.937,0,1.692,0.432,1.729,1.341h-1.215c-0.036-0.504-0.441-0.54-0.648-0.54c-0.36,0-0.631,0.171-0.631,0.45
			c0,0.307,0.226,0.369,0.622,0.478l0.819,0.225c0.828,0.226,1.215,0.648,1.215,1.27c0,0.783-0.675,1.566-2.089,1.566
			c-0.585,0-1.144-0.126-1.558-0.559c-0.297-0.314-0.323-0.675-0.333-0.891H72.117z"/>
		<path fill="#020202" d="M78.363,6.481c-0.432,0.117-0.819,0.145-1.035,0.145c-1.342,0-1.342-0.847-1.342-1.225V2.907h-0.873V2.025
			h0.873V1.134l1.324-0.486v1.378h1.08v0.882h-1.08V4.96c0.009,0.414,0.009,0.676,0.603,0.676c0.198,0,0.288-0.01,0.45-0.027V6.481z
			"/>
		<path fill="#020202" d="M80.262,4.609c0,0.297,0,1.215,0.928,1.215c0.333,0,0.666-0.126,0.792-0.63h1.216
			c-0.019,0.216-0.063,0.604-0.433,0.99c-0.333,0.352-0.927,0.531-1.594,0.531c-0.387,0-1.125-0.072-1.603-0.567
			c-0.414-0.432-0.585-1.044-0.585-1.773c0-0.738,0.181-1.62,0.945-2.151c0.352-0.234,0.783-0.378,1.278-0.378
			c0.648,0,1.423,0.252,1.837,1.098c0.306,0.621,0.288,1.288,0.27,1.666H80.262z M81.954,3.771c0-0.207-0.018-1.017-0.792-1.017
			c-0.585,0-0.828,0.485-0.855,1.017H81.954z"/>
		<path fill="#020202" d="M84.194,3.114c0-0.216-0.036-0.873-0.063-1.134h1.251l0.027,0.873c0.171-0.387,0.468-0.937,1.548-0.882
			v1.197c-1.35-0.126-1.431,0.567-1.431,1.134v2.242h-1.333V3.114z"/>
		<path fill="#020202" d="M89.838,1.891c1.647,0,2.359,1.116,2.359,2.386c0,1.278-0.738,2.431-2.386,2.431
			c-1.297,0-2.323-0.802-2.323-2.395C87.488,3.214,88.047,1.891,89.838,1.891z M89.856,5.779c0.585,0,0.981-0.351,0.981-1.558
			c0-0.603-0.117-1.44-1-1.44c-0.972,0-0.981,1.126-0.981,1.54C88.856,5.338,89.199,5.779,89.856,5.779z"/>
		<path fill="#020202" d="M93.194,0.036h1.333v6.509h-1.333V0.036z"/>
		<path fill="#020202" d="M0.685,12.204l1.368,0.198l-0.847-1.071l0.838-0.46l0.504,1.243l0.531-1.27l0.837,0.495l-0.882,1.063
			l1.377-0.162l-0.018,0.954l-1.342-0.207l0.847,1.107l-0.838,0.459l-0.521-1.27l-0.522,1.278l-0.811-0.486l0.838-1.098l-1.359,0.18
			V12.204z"/>
		<path fill="#020202" d="M5.688,12.204l1.368,0.198L6.21,11.331l0.838-0.46l0.504,1.243l0.531-1.27L8.92,11.34l-0.882,1.063
			l1.377-0.162l-0.018,0.954l-1.342-0.207l0.847,1.107l-0.838,0.459l-0.521-1.27l-0.522,1.278L6.21,14.076l0.838-1.098l-1.359,0.18
			V12.204z"/>
		<path fill="#020202" d="M13.212,10.845h1.423v5.393h2.79v1.107h-4.213V10.845z"/>
		<path fill="#020202" d="M18.18,10.854l2.151,0.009c0.36,0,1.459,0.009,2.242,0.585c0.819,0.604,1.107,1.63,1.107,2.558
			c0,1.998-1.071,3.043-2.305,3.268c-0.243,0.045-0.514,0.072-1.171,0.072H18.18V10.854z M19.594,16.273
			c0.152,0.009,0.387,0.018,0.549,0.018c0.594,0,1.107-0.045,1.513-0.45c0.549-0.549,0.585-1.521,0.585-1.836
			c0-0.919-0.315-1.765-1.188-2.008c-0.288-0.081-0.657-0.126-1.458-0.09V16.273z"/>
		<path fill="#020202" d="M24.714,10.845h1.423v5.393h2.79v1.107h-4.213V10.845z"/>
		<path fill="#020202" d="M29.493,14.455h2.232v1.017h-2.232V14.455z"/>
		<path fill="#020202" d="M36.379,12.96c-0.027-0.225-0.108-1.144-1.053-1.144c-1.036,0-1.468,1.081-1.468,2.422
			c0,0.388,0,2.233,1.359,2.233c0.585,0,1.144-0.369,1.17-1.233h1.468c-0.027,0.387-0.063,0.99-0.585,1.53
			c-0.576,0.594-1.306,0.729-1.899,0.729c-2.242,0-2.972-1.656-2.972-3.268c0-2.062,1.152-3.43,2.98-3.43
			c1.422,0,2.422,0.864,2.422,2.16H36.379z"/>
		<path fill="#020202" d="M38.781,12.798h1.134v1.216h-1.134V12.798z M38.781,16.138h1.134v1.207h-1.134V16.138z"/>
		<path fill="#020202" d="M43.722,10.845h1.423v5.393h2.79v1.107h-4.213V10.845z"/>
		<path fill="#020202" d="M50.832,12.69c1.647,0,2.359,1.116,2.359,2.386c0,1.278-0.738,2.431-2.386,2.431
			c-1.297,0-2.323-0.802-2.323-2.395C48.482,14.014,49.041,12.69,50.832,12.69z M50.851,16.579c0.585,0,0.981-0.351,0.981-1.558
			c0-0.603-0.117-1.44-1-1.44c-0.972,0-0.981,1.126-0.981,1.54C49.851,16.138,50.193,16.579,50.851,16.579z"/>
		<path fill="#020202" d="M55.062,12.798l0.838,3.431l0.963-3.431h1.468l0.954,3.431l0.892-3.431h1.323l-1.558,4.547h-1.449
			l-0.937-3.367l-0.954,3.367h-1.468l-1.485-4.547H55.062z"/>
		<path fill="#020202" d="M64.691,10.854l2.151,0.009c0.36,0,1.459,0.009,2.242,0.585c0.819,0.604,1.107,1.63,1.107,2.558
			c0,1.998-1.071,3.043-2.305,3.268c-0.243,0.045-0.514,0.072-1.171,0.072h-2.025V10.854z M66.105,16.273
			c0.152,0.009,0.387,0.018,0.549,0.018c0.594,0,1.107-0.045,1.513-0.45c0.549-0.549,0.585-1.521,0.585-1.836
			c0-0.919-0.315-1.765-1.188-2.008c-0.288-0.081-0.657-0.126-1.458-0.09V16.273z"/>
		<path fill="#020202" d="M72.261,15.409c0,0.297,0,1.215,0.928,1.215c0.333,0,0.666-0.126,0.792-0.63h1.216
			c-0.019,0.216-0.063,0.604-0.433,0.99c-0.333,0.352-0.927,0.531-1.594,0.531c-0.387,0-1.125-0.072-1.603-0.567
			c-0.414-0.432-0.585-1.044-0.585-1.773c0-0.738,0.181-1.62,0.945-2.151c0.352-0.234,0.783-0.378,1.278-0.378
			c0.648,0,1.423,0.252,1.837,1.098c0.306,0.621,0.288,1.288,0.27,1.666H72.261z M73.953,14.571c0-0.207-0.018-1.017-0.792-1.017
			c-0.585,0-0.828,0.485-0.855,1.017H73.953z"/>
		<path fill="#020202" d="M76.212,13.608c0-0.018,0-0.513-0.027-0.828h1.278l0.036,0.684c0.126-0.207,0.486-0.792,1.477-0.792
			c0.891,0,1.27,0.54,1.387,0.855c0.099,0.279,0.126,0.513,0.126,1.359v2.458h-1.359v-2.827c0-0.189,0-0.351-0.072-0.495
			c-0.1-0.198-0.307-0.387-0.648-0.387c-0.288,0-0.549,0.135-0.693,0.351c-0.081,0.117-0.162,0.342-0.162,0.693v2.665h-1.341V13.608
			z"/>
		<path fill="#020202" d="M82.62,16.03c0.018,0.288,0.198,0.621,0.756,0.621c0.478,0,0.702-0.271,0.702-0.54
			c0-0.207-0.107-0.369-0.63-0.514l-0.828-0.225c-0.369-0.108-1.152-0.333-1.152-1.261c0-0.882,0.81-1.422,1.989-1.422
			c0.937,0,1.692,0.432,1.729,1.341h-1.215c-0.036-0.504-0.441-0.54-0.648-0.54c-0.36,0-0.63,0.171-0.63,0.45
			c0,0.307,0.225,0.369,0.621,0.478l0.818,0.225c0.829,0.226,1.216,0.648,1.216,1.27c0,0.783-0.675,1.566-2.089,1.566
			c-0.585,0-1.143-0.126-1.558-0.559c-0.297-0.314-0.323-0.675-0.333-0.891H82.62z"/>
		<path fill="#020202" d="M86.147,10.845h1.423v1.161h-1.423V10.845z M86.192,12.789h1.333v4.556h-1.333V12.789z"/>
		<path fill="#020202" d="M91.368,17.281c-0.432,0.117-0.819,0.145-1.035,0.145c-1.342,0-1.342-0.847-1.342-1.225v-2.494h-0.873
			v-0.882h0.873v-0.892l1.324-0.486v1.378h1.08v0.882h-1.08v2.053c0.009,0.414,0.009,0.676,0.603,0.676
			c0.198,0,0.288-0.01,0.45-0.027V17.281z"/>
		<path fill="#020202" d="M93.177,12.798l0.999,3.151l1.018-3.151h1.323l-1.72,4.466l-0.549,1.81h-1.341l0.576-1.711l-1.747-4.564
			H93.177z"/>
		<path fill="#020202" d="M99.737,10.845h1.423v5.393h2.79v1.107h-4.213V10.845z"/>
		<path fill="#020202" d="M104.66,10.845h1.423v1.161h-1.423V10.845z M104.705,12.789h1.333v4.556h-1.333V12.789z"/>
		<path fill="#020202" d="M108.459,12.798l0.036,0.648c0.414-0.729,1.17-0.738,1.386-0.738c1.18,0,1.891,0.883,1.891,2.269
			c0,1.288-0.666,2.431-1.98,2.431c-0.819,0-1.152-0.432-1.27-0.585v2.269h-1.359v-6.293H108.459z M110.421,15.031
			c0-0.541-0.135-1.468-0.918-1.468c-0.432,0-1.044,0.324-1.044,1.549c0,0.27,0.009,1.422,0.99,1.422
			C110.079,16.534,110.421,15.931,110.421,15.031z"/>
		<path fill="#020202" d="M114.849,12.69c1.647,0,2.359,1.116,2.359,2.386c0,1.278-0.738,2.431-2.386,2.431
			c-1.297,0-2.323-0.802-2.323-2.395C112.499,14.014,113.058,12.69,114.849,12.69z M114.867,16.579c0.585,0,0.981-0.351,0.981-1.558
			c0-0.603-0.117-1.44-1-1.44c-0.972,0-0.981,1.126-0.981,1.54C113.867,16.138,114.21,16.579,114.867,16.579z"/>
		<path fill="#020202" d="M119.457,12.798l0.036,0.648c0.414-0.729,1.17-0.738,1.386-0.738c1.18,0,1.891,0.883,1.891,2.269
			c0,1.288-0.666,2.431-1.98,2.431c-0.819,0-1.152-0.432-1.27-0.585v2.269h-1.359v-6.293H119.457z M121.419,15.031
			c0-0.541-0.135-1.468-0.918-1.468c-0.432,0-1.044,0.324-1.044,1.549c0,0.27,0.009,1.422,0.99,1.422
			C121.077,16.534,121.419,15.931,121.419,15.031z"/>
		<path fill="#020202" d="M123.704,13.914c0-0.216-0.036-0.873-0.063-1.134h1.251l0.027,0.873c0.171-0.387,0.468-0.937,1.548-0.882
			v1.197c-1.35-0.126-1.431,0.567-1.431,1.134v2.242h-1.333V13.914z"/>
		<path fill="#020202" d="M129.348,12.69c1.647,0,2.359,1.116,2.359,2.386c0,1.278-0.738,2.431-2.386,2.431
			c-1.297,0-2.323-0.802-2.323-2.395C126.998,14.014,127.557,12.69,129.348,12.69z M129.366,16.579c0.585,0,0.981-0.351,0.981-1.558
			c0-0.603-0.117-1.44-1-1.44c-0.972,0-0.981,1.126-0.981,1.54C128.366,16.138,128.709,16.579,129.366,16.579z"/>
		<path fill="#020202" d="M135.378,17.281c-0.432,0.117-0.819,0.145-1.035,0.145c-1.342,0-1.342-0.847-1.342-1.225v-2.494h-0.873
			v-0.882h0.873v-0.892l1.324-0.486v1.378h1.08v0.882h-1.08v2.053c0.009,0.414,0.009,0.676,0.603,0.676
			c0.198,0,0.288-0.01,0.45-0.027V17.281z"/>
		<path fill="#020202" d="M137.276,15.409c0,0.297,0,1.215,0.928,1.215c0.333,0,0.666-0.126,0.792-0.63h1.216
			c-0.019,0.216-0.063,0.604-0.433,0.99c-0.333,0.352-0.927,0.531-1.594,0.531c-0.387,0-1.125-0.072-1.603-0.567
			c-0.414-0.432-0.585-1.044-0.585-1.773c0-0.738,0.181-1.62,0.945-2.151c0.352-0.234,0.783-0.378,1.278-0.378
			c0.648,0,1.423,0.252,1.837,1.098c0.306,0.621,0.288,1.288,0.27,1.666H137.276z M138.969,14.571c0-0.207-0.018-1.017-0.792-1.017
			c-0.585,0-0.828,0.485-0.855,1.017H138.969z"/>
		<path fill="#020202" d="M141.164,10.845h1.423v1.161h-1.423V10.845z M141.209,12.789h1.333v4.556h-1.333V12.789z"/>
		<path fill="#020202" d="M143.729,13.608c0-0.018,0-0.513-0.027-0.828h1.278l0.036,0.684c0.126-0.207,0.486-0.792,1.477-0.792
			c0.891,0,1.27,0.54,1.387,0.855c0.099,0.279,0.126,0.513,0.126,1.359v2.458h-1.359v-2.827c0-0.189,0-0.351-0.072-0.495
			c-0.1-0.198-0.307-0.387-0.648-0.387c-0.288,0-0.549,0.135-0.693,0.351c-0.081,0.117-0.162,0.342-0.162,0.693v2.665h-1.341V13.608
			z"/>
		<path fill="#020202" d="M155.412,12.96c-0.027-0.225-0.108-1.144-1.053-1.144c-1.036,0-1.468,1.081-1.468,2.422
			c0,0.388,0,2.233,1.359,2.233c0.585,0,1.144-0.369,1.17-1.233h1.468c-0.027,0.387-0.063,0.99-0.585,1.53
			c-0.576,0.594-1.306,0.729-1.899,0.729c-2.242,0-2.972-1.656-2.972-3.268c0-2.062,1.152-3.43,2.98-3.43
			c1.422,0,2.422,0.864,2.422,2.16H155.412z"/>
		<path fill="#020202" d="M157.751,10.845h1.323v2.574c0.153-0.216,0.486-0.684,1.314-0.684c0.676,0,1.107,0.333,1.323,0.612
			c0.162,0.225,0.298,0.639,0.298,1.233v2.764h-1.324v-2.719c0-0.262,0-0.99-0.747-0.99c-0.378,0-0.855,0.216-0.855,0.927
			l0.01,2.782h-1.342V10.845z"/>
		<path fill="#020202" d="M165.356,12.69c1.647,0,2.359,1.116,2.359,2.386c0,1.278-0.738,2.431-2.386,2.431
			c-1.297,0-2.323-0.802-2.323-2.395C163.007,14.014,163.565,12.69,165.356,12.69z M165.375,16.579c0.585,0,0.981-0.351,0.981-1.558
			c0-0.603-0.117-1.44-1-1.44c-0.972,0-0.981,1.126-0.981,1.54C164.375,16.138,164.718,16.579,165.375,16.579z"/>
		<path fill="#020202" d="M168.713,10.836h1.333v6.509h-1.333V10.836z"/>
		<path fill="#020202" d="M172.286,15.409c0,0.297,0,1.215,0.928,1.215c0.333,0,0.666-0.126,0.792-0.63h1.216
			c-0.019,0.216-0.063,0.604-0.433,0.99c-0.333,0.352-0.927,0.531-1.594,0.531c-0.387,0-1.125-0.072-1.603-0.567
			c-0.414-0.432-0.585-1.044-0.585-1.773c0-0.738,0.181-1.62,0.945-2.151c0.352-0.234,0.783-0.378,1.278-0.378
			c0.648,0,1.423,0.252,1.837,1.098c0.306,0.621,0.288,1.288,0.27,1.666H172.286z M173.979,14.571c0-0.207-0.018-1.017-0.792-1.017
			c-0.585,0-0.828,0.485-0.855,1.017H173.979z"/>
		<path fill="#020202" d="M177.146,16.03c0.018,0.288,0.198,0.621,0.756,0.621c0.478,0,0.702-0.271,0.702-0.54
			c0-0.207-0.107-0.369-0.63-0.514l-0.828-0.225c-0.369-0.108-1.152-0.333-1.152-1.261c0-0.882,0.81-1.422,1.989-1.422
			c0.937,0,1.692,0.432,1.729,1.341h-1.215c-0.036-0.504-0.441-0.54-0.648-0.54c-0.36,0-0.631,0.171-0.631,0.45
			c0,0.307,0.226,0.369,0.622,0.478l0.819,0.225c0.828,0.226,1.215,0.648,1.215,1.27c0,0.783-0.675,1.566-2.089,1.566
			c-0.585,0-1.144-0.126-1.558-0.559c-0.297-0.314-0.323-0.675-0.333-0.891H177.146z"/>
		<path fill="#020202" d="M183.393,17.281c-0.432,0.117-0.819,0.145-1.035,0.145c-1.342,0-1.342-0.847-1.342-1.225v-2.494h-0.873
			v-0.882h0.873v-0.892l1.324-0.486v1.378h1.08v0.882h-1.08v2.053c0.009,0.414,0.009,0.676,0.603,0.676
			c0.198,0,0.288-0.01,0.45-0.027V17.281z"/>
		<path fill="#020202" d="M185.291,15.409c0,0.297,0,1.215,0.928,1.215c0.333,0,0.666-0.126,0.792-0.63h1.216
			c-0.019,0.216-0.063,0.604-0.433,0.99c-0.333,0.352-0.927,0.531-1.594,0.531c-0.387,0-1.125-0.072-1.603-0.567
			c-0.414-0.432-0.585-1.044-0.585-1.773c0-0.738,0.181-1.62,0.945-2.151c0.352-0.234,0.783-0.378,1.278-0.378
			c0.648,0,1.423,0.252,1.837,1.098c0.306,0.621,0.288,1.288,0.27,1.666H185.291z M186.983,14.571c0-0.207-0.018-1.017-0.792-1.017
			c-0.585,0-0.828,0.485-0.855,1.017H186.983z"/>
		<path fill="#020202" d="M189.224,13.914c0-0.216-0.036-0.873-0.063-1.134h1.251l0.027,0.873c0.171-0.387,0.468-0.937,1.548-0.882
			v1.197c-1.35-0.126-1.431,0.567-1.431,1.134v2.242h-1.333V13.914z"/>
		<path fill="#020202" d="M194.867,12.69c1.647,0,2.359,1.116,2.359,2.386c0,1.278-0.738,2.431-2.386,2.431
			c-1.297,0-2.323-0.802-2.323-2.395C192.518,14.014,193.076,12.69,194.867,12.69z M194.886,16.579c0.585,0,0.981-0.351,0.981-1.558
			c0-0.603-0.117-1.44-1-1.44c-0.972,0-0.981,1.126-0.981,1.54C193.886,16.138,194.229,16.579,194.886,16.579z"/>
		<path fill="#020202" d="M198.224,10.836h1.333v6.509h-1.333V10.836z"/>
		<path fill="#020202" d="M0,25.579h0.928l0.197-1.09H0.387v-0.99h0.928l0.297-1.629h1.152l-0.297,1.629h0.855l0.297-1.629H4.78
			l-0.306,1.629h0.747v0.99H4.294l-0.197,1.09h0.738v0.99H3.907l-0.288,1.575H2.467l0.297-1.575H1.899l-0.288,1.575H0.45
			l0.288-1.575H0V25.579z M2.935,25.579l0.207-1.09H2.287l-0.207,1.09H2.935z"/>
		<path fill="#020202" d="M7.146,22.716H5.211v-1.08h5.275v1.08H8.551v5.429H7.146V22.716z"/>
		<path fill="#020202" d="M15.571,23.635c-0.009-0.171-0.018-0.405-0.18-0.657c-0.271-0.433-0.783-0.505-1.09-0.505
			c-1.584,0-1.899,1.477-1.899,2.477c0,0.44,0.063,1.233,0.54,1.746c0.324,0.36,0.757,0.559,1.531,0.559
			c0.675,0,0.909-0.081,1.062-0.126v-1.369h-1.26v-1.08h2.655v3.25c-0.405,0.135-1.071,0.36-2.377,0.36
			c-1.485,0-2.25-0.36-2.764-0.864c-0.729-0.712-0.864-1.747-0.864-2.431c0-2.305,1.44-3.538,3.412-3.538
			c0.838,0,1.702,0.233,2.215,0.819c0.433,0.495,0.459,1.008,0.468,1.359H15.571z"/>
		<path fill="#020202" d="M18.271,23.599h1.134v1.215h-1.134V23.599z M18.271,26.938h1.134v1.206h-1.134V26.938z"/>
		<path fill="#020202" d="M24.651,22.716h-1.936v-1.08h5.275v1.08h-1.936v5.429h-1.404V22.716z"/>
		<path fill="#020202" d="M28.674,24.715c0-0.216-0.036-0.873-0.063-1.135h1.251l0.027,0.874c0.171-0.388,0.468-0.937,1.548-0.883
			v1.197c-1.35-0.126-1.431,0.567-1.431,1.135v2.241h-1.333V24.715z"/>
		<path fill="#020202" d="M32.13,21.645h1.423v1.162H32.13V21.645z M32.175,23.59h1.333v4.555h-1.333V23.59z"/>
		<path fill="#020202" d="M38.989,23.616c-0.036,0.36-0.063,0.666-0.063,1.126V28.1c0,1.675-1.395,1.837-2.269,1.837
			c-0.647,0-1.917-0.081-1.998-1.459h1.278c0.018,0.136,0.081,0.631,0.792,0.631c0.396,0,0.738-0.189,0.828-0.595
			c0.055-0.225,0.055-0.387,0.063-1.08c-0.424,0.559-0.9,0.621-1.225,0.621c-1.306,0-1.918-1.134-1.918-2.232
			c0-1.152,0.64-2.251,1.945-2.251c0.828,0,1.134,0.45,1.269,0.648l0.046-0.604H38.989z M36.702,27.146
			c0.937,0,0.937-1.099,0.937-1.297c0-0.513-0.099-1.386-0.909-1.386c-0.504,0-0.918,0.387-0.918,1.359
			C35.812,26.047,35.812,27.146,36.702,27.146z"/>
		<path fill="#020202" d="M40.176,21.636h1.333v6.509h-1.333V21.636z"/>
		<path fill="#020202" d="M43.659,23.599l0.999,3.15l1.018-3.15h1.323l-1.72,4.465l-0.549,1.81H43.39l0.576-1.71l-1.747-4.564
			H43.659z"/>
		<path fill="#020202" d="M50.086,25.21c-0.019-0.162-0.072-0.837-0.586-0.837c-0.63,0-0.702,0.954-0.702,1.449
			c0,0.252,0.027,1.063,0.333,1.396c0.126,0.135,0.262,0.152,0.36,0.152c0.145,0,0.559-0.063,0.612-0.873h1.314
			c-0.018,0.352-0.063,0.9-0.585,1.342c-0.324,0.279-0.729,0.423-1.297,0.423c-0.603,0-1.134-0.135-1.548-0.604
			c-0.396-0.459-0.576-1.062-0.576-1.791c0-2.07,1.521-2.358,2.124-2.358c0.847,0,1.846,0.468,1.854,1.701H50.086z"/>
		<path fill="#020202" d="M53.253,26.209c0,0.297,0,1.216,0.928,1.216c0.333,0,0.666-0.126,0.792-0.631h1.216
			c-0.019,0.217-0.063,0.604-0.433,0.991c-0.333,0.351-0.927,0.53-1.594,0.53c-0.387,0-1.125-0.071-1.603-0.566
			c-0.414-0.433-0.585-1.045-0.585-1.773c0-0.738,0.181-1.621,0.945-2.152c0.352-0.233,0.783-0.378,1.278-0.378
			c0.648,0,1.423,0.252,1.837,1.099c0.306,0.621,0.288,1.287,0.27,1.665H53.253z M54.945,25.372c0-0.207-0.018-1.018-0.792-1.018
			c-0.585,0-0.828,0.486-0.855,1.018H54.945z"/>
		<path fill="#020202" d="M57.186,24.715c0-0.216-0.036-0.873-0.063-1.135h1.251l0.027,0.874c0.171-0.388,0.468-0.937,1.548-0.883
			v1.197c-1.35-0.126-1.431,0.567-1.431,1.135v2.241h-1.333V24.715z"/>
		<path fill="#020202" d="M60.642,21.645h1.423v1.162h-1.423V21.645z M60.687,23.59h1.333v4.555h-1.333V23.59z"/>
		<path fill="#020202" d="M66.195,21.645h1.342v5.762c0,0.271,0.018,0.567,0.036,0.738h-1.351l-0.036-0.657
			c-0.09,0.162-0.18,0.333-0.459,0.514c-0.333,0.216-0.685,0.233-0.883,0.233c-1.215,0-1.936-0.837-1.936-2.259
			c0-1.504,0.819-2.44,2.008-2.44c0.819,0,1.161,0.459,1.278,0.621V21.645z M65.179,27.37c0.387,0,0.702-0.233,0.846-0.513
			c0.198-0.378,0.216-0.847,0.216-1.071c0-0.892-0.387-1.378-0.99-1.378c-0.891,0-0.99,1.072-0.99,1.531
			C64.26,26.695,64.512,27.37,65.179,27.37z"/>
		<path fill="#020202" d="M69.759,26.209c0,0.297,0,1.216,0.928,1.216c0.333,0,0.666-0.126,0.792-0.631h1.216
			c-0.019,0.217-0.063,0.604-0.433,0.991c-0.333,0.351-0.927,0.53-1.594,0.53c-0.387,0-1.125-0.071-1.603-0.566
			c-0.414-0.433-0.585-1.045-0.585-1.773c0-0.738,0.181-1.621,0.945-2.152c0.352-0.233,0.783-0.378,1.278-0.378
			c0.648,0,1.423,0.252,1.837,1.099c0.306,0.621,0.288,1.287,0.27,1.665H69.759z M71.451,25.372c0-0.207-0.018-1.018-0.792-1.018
			c-0.585,0-0.828,0.486-0.855,1.018H71.451z"/>
		<path fill="#020202" d="M74.619,26.83c0.018,0.288,0.198,0.621,0.756,0.621c0.478,0,0.702-0.27,0.702-0.54
			c0-0.207-0.107-0.369-0.63-0.513l-0.828-0.226c-0.369-0.107-1.152-0.333-1.152-1.26c0-0.883,0.81-1.423,1.989-1.423
			c0.937,0,1.692,0.433,1.729,1.342H75.97c-0.036-0.504-0.441-0.54-0.648-0.54c-0.36,0-0.631,0.171-0.631,0.45
			c0,0.306,0.226,0.369,0.622,0.477l0.819,0.226c0.828,0.225,1.215,0.647,1.215,1.269c0,0.784-0.675,1.567-2.089,1.567
			c-0.585,0-1.144-0.127-1.558-0.559c-0.297-0.315-0.323-0.675-0.333-0.892H74.619z"/>
		<path fill="#020202" d="M0,36.379h0.928l0.197-1.09H0.387v-0.99h0.928l0.297-1.629h1.152l-0.297,1.629h0.855l0.297-1.629H4.78
			l-0.306,1.629h0.747v0.99H4.294l-0.197,1.09h0.738v0.99H3.907l-0.288,1.575H2.467l0.297-1.575H1.899l-0.288,1.575H0.45
			l0.288-1.575H0V36.379z M2.935,36.379l0.207-1.09H2.287l-0.207,1.09H2.935z"/>
		<path fill="#020202" d="M5.004,36.379h0.928l0.197-1.09H5.391v-0.99h0.928l0.297-1.629h1.152l-0.297,1.629h0.855l0.297-1.629
			h1.161l-0.306,1.629h0.747v0.99H9.298l-0.197,1.09h0.738v0.99H8.911l-0.288,1.575H7.471l0.297-1.575H6.903l-0.288,1.575H5.454
			l0.288-1.575H5.004V36.379z M7.938,36.379l0.207-1.09H7.291l-0.207,1.09H7.938z"/>
		<path fill="#020202" d="M10.692,32.436h1.396v2.602h2.457v-2.602h1.414v6.509h-1.396v-2.854h-2.476v2.854h-1.396V32.436z"/>
		<path fill="#020202" d="M17.172,32.454l2.151,0.009c0.36,0,1.459,0.009,2.242,0.585c0.819,0.604,1.107,1.63,1.107,2.557
			c0,1.999-1.071,3.043-2.305,3.269c-0.243,0.045-0.514,0.071-1.171,0.071h-2.025V32.454z M18.586,37.873
			c0.152,0.009,0.387,0.019,0.549,0.019c0.594,0,1.107-0.045,1.513-0.45c0.549-0.55,0.585-1.521,0.585-1.837
			c0-0.918-0.315-1.765-1.188-2.008c-0.288-0.081-0.657-0.126-1.458-0.09V37.873z"/>
		<path fill="#020202" d="M23.706,32.444h1.423v5.393h2.79v1.107h-4.213V32.444z"/>
		<path fill="#020202" d="M28.485,36.055h2.232v1.018h-2.232V36.055z"/>
		<path fill="#020202" d="M35.371,34.561c-0.027-0.226-0.108-1.144-1.053-1.144c-1.036,0-1.468,1.08-1.468,2.422
			c0,0.387,0,2.232,1.359,2.232c0.585,0,1.144-0.369,1.17-1.233h1.468c-0.027,0.387-0.063,0.99-0.585,1.53
			c-0.576,0.595-1.306,0.729-1.899,0.729c-2.242,0-2.972-1.656-2.972-3.268c0-2.063,1.152-3.431,2.98-3.431
			c1.422,0,2.422,0.864,2.422,2.161H35.371z"/>
		<path fill="#020202" d="M37.773,34.398h1.134v1.215h-1.134V34.398z M37.773,37.738h1.134v1.206h-1.134V37.738z"/>
		<path fill="#020202" d="M42.696,32.436h1.396v2.602h2.457v-2.602h1.414v6.509h-1.396v-2.854h-2.476v2.854h-1.396V32.436z"/>
		<path fill="#020202" d="M49.131,32.444h1.423v1.162h-1.423V32.444z M49.176,34.39h1.333v4.555h-1.333V34.39z"/>
		<path fill="#020202" d="M55.99,34.416c-0.036,0.36-0.063,0.666-0.063,1.126v3.357c0,1.675-1.395,1.837-2.269,1.837
			c-0.647,0-1.917-0.081-1.998-1.459h1.278c0.018,0.136,0.081,0.631,0.792,0.631c0.396,0,0.738-0.189,0.828-0.595
			c0.055-0.225,0.055-0.387,0.063-1.08c-0.424,0.559-0.9,0.621-1.225,0.621c-1.306,0-1.918-1.134-1.918-2.232
			c0-1.152,0.64-2.251,1.945-2.251c0.828,0,1.134,0.45,1.27,0.648l0.045-0.604H55.99z M53.703,37.945
			c0.937,0,0.937-1.099,0.937-1.297c0-0.513-0.099-1.386-0.909-1.386c-0.504,0-0.918,0.387-0.918,1.359
			C52.813,36.847,52.813,37.945,53.703,37.945z"/>
		<path fill="#020202" d="M57.213,32.444h1.323v2.575c0.153-0.216,0.486-0.685,1.314-0.685c0.676,0,1.107,0.333,1.323,0.612
			c0.162,0.226,0.298,0.64,0.298,1.233v2.764h-1.324v-2.719c0-0.261,0-0.99-0.747-0.99c-0.378,0-0.855,0.216-0.855,0.928l0.01,2.781
			h-1.342V32.444z"/>
		<path fill="#020202" d="M65.178,32.454l2.151,0.009c0.36,0,1.459,0.009,2.242,0.585c0.819,0.604,1.107,1.63,1.107,2.557
			c0,1.999-1.071,3.043-2.305,3.269c-0.243,0.045-0.514,0.071-1.171,0.071h-2.025V32.454z M66.592,37.873
			c0.152,0.009,0.387,0.019,0.549,0.019c0.594,0,1.107-0.045,1.513-0.45c0.549-0.55,0.585-1.521,0.585-1.837
			c0-0.918-0.315-1.765-1.188-2.008c-0.288-0.081-0.657-0.126-1.458-0.09V37.873z"/>
		<path fill="#020202" d="M72.746,37.009c0,0.297,0,1.216,0.928,1.216c0.333,0,0.666-0.126,0.792-0.631h1.216
			c-0.019,0.217-0.063,0.604-0.433,0.991c-0.333,0.351-0.927,0.53-1.594,0.53c-0.387,0-1.125-0.071-1.603-0.566
			c-0.414-0.433-0.585-1.045-0.585-1.773c0-0.738,0.181-1.621,0.945-2.152c0.352-0.233,0.783-0.378,1.278-0.378
			c0.648,0,1.423,0.252,1.837,1.099c0.306,0.621,0.288,1.287,0.27,1.665H72.746z M74.438,36.172c0-0.207-0.018-1.018-0.792-1.018
			c-0.585,0-0.828,0.486-0.855,1.018H74.438z"/>
		<path fill="#020202" d="M76.697,35.208c0-0.018,0-0.513-0.027-0.828h1.278l0.036,0.685c0.126-0.207,0.486-0.792,1.477-0.792
			c0.891,0,1.27,0.54,1.386,0.855c0.1,0.278,0.127,0.513,0.127,1.359v2.457h-1.359v-2.826c0-0.189,0-0.352-0.072-0.495
			c-0.1-0.198-0.307-0.388-0.648-0.388c-0.288,0-0.549,0.135-0.693,0.352c-0.081,0.117-0.162,0.342-0.162,0.693v2.664h-1.341V35.208
			z"/>
		<path fill="#020202" d="M83.105,37.63c0.018,0.288,0.198,0.621,0.756,0.621c0.478,0,0.702-0.27,0.702-0.54
			c0-0.207-0.107-0.369-0.63-0.513l-0.828-0.226c-0.369-0.107-1.152-0.333-1.152-1.26c0-0.883,0.81-1.423,1.989-1.423
			c0.937,0,1.692,0.433,1.729,1.342h-1.215c-0.036-0.504-0.441-0.54-0.648-0.54c-0.36,0-0.631,0.171-0.631,0.45
			c0,0.306,0.226,0.369,0.622,0.477l0.819,0.226c0.828,0.225,1.215,0.647,1.215,1.269c0,0.784-0.675,1.567-2.089,1.567
			c-0.585,0-1.144-0.127-1.558-0.559c-0.297-0.315-0.323-0.675-0.333-0.892H83.105z"/>
		<path fill="#020202" d="M86.633,32.444h1.423v1.162h-1.423V32.444z M86.678,34.39h1.333v4.555h-1.333V34.39z"/>
		<path fill="#020202" d="M91.854,38.882c-0.432,0.117-0.819,0.144-1.035,0.144c-1.342,0-1.342-0.846-1.342-1.225v-2.493h-0.873
			v-0.883h0.873v-0.891l1.324-0.486v1.377h1.08v0.883h-1.08v2.053c0.009,0.414,0.009,0.675,0.603,0.675
			c0.198,0,0.288-0.009,0.45-0.026V38.882z"/>
		<path fill="#020202" d="M93.662,34.398l0.999,3.15l1.018-3.15h1.323l-1.72,4.465l-0.549,1.81h-1.342l0.576-1.71l-1.746-4.564
			H93.662z"/>
		<path fill="#020202" d="M100.224,32.444h1.423v5.393h2.79v1.107h-4.213V32.444z"/>
		<path fill="#020202" d="M105.146,32.444h1.423v1.162h-1.423V32.444z M105.191,34.39h1.333v4.555h-1.333V34.39z"/>
		<path fill="#020202" d="M108.945,34.398l0.036,0.648c0.414-0.729,1.17-0.738,1.386-0.738c1.18,0,1.891,0.882,1.891,2.269
			c0,1.287-0.666,2.431-1.98,2.431c-0.819,0-1.152-0.433-1.27-0.585v2.269h-1.359v-6.293H108.945z M110.907,36.631
			c0-0.54-0.135-1.468-0.918-1.468c-0.432,0-1.044,0.324-1.044,1.549c0,0.271,0.009,1.423,0.99,1.423
			C110.565,38.135,110.907,37.531,110.907,36.631z"/>
		<path fill="#020202" d="M115.335,34.29c1.647,0,2.359,1.116,2.359,2.386c0,1.278-0.738,2.431-2.386,2.431
			c-1.297,0-2.323-0.801-2.323-2.395C112.985,35.613,113.544,34.29,115.335,34.29z M115.354,38.18c0.585,0,0.981-0.352,0.981-1.558
			c0-0.604-0.117-1.44-1-1.44c-0.972,0-0.981,1.125-0.981,1.539C114.354,37.738,114.696,38.18,115.354,38.18z"/>
		<path fill="#020202" d="M119.942,34.398l0.035,0.648c0.415-0.729,1.171-0.738,1.387-0.738c1.18,0,1.891,0.882,1.891,2.269
			c0,1.287-0.666,2.431-1.98,2.431c-0.819,0-1.152-0.433-1.27-0.585v2.269h-1.359v-6.293H119.942z M121.904,36.631
			c0-0.54-0.135-1.468-0.918-1.468c-0.433,0-1.044,0.324-1.044,1.549c0,0.271,0.009,1.423,0.99,1.423
			C121.563,38.135,121.904,37.531,121.904,36.631z"/>
		<path fill="#020202" d="M124.189,35.515c0-0.216-0.036-0.873-0.063-1.135h1.251l0.027,0.874c0.171-0.388,0.468-0.937,1.548-0.883
			v1.197c-1.35-0.126-1.431,0.567-1.431,1.135v2.241h-1.333V35.515z"/>
		<path fill="#020202" d="M129.833,34.29c1.647,0,2.359,1.116,2.359,2.386c0,1.278-0.738,2.431-2.386,2.431
			c-1.297,0-2.323-0.801-2.323-2.395C127.483,35.613,128.042,34.29,129.833,34.29z M129.852,38.18c0.585,0,0.981-0.352,0.981-1.558
			c0-0.604-0.117-1.44-1-1.44c-0.972,0-0.981,1.125-0.981,1.539C128.852,37.738,129.194,38.18,129.852,38.18z"/>
		<path fill="#020202" d="M135.863,38.882c-0.432,0.117-0.819,0.144-1.035,0.144c-1.342,0-1.342-0.846-1.342-1.225v-2.493h-0.873
			v-0.883h0.873v-0.891l1.324-0.486v1.377h1.08v0.883h-1.08v2.053c0.009,0.414,0.009,0.675,0.603,0.675
			c0.198,0,0.288-0.009,0.45-0.026V38.882z"/>
		<path fill="#020202" d="M137.762,37.009c0,0.297,0,1.216,0.928,1.216c0.333,0,0.666-0.126,0.792-0.631h1.216
			c-0.019,0.217-0.063,0.604-0.433,0.991c-0.333,0.351-0.927,0.53-1.594,0.53c-0.387,0-1.125-0.071-1.603-0.566
			c-0.414-0.433-0.585-1.045-0.585-1.773c0-0.738,0.181-1.621,0.945-2.152c0.352-0.233,0.783-0.378,1.278-0.378
			c0.648,0,1.423,0.252,1.837,1.099c0.306,0.621,0.288,1.287,0.27,1.665H137.762z M139.454,36.172c0-0.207-0.018-1.018-0.792-1.018
			c-0.585,0-0.828,0.486-0.855,1.018H139.454z"/>
		<path fill="#020202" d="M141.649,32.444h1.423v1.162h-1.423V32.444z M141.694,34.39h1.333v4.555h-1.333V34.39z"/>
		<path fill="#020202" d="M144.215,35.208c0-0.018,0-0.513-0.027-0.828h1.278l0.036,0.685c0.126-0.207,0.486-0.792,1.477-0.792
			c0.891,0,1.27,0.54,1.386,0.855c0.1,0.278,0.127,0.513,0.127,1.359v2.457h-1.359v-2.826c0-0.189,0-0.352-0.072-0.495
			c-0.1-0.198-0.307-0.388-0.648-0.388c-0.288,0-0.549,0.135-0.693,0.352c-0.081,0.117-0.162,0.342-0.162,0.693v2.664h-1.341V35.208
			z"/>
		<path fill="#020202" d="M155.897,34.561c-0.027-0.226-0.107-1.144-1.053-1.144c-1.036,0-1.468,1.08-1.468,2.422
			c0,0.387,0,2.232,1.359,2.232c0.585,0,1.144-0.369,1.17-1.233h1.468c-0.027,0.387-0.063,0.99-0.585,1.53
			c-0.576,0.595-1.306,0.729-1.899,0.729c-2.242,0-2.972-1.656-2.972-3.268c0-2.063,1.152-3.431,2.98-3.431
			c1.422,0,2.422,0.864,2.422,2.161H155.897z"/>
		<path fill="#020202" d="M158.236,32.444h1.323v2.575c0.153-0.216,0.486-0.685,1.314-0.685c0.676,0,1.107,0.333,1.323,0.612
			c0.162,0.226,0.298,0.64,0.298,1.233v2.764h-1.324v-2.719c0-0.261,0-0.99-0.747-0.99c-0.378,0-0.855,0.216-0.855,0.928l0.01,2.781
			h-1.342V32.444z"/>
		<path fill="#020202" d="M165.842,34.29c1.647,0,2.359,1.116,2.359,2.386c0,1.278-0.738,2.431-2.386,2.431
			c-1.297,0-2.323-0.801-2.323-2.395C163.492,35.613,164.051,34.29,165.842,34.29z M165.86,38.18c0.585,0,0.981-0.352,0.981-1.558
			c0-0.604-0.117-1.44-1-1.44c-0.972,0-0.981,1.125-0.981,1.539C164.86,37.738,165.203,38.18,165.86,38.18z"/>
		<path fill="#020202" d="M169.198,32.436h1.333v6.509h-1.333V32.436z"/>
		<path fill="#020202" d="M172.771,37.009c0,0.297,0,1.216,0.928,1.216c0.333,0,0.666-0.126,0.792-0.631h1.216
			c-0.019,0.217-0.063,0.604-0.433,0.991c-0.333,0.351-0.927,0.53-1.594,0.53c-0.387,0-1.125-0.071-1.603-0.566
			c-0.414-0.433-0.585-1.045-0.585-1.773c0-0.738,0.181-1.621,0.945-2.152c0.352-0.233,0.783-0.378,1.278-0.378
			c0.648,0,1.423,0.252,1.837,1.099c0.306,0.621,0.288,1.287,0.27,1.665H172.771z M174.464,36.172c0-0.207-0.018-1.018-0.792-1.018
			c-0.585,0-0.828,0.486-0.855,1.018H174.464z"/>
		<path fill="#020202" d="M177.632,37.63c0.018,0.288,0.198,0.621,0.756,0.621c0.478,0,0.702-0.27,0.702-0.54
			c0-0.207-0.107-0.369-0.63-0.513l-0.828-0.226c-0.369-0.107-1.152-0.333-1.152-1.26c0-0.883,0.81-1.423,1.989-1.423
			c0.937,0,1.692,0.433,1.729,1.342h-1.215c-0.036-0.504-0.441-0.54-0.648-0.54c-0.36,0-0.63,0.171-0.63,0.45
			c0,0.306,0.225,0.369,0.621,0.477l0.818,0.226c0.829,0.225,1.216,0.647,1.216,1.269c0,0.784-0.675,1.567-2.089,1.567
			c-0.585,0-1.143-0.127-1.558-0.559c-0.297-0.315-0.323-0.675-0.333-0.892H177.632z"/>
		<path fill="#020202" d="M183.878,38.882c-0.432,0.117-0.819,0.144-1.035,0.144c-1.342,0-1.342-0.846-1.342-1.225v-2.493h-0.873
			v-0.883h0.873v-0.891l1.324-0.486v1.377h1.08v0.883h-1.08v2.053c0.009,0.414,0.009,0.675,0.603,0.675
			c0.198,0,0.288-0.009,0.45-0.026V38.882z"/>
		<path fill="#020202" d="M185.776,37.009c0,0.297,0,1.216,0.928,1.216c0.333,0,0.666-0.126,0.792-0.631h1.216
			c-0.019,0.217-0.063,0.604-0.433,0.991c-0.333,0.351-0.927,0.53-1.594,0.53c-0.387,0-1.125-0.071-1.603-0.566
			c-0.414-0.433-0.585-1.045-0.585-1.773c0-0.738,0.181-1.621,0.945-2.152c0.352-0.233,0.783-0.378,1.278-0.378
			c0.648,0,1.423,0.252,1.837,1.099c0.306,0.621,0.288,1.287,0.27,1.665H185.776z M187.469,36.172c0-0.207-0.018-1.018-0.792-1.018
			c-0.585,0-0.828,0.486-0.855,1.018H187.469z"/>
		<path fill="#020202" d="M189.709,35.515c0-0.216-0.036-0.873-0.063-1.135h1.251l0.027,0.874c0.171-0.388,0.468-0.937,1.548-0.883
			v1.197c-1.35-0.126-1.431,0.567-1.431,1.135v2.241h-1.333V35.515z"/>
		<path fill="#020202" d="M195.353,34.29c1.647,0,2.359,1.116,2.359,2.386c0,1.278-0.738,2.431-2.386,2.431
			c-1.297,0-2.323-0.801-2.323-2.395C193.003,35.613,193.562,34.29,195.353,34.29z M195.371,38.18c0.585,0,0.981-0.352,0.981-1.558
			c0-0.604-0.117-1.44-1-1.44c-0.972,0-0.981,1.125-0.981,1.539C194.371,37.738,194.714,38.18,195.371,38.18z"/>
		<path fill="#020202" d="M198.709,32.436h1.333v6.509h-1.333V32.436z"/>
	</g>
</g>
</svg>
